<?xml version="1.0" encoding="utf-8"?>
<!-- Generator: Adobe Illustrator 25.4.1, SVG Export Plug-In . SVG Version: 6.00 Build 0)  -->
<svg version="1.1" id="Layer_1" xmlns="http://www.w3.org/2000/svg" xmlns:xlink="http://www.w3.org/1999/xlink" x="0px" y="0px"
	 viewBox="0 0 100 100.3" style="enable-background:new 0 0 100 100.3;" xml:space="preserve">
<style type="text/css">
	.st0{fill:url(#SVGID_1_);}
	.st1{fill:#5EA0EF;}
	.st2{fill:url(#SVGID_00000129902321477812735120000004145471445607684501_);}
	.st3{fill:#C3F1FF;}
	.st4{fill:#9CEBFF;}
	.st5{fill:url(#SVGID_00000018947431726478931700000000942945389398914177_);}
	.st6{fill:url(#SVGID_00000059279341788370194170000003624764673781255054_);}
</style>
<linearGradient id="SVGID_1_" gradientUnits="userSpaceOnUse" x1="36.186" y1="91.6736" x2="36.186" y2="14.1347" gradientTransform="matrix(1 0 0 -1 0 102.2638)">
	<stop  offset="0" style="stop-color:#5EA0EF"/> -->
	<stop  offset="1" style="stop-color:#0078D4"/> -->
</linearGradient>
<path class="st0" d="M56.2,84.8l-0.4-1l-4.6-1.5L50.4,82l-2.1-0.8V71.1l2.2-0.8l5.4-1.9l0.4-1l-2.1-4.2l-0.4-0.8l-1.1-2.1l1.7-1.7
	l3.9-3.9l1.6-1.6l2.1,1l5,2.4l1-0.4l1.5-4.6l0.3-0.8l0.8-2.1h1.8V14c0-1.6-1.3-3-2.9-3c0,0,0,0,0,0H3c-1.6,0-3,1.3-3,3v71.6
	c0,1.6,1.3,3,3,3c0,0,0,0,0,0h51.4L56.2,84.8z"/> -->
<path class="st1" d="M55.8,83.8l-4.6-1.5L50.4,82l-2.1-0.8V71.1l2.2-0.8l5.4-1.9l0.4-1l-2.1-4.2l-0.4-0.8l-1.1-2.1l1.7-1.7l3.9-3.9
	l1.6-1.6l2.1,1l5,2.4l1-0.4V18.7c0-1.6-1.3-3-3-3H7.4c-1.6,0-3,1.3-3,2.9c0,0,0,0,0,0v62.2c0,1.6,1.3,3,3,3c0,0,0,0,0,0L55.8,83.8
	L55.8,83.8z"/> -->
<linearGradient id="SVGID_00000180329580877934422330000002122316262169370807_" gradientUnits="userSpaceOnUse" x1="36.186" y1="288.484" x2="36.186" y2="306.964" gradientTransform="matrix(1 0 0 1 0 -288.484)">
	<stop  offset="0" style="stop-color:#5EA0EF"/> -->
	<stop  offset="1" style="stop-color:#0078D4"/> -->
</linearGradient>
<path style="fill:url(#SVGID_00000180329580877934422330000002122316262169370807_);" d="M41.8,5.7c0-3.1-2.5-5.7-5.7-5.7
	c-3.1,0-5.7,2.5-5.7,5.7H19.9c-1.6,0-3,1.3-3,2.9c0,0,0,0,0,0v9.8h38.4V8.6c0-1.6-1.3-3-3-3H41.8z M35.3,3c1.5-0.4,3.1,0.4,3.5,2
	C38.9,5.2,39,5.4,39,5.7h-0.1c0,1.6-1.3,2.8-2.8,2.8c0,0,0,0,0,0c-0.4,0-0.7-0.1-1.1-0.2c-1.3-0.6-2-2-1.6-3.4
	C33.6,4,34.4,3.2,35.3,3z"/> -->
<path class="st3" d="M42.8,27.8H29.6c-0.8,0-1.5,0.6-1.5,1.5v13.2c0,0.8,0.7,1.5,1.5,1.5c0,0,0,0,0,0h13.2c0.8,0,1.5-0.6,1.5-1.4
	V29.3C44.3,28.5,43.7,27.8,42.8,27.8C42.8,27.8,42.8,27.8,42.8,27.8z M41.6,40.3c0,0.5-0.5,0.9-1,0.9h-8.8c-0.5,0-1-0.4-1-0.9v-8.8
	c0-0.5,0.4-1,1-1c0,0,0,0,0,0h8.6c0.5,0,1,0.4,1,1c0,0,0,0,0,0L41.6,40.3z"/> -->
<path class="st4" d="M50,54.5v7.8h3.5v-0.5l-0.8-1.6l0.8-0.8v-7.8c0-0.8-0.6-1.4-1.4-1.4H38.8c-0.4,0-0.7-0.3-0.7-0.7v-6.4h-3.5v6.4
	c0,0.4-0.3,0.7-0.7,0.7H20.8c-0.8,0-1.4,0.6-1.4,1.4v10.5h3.5v-7.6c0-0.4,0.3-0.7,0.7-0.7h25.7C49.7,53.8,50,54.1,50,54.5
	C50,54.5,50,54.5,50,54.5z"/> -->
<path class="st3" d="M16.3,61.9h9.4c0.6,0,1.1,0.5,1.1,1.1v9.4c0,0.6-0.5,1.1-1.1,1.1h-9.4c-0.6,0-1.1-0.5-1.1-1.1V63
	C15.2,62.4,15.7,61.9,16.3,61.9z"/> -->
<path class="st3" d="M48.2,73.4v-2.3l2.2-0.8l5.4-1.9l0.4-1l-2.1-4.2l-0.4-0.8L53.6,62h-6.6c-0.6,0-1.1,0.5-1.1,1.1v9.4
	c0,0.6,0.5,1.1,1.1,1.1h1.3V73.4z"/> -->
<linearGradient id="SVGID_00000018959277661978874610000010384220600643609495_" gradientUnits="userSpaceOnUse" x1="75.7405" y1="46.2783" x2="75.7405" y2="-3.872" gradientTransform="matrix(1 0 0 -1 0 102.2638)">
	<stop  offset="0" style="stop-color:#5EA0EF"/> -->
	<stop  offset="1" style="stop-color:#0078D4"/> -->
</linearGradient>
<path style="fill:url(#SVGID_00000018959277661978874610000010384220600643609495_);" d="M100,78.6v-5.5l-0.8-0.3l-5.9-1.9l-1.5-3.8
	l3-6.4l-3.9-3.9l-0.8,0.4l-5.5,2.8l-3.8-1.6l-2.4-6.7h-5.5l-0.3,0.8l-1.9,6L66.8,60l-6.3-3l-3.9,3.9l0.4,0.8l2.8,5.5L58.3,71
	l-6.8,2.4v5.5l0.8,0.3l5.9,1.9l1.5,3.8l-3,6.4l3.9,3.9l0.8-0.4L67,92l3.8,1.5l2.4,6.7h5.5l0.3-0.8l1.9-5.9l3.8-1.5l6.4,3l3.9-3.9
	l-0.4-0.8l-2.8-5.5l1.6-3.8L100,78.6z M75.8,86.6L75.8,86.6c-5.9,0-10.6-4.8-10.6-10.6c0-5.9,4.8-10.6,10.6-10.6
	c5.9,0,10.6,4.8,10.6,10.6C86.4,81.9,81.7,86.6,75.8,86.6C75.8,86.6,75.8,86.6,75.8,86.6L75.8,86.6z"/> -->
<linearGradient id="SVGID_00000145761584954568684860000009603549370228749235_" gradientUnits="userSpaceOnUse" x1="75.76" y1="17.1413" x2="75.76" y2="15.4431" gradientTransform="matrix(1 0 0 -1 0 102.2638)">
	<stop  offset="0" style="stop-color:#5EA0EF"/> -->
	<stop  offset="1" style="stop-color:#0078D4"/> -->
</linearGradient>
<polygon style="fill:url(#SVGID_00000145761584954568684860000009603549370228749235_);" points="75.8,85 75.8,85 75.8,86.6
	75.8,85 "/> -->
</svg>
