<?xml version="1.0" encoding="utf-8"?>
<!-- Generator: Adobe Illustrator 25.4.1, SVG Export Plug-In . SVG Version: 6.00 Build 0)  -->
<svg version="1.1" id="Layer_1" xmlns="http://www.w3.org/2000/svg" xmlns:xlink="http://www.w3.org/1999/xlink" x="0px" y="0px"
	 viewBox="0 0 100 100" style="enable-background:new 0 0 100 100;" xml:space="preserve">
<style type="text/css">
	.st0{fill:url(#SVGID_1_);}
	.st1{fill:#9CEBFF;}
	.st2{fill:#C3F1FF;}
	.st3{opacity:0.8;fill:#FFFFFF;enable-background:new    ;}
</style>
<linearGradient id="SVGID_1_" gradientUnits="userSpaceOnUse" x1="54.1738" y1="87.4498" x2="35.3626" y2="-72.3224" gradientTransform="matrix(1 0 0 -1 0 102)">
	<stop  offset="0" style="stop-color:#5EA0EF"/> -->
	<stop  offset="1" style="stop-color:#0078D4"/> -->
</linearGradient>
<circle class="st0" cx="50" cy="50" r="50"/> -->
<path class="st1" d="M48.3,6.4c11.3-0.4,22.3,3.5,30.8,11c0.8,0.7,0.9,1.9,0.2,2.7c0,0,0,0-0.1,0.1l-0.9,0.9
	c-0.7,0.7-1.8,0.8-2.6,0.1c-7.5-6.6-17.2-10.1-27.2-9.8c-1,0-1.8-0.7-1.9-1.7l-0.1-1.3c-0.1-1.1,0.7-2,1.7-2.1
	C48.2,6.4,48.3,6.4,48.3,6.4z"/> -->
<path class="st1" d="M83.6,25.3c0.8-0.6,2-0.5,2.7,0.4c0,0,0,0.1,0.1,0.1l0.1,0.1c3,4.5,5.1,9.5,6.2,14.8c0.2,1-0.4,2.1-1.4,2.3
	c0,0-0.1,0-0.1,0l-1.3,0.2c-1,0.2-1.9-0.5-2.2-1.4c-1-4.6-2.9-9.1-5.5-13l0,0c-0.6-0.8-0.4-2,0.4-2.6L83.6,25.3z"/> -->
<path class="st2" d="M93.6,52.4c-0.5,8.8-3.6,17.3-9,24.3c-0.8,1.1-2.3,1.3-3.4,0.4c0,0-0.1-0.1-0.1-0.1l-0.2-0.2
	c-1-0.8-1.1-2.3-0.3-3.3c4.8-6.2,7.5-13.7,8-21.4c0.1-1.2,1.1-2.2,2.3-2.2h0.3c1.3-0.1,2.5,1,2.5,2.3C93.6,52.3,93.6,52.3,93.6,52.4
	z"/> -->
<path class="st2" d="M37.6,13.5c-20.2,6.9-30.9,28.8-24,49s28.8,30.9,49,24c2.2-0.7,4.3-1.7,6.3-2.8c1.2-0.7,2.3-1.4,3.4-2.2
	c1-0.7,2.5-0.5,3.3,0.5l0.2,0.2c0.8,1,0.7,2.6-0.4,3.4c0,0-0.1,0.1-0.1,0.1c-1.3,0.9-2.6,1.7-3.9,2.4c-21.1,11.7-47.7,4.1-59.4-16.9
	S7.7,23.6,28.8,11.8c2.3-1.3,4.7-2.3,7.2-3.2c1.3-0.4,2.6,0.3,3.1,1.5c0,0.1,0,0.2,0.1,0.2l0.1,0.3C39.4,11.9,38.7,13.1,37.6,13.5z"
	/> -->
<path class="st1" d="M68.9,73.7c2.3,0,4.1-1.9,4.1-4.1c0-0.2,0-0.3,0-0.5c-1.6-13-9-23.5-23.1-23.5S28.2,54.5,26.7,69
	c-0.2,2.3,1.4,4.3,3.7,4.5L68.9,73.7z"/> -->
<path class="st3" d="M50.1,48.6c-2.5,0-4.9-0.7-6.9-2.1l6.9,18.2L57,46.7C55,48,52.6,48.6,50.1,48.6z"/> -->
<circle class="st1" cx="50" cy="35.6" r="13"/> -->
</svg>
