<?xml version="1.0" encoding="utf-8"?>
<!-- Generator: Adobe Illustrator 25.4.1, SVG Export Plug-In . SVG Version: 6.00 Build 0)  -->
<svg version="1.1" id="Layer_1" xmlns="http://www.w3.org/2000/svg" xmlns:xlink="http://www.w3.org/1999/xlink" x="0px" y="0px"
	 viewBox="0 0 100 122.4" style="enable-background:new 0 0 100 122.4;" xml:space="preserve">
<style type="text/css">
	.st0{fill:url(#SVGID_1_);}
	.st1{fill:#5EA0EF;}
	.st2{fill:url(#SVGID_00000176019781795512564950000017716320391116793734_);}
	.st3{fill:#9CEBFF;}
	.st4{fill:#C3F1FF;}
</style>
<linearGradient id="SVGID_1_" gradientUnits="userSpaceOnUse" x1="50" y1="303.7629" x2="50" y2="410.933" gradientTransform="matrix(1 0 0 1 0 -288.484)">
	<stop  offset="0" style="stop-color:#5EA0EF"/> -->
	<stop  offset="1" style="stop-color:#0078D4"/> -->
</linearGradient>
<path class="st0" d="M4.1,15.3h91.8c2.3,0,4.1,1.8,4.1,4.1v99c0,2.3-1.8,4.1-4.1,4.1H4.1c-2.3,0-4.1-1.8-4.1-4.1v-99
	C0,17.1,1.8,15.3,4.1,15.3z"/> -->
<path class="st1" d="M10.2,21.8h79.6c2.3,0,4.1,1.8,4.1,4.1v85.9c0,2.3-1.8,4.1-4.1,4.1H10.2c-2.3,0-4.1-1.8-4.1-4.1V25.9
	C6.1,23.6,7.9,21.8,10.2,21.8z"/> -->
<linearGradient id="SVGID_00000129180157078796827140000016878762971156613769_" gradientUnits="userSpaceOnUse" x1="50" y1="288.484" x2="50" y2="314.0282" gradientTransform="matrix(1 0 0 1 0 -288.484)">
	<stop  offset="0" style="stop-color:#5EA0EF"/> -->
	<stop  offset="1" style="stop-color:#0078D4"/> -->
</linearGradient>
<path style="fill:url(#SVGID_00000129180157078796827140000016878762971156613769_);" d="M57.8,7.9c0-4.3-3.5-7.9-7.9-7.9
	s-7.9,3.5-7.9,7.9H27.6c-2.3,0-4.1,1.8-4.1,4.1v13.6h53.1V11.9c0-2.3-1.8-4.1-4.1-4.1l0,0C72.4,7.9,57.8,7.9,57.8,7.9z M48.9,4.1
	c2.1-0.6,4.3,0.6,4.9,2.7c0,0,0,0,0,0c0.1,0.3,0.2,0.7,0.1,1.1h-0.1c0,2.2-1.7,3.9-3.9,3.9c-0.5,0-1-0.1-1.5-0.3
	c-1.8-0.8-2.8-2.8-2.2-4.7C46.5,5.5,47.5,4.4,48.9,4.1z"/> -->
<path class="st3" d="M52.6,69.5v-9.3h-5.1v9.3c0,0.6-0.5,1-1,1H27.5c-1.1,0-2,0.9-2,2l0,0v15.2h5.1v-11c0-0.5,0.4-1,1-1h37.2
	c0.6,0,1,0.5,1,1l0,0V88h5.1V72.5c0-1.1-0.9-2-2-2H53.6C53,70.5,52.6,70,52.6,69.5L52.6,69.5z"/> -->
<path class="st4" d="M59.4,38.2H40.3c-1.2,0-2.1,0.9-2.2,2.1v19.1c0,1.2,0.9,2.1,2.1,2.1l0,0h19.2c1.2,0.1,2.1-0.8,2.2-2
	c0,0,0-0.1,0-0.1V40.3C61.6,39.1,60.6,38.2,59.4,38.2L59.4,38.2z M57.6,56.2c0,0.8-0.7,1.4-1.4,1.4H43.5c-0.8,0-1.4-0.6-1.4-1.4
	V43.5c0-0.8,0.6-1.4,1.4-1.4l0,0h12.4c0.8,0,1.4,0.6,1.4,1.4c0,0,0,0,0,0L57.6,56.2z"/> -->
<path class="st4" d="M21,87.4h13.6c0.8,0,1.5,0.7,1.5,1.5v13.6c0,0.8-0.7,1.5-1.5,1.5H21c-0.8,0-1.5-0.7-1.5-1.5V89
	C19.4,88.1,20.1,87.4,21,87.4z"/> -->
<path class="st4" d="M65.3,87.6h13.6c0.8,0,1.5,0.7,1.5,1.5v13.6c0,0.8-0.7,1.5-1.5,1.5H65.3c-0.8,0-1.5-0.7-1.5-1.5V89.1
	C63.8,88.2,64.5,87.6,65.3,87.6z"/> -->
</svg>
