<svg xmlns="http://www.w3.org/2000/svg" width="50" height="50" class="fxs-portal-svg" id="FxSymbol0-062" role="presentation" viewBox="0 0 25 25" focusable="false" xmlns:xlink="http://www.w3.org/1999/xlink" xmlns:svg="http://www.w3.org/2000/svg">
<path fill="#804998" d="M11,0H5C3.9,0,3,0.9,3,2v14h10V2C13,0.9,12.1,0,11,0z"/>
<path fill="#E5E5E5" d="M10.5,4h-5C5.22,4,5,3.78,5,3.5l0,0C5,3.22,5.22,3,5.5,3h5C10.78,3,11,3.22,11,3.5l0,0
	C11,3.78,10.78,4,10.5,4z"/>
<path fill="#E5E5E5" d="M10.5,8h-5C5.22,8,5,7.78,5,7.5l0,0C5,7.22,5.22,7,5.5,7h5C10.78,7,11,7.22,11,7.5l0,0
	C11,7.78,10.78,8,10.5,8z"/>
<circle fill="#B8D432" cx="8" cy="13" r="1"/>
</svg>
