<?xml version="1.0" encoding="UTF-8" standalone="no"?><svg xmlns="http://www.w3.org/2000/svg" xmlns:xlink="http://www.w3.org/1999/xlink" contentScriptType="application/ecmascript" contentStyleType="text/css" height="268px" preserveAspectRatio="none" style="width:394px;height:268px;" version="1.1" viewBox="0 0 394 268" width="394px" zoomAndPan="magnify"><defs/><g><text fill="#000000" font-family="Segoe UI" font-size="18" lengthAdjust="spacingAndGlyphs" textLength="121" x="148" y="16.708">Basic Usage 5</text><!--MD5=[90fb240973146e005718c7eb483869ef]
cluster Azure Analysis Services--><rect fill="#FFFFFF" height="213" style="stroke: #0078D4; stroke-width: 1.0;" width="361" x="22" y="44.9531"/><svg x="167.5" y="46.9531"><g id="surface1"><path style=" stroke:none;fill-rule:nonzero;fill:rgb(0%,44.705882%,77.647059%);fill-opacity:1;" d="M 55.589844 30.414063 C 57.609375 30.414063 59.246094 28.777344 59.246094 26.753906 C 59.246094 24.734375 57.609375 23.097656 55.589844 23.097656 C 54.269531 23.097656 53.121094 23.800781 52.476563 24.847656 L 18.054688 14.332031 C 18.058594 14.277344 18.070313 14.226563 18.070313 14.171875 C 18.070313 12.152344 16.433594 10.515625 14.410156 10.515625 C 12.390625 10.515625 10.753906 12.152344 10.753906 14.171875 C 10.753906 16.074219 12.207031 17.617188 14.058594 17.796875 L 17.988281 42.617188 C 16.691406 43.179688 15.785156 44.46875 15.785156 45.96875 C 15.785156 47.992188 17.421875 49.628906 19.445313 49.628906 C 21.464844 49.628906 23.105469 47.992188 23.105469 45.96875 C 23.105469 45.675781 23.0625 45.394531 22.996094 45.121094 L 52.898438 29.222656 C 53.566406 29.949219 54.519531 30.414063 55.589844 30.414063 Z M 22.132813 43.503906 C 21.539063 42.859375 20.722656 42.433594 19.796875 42.347656 L 15.867188 17.527344 C 16.558594 17.226563 17.132813 16.714844 17.523438 16.082031 L 51.945313 26.597656 C 51.941406 26.652344 51.929688 26.703125 51.929688 26.753906 C 51.929688 27.050781 51.972656 27.332031 52.039063 27.605469 Z M 20.496094 37.800781 L 29.882813 37.800781 L 33.601563 35.824219 L 33.601563 32.21875 L 19.609375 32.210938 Z M 30.800781 53.199219 L 7 53.199219 L 7 37.800781 L 15.808594 37.800781 L 14.921875 32.207031 L 4.199219 32.199219 L 4.199219 56 L 33.601563 56 L 33.601563 41.066406 L 30.800781 42.554688 Z M 40.601563 32.101563 L 43.398438 30.613281 L 43.398438 25.453125 L 40.601563 24.597656 Z M 40.601563 12.601563 L 40.601563 19.753906 L 43.398438 20.609375 L 43.398438 18.199219 L 67.199219 18.199219 L 67.199219 33.601563 L 47.644531 33.601563 L 42.378906 36.398438 L 70 36.398438 L 70 12.617188 Z M 29.398438 21.171875 L 26.601563 20.316406 L 26.601563 21 L 17.835938 21 L 18.28125 23.800781 L 29.398438 23.800781 Z M 13.148438 21 L 2.800781 21 L 2.800781 5.601563 L 26.601563 5.601563 L 26.601563 15.476563 L 29.398438 16.332031 L 29.398438 0.0195313 L 0 0 L 0 23.800781 L 13.589844 23.800781 Z M 13.148438 21 "/></g></svg><text fill="#000000" font-family="Segoe UI" font-size="14" font-weight="bold" lengthAdjust="spacingAndGlyphs" textLength="190" x="107.5" y="115.9482">Azure Analysis Services</text><!--MD5=[87a198699ea885f3f83ef80574db449e]
entity src--><rect fill="#FFFFFF" height="106.2969" style="stroke: #0078D4; stroke-width: 1.0;" width="142" x="38" y="135.9531"/><svg x="75.5" y="145.9531"><g id="surface1"><path style=" stroke:none;fill-rule:nonzero;fill:rgb(86.27451%,12.941176%,14.901961%);fill-opacity:1;" d="M 0 40.472656 L 33.476563 23.042969 L 66.964844 40.472656 L 66.964844 51.671875 L 33.601563 70.09375 L 0 51.671875 Z M 0 40.472656 "/><path style=" stroke:none;fill-rule:nonzero;fill:rgb(94.117647%,32.941176%,17.647059%);fill-opacity:1;" d="M 33.476563 58.167969 L 0 40.484375 L 33.5 23.042969 L 67 40.484375 Z M 33.476563 58.167969 "/><path style=" stroke:none;fill-rule:nonzero;fill:rgb(86.27451%,12.941176%,14.901961%);fill-opacity:1;" d="M 0 17.429688 L 33.476563 0 L 66.964844 17.429688 L 66.964844 28.632813 L 33.601563 47.050781 L 0 28.632813 Z M 0 17.429688 "/><path style=" stroke:none;fill-rule:nonzero;fill:rgb(94.117647%,32.941176%,17.647059%);fill-opacity:1;" d="M 33.476563 35.113281 L 0 17.429688 L 33.5 0 L 67 17.429688 Z M 33.476563 35.113281 "/></g></svg><text fill="#000000" font-family="Segoe UI" font-size="14" lengthAdjust="spacingAndGlyphs" textLength="122" x="48" y="228.9482">Azure Data Bricks</text><!--MD5=[79c4ffeb777096aff7d1471778ebd9e9]
entity tgt--><rect fill="#FFFFFF" height="106.2969" style="stroke: #0078D4; stroke-width: 1.0;" width="152" x="215" y="135.9531"/><svg x="258.5" y="145.9531"><defs><filter id="alpha" filterUnits="objectBoundingBox" x="0%" y="0%" width="100%" height="100%">  <feColorMatrix type="matrix" in="SourceGraphic" values="0 0 0 0 1 0 0 0 0 1 0 0 0 0 1 0 0 0 1 0"/></filter><mask id="mask0">  <g filter="url(#alpha)"><rect x="0" y="0" width="65" height="70" style="fill:rgb(0%,0%,0%);fill-opacity:0.501961;stroke:none;"/>  </g></mask><clipPath id="clip1">  <rect x="0" y="0" width="65" height="70"/></clipPath><g id="surface5" clip-path="url(#clip1)"><path style=" stroke:none;fill-rule:nonzero;fill:rgb(62.745098%,63.137255%,63.529412%);fill-opacity:1;" d="M 49.371094 2.238281 L 46.054688 5.460938 L 46.054688 54.179688 L 49.371094 49.980469 Z M 49.371094 2.238281 "/></g></defs><g id="surface1"><path style=" stroke:none;fill-rule:nonzero;fill:rgb(0%,44.705882%,77.647059%);fill-opacity:1;" d="M 49.371094 49.980469 L 51.585938 49.980469 L 51.585938 0 L 8.296875 0 C 6.914063 0.140625 4.011719 3.640625 4.011719 4.058594 C 4.011719 4.199219 4.011719 52.359375 4.011719 52.359375 C 4.011719 53.761719 5.117188 55.019531 6.636719 55.019531 L 46.054688 55.019531 L 46.054688 54.179688 Z M 49.371094 49.980469 "/><path style=" stroke:none;fill-rule:nonzero;fill:rgb(89.803922%,89.803922%,89.803922%);fill-opacity:1;" d="M 10.234375 2.238281 C 8.988281 2.238281 8.574219 2.378906 7.46875 3.359375 C 5.117188 5.460938 8.019531 5.460938 9.128906 5.460938 L 46.054688 5.460938 L 46.054688 54.179688 L 49.371094 49.839844 L 49.371094 2.238281 Z M 10.234375 2.238281 "/><use xlink:href="#surface5" mask="url(#mask0)"/><path style=" stroke:none;fill-rule:nonzero;fill:rgb(62.745098%,63.137255%,63.529412%);fill-opacity:1;" d="M 10.234375 29.679688 C 10.234375 30.800781 9.402344 31.640625 8.296875 31.640625 L 1.9375 31.640625 C 0.828125 31.640625 0 30.800781 0 29.679688 C 0 28.558594 0.828125 27.71875 1.9375 27.71875 L 8.296875 27.71875 C 9.402344 27.578125 10.234375 28.558594 10.234375 29.679688 Z M 10.234375 29.679688 "/><path style=" stroke:none;fill-rule:nonzero;fill:rgb(62.745098%,63.137255%,63.529412%);fill-opacity:1;" d="M 10.234375 15.261719 C 10.234375 16.378906 9.402344 17.21875 8.296875 17.21875 L 1.9375 17.21875 C 0.828125 17.21875 0 16.378906 0 15.261719 C 0 14.140625 0.828125 13.300781 1.9375 13.300781 L 8.296875 13.300781 C 9.402344 13.300781 10.234375 14.28125 10.234375 15.261719 Z M 10.234375 15.261719 "/><path style=" stroke:none;fill-rule:nonzero;fill:rgb(62.745098%,63.137255%,63.529412%);fill-opacity:1;" d="M 10.234375 43.960938 C 10.234375 45.078125 9.402344 45.921875 8.296875 45.921875 L 1.9375 45.921875 C 0.828125 45.921875 0 45.078125 0 43.960938 C 0 42.839844 0.828125 42 1.9375 42 L 8.296875 42 C 9.402344 42 10.234375 42.839844 10.234375 43.960938 Z M 10.234375 43.960938 "/><path style=" stroke:none;fill-rule:nonzero;fill:rgb(22.352941%,60%,77.647059%);fill-opacity:1;" d="M 31.253906 31.078125 L 31.253906 63.980469 C 31.253906 67.339844 38.863281 70.140625 48.128906 70.140625 L 48.128906 30.941406 L 31.253906 30.941406 Z M 31.253906 31.078125 "/><path style=" stroke:none;fill-rule:nonzero;fill:rgb(34.901961%,70.588235%,85.098039%);fill-opacity:1;" d="M 47.851563 70.28125 L 48.128906 70.28125 C 57.394531 70.28125 65 67.480469 65 64.121094 L 65 31.078125 L 47.851563 31.078125 Z M 47.851563 70.28125 "/><path style=" stroke:none;fill-rule:nonzero;fill:rgb(100%,100%,100%);fill-opacity:1;" d="M 65 31.078125 C 65 34.441406 57.394531 37.238281 48.128906 37.238281 C 38.863281 37.238281 31.253906 34.441406 31.253906 31.078125 C 31.253906 27.71875 38.863281 24.921875 48.128906 24.921875 C 57.394531 24.921875 65 27.71875 65 31.078125 "/><path style=" stroke:none;fill-rule:nonzero;fill:rgb(49.803922%,72.941176%,0%);fill-opacity:1;" d="M 61.542969 30.660156 C 61.542969 32.898438 55.457031 34.71875 48.128906 34.71875 C 40.796875 34.71875 34.710938 32.898438 34.710938 30.660156 C 34.710938 28.421875 40.796875 26.601563 48.128906 26.601563 C 55.457031 26.601563 61.542969 28.421875 61.542969 30.660156 "/><path style=" stroke:none;fill-rule:nonzero;fill:rgb(72.156863%,83.137255%,19.607843%);fill-opacity:1;" d="M 58.777344 33.179688 C 60.574219 32.480469 61.542969 31.640625 61.542969 30.660156 C 61.542969 28.421875 55.457031 26.601563 48.128906 26.601563 C 40.660156 26.601563 34.710938 28.421875 34.710938 30.660156 C 34.710938 31.640625 35.820313 32.480469 37.480469 33.179688 C 39.96875 32.199219 43.839844 31.640625 48.128906 31.640625 C 52.414063 31.640625 56.289063 32.199219 58.777344 33.179688 "/></g></svg><text fill="#000000" font-family="Segoe UI" font-size="14" lengthAdjust="spacingAndGlyphs" textLength="132" x="225" y="228.9482">Azure Data Catalog</text><!--MD5=[1ce779d064ea7bcdc679a764667de010]
link src to tgt--><path d="M180.09,188.9531 C189.93,188.9531 199.77,188.9531 209.61,188.9531 " fill="none" id="src-&gt;tgt" style="stroke: #666666; stroke-width: 1.0;"/><polygon fill="#666666" points="214.75,188.9531,205.75,184.9531,209.75,188.9531,205.75,192.9531,214.75,188.9531" style="stroke: #666666; stroke-width: 1.0;"/><!--MD5=[53c02638e481ec5ba030e2cf192c101f]
@startuml basic-usage-5
title Basic Usage 5
!pragma revision 2

skinparam BackgroundColor #White
skinparam FontColor #000000
skinparam BorderColor #243e5e

skinparam StereotypeFontSize 0
skinparam CharacterFontSize 0
skinparam CharacterRadius 0
skinparam RectangleBackgroundColor #FFFFFF
skinparam Shadowing false





skinparam defaultTextAlignment center
skinparam defaultFontName "Segoe UI"
skinparam BorderColor #0078d4
skinparam Shadowing false

skinparam RectangleBackgroundColor #FFFFFF
skinparam RectangleFontColor #Black
skinparam RectangleBorderColor #0078d4

skinparam RectangleStereotypeFontSize 0
skinparam RectangleCharacterFontSize 0
skinparam RectangleCharacterRadius 1
skinparam RectangleBorderThickness 1
skinparam RectangleShadowing false

skinparam wrapWidth 200
skinparam maxMessageSize 150

skinparam rectangle {
    StereotypeFontSize 12
    BorderColor #0078d4
    Shadowing false
}

skinparam Arrow {
    Color #666666
    FontColor #666666
    FontSize 12
}








sprite $AzureAnalysisServices AzurePuml/Analytics/AzureAnalysisServices.svg
sprite $AzureDatabricks AzurePuml/Analytics/AzureDatabricks.svg
sprite $AzureDataCatalog AzurePuml/Analytics/AzureDataCatalog.svg
sprite $AzureDataExplorer AzurePuml/Analytics/AzureDataExplorer.svg
sprite $AzureDataLakeAnalytics AzurePuml/Analytics/AzureDataLakeAnalytics.svg
sprite $AzureEventHub AzurePuml/Analytics/AzureEventHub.svg
sprite $AzureHDInsight AzurePuml/Analytics/AzureHDInsight.svg
sprite $AzureStreamAnalytics AzurePuml/Analytics/AzureStreamAnalytics.svg

rectangle "Azure Analysis Services" <<$AzureAnalysisServices>> {
 rectangle "Azure Data Bricks" <<$AzureDatabricks>> as src
 rectangle "Azure Data Catalog" <<$AzureDataCatalog>> as tgt
 src -> tgt
}


@enduml

PlantUML version 1.2020.02(Sun Mar 01 10:22:07 GMT 2020)
(GPL source distribution)
Java Runtime: OpenJDK Runtime Environment
JVM: OpenJDK 64-Bit Server VM
Java Version: 11.0.9+11-Ubuntu-0ubuntu1
Operating System: Linux
Default Encoding: ANSI_X3.4-1968
Language: en
Country: US
--></g></svg>