<?xml version="1.0" encoding="utf-8"?>
<!-- Generator: Adobe Illustrator 25.4.1, SVG Export Plug-In . SVG Version: 6.00 Build 0)  -->
<svg version="1.1" id="Layer_1" xmlns="http://www.w3.org/2000/svg" xmlns:xlink="http://www.w3.org/1999/xlink" x="0px" y="0px"
	 viewBox="0 0 100 100" style="enable-background:new 0 0 100 100;" xml:space="preserve">
<style type="text/css">
	.st0{fill:url(#SVGID_1_);}
	.st1{fill:#C3F1FF;}
	.st2{fill:#83B9F9;}
</style>
<g id="a09c2f1d-f0ee-4151-bb4e-b24f55e0143d">
	<g>
		
			<linearGradient id="SVGID_1_" gradientUnits="userSpaceOnUse" x1="51.9498" y1="100.8" x2="43.6998" y2="-105.6812" gradientTransform="matrix(1 0 0 -1 0 102)">
			<stop  offset="0" style="stop-color:#83B9F9"/>
			<stop  offset="5.000000e-03" style="stop-color:#81B8F8"/>
			<stop  offset="0.153" style="stop-color:#53A1EC"/>
			<stop  offset="0.295" style="stop-color:#2F8FE1"/>
			<stop  offset="0.427" style="stop-color:#1583DA"/>
			<stop  offset="0.545" style="stop-color:#057BD6"/>
			<stop  offset="0.639" style="stop-color:#0078D4"/>
		</linearGradient>
		<circle class="st0" cx="50" cy="50" r="50"/>
		<g>
			<circle class="st1" cx="35.4" cy="49.9" r="4.9"/>
			<circle class="st1" cx="49.9" cy="49.9" r="4.9"/>
			<circle class="st1" cx="64.5" cy="49.9" r="4.9"/>
			<path class="st2" d="M36.5,73.8l-9.7-6.2v-8.4c0-0.8-0.3-1.6-0.7-2.3l-5.3-7.2l5.4-7.5c0.5-0.6,0.7-1.4,0.7-2.2v-8l9.7-6.2
				c1.8-1.1,2.3-3.5,1.2-5.2c-1.1-1.8-3.5-2.3-5.2-1.2L21,26.9c-1.1,0.7-1.8,1.9-1.8,3.2v8.9l-6.2,8.8c-1,1.3-0.9,3.1,0,4.5l6.2,8.4
				v9.2c0,1.3,0.7,2.5,1.8,3.2l11.4,7.3c1.8,1.1,4.1,0.6,5.2-1.2C38.7,77.3,38.2,74.9,36.5,73.8C36.5,73.8,36.5,73.8,36.5,73.8z"/>
			<path class="st1" d="M20.7,49.9l5.4-7.5c0.5-0.6,0.7-1.4,0.7-2.2v-8l9.7-6.2c1.8-1.1,2.3-3.5,1.2-5.2c-1.1-1.8-3.5-2.3-5.2-1.2
				L21,26.9c-1.1,0.7-1.8,1.9-1.8,3.2v8.9l-6.2,8.8c-0.4,0.6-0.7,1.4-0.7,2.1h0.1L20.7,49.9z"/>
			<path class="st2" d="M62.9,73.8l9.7-6.2v-8.4c0-0.8,0.3-1.6,0.7-2.3l5.3-7.2l-5.3-7.5c-0.5-0.6-0.7-1.4-0.7-2.2v-8L62.9,26
				c-1.8-1.1-2.3-3.5-1.2-5.2c1.1-1.8,3.5-2.3,5.2-1.2l11.4,7.3c1.1,0.7,1.8,1.9,1.8,3.2v8.9l6.2,8.8c1,1.3,0.9,3.1,0,4.5l-6.2,8.4
				v9.2c0,1.3-0.7,2.5-1.8,3.2L67,80.2c-1.8,1.1-4.1,0.6-5.2-1.2C60.6,77.3,61.1,74.9,62.9,73.8L62.9,73.8L62.9,73.8z"/>
			<path class="st1" d="M78.6,49.9l-5.3-7.5c-0.5-0.6-0.7-1.4-0.7-2.2v-8L62.9,26c-1.8-1.1-2.3-3.5-1.2-5.2c1.1-1.8,3.5-2.3,5.2-1.2
				l11.4,7.3c1.1,0.7,1.8,1.9,1.8,3.2v8.9l6.2,8.8c0.4,0.6,0.7,1.4,0.7,2.1H87L78.6,49.9z"/>
		</g>
	</g>
</g>
</svg>
