<?xml version="1.0" encoding="utf-8"?>
<!-- Generator: Adobe Illustrator 25.4.1, SVG Export Plug-In . SVG Version: 6.00 Build 0)  -->
<svg version="1.1" id="Layer_1" xmlns="http://www.w3.org/2000/svg" xmlns:xlink="http://www.w3.org/1999/xlink" x="0px" y="0px"
	 viewBox="0 0 100 139.8" style="enable-background:new 0 0 100 139.8;" xml:space="preserve">
<style type="text/css">
	.st0{fill:#E2E2E2;}
	.st1{fill:#FFFFFF;}
	.st2{fill:#DCDCDC;}
	.st3{fill:#2195DC;}
	.st4{fill:#32B0E7;}
	.st5{fill:#45CAF2;}
	.st6{fill:#0078D4;}
	.st7{fill:#50E6FF;}
</style>
<path class="st0" d="M90.1,44.5l9.9-5.7v95.1l-9.9,5.7V44.5z"/>
<path class="st0" d="M22.8,5.7L32.6,0L100,38.8l-9.9,5.7L22.8,5.7z"/>
<path class="st1" d="M90.1,44.5l-0.3,95.1l-67.4-38.8l0.3-95L90.1,44.5z"/>
<path class="st2" d="M91.8,43.8l2-1.1l-0.6,94.9l-1.6,0.9L91.8,43.8z"/>
<path class="st2" d="M24.4,4.8L26,3.8l67.8,38.8l-2,1.1L24.4,4.8z"/>
<path class="st2" d="M95.1,41.7l1.6-1v95.1l-1.6,0.9V41.7z"/>
<path class="st2" d="M27.7,2.9l1.6-0.9l67.4,38.8l-1.6,1L27.7,2.9z"/>
<path class="st2" d="M98.4,39.8l1.6-0.9v95.1l-1.7,0.9L98.4,39.8z"/>
<path class="st2" d="M31.2,0.9L32.6,0L100,38.8l-1.6,0.9L31.2,0.9z"/>
<path class="st3" d="M30.4,13.9l3.2-1.9l12.5,7.3l-3.3,1.9L30.4,13.9z"/>
<path class="st3" d="M61.3,33.2h-0.4h-2h-0.6l0,0h-0.6l0,0h-0.6l-0.9-0.8l0,0V32l0,0l-0.9-0.8l0,0h-0.6l0,0l-0.5-0.6l0,0l-0.5-0.6
	l0,0c-0.2-0.2-0.3-0.4-0.4-0.6v-0.4l0,0l0,0l-0.3-0.6l0,0l-0.4-0.7l0,0c0,0,0-0.4,0-0.7l0,0v-0.8l0,0c0-0.2,0-0.5,0-0.7l0,0
	c0-0.2,0-0.5,0-0.7l0,0c0,0,0-0.4,0-0.7l0,0c0-0.2,0-0.4,0-0.6c0,0,0-0.4,0-0.7l0,0c0,0,0-0.4,0-0.6l0,0c0-0.1,0-0.3,0-0.4l0,0v-0.4
	l0,0c0-0.1,0-0.3,0-0.4l0,0v-0.3l0,0l0,0l0,0h0.4L50,20.5v0.2l0,0l0,0l0,0V21l0,0v0.4l0,0l0,0l0,0l0,0l0,0l0,0l0,0V22l0,0v0.6l0,0
	V25l0,0v0.7l0,0v0.6l0,0l0,0l0,0l0,0l0,0l0,0l0,0l0,0l0,0l0,0l0,0l0,0l0,0c0,0.1,0,0.2,0,0.3l0,0l0,0l0,0l0,0l0,0l0,0V27l0,0
	l0.9,4.2l0,0v0.4l0,0l0,0l0,0l0,0l0,0l0,0l0,0l0,0l0,0l0,0l0,0l0,0l0,0l0,0l0,0l0,0l0,0l0,0l0,0l0,0l0,0h0.5l0,0h2.2l0,0l0,0h0.5
	L61.3,33.2z"/>
<path class="st3" d="M62,22.9c2.1,3.4,3.2,7.3,3.4,11.2l13.1-7.6C78.1,19.1,74.2,12.2,68,7.9c-0.7-0.5-1.4-1-2.2-1.3
	c-1.4-0.7-3-0.9-4.6-0.8c-0.9,0.4-14,7.9-14.9,8.2c2-1,4.3-1,6.2,0C56.6,15.9,59.9,19,62,22.9z"/>
<path class="st3" d="M78.1,41.4l3.1-1.9v16.8l-3.3,1.9L78.1,41.4z"/>
<path class="st3" d="M65.4,34.1l3.3-1.9l12.5,7.3l-3.3,1.9L65.4,34.1z"/>
<path class="st4" d="M65.4,34.1l12.5,7.3v16.5L30.3,30.4V13.9l12.5,7.3c0-7.1,5.1-9.9,11.2-6.2C60.7,19.2,65,26.3,65.4,34.1z
	 M54.2,34.1c3.3,1.9,6.2,0.4,6.2-3.4c-0.3-4.2-2.6-8-6.2-10.2c-3.2-1.9-5.9-0.4-5.9,3.4c0.1,4.3,2.3,8.2,5.9,10.5V34.1z"/>
<path class="st5" d="M34.7,84.9v6.2c0,0.4,0.2,0.7,0.4,0.9l18.1,10.1c0.6,0.4,0.9,1.1,0.9,1.9v10.5l-2.8-0.9v-8.1
	c0-0.4-0.2-0.7-0.4-0.9l-35-19.8c-0.4,0-0.4,0-0.4,0.4v8.8l-2.9-1.4V81.2c0-0.9,0.4-0.9,1.4-0.4l17.4,9.4c0.5,0,0.5,0,0.5-0.4v-6.2
	L34.7,84.9z"/>
<path class="st4" d="M25,118.8l-2,1.1c0.7-0.5,1-1.3,0.9-2.1l2-1.1C26,117.5,25.7,118.3,25,118.8z"/>
<path class="st5" d="M23.7,108.5v9.2c0.1,1.1-0.6,2.1-1.7,2.2c-0.5,0.1-1.1-0.1-1.5-0.4l-17.2-9.8c-1.9-1.2-3.1-3.3-3.2-5.6V95
	L23.7,108.5z"/>
<path class="st4" d="M1,88.8l2-1.2c0.7-0.4,1.6-0.4,2.3,0l-2,1.2C2.6,88.3,1.7,88.3,1,88.8z"/>
<path class="st4" d="M23.7,104.4l2-1.2v13.3l-2,1.2L23.7,104.4z"/>
<path class="st4" d="M3.2,88.9l2-1.1l17.2,9.9l-2,1.1L3.2,88.9z"/>
<path class="st5" d="M20.4,98.8c1.9,1.3,3.1,3.3,3.2,5.6v6.2L0,97.1v-6.2c0-2.1,1.5-2.9,3.2-1.9L20.4,98.8z"/>
<path class="st4" d="M20.4,98.8l2-1.1c1.9,1.2,3.1,3.3,3.2,5.6l-2,1.2C23.6,102.2,22.4,100.1,20.4,98.8z"/>
<path class="st4" d="M63.1,138.5l-2,1.1c0.7-0.5,1.1-1.3,0.9-2.1l2-1.1C64.2,137.2,63.8,138,63.1,138.5z"/>
<path class="st5" d="M62.1,128.5v9c0,2-1.4,2.9-3.2,1.8l-17.2-9.6c-1.9-1.2-3.1-3.3-3.2-5.6V115L62.1,128.5z"/>
<path class="st4" d="M39.4,108.8l2-1.2c0.7-0.4,1.6-0.4,2.3,0l-2,1.2C41,108.3,40.1,108.3,39.4,108.8z"/>
<path class="st4" d="M62.1,124.4l2-1.2v13.3l-2.1,0.9L62.1,124.4z"/>
<path class="st4" d="M41.8,108.9l2-1.1l17.2,9.9l-2,1.1L41.8,108.9z"/>
<path class="st5" d="M58.9,118.8c1.9,1.3,3.1,3.4,3.2,5.6v6.2l-23.6-13.5v-6.2c0-2.1,1.4-2.9,3.2-1.9L58.9,118.8z"/>
<path class="st4" d="M58.9,118.8l2-1.1c1.9,1.2,3.1,3.3,3.2,5.6l-2,1.2C62,122.1,60.8,120,58.9,118.8z"/>
<path class="st6" d="M62.5,98.2l-2.2,1.2c0.7-0.5,1.1-1.3,1-2.2l2.2-1.3C63.6,96.8,63.2,97.7,62.5,98.2z"/>
<path class="st3" d="M61.7,68.8v28.7c0,2.2-1.6,3.1-3.5,2L10.7,71.8c-2.1-1.4-3.4-3.7-3.5-6.2V37.1L61.7,68.8z"/>
<path class="st6" d="M61.7,75l2.1-1.2v22.2l-2.2,1.2L61.7,75z"/>
<path class="st6" d="M8.3,34.6l2.1-1.2c0.8-0.4,1.7-0.4,2.5,0l-2.2,1.2C10,34.2,9.1,34.2,8.3,34.6z"/>
<path class="st6" d="M61.7,68.3l2.2-1.3v6.9l-2.1,1.2L61.7,68.3z"/>
<path class="st6" d="M10.8,34.9l2.2-1.2L60.4,61l-2.2,1.2L10.8,34.9z"/>
<path class="st3" d="M58.2,62.5c2.1,1.4,3.4,3.7,3.5,6.2V75L7.2,43.8v-6.9c0-2.2,1.6-3.1,3.5-2L58.2,62.5z"/>
<path class="st6" d="M58.2,62.5l2.2-1.2c2.1,1.4,3.4,3.7,3.5,6.2l-2.2,1.3C61.6,66.3,60.3,63.9,58.2,62.5z"/>
<path class="st7" d="M35.9,62c0.9,0.6,1.5,1.6,1.6,2.8c0.1,0.5-0.3,1.1-0.8,1.2c-0.3,0-0.6,0-0.8-0.2L16.7,54.6
	c-0.9-0.6-1.5-1.6-1.6-2.7c0-1,0.7-1.4,1.6-0.9L35.9,62z"/>
<path class="st5" d="M35.8,73.8c0.9,0.6,1.5,1.6,1.6,2.8c0,1.1-0.8,1.4-1.6,0.9L16.6,66.4c-0.9-0.6-1.5-1.7-1.6-2.8
	c0-1,0.7-1.4,1.6-0.9L35.8,73.8z"/>
<path class="st7" d="M53.3,66.7l0.9,2.4l-8.6,3.1l-2.2-6.2l1.4-0.5l1.4,3.7L53.3,66.7z"/>
<path class="st5" d="M53.2,78.4l0.9,2.5L45.5,84l-2.3-6.2l1.4-0.5l1.4,3.7L53.2,78.4z"/>
</svg>
