<?xml version="1.0" encoding="utf-8"?>
<!-- Generator: Adobe Illustrator 25.4.1, SVG Export Plug-In . SVG Version: 6.00 Build 0)  -->
<svg version="1.1" id="Layer_1" xmlns="http://www.w3.org/2000/svg" xmlns:xlink="http://www.w3.org/1999/xlink" x="0px" y="0px"
	 viewBox="0 0 100 81.9" style="enable-background:new 0 0 100 81.9;" xml:space="preserve">
<style type="text/css">
	.st0{fill:#0078D4;}
	.st1{fill:url(#SVGID_1_);}
	.st2{fill:#50E6FF;}
	.st3{fill:#32B0E7;}
</style>
<path class="st0" d="M22.8,46.1l3.1-1.8l5.3,3.2l-3.1,1.8L22.8,46.1z M17.8,32.9c-5.8-4-9.3-10.5-9.4-17.5c-0.3-2.8,0.9-5.5,3.2-7.1
	l-3,1.7c-2.2,1.7-3.4,4.4-3.1,7.2c0.2,7,3.7,13.5,9.4,17.5l8,4.6l3.1-1.8L17.8,32.9z M22.8,39.1l3.1-1.7l5.6,3.1l-3.1,1.8L22.8,39.1
	z"/> -->
<path class="st0" d="M35.3,43l-4.1-2.3c0.3-1.6,1.3-3,2.6-3.9l-2.6,1.7c-1.4,0.9-2.4,2.4-2.7,4l4,2.2c1.8,1.4,4.2,1.5,6.2,0.5
	l2.9-1.5C39.6,44.7,37.1,44.5,35.3,43z M57.9,71.5L40.4,61.3c-4.8-3.2-8.1-8.1-9.2-13.8l-3.1,1.8c1.1,5.7,4.5,10.6,9.3,13.8L55,73.3
	c1.8,1.4,4.2,1.5,6.2,0.5l3.1-1.8C62.3,73.1,59.8,72.9,57.9,71.5z M45.4,50.6l-3.1,1.8c0.5-0.3,0.9-0.7,1.3-1.1
	c1.8-1.9,3-4.3,3.2-6.9l3-1.7c-0.2,2.7-1.4,5.2-3.4,7.1c-0.4,0.4-0.8,0.6-1.3,0.7H45.4z"/> -->
<path class="st0" d="M41.3,41.2l3.1-1.7l5.6,3.1l-3.1,1.8L41.3,41.2z M40.5,30.4c-2.9-2.1-6.7-2.4-9.9-0.8l-3.1,1.6
	c3.2-1.5,7-1.1,9.9,0.9l4,2.3l3.1-1.7L40.5,30.4z"/> -->
<path class="st0" d="M41.4,34.4l3.1-1.7l5.5,3.1l-3.1,1.6L41.4,34.4z"/> -->
<linearGradient id="SVGID_1_" gradientUnits="userSpaceOnUse" x1="48.8708" y1="1071.7371" x2="16.0993" y2="1156.3188" gradientTransform="matrix(1 0 0 1 0 -1065.87)">
	<stop  offset="0" style="stop-color:#4DC2EB"/> -->
	<stop  offset="1" style="stop-color:#0078D4"/> -->
</linearGradient>
<path class="st1" d="M55,42.3l-8.1-4.9c-1.3-9.6-6.6-18.1-14.5-23.6L14.9,3.7C6.7-1,0,3.7,0,14c0.3,11,5.8,21.2,14.8,27.5l5.8,3.3
	l2.2,1.3l5.6,3.2l3.9,2.2c3.4,2.7,8.1,2.6,11.4-0.2c1.8-1.9,3-4.3,3.2-6.9l8,4.7c5.7,4,9.2,10.4,9.4,17.4c0,6.7-4.3,9.7-9.4,6.7
	L37.5,63.1c-4.7-3.2-8-8.2-9.1-13.8l-5.6-3.2c1.3,9.7,6.6,18.4,14.6,23.9L55,80.1c8.2,4.7,14.8,0,14.9-10.4
	C69.5,58.8,64,48.6,55,42.3z M14.9,34.7c-5.8-4-9.3-10.5-9.4-17.5c0-6.6,4.3-9.6,9.4-6.6l17.5,10c4.7,3.2,8,8.2,8.9,13.9l-3.9-2.3
	c-3.9-3.1-9.6-2.4-12.7,1.6c-1.2,1.6-1.9,3.5-1.9,5.5L14.9,34.7z M32.4,44.7l-4-2.2c0.5-3,3.3-5.1,6.3-4.7c1,0.2,1.9,0.6,2.7,1.2
	l4,2.3c-0.5,3-3.4,5.1-6.4,4.5C34.1,45.7,33.2,45.3,32.4,44.7z"/> -->
<path class="st0" d="M58,40.5l-8.1-4.7c-1.2-9.6-6.5-18.3-14.5-23.8L17.9,1.9C15-0.3,11.2-0.6,8,1L4.9,2.7c3.2-1.5,7-1.2,9.9,0.9
	l17.5,10.2c7.9,5.5,13.2,14.1,14.5,23.7l8.1,4.7c9,6.3,14.5,16.5,14.7,27.5c0.5,4.3-1.4,8.6-4.9,11.2l3.1-1.7
	c3.5-2.6,5.3-6.9,4.9-11.2C72.5,56.9,67,46.7,58,40.5z"/> -->
<path class="st2" d="M79.1,62c0,0.7-0.5,1.1-1.2,0.7c-0.7-0.4-1.2-1.2-1.3-2c-0.2-2.4-0.8-4.7-1.7-6.9c-1-2.4-2.2-4.6-3.6-6.7
	c-2.9-4.3-6.7-7.8-11.2-10.3c-0.8-0.4-1.3-1.1-1.3-2c0-0.7,0.4-1.1,1.1-0.7c3.9,2,7.3,4.8,10.2,8.2c3,3.4,5.4,7.4,7.1,11.6
	C78.2,56.5,78.9,59.2,79.1,62z"/> -->
<path class="st3" d="M79.5,52.3c-1.7-4.2-4.1-8.2-7.1-11.7c-2.8-3.3-6.2-6.1-10-8.2c-0.3-0.2-0.6-0.2-0.9,0L59.2,34
	c0.3-0.2,0.6-0.2,0.9,0c3.9,2.1,7.3,4.9,10.2,8.2c3,3.5,5.4,7.4,7.1,11.7c1,2.7,1.6,5.6,1.7,8.5c0,0.3-0.1,0.6-0.3,0.7l2.4-1.8
	c0.2-0.2,0.2-0.5,0-0.7C81,57.8,80.5,55,79.5,52.3z"/> -->
<path class="st2" d="M63.4,25.6c5,2.6,9.4,6.1,13,10.4c3.8,4.4,6.8,9.3,8.9,14.7c1.3,3.3,2.2,6.8,2.4,10.3c0,0.7-0.5,1.1-1.2,0.7
	c-0.8-0.4-1.3-1.1-1.3-2c-0.3-3.1-1-6.2-2.1-9.1c-1.2-3.2-2.8-6.2-4.7-8.9c-3.7-5.7-8.8-10.3-14.8-13.5c-0.7-0.5-1.1-1.2-1.2-2
	C62.4,25.6,62.4,25.3,63.4,25.6z"/> -->
<path class="st3" d="M87.4,49.2c-2.1-5.4-5.1-10.3-8.9-14.7c-3.6-4.3-8-7.9-13-10.5c-0.3-0.2-0.6-0.2-0.9,0l-2.2,1.6
	c0.2-0.2,0.6-0.2,0.8,0c5,2.6,9.4,6.1,13,10.5c3.8,4.4,6.8,9.3,8.9,14.7c1.3,3.3,2.2,6.7,2.4,10.2c0,0.3-0.1,0.6-0.3,0.9l2.3-1.5
	c0.2-0.2,0.2-0.6,0-0.8C89.4,56,88.6,52.5,87.4,49.2z M89.9,32.4c-5.2-7.8-12.3-14.3-20.7-18.7c-0.3-0.2-0.6-0.2-0.9,0L66,15.2
	c0.3-0.2,0.6-0.2,0.9,0c8.3,4.5,15.4,10.9,20.7,18.7c5.4,7.5,8.8,16.3,9.7,25.5c0,0.3-0.1,0.6-0.3,0.7l2.9-1.5
	c0.2-0.2,0.2-0.5,0-0.7c-1-9.2-4.3-18-9.7-25.5H89.9z"/> -->
<path class="st2" d="M67.2,15.1c2,1,3.9,2.2,5.7,3.4c5.8,4.2,10.8,9.4,14.9,15.4c5.4,7.5,8.7,16.3,9.7,25.5c0,0.7-0.4,1.1-1.1,0.7
	c-0.8-0.4-1.3-1.1-1.3-2c-0.3-4-1.3-7.9-2.8-11.6c-1.7-4-3.7-7.9-6.2-11.4C81.2,28,74.8,22.1,67.2,18c-0.7-0.4-1.2-1.2-1.3-2
	C65.9,15.1,66.4,14.9,67.2,15.1z"/> -->
</svg>
