<?xml version="1.0" encoding="utf-8"?>
<!-- Generator: Adobe Illustrator 25.4.1, SVG Export Plug-In . SVG Version: 6.00 Build 0)  -->
<svg version="1.1" id="Layer_1" xmlns="http://www.w3.org/2000/svg" xmlns:xlink="http://www.w3.org/1999/xlink" x="0px" y="0px"
	 viewBox="0 0 100 80.8" style="enable-background:new 0 0 100 80.8;" xml:space="preserve">
<style type="text/css">
	.st0{fill:#0078D4;}
	.st1{fill:#156AB3;}
	.st2{fill:url(#SVGID_1_);}
	.st3{fill:url(#SVGID_00000136390626022454209080000012033751327147630508_);}
	.st4{fill:#CCCCCC;}
	.st5{fill:#FFFFFF;}
	.st6{fill:#DCDCDC;}
	.st7{fill:#D2D2D2;}
</style>
<path class="st0" d="M25,45.3l2.6-1.6l5.4,3.1l-3,1.7L25,45.3z"/>
<path class="st1" d="M16.8,34l3-1.7l7.9,4.6L25,38.6L16.8,34z"/>
<path class="st1" d="M30.1,48.5l3-1.7c1,5.5,4.2,10.4,8.8,13.6l-3,2.1C34.2,59.2,31,54.2,30.1,48.5z"/>
<path class="st1" d="M10.7,9.8l3-1.7c-2.2,1.6-3.4,4.3-3.1,7.1c0.1,6.9,3.5,13.3,9.2,17.2l-3,1.7c-5.6-4-9-10.4-9.2-17.2
	C7.3,14.1,8.5,11.4,10.7,9.8z"/>
<path class="st0" d="M25,38.6l3-1.7l5.4,3.1l-3,1.7L25,38.6z"/>
<path class="st1" d="M30.1,41.7l3-1.7l3.9,2.2l-3,1.4L30.1,41.7z"/>
<path class="st1" d="M32.7,37.8l3-1.7c-1.4,0.9-2.3,2.3-2.7,3.9l-3,1.7c0.2-0.8,0.6-1.5,1.2-2.2C31.6,38.9,32.1,38.3,32.7,37.8z"/>
<path class="st1" d="M38.9,62.5l2.9-1.7L59,70.6l-2.7,1.4L38.9,62.5z"/>
<path class="st1" d="M43.1,42.8l-3,1.7c-2,0.9-4.4,0.7-6.2-0.6l3-1.7C38.7,43.6,41.1,43.7,43.1,42.8z"/>
<path class="st1" d="M7.2,2.7l3-1.7c3.1-1.6,6.9-1.2,9.7,0.8l-3,1.7C14,1.5,10.3,1.2,7.2,2.7z"/>
<path class="st1" d="M65.2,70.8l-3,1.7c-2,1-4.4,0.8-6.2-0.5l3-1.7C60.8,71.6,63.1,71.8,65.2,70.8z"/>
<path class="st1" d="M29.2,30.8l3-1.7c3.1-1.6,6.9-1.3,9.7,0.8l-3,1.7C36.1,29.6,32.4,29.2,29.2,30.8z"/>
<path class="st1" d="M46.6,50l-2.9,1.6c0.5-0.3,1-0.6,1.4-1c1.7-1.9,2.8-4.3,3.1-6.8l3-1.7c-0.3,2.5-1.4,4.9-3.2,6.7
	C47.6,49.2,47.1,49.6,46.6,50z"/>
<path class="st0" d="M42.8,40.6l3-1.7l5.4,3.1l-3,1.7L42.8,40.6z"/>
<path class="st1" d="M38.9,31.6l3-1.7l3.9,2.2l-3,1.7L38.9,31.6z"/>
<path class="st1" d="M16.9,3.5l3-1.7L37,11.7l-2.9,1.7L16.9,3.5z"/>
<path class="st0" d="M42.8,33.8l3-1.7l5.4,3.2l-3,1.7L42.8,33.8z"/>
<linearGradient id="SVGID_1_" gradientUnits="userSpaceOnUse" x1="14.2606" y1="1069.0101" x2="39.69" y2="1122.8678" gradientTransform="matrix(1 0 0 1 0 -1065.63)">
	<stop  offset="0" style="stop-color:#32B0E7"/>
	<stop  offset="0.64" style="stop-color:#2195DC"/>
	<stop  offset="1" style="stop-color:#0078D4"/>
</linearGradient>
<path class="st2" d="M34.1,13.5C41.9,19,47,27.5,48.2,37l-5.4-3.1c-1-5.5-4.2-10.4-8.8-13.6l-17.1-9.9c-5.1-2.9-9.2,0-9.2,6.2
	c0.1,7,3.5,13.5,9.2,17.5l8.2,4.6l5.4,3.1l3.6,2c2.3,2,5.7,1.7,7.7-0.6c0.6-0.7,1-1.6,1.2-2.5l5.4,3.1c-0.2,2.6-1.4,5-3.2,6.8
	c-3.2,2.6-7.8,2.6-11.1,0l-3.9-2.2L25,45.4l-2.2-1.3l-5.6-3.3c-8.9-6.1-14.4-16.2-14.7-27C2.4,3.5,8.9-1.1,16.9,3.5L34.1,13.5z"/>
<path class="st1" d="M34.1,13.5l2.9-1.7c7.9,5.5,13,14,14.2,23.6l-3,1.7C47,27.5,41.9,19,34.1,13.5z"/>
<path class="st1" d="M48.2,37l3-1.7l7.9,4.6l-2.8,1.7L48.2,37z"/>
<linearGradient id="SVGID_00000027578989334019722920000002593191363671199401_" gradientUnits="userSpaceOnUse" x1="32.3604" y1="1095.011" x2="63.7878" y2="1148.3063" gradientTransform="matrix(1 0 0 1 0 -1065.63)">
	<stop  offset="0" style="stop-color:#32B0E7"/>
	<stop  offset="1" style="stop-color:#2195DC"/>
</linearGradient>
<path style="fill:url(#SVGID_00000027578989334019722920000002593191363671199401_);" d="M56.2,41.6c8.8,6.3,14.1,16.3,14.2,27.1
	C70.5,79,64.2,83.6,56,79L38.8,68.7c-7.7-5.5-12.7-14-13.8-23.4l5.4,3.2c0.9,5.6,3.9,10.6,8.5,13.9l17.4,9.6c5.1,2.9,9.2,0,9.2-6.2
	c-0.1-7-3.5-13.5-9.2-17.5l-8.1-4.6l-5.4-3.1l-3.9-2.2c-2.4-1.9-5.8-1.5-7.7,0.8c-0.6,0.7-1,1.6-1.1,2.5L25,38.6
	c0.1-4.9,4.1-8.7,9-8.6c1.8,0,3.5,0.6,5,1.6l3.9,2.2l5.4,3.1L56.2,41.6z"/>
<path class="st1" d="M68.7,77.9l-3,1.7c3.4-2.6,5.2-6.7,4.7-10.9C70.3,57.9,65,47.9,56.2,41.6l3-1.7c8.8,6.2,14.2,16.2,14.4,27
	C74.1,71.1,72.2,75.4,68.7,77.9z"/>
<path class="st4" d="M81.6,60.3l-2.2,1.6c0-0.1,0-0.3,0-0.4c0-0.1,0-0.3,0-0.4l2.2-1.6c0,0.2,0,0.3,0,0.5V60.3z"/>
<path class="st5" d="M79.7,61c0,0.7-0.4,1.1-1.1,0.7c-0.4-0.2-0.7-0.5-0.9-0.8c-0.2-0.3-0.3-0.7-0.4-1.1c-0.2-2.4-0.7-4.7-1.6-6.9
	c-1-2.3-2.1-4.6-3.6-6.7c-2.7-4.2-6.5-7.7-10.9-10.1c-0.4-0.2-0.7-0.5-0.9-0.8c-0.2-0.3-0.3-0.7-0.4-1.1c0-0.7,0.4-1.1,1.1-0.7
	c3.8,2,7.2,4.8,10,8.1c2.9,3.4,5.3,7.3,6.9,11.4C78.8,55.6,79.4,58.3,79.7,61z"/>
<path class="st6" d="M60.1,33.5l2.4-1.5h0.4h0.4c3.8,2,7.2,4.7,10,8.1c2.9,3.4,5.2,7.3,6.9,11.4c1.1,2.6,1.7,5.3,1.9,8.1L79.8,61
	c-0.3-2.8-0.9-5.5-1.9-8.1c-1.6-4.2-4-8-6.9-11.4c-2.8-3.3-6.2-6.1-10-8.1h-0.4h-0.4H60.1z"/>
<path class="st4" d="M63.5,25l2.2-1.5h0.4h0.4L64.4,25c-0.1-0.1-0.3-0.1-0.4,0C63.8,24.9,63.6,24.9,63.5,25z"/>
<path class="st5" d="M64.4,25c4.8,2.6,9,6,12.5,10.2c3.8,4.4,6.8,9.3,8.9,14.7c1.3,3.3,2.1,6.7,2.4,10.2c0,0.7-0.4,1.1-1.1,0.7
	c-0.4-0.2-0.7-0.5-0.9-0.8c-0.2-0.4-0.3-0.8-0.4-1.2c-0.3-3.1-1-6.1-2.1-8.9c-1.2-3.1-2.8-6.1-4.6-8.8c-3.7-5.5-8.6-10-14.4-13.2
	c-0.3-0.2-0.6-0.5-0.9-0.8c-0.2-0.3-0.4-0.7-0.4-1.1C63.2,25,63.7,25,64.4,25z"/>
<path class="st6" d="M90,59.3l-2.2,1.5c0-0.1,0-0.2,0-0.3c0-0.1,0-0.3,0-0.4c-0.2-3.4-0.9-6.8-2.1-10.1c-2.1-5.3-5-10.2-8.7-14.5
	c-3.5-4.3-7.8-7.9-12.6-10.5l2.2-1.6c4.8,2.6,9,6.1,12.5,10.2c3.7,4.3,6.7,9.2,8.7,14.5c1.3,3.2,2.1,6.6,2.4,10.1c0,0.1,0,0.3,0,0.4
	c0,0,0,0,0,0.4L90,59.3z"/>
<path class="st4" d="M67.1,14.9l2.3-1.5c0.1-0.1,0.3-0.1,0.4,0c0.1-0.1,0.3-0.1,0.4,0L68,14.9h-0.4H67.1z"/>
<path class="st6" d="M100,57.8l-2.2,1.5c0-0.1,0-0.2,0-0.3c0-0.1,0-0.3,0-0.4c-1-9-4.3-17.6-9.6-25c-5-7.8-12-14.3-20.2-18.7
	l2.2-1.6c8.2,4.5,15.1,10.9,20.2,18.7c5.3,7.4,8.6,16,9.6,25c0,0.1,0,0.3,0,0.4C100,57.5,100,57.7,100,57.8z"/>
<path class="st5" d="M68,14.9c1.9,1,3.8,2.1,5.6,3.4c5.7,4.2,10.6,9.3,14.6,15.1c5.3,7.4,8.6,16,9.5,25c0,0.7-0.4,1.1-1.1,0.7
	c-0.3-0.2-0.6-0.5-0.9-0.8c-0.2-0.3-0.4-0.7-0.4-1.1c-0.3-3.9-1.2-7.8-2.7-11.5c-1.6-4-3.7-7.8-6.2-11.3c-4.6-7.1-11-12.9-18.4-16.9
	c-0.4-0.2-0.7-0.5-0.9-0.9c-0.2-0.3-0.4-0.7-0.4-1.1C66.8,14.9,67.3,14.6,68,14.9z"/>
<path class="st7" d="M24.1,67.6l-2,1.1c0.5-0.4,0.9-0.9,1.2-1.4c0.2-0.6,0.2-1.3,0-1.9c-0.1-1.7-0.6-3.3-1.4-4.8
	c-0.8-1.5-1.9-2.8-3.2-3.9l2-1.2c2.6,2.2,4.3,5.3,4.6,8.7c0.2,0.6,0.2,1.3,0,1.9C25,66.7,24.6,67.1,24.1,67.6L24.1,67.6z"/>
<path class="st7" d="M1.7,46.7l2.1-1.2c0.6-0.3,1.2-0.5,1.9-0.4c0.7,0,1.3,0.1,1.9,0.4l-2.1,1.2c-0.6-0.3-1.2-0.5-1.9-0.4
	C3,46.3,2.3,46.4,1.7,46.7z"/>
<path class="st7" d="M7.1,44.7l2-1c1.7-0.7,3.6-0.5,5.1,0.6c3.9,2.5,6.4,6.7,6.9,11.3l-2,1.2c-0.3-4.6-2.7-8.9-6.6-11.5
	C11,44,8.9,43.8,7.1,44.7z"/>
<path class="st5" d="M18.2,68.7c3,1.6,5.4,0,5.4-3c-0.1-1.7-0.6-3.3-1.4-4.8c-0.8-1.5-1.9-2.8-3.2-3.9c-0.2-4.7-2.6-9.1-6.6-11.7
	c-3.4-1.6-6.2-1.1-6.9,1.4c-3.2-1.3-5.6,0-5.6,3.9c0.3,4.6,2.8,8.7,6.6,11.1h0.6L18,68l0,0"/>
</svg>
