<?xml version="1.0" encoding="utf-8"?>
<!-- Generator: Adobe Illustrator 25.4.1, SVG Export Plug-In . SVG Version: 6.00 Build 0)  -->
<svg version="1.1" id="Layer_1" xmlns="http://www.w3.org/2000/svg" xmlns:xlink="http://www.w3.org/1999/xlink" x="0px" y="0px"
	 viewBox="0 0 100 117.7" style="enable-background:new 0 0 100 117.7;" xml:space="preserve">
<style type="text/css">
	.st0{fill:#9CEBFF;}
	.st1{fill:url(#SVGID_1_);}
	.st2{fill:url(#SVGID_00000181059307996042572340000013384965909974808475_);}
	.st3{fill:url(#SVGID_00000142147612388377533000000010165680104465088943_);}
	.st4{fill:#5EA0EF;}
</style>
<g id="a0340009-183f-4be1-a295-1b3b83909025">
	<g>
		<polygon class="st0" points="79.6,36.8 95.8,27.5 48,0 0,27.7 0,83.2 47.8,110.8 47.8,92.3 63.9,83 63.8,64.5 79.7,55.3 		"/>
		<g>
			
				<linearGradient id="SVGID_1_" gradientUnits="userSpaceOnUse" x1="47.5926" y1="68.9816" x2="210.7105" y2="-70.8758" gradientTransform="matrix(1 0 0 -1 0 119.7086)">
				<stop  offset="0" style="stop-color:#5EA0EF"/>
				<stop  offset="0.102" style="stop-color:#4495E8"/>
				<stop  offset="0.272" style="stop-color:#1F85DD"/>
				<stop  offset="0.41" style="stop-color:#087CD6"/>
				<stop  offset="0.497" style="stop-color:#0078D4"/>
			</linearGradient>
			<polygon class="st1" points="63.8,64.5 79.7,55.3 79.6,36.8 47.8,56.3 47.8,92.3 63.9,83 			"/>
			
				<linearGradient id="SVGID_00000140727523784428137830000005930350724259495358_" gradientUnits="userSpaceOnUse" x1="39.6744" y1="59.7492" x2="202.7924" y2="-80.1082" gradientTransform="matrix(1 0 0 -1 0 119.7086)">
				<stop  offset="0" style="stop-color:#5EA0EF"/>
				<stop  offset="0.102" style="stop-color:#4495E8"/>
				<stop  offset="0.272" style="stop-color:#1F85DD"/>
				<stop  offset="0.41" style="stop-color:#087CD6"/>
				<stop  offset="0.497" style="stop-color:#0078D4"/>
			</linearGradient>
			<polygon style="fill:url(#SVGID_00000140727523784428137830000005930350724259495358_);" points="90.6,80.6 90.6,62 74.4,71.3 
				74.5,89.8 58.4,99.1 58.4,117.7 74.5,108.4 74.5,89.9 			"/>
			
				<linearGradient id="SVGID_00000075875974244512945990000011956638608327736738_" gradientUnits="userSpaceOnUse" x1="42.0809" y1="62.5481" x2="205.1989" y2="-77.3029" gradientTransform="matrix(1 0 0 -1 0 119.7086)">
				<stop  offset="0" style="stop-color:#5EA0EF"/>
				<stop  offset="0.102" style="stop-color:#4495E8"/>
				<stop  offset="0.272" style="stop-color:#1F85DD"/>
				<stop  offset="0.41" style="stop-color:#087CD6"/>
				<stop  offset="0.497" style="stop-color:#0078D4"/>
			</linearGradient>
			<polygon style="fill:url(#SVGID_00000075875974244512945990000011956638608327736738_);" points="83.8,95.3 83.9,113.9 
				100,104.6 100,85.9 			"/>
		</g>
		<polygon class="st4" points="47.8,56.3 47.8,110.8 0,83.3 0,28.4 		"/>
	</g>
</g>
</svg>
