<?xml version="1.0" encoding="utf-8"?>
<!-- Generator: Adobe Illustrator 25.4.1, SVG Export Plug-In . SVG Version: 6.00 Build 0)  -->
<svg version="1.1" id="Layer_1" xmlns="http://www.w3.org/2000/svg" xmlns:xlink="http://www.w3.org/1999/xlink" x="0px" y="0px"
	 viewBox="0 0 100 120.6" style="enable-background:new 0 0 100 120.6;" xml:space="preserve">
<style type="text/css">
	.st0{fill:#1D4A79;}
	.st1{fill:#185A97;}
	.st2{fill:#0078D4;}
	.st3{fill:#156AB3;}
	.st4{fill:#32B0E7;}
	.st5{fill:#45CAF2;}
	.st6{fill:#50E6FF;}
	.st7{fill:#84ECFD;}
	.st8{fill:#FFFFFF;}
	.st9{fill:url(#SVGID_1_);}
	.st10{fill:url(#SVGID_00000120520292040448145980000003218133600172147873_);}
	.st11{fill:url(#SVGID_00000119840177664197134460000018178282878932725148_);}
	.st12{fill:url(#SVGID_00000026142920196869022130000002686210843247224197_);}
	.st13{fill:url(#SVGID_00000044145303423635530280000010239746113391910818_);}
</style>
<path class="st0" d="M69.3,37.5l13.4,7.8v53.8L35.8,72.2l0-68.6L69.3,23V37.5z"/>
<path class="st1" d="M35.8,3.6L41.9,0l33.6,19.4L69.2,23L35.8,3.6z"/>
<path class="st1" d="M82.7,45.1l6.3-3.5v53.9l-6.3,3.6V45.1z"/>
<path class="st2" d="M69.3,23l6.3-3.6l13.4,22.2l-6.3,3.5L69.3,23z"/>
<path class="st3" d="M69.3,23l13.4,22.1l-13.4-7.6V23z"/>
<path class="st2" d="M51.1,47.7l13.4,7.8v53.9L17.4,82.4V14l33.6,19.4L51.1,47.7z"/>
<path class="st4" d="M17.6,14l6.3-3.6l33.6,19.4l-6.3,3.6L17.6,14z"/>
<path class="st4" d="M64.5,55.4l6.3-3.5v53.9l-6.3,3.6V55.4z"/>
<path class="st5" d="M51.1,33.4l6.3-3.6l13.3,22.2l-6.3,3.5L51.1,33.4z"/>
<path class="st4" d="M51.1,33.4l13.4,22.1l-13.4-7.8V33.4z"/>
<path class="st5" d="M33.7,58.9l13.4,7.8v53.9L0,93.8V25l33.5,19.4L33.7,58.9z"/>
<path class="st6" d="M0,25l6.3-3.6l33.6,19.4l-6.3,3.6L0,25z"/>
<path class="st4" d="M47.1,66.6l6.3-3.5V117l-6.3,3.6V66.6z"/>
<path class="st7" d="M33.7,44.6l6.3-3.6l13.3,22.2L47,66.6L33.7,44.6z"/>
<path class="st6" d="M33.7,44.6l13.4,22.1l-13.4-7.8V44.6z"/>
<path class="st8" d="M35.9,80.3v3.9L18.8,73.9V70L35.9,80.3z"/>
<path class="st8" d="M35.9,87.5v3.9L9.1,75.8v-3.7L35.9,87.5z"/>
<path class="st8" d="M35.9,94.8v3.9L9.1,83.1v-3.9L35.9,94.8z"/>
<path class="st8" d="M10.2,51.6c0.2,0.1,0.4,0.3,0.6,0.4l5.1,6.3l5.1,6.3c0.7,0.9,0.7,2,0,2.1l-5.1,0.4l-5.1,0.4
	c-0.2,0.1-0.3,0.1-0.5,0c-0.6-0.4-1-1-1.1-1.8V52.2C9.2,51.5,9.7,51.3,10.2,51.6z"/>
<linearGradient id="SVGID_1_" gradientUnits="userSpaceOnUse" x1="77.1298" y1="1170.6553" x2="88.1932" y2="1173.0305" gradientTransform="matrix(1 0 0 1 0 -1059.7)">
	<stop  offset="0" style="stop-color:#D8D9DB"/>
	<stop  offset="1" style="stop-color:#B7B7B7"/>
</linearGradient>
<path class="st9" d="M89.1,114.9c-0.4,1-1.2,1.9-2.2,2.4c-1,0.6-2.1,0.9-3.3,0.8c-1.2,0.1-2.3-0.2-3.3-0.8c-1-0.5-1.8-1.4-2.2-2.4
	v-7.3h10.9V114.9z"/>
<radialGradient id="SVGID_00000037652701123069064160000014849742714388482751_" cx="-1168.2786" cy="168.6107" r="1.1876" gradientTransform="matrix(12.65 31.02 -27.15 11.07 19427.5781 34443.3164)" gradientUnits="userSpaceOnUse">
	<stop  offset="0" style="stop-color:#B1F4FF"/>
	<stop  offset="0.68" style="stop-color:#4BC8EF"/>
	<stop  offset="1" style="stop-color:#1E9FE0"/>
</radialGradient>
<path style="fill:url(#SVGID_00000037652701123069064160000014849742714388482751_);" d="M83.5,69.9c-8.9,0-16.1,7.1-16.2,15.9v1.7
	c0.8,6.8,7.1,9.9,9.1,18.4c0.3,0.7,0.8,1.3,1.4,1.8c1.7,1.1,3.6,1.6,5.6,1.5c2,0.1,4-0.4,5.7-1.5c0.7-0.4,1.4-1.1,1.8-1.8
	c1.9-8.5,8.3-11.8,9.1-18.8c0.7-8.7-5.6-16.5-14.3-17.6L83.5,69.9z"/>
<linearGradient id="SVGID_00000130606326631434141770000016194420784130353299_" gradientUnits="userSpaceOnUse" x1="82.8457" y1="1146.6477" x2="89.2837" y2="1168.7122" gradientTransform="matrix(1 0 0 1 0 -1059.7)">
	<stop  offset="0" style="stop-color:#FFFFFF"/>
	<stop  offset="1" style="stop-color:#FFFFFF;stop-opacity:0"/>
</linearGradient>
<path style="fill:url(#SVGID_00000130606326631434141770000016194420784130353299_);" d="M87.5,84.8c1.6,0.5,2.6,2,2.6,3.6
	c0.1,1.2-0.7,2.2-1.9,2.3c-0.2,0-0.5,0-0.7,0h-1.2v13.1c0,0.5-0.4,0.6-0.6,0.5c-0.4-0.2-0.7-0.6-0.6-1V90l-3.8-1.1v12.5
	c0.1,0.2-0.1,0.5-0.3,0.5c-0.1,0-0.2,0-0.3,0c-0.4-0.2-0.7-0.6-0.6-1V88.7h-1.2c-1.5-0.7-2.5-2.3-2.6-3.9c-0.1-1.1,0.6-2,1.7-2.2
	c0.3,0,0.6,0,0.9,0.1c1.4,0.6,2.4,2,2.4,3.6v1.2l3.9,1.1V87c0-1.2,1-2.2,2.2-2.2C87.4,84.8,87.5,84.8,87.5,84.8z M87.5,89.4
	c0.6,0,1.2-0.4,1.2-1.1c0-0.1,0-0.1,0-0.2l0,0c-0.1-0.7-0.5-1.3-1.2-1.5H87c-0.6,0-0.9,0.6-0.9,1.4v1.3c0.6,0.2,1.2,0.2,1.8,0.1
	L87.5,89.4z M80.1,87.5v-1.6c0-1-0.6-1.8-1.6-2.1c-0.8,0-1.3,0-1.3,1.1c0.1,0.9,0.6,1.7,1.4,2.1C79.1,87.3,79.6,87.4,80.1,87.5z"/>
<linearGradient id="SVGID_00000034076987131287109110000010251591710626202279_" gradientUnits="userSpaceOnUse" x1="95.1945" y1="1172.5283" x2="79.0681" y2="1169.4656" gradientTransform="matrix(1 0 0 1 0 -1059.7)">
	<stop  offset="0" style="stop-color:#787878"/>
	<stop  offset="1" style="stop-color:#B7B7B7"/>
</linearGradient>
<path style="fill:url(#SVGID_00000034076987131287109110000010251591710626202279_);" d="M89.1,109.1c-3.2,2.1-7.2,2.8-10.9,1.9v1.2
	c3.7,1.1,7.7,0.5,10.9-1.7V109.1z"/>
<linearGradient id="SVGID_00000145767824773802810530000014778058084040634791_" gradientUnits="userSpaceOnUse" x1="94.754" y1="1174.8564" x2="78.6276" y2="1171.7936" gradientTransform="matrix(1 0 0 1 0 -1059.7)">
	<stop  offset="0" style="stop-color:#787878"/>
	<stop  offset="1" style="stop-color:#B7B7B7"/>
</linearGradient>
<path style="fill:url(#SVGID_00000145767824773802810530000014778058084040634791_);" d="M89.1,111.4c-3.2,2.1-7.2,2.8-10.9,1.9v1.3
	c3.7,1.2,7.8,0.5,10.9-1.8V111.4z"/>
</svg>
