<svg id="a5e980e2-fe6c-4b4b-bd88-a9c235de5a4d" xmlns="http://www.w3.org/2000/svg" xmlns:xlink="http://www.w3.org/1999/xlink" width="17.64" height="17.6" viewBox="0 0 17.64 17.6">
  <defs>
    <linearGradient id="linear-gradient" x1="-295.37" y1="1216.97" x2="-277.77" y2="1247.52" gradientTransform="matrix(0.5, 0.87, 0.87, -0.5, -919.28, 867.42)" gradientUnits="userSpaceOnUse">
      <stop offset="0" stop-color="#005ba1"/>
      <stop offset="0.37" stop-color="#004e8f"/>
      <stop offset="1" stop-color="#003067"/>
    </linearGradient>
    <linearGradient id="linear-gradient-2" x1="-2173.64" y1="-328.49" x2="-2152.26" y2="-290.99" gradientTransform="matrix(-0.5, -0.87, -0.87, 0.5, -1341.63, -1703.73)" gradientUnits="userSpaceOnUse">
      <stop offset="0" stop-color="#005ba1"/>
      <stop offset="0.45" stop-color="#004685"/>
      <stop offset="1" stop-color="#003067"/>
    </linearGradient>
    <linearGradient id="linear-gradient-3" x1="5.8" y1="5.75" x2="7.25" y2="13.99" gradientTransform="matrix(1, 0, 0, -1, 0, 20)" gradientUnits="userSpaceOnUse">
      <stop offset="0.26" stop-color="#50e6ff"/>
      <stop offset="0.42" stop-color="#79eaff"/>
      <stop offset="0.58" stop-color="#99edff"/>
      <stop offset="0.73" stop-color="#b0efff"/>
      <stop offset="0.88" stop-color="#bef1ff"/>
      <stop offset="1" stop-color="#c3f1ff"/>
    </linearGradient>
  </defs>
  <path d="M9,3.73l4.38,2.51,3-1.76a8.79,8.79,0,0,0-12-3.35,8.38,8.38,0,0,0-1.95,1.5A10,10,0,0,1,9,3.73Z" fill="url(#linear-gradient)"/>
  <path d="M13.36,6.24l-.07,6,3.17.85a8.8,8.8,0,0,0-3.32-12,9,9,0,0,0-1.92-.8A10.44,10.44,0,0,1,13.36,6.24Z" fill="#0078d4"/>
  <path d="M13.35,11.45,8.8,14.08l.07,3.5a8.81,8.81,0,0,0,8.77-8.8,8.64,8.64,0,0,0-.29-2.09A9.61,9.61,0,0,1,13.35,11.45Z" fill="#5ea0ef"/>
  <path d="M8.8,14.08,4.25,11.45l-3,1.81A8.77,8.77,0,0,0,14.9,15.14,9.93,9.93,0,0,1,8.8,14.08Z" fill="url(#linear-gradient-2)"/>
  <path d="M4.24,11.45l.07-6.24L1.19,4.39A8.79,8.79,0,0,0,6.54,17.3,10.15,10.15,0,0,1,4.24,11.45Z" fill="#0078d4"/>
  <path d="M4.4,6.1,8.8,3.56A10.59,10.59,0,0,0,2.86,2.31,8.77,8.77,0,0,0,0,8.8a9.13,9.13,0,0,0,.31,2.32A10.29,10.29,0,0,1,4.4,6.1Z" fill="#5ea0ef"/>
  <polygon points="13.35 11.45 13.35 6.19 8.8 3.56 4.24 6.19 4.24 11.45 8.8 14.08 13.35 11.45" fill="#c3f1ff"/>
  <polygon points="8.8 8.87 8.8 14.08 4.24 11.45 4.24 6.21 8.8 8.87" fill="url(#linear-gradient-3)"/>
  <polygon points="8.8 8.87 8.8 14.08 13.36 11.45 13.36 6.21 8.8 8.87" fill="#50e6ff"/>
</svg>
