<?xml version="1.0" encoding="utf-8"?>
<!-- Generator: Adobe Illustrator 25.4.1, SVG Export Plug-In . SVG Version: 6.00 Build 0)  -->
<svg version="1.1" id="Layer_1" xmlns="http://www.w3.org/2000/svg" xmlns:xlink="http://www.w3.org/1999/xlink" x="0px" y="0px"
	 viewBox="0 0 100 74.1" style="enable-background:new 0 0 100 74.1;" xml:space="preserve">
<style type="text/css">
	.st0{fill:url(#SVGID_1_);}
	.st1{fill:#C3F1FF;}
	.st2{fill:#83B9F9;stroke:#83B9F9;stroke-width:0.3;stroke-miterlimit:10;}
	.st3{fill-rule:evenodd;clip-rule:evenodd;fill:#C3F1FF;}
</style>
<linearGradient id="SVGID_1_" gradientUnits="userSpaceOnUse" x1="50.5498" y1="-28.1333" x2="49.5998" y2="87.9833" gradientTransform="matrix(1 0 0 -1 0 76.1444)">
	<stop  offset="0" style="stop-color:#0078D4"/> -->
	<stop  offset="1" style="stop-color:#83B9F9"/> -->
</linearGradient>
<path class="st0" d="M4.9,0h90.1c2.7,0,4.9,2.2,4.9,4.9v64.3c0,2.7-2.2,4.9-4.9,4.9H4.9c-2.7,0-4.9-2.2-4.9-4.9V4.9
	C0,2.2,2.2,0,4.9,0z"/> -->
<circle class="st1" cx="33.1" cy="63.7" r="4.6"/> -->
<path class="st2" d="M24.4,63.7c0-0.8,0.1-1.6,0.3-2.3H11.5c-1.3,0-2.3,1.1-2.3,2.3c0,1.3,1,2.3,2.3,2.3h13.3
	C24.6,65.3,24.5,64.5,24.4,63.7z"/> -->
<path class="st2" d="M88.5,61.3H41.3c0.4,1.5,0.4,3.2,0,4.7h47.2c1.3,0,2.3-1,2.3-2.3C90.9,62.4,89.8,61.3,88.5,61.3
	C88.5,61.3,88.5,61.3,88.5,61.3z"/> -->
<path class="st3" d="M55.2,25.5l1.7-3.1l13.2,7.9l-13.2,7.9l-1.7-3.1l8.1-4.8L55.2,25.5z M38.7,11.6l13.3,7.9l-1.7,3.1l-8.1-4.9v9.7
	h-3.4V11.6z M38.7,33.3h3.4V43l8.1-4.9l1.7,3.1l-13.3,7.9V33.3z"/> -->
</svg>
