<?xml version="1.0" encoding="utf-8"?>
<!-- Generator: Adobe Illustrator 25.4.1, SVG Export Plug-In . SVG Version: 6.00 Build 0)  -->
<svg version="1.1" id="Layer_1" xmlns="http://www.w3.org/2000/svg" xmlns:xlink="http://www.w3.org/1999/xlink" x="0px" y="0px"
	 viewBox="0 0 100 108.4" style="enable-background:new 0 0 100 108.4;" xml:space="preserve">
<style type="text/css">
	.st0{fill:url(#SVGID_1_);}
	.st1{fill:url(#SVGID_00000044860360297608429550000004348970930100041151_);}
	.st2{fill:#5EA0EF;}
</style>
<linearGradient id="SVGID_1_" gradientUnits="userSpaceOnUse" x1="57.9306" y1="115.2539" x2="41.89" y2="-12.6916" gradientTransform="matrix(1 0 0 -1 0 110.3557)">
	<stop  offset="0" style="stop-color:#83B9F9"/> -->
	<stop  offset="1" style="stop-color:#0078D4"/> -->
</linearGradient>
<path class="st0" d="M92.1,31.4c-0.7-1.5-2.5-2.2-4-1.5s-2.2,2.5-1.5,4c0.1,0.2,0.3,0.5,0.4,0.7c13.2,20.5,7.3,47.9-13.3,61.1
	S26,103,12.8,82.4S5.5,34.6,26,21.4c3.8-2.5,8-4.3,12.4-5.5l0.3,1.4l1.9,8.4c0.2,0.2,0.5,0.2,0.7,0c0,0,0.1-0.1,0.1-0.1l10.7-15.5
	c0.2-0.2,0.1-0.6-0.2-0.7c0,0,0,0,0,0L35.8,0.1c-0.2-0.2-0.6-0.1-0.7,0.2c0,0,0,0.1-0.1,0.1l2,9.1l0.1,0.6
	C10.5,17.1-5.4,44.5,1.7,71.2s34.5,42.6,61.1,35.5c26.7-7.1,42.6-34.5,35.5-61.1C97,40.5,94.9,35.8,92.1,31.4z"/> -->
<linearGradient id="SVGID_00000016060864036375398090000003323852477543022484_" gradientUnits="userSpaceOnUse" x1="60.5729" y1="755.918" x2="60.5729" y2="845.3722" gradientTransform="matrix(1 0 0 1 0 -729.87)">
	<stop  offset="0" style="stop-color:#83B9F9"/> -->
	<stop  offset="1" style="stop-color:#005BA1"/> -->
</linearGradient>
<path style="fill:url(#SVGID_00000016060864036375398090000003323852477543022484_);" d="M79.8,59.2l-1.2-4.3l3-5.6l0.4-0.8
	l-4.3-4.3l-7.1,3.3l-4.1-1.7l-2.1-6.5V38h-6.1l-2.7,7.3l-4.2,1.7l-6.1-3.1l-0.8-0.4l-4.3,4.3l3.3,7l-1.7,4.4l-6.5,2.1l-0.9,0.3v6.1
	l7.3,2.6l1.7,4.2l-3.2,6l-0.4,0.8l4.3,4.3l7-3.3l4.3,1.6l2.1,6.2l0.3,0.3h6l2.7-6.8l4.2-1.2l6.1,3.1l0.8,0.4l2.3-2.4l1.9-2.1
	L81.6,81l-3.2-6.2l1.6-4.2l6.4-2.2l0.3-0.3V62L79.8,59.2z M69.6,65L69.6,65c0,4.7-3.9,8.5-8.6,8.5c-4.7,0-8.5-3.9-8.5-8.6
	c0-4.7,3.9-8.5,8.6-8.5C65.8,56.4,69.6,60.3,69.6,65L69.6,65z"/> -->
<path class="st2" d="M29.8,40.8l-2.7-1l-2.2-4l-4.1,0.6l-0.9,4.5l-2.2,1.8l-4.6-0.1l-1.5,3.9l3.4,3l0.4,2.8L13,56.4l2.6,3.2l4.4-1.5
	l2.7,1l2.2,4l4.1-0.6l0.9-4.5l2.2-1.8l4.6,0.1l1.5-3.9l-3.4-3l-0.4-2.8l2.4-3.9l-2.6-3.3L29.8,40.8z M28.3,53.7
	c-2.3,1.9-5.7,1.5-7.5-0.8c-1.9-2.3-1.5-5.7,0.8-7.5c2.3-1.9,5.7-1.5,7.5,0.8C31,48.4,30.6,51.8,28.3,53.7z"/> -->
</svg>
