<?xml version="1.0" encoding="utf-8"?>
<!-- Generator: Adobe Illustrator 25.4.1, SVG Export Plug-In . SVG Version: 6.00 Build 0)  -->
<svg version="1.1" id="Layer_1" xmlns="http://www.w3.org/2000/svg" xmlns:xlink="http://www.w3.org/1999/xlink" x="0px" y="0px"
	 viewBox="0 0 100 65.5" style="enable-background:new 0 0 100 65.5;" xml:space="preserve">
<style type="text/css">
	.st0{fill:url(#SVGID_1_);}
	.st1{fill:url(#SVGID_00000035533077317799612590000000398748007069982098_);}
	.st2{fill:#C3F1FF;}
</style>
<g id="a12783d2-3ef0-4513-a70b-1c1c1264f36c">
	<g>
		
			<linearGradient id="SVGID_1_" gradientUnits="userSpaceOnUse" x1="100.7345" y1="53.1003" x2="53.4234" y2="-8.1719" gradientTransform="matrix(1 0 0 -1 0 67.5333)">
			<stop  offset="0" style="stop-color:#83B9F9"/>
			<stop  offset="9.000000e-02" style="stop-color:#79B4F6"/>
			<stop  offset="0.243" style="stop-color:#5EA7EF"/>
			<stop  offset="0.441" style="stop-color:#3391E2"/>
			<stop  offset="0.638" style="stop-color:#0078D4"/>
		</linearGradient>
		<path class="st0" d="M96.6,55.2L63.1,39.7c-1.6-0.7-2.5-2.3-2.4-4v-5.4c-0.2-1.7,0.8-3.3,2.4-4l33.4-15.6c1.8-0.5,3.4,1.4,3.4,4
			v36.5C100,53.8,98.3,55.7,96.6,55.2z"/>
		
			<linearGradient id="SVGID_00000031896398748908020330000001533225310750025364_" gradientUnits="userSpaceOnUse" x1="38.201" y1="88.0278" x2="36.151" y2="-68.3556" gradientTransform="matrix(1 0 0 -1 0 67.5333)">
			<stop  offset="0.176" style="stop-color:#83B9F9"/>
			<stop  offset="0.194" style="stop-color:#7EB7F8"/>
			<stop  offset="0.38" style="stop-color:#51A0EB"/>
			<stop  offset="0.559" style="stop-color:#2E8FE1"/>
			<stop  offset="0.726" style="stop-color:#1582DA"/>
			<stop  offset="0.878" style="stop-color:#057BD6"/>
			<stop  offset="1" style="stop-color:#0078D4"/>
		</linearGradient>
		<path style="fill:url(#SVGID_00000031896398748908020330000001533225310750025364_);" d="M3.9,0h67.2C73.2,0,75,1.8,75,3.9v57.7
			c0,2.2-1.8,3.9-3.9,3.9H3.9c-2.2,0-3.9-1.8-3.9-3.9V3.9C0,1.8,1.8,0,3.9,0z"/>
		<path class="st2" d="M28.6,40.4c-1.9-2.2-2.9-4.9-3-7.8c0-2.7,1-5.3,2.9-7.3c1.1-1.2,1.1-3,0-4.2c-1.1-1.1-2.8-1.1-4-0.1
			c-3,3.1-4.7,7.2-4.8,11.6c0.1,4.4,1.7,8.6,4.6,11.9c1.2,1.1,3,1.1,4.2,0C29.6,43.3,29.6,41.6,28.6,40.4L28.6,40.4z"/>
		<path class="st2" d="M16.3,50.2c-0.9,0-1.7-0.4-2.2-1c-3.7-4.7-5.8-10.4-5.9-16.4c0.2-5.9,2.3-11.6,5.9-16.3
			c1.1-1.2,2.9-1.4,4.1-0.3c1.2,1,1.4,2.8,0.4,4l0,0c-2.7,3.7-4.3,8.1-4.6,12.6c0.1,4.6,1.6,9,4.5,12.5c1.1,1.2,0.9,3.1-0.3,4.1
			C17.7,49.9,17,50.2,16.3,50.2L16.3,50.2z"/>
		<path class="st2" d="M49,21.1c-1.2-1.1-3-1-4.1,0.2c-1.1,1.2-1.1,3,0.1,4.1c1.9,2,2.9,4.6,2.9,7.3c-0.1,2.9-1.1,5.6-3,7.8
			c-1.1,1.2-1,3.1,0.2,4.1c1.2,1,2.9,1,4-0.1c2.9-3.3,4.5-7.5,4.6-11.9C53.7,28.3,52,24.2,49,21.1z"/>
		<path class="st2" d="M57.2,50.2c-1.6,0-2.9-1.3-2.9-2.9c0-0.7,0.3-1.4,0.7-1.9c2.8-3.6,4.4-8,4.4-12.5c-0.2-4.6-1.8-9-4.6-12.6
			c-1-1.3-0.7-3.1,0.6-4.1c1.2-0.9,3-0.7,4,0.4c3.6,4.7,5.6,10.4,5.8,16.3c-0.1,6-2.2,11.7-5.9,16.4C58.8,49.9,58,50.2,57.2,50.2z"
			/>
		<circle class="st2" cx="36.8" cy="32.9" r="5.1"/>
	</g>
</g>
</svg>
