<?xml version="1.0" encoding="utf-8"?>
<!-- Generator: Adobe Illustrator 25.4.1, SVG Export Plug-In . SVG Version: 6.00 Build 0)  -->
<svg version="1.1" id="Layer_1" xmlns="http://www.w3.org/2000/svg" xmlns:xlink="http://www.w3.org/1999/xlink" x="0px" y="0px"
	 viewBox="0 0 100 71.2" style="enable-background:new 0 0 100 71.2;" xml:space="preserve">
<style type="text/css">
	.st0{fill:url(#SVGID_1_);}
	.st1{fill:#83B9F9;}
	.st2{fill:#9CEBFF;}
	.st3{fill:#C3F1FF;}
</style>
<g id="a3857c27-3253-4155-b620-22ae9cf301a7">
	<g>
		
			<linearGradient id="SVGID_1_" gradientUnits="userSpaceOnUse" x1="50" y1="86.502" x2="50" y2="0.3465" gradientTransform="matrix(1 0 0 -1 0 73.2134)">
			<stop  offset="0.117" style="stop-color:#5EA0EF"/>
			<stop  offset="0.271" style="stop-color:#4595E8"/>
			<stop  offset="0.531" style="stop-color:#1F85DD"/>
			<stop  offset="0.741" style="stop-color:#087CD6"/>
			<stop  offset="0.873" style="stop-color:#0078D4"/>
		</linearGradient>
		<path class="st0" d="M80.6,27.1C79.7,11.6,66.7-0.4,51.2,0C39-0.1,28,7.4,23.5,18.8C10.5,20.8,0.7,31.6,0,44.7
			c0.4,15,12.8,26.8,27.8,26.5c0,0,0,0,0,0h0.5h49.4c12.3,0,22.3-10,22.3-22.4C99.7,37.8,91.5,28.7,80.6,27.1z"/>
		<g>
			<polygon class="st1" points="76.6,42.3 51.7,33 51,34.6 51.4,33.1 29.3,28.3 28.2,32 46.9,36 22.9,45.9 24.8,49.2 49.5,38.9 
				54,58.4 57.8,58 53.3,37.8 75.1,45.8 			"/>
			<path class="st2" d="M25.4,33.4c1.7,2.1,4.7,2.5,6.9,0.9c2.1-1.7,2.5-4.7,0.9-6.9c-1.7-2.1-4.7-2.5-6.9-0.9c0,0,0,0,0,0l-0.1,0.1
				C24.1,28.3,23.8,31.3,25.4,33.4z M19.9,50.7c1.7,2.1,4.8,2.5,6.9,0.8c2.1-1.7,2.5-4.8,0.8-6.9c-1.7-2.1-4.8-2.5-6.9-0.8
				C18.6,45.5,18.2,48.6,19.9,50.7C19.9,50.7,19.9,50.7,19.9,50.7z M71.3,46.4c1.6,2.1,4.7,2.5,6.8,0.9c2.1-1.6,2.5-4.7,0.9-6.8
				c-1.6-2.1-4.7-2.5-6.8-0.9c0,0,0,0,0,0l0,0C70.1,41.2,69.7,44.2,71.3,46.4L71.3,46.4z"/>
			<path class="st2" d="M52,61.5c1.6,2.1,4.7,2.5,6.8,0.9c2.1-1.6,2.5-4.7,0.9-6.8c-1.6-2.1-4.7-2.5-6.8-0.9c0,0,0,0,0,0l0,0
				C50.7,56.2,50.3,59.2,52,61.5C51.9,61.4,51.9,61.4,52,61.5L52,61.5z"/>
		</g>
		<path class="st3" d="M65.2,35.8c0.7-0.4,0.9-1.3,0.5-2c-0.1-0.2-0.3-0.4-0.5-0.5l-10.8-6.2l-10.8-6.2c-0.7-0.4-1.6-0.2-2,0.5
			c-0.1,0.2-0.2,0.5-0.2,0.8V47c0,0.8,0.6,1.5,1.5,1.5c0.3,0,0.5-0.1,0.8-0.2L54.4,42L65.2,35.8z"/>
	</g>
</g>
</svg>
