<?xml version="1.0" encoding="utf-8"?>
<!-- Generator: Adobe Illustrator 25.4.1, SVG Export Plug-In . SVG Version: 6.00 Build 0)  -->
<svg version="1.1" id="Layer_1" xmlns="http://www.w3.org/2000/svg" xmlns:xlink="http://www.w3.org/1999/xlink" x="0px" y="0px"
	 viewBox="0 0 100 109.7" style="enable-background:new 0 0 100 109.7;" xml:space="preserve">
<style type="text/css">
	.st0{fill:#45CAF2;}
	.st1{fill:#2195DC;}
	.st2{fill:url(#SVGID_1_);}
</style>
<path class="st0" d="M13.7,3.2c1.3,0.7,2.4,1.7,3.2,2.9c2.1,3.2,2.3,6.9,0.6,8.4C12.5,19.9,9.7,27,10,34.3c0.5,9.9,3,19.5,7.4,28.4
	c1.7,3.3,1.4,6.7-0.4,7.7c-1.1,0.4-2.3,0.2-3.2-0.4c-1.5-1-2.7-2.4-3.6-4C4.1,54.4,0.6,41.7,0,28.6C-0.5,19.1,3.2,9.8,10,3
	C10.8,2.1,12.5,2.4,13.7,3.2z"/> -->
<path class="st1" d="M14.4,31.6c-0.2-7.3,2.5-14.4,7.6-19.7c1.7-1.5,1.5-5.2-0.6-8.4c-0.9-1.2-2-2.2-3.2-3c-1-0.6-2.3-0.6-3.4,0
	l-4.6,2.4c1.1-0.6,2.1-0.4,3.6,0.4c1.3,0.7,2.4,1.7,3.2,2.9c2.1,3.2,2.3,6.9,0.6,8.4C12.5,19.9,9.7,27,10,34.3
	c0.5,9.9,3,19.5,7.4,28.4c1.7,3.1,1.4,6.2,0,7.6l4.4-2.6c1.9-1.1,1.9-4.4,0-7.6C17.2,51.3,14.7,41.5,14.4,31.6z"/> -->
<path class="st1" d="M33.6,42.5c-0.5-3.8,1-7.5,3.9-9.9l1.1-1.4c1.3-2.4,1.3-5.3,0-7.7c-0.9-1.6-2.1-2.9-3.6-4
	c-1-0.6-2.2-0.8-3.3-0.4h-0.3L27,21.6c0.1,0,0.3,0,0.4,0c1-0.2,2.1-0.1,3,0.5c1.5,1,2.7,2.4,3.5,4c1.7,3.1,1.9,6.2,0,7.6l0,0
	c-3.5,2.6-5.3,6.8-4.8,11.1c0.3,6.3,2,12.4,5.1,17.9c1.9,3.4,1.7,6.7,0,7.7l4.4-2.5c1.9-1.1,1.9-4.6,0-7.7
	C35.8,54.7,34.1,48.7,33.6,42.5z"/> -->
<path class="st0" d="M30.6,22.1c1.6,0.9,2.8,2.3,3.6,4c1.9,3.3,1.7,6.7,0,7.7c-3.4,2.6-5.2,6.8-4.8,11.1c0.3,6.3,2,12.4,5.1,17.9
	c1.9,3.4,1.7,6.9,0,7.7c-1.1,0.4-2.4,0.3-3.4-0.4c-1.4-1-2.6-2.3-3.6-3.8c-4.8-8.3-7.6-17.6-8.1-27.1c0-13.6,7.6-17.4,8-17.6
	C28.5,21.3,29.7,21.5,30.6,22.1z"/> -->
<path class="st0" d="M65.2,42.1c1.4,0.8,2.5,2,3.4,3.4c4.8,8.1,7.5,17.3,7.8,26.7c0.8,7-2.1,13.9-7.6,18.2c-1.1,0.6-2.5,0.6-3.6,0
	c-1.5-0.8-2.7-2-3.4-3.6c-1.9-3.4-2.1-6.9,0-8c3.5-2.9,5.4-7.4,5.1-12c-0.4-6-2.2-11.8-5.2-16.9c-1.9-3.1-2.1-6.9,0-7.9
	C62.8,41.4,64.1,41.5,65.2,42.1z"/> -->
<path class="st1" d="M72.7,43.2c-0.8-1.4-1.9-2.6-3.4-3.4c-1.1-0.6-2.4-0.8-3.6-0.4l-4.4,2.5c1.2-0.6,2.6-0.4,3.6,0.4
	c1.4,0.8,2.5,2,3.4,3.4c4.8,8.1,7.5,17.3,7.8,26.7c0.7,7-2.2,13.8-7.7,18.1l4.4-2.4c5.6-4.3,8.5-11.2,7.8-18.2
	C80.3,60.4,77.6,51.2,72.7,43.2z"/> -->
<path class="st0" d="M82.1,42.5c1.6,1,3,2.5,3.8,4.2c5.6,11.5,8.9,24,9.7,36.7c0,18.3-9.5,25.4-9.9,25.7c-1.1,0.7-2.6,0.7-3.7,0
	c-1.3-0.8-2.4-1.8-3.2-3.1c-2.1-3.2-2.3-6.9-0.4-8.2c5.3-5.1,8.1-12.4,7.6-19.7c-0.6-9.9-3.2-19.7-7.6-28.6
	c-1.7-3.3-1.2-6.7,0.9-7.3C80.1,41.9,81.2,42,82.1,42.5z"/> -->
<path class="st1" d="M90.3,44.2c-0.9-1.7-2.2-3.2-3.8-4.2c-0.9-0.6-2.1-0.8-3.2-0.6c0,0,0,0-0.4,0l-4.4,2.5c0,0,0,0,0.4,0
	c1.1-0.2,2.2,0,3.2,0.6c1.6,1,3,2.5,3.8,4.2c5.6,11.5,8.9,24,9.7,36.7c0,18.3-9.5,25.4-9.9,25.7l0,0l4.4-2.5l0,0
	c0,0,9.9-7.6,9.9-25.4C99.2,68.3,95.9,55.7,90.3,44.2z"/> -->
<linearGradient id="SVGID_1_" gradientUnits="userSpaceOnUse" x1="-371.5486" y1="1498.3975" x2="-350.558" y2="1531.7574" gradientTransform="matrix(0.9304 -0.3665 0.3665 0.9304 -160.9511 -1480.1304)">
	<stop  offset="0" style="stop-color:#45CAF2"/> -->
	<stop  offset="0.9" style="stop-color:#2195DC"/> -->
</linearGradient>
<path class="st2" d="M45.3,44.3c5.5-2.2,11.9,1.1,14.3,7.2s-0.1,12.9-5.5,15.1c-5.5,2.2-11.9-1.1-14.3-7.2S39.8,46.4,45.3,44.3z"/> -->
</svg>
