<?xml version="1.0" encoding="utf-8"?>
<!-- Generator: Adobe Illustrator 25.4.1, SVG Export Plug-In . SVG Version: 6.00 Build 0)  -->
<svg version="1.1" id="Layer_1" xmlns="http://www.w3.org/2000/svg" xmlns:xlink="http://www.w3.org/1999/xlink" x="0px" y="0px"
	 viewBox="0 0 100 120.1" style="enable-background:new 0 0 100 120.1;" xml:space="preserve">
<style type="text/css">
	.st0{fill:#FFFFFF;}
	.st1{fill:#DCDCDC;}
	.st2{fill:#E2E2E2;}
	.st3{fill:#45CAF2;}
	.st4{fill:#50E6FF;}
	.st5{fill:#84ECFD;}
	.st6{fill:#32B0E7;}
	.st7{fill:#2195DC;}
	.st8{fill:#156AB3;}
	.st9{fill:url(#SVGID_1_);}
</style>
<path class="st0" d="M67.1,45.2l16.2,9.4v65.3L26.2,87.5l0.2-83.1l40.7,23.5V45.2z"/>
<path class="st1" d="M26.4,4.4L33.9,0l40.7,23.5l-7.4,4.4L26.4,4.4z"/>
<path class="st1" d="M83.3,54.6l7.5-4.2v65.3l-7.5,4.4V54.6z"/>
<path class="st2" d="M67.1,27.9l7.4-4.4l16.2,26.9l-7.5,4.2L67.1,27.9z"/>
<path class="st1" d="M67.1,27.9l16.2,26.7l-16.2-9.4V27.9z"/>
<path class="st3" d="M69.8,71.2v4.7L49.1,63.4v-4.7L69.8,71.2z"/>
<path class="st4" d="M69.8,80.1v4.7L37.3,66.1v-4.7L69.8,80.1z"/>
<path class="st5" d="M69.8,88.9v4.9L37.3,75v-4.7L69.8,88.9z"/>
<path class="st3" d="M38.6,36.4c0.2,0.2,0.4,0.3,0.6,0.6l6.2,7.6l6.2,7.7c0.9,1,0.9,2.4,0,2.5l-6.2,0.5l-6.2,0.5h-0.6
	c-0.7-0.5-1.1-1.4-1.1-2.3V37.1C37.5,36.3,38,36.1,38.6,36.4z"/>
<path class="st6" d="M97.3,72.1v18.8v6.2L75.9,84.6V60l5.3,3L97.3,72.1z"/>
<path class="st7" d="M75.9,59.8l5.3,3l16,9.3l2.8-1.6l-16.1-9.4l-5.3-3.1L75.9,59.8z"/>
<path class="st7" d="M97.2,96.7l2.7-1.6V70.6l-2.7,1.6V96.7z"/>
<path class="st0" d="M85.1,69.4l2.8,1.6v6.2l5.6,3.3v3.2l-5.6-3.2v6.2l-2.8-1.6v-6.2l-5.6-3.3v-3.2l5.6,3.2V69.4z"/>
<path class="st8" d="M38.4,105l-3.2,1.9c0.8-0.6,1.5-1.4,1.9-2.3c0.4-0.9,0.6-1.9,0.4-2.9c-0.1-2.7-0.8-5.4-2.1-7.9
	c-1.3-2.4-3-4.5-5.1-6.2l3.2-1.9c4.4,3.5,7.1,8.8,7.3,14.4c0.1,1-0.1,2-0.5,2.9c-0.4,0.9-1.1,1.7-1.9,2.3V105z"/>
<path class="st8" d="M2.8,71.7l3.2-1.9C7,69.4,8,69.2,9,69.2c1,0,2.1,0.2,3,0.7l-3.2,1.9c-1.9-1.1-4.3-1.1-6.2,0H2.8z"/>
<path class="st8" d="M11.3,68.7l3.2-1.9c2.6-1.2,5.7-0.9,8.1,0.8c6.3,4.1,10.4,10.9,10.9,18.4l-3.2,1.9c-0.5-7.6-4.6-14.4-10.9-18.5
	C17,67.8,13.9,67.5,11.3,68.7z"/>
<linearGradient id="SVGID_1_" gradientUnits="userSpaceOnUse" x1="11.2304" y1="1133.3851" x2="28.1679" y2="1170.0726" gradientTransform="matrix(1 0 0 1 0 -1059.78)">
	<stop  offset="0" style="stop-color:#32B0E7"/>
	<stop  offset="1" style="stop-color:#0078D4"/>
</linearGradient>
<path class="st9" d="M29.1,106.2c4.8,2.5,8.5,0.4,8.6-4.8c-0.2-2.7-0.9-5.4-2.2-7.7c-1.2-2.4-3-4.5-5.1-6.2
	c-0.6-7.4-4.7-14.1-10.9-18.1c-4.9-2.9-9.1-1.8-10.5,2.2c-5.1-2-8.8,0.6-8.9,6.2c0.5,7.3,4.4,13.9,10.6,17.8l0.9,0.4l17.1,10.1H29.1
	"/>
</svg>
