<?xml version="1.0" encoding="utf-8"?>
<!-- Generator: Adobe Illustrator 25.4.1, SVG Export Plug-In . SVG Version: 6.00 Build 0)  -->
<svg version="1.1" id="Layer_1" xmlns="http://www.w3.org/2000/svg" xmlns:xlink="http://www.w3.org/1999/xlink" x="0px" y="0px"
	 viewBox="0 0 100 97.1" style="enable-background:new 0 0 100 97.1;" xml:space="preserve">
<style type="text/css">
	.st0{fill:#50E6FF;}
	.st1{fill:#ACF3FD;}
	.st2{fill:#84ECFD;}
	.st3{fill:#32B0E7;}
	.st4{fill:#0078D4;}
	.st5{fill:#4DC2EB;}
	.st6{fill:#45CAF2;}
	.st7{fill:#2195DC;}
</style>
<path class="st0" d="M19.9,19.8c0.3,0.2,0.6,0.5,0.8,0.8l8.6,15.7c0.2,0.3,0.4,0.6,0.8,0.8l28.2,16.3c0.3,0.2,0.6,0.4,0.8,0.8
	c0.1,0.3,0.1,0.7,0,1V84c0,0.6-0.5,0.9-1.1,0.6L1,51.6c-0.4-0.2-0.7-0.4-0.9-0.8C0,50.6,0,50.3,0,50V9.6C0,9,0.5,8.7,1,9.1
	L19.9,19.8z"/>
<path class="st1" d="M38.7,65.5c0.3,0.2,0.5,0.4,0.7,0.8c0.1,0.3,0.1,0.7,0,1.1v15.5c0,0.7-0.4,0.9-1,0.6L5.9,64.6
	c-0.3-0.2-0.5-0.5-0.7-0.8c-0.2-0.3-0.3-0.6-0.3-1V47.3c0-0.7,0.4-0.9,1-0.6L38.7,65.5z"/>
<path class="st2" d="M47,60.7L14.5,41.9c0,0-0.5,0-0.8,0l-8.2,4.7c0.3,0,0.6,0.1,0.8,0.3l32.4,18.8c0.3,0.2,0.5,0.4,0.7,0.8
	c0.1,0.3,0.1,0.7,0,1v15.5c0,0.1,0,0.3,0,0.4l0,0l8.3-4.8l0,0c0-0.1,0-0.3,0-0.4V62.5c0.1-0.3,0.1-0.7,0-1.1
	C47.5,61.1,47.2,60.9,47,60.7L47,60.7z"/>
<path class="st3" d="M51.4,55.3c0.5,0.2,0.9,0.6,1.2,1c0.3,0.5,0.4,1,0.4,1.6c0,1.1-0.8,1.4-1.6,0.9l-43.8-25
	c-0.5-0.3-1-0.7-1.3-1.3c-0.1-0.5-0.1-1.1,0-1.6c0-1,0.7-1.4,1.6-0.9L51.4,55.3z M33.8,69.6c0.5,0.3,0.9,0.7,1.1,1.3
	c0.3,0.5,0.5,1,0.5,1.6c0,1.1-0.8,1.4-1.6,0.9L11.5,60.5c-0.5-0.3-0.9-0.7-1.2-1.3c-0.3-0.5-0.4-1-0.4-1.6c0-1.1,0.8-1.4,1.6-0.9
	L33.8,69.6z"/>
<path class="st4" d="M14.8,24.4c-0.1-1.1-0.4-2.1-0.9-3.1c-0.5-1.1-1.3-2-2.3-2.6c-0.3-0.1-0.7-0.1-1.1,0c-0.4-0.1-0.8-0.1-1.1,0
	l-1.9,1.3c0.4-0.2,0.8-0.3,1.2-0.3c0.4,0,0.8,0.2,1.2,0.4c0.9,0.6,1.7,1.4,2.3,2.3c0.5,1,0.8,2,0.9,3.1c0.1,0.4,0.1,0.8,0,1.1
	c-0.2,0.4-0.4,0.7-0.8,0.9l2-1.4c0.3-0.2,0.5-0.5,0.6-0.9C14.9,25.1,14.9,24.7,14.8,24.4L14.8,24.4z"/>
<path class="st2" d="M55.6,12.1l-5.6-3.4C38.8,2.4,29.9,7.5,29.9,20.1v0.4l3.6,7.6v-6.3c0-10.1,7.3-14.2,16.6-9l3,1.8
	c0.2-0.6,0.6-1.2,1.1-1.6c0.5-0.4,1.1-0.7,1.8-0.9H55.6z"/>
<path class="st5" d="M71.4,20.4c1,0.7,1.9,1.6,2.5,2.6c0.6,1,0.9,2.2,1,3.4c0,2.3-1.6,3.1-3.5,2l-17-9.7c-0.5-0.3-1-0.8-1.3-1.3
	c-0.3-0.5-0.5-1.1-0.4-1.8c0-0.6,0.1-1.2,0.4-1.8c0.3-0.5,0.7-0.9,1.3-1.3c0.6-0.4,1.2-0.6,1.9-0.6c0.5,0,1.1,0.2,1.6,0.4L71.4,20.4
	z"/>
<path class="st6" d="M55.6,12.1L55.6,12.1z M57.9,12.5L57.9,12.5z M55.2,11.9l1.1-0.4l2.1-1.2l-5.5-3.1C48.7,4,43.2,3.5,38.5,5.8
	l-2.9,1.7c4.7-2.3,10.2-1.8,14.4,1.3l5.5,3.2L55.2,11.9z M56.7,11.9L56.7,11.9z M57.3,11.9L57.3,11.9z M57.6,11.9L57.6,11.9z
	 M57,11.9L57,11.9z"/>
<path class="st4" d="M76.6,17.4l-13.7-8C62.4,9.1,61.8,9,61.2,9c-0.6,0-1.2,0.1-1.8,0.4l-3.6,2l-0.7,0.5l-1.4,0.9
	c0.6-0.4,1.2-0.7,1.9-0.8c0.7-0.1,1.4,0,2,0.4l11,6.3l2.5,1.5c2.2,1.3,3.5,3.7,3.5,6.3v1.8l0,0l0,0l0,0l0,0l4.9-2.9
	c0.1-0.1,0.1-0.2,0.2-0.4c0.1-0.4,0.1-0.8,0-1.3c-0.1-2.5-1.4-4.8-3.5-6.3L76.6,17.4z"/>
<path class="st3" d="M9.8,20.2c0.9,0.6,1.7,1.4,2.2,2.4c0.6,0.9,0.9,2,0.9,3.1c0,2-1.4,2.8-3.2,1.8C8.8,26.8,8.1,26,7.5,25
	c-0.5-1-0.9-2-0.9-3.1c-0.1-1.1,0.6-2,1.7-2.1C8.8,19.7,9.4,19.8,9.8,20.2z"/>
<path class="st6" d="M73.6,44.4L45.4,28.1c-0.3-0.2-0.6-0.5-0.8-0.8L36,11.7c-0.2-0.3-0.4-0.6-0.8-0.9L16.5,0l0,0h-0.7L0.4,8.9h0.4
	c0,0,0,0,0.4,0l18.8,10.7c0.3,0.2,0.6,0.5,0.8,0.8l8.6,15.6c0.2,0.3,0.4,0.6,0.8,0.8l28.1,16.5c0.3,0.2,0.6,0.4,0.8,0.8
	c0.1,0.3,0.1,0.7,0,1v28.8c0,0.1,0,0.3,0,0.4l0,0l15.4-9l0,0c0-0.1,0-0.3,0-0.4V46.3c0.1-0.3,0.1-0.7,0-1.1
	C74.1,44.9,73.9,44.6,73.6,44.4z"/>
<path class="st1" d="M78.4,92.1l17.9-10.4V69.2L78.4,79.6L78.4,92.1L78.4,92.1z M74.5,79.6c0-0.8,0.3-1.5,0.8-2.1l-8.9-5.4
	c-0.2,0.1-0.4,0.3-0.6,0.6c-0.1,0.2-0.1,0.5,0,0.8v14.8l0,0l0,0l8.8,5.3V79.6z"/>
<path class="st5" d="M91.5,79.7c0.1,0.2,0.1,0.4,0,0.6c-0.1,0.2-0.2,0.4-0.4,0.5l-14.9,8.6V80c0-0.2,0-0.5,0-0.8
	c0.1-0.3,0.3-0.5,0.6-0.6l14.6-8.5L91.5,79.7z"/>
<path class="st6" d="M76.2,76.7l19.1-11.2l-8.3-5.1h-0.3l0,0L66.6,72.1l8.9,5.4c0.2-0.4,0.6-0.7,0.9-0.9L76.2,76.7z"/>
<path class="st7" d="M65.5,78.9v-5.4c-0.1-0.2-0.1-0.5,0-0.8c0.1-0.2,0.3-0.4,0.6-0.6l15.5-9.1l-9-1.3l0,0l-9.5,5.5l0,0l0,0v6.3
	L65.5,78.9z"/>
<path class="st4" d="M76.9,97.1c-0.3,0.1-0.7,0.1-1,0l0,0h-0.4l-0.5-0.8l0,0l0,0l0,0l0,0V95c-0.1-0.1-0.1-0.3,0-0.4V79.8
	c0-0.6,0.1-1.2,0.4-1.8c0.3-0.6,0.8-1,1.3-1.3l20-11.8c0.5-0.3,1.1-0.4,1.8-0.3l0,0l0,0h0.3c0.3,0.2,0.6,0.5,0.8,0.9
	c0.2,0.4,0.3,0.8,0.3,1.3v15.1c0,0.6-0.2,1.2-0.5,1.8c-0.3,0.5-0.7,1-1.3,1.3L78.2,96.6C77.8,96.9,77.4,97,76.9,97.1z M78.4,79.9
	v12.5L96.3,82V69.5L78.4,79.9z"/>
</svg>
