<?xml version="1.0" encoding="utf-8"?>
<!-- Generator: Adobe Illustrator 25.4.1, SVG Export Plug-In . SVG Version: 6.00 Build 0)  -->
<svg version="1.1" id="Layer_1" xmlns="http://www.w3.org/2000/svg" xmlns:xlink="http://www.w3.org/1999/xlink" x="0px" y="0px"
	 viewBox="0 0 100 135.5" style="enable-background:new 0 0 100 135.5;" xml:space="preserve">
<style type="text/css">
	.st0{fill:url(#SVGID_1_);}
	.st1{fill:url(#SVGID_00000027564765652121132430000011389090893277264562_);}
	.st2{fill:url(#SVGID_00000142147016134423491170000012838243963619484835_);}
	.st3{fill:url(#SVGID_00000114792547020793769760000007557211555875373966_);}
	.st4{fill:#5EA0EF;}
</style>
<linearGradient id="SVGID_1_" gradientUnits="userSpaceOnUse" x1="19.2957" y1="77.6443" x2="20.5677" y2="30.2334" gradientTransform="matrix(1 0 0 -1 0 137.4877)">
	<stop  offset="5.400000e-02" style="stop-color:#9CEBFF"/>
	<stop  offset="1" style="stop-color:#50E6FF"/>
</linearGradient>
<rect x="16.1" y="63.6" class="st0" width="7.9" height="46.2"/>
<linearGradient id="SVGID_00000171708240477833145890000004980722429443183547_" gradientUnits="userSpaceOnUse" x1="32.6016" y1="79.5572" x2="53.6162" y2="11.7489" gradientTransform="matrix(1 0 0 -1 0 137.4877)">
	<stop  offset="0.118" style="stop-color:#9CEBFF"/>
	<stop  offset="1" style="stop-color:#50E6FF"/>
</linearGradient>
<polygon style="fill:url(#SVGID_00000171708240477833145890000004980722429443183547_);" points="43.2,109 43.2,64 35.5,64 
	35.5,113.4 63.1,129.4 66.9,122.8 "/>
<linearGradient id="SVGID_00000102523783858140032960000008996640923553400496_" gradientUnits="userSpaceOnUse" x1="85.5752" y1="83.2681" x2="69.3024" y2="38.1755" gradientTransform="matrix(1 0 0 -1 0 137.4877)">
	<stop  offset="0.243" style="stop-color:#9CEBFF"/>
	<stop  offset="1" style="stop-color:#50E6FF"/>
</linearGradient>
<polygon style="fill:url(#SVGID_00000102523783858140032960000008996640923553400496_);" points="79,37.2 79,82.2 62.5,91.9 
	66.3,98.5 86.6,86.6 86.6,37.2 "/>
<linearGradient id="SVGID_00000086679548564098947820000017626696352762542213_" gradientUnits="userSpaceOnUse" x1="49.2723" y1="143.2774" x2="50.4916" y2="53.5363" gradientTransform="matrix(1 0 0 -1 0 137.4877)">
	<stop  offset="5.000000e-03" style="stop-color:#83B9F9"/>
	<stop  offset="1" style="stop-color:#5EA0EF"/>
</linearGradient>
<path style="fill:url(#SVGID_00000086679548564098947820000017626696352762542213_);" d="M100,49.8c-0.2-11.1-8.5-20.5-19.5-22.1
	C80,12,67-0.3,51.3,0C38.8-0.1,27.6,7.6,23.4,19.4C10.2,21.2,0.2,32.4,0,45.7c0.4,15.2,13,27.2,28.2,26.8c0,0,0,0,0,0
	c0.8,0,1.7,0,2.5-0.1h45.6c0.4,0,0.8-0.1,1.2-0.2C89.8,72,99.7,62.1,100,49.8z"/>
<circle class="st4" cx="20" cy="105.6" r="10"/>
<circle class="st4" cx="64.8" cy="125.5" r="10"/>
<circle class="st4" cx="63.9" cy="95.2" r="10"/>
</svg>
