<?xml version="1.0" encoding="utf-8"?>
<!-- Generator: Adobe Illustrator 25.4.1, SVG Export Plug-In . SVG Version: 6.00 Build 0)  -->
<svg version="1.1" id="Layer_1" xmlns="http://www.w3.org/2000/svg" xmlns:xlink="http://www.w3.org/1999/xlink" x="0px" y="0px"
	 viewBox="0 0 100 88.2" style="enable-background:new 0 0 100 88.2;" xml:space="preserve">
<style type="text/css">
	.st0{fill:url(#SVGID_1_);}
	.st1{fill:#45C6DC;}
	.st2{fill:#D2D2D2;}
	.st3{fill:#FFFFFF;}
	.st4{fill:#B4B4B4;}
	.st5{fill:#32B0E7;}
	.st6{fill:url(#SVGID_00000077303197634034143280000018338141304039844520_);}
	.st7{fill:url(#SVGID_00000154383404479506129820000007097785533877058449_);}
	.st8{fill:url(#SVGID_00000056411338963011395150000006550040250050777788_);}
</style>
<linearGradient id="SVGID_1_" gradientUnits="userSpaceOnUse" x1="54.7778" y1="1140.4897" x2="61.6496" y2="1131.4314" gradientTransform="matrix(1 0 0 1 0 -1064.41)">
	<stop  offset="0" style="stop-color:#C9C9C9"/> -->
	<stop  offset="1" style="stop-color:#B4B4B4"/> -->
</linearGradient>
<path class="st0" d="M41.5,65.2c-4.7,2.7,11.3,1.2,19.6,6.2s6.2,13.2,10.3,11.1c2.8-1.6,3.2-9.5-5-14.2
	C58.8,64.1,49.9,62.9,41.5,65.2z"/> -->
<path class="st1" d="M63.5,59.5l5.2-3.2l5.4,3l-5.4,3.2L63.5,59.5z"/> -->
<path class="st2" d="M97.2,39.6v48.6L30.8,50.3L30.7,1.7L97.2,39.6z"/> -->
<path class="st3" d="M33.7,48.5V6.7l60.7,35.1v41.8L33.7,48.5z"/> -->
<path class="st4" d="M97.1,39.4l2.9-1.6v48.7l-2.7,1.6L97.1,39.4z"/> -->
<path class="st4" d="M30.7,1.7L33.5,0L100,38l-2.8,1.6L30.7,1.7z"/> -->
<path class="st5" d="M55.5,33.3l1.4-0.8h0.4c0,0,0.3,0,0.4,0l-1.4,0.9h-0.4C55.7,33.3,55.6,33.3,55.5,33.3z"/> -->
<path class="st5" d="M56.3,33.4l1.4-0.7c0.3,0.1,0.5,0.3,0.6,0.6L57,34C56.8,33.7,56.5,33.5,56.3,33.4z"/> -->
<path class="st5" d="M57,34l1.3-0.8L70.5,49l-1.4,1L57,34z"/> -->
<path class="st5" d="M70.7,51l-1.4,0.7c0.5,0,0.4-1.2,0-2.1l1.4-0.7C71.1,50,71.2,50.8,70.7,51z"/> -->
<linearGradient id="SVGID_00000059295020726252234770000001669679376567091898_" gradientUnits="userSpaceOnUse" x1="62.2363" y1="1097.625" x2="62.2363" y2="1118.2404" gradientTransform="matrix(1 0 0 1 0 -1064.41)">
	<stop  offset="0" style="stop-color:#50E6FF"/> -->
	<stop  offset="1" style="stop-color:#32B0E7"/> -->
</linearGradient>
<path style="fill:url(#SVGID_00000059295020726252234770000001669679376567091898_);" d="M56.3,33.4c0.3,0.2,0.5,0.4,0.7,0.6
	l12.2,16c0.7,0.9,0.7,2.1,0,2.1l-12.5,2c-0.2,0.1-0.5,0.1-0.7,0c-0.3-0.2-0.6-0.5-0.8-0.8c-0.2-0.4-0.3-0.7-0.4-1.1V34
	C55.1,33.2,55.7,33,56.3,33.4z"/> -->
<linearGradient id="SVGID_00000160895791227284642990000001399717837461840807_" gradientUnits="userSpaceOnUse" x1="8.1841" y1="1128.0333" x2="25.8009" y2="1157.1448" gradientTransform="matrix(1 0 0 1 0 -1064.41)">
	<stop  offset="0" style="stop-color:#32B0E7"/> -->
	<stop  offset="1" style="stop-color:#156AB3"/> -->
</linearGradient>
<path style="fill:url(#SVGID_00000160895791227284642990000001399717837461840807_);" d="M31.8,76.4c-1-7.9-7.7-13.9-15.7-13.9
	c-3.9,0-7.6,1.4-10.6,3.9c-3,2.5-4.9,6-5.5,9.8C0,76.8,0,77.3,0,77.9c0.4,2.7,2.2,5.1,4.7,6.2c7.1,3.6,15.5,3.6,22.6,0
	c2.5-1.2,4.2-3.5,4.6-6.2C32,77.4,32,76.9,31.8,76.4z"/> -->
<linearGradient id="SVGID_00000050649146416235807230000012544785788465329336_" gradientUnits="userSpaceOnUse" x1="12.346" y1="1108.7345" x2="22.6537" y2="1127.7882" gradientTransform="matrix(1 0 0 1 0 -1064.41)">
	<stop  offset="0" style="stop-color:#32B0E7"/> -->
	<stop  offset="1" style="stop-color:#156AB3"/> -->
</linearGradient>
<path style="fill:url(#SVGID_00000050649146416235807230000012544785788465329336_);" d="M16,60.7c1.9,0,3.7-0.6,5.3-1.6
	c1.6-1,2.9-2.5,3.7-4.3c0.7-1.7,0.9-3.7,0.6-5.5c-0.4-1.8-1.3-3.5-2.6-4.9c-1.3-1.3-3-2.2-4.9-2.6c-1.9-0.3-3.8-0.1-5.6,0.6
	c-1.7,0.8-3.2,2-4.2,3.6c-1.2,1.5-1.9,3.3-2,5.2c0,1.3,0.3,2.5,0.7,3.7C7.6,56,8.2,57.1,9.1,58c0.9,0.9,2,1.6,3.1,2.1
	c1.2,0.4,2.4,0.7,3.7,0.7L16,60.7z"/> -->
</svg>
