<?xml version="1.0" encoding="UTF-8" standalone="no"?><svg xmlns="http://www.w3.org/2000/svg" xmlns:xlink="http://www.w3.org/1999/xlink" contentScriptType="application/ecmascript" contentStyleType="text/css" height="247px" preserveAspectRatio="none" style="width:265px;height:247px;" version="1.1" viewBox="0 0 265 247" width="265px" zoomAndPan="magnify"><defs/><g><!--MD5=[9bce44786166a533721cc3bc4b6e90b3]
entity ActivityLog--><rect fill="#FFFFFF" height="89.9688" style="stroke: #000000; stroke-width: 2.0;" width="85" x="57.5" y="8"/><svg x="76" y="18"><defs><style>.cls-1{fill:#005ba1;}.cls-1,.cls-2,.cls-3{fill-rule:evenodd;}.cls-2{fill:#fff;}.cls-3{fill:url(#linear-gradient);}</style><linearGradient id="linear-gradient" x1="-575.62" y1="12.96" x2="-574.62" y2="12.96" gradientTransform="translate(-526.8 -29530.09) rotate(-90) scale(51.4 42.28)" gradientUnits="userSpaceOnUse"><stop offset="0" stop-color="#1988d9"/><stop offset="0.9" stop-color="#54aef0"/></linearGradient></defs><g id="group3630-1"><g id="group3631-2"><g id="shape3632-3"><path class="cls-1" d="M.07,5.38,4.18.69A2.08,2.08,0,0,1,5.71,0H45.16a2.76,2.76,0,0,1,3,2.41V51a1.84,1.84,0,0,1-.68,1.43l-4.42,4H2.75L0,55.35Z"/></g><g id="shape3633-5"><path class="cls-2" d="M3.4,5.35,5.91,2.56A1.75,1.75,0,0,1,7.1,2h37a1.75,1.75,0,0,1,1.77,1.73h0V49.56a1.74,1.74,0,0,1-.58,1.3l-3.94,3.5Z"/></g><g id="shape3634-7"><path class="cls-3" d="M41.08,5.32H.3a.2.2,0,0,0-.2.2V55.45a1.32,1.32,0,0,0,1.33,1.27H41.08a1.27,1.27,0,0,0,1.3-1.24v0h0V6.61A1.32,1.32,0,0,0,41.08,5.32Z"/></g><g id="shape3635-11"><path class="cls-2" d="M9.55,26a1,1,0,0,0,.95.93H31A1,1,0,0,0,32,26V19.94A1,1,0,0,0,31,19H10.5a.93.93,0,0,0-.95.91V26Z"/></g></g></g></svg><text fill="#000000" font-family="Segoe UI" font-size="12" lengthAdjust="spacingAndGlyphs" textLength="65" x="67.5" y="85.1387">ActivityLog</text><!--MD5=[5b3a193a3a54d87cb7ba13f72d1f29c8]
entity Activity--><rect fill="#FFFFFF" height="89.9688" style="stroke: #000000; stroke-width: 2.0;" width="76" x="178" y="8"/><svg x="188" y="18"><defs><style>.cls-1{fill:#fff;}.cls-1,.cls-2,.cls-3,.cls-4,.cls-5{fill-rule:evenodd;}.cls-2{fill:#3999c6;}.cls-3{fill:#a0a1a2;}.cls-4{fill:#59b4d9;}.cls-5{fill:#7a7a7a;}</style></defs><g id="group3607-1"><g id="group3608-2"><g id="group3609-3"><g id="group3610-4"><g id="shape3611-5"><path class="cls-1" d="M26,4.88a23.62,23.62,0,0,0-15.91,8.56,23.24,23.24,0,0,0,3.51,32.93A23.8,23.8,0,0,0,46.89,42.9,23.12,23.12,0,0,0,52,25.72a23.58,23.58,0,0,0-23.46-21A24.09,24.09,0,0,0,26,4.88Z"/></g></g><g id="group3612-7"><g id="shape3613-8"><path class="cls-2" d="M56.52,25.22A28.28,28.28,0,0,0,45.94,6.1a27.82,27.82,0,0,0-3.53-2.36L40.17,8a22.65,22.65,0,0,1,2.71,1.84,23.4,23.4,0,0,1,8.81,15.87A23.15,23.15,0,0,1,46.56,42.9a23.76,23.76,0,0,1-28.17,6.57l-2.23,4.27a28.65,28.65,0,0,0,34.16-7.82A27.91,27.91,0,0,0,56.52,25.22Z"/></g></g><g id="group3614-10"><g id="shape3615-11"><path class="cls-3" d="M13.62,46.43a23.29,23.29,0,0,1-3.5-32.94A23.81,23.81,0,0,1,40.51,8.06l2.23-4.27A28.67,28.67,0,0,0,6.35,10.47h0a28,28,0,0,0,4.24,39.68,28.41,28.41,0,0,0,5.92,3.63l2.23-4.26A24,24,0,0,1,13.62,46.43Z"/></g></g><g id="group3616-13"><g id="shape3617-14"><path class="cls-4" d="M13.62,46.43a23.29,23.29,0,0,1-3.5-32.94A23.81,23.81,0,0,1,40.51,8.06l2.23-4.27A28.67,28.67,0,0,0,6.35,10.47h0a28,28,0,0,0,4.24,39.68,28.41,28.41,0,0,0,5.92,3.63l2.23-4.26A24,24,0,0,1,13.62,46.43Z"/></g></g><g id="group3618-16"><g id="shape3619-17"><path class="cls-5" d="M40.48,32.57,29.53,28.71a2.26,2.26,0,1,1,1.36-4.31.58.58,0,0,1,.17.06l11,3.86a2.25,2.25,0,0,1,1.5,2.82,2.3,2.3,0,0,1-2.86,1.49Z"/></g></g><g id="group3620-19"><g id="shape3621-20"><path class="cls-5" d="M28.28,28.29A2.27,2.27,0,0,1,26,26h0V6.82a2.28,2.28,0,0,1,4.56-.11V26a2.27,2.27,0,0,1-2.28,2.26Z"/></g></g><g id="group3622-22"><g id="shape3623-23"><ellipse cx="28.28" cy="26.04" rx="3.33" ry="3.3"/></g></g><g id="group3624-25"><g id="shape3625-26"><path class="cls-5" d="M14.51,10.38l2.86,2.84-.92.91-2.87-2.84ZM27.85,4.94h1.3V9h-1.3Zm14.51,5.57.93.91-2.87,2.84-.92-.91Zm2.18,14h4.05v1.3H44.54ZM40.23,35.86,43.1,38.7l-.92.91-2.87-2.84Z"/></g></g><g id="group3626-28"><g id="shape3627-29"><path class="cls-5" d="M40.23,35.85l2.87,2.84-.92.92-2.87-2.84ZM27.85,41h1.3v4h-1.3ZM14.51,10.38l2.86,2.84-.92.91L13.58,11.3ZM16.65,36l.92.91L14.7,39.72l-.92-.9Z"/></g></g><g id="group3628-31"><g id="shape3629-32"><path class="cls-5" d="M16.64,36l.92.91L14.7,39.73l-.93-.91ZM8.15,24.51h4.06V25.8H8.15Z"/></g></g></g></g></g></svg><text fill="#000000" font-family="Segoe UI" font-size="12" lengthAdjust="spacingAndGlyphs" textLength="43" x="194.5" y="85.1387">Activity</text><!--MD5=[a13c1f91e501c505ffa1441966ff952c]
entity AdaptiveApplicationControl--><rect fill="#FFFFFF" height="78.9688" style="stroke: #000000; stroke-width: 2.0;" width="188" x="6" y="158"/><svg x="73.5" y="168"><defs><style>.cls-1{fill:#c5c7c7;}.cls-1,.cls-2,.cls-3,.cls-4,.cls-5,.cls-6{fill-rule:evenodd;}.cls-2{fill:#f7fafa;}.cls-3{fill:#0072c6;}.cls-4{fill:#4e5d69;}.cls-5{fill:#fff;}.cls-6{fill:#98ce07;}</style></defs><g id="group3599-1"><g id="group3600-2"><g id="shape3601-3"><path class="cls-1" d="M6,0H40.9a5.85,5.85,0,0,1,5.66,6v26.8c0,.8-1.9,2.47-2.44,3s-1.71,2.58-2.5,2.58H3.08A2.93,2.93,0,0,1,0,35.6V6.05A5.84,5.84,0,0,1,5.71,0Z"/></g><g id="shape3602-5"><path class="cls-2" d="M9.38,3.51H37.51A5.65,5.65,0,0,1,43,9.32V32.15A2.82,2.82,0,0,1,40.19,35H6.59a2.83,2.83,0,0,1-3-2.67.81.81,0,0,1,0-.22V9.35A5.62,5.62,0,0,1,9.06,3.52Z"/></g><g id="shape3603-7"><path class="cls-3" d="M6,0H40.9A5.45,5.45,0,0,1,46.59,5.2a5.09,5.09,0,0,1,0,.78v4.49H0V6A5.38,5.38,0,0,1,4.87,0,5.53,5.53,0,0,1,6,0Z"/></g><g id="shape3604-9"><path class="cls-4" d="M17.93,22.34v1.05l-9.2,4.49-1.36-2,6.44-3.13L7.37,19.56l1.36-2,7.8,4,.86.45.54.28Z"/></g><g id="shape3605-11"><path class="cls-5" d="M33.4,24.39,19.56,43.18a6.05,6.05,0,0,1-4.37,2.2,7.9,7.9,0,0,1-4.18-2L2.42,36.74a6.17,6.17,0,0,1-1-8.85v0c3.58-4.42,6.94-1.74,9.7,0l3,2.16,8.56-12.12a6.06,6.06,0,0,1,8.07-2.44,7.16,7.16,0,0,1,.66.39A6.54,6.54,0,0,1,33.4,24.39Z"/></g><g id="shape3606-13"><path class="cls-6" d="M53.18,23,40.44,40.72a3.67,3.67,0,0,1-2.93,1,3.42,3.42,0,0,1-2.44-.8l-8.44-6.51a3.13,3.13,0,0,1-.36-4.49A3.65,3.65,0,0,1,31,29.65L37,34.21,48.06,18.79a3.65,3.65,0,0,1,4.76-.28A3.12,3.12,0,0,1,53.21,23Z"/></g></g></g></svg><text fill="#000000" font-family="Segoe UI" font-size="12" lengthAdjust="spacingAndGlyphs" textLength="168" x="16" y="224.1387">AdaptiveApplicationControl</text><!--MD5=[fa18d3c9a3316a932eb4e21e4d828173]
link ActivityLog to Activity--><!--MD5=[246bf9b644cb2f2a2b6b8125708954b6]
link ActivityLog to AdaptiveApplicationControl--><!--MD5=[b821a12466e9000b284276f244b687d0]
@startuml
!pragma revision 1

skinparam defaultTextAlignment center
skinparam defaultFontName Segoe UI

skinparam rectangle {
    FontSize 12
    BorderThickness 2
    Shadowing false
    BackgroundColor white
}

sprite $ActivityLog Activity-Log.svg
rectangle "ActivityLog" <<$ActivityLog>> as ActivityLog
sprite $Activity Activity.svg
rectangle "Activity" <<$Activity>> as Activity
sprite $AdaptiveApplicationControl Adaptive-Application-Control.svg
rectangle "AdaptiveApplicationControl" <<$AdaptiveApplicationControl>> as AdaptiveApplicationControl
sprite $AdaptiveNetworkHardening Adaptive-Network-Hardening.svg
@enduml

PlantUML version 1.2020.02(Sun Mar 01 10:22:07 GMT 2020)
(GPL source distribution)
Java Runtime: OpenJDK Runtime Environment
JVM: OpenJDK 64-Bit Server VM
Java Version: 11.0.9+11-Ubuntu-0ubuntu1
Operating System: Linux
Default Encoding: ANSI_X3.4-1968
Language: en
Country: US
--></g></svg>