<svg id="Layer_1" data-name="Layer 1" xmlns="http://www.w3.org/2000/svg" width="56.68" height="56.38" viewBox="0 0 56.68 56.38"><defs><style>.cls-1{fill:#fff;}.cls-1,.cls-2,.cls-3,.cls-4,.cls-5{fill-rule:evenodd;}.cls-2{fill:#3999c6;}.cls-3{fill:#a0a1a2;}.cls-4{fill:#59b4d9;}.cls-5{fill:#7a7a7a;}</style></defs><g id="group3607-1"><g id="group3608-2"><g id="group3609-3"><g id="group3610-4"><g id="shape3611-5"><path class="cls-1" d="M26,4.88a23.62,23.62,0,0,0-15.91,8.56,23.24,23.24,0,0,0,3.51,32.93A23.8,23.8,0,0,0,46.89,42.9,23.12,23.12,0,0,0,52,25.72a23.58,23.58,0,0,0-23.46-21A24.09,24.09,0,0,0,26,4.88Z"/></g></g><g id="group3612-7"><g id="shape3613-8"><path class="cls-2" d="M56.52,25.22A28.28,28.28,0,0,0,45.94,6.1a27.82,27.82,0,0,0-3.53-2.36L40.17,8a22.65,22.65,0,0,1,2.71,1.84,23.4,23.4,0,0,1,8.81,15.87A23.15,23.15,0,0,1,46.56,42.9a23.76,23.76,0,0,1-28.17,6.57l-2.23,4.27a28.65,28.65,0,0,0,34.16-7.82A27.91,27.91,0,0,0,56.52,25.22Z"/></g></g><g id="group3614-10"><g id="shape3615-11"><path class="cls-3" d="M13.62,46.43a23.29,23.29,0,0,1-3.5-32.94A23.81,23.81,0,0,1,40.51,8.06l2.23-4.27A28.67,28.67,0,0,0,6.35,10.47h0a28,28,0,0,0,4.24,39.68,28.41,28.41,0,0,0,5.92,3.63l2.23-4.26A24,24,0,0,1,13.62,46.43Z"/></g></g><g id="group3616-13"><g id="shape3617-14"><path class="cls-4" d="M13.62,46.43a23.29,23.29,0,0,1-3.5-32.94A23.81,23.81,0,0,1,40.51,8.06l2.23-4.27A28.67,28.67,0,0,0,6.35,10.47h0a28,28,0,0,0,4.24,39.68,28.41,28.41,0,0,0,5.92,3.63l2.23-4.26A24,24,0,0,1,13.62,46.43Z"/></g></g><g id="group3618-16"><g id="shape3619-17"><path class="cls-5" d="M40.48,32.57,29.53,28.71a2.26,2.26,0,1,1,1.36-4.31.58.58,0,0,1,.17.06l11,3.86a2.25,2.25,0,0,1,1.5,2.82,2.3,2.3,0,0,1-2.86,1.49Z"/></g></g><g id="group3620-19"><g id="shape3621-20"><path class="cls-5" d="M28.28,28.29A2.27,2.27,0,0,1,26,26h0V6.82a2.28,2.28,0,0,1,4.56-.11V26a2.27,2.27,0,0,1-2.28,2.26Z"/></g></g><g id="group3622-22"><g id="shape3623-23"><ellipse cx="28.28" cy="26.04" rx="3.33" ry="3.3"/></g></g><g id="group3624-25"><g id="shape3625-26"><path class="cls-5" d="M14.51,10.38l2.86,2.84-.92.91-2.87-2.84ZM27.85,4.94h1.3V9h-1.3Zm14.51,5.57.93.91-2.87,2.84-.92-.91Zm2.18,14h4.05v1.3H44.54ZM40.23,35.86,43.1,38.7l-.92.91-2.87-2.84Z"/></g></g><g id="group3626-28"><g id="shape3627-29"><path class="cls-5" d="M40.23,35.85l2.87,2.84-.92.92-2.87-2.84ZM27.85,41h1.3v4h-1.3ZM14.51,10.38l2.86,2.84-.92.91L13.58,11.3ZM16.65,36l.92.91L14.7,39.72l-.92-.9Z"/></g></g><g id="group3628-31"><g id="shape3629-32"><path class="cls-5" d="M16.64,36l.92.91L14.7,39.73l-.93-.91ZM8.15,24.51h4.06V25.8H8.15Z"/></g></g></g></g></g></svg>