<svg id="Layer_1" data-name="Layer 1" xmlns="http://www.w3.org/2000/svg" xmlns:xlink="http://www.w3.org/1999/xlink" width="48.16" height="56.72" viewBox="0 0 48.16 56.72"><defs><style>.cls-1{fill:#005ba1;}.cls-1,.cls-2,.cls-3{fill-rule:evenodd;}.cls-2{fill:#fff;}.cls-3{fill:url(#linear-gradient);}</style><linearGradient id="linear-gradient" x1="-575.62" y1="12.96" x2="-574.62" y2="12.96" gradientTransform="translate(-526.8 -29530.09) rotate(-90) scale(51.4 42.28)" gradientUnits="userSpaceOnUse"><stop offset="0" stop-color="#1988d9"/><stop offset="0.9" stop-color="#54aef0"/></linearGradient></defs><g id="group3630-1"><g id="group3631-2"><g id="shape3632-3"><path class="cls-1" d="M.07,5.38,4.18.69A2.08,2.08,0,0,1,5.71,0H45.16a2.76,2.76,0,0,1,3,2.41V51a1.84,1.84,0,0,1-.68,1.43l-4.42,4H2.75L0,55.35Z"/></g><g id="shape3633-5"><path class="cls-2" d="M3.4,5.35,5.91,2.56A1.75,1.75,0,0,1,7.1,2h37a1.75,1.75,0,0,1,1.77,1.73h0V49.56a1.74,1.74,0,0,1-.58,1.3l-3.94,3.5Z"/></g><g id="shape3634-7"><path class="cls-3" d="M41.08,5.32H.3a.2.2,0,0,0-.2.2V55.45a1.32,1.32,0,0,0,1.33,1.27H41.08a1.27,1.27,0,0,0,1.3-1.24v0h0V6.61A1.32,1.32,0,0,0,41.08,5.32Z"/></g><g id="shape3635-11"><path class="cls-2" d="M9.55,26a1,1,0,0,0,.95.93H31A1,1,0,0,0,32,26V19.94A1,1,0,0,0,31,19H10.5a.93.93,0,0,0-.95.91V26Z"/></g></g></g></svg>