<svg id="Layer_1" data-name="Layer 1" xmlns="http://www.w3.org/2000/svg" width="53.97" height="45.38" viewBox="0 0 53.97 45.38"><defs><style>.cls-1{fill:#c5c7c7;}.cls-1,.cls-2,.cls-3,.cls-4,.cls-5,.cls-6{fill-rule:evenodd;}.cls-2{fill:#f7fafa;}.cls-3{fill:#0072c6;}.cls-4{fill:#4e5d69;}.cls-5{fill:#fff;}.cls-6{fill:#98ce07;}</style></defs><g id="group3599-1"><g id="group3600-2"><g id="shape3601-3"><path class="cls-1" d="M6,0H40.9a5.85,5.85,0,0,1,5.66,6v26.8c0,.8-1.9,2.47-2.44,3s-1.71,2.58-2.5,2.58H3.08A2.93,2.93,0,0,1,0,35.6V6.05A5.84,5.84,0,0,1,5.71,0Z"/></g><g id="shape3602-5"><path class="cls-2" d="M9.38,3.51H37.51A5.65,5.65,0,0,1,43,9.32V32.15A2.82,2.82,0,0,1,40.19,35H6.59a2.83,2.83,0,0,1-3-2.67.81.81,0,0,1,0-.22V9.35A5.62,5.62,0,0,1,9.06,3.52Z"/></g><g id="shape3603-7"><path class="cls-3" d="M6,0H40.9A5.45,5.45,0,0,1,46.59,5.2a5.09,5.09,0,0,1,0,.78v4.49H0V6A5.38,5.38,0,0,1,4.87,0,5.53,5.53,0,0,1,6,0Z"/></g><g id="shape3604-9"><path class="cls-4" d="M17.93,22.34v1.05l-9.2,4.49-1.36-2,6.44-3.13L7.37,19.56l1.36-2,7.8,4,.86.45.54.28Z"/></g><g id="shape3605-11"><path class="cls-5" d="M33.4,24.39,19.56,43.18a6.05,6.05,0,0,1-4.37,2.2,7.9,7.9,0,0,1-4.18-2L2.42,36.74a6.17,6.17,0,0,1-1-8.85v0c3.58-4.42,6.94-1.74,9.7,0l3,2.16,8.56-12.12a6.06,6.06,0,0,1,8.07-2.44,7.16,7.16,0,0,1,.66.39A6.54,6.54,0,0,1,33.4,24.39Z"/></g><g id="shape3606-13"><path class="cls-6" d="M53.18,23,40.44,40.72a3.67,3.67,0,0,1-2.93,1,3.42,3.42,0,0,1-2.44-.8l-8.44-6.51a3.13,3.13,0,0,1-.36-4.49A3.65,3.65,0,0,1,31,29.65L37,34.21,48.06,18.79a3.65,3.65,0,0,1,4.76-.28A3.12,3.12,0,0,1,53.21,23Z"/></g></g></g></svg>