<svg id="Layer_1" data-name="Layer 1" xmlns="http://www.w3.org/2000/svg" width="56.06" height="55.63" viewBox="0 0 56.06 55.63"><defs><style>.cls-1{fill:#c7e4f0;}.cls-1,.cls-2,.cls-3,.cls-4,.cls-5,.cls-6,.cls-7{fill-rule:evenodd;}.cls-2{fill:#59b4d9;}.cls-3{fill:#b8d432;}.cls-4{fill:#57a300;}.cls-5{fill:#fff;fill-opacity:0.25;}.cls-6{fill:#429ec9;}.cls-7{fill:#74b7d7;}</style></defs><g id="group3590-1"><g id="group3591-2"><g id="shape3592-3"><path class="cls-1" d="M20.61,54.4,31.3,34l.46-12.42v-.46H40v-9.5a1.22,1.22,0,0,0-1.21-1.22h-.34a13.72,13.72,0,0,1-2.48.15,15.8,15.8,0,0,1-14.4-9.2,1.33,1.33,0,0,0-1.08-.3H20.3a4.86,4.86,0,0,0-1.08.3A16.14,16.14,0,0,1,4.66,10.43a11.37,11.37,0,0,1-2.32-.16H2A1.13,1.13,0,0,0,.79,11.5V35.25A8.66,8.66,0,0,0,1.87,39.7l.31.15A35.12,35.12,0,0,0,19.06,54a9.54,9.54,0,0,1,1.55.46Z"/></g><g id="shape3593-5"><path class="cls-2" d="M55.61,52.11,46.16,35v-6.9h.16a2.15,2.15,0,0,0,0-4.29H35.94a2.15,2.15,0,0,0,0,4.29h.16V35L26.49,52.11c-1.08,1.84-.15,3.37,1.86,3.37H53.6c2.16,0,3.09-1.53,2-3.37Z"/></g><g id="shape3594-7"><path class="cls-3" d="M34.39,44.75l-3.87,7H51.74l-4-7Z"/></g><g id="shape3595-9"><path class="cls-4" d="M41.52,47.5a1.9,1.9,0,0,0,1.85-2,2,2,0,0,0-.15-.92H39.81a2,2,0,0,0-.15.92,1.91,1.91,0,0,0,1.86,2ZM44.92,49a.93.93,0,0,1-1.86,0h0a.93.93,0,0,1,1.86,0Z"/></g><g id="shape3596-11"><path class="cls-5" d="M.93,52.11l9.45-17.17V28.05h-.16a2.15,2.15,0,0,1,0-4.29h4.49V34.94l-5,20.69H2.94C.77,55.48,0,53.94.93,52.1Z"/></g><g id="shape3597-13"><path class="cls-6" d="M20.45,55.62,22,52.87s-.46.15-1.08.3l-.93-.3A32.23,32.23,0,0,1,3.73,39.23l-.16-.15a7.65,7.65,0,0,1-.93-3.68V11.65H2.8a12.86,12.86,0,0,0,2.32.15A17.57,17.57,0,0,0,20.61,2.45h.46A17,17,0,0,0,36.4,12a13.72,13.72,0,0,0,2.48-.15h.31V22.22h2.48V11.8a2.43,2.43,0,0,0-2.41-2.45h-.54a10.47,10.47,0,0,1-2.17.15A14.91,14.91,0,0,1,23.23,1.08L22.92.77A2.55,2.55,0,0,0,21.06,0h-.31a2.87,2.87,0,0,0-1.24.31L18.43,1.38A15.08,15.08,0,0,1,5.11,9.5a10.62,10.62,0,0,1-2.17-.15H2.48A2.43,2.43,0,0,0,0,11.73V35.55a11.55,11.55,0,0,0,1.24,5.06l.15.31A35.14,35.14,0,0,0,18.9,55.32c.31-.31,1.08,0,1.54.31Z"/></g><g id="shape3598-15"><path class="cls-7" d="M2.33,28.05v6a9.65,9.65,0,0,0,.93,4.29l.15.16A31.13,31.13,0,0,0,18.9,51.34a6.61,6.61,0,0,1,1.24.46V28.05Zm29.43-6.59V21h7.43l.16-9v-.31c0-.77-.31-1.53-1.09-1.53H37.8a15.59,15.59,0,0,1-2.64.15C29,10.27,24,6.59,21.07.47a1,1,0,0,0-.62.15V28.35H31.76V21.46Z"/></g></g></g></svg>