<svg id="Layer_1" data-name="Layer 1" xmlns="http://www.w3.org/2000/svg" width="47.78" height="56.69" viewBox="0 0 47.78 56.69"><defs><style>.cls-1{fill:#59b4d9;fill-rule:evenodd;}</style></defs><g id="group3570-1"><g id="group3571-2"><g id="group3572-3"><g id="group3573-4"><g id="group3574-5"><g id="group3575-6"><g id="shape3576-7"><path class="cls-1" d="M47.47,54.46,30.87,28.32a1.44,1.44,0,0,0-2.62,0L11.66,54.46c-.73,1.11-.15,1.93,1.31,1.93H46.15C47.61,56.54,48.19,55.57,47.47,54.46Zm-8.15-.55H32V49.77H35V47H24.76v2.77h2.91v4.14H20.4V49.77h2.92V45.63h5.8V42.85H26.2V38.72h7.28v4.13H30.56v2.78h5.82v4.14H39.3v4.14Z"/></g></g><g id="group3577-9"><g id="shape3578-10"><path class="cls-1" d="M26.21,0H2.92A2.85,2.85,0,0,0,0,2.76V56.69H8.15a3,3,0,0,1,.58-1.81l2.32-3.74H4.34V48.38h8.45l1.75-2.78H4.34V42.83h12L26.63,26.51a3.4,3.4,0,0,1,2.47-1.65V2.62A2.79,2.79,0,0,0,26.21,0ZM24.75,11.05H4.38V8.27H24.75Z"/></g></g></g></g></g></g></g></svg>