<svg id="Layer_1" data-name="Layer 1" xmlns="http://www.w3.org/2000/svg" width="45.07" height="56.47" viewBox="0 0 45.07 56.47"><defs><style>.cls-1{fill:#59b4d9;fill-rule:evenodd;}</style></defs><g id="group3579-1"><g id="group3580-2"><g id="group3581-3"><g id="group3582-4"><g id="shape3583-5"><path class="cls-1" d="M20.62,50.48H5.41V48.13H20.75v-4.7H5.41V41.09H20.49l-5.15-5.48,8-8.47h4.24V24.8H22a3.23,3.23,0,0,1-2.84-5.08L27.44,4.47a3.06,3.06,0,0,0-2.82-2.09H3.1A3.15,3.15,0,0,0,0,5.51v51H27.44V50.34H20.62ZM5.41,9.42H22.16v2.35H5.41Z"/></g></g><g id="group3584-7"><g id="shape3585-8"><path class="cls-1" d="M23.59,34.18l4.5-4.56H24.35l-5.92,6.12,5.92,6.13h3.74l-4.5-4.56H37.5V34.18H23.59Z"/></g></g><g id="group3586-10"><g id="shape3587-11"><path class="cls-1" d="M35.83,40.44H32L36.47,45H22.94v3.13H36.47L32,52.69h3.87l5.79-6.13Z"/></g></g><g id="group3588-13"><g id="shape3589-14"><path class="cls-1" d="M33.89.68c-.51-.91-1.28-.91-1.8,0L21.14,21c-.52.92-.13,1.57.9,1.57H44c1,0,1.41-.65.9-1.57ZM33,6a2.27,2.27,0,0,1,2.19,2.21,2.19,2.19,0,1,1-4.38,0A2.18,2.18,0,0,1,33,6Zm4.51,9.38a2.51,2.51,0,0,0-1.16.52l-2.7-5.08a1.85,1.85,0,0,0,1-.65Zm-6.44-5.08a2.92,2.92,0,0,0,1,.65l-2.71,5.08a1.62,1.62,0,0,0-1.16-.51Zm-3.23,10A2.22,2.22,0,1,1,30,18.15,2.27,2.27,0,0,1,27.83,20.37Zm7.48-1.57H30.54a1.17,1.17,0,0,0,.13-.65,1.17,1.17,0,0,0-.13-.65h4.77a1.17,1.17,0,0,0-.13.65A1,1,0,0,0,35.31,18.8ZM38,20.37a2.22,2.22,0,1,1,2.19-2.22A2.27,2.27,0,0,1,38,20.37Z"/></g></g></g></g></g></svg>