<svg id="Layer_1" data-name="Layer 1" xmlns="http://www.w3.org/2000/svg" xmlns:xlink="http://www.w3.org/1999/xlink" width="56.69" height="53.9" viewBox="0 0 56.69 53.9"><defs><style>.cls-1,.cls-2,.cls-3,.cls-4{fill-rule:evenodd;}.cls-1{fill:url(#linear-gradient);}.cls-2{fill:#37c2b1;}.cls-3{fill:#42e8ca;}.cls-4{fill:#005ba1;}.cls-5{fill:#ffca00;}</style><linearGradient id="linear-gradient" x1="-268.75" y1="427.79" x2="-267.75" y2="427.79" gradientTransform="matrix(0, 40.5, 56.69, 0, -24222.83, 10884.4)" gradientUnits="userSpaceOnUse"><stop offset="0.22" stop-color="#32d4f5"/><stop offset="0.43" stop-color="#31d1f2"/><stop offset="0.6" stop-color="#2dc6e9"/><stop offset="0.76" stop-color="#28b5d9"/><stop offset="0.91" stop-color="#1f9dc4"/><stop offset="1" stop-color="#198ab3"/></linearGradient></defs><g id="group3563-1"><g id="group3564-2"><g id="shape3565-3"><path class="cls-1" d="M56.69,27.81A12.73,12.73,0,0,0,45.63,15.49,16.08,16.08,0,0,0,29.15,0,16.66,16.66,0,0,0,13.32,10.84,15.16,15.16,0,0,0,0,25.54,15.44,15.44,0,0,0,15.94,40.47h0a8.07,8.07,0,0,0,1.39,0H43.17a1.89,1.89,0,0,0,.67,0A12.92,12.92,0,0,0,56.69,27.81Z"/></g><g id="shape3566-7"><path class="cls-2" d="M46.8,46.6l-6.66,7a.88.88,0,0,1-1.22,0,.86.86,0,0,1-.24-.46l-4-19.44A.86.86,0,0,1,35,33l4.4-1.78a.86.86,0,0,1,1.1.43L47,45.78a.78.78,0,0,1-.23.82Z"/></g><g id="shape3567-9"><path class="cls-3" d="M25.05,46.6l6.66,7a.88.88,0,0,0,1.22,0,.86.86,0,0,0,.24-.46l4-19.44a.85.85,0,0,0-.5-.92l-4.4-1.78a.86.86,0,0,0-1.1.43L24.72,45.64a.77.77,0,0,0,.33,1Z"/></g><g id="shape3568-11"><path class="cls-4" d="M37,16.48l.86-.73a1.39,1.39,0,0,1,1.9.17,1.29,1.29,0,0,1,.23.39l.4,1.06a1.38,1.38,0,0,0,1.5.85L43,18a1.37,1.37,0,0,1,1.57,1.09,1.19,1.19,0,0,1,0,.46l-.2,1.09a1.37,1.37,0,0,0,.86,1.48l1.07.37a1.39,1.39,0,0,1,.8,1.74,2.65,2.65,0,0,1-.24.4l-.73.82a1.36,1.36,0,0,0,0,1.72l.73.85a1.32,1.32,0,0,1-.17,1.86l0,0a1.16,1.16,0,0,1-.36.23l-1.07.4A1.31,1.31,0,0,0,44.34,32l.2,1.09a1.28,1.28,0,0,1-1,1.5h-.06a.94.94,0,0,1-.47,0h-1.1a1.35,1.35,0,0,0-1.5.86l-.4,1a1.33,1.33,0,0,1-1.7.8h0a1.07,1.07,0,0,1-.4-.23L37,36.25a1.35,1.35,0,0,0-1.73,0l-.87.69a1.34,1.34,0,0,1-1.88-.14l0,0a.68.68,0,0,1-.23-.39l-.4-1a1.31,1.31,0,0,0-1.5-.86l-1.1.2a1.35,1.35,0,0,1-1.57-1.11h0a1,1,0,0,1,0-.42l.2-1.1a1.32,1.32,0,0,0-.86-1.48l-1-.4a1.38,1.38,0,0,1-1-1.64,2.3,2.3,0,0,1,.23-.4l.74-.86a1.37,1.37,0,0,0,0-1.71l-.74-.82a1.33,1.33,0,0,1,.19-1.9h0a.75.75,0,0,1,.4-.19l1-.41a1.37,1.37,0,0,0,.86-1.48l-.07-1a1.36,1.36,0,0,1,1.1-1.55h.47l1.1.2a1.36,1.36,0,0,0,1.5-.86l.4-1.08a1.38,1.38,0,0,1,1.73-.8l.4.24.87.72A1.37,1.37,0,0,0,37,16.48Z"/></g><g id="shape3569-13"><ellipse class="cls-5" cx="36.14" cy="26.43" rx="7.86" ry="7.78"/></g></g></g></svg>