<svg id="Layer_1" data-name="Layer 1" xmlns="http://www.w3.org/2000/svg" xmlns:xlink="http://www.w3.org/1999/xlink" width="56.69" height="48.3" viewBox="0 0 56.69 48.3"><defs><style>.cls-1,.cls-2{fill-rule:evenodd;}.cls-1{fill:url(#linear-gradient);}.cls-2{fill:#fff;}</style><linearGradient id="linear-gradient" x1="-283.98" y1="416.22" x2="-282.98" y2="416.22" gradientTransform="matrix(0, -48.3, -56.69, 0, 23623.98, -13667.7)" gradientUnits="userSpaceOnUse"><stop offset="0" stop-color="#5e9624"/><stop offset="0.18" stop-color="#629c25"/><stop offset="0.44" stop-color="#6dae2a"/><stop offset="0.73" stop-color="#7fcb30"/><stop offset="0.82" stop-color="#86d633"/></linearGradient></defs><g id="group3558-1"><g id="group3559-2"><g id="shape3560-3"><path class="cls-1" d="M56.69,2V38.9a2,2,0,0,1-1.93,2H39.69a.51.51,0,0,0-.5.48v6a1,1,0,0,1-.91,1,.86.86,0,0,1-.59-.2L28.61,41H1.93A2,2,0,0,1,0,39V2A2,2,0,0,1,1.9,0H54.76a2,2,0,0,1,1.93,2Z"/></g><g id="shape3561-7"><path class="cls-2" d="M30.14,26.3H26.27A1.22,1.22,0,0,1,25,25.15l-.67-20A1.18,1.18,0,0,1,25.48,4h5.7a1.18,1.18,0,0,1,1.17,1.2.13.13,0,0,1,0,.06l-1,20A1.17,1.17,0,0,1,30.14,26.3Z"/></g><g id="shape3562-9"><path class="cls-2" d="M25.45,33.36a2.06,2.06,0,0,0,2,2.07h1.57a2.07,2.07,0,0,0,2-2.07V31.75a2.06,2.06,0,0,0-2-2.07H27.48a2,2,0,0,0-2,2.07Z"/></g></g></g></svg>