<svg id="Layer_1" data-name="Layer 1" xmlns="http://www.w3.org/2000/svg" xmlns:xlink="http://www.w3.org/1999/xlink" width="56.69" height="56.69" viewBox="0 0 56.69 56.69"><defs><style>.cls-1{fill-rule:evenodd;fill:url(#linear-gradient);}</style><linearGradient id="linear-gradient" x1="-282.87" y1="420.21" x2="-281.87" y2="420.21" gradientTransform="matrix(0, -56.69, -56.69, 0, 23850.25, -15979.44)" gradientUnits="userSpaceOnUse"><stop offset="0" stop-color="#5e9624"/><stop offset="0.01" stop-color="#5e9724"/><stop offset="0.35" stop-color="#6cab29"/><stop offset="0.68" stop-color="#73b82c"/><stop offset="1" stop-color="#76bc2d"/></linearGradient></defs><g id="group3556-1"><g id="shape3557-2"><path class="cls-1" d="M19.84,39.69h17v17h-17ZM0,17H17V0H2.37A2.37,2.37,0,0,0,0,2.37ZM2.37,56.69H17v-17H0V54.32A2.37,2.37,0,0,0,2.37,56.69ZM0,36.85H17v-17H0ZM39.69,56.69H54.35a2.37,2.37,0,0,0,2.34-2.37V39.69h-17ZM19.84,36.85h17v-17h-17Zm19.85,0h17v-17h-17ZM39.69,0V17h17V2.37A2.37,2.37,0,0,0,54.35,0ZM19.84,17h17V0h-17Z"/></g></g></svg>