<svg id="Layer_1" data-name="Layer 1" xmlns="http://www.w3.org/2000/svg" xmlns:xlink="http://www.w3.org/1999/xlink" width="56.7" height="37.38" viewBox="0 0 56.7 37.38"><defs><style>.cls-1,.cls-2,.cls-3,.cls-4{fill-rule:evenodd;}.cls-1{fill:url(#linear-gradient);}.cls-2{fill:url(#linear-gradient-2);}.cls-3{fill:url(#linear-gradient-3);}.cls-4{fill:#773adc;}.cls-5{fill:#fff;}</style><linearGradient id="linear-gradient" x1="-257.47" y1="422.89" x2="-256.47" y2="422.89" gradientTransform="matrix(0, 17.41, 23.08, 0, -9750.37, 4502.48)" gradientUnits="userSpaceOnUse"><stop offset="0" stop-color="#32d4f5"/><stop offset="1" stop-color="#198ab3"/></linearGradient><linearGradient id="linear-gradient-2" x1="-257.47" y1="422.89" x2="-256.47" y2="422.89" gradientTransform="matrix(0, 17.41, 23.08, 0, -9716.75, 4487.4)" xlink:href="#linear-gradient"/><linearGradient id="linear-gradient-3" x1="-257.47" y1="422.89" x2="-256.47" y2="422.89" gradientTransform="matrix(0, 17.41, 23.08, 0, -9748.81, 4502.48)" xlink:href="#linear-gradient"/></defs><g id="group3547-1"><g id="group3548-2"><g id="shape3549-3"><path class="cls-1" d="M0,36.46a.93.93,0,0,0,.94.92h21.2a.93.93,0,0,0,.94-.91V20.89a.92.92,0,0,0-.93-.91H.93a.93.93,0,0,0-.93.92Z"/></g><g id="shape3550-7"><path class="cls-2" d="M33.62,21.38a.93.93,0,0,0,.93.92H55.76a.92.92,0,0,0,.93-.91V5.81a.92.92,0,0,0-.93-.91H34.55a.92.92,0,0,0-.93.92Z"/></g><g id="shape3551-10"><path class="cls-3" d="M0,36a1.39,1.39,0,0,0,1.4,1.38H21.68A1.38,1.38,0,0,0,23.08,36h0V21.35A1.38,1.38,0,0,0,21.69,20H1.4A1.39,1.39,0,0,0,0,21.35H0Z"/></g><g id="shape3552-13"><path class="cls-4" d="M42.19,15.84l.77-2.1L14.42,3.42l-.77,2.06ZM44,15.55l-1.06-2L16,27.51l1,2ZM15,30.43,17.25,30,12.71,4.76l-2.23.39Z"/></g><g id="shape3553-15"><ellipse class="cls-5" cx="45.14" cy="13.59" rx="3.6" ry="3.54" transform="matrix(0.84, -0.54, 0.54, 0.84, -0.25, 26.31)"/></g><g id="shape3554-17"><ellipse class="cls-5" cx="11.56" cy="3.56" rx="3.6" ry="3.54" transform="translate(-0.11 6.75) rotate(-32.41)"/></g><g id="shape3555-19"><ellipse class="cls-5" cx="15.99" cy="28.65" rx="3.6" ry="3.54" transform="translate(-12.87 13.03) rotate(-32.41)"/></g></g></g></svg>