<svg id="Layer_1" data-name="Layer 1" xmlns="http://www.w3.org/2000/svg" xmlns:xlink="http://www.w3.org/1999/xlink" width="56.69" height="51.04" viewBox="0 0 56.69 51.04"><defs><style>.cls-1,.cls-2{fill-rule:evenodd;}.cls-1{fill:url(#linear-gradient);}.cls-2{fill:url(#linear-gradient-2);}</style><linearGradient id="linear-gradient" x1="-283.56" y1="418.21" x2="-282.56" y2="418.21" gradientTransform="matrix(0, -51.04, -56.69, 0, 23736.86, -14422.1)" gradientUnits="userSpaceOnUse"><stop offset="0" stop-color="#198ab3"/><stop offset="0.09" stop-color="#1f9dc4"/><stop offset="0.24" stop-color="#28b5d9"/><stop offset="0.4" stop-color="#2dc6e9"/><stop offset="0.57" stop-color="#31d1f2"/><stop offset="0.78" stop-color="#32d4f5"/></linearGradient><linearGradient id="linear-gradient-2" x1="-244.06" y1="445.87" x2="-243.06" y2="445.87" gradientTransform="matrix(0, 10.17, 10.4, 0, -4610.79, 2515.25)" gradientUnits="userSpaceOnUse"><stop offset="0" stop-color="#c69aeb"/><stop offset="1" stop-color="#6f4bb2"/></linearGradient></defs><g id="group3537-1"><g id="group3538-2"><g id="shape3539-3"><path class="cls-1" d="M45.62,15.36A16,16,0,0,0,29.11,0,16.67,16.67,0,0,0,13.27,10.73,15.15,15.15,0,0,0,0,25.5,15.42,15.42,0,0,0,16,40.17a8.18,8.18,0,0,0,1.4,0h4a4.62,4.62,0,0,1,.3-4.21H16A11.28,11.28,0,0,1,4.24,25.5a11,11,0,0,1,9.7-10.67l2.53-.39.84-2.38a12.44,12.44,0,0,1,11.8-7.92A11.9,11.9,0,0,1,41.39,15.39V19l3.63.49a8.53,8.53,0,0,1,7.54,8.12,8.67,8.67,0,0,1-8.74,8.28h-4.1A13,13,0,0,0,26.81,25.5a2.14,2.14,0,0,0-2.39,1.81,2.1,2.1,0,0,0,1.85,2.33,1.63,1.63,0,0,0,.54,0,8.63,8.63,0,0,1,0,17.24,2.14,2.14,0,0,0-2.39,1.81A2.1,2.1,0,0,0,26.27,51a1.63,1.63,0,0,0,.54,0A13,13,0,0,0,39.72,40.13h3.5a1.89,1.89,0,0,0,.67,0,12.89,12.89,0,0,0,12.8-12.55A12.7,12.7,0,0,0,45.62,15.36Z"/></g><g id="shape3540-7"><path class="cls-2" d="M21,38.31a5.08,5.08,0,0,0,5.14,5h.13a5.08,5.08,0,0,0,5.13-5v-.13a5.08,5.08,0,0,0-5.13-5h-.13a5.08,5.08,0,0,0-5.14,5h0Z"/></g></g></g></svg>