<svg id="Layer_1" data-name="Layer 1" xmlns="http://www.w3.org/2000/svg" xmlns:xlink="http://www.w3.org/1999/xlink" width="56.73" height="56.69" viewBox="0 0 56.73 56.69"><defs><style>.cls-1,.cls-2,.cls-3{fill-rule:evenodd;}.cls-1{fill:url(#linear-gradient);}.cls-2{fill:url(#linear-gradient-2);}.cls-3{fill:url(#linear-gradient-3);}.cls-4{fill:none;}</style><linearGradient id="linear-gradient" x1="-289.43" y1="418.13" x2="-288.43" y2="418.13" gradientTransform="matrix(0, -26.8, -38.13, 0, 15979.37, -7709.35)" gradientUnits="userSpaceOnUse"><stop offset="0" stop-color="#5e9624"/><stop offset="0.01" stop-color="#5e9724"/><stop offset="0.35" stop-color="#6cab29"/><stop offset="0.68" stop-color="#73b82c"/><stop offset="1" stop-color="#76bc2d"/></linearGradient><linearGradient id="linear-gradient-2" x1="-289.43" y1="418.13" x2="-288.43" y2="418.13" gradientTransform="matrix(0, -26.8, -38.13, 0, 15960.99, -7720.34)" gradientUnits="userSpaceOnUse"><stop offset="0" stop-color="#0078d4"/><stop offset="0.82" stop-color="#5ea0ef"/></linearGradient><linearGradient id="linear-gradient-3" x1="-252.91" y1="445.5" x2="-251.91" y2="445.5" gradientTransform="matrix(-7.34, 10.47, 19.95, 3.85, -10714.55, 957.96)" gradientUnits="userSpaceOnUse"><stop offset="0" stop-color="#005ba1"/><stop offset="0.14" stop-color="#035da3"/><stop offset="0.3" stop-color="#0b63aa"/><stop offset="0.47" stop-color="#196eb6"/><stop offset="0.65" stop-color="#2d7cc6"/><stop offset="0.84" stop-color="#468edb"/><stop offset="1" stop-color="#5ea0ef"/></linearGradient></defs><g id="group3541-1"><g id="group3542-2"><g id="shape3543-3"><path class="cls-1" d="M44.68,20.44H30.41a12.6,12.6,0,0,0-11.81,11h4.47a7.85,7.85,0,0,1,7.34-6.29H44.68a8.16,8.16,0,0,1,7.68,8.53,8.19,8.19,0,0,1-7.68,8.57H30.41A7.85,7.85,0,0,1,23.07,36H18.6A12.59,12.59,0,0,0,30.41,47.24H44.68a12.79,12.79,0,0,0,12-13.41A12.79,12.79,0,0,0,44.68,20.44Z"/></g><g id="shape3544-7"><path class="cls-2" d="M26.32,31.5H12.05a8.16,8.16,0,0,1-7.68-8.61v0a8.18,8.18,0,0,1,7.68-8.57H26.32a7.85,7.85,0,0,1,7.34,6.3h4.47A12.6,12.6,0,0,0,26.32,9.45H12.05A12.79,12.79,0,0,0,0,22.87a12.79,12.79,0,0,0,12,13.38H26.32a12.6,12.6,0,0,0,11.81-11H33.66A7.85,7.85,0,0,1,26.32,31.5Z"/></g><g id="shape3545-11"><path class="cls-3" d="M26.32,31.49H16.87v4.85h9.45A12.6,12.6,0,0,0,38.13,25.19H33.66A7.85,7.85,0,0,1,26.32,31.49Z"/></g><g id="shape3546-15"><rect class="cls-4" x="0.02" width="56.69" height="56.69"/></g></g></g></svg>