<svg id="Layer_1" data-name="Layer 1" xmlns="http://www.w3.org/2000/svg" xmlns:xlink="http://www.w3.org/1999/xlink" width="56.69" height="45.35" viewBox="0 0 56.69 45.35"><defs><style>.cls-1,.cls-2,.cls-3,.cls-4{fill-rule:evenodd;}.cls-1{fill:url(#linear-gradient);}.cls-2{fill:#005ba1;}.cls-3{fill:#f2f2f2;}.cls-4{fill:#fff;}</style><linearGradient id="linear-gradient" x1="-287.14" y1="415.22" x2="-286.14" y2="415.22" gradientTransform="matrix(0, -33.34, -56.69, 0, 23567.01, -9527.83)" gradientUnits="userSpaceOnUse"><stop offset="0" stop-color="#32bedd"/><stop offset="0.18" stop-color="#32caea"/><stop offset="0.41" stop-color="#32d2f2"/><stop offset="0.78" stop-color="#32d4f5"/></linearGradient></defs><g id="group3467-1"><g id="group3468-2"><g id="shape3469-3"><path class="cls-1" d="M0,12H56.69V43.46a1.89,1.89,0,0,1-1.9,1.89H1.9A1.89,1.89,0,0,1,0,43.46Z"/></g><g id="shape3470-7"><path class="cls-2" d="M1.9,0H54.79a1.9,1.9,0,0,1,1.9,1.89h0V12H0V1.86A1.9,1.9,0,0,1,1.9,0Z"/></g><g id="shape3471-9"><path class="cls-3" d="M7.64,7.51a.93.93,0,0,0,.93.93H48.16a.93.93,0,0,0,.93-.93v-3a.93.93,0,0,0-.94-.93H8.57a.93.93,0,0,0-.94.93Z"/></g><g id="shape3472-11"><path class="cls-4" d="M20.61,22.66l-3,10h-2.4L13.37,26a3.39,3.39,0,0,1,0-.9,3.17,3.17,0,0,1,0,.87L11,32.61H8.64l-3-9.95H8l1.83,7.27a4.12,4.12,0,0,1,0,.86,4.12,4.12,0,0,1,0-.86l2.4-7.27h2.17L16.27,30a6.17,6.17,0,0,1,0,.86,4.12,4.12,0,0,1,0-.86l2.07-7.3Zm15.34,0-3,10h-2.4L28.71,26a3.39,3.39,0,0,1,0-.9,7,7,0,0,1-.36.9l-2,6.63H24l-3-9.95h2.37l1.87,7.27a6.17,6.17,0,0,1,0,.86,1.7,1.7,0,0,1,.16-.86l2.24-7.27h2.13L31.62,30a6.17,6.17,0,0,1,0,.86,4.12,4.12,0,0,1,0-.86l2.16-7.3Zm15.37,0-3,10H46L44.05,26a6.76,6.76,0,0,1,0-.9,3.18,3.18,0,0,1-.16.87l-2.2,6.66H39.35l-3-9.95h2.4l1.84,7.27a4.12,4.12,0,0,1,0,.86,4.12,4.12,0,0,1,0-.86L43,22.66h2l1.8,7.3a6.17,6.17,0,0,1,0,.86,6.17,6.17,0,0,1,0-.86l2.3-7.3Z"/></g></g></g></svg>