<svg id="Layer_1" data-name="Layer 1" xmlns="http://www.w3.org/2000/svg" xmlns:xlink="http://www.w3.org/1999/xlink" width="56.7" height="48.19" viewBox="0 0 56.7 48.19"><defs><style>.cls-1,.cls-2,.cls-3,.cls-4{fill-rule:evenodd;}.cls-1{fill:url(#linear-gradient);}.cls-2{fill:#32bedd;}.cls-3{fill:#9cebff;}.cls-4{fill:#50e6ff;}</style><linearGradient id="linear-gradient" x1="-270.09" y1="420.97" x2="-269.09" y2="420.97" gradientTransform="matrix(0, 48.19, 48.9, 0, -20560.95, 13015.63)" gradientUnits="userSpaceOnUse"><stop offset="0" stop-color="#5ea0ef"/><stop offset="0.18" stop-color="#589eed"/><stop offset="0.41" stop-color="#4897e9"/><stop offset="0.66" stop-color="#2e8ce1"/><stop offset="0.94" stop-color="#0a7cd7"/><stop offset="1" stop-color="#0078d4"/></linearGradient></defs><g id="group3493-1"><g id="group3494-2"><g id="shape3495-3"><path class="cls-1" d="M17.07,33.74H31.73V48.19H17.07ZM.14,14.46H14.8V0H2A2,2,0,0,0,0,2H0Zm2,33.73H14.8V33.74H0V46.18a2,2,0,0,0,2,2h.14Zm-2-16.73H14.8V16.87H0ZM34.27,48.19h12.6a2,2,0,0,0,2-2h0V33.74H34.14ZM17.34,31.46H31.73V16.87H17.07Zm16.93,0h14.4V16.87H34.14Zm0-31.33V14.46h14.4V2a2,2,0,0,0-2-2h0ZM17.34,14.59H31.73V0H17.07Z"/></g><g id="shape3496-7"><path class="cls-2" d="M56.7,25.54V40.63L43.59,48.19V33.1Z"/></g><g id="shape3497-9"><path class="cls-3" d="M56.69,25.54l-13.1,7.59L30.48,25.54,43.59,18Z"/></g><g id="shape3498-11"><path class="cls-4" d="M43.59,33.13V48.19L30.48,40.63V25.54Z"/></g><g id="shape3499-13"><path class="cls-3" d="M0,40.63,13.11,33.1V48.19Z"/></g><g id="shape3500-15"><path class="cls-4" d="M13.11,40.63,0,33.1V48.19Z"/></g></g></g></svg>