<svg id="Layer_1" data-name="Layer 1" xmlns="http://www.w3.org/2000/svg" xmlns:xlink="http://www.w3.org/1999/xlink" width="55.16" height="55.16" viewBox="0 0 55.16 55.16"><defs><style>.cls-1,.cls-2,.cls-3,.cls-6{fill-rule:evenodd;}.cls-1{fill:url(#linear-gradient);}.cls-2{fill:#fff;}.cls-3{fill:#0078d4;}.cls-4{fill:none;}.cls-5{fill:url(#linear-gradient-2);}.cls-6,.cls-7{fill:#f2f2f2;}.cls-6{fill-opacity:0.55;}</style><linearGradient id="linear-gradient" x1="-285.3" y1="418.44" x2="-284.3" y2="418.44" gradientTransform="matrix(0, -40.09, -40.09, 0, 16802.9, -11390.24)" gradientUnits="userSpaceOnUse"><stop offset="0" stop-color="#5e9624"/><stop offset="0.55" stop-color="#6dad2a"/><stop offset="1" stop-color="#76bc2d"/></linearGradient><linearGradient id="linear-gradient-2" x1="-336.3" y1="381.95" x2="-335.3" y2="381.95" gradientTransform="matrix(-0.04, -5.65, -5.65, 0.04, 2164.97, -1897.26)" gradientUnits="userSpaceOnUse"><stop offset="0" stop-color="#ccc"/><stop offset="0.12" stop-color="#d7d7d7"/><stop offset="0.42" stop-color="#ebebeb"/><stop offset="0.72" stop-color="#f8f8f8"/><stop offset="1" stop-color="#fcfcfc"/></linearGradient></defs><g id="group3507-1"><g id="group3508-2"><g id="shape3509-3"><path class="cls-1" d="M26.27,54.62a1.86,1.86,0,0,0,2.62,0L54.62,28.89a1.86,1.86,0,0,0,0-2.62L28.89.54a1.86,1.86,0,0,0-2.62,0L.54,26.27a1.86,1.86,0,0,0,0,2.62Z"/></g><g id="group3510-7"><g id="shape3511-8"><path class="cls-2" d="M33.75,32.48H43a.35.35,0,0,0,.32-.35V22.94a.32.32,0,0,0-.29-.35.28.28,0,0,0-.29.13l-2.54,2.52v.16a.31.31,0,0,1-.45,0L28.46,14.3a.33.33,0,0,0-.45,0l-2.86,2.86a.36.36,0,0,0,0,.49L36.21,28.71a.36.36,0,0,1,0,.49l-.16.16L33.52,31.9a.36.36,0,0,0,0,.51.41.41,0,0,0,.19.08Z"/></g><g id="shape3512-10"><path class="cls-2" d="M20.86,32.48H11.64a.35.35,0,0,1-.26-.35V22.94a.32.32,0,0,1,.33-.32.32.32,0,0,1,.22.1l2.57,2.52v.16a.32.32,0,0,0,.46,0L26.15,14.3a.34.34,0,0,1,.46,0l2.85,2.86a.36.36,0,0,1,0,.49L18.39,28.71a.36.36,0,0,0,0,.49v.16l2.53,2.54a.36.36,0,0,1,0,.51.39.39,0,0,1-.1.08Z"/></g><g id="shape3513-12"><path class="cls-2" d="M20.54,40.8,27,47.29a.33.33,0,0,0,.45,0L34,40.8a.33.33,0,0,0,0-.46.31.31,0,0,0-.22-.09H30a.37.37,0,0,1-.33-.33V24.34a.33.33,0,0,0-.29-.36H25.28a.36.36,0,0,0-.36.36V39.92a.32.32,0,0,1-.33.32H20.77a.32.32,0,0,0-.32.33.31.31,0,0,0,.09.22Z"/></g></g><g id="shape3514-14"><path class="cls-3" d="M33,23.63A8.8,8.8,0,0,1,22.19,9.73a8.8,8.8,0,0,1,10.68,14Z"/><path class="cls-4" d="M33,23.63A8.8,8.8,0,0,1,22.19,9.73a8.8,8.8,0,0,1,10.68,14"/></g><g id="shape3515-17"><circle class="cls-5" cx="22.84" cy="16.38" r="2.82"/></g><g id="shape3516-21"><path class="cls-6" d="M20.05,21.09l.62,1,.45.65a18.69,18.69,0,0,1,1.11-3.57,2.73,2.73,0,0,1-1.46-.74A20.92,20.92,0,0,0,20.05,21.09Zm1.85-7.37a12.66,12.66,0,0,1-.78-3A7.61,7.61,0,0,0,20,12.2a11.07,11.07,0,0,0,.65,2.4A3.1,3.1,0,0,1,21.9,13.72Zm3,4.58a2.83,2.83,0,0,1-1.56.84,14.55,14.55,0,0,0,1.5,1.33A13.27,13.27,0,0,0,27,21.74v-.23a1.7,1.7,0,0,1,.65-1.3A11.38,11.38,0,0,1,24.92,18.3Zm8.51,3.44a13.43,13.43,0,0,1-2.83-.33,1.82,1.82,0,0,1-.52,1.27,12.53,12.53,0,0,0,3.51.26,9.73,9.73,0,0,0,1.2-1.36Z"/></g><g id="shape3517-23"><circle class="cls-4" cx="28.78" cy="21.51" r="1.82"/></g><g id="shape3518-25"><circle class="cls-7" cx="32.94" cy="17" r="1.95"/></g><g id="shape3519-27"><path class="cls-6" d="M28.29,12.71a14,14,0,0,1,6.11-1.36,7.3,7.3,0,0,0-1.53-1.46A14.69,14.69,0,0,0,28,11c-.32,0-.61.35-.94.52a18.61,18.61,0,0,1-2-3L23.94,9a17.33,17.33,0,0,0,2.11,3.24A12.92,12.92,0,0,0,23.88,14a2.86,2.86,0,0,1,1.4,1.14,11.06,11.06,0,0,1,2-1.56,29.21,29.21,0,0,0,3.79,3.24,1.83,1.83,0,0,1,.65-1A26.72,26.72,0,0,1,28.29,12.71Zm7.6,5.42h-.58L35,17.94a2,2,0,0,1-.65,1l.39.23.36.2.91.45a10.56,10.56,0,0,0,.29-1.14Z"/></g><g id="shape3520-29"><circle class="cls-7" cx="22.84" cy="16.38" r="2.82"/></g><g id="shape3521-31"><circle class="cls-7" cx="28.78" cy="21.51" r="1.82"/></g></g></g></svg>