<svg id="Layer_1" data-name="Layer 1" xmlns="http://www.w3.org/2000/svg" xmlns:xlink="http://www.w3.org/1999/xlink" width="46.19" height="56.7" viewBox="0 0 46.19 56.7"><defs><style>.cls-1,.cls-2,.cls-4{fill-rule:evenodd;}.cls-1{fill:url(#linear-gradient);}.cls-2{fill:#003067;}.cls-3{fill:#50e6ff;}.cls-4{fill:url(#linear-gradient-2);}</style><linearGradient id="linear-gradient" x1="-282.87" y1="417.28" x2="-281.87" y2="417.28" gradientTransform="matrix(0, -56.7, -33.63, 0, 14050.13, -15982.39)" gradientUnits="userSpaceOnUse"><stop offset="0.05" stop-color="#949494"/><stop offset="0.36" stop-color="#979797"/><stop offset="0.54" stop-color="#9f9f9f"/><stop offset="0.69" stop-color="#adadad"/><stop offset="0.73" stop-color="#b3b3b3"/></linearGradient><linearGradient id="linear-gradient-2" x1="-266.94" y1="429.76" x2="-265.94" y2="429.76" gradientTransform="matrix(0, 33.1, 46.19, 0, -19827.75, 8858.19)" gradientUnits="userSpaceOnUse"><stop offset="0.18" stop-color="#5ea0ef"/><stop offset="1" stop-color="#0078d4"/></linearGradient></defs><g id="group3455-1"><g id="group3456-2"><g id="shape3457-3"><path class="cls-1" d="M33.6,54.8a1.88,1.88,0,0,1-1.85,1.9H1.89A1.88,1.88,0,0,1,0,54.84V1.9A1.88,1.88,0,0,1,1.85,0H31.71a1.88,1.88,0,0,1,1.92,1.83V1.9Z"/></g><g id="shape3458-7"><path class="cls-2" d="M4.78,19.88a3.63,3.63,0,0,1,3.63-3.61h17a3.62,3.62,0,0,1-.07,7.24H8.48a3.66,3.66,0,0,1-3.7-3.61Zm0-10.74A3.64,3.64,0,0,1,8.45,5.51h17a3.62,3.62,0,0,1-.1,7.24H8.48a3.63,3.63,0,0,1-3.7-3.54Z"/></g><g id="shape3459-9"><ellipse class="cls-3" cx="8.72" cy="9.14" rx="2.46" ry="2.43"/></g><g id="shape3460-11"><ellipse class="cls-3" cx="8.72" cy="19.88" rx="2.46" ry="2.43"/></g><g id="shape3461-13"><path class="cls-4" d="M46.19,46.29a10.45,10.45,0,0,0-9-10A13.18,13.18,0,0,0,23.73,23.61a13.47,13.47,0,0,0-12.89,8.88A12.39,12.39,0,0,0,0,44.46,12.63,12.63,0,0,0,13,56.7h22.8A10.55,10.55,0,0,0,46.19,46.29Z"/></g></g></g></svg>