<svg id="Layer_1" data-name="Layer 1" xmlns="http://www.w3.org/2000/svg" xmlns:xlink="http://www.w3.org/1999/xlink" width="56.69" height="56.69" viewBox="0 0 56.69 56.69"><defs><style>.cls-1{fill:#949494;}.cls-1,.cls-2{fill-rule:evenodd;}.cls-2{fill:url(#linear-gradient);}.cls-3{fill:none;}</style><linearGradient id="linear-gradient" x1="-264.06" y1="431.31" x2="-263.06" y2="431.31" gradientTransform="matrix(0, 25.74, 35.69, 0, -15365.04, 6811.62)" gradientUnits="userSpaceOnUse"><stop offset="0.18" stop-color="#5ea0ef"/><stop offset="1" stop-color="#0078d4"/></linearGradient></defs><g id="group3462-1"><g id="group3463-2"><g id="shape3464-3"><path class="cls-1" d="M27,27.37H3.15V6.86A3.46,3.46,0,0,1,6.58,3.4H27Zm-20.88-3H24V6.3H6.58a.47.47,0,0,0-.47.47h0Zm47.43,3H29.7V3.4H50.11a3.46,3.46,0,0,1,3.43,3.46Zm-20.88-3H50.58V6.86a.48.48,0,0,0-.37-.56H32.66ZM27,53.79H6.58a3.44,3.44,0,0,1-3.43-3.4V29.86H27Zm-20.88-21V50.39a.47.47,0,0,0,.47.47H24v-18Zm44,21H29.7V29.86H53.54V50.39A3.44,3.44,0,0,1,50.11,53.79Zm-17.45-3H50.11a.47.47,0,0,0,.47-.47h0V32.82H32.66Z"/></g><g id="shape3465-5"><path class="cls-2" d="M46.21,33.45a8.15,8.15,0,0,0-7-7.87,10.2,10.2,0,0,0-10.42-9.83,10.45,10.45,0,0,0-9.92,6.84A9.7,9.7,0,0,0,10.52,32a9.8,9.8,0,0,0,10.05,9.45H38.24A8.22,8.22,0,0,0,46.21,33.45Z"/></g><g id="shape3466-9"><rect class="cls-3" width="56.69" height="56.69"/></g></g></g></svg>