<svg id="Layer_1" data-name="Layer 1" xmlns="http://www.w3.org/2000/svg" xmlns:xlink="http://www.w3.org/1999/xlink" width="56.69" height="56.69" viewBox="0 0 56.69 56.69"><defs><style>.cls-1{fill:url(#radial-gradient);}.cls-2{fill:#83b9f9;fill-rule:evenodd;}.cls-3{fill:#f2f2f2;}</style><radialGradient id="radial-gradient" cx="-272.18" cy="419.73" r="1.4" gradientTransform="matrix(56.69, 0, 0, -56.69, 15430.85, 23795.64)" gradientUnits="userSpaceOnUse"><stop offset="0.18" stop-color="#5ea0ef"/><stop offset="1" stop-color="#0078d4"/></radialGradient></defs><g id="group3446-1"><g id="group3447-2"><g id="shape3448-3"><circle class="cls-1" cx="28.35" cy="28.35" r="28.35"/></g><g id="shape3449-7"><path class="cls-2" d="M6.72,33.92A62.8,62.8,0,0,0,4,42.75a30.09,30.09,0,0,0,2.06,3A25.57,25.57,0,0,0,7.84,47.9a59.25,59.25,0,0,1,3.61-11.57A9,9,0,0,1,6.72,33.92ZM10,18.83A40,40,0,0,1,7.66,9,27.12,27.12,0,0,0,4,13.77a45.3,45.3,0,0,0,1.89,8A9.1,9.1,0,0,1,10,18.83Z"/></g><g id="shape3450-9"><path class="cls-2" d="M26.26,44a5.85,5.85,0,0,1,1.8-4.22,39.74,39.74,0,0,1-8.4-6.18,9,9,0,0,1-5,2.73,38.32,38.32,0,0,0,4.81,4.28,40.55,40.55,0,0,0,6.81,4.16,5,5,0,0,1-.05-.77Zm21,.71a39.81,39.81,0,0,1-9.16-1.07c0,.13,0,.24,0,.36a5.89,5.89,0,0,1-1.69,4.13,47.15,47.15,0,0,0,11.43.83,28.91,28.91,0,0,0,3.84-4.5,44,44,0,0,1-4.44.25Z"/></g><g id="shape3451-11"><path class="cls-2" d="M30.56,15.47a45.77,45.77,0,0,1,19.9-4.89,27.66,27.66,0,0,0-4.94-4.79A48.76,48.76,0,0,0,29.79,9.53c-1.09.46-2.15,1-3.19,1.55a57.8,57.8,0,0,1-6.73-9.76,27.48,27.48,0,0,0-3.5,1.35,60.19,60.19,0,0,0,6.89,10.41,41.22,41.22,0,0,0-7,5.81,9.15,9.15,0,0,1,4.48,3.66,39.87,39.87,0,0,1,6.4-5.11A91.26,91.26,0,0,0,39.42,28.2a6.12,6.12,0,0,1,2-3.29A88.07,88.07,0,0,1,30.56,15.47Z"/></g><g id="shape3452-13"><circle class="cls-3" cx="45.62" cy="29.34" r="6.27"/></g><g id="shape3453-15"><circle class="cls-3" cx="13.02" cy="27.39" r="9.09"/></g><g id="shape3454-17"><circle class="cls-3" cx="32.17" cy="43.98" r="5.9"/></g></g></g></svg>