<svg id="Layer_1" data-name="Layer 1" xmlns="http://www.w3.org/2000/svg" xmlns:xlink="http://www.w3.org/1999/xlink" width="39.96" height="56.69" viewBox="0 0 39.96 56.69"><defs><style>.cls-1{fill:#cecece;}.cls-1,.cls-2,.cls-3,.cls-4{fill-rule:evenodd;}.cls-2{fill:url(#radial-gradient);}.cls-3{fill:url(#linear-gradient);}.cls-4{fill:#999;}</style><radialGradient id="radial-gradient" cx="-278.22" cy="417.21" r="0.73" gradientTransform="matrix(39.96, 0, 0, -45.68, 11136.61, 19081.27)" gradientUnits="userSpaceOnUse"><stop offset="0" stop-color="#b77af4"/><stop offset="0.21" stop-color="#b378f2"/><stop offset="0.43" stop-color="#a672ed"/><stop offset="0.65" stop-color="#9267e4"/><stop offset="0.88" stop-color="#7559d8"/><stop offset="1" stop-color="#624fd0"/></radialGradient><linearGradient id="linear-gradient" x1="-274.11" y1="434.27" x2="-273.11" y2="434.27" gradientTransform="matrix(0.25, 30.84, 25.42, -0.3, -10953.25, 8594.12)" gradientUnits="userSpaceOnUse"><stop offset="0" stop-color="#f2f2f2"/><stop offset="0.23" stop-color="#f1f1f2"/><stop offset="0.37" stop-color="#ededf1"/><stop offset="0.48" stop-color="#e7e5f0"/><stop offset="0.58" stop-color="#dedbee"/><stop offset="0.67" stop-color="#d3ceeb"/><stop offset="0.76" stop-color="#c4bee8"/><stop offset="0.84" stop-color="#b4abe5"/><stop offset="0.92" stop-color="#a095e1"/><stop offset="0.99" stop-color="#8b7ddc"/><stop offset="1" stop-color="#897bdc"/></linearGradient></defs><g id="group3501-1"><g id="group3502-2"><g id="shape3503-3"><path class="cls-1" d="M11,56.33l2.72-2.9V45.69H.13v7.74l2.72,2.9a1.14,1.14,0,0,0,.64.36H10.2A1.06,1.06,0,0,0,11,56.33Z"/></g><g id="shape3504-5"><path class="cls-2" d="M20,0A19.71,19.71,0,0,0,0,19.45a20.28,20.28,0,0,0,.13,2.46C1,30.14,8.93,34,11.18,44.42a1.63,1.63,0,0,0,1.57,1.26H27.19a1.64,1.64,0,0,0,1.58-1.26C31,34,38.84,30.14,39.82,21.91A19.67,19.67,0,0,0,22.46.13,20.66,20.66,0,0,0,20,0Z"/></g><g id="shape3505-9"><path class="cls-3" d="M28.23,11a4.69,4.69,0,0,0-4.53,4.8v2.57H16.62V15.77A4.72,4.72,0,0,0,12,11h-.11a4.69,4.69,0,0,0-4.53,4.8,4.72,4.72,0,0,0,4.53,4.83H14v20a1.21,1.21,0,0,0,2.42,0h0v-20H23.7v20a1.21,1.21,0,0,0,2.42,0v-20h2.11a4.67,4.67,0,0,0,4.54-4.82h0A4.68,4.68,0,0,0,28.23,11ZM14,18.34H11.75a2.47,2.47,0,0,1-2.28-2.57,2.48,2.48,0,0,1,2.28-2.57A2.48,2.48,0,0,1,14,15.77Zm14.37,0H26.12v-2.7a2.28,2.28,0,0,1,4.53-.57,2.71,2.71,0,0,1,0,.57,2.44,2.44,0,0,1-2.16,2.69Z"/></g><g id="shape3506-13"><path class="cls-4" d="M13.13,51l13.7-2.64v-1.5l-13.7,2.67Zm13.7,1V50.59l-13.7,2.7v.13l1,1.13Z"/></g></g></g></svg>