<svg id="Layer_1" data-name="Layer 1" xmlns="http://www.w3.org/2000/svg" xmlns:xlink="http://www.w3.org/1999/xlink" width="45.35" height="56.69" viewBox="0 0 45.35 56.69"><defs><style>.cls-1{fill:#1b93eb;}.cls-1,.cls-10,.cls-2,.cls-3,.cls-4,.cls-5,.cls-6,.cls-7,.cls-8,.cls-9{fill-rule:evenodd;}.cls-2{fill:url(#linear-gradient);}.cls-3{fill:#1f56a3;}.cls-4{fill:#1490df;}.cls-5{fill:#fff;}.cls-6{fill:#0078d4;}.cls-10,.cls-7{fill:#83b9f9;}.cls-8,.cls-9{fill:#5ea0ef;}.cls-10,.cls-9{fill-opacity:0.2;}</style><linearGradient id="linear-gradient" x1="-275.59" y1="430.46" x2="-274.59" y2="430.46" gradientTransform="matrix(0, 51.97, 41.6, 0, -17884.52, 14325.49)" gradientUnits="userSpaceOnUse"><stop offset="0" stop-color="#6bb9f2"/><stop offset="1" stop-color="#1b93eb"/></linearGradient></defs><g id="group3481-1"><g id="group3482-2"><g id="shape3483-3"><path class="cls-1" d="M45.35,26.46c0,15.25-18,27.53-21.93,30a1.41,1.41,0,0,1-1.48,0C18,54,0,41.71,0,26.46V8.13A1.44,1.44,0,0,1,1.39,6.68C15.41,6.3,12.17,0,22.68,0S30,6.3,44,6.68a1.43,1.43,0,0,1,1.38,1.45Z"/></g><g id="shape3484-5"><path class="cls-2" d="M43.48,26.62c0,14-16.52,25.2-20.12,27.53a1.33,1.33,0,0,1-1.36,0C18.39,51.88,1.88,40.61,1.88,26.62V9.8A1.31,1.31,0,0,1,3.14,8.48C16,8.13,13,2.37,22.68,2.37s6.68,5.76,19.53,6.11A1.31,1.31,0,0,1,43.48,9.8Z"/></g><g id="shape3485-9"><path class="cls-3" d="M29,40.76c-3.45-.47-3.42-2.77-3.39-6.3H19.07c0,3.69,0,6-3.39,6.3a1.8,1.8,0,0,0-1.63,1.64H30.66A1.83,1.83,0,0,0,29,40.76Z"/></g><g id="shape3486-11"><path class="cls-4" d="M7.33,33.36a1,1,0,0,0,1,1H36.26a1,1,0,0,0,1-1h0V13.77a1,1,0,0,0-1-1H8.35a1,1,0,0,0-1,1h0Z"/></g><g id="shape3487-13"><path class="cls-5" d="M9.06,31.88a.49.49,0,0,0,.49.5H35a.5.5,0,0,0,.49-.5v-17a.49.49,0,0,0-.49-.5H9.55a.5.5,0,0,0-.49.5Z"/></g><g id="shape3488-15"><path class="cls-6" d="M27.67,20.22l0,6.33-5.39,3.18V23.4Z"/></g><g id="shape3489-17"><path class="cls-7" d="M27.67,20.22,22.31,23.4l-5.39-3.18L22.28,17Z"/></g><g id="shape3490-19"><path class="cls-8" d="M22.31,23.4l0,6.33-5.36-3.18V20.22Z"/></g><g id="shape3491-21"><path class="cls-9" d="M22.31,23.4v6.33l5.36-3.18Z"/></g><g id="shape3492-23"><path class="cls-10" d="M22.28,23.47l0,0v6.33h0l-5.36-3.18Z"/></g></g></g></svg>