<svg id="Layer_1" data-name="Layer 1" xmlns="http://www.w3.org/2000/svg" width="56.7" height="37.71" viewBox="0 0 56.7 37.71"><defs><style>.cls-1{fill:#59b4d9;}.cls-1,.cls-2,.cls-3,.cls-4{fill-rule:evenodd;}.cls-2{fill:#fcd116;}.cls-3{fill:#57a300;}.cls-4{fill:#fff;fill-opacity:0.2;}</style></defs><g id="group3522-1"><g id="group3523-2"><g id="shape3524-3"><path class="cls-1" d="M48.66,15.77c0-.44.11-1,.11-1.45A14.31,14.31,0,0,0,34.47,0h-.08A13.91,13.91,0,0,0,22.78,5.82,10.22,10.22,0,0,0,17,4.14,10.9,10.9,0,0,0,6.2,15v.89A10.87,10.87,0,0,0,0,25.73a12,12,0,0,0,12.11,12h30.8A12,12,0,0,0,55.29,26a2.81,2.81,0,0,0,0-.29A10.6,10.6,0,0,0,48.66,15.77Z"/></g><g id="shape3525-5"><path class="cls-2" d="M26.33,22.7l1.17,2.8-2.62,4.64,2.87,2.91,4.74-2.25L35.26,32l1.44,4.38.15.52h4.08L42.64,32l2.77-1.18,4.08,2.13.51.26,2.87-2.91-2.18-4.56,1.16-2.8,4.34-1.47.51-.15V17.17l-4.84-1.73-1.16-2.8,2.1-4.12L53.06,8,50.29,5.09,45.7,7.34,42.94,6.16,41.48,1.78l-.26-.52h-3.9l-1.71,4.9L32.85,7.34,28.77,5.21,28.26,5,25.53,8.26l2,4.24-1.17,2.8L22,16.77l-.51.26V21Zm7.14-3.57a5.64,5.64,0,1,1,5.64,5.71h0a5.62,5.62,0,0,1-5.64-5.59Z"/></g><g id="shape3526-7"><path class="cls-3" d="M3.4,32.64l1.08,1.17L4,36.58l1.94.9,1.93-2,1.57.07L11,37.47l.17.23,2-.75,0-2.73,1.15-1.09,2.4.3.29,0,.9-2-1.9-1.85.08-1.6,1.87-1.52.22-.16-.74-2-2.7,0L13.6,23.22l.3-2.42,0-.3L12,19.57l-1.86,1.95-1.57-.07-1.5-1.9-.22-.2L5,20.06l0,2.73L3.85,23.88l-2.38-.3-.3,0L.42,25.68l1.73,1.73L2.08,29,.2,30.52l-.2.22.71,1.94Zm2.88-3.07A3,3,0,0,1,8,25.73a2.94,2.94,0,0,1,3.8,1.77,3,3,0,0,1-1.76,3.85h0A2.93,2.93,0,0,1,6.3,29.63Z"/></g><g id="shape3527-9"><path class="cls-4" d="M7.75,31.55c0-4.59,2.32-8.17,6.63-10.41v-.89A11.66,11.66,0,0,1,26.2,8.74,11.5,11.5,0,0,1,32,10.41,15.26,15.26,0,0,1,44.35,4a14.92,14.92,0,0,0-10-3.8A14.32,14.32,0,0,0,22.78,6.15,10.21,10.21,0,0,0,17,4.48,10.89,10.89,0,0,0,6.2,15.33v.9A10.87,10.87,0,0,0,0,26.07,11.83,11.83,0,0,0,9.3,37.7,12.68,12.68,0,0,1,7.75,31.55Z"/></g></g></g></svg>