<svg id="Layer_1" data-name="Layer 1" xmlns="http://www.w3.org/2000/svg" width="56.69" height="53.86" viewBox="0 0 56.69 53.86"><defs><style>.cls-1{fill:#3e3e3e;}.cls-1,.cls-10,.cls-11,.cls-9{fill-rule:evenodd;}.cls-11,.cls-2,.cls-6,.cls-7,.cls-8,.cls-9{fill:#fff;}.cls-3{fill:#804998;fill-opacity:0.85;}.cls-10,.cls-4,.cls-5{fill:#59b4d9;}.cls-4{fill-opacity:0.5;}.cls-6{fill-opacity:0.25;}.cls-7{fill-opacity:0.2;}.cls-8{fill-opacity:0.4;}.cls-9{fill-opacity:0.15;}.cls-11{fill-opacity:0.6;}</style></defs><g id="group3426-1"><g id="shape3427-2"><path class="cls-1" d="M49.89,53.86H6.8A6.77,6.77,0,0,1,0,47.13V2.25H56.69V47.13A6.76,6.76,0,0,1,49.89,53.86Z"/></g><g id="shape3428-4"><rect class="cls-2" x="4.54" y="19.07" width="47.62" height="13.46"/></g><g id="shape3429-6"><rect class="cls-3" x="4.54" y="19.07" width="47.62" height="13.46"/></g><g id="shape3430-8"><rect class="cls-2" x="4.54" y="35.9" width="47.62" height="13.46"/></g><g id="shape3431-10"><rect class="cls-4" x="4.54" y="35.9" width="47.62" height="13.46"/></g><g id="shape3432-12"><rect class="cls-5" x="4.54" y="2.24" width="47.62" height="13.46"/></g><g id="shape3433-14"><rect class="cls-6" x="4.54" y="19.07" width="47.62" height="2.24"/></g><g id="shape3434-16"><rect class="cls-7" x="4.54" y="2.24" width="47.62" height="2.24"/></g><g id="shape3435-18"><rect class="cls-8" x="4.54" y="35.9" width="47.62" height="2.24"/></g><g id="shape3436-20"><path class="cls-9" d="M6.8,53.86H9.86L45.45,2.25H0V47.13A6.77,6.77,0,0,0,6.8,53.86Z"/></g><g id="shape3437-22"><path class="cls-10" d="M14.64,25.58a1,1,0,0,0,1-.89L18.14,1.12a1,1,0,0,0-1-1.12h-5a1,1,0,0,0-1,1.12l2.49,23.57A1,1,0,0,0,14.64,25.58Z"/></g><g id="shape3438-24"><path class="cls-11" d="M17.25.89,14.74,24.68h-.2L12,.89Z"/></g><g id="shape3439-26"><path class="cls-11" d="M14.64.89l.1,23.79h-.2L12,.89Z"/></g><g id="shape3440-28"><path class="cls-10" d="M44.22,30.29a1.27,1.27,0,0,0,1.26-1.11L48.59,1.4A1.26,1.26,0,0,0,47.33,0H41.11a1.26,1.26,0,0,0-1.26,1.4L43,29.18A1.28,1.28,0,0,0,44.22,30.29Z"/></g><g id="shape3441-30"><path class="cls-11" d="M47.49,1.12,44.35,29.17H44.1L41,1.12Z"/></g><g id="shape3442-32"><path class="cls-10" d="M37,25.58a1,1,0,0,0,1-.89L40.5,1.12a1,1,0,0,0-1-1.12h-5a1,1,0,0,0-1,1.12L36,24.69A1,1,0,0,0,37,25.58Z"/></g><g id="shape3443-34"><path class="cls-11" d="M34.65,1.11h4.72L37,23.46Z"/></g><g id="shape3444-36"><path class="cls-11" d="M34.65,1.11H37V23.46Z"/></g><g id="shape3445-38"><path class="cls-11" d="M44.22,1.12l.13,28.05H44.1L41,1.12Z"/></g></g></svg>