<svg id="Layer_1" data-name="Layer 1" xmlns="http://www.w3.org/2000/svg" xmlns:xlink="http://www.w3.org/1999/xlink" width="56.69" height="56.65" viewBox="0 0 56.69 56.65"><defs><style>.cls-1,.cls-2{fill-rule:evenodd;}.cls-1{fill:url(#linear-gradient);}.cls-2{fill:url(#linear-gradient-2);}</style><linearGradient id="linear-gradient" x1="-282.88" y1="420.21" x2="-281.88" y2="420.21" gradientTransform="matrix(0, -56.65, -56.69, 0, 23850.24, -15968.4)" gradientUnits="userSpaceOnUse"><stop offset="0" stop-color="#0078d4"/><stop offset="0.07" stop-color="#0a7cd7"/><stop offset="0.34" stop-color="#2e8ce1"/><stop offset="0.6" stop-color="#4897e9"/><stop offset="0.82" stop-color="#589eed"/><stop offset="1" stop-color="#5ea0ef"/></linearGradient><linearGradient id="linear-gradient-2" x1="-283.55" y1="416.02" x2="-282.55" y2="416.02" gradientTransform="matrix(0, -50.82, -28.67, 0, 11939.74, -14354.14)" gradientUnits="userSpaceOnUse"><stop offset="0" stop-color="#fea11b"/><stop offset="0.28" stop-color="#fea51a"/><stop offset="0.55" stop-color="#feb018"/><stop offset="0.8" stop-color="#ffc314"/><stop offset="1" stop-color="#ffd70f"/></linearGradient></defs><g id="group3417-1"><g id="group3418-2"><g id="shape3419-3"><path class="cls-1" d="M56.69,31.38V24.93l-.91-.35-6.91-2.26L47.05,17.9l3.51-7.48L46,5.89l-.9.46L38.66,9.63,34.24,7.82,31.4,0H24.94L24.6.91,22.33,7.82,17.91,9.63l-7.37-3.5L6,10.65l.46.91L9.75,18,7.94,22.43,0,25.27v6.45l.91.34,6.91,2.27,1.82,4.42L6.13,46.23l4.53,4.53.91-.46L18,47l4.42,1.81,2.84,7.82h6.46l.34-.91,2.27-6.91L38.79,47l7.48,3.5L50.81,46l-.46-.9-3.28-6.46,1.81-4.42ZM28.34,40.75A12.43,12.43,0,1,1,40.78,28.32,12.43,12.43,0,0,1,28.34,40.75Z"/></g><g id="shape3420-7"><path class="cls-2" d="M12.08,33.14H.64A.61.61,0,0,1,0,32.57a.53.53,0,0,1,.06-.24L13.78,5.22a.68.68,0,0,1,.59-.34H27.9a.63.63,0,0,1,.64.58.52.52,0,0,1-.11.32L12.32,27H28a.63.63,0,0,1,.64.58.52.52,0,0,1-.17.39L2.38,55.1c-.24.14-2,1.59-1.13-.61Z"/></g></g></g></svg>