<svg id="Layer_1" data-name="Layer 1" xmlns="http://www.w3.org/2000/svg" xmlns:xlink="http://www.w3.org/1999/xlink" width="56.69" height="56.7" viewBox="0 0 56.69 56.7"><defs><style>.cls-1,.cls-2,.cls-3,.cls-4{fill-rule:evenodd;}.cls-1{fill:url(#linear-gradient);}.cls-2{fill:#949494;}.cls-3{fill:url(#linear-gradient-2);}.cls-4{fill:#fff;}</style><linearGradient id="linear-gradient" x1="-267.85" y1="440.61" x2="-266.85" y2="440.61" gradientTransform="matrix(0, 39.7, 56.69, 0, -24950.01, 10634.16)" gradientUnits="userSpaceOnUse"><stop offset="0" stop-color="#5ea0ef"/><stop offset="0.18" stop-color="#559cec"/><stop offset="0.47" stop-color="#3c91e5"/><stop offset="0.84" stop-color="#1380da"/><stop offset="1" stop-color="#0078d4"/></linearGradient><linearGradient id="linear-gradient-2" x1="-309.87" y1="429.57" x2="-308.87" y2="429.57" gradientTransform="matrix(0, -10.54, -43.28, 0, 18613.48, -3209.9)" gradientUnits="userSpaceOnUse"><stop offset="0" stop-color="#0078d4"/><stop offset="0.16" stop-color="#1380da"/><stop offset="0.53" stop-color="#3c91e5"/><stop offset="0.82" stop-color="#559cec"/><stop offset="1" stop-color="#5ea0ef"/></linearGradient></defs><g id="group2791-1"><g id="group2792-2"><g id="shape2793-3"><path class="cls-1" d="M56.69,27.25a12.56,12.56,0,0,0-11-12.08A16,16,0,0,0,29.1,0,16.5,16.5,0,0,0,13.38,10.58,15.14,15.14,0,0,0,0,25,15.39,15.39,0,0,0,16,39.7H43.24l.6-.33A12.85,12.85,0,0,0,56.69,27.25Z"/></g><g id="shape2794-7"><path class="cls-2" d="M44.64,41.94H29.52V23.58H27.25V41.94H12.13A1.11,1.11,0,0,0,11,43v4.3a1.12,1.12,0,0,0,1.13,1.1,1.09,1.09,0,0,0,1.1-1.06V44.1h14v2.24h2.23V44.1H43.54v4a1.12,1.12,0,0,0,1.1,1.1,1.17,1.17,0,0,0,1.13-1.1V43A1.12,1.12,0,0,0,44.64,41.94Z"/></g><g id="shape2795-9"><path class="cls-3" d="M41.88,56.7H34a1.35,1.35,0,0,1-1.4-1.29V47.52A1.38,1.38,0,0,1,34,46.16h7.86a1.4,1.4,0,0,1,1.4,1.36v7.82a1.38,1.38,0,0,1-1.4,1.36ZM27,55.34V47.52a1.4,1.4,0,0,0-1.4-1.36H17.73a1.37,1.37,0,0,0-1.4,1.35h0v7.82a1.35,1.35,0,0,0,1.32,1.36h7.94A1.38,1.38,0,0,0,27,55.34Zm-16.22,0V47.52a1.4,1.4,0,0,0-1.4-1.36h-8A1.4,1.4,0,0,0,0,47.52v7.82A1.38,1.38,0,0,0,1.4,56.7H9.3a1.39,1.39,0,0,0,1.47-1.29Z"/></g><g id="shape2796-13"><path class="cls-4" d="M40.06,19.54V17h-.38l-2.8-.88-.71-1.72,1.4-2.94L35.75,9.7l-.38.18L32.5,11l-1.81-.7L29.55,7.24H27.1V7.6l-.91,2.72-1.78.7-3.25-1.4-1.81,1.8.19.33,1.62,2.54L20.41,16l-3.33,1.32v2.5h.34l2.8.88.72,1.73-1.4,2.94,1.81,1.76h.38l2.61-1.29,1.77.7,1.14,3.05h2.6v-.33l.91-2.72,1.78-.7,3,1.36,1.82-1.76-.19-.37-1.33-2.53.72-1.73ZM28.72,23.21a4.89,4.89,0,1,1,5-4.92v0a4.91,4.91,0,0,1-4.95,4.88h0Z"/></g></g></g></svg>