<svg id="Layer_1" data-name="Layer 1" xmlns="http://www.w3.org/2000/svg" width="47.3" height="56.7" viewBox="0 0 47.3 56.7"><defs><style>.cls-1{fill:#b41055;}.cls-1,.cls-2,.cls-3,.cls-4,.cls-5,.cls-6,.cls-8,.cls-9{fill-rule:evenodd;}.cls-2{fill:#e86299;}.cls-3{fill:#f173a7;}.cls-4{fill:#c12664;}.cls-5{fill:#cf3071;}.cls-6{fill:#b5205c;}.cls-7{fill:#fe90be;}.cls-8{fill:#cb2e6f;}.cls-9{fill:#900740;}</style></defs><g id="group3243-1"><g id="shape3244-2"><path class="cls-1" d="M21.44,56.7h-19A2.49,2.49,0,0,1,0,54.21V30.83a2.47,2.47,0,0,1,2.47-2.48h19Z"/></g><g id="shape3245-4"><path class="cls-2" d="M8,56.7H0V28.35H8a2.43,2.43,0,0,1,2.42,2.43V54.27A2.43,2.43,0,0,1,8,56.7Z"/></g><g id="shape3246-6"><path class="cls-3" d="M2.62,56.7H28.33V28.35H0V54.07A2.63,2.63,0,0,0,2.62,56.7Z"/></g><g id="shape3247-8"><path class="cls-4" d="M44.75,0H12.22A2.55,2.55,0,0,0,9.68,2.55v25.8H47.3V2.55A2.55,2.55,0,0,0,44.75,0Z"/></g><g id="shape3248-10"><path class="cls-5" d="M37.86,0H12.22A2.55,2.55,0,0,0,9.68,2.55v25.8H37.86Z"/></g><g id="shape3249-12"><path class="cls-6" d="M26.24,9.38H21.31a2.35,2.35,0,0,1,0-4.69h4.93a2.35,2.35,0,0,1,0,4.69Z"/></g><g id="shape3250-14"><rect class="cls-7" x="23.77" y="44.87" width="14.03" height="2.4"/></g><g id="shape3251-16"><rect class="cls-7" x="23.77" y="49.64" width="7.98" height="2.4"/></g><g id="shape3252-18"><path class="cls-8" d="M35.52,37.87H30.85a2.44,2.44,0,0,1,0-4.88h4.67a2.44,2.44,0,0,1,0,4.88Z"/></g><g id="shape3253-20"><path class="cls-9" d="M16.49,37.87H11.82a2.44,2.44,0,0,1,0-4.88h4.67a2.44,2.44,0,1,1,0,4.88Z"/></g></g></svg>