<svg id="Layer_1" data-name="Layer 1" xmlns="http://www.w3.org/2000/svg" xmlns:xlink="http://www.w3.org/1999/xlink" width="45.35" height="56.7" viewBox="0 0 45.35 56.7"><defs><style>.cls-1{fill:#198ab3;}.cls-1,.cls-2,.cls-3,.cls-5,.cls-6,.cls-7{fill-rule:evenodd;}.cls-2{fill:url(#linear-gradient);}.cls-3{fill:#003067;}.cls-4,.cls-7{fill:#50e6ff;}.cls-5{fill:url(#linear-gradient-2);}.cls-6{fill:#e6e6e6;}</style><linearGradient id="linear-gradient" x1="-287.77" y1="426.65" x2="-286.77" y2="426.65" gradientTransform="matrix(0, -56.1, -30.17, 0, 12887.29, -16088.12)" gradientUnits="userSpaceOnUse"><stop offset="0" stop-color="#949494"/><stop offset="0.53" stop-color="#a2a2a2"/><stop offset="1" stop-color="#b3b3b3"/></linearGradient><linearGradient id="linear-gradient-2" x1="-267.21" y1="421.45" x2="-266.21" y2="421.45" gradientTransform="matrix(19.34, 0, 0, -24.34, 5194.47, 10302.69)" gradientUnits="userSpaceOnUse"><stop offset="0" stop-color="#005ba1"/><stop offset="0.07" stop-color="#0060a9"/><stop offset="0.36" stop-color="#0071c8"/><stop offset="0.52" stop-color="#0078d4"/><stop offset="0.64" stop-color="#0074cd"/><stop offset="0.82" stop-color="#006abb"/><stop offset="1" stop-color="#005ba1"/></linearGradient></defs><g id="group2811-1"><g id="group2812-2"><g id="shape2813-3"><path class="cls-1" d="M28.74,30.24A18.8,18.8,0,0,0,22,31.3a18.61,18.61,0,0,0,6.76,1.09A18.2,18.2,0,0,0,35.5,31.3,18.59,18.59,0,0,0,28.74,30.24Z"/></g><g id="group2814-5"><g id="shape2815-6"><path class="cls-2" d="M30.17,54.21a1.81,1.81,0,0,1-1.73,1.89H1.73A1.77,1.77,0,0,1,0,54.28V1.86A1.81,1.81,0,0,1,1.73,0H28.41a1.85,1.85,0,0,1,1.76,1.89Z"/></g><g id="shape2816-10"><path class="cls-3" d="M4.49,19.67A3.44,3.44,0,0,1,7.7,16.09h15A3.44,3.44,0,0,1,26,19.67a3.45,3.45,0,0,1-3.25,3.61H7.7A3.44,3.44,0,0,1,4.49,19.67Z"/></g><g id="shape2817-12"><path class="cls-3" d="M4.49,9A3.44,3.44,0,0,1,7.7,5.47h15A3.44,3.44,0,0,1,26,9a3.44,3.44,0,0,1-3.27,3.58H7.7A3.44,3.44,0,0,1,4.49,9Z"/></g><g id="shape2818-14"><ellipse class="cls-4" cx="7.85" cy="9.04" rx="2.21" ry="2.42"/></g><g id="shape2819-16"><ellipse class="cls-4" cx="7.85" cy="19.67" rx="2.21" ry="2.42"/></g></g><g id="shape2820-18"><path class="cls-5" d="M35.62,36.23c-5.36,0-9.73-1.75-9.73-3.87v20.5c0,2.08,4.31,3.81,9.61,3.84s9.73-1.72,9.73-3.84V32.36C45.35,34.48,41,36.23,35.62,36.23Z"/></g><g id="shape2821-22"><path class="cls-6" d="M45.35,32.35c0,2.12-4.33,3.88-9.73,3.88s-9.73-1.76-9.73-3.88,4.37-3.84,9.73-3.84S45.35,30.23,45.35,32.35Z"/></g><g id="shape2822-24"><path class="cls-7" d="M43.08,32.06c0,1.36-3.34,2.45-7.46,2.45s-7.46-1.09-7.46-2.45,3.33-2.45,7.46-2.45S43.08,30.7,43.08,32.06Z"/></g><g id="shape2823-26"><path class="cls-7" d="M36.87,27.22l6.45-7.06a.38.38,0,0,0,0-.51.28.28,0,0,0-.25-.11H39.32c0-8.51-4.15-17-11.64-17a23.27,23.27,0,0,1,6.06,17H30.17a.36.36,0,0,0-.35.35.39.39,0,0,0,.11.28l6.45,7.06a.33.33,0,0,0,.48,0Z"/></g></g></g></svg>