<svg id="Layer_1" data-name="Layer 1" xmlns="http://www.w3.org/2000/svg" width="56.69" height="56.69" viewBox="0 0 56.69 56.69"><defs><style>.cls-1{fill:#ff8c00;}.cls-1,.cls-2,.cls-4{fill-rule:evenodd;}.cls-2{fill:#ba141a;fill-opacity:0.25;}.cls-3,.cls-4{fill:#fff;}</style></defs><g id="group3276-1"><g id="group3277-2"><g id="shape3278-3"><path class="cls-1" d="M41.84,0A14.72,14.72,0,0,0,28.29,9,14.73,14.73,0,0,0,14.73,0C4.71,0,0,9.56,0,17.71c0,24.81,28.29,39,28.29,39s28.29-14.17,28.29-39C56.58,9.56,51.86,0,41.84,0Z"/></g><g id="shape3279-5"><path class="cls-2" d="M28.16,31.89C15.53,31.89,4.69,27.18,0,20.45c2,23.1,28.16,36.24,28.16,36.24s26.2-13.14,28.16-36.24C51.63,27.18,40.79,31.89,28.16,31.89Z"/></g><g id="shape3280-7"><ellipse class="cls-3" cx="31.82" cy="42.52" rx="4.6" ry="4.61"/></g><g id="shape3281-9"><path class="cls-4" d="M4.3,4.84S2.64,10.79,9.52,16.75L11.7,14s-3.75-3-4-7.4A7.64,7.64,0,0,1,9.23,1.07,13.25,13.25,0,0,0,4.3,4.84Zm50.86,5.1A20.88,20.88,0,0,1,54,23.25c-3.32,7.5-11.18,13.58-22.72,17.59l1.15,3.35c10-3.45,17.51-8.44,22-14.57a33,33,0,0,0,2.26-11.91A22.33,22.33,0,0,0,55.16,9.94Z"/></g><g id="shape3282-11"><path class="cls-4" d="M9.64,14.38C3,21,11.22,32.67,17.89,39.35l1.25,1.25a1.77,1.77,0,0,0,2.5,0l2.5-2.5a1.77,1.77,0,1,0-2.5-2.51L20.3,36.93C11.14,27.74,8.19,20.51,12,16.72s11-.84,20.17,8.35L30.8,26.4a1.77,1.77,0,1,0,2.5,2.51l2.5-2.51a1.77,1.77,0,0,0,0-2.5l-1.25-1.26C27.89,16,16.26,7.74,9.64,14.38Z"/></g></g></g></svg>