<svg id="Layer_1" data-name="Layer 1" xmlns="http://www.w3.org/2000/svg" xmlns:xlink="http://www.w3.org/1999/xlink" width="45.35" height="56.69" viewBox="0 0 45.35 56.69"><defs><style>.cls-1{fill:#0078d4;}.cls-1,.cls-2{fill-rule:evenodd;}.cls-2{fill:url(#linear-gradient);}</style><linearGradient id="linear-gradient" x1="-275.59" y1="430.46" x2="-274.59" y2="430.46" gradientTransform="matrix(0, 51.97, 41.6, 0, -17884.52, 14325.63)" gradientUnits="userSpaceOnUse"><stop offset="0.18" stop-color="#5ea0ef"/><stop offset="1" stop-color="#0078d4"/></linearGradient></defs><g id="group3305-1"><g id="group3306-2"><g id="shape3307-3"><path class="cls-1" d="M45.35,26.46c0,15.25-18,27.53-21.93,30a1.41,1.41,0,0,1-1.48,0C18,54,0,41.71,0,26.46V8.13A1.44,1.44,0,0,1,1.39,6.68C15.41,6.3,12.17,0,22.68,0S30,6.3,44,6.68a1.43,1.43,0,0,1,1.38,1.45Z"/></g><g id="shape3308-5"><path class="cls-2" d="M43.48,26.62c0,14-16.52,25.2-20.12,27.53a1.33,1.33,0,0,1-1.36,0C18.39,51.88,1.88,40.61,1.88,26.62V9.8A1.31,1.31,0,0,1,3.14,8.48C16,8.13,13,2.37,22.68,2.37s6.68,5.76,19.53,6.11A1.31,1.31,0,0,1,43.48,9.8Z"/></g></g></g></svg>