<svg id="Layer_1" data-name="Layer 1" xmlns="http://www.w3.org/2000/svg" width="48.19" height="56.69" viewBox="0 0 48.19 56.69"><defs><style>.cls-1{fill:#bc3200;}.cls-1,.cls-2,.cls-3,.cls-4,.cls-5{fill-rule:evenodd;}.cls-2{fill:#d13600;}.cls-3{fill:#e15815;}.cls-4{fill:#ffb290;}.cls-5{fill:#ffdbca;}</style></defs><g id="group2845-1"><g id="shape2846-2"><path class="cls-1" d="M38.05,0H10.13A2,2,0,0,0,8.19,2.06V8.8H40V2.06A2,2,0,0,0,38.05,0Z"/></g><g id="shape2847-4"><path class="cls-2" d="M41.34,4.12H6.85A2.89,2.89,0,0,0,4,7.1V9.44H44.15V7.1A2.9,2.9,0,0,0,41.34,4.12Z"/></g><g id="shape2848-6"><path class="cls-3" d="M45.38,8.34H2.81a2.89,2.89,0,0,0-2.81,3V53.7a2.91,2.91,0,0,0,2.82,3H45.37a2.91,2.91,0,0,0,2.82-3V11.32A2.9,2.9,0,0,0,45.38,8.34Z"/></g><g id="shape2849-8"><path class="cls-4" d="M14.22,12.71a5.52,5.52,0,0,0-5.35,5.67,5.52,5.52,0,0,0,5.35,5.67,5.52,5.52,0,0,0,5.35-5.67A5.52,5.52,0,0,0,14.22,12.71Zm0,9.34a3.58,3.58,0,0,1-3.47-3.68,3.58,3.58,0,0,1,3.47-3.69,3.59,3.59,0,0,1,3.48,3.69A3.59,3.59,0,0,1,14.22,22.05Z"/></g><g id="shape2850-10"><path class="cls-4" d="M16.23,23.43h-4v11.5h4Z"/></g><g id="shape2851-12"><path class="cls-5" d="M39.63,18.46a5.36,5.36,0,1,0-10.7,0,5.67,5.67,0,0,0,3.43,5.29v3.9l-20.09,7h0V41.9a5.68,5.68,0,0,0-3.35,5.26,5.52,5.52,0,0,0,5.35,5.67,5.52,5.52,0,0,0,5.35-5.67,5.7,5.7,0,0,0-3.27-5.24V37.45l20-7,0-.08h0V23.71A5.69,5.69,0,0,0,39.63,18.46ZM17.69,47.17a3.58,3.58,0,0,1-3.47,3.68,3.69,3.69,0,0,1,0-7.36A3.57,3.57,0,0,1,17.69,47.17Zm16.59-25a3.59,3.59,0,0,1-3.48-3.68,3.48,3.48,0,1,1,7,0A3.59,3.59,0,0,1,34.28,22.13Z"/></g></g></svg>