<svg id="Layer_1" data-name="Layer 1" xmlns="http://www.w3.org/2000/svg" xmlns:xlink="http://www.w3.org/1999/xlink" width="45.35" height="56.7" viewBox="0 0 45.35 56.7"><defs><style>.cls-1{fill:#fff;}.cls-1,.cls-2,.cls-4,.cls-5{fill-rule:evenodd;}.cls-2{fill:url(#linear-gradient);}.cls-3{fill:none;}.cls-4{fill:#0078d4;}.cls-5{fill:#83b9f9;}</style><linearGradient id="linear-gradient" x1="-287.61" y1="419.34" x2="-286.61" y2="419.34" gradientTransform="matrix(0, -56.7, -45.35, 0, 19039.84, -16250.77)" gradientUnits="userSpaceOnUse"><stop offset="0" stop-color="#0078d4"/><stop offset="0.82" stop-color="#5ea0ef"/></linearGradient></defs><g id="group2778-1"><g id="group2779-2"><g id="group2780-3"><g id="shape2781-4"><path class="cls-1" d="M26,.4H2.21A1.91,1.91,0,0,0,.33,2.33v52a1.9,1.9,0,0,0,1.88,1.93H43.14A1.9,1.9,0,0,0,45,54.36V19.93A1.91,1.91,0,0,0,43.14,18H29.55a1.87,1.87,0,0,1-1.85-1.89V2.33A1.89,1.89,0,0,0,26,.4Z"/></g><g id="shape2782-6"><path class="cls-2" d="M25,2.84V15.92a4.74,4.74,0,0,0,4.69,4.79H42.51V53.86H2.84v-51H25ZM26,0H1.92A1.91,1.91,0,0,0,0,1.89V54.77A1.91,1.91,0,0,0,1.88,56.7H43.44a1.91,1.91,0,0,0,1.91-1.9v-35a1.91,1.91,0,0,0-1.89-1.92H29.65A1.91,1.91,0,0,1,27.77,16v-14A1.91,1.91,0,0,0,26,0Z"/><path class="cls-3" d="M25,2.84V15.92a4.74,4.74,0,0,0,4.69,4.79H42.51V53.86H2.84v-51H25M26,0H1.92A1.91,1.91,0,0,0,0,1.89V54.77A1.91,1.91,0,0,0,1.88,56.7H43.44a1.91,1.91,0,0,0,1.91-1.9v-35a1.91,1.91,0,0,0-1.89-1.92H29.65A1.91,1.91,0,0,1,27.77,16v-14A1.91,1.91,0,0,0,26,0"/></g><g id="shape2783-11"><path class="cls-4" d="M44.63,18.22,27.11.41V14.84a3.35,3.35,0,0,0,3.3,3.38H44.63Z"/></g></g><g id="shape2784-13"><path class="cls-5" d="M36.76,26.62H16.07a1.39,1.39,0,0,0,0,2.78H36.89a1.39,1.39,0,0,0,0-2.78Zm0,8.25H16.07A1.36,1.36,0,0,0,14.53,36a1.38,1.38,0,0,0,1.14,1.57,1.34,1.34,0,0,0,.4,0H36.89a1.36,1.36,0,0,0,1.54-1.16,1.39,1.39,0,0,0-1.14-1.58,1.34,1.34,0,0,0-.4,0Zm0,8.28H16.07a1.38,1.38,0,0,0-1.33,1.41,1.36,1.36,0,0,0,1.33,1.36H36.89a1.39,1.39,0,0,0,0-2.77Z"/></g><g id="shape2785-15"><path class="cls-4" d="M8.76,30.79V26.33a1.9,1.9,0,0,1-.63.23l-.73.21V25.38a9,9,0,0,0,1-.4,4.61,4.61,0,0,0,1-.48h1.06v6.29ZM7.47,39.57v-.51a4.22,4.22,0,0,1,0-.87q.17-.39.36-.75a6.43,6.43,0,0,1,.93-.88A3,3,0,0,0,9.45,36a.32.32,0,0,1,.23-.3.5.5,0,0,0,0-.38c0-.44-.23-.64-.73-.64a2.19,2.19,0,0,0-1.42.58V33.73a3.72,3.72,0,0,1,.93-.38,3.54,3.54,0,0,1,.92,0,2.28,2.28,0,0,1,1.52.51,1.72,1.72,0,0,1,.57,1.32,2.46,2.46,0,0,1-.3,1.15,4,4,0,0,1-1.06.94l-.66.41a.53.53,0,0,0-.19.33h2.4v1.42Zm4.1,7A1.53,1.53,0,0,1,10.94,48a3.07,3.07,0,0,1-1.75.51,4.12,4.12,0,0,1-.86,0l-.76-.24V46.8a1.74,1.74,0,0,0,.62.24,3,3,0,0,0,.73,0,2,2,0,0,0,.69,0,.65.65,0,0,0,.24-.44.52.52,0,0,0-.4-.51,3,3,0,0,0-.79-.17H8.19V44.61h.5a1,1,0,0,0,.77-.21A.41.41,0,0,0,9.69,44s0-.3,0-.37-.3,0-.56,0A2.44,2.44,0,0,0,8,43.93V42.54a4,4,0,0,1,1.52-.33,2.58,2.58,0,0,1,1.62.44,1.27,1.27,0,0,1,.53,1.14,1.49,1.49,0,0,1-.3,1,1.53,1.53,0,0,1-.86.51,1.32,1.32,0,0,1,1,.5A1.88,1.88,0,0,1,11.57,46.6Z"/></g></g></g></svg>