<svg id="Layer_1" data-name="Layer 1" xmlns="http://www.w3.org/2000/svg" xmlns:xlink="http://www.w3.org/1999/xlink" width="56.69" height="56.7" viewBox="0 0 56.69 56.7"><defs><style>.cls-1,.cls-10,.cls-2,.cls-3,.cls-4,.cls-5,.cls-6,.cls-7,.cls-8,.cls-9{fill-rule:evenodd;}.cls-1{fill:url(#linear-gradient);}.cls-2{fill:url(#linear-gradient-2);}.cls-3{fill:url(#linear-gradient-3);}.cls-4{fill:url(#linear-gradient-4);}.cls-5{fill:url(#linear-gradient-5);}.cls-6{fill:url(#linear-gradient-6);}.cls-7{fill:url(#linear-gradient-8);}.cls-8{fill:url(#linear-gradient-9);}.cls-9{fill:#5fb832;}.cls-10{fill:#fff;}</style><linearGradient id="linear-gradient" x1="-270.21" y1="435.81" x2="-269.21" y2="435.81" gradientTransform="matrix(0, 56.69, 56.69, 0, -24677.5, 15318.45)" gradientUnits="userSpaceOnUse"><stop offset="0" stop-color="#008bf1"/><stop offset="0.22" stop-color="#0086ec"/><stop offset="0.49" stop-color="#0078dd"/><stop offset="0.79" stop-color="#0061c4"/><stop offset="1" stop-color="#004dae"/></linearGradient><linearGradient id="linear-gradient-2" x1="-264.54" y1="358.26" x2="-263.54" y2="358.26" gradientTransform="matrix(22.2, 0, 0, -4.73, 5907.35, 1718.99)" gradientUnits="userSpaceOnUse"><stop offset="0" stop-color="#00315c"/><stop offset="0.79" stop-color="#0080e5"/></linearGradient><linearGradient id="linear-gradient-3" x1="-288.06" y1="504.14" x2="-287.06" y2="504.14" gradientTransform="matrix(-22.2, 0, 0, 4.73, -6372.66, -2330.25)" xlink:href="#linear-gradient-2"/><linearGradient id="linear-gradient-4" x1="-291.95" y1="375.91" x2="-290.95" y2="375.91" gradientTransform="matrix(0, -22.05, -4.72, 0, 1798.68, -6415.36)" gradientUnits="userSpaceOnUse"><stop offset="0" stop-color="#00315c"/><stop offset="0.79" stop-color="#008af0"/></linearGradient><linearGradient id="linear-gradient-5" x1="-291.95" y1="375.91" x2="-290.95" y2="375.91" gradientTransform="matrix(0, -22.05, -4.72, 0, 1806.55, -6415.36)" xlink:href="#linear-gradient-4"/><linearGradient id="linear-gradient-6" x1="-260.65" y1="486.5" x2="-259.65" y2="486.5" gradientTransform="matrix(0, 22.05, 4.72, 0, -2293.91, 5782.06)" gradientUnits="userSpaceOnUse"><stop offset="0" stop-color="#00294f"/><stop offset="0.7" stop-color="#005ba6"/><stop offset="0.83" stop-color="#0457ac"/><stop offset="1" stop-color="#0050b2"/></linearGradient><linearGradient id="linear-gradient-8" x1="-264.54" y1="358.26" x2="-263.54" y2="358.26" gradientTransform="matrix(22.2, 0, 0, -4.73, 5907.35, 1726.87)" gradientUnits="userSpaceOnUse"><stop offset="0" stop-color="#00315c"/><stop offset="0.58" stop-color="#0e71c7"/><stop offset="1" stop-color="#0a75d5"/></linearGradient><linearGradient id="linear-gradient-9" x1="-288.06" y1="504.14" x2="-287.06" y2="504.14" gradientTransform="matrix(-22.2, 0, 0, 4.73, -6372.66, -2330.25)" xlink:href="#linear-gradient-8"/></defs><g id="group2824-1"><g id="group2825-2"><g id="shape2826-3"><path class="cls-1" d="M26.77,26.78H0V0H26.77Zm-22-4.73H22.05V4.73H4.72Zm52,4.73H29.92V0H56.69Zm-22-4.73H52V4.73H34.65ZM26.77,56.7H0V29.93H26.77ZM4.72,52H22.05V34.65H4.72Zm52,4.73H29.92V29.93H56.69ZM34.65,52H52V34.65H34.65Z"/></g><g id="shape2827-7"><path class="cls-2" d="M56.69,22v4.73H34.49V22Z"/></g><g id="shape2828-11"><path class="cls-3" d="M0,56.7V52H22.2V56.7Z"/></g><g id="shape2829-15"><path class="cls-4" d="M22.05,0h4.72V22.05H22.05Z"/></g><g id="shape2830-19"><path class="cls-5" d="M29.92,0h4.72V22.05H29.92Z"/></g><g id="shape2831-22"><path class="cls-6" d="M4.72,56.7H0V34.65H4.72Z"/></g><g id="shape2832-26"><path class="cls-6" d="M4.72,56.7H0V34.65H4.72Z"/></g><g id="shape2833-29"><path class="cls-7" d="M56.69,29.92v4.73H34.49V29.92Z"/></g><g id="shape2834-33"><path class="cls-8" d="M0,56.7V52H22.2V56.7Z"/></g><g id="shape2835-37"><path class="cls-9" d="M47.25,28c0-4.41-1.26-9.92-3.47-16.38A16.58,16.58,0,0,1,41.89,15,19.44,19.44,0,0,0,28.35,9.45a18.9,18.9,0,1,0,18.9,18.9Z"/></g><g id="shape2836-39"><path class="cls-10" d="M43.62,36.85C38.9,43,29,40.94,22.68,41.26a18.83,18.83,0,0,0-2.21.15l1-.31c4.41-1.58,6.61-1.89,9.29-3.31,5.2-2.67,10.24-8.34,11.18-14.33C40,29.29,34,34.17,28.66,36.06a75.68,75.68,0,0,1-10.39,2.68L18,38.58c-4.56-2.2-4.72-12.13,3.47-15.28,3.62-1.41,7.09-.63,11-1.57,4.25-1.1,9-4.09,11-8.19C45.83,20.31,48.35,30.55,43.62,36.85ZM17,43a1.58,1.58,0,0,0,0-3.15A1.58,1.58,0,1,0,17,43Z"/></g></g></g></svg>