<svg id="Layer_1" data-name="Layer 1" xmlns="http://www.w3.org/2000/svg" width="56.69" height="56.69" viewBox="0 0 56.69 56.69"><defs><style>.cls-1{fill:#58b4d9;fill-rule:evenodd;}</style></defs><g id="group2837-1"><g id="group2838-2"><g id="group2839-3"><g id="group2840-4"><g id="group2841-5"><g id="shape2842-6"><path class="cls-1" d="M56.69,33.82,28.42,0,0,33.67l28.28,23ZM24.76,45.46V31.15a8.34,8.34,0,0,1-4.36-7.58,8.17,8.17,0,0,1,7.88-8.42,8.16,8.16,0,0,1,7.87,8.42A8.37,8.37,0,0,1,31.79,31v2.81l-.14.14L29,36.76l2.81,3v.14l-2.53,2.81,2.39,2.66L28.14,49Z"/></g></g><g id="group2843-8"><g id="shape2844-9"><path class="cls-1" d="M31.25,21.31c0-1.4-1.69-2.52-3-2.52a2.66,2.66,0,0,0-2.81,2.38,3.17,3.17,0,0,0,2.81,2.95A3,3,0,0,0,31.25,21.31Z"/></g></g></g></g></g></g></svg>