<svg id="Layer_1" data-name="Layer 1" xmlns="http://www.w3.org/2000/svg" xmlns:xlink="http://www.w3.org/1999/xlink" width="51.04" height="56.7" viewBox="0 0 51.04 56.7"><defs><style>.cls-1,.cls-2{fill-rule:evenodd;}.cls-1{fill:url(#linear-gradient);}.cls-2{fill:#fff;fill-opacity:0.8;}</style><linearGradient id="linear-gradient" x1="-272.73" y1="428.73" x2="-271.73" y2="428.73" gradientTransform="matrix(4.5, 56.48, 50.84, -5, -20549.69, 17546.15)" gradientUnits="userSpaceOnUse"><stop offset="0" stop-color="#32d4f5"/><stop offset="0.21" stop-color="#30cff0"/><stop offset="0.47" stop-color="#2bc0e3"/><stop offset="0.75" stop-color="#23a7cd"/><stop offset="1" stop-color="#198ab3"/></linearGradient></defs><g id="group3009-1"><g id="group3010-2"><g id="shape3011-3"><path class="cls-1" d="M51,51.59c-1.46-11.79-7.18-21.78-17.74-25a14.5,14.5,0,0,0,4.3-19.94A14.22,14.22,0,0,0,17.81,2.29a14.51,14.51,0,0,0-.18,24.16C7,29.33,1.32,38.38,0,51.63a4.6,4.6,0,0,0,4.06,5l.47,0H46.49A4.56,4.56,0,0,0,51,52.14,4.93,4.93,0,0,0,51,51.59Z"/></g><g id="shape3012-7"><path class="cls-2" d="M25.56,28.88a14.16,14.16,0,0,1-7.75-2.31L25.48,46.8,33.1,26.71A14.16,14.16,0,0,1,25.56,28.88Z"/></g></g></g></svg>