<svg id="Layer_1" data-name="Layer 1" xmlns="http://www.w3.org/2000/svg" width="54.35" height="56.7" viewBox="0 0 54.35 56.7"><defs><style>.cls-1{fill:#57a300;}.cls-1,.cls-2,.cls-3{fill-rule:evenodd;}.cls-2{fill:#0072c6;}.cls-3{fill:#ff8c00;}</style></defs><g id="group3314-1"><g id="group3315-2"><g id="shape3316-3"><path class="cls-1" d="M28.79,25.27,19.3,16.35h7.55L39.64,28.24,27.05,40.13H19.3l9.49-8.92H2a2,2,0,0,1-1.7-2.06V26.69c0-1,.73-1.43,1.7-1.43Z"/></g><g id="shape3317-5"><path class="cls-2" d="M5.58,15a4.73,4.73,0,0,0,6.65-.1l.11-.1a19.13,19.13,0,0,1,26.89.28l.24.24A18.73,18.73,0,0,1,44.76,29.8a4.9,4.9,0,0,1,2.15,1.93v0l4.81,8.29A28.09,28.09,0,0,0,46,8.24,29,29,0,0,0,25.73,0,28.63,28.63,0,0,0,5.48,8.24l-.1.1a4.63,4.63,0,0,0,.1,6.59A.94.94,0,0,0,5.58,15Zm20.8,39.4a4.75,4.75,0,0,1,.68-2.35l3-5.28a19,19,0,0,1-17.81-5.26l-.1-.09a4.72,4.72,0,0,0-6.65.09l-.1.1a4.64,4.64,0,0,0,.09,6.6h0a28.94,28.94,0,0,0,20.25,8.24l1.08,0A4.44,4.44,0,0,1,26.38,54.43Z"/></g><g id="shape3318-7"><path class="cls-3" d="M28.12,53.26l-6-10-6-10.32a2.2,2.2,0,0,0-1.89-1.17A2.25,2.25,0,0,0,12.37,33l-6,9.68-6,10.63A2.19,2.19,0,0,0,1,56.31a2.25,2.25,0,0,0,1.33.39h24a2.21,2.21,0,0,0,2.29-2.12A2.15,2.15,0,0,0,28.12,53.26ZM14.57,39.2h1.58l-.63,9.06H13l-.32-9.06ZM14.26,53a1.89,1.89,0,0,1-1.89-1.88h0A1.89,1.89,0,1,1,14.27,53Z"/></g></g></g></svg>