<svg id="Layer_1" data-name="Layer 1" xmlns="http://www.w3.org/2000/svg" width="56.69" height="56.69" viewBox="0 0 56.69 56.69"><defs><style>.cls-1{fill:#59b4d9;}.cls-1,.cls-2,.cls-3{fill-rule:evenodd;}.cls-2{fill:#fff;fill-opacity:0.7;}.cls-3{fill:#0072c6;}</style></defs><g id="group3162-1"><g id="group3163-2"><g id="shape3164-3"><path class="cls-1" d="M50.08,55.4c-.57,0,0,.12-.47,0V49.28H7.09c-.25,0-5.91-.06-5.91-5V6.05c0-3.32,2.76-4.82,5.31-4.82s5.32,1.51,5.32,4.82V7.28H45c6.39,0,10.51,2,10.51,8.77v35.7C55.51,54.52,53.12,55.4,50.08,55.4Z"/></g><g id="shape3165-5"><path class="cls-2" d="M50.08,55.4c-.57,0,0,.12-.47,0V49.28H7.09c-.25,0-5.91-.06-5.91-5V6.05c0-3.32,2.76-4.82,5.31-4.82s5.32,1.51,5.32,4.82V7.28H45c6.39,0,10.51,2,10.51,8.77v35.7C55.51,54.52,53.12,55.4,50.08,55.4Z"/></g><g id="shape3166-7"><path class="cls-3" d="M45,6.05H13c0-3.71-3-6-6.49-6S0,2.34,0,6.05V43.1c0,6.18,3.54,7.41,7.09,7.41H48.43v6.18s8.26,0,8.26-6.18V16.05C56.69,8.64,53.15,6.05,45,6.05Zm9.33,44.71a9.52,9.52,0,0,0-7-2.72H7.09c-2.37,0-4.73-.61-4.73-4.32A4.36,4.36,0,0,1,7.09,39.4c3.54,0,5.78,3.7,5.78,3.7H13V8.52H46.18c4.73,0,8.15,1.36,8.15,6.3Z"/></g><g id="shape3167-9"><path class="cls-3" d="M41.33,36.87l1.78,4.94,1.77-4.94Zm0-17.29h3.55V34.4H41.33Zm1.78-6a1.78,1.78,0,0,1,1.77,1.78l0,1.8-3.52,0V15.31A1.78,1.78,0,0,1,43.11,13.53ZM27.16,12.29c.65,0,1.18.8,1.18,1.79l0,1.79-2.34,0V14.07C26,13.09,26.51,12.29,27.16,12.29Z"/></g><g id="shape3168-11"><path class="cls-3" d="M27.17,14.75a4.72,4.72,0,0,0-4.61,4.82,4.61,4.61,0,1,0,9.22,0A4.72,4.72,0,0,0,27.17,14.75Zm0,8.4a3.58,3.58,0,1,1,3.42-3.58A3.51,3.51,0,0,1,27.17,23.15Z"/></g><g id="shape3169-13"><path class="cls-3" d="M27.17,23.18V20.81L25,22.43,20.22,37.7l-.34,5.08,2.58-4.32h0l4.75-15.27Z"/></g><g id="shape3170-15"><path class="cls-3" d="M34.11,37.7,29.37,22.43l-2.21-1.62v2.37h0l4.74,15.27h0l2.58,4.32Z"/></g><g id="shape3171-17"><path class="cls-3" d="M36.62,31.93H17.72a.62.62,0,0,1,0-1.24H36.62a.62.62,0,0,1,0,1.23Z"/></g></g></g></svg>