<svg id="Layer_1" data-name="Layer 1" xmlns="http://www.w3.org/2000/svg" width="56.34" height="56.34" viewBox="0 0 56.34 56.34"><defs><style>.cls-1{fill:#0078d4;}.cls-1,.cls-2,.cls-3,.cls-4,.cls-5{fill-rule:evenodd;}.cls-2{fill:#b8d432;}.cls-3{fill:#59b4d9;}.cls-4,.cls-5{fill:#fff;}.cls-4{fill-opacity:0.2;}</style></defs><g id="group3104-1"><g id="group3105-2"><g id="shape3106-3"><path class="cls-1" d="M56.33,0H0L56.33,56.33Z"/></g><g id="shape3107-5"><path class="cls-2" d="M3,56.08a.89.89,0,0,0,1.25,0L25,35.37a.88.88,0,0,0,0-1.25l-2.73-2.73a.89.89,0,0,0-1.25,0L.27,52.1a.88.88,0,0,0,0,1.25Z"/></g><g id="shape3108-7"><path class="cls-2" d="M3,40.13a.89.89,0,0,0,1.25,0L17,27.35a.89.89,0,0,0,0-1.25l-2.72-2.73a.88.88,0,0,0-1.25,0L.28,36.15a.88.88,0,0,0,0,1.25Z"/></g><g id="shape3109-9"><path class="cls-3" d="M16.66,16.66l23,23L56.33,23V0h-23Z"/></g><g id="shape3110-11"><path class="cls-2" d="M18.82,56.06a.89.89,0,0,0,1.25,0L32.84,43.28a.88.88,0,0,0,0-1.25L30.12,39.3a.89.89,0,0,0-1.25,0L16.09,52.08a.89.89,0,0,0,0,1.25Z"/></g><g id="shape3111-13"><path class="cls-4" d="M56.34,56.33V0L28.17,28.17Z"/></g><g id="shape3112-15"><path class="cls-5" d="M30.55,20a1.25,1.25,0,0,0,1.77,0l2.2-2.2a1.25,1.25,0,0,0,0-1.77l-2.2-2.21a1.27,1.27,0,0,0-1.77,0L28.34,16a1.27,1.27,0,0,0,0,1.77Z"/></g><g id="shape3113-17"><path class="cls-5" d="M38.51,12a1.24,1.24,0,0,0,1.76,0l2.21-2.21a1.24,1.24,0,0,0,0-1.76L40.27,5.86a1.24,1.24,0,0,0-1.76,0L36.3,8.07a1.24,1.24,0,0,0,0,1.76Z"/></g><g id="shape3114-19"><path class="cls-5" d="M38.5,28a1.25,1.25,0,0,0,1.77,0l2.21-2.21a1.25,1.25,0,0,0,0-1.77l-2.21-2.2a1.25,1.25,0,0,0-1.77,0L36.3,24a1.25,1.25,0,0,0,0,1.77Z"/></g><g id="shape3115-21"><path class="cls-5" d="M46.46,20a1.27,1.27,0,0,0,1.77,0l2.2-2.21a1.25,1.25,0,0,0,0-1.77l-2.2-2.2a1.25,1.25,0,0,0-1.77,0L44.25,16a1.27,1.27,0,0,0,0,1.77Z"/></g></g></g></svg>