<svg id="Layer_1" data-name="Layer 1" xmlns="http://www.w3.org/2000/svg" xmlns:xlink="http://www.w3.org/1999/xlink" width="42.52" height="56.69" viewBox="0 0 42.52 56.69"><defs><style>.cls-1,.cls-2,.cls-3,.cls-4,.cls-5{fill-rule:evenodd;}.cls-1{fill:url(#linear-gradient);}.cls-2{fill:#e8e8e8;}.cls-3{fill:#50e6ff;}.cls-4{fill:#198ab3;}.cls-5{fill:#f2f2f2;}</style><linearGradient id="linear-gradient" x1="-278.12" y1="417.7" x2="-277.12" y2="417.7" gradientTransform="matrix(42.52, 0, 0, -48.95, 11825.68, 20478.44)" gradientUnits="userSpaceOnUse"><stop offset="0" stop-color="#005ba1"/><stop offset="0.07" stop-color="#0060a9"/><stop offset="0.36" stop-color="#0071c8"/><stop offset="0.52" stop-color="#0078d4"/><stop offset="0.64" stop-color="#0074cd"/><stop offset="0.82" stop-color="#006abb"/><stop offset="1" stop-color="#005ba1"/></linearGradient></defs><g id="group3097-1"><g id="group3098-2"><g id="shape3099-3"><path class="cls-1" d="M21.26,15.47C9.52,15.47,0,12.14,0,7.74V49c0,4.23,9.35,7.67,21,7.73h.3C33,56.69,42.52,53.36,42.52,49V7.74C42.52,12,33,15.47,21.26,15.47Z"/></g><g id="shape3100-7"><path class="cls-2" d="M42.52,7.74c0,4.3-9.52,7.73-21.26,7.73S0,12.14,0,7.74,9.52,0,21.26,0,42.52,3.33,42.52,7.74Z"/></g><g id="shape3101-9"><path class="cls-3" d="M37.58,7.11c0,2.73-7.33,4.93-16.32,4.93S4.94,9.84,4.94,7.11s7.33-4.9,16.32-4.9S37.58,4.41,37.58,7.11Z"/></g><g id="shape3102-11"><path class="cls-4" d="M21.26,8.34a37.91,37.91,0,0,0-12.9,1.9A37.86,37.86,0,0,0,21.26,12a36.94,36.94,0,0,0,12.9-1.93A38.88,38.88,0,0,0,21.26,8.34Z"/></g><g id="shape3103-13"><path class="cls-5" d="M38.67,19.41c-1.09,0,.2.83-3.68,1s-5.24,4.16-7.76,7.53a16.25,16.25,0,0,1-9.95,4.7A12.16,12.16,0,0,0,11,37.28,3,3,0,0,1,8.69,39c-.9,0-2.86.27-2.86.27a11.43,11.43,0,0,0-2.35.8c.27,1.1,2.45.64,2.45.64a16.93,16.93,0,0,1-1.72,1.56,9.05,9.05,0,0,0,3.32.17c1.42,0,2.52-1.37,5.14-2.8s8.65,0,9.62,0,2.38-2.54,2.72-3.34c.26,1.8-2.72,6.67-2.72,6.67a7,7,0,0,0,5.5-3.33c.27-.34,1.1-2.07,1.2-1.9s.53.63.69.56a5.44,5.44,0,0,0,.83-.9,25.15,25.15,0,0,0,3.78-8.27c.23-.8.23-3.7,2.22-4.9s2.26-2.3,2.26-2.4v-.17a5.27,5.27,0,0,1-1.29-1.16.38.38,0,0,1,0-.36,2.57,2.57,0,0,0,1.59,1.26S39.76,19.41,38.67,19.41Zm-4.15,3.53h-.19a1.19,1.19,0,0,1-1-.27,1.6,1.6,0,0,1,1.72-1,1,1,0,0,1-.53,1.27Zm1.86,0A9.71,9.71,0,0,1,37.48,21a10.69,10.69,0,0,0-1.16,2.06Zm1.2-1.7a6.16,6.16,0,0,0-.27,1.7,5.4,5.4,0,0,1,0-1.27,4.87,4.87,0,0,0-.53,1.3,4.74,4.74,0,0,1,.73-1.6ZM31.9,36.75s-1.62,1.53-1.69,2.06,1.79,1.37,2.95,1.07A25,25,0,0,1,31.9,36.75Z"/></g></g></g></svg>