<svg id="Layer_1" data-name="Layer 1" xmlns="http://www.w3.org/2000/svg" xmlns:xlink="http://www.w3.org/1999/xlink" width="56.72" height="45.35" viewBox="0 0 56.72 45.35"><defs><style>.cls-1,.cls-3{fill:#0078d4;}.cls-1,.cls-2,.cls-4{fill-rule:evenodd;}.cls-2{fill:#fff;fill-opacity:0.8;}.cls-4{fill:url(#linear-gradient);}.cls-5{fill:url(#linear-gradient-2);}</style><linearGradient id="linear-gradient" x1="-263.47" y1="425.27" x2="-262.47" y2="425.27" gradientTransform="matrix(0, 24.98, 42.12, 0, -17891.3, 6601.81)" gradientUnits="userSpaceOnUse"><stop offset="0.22" stop-color="#32d4f5"/><stop offset="1" stop-color="#198ab3"/></linearGradient><linearGradient id="linear-gradient-2" x1="-261.59" y1="428.59" x2="-260.59" y2="428.59" gradientTransform="matrix(1.89, 23.03, 23.52, -1.85, -9565.24, 6819.75)" xlink:href="#linear-gradient"/></defs><g id="group3355-1"><g id="group3356-2"><g id="shape3357-3"><path class="cls-1" d="M54.19,37.83a2.45,2.45,0,0,0,2.52-2.4v0a.8.8,0,0,0-.06-.4c-1-7.7-5.48-14-14-14S29.43,26.43,28.55,35a2.52,2.52,0,0,0,2.27,2.71H54.19Z"/></g><g id="shape3358-5"><path class="cls-2" d="M42.65,23a7.71,7.71,0,0,1-4.28-1.23l4.25,10.84L46.8,21.81A8.07,8.07,0,0,1,42.65,23Z"/></g><g id="shape3359-7"><ellipse class="cls-3" cx="42.65" cy="15.22" rx="7.9" ry="7.73"/></g><g id="shape3360-9"><path class="cls-4" d="M38.37,45.35a3.71,3.71,0,0,0,3.74-3.66,3.09,3.09,0,0,0,0-.43c-1.47-11.53-8.17-20.89-20.95-20.89S1.4,28.32,0,41.16a3.71,3.71,0,0,0,3.37,4H38.31Z"/></g><g id="shape3361-13"><path class="cls-2" d="M21.32,23.11A11.82,11.82,0,0,1,15,21.26l6.29,16.17,6.29-16A12.11,12.11,0,0,1,21.32,23.11Z"/></g><g id="shape3362-15"><ellipse class="cls-5" cx="21.22" cy="11.55" rx="11.8" ry="11.55"/></g></g></g></svg>