<svg id="Layer_1" data-name="Layer 1" xmlns="http://www.w3.org/2000/svg" xmlns:xlink="http://www.w3.org/1999/xlink" width="56.69" height="58.44" viewBox="0 0 56.69 58.44"><defs><style>.cls-1,.cls-2,.cls-3,.cls-4{fill-rule:evenodd;}.cls-1{fill:url(#linear-gradient);}.cls-2{fill:#f2f2f2;}.cls-3{fill:#50e6ff;}.cls-4{fill:url(#linear-gradient-2);}</style><linearGradient id="linear-gradient" x1="-271.1" y1="431.65" x2="-270.1" y2="431.65" gradientTransform="matrix(0, 56.4, 34.02, 0, -14644.96, 15289.8)" gradientUnits="userSpaceOnUse"><stop offset="0" stop-color="#5ea0ef"/><stop offset="0.18" stop-color="#559cec"/><stop offset="0.47" stop-color="#3c91e5"/><stop offset="0.84" stop-color="#1380da"/><stop offset="1" stop-color="#0078d4"/></linearGradient><linearGradient id="linear-gradient-2" x1="-289.31" y1="418.34" x2="-288.31" y2="418.34" gradientTransform="matrix(0, -27.04, -39.42, 0, 16520.96, -7767.47)" gradientUnits="userSpaceOnUse"><stop offset="0" stop-color="#198ab3"/><stop offset="0.14" stop-color="#22a5cb"/><stop offset="0.3" stop-color="#29bade"/><stop offset="0.47" stop-color="#2ec9eb"/><stop offset="0.68" stop-color="#31d1f3"/><stop offset="1" stop-color="#32d4f5"/></linearGradient></defs><g id="group2753-1"><g id="shape2754-2"><path class="cls-1" d="M54.77,0H24.63a1.94,1.94,0,0,0-2,1.88V43.67a35.44,35.44,0,0,1,4.88-3.35h5.72l3.16,4.09V50.6l-4,2.82-5.54-.67-4.23-3.89v5.66a1.94,1.94,0,0,0,2,1.88H54.77a1.9,1.9,0,0,0,1.92-1.88V1.88A1.9,1.9,0,0,0,54.77,0Z"/></g><g id="shape2755-6"><path class="cls-2" d="M27.18,5.86h5.54a.48.48,0,0,1,.48.47v7a.48.48,0,0,1-.49.47H27.18a.48.48,0,0,1-.49-.46v-7a.47.47,0,0,1,.48-.46Zm9.74,0h5.54a.48.48,0,0,1,.48.47v7a.48.48,0,0,1-.49.47H36.92a.48.48,0,0,1-.49-.46v-7a.47.47,0,0,1,.48-.46Zm9.77,0h5.54a.48.48,0,0,1,.48.47v7a.48.48,0,0,1-.49.47H46.69a.48.48,0,0,1-.49-.46v-7a.47.47,0,0,1,.48-.46ZM27.18,18.45h5.54a.48.48,0,0,1,.48.47v7a.48.48,0,0,1-.49.47H27.18a.48.48,0,0,1-.49-.46V19a.47.47,0,0,1,.4-.53h.08Zm9.74,0h5.54a.48.48,0,0,1,.48.47v7a.48.48,0,0,1-.49.47H36.92a.48.48,0,0,1-.49-.46V19a.47.47,0,0,1,.4-.53h.08Zm9.77,0h5.54a.48.48,0,0,1,.48.47v7a.48.48,0,0,1-.49.47H46.69A.48.48,0,0,1,46.2,26V19a.47.47,0,0,1,.4-.53h.08ZM27.18,31.18h5.54a.48.48,0,0,1,.48.47v6.89a.48.48,0,0,1-.49.47H27.18a.48.48,0,0,1-.49-.46v-6.9a.47.47,0,0,1,.48-.46Zm9.74,0h5.54a.48.48,0,0,1,.48.47v6.89a.48.48,0,0,1-.49.47H36.92a.48.48,0,0,1-.49-.46v-6.9a.47.47,0,0,1,.48-.46Zm0,12.65h5.54a.48.48,0,0,1,.48.47V54.62a.48.48,0,0,1-.49.47H36.92a.48.48,0,0,1-.49-.46V44.3a.47.47,0,0,1,.48-.46Zm9.77-12.65h5.54a.48.48,0,0,1,.48.47v6.89a.48.48,0,0,1-.49.47H46.69a.48.48,0,0,1-.49-.46v-6.9a.47.47,0,0,1,.48-.46Z"/></g><g id="shape2756-8"><path class="cls-3" d="M30.07,41.9a4.43,4.43,0,0,0-4.26,3.35H10.33a8.41,8.41,0,0,0-.28,2.18v.2H25.81a4.47,4.47,0,0,0,5.64,2.67,4.29,4.29,0,0,0,2.74-5.5A4.42,4.42,0,0,0,30.07,41.9Z"/></g><g id="shape2757-10"><path class="cls-4" d="M42.11,40.09a11.11,11.11,0,0,0-11.7-10.42,11.49,11.49,0,0,0-11,7.3,10.9,10.9,0,0,0-8.74,6.7H24.91A6,6,0,0,1,32.81,41a5.69,5.69,0,0,1,2.74,7.7,6,6,0,0,1-10.74-.11H10.29A11,11,0,0,0,21.23,56.7H40.77a9,9,0,0,0,8.94-8.11A8.79,8.79,0,0,0,42.11,40.09Z"/></g><g id="shape2758-14"><path class="cls-3" d="M30.07,49.8a4.46,4.46,0,0,0-4.27,3.35H10.32A8,8,0,0,1,8.7,53a7.82,7.82,0,0,1-6.26-7.33A7.88,7.88,0,0,1,9.56,38h.76l.24-.67A8.82,8.82,0,0,1,19,31.55a9.15,9.15,0,0,1,7.85,4.25,11.16,11.16,0,0,1,2.58-.3,11.46,11.46,0,0,0-10.32-6.33A11.31,11.31,0,0,0,8.5,35.7,10.13,10.13,0,0,0,0,45.48,10.1,10.1,0,0,0,7.71,55a6.92,6.92,0,0,0,2.51.4H25.8a4.46,4.46,0,0,0,5.55,2.86,4.3,4.3,0,0,0,2.93-5.4A4.42,4.42,0,0,0,30.07,49.8Z"/></g></g></svg>