<svg id="Layer_1" data-name="Layer 1" xmlns="http://www.w3.org/2000/svg" width="56.7" height="51.02" viewBox="0 0 56.7 51.02"><defs><style>.cls-1{fill:#0a0;stroke:#7b30a0;stroke-miterlimit:3;stroke-opacity:0;stroke-width:0.07px;}.cls-1,.cls-12,.cls-2,.cls-3,.cls-4,.cls-5,.cls-6,.cls-7{fill-opacity:0;}.cls-2{fill:#353564;}.cls-2,.cls-3,.cls-4,.cls-5,.cls-6,.cls-7,.cls-9{fill-rule:evenodd;}.cls-3{fill:#afafde;}.cls-4{fill:#e9e9ff;}.cls-5{fill:#4d4d9f;}.cls-6{fill:#d7d7ff;}.cls-7{fill:#8686bf;}.cls-8{fill:#0179d3;}.cls-10,.cls-9{fill:#59b4d9;}.cls-11,.cls-12{fill:#fff;}</style></defs><g id="group3031-1"><g id="shape3032-2"><rect class="cls-1" x="1.66" y="11.33" width="48.47" height="28.92"/></g><g id="group3033-4"><g id="shape3034-5"><path class="cls-2" d="M10.6,35.51v4.35l2.52-.18V36.14Z"/></g><g id="shape3035-7"><path class="cls-3" d="M10.6,39.73l1.49.13,2.48-.23-1.45-.08Z"/></g><g id="shape3036-9"><path class="cls-4" d="M13.11,36l1.45-.29v3.91l-1.45-.08Z"/></g><g id="shape3037-11"><path class="cls-5" d="M10.6,35.39,12.09,35l2.48.78L13.12,36Z"/></g><g id="shape3038-13"><path class="cls-6" d="M12.09,34.94v4.92l2.47-.23V35.72Z"/></g><g id="shape3039-15"><path class="cls-7" d="M10.6,35.38l1.49-.44v4.92l-1.49-.13Z"/></g></g><g id="shape3040-17"><rect class="cls-8" y="8.84" width="56.69" height="42.18"/></g><g id="shape3041-19"><path class="cls-9" d="M0,9a.43.43,0,0,0,.42.44H56.28A.43.43,0,0,0,56.7,9V.44A.43.43,0,0,0,56.27,0H.42A.43.43,0,0,0,0,.44Z"/></g><g id="shape3042-21"><rect class="cls-10" x="38.15" y="15.66" width="7.26" height="29.1"/></g><g id="shape3043-23"><rect class="cls-11" x="31.32" y="29.47" width="4.55" height="15.29"/></g><g id="shape3044-25"><rect class="cls-11" x="26.33" y="36.56" width="2.89" height="8.2"/></g><g id="shape3045-27"><rect class="cls-11" x="22.05" y="40.06" width="2.45" height="4.7"/></g><g id="shape3046-29"><rect class="cls-11" x="18.46" y="41.82" width="1.92" height="2.94"/></g><g id="shape3047-31"><rect class="cls-11" x="15.22" y="42.92" width="1.75" height="1.84"/></g><g id="shape3048-33"><ellipse class="cls-12" cx="8.43" cy="8.54" rx="4.89" ry="5.67"/></g><g id="shape3049-35"><rect class="cls-8" y="8.84" width="56.69" height="7.66"/></g><g id="shape3050-37"><ellipse class="cls-8" cx="5.18" cy="4.28" rx="1.33" ry="1.4"/></g><g id="shape3051-39"><ellipse class="cls-8" cx="9.36" cy="4.31" rx="1.33" ry="1.4"/></g><g id="shape3052-41"><ellipse class="cls-8" cx="13.5" cy="4.24" rx="1.33" ry="1.4"/></g></g></svg>