<svg id="Layer_1" data-name="Layer 1" xmlns="http://www.w3.org/2000/svg" width="54.13" height="54.13" viewBox="0 0 54.13 54.13"><defs><style>.cls-1{fill:#804998;}.cls-1,.cls-2,.cls-4,.cls-5,.cls-6{fill-rule:evenodd;}.cls-2,.cls-4,.cls-6{fill:#fff;}.cls-2{fill-opacity:0.15;}.cls-3{fill:none;}.cls-5{fill:#57a300;}.cls-6{fill-opacity:0.5;}</style></defs><g id="group3324-1"><g id="group3325-2"><g id="shape3326-3"><path class="cls-1" d="M54.13,27.06A27.07,27.07,0,1,1,27.07,0,27.07,27.07,0,0,1,54.13,27.06Z"/></g><g id="shape3327-5"><path class="cls-2" d="M14.1,49.53A25.94,25.94,0,1,1,40,4.6Z"/><path class="cls-3" d="M14.1,49.53A25.94,25.94,0,1,1,40,4.6"/></g><g id="shape3328-8"><path class="cls-4" d="M41.79,31.64,39.4,29.25,29,39.69l-.2-.08V23.68H25.37V39.6l-.21.09-7.34-7.35a4.63,4.63,0,0,0,.41-1.9,4.7,4.7,0,1,0-4.7,4.7h0a4.6,4.6,0,0,0,1.9-.4l7.34,7.34a4.64,4.64,0,0,0-.41,1.9,4.71,4.71,0,0,0,4.7,4.7h0A4.71,4.71,0,0,0,31.76,44a4.79,4.79,0,0,0-.4-1.9ZM13.53,30.25a.2.2,0,0,1,.13.06l-.26.27a.19.19,0,0,1-.05-.13A.2.2,0,0,1,13.53,30.25ZM27.06,44.17a.21.21,0,0,1-.13-.05l.13-.14.14.13a.16.16,0,0,1-.13.06Z"/></g><g id="shape3329-10"><path class="cls-5" d="M29.51,44a2.45,2.45,0,1,1-2.44-2.45h0A2.45,2.45,0,0,1,29.51,44Z"/></g><g id="shape3330-12"><path class="cls-4" d="M40.6,35.15a4.7,4.7,0,1,1,4.7-4.7,4.71,4.71,0,0,1-4.7,4.7Zm0-4.89a.21.21,0,0,0-.19.19.19.19,0,0,0,.19.19.19.19,0,0,0,0-.38Z"/></g><g id="shape3331-14"><path class="cls-5" d="M43.05,30.45A2.45,2.45,0,1,1,40.6,28h0A2.45,2.45,0,0,1,43.05,30.45ZM16,30.45A2.45,2.45,0,1,1,13.54,28h0A2.45,2.45,0,0,1,16,30.45Z"/></g><g id="shape3332-16"><path class="cls-1" d="M32.67,15.67a5.53,5.53,0,1,1-5.52-5.52A5.52,5.52,0,0,1,32.67,15.67Z"/></g><g id="shape3333-18"><path class="cls-4" d="M27.15,6.76a8.91,8.91,0,1,0,8.91,8.91A8.91,8.91,0,0,0,27.15,6.76Zm0,14.44a5.52,5.52,0,0,1-5.53-5.52h0a5.53,5.53,0,1,1,5.53,5.53Z"/></g><g id="shape3334-20"><path class="cls-6" d="M16.94,29.43l7.63-7.63a6.64,6.64,0,0,1-2.69-2.09L14.55,27A3.58,3.58,0,0,1,16.94,29.43Zm20.3,0L29.61,21.8a6.74,6.74,0,0,0,2.7-2.09L39.63,27A3.56,3.56,0,0,0,37.24,29.43Z"/></g></g></g></svg>