<svg id="Layer_1" data-name="Layer 1" xmlns="http://www.w3.org/2000/svg" xmlns:xlink="http://www.w3.org/1999/xlink" width="56.72" height="45.35" viewBox="0 0 56.72 45.35"><defs><style>.cls-1,.cls-3{fill:#0078d4;}.cls-1,.cls-2,.cls-4{fill-rule:evenodd;}.cls-2{fill:#fff;fill-opacity:0.8;}.cls-4{fill:url(#linear-gradient);}.cls-5{fill:url(#linear-gradient-2);}</style><linearGradient id="linear-gradient" x1="-263.47" y1="425.27" x2="-262.47" y2="425.27" gradientTransform="matrix(0, 24.98, 42.09, 0, -17878.88, 6601.81)" gradientUnits="userSpaceOnUse"><stop offset="0.22" stop-color="#32d4f5"/><stop offset="0.47" stop-color="#31d1f3"/><stop offset="0.63" stop-color="#2ec9eb"/><stop offset="0.77" stop-color="#29bade"/><stop offset="0.89" stop-color="#22a5cb"/><stop offset="1" stop-color="#198ab3"/></linearGradient><linearGradient id="linear-gradient-2" x1="-261.59" y1="428.59" x2="-260.59" y2="428.59" gradientTransform="matrix(1.89, 23.03, 23.54, -1.85, -9571.68, 6819.75)" xlink:href="#linear-gradient"/></defs><g id="group3013-1"><g id="group3014-2"><g id="shape3015-3"><path class="cls-1" d="M54.17,37.83a2.46,2.46,0,0,0,2.52-2.4v0a.9.9,0,0,0,0-.4c-1-7.7-5.45-14-14-14s-13.22,5.42-14.1,14a2.46,2.46,0,0,0,2.18,2.71H54.17Z"/></g><g id="shape3016-5"><path class="cls-2" d="M42.61,23a7.61,7.61,0,0,1-4.25-1.23l4.22,10.84L46.8,21.81A8.19,8.19,0,0,1,42.61,23Z"/></g><g id="shape3017-7"><ellipse class="cls-3" cx="42.61" cy="15.22" rx="7.9" ry="7.73"/></g><g id="shape3018-9"><path class="cls-4" d="M38.33,45.35a3.71,3.71,0,0,0,3.75-3.66,3.09,3.09,0,0,0,0-.43c-1.45-11.53-8.15-20.89-21-20.89S1.34,28.32,0,41.16a3.71,3.71,0,0,0,3.34,4H38.3Z"/></g><g id="shape3019-13"><path class="cls-2" d="M21.3,23.11A11.82,11.82,0,0,1,15,21.26l6.3,16.17,6.29-16A12.06,12.06,0,0,1,21.3,23.11Z"/></g><g id="shape3020-15"><ellipse class="cls-5" cx="21.21" cy="11.55" rx="11.81" ry="11.55"/></g></g></g></svg>