<svg id="Layer_1" data-name="Layer 1" xmlns="http://www.w3.org/2000/svg" xmlns:xlink="http://www.w3.org/1999/xlink" width="53.87" height="56.7" viewBox="0 0 53.87 56.7"><defs><style>.cls-1,.cls-2,.cls-4,.cls-5,.cls-6{fill-rule:evenodd;}.cls-1{fill:url(#linear-gradient);}.cls-2{fill:#fff;fill-opacity:0.8;}.cls-3{fill:url(#linear-gradient-2);}.cls-4{fill:#dfa500;}.cls-5{fill:url(#linear-gradient-3);}.cls-6{fill:#ffd400;}</style><linearGradient id="linear-gradient" x1="-266.34" y1="429.6" x2="-265.34" y2="429.6" gradientTransform="matrix(0, 28.57, 47.83, 0, -20524.32, 7632.84)" gradientUnits="userSpaceOnUse"><stop offset="0.1" stop-color="#54aef0"/><stop offset="1" stop-color="#1988d9"/></linearGradient><linearGradient id="linear-gradient-2" x1="-265.42" y1="433.62" x2="-264.42" y2="433.62" gradientTransform="matrix(0, 26.47, 26.74, 0, -11572.7, 7026.71)" xlink:href="#linear-gradient"/><linearGradient id="linear-gradient-3" x1="-265.2" y1="435.85" x2="-264.2" y2="435.85" gradientTransform="matrix(0, 26.02, 21.5, 0, -9328.65, 6930.17)" gradientUnits="userSpaceOnUse"><stop offset="0" stop-color="#ffd70f"/><stop offset="0.12" stop-color="#fc1"/><stop offset="0.44" stop-color="#feb517"/><stop offset="0.75" stop-color="#fea61a"/><stop offset="1" stop-color="#fea11b"/></linearGradient></defs><g id="group3346-1"><g id="group3347-2"><g id="shape3348-3"><path class="cls-1" d="M43.57,51.91a4.2,4.2,0,0,0,4.25-4.13,2.09,2.09,0,0,0,0-.5c-1.66-13.34-9.27-23.94-23.58-23.94S1.64,32.44,0,47.31a4.24,4.24,0,0,0,3.81,4.6Z"/></g><g id="shape3349-7"><path class="cls-2" d="M24,26.48a13.38,13.38,0,0,1-7.17-2.14l7.07,18.54,7.14-18.4A13.65,13.65,0,0,1,24,26.48Z"/></g><g id="shape3350-9"><ellipse class="cls-3" cx="24.03" cy="13.24" rx="13.37" ry="13.24"/></g><g id="shape3351-12"><path class="cls-4" d="M53.87,41.53c0,7.69-8.93,14.44-11.37,15.11a1.47,1.47,0,0,1-.83,0C39.24,56,30.3,49.2,30.3,41.53V32.3a.7.7,0,0,1,.61-.77h.17c7.25-.25,5.69-3.33,10.87-3.33s3.63,3.08,10.88,3.33a.7.7,0,0,1,.78.6.43.43,0,0,1,0,.16Z"/></g><g id="shape3352-14"><path class="cls-5" d="M42,42.56v-13c4.92,0,3.36,2.69,10.1,2.94a.84.84,0,0,1,.78.77v9Zm0,0H31.34c.52,6.66,8.55,11.79,10.36,12.82l.52.25Z"/></g><g id="shape3353-18"><path class="cls-6" d="M31.86,32.66c6.73-.26,5.18-3,10.1-3v13H31.34V33.29C31.34,32.79,31.6,32.66,31.86,32.66Z"/></g><g id="shape3354-20"><path class="cls-6" d="M52.84,42.3,42,42.56l.26,13.07C44,54.35,52.06,49,52.84,42.3Z"/></g></g></g></svg>