<svg id="Layer_1" data-name="Layer 1" xmlns="http://www.w3.org/2000/svg" width="56.96" height="56.69" viewBox="0 0 56.96 56.69"><defs><style>.cls-1{fill:#59b4d9;}.cls-1,.cls-2{fill-rule:evenodd;}.cls-2{fill:#ff8c00;}</style></defs><g id="group3309-1"><g id="group3310-2"><g id="shape3311-3"><path class="cls-1" d="M32.86,11.64A11.76,11.76,0,0,1,21.17,23.49h0A11.75,11.75,0,1,1,21,0h.1a11.72,11.72,0,0,1,11.8,11.64Z"/></g><g id="shape3312-5"><path class="cls-2" d="M56.57,52.87l-6-10-6-10.36a2.11,2.11,0,0,0-3.78,0l-6,9.72-6,10.67a2.19,2.19,0,0,0,.56,3.06,2.23,2.23,0,0,0,1.33.39h24a2.2,2.2,0,0,0,1.89-3.45ZM43,38.75H44.6L44,47.85H41.45l-.32-9.1Zm-.31,13.8a1.88,1.88,0,1,1,1.89-1.88A1.88,1.88,0,0,1,42.71,52.55Z"/></g><g id="shape3313-7"><path class="cls-1" d="M26.69,56.39A4.49,4.49,0,0,1,26.1,54a4.92,4.92,0,0,1,.68-2.36l6-10.64,0,0,0,0,6-9.72A4.67,4.67,0,0,1,42.13,29V27.28H29.69L21.07,39.2,12.44,27.28H0V56.69H26.88C26.82,56.59,26.75,56.5,26.69,56.39Z"/></g></g></g></svg>