<svg id="Layer_1" data-name="Layer 1" xmlns="http://www.w3.org/2000/svg" xmlns:xlink="http://www.w3.org/1999/xlink" width="48.19" height="56.69" viewBox="0 0 48.19 56.69"><defs><style>.cls-1{fill:#0078d4;}.cls-1,.cls-2,.cls-3{fill-rule:evenodd;}.cls-2{fill:url(#linear-gradient);}.cls-3{fill:#50e6ff;}.cls-4{fill:url(#linear-gradient-2);}.cls-5{fill:none;}.cls-6{fill:url(#linear-gradient-3);}</style><linearGradient id="linear-gradient" x1="-300.66" y1="419.37" x2="-299.66" y2="419.37" gradientTransform="matrix(0, -16.94, -48.19, 0, 20233.75, -5076.2)" gradientUnits="userSpaceOnUse"><stop offset="0.2" stop-color="#005ba1"/><stop offset="1" stop-color="#0078d4"/></linearGradient><linearGradient id="linear-gradient-2" x1="-309.58" y1="402.75" x2="-308.58" y2="402.75" gradientTransform="matrix(0, -11.65, -11.36, 0, 4607.47, -3567.65)" gradientUnits="userSpaceOnUse"><stop offset="0" stop-color="#198ab3"/><stop offset="0.35" stop-color="#32bedd"/><stop offset="0.8" stop-color="#50e6ff"/></linearGradient><linearGradient id="linear-gradient-3" x1="-309.58" y1="402.75" x2="-308.58" y2="402.75" gradientTransform="matrix(0, -11.65, -11.36, 0, 4588.9, -3579.44)" xlink:href="#linear-gradient-2"/></defs><g id="group2744-1"><g id="group2745-2"><g id="shape2746-3"><path class="cls-1" d="M24.09,0,0,14.14V42.49l24.09,14.2,24.1-14.14V14.2ZM43.74,39.59,24.09,51.24,4.45,39.72V16.94L24.09,5.29,43.74,17Z"/></g><g id="shape2747-5"><path class="cls-2" d="M24.09,0,0,14.14l4.45,2.8L24.09,5.29,43.74,16.94l4.45-2.8Z"/></g><g id="shape2748-9"><path class="cls-3" d="M31.21,36.5a13.24,13.24,0,0,0-16-10l-1.07-4.6A17.85,17.85,0,0,1,35.67,35.43Z"/></g><g id="shape2749-11"><path class="cls-3" d="M35.57,33a2.24,2.24,0,0,0-3.07-.85L7.55,46.86l4.6,2.74L34.74,36.22A2.42,2.42,0,0,0,35.57,33ZM36.1,7.05,13.44,20.47a2.43,2.43,0,0,0-.83,3.15,2.28,2.28,0,0,0,2,1.16,2,2,0,0,0,1.14-.31l25-14.8Z"/></g><g id="shape2750-13"><ellipse class="cls-4" cx="33.58" cy="34.17" rx="5.68" ry="5.83"/></g><g id="shape2751-17"><ellipse class="cls-5" cx="14.61" cy="22.52" rx="5.68" ry="5.83"/></g><g id="shape2752-19"><ellipse class="cls-6" cx="15.01" cy="22.38" rx="5.68" ry="5.83"/></g></g></g></svg>