<svg id="Layer_1" data-name="Layer 1" xmlns="http://www.w3.org/2000/svg" xmlns:xlink="http://www.w3.org/1999/xlink" width="55.67" height="53.86" viewBox="0 0 55.67 53.86"><defs><style>.cls-1{fill:#50e6ff;}.cls-1,.cls-3{fill-rule:evenodd;}.cls-2{fill:url(#radial-gradient);}.cls-3{fill:#f2f2f2;}</style><radialGradient id="radial-gradient" cx="-270.79" cy="415.43" r="1.4" gradientTransform="matrix(39.51, 0, 0, -39.15, 10706.99, 16270.1)" gradientUnits="userSpaceOnUse"><stop offset="0.18" stop-color="#5ea0ef"/><stop offset="1" stop-color="#0078d4"/></radialGradient></defs><g id="group3116-1"><g id="group3117-2"><g id="shape3118-3"><path class="cls-1" d="M8.92,15a.56.56,0,0,1-.57-.55h0A6.44,6.44,0,0,0,1.9,8.08.56.56,0,1,1,1.89,7h0A6.44,6.44,0,0,0,8.35.56.54.54,0,0,1,8.9,0h0a.57.57,0,0,1,.57.55h0A6.43,6.43,0,0,0,15.94,7a.56.56,0,0,1,.56.55h0a.56.56,0,0,1-.56.56h0a6.43,6.43,0,0,0-6.45,6.4.57.57,0,0,1-.57.56Z"/></g><g id="shape3119-5"><path class="cls-1" d="M6.07,53.86a.45.45,0,0,1-.45-.45A5.14,5.14,0,0,0,.45,48.29a.45.45,0,1,1,0-.89,5.14,5.14,0,0,0,5.17-5.12.46.46,0,0,1,.46-.45.45.45,0,0,1,.45.45,5.14,5.14,0,0,0,5.16,5.12.45.45,0,1,1,0,.9h0a5.15,5.15,0,0,0-5.17,5.11.45.45,0,0,1-.45.45Z"/></g><g id="group3120-7"><g id="shape3121-8"><ellipse class="cls-2" cx="27.41" cy="26.85" rx="19.76" ry="19.57"/></g><g id="shape3122-12"><path class="cls-3" d="M18.08,40c7.19.19,7.21-10.59,0-10.43a2.2,2.2,0,0,0,0-.44,5.27,5.27,0,0,0-5.33-5.21H8.83C7.66,29.07,9.61,35.64,13.64,40Z"/></g><g id="shape3123-14"><path class="cls-3" d="M47.76,23.25a.32.32,0,0,0,0-.14,19,19,0,0,0-4.52-9.17,5.26,5.26,0,0,0-.93-.29,5.82,5.82,0,0,0-7.18,4A6.13,6.13,0,0,0,34.9,19a4.87,4.87,0,0,0-.65-.05,5.53,5.53,0,0,0-1.86,10.75,4.83,4.83,0,0,0,1.73.32h6.53A43.51,43.51,0,0,0,47.76,23.25Z"/></g></g><g id="shape3124-16"><path class="cls-1" d="M54.67,10.47c-2-3.33-6.75-4.63-13.35-3.66a47.72,47.72,0,0,0-6.69,1.44,20.87,20.87,0,0,1,4.91,2.45c.77-.17,1.55-.37,2.3-.49a24.72,24.72,0,0,1,3.54-.28,7.06,7.06,0,0,1,6.3,2.31c1.23,2,.19,5.51-2.85,9.55a53.5,53.5,0,0,1-15.26,12.9A54.29,54.29,0,0,1,14.85,41.9c-5,.74-8.63,0-9.86-2s-.19-5.51,2.85-9.54c.38-.5.47-.74.9-1.24a20,20,0,0,1,.08-5.19,37.23,37.23,0,0,0-3.76,4.36c-4,5.28-5.06,10-3,13.36a10.22,10.22,0,0,0,9.32,4,28.42,28.42,0,0,0,4-.32,57.63,57.63,0,0,0,20-7.64,57.27,57.27,0,0,0,16.27-13.8c4-5.29,5.07-10,3.05-13.37Z"/></g></g></g></svg>