<svg id="Layer_1" data-name="Layer 1" xmlns="http://www.w3.org/2000/svg" width="56.69" height="56.69" viewBox="0 0 56.69 56.69"><defs><style>.cls-1{fill:#773adc;}.cls-1,.cls-2,.cls-3,.cls-4,.cls-5{fill-rule:evenodd;}.cls-2{fill:#552f99;}.cls-3{fill:#a67af4;}.cls-4{fill:#32bedd;}.cls-5{fill:#b796f9;}</style></defs><g id="group3172-1"><g id="group3173-2"><g id="shape3174-3"><path class="cls-1" d="M41.35,7.31V22L28.91,29.26V14.63Z"/></g><g id="shape3175-5"><path class="cls-2" d="M36.06,14.63c1.73-1,3.15-.22,3.15,1.78a6.92,6.92,0,0,1-3.15,5.47c-1.73,1-3.15.23-3.15-1.81A6.94,6.94,0,0,1,36.06,14.63Z"/></g><g id="shape3176-7"><path class="cls-1" d="M24.88,34.67V49.31L12.44,56.62V42Z"/></g><g id="shape3177-9"><path class="cls-2" d="M18.65,42.73c1.73-1,3.15-.19,3.15,1.81A7,7,0,0,1,18.65,50c-1.73,1-3.15.2-3.15-1.81A7,7,0,0,1,18.65,42.73Z"/></g><g id="shape3178-11"><path class="cls-3" d="M12.44,42V56.62L0,49.31V34.67Z"/></g><g id="shape3179-13"><path class="cls-1" d="M56.69,34.67V49.31L44.25,56.62V42Z"/></g><g id="shape3180-15"><path class="cls-4" d="M36.22,19.4a13.22,13.22,0,0,1,7.46,8.31l.63-.32,3.15,1.84a16.55,16.55,0,0,0-9.92-12.91,1.7,1.7,0,0,0-2.25.87,1.73,1.73,0,0,0,.86,2.27l.1,0Z"/></g><g id="shape3181-17"><path class="cls-3" d="M44.25,42.06V56.69L31.81,49.38V34.68L44.25,42Z"/></g><g id="shape3182-19"><path class="cls-2" d="M38.42,42.94c-1.64-.95-3-.15-3,1.72a6.65,6.65,0,0,0,3,5.19c1.64.95,3,.19,3-1.72A6.63,6.63,0,0,0,38.42,42.94Z"/></g><g id="shape3183-21"><path class="cls-4" d="M29,50.9a17,17,0,0,1-10-3.18,1.77,1.77,0,0,1-.64-2.39,1.73,1.73,0,0,1,2.37-.64,1.79,1.79,0,0,1,.28.2,13.62,13.62,0,0,0,15.15.57,1.72,1.72,0,0,1,2.39.57A1.77,1.77,0,0,1,38,48.45h0A17.35,17.35,0,0,1,29,50.9Z"/></g><g id="shape3184-23"><path class="cls-5" d="M41.35,7.32,29,14.63,16.5,7.32,29,0,41.38,7.32Z"/></g><g id="shape3185-25"><path class="cls-4" d="M16.5,16.54A16.76,16.76,0,0,0,9.07,29.26l3.53-1.91v.16a13.45,13.45,0,0,1,3.9-6.58Z"/></g><g id="shape3186-27"><path class="cls-5" d="M56.69,34.68,44.25,42,31.81,34.68l12.44-7.32Zm-31.81,0L12.44,42,0,34.68l12.44-7.32Z"/></g><g id="shape3187-29"><path class="cls-3" d="M28.91,14.63V29.26L16.5,22V7.31Z"/></g></g></g></svg>