<svg id="Layer_1" data-name="Layer 1" xmlns="http://www.w3.org/2000/svg" width="56.69" height="56.37" viewBox="0 0 56.69 56.37"><defs><style>.cls-1{fill:#177acd;}.cls-1,.cls-2,.cls-3,.cls-4,.cls-5,.cls-6{fill-rule:evenodd;}.cls-2,.cls-4{fill:#fff;}.cls-3{fill:#a7a8a9;}.cls-4{fill-opacity:0.2;}.cls-5{fill:#509ccc;}.cls-6{fill:#59afd5;}</style></defs><g id="group3193-1"><g id="shape3194-2"><path class="cls-1" d="M32.25,6.54H0v26a1.68,1.68,0,0,0,.44,1.12h0a.81.81,0,0,0,.14.12,1.64,1.64,0,0,0,1.13.44H35.22a1.72,1.72,0,0,0,1.7-1.7v-26Z"/></g><g id="shape3195-4"><path class="cls-2" d="M16.17,16.32H31v2.9H16.17Zm0,9.46H31v2.9H16.17Z"/></g><g id="shape3196-6"><path class="cls-3" d="M4.68,6.54H36.91V1.21c0-.6-.7-1.21-1.7-1.21H1.7C.85,0,0,.5,0,1.21V6.54Z"/></g><g id="shape3197-8"><path class="cls-4" d="M28.17,6.54H0V33.41a2,2,0,0,0,.42,1.21C.7,35,32.24,6.54,32.24,6.54Z"/></g><g id="shape3198-10"><path class="cls-2" d="M5.8,28.41l10.13-8,1.77,2.07L7.57,30.65Z"/></g><g id="shape3199-12"><path class="cls-2" d="M7.58,30.65,2.34,25.08l2.33-2L10,28.77Z"/></g><g id="shape3200-14"><path class="cls-2" d="M6.29,17.8l10.13-8,1.77,2.07L8.06,20Z"/></g><g id="shape3201-16"><path class="cls-2" d="M8.06,20,2.82,14.47l2.33-2,5.31,5.72Z"/></g><g id="shape3202-18"><path class="cls-5" d="M42.14,17.41H9.89v26a1.68,1.68,0,0,0,.44,1.12h0a.81.81,0,0,0,.14.12,1.64,1.64,0,0,0,1.13.44H45.11a1.72,1.72,0,0,0,1.7-1.7v-26Z"/></g><g id="shape3203-20"><path class="cls-2" d="M26.06,27.19H40.9v2.9H26.06Zm0,9.46H40.9v2.9H26.06Z"/></g><g id="shape3204-22"><path class="cls-3" d="M14.57,17.41H46.8V12.08c0-.6-.7-1.21-1.7-1.21H11.59c-.85,0-1.7.5-1.7,1.21v5.33Z"/></g><g id="shape3205-24"><path class="cls-4" d="M38.06,17.42H9.91V44.29a2,2,0,0,0,.42,1.21c.26.33,31.8-28.08,31.8-28.08Z"/></g><g id="shape3206-26"><path class="cls-2" d="M15.69,39.28l10.13-8,1.77,2.07L17.46,41.52Z"/></g><g id="shape3207-28"><path class="cls-2" d="M17.47,41.52,12.23,36l2.33-2,5.31,5.72Z"/></g><g id="shape3208-30"><path class="cls-2" d="M16.17,28.67l10.13-8,1.77,2.07L17.94,30.91Z"/></g><g id="shape3209-32"><path class="cls-2" d="M18,30.91l-5.24-5.57,2.33-2L20.35,29Z"/></g><g id="shape3210-34"><path class="cls-2" d="M26.06,27.19H40.9v2.9H26.06Zm0,9.46H40.9v2.9H26.06Z"/></g><g id="shape3211-36"><path class="cls-6" d="M52,28.28H19.77v26a1.68,1.68,0,0,0,.44,1.12h0a.81.81,0,0,0,.14.12,1.64,1.64,0,0,0,1.13.44H55a1.72,1.72,0,0,0,1.7-1.7v-26Z"/></g><g id="shape3212-38"><path class="cls-2" d="M36,38.06H50.79V41H36Zm0,9.46H50.79v2.9H36Z"/></g><g id="shape3213-40"><path class="cls-3" d="M24.45,28.29H56.68V23c0-.6-.7-1.21-1.7-1.21H21.47c-.85,0-1.7.5-1.7,1.21v5.33Z"/></g><g id="shape3214-42"><path class="cls-4" d="M28.15,28.29H0V55.16a2,2,0,0,0,.42,1.21c.26.33,31.8-28.08,31.8-28.08Z"/></g><g id="shape3215-44"><path class="cls-2" d="M25.57,50.16l10.13-8,1.77,2.07L27.34,52.4Z"/></g><g id="shape3216-46"><path class="cls-2" d="M27.35,52.4l-5.24-5.57,2.33-2,5.31,5.72Z"/></g><g id="shape3217-48"><path class="cls-2" d="M26.06,39.54l10.13-8L38,33.64,27.83,41.78Z"/></g><g id="shape3218-50"><path class="cls-2" d="M27.84,41.78,22.6,36.21l2.33-2,5.31,5.72Z"/></g></g></svg>