<svg id="Layer_1" data-name="Layer 1" xmlns="http://www.w3.org/2000/svg" width="54.54" height="49.32" viewBox="0 0 54.54 49.32"><defs><style>.cls-1{fill:#804998;}.cls-2{fill:#fff;}.cls-2,.cls-3{fill-rule:evenodd;}.cls-3{fill:#59b4d9;}</style></defs><g id="group3398-1"><g id="group3399-2"><g id="shape3400-3"><ellipse class="cls-1" cx="23.35" cy="25.45" rx="23.35" ry="23.87"/></g><g id="shape3401-5"><path class="cls-2" d="M30,11.46a8.64,8.64,0,0,1,4.6,7.6,6,6,0,0,1-1.75,0c-.49-.19-.28-.1-.38-.86a6.19,6.19,0,0,0-12-1.22c-.44,1.29-.22,2.66-.62,3.95a6.37,6.37,0,0,1-2.24,3.24,8.64,8.64,0,0,1,4.59,7.6,6,6,0,0,1-1.75,0c-.42-.17-.27,0-.35-.65a7.15,7.15,0,0,0-.46-1.82,6.32,6.32,0,0,0-5.72-3.89,6.3,6.3,0,0,0-5.64,3.7,6.64,6.64,0,0,0-.52,1.8c-.07.51.07.68-.3.86a5.91,5.91,0,0,1-1.83,0,8.63,8.63,0,0,1,4.6-7.6,6.5,6.5,0,0,1-.7-9.6,6.17,6.17,0,0,1,9.39.72,8.64,8.64,0,0,1,3.73-3.83C17.94,7.9,20.48,0,26.33,0S34.73,7.9,30,11.46C30.73,11.83,30.38,11.27,30,11.46ZM13.91,23.29c5.33,0,5.33-8.46,0-8.47S8.57,23.29,13.91,23.29ZM22.19,6.35c0,5.46,8.29,5.45,8.29,0S22.19.89,22.19,6.35Zm3,28,14.71-15,14.63,15-14.72,15Z"/></g><g id="shape3402-7"><path class="cls-3" d="M41.08,27.44a3.29,3.29,0,0,1-.63.21V38.76a2.77,2.77,0,0,1,1.06.65l4.85-4a2.65,2.65,0,0,1-.11-1,4.88,4.88,0,0,1,.21-1.19Zm-8,5.82a2.6,2.6,0,0,1,.32,1.29,4.05,4.05,0,0,1-.21,1.08l4.85,4A8.93,8.93,0,0,1,39,39V27.65c-.21-.1-.31-.1-.42-.21Z"/></g><g id="shape3403-9"><path class="cls-3" d="M16.87,14.82,0,35.31l16.87,14,16.87-14ZM26,37.35a2.52,2.52,0,0,1-1.68-.64L19.51,40.8a1.75,1.75,0,0,1,.1.76,2.75,2.75,0,0,1-2.74,2.8,2.69,2.69,0,0,1-2.74-2.8,1.48,1.48,0,0,1,.1-.65l-5.16-4.1a2.35,2.35,0,0,1-1.48.44,2.81,2.81,0,0,1,0-5.61A2.84,2.84,0,0,1,8.86,32l5.37-6A4.21,4.21,0,0,1,14,24.74a2.75,2.75,0,0,1,2.75-2.8,2.69,2.69,0,0,1,2.74,2.8A2.6,2.6,0,0,1,19.19,26l5.27,6a3.26,3.26,0,0,1,1.37-.32,2.75,2.75,0,0,1,2.74,2.8A2.58,2.58,0,0,1,26,37.35Z"/></g></g></g></svg>