<svg id="Layer_1" data-name="Layer 1" xmlns="http://www.w3.org/2000/svg" width="43.73" height="56.7" viewBox="0 0 43.73 56.7"><defs><style>.cls-1{fill:#57a300;}.cls-1,.cls-2,.cls-3,.cls-4,.cls-5,.cls-6,.cls-7{fill-rule:evenodd;}.cls-2{fill:#1e1e1e;fill-opacity:0.15;}.cls-3{fill:#e5e5e5;fill-opacity:0.2;}.cls-4,.cls-6{fill:#fff;}.cls-5{fill:#a0a1a2;fill-opacity:0.5;}.cls-6{fill-opacity:0.4;}.cls-7{fill:#3999c6;}</style></defs><g id="group3021-1"><g id="group3022-2"><g id="shape3023-3"><path class="cls-1" d="M41.78,43.78h1.95V0H3.88C2.62.16,0,3.18,0,3.62L.06,46a2.29,2.29,0,0,0,2.3,2.28H38.87v-.7Z"/></g><g id="shape3024-5"><path class="cls-2" d="M41.78,43.78h1.95V0H3.88C2.62.16,0,3.18,0,3.62L.06,46a2.29,2.29,0,0,0,2.3,2.28H38.87v-.7Z"/></g><g id="shape3025-7"><path class="cls-3" d="M6.47,0H3.88C2.62.17,0,3.19,0,3.62V4.83H38.88V47.54l2.9-3.76h1.95V0Z"/></g><g id="shape3026-9"><path class="cls-4" d="M5.61,1.93a3,3,0,0,0-2.44,1C1,4.83,3.55,4.83,4.62,4.83H38.86V47.55l2.92-3.77V1.93Z"/></g><g id="shape3027-11"><path class="cls-5" d="M38.87,47.55l2.92-3.77V1.93l-2.92,2.9Z"/></g><g id="shape3028-13"><path class="cls-6" d="M38.87,48.6l4.86-4.47V22.88a8.49,8.49,0,0,0-3.64-.82,8.26,8.26,0,0,0-8.38,8.1,8.08,8.08,0,0,0,4.74,7.29v1.42l-.18-.26H29.76a1.82,1.82,0,0,0-1.82,1.81V48.6Z"/></g><g id="shape3029-15"><path class="cls-7" d="M18.1,30.16a7,7,0,0,1-7.17,6.9,6.9,6.9,0,1,1,0-13.79A7,7,0,0,1,18.1,30.16Zm-2.69,9.65-4.48,6.85L6.46,39.81H0V56.7H21.87V39.81Z"/></g><g id="shape3030-17"><path class="cls-4" d="M17,15.68H30.37V18.1H17Zm0,9.65H30.37v2.42H17ZM17,35H30.37V37.4H17ZM6.08,24.13v6h6.07v-6Zm4.55,4.52h-3v-3h3ZM6.08,33.78v6h6.07v-6Zm4.55,4.52h-3v-3h3Zm-1.52-19-3.6-3.62a.36.36,0,0,1,0-.51l.78-.76a.36.36,0,0,1,.51,0l2.26,2.27,3.47-4.43a.36.36,0,0,1,.51-.06h0l.86.66a.36.36,0,0,1,.06.51h0L9.33,19.25a.16.16,0,0,1-.21,0v0Z"/></g></g></g></svg>