<svg id="Layer_1" data-name="Layer 1" xmlns="http://www.w3.org/2000/svg" width="52.03" height="52.41" viewBox="0 0 52.03 52.41"><defs><style>.cls-1{fill:#00947d;}.cls-1,.cls-10,.cls-8,.cls-9{fill-rule:evenodd;}.cls-2{fill:#1fc1a7;}.cls-3{fill:#61ddc9;}.cls-4{fill:#9bfdec;}.cls-5{fill:#00b99d;}.cls-6{fill:#04bca1;}.cls-7{fill:#1dc0a7;}.cls-8{fill:#00ba9d;}.cls-9{fill:#27cfb2;}.cls-10{fill:#c5fdf4;}</style></defs><g id="group3139-1"><g id="group3140-2"><g id="group3141-3"><g id="group3142-4"><g id="shape3143-5"><path class="cls-1" d="M40.18,33.44a16.51,16.51,0,0,1,11,4.18V12.05a2.34,2.34,0,0,0-2.34-2.34H2.34A2.34,2.34,0,0,0,0,12.05v38a2.34,2.34,0,0,0,2.34,2.34H23.87a17,17,0,0,1-.18-2.49A16.48,16.48,0,0,1,40.18,33.44Z"/></g></g><g id="group3144-7"><g id="shape3145-8"><rect class="cls-2" x="4.21" width="11.39" height="7.2"/></g></g><g id="group3146-10"><g id="shape3147-11"><rect class="cls-3" x="19.86" width="11.39" height="7.2"/></g></g><g id="group3148-13"><g id="shape3149-14"><rect class="cls-4" x="4.21" y="11.4" width="11.39" height="7.2"/></g></g><g id="group3150-16"><g id="shape3151-17"><rect class="cls-5" x="4.21" y="22.81" width="11.39" height="7.09"/></g></g><g id="group3152-19"><g id="shape3153-20"><rect class="cls-6" x="19.86" y="11.4" width="11.39" height="7.2"/></g></g><g id="group3154-22"><g id="shape3155-23"><rect class="cls-7" x="35.55" width="11.39" height="7.2"/></g></g><g id="group3156-25"><g id="shape3157-26"><path class="cls-8" d="M51.18,36.07V23.63a16.52,16.52,0,0,0-27.5,12.3,15.78,15.78,0,0,0,.19,2.49h25A2.35,2.35,0,0,0,51.18,36.07Z"/></g></g><g id="group3158-28"><g id="shape3159-29"><path class="cls-9" d="M27.31,23.64V36.08A2.33,2.33,0,0,1,25,38.42H0A16.51,16.51,0,1,0,27.31,23.64Z"/></g></g><g id="group3160-31"><g id="shape3161-32"><path class="cls-10" d="M48.66,27.81,38.32,38.13,33,32.83,29.83,36l5.32,5.31,3.37,3.37L41.7,41.5,52,31.18Z"/></g></g></g></g></g></svg>