<svg id="Layer_1" data-name="Layer 1" xmlns="http://www.w3.org/2000/svg" xmlns:xlink="http://www.w3.org/1999/xlink" width="56.72" height="55.84" viewBox="0 0 56.72 55.84"><defs><style>.cls-1,.cls-2,.cls-4,.cls-5{fill-rule:evenodd;}.cls-1{fill:url(#linear-gradient);}.cls-2{fill:#fff;fill-opacity:0.8;}.cls-3{fill:url(#linear-gradient-2);}.cls-4{fill:url(#radial-gradient);}.cls-5{fill:#ff9300;fill-opacity:0.75;}</style><linearGradient id="linear-gradient" x1="-265.55" y1="429.19" x2="-264.55" y2="429.19" gradientTransform="matrix(0, 30.79, 49.44, 0, -21193.27, 8201.34)" gradientUnits="userSpaceOnUse"><stop offset="0.22" stop-color="#32d4f5"/><stop offset="1" stop-color="#198ab3"/></linearGradient><linearGradient id="linear-gradient-2" x1="-264" y1="432.07" x2="-263" y2="432.07" gradientTransform="matrix(2.23, 28.37, 27.66, -2.28, -11340.09, 8475.24)" xlink:href="#linear-gradient"/><radialGradient id="radial-gradient" cx="-263.48" cy="413.78" r="1.4" gradientTransform="matrix(20.45, 0, 0, -33.29, 5445.22, 13831.45)" gradientUnits="userSpaceOnUse"><stop offset="0.27" stop-color="#ffd70f"/><stop offset="1" stop-color="#fea11b"/></radialGradient></defs><g id="group2759-1"><g id="group2760-2"><g id="group2761-3"><g id="shape2762-4"><path class="cls-1" d="M45,55.83a4.46,4.46,0,0,0,4.41-4.49,2.44,2.44,0,0,0,0-.54C47.68,36.6,39.8,25,24.74,25S1.54,34.85,0,50.83a4.51,4.51,0,0,0,3.92,5H45Z"/></g><g id="shape2763-8"><path class="cls-2" d="M24.74,28.42a13.16,13.16,0,0,1-7.48-2.26l7.42,19.9,7.38-19.77A13.43,13.43,0,0,1,24.74,28.42Z"/></g><g id="shape2764-10"><ellipse class="cls-3" cx="24.74" cy="14.23" rx="13.88" ry="14.23"/></g></g><g id="group2765-14"><g id="shape2766-15"><path class="cls-4" d="M55.63,35.85a3.9,3.9,0,0,0,0-5.4h0l-6.4-6.76A3.63,3.63,0,0,0,44,23.63l0,.05-6.59,6.56a3.93,3.93,0,0,0,0,5.44l5.3,5.54A1.09,1.09,0,0,1,43,42V52.11a1.23,1.23,0,0,0,.4.94l2.4,2.54a.88.88,0,0,0,1.22,0l2.37-2.44,1.39-1.45a.48.48,0,0,0,0-.67h0l-1-1.05a.58.58,0,0,1,0-.78l1-1.05a.45.45,0,0,0,0-.62.12.12,0,0,0,0-.05l-1-1a.58.58,0,0,1,0-.78l1-1a.48.48,0,0,0,0-.67h0L49.4,42.47V42.1Zm-9-10.51a2.21,2.21,0,0,1,2.11,2.19,2.1,2.1,0,0,1-2,2.17h-.11a2.2,2.2,0,0,1,0-4.36Z"/></g><g id="shape2767-19"><path class="cls-5" d="M44.84,52.51a.46.46,0,0,0,.66,0,.43.43,0,0,0,.13-.34V43.89a.53.53,0,0,0-.19-.44.48.48,0,0,0-.65.12.6.6,0,0,0-.08.29v8.31a.48.48,0,0,0,.14.34Z"/></g><g id="shape2768-21"><path class="cls-5" d="M51.55,33.85a.56.56,0,0,0,.58-.55v-.13a.57.57,0,0,0-.57-.57l-9.69-.05a.56.56,0,0,0-.58.55v.13a.58.58,0,0,0,.57.57Z"/></g><g id="shape2769-23"><path class="cls-5" d="M51.52,36a.56.56,0,0,0,.57-.55v-.13a.57.57,0,0,0-.57-.57l-9.7-.06a.57.57,0,0,0-.57.56v.13a.56.56,0,0,0,.57.56Z"/></g></g></g></g></svg>