<svg id="Layer_1" data-name="Layer 1" xmlns="http://www.w3.org/2000/svg" xmlns:xlink="http://www.w3.org/1999/xlink" width="56.7" height="51.02" viewBox="0 0 56.7 51.02"><defs><style>.cls-1{fill:#50e6ff;}.cls-1,.cls-2,.cls-3,.cls-4,.cls-5,.cls-6,.cls-7,.cls-8{fill-rule:evenodd;}.cls-2{fill:#fff;}.cls-3{fill:url(#linear-gradient);}.cls-4{fill:#53b1e0;}.cls-5{fill:#9cebff;}.cls-6{fill:url(#linear-gradient-2);}.cls-7{fill:#773adc;}.cls-8{fill:#f9f9f9;fill-opacity:0.5;}</style><linearGradient id="linear-gradient" x1="-289.91" y1="420.75" x2="-288.91" y2="420.75" gradientTransform="matrix(-16.21, -30.36, -17.05, 28.86, 2519.88, -20902.64)" gradientUnits="userSpaceOnUse"><stop offset="0" stop-color="#1988d9"/><stop offset="0.9" stop-color="#54aef0"/></linearGradient><linearGradient id="linear-gradient-2" x1="-259.54" y1="423.95" x2="-258.54" y2="423.95" gradientTransform="matrix(11.7, 19.94, 26.07, -8.95, -8007.87, 9000.53)" gradientUnits="userSpaceOnUse"><stop offset="0.1" stop-color="#54aef0"/><stop offset="0.29" stop-color="#4fabee"/><stop offset="0.51" stop-color="#41a2e9"/><stop offset="0.74" stop-color="#2a93e0"/><stop offset="0.88" stop-color="#1988d9"/></linearGradient></defs><g id="group3363-1"><g id="group3364-2"><g id="shape3365-3"><path class="cls-1" d="M3.18,29.22l25,16L53.51,29.16l3.18,3.64L28.13,51,0,32.83Z"/></g><g id="shape3366-5"><path class="cls-2" d="M5.07,27.16,28.13,0,51.65,27.19,28.13,41.89Z"/></g><g id="shape3367-7"><path class="cls-1" d="M28.13,0V41.89L5.07,27.16Z"/></g><g id="shape3368-9"><path class="cls-3" d="M28.13,0V41.89l23.53-14.7Z"/></g><g id="shape3369-13"><path class="cls-4" d="M28.13,21.65l23.53,5.54L28.13,41.89Z"/></g><g id="shape3370-15"><path class="cls-5" d="M28.13,41.89,5.07,27.16l23.06-5.51Z"/></g><g id="shape3371-17"><path class="cls-6" d="M0,51,28.57,32.8l-3.18-3.64L0,45.23Z"/></g><g id="shape3372-21"><path class="cls-7" d="M42.62,25.5,28.54,45l14.08,5.67L56.7,45Z"/></g><g id="shape3373-23"><path class="cls-8" d="M42.62,25.5,28.54,45l14.08,5.67Z"/></g></g></g></svg>