<svg id="Layer_1" data-name="Layer 1" xmlns="http://www.w3.org/2000/svg" xmlns:xlink="http://www.w3.org/1999/xlink" width="51.02" height="56.7" viewBox="0 0 51.02 56.7"><defs><style>.cls-1,.cls-2,.cls-3{fill-rule:evenodd;}.cls-1{fill:url(#linear-gradient);}.cls-2{fill:#f2f2f2;}.cls-3{fill:#0078d4;}</style><linearGradient id="linear-gradient" x1="-273.39" y1="430.04" x2="-272.39" y2="430.04" gradientTransform="matrix(0, 56.7, 51.02, 0, -21915.07, 15500.41)" gradientUnits="userSpaceOnUse"><stop offset="0" stop-color="#c69aeb"/><stop offset="0.09" stop-color="#bb90e4"/><stop offset="0.49" stop-color="#926bc9"/><stop offset="0.81" stop-color="#7854b8"/><stop offset="1" stop-color="#6f4bb2"/></linearGradient></defs><g id="group2892-1"><g id="group2893-2"><g id="shape2894-3"><path class="cls-1" d="M24.53,56.29,1,43a1.85,1.85,0,0,1-1-1.39V15.14a1.85,1.85,0,0,1,1-1.62L24.53.27a1.93,1.93,0,0,1,2,0L50,13.52a1.86,1.86,0,0,1,1,1.62V41.65a1.84,1.84,0,0,1-1,1.62L26.5,56.52A1.9,1.9,0,0,1,24.53,56.29Z"/></g><g id="shape2895-7"><path class="cls-2" d="M37.28,16.94a17,17,0,0,0-23.52,0,15.92,15.92,0,0,0,0,22.92,17,17,0,0,0,23.51,0A15.92,15.92,0,0,0,37.28,16.94Z"/></g><g id="shape2896-9"><path class="cls-3" d="M34.87,19.26a13.52,13.52,0,0,0-18.76,0,12.69,12.69,0,0,0,0,18.28,13.53,13.53,0,0,0,18.76,0A12.73,12.73,0,0,0,34.87,19.26Z"/></g><g id="shape2897-11"><path class="cls-2" d="M32.31,29.16a.88.88,0,0,0,0-1.56L21.83,21a1.07,1.07,0,0,0-1.43.4,1.17,1.17,0,0,0-.13.4V35A1.05,1.05,0,0,0,21.4,36a1,1,0,0,0,.47-.15Z"/></g></g></g></svg>