<svg id="Layer_1" data-name="Layer 1" xmlns="http://www.w3.org/2000/svg" xmlns:xlink="http://www.w3.org/1999/xlink" width="56.75" height="56.69" viewBox="0 0 56.75 56.69"><defs><style>.cls-1{fill:#0078d4;}.cls-1,.cls-2,.cls-3,.cls-4,.cls-5{fill-rule:evenodd;}.cls-2{fill:#f2f2f2;}.cls-3{fill:#50e6ff;}.cls-4{fill:#32bedd;}.cls-5{fill:url(#linear-gradient);}</style><linearGradient id="linear-gradient" x1="-267.12" y1="444.54" x2="-266.12" y2="444.54" gradientTransform="matrix(-0.59, 36.02, 31.75, 0.67, -14228.22, 9344.84)" gradientUnits="userSpaceOnUse"><stop offset="0" stop-color="#9cebff"/><stop offset="1" stop-color="#50e6ff"/></linearGradient></defs><g id="group2770-1"><g id="group2771-2"><g id="shape2772-3"><path class="cls-1" d="M41.6,0H19.14a1.46,1.46,0,0,0-1.45,1.45h0V34.54a28.88,28.88,0,0,1,3.63-2.69h4.27L28,35.09v5l-3,4-4.11-.55-3.21-1.27v.88a1.46,1.46,0,0,0,1.42,1.49H41.57A1.45,1.45,0,0,0,43,43.2V1.46A1.45,1.45,0,0,0,41.6,0Z"/></g><g id="shape2773-5"><path class="cls-2" d="M21.06,5.87h4.17a.34.34,0,0,1,.38.32v5.55a.39.39,0,0,1-.38.39H21.06a.36.36,0,0,1-.35-.36V6.23a.36.36,0,0,1,.35-.36Zm7.38,0h4.14a.35.35,0,0,1,.35.35h0v5.52a.34.34,0,0,1-.32.38H28.44a.36.36,0,0,1-.35-.36V6.23a.36.36,0,0,1,.35-.36Zm7.29,0h4.1a.35.35,0,0,1,.35.35h0v5.52a.34.34,0,0,1-.32.38H35.6a.39.39,0,0,1-.38-.39h0V6.23a.36.36,0,0,1,.35-.36h.17Zm-14.67,10h4.17a.34.34,0,0,1,.38.32v5.65a.35.35,0,0,1-.38.29H21.06a.35.35,0,0,1-.35-.3v-5.6a.36.36,0,0,1,.35-.36Zm7.38,0h4.14a.35.35,0,0,1,.35.35h0v5.62a.35.35,0,0,1-.35.35H28.44A.35.35,0,0,1,28,22a.36.36,0,0,1,0-.15V16.25a.35.35,0,0,1,.33-.38.26.26,0,0,1,.15,0Zm7.29,0h4.1a.35.35,0,0,1,.35.35h0v5.62a.35.35,0,0,1-.35.35H35.6a.36.36,0,0,1-.38-.33V16.25a.36.36,0,0,1,.35-.36h.17Z"/></g><g id="shape2774-7"><path class="cls-3" d="M22.41,35a3.23,3.23,0,0,0-3.21,2.47H7.68a10,10,0,0,0-.19,1.72v.16H19.2a3.21,3.21,0,0,0,4.12,1.94A3.25,3.25,0,0,0,22.41,35Z"/></g><g id="shape2775-9"><path class="cls-4" d="M31.26,33.54A8.66,8.66,0,0,0,14.45,31,8.25,8.25,0,0,0,8,36.36H18.49a4.37,4.37,0,0,1,3.92-2.46,4.57,4.57,0,1,1-3.92,6.48H7.68a8.21,8.21,0,0,0,8.12,6.49H30.37a6.65,6.65,0,0,0,.89-13.27Z"/></g><g id="shape2776-11"><path class="cls-3" d="M22.41,35a3.23,3.23,0,0,0-3.21,2.46H7.68a5.4,5.4,0,0,1-1.19-.16,6,6,0,0,1,.64-11.77h.55L7.87,25a6.43,6.43,0,0,1,6.42-4.41,6.68,6.68,0,0,1,5.84,3.24A10.1,10.1,0,0,1,22,23.61a8.6,8.6,0,0,0-15.69.16A7.87,7.87,0,0,0,5.66,39a4.74,4.74,0,0,0,1.89.33H19.2a3.21,3.21,0,0,0,4.12,1.94,3.26,3.26,0,0,0,1.91-4.16A3.22,3.22,0,0,0,22.41,35Z"/></g><g id="shape2777-13"><path class="cls-5" d="M25.24,35.77l14.44-14.6a1.72,1.72,0,0,1,2.43,0l14.41,14.6a.78.78,0,0,1,0,1.1.75.75,0,0,1-.55.23H47.25a.77.77,0,0,0-.77.78V56.07a.61.61,0,0,1-.61.62H36.24a.57.57,0,0,1-.61-.55V37.88a.78.78,0,0,0-.77-.78H25.91a.76.76,0,0,1-.9-.62.78.78,0,0,1,.22-.71Z"/></g></g></g></svg>