<svg id="Layer_1" data-name="Layer 1" xmlns="http://www.w3.org/2000/svg" xmlns:xlink="http://www.w3.org/1999/xlink" width="56.69" height="45.35" viewBox="0 0 56.69 45.35"><defs><style>.cls-1,.cls-2,.cls-3,.cls-4,.cls-5{fill-rule:evenodd;}.cls-1{fill:url(#linear-gradient);}.cls-2{fill:#198ab3;}.cls-3{fill:#fff;}.cls-4{fill:#9cebff;}.cls-5{fill:#0078d4;}</style><linearGradient id="linear-gradient" x1="-287.14" y1="415.22" x2="-286.14" y2="415.22" gradientTransform="matrix(0, -33.34, -56.69, 0, 23567.01, -9527.83)" gradientUnits="userSpaceOnUse"><stop offset="0" stop-color="#32bedd"/><stop offset="0.18" stop-color="#32caea"/><stop offset="0.41" stop-color="#32d2f2"/><stop offset="0.78" stop-color="#32d4f5"/></linearGradient></defs><g id="group2860-1"><g id="group2861-2"><g id="shape2862-3"><path class="cls-1" d="M0,12H56.69V43.46a1.89,1.89,0,0,1-1.9,1.89H1.9A1.89,1.89,0,0,1,0,43.46Z"/></g><g id="shape2863-7"><path class="cls-2" d="M1.9,0H54.79a1.9,1.9,0,0,1,1.9,1.89h0V12H0V1.86A1.9,1.9,0,0,1,1.9,0Z"/></g><g id="shape2864-9"><path class="cls-3" d="M7.71,15.67H48.93a.9.9,0,0,1,.9.89v4.65a.9.9,0,0,1-.9.89H7.71a.9.9,0,0,1-.87-.9V16.56a.89.89,0,0,1,.86-.9Z"/></g><g id="shape2865-11"><path class="cls-4" d="M7.74,24.92H49a.9.9,0,0,1,.9.9v4.67a.9.9,0,0,1-.9.9H7.74a.86.86,0,0,1-.87-.86V26a.87.87,0,0,1,.64-1l.23,0Zm0,9.35H49a.9.9,0,0,1,.9.9v4.68a.9.9,0,0,1-.9.9H7.74a.86.86,0,0,1-.87-.86V35.17a.86.86,0,0,1,.83-.89h0Z"/></g><g id="shape2866-13"><path class="cls-5" d="M15.37,18.88V37.43a.93.93,0,0,0,.94.93h7.83a.93.93,0,0,0,.87-.93v-11a.91.91,0,0,1,.87-.93h4.76a.9.9,0,0,1,.94.86V37.43a.93.93,0,0,0,.94.93h7.86a.93.93,0,0,0,.94-.93h0V18.88a.93.93,0,0,0-.93-.93H16.3a.93.93,0,0,0-.93.93Z"/></g></g></g></svg>