<svg id="Layer_1" data-name="Layer 1" xmlns="http://www.w3.org/2000/svg" width="42.52" height="56.69" viewBox="0 0 42.52 56.69"><defs><style>.cls-1{fill:#0078d7;fill-rule:evenodd;}</style></defs><g id="group2867-1"><g id="group2868-2"><g id="group2869-3"><g id="shape2870-4"><path class="cls-1" d="M21.26,5.37A8.79,8.79,0,0,1,30,13.92c1.75.24,3.55.55,5.38.95,0-.24,0-.48,0-.72a14.18,14.18,0,0,0-28.35,0c0,.23,0,.45,0,.68,1.57-.34,3.38-.67,5.39-.93A8.78,8.78,0,0,1,21.26,5.37Z"/></g><g id="shape2871-6"><path class="cls-1" d="M0,19.53v5.31A34.58,34.58,0,0,0,21.26,56.69,34.58,34.58,0,0,0,42.52,24.84V19.53A65.22,65.22,0,0,0,0,19.53ZM28.35,40.82H14.17v-.94A7.09,7.09,0,0,1,19,33.18a5.32,5.32,0,1,1,4.55,0,7.09,7.09,0,0,1,4.82,6.7Z"/></g></g></g></g></svg>