<svg id="Layer_1" data-name="Layer 1" xmlns="http://www.w3.org/2000/svg" xmlns:xlink="http://www.w3.org/1999/xlink" width="56.71" height="56.69" viewBox="0 0 56.71 56.69"><defs><style>.cls-1,.cls-2,.cls-3{fill-rule:evenodd;}.cls-1{fill:url(#linear-gradient);}.cls-2{fill:#005ba1;}.cls-3{fill:#fff;}</style><linearGradient id="linear-gradient" x1="-284.31" y1="423.64" x2="-283.31" y2="423.64" gradientTransform="matrix(-28.74, -48.87, -48.88, 28.74, 12582.4, -26017.09)" gradientUnits="userSpaceOnUse"><stop offset="0" stop-color="#0078d4"/><stop offset="0.16" stop-color="#1380da"/><stop offset="0.53" stop-color="#3c91e5"/><stop offset="0.82" stop-color="#559cec"/><stop offset="1" stop-color="#5ea0ef"/></linearGradient></defs><g id="group2786-1"><g id="group2787-2"><g id="shape2788-3"><path class="cls-1" d="M56.1,8.31,48.34.57A2,2,0,0,0,46.94,0L32.88.54a1.74,1.74,0,0,0-1.2.68L.58,32.49A1.88,1.88,0,0,0,.5,35.13l.08.08L21.25,56.14a1.87,1.87,0,0,0,2.66,0L55,24.69a1.84,1.84,0,0,0,.57-1.19L56.7,9.94A2,2,0,0,0,56.1,8.31Zm-9.23,5.12A3.39,3.39,0,1,1,50.2,10h0A3.36,3.36,0,0,1,46.87,13.43Z"/></g><g id="shape2789-7"><path class="cls-2" d="M46.87,3.66A6.22,6.22,0,0,0,40.74,10a6.17,6.17,0,1,0,12.33-.05A6.23,6.23,0,0,0,46.9,3.66Zm3.34,7a3.41,3.41,0,0,1-4,2.72,3.46,3.46,0,0,1-2.66-4.08A3.45,3.45,0,0,1,50.27,9a3.65,3.65,0,0,1,0,1.61Z"/></g><g id="shape2790-9"><path class="cls-3" d="M30.8,15.5l-1.26-1.29-1.2,1.29L26.7,13.84l2.8-2.95,2.9,2.95Zm-15.36,13-1.63-1.66,3.6-3.67.93.85-.83-.85L19,25Zm8.4-11.81,1.63,1.7L21.94,22l-1.63-1.67ZM11,35.65,8.11,32.7,11,29.85l1.63,1.66L11.38,32.7,12.64,34Zm4.66,1.43,3.87,4-1.67,1.66L14,38.77Zm8.14,11.63-2.9-3,1.76-1.66,1.14,1.19L25,44.2l1.63,1.66Zm7.86-11.09,1.67,1.66-3.7,3.6L28,41.21Zm4.5-1.26L34.44,34.7,38,31l1.63,1.66-3.33,3.66-.8-.81Zm6.43-6.51-1.77-1.49Zm0,0-1.77-1.49L42,27l-1.17-1.16,1.64-1.79L45.37,27ZM35.54,17l3.86,3.93-1.66,1.7-3.87-3.94Z"/></g></g></g></svg>