<svg id="Layer_1" data-name="Layer 1" xmlns="http://www.w3.org/2000/svg" xmlns:xlink="http://www.w3.org/1999/xlink" width="56.69" height="51.03" viewBox="0 0 56.69 51.03"><defs><style>.cls-1,.cls-3{fill-rule:evenodd;}.cls-1{fill:url(#linear-gradient);}.cls-2{fill:#f2f2f2;}.cls-3{fill:#50e6ff;}</style><linearGradient id="linear-gradient" x1="-285.15" y1="418.21" x2="-284.15" y2="418.21" gradientTransform="matrix(0, -41.08, -56.69, 0, 23736.62, -11673.98)" gradientUnits="userSpaceOnUse"><stop offset="0" stop-color="#0078d4"/><stop offset="0.82" stop-color="#5ea0ef"/></linearGradient></defs><g id="group3061-1"><g id="group3062-2"><g id="shape3063-3"><path class="cls-1" d="M56.69,28.19a12.76,12.76,0,0,0-11-12.32A16.21,16.21,0,0,0,29.1,0,16.46,16.46,0,0,0,13.35,11,15.41,15.41,0,0,0,0,25.9,15.58,15.58,0,0,0,16,41.06H43.21a2.73,2.73,0,0,0,.7,0A13,13,0,0,0,56.69,28.19Z"/></g><g id="shape3064-7"><rect class="cls-2" x="20.88" y="18.5" width="15.94" height="22.52"/></g><g id="shape3065-9"><path class="cls-3" d="M39.72,17.06l-11-6.44a.79.79,0,0,0-1,.48V50.23a.79.79,0,0,0,.75.8h.26l11-6.63a.81.81,0,0,0,.53-.74V17.93a.84.84,0,0,0-.57-.87Z"/></g></g></g></svg>