<svg id="Layer_1" data-name="Layer 1" xmlns="http://www.w3.org/2000/svg" xmlns:xlink="http://www.w3.org/1999/xlink" width="45.35" height="56.69" viewBox="0 0 45.35 56.69"><defs><style>.cls-1,.cls-2,.cls-3{fill-rule:evenodd;}.cls-1{fill:url(#linear-gradient);}.cls-2{fill:url(#linear-gradient-2);}.cls-3{fill:#fff;}</style><linearGradient id="linear-gradient" x1="-275.36" y1="441.93" x2="-274.36" y2="441.93" gradientTransform="matrix(0, 56.69, 45.35, 0, -20019.06, 15609.58)" gradientUnits="userSpaceOnUse"><stop offset="0" stop-color="#5e9624"/><stop offset="0.32" stop-color="#619a25"/><stop offset="0.66" stop-color="#69a728"/><stop offset="1" stop-color="#76bc2d"/></linearGradient><linearGradient id="linear-gradient-2" x1="-288.27" y1="429.16" x2="-287.27" y2="429.16" gradientTransform="matrix(0, -51.99, -41.58, 0, 17867.34, -14932.7)" gradientUnits="userSpaceOnUse"><stop offset="0" stop-color="#5e9624"/><stop offset="0.55" stop-color="#6dad2a"/><stop offset="1" stop-color="#76bc2d"/></linearGradient></defs><g id="group3235-1"><g id="group3236-2"><g id="shape3237-3"><path class="cls-1" d="M45.35,26.47c0,15.24-18,27.51-21.93,30a1.38,1.38,0,0,1-1.49,0C18,54,0,41.71,0,26.47V8.13A1.45,1.45,0,0,1,1.39,6.67C15.4,6.28,12.18,0,22.68,0S30,6.28,44,6.67a1.45,1.45,0,0,1,1.39,1.46Z"/></g><g id="shape3238-7"><path class="cls-2" d="M43.47,26.62c0,14-16.52,25.24-20.1,27.52a1.3,1.3,0,0,1-1.37,0C18.41,51.86,1.89,40.6,1.89,26.62V9.81A1.31,1.31,0,0,1,3.17,8.48C16,8.12,13.05,2.35,22.68,2.35S29.35,8.13,42.2,8.48a1.32,1.32,0,0,1,1.27,1.33Z"/></g><g id="group3239-11"><g id="shape3240-12"><path class="cls-3" d="M32.8,32H12.56a2.18,2.18,0,0,0-2.15,2.2h0V37a.36.36,0,0,0,.35.37H34.6A.36.36,0,0,0,35,37V34.24A2.18,2.18,0,0,0,32.8,32Z"/></g><g id="shape3241-14"><path class="cls-3" d="M32.71,40.05H12.64a.26.26,0,0,0-.26.26h0v1.37a1.55,1.55,0,0,0,1.52,1.57H31.44A1.55,1.55,0,0,0,33,41.69h0V40.31a.26.26,0,0,0-.26-.26Z"/></g><g id="shape3242-16"><path class="cls-3" d="M27.34,20.08c1.42-2.11,2.41-1.71,1.6-6.57s-6.09-4.82-6.41-4.82-5.62,0-6.42,4.82.18,4.46,1.6,6.57A29,29,0,0,1,19,29.2h7.05A29,29,0,0,1,27.34,20.08Z"/></g></g></g></g></svg>