<svg id="Layer_1" data-name="Layer 1" xmlns="http://www.w3.org/2000/svg" width="56.69" height="53.86" viewBox="0 0 56.69 53.86"><defs><style>.cls-1{fill:#59b4d9;}.cls-1,.cls-2,.cls-3,.cls-6{fill-rule:evenodd;}.cls-2,.cls-6{fill:#fff;}.cls-2{fill-opacity:0.2;}.cls-4{fill:#dd5900;}.cls-5{fill:#ff8c00;}.cls-6{fill-opacity:0.15;}</style></defs><g id="group3283-1"><g id="group3284-2"><g id="shape3285-3"><path class="cls-1" d="M56.69,27.35a6.4,6.4,0,0,0-6.57-6.24h-.89a17.75,17.75,0,0,0,.71-4.39C50,7.53,42.17,0,32.5,0h-.15A17.32,17.32,0,0,0,15.82,11.48a14.88,14.88,0,0,0-3.91-.67A11.65,11.65,0,0,0,0,22.29,11.65,11.65,0,0,0,11.91,33.77H50.65A6.55,6.55,0,0,0,56.69,27.35Z"/></g><g id="shape3286-5"><path class="cls-2" d="M18.13,33.77a11.14,11.14,0,0,1-3.2-5.57A11.34,11.34,0,0,1,24,14.52a10.67,10.67,0,0,1,3.91-.17A16.76,16.76,0,0,1,37.68.85,17.53,17.53,0,0,0,32.35,0,17.32,17.32,0,0,0,15.82,11.48a14.88,14.88,0,0,0-3.91-.67A11.65,11.65,0,0,0,0,22.29,11.65,11.65,0,0,0,11.91,33.77Z"/></g><g id="shape3287-7"><path class="cls-3" d="M14.5,34.44a10.31,10.31,0,0,1-6.76,2.48A10.27,10.27,0,0,1,1,34.44L0,53.86l7.74-7.43,7.73,7.43Z"/></g><g id="shape3288-9"><ellipse class="cls-4" cx="34.66" cy="27.71" rx="13.19" ry="12.53"/></g><g id="shape3289-11"><ellipse class="cls-5" cx="34.66" cy="27.71" rx="9.94" ry="9.44"/></g><g id="shape3290-13"><path class="cls-6" d="M25.29,36.61a12.13,12.13,0,0,1,0-17.72,13.73,13.73,0,0,1,18.65,0Z"/></g></g></g></svg>