<svg id="Layer_1" data-name="Layer 1" xmlns="http://www.w3.org/2000/svg" width="53.25" height="51.03" viewBox="0 0 53.25 51.03"><defs><style>.cls-1{fill:#915acd;}.cls-1,.cls-10,.cls-2,.cls-3,.cls-4,.cls-5,.cls-6,.cls-7,.cls-8,.cls-9{fill-rule:evenodd;}.cls-2{fill:#661db0;}.cls-3{fill:#a062df;}.cls-4{fill:#945ccf;}.cls-5{fill:#cea8f6;}.cls-6{fill:#be95ea;}.cls-7{fill:#e5cfff;}.cls-8{fill:#b88ee7;}.cls-9{fill:#9d6bd5;}.cls-10{fill:#874cc7;}</style></defs><g id="group2732-1"><g id="shape2733-2"><path class="cls-1" d="M35.38,5.32H17.63v8.43H35.38Z"/></g><g id="shape2734-4"><path class="cls-2" d="M52.32,41.38l-3.72-6H32.71v.1c0,4.94-4.33,9-9.65,9s-9.65-4-9.65-9v-.1H4.61l-3.69,6C-1.71,45.71,1.63,51,7,51H46.3C51.64,51,55,45.67,52.32,41.38Z"/></g><g id="shape2735-6"><path class="cls-3" d="M13.42,35.49c0,4.94,4.32,8.94,9.65,8.94s9.65-4,9.65-8.94v-.11H13.42Z"/></g><g id="shape2736-8"><path class="cls-4" d="M23.06,26.54a10.17,10.17,0,0,1,1.47.11,5.4,5.4,0,0,1,5.34-3.95,5.28,5.28,0,0,1,5.47,5.08,5.09,5.09,0,0,1-3.23,4.63,8.18,8.18,0,0,1,.58,3h15.9L35.39,14.1v-.35H17.64v.35l-13,21.27h8.81C13.48,30.49,17.77,26.54,23.06,26.54Z"/></g><g id="shape2737-10"><path class="cls-5" d="M29.87,32.86a5.29,5.29,0,0,1-5.48-5.08,4.66,4.66,0,0,1,.14-1.13,10.17,10.17,0,0,0-1.47-.11c-5.29,0-9.58,3.95-9.64,8.83H32.71a8.72,8.72,0,0,0-.58-3A5.85,5.85,0,0,1,29.87,32.86Z"/></g><g id="shape2738-12"><path class="cls-6" d="M32.11,32.4a5.06,5.06,0,0,0,3.23-4.63,5.29,5.29,0,0,0-5.48-5.08,5.4,5.4,0,0,0-5.34,3.95A9.55,9.55,0,0,1,32.11,32.4Z"/></g><g id="shape2739-14"><path class="cls-7" d="M29.86,32.85a5.79,5.79,0,0,0,2.25-.45,9.55,9.55,0,0,0-7.59-5.77,4.73,4.73,0,0,0-.14,1.13A5.29,5.29,0,0,0,29.86,32.85Z"/></g><g id="shape2740-16"><path class="cls-8" d="M17.63,0H16.36a1.47,1.47,0,0,0-1.52,1.41v.91a1.47,1.47,0,0,0,1.52,1.41h1.27Z"/></g><g id="shape2741-18"><path class="cls-8" d="M38,2.32V1.41A1.47,1.47,0,0,0,36.51,0H35.39V3.73h1.12A1.47,1.47,0,0,0,38,2.32Z"/></g><g id="shape2742-20"><path class="cls-9" d="M35.38,0H17.63V3.73H35.38Z"/></g><g id="shape2743-22"><path class="cls-10" d="M35.38,3.73H17.63V5.31H35.38Z"/></g></g></svg>