<svg id="Layer_1" data-name="Layer 1" xmlns="http://www.w3.org/2000/svg" width="53.33" height="48.81" viewBox="0 0 53.33 48.81"><defs><style>.cls-1{fill:#59b4d9;}.cls-1,.cls-2,.cls-3,.cls-4,.cls-6{fill-rule:evenodd;}.cls-2,.cls-5,.cls-6{fill:#fff;}.cls-3{fill:#57a300;}.cls-4{fill:#3999c6;}.cls-6{fill-opacity:0.2;}</style></defs><g id="group3219-1"><g id="shape3220-2"><path class="cls-1" d="M26.49,25.07H0V47.36a1.47,1.47,0,0,0,.36,1h0a1.06,1.06,0,0,0,.12.1,1.31,1.31,0,0,0,.93.38H28.93a1.44,1.44,0,0,0,1.4-1.46V25.07Z"/></g><g id="shape3221-4"><path class="cls-2" d="M5.82,5H24.75V6.79H5.82Zm0,5.93H24.75v1.82H5.82Zm0,5.94H24.75v1.82H5.82Z"/></g><g id="shape3222-6"><path class="cls-3" d="M44.14,15.75S45.54,5,36,2.91a14.1,14.1,0,0,0-1.86-.12,2.77,2.77,0,0,0-1.62.36V7.52s.34-.36,1.85-.36c.94,0,1.63.12,2,.12,2.21.72,4.3,2.42,3.83,8.36H36.14l6.38,8.23,6.28-8.23H44.14Z"/></g><g id="shape3223-8"><path class="cls-1" d="M52.29,29.56h-.81v13.8H38.23v1.1c0,.49.11.85.58.85H52.52a.8.8,0,0,0,.81-.85v-14C53.33,29.92,52.75,29.56,52.29,29.56Z"/></g><g id="shape3224-10"><path class="cls-1" d="M14.06,33.07h-.81V46.76c0,.11-.12.11-.12.11H0V48c0,.49.11.85.58.85H14.06a1.07,1.07,0,0,0,1-1.09V33.92C15.1,33.44,14.52,33.07,14.06,33.07Z"/></g><g id="shape3225-12"><path class="cls-4" d="M3.84,19.13H30.32V12.7a1.44,1.44,0,0,0-1.4-1.45H1.4A1.44,1.44,0,0,0,0,12.7v6.43ZM48.68,44.81H35.2a.8.8,0,0,0-.81.85v3.15H49.48V45.66A.79.79,0,0,0,48.68,44.81Z"/></g><g id="shape3226-14"><path class="cls-1" d="M47.64,29.57H34.4v11a.8.8,0,0,0,.81.85H48.69a.8.8,0,0,0,.81-.85v-11Z"/></g><g id="shape3227-16"><rect class="cls-5" x="37.87" y="31.5" width="7.55" height="1.93"/></g><g id="shape3228-18"><path class="cls-6" d="M26.51,0H0V22.29a1.5,1.5,0,0,0,.4,1C.66,23.57,30.34,0,30.34,0Zm23,29.56H34.4v11a.86.86,0,0,0,.19.62Z"/></g></g></svg>