<svg id="Layer_1" data-name="Layer 1" xmlns="http://www.w3.org/2000/svg" xmlns:xlink="http://www.w3.org/1999/xlink" width="56.69" height="31.18" viewBox="0 0 56.69 31.18"><defs><style>.cls-1{fill:#4bc8ef;}.cls-1,.cls-10,.cls-11,.cls-12,.cls-13,.cls-14,.cls-15,.cls-2,.cls-3,.cls-4,.cls-5,.cls-6,.cls-7,.cls-8,.cls-9{fill-rule:evenodd;}.cls-2{fill:#96d8ec;}.cls-3{fill:#74cfeb;}.cls-4{fill:#2f76bc;}.cls-5{fill:#1d4b7a;}.cls-6{fill:#509ed7;}.cls-7{fill:url(#linear-gradient);}.cls-8{fill:url(#linear-gradient-2);}.cls-9{fill:url(#linear-gradient-3);}.cls-10{fill:url(#linear-gradient-4);}.cls-11{fill:url(#linear-gradient-5);}.cls-12{fill:url(#linear-gradient-6);}.cls-13{fill:url(#linear-gradient-7);}.cls-14{fill:url(#linear-gradient-8);}.cls-15{fill:url(#linear-gradient-9);}</style><linearGradient id="linear-gradient" x1="-270.5" y1="375.81" x2="-269.5" y2="375.81" gradientTransform="matrix(43.93, 0, 0, -7.49, 11888.82, 2826.73)" gradientUnits="userSpaceOnUse"><stop offset="0.25" stop-color="#0560a5"/><stop offset="0.8" stop-color="#72c8e6"/></linearGradient><linearGradient id="linear-gradient-2" x1="-270.5" y1="356.25" x2="-269.5" y2="356.25" gradientTransform="matrix(43.93, 0, 0, -5.34, 11890.73, 1915.28)" xlink:href="#linear-gradient"/><linearGradient id="linear-gradient-3" x1="-270.5" y1="313.02" x2="-269.5" y2="313.02" gradientTransform="matrix(43.94, 0, 0, -3.27, 11892.24, 1036.84)" xlink:href="#linear-gradient"/><linearGradient id="linear-gradient-4" x1="-270.5" y1="221.9" x2="-269.5" y2="221.9" gradientTransform="matrix(43.92, 0, 0, -1.8, 11887.12, 414.17)" xlink:href="#linear-gradient"/><linearGradient id="linear-gradient-5" x1="-270.48" y1="-485.62" x2="-269.48" y2="-485.62" gradientTransform="matrix(43.82, 0, 0, -0.4, 11859.03, -177.49)" xlink:href="#linear-gradient"/><linearGradient id="linear-gradient-6" x1="-270.5" y1="375.73" x2="-269.5" y2="375.73" gradientTransform="matrix(43.92, 0, 0, -7.48, 11888.06, 2834.7)" xlink:href="#linear-gradient"/><linearGradient id="linear-gradient-7" x1="-270.5" y1="356.28" x2="-269.5" y2="356.28" gradientTransform="matrix(43.93, 0, 0, -5.35, 11890.72, 1926)" xlink:href="#linear-gradient"/><linearGradient id="linear-gradient-8" x1="-270.5" y1="312.78" x2="-269.5" y2="312.78" gradientTransform="matrix(43.94, 0, 0, -3.26, 11890.99, 1039.89)" xlink:href="#linear-gradient"/><linearGradient id="linear-gradient-9" x1="-270.5" y1="222.16" x2="-269.5" y2="222.16" gradientTransform="matrix(43.92, 0, 0, -1.8, 11887.37, 418.12)" xlink:href="#linear-gradient"/></defs><g id="group3254-1"><g id="group3255-2"><g id="shape3256-3"><path class="cls-1" d="M0,31.18l3.8-2.4V3.39L0,5.66Z"/></g><g id="shape3257-5"><path class="cls-2" d="M47.51,2.34V27.91l5.38,3.27V5.65Z"/></g><g id="shape3258-7"><path class="cls-3" d="M52.9,5.66l3.79-2.27L51.23,0,47.51,2.34Z"/></g><g id="shape3259-9"><path class="cls-4" d="M3.8,5.65,0,3.39V28.78l3.8,2.4Z"/></g><g id="shape3260-11"><path class="cls-5" d="M3.8,5.65V31.18l5.38-3.27V2.34Z"/></g><g id="shape3261-13"><path class="cls-6" d="M9.18,2.35,5.47,0,0,3.4l3.8,2.27Z"/></g><g id="shape3262-15"><path class="cls-7" d="M28.45,13.8a44.9,44.9,0,0,1-10.32-1.12,30,30,0,0,1-6.81-2.45,15.75,15.75,0,0,1-4.9-3.6.2.2,0,1,1,.31-.24,15.87,15.87,0,0,0,4.8,3.5,29.3,29.3,0,0,0,6.71,2.41,45.14,45.14,0,0,0,10.21,1.1,44.32,44.32,0,0,0,10.19-1.11,28,28,0,0,0,6.64-2.42A15,15,0,0,0,50,6.38a.2.2,0,1,1,.32.24,15.14,15.14,0,0,1-4.81,3.6,28.79,28.79,0,0,1-6.72,2.45A44.07,44.07,0,0,1,28.45,13.8Z"/></g><g id="shape3263-19"><path class="cls-8" d="M28.45,14.59c-4.65,0-11.39-.44-17.1-2.49a16.21,16.21,0,0,1-4.9-2.51.2.2,0,0,1,0-.28.21.21,0,0,1,.28,0,16,16,0,0,0,4.81,2.45c5.65,2,12.33,2.45,16.94,2.45s11.28-.43,16.85-2.46A15.67,15.67,0,0,0,50,9.3a.19.19,0,0,1,.28,0,.2.2,0,0,1,0,.27,15.35,15.35,0,0,1-4.81,2.51,37.61,37.61,0,0,1-6.72,1.71A62.66,62.66,0,0,1,28.45,14.59Z"/></g><g id="shape3264-22"><path class="cls-9" d="M28.45,15.38a89.11,89.11,0,0,1-17.07-1.44,21,21,0,0,1-4.89-1.45.2.2,0,0,1-.09-.27.21.21,0,0,1,.27-.08,22.2,22.2,0,0,0,4.82,1.42,88.7,88.7,0,0,0,17,1.43A87,87,0,0,0,45.3,13.56,20.24,20.24,0,0,0,50,12.14a.2.2,0,0,1,.27.07.19.19,0,0,1-.07.27h0a20.3,20.3,0,0,1-4.79,1.45A87.55,87.55,0,0,1,28.45,15.38Z"/></g><g id="shape3265-25"><path class="cls-10" d="M28.45,16.16c-16.09,0-21.86-1.39-21.92-1.41a.19.19,0,0,1-.14-.24.19.19,0,0,1,.24-.14s5.79,1.4,21.82,1.4S50,14.39,50.06,14.37a.21.21,0,0,1,.24.15.19.19,0,0,1-.14.23S44.54,16.16,28.45,16.16Z"/></g><g id="shape3266-28"><path class="cls-11" d="M50,17H6.58a.2.2,0,0,1,0-.4H50a.2.2,0,0,1,.2.2A.2.2,0,0,1,50,17Z"/></g><g id="shape3267-31"><path class="cls-12" d="M50.11,27.18A.18.18,0,0,1,50,27.1a15.08,15.08,0,0,0-4.7-3.5,28.47,28.47,0,0,0-6.63-2.41A44.74,44.74,0,0,0,28.45,20.1a45.22,45.22,0,0,0-10.21,1.09,29.39,29.39,0,0,0-6.7,2.41,15.9,15.9,0,0,0-4.8,3.5.2.2,0,0,1-.28,0,.2.2,0,0,1,0-.28,15.65,15.65,0,0,1,4.9-3.59,29.54,29.54,0,0,1,6.81-2.46A44.92,44.92,0,0,1,28.46,19.7a44.5,44.5,0,0,1,10.28,1.11,28.88,28.88,0,0,1,6.73,2.46,15.08,15.08,0,0,1,4.8,3.59.2.2,0,0,1,0,.28A.19.19,0,0,1,50.11,27.18Z"/></g><g id="shape3268-34"><path class="cls-13" d="M50.11,24.26a.17.17,0,0,1-.13-.05,15.51,15.51,0,0,0-4.71-2.45c-5.56-2-12.22-2.45-16.82-2.45s-11.29.43-16.94,2.45A16.3,16.3,0,0,0,6.7,24.21a.19.19,0,0,1-.28,0,.19.19,0,0,1,0-.27h0a16.26,16.26,0,0,1,4.91-2.51c3.15-1.13,8.67-2.49,17.1-2.49a62.62,62.62,0,0,1,10.27.78,37,37,0,0,1,6.72,1.71,15.38,15.38,0,0,1,4.81,2.52.2.2,0,0,1,0,.27A.2.2,0,0,1,50.11,24.26Z"/></g><g id="shape3269-37"><path class="cls-14" d="M6.58,21.39a.2.2,0,0,1-.2-.2A.18.18,0,0,1,6.49,21a21.48,21.48,0,0,1,4.89-1.46,89.86,89.86,0,0,1,17.07-1.43,88.29,88.29,0,0,1,17,1.43A20.53,20.53,0,0,1,50.21,21a.21.21,0,0,1,.09.26.2.2,0,0,1-.27.09h0a19.84,19.84,0,0,0-4.72-1.43,87,87,0,0,0-16.85-1.42,88.26,88.26,0,0,0-17,1.43,20.57,20.57,0,0,0-4.79,1.42Z"/></g><g id="shape3270-40"><path class="cls-15" d="M6.58,19.14a.2.2,0,0,1-.2-.2.19.19,0,0,1,.15-.19s5.83-1.41,21.92-1.41,21.66,1.4,21.71,1.41a.19.19,0,0,1,.13.25.19.19,0,0,1-.23.13c-.06,0-5.59-1.39-21.61-1.39S6.68,19.12,6.62,19.13Z"/></g></g></g></svg>