<svg id="Layer_1" data-name="Layer 1" xmlns="http://www.w3.org/2000/svg" xmlns:xlink="http://www.w3.org/1999/xlink" width="56.73" height="34.03" viewBox="0 0 56.73 34.03"><defs><style>.cls-1,.cls-2,.cls-3{fill-rule:evenodd;}.cls-1{fill:url(#linear-gradient);}.cls-2{fill:url(#linear-gradient-2);}.cls-3{fill:#fff;}</style><linearGradient id="linear-gradient" x1="-287.52" y1="408.46" x2="-286.52" y2="408.46" gradientTransform="matrix(0, -31.75, -45.67, 0, 18688.48, -9096.8)" gradientUnits="userSpaceOnUse"><stop offset="0" stop-color="#0078d4"/><stop offset="0.16" stop-color="#1380da"/><stop offset="0.53" stop-color="#3c91e5"/><stop offset="0.82" stop-color="#559cec"/><stop offset="1" stop-color="#5ea0ef"/></linearGradient><linearGradient id="linear-gradient-2" x1="-287.31" y1="408.61" x2="-286.31" y2="408.61" gradientTransform="matrix(0, -32.4, -46.93, 0, 19199.48, -9273.58)" gradientUnits="userSpaceOnUse"><stop offset="0" stop-color="#198ab3"/><stop offset="0.11" stop-color="#22a5cb"/><stop offset="0.23" stop-color="#29bade"/><stop offset="0.37" stop-color="#2ec9eb"/><stop offset="0.53" stop-color="#31d1f3"/><stop offset="0.78" stop-color="#32d4f5"/></linearGradient></defs><g id="group2888-1"><g id="shape2889-2"><path class="cls-1" d="M56.73,21.73a10.1,10.1,0,0,0-8.91-9.63A12.81,12.81,0,0,0,34.49,0a13.29,13.29,0,0,0-12.6,8.46A12.08,12.08,0,0,0,11.06,20.1,12.49,12.49,0,0,0,23.91,31.75H46.52A10.24,10.24,0,0,0,56.73,21.73Z"/></g><g id="shape2890-6"><path class="cls-2" d="M47,23.84a10.4,10.4,0,0,0-9.13-9.9A13.14,13.14,0,0,0,24.13,1.64a13.66,13.66,0,0,0-13,8.58A12.42,12.42,0,0,0,0,22,12.67,12.67,0,0,0,13.27,34H36.39A10.53,10.53,0,0,0,47,23.84Z"/></g><g id="shape2891-10"><path class="cls-3" d="M2.8,18.15H5.48a.77.77,0,0,1,.54.22l6.29,6.15a.73.73,0,0,1,0,1.05l0,0L3.75,33.81a.75.75,0,0,1-.53.22H.66A.77.77,0,0,1,0,33.14a.81.81,0,0,1,.21-.41l7.27-7.19a.69.69,0,0,0,0-1l0,0L2.27,19.42a.72.72,0,0,1,0-1,.76.76,0,0,1,.54-.22ZM13.61,7.79h2.74a.78.78,0,0,1,.54.25L21.7,12.8a.73.73,0,0,1,0,1h0l-6.3,5.87a.75.75,0,0,1-.53.22h-2.3A.77.77,0,0,1,12,18.68l4.82-4.74a.75.75,0,0,0,0-1L13.07,9.2a.74.74,0,0,1-.45-1,.77.77,0,0,1,1-.44Zm5.63,12.3h2.68a.9.9,0,0,1,.54.22l3.93,3.84a.76.76,0,0,1,0,1.05l-5.7,5.63a.75.75,0,0,1-.53.22H17.57a.75.75,0,0,1-.76-.73.72.72,0,0,1,.23-.53l4.47-4.43a.75.75,0,0,0,0-1l-2.8-2.8a.72.72,0,0,1,0-1,.81.81,0,0,1,.43-.22Z"/></g></g></svg>