<svg id="Layer_1" data-name="Layer 1" xmlns="http://www.w3.org/2000/svg" xmlns:xlink="http://www.w3.org/1999/xlink" width="36.85" height="56.94" viewBox="0 0 36.85 56.94"><defs><style>.cls-1{fill:#7a7a7a;}.cls-2{fill:#1490df;}.cls-2,.cls-3,.cls-4{fill-rule:evenodd;}.cls-3{fill:url(#linear-gradient);}.cls-4{fill:url(#linear-gradient-2);}</style><linearGradient id="linear-gradient" x1="-266.93" y1="436.91" x2="-265.93" y2="436.91" gradientTransform="matrix(0, 16.54, 22.06, 0, -9623.35, 4448.5)" gradientUnits="userSpaceOnUse"><stop offset="0.23" stop-color="#5ea0ef"/><stop offset="0.32" stop-color="#5b9fee"/><stop offset="0.48" stop-color="#509aeb"/><stop offset="0.57" stop-color="#3f92e6"/><stop offset="0.75" stop-color="#2688df"/><stop offset="0.93" stop-color="#127fd9"/></linearGradient><linearGradient id="linear-gradient-2" x1="-266.92" y1="436.85" x2="-265.92" y2="436.85" gradientTransform="matrix(0, 16.53, 22.18, 0, -9676.75, 4452.52)" gradientUnits="userSpaceOnUse"><stop offset="0.02" stop-color="#5ea0ef"/><stop offset="0.14" stop-color="#5b9fee"/><stop offset="0.23" stop-color="#5b9fee"/><stop offset="0.34" stop-color="#509aeb"/><stop offset="0.44" stop-color="#3f92e6"/><stop offset="0.63" stop-color="#2688df"/><stop offset="0.93" stop-color="#127fd9"/></linearGradient></defs><g id="group2881-1"><g id="group2882-2"><g id="shape2883-3"><rect class="cls-1" x="16.31" y="8.86" width="3.99" height="26.04"/></g><g id="shape2884-5"><path class="cls-2" d="M24.16,8a6,6,0,0,1-5.86,6.05A6,6,0,0,1,12.45,8,6,6,0,0,1,18.3,2,6,6,0,0,1,24.16,8Z"/></g><g id="shape2885-7"><path class="cls-3" d="M17.51,33.51H11.12A8.29,8.29,0,0,0,9.88,49.93,9,9,0,0,1,10,46.86a5.23,5.23,0,0,1-3.84-6.23,5.1,5.1,0,0,1,5-4.09h6.39a5.24,5.24,0,0,1,0,10.47H15.75a3.87,3.87,0,0,0-.13,3h1.89a8.28,8.28,0,0,0,0-16.53Z"/></g><g id="shape2886-11"><path class="cls-4" d="M15.61,40.52a10.69,10.69,0,0,1,.1,1.27,9.08,9.08,0,0,1-.18,1.8,5.23,5.23,0,0,1,3.87,6.2,5.09,5.09,0,0,1-5,4.12H8A5.24,5.24,0,0,1,8,43.44H9.74a3.85,3.85,0,0,0,.12-3H8A8.27,8.27,0,0,0,8,56.94h6.39A8.29,8.29,0,0,0,15.6,40.52Z"/></g><g id="shape2887-15"><path class="cls-2" d="M9.84,11.85a6.13,6.13,0,0,1-1.38-3.7A5.16,5.16,0,0,1,9.79,4.69a1.43,1.43,0,0,0,0-2A1.32,1.32,0,0,0,8,2.64a8.07,8.07,0,0,0-2.19,5.5A8.93,8.93,0,0,0,7.9,13.79a1.36,1.36,0,0,0,1,.43,1.3,1.3,0,0,0,.92-.39,1.44,1.44,0,0,0,0-2ZM3.74,16.5a1.32,1.32,0,0,1-1-.48A13,13,0,0,1,0,8.22,13.81,13.81,0,0,1,2.7.46,1.32,1.32,0,0,1,4.61.36,1.44,1.44,0,0,1,4.8,2.21a11.15,11.15,0,0,0-2.09,6,10.11,10.11,0,0,0,2.06,6,1.43,1.43,0,0,1-.13,2,1.3,1.3,0,0,1-.89.35ZM28.47,2.65a1.32,1.32,0,0,0-1.91.14,1.45,1.45,0,0,0,.07,1.91A5.15,5.15,0,0,1,28,8.18a6.06,6.06,0,0,1-1.39,3.7,1.43,1.43,0,0,0,.05,2,1.32,1.32,0,0,0,1.91,0h0a9,9,0,0,0,2.13-5.66A8,8,0,0,0,28.47,2.65Zm4.65,13.86a1.38,1.38,0,0,1-1.36-1.39,1.44,1.44,0,0,1,.34-.93,10.3,10.3,0,0,0,2.06-6,11.11,11.11,0,0,0-2.09-6A1.43,1.43,0,0,1,32.52.29a1.33,1.33,0,0,1,1.64.19,13.87,13.87,0,0,1,2.69,7.75A13.07,13.07,0,0,1,34.13,16,1.33,1.33,0,0,1,33.12,16.51Z"/></g></g></g></svg>