<svg id="Layer_1" data-name="Layer 1" xmlns="http://www.w3.org/2000/svg" width="56.69" height="56.69" viewBox="0 0 56.69 56.69"><defs><style>.cls-1{fill:#edf4fb;}.cls-1,.cls-10,.cls-11,.cls-12,.cls-13,.cls-14,.cls-15,.cls-16,.cls-17,.cls-18,.cls-19,.cls-2,.cls-20,.cls-21,.cls-22,.cls-23,.cls-24,.cls-25,.cls-26,.cls-27,.cls-28,.cls-29,.cls-3,.cls-30,.cls-31,.cls-32,.cls-4,.cls-5,.cls-6,.cls-7,.cls-8,.cls-9{fill-rule:evenodd;}.cls-2{fill:#d6e8f7;}.cls-3{fill:#cce3f6;}.cls-4{fill:#bddbf4;}.cls-5{fill:#add2f1;}.cls-6{fill:#9dcaef;}.cls-7{fill:#8ec1ec;}.cls-8{fill:#59b4d9;}.cls-9{fill:#80bbea;}.cls-10{fill:#49defb;}.cls-11{fill:#7cb9e9;}.cls-12{fill:#6eb1e8;}.cls-13{fill:#40d0f6;}.cls-14{fill:#38c5f2;}.cls-15{fill:#60aae5;}.cls-16{fill:#57a6e4;}.cls-17{fill:#31bbee;}.cls-18{fill:#4ea1e3;}.cls-19{fill:#2cb4eb;}.cls-20{fill:#4099e0;}.cls-21{fill:#3f99e0;}.cls-22{fill:#22a7e8;}.cls-23{fill:#3493de;}.cls-24{fill:#1da0e5;}.cls-25{fill:#2f90de;}.cls-26{fill:#1393e0;}.cls-27{fill:#2088db;}.cls-28{fill:#1683d9;}.cls-29{fill:#0c89dc;}.cls-30{fill:#047dd9;}.cls-31{fill:#0078d5;}.cls-32{fill:#0077d5;}</style></defs><g id="group2948-1"><g id="group2949-2"><g id="shape2950-3"><path class="cls-1" d="M26.72,40.21V23.73h30v33h-30ZM22.6,54.41A26.9,26.9,0,0,1,6.7,43.63L5.59,42A6.55,6.55,0,0,0,4,42.41c-1,.35-1.51.42-1.5.22A29.14,29.14,0,0,1,4,39.4l1.42-2.94L8.43,37.9a21.28,21.28,0,0,1,3.06,1.6,3.39,3.39,0,0,1-1.19.61c-.65.24-1.22.46-1.27.5s2.07,3,3.22,4.12a23.48,23.48,0,0,0,11.16,6.21l1.06.27V53C24.47,54.88,24.52,54.85,22.6,54.41ZM0,16.48V0L14.92.06,29.84.13l.07,10.42L30,21h-5.5V33H0ZM47.77,19a20.68,20.68,0,0,1-3.06-1.59,5.3,5.3,0,0,1,1.62-.71L48,16.19l-.44-.74A26.6,26.6,0,0,0,42.27,10a25.06,25.06,0,0,0-7.93-3.81l-2.12-.56V2.19l1.18.18A28.45,28.45,0,0,1,44.5,7.23a34.53,34.53,0,0,1,6.1,6.37c.8,1.27.86,1.29,2.34.76,1-.34,1-.34.89.07-.42,1.12-2.77,6-2.88,6S49.45,19.82,47.77,19Z"/></g><g id="shape2951-5"><path class="cls-2" d="M26.72,40.2V23.72l14.92.06,14.92.07V56.56l-14.92.06-14.92.07ZM22.6,54.41A27.15,27.15,0,0,1,6.3,43c-.37-.59-.82-1.08-1-1.08a7.73,7.73,0,0,0-1.56.5c-.7.27-1.26.4-1.26.28s.64-1.56,1.43-3.22l1.44-3,3.06,1.41a20.11,20.11,0,0,1,3.06,1.58,3.15,3.15,0,0,1-1.25.59,3.1,3.1,0,0,0-1.25.6A20.4,20.4,0,0,0,10.69,43a23.25,23.25,0,0,0,12.72,8l1.06.27V53C24.47,54.88,24.52,54.85,22.6,54.41ZM0,16.48V0H29.72V21H24.47V33H0ZM47.77,19a23.07,23.07,0,0,1-3.06-1.55A3.92,3.92,0,0,1,46,16.9c2.13-.68,2.13-.68,1-2.2A23.47,23.47,0,0,0,34.26,6.21l-2-.55V2.19l1.18.18A28.57,28.57,0,0,1,44.5,7.22a33.76,33.76,0,0,1,6.09,6.37L51.5,15l.88-.36c1.6-.67,1.61-.52.17,2.57-.76,1.61-1.46,3-1.56,3.09A14.37,14.37,0,0,1,47.77,19Z"/></g><g id="shape2952-7"><path class="cls-3" d="M26.72,40.21V23.73H56.44v33H26.72Zm-4.9,14a26.62,26.62,0,0,1-15.37-11c-.81-1.32-1-1.4-2.36-.84a4.77,4.77,0,0,1-1.24.37c-.41,0-.34-.18,1.32-3.66l1.2-2.53L8.43,38a28.3,28.3,0,0,1,3.06,1.59,4.66,4.66,0,0,1-1.25.53A4.22,4.22,0,0,0,9,40.63a4.79,4.79,0,0,0,.55.91A23.67,23.67,0,0,0,23.42,51l1.06.26V53C24.48,55,24.58,54.92,21.82,54.2ZM.06,16.55.13.13,14.93.06,29.72,0V21H24.48V33H0ZM47.7,18.94l-3.12-1.5,1.58-.58a12.52,12.52,0,0,0,1.71-.71c.24-.24-1.52-2.44-3.33-4.19A23.46,23.46,0,0,0,33.83,6.07l-1.61-.39V2.19l1.19.18A29.32,29.32,0,0,1,41,5a27.45,27.45,0,0,1,9.47,8.42l1,1.5,1-.36a8,8,0,0,1,1.23-.36,40.26,40.26,0,0,1-2.72,6A15.33,15.33,0,0,1,47.7,18.94Z"/></g><g id="shape2953-9"><path class="cls-4" d="M26.72,40.21V23.73H56.44v33H26.72Zm-4.92,14A27.35,27.35,0,0,1,6.2,42.79l-.67-1-1.3.49a5.32,5.32,0,0,1-1.49.42c-.26-.09,2.36-5.77,2.71-5.88a16.78,16.78,0,0,1,3.21,1.32l2.95,1.41-1.25.5c-.68.27-1.28.54-1.33.58s1.39,2.26,2.71,3.7A24.68,24.68,0,0,0,22,50.59c2.57.71,2.49.64,2.49,2.47S24.56,54.92,21.8,54.19ZM0,16.61V.25H29.72V21H24.47V33H0Zm47.7,2.31-3.12-1.49,1.54-.54a9.47,9.47,0,0,0,1.72-.71c.25-.25-1.52-2.53-3.36-4.31A23.07,23.07,0,0,0,33.79,6.06l-1.57-.38V2.19l1.16.18a28.17,28.17,0,0,1,11,4.81,29.14,29.14,0,0,1,6.14,6.36l1,1.42,1-.36a7.69,7.69,0,0,1,1.23-.36,42.44,42.44,0,0,1-2.72,6A15.46,15.46,0,0,1,47.7,18.92Z"/></g><g id="shape2954-11"><path class="cls-5" d="M26.72,40.21V23.73H56.44v33H26.72Zm-4.87,14a30.76,30.76,0,0,1-7.72-3.43,36.78,36.78,0,0,1-7.59-7.47l-1-1.54-1.29.49a5.14,5.14,0,0,1-1.49.41c-.24-.08,2.4-5.77,2.73-5.89A19.74,19.74,0,0,1,8.65,38.1l3,1.41L10.3,40A4,4,0,0,0,9,40.68a25.79,25.79,0,0,0,3.9,4.76,24.07,24.07,0,0,0,9.32,5.24,15,15,0,0,1,2,.64,3.81,3.81,0,0,1,.25,1.76C24.47,54.94,24.57,54.9,21.85,54.19ZM0,16.61V.25H29.72V21H24.48l-.06,5.93-.07,5.93-12.18.07L0,33ZM47.89,19A21.38,21.38,0,0,1,45,17.49a4.33,4.33,0,0,1,1.39-.62,5.66,5.66,0,0,0,1.51-.68c.2-.33-1.29-2.31-3.06-4.07A23.14,23.14,0,0,0,34,6.1l-1.81-.4V4c0-1.3.08-1.72.34-1.72s1.45.29,2.79.64A26.92,26.92,0,0,1,50.48,13.55,11.73,11.73,0,0,0,51.55,15c.05,0,.5-.18,1-.39s1-.33,1.06-.25A40.88,40.88,0,0,1,51,20.26,15,15,0,0,1,47.89,19Z"/></g><g id="shape2955-13"><path class="cls-6" d="M26.72,40.21V23.73H56.44v33H26.72Zm-3.87,14.2a30,30,0,0,1-9-3.82,37.36,37.36,0,0,1-7.33-7.32l-1-1.55-1.27.5a5.07,5.07,0,0,1-1.47.43c-.23-.09,2.51-5.94,2.79-5.94.11,0,1.53.63,3.14,1.4l2.94,1.39L10.3,40A3.28,3.28,0,0,0,9,40.7c0,.44,2.32,3.27,3.81,4.65a24.19,24.19,0,0,0,9.43,5.34l1.56.41c.36.11.43.43.43,1.86A4.15,4.15,0,0,1,24,54.67ZM0,16.61V.25H29.72V21h-5.5V33H0ZM47.89,19A22.75,22.75,0,0,1,45,17.48a6.72,6.72,0,0,1,1.61-.7l1.61-.58-.92-1.29A23.56,23.56,0,0,0,34.4,6.19l-2.18-.56V2.21l1.06.18a26.77,26.77,0,0,1,17,11L51.35,15a3.29,3.29,0,0,0,1.11-.33,2.56,2.56,0,0,1,1.17-.29A45.24,45.24,0,0,1,51,20.26,14.74,14.74,0,0,1,47.89,19Z"/></g><g id="shape2956-15"><path class="cls-7" d="M26.89,56.52c-.09-.09-.17-7.51-.17-16.48V23.73H56.44v33H41.75C33.67,56.69,27,56.61,26.89,56.52ZM22.1,54.2a27.69,27.69,0,0,1-9.55-4.58,31.55,31.55,0,0,1-7-7.86,6.35,6.35,0,0,0-1.36.45,5.49,5.49,0,0,1-1.49.44A31.12,31.12,0,0,1,5.5,36.71c.09,0,1.51.63,3.14,1.4l3,1.4L10.3,40c-.72.27-1.31.58-1.31.7,0,.42,2.23,3.18,3.65,4.52a22.31,22.31,0,0,0,10.52,5.72l1.06.27V53A4.28,4.28,0,0,1,24,54.68C23.93,54.67,23.06,54.45,22.1,54.2ZM0,16.61V.25H29.72V21h-5.5V33H0ZM47.64,18.9A20.12,20.12,0,0,1,45,17.49a6.13,6.13,0,0,1,1.61-.71l1.62-.58-.68-.93a22.81,22.81,0,0,0-7.7-6.91,24.27,24.27,0,0,0-6.65-2.5l-.93-.17V2.21l1.06.17c.58.1,2,.46,3.06.8A26.57,26.57,0,0,1,50.26,13.36c.56.83,1.05,1.55,1.1,1.6a2.89,2.89,0,0,0,1.13-.31,3.23,3.23,0,0,1,1.14-.31,21.66,21.66,0,0,1-1.23,3c-.86,1.88-1.46,2.89-1.7,2.87A21.8,21.8,0,0,1,47.64,18.9Z"/></g><g id="shape2957-17"><path class="cls-8" d="M26.84,56.38c-.07-.18-.09-7.56-.06-16.42l.07-16.11,14.79-.06,14.8-.07v33H41.7C30.13,56.69,26.93,56.62,26.84,56.38ZM22.1,54.19a27.41,27.41,0,0,1-9.76-4.76A31.07,31.07,0,0,1,5.6,41.76a7.59,7.59,0,0,0-1.46.46,6.92,6.92,0,0,1-1.5.45,42.36,42.36,0,0,1,2.86-6c.09,0,1.51.64,3.14,1.41l3,1.41L10.18,40l-1.44.49,1,1.48a23.56,23.56,0,0,0,12.44,8.73l2,.58V53A4,4,0,0,1,24,54.67C23.93,54.66,23.06,54.44,22.1,54.19ZM.17,32.8C.07,32.71,0,25.35,0,16.44V.25H29.72V21h-5.5V33H12.28C5.71,33,.26,32.89.17,32.8Zm47.6-13.89A20.52,20.52,0,0,1,45,17.46,2.47,2.47,0,0,1,46,17c2.41-.72,2.39-.65.59-2.9A24,24,0,0,0,33.21,5.83l-.87-.22-.07-1.68a6.46,6.46,0,0,1,0-1.68,37,37,0,0,1,4.92,1.21A27.29,27.29,0,0,1,50.57,13.8a4,4,0,0,0,1,1.19,6.11,6.11,0,0,0,1.1-.38,2.17,2.17,0,0,1,1-.27,29,29,0,0,1-2.81,5.87A30.77,30.77,0,0,1,47.77,18.91Z"/></g><g id="shape2958-19"><path class="cls-9" d="M26.84,56.38c-.07-.18-.09-7.56-.06-16.42l.07-16.11,14.79-.06,14.8-.07v33H41.7C30.13,56.69,26.93,56.62,26.84,56.38ZM51.32,35l-1.13-1.12-6,6C40.81,43.23,38,46,37.84,46a12,12,0,0,1-2-1.75l-1.76-1.75L33,43.58l-1.1,1.13,3,3,3,3,7.31-7.3,7.3-7.31ZM22.1,54.19a27.41,27.41,0,0,1-9.76-4.76A31.07,31.07,0,0,1,5.6,41.76a7.59,7.59,0,0,0-1.46.46,6.92,6.92,0,0,1-1.5.45,42.36,42.36,0,0,1,2.86-6c.09,0,1.51.64,3.14,1.41l3,1.41L10.18,40l-1.44.49,1,1.48a23.56,23.56,0,0,0,12.44,8.73l2,.58V53A4,4,0,0,1,24,54.67C23.93,54.66,23.06,54.44,22.1,54.19ZM.17,32.8C.07,32.71,0,25.35,0,16.44V.25H29.72V21h-5.5V33H12.28C5.71,33,.26,32.89.17,32.8ZM21.68,18.17c-.07-8.07-.11-8.62-.6-9.69a6.94,6.94,0,0,0-8.4-4A7.82,7.82,0,0,0,8.1,9.06c-.16.68-.15.68,1.11.68s1.3-.07,1.65-.73A4.28,4.28,0,0,1,17.4,7.82,4.41,4.41,0,0,1,19,11.61V13H7.74V26.72h14Zm-8.33,2.7a1.7,1.7,0,0,1-.1-2.48,1.82,1.82,0,0,1,3.11.42A1.84,1.84,0,0,1,13.35,20.87Zm34.42-2A20.52,20.52,0,0,1,45,17.46,2.47,2.47,0,0,1,46,17c2.41-.72,2.39-.65.59-2.9A24,24,0,0,0,33.21,5.83l-.87-.22-.07-1.68a6.46,6.46,0,0,1,0-1.68,37,37,0,0,1,4.92,1.21A27.29,27.29,0,0,1,50.57,13.8a4,4,0,0,0,1,1.19,6.11,6.11,0,0,0,1.1-.38,2.17,2.17,0,0,1,1-.27,29,29,0,0,1-2.81,5.87A30.77,30.77,0,0,1,47.77,18.91Z"/></g><g id="shape2959-21"><path class="cls-10" d="M26.78,40.14l.07-16.29,14.79-.06,14.8-.07V56.44H26.72ZM51.32,35l-1.13-1.13-6,6.06C40.81,43.23,38,46,37.84,46a12,12,0,0,1-2-1.75l-1.76-1.75L33,43.58l-1.1,1.13,3,3,3,3,7.31-7.31,7.3-7.3ZM21.82,54.08A27.23,27.23,0,0,1,14,50.57a32.58,32.58,0,0,1-7.34-7.24c-.51-.83-1-1.53-1-1.56a7.36,7.36,0,0,0-1.46.42c-.78.27-1.41.4-1.41.29s2.46-5.54,2.64-5.74a37.51,37.51,0,0,1,5.85,2.75,3.15,3.15,0,0,1-1.25.59l-1.25.42,1,1.5a27.42,27.42,0,0,0,6.71,6.23,25.45,25.45,0,0,0,6.41,2.7l1.31.31V53a10.94,10.94,0,0,1-.06,1.71ZM.17,32.8C.07,32.71,0,25.35,0,16.44V.25H29.72V21h-5.5V33H12.28C5.71,33,.26,32.89.17,32.8ZM21.68,18.17c-.07-8.07-.11-8.62-.6-9.69a6.94,6.94,0,0,0-8.4-4A7.82,7.82,0,0,0,8.1,9.06c-.16.68-.15.68,1.11.68s1.3-.07,1.65-.73A4.28,4.28,0,0,1,17.4,7.82,4.41,4.41,0,0,1,19,11.61V13H7.74V26.72h14Zm-8.33,2.7a1.7,1.7,0,0,1-.1-2.48,1.82,1.82,0,0,1,3.11.42A1.84,1.84,0,0,1,13.35,20.87Zm34.36-2L44.84,17.5l.88-.36a12.21,12.21,0,0,1,1.56-.54,1.83,1.83,0,0,0,.79-.35c.22-.36-3.17-4.26-5-5.69a25.6,25.6,0,0,0-8.57-4.4l-2.21-.59-.07-1.66a6.31,6.31,0,0,1,0-1.66,37,37,0,0,1,4.92,1.21,27.75,27.75,0,0,1,13,9.81L51.35,15a3.71,3.71,0,0,0,1.21-.3,3.82,3.82,0,0,1,1.13-.29,48.48,48.48,0,0,1-2.92,5.86C50.66,20.21,49.28,19.6,47.71,18.85Z"/></g><g id="shape2960-23"><path class="cls-11" d="M26.78,40.14l.07-16.29,14.79-.06,14.8-.07V56.44H26.72ZM51.26,34.9l-1.18-1.19L44,39.83,37.83,46,36,44.14l-1.81-1.8L33,43.52,31.85,44.7l3,3,3,3,7.3-7.3,7.31-7.3ZM21.82,54.08A27.23,27.23,0,0,1,14,50.57a32.58,32.58,0,0,1-7.34-7.24c-.51-.83-1-1.53-1-1.56a7.36,7.36,0,0,0-1.46.42c-.78.27-1.41.4-1.41.29s2.46-5.54,2.64-5.74a37.51,37.51,0,0,1,5.85,2.75,3.15,3.15,0,0,1-1.25.59l-1.25.42,1,1.5a27.42,27.42,0,0,0,6.71,6.23,25.45,25.45,0,0,0,6.41,2.7l1.31.31V53a10.94,10.94,0,0,1-.06,1.71ZM.17,32.8C.07,32.71,0,25.35,0,16.44V.25H29.72V21h-5.5V33H12.28C5.71,33,.26,32.89.17,32.8ZM21.68,18.17c-.09-9.81-.07-9.7-1.86-11.69a6.61,6.61,0,0,0-5-2.23A6.55,6.55,0,0,0,8.72,7.6c-1.08,1.89-1,2.14.61,2.14,1.27,0,1.37,0,1.67-.77A3.71,3.71,0,0,1,12.22,7.6a4,4,0,0,1,5.27.31A4.6,4.6,0,0,1,19,11.8V13H7.74V27h14Zm-7.89,3.14a2.44,2.44,0,0,1-.91-2.21,1.83,1.83,0,0,1,3.6.46A1.92,1.92,0,0,1,13.79,21.31Zm33.92-2.46L44.84,17.5l.88-.36a12.21,12.21,0,0,1,1.56-.54,1.83,1.83,0,0,0,.79-.35c.22-.36-3.17-4.26-5-5.69a25.6,25.6,0,0,0-8.57-4.4l-2.21-.59-.07-1.66a6.31,6.31,0,0,1,0-1.66,37,37,0,0,1,4.92,1.21,27.75,27.75,0,0,1,13,9.81L51.35,15a3.71,3.71,0,0,0,1.21-.3,3.82,3.82,0,0,1,1.13-.29,48.48,48.48,0,0,1-2.92,5.86C50.66,20.21,49.28,19.6,47.71,18.85Z"/></g><g id="shape2961-25"><path class="cls-12" d="M26.78,40.14l.07-16.29,14.79-.06,14.8-.07V56.44H26.72ZM51.26,34.9l-1.18-1.19L44,39.83,37.83,46,36,44.14l-1.81-1.8L33,43.52,31.85,44.7l3,3,3,3,7.3-7.3,7.31-7.3ZM21.82,54.08A27.23,27.23,0,0,1,14,50.57a32.58,32.58,0,0,1-7.34-7.24c-.51-.83-1-1.53-1-1.56a7.36,7.36,0,0,0-1.46.42c-.78.27-1.41.4-1.41.29s2.46-5.54,2.64-5.74a37.51,37.51,0,0,1,5.85,2.75,3.15,3.15,0,0,1-1.25.59l-1.25.42,1,1.5a27.42,27.42,0,0,0,6.71,6.23,25.45,25.45,0,0,0,6.41,2.7l1.31.31V53a10.94,10.94,0,0,1-.06,1.71ZM.17,32.8C.07,32.71,0,25.35,0,16.44V.25H29.72V21h-5.5V33H12.28C5.71,33,.26,32.89.17,32.8ZM21.68,18.17c-.09-9.81-.07-9.7-1.86-11.69a6.61,6.61,0,0,0-5-2.23A6.55,6.55,0,0,0,8.72,7.6c-1.08,1.89-1,2.14.61,2.14,1.27,0,1.37,0,1.67-.77A3.71,3.71,0,0,1,12.22,7.6a4,4,0,0,1,5.27.31A4.6,4.6,0,0,1,19,11.8V13H7.74V27h14Zm-7.89,3.14a2.44,2.44,0,0,1-.91-2.21,1.83,1.83,0,0,1,3.6.46A1.92,1.92,0,0,1,13.79,21.31Zm33.92-2.46L44.84,17.5l.88-.36a12.21,12.21,0,0,1,1.56-.54,1.83,1.83,0,0,0,.79-.35c.22-.36-3.17-4.26-5-5.69a25.6,25.6,0,0,0-8.57-4.4l-2.21-.59-.07-1.66a6.31,6.31,0,0,1,0-1.66,37,37,0,0,1,4.92,1.21,27.75,27.75,0,0,1,13,9.81L51.35,15a3.71,3.71,0,0,0,1.21-.3,3.82,3.82,0,0,1,1.13-.29,48.48,48.48,0,0,1-2.92,5.86C50.66,20.21,49.28,19.6,47.71,18.85Z"/></g><g id="shape2962-27"><path class="cls-13" d="M26.72,40.21V24H56.44V56.44H26.72ZM51.26,34.9l-1.18-1.19L44,39.83,37.83,46,36,44.14l-1.81-1.8L33,43.52,31.85,44.7l3,3,3,3,7.3-7.3,7.31-7.3ZM22.35,54.2A26.36,26.36,0,0,1,6.73,43.41L5.6,41.74a6.12,6.12,0,0,0-1.46.44c-.77.28-1.39.42-1.39.31S5.2,37,5.38,36.75a42,42,0,0,1,5.85,2.75,3.28,3.28,0,0,1-1.24.58l-1.25.42.8,1.16a28.82,28.82,0,0,0,5.61,5.7,25.66,25.66,0,0,0,7.39,3.47l1.68.43V53a10.75,10.75,0,0,1-.06,1.7ZM.25,16.61V.25H29.72V21h-5.5V33H.25Zm21.43,1.56c-.09-9.81-.07-9.7-1.86-11.69a6.61,6.61,0,0,0-5-2.23A6.56,6.56,0,0,0,8.72,7.6c-1.08,1.89-1,2.14.61,2.14,1.27,0,1.37,0,1.67-.77A3.71,3.71,0,0,1,12.22,7.6a4,4,0,0,1,5.27.31A4.6,4.6,0,0,1,19,11.8V13H7.74V27h14Zm-7.89,3.14a2.44,2.44,0,0,1-.91-2.21,1.83,1.83,0,0,1,3.6.46A1.92,1.92,0,0,1,13.79,21.31Zm33.93-2.45-2.84-1.34.94-.39c.52-.22,1-.4,1-.4a6.12,6.12,0,0,0,.73-.25l.66-.25-.56-.81A23.85,23.85,0,0,0,34.17,6l-1.83-.45-.07-1.67c0-.92,0-1.67.16-1.67s1.34.29,2.69.63a27,27,0,0,1,15,10.25L51.35,15a3.71,3.71,0,0,0,1.21-.3,3.82,3.82,0,0,1,1.13-.29,48.48,48.48,0,0,1-2.92,5.86C50.66,20.21,49.29,19.6,47.72,18.86Z"/></g><g id="shape2963-29"><path class="cls-14" d="M26.72,40.21V24H56.44V56.44H26.72ZM51.26,34.9l-1.18-1.19L44,39.83,37.83,46,36,44.14l-1.81-1.8L33,43.52,31.85,44.7l3,3,3,3,7.3-7.3,7.31-7.3ZM22.35,54.2A26.36,26.36,0,0,1,6.73,43.41L5.6,41.74a6.12,6.12,0,0,0-1.46.44c-.77.28-1.39.42-1.39.31S5.2,37,5.38,36.75a42,42,0,0,1,5.85,2.75,3.28,3.28,0,0,1-1.24.58l-1.25.42.8,1.16a28.82,28.82,0,0,0,5.61,5.7,25.66,25.66,0,0,0,7.39,3.47l1.68.43V53a10.75,10.75,0,0,1-.06,1.7ZM.25,16.61V.25H29.72V21h-5.5V33H.25Zm21.43,1.56c-.08-8.54-.09-8.84-.64-9.94a7,7,0,0,0-6.41-4A6.53,6.53,0,0,0,8.72,7.6c-1.08,1.89-1,2.14.63,2.14,1.12,0,1.38-.08,1.51-.48a4.9,4.9,0,0,1,3.19-2.39,4.6,4.6,0,0,1,3.52,1.07A5.54,5.54,0,0,1,19,11.55v1.19H7.74V27h14Zm-8,3a1.89,1.89,0,0,1-.14-3.06c1.89-1.32,4.06,1.44,2.25,2.86A1.66,1.66,0,0,1,13.71,21.16Zm34-2.3-2.84-1.34.94-.39c.52-.22,1-.4,1-.4a6.12,6.12,0,0,0,.73-.25l.66-.25-.56-.81A23.85,23.85,0,0,0,34.17,6l-1.83-.45-.07-1.67c0-.92,0-1.67.16-1.67s1.34.29,2.69.63a27,27,0,0,1,15,10.25L51.35,15a3.71,3.71,0,0,0,1.21-.3,3.82,3.82,0,0,1,1.13-.29,48.48,48.48,0,0,1-2.92,5.86C50.66,20.21,49.29,19.6,47.72,18.86Z"/></g><g id="shape2964-31"><path class="cls-15" d="M26.72,40.21V24H56.44V56.44H26.72ZM51.26,34.9l-1.18-1.19L44,39.83,37.83,46,36,44.14l-1.81-1.8L33,43.52,31.85,44.7l3,3,3,3,7.3-7.3,7.31-7.3ZM22.35,54.2A26.36,26.36,0,0,1,6.73,43.41L5.6,41.74a6.12,6.12,0,0,0-1.46.44c-.77.28-1.39.42-1.39.31S5.2,37,5.38,36.75a42,42,0,0,1,5.85,2.75,3.28,3.28,0,0,1-1.24.58l-1.25.42.8,1.16a28.82,28.82,0,0,0,5.61,5.7,25.66,25.66,0,0,0,7.39,3.47l1.68.43V53a10.75,10.75,0,0,1-.06,1.7ZM.25,16.61V.25H29.72V21h-5.5V33H.25Zm21.43,1.56c-.07-8.35-.11-8.86-.61-9.94A7.06,7.06,0,0,0,9.93,6,8,8,0,0,0,7.87,9.43c-.15.53-.1.56,1.22.56s1.42-.06,1.76-.72A4.48,4.48,0,0,1,15.7,7,4.48,4.48,0,0,1,19,11.55v1.19H7.74V27h14Zm-8,2.75a1.68,1.68,0,0,1-.11-2.68,1.59,1.59,0,0,1,2.29,0,1.53,1.53,0,0,1,.66,1.36A1.51,1.51,0,0,1,15.82,21a1.41,1.41,0,0,1-2.18,0Zm34.08-2.06-2.84-1.34.94-.39c.52-.22,1-.4,1-.4a6.12,6.12,0,0,0,.73-.25l.66-.25-.56-.81A23.85,23.85,0,0,0,34.17,6l-1.83-.45-.07-1.67c0-.92,0-1.67.16-1.67s1.34.29,2.69.63a27,27,0,0,1,15,10.25L51.35,15a3.71,3.71,0,0,0,1.21-.3,3.82,3.82,0,0,1,1.13-.29,48.48,48.48,0,0,1-2.92,5.86C50.66,20.21,49.29,19.6,47.72,18.86Z"/></g><g id="shape2965-33"><path class="cls-16" d="M26.72,40.21V24H56.44V56.44H26.72ZM51.26,34.9l-1.18-1.19L44,39.83,37.83,46,36,44.14l-1.81-1.8L33,43.52,31.85,44.7l3,3,3,3,7.3-7.3,7.31-7.3Zm-29,19.28A26.58,26.58,0,0,1,6.72,43.39L5.6,41.74a6.12,6.12,0,0,0-1.46.44c-.77.28-1.39.44-1.39.35s2.48-5.6,2.62-5.77a49.18,49.18,0,0,1,5.86,2.71,3.67,3.67,0,0,1-1.24.59l-1.24.44.79,1.17a29,29,0,0,0,5.61,5.69,26.24,26.24,0,0,0,7.44,3.5l1.63.41V53a10.67,10.67,0,0,1-.06,1.69ZM.25,16.61V.25H29.72V21h-5.5V33H.25Zm21.43,1.56c-.07-8.35-.11-8.86-.61-9.94A7.06,7.06,0,0,0,9.93,6,8,8,0,0,0,7.87,9.43c-.15.53-.1.56,1.22.56s1.42-.06,1.76-.72A4.48,4.48,0,0,1,15.7,7,4.48,4.48,0,0,1,19,11.55v1.19H7.74V27h14Zm-8,2.75a1.68,1.68,0,0,1-.11-2.68,1.59,1.59,0,0,1,2.29,0,1.53,1.53,0,0,1,.66,1.36A1.51,1.51,0,0,1,15.82,21a1.41,1.41,0,0,1-2.18,0Zm34.25-2a18.3,18.3,0,0,1-2.69-1.42c0-.09.42-.31.94-.49l1.51-.55.57-.21-.8-1.19a27.7,27.7,0,0,0-6.17-5.92A23,23,0,0,0,34.15,6l-1.81-.44L32.27,3.9c-.07-1.53,0-1.68.37-1.56s.84.2,1.32.28a33.66,33.66,0,0,1,6.1,2.05A28.68,28.68,0,0,1,50.2,13.3,6.2,6.2,0,0,0,51.6,15a4.94,4.94,0,0,0,1.19-.37c.5-.21.9-.34.9-.28a47.37,47.37,0,0,1-2.92,5.88C50.66,20.19,49.36,19.61,47.89,18.91Z"/></g><g id="shape2966-35"><path class="cls-17" d="M26.72,40.21V24H56.44V56.44H26.72ZM51.26,34.9l-1.18-1.19L44,39.83,37.83,46,36,44.14l-1.81-1.8L33,43.52,31.85,44.7l3,3,3,3,7.3-7.3,7.31-7.3Zm-29,19.28A26.58,26.58,0,0,1,6.72,43.39L5.6,41.74a6.12,6.12,0,0,0-1.46.44c-.77.28-1.39.44-1.39.35s2.48-5.6,2.62-5.77a49.18,49.18,0,0,1,5.86,2.71,3.67,3.67,0,0,1-1.24.59l-1.24.44.79,1.17a29,29,0,0,0,5.61,5.69,26.24,26.24,0,0,0,7.44,3.5l1.63.41V53a10.67,10.67,0,0,1-.06,1.69ZM.25,16.61V.25H29.72V21h-5.5V33H.25Zm21.43,1.56c-.07-8.35-.11-8.86-.61-9.94A7.06,7.06,0,0,0,9.93,6,8,8,0,0,0,7.87,9.43c-.15.53-.1.56,1.22.56s1.42-.06,1.76-.72A4.48,4.48,0,0,1,15.7,7,4.48,4.48,0,0,1,19,11.55v1.19H7.74V27h14Zm-8,2.75a1.68,1.68,0,0,1-.11-2.68,1.59,1.59,0,0,1,2.29,0,1.53,1.53,0,0,1,.66,1.36A1.51,1.51,0,0,1,15.82,21a1.41,1.41,0,0,1-2.18,0Zm34.25-2a18.3,18.3,0,0,1-2.69-1.42c0-.09.42-.31.94-.49l1.51-.55.57-.21-.8-1.19a27.7,27.7,0,0,0-6.17-5.92A23,23,0,0,0,34.15,6l-1.81-.44L32.27,3.9c-.07-1.53,0-1.68.37-1.56s.84.2,1.32.28a33.66,33.66,0,0,1,6.1,2.05A28.68,28.68,0,0,1,50.2,13.3,6.2,6.2,0,0,0,51.6,15a4.94,4.94,0,0,0,1.19-.37c.5-.21.9-.34.9-.28a47.37,47.37,0,0,1-2.92,5.88C50.66,20.19,49.36,19.61,47.89,18.91Z"/></g><g id="shape2967-37"><path class="cls-18" d="M26.72,40.21V24H56.44V56.44H26.72ZM51.26,34.9l-1.18-1.19L44,39.83,37.83,46l-1.74-1.75a11.26,11.26,0,0,0-2-1.76,5.26,5.26,0,0,0-1.32,1.06l-1.07,1.05,3.06,3.07,3.06,3.07,7.3-7.3,7.31-7.3Zm-29,19.28A26.58,26.58,0,0,1,6.72,43.39L5.6,41.74a6.12,6.12,0,0,0-1.46.44c-.77.28-1.39.44-1.39.35s2.48-5.6,2.62-5.77a49.18,49.18,0,0,1,5.86,2.71,3.67,3.67,0,0,1-1.24.59l-1.24.44.79,1.17a29,29,0,0,0,5.61,5.69,26.24,26.24,0,0,0,7.44,3.5l1.63.41V53a10.67,10.67,0,0,1-.06,1.69ZM.25,16.61V.25H29.72V21h-5.5V33H.25Zm21.43,1.56c-.07-8.35-.11-8.86-.61-9.94a7.06,7.06,0,0,0-11-2.37A7.8,7.8,0,0,0,7.89,9.31C7.73,10,7.74,10,9.1,10s1.41-.06,1.75-.72A4.39,4.39,0,0,1,17.2,7.69,5.33,5.33,0,0,1,19,11.53v1.21H7.74V27h14Zm-8,2.75a1.68,1.68,0,0,1-.11-2.68,1.55,1.55,0,0,1,2.34.11,1.66,1.66,0,0,1,0,2.61A1.41,1.41,0,0,1,13.64,20.92Zm34.25-2a18.3,18.3,0,0,1-2.69-1.42c0-.09.42-.31.94-.49l1.51-.55.57-.21-.8-1.19a27.7,27.7,0,0,0-6.17-5.92A23,23,0,0,0,34.15,6l-1.81-.44L32.27,3.9c-.07-1.53,0-1.68.37-1.56s.84.2,1.32.28a33.66,33.66,0,0,1,6.1,2.05A28.68,28.68,0,0,1,50.2,13.3,6.2,6.2,0,0,0,51.6,15a4.94,4.94,0,0,0,1.19-.37c.5-.21.9-.34.9-.28a47.37,47.37,0,0,1-2.92,5.88C50.66,20.19,49.36,19.61,47.89,18.91Z"/></g><g id="shape2968-39"><path class="cls-19" d="M26.72,40.21V24H56.44V56.44H26.72ZM51.26,34.9l-1.18-1.19L44,39.83,37.83,46l-1.74-1.75a11.26,11.26,0,0,0-2-1.76,5.26,5.26,0,0,0-1.32,1.06l-1.07,1.05,3.06,3.07,3.06,3.07,7.3-7.3,7.31-7.3ZM23.1,54.39a31,31,0,0,1-9.49-4.07,33.09,33.09,0,0,1-6.86-6.87c-.59-.89-1.11-1.66-1.15-1.71a6.12,6.12,0,0,0-1.46.44,4.21,4.21,0,0,1-1.39.38c0-.13,2.49-5.62,2.63-5.8a30.19,30.19,0,0,1,3,1.34l3,1.41-1.3.5-1.31.51.43.75a33.87,33.87,0,0,0,5.92,6.06,26.31,26.31,0,0,0,7.39,3.53l1.73.45V53a10.13,10.13,0,0,1-.06,1.66ZM.25,16.61V.25H29.72V21h-5.5V33H.25Zm21.43,1.56c-.07-8.35-.11-8.86-.61-9.94a7.06,7.06,0,0,0-11-2.37A7.8,7.8,0,0,0,7.89,9.31C7.73,10,7.74,10,9.1,10s1.41-.06,1.75-.72A4.39,4.39,0,0,1,17.2,7.69,5.33,5.33,0,0,1,19,11.53v1.21H7.74V27h14Zm-8,2.75a1.68,1.68,0,0,1-.11-2.68,1.55,1.55,0,0,1,2.34.11,1.66,1.66,0,0,1,0,2.61A1.41,1.41,0,0,1,13.64,20.92Zm34.25-2a15.21,15.21,0,0,1-2.69-1.45c0-.09.26-.24.58-.32a14.09,14.09,0,0,0,1.5-.53l.93-.39-.77-1.13A23.43,23.43,0,0,0,34.15,6l-1.81-.44-.07-1.65L32.19,2.3l2.09.45A26.74,26.74,0,0,1,45.84,8.49a29,29,0,0,1,5,5.74c.52.87.69.9,1.94.38l.91-.38-.35.81a31.41,31.41,0,0,1-2.59,5.17C50.66,20.19,49.36,19.61,47.89,18.91Z"/></g><g id="shape2969-41"><path class="cls-20" d="M26.72,40.21V24H56.44V56.44H26.72Zm18.42,3.18,7.31-7.31L51.26,34.9l-1.2-1.18L44,39.83,37.84,46,36,44.07,34.07,42.2l-1.23,1.25L31.6,44.71l3,3c1.64,1.65,3,3,3.12,3S41.13,47.41,45.14,43.39Zm-22,11a31,31,0,0,1-9.49-4.07,33.09,33.09,0,0,1-6.86-6.87c-.59-.89-1.11-1.66-1.15-1.71a6.12,6.12,0,0,0-1.46.44,4.21,4.21,0,0,1-1.39.38c0-.13,2.49-5.62,2.63-5.8a30.19,30.19,0,0,1,3,1.34l3,1.41-1.3.5-1.31.51.43.75a33.87,33.87,0,0,0,5.92,6.06,26.31,26.31,0,0,0,7.39,3.53l1.73.45V53a10.13,10.13,0,0,1-.06,1.66ZM.25,16.61V.25H29.72V21h-5.5V33H.25Zm21.48,1.88c0-7.93,0-8.57-.51-9.84a7.58,7.58,0,0,0-3.7-4,8.38,8.38,0,0,0-5.59-.08,7.74,7.74,0,0,0-4,4.72L7.73,10H9.22c1.32,0,1.5-.06,1.66-.56A4,4,0,0,1,14.78,7c2.34,0,3.83,1.55,4.11,4.25l.16,1.53H7.74V27h14ZM14.24,21.3a1.75,1.75,0,1,1,2.24-1.69A1.87,1.87,0,0,1,14.24,21.3Zm33.65-2.39a15.21,15.21,0,0,1-2.69-1.45c0-.09.26-.24.58-.32a14.09,14.09,0,0,0,1.5-.53l.93-.39-.77-1.13A23.43,23.43,0,0,0,34.15,6l-1.81-.44-.07-1.65L32.19,2.3l2.09.45A26.74,26.74,0,0,1,45.84,8.49a29,29,0,0,1,5,5.74c.52.87.69.9,1.94.38l.91-.38-.35.81a31.41,31.41,0,0,1-2.59,5.17C50.66,20.19,49.36,19.61,47.89,18.91Z"/></g><g id="shape2970-43"><path class="cls-21" d="M26.72,40.21V24H56.44V56.44H26.72Zm18.42,3.18,7.31-7.31L51.26,34.9l-1.2-1.18L44,39.83,37.84,46,36,44.07,34.07,42.2l-1.23,1.25L31.6,44.71l3,3c1.64,1.65,3,3,3.12,3S41.13,47.41,45.14,43.39ZM21,53.8a30.41,30.41,0,0,1-7.41-3.48,34.09,34.09,0,0,1-7-7,6.53,6.53,0,0,0-1.19-1.56A10.82,10.82,0,0,0,4,42.18a4,4,0,0,1-1.25.36c0-.11,2.5-5.62,2.63-5.78a30.19,30.19,0,0,1,3,1.34l3,1.41L10.11,40c-.77.28-1.21.57-1.16.78.27,1.12,4.32,5.38,6.58,6.92a27.45,27.45,0,0,0,7,3.21l1.73.45v1.56C24.22,54.74,24.22,54.75,21,53.8ZM.25,16.48V.25H29.72V21h-5.5V32.72H.25Zm21.48,2c0-7.93,0-8.57-.51-9.84a7.58,7.58,0,0,0-3.7-4,8.38,8.38,0,0,0-5.59-.08,7.74,7.74,0,0,0-4,4.72L7.73,10H9.22c1.32,0,1.5-.06,1.66-.56A4,4,0,0,1,14.78,7c2.34,0,3.83,1.55,4.11,4.25l.16,1.53H7.74V27h14ZM14.24,21.3a1.75,1.75,0,1,1,2.24-1.69A1.87,1.87,0,0,1,14.24,21.3Zm33.65-2.39a18.3,18.3,0,0,1-2.69-1.42,4.33,4.33,0,0,1,1.39-.62,5.94,5.94,0,0,0,1.49-.65c.18-.29-2.21-3.28-3.84-4.78A25,25,0,0,0,33.56,5.85a2.31,2.31,0,0,1-1.15-.45,5.3,5.3,0,0,1-.19-1.69V2.3l2.07.45A26.87,26.87,0,0,1,45.84,8.49a29,29,0,0,1,5,5.74c.52.87.69.9,1.94.38l.91-.38-.35.81a35.44,35.44,0,0,1-2.6,5.17c-.1,0-1.39-.6-2.86-1.3Z"/></g><g id="shape2971-45"><path class="cls-22" d="M26.72,40.21V24H56.44V56.44H26.72Zm18.42,3.18,7.31-7.31L51.26,34.9l-1.2-1.18L44,39.83,37.84,46,36,44.07,34.07,42.2l-1.23,1.25L31.6,44.71l3,3c1.64,1.65,3,3,3.12,3S41.13,47.41,45.14,43.39ZM21,53.8a30.41,30.41,0,0,1-7.41-3.48,34.09,34.09,0,0,1-7-7,6.53,6.53,0,0,0-1.19-1.56A10.82,10.82,0,0,0,4,42.18a4,4,0,0,1-1.25.36c0-.07.61-1.41,1.35-3l1.36-2.85L8.16,38a30.23,30.23,0,0,1,2.9,1.46c.12.11-.31.34-.94.52a3.83,3.83,0,0,0-1.25.49c-.2.32,1.56,2.66,3.28,4.36a24.16,24.16,0,0,0,10.41,6.06l1.66.44v1.57C24.22,54.74,24.22,54.75,21,53.8ZM.25,16.48V.25H29.72V21h-5.5V32.72H.25Zm21.48,2c0-7.93,0-8.57-.51-9.84a7.58,7.58,0,0,0-3.7-4,8.38,8.38,0,0,0-5.59-.08,7.74,7.74,0,0,0-4,4.72L7.73,10H9.22c1.32,0,1.5-.06,1.66-.56A4,4,0,0,1,14.78,7c2.34,0,3.83,1.55,4.11,4.25l.16,1.53H7.74V27h14ZM14.24,21.3a1.75,1.75,0,1,1,2.24-1.69A1.87,1.87,0,0,1,14.24,21.3Zm33.65-2.39a18.3,18.3,0,0,1-2.69-1.42,4.33,4.33,0,0,1,1.39-.62,5.94,5.94,0,0,0,1.49-.65c.19-.3-2.27-3.33-3.95-4.87a27.26,27.26,0,0,0-3.64-2.7c-2-1.19-6.36-2.9-7.46-2.9-.53,0-.56-.11-.56-1.63,0-1.9-.07-1.87,2.82-1.13A26.73,26.73,0,0,1,50.12,13.28,6.12,6.12,0,0,0,51.58,15a5,5,0,0,0,1.21-.38l.91-.38-.35.81a35.44,35.44,0,0,1-2.6,5.17C50.65,20.19,49.36,19.61,47.89,18.91Z"/></g><g id="shape2972-47"><path class="cls-23" d="M26.72,40.21V24H56.44V56.44H26.72Zm18.42,3.18,7.31-7.31L51.26,34.9l-1.2-1.18L44,39.83,37.84,46,36,44.07,34.07,42.2l-1.23,1.25L31.6,44.71l3,3c1.64,1.65,3,3,3.12,3S41.13,47.41,45.14,43.39ZM21,53.8a30.41,30.41,0,0,1-7.41-3.48,34.09,34.09,0,0,1-7-7,6.53,6.53,0,0,0-1.19-1.56A10.82,10.82,0,0,0,4,42.18a4,4,0,0,1-1.25.36c0-.07.61-1.41,1.35-3l1.36-2.85L8.16,38a30.23,30.23,0,0,1,2.9,1.46c.12.11-.31.34-.94.52a3.83,3.83,0,0,0-1.25.49c-.2.32,1.56,2.66,3.28,4.36a24.16,24.16,0,0,0,10.41,6.06l1.66.44v1.57C24.22,54.74,24.22,54.75,21,53.8ZM.25,16.48V.25H29.72V21h-5.5V32.72H.25Zm21.48,1.79V9.57L21,8a6.9,6.9,0,0,0-5.68-4,7.17,7.17,0,0,0-6.95,4C7.49,9.92,7.52,10,9.18,10c1.4,0,1.45,0,1.93-.93a4.06,4.06,0,0,1,5.66-1.51,4.15,4.15,0,0,1,2.12,3.66l.16,1.53H7.49v7c0,3.82.08,7,.17,7.12S11,27,14.78,27h7Zm-7.49,3a1.75,1.75,0,1,1,2-.81A2.2,2.2,0,0,1,14.24,21.28Zm33.65-2.37a18.3,18.3,0,0,1-2.69-1.42,4.33,4.33,0,0,1,1.39-.62,5.94,5.94,0,0,0,1.49-.65c.19-.3-2.27-3.33-3.95-4.87a27.26,27.26,0,0,0-3.64-2.7c-2-1.19-6.36-2.9-7.46-2.9-.53,0-.56-.11-.56-1.63,0-1.9-.07-1.87,2.82-1.13A26.73,26.73,0,0,1,50.12,13.28,6.12,6.12,0,0,0,51.58,15a5,5,0,0,0,1.21-.38l.91-.38-.35.81a35.44,35.44,0,0,1-2.6,5.17C50.65,20.19,49.36,19.61,47.89,18.91Z"/></g><g id="shape2973-49"><path class="cls-24" d="M27,40.21V24H56.44V56.44H27Zm18.17,3.18,7.31-7.31L51.26,34.9l-1.2-1.18L44,39.83,37.84,46,36,44.07,34.07,42.2l-1.23,1.25L31.6,44.71l3,3c1.64,1.65,3,3,3.12,3S41.13,47.41,45.14,43.39ZM21,53.8a30.41,30.41,0,0,1-7.41-3.48,34.09,34.09,0,0,1-7-7,6.53,6.53,0,0,0-1.19-1.56A10.82,10.82,0,0,0,4,42.18a4,4,0,0,1-1.25.36c0-.07.61-1.41,1.35-3l1.36-2.85L8.16,38a30.23,30.23,0,0,1,2.9,1.46c.12.11-.31.34-.94.52a3.83,3.83,0,0,0-1.25.49c-.2.32,1.56,2.66,3.28,4.36a24.16,24.16,0,0,0,10.41,6.06l1.66.44v1.57C24.22,54.74,24.22,54.75,21,53.8ZM.25,16.48V.25H29.72V21h-5.5V32.72H.25Zm21.48,1.79V9.57L21,8a6.9,6.9,0,0,0-5.68-4,7.17,7.17,0,0,0-6.95,4C7.49,9.92,7.52,10,9.18,10c1.4,0,1.45,0,1.93-.93a4.06,4.06,0,0,1,5.66-1.51,4.15,4.15,0,0,1,2.12,3.66l.16,1.53H7.49v7c0,3.82.08,7,.17,7.12S11,27,14.78,27h7Zm-7.49,3a1.75,1.75,0,1,1,2-.81A2.2,2.2,0,0,1,14.24,21.28Zm33.65-2.37a18.3,18.3,0,0,1-2.69-1.42,4.33,4.33,0,0,1,1.39-.62,5.94,5.94,0,0,0,1.49-.65c.19-.3-2.27-3.33-3.95-4.87a27.26,27.26,0,0,0-3.64-2.7c-2-1.19-6.36-2.9-7.46-2.9-.53,0-.56-.11-.56-1.63,0-1.9-.07-1.87,2.82-1.13A26.73,26.73,0,0,1,50.12,13.28,6.12,6.12,0,0,0,51.58,15a5,5,0,0,0,1.21-.38l.91-.38-.35.81a35.44,35.44,0,0,1-2.6,5.17C50.65,20.19,49.36,19.61,47.89,18.91Z"/></g><g id="shape2974-51"><path class="cls-25" d="M27,40.21V24H56.44V56.44H27Zm18.29,3.31c4-4,7.18-7.3,7.18-7.44a5,5,0,0,0-1.12-1.37L50.19,33.6l-6.06,6C40.8,43,38,45.7,37.84,45.7a11.74,11.74,0,0,1-2-1.75L34.07,42.2l-1.23,1.25L31.6,44.71l3,3a29.14,29.14,0,0,0,3.24,3C38,50.7,41.31,47.47,45.26,43.52ZM21,53.8a30.41,30.41,0,0,1-7.41-3.48,34.09,34.09,0,0,1-7-7,6.53,6.53,0,0,0-1.19-1.56A10.82,10.82,0,0,0,4,42.18a4,4,0,0,1-1.25.36c0-.07.61-1.41,1.35-3l1.36-2.85L8.16,38a30.23,30.23,0,0,1,2.9,1.46c.12.11-.31.34-.94.52a3.83,3.83,0,0,0-1.25.49c-.2.32,1.56,2.66,3.28,4.36a24.16,24.16,0,0,0,10.41,6.06l1.66.44v1.57C24.22,54.74,24.22,54.75,21,53.8ZM.25,16.48V.25H29.72V21h-5.5V32.72H.25Zm21.42,1.57L21.6,9.12,21,7.91a7.17,7.17,0,0,0-8.44-3.55A7.93,7.93,0,0,0,8.33,8.11C7.49,9.92,7.52,10,9.18,10c1.39,0,1.45,0,1.93-.91a3.56,3.56,0,0,1,3.23-2,3.28,3.28,0,0,1,2.47.53c1.3.76,1.9,1.85,2.1,3.8l.14,1.36H7.49V27H21.75Zm-7.43,3.23a1.75,1.75,0,1,1,2-.81A2.2,2.2,0,0,1,14.24,21.28Zm33.65-2.37a18.3,18.3,0,0,1-2.69-1.42,4.33,4.33,0,0,1,1.39-.62,5.94,5.94,0,0,0,1.49-.65c.19-.3-2.27-3.33-3.95-4.87a27.26,27.26,0,0,0-3.64-2.7c-2-1.19-6.36-2.9-7.46-2.9-.53,0-.56-.11-.56-1.63,0-1.9-.07-1.87,2.82-1.13A26.73,26.73,0,0,1,50.12,13.28,6.12,6.12,0,0,0,51.58,15a5,5,0,0,0,1.21-.38l.91-.38-.35.81a35.44,35.44,0,0,1-2.6,5.17C50.65,20.19,49.36,19.61,47.89,18.91Z"/></g><g id="shape2975-53"><path class="cls-26" d="M27,40.21V24H56.44V56.44H27Zm18.29,3.31c4-4,7.18-7.3,7.18-7.44a5,5,0,0,0-1.12-1.37L50.19,33.6l-6.06,6C40.8,43,38,45.7,37.84,45.7a11.74,11.74,0,0,1-2-1.75L34.07,42.2l-1.23,1.25L31.6,44.71l3,3a29.14,29.14,0,0,0,3.24,3C38,50.7,41.31,47.47,45.26,43.52ZM21.37,53.91A27.33,27.33,0,0,1,6.75,43.37,8,8,0,0,0,5.5,41.71a11.46,11.46,0,0,0-1.35.4,4.15,4.15,0,0,1-1.26.31,21.45,21.45,0,0,1,1.24-2.89l1.32-2.81L8.16,38c1.49.69,2.79,1.35,2.9,1.45s-.31.34-.94.52a3.83,3.83,0,0,0-1.25.49c-.14.23.91,1.78,2.34,3.47a23.82,23.82,0,0,0,12.08,7.16l.93.17v1.6C24.22,54.72,24.21,54.72,21.37,53.91ZM.25,16.48V.25H29.72V21h-5.5V32.72H.25Zm21.42,1.57L21.6,9.12,21,7.91a7.17,7.17,0,0,0-8.44-3.55A7.93,7.93,0,0,0,8.33,8.11C7.49,9.92,7.52,10,9.18,10c1.39,0,1.45,0,1.93-.91a3.56,3.56,0,0,1,3.23-2,3.28,3.28,0,0,1,2.47.53c1.3.76,1.9,1.85,2.1,3.8l.14,1.36H7.49V27H21.75Zm-7.43,3.23a1.75,1.75,0,1,1,2-.81A2.2,2.2,0,0,1,14.24,21.28Zm33.58-2.42-2.74-1.32.88-.39a12.49,12.49,0,0,1,1.57-.55c.37-.09.67-.26.67-.36,0-.45-2.27-3.23-3.77-4.62a22.61,22.61,0,0,0-9.78-5.47l-2.06-.6L32.52,4l-.08-1.56,1.18.18a26.79,26.79,0,0,1,9.71,4,31.28,31.28,0,0,1,6.79,6.65c1.25,1.83,1.4,1.9,2.91,1.31.4-.15.44-.09.3.36a34.75,34.75,0,0,1-2.59,5.26C50.65,20.2,49.33,19.59,47.82,18.86Z"/></g><g id="shape2976-55"><path class="cls-27" d="M27,40.21V24H56.44V56.44H27ZM52.44,36.1a8.15,8.15,0,0,0-2.36-2.39c-.14,0-3,2.73-6.31,6.06l-6.06,6L35.89,44,34.07,42.2l-1.23,1.25L31.6,44.71l3.12,3.12L37.83,51l7.31-7.31C49.16,39.63,52.44,36.23,52.44,36.1ZM21.37,53.91A27.33,27.33,0,0,1,6.75,43.37,8,8,0,0,0,5.5,41.71a11.46,11.46,0,0,0-1.35.4,4.15,4.15,0,0,1-1.26.31,21.45,21.45,0,0,1,1.24-2.89l1.32-2.81L8.16,38c1.49.69,2.79,1.35,2.9,1.45s-.31.34-.94.52a3.83,3.83,0,0,0-1.25.49c-.14.23.91,1.78,2.34,3.47a23.82,23.82,0,0,0,12.08,7.16l.93.17v1.6C24.22,54.72,24.21,54.72,21.37,53.91ZM.25,16.48V.25H29.72V21h-5.5V32.72H.25Zm21.42,1.57C21.6,9.18,21.6,9.11,21,7.94a7.25,7.25,0,0,0-3.27-3.23,8.13,8.13,0,0,0-6.13,0A7.88,7.88,0,0,0,7.84,9.38c-.15.6-.12.61,1.31.6s1.47,0,2.11-1.07a4,4,0,0,1,7.47,2.43v1.4H7.49V27H21.75ZM13.4,20.77A1.73,1.73,0,0,1,14.24,18c1-.15,1.5,0,1.87.76a1.6,1.6,0,0,1-1.48,2.49A1.78,1.78,0,0,1,13.4,20.77Zm34.42-1.91-2.74-1.32.88-.39a12.49,12.49,0,0,1,1.57-.55c.37-.09.67-.26.67-.36,0-.45-2.27-3.23-3.77-4.62a22.61,22.61,0,0,0-9.78-5.47l-2.06-.6L32.52,4l-.08-1.56,1.18.18a26.79,26.79,0,0,1,9.71,4,31.28,31.28,0,0,1,6.79,6.65c1.25,1.83,1.4,1.9,2.91,1.31.4-.15.44-.09.3.36a34.75,34.75,0,0,1-2.59,5.26C50.65,20.2,49.33,19.59,47.82,18.86Z"/></g><g id="shape2977-57"><path class="cls-28" d="M27,40.21V24H56.44V56.44H27ZM52.44,36.1a8.15,8.15,0,0,0-2.36-2.39c-.14,0-3,2.73-6.31,6.06l-6.06,6L35.89,44,34.07,42.2l-1.23,1.25L31.6,44.71l3.12,3.12L37.83,51l7.31-7.31C49.16,39.63,52.44,36.23,52.44,36.1Zm-31,17.82A28.91,28.91,0,0,1,9.35,46.63c-.64-.72-1.68-2-2.31-2.93S5.82,42,5.72,41.87s-.76,0-1.47.21a5.14,5.14,0,0,1-1.36.34,25,25,0,0,1,1.24-2.89l1.32-2.8L8.22,38A16.05,16.05,0,0,1,11,39.5c0,.09-.42.3-.94.47-1.34.43-1.38.52-.64,1.62,3.05,4.58,9,8.66,13.76,9.47l1,.18v1.6C24.22,54.7,24.32,54.67,21.48,53.92ZM.25,16.48V.25H29.72V20.73h-5.5v12H.25Zm21.42,1.57C21.6,9.18,21.6,9.11,21,7.94a7.25,7.25,0,0,0-3.27-3.23,8.13,8.13,0,0,0-6.13,0A7.88,7.88,0,0,0,7.84,9.38c-.15.6-.12.61,1.31.6s1.47,0,2.11-1.07a4,4,0,0,1,7.47,2.43v1.4H7.49V27H21.75ZM13.4,20.77A1.73,1.73,0,0,1,14.24,18c1-.15,1.5,0,1.87.76a1.6,1.6,0,0,1-1.48,2.49A1.78,1.78,0,0,1,13.4,20.77ZM48,18.91a10.91,10.91,0,0,1-2.67-1.48,6,6,0,0,1,1.47-.61,3.76,3.76,0,0,0,1.37-.6c0-.41-2.29-3.22-3.78-4.64a23.15,23.15,0,0,0-10-5.53l-1.87-.46L32.52,4l-.08-1.57,1.18.18a27,27,0,0,1,9.71,4,36,36,0,0,1,7.08,7l1,1.55.9-.38a2,2,0,0,1,1-.25,14.86,14.86,0,0,1-1.21,2.88L50.82,20.2Z"/></g><g id="shape2978-59"><path class="cls-29" d="M27,40.21V24H56.44V56.44H27ZM52.44,36.1a8.15,8.15,0,0,0-2.36-2.39c-.14,0-3,2.73-6.31,6.06l-6.06,6L35.89,44,34.07,42.2l-1.23,1.25L31.6,44.71l3.12,3.12L37.83,51l7.31-7.31C49.16,39.63,52.44,36.23,52.44,36.1Zm-30.34,18a26.85,26.85,0,0,1-15.52-11c-.5-.74-1.06-1.35-1.25-1.35a4.81,4.81,0,0,0-1.25.37,7.7,7.7,0,0,1-1,.37c-.24,0,0-.6,1.15-3.06l1.25-2.64L8.24,38A17,17,0,0,1,11,39.48a2.36,2.36,0,0,1-1,.44,3.11,3.11,0,0,0-1.14.54c-.22.37,1.28,2.41,3.24,4.38a23,23,0,0,0,6,4.41,25.27,25.27,0,0,0,5.59,1.94c.48,0,.52.15.52,1.63C24.22,54.65,24.27,54.62,22.1,54.09ZM.25,16.48V.25H29.72V20.73h-5.5v12H.25Zm21.42,1.57C21.6,9.18,21.6,9.11,21,7.94a7.25,7.25,0,0,0-3.27-3.23,8.13,8.13,0,0,0-6.13,0A7.88,7.88,0,0,0,7.84,9.38c-.15.6-.12.61,1.31.6s1.47,0,2.11-1.07a4,4,0,0,1,7.47,2.43v1.4H7.49V27H21.75ZM13.4,20.77A1.73,1.73,0,0,1,14.24,18c1-.15,1.5,0,1.87.76a1.6,1.6,0,0,1-1.48,2.49A1.78,1.78,0,0,1,13.4,20.77ZM48,18.9a10.68,10.68,0,0,1-2.62-1.44,9.77,9.77,0,0,1,1.49-.62c.72-.25,1.31-.55,1.31-.67,0-.43-2-2.86-3.65-4.46A23.11,23.11,0,0,0,34.46,6.05l-1.87-.46L32.52,4l-.08-1.57,1.18.18a25.9,25.9,0,0,1,12.77,6.5,29.18,29.18,0,0,1,4.39,5.17l.67.92,1-.35c.55-.19,1-.27,1-.17s-.6,1.37-1.31,2.84L50.82,20.2Z"/></g><g id="shape2979-61"><path class="cls-30" d="M27,40.21V24H56.44V56.44H27Zm24.41-5.43-1.3-1.32L44,39.58,37.83,45.7,36,43.89l-1.81-1.8-1.3,1.3L31.6,44.7l3.11,3.12L37.83,51l7.43-7.43,7.43-7.42ZM22.1,54.09a26.85,26.85,0,0,1-15.52-11c-.5-.74-1.06-1.35-1.25-1.35a4.81,4.81,0,0,0-1.25.37,7.7,7.7,0,0,1-1,.37c-.24,0,0-.6,1.15-3.06l1.25-2.64L8.24,38A17,17,0,0,1,11,39.48a2.36,2.36,0,0,1-1,.44,3.11,3.11,0,0,0-1.14.54c-.22.37,1.28,2.41,3.24,4.38a23,23,0,0,0,6,4.41,25.27,25.27,0,0,0,5.59,1.94c.48,0,.52.15.52,1.63C24.22,54.65,24.27,54.62,22.1,54.09ZM.25,16.48V.25H29.72V20.73h-5.5v12H.25Zm21.47,1.69c0-8.7,0-8.82-.58-10.05a7.17,7.17,0,0,0-13,.22C7.48,9.86,7.57,10,9.18,10c1.4,0,1.46,0,1.93-.89a4.67,4.67,0,0,1,1.56-1.53A3.19,3.19,0,0,1,15,7.05a4,4,0,0,1,3.72,4.23v1.46H7.49V27H21.73v-8.8Zm-8.23,2.56A1.61,1.61,0,0,1,14.67,18a1.38,1.38,0,0,1,1.52.91C17,20.47,14.76,22,13.49,20.73ZM48,18.9a10.68,10.68,0,0,1-2.62-1.44,9.77,9.77,0,0,1,1.49-.62c.72-.25,1.31-.55,1.31-.67,0-.43-2-2.86-3.65-4.46A23.11,23.11,0,0,0,34.46,6.05l-1.87-.46L32.52,4l-.08-1.57,1.18.18a25.9,25.9,0,0,1,12.77,6.5,29.18,29.18,0,0,1,4.39,5.17l.67.92,1-.35c.55-.19,1-.27,1-.17s-.6,1.37-1.31,2.84L50.82,20.2Z"/></g><g id="shape2980-63"><path class="cls-31" d="M27,40.21V24H56.44V56.44H27Zm24.41-5.43-1.3-1.32L44,39.58l-6.12,6.13L36.09,44a11.26,11.26,0,0,0-2-1.76,8.23,8.23,0,0,0-2.38,2.36,29.78,29.78,0,0,0,3.05,3.32L37.83,51l7.43-7.43,7.43-7.42ZM22.1,54.09a26.85,26.85,0,0,1-15.52-11c-.5-.74-1.06-1.35-1.25-1.35a4.81,4.81,0,0,0-1.25.37,7.7,7.7,0,0,1-1,.37c-.24,0,0-.6,1.15-3.06l1.25-2.64L8.24,38A17,17,0,0,1,11,39.48a2.36,2.36,0,0,1-1,.44,3.11,3.11,0,0,0-1.14.54c-.22.37,1.28,2.41,3.24,4.38a23,23,0,0,0,6,4.41,25.27,25.27,0,0,0,5.59,1.94c.48,0,.52.15.52,1.63C24.22,54.65,24.27,54.62,22.1,54.09ZM.25,16.48V.25H29.72V20.73h-5.5v12H.25Zm21.68,1.81c-.08-8.47-.1-8.7-.67-10A7.21,7.21,0,0,0,14,4.06,6.56,6.56,0,0,0,8.21,8.12C7.44,9.81,7.53,10,9.2,10c1.4,0,1.48,0,2.06-.91a3.52,3.52,0,0,1,3.47-2c2.44,0,3.79,1.37,4,4l.1,1.62H7.49V27H22Zm-8.44,2.44A1.64,1.64,0,0,1,14.73,18c1.11,0,1.68.76,1.51,2A1.64,1.64,0,0,1,13.49,20.73ZM48,18.9a10.68,10.68,0,0,1-2.62-1.44,9.77,9.77,0,0,1,1.49-.62c.72-.25,1.31-.55,1.31-.67,0-.43-2-2.86-3.65-4.46A23.11,23.11,0,0,0,34.46,6.05l-1.87-.46L32.52,4l-.08-1.57,1.18.18a25.9,25.9,0,0,1,12.77,6.5,29.18,29.18,0,0,1,4.39,5.17l.67.92,1-.35c.55-.19,1-.27,1-.17s-.6,1.37-1.31,2.84L50.82,20.2Z"/></g><g id="shape2981-65"><path class="cls-32" d="M27,40.21V24H56.44V56.44H27Zm24.41-5.43-1.3-1.32L44,39.58l-6.12,6.13L36.09,44a11.26,11.26,0,0,0-2-1.76,8.23,8.23,0,0,0-2.38,2.36,29.78,29.78,0,0,0,3.05,3.32L37.83,51l7.43-7.43,7.43-7.42Zm-29.55,19A27.16,27.16,0,0,1,14,50.32a32.58,32.58,0,0,1-7.34-7.24c-.51-.83-1-1.53-1-1.56a6.09,6.09,0,0,0-1.23.34,3.56,3.56,0,0,1-1.29.29,14.47,14.47,0,0,1,1.13-2.76l1.25-2.64L8.23,38a9.45,9.45,0,0,1,2.57,1.45A5.44,5.44,0,0,1,9.68,40c-.52.16-.94.41-.94.54,0,.5,1.64,2.62,3.36,4.35a23,23,0,0,0,6,4.41,25.27,25.27,0,0,0,5.59,1.94c.48,0,.52.15.52,1.63a9.74,9.74,0,0,1-.06,1.61ZM.25,16.48V.25H29.72V20.73h-5.5v12H.25Zm21.68,1.81-.08-8.67L21.2,8.23A7.05,7.05,0,0,0,9.93,5.72,8.21,8.21,0,0,0,7.74,9.54c0,.38.22.45,1.46.45,1.4,0,1.48,0,2.06-.91a3.52,3.52,0,0,1,3.47-2c2.38,0,3.77,1.36,3.95,3.86l.11,1.5-5.59.07-5.58.06-.07,7.18L7.48,27H22Zm-8.29,2.42a1.35,1.35,0,0,1-.14-2.18c.89-1,2.68-.53,2.76.66a1.56,1.56,0,0,1-.57,1.6C15,21.37,14.45,21.34,13.64,20.71ZM48,18.7l-2.62-1.27,1.43-.52c.79-.29,1.44-.65,1.44-.8,0-.59-3.36-4.42-5.12-5.84a26.13,26.13,0,0,0-8.7-4.41l-1.91-.45v-3l1.16.18a25.91,25.91,0,0,1,12.76,6.5,29.18,29.18,0,0,1,4.39,5.17l.67.92,1-.35a3.09,3.09,0,0,1,1-.26A41.34,41.34,0,0,1,50.77,20C50.66,20,49.39,19.39,48,18.7Z"/></g></g></g></svg>