<svg id="Layer_1" data-name="Layer 1" xmlns="http://www.w3.org/2000/svg" width="54.59" height="47.74" viewBox="0 0 54.59 47.74"><defs><style>.cls-1,.cls-4{fill:#804998;}.cls-2{fill:#59b4d9;}.cls-2,.cls-4,.cls-5{fill-rule:evenodd;}.cls-3,.cls-5{fill:#fff;}</style></defs><g id="group3385-1"><g id="group3386-2"><g id="shape3387-3"><ellipse class="cls-1" cx="23.35" cy="23.87" rx="23.35" ry="23.87"/></g><g id="shape3388-5"><path class="cls-2" d="M41.08,25.86a3.29,3.29,0,0,1-.63.21V37.18a2.77,2.77,0,0,1,1.06.65l4.85-4a2.65,2.65,0,0,1-.11-1,4.88,4.88,0,0,1,.21-1.19Zm-8,5.82A2.6,2.6,0,0,1,33.39,33a4.05,4.05,0,0,1-.21,1.08L38,38a8.93,8.93,0,0,1,.94-.65V26.07c-.21-.1-.31-.1-.42-.21Z"/></g><g id="shape3389-7"><path class="cls-2" d="M16.87,13.24,0,33.73l16.87,14,16.87-14ZM26,35.77a2.52,2.52,0,0,1-1.68-.64l-4.85,4.09a1.75,1.75,0,0,1,.1.76,2.75,2.75,0,0,1-2.74,2.8A2.69,2.69,0,0,1,14.13,40a1.48,1.48,0,0,1,.1-.65l-5.16-4.1a2.35,2.35,0,0,1-1.48.44,2.81,2.81,0,0,1,0-5.61,2.84,2.84,0,0,1,1.27.32l5.37-6A4.21,4.21,0,0,1,14,23.16a2.75,2.75,0,0,1,2.75-2.8,2.69,2.69,0,0,1,2.74,2.8,2.6,2.6,0,0,1-.32,1.29l5.27,6a3.26,3.26,0,0,1,1.37-.32A2.75,2.75,0,0,1,28.57,33,2.58,2.58,0,0,1,26,35.77Z"/></g><g id="shape3390-9"><ellipse class="cls-3" cx="23.33" cy="8.37" rx="6.12" ry="6.25"/></g><g id="shape3391-11"><ellipse class="cls-1" cx="23.35" cy="8.43" rx="4.3" ry="4.39"/></g><g id="shape3392-13"><ellipse class="cls-3" cx="23.51" cy="22.43" rx="9.19" ry="9.4"/></g><g id="shape3393-15"><ellipse class="cls-1" cx="23.46" cy="22.53" rx="7.33" ry="7.5"/></g><g id="shape3394-17"><path class="cls-4" d="M11.48,29.46a3.41,3.41,0,0,0,3.36,3.44H32.13a3.42,3.42,0,0,0,3.36-3.44V25.59a3.4,3.4,0,0,0-3.36-3.44H14.84a3.4,3.4,0,0,0-3.36,3.44Z"/></g><g id="shape3395-19"><path class="cls-5" d="M40,47.56,54.59,32.31,39.65,16.74,25.06,32Z"/></g><g id="shape3396-21"><path class="cls-2" d="M41.08,25.86a3.29,3.29,0,0,1-.63.21V37.18a2.77,2.77,0,0,1,1.06.65l4.85-4a2.65,2.65,0,0,1-.11-1,4.88,4.88,0,0,1,.21-1.19Zm-8,5.82A2.6,2.6,0,0,1,33.39,33a4.05,4.05,0,0,1-.21,1.08L38,38a8.93,8.93,0,0,1,.94-.65V26.07c-.21-.1-.31-.1-.42-.21Z"/></g><g id="shape3397-23"><path class="cls-2" d="M16.87,13.24,0,33.73l16.87,14,16.87-14ZM26,35.77a2.52,2.52,0,0,1-1.68-.64l-4.85,4.09a1.75,1.75,0,0,1,.1.76,2.75,2.75,0,0,1-2.74,2.8A2.69,2.69,0,0,1,14.13,40a1.48,1.48,0,0,1,.1-.65l-5.16-4.1a2.35,2.35,0,0,1-1.48.44,2.81,2.81,0,0,1,0-5.61,2.84,2.84,0,0,1,1.27.32l5.37-6A4.21,4.21,0,0,1,14,23.16a2.75,2.75,0,0,1,2.75-2.8,2.69,2.69,0,0,1,2.74,2.8,2.6,2.6,0,0,1-.32,1.29l5.27,6a3.26,3.26,0,0,1,1.37-.32A2.75,2.75,0,0,1,28.57,33,2.58,2.58,0,0,1,26,35.77Z"/></g></g></g></svg>