<svg id="Layer_1" data-name="Layer 1" xmlns="http://www.w3.org/2000/svg" width="43.42" height="56.7" viewBox="0 0 43.42 56.7"><defs><style>.cls-1,.cls-2{fill:#7a7a7a;}.cls-1,.cls-3{fill-rule:evenodd;}.cls-3{fill:#59b4d9;}</style></defs><g id="group3229-1"><g id="shape3230-2"><path class="cls-1" d="M41,26.36H9.91A2.67,2.67,0,0,0,7.38,29.2V41.36l4.3,1.25V30.79H39.12V42.5l4.3-1.25v-12A2.66,2.66,0,0,0,41,26.36Z"/></g><g id="shape3231-4"><rect class="cls-2" x="23.25" y="18.64" width="4.3" height="11.82"/></g><g id="shape3232-6"><path class="cls-3" d="M32.4,0H18.51a2.72,2.72,0,0,0-2.64,2.73V16a2.72,2.72,0,0,0,2.64,2.73H32.29A2.72,2.72,0,0,0,34.93,16V2.73A2.56,2.56,0,0,0,32.4,0Z"/></g><g id="shape3233-8"><path class="cls-3" d="M16.42,38H2.64A2.72,2.72,0,0,0,0,40.68V54A2.72,2.72,0,0,0,2.64,56.7H16.42A2.72,2.72,0,0,0,19.06,54V40.68A2.72,2.72,0,0,0,16.42,38Z"/></g><g id="shape3234-10"><path class="cls-3" d="M16.42,38H2.64A2.72,2.72,0,0,0,0,40.68V54A2.72,2.72,0,0,0,2.64,56.7H16.42A2.72,2.72,0,0,0,19.06,54V40.68A2.58,2.58,0,0,0,16.42,38Z"/></g></g></svg>