<svg id="Layer_1" data-name="Layer 1" xmlns="http://www.w3.org/2000/svg" xmlns:xlink="http://www.w3.org/1999/xlink" width="56.69" height="51.02" viewBox="0 0 56.69 51.02"><defs><style>.cls-1,.cls-2,.cls-3{fill-rule:evenodd;}.cls-1{fill:url(#linear-gradient);}.cls-2{fill:url(#linear-gradient-2);}.cls-3{fill:#fff;}</style><linearGradient id="linear-gradient" x1="-286.1" y1="418.21" x2="-285.1" y2="418.21" gradientTransform="matrix(0, -36.81, -56.69, 0, 23736.62, -10494.57)" gradientUnits="userSpaceOnUse"><stop offset="0" stop-color="#0078d4"/><stop offset="0.82" stop-color="#5ea0ef"/></linearGradient><linearGradient id="linear-gradient-2" x1="-300.59" y1="413.92" x2="-299.59" y2="413.92" gradientTransform="matrix(0, -14.2, -28.35, 0, 11748.94, -4217.39)" gradientUnits="userSpaceOnUse"><stop offset="0.15" stop-color="#ccc"/><stop offset="1" stop-color="#707070"/></linearGradient></defs><g id="group3188-1"><g id="group3189-2"><g id="shape3190-3"><path class="cls-1" d="M0,35a1.87,1.87,0,0,0,1.89,1.84H54.8A1.87,1.87,0,0,0,56.69,35V1.84A1.87,1.87,0,0,0,54.8,0H1.89A1.87,1.87,0,0,0,0,1.84Z"/></g><g id="shape3191-7"><path class="cls-2" d="M25.54,48c-5.6-.86-5.82-4.79-5.82-11.14H8.6C8.6,43.17,8.41,47.1,2.8,48A3.09,3.09,0,0,0,0,51H28.35A3.09,3.09,0,0,0,25.54,48Z"/></g><g id="shape3192-11"><path class="cls-3" d="M41.51,27l1.25-2a.64.64,0,0,0-.1-.8l-2.49-2.62A.69.69,0,0,1,40,21l.25-1.87a.65.65,0,0,1,.31-.46l3.07-2A.62.62,0,0,0,43.9,16l-.67-2.32a.76.76,0,0,0-.67-.52l-3.7-.25a.72.72,0,0,1-.54-.28l-1.24-1.52a.67.67,0,0,1-.14-.55l.64-3.45a.67.67,0,0,0-.35-.73L35,5.17a.76.76,0,0,0-.85.08L31.45,7.52a.72.72,0,0,1-.58.17l-2-.29a.7.7,0,0,1-.5-.3L26.2,4.17a.77.77,0,0,0-.79-.29L23,4.45a.71.71,0,0,0-.54.62l-.17,3.46A.63.63,0,0,1,22,9l-1.6,1.12a.79.79,0,0,1-.58.13l-3.7-.7a.73.73,0,0,0-.77.32l-1.26,2a.66.66,0,0,0,.09.8l2.49,2.62a.63.63,0,0,1,.19.55l-.25,1.86a.6.6,0,0,1-.31.47l-3.07,2a.67.67,0,0,0-.29.74l.67,2.3a.77.77,0,0,0,.67.52L18,24a.78.78,0,0,1,.54.28l1.23,1.52a.7.7,0,0,1,.15.55l-.65,3.45a.68.68,0,0,0,.36.73l2.2,1.23a.74.74,0,0,0,.86-.08l2.73-2.27a.79.79,0,0,1,.59-.16l2,.27a.75.75,0,0,1,.51.3l2.16,2.93a.77.77,0,0,0,.8.29l2.45-.57a.7.7,0,0,0,.55-.61l.16-3.47a.69.69,0,0,1,.29-.5l1.59-1.12a.81.81,0,0,1,.59-.12l3.69.69a.75.75,0,0,0,.77-.32ZM25.26,25a7.6,7.6,0,0,1-4.06-4.13,6.78,6.78,0,0,1,.16-5.54,7.21,7.21,0,0,1,4.31-3.7,8.18,8.18,0,0,1,5.92.29,7.51,7.51,0,0,1,4.55,6,7.06,7.06,0,0,1-.65,3.64A7.8,7.8,0,0,1,25.26,25Z"/></g></g></g></svg>