<svg id="Layer_1" data-name="Layer 1" xmlns="http://www.w3.org/2000/svg" xmlns:xlink="http://www.w3.org/1999/xlink" width="53.86" height="56.7" viewBox="0 0 53.86 56.7"><defs><style>.cls-1,.cls-2,.cls-3,.cls-5,.cls-6,.cls-7{fill-rule:evenodd;}.cls-1{fill:url(#linear-gradient);}.cls-2{fill:url(#linear-gradient-2);}.cls-3{fill:#e8e8e8;}.cls-4{fill:none;}.cls-5{fill:#50e6ff;}.cls-6{fill:#32bedd;}.cls-7{fill:#f2f2f2;}</style><linearGradient id="linear-gradient" x1="-286.65" y1="420.23" x2="-285.65" y2="420.23" gradientTransform="matrix(0, -37.35, -53.86, 0, 22660.7, -10670.25)" gradientUnits="userSpaceOnUse"><stop offset="0" stop-color="#0078d4"/><stop offset="0.16" stop-color="#1380da"/><stop offset="0.53" stop-color="#3c91e5"/><stop offset="0.82" stop-color="#559cec"/><stop offset="1" stop-color="#5ea0ef"/></linearGradient><linearGradient id="linear-gradient-2" x1="-269.18" y1="412.9" x2="-268.18" y2="412.9" gradientTransform="matrix(28.53, 0, 0, -28.08, 7693.11, 11637.02)" gradientUnits="userSpaceOnUse"><stop offset="0" stop-color="#32bedd"/><stop offset="0.06" stop-color="#37c5e3"/><stop offset="0.3" stop-color="#49ddf7"/><stop offset="0.45" stop-color="#50e6ff"/><stop offset="0.55" stop-color="#50e6ff"/><stop offset="0.7" stop-color="#49ddf7"/><stop offset="0.94" stop-color="#37c5e3"/><stop offset="1" stop-color="#32bedd"/></linearGradient></defs><g id="group3075-1"><g id="group3076-2"><g id="shape3077-3"><path class="cls-1" d="M53.86,25.62A12,12,0,0,0,43.35,14.25,15.08,15.08,0,0,0,27.65,0,15.63,15.63,0,0,0,12.7,10,14.23,14.23,0,0,0,0,23.55,14.54,14.54,0,0,0,15.15,37.33H41.06a2.36,2.36,0,0,0,.65,0A12.12,12.12,0,0,0,53.86,25.62Z"/></g><g id="shape3078-7"><path class="cls-2" d="M26.93,33.06c-7.85,0-14.27-2-14.27-4.44V52.27c0,2.43,6.31,4.4,14.1,4.43h.17c7.88,0,14.26-2,14.26-4.43V28.62C41.33,31.06,35,33.06,26.93,33.06Z"/></g><g id="shape3079-11"><path class="cls-3" d="M41.33,28.62c0,2.43-6.38,4.43-14.26,4.43s-14.27-2-14.27-4.43,6.42-4.44,14.13-4.44,14.27,2,14.27,4.44Z"/><path class="cls-4" d="M41.33,28.62c0,2.43-6.38,4.43-14.26,4.43s-14.27-2-14.27-4.43,6.42-4.44,14.13-4.44,14.27,2,14.27,4.44"/></g><g id="shape3080-14"><path class="cls-5" d="M38,28.36c0,1.57-4.92,2.83-11,2.83s-10.92-1.36-10.92-2.83,4.91-2.94,10.79-2.94,11,1.27,11,2.84Z"/><path class="cls-4" d="M38,28.36c0,1.57-4.92,2.83-11,2.83s-10.92-1.36-10.92-2.83,4.91-2.94,10.79-2.94,11,1.27,11,2.84"/></g><g id="shape3081-17"><path class="cls-6" d="M26.93,28.93A29.67,29.67,0,0,0,18.29,30a29.66,29.66,0,0,0,8.64,1.1A29.75,29.75,0,0,0,35.59,30,29.39,29.39,0,0,0,26.93,28.93Z"/></g><g id="shape3082-19"><path class="cls-7" d="M17.64,15l8.84-8.67a1.08,1.08,0,0,1,1.5,0h0L36.83,15a.46.46,0,0,1-.06.66.57.57,0,0,1-.28.11H31.06a.48.48,0,0,0-.48.47V27a.34.34,0,0,1-.24.37H24.27a.33.33,0,0,1-.37-.3.08.08,0,0,1,0-.07V16.21a.47.47,0,0,0-.37-.47H18a.48.48,0,0,1-.43-.51.43.43,0,0,1,.09-.22Z"/></g></g></g></svg>