<svg id="Layer_1" data-name="Layer 1" xmlns="http://www.w3.org/2000/svg" xmlns:xlink="http://www.w3.org/1999/xlink" width="56.69" height="53.86" viewBox="0 0 56.69 53.86"><defs><style>.cls-1{fill:#50e6ff;}.cls-1,.cls-2,.cls-3,.cls-4,.cls-5,.cls-6,.cls-7{fill-rule:evenodd;}.cls-2{fill:#fff;}.cls-3{fill:url(#linear-gradient);}.cls-4{fill:#53b1e0;}.cls-5{fill:#9cebff;}.cls-6{fill:url(#linear-gradient-2);}.cls-7{fill:#f04049;}.cls-8{fill:none;}</style><linearGradient id="linear-gradient" x1="-289.73" y1="421.55" x2="-288.73" y2="421.55" gradientTransform="matrix(-16.18, -31.33, -17.03, 29.78, 2532.2, -21584.41)" gradientUnits="userSpaceOnUse"><stop offset="0" stop-color="#1988d9"/><stop offset="0.9" stop-color="#54aef0"/></linearGradient><linearGradient id="linear-gradient-2" x1="-260" y1="425.16" x2="-259" y2="425.16" gradientTransform="matrix(11.71, 20.57, 26.01, -9.26, -7978.04, 9316.87)" gradientUnits="userSpaceOnUse"><stop offset="0.1" stop-color="#54aef0"/><stop offset="0.29" stop-color="#4fabee"/><stop offset="0.51" stop-color="#41a2e9"/><stop offset="0.74" stop-color="#2a93e0"/><stop offset="0.88" stop-color="#1988d9"/></linearGradient></defs><g id="group3374-1"><g id="group3375-2"><g id="shape3376-3"><path class="cls-1" d="M3.21,30.14,28.08,46.66,53.42,30.08l3.18,3.79L28.08,52.64,0,33.87Z"/></g><g id="shape3377-5"><path class="cls-2" d="M5.06,28l23-28L51.57,28.05,28.08,43.22Z"/></g><g id="shape3378-7"><path class="cls-1" d="M28.08,0V43.22L5.06,28Z"/></g><g id="shape3379-9"><path class="cls-3" d="M28.08,0V43.22L51.57,28.05Z"/></g><g id="shape3380-13"><path class="cls-4" d="M28.08,22.33l23.49,5.72L28.08,43.22Z"/></g><g id="shape3381-15"><path class="cls-5" d="M28.08,43.22,5.06,28l23-5.69Z"/></g><g id="shape3382-17"><path class="cls-6" d="M28.08,52.64,56.6,33.87l-3.18-3.79L28.08,46.66Z"/></g><g id="shape3383-21"><path class="cls-7" d="M42.6,53.86C56.37,43.77,56.69,38,56.69,36.22c0-2.57-.25-9.26-6.82-9.64a7.13,7.13,0,0,0-7.33,4.88,7.1,7.1,0,0,0-7.23-5c-6.57.48-6.92,7.2-6.92,9.77,0,1.8.41,7.55,14.06,17.54Z"/><path class="cls-8" d="M42.6,53.86C56.37,43.77,56.69,38,56.69,36.22c0-2.57-.25-9.26-6.82-9.64a7.13,7.13,0,0,0-7.33,4.88,7.1,7.1,0,0,0-7.23-5c-6.57.48-6.92,7.2-6.92,9.77,0,1.8.41,7.55,14.06,17.54"/></g><g id="shape3384-24"><path class="cls-2" d="M56.69,35.18H50.4a.57.57,0,0,0-.44.26l-2,3.44a.25.25,0,0,1-.44,0l-3-5.53a.5.5,0,0,0-.94,0L41,41.7a.25.25,0,0,1-.32.16.29.29,0,0,1-.15-.16l-2.39-5.62a.5.5,0,0,0-.67-.24.51.51,0,0,0-.24.24l-3.15,5.85a.48.48,0,0,1-.47.29h-3a22.69,22.69,0,0,0,1.51,2.09h2.61a.52.52,0,0,0,.44-.28l2.23-4.25,3.15,7a.5.5,0,0,0,.65.31.51.51,0,0,0,.3-.31l3.13-9.41,2.68,5.33a.51.51,0,0,0,.69.21.48.48,0,0,0,.19-.21l3.14-5.2a.53.53,0,0,1,.44-.25h5Z"/><path class="cls-8" d="M56.69,35.18H50.4a.57.57,0,0,0-.44.26l-2,3.44a.25.25,0,0,1-.44,0l-3-5.53a.5.5,0,0,0-.94,0L41,41.7a.25.25,0,0,1-.32.16.29.29,0,0,1-.15-.16l-2.39-5.62a.5.5,0,0,0-.67-.24.51.51,0,0,0-.24.24l-3.15,5.85a.48.48,0,0,1-.47.29h-3a22.69,22.69,0,0,0,1.51,2.09h2.61a.52.52,0,0,0,.44-.28l2.23-4.25,3.15,7a.5.5,0,0,0,.65.31.51.51,0,0,0,.3-.31l3.13-9.41,2.68,5.33a.51.51,0,0,0,.69.21.48.48,0,0,0,.19-.21l3.14-5.2a.53.53,0,0,1,.44-.25h5"/></g></g></g></svg>