<svg id="Layer_1" data-name="Layer 1" xmlns="http://www.w3.org/2000/svg" width="56.69" height="45.36" viewBox="0 0 56.69 45.36"><defs><style>.cls-1{fill:#59b4d9;}.cls-1,.cls-2{fill-rule:evenodd;}.cls-2{fill:#0077d3;}</style></defs><g id="group2982-1"><g id="group2983-2"><g id="shape2984-3"><path class="cls-1" d="M0,44.07V42.79H41.65v2.57H0ZM41.51,19.84l0-4.23L41.25,15a2.9,2.9,0,0,0-.69-.91c-.93-.69-.43-.66-12.67-.66H16.66l.53-.54A6.86,6.86,0,0,1,20,11.19c.88-.27.85-.23,1-1.33a5.07,5.07,0,0,1,4.09-4A5,5,0,0,1,29,6.9c.66.56.74.5,1.29-.94a8.22,8.22,0,0,1,2.25-3.33A8.75,8.75,0,0,1,38.91,0,8.62,8.62,0,0,1,43.5,1.1a7.32,7.32,0,0,1,2.1,1.59A6.71,6.71,0,0,1,47.36,5a10.93,10.93,0,0,1,.8,2,11,11,0,0,1-.06,4.2,8.62,8.62,0,0,0-.24,1.13c0,.26.37.28,1.06,0a6.12,6.12,0,0,1,6,1.44,5.44,5.44,0,0,1,1.8,4.26,5.73,5.73,0,0,1-3,5.09c-1.27.72-1.32.73-7,.8l-5.2.06Zm-21,4a6.7,6.7,0,0,1-5.28-6.08l0-.85H38V24H29.63c-6.64,0-8.48,0-9.1-.17Z"/></g><g id="shape2985-5"><path class="cls-2" d="M2.78,42.19a2.14,2.14,0,0,1-1.07-1c-.23-.44-.24-.73-.24-13.1,0-8.63,0-12.74.13-13A2.35,2.35,0,0,1,2.9,14c.27-.07,7-.12,18.43-.12h18l.52.25a2.74,2.74,0,0,1,.84.66l.32.41,0,12.55c0,6.89,0,12.71,0,12.92a2.68,2.68,0,0,1-1.47,1.54c-.51.14-34.63.17-34.63,0a1.59,1.59,0,0,1,.45-.44c.24-.19.88-.73,1.42-1.19l1-.85H23c13.6,0,15.23,0,15.36-.18s.14-2.36.08-11.5c0-6.23-.12-11.37-.17-11.41s-33.95-.23-34.13-.09S4,17.86,4,22.7c0,5.33,0,6.06.18,6.22s.82.18,5.34.18c3,0,5.23-.05,5.34-.11s.17-.43.14-2.1c0-1.38,0-2,.09-2s5.62,4.88,5.62,5-1.25,1.27-2.78,2.72l-2.77,2.63-.06-2.13a17.39,17.39,0,0,0-.16-2.27,94.89,94.89,0,0,0-10.8,0,58.88,58.88,0,0,0,0,8.71,6.65,6.65,0,0,0,1.66.16l1.51,0L5.81,41,4.32,42.28H3.64a4.3,4.3,0,0,1-.86-.08Z"/></g></g></g></svg>