<svg id="Layer_1" data-name="Layer 1" xmlns="http://www.w3.org/2000/svg" width="39.68" height="56.69" viewBox="0 0 39.68 56.69"><defs><style>.cls-1{fill:#0072c6;}.cls-1,.cls-4,.cls-5,.cls-6,.cls-7{fill-rule:evenodd;}.cls-2,.cls-6{fill:#fff;}.cls-3,.cls-7{fill:#7a7a7a;}.cls-4{fill:#804998;}.cls-5{fill:#3999c6;}.cls-6{fill-opacity:0.2;}</style></defs><g id="group2986-1"><g id="group2987-2"><g id="shape2988-3"><path class="cls-1" d="M14.17,56.69H1.7A1.72,1.72,0,0,1,0,55H0V42.23a1.72,1.72,0,0,1,1.7-1.74H14.17a1.72,1.72,0,0,1,1.7,1.74h0V55a1.72,1.72,0,0,1-1.7,1.74Z"/></g><g id="shape2989-5"><rect class="cls-2" x="3.4" y="43.96" width="9.07" height="9.26"/></g><g id="shape2990-7"><path class="cls-1" d="M14.17,56.69H1.7A1.72,1.72,0,0,1,0,55H0V42.23a1.72,1.72,0,0,1,1.7-1.74H14.17a1.72,1.72,0,0,1,1.7,1.74h0V55a1.72,1.72,0,0,1-1.7,1.74Z"/></g><g id="shape2991-9"><rect class="cls-2" x="22.68" y="43.96" width="9.07" height="9.26"/></g><g id="shape2992-11"><rect class="cls-3" x="26.08" y="25.45" width="2.27" height="15.04"/></g><g id="shape2993-13"><path class="cls-4" d="M39.68,12.72a12.47,12.47,0,1,1-24.94,0,12.47,12.47,0,1,1,24.94,0Z"/></g><g id="shape2994-15"><path class="cls-5" d="M16.89,31.24a6.69,6.69,0,1,1-6.69-6.62A6.65,6.65,0,0,1,16.89,31.24Zm-2.51,9.25L10.2,47.06,6,40.49H0v16.2H20.41V40.49Z"/></g><g id="shape2995-17"><path class="cls-6" d="M35.23,4.54a11.17,11.17,0,0,0-16,0,11.73,11.73,0,0,0,0,16.36Z"/></g><g id="shape2996-19"><path class="cls-7" d="M38.66,31.23H9.07A2.29,2.29,0,0,0,6.8,33.54h0v6.94H9.07V33.55H39A7.92,7.92,0,0,1,38.66,31.23Z"/></g></g></g></svg>