<svg id="Layer_1" data-name="Layer 1" xmlns="http://www.w3.org/2000/svg" xmlns:xlink="http://www.w3.org/1999/xlink" width="42.52" height="56.69" viewBox="0 0 42.52 56.69"><defs><style>.cls-1,.cls-2,.cls-3,.cls-4,.cls-5{fill-rule:evenodd;}.cls-1{fill:url(#linear-gradient);}.cls-2{fill:#e8e8e8;}.cls-3{fill:#50e6ff;}.cls-4{fill:#198ab3;}.cls-5{fill:#f2f2f2;}</style><linearGradient id="linear-gradient" x1="-278.12" y1="417.7" x2="-277.12" y2="417.7" gradientTransform="matrix(42.52, -0.01, -0.01, -48.95, 11828.43, 20476.33)" gradientUnits="userSpaceOnUse"><stop offset="0" stop-color="#005ba1"/><stop offset="0.07" stop-color="#0060a9"/><stop offset="0.36" stop-color="#0071c8"/><stop offset="0.52" stop-color="#0078d4"/><stop offset="0.64" stop-color="#0074cd"/><stop offset="0.82" stop-color="#006abb"/><stop offset="1" stop-color="#005ba1"/></linearGradient></defs><g id="group3083-1"><g id="group3084-2"><g id="shape3085-3"><path class="cls-1" d="M21.26,15.47C9.52,15.47,0,12.14,0,7.74V49c0,4.23,9.35,7.67,21,7.73h.3C33,56.69,42.52,53.36,42.52,49V7.74C42.52,12,33,15.47,21.26,15.47Z"/></g><g id="shape3086-7"><path class="cls-2" d="M42.52,7.74c0,4.26-9.52,7.73-21.26,7.73S0,12.14,0,7.74,9.52,0,21.26,0,42.52,3.33,42.52,7.74Z"/></g><g id="shape3087-9"><path class="cls-3" d="M37.54,7.11c0,2.73-7.29,4.93-16.28,4.93S4.94,9.84,4.94,7.14s7.3-4.93,16.32-4.93S37.54,4.41,37.54,7.11Z"/></g><g id="shape3088-11"><path class="cls-4" d="M21.26,8.34a38.21,38.21,0,0,0-12.94,1.9A38.13,38.13,0,0,0,21.26,12a38.15,38.15,0,0,0,12.9-1.93A38.88,38.88,0,0,0,21.26,8.34Z"/></g><g id="shape3089-13"><path class="cls-5" d="M31.21,28.35v1.4a18.26,18.26,0,0,0-.27,2.1,5.11,5.11,0,0,0,.17,1.53,3,3,0,0,1,0,1.21,5.56,5.56,0,0,1-.83,2.86v.24l.33.4a34.55,34.55,0,0,0,3.51-7.94c.93-3.17,1-5.44.3-6.4a8.52,8.52,0,0,0-8.89-2.87,10.66,10.66,0,0,1,3,2.23A7.59,7.59,0,0,1,31.21,28.35Zm-1,.27a3.78,3.78,0,0,0-2.62.3c-1,.6-.67,1.83,0,3.33a29.15,29.15,0,0,0,1.16,2.84l.3.53c.16.27.26.5.36.67l.27.43a4.26,4.26,0,0,0,.59-2.17,6.73,6.73,0,0,0,0-1.1,5.19,5.19,0,0,0-.16-1.63,22.17,22.17,0,0,1,.26-2.3,2.8,2.8,0,0,1,0-1Zm-1,1.36a1.33,1.33,0,0,1-.6.34,1.19,1.19,0,0,1-.46,0,.8.8,0,0,1-.23-.64c0-.23.36-.43.79-.5h.63s.3,0,.3.27a.65.65,0,0,1-.29.43ZM13.63,33v-.57a2.62,2.62,0,0,0,0-.56,18.63,18.63,0,0,1,0-3.34,17.77,17.77,0,0,1,1-3.67,8.19,8.19,0,0,1,1.93-3.13A15.44,15.44,0,0,0,12.07,21a6.15,6.15,0,0,0-3.65,1,6.7,6.7,0,0,0-2.09,6.07A41.74,41.74,0,0,0,8,35.55c1.13,3.8,2.42,6.14,3.55,6.51.49.16,1,0,1.56-.7.92-1.14,1.79-2.11,2.28-2.67a6.32,6.32,0,0,1-1.62-5.84Zm.86,1.34a7.79,7.79,0,0,0,.2,1.86,5.56,5.56,0,0,0,.86,1.47,3.8,3.8,0,0,0,1.16.83,3.59,3.59,0,0,0,1.29.27,6.87,6.87,0,0,1,.77-2,13.94,13.94,0,0,0,.69-2,20.78,20.78,0,0,0,0-3.7,2,2,0,0,0-.19-1,1.38,1.38,0,0,0-.4-.9,2.11,2.11,0,0,0-.93-.53h-.66a5.05,5.05,0,0,0-1.6.46,6.79,6.79,0,0,0-1.06.64v2.4a2.09,2.09,0,0,1,0,.5v1.3Zm2.19-4.47a1.48,1.48,0,0,1,.93,0,1.72,1.72,0,0,1,.63.2c.3,0,.33.36.3.46a1.29,1.29,0,0,1-.4.44.85.85,0,0,1-.19-.14,1.14,1.14,0,0,1-.94-.93Zm2.45,10a.78.78,0,0,0-.43.2l-.46.57c-.57.7-.8.93-2.42,1.27a1.67,1.67,0,0,0-.87.33,2,2,0,0,0,.8.37,3.9,3.9,0,0,0,2.39,0,5.73,5.73,0,0,0,1.29-.87,2,2,0,0,0,.66-1,1.17,1.17,0,0,0-.33-.93.49.49,0,0,0-.49-.07Zm15.29,0a5.38,5.38,0,0,1-3.75,0,.72.72,0,0,0-.46,0,1,1,0,0,0-.56.46,3.62,3.62,0,0,0,0,1A6,6,0,0,0,33.29,41a4.55,4.55,0,0,0,1.6-1.14Zm-8-7.14c-.46-1.36-1.13-3.33.6-4.53a4.4,4.4,0,0,1,3-.5,10.42,10.42,0,0,0-2.12-3.84l-.33-.33-.2-.2a.64.64,0,0,0-.2-.2,7.45,7.45,0,0,0-2.22-1.4A8.59,8.59,0,0,0,21.26,21a4.91,4.91,0,0,0-2.33.36,5.14,5.14,0,0,0-1,.37A7,7,0,0,0,15.48,25a20.84,20.84,0,0,0-.69,3.34,5.51,5.51,0,0,1,3.31-.77,2.79,2.79,0,0,1,2.57,3v0a23,23,0,0,1,0,4.23A12.26,12.26,0,0,1,19.9,37c-.2.57-.47,1.17-.6,1.64a1.59,1.59,0,0,1,1.26.46,2.15,2.15,0,0,1,.63,1.77h.07v.8a22.16,22.16,0,0,0,.79,8.14,1.87,1.87,0,0,0,.8.7,2.12,2.12,0,0,0,1,.33,4.28,4.28,0,0,0,3.31-1.13,3.51,3.51,0,0,0,1-2.2c.24-1.5.73-5.67.8-6.67a2.49,2.49,0,0,1,.3-1.47,2.14,2.14,0,0,1,.89-.8,18.14,18.14,0,0,1-3.55-6Z"/></g></g></g></svg>