<svg id="Layer_1" data-name="Layer 1" xmlns="http://www.w3.org/2000/svg" xmlns:xlink="http://www.w3.org/1999/xlink" width="45.35" height="56.69" viewBox="0 0 45.35 56.69"><defs><style>.cls-1,.cls-2,.cls-8,.cls-9{fill-rule:evenodd;}.cls-1{fill:url(#linear-gradient);}.cls-2{fill:#003067;}.cls-3{fill:#50e6ff;}.cls-4{fill:#76bc2d;}.cls-5,.cls-8{fill:#5e9624;}.cls-6{fill:url(#linear-gradient-2);}.cls-7{fill:#005ba1;}.cls-9{fill:#0078d4;}</style><linearGradient id="linear-gradient" x1="-287.74" y1="426.15" x2="-286.74" y2="426.15" gradientTransform="matrix(0, -56.4, -28.63, 0, 12215.19, -16172.27)" gradientUnits="userSpaceOnUse"><stop offset="0" stop-color="#949494"/><stop offset="0.53" stop-color="#a2a2a2"/><stop offset="1" stop-color="#b3b3b3"/></linearGradient><linearGradient id="linear-gradient-2" x1="-250.39" y1="439.79" x2="-249.39" y2="439.79" gradientTransform="matrix(5.79, 11.59, 24.43, -2.75, -9265.7, 4137.28)" gradientUnits="userSpaceOnUse"><stop offset="0" stop-color="#0078d4"/><stop offset="0.02" stop-color="#0d7ed8"/><stop offset="0.08" stop-color="#2b8ae0"/><stop offset="0.15" stop-color="#4194e7"/><stop offset="0.22" stop-color="#519beb"/><stop offset="0.29" stop-color="#5b9fee"/><stop offset="0.4" stop-color="#5ea0ef"/><stop offset="0.55" stop-color="#5b9fee"/><stop offset="0.68" stop-color="#509aeb"/><stop offset="0.8" stop-color="#3f92e6"/><stop offset="0.91" stop-color="#2688df"/><stop offset="0.99" stop-color="#127fd9"/></linearGradient></defs><g id="group2797-1"><g id="group2798-2"><g id="group2799-3"><g id="shape2800-4"><path class="cls-1" d="M28.63,54.49A1.82,1.82,0,0,1,27,56.4H1.65A1.79,1.79,0,0,1,0,54.49H0V1.91A1.77,1.77,0,0,1,1.59,0H27a1.79,1.79,0,0,1,1.65,1.91h0Z"/></g><g id="shape2801-8"><path class="cls-2" d="M4.19,19.76a3.42,3.42,0,0,1,3.13-3.59H21.55a3.38,3.38,0,0,1,3.11,3.59h0a3.38,3.38,0,0,1-3.07,3.63H7.32a3.4,3.4,0,0,1-3.13-3.62Z"/></g><g id="shape2802-10"><path class="cls-2" d="M4.19,9.09A3.36,3.36,0,0,1,7.32,5.62H21.55a3.32,3.32,0,0,1,3.11,3.47,3.37,3.37,0,0,1-3.1,3.59H7.32A3.41,3.41,0,0,1,4.19,9.09Z"/></g><g id="shape2803-12"><ellipse class="cls-3" cx="7.44" cy="9.09" rx="2.1" ry="2.43"/></g><g id="shape2804-14"><ellipse class="cls-3" cx="7.44" cy="19.77" rx="2.1" ry="2.43"/></g></g><g id="shape2805-16"><ellipse class="cls-4" cx="32.8" cy="47.4" rx="12.55" ry="5.95"/></g><g id="shape2806-18"><ellipse class="cls-5" cx="33.11" cy="47.34" rx="4.17" ry="1.33"/></g><g id="shape2807-20"><ellipse class="cls-6" cx="32.8" cy="34.17" rx="12.55" ry="5.95"/></g><g id="shape2808-24"><ellipse class="cls-7" cx="33.11" cy="34.1" rx="4.17" ry="1.33"/></g><g id="shape2809-26"><path class="cls-8" d="M32.79,53.26c6.94,0,12.56-2.69,12.56-6v3.66c-.25,3.23-5.76,5.76-12.56,5.76s-12.55-2.65-12.55-6V47.5C20.24,50.57,25.86,53.26,32.79,53.26Z"/></g><g id="shape2810-28"><path class="cls-9" d="M32.79,40c6.94,0,12.56-2.66,12.56-6v3.53c-.25,3.23-5.76,5.76-12.56,5.76s-12.55-2.69-12.55-6V34.11C20.24,37.34,25.86,40,32.79,40Z"/></g></g></g></svg>