<svg id="Layer_1" data-name="Layer 1" xmlns="http://www.w3.org/2000/svg" width="36.72" height="56.69" viewBox="0 0 36.72 56.69"><defs><style>.cls-1{fill:#ff8c00;}.cls-1,.cls-2,.cls-4,.cls-5,.cls-6,.cls-7,.cls-8,.cls-9{fill-rule:evenodd;}.cls-2,.cls-7{fill-opacity:0.4;}.cls-3,.cls-5,.cls-7,.cls-9{fill:#fff;}.cls-4{fill:#a0a1a2;}.cls-5{fill-opacity:0.2;}.cls-6{fill:#59b4d9;}.cls-8{fill:#3999c6;}</style></defs><g id="group2997-1"><g id="group2998-2"><g id="shape2999-3"><path class="cls-1" d="M35,48.43H1.72A1.75,1.75,0,0,1,0,46.66V5.32A1.74,1.74,0,0,1,1.72,3.55H35a1.74,1.74,0,0,1,1.73,1.76h0V46.66A1.75,1.75,0,0,1,35,48.43Z"/></g><g id="shape3000-5"><path class="cls-2" d="M35,48.43H1.72A1.75,1.75,0,0,1,0,46.66V5.32A1.74,1.74,0,0,1,1.72,3.55H35a1.74,1.74,0,0,1,1.73,1.76h0V46.66A1.75,1.75,0,0,1,35,48.43Z"/></g><g id="shape3001-7"><rect class="cls-3" x="3.44" y="7.09" width="29.83" height="37.8"/></g><g id="shape3002-9"><path class="cls-4" d="M27.54,9.45H9.18V3.78A3.72,3.72,0,0,1,12.85,0h11a3.72,3.72,0,0,1,3.67,3.78Z"/></g><g id="shape3003-11"><path class="cls-5" d="M18.36,0H12.85A3.72,3.72,0,0,0,9.18,3.78V9.45h9.18Z"/></g><g id="shape3004-13"><path class="cls-6" d="M16.06,16.54H28.68V18.9H16.06Zm0,9.45H28.68v2.36H16.06Zm0,9.45H28.68V37.8H16.06Z"/></g><g id="shape3005-15"><path class="cls-7" d="M32.13,39H26.39v9.45H35a1.75,1.75,0,0,0,1.72-1.77V36.38a5.82,5.82,0,0,1,0-11.33V22.66A8.07,8.07,0,0,0,30,30.71a8.24,8.24,0,0,0,2.47,5.91h-.29Z"/></g><g id="shape3006-17"><path class="cls-8" d="M17.1,30.71a6.88,6.88,0,0,1-6.77,7,7,7,0,0,1,0-13.94A6.88,6.88,0,0,1,17.1,30.71Zm-2.55,9.44-4.22,6.71L6.1,40.15H0V56.69H20.65V40.15Z"/></g><g id="shape3007-19"><path class="cls-6" d="M6.88,15.36h5.74v5.9H6.88Zm0,9.45h5.74v5.9H6.88Zm0,9.44h5.74v5.91H6.88Z"/></g><g id="shape3008-21"><path class="cls-9" d="M8.32,16.83h2.87v3H8.32Zm0,9.45h2.87v2.95H8.32Zm0,9.45h2.87v3H8.32Z"/></g></g></g></svg>