<svg id="Layer_1" data-name="Layer 1" xmlns="http://www.w3.org/2000/svg" xmlns:xlink="http://www.w3.org/1999/xlink" width="48.51" height="56.69" viewBox="0 0 48.51 56.69"><defs><style>.cls-1,.cls-2,.cls-3{fill-rule:evenodd;}.cls-1{fill:url(#linear-gradient);}.cls-2{fill:#83b9f9;}.cls-3{fill:#0078d4;}</style><linearGradient id="linear-gradient" x1="-288.48" y1="419.41" x2="-287.48" y2="419.41" gradientTransform="matrix(0, -44.52, -48.51, 0, 20368.88, -12787.01)" gradientUnits="userSpaceOnUse"><stop offset="0" stop-color="#0078d4"/><stop offset="0.16" stop-color="#1380da"/><stop offset="0.53" stop-color="#3c91e5"/><stop offset="0.82" stop-color="#559cec"/><stop offset="1" stop-color="#5ea0ef"/></linearGradient></defs><g id="group2904-1"><g id="group2905-2"><g id="shape2906-3"><path class="cls-1" d="M48.35,54.2,37,24.36a.9.9,0,0,0-.82-.58H28.16v-7.1A4.1,4.1,0,1,0,20,16a4.09,4.09,0,0,0,0,.7v7.1H12.73a.92.92,0,0,0-.85.58L.16,54.2A1.78,1.78,0,0,0,1,56.54a1.85,1.85,0,0,0,.57.15H46.93a1.75,1.75,0,0,0,1.57-1.91A1.91,1.91,0,0,0,48.35,54.2Z"/></g><g id="shape2907-7"><path class="cls-2" d="M6.52,37.93,33.71,23.78h2.36a.89.89,0,0,1,.85.61l2.61,6.89L1.58,50.74ZM26,56.63,44.86,45.1l3.43,9.1a1.8,1.8,0,0,1-.93,2.35,1.61,1.61,0,0,1-.52.14Z"/></g><g id="shape2908-9"><path class="cls-3" d="M23.85,0l-13,7.65a.51.51,0,0,0-.26.45V9.31a.5.5,0,0,0,.5.51h2v14h2.45V9.83H32.67v14h2.42V9.83h2a.51.51,0,0,0,.5-.51V8.13a.54.54,0,0,0-.26-.45L24.26,0a.72.72,0,0,0-.41,0Z"/></g></g></g></svg>