<svg id="Layer_1" data-name="Layer 1" xmlns="http://www.w3.org/2000/svg" width="34.02" height="56.69" viewBox="0 0 34.02 56.69"><defs><style>.cls-1{fill:#804998;}.cls-1,.cls-2{fill-rule:evenodd;}.cls-2{fill:#e5e5e5;}.cls-3{fill:#b8d432;}</style></defs><g id="group3271-1"><g id="group3272-2"><g id="shape3273-3"><path class="cls-1" d="M27.21,0H6.8A7,7,0,0,0,0,7.09v49.6H34V7.09A7,7,0,0,0,27.21,0Z"/></g><g id="shape3274-5"><path class="cls-2" d="M25.51,14.17H8.5a1.77,1.77,0,0,1,0-3.54h17a1.77,1.77,0,0,1,0,3.54Zm0,14.17H8.5a1.77,1.77,0,0,1,0-3.54h17a1.77,1.77,0,0,1,0,3.54Z"/></g><g id="shape3275-7"><ellipse class="cls-3" cx="17.01" cy="46.06" rx="3.4" ry="3.54"/></g></g></g></svg>