<svg id="Layer_1" data-name="Layer 1" xmlns="http://www.w3.org/2000/svg" width="56.69" height="56.7" viewBox="0 0 56.69 56.7"><defs><style>.cls-1{fill:#235dc1;}.cls-1,.cls-2,.cls-3,.cls-4,.cls-5,.cls-6,.cls-7{fill-rule:evenodd;}.cls-2{fill:#3b6ec6;}.cls-3{fill:#5d8de4;}.cls-4{fill:#9fbbf0;}.cls-5{fill:#adc5f2;}.cls-6{fill:#6c9aee;}.cls-7{fill:#88acef;}</style></defs><g id="group2852-1"><g id="shape2853-2"><path class="cls-1" d="M19.55,49l7.68,7.69H39.7a2.75,2.75,0,0,0,2.74-2.75V25.06L19.55,48A.67.67,0,0,0,19.55,49Z"/></g><g id="shape2854-4"><path class="cls-2" d="M0,36.25V48.74l7.68,7.69a.66.66,0,0,0,1,0l22.9-22.94H2.74A2.76,2.76,0,0,0,0,36.25Z"/></g><g id="shape2855-6"><path class="cls-3" d="M28.82,2.9,10.33,31.23a2.43,2.43,0,0,0,.32,3L22.49,46.13a2.42,2.42,0,0,0,3,.31L53.81,27.92a6.4,6.4,0,0,0,2.88-5.35V2.82A2.82,2.82,0,0,0,53.88,0H34.17A6.43,6.43,0,0,0,28.82,2.9Z"/></g><g id="shape2856-8"><path class="cls-4" d="M4.16,52.75v-10H0v14H14.16v-4Z"/></g><g id="shape2857-10"><path class="cls-5" d="M42.5,21a7.06,7.06,0,1,0-7-7A7,7,0,0,0,42.5,21Z"/></g><g id="shape2858-12"><path class="cls-6" d="M29.9,23.39,14.84,38.47,18.31,42,33.37,26.87Z"/></g><g id="shape2859-14"><path class="cls-7" d="M15.31,45l3-3-3.48-3.48-3,3Z"/></g></g></svg>