<svg id="Layer_1" data-name="Layer 1" xmlns="http://www.w3.org/2000/svg" xmlns:xlink="http://www.w3.org/1999/xlink" width="45.35" height="56.69" viewBox="0 0 45.35 56.69"><defs><style>.cls-1,.cls-2,.cls-3,.cls-4{fill-rule:evenodd;}.cls-1{fill:url(#linear-gradient);}.cls-2{fill:#50e6ff;}.cls-3{fill:#fff;fill-opacity:0.2;}.cls-4{fill:#198ab3;}.cls-5{fill:url(#linear-gradient-2);}.cls-6{fill:url(#linear-gradient-3);}.cls-7{fill:url(#linear-gradient-4);}</style><linearGradient id="linear-gradient" x1="-275.21" y1="441.78" x2="-274.21" y2="441.78" gradientTransform="matrix(1.15, 56.67, 45.28, -1.44, -19663.74, 16232.39)" gradientUnits="userSpaceOnUse"><stop offset="0.22" stop-color="#32d4f5"/><stop offset="1" stop-color="#198ab3"/></linearGradient><linearGradient id="linear-gradient-2" x1="-331.15" y1="410.87" x2="-330.15" y2="410.87" gradientTransform="matrix(-1.44, -7.73, -8.24, 1.35, 2920.68, -3071.21)" gradientUnits="userSpaceOnUse"><stop offset="0" stop-color="#ccc"/><stop offset="1" stop-color="#fcfcfc"/></linearGradient><linearGradient id="linear-gradient-3" x1="-331.15" y1="410.87" x2="-330.15" y2="410.87" gradientTransform="matrix(-1.44, -7.73, -8.24, 1.35, 2939.31, -3079.63)" xlink:href="#linear-gradient-2"/><linearGradient id="linear-gradient-4" x1="-331.15" y1="410.87" x2="-330.15" y2="410.87" gradientTransform="matrix(-1.44, -7.73, -8.24, 1.35, 2939.31, -3062.45)" xlink:href="#linear-gradient-2"/></defs><g id="group3053-1"><g id="shape3054-2"><path class="cls-1" d="M43,27.23H39.6V17.55a17.65,17.65,0,0,0-5-12.31A16.49,16.49,0,0,0,22.38,0,16.52,16.52,0,0,0,10,5.24,17.36,17.36,0,0,0,5,17.55v9.68H2.31A2.28,2.28,0,0,0,0,29.39V54.52a2.27,2.27,0,0,0,2.31,2.17H43a2.31,2.31,0,0,0,2.34-2.17V29.39A2.31,2.31,0,0,0,43,27.23Zm-11.28,0H13.08V17.4A9.69,9.69,0,0,1,16,10.64a8.64,8.64,0,0,1,6.29-2.7,8.78,8.78,0,0,1,6.32,2.7A9.91,9.91,0,0,1,29.67,12a9.09,9.09,0,0,1,2,5.37Z"/></g><g id="shape3055-6"><path class="cls-2" d="M43.05,27.23H2.34a2.28,2.28,0,0,0-1.47.53L44.52,56a2.07,2.07,0,0,0,.83-1.63V29.27A2.31,2.31,0,0,0,43.05,27.23Z"/></g><g id="shape3056-8"><path class="cls-3" d="M2.41,27.23H43.08a2.47,2.47,0,0,1,1.51.53L.91,56A2.11,2.11,0,0,1,.07,54.4V29.27A2.35,2.35,0,0,1,2.41,27.23Z"/></g><g id="shape3057-10"><path class="cls-4" d="M30.77,51.51,10,41.77l20.8-9.64L31.71,34,14.82,41.77l16.89,7.95Z"/></g><g id="shape3058-12"><ellipse class="cls-5" cx="12.44" cy="41.83" rx="4.18" ry="3.93"/></g><g id="shape3059-16"><ellipse class="cls-6" cx="31.07" cy="33.42" rx="4.18" ry="3.93"/></g><g id="shape3060-19"><ellipse class="cls-7" cx="31.07" cy="50.6" rx="4.18" ry="3.93"/></g></g></svg>