<svg id="Layer_1" data-name="Layer 1" xmlns="http://www.w3.org/2000/svg" xmlns:xlink="http://www.w3.org/1999/xlink" width="51.05" height="56.69" viewBox="0 0 51.05 56.69"><defs><style>.cls-1,.cls-2{fill-rule:evenodd;}.cls-1{fill:url(#linear-gradient);}.cls-2{fill:#fff;fill-opacity:0.8;}.cls-3{fill:url(#linear-gradient-2);}</style><linearGradient id="linear-gradient" x1="-268.33" y1="429.3" x2="-267.33" y2="429.3" gradientTransform="matrix(0, 31.21, 51.05, 0, -21890.71, 8400.06)" gradientUnits="userSpaceOnUse"><stop offset="0.22" stop-color="#32d4f5"/><stop offset="1" stop-color="#198ab3"/></linearGradient><linearGradient id="linear-gradient-2" x1="-266.81" y1="432.12" x2="-265.81" y2="432.12" gradientTransform="matrix(2.29, 28.76, 28.5, -2.31, -11678.95, 8671.41)" xlink:href="#linear-gradient"/></defs><g id="group3300-1"><g id="group3301-2"><g id="shape3302-3"><path class="cls-1" d="M46.5,56.69A4.55,4.55,0,0,0,51,52.13a1.63,1.63,0,0,0,0-.54c-1.81-14.39-9.89-26.11-25.5-26.11S1.62,35.4,0,51.62a4.59,4.59,0,0,0,4,5.06H46.5Z"/></g><g id="shape3303-7"><path class="cls-2" d="M25.53,28.88a14.17,14.17,0,0,1-7.74-2.3L25.53,46.8l7.62-20.09A14.11,14.11,0,0,1,25.53,28.88Z"/></g><g id="shape3304-9"><ellipse class="cls-3" cx="25.56" cy="14.43" rx="14.29" ry="14.43"/></g></g></g></svg>