<svg id="Layer_1" data-name="Layer 1" xmlns="http://www.w3.org/2000/svg" width="52.51" height="56.69" viewBox="0 0 52.51 56.69"><defs><style>.cls-1{fill:#ff8c00;}.cls-1,.cls-2,.cls-5,.cls-6,.cls-7{fill-rule:evenodd;}.cls-2,.cls-4,.cls-5,.cls-7{fill:#dd5900;}.cls-2{fill-opacity:0.6;}.cls-3,.cls-6{fill:#fcd116;}.cls-4,.cls-5{fill-opacity:0.4;}.cls-7{fill-opacity:0.3;}</style></defs><g id="group3335-1"><g id="group3336-2"><g id="shape3337-3"><path class="cls-1" d="M47.26,5.91H6.6a5.36,5.36,0,0,0-4.42,8.27A73.06,73.06,0,0,1,6.82,24.59c.83,2.25,3.63,3.76,6.11,3.76h28c2.49,0,5.29-1.51,6.11-3.76a73.55,73.55,0,0,1,4.65-10.41A5.36,5.36,0,0,0,47.26,5.91Zm1.43,6.4a76.55,76.55,0,0,0-5,11.08,2.32,2.32,0,0,1-2.22,1.42H12.35a2.33,2.33,0,0,1-2.23-1.44A76,76,0,0,0,5.17,12.31a2,2,0,0,1-.06-2A1.6,1.6,0,0,1,6.6,9.45H47.26a1.6,1.6,0,0,1,1.49.87A2,2,0,0,1,48.69,12.31Z"/></g><g id="shape3338-5"><path class="cls-2" d="M47.26,5.91h-18V9.45h18a1.62,1.62,0,0,1,1.49.87,2,2,0,0,1-.06,2,74.28,74.28,0,0,0-5,11.08,2.32,2.32,0,0,1-2.22,1.42H29.27v3.54H40.92c2.49,0,5.29-1.51,6.11-3.76a73.55,73.55,0,0,1,4.65-10.41A5.36,5.36,0,0,0,47.26,5.91Z"/></g><g id="shape3339-7"><rect class="cls-3" x="22.25" y="33.07" width="9.37" height="12.99"/></g><g id="shape3340-9"><rect class="cls-4" x="26.93" y="33.07" width="4.68" height="12.99"/></g><g id="shape3341-11"><path class="cls-1" d="M30.58,55.22l-2.17-7.64c-.7-1.63-1.29-2.7-3.16-2.7H5.63c-1.87,0-2.47,1.07-3.16,2.7L.3,55.22a1.08,1.08,0,0,0,1.06,1.47H29.51A1.09,1.09,0,0,0,30.58,55.22Z"/></g><g id="shape3342-13"><path class="cls-2" d="M15.14,55.22,13,47.58c-.69-1.63-1.29-2.7-3.16-2.7H0V56.69H14.08A1.08,1.08,0,0,0,15.14,55.22Z"/></g><g id="shape3343-15"><path class="cls-5" d="M22.25,36.48a9.3,9.3,0,0,0,4.68,1.31,9.4,9.4,0,0,0,4.69-1.3V33.06H22.25Z"/></g><g id="shape3344-17"><path class="cls-6" d="M41.51,0H12.26c-2,0-1.91,2.34-1.44,2.88s3.91,4.88,3.91,20.41a12.16,12.16,0,0,0,24.31,0c0-15.53,3.3-19.8,3.9-20.41A1.76,1.76,0,0,0,41.51,0Z"/></g><g id="shape3345-19"><path class="cls-7" d="M26.93,35.43A12.27,12.27,0,0,0,39,23.29C39,7.76,42.35,3.49,43,2.89A1.77,1.77,0,0,0,41.51,0H26.93Z"/></g></g></g></svg>