<svg id="Layer_1" data-name="Layer 1" xmlns="http://www.w3.org/2000/svg" xmlns:xlink="http://www.w3.org/1999/xlink" width="42.52" height="56.69" viewBox="0 0 42.52 56.69"><defs><style>.cls-1,.cls-2,.cls-3,.cls-4,.cls-5{fill-rule:evenodd;}.cls-1{fill:url(#linear-gradient);}.cls-2{fill:#e8e8e8;}.cls-3{fill:#50e6ff;}.cls-4{fill:#198ab3;}.cls-5{fill:#f2f2f2;}</style><linearGradient id="linear-gradient" x1="-278.12" y1="417.7" x2="-277.12" y2="417.7" gradientTransform="matrix(42.52, 0, 0, -48.95, 11825.68, 20478.44)" gradientUnits="userSpaceOnUse"><stop offset="0" stop-color="#005ba1"/><stop offset="0.07" stop-color="#0060a9"/><stop offset="0.36" stop-color="#0071c8"/><stop offset="0.52" stop-color="#0078d4"/><stop offset="0.64" stop-color="#0074cd"/><stop offset="0.82" stop-color="#006abb"/><stop offset="1" stop-color="#005ba1"/></linearGradient></defs><g id="group3090-1"><g id="group3091-2"><g id="shape3092-3"><path class="cls-1" d="M21.26,15.47C9.52,15.47,0,12.14,0,7.74V49c0,4.23,9.35,7.67,21,7.73h.3C33,56.69,42.52,53.36,42.52,49V7.74C42.52,12,33,15.47,21.26,15.47Z"/></g><g id="shape3093-7"><path class="cls-2" d="M42.52,7.74c0,4.3-9.52,7.73-21.26,7.73S0,12.14,0,7.74,9.52,0,21.26,0,42.52,3.33,42.52,7.74Z"/></g><g id="shape3094-9"><path class="cls-3" d="M37.58,7.11c0,2.73-7.33,4.93-16.32,4.93S4.94,9.84,4.94,7.11s7.33-4.9,16.32-4.9S37.58,4.41,37.58,7.11Z"/></g><g id="shape3095-11"><path class="cls-4" d="M21.26,8.34a37.91,37.91,0,0,0-12.9,1.9A37.86,37.86,0,0,0,21.26,12a36.94,36.94,0,0,0,12.9-1.93A38.88,38.88,0,0,0,21.26,8.34Z"/></g><g id="shape3096-13"><path class="cls-5" d="M33.34,28.34v5.44H30a1.26,1.26,0,0,1-1-.47v-5H24.58v5.94a3,3,0,0,0,3.13,3h5.13l.86-.44s-.36,1.37-.86,1.44H25v3.33h8.82a4,4,0,0,0,4.08-4V28.34ZM23,28.34V26.71a2.35,2.35,0,0,0-1.59-2.57,5.88,5.88,0,0,0-1.66-.27,3.11,3.11,0,0,0-3,1.94l-2.58,6.34-3.32-6.34A3.1,3.1,0,0,0,8,23.87a4.85,4.85,0,0,0-1.69.3c-1.16.37-1.43,1.14-1.43,2.44v11H8.76V30.21l2.09,5.24a3.57,3.57,0,0,0,3.32,2.2c1.46,0,2-.87,2.65-2.2l2.22-5v7.17H23V28.34Z"/></g></g></g></svg>