<svg id="Layer_1" data-name="Layer 1" xmlns="http://www.w3.org/2000/svg" xmlns:xlink="http://www.w3.org/1999/xlink" width="56.72" height="56.69" viewBox="0 0 56.72 56.69"><defs><style>.cls-1,.cls-2,.cls-4{fill-rule:evenodd;}.cls-1{fill:url(#linear-gradient);}.cls-2{fill:#fff;fill-opacity:0.8;}.cls-3{fill:url(#linear-gradient-2);}.cls-4{fill:url(#linear-gradient-3);}</style><linearGradient id="linear-gradient" x1="-264.14" y1="442.45" x2="-263.14" y2="442.45" gradientTransform="matrix(0, 27.98, 40.92, 0, -18086.2, 7419.84)" gradientUnits="userSpaceOnUse"><stop offset="0.1" stop-color="#54aef0"/><stop offset="1" stop-color="#1988d9"/></linearGradient><linearGradient id="linear-gradient-2" x1="-262.35" y1="444.94" x2="-261.35" y2="444.94" gradientTransform="matrix(2.12, 25.79, 26.43, -2.07, -11179.76, 7685.74)" xlink:href="#linear-gradient"/><linearGradient id="linear-gradient-3" x1="-290.8" y1="425.12" x2="-289.8" y2="425.12" gradientTransform="matrix(0, -24.73, -25.31, 0, 10804.33, -7134.76)" gradientUnits="userSpaceOnUse"><stop offset="0" stop-color="#76bc2d"/><stop offset="0.6" stop-color="#81ce31"/><stop offset="0.82" stop-color="#86d633"/></linearGradient></defs><g id="group2909-1"><g id="shape2910-2"><path class="cls-1" d="M29.75,38a1.65,1.65,0,0,1,1.65-1.61h9.52a21.44,21.44,0,0,0-17.25-7.71C9.12,28.72,1.48,37.63,0,52.19a4.12,4.12,0,0,0,3.73,4.5h26Z"/></g><g id="shape2911-6"><path class="cls-2" d="M23.68,25.9a13.54,13.54,0,0,1-7.18-2.06L23.62,42l7.05-18A13.25,13.25,0,0,1,23.68,25.9Z"/></g><g id="shape2912-8"><ellipse class="cls-3" cx="23.68" cy="12.94" rx="13.26" ry="12.94"/></g><g id="shape2913-12"><path class="cls-4" d="M40.28,49.27h7.6v7.42h-7.6Zm-8.87-9.89H39V32h-6.5a1.07,1.07,0,0,0-1.07,1Zm1.07,17.31H39V49.27H31.41v6.34a1,1,0,0,0,1,1.08ZM31.41,48H39V40.68h-7.6Zm17.71,8.66h6.49a1,1,0,0,0,1-1V49.3H49.12ZM40.28,48h7.6V40.68h-7.6Zm8.84,0h7.6V40.68h-7.6Zm0-16.07v7.42h7.6V33a1,1,0,0,0-1-1h0Zm-8.84,7.42h7.6V32h-7.6Z"/></g></g></svg>