<svg id="Layer_1" data-name="Layer 1" xmlns="http://www.w3.org/2000/svg" xmlns:xlink="http://www.w3.org/1999/xlink" width="56.69" height="53.86" viewBox="0 0 56.69 53.86"><defs><style>.cls-1{fill:#50e6ff;}.cls-1,.cls-2,.cls-3,.cls-4,.cls-5,.cls-6,.cls-7,.cls-8{fill-rule:evenodd;}.cls-2{fill:#fff;}.cls-3{fill:url(#linear-gradient);}.cls-4{fill:#53b1e0;}.cls-5{fill:#9cebff;}.cls-6{fill:url(#linear-gradient-2);}.cls-7{fill:#ffca00;}.cls-8{fill:#ff9300;fill-opacity:0.75;}</style><linearGradient id="linear-gradient" x1="-289.89" y1="421.72" x2="-288.89" y2="421.72" gradientTransform="matrix(-16.2, -30.4, -17.07, 28.85, 2547.58, -20936.37)" gradientUnits="userSpaceOnUse"><stop offset="0" stop-color="#1988d9"/><stop offset="0.9" stop-color="#54aef0"/></linearGradient><linearGradient id="linear-gradient-2" x1="-259.58" y1="424.97" x2="-258.58" y2="424.97" gradientTransform="matrix(11.7, 19.94, 26.07, -8.95, -8005.28, 9010.79)" gradientUnits="userSpaceOnUse"><stop offset="0.1" stop-color="#54aef0"/><stop offset="0.29" stop-color="#4fabee"/><stop offset="0.51" stop-color="#41a2e9"/><stop offset="0.74" stop-color="#2a93e0"/><stop offset="0.88" stop-color="#1988d9"/></linearGradient></defs><g id="group3404-1"><g id="group3405-2"><g id="shape3406-3"><path class="cls-1" d="M3.2,29.2l24.92,16,25.37-16,3.2,3.64L28.12,51,0,32.85Z"/></g><g id="shape3407-5"><path class="cls-2" d="M5.06,27.18,28.12,0,51.66,27.21,28.12,41.91Z"/></g><g id="shape3408-7"><path class="cls-1" d="M28.12,0V41.91L5.06,27.18Z"/></g><g id="shape3409-9"><path class="cls-3" d="M28.12,0V41.91l23.54-14.7Z"/></g><g id="shape3410-13"><path class="cls-4" d="M28.12,21.63l23.54,5.58L28.12,41.91Z"/></g><g id="shape3411-15"><path class="cls-5" d="M28.12,41.91,5.06,27.18l23.06-5.55Z"/></g><g id="shape3412-17"><path class="cls-6" d="M28.12,51,56.69,32.81l-3.2-3.64-25.37,16Z"/></g><g id="shape3413-21"><path class="cls-7" d="M19.14,34.47a3.64,3.64,0,0,0,0-5.2l0,0-6.4-6.34a3.74,3.74,0,0,0-5.25,0h0l-6.4,6.34a3.71,3.71,0,0,0,0,5.23l5.35,5.29a1,1,0,0,1,.28.72V50.3a1.13,1.13,0,0,0,.39.89L9.53,53.6a.8.8,0,0,0,1.13,0l.06,0,2.34-2.31,1.41-1.4a.48.48,0,0,0,0-.67l-1-1a.52.52,0,0,1-.05-.72l.05,0,1-1a.5.5,0,0,0,0-.7l-1-1a.48.48,0,0,1-.06-.67l.06-.06,1-1a.48.48,0,0,0,0-.67L13.06,41v-.5Zm-9-10A2.09,2.09,0,1,1,8,26.51H8A2.1,2.1,0,0,1,10.11,24.42Z"/></g><g id="shape3414-23"><path class="cls-8" d="M41.16,50.68a.45.45,0,0,0,.77-.35v-8.1a.53.53,0,0,0-.19-.41.46.46,0,0,0-.63.1.48.48,0,0,0-.08.31v8a.45.45,0,0,0,.13.51Z"/></g><g id="shape3415-25"><path class="cls-8" d="M37.64,32a.57.57,0,0,0,.57.57H47.6a.58.58,0,0,0,.57-.57v-.1a.57.57,0,0,0-.58-.57H38.22a.57.57,0,0,0-.58.57Z"/></g><g id="shape3416-27"><path class="cls-8" d="M37.64,34a.56.56,0,0,0,.57.57H47.6a.57.57,0,0,0,.57-.57v-.1a.58.58,0,0,0-.58-.57H38.22a.58.58,0,0,0-.58.57Z"/></g></g></g></svg>