<svg id="Layer_1" data-name="Layer 1" xmlns="http://www.w3.org/2000/svg" xmlns:xlink="http://www.w3.org/1999/xlink" width="56.69" height="45.35" viewBox="0 0 56.69 45.35"><defs><style>.cls-1,.cls-2,.cls-3,.cls-4,.cls-5,.cls-6{fill-rule:evenodd;}.cls-1{fill:url(#linear-gradient);}.cls-2{fill:#e8e8e8;}.cls-3{fill:#50e6ff;}.cls-4{fill:#32bedd;}.cls-5{fill:url(#linear-gradient-2);}.cls-6{fill:url(#linear-gradient-3);}.cls-7{fill:none;}</style><linearGradient id="linear-gradient" x1="-267.89" y1="406.68" x2="-266.89" y2="406.68" gradientTransform="matrix(26.68, 0, 0, -26.37, 7177.37, 10741.55)" gradientUnits="userSpaceOnUse"><stop offset="0" stop-color="#005ba1"/><stop offset="0.07" stop-color="#0060a9"/><stop offset="0.36" stop-color="#0071c8"/><stop offset="0.52" stop-color="#0078d4"/><stop offset="1" stop-color="#005ba1"/></linearGradient><linearGradient id="linear-gradient-2" x1="-267.89" y1="406.68" x2="-266.89" y2="406.68" gradientTransform="matrix(26.68, 0, 0, -26.37, 7147.36, 10741.55)" xlink:href="#linear-gradient"/><linearGradient id="linear-gradient-3" x1="-267.89" y1="406.68" x2="-266.89" y2="406.68" gradientTransform="matrix(26.68, 0, 0, -26.37, 7162.37, 10756.37)" xlink:href="#linear-gradient"/></defs><g id="group3125-1"><g id="group3126-2"><g id="shape3127-3"><path class="cls-1" d="M43.35,8.35C36,8.35,30,6.48,30,4.16V26.38c0,2.26,5.87,4.12,13.17,4.15h.17c7.37,0,13.34-1.86,13.34-4.15V4.16C56.69,6.48,50.72,8.35,43.35,8.35Z"/></g><g id="shape3128-7"><path class="cls-2" d="M56.69,4.16c0,2.32-6,4.18-13.34,4.18S30,6.48,30,4.16,36,0,43.35,0,56.69,1.87,56.69,4.16Z"/></g><g id="shape3129-9"><path class="cls-3" d="M53.6,3.82C53.6,5.3,49,6.47,43.36,6.47S33.12,5.3,33.12,3.82s4.6-2.65,10.24-2.65S53.6,2.35,53.6,3.82Z"/></g><g id="shape3130-11"><path class="cls-4" d="M43.35,4.45a29.52,29.52,0,0,0-8.1,1,26.1,26.1,0,0,0,8.1,1,26.16,26.16,0,0,0,8.11-1A29.54,29.54,0,0,0,43.35,4.45Z"/></g><g id="shape3131-13"><path class="cls-5" d="M13.34,8.35C6,8.35,0,6.48,0,4.16V26.38c0,2.26,5.87,4.12,13.34,4.15s13.34-1.86,13.34-4.15V4.16C26.68,6.48,20.71,8.35,13.34,8.35Z"/></g><g id="shape3132-16"><path class="cls-2" d="M26.68,4.16c0,2.32-6,4.18-13.34,4.18S0,6.48,0,4.16,6,0,13.34,0,26.68,1.87,26.68,4.16Z"/></g><g id="shape3133-18"><path class="cls-3" d="M23.58,3.82c0,1.48-4.61,2.65-10.24,2.65S3.1,5.3,3.1,3.82,7.7,1.17,13.34,1.17,23.58,2.35,23.58,3.82Z"/></g><g id="shape3134-20"><path class="cls-4" d="M13.34,4.45a29.42,29.42,0,0,0-8.1,1,26.06,26.06,0,0,0,8.1,1,26.16,26.16,0,0,0,8.11-1A29.64,29.64,0,0,0,13.34,4.45Z"/></g><g id="shape3135-22"><path class="cls-6" d="M28.35,23.17C21,23.17,15,21.3,15,19V41.2c0,2.29,5.87,4.12,13.17,4.15h.17c7.37,0,13.34-1.86,13.34-4.15V19C41.69,21.3,35.72,23.17,28.35,23.17Z"/></g><g id="shape3136-25"><path class="cls-2" d="M41.69,19c0,2.32-6,4.18-13.34,4.18S15,21.3,15,19s6-4.16,13.34-4.16S41.69,16.69,41.69,19Z"/></g><g id="shape3137-27"><path class="cls-3" d="M38.59,18.65c0,1.48-4.61,2.65-10.24,2.65s-10.24-1.17-10.24-2.65,4.6-2.52,10.24-2.52,10.24,1.18,10.24,2.65Z"/><path class="cls-7" d="M38.59,18.65c0,1.48-4.61,2.65-10.24,2.65s-10.24-1.17-10.24-2.65,4.6-2.52,10.24-2.52,10.24,1.18,10.24,2.65"/></g><g id="shape3138-30"><path class="cls-4" d="M28.34,19.41a29.52,29.52,0,0,0-8.1,1,26.68,26.68,0,0,0,8.1.91,26.73,26.73,0,0,0,8.11-1A29.15,29.15,0,0,0,28.34,19.41Z"/></g></g></g></svg>