<svg id="Layer_1" data-name="Layer 1" xmlns="http://www.w3.org/2000/svg" width="55.97" height="55.59" viewBox="0 0 55.97 55.59"><defs><style>.cls-1{fill:#0072c6;fill-rule:evenodd;}</style></defs><g id="group2727-1"><g id="group2728-2"><g id="shape2729-3"><path class="cls-1" d="M24.89,41.45c-7.32,5-19,12.67-20.17,13.56a3.49,3.49,0,0,1-4.28-.33,3.15,3.15,0,0,1,.79-4.11c.9-.56,16.34-10.9,21.07-14.12L25,39.34A1.27,1.27,0,0,1,24.89,41.45Zm-.33-7S11,20.11,9.45,18.55s-.11-3.55.68-4.22,3.16-1.67,4.39-.45S30.87,31.11,32,32.34s1,3.11-.9,4.44c-.33.23-1.24.89-2.59,1.78a8.75,8.75,0,0,1-1.24.89s1.24-.89.34-1.89ZM34.25,25c6.09,6.45,15.55,16.56,16.57,17.56a3.38,3.38,0,0,0,4.28.56A3,3,0,0,0,55.21,39C54.54,38.23,41.8,24.78,38,20.66L34.7,22.89A1.28,1.28,0,0,0,34.25,25Zm1.35-6.56S51.94,7.21,53.75,5.88s.9-3.45.22-4.22S51.27-.68,49.8.32s-19.61,13.45-21,14.45-1.69,2.78,0,4.56c.22.33,1,1.11,2.14,2.33.11.12.56.67,1,1.12,0,0-1-1.12.12-1.89Z"/></g></g></g></svg>