<svg id="Layer_1" data-name="Layer 1" xmlns="http://www.w3.org/2000/svg" width="39.68" height="56.65" viewBox="0 0 39.68 56.65"><defs><style>.cls-1{fill:#7a7a7a;}.cls-1,.cls-2,.cls-3,.cls-4{fill-rule:evenodd;}.cls-2{fill:#fff;}.cls-3{fill:#59b4d9;}.cls-4{fill:#3999c6;}</style></defs><g id="group2720-1"><g id="group2721-2"><g id="shape2722-3"><path class="cls-1" d="M13.2,47.55H26.44V51H13.2Zm3.31,9.1H22l4-3.41H13.35Z"/></g><g id="shape2723-5"><path class="cls-2" d="M13.39,45.17a.46.46,0,0,1-.46-.45c-.19-6.1-3.48-10-6.66-13.82S.11,23.55.11,18.06C.11,6.6,7.29,0,19.82,0s19.7,6.58,19.7,18c0,5.49-3,9.06-6.15,12.84s-6.47,7.72-6.66,13.82a.45.45,0,0,1-.46.44Z"/></g><g id="shape2724-7"><path class="cls-3" d="M18.71,1.14A1.12,1.12,0,0,0,17.55,0C6.18.77,0,7.4,0,18.05,0,29.23,12.44,32.7,12.81,44.72a.57.57,0,0,0,.57.56h4.23a1.12,1.12,0,0,0,1.1-1.14Z"/></g><g id="shape2725-9"><path class="cls-4" d="M21,1.14A1.13,1.13,0,0,1,22.14,0C33.5.77,39.68,7.4,39.68,18.05c0,11.18-12.44,14.65-12.81,26.67a.57.57,0,0,1-.57.56H22.07A1.12,1.12,0,0,1,21,44.14Z"/></g><g id="shape2726-11"><path class="cls-2" d="M26.54,17.73l-1-2-5.74,2.95L14.08,15.7l-1,2,6,3.11H20.5ZM26.32,36l-1-2-5.52,2.84L14.3,34l-1,2,5.82,3H20.5ZM14.11,9.34l-.7-2.16L8.62,8.83,4.87,5a14.9,14.9,0,0,0-1.48,1.7l3.67,3.78-1.6,4.93,2.1.72L9.2,11ZM35.75,6a14,14,0,0,0-1.58-1.59L29.9,8.83,25.11,7.18l-.7,2.16L29.33,11,31,16.09l2.1-.72-1.6-4.93Zm.7,21.16-5.09-2-.43-5.05-2.2.2.46,5.32L25.33,29.2l1.48,1.7,3.85-3.57L35,29.05C35.53,28.44,36,27.82,36.45,27.18Zm-22.16,2-3.85-3.56.46-5.32-2.2-.2-.43,5.05-5.09,2c.45.64.92,1.26,1.42,1.87L9,27.33l3.86,3.57Z"/></g></g></g></svg>