<svg id="Layer_1" data-name="Layer 1" xmlns="http://www.w3.org/2000/svg" width="56.7" height="45.35" viewBox="0 0 56.7 45.35"><defs><style>.cls-1{fill:#773adc;}.cls-1,.cls-2,.cls-3,.cls-4,.cls-5,.cls-6{fill-rule:evenodd;}.cls-2{fill:#b796f9;}.cls-3{fill:#a67af4;}.cls-4{fill:#552f99;}.cls-5{fill:#50e6ff;}.cls-6{fill:#32bedd;}</style></defs><g id="group2650-1"><g id="shape2651-2"><path class="cls-1" d="M43.57,9.34V27.93L26.72,37.3V18.65Z"/></g><g id="shape2652-4"><path class="cls-2" d="M43.57,9.34,26.72,18.68,9.83,9.34,26.72,0Z"/></g><g id="shape2653-6"><path class="cls-3" d="M26.72,18.68V37.3L9.83,27.93V9.34Z"/></g><g id="shape2654-8"><path class="cls-4" d="M35.21,18.73c2.23-1.21,4-.24,4,2.18a8.28,8.28,0,0,1-4,6.56c-2.23,1.21-4,.24-4-2.18A8.29,8.29,0,0,1,35.21,18.73Z"/></g><g id="shape2655-10"><path class="cls-5" d="M46.42,25.21H36.36a1.91,1.91,0,1,1,0-3.81H46.42A6.38,6.38,0,0,0,52.8,15v0a6.38,6.38,0,0,0-6.31-6.47h-.07a2,2,0,0,1-1.88-2,2,2,0,0,1,1.88-1.77C52.25,4.84,56.86,9.43,56.7,15h0C56.85,20.47,52.25,25.06,46.42,25.21Z"/></g><g id="shape2656-12"><path class="cls-6" d="M37.73,37.42,30,30.07a.42.42,0,0,0-.58-.05l-.06.05v5.65H10.18A6.39,6.39,0,0,1,3.8,29.31v0a6.39,6.39,0,0,1,6-6.38V19.07A10.29,10.29,0,0,0,0,29.32c-.14,5.51,4.46,10.1,10.28,10.27H29.43v5.62a.44.44,0,0,0,.59,0l.05,0,7.66-7.4a.33.33,0,0,0,0-.4Z"/></g></g></svg>