<svg id="Layer_1" data-name="Layer 1" xmlns="http://www.w3.org/2000/svg" xmlns:xlink="http://www.w3.org/1999/xlink" width="56.69" height="56.69" viewBox="0 0 56.69 56.69"><defs><style>.cls-1{fill:#773adc;}.cls-1,.cls-2,.cls-3,.cls-4,.cls-5{fill-rule:evenodd;}.cls-2{fill:#b796f9;}.cls-3{fill:#a67af4;}.cls-4{fill:#198ab3;}.cls-5{fill:url(#linear-gradient);}</style><linearGradient id="linear-gradient" x1="-264.44" y1="445.66" x2="-263.44" y2="445.66" gradientTransform="matrix(0, 28.63, 27.58, 0, -12249.39, 7597.72)" gradientUnits="userSpaceOnUse"><stop offset="0" stop-color="#32d4f5"/><stop offset="1" stop-color="#198ab3"/></linearGradient></defs><g id="group2657-1"><g id="group2658-2"><g id="group2659-3"><g id="shape2660-4"><path class="cls-1" d="M22.8,13.25V39.6L0,52.85V26.45Z"/></g><g id="shape2661-6"><path class="cls-2" d="M45.59,13.25,22.8,26.49,0,13.24,22.8,0Z"/></g><g id="shape2662-8"><path class="cls-3" d="M22.79,26.49V52.85L0,39.6V13.24Z"/></g></g><g id="shape2663-10"><path class="cls-4" d="M52.43,33.57l.14.13a.24.24,0,0,0,.33,0l1.32-1.11,2.44-4a.24.24,0,0,0,0-.3l-.38-.39a.26.26,0,0,0-.33,0l-3.82,2.53L51,31.81a.25.25,0,0,0,0,.33l.15.15-7.94,8.12L41.6,38.73l-1.81,1.86a3.23,3.23,0,0,1-.85,2.59,2.86,2.86,0,0,1-2.48.9l-7.67,7.85a.5.5,0,0,0,0,.7l3.78,3.9a.5.5,0,0,0,.71,0v0l7.62-7.86a3.07,3.07,0,0,1,.91-2.59,2.9,2.9,0,0,1,2.48-.9l1.82-1.87-1.64-1.68Z"/></g><g id="shape2664-12"><path class="cls-5" d="M55.55,51.43,53.66,49.5l-12-12.36-.6-.63a6.62,6.62,0,0,0-1.57-6.58,6.23,6.23,0,0,0-5.6-1.79.25.25,0,0,0-.21.28.29.29,0,0,0,.08.14l3.15,3.19a.25.25,0,0,1,.07.23l-.85,3.28a.27.27,0,0,1-.18.18l-3.22.89a.29.29,0,0,1-.25-.07L29.36,33.1a.25.25,0,0,0-.36,0,.23.23,0,0,0-.07.14A6.58,6.58,0,0,0,30.67,39a6.17,6.17,0,0,0,6.12,1.63l.12.11.66.7,13.8,14.35a2.88,2.88,0,0,0,4,.14h0l.14-.14a3,3,0,0,0,.85-2.17A3.26,3.26,0,0,0,55.55,51.43Z"/></g></g></g></svg>