<svg id="Layer_1" data-name="Layer 1" xmlns="http://www.w3.org/2000/svg" width="56.7" height="48.2" viewBox="0 0 56.7 48.2"><defs><style>.cls-1{fill:#773adc;}.cls-1,.cls-2,.cls-3,.cls-4,.cls-5,.cls-6{fill-rule:evenodd;}.cls-2{fill:#b796f9;}.cls-3{fill:#a67af4;}.cls-4{fill:#552f99;}.cls-5{fill:#50e6ff;}.cls-6{fill:#32bedd;}</style></defs><g id="group2665-1"><g id="group2666-2"><g id="shape2667-3"><path class="cls-1" d="M43.57,9.93V29.67l-16.85,10V19.82Z"/></g><g id="shape2668-5"><path class="cls-2" d="M43.58,9.93,26.73,19.85,9.84,9.93,26.73,0Z"/></g><g id="shape2669-7"><path class="cls-3" d="M26.73,19.85V39.63l-16.89-10V9.93Z"/></g><g id="shape2670-9"><path class="cls-4" d="M35.21,19.91c2.23-1.28,4-.25,4,2.32a8.88,8.88,0,0,1-4,7c-2.23,1.29-4,.26-4-2.31A8.9,8.9,0,0,1,35.21,19.91Z"/></g><g id="shape2671-11"><path class="cls-5" d="M46.42,26.79H36.36a2,2,0,0,1,0-4.05H46.42a6.6,6.6,0,0,0,6.38-6.81v0A6.6,6.6,0,0,0,46.49,9h-.07a2,2,0,0,1,0-4A10.59,10.59,0,0,1,56.7,15.89h0A10.6,10.6,0,0,1,46.42,26.79Z"/></g><g id="shape2672-13"><path class="cls-6" d="M37.73,39.75,30,32a.41.41,0,0,0-.58-.05l-.06.05v6H10.18a6.59,6.59,0,0,1-6.38-6.8v-.08a6.64,6.64,0,0,1,6-6.77v-4A10.67,10.67,0,0,0,0,31.15,10.63,10.63,0,0,0,10.28,42.07H29.43v6a.42.42,0,0,0,.59.06l.05-.06,7.66-7.87a.35.35,0,0,0,0-.41Z"/></g></g></g></svg>