<svg id="Layer_1" data-name="Layer 1" xmlns="http://www.w3.org/2000/svg" width="48.4" height="56.69" viewBox="0 0 48.4 56.69"><defs><style>.cls-1{fill:#773adc;}.cls-1,.cls-2,.cls-3,.cls-4,.cls-5{fill-rule:evenodd;}.cls-2{fill:#b796f9;}.cls-3{fill:#a67af4;}.cls-4{fill:#32bedd;}.cls-5,.cls-6{fill:#50e6ff;}</style></defs><g id="group2639-1"><g id="group2640-2"><g id="shape2641-3"><path class="cls-1" d="M37.38,11.19V33.46L18.69,44.65V22.34L37.38,11.19Z"/></g><g id="shape2642-5"><path class="cls-2" d="M37.38,11.19,18.69,22.38,0,11.19,18.69,0,37.38,11.19Z"/></g><g id="shape2643-7"><path class="cls-3" d="M18.69,34.42V56.69L0,45.5V23.23L18.69,34.42Z"/></g><g id="shape2644-9"><path class="cls-4" d="M32.36,41.42a1.65,1.65,0,0,1,0,.31c0,.11,0,.18,0,.26l-.09.3c0,.1-.06.16-.09.24l-.15.32c-.08.15-.16.29-.25.43l0,.06c-.1.14-.2.28-.31.41l-.06.08-.42.42-.31.25-.28.22-.35.25-.37.24a10.28,10.28,0,0,1-.93.48l-.32.12-.77.3-.31.1-.51.15-.39.1-.54.12-.37.08-1.12.16-.36,0-.66,0H21.93l-.5,0-.92-.11-.44-.07-.52-.09-.41-.09-.62-.15-.33-.1-1.06-.36-.5-.21-.25-.12-.72-.38a5,5,0,0,1-2.9-4.14v4.48a5,5,0,0,0,2.9,4.14l.72.38.26.11.43.2.06,0,1.14.39.25.07.62.15.16,0,.25,0,.52.1.21,0a1.81,1.81,0,0,1,.23,0l.49.06a1.81,1.81,0,0,1,.23,0h.23l.49,0h1.42l.66,0h.35l1.12-.16h.06l.31-.07.55-.12.38-.1.51-.15.11,0,.17-.07.78-.3.31-.12.93-.47.13-.08c.09,0,.16-.11.25-.17l.35-.24.27-.22.32-.26.05,0,.36-.36.06-.08.19-.22c0-.06.09-.12.13-.19l0-.07.22-.35,0-.07a3.09,3.09,0,0,0,.14-.32l.08-.19,0-.06c0-.1,0-.2.08-.3l.06-.2v-.06l0-.32c0-.1,0-.14,0-.2V41.1l0,.32Z"/></g><g id="shape2645-11"><path class="cls-5" d="M29.48,37c3.85,2.28,3.87,6,0,8.24a15,15,0,0,1-13.89,0c-3.85-2.28-3.87-6,0-8.24a15,15,0,0,1,13.89,0Z"/></g><g id="shape2646-13"><path class="cls-4" d="M48.14,46.74a1.17,1.17,0,0,1,0,.32c0,.11,0,.17-.05.26l-.09.3c0,.09-.06.16-.09.24l-.14.32a3.18,3.18,0,0,1-.25.43l0,.06-.31.42-.06.07-.41.42a2.51,2.51,0,0,1-.32.25l-.27.23c-.09.07-.23.15-.36.23l-.37.25a8.17,8.17,0,0,1-.93.48l-.31.13-.77.3-.28.09-.51.15-.39.11-.54.11-.37.08-1.12.16-.36,0-.66,0H37.68a2.74,2.74,0,0,1-.5,0,2.42,2.42,0,0,0-.45,0l-.49-.06L35.8,52l-.52-.1-.41-.08-.62-.15-.33-.1-1.06-.37-.5-.21-.25-.11-.72-.39a5,5,0,0,1-2.9-4.14v4.48A5,5,0,0,0,31.39,55l.72.38.25.11.44.2.06,0c.35.13.7.26,1.06.36l.08,0,.25.07.62.16c.06,0,.11,0,.17,0l.25.05.52.09a1.42,1.42,0,0,1,.2,0l.24,0,.49.06.23,0h.22l.5,0H39.1c.22,0,.44,0,.67,0a1.18,1.18,0,0,0,.26,0h.08l1.12-.16h.06l.31-.07.54-.12.39-.1L43,56l.1,0,.18-.07.77-.3.31-.12a8.17,8.17,0,0,0,.93-.48l.13-.07.25-.18.35-.24.28-.22.31-.26.06,0a4,4,0,0,0,.35-.36l.06-.08.19-.22.13-.19.05-.06.21-.32,0-.08a2.37,2.37,0,0,0,.14-.32l.09-.18v-.06c0-.11.05-.21.08-.31l.06-.2v-.06c0-.1,0-.21,0-.31s0-.14,0-.21V46.49a.9.9,0,0,1,0,.28Z"/></g><g id="shape2647-15"><path class="cls-5" d="M45.24,42.31a4.39,4.39,0,0,1,2.68,5.51,4.32,4.32,0,0,1-2.64,2.73,15,15,0,0,1-13.89,0c-3.85-2.28-3.87-6,0-8.24a15,15,0,0,1,13.9,0Z"/></g><g id="shape2648-17"><path class="cls-4" d="M48.17,36.7a1.53,1.53,0,0,1,0,.3l0,.32c0,.1,0,.17-.06.25l-.08.3c0,.09-.06.16-.1.24l-.14.32a2.39,2.39,0,0,1-.25.43l0,.06-.31.42-.06.07a5.44,5.44,0,0,1-.41.42l-.31.26-.28.22-.35.24-.38.25c-.3.17-.62.33-.93.47l-.31.13-.78.3-.31.1-.5.15-.39.1-.54.12-.38.08-1.12.15-.35,0-.66,0H37.65a2.74,2.74,0,0,1-.5,0c-.17,0-.31,0-.45,0l-.5-.06-.43-.06-.52-.1-.41-.08L34.22,42l-.34-.09c-.36-.11-.71-.23-1.05-.37l-.5-.21-.26-.11-.72-.39a5,5,0,0,1-2.9-4.14v4.48a5,5,0,0,0,2.9,4.14l.72.38.25.11.45.2,0,0,1.06.36.09,0,.24.06.63.15c.05,0,.1,0,.16,0l.24.05.52.09a1.3,1.3,0,0,1,.21,0l.23,0,.49.06.24,0h.22l.49,0H39c.23,0,.45,0,.67,0a1.27,1.27,0,0,0,.27,0h.08l1.12-.16h.06l.31-.07.54-.12.39-.1.51-.15.1,0,.17-.07.78-.3.31-.12a9.25,9.25,0,0,0,.94-.48l.11-.07.26-.18.35-.24.28-.22.31-.25.06-.06a4,4,0,0,0,.35-.36l.06-.08.19-.23.13-.18,0-.07c.08-.11.15-.23.22-.35l0-.07c.06-.11.1-.21.15-.32l.08-.18v-.07c0-.1,0-.2.08-.3l.06-.2v-.05c0-.11,0-.22,0-.32s0-.14,0-.21v-.09Z"/></g><g id="shape2649-19"><ellipse class="cls-6" cx="38.34" cy="36.67" rx="5.69" ry="10.06" transform="translate(1.56 74.91) rotate(-89.84)"/></g></g></g></svg>