<svg id="Layer_1" data-name="Layer 1" xmlns="http://www.w3.org/2000/svg" width="56.7" height="51.02" viewBox="0 0 56.7 51.02"><defs><style>.cls-1{fill:#773adc;}.cls-1,.cls-2,.cls-3,.cls-4{fill-rule:evenodd;}.cls-2{fill:#b796f9;}.cls-3{fill:#a67af4;}.cls-4{fill:#32bedd;}</style></defs><g id="group2697-1"><g id="group2698-2"><g id="shape2699-3"><path class="cls-1" d="M46.15,10.31V30.82L28.42,41.1V20.58Z"/></g><g id="shape2700-5"><path class="cls-2" d="M46.15,10.3,28.42,20.61,10.69,10.3,28.42,0Z"/></g><g id="shape2701-7"><path class="cls-3" d="M28.42,20.61V41.1L10.69,30.82V10.31Z"/></g><g id="shape2702-9"><path class="cls-1" d="M19.05,20.89c-2.32-1.31-4.21-.25-4.21,2.4a9.13,9.13,0,0,0,4.21,7.22c2.3,1.34,4.21.28,4.21-2.38A9.37,9.37,0,0,0,19.05,20.89Z"/></g><g id="shape2703-11"><path class="cls-4" d="M56.58,42.22,48.44,34.1a.44.44,0,0,0-.62,0l0,0v6.25H10.56a6.25,6.25,0,1,1,0-12.5h7.51a2.13,2.13,0,0,0,2.11-2.12,2.1,2.1,0,0,0-2.11-2.09H10.56a10.5,10.5,0,1,0,0,21H47.65v6.24a.44.44,0,0,0,.62,0l0,0,8.27-8.09a.4.4,0,0,0,0-.56Z"/></g></g></g></svg>