<svg id="Layer_1" data-name="Layer 1" xmlns="http://www.w3.org/2000/svg" width="56.7" height="56.69" viewBox="0 0 56.7 56.69"><defs><style>.cls-1{fill:#773adc;}.cls-1,.cls-10,.cls-11,.cls-12,.cls-13,.cls-14,.cls-15,.cls-2,.cls-3,.cls-4,.cls-5,.cls-6,.cls-7,.cls-8,.cls-9{fill-rule:evenodd;}.cls-2{fill:#552f99;}.cls-3{fill:#b796f9;}.cls-4{fill:#a67af4;}.cls-5{fill:#5e9624;}.cls-6{fill:#76bc2d;}.cls-7{fill:#32bedd;}.cls-8{fill:#258277;}.cls-9{fill:#37c2b1;}.cls-10{fill:#d15900;}.cls-11{fill:#f78d1e;}.cls-12{fill:#207067;}.cls-13{fill:#ffb34d;}.cls-14{fill:#42e8ca;}.cls-15{fill:#b4ec36;}</style></defs><g id="group2673-1"><g id="group2674-2"><g id="shape2675-3"><path class="cls-1" d="M38.33,6.08V18.25L28,24.34V12.17Z"/></g><g id="shape2676-5"><path class="cls-2" d="M33.82,12.53c1.42-.85,2.26-.28,2.26,1.4a5.66,5.66,0,0,1-2.26,3.94c-1.13.84-2.25.28-2.25-1.41A5.67,5.67,0,0,1,33.82,12.53Z"/></g><g id="shape2677-7"><path class="cls-3" d="M38.33,6.08,28,12.17,17.39,6.08,28,0Z"/></g><g id="shape2678-9"><path class="cls-4" d="M28,12.17V24.34L17.39,18.25V6.08Z"/></g><g id="shape2679-11"><path class="cls-1" d="M22.28,12.49c-1.29-.64-2.58,0-2.58,1.28a4.63,4.63,0,0,0,2.58,4.17c1.29.64,2.57,0,2.57-1.28A5.28,5.28,0,0,0,22.28,12.49Z"/></g><g id="shape2680-13"><path class="cls-5" d="M56.7,22.1V34.27L46.39,40.36V28.19Z"/></g><g id="shape2681-15"><path class="cls-6" d="M46.39,28.19V40.36L36.08,34.27V22.1Z"/></g><g id="shape2682-17"><path class="cls-5" d="M41.56,29.14c-1.29-.64-2.58,0-2.58,1.28a4.58,4.58,0,0,0,2.58,4.17c1.29.64,2.57,0,2.57-1.28A5.29,5.29,0,0,0,41.56,29.14Z"/></g><g id="group2683-19"><g id="shape2684-20"><path class="cls-7" d="M41.67,19a16.6,16.6,0,0,0-6.24-4.56,1.67,1.67,0,0,0-2.2.84.61.61,0,0,0,0,.12A1.42,1.42,0,0,0,34,17.23a.64.64,0,0,0,.18.06,13.85,13.85,0,0,1,4.7,3.26Z"/></g><g id="shape2685-22"><path class="cls-7" d="M41.66,25.39c.06.19.16.36.21.55l.39-.19Z"/></g></g><g id="shape2686-24"><path class="cls-8" d="M20.94,22.74V34.59L10.31,40.68V28.83Z"/></g><g id="shape2687-26"><path class="cls-9" d="M10.31,44.84V56.69L0,50.6V38.75Z"/></g><g id="shape2688-28"><path class="cls-7" d="M23.19,15.37a2.17,2.17,0,0,0-2.58-1,21.24,21.24,0,0,0-6,4.72L18,21.07a15,15,0,0,1,4.19-3.14A2.13,2.13,0,0,0,23.19,15.37Z"/></g><g id="shape2689-30"><path class="cls-10" d="M39.3,38.43V50.6L29,56.69V44.52Z"/></g><g id="shape2690-32"><path class="cls-11" d="M29,44.52V56.69L18.68,50.6V38.43Z"/></g><g id="shape2691-34"><path class="cls-7" d="M41.88,31.7a1.7,1.7,0,0,0-2.38.06,1.64,1.64,0,0,0-.2.26A17,17,0,0,1,35,35.88l3.11,1.84a19.07,19.07,0,0,0,4.1-3.45,1.66,1.66,0,0,0-.05-2.36A2.47,2.47,0,0,0,41.88,31.7Z"/></g><g id="shape2692-36"><path class="cls-12" d="M16.15,29c1.46-.8,2.53-.13,2.53,1.46a5.81,5.81,0,0,1-2.53,4.38c-1.47.8-2.54.13-2.54-1.46A5.41,5.41,0,0,1,16.15,29Z"/></g><g id="shape2693-38"><path class="cls-7" d="M23.26,35.73a13.86,13.86,0,0,1-5.23-4,1.71,1.71,0,0,0-2.36-.49l-.21.17A1.68,1.68,0,0,0,15,33.73a1.77,1.77,0,0,0,.16.22,18.08,18.08,0,0,0,4.45,4Z"/></g><g id="shape2694-40"><path class="cls-13" d="M39.3,38.43,29,44.52,18.68,38.43,29,32.35Z"/></g><g id="shape2695-42"><path class="cls-14" d="M20.94,22.74,10.31,28.83,0,22.74l10.31-6.08Z"/></g><g id="shape2696-44"><path class="cls-15" d="M56.7,22.1,46.39,28.18,36.08,22.1l10.31-5.77Z"/></g></g></g></svg>