<svg id="Layer_1" data-name="Layer 1" xmlns="http://www.w3.org/2000/svg" xmlns:xlink="http://www.w3.org/1999/xlink" width="39.69" height="56.7" viewBox="0 0 39.69 56.7"><defs><style>.cls-1{fill:#773adc;}.cls-1,.cls-2,.cls-3,.cls-4,.cls-5{fill-rule:evenodd;}.cls-2{fill:#b796f9;}.cls-3{fill:#a67af4;}.cls-4{fill:#fff;}.cls-5{fill:url(#linear-gradient);}</style><linearGradient id="linear-gradient" x1="-302.12" y1="413.94" x2="-301.12" y2="413.94" gradientTransform="matrix(-0.13, -19.5, -21.66, 0.11, 8938.4, -5881.73)" gradientUnits="userSpaceOnUse"><stop offset="0" stop-color="#32bedd"/><stop offset="0.36" stop-color="#34c1e0"/><stop offset="0.63" stop-color="#3ccbe8"/><stop offset="0.88" stop-color="#48dbf6"/><stop offset="1" stop-color="#50e6ff"/></linearGradient></defs><g id="group2704-1"><g id="group2705-2"><g id="shape2706-3"><path class="cls-1" d="M19.84,23.66,39.68,11.85V35.41L19.84,47.25Z"/></g><g id="shape2707-5"><path class="cls-2" d="M19.84,0,39.69,11.85,19.84,23.69,0,11.85Z"/></g><g id="shape2708-7"><path class="cls-3" d="M0,11.85,19.84,23.69V47.25L0,35.41Z"/></g><g id="shape2709-9"><path class="cls-4" d="M28.76,28.35,20,19.28a.46.46,0,0,0-.65,0l-8.8,9.07a.46.46,0,0,0,0,.63.45.45,0,0,0,.35.13h5.16a.47.47,0,0,1,.47.48h0V37.8a.48.48,0,0,0,.43.48H22.4a.45.45,0,0,0,.52-.4.17.17,0,0,0,0-.07V29.45a.47.47,0,0,1,.43-.47h5.15a.44.44,0,0,0,.28-.55l0-.08Z"/></g><g id="group2710-11"><g id="shape2711-12"><path class="cls-5" d="M0,55.53A1.16,1.16,0,0,0,1.14,56.7H20.52a1.16,1.16,0,0,0,1.14-1.17h0V38.37a1.15,1.15,0,0,0-1.14-1.17H1.14A1.15,1.15,0,0,0,0,38.37H0Z"/></g><g id="shape2712-16"><path class="cls-4" d="M8.3,51.35,4,46.9l4.26-4.34a.31.31,0,0,0,0-.44l-.68-.7a.35.35,0,0,0-.43,0l-4.94,5a.71.71,0,0,0,0,.69.81.81,0,0,0,0,.22l5,5.11a.3.3,0,0,0,.43,0l.68-.69a.31.31,0,0,0,0-.44Z"/></g><g id="shape2713-18"><path class="cls-4" d="M20.34,46.46l-4.91-5a.36.36,0,0,0-.44,0l-.67.7a.31.31,0,0,0,0,.44l4.23,4.34-4.38,4.45a.31.31,0,0,0,0,.44l.68.69a.3.3,0,0,0,.43,0l5.06-5.23a.65.65,0,0,0,0-.79Z"/></g></g></g></g></svg>