<svg id="Layer_1" data-name="Layer 1" xmlns="http://www.w3.org/2000/svg" width="56.69" height="53.85" viewBox="0 0 56.69 53.85"><defs><style>.cls-1{fill:#59b4d9;}.cls-1,.cls-2,.cls-3{fill-rule:evenodd;}.cls-2{fill:#fff;fill-opacity:0.7;}.cls-3{fill:#0072c6;}</style></defs><g id="group2629-1"><g id="group2630-2"><g id="shape2631-3"><path class="cls-1" d="M50.08,52.63c-.57,0,0,.11-.47,0V46.81H7.09c-.25,0-5.91-.05-5.91-4.69V5.74c0-3.14,2.76-4.57,5.31-4.57s5.32,1.43,5.32,4.57V6.92H45c6.39,0,10.51,1.91,10.51,8.33V49.16C55.51,51.79,53.12,52.63,50.08,52.63Z"/></g><g id="shape2632-5"><path class="cls-2" d="M50.08,52.63c-.57,0,0,.11-.47,0V46.81H7.09c-.25,0-5.91-.05-5.91-4.69V5.74c0-3.14,2.76-4.57,5.31-4.57s5.32,1.43,5.32,4.57V6.92H45c6.39,0,10.51,1.91,10.51,8.33V49.16C55.51,51.79,53.12,52.63,50.08,52.63Z"/></g><g id="shape2633-7"><path class="cls-3" d="M45,5.75H13C13,2.23,10,0,6.5,0S0,2.23,0,5.75V41c0,5.86,3.54,7,7.09,7H48.43v5.86s8.26,0,8.26-5.86V15.25C56.69,8.21,53.15,5.75,45,5.75Zm9.33,42.47a9.75,9.75,0,0,0-7-2.58H7.09c-2.37,0-4.73-.59-4.73-4.11,0-2,1.54-4.1,4.73-4.1,3.54,0,5.78,3.52,5.78,3.52H13V8.09H46.18c4.73,0,8.15,1.29,8.15,6Z"/></g><g id="shape2634-9"><path class="cls-3" d="M41.33,35l1.78,4.69L44.88,35Zm0-16.42h3.55V32.68H41.33Zm1.78-5.75a1.73,1.73,0,0,1,1.77,1.69l0,1.71-3.52,0V14.54A1.73,1.73,0,0,1,43.11,12.85ZM27.16,11.67c.65,0,1.18.76,1.18,1.7l0,1.7L26,15V13.37C26,12.43,26.51,11.67,27.16,11.67Z"/></g><g id="shape2635-11"><path class="cls-3" d="M27.17,14A4.58,4.58,0,1,0,27,23.17h.21a4.58,4.58,0,0,0,0-9.15Zm0,8a3.4,3.4,0,1,1,3.42-3.4A3.42,3.42,0,0,1,27.17,22Z"/></g><g id="shape2636-13"><path class="cls-3" d="M27.17,22V19.77L25,21.3,20.22,35.81l-.34,4.82,2.58-4.1h0L27.21,22Z"/></g><g id="shape2637-15"><path class="cls-3" d="M34.11,35.81,29.37,21.3l-2.21-1.53V22l0,0,4.74,14.5h0l2.58,4.1Z"/></g><g id="shape2638-17"><path class="cls-3" d="M36.62,30.33H17.72a.59.59,0,1,1,0-1.18H36.62a.57.57,0,0,1,.58.58.58.58,0,0,1-.58.59Z"/></g></g></g></svg>