<svg id="Layer_1" data-name="Layer 1" xmlns="http://www.w3.org/2000/svg" xmlns:xlink="http://www.w3.org/1999/xlink" width="62.06" height="62.06" viewBox="0 0 62.06 62.06"><defs><style>.cls-1,.cls-4{fill-rule:evenodd;}.cls-1{fill:url(#radial-gradient);}.cls-2{fill:#fff;}.cls-3,.cls-4{fill:#32bedd;}</style><radialGradient id="radial-gradient" cx="-269.83" cy="422.99" r="1.4" gradientTransform="matrix(62.06, 0, 0, -62.06, 16745.22, 26250.14)" gradientUnits="userSpaceOnUse"><stop offset="0.67" stop-color="#6bb9f2"/><stop offset="0.74" stop-color="#61b4f1"/><stop offset="0.85" stop-color="#47a8ef"/><stop offset="0.99" stop-color="#1d94eb"/><stop offset="1" stop-color="#1b93eb"/></radialGradient></defs><g id="group2621-1"><g id="group2622-2"><g id="shape2623-3"><path class="cls-1" d="M31,0a31,31,0,1,0,31,31A31,31,0,0,0,31,0Z"/></g><g id="shape2624-7"><circle class="cls-2" cx="31.03" cy="31.03" r="25.66"/></g><g id="shape2625-9"><circle class="cls-3" cx="25.37" cy="31.03" r="2.81"/></g><g id="shape2626-11"><path class="cls-4" d="M17.38,23H16a1.06,1.06,0,0,0-1.06,1.06h0V44.93a2.16,2.16,0,0,0,2.15,2.16H37.42A1.05,1.05,0,0,0,38.48,46V44.61a1.06,1.06,0,0,0-1.06-1.06H19.16a.51.51,0,0,1-.51-.51v-19a1.06,1.06,0,0,0-1-1.08Z"/></g><g id="shape2627-13"><circle class="cls-3" cx="36.69" cy="31.03" r="2.81"/></g><g id="shape2628-15"><path class="cls-4" d="M43.51,15H24.57A1.06,1.06,0,0,0,23.51,16v1.43a1.06,1.06,0,0,0,1.06,1.06H42.82a.55.55,0,0,1,.55.55h0V38a1.06,1.06,0,0,0,1.06,1.06h1.38A1.05,1.05,0,0,0,46.87,38h0V17.12A2.15,2.15,0,0,0,44.76,15Z"/></g></g></g></svg>