<svg id="Layer_1" data-name="Layer 1" xmlns="http://www.w3.org/2000/svg" width="53.03" height="56.69" viewBox="0 0 53.03 56.69"><defs><style>.cls-1{fill:#ff8c00;}.cls-2,.cls-3,.cls-4{fill:#57a300;}.cls-2{fill-opacity:0.2;}.cls-4{fill-rule:evenodd;}</style></defs><g id="group2606-1"><g id="group2607-2"><g id="shape2608-3"><ellipse class="cls-1" cx="19.45" cy="3.23" rx="3.19" ry="3.23"/></g><g id="shape2609-5"><ellipse class="cls-1" cx="3.19" cy="53.47" rx="3.19" ry="3.23"/></g><g id="shape2610-7"><ellipse class="cls-1" cx="4.28" cy="16.35" rx="3.19" ry="3.23"/></g><g id="shape2611-9"><ellipse class="cls-1" cx="9.7" cy="7.6" rx="3.19" ry="3.23"/></g><g id="shape2612-11"><ellipse class="cls-2" cx="19.45" cy="3.23" rx="3.19" ry="3.23"/></g><g id="shape2613-13"><ellipse class="cls-2" cx="3.19" cy="53.47" rx="3.19" ry="3.23"/></g><g id="shape2614-15"><ellipse class="cls-2" cx="4.28" cy="16.35" rx="3.19" ry="3.23"/></g><g id="shape2615-17"><ellipse class="cls-2" cx="9.7" cy="7.6" rx="3.19" ry="3.23"/></g><g id="shape2616-19"><ellipse class="cls-3" cx="27.03" cy="11.98" rx="2.44" ry="2.46"/></g><g id="shape2617-21"><ellipse class="cls-3" cx="27.03" cy="42.61" rx="2.44" ry="2.46"/></g><g id="shape2618-23"><path class="cls-4" d="M35.58,32.23c0,3.71-3.64,6.4-8.66,6.4-4.41,0-7.18-1.68-8.45-5.13l4.31-.82a4.52,4.52,0,0,0,4.5,2.6C30,35.28,31,33.64,31,32.6c0-2.15-2.57-2.9-3.68-3.12-4.7-.95-8-2-8-7.47,0-4.46,4.11-6.05,7.63-6.05,3.85,0,6.35,1.29,7.65,3.93l-3.72,1.19A4.22,4.22,0,0,0,27,19c-2.55,0-3.23,1.78-3.23,2.72C23.75,23,25,24.18,27,24.64a38.34,38.34,0,0,1,5.24,1.46C33.86,26.78,35.58,28.75,35.58,32.23Z"/></g><g id="shape2619-25"><path class="cls-4" d="M50.25,15.79A27.65,27.65,0,0,0,27,1V5.14A23.6,23.6,0,0,1,46.54,17.67a22.1,22.1,0,0,1-9.63,29.52C27.48,52,15.46,48.68,9.07,40.46L5.65,42.91c7.56,9.9,21.82,13.78,33.13,8A26.28,26.28,0,0,0,50.25,15.79Z"/></g><g id="shape2620-27"><path class="cls-4" d="M2.72,47.69l1.1-13.13,11.39,4.17Z"/></g></g></g></svg>