<svg id="Layer_1" data-name="Layer 1" xmlns="http://www.w3.org/2000/svg" xmlns:xlink="http://www.w3.org/1999/xlink" width="45.62" height="34.02" viewBox="0 0 45.62 34.02"><defs><style>.cls-1{fill:#b3b3b3;}.cls-1,.cls-2,.cls-3,.cls-4{fill-rule:evenodd;}.cls-2{fill:#a3a3a3;}.cls-3{fill:#7a7a7a;}.cls-4{fill:url(#linear-gradient);}</style><linearGradient id="linear-gradient" x1="-266.89" y1="418.86" x2="-265.89" y2="418.86" gradientTransform="matrix(0, 34.02, 45.35, 0, -18972.47, 9080.61)" gradientUnits="userSpaceOnUse"><stop offset="0.18" stop-color="#5ea0ef"/><stop offset="1" stop-color="#0078d4"/></linearGradient></defs><g id="group2600-1"><g id="group2601-2"><g id="shape2602-3"><path class="cls-1" d="M20.65,15.85a1.67,1.67,0,0,0,1.69-1.64h0v-.44a1.66,1.66,0,0,0-1.69-1.64H6.93a1.65,1.65,0,0,0-1.7,1.63h0v.44a1.67,1.67,0,0,0,1.69,1.64H20.65Z"/></g><g id="shape2603-5"><path class="cls-2" d="M15.42,23.62A1.66,1.66,0,0,0,17.11,22h0v-.44a1.67,1.67,0,0,0-1.69-1.64H1.7A1.67,1.67,0,0,0,0,21.53H0V22a1.66,1.66,0,0,0,1.69,1.64H15.42Z"/></g><g id="shape2604-7"><path class="cls-3" d="M20.65,31.39a1.66,1.66,0,0,0,1.69-1.64h0v-.44a1.67,1.67,0,0,0-1.69-1.64H6.93a1.67,1.67,0,0,0-1.7,1.63h0v.44a1.66,1.66,0,0,0,1.69,1.64H20.65Z"/></g><g id="shape2605-9"><path class="cls-4" d="M45.62,23.35A10.55,10.55,0,0,0,36.77,13,13.2,13.2,0,0,0,23.51,0,13.36,13.36,0,0,0,10.92,9.11,12.51,12.51,0,0,0,.27,21.47,12.79,12.79,0,0,0,13.06,34H35.45A10.63,10.63,0,0,0,45.62,23.35Z"/></g></g></g></svg>