<svg id="Layer_1" data-name="Layer 1" xmlns="http://www.w3.org/2000/svg" xmlns:xlink="http://www.w3.org/1999/xlink" width="56.69" height="56.69" viewBox="0 0 56.69 56.69"><defs><style>.cls-1{fill:#76bc2d;}.cls-1,.cls-6,.cls-7{fill-rule:evenodd;}.cls-2{fill:url(#linear-gradient);}.cls-3{fill:url(#linear-gradient-2);}.cls-4{fill:url(#linear-gradient-3);}.cls-5{fill:url(#linear-gradient-4);}.cls-6{fill:#0078d4;}.cls-7{fill:#fff;}</style><linearGradient id="linear-gradient" x1="-304.07" y1="400.42" x2="-303.07" y2="400.42" gradientTransform="matrix(1.07, -11.35, -11.29, -1.07, 4865.85, -2980.54)" gradientUnits="userSpaceOnUse"><stop offset="0" stop-color="#5e9624"/><stop offset="0.82" stop-color="#86d633"/></linearGradient><linearGradient id="linear-gradient-2" x1="-305.98" y1="402.75" x2="-304.98" y2="402.75" gradientTransform="matrix(0.12, -11.4, -11.34, -0.13, 4640.95, -3381.73)" xlink:href="#linear-gradient"/><linearGradient id="linear-gradient-3" x1="-304.15" y1="400.5" x2="-303.15" y2="400.5" gradientTransform="matrix(1.03, -11.35, -11.29, -1.04, 4887.45, -2998.96)" xlink:href="#linear-gradient"/><linearGradient id="linear-gradient-4" x1="-304.15" y1="400.5" x2="-303.15" y2="400.5" gradientTransform="matrix(1.03, -11.35, -11.29, -1.04, 4842.1, -2980.45)" xlink:href="#linear-gradient"/></defs><g id="group2591-1"><g id="group2592-2"><g id="shape2593-3"><path class="cls-1" d="M7,53.5,3.43,50.35,20.71,30.91,35.42,46.13,49.3,31.35l3.43,3.25L35.45,53,20.88,37.85Z"/></g><g id="shape2594-5"><ellipse class="cls-2" cx="20.78" cy="34.42" rx="5.67" ry="5.7"/></g><g id="shape2595-9"><ellipse class="cls-3" cx="35.42" cy="49.1" rx="5.67" ry="5.7"/></g><g id="shape2596-13"><ellipse class="cls-4" cx="51.02" cy="32.48" rx="5.67" ry="5.7"/></g><g id="shape2597-17"><ellipse class="cls-5" cx="5.67" cy="50.99" rx="5.67" ry="5.7"/></g><g id="shape2598-21"><path class="cls-6" d="M45.62,25.88,35,36.67,24.31,25.88A15,15,0,0,1,24,4.79h0l.29-.28a14.85,14.85,0,0,1,21.08-.22h0l.22.22a15,15,0,0,1,.19,21.19Z"/></g><g id="shape2599-23"><path class="cls-7" d="M25.88,12.22a9.68,9.68,0,0,0,1,7.51,9.12,9.12,0,0,0,1.74,2.13,9.77,9.77,0,0,0,2.19,1.58,11.21,11.21,0,0,0,2.54.87,9,9,0,0,0,2.74,0l-.24-2.62a.57.57,0,0,0-.53-.49,6.37,6.37,0,0,1-1.38,0,7.78,7.78,0,0,1-1.7-.59,6.32,6.32,0,0,1-1.5-1.05,6,6,0,0,1-1.18-1.47,5.81,5.81,0,0,1-.84-2.38,6.62,6.62,0,0,1,0-2.51l.91,1.5a.56.56,0,0,0,.73,0l1.22-.31a.57.57,0,0,0,.17-.74l-3-4.92a.56.56,0,0,0-.67-.34l-5.07,3a.54.54,0,0,0,0,.73l.62,1.09a.56.56,0,0,0,.73.21ZM36.41,8.48a5.85,5.85,0,0,1,1.7.6,6.32,6.32,0,0,1,2.67,2.48A6.42,6.42,0,0,1,41.62,14a7.28,7.28,0,0,1,0,2.55L40.75,15a.56.56,0,0,0-.73-.23L39,15.46a.53.53,0,0,0-.23.71v0l3,5.06a.52.52,0,0,0,.7.22h0l5-3a.55.55,0,0,0,0-.74l-.62-1.08a.57.57,0,0,0-.74,0l-1.73,1.05a9.62,9.62,0,0,0,.27-3.85,9.09,9.09,0,0,0-1.25-3.69A9.37,9.37,0,0,0,41.74,8a11,11,0,0,0-2.23-1.54A8.89,8.89,0,0,0,37,5.57a9.35,9.35,0,0,0-2.15-.34.55.55,0,0,0-.49.59V7.89a.56.56,0,0,0,.52.49A5.86,5.86,0,0,1,36.41,8.48Z"/></g></g></g></svg>