<svg id="Layer_1" data-name="Layer 1" xmlns="http://www.w3.org/2000/svg" width="56.69" height="56.69" viewBox="0 0 56.69 56.69"><defs><style>.cls-1{fill-rule:evenodd;}</style></defs><g id="group2587-1"><g id="group2588-2"><g id="shape2589-3"><path class="cls-1" d="M44.35,56.65A12.37,12.37,0,0,1,34.13,51.2a6.91,6.91,0,0,0-11.52,0A12.32,12.32,0,1,1,5.49,34.12a6.91,6.91,0,0,0,0-11.52A12.32,12.32,0,0,1,12.34,0,12.38,12.38,0,0,1,22.57,5.48a6.87,6.87,0,0,0,5.76,3.1,7,7,0,0,0,5.76-3.1A12.32,12.32,0,1,1,51.21,22.56a6.9,6.9,0,0,0,0,11.52,12.32,12.32,0,0,1-6.86,22.57Zm-16-11.87a10.22,10.22,0,0,1,8.5,4.54,9,9,0,1,0,12.5-12.5,10.32,10.32,0,0,1-4.59-8.54,10.21,10.21,0,0,1,4.55-8.5,9,9,0,0,0-5-16.49,9,9,0,0,0-7.48,4,10.3,10.3,0,0,1-8.5,4.59,10.28,10.28,0,0,1-8.51-4.55A9,9,0,1,0,7.33,19.82a10.29,10.29,0,0,1,4.58,8.5,10.2,10.2,0,0,1-4.54,8.5,9,9,0,0,0,5,16.5,9,9,0,0,0,7.48-4A10.22,10.22,0,0,1,28.37,44.78Z"/></g><g id="shape2590-5"><path class="cls-1" d="M28.36,42.47a9.89,9.89,0,0,1-6.93-2.82l-4.27-4.23a10,10,0,0,1-.08-14l4.23-4.27a10,10,0,0,1,14-.08l4.27,4.23a9.76,9.76,0,0,1,2.94,7,9.94,9.94,0,0,1-2.86,7l-4.23,4.27A9.94,9.94,0,0,1,28.36,42.47Zm0-25a6.67,6.67,0,0,0-4.7,1.92l-4.19,4.31a6.65,6.65,0,0,0,0,9.33l4.27,4.23a6.66,6.66,0,0,0,9.33,0L37.3,33a6.55,6.55,0,0,0,1.92-4.67,6.42,6.42,0,0,0-2-4.62L33,19.47A6.46,6.46,0,0,0,28.32,17.51Z"/></g></g></g></svg>