<svg id="Layer_1" data-name="Layer 1" xmlns="http://www.w3.org/2000/svg" xmlns:xlink="http://www.w3.org/1999/xlink" width="56.69" height="46.7" viewBox="0 0 56.69 46.7"><defs><style>.cls-1{fill:none;stroke:#fea11b;stroke-width:2.68px;}.cls-1,.cls-3,.cls-4{stroke-miterlimit:3;}.cls-2{fill-rule:evenodd;fill:url(#linear-gradient);}.cls-3,.cls-4{stroke:#000;}.cls-3{stroke-width:3.23px;}.cls-4{stroke-width:2.76px;}</style><linearGradient id="linear-gradient" x1="-286.06" y1="427.53" x2="-285.06" y2="427.53" gradientTransform="matrix(-0.03, -37.93, -56.69, 0.02, 24255.99, -10812.56)" gradientUnits="userSpaceOnUse"><stop offset="0" stop-color="#0078d4"/><stop offset="0.07" stop-color="#0a7cd7"/><stop offset="0.34" stop-color="#2e8ce1"/><stop offset="0.6" stop-color="#4897e9"/><stop offset="0.82" stop-color="#589eed"/><stop offset="1" stop-color="#5ea0ef"/></linearGradient></defs><g id="group2578-1"><g id="group2579-2"><g id="shape2580-3"><ellipse class="cls-1" cx="28.95" cy="12.75" rx="10.63" ry="11.41"/></g><g id="shape2581-5"><path class="cls-2" d="M49.91,24.64c0-.5.07-1,.07-1.5A14.55,14.55,0,0,0,35.28,8.77a14.77,14.77,0,0,0-11.94,6,11.17,11.17,0,0,0-5.88-1.64A11,11,0,0,0,6.35,24l0,.87C2.23,26.94,0,30.37,0,34.67c0,6.75,5.57,12,12.67,12H44c7.11,0,12.67-5.28,12.67-12C56.69,30.21,54.25,26.64,49.91,24.64Z"/></g><g id="shape2582-9"><ellipse class="cls-3" cx="28.8" cy="26.16" rx="2.5" ry="2.48"/></g><g id="shape2583-11"><rect class="cls-4" x="26.69" y="33.8" width="4.3" height="11.21"/></g></g></g></svg>