<svg id="Layer_1" data-name="Layer 1" xmlns="http://www.w3.org/2000/svg" width="56.69" height="48.19" viewBox="0 0 56.69 48.19"><defs><style>.cls-1{fill:#59b4d9;}.cls-1,.cls-2,.cls-3{fill-rule:evenodd;}.cls-2{fill:#fff;}.cls-3{fill:#b8d432;}</style></defs><g id="group2573-1"><g id="group2574-2"><g id="shape2575-3"><path class="cls-1" d="M49.14,16.64a14.28,14.28,0,0,0,.33-3,13.64,13.64,0,0,0-25.9-6A9.8,9.8,0,0,0,6.84,14.59a10.16,10.16,0,0,0,.25,2.23A10.76,10.76,0,0,0,0,27,11.12,11.12,0,0,0,11.47,38h.73a10.39,10.39,0,0,0,19.46,4.88,7.53,7.53,0,0,0,4.94,1.85A7.62,7.62,0,0,0,44.14,38h1.09A11.12,11.12,0,0,0,56.69,27,10.79,10.79,0,0,0,49.14,16.64Z"/></g><g id="shape2576-5"><path class="cls-2" d="M44.72,21.79l.83-2-.24-.21L43.49,18V16.41l2-1.84-.8-2-.32,0L42,12.78l-1.13-1.14.16-2.76-2-.84-.21.24-1.58,1.83h-1.6l-1.84-2-2,.8,0,.32.17,2.41-1.14,1.13-2.75-.15-.84,2,.24.2,1.83,1.59v1.6l-2.06,1.84.81,2,.32,0,2.41-.17L32,22.71l-.15,2.76,2,.83.21-.24,1.58-1.82H37.2L39,26.3l2-.8,0-.32-.17-2.42L42,21.64Zm-10-.57A4.4,4.4,0,0,1,37.91,13l.23.1a4.4,4.4,0,0,1-3.41,8.1ZM32.16,31.73V29.58l-.31-.09-2.29-.76L29,27.25l1.18-2.49-1.52-1.52-.28.14-2.16,1.1-1.48-.62-.92-2.6H21.62l-.1.3-.75,2.3-1.48.61L16.8,23.29l-1.51,1.52.14.29,1.09,2.16-.61,1.47-2.6.93v2.15l.3.1,2.3.75.61,1.49-1.18,2.49,1.52,1.52.28-.14,2.16-1.1,1.47.61.93,2.6h2.14l.1-.31.76-2.3,1.47-.61,2.49,1.18,1.52-1.51L30,36.3,29,34.14l.61-1.48ZM22.73,35.1a4.4,4.4,0,1,1,4.4-4.39A4.39,4.39,0,0,1,22.73,35.1Z"/></g><g id="shape2577-7"><path class="cls-3" d="M39.06,18.29a2.85,2.85,0,0,1-5.26-2.2v0a2.85,2.85,0,0,1,5.25,2.22ZM25.58,30.7a2.85,2.85,0,1,1-2.85-2.86,2.85,2.85,0,0,1,2.85,2.86Z"/></g></g></g></svg>