<svg id="Layer_1" data-name="Layer 1" xmlns="http://www.w3.org/2000/svg" width="56.69" height="56.69" viewBox="0 0 56.69 56.69"><defs><style>.cls-1{fill:#e4e4e4;}.cls-1,.cls-2,.cls-3{fill-rule:evenodd;}.cls-2{fill:#81ba33;}.cls-3{fill:#486385;}</style></defs><g id="group2539-1"><g id="group2540-2"><g id="shape2541-3"><path class="cls-1" d="M0,54.33a2.36,2.36,0,0,0,2.36,2.36h52a2.36,2.36,0,0,0,2.36-2.36v-52A2.36,2.36,0,0,0,54.33,0h-52A2.36,2.36,0,0,0,0,2.36Z"/></g><g id="shape2542-5"><path class="cls-2" d="M31.19,41a13.5,13.5,0,0,1-1.34.83,15,15,0,0,1-2.18,1,21.9,21.9,0,0,1-3.1.81,21.35,21.35,0,0,1-4,.34,18.66,18.66,0,0,1-6-1,14.12,14.12,0,0,1-5-2.86,13.7,13.7,0,0,1-3.39-4.75,16.34,16.34,0,0,1-1.25-6.61A16.68,16.68,0,0,1,6.1,22.18a13.85,13.85,0,0,1,3.31-4.83,14.22,14.22,0,0,1,4.92-3,17.3,17.3,0,0,1,6.08-1,21.26,21.26,0,0,1,3.14.21,16.11,16.11,0,0,1,2.48.55,15.39,15.39,0,0,1,1.85.72c.51.26.92.48,1.23.68A4.77,4.77,0,0,1,30.51,17a3.38,3.38,0,0,1,.42,1.63,3.62,3.62,0,0,1-.32,1.53,6.16,6.16,0,0,1-.76,1.29,7.57,7.57,0,0,1-.89,1,4.43,4.43,0,0,1-.74.57c-.29-.29-.65-.62-1.09-1a7.57,7.57,0,0,0-1.58-1,12.62,12.62,0,0,0-2.15-.8,9.75,9.75,0,0,0-2.69-.34,9,9,0,0,0-3.39.61,7.69,7.69,0,0,0-2.65,1.78A8.08,8.08,0,0,0,12.93,25a10.71,10.71,0,0,0-.62,3.74A9.62,9.62,0,0,0,13,32.47a7.56,7.56,0,0,0,1.87,2.69,7.75,7.75,0,0,0,2.82,1.63,11,11,0,0,0,3.54.56,12.42,12.42,0,0,0,4.09-.6,10,10,0,0,0,2.61-1.23L31.1,41Z"/></g><g id="shape2543-7"><path class="cls-3" d="M28.65,34.84a7.54,7.54,0,0,0,1.14.66,17,17,0,0,0,2.25.89,26.78,26.78,0,0,0,3.14.81,19.48,19.48,0,0,0,3.86.36,12.25,12.25,0,0,0,2.71-.24,4.58,4.58,0,0,0,1.57-.61,1.73,1.73,0,0,0,.72-.87,3.09,3.09,0,0,0,.17-1,2,2,0,0,0-.83-1.67,7.05,7.05,0,0,0-3.07-1L36,31.36a25,25,0,0,1-3.39-.84,10.67,10.67,0,0,1-3-1.53,7.63,7.63,0,0,1-2.19-2.5,7.77,7.77,0,0,1-.84-3.78A9.42,9.42,0,0,1,27.25,19a8.14,8.14,0,0,1,2.2-3,11.14,11.14,0,0,1,3.75-2,17.07,17.07,0,0,1,5.33-.74,29,29,0,0,1,3.86.23,23.23,23.23,0,0,1,2.84.57,15.91,15.91,0,0,1,1.93.68c.49.23.85.41,1.08.55a6.14,6.14,0,0,1,1.38,1.17,2.57,2.57,0,0,1,.66,1.76A3.8,3.8,0,0,1,50,19.64a6,6,0,0,1-.61,1.21,6.58,6.58,0,0,1-1.51,1.57,7.38,7.38,0,0,0-1.27-1,11.16,11.16,0,0,0-2-.95,16.81,16.81,0,0,0-2.71-.72,17.84,17.84,0,0,0-3.27-.3,9.76,9.76,0,0,0-2.63.28,4.15,4.15,0,0,0-1.46.67,1.87,1.87,0,0,0-.64.92,3.76,3.76,0,0,0-.15.93,2.46,2.46,0,0,0,.11.72,1.43,1.43,0,0,0,.51.66,4.2,4.2,0,0,0,1.15.59,14,14,0,0,0,2,.53l4.5.89a24.33,24.33,0,0,1,4.17,1.17,10.79,10.79,0,0,1,3,1.72A6.36,6.36,0,0,1,51.06,31a8.69,8.69,0,0,1,.61,3.43,8.21,8.21,0,0,1-3.32,7c-2.22,1.66-5.35,2.5-9.4,2.5a25.79,25.79,0,0,1-5.07-.47,30,30,0,0,1-4.05-1.08A24.08,24.08,0,0,1,27,41.2a6.48,6.48,0,0,1-1.29-.76Z"/></g></g></g></svg>