<svg id="Layer_1" data-name="Layer 1" xmlns="http://www.w3.org/2000/svg" width="58.33" height="54.56" viewBox="0 0 58.33 54.56"><defs><style>.cls-1{fill:#81ba33;}.cls-1,.cls-5,.cls-7,.cls-8{fill-rule:evenodd;}.cls-2,.cls-3,.cls-6{fill:none;}.cls-2,.cls-3,.cls-4,.cls-9{stroke:#81ba33;}.cls-2,.cls-4,.cls-5,.cls-6,.cls-9{stroke-miterlimit:3;}.cls-2,.cls-3{stroke-width:2.88px;}.cls-3{stroke-linecap:round;stroke-linejoin:round;}.cls-4,.cls-8{fill:#fff;}.cls-4,.cls-5{stroke-width:1.92px;}.cls-5{fill:#eaeaea;}.cls-5,.cls-6{stroke:#486385;}.cls-6{stroke-width:0.96px;}.cls-7{fill:#486385;}.cls-8{fill-opacity:0.2;}.cls-9{fill:#f7f7f7;stroke-width:1.35px;}</style></defs><g id="group2544-1"><g id="group2545-2"><g id="group2546-3"><g id="shape2547-4"><path class="cls-1" d="M33.64,48.83v0Z"/><path class="cls-2" d="M33.64,48.83v-5.9"/></g><g id="shape2548-7"><path class="cls-1" d="M53.56,51.17h0Zm-26.29,0h0Z"/><path class="cls-3" d="M53.56,51.17H38.77m-11.5,0H12.48"/></g><g id="shape2549-10"><rect class="cls-4" x="28.49" y="49.04" width="10.3" height="4.56"/></g></g><g id="shape2550-12"><path class="cls-5" d="M55.54,30.74H11.77A1.66,1.66,0,0,0,9.94,32.2v8.87a1.65,1.65,0,0,0,1.82,1.46H55.54a1.66,1.66,0,0,0,1.83-1.46V32.2A1.66,1.66,0,0,0,55.54,30.74Z"/></g><g id="shape2551-14"><path class="cls-6" d="M15.81,38.19a1.57,1.57,0,1,1,1.71-1.56,1.68,1.68,0,0,1-1.71,1.56Z"/></g><g id="group2552-16"><g id="shape2553-17"><path class="cls-7" d="M44,38.89a.71.71,0,0,0,.72.71H52a.71.71,0,1,0,0-1.41H44.68a.72.72,0,0,0-.73.71Z"/></g><g id="shape2554-19"><path class="cls-7" d="M44,36.49a.71.71,0,0,0,.72.71H52a.71.71,0,0,0,.72-.71.71.71,0,0,0-.72-.7H44.68a.72.72,0,0,0-.73.71Z"/></g><g id="shape2555-21"><path class="cls-7" d="M44,34.13a.71.71,0,0,0,.72.71H52a.71.71,0,1,0,0-1.41H44.68a.72.72,0,0,0-.73.71Z"/></g></g><g id="shape2556-23"><path class="cls-5" d="M55.54,15.85H11.77a1.66,1.66,0,0,0-1.83,1.46v8.87a1.65,1.65,0,0,0,1.82,1.46H55.54a1.66,1.66,0,0,0,1.83-1.46V17.31A1.66,1.66,0,0,0,55.54,15.85Z"/></g><g id="shape2557-25"><path class="cls-6" d="M15.81,23.3a1.68,1.68,0,0,1-1.71-1.56,1.72,1.72,0,0,1,3.42,0,1.68,1.68,0,0,1-1.71,1.56Z"/></g><g id="group2558-27"><g id="shape2559-28"><path class="cls-7" d="M44,24a.71.71,0,0,0,.72.7H52a.71.71,0,1,0,0-1.42H44.68A.71.71,0,0,0,44,24Z"/></g><g id="shape2560-30"><path class="cls-7" d="M44,21.6a.71.71,0,0,0,.72.71H52a.71.71,0,0,0,.72-.7A.71.71,0,0,0,52,20.9H44.68a.72.72,0,0,0-.73.71Z"/></g><g id="shape2561-32"><path class="cls-7" d="M44,19.25a.71.71,0,0,0,.72.7H52a.71.71,0,1,0,0-1.42H44.68a.71.71,0,0,0-.73.7Z"/></g></g><g id="shape2562-34"><path class="cls-5" d="M55.54,1H11.77A1.66,1.66,0,0,0,9.94,2.42v8.87a1.65,1.65,0,0,0,1.82,1.46H55.54a1.66,1.66,0,0,0,1.83-1.46V2.42A1.66,1.66,0,0,0,55.54,1Z"/></g><g id="shape2563-36"><path class="cls-6" d="M15.81,8.41A1.68,1.68,0,0,1,14.1,6.85a1.72,1.72,0,0,1,3.42,0,1.68,1.68,0,0,1-1.71,1.56Z"/></g><g id="group2564-38"><g id="shape2565-39"><path class="cls-7" d="M44,9.12a.71.71,0,0,0,.72.7H52a.71.71,0,1,0,0-1.42H44.68a.71.71,0,0,0-.73.7Z"/></g><g id="shape2566-41"><path class="cls-7" d="M44,6.71a.71.71,0,0,0,.72.71H52a.71.71,0,0,0,.72-.7A.71.71,0,0,0,52,6H44.68a.72.72,0,0,0-.73.71Z"/></g><g id="shape2567-43"><path class="cls-7" d="M44,4.36a.71.71,0,0,0,.72.7H52a.71.71,0,1,0,0-1.42H44.68a.71.71,0,0,0-.73.7Z"/></g></g><g id="shape2568-45"><path class="cls-8" d="M57.27.12H11.48C9.92.12,8.67,1.73,8.67,3.54V40.62c0,1.79,1.25,3.39,2.81,3.39h1.09Z"/></g><g id="group2569-47"><g id="shape2570-48"><ellipse class="cls-9" cx="15.26" cy="39.45" rx="14.59" ry="14.15"/></g><g id="shape2571-50"><path class="cls-1" d="M15.8,44.78a6.76,6.76,0,0,1-1.62.79,10,10,0,0,1-3.26.51,8.69,8.69,0,0,1-2.77-.43,6.65,6.65,0,0,1-2.28-1.27,6.21,6.21,0,0,1-1.56-2.11,7.16,7.16,0,0,1-.57-3,7.23,7.23,0,0,1,.55-2.91,6.21,6.21,0,0,1,1.52-2.15,6.67,6.67,0,0,1,2.26-1.35,8.29,8.29,0,0,1,2.79-.46,9,9,0,0,1,1.44.1,7.41,7.41,0,0,1,1.13.24,5.78,5.78,0,0,1,1.41.63,2,2,0,0,1,.65.67,1.44,1.44,0,0,1,.19.72,1.72,1.72,0,0,1-.14.68,3,3,0,0,1-.35.58,3.32,3.32,0,0,1-.41.43,1.8,1.8,0,0,1-.34.26,5.35,5.35,0,0,0-.5-.45,3.22,3.22,0,0,0-.73-.46,5.46,5.46,0,0,0-1-.36A4.3,4.3,0,0,0,11,35.34a4.27,4.27,0,0,0-1.55.27,3.54,3.54,0,0,0-1.22.8,3.79,3.79,0,0,0-.79,1.25,4.91,4.91,0,0,0-.29,1.66A4.24,4.24,0,0,0,7.45,41a3.42,3.42,0,0,0,.86,1.2,3.68,3.68,0,0,0,1.29.73,5.31,5.31,0,0,0,1.63.24,5.78,5.78,0,0,0,1.87-.26,4.88,4.88,0,0,0,1.2-.55l1.46,2.44Z"/></g><g id="shape2572-52"><path class="cls-7" d="M14.64,42a3.84,3.84,0,0,0,.53.29,7.44,7.44,0,0,0,1,.4,13.71,13.71,0,0,0,1.44.36,9.7,9.7,0,0,0,1.77.16,5.78,5.78,0,0,0,1.24-.11,2.26,2.26,0,0,0,.72-.27.84.84,0,0,0,.33-.39,1.32,1.32,0,0,0,.08-.44.94.94,0,0,0-.38-.75A3.51,3.51,0,0,0,20,40.83l-2-.34a11.8,11.8,0,0,1-1.56-.37,4.73,4.73,0,0,1-1.39-.68,3.26,3.26,0,0,1-1.39-2.8A4.06,4.06,0,0,1,14,35a3.6,3.6,0,0,1,1-1.33,5.09,5.09,0,0,1,1.72-.9,8.14,8.14,0,0,1,2.44-.33,12.88,12.88,0,0,1,1.77.11,9.76,9.76,0,0,1,1.31.25,6.81,6.81,0,0,1,.88.3c.23.1.39.19.5.25a2.49,2.49,0,0,1,.63.52,1.12,1.12,0,0,1,.3.78,1.58,1.58,0,0,1-.12.61,2.77,2.77,0,0,1-.28.54,2.22,2.22,0,0,1-.36.43,3.92,3.92,0,0,1-.33.27,3.43,3.43,0,0,0-.58-.42,4.69,4.69,0,0,0-.94-.43,9,9,0,0,0-1.24-.32,8.44,8.44,0,0,0-1.5-.13,4.77,4.77,0,0,0-1.2.12,1.75,1.75,0,0,0-.67.3.77.77,0,0,0-.29.4,1.23,1.23,0,0,0-.07.42,1.08,1.08,0,0,0,0,.32.65.65,0,0,0,.24.3,2.08,2.08,0,0,0,.52.26,7.59,7.59,0,0,0,.93.24l2.06.39a11.48,11.48,0,0,1,1.91.52,4.71,4.71,0,0,1,1.39.77,2.81,2.81,0,0,1,.85,1.09,3.77,3.77,0,0,1,.28,1.53A3.62,3.62,0,0,1,23.68,45a7.18,7.18,0,0,1-4.31,1.12A13,13,0,0,1,17,45.87a14.35,14.35,0,0,1-1.85-.48,11.36,11.36,0,0,1-1.3-.52,2.91,2.91,0,0,1-.59-.34Z"/></g></g></g></g></svg>