<svg id="Layer_1" data-name="Layer 1" xmlns="http://www.w3.org/2000/svg" width="56.71" height="39.72" viewBox="0 0 56.71 39.72"><defs><style>.cls-1{fill:#83bc41;}.cls-1,.cls-2{fill-rule:evenodd;}.cls-2{fill:#496487;}</style></defs><g id="group2535-1"><g id="shape2536-2"><path class="cls-1" d="M31.5,36a16.24,16.24,0,0,1-2,1.23,21.17,21.17,0,0,1-2.76,1.21,22.61,22.61,0,0,1-3.53.92,24.64,24.64,0,0,1-4.46.38,20.54,20.54,0,0,1-7.26-1.28,17,17,0,0,1-5.94-3.77,17.92,17.92,0,0,1-4-6.16A22.45,22.45,0,0,1,0,20,23.73,23.73,0,0,1,1.45,11.5a17.94,17.94,0,0,1,4-6.28,17,17,0,0,1,6.05-3.85A21.19,21.19,0,0,1,19,.06a24.33,24.33,0,0,1,5.77.6,14.26,14.26,0,0,1,3.87,1.45,9.18,9.18,0,0,1,1.08.77A4.23,4.23,0,0,1,31.22,8a2.52,2.52,0,0,1-.39.72c-1.34,1.87-4.12.78-5.7,0a13,13,0,0,0-5.81-1.16,12.45,12.45,0,0,0-4.38.74,9.41,9.41,0,0,0-3.53,2.28,11,11,0,0,0-2.35,3.81,15.54,15.54,0,0,0-.85,5.42,15.71,15.71,0,0,0,.89,5.61,10.32,10.32,0,0,0,2.5,3.82,10,10,0,0,0,3.67,2.2,14,14,0,0,0,4.49.68,13,13,0,0,0,5.57-1,24,24,0,0,0,2.87-1.54Z"/></g><g id="shape2537-4"><path class="cls-2" d="M26.21,29.29a11,11,0,0,0,1.73,1A29.77,29.77,0,0,0,31,31.5a31.11,31.11,0,0,0,4.19,1.09,27.61,27.61,0,0,0,5.12.45,14.58,14.58,0,0,0,5.87-1,3.52,3.52,0,0,0,2.28-3.48A3.72,3.72,0,0,0,47,25.37a11.3,11.3,0,0,0-5.19-1.54l-5.36-.68a23.84,23.84,0,0,1-5-1.09,12.61,12.61,0,0,1-4-2.13,9.47,9.47,0,0,1-2.58-3.34,11.12,11.12,0,0,1-.93-4.74,12.15,12.15,0,0,1,.86-4.52,10.22,10.22,0,0,1,2.68-3.77A13.07,13.07,0,0,1,32.3,1,24.78,24.78,0,0,1,39.6,0,28.79,28.79,0,0,1,50.77,1.75a10.47,10.47,0,0,1,2.3,1.36,3.65,3.65,0,0,1,1.34,4.71C53.22,10.24,50.7,9.1,50.47,9a15.18,15.18,0,0,0-1.82-.87,23.56,23.56,0,0,0-8.92-1.61q-8,0-8,4.56A3.33,3.33,0,0,0,33.2,14a10.36,10.36,0,0,0,4.36,1.37l7,1a17.8,17.8,0,0,1,8.91,3.42,9.17,9.17,0,0,1,3.18,7.64,11,11,0,0,1-4.11,9q-4.12,3.36-11.86,3.36a35.6,35.6,0,0,1-6.82-.61,39.5,39.5,0,0,1-5.29-1.36A25.87,25.87,0,0,1,25,36.2a11.24,11.24,0,0,1-1.8-1.12Z"/></g><g id="shape2538-6"><path class="cls-1" d="M27.94,30.25,27.41,30a20.85,20.85,0,0,1-2.11,1.08l-1.19,2-.94,2a8.58,8.58,0,0,0,1.73,1.16,8.52,8.52,0,0,0,3.51,1.45l1-.49a17.6,17.6,0,0,0,2-1.24l-2.78-5.35Z"/></g></g></svg>