<svg id="Layer_1" data-name="Layer 1" xmlns="http://www.w3.org/2000/svg" width="56.39" height="51.04" viewBox="0 0 56.39 51.04"><defs><style>.cls-1{fill:#3176bc;stroke:#3176bc;stroke-miterlimit:3;stroke-width:0.08px;fill-rule:evenodd;}</style></defs><g id="group2519-1"><g id="group2520-2"><g id="shape2521-3"><path class="cls-1" d="M1.41,50.73c.07-.21,1.17-3.16,2.44-6.55,2.6-7,2.56-6.27.49-8.9A23.57,23.57,0,0,1,.46,26.67a31.59,31.59,0,0,1,.13-11,20.46,20.46,0,0,1,13.3-15C15.76,0,15.87,0,28.19,0s12.43,0,14.3.63a20.47,20.47,0,0,1,13.31,15,30.63,30.63,0,0,1,0,11.57,22.49,22.49,0,0,1-4.43,9A20.58,20.58,0,0,1,43.17,42c-3.12,1-5.74,1.22-15.65,1.23H18.45L10.22,47l-8.6,4c-.24.1-.31,0-.21-.23Zm11.89-9,4.9-2.29H28.91c12.05,0,12.22,0,15.66-1.94a17.39,17.39,0,0,0,7.75-9.9,28,28,0,0,0,.23-11.3,16.08,16.08,0,0,0-4.39-7.93A14.52,14.52,0,0,0,40.61,3.8c-2.55-.57-22.29-.57-24.83,0A14.52,14.52,0,0,0,8.23,8.38C4.69,12.12,3.36,15.67,3.36,21.3a35.4,35.4,0,0,0,.24,4.4c.61,3.43,3.14,8,5.43,9.8.59.47,1.09,1,1.09,1.14A31.29,31.29,0,0,1,9,39.93C7.87,43,7.64,44,8.14,44,8.29,44,10.61,43,13.3,41.74Zm2.1-17c-1.63-.58-2.26-1.53-2.26-3.44a2.67,2.67,0,0,1,.71-2.07,2.41,2.41,0,0,1,2.13-1c1.35-.12,1.45-.08,2.3.82a2.48,2.48,0,0,1,.88,2.2,5.6,5.6,0,0,1-.39,2.06A3,3,0,0,1,15.4,24.75Zm12,0c-1.63-.58-2.26-1.53-2.26-3.44a2.67,2.67,0,0,1,.71-2.07,2.41,2.41,0,0,1,2.13-1c1.35-.12,1.46-.08,2.3.82a2.48,2.48,0,0,1,.88,2.2,5.6,5.6,0,0,1-.39,2.06A2.94,2.94,0,0,1,27.44,24.75Zm12,0c-1.63-.58-2.26-1.53-2.26-3.44a2.67,2.67,0,0,1,.71-2.07,2.41,2.41,0,0,1,2.13-1c1.35-.12,1.46-.08,2.3.82a2.48,2.48,0,0,1,.88,2.2,5.6,5.6,0,0,1-.39,2.06A2.94,2.94,0,0,1,39.48,24.75Z"/></g></g></g></svg>