<svg id="Layer_1" data-name="Layer 1" xmlns="http://www.w3.org/2000/svg" width="55.72" height="36.81" viewBox="0 0 55.72 36.81"><defs><style>.cls-1{fill:#3176bc;stroke:#3176bc;stroke-miterlimit:3;stroke-width:0.08px;fill-rule:evenodd;}</style></defs><g id="group2525-1"><g id="group2526-2"><g id="shape2527-3"><path class="cls-1" d="M3.35,36.69s-.2-1.11-.45-2.35-.51-2.69-.59-3.24l-.15-1,2-1.14C6.41,27.7,9,25.44,9,24.79c0-.28-.55-.66-1.82-1.22A12.49,12.49,0,0,1,.28,9.83,12.31,12.31,0,0,1,12.05,0c6.23,0,11.27,4,13,10.32a24.78,24.78,0,0,1,0,9.21C23,28.31,15.83,34.78,6.53,36.42c-2,.35-3.18.45-3.18.27Zm6-4A19,19,0,0,0,22.61,17.09C23.75,8.44,18,1.78,10.53,3.13A9.27,9.27,0,0,0,3.08,13.87a9.09,9.09,0,0,0,8.31,7.83,17.59,17.59,0,0,1,1.89.32c.21.19-.79,3-1.41,4A17.66,17.66,0,0,1,7,30.64c-1.32.82-1.49,1-1.49,1.69a2,2,0,0,0,.16.93C6,33.58,7.2,33.4,9.36,32.7Zm24.14,4s-.2-1.11-.45-2.35-.51-2.69-.59-3.24l-.15-1,2-1.14c2.23-1.27,4.87-3.53,4.87-4.18,0-.28-.56-.66-1.82-1.22a12.48,12.48,0,0,1-7-13.74A12.35,12.35,0,0,1,42.2,0c6.23,0,11.27,4,13,10.32a24.57,24.57,0,0,1,0,9.21C53.12,28.31,46,34.78,36.68,36.42c-2,.35-3.18.45-3.18.27Zm6-4A19,19,0,0,0,52.76,17.09c1.14-8.65-4.62-15.31-12.08-14a9.27,9.27,0,0,0-7.45,10.74,9.09,9.09,0,0,0,8.31,7.83,17.59,17.59,0,0,1,1.89.32c.21.19-.78,3-1.41,4a17.66,17.66,0,0,1-4.9,4.64c-1.32.82-1.49,1-1.49,1.69a2.1,2.1,0,0,0,.16.93C36.11,33.58,37.35,33.4,39.51,32.7Z"/></g></g></g></svg>