<svg id="Layer_1" data-name="Layer 1" xmlns="http://www.w3.org/2000/svg" width="56.51" height="40.47" viewBox="0 0 56.51 40.47"><defs><style>.cls-1{fill:#3176bc;stroke:#3176bc;stroke-miterlimit:3;stroke-width:0.08px;fill-rule:evenodd;}</style></defs><g id="group2517-1"><g id="shape2518-2"><path class="cls-1" d="M23.36,40.09A33.4,33.4,0,0,1,7.08,31.65,29.81,29.81,0,0,1,.93,23.76a7.4,7.4,0,0,1-.55-5.69C1.41,14.9,5.63,9.8,10,6.45A29.57,29.57,0,0,1,41.8,3.27C48,6.37,52.8,10.83,55.46,16a6.36,6.36,0,0,1,1,4.3,6.37,6.37,0,0,1-1,4.31c-4,7.69-13,14-22.27,15.51a35.93,35.93,0,0,1-9.83,0Zm9.3-3.18A29.23,29.23,0,0,0,50.53,26.32c1.92-2.42,2.94-4.52,2.94-6,0-3-4.39-8.61-9.64-12.24A28.9,28.9,0,0,0,33.14,3.68a33.53,33.53,0,0,0-9-.13,30.47,30.47,0,0,0-11.54,5c-3.85,2.69-8.94,8.63-9.36,10.94a6,6,0,0,0,0,1.69c.26,1.4,2.48,4.55,5.05,7.17C15.21,35.32,23.83,38.37,32.66,36.91Zm1.55-21.3V11.18H42.4V20H34.21Z"/></g></g></svg>