<svg id="Layer_1" data-name="Layer 1" xmlns="http://www.w3.org/2000/svg" width="56.52" height="54.77" viewBox="0 0 56.52 54.77"><defs><style>.cls-1{fill:#ecfffc;stroke:#3176bc;stroke-miterlimit:3;stroke-width:1.88px;fill-rule:evenodd;}</style></defs><g id="group2533-1"><g id="shape2534-2"><path class="cls-1" d="M4.92,53.63a4.73,4.73,0,0,1-2.27-1.46,5,5,0,0,1-1.47-3.89,4.55,4.55,0,0,1,.38-2.71A5.79,5.79,0,0,1,6,42.23c3.52-.59,6.24,1.72,6.41,5.45a5.48,5.48,0,0,1-3,5.55,4.38,4.38,0,0,1-2.44.58A6.78,6.78,0,0,1,4.92,53.63ZM9,51.85c1.82-.91,2.48-3.74,1.4-6a2.92,2.92,0,0,0-1.6-1.62,4.43,4.43,0,0,0-5.5,1.35,4.85,4.85,0,0,0-.5,3.82,4.67,4.67,0,0,0,2.95,2.78A6.09,6.09,0,0,0,9,51.85Zm17.19,1.63a7.63,7.63,0,0,1-1.36-.77A7.24,7.24,0,0,1,22.94,50a11.17,11.17,0,0,1-.08-3.77l.13-.74-6.34-6.55L10.3,32.37l-.52.23a6.42,6.42,0,0,1-3.17.74A4.62,4.62,0,0,1,2.74,32,6.09,6.09,0,0,1,6.23,21.59a5.82,5.82,0,0,1,3.25.6,1.54,1.54,0,0,0,.88.24c.19-.05,3.11-3,6.5-6.47L23,9.57l-.14-.8a15.23,15.23,0,0,1-.14-2.13,5.2,5.2,0,0,1,2.53-4.7,5.73,5.73,0,0,1,6.29-.11,4.88,4.88,0,0,1,2,2.41,4.93,4.93,0,0,1,.41,2.49,7.28,7.28,0,0,1-.28,2.39l-.29.81,6.23,6.45C43,19.92,46,22.82,46.08,22.82a4.09,4.09,0,0,0,1.13-.48,5.7,5.7,0,0,1,6.14.22A4,4,0,0,1,55,24.5a4.5,4.5,0,0,1,.63,2.74,5.31,5.31,0,0,1-1.26,4,5.55,5.55,0,0,1-5,2,4.93,4.93,0,0,1-2.21-.6A7.47,7.47,0,0,0,46,32.12c-.27,0-12.42,12.69-12.42,13a10.47,10.47,0,0,0,.26,1.33,6.27,6.27,0,0,1-1.62,6,5.23,5.23,0,0,1-3.69,1.37A4.26,4.26,0,0,1,26.16,53.48Zm3.55-1.29A3.32,3.32,0,0,0,32,50.31a4.67,4.67,0,0,0,.42-3.13,4,4,0,0,0-4.8-3.27A2.66,2.66,0,0,0,26,45a4.35,4.35,0,0,0-1.39,3.4C24.59,51.23,26.79,52.88,29.71,52.19ZM24.63,43.6a6.37,6.37,0,0,1,2.91-1.36,6.16,6.16,0,0,1,4,.67,3.77,3.77,0,0,0,1,.49C32.72,43.4,45,30.77,45,30.54a10.48,10.48,0,0,0-.32-1.08,7,7,0,0,1-.08-3.81,4.62,4.62,0,0,0,.24-1.07c0-.24-1.9-2.32-6.22-6.78l-6.22-6.43-1.2.63a4.2,4.2,0,0,1-2.8.61,4.87,4.87,0,0,1-3.64-1.15A1.81,1.81,0,0,0,24,11c-.1,0-3,2.87-6.36,6.39l-6.17,6.38.21.71a8.31,8.31,0,0,1,.09,5.57,3.48,3.48,0,0,0-.23.84c0,.35,12.19,13,12.53,13A.88.88,0,0,0,24.63,43.6Zm2.51-10.27a5.22,5.22,0,0,1-2.89-1.64,4.92,4.92,0,0,1-1.51-4.05,4.7,4.7,0,0,1,.41-2.51,5.63,5.63,0,0,1,2.69-2.85,4.25,4.25,0,0,1,2.67-.53,4.58,4.58,0,0,1,3.9,1.48c1.2,1.16,1.54,2.1,1.55,4.24a5.09,5.09,0,0,1-.41,2.66A5.78,5.78,0,0,1,27.14,33.33ZM8.8,31.15C10.21,30.4,10.88,29,10.74,27c-.17-2.44-1.49-3.74-3.81-3.75A4.21,4.21,0,0,0,2.6,27.51a4,4,0,0,0,2.88,4A6,6,0,0,0,8.8,31.15Zm42.74.22c1.68-.62,2.44-1.83,2.44-3.94,0-2.38-1-3.68-3.13-4.13a4,4,0,0,0-4.4,2.43c-.76,1.7-.31,4.16.94,5.08A4.88,4.88,0,0,0,51.54,31.37ZM29.84,11A4.17,4.17,0,0,0,32.38,5.7a3.86,3.86,0,0,0-3.6-3.07,4.38,4.38,0,0,0-4.3,2.71,5.26,5.26,0,0,0,.24,3.72A4.77,4.77,0,0,0,27,10.9,3.86,3.86,0,0,0,29.84,11Zm18,42.58c-3.07-1.07-4.51-5.19-2.91-8.3a5.58,5.58,0,0,1,5.33-3,4,4,0,0,1,2.45.53c1.83.93,2.83,2.78,2.83,5.27a8.83,8.83,0,0,1-.2,2A5.76,5.76,0,0,1,52,53.55a7.21,7.21,0,0,1-4.09,0Zm4.29-1.66A3.85,3.85,0,0,0,54,49.67a6.9,6.9,0,0,0-.3-3.71A3.75,3.75,0,0,0,50,43.84,2.9,2.9,0,0,0,47.47,45a4.37,4.37,0,0,0-1.3,3.26,3.67,3.67,0,0,0,2.62,3.85A5.57,5.57,0,0,0,52.16,51.87ZM5,12.61A4.59,4.59,0,0,1,2.59,11.2C.31,8.84.41,4.52,2.8,2.53c2.59-2.18,6.05-2.11,8,.14A6.71,6.71,0,0,1,12.16,8.2a4.81,4.81,0,0,1-1.46,2.93A5.62,5.62,0,0,1,5,12.61Zm3-1.67c2-.6,2.8-1.72,2.79-4a4,4,0,0,0-.43-2.18,3.46,3.46,0,0,0-2.25-2,3.75,3.75,0,0,0-2.62,0A4.42,4.42,0,0,0,3,8.8,3.93,3.93,0,0,0,8.06,10.94Zm40.38,1.59a5.63,5.63,0,0,1-3.63-3.12,4.93,4.93,0,0,1-.42-2.6,4.59,4.59,0,0,1,.45-2.6,6,6,0,0,1,8-2.63,6.09,6.09,0,0,1,2.7,6.27,5.35,5.35,0,0,1-5.27,4.79A7.69,7.69,0,0,1,48.44,12.53Zm3.68-1.84a3.81,3.81,0,0,0,1.82-2.14,8.84,8.84,0,0,0,.15-1.67c0-3.15-2.65-5.07-5.5-4a4.25,4.25,0,0,0-2.74,4.16,3,3,0,0,0,.43,1.84A4.48,4.48,0,0,0,52.12,10.69Z"/></g></g></svg>