<svg id="Layer_1" data-name="Layer 1" xmlns="http://www.w3.org/2000/svg" xmlns:xlink="http://www.w3.org/1999/xlink" width="56.69" height="39.69" viewBox="0 0 56.69 39.69"><defs><style>.cls-1,.cls-2,.cls-3{fill-rule:evenodd;}.cls-1{fill:url(#linear-gradient);}.cls-2{fill:#9cebff;}.cls-3{fill:#f2f2f2;}</style><linearGradient id="linear-gradient" x1="-285.59" y1="412.21" x2="-284.59" y2="412.21" gradientTransform="matrix(0, -39.69, -56.69, 0, 23396.58, -11296.07)" gradientUnits="userSpaceOnUse"><stop offset="0" stop-color="#0078d4"/><stop offset="0.16" stop-color="#1380da"/><stop offset="0.53" stop-color="#3c91e5"/><stop offset="0.82" stop-color="#559cec"/><stop offset="1" stop-color="#5ea0ef"/></linearGradient></defs><g id="group2511-1"><g id="group2512-2"><g id="shape2513-3"><path class="cls-1" d="M56.69,27.24a12.49,12.49,0,0,0-11-12.06A16,16,0,0,0,29.1,0a16.53,16.53,0,0,0-15.81,10.5A15,15,0,0,0,0,25,15.35,15.35,0,0,0,16,39.67H43.21a2.73,2.73,0,0,0,.7,0A12.83,12.83,0,0,0,56.69,27.24Z"/></g><g id="shape2514-7"><path class="cls-2" d="M17.07,24.15H14.3a3.44,3.44,0,0,0-4.12-2.53,3.38,3.38,0,0,0-2.57,4.06,3.44,3.44,0,0,0,6.69,0h2.77a.63.63,0,0,1,.63.62V39.66h1.54V26.3a2.17,2.17,0,0,0-2.17-2.15Zm-6.14,2.74a2,2,0,0,1-2-2,2,2,0,0,1,4,0h0A2,2,0,0,1,10.93,26.89Z"/></g><g id="shape2515-9"><path class="cls-3" d="M28.16,24.84V21.73A2.19,2.19,0,0,0,26,19.56H21.07a.63.63,0,0,1-.63-.63V2.43l-.72.38-.82.43V18.78a2.16,2.16,0,0,0,2.17,2.15H26a.66.66,0,0,1,.66.65h0v3.11A3.35,3.35,0,0,0,23.94,28a3.43,3.43,0,1,0,4.22-3.29Zm-.79,5.29a2,2,0,1,1,2-2,2,2,0,0,1-2,2Z"/></g><g id="shape2516-11"><path class="cls-2" d="M45.76,18.28A3.38,3.38,0,0,0,45,25v.62a.66.66,0,0,1-.66.66H38V15.29a2.16,2.16,0,0,0-2.17-2.14H32.59a3.38,3.38,0,1,0,0,1.52H36a.63.63,0,0,1,.63.62V39.66h1.55V27.76h6.3a2.18,2.18,0,0,0,2.2-2.18V25a3.38,3.38,0,0,0-.74-6.68Zm-16.5-2.4a2,2,0,1,1,2-2h0A2,2,0,0,1,29.26,15.88Zm16.5,7.78a2,2,0,1,1,2-2v0A2,2,0,0,1,45.76,23.66Z"/></g></g></g></svg>