<svg id="Layer_1" data-name="Layer 1" xmlns="http://www.w3.org/2000/svg" width="56.69" height="56.69" viewBox="0 0 56.69 56.69"><defs><style>.cls-1{fill:#3176bc;fill-rule:evenodd;}</style></defs><g id="group2522-1"><g id="group2523-2"><g id="shape2524-3"><path class="cls-1" d="M24.7.68A21.22,21.22,0,0,1,29.37,2.6a25.23,25.23,0,0,1,3.87,3.07,26.7,26.7,0,0,1,3.08,4,21.28,21.28,0,0,1,1.93,4.65,19.67,19.67,0,0,1,.68,5.22,18.27,18.27,0,0,1-1.13,6.57,19.89,19.89,0,0,1-3.42,5.79L56.12,53.63a1.64,1.64,0,0,1,0,2.49,1.82,1.82,0,0,1-1.25.57,1.84,1.84,0,0,1-1.25-.57L32,34.47a21.88,21.88,0,0,1-5.81,3.4A18.86,18.86,0,0,1,19.58,39a20.3,20.3,0,0,1-5.24-.68,20.88,20.88,0,0,1-4.66-1.93,16.78,16.78,0,0,1-4-3.06,26.08,26.08,0,0,1-3.07-4A21.1,21.1,0,0,1,.68,24.71a20.34,20.34,0,0,1,0-10.43A21.31,21.31,0,0,1,2.62,9.63a23.73,23.73,0,0,1,3-4,21.67,21.67,0,0,1,4-3.07A21.22,21.22,0,0,1,14.23.68,20.49,20.49,0,0,1,24.7.68Zm1,33.44a15.7,15.7,0,0,0,8.54-8.5,16.2,16.2,0,0,0,1.25-6.24,16.61,16.61,0,0,0-1.25-6.23,15.46,15.46,0,0,0-3.42-5.1,15.62,15.62,0,0,0-5.12-3.41,16.42,16.42,0,0,0-12.52,0,18.43,18.43,0,0,0-5,3.63,19.72,19.72,0,0,0-3.53,5A16,16,0,0,0,3.42,19.5a16.38,16.38,0,0,0,1.25,6.23,15.43,15.43,0,0,0,3.41,5.11,15.69,15.69,0,0,0,5.13,3.4,16.26,16.26,0,0,0,6.26,1.25A14.8,14.8,0,0,0,25.73,34.12Z"/></g></g></g></svg>