<svg id="Layer_1" data-name="Layer 1" xmlns="http://www.w3.org/2000/svg" xmlns:xlink="http://www.w3.org/1999/xlink" width="45.35" height="56.7" viewBox="0 0 45.35 56.7"><defs><style>.cls-1{fill:#fff;}.cls-1,.cls-2,.cls-3,.cls-4{fill-rule:evenodd;}.cls-2{fill:url(#linear-gradient);}.cls-3{fill:#0078d4;}.cls-4{fill:#b31b1b;}.cls-5{fill:#e62323;}.cls-6{fill:#ffd400;}</style><linearGradient id="linear-gradient" x1="-288.26" y1="419.66" x2="-287.26" y2="419.66" gradientTransform="matrix(0, -56.7, -45.35, 0, 19054.27, -16287.43)" gradientUnits="userSpaceOnUse"><stop offset="0" stop-color="#0078d4"/><stop offset="0.82" stop-color="#5ea0ef"/></linearGradient></defs><g id="group2495-1"><g id="group2496-2"><g id="shape2497-3"><path class="cls-1" d="M26,.44H2.19A1.88,1.88,0,0,0,.33,2.34v52a1.88,1.88,0,0,0,1.86,1.9h41A1.89,1.89,0,0,0,45,54.37V20A1.92,1.92,0,0,0,43.17,18H29.58a1.85,1.85,0,0,1-1.87-1.83V2.34A1.89,1.89,0,0,0,26,.44Z"/></g><g id="shape2498-5"><path class="cls-2" d="M25,2.87V15.94a4.76,4.76,0,0,0,4.71,4.77H42.58V53.83H2.78v-51Zm1-2.87H1.9A1.91,1.91,0,0,0,0,1.93H0V54.76A1.91,1.91,0,0,0,1.89,56.7H43.46a1.91,1.91,0,0,0,1.89-1.94h0V19.81a1.92,1.92,0,0,0-1.89-1.93H29.67A1.91,1.91,0,0,1,27.77,16h0v-14A1.92,1.92,0,0,0,25.94,0Z"/></g><g id="shape2499-9"><path class="cls-3" d="M44.63,18.35,27.12.44V15a3.3,3.3,0,0,0,3.26,3.34H44.63Z"/></g><g id="shape2500-11"><path class="cls-4" d="M27.28,35.62a7.11,7.11,0,0,1-9.57,0l-.59,12.1a.95.95,0,0,0,1.64.74l3.65-3.84,3.73,3.74a.93.93,0,0,0,1.34,0,1,1,0,0,0,.26-.7Z"/></g><g id="shape2501-13"><ellipse class="cls-5" cx="22.61" cy="29.38" rx="8.53" ry="8.74"/></g><g id="shape2502-15"><ellipse class="cls-6" cx="22.61" cy="29.38" rx="6.47" ry="6.64"/></g></g></g></svg>