<svg id="Layer_1" data-name="Layer 1" xmlns="http://www.w3.org/2000/svg" width="56.69" height="55.38" viewBox="0 0 56.69 55.38"><defs><style>.cls-1{fill:#7c7b7b;}.cls-1,.cls-2,.cls-3,.cls-4,.cls-5,.cls-6,.cls-7,.cls-8{fill-rule:evenodd;}.cls-2{fill:#9fa0a2;}.cls-3,.cls-6,.cls-7,.cls-8{fill:#fff;}.cls-3{fill-opacity:0.2;}.cls-4{fill:#5bb4da;}.cls-5{fill:#b8d433;}.cls-7{fill-opacity:0.7;}.cls-8{fill-opacity:0.4;}</style></defs><g id="group2481-1"><g id="group2482-2"><g id="shape2483-3"><path class="cls-1" d="M28.45,42.85V42.8a15.56,15.56,0,0,1,2.62-8.65l0,.06H18.34c1.59,5.61-.54,6.41-10,6.41v3H28.45v-.73Z"/></g><g id="shape2484-5"><path class="cls-2" d="M44.2,48.28a15.8,15.8,0,0,1,4.63.7l-.12,0V22.71a3,3,0,0,0-2.94-2.84H2.65A2.76,2.76,0,0,0,0,22.72H0v30a2.73,2.73,0,0,0,2.64,2.71H31.1a15.79,15.79,0,0,1,13.1-7.1Z"/></g><g id="shape2485-7"><path class="cls-3" d="M45.77,19.87H2.65A2.76,2.76,0,0,0,0,22.72H0v30a2.73,2.73,0,0,0,2.64,2.71h1L45.8,19.87Z"/></g><g id="shape2486-9"><path class="cls-4" d="M44.21,27.1h.71V2.44H3.7v28H34.47A15.57,15.57,0,0,1,44.2,27.1Z"/></g><g id="shape2487-11"><path class="cls-4" d="M3.7,30.5h0v-28l37.69-.06L3.7,2.45Z"/></g><g id="shape2488-13"><path class="cls-5" d="M24.85.73h0a.67.67,0,0,1-.68.68h0a.71.71,0,0,1,0-1.42h0a.68.68,0,0,1,.68.69Z"/></g><g id="shape2489-15"><path class="cls-6" d="M24.88,15.61h-.13l-8.53-4.94a.32.32,0,0,1-.13-.22h0a.28.28,0,0,1,.13-.23h0L24.75,5.3a.3.3,0,0,1,.26,0h0l8.54,4.94a.36.36,0,0,1,.13.23h0a.29.29,0,0,1-.12.23h0L25,15.61h-.13Z"/></g><g id="shape2490-17"><path class="cls-7" d="M23.66,27.63h-.13L15,22.72a.34.34,0,0,1-.13-.23V12.55a.26.26,0,0,1,.13-.23h0a.2.2,0,0,1,.13,0,.23.23,0,0,1,.14,0l8.53,4.93a.26.26,0,0,1,.13.23v9.94a.25.25,0,0,1-.13.21h0a.29.29,0,0,1-.13,0h0Z"/></g><g id="shape2491-19"><path class="cls-8" d="M26.08,27.63h-.15a.27.27,0,0,1-.11-.22V17.53a.26.26,0,0,1,.11-.21h0l8.53-4.93a.28.28,0,0,1,.28,0h0a.36.36,0,0,1,.13.23v9.83a.27.27,0,0,1-.12.22l-8.54,4.92a.28.28,0,0,1-.13,0h0Z"/></g><g id="shape2492-21"><path class="cls-4" d="M51.74,52.67A12.78,12.78,0,1,1,54,34.85l0,0a12.69,12.69,0,0,1-2.29,17.77l0,0Z"/></g><g id="shape2493-23"><path class="cls-6" d="M49.4,44.86a2.85,2.85,0,0,0,3.86.51h0l.16-.17L56,47a9.62,9.62,0,0,0,.32-1l0-.07c-.74-.56-1.47-1.13-2.19-1.72a2.72,2.72,0,0,0-3.93-3.32h0Q48,38.91,46,36.87a14.84,14.84,0,0,1,8.13-2.16h0a13.12,13.12,0,0,0-1.9-1.9l0,0a13.53,13.53,0,0,0-8.61,1.62l.07,0Q41.78,32.46,40,30.46a11.65,11.65,0,0,0-1.77.71l.07,0a28.11,28.11,0,0,0,3.47,4.37h0a23.71,23.71,0,0,0-3.53,3h0l-.43.49a3.69,3.69,0,0,0-2.13.15h0a9.17,9.17,0,0,1-1-4.14,8.57,8.57,0,0,1,.12-1.44v0a12.71,12.71,0,0,0-1.4,1.62l0,0a7.94,7.94,0,0,0-.21,1.82A8.14,8.14,0,0,0,34,40.51l0-.06a3.9,3.9,0,0,0,0,4.69h0c.09.11.19.21.29.32a18.41,18.41,0,0,0-.74,4.42v0c.11.16.11.3.24.46a13.29,13.29,0,0,0,2.09,2l0,0a13.9,13.9,0,0,1,.9-5.89l0,.1a3.82,3.82,0,0,0,1.8-.29h0l1,.87a21,21,0,0,0,3.59,2.31l.12.05a2.66,2.66,0,0,0,.5,1.81h0a2.55,2.55,0,0,0,3.56.47h0a3,3,0,0,0,.57-.61h0a22.59,22.59,0,0,0,4.87.52h.13a9,9,0,0,0,1.67-1.87l0,0a13.09,13.09,0,0,1-2.26.19,13.37,13.37,0,0,1-4.11-.64l.1,0a2.33,2.33,0,0,0-.46-1h0a2.53,2.53,0,0,0-3.38-.57h0A21.27,21.27,0,0,1,41,45.49l0,0c-.24-.19-.49-.37-.7-.57a3.9,3.9,0,0,0,.15-3.86v0l.44-.44a26.4,26.4,0,0,1,3.24-2.63l.09,0-.13-.2a.57.57,0,0,0,.11.11h0c1.6,1.42,3.29,2.84,4.88,4.11a2.73,2.73,0,0,0,.3,2.84Z"/></g><g id="shape2494-25"><path class="cls-2" d="M28.46,42.85a16,16,0,0,1,.18-2.29v.08H8.44v2.94h20Z"/></g></g></g></svg>