<svg id="Layer_1" data-name="Layer 1" xmlns="http://www.w3.org/2000/svg" xmlns:xlink="http://www.w3.org/1999/xlink" width="56.69" height="56.69" viewBox="0 0 56.69 56.69"><defs><style>.cls-1{fill:#86d633;}.cls-1,.cls-2,.cls-3,.cls-4{fill-rule:evenodd;}.cls-2{fill:url(#linear-gradient);}.cls-3{fill:#9cebff;}.cls-4,.cls-5{fill:#0078d4;}</style><linearGradient id="linear-gradient" x1="-287.11" y1="423.31" x2="-286.11" y2="423.31" gradientTransform="matrix(-20.76, -35.63, -29.91, 24.73, 6733.26, -20657.8)" gradientUnits="userSpaceOnUse"><stop offset="0" stop-color="#5e9624"/><stop offset="0.26" stop-color="#70a828"/><stop offset="0.79" stop-color="#9fd732"/><stop offset="1" stop-color="#b4ec36"/></linearGradient></defs><g id="group2472-1"><g id="group2473-2"><g id="shape2474-3"><path class="cls-1" d="M39.7,22.08c0,12.7-15.79,22.94-19.21,25a1.2,1.2,0,0,1-1.31,0C15.75,45,0,34.78,0,22.08V6.77a1.24,1.24,0,0,1,1.21-1.2C13.47,5.23,10.65,0,19.85,0S26.2,5.23,38.42,5.57a1.27,1.27,0,0,1,1.24,1.2Z"/></g><g id="shape2475-5"><path class="cls-2" d="M38.06,22.21c0,11.67-14.48,21-17.6,22.95a1.15,1.15,0,0,1-1.21,0c-3.16-1.9-17.6-11.28-17.6-22.95V8.34a1.1,1.1,0,0,1,1.1-1.1h0C14,6.77,11.56,2,19.85,2s5.85,4.8,17.07,5.1a1.14,1.14,0,0,1,1.14,1.1Z"/></g><g id="shape2476-9"><path class="cls-3" d="M1.24,27.18H37.45a1.17,1.17,0,0,1,1.24,1.1h0V55.59a1.18,1.18,0,0,1-1.24,1.1H1.24A1.21,1.21,0,0,1,0,55.59V28.35a1.2,1.2,0,0,1,1.24-1.17Z"/></g><g id="shape2477-11"><path class="cls-4" d="M19.18,27.18H55.52a1.1,1.1,0,0,1,1.17,1v4.14H18v-4a1.1,1.1,0,0,1,1.17-1h0ZM51.42,43.05H27.54c-.54,0-.94.27-.94.54V45c0,.3.4.54.94.54H51.42c.54,0,1-.24,1-.54V43.69C52.39,43.32,51.85,43.05,51.42,43.05Zm0-6H27.54c-.54,0-.94.23-.94.53v1.31c0,.3.4.53.94.53H51.42c.54,0,1-.23,1-.53V37.58C52.39,37.28,51.85,37.05,51.42,37.05Zm0,12.77H27.54c-.54,0-.94.24-.94.54v1.33c0,.3.4.53.94.53H51.42c.54,0,1-.23,1-.53V50.36C52.39,50.06,51.85,49.82,51.42,49.82Z"/></g><g id="shape2478-13"><ellipse class="cls-5" cx="22.64" cy="38.22" rx="1.58" ry="1.57"/></g><g id="shape2479-15"><ellipse class="cls-5" cx="22.64" cy="44.25" rx="1.58" ry="1.57"/></g><g id="shape2480-17"><ellipse class="cls-5" cx="22.64" cy="51.02" rx="1.58" ry="1.57"/></g></g></g></svg>