<svg id="Layer_1" data-name="Layer 1" xmlns="http://www.w3.org/2000/svg" width="51.02" height="56.69" viewBox="0 0 51.02 56.69"><defs><style>.cls-1{fill:#a0a1a2;}.cls-1,.cls-2,.cls-3{fill-rule:evenodd;}.cls-2{fill:#3999c6;}.cls-3{fill:#fff;}.cls-4{fill-opacity:0.2;}</style></defs><g id="group2466-1"><g id="group2467-2"><g id="shape2468-3"><path class="cls-1" d="M40.82,0H0V56.69H51V10.08Z"/></g><g id="shape2469-5"><path class="cls-2" d="M39.54,2.52h-37V54.17H48.47V11.33H39.54Z"/></g><g id="shape2470-7"><path class="cls-3" d="M24.23,17.63a1.29,1.29,0,0,1,1.32-1.26H40.78a1.26,1.26,0,1,1,0,2.52H25.55A1.28,1.28,0,0,1,24.23,17.63Zm0,12.6A1.29,1.29,0,0,1,25.55,29H40.78a1.26,1.26,0,1,1,0,2.52H25.55A1.29,1.29,0,0,1,24.23,30.23ZM8,17l-.49-.52a.34.34,0,0,1,0-.49l1.41-1.29a.35.35,0,0,1,.49,0h0l3.9,4.12L20,10.34a.35.35,0,0,1,.49-.06h0L22,11.44a.32.32,0,0,1,.06.48L13.47,22.8Zm0,12.6-.49-.52a.34.34,0,0,1,0-.49l1.41-1.3a.35.35,0,0,1,.49,0h0l3.9,4.13L20,22.93a.35.35,0,0,1,.49-.06h0L22,24a.32.32,0,0,1,.06.48L13.47,35.4ZM24.23,42.83a1.29,1.29,0,0,1,1.32-1.26H40.78a1.26,1.26,0,1,1,0,2.52H25.55A1.29,1.29,0,0,1,24.23,42.83ZM8,42.17l-.49-.52a.34.34,0,0,1,0-.49l1.41-1.3a.35.35,0,0,1,.49,0h0L13.3,44,20,35.53a.35.35,0,0,1,.49-.06h0L22,36.64a.32.32,0,0,1,.06.48L13.47,48Z"/></g><g id="shape2471-9"><rect class="cls-4" x="39.54" y="11.33" width="8.93" height="1.26"/></g></g></g></svg>