<svg id="Layer_1" data-name="Layer 1" xmlns="http://www.w3.org/2000/svg" width="56.69" height="51.03" viewBox="0 0 56.69 51.03"><defs><style>.cls-1{fill-rule:evenodd;}</style></defs><g id="group2462-1"><g id="group2463-2"><g id="shape2464-3"><path class="cls-1" d="M35.44,3.65A3.59,3.59,0,0,1,39,7.29a3.55,3.55,0,1,1-7.09,0A3.6,3.6,0,0,1,35.44,3.65Zm0-3.65a7.2,7.2,0,0,0-7.1,7.28,7.2,7.2,0,0,0,7.09,7.3h0A7.19,7.19,0,0,0,42.52,7.3,7.19,7.19,0,0,0,35.44,0Zm7.08,40.1A3.65,3.65,0,1,1,39,43.74,3.6,3.6,0,0,1,42.52,40.1Zm0-3.65a7.29,7.29,0,1,0,7.08,7.29A7.19,7.19,0,0,0,42.52,36.45ZM14.18,21.87a3.65,3.65,0,1,1-3.55,3.65A3.6,3.6,0,0,1,14.18,21.87Zm0-3.64a7.29,7.29,0,0,0-.52,14.57,4.34,4.34,0,0,0,.51,0,7.3,7.3,0,0,0,0-14.57Z"/></g><g id="shape2465-5"><path class="cls-1" d="M0,5.47H28.35V9.12H0Zm42.52,0H56.69V9.12H42.52ZM0,23.7H7.09v3.64H0Zm21.26,0H56.69v3.64H21.26ZM49.61,41.92h7.08v3.65H49.61ZM0,41.92H35.43v3.65H0Z"/></g></g></g></svg>