<svg id="Layer_1" data-name="Layer 1" xmlns="http://www.w3.org/2000/svg" width="55.67" height="56.69" viewBox="0 0 55.67 56.69"><defs><style>.cls-1{fill:#7a7a7a;}.cls-1,.cls-2,.cls-3,.cls-5,.cls-6,.cls-7,.cls-8,.cls-9{fill-rule:evenodd;}.cls-2{fill:#a0a1a2;}.cls-3,.cls-7,.cls-8,.cls-9{fill:#fff;}.cls-3{fill-opacity:0.2;}.cls-4,.cls-5{fill:#59b4d9;}.cls-6{fill:#b8d432;}.cls-8{fill-opacity:0.7;}.cls-9{fill-opacity:0.4;}.cls-10{fill:#804998;}</style></defs><g id="group2448-1"><g id="group2449-2"><g id="shape2450-3"><path class="cls-1" d="M35.7,40H20.26c1.85,6.68-.25,8.65-11.17,8.65v3.48H45.84v-3.5C34.92,48.67,33.85,46.73,35.7,40Z"/></g><g id="shape2451-5"><path class="cls-2" d="M51.09,16.65H3.1A3.25,3.25,0,0,0,0,20V53.42a3.23,3.23,0,0,0,3.1,3.27h48a3.55,3.55,0,0,0,3.45-3.27V20A3.57,3.57,0,0,0,51.09,16.65Z"/></g><g id="shape2452-7"><path class="cls-3" d="M51,0H3.09A3.25,3.25,0,0,0,0,3.3V36.77A3.23,3.23,0,0,0,3.09,40H4.28Z"/></g><g id="shape2453-9"><rect class="cls-4" x="4.54" y="4.64" width="45.45" height="31.3"/></g><g id="shape2454-11"><path class="cls-5" d="M4.48,35.58h.07V4.46l41.5-.07h0L4.48,4.46Z"/></g><g id="shape2455-13"><path class="cls-2" d="M9.09,48.69l36.75,0v3.5H9.09Z"/></g><g id="shape2456-15"><path class="cls-6" d="M28.07,2.32a.81.81,0,1,1-.81-.82A.81.81,0,0,1,28.07,2.32Z"/></g><g id="shape2457-17"><path class="cls-7" d="M27.3,18.89a.42.42,0,0,1-.15,0l-9.56-5.63a.31.31,0,0,1-.11-.41.35.35,0,0,1,.11-.1l9.51-5.6a.28.28,0,0,1,.28,0L37,12.74a.29.29,0,0,1,.14.25.29.29,0,0,1-.14.26l-9.5,5.6a.28.28,0,0,1-.15,0Z"/></g><g id="shape2458-19"><path class="cls-8" d="M25.85,32.74a.33.33,0,0,1-.14,0l-9.54-5.55a.3.3,0,0,1-.15-.26V15.76a.28.28,0,0,1,.15-.25.26.26,0,0,1,.29,0L26,21.05a.29.29,0,0,1,.14.25V32.45a.31.31,0,0,1-.14.25.33.33,0,0,1-.14,0Z"/></g><g id="shape2459-21"><path class="cls-9" d="M28.69,32.74a.42.42,0,0,1-.15,0,.33.33,0,0,1-.14-.26V21.38a.33.33,0,0,1,.14-.26l9.53-5.54a.26.26,0,0,1,.29,0,.27.27,0,0,1,.14.25V26.9a.29.29,0,0,1-.14.25L28.83,32.7a.33.33,0,0,1-.14,0Z"/></g><g id="shape2460-23"><ellipse class="cls-10" cx="13.52" cy="42.89" rx="13.52" ry="13.8"/></g><g id="shape2461-25"><path class="cls-7" d="M46.23,49.22a6.78,6.78,0,0,1-3.06.75A7.07,7.07,0,1,1,50,41.74H46.58l4.54,6.38,4.55-6.38H52.88a9.8,9.8,0,1,0-9.71,11.15,9.74,9.74,0,0,0,4.77-1.28Z"/></g></g></g></svg>