<svg id="Layer_1" data-name="Layer 1" xmlns="http://www.w3.org/2000/svg" xmlns:xlink="http://www.w3.org/1999/xlink" width="56.69" height="53.86" viewBox="0 0 56.69 53.86"><defs><style>.cls-1{fill:#e27908;fill-rule:evenodd;}.cls-2{fill:url(#linear-gradient);}.cls-3{fill:url(#linear-gradient-2);}.cls-4{fill:url(#linear-gradient-3);}.cls-5{fill:url(#linear-gradient-4);}.cls-6{fill:url(#linear-gradient-5);}</style><linearGradient id="linear-gradient" x1="-298.2" y1="408.15" x2="-297.2" y2="408.15" gradientTransform="matrix(-0.01, -15.87, -15.97, 0.01, 6521.79, -4684.17)" gradientUnits="userSpaceOnUse"><stop offset="0" stop-color="#ef7100"/><stop offset="1" stop-color="#faa21d"/></linearGradient><linearGradient id="linear-gradient-2" x1="-298.19" y1="408.13" x2="-297.19" y2="408.13" gradientTransform="matrix(0, -15.87, -15.97, 0, 6524.66, -4679.8)" xlink:href="#linear-gradient"/><linearGradient id="linear-gradient-3" x1="-298.19" y1="408.13" x2="-297.19" y2="408.13" gradientTransform="matrix(0, -15.87, -15.97, 0, 6565.39, -4703.58)" xlink:href="#linear-gradient"/><linearGradient id="linear-gradient-4" x1="-298.19" y1="408.13" x2="-297.19" y2="408.13" gradientTransform="matrix(0, -15.87, -15.97, 0, 6524.66, -4703.58)" xlink:href="#linear-gradient"/><linearGradient id="linear-gradient-5" x1="-298.19" y1="408.13" x2="-297.19" y2="408.13" gradientTransform="matrix(0, -15.87, -15.97, 0, 6545.03, -4717.79)" xlink:href="#linear-gradient"/></defs><g id="group2382-1"><g id="shape2383-2"><path class="cls-1" d="M51,21.14,32.35,7.93,28.35,5l-4,2.89L5.72,21.14,13,43l1.52,4.63h27.8L43.76,43,51,21.3ZM17.87,43,11.41,23,28.35,10.86,45.41,23,39,43Z"/></g><g id="shape2384-4"><ellipse class="cls-2" cx="7.98" cy="45.92" rx="7.98" ry="7.94"/></g><g id="shape2385-8"><ellipse class="cls-3" cx="7.98" cy="45.92" rx="7.98" ry="7.94"/></g><g id="shape2386-12"><ellipse class="cls-4" cx="48.71" cy="22.14" rx="7.98" ry="7.94"/></g><g id="shape2387-15"><ellipse class="cls-5" cx="7.98" cy="22.14" rx="7.98" ry="7.94"/></g><g id="shape2388-18"><ellipse class="cls-6" cx="28.35" cy="7.94" rx="7.98" ry="7.94"/></g></g></svg>