<svg id="Layer_1" data-name="Layer 1" xmlns="http://www.w3.org/2000/svg" width="56.69" height="51.03" viewBox="0 0 56.69 51.03"><defs><style>.cls-1{fill:#a0a1a2;}.cls-1,.cls-2,.cls-3,.cls-4,.cls-5,.cls-6,.cls-7,.cls-8,.cls-9{fill-rule:evenodd;}.cls-2{fill:#7a7a7a;}.cls-3,.cls-9{fill:#3e3e3e;}.cls-4{fill:#e5e5e5;}.cls-5{fill:#0070c9;}.cls-6{fill:#000e92;}.cls-7,.cls-8{fill:#fff;}.cls-8{fill-opacity:0.25;}.cls-9{fill-opacity:0.2;}</style></defs><g id="group2367-1"><g id="shape2368-2"><path class="cls-1" d="M14.51,21.84l13.61-5.52V0L14.4,5.64Z"/></g><g id="shape2369-4"><path class="cls-2" d="M41.61,5,28.12,0V27.47l13.49-5.63Z"/></g><g id="shape2370-6"><path class="cls-3" d="M41.61,21.84,28.12,27.47,14.51,21.84l13.61-5.4Z"/></g><g id="shape2371-8"><path class="cls-1" d="M0,45.4,13.72,40V23.57L0,30.58Z"/></g><g id="shape2372-10"><path class="cls-2" d="M13.61,29.77.11,23.56v.23L0,51,13.61,45.4Z"/></g><g id="shape2373-12"><path class="cls-3" d="M27.21,45.4,13.72,51,0,45.4,13.72,40Z"/></g><g id="shape2374-14"><path class="cls-4" d="M29.48,45.4,43.2,40V23.57L29.48,29.89Z"/></g><g id="shape2375-16"><path class="cls-1" d="M13.61,29.77.11,23.56v.23L0,51,13.61,45.4Z"/></g><g id="shape2376-18"><path class="cls-5" d="M56.69,45.4,43.2,51,29.48,45.4,43.2,40Z"/></g><g id="shape2377-20"><path class="cls-6" d="M50.8,43.33H35.49A1.51,1.51,0,0,1,34,41.84v-10a1.32,1.32,0,0,1,1.36-1.38H50.69A1.51,1.51,0,0,1,52.16,32v9.89A1.35,1.35,0,0,1,50.8,43.33Z"/></g><g id="shape2378-22"><path class="cls-7" d="M40.59,42.18,35.49,37,40.71,32l1,1-4.31,4,4.08,4.25Z"/></g><g id="shape2379-24"><path class="cls-7" d="M45.47,42.18,50.57,37,45.36,32l-.91,1,4.2,4-4.09,4.25Z"/></g><g id="shape2380-26"><path class="cls-8" d="M46,30.46H35.38a1.36,1.36,0,0,0-1.25,1.38V42a1.47,1.47,0,0,0,1.36,1.38h4.08Z"/></g><g id="shape2381-28"><path class="cls-9" d="M35.26,30.46l7.48-1.84,7.94,1.84Z"/></g></g></svg>