<svg id="Layer_1" data-name="Layer 1" xmlns="http://www.w3.org/2000/svg" xmlns:xlink="http://www.w3.org/1999/xlink" width="53.86" height="56.7" viewBox="0 0 53.86 56.7"><defs><style>.cls-1,.cls-2,.cls-3,.cls-4,.cls-5{fill-rule:evenodd;}.cls-1{fill:url(#linear-gradient);}.cls-2{fill:#f2f2f2;}.cls-3{fill:#a67af4;}.cls-4{fill:#552f99;}.cls-5{fill:#b77af4;fill-opacity:0.75;}</style><linearGradient id="linear-gradient" x1="-287.26" y1="420.55" x2="-286.26" y2="420.55" gradientTransform="matrix(0, -37.63, -53.86, 0, 22677.76, -10772.41)" gradientUnits="userSpaceOnUse"><stop offset="0" stop-color="#0078d4"/><stop offset="0.16" stop-color="#1380da"/><stop offset="0.53" stop-color="#3c91e5"/><stop offset="0.82" stop-color="#559cec"/><stop offset="1" stop-color="#5ea0ef"/></linearGradient></defs><g id="group2425-1"><g id="shape2426-2"><path class="cls-1" d="M53.86,25.84A11.94,11.94,0,0,0,43.37,14.39,15.12,15.12,0,0,0,27.68,0a15.65,15.65,0,0,0-14.92,10A14.34,14.34,0,0,0,0,23.73,14.57,14.57,0,0,0,15.15,37.61H41a2.22,2.22,0,0,0,.63,0A12.17,12.17,0,0,0,53.86,25.84Z"/></g><g id="shape2427-6"><path class="cls-2" d="M18.57,20.34l8.22-8.12a1,1,0,0,1,1.39,0h0l8.27,8.15a.44.44,0,0,1,0,.62.42.42,0,0,1-.32.13H31.07a.41.41,0,0,0-.45.37V31.72a.35.35,0,0,1-.36.34H24.72a.36.36,0,0,1-.36-.35V21.66a.41.41,0,0,0-.21-.54l-.08,0H18.85a.46.46,0,0,1-.43-.47.47.47,0,0,1,.14-.29Z"/></g><g id="shape2428-8"><path class="cls-3" d="M42.77,35.78a.46.46,0,0,0-.29-.41l-15-5h-.41V56.64h.41l15-5.91a.43.43,0,0,0,.25-.41Z"/></g><g id="shape2429-10"><path class="cls-4" d="M14.76,30.46.38,33.07a.44.44,0,0,0-.38.41V53.11a.44.44,0,0,0,.35.44L14.76,56.7a.45.45,0,0,0,.51-.37V31.09a.43.43,0,0,0-.19-.59.45.45,0,0,0-.32,0Z"/></g><g id="shape2430-12"><path class="cls-5" d="M25.33,33.52l-5,.85V52.64l5,.79Z"/></g><g id="shape2431-14"><path class="cls-5" d="M18.53,34.64l-4.37.73v16l4.37.88Z"/></g></g></svg>