<svg id="Layer_1" data-name="Layer 1" xmlns="http://www.w3.org/2000/svg" xmlns:xlink="http://www.w3.org/1999/xlink" width="56.7" height="51.02" viewBox="0 0 56.7 51.02"><defs><style>.cls-1,.cls-3,.cls-4,.cls-5,.cls-6,.cls-7,.cls-8,.cls-9{fill-rule:evenodd;}.cls-1{fill:url(#linear-gradient);}.cls-2{fill:none;}.cls-3{fill:#341a6e;}.cls-4{fill:url(#linear-gradient-2);}.cls-5{fill:url(#linear-gradient-3);}.cls-6{fill:url(#linear-gradient-4);}.cls-7{fill:url(#linear-gradient-5);}.cls-8{fill:url(#linear-gradient-6);}.cls-9{fill:url(#linear-gradient-7);}</style><linearGradient id="linear-gradient" x1="-263.26" y1="400.71" x2="-262.26" y2="400.71" gradientTransform="matrix(17.97, 0, 0, -16.17, 4739.9, 6487.48)" gradientUnits="userSpaceOnUse"><stop offset="0" stop-color="#b77af4"/><stop offset="1" stop-color="#773adc"/></linearGradient><linearGradient id="linear-gradient-2" x1="-263.23" y1="400.71" x2="-262.23" y2="400.71" gradientTransform="matrix(17.94, 0, 0, -16.17, 4751, 6487.64)" xlink:href="#linear-gradient"/><linearGradient id="linear-gradient-3" x1="-263.26" y1="400.71" x2="-262.26" y2="400.71" gradientTransform="matrix(17.97, 0, 0, -16.17, 4730.71, 6504.75)" xlink:href="#linear-gradient"/><linearGradient id="linear-gradient-4" x1="-263.23" y1="400.75" x2="-262.23" y2="400.75" gradientTransform="matrix(17.94, 0, 0, -16.2, 4741.75, 6517.28)" xlink:href="#linear-gradient"/><linearGradient id="linear-gradient-5" x1="-263.26" y1="400.71" x2="-262.26" y2="400.71" gradientTransform="matrix(17.97, 0, 0, -16.17, 4769.41, 6504.78)" xlink:href="#linear-gradient"/><linearGradient id="linear-gradient-6" x1="-263.26" y1="400.71" x2="-262.26" y2="400.71" gradientTransform="matrix(17.97, 0, 0, -16.17, 4739.68, 6522.2)" xlink:href="#linear-gradient"/><linearGradient id="linear-gradient-7" x1="-263.26" y1="400.71" x2="-262.26" y2="400.71" gradientTransform="matrix(17.97, 0, 0, -16.17, 4730.68, 6522.33)" xlink:href="#linear-gradient"/></defs><g id="group2408-1"><g id="shape2409-2"><path class="cls-1" d="M9.22,1.7V14.22l9,2,9-3.69V3.14L18.19,0Z"/></g><g id="shape2410-6"><path class="cls-2" d="M18.53,16l8.22-3.41a.59.59,0,0,0,.37-.44V3.65a.67.67,0,0,0-.41-.57L18.41.2H18L9.88,1.73a.64.64,0,0,0-.47.58V13.63a.6.6,0,0,0,.47.61L18.13,16a.91.91,0,0,0,.4,0Z"/></g><g id="shape2411-8"><path class="cls-3" d="M9.22,1.7V14.22l9.06,2V.13Zm3.83,11.55-2.54-.51V3.11l2.54-.41ZM17,14l-2.92-.48V2.5L17,2Z"/></g><g id="shape2412-10"><path class="cls-4" d="M28.63,1.86V14.38l9,1.95,9-3.72V3.3L37.6.16Z"/></g><g id="shape2413-13"><path class="cls-3" d="M28.63,1.86V14.38l9,1.95V.29Zm3.79,11.55-2.54-.51V3.27l2.54-.41Zm4,.74-2.92-.48v-11l2.92-.54Z"/></g><g id="shape2414-15"><path class="cls-5" d="M0,19V31.48l9,1.95,9-3.69V20.4L9,17.26Z"/></g><g id="shape2415-18"><path class="cls-3" d="M0,19V31.39l9.06,2v-16ZM3.79,30.55,1.25,30V20.38l2.54-.45Zm4,.84L4.86,30.9V19.77l2.92-.51Z"/></g><g id="shape2416-20"><path class="cls-6" d="M19.38,18.84V31.35l9,2,9-3.72V20.28l-9-3.14Z"/></g><g id="shape2417-23"><path class="cls-3" d="M19.38,18.84V31.39l9,2v-16Zm3.79,11.58-2.54-.54V20.25l2.54-.45Zm4,.71-2.92-.48v-11l2.92-.51Z"/></g><g id="shape2418-25"><path class="cls-7" d="M38.73,19V31.52l9,1.95,9-3.69V20.44l-9-3.14Z"/></g><g id="shape2419-28"><path class="cls-3" d="M38.73,19V31.39l9.06,2v-16Zm3.83,11.58L40,30V20.41L42.56,20Zm3.95.71-2.92-.48v-11l2.92-.51Z"/></g><g id="shape2420-30"><path class="cls-8" d="M9,36.39V48.9l9,2,9-3.72V37.86l-9-3.14Z"/></g><g id="shape2421-33"><path class="cls-2" d="M18.32,50.64l8.18-3.21a.58.58,0,0,0,.37-.58V38.51a.66.66,0,0,0-.41-.71l-8.28-2.89a.5.5,0,0,0-.38,0L9.66,36.42a.61.61,0,0,0-.51.61V48.39a.6.6,0,0,0,.47.61l8.25,1.64a.66.66,0,0,0,.44,0Z"/></g><g id="shape2422-35"><path class="cls-3" d="M9,36.39V48.9l9.06,2V34.59ZM12.83,48l-2.54-.54V37.8l2.54-.45Zm4,.74-2.92-.48v-11l2.92-.51Z"/></g><g id="shape2423-37"><path class="cls-9" d="M0,36.55V49.07l9,2,9-3.69V38L9,34.85Z"/></g><g id="shape2424-40"><path class="cls-3" d="M0,36.55V49.07l9.06,2V35ZM3.83,48.14l-2.54-.55V38l2.54-.45Zm4,.7-2.92-.48v-11l2.92-.51Z"/></g></g></svg>