<svg id="Layer_1" data-name="Layer 1" xmlns="http://www.w3.org/2000/svg" xmlns:xlink="http://www.w3.org/1999/xlink" width="56.69" height="48.2" viewBox="0 0 56.69 48.2"><defs><style>.cls-1,.cls-3,.cls-4,.cls-5,.cls-6,.cls-7{fill-rule:evenodd;}.cls-1{fill:url(#linear-gradient);}.cls-2{fill:none;}.cls-3{fill:#767676;}.cls-4{fill:#999;}.cls-5{fill:#a3a3a3;}.cls-6{fill:#b3b3b3;}.cls-7{fill:url(#linear-gradient-2);}</style><linearGradient id="linear-gradient" x1="-285.11" y1="416.59" x2="-284.11" y2="416.59" gradientTransform="matrix(0, -39.1, -54.74, 0, 22831.13, -11108.99)" gradientUnits="userSpaceOnUse"><stop offset="0" stop-color="#0078d4"/><stop offset="0.16" stop-color="#1380da"/><stop offset="0.53" stop-color="#3c91e5"/><stop offset="0.82" stop-color="#559cec"/><stop offset="1" stop-color="#5ea0ef"/></linearGradient><linearGradient id="linear-gradient-2" x1="-232.3" y1="428.79" x2="-231.3" y2="428.79" gradientTransform="matrix(0, 7.68, 31.7, 0, -13551.73, 1812.24)" gradientUnits="userSpaceOnUse"><stop offset="0" stop-color="#333132"/><stop offset="1" stop-color="#5b5a5c"/></linearGradient></defs><g id="group2389-1"><g id="shape2390-2"><path class="cls-1" d="M51.12,18.49a13.21,13.21,0,0,0-7-3.56A15.53,15.53,0,0,0,28.05,0,16,16,0,0,0,12.79,10.45,14.63,14.63,0,0,0,0,24.68,15,15,0,0,0,15.41,39.09h27A12.65,12.65,0,0,0,54.74,27a11.68,11.68,0,0,0-3.59-8.35Z"/><path class="cls-2" d="M51.12,18.49a13.21,13.21,0,0,0-7-3.56A15.53,15.53,0,0,0,28.05,0,16,16,0,0,0,12.79,10.45,14.63,14.63,0,0,0,0,24.68,15,15,0,0,0,15.41,39.09h27A12.65,12.65,0,0,0,54.74,27a11.68,11.68,0,0,0-3.59-8.35"/></g><g id="shape2391-7"><path class="cls-3" d="M56.69,24.08l-25-9.46,0,13.58,24.93,5.34Z"/></g><g id="shape2392-9"><path class="cls-4" d="M31.73,14.62,25,18.74V31.38l6.78-3.18Z"/><path class="cls-2" d="M31.73,14.62,25,18.74V31.38l6.78-3.18"/></g><g id="shape2393-12"><path class="cls-5" d="M43.11,20.84v7.55l2.27.64v-7.4Z"/></g><g id="shape2394-14"><path class="cls-5" d="M40.84,27.82V20.1l-2.27-.82v7.9Z"/></g><g id="shape2395-16"><path class="cls-5" d="M47.65,22.43v7.2l2.21.61.06-7Z"/></g><g id="shape2396-18"><path class="cls-5" d="M34.07,17.78V26l2.27.57v-8Z"/></g><g id="shape2397-20"><path class="cls-5" d="M54.42,31.47V24.74l-2.27-.8v6.89Z"/></g><g id="shape2398-22"><path class="cls-6" d="M27.29,28l-1.13.67v-9l1.13-.6Zm2.24-10.22-1.16.76v8.73l1.16-.63Z"/></g><g id="shape2399-24"><path class="cls-7" d="M31.77,28.21l24.92,5.33-6.8,2.35L25,31.38Z"/></g><g id="shape2400-28"><path class="cls-3" d="M56.69,34.93v8.28l-25,4.8.13-17.75Z"/></g><g id="shape2401-30"><path class="cls-5" d="M36.34,44.71l-2.27.38V33.82l2.27.28Z"/></g><g id="shape2402-32"><path class="cls-5" d="M40.84,34.74v9.2l-2.27.42v-10Z"/></g><g id="shape2403-34"><path class="cls-5" d="M45.38,43.18l-2.27.42V35l2.27.29Z"/></g><g id="shape2404-36"><path class="cls-5" d="M49.89,35.89v6.5l-2.24.42V35.54Z"/></g><g id="shape2405-38"><path class="cls-5" d="M54.32,36.4l.16,5.26-2.33.42v-6Z"/></g><g id="shape2406-40"><path class="cls-4" d="M0,43.94V33.59l6.81-3.17V48.2Z"/></g><g id="shape2407-42"><path class="cls-6" d="M27.13,43.92l-1-.51V34.65l1-.48Zm2.42-11-1.19.61v11l1.16.61V33Z"/></g></g></svg>