<svg id="Layer_1" data-name="Layer 1" xmlns="http://www.w3.org/2000/svg" xmlns:xlink="http://www.w3.org/1999/xlink" width="56.69" height="48.78" viewBox="0 0 56.69 48.78"><defs><style>.cls-1{fill:#949494;}.cls-1,.cls-2,.cls-3,.cls-4,.cls-5,.cls-6{fill-rule:evenodd;}.cls-2{fill:url(#linear-gradient);}.cls-3{fill:#83b9f9;}.cls-4{fill:#005ba1;}.cls-5{fill:#fff;}.cls-6{fill:#0078d4;}</style><linearGradient id="linear-gradient" x1="-287.9" y1="412.27" x2="-286.9" y2="412.27" gradientTransform="matrix(0, -28.9, -41.55, 0, 17150.46, -8271.44)" gradientUnits="userSpaceOnUse"><stop offset="0" stop-color="#0078d4"/><stop offset="1" stop-color="#5ea0ef"/></linearGradient></defs><g id="group2432-1"><g id="group2433-2"><g id="shape2434-3"><path class="cls-1" d="M49.89,23.49l6.24-6.36c.5-.53.33-1-.4-1H52.59a.76.76,0,0,1-.89-.62.55.55,0,0,1,0-.18c0-3.95-1-14.95-16-15.36A.77.77,0,0,0,35,.77V4.69a.8.8,0,0,0,.83.77h0a9.18,9.18,0,0,1,10.95,7A9.47,9.47,0,0,1,47,15.49a.78.78,0,0,1-.77.77h-2.9c-.73,0-.93.44-.43,1l5.8,6.36a.72.72,0,0,0,1,.14.69.69,0,0,0,.21-.24Z"/></g><g id="group2435-5"><g id="shape2436-6"><path class="cls-2" d="M0,46.87a1.91,1.91,0,0,0,1.9,1.91H39.65a1.9,1.9,0,0,0,1.9-1.91h0V21.78a1.9,1.9,0,0,0-1.9-1.9H1.9A1.9,1.9,0,0,0,0,21.78Z"/></g><g id="shape2437-10"><path class="cls-3" d="M1.9,19.88H40.19a1.36,1.36,0,0,1,1.36,1.37v5.49H0v-5A1.9,1.9,0,0,1,1.9,19.88Z"/></g></g><g id="shape2438-12"><path class="cls-4" d="M30.28,47.57a1.2,1.2,0,0,0,1.2,1.21h24a1.2,1.2,0,0,0,1.2-1.2h0V31.62a1.2,1.2,0,0,0-1.19-1.21h-24a1.2,1.2,0,0,0-1.2,1.2h0Z"/></g><g id="shape2439-14"><path class="cls-5" d="M6,4.46H35.55a.63.63,0,0,1,.63.6V8.14a.64.64,0,0,1-.64.6H6a.64.64,0,0,1-.64-.6v-3a.64.64,0,0,1,.6-.67Z"/></g><g id="shape2440-16"><path class="cls-5" d="M6,10.61H35.58a.63.63,0,0,1,.63.61v3.1a.64.64,0,0,1-.63.57H6a.59.59,0,0,1-.63-.56h0V11.21a.6.6,0,0,1,.6-.6Z"/></g><g id="shape2441-18"><path class="cls-5" d="M6,16.84H35.58a.61.61,0,0,1,.63.6v3.08a.64.64,0,0,1-.63.6H6a.6.6,0,0,1-.63-.57V17.44a.6.6,0,0,1,.6-.61H6Z"/></g><g id="group2442-20"><g id="shape2443-21"><path class="cls-6" d="M25.91,43.62a1.2,1.2,0,0,0,1.2,1.21h24a1.2,1.2,0,0,0,1.2-1.2h0V27.67a1.2,1.2,0,0,0-1.19-1.21h-24a1.21,1.21,0,0,0-1.2,1.21h0Z"/></g><g id="shape2444-23"><path class="cls-3" d="M27.11,40.61H51.46a.87.87,0,0,1,.87.87v3.35H25.91V41.65A1.21,1.21,0,0,1,27.11,40.61Z"/></g></g><g id="shape2445-25"><path class="cls-5" d="M29.71,32.53H48.52a.38.38,0,0,1,.4.36v2a.4.4,0,0,1-.4.4H29.71a.4.4,0,0,1-.4-.41h0v-2a.37.37,0,0,1,.37-.37h0Z"/></g><g id="shape2446-27"><path class="cls-5" d="M29.71,36.44H48.52a.4.4,0,0,1,.4.4v2a.37.37,0,0,1-.36.37H29.71a.4.4,0,0,1-.4-.37v-2a.4.4,0,0,1,.4-.4Z"/></g><g id="shape2447-29"><path class="cls-5" d="M29.71,40.39H48.52a.4.4,0,0,1,.4.4v2a.37.37,0,0,1-.36.37H29.71a.4.4,0,0,1-.4-.37v-2a.39.39,0,0,1,.4-.4Z"/></g></g></g></svg>