<svg id="Layer_1" data-name="Layer 1" xmlns="http://www.w3.org/2000/svg" width="57.2" height="56.69" viewBox="0 0 57.2 56.69"><defs><style>.cls-1{fill:#3999c6;}.cls-1,.cls-2{fill-rule:evenodd;}.cls-2{fill:#fff;}</style></defs><g id="group2362-1"><g id="group2363-2"><g id="shape2364-3"><path class="cls-1" d="M11.22,50.85A28.18,28.18,0,0,1,5.87,11.14l0,0A28.75,28.75,0,0,1,46,5.84a28.16,28.16,0,0,1,5.36,39.7l0,0a28.76,28.76,0,0,1-40.08,5.27Z"/></g><g id="shape2365-5"><path class="cls-2" d="M41.46,2.92a27,27,0,0,0-4.41-1.75c-5.25,7.7-14.4,16.65-22.63,23.55-.06.05-.08.1-.14.16a37.64,37.64,0,0,1-4.15-5.67A115,115,0,0,0,5,34.73a41.23,41.23,0,0,0,18.25-1.27A72.26,72.26,0,0,1,17.21,28,114.66,114.66,0,0,0,41.46,2.92Z"/></g><g id="shape2366-7"><path class="cls-2" d="M49.06,16.35a37.64,37.64,0,0,1-5.42,5C36.06,12.86,24.27,7.09,10.92,5.93a26.42,26.42,0,0,0-5.11,5.13l-.08.11c1.17.05,2.35.13,3.54.25,11.07.9,21.35,6.63,28.36,14.32-2,1.34-4.35,2.77-7,4.28a68.31,68.31,0,0,1,18,8.75C51.05,28.54,49.06,16.35,49.06,16.35ZM28.6,36.15a6.4,6.4,0,0,0-6.43,6.37,2.85,2.85,0,0,0,0,.29,44.62,44.62,0,0,1-17.67,1A28.35,28.35,0,0,0,8.65,48.8,49.06,49.06,0,0,0,24,47a6.48,6.48,0,0,0,9.1,0,6.38,6.38,0,0,0-4.54-10.9Z"/></g></g></g></svg>