<svg id="Layer_1" data-name="Layer 1" xmlns="http://www.w3.org/2000/svg" width="51.02" height="56.7" viewBox="0 0 51.02 56.7"><defs><style>.cls-1,.cls-5,.cls-6{fill:#57a300;}.cls-1,.cls-2,.cls-4,.cls-6{fill-rule:evenodd;}.cls-2{fill:#b8d432;fill-opacity:0.4;}.cls-3,.cls-4{fill:#fff;}.cls-5,.cls-6{fill-opacity:0.2;}</style></defs><g id="group2329-1"><g id="group2330-2"><g id="shape2331-3"><path class="cls-1" d="M23.86.43,1.69,13A3.32,3.32,0,0,0,0,15.85v25a3.32,3.32,0,0,0,1.69,2.89L23.86,56.26a3.35,3.35,0,0,0,3.3,0L49.33,43.72A3.32,3.32,0,0,0,51,40.83v-25A3.32,3.32,0,0,0,49.33,13L27.16.43A3.4,3.4,0,0,0,23.86.43Z"/></g><g id="shape2332-5"><path class="cls-2" d="M34.22,8.88l-7.06-4a3.4,3.4,0,0,0-3.3,0L1.69,17.43A3.34,3.34,0,0,0,0,20.32v25a3.32,3.32,0,0,0,1.69,2.89l15,8.5Z"/></g><g id="shape2333-7"><ellipse class="cls-3" cx="25.51" cy="8.73" rx="3.36" ry="3.35"/></g><g id="shape2334-9"><ellipse class="cls-3" cx="25.51" cy="47.96" rx="3.36" ry="3.35"/></g><g id="shape2335-11"><path class="cls-4" d="M37.13,34.86c0,4.9-4.88,8.45-11.6,8.45-5.91,0-9.62-2.22-11.32-6.77L20,35.45c.75,1.61,2.4,3.44,6,3.44s5-2.17,5-3.54c0-2.84-3.45-3.83-4.94-4.12C19.76,30,15.3,28.55,15.3,21.37c0-5.89,5.51-8,10.23-8,5.16,0,8.51,1.69,10.25,5.18l-5,1.58a5.63,5.63,0,0,0-5.18-2.71c-3.42,0-4.32,2.34-4.32,3.58,0,1.71,1.71,3.21,4.36,3.82a51.54,51.54,0,0,1,7,1.93C34.83,27.67,37.13,30.27,37.13,34.86Z"/></g><g id="shape2336-13"><ellipse class="cls-5" cx="25.51" cy="8.73" rx="3.36" ry="3.35"/></g><g id="shape2337-15"><ellipse class="cls-5" cx="25.51" cy="47.96" rx="3.36" ry="3.35"/></g><g id="shape2338-17"><path class="cls-6" d="M37.13,34.86c0,4.9-4.88,8.45-11.6,8.45-5.91,0-9.62-2.22-11.32-6.77L20,35.45c.75,1.61,2.4,3.44,6,3.44s5-2.17,5-3.54c0-2.84-3.45-3.83-4.94-4.12C19.76,30,15.3,28.55,15.3,21.37c0-5.89,5.51-8,10.23-8,5.16,0,8.51,1.69,10.25,5.18l-5,1.58a5.63,5.63,0,0,0-5.18-2.71c-3.42,0-4.32,2.34-4.32,3.58,0,1.71,1.71,3.21,4.36,3.82a51.54,51.54,0,0,1,7,1.93C34.83,27.67,37.13,30.27,37.13,34.86Z"/></g></g></g></svg>