<svg id="Layer_1" data-name="Layer 1" xmlns="http://www.w3.org/2000/svg" xmlns:xlink="http://www.w3.org/1999/xlink" width="49.13" height="32.77" viewBox="0 0 49.13 32.77"><defs><style>.cls-1{fill:#0078d4;}.cls-1,.cls-2,.cls-3{fill-rule:evenodd;}.cls-2{fill:url(#linear-gradient);}.cls-3{fill:#fff;}.cls-4{fill:#e6e6e6;}</style><linearGradient id="linear-gradient" x1="-266.78" y1="409.99" x2="-265.78" y2="409.99" gradientTransform="matrix(0, 32.77, 49.13, 0, -20118.01, 8742.29)" gradientUnits="userSpaceOnUse"><stop offset="0.23" stop-color="#32d4f5"/><stop offset="0.47" stop-color="#31d1f3"/><stop offset="0.64" stop-color="#2ec9eb"/><stop offset="0.77" stop-color="#29bade"/><stop offset="0.89" stop-color="#22a5cb"/><stop offset="1" stop-color="#198ab3"/></linearGradient></defs><g id="group2322-1"><g id="group2323-2"><g id="group2324-3"><g id="shape2325-4"><path class="cls-1" d="M49.13,28.92a3.81,3.81,0,0,1-3.78,3.85H3.78A3.81,3.81,0,0,1,0,28.92V3.86A3.82,3.82,0,0,1,3.77,0H45.35a3.81,3.81,0,0,1,3.78,3.85h0Z"/></g><g id="shape2326-6"><path class="cls-2" d="M49.13,28.91a3.82,3.82,0,0,1-3.78,3.86H3.78A3.82,3.82,0,0,1,0,28.91H0v-25A3.82,3.82,0,0,1,3.78,0H45.35a3.82,3.82,0,0,1,3.78,3.86h0Z"/></g><g id="shape2327-10"><path class="cls-3" d="M33.07,17.35h5.67a1,1,0,0,1,.94,1v1.93a1,1,0,0,1-.94,1H33.07a1,1,0,0,1-1-1h0V18.32a1,1,0,0,1,.95-1h0Zm9.45,0h5.67a1,1,0,0,1,.94,1v1.93a1,1,0,0,1-.94,1H42.52a1,1,0,0,1-.94-1V18.32a1,1,0,0,1,.94-1Zm-28.35,0h5.67a1,1,0,0,1,.94,1v1.93a1,1,0,0,1-.94,1H14.17a1,1,0,0,1-.94-1V18.32a1,1,0,0,1,.94-1Zm0,7.71H27.4a1,1,0,0,1,.94,1h0a1,1,0,0,1-.94,1H14.17a1,1,0,0,1,0-1.93Zm18.9,0h3.78a1,1,0,0,1,.94,1h0a1,1,0,0,1-.94,1H33.07a1,1,0,0,1-1-1h0a1,1,0,0,1,1-1Zm-9.45-7.71h5.67a1,1,0,0,1,.95,1h0v1.93a1,1,0,0,1-.95,1H23.62a1,1,0,0,1-.94-1V18.32a1,1,0,0,1,.94-1ZM22.68,12a1.56,1.56,0,0,1-1.61,1.5H14.83a1.56,1.56,0,0,1-1.6-1.5V7.71c0-.83.72-1.93,1.6-1.93h6.24a1.55,1.55,0,0,1,1.61,1.5h0Z"/></g><g id="shape2328-12"><rect class="cls-4" y="28.92" width="49.13" height="3.85"/></g></g></g></g></svg>