<svg id="Layer_1" data-name="Layer 1" xmlns="http://www.w3.org/2000/svg" xmlns:xlink="http://www.w3.org/1999/xlink" width="53.86" height="56.69" viewBox="0 0 53.86 56.69"><defs><style>.cls-1{fill:#258277;}.cls-1,.cls-2,.cls-4,.cls-5,.cls-6{fill-rule:evenodd;}.cls-2{fill:#ffca00;}.cls-3{fill:none;}.cls-4{fill:url(#radial-gradient);}.cls-5{fill:#ccc;}.cls-6{fill:#999;}</style><radialGradient id="radial-gradient" cx="-271.93" cy="429.77" r="1.4" gradientTransform="matrix(42.31, 0, 0, -53.33, 11505.51, 22923.05)" gradientUnits="userSpaceOnUse"><stop offset="0" stop-color="#76bc2d"/><stop offset="0.41" stop-color="#74b92c"/><stop offset="0.66" stop-color="#6fb12a"/><stop offset="0.88" stop-color="#66a227"/><stop offset="1" stop-color="#5e9624"/></radialGradient></defs><g id="group2339-1"><g id="shape2340-2"><path class="cls-1" d="M30.07,32.53a3.43,3.43,0,0,1-1,2.64,4.67,4.67,0,0,1-2.82,1.23v2h-1.4V36.33a7.25,7.25,0,0,1-3.48-.93V32.7a5.69,5.69,0,0,0,1.58.83,8.26,8.26,0,0,0,1.9.47V30.53A7.68,7.68,0,0,1,22,28.77a4,4,0,0,1,.19-5.17,4.38,4.38,0,0,1,2.69-1.27V20.5h1.37v1.8a6.58,6.58,0,0,1,2.92.67v2.66a6.87,6.87,0,0,0-2.92-1v3.8a7.3,7.3,0,0,1,2.92,1.8A3.37,3.37,0,0,1,30.07,32.53Zm-5.21-4.76v-3.1a1.32,1.32,0,0,0-1.14,1.4A1.93,1.93,0,0,0,25,27.77Zm2.7,4.9c0-.64-.44-1.14-1.33-1.57v3C27.12,33.93,27.56,33.47,27.56,32.67Z"/></g><g id="shape2341-4"><path class="cls-2" d="M50.81,30H39.39A15.07,15.07,0,0,1,34.7,41l7.58,9a27.24,27.24,0,0,0,8.53-20Z"/><path class="cls-3" d="M50.81,30H39.39A15.07,15.07,0,0,1,34.7,41l7.58,9a27.24,27.24,0,0,0,8.53-20"/></g><g id="shape2342-7"><path class="cls-4" d="M25.37,44.82c-7.76,0-14-6.61-14-14.76s6.29-14.77,14.05-14.77V3.36C11.36,3.37,0,15.31,0,30H0C0,44.76,11.36,56.69,25.37,56.69A24.66,24.66,0,0,0,42.31,50l-7.61-9A13.48,13.48,0,0,1,25.37,44.82Z"/></g><g id="shape2343-11"><path class="cls-5" d="M24.2,0V13.86c8.92-.15,16.26,7.32,16.4,16.69v.58H53.86C53.86,13.94,40.6,0,24.24,0Z"/></g><g id="shape2344-13"><path class="cls-6" d="M40.66,31.13c.09-9.42-7.08-17.14-16-17.27H24.2l1.05,2.07c7.25.45,13,6.55,13.41,14.17Z"/></g></g></svg>