<svg id="Layer_1" data-name="Layer 1" xmlns="http://www.w3.org/2000/svg" width="56.66" height="56.67" viewBox="0 0 56.66 56.67"><defs><style>.cls-1{fill:#57a300;}.cls-1,.cls-3{fill-rule:evenodd;}.cls-2,.cls-3{fill:#fff;fill-opacity:0.9;}</style></defs><g id="group2356-1"><g id="group2357-2"><g id="shape2358-3"><path class="cls-1" d="M49.16,0h-42C3,0,0,2.48,0,6.61V36.33c0,4.2,3,7.92,7.18,8l14.38-.1L35.17,56.67V44.2L49,44.36a7.5,7.5,0,0,0,7.56-7.47l.06-29.83C56.69,2.93,53.32,0,49.16,0Z"/></g><g id="shape2359-5"><circle class="cls-2" cx="28.33" cy="5.66" r="2.79"/></g><g id="shape2360-7"><circle class="cls-2" cx="28.33" cy="39.67" r="2.79"/></g><g id="shape2361-9"><path class="cls-3" d="M37.84,28.1c0,4.08-4.05,7-9.63,7-4.9,0-8-1.85-9.39-5.65l4.79-.91c.62,1.34,2,2.87,5,2.87s4.14-1.81,4.14-2.95c0-2.38-2.86-3.2-4.09-3.44-5.23-1-8.93-2.24-8.93-8.22,0-4.92,4.57-6.67,8.48-6.67,4.29,0,7.07,1.42,8.51,4.33l-4.14,1.31a4.67,4.67,0,0,0-4.29-2.26c-2.84,0-3.59,2-3.59,3,0,1.43,1.42,2.68,3.62,3.19a41.67,41.67,0,0,1,5.82,1.61C35.93,22.1,37.84,24.27,37.84,28.1Z"/></g></g></g></svg>