<svg id="Layer_1" data-name="Layer 1" xmlns="http://www.w3.org/2000/svg" width="45.07" height="56.69" viewBox="0 0 45.07 56.69"><defs><style>.cls-1,.cls-2{fill:#57a300;}.cls-2,.cls-3,.cls-4,.cls-6,.cls-7{fill-rule:evenodd;}.cls-4{fill-opacity:0.4;}.cls-5,.cls-7{fill:#fff;}.cls-6{fill:#b8d432;}.cls-7{fill-opacity:0.5;}</style></defs><g id="group2345-1"><g id="group2346-2"><g id="shape2347-3"><ellipse class="cls-1" cx="13.25" cy="3.94" rx="4.03" ry="3.94"/></g><g id="shape2348-5"><ellipse class="cls-1" cx="13.25" cy="50.8" rx="4.03" ry="3.94"/></g><g id="shape2349-7"><path class="cls-2" d="M27.45,35c0,5.77-5.84,10-13.89,10C6.47,45,2,42.38,0,37l6.91-1.27c.9,1.89,2.87,4,7.22,4s6-2.56,6-4.17c0-3.35-4.13-4.52-5.91-4.86C6.65,29.3,1.31,27.61,1.31,19.15c0-6.93,6.6-9.4,12.25-9.4,6.18,0,10.19,2,12.27,6.11l-6,1.85a6.77,6.77,0,0,0-6.2-3.19c-4.09,0-5.18,2.76-5.18,4.22,0,2,2,3.78,5.23,4.5a62,62,0,0,1,8.4,2.27C24.69,26.57,27.45,29.64,27.45,35Z"/></g><g id="shape2350-9"><path class="cls-3" d="M11.34,56.69A2.44,2.44,0,0,1,9.6,56L0,46.6l3.49-3.42,9.6,9.39a2.38,2.38,0,0,1,0,3.42A2.49,2.49,0,0,1,11.34,56.69Z"/></g><g id="shape2351-11"><path class="cls-4" d="M38.38,47.56l3.49-3.42L44,46.26a12.91,12.91,0,0,1-3.49,3.42Z"/></g><g id="shape2352-13"><ellipse class="cls-5" cx="29.21" cy="35.17" rx="12.8" ry="12.52"/></g><g id="shape2353-15"><path class="cls-6" d="M18.23,30.11c2,.88,4.48,3,4.48,5.5,0,1.42-1.68,4.28-4.26,5.29.76,2.17,2.62,4.12,4.22,5.72a12,12,0,0,0,8.41-11.48c0-6.61-4-10.36-7.15-11.66C23.68,23.38,19.18,27,18.23,30.11Z"/></g><g id="shape2354-17"><path class="cls-7" d="M29.21,24.89a10.28,10.28,0,1,1-10.5,10.28A10.4,10.4,0,0,1,29.21,24.89Zm0-1.2A11.48,11.48,0,1,0,41,35.17,11.61,11.61,0,0,0,29.21,23.69Z"/></g><g id="shape2355-19"><path class="cls-3" d="M13.38,35.19a15.67,15.67,0,0,0,15.85,15.5,15.5,15.5,0,1,0,0-31A15.67,15.67,0,0,0,13.38,35.19Zm4.1,0A11.75,11.75,0,1,1,29.23,46.67,11.62,11.62,0,0,1,17.48,35.19Z"/></g></g></g></svg>