<svg id="Layer_1" data-name="Layer 1" xmlns="http://www.w3.org/2000/svg" xmlns:xlink="http://www.w3.org/1999/xlink" width="56.72" height="56.7" viewBox="0 0 56.72 56.7"><defs><style>.cls-1,.cls-2,.cls-4,.cls-5,.cls-6{fill-rule:evenodd;}.cls-1{fill:url(#linear-gradient);}.cls-2{fill:#fff;}.cls-3{fill:url(#linear-gradient-2);}.cls-4{fill:#50e6ff;}.cls-5{fill:#32bedd;}.cls-6{fill:#f2f2f2;}</style><linearGradient id="linear-gradient" x1="-287.33" y1="420.21" x2="-286.33" y2="420.21" gradientTransform="matrix(0, -30.28, -49.1, 0, 20658.46, -8643.52)" gradientUnits="userSpaceOnUse"><stop offset="0" stop-color="#773adc"/><stop offset="1" stop-color="#b77af4"/></linearGradient><linearGradient id="linear-gradient-2" x1="-288.2" y1="416.36" x2="-287.2" y2="416.36" gradientTransform="matrix(0, -28.04, -27.56, 0, 11500.24, -8053.38)" xlink:href="#linear-gradient"/></defs><g id="group2314-1"><g id="shape2315-2"><path class="cls-1" d="M44.7,56.7a4.41,4.41,0,0,0,4.4-4.42h0v-.54c-1.73-14-9.54-25.32-24.49-25.32S1.66,36,0,51.78a4.47,4.47,0,0,0,3.9,4.92Z"/></g><g id="shape2316-6"><path class="cls-2" d="M24.58,28a13.6,13.6,0,0,1-7.44-2.2l7.37,19.52L31.69,25.9A13.13,13.13,0,0,1,24.58,28Z"/></g><g id="shape2317-8"><ellipse class="cls-3" cx="24.58" cy="14.02" rx="13.78" ry="14.02"/></g><g id="shape2318-11"><path class="cls-4" d="M28.62,54.8a1.89,1.89,0,0,0,1.87,1.9H54.85a1.89,1.89,0,0,0,1.87-1.9h0V44.51a1.88,1.88,0,0,0-1.87-1.9H30.49a1.88,1.88,0,0,0-1.87,1.9h0Z"/></g><g id="shape2319-13"><path class="cls-5" d="M42.67,42.6H30.49a1.89,1.89,0,0,0-1.87,1.9h0V54.69a1.89,1.89,0,0,0,1.87,1.9H42.67Z"/></g><g id="shape2320-15"><path class="cls-2" d="M40.63,46.54l-.3-.34a.49.49,0,0,0-.66,0l-5.88,5.91L31.69,50a.57.57,0,0,0-.7,0l-.3.34a.44.44,0,0,0-.05.62l.05.06,2.8,2.88h.17a.52.52,0,0,0,.54,0l6.5-6.78a.44.44,0,0,0-.06-.54Z"/></g><g id="shape2321-17"><path class="cls-6" d="M53.41,52.86,50.61,50l2.77-2.82a.48.48,0,0,0,0-.65L53,46.21a.4.4,0,0,0-.56-.08l-.07.08L49.6,49l-2.73-2.78a.45.45,0,0,0-.65-.05l0,.05-.34.31a.49.49,0,0,0,0,.64L48.6,50l-2.73,2.79a.55.55,0,0,0,0,.74l.33.31a.38.38,0,0,0,.52.09l.09-.09,2.79-2.82,2.81,2.82a.49.49,0,0,0,.64,0l.36-.37a.48.48,0,0,0,0-.65Z"/></g></g></svg>