<svg id="Layer_1" data-name="Layer 1" xmlns="http://www.w3.org/2000/svg" width="42.52" height="56.69" viewBox="0 0 42.52 56.69"><defs><style>.cls-1{fill:#3e3e3e;}.cls-1,.cls-2,.cls-3,.cls-4,.cls-5,.cls-6,.cls-7{fill-rule:evenodd;}.cls-2{fill:#a0a1a2;}.cls-3{fill:#fff;}.cls-4{fill:#7fba00;}.cls-5{fill:#b8d432;}.cls-6{fill:#3999c6;}.cls-7{fill:#59b4d9;}</style></defs><g id="group2243-1"><g id="group2244-2"><g id="shape2245-3"><path class="cls-1" d="M0,7.71V48.87c0,4.31,9.45,7.71,21.26,7.71V7.71Z"/></g><g id="shape2246-5"><path class="cls-2" d="M20.92,56.69h.34c11.7,0,21.26-3.52,21.26-7.71V7.71H20.92Z"/></g><g id="shape2247-7"><path class="cls-3" d="M42.52,7.71c0,4.31-9.45,7.71-21.26,7.71S0,12,0,7.71,9.56,0,21.26,0,42.52,3.51,42.52,7.71Z"/></g><g id="shape2248-9"><path class="cls-4" d="M38.14,7.26c0,2.83-7.54,5.1-16.88,5.1S4.39,10.09,4.39,7.26s7.54-5.11,16.87-5.11S38.14,4.42,38.14,7.26Z"/></g><g id="shape2249-11"><path class="cls-5" d="M34.65,10.43c2.25-.91,3.49-1.93,3.49-3.18,0-2.83-7.54-5.1-16.88-5.1S4.39,4.42,4.39,7.25c0,1.14,1.35,2.27,3.49,3.18,3-1.25,7.87-2,13.38-2A38.64,38.64,0,0,1,34.65,10.43Z"/></g></g><g id="group2250-13"><g id="shape2251-14"><path class="cls-6" d="M20.92,56.69V36.28a8.76,8.76,0,0,1-7.42-4.2,8.58,8.58,0,0,1-7.31,4.2A8.28,8.28,0,0,1,0,33.56V49C0,53.17,9.34,56.58,20.92,56.69Z"/></g><g id="shape2252-16"><path class="cls-6" d="M21.26,56.69Z"/></g><g id="shape2253-18"><path class="cls-7" d="M20.92,56.69h0Z"/></g><g id="shape2254-20"><path class="cls-7" d="M36,36.28a9,9,0,0,1-7.54-4.2,8.67,8.67,0,0,1-7.31,4.2V56.69c11.7,0,21.26-3.52,21.26-7.71V33.44A8.65,8.65,0,0,1,36,36.28Z"/></g><g id="shape2255-22"><path class="cls-7" d="M21,36.28h0l-.11,20.41h.22V36.28Z"/></g></g></g></svg>