<svg id="Layer_1" data-name="Layer 1" xmlns="http://www.w3.org/2000/svg" xmlns:xlink="http://www.w3.org/1999/xlink" width="48.96" height="56.68" viewBox="0 0 48.96 56.68"><defs><style>.cls-1{fill:#005ba1;}.cls-1,.cls-2,.cls-3,.cls-4,.cls-5,.cls-6{fill-rule:evenodd;}.cls-2{fill:url(#linear-gradient);}.cls-3{fill:#fff;}.cls-4{fill:#eaeaea;}.cls-5{fill:#50e6ff;}.cls-6{fill:#198ab3;}</style><linearGradient id="linear-gradient" x1="-268.43" y1="418.05" x2="-267.43" y2="418.05" gradientTransform="matrix(28.35, 0, 0, -51.69, 7609.97, 21639.96)" gradientUnits="userSpaceOnUse"><stop offset="0" stop-color="#005ba1"/><stop offset="0.07" stop-color="#0060a9"/><stop offset="0.36" stop-color="#0071c8"/><stop offset="0.52" stop-color="#0078d4"/><stop offset="0.64" stop-color="#0074cd"/><stop offset="0.81" stop-color="#006abb"/><stop offset="0.99" stop-color="#005ba1"/></linearGradient></defs><g id="group2269-1"><g id="group2270-2"><g id="shape2271-3"><path class="cls-1" d="M28,33.27v-13a.47.47,0,0,0-.46-.47.48.48,0,0,0-.34.14L13.87,33.24,0,47.11v9.57H40.29a1.87,1.87,0,0,0,1.9-1.83V20.23a.47.47,0,0,0-.46-.47.48.48,0,0,0-.34.14Z"/></g><g id="shape2272-5"><path class="cls-2" d="M14.17,10.26C6.34,10.26,0,8,0,5V54.78a1.85,1.85,0,0,0,1.83,1.9H28.35V5C28.35,8,22,10.26,14.17,10.26Z"/></g><g id="shape2273-9"><path class="cls-3" d="M41.39,48.22a.93.93,0,0,0,.93.93H48a.94.94,0,0,0,.93-.94V42.52a.94.94,0,0,0-.94-.94h-5.7a.94.94,0,0,0-.94.93Z"/></g><g id="shape2274-11"><path class="cls-3" d="M28.25,48.22a.93.93,0,0,0,.93.93h5.71a.94.94,0,0,0,.93-.94V42.52a.94.94,0,0,0-.94-.94h-5.7a.94.94,0,0,0-.94.93Z"/></g><g id="shape2275-13"><path class="cls-3" d="M15.11,48.22a.93.93,0,0,0,.93.93h5.71a.94.94,0,0,0,.93-.94V42.52a.94.94,0,0,0-.94-.94H16a.94.94,0,0,0-.94.93Z"/></g><g id="shape2276-15"><path class="cls-4" d="M28.35,5c0,2.83-6.34,5.13-14.18,5.13S0,8,0,5,6.34,0,14.17,0,28.35,2.3,28.35,5Z"/></g><g id="shape2277-17"><path class="cls-5" d="M25,4.7C25,6.53,20.14,8,14.14,8S3.27,6.6,3.27,4.7,8.34,1.46,14.18,1.46,25,2.9,25,4.7Z"/></g><g id="shape2278-19"><path class="cls-6" d="M14.17,5.46A27.22,27.22,0,0,0,5.57,6.7,25.34,25.34,0,0,0,14.17,8,25.43,25.43,0,0,0,22.78,6.7,27,27,0,0,0,14.17,5.46Z"/></g></g></g></svg>