<svg id="Layer_1" data-name="Layer 1" xmlns="http://www.w3.org/2000/svg" width="56.69" height="53.85" viewBox="0 0 56.69 53.85"><defs><style>.cls-1{fill:#3999c6;}.cls-1,.cls-2,.cls-3,.cls-4,.cls-5,.cls-6,.cls-7{fill-rule:evenodd;}.cls-2{fill-opacity:0.15;}.cls-3,.cls-6{fill:#fff;}.cls-4{fill:#57a300;}.cls-5{fill:#b8d432;}.cls-6{fill-opacity:0.4;}.cls-7{fill:#804998;}</style></defs><g id="group2217-1"><g id="group2218-2"><g id="shape2219-3"><path class="cls-1" d="M0,9.49V44.75c0,5,8.06,9.1,18.14,9.1s18.14-4.07,18.14-9.1V9.49Z"/></g><g id="shape2220-5"><path class="cls-2" d="M0,53.85c10.08,0,18.14-4.07,18.14-9.1V9.49H0Z"/></g><g id="shape2221-7"><path class="cls-3" d="M36.28,9.43c0,5.21-8.12,9.43-18.14,9.43S0,14.64,0,9.43,8.12,0,18.14,0,36.28,4.22,36.28,9.43Z"/></g><g id="shape2222-9"><path class="cls-4" d="M32.58,8.76c0,3.31-6.47,6-14.44,6s-14.43-2.68-14.43-6,6.46-6,14.43-6S32.58,5.45,32.58,8.76Z"/></g><g id="shape2223-11"><path class="cls-5" d="M29.55,12.42c1.89-1,3-2.28,3-3.66,0-3.31-6.46-6-14.43-6S3.71,5.45,3.71,8.76c0,1.38,1.13,2.65,3,3.66a25.34,25.34,0,0,1,11.4-2.33A25.39,25.39,0,0,1,29.55,12.42Z"/></g><g id="shape2224-13"><path class="cls-6" d="M36.28,21.8l-9.61,9.77a1.75,1.75,0,0,0,0,2.44l3.2,3.25a1.69,1.69,0,0,0,2.41,0h0l4-4.07Z"/></g><g id="shape2225-15"><path class="cls-7" d="M27.07,32.79,46.14,13.44,41.73,9l15-2.17L54.55,22,50.14,17.5,31.08,36.85Z"/></g></g></g></svg>