<svg id="Layer_1" data-name="Layer 1" xmlns="http://www.w3.org/2000/svg" xmlns:xlink="http://www.w3.org/1999/xlink" width="56.69" height="39.69" viewBox="0 0 56.69 39.69"><defs><style>.cls-1,.cls-2,.cls-3{fill-rule:evenodd;}.cls-1{fill:url(#linear-gradient);}.cls-2{fill:#50e6ff;}.cls-3{fill:#fff;}</style><linearGradient id="linear-gradient" x1="-285.91" y1="411.37" x2="-284.91" y2="411.37" gradientTransform="matrix(0, -36.66, -52.94, 0, 21808.35, -10443.97)" gradientUnits="userSpaceOnUse"><stop offset="0" stop-color="#0078d4"/><stop offset="0.82" stop-color="#5ea0ef"/></linearGradient></defs><g id="group2295-1"><g id="shape2296-2"><path class="cls-1" d="M56.69,25.18A11.71,11.71,0,0,0,46.36,14,14.82,14.82,0,0,0,30.93,0,15.4,15.4,0,0,0,16.16,9.8,13.91,13.91,0,0,0,3.75,23.15a14.26,14.26,0,0,0,14.9,13.5H44.76A11.87,11.87,0,0,0,56.69,25.18Z"/></g><g id="shape2297-6"><path class="cls-2" d="M0,28A11.71,11.71,0,0,1,11.72,16.34H12a11.74,11.74,0,0,1,12,11.51V39.69H12A11.71,11.71,0,0,1,0,28.25Z"/></g><g id="shape2298-8"><path class="cls-3" d="M19.43,28.8V27.08l-1.79-.61L17.2,25.3l.88-1.82V23.3l-.57-.56L16.85,22H16.6l-1.76.92-1.2-.34-.79-1.94H11.12l-.6,1.76-1.32.52-2-1-1.23,1.2v.22l.92,1.72L6.3,26.4l-2.11.77V28.9h.25l1.86.61.5,1.17-.94,2,1.23,1.23h.25l1.73-.86,1.23.49.76,2.06h1.76v-.24l.6-1.85,1.2-.49,2.07.95,1.23-1.2v-.24L17,30.8l.35-1.2ZM12,30.4a2.43,2.43,0,0,1-2.19-2.69A2.47,2.47,0,0,1,12,25.57a2.43,2.43,0,0,1,2.49,2.37v0a2.43,2.43,0,0,1-2.43,2.43Z"/></g></g></svg>