<svg id="Layer_1" data-name="Layer 1" xmlns="http://www.w3.org/2000/svg" xmlns:xlink="http://www.w3.org/1999/xlink" width="56.72" height="53.86" viewBox="0 0 56.72 53.86"><defs><style>.cls-1,.cls-2,.cls-3,.cls-4{fill-rule:evenodd;}.cls-1{fill:url(#linear-gradient);}.cls-2{fill:#50e6ff;}.cls-3{fill:#0078d4;}.cls-4{fill:#fff;}</style><linearGradient id="linear-gradient" x1="-285.52" y1="419.08" x2="-284.52" y2="419.08" gradientTransform="matrix(0, -39.88, -56.69, 0, 23785.82, -11347.53)" gradientUnits="userSpaceOnUse"><stop offset="0" stop-color="#0078d4"/><stop offset="0.82" stop-color="#5ea0ef"/></linearGradient></defs><g id="group2289-1"><g id="group2290-2"><g id="shape2291-3"><path class="cls-1" d="M56.72,27.39a12.69,12.69,0,0,0-11-12.16A16,16,0,0,0,29.13,0,16.47,16.47,0,0,0,13.38,10.64,15.17,15.17,0,0,0,0,25.17,15.36,15.36,0,0,0,16,39.86a10.59,10.59,0,0,0,1.38,0H43.24a2.73,2.73,0,0,0,.7,0A12.83,12.83,0,0,0,56.72,27.39Z"/></g><g id="shape2292-7"><path class="cls-2" d="M29.86,24.79A14.93,14.93,0,1,0,15,39.86h14.9Z"/></g></g><g id="shape2293-9"><path class="cls-3" d="M14.75,46.74l-7.09,7a.32.32,0,0,1-.44.06l-.06-.06-7.06-7a.37.37,0,0,1,0-.53.37.37,0,0,1,.22-.1H4.51a.35.35,0,0,0,.36-.33.37.37,0,0,0,0-.11V36.61a.36.36,0,0,1,.38-.32H9.61a.35.35,0,0,1,.35.34v9a.35.35,0,0,0,.35.34h4.18a.38.38,0,0,1,.49.23.39.39,0,0,1-.24.49Z"/></g><g id="shape2294-11"><path class="cls-4" d="M22.55,29.48l7.31-7.25,7.34,7.25a.35.35,0,0,1,0,.49.39.39,0,0,1-.27.11H32.79a.38.38,0,0,0-.38.38h0v9.37h-5.1V30.45a.36.36,0,0,0-.34-.4H22.8a.35.35,0,0,1-.33-.36.32.32,0,0,1,.08-.2Z"/></g></g></svg>