<svg id="Layer_1" data-name="Layer 1" xmlns="http://www.w3.org/2000/svg" width="56.7" height="50.5" viewBox="0 0 56.7 50.5"><defs><style>.cls-1{fill:#a0a1a2;}.cls-1,.cls-10,.cls-2,.cls-4,.cls-6,.cls-7,.cls-8,.cls-9{fill-rule:evenodd;}.cls-2{fill:#7a7a7a;}.cls-3{fill:none;}.cls-4{fill:#b8d432;}.cls-5,.cls-6,.cls-8,.cls-9{fill:#fff;}.cls-6{fill-opacity:0.2;}.cls-7{fill:#0072c6;}.cls-8{fill-opacity:0.15;}.cls-10{fill:#57a300;}</style></defs><g id="group2299-1"><g id="group2300-2"><g id="shape2301-3"><path class="cls-1" d="M28.17,19.24c0-2.36,4.41-4.36,10.5-5V0H0V25.59a1.45,1.45,0,0,0,1.4,1.47H28.17Z"/></g><g id="shape2302-5"><path class="cls-2" d="M1.4,44.39A1.45,1.45,0,0,0,0,45.86V50.5H38.66V45.56c0-.78-.62-1.24-1.47-1.24Z"/><path class="cls-3" d="M1.4,44.39A1.45,1.45,0,0,0,0,45.86V50.5H38.66V45.56c0-.78-.62-1.24-1.47-1.24"/></g><g id="shape2303-8"><path class="cls-4" d="M35.57,14.71V10.43H3.1v5.43H31.7A20.75,20.75,0,0,1,35.57,14.71Z"/></g><g id="shape2304-10"><rect class="cls-5" x="3.1" y="2.32" width="32.47" height="5.42"/></g><g id="shape2305-12"><path class="cls-4" d="M28.17,19.24a2.08,2.08,0,0,1,.15-.69H3.12V24H28.17Z"/></g><g id="shape2306-14"><path class="cls-6" d="M1.54,17.32A1.56,1.56,0,0,0,0,18.86V48.71c0,1.54.69,1.79,1.54,1.79h1.7L33.71,17.32Z"/></g><g id="shape2307-16"><path class="cls-7" d="M0,19.31V45.56c0,2.78,6.11,4.94,13.65,4.94V19.31Z"/></g><g id="shape2308-18"><path class="cls-7" d="M0,50.5H.19c7.54,0,13.65-2.21,13.65-4.94V19.31H0Z"/></g><g id="shape2309-20"><path class="cls-8" d="M0,50.5H.19c7.54,0,13.65-2.21,13.65-4.94V19.31H0Z"/></g><g id="shape2310-22"><path class="cls-9" d="M56.7,19.32c0,2.73-6.11,4.94-13.65,4.94S29.4,22.05,29.4,19.32s6.11-5,13.65-5S56.7,16.59,56.7,19.32Z"/></g><g id="shape2311-24"><path class="cls-10" d="M53.91,19c0,1.8-4.86,3.26-10.85,3.26S32.19,20.82,32.19,19s4.86-3.25,10.86-3.25S53.91,17.22,53.91,19Z"/></g><g id="shape2312-26"><path class="cls-4" d="M51.63,21c1.42-.55,2.28-1.24,2.28-2,0-1.81-4.86-3.27-10.85-3.27S32.19,17.22,32.19,19c0,.74.85,1.44,2.28,2a25.5,25.5,0,0,1,8.58-1.25A25.52,25.52,0,0,1,51.63,21Z"/></g><g id="shape2313-28"><path class="cls-9" d="M38.71,37.57a2.22,2.22,0,0,1-.92,1.89,3.94,3.94,0,0,1-2.45.67,4.54,4.54,0,0,1-2.23-.48V37.74a3.39,3.39,0,0,0,2.28.88,1.48,1.48,0,0,0,.92-.24.76.76,0,0,0,.33-.64.9.9,0,0,0-.32-.68A6.05,6.05,0,0,0,35,36.31a2.82,2.82,0,0,1-2-2.52,2.31,2.31,0,0,1,.86-1.86,3.53,3.53,0,0,1,2.28-.7,6,6,0,0,1,2.1.32v1.8a3.43,3.43,0,0,0-2-.6,1.52,1.52,0,0,0-.88.24.73.73,0,0,0-.32.63.9.9,0,0,0,.26.68,4.34,4.34,0,0,0,1,.64,5.33,5.33,0,0,1,1.72,1.16A2.13,2.13,0,0,1,38.71,37.57Zm9.27-2a4.9,4.9,0,0,1-.74,2.64,3.65,3.65,0,0,1-1.94,1.56l2.54,2.29H45.32l-1.78-2a4.1,4.1,0,0,1-2.1-.61A3.73,3.73,0,0,1,40,38a4.82,4.82,0,0,1-.47-2.15,5.19,5.19,0,0,1,.54-2.38,3.88,3.88,0,0,1,1.54-1.62,4.53,4.53,0,0,1,2.25-.56,4.27,4.27,0,0,1,2.1.54,3.72,3.72,0,0,1,1.46,1.56A5,5,0,0,1,48,35.61Zm-2,.11a3.34,3.34,0,0,0-.57-2.1,1.86,1.86,0,0,0-1.56-.76,2,2,0,0,0-1.62.77,3.7,3.7,0,0,0,0,4,1.88,1.88,0,0,0,1.58.76,1.92,1.92,0,0,0,1.59-.74,3.12,3.12,0,0,0,.58-2ZM54.53,40H49.41V31.37h1.94v7h3.18Z"/></g></g></g></svg>