<svg id="Layer_1" data-name="Layer 1" xmlns="http://www.w3.org/2000/svg" xmlns:xlink="http://www.w3.org/1999/xlink" width="56.69" height="45.35" viewBox="0 0 56.69 45.35"><defs><style>.cls-1{fill:#005ba1;}.cls-1,.cls-2,.cls-3,.cls-4{fill-rule:evenodd;}.cls-2{fill:#fff;}.cls-3{fill:#1ac3f2;}.cls-4{fill:url(#linear-gradient);}</style><linearGradient id="linear-gradient" x1="-268.68" y1="423.94" x2="-267.68" y2="423.94" gradientTransform="matrix(-1.03, 40.24, 56.68, 0.73, -24277.5, 10507.97)" gradientUnits="userSpaceOnUse"><stop offset="0" stop-color="#32d4f5"/><stop offset="0.23" stop-color="#31d0f1"/><stop offset="0.46" stop-color="#2cc3e6"/><stop offset="0.7" stop-color="#25afd4"/><stop offset="0.94" stop-color="#1c92ba"/><stop offset="1" stop-color="#198ab3"/></linearGradient></defs><g id="group2256-1"><g id="group2257-2"><g id="shape2258-3"><path class="cls-1" d="M55.36,5H30.65a1.14,1.14,0,0,1-.74-.23L22.84.2a1.43,1.43,0,0,0-.73-.2H1.33A1.32,1.32,0,0,0,0,1.27V44.08a1.32,1.32,0,0,0,1.33,1.27h54a1.32,1.32,0,0,0,1.33-1.27V6.34A1.32,1.32,0,0,0,55.36,5Z"/></g><g id="shape2259-5"><path class="cls-2" d="M5.17,4.48A.53.53,0,0,0,5.7,5H17.51A.53.53,0,0,0,18,4.47V3a.53.53,0,0,0-.53-.53H5.7A.52.52,0,0,0,5.17,3Z"/></g><g id="shape2260-7"><path class="cls-3" d="M5.17,4.64A.36.36,0,0,0,5.54,5H7.37a.37.37,0,0,0,.37-.36V2.85a.37.37,0,0,0-.37-.36H5.54a.37.37,0,0,0-.37.35Z"/></g><g id="shape2261-9"><path class="cls-4" d="M55.36,5h-27a1.22,1.22,0,0,0-.94.39l-4.5,4.25A1.52,1.52,0,0,1,22,10H1.33A1.32,1.32,0,0,0,0,11.27V44a1.32,1.32,0,0,0,1.33,1.27h54A1.32,1.32,0,0,0,56.69,44V6.34A1.32,1.32,0,0,0,55.42,5Z"/></g><g id="shape2262-13"><path class="cls-2" d="M32.28,11.89a.61.61,0,0,0-.27,0,.53.53,0,0,0-.43.23L21,27.12a.53.53,0,0,0,0,.52.63.63,0,0,0,.5.33h6.24L25,37.06a.42.42,0,0,0,.19.57l.05,0a.45.45,0,0,0,.23,0c.2,0,.3,0,.43-.24L36.78,22.19v-.33a.56.56,0,0,0-.57-.52H29.55l2.7-8.92a.41.41,0,0,0,0-.52Z"/></g></g></g></svg>