<svg id="Layer_1" data-name="Layer 1" xmlns="http://www.w3.org/2000/svg" xmlns:xlink="http://www.w3.org/1999/xlink" width="58" height="48.19" viewBox="0 0 58 48.19"><defs><style>.cls-1{fill:#949494;}.cls-1,.cls-2,.cls-3,.cls-4,.cls-5,.cls-7,.cls-8{fill-rule:evenodd;}.cls-2{fill:#fff;}.cls-3{fill:#32bedd;}.cls-4{fill:url(#linear-gradient);}.cls-5{fill:#e8e8e8;}.cls-6{fill:none;}.cls-7{fill:#50e6ff;}.cls-8{fill:#198ab3;}</style><linearGradient id="linear-gradient" x1="-269.53" y1="412.4" x2="-268.53" y2="412.4" gradientTransform="matrix(37.42, 0, 0, -41.61, 10085.92, 17187.47)" gradientUnits="userSpaceOnUse"><stop offset="0" stop-color="#005ba1"/><stop offset="0.07" stop-color="#0060a9"/><stop offset="0.36" stop-color="#0071c8"/><stop offset="0.52" stop-color="#0078d4"/><stop offset="0.64" stop-color="#0074cd"/><stop offset="0.82" stop-color="#006abb"/><stop offset="1" stop-color="#005ba1"/></linearGradient></defs><g id="group2226-1"><g id="group2227-2"><g id="shape2228-3"><path class="cls-1" d="M52.88,10.07,50.39,8.88,42.85,24H36.4v2.65h6.52l7.47,15,2.49-1.2L45.3,25.23Z"/></g><g id="shape2229-5"><path class="cls-2" d="M51.61,14.56a5,5,0,0,1-2.76-.8,4.87,4.87,0,0,1-2.32-3.32,5.18,5.18,0,0,1,5.08-6.22,5.32,5.32,0,0,1,2.8.8,5.15,5.15,0,0,1-1.67,9.39,5.35,5.35,0,0,1-1.13.12Z"/></g><g id="shape2230-7"><path class="cls-3" d="M51.61,5.52a4.26,4.26,0,0,1,2.18.63,3.93,3.93,0,0,1,1.26,5.45,4.15,4.15,0,0,1-5.59,1.23,4,4,0,0,1-1.81-2.5,4,4,0,0,1,3.16-4.72A4.46,4.46,0,0,1,51.61,5.52Zm0-2.26a6.3,6.3,0,0,0-6.37,6.22A6.38,6.38,0,0,0,58,9.47a6.21,6.21,0,0,0-3-5.25A6.48,6.48,0,0,0,51.61,3.26Z"/></g><g id="shape2231-9"><path class="cls-2" d="M51.61,46.06a5.13,5.13,0,0,1-4.45-7.7l.05-.08a5.26,5.26,0,0,1,7.14-1.62l.06,0a5,5,0,0,1,1.59,7A5.25,5.25,0,0,1,51.61,46.06Z"/></g><g id="shape2232-11"><path class="cls-3" d="M51.61,37a4.07,4.07,0,0,1,2.18.63,3.93,3.93,0,0,1,1.26,5.45,4.15,4.15,0,0,1-3.41,1.83,4.09,4.09,0,0,1-2.18-.6,3.92,3.92,0,0,1,1.35-7.23A4.43,4.43,0,0,1,51.61,37Zm0-2.26A6.22,6.22,0,1,0,58,41a6.21,6.21,0,0,0-3-5.25A6.39,6.39,0,0,0,51.61,34.77Z"/></g><g id="shape2233-13"><path class="cls-4" d="M18.76,13.16C8.53,13.16,0,10.2,0,6.58v35c0,3.62,8.22,6.65,18.39,6.65h.37c10.23,0,18.66-2.93,18.66-6.65v-35C37.28,10.2,29,13.16,18.76,13.16Z"/></g><g id="shape2234-17"><path class="cls-5" d="M37.28,6.58c0,3.62-8.35,6.65-18.66,6.65S0,10.2,0,6.58,8.53,0,18.76,0,37.42,2.93,37.42,6.65Z"/><path class="cls-6" d="M37.28,6.58c0,3.62-8.35,6.65-18.66,6.65S0,10.2,0,6.58,8.53,0,18.76,0,37.42,2.93,37.42,6.65"/></g><g id="shape2235-20"><path class="cls-7" d="M32.92,6.05c0,2.3-6.38,4.16-14.3,4.16S4.33,8.35,4.33,6.05s6.41-4.18,14.43-4.18S33.05,3.73,33.05,6.05Z"/><path class="cls-6" d="M32.92,6.05c0,2.3-6.38,4.16-14.3,4.16S4.33,8.35,4.33,6.05s6.41-4.18,14.43-4.18S33.05,3.73,33.05,6.05"/></g><g id="shape2236-23"><path class="cls-8" d="M18.76,7A35.07,35.07,0,0,0,7.47,8.58a34,34,0,0,0,11.29,1.63A34.48,34.48,0,0,0,30.09,8.58,35.31,35.31,0,0,0,18.76,7Z"/></g></g></g></svg>