<svg id="Layer_1" data-name="Layer 1" xmlns="http://www.w3.org/2000/svg" xmlns:xlink="http://www.w3.org/1999/xlink" width="51.02" height="56.7" viewBox="0 0 51.02 56.7"><defs><style>.cls-1,.cls-2{fill:#999;}.cls-1,.cls-2,.cls-3,.cls-5,.cls-6,.cls-7,.cls-8,.cls-9{fill-rule:evenodd;}.cls-2{fill-opacity:0.5;}.cls-3{fill:#fff;}.cls-4{fill:none;}.cls-5{fill:url(#linear-gradient);}.cls-6{fill:url(#linear-gradient-2);}.cls-7{fill:#e8e8e8;}.cls-8{fill:#50e6ff;}.cls-9{fill:#198ab3;}</style><linearGradient id="linear-gradient" x1="-271.9" y1="431.79" x2="-270.9" y2="431.79" gradientTransform="matrix(0, 41.06, 33.6, 0, -14491.3, 11168.54)" gradientUnits="userSpaceOnUse"><stop offset="0" stop-color="#b3b2b3"/><stop offset="0.38" stop-color="#afaeaf"/><stop offset="0.76" stop-color="#a2a2a2"/><stop offset="1" stop-color="#979797"/></linearGradient><linearGradient id="linear-gradient-2" x1="-271.66" y1="413.32" x2="-270.66" y2="413.32" gradientTransform="matrix(29.37, 0, 0, -29.38, 7978.79, 12185.47)" gradientUnits="userSpaceOnUse"><stop offset="0" stop-color="#005ba1"/><stop offset="0.07" stop-color="#0060a9"/><stop offset="0.36" stop-color="#0071c8"/><stop offset="0.52" stop-color="#0078d4"/><stop offset="0.64" stop-color="#0074cd"/><stop offset="0.82" stop-color="#006abb"/><stop offset="1" stop-color="#005ba1"/></linearGradient></defs><g id="group2279-1"><g id="group2280-2"><g id="shape2281-3"><path class="cls-1" d="M.07,4.31,3.43.54A1.54,1.54,0,0,1,4.53,0H35.79a2.21,2.21,0,0,1,2.37,2,1.27,1.27,0,0,1,0,.2V41a1.65,1.65,0,0,1-.54,1.17l-3.35,3.17Z"/></g><g id="shape2282-5"><path class="cls-2" d="M.07,4.31,3.43.54A1.54,1.54,0,0,1,4.53,0H35.79a2.21,2.21,0,0,1,2.37,2,1.27,1.27,0,0,1,0,.2V41a1.65,1.65,0,0,1-.54,1.17l-3.35,3.17Z"/></g><g id="shape2283-7"><path class="cls-3" d="M2.69,4.3,4.67,2a1.46,1.46,0,0,1,1.08-.37H34.92a1.41,1.41,0,0,1,1.41,1.4V39.79a1.51,1.51,0,0,1-.44,1l-3.12,2.84Z"/><path class="cls-4" d="M2.69,4.3,4.67,2a1.46,1.46,0,0,1,1.08-.37H34.92a1.41,1.41,0,0,1,1.41,1.4V39.79a1.51,1.51,0,0,1-.44,1l-3.12,2.84"/></g><g id="shape2284-10"><path class="cls-5" d="M32.56,4.27H0v40a1,1,0,0,0,1,1H32.56a1,1,0,0,0,1-1h0v-39a1,1,0,0,0-1-1Z"/></g><g id="shape2285-14"><path class="cls-6" d="M14.67,32C6.58,32,0,29.88,0,27.32V52.06c0,2.54,6.45,4.6,14.47,4.64h.2c8.12,0,14.7-2.07,14.7-4.64V27.32c0,2.56-6.58,4.63-14.7,4.63Z"/></g><g id="shape2286-18"><path class="cls-7" d="M51,27.31C51,29.88,44.31,32,36.32,32s-14.67-2.07-14.67-4.64,6.71-4.67,14.67-4.67S51,24.74,51,27.31Z"/></g><g id="shape2287-20"><path class="cls-8" d="M47.6,27c0,1.64-5.06,2.94-11.27,2.94S25.08,28.59,25.08,27s5-3,11.25-3S47.6,25.32,47.6,27Z"/></g><g id="shape2288-22"><path class="cls-9" d="M36.33,27.62a29.72,29.72,0,0,0-8.9,1.13,30.05,30.05,0,0,0,8.9,1.14,30.23,30.23,0,0,0,8.92-1.14A30.22,30.22,0,0,0,36.33,27.62Z"/></g></g></g></svg>