<svg id="Layer_1" data-name="Layer 1" xmlns="http://www.w3.org/2000/svg" width="56.35" height="56.51" viewBox="0 0 56.35 56.51"><defs><style>.cls-1{fill:#a0a1a2;}.cls-1,.cls-2,.cls-3,.cls-4{fill-rule:evenodd;}.cls-2{fill:#7a7a7a;}.cls-3{fill:#fff;}.cls-4{fill:#59b4d9;}</style></defs><g id="group2263-1"><g id="group2264-2"><g id="shape2265-3"><path class="cls-1" d="M46.59,51.88H9.68a5.16,5.16,0,0,1-5.13-5.15v-37A5.15,5.15,0,0,1,9.68,4.57H46.59a5.15,5.15,0,0,1,5.13,5.14v37A5.16,5.16,0,0,1,46.59,51.88ZM9.68,8A1.69,1.69,0,0,0,8,9.65v37a1.69,1.69,0,0,0,1.69,1.69H46.59a1.69,1.69,0,0,0,1.69-1.69v-37A1.69,1.69,0,0,0,46.59,8Z"/></g><g id="shape2266-5"><path class="cls-2" d="M23.15.49a5.19,5.19,0,0,0-4-.17A4.92,4.92,0,0,0,16.22,3l-.79,1.64H32.05ZM56,19.2a5,5,0,0,0-2.71-2.94l-1.63-.79V32.2l4.17-8.93A5.14,5.14,0,0,0,56,19.2ZM.5,37.12a5.17,5.17,0,0,0-.17,4A5,5,0,0,0,3,44.07l1.64.79V28.19ZM37,56a5,5,0,0,0,2.2.51A5.27,5.27,0,0,0,41,56.17,5,5,0,0,0,44,53.45l.78-1.64H28.11Z"/></g><g id="shape2267-7"><path class="cls-3" d="M9.68,8A1.7,1.7,0,0,0,8,9.65v37a1.7,1.7,0,0,0,1.69,1.7H46.59a1.7,1.7,0,0,0,1.69-1.7v-37A1.7,1.7,0,0,0,46.59,8Z"/></g><g id="shape2268-9"><path class="cls-4" d="M36.27,24.68H29.12l3-10a.6.6,0,0,0-.28-.68c-.05-.06-.17-.06-.22-.06a.7.7,0,0,0-.45.23L19.59,31.07a.65.65,0,0,0-.05.56.59.59,0,0,0,.5.29H27l-3.1,10.17a.6.6,0,0,0,.28.68c.05.06.17.06.22.06a.7.7,0,0,0,.45-.23L36.72,25.53a.78.78,0,0,0,.12-.34A.56.56,0,0,0,36.27,24.68Z"/></g></g></g></svg>