<svg id="Layer_1" data-name="Layer 1" xmlns="http://www.w3.org/2000/svg" width="42.52" height="56.69" viewBox="0 0 42.52 56.69"><defs><style>.cls-1{fill:#57a300;}.cls-1,.cls-2,.cls-3{fill-rule:evenodd;}.cls-3{fill:#8a0;}.cls-4{fill:lime;}.cls-5{fill:#4d4d4d;}</style></defs><g id="group2183-1"><g id="group2184-2"><g id="shape2185-3"><path class="cls-1" d="M36.18,6.75C23.4,5.38,21.26,0,21.26,0S18.38,7.07,0,7.07v29c0,3.51,2,6.8,4.76,9.68,6.27,6.51,16.5,10.9,16.5,10.9s21.26-9.1,21.26-20.58v-29A57.16,57.16,0,0,1,36.18,6.75Z"/></g><g id="shape2186-5"><path class="cls-2" d="M30.54,42.61a1.61,1.61,0,0,1-1.6,1.61H13.58A1.61,1.61,0,0,1,12,42.61V14.08a1.61,1.61,0,0,1,1.6-1.61H28.94a1.61,1.61,0,0,1,1.6,1.61Z"/></g><g id="shape2187-7"><path class="cls-2" d="M14.62,17.57a2,2,0,0,1,2-2h9.23a2,2,0,0,1,0,4.05H16.64A2,2,0,0,1,14.62,17.57Z"/></g><g id="shape2188-9"><ellipse cx="16.73" cy="17.57" rx="1.35" ry="1.36"/></g><g id="shape2189-11"><path class="cls-2" d="M14.62,23.24a2,2,0,0,1,2-2h9.23a2,2,0,0,1,0,4.05H16.64A2,2,0,0,1,14.62,23.24Z"/></g><g id="shape2190-13"><ellipse cx="16.73" cy="23.24" rx="1.35" ry="1.36"/></g><g id="shape2191-15"><path class="cls-2" d="M14.62,28.91a2,2,0,0,1,2-2h9.23a2,2,0,0,1,0,4.05H16.64A2,2,0,0,1,14.62,28.91Z"/></g><g id="shape2192-17"><ellipse cx="16.73" cy="28.91" rx="1.35" ry="1.36"/></g><g id="shape2193-19"><path class="cls-3" d="M26.52,29.66l9.66-12C23.4,16.28,21.26,10.9,21.26,10.9S18.38,18,0,18V47c0,3.51,2,6.8,4.76,9.67l7.14-8.87Z"/></g><g id="shape2194-21"><path class="cls-2" d="M30.54,42.61a1.61,1.61,0,0,1-1.6,1.61H13.58A1.61,1.61,0,0,1,12,42.61V14.08a1.61,1.61,0,0,1,1.6-1.61H28.94a1.61,1.61,0,0,1,1.6,1.61Z"/></g><g id="shape2195-23"><rect class="cls-4" x="14.62" y="15.17" width="2.46" height="2.4"/></g><g id="shape2196-25"><rect class="cls-4" x="14.62" y="18.66" width="2.46" height="2.4"/></g><g id="shape2197-27"><rect class="cls-4" x="14.62" y="22.16" width="2.46" height="2.4"/></g><g id="shape2198-29"><rect class="cls-5" x="18.19" y="15.17" width="9.67" height="2.4"/></g><g id="shape2199-31"><rect class="cls-5" x="18.19" y="18.66" width="9.67" height="2.4"/></g><g id="shape2200-33"><rect class="cls-5" x="18.19" y="22.16" width="9.67" height="2.4"/></g></g></g></svg>