<svg id="Layer_1" data-name="Layer 1" xmlns="http://www.w3.org/2000/svg" xmlns:xlink="http://www.w3.org/1999/xlink" width="45.35" height="56.69" viewBox="0 0 45.35 56.69"><defs><style>.cls-1{fill:#0078d4;}.cls-1,.cls-2,.cls-3,.cls-4{fill-rule:evenodd;}.cls-2{fill:url(#linear-gradient);}.cls-3{fill:#e6e6e6;}.cls-4{fill:#003067;}.cls-5{fill:#50e6ff;}</style><linearGradient id="linear-gradient" x1="-275.59" y1="430.46" x2="-274.59" y2="430.46" gradientTransform="matrix(0, 51.97, 41.6, 0, -17884.52, 14325.49)" gradientUnits="userSpaceOnUse"><stop offset="0.18" stop-color="#5ea0ef"/><stop offset="1" stop-color="#0078d4"/></linearGradient></defs><g id="group2201-1"><g id="group2202-2"><g id="shape2203-3"><path class="cls-1" d="M45.35,26.46c0,15.25-18,27.53-21.93,30a1.41,1.41,0,0,1-1.48,0C18,54,0,41.71,0,26.46V8.13A1.44,1.44,0,0,1,1.39,6.68C15.41,6.3,12.17,0,22.68,0S30,6.3,44,6.68a1.43,1.43,0,0,1,1.38,1.45Z"/></g><g id="shape2204-5"><path class="cls-2" d="M43.48,26.62c0,14-16.52,25.2-20.12,27.53a1.33,1.33,0,0,1-1.36,0C18.39,51.88,1.88,40.61,1.88,26.62V9.8A1.31,1.31,0,0,1,3.14,8.48C16,8.13,13,2.37,22.68,2.37s6.68,5.76,19.53,6.11A1.31,1.31,0,0,1,43.48,9.8Z"/></g><g id="shape2205-9"><path class="cls-3" d="M31.3,39.44A1.5,1.5,0,0,1,29.83,41H15.53a1.5,1.5,0,0,1-1.48-1.51v-27a1.48,1.48,0,0,1,1.45-1.54H29.83a1.48,1.48,0,0,1,1.47,1.52V39.44Z"/></g><g id="shape2206-11"><path class="cls-4" d="M16.51,15.75a1.87,1.87,0,0,1,1.85-1.89H27a1.91,1.91,0,0,1,0,3.81H18.36a1.88,1.88,0,0,1-1.85-1.89Z"/></g><g id="shape2207-13"><ellipse class="cls-5" cx="18.46" cy="15.72" rx="1.26" ry="1.29"/></g><g id="shape2208-15"><path class="cls-4" d="M16.51,21.73a1.91,1.91,0,0,1,1.85-1.92H27a1.9,1.9,0,0,1,1.84,1.92A1.85,1.85,0,0,1,27,23.65H18.36a1.87,1.87,0,0,1-1.85-1.88Z"/></g><g id="shape2209-17"><ellipse class="cls-5" cx="18.46" cy="21.73" rx="1.26" ry="1.29"/></g></g></g></svg>