<svg id="Layer_1" data-name="Layer 1" xmlns="http://www.w3.org/2000/svg" xmlns:xlink="http://www.w3.org/1999/xlink" width="56.74" height="56.7" viewBox="0 0 56.74 56.7"><defs><style>.cls-1{fill:#0078d4;}.cls-1,.cls-2,.cls-3{fill-rule:evenodd;}.cls-2{fill:url(#linear-gradient);}.cls-3{fill:#c3f1ff;}</style><linearGradient id="linear-gradient" x1="-271.13" y1="429.42" x2="-270.13" y2="429.42" gradientTransform="matrix(0, 56.7, 49.39, 0, -21185.35, 15372.27)" gradientUnits="userSpaceOnUse"><stop offset="0" stop-color="#5ea0ef"/><stop offset="0.2" stop-color="#5a9eee"/><stop offset="0.41" stop-color="#4d99ea"/><stop offset="0.62" stop-color="#3990e4"/><stop offset="0.83" stop-color="#1c84dc"/><stop offset="1" stop-color="#0078d4"/></linearGradient></defs><g id="group2178-1"><g id="group2179-2"><g id="shape2180-3"><path class="cls-1" d="M46.82,17.48h8.9a1,1,0,0,0,1-1,1.94,1.94,0,0,0,0-.24L53.19.8a1,1,0,0,0-1-.8h-8.9a1,1,0,0,0-1,1,.85.85,0,0,0,0,.23l3.53,15.42a1,1,0,0,0,1,.8ZM4.57,56.69h8.9a1,1,0,0,0,1-1,1.94,1.94,0,0,0,0-.24L10.94,40a1,1,0,0,0-1-.8H1a1,1,0,0,0-1,1,1,1,0,0,0,0,.24L3.56,55.89A1,1,0,0,0,4.57,56.69Z"/></g><g id="shape2181-5"><path class="cls-2" d="M35.9,56.69H1A.94.94,0,0,1,0,55.75a.76.76,0,0,1,0-.21L12.58.73A.94.94,0,0,1,13.5,0h35a1,1,0,0,1,.94,1,.75.75,0,0,1,0,.21L36.82,56a1,1,0,0,1-.93.74Z"/></g><g id="shape2182-9"><path class="cls-3" d="M38.46,28.42l-13.6-15.5L21,16.32,31.19,27.94,19.55,38.14,23,42Z"/></g></g></g></svg>