<svg id="Layer_1" data-name="Layer 1" xmlns="http://www.w3.org/2000/svg" width="56.69" height="53.85" viewBox="0 0 56.69 53.85"><defs><style>.cls-1{fill-rule:evenodd;}</style></defs><g id="group2174-1"><g id="group2175-2"><g id="shape2176-3"><path class="cls-1" d="M26.73,6.59,18.9,14.1V10L28.34,0,37.8,10v4.06L30,6.59V19.88H26.73ZM54.6,25.21H2.1A2.11,2.11,0,0,0,0,27.33v24.4a2.12,2.12,0,0,0,2.1,2.12H54.59a2.11,2.11,0,0,0,2.1-2.12V27.33A2.11,2.11,0,0,0,54.6,25.21ZM52.42,49.28H4.23V29.79H52.42Z"/></g><g id="shape2177-5"><path class="cls-1" d="M23.41,35.15h9.44v9.53H23.41Zm14.08,0h9.44v9.53H37.49Zm-28.16,0h9.44v9.53H9.33Z"/></g></g></g></svg>