<svg id="Layer_1" data-name="Layer 1" xmlns="http://www.w3.org/2000/svg" width="56.69" height="56.69" viewBox="0 0 56.69 56.69"><defs><style>.cls-1{fill:#0072c6;}.cls-1,.cls-2,.cls-3,.cls-4,.cls-5,.cls-7{fill-rule:evenodd;}.cls-2,.cls-7{fill:#fff;}.cls-2{fill-opacity:0.1;}.cls-3{fill:#59b4d9;}.cls-4{fill:#804998;}.cls-5,.cls-6{fill:#68217a;}.cls-7{fill-opacity:0.25;}</style></defs><g id="group2162-1"><g id="group2163-2"><g id="shape2164-3"><path class="cls-1" d="M56.69,28.91a6.57,6.57,0,0,0-6.57-6.57h-.8a15.65,15.65,0,0,0,.57-4.65,17.44,17.44,0,0,0-34-5.67A10.84,10.84,0,0,0,12,11.34a12.08,12.08,0,0,0-.11,24.15H50.57A6.65,6.65,0,0,0,56.69,28.91Z"/></g><g id="shape2165-5"><path class="cls-2" d="M18.37,35.49a12.68,12.68,0,0,1-3.29-5.9,12,12,0,0,1,9-14.4A11.71,11.71,0,0,1,28,15,17.68,17.68,0,0,1,37.76.79,20.29,20.29,0,0,0,32.43,0,17.37,17.37,0,0,0,15.87,12,10.84,10.84,0,0,0,12,11.34a12.08,12.08,0,0,0-.11,24.15Z"/></g><g id="shape2166-7"><path class="cls-3" d="M52.49,52.49,40.59,31.74V23.35h.23a2.56,2.56,0,0,0,2.6-2.6,2.63,2.63,0,0,0-2.6-2.61H27.66a2.61,2.61,0,1,0,0,5.21h.23v8.39l-12,20.75c-1.36,2.27-.23,4.2,2.38,4.2H50.11C52.83,56.69,53.85,54.88,52.49,52.49Z"/></g><g id="shape2167-9"><path class="cls-4" d="M42.63,43.66H37a3.42,3.42,0,0,1,.23,1,2.4,2.4,0,0,1-2.38,2.38,2.47,2.47,0,0,1-2.38-2.38,2.74,2.74,0,0,1,.22-1H25.74l-4.88,8.5H47.62Z"/></g><g id="shape2168-11"><path class="cls-5" d="M34.81,47.06a2.39,2.39,0,0,0,2.38-2.38,2.74,2.74,0,0,0-.22-1H32.66a3.13,3.13,0,0,0-.23,1A2.39,2.39,0,0,0,34.81,47.06Z"/></g><g id="shape2169-13"><circle class="cls-6" cx="37.87" cy="48.98" r="1.13"/></g><g id="shape2170-15"><path class="cls-7" d="M15.88,52.49l12-20.75V23.35h-.23a2.61,2.61,0,1,1,0-5.21h5.67v13.6L27,56.69H18.26C15.65,56.69,14.63,54.88,15.88,52.49Z"/></g></g></g></svg>