<svg id="Layer_1" data-name="Layer 1" xmlns="http://www.w3.org/2000/svg" xmlns:xlink="http://www.w3.org/1999/xlink" width="48.19" height="56.72" viewBox="0 0 48.19 56.72"><defs><style>.cls-1{fill:#5e9624;}.cls-1,.cls-2,.cls-4{fill-rule:evenodd;}.cls-2{fill:#fff;}.cls-3{fill:none;}.cls-4{fill:url(#linear-gradient);}</style><linearGradient id="linear-gradient" x1="-287.48" y1="418.64" x2="-286.48" y2="418.64" gradientTransform="matrix(0, -51.4, -42.18, 0, 17679.73, -14719.68)" gradientUnits="userSpaceOnUse"><stop offset="0" stop-color="#5e9624"/><stop offset="0.31" stop-color="#69a828"/><stop offset="0.93" stop-color="#86d633"/></linearGradient></defs><g id="group2156-1"><g id="group2157-2"><g id="shape2158-3"><path class="cls-1" d="M45,0H5.63A2,2,0,0,0,4.14.7L0,5.39,45.41,50.53l-6.79,6.09H42a2.46,2.46,0,0,0,1.56-.56l4-3.57a2,2,0,0,0,.65-1.43V2.79A2.72,2.72,0,0,0,45.54,0,4.36,4.36,0,0,0,45,0Z"/></g><g id="shape2159-5"><path class="cls-2" d="M3.33,5.36l2.51-2.8A1.68,1.68,0,0,1,7,2H44a1.75,1.75,0,0,1,1.77,1.72V49.57a1.76,1.76,0,0,1-.58,1.26l-3.9,3.53Z"/><path class="cls-3" d="M3.33,5.36l2.51-2.8A1.68,1.68,0,0,1,7,2H44a1.75,1.75,0,0,1,1.77,1.72V49.57a1.76,1.76,0,0,1-.58,1.26l-3.9,3.53"/></g><g id="shape2160-8"><path class="cls-4" d="M40.89,5.32H.17a.2.2,0,0,0-.17.2V55.46a1.27,1.27,0,0,0,1.29,1.26h39.6a1.27,1.27,0,0,0,1.29-1.26V6.62a1.27,1.27,0,0,0-1.25-1.3Z"/></g><g id="shape2161-12"><path class="cls-2" d="M35.87,24.4a1.24,1.24,0,0,0-1.18-1.3H28.33a.55.55,0,0,0-.51.3L25.21,28l-4.28-8.49L17,31.66,13.57,23,9.09,31.13a.6.6,0,0,1-.51.33h-2a1.23,1.23,0,0,0-.14,2.45H9.94a.62.62,0,0,0,.55-.34l2.64-4.88,4.11,10,4.17-12.85,3.66,7.29,4.11-7.22a.55.55,0,0,1,.51-.3h4.92A1.24,1.24,0,0,0,35.87,24.4Z"/></g></g></g></svg>