<svg id="Layer_1" data-name="Layer 1" xmlns="http://www.w3.org/2000/svg" xmlns:xlink="http://www.w3.org/1999/xlink" width="56.69" height="56.69" viewBox="0 0 56.69 56.69"><defs><style>.cls-1{fill:#0078d4;}.cls-1,.cls-2,.cls-5,.cls-6{fill-rule:evenodd;}.cls-2{fill:#76bc2d;}.cls-3{fill:url(#radial-gradient);}.cls-4{fill:#005ba1;}.cls-5{fill:#c3f1ff;fill-opacity:0.75;}.cls-6{fill:#5e9624;}</style><radialGradient id="radial-gradient" cx="-269.92" cy="403.09" r="1.1" gradientTransform="matrix(36.95, 0, 0, -15.2, 10000.06, 6133.76)" gradientUnits="userSpaceOnUse"><stop offset="0" stop-color="#5ea0ef"/><stop offset="0.11" stop-color="#519aeb"/><stop offset="0.51" stop-color="#2588df"/><stop offset="0.82" stop-color="#0a7cd7"/><stop offset="1" stop-color="#0078d4"/></radialGradient></defs><g id="group2142-1"><g id="group2143-2"><g id="shape2144-3"><path class="cls-1" d="M5.4,0H12V1.9H5.4ZM53.76,1.9h1.07v1h1.83V0h-2.9ZM3,54.66H2.07V53.59H0v3.1H3v-2Zm51.86-1v1H53.79v2h2.9v-3ZM2.1,2.87v-1H3V0H0V2.87ZM15.24,0h6.57V1.9H15.24ZM25,0h6.57V1.9H25Zm9.87,0h6.57V1.9H34.88Zm9.81,0h6.57V1.9H44.69ZM5.47,54.66H12v1.9H5.47Zm9.8,0h6.57v1.9H15.27Zm9.84,0h6.57v1.9H25.11Zm9.84,0h6.57v1.9H35Zm9.8,0h6.57v1.9H44.75Zm10-49.49h1.9v6.56h-1.9Zm0,9.83h1.9v6.56h-1.9Zm0,9.8h1.9v6.53h-1.9Zm0,9.8h1.9v6.56h-1.9Zm0,9.83h1.9V51h-1.9ZM0,5.1H1.9v6.57H0Zm0,9.83H1.9V21.5H0Zm0,9.8H1.9v6.6H0Zm0,9.83H1.9v6.57H0Zm0,9.77H1.9v6.56H0Z"/></g><g id="shape2145-5"><path class="cls-2" d="M32.68,35a5,5,0,0,1,0-7l2.53-2.53a40.31,40.31,0,0,0-8.9-1c-10.24,0-18.51,3.34-18.51,7.6s8.2,7.6,18.48,7.6a39.26,39.26,0,0,0,9.77-1.33Z"/></g><g id="shape2146-7"><ellipse class="cls-3" cx="26.28" cy="15.16" rx="18.48" ry="7.6"/></g><g id="shape2147-11"><ellipse class="cls-4" cx="26.71" cy="15.06" rx="6.14" ry="1.67"/></g><g id="group2148-13"><g id="shape2149-14"><path class="cls-1" d="M50.29,33.83a3.34,3.34,0,0,0,.09-4.71L50.29,29l-5.87-5.9a3.34,3.34,0,0,0-4.72-.08l-.08.08L33.75,29a3.32,3.32,0,0,0-.09,4.71l.09.09,4.9,5a1.08,1.08,0,0,1,.27.66v9.1a1.14,1.14,0,0,0,.33.8l2.24,2.23a.8.8,0,0,0,1.1,0l3.4-3.4a.47.47,0,0,0,0-.63l-1-.93a.43.43,0,0,1-.06-.61L45,46l.9-.93a.47.47,0,0,0,0-.63l-.9-.91a.46.46,0,0,1,0-.66s0,0,0,0l.9-.89a.47.47,0,0,0,0-.63l-1.27-1.34V39.5ZM42,24.56a1.93,1.93,0,0,1,.86,3.77,2.08,2.08,0,0,1-.86,0,1.94,1.94,0,1,1,0-3.87Z"/></g><g id="shape2150-16"><path class="cls-1" d="M38.52,47a5,5,0,0,1,3.33-1.46,5.26,5.26,0,0,1,2.17.5,4,4,0,0,0,.57-1.6V40c0,4.17-8.27,7.57-18.48,7.57S7.77,44.25,7.77,40v4.2c0,4.2,8.27,7.6,18.51,7.6a41.7,41.7,0,0,0,8.27-.8Z"/></g></g><g id="group2151-18"><g id="shape2152-19"><path class="cls-5" d="M40.52,48.66a.44.44,0,0,0,.6,0,.42.42,0,0,0,0-.27V40.9a.59.59,0,0,0-.2-.37.44.44,0,0,0-.57,0,.24.24,0,0,0,0,.23v7.57a.37.37,0,0,0,.17.33Z"/></g><g id="shape2153-21"><path class="cls-5" d="M37.35,31.56a.54.54,0,0,0,.53.54h8.57a.53.53,0,0,0,.53-.53v-.07a.53.53,0,0,0-.53-.53H37.88a.54.54,0,0,0-.53.54Z"/></g><g id="shape2154-23"><path class="cls-5" d="M37.35,33.43a.53.53,0,0,0,.53.53h8.57a.53.53,0,0,0,.53-.53v-.07a.53.53,0,0,0-.53-.53H37.88a.53.53,0,0,0-.53.53Z"/></g></g><g id="shape2155-25"><path class="cls-6" d="M37.35,39.73,36,38.33a40.9,40.9,0,0,1-9.67,1.13c-10.24,0-18.51-3.33-18.51-7.6v4.23c0,4.2,8.27,7.6,18.51,7.6a39.14,39.14,0,0,0,11.07-1.53Zm-6.1-8.94a16.57,16.57,0,0,0-4.54-.56c-3.33,0-6.13.76-6.13,1.66s2.76,1.67,6.13,1.67a16,16,0,0,0,4.77-.63,5.32,5.32,0,0,1-.23-2.17Z"/></g></g></g></svg>