<svg id="Layer_1" data-name="Layer 1" xmlns="http://www.w3.org/2000/svg" xmlns:xlink="http://www.w3.org/1999/xlink" width="56.69" height="56.69" viewBox="0 0 56.69 56.69"><defs><style>.cls-1{fill:url(#radial-gradient);}.cls-2{fill:#5ea0ef;}.cls-2,.cls-3{fill-rule:evenodd;}.cls-3{fill:#fff;}</style><radialGradient id="radial-gradient" cx="-272.37" cy="419.36" r="1.4" gradientTransform="matrix(56.69, 0, 0, -56.69, 15441.58, 23774.9)" gradientUnits="userSpaceOnUse"><stop offset="0.18" stop-color="#5ea0ef"/><stop offset="1" stop-color="#0078d4"/></radialGradient></defs><g id="group2137-1"><g id="group2138-2"><g id="shape2139-3"><circle class="cls-1" cx="28.35" cy="28.35" r="28.35"/></g><g id="shape2140-7"><path class="cls-2" d="M28.53,2.87A25.67,25.67,0,1,0,54.2,28.53,25.68,25.68,0,0,0,28.53,2.87Zm17.19,8.64a24.58,24.58,0,0,1-7.18,2.67,29.47,29.47,0,0,0-4.17-9A24.06,24.06,0,0,1,45.72,11.51ZM28.53,4.3a22.16,22.16,0,0,1,3.64.3,25.07,25.07,0,0,1,5.11,10,50.55,50.55,0,0,1-18.19,0,24.72,24.72,0,0,1,5-9.82,25,25,0,0,1,4.4-.5Zm-6.67.87a29.21,29.21,0,0,0-4.24,9,18.74,18.74,0,0,1-6.34-2.57A24.63,24.63,0,0,1,21.86,5.17ZM10.91,45.22a17.69,17.69,0,0,1,5.94-2.54,23.63,23.63,0,0,0,4.51,9.08A24.14,24.14,0,0,1,10.91,45.22ZM32.3,52.56a22.64,22.64,0,0,1-3.77.2,22.17,22.17,0,0,1-4.8-.5,20.09,20.09,0,0,1-5.58-10,49.15,49.15,0,0,1,19.63,0,20,20,0,0,1-5.64,10ZM34.74,52a23.83,23.83,0,0,0,4.61-9.35A22.44,22.44,0,0,1,46,45.45a23.79,23.79,0,0,1-11.28,6.44Zm4.94-10.75c.27-1.2.5-2.43.67-3.74l-1.54.37c-.16,1-.33,2.07-.57,3a50.75,50.75,0,0,0-20.32,0c-.23-.9-.4-1.87-.57-2.87a1.5,1.5,0,0,1,0-.3l-1.53-.44a7.37,7.37,0,0,0,0,.94,14.86,14.86,0,0,0,.56,3,19.6,19.6,0,0,0-6.67,2.83,24.17,24.17,0,0,1,.37-31.37A20.83,20.83,0,0,0,17,15.65c-.23.8-.43,1.67-.6,2.54s0,.83-.27,1.23l1.57-.36v-.57c.2-.87.4-1.7.63-2.51a49.67,49.67,0,0,0,10.18.81,49.77,49.77,0,0,0,9.28-.87c.23.9.47,1.87.67,2.83l1.53.37c-.24-1.2-.51-2.31-.8-3.34a25.61,25.61,0,0,0,7.68-3,24.09,24.09,0,0,1,.2,31.67,24.41,24.41,0,0,0-7.41-3.24Z"/></g><g id="shape2141-9"><path class="cls-3" d="M9.38,21.73a27.76,27.76,0,0,1,3.87-.27A8.13,8.13,0,0,1,19,23.19a6.66,6.66,0,0,1,2,4.88,7.4,7.4,0,0,1-2,5.47,8.64,8.64,0,0,1-6.2,2,31,31,0,0,1-3.34-.16Zm1.84,12.44a14,14,0,0,0,1.83,0,5.41,5.41,0,0,0,6-4.76,6.09,6.09,0,0,0,0-1.28,5,5,0,0,0-4.54-5.43,4.59,4.59,0,0,0-1.17,0,10.53,10.53,0,0,0-2.1,0ZM23.3,35.44v-14h2l4.5,7A41.55,41.55,0,0,1,32.31,33c-.17-1.87-.2-3.57-.2-5.77V21.39h1.67v14H31.94l-4.4-7c-1-1.57-1.9-3.34-2.64-4.67V35.54Zm13.45-2.2a6.64,6.64,0,0,0,3.34.9c1.87,0,2.93-1,2.93-2.4s-.73-2.07-2.63-2.77-3.74-2-3.74-4A4.06,4.06,0,0,1,41,21.14l.27,0a6.66,6.66,0,0,1,3.1.66l-.53,1.51a5.43,5.43,0,0,0-2.67-.67c-1.93,0-2.67,1.13-2.67,2.1s.87,2,2.8,2.71,3.61,2.06,3.61,4.13-1.6,4-4.94,4a7.28,7.28,0,0,1-3.57-.9Z"/></g></g></g></svg>