<svg id="Layer_1" data-name="Layer 1" xmlns="http://www.w3.org/2000/svg" width="56.69" height="48.2" viewBox="0 0 56.69 48.2"><defs><style>.cls-1{fill:#0072c6;}.cls-1,.cls-3,.cls-4,.cls-5,.cls-6{fill-rule:evenodd;}.cls-2,.cls-4{fill:#e5e5e5;}.cls-3{fill:#7a7a7a;}.cls-5{fill:#fff;fill-opacity:0.2;}.cls-6{fill:#231f20;fill-opacity:0.4;}</style></defs><g id="group2128-1"><g id="group2129-2"><g id="shape2130-3"><path class="cls-1" d="M0,3.6V44.48a1.23,1.23,0,0,0,1.21,1.24H16.89c4.77,0,6.43,1.31,7,2a1.16,1.16,0,0,0,.93.46h7.1a1.19,1.19,0,0,0,.93-.46c.55-.71,2.2-2,7-2H55.49a1.23,1.23,0,0,0,1.2-1.24V3.6a1.22,1.22,0,0,0-1.2-1.24H1.21A1.21,1.21,0,0,0,0,3.59Z"/></g><g id="shape2131-5"><rect class="cls-2" x="4.82" y="6.07" width="47.04" height="35.92"/></g><g id="shape2132-7"><path class="cls-3" d="M53.85,5.05A23.61,23.61,0,0,0,39.37,0c-6.86,0-9.92,3.78-11,5.68C27.24,3.78,24.17,0,17.32,0A23.61,23.61,0,0,0,2.84,5.05l-.43.37V42.28H54.28V5.42Z"/></g><g id="shape2133-9"><path class="cls-4" d="M17.46,1.24A22.87,22.87,0,0,0,3.62,6V40.76a80.51,80.51,0,0,1,13.92-1.55A25.74,25.74,0,0,1,28,42V7.17S25.76,1.24,17.46,1.24Zm21.78,0A22.87,22.87,0,0,1,53.08,6V40.76a80.7,80.7,0,0,0-13.93-1.55A25.67,25.67,0,0,0,28.71,42V7.17S30.93,1.24,39.24,1.24Z"/></g><g id="shape2134-11"><path class="cls-5" d="M14.47,2.69A22.18,22.18,0,0,0,4.82,6.61V39.27a85.11,85.11,0,0,1,9.65-1.19ZM39.8,2.5l-.43,0c-6.53,0-8.79,4-9.22,4.95V40.08A24.53,24.53,0,0,1,39.28,38h.52Z"/></g><g id="shape2135-13"><path class="cls-6" d="M6,8.83A22.57,22.57,0,0,1,17.32,6.26a12.91,12.91,0,0,1,8,2.83v1.66a11.37,11.37,0,0,0-8-3.25A21.49,21.49,0,0,0,6,10.27Zm0,4.95a22.57,22.57,0,0,1,11.29-2.57,13,13,0,0,1,8,2.83V15.7a11.46,11.46,0,0,0-8-3.25A21.49,21.49,0,0,0,6,15.22Zm0,5a22.57,22.57,0,0,1,11.29-2.57,12.91,12.91,0,0,1,8,2.83v1.66a11.37,11.37,0,0,0-8-3.25A21.49,21.49,0,0,0,6,20.18Zm0,5a22.57,22.57,0,0,1,11.29-2.57,13,13,0,0,1,8,2.83v1.67a11.42,11.42,0,0,0-8-3.26A21.49,21.49,0,0,0,6,25.13Zm0,5a22.57,22.57,0,0,1,11.29-2.57,12.91,12.91,0,0,1,8,2.83v1.66a11.37,11.37,0,0,0-8-3.25A21.49,21.49,0,0,0,6,30.09Zm0,5A22.57,22.57,0,0,1,17.32,31a13,13,0,0,1,8,2.83v1.67a11.42,11.42,0,0,0-8-3.26A21.49,21.49,0,0,0,6,35ZM50.66,8.83A22.54,22.54,0,0,0,39.37,6.26a12.93,12.93,0,0,0-8,2.83v1.66a11.37,11.37,0,0,1,8-3.25,21.49,21.49,0,0,1,11.29,2.77Zm0,4.95a22.54,22.54,0,0,0-11.29-2.57,13.05,13.05,0,0,0-8,2.83V15.7a11.46,11.46,0,0,1,8-3.25,21.49,21.49,0,0,1,11.29,2.77Zm0,5a22.54,22.54,0,0,0-11.29-2.57,12.93,12.93,0,0,0-8,2.83v1.66a11.37,11.37,0,0,1,8-3.25,21.49,21.49,0,0,1,11.29,2.77Zm0,5a22.54,22.54,0,0,0-11.29-2.57,13.05,13.05,0,0,0-8,2.83v1.67a11.42,11.42,0,0,1,8-3.26,21.49,21.49,0,0,1,11.29,2.77ZM47,27.13a30.43,30.43,0,0,0-7.67-1.05,12.93,12.93,0,0,0-8,2.83v1.66a11.37,11.37,0,0,1,8-3.25,21.11,21.11,0,0,1,6.47.78Z"/></g><g id="shape2136-15"><path class="cls-5" d="M14.47,2.69A22.18,22.18,0,0,0,4.82,6.61V39.27a85.11,85.11,0,0,1,9.65-1.19ZM39.8,2.5l-.43,0c-6.53,0-8.79,4-9.22,4.95V40.08A24.53,24.53,0,0,1,39.28,38h.52Z"/></g></g></g></svg>