<svg id="Layer_1" data-name="Layer 1" xmlns="http://www.w3.org/2000/svg" xmlns:xlink="http://www.w3.org/1999/xlink" width="56.87" height="45.36" viewBox="0 0 56.87 45.36"><defs><style>.cls-1{fill:#773adc;}.cls-1,.cls-2,.cls-3,.cls-4{fill-rule:evenodd;}.cls-2{fill:url(#linear-gradient);}.cls-3{fill:#50e6ff;}.cls-4{fill:#552f99;}</style><linearGradient id="linear-gradient" x1="-264.44" y1="435.73" x2="-263.44" y2="435.73" gradientTransform="matrix(0, 29.29, 56.87, 0, -24749.56, 7744.83)" gradientUnits="userSpaceOnUse"><stop offset="0.13" stop-color="#773adc"/><stop offset="0.23" stop-color="#8249e2"/><stop offset="0.43" stop-color="#9664ec"/><stop offset="0.6" stop-color="#a274f2"/><stop offset="0.74" stop-color="#a67af4"/></linearGradient></defs><g id="group2122-1"><g id="group2123-2"><g id="shape2124-3"><path class="cls-1" d="M45.73,22H11.52V37.87c0,4.12,7.66,7.49,17.28,7.49s17.28-3.27,17.28-7.49Z"/></g><g id="shape2125-5"><path class="cls-2" d="M26.48.31,1.07,13.68a2.37,2.37,0,0,0-.8,3.07,2,2,0,0,0,.8.92L26.48,29a2.84,2.84,0,0,0,2.32,0L55.74,17.6a2.39,2.39,0,0,0,.89-3.07,2.07,2.07,0,0,0-.89-1L28.87.25a2.71,2.71,0,0,0-2.39.06Z"/></g><g id="shape2126-9"><path class="cls-3" d="M50.15,26.6a4,4,0,0,0-.73-1.7,16.68,16.68,0,0,0-8-7.29l-11-4.74-3.53,2.58L38,20.32A16.28,16.28,0,0,1,46.59,29a26.1,26.1,0,0,1,.89,5.49ZM48,34.51l1.33-2.72L51,34h.31a16.63,16.63,0,0,0-1.2-7.42Z"/></g><g id="shape2127-11"><path class="cls-4" d="M28.23,16.6c2.35,0,4.25-1,4.25-2.23s-1.9-2.22-4.25-2.22S24,13.15,24,14.37,25.88,16.6,28.23,16.6Z"/></g></g></g></svg>