<svg id="Layer_1" data-name="Layer 1" xmlns="http://www.w3.org/2000/svg" xmlns:xlink="http://www.w3.org/1999/xlink" width="44.27" height="56.69" viewBox="0 0 44.27 56.69"><defs><style>.cls-1{fill:#5ea0ef;}.cls-1,.cls-2,.cls-3,.cls-4,.cls-5{fill-rule:evenodd;}.cls-2{fill:#60b0ef;}.cls-3{fill:url(#linear-gradient);}.cls-4{fill:#0078d4;}.cls-5{fill:#949494;}</style><linearGradient id="linear-gradient" x1="-270.23" y1="430.51" x2="-269.23" y2="430.51" gradientTransform="matrix(0, 49.19, 40.45, 0, -17391.91, 13294.99)" gradientUnits="userSpaceOnUse"><stop offset="0.18" stop-color="#5ea0ef"/><stop offset="1" stop-color="#0078d4"/></linearGradient></defs><g id="group2103-1"><g id="group2104-2"><g id="shape2105-3"><path class="cls-1" d="M44.27,25.23c0,14.44-17.58,26-21.39,28.37a1.51,1.51,0,0,1-1.46,0C17.57,51.24,0,39.64,0,25.23V7.82A1.39,1.39,0,0,1,1.37,6.46C15,6.09,11.85,0,22,0s7.09,6,20.79,6.31a1.39,1.39,0,0,1,1.33,1.35Z"/></g><g id="shape2106-5"><path class="cls-2" d="M42.42,25.22c0,13.24-16.14,23.87-19.64,26.05a1.27,1.27,0,0,1-1.33,0C18,49.18,1.84,38.56,1.84,25.22V9.45A1.25,1.25,0,0,1,3,8.16c12.71-.34,9.76-5.8,19.07-5.8s6.51,5.46,19.07,5.8a1.28,1.28,0,0,1,1.27,1.26Z"/></g><g id="shape2107-7"><path class="cls-3" d="M22,27V2.36c9.53,0,6.51,5.46,19.06,5.81a1.3,1.3,0,0,1,1.27,1.26V26.8Zm0,0H1.91C3.18,39.57,18.12,49.35,21.45,51.4a1,1,0,0,0,.54.15h0Z"/></g><g id="shape2108-11"><path class="cls-4" d="M3,8.2C15.67,7.82,12.71,2.36,22,2.36V27H1.91V9.46A1.26,1.26,0,0,1,3,8.17ZM42.36,27H22V51.55a1,1,0,0,0,.54-.15c3.59-2.09,18.52-12,19.76-24.44Z"/></g><g id="shape2109-13"><path class="cls-5" d="M16.27,56.13l1.05-3.41,2-1.17,3.5,1.52L25,50.8v-.35L23.45,47.3l1-2.15,3.49-1.26.38-.16V40.58h-.44l-3.43-1-1.15-2,1.5-3.46-2.29-2.21h-.26L19,33.45l-2.23-.94-1.4-3.85H12.23l-.15.44L11,32.51l-2.23.94-3.75-1.7L2.83,34l.22.41L4.7,37.59l-.89,2.2L0,41.21v3.15l.44.16,3.44,1,1,2.21L3.15,51.4l2.32,2.2.41-.22,3.18-1.67,2.22.88,1.65,4.1h3.18ZM11.09,45.94a4.54,4.54,0,0,1-.15-6.46,4.63,4.63,0,0,1,6.51-.16,4.55,4.55,0,0,1,.15,6.47l-.15.15A4.6,4.6,0,0,1,11.09,45.94Z"/></g></g></g></svg>