<svg id="Layer_1" data-name="Layer 1" xmlns="http://www.w3.org/2000/svg" xmlns:xlink="http://www.w3.org/1999/xlink" width="55.24" height="48.52" viewBox="0 0 55.24 48.52"><defs><style>.cls-1,.cls-3{fill-rule:evenodd;}.cls-1{fill:url(#linear-gradient);}.cls-2{fill:#32bedd;}.cls-3{fill:#b4ec36;}</style><linearGradient id="linear-gradient" x1="-269.92" y1="421.55" x2="-268.92" y2="421.55" gradientTransform="matrix(0, 48.52, 48.55, 0, -20442.89, 13096.69)" gradientUnits="userSpaceOnUse"><stop offset="0" stop-color="#5ea0ef"/><stop offset="0.18" stop-color="#589eed"/><stop offset="0.41" stop-color="#4897e9"/><stop offset="0.66" stop-color="#2e8ce1"/><stop offset="0.94" stop-color="#0a7cd7"/><stop offset="1" stop-color="#0078d4"/></linearGradient></defs><g id="group2098-1"><g id="group2099-2"><g id="shape2100-3"><path class="cls-1" d="M17,33.9H31.53V48.52H17ZM.13,14.53h14.4V0H2A2,2,0,0,0,0,2H0ZM2,48.52H14.53V33.9H0V46.41a2,2,0,0,0,1.93,2.11ZM0,31.71H14.53V17H0ZM34,48.52H46.46a2,2,0,0,0,2-2V33.9H34ZM17.13,31.71h14.4V17H17Zm17,0H48.55V17H34Zm0-31.47V14.53H48.55V2a2,2,0,0,0-2-2h0ZM17.29,14.76H31.53V0H17Z"/></g><g id="shape2101-7"><ellipse class="cls-2" cx="14" cy="34.54" rx="14" ry="13.99"/></g><g id="shape2102-9"><path class="cls-3" d="M53.38,37.17c-.67.35-1.63.16-2.08.51a5.14,5.14,0,0,0-2,2.11c0,.19,0,.48-.22.58-.9.6-1.79,1.24-1,2.59-1,0-.64-.87-1.09-1.12a2.46,2.46,0,0,0-3.39,1.73,1.08,1.08,0,0,0,.51,1.18.83.83,0,0,0,1.15-.38.58.58,0,0,1,.83-.2c0,.52-.89,1.44.58,1.48.39,0,.29.44.19.73s.19.77.61,1,0,0,0,.16c-1.19,0-1.44-1.44-2.6-1.6a11.54,11.54,0,0,1-1.37-.45c-.87-.28-1.86-.44-2.05-1.72a2.44,2.44,0,0,0-1.16-1.57c-.38-.26-.6-.74-1-1a3.24,3.24,0,0,0-.7-1.15,3,3,0,0,1-.45-2.78A7,7,0,0,0,37.93,32c-.33-1-.46-2.27-1.61-2.94s-1,.38-1.41.16-.71.41-.84.48c-.92.25-1.73,1.05-2.91.93.45-.23.8-.36,1.12-.55s.93-.45.22-1.21-.45-1.89,1.44-2.66c-.16-.45-1.31-.35-.8-1.18s.9-.42,1.38,0c.32-.61-.39-1.38.16-1.73A9.09,9.09,0,0,1,37,22.38a.8.8,0,0,1,1.09.35c.57.9,1.72,1.06,2.3,1.95.16.29.48,0,.71,0,1.31-.44,2.17.39,3.2,1.06s.86,1.09,1.69,1a1.56,1.56,0,0,1,.68,0c.51.23,1,.35,1.37-.19a1,1,0,0,0,.84-.74c.19-.28.29-.7.77-.51A3.61,3.61,0,0,0,50,28c.41-.32.83-.51.35-1.25a1.18,1.18,0,0,1,.8-1.79,1.73,1.73,0,0,1,2,.74c.61,1.08.8,2.33,1.5,3.2.23.28,0,.41,0,.64s-.57,0-.89-.2L54,30.7a2.1,2.1,0,0,1-2.62-.8c0-.38,0-.54.38-.74s.61-.35.61-.76a.62.62,0,0,0-.32-.64c-.25,0-.41,0-.48.28s-1.06.8-.9,1.7-.6.7-1,.45c-1.06-.55-1.44.41-1.89.93s0,1.08.51,1.47,1,.67,1.19,1.28A2.82,2.82,0,0,0,50.34,32a1.33,1.33,0,0,1,1-1.47,1.39,1.39,0,0,1,1.41.9c.16.35.41.38.73.41a27.41,27.41,0,0,1,1.73,4.87l-1.18-.16c0-.93-.8-.51-1.25-.71-.13.58.61.74.58,1.32Z"/></g></g></g></svg>