<svg id="Layer_1" data-name="Layer 1" xmlns="http://www.w3.org/2000/svg" xmlns:xlink="http://www.w3.org/1999/xlink" width="56.7" height="51.03" viewBox="0 0 56.7 51.03"><defs><style>.cls-1{fill:#949494;}.cls-1,.cls-2,.cls-3,.cls-4{fill-rule:evenodd;}.cls-2{fill:url(#linear-gradient);}.cls-3,.cls-4{fill:#999;}.cls-4{fill-opacity:0.5;}</style><linearGradient id="linear-gradient" x1="-289.11" y1="408.43" x2="-288.11" y2="408.43" gradientTransform="matrix(0.47, -26.85, -17.67, -0.71, 7390, -7433.41)" gradientUnits="userSpaceOnUse"><stop offset="0" stop-color="#198ab3"/><stop offset="0.11" stop-color="#22a5cb"/><stop offset="0.23" stop-color="#29bade"/><stop offset="0.37" stop-color="#2ec9eb"/><stop offset="0.53" stop-color="#31d1f3"/><stop offset="0.78" stop-color="#32d4f5"/></linearGradient></defs><g id="group2080-1"><g id="group2081-2"><g id="shape2082-3"><path class="cls-1" d="M44.9,23H22.09l6.43-6.54H39.29V14H27.49L18.55,23H8.88v2.53h1.73l9,9.13H33V32.16H20.62l-6.5-6.61H44.9Z"/></g><g id="shape2083-5"><path class="cls-2" d="M35.32,10.9A4.35,4.35,0,1,1,31,15.24v0a4.28,4.28,0,0,1,4.27-4.31Zm3.9,13.48a4.31,4.31,0,1,0,4.33-4.32h0a4.32,4.32,0,0,0-4.3,4.25Zm-9.07,9a4.31,4.31,0,1,0,4.34-4.31h0a4.29,4.29,0,0,0-4.3,4.28Z"/></g><g id="group2084-9"><g id="shape2085-10"><path class="cls-3" d="M1.91,38h4.3V50.06a1,1,0,0,1-1,1H1a1,1,0,0,1-1-1V39.94A1.9,1.9,0,0,1,1.9,38Z"/></g><g id="shape2086-12"><path class="cls-4" d="M1.91,38h4.3V50.06a1,1,0,0,1-1,1H1a1,1,0,0,1-1-1V39.94A1.9,1.9,0,0,1,1.9,38Z"/></g></g><g id="group2087-14"><g id="shape2088-15"><path class="cls-3" d="M50.5,0h4.3a1.91,1.91,0,0,1,1.9,1.92h0V12a1,1,0,0,1-1,1h-4.3a1,1,0,0,1-.94-1Z"/></g><g id="shape2089-17"><path class="cls-4" d="M50.5,0h4.3a1.91,1.91,0,0,1,1.9,1.92h0V12a1,1,0,0,1-1,1h-4.3a1,1,0,0,1-.94-1Z"/></g></g><g id="shape2090-19"><path class="cls-1" d="M56.7,1.92V6.13H0V1.92A1.92,1.92,0,0,1,1.91,0H54.84A1.93,1.93,0,0,1,56.7,1.92Z"/></g><g id="group2091-21"><g id="shape2092-22"><path class="cls-3" d="M1,37.92h4.3a1,1,0,0,1,1,1V51H1.91A1.9,1.9,0,0,1,0,49.1V39a1,1,0,0,1,.86-1.07H1Z"/></g><g id="shape2093-24"><path class="cls-4" d="M1,37.92h4.3a1,1,0,0,1,1,1V51H1.91A1.9,1.9,0,0,1,0,49.1V39a1,1,0,0,1,.86-1.07H1Z"/></g></g><g id="group2094-26"><g id="shape2095-27"><path class="cls-3" d="M51.43,37.91h4.31a1,1,0,0,1,1,1V49a1.92,1.92,0,0,1-1.9,1.92H50.5V39a1,1,0,0,1,.86-1.07h.07Z"/></g><g id="shape2096-29"><path class="cls-4" d="M51.43,37.91h4.31a1,1,0,0,1,1,1V49a1.92,1.92,0,0,1-1.9,1.92H50.5V39a1,1,0,0,1,.86-1.07h.07Z"/></g></g><g id="shape2097-31"><path class="cls-1" d="M0,49.1V44.89H56.7V49.1A1.92,1.92,0,0,1,54.8,51H1.91A1.9,1.9,0,0,1,0,49.1Z"/></g></g></g></svg>