<svg id="Layer_1" data-name="Layer 1" xmlns="http://www.w3.org/2000/svg" xmlns:xlink="http://www.w3.org/1999/xlink" width="56.7" height="51.03" viewBox="0 0 56.7 51.03"><defs><style>.cls-1{fill:#32bedd;}.cls-1,.cls-6,.cls-7,.cls-8{fill-rule:evenodd;}.cls-2{fill:#fff;}.cls-3{fill:#50e6ff;}.cls-4{fill:url(#linear-gradient);}.cls-5{fill:url(#linear-gradient-2);}.cls-6,.cls-7{fill:#999;}.cls-7{fill-opacity:0.5;}.cls-8{fill:#949494;}</style><linearGradient id="linear-gradient" x1="-229.67" y1="457.2" x2="-228.67" y2="457.2" gradientTransform="matrix(0, 7.08, 7, 0, -3160.31, 1643.5)" gradientUnits="userSpaceOnUse"><stop offset="0" stop-color="#c69aeb"/><stop offset="1" stop-color="#6f4bb2"/></linearGradient><linearGradient id="linear-gradient-2" x1="-229.67" y1="457.2" x2="-228.67" y2="457.2" gradientTransform="matrix(0, 7.08, 7, 0, -3163.21, 1657.73)" xlink:href="#linear-gradient"/></defs><g id="group2055-1"><g id="group2056-2"><g id="shape2057-3"><path class="cls-1" d="M40.69,22.65v-2H25.62l-7.07,7.11h-5.2L25.42,15.41h8.23V13.48H24.58L10.51,27.74h-2v2h6l7.13,7.11h17v-2H22.42l-5-5.09H29.62v-2h-8.2l5-5.09Z"/></g><g id="shape2058-5"><ellipse class="cls-2" cx="31.62" cy="28.75" rx="2.9" ry="2.93"/></g><g id="shape2059-7"><ellipse class="cls-2" cx="34.65" cy="14.53" rx="2.9" ry="2.93"/></g><g id="shape2060-9"><ellipse class="cls-2" cx="41.69" cy="21.64" rx="2.9" ry="2.93"/></g><g id="shape2061-11"><ellipse class="cls-2" cx="38.69" cy="35.86" rx="2.9" ry="2.93"/></g><g id="shape2062-13"><ellipse class="cls-3" cx="34.55" cy="14.53" rx="3.5" ry="3.54"/></g><g id="shape2063-15"><ellipse class="cls-4" cx="41.59" cy="21.64" rx="3.5" ry="3.54"/></g><g id="shape2064-19"><ellipse class="cls-5" cx="38.69" cy="35.86" rx="3.5" ry="3.54"/></g><g id="shape2065-22"><ellipse class="cls-3" cx="31.62" cy="28.75" rx="3.5" ry="3.54"/></g><g id="group2066-24"><g id="shape2067-25"><path class="cls-6" d="M1.91,38h4.3V50.06a1,1,0,0,1-1,1H1a1,1,0,0,1-1-1V39.94A1.9,1.9,0,0,1,1.9,38Z"/></g><g id="shape2068-27"><path class="cls-7" d="M1.91,38h4.3V50.06a1,1,0,0,1-1,1H1a1,1,0,0,1-1-1V39.94A1.9,1.9,0,0,1,1.9,38Z"/></g></g><g id="group2069-29"><g id="shape2070-30"><path class="cls-6" d="M50.5,0h4.3a1.91,1.91,0,0,1,1.9,1.92h0V12a1,1,0,0,1-1,1h-4.3a1,1,0,0,1-.94-1Z"/></g><g id="shape2071-32"><path class="cls-7" d="M50.5,0h4.3a1.91,1.91,0,0,1,1.9,1.92h0V12a1,1,0,0,1-1,1h-4.3a1,1,0,0,1-.94-1Z"/></g></g><g id="shape2072-34"><path class="cls-8" d="M56.7,1.92V6.13H0V1.92A1.92,1.92,0,0,1,1.91,0H54.84A1.93,1.93,0,0,1,56.7,1.92Z"/></g><g id="group2073-36"><g id="shape2074-37"><path class="cls-6" d="M1,37.92h4.3a1,1,0,0,1,1,1V51H1.91A1.9,1.9,0,0,1,0,49.1V39a1,1,0,0,1,.86-1.07H1Z"/></g><g id="shape2075-39"><path class="cls-7" d="M1,37.92h4.3a1,1,0,0,1,1,1V51H1.91A1.9,1.9,0,0,1,0,49.1V39a1,1,0,0,1,.86-1.07H1Z"/></g></g><g id="group2076-41"><g id="shape2077-42"><path class="cls-6" d="M51.43,37.91h4.31a1,1,0,0,1,1,1V49a1.92,1.92,0,0,1-1.9,1.92H50.5V39a1,1,0,0,1,.86-1.07h.07Z"/></g><g id="shape2078-44"><path class="cls-7" d="M51.43,37.91h4.31a1,1,0,0,1,1,1V49a1.92,1.92,0,0,1-1.9,1.92H50.5V39a1,1,0,0,1,.86-1.07h.07Z"/></g></g><g id="shape2079-46"><path class="cls-8" d="M0,49.1V44.89H56.7V49.1A1.92,1.92,0,0,1,54.8,51H1.91A1.9,1.9,0,0,1,0,49.1Z"/></g></g></g></svg>