<svg id="Layer_1" data-name="Layer 1" xmlns="http://www.w3.org/2000/svg" width="56.7" height="51.03" viewBox="0 0 56.7 51.03"><defs><style>.cls-1{fill:#76bc2d;}.cls-1,.cls-2,.cls-3,.cls-4,.cls-5{fill-rule:evenodd;}.cls-2{fill:#86d633;}.cls-3,.cls-4{fill:#999;}.cls-4{fill-opacity:0.5;}.cls-5{fill:#949494;}</style></defs><g id="group1996-1"><g id="group1997-2"><g id="shape1998-3"><path class="cls-1" d="M34.45,23.3a.87.87,0,0,1-.8.91h-7a.87.87,0,0,1-.9-.81V18.14a.87.87,0,0,1,.8-.91h7a.86.86,0,0,1,.9.8Zm12.37,5.32a.87.87,0,0,1-.8.91h-7a.87.87,0,0,1-.9-.81V23.5a.87.87,0,0,1,.8-.91h7a.86.86,0,0,1,.9.8ZM34.45,34a.87.87,0,0,1-.8.91h-7a.87.87,0,0,1-.9-.81V28.86a.87.87,0,0,1,.8-.91h7a.86.86,0,0,1,.9.8Z"/></g><g id="shape1999-5"><path class="cls-2" d="M22.08,18a.85.85,0,0,1-.76.88H14.14a.87.87,0,0,1-.9-.77V12.61a.87.87,0,0,1,.8-.84h7c.73,0,1.07.37,1.07.91Z"/></g><g id="shape2000-7"><path class="cls-1" d="M22.08,28.61a.83.83,0,0,1-.76.91H14.14a.86.86,0,0,1-.9-.84V23.29a.87.87,0,0,1,.8-.87h7c.73,0,1.07.37,1.07.88Zm0,10.75a.83.83,0,0,1-.76.91H14.14a.87.87,0,0,1-.9-.8V34a.84.84,0,0,1,.8-.87h7c.73,0,1.07.34,1.07.88Z"/></g><g id="group2001-9"><g id="shape2002-10"><path class="cls-3" d="M1.9,37.91H6.2V50.05a1,1,0,0,1-1,1H1a1,1,0,0,1-1-1V39.94a1.91,1.91,0,0,1,1.79-2Z"/></g><g id="shape2003-12"><path class="cls-4" d="M1.9,37.91H6.2V50.05a1,1,0,0,1-1,1H1a1,1,0,0,1-1-1V39.94a1.91,1.91,0,0,1,1.79-2Z"/></g></g><g id="group2004-14"><g id="shape2005-15"><path class="cls-3" d="M50.49,0H54.8a1.91,1.91,0,0,1,1.9,1.92h0V12a1,1,0,0,1-1,1h-4.3a1,1,0,0,1-1-1V0Z"/></g><g id="shape2006-17"><path class="cls-4" d="M50.49,0H54.8a1.91,1.91,0,0,1,1.9,1.92h0V12a1,1,0,0,1-1,1h-4.3a1,1,0,0,1-1-1V0Z"/></g></g><g id="shape2007-19"><path class="cls-5" d="M56.69,1.92V6.13H0V1.92A1.92,1.92,0,0,1,1.9,0H54.83A1.91,1.91,0,0,1,56.69,1.92Z"/></g><g id="group2008-21"><g id="shape2009-22"><path class="cls-3" d="M1,37.91h4.3a1,1,0,0,1,1,1V51H1.9A1.91,1.91,0,0,1,0,49.1V38.72a1,1,0,0,1,1-.8Z"/></g><g id="shape2010-24"><path class="cls-4" d="M1,37.91h4.3a1,1,0,0,1,1,1V51H1.9A1.91,1.91,0,0,1,0,49.1V38.72a1,1,0,0,1,1-.8Z"/></g></g><g id="group2011-26"><g id="shape2012-27"><path class="cls-3" d="M51.42,37.91h4.31a1,1,0,0,1,1,1V49a1.91,1.91,0,0,1-1.9,1.92h-4.3V38.72a1,1,0,0,1,.94-.81Z"/></g><g id="shape2013-29"><path class="cls-4" d="M51.42,37.91h4.31a1,1,0,0,1,1,1V49a1.91,1.91,0,0,1-1.9,1.92h-4.3V38.72a1,1,0,0,1,.94-.81Z"/></g></g><g id="shape2014-31"><path class="cls-5" d="M0,49.1V44.89H56.69V49.1A1.91,1.91,0,0,1,54.79,51H1.9A1.91,1.91,0,0,1,0,49.1Z"/></g></g></g></svg>