<svg id="Layer_1" data-name="Layer 1" xmlns="http://www.w3.org/2000/svg" xmlns:xlink="http://www.w3.org/1999/xlink" width="56.7" height="51.02" viewBox="0 0 56.7 51.02"><defs><style>.cls-1,.cls-2{fill:#a3a3a3;}.cls-1,.cls-2,.cls-3,.cls-4,.cls-5,.cls-6{fill-rule:evenodd;}.cls-2{fill-opacity:0.5;}.cls-3{fill:#949494;}.cls-4{fill:#5ea0ef;}.cls-5{fill:url(#linear-gradient);}.cls-6{fill:url(#linear-gradient-2);}</style><linearGradient id="linear-gradient" x1="-302.18" y1="412.58" x2="-301.18" y2="412.58" gradientTransform="matrix(0, -13.3, -24.51, 0, 10135.36, -3998.5)" gradientUnits="userSpaceOnUse"><stop offset="0" stop-color="#5e9624"/><stop offset="0.01" stop-color="#5e9724"/><stop offset="0.35" stop-color="#6cab29"/><stop offset="0.68" stop-color="#73b82c"/><stop offset="1" stop-color="#76bc2d"/></linearGradient><linearGradient id="linear-gradient-2" x1="-301.98" y1="412.57" x2="-300.98" y2="412.57" gradientTransform="matrix(0, -13.41, -24.48, 0, 10123.82, -4006.82)" xlink:href="#linear-gradient"/></defs><g id="group2036-1"><g id="group2037-2"><g id="group2038-3"><g id="shape2039-4"><path class="cls-1" d="M1.93,38H6.22v12a1,1,0,0,1-1,1H1a1,1,0,0,1-1-1H0V40A1.92,1.92,0,0,1,1.87,38Z"/></g><g id="shape2040-6"><path class="cls-2" d="M1.93,38H6.22v12a1,1,0,0,1-1,1H1a1,1,0,0,1-1-1H0V40A1.92,1.92,0,0,1,1.87,38Z"/></g></g><g id="group2041-8"><g id="shape2042-9"><path class="cls-1" d="M50.48,0h4.29a1.92,1.92,0,0,1,1.9,1.91V12.06a1,1,0,0,1-1,1H51.44a1,1,0,0,1-1-1h0Z"/></g><g id="shape2043-11"><path class="cls-2" d="M50.48,0h4.29a1.92,1.92,0,0,1,1.9,1.91V12.06a1,1,0,0,1-1,1H51.44a1,1,0,0,1-1-1h0Z"/></g></g><g id="shape2044-13"><path class="cls-3" d="M56.66,1.91v4.2H.1V1.91A1.91,1.91,0,0,1,2,0H54.76A1.9,1.9,0,0,1,56.66,1.91Z"/></g><g id="group2045-15"><g id="shape2046-16"><path class="cls-1" d="M1,37.92h4.3a1,1,0,0,1,1,1h0V51H1.93A1.91,1.91,0,0,1,0,49.14V39a1,1,0,0,1,.9-1H1Z"/></g><g id="shape2047-18"><path class="cls-2" d="M1,37.92h4.3a1,1,0,0,1,1,1h0V51H1.93A1.91,1.91,0,0,1,0,49.14V39a1,1,0,0,1,.9-1H1Z"/></g></g><g id="group2048-20"><g id="shape2049-21"><path class="cls-1" d="M51.44,37.91h4.3a1,1,0,0,1,1,1h0V49a1.91,1.91,0,0,1-1.89,1.91H50.48V39a1,1,0,0,1,.89-1Z"/></g><g id="shape2050-23"><path class="cls-2" d="M51.44,37.91h4.3a1,1,0,0,1,1,1h0V49a1.91,1.91,0,0,1-1.89,1.91H50.48V39a1,1,0,0,1,.89-1Z"/></g></g><g id="shape2051-25"><path class="cls-3" d="M0,49.11v-4.2H56.56v4.2A1.91,1.91,0,0,1,54.66,51H1.9A1.92,1.92,0,0,1,0,49.11Z"/></g><g id="shape2052-27"><path class="cls-4" d="M48,25l-6-6.19a.29.29,0,0,0-.42-.05.29.29,0,0,0-.11.29v3.8a.3.3,0,0,1-.26.34H23.66a3.49,3.49,0,0,0-2.76-1.37,3.7,3.7,0,0,0-.71,7.36,4.21,4.21,0,0,0,.71,0,3.55,3.55,0,0,0,2.79-1.41h17.4a.3.3,0,0,1,.33.27v3.76a.3.3,0,0,0,.29.32A.3.3,0,0,0,42,32l6-6.08A.69.69,0,0,0,48,25Z"/></g><g id="shape2053-29"><path class="cls-5" d="M36.84,14.05,30.78,8a.3.3,0,0,0-.42-.06.3.3,0,0,0-.11.29v3.87a.3.3,0,0,1-.27.33H19A3.56,3.56,0,0,0,16.24,11,3.7,3.7,0,1,0,19.07,17H30a.3.3,0,0,1,.3.3h0v3.57a.3.3,0,0,0,.29.31.29.29,0,0,0,.24-.11L36.84,15a.69.69,0,0,0,0-.91Z"/></g><g id="shape2054-33"><path class="cls-6" d="M36.84,36.1,30.78,30a.3.3,0,0,0-.42-.06.33.33,0,0,0-.12.29V34a.33.33,0,0,1-.3.33H19a3.55,3.55,0,0,0-2.8-1.37A3.7,3.7,0,1,0,19.07,39H30a.3.3,0,0,1,.3.3h0V43a.3.3,0,0,0,.53.2l6.06-6.08a.69.69,0,0,0,.06-1l-.06-.06Z"/></g></g></g></svg>