<svg id="Layer_1" data-name="Layer 1" xmlns="http://www.w3.org/2000/svg" width="56.66" height="39.07" viewBox="0 0 56.66 39.07"><defs><style>.cls-1,.cls-2{fill:#b3b3b3;}.cls-1,.cls-2,.cls-3,.cls-4,.cls-5,.cls-6{fill-rule:evenodd;}.cls-2{fill-opacity:0.5;}.cls-3{fill:#76bc2d;}.cls-4{fill:#5e9624;}.cls-5{fill:#86d633;}.cls-6{fill:#949494;}</style></defs><g id="group2015-1"><g id="group2016-2"><g id="group2017-3"><g id="shape2018-4"><path class="cls-1" d="M28.93,13.88h2.16v5.91a.46.46,0,0,1-.46.46h-2.3a.46.46,0,0,1-.46-.45h0v-5a1,1,0,0,1,1-.95h.11Z"/></g><g id="shape2019-6"><path class="cls-2" d="M28.93,13.88h2.16v5.91a.46.46,0,0,1-.46.46h-2.3a.46.46,0,0,1-.46-.45h0v-5a1,1,0,0,1,1-.95h.11Z"/></g><g id="shape2020-8"><path class="cls-1" d="M27.86,13.85H30a1,1,0,0,1,1,1v5a.46.46,0,0,1-.46.46h-2.2a.46.46,0,0,1-.46-.45h0Z"/></g><g id="shape2021-10"><path class="cls-2" d="M27.86,13.85H30a1,1,0,0,1,1,1v5a.46.46,0,0,1-.46.46h-2.2a.46.46,0,0,1-.46-.45h0Z"/></g><g id="shape2022-12"><path class="cls-1" d="M56.66,14.7v2.06H28V14.7a1,1,0,0,1,1-.95H55.63a1,1,0,0,1,1,.88v.07Z"/></g></g><g id="group2023-14"><g id="shape2024-15"><path class="cls-1" d="M.37,32.69H2.53a.47.47,0,0,1,.47.46H3v5.91H1a1,1,0,0,1-1-1V33.05a.47.47,0,0,1,.37-.36Z"/></g><g id="shape2025-17"><path class="cls-2" d="M.37,32.69H2.53a.47.47,0,0,1,.47.46H3v5.91H1a1,1,0,0,1-1-1V33.05a.47.47,0,0,1,.37-.36Z"/></g><g id="shape2026-19"><path class="cls-1" d="M.5,32.66H2.67a.47.47,0,0,1,.47.46h0v5a1,1,0,0,1-1,1H0V33a.46.46,0,0,1,.5-.36Z"/></g><g id="shape2027-21"><path class="cls-2" d="M.5,32.66H2.67a.47.47,0,0,1,.47.46h0v5a1,1,0,0,1-1,1H0V33a.46.46,0,0,1,.5-.36Z"/></g><g id="shape2028-23"><path class="cls-1" d="M0,38.11v-2H28.7v2a1,1,0,0,1-1,1H1.07A1,1,0,0,1,0,38.22s0-.07,0-.11Z"/></g></g><g id="shape2029-25"><path class="cls-3" d="M45.3,25.28a.43.43,0,0,1-.37.42H41.66a.4.4,0,0,1-.43-.36s0,0,0,0V22.87a.47.47,0,0,1,.36-.43h3.34a.39.39,0,0,1,.43.35v0Z"/></g><g id="shape2030-27"><path class="cls-4" d="M51.26,27.76a.43.43,0,0,1-.37.42H47.56a.39.39,0,0,1-.43-.36V25.38a.36.36,0,0,1,.33-.39h3.37a.36.36,0,0,1,.43.29v2.48Zm-6,2.48a.4.4,0,0,1-.37.42H41.66a.39.39,0,0,1-.43-.36h0V27.86a.39.39,0,0,1,.36-.43H45a.36.36,0,0,1,.43.29v2.51Z"/></g><g id="shape2031-29"><path class="cls-5" d="M39.33,22.86a.37.37,0,0,1-.34.39H35.63a.4.4,0,0,1-.52.12.36.36,0,0,1-.12-.51V20.35a.36.36,0,0,1,.33-.39H38.7c.33,0,.5.16.5.39Z"/></g><g id="shape2032-31"><path class="cls-3" d="M39.33,27.76a.39.39,0,0,1-.36.42H35.63a.4.4,0,0,1-.4-.39h0V25.32a.39.39,0,0,1,.36-.43h3.34c.33,0,.5.16.5.43Z"/></g><g id="shape2033-33"><path class="cls-4" d="M39.33,32.66a.36.36,0,0,1-.3.42h-3.4a.4.4,0,0,1-.64-.42V30.11a.39.39,0,0,1,.36-.42H38.7a.44.44,0,0,1,.49.36s0,.05,0,.07Z"/></g><g id="shape2034-35"><path class="cls-6" d="M42.69,15.13a.93.93,0,0,0-.93-.92H15a.93.93,0,0,0-1,.88v5a.5.5,0,0,0,.5.46h2.13a.46.46,0,0,0,.47-.46h0V17.18h22.4v2.94a.5.5,0,0,0,.5.46h2.16a.5.5,0,0,0,.5-.46Zm-25.56,18a.47.47,0,0,0-.47-.46H14.5a.5.5,0,0,0-.5.46v5a.81.81,0,0,0,.7.91H26.3v-3H17.13ZM28.7,3.89a1,1,0,0,0-1-1H1.07a1,1,0,0,0-1,.95v5a.47.47,0,0,0,.37.36h2.2a.46.46,0,0,0,.47-.46h0V6h22.4V9a.51.51,0,0,0,.5.29h2.3a.5.5,0,0,0,.5-.46V3.89Zm-25.57,18a.49.49,0,0,0-.47-.49H.47a.5.5,0,0,0-.47.49v5a.85.85,0,0,0,.7.91H12.3V24.86H3.13Z"/></g><g id="shape2035-37"><path class="cls-3" d="M24.4,14.11a.37.37,0,0,1-.33.4H20.7a.37.37,0,0,1-.43-.28V11.63a.35.35,0,0,1,.29-.41H24c.34,0,.5.17.5.43Zm0,2.48c0-.26-.17-.26-.5-.26H20.56a.4.4,0,0,0-.37.43h0V19.3a.39.39,0,0,0,.43.36H24a.39.39,0,0,0,.37-.42h0Zm0,5c0-.23-.17-.39-.5-.39H20.56a.37.37,0,0,0-.37.36V24.1a.37.37,0,0,0,.36.37H24a.35.35,0,0,0,.37-.35V24ZM10.4.36A.43.43,0,0,0,9.91,0H6.57A.4.4,0,0,0,6.2.43h0V3a.4.4,0,0,0,.37.3H9.9a.35.35,0,0,0,.37-.35V2.85Zm0,5c0-.23-.17-.4-.5-.4H6.57a.37.37,0,0,0-.37.36V7.84a.37.37,0,0,0,.36.37H9.93a.35.35,0,0,0,.37-.35v0Zm0,5c0-.26-.17-.42-.5-.42H6.57a.4.4,0,0,0-.37.43h0V12.8a.4.4,0,0,0,.4.4H9.93a.39.39,0,0,0,.37-.42h0Z"/></g></g></g></svg>