<svg id="Layer_1" data-name="Layer 1" xmlns="http://www.w3.org/2000/svg" width="56.69" height="51.03" viewBox="0 0 56.69 51.03"><defs><style>.cls-1{fill:#7a7a7a;}.cls-1,.cls-2,.cls-3,.cls-4,.cls-5,.cls-7{fill-rule:evenodd;}.cls-2,.cls-6{fill:#a0a1a2;}.cls-3,.cls-5{fill:#fff;}.cls-3{fill-opacity:0.2;}.cls-4{fill:#59b4d9;}.cls-7{fill:#b8d432;}</style></defs><g id="group1983-1"><g id="group1984-2"><g id="shape1985-3"><path class="cls-1" d="M36.76,40.4H21.35c1.85,6.38-.64,7.29-11.54,7.29V51H46.88V47.69C36,47.69,34.91,46.78,36.76,40.4Z"/></g><g id="shape1986-5"><path class="cls-2" d="M53.27,0H3.08A3.17,3.17,0,0,0,0,3.15V37.28A3.15,3.15,0,0,0,3.08,40.4H53.27a3.46,3.46,0,0,0,3.42-3.12V3.15A3.48,3.48,0,0,0,53.27,0Z"/></g><g id="shape1987-7"><path class="cls-3" d="M53.3,0H3.08A3.17,3.17,0,0,0,0,3.15V37.28A3.15,3.15,0,0,0,3.08,40.4H4.27Z"/></g><g id="shape1988-9"><path class="cls-4" d="M52.4,4.26V36.15H4.3V4.26l48.1-.07Z"/></g><g id="shape1989-11"><path class="cls-5" d="M30,20.54,37.8,13.3v3.93l-9.45,9.68L18.9,17.26V13.35l7.78,7.19v-15H30Zm-9.81,9.52H36.54v3.68H20.16Z"/></g><g id="shape1990-13"><rect class="cls-6" y="47.69" width="37.07" height="3.34"/></g><g id="shape1991-15"><path class="cls-7" d="M28.93,2.33a.81.81,0,0,1-1.61,0h0a.81.81,0,0,1,1.61,0Z"/></g></g></g></svg>