<svg id="Layer_1" data-name="Layer 1" xmlns="http://www.w3.org/2000/svg" width="56.69" height="56.69" viewBox="0 0 56.69 56.69"><defs><style>.cls-1{fill:#b8d432;}.cls-1,.cls-2{fill-rule:evenodd;}.cls-2{fill:#59b4d9;}</style></defs><g id="group1972-1"><g id="group1973-2"><g id="shape1974-3"><path class="cls-1" d="M42.86,14.85l-3.74-3.74L27,23.36,39.12,35.6l3.74-3.51L34.58,23.7Zm-29,10.32,8.28,8.28-8.28,8.39,3.74,3.74L29.7,33.33,17.57,21.09Z"/></g><g id="shape1975-5"><path class="cls-2" d="M28.35,0a28.35,28.35,0,1,0,0,56.69A28.65,28.65,0,0,0,56.69,28.34,28.42,28.42,0,0,0,28.35,0Zm0,3.74A24.61,24.61,0,1,1,3.74,28.34,24.58,24.58,0,0,1,28.35,3.74Z"/></g></g></g></svg>