<svg id="Layer_1" data-name="Layer 1" xmlns="http://www.w3.org/2000/svg" width="56.69" height="51.02" viewBox="0 0 56.69 51.02"><defs><style>.cls-1,.cls-2{fill:#804998;}.cls-1,.cls-3,.cls-4,.cls-5{fill-rule:evenodd;}.cls-3{fill:#7fba00;}.cls-4,.cls-5{fill:#fff;}.cls-4{fill-opacity:0.2;}</style></defs><g id="group1963-1"><g id="group1964-2"><g id="shape1965-3"><path class="cls-1" d="M12.56,39.26,9.75,51,0,44.83Z"/></g><g id="shape1966-5"><path class="cls-1" d="M27.21,26.73s-.54,1-1.13,1.21c7.47,0,12.35,13.3,15.26,21.06l3.77-1.17C42.14,39.41,38.54,26.73,27.21,26.73Zm20-15L44.4,0,34.65,6.19Z"/></g><g id="shape1967-7"><path class="cls-1" d="M27.21,24.3s-.54-1.05-1.13-1.21c7.47,0,12.35-13.3,15.26-21.07l3.77,1.17C42.14,11.62,38.54,24.3,27.21,24.3Zm20.42-6.07,9.06,7.28L47.63,32.8Z"/></g><g id="shape1968-9"><rect class="cls-2" x="23.79" y="23.08" width="27.42" height="4.86"/></g><g id="shape1969-11"><path class="cls-3" d="M5.39,51H21.52a5.59,5.59,0,0,0,5.39-5.77h0v-20a5.59,5.59,0,0,0-5.39-5.77H5.39A5.59,5.59,0,0,0,0,25.21H0v20A5.59,5.59,0,0,0,5.39,51Z"/></g><g id="shape1970-13"><path class="cls-4" d="M5.39,51,21.52,19.44H5.39A5.59,5.59,0,0,0,0,25.21H0v20A5.59,5.59,0,0,0,5.39,51Z"/></g><g id="shape1971-15"><path class="cls-5" d="M15.86,21.87h6.8v7.29h-6.8ZM4.53,14.59h6.8v7.29H4.53Zm0,14.57h6.8v7.29H4.53Z"/></g></g></g></svg>