<svg id="Layer_1" data-name="Layer 1" xmlns="http://www.w3.org/2000/svg" xmlns:xlink="http://www.w3.org/1999/xlink" width="48.57" height="56.69" viewBox="0 0 48.57 56.69"><defs><style>.cls-1{fill:#0078d4;}.cls-1,.cls-2,.cls-4{fill-rule:evenodd;}.cls-2{fill:url(#linear-gradient);}.cls-3{fill:#76bc2d;}.cls-4{fill:#fff;}</style><linearGradient id="linear-gradient" x1="-285.6" y1="418.51" x2="-284.6" y2="418.51" gradientTransform="matrix(0, -50.43, -40.95, 0, 17160.44, -14351.6)" gradientUnits="userSpaceOnUse"><stop offset="0" stop-color="#0078d4"/><stop offset="1" stop-color="#5ea0ef"/></linearGradient></defs><g id="group1957-1"><g id="group1958-2"><g id="shape1959-3"><path class="cls-1" d="M44.65,25.67c0,14.81-17.73,26.7-21.59,29.11a1.39,1.39,0,0,1-1.47,0C17.74,52.37,0,40.46,0,25.67V7.87A1.41,1.41,0,0,1,1.37,6.46C15.17,6.1,12,0,22.33,0s7.16,6.1,21,6.47a1.4,1.4,0,0,1,1.36,1.41Z"/></g><g id="shape1960-5"><path class="cls-2" d="M42.8,25.83C42.8,39.39,26.55,50.3,23,52.52a1.27,1.27,0,0,1-1.35,0c-3.54-2.21-19.8-13.13-19.8-26.69V9.51A1.3,1.3,0,0,1,3.1,8.22c12.66-.35,9.74-5.94,19.22-5.94s6.57,5.6,19.22,5.94a1.29,1.29,0,0,1,1.25,1.29Z"/></g><g id="shape1961-9"><ellipse class="cls-3" cx="16.3" cy="40.26" rx="16.3" ry="16.43"/></g><g id="shape1962-11"><path class="cls-4" d="M23.07,38.72a.58.58,0,0,1-.79-.21h0l-.69-1.17a.59.59,0,0,1,.2-.8l5.48-3.27a.56.56,0,0,1,.79.2h0L31.31,39a.58.58,0,0,1-.2.79h0l-1.17.71a.58.58,0,0,1-.79-.21l-1-1.64A7.58,7.58,0,0,0,28,41.41a6.94,6.94,0,0,0,.9,2.61,7.08,7.08,0,0,0,1.25,1.58,7.7,7.7,0,0,0,1.63,1.14,7.28,7.28,0,0,0,1.87.65,8.26,8.26,0,0,0,1.49.14.56.56,0,0,1,.56.52L36,50.89a10.49,10.49,0,0,1-3-.16,11.18,11.18,0,0,1-2.76-1,10.73,10.73,0,0,1-2.39-1.68,10.53,10.53,0,0,1-3.22-6.3A10.75,10.75,0,0,1,25,37.59Zm13.3-5.36a7.36,7.36,0,0,1,3.5,1.81A6.82,6.82,0,0,1,42,39.34a7.55,7.55,0,0,1-.15,2.76l-1-1.63a.58.58,0,0,0-.79-.21L39,41a.57.57,0,0,0-.2.79h0L42,47.27a.58.58,0,0,0,.79.2l5.47-3.27a.6.6,0,0,0,.21-.8h0l-.69-1.17A.58.58,0,0,0,47,42l-1.89,1.14A10.73,10.73,0,0,0,45.4,39a10.45,10.45,0,0,0-3.22-6.3A10.21,10.21,0,0,0,39.79,31,10.46,10.46,0,0,0,37,30a9.87,9.87,0,0,0-2.36-.2.57.57,0,0,0-.54.6v0l.21,2.23a.57.57,0,0,0,.57.52,6.63,6.63,0,0,1,1.47.17Z"/></g></g></g></svg>