<svg id="Layer_1" data-name="Layer 1" xmlns="http://www.w3.org/2000/svg" xmlns:xlink="http://www.w3.org/1999/xlink" width="55.53" height="56.69" viewBox="0 0 55.53 56.69"><defs><style>.cls-1{fill:#005ba1;}.cls-1,.cls-3,.cls-4,.cls-5{fill-rule:evenodd;}.cls-2{fill:#50e5ff;}.cls-3{fill:#0078d4;}.cls-4{fill:#fff;}.cls-5{fill:url(#linear-gradient);}</style><linearGradient id="linear-gradient" x1="-265.38" y1="430.4" x2="-264.38" y2="430.4" gradientTransform="matrix(0.73, 28.91, 39.78, -0.53, -16891.72, 7915.8)" gradientUnits="userSpaceOnUse"><stop offset="0" stop-color="#32d4f5"/><stop offset="0.23" stop-color="#31d0f1"/><stop offset="0.46" stop-color="#2cc3e6"/><stop offset="0.7" stop-color="#25afd4"/><stop offset="0.94" stop-color="#1c92ba"/><stop offset="1" stop-color="#198ab3"/></linearGradient></defs><g id="group1936-1"><g id="group1937-2"><g id="shape1938-3"><path class="cls-1" d="M54.43,12.3H51.56a12.49,12.49,0,0,0-1.73,0,2.14,2.14,0,0,1-2.11-2.17,2.06,2.06,0,0,1,.25-1L49.2,7A5.71,5.71,0,0,0,47.59,6l-2.92,5.22a2.22,2.22,0,0,1-1.89,1.1H40.16a2.08,2.08,0,0,0-1,.26l-4.94,3.14a.89.89,0,0,1-.51,0H16.6a.91.91,0,0,0-.86,1v15.2l-5.51,1.7.41,1.76,5.1-.75v9.12a.91.91,0,0,0,.91.91H46.18l3.62,4.68,1.54-1L49.2,44.68h5.29a.91.91,0,0,0,.94-.88V13.25a1,1,0,0,0-.95-.95h-.06Z"/></g><g id="shape1939-5"><circle class="cls-2" cx="50.02" cy="3.43" r="3.43"/></g><g id="shape1940-7"><ellipse class="cls-2" cx="4.47" cy="52.22" rx="4.47" ry="4.47"/></g><g id="shape1941-9"><ellipse class="cls-2" cx="5.57" cy="51.12" rx="5.57" ry="5.57"/></g><g id="shape1942-11"><path class="cls-3" d="M47.78,15,26,11.83h-.44a3.14,3.14,0,0,0-3.15,2.74l-.82,5.31H50.4V18.59A3.16,3.16,0,0,0,47.8,15Z"/></g><g id="shape1943-13"><path class="cls-4" d="M47.56,16.33,25.82,13.18h-.28a1.84,1.84,0,0,0-1.79,1.57L23,19.88H48.88l.22-1.48A1.82,1.82,0,0,0,47.56,16.33Z"/></g><g id="shape1944-15"><path class="cls-5" d="M16.57,15.76h19a1,1,0,0,1,.67.28l3.15,3.15a.91.91,0,0,0,.66.28H54.58a.93.93,0,0,1,.94.91V43.76a1,1,0,0,1-1,.91H16.79a.91.91,0,0,1-1-.78.57.57,0,0,1,0-.13v-27a1,1,0,0,1,.82-1Z"/></g></g></g></svg>