<svg id="Layer_1" data-name="Layer 1" xmlns="http://www.w3.org/2000/svg" width="49.33" height="57.53" viewBox="0 0 49.33 57.53"><defs><style>.cls-1{fill:#59b4d9;}.cls-1,.cls-2,.cls-4,.cls-5{fill-rule:evenodd;}.cls-2{fill:#fff;fill-opacity:0.8;}.cls-3{fill:none;}.cls-4{fill:#00188f;}.cls-5{fill:#1e1e1e;fill-opacity:0.5;}</style></defs><g id="group1945-1"><g id="group1946-2"><g id="shape1947-3"><path class="cls-1" d="M46.73,7.34l-5.3-5.18L39.22,0H.33V54H48.94V9.5Z"/></g><g id="shape1948-5"><path class="cls-2" d="M39,2.16H2.54V51.79h44.2V9.71H39Z"/></g><g id="shape1949-7"><path class="cls-1" d="M28.83,42.29a1.2,1.2,0,0,1-1.21,1.19H10.93a1.19,1.19,0,1,1-.14-2.37H27.62A1.22,1.22,0,0,1,28.83,42.29ZM40,26.11a1.2,1.2,0,0,1-1.21,1.19H10.93a1.19,1.19,0,1,1,0-2.38H38.67A1.24,1.24,0,0,1,40,26.08v0Zm0,8.09a1.2,1.2,0,0,1-1.21,1.19H10.93a1.19,1.19,0,1,1,0-2.38H38.67A1.24,1.24,0,0,1,40,34.17v0ZM40,18a1.2,1.2,0,0,1-1.21,1.18H10.93A1.19,1.19,0,0,1,9.79,18a1.22,1.22,0,0,1,1.14-1.12H38.67A1.24,1.24,0,0,1,40,18v0Z"/><path class="cls-3" d="M28.83,42.29a1.2,1.2,0,0,1-1.21,1.19H10.93a1.19,1.19,0,1,1-.14-2.37H27.62a1.22,1.22,0,0,1,1.21,1.18M40,26.11a1.2,1.2,0,0,1-1.21,1.19H10.93a1.19,1.19,0,1,1,0-2.38H38.67A1.24,1.24,0,0,1,40,26.08v0m0,8.09a1.2,1.2,0,0,1-1.21,1.19H10.93a1.19,1.19,0,1,1,0-2.38H38.67A1.24,1.24,0,0,1,40,34.17v0M40,18a1.2,1.2,0,0,1-1.21,1.18H10.93A1.19,1.19,0,0,1,9.79,18a1.22,1.22,0,0,1,1.14-1.12H38.67A1.24,1.24,0,0,1,40,18v0"/></g><g id="shape1950-10"><path class="cls-4" d="M.33,41.43a11.26,11.26,0,0,0,13.59,8h0a11.45,11.45,0,0,0,2.95-1.18l8.55,8.42a3,3,0,0,0,4.1,0,2.78,2.78,0,0,0,0-4h0L21,44.26a10.83,10.83,0,0,0-4.12-15,11.38,11.38,0,0,0-15.33,4A10.75,10.75,0,0,0,.33,41.43ZM4.5,34.82a7.79,7.79,0,0,1,4.86-3.49A7.88,7.88,0,0,1,18.89,37a7.69,7.69,0,0,1-5.76,9.31A7.88,7.88,0,0,1,3.6,40.64,7.49,7.49,0,0,1,4.5,34.82Z"/></g><g id="shape1951-12"><path class="cls-5" d="M44.36,48.28l.81.8c.21-.08.42-.17.62-.27A12.41,12.41,0,0,0,49,45.64c.12-.16.22-.33.33-.5l-.09-.09-.81-.79c-.14.24-.28.48-.44.71a11.11,11.11,0,0,1-2.9,2.86C44.85,48,44.61,48.14,44.36,48.28Z"/></g></g></g></svg>