<svg id="Layer_1" data-name="Layer 1" xmlns="http://www.w3.org/2000/svg" width="56.69" height="33.9" viewBox="0 0 56.69 33.9"><defs><style>.cls-1{fill:#821010;}.cls-1,.cls-4,.cls-5,.cls-6,.cls-7{fill-rule:evenodd;}.cls-2,.cls-4{fill:#e62323;}.cls-3,.cls-5{fill:#ff7381;}.cls-6{fill:#e6e6e6;}.cls-7{fill:#666;}</style></defs><g id="group1909-1"><g id="group1910-2"><g id="shape1911-3"><path class="cls-1" d="M52.82,4.11H2.23A2.11,2.11,0,0,0,0,6.09V31.82A2.11,2.11,0,0,0,2.13,33.9h28V23.83a1.76,1.76,0,0,1,1.25-1.69h.47A18.09,18.09,0,0,0,43.56,18a8.4,8.4,0,0,1,2.53-.9,14.47,14.47,0,0,1,3.07-.43,13.77,13.77,0,0,1,3.07.29,9.06,9.06,0,0,1,2.71,1V6.23a2.1,2.1,0,0,0-2.08-2.12ZM37.38,24.41V31H52.23V24.41Z"/></g><g id="shape1912-5"><rect class="cls-2" x="3.11" width="14.88" height="6.48"/></g><g id="shape1913-7"><rect class="cls-3" x="20.23" width="14.88" height="6.48"/></g><g id="shape1914-9"><path class="cls-4" d="M52.27,0H37.38V6.48H52.27Zm-43,8.68H3.11v6.47H9.29Z"/></g><g id="shape1915-11"><path class="cls-5" d="M52.23,8.68V10a14.5,14.5,0,0,0-3.07-.39,15.06,15.06,0,0,0-3.07.28V8.68Zm-25.78,0H11.56v6.47H26.45Z"/></g><g id="shape1916-13"><path class="cls-4" d="M43.56,8.68v2.19a18.09,18.09,0,0,1-11.67,4.18H28.68V8.68ZM18,17.39H3.11v6.47H18Z"/></g><g id="shape1917-15"><rect class="cls-3" x="20.23" y="17.35" width="9.95" height="6.48"/></g><g id="shape1918-17"><path class="cls-6" d="M32.92,10v3.42H0V33a1,1,0,0,0,1,.93H31.78A1,1,0,0,0,32.84,33V10h.08ZM2.63,18.36A1.36,1.36,0,1,1,4,19.69,1.38,1.38,0,0,1,2.63,18.36ZM4,30.45a1.34,1.34,0,1,1,1.35-1.34h0A1.38,1.38,0,0,1,4,30.45Zm0-5.68a1.38,1.38,0,0,1-1.36-1.34,1.36,1.36,0,0,1,2.71,0A1.39,1.39,0,0,1,4,24.8v0Zm25.27,4.89c0,.25-.37.47-.8.47H8.16c-.44,0-.81-.22-.81-.47V28.4c0-.22.37-.43.81-.43h20.3c.43,0,.8.21.8.43Zm0-5.69c0,.26-.37.47-.8.47H8.16c-.44,0-.81-.21-.81-.47V22.86c0-.25.37-.43.81-.43h20.3c.43,0,.8.18.8.43Zm0-5.07c0,.25-.37.47-.8.47H8.16c-.44,0-.81-.22-.81-.47V17.78c0-.21.37-.43.81-.43h20.3c.43,0,.8.22.8.43Z"/></g><g id="shape1919-19"><path class="cls-7" d="M24.83,9a.9.9,0,0,0-1,.75.77.77,0,0,0,0,.15v3.42H56.69V10a.93.93,0,0,0-1-.86H24.83ZM52.22,22.42H31.93c-.44,0-.81.18-.81.43V24c0,.25.37.47.81.47H52.22c.44,0,.81-.22.81-.47V22.85c0-.25-.37-.43-.8-.43Zm0-5.07H31.93c-.44,0-.81.21-.81.43v1.11c0,.26.37.47.81.47H52.22c.44,0,.81-.21.81-.47V17.78c0-.18-.37-.43-.8-.43Zm0,10.76H31.93c-.44,0-.81.21-.81.43v1.11c0,.26.37.47.81.47H52.22c.44,0,.81-.21.81-.47V28.39a1.5,1.5,0,0,0-.8-.28ZM27.76,19.68A1.33,1.33,0,1,0,27.9,17h-.14a1.33,1.33,0,0,0,0,2.66Zm0,5.08a1.33,1.33,0,1,0,.14-2.66h-.14a1.33,1.33,0,0,0,0,2.66Zm0,5.68a1.33,1.33,0,1,0,.14-2.66h-.14a1.33,1.33,0,0,0,0,2.66Z"/></g></g></g></svg>