<svg id="Layer_1" data-name="Layer 1" xmlns="http://www.w3.org/2000/svg" xmlns:xlink="http://www.w3.org/1999/xlink" width="56.69" height="48.2" viewBox="0 0 56.69 48.2"><defs><style>.cls-1,.cls-2,.cls-5,.cls-6{fill-rule:evenodd;}.cls-1{fill:url(#linear-gradient);}.cls-2{fill:#821010;}.cls-3,.cls-5{fill:#e62323;}.cls-4,.cls-6{fill:#ff7381;}</style><linearGradient id="linear-gradient" x1="-285.34" y1="416.22" x2="-284.34" y2="416.22" gradientTransform="matrix(0, -40.42, -56.69, 0, 23623.67, -11493.24)" gradientUnits="userSpaceOnUse"><stop offset="0" stop-color="#0078d4"/><stop offset="0.82" stop-color="#5ea0ef"/></linearGradient></defs><g id="group1898-1"><g id="group1899-2"><g id="shape1900-3"><path class="cls-1" d="M56.69,27.75a12.83,12.83,0,0,0-11-12.32A16.1,16.1,0,0,0,29.1,0a16.47,16.47,0,0,0-15.75,10.8A15.23,15.23,0,0,0,0,25.5,15.48,15.48,0,0,0,16,40.41H43.21a4.09,4.09,0,0,0,.7,0A12.94,12.94,0,0,0,56.69,27.75Z"/></g><g id="shape1901-7"><path class="cls-2" d="M45,31.07a1.33,1.33,0,0,0-1.32-1.3H13a1.32,1.32,0,0,0-1.32,1.3V46.9A1.31,1.31,0,0,0,13,48.2H43.69A1.33,1.33,0,0,0,45,46.9Z"/></g><g id="shape1902-9"><rect class="cls-3" x="13.54" y="31.61" width="9.04" height="4.02"/></g><g id="shape1903-11"><rect class="cls-4" x="23.94" y="31.61" width="9.04" height="4.02"/></g><g id="shape1904-13"><path class="cls-5" d="M34.33,31.61h9v4h-9ZM13.54,37h3.75v4H13.54Z"/></g><g id="shape1905-15"><path class="cls-6" d="M39.63,37h3.74v4H39.63Zm-21,0h9v4h-9Z"/></g><g id="shape1906-17"><path class="cls-5" d="M29.07,37h9v4h-9ZM13.54,42.38h9v4h-9Z"/></g><g id="shape1907-19"><rect class="cls-4" x="23.94" y="42.37" width="9.04" height="4.02"/></g><g id="shape1908-21"><rect class="cls-3" x="34.33" y="42.37" width="9.04" height="4.02"/></g></g></g></svg>