<svg id="Layer_1" data-name="Layer 1" xmlns="http://www.w3.org/2000/svg" width="56.64" height="51.02" viewBox="0 0 56.64 51.02"><defs><style>.cls-1{fill:#7a7a7a;}.cls-1,.cls-10,.cls-11,.cls-2,.cls-3,.cls-5,.cls-7,.cls-8,.cls-9{fill-rule:evenodd;}.cls-2,.cls-6{fill:#a0a1a2;}.cls-10,.cls-3,.cls-8,.cls-9{fill:#fff;}.cls-3{fill-opacity:0.2;}.cls-4,.cls-5{fill:#59b4d9;}.cls-7{fill:#b8d432;}.cls-9{fill-opacity:0.7;}.cls-10{fill-opacity:0.4;}.cls-11{fill:#ba141a;}</style></defs><g id="group1885-1"><g id="group1886-2"><g id="shape1887-3"><path class="cls-1" d="M26.91,40.4H10.35c1.86,6.37.53,7.31-10.35,7.31V51H37.05V47.71C26.12,47.71,25.06,46.77,26.91,40.4Z"/></g><g id="shape1888-5"><path class="cls-2" d="M53.24,0H3.08A3.18,3.18,0,0,0,0,3.16V37.29A3.13,3.13,0,0,0,3.08,40.4H53.24a3.43,3.43,0,0,0,3.4-3.11V3.16A3.43,3.43,0,0,0,53.24,0Z"/></g><g id="shape1889-7"><path class="cls-3" d="M53.3,0H3.08A3.18,3.18,0,0,0,0,3.16V37.29A3.13,3.13,0,0,0,3.08,40.4H4.25Z"/></g><g id="shape1890-9"><rect class="cls-4" x="4.3" y="4.24" width="47.99" height="31.91"/></g><g id="shape1891-11"><path class="cls-5" d="M4.3,36.15h.11V4.24l43.79,0-43.9,0Z"/></g><g id="shape1892-13"><rect class="cls-6" x="9.82" y="47.71" width="37.05" height="3.32"/></g><g id="shape1893-15"><path class="cls-7" d="M28.93,2.32a.8.8,0,0,1-1.59,0,.8.8,0,0,1,1.59,0Z"/></g><g id="shape1894-17"><path class="cls-8" d="M28.4,25.27c-.06,0-.06,0-.11-.05l-7.11-4a.25.25,0,0,1-.11-.21c0-.05.05-.15.11-.15l7.06-4a.17.17,0,0,1,.21,0l7.11,4c0,.05.11.1.11.15s-.06.16-.11.16l-7.06,4Z"/></g><g id="shape1895-19"><path class="cls-9" d="M27.34,35c-.05,0-.05,0-.1-.05l-7.06-4a.25.25,0,0,1-.11-.21V22.79a.36.36,0,0,1,.11-.21.17.17,0,0,1,.21,0l7.06,4a.26.26,0,0,1,.1.21v8a.37.37,0,0,1-.1.21Z"/></g><g id="shape1896-21"><path class="cls-10" d="M29.35,35c-.05,0-.05,0-.1-.05a.25.25,0,0,1-.11-.21V26.83a.36.36,0,0,1,.11-.21l7.06-4a.17.17,0,0,1,.21,0c0,.06.1.11.1.16v7.92a.37.37,0,0,1-.1.21l-7.06,4C29.46,35,29.41,35,29.35,35Z"/></g><g id="shape1897-23"><path class="cls-11" d="M19.06,4.66C28.72,11.29,28.45,20,28.45,20s-2.65-8.28-14-11.7l6,.15ZM36,8.86c-7.65,4.4-8.12,11.34-8.12,11.34s2.6-6.47,11.3-8.34l-4.56-.21ZM28.4,19.11a14.49,14.49,0,0,0-6-4.87c-2.45-.93-4.3-1.24-5.58-.77a2.33,2.33,0,0,0-1.43,1.29c-.43,1-.37,3.06,4.67,5a14.19,14.19,0,0,0,7.8.57l1.12-.42ZM21.71,15.8A11.42,11.42,0,0,1,26.12,19a12,12,0,0,1-5.42-.73c-2.92-1.14-4-2.33-3.77-2.9a.48.48,0,0,1,.43-.31C17.73,14.86,19,14.71,21.71,15.8Zm7.11,4.4a15.07,15.07,0,0,0,7.86.05c2.49-.77,4.14-1.71,4.83-2.8a2.12,2.12,0,0,0,.26-1.86c-.31-1.09-1.69-2.59-6.9-1a15,15,0,0,0-6.47,4.36l-.69.88Zm7.38-1.55a12.76,12.76,0,0,1-5.47.26,12.32,12.32,0,0,1,4.67-2.8c3-.93,4.57-.68,4.78-.05.06.1.06.26-.1.51S39.07,17.77,36.2,18.65Z"/></g></g></g></svg>