<svg id="Layer_1" data-name="Layer 1" xmlns="http://www.w3.org/2000/svg" xmlns:xlink="http://www.w3.org/1999/xlink" width="56.7" height="49.99" viewBox="0 0 56.7 49.99"><defs><style>.cls-1{fill:#50e6ff;}.cls-1,.cls-2,.cls-3{fill-rule:evenodd;}.cls-2{fill:#1490df;}.cls-3{fill:url(#linear-gradient);}</style><linearGradient id="linear-gradient" x1="-283.72" y1="412.92" x2="-282.72" y2="412.92" gradientTransform="matrix(0, -49.99, -28.34, 0, 11716.3, -14134.59)" gradientUnits="userSpaceOnUse"><stop offset="0" stop-color="#fea11b"/><stop offset="0.28" stop-color="#fea51a"/><stop offset="0.55" stop-color="#feb018"/><stop offset="0.8" stop-color="#ffc314"/><stop offset="1" stop-color="#ffd70f"/></linearGradient></defs><g id="group1878-1"><g id="group1879-2"><g id="shape1880-3"><path class="cls-1" d="M17.17,37.87l-1.89,1.88a1,1,0,0,1-1.26,0L.48,26.29a1.89,1.89,0,0,1,0-2.5l1.58-1.88,15.11,15a.58.58,0,0,1,.11.82.43.43,0,0,1-.11.12Z"/></g><g id="shape1881-5"><path class="cls-2" d="M15,10.33l1.89,1.88a.93.93,0,0,1,0,1.25L2.37,27.86.48,26a1.87,1.87,0,0,1,0-2.5L14,10A1.11,1.11,0,0,1,15,10.33Z"/></g><g id="shape1882-7"><path class="cls-1" d="M54.33,21.91l1.89,1.87a1.88,1.88,0,0,1,0,2.51L42.36,40.06a1,1,0,0,1-1.26,0l-1.89-1.88a.93.93,0,0,1,0-1.25Z"/></g><g id="shape1883-9"><path class="cls-2" d="M55.9,26,54,27.86,39.21,13.15a1,1,0,0,1,0-1.26L41.1,10a1,1,0,0,1,1.26,0L55.9,23.48A1.87,1.87,0,0,1,55.9,26Z"/></g><g id="shape1884-11"><path class="cls-3" d="M12,27.86H.63A.67.67,0,0,1,0,27.23v-.31L13.54.31c.32,0,.32-.31.63-.31H27.4A.67.67,0,0,1,28,.63V.94l-15.75,21H27.71a.67.67,0,0,1,.63.63.31.31,0,0,1-.32.31L2.2,49.45c-.31,0-1.89,1.57-1.26-.62Z"/></g></g></g></svg>