<svg id="Layer_1" data-name="Layer 1" xmlns="http://www.w3.org/2000/svg" width="28.41" height="56.88" viewBox="0 0 28.41 56.88"><defs><style>.cls-1{fill:#ff8c00;}.cls-1,.cls-2{fill-rule:evenodd;}.cls-2{fill:#59b4d9;}</style></defs><g id="group1874-1"><g id="group1875-2"><g id="shape1876-3"><path class="cls-1" d="M11,36.61c-.23-.15-.41-.25-.57-.38C9.12,35.16,7.74,34.17,6.52,33a6.74,6.74,0,0,1-1.15-7.45,11.86,11.86,0,0,1,3.05-3.41A47.13,47.13,0,0,1,17,16.76a28.87,28.87,0,0,0,5.78-3.59A16,16,0,0,0,28.23,4a11.7,11.7,0,0,0,.15-1.17A2.38,2.38,0,0,0,26.48,0a2.33,2.33,0,0,0-2.69,2,1.49,1.49,0,0,0,0,.21,12.49,12.49,0,0,1-6.38,9c-1.6,1-3.29,1.76-4.92,2.66a37.32,37.32,0,0,0-8.26,5.81A12.19,12.19,0,0,0,.55,25,11.29,11.29,0,0,0,3.33,36.48c.84.88,1.79,1.66,2.7,2.46a.7.7,0,0,0,.59.15C8.07,38.3,9.5,37.47,11,36.61Zm6.31,8.62,1.43.93a10.06,10.06,0,0,1,4.79,7.34c.06.4.08.82.15,1.23a2.3,2.3,0,0,0,4.59-.34,13.93,13.93,0,0,0-3.17-8.79A31.9,31.9,0,0,0,22.41,43a.67.67,0,0,0-.59-.14C20.34,43.6,18.87,44.4,17.32,45.23Z"/></g><g id="shape1877-5"><path class="cls-2" d="M5.28,5.16A9.92,9.92,0,0,0,6.87,8.22h10a16.58,16.58,0,0,1-1.68,1.15c-.32.2-.65.38-1,.57H8.57c.35.28.72.54,1.09.79l1.43.93c-1.56.83-3,1.63-4.5,2.4A.65.65,0,0,1,6,13.92,32,32,0,0,1,3.3,11.29,14,14,0,0,1,.13,2.5a2.3,2.3,0,0,1,4.59-.34c.07.41.1.83.15,1.23a.09.09,0,0,0,0,0H20.7V3.5a11.26,11.26,0,0,1-.92,1.66ZM.18,52.91a16,16,0,0,1,5.43-9.2,28.31,28.31,0,0,1,5.77-3.58A48.25,48.25,0,0,0,20,34.76c.3-.25.59-.51.88-.77H10.94c-.35-.3-.69-.61-1-.92a6.38,6.38,0,0,1-.66-.8h13.2a7.54,7.54,0,0,0,.59-.92,5.72,5.72,0,0,0,.6-2.18H8.16a7.06,7.06,0,0,1,0-1.72H23.6a6.34,6.34,0,0,0-1.25-3H9.55a13.59,13.59,0,0,1,1.67-1.72h9.31L18,20.66c-.16-.13-.34-.23-.57-.38,1.51-.86,2.94-1.69,4.39-2.49a.66.66,0,0,1,.59.14c.91.81,1.85,1.59,2.69,2.48a11.25,11.25,0,0,1,2.8,11.46,12.1,12.1,0,0,1-3.67,5.39A37.6,37.6,0,0,1,16,43.07c-1.63.9-3.33,1.69-4.92,2.66a17.55,17.55,0,0,0-2,1.44h6.7l.11.07a11.1,11.1,0,0,1,2,1.65H7.28A11.73,11.73,0,0,0,5.4,52H19.91a9.29,9.29,0,0,1,.54,1.72H4.86c-.08.32-.16.64-.22,1a2.34,2.34,0,0,1-2.51,2.19A2.37,2.37,0,0,1,0,54.29a1.49,1.49,0,0,1,0-.21Q.09,53.48.18,52.91Z"/></g></g></g></svg>