<svg id="Layer_1" data-name="Layer 1" xmlns="http://www.w3.org/2000/svg" width="49" height="57.88" viewBox="0 0 49 57.88"><defs><style>.cls-1{fill:#ff8c00;}.cls-1,.cls-3,.cls-4,.cls-5{fill-rule:evenodd;}.cls-2,.cls-5{fill:#fcd116;}.cls-3{fill:#59b4d9;stroke:#59b4d9;stroke-miterlimit:3;stroke-width:2.84px;}.cls-4{fill:#b8d432;}</style></defs><g id="group1867-1"><g id="group1868-2"><g id="shape1869-3"><path class="cls-1" d="M13.83,47H9.52c1,6.5-2.56,7.44-8.71,7.44v3.4H21.73v-3.4C15.58,54.48,12.79,53.55,13.83,47Z"/></g><g id="shape1870-5"><rect class="cls-2" x="0.81" y="54.48" width="20.92" height="3.41"/></g><g id="shape1871-7"><path class="cls-3" d="M24.21,36.45a2.49,2.49,0,0,1,3.58,0h0l-4-4.11a2.67,2.67,0,0,1,0-3.68,2.49,2.49,0,0,1,3.58,0h0l1.06,1.09.83.77,1.95,2a2.48,2.48,0,0,0,3.58,0,2.65,2.65,0,0,0,0-3.68h0l-2-2-1.24-1.27-5.95-6.12a2.67,2.67,0,0,1,0-3.68,2.49,2.49,0,0,1,3.58,0h0l2.61,2.68a2.65,2.65,0,0,1-.15-3.67,2.49,2.49,0,0,1,3.58-.16l.14.15,6.77,7a21.2,21.2,0,0,0-6-13.88,20.14,20.14,0,0,0-12.38-6l3,3.12a3.34,3.34,0,0,1-.15,4.64,3.13,3.13,0,0,1-4.36,0L20.28,7.43a3.14,3.14,0,0,0-4.52,0,3.35,3.35,0,0,0,0,4.65l4.09,4.2a3.34,3.34,0,0,1-.15,4.64,3.13,3.13,0,0,1-4.36,0l-4.49-4.61a3.32,3.32,0,0,1-1.58,4.35A3.12,3.12,0,0,1,5.69,20L9,23.35A3.34,3.34,0,0,1,8.81,28a3.13,3.13,0,0,1-4.36,0l-3-3.12A21.16,21.16,0,0,0,7.29,37.6,20.06,20.06,0,0,0,27,43l-2.83-2.91A2.67,2.67,0,0,1,24.21,36.45Z"/></g><g id="shape1872-9"><path class="cls-4" d="M42.17,36.58l-6.76-7a2.46,2.46,0,0,0-3.57,0,2.66,2.66,0,0,0,0,3.68h0l-2.61-2.69a2.47,2.47,0,0,0-3.57,0,2.66,2.66,0,0,0,0,3.68l6,6.12,1.23,1.28,2,2a2.65,2.65,0,0,1,0,3.68,2.48,2.48,0,0,1-3.58,0l-1.95-2-.83-.78L27.37,43.5a2.47,2.47,0,0,0-3.57,0,2.66,2.66,0,0,0,0,3.68l4,4.11a2.47,2.47,0,0,0-3.57,0,2.66,2.66,0,0,0,0,3.68h0L27,57.88a20.23,20.23,0,0,0,9.17-5.44A21.27,21.27,0,0,0,42.17,36.58ZM9,42.83a3.34,3.34,0,0,0,0-4.64L5.69,34.83a3.15,3.15,0,0,0,4.23,1.62,3.32,3.32,0,0,0,.93-5.3l4.49,4.62a3.14,3.14,0,0,0,4.52,0,3.35,3.35,0,0,0,0-4.65l-4.09-4.2a3.36,3.36,0,0,1-.15-4.64,3.14,3.14,0,0,1,4.51-.16l.15.16,2.08,2.13a3.13,3.13,0,0,0,4.52-.16,3.35,3.35,0,0,0,0-4.48l-3-3.12A20.07,20.07,0,0,0,7.29,22.7a21.35,21.35,0,0,0-5.88,17l3,3.12a3.14,3.14,0,0,0,4.52,0Z"/></g><g id="shape1873-11"><path class="cls-5" d="M21.75,50.75A26.68,26.68,0,0,1,2.48,42.54a2,2,0,0,1-.1-2.76,1.86,1.86,0,0,1,2.69-.1l.1.1a23,23,0,0,0,33.16,0,24.31,24.31,0,0,0,6.87-17A24.32,24.32,0,0,0,38.33,5.67a2,2,0,0,1,.11-2.76,1.87,1.87,0,0,1,2.58,0,28.27,28.27,0,0,1,8,19.82,28.26,28.26,0,0,1-8,19.81A26.68,26.68,0,0,1,21.75,50.75Z"/></g></g></g></svg>