<svg id="Layer_1" data-name="Layer 1" xmlns="http://www.w3.org/2000/svg" xmlns:xlink="http://www.w3.org/1999/xlink" width="56.69" height="56.69" viewBox="0 0 56.69 56.69"><defs><style>.cls-1{fill:none;}.cls-2{fill:#0078d4;}.cls-2,.cls-6{fill-rule:evenodd;}.cls-3{fill:url(#linear-gradient);}.cls-4{fill:url(#linear-gradient-2);}.cls-5{fill:url(#linear-gradient-3);}.cls-6{fill:#5ea0ef;}</style><linearGradient id="linear-gradient" x1="-305.58" y1="403.65" x2="-304.58" y2="403.65" gradientTransform="matrix(0, -11.65, -11.65, 0, 4714.76, -3516.21)" gradientUnits="userSpaceOnUse"><stop offset="0.09" stop-color="#32bedd"/><stop offset="0.21" stop-color="#3bcae7"/><stop offset="0.42" stop-color="#47daf5"/><stop offset="0.66" stop-color="#4ee3fd"/><stop offset="1" stop-color="#50e6ff"/></linearGradient><linearGradient id="linear-gradient-2" x1="-305.58" y1="403.65" x2="-304.58" y2="403.65" gradientTransform="matrix(0, -11.65, -11.65, 0, 4749.63, -3516.21)" xlink:href="#linear-gradient"/><linearGradient id="linear-gradient-3" x1="-305.58" y1="403.65" x2="-304.58" y2="403.65" gradientTransform="matrix(0, -11.65, -11.65, 0, 4732.21, -3547.17)" xlink:href="#linear-gradient"/></defs><g id="group1859-1"><g id="group1860-2"><g id="shape1861-3"><rect class="cls-1" width="56.69" height="56.69"/></g><g id="shape1862-5"><path class="cls-2" d="M23.05,37.29H33.48a.87.87,0,0,0,.85-.69,11.73,11.73,0,0,1,4.22-6.78.84.84,0,0,0,.22-1.13l-5.42-9.45a.84.84,0,0,0-1.07-.34,12,12,0,0,1-3.94.72,11.09,11.09,0,0,1-4.06-.73.89.89,0,0,0-1.07.41l-5.42,9.45A.89.89,0,0,0,18,29.89a11.59,11.59,0,0,1,4.19,6.74.86.86,0,0,0,.85.67ZM16.75,8h-6.3a.86.86,0,0,0-.75.44l-8,13.76a.94.94,0,0,0,0,.89l2.93,5a.92.92,0,0,0,1.17.38,11.55,11.55,0,0,1,5-1.16,8.83,8.83,0,0,1,1.26,0,1,1,0,0,0,.88-.44l2.49-4.26,3.75-6.48a.83.83,0,0,0,0-1A11.55,11.55,0,0,1,16.63,8Zm30.3.44A.86.86,0,0,0,46.3,8H40a11.5,11.5,0,0,1-2.46,7.15.88.88,0,0,0,0,1l3.78,6.51L43.81,27a.87.87,0,0,0,.88.44h1.2A12,12,0,0,1,51,28.59a.85.85,0,0,0,1-.25l2.92-5.07a.87.87,0,0,0,0-.88ZM33.92,42.33H22.61a.9.9,0,0,0-.85.57,11.41,11.41,0,0,1-4.38,5.63.92.92,0,0,0-.28,1.2L19.59,54a.89.89,0,0,0,.76.44h15.9A.91.91,0,0,0,37,54l2.45-4.25a.87.87,0,0,0-.28-1.19,11.64,11.64,0,0,1-4.41-5.68.87.87,0,0,0-.85-.56Z"/></g><g id="shape1863-7"><circle class="cls-3" cx="10.83" cy="38.99" r="5.83"/></g><g id="shape1864-11"><circle class="cls-4" cx="45.7" cy="38.99" r="5.83"/></g><g id="shape1865-14"><circle class="cls-5" cx="28.28" cy="8.03" r="5.83"/></g><g id="shape1866-17"><path class="cls-6" d="M45.7,20.22a19.1,19.1,0,0,0-5.51.82l.94,1.63L43.62,27a.88.88,0,0,0,.89.44H45.7a12,12,0,0,1,5.07,1.16.85.85,0,0,0,1.17-.25l2.48-4.28.66-1.17A18.57,18.57,0,0,0,45.7,20.22ZM34.33,36.59a11.68,11.68,0,0,1,4.22-6.77.84.84,0,0,0,.22-1.13l-3.15-5.54A18.93,18.93,0,0,0,27,37.29h6.49a.87.87,0,0,0,.82-.69Zm.44,6.3a.87.87,0,0,0-.85-.56H27.21a18.9,18.9,0,0,0,7.87,12.12h1.17A.91.91,0,0,0,37,54l2.45-4.25a.87.87,0,0,0-.28-1.19,11.66,11.66,0,0,1-4.54-5.68Z"/></g></g></g></svg>