<svg id="Layer_1" data-name="Layer 1" xmlns="http://www.w3.org/2000/svg" xmlns:xlink="http://www.w3.org/1999/xlink" width="45.37" height="56.74" viewBox="0 0 45.37 56.74"><defs><style>.cls-1,.cls-2,.cls-3{fill-rule:evenodd;}.cls-1{fill:url(#linear-gradient);}.cls-2{fill:#fff;fill-opacity:0.8;}.cls-3{fill:#767676;}</style><linearGradient id="linear-gradient" x1="-274.95" y1="429.33" x2="-273.95" y2="429.33" gradientTransform="matrix(4, 50.31, 45.2, -4.46, -18284.33, 15752.85)" gradientUnits="userSpaceOnUse"><stop offset="0.23" stop-color="#32d4f5"/><stop offset="0.39" stop-color="#30cff1"/><stop offset="0.58" stop-color="#2bc0e4"/><stop offset="0.8" stop-color="#23a9ce"/><stop offset="1" stop-color="#198ab3"/></linearGradient></defs><g id="group1854-1"><g id="group1855-2"><g id="shape1856-3"><path class="cls-1" d="M45.34,52.18C44,41.68,39,32.79,29.57,29.9A12.94,12.94,0,0,0,33.4,12.14,12.63,12.63,0,0,0,15.84,8.27,12.94,12.94,0,0,0,12,26a12.74,12.74,0,0,0,3.66,3.76C6.22,32.36,1.17,40.41,0,52.22a4.09,4.09,0,0,0,3.61,4.5h0a2.88,2.88,0,0,0,.41,0H41.32a4,4,0,0,0,4-4.06h0A4.32,4.32,0,0,0,45.34,52.18Z"/></g><g id="shape1857-7"><path class="cls-2" d="M22.72,32a12.63,12.63,0,0,1-6.89-2.05l6.82,18L29.42,30A12.53,12.53,0,0,1,22.72,32Z"/></g><g id="shape1858-9"><path class="cls-3" d="M41.8,22.8a20.57,20.57,0,0,0-.29-8A19.4,19.4,0,0,0,23.36.05,17.2,17.2,0,0,0,7.12,8.76a1.86,1.86,0,0,0,.58,2.55h0A1.69,1.69,0,0,0,10,10.8,14,14,0,0,1,23.16,3.6,15.86,15.86,0,0,1,38,15.2a17,17,0,0,1,.4,6.73,2.89,2.89,0,0,0-1.67,1.86l-.85,2.83a3,3,0,0,0,1.78,3.78,2.91,2.91,0,0,0,3.74-1.8c0-.08,0-.17.08-.25l.86-2.84A3,3,0,0,0,41.8,22.8Z"/></g></g></g></svg>