<svg id="Layer_1" data-name="Layer 1" xmlns="http://www.w3.org/2000/svg" xmlns:xlink="http://www.w3.org/1999/xlink" width="49.48" height="56.17" viewBox="0 0 49.48 56.17"><defs><style>.cls-1{fill:#198ab3;}.cls-1,.cls-2,.cls-5{fill-rule:evenodd;}.cls-2{fill:#32bedd;}.cls-3{fill:url(#radial-gradient);}.cls-4{fill:none;}.cls-5{fill:#37c2b1;}</style><radialGradient id="radial-gradient" cx="-273.93" cy="416.74" r="0.5" gradientTransform="matrix(41.72, 0, 0, -40.44, 11448.49, 16889.14)" gradientUnits="userSpaceOnUse"><stop offset="0" stop-color="#5ea0ef"/><stop offset="1" stop-color="#0078d4"/></radialGradient></defs><g id="group1846-1"><g id="group1847-2"><g id="group1848-3"><g id="shape1849-4"><path class="cls-1" d="M25.79,47c0-.52-2.11-.52-2.11,0a5.58,5.58,0,0,1-5.21,6l-.42,0H31.41a5.6,5.6,0,0,1-5.64-5.57C25.77,47.29,25.78,47.15,25.79,47Z"/></g><g id="shape1850-6"><path class="cls-2" d="M39.65,1.48a2,2,0,0,1,2.76,0l0,0,.09.09a27.15,27.15,0,0,1-3,39.13,29.3,29.3,0,0,1-37.41,0A1.84,1.84,0,0,1,2,38l0,0,.08-.08a2,2,0,0,1,2.69-.08,25.23,25.23,0,0,0,34.82-2.59,23.38,23.38,0,0,0,0-31.16A1.86,1.86,0,0,1,39.65,1.48ZM34.87,56.17H14.57a1.58,1.58,0,1,1,0-3.15h20.3a1.6,1.6,0,0,1,1.63,1.57h0a1.59,1.59,0,0,1-1.63,1.57Z"/></g><g id="shape1851-8"><ellipse class="cls-3" cx="20.86" cy="35.95" rx="20.86" ry="20.22"/></g><g id="shape1852-12"><ellipse class="cls-4" cx="20.86" cy="35.95" rx="20.86" ry="20.22"/></g><g id="shape1853-14"><path class="cls-5" d="M16.81,19.74a2.75,2.75,0,0,0,0-4,3,3,0,0,0-4.09,0,2.74,2.74,0,0,0,0,4h0A3,3,0,0,0,16.81,19.74Zm13.62-4.25a7.5,7.5,0,0,0,0,10.83L32,27.87A1.44,1.44,0,0,1,32,30a1.57,1.57,0,0,1-2.16,0h0l0,0a2.12,2.12,0,0,0-2.93.25,2,2,0,0,0,0,2.61l4.46,4.33a19.94,19.94,0,0,0,9.79-22A8.08,8.08,0,0,0,30.43,15.49ZM11.56,8.82a5,5,0,0,0,6.84-.19,4.59,4.59,0,0,0,0-6.44L16.14,0a21.05,21.05,0,0,0-9,4.52ZM2.56,10A19.67,19.67,0,0,0,.39,15.8l2.42,2.35a3,3,0,0,0,4.09,0,2.74,2.74,0,0,0,0-4ZM13.47,38.61a21.45,21.45,0,0,0,15-.1l-1.22-1.18a9.2,9.2,0,0,0-12.73,0h0A8.82,8.82,0,0,0,13.47,38.61Z"/></g></g></g></g></svg>