<svg id="Layer_1" data-name="Layer 1" xmlns="http://www.w3.org/2000/svg" xmlns:xlink="http://www.w3.org/1999/xlink" width="56.69" height="56.69" viewBox="0 0 56.69 56.69"><defs><style>.cls-1{fill:#32bedd;}.cls-2,.cls-3,.cls-6{fill-rule:evenodd;}.cls-2{fill:url(#linear-gradient);}.cls-3{fill:url(#linear-gradient-2);}.cls-4{fill:#7fba00;}.cls-5{fill:url(#linear-gradient-3);}.cls-6{fill:#b4ec36;}</style><linearGradient id="linear-gradient" x1="-298.1" y1="431.05" x2="-297.1" y2="431.05" gradientTransform="matrix(0, -16.33, -56.69, 0, 24464.74, -4851.67)" gradientUnits="userSpaceOnUse"><stop offset="0" stop-color="#198ab3"/><stop offset="1" stop-color="#32d4f5"/></linearGradient><linearGradient id="linear-gradient-2" x1="-298.14" y1="431.03" x2="-297.14" y2="431.03" gradientTransform="matrix(0, -16.3, -56.49, 0, 24377.53, -4803.09)" xlink:href="#linear-gradient"/><linearGradient id="linear-gradient-3" x1="-310.81" y1="413.59" x2="-309.81" y2="413.59" gradientTransform="matrix(0, -10.25, -12.19, 0, 5068.34, -3129.82)" xlink:href="#linear-gradient"/></defs><g id="group1819-1"><g id="group1820-2"><g id="shape1821-3"><rect class="cls-1" x="26.07" y="16.33" width="4.04" height="32.59"/></g><g id="shape1822-5"><path class="cls-2" d="M54.39,0H2.26A2.17,2.17,0,0,0,0,2V14.36a2.17,2.17,0,0,0,2.3,2H54.39a2.14,2.14,0,0,0,2.3-1.93V2a2.13,2.13,0,0,0-2.26-2Z"/></g><g id="shape1823-9"><path class="cls-3" d="M54.23,40.39H2.1A2.11,2.11,0,0,0,0,42.33V54.75a2.08,2.08,0,0,0,2.21,1.94h52a2.13,2.13,0,0,0,2.26-1.94V42.33A2.17,2.17,0,0,0,54.23,40.39Z"/></g><g id="shape1824-12"><ellipse class="cls-4" cx="6.09" cy="51.57" rx="6.09" ry="5.13"/></g><g id="shape1825-14"><ellipse class="cls-5" cx="28.33" cy="51.53" rx="6.09" ry="5.13"/></g><g id="group1826-17"><g id="shape1827-18"><path class="cls-6" d="M47.29,6.11a.57.57,0,0,0,.61.51h3a.57.57,0,0,0,.61-.51V3.56a.56.56,0,0,0-.6-.51h-3a.56.56,0,0,0-.6.51Z"/></g><g id="shape1828-20"><path class="cls-6" d="M47.29,12.26a.56.56,0,0,0,.61.5h3a.57.57,0,0,0,.61-.51V9.71a.56.56,0,0,0-.6-.51h-3a.56.56,0,0,0-.6.5Z"/></g></g><g id="group1829-22"><g id="shape1830-23"><path class="cls-6" d="M47.29,28.14a.57.57,0,0,0,.61.51h3a.56.56,0,0,0,.61-.51V25.59a.56.56,0,0,0-.6-.51h-3a.56.56,0,0,0-.6.51Z"/></g><g id="shape1831-25"><path class="cls-6" d="M47.29,34.29a.57.57,0,0,0,.61.51h3a.57.57,0,0,0,.61-.51V31.74a.56.56,0,0,0-.6-.51h-3a.56.56,0,0,0-.6.51Z"/></g></g></g></g></svg>