<svg id="Layer_1" data-name="Layer 1" xmlns="http://www.w3.org/2000/svg" xmlns:xlink="http://www.w3.org/1999/xlink" width="56.69" height="52.1" viewBox="0 0 56.69 52.1"><defs><style>.cls-1{fill:#198ab3;}.cls-1,.cls-3,.cls-4,.cls-6{fill-rule:evenodd;}.cls-2{fill:#32bedd;}.cls-3{fill:url(#linear-gradient);}.cls-4{fill:#b4ec36;}.cls-5{fill:none;}.cls-6{fill:url(#linear-gradient-2);}</style><linearGradient id="linear-gradient" x1="-302.25" y1="425.73" x2="-301.25" y2="425.73" gradientTransform="matrix(0, -13.68, -49.18, 0, 20969.37, -4121.18)" gradientUnits="userSpaceOnUse"><stop offset="0" stop-color="#198ab3"/><stop offset="0.1" stop-color="#1c93bb"/><stop offset="0.7" stop-color="#2cc2e5"/><stop offset="1" stop-color="#32d4f5"/></linearGradient><linearGradient id="linear-gradient-2" x1="-302.25" y1="425.73" x2="-301.25" y2="425.73" gradientTransform="matrix(0, -13.68, -49.18, 0, 20969.37, -4100.52)" xlink:href="#linear-gradient"/></defs><g id="group1832-1"><g id="group1833-2"><g id="shape1834-3"><path class="cls-1" d="M46.75,16.53H2.54A2.41,2.41,0,0,0,0,18.78V29.13a2.43,2.43,0,0,0,2.53,2.32H46.75a2.44,2.44,0,0,0,2.54-2.31h0V18.81A2.44,2.44,0,0,0,46.75,16.53Zm0,20.65H2.54A2.41,2.41,0,0,0,0,39.43V49.79A2.43,2.43,0,0,0,2.54,52.1H46.75a2.43,2.43,0,0,0,2.54-2.31V39.46a2.4,2.4,0,0,0-2.5-2.28Z"/></g><g id="shape1835-5"><rect class="cls-2" x="28.88" y="10.33" width="3.68" height="34.4"/></g><g id="shape1836-7"><path class="cls-3" d="M54.59,0h-45a2,2,0,0,0-2.1,1.91V12a2,2,0,0,0,2.1,1.71h45a2,2,0,0,0,2.1-1.91V1.71A2,2,0,0,0,54.59,0Z"/></g><g id="group1837-11"><g id="shape1838-12"><path class="cls-4" d="M48.63,4.93a.53.53,0,0,0,.55.51H52a.53.53,0,0,0,.55-.5V2.41a.53.53,0,0,0-.56-.5H49.18a.54.54,0,0,0-.56.51Z"/></g><g id="shape1839-14"><path class="cls-4" d="M48.63,11a.52.52,0,0,0,.55.5H52a.53.53,0,0,0,.55-.5V8.48a.53.53,0,0,0-.56-.5H49.18a.54.54,0,0,0-.56.5Z"/></g></g><g id="shape1840-16"><path class="cls-5" d="M54.59,20.65h-45a2,2,0,0,0-2.1,1.91V32.62a2,2,0,0,0,2.1,1.91h45a2,2,0,0,0,2.1-1.91V22.56A2,2,0,0,0,54.59,20.65Z"/></g><g id="shape1841-18"><ellipse class="cls-5" cx="30.76" cy="47.04" rx="5.56" ry="5.06"/></g><g id="shape1842-20"><path class="cls-6" d="M54.59,20.65h-45a2,2,0,0,0-2.1,1.91V32.62a2,2,0,0,0,2.1,1.71h45a2,2,0,0,0,2.1-1.91V22.36A2,2,0,0,0,54.59,20.65Z"/></g><g id="group1843-23"><g id="shape1844-24"><path class="cls-4" d="M48.63,25.58a.53.53,0,0,0,.55.51H52a.53.53,0,0,0,.55-.5V23.06a.54.54,0,0,0-.56-.5H49.18a.54.54,0,0,0-.56.51Z"/></g><g id="shape1845-26"><path class="cls-4" d="M48.63,31.65a.53.53,0,0,0,.55.51H52a.53.53,0,0,0,.55-.5V29.13a.54.54,0,0,0-.56-.5H49.18a.54.54,0,0,0-.56.51Z"/></g></g></g></g></svg>