<svg id="Layer_1" data-name="Layer 1" xmlns="http://www.w3.org/2000/svg" xmlns:xlink="http://www.w3.org/1999/xlink" width="56.69" height="51.03" viewBox="0 0 56.69 51.03"><defs><style>.cls-1,.cls-2,.cls-3,.cls-4,.cls-5{fill-rule:evenodd;}.cls-1{fill:url(#linear-gradient);}.cls-2{fill:#50e6ff;}.cls-3,.cls-4,.cls-5{fill:#fff;}.cls-4{fill-opacity:0.8;}.cls-5{fill-opacity:0.6;}</style><linearGradient id="linear-gradient" x1="-285.33" y1="418.22" x2="-284.33" y2="418.22" gradientTransform="matrix(0, -40.24, -56.69, 0, 23737.02, -11441.16)" gradientUnits="userSpaceOnUse"><stop offset="0" stop-color="#0078d4"/><stop offset="1" stop-color="#5ea0ef"/></linearGradient></defs><g id="group1811-1"><g id="group1812-2"><g id="shape1813-3"><path class="cls-1" d="M56.69,27.63a12.75,12.75,0,0,0-11-12.25A16.07,16.07,0,0,0,29.1,0,16.6,16.6,0,0,0,13.28,10.75,15.12,15.12,0,0,0,0,25.38,15.43,15.43,0,0,0,16,40.23q.72,0,1.41-.06H43.22a2.25,2.25,0,0,0,.68-.11A12.9,12.9,0,0,0,56.69,27.63Z"/></g><g id="shape1814-7"><path class="cls-2" d="M23.15,46.71A1.88,1.88,0,0,0,25,48.57H49.61a1.88,1.88,0,0,0,1.89-1.86h0V22.58a1.87,1.87,0,0,0-1.89-1.85H25a1.87,1.87,0,0,0-1.89,1.85Z"/></g><g id="shape1815-9"><path class="cls-2" d="M0,49.17A1.87,1.87,0,0,0,1.89,51H29.2a1.87,1.87,0,0,0,1.89-1.85h0V22.35a1.88,1.88,0,0,0-1.89-1.86H1.89A1.88,1.88,0,0,0,0,22.35H0Z"/></g><g id="shape1816-11"><path class="cls-3" d="M26.43,29a.94.94,0,0,0,.95.92h21a.94.94,0,0,0,1-.93V25.59a.93.93,0,0,0-.94-.93h-21a.93.93,0,0,0-.94.92Z"/></g><g id="shape1817-13"><path class="cls-4" d="M26.43,37.45a.94.94,0,0,0,.95.93h21a.93.93,0,0,0,1-.92v-3.4a.93.93,0,0,0-.94-.92h-21a.94.94,0,0,0-.94.93Z"/></g><g id="shape1818-15"><path class="cls-5" d="M26.43,45.93a.94.94,0,0,0,.95.93h21a.93.93,0,0,0,1-.93V42.54a.94.94,0,0,0-.94-.93h-21a.94.94,0,0,0-.94.93Z"/></g></g></g></svg>