<svg id="Layer_1" data-name="Layer 1" xmlns="http://www.w3.org/2000/svg" width="56.7" height="56.69" viewBox="0 0 56.7 56.69"><defs><style>.cls-1{fill:#0072c6;}.cls-1,.cls-2{fill-rule:evenodd;}.cls-2{fill:#ae0d1a;}</style></defs><g id="group1807-1"><g id="group1808-2"><g id="shape1809-3"><path class="cls-1" d="M28.35,7.94a20.41,20.41,0,0,0-.84,40.81h.84a20.41,20.41,0,0,0,0-40.81Zm0,33.85a13.55,13.55,0,0,1,0-27.09,13.55,13.55,0,0,1,0,27.09Z"/></g><g id="shape1810-5"><path class="cls-2" d="M55.79,27.43H29.27V.92a.92.92,0,0,0-1.83,0h0V27.43H.92a.9.9,0,0,0-.92.91.93.93,0,0,0,.91.92H27.44V55.78a.91.91,0,0,0,.91.91.92.92,0,0,0,.92-.91h0V29.26H55.79a.92.92,0,0,0,.91-.92.9.9,0,0,0-.91-.91Z"/></g></g></g></svg>