<svg id="Layer_1" data-name="Layer 1" xmlns="http://www.w3.org/2000/svg" width="52.61" height="56.62" viewBox="0 0 52.61 56.62"><defs><style>.cls-1{fill:#7ac3e2;}.cls-1,.cls-2,.cls-3,.cls-4,.cls-5{fill-rule:evenodd;}.cls-2{fill:#fbd118;}.cls-3{fill:#f78c1e;fill-opacity:0.4;}.cls-4{fill:#fff;fill-opacity:0.5;}.cls-5{fill:#5bb4da;}</style></defs><g id="group1800-1"><g id="group1801-2"><g id="shape1802-3"><path class="cls-1" d="M19,26.37A11.38,11.38,0,0,0,30.32,15v-.14A11.42,11.42,0,0,0,7.48,15h0A11.38,11.38,0,0,0,18.82,26.37H19ZM34.48,41a4.75,4.75,0,0,1,0-6.57h0l4-3.94V28.8H27.1L19.18,39.43,11.34,28.8H0V56.62H38.44V45Z"/></g><g id="shape1803-5"><path class="cls-2" d="M18.57,37.22a3.69,3.69,0,0,0,0-5.07h0L12.3,25.84a3.64,3.64,0,0,0-5,0h0L1,32.15a3.69,3.69,0,0,0,0,5.07H1l5.4,5.44V53.28l3.31,3.34,2.84-2.85L14.29,52l-1.8-1.73,1.73-1.72L12.62,47l1.77-1.79-1.72-1.72V43ZM9.85,27.33A2.1,2.1,0,1,1,7.77,29.5v0a2.14,2.14,0,0,1,2.08-2.15Z"/></g><g id="shape1804-7"><path class="cls-3" d="M45.13,52.8,46.48,54V43.89l-1.35-.62Z"/></g><g id="shape1805-9"><path class="cls-4" d="M40.83,33.5H52.61v1.73H40.83Zm0,2.72H52.61v1.72H40.83Z"/></g><g id="shape1806-11"><path class="cls-5" d="M29.77,14.52A11.62,11.62,0,0,0,22.42,0l-.08,0L18.26,22.5h.87a11.12,11.12,0,0,0,10.62-7.9l0-.08Zm4.72,22.63a4.75,4.75,0,0,1,0-6.57h0l3.79-3.74V24.93H26.93L19,35.56,16.6,32.18,13,52.51l25.23.24V40.92Z"/></g></g></g></svg>