<svg id="Layer_1" data-name="Layer 1" xmlns="http://www.w3.org/2000/svg" width="53.41" height="53.78" viewBox="0 0 53.41 53.78"><defs><style>.cls-1{fill:#e5e5e5;}.cls-1,.cls-2,.cls-3,.cls-4,.cls-5{fill-rule:evenodd;}.cls-2,.cls-4{fill:#fff;}.cls-2{fill-opacity:0.5;}.cls-3{fill:#2999c6;}.cls-5,.cls-6{fill:#804998;}</style></defs><g id="group1785-1"><g id="group1786-2"><g id="shape1787-3"><path class="cls-1" d="M44.43,44.73A24.82,24.82,0,0,1,26.7,52.12h0A24.79,24.79,0,0,1,9,44.73,25.35,25.35,0,0,1,9,9.05a25,25,0,0,1,35.45,0,25.35,25.35,0,0,1,0,35.68Z"/></g><g id="shape1788-5"><path class="cls-2" d="M9,44.73A25.35,25.35,0,0,1,9,9.05a25,25,0,0,1,35.45,0Z"/></g><g id="shape1789-7"><path class="cls-3" d="M5,35.63A23.52,23.52,0,0,1,8.06,12.71,6.25,6.25,0,0,1,6.7,11.45a6.1,6.1,0,0,1-.85-1.38A27,27,0,0,0,2.16,37.46,9.92,9.92,0,0,1,5,35.63ZM17,1.83A10.19,10.19,0,0,1,19,4.7,23.37,23.37,0,0,1,26.7,3.35,23.1,23.1,0,0,1,40.41,7.84a6.54,6.54,0,0,1,1.74-2.21h0c.16-.13.32-.24.49-.36A26.61,26.61,0,0,0,17,1.83ZM48.4,18.15a23.56,23.56,0,0,1-3,22.92,6.22,6.22,0,0,1,1.36,1.26,6.42,6.42,0,0,1,.85,1.38,27,27,0,0,0,3.7-27.39A10,10,0,0,1,48.4,18.15Zm-14,30.93a23,23,0,0,1-7.73,1.35h0A23,23,0,0,1,13,45.94a6.6,6.6,0,0,1-1.74,2.21h0c-.16.12-.31.24-.47.34A26.62,26.62,0,0,0,36.4,52,9.75,9.75,0,0,1,34.44,49.08Z"/></g><g id="shape1790-9"><path class="cls-3" d="M14.59,4.18a6.68,6.68,0,0,1,0,9.4,6.58,6.58,0,0,1-9.34,0,6.7,6.7,0,0,1,0-9.41,6.58,6.58,0,0,1,9.34,0Z"/></g><g id="shape1791-11"><path class="cls-4" d="M12.21,11.18a3.27,3.27,0,0,0,0-4.61,3.23,3.23,0,0,0-4.58,0,3.28,3.28,0,0,0,0,4.61h0a3.23,3.23,0,0,0,4.58,0Z"/></g><g id="shape1792-13"><path class="cls-3" d="M39.93,4.17a6.58,6.58,0,0,1,9.34,0,6.69,6.69,0,0,1,0,9.4,6.58,6.58,0,0,1-9.34,0,6.69,6.69,0,0,1,0-9.4Z"/></g><g id="shape1793-15"><path class="cls-4" d="M46.9,6.58a3.22,3.22,0,0,0-4.58,0,3.27,3.27,0,0,0,0,4.61,3.23,3.23,0,0,0,4.58,0h0A3.28,3.28,0,0,0,46.9,6.58Z"/></g><g id="shape1794-17"><path class="cls-3" d="M38.81,49.62a6.69,6.69,0,0,1,0-9.41,6.58,6.58,0,0,1,9.34,0,6.68,6.68,0,0,1,0,9.4,6.58,6.58,0,0,1-9.34,0Z"/></g><g id="shape1795-19"><path class="cls-4" d="M41.2,42.61a3.27,3.27,0,0,0,0,4.61,3.23,3.23,0,0,0,4.58,0,3.28,3.28,0,0,0,0-4.61h0A3.22,3.22,0,0,0,41.2,42.61Z"/></g><g id="shape1796-21"><path class="cls-3" d="M13.47,49.62a6.58,6.58,0,0,1-9.34,0,6.69,6.69,0,0,1,0-9.41,6.58,6.58,0,0,1,9.34,0,6.68,6.68,0,0,1,0,9.4Z"/></g><g id="shape1797-23"><path class="cls-4" d="M6.52,47.21a3.21,3.21,0,0,0,4.57,0,3.27,3.27,0,0,0,0-4.61,3.23,3.23,0,0,0-4.58,0h0A3.27,3.27,0,0,0,6.52,47.21Zm16.83-23.7L26.7,33.65l3.36-10.14Z"/></g><g id="shape1798-25"><path class="cls-5" d="M37.92,35.65c-.64-5.72-3.28-10.52-7.86-12.14L26.7,33.65,23.34,23.51C18.87,25,16,29.35,15.47,35.67a2.21,2.21,0,0,0,1.8,2.48H35.93a2.13,2.13,0,0,0,2-2.24A2.44,2.44,0,0,0,37.92,35.65Z"/></g><g id="shape1799-27"><ellipse class="cls-6" cx="26.7" cy="17.88" rx="6.6" ry="6.65"/></g></g></g></svg>