<svg id="Layer_1" data-name="Layer 1" xmlns="http://www.w3.org/2000/svg" xmlns:xlink="http://www.w3.org/1999/xlink" width="53.86" height="56.7" viewBox="0 0 53.86 56.7"><defs><style>.cls-1,.cls-2{fill-rule:evenodd;}.cls-1{fill:url(#linear-gradient);}.cls-2{fill:#fff;}</style><linearGradient id="linear-gradient" x1="-284.03" y1="420.79" x2="-283.03" y2="420.79" gradientTransform="matrix(0, -56.7, -53.86, 0, 22690.8, -16048.36)" gradientUnits="userSpaceOnUse"><stop offset="0" stop-color="#0078d4"/><stop offset="0.82" stop-color="#5ea0ef"/></linearGradient></defs><g id="group1781-1"><g id="group1782-2"><g id="shape1783-3"><path class="cls-1" d="M43.49,14.66A15.3,15.3,0,0,0,27.66,0a15.67,15.67,0,0,0-15,10.26A14.5,14.5,0,0,0,0,24.22,14.71,14.71,0,0,0,15.17,38.38h9.71v8.76a.43.43,0,0,1-.43.43H19.58a.44.44,0,0,0-.42.45.47.47,0,0,0,.12.28l8.18,8.23a.62.62,0,0,0,.86,0L36.5,48.3a.44.44,0,0,0,0-.61.4.4,0,0,0-.29-.12H31.3a.4.4,0,0,1-.4-.4V38.31H41a1.83,1.83,0,0,0,.66,0A12.25,12.25,0,0,0,53.86,26.45,12.14,12.14,0,0,0,43.49,14.66Z"/></g><g id="shape1784-7"><path class="cls-2" d="M13.25,25.92l8.18-8.19a.57.57,0,0,1,.8-.07l.06.07,8.18,8.19a.43.43,0,0,1,0,.61.35.35,0,0,1-.23.12H25.3a.43.43,0,0,0-.43.43h0V38.31h-6V27.09a.43.43,0,0,0-.43-.43H13.68a.43.43,0,0,1-.55-.26.44.44,0,0,1,.12-.47Z"/></g></g></g></svg>