<svg id="Layer_1" data-name="Layer 1" xmlns="http://www.w3.org/2000/svg" width="56.69" height="48.19" viewBox="0 0 56.69 48.19"><defs><style>.cls-1,.cls-5{fill:#fff;}.cls-1{fill-opacity:0.75;}.cls-1,.cls-2,.cls-3,.cls-4,.cls-5{fill-rule:evenodd;}.cls-2{fill:#0072c6;}.cls-3{fill:#bcbcbc;fill-opacity:0.61;}.cls-4{fill:#1185db;}</style></defs><g id="group1772-1"><g id="group1773-2"><g id="shape1774-3"><path class="cls-1" d="M32.76,20.16H23.54A1.57,1.57,0,0,0,22,21.77v5a1.58,1.58,0,0,0,1.57,1.62h9.22a1.58,1.58,0,0,0,1.57-1.62v-5A1.72,1.72,0,0,0,32.76,20.16Z"/></g><g id="shape1775-5"><path class="cls-2" d="M43.16,13.31H38.84V6.05a1.88,1.88,0,0,0-2-2H19.62a1.88,1.88,0,0,0-2,2v7.26H13.34V7.06A7,7,0,0,1,19.62,0H36.88a7.12,7.12,0,0,1,6.28,7.06Z"/></g><g id="shape1776-7"><path class="cls-3" d="M56.1,21.38H0V24H56.1Z"/></g><g id="shape1777-9"><path class="cls-2" d="M0,48.19V11.9A3.92,3.92,0,0,1,3.73,8.06H53.16a3.57,3.57,0,0,1,3.53,3.6V48.19Z"/></g><g id="shape1778-11"><path class="cls-4" d="M16.87,48.19H0V11.9A3.92,3.92,0,0,1,3.73,8.06h30.8Z"/></g><g id="shape1779-13"><path class="cls-5" d="M0,19.56H56.69v2.62H0Z"/></g><g id="shape1780-15"><path class="cls-5" d="M33.54,20.16H23a1.57,1.57,0,0,0-1.57,1.61v5A1.58,1.58,0,0,0,23,28.43H33.54a1.58,1.58,0,0,0,1.57-1.62v-5A1.71,1.71,0,0,0,33.54,20.16Z"/></g></g></g></svg>