<svg id="Layer_1" data-name="Layer 1" xmlns="http://www.w3.org/2000/svg" xmlns:xlink="http://www.w3.org/1999/xlink" width="56.69" height="56.69" viewBox="0 0 56.69 56.69"><defs><style>.cls-1{fill:none;}.cls-2,.cls-4,.cls-5,.cls-6{fill-rule:evenodd;}.cls-2{fill:url(#linear-gradient);}.cls-3,.cls-5{fill:#fff;}.cls-4{fill:#50e6ff;}.cls-6{fill:#86d633;}</style><linearGradient id="linear-gradient" x1="-285.79" y1="419.95" x2="-284.79" y2="419.95" gradientTransform="matrix(0, -37.88, -53.42, 0, 22461.16, -10784.82)" gradientUnits="userSpaceOnUse"><stop offset="0" stop-color="#0078d4"/><stop offset="0.1" stop-color="#1480da"/><stop offset="0.3" stop-color="#348ee3"/><stop offset="0.5" stop-color="#4b98ea"/><stop offset="0.68" stop-color="#599eee"/><stop offset="0.84" stop-color="#5ea0ef"/></linearGradient></defs><g id="group1742-1"><g id="group1743-2"><g id="shape1744-3"><rect class="cls-1" width="56.69" height="56.69"/></g><g id="shape1745-5"><rect class="cls-1" width="56.69" height="56.69"/></g><g id="shape1746-7"><path class="cls-2" d="M54.08,28.22A12,12,0,0,0,43.67,16.69,15.11,15.11,0,0,0,28.09,2.22,15.53,15.53,0,0,0,13.26,12.33,14.33,14.33,0,0,0,.66,26.11a14.55,14.55,0,0,0,15,14c.45,0,.89,0,1.33,0H41.38a2.59,2.59,0,0,0,.63-.1A12.14,12.14,0,0,0,54.08,28.22Z"/></g><g id="shape1747-11"><circle class="cls-3" cx="28.66" cy="20.09" r="4.15"/></g><g id="shape1748-13"><ellipse class="cls-3" cx="39.98" cy="24.25" rx="3.33" ry="3.34"/></g><g id="shape1749-15"><circle class="cls-3" cx="32.82" cy="11.39" r="2.32"/></g><g id="shape1750-17"><path class="cls-4" d="M54.94,54.49H27.54c-.88,0-1.39-1.39-.9-2.11l9.45-13.76a1.12,1.12,0,0,0,.2-.63v-9.1a.55.55,0,0,0-.55-.55h-.51a1.09,1.09,0,0,1-1.08-1.08v-.49a1.08,1.08,0,0,1,1.07-1.09h12a1.08,1.08,0,0,1,1.08,1.08h0v.48a1.1,1.1,0,0,1-1.08,1.09h-.51a.54.54,0,0,0-.54.54h0V38a1,1,0,0,0,.19.63l9.45,13.74C56.33,53.08,55.81,54.49,54.94,54.49Z"/></g><g id="shape1751-19"><path class="cls-5" d="M30.69,50.79l7.18-10.45a2.6,2.6,0,0,0,.46-1.49V34.64a.84.84,0,0,1,.84-.83h4.06a.85.85,0,0,1,.84.84h0v4.49a1.77,1.77,0,0,0,.32,1L51.7,50.79a.63.63,0,0,1-.17.88.67.67,0,0,1-.34.1h-20a.63.63,0,0,1-.62-.64.6.6,0,0,1,.11-.34Z"/></g><g id="shape1752-21"><path class="cls-6" d="M37.64,47.35l1.45,3.37a.21.21,0,0,0,.27.12.22.22,0,0,0,.12-.13L41,46.19a.2.2,0,0,1,.26-.13.17.17,0,0,1,.12.1l1.24,2.36a.21.21,0,0,0,.29.08.14.14,0,0,0,.07-.08l1.67-2.8a.22.22,0,0,1,.18-.1h3.33l-.68-1a.22.22,0,0,0-.17-.09H44.23a.21.21,0,0,0-.18.1l-1,1.67a.21.21,0,0,1-.28.09.2.2,0,0,1-.09-.09l-1.51-2.88a.21.21,0,0,0-.28-.09.24.24,0,0,0-.11.13l-1.42,4.24a.22.22,0,0,1-.26.14.2.2,0,0,1-.13-.12L37.76,44.9a.21.21,0,0,0-.28-.09.22.22,0,0,0-.1.09l-1.72,3.15a.21.21,0,0,1-.19.11H32.64a.21.21,0,0,0-.17.1l-.68,1H36.1a.2.2,0,0,0,.18-.1l1-1.79a.21.21,0,0,1,.28-.09.22.22,0,0,1,.09.1Z"/></g></g></g></svg>