<svg id="Layer_1" data-name="Layer 1" xmlns="http://www.w3.org/2000/svg" width="56.69" height="56.69" viewBox="0 0 56.69 56.69"><defs><style>.cls-1{fill:#0072c6;}.cls-2,.cls-6{fill:#fff;}.cls-2{fill-opacity:0.8;}.cls-3{fill:#3999c6;}.cls-3,.cls-4,.cls-5{fill-rule:evenodd;}.cls-4{fill:#57a300;}.cls-5{fill:#804998;}</style></defs><g id="group1753-1"><g id="group1754-2"><g id="shape1755-3"><circle class="cls-1" cx="28.35" cy="28.35" r="28.35"/></g><g id="shape1756-5"><circle class="cls-2" cx="28.35" cy="28.35" r="24.91"/></g><g id="shape1757-7"><path class="cls-3" d="M29.41,22.89V17h-3v5.93c0,1.07-.95,2-2.49,2.49l-4,.83c-2.73.83-4.63,3-4.63,5.34v6.76h3V31.55c0-1.07.94-2,2.49-2.49l4-.95C27.52,27.4,29.41,25.26,29.41,22.89Z"/></g><g id="shape1758-9"><path class="cls-3" d="M27.28,22.89V17h3v5.93c0,1.07.94,2,2.49,2.49l4,.83c2.73.83,4.62,3,4.62,5.34v6.76h-3V31.55c0-1.07-1-2-2.49-2.49l-4-.95C29.18,27.4,27.28,25.26,27.28,22.89Z"/></g><g id="shape1759-11"><path class="cls-4" d="M21.94,41.39V35.93a2.38,2.38,0,0,0-2.37-2.37H14.11a2.38,2.38,0,0,0-2.37,2.37v5.46a2.38,2.38,0,0,0,2.37,2.37h5.46A2.38,2.38,0,0,0,21.94,41.39Zm12.81.24V36.17a2.38,2.38,0,0,1,2.37-2.37h5.46A2.38,2.38,0,0,1,45,36.17v5.46A2.38,2.38,0,0,1,42.58,44H37.12A2.38,2.38,0,0,1,34.75,41.63Z"/></g><g id="shape1760-13"><path class="cls-5" d="M30.71,11.75v4.72H26V11.75Zm1-3.57H25a2.56,2.56,0,0,0-2.55,2.55v6.76A2.56,2.56,0,0,0,25,20h6.76a2.56,2.56,0,0,0,2.55-2.55V10.73A2.56,2.56,0,0,0,31.73,8.18Z"/></g><g id="shape1761-15"><rect class="cls-6" x="25.97" y="11.74" width="4.74" height="4.74"/></g></g></g></svg>