<svg id="Layer_1" data-name="Layer 1" xmlns="http://www.w3.org/2000/svg" xmlns:xlink="http://www.w3.org/1999/xlink" width="54.44" height="51.03" viewBox="0 0 54.44 51.03"><defs><style>.cls-1{fill:#0078d4;}.cls-1,.cls-2,.cls-3,.cls-4,.cls-6{fill-rule:evenodd;}.cls-2{fill:url(#linear-gradient);}.cls-3{fill:url(#linear-gradient-2);}.cls-4{fill:#f2f2f2;}.cls-5{fill:none;}.cls-6{fill:url(#linear-gradient-3);}</style><linearGradient id="linear-gradient" x1="-287.47" y1="416.22" x2="-286.47" y2="416.22" gradientTransform="matrix(0, -32.33, -46.43, 0, 19353.32, -9259.04)" gradientUnits="userSpaceOnUse"><stop offset="0" stop-color="#d2ebff"/><stop offset="1" stop-color="#f0fffd"/></linearGradient><linearGradient id="linear-gradient-2" x1="-285.23" y1="411.38" x2="-284.23" y2="411.38" gradientTransform="matrix(0, -41.13, -24.26, 0, 9992.01, -11680.46)" gradientUnits="userSpaceOnUse"><stop offset="0" stop-color="#0078d4"/><stop offset="0.17" stop-color="#1c84dc"/><stop offset="0.38" stop-color="#3990e4"/><stop offset="0.59" stop-color="#4d99ea"/><stop offset="0.8" stop-color="#5a9eee"/><stop offset="1" stop-color="#5ea0ef"/></linearGradient><linearGradient id="linear-gradient-3" x1="-287.23" y1="409.03" x2="-286.23" y2="409.03" gradientTransform="matrix(0, -33.07, -19.7, 0, 8100.66, -9452.56)" xlink:href="#linear-gradient"/></defs><g id="group1695-1"><g id="group1696-2"><g id="shape1697-3"><path class="cls-1" d="M0,36.08A1.91,1.91,0,0,0,1.89,38H50.65a1.9,1.9,0,0,0,1.89-1.92V1.92A1.9,1.9,0,0,0,50.65,0H1.89A1.91,1.91,0,0,0,0,1.92Z"/></g><g id="shape1698-5"><path class="cls-2" d="M3.06,34A1,1,0,0,0,4,35H48.54a1,1,0,0,0,.94-1V3.62a1,1,0,0,0-.94-1H4a1,1,0,0,0-.94,1Z"/></g><g id="shape1699-9"><path class="cls-3" d="M0,50.07a1,1,0,0,0,1,1H23.31a1,1,0,0,0,1-1V10.86a1,1,0,0,0-.94-1H.94a1,1,0,0,0-.94,1Z"/></g><g id="shape1700-13"><path class="cls-4" d="M41.8,11.69a.35.35,0,0,0,.35.35H47a.35.35,0,0,0,.35-.35v-.07a.35.35,0,0,0-.35-.35H42.15a.35.35,0,0,0-.35.35Z"/></g><g id="shape1701-15"><path class="cls-5" d="M34.75,46a.44.44,0,0,0,.44.45H54a.45.45,0,0,0,.44-.45V13.8a.45.45,0,0,0-.45-.45H35.19a.45.45,0,0,0-.45.45Z"/></g><g id="shape1702-17"><path class="cls-4" d="M23.56,1.61a.35.35,0,0,0,.35.35h4.88a.35.35,0,0,0,.35-.36V1.54a.35.35,0,0,0-.34-.36H23.91a.34.34,0,0,0-.34.35Z"/></g><g id="shape1703-19"><path class="cls-4" d="M43.22,49.49a.63.63,0,0,0,.63.64H45.3a.63.63,0,0,0,.63-.64V48.43a.64.64,0,0,0-.63-.64H43.85a.64.64,0,0,0-.63.64Z"/></g><g id="shape1704-21"><path class="cls-6" d="M34.75,46a.46.46,0,0,0,.45.46H54a.46.46,0,0,0,.45-.46V13.81a.46.46,0,0,0-.46-.46H35.2a.46.46,0,0,0-.46.46Z"/></g></g></g></svg>