<svg id="Layer_1" data-name="Layer 1" xmlns="http://www.w3.org/2000/svg" xmlns:xlink="http://www.w3.org/1999/xlink" width="56.69" height="56.69" viewBox="0 0 56.69 56.69"><defs><style>.cls-1,.cls-2,.cls-3,.cls-4{fill-rule:evenodd;}.cls-1{fill:url(#linear-gradient);}.cls-2{fill:#f2f2f2;}.cls-3{fill:url(#linear-gradient-2);}.cls-4{fill:#949494;}.cls-5{fill:#fff;}</style><linearGradient id="linear-gradient" x1="-282.84" y1="428.55" x2="-281.84" y2="428.55" gradientTransform="matrix(0, -56.69, -37.22, 0, 15969.07, -15977.7)" gradientUnits="userSpaceOnUse"><stop offset="0" stop-color="#0078d4"/><stop offset="0.17" stop-color="#1c84dc"/><stop offset="0.38" stop-color="#3990e4"/><stop offset="0.59" stop-color="#4d99ea"/><stop offset="0.8" stop-color="#5a9eee"/><stop offset="1" stop-color="#5ea0ef"/></linearGradient><linearGradient id="linear-gradient-2" x1="-284.35" y1="426.86" x2="-283.35" y2="426.86" gradientTransform="matrix(0, -45.55, -30.24, 0, 12924.98, -12903.05)" gradientUnits="userSpaceOnUse"><stop offset="0" stop-color="#d2ebff"/><stop offset="1" stop-color="#f0fffd"/></linearGradient></defs><g id="group1717-1"><g id="shape1718-2"><path class="cls-1" d="M0,55a1.79,1.79,0,0,0,1.87,1.7H35.36A1.78,1.78,0,0,0,37.22,55V1.7A1.78,1.78,0,0,0,35.36,0H1.87A1.79,1.79,0,0,0,0,1.7H0Z"/></g><g id="shape1719-6"><path class="cls-2" d="M16.51,54.59a.94.94,0,0,0,1,.9h2.2a.94.94,0,0,0,1-.9V53.15a1,1,0,0,0-1-.9H17.5a.94.94,0,0,0-1,.9Z"/></g><g id="shape1720-8"><path class="cls-2" d="M14.31,2.46a.49.49,0,0,0,.51.47h7.54a.49.49,0,0,0,.51-.46V2.36a.49.49,0,0,0-.51-.46H14.82a.49.49,0,0,0-.51.47Z"/></g><g id="shape1721-10"><path class="cls-3" d="M3.48,49.71a.66.66,0,0,0,.69.63H33a.66.66,0,0,0,.69-.63V5.43A.66.66,0,0,0,33,4.8H4.18a.66.66,0,0,0-.7.63Z"/></g><g id="shape1722-14"><path class="cls-4" d="M53.55,50.75l-1.8-3.34a.38.38,0,0,1,0-.36l.63-2a.52.52,0,0,1,.33-.33l3.65-1.2a.56.56,0,0,0,.33-.46V40l-.22-.17-3.66-1.13a.44.44,0,0,1-.33-.3l-.8-1.94a.55.55,0,0,1,0-.4l1.54-2.87a.43.43,0,0,0,0-.56L50.8,30.36a.62.62,0,0,0-.62,0l-3.08,1.4a.57.57,0,0,1-.55-.06l-2.08-.57a.43.43,0,0,1-.37-.3l-1.39-3.34a.54.54,0,0,0-.51-.33H38.69l-1.25,3.34a.55.55,0,0,1-.33.3L35,31.53a.66.66,0,0,1-.44,0l-3.66-1.67a.62.62,0,0,0-.62,0l-2.12,1.9a.53.53,0,0,0,0,.57l1.79,3.33a.55.55,0,0,1,0,.4l-1,2.31a.55.55,0,0,1-.33.3l-3.95,1.1a.52.52,0,0,0-.37.47v2.7a.43.43,0,0,0,.36.47l3.67,1.13a.61.61,0,0,1,.33.3l.87,1.94a.41.41,0,0,1,0,.4l-1.83,3.33a.48.48,0,0,0,0,.54l2.09,2a.57.57,0,0,0,.66,0L34,51.38a.56.56,0,0,1,.44,0l2.12.8a.74.74,0,0,1,.33.3l1.39,3.6a.56.56,0,0,0,.51.34h3a.52.52,0,0,0,.51-.36l1.24-3.35a.74.74,0,0,1,.33-.3l2.68-.7a.66.66,0,0,1,.44,0l3.84,1.64a.54.54,0,0,0,.62,0l2.09-1.9a.44.44,0,0,0,0-.66l0,0ZM38.61,46.17A4.56,4.56,0,0,1,35.84,40a5.35,5.35,0,0,1,6.75-2.53,4.57,4.57,0,0,1,2.77,6.16v0A5.35,5.35,0,0,1,38.61,46.17Z"/></g><g id="shape1723-16"><ellipse class="cls-5" cx="40.6" cy="41.84" rx="5.12" ry="4.67" transform="translate(-13.72 63.02) rotate(-67.17)"/></g></g></svg>