<svg id="Layer_1" data-name="Layer 1" xmlns="http://www.w3.org/2000/svg" xmlns:xlink="http://www.w3.org/1999/xlink" width="48.67" height="45.71" viewBox="0 0 48.67 45.71"><defs><style>.cls-1,.cls-2,.cls-3,.cls-4,.cls-5{fill-rule:evenodd;}.cls-1{fill:url(#linear-gradient);}.cls-2{fill:#fff;}.cls-3{fill:url(#linear-gradient-2);}.cls-4{fill:#86d633;}.cls-5{fill:#5e9624;}</style><linearGradient id="linear-gradient" x1="-287.4" y1="427.11" x2="-286.4" y2="427.11" gradientTransform="matrix(0, -32.98, -48.67, 0, 20811.78, -9445.57)" gradientUnits="userSpaceOnUse"><stop offset="0" stop-color="#0078d4"/><stop offset="0.82" stop-color="#5ea0ef"/></linearGradient><linearGradient id="linear-gradient-2" x1="-304.5" y1="421.54" x2="-303.5" y2="421.54" gradientTransform="matrix(0, -12.72, -24.34, 0, 10284.73, -3827.53)" gradientUnits="userSpaceOnUse"><stop offset="0" stop-color="#1490df"/><stop offset="0.98" stop-color="#1f56a3"/></linearGradient></defs><g id="group1679-1"><g id="shape1680-2"><path class="cls-1" d="M0,31.33A1.63,1.63,0,0,0,1.62,33H47.05a1.63,1.63,0,0,0,1.62-1.65V1.65A1.63,1.63,0,0,0,47.05,0H1.62A1.63,1.63,0,0,0,0,1.65Z"/></g><g id="shape1681-6"><path class="cls-2" d="M2.7,29.33a.9.9,0,0,0,.9.91H45.07a.9.9,0,0,0,.9-.91V3.65a.9.9,0,0,0-.89-.91H3.59a.9.9,0,0,0-.89.91Z"/></g><g id="shape1682-8"><path class="cls-3" d="M34.1,43c-4.81-.77-5-4.29-5-10H19.55c0,5.69-.16,9.21-5,10a2.87,2.87,0,0,0-2.41,2.74H36.51A2.88,2.88,0,0,0,34.1,43Z"/></g><g id="shape1683-12"><path class="cls-4" d="M23.19,23,21.37,24.8a.79.79,0,0,1-1.11,0h0l-7.32-7.31a.79.79,0,0,1,0-1.12h0L14.2,15.1a.79.79,0,0,1,1.11,0h0l7.78,7.77Z"/></g><g id="shape1684-14"><path class="cls-5" d="M20.19,25l-1.82-1.82L35.15,6.43a.79.79,0,0,1,1.12,0h0l1.25,1.25a.8.8,0,0,1,0,1.12h0L21.29,25a.79.79,0,0,1-1.11,0h0Z"/></g></g></svg>