<svg id="Layer_1" data-name="Layer 1" xmlns="http://www.w3.org/2000/svg" xmlns:xlink="http://www.w3.org/1999/xlink" width="56.69" height="56.7" viewBox="0 0 56.69 56.7"><defs><style>.cls-1{fill:#86d633;}.cls-1,.cls-2,.cls-3,.cls-4{fill-rule:evenodd;}.cls-2{fill:url(#linear-gradient);}.cls-3{fill:#9cebff;}.cls-4,.cls-5{fill:#0078d4;}</style><linearGradient id="linear-gradient" x1="-287.54" y1="434.24" x2="-286.54" y2="434.24" gradientTransform="matrix(-20.76, -35.63, -29.91, 24.73, 7051.15, -20943.31)" gradientUnits="userSpaceOnUse"><stop offset="0" stop-color="#5e9624"/><stop offset="0.26" stop-color="#70a828"/><stop offset="0.79" stop-color="#9fd732"/><stop offset="1" stop-color="#b4ec36"/></linearGradient></defs><g id="group1668-1"><g id="shape1669-2"><path class="cls-1" d="M39.7,22.08c0,12.71-15.79,22.94-19.21,25a1.2,1.2,0,0,1-1.31,0C15.75,45,0,34.79,0,22.08V6.77a1.24,1.24,0,0,1,1.21-1.2C13.47,5.24,10.65,0,19.85,0S26.2,5.24,38.42,5.57a1.27,1.27,0,0,1,1.24,1.2Z"/></g><g id="shape1670-4"><path class="cls-2" d="M38.06,22.22c0,11.67-14.48,21-17.6,22.94a1.15,1.15,0,0,1-1.21,0c-3.16-1.9-17.6-11.27-17.6-22.94V8.34a1.1,1.1,0,0,1,1.1-1.1h0C14,6.78,11.56,2,19.85,2S25.7,6.78,36.92,7.08a1.14,1.14,0,0,1,1.14,1.1Z"/></g><g id="shape1671-8"><path class="cls-3" d="M19.24,27.18H55.45a1.16,1.16,0,0,1,1.24,1.1h0V55.6a1.17,1.17,0,0,1-1.24,1.1H19.24A1.21,1.21,0,0,1,18,55.6V28.35a1.2,1.2,0,0,1,1.24-1.17Z"/></g><g id="shape1672-10"><path class="cls-4" d="M19.18,27.18H55.52a1.11,1.11,0,0,1,1.17,1v4.14H18v-4a1.11,1.11,0,0,1,1.17-1h0Z"/></g><g id="shape1673-12"><path class="cls-4" d="M51.42,43.06H27.54c-.54,0-.94.26-.94.53V45c0,.3.4.53.94.53H51.42c.54,0,1-.23,1-.53V43.69C52.39,43.32,51.86,43.06,51.42,43.06Z"/></g><g id="shape1674-14"><path class="cls-4" d="M51.42,37.05H27.54c-.54,0-.94.23-.94.53v1.31c0,.3.4.53.94.53H51.42c.54,0,1-.23,1-.53V37.58C52.39,37.28,51.86,37.05,51.42,37.05Z"/></g><g id="shape1675-16"><path class="cls-4" d="M51.42,49.83H27.54c-.54,0-.94.23-.94.53V51.7c0,.3.4.53.94.53H51.42c.54,0,1-.23,1-.53V50.36C52.39,50.06,51.86,49.83,51.42,49.83Z"/></g><g id="shape1676-18"><ellipse class="cls-5" cx="22.64" cy="38.22" rx="1.58" ry="1.57"/></g><g id="shape1677-20"><ellipse class="cls-5" cx="22.64" cy="44.26" rx="1.58" ry="1.57"/></g><g id="shape1678-22"><ellipse class="cls-5" cx="22.64" cy="51.03" rx="1.58" ry="1.57"/></g></g></svg>