<svg id="Layer_1" data-name="Layer 1" xmlns="http://www.w3.org/2000/svg" xmlns:xlink="http://www.w3.org/1999/xlink" width="42.52" height="56.69" viewBox="0 0 42.52 56.69"><defs><style>.cls-1,.cls-2{fill-rule:evenodd;}.cls-1{fill:url(#linear-gradient);}.cls-2{fill:#f2f2f2;}</style><linearGradient id="linear-gradient" x1="-277.08" y1="442.39" x2="-276.08" y2="442.39" gradientTransform="matrix(0, 56.69, 42.52, 0, -18789.42, 15707.68)" gradientUnits="userSpaceOnUse"><stop offset="0" stop-color="#5ea0ef"/><stop offset="0.18" stop-color="#559cec"/><stop offset="0.47" stop-color="#3c91e5"/><stop offset="0.84" stop-color="#1380da"/><stop offset="1" stop-color="#0078d4"/></linearGradient></defs><g id="group1685-1"><g id="shape1686-2"><path class="cls-1" d="M42.52,1.9V54.79a2.15,2.15,0,0,1-2.34,1.9H2.42A2.19,2.19,0,0,1,0,54.85V1.9A2.15,2.15,0,0,1,2.34,0H40.1a2.19,2.19,0,0,1,2.42,1.84Z"/></g><g id="shape1687-6"><path class="cls-2" d="M5.66,5.9h7.1a.54.54,0,0,1,.59.47h0v7a.55.55,0,0,1-.6.47H5.66A.59.59,0,0,1,5,13.37v-7a.6.6,0,0,1,.64-.47Zm12.16,0h6.89a.54.54,0,0,1,.59.47h0v7a.55.55,0,0,1-.6.47H17.82a.55.55,0,0,1-.6-.47h0v-7a.54.54,0,0,1,.59-.47h0ZM30,5.9h6.89a.6.6,0,0,1,.64.47v7a.6.6,0,0,1-.64.47H30a.55.55,0,0,1-.6-.47h0v-7A.54.54,0,0,1,30,5.9h0ZM5.66,18.6h7.1a.54.54,0,0,1,.59.47h0v7a.58.58,0,0,1-.6.5H5.66a.58.58,0,0,1-.64-.5H5v-7a.6.6,0,0,1,.64-.47Zm12.16,0h6.89a.54.54,0,0,1,.59.47h0v7a.58.58,0,0,1-.6.5H17.82a.58.58,0,0,1-.6-.5v-7a.54.54,0,0,1,.59-.47h0ZM30,18.6h6.89a.6.6,0,0,1,.64.47v7a.58.58,0,0,1-.64.5H30a.58.58,0,0,1-.6-.5v-7A.54.54,0,0,1,30,18.6h0ZM5.66,31.34h7.1a.54.54,0,0,1,.59.47v7a.55.55,0,0,1-.6.47H5.66A.59.59,0,0,1,5,38.81V31.68a.64.64,0,0,1,.64-.33Zm12.16,0h6.89a.66.66,0,0,1,.77.25.59.59,0,0,1,0,.08v7a.55.55,0,0,1-.6.47H17.82a.55.55,0,0,1-.6-.47v-7a.59.59,0,0,1,.59-.33Zm0,12.71h6.89a.54.54,0,0,1,.59.47V55a.55.55,0,0,1-.6.47H17.82a.55.55,0,0,1-.6-.47V44.52a.54.54,0,0,1,.59-.47ZM30,31.34h6.89a.6.6,0,0,1,.64.47v7a.6.6,0,0,1-.64.47H30a.55.55,0,0,1-.6-.47V31.68a.59.59,0,0,1,.59-.33Z"/></g></g></svg>