<svg id="Layer_1" data-name="Layer 1" xmlns="http://www.w3.org/2000/svg" xmlns:xlink="http://www.w3.org/1999/xlink" width="56.69" height="45.36" viewBox="0 0 56.69 45.36"><defs><style>.cls-1{fill:#0078d4;}.cls-1,.cls-2,.cls-3,.cls-5{fill-rule:evenodd;}.cls-2{fill:url(#linear-gradient);}.cls-3{fill:#f2f2f2;}.cls-4{fill:#76bc2d;}.cls-5{fill:#fff;}</style><linearGradient id="linear-gradient" x1="-288" y1="425.56" x2="-287" y2="425.56" gradientTransform="matrix(0, -31.41, -50.11, 0, 21353.23, -9012.67)" gradientUnits="userSpaceOnUse"><stop offset="0" stop-color="#d2ebff"/><stop offset="1" stop-color="#f0fffd"/></linearGradient></defs><g id="group1661-1"><g id="shape1662-2"><path class="cls-1" d="M0,35.19a1.81,1.81,0,0,0,1.89,1.73H54.8a1.81,1.81,0,0,0,1.89-1.73h0V1.73A1.81,1.81,0,0,0,54.8,0H1.89A1.81,1.81,0,0,0,0,1.73H0Z"/></g><g id="shape1663-4"><path class="cls-2" d="M3.31,33.06a1,1,0,0,0,1,.95h48a1,1,0,0,0,1-.95V3.55a1,1,0,0,0-1-.95h-48a1,1,0,0,0-1,.95Z"/></g><g id="shape1664-8"><path class="cls-3" d="M25.42,1.56a.37.37,0,0,0,.38.35h5.26a.36.36,0,0,0,.38-.35V1.5a.37.37,0,0,0-.38-.35H25.8a.36.36,0,0,0-.38.35Z"/></g><g id="shape1665-10"><ellipse class="cls-4" cx="40.54" cy="33.2" rx="13.29" ry="12.16"/></g><g id="shape1666-12"><path class="cls-5" d="M32.6,31.33a6.56,6.56,0,0,0,.88,5.76A7.49,7.49,0,0,0,35,38.82a9.64,9.64,0,0,0,1.93,1.24,12.4,12.4,0,0,0,2.26.72,9.64,9.64,0,0,0,2.4,0l-.22-2.1a.43.43,0,0,0-.44-.41H39.69a7,7,0,0,1-1.51-.49,7.6,7.6,0,0,1-1.33-.69,4.55,4.55,0,0,1-1-1.15A4.65,4.65,0,0,1,35.09,34a4.73,4.73,0,0,1,0-2l.79,1.21a.5.5,0,0,0,.63.14l1-.51a.41.41,0,0,0,.15-.58L35,28.13a.54.54,0,0,0-.66-.15l-4.44,2.43a.38.38,0,0,0,0,.57h0l.54.87a.49.49,0,0,0,.63.18h0Z"/></g><g id="shape1667-14"><path class="cls-5" d="M41.89,28.1a7.84,7.84,0,0,1,1.51.49,5.59,5.59,0,0,1,1.32.87,4.22,4.22,0,0,1,1,1.15,4.69,4.69,0,0,1,.73,1.93,5.06,5.06,0,0,1,0,2.05l-.79-1.21a.49.49,0,0,0-.63-.18l-1,.52a.41.41,0,0,0-.16.59h0l2.61,4.07a.54.54,0,0,0,.66.17l4.44-2.42a.43.43,0,0,0,.21-.59l0,0-.57-.86a.53.53,0,0,0-.66-.15l-1.54.84a6.84,6.84,0,0,0,.25-3.11,7.72,7.72,0,0,0-1.1-2.88,8.41,8.41,0,0,0-1.51-1.7,9,9,0,0,0-4.35-2.1,7.71,7.71,0,0,0-1.92,0,.41.41,0,0,0-.41.42V27.7a.46.46,0,0,0,.44.37A8,8,0,0,1,41.89,28.1Z"/></g></g></svg>