<svg id="Layer_1" data-name="Layer 1" xmlns="http://www.w3.org/2000/svg" xmlns:xlink="http://www.w3.org/1999/xlink" width="54.7" height="51.02" viewBox="0 0 54.7 51.02"><defs><style>.cls-1,.cls-2,.cls-3,.cls-4,.cls-6{fill-rule:evenodd;}.cls-1{fill:url(#linear-gradient);}.cls-2{fill:#fff;}.cls-3{fill:url(#linear-gradient-2);}.cls-4{fill:#32bedd;}.cls-5{fill:url(#linear-gradient-3);}.cls-6{fill:#0078d4;}</style><linearGradient id="linear-gradient" x1="-287.01" y1="416.83" x2="-286.01" y2="416.83" gradientTransform="matrix(0, -33.16, -50.39, 0, 21029.33, -9484.07)" gradientUnits="userSpaceOnUse"><stop offset="0" stop-color="#0078d4"/><stop offset="0.82" stop-color="#5ea0ef"/></linearGradient><linearGradient id="linear-gradient-2" x1="-303.56" y1="411.94" x2="-302.56" y2="411.94" gradientTransform="matrix(0, -12.66, -25.16, 0, 10389.37, -3797.13)" gradientUnits="userSpaceOnUse"><stop offset="0" stop-color="#1490df"/><stop offset="0.98" stop-color="#1f56a3"/></linearGradient><linearGradient id="linear-gradient-3" x1="-312.01" y1="396.47" x2="-311.01" y2="396.47" gradientTransform="matrix(0, -9.62, -9.74, 0, 3888.22, -2981.17)" gradientUnits="userSpaceOnUse"><stop offset="0" stop-color="#d2ebff"/><stop offset="1" stop-color="#f0fffd"/></linearGradient></defs><g id="group1733-1"><g id="group1734-2"><g id="shape1735-3"><path class="cls-1" d="M0,31.51a1.66,1.66,0,0,0,1.67,1.65H48.72a1.66,1.66,0,0,0,1.67-1.65h0V1.65A1.65,1.65,0,0,0,48.73,0H1.67A1.66,1.66,0,0,0,0,1.65H0Z"/></g><g id="shape1736-7"><path class="cls-2" d="M2.81,29.5a.93.93,0,0,0,.93.93H46.66a.93.93,0,0,0,.93-.92V3.69a.93.93,0,0,0-.94-.92H3.74a.94.94,0,0,0-.94.93Z"/></g><g id="shape1737-9"><path class="cls-3" d="M35.3,43.21c-5-.76-5.2-4.32-5.17-9.89h-10c0,5.74-.2,9.3-5.17,9.89A2.89,2.89,0,0,0,12.48,46H37.64A2.91,2.91,0,0,0,35.3,43.21Z"/></g><g id="shape1738-13"><path class="cls-4" d="M38.22,15.32h-23A7.7,7.7,0,0,0,6.17,9.38a7.61,7.61,0,0,0-6,9,7.72,7.72,0,0,0,15.1,0h2.37V49.93A1.09,1.09,0,0,0,18.73,51H38.19a1.09,1.09,0,0,0,1.1-1.08h0V16.41a1.09,1.09,0,0,0-1.07-1.09Z"/></g><g id="shape1739-15"><path class="cls-2" d="M37.11,46.61a.4.4,0,0,0,.4.4H54.29a.39.39,0,0,0,.4-.39V18.72a.4.4,0,0,0-.4-.39H37.51a.4.4,0,0,0-.4.4Z"/></g><g id="shape1740-17"><ellipse class="cls-5" cx="25.2" cy="16.98" rx="4.87" ry="4.81"/></g><g id="shape1741-21"><path class="cls-6" d="M48,31.51l-3.74-3.69a.19.19,0,0,0-.28,0,.16.16,0,0,0,0,.14v2.25a.2.2,0,0,1-.2.2H35v2.73h8.68a.2.2,0,0,1,.2.2h0v2.27a.2.2,0,0,0,.28,0l0,0L48,32.11a.4.4,0,0,0,0-.56l0,0Z"/></g></g></g></svg>