<svg id="Layer_1" data-name="Layer 1" xmlns="http://www.w3.org/2000/svg" xmlns:xlink="http://www.w3.org/1999/xlink" width="48.19" height="56.69" viewBox="0 0 48.19 56.69"><defs><style>.cls-1{fill:#0078d4;}.cls-1,.cls-2,.cls-3,.cls-4,.cls-5{fill-rule:evenodd;}.cls-2{fill:url(#linear-gradient);}.cls-3{fill:#ffbd02;}.cls-4{fill:#ffe452;}.cls-5{fill:#ffd400;fill-opacity:0.5;}</style><linearGradient id="linear-gradient" x1="-287.47" y1="419.87" x2="-286.47" y2="419.87" gradientTransform="matrix(0, -51.94, -44.26, 0, 18607.68, -14876.43)" gradientUnits="userSpaceOnUse"><stop offset="0" stop-color="#0078d4"/><stop offset="0.06" stop-color="#0a7cd7"/><stop offset="0.34" stop-color="#2e8ce1"/><stop offset="0.59" stop-color="#4897e9"/><stop offset="0.82" stop-color="#589eed"/><stop offset="1" stop-color="#5ea0ef"/></linearGradient></defs><g id="group1688-1"><g id="group1689-2"><g id="shape1690-3"><path class="cls-1" d="M48.19,26.47c0,15.24-19.13,27.5-23.31,30a1.48,1.48,0,0,1-1.57,0C19.13,54,0,41.74,0,26.47V8.14A1.48,1.48,0,0,1,1.46,6.67C16.37,6.3,12.93,0,24.09,0s7.73,6.3,22.64,6.67a1.48,1.48,0,0,1,1.46,1.47Z"/></g><g id="shape1691-5"><path class="cls-2" d="M46.21,26.61c0,14-17.56,25.23-21.4,27.5a1.41,1.41,0,0,1-1.43,0C19.53,51.84,2,40.61,2,26.61V9.94A1.38,1.38,0,0,1,3.11,8.36l.22,0c13.68-.24,10.55-6,20.76-6s7.08,5.73,20.76,6a1.38,1.38,0,0,1,1.36,1.33Z"/></g><g id="shape1692-9"><path class="cls-3" d="M33.79,23.87H32.43V19.13a8.62,8.62,0,0,0-2.38-6,8.18,8.18,0,0,0-11.39-.44c-.16.14-.31.29-.46.44a8.67,8.67,0,0,0-2.38,6v4.74H14.46a1.08,1.08,0,0,0-1.18,1,1,1,0,0,0,0,.17V37.27a1.08,1.08,0,0,0,1.09,1.07H33.79a1.07,1.07,0,0,0,1.12-1V25a1.06,1.06,0,0,0-1-1.12Zm-5.27,0H19.67v-4.8a4.76,4.76,0,0,1,1.39-3.34,4.11,4.11,0,0,1,5.72-.33,3.55,3.55,0,0,1,.34.33,5.75,5.75,0,0,1,.55.67A4.55,4.55,0,0,1,28.52,19Z"/></g><g id="shape1693-11"><path class="cls-4" d="M14.39,23.87h19.4a1.11,1.11,0,0,1,.72.27L13.68,38a1.14,1.14,0,0,1-.41-.8V25a1.07,1.07,0,0,1,1-1.14Z"/></g><g id="shape1694-13"><path class="cls-5" d="M33.79,23.87H14.39a1.1,1.1,0,0,0-.71.27L34.51,38a1,1,0,0,0,.41-.8V25a1.07,1.07,0,0,0-1-1.14Z"/></g></g></g></svg>