<svg id="Layer_1" data-name="Layer 1" xmlns="http://www.w3.org/2000/svg" xmlns:xlink="http://www.w3.org/1999/xlink" width="51.03" height="56.66" viewBox="0 0 51.03 56.66"><defs><style>.cls-1,.cls-2,.cls-3,.cls-4,.cls-5{fill-rule:evenodd;}.cls-1{fill:url(#linear-gradient);}.cls-2{fill:#f2f2f2;}.cls-3{fill:url(#linear-gradient-2);}.cls-4{fill:#76bc2d;}.cls-5{fill:#fff;}</style><linearGradient id="linear-gradient" x1="-285.39" y1="417.69" x2="-284.39" y2="417.69" gradientTransform="matrix(0, -56.66, -33.61, 0, 14055.32, -16113.31)" gradientUnits="userSpaceOnUse"><stop offset="0" stop-color="#0078d4"/><stop offset="0.17" stop-color="#1c84dc"/><stop offset="0.38" stop-color="#3990e4"/><stop offset="0.59" stop-color="#4d99ea"/><stop offset="0.8" stop-color="#5a9eee"/><stop offset="1" stop-color="#5ea0ef"/></linearGradient><linearGradient id="linear-gradient-2" x1="-286.81" y1="416.02" x2="-285.81" y2="416.02" gradientTransform="matrix(0, -45.53, -27.3, 0, 11374.26, -13007.18)" gradientUnits="userSpaceOnUse"><stop offset="0" stop-color="#d2ebff"/><stop offset="1" stop-color="#f0fffd"/></linearGradient></defs><g id="group1724-1"><g id="group1725-2"><g id="shape1726-3"><path class="cls-1" d="M0,55a1.7,1.7,0,0,0,1.69,1.7H31.92A1.7,1.7,0,0,0,33.61,55h0V1.7A1.7,1.7,0,0,0,31.92,0H1.69A1.7,1.7,0,0,0,0,1.7H0Z"/></g><g id="shape1727-7"><path class="cls-2" d="M14.9,54.56a.9.9,0,0,0,.9.9h2a.9.9,0,0,0,.9-.9V53.13a.89.89,0,0,0-.89-.9h-2a.89.89,0,0,0-.89.9Z"/></g><g id="shape1728-9"><path class="cls-2" d="M12.92,2.4a.5.5,0,0,0,.5.5h6.74a.5.5,0,0,0,.5-.5v0a.5.5,0,0,0-.49-.5H13.42a.5.5,0,0,0-.49.5Z"/></g><g id="shape1729-11"><path class="cls-3" d="M3.14,49.66a.63.63,0,0,0,.63.63h26a.63.63,0,0,0,.63-.63V5.4a.63.63,0,0,0-.63-.63h-26a.63.63,0,0,0-.63.63Z"/></g><g id="shape1730-15"><path class="cls-4" d="M26.17,55.73a.93.93,0,0,0,.93.93h23a.93.93,0,0,0,.93-.93V32.52a.92.92,0,0,0-.92-.93h-23a.93.93,0,0,0-.92.93Z"/></g><g id="shape1731-17"><path class="cls-5" d="M37.33,49.46,35.9,50.9a.62.62,0,0,1-.89,0h0l-5.7-5.76a.63.63,0,0,1,0-.9h0l1-1a.61.61,0,0,1,.88,0h0l6.15,6.2Z"/></g><g id="shape1732-19"><path class="cls-5" d="M35.15,50.85l-1.43-1.44,13.09-13.2a.61.61,0,0,1,.88,0h0l1,1a.65.65,0,0,1,0,.9h0L36.06,50.88a.62.62,0,0,1-.89,0h0Z"/></g></g></g></svg>