<svg id="Layer_1" data-name="Layer 1" xmlns="http://www.w3.org/2000/svg" xmlns:xlink="http://www.w3.org/1999/xlink" width="56.72" height="56.69" viewBox="0 0 56.72 56.69"><defs><style>.cls-1,.cls-2,.cls-4,.cls-5{fill-rule:evenodd;}.cls-1{fill:url(#linear-gradient);}.cls-2{fill:#fff;fill-opacity:0.8;}.cls-3{fill:url(#linear-gradient-2);}.cls-4{fill:#b31b1b;}.cls-5{fill:#f2f2f2;}.cls-6{fill:none;}</style><linearGradient id="linear-gradient" x1="-264.54" y1="441.18" x2="-263.54" y2="441.18" gradientTransform="matrix(0, 28.92, 50.67, 0, -22327.38, 7674.5)" gradientUnits="userSpaceOnUse"><stop offset="0.22" stop-color="#32d4f5"/><stop offset="1" stop-color="#198ab3"/></linearGradient><linearGradient id="linear-gradient-2" x1="-262.87" y1="444.29" x2="-261.87" y2="444.29" gradientTransform="matrix(2.29, 26.72, 28.33, -2.16, -11959.41, 7982.48)" xlink:href="#linear-gradient"/></defs><g id="group1655-1"><g id="shape1656-2"><path class="cls-1" d="M46.08,52.65a4.38,4.38,0,0,0,4.57-4.18h0a2.09,2.09,0,0,0,0-.5C48.88,34.6,40.8,23.73,25.39,23.73S1.58,32.86,0,47.94a4.36,4.36,0,0,0,4,4.68h42Z"/></g><g id="shape1657-6"><path class="cls-2" d="M25.36,26.81a14.48,14.48,0,0,1-7.62-2.14l7.55,18.79,7.54-18.65A14.82,14.82,0,0,1,25.36,26.81Z"/></g><g id="shape1658-8"><ellipse class="cls-3" cx="25.36" cy="13.4" rx="14.21" ry="13.4"/></g><g id="shape1659-12"><path class="cls-4" d="M50.72,34.49a6.31,6.31,0,0,0-6.41,3.95,6.26,6.26,0,0,0-6.41-3.95c-5.81.6-6,5.85-6,7.93,0,1.47.35,6.15,12.33,14.27,12.15-8.22,12.47-12.8,12.47-14.27C56.71,40.34,56.71,35.09,50.72,34.49Z"/></g><g id="shape1660-14"><path class="cls-5" d="M56.72,41.79H51.05a.38.38,0,0,0-.39.2l-1.78,2.77a.26.26,0,0,1-.35,0l0,0-2.4-4.71a.47.47,0,0,0-.6-.24.49.49,0,0,0-.25.24l-2.41,6.69a.21.21,0,0,1-.42,0h0l-2.1-4.55a.47.47,0,0,0-.62-.19.44.44,0,0,0-.19.19l-2.77,4.75a.42.42,0,0,1-.39.2H33.79a16.37,16.37,0,0,0,1.31,1.7h2.3a.4.4,0,0,0,.39-.24l2-3.33L42.36,51a.47.47,0,0,0,.85,0l2.73-7.62,2.38,4.28a.51.51,0,0,0,.69.11.69.69,0,0,0,.13-.11l2.61-4.21a.56.56,0,0,1,.39-.24h4.58Z"/><path class="cls-6" d="M56.72,41.79H51.05a.38.38,0,0,0-.39.2l-1.78,2.77a.26.26,0,0,1-.35,0l0,0-2.4-4.71a.47.47,0,0,0-.6-.24.49.49,0,0,0-.25.24l-2.41,6.69a.21.21,0,0,1-.42,0h0l-2.1-4.55a.47.47,0,0,0-.62-.19.44.44,0,0,0-.19.19l-2.77,4.75a.42.42,0,0,1-.39.2H33.79a16.37,16.37,0,0,0,1.31,1.7h2.3a.4.4,0,0,0,.39-.24l2-3.33L42.36,51a.47.47,0,0,0,.85,0l2.73-7.62,2.38,4.28a.51.51,0,0,0,.69.11.69.69,0,0,0,.13-.11l2.61-4.21a.56.56,0,0,1,.39-.24h4.58"/></g></g></svg>