<svg id="Layer_1" data-name="Layer 1" xmlns="http://www.w3.org/2000/svg" xmlns:xlink="http://www.w3.org/1999/xlink" width="56.7" height="51.03" viewBox="0 0 56.7 51.03"><defs><style>.cls-1{fill:#0078d4;}.cls-1,.cls-2,.cls-3,.cls-4,.cls-6,.cls-7,.cls-8{fill-rule:evenodd;}.cls-2{fill:url(#linear-gradient);}.cls-3{fill:url(#linear-gradient-2);}.cls-4{fill:#f2f2f2;}.cls-5{fill:none;}.cls-6{fill:url(#linear-gradient-3);}.cls-7{fill:#76bc2d;}.cls-8{fill:#fff;}</style><linearGradient id="linear-gradient" x1="-287.56" y1="417.1" x2="-286.56" y2="417.1" gradientTransform="matrix(0, -32.33, -46.43, 0, 19394.13, -9262.05)" gradientUnits="userSpaceOnUse"><stop offset="0" stop-color="#d2ebff"/><stop offset="1" stop-color="#f0fffd"/></linearGradient><linearGradient id="linear-gradient-2" x1="-285.32" y1="412.25" x2="-284.32" y2="412.25" gradientTransform="matrix(0, -41.13, -24.26, 0, 10045.77, -11684.56)" gradientUnits="userSpaceOnUse"><stop offset="0" stop-color="#0078d4"/><stop offset="0.17" stop-color="#1c84dc"/><stop offset="0.38" stop-color="#3990e4"/><stop offset="0.59" stop-color="#4d99ea"/><stop offset="0.8" stop-color="#5a9eee"/><stop offset="1" stop-color="#5ea0ef"/></linearGradient><linearGradient id="linear-gradient-3" x1="-287.37" y1="409.85" x2="-286.37" y2="409.85" gradientTransform="matrix(0, -32.94, -19.61, 0, 8082.67, -9419.49)" xlink:href="#linear-gradient"/></defs><g id="group1705-1"><g id="group1706-2"><g id="shape1707-3"><path class="cls-1" d="M0,36.08A1.91,1.91,0,0,0,1.89,38H50.65a1.91,1.91,0,0,0,1.89-1.92V1.92A1.91,1.91,0,0,0,50.65,0H1.89A1.91,1.91,0,0,0,0,1.92Z"/></g><g id="shape1708-5"><path class="cls-2" d="M3.06,34A1,1,0,0,0,4,35H48.54a1,1,0,0,0,.94-1V3.62a1,1,0,0,0-1-1H4a1,1,0,0,0-1,1Z"/></g><g id="shape1709-9"><path class="cls-3" d="M32.44,50.07a1,1,0,0,0,1,1H55.75a1,1,0,0,0,1-1V10.86a1,1,0,0,0-.94-1H33.38a1,1,0,0,0-.94,1Z"/></g><g id="shape1710-13"><path class="cls-4" d="M41.8,11.69a.35.35,0,0,0,.34.35H47a.35.35,0,0,0,.34-.35v-.07a.35.35,0,0,0-.35-.35H42.15a.35.35,0,0,0-.35.35Z"/></g><g id="shape1711-15"><path class="cls-5" d="M34.74,46a.45.45,0,0,0,.44.45H54a.45.45,0,0,0,.44-.45V13.8a.45.45,0,0,0-.44-.45H35.18a.45.45,0,0,0-.44.45Z"/></g><g id="shape1712-17"><path class="cls-4" d="M23.56,1.61a.35.35,0,0,0,.35.35h4.88a.36.36,0,0,0,.35-.36V1.54a.36.36,0,0,0-.35-.36H23.91a.35.35,0,0,0-.35.35Z"/></g><g id="shape1713-19"><path class="cls-4" d="M43.21,49.49a.63.63,0,0,0,.63.64h1.45a.63.63,0,0,0,.63-.64V48.43a.64.64,0,0,0-.63-.64H43.84a.64.64,0,0,0-.63.64Z"/></g><g id="shape1714-21"><path class="cls-6" d="M34.74,46a.46.46,0,0,0,.45.46H53.9a.46.46,0,0,0,.45-.46v-32a.46.46,0,0,0-.45-.46H35.19a.45.45,0,0,0-.45.46Z"/></g><g id="shape1715-24"><path class="cls-7" d="M10.64,37.51a13.3,13.3,0,0,0,13.2,13.41H24a13.3,13.3,0,0,0,13.2-13.41h0v-.13A13.3,13.3,0,0,0,24,24h-.12a13.3,13.3,0,0,0-13.2,13.41h0Z"/></g><g id="shape1716-26"><path class="cls-8" d="M31.87,35.68h-6.3v-6.4A1.49,1.49,0,0,0,24.15,28h-.5a1.49,1.49,0,0,0-1.48,1.5v6.4h-6.3a1.5,1.5,0,0,0-1.45,1.51v.19a1.49,1.49,0,0,0,1.45,1.5h6.3v6.41A1.49,1.49,0,0,0,23.65,47h.5a1.49,1.49,0,0,0,1.48-1.47V39.07h6.3a1.49,1.49,0,0,0,1.48-1.5v-.51a1.5,1.5,0,0,0-1.54-1.38Z"/></g></g></g></svg>