<svg id="Layer_1" data-name="Layer 1" xmlns="http://www.w3.org/2000/svg" xmlns:xlink="http://www.w3.org/1999/xlink" width="56.69" height="56.7" viewBox="0 0 56.69 56.7"><defs><style>.cls-1,.cls-4{fill-rule:evenodd;}.cls-1{fill:url(#linear-gradient);}.cls-2{fill:#b3b3b3;}.cls-3{fill:#f2f2f2;}.cls-4{fill:url(#linear-gradient-2);}</style><linearGradient id="linear-gradient" x1="-285.26" y1="420.17" x2="-284.26" y2="420.17" gradientTransform="matrix(0, -40.63, -56.69, 0, 23847.78, -11550.15)" gradientUnits="userSpaceOnUse"><stop offset="0" stop-color="#198ab3"/><stop offset="0.44" stop-color="#28b7db"/><stop offset="0.78" stop-color="#32d4f5"/></linearGradient><linearGradient id="linear-gradient-2" x1="-304.63" y1="403.58" x2="-303.63" y2="403.58" gradientTransform="matrix(0.14, -12.02, -11.91, -0.15, 4856.24, -3545.82)" xlink:href="#linear-gradient"/></defs><g id="group1604-1"><g id="group1605-2"><g id="shape1606-3"><path class="cls-1" d="M56.69,27.88a12.86,12.86,0,0,0-11-12.25A16.13,16.13,0,0,0,29.1,0,16.47,16.47,0,0,0,13.35,10.86,15.28,15.28,0,0,0,0,25.62a15.5,15.5,0,0,0,16,15H43.21a2.73,2.73,0,0,0,.7,0A13,13,0,0,0,56.69,27.88Z"/></g><g id="shape1607-7"><rect class="cls-2" x="27.02" y="26.64" width="2.46" height="19.69"/></g><g id="shape1608-9"><ellipse class="cls-3" cx="28.25" cy="20.69" rx="6.55" ry="6.62"/></g><g id="shape1609-11"><path class="cls-4" d="M0,54.38A2.31,2.31,0,0,0,2.3,56.7H9.61a2.31,2.31,0,0,0,2.3-2.32V47a2.31,2.31,0,0,0-2.3-2.32H2.3A2.31,2.31,0,0,0,0,47Z"/></g></g></g></svg>