<svg id="Layer_1" data-name="Layer 1" xmlns="http://www.w3.org/2000/svg" width="53.86" height="56.69" viewBox="0 0 53.86 56.69"><defs><style>.cls-1,.cls-2{fill:#0072c6;}.cls-2{fill-rule:evenodd;}</style></defs><g id="group1624-1"><g id="group1625-2"><g id="shape1626-3"><ellipse class="cls-1" cx="21.27" cy="11.22" rx="4.16" ry="4.2"/></g><g id="shape1627-5"><ellipse class="cls-1" cx="30.77" cy="24.74" rx="4.96" ry="5.01"/></g><g id="shape1628-7"><ellipse class="cls-1" cx="39.07" cy="39.63" rx="3.88" ry="3.91"/></g><g id="shape1629-9"><ellipse class="cls-1" cx="23.69" cy="36.92" rx="3.34" ry="3.38"/></g><g id="shape1630-11"><ellipse class="cls-1" cx="10.15" cy="26.64" rx="3.34" ry="3.38"/></g><g id="shape1631-13"><path class="cls-2" d="M19.64,11.55,22.1,9.8l10,14.32-2.46,1.75Z"/></g><g id="shape1632-15"><path class="cls-2" d="M29.16,25l2.61-1.51L40.58,39,38,40.49Z"/></g><g id="shape1633-17"><path class="cls-2" d="M9.58,24.9l21.28-1.79.25,3L9.83,27.93Z"/></g><g id="shape1634-19"><path class="cls-2" d="M21.94,36.33l7.63-12.79,2.58,1.57L24.52,37.9Z"/></g><g id="shape1635-21"><ellipse class="cls-1" cx="5.59" cy="14.36" rx="3.99" ry="4.03"/></g><g id="shape1636-23"><ellipse class="cls-1" cx="48.17" cy="14.36" rx="3.99" ry="4.03"/></g><g id="shape1637-25"><ellipse class="cls-1" cx="27.94" cy="52.66" rx="3.99" ry="4.03"/></g><g id="shape1638-27"><path class="cls-2" d="M10,10.82a23.31,23.31,0,0,1,33.89-.05,5.57,5.57,0,0,1,3-1.92c-.26-.3-.55-.6-.85-.89a26.89,26.89,0,0,0-8.56-5.83,26.92,26.92,0,0,0-21,0A27,27,0,0,0,7.85,8c-.3.3-.58.61-.86.91A5.6,5.6,0,0,1,10,10.82Zm42.38,7.34a5.61,5.61,0,0,1-3.07,1.76,24,24,0,0,1,1.13,7.29A23.66,23.66,0,0,1,33,50.12a5.71,5.71,0,0,1,.52,3.5,27.66,27.66,0,0,0,3.94-1.33A26.73,26.73,0,0,0,46,46.46a27.51,27.51,0,0,0,6.37-28.3ZM22.74,50.53A23.65,23.65,0,0,1,3.46,27.2a24,24,0,0,1,1.13-7.28A5.69,5.69,0,0,1,1.5,18.23a27.11,27.11,0,0,0-1.5,9A27.24,27.24,0,0,0,7.88,46.45a26.85,26.85,0,0,0,8.57,5.82A25.89,25.89,0,0,0,22.5,54a5.73,5.73,0,0,1-.16-1.38A5.21,5.21,0,0,1,22.74,50.53Z"/></g></g></g></svg>