<svg id="Layer_1" data-name="Layer 1" xmlns="http://www.w3.org/2000/svg" xmlns:xlink="http://www.w3.org/1999/xlink" width="56.71" height="56.92" viewBox="0 0 56.71 56.92"><defs><style>.cls-1,.cls-2,.cls-3,.cls-4,.cls-5{fill-rule:evenodd;}.cls-1{fill:url(#linear-gradient);}.cls-2{fill:#32bedd;}.cls-3{fill:#50e6ff;}.cls-4{fill:#f2f2f2;}.cls-5{fill:#86d633;}</style><linearGradient id="linear-gradient" x1="-282.11" y1="420.67" x2="-281.11" y2="420.67" gradientTransform="matrix(0, -56.69, -52.89, 0, 22275.57, -15936.06)" gradientUnits="userSpaceOnUse"><stop offset="0" stop-color="#0078d4"/><stop offset="0.06" stop-color="#0a7cd7"/><stop offset="0.34" stop-color="#2e8ce1"/><stop offset="0.59" stop-color="#4897e9"/><stop offset="0.82" stop-color="#589eed"/><stop offset="1" stop-color="#5ea0ef"/></linearGradient></defs><g id="group1549-1"><g id="group1550-2"><g id="shape1551-3"><path class="cls-1" d="M48.79,11,44.26,6.58H43.8L37.7,9.91l-4.37-2L30.58,0,24.25.06,24,1,21.79,7.88,17.42,9.77,10,6.45l-4.4,4.49.46.89,3.28,6.42L7.61,22.67,0,25.57v6.48l.89.3,6.82,2.13L9.58,38.9,6.3,46.45l4.56,4.49.82-.47L18,47.15l2,2.52,5.25,7h6.34l.29-.9,2.27-4,3.6-1.83L45,49.47l4.46-4.62v-.43l.88-3.32,2.6-7.88ZM27.92,42.86a14.53,14.53,0,1,1,14.3-14.57v.17A14.4,14.4,0,0,1,27.92,42.86Z"/></g><g id="shape1552-7"><path class="cls-2" d="M37.8,28.09c0,6.45-7.84,11.64-9.55,12.7a.76.76,0,0,1-.66,0c-1.7-1.06-9.51-6.25-9.51-12.7V20.35a.63.63,0,0,1,.59-.63c6.1,0,4.69-2.83,9.25-2.83s3.28,2.66,9.25,2.82a.67.67,0,0,1,.62.63Z"/></g><g id="shape1553-9"><path class="cls-3" d="M37,28.16c0,5.92-7.19,10.67-8.76,11.64a.62.62,0,0,1-.59,0c-1.58-1-8.73-5.72-8.73-11.64V21a.56.56,0,0,1,.52-.56c5.61,0,4.34-2.6,8.5-2.6s2.92,2.46,8.5,2.6a.6.6,0,0,1,.56.57Z"/></g><g id="shape1554-11"><path class="cls-4" d="M31.89,27h-.56V25.13a3.84,3.84,0,0,0-1-2.56,3.1,3.1,0,0,0-2.43-1.06,3.31,3.31,0,0,0-2.43,1.06,3.84,3.84,0,0,0-1,2.56v2H24a.47.47,0,0,0-.46.47h0v5.18a.47.47,0,0,0,.46.44h7.94a.43.43,0,0,0,.46-.39V27.46a.47.47,0,0,0-.46-.46Zm-2.16,0H26.12V25.13a2,2,0,0,1,.55-1.4,1.73,1.73,0,0,1,1.25-.56,1.66,1.66,0,0,1,1.25.56l.23.27a2.25,2.25,0,0,1,.33,1.13Z"/></g><g id="shape1555-13"><path class="cls-5" d="M45.28,6.48,47.61,1.6a.51.51,0,0,0-.19-.68l0,0h-.26L29,2.29a.52.52,0,0,0-.46.56.42.42,0,0,0,0,.27l10.24,15a.53.53,0,0,0,.72,0l.16-.2,2-4.29a.55.55,0,0,1,.69-.27A21.17,21.17,0,0,1,50,28.46,21.23,21.23,0,0,1,29.45,50.28H29.4A21.63,21.63,0,0,1,19.2,48a.52.52,0,0,0-.69.2l-2.69,4.92a.54.54,0,0,0,.19.7A27.94,27.94,0,0,0,56.7,28.2,28.12,28.12,0,0,0,45.41,7.12a.58.58,0,0,1-.14-.63Z"/></g></g></g></svg>