<svg id="Layer_1" data-name="Layer 1" xmlns="http://www.w3.org/2000/svg" xmlns:xlink="http://www.w3.org/1999/xlink" width="51.02" height="56.69" viewBox="0 0 51.02 56.69"><defs><style>.cls-1{fill:url(#linear-gradient);}.cls-2,.cls-3,.cls-5{fill-rule:evenodd;}.cls-2{fill:url(#linear-gradient-2);}.cls-3{fill:#50e6ff;}.cls-4{fill:#fff;}.cls-5{fill:#b3b3b3;}</style><linearGradient id="linear-gradient" x1="-285.51" y1="430.46" x2="-284.51" y2="430.46" gradientTransform="matrix(0, -54.6, -51.02, 0, 21988.99, -15531.97)" gradientUnits="userSpaceOnUse"><stop offset="0" stop-color="#198ab3"/><stop offset="0.44" stop-color="#28b7db"/><stop offset="0.78" stop-color="#32d4f5"/></linearGradient><linearGradient id="linear-gradient-2" x1="-277.01" y1="420.78" x2="-276.01" y2="420.78" gradientTransform="matrix(21.18, -18.4, -15.18, -25.68, 12268.47, 5747.18)" gradientUnits="userSpaceOnUse"><stop offset="0" stop-color="#fff"/><stop offset="1" stop-color="#fff"/></linearGradient></defs><g id="group1556-1"><g id="group1557-2"><g id="shape1558-3"><ellipse class="cls-1" cx="25.51" cy="29.39" rx="25.51" ry="27.3"/></g><g id="shape1559-7"><path class="cls-2" d="M24.94,47.83C22,45.9,12.48,39,12.48,31V20.65l1-.07a11.6,11.6,0,0,0,7.06-2.38,7.12,7.12,0,0,1,5-1.57,7.21,7.21,0,0,1,4.95,1.56,11.61,11.61,0,0,0,7,2.39l1,.07V31c0,8.05-9.54,15-12.47,16.88l-.56.37Z"/></g><g id="shape1560-11"><path class="cls-3" d="M25.51,46.47C19.85,42.71,13.86,36.7,13.86,31V22a12.74,12.74,0,0,0,7.46-2.61,5.81,5.81,0,0,1,4.19-1.32,5.88,5.88,0,0,1,4.18,1.32A12.82,12.82,0,0,0,37.16,22V31C37.16,36.7,31.17,42.71,25.51,46.47Z"/></g><g id="group1561-13"><g id="shape1562-14"><ellipse class="cls-4" cx="44.56" cy="44.67" rx="3.91" ry="4.18"/></g><g id="shape1563-16"><path class="cls-5" d="M44.55,40.48a4.18,4.18,0,1,1-3.9,4.18,4.05,4.05,0,0,1,3.9-4.18Zm0-2.09a6.29,6.29,0,1,0,5.87,6.28,6.09,6.09,0,0,0-5.87-6.28Z"/></g></g><g id="group1564-18"><g id="shape1565-19"><ellipse class="cls-4" cx="6.47" cy="44.67" rx="3.91" ry="4.18"/></g><g id="shape1566-21"><path class="cls-5" d="M6.47,40.49a4.18,4.18,0,0,1,0,8.35,4,4,0,0,1-3.9-4.17h0A4,4,0,0,1,6.47,40.49Zm0-2.09A6.29,6.29,0,0,0,6.46,51a6.08,6.08,0,0,0,5.87-6.27h0A6.09,6.09,0,0,0,6.47,38.4Z"/></g></g><g id="group1567-23"><g id="shape1568-24"><ellipse class="cls-4" cx="25.51" cy="6.27" rx="3.91" ry="4.18"/></g><g id="shape1569-26"><path class="cls-5" d="M25.51,2.09a4,4,0,0,1,3.9,4.17,4,4,0,0,1-3.9,4.18,4,4,0,0,1-3.9-4.17,4,4,0,0,1,3.9-4.18Zm0-2.09a6.08,6.08,0,0,0-5.87,6.27,6.08,6.08,0,0,0,5.86,6.28,6.08,6.08,0,0,0,5.87-6.27h0A6.09,6.09,0,0,0,25.51,0Z"/></g></g></g></g></svg>