<svg id="Layer_1" data-name="Layer 1" xmlns="http://www.w3.org/2000/svg" width="51.02" height="53.4" viewBox="0 0 51.02 53.4"><defs><style>.cls-1{fill:#0072c6;}.cls-1,.cls-3,.cls-6{fill-rule:evenodd;}.cls-2{fill:#57a300;}.cls-3,.cls-4,.cls-5{fill:#fff;}.cls-5{fill-opacity:0.3;}.cls-6{fill:#00188f;fill-opacity:0.6;}</style></defs><g id="group1610-1"><g id="group1611-2"><g id="shape1612-3"><path class="cls-1" d="M31.82,12.5H0V53.4H31.82Z"/></g><g id="shape1613-5"><path class="cls-1" d="M17.05,6.93V49H46.48l.12-42ZM44.23,9.2V26.25H19.31V9.2ZM19.31,46.7V28.52H44.23V46.7Z"/></g><g id="shape1614-7"><circle class="cls-2" cx="5.57" cy="47.83" r="5.57"/></g><g id="shape1615-9"><path class="cls-3" d="M18.18,50a2.16,2.16,0,1,1,2.16-2.16A2.16,2.16,0,0,1,18.18,50Z"/></g><g id="shape1616-11"><circle class="cls-2" cx="5.57" cy="47.83" r="5.57"/></g><g id="shape1617-13"><path class="cls-3" d="M45.46,50a2.16,2.16,0,1,1,2.16-2.16A2.16,2.16,0,0,1,45.46,50Z"/></g><g id="shape1618-15"><circle class="cls-2" cx="45.46" cy="8.07" r="5.57"/></g><g id="shape1619-17"><circle class="cls-4" cx="45.46" cy="8.07" r="2.16"/></g><g id="shape1620-19"><circle class="cls-2" cx="45.46" cy="27.38" r="5.57"/></g><g id="shape1621-21"><circle class="cls-4" cx="45.46" cy="27.38" r="2.16"/></g><g id="shape1622-23"><rect class="cls-5" x="3.3" width="25.29" height="34.08"/></g><g id="shape1623-25"><path class="cls-6" d="M22.56,9.21h9.25V6.93H22.56A4.42,4.42,0,1,0,17,12.3V23.15a4.4,4.4,0,0,0,0,8.46v6H19.3V31.69a4.44,4.44,0,0,0,3.26-3.17h9.25V26.25H22.56a4.41,4.41,0,0,0-3.26-3.17V12.37A4.43,4.43,0,0,0,22.56,9.21Z"/></g></g></g></svg>