<svg id="Layer_1" data-name="Layer 1" xmlns="http://www.w3.org/2000/svg" width="45.35" height="56.7" viewBox="0 0 45.35 56.7"><defs><style>.cls-1{fill:#a3a3a3;}.cls-1,.cls-2,.cls-3,.cls-4,.cls-5{fill-rule:evenodd;}.cls-2{fill:#949494;}.cls-3{fill:#32bedd;}.cls-4{fill:#9cebff;}.cls-5{fill:#50e6ff;}</style></defs><g id="group1639-1"><g id="shape1640-2"><path class="cls-1" d="M22.68,0,0,14.15V23.6l8.81,5.82V23.75L4.19,20.86V17L22.68,5.3,41.17,17V39.6L22.68,51.25,0,37.11V42.4L22.68,56.7,45.35,42.56V14.21Z"/></g><g id="shape1641-4"><path class="cls-2" d="M22.68,0,0,14.15,4.19,17,22.68,5.3,41.17,17l4.18-2.8Z"/></g><g id="shape1642-6"><path class="cls-3" d="M35,20.6V36.1L22.68,43.88V28.38Z"/></g><g id="shape1643-8"><path class="cls-4" d="M35,20.6,22.68,28.38,10.4,20.6l12.28-7.78Z"/></g><g id="shape1644-10"><path class="cls-5" d="M22.68,28.38v15.5L10.4,36.1V20.6Z"/></g><g id="shape1645-12"><path class="cls-4" d="M10.4,36.1l12.28-7.72v15.5Z"/></g><g id="shape1646-14"><path class="cls-5" d="M35,36.1,22.68,28.38v15.5Z"/></g></g></svg>