<svg id="Layer_1" data-name="Layer 1" xmlns="http://www.w3.org/2000/svg" width="42.52" height="56.48" viewBox="0 0 42.52 56.48"><defs><style>.cls-1{fill:#7fba00;}.cls-1,.cls-2,.cls-3{fill-rule:evenodd;}.cls-2{fill:#96c414;}.cls-3{fill:#fff;}</style></defs><g id="group1599-1"><g id="group1600-2"><g id="shape1601-3"><path class="cls-1" d="M36.22,6.74C23.54,5.36,21.41,0,21.41,0S18.56,7.05.31,7.05V36c0,3.5,2,6.78,4.72,9.64,6.23,6.49,16.38,10.86,16.38,10.86S42.52,47.41,42.52,36V7.05h-.2A58.64,58.64,0,0,1,36,6.71l.26,0Z"/></g><g id="shape1602-5"><path class="cls-2" d="M21.1,10.87s-2.85,7-21.1,7V46.85c0,3.5,2,6.77,4.72,9.63L35.91,17.6C23.23,16.23,21.1,10.87,21.1,10.87Z"/></g><g id="shape1603-7"><path class="cls-3" d="M30.19,38.18a2.72,2.72,0,0,1-1.94-4.7l-3-5.1A3.4,3.4,0,0,1,23,28.32h0L20.8,31.87a2.32,2.32,0,0,1,0,3.34,2.44,2.44,0,0,1-3.39,0,2.32,2.32,0,0,1,0-3.34,2.42,2.42,0,0,1,1.71-.7h0l.3,0h0L21.7,27.5a3.44,3.44,0,0,1-.88-1.45v0l-9,.74a2.41,2.41,0,0,1-2.77,2A2.37,2.37,0,0,1,7,26a2.4,2.4,0,0,1,2.77-1.95,2.37,2.37,0,0,1,1.73,1.2h0l9.2-.75a3.55,3.55,0,0,1,.85-1.75h0l-3.17-4.41a3,3,0,0,1-3.82-1.77,2.91,2.91,0,0,1,1.81-3.75,3,3,0,0,1,3.82,1.77,2.88,2.88,0,0,1-.54,2.89h0l3.13,4.36a3.59,3.59,0,0,1,4.69,1.77,3.44,3.44,0,0,1-.87,4h0l3,5.14a2.8,2.8,0,0,1,3.35,2,2.73,2.73,0,0,1-2.09,3.28,2.58,2.58,0,0,1-.68.07Z"/></g></g></g></svg>