<svg id="Layer_1" data-name="Layer 1" xmlns="http://www.w3.org/2000/svg" xmlns:xlink="http://www.w3.org/1999/xlink" width="56.69" height="56.7" viewBox="0 0 56.69 56.7"><defs><style>.cls-1{fill:#fff;}.cls-2{fill:#949494;}.cls-2,.cls-3{fill-rule:evenodd;}.cls-3{fill:url(#linear-gradient);}</style><linearGradient id="linear-gradient" x1="-283.7" y1="419.78" x2="-282.7" y2="419.78" gradientTransform="matrix(-0.5, -48.05, -47.85, 0.5, 19973.46, -13791.44)" gradientUnits="userSpaceOnUse"><stop offset="0" stop-color="#198ab3"/><stop offset="0.09" stop-color="#22a5cb"/><stop offset="0.19" stop-color="#29bade"/><stop offset="0.29" stop-color="#2ec9eb"/><stop offset="0.42" stop-color="#31d1f3"/><stop offset="0.62" stop-color="#32d4f5"/></linearGradient></defs><g id="group1588-1"><g id="shape1589-2"><ellipse class="cls-1" cx="36.32" cy="26.5" rx="6.55" ry="6.57"/></g><g id="shape1590-4"><ellipse class="cls-1" cx="47.29" cy="46.05" rx="5.15" ry="5.17"/></g><g id="shape1591-6"><ellipse class="cls-1" cx="26.92" cy="42.51" rx="4.42" ry="4.44"/></g><g id="shape1592-8"><ellipse class="cls-1" cx="23.73" cy="8.71" rx="5.48" ry="5.51"/></g><g id="shape1593-10"><ellipse class="cls-1" cx="9.04" cy="29" rx="4.42" ry="4.44"/></g><g id="shape1594-12"><path class="cls-2" d="M33.5,25.16l-24.59,2,.23,2.87L33.5,28,25.43,41.51,27.85,43,36.16,29.1,46,46.42,48.49,45,37.42,25.56l-1.09.64.89-.67L24.69,7.64,22.4,9.31Z"/></g><g id="group1595-14"><g id="shape1596-15"><path class="cls-2" d="M56.69,2.44A2.43,2.43,0,0,0,54.27,0H41.64a1.2,1.2,0,0,0-1.2,1.2h0V5.91a1.2,1.2,0,0,0,1.2,1.2h7.81v7.67A1.27,1.27,0,0,0,50.68,16h4.65a1.26,1.26,0,0,0,1.23-1.24V2.44Z"/></g><g id="shape1597-17"><path class="cls-2" d="M15.05,49.62H7.11V42a1.26,1.26,0,0,0-1.23-1.24H1.23A1.26,1.26,0,0,0,0,42V54.3a2.43,2.43,0,0,0,2.43,2.4H15.05a1.2,1.2,0,0,0,1.2-1.2h0V50.83a1.2,1.2,0,0,0-1.19-1.21Z"/></g></g><g id="shape1598-19"><path class="cls-3" d="M36.32,20a6.68,6.68,0,1,1-6.64,6.68v-.17A6.66,6.66,0,0,1,36.32,20ZM18.38,8.71A5.52,5.52,0,1,0,23.92,3.2h-.16A5.5,5.5,0,0,0,18.38,8.71ZM4.62,29A4.42,4.42,0,1,0,9,24.52,4.43,4.43,0,0,0,4.62,29ZM22.5,42.48A4.46,4.46,0,1,0,27,38h0a4.44,4.44,0,0,0-4.45,4.41Zm19.67,3.57a5.15,5.15,0,1,0,5.18-5.14h0a5.1,5.1,0,0,0-5.15,5Z"/></g></g></svg>