<svg id="Layer_1" data-name="Layer 1" xmlns="http://www.w3.org/2000/svg" width="51.02" height="56.69" viewBox="0 0 51.02 56.69"><defs><style>.cls-1,.cls-2{fill:#2074bb;}.cls-1,.cls-4,.cls-5,.cls-6,.cls-7{fill-rule:evenodd;}.cls-3{fill:#fff;}.cls-4{fill:#c0dcef;}.cls-5{fill:#69abdb;}.cls-6{fill:#3b8fcd;}.cls-7{fill:#9bc7e6;}</style></defs><g id="group1570-1"><g id="group1571-2"><g id="shape1572-3"><path class="cls-1" d="M25.52,54a1.14,1.14,0,0,1-.51-.13L3.25,41.54a1,1,0,0,1-.51-.86V16a1,1,0,0,1,.51-.86L25,2.82a1,1,0,0,1,1,0L47.79,15.15a1,1,0,0,1,.51.86V40.68a1,1,0,0,1-.51.86L26,53.87a1,1,0,0,1-.51.13ZM4.77,40.1,25.52,51.86,46.27,40.1V16.59L25.52,4.84,4.77,16.59Z"/></g><g id="shape1573-5"><ellipse class="cls-2" cx="25.52" cy="3.69" rx="3.76" ry="3.69"/></g><g id="shape1574-7"><ellipse class="cls-2" cx="3.76" cy="53.01" rx="3.76" ry="3.69"/></g><g id="shape1575-9"><ellipse class="cls-2" cx="47.27" cy="16.01" rx="3.76" ry="3.69"/></g><g id="shape1576-11"><ellipse class="cls-2" cx="47.27" cy="40.68" rx="3.76" ry="3.69"/></g><g id="shape1577-13"><ellipse class="cls-2" cx="3.76" cy="53.01" rx="3.76" ry="3.69"/></g><g id="shape1578-15"><ellipse class="cls-2" cx="25.53" cy="53.01" rx="3.76" ry="3.69"/></g><g id="shape1579-17"><ellipse class="cls-3" cx="25.51" cy="28.35" rx="12.91" ry="12.67"/></g><g id="shape1580-19"><path class="cls-1" d="M25.51,42a13.66,13.66,0,1,1,0-27.32,13.66,13.66,0,1,1,0,27.32Zm0-25.33a11.67,11.67,0,1,0,11.9,11.67A11.8,11.8,0,0,0,25.51,16.67Z"/></g><g id="shape1581-21"><path class="cls-1" d="M14.43,22.85a1,1,0,0,1-.5-.13L3.26,16.89a1,1,0,0,1-.39-1.36,1,1,0,0,1,1.38-.38L14.93,21a1,1,0,0,1,.39,1.35,1,1,0,0,1-.89.52Zm11.09-6.17a1,1,0,0,1-1-1h0v-12a1,1,0,0,1,2,0v12a1,1,0,0,1-1,1Zm11.3,6a1,1,0,0,1-1-1,1,1,0,0,1,.52-.87L46.8,15.14a1,1,0,0,1,1.38.39,1,1,0,0,1-.4,1.35h0L37.31,22.56a1,1,0,0,1-.49.12Zm10.47,19a1.1,1.1,0,0,1-.56-.16L36.45,35a1,1,0,0,1-.29-1.38,1,1,0,0,1,1.39-.29l10.29,6.55a1,1,0,0,1,.3,1.38,1,1,0,0,1-.86.45ZM25.52,54a1,1,0,0,1-1-1h0V41.36a1,1,0,0,1,2,0V53a1,1,0,0,1-1,1ZM3.76,41.67a1,1,0,0,1-.58-1.82l10.14-6.8a1,1,0,0,1,1.41.22,1,1,0,0,1-.22,1.39l0,0L4.33,41.5a1.06,1.06,0,0,1-.58.17ZM25.51,29.34a1,1,0,1,1,0-2h8.83a1,1,0,1,1,0,2Z"/></g><g id="shape1582-23"><ellipse class="cls-2" cx="25.5" cy="28.35" rx="1.51" ry="1.48"/></g><g id="shape1583-25"><path class="cls-4" d="M16.93,28.83a8.44,8.44,0,0,0,2.5,5.22l2.32-2.27a5.41,5.41,0,0,1-1.62-3Z"/></g><g id="shape1584-27"><path class="cls-5" d="M25,19.61a8.63,8.63,0,0,0-5.61,2.47l2.15,2.1A5.47,5.47,0,0,1,25,22.55Z"/></g><g id="shape1585-29"><path class="cls-6" d="M31.64,22.08A8.59,8.59,0,0,0,26,19.61v2.94a5.44,5.44,0,0,1,3.46,1.63Z"/></g><g id="shape1586-31"><path class="cls-7" d="M18.75,22.83a8.26,8.26,0,0,0-1.84,5h3.14A5.21,5.21,0,0,1,20.93,25Z"/></g><g id="shape1587-33"><path class="cls-1" d="M33.94,26.22a8.41,8.41,0,0,0-1.63-3.39L30.13,25a5.36,5.36,0,0,1,.61,1.25Z"/></g></g></g></svg>