<svg id="Layer_1" data-name="Layer 1" xmlns="http://www.w3.org/2000/svg" xmlns:xlink="http://www.w3.org/1999/xlink" width="56.69" height="43.25" viewBox="0 0 56.69 43.25"><defs><style>.cls-1{fill:#83b9f9;}.cls-1,.cls-2,.cls-3,.cls-4,.cls-5{fill-rule:evenodd;}.cls-2{fill:#1f56a3;}.cls-3{fill:#f2f2f2;}.cls-4{fill:url(#linear-gradient);}.cls-5,.cls-6{fill:#0078d4;}</style><linearGradient id="linear-gradient" x1="-294.45" y1="409.77" x2="-293.45" y2="409.77" gradientTransform="matrix(0, -19.37, -31.84, 0, 13087.73, -5660.24)" gradientUnits="userSpaceOnUse"><stop offset="0" stop-color="#32bedd"/><stop offset="0.18" stop-color="#32caea"/><stop offset="0.41" stop-color="#32d2f2"/><stop offset="0.78" stop-color="#32d4f5"/></linearGradient></defs><g id="group1534-1"><g id="group1535-2"><g id="shape1536-3"><path class="cls-1" d="M0,23.88H31.84V42.15a1.08,1.08,0,0,1-1.07,1.1H1.07A1.08,1.08,0,0,1,0,42.15Z"/></g><g id="shape1537-5"><path class="cls-2" d="M1.07,36.26h29.7a1.08,1.08,0,0,1,1.07,1.1v5.89H0V37.36A1.08,1.08,0,0,1,1.07,36.26Z"/></g><g id="shape1538-7"><path class="cls-3" d="M4.28,2.27a.54.54,0,0,0,.54.55H27a.55.55,0,0,0,.54-.55V.56A.54.54,0,0,0,27,0H4.82a.54.54,0,0,0-.53.55Z"/></g><g id="shape1539-9"><path class="cls-1" d="M12.41,14.35H44.28V32.62a1.08,1.08,0,0,1-1.07,1.1H13.48a1.08,1.08,0,0,1-1.07-1.1Z"/></g><g id="shape1540-11"><path class="cls-2" d="M13.48,7.39h29.7a1.08,1.08,0,0,1,1.07,1.1v5.86H12.44V8.49A1.09,1.09,0,0,1,13.48,7.39Z"/></g><g id="shape1541-13"><path class="cls-3" d="M16.69,11.76a.54.54,0,0,0,.54.55h22.2a.55.55,0,0,0,.54-.55V10.05a.54.54,0,0,0-.53-.55H17.23a.54.54,0,0,0-.53.55Z"/></g><g id="shape1542-15"><path class="cls-4" d="M24.85,23.88H56.69V42.15a1.08,1.08,0,0,1-1.07,1.1H25.92a1.08,1.08,0,0,1-1.07-1.1Z"/></g><g id="shape1543-19"><path class="cls-5" d="M25.92,16.88h29.7A1.09,1.09,0,0,1,56.69,18v5.89H24.85V18A1.09,1.09,0,0,1,25.92,16.88Z"/></g><g id="group1544-21"><g id="shape1545-22"><ellipse class="cls-6" cx="47.94" cy="32.37" rx="2.58" ry="2.65"/></g><g id="shape1546-24"><ellipse class="cls-6" cx="40.88" cy="32.37" rx="2.58" ry="2.65"/></g><g id="shape1547-26"><ellipse class="cls-6" cx="33.61" cy="32.37" rx="2.58" ry="2.65"/></g></g><g id="shape1548-28"><path class="cls-3" d="M29.13,21.25a.55.55,0,0,0,.54.56h22.2a.54.54,0,0,0,.54-.55V19.54a.54.54,0,0,0-.53-.55H29.67a.55.55,0,0,0-.53.56Z"/></g></g></g></svg>