<svg id="Layer_1" data-name="Layer 1" xmlns="http://www.w3.org/2000/svg" width="45.97" height="56.22" viewBox="0 0 45.97 56.22"><defs><style>.cls-1{fill:#5382a1;}.cls-1,.cls-3{fill-rule:evenodd;}.cls-2{fill:none;}.cls-3{fill:#e76f00;}</style></defs><g id="group1527-1"><g id="group1528-2"><g id="shape1529-3"><path class="cls-1" d="M18.42,43.48s-2.11,1.25,1.5,1.67a31.14,31.14,0,0,0,11.42-.5,19.56,19.56,0,0,0,3,1.51c-10.8,4.72-24.44-.27-16-2.71ZM17.1,37.33s-2.36,1.8,1.25,2.17a44,44,0,0,0,14.74-.73,6.49,6.49,0,0,0,2.26,1.45C22.3,44.07,7.76,40.49,17.1,37.33Z"/><path class="cls-2" d="M18.42,43.48s-2.11,1.25,1.5,1.67a31.14,31.14,0,0,0,11.42-.5,19.56,19.56,0,0,0,3,1.51c-10.8,4.72-24.44-.27-16-2.71M17.1,37.33s-2.36,1.8,1.25,2.17a44,44,0,0,0,14.74-.73,6.49,6.49,0,0,0,2.26,1.45c-13,3.85-27.59.27-18.25-2.89"/></g><g id="shape1530-6"><path class="cls-3" d="M28.22,26.88c2.66,3.13-.7,5.94-.7,5.94s6.76-3.55,3.65-8c-2.89-4.15-5.12-6.21,6.92-13.32,0,0-18.89,4.81-9.87,15.36Z"/><path class="cls-2" d="M28.22,26.88c2.66,3.13-.7,5.94-.7,5.94s6.76-3.55,3.65-8c-2.89-4.15-5.12-6.21,6.92-13.32,0,0-18.89,4.81-9.87,15.36"/></g><g id="shape1531-9"><path class="cls-1" d="M42.5,48s1.56,1.31-1.69,2.32c-6.2,1.92-25.94,2.5-31.42.07-2-.9,1.72-2.08,2.89-2.34a7.58,7.58,0,0,1,1.9-.21C12,46.29,0,51,8.11,52.28c22,3.62,40.13-1.63,34.42-4.26ZM19.43,31s-10,2.43-3.55,3.3a73.86,73.86,0,0,0,13.3-.14c4.14-.35,8.31-1.11,8.31-1.11A17,17,0,0,0,35,34.37C24.79,37.08,5.13,35.83,10.79,33A18.61,18.61,0,0,1,19.46,31Zm18,10.24c10.35-5.49,5.57-10.75,2.22-10a7.93,7.93,0,0,0-1.18.33,1.89,1.89,0,0,1,.88-.7c6.61-2.36,11.69,7-2.13,10.69a.8.8,0,0,0,.2-.28Z"/><path class="cls-2" d="M42.5,48s1.56,1.31-1.69,2.32c-6.2,1.92-25.94,2.5-31.42.07-2-.9,1.72-2.08,2.89-2.34a7.58,7.58,0,0,1,1.9-.21C12,46.29,0,51,8.11,52.28c22,3.62,40.13-1.63,34.42-4.26M19.43,31s-10,2.43-3.55,3.3a73.86,73.86,0,0,0,13.3-.14c4.14-.35,8.31-1.11,8.31-1.11A17,17,0,0,0,35,34.37C24.79,37.08,5.13,35.83,10.79,33A18.61,18.61,0,0,1,19.46,31M37.41,41.19c10.35-5.49,5.57-10.75,2.22-10a7.93,7.93,0,0,0-1.18.33,1.89,1.89,0,0,1,.88-.7c6.61-2.36,11.69,7-2.13,10.69a.8.8,0,0,0,.2-.28"/></g><g id="shape1532-12"><path class="cls-3" d="M31.17,0s5.74,5.89-5.42,14.83c-8.95,7.23-2,11.32,0,16-5.23-4.81-9.07-9-6.49-13C23,12.09,33.5,9.29,31.19,0Z"/><path class="cls-2" d="M31.17,0s5.74,5.89-5.42,14.83c-8.95,7.23-2,11.32,0,16-5.23-4.81-9.07-9-6.49-13C23,12.09,33.5,9.29,31.19,0"/></g><g id="shape1533-15"><path class="cls-1" d="M7.79,56c9.94.65,25.19-.36,25.55-5.15,0,0-.69,1.8-8.2,3.26A80,80,0,0,1,0,54.55S1.28,55.57,7.79,56Z"/></g></g></g></svg>