<svg id="Layer_1" data-name="Layer 1" xmlns="http://www.w3.org/2000/svg" width="56.69" height="51.03" viewBox="0 0 56.69 51.03"><defs><style>.cls-1{fill:#3e3e3e;}.cls-1,.cls-2,.cls-3,.cls-4{fill-rule:evenodd;}.cls-2{fill:#fff;fill-opacity:0.2;}.cls-3{fill:#b8d432;}.cls-4{fill:#fcd116;}</style></defs><g id="group1521-1"><g id="group1522-2"><g id="shape1523-3"><path class="cls-1" d="M54.17,30.16H2.52A2.49,2.49,0,0,0,0,32.63H0V48.56A2.49,2.49,0,0,0,2.52,51H54.17a2.5,2.5,0,0,0,2.52-2.47h0V32.63A2.5,2.5,0,0,0,54.17,30.16Z"/></g><g id="shape1524-5"><path class="cls-2" d="M44,30.16H2.52A2.49,2.49,0,0,0,0,32.63H0V48.56A2.49,2.49,0,0,0,2.52,51h9.7Z"/></g><g id="shape1525-7"><path class="cls-3" d="M48.76,34.36h3.4v3.33h-3.4Zm-6.81,0h3.4v3.33H42Zm-6.8,0h3.4v3.33h-3.4Z"/></g><g id="shape1526-9"><path class="cls-4" d="M39.57,11.57a11.79,11.79,0,0,0-23.58,0,11.61,11.61,0,0,0,9,11.21v13.8H19.28v5.56H25v4.44h5.67V22.78A11.6,11.6,0,0,0,39.57,11.57ZM27.78,17.62a6.13,6.13,0,0,1-6.18-6.05,6.18,6.18,0,0,1,12.36,0A6.13,6.13,0,0,1,27.78,17.62Z"/></g></g></g></svg>