<svg id="Layer_1" data-name="Layer 1" xmlns="http://www.w3.org/2000/svg" xmlns:xlink="http://www.w3.org/1999/xlink" width="57.8" height="58.41" viewBox="0 0 57.8 58.41"><defs><style>.cls-1,.cls-3,.cls-4{fill-rule:evenodd;}.cls-1{fill:url(#radial-gradient);}.cls-2{fill:#fff;}.cls-3{fill:url(#radial-gradient-2);}.cls-4{fill:#ff9300;fill-opacity:0.75;}</style><radialGradient id="radial-gradient" cx="-271.32" cy="419.81" r="0.73" gradientTransform="matrix(57.8, 0, 0, -58.41, 15711.62, 24550.49)" gradientUnits="userSpaceOnUse"><stop offset="0.18" stop-color="#5ea0ef"/><stop offset="0.56" stop-color="#5c9fee"/><stop offset="0.69" stop-color="#559ced"/><stop offset="0.78" stop-color="#4a97e9"/><stop offset="0.86" stop-color="#3990e4"/><stop offset="0.93" stop-color="#2387de"/><stop offset="0.99" stop-color="#087bd6"/><stop offset="1" stop-color="#0078d4"/></radialGradient><radialGradient id="radial-gradient-2" cx="-268.85" cy="419.94" r="1.4" gradientTransform="matrix(33.81, 0, 0, -54.81, 9103, 23018.09)" gradientUnits="userSpaceOnUse"><stop offset="0.27" stop-color="#ffd70f"/><stop offset="0.49" stop-color="#ffcb12"/><stop offset="0.88" stop-color="#feac19"/><stop offset="1" stop-color="#fea11b"/></radialGradient></defs><g id="group1513-1"><g id="group1514-2"><g id="shape1515-3"><path class="cls-1" d="M28.9,0A29,29,0,0,0,0,29.2,29.06,29.06,0,0,0,28.9,58.41a29,29,0,0,0,28.9-29.2h0A29.09,29.09,0,0,0,28.9,0Zm0,54.42a25.22,25.22,0,1,1,25-25.23h0A25.08,25.08,0,0,1,28.9,54.42Z"/></g><g id="shape1516-7"><ellipse class="cls-2" cx="28.9" cy="29.2" rx="24.96" ry="25.22"/></g><g id="shape1517-9"><path class="cls-3" d="M44,23.46a6.37,6.37,0,0,0,0-8.89L33.28,3.71a6.17,6.17,0,0,0-8.77,0L13.8,14.57a6.37,6.37,0,0,0,0,8.89l8.91,9.18a1.74,1.74,0,0,1,.51,1.24V50.64a2.19,2.19,0,0,0,.61,1.51l4.08,4.13a1.38,1.38,0,0,0,2,0l3.95-4L36.14,50a.87.87,0,0,0,0-1.17L34.47,47.1a.94.94,0,0,1,0-1.27l1.67-1.68a.87.87,0,0,0,0-1.17L34.47,41.3a.94.94,0,0,1,0-1.27l1.67-1.69a.87.87,0,0,0,0-1.17L33.83,34.8v-.86ZM28.9,6.35a3.56,3.56,0,1,1-3.52,3.56A3.53,3.53,0,0,1,28.9,6.35Z"/></g><g id="shape1518-13"><path class="cls-4" d="M26.11,50.85a.79.79,0,0,0,1.11-.08.83.83,0,0,0,.18-.51V36.52a.82.82,0,0,0-.37-.69.75.75,0,0,0-1,.22.77.77,0,0,0-.12.47V50.26a.94.94,0,0,0,.24.58Z"/></g><g id="shape1519-15"><path class="cls-4" d="M20.33,19.31a1,1,0,0,0,1,1H37a1,1,0,0,0,.95-1v-.17a1,1,0,0,0-.95-1H21.28a1,1,0,0,0-1,1Z"/></g><g id="shape1520-17"><path class="cls-4" d="M20.33,22.71a1,1,0,0,0,1,1H37a1,1,0,0,0,.95-1v-.17a1,1,0,0,0-.95-1H21.28a1,1,0,0,0-1,1Z"/></g></g></g></svg>