<svg id="Layer_1" data-name="Layer 1" xmlns="http://www.w3.org/2000/svg" xmlns:xlink="http://www.w3.org/1999/xlink" width="56.69" height="53.87" viewBox="0 0 56.69 53.87"><defs><style>.cls-1,.cls-2,.cls-3{fill-rule:evenodd;}.cls-1{fill:url(#linear-gradient);}.cls-2{fill:url(#linear-gradient-2);}.cls-3{fill:#fff;}</style><linearGradient id="linear-gradient" x1="-285.45" y1="419.22" x2="-284.45" y2="419.22" gradientTransform="matrix(0, -39.54, -56.69, 0, 23793.69, -11247.9)" gradientUnits="userSpaceOnUse"><stop offset="0" stop-color="#0078d4"/><stop offset="0.16" stop-color="#1380da"/><stop offset="0.53" stop-color="#3c91e5"/><stop offset="0.82" stop-color="#559cec"/><stop offset="1" stop-color="#5ea0ef"/></linearGradient><linearGradient id="linear-gradient-2" x1="-266.89" y1="430.41" x2="-265.89" y2="430.41" gradientTransform="matrix(0.36, 33.27, 34.64, -0.34, -14797.93, 9047.55)" gradientUnits="userSpaceOnUse"><stop offset="0" stop-color="#32d4f5"/><stop offset="0.32" stop-color="#31d1f3"/><stop offset="0.53" stop-color="#2ec9eb"/><stop offset="0.7" stop-color="#29bade"/><stop offset="0.86" stop-color="#22a5cb"/><stop offset="1" stop-color="#198ab3"/></linearGradient></defs><g id="group1508-1"><g id="group1509-2"><g id="shape1510-3"><path class="cls-1" d="M56.69,27.2a12.61,12.61,0,0,0-11.06-12A15.92,15.92,0,0,0,29.15,0,16.65,16.65,0,0,0,13.32,10.52,15,15,0,0,0,0,24.94,15.31,15.31,0,0,0,16,39.52a10.75,10.75,0,0,0,1.39,0H43.17a2.51,2.51,0,0,0,.67,0A12.77,12.77,0,0,0,56.69,27.2Z"/></g><g id="shape1511-7"><path class="cls-2" d="M33.74,53.87H1.63C.6,53.87,0,52.26.57,51.4L11.63,35.51a1.09,1.09,0,0,0,.23-.72V24.28a.65.65,0,0,0-.63-.62h-.6a1.25,1.25,0,0,1-1.27-1.24h0v-.55a1.25,1.25,0,0,1,1.26-1.25h14.1A1.26,1.26,0,0,1,26,21.85v.55a1.25,1.25,0,0,1-1.26,1.25h-.6a.63.63,0,0,0-.63.63h0V34.82a1.18,1.18,0,0,0,.24.72L34.78,51.4C35.34,52.22,34.74,53.87,33.74,53.87Z"/></g><g id="shape1512-11"><path class="cls-3" d="M19.32,49.6l8.4-12.09a3,3,0,0,0,.66-1.71V30.94a1,1,0,0,1,1-1h4.81a1,1,0,0,1,1,1v5.19a2,2,0,0,0,.37,1.15L44.07,49.6a.75.75,0,0,1-.26,1,.68.68,0,0,1-.34.11H20.16a.73.73,0,0,1-.84-1.15Z"/></g></g></g></svg>