<svg id="Layer_1" data-name="Layer 1" xmlns="http://www.w3.org/2000/svg" width="39.69" height="56.69" viewBox="0 0 39.69 56.69"><defs><style>.cls-1{fill:#59b4d9;}.cls-1,.cls-2,.cls-5{fill-rule:evenodd;}.cls-2{fill:#fff;fill-opacity:0.2;}.cls-3,.cls-5{fill:#dd5900;}.cls-4{fill:#fcd116;fill-opacity:0.7;}</style></defs><g id="group1501-1"><g id="group1502-2"><g id="shape1503-3"><path class="cls-1" d="M31,11A11,11,0,0,1,8.92,11,11.17,11.17,0,0,1,20,0,11,11,0,0,1,31,11ZM28,25.51,20,36.77l-8-11.26H0V53.86H39.69V25.51Z"/></g><g id="shape1504-5"><path class="cls-2" d="M9,11a11.11,11.11,0,0,0,10.72,11L22.54.43A7.28,7.28,0,0,0,20,0,11,11,0,0,0,9,11Zm2.9,14.47H0V53.86H15.78l2.47-19.37Z"/></g><g id="shape1505-7"><circle class="cls-3" cx="30.15" cy="37.89" r="6.84"/></g><g id="shape1506-9"><circle class="cls-4" cx="30.15" cy="37.89" r="5.13"/></g><g id="shape1507-11"><path class="cls-5" d="M30.15,43A7.64,7.64,0,0,1,25,41l-.81,15.6,5.89-5.89,6,6,.08-.86L35.31,41A7.58,7.58,0,0,1,30.15,43Z"/></g></g></g></svg>