<svg id="Layer_1" data-name="Layer 1" xmlns="http://www.w3.org/2000/svg" xmlns:xlink="http://www.w3.org/1999/xlink" width="56.69" height="56.7" viewBox="0 0 56.69 56.7"><defs><style>.cls-1,.cls-2,.cls-3{fill-rule:evenodd;}.cls-1{fill:url(#linear-gradient);}.cls-2{fill:#b4ec36;}.cls-3{fill:#fff;}.cls-4{fill:#5ea0ef;}</style><linearGradient id="linear-gradient" x1="-282.87" y1="420.22" x2="-281.87" y2="420.22" gradientTransform="matrix(0, -56.7, -56.69, 0, 23852.33, -15981.25)" gradientUnits="userSpaceOnUse"><stop offset="0" stop-color="#5e9624"/><stop offset="0.02" stop-color="#5f9724"/><stop offset="1" stop-color="#76bc2d"/></linearGradient></defs><g id="group1495-1"><g id="group1496-2"><g id="shape1497-3"><path class="cls-1" d="M.57,27,27,.56a1.93,1.93,0,0,1,2.72,0h0L56.13,27a1.93,1.93,0,0,1,0,2.72h0L29.68,56.14a1.88,1.88,0,0,1-2.67,0L.56,29.7A1.9,1.9,0,0,1,.57,27Z"/></g><g id="shape1498-7"><path class="cls-2" d="M35.27,12.64,28.59,6a.32.32,0,0,0-.47,0h0l-6.7,6.68a.34.34,0,0,0,0,.48.32.32,0,0,0,.23.09h3.93a.34.34,0,0,1,.34.34h0v6.32a.35.35,0,0,0,.34.34h4.15a.34.34,0,0,0,.34-.34h0V13.55a.34.34,0,0,1,.34-.34H35a.36.36,0,0,0,.35-.34.35.35,0,0,0-.1-.24Zm-22.59,8.2L6,27.52A.34.34,0,0,0,6,28l6.68,6.68a.34.34,0,0,0,.48,0,.28.28,0,0,0,.1-.24V30.51a.34.34,0,0,1,.34-.34h6.33a.34.34,0,0,0,.34-.34h0V25.68a.34.34,0,0,0-.34-.34H13.6a.35.35,0,0,1-.34-.34h0V21.08a.34.34,0,0,0-.34-.34.29.29,0,0,0-.23.1ZM44.36,34.68,51,28a.34.34,0,0,0,0-.49l-6.66-6.67a.34.34,0,0,0-.48,0,.37.37,0,0,0-.1.24V25a.34.34,0,0,1-.34.34H37.11a.34.34,0,0,0-.34.34h0v4.15a.35.35,0,0,0,.34.34h6.32a.34.34,0,0,1,.34.34h0v3.93a.35.35,0,0,0,.34.34.34.34,0,0,0,.25-.11Z"/></g><g id="shape1499-9"><path class="cls-3" d="M37.15,28.32A8.78,8.78,0,1,0,26,36.73v3a5.41,5.41,0,1,0,4.94,0V36.67A8.75,8.75,0,0,0,37.15,28.32Z"/></g><g id="shape1500-11"><circle class="cls-4" cx="28.37" cy="28.32" r="5.1"/></g></g></g></svg>