<svg id="Layer_1" data-name="Layer 1" xmlns="http://www.w3.org/2000/svg" width="56.69" height="56.69" viewBox="0 0 56.69 56.69"><defs><style>.cls-1{fill:#57a300;}.cls-1,.cls-2,.cls-3{fill-rule:evenodd;}.cls-2,.cls-3{fill:#fff;}.cls-2{fill-opacity:0.15;}</style></defs><g id="group1490-1"><g id="group1491-2"><g id="shape1492-3"><path class="cls-1" d="M28.29,56.69a5.3,5.3,0,0,1-3.73-1.59l-23-23a5.22,5.22,0,0,1,0-7.48l23-23a5.19,5.19,0,0,1,7.46,0L55.11,24.71a5.16,5.16,0,0,1,1.58,3.75,5.33,5.33,0,0,1-1.58,3.74L32,55.1A5.3,5.3,0,0,1,28.29,56.69Z"/></g><g id="shape1493-5"><path class="cls-2" d="M32,13.15a5.17,5.17,0,0,0-7.46,0l-23,23a5.22,5.22,0,0,0,0,7.48l13,13,24.55-36.4Z"/></g><g id="shape1494-7"><path class="cls-3" d="M28.29,5l-7.47,7.49h5.32V23.35h4.41V12.47h5.21Zm0,46.72,7.47-7.48H30.44V33.56H26V44.22h-5.2ZM31.8,28.34l7.46,7.49V30.61H49.34V26.07H39.26V20.86Zm-6.91,0-7.47-7.48v5.21H7.24v4.54H17.42v5.22Z"/></g></g></g></svg>