<svg id="Layer_1" data-name="Layer 1" xmlns="http://www.w3.org/2000/svg" xmlns:xlink="http://www.w3.org/1999/xlink" width="56.7" height="56.69" viewBox="0 0 56.7 56.69"><defs><style>.cls-1,.cls-2,.cls-3{fill-rule:evenodd;}.cls-1{fill:url(#linear-gradient);}.cls-2{fill:url(#linear-gradient-2);}.cls-3{fill:#fff;}</style><linearGradient id="linear-gradient" x1="-266.42" y1="432.24" x2="-265.42" y2="432.24" gradientTransform="matrix(0, 31.47, 31.4, 0, -13556.75, 8409.42)" gradientUnits="userSpaceOnUse"><stop offset="0" stop-color="#5ea0ef"/><stop offset="0.18" stop-color="#589eed"/><stop offset="0.41" stop-color="#4897e9"/><stop offset="0.66" stop-color="#2e8ce1"/><stop offset="0.94" stop-color="#0a7cd7"/><stop offset="1" stop-color="#0078d4"/></linearGradient><linearGradient id="linear-gradient-2" x1="-285.33" y1="418.42" x2="-284.33" y2="418.42" gradientTransform="matrix(0, -39.97, -39.92, 0, 16741.93, -11365.31)" gradientUnits="userSpaceOnUse"><stop offset="0" stop-color="#198ab3"/><stop offset="0.24" stop-color="#22a5cb"/><stop offset="0.53" stop-color="#2bbfe2"/><stop offset="0.79" stop-color="#30cff0"/><stop offset="1" stop-color="#32d4f5"/></linearGradient></defs><g id="group1485-1"><g id="group1486-2"><g id="shape1487-3"><path class="cls-1" d="M16.91,42.08H31.4V55a1.66,1.66,0,0,1-1.68,1.67H16.91ZM2,56.53H14.49V42.08H0V54.52a2,2,0,0,0,2,2ZM0,39.8H14.49V25.22H1.68A1.68,1.68,0,0,0,0,26.89H0Z"/></g><g id="shape1488-7"><path class="cls-2" d="M36.73,0a19.75,19.75,0,0,1,20,19.5c0,.19,0,.38,0,.57A19.72,19.72,0,0,1,37.14,40H16.77V19.91A19.74,19.74,0,0,1,36.32,0Z"/></g><g id="shape1489-11"><path class="cls-3" d="M49,9a3.35,3.35,0,0,0-3.36,3.34h0a3.4,3.4,0,0,0,.74,2.07l-5.6,10h-.44a3.38,3.38,0,0,0-1.77.54l-4.33-4.42a3.22,3.22,0,0,0,.27-1.3,3.44,3.44,0,0,0-6.88,0h0a3.34,3.34,0,0,0,.44,1.6L24.15,26a4.92,4.92,0,0,0-.94,0,3.35,3.35,0,1,0,3.36,3.35,3.23,3.23,0,0,0-.44-1.57l4.13-5.19a3,3,0,0,0,.84,0,3.55,3.55,0,0,0,1.2-.27l4.73,5q0,.3,0,.6a3.36,3.36,0,0,0,6.71,0,3.64,3.64,0,0,0-.67-2l5.6-10H49a3.35,3.35,0,0,0,3.35-3.35h0A3.34,3.34,0,0,0,49.15,9Z"/></g></g></g></svg>