<svg id="Layer_1" data-name="Layer 1" xmlns="http://www.w3.org/2000/svg" xmlns:xlink="http://www.w3.org/1999/xlink" width="56.7" height="56.7" viewBox="0 0 56.7 56.7"><defs><style>.cls-1,.cls-2,.cls-3{fill-rule:evenodd;}.cls-1{fill:url(#linear-gradient);}.cls-2{fill:url(#linear-gradient-2);}.cls-3{fill:#fff;}</style><linearGradient id="linear-gradient" x1="-287.57" y1="416.8" x2="-286.57" y2="416.8" gradientTransform="matrix(0, -31.4, -31.4, 0, 13103.08, -8973.12)" gradientUnits="userSpaceOnUse"><stop offset="0" stop-color="#1988d9"/><stop offset="0.9" stop-color="#54aef0"/></linearGradient><linearGradient id="linear-gradient-2" x1="-285.27" y1="418.45" x2="-284.27" y2="418.45" gradientTransform="matrix(0, -40.09, -39.92, 0, 16743.09, -11397.17)" gradientUnits="userSpaceOnUse"><stop offset="0" stop-color="#198ab3"/><stop offset="0.01" stop-color="#198bb4"/><stop offset="0.44" stop-color="#27b2d7"/><stop offset="0.79" stop-color="#2fcbed"/><stop offset="1" stop-color="#32d4f5"/></linearGradient></defs><g id="group1480-1"><g id="group1481-2"><g id="shape1482-3"><path class="cls-1" d="M16.91,42.21H31.4V56.7H16.91ZM2,56.7H14.49V42.21H0V54.69A2,2,0,0,0,2,56.7ZM0,39.93H14.49V25.3H0Z"/></g><g id="shape1483-7"><path class="cls-2" d="M36.73,0a19.77,19.77,0,0,1,20,19.55c0,.2,0,.39,0,.58a19.76,19.76,0,0,1-19.55,20H16.77V20A19.77,19.77,0,0,1,36.33,0Z"/></g><g id="shape1484-11"><path class="cls-3" d="M23.62,17.11h4.56V30.8H23.62Zm9.12,4.57h4.57V30.8H32.74Zm9.13-9.13h4.56V30.8H41.87Z"/></g></g></g></svg>