<svg id="Layer_1" data-name="Layer 1" xmlns="http://www.w3.org/2000/svg" xmlns:xlink="http://www.w3.org/1999/xlink" width="56.69" height="42.59" viewBox="0 0 56.69 42.59"><defs><style>.cls-1{fill:#949494;}.cls-1,.cls-2,.cls-3,.cls-4,.cls-5{fill-rule:evenodd;}.cls-2{fill:#005ba1;}.cls-3{fill:#0078d4;}.cls-4{fill:url(#linear-gradient);}.cls-5{fill:url(#linear-gradient-2);}</style><linearGradient id="linear-gradient" x1="-240.87" y1="442.53" x2="-239.87" y2="442.53" gradientTransform="matrix(0, 9.47, 9.8, 0, -4321.98, 2307.3)" gradientUnits="userSpaceOnUse"><stop offset="0" stop-color="#76bc2d"/><stop offset="1" stop-color="#5e9624"/></linearGradient><linearGradient id="linear-gradient-2" x1="-240.87" y1="442.53" x2="-239.87" y2="442.53" gradientTransform="matrix(0, 9.47, 9.8, 0, -4295.97, 2307.37)" xlink:href="#linear-gradient"/></defs><g id="group1467-1"><g id="group1468-2"><g id="shape1469-3"><path class="cls-1" d="M9,42.56a8.51,8.51,0,0,1-5.1-1.22A5.37,5.37,0,0,1,2.37,37V25.59c0-1.87-.77-2.87-2.37-2.87V19.88c1.6,0,2.37-1,2.37-3V5.74a5.66,5.66,0,0,1,1.5-4.47A7.88,7.88,0,0,1,9,0V2.91c-1.7,0-2.63.87-2.63,2.74v11c0,2.51-.77,4.06-2.47,4.7A4.53,4.53,0,0,1,6.34,26V36.86a3.92,3.92,0,0,0,.56,2.19,2.5,2.5,0,0,0,1.94.64v2.87Z"/></g><g id="shape1470-5"><path class="cls-1" d="M47.72,0a8.58,8.58,0,0,1,5.1,1.23,5.35,5.35,0,0,1,1.5,4.38V17c0,1.87.77,2.86,2.37,2.86v2.84c-1.6,0-2.37,1-2.37,3v11a5.67,5.67,0,0,1-1.5,4.51,7.78,7.78,0,0,1-5.1,1.32V39.69c1.7,0,2.63-.86,2.63-2.73V26c0-2.51.77-4.05,2.47-4.7a4.52,4.52,0,0,1-2.47-4.7V5.74a3.88,3.88,0,0,0-.56-2.19,2.54,2.54,0,0,0-1.94-.64Z"/></g><g id="shape1471-7"><path class="cls-2" d="M29.72,19.21V15.12h-3v4.09a.59.59,0,0,1-.6.58H15A1.18,1.18,0,0,0,13.81,21v5.32h3V23.34a.58.58,0,0,1,.56-.58H39.19a.59.59,0,0,1,.6.58v3h3V21a1.18,1.18,0,0,0-1.17-1.16H30.32a.59.59,0,0,1-.6-.58Z"/></g><g id="shape1472-9"><path class="cls-3" d="M33.71,2.65H22.51a1.25,1.25,0,0,0-1.27,1.2V14.67a1.22,1.22,0,0,0,1.24,1.19H33.71A1.23,1.23,0,0,0,35,14.73V3.85a1.24,1.24,0,0,0-1.29-1.2ZM32.65,12.87a.81.81,0,0,1-.83.77H24.37a.82.82,0,0,1-.83-.77V5.68a.83.83,0,0,1,.84-.81h7.3a.82.82,0,0,1,.84.8h0Z"/></g><g id="shape1473-11"><path class="cls-4" d="M10.27,34.9a.88.88,0,0,0,.9.86h8a.88.88,0,0,0,.9-.87V27.17a.88.88,0,0,0-.9-.87h-8a.88.88,0,0,0-.9.86Z"/></g><g id="shape1474-15"><path class="cls-5" d="M36.28,35a.89.89,0,0,0,.9.87h8a.88.88,0,0,0,.9-.87V27.23a.88.88,0,0,0-.9-.87h-8a.89.89,0,0,0-.9.87Z"/></g></g></g></svg>