<svg id="Layer_1" data-name="Layer 1" xmlns="http://www.w3.org/2000/svg" xmlns:xlink="http://www.w3.org/1999/xlink" width="56.69" height="56.69" viewBox="0 0 56.69 56.69"><defs><style>.cls-1{fill:#949494;}.cls-1,.cls-2,.cls-3,.cls-4{fill-rule:evenodd;}.cls-2{fill:url(#linear-gradient);}.cls-3{fill:url(#linear-gradient-2);}.cls-4{fill:url(#linear-gradient-3);}</style><linearGradient id="linear-gradient" x1="-264.45" y1="433.61" x2="-263.45" y2="433.61" gradientTransform="matrix(0, 26.2, 26.24, 0, -11362.84, 6957.88)" gradientUnits="userSpaceOnUse"><stop offset="0" stop-color="#008bf1"/><stop offset="1" stop-color="#004dae"/></linearGradient><linearGradient id="linear-gradient-2" x1="-259.55" y1="437.19" x2="-258.55" y2="437.19" gradientTransform="matrix(0, 18.86, 18.85, 0, -8227.78, 4895.05)" gradientUnits="userSpaceOnUse"><stop offset="0" stop-color="#76bc2d"/><stop offset="1" stop-color="#5e9624"/></linearGradient><linearGradient id="linear-gradient-3" x1="-259.51" y1="437.19" x2="-258.51" y2="437.19" gradientTransform="matrix(0, 18.82, 18.85, 0, -8193.84, 4917.93)" xlink:href="#linear-gradient-2"/></defs><g id="group1475-1"><g id="shape1476-2"><path class="cls-1" d="M41.07,45.23V41.51H15.23V18.86H11.51V45.23Z"/></g><g id="shape1477-4"><path class="cls-2" d="M11.76,31.05.56,42.32a1.94,1.94,0,0,0,0,2.73l11.2,11.09a1.94,1.94,0,0,0,2.72,0l11.2-11.2a2,2,0,0,0,0-2.73L14.48,31.05A1.94,1.94,0,0,0,11.76,31.05Z"/></g><g id="shape1478-8"><path class="cls-3" d="M22.77,16.94v-15A1.91,1.91,0,0,0,21,0H5.83A1.91,1.91,0,0,0,3.92,1.92h0v15a1.91,1.91,0,0,0,1.91,1.92H21A1.91,1.91,0,0,0,22.77,16.94Z"/></g><g id="shape1479-12"><path class="cls-4" d="M37.84,35.87v15a1.92,1.92,0,0,0,1.9,1.92h15a1.93,1.93,0,0,0,1.91-1.92h0v-15A1.92,1.92,0,0,0,54.78,34h-15A1.9,1.9,0,0,0,37.84,35.87Z"/></g></g></svg>