<svg id="Layer_1" data-name="Layer 1" xmlns="http://www.w3.org/2000/svg" xmlns:xlink="http://www.w3.org/1999/xlink" width="56.51" height="56.91" viewBox="0 0 56.51 56.91"><defs><style>.cls-1{fill:#f2f2f2;}.cls-1,.cls-2,.cls-3,.cls-4{fill-rule:evenodd;}.cls-2{fill:#0078d4;}.cls-3{fill:url(#linear-gradient);}.cls-4{fill:#fff;}</style><linearGradient id="linear-gradient" x1="-267.09" y1="431.51" x2="-266.09" y2="431.51" gradientTransform="matrix(0.36, 34.96, 35.78, -0.35, -15328.23, 9509.65)" gradientUnits="userSpaceOnUse"><stop offset="0" stop-color="#32d4f5"/><stop offset="0.32" stop-color="#31d1f3"/><stop offset="0.53" stop-color="#2ec9eb"/><stop offset="0.7" stop-color="#29bade"/><stop offset="0.86" stop-color="#22a5cb"/><stop offset="1" stop-color="#198ab3"/></linearGradient></defs><g id="group1443-1"><g id="shape1444-2"><path class="cls-1" d="M48.54,37.39A20.89,20.89,0,0,1,23,4.33l.23-.16a20.89,20.89,0,0,1,25.3,33.22Z"/></g><g id="shape1445-4"><path class="cls-2" d="M52.4,8.38A20.79,20.79,0,0,0,23.24,4.17L23,4.34A20.89,20.89,0,0,0,48.54,37.39,21.08,21.08,0,0,0,52.4,8.38ZM17.68,19.51a18.22,18.22,0,0,1,2-7.08h5a35.91,35.91,0,0,0-1,7.08Zm10-7.08h6.92v7.08H26.47a30.76,30.76,0,0,1,1.06-7.08Zm9.59,0h6.92a30.77,30.77,0,0,1,1.07,7.08h-8Zm-2.67,9.76V29.3H27.53a31.66,31.66,0,0,1-1.06-7.11Zm2.67,0h8a32.25,32.25,0,0,1-1.07,7.11H37.12Zm10.68,0H54a19.2,19.2,0,0,1-2,7.11H46.81a34.13,34.13,0,0,0,1-7.11Zm0-2.68a33.76,33.76,0,0,0-1-7.08H52a17.85,17.85,0,0,1,2,7.08Zm2.37-9.79H46a20.79,20.79,0,0,0-2.93-5.55,18.32,18.32,0,0,1,7.09,5.55Zm-7.06,0h-6V3a10.91,10.91,0,0,1,5.86,6.68ZM34.59,3V9.72H28.47a10.89,10.89,0,0,1,6-6.82Zm-9.92,3.4a17.4,17.4,0,0,1,3.66-2.13,20,20,0,0,0-2.76,5.41H21.41A16.88,16.88,0,0,1,24.67,6.44Zm-7,15.75h6.09a36.32,36.32,0,0,0,1,7.11h-5A17.54,17.54,0,0,1,17.68,22.19Zm3.76,10h4.13a20.4,20.4,0,0,0,2.93,5.58,18.17,18.17,0,0,1-7.06-5.74Zm7,0h6V38.9a11,11,0,0,1-6-6.92Zm8.65,6.69V32.21h6a11,11,0,0,1-6,6.59Zm9.79-3.78a17.17,17.17,0,0,1-3.86,2.31,19.25,19.25,0,0,0,3-5.59h4.16A19.46,19.46,0,0,1,46.91,35.12Z"/></g><g id="shape1446-6"><path class="cls-3" d="M34.45,56.91H1.29c-1,0-1.66-1.71-1.06-2.58L11.65,37.62a1.14,1.14,0,0,0,.23-.73V25.83a.66.66,0,0,0-.66-.67h-.6a1.26,1.26,0,0,1-1.3-1.23v-.68a1.31,1.31,0,0,1,1.3-1.3H25.17a1.33,1.33,0,0,1,1.29,1.3v.6a1.3,1.3,0,0,1-1.29,1.24h-.64a.63.63,0,0,0-.63.64V36.85a1.27,1.27,0,0,0,.23.74L35.55,54.3C36.15,55.17,35.52,56.91,34.45,56.91Z"/></g><g id="shape1447-10"><path class="cls-4" d="M5.79,52.5l8.22-12a2.85,2.85,0,0,0,.54-1.71V33.92a1,1,0,0,1,1-1h4.65a1,1,0,0,1,1,1h0V39.1a2,2,0,0,0,.33,1.13L29.89,52.5a.73.73,0,0,1-.21,1,.69.69,0,0,1-.39.12H6.39a.7.7,0,0,1-.6-1.14Z"/></g></g></svg>