<svg id="Layer_1" data-name="Layer 1" xmlns="http://www.w3.org/2000/svg" width="56.7" height="56.69" viewBox="0 0 56.7 56.69"><defs><style>.cls-1{fill:#59b4d9;}.cls-1,.cls-2,.cls-3{fill-rule:evenodd;}.cls-2{fill:#e5e5e5;}.cls-3{fill:#a0a1a2;}</style></defs><g id="group1462-1"><g id="group1463-2"><g id="shape1464-3"><path class="cls-1" d="M27.62,32.28V22.83H28c1.48,0,2.08-1,2.08-3.14A2.45,2.45,0,0,0,28,16.91a2.38,2.38,0,0,0-.84,0H9.7a2.45,2.45,0,0,0-2.52,2.37v1.13A2.53,2.53,0,0,0,9.8,22.83h.31v9.45L0,51.12l3.5,5.57H32.66l4.13-5.57ZM15.75,43.43,11.34,50.8h-6L15.75,32.28V22.83h6v9.45l6.3,11.15Z"/></g><g id="shape1465-5"><path class="cls-2" d="M15.71,43.43,11.34,50.8h-6L15.9,32.28V22.87h5.86v9.41L28,43.43Z"/></g><g id="shape1466-7"><path class="cls-3" d="M37,0h-.82A21.58,21.58,0,0,0,17.74,12.6l-.54,1.54h3.15l.54-1.54h4.53l-.22,1.54h3.15V12.6h6.3v6.3H32.76a10.59,10.59,0,0,1,0,1.38,9.55,9.55,0,0,1-.16,1.77h2v6.29H31.5v3.15h3.15v6.3h-1l1.67,3.15H37A20.26,20.26,0,0,0,56.7,20.47,20.5,20.5,0,0,0,37,0ZM22.55,9.45a18.59,18.59,0,0,1,7.56-6.3,15.2,15.2,0,0,0-4,6.3Zm12.1,0H29a11.64,11.64,0,0,1,5.64-6.84ZM54.27,18.9H48.73a18.44,18.44,0,0,0-.92-6.3h4.41a15.15,15.15,0,0,1,2.08,6.3ZM51.12,9.45H47a15.21,15.21,0,0,0-3.56-6.11,19.64,19.64,0,0,1,7.62,6.11ZM37.8,2.61a10.27,10.27,0,0,1,6.11,6.84H37.8Zm0,10H45a22.07,22.07,0,0,1,1,6.3H37.8Zm0,9.45h8.25a22.78,22.78,0,0,1-1,6.29H37.8Zm0,15.74v-6.3h6.3A11.74,11.74,0,0,1,37.8,37.79Zm4.79,0a19.05,19.05,0,0,0,4.66-6.3H50.9A20.88,20.88,0,0,1,42.59,37.79Zm9.89-9.45H47.81a24.43,24.43,0,0,0,1.11-6.29H54.3A18.89,18.89,0,0,1,52.48,28.34Z"/></g></g></g></svg>