<svg id="Layer_1" data-name="Layer 1" xmlns="http://www.w3.org/2000/svg" width="56.69" height="56.69" viewBox="0 0 56.69 56.69"><defs><style>.cls-1{fill:#c9c9c9;}.cls-1,.cls-2,.cls-3,.cls-4{fill-rule:evenodd;}.cls-2{fill:#a0a1a2;}.cls-3{fill:#59b4d9;}.cls-4{fill:#d5ecf6;}</style></defs><g id="group1448-1"><g id="group1449-2"><g id="shape1450-3"><path class="cls-1" d="M10.24,6.3h.94V37.79h-.94Zm36.22,0h.95V37.79h-.95Zm-18.11,0h.95v6.3h-.95Zm9.07,0h.95v6.3h-.95Zm-18.11,0h1v6.3h-1Z"/></g><g id="shape1451-5"><path class="cls-2" d="M0,0V40.94H10.11l1.61-3.15H3.15V6.3H53.54V37.79H43.18l1.58,3.15H56.69V0Z"/></g><g id="shape1452-7"><path class="cls-3" d="M28.13,21.86a2.46,2.46,0,0,0,3.05-1.66,2.37,2.37,0,0,0,.1-.64V18.11A2.7,2.7,0,0,0,28.35,16H10.14A2.6,2.6,0,0,0,7,18l0,.13v1.61A2.43,2.43,0,0,0,9.58,22a2.13,2.13,0,0,0,.56-.1V31.5L0,51l3.84,5.67H33.76L37.7,51,28.13,31.5Z"/></g><g id="shape1453-9"><path class="cls-4" d="M37.79,43.5H25.23L20.69,51H14.55L25.32,31.72V21.89h6.24v9.83Z"/></g><g id="shape1454-11"><path class="cls-1" d="M3.15,12.63H53.54v.94H3.15Zm10.58,9.92H3.15V21.6h9.67Zm39.81,0H41.76l1-.95H53.54Zm-50.39,8h12.6v.94H3.15Zm36.93.91v-.95l13.45,0v.94Z"/></g></g></g></svg>