<svg id="Layer_1" data-name="Layer 1" xmlns="http://www.w3.org/2000/svg" width="56.71" height="56.69" viewBox="0 0 56.71 56.69"><defs><style>.cls-1{fill:#a0a1a2;}.cls-1,.cls-2,.cls-3{fill-rule:evenodd;}.cls-2{fill:#59b4d9;}.cls-3{fill:#d5ecf6;}</style></defs><g id="group1455-1"><g id="group1456-2"><g id="shape1457-3"><path class="cls-1" d="M9.29,13.25l.56-.56L13.14,16l-.55.55ZM47.4,30.65h5.26v.94H47.4Zm.17-8.46,4.1-1.46.25.71L47.83,22.9ZM36.67,10.34,38,5.93l.75.22-1.29,4.41ZM17,7.37,17.67,7l1.84,3.34-.63.34Zm9.79-2.64h1V10h-1Z"/></g><g id="shape1458-5"><path class="cls-1" d="M9.29,13.24l.56-.56L13.14,16l-.55.56ZM47.4,30.64h5.26v.95H47.4Zm.17-8.46,4.1-1.46.25.72-4.09,1.45ZM36.67,10.34,38,5.92l.75.23-1.29,4.41ZM17,7.36,17.67,7l1.84,3.34-.63.35ZM33.83,22.67c-1.39,1.64-2,1.8-5.2,5.48a8.4,8.4,0,0,1,4.12,3.94c2.49-2.9,3.63-3.68,5.26-5.6l9.45-15.22ZM26.27,33.41l2.39,4a3.8,3.8,0,0,0,2-3.37,4.12,4.12,0,0,0-4.33-3.9h-.08v3.3Z"/></g><g id="shape1459-7"><path class="cls-1" d="M48.16,8.12A28.67,28.67,0,0,0,28.16,0,28.15,28.15,0,0,0,0,28.09v4a6.77,6.77,0,0,0,5.42,5.7l1.51-2.67a3.85,3.85,0,0,1-4.35-3.26,4.58,4.58,0,0,1,0-.74v-5s.63-2.9.91-3.94A25.21,25.21,0,0,1,28.35,2.27,25.77,25.77,0,0,1,54.3,27.81v3.34c0,4.06-2.68,4.09-5.32,4.09H32.85c-.35,2.55-1.35,2.55-1.35,2.55H50.61a5.29,5.29,0,0,0,6-4.42,5.47,5.47,0,0,0,0-1.28V27.81A27.33,27.33,0,0,0,48.16,8.12Z"/></g><g id="shape1460-9"><path class="cls-2" d="M24.94,34.65V26.14h.32c1.32-.06,1.89-.94,1.89-2.83a2.19,2.19,0,0,0-2.65-2.49H8.76A2.2,2.2,0,0,0,6.49,23v1a2.27,2.27,0,0,0,2.36,2.17l.28,0v8.54L0,51.65l3.15,5H29.48l3.72-5ZM14.2,44.72l-4,6.65H4.82l9.45-16.72V26.14h5.38v8.51l5.61,10.07Z"/></g><g id="shape1461-11"><path class="cls-3" d="M14.46,44.72l-4,6.64H5.07l9.54-16.72V26.13H19.9v8.51l5.61,10.08Z"/></g></g></g></svg>