<svg id="Layer_1" data-name="Layer 1" xmlns="http://www.w3.org/2000/svg" width="56.69" height="53.86" viewBox="0 0 56.69 53.86"><defs><style>.cls-1{fill:#7a7a7a;}.cls-1,.cls-2,.cls-3,.cls-4,.cls-5,.cls-7{fill-rule:evenodd;}.cls-2,.cls-6{fill:#a0a1a2;}.cls-3{fill:#59b4d9;}.cls-4,.cls-5,.cls-7{fill:#fff;}.cls-4{fill-opacity:0.2;}.cls-7{fill-opacity:0.75;}</style></defs><g id="group1428-1"><g id="group1429-2"><g id="shape1430-3"><path class="cls-1" d="M27.07,42.79H11.59c1.8,6.6-.71,7.52-11.59,7.52v3.55H37V50.31C26.4,50.31,25.26,49.39,27.07,42.79Z"/></g><g id="shape1431-5"><path class="cls-2" d="M53.15,0H3.05A3.26,3.26,0,0,0,0,3.3V39.63a3.12,3.12,0,0,0,3.05,3.16h50.1a3.54,3.54,0,0,0,3.54-3.16V3.3A3.55,3.55,0,0,0,53.15,0Zm-.92,4.43v34H4.32v-34H52.23Z"/></g><g id="shape1432-7"><path class="cls-3" d="M52.37,38.39h-48v-34l48.05-.1Z"/></g><g id="shape1433-9"><path class="cls-4" d="M4.32,38.39v-34H48.19l5-4.43H3.05A3.26,3.26,0,0,0,0,3.3V39.63a3.12,3.12,0,0,0,3.05,3.16H4.32L9.53,38.5H4.32Z"/></g><g id="shape1434-11"><path class="cls-3" d="M4.32,38.39v-34l43.87-.1-43.87.1Z"/></g><g id="shape1435-13"><path class="cls-5" d="M27.25,19.59A6.11,6.11,0,0,0,33,17.74a5.66,5.66,0,0,0,1-5.6L31,15.68l-3.3-.49L26.54,12.1l2.94-3.55A6.05,6.05,0,0,0,24,10.65a5.63,5.63,0,0,0-1,5.57l-9.6,11.56a2.77,2.77,0,0,0,.39,3.87,2.69,2.69,0,0,0,3.79-.31l.07-.08Z"/></g><g id="shape1436-15"><rect class="cls-6" x="9.85" y="50.31" width="37.06" height="3.41"/></g><g id="shape1437-17"><path class="cls-7" d="M42.24,29.38l.28-1.63-1.56-1V25.55L42.2,24l-.42-.64-.46-.81h-.25L39.23,23l-1.07-.57-.24-2.23-1.63-.39-1.07,1.45H34l-1.67-1.06-1.45,1.06v.25l.46,1.84-.74,1-2.2.07L28,26.12l.39.14,1.63,1,.14,1.14-1.35,1.7.89,1.45h.25l2-.42.89.81L33,34.1l1.63.39v-.21l1-1.64,1.2-.21,1.74,1.35L40,32.89v-.25l-.43-1.84.57-1.07Zm-7.26,0a2.34,2.34,0,0,1-1.8-2.78l0-.06A2.38,2.38,0,0,1,36,24.77a2.41,2.41,0,0,1,1.77,2.84A2.38,2.38,0,0,1,35,29.27Z"/></g></g></g></svg>