<svg id="Layer_1" data-name="Layer 1" xmlns="http://www.w3.org/2000/svg" width="53.36" height="56.69" viewBox="0 0 53.36 56.69"><defs><style>.cls-1{fill:#3999c6;}.cls-1,.cls-2,.cls-3,.cls-4,.cls-5,.cls-6{fill-rule:evenodd;}.cls-2{fill:#62117a;fill-opacity:0.15;}.cls-3{fill:#59b4d9;}.cls-4{fill:#fff;fill-opacity:0.2;}.cls-5{fill:#804998;}.cls-6{fill:#68217a;}</style></defs><g id="group1410-1"><g id="group1411-2"><g id="shape1412-3"><path class="cls-1" d="M32,36.42a.28.28,0,0,0,.15,0l9.17-5.09a.28.28,0,0,0,.15-.24V20.84a.27.27,0,0,0-.14-.24.34.34,0,0,0-.28,0l-9.17,5.1a.25.25,0,0,0-.13.23V36.15a.25.25,0,0,0,.14.23A.22.22,0,0,0,32,36.42Zm0,13.45a.28.28,0,0,0,.15,0l9.17-5.09a.28.28,0,0,0,.15-.24V34.3a.27.27,0,0,0-.14-.24.34.34,0,0,0-.28,0l-9.17,5.09a.25.25,0,0,0-.13.23V49.6a.24.24,0,0,0,.14.23A.22.22,0,0,0,32,49.87ZM43.9,29.69a.25.25,0,0,0,.14,0l9.17-5.09a.28.28,0,0,0,.15-.24V14.12a.27.27,0,0,0-.14-.24.34.34,0,0,0-.28,0L43.76,19a.25.25,0,0,0-.13.23V29.42a.24.24,0,0,0,.14.23.35.35,0,0,0,.14,0Zm0,13.45a.35.35,0,0,0,.14,0L53.21,38a.28.28,0,0,0,.15-.24V27.57a.27.27,0,0,0-.14-.24.34.34,0,0,0-.28,0l-9.17,5.1a.25.25,0,0,0-.13.23V42.88a.27.27,0,0,0,.14.23.35.35,0,0,0,.14,0Z"/></g><g id="shape1413-5"><path class="cls-2" d="M32,49.87a.28.28,0,0,0,.15,0l9.17-5.09a.28.28,0,0,0,.15-.24V34.3a.27.27,0,0,0-.14-.24.34.34,0,0,0-.28,0l-9.17,5.09a.25.25,0,0,0-.13.23V49.6a.24.24,0,0,0,.14.23A.22.22,0,0,0,32,49.87Zm11.9-6.73a.35.35,0,0,0,.14,0L53.21,38a.28.28,0,0,0,.15-.24V27.57a.27.27,0,0,0-.14-.24.34.34,0,0,0-.28,0l-9.17,5.1a.25.25,0,0,0-.13.23V42.88a.27.27,0,0,0,.14.23.35.35,0,0,0,.14,0ZM32,36.42a.28.28,0,0,0,.15,0l9.17-5.09a.28.28,0,0,0,.15-.24V20.84a.27.27,0,0,0-.14-.24.34.34,0,0,0-.28,0l-9.17,5.1a.25.25,0,0,0-.13.23V36.15a.25.25,0,0,0,.14.23A.22.22,0,0,0,32,36.42Zm11.9-6.73a.25.25,0,0,0,.14,0l9.17-5.09a.28.28,0,0,0,.15-.24V14.12a.27.27,0,0,0-.14-.24.34.34,0,0,0-.28,0L43.76,19a.25.25,0,0,0-.13.23V29.42a.24.24,0,0,0,.14.23.35.35,0,0,0,.14,0Z"/></g><g id="shape1414-7"><path class="cls-3" d="M29.3,36.42a.33.33,0,0,1-.14,0L20,31.29a.27.27,0,0,1-.14-.24V20.84a.27.27,0,0,1,.14-.23.28.28,0,0,1,.28,0l9.18,5.09a.28.28,0,0,1,.13.23V36.15a.27.27,0,0,1-.14.23.31.31,0,0,1-.13,0Zm0,13.45a.33.33,0,0,1-.14,0L20,44.74a.27.27,0,0,1-.14-.24V34.3a.27.27,0,0,1,.14-.24.28.28,0,0,1,.28,0l9.18,5.09a.28.28,0,0,1,.13.24V49.6a.27.27,0,0,1-.14.23.31.31,0,0,1-.13,0ZM17.41,29.69a.33.33,0,0,1-.14,0L8.09,24.56A.27.27,0,0,1,8,24.32V14.12a.27.27,0,0,1,.14-.24.28.28,0,0,1,.28,0L17.54,19a.27.27,0,0,1,.14.24V29.42a.27.27,0,0,1-.14.23.32.32,0,0,1-.14,0Zm0,13.45a.33.33,0,0,1-.14,0L8.09,38A.27.27,0,0,1,8,37.78V27.57a.25.25,0,0,1,.14-.23.28.28,0,0,1,.28,0l9.17,5.09a.25.25,0,0,1,.14.23V42.88a.27.27,0,0,1-.14.23.32.32,0,0,1-.14,0Zm4-25.36a.24.24,0,0,1,.1-.1l9.12-5a.31.31,0,0,1,.28,0l9,4.93a.25.25,0,0,1,.13.22.25.25,0,0,1-.14.23l-9.11,5a.31.31,0,0,1-.28,0l-9-4.92a.27.27,0,0,1-.14-.23.28.28,0,0,1,0-.12ZM9.51,11.3a.24.24,0,0,1,.1-.1l9-5a.29.29,0,0,1,.27,0l8.93,4.93a.25.25,0,0,1,.13.22.25.25,0,0,1-.14.23l-9,5a.29.29,0,0,1-.27,0L9.6,11.65a.3.3,0,0,1-.14-.23.42.42,0,0,1,0-.12Zm24,.11a.24.24,0,0,1,.1-.1l9-5a.29.29,0,0,1,.27,0l8.93,4.93a.25.25,0,0,1,.13.22.25.25,0,0,1-.14.23l-9,5a.29.29,0,0,1-.27,0l-8.93-4.91a.3.3,0,0,1-.14-.23.42.42,0,0,1,0-.12ZM21.44,5a.24.24,0,0,1,.1-.1L30.65,0a.31.31,0,0,1,.28,0l9,4.85a.25.25,0,0,1,.13.22.24.24,0,0,1-.14.22L30.83,10.2a.31.31,0,0,1-.28,0l-9-4.83a.27.27,0,0,1-.14-.22.28.28,0,0,1,0-.13Z"/></g><g id="shape1415-9"><path class="cls-4" d="M21.39,17.78a.24.24,0,0,1,.1-.1l9.12-5a.31.31,0,0,1,.28,0l9,4.93a.25.25,0,0,1,.13.22.25.25,0,0,1-.14.23l-9.11,5a.31.31,0,0,1-.28,0l-9-4.92a.27.27,0,0,1-.14-.23.28.28,0,0,1,0-.12ZM9.51,11.3a.24.24,0,0,1,.1-.1l9-5a.29.29,0,0,1,.27,0l8.93,4.93a.25.25,0,0,1,.13.22.25.25,0,0,1-.14.23l-9,5a.29.29,0,0,1-.27,0L9.6,11.65a.3.3,0,0,1-.14-.23.42.42,0,0,1,0-.12Zm24,.11a.24.24,0,0,1,.1-.1l9-5a.29.29,0,0,1,.27,0l8.93,4.93a.25.25,0,0,1,.13.22.25.25,0,0,1-.14.23l-9,5a.29.29,0,0,1-.27,0l-8.93-4.91a.3.3,0,0,1-.14-.23.42.42,0,0,1,0-.12ZM21.44,5a.24.24,0,0,1,.1-.1L30.65,0a.31.31,0,0,1,.28,0l9,4.85a.25.25,0,0,1,.13.22.24.24,0,0,1-.14.22L30.83,10.2a.31.31,0,0,1-.28,0l-9-4.83a.27.27,0,0,1-.14-.22.28.28,0,0,1,0-.13ZM8.09,38l9.18,5.09a.34.34,0,0,0,.28,0,.28.28,0,0,0,.13-.24V35.18a8.25,8.25,0,0,0-1.22-.09,25.28,25.28,0,0,0-5.84.73,13.52,13.52,0,0,1-2.67.4v1.57A.27.27,0,0,0,8.09,38ZM29.3,49.87a.27.27,0,0,0,.14,0,.29.29,0,0,0,.14-.24v-8.2l-2.56,0c-1.06,0-1.5,0-1.69-.05A9,9,0,0,1,24.19,40a11.84,11.84,0,0,0-4.35-4.13v8.67a.24.24,0,0,0,.14.23l9.18,5.1A.32.32,0,0,0,29.3,49.87Zm12.16-5.36V43.42L38,44.9c-.42-3.37-3.85-3.51-5-3.56H31.74V49.6a.26.26,0,0,0,.13.23.34.34,0,0,0,.28,0l9.17-5.09a.27.27,0,0,0,.14-.24Zm3.45-2.63c-.3.15-.75.35-1.28.59v.41a.28.28,0,0,0,.13.23.34.34,0,0,0,.28,0L47.79,41A9.1,9.1,0,0,0,44.91,41.88Z"/></g><g id="shape1416-11"><path class="cls-5" d="M21.36,56.12c-3,0-6.83-3.25-8.31-4.64l-1-.9a10.94,10.94,0,0,0-7.54-3h-4V37.92H8a14.3,14.3,0,0,0,3-.44,24,24,0,0,1,5.48-.69c3.38,0,5,2.31,6.35,4.17.75,1,1.4,2,2.17,2.08a14.44,14.44,0,0,0,2,.08c1,0,2.26,0,3.3,0l2.23,0h.4c2.35.1,3.3.74,3.41,2.28a3.36,3.36,0,0,1-.14,1.18l-.35,1.16L37,47.19c2.6-1.1,7.2-3.06,8.68-3.78a9.84,9.84,0,0,1,4.14-1c1.36,0,2.36.42,2.74,1.15,0,0,1.07,2.1-2.37,4.12-2,1.17-4,2.32-6,3.47-3,1.72-5.35,3.08-6.43,3.79a6.47,6.47,0,0,1-3.5.76c-.59,0-1.2,0-1.8-.06s-1.19-.05-1.79-.06c-1.46,0-3.66.17-6,.35-1,.07-2.09.16-3.1.22Z"/></g><g id="shape1417-13"><path class="cls-4" d="M37.18,47.71c3.2-1.35,7.31-3.11,8.71-3.79a9.35,9.35,0,0,1,3.9-1c1.12,0,2,.31,2.24.84,0,.06.75,1.66-2.16,3.37-2,1.16-4,2.32-6,3.46-3,1.73-5.37,3.09-6.47,3.82a6,6,0,0,1-3.18.66c-.57,0-1.14,0-1.72-.05S31.28,55,30.66,55c-1.48,0-3.66.17-6,.34-1.09.08-2.14.17-3.15.23h-.18c-2.92,0-6.8-3.44-7.92-4.49l-1-.91A11.48,11.48,0,0,0,4.55,47H1.14V38.49H8A14.62,14.62,0,0,0,11.1,38a23.91,23.91,0,0,1,5.36-.68c3.09,0,4.58,2.09,5.89,3.94.82,1.15,1.53,2.15,2.54,2.31a15.69,15.69,0,0,0,2.1.09c1,0,2.14,0,3.14,0h.36l2,0h.38c2.55.11,2.81.85,2.87,1.74a2.9,2.9,0,0,1-.11,1l-.76,2.05A18.11,18.11,0,0,0,37.18,47.71Z"/></g><g id="shape1418-15"><path class="cls-6" d="M21.35,56.69c-3,0-6.54-2.77-8.69-4.79-.37-.35-.7-.66-1-.89a10.42,10.42,0,0,0-7.16-2.85h-4A.57.57,0,0,1,0,47.58V37.92a.58.58,0,0,1,.57-.57H8a14.29,14.29,0,0,0,2.91-.44,24.84,24.84,0,0,1,5.6-.7c3.67,0,5.48,2.55,6.81,4.41.65.91,1.26,1.77,1.79,1.85a49.55,49.55,0,0,0,5.3,0c1.15,0,2.15,0,2.58,0,1.87.08,3.8.48,4,2.81a3.78,3.78,0,0,1-.15,1.39c2.49-1.06,7.17-3.05,8.66-3.77,3.23-1.56,6.66-1.46,7.63.35.31.59.83,2.88-2.59,4.89l-6,3.46c-3,1.72-5.35,3.08-6.41,3.78-1.49,1-3.61.89-5.67.79-.59,0-1.17-.05-1.73-.05-1.44,0-3.62.16-5.94.34-1,.07-2.09.16-3.11.22ZM1.14,47h3.4a11.61,11.61,0,0,1,7.91,3.14c.27.23.6.55,1,.91,2,1.82,5.59,4.68,8.1,4.48l3.1-.23c2.33-.17,4.54-.34,6-.34.58,0,1.18,0,1.79.05,1.87.09,3.8.19,5-.6s3.47-2.09,6.47-3.82c1.84-1,3.89-2.23,6-3.45,1.72-1,2.67-2.42,2.16-3.37-.6-1.15-3.28-1.24-6.13.14-2.07,1-10,4.32-10.32,4.46a.57.57,0,0,1-.73-.87.6.6,0,0,1,.15-.09,2.6,2.6,0,0,0,.77-2.07c-.07-1-.56-1.65-2.86-1.75-.4,0-1.38,0-2.51,0a49.86,49.86,0,0,1-5.51,0c-1-.17-1.71-1.16-2.53-2.32-1.25-1.75-2.81-3.93-5.89-3.93A23.8,23.8,0,0,0,11.1,38,14.62,14.62,0,0,1,8,38.49H1.14Z"/></g><g id="shape1419-17"><path class="cls-6" d="M26.84,49.32c-2.24,0-3.84-.27-4.74-1.06l-3.49-3.07.75-.85,3.49,3.06c1.19,1.05,6.33.66,8.27.53a12.16,12.16,0,0,0,5.27-1.11.57.57,0,1,1,.42,1,13.14,13.14,0,0,1-5.61,1.19C30,49.14,27.81,49.32,26.84,49.32Z"/></g></g></g></svg>