<svg id="Layer_1" data-name="Layer 1" xmlns="http://www.w3.org/2000/svg" width="56.69" height="48.19" viewBox="0 0 56.69 48.19"><defs><style>.cls-1{fill:#7fba00;}.cls-1,.cls-2,.cls-3{fill-rule:evenodd;}.cls-2{fill:#b8d432;}.cls-3{fill:#fff;fill-opacity:0.25;}</style></defs><g id="group1347-1"><g id="group1348-2"><g id="group1349-3"><g id="group1350-4"><g id="shape1351-5"><path class="cls-1" d="M56.69,37.93c0,5.67-12.69,10.26-28.34,10.26S0,43.6,0,37.93V32.4H56.69Z"/></g></g><g id="group1352-7"><g id="shape1353-8"><path class="cls-2" d="M56.69,32.4c0,5.67-12.69,10.26-28.34,10.26S0,38.07,0,32.4,12.69,22.13,28.35,22.13,56.69,26.73,56.69,32.4Z"/></g></g><g id="group1354-10"><g id="shape1355-11"><path class="cls-1" d="M37.44,31.81c0,1.51-4.07,2.72-9.1,2.72s-9.08-1.21-9.08-2.72,4.07-2.73,9.08-2.73S37.44,30.29,37.44,31.81Z"/></g></g><g id="group1356-13"><g id="shape1357-14"><path class="cls-3" d="M48.84,25.37a54.23,54.23,0,0,0-15.06-3L30.1,29.19a21.06,21.06,0,0,1,4.68.74Z"/></g></g><g id="group1358-16"><g id="shape1359-17"><path class="cls-3" d="M6.69,39.08a52,52,0,0,0,16.2,3.44l4.3-8a22.68,22.68,0,0,1-4.72-.63Z"/></g></g><g id="group1360-19"><g id="shape1361-20"><path class="cls-1" d="M56.69,15.8c0,5.67-12.69,10.26-28.34,10.26S0,21.47,0,15.8V10.27H56.69Z"/></g></g><g id="group1362-22"><g id="shape1363-23"><path class="cls-2" d="M56.69,10.27c0,5.67-12.69,10.26-28.34,10.26S0,15.94,0,10.27,12.69,0,28.35,0,56.69,4.6,56.69,10.27Z"/></g></g><g id="group1364-25"><g id="shape1365-26"><path class="cls-1" d="M37.44,9.68c0,1.51-4.07,2.72-9.1,2.72s-9.08-1.21-9.08-2.72S23.33,7,28.34,7,37.44,8.16,37.44,9.68Z"/></g></g><g id="group1366-28"><g id="shape1367-29"><path class="cls-3" d="M48.84,3.19A54.23,54.23,0,0,0,33.78.2L30.1,7a21.06,21.06,0,0,1,4.68.74Z"/></g></g><g id="group1368-31"><g id="shape1369-32"><path class="cls-3" d="M6.69,16.9a52,52,0,0,0,16.2,3.44l4.3-7.95a22.68,22.68,0,0,1-4.72-.63Z"/></g></g></g></g></g></svg>