<svg id="Layer_1" data-name="Layer 1" xmlns="http://www.w3.org/2000/svg" width="56.69" height="48.19" viewBox="0 0 56.69 48.19"><defs><style>.cls-1{fill:#7fba00;}.cls-1,.cls-2,.cls-3,.cls-4,.cls-5{fill-rule:evenodd;}.cls-2{fill:#b8d432;}.cls-3{fill:#fff;fill-opacity:0.25;}.cls-4{fill:#0072c6;}.cls-5{fill:#59b4d9;}</style></defs><g id="group1324-1"><g id="group1325-2"><g id="group1326-3"><g id="group1327-4"><g id="shape1328-5"><path class="cls-1" d="M56.69,37.93c0,5.67-12.69,10.26-28.34,10.26S0,43.6,0,37.93V32.39H56.69Z"/></g></g><g id="group1329-7"><g id="shape1330-8"><path class="cls-2" d="M56.69,32.4c0,5.67-12.69,10.26-28.34,10.26S0,38.07,0,32.4,12.69,22.13,28.35,22.13,56.69,26.73,56.69,32.4Z"/></g></g><g id="group1331-10"><g id="shape1332-11"><path class="cls-1" d="M37.44,31.81c0,1.5-4.07,2.72-9.1,2.72s-9.08-1.22-9.08-2.72,4.07-2.74,9.08-2.74S37.44,30.29,37.44,31.81Z"/></g></g><g id="group1333-13"><g id="shape1334-14"><path class="cls-3" d="M48.84,25.36a55,55,0,0,0-15.06-3L30.1,29.18a21,21,0,0,1,4.68.75Z"/></g></g><g id="group1335-16"><g id="shape1336-17"><path class="cls-3" d="M6.69,39.07a52,52,0,0,0,16.2,3.45l4.3-8a23.43,23.43,0,0,1-4.72-.62Z"/></g></g><g id="group1337-19"><g id="shape1338-20"><path class="cls-4" d="M56.69,15.8c0,5.67-12.69,10.26-28.34,10.26S0,21.46,0,15.8V10.26H56.69Z"/></g></g><g id="group1339-22"><g id="shape1340-23"><path class="cls-5" d="M56.69,10.27c0,5.67-12.69,10.26-28.34,10.26S0,15.93,0,10.27,12.69,0,28.35,0,56.69,4.6,56.69,10.27Z"/></g></g><g id="group1341-25"><g id="shape1342-26"><path class="cls-4" d="M37.44,9.68c0,1.5-4.07,2.72-9.1,2.72s-9.08-1.22-9.08-2.72,4.07-2.74,9.08-2.74S37.44,8.16,37.44,9.68Z"/></g></g><g id="group1343-28"><g id="shape1344-29"><path class="cls-3" d="M48.84,3.18a55,55,0,0,0-15.06-3L30.1,7a21,21,0,0,1,4.68.75Z"/></g></g><g id="group1345-31"><g id="shape1346-32"><path class="cls-3" d="M6.69,16.89a52,52,0,0,0,16.2,3.45l4.3-8a23.43,23.43,0,0,1-4.72-.62Z"/></g></g></g></g></g></svg>