<svg id="Layer_1" data-name="Layer 1" xmlns="http://www.w3.org/2000/svg" width="52.14" height="45.27" viewBox="0 0 52.14 45.27"><defs><style>.cls-1{fill:#3999c6;}.cls-1,.cls-2,.cls-3,.cls-4,.cls-5,.cls-6{fill-rule:evenodd;}.cls-2{fill:#62117a;fill-opacity:0.15;}.cls-3{fill:#59b4d9;}.cls-4,.cls-5{fill:#fff;}.cls-4{fill-opacity:0.2;}.cls-5{fill-opacity:0.4;}.cls-6{fill:#804998;}</style></defs><g id="group1420-1"><g id="group1421-2"><g id="shape1422-3"><path class="cls-1" d="M27.32,33.06a.2.2,0,0,0,.13,0l8.46-4.62a.23.23,0,0,0,.13-.21V18.92a.23.23,0,0,0-.13-.21.3.3,0,0,0-.26,0L27.2,23.33a.26.26,0,0,0-.13.21v9.27a.23.23,0,0,0,.13.21A.19.19,0,0,0,27.32,33.06Zm0,12.21a.2.2,0,0,0,.13,0l8.46-4.62A.23.23,0,0,0,36,40.4V31.13a.23.23,0,0,0-.13-.21.3.3,0,0,0-.26,0L27.2,35.54a.26.26,0,0,0-.13.21V45a.23.23,0,0,0,.13.21A.19.19,0,0,0,27.32,45.27ZM38.29,27a.28.28,0,0,0,.13,0l8.46-4.62a.23.23,0,0,0,.13-.21V12.82a.23.23,0,0,0-.13-.21.3.3,0,0,0-.26,0l-8.46,4.61a.26.26,0,0,0-.13.21v9.28a.26.26,0,0,0,.12.21.28.28,0,0,0,.13,0Zm0,12.21a.28.28,0,0,0,.13,0l8.46-4.62A.23.23,0,0,0,47,34.3V25a.23.23,0,0,0-.13-.21.3.3,0,0,0-.26,0l-8.46,4.61a.26.26,0,0,0-.13.21v9.28a.26.26,0,0,0,.12.21.28.28,0,0,0,.13,0Z"/></g><g id="shape1423-5"><path class="cls-2" d="M27.32,45.27a.2.2,0,0,0,.13,0l8.46-4.62A.23.23,0,0,0,36,40.4V31.13a.23.23,0,0,0-.13-.21.3.3,0,0,0-.26,0L27.2,35.54a.26.26,0,0,0-.13.21V45a.23.23,0,0,0,.13.21A.19.19,0,0,0,27.32,45.27Zm11-6.11a.28.28,0,0,0,.13,0l8.46-4.62A.23.23,0,0,0,47,34.3V25a.23.23,0,0,0-.13-.21.3.3,0,0,0-.26,0l-8.46,4.61a.26.26,0,0,0-.13.21v9.28a.26.26,0,0,0,.12.21.28.28,0,0,0,.13,0Zm-11-6.1a.2.2,0,0,0,.13,0l8.46-4.62a.23.23,0,0,0,.13-.21V18.92a.23.23,0,0,0-.13-.21.3.3,0,0,0-.26,0L27.2,23.33a.26.26,0,0,0-.13.21v9.27a.23.23,0,0,0,.13.21A.19.19,0,0,0,27.32,33.06Zm11-6.11a.28.28,0,0,0,.13,0l8.46-4.62a.23.23,0,0,0,.13-.21V12.82a.23.23,0,0,0-.13-.21.3.3,0,0,0-.26,0l-8.46,4.61a.26.26,0,0,0-.13.21v9.28a.26.26,0,0,0,.12.21.28.28,0,0,0,.13,0Z"/></g><g id="shape1424-7"><path class="cls-3" d="M24.82,33.06a.28.28,0,0,1-.13,0L16.23,28.4a.23.23,0,0,1-.13-.21V18.92a.24.24,0,0,1,.13-.21.3.3,0,0,1,.26,0L25,23.33a.22.22,0,0,1,.12.21v9.27a.23.23,0,0,1-.13.21.28.28,0,0,1-.12,0Zm0,12.21a.28.28,0,0,1-.13,0l-8.46-4.63a.23.23,0,0,1-.13-.21V31.13a.24.24,0,0,1,.13-.21.3.3,0,0,1,.26,0L25,35.54a.22.22,0,0,1,.12.21V45a.23.23,0,0,1-.13.21.28.28,0,0,1-.12,0ZM13.85,27a.28.28,0,0,1-.13,0L5.26,22.3a.23.23,0,0,1-.13-.21V12.82a.26.26,0,0,1,.13-.22.3.3,0,0,1,.26,0L14,17.22a.26.26,0,0,1,.13.21v9.28a.23.23,0,0,1-.13.21.28.28,0,0,1-.12,0Zm0,12.21a.28.28,0,0,1-.13,0L5.26,34.51a.23.23,0,0,1-.13-.21V25a.26.26,0,0,1,.13-.22.3.3,0,0,1,.26,0L14,29.43a.26.26,0,0,1,.13.21v9.28a.23.23,0,0,1-.13.21.28.28,0,0,1-.12,0Zm3.68-23a.24.24,0,0,1,.09-.08L26,11.55a.28.28,0,0,1,.25,0L34.61,16a.22.22,0,0,1,.12.21.22.22,0,0,1-.13.2l-8.4,4.51a.28.28,0,0,1-.25,0l-8.33-4.47a.22.22,0,0,1-.13-.2.21.21,0,0,1,0-.11Zm-11-5.88a.24.24,0,0,1,.09-.08L15,5.67a.28.28,0,0,1,.25,0l8.24,4.46a.22.22,0,0,1,.12.21.22.22,0,0,1-.13.2l-8.31,4.51a.28.28,0,0,1-.25,0L6.65,10.58a.24.24,0,0,1-.13-.2.36.36,0,0,1,0-.11Zm22.16.1a.24.24,0,0,1,.09-.08l8.32-4.51a.28.28,0,0,1,.25,0l8.23,4.46a.22.22,0,0,1,.12.21.22.22,0,0,1-.13.2l-8.31,4.51a.28.28,0,0,1-.25,0l-8.23-4.47a.24.24,0,0,1-.13-.2.36.36,0,0,1,0-.11ZM17.57,4.55a.24.24,0,0,1,.09-.08L26.07,0a.28.28,0,0,1,.25,0l8.33,4.4a.22.22,0,0,1,.12.21.23.23,0,0,1-.13.2l-8.4,4.42a.28.28,0,0,1-.25,0L17.66,4.87a.21.21,0,0,1-.13-.2.36.36,0,0,1,0-.11Z"/></g><g id="shape1425-9"><path class="cls-4" d="M17.53,16.15a.2.2,0,0,1,.09-.09L26,11.56a.25.25,0,0,1,.25,0L34.61,16a.24.24,0,0,1,.12.2.23.23,0,0,1-.13.21l-8.4,4.51a.27.27,0,0,1-.26,0l-8.32-4.46a.23.23,0,0,1-.13-.2.21.21,0,0,1,0-.12Zm-11-5.88a.2.2,0,0,1,.09-.09L15,5.67a.25.25,0,0,1,.25,0l8.24,4.48a.24.24,0,0,1,.12.2.23.23,0,0,1-.13.21l-8.31,4.5a.25.25,0,0,1-.25,0L6.65,10.58a.23.23,0,0,1-.13-.2.21.21,0,0,1,0-.12Zm22.15.09a.2.2,0,0,1,.09-.09l8.32-4.5a.25.25,0,0,1,.25,0l8.23,4.48a.24.24,0,0,1,.12.2.23.23,0,0,1-.13.21l-8.31,4.5a.25.25,0,0,1-.25,0l-8.23-4.46a.23.23,0,0,1-.13-.2.21.21,0,0,1,0-.12ZM17.57,4.56a.2.2,0,0,1,.09-.09L26.07,0a.25.25,0,0,1,.25,0l8.33,4.4a.23.23,0,0,1,.12.2.23.23,0,0,1-.13.2l-8.4,4.44a.27.27,0,0,1-.26,0L17.66,4.87a.23.23,0,0,1-.13-.2.28.28,0,0,1,0-.12Z"/></g><g id="shape1426-11"><path class="cls-5" d="M47,12.82a.27.27,0,0,0-.11-.19l-.13-.11C45,17.22,40.15,24,31.64,30.33c-6.85,5.11-13.17,7.79-17.91,8.86l7.64,4.22a63,63,0,0,0,13.56-7.8A62.42,62.42,0,0,0,47,24Z"/></g><g id="shape1427-13"><path class="cls-6" d="M50.79,5.16c-2.71-3.68-9-4-16.6-1.55l3.79,2c5.07-1.22,8.78-.74,10,1C50.5,10,45.61,21.22,32.27,31.16s-25.45,11.36-27.94,8c-.9-1.23-.82-3.5.27-6.36v-7C.13,32.23-1.35,38.36,1.34,42c4.55,6.19,19.31,3,33-7.23S55.34,11.35,50.79,5.16Z"/></g></g></g></svg>