<svg id="Layer_1" data-name="Layer 1" xmlns="http://www.w3.org/2000/svg" xmlns:xlink="http://www.w3.org/1999/xlink" width="46.18" height="51.87" viewBox="0 0 46.18 51.87"><defs><style>.cls-1,.cls-2,.cls-4,.cls-5,.cls-6,.cls-7{fill-rule:evenodd;}.cls-1{fill:url(#linear-gradient);}.cls-2{fill:#eaeaea;}.cls-3{fill:none;}.cls-4{fill:#50e6ff;}.cls-5{fill:#198ab3;}.cls-6{fill:url(#linear-gradient-2);}.cls-7{fill:#fff;}</style><linearGradient id="linear-gradient" x1="-270.9" y1="414.24" x2="-269.9" y2="414.24" gradientTransform="matrix(39.85, 0, 0, -45.94, 10795.6, 19058.36)" gradientUnits="userSpaceOnUse"><stop offset="0" stop-color="#005ba1"/><stop offset="0.07" stop-color="#0060a9"/><stop offset="0.36" stop-color="#0071c8"/><stop offset="0.52" stop-color="#0078d4"/><stop offset="0.64" stop-color="#0074cd"/><stop offset="0.82" stop-color="#006abb"/><stop offset="1" stop-color="#005ba1"/></linearGradient><linearGradient id="linear-gradient-2" x1="-289.25" y1="415.14" x2="-288.25" y2="415.14" gradientTransform="matrix(0, -27.27, -38.15, 0, 15856.68, -7836.33)" gradientUnits="userSpaceOnUse"><stop offset="0" stop-color="#198ab3"/><stop offset="0.11" stop-color="#22a5cb"/><stop offset="0.23" stop-color="#29bade"/><stop offset="0.37" stop-color="#2ec9eb"/><stop offset="0.53" stop-color="#31d1f3"/><stop offset="0.78" stop-color="#32d4f5"/></linearGradient></defs><g id="group1402-1"><g id="group1403-2"><g id="shape1404-3"><path class="cls-1" d="M20.1,12.49c-11,0-20-3.37-20-7.27V43.89c0,4,8.76,7.24,19.57,7.27H20c11,0,20-3.36,20-7.27V5.22C39.94,9.22,31.06,12.49,20.1,12.49Z"/></g><g id="shape1405-7"><path class="cls-2" d="M40,44.59c0,4-8.89,7.27-20,7.27S0,48.5,0,44.59s9.12-7.2,20.11-7.2,20,3.37,20,7.3Z"/><path class="cls-3" d="M40,44.59c0,4-8.89,7.27-20,7.27S0,48.5,0,44.59s9.12-7.2,20.11-7.2,20,3.37,20,7.3"/></g><g id="shape1406-10"><path class="cls-4" d="M35.19,4.74c0,2.56-6.66,4.61-15.22,4.61S4.86,7.17,4.86,4.74,11.68,0,20.11,0,35.19,2.05,35.19,4.74Z"/></g><g id="shape1407-12"><path class="cls-5" d="M20.1,5.69A35.91,35.91,0,0,0,8,7.44,36.19,36.19,0,0,0,20.1,9.22,36,36,0,0,0,32.16,7.44,36,36,0,0,0,20.1,5.69Z"/></g><g id="shape1408-14"><path class="cls-6" d="M35.79,37.52a9.61,9.61,0,0,0-5-2.49A10.84,10.84,0,0,0,19.71,24.6,11.17,11.17,0,0,0,9.05,31.9a10.26,10.26,0,0,0-9,9.87A10.43,10.43,0,0,0,10.72,51.86H29.53a8.73,8.73,0,0,0,8.62-8.45,8.37,8.37,0,0,0-2.5-5.85Z"/><path class="cls-3" d="M35.79,37.52a9.61,9.61,0,0,0-5-2.49A10.84,10.84,0,0,0,19.71,24.6,11.17,11.17,0,0,0,9.05,31.9a10.26,10.26,0,0,0-9,9.87A10.43,10.43,0,0,0,10.72,51.86H29.53a8.73,8.73,0,0,0,8.62-8.45,8.37,8.37,0,0,0-2.5-5.85"/></g><g id="shape1409-19"><path class="cls-7" d="M46.18,47.83H43.05V36.29a6.17,6.17,0,0,1-.44,1.88l-3.33,9.66H36.69l-3.33-9.59a14.78,14.78,0,0,1-.43-2V47.83h-2.8V33.6h4.66L37.65,42a11.47,11.47,0,0,1,.5,2c.17-.77.37-1.48.54-2.05l2.89-8.41h4.6Z"/></g></g></g></svg>