<svg id="Layer_1" data-name="Layer 1" xmlns="http://www.w3.org/2000/svg" width="42.52" height="53.96" viewBox="0 0 42.52 53.96"><defs><style>.cls-1{fill:#fcd116;}.cls-1,.cls-2,.cls-3,.cls-4,.cls-5,.cls-6,.cls-7{fill-rule:evenodd;}.cls-2,.cls-4,.cls-6{fill:#fff;}.cls-2{fill-opacity:0.5;}.cls-3{fill:#59b4d9;}.cls-5{fill:#b8d432;}.cls-6{fill-opacity:0.1;}.cls-7{fill:#ff8c00;fill-opacity:0.4;}</style></defs><g id="group1300-1"><g id="group1301-2"><g id="shape1302-3"><path class="cls-1" d="M15.82,46.41a2.9,2.9,0,0,1,0-4.07h0L22,36V30.39l9.19-9.32a6.19,6.19,0,0,0,0-8.68L20.78,1.8a6,6,0,0,0-8.56,0L1.77,12.39a6.21,6.21,0,0,0,0,8.68l9.92,10.06V32L8.87,34.84l2.8,2.84-2.8,2.83,2.8,2.84-2.8,2.84,2.82,2.86v0L16.5,54l3.39-3.43ZM13.06,7.85a3.44,3.44,0,1,1,3.45,3.48h0A3.47,3.47,0,0,1,13.06,7.85Z"/></g><g id="shape1303-5"><path class="cls-2" d="M6.92,12H26.76v2.9H6.92Zm0,4.71H26.76v2.89H6.92Z"/></g><g id="shape1304-7"><path class="cls-3" d="M30.37,54a2.22,2.22,0,0,1-1.59-.67l-9.91-10a2.3,2.3,0,0,1,0-3.21l9.91-10A2.22,2.22,0,0,1,32,30h0L41.86,40a2.28,2.28,0,0,1,0,3.21L32,53.29A2.28,2.28,0,0,1,30.37,54Z"/></g><g id="shape1305-9"><path class="cls-4" d="M37,39.71a1.91,1.91,0,0,0-1.89,1.93,2,2,0,0,0,.31,1l-3.77,3.82a2,2,0,0,0-.32-.18V36.59A2,2,0,0,0,32,34a1.89,1.89,0,0,0-2.6-.72,2,2,0,0,0,0,3.35v9.73a2.48,2.48,0,0,0-.31.18l-3.77-3.82a2,2,0,0,0-.54-2.75,1.94,1.94,0,0,0-2.71.55,2,2,0,0,0,.54,2.74,1.94,1.94,0,0,0,1.73.23l4,4a2.25,2.25,0,0,0,1.16,2.94,2.2,2.2,0,0,0,2.91-1.17,2.24,2.24,0,0,0,0-1.76l4-4a2.11,2.11,0,0,0,.6.11,1.93,1.93,0,0,0,0-3.85Z"/></g><g id="shape1306-11"><path class="cls-2" d="M29.91,35.29l.87-.88,7.11,7.21L37,42.5Z"/></g><g id="shape1307-13"><path class="cls-2" d="M22.85,41.63,30,34.42l.87.88-7.11,7.21Z"/></g><g id="shape1308-15"><path class="cls-5" d="M31.66,48.34A1.32,1.32,0,1,1,30.34,47h0A1.32,1.32,0,0,1,31.66,48.34Zm-.24-13.42a1.06,1.06,0,1,1-1.06-1.07,1.06,1.06,0,0,1,1.06,1.07ZM24.8,41.63a1.06,1.06,0,1,1-1.06-1.07h0A1.06,1.06,0,0,1,24.8,41.63Zm13.24,0A1.06,1.06,0,1,1,37,40.56,1.06,1.06,0,0,1,38,41.63Z"/></g><g id="shape1309-17"><path class="cls-6" d="M32,30a2.21,2.21,0,0,0-3.16,0h0L18.87,40a2.3,2.3,0,0,0,0,3.21l5.61,5.69L35,33.1Z"/></g><g id="shape1310-19"><path class="cls-7" d="M19.46,35.89V28.56L17.3,29.64v8.44Z"/></g></g></g></svg>