<svg id="Layer_1" data-name="Layer 1" xmlns="http://www.w3.org/2000/svg" width="56.69" height="45.38" viewBox="0 0 56.69 45.38"><defs><style>.cls-1{fill:#57a300;}.cls-1,.cls-5{fill-rule:evenodd;}.cls-2{fill:#3999c6;}.cls-3{fill:#804998;}.cls-4{fill:#0072c6;}.cls-5{fill:#7a7a7a;}</style></defs><g id="group1281-1"><g id="group1282-2"><g id="shape1283-3"><path class="cls-1" d="M39.68,18.42l-.32.78-10.14-12-.88.72-.87-.72-10.14,12L17,18.42l-6.72,16,2.09.86,4.63-11,4.62,11,2.09-.86-5.4-12.85,10-11.91,10,11.91L33,34.38l2.09.86,4.62-11,4.63,11,2.09-.86Z"/></g><g id="shape1284-5"><ellipse class="cls-2" cx="45.35" cy="34.81" rx="3.4" ry="3.37"/></g><g id="shape1285-7"><ellipse class="cls-2" cx="34.02" cy="34.81" rx="3.4" ry="3.37"/></g><g id="shape1286-9"><ellipse class="cls-3" cx="28.35" cy="7.87" rx="5.67" ry="5.61"/></g><g id="shape1287-11"><ellipse class="cls-4" cx="17.01" cy="21.34" rx="4.54" ry="4.49"/></g><g id="shape1288-13"><ellipse class="cls-4" cx="39.69" cy="21.34" rx="4.54" ry="4.49"/></g><g id="shape1289-15"><ellipse class="cls-2" cx="22.68" cy="34.81" rx="3.4" ry="3.37"/></g><g id="shape1290-17"><ellipse class="cls-2" cx="11.34" cy="34.81" rx="3.4" ry="3.37"/></g><g id="shape1291-19"><path class="cls-5" d="M10.77,45.36a2,2,0,0,1-.79-.22L2.27,40.65A4.62,4.62,0,0,1,0,36.83V8.54A4.48,4.48,0,0,1,2.27,4.72L10,.23A1.67,1.67,0,0,1,12.25.8,1.62,1.62,0,0,1,11.68,3h0L4,7.53a1.51,1.51,0,0,0-.57,1V36.83a1.51,1.51,0,0,0,.57,1l7.71,4.49a1.63,1.63,0,0,1,.57,2.24A1.91,1.91,0,0,1,10.77,45.36ZM45.92,0a2.17,2.17,0,0,1,.79.22l7.72,4.49a4.62,4.62,0,0,1,2.26,3.82V36.83a4.47,4.47,0,0,1-2.26,3.82l-7.72,4.49a1.66,1.66,0,0,1-2.27-.56A1.64,1.64,0,0,1,45,42.33l7.71-4.49a1.51,1.51,0,0,0,.57-1V8.54a1.51,1.51,0,0,0-.57-1L45,3A1.62,1.62,0,0,1,44.45.8h0A2.19,2.19,0,0,1,45.92,0Z"/></g></g></g></svg>