<svg id="Layer_1" data-name="Layer 1" xmlns="http://www.w3.org/2000/svg" xmlns:xlink="http://www.w3.org/1999/xlink" width="56.69" height="51.11" viewBox="0 0 56.69 51.11"><defs><style>.cls-1,.cls-2,.cls-3,.cls-4{fill-rule:evenodd;}.cls-1{fill:url(#linear-gradient);}.cls-2{fill:#fff;}.cls-3{fill:#d15900;}.cls-4{fill:#b31b1b;}.cls-5{fill:#e62323;}.cls-6{fill:#ffb34d;}</style><linearGradient id="linear-gradient" x1="-285.48" y1="418.21" x2="-284.48" y2="418.21" gradientTransform="matrix(0, -39.52, -56.69, 0, 23736.85, -11242.47)" gradientUnits="userSpaceOnUse"><stop offset="0" stop-color="#e27908"/><stop offset="0.33" stop-color="#e47d0a"/><stop offset="0.62" stop-color="#eb8810"/><stop offset="0.91" stop-color="#f69a19"/><stop offset="1" stop-color="#faa21d"/></linearGradient></defs><g id="group1292-1"><g id="group1293-2"><g id="shape1294-3"><path class="cls-1" d="M0,37.66a1.88,1.88,0,0,0,1.89,1.86H54.8a1.87,1.87,0,0,0,1.89-1.86h0V1.86A1.87,1.87,0,0,0,54.8,0H1.89A1.88,1.88,0,0,0,0,1.86H0Z"/></g><g id="shape1295-7"><path class="cls-2" d="M3.31,35.1a.93.93,0,0,0,.94.93H52.44a.93.93,0,0,0,.94-.93V4.41a.94.94,0,0,0-1-.93H4.25a1,1,0,0,0-1,.93Z"/></g><g id="shape1296-9"><path class="cls-3" d="M47.08,26.59a.91.91,0,0,1-.92.9H25.72a.91.91,0,0,1-1-.84.9.9,0,0,1,.86-.95H46.16a.9.9,0,0,1,.91.89h0Zm0-5.56a.91.91,0,0,1-.92.9H25.72a.91.91,0,0,1-1-.84.9.9,0,0,1,.86-.95H46.16a.9.9,0,0,1,.91.9h0Zm0-8.11a.91.91,0,0,1-.92.9H11.88a.91.91,0,0,1-1-.84.9.9,0,0,1,.86-1H46.16a.9.9,0,0,1,.91.89h0Z"/></g><g id="shape1297-11"><path class="cls-4" d="M11.29,37A8.05,8.05,0,0,1,.66,37L0,50a1,1,0,0,0,1,1.08,1.08,1.08,0,0,0,.8-.31l4.09-4.08L10,50.79a1.06,1.06,0,0,0,1.48,0,1,1,0,0,0,.33-.8Z"/></g><g id="shape1298-13"><ellipse class="cls-5" cx="10.96" cy="30.33" rx="9.49" ry="9.37"/></g><g id="shape1299-15"><ellipse class="cls-6" cx="10.96" cy="30.33" rx="7.2" ry="7.11"/></g></g></g></svg>