<svg id="Layer_1" data-name="Layer 1" xmlns="http://www.w3.org/2000/svg" xmlns:xlink="http://www.w3.org/1999/xlink" width="53.86" height="56.7" viewBox="0 0 53.86 56.7"><defs><style>.cls-1{fill:#76bc2d;}.cls-2,.cls-6{fill:#5e9624;}.cls-3{fill:url(#linear-gradient);}.cls-4{fill:#005ba1;}.cls-5{fill:#949494;}.cls-5,.cls-6,.cls-7{fill-rule:evenodd;}.cls-7{fill:#0078d4;}</style><linearGradient id="linear-gradient" x1="-299.23" y1="418.03" x2="-298.23" y2="418.03" gradientTransform="matrix(0, -15.69, -37.71, 0, 15789.86, -4668.35)" gradientUnits="userSpaceOnUse"><stop offset="0" stop-color="#0078d4"/><stop offset="0.54" stop-color="#358ee3"/><stop offset="1" stop-color="#5ea0ef"/></linearGradient></defs><g id="group1370-1"><g id="group1371-2"><g id="shape1372-3"><ellipse class="cls-1" cx="27.09" cy="34.65" rx="18.85" ry="7.84"/></g><g id="shape1373-5"><ellipse class="cls-2" cx="27.55" cy="34.59" rx="6.27" ry="1.73"/></g><g id="shape1374-7"><ellipse class="cls-3" cx="27.09" cy="17.24" rx="18.85" ry="7.84"/></g><g id="shape1375-11"><ellipse class="cls-4" cx="27.55" cy="17.14" rx="6.27" ry="1.73"/></g><g id="shape1376-13"><path class="cls-5" d="M11.18,0H1.86A1.82,1.82,0,0,0,0,1.77v9.54a.91.91,0,0,0,.9.92h1a.9.9,0,0,0,.93-.88V2.78h8.32a.9.9,0,0,0,.93-.88V1A.91.91,0,0,0,11.24,0h-.06ZM51.9,0H42.58a1,1,0,0,0-.93,1h0V2a.92.92,0,0,0,.93.82h8.36v8.5a.91.91,0,0,0,.87,1h1.12a.9.9,0,0,0,.93-.88V1.86A1.84,1.84,0,0,0,52,0ZM11.18,53.83H2.86v-8.5a.9.9,0,0,0-.9-.91H.9a.91.91,0,0,0-.9.92v9.45a1.81,1.81,0,0,0,1.78,1.85h9.34a.9.9,0,0,0,.93-.88v-1a.94.94,0,0,0-.87-.88ZM52.8,44.41h-.9a.91.91,0,0,0-.9.92v8.5H42.58a1,1,0,0,0-.93,1v1a1,1,0,0,0,.93.92H51.9a1.84,1.84,0,0,0,1.83-1.86V45.39a.9.9,0,0,0-.84-1H52.8Z"/></g><g id="shape1377-15"><path class="cls-6" d="M27.05,42.34c10.41,0,18.86-3.49,18.86-7.84v4.63c-.22,4.22-8.64,7.75-18.86,7.75S8.2,43.35,8.2,39V34.5C8.23,38.85,16.68,42.34,27.05,42.34Z"/></g><g id="shape1378-17"><path class="cls-7" d="M27.05,24.82c10.41,0,18.86-3.52,18.86-7.84v4.7c-.22,4.25-8.64,7.62-18.86,7.62S8.23,25.77,8.23,21.42V17.08C8.23,21.39,16.68,24.82,27.05,24.82Z"/></g></g></g></svg>