<svg id="Layer_1" data-name="Layer 1" xmlns="http://www.w3.org/2000/svg" xmlns:xlink="http://www.w3.org/1999/xlink" width="48.19" height="56.69" viewBox="0 0 48.19 56.69"><defs><style>.cls-1{fill:#50e6ff;}.cls-1,.cls-2,.cls-3,.cls-4,.cls-5,.cls-6{fill-rule:evenodd;}.cls-2{fill:#9cebff;}.cls-3{fill:#a3a3a3;}.cls-4{fill:#767676;}.cls-5{fill:#32bedd;}.cls-6{fill:url(#linear-gradient);}</style><linearGradient id="linear-gradient" x1="-295.46" y1="416.23" x2="-294.46" y2="416.23" gradientTransform="matrix(0, -23.03, -29.85, 0, 12444.76, -6758.6)" gradientUnits="userSpaceOnUse"><stop offset="0" stop-color="#ccc"/><stop offset="0.15" stop-color="#dadada"/><stop offset="0.44" stop-color="#eee"/><stop offset="0.72" stop-color="#fbfbfb"/><stop offset="1" stop-color="#fff"/></linearGradient></defs><g id="group1273-1"><g id="group1274-2"><g id="shape1275-3"><path class="cls-1" d="M44.14,14H40.77V56.69l3.37-6.41Z"/></g><g id="shape1276-5"><path class="cls-2" d="M44.16,50.22l0,.05-3.37,6.41L44.14,54l4-3.17Z"/></g><g id="shape1277-7"><path class="cls-3" d="M22.69,7.67a5.32,5.32,0,0,1,10.63,0V14h2.55V7.67a7.87,7.87,0,0,0-15.73,0V14h2.55Z"/></g><g id="shape1278-9"><path class="cls-4" d="M14.88,7.67a5.18,5.18,0,0,1,5.3-5,5.19,5.19,0,0,1,5.31,5V14h2.56V7.67a7.86,7.86,0,0,0-15.72,0V14h2.55Z"/></g><g id="shape1279-11"><path class="cls-5" d="M40.77,14V56.68L0,53.4,1.24,14Zm3.38,0V50.27l4,.59L47,14Z"/></g><g id="shape1280-13"><path class="cls-6" d="M35.15,39.18a7.62,7.62,0,0,0-5.88-7.28,9.41,9.41,0,0,0-8.71-9.17,8.09,8.09,0,0,0-8.3,5.49,7.61,7.61,0,0,0-7,7.71,9,9,0,0,0,8.35,8.87c.25,0,.5,0,.74,0L28,45.73a1.1,1.1,0,0,0,.36,0,6.47,6.47,0,0,0,6.78-6.18C35.15,39.41,35.15,39.29,35.15,39.18Z"/></g></g></g></svg>