<svg id="Layer_1" data-name="Layer 1" xmlns="http://www.w3.org/2000/svg" xmlns:xlink="http://www.w3.org/1999/xlink" width="58.57" height="58.57" viewBox="0 0 58.57 58.57"><defs><style>.cls-1{fill:#e27908;}.cls-1,.cls-3,.cls-4{fill-rule:evenodd;}.cls-2{fill:#f78d1e;}.cls-3{fill:url(#linear-gradient);}.cls-4{fill:url(#linear-gradient-2);}</style><linearGradient id="linear-gradient" x1="-301.21" y1="422.12" x2="-300.21" y2="422.12" gradientTransform="matrix(0, -12.79, -58.57, 0, 24752.7, -3816.89)" gradientUnits="userSpaceOnUse"><stop offset="0" stop-color="#e26708"/><stop offset="1" stop-color="#f78d1e"/></linearGradient><linearGradient id="linear-gradient-2" x1="-280.92" y1="407.33" x2="-279.92" y2="407.33" gradientTransform="matrix(0, -58.57, -12.79, 0, 5239.1, -16395.13)" gradientUnits="userSpaceOnUse"><stop offset="0" stop-color="#e26708"/><stop offset="0.01" stop-color="#e26808"/><stop offset="0.12" stop-color="#ec7912"/><stop offset="0.26" stop-color="#f28419"/><stop offset="0.46" stop-color="#f68b1d"/><stop offset="1" stop-color="#f78d1e"/></linearGradient></defs><g id="group1256-1"><g id="shape1257-2"><path class="cls-1" d="M29.29,31.64l-8.42,8.42c0-.68-.67-1.35-1-2s-.67-.68-1-.68l8.08-8.07-8.75-8.75a4.15,4.15,0,0,0,2.36-2.36l8.75,8.75L38,18.18c.34.67.34,1,1,1.35a4.68,4.68,0,0,1,1.34,1l-8.75,8.75,8.42,8.41a2.91,2.91,0,0,0-2,2.69Z"/></g><g id="group1258-4"><g id="shape1259-5"><path class="cls-1" d="M17.5,44.77l7.4,7.4v-.33a5.42,5.42,0,0,1,1.69-3.7l-6.06-6.06A3.56,3.56,0,0,1,17.5,44.77Z"/></g><g id="shape1260-7"><path class="cls-1" d="M6.4,33.32l7.07,7.4a3.37,3.37,0,0,1,2.35-3l-5.72-6A5.43,5.43,0,0,1,6.4,33.32Z"/></g><g id="shape1261-9"><path class="cls-1" d="M13.46,17.84,7.4,23.9a4.87,4.87,0,0,1,3.37,2.35l5.72-5.72-2-1C14.13,18.85,13.8,18.51,13.46,17.84Z"/></g><g id="shape1262-11"><path class="cls-1" d="M24.91,6.39l-7.07,7.07a3.69,3.69,0,0,1,2.69,2.69l6.06-6A4.79,4.79,0,0,1,24.91,6.39Z"/></g><g id="shape1263-13"><path class="cls-1" d="M41.06,13.46,34.33,6.73a4.46,4.46,0,0,1-2,3.37l6.06,6A3.69,3.69,0,0,1,41.06,13.46Z"/></g><g id="shape1264-15"><path class="cls-1" d="M51.84,24.24l-6.4-6.4a3.69,3.69,0,0,1-2.69,2.7l6.06,6.05A3.72,3.72,0,0,1,51.84,24.24Z"/></g><g id="shape1265-17"><path class="cls-1" d="M48.8,32,43.08,37.7c.67.33,1,.33,1.35,1a3,3,0,0,1,1,2.35L52.5,34A6.79,6.79,0,0,1,48.8,32Z"/></g><g id="shape1266-19"><path class="cls-1" d="M38.37,42.41l-5.72,5.72.34.34a4.3,4.3,0,0,1,1.34,3.36l7.07-7.06a3.05,3.05,0,0,1-2.35-1A2.49,2.49,0,0,1,38.37,42.41Z"/></g></g><g id="shape1267-21"><circle class="cls-2" cx="17.17" cy="17.17" r="5.05"/></g><g id="shape1268-23"><circle class="cls-2" cx="41.4" cy="17.17" r="5.05"/></g><g id="shape1269-25"><circle class="cls-2" cx="17.17" cy="41.4" r="5.05"/></g><g id="shape1270-27"><circle class="cls-2" cx="41.4" cy="41.4" r="5.05"/></g><g id="shape1271-29"><path class="cls-3" d="M6.4,22.89A6.4,6.4,0,1,1,0,29.28H0A6.4,6.4,0,0,1,6.4,22.89Zm45.77,0a6.4,6.4,0,1,1-6.39,6.4h0A6.39,6.39,0,0,1,52.17,22.89Z"/></g><g id="shape1272-33"><path class="cls-4" d="M29.29,0a6.4,6.4,0,1,1-6.4,6.4A6.4,6.4,0,0,1,29.29,0Zm0,45.78a6.4,6.4,0,1,1-6.4,6.39h0A6.4,6.4,0,0,1,29.29,45.78Z"/></g></g></svg>