<svg id="Layer_1" data-name="Layer 1" xmlns="http://www.w3.org/2000/svg" xmlns:xlink="http://www.w3.org/1999/xlink" width="52.25" height="56.7" viewBox="0 0 52.25 56.7"><defs><style>.cls-1{fill:#b796f9;}.cls-1,.cls-2,.cls-3,.cls-4,.cls-5{fill-rule:evenodd;}.cls-2{fill:url(#linear-gradient);}.cls-3{fill:#0078d4;}.cls-4{fill:#005ba1;}.cls-5{fill:#5ea0ef;}</style><linearGradient id="linear-gradient" x1="-269.26" y1="426.62" x2="-268.26" y2="426.62" gradientTransform="matrix(14.23, 36.46, 50.27, -10.32, -17595.53, 14220.06)" gradientUnits="userSpaceOnUse"><stop offset="0" stop-color="#b77af4"/><stop offset="0.41" stop-color="#9659e8"/><stop offset="0.77" stop-color="#7f42df"/><stop offset="0.99" stop-color="#773adc"/></linearGradient></defs><g id="group1248-1"><g id="group1249-2"><g id="shape1250-3"><path class="cls-1" d="M45.32,3.75,32,27.43,17.84,13.09,3.25,31.88,6.7,34.55,18.23,19.7,32.92,34.61,49.13,5.89Z"/></g><g id="shape1251-5"><path class="cls-2" d="M23.51,16.32A5.49,5.49,0,1,1,18,10.89a5.48,5.48,0,0,1,5.55,5.43Zm9.36,8.23A5.49,5.49,0,1,0,38.41,30v0A5.49,5.49,0,0,0,32.87,24.55ZM46.7,0a5.49,5.49,0,1,0,5.55,5.45v0A5.5,5.5,0,0,0,46.7,0ZM5.49,26.91A5.49,5.49,0,1,0,11,32.37v0A5.51,5.51,0,0,0,5.49,26.91Z"/></g><g id="shape1252-9"><path class="cls-3" d="M15,55.75a1,1,0,0,0,.95,1h6.73a.94.94,0,0,0,.95-.94V32.35a.94.94,0,0,0-.94-.94H15.94a1,1,0,0,0-.94.95Z"/></g><g id="shape1253-11"><path class="cls-4" d="M1.22,55.75a1,1,0,0,0,1,1H8.9a.94.94,0,0,0,.95-.94V41.1a.94.94,0,0,0-.94-.94H2.17a1,1,0,0,0-.94,1Z"/></g><g id="shape1254-13"><path class="cls-4" d="M1.22,55.75a1,1,0,0,0,1,1H8.9a.94.94,0,0,0,.95-.94V23.89A.94.94,0,0,0,8.91,23H2.17a1,1,0,0,0-.94.95Z"/></g><g id="shape1255-15"><path class="cls-5" d="M1.22,55.75a1,1,0,0,0,1,1H8.9a.94.94,0,0,0,.95-.94V41.1a.94.94,0,0,0-.94-.94H2.17a1,1,0,0,0-.94,1Z"/></g></g></g></svg>