<svg id="Layer_1" data-name="Layer 1" xmlns="http://www.w3.org/2000/svg" width="39.69" height="56.69" viewBox="0 0 39.69 56.69"><defs><style>.cls-1{fill:#3e3e3e;}.cls-1,.cls-3,.cls-4,.cls-5,.cls-6,.cls-8,.cls-9{fill-rule:evenodd;}.cls-2{fill:#59b4d9;}.cls-3,.cls-5,.cls-8,.cls-9{fill:#fff;}.cls-4{fill:#b8d432;}.cls-5{fill-opacity:0.15;}.cls-6{fill:#1e1e1e;}.cls-7{fill:none;}.cls-8{fill-opacity:0.7;}.cls-9{fill-opacity:0.4;}</style></defs><g id="group1234-1"><g id="group1235-2"><g id="shape1236-3"><path class="cls-1" d="M39.69,53.29a3.43,3.43,0,0,1-3.46,3.4H3.46A3.43,3.43,0,0,1,0,53.29H0V3.4A3.43,3.43,0,0,1,3.46,0H36.23a3.43,3.43,0,0,1,3.46,3.4h0Z"/></g><g id="shape1237-5"><rect class="cls-2" x="2.56" y="5.67" width="34.56" height="39.94"/></g><g id="shape1238-7"><path class="cls-3" d="M23.17,51.15a3.33,3.33,0,1,1-3.33-3.27,3.31,3.31,0,0,1,3.33,3.27Z"/></g><g id="shape1239-9"><path class="cls-4" d="M22,51.15A2.19,2.19,0,1,1,19.84,49,2.17,2.17,0,0,1,22,51.15Z"/></g><g id="shape1240-11"><path class="cls-5" d="M2.56,45.61V5.67H28.79L31.13,0H3.46A3.43,3.43,0,0,0,0,3.4H0V53.29a3.43,3.43,0,0,0,3.46,3.4H7.71l4.58-11.08Z"/></g><g id="shape1241-13"><path class="cls-6" d="M25.73,3.2a.84.84,0,0,1-.85.83H14.8a.84.84,0,1,1-.06-1.68H24.88A.84.84,0,0,1,25.73,3.2Z"/></g><g id="shape1242-15"><path class="cls-3" d="M25.74,3.19a.84.84,0,0,1-.85.84H14.81a.85.85,0,0,1-.89-.81.84.84,0,0,1,.82-.86H24.89A.84.84,0,0,1,25.74,3.19Zm-5.86,21a.42.42,0,0,1-.16,0L9.58,18.36A.3.3,0,0,1,9.46,18a.25.25,0,0,1,.12-.11l10.08-5.73a.32.32,0,0,1,.3,0l10.15,5.76a.31.31,0,0,1,.15.26.3.3,0,0,1-.15.26L20,24.12a.32.32,0,0,1-.16,0Z"/><path class="cls-7" d="M25.74,3.19a.84.84,0,0,1-.85.84H14.81a.85.85,0,0,1-.89-.81.84.84,0,0,1,.82-.86H24.89a.84.84,0,0,1,.85.83m-5.86,21a.42.42,0,0,1-.16,0L9.58,18.36A.3.3,0,0,1,9.46,18a.25.25,0,0,1,.12-.11l10.08-5.73a.32.32,0,0,1,.3,0l10.15,5.76a.31.31,0,0,1,.15.26.3.3,0,0,1-.15.26L20,24.12a.32.32,0,0,1-.16,0"/></g><g id="shape1243-18"><path class="cls-8" d="M18.41,38.17a.3.3,0,0,1-.15-.05L8.15,32.39A.33.33,0,0,1,8,32.12V20.6a.32.32,0,0,1,.47-.26l10.11,5.74a.28.28,0,0,1,.15.26V37.87a.3.3,0,0,1-.15.26.33.33,0,0,1-.15,0Z"/><path class="cls-7" d="M18.41,38.17a.3.3,0,0,1-.15-.05L8.15,32.39A.33.33,0,0,1,8,32.12V20.6a.32.32,0,0,1,.47-.26l10.11,5.74a.28.28,0,0,1,.15.26V37.87a.3.3,0,0,1-.15.26.33.33,0,0,1-.15,0"/></g><g id="shape1244-21"><path class="cls-9" d="M21.28,38.17a.33.33,0,0,1-.16-.05.29.29,0,0,1-.14-.26V26.41a.32.32,0,0,1,.15-.26l10.11-5.74a.29.29,0,0,1,.31,0,.3.3,0,0,1,.15.26V32.12a.31.31,0,0,1-.15.26L21.43,38.13a.33.33,0,0,1-.14,0Z"/><path class="cls-7" d="M21.28,38.17a.33.33,0,0,1-.16-.05.29.29,0,0,1-.14-.26V26.41a.32.32,0,0,1,.15-.26l10.11-5.74a.29.29,0,0,1,.31,0,.3.3,0,0,1,.15.26V32.12a.31.31,0,0,1-.15.26L21.43,38.13a.33.33,0,0,1-.14,0"/></g></g></g></svg>