<svg id="Layer_1" data-name="Layer 1" xmlns="http://www.w3.org/2000/svg" width="53.86" height="56.69" viewBox="0 0 53.86 56.69"><defs><style>.cls-1{fill:#57a300;}.cls-2{fill:#59b4d9;}.cls-2,.cls-3,.cls-4,.cls-5{fill-rule:evenodd;}.cls-3{fill:#804998;}.cls-4{fill:#68217a;}.cls-5{fill:#0072c6;}</style></defs><g id="group1226-1"><g id="group1227-2"><g id="shape1228-3"><ellipse class="cls-1" cx="26.13" cy="12.59" rx="4.58" ry="4.54"/></g><g id="shape1229-5"><ellipse class="cls-1" cx="26.47" cy="44.11" rx="4.58" ry="4.54"/></g><g id="shape1230-7"><path class="cls-2" d="M14.9,46.37H12.72A12.7,12.7,0,0,1,0,33.79v-11C.11,16.21,5.73,10.54,12.61,10.2H16a2,2,0,1,1,0,4.08H12.72c-4.58.23-8.48,4-8.48,8.4v11a8.41,8.41,0,0,0,8.48,8.39H14.9a2,2,0,0,1,2.06,2A2.1,2.1,0,0,1,14.9,46.37Z"/></g><g id="shape1231-9"><path class="cls-3" d="M41.14,46.37H36.67a2,2,0,0,1-2.06-2h0a2,2,0,0,1,2.06-2h4.47a8.41,8.41,0,0,0,8.48-8.39v-11a8.41,8.41,0,0,0-8.48-8.39H37.82a2,2,0,0,1-2.06-2h0a2,2,0,0,1,2.06-2h3.32A12.7,12.7,0,0,1,53.86,23V34A12.58,12.58,0,0,1,41.14,46.37Z"/></g><g id="shape1232-11"><path class="cls-4" d="M25.9,25.17A12.81,12.81,0,0,1,17,21.54a2.1,2.1,0,0,1,0-2.94,2.17,2.17,0,0,1,3,0,8.44,8.44,0,0,0,11.84.08l.08-.08a8.23,8.23,0,0,0,.08-11.72l-.08-.08a8.57,8.57,0,0,0-6-2.49,8.39,8.39,0,0,0-6,2.49,2.17,2.17,0,0,1-3,0,2.1,2.1,0,0,1,0-2.94A12.4,12.4,0,0,1,25.9,0a12.93,12.93,0,0,1,8.94,3.63,12.58,12.58,0,0,1,0,17.8A12.3,12.3,0,0,1,25.9,25.17Z"/></g><g id="shape1233-13"><path class="cls-5" d="M26.35,56.69a12.93,12.93,0,0,1-8.94-3.63,12.53,12.53,0,0,1,8.94-21.43,13,13,0,0,1,8.94,3.63,2.09,2.09,0,0,1,0,3,2.17,2.17,0,0,1-3,0,8.57,8.57,0,0,0-6-2.49,8.37,8.37,0,0,0-6,2.49,8.23,8.23,0,0,0-.07,11.72l.07.07a8.38,8.38,0,0,0,11.77.15l.15-.15a2.17,2.17,0,0,1,3,0,2.09,2.09,0,0,1,0,3A12.35,12.35,0,0,1,26.35,56.69Z"/></g></g></g></svg>