<svg id="Layer_1" data-name="Layer 1" xmlns="http://www.w3.org/2000/svg" xmlns:xlink="http://www.w3.org/1999/xlink" width="56.69" height="56.69" viewBox="0 0 56.69 56.69"><defs><style>.cls-1{fill:url(#linear-gradient);}.cls-2{fill:#fff;}.cls-3{fill:#9cebff;}.cls-3,.cls-4,.cls-5,.cls-6{fill-rule:evenodd;}.cls-4{fill:#32bedd;}.cls-5{fill:#50e6ff;}.cls-6{fill:#f04049;}.cls-7{fill:url(#radial-gradient);}</style><linearGradient id="linear-gradient" x1="-272.71" y1="418.63" x2="-271.71" y2="418.63" gradientTransform="matrix(56.69, 0, 0, -56.69, 15460.96, 23761.53)" gradientUnits="userSpaceOnUse"><stop offset="0.18" stop-color="#5ea0ef"/><stop offset="0.56" stop-color="#5c9fee"/><stop offset="0.69" stop-color="#559ced"/><stop offset="0.78" stop-color="#4a97e9"/><stop offset="0.86" stop-color="#3990e4"/><stop offset="0.93" stop-color="#2387de"/><stop offset="0.99" stop-color="#087bd6"/><stop offset="1" stop-color="#0078d4"/></linearGradient><radialGradient id="radial-gradient" cx="-246.64" cy="383.54" r="1.4" gradientTransform="matrix(8, 0, 0, -8.03, 1998.37, 3104.96)" gradientUnits="userSpaceOnUse"><stop offset="0.19" stop-color="#8c8e90"/><stop offset="0.35" stop-color="#848688"/><stop offset="0.6" stop-color="#6e7071"/><stop offset="0.91" stop-color="#4a4b4c"/><stop offset="1" stop-color="#3e3f3f"/></radialGradient></defs><g id="group1217-1"><g id="group1218-2"><g id="shape1219-3"><circle class="cls-1" cx="28.35" cy="28.35" r="28.35"/></g><g id="shape1220-7"><ellipse class="cls-2" cx="28.35" cy="28.35" rx="24.68" ry="24.67"/></g><g id="shape1221-9"><path class="cls-3" d="M7.4,29.82A20.92,20.92,0,0,0,13.47,43.2l6.67-6.69a11.91,11.91,0,0,1-3.34-6.69Z"/></g><g id="shape1222-11"><path class="cls-4" d="M42.12,12.52A20.82,20.82,0,0,0,29.81,7.4v9.33a11.34,11.34,0,0,1,5.7,2.35Zm-27.55,0,6.67,6.69a11.4,11.4,0,0,1,5.7-2.34V7.4A20.86,20.86,0,0,0,14.57,12.52Zm23,8.63A12,12,0,0,1,40,26.87h9.31a20.61,20.61,0,0,0-5.11-12.28Z"/></g><g id="shape1223-13"><path class="cls-5" d="M19.07,21.15,12.4,14.46a20.71,20.71,0,0,0-5,12.41h9.3A12.13,12.13,0,0,1,19.07,21.15Z"/></g><g id="shape1224-15"><path class="cls-6" d="M45.49,21.65a1.5,1.5,0,0,0-1.9-.83L29.85,26.37l1.07,2.71,13.74-5.45a1.47,1.47,0,0,0,.86-1.89Z"/></g><g id="shape1225-17"><ellipse class="cls-7" cx="28.35" cy="28.35" rx="4" ry="4.02"/></g></g></g></svg>