<svg id="Layer_1" data-name="Layer 1" xmlns="http://www.w3.org/2000/svg" xmlns:xlink="http://www.w3.org/1999/xlink" width="55.17" height="55.17" viewBox="0 0 55.17 55.17"><defs><style>.cls-1,.cls-2,.cls-5{fill-rule:evenodd;}.cls-1{fill:url(#linear-gradient);}.cls-2{fill:#9cebff;}.cls-3,.cls-5{fill:#fff;}.cls-4{fill:#86d633;}</style><linearGradient id="linear-gradient" x1="-285.3" y1="418.44" x2="-284.3" y2="418.44" gradientTransform="matrix(0, -40.09, -40.09, 0, 16802.92, -11390.22)" gradientUnits="userSpaceOnUse"><stop offset="0" stop-color="#238ab0"/><stop offset="0.11" stop-color="#2da4c8"/><stop offset="0.78" stop-color="#3ed3f2"/></linearGradient></defs><g id="group1206-1"><g id="group1207-2"><g id="shape1208-3"><path class="cls-1" d="M26.29,54.63a1.83,1.83,0,0,0,2.59,0h0L54.63,28.89a1.84,1.84,0,0,0,0-2.6h0L28.89.54a1.83,1.83,0,0,0-2.6,0h0L.54,26.29a1.82,1.82,0,0,0,0,2.59h0Z"/></g><g id="shape1209-7"><path class="cls-2" d="M43.42,30.91,42.3,29.79V25.5H33.42v4.73h4l-10,10-10-10h4.05V25.5H11.68v4.73h.37l-.67.68,14,14,2-2,2,2Z"/></g><g id="shape1210-9"><ellipse class="cls-3" cx="11.97" cy="27.87" rx="4.9" ry="4.93" transform="translate(-16.22 16.69) rotate(-45.12)"/></g><g id="shape1211-11"><ellipse class="cls-4" cx="11.97" cy="27.87" rx="2.79" ry="2.81" transform="translate(-16.21 16.66) rotate(-45.06)"/></g><g id="shape1212-13"><ellipse class="cls-3" cx="43.18" cy="27.87" rx="4.9" ry="4.93" transform="translate(-7.04 38.8) rotate(-45.12)"/></g><g id="shape1213-15"><ellipse class="cls-4" cx="43.18" cy="27.87" rx="2.79" ry="2.81" transform="translate(-7.05 38.75) rotate(-45.06)"/></g><g id="shape1214-17"><path class="cls-5" d="M33.93,14.55,27.72,8.33a.47.47,0,0,0-.66,0h0l-6.23,6.22a.46.46,0,0,0,0,.66.48.48,0,0,0,.34.14h3.53a.33.33,0,0,1,.33.33h0V47.59h4.74V15.68a.32.32,0,0,1,.31-.33h3.51a.47.47,0,0,0,.48-.45.5.5,0,0,0-.14-.35Z"/></g><g id="shape1215-19"><ellipse class="cls-3" cx="27.39" cy="43.57" rx="4.9" ry="4.93" transform="translate(-22.81 32.23) rotate(-45.12)"/></g><g id="shape1216-21"><ellipse class="cls-4" cx="27.39" cy="43.57" rx="2.79" ry="2.81" transform="translate(-22.8 32.18) rotate(-45.06)"/></g></g></g></svg>