<svg id="Layer_1" data-name="Layer 1" xmlns="http://www.w3.org/2000/svg" xmlns:xlink="http://www.w3.org/1999/xlink" width="56.69" height="51.02" viewBox="0 0 56.69 51.02"><defs><style>.cls-1{fill:#ffca00;}.cls-1,.cls-2,.cls-3,.cls-4,.cls-5,.cls-7{fill-rule:evenodd;}.cls-2{fill:url(#linear-gradient);}.cls-3{fill:#b4ec36;}.cls-4{fill:#365615;}.cls-5,.cls-6{fill:#f2f2f2;}.cls-7{fill:#3b3b3b;}</style><linearGradient id="linear-gradient" x1="-283.57" y1="417.2" x2="-282.57" y2="417.2" gradientTransform="matrix(0, -51.02, -45.89, 0, 19173.91, -14416.53)" gradientUnits="userSpaceOnUse"><stop offset="0" stop-color="#5e9641"/><stop offset="0.34" stop-color="#6baa42"/><stop offset="0.67" stop-color="#73b743"/><stop offset="1" stop-color="#76bb43"/></linearGradient></defs><g id="group1194-1"><g id="group1195-2"><g id="shape1196-3"><path class="cls-1" d="M51.32,4.79h4.24A1.15,1.15,0,0,1,56.69,6v11.9A1.14,1.14,0,0,1,55.56,19H51.32Zm0,20.72h4.24a1.15,1.15,0,0,1,1.13,1.15V46.6a1.13,1.13,0,0,1-1.13,1.15H51.32Z"/></g><g id="shape1197-5"><path class="cls-2" d="M5.44,48.68A2.32,2.32,0,0,0,7.74,51H49a2.33,2.33,0,0,0,2.3-2.34V2.35A2.32,2.32,0,0,0,49,0H7.74a2.32,2.32,0,0,0-2.3,2.35h0Z"/></g><g id="shape1198-9"><path class="cls-3" d="M18,38.77H15.64a.67.67,0,0,1-.64-.71h0V9.66a.65.65,0,0,1,.6-.68h6.47a.64.64,0,0,1,.63.65v0a.67.67,0,0,1-.63.72h-5.8v27H18a.68.68,0,0,1,.63.72h0a.7.7,0,0,1-.63.71Z"/></g><g id="shape1199-11"><path class="cls-3" d="M18.34,42.24H13a.66.66,0,0,1-.63-.71h0L11.94,6.39a.66.66,0,0,1,.2-.51.51.51,0,0,1,.43-.2h9.51V7.07H13.24l.4,33.74h4.7Zm20-3.13h-5.3a.63.63,0,0,1-.47-.23.66.66,0,0,1-.2-.48V21.77a.65.65,0,0,1,.6-.68h3.07V13.43h1.27v8.3a.68.68,0,0,1-.6.72h-3v15h4.67Z"/></g><g id="shape1200-13"><path class="cls-4" d="M21.91,12.38a.88.88,0,0,0,.87.89H41.52a.87.87,0,0,0,.87-.88V3.57a.87.87,0,0,0-.87-.88H22.78a.88.88,0,0,0-.87.89Z"/></g><g id="shape1201-15"><path class="cls-4" d="M25.06,31.76a.88.88,0,0,0-.89.87v14.6a.87.87,0,0,0,.88.87H27a.86.86,0,0,0,.88-.86V32.63a.88.88,0,0,0-.89-.86Z"/></g><g id="shape1202-17"><path class="cls-4" d="M18.86,31.83a.88.88,0,0,0-.89.87V47.3a.87.87,0,0,0,.88.87H20.8a.88.88,0,0,0,.88-.86V32.7a.87.87,0,0,0-.89-.86Z"/></g><g id="shape1203-19"><path class="cls-5" d="M38.8,31.83a.88.88,0,0,0-.89.87V47.3a.87.87,0,0,0,.88.87h1.94a.87.87,0,0,0,.88-.86V32.7a.87.87,0,0,0-.89-.86Z"/></g><g id="shape1204-21"><ellipse class="cls-6" cx="25.38" cy="22.31" rx="3.47" ry="3.81"/></g><g id="shape1205-23"><path class="cls-7" d="M5.37,51H1.13A1.14,1.14,0,0,1,0,50V30.07a1.14,1.14,0,0,1,1.13-1.16H5.37Z"/></g></g></g></svg>