<svg id="Layer_1" data-name="Layer 1" xmlns="http://www.w3.org/2000/svg" width="56.7" height="55.27" viewBox="0 0 56.7 55.27"><defs><style>.cls-1{fill:#59b4d9;}.cls-1,.cls-2,.cls-3,.cls-5,.cls-6,.cls-7{fill-rule:evenodd;}.cls-2{fill:#a0a1a2;}.cls-3,.cls-4,.cls-5{fill:#fff;}.cls-3{fill-opacity:0.2;}.cls-6{fill:#3999c6;}.cls-7,.cls-8{fill:#57a300;}</style></defs><g id="group1162-1"><g id="group1163-2"><g id="shape1164-3"><path class="cls-1" d="M0,28.87v24.8a1.59,1.59,0,0,0,1.59,1.59H16.93l3.7-3.62c2.29-2.72,4.08-.94,4.08-.94v.07c1.85,1.74-.48,4-.48,4l-.54.51h14.1a1.59,1.59,0,0,0,1.59-1.59h0V28.87Z"/></g><g id="shape1165-5"><path class="cls-2" d="M37.79,45.23H1.59A1.58,1.58,0,0,0,0,46.8v8.46H39.38V46.82a1.59,1.59,0,0,0-1.59-1.59Z"/></g><g id="shape1166-7"><path class="cls-3" d="M1.59,21.49A1.59,1.59,0,0,0,0,23.08H0v30.6a1.59,1.59,0,0,0,1.59,1.57H3.31l31-33.77Z"/></g><g id="shape1167-9"><rect class="cls-4" x="10.12" y="2.35" width="26.52" height="3.12"/></g><g id="shape1168-11"><path class="cls-1" d="M8.91,3.85A3.85,3.85,0,1,1,5.05,0h0A3.86,3.86,0,0,1,8.91,3.85Z"/></g><g id="shape1169-13"><path class="cls-5" d="M4.66,4.29,6.41,6.15h-1L3.13,3.91,5.45,1.68h.94L4.66,3.52H8.9v.77ZM13.72,24a1.46,1.46,0,0,1-.48,1.11A1.81,1.81,0,0,1,12,25.5a1.72,1.72,0,0,1-1.19-.44A1.4,1.4,0,0,1,10.3,24,1.36,1.36,0,0,1,10.79,23,1.82,1.82,0,0,1,12,22.53a1.75,1.75,0,0,1,1.21.43A1.41,1.41,0,0,1,13.72,24Zm7,0a1.44,1.44,0,0,1-.49,1.11A1.81,1.81,0,0,1,19,25.5a1.71,1.71,0,0,1-1.14-.44,1.48,1.48,0,0,1,0-2.22,1.82,1.82,0,0,1,1.24-.42,1.76,1.76,0,0,1,1.2.43A1.4,1.4,0,0,1,20.74,24Zm7,0a1.45,1.45,0,0,1-.45,1.11A1.81,1.81,0,0,1,26,25.5a1.72,1.72,0,0,1-1.19-.44A1.4,1.4,0,0,1,24.36,24,1.36,1.36,0,0,1,24.85,23a1.82,1.82,0,0,1,1.24-.42,1.73,1.73,0,0,1,1.21.31A1.39,1.39,0,0,1,27.75,24Z"/></g><g id="shape1170-15"><path class="cls-6" d="M56.38,42.41a1.3,1.3,0,0,0,0-1.7l-2.26-2.27L44,28.54a1,1,0,0,0-1.48-.12l-.12.12a1.13,1.13,0,0,0-.13,1.58l.13.12L53,40.71a1.21,1.21,0,0,1,0,1.69h0L42.21,53.25a1.2,1.2,0,0,0,0,1.69h0a1.16,1.16,0,0,0,1.59,0l10-10,.09-.09ZM10,42.41a1.28,1.28,0,0,1,0-1.7l2.26-2.27,10.13-9.91a1,1,0,0,1,1.48-.11,1.31,1.31,0,0,1,.23,1.69l-.12.12L13.59,40.7a1.2,1.2,0,0,0,0,1.69h0L24.15,53.25a1.21,1.21,0,0,1,0,1.69h0a1.15,1.15,0,0,1-1.6,0L12.37,45l-.09-.09Z"/></g><g id="shape1171-17"><path class="cls-7" d="M26.81,41.55a3.16,3.16,0,0,1-3.09,3.11,3.43,3.43,0,0,1-3.29-3.11,3.16,3.16,0,0,1,3.2-3.11h.09a3.08,3.08,0,0,1,3.09,3.06Zm9.48,0a3.16,3.16,0,0,1-3.09,3.11,3.43,3.43,0,0,1-3.29-3.11,3.31,3.31,0,0,1,3.29-3.11A3.17,3.17,0,0,1,36.29,41.55Z"/></g><g id="shape1172-19"><ellipse class="cls-8" cx="42.77" cy="41.55" rx="3.1" ry="3.11"/></g></g></g></svg>