<svg id="Layer_1" data-name="Layer 1" xmlns="http://www.w3.org/2000/svg" width="42.52" height="56.7" viewBox="0 0 42.52 56.7"><defs><style>.cls-1{fill:#0072c6;}.cls-1,.cls-2,.cls-3,.cls-4{fill-rule:evenodd;}.cls-2{fill:#3999c6;fill-opacity:0.4;}.cls-3,.cls-4{fill:#fff;}.cls-3{fill-opacity:0.3;}.cls-4{fill-opacity:0.7;}</style></defs><g id="group1186-1"><g id="group1187-2"><g id="shape1188-3"><path class="cls-1" d="M36.25,6.82C23.47,5.46,21.26,0,21.26,0s-2.9,7-21.26,7V36.14C0,39.66,2,43,4.76,45.79,11,52.27,21.26,56.7,21.26,56.7s21.26-9.09,21.26-20.56V7.05C40.2,7.05,38.11,6.94,36.25,6.82Z"/></g><g id="shape1189-5"><path class="cls-2" d="M26.6,18.75,36.25,6.82C23.47,5.46,21.26,0,21.26,0S18.36,7.05,0,7.05V36.13C0,39.65,2,43,4.76,45.79L12,36.93Z"/></g><g id="group1190-7"><g id="shape1191-8"><path class="cls-3" d="M4.41,27.73v6.93c0,2.84,1.63,5.45,3.83,7.72,5,5.23,13.13,8.64,13.13,8.64V27.73Z"/></g><g id="shape1192-10"><path class="cls-4" d="M21.26,51s17-7.27,17-16.36V27.73h-17Zm0-45.22s-2.32,5.68-17,5.68V27.73h17Z"/></g><g id="shape1193-12"><path class="cls-3" d="M33.11,11.26C23,10.12,21.26,5.92,21.26,5.92V27.73h17V11.48C36.36,11.48,34.62,11.37,33.11,11.26Z"/></g></g></g></g></svg>