<svg id="Layer_1" data-name="Layer 1" xmlns="http://www.w3.org/2000/svg" xmlns:xlink="http://www.w3.org/1999/xlink" width="45.35" height="56.69" viewBox="0 0 45.35 56.69"><defs><style>.cls-1{fill:#0078d4;}.cls-1,.cls-2,.cls-3,.cls-4{fill-rule:evenodd;}.cls-2{fill:#6bb9f2;}.cls-3{fill:url(#linear-gradient);}.cls-4{fill:#50e6ff;}</style><linearGradient id="linear-gradient" x1="-275.59" y1="430.47" x2="-274.59" y2="430.47" gradientTransform="matrix(0, 51.97, 41.52, 0, -17851.88, 14324.92)" gradientUnits="userSpaceOnUse"><stop offset="0" stop-color="#5ea0ef"/><stop offset="0.18" stop-color="#559cec"/><stop offset="0.47" stop-color="#3c91e5"/><stop offset="0.84" stop-color="#1380da"/><stop offset="1" stop-color="#0078d4"/></linearGradient></defs><g id="group1180-1"><g id="group1181-2"><g id="shape1182-3"><path class="cls-1" d="M45.35,26.46c0,15.25-18,27.53-21.93,30a1.41,1.41,0,0,1-1.48,0C18,54,0,41.71,0,26.46V8.13A1.44,1.44,0,0,1,1.39,6.68C15.41,6.3,12.17,0,22.68,0S30,6.3,44,6.68a1.43,1.43,0,0,1,1.38,1.45Z"/></g><g id="shape1183-5"><path class="cls-2" d="M43.48,26.62c0,14-16.52,25.2-20.12,27.53a1.33,1.33,0,0,1-1.36,0C18.39,51.88,1.88,40.61,1.88,26.62V9.8A1.31,1.31,0,0,1,3.14,8.48C16,8.13,13,2.37,22.68,2.37s6.68,5.76,19.53,6.11A1.31,1.31,0,0,1,43.48,9.8Z"/></g><g id="shape1184-7"><path class="cls-3" d="M22.68,28.36v-26c9.64,0,6.68,5.76,19.53,6.11a1.33,1.33,0,0,1,1.26,1.35V26.65a16.26,16.26,0,0,1,0,1.71Zm0,0H2C3.2,41.52,18.55,52,22,54.15a1.39,1.39,0,0,0,.55.19h.13Z"/></g><g id="shape1185-11"><path class="cls-4" d="M3.14,8.48C16,8.13,13,2.37,22.68,2.37v26H2a16.26,16.26,0,0,1,0-1.71V9.83A1.34,1.34,0,0,1,3.14,8.48ZM43.38,28.36H22.68v26a1.39,1.39,0,0,0,.55-.19C26.81,52,42.15,41.52,43.38,28.36Z"/></g></g></g></svg>