<svg id="Layer_1" data-name="Layer 1" xmlns="http://www.w3.org/2000/svg" xmlns:xlink="http://www.w3.org/1999/xlink" width="56.05" height="56.06" viewBox="0 0 56.05 56.06"><defs><style>.cls-1{fill:#198ab3;}.cls-1,.cls-2,.cls-5{fill-rule:evenodd;}.cls-2{fill:url(#radial-gradient);}.cls-3{fill:#50e6ff;}.cls-4{fill:#fff;}.cls-5{fill:#76bc2d;}</style><radialGradient id="radial-gradient" cx="-270.57" cy="416.31" r="0.5" gradientTransform="matrix(41, 0, 0, -40.63, 11128.39, 16933)" gradientUnits="userSpaceOnUse"><stop offset="0" stop-color="#5ea0ef"/><stop offset="0.28" stop-color="#5b9fee"/><stop offset="0.47" stop-color="#529bec"/><stop offset="0.64" stop-color="#4394e7"/><stop offset="0.79" stop-color="#2d8be1"/><stop offset="0.93" stop-color="#117fd9"/><stop offset="1" stop-color="#0078d4"/></radialGradient></defs><g id="group1173-1"><g id="group1174-2"><g id="shape1175-3"><path class="cls-1" d="M.8,55.46a2.08,2.08,0,0,0,2.94,0L14.58,44.61a2.07,2.07,0,0,0,0-2.94l-.19-.19a2.07,2.07,0,0,0-2.94,0h0L.62,52.32a2.09,2.09,0,0,0,0,3h0Z"/></g><g id="shape1176-5"><path class="cls-2" d="M54.66,12.68a20.76,20.76,0,0,0-2.49-4.46A20.72,20.72,0,0,0,23.23,4.13h0L23,4.3a20.41,20.41,0,0,0-7.32,11,16.79,16.79,0,0,1-.43,2.18,20.58,20.58,0,0,0,6.26,18,6.49,6.49,0,0,0,.73.66l.73.59a19,19,0,0,0,3.11,2l.33.2.57.23.46.23.5.2.53.19.46.17.66.2H30l1,.26,1.06.23h.26a5.75,5.75,0,0,0,.83,0h5a16.37,16.37,0,0,0,2.51-.49,20.86,20.86,0,0,0,11.07-7.36A20.61,20.61,0,0,0,54.66,12.68ZM49.85,9.61h-4A19.38,19.38,0,0,0,42.9,4.13,17.65,17.65,0,0,1,50,9.61ZM36.9,3a10.79,10.79,0,0,1,6,6.6h-6Zm0,9.37h6.86a29.87,29.87,0,0,1,1.09,7h-8Zm0,9.6h8a30,30,0,0,1-1.09,7H37V21.84ZM26.57,17.26a29.45,29.45,0,0,1,.92-5h6.86v7H26.43C26.47,18.55,26.5,17.89,26.57,17.26ZM34.35,2.88v6.6H28.42A10.69,10.69,0,0,1,34.35,2.88Zm-9.71,3.5a19.29,19.29,0,0,1,3.65-2.12,20.39,20.39,0,0,0-2.92,5.51H21.53A19.24,19.24,0,0,1,24.64,6.38Zm-4.93,5.87h5.13a31.48,31.48,0,0,0-.79,4.42c0,.82-.17,1.68-.17,2.54H17.72a23.67,23.67,0,0,1,.5-2.48A20.15,20.15,0,0,1,19.71,12.25Zm-2,9.59h6.06a31.19,31.19,0,0,0,1.06,7H19.71A17.67,17.67,0,0,1,17.72,21.84Zm3.81,9.7h4A19.64,19.64,0,0,0,28.45,37,17.57,17.57,0,0,1,21.53,31.54Zm12.89,6.6a10.69,10.69,0,0,1-5.93-6.6h5.93Zm0-9.37H27.49a30.54,30.54,0,0,1-1.06-7h7.92v7.06Zm5.07,8a6.44,6.44,0,0,1-2.42,1.39v-6.6h6a14.64,14.64,0,0,1-3.61,5.28Zm7.22-2.14a17,17,0,0,1-3.81,2.24,19.32,19.32,0,0,0,2.91-5.47H50A17.39,17.39,0,0,1,46.71,34.61Zm4.9-5.87h-5a34.3,34.3,0,0,0,1-7h6a17.09,17.09,0,0,1-2,7.09Zm-4-9.53a34.11,34.11,0,0,0-1-7h5a18.09,18.09,0,0,1,2,7Z"/></g><g id="shape1177-9"><ellipse class="cls-3" cx="19.41" cy="34.41" rx="13.38" ry="13.32"/></g><g id="shape1178-11"><ellipse class="cls-4" cx="19.38" cy="34.18" rx="10.5" ry="10.46"/></g><g id="shape1179-13"><path class="cls-5" d="M14,34.41l2.65,6.13,2.68-7.88,2.22,4.49,2.75-4.62h4.27A10.66,10.66,0,0,0,28.16,31H23.55l-1.79,3L19,28.77l-2.55,7.49L14.14,31l-2.85,5.17H9.77a9.15,9.15,0,0,0,.5,1.56h1.92Z"/></g></g></g></svg>