<svg id="Layer_1" data-name="Layer 1" xmlns="http://www.w3.org/2000/svg" xmlns:xlink="http://www.w3.org/1999/xlink" width="56.7" height="34.01" viewBox="0 0 56.7 34.01"><defs><style>.cls-1,.cls-2,.cls-3,.cls-4{fill-rule:evenodd;}.cls-2{fill:#333;}.cls-3{fill:#699f63;}.cls-4{fill:url(#linear-gradient);}</style><linearGradient id="linear-gradient" x1="-264.6" y1="455.51" x2="-263.6" y2="455.51" gradientTransform="matrix(-6, 11.84, 10.7, 6.64, -6439.42, 115.17)" gradientUnits="userSpaceOnUse"><stop offset="0" stop-color="#41873f"/><stop offset="0.33" stop-color="#418b3d"/><stop offset="0.64" stop-color="#409637"/><stop offset="0.93" stop-color="#3fa92d"/><stop offset="1" stop-color="#3fae2a"/></linearGradient></defs><g id="group1153-1"><g id="group1154-2"><g id="shape1155-3"><path class="cls-1" d="M6.31,34a1,1,0,0,1-.54-.14L4,32.88c-.27-.14-.14-.2-.05-.22a3.25,3.25,0,0,0,.79-.34.15.15,0,0,1,.13,0l1.36.77a.15.15,0,0,0,.16,0l5.22-2.91a.15.15,0,0,0,.08-.14V24.22a.17.17,0,0,0-.08-.14L6.4,21.13H6.26L1,24a.18.18,0,0,0-.08.15V30a.16.16,0,0,0,.08.14l1.43.8c.77.37,1.25-.08,1.25-.51V24.72a.15.15,0,0,1,.15-.14h.67a.16.16,0,0,1,.16.15h0v5.74A1.41,1.41,0,0,1,3.44,32h-.3a2.15,2.15,0,0,1-1.23-.35L.55,30.92A1,1,0,0,1,0,30V24.22a1.06,1.06,0,0,1,.55-.88l5.22-2.91a1.19,1.19,0,0,1,1.1,0l5.22,2.91a1.06,1.06,0,0,1,.55.88V30a1,1,0,0,1-.55.88L6.87,33.83a1,1,0,0,1-.56.18Z"/></g><g id="shape1156-5"><path class="cls-1" d="M29.41,30.22c-2.28,0-2.73-1-2.73-1.86a.15.15,0,0,1,.14-.15h.69a.14.14,0,0,1,.15.12c.09.66.4,1,1.82,1,1.1,0,1.56-.23,1.56-.8,0-.32-.13-.56-1.82-.73-1.43-.14-2.31-.44-2.31-1.54s.91-1.63,2.38-1.63c1.67,0,2.5.56,2.6,1.76a.15.15,0,0,1-.14.16h-.69a.14.14,0,0,1-.14-.12c-.17-.69-.56-.88-1.63-.88S28,26,28,26.26s.16.47,1.82.67,2.37.5,2.37,1.59-1.08,1.7-2.73,1.7Zm7.53-6.1a1,1,0,1,1-1-1,1,1,0,0,1,1,1Zm-1.82,0a.85.85,0,1,0,.86-.81h0a.83.83,0,0,0-.86.8h0Zm.46-.54H36c.14,0,.39,0,.39.29a.24.24,0,0,1-.21.26c.16,0,.17.11.19.25a1.47,1.47,0,0,0,0,.29H36.1v-.35s0-.09-.12-.09h-.2v.43h-.23Zm.21.47H36a.16.16,0,0,0,.18-.13v0c0-.15-.11-.15-.17-.15h-.18Z"/></g><g id="shape1157-7"><path class="cls-2" d="M12.42,11.67a.64.64,0,0,0-.34-.56L6.54,8A.75.75,0,0,0,6.24,8h0A.8.8,0,0,0,5.88,8L.34,11.12a.65.65,0,0,0-.34.56V20a.31.31,0,0,0,.16.28.32.32,0,0,0,.33,0l3.32-1.83a.64.64,0,0,0,.34-.56V14a.64.64,0,0,1,.34-.56l1.4-.78a.67.67,0,0,1,.34-.09.63.63,0,0,1,.33.09L8,13.42A.65.65,0,0,1,8.3,14v3.87a.64.64,0,0,0,.34.56l3.27,1.85a.34.34,0,0,0,.34,0,.32.32,0,0,0,.16-.28ZM38.27,0A.24.24,0,0,0,38,0c-.09.06-.08.17-.08.28V8.57c0,.08-.12.16-.2.19a.32.32,0,0,1-.27,0L36.06,8a.72.72,0,0,0-.67,0L29.92,11c-.21.11-.22.32-.22.56v6.15c0,.23,0,.44.22.57l5.46,3.08a.61.61,0,0,0,.64,0l5.36-3.08c.21-.12.14-.33.14-.57V2.42c0-.23,0-.45-.17-.56Zm-.34,15.74c0,.06-.12.11-.17.14l-1.94,1a.21.21,0,0,1-.19,0l-2-1c-.06-.06-.22-.06-.22-.14V13.66c0-.06.16-.12.21-.14l2-1.07a.23.23,0,0,1,.2,0l2,1.07c.06,0,.19.08.19.14Zm18.43-2a.64.64,0,0,0,.34-.56v-1.5a.64.64,0,0,0-.34-.56L50.89,8a.67.67,0,0,0-.67,0l-5.54,3.09a.65.65,0,0,0-.34.56v6.15a.64.64,0,0,0,.34.56l5.46,3a.7.7,0,0,0,.66,0l3.32-1.76a.31.31,0,0,0,.12-.44.34.34,0,0,0-.12-.12L48.55,16a.32.32,0,0,1-.16-.28V13.8a.33.33,0,0,1,.16-.28l1.74-1a.34.34,0,0,1,.34,0l1.74,1a.33.33,0,0,1,.16.28v1.52a.32.32,0,0,0,.34.32.29.29,0,0,0,.16,0Z"/></g><g id="shape1158-9"><path class="cls-3" d="M50.43,13.45a.15.15,0,0,1,.13,0l1.06.59a.12.12,0,0,1,.07.1v1.19a.11.11,0,0,1-.06.1l-1.07.6a.13.13,0,0,1-.12,0l-1.08-.59a.14.14,0,0,1-.06-.11V14.11a.14.14,0,0,1,.07-.11Z"/></g><g id="shape1159-11"><path class="cls-4" d="M20.89,8a.7.7,0,0,0-.66,0L14.76,11a.67.67,0,0,0-.34.56v6.14a.65.65,0,0,0,.34.56l5.46,3.07a.67.67,0,0,0,.67,0l5.46-3.07a.62.62,0,0,0,.34-.55V11.57a.62.62,0,0,0-.34-.55Z"/></g><g id="group1160-15"><g id="shape1161-16"><path class="cls-1" d="M20.89,8a.7.7,0,0,0-.66,0L14.76,11a.67.67,0,0,0-.34.56v6.14a.65.65,0,0,0,.34.56l5.46,3.07a.67.67,0,0,0,.67,0l5.46-3.07a.62.62,0,0,0,.34-.55V11.57a.62.62,0,0,0-.34-.55Z"/></g></g></g></g></svg>