<svg id="Layer_1" data-name="Layer 1" xmlns="http://www.w3.org/2000/svg" xmlns:xlink="http://www.w3.org/1999/xlink" width="56.69" height="48.29" viewBox="0 0 56.69 48.29"><defs><style>.cls-1,.cls-2,.cls-3{fill-rule:evenodd;}.cls-1{fill:url(#linear-gradient);}.cls-2{fill:#ffe452;}.cls-3{fill:#fff;}</style><linearGradient id="linear-gradient" x1="-269.46" y1="425.35" x2="-268.46" y2="425.35" gradientTransform="matrix(0, 48.29, 56.69, 0, -24084.45, 13011.51)" gradientUnits="userSpaceOnUse"><stop offset="0" stop-color="#ffd70f"/><stop offset="0.34" stop-color="#eeb309"/><stop offset="0.77" stop-color="#dc8c03"/><stop offset="1" stop-color="#d57d01"/></linearGradient></defs><g id="group1148-1"><g id="group1149-2"><g id="shape1150-3"><path class="cls-1" d="M56.69,2V38.92a2,2,0,0,1-1.93,2H39.65a.47.47,0,0,0-.47.48v6a.93.93,0,0,1-1.5.75L28.61,41H2a2,2,0,0,1-2-1.94V2A2,2,0,0,1,1.93,0h52.8a2,2,0,0,1,2,2Z"/></g><g id="shape1151-7"><path class="cls-2" d="M5.17,24.15l10,8.59a1,1,0,0,0,1.36-.16,1,1,0,0,0,.21-.59V28.24H56.62v-5.8H5.77a1,1,0,0,0-.9,1.06,1.06,1.06,0,0,0,.3.65Z"/></g><g id="shape1152-9"><path class="cls-3" d="M52.49,46.35,42.12,37.76a1,1,0,0,0-1.36.16,1.06,1.06,0,0,0-.21.59v3.75H0v5.93H51.89A1,1,0,0,0,53,47.34a1,1,0,0,0-.48-1Z"/></g></g></g></svg>