<svg id="Layer_1" data-name="Layer 1" xmlns="http://www.w3.org/2000/svg" width="53.86" height="49.77" viewBox="0 0 53.86 49.77"><defs><style>.cls-1{fill:#c32034;}.cls-1,.cls-2,.cls-3,.cls-4,.cls-5{fill-rule:evenodd;}.cls-2{fill:#db212f;}.cls-3{fill:#ea2227;}.cls-4{fill:#ad213a;}.cls-5{fill:#ba2034;}</style></defs><g id="group1120-1"><g id="group1121-2"><g id="shape1122-3"><path class="cls-1" d="M15.63,22.34,7,25.52a21.31,21.31,0,0,0,.71,4.15l8.2-3A17.35,17.35,0,0,1,15.63,22.34Zm38.23-9.65A25.6,25.6,0,0,0,51.78,9.1l-8.65,3.18a17.31,17.31,0,0,1,2.56,3.43S53.86,12.69,53.86,12.69Z"/></g><g id="shape1123-5"><path class="cls-2" d="M34.84,10.22a16.26,16.26,0,0,1,4.68,3.37l8.64-3.18a24.63,24.63,0,0,0-42.5,4A25,25,0,0,0,3.43,26.82l8.65-3.18A16.22,16.22,0,0,1,13.53,18,16,16,0,0,1,34.84,10.22Z"/></g><g id="shape1124-7"><path class="cls-3" d="M8.2,29.42l-8.2,3a26,26,0,0,0,3.86,8.45l8.61-3.18A16.45,16.45,0,0,1,8.2,29.42Z"/></g><g id="shape1125-9"><path class="cls-2" d="M44.06,26.13a16.87,16.87,0,0,1-1.45,5.6,16,16,0,0,1-21.34,7.82,16.45,16.45,0,0,1-4.68-3.37L8,39.36a24.64,24.64,0,0,0,42.5-4A24.92,24.92,0,0,0,52.71,23Z"/></g><g id="shape1126-11"><path class="cls-3" d="M46.19,15.49l-8.2,3a16.23,16.23,0,0,1,2,9.12l8.62-3.18A25.49,25.49,0,0,0,46.19,15.49Z"/></g><g id="shape1127-13"><path class="cls-4" d="M7,25.5l8.61-3.14,0,1.72-8.31,3.1ZM43.12,12.23l8.76-3,.93,1.34-8.5,3S43.12,12.23,43.12,12.23Z"/></g><g id="shape1128-15"><path class="cls-5" d="M7.94,39.35l8.61-3.11,2.6,2.43L10.09,42S7.94,39.35,7.94,39.35ZM52.83,23l-8.76,3.14-.63,3.48,9.36-3.29S52.83,23,52.83,23Z"/></g></g></g></svg>