<svg id="Layer_1" data-name="Layer 1" xmlns="http://www.w3.org/2000/svg" width="56.15" height="51.02" viewBox="0 0 56.15 51.02"><defs><style>.cls-1{fill:#0072c6;}.cls-1,.cls-2,.cls-3,.cls-4,.cls-5,.cls-7,.cls-9{fill-rule:evenodd;}.cls-2,.cls-3,.cls-9{fill:#fff;}.cls-2{fill-opacity:0.2;}.cls-4{fill:#b8d432;}.cls-5,.cls-8{fill:#7fba00;}.cls-6{fill:#3999c6;}.cls-7{fill:#59b4d9;}.cls-9{fill-opacity:0.25;}</style></defs><g id="group1129-1"><g id="shape1130-2"><path class="cls-1" d="M0,18.93V46.26C0,48.89,6,51,13.48,51h.18C21,51,27,48.87,27,46.26V18.93Z"/></g><g id="shape1131-4"><path class="cls-2" d="M0,18.93V46.19C0,48.86,6.31,51,13.86,51V18.93Z"/></g><g id="shape1132-6"><path class="cls-3" d="M27,18.89C27,21.51,21,24,13.53,24S.11,21.51.11,18.89s6-4.75,13.42-4.75S27,16.27,27,18.89Z"/></g><g id="shape1133-8"><path class="cls-4" d="M24.23,18.83c0,1.62-4.79,2.92-10.7,2.92s-10.7-1.31-10.7-2.92,4.79-2.92,10.7-2.92S24.23,17.22,24.23,18.83Z"/></g><g id="shape1134-10"><path class="cls-5" d="M5,20.58a27,27,0,0,0,8.57,1.17,27,27,0,0,0,8.56-1.17,26.62,26.62,0,0,0-8.56-1.18A26.69,26.69,0,0,0,5,20.58Z"/></g><g id="shape1135-12"><ellipse class="cls-6" cx="13.48" cy="14.03" rx="4.38" ry="4.24"/></g><g id="shape1136-14"><ellipse class="cls-6" cx="22.46" cy="4.24" rx="4.38" ry="4.24"/></g><g id="shape1137-16"><ellipse class="cls-6" cx="34.82" cy="4.24" rx="4.38" ry="4.24"/></g><g id="shape1138-18"><ellipse class="cls-6" cx="42.68" cy="14.03" rx="4.38" ry="4.24"/></g><g id="shape1139-20"><path class="cls-7" d="M55.75,46.89,47.19,31.64V25.46h.15a1.91,1.91,0,0,0,0-3.81H38a1.91,1.91,0,0,0,0,3.81h.15v6.18L29.6,46.89c-.94,1.67-.17,3,1.71,3H54.05C55.92,49.93,56.69,48.56,55.75,46.89Z"/></g><g id="shape1140-22"><path class="cls-4" d="M36.65,40.33l-3.53,6.29H52.24L48.7,40.33Z"/></g><g id="shape1141-24"><ellipse class="cls-8" cx="45.28" cy="44.25" rx="0.85" ry="0.87"/></g><g id="shape1142-26"><path class="cls-9" d="M29.6,46.89l8.56-15.25V25.46H38a1.91,1.91,0,0,1,0-3.81h4v9.94L37.52,49.93H31.31C29.43,49.93,28.66,48.56,29.6,46.89Z"/></g></g></svg>