<svg id="Layer_1" data-name="Layer 1" xmlns="http://www.w3.org/2000/svg" width="34.11" height="56.76" viewBox="0 0 34.11 56.76"><defs><style>.cls-1{fill:#37c2b1;}.cls-1,.cls-2,.cls-3{fill-rule:evenodd;}.cls-2{fill:#42e8ca;}.cls-3{fill:#005ba1;}.cls-4{fill:#ffca00;}</style></defs><g id="group1113-1"><g id="group1114-2"><g id="group1115-3"><g id="shape1116-4"><path class="cls-1" d="M33.59,46,23.18,56.4a1.38,1.38,0,0,1-1.86,0,1.25,1.25,0,0,1-.37-.66L14.81,26.93a1.22,1.22,0,0,1,.76-1.35L22.25,23a1.35,1.35,0,0,1,1.72.61l9.88,21A1.18,1.18,0,0,1,33.59,46Z"/></g><g id="shape1117-6"><path class="cls-2" d="M.39,46,10.79,56.4a1.39,1.39,0,0,0,1.87,0,1.17,1.17,0,0,0,.36-.66l6.15-28.81a1.21,1.21,0,0,0-.77-1.35L11.73,23a1.36,1.36,0,0,0-1.72.61l-9.89,21A1.21,1.21,0,0,0,.39,46Z"/></g><g id="shape1118-8"><path class="cls-3" d="M18.64,1.51,20,.46a2.13,2.13,0,0,1,2.91.25,2.26,2.26,0,0,1,.34.58l.58,1.55a2.08,2.08,0,0,0,2.3,1.26l1.68-.28a2,2,0,0,1,2.38,1.61,1.94,1.94,0,0,1,0,.68l-.29,1.61a2,2,0,0,0,1.31,2.21l1.6.56A2,2,0,0,1,34,13h0a1.91,1.91,0,0,1-.35.58l-1.09,1.27a1.92,1.92,0,0,0,0,2.52l1.09,1.26a1.92,1.92,0,0,1-.26,2.79,2.13,2.13,0,0,1-.61.34l-1.6.56a2,2,0,0,0-1.31,2.2l.29,1.62a2,2,0,0,1-1.68,2.28,2.06,2.06,0,0,1-.7,0l-1.68-.27a2.08,2.08,0,0,0-2.3,1.26L23.2,31a2.07,2.07,0,0,1-2.63,1.18h0a2.27,2.27,0,0,1-.61-.34l-1.31-1a2.12,2.12,0,0,0-2.63,0l-1.31,1a2.13,2.13,0,0,1-2.9-.27,2.09,2.09,0,0,1-.35-.59l-.59-1.53a2.06,2.06,0,0,0-2.29-1.26l-1.67.28a2.07,2.07,0,0,1-2.38-1.61,1.94,1.94,0,0,1,0-.68l.29-1.61a2,2,0,0,0-1.31-2.21l-1.61-.55A2,2,0,0,1,.65,19.24,2.22,2.22,0,0,1,1,18.65L2.1,17.39a1.92,1.92,0,0,0,0-2.52L1,13.61a1.93,1.93,0,0,1,.26-2.79,2,2,0,0,1,.61-.34l1.6-.56A2,2,0,0,0,4.79,7.71L4.5,6.1A2,2,0,0,1,6.18,3.81h0a2.06,2.06,0,0,1,.7,0l1.69.29a2.07,2.07,0,0,0,2.3-1.26l.57-1.54A2.1,2.1,0,0,1,14.1.13a2,2,0,0,1,.59.33L16,1.51A2.12,2.12,0,0,0,18.64,1.51Z"/></g><g id="shape1119-10"><ellipse class="cls-4" cx="17.32" cy="16.13" rx="11.99" ry="11.52"/></g></g></g></g></svg>