<svg id="Layer_1" data-name="Layer 1" xmlns="http://www.w3.org/2000/svg" width="51.02" height="56.69" viewBox="0 0 51.02 56.69"><defs><style>.cls-1{fill:#59b4d9;}.cls-1,.cls-2,.cls-3,.cls-5{fill-rule:evenodd;}.cls-2{fill:#fff;}.cls-3{fill:#0072c6;}.cls-4{fill:none;}.cls-5{fill:#ff8c00;}</style></defs><g id="group1106-1"><g id="group1107-2"><g id="shape1108-3"><path class="cls-1" d="M51,41.77a2.32,2.32,0,0,1-2.26,2.37H33a2.32,2.32,0,0,1-2.31-2.33V15.28a2.32,2.32,0,0,1,2.27-2.37h15.7a2.31,2.31,0,0,1,2.32,2.31V41.77Z"/></g><g id="shape1109-5"><path class="cls-2" d="M34.35,17.64h5.56v6.62H34.35Zm7.41,0h5.56v6.62H41.76ZM34.35,28h5.56v6.63H34.35Zm7.41,0h5.56v6.63H41.76Z"/></g><g id="shape1110-7"><path class="cls-3" d="M20.38,41.77a2.32,2.32,0,0,1-2.26,2.37H2.32A2.32,2.32,0,0,1,0,41.82V15.28a2.31,2.31,0,0,1,2.26-2.37H18a2.31,2.31,0,0,1,2.32,2.31v.06Z"/><path class="cls-4" d="M20.38,41.77a2.32,2.32,0,0,1-2.26,2.37H2.32A2.32,2.32,0,0,1,0,41.82V15.28a2.31,2.31,0,0,1,2.26-2.37H18a2.31,2.31,0,0,1,2.32,2.31v.06"/></g><g id="shape1111-10"><path class="cls-1" d="M3.71,17.64H9.27v6.62H3.71Zm7.41,0h5.56v6.62H11.12ZM3.71,28H9.27v6.63H3.71Zm7.41,0h5.56v6.63H11.12Z"/></g><g id="shape1112-12"><path class="cls-5" d="M11.91,56.69A11.58,11.58,0,0,0,23.32,46.07H19.9A8.08,8.08,0,0,1,12,53.25a7.64,7.64,0,0,1-6.19-3.14L9.55,46H0V56.39l3.44-3.74A10.88,10.88,0,0,0,11.91,56.69Zm-.5-53.26a7.63,7.63,0,0,1,6.18,3.15l-3.76,4.09h9.54V.29L19.93,4a10.92,10.92,0,0,0-8.47-4A11.58,11.58,0,0,0,.06,10.67H3.47A8.08,8.08,0,0,1,11.41,3.43Z"/></g></g></g></svg>