<svg id="Layer_1" data-name="Layer 1" xmlns="http://www.w3.org/2000/svg" width="56.69" height="56.69" viewBox="0 0 56.69 56.69"><defs><style>.cls-1{fill:#59b4d9;}.cls-1,.cls-2,.cls-3,.cls-4,.cls-5{fill-rule:evenodd;}.cls-2,.cls-5,.cls-7{fill:#fff;}.cls-2{fill-opacity:0.8;}.cls-3{fill:#0072c6;}.cls-4,.cls-6{fill:#3999c6;}.cls-8{fill:#804998;}</style></defs><g id="group1088-1"><g id="group1089-2"><g id="shape1090-3"><path class="cls-1" d="M47.18,15.81c0-.45.06-.89.06-1.35A14.31,14.31,0,0,0,33.07,0,14.17,14.17,0,0,0,19.82,9.36a14.35,14.35,0,0,0-5.06-.93A14.92,14.92,0,0,0,0,23.5,14.91,14.91,0,0,0,14.76,38.56H45.47a11.46,11.46,0,0,0,1.71-22.75Z"/></g><g id="shape1091-5"><path class="cls-1" d="M28.35,24.05a15.72,15.72,0,0,0,0,31.43,15.72,15.72,0,0,0,0-31.43Z"/></g><g id="shape1092-7"><path class="cls-2" d="M28.35,24.05a15.72,15.72,0,0,0,0,31.43,15.72,15.72,0,0,0,0-31.43Z"/></g><g id="shape1093-9"><path class="cls-3" d="M16.6,22.84a16.93,16.93,0,0,0,0,33.85,16.93,16.93,0,0,0,0-33.85Zm0,31.59a14.67,14.67,0,0,1,0-29.33,14.67,14.67,0,0,1,0,29.33Z"/></g><g id="shape1094-11"><path class="cls-3" d="M28.34,24.12c-4.23,0-7.67,7-7.67,15.65s3.44,15.64,7.67,15.64S36,48.41,36,39.77,32.58,24.12,28.34,24.12Zm0,29.75c-2.65,0-5.6-5.8-5.6-14.1s3-14.11,5.6-14.11S34,31.46,34,39.77,31,53.87,28.34,53.87Z"/></g><g id="shape1095-13"><path class="cls-3" d="M13.19,38.71H43.51v2.11H13.19ZM40.73,29.8c-2.65,1.59-7,2.78-12.38,2.78S18.62,31.39,16,29.8a19,19,0,0,0-.86,1.94c3,1.86,7.84,3.06,13.24,3.06s10.2-1.2,13.23-3.06A16.76,16.76,0,0,0,40.73,29.8Zm.85,18.74c-3-1.86-7.83-3.06-13.23-3.06s-10.2,1.2-13.24,3.06A19,19,0,0,0,16,50.48c2.65-1.59,7-2.78,12.38-2.78s9.73,1.19,12.38,2.78A16.76,16.76,0,0,0,41.58,48.54Z"/></g><g id="shape1096-15"><path class="cls-4" d="M13.79,33.14A14.23,14.23,0,0,1,7.67,22C7.55,13.9,16,7.19,16.34,6.9l2.9,3.83c-1.93,1.52-6.9,6.51-6.83,11.23a9.55,9.55,0,0,0,4.16,7.27Z"/></g><g id="shape1097-17"><path class="cls-5" d="M14.49,32.17A13.09,13.09,0,0,1,8.86,22c-.11-7.52,7.87-13.87,8.21-14.14l1.45,1.91c-.08.06-7.38,5.9-7.29,12.2a10.78,10.78,0,0,0,4.65,8.23Z"/></g><g id="shape1098-19"><ellipse class="cls-6" cx="17.67" cy="8.34" rx="4.63" ry="4.71"/></g><g id="shape1099-21"><ellipse class="cls-7" cx="17.67" cy="8.34" rx="3.44" ry="3.51"/></g><g id="shape1100-23"><path class="cls-4" d="M36.35,42,34.1,37.76c14-7.66,12.09-19.2,12.07-19.32l4.67-.86C51,18.19,53.33,32.71,36.35,42Z"/></g><g id="shape1101-25"><path class="cls-5" d="M35.78,41l-1.12-2.13c14.73-8.07,12.7-20.48,12.68-20.6l2.33-.43C49.7,17.93,52,32.05,35.78,41Z"/></g><g id="shape1102-27"><ellipse class="cls-8" cx="15.18" cy="31.19" rx="3.44" ry="3.51"/></g><g id="shape1103-29"><path class="cls-4" d="M48.51,21.51a4.72,4.72,0,1,1,4.62-4.71A4.68,4.68,0,0,1,48.51,21.51Z"/></g><g id="shape1104-31"><ellipse class="cls-7" cx="48.51" cy="16.8" rx="3.44" ry="3.51"/></g><g id="shape1105-33"><ellipse class="cls-8" cx="35.34" cy="39.89" rx="3.44" ry="3.51"/></g></g></g></svg>