<svg id="Layer_1" data-name="Layer 1" xmlns="http://www.w3.org/2000/svg" xmlns:xlink="http://www.w3.org/1999/xlink" width="51.02" height="56.7" viewBox="0 0 51.02 56.7"><defs><style>.cls-1{fill:#b796f9;}.cls-1,.cls-4,.cls-5,.cls-6{fill-rule:evenodd;}.cls-2{fill:url(#linear-gradient);}.cls-3{fill:none;}.cls-4{fill:#0078d4;}.cls-5{fill:#005ba1;}.cls-6{fill:#5ea0ef;}</style><linearGradient id="linear-gradient" x1="-309.06" y1="402.86" x2="-308.06" y2="402.86" gradientTransform="matrix(0, -10.98, -10.73, 0, 4341.3, -3371.12)" gradientUnits="userSpaceOnUse"><stop offset="0.01" stop-color="#773adc"/><stop offset="0.24" stop-color="#9255e6"/><stop offset="0.5" stop-color="#a669ee"/><stop offset="0.76" stop-color="#b376f2"/><stop offset="1" stop-color="#b77af4"/></linearGradient></defs><g id="group1059-1"><g id="group1060-2"><g id="group1061-3"><g id="shape1062-4"><path class="cls-1" d="M44.26,3.75,31.2,27.42,17.39,13.09,3.13,31.88,6.5,34.55,17.77,19.7,32.13,34.61,48,5.89Z"/></g><g id="shape1063-6"><ellipse class="cls-2" cx="17.56" cy="16.37" rx="5.37" ry="5.49"/></g><g id="shape1064-10"><ellipse class="cls-3" cx="32.13" cy="30.03" rx="5.37" ry="5.49"/></g><g id="shape1065-12"><ellipse class="cls-3" cx="45.66" cy="5.49" rx="5.37" ry="5.49"/></g><g id="shape1066-14"><ellipse class="cls-3" cx="5.37" cy="51.2" rx="5.37" ry="5.49"/></g><g id="shape1067-16"><path class="cls-4" d="M14.61,55.75a.94.94,0,0,0,.92,1h6.59a.93.93,0,0,0,.92-.94V32.35a.94.94,0,0,0-.93-.94H15.54a.94.94,0,0,0-.93.95Z"/></g><g id="shape1068-18"><path class="cls-5" d="M0,55.75a.94.94,0,0,0,.93,1H7.51a.94.94,0,0,0,.93-.94V41.1a.93.93,0,0,0-.93-.94H.93a1,1,0,0,0-.93,1Z"/></g><g id="shape1069-20"><path class="cls-5" d="M0,55.75a.94.94,0,0,0,.93,1H7.51a.94.94,0,0,0,.93-.94V23.89A.93.93,0,0,0,7.5,23H.93a1,1,0,0,0-.93.95Z"/></g><g id="shape1070-22"><path class="cls-6" d="M0,55.75a.94.94,0,0,0,.93,1H7.51a.94.94,0,0,0,.93-.94V41.1a.93.93,0,0,0-.93-.94H.93a1,1,0,0,0-.93,1Z"/></g></g></g></g></svg>