<svg id="Layer_1" data-name="Layer 1" xmlns="http://www.w3.org/2000/svg" width="49.67" height="57.65" viewBox="0 0 49.67 57.65"><defs><style>.cls-1{fill:#7a7a7a;}.cls-1,.cls-10,.cls-12,.cls-13,.cls-2,.cls-3,.cls-5,.cls-6,.cls-7,.cls-8,.cls-9{fill-rule:evenodd;}.cls-2{fill:#a0a1a2;}.cls-11,.cls-3,.cls-6,.cls-7,.cls-8{fill:#fff;}.cls-12,.cls-3{fill-opacity:0.2;}.cls-4{fill:#59b4d9;}.cls-5{fill:#b8d432;}.cls-7{fill-opacity:0.7;}.cls-10,.cls-8{fill-opacity:0.4;}.cls-13{fill:#57a300;}</style></defs><g id="group1071-1"><g id="group1072-2"><g id="shape1073-3"><path class="cls-1" d="M16.24,32.35c1.52,5.54.73,6.78-8.15,6.78v2.46h30V39.13c-8.88,0-10.82-1.24-9.31-6.78Z"/></g><g id="shape1074-5"><path class="cls-2" d="M2.79,0A2.82,2.82,0,0,0,0,2.52V29.85a2.8,2.8,0,0,0,2.79,2.5H43.7a2.54,2.54,0,0,0,2.51-2.5V2.52A2.56,2.56,0,0,0,43.7,0Z"/></g><g id="shape1075-7"><path class="cls-3" d="M43.45,0H2.51A2.55,2.55,0,0,0,0,2.52V29.85a2.54,2.54,0,0,0,2.51,2.5h1Z"/></g><g id="shape1076-9"><rect class="cls-4" x="3.47" y="3.47" width="39.28" height="25.42"/></g><g id="shape1077-11"><path class="cls-2" d="M8.09,39.28h30v2.31h-30Z"/></g><g id="shape1078-13"><path class="cls-5" d="M22.63,1.89a.65.65,0,0,1,.65-.64h0a.66.66,0,0,1,.66.64h0a.64.64,0,0,1-.65.64h0a.64.64,0,0,1-.65-.64Z"/></g><g id="shape1079-15"><path class="cls-6" d="M23.08,15.14a.27.27,0,0,1-.12,0L15.1,10.73a.23.23,0,0,1-.09-.31.2.2,0,0,1,.09-.09L23,5.93a.25.25,0,0,1,.24,0l7.86,4.37a.23.23,0,0,1,.12.2.24.24,0,0,1-.12.2L23.2,15.11a.24.24,0,0,1-.12,0Z"/></g><g id="shape1080-17"><path class="cls-7" d="M24.49,26.26a.23.23,0,0,1-.23-.23h0V17.12a.27.27,0,0,1,.11-.21L32,12.48a.24.24,0,0,1,.23,0,.22.22,0,0,1,.12.2v8.91a.24.24,0,0,1-.12.2l-7.62,4.44a.21.21,0,0,1-.12,0Z"/></g><g id="shape1081-19"><path class="cls-8" d="M21.71,26.26l-.11,0L14,21.79a.23.23,0,0,1-.11-.2V12.74a.23.23,0,0,1,.24-.23.2.2,0,0,1,.11,0L21.83,17a.24.24,0,0,1,.12.2V26a.23.23,0,0,1-.11.2.24.24,0,0,1-.12,0Z"/></g><g id="shape1082-21"><path class="cls-9" d="M0,45.15,11.55,56.7h0a3.27,3.27,0,0,0,4.62-4.62h0L4.62,40.53Z"/></g><g id="shape1083-23"><path class="cls-10" d="M46.65,42,42,46.66l3,3a16.14,16.14,0,0,0,4.62-4.62Z"/></g><g id="shape1084-25"><circle class="cls-11" cx="33.5" cy="33.51" r="12.71"/></g><g id="shape1085-27"><path class="cls-12" d="M24.83,37.53c0-7.51,5.23-12.7,12.71-12.7a12.59,12.59,0,0,1,6.36,1.72A12.7,12.7,0,1,0,26.55,43.9,12.6,12.6,0,0,1,24.83,37.53Z"/></g><g id="shape1086-29"><path class="cls-9" d="M33.51,17.44A16.06,16.06,0,1,0,49.56,33.5,16.06,16.06,0,0,0,33.51,17.44Zm0,28a11.9,11.9,0,1,1,11.9-11.9A11.9,11.9,0,0,1,33.51,45.4Z"/></g><g id="shape1087-31"><path class="cls-13" d="M25.42,30h3.47v9.24H25.42Zm5.78,2.31h3.46v6.93H31.2ZM37,26.57h3.47V39.28H37Z"/></g></g></g></svg>