<svg id="Layer_1" data-name="Layer 1" xmlns="http://www.w3.org/2000/svg" width="56.69" height="45.35" viewBox="0 0 56.69 45.35"><defs><style>.cls-1,.cls-3{fill:#59b4d9;}.cls-1,.cls-2,.cls-4{fill-rule:evenodd;}.cls-2{fill:#57a300;}.cls-4{fill:#0072c6;}</style></defs><g id="group1050-1"><g id="group1051-2"><g id="shape1052-3"><path class="cls-1" d="M29.48,18.34V12.5H26.65v5.84c0,1.06-.91,2-2.38,2.46l-3.86.82C17.8,22.44,16,24.54,16,26.88v6.66h2.83V26.88c0-1.05.91-2,2.39-2.46l3.85-.93A5.6,5.6,0,0,0,29.48,18.34Z"/></g><g id="shape1053-5"><path class="cls-2" d="M22.22,36.58V31.21A2.31,2.31,0,0,0,20,28.87H14.74a2.31,2.31,0,0,0-2.27,2.34v5.37a2.31,2.31,0,0,0,2.27,2.34H20A2.31,2.31,0,0,0,22.22,36.58Z"/></g><g id="shape1054-7"><path class="cls-1" d="M26.31,18.35V12.51h2.83v5.84c0,1,.91,2,2.39,2.46l4.76,1.05c2.61.82,4.42,2.92,4.42,5.26v6.66H37.88V27.12c0-1.05-.91-2-2.39-2.46l-4.76-1.05C28.12,22.79,26.31,20.69,26.31,18.35Z"/></g><g id="shape1055-9"><path class="cls-2" d="M34.47,36.81V31.44a2.31,2.31,0,0,1,2.27-2.34H42a2.31,2.31,0,0,1,2.27,2.34v5.37A2.31,2.31,0,0,1,42,39.15H36.74A2.31,2.31,0,0,1,34.47,36.81Z"/></g><g id="shape1056-11"><rect class="cls-3" x="26.31" y="12.5" width="3.17" height="5.61"/></g><g id="shape1057-13"><path class="cls-4" d="M30.05,7.12v4.33h-4.2V7.12ZM31,3.85H25a2.31,2.31,0,0,0-2.27,2.34v6.19A2.31,2.31,0,0,0,25,14.72h6a2.31,2.31,0,0,0,2.26-2.34V6.19A2.31,2.31,0,0,0,31,3.85Z"/></g><g id="shape1058-15"><path class="cls-1" d="M9,45.35c-2.38,0-4.08-.47-5.1-1.29s-1.48-2.45-1.48-4.67V27.23c0-2-.79-3-2.38-3v-3c1.59,0,2.38-1,2.38-3.15V6.07c0-2.22.45-3.85,1.48-4.79S6.58,0,9,0V3C7.26,3,6.35,4,6.35,6V17.65c0,2.69-.79,4.32-2.49,5,1.58.7,2.49,2.34,2.49,5V39.27a4.13,4.13,0,0,0,.57,2.34,2.43,2.43,0,0,0,1.92.7l.12,3ZM47.74,0c2.38,0,4.08.46,5.1,1.28S54.31,3.74,54.31,6V18.11c0,2,.8,3,2.38,3v3c-1.58,0-2.38,1.06-2.38,3.16V39.16c0,2.22-.45,3.85-1.47,4.79s-2.72,1.4-5.1,1.4v-3c1.7,0,2.6-.93,2.6-2.92V27.7c0-2.69.8-4.33,2.5-5-1.59-.7-2.5-2.33-2.5-5V6.07a4.08,4.08,0,0,0-.56-2.33A2.45,2.45,0,0,0,47.85,3Z"/></g></g></g></svg>