<svg id="Layer_1" data-name="Layer 1" xmlns="http://www.w3.org/2000/svg" xmlns:xlink="http://www.w3.org/1999/xlink" width="53.85" height="56.56" viewBox="0 0 53.85 56.56"><defs><style>.cls-1{fill:url(#linear-gradient);}.cls-2{fill:#32bedd;}.cls-3{fill:#50e6ff;}.cls-4{fill:#949494;}.cls-4,.cls-5{fill-rule:evenodd;}.cls-5{fill:#b3b3b3;}</style><linearGradient id="linear-gradient" x1="-297.15" y1="410.55" x2="-296.15" y2="410.55" gradientTransform="matrix(0, -17.39, -17.5, 0, 7207.92, -5130.97)" gradientUnits="userSpaceOnUse"><stop offset="0" stop-color="#198ab3"/><stop offset="0.16" stop-color="#1f9ac2"/><stop offset="0.5" stop-color="#29bade"/><stop offset="0.8" stop-color="#30cdef"/><stop offset="1" stop-color="#32d4f5"/></linearGradient></defs><g id="group1040-1"><g id="shape1041-2"><ellipse class="cls-1" cx="25.09" cy="27.82" rx="8.75" ry="8.69"/></g><g id="shape1042-6"><ellipse class="cls-2" cx="49.58" cy="14.22" rx="4.27" ry="4.26"/></g><g id="shape1043-8"><ellipse class="cls-2" cx="49.58" cy="28.15" rx="4.27" ry="4.26"/></g><g id="shape1044-10"><ellipse class="cls-2" cx="49.58" cy="42.04" rx="4.27" ry="4.26"/></g><g id="shape1045-12"><ellipse class="cls-3" cx="39.82" cy="21.35" rx="4.27" ry="4.26"/></g><g id="shape1046-14"><ellipse class="cls-3" cx="39.82" cy="35.28" rx="4.27" ry="4.26"/></g><g id="shape1047-16"><path class="cls-4" d="M4.76,16.92a1,1,0,0,1,.3-.27L24.65,5.36c.27,0,16.82,9.26,16.82,9.26a.81.81,0,0,0,1.1-.29.74.74,0,0,0,.11-.41V10.29a.81.81,0,0,0-.4-.7S24.92-.14,24.68,0L.39,13.79,0,14.06Z"/></g><g id="shape1048-18"><path class="cls-4" d="M41.41,42.11l-15.95,9.1a1.15,1.15,0,0,1-.37,0v5.33a.77.77,0,0,0,.37,0L42.28,47a.8.8,0,0,0,.4-.67V42.81a.81.81,0,0,0-1.28-.7Z"/></g><g id="shape1049-20"><path class="cls-5" d="M25.09,51.31a1.09,1.09,0,0,1-.44,0L5.07,39.88a.74.74,0,0,1-.41-.67V17.32a.9.9,0,0,1,0-.4L0,14.06a.79.79,0,0,0,0,.43V42a.81.81,0,0,0,.37.7l24.29,13.8a.9.9,0,0,0,.4,0Z"/></g></g></svg>