<svg id="Layer_1" data-name="Layer 1" xmlns="http://www.w3.org/2000/svg" width="56.69" height="42.52" viewBox="0 0 56.69 42.52"><defs><style>.cls-1{fill:#f2c811;fill-rule:evenodd;}.cls-2{fill:none;}</style></defs><g id="group1031-1"><g id="group1032-2"><g id="shape1033-3"><path class="cls-1" d="M48.72,36.85V34.21H50a4.1,4.1,0,0,0,4-4.38V6.7a3.83,3.83,0,0,0-3.58-4.07H6.69a3.84,3.84,0,0,0-4,3.63,3.23,3.23,0,0,0,0,.44V29.83a4.09,4.09,0,0,0,4,4.38H8v2.64H6.69a7,7,0,0,1-6.69-7V6.7A6.74,6.74,0,0,1,6.69,0H50a6.73,6.73,0,0,1,6.69,6.7V29.83a7,7,0,0,1-6.69,7Z"/></g><g id="shape1034-5"><path class="cls-1" d="M3.1,42.52A3.18,3.18,0,0,1,0,39.26H0V31.74a3.18,3.18,0,0,1,3.1-3.26,3.17,3.17,0,0,1,3.1,3.25v7.52a3.18,3.18,0,0,1-3.09,3.27Zm9.74-.29a3.11,3.11,0,0,1-3.1-3.1V20.77a3.1,3.1,0,0,1,6.2-.1V39.13a3.09,3.09,0,0,1-3.08,3.11h0Zm19.52.07a3.12,3.12,0,0,1-3.13-3.1V13a3.1,3.1,0,0,1,6.2-.1v26.3a3.09,3.09,0,0,1-3.06,3.13Zm-9.76.08a3.13,3.13,0,0,1-3.11-3.15h0V25.35a3.1,3.1,0,0,1,6.2-.1v14a3.12,3.12,0,0,1-3.09,3.15Z"/><path class="cls-2" d="M3.1,42.52A3.18,3.18,0,0,1,0,39.26H0V31.74a3.18,3.18,0,0,1,3.1-3.26,3.17,3.17,0,0,1,3.1,3.25v7.52a3.18,3.18,0,0,1-3.09,3.27h0m9.74-.29a3.11,3.11,0,0,1-3.1-3.1V20.77a3.1,3.1,0,0,1,6.2-.1V39.13a3.09,3.09,0,0,1-3.08,3.11h0m19.51.06a3.12,3.12,0,0,1-3.13-3.1V13a3.1,3.1,0,0,1,6.2-.1v26.3a3.09,3.09,0,0,1-3.06,3.13h0m-9.76.08a3.13,3.13,0,0,1-3.11-3.15h0V25.35a3.1,3.1,0,0,1,6.2-.1v14a3.12,3.12,0,0,1-3.09,3.15"/></g></g></g></svg>