<svg id="Layer_1" data-name="Layer 1" xmlns="http://www.w3.org/2000/svg" width="56.48" height="45.27" viewBox="0 0 56.48 45.27"><defs><style>.cls-1{fill:#0078d7;}.cls-1,.cls-2,.cls-3{fill-rule:evenodd;}.cls-2{fill-opacity:0.25;}.cls-3{fill:#fff;}</style></defs><g id="group1026-1"><g id="group1027-2"><g id="shape1028-3"><path class="cls-1" d="M56.46,3.25,50.09,42A4.18,4.18,0,0,1,46,45.27H3.11A2.87,2.87,0,0,1,0,42L6.4,3.25a3.63,3.63,0,0,1,1.16-2,4.39,4.39,0,0,1,3-1.21H53.37a2.91,2.91,0,0,1,3,2.15,2.51,2.51,0,0,1,.09,1.09Z"/></g><g id="shape1029-5"><path class="cls-2" d="M56.37,2.15l-6.32,39A3.8,3.8,0,0,1,49.2,43C39.22,32.92,18.41,11.91,7.56,1.22a4.37,4.37,0,0,1,3-1.21H53.37A2.92,2.92,0,0,1,56.37,2.15Z"/></g><g id="shape1030-7"><path class="cls-3" d="M14.88,39.61a2.21,2.21,0,0,1-2.18-2.24,2.27,2.27,0,0,1,.88-1.81L32,21.61,18.71,8.74a2.29,2.29,0,0,1-.09-3.16h0a2.14,2.14,0,0,1,3.09-.1L36.94,20.19a2.28,2.28,0,0,1,.1,3.16,2.61,2.61,0,0,1-.3.27L16.17,39.17a2.21,2.21,0,0,1-1.29.44ZM38.94,40h-10a2.31,2.31,0,0,1,0-4.62h10a2.31,2.31,0,0,1,0,4.62Z"/></g></g></g></svg>