<svg id="Layer_1" data-name="Layer 1" xmlns="http://www.w3.org/2000/svg" width="56.69" height="56.69" viewBox="0 0 56.69 56.69"><defs><style>.cls-1{fill:#f2c811;}.cls-2{fill:#212121;fill-rule:evenodd;}</style></defs><g id="group1035-1"><g id="group1036-2"><g id="group1037-3"><g id="shape1038-4"><rect class="cls-1" width="56.69" height="56.69"/></g><g id="shape1039-6"><path class="cls-2" d="M41.37,37.67h-.68V36.29h.68a2.48,2.48,0,0,0,1-.21,2.75,2.75,0,0,0,1.4-1.39,2.69,2.69,0,0,0,.2-1v-14a2.7,2.7,0,0,0-.2-1,2.65,2.65,0,0,0-1.4-1.41,2.38,2.38,0,0,0-1-.2h-26a2.7,2.7,0,0,0-1,.2,2.41,2.41,0,0,0-.84.57,2.63,2.63,0,0,0-.78,1.87v14a2.61,2.61,0,0,0,1.62,2.41,2.53,2.53,0,0,0,1,.21h.68v1.38h-.68a4.06,4.06,0,0,1-3.72-2.45,4,4,0,0,1-.32-1.55v-14a3.69,3.69,0,0,1,.32-1.56,4,4,0,0,1,3.72-2.46h26a4,4,0,0,1,2.82,1.18A4.09,4.09,0,0,1,45,18.09a3.85,3.85,0,0,1,.32,1.56v14A3.84,3.84,0,0,1,45,35.22a4.16,4.16,0,0,1-.85,1.27A4,4,0,0,1,41.37,37.67ZM19.56,41.09a1.88,1.88,0,0,1-1.31-.53,1.81,1.81,0,0,1-.4-.59,1.92,1.92,0,0,1-.15-.74v-4.3a1.72,1.72,0,0,1,.15-.72,1.9,1.9,0,0,1,1-1,1.75,1.75,0,0,1,.72-.15,1.81,1.81,0,0,1,.74.15,1.93,1.93,0,0,1,1,1,1.72,1.72,0,0,1,.15.72v4.3a1.79,1.79,0,0,1-.15.72,2,2,0,0,1-.4.59,2,2,0,0,1-1.33.55Zm5.88,0a1.81,1.81,0,0,1-.74-.15,2,2,0,0,1-.59-.4,1.81,1.81,0,0,1-.4-.59,1.75,1.75,0,0,1-.15-.72v-11a1.79,1.79,0,0,1,.15-.72,1.85,1.85,0,0,1,1-1,1.81,1.81,0,0,1,.74-.15,1.87,1.87,0,0,1,1.31.55,1.87,1.87,0,0,1,.4.59,1.79,1.79,0,0,1,.15.72v11a1.79,1.79,0,0,1-.15.72,1.76,1.76,0,0,1-.4.59A1.94,1.94,0,0,1,25.44,41.09ZM37.13,41a1.79,1.79,0,0,1-.72-.15,2,2,0,0,1-.59-.4,1.81,1.81,0,0,1-.4-.59,1.92,1.92,0,0,1-.15-.74V23.57a1.8,1.8,0,0,1,.15-.73,2,2,0,0,1,.4-.59,2,2,0,0,1,.59-.39,1.85,1.85,0,0,1,1.46,0,1.9,1.9,0,0,1,.59.39,2,2,0,0,1,.4.59,1.8,1.8,0,0,1,.15.73V39.16a1.81,1.81,0,0,1-.15.74,2,2,0,0,1-1,1A1.78,1.78,0,0,1,37.13,41Zm-5.84.05a1.8,1.8,0,0,1-.73-.15,2,2,0,0,1-.59-.4,1.79,1.79,0,0,1-.39-.59,1.82,1.82,0,0,1-.15-.72V31a1.75,1.75,0,0,1,.15-.72,1.86,1.86,0,0,1,1-1,1.83,1.83,0,0,1,1.45,0A1.88,1.88,0,0,1,33.15,31v8.19A1.75,1.75,0,0,1,33,40a1.92,1.92,0,0,1-.4.59A1.94,1.94,0,0,1,31.29,41.09Z"/></g></g></g></g></svg>