<svg id="Layer_1" data-name="Layer 1" xmlns="http://www.w3.org/2000/svg" width="56.22" height="51.02" viewBox="0 0 56.22 51.02"><defs><style>.cls-1{fill:#7a7a7a;}.cls-2{fill:#57a300;}.cls-2,.cls-3{fill-rule:evenodd;}.cls-3{fill:#3999c6;}</style></defs><g id="group1015-1"><g id="group1016-2"><g id="shape1017-3"><rect class="cls-1" x="26.38" y="5.68" width="3.46" height="30.46"/></g><g id="shape1018-5"><path class="cls-2" d="M34.33,35.68a6.22,6.22,0,1,1-6.22-6.13A6.26,6.26,0,0,1,34.33,35.68Z"/></g><g id="shape1019-7"><path class="cls-3" d="M33.18,5A5.07,5.07,0,0,1,23,5,5.07,5.07,0,0,1,33.18,5Zm7.06,46a1.6,1.6,0,0,1-1.14-.46,1.67,1.67,0,0,1,0-2.37l12.18-12a1,1,0,0,0,0-1.38h0l-12-11.59a1.45,1.45,0,0,1-.55-1.07,1.79,1.79,0,0,1,.54-1.31,1.82,1.82,0,0,1,2.49,0l11.42,11,2.55,2.51a1.8,1.8,0,0,1,0,2.38L53,39.39,41.58,50.56a1.71,1.71,0,0,1-1.17.46h-.17ZM15.82,51a1.67,1.67,0,0,1-1.17-.46L3,39.5.46,36.66a1.74,1.74,0,0,1,0-2.33L3,31.79l11.43-11a1.64,1.64,0,0,1,1.33-.49,1.67,1.67,0,0,1,1.15.49,1.74,1.74,0,0,1,.54,1.31,1.56,1.56,0,0,1-.56,1.09L5.17,34.8a1,1,0,0,0,0,1.37h0l12,12a1.68,1.68,0,0,1,0,2.38A1.58,1.58,0,0,1,16,51Z"/></g></g></g></svg>