<svg id="Layer_1" data-name="Layer 1" xmlns="http://www.w3.org/2000/svg" width="54.06" height="54.06" viewBox="0 0 54.06 54.06"><defs><style>.cls-1{fill:#0072c6;}.cls-2,.cls-3,.cls-4{fill:#fff;fill-rule:evenodd;}.cls-2{fill-opacity:0.2;}.cls-3{fill-opacity:0.8;}</style></defs><g id="group1020-1"><g id="group1021-2"><g id="shape1022-3"><circle class="cls-1" cx="27.03" cy="27.03" r="27.03"/></g><g id="shape1023-5"><path class="cls-2" d="M7.91,46.14A27,27,0,1,1,46.14,7.92Z"/></g><g id="shape1024-7"><path class="cls-3" d="M51.89,27a24.55,24.55,0,0,0-5.37-15.32l-.2-.2c-.1-.1-.1-.2-.2-.3L44.53,9.52A24.22,24.22,0,0,0,27,2.16h-.19A24.66,24.66,0,0,0,9.52,9.42L7.83,11.21c-.1.1-.1.2-.2.3l-.2.1A25.44,25.44,0,0,0,2.16,27,24.53,24.53,0,0,0,7.53,42.34l.2.2c.1.1.1.2.2.3l1.59,1.69a24.2,24.2,0,0,0,17.31,7.26H27a24.67,24.67,0,0,0,17.51-7.26l1.59-1.79c.1-.1.1-.2.2-.3l.2-.2A23.84,23.84,0,0,0,51.89,27Zm-10-16.22c-.1,0-.19.1-.29.1a1.69,1.69,0,0,1-.5.2c-.4.2-.9.3-1.39.5-.1,0-.2.1-.3.1-.6.2-1.1.3-1.69.5-.1,0-.3.1-.4.1A22,22,0,0,0,34,6.24,20.79,20.79,0,0,1,41.84,10.81ZM26.83,5h.1c2.68,0,5.47,2.89,7.45,7.86a42.93,42.93,0,0,1-7.36.6,46.19,46.19,0,0,1-7.55-.6C21.36,8,24.14,5.14,26.83,5Zm-7.07,1.3a24.15,24.15,0,0,0-3.18,6h-.2c-.59-.2-1.19-.3-1.69-.5-.1,0-.2-.1-.3-.1-.39-.2-.89-.4-1.29-.6-.2-.1-.3-.1-.5-.2s-.2-.1-.39-.2A22.94,22.94,0,0,1,19.76,6.34Zm-7.55,36.9c.09,0,.19-.1.29-.1s.3-.1.5-.2c.4-.2.9-.3,1.39-.5.1,0,.2-.1.3-.1.6-.2,1.1-.3,1.69-.49h.2a26.23,26.23,0,0,0,3.18,6A22.48,22.48,0,0,1,12.21,43.24ZM26.93,49h-.1c-2.69-.1-5.47-2.89-7.36-7.76a46.19,46.19,0,0,1,7.55-.6,43.78,43.78,0,0,1,7.36.6C32.5,46.12,29.61,49,26.93,49ZM34,47.81a22.08,22.08,0,0,0,3.28-6.06c.1,0,.3.1.4.1.59.19,1.19.29,1.69.49.1,0,.2.1.3.1.49.2.89.3,1.39.5.2.1.3.1.5.2s.19.1.39.2A23.26,23.26,0,0,1,34,47.81ZM44,41a2.3,2.3,0,0,1-.79-.2c-.3-.1-.7-.3-1-.4-.1,0-.2-.1-.3-.1-1.19-.49-2.48-.79-3.78-1.19.3-1.19.6-2.39.8-3.58H36a21.82,21.82,0,0,1-.7,3A44.69,44.69,0,0,0,27,37.77a46.71,46.71,0,0,0-8.45.79,27.8,27.8,0,0,1-.7-3.08h-3c.2,1.29.5,2.49.8,3.68-1.2.3-2.39.7-3.48,1.09-.1.1-.3.1-.4.2-.3.1-.7.3-1,.4a1.81,1.81,0,0,0-.69.2,22,22,0,0,1-5-12.63H7.63V25.53H5.14A21.69,21.69,0,0,1,10,13.1l.1-.1c.2.1.49.2.69.3.4.2.7.3,1.1.5.1,0,.2.1.3.1A31.69,31.69,0,0,0,15.79,15c-.3,1.09-.5,2.19-.7,3.28h3c.2-.89.4-1.89.6-2.68a47.58,47.58,0,0,0,8.45.79,55.41,55.41,0,0,0,8.26-.69c.2.79.4,1.69.6,2.68h3c-.2-1.09-.4-2.19-.7-3.28a23.27,23.27,0,0,0,3.68-1.19c.1,0,.3-.1.4-.1.4-.1.7-.3,1.1-.4.19-.1.49-.2.69-.3a22.29,22.29,0,0,1,5,12.53h-3v2.89h3A23.62,23.62,0,0,1,44,41Z"/></g><g id="shape1025-9"><path class="cls-4" d="M20.78,26.87a8.78,8.78,0,0,1-.46,3,5.16,5.16,0,0,1-1.32,2,5.4,5.4,0,0,1-2.1,1.17,10.28,10.28,0,0,1-2.95.37H10.88a.72.72,0,0,1-.77-.82V21.46a.72.72,0,0,1,.77-.82h3.3a9.09,9.09,0,0,1,2.91.4,5.28,5.28,0,0,1,2,1.19,5.1,5.1,0,0,1,1.25,1.95A7.87,7.87,0,0,1,20.78,26.87Zm-2.7.09a7,7,0,0,0-.21-1.7,3.65,3.65,0,0,0-.69-1.36A3.26,3.26,0,0,0,16,23,5,5,0,0,0,14,22.68H12.71v8.74h1.36a5.06,5.06,0,0,0,1.81-.28,2.94,2.94,0,0,0,1.22-.84,3.56,3.56,0,0,0,.74-1.39A7.13,7.13,0,0,0,18.08,27Zm15.44,5.61a.91.91,0,0,1-.3.71.79.79,0,0,1-.31.17,1.57,1.57,0,0,1-.37,0H31.43a2.74,2.74,0,0,1-.61-.06,1.17,1.17,0,0,1-.46-.26,2.14,2.14,0,0,1-.41-.49,6.41,6.41,0,0,1-.45-.81l-3.2-6c-.18-.36-.37-.74-.56-1.16s-.36-.79-.52-1.2h0c.05,1,.08,1.92.08,2.88v6.73a.28.28,0,0,1-.06.18.45.45,0,0,1-.19.14,1.75,1.75,0,0,1-.36.07,5.63,5.63,0,0,1-.58,0,4.62,4.62,0,0,1-.58,0,1.67,1.67,0,0,1-.35-.08A.34.34,0,0,1,23,33.3a.41.41,0,0,1-.05-.18V21.57a.87.87,0,0,1,.27-.7,1,1,0,0,1,.67-.23h1.4a2.74,2.74,0,0,1,.63.07,1.26,1.26,0,0,1,.47.21,1.75,1.75,0,0,1,.38.42,4.2,4.2,0,0,1,.36.65l2.51,4.69c.14.29.29.57.43.84s.28.55.41.83l.39.8.36.8h0c0-1-.06-1.92,0-2.89V21a.31.31,0,0,1,0-.18.48.48,0,0,1,.2-.14,2.1,2.1,0,0,1,.37-.08,4.89,4.89,0,0,1,.58,0,4.71,4.71,0,0,1,.57,0,1.17,1.17,0,0,1,.35.09.52.52,0,0,1,.18.13.41.41,0,0,1,.05.18V32.57Zm10.42-2.94a4,4,0,0,1-.38,1.78,3.61,3.61,0,0,1-1,1.27,4.5,4.5,0,0,1-1.51.77,6.13,6.13,0,0,1-1.85.26A6.78,6.78,0,0,1,38,33.6a7.13,7.13,0,0,1-1-.26,3.94,3.94,0,0,1-.73-.32,2,2,0,0,1-.42-.3.73.73,0,0,1-.19-.37,3.25,3.25,0,0,1-.05-.7,4,4,0,0,1,0-.52,1.39,1.39,0,0,1,.06-.34.36.36,0,0,1,.12-.18.27.27,0,0,1,.17-.06.84.84,0,0,1,.4.17c.17.1.38.23.65.36a6,6,0,0,0,1,.36,4.39,4.39,0,0,0,1.27.17,3.06,3.06,0,0,0,.85-.12,1.92,1.92,0,0,0,.64-.32,1.4,1.4,0,0,0,.41-.52,1.65,1.65,0,0,0,.14-.68,1.18,1.18,0,0,0-.24-.75,2.37,2.37,0,0,0-.62-.56,7.23,7.23,0,0,0-.87-.46l-1-.45a8.72,8.72,0,0,1-1-.54,4.27,4.27,0,0,1-.87-.72,3.43,3.43,0,0,1-.62-1,4,4,0,0,1,.11-3A3.25,3.25,0,0,1,37,21.32a3.85,3.85,0,0,1,1.37-.69,6.12,6.12,0,0,1,1.67-.23,6.27,6.27,0,0,1,1.77.26,4.66,4.66,0,0,1,.7.27,1.4,1.4,0,0,1,.41.25.7.7,0,0,1,.13.17.38.38,0,0,1,.06.18,1.84,1.84,0,0,1,0,.29c0,.31,0,.62,0,.92a3.06,3.06,0,0,1-.05.32.44.44,0,0,1-.1.19.28.28,0,0,1-.18.06.86.86,0,0,1-.34-.13,5.93,5.93,0,0,0-.58-.31,5.6,5.6,0,0,0-.81-.3,3.76,3.76,0,0,0-1-.13,2.37,2.37,0,0,0-.74.1,1.44,1.44,0,0,0-.53.29,1.16,1.16,0,0,0-.32.44,1.5,1.5,0,0,0-.11.55,1.19,1.19,0,0,0,.24.74,2.26,2.26,0,0,0,.62.56,6.71,6.71,0,0,0,.89.45l1,.45a9.06,9.06,0,0,1,1,.55,4.08,4.08,0,0,1,.88.72,3.35,3.35,0,0,1,.63,1A3.54,3.54,0,0,1,43.94,29.63Z"/></g></g></g></svg>