<svg id="Layer_1" data-name="Layer 1" xmlns="http://www.w3.org/2000/svg" xmlns:xlink="http://www.w3.org/1999/xlink" width="56.69" height="53.75" viewBox="0 0 56.69 53.75"><defs><style>.cls-1{fill:#7a7a7a;}.cls-2{fill:#1490df;}.cls-2,.cls-3,.cls-4,.cls-5{fill-rule:evenodd;}.cls-3{fill:url(#linear-gradient);}.cls-4{fill:url(#linear-gradient-2);}.cls-5{fill:#50e6ff;}</style><linearGradient id="linear-gradient" x1="-252.21" y1="444.62" x2="-251.21" y2="444.62" gradientTransform="matrix(0, 14.48, 19.61, 0, -8694.89, 3679.52)" gradientUnits="userSpaceOnUse"><stop offset="0.23" stop-color="#5ea0ef"/><stop offset="0.32" stop-color="#5b9fee"/><stop offset="0.48" stop-color="#509aeb"/><stop offset="0.57" stop-color="#3f92e6"/><stop offset="0.75" stop-color="#2688df"/><stop offset="0.93" stop-color="#127fd9"/></linearGradient><linearGradient id="linear-gradient-2" x1="-252.21" y1="444.65" x2="-251.21" y2="444.65" gradientTransform="matrix(0, 14.48, 19.56, 0, -8667.94, 3685.55)" gradientUnits="userSpaceOnUse"><stop offset="0.02" stop-color="#5ea0ef"/><stop offset="0.14" stop-color="#5b9fee"/><stop offset="0.23" stop-color="#5b9fee"/><stop offset="0.34" stop-color="#509aeb"/><stop offset="0.44" stop-color="#3f92e6"/><stop offset="0.63" stop-color="#2688df"/><stop offset="0.93" stop-color="#127fd9"/></linearGradient></defs><g id="group1005-1"><g id="group1006-2"><g id="shape1007-3"><rect class="cls-1" x="25.99" y="5.93" width="3.54" height="22.81"/></g><g id="shape1008-5"><path class="cls-2" d="M32.94,5.2a5.19,5.19,0,1,1-10.37.22V5.2a5.19,5.19,0,1,1,10.37,0Z"/></g><g id="shape1009-7"><path class="cls-3" d="M27,27.53H21.39a7.26,7.26,0,0,0-1.1,14.39,8.1,8.1,0,0,1,.07-2.69A4.57,4.57,0,0,1,17,33.78a4.49,4.49,0,0,1,4.42-3.59H27a4.59,4.59,0,0,1,0,9.17H25.49a3.62,3.62,0,0,0-.33,1.45,3.49,3.49,0,0,0,.22,1.2H27a7.25,7.25,0,0,0,0-14.48Z"/></g><g id="shape1010-11"><path class="cls-4" d="M35.22,33.67a8.05,8.05,0,0,1,.08,1.11,8.37,8.37,0,0,1-.15,1.58,4.57,4.57,0,0,1,3.4,5.45,4.5,4.5,0,0,1-4.43,3.59H28.46a4.59,4.59,0,0,1-.22-9.17H30a3.49,3.49,0,0,0,.33-1.45,3.29,3.29,0,0,0-.23-1.21H28.46a7.25,7.25,0,0,0,0,14.48h5.66a7.26,7.26,0,0,0,1.1-14.38Z"/></g><g id="shape1011-15"><path class="cls-5" d="M17.57,51.09l-1.29,1.34a.88.88,0,0,1-1.25,0L.52,37.61A1.85,1.85,0,0,1,.52,35l1.31-1.33,15.74,16.1a.91.91,0,0,1,0,1.26v0Z"/></g><g id="shape1012-17"><path class="cls-2" d="M16,20.43l1.45,1.49a.93.93,0,0,1,0,1.28L2,39.1.52,37.63a1.85,1.85,0,0,1,0-2.57L14.76,20.43a.88.88,0,0,1,1.25,0Z"/></g><g id="shape1013-19"><path class="cls-5" d="M39.1,52.15a.92.92,0,0,1,0-1.27h0L54.86,34.78l1.31,1.34a1.85,1.85,0,0,1,0,2.57L41.65,53.48a.85.85,0,0,1-1.23,0h0Z"/></g><g id="shape1014-21"><path class="cls-2" d="M41.92,21.49,56.17,36.12a1.84,1.84,0,0,1,0,2.56l-1.45,1.48-15.5-15.9a.94.94,0,0,1,0-1.29l1.45-1.48a.88.88,0,0,1,1.25,0Z"/></g></g></g></svg>