<svg id="Layer_1" data-name="Layer 1" xmlns="http://www.w3.org/2000/svg" width="48.19" height="56.69" viewBox="0 0 48.19 56.69"><defs><style>.cls-1{fill:#e5e5e5;}.cls-2{fill:#59b4d9;}.cls-3,.cls-5,.cls-6{fill:#fff;}.cls-3{fill-opacity:0.6;}.cls-4{fill:#7a7a7a;}.cls-5,.cls-6{fill-opacity:0.7;}.cls-5,.cls-7{fill-rule:evenodd;}.cls-7{fill:#1e1e1e;fill-opacity:0.2;}</style></defs><g id="group987-1"><g id="group988-2"><g id="shape989-3"><rect class="cls-1" width="11.48" height="56.69"/></g><g id="shape990-5"><rect class="cls-2" x="2.29" y="2.27" width="6.82" height="52.16"/></g><g id="shape991-7"><rect class="cls-3" x="2.29" y="22.68" width="6.89" height="31.75"/></g><g id="shape992-9"><rect class="cls-4" y="52.16" width="11.47" height="4.54"/></g><g id="shape993-11"><path class="cls-5" d="M0,20.41H11.47v2.27H0Z"/></g><g id="shape994-13"><rect class="cls-1" x="18.36" width="11.48" height="56.69"/></g><g id="shape995-15"><rect class="cls-2" x="20.65" y="2.27" width="6.82" height="52.16"/></g><g id="shape996-17"><rect class="cls-3" x="20.66" y="40.82" width="6.89" height="13.61"/></g><g id="shape997-19"><rect class="cls-4" x="18.36" y="38.55" width="11.47" height="4.54"/></g><g id="shape998-21"><rect class="cls-6" x="18.36" y="38.55" width="11.47" height="2.27"/></g><g id="shape999-23"><rect class="cls-1" x="36.71" width="11.48" height="56.69"/></g><g id="shape1000-25"><rect class="cls-2" x="39.01" y="2.27" width="6.82" height="52.16"/></g><g id="shape1001-27"><rect class="cls-3" x="39.01" y="22.68" width="6.89" height="31.75"/></g><g id="shape1002-29"><rect class="cls-4" x="36.71" y="20.41" width="11.47" height="4.54"/></g><g id="shape1003-31"><rect class="cls-6" x="36.71" y="20.41" width="11.47" height="2.27"/></g><g id="shape1004-33"><path class="cls-7" d="M0,24.94H11.47v2.27H0Zm36.68,0H48.15v2.27H36.68ZM18.36,43.08H29.84v2.27H18.36Z"/></g></g></g></svg>