<svg id="Layer_1" data-name="Layer 1" xmlns="http://www.w3.org/2000/svg" width="56.69" height="53.86" viewBox="0 0 56.69 53.86"><defs><style>.cls-1{fill:#949494;}.cls-1,.cls-2,.cls-3,.cls-4{fill-rule:evenodd;}.cls-2{fill:#a3a3a3;}.cls-3{fill:#999;}.cls-4{fill:#003067;}.cls-5{fill:#50e6ff;}</style></defs><g id="group973-1"><g id="group974-2"><g id="shape975-3"><path class="cls-1" d="M0,47.38a.5.5,0,0,0,.28.47l3.85,2.2,6.51,3.72a.58.58,0,0,0,.76-.18l2.17-3.79a.5.5,0,0,0-.14-.69l0,0L5.74,44.71a.54.54,0,0,1-.25-.46V9.61a.56.56,0,0,1,.25-.46l7.65-4.38a.5.5,0,0,0,.22-.67l0,0L11.41.27a.56.56,0,0,0-.75-.18L4.36,3.75.29,6A.5.5,0,0,0,0,6.48Z"/></g><g id="shape976-5"><path class="cls-2" d="M13.58,4.06,11.41.27A.59.59,0,0,0,10.84,0a.36.36,0,0,0-.25,0L4.29,3.69.2,6,0,6.2a1,1,0,0,0,0,.25l5.48,3.1a.53.53,0,0,1,.25-.46l7.65-4.32a.5.5,0,0,0,.22-.67l0,0Zm0,45.74-2.17,3.79a.55.55,0,0,1-.57.25.36.36,0,0,1-.25,0l-6.3-3.67L.2,47.85,0,47.66a1,1,0,0,1,0-.25l5.48-3.1a.56.56,0,0,0,.25.47l7.65,4.37a.49.49,0,0,1,.19.65Z"/></g><g id="shape977-7"><path class="cls-1" d="M56.69,6.48A.47.47,0,0,0,56.41,6L52.56,3.81,46.05.09a.57.57,0,0,0-.75.19L43.12,4.06a.5.5,0,0,0,.15.69l0,0L51,9.15a.57.57,0,0,1,.26.47V44.25a.56.56,0,0,1-.25.47l-7.65,4.37a.5.5,0,0,0-.21.67l0,.05,2.16,3.78a.59.59,0,0,0,.76.19l6.29-3.67,4-2.26a.49.49,0,0,0,.29-.46V6.48Z"/></g><g id="shape978-9"><path class="cls-2" d="M43.12,49.8l2.17,3.79a.57.57,0,0,0,.57.25.36.36,0,0,0,.25,0l6.3-3.67,4-2.26.19-.19a.53.53,0,0,0,0-.25l-5.48-3.1a.56.56,0,0,1-.25.47l-7.65,4.37a.5.5,0,0,0-.06.59Zm0-45.74L45.29.27A.61.61,0,0,1,45.86,0a.36.36,0,0,1,.25,0l6.3,3.67,4,2.26.19.19a.53.53,0,0,1,0,.25l-5.48,3.1A.53.53,0,0,0,50.83,9L43.31,4.77a.49.49,0,0,1-.21-.67.08.08,0,0,0,0,0Z"/></g><g id="shape979-11"><path class="cls-3" d="M26.85,39.07a1,1,0,0,1-1,.9H10.63a1,1,0,0,1-1-.87V14.71a.94.94,0,0,1,1-.91H25.87a.93.93,0,0,1,1,.9h0Z"/></g><g id="shape980-13"><path class="cls-4" d="M12.17,25A1.92,1.92,0,0,1,14,23h8.57a2,2,0,0,1,0,4.07H14a2,2,0,0,1-1.87-2Zm0-6A2,2,0,0,1,14,16.91h8.56A2,2,0,0,1,24.48,19a2,2,0,0,1-1.89,2H14a1.93,1.93,0,0,1-1.86-2Z"/></g><g id="shape981-15"><ellipse class="cls-5" cx="14.56" cy="18.96" rx="1.39" ry="1.37"/></g><g id="shape982-17"><ellipse class="cls-5" cx="14.56" cy="24.98" rx="1.39" ry="1.37"/></g><g id="shape983-19"><path class="cls-3" d="M47.5,39.07a.94.94,0,0,1-1,.9H31.28a.94.94,0,0,1-1-.87V14.71a1,1,0,0,1,1-.91H46.49a.94.94,0,0,1,1,.86v24.4Z"/></g><g id="shape984-21"><path class="cls-4" d="M32.79,25a2,2,0,0,1,1.89-2h8.57a2,2,0,0,1,0,4.07H34.65A2,2,0,0,1,32.76,25h0Zm0-6a2,2,0,0,1,1.89-2.05h8.57A2,2,0,0,1,45.14,19a2,2,0,0,1-1.89,2h-8.6a2,2,0,0,1-1.89-2Z"/></g><g id="shape985-23"><ellipse class="cls-5" cx="35.22" cy="18.96" rx="1.39" ry="1.37"/></g><g id="shape986-25"><ellipse class="cls-5" cx="35.22" cy="24.98" rx="1.39" ry="1.37"/></g></g></g></svg>