<svg id="Layer_1" data-name="Layer 1" xmlns="http://www.w3.org/2000/svg" xmlns:xlink="http://www.w3.org/1999/xlink" width="56.69" height="43.24" viewBox="0 0 56.69 43.24"><defs><style>.cls-1,.cls-2,.cls-3,.cls-4,.cls-5{fill-rule:evenodd;}.cls-1{fill:url(#linear-gradient);}.cls-2{fill:#767676;}.cls-3,.cls-6{fill:#f2f2f2;}.cls-4{fill:url(#linear-gradient-2);}.cls-5{fill:url(#linear-gradient-3);}</style><linearGradient id="linear-gradient" x1="-294.45" y1="409.76" x2="-293.45" y2="409.76" gradientTransform="matrix(0, -19.37, -31.84, 0, 13062.64, -5660.25)" gradientUnits="userSpaceOnUse"><stop offset="0" stop-color="#32bedd"/><stop offset="0.18" stop-color="#32caea"/><stop offset="0.41" stop-color="#32d2f2"/><stop offset="0.78" stop-color="#32d4f5"/></linearGradient><linearGradient id="linear-gradient-2" x1="-259.55" y1="425.02" x2="-258.55" y2="425.02" gradientTransform="matrix(0, 19.37, 31.87, 0, -13516.89, 5041.84)" xlink:href="#linear-gradient"/><linearGradient id="linear-gradient-3" x1="-259.55" y1="425.02" x2="-258.55" y2="425.02" gradientTransform="matrix(0, 19.37, 31.84, 0, -13516.8, 5051.36)" xlink:href="#linear-gradient"/></defs><g id="group950-1"><g id="group951-2"><g id="shape952-3"><path class="cls-1" d="M0,23.87H31.84V42.14a1.08,1.08,0,0,1-1.07,1.1H1.07A1.08,1.08,0,0,1,0,42.14Z"/></g><g id="shape953-7"><path class="cls-2" d="M1.07,36.25h29.7a1.08,1.08,0,0,1,1.07,1.1v5.89H0V37.35A1.08,1.08,0,0,1,1.07,36.25Z"/></g><g id="shape954-9"><path class="cls-3" d="M4.28,2.26a.55.55,0,0,0,.54.55H27a.55.55,0,0,0,.54-.55V.55A.54.54,0,0,0,27,0H4.82a.54.54,0,0,0-.53.55Z"/></g><g id="shape955-11"><path class="cls-4" d="M12.41,14.35H44.28V32.62a1.09,1.09,0,0,1-1.07,1.1H13.48a1.09,1.09,0,0,1-1.07-1.1Z"/></g><g id="shape956-15"><path class="cls-2" d="M13.48,7.38h29.7a1.09,1.09,0,0,1,1.07,1.1v5.86H12.44V8.48A1.09,1.09,0,0,1,13.48,7.38Z"/></g><g id="shape957-17"><path class="cls-3" d="M16.69,11.75a.54.54,0,0,0,.54.55h22.2a.54.54,0,0,0,.54-.55V10a.54.54,0,0,0-.53-.55H17.23a.54.54,0,0,0-.53.55Z"/></g><g id="shape958-19"><path class="cls-5" d="M0,23.87H31.84V42.14a1.08,1.08,0,0,1-1.07,1.1H1.07A1.08,1.08,0,0,1,0,42.14Z"/></g><g id="shape959-22"><path class="cls-2" d="M25.92,16.88h29.7A1.08,1.08,0,0,1,56.69,18v5.89H24.85V18A1.08,1.08,0,0,1,25.92,16.88Z"/></g><g id="group960-24"><g id="shape961-25"><ellipse class="cls-6" cx="33.61" cy="32.36" rx="2.58" ry="2.66"/></g><g id="shape962-27"><ellipse class="cls-6" cx="33.61" cy="32.36" rx="2.58" ry="2.66"/></g><g id="shape963-29"><ellipse class="cls-6" cx="33.61" cy="32.36" rx="2.58" ry="2.66"/></g></g><g id="shape964-31"><path class="cls-3" d="M29.13,21.24a.55.55,0,0,0,.54.56h22.2a.54.54,0,0,0,.54-.55V19.53a.54.54,0,0,0-.53-.55H29.67a.55.55,0,0,0-.53.56Z"/></g></g></g></svg>