<svg id="Layer_1" data-name="Layer 1" xmlns="http://www.w3.org/2000/svg" xmlns:xlink="http://www.w3.org/1999/xlink" width="56.69" height="45.35" viewBox="0 0 56.69 45.35"><defs><style>.cls-1,.cls-2,.cls-4{fill-rule:evenodd;}.cls-1{fill:url(#linear-gradient);}.cls-2{fill:#767676;}.cls-3,.cls-4{fill:#f2f2f2;}</style><linearGradient id="linear-gradient" x1="-287.14" y1="415.22" x2="-286.14" y2="415.22" gradientTransform="matrix(0, -33.34, -56.69, 0, 23567.01, -9527.83)" gradientUnits="userSpaceOnUse"><stop offset="0" stop-color="#32bedd"/><stop offset="0.18" stop-color="#32caea"/><stop offset="0.41" stop-color="#32d2f2"/><stop offset="0.78" stop-color="#32d4f5"/></linearGradient></defs><g id="group965-1"><g id="group966-2"><g id="shape967-3"><path class="cls-1" d="M0,12H56.69V43.46a1.89,1.89,0,0,1-1.9,1.89H1.9A1.89,1.89,0,0,1,0,43.46Z"/></g><g id="shape968-7"><path class="cls-2" d="M1.9,0H54.79a1.9,1.9,0,0,1,1.9,1.89h0V12H0V1.86A1.9,1.9,0,0,1,1.9,0Z"/></g><g id="shape969-9"><ellipse class="cls-3" cx="41.09" cy="26.61" rx="4.6" ry="4.58"/></g><g id="shape970-11"><ellipse class="cls-3" cx="28.55" cy="26.61" rx="4.6" ry="4.58"/></g><g id="shape971-13"><ellipse class="cls-3" cx="15.61" cy="26.61" rx="4.6" ry="4.58"/></g><g id="shape972-15"><path class="cls-4" d="M7.64,7.51a.93.93,0,0,0,.93.93H48.16a.93.93,0,0,0,.93-.93v-3a.93.93,0,0,0-.94-.93H8.57a.93.93,0,0,0-.94.93Z"/></g></g></g></svg>