<svg id="Layer_1" data-name="Layer 1" xmlns="http://www.w3.org/2000/svg" width="41.77" height="53.12" viewBox="0 0 41.77 53.12"><defs><style>.cls-1{fill:#3772a4;}.cls-1,.cls-2,.cls-3{fill-rule:evenodd;}.cls-3{fill:#ffda4b;}</style></defs><g id="group944-1"><g id="group945-2"><g id="shape946-3"><path class="cls-1" d="M0,38.81c0-.08,0-.16,0-.24.05-.83.06-1.66.15-2.48a14.17,14.17,0,0,1,2.56-7.46,7.42,7.42,0,0,1,5.12-3,6.8,6.8,0,0,1,.9-.06H27.91c.37,0,.37,0,.37-.38V23.89c0-.27-.08-.33-.34-.33h-13c-.22,0-1.4-.07-1.4-.3v-6.5c0-1,1.56-1.8,2.19-2.5a7.82,7.82,0,0,1,3.21-2.06,19.16,19.16,0,0,1,4.61-1A37.8,37.8,0,0,1,30,11a21,21,0,0,1,6.83,1.27,8.36,8.36,0,0,1,3.82,2.7,5.41,5.41,0,0,1,1.12,3.6c-.06,1.1,0,2.22,0,3.32V28c0,1.2,0,2.41-.06,3.6a6.41,6.41,0,0,1-4.16,6,9.59,9.59,0,0,1-3.7.71H20.34a7.59,7.59,0,0,0-4.13,1.09,7.11,7.11,0,0,0-3.12,4.37,9.87,9.87,0,0,0-.38,2.81v6.14c0,.4,0,.4-.42.4-1.46,0-2.94,0-4.41,0A6.18,6.18,0,0,1,4,51.42a9.83,9.83,0,0,1-2.7-4.21,17.63,17.63,0,0,1-1-4.52c-.09-1-.12-2-.19-3,0-.11,0-.22,0-.32Z"/></g><g id="shape947-5"><path class="cls-2" d="M18,2.7a2.7,2.7,0,0,1,5.4,0h0a2.7,2.7,0,0,1-5.4,0Z"/></g><g id="shape948-7"><path class="cls-3" d="M41.75,25.21a1,1,0,0,0-.06.25c0,.82,0,1.65-.14,2.47A14.2,14.2,0,0,1,39,35.36a7.49,7.49,0,0,1-5.12,3c-.3,0-.6,0-.9,0H13.85c-.38,0-.38,0-.38.38v1.33c0,.27.08.33.34.33h13c.23,0,.3.06.3.3v6.5A3.85,3.85,0,0,1,26,49.73a8,8,0,0,1-3.19,2.09,20.19,20.19,0,0,1-4.6,1,40.08,40.08,0,0,1-6.48.2A21.44,21.44,0,0,1,5,51.8a8.38,8.38,0,0,1-3.82-2.7A5.39,5.39,0,0,1,0,45.5c0-1.1,0-2.22,0-3.31V36c0-1.2,0-2.41,0-3.6a6.4,6.4,0,0,1,4.16-6,9.25,9.25,0,0,1,3.71-.71h13.5a7.76,7.76,0,0,0,4.12-1.09,7.16,7.16,0,0,0,3.12-4.37,10.69,10.69,0,0,0,.38-2.81V11.36c0-.4,0-.4.41-.4,1.47,0,2.95-.05,4.41,0a6.12,6.12,0,0,1,3.92,1.65,9.73,9.73,0,0,1,2.7,4.2,17.87,17.87,0,0,1,1,4.57c.09,1,.12,2,.18,3a2,2,0,0,0,.06.32c0,.18,0,.36,0,.54Z"/></g><g id="shape949-9"><path class="cls-2" d="M39.16,45.85a2.7,2.7,0,1,1-2.7-2.7,2.7,2.7,0,0,1,2.7,2.7Z"/></g></g></g></svg>