<svg id="Layer_1" data-name="Layer 1" xmlns="http://www.w3.org/2000/svg" width="56.69" height="56.69" viewBox="0 0 56.69 56.69"><defs><style>.cls-1,.cls-4,.cls-9{fill:#ff8c00;}.cls-1,.cls-2,.cls-3,.cls-4,.cls-5,.cls-6,.cls-9{fill-rule:evenodd;}.cls-2{fill:#dd5900;}.cls-3,.cls-8{fill:#fcd116;}.cls-4{fill-opacity:0.2;}.cls-5{fill:#0072c6;}.cls-6,.cls-7{fill:#fff;}.cls-6{fill-opacity:0.6;}.cls-9{fill-opacity:0.4;}</style></defs><g id="group928-1"><g id="group929-2"><g id="shape930-3"><path class="cls-1" d="M12.32,33.12S5.91,28.29,1.24,29.71C2.53,25.06,9,19.81,14.79,18.77c6.83.78,8,2,8,2Z"/></g><g id="shape931-5"><path class="cls-2" d="M24,44.8,36.37,34.31s1.19,1.19,2,8c-1,5.81-6.3,12.25-10.94,13.55C28.82,51.2,24,44.8,24,44.8Z"/></g><g id="shape932-7"><path class="cls-3" d="M56.69,0S29.33,5.81,12,32.71l12,12C50.88,27.36,56.69,0,56.69,0Z"/></g><g id="shape933-9"><path class="cls-4" d="M56.69,0S29.33,5.81,12,32.71l12,12C50.88,27.36,56.69,0,56.69,0Z"/></g><g id="shape934-11"><path class="cls-2" d="M56.69,0,18,38.7l6,6C50.88,27.36,56.69,0,56.69,0Z"/></g><g id="shape935-13"><path class="cls-1" d="M13.51,34.22C27,14.14,45.84,6,52.93,3.77,50.72,10.85,42.55,29.7,22.47,43.19Z"/></g><g id="shape936-15"><path class="cls-5" d="M56.69,0A66.72,66.72,0,0,0,40.84,6.27l9.58,9.58A66.72,66.72,0,0,0,56.69,0Z"/></g><g id="shape937-17"><path class="cls-1" d="M0,56.69s0-14.38,12-24l12,12C14.38,56.68,0,56.69,0,56.69Z"/></g><g id="shape938-19"><path class="cls-3" d="M4.06,52.64a31.19,31.19,0,0,1,9.62-18.25L22.31,43A31.09,31.09,0,0,1,4.06,52.64Z"/></g><g id="shape939-21"><path class="cls-6" d="M8.3,48.4a29,29,0,0,1,6.59-12.79l6.2,6.19A28.48,28.48,0,0,1,8.3,48.4Z"/></g><g id="shape940-23"><circle class="cls-7" cx="35.98" cy="20.72" r="6.17"/></g><g id="shape941-25"><circle class="cls-8" cx="35.98" cy="20.71" r="4.62"/></g><g id="shape942-27"><path class="cls-9" d="M40.16,18.76a4.62,4.62,0,0,1-8.37,3.91Z"/></g><g id="shape943-29"><path class="cls-2" d="M15.82,43.29c-1.39,1.39-4.28,1.89-4.28,1.89s.61-3,1.86-4.31L25,29.28l2.41,2.42Z"/></g></g></g></svg>