<svg id="Layer_1" data-name="Layer 1" xmlns="http://www.w3.org/2000/svg" xmlns:xlink="http://www.w3.org/1999/xlink" width="56.69" height="56.69" viewBox="0 0 56.69 56.69"><defs><style>.cls-1{fill:url(#radial-gradient);}.cls-2{fill:#fff;}.cls-3{fill:#7a7a7a;fill-rule:evenodd;}.cls-4{fill:url(#radial-gradient-2);}</style><radialGradient id="radial-gradient" cx="-272.21" cy="418.63" r="0.5" gradientTransform="matrix(56.69, 0, 0, -56.69, 15460.96, 23761.53)" gradientUnits="userSpaceOnUse"><stop offset="0.18" stop-color="#5ea0ef"/><stop offset="0.56" stop-color="#5c9fee"/><stop offset="0.69" stop-color="#559ced"/><stop offset="0.79" stop-color="#4a97e9"/><stop offset="0.86" stop-color="#3990e4"/><stop offset="0.93" stop-color="#2387de"/><stop offset="0.98" stop-color="#087bd6"/><stop offset="1" stop-color="#0078d4"/></radialGradient><radialGradient id="radial-gradient-2" cx="-245.74" cy="383.53" r="0" gradientTransform="matrix(8.03, 0, 0, -8.03, 2005.88, 3104.2)" gradientUnits="userSpaceOnUse"><stop offset="0" stop-color="#7f7f7f"/><stop offset="1" stop-color="#5e5e5e"/></radialGradient></defs><g id="group922-1"><g id="group923-2"><g id="shape924-3"><circle class="cls-1" cx="28.35" cy="28.35" r="28.35"/></g><g id="shape925-7"><circle class="cls-2" cx="28.46" cy="28.35" r="24.68"/></g><g id="shape926-9"><path class="cls-3" d="M39.93,15.88l3-3,1,1-3,3Zm5.25,11.75h4.23V29H45.18ZM39.73,40.56l1-1,3,3-1,1ZM27.77,45h1.37V49.2H27.77ZM12.9,13.72l1-1,3,3-1,1Zm.2,29,3-3,1,1-3,3ZM7.24,27.63h4.23V29H7.24Zm31.41,8.28-7.17-7.17a1.75,1.75,0,0,0-1.17-.49,1.59,1.59,0,0,0,.21-.8V9.19a1.75,1.75,0,0,0-1.73-1.73h-.33a1.75,1.75,0,0,0-1.74,1.73V27.45a1.74,1.74,0,0,0,1.74,1.74h.19a1.72,1.72,0,0,0,.14,2.23L36,38.6a1.73,1.73,0,0,0,2.45,0l.24-.24A1.74,1.74,0,0,0,38.65,35.91Z"/></g><g id="shape927-11"><circle class="cls-4" cx="28.48" cy="28.3" r="4.02"/></g></g></g></svg>