<svg id="Layer_1" data-name="Layer 1" xmlns="http://www.w3.org/2000/svg" xmlns:xlink="http://www.w3.org/1999/xlink" width="56.7" height="48.2" viewBox="0 0 56.7 48.2"><defs><style>.cls-1,.cls-2,.cls-3{fill-rule:evenodd;}.cls-1{fill:url(#linear-gradient);}.cls-2{fill:#fff;}.cls-3{fill:url(#linear-gradient-2);}</style><linearGradient id="linear-gradient" x1="-288.12" y1="414.89" x2="-287.12" y2="414.89" gradientTransform="matrix(0, -30.31, -43.28, 0, 17991.47, -8703.17)" gradientUnits="userSpaceOnUse"><stop offset="0" stop-color="#0078d4"/><stop offset="0.16" stop-color="#1380da"/><stop offset="0.53" stop-color="#3c91e5"/><stop offset="0.82" stop-color="#559cec"/><stop offset="1" stop-color="#5ea0ef"/></linearGradient><linearGradient id="linear-gradient-2" x1="-287.9" y1="415.04" x2="-286.9" y2="415.04" gradientTransform="matrix(0, -30.92, -44.47, 0, 18479.05, -8853.76)" gradientUnits="userSpaceOnUse"><stop offset="0" stop-color="#198ab3"/><stop offset="0.13" stop-color="#21a0c7"/><stop offset="0.31" stop-color="#28b7db"/><stop offset="0.5" stop-color="#2ec7ea"/><stop offset="0.72" stop-color="#31d1f2"/><stop offset="1" stop-color="#32d4f5"/></linearGradient></defs><g id="group917-1"><g id="group918-2"><g id="shape919-3"><path class="cls-1" d="M56.7,20.74a9.62,9.62,0,0,0-8.45-9.26A12.16,12.16,0,0,0,35.66,0a12.6,12.6,0,0,0-12,8.12,11.45,11.45,0,0,0-10.2,11A11.67,11.67,0,0,0,25.5,30.31H46.93A9.75,9.75,0,0,0,56.7,20.74Z"/></g><g id="shape920-7"><path class="cls-2" d="M45.32,12.47,39.56,7c-.63-.62-1.17-.4-1.17.56V10a.68.68,0,0,1-.69.68h0c-3.72,0-14.08,1-14.46,14.84a.72.72,0,0,0,.73.71h3.68a.72.72,0,0,0,.73-.7v-.07A8.52,8.52,0,0,1,35,15.33a9,9,0,0,1,2.79-.14.72.72,0,0,1,.73.71h0v2.28c0,1.14.38,1.33,1.16.56l5.64-5.09a.69.69,0,0,0,.19-1,.58.58,0,0,0-.19-.19Z"/></g><g id="shape921-9"><path class="cls-3" d="M44.47,38.51a9.86,9.86,0,0,0-8.66-9.41,12.5,12.5,0,0,0-13-11.82,12.92,12.92,0,0,0-12.34,8.27A11.77,11.77,0,0,0,0,36.78a12,12,0,0,0,12.54,11.4H34a1.23,1.23,0,0,0,.54,0A10,10,0,0,0,44.47,38.51Z"/></g></g></g></svg>