<svg id="Layer_1" data-name="Layer 1" xmlns="http://www.w3.org/2000/svg" width="56.75" height="53.91" viewBox="0 0 56.75 53.91"><defs><style>.cls-1{fill:#64707d;}.cls-1,.cls-2,.cls-3,.cls-4,.cls-5{fill-rule:evenodd;}.cls-2{fill:#5168b1;}.cls-3{fill:#7bc2e7;}.cls-4{fill:#909ca8;}.cls-5{fill:#565656;}</style></defs><g id="group909-1"><g id="group910-2"><g id="shape911-3"><path class="cls-1" d="M28.27,26.82l4.17-6,22.77,15.9a3.6,3.6,0,0,1,.9,5l-.09.12a3.56,3.56,0,0,1-5,.91h0L28.27,26.81Z"/></g><g id="shape912-5"><path class="cls-2" d="M11.57,21.17,21.44,6.9,34.6,16.09,24.73,30.36Z"/></g><g id="shape913-7"><path class="cls-3" d="M6.87,24.82l2.47-3.57L25.26,32.36l-2.47,3.57a2.9,2.9,0,0,1-4.05.74h0L7.6,28.89h0a2.94,2.94,0,0,1-.74-4.07ZM39.08,12.37l-2.47,3.57L20.7,4.82l2.46-3.56a2.89,2.89,0,0,1,4-.74h0L38.35,8.3a2.93,2.93,0,0,1,.73,4.07Z"/></g><g id="shape914-9"><path class="cls-4" d="M4.72,47.07H28.17a4.73,4.73,0,0,1,4.72,4.74v2.1H0v-2.1A4.73,4.73,0,0,1,4.72,47.07Z"/></g><g id="shape915-11"><path class="cls-5" d="M20,5.88l.72-1,16,11.08L35.92,17ZM9.37,21.22l.73-1.06L26,31.29l-.73,1.05Z"/></g><g id="shape916-13"><path class="cls-4" d="M41.2,26.9l-8.76-6.11-4.17,6,8.67,6,4.26-6Z"/></g></g></g></svg>