<svg id="Layer_1" data-name="Layer 1" xmlns="http://www.w3.org/2000/svg" xmlns:xlink="http://www.w3.org/1999/xlink" width="56.7" height="51.03" viewBox="0 0 56.7 51.03"><defs><style>.cls-1{fill:#949494;}.cls-1,.cls-5,.cls-6{fill-rule:evenodd;}.cls-2{fill:#86d633;}.cls-3{fill:url(#linear-gradient);}.cls-4{fill:url(#linear-gradient-2);}.cls-5,.cls-6{fill:#999;}.cls-6{fill-opacity:0.5;}</style><linearGradient id="linear-gradient" x1="-309.3" y1="398.83" x2="-308.3" y2="398.83" gradientTransform="matrix(0, -10.37, -10.27, 0, 4112.6, -3170.53)" gradientUnits="userSpaceOnUse"><stop offset="0" stop-color="#6f4bb2"/><stop offset="1" stop-color="#c69aeb"/></linearGradient><linearGradient id="linear-gradient-2" x1="-309.3" y1="398.83" x2="-308.3" y2="398.83" gradientTransform="matrix(0, -10.37, -10.27, 0, 4132.43, -3170.53)" xlink:href="#linear-gradient"/></defs><g id="group889-1"><g id="group890-2"><g id="shape891-3"><path class="cls-1" d="M39.33,32.06,29.4,16l-.9.57L27.64,16l-10,16.09,2,1.25,8.8-14.25,8.83,14.28Z"/></g><g id="shape892-5"><ellipse class="cls-2" cx="28.34" cy="16.64" rx="5.13" ry="5.19"/></g><g id="shape893-7"><ellipse class="cls-3" cx="18.44" cy="32.64" rx="5.13" ry="5.19"/></g><g id="shape894-11"><ellipse class="cls-4" cx="38.27" cy="32.64" rx="5.13" ry="5.19"/></g><g id="group895-14"><g id="shape896-15"><path class="cls-5" d="M1.91,37.92h4.3V50.05a1,1,0,0,1-1,1H1a1,1,0,0,1-1-1H0V39.94a1.9,1.9,0,0,1,1.79-2Z"/></g><g id="shape897-17"><path class="cls-6" d="M1.91,37.92h4.3V50.05a1,1,0,0,1-1,1H1a1,1,0,0,1-1-1H0V39.94a1.9,1.9,0,0,1,1.79-2Z"/></g></g><g id="group898-19"><g id="shape899-20"><path class="cls-5" d="M50.46,0h4.27a1.91,1.91,0,0,1,1.9,1.92h0V12a1,1,0,0,1-1,1H51.4a1,1,0,0,1-1-1h0V0Z"/></g><g id="shape900-22"><path class="cls-6" d="M50.46,0h4.27a1.91,1.91,0,0,1,1.9,1.92h0V12a1,1,0,0,1-1,1H51.4a1,1,0,0,1-1-1h0V0Z"/></g></g><g id="shape901-24"><path class="cls-1" d="M56.67,1.92V6.16H0V1.92A1.91,1.91,0,0,1,1.9,0H54.77a1.92,1.92,0,0,1,1.9,1.92Z"/></g><g id="group902-26"><g id="shape903-27"><path class="cls-5" d="M1,37.92h4.3a1,1,0,0,1,1,1h0V51H1.91A1.91,1.91,0,0,1,0,49.1H0V39a1,1,0,0,1,.86-1.07H1Z"/></g><g id="shape904-29"><path class="cls-6" d="M1,37.92h4.3a1,1,0,0,1,1,1h0V51H1.91A1.91,1.91,0,0,1,0,49.1H0V39a1,1,0,0,1,.86-1.07H1Z"/></g></g><g id="group905-31"><g id="shape906-32"><path class="cls-5" d="M51.4,37.89h4.34a1,1,0,0,1,1,1h0V49a1.91,1.91,0,0,1-1.9,1.92H50.47V38.77a1,1,0,0,1,.93-.88Z"/></g><g id="shape907-34"><path class="cls-6" d="M51.4,37.89h4.34a1,1,0,0,1,1,1h0V49a1.91,1.91,0,0,1-1.9,1.92H50.47V38.77a1,1,0,0,1,.93-.88Z"/></g></g><g id="shape908-36"><path class="cls-1" d="M0,49.1V44.86H56.67V49.1A1.91,1.91,0,0,1,54.77,51H1.91A1.91,1.91,0,0,1,0,49.1Z"/></g></g></g></svg>