<svg id="Layer_1" data-name="Layer 1" xmlns="http://www.w3.org/2000/svg" xmlns:xlink="http://www.w3.org/1999/xlink" width="56.69" height="39.7" viewBox="0 0 56.69 39.7"><defs><style>.cls-1,.cls-2,.cls-3,.cls-4,.cls-5,.cls-6{fill-rule:evenodd;}.cls-1{fill:url(#linear-gradient);}.cls-2{fill:url(#linear-gradient-2);}.cls-3{fill:#fff;}.cls-4,.cls-5,.cls-6{fill:#9cebff;}.cls-4{fill-opacity:0.8;}.cls-5{fill-opacity:0.85;}</style><linearGradient id="linear-gradient" x1="-285.59" y1="412.21" x2="-284.59" y2="412.21" gradientTransform="matrix(0, -39.7, -56.69, 0, 23396.59, -11297.63)" gradientUnits="userSpaceOnUse"><stop offset="0" stop-color="#0078d4"/><stop offset="0.15" stop-color="#1380da"/><stop offset="0.53" stop-color="#3c91e5"/><stop offset="0.82" stop-color="#559cec"/><stop offset="1" stop-color="#5ea0ef"/></linearGradient><linearGradient id="linear-gradient-2" x1="-261.76" y1="430.14" x2="-260.76" y2="430.14" gradientTransform="matrix(0, 22.38, 17.82, 0, -7628.77, 5865.38)" gradientUnits="userSpaceOnUse"><stop offset="0" stop-color="#c3f1ff"/><stop offset="0.1" stop-color="#beeffe"/><stop offset="0.77" stop-color="#32bedd"/></linearGradient></defs><g id="group879-1"><g id="group880-2"><g id="shape881-3"><path class="cls-1" d="M56.69,27.26a12.64,12.64,0,0,0-11-12.09A16,16,0,0,0,29.1,0,16.47,16.47,0,0,0,13.36,10.6,15.08,15.08,0,0,0,0,25.05,15.35,15.35,0,0,0,16,39.69q.71,0,1.41-.06H43.23a2.6,2.6,0,0,0,.68-.1A12.82,12.82,0,0,0,56.69,27.26Z"/></g><g id="shape882-7"><path class="cls-2" d="M26.34,21.68,33.69,7.41A.94.94,0,0,1,35,7a1,1,0,0,1,.4.4L42.67,21a4.9,4.9,0,0,1,.74,2.84c0,3-4,5.41-8.91,5.41s-8.9-2.42-8.9-5.41A3.67,3.67,0,0,1,26.34,21.68Z"/></g><g id="shape883-11"><path class="cls-3" d="M26.34,21.79c-.6,1.2-.75,1.41-.75,2.18a2.32,2.32,0,0,0,0,.46v.18h0c.45,2.31,3.3,4.18,7,4.65V28.8c-3.51-.47-6.21-2.21-6.55-4.37.15-2.17,2.81-4.5,6.55-5v-.28l-.07,0L32.27,19a9.46,9.46,0,0,0-5.39,2.77l.05-.1,2.28-4.41L28.8,17l-2.46,4.79Z"/></g><g id="shape884-13"><path class="cls-4" d="M32.64,19V30L23,35.57V24.5Z"/></g><g id="shape885-15"><path class="cls-5" d="M32.65,18.94,23,24.49,13.3,18.94,23,13.38Z"/></g><g id="shape886-17"><path class="cls-6" d="M23,24.5V35.56L13.3,30V19Z"/></g><g id="shape887-19"><path class="cls-3" d="M23,35.84l-9.9-5.68V18.83L23,13.15l9.9,5.68V30.15Zm-9.44-6L23,35.31l9.44-5.42V19.1L23,13.67l-9.44,5.42Z"/></g><g id="shape888-21"><path class="cls-3" d="M43.4,23.85A4.94,4.94,0,0,0,42.66,21L35.34,7.38a1,1,0,0,0-1.67,0l-4.87,9.5.41.24L34.1,7.61a.47.47,0,0,1,.83,0l7.32,13.63v0a4,4,0,0,1,.57,1.47,10.61,10.61,0,0,0-8.62-4,12.6,12.6,0,0,0-1.94.17l.32.17.07,0v.27a13.32,13.32,0,0,1,1.56-.11c4.71,0,8.51,2.78,8.68,5.15-.4,2.52-4,4.48-8.4,4.48a12.55,12.55,0,0,1-1.84-.13v.47a14.1,14.1,0,0,0,1.84.12c4.57,0,8.33-2.08,8.84-4.77h.05a.41.41,0,0,0,0-.16C43.38,24.18,43.39,24,43.4,23.85Z"/></g></g></g></svg>