<svg id="Layer_1" data-name="Layer 1" xmlns="http://www.w3.org/2000/svg" xmlns:xlink="http://www.w3.org/1999/xlink" width="56.71" height="56.69" viewBox="0 0 56.71 56.69"><defs><style>.cls-1{fill:#b0b0b0;}.cls-2{fill:#fff;}.cls-3,.cls-5{fill:#7a7a7a;}.cls-4,.cls-5{fill-rule:evenodd;}.cls-4{fill:url(#linear-gradient);}.cls-6{fill:url(#radial-gradient);}</style><linearGradient id="linear-gradient" x1="-272.71" y1="418.62" x2="-271.71" y2="418.62" gradientTransform="matrix(56.63, 0, 0, -56.63, 15442.56, 23733.14)" gradientUnits="userSpaceOnUse"><stop offset="0" stop-color="#7956ba"/><stop offset="0.69" stop-color="#724eb4"/><stop offset="0.87" stop-color="#6f4bb2"/></linearGradient><radialGradient id="radial-gradient" cx="-246.14" cy="382.89" r="0.73" gradientTransform="matrix(8, 0, 0, -8, 1998.3, 3092.92)" gradientUnits="userSpaceOnUse"><stop offset="0" stop-color="#7f7f7f"/><stop offset="1" stop-color="#5e5e5e"/></radialGradient></defs><g id="group864-1"><g id="group865-2"><g id="shape866-3"><circle class="cls-1" cx="28.35" cy="28.35" r="28.35"/></g><g id="shape867-5"><circle class="cls-2" cx="28.28" cy="28.25" r="24.08"/></g><g id="shape868-7"><rect class="cls-3" x="39.54" y="14.14" width="4.24" height="1.37" transform="translate(1.72 33.8) rotate(-45)"/></g><g id="shape869-9"><rect class="cls-3" x="44.95" y="27.65" width="4.24" height="1.37"/></g><g id="shape870-11"><rect class="cls-3" x="40.76" y="39.48" width="1.37" height="4.24" transform="translate(-17.28 41.49) rotate(-45)"/></g><g id="shape871-13"><rect class="cls-3" x="27.51" y="45.05" width="1.37" height="4.24"/></g><g id="shape872-15"><rect class="cls-3" x="13.87" y="12.57" width="1.37" height="4.24" transform="translate(-6.12 14.6) rotate(-45)"/></g><g id="shape873-17"><rect class="cls-3" x="12.63" y="41.06" width="4.24" height="1.37" transform="translate(-25.2 22.65) rotate(-45)"/></g><g id="shape874-19"><rect class="cls-3" x="6.9" y="27.65" width="4.24" height="1.37"/></g><g id="shape875-21"><path class="cls-4" d="M28.38,0a2,2,0,0,0-2,2v0a2.1,2.1,0,0,0,2.06,2.1A24.2,24.2,0,1,1,10.54,12l1.7,2.46L17,3.93,5.57,5.27,8.07,8.6A28.32,28.32,0,1,0,28.38,0Z"/></g><g id="shape876-25"><path class="cls-5" d="M26.55,27.51a1.72,1.72,0,0,0,1.73,1.73h.34a1.74,1.74,0,0,0,1.73-1.73V9.27a1.75,1.75,0,0,0-1.73-1.74h-.34a1.73,1.73,0,0,0-1.73,1.74h0Z"/></g><g id="shape877-27"><path class="cls-5" d="M31.29,28.82a1.73,1.73,0,0,0-2.45,0l-.24.24a1.73,1.73,0,0,0,0,2.44l7.17,7.17a1.73,1.73,0,0,0,2.45,0l.24-.24a1.73,1.73,0,0,0,0-2.44Z"/></g><g id="shape878-29"><circle class="cls-6" cx="28.28" cy="28.35" r="4"/></g></g></g></svg>