<svg id="Layer_1" data-name="Layer 1" xmlns="http://www.w3.org/2000/svg" width="56.69" height="48.2" viewBox="0 0 56.69 48.2"><defs><style>.cls-1{fill:#59b4d9;}.cls-1,.cls-2,.cls-4{fill-rule:evenodd;}.cls-2{fill:#0072c6;}.cls-3,.cls-4{fill:#fff;}</style></defs><g id="group856-1"><g id="group857-2"><g id="shape858-3"><path class="cls-1" d="M0,45.93A2.27,2.27,0,0,0,2.27,48.2H54.43a2.27,2.27,0,0,0,2.26-2.27V10.53H0Z"/></g><g id="shape859-5"><path class="cls-2" d="M54.43,0H2.27A2.27,2.27,0,0,0,0,2.26v12H56.69v-12A2.27,2.27,0,0,0,54.43,0Z"/></g><g id="shape860-7"><rect class="cls-3" x="14.63" y="5.43" width="38.21" height="4.41"/></g><g id="shape861-9"><path class="cls-1" d="M12.81,7.58A5.56,5.56,0,1,1,7.26,2,5.56,5.56,0,0,1,12.81,7.58Z"/></g><g id="shape862-11"><path class="cls-4" d="M6.69,8.15l2.5,2.72H7.83L4.54,7.7,7.83,4.42H9.19L6.69,7.13h6.13v1Z"/></g><g id="shape863-13"><path class="cls-2" d="M19.73,36.32a2.06,2.06,0,0,1-.68,1.58,2.38,2.38,0,0,1-1.82.57,2.31,2.31,0,0,1-1.7-.68,2.09,2.09,0,0,1-.68-1.59,2.05,2.05,0,0,1,.68-1.58,2.35,2.35,0,0,1,1.81-.57,2.35,2.35,0,0,1,1.71.68A2.07,2.07,0,0,1,19.73,36.32Zm10.09,0a2.06,2.06,0,0,1-.68,1.58,2.37,2.37,0,0,1-1.82.57,2.33,2.33,0,0,1-1.7-.68,2.09,2.09,0,0,1-.68-1.59,2.05,2.05,0,0,1,.68-1.58,2.37,2.37,0,0,1,1.82-.57,2.33,2.33,0,0,1,1.7.68A2.07,2.07,0,0,1,29.82,36.32Zm10.09,0a2.06,2.06,0,0,1-.68,1.58,2.37,2.37,0,0,1-1.82.57,2.33,2.33,0,0,1-1.7-.68A2.09,2.09,0,0,1,35,36.2a2.05,2.05,0,0,1,.68-1.58,2.37,2.37,0,0,1,1.82-.57,2.33,2.33,0,0,1,1.7.68A2.07,2.07,0,0,1,39.91,36.32Z"/></g></g></g></svg>