<svg id="Layer_1" data-name="Layer 1" xmlns="http://www.w3.org/2000/svg" width="56.69" height="50.95" viewBox="0 0 56.69 50.95"><defs><style>.cls-1{fill:#fee087;}.cls-1,.cls-2,.cls-3,.cls-4,.cls-5{fill-rule:evenodd;}.cls-2{fill:#dd5900;}.cls-3,.cls-4{fill:#ff8c00;}.cls-4{fill-opacity:0.5;}.cls-5{fill:#1e1e1e;fill-opacity:0.2;}</style></defs><g id="group849-1"><g id="group850-2"><g id="shape851-3"><path class="cls-1" d="M54.5,11V6.56H24.83L18.1,0H0V48.33A2.65,2.65,0,0,0,2.69,51H54a2.66,2.66,0,0,0,2.69-2.62V11Z"/></g><g id="shape852-5"><path class="cls-2" d="M29.68,28.69a.34.34,0,0,1-.17-.05L18,22.15a.34.34,0,0,1,0-.59l11.47-6.45a.36.36,0,0,1,.35,0L41.32,21.6a.33.33,0,0,1,.18.29.35.35,0,0,1-.18.3L29.85,28.64a.34.34,0,0,1-.17.05Z"/></g><g id="shape853-7"><path class="cls-3" d="M28,44.47a.39.39,0,0,1-.18,0L16.35,38a.33.33,0,0,1-.18-.29v-13a.38.38,0,0,1,.17-.3.45.45,0,0,1,.36,0l11.5,6.47a.38.38,0,0,1,.17.3v13a.34.34,0,0,1-.17.29.41.41,0,0,1-.18,0Z"/></g><g id="shape854-9"><path class="cls-4" d="M31.28,44.47a.37.37,0,0,1-.18,0,.34.34,0,0,1-.17-.3V31.22a.34.34,0,0,1,.17-.29l11.5-6.48a.37.37,0,0,1,.48.13.33.33,0,0,1,0,.17V37.66a.35.35,0,0,1-.18.3L31.45,44.42a.34.34,0,0,1-.17,0Z"/></g><g id="shape855-11"><path class="cls-5" d="M5.38,11V48.33A2.66,2.66,0,0,1,2.69,51,2.66,2.66,0,0,1,0,48.33V0H18.1l6.73,6.56H54.5V11Z"/></g></g></g></svg>