<svg id="Layer_1" data-name="Layer 1" xmlns="http://www.w3.org/2000/svg" xmlns:xlink="http://www.w3.org/1999/xlink" width="56.4" height="53.91" viewBox="0 0 56.4 53.91"><defs><style>.cls-1,.cls-3{fill-rule:evenodd;}.cls-1{fill:url(#linear-gradient);}.cls-2{fill:none;}.cls-3{fill:#fff;}</style><linearGradient id="linear-gradient" x1="-283.2" y1="419.19" x2="-282.2" y2="419.19" gradientTransform="matrix(0, -53.91, -56.4, 0, 23669.06, -15212.92)" gradientUnits="userSpaceOnUse"><stop offset="0" stop-color="#1988d9"/><stop offset="0.22" stop-color="#218ddc"/><stop offset="0.56" stop-color="#379ce5"/><stop offset="0.9" stop-color="#54aef0"/></linearGradient></defs><g id="group815-1"><g id="group816-2"><g id="shape817-3"><path class="cls-1" d="M28.21,53.91C55.35,34.27,56.28,22.8,56.38,19.22c.16-5-.5-18.13-13.77-19.17A14.13,14.13,0,0,0,28.21,9.6,14.19,14.19,0,0,0,13.65.05C.55,1.09-.15,14.19,0,19.22,0,22.8,1.08,34.27,28.21,53.91Z"/></g><g id="shape818-7"><path class="cls-2" d="M56.38,19.22c.16-5-.5-18.14-13.77-19.17A14.13,14.13,0,0,0,28.21,9.6,14.2,14.2,0,0,0,13.65.05C.55,1.08-.15,14.19,0,19.22,0,22.8.81,34.1,28,53.74Z"/><path class="cls-2" d="M56.38,19.22c.16-5-.5-18.14-13.77-19.17A14.13,14.13,0,0,0,28.21,9.6,14.2,14.2,0,0,0,13.65.05C.55,1.08-.15,14.19,0,19.22,0,22.8.81,34.1,28,53.74"/></g><g id="shape819-10"><path class="cls-3" d="M56.37,17.24H43.1a.56.56,0,0,0-.43.23l-4,7a.52.52,0,0,1-.73.16.49.49,0,0,1-.16-.16L32,13.45a1,1,0,0,0-1.36-.5,1.1,1.1,0,0,0-.5.5L24.66,30a.53.53,0,0,1-.7.26A.59.59,0,0,1,23.7,30L19,19a1,1,0,0,0-1.38-.45,1.08,1.08,0,0,0-.45.45L10.73,30.71a.51.51,0,0,1-.43.27H4.19a44.62,44.62,0,0,0,3,4.09h5.57a.45.45,0,0,0,.44-.27l4-7.47a.54.54,0,0,1,.73-.21.51.51,0,0,1,.2.21l5.51,12.93a1,1,0,0,0,1.92,0l5.81-17.42a.49.49,0,0,1,.93,0l4.84,9.28a1,1,0,0,0,1.35.42,1,1,0,0,0,.41-.42l6.17-10.49a.54.54,0,0,1,.44-.27H56.21Z"/><path class="cls-2" d="M56.37,17.24H43.1a.56.56,0,0,0-.43.23l-4,7a.52.52,0,0,1-.73.16.49.49,0,0,1-.16-.16L32,13.45a1,1,0,0,0-1.36-.5,1.1,1.1,0,0,0-.5.5L24.66,30a.53.53,0,0,1-.7.26A.59.59,0,0,1,23.7,30L19,19a1,1,0,0,0-1.38-.45,1.08,1.08,0,0,0-.45.45L10.73,30.71a.51.51,0,0,1-.43.27H4.19a44.62,44.62,0,0,0,3,4.09h5.57a.45.45,0,0,0,.44-.27l4-7.47a.54.54,0,0,1,.73-.21.51.51,0,0,1,.2.21l5.51,12.93a1,1,0,0,0,1.92,0l5.81-17.42a.49.49,0,0,1,.93,0l4.84,9.28a1,1,0,0,0,1.35.42,1,1,0,0,0,.41-.42l6.17-10.49a.54.54,0,0,1,.44-.27H56.21"/></g></g></g></svg>