<svg id="Layer_1" data-name="Layer 1" xmlns="http://www.w3.org/2000/svg" width="56.7" height="53.91" viewBox="0 0 56.7 53.91"><defs><style>.cls-1{fill:#949494;}.cls-1,.cls-2,.cls-3,.cls-4,.cls-5{fill-rule:evenodd;}.cls-2{fill:#a3a3a3;}.cls-3{fill:#32bedd;}.cls-4{fill:#9cebff;}.cls-5{fill:#50e6ff;}</style></defs><g id="group820-1"><g id="group821-2"><g id="shape822-3"><path class="cls-1" d="M0,47.38a.52.52,0,0,0,.27.47L4.14,50l6.53,3.8a.56.56,0,0,0,.77-.2l2.2-3.76a.53.53,0,0,0-.2-.7L5.77,44.79a.58.58,0,0,1-.27-.47V9.65a.55.55,0,0,1,.27-.47l7.67-4.37a.53.53,0,0,0,.2-.7L11.44.34a.56.56,0,0,0-.75-.27h0L4.27,3.8l-4,2.25A.55.55,0,0,0,0,6.52Z"/></g><g id="shape823-5"><path class="cls-2" d="M5.47,9.38l.2-.2,7.67-4.37a.46.46,0,0,0,.25-.61.19.19,0,0,0-.05-.09L11.34.34A.5.5,0,0,0,10.71,0l-.1,0L4.17,3.8.2,6.05a.22.22,0,0,0-.2.21L3,8Zm7.87,39.71L5.67,44.73a.76.76,0,0,1-.23-.3L0,47.78H.2L4,50,10.7,53.7a.49.49,0,0,0,.69-.13.25.25,0,0,0,0-.07l2.21-3.77a.48.48,0,0,0-.24-.62l-.06,0Z"/></g><g id="shape824-7"><path class="cls-1" d="M56.7,47.38a.52.52,0,0,1-.27.47L52.56,50,46,53.83a.56.56,0,0,1-.77-.2l-2.2-3.76a.52.52,0,0,1,.2-.7l7.67-4.38a.55.55,0,0,0,.26-.47V9.65a.55.55,0,0,0-.27-.47L43.26,4.81a.52.52,0,0,1-.2-.7L45.26.34A.56.56,0,0,1,46,.07h0l6.41,3.65,4,2.26a.56.56,0,0,1,.26.47Z"/></g><g id="shape825-9"><path class="cls-2" d="M51.23,9.38l-.2-.2L43.36,4.81a.46.46,0,0,1-.25-.61.19.19,0,0,1,0-.09L45.36.34A.49.49,0,0,1,46,0l.1,0,6.44,3.67L56.5,6l.2.2-3,1.71ZM43.36,49.09,51,44.73a.76.76,0,0,0,.23-.3l5.4,3.35L52.83,50,46.16,53.7a.5.5,0,0,1-.7-.13l0-.07-2.2-3.77a.47.47,0,0,1,.13-.64Z"/></g><g id="shape826-11"><path class="cls-3" d="M46.05,16.64V37.26L28.31,47.65V27Z"/></g><g id="shape827-13"><path class="cls-4" d="M46.05,16.64,28.34,27,10.6,16.64,28.34,6.26Z"/></g><g id="shape828-15"><path class="cls-5" d="M28.31,27V47.65L10.6,37.26V16.64Z"/></g><g id="shape829-17"><path class="cls-4" d="M10.6,37.26,28.31,27V47.65Z"/></g><g id="shape830-19"><path class="cls-5" d="M46.05,37.26,28.31,27V47.65Z"/></g></g></g></svg>