<svg id="Layer_1" data-name="Layer 1" xmlns="http://www.w3.org/2000/svg" width="56.69" height="56.69" viewBox="0 0 56.69 56.69"><defs><style>.cls-1{fill:#552f99;}.cls-1,.cls-2,.cls-3{fill-rule:evenodd;}.cls-2{fill:#fff;}.cls-3{fill:#b796f9;}.cls-4{fill:#9a5fe3;}</style></defs><g id="group831-1"><g id="group832-2"><g id="shape833-3"><path class="cls-1" d="M0,37.15a1.94,1.94,0,0,0,1.93,1.94H36.8a1.94,1.94,0,0,0,1.93-1.94V2A1.94,1.94,0,0,0,36.81,0H1.93A1.94,1.94,0,0,0,0,1.94H0Z"/></g><g id="shape834-5"><path class="cls-2" d="M3.49,6.36H35.27c.32,0,.62,0,.62.2v5.31a1.5,1.5,0,0,1-.62.16H3.49a1.69,1.69,0,0,0-.62-.16V6.56A1.11,1.11,0,0,1,3.49,6.36Z"/></g><g id="shape835-7"><path class="cls-3" d="M3.49,16.74h32.4v5.41h-33V16.91A1.23,1.23,0,0,1,3.49,16.74Zm0,10.39h32.4v5.24a1.5,1.5,0,0,1-.62.16H3.49c-.36,0-.62,0-.62-.16V27.29A1.29,1.29,0,0,1,3.49,27.13Z"/></g><g id="shape836-9"><path class="cls-3" d="M46.24,51.42,29.06,34a1.36,1.36,0,0,1,0-1.91,1.32,1.32,0,0,1,1-.4H51.89v2.74H33.28L48.17,49.64Z"/></g><g id="shape837-11"><ellipse class="cls-4" cx="30.53" cy="33.16" rx="3.76" ry="3.79"/></g><g id="shape838-13"><ellipse class="cls-4" cx="51.89" cy="32.63" rx="4.8" ry="4.85"/></g><g id="shape839-15"><ellipse class="cls-4" cx="46.86" cy="50.56" rx="6.11" ry="6.13"/></g></g></g></svg>