<svg id="Layer_1" data-name="Layer 1" xmlns="http://www.w3.org/2000/svg" width="40.09" height="40.09" viewBox="0 0 40.09 40.09"><defs><style>.cls-1{fill:#004b1c;}.cls-2{fill:#006020;}.cls-2,.cls-3{fill-rule:evenodd;}.cls-3{fill:#fff;}</style></defs><g id="group810-1"><g id="group811-2"><g id="shape812-3"><circle class="cls-1" cx="20.04" cy="20.05" r="20.04"/></g><g id="shape813-5"><path class="cls-2" d="M34.22,5.87a20,20,0,0,1,0,28.35h0L5.87,5.87a20,20,0,0,1,28.34,0Z"/></g><g id="shape814-7"><path class="cls-3" d="M11.17,25.22,9.4,21.85A6.36,6.36,0,0,0,8.89,21a2.63,2.63,0,0,0-.51-.54,1.76,1.76,0,0,0-.56-.29,2.07,2.07,0,0,0-.65-.08H5.82v5.11H4.76V13.45H8.15a4.08,4.08,0,0,1,1.29.19,3.22,3.22,0,0,1,1.11.59,2.93,2.93,0,0,1,.77,1,3,3,0,0,1,.29,1.35,3.74,3.74,0,0,1-.18,1.15,3.33,3.33,0,0,1-.54.93,3.53,3.53,0,0,1-.85.69,4.45,4.45,0,0,1-1.12.42v0a1.82,1.82,0,0,1,.44.26,3.3,3.3,0,0,1,.38.37,4.67,4.67,0,0,1,.36.51c.12.19.25.41.38.65l2,3.66ZM5.82,14.45v4.66H7.76a3.37,3.37,0,0,0,1.09-.18,2.54,2.54,0,0,0,.84-.49,2.44,2.44,0,0,0,.54-.77,2.7,2.7,0,0,0,.19-1A2.08,2.08,0,0,0,9.78,15a2.74,2.74,0,0,0-1.94-.59ZM14,25.22V13.45h5.74v1H15.12v4.31H19.4v1H15.12v4.48h4.93v1Zm7.58-1.72a4.71,4.71,0,0,0,.65.4,5.35,5.35,0,0,0,1.48.48,4.2,4.2,0,0,0,.72.06,3.33,3.33,0,0,0,2-.51,1.78,1.78,0,0,0,.64-1.49,2.29,2.29,0,0,0-.15-.82,2,2,0,0,0-.49-.64,5.29,5.29,0,0,0-.83-.6c-.33-.2-.73-.42-1.18-.65A10.53,10.53,0,0,1,23.17,19a4.91,4.91,0,0,1-.88-.75,2.48,2.48,0,0,1-.5-.82,2.71,2.71,0,0,1-.16-1,2.54,2.54,0,0,1,.3-1.3,2.82,2.82,0,0,1,.82-1A3.63,3.63,0,0,1,24,13.5a4.62,4.62,0,0,1,1.48-.22,6,6,0,0,1,2.33.39v1.21a4.8,4.8,0,0,0-2.42-.65,3.64,3.64,0,0,0-1,.13,2.2,2.2,0,0,0-.82.38,1.62,1.62,0,0,0-.55.61,1.67,1.67,0,0,0-.2.85,2,2,0,0,0,.14.79,1.81,1.81,0,0,0,.43.64,4.28,4.28,0,0,0,.79.59c.32.2.72.41,1.2.65a14.16,14.16,0,0,1,1.29.77,5.21,5.21,0,0,1,.92.78,2.84,2.84,0,0,1,.54.86,2.92,2.92,0,0,1,.18,1A3.18,3.18,0,0,1,28,23.65a2.87,2.87,0,0,1-.84,1,4,4,0,0,1-1.23.58,6.44,6.44,0,0,1-1.57.2l-.64-.05c-.27,0-.53-.08-.78-.13s-.51-.12-.75-.2a2.77,2.77,0,0,1-.58-.26Zm12-9V25.22H32.57V14.45h-3.4v-1h7.89v1Z"/></g></g></g></svg>