<svg id="Layer_1" data-name="Layer 1" xmlns="http://www.w3.org/2000/svg" width="48.19" height="56.69" viewBox="0 0 48.19 56.69"><defs><style>.cls-1,.cls-3{fill:#3999c6;}.cls-1,.cls-3,.cls-4,.cls-5{fill-rule:evenodd;}.cls-2{fill:#fff;}.cls-3,.cls-5{fill-opacity:0.4;}.cls-4{fill:#7a7a7a;}</style></defs><g id="group802-1"><g id="group803-2"><g id="shape804-3"><path class="cls-1" d="M25.28,9.16A9.17,9.17,0,1,1,16.11,0,9.17,9.17,0,0,1,25.28,9.16ZM22.7,20.75l-6.59,9.88-6.6-9.88H0V45.1H32.21V20.75Z"/></g><g id="shape805-5"><ellipse class="cls-2" cx="30.49" cy="38.72" rx="9.92" ry="10"/></g><g id="shape806-7"><path class="cls-3" d="M19.42,38.72a11.17,11.17,0,0,0,2.93,7.54h11V28.53a12.62,12.62,0,0,0-3.23-1A11.13,11.13,0,0,0,19.42,38.72Z"/></g><g id="shape807-9"><path class="cls-4" d="M46.22,56.69a1.94,1.94,0,0,0,1.38-.57,2,2,0,0,0,0-2.8l-6.79-6.83-2.77,2.79,6.77,6.82A1.92,1.92,0,0,0,46.22,56.69Z"/></g><g id="shape808-11"><path class="cls-5" d="M40.51,51.76A6.5,6.5,0,0,0,43.27,49v0L41.4,47.07l-2.77,2.79,1.88,1.9Z"/></g><g id="shape809-13"><path class="cls-4" d="M30.49,24.93A13.8,13.8,0,1,0,44.18,38.72,13.74,13.74,0,0,0,30.49,24.93Zm0,23.79a10,10,0,1,1,9.92-10A10,10,0,0,1,30.49,48.72Z"/></g></g></g></svg>