<svg id="Layer_1" data-name="Layer 1" xmlns="http://www.w3.org/2000/svg" xmlns:xlink="http://www.w3.org/1999/xlink" width="56.72" height="56.69" viewBox="0 0 56.72 56.69"><defs><style>.cls-1,.cls-2,.cls-4,.cls-5,.cls-6{fill-rule:evenodd;}.cls-1{fill:url(#linear-gradient);}.cls-2{fill:#fff;}.cls-3{fill:url(#linear-gradient-2);}.cls-4{fill:#32bedd;}.cls-5{fill:#9cebff;}.cls-6{fill:#50e6ff;}</style><linearGradient id="linear-gradient" x1="-288.31" y1="430.35" x2="-287.31" y2="430.35" gradientTransform="matrix(0, -30.02, -49.48, 0, 21320.33, -8598.45)" gradientUnits="userSpaceOnUse"><stop offset="0" stop-color="#5e9624"/><stop offset="1" stop-color="#b4ec36"/></linearGradient><linearGradient id="linear-gradient-2" x1="-289.23" y1="426.1" x2="-288.23" y2="426.1" gradientTransform="matrix(0, -27.81, -27.85, 0, 11889.83, -8016.56)" xlink:href="#linear-gradient"/></defs><g id="group793-1"><g id="shape794-2"><path class="cls-1" d="M45.06,56.69a4.33,4.33,0,0,0,4.41-4.26v-.11a2.35,2.35,0,0,0,0-.53C47.73,38,39.85,26.67,24.76,26.67S1.66,36.21,0,51.82a4.47,4.47,0,0,0,4,4.87Z"/></g><g id="shape795-6"><path class="cls-2" d="M25,27.78a13.85,13.85,0,0,1-7.55-2.2L24.76,45l7.41-19.31A14,14,0,0,1,25,27.78Z"/></g><g id="shape796-8"><ellipse class="cls-3" cx="24.86" cy="13.91" rx="13.92" ry="13.91"/></g><g id="shape797-11"><path class="cls-4" d="M56.71,35.45V49.59l-12.15,7.1V42.55Z"/></g><g id="shape798-13"><path class="cls-5" d="M56.72,35.45l-12.16,7.1-12.15-7.1,12.15-7.11Z"/></g><g id="shape799-15"><path class="cls-6" d="M44.56,42.55V56.69l-12.15-7.1V35.45Z"/></g><g id="shape800-17"><path class="cls-5" d="M32.41,49.59l12.15-7V56.69Z"/></g><g id="shape801-19"><path class="cls-6" d="M56.71,49.59l-12.15-7V56.69Z"/></g></g></svg>