<svg id="Layer_1" data-name="Layer 1" xmlns="http://www.w3.org/2000/svg" xmlns:xlink="http://www.w3.org/1999/xlink" width="56.7" height="50.12" viewBox="0 0 56.7 50.12"><defs><style>.cls-1,.cls-2,.cls-4{fill-rule:evenodd;}.cls-1{fill:url(#linear-gradient);}.cls-2{fill:#fff;fill-opacity:0.8;}.cls-3{fill:url(#linear-gradient-2);}.cls-4{fill:#0078d4;}</style><linearGradient id="linear-gradient" x1="-264.89" y1="425" x2="-263.89" y2="425" gradientTransform="matrix(0, 27.59, 46.25, 0, -19623.76, 7331.06)" gradientUnits="userSpaceOnUse"><stop offset="0.22" stop-color="#32d4f5"/><stop offset="0.47" stop-color="#31d1f3"/><stop offset="0.63" stop-color="#2ec9eb"/><stop offset="0.77" stop-color="#29bade"/><stop offset="0.89" stop-color="#22a5cb"/><stop offset="1" stop-color="#198ab3"/></linearGradient><linearGradient id="linear-gradient-2" x1="-263.2" y1="428.03" x2="-262.2" y2="428.03" gradientTransform="matrix(2.09, 25.43, 25.84, -2.05, -10480.42, 7571.16)" xlink:href="#linear-gradient"/></defs><g id="group770-1"><g id="group771-2"><g id="shape772-3"><path class="cls-1" d="M52.58,50.1a4,4,0,0,0,4.12-3.86v-.66c-1.64-12.72-9-23.07-23.08-23.07S11.91,31.28,10.47,45.58a4.1,4.1,0,0,0,3.68,4.49H52.58Z"/></g><g id="shape773-7"><path class="cls-2" d="M33.61,25.52a13.22,13.22,0,0,1-7-2l7,17.87,6.9-17.77A13.06,13.06,0,0,1,33.61,25.52Z"/></g><g id="shape774-9"><ellipse class="cls-3" cx="33.61" cy="12.76" rx="12.96" ry="12.76"/></g><g id="shape775-13"><path class="cls-4" d="M18.3,39.59V23.5a.53.53,0,0,0-.5-.56H13.51a.57.57,0,0,0-.6.53V39a.6.6,0,0,1-.57.56H8.59a.39.39,0,0,1-.33-.39V34.87a.37.37,0,0,0-.35-.38.4.4,0,0,0-.29.12L.18,41.86a.54.54,0,0,0,0,.75l0,0,7.37,7.22A.37.37,0,0,0,8,50.1a.36.36,0,0,0,.23-.46h0V45.29a.37.37,0,0,1,.34-.36h9.18a.57.57,0,0,0,.54-.56Z"/></g></g></g></svg>