<svg id="Layer_1" data-name="Layer 1" xmlns="http://www.w3.org/2000/svg" xmlns:xlink="http://www.w3.org/1999/xlink" width="56.7" height="34.02" viewBox="0 0 56.7 34.02"><defs><style>.cls-1{fill:#0078d4;}.cls-1,.cls-2,.cls-3{fill-rule:evenodd;}.cls-2{fill:url(#linear-gradient);}.cls-3{fill:#fff;}</style><linearGradient id="linear-gradient" x1="-287.11" y1="406.86" x2="-286.11" y2="406.86" gradientTransform="matrix(0, -34.02, -36.58, 0, 14901.13, -9733.52)" gradientUnits="userSpaceOnUse"><stop offset="0" stop-color="#5e9624"/><stop offset="0.01" stop-color="#5f9724"/><stop offset="0.35" stop-color="#6cab29"/><stop offset="0.68" stop-color="#73b82c"/><stop offset="1" stop-color="#76bc2d"/></linearGradient></defs><g id="group776-1"><g id="group777-2"><g id="shape778-3"><path class="cls-1" d="M56.57,17.49,49.9,23.94a.33.33,0,0,1-.44.09.3.3,0,0,1-.13-.33V20.05a.35.35,0,0,0-.35-.3H38l6.86,6.39a.28.28,0,0,0,.38,0l1.91-1.89a.25.25,0,0,1,.35,0,.22.22,0,0,1,.09.21v6.66a.37.37,0,0,1-.38.37H40.45a.23.23,0,0,1-.27-.22.23.23,0,0,1,.08-.2l2-1.87a.25.25,0,0,0,0-.36l-5.63-5.72V11.44L42.33,5.9a.24.24,0,0,0,0-.33L40.38,3.71a.23.23,0,0,1,0-.34.24.24,0,0,1,.21-.08h6.88a.41.41,0,0,1,.38.4v6.48a.25.25,0,0,1-.23.27.24.24,0,0,1-.21-.08L45.47,8.48a.3.3,0,0,0-.38,0l-7,6.42H48.87a.34.34,0,0,0,.35-.33V10.92a.3.3,0,0,1,.23-.36.3.3,0,0,1,.34.12L56.57,17a.3.3,0,0,1,.06.43l-.06.06Z"/></g><g id="shape779-5"><path class="cls-2" d="M0,32.25A1.8,1.8,0,0,0,1.82,34H34.76a1.79,1.79,0,0,0,1.82-1.77h0V1.76A1.8,1.8,0,0,0,34.76,0H1.82A1.8,1.8,0,0,0,0,1.76Z"/></g><g id="group780-9"><g id="shape781-10"><path class="cls-3" d="M7.13,29a.9.9,0,0,0,.92.88H14.8a.9.9,0,0,0,.92-.88V22.79a.89.89,0,0,0-.91-.88H8a.9.9,0,0,0-.91.88Z"/></g><g id="shape782-12"><path class="cls-3" d="M21.75,20.32a.89.89,0,0,0,.91.88h6.76a.89.89,0,0,0,.91-.88V14.15a.89.89,0,0,0-.91-.88H22.66a.89.89,0,0,0-.91.88Z"/></g><g id="shape783-14"><path class="cls-3" d="M7.13,29a.9.9,0,0,0,.92.88H14.8a.9.9,0,0,0,.92-.88V22.79a.89.89,0,0,0-.91-.88H8a.9.9,0,0,0-.91.88Z"/></g></g></g></g></svg>