<svg id="Layer_1" data-name="Layer 1" xmlns="http://www.w3.org/2000/svg" width="56.69" height="51.03" viewBox="0 0 56.69 51.03"><defs><style>.cls-1{fill:#7a7a7a;}.cls-1,.cls-2,.cls-3,.cls-4,.cls-5,.cls-6{fill-rule:evenodd;}.cls-2{fill:#59b4d9;}.cls-3{fill:#a0a1a2;}.cls-4,.cls-6{fill:#fff;}.cls-4{fill-opacity:0.2;}.cls-5{fill:#b8d432;}</style></defs><g id="group762-1"><g id="group763-2"><g id="shape764-3"><path class="cls-1" d="M36.74,40.4H21.32c1.81,6.42-.68,7.31-11.57,7.31V51h37V47.71C35.94,47.71,34.92,46.82,36.74,40.4Z"/></g><g id="shape765-5"><path class="cls-2" d="M53.18,3.43l.11,34.31H3.4V3.43H53.18Z"/></g><g id="shape766-7"><path class="cls-3" d="M53.29,0H3.06A3.11,3.11,0,0,0,0,3.1V37.3a3.11,3.11,0,0,0,3.06,3.1H53.29a3.42,3.42,0,0,0,3.4-3.1V3.1A3.42,3.42,0,0,0,53.29,0Zm-.91,4.21V36.08H4.31V4.21L52.38,4.1Z"/></g><g id="shape767-9"><path class="cls-4" d="M4.31,36.19v-32L48.19,4.1,53.29,0H3.06A3.11,3.11,0,0,0,0,3.1V37.3a3.11,3.11,0,0,0,3.06,3.1H4.31l5.21-4.21Z"/></g><g id="shape768-11"><path class="cls-5" d="M28.92,2.33a.8.8,0,1,1-.8-.78A.77.77,0,0,1,28.92,2.33Z"/></g><g id="shape769-13"><path class="cls-6" d="M38.55,24.47H36.29V22.25a3.37,3.37,0,0,0-3.4-3.32H29.48V15.61h2.27a1.13,1.13,0,0,0,1.13-1.11V7.86a1.12,1.12,0,0,0-1.13-1.1H25a1.11,1.11,0,0,0-1.14,1.1V14.5a1.12,1.12,0,0,0,1.13,1.11h2.27v3.32h-3.4a3.37,3.37,0,0,0-3.4,3.32v2.22H18.14A1.12,1.12,0,0,0,17,25.57v6.64a1.12,1.12,0,0,0,1.13,1.11H25a1.13,1.13,0,0,0,1.13-1.11V25.57A1.12,1.12,0,0,0,25,24.47H22.68V22.25a1.12,1.12,0,0,1,1.13-1.1h9.07A1.12,1.12,0,0,1,34,22.25v2.22H31.75a1.12,1.12,0,0,0-1.13,1.1v6.64a1.12,1.12,0,0,0,1.13,1.11h6.8a1.13,1.13,0,0,0,1.14-1.1h0V25.57A1.12,1.12,0,0,0,38.55,24.47Z"/></g></g></g></svg>