<svg id="Layer_1" data-name="Layer 1" xmlns="http://www.w3.org/2000/svg" width="56.69" height="28.35" viewBox="0 0 56.69 28.35"><defs><style>.cls-1{fill:#0072c6;}.cls-1,.cls-2{fill-rule:evenodd;}.cls-2{fill:#fff;}.cls-3{fill:none;}</style></defs><g id="group756-1"><g id="group757-2"><g id="shape758-3"><path class="cls-1" d="M0,28.34H28.65L56.69,0H0Z"/></g><g id="shape759-5"><path class="cls-2" d="M32.72,5.9H27.39V18.57L22.73,5.9H18.11l-4,10.6c-.42-2.67-3.18-3.6-5.36-4.29-1.44-.46-3-1.14-2.95-1.88s.82-1.19,2.42-1.11a8.59,8.59,0,0,1,3.9,1.06L14,7.05A14.33,14.33,0,0,0,8,5.62h0A7.31,7.31,0,0,0,2.61,7.56a4.5,4.5,0,0,0-1.28,3.11A4.19,4.19,0,0,0,3.16,14.4a12.42,12.42,0,0,0,3.63,1.65c1.47.46,2.68.86,2.67,1.71a1.23,1.23,0,0,1-.35.83,2.39,2.39,0,0,1-1.72.54A7.37,7.37,0,0,1,3,17.87L1.33,21.14a12.39,12.39,0,0,0,6,1.6h.27a7.26,7.26,0,0,0,4.59-1.53l.2-.17-.54,1.43h4.84L17.55,20a9.17,9.17,0,0,0,2.84.45A9,9,0,0,0,23.17,20L24,22.47h7.89V17.35h1.73c4.16,0,6.62-2.13,6.62-5.68C40.2,7.71,37.81,5.9,32.72,5.9ZM20.4,16.74a4.77,4.77,0,0,1-1.71-.29l1.69-5.33h0l1.66,5.34A5.22,5.22,0,0,1,20.4,16.74ZM33,13.68H31.86V9.39H33c1.57,0,2.82.52,2.82,2.12S34.6,13.68,33,13.68Z"/><path class="cls-3" d="M32.72,5.9H27.39V18.57L22.73,5.9H18.11l-4,10.6c-.42-2.67-3.18-3.6-5.36-4.29-1.44-.46-3-1.14-2.95-1.88s.82-1.19,2.42-1.11a8.59,8.59,0,0,1,3.9,1.06L14,7.05A14.33,14.33,0,0,0,8,5.62h0A7.31,7.31,0,0,0,2.61,7.56a4.5,4.5,0,0,0-1.28,3.11A4.19,4.19,0,0,0,3.16,14.4a12.42,12.42,0,0,0,3.63,1.65c1.47.46,2.68.86,2.67,1.71a1.23,1.23,0,0,1-.35.83,2.39,2.39,0,0,1-1.72.54A7.37,7.37,0,0,1,3,17.87L1.33,21.14a12.39,12.39,0,0,0,6,1.6h.27a7.26,7.26,0,0,0,4.59-1.53l.2-.17-.54,1.43h4.84L17.55,20a9.17,9.17,0,0,0,2.84.45A9,9,0,0,0,23.17,20L24,22.47h7.89V17.35h1.73c4.16,0,6.62-2.13,6.62-5.68,0-4-2.39-5.77-7.48-5.77M20.4,16.74a4.77,4.77,0,0,1-1.71-.29l1.69-5.33h0l1.66,5.34a5.22,5.22,0,0,1-1.67.28M33,13.68H31.86V9.39H33c1.57,0,2.82.52,2.82,2.12S34.6,13.68,33,13.68"/></g><g id="shape760-8"><path class="cls-1" d="M36.81,24.66a1.7,1.7,0,1,1-1.7,1.7A1.7,1.7,0,0,1,36.81,24.66Zm0-.3a2,2,0,1,0-.1,4h.1a2,2,0,0,0,0-4Z"/></g><g id="shape761-10"><path class="cls-1" d="M37.17,26.48a.55.55,0,0,0,.55-.54h0v0c0-.41-.24-.59-.73-.59h-.8V27.4h.32v-.9h.36l.55.9h.36Zm-.67-.25v-.65h.43c.21,0,.45.05.45.31s-.24.34-.51.34Z"/></g></g></g></svg>