<svg id="Layer_1" data-name="Layer 1" xmlns="http://www.w3.org/2000/svg" width="56.69" height="47.97" viewBox="0 0 56.69 47.97"><defs><style>.cls-1{fill:#fff;}.cls-1,.cls-2,.cls-3,.cls-4,.cls-5,.cls-7,.cls-8{fill-rule:evenodd;}.cls-2{fill:#3999c6;}.cls-3{fill:#a0a1a2;}.cls-4{fill:#59b4d9;}.cls-5{fill:#7a7a7a;}.cls-6,.cls-8{fill:#1e1e1e;}.cls-7{fill:#b8d432;}.cls-8{fill-opacity:0.2;}</style></defs><g id="group744-1"><g id="group745-2"><g id="shape746-3"><path class="cls-1" d="M31.07,7a14,14,0,0,0-9.44,5,13.43,13.43,0,0,0,2,19.25,14.2,14.2,0,0,0,19.7-2,13.77,13.77,0,0,0,3.07-10,14.24,14.24,0,0,0-5.23-9.35,14.06,14.06,0,0,0-8.66-3A7.27,7.27,0,0,0,31.07,7Z"/></g><g id="shape747-5"><path class="cls-2" d="M48.61,18.93A16,16,0,0,0,42.47,8a11.13,11.13,0,0,0-2-1.33L39.16,9.13c.57.34,1,.67,1.6,1a13.77,13.77,0,0,1,5.12,9,13.5,13.5,0,0,1-3,9.79,13.82,13.82,0,0,1-9.22,4.9,15,15,0,0,1-7.06-1.11l-1.25,2.45a16.55,16.55,0,0,0,19.69-4.46A15.76,15.76,0,0,0,48.61,18.93Z"/></g><g id="shape748-7"><path class="cls-3" d="M23.68,31.05a13.45,13.45,0,0,1-5-9,13.5,13.5,0,0,1,3-9.79,13.93,13.93,0,0,1,9.22-4.9,13.12,13.12,0,0,1,8.31,1.79l1.26-2.45a16.89,16.89,0,0,0-9.91-2.12,16.16,16.16,0,0,0-11,5.9,15.48,15.48,0,0,0-3.53,11.8,15.57,15.57,0,0,0,6,10.79,17.87,17.87,0,0,0,3.42,2.12l1.25-2.45A12.69,12.69,0,0,1,23.68,31.05Z"/></g><g id="shape749-9"><path class="cls-4" d="M23.68,31.05a13.45,13.45,0,0,1-5-9,13.5,13.5,0,0,1,3-9.79,13.93,13.93,0,0,1,9.22-4.9,13.12,13.12,0,0,1,8.31,1.79l1.26-2.45a16.89,16.89,0,0,0-9.91-2.12,16.16,16.16,0,0,0-11,5.9,15.48,15.48,0,0,0-3.53,11.8,15.57,15.57,0,0,0,6,10.79,17.87,17.87,0,0,0,3.42,2.12l1.25-2.45A12.69,12.69,0,0,1,23.68,31.05Z"/></g><g id="shape750-11"><path class="cls-5" d="M39.16,24.82,32.78,22.6A1.32,1.32,0,0,1,32,20.93a1.36,1.36,0,0,1,1.71-.78l6.37,2.22a1.33,1.33,0,0,1,.8,1.67A1.27,1.27,0,0,1,39.16,24.82Z"/></g><g id="shape751-13"><path class="cls-5" d="M32.11,22.38A1.37,1.37,0,0,1,30.74,21V10.14a1.37,1.37,0,0,1,2.73,0V21A1.3,1.3,0,0,1,32.11,22.38Z"/></g><g id="shape752-15"><ellipse class="cls-6" cx="32.1" cy="21.15" rx="1.94" ry="1.89"/></g><g id="shape753-17"><path class="cls-7" d="M30.51,35.06l6.71,6.12L31.3,47.86l.12-4.34h-1.6A21.5,21.5,0,0,1,8.08,22.26c0-11.8,9.56-21.15,21.63-21.15A22.09,22.09,0,0,1,45.19,7.46,19.78,19.78,0,0,0,32,2.12,18.6,18.6,0,0,0,13.2,20.48c0,9.79,8.09,17.69,17.88,18.36Z"/></g><g id="shape754-19"><path class="cls-8" d="M23.79,41.62A21.23,21.23,0,0,1,3.07,19.81a21.16,21.16,0,0,1,10.14-17A21.3,21.3,0,0,0,0,22.37,21.5,21.5,0,0,0,21.74,43.63h1.6L23.22,48l5.92-6.68A21.53,21.53,0,0,1,23.79,41.62Z"/></g><g id="shape755-21"><path class="cls-5" d="M10.81,45a2.19,2.19,0,0,1-.79-.22L2.28,40.29A4.57,4.57,0,0,1,0,36.51v-28A4.4,4.4,0,0,1,2.28,4.68L10,.23a1.66,1.66,0,0,1,2.27.55A1.61,1.61,0,0,1,11.73,3L4,7.46a1.51,1.51,0,0,0-.56,1V36.51a1.51,1.51,0,0,0,.56,1L11.73,42a1.6,1.6,0,0,1,.56,2.23A2,2,0,0,1,10.81,45ZM45.88,0a1.93,1.93,0,0,1,.79.23l7.75,4.45a4.57,4.57,0,0,1,2.27,3.78V36.51a4.44,4.44,0,0,1-2.27,3.78l-7.75,4.45a1.67,1.67,0,0,1-2.27-.55A1.6,1.6,0,0,1,45,42l7.74-4.45a1.48,1.48,0,0,0,.57-1v-28a1.48,1.48,0,0,0-.57-1L45,3A1.6,1.6,0,0,1,44.4.78,2.18,2.18,0,0,1,45.88,0Z"/></g></g></g></svg>