<svg id="Layer_1" data-name="Layer 1" xmlns="http://www.w3.org/2000/svg" xmlns:xlink="http://www.w3.org/1999/xlink" width="56.69" height="56.69" viewBox="0 0 56.69 56.69"><defs><style>.cls-1,.cls-2{fill-rule:evenodd;}.cls-1{fill:url(#linear-gradient);}.cls-2{fill:#f2f2f2;}.cls-3{fill:#83b9f9;}.cls-4{fill:none;}</style><linearGradient id="linear-gradient" x1="-268.93" y1="428.79" x2="-267.93" y2="428.79" gradientTransform="matrix(0, 41.26, 56.69, 0, -24279.56, 11102.88)" gradientUnits="userSpaceOnUse"><stop offset="0.18" stop-color="#5ea0ef"/><stop offset="1" stop-color="#0078d4"/></linearGradient></defs><g id="group738-1"><g id="group739-2"><g id="shape740-3"><path class="cls-1" d="M56.69,35.66a13,13,0,0,0-11-12.6A16.22,16.22,0,0,0,29.1,7.31a16.53,16.53,0,0,0-15.75,11A15.31,15.31,0,0,0,0,33.36,15.75,15.75,0,0,0,16,48.54H43.21a2.73,2.73,0,0,0,.7,0A13,13,0,0,0,56.69,35.66Z"/></g><g id="shape741-7"><path class="cls-2" d="M38.83,20.76a9.67,9.67,0,0,0-17.67,2.68,10,10,0,0,0,1,7.15l-7.37,7.46a2.49,2.49,0,0,0,0,3.52h0a2.5,2.5,0,0,0,1.77.72,2.42,2.42,0,0,0,1.76-.72l7.34-7.43a10.25,10.25,0,0,0,2.55,1A9.7,9.7,0,0,0,38.83,20.76Zm-1.7,6.61a6.81,6.81,0,0,1-6.58,5.2,5.84,5.84,0,0,1-1.61-.22,6,6,0,0,1-2.2-1A6.71,6.71,0,0,1,24,24.13a6.74,6.74,0,0,1,6.55-5.23,7,7,0,0,1,1.64.19,6.82,6.82,0,0,1,4.15,3.15A6.69,6.69,0,0,1,37.13,27.37Z"/></g><g id="shape742-9"><ellipse class="cls-3" cx="30.52" cy="25.76" rx="6.77" ry="6.8"/></g><g id="shape743-11"><rect class="cls-4" width="56.69" height="56.69"/></g></g></g></svg>