<svg id="Layer_1" data-name="Layer 1" xmlns="http://www.w3.org/2000/svg" xmlns:xlink="http://www.w3.org/1999/xlink" width="55.23" height="55.57" viewBox="0 0 55.23 55.57"><defs><style>.cls-1{fill:#fff;}.cls-2{fill:#767676;}.cls-2,.cls-5{fill-rule:evenodd;}.cls-3{fill:url(#linear-gradient);}.cls-4{fill:url(#linear-gradient-2);}.cls-5{fill:#f2f2f2;}</style><linearGradient id="linear-gradient" x1="-284.73" y1="419" x2="-283.73" y2="419" gradientTransform="matrix(0, -43.07, -44.14, 0, 18528.62, -12220.23)" gradientUnits="userSpaceOnUse"><stop offset="0" stop-color="#005ba1"/><stop offset="0.19" stop-color="#1e71b5"/><stop offset="0.56" stop-color="#5598da"/><stop offset="0.85" stop-color="#76b0f0"/><stop offset="1" stop-color="#83b9f9"/></linearGradient><linearGradient id="linear-gradient-2" x1="-286.85" y1="417.49" x2="-285.85" y2="417.49" gradientTransform="matrix(0, -33.83, -34.67, 0, 14506.94, -9664.7)" xlink:href="#linear-gradient"/></defs><g id="group711-1"><g id="group712-2"><g id="shape713-3"><ellipse class="cls-1" cx="33.11" cy="21.15" rx="17.33" ry="16.91"/></g><g id="shape714-5"><path class="cls-2" d="M1.29,54.61a3.39,3.39,0,0,0,4.79-.06h0L24,36.64A3.38,3.38,0,0,0,24,31.86l-.33-.33a3.38,3.38,0,0,0-4.78.06L1,49.49A3.39,3.39,0,0,0,1,54.28H1Z"/></g><g id="shape715-7"><ellipse class="cls-3" cx="33.16" cy="21.53" rx="22.07" ry="21.53"/></g><g id="shape716-11"><ellipse class="cls-4" cx="33.11" cy="21.15" rx="17.33" ry="16.91"/></g><g id="shape717-14"><path class="cls-5" d="M46.21,17.75a5.12,5.12,0,0,1-3.28,6.55,5.31,5.31,0,0,1-6.62-2.95Zm-16.27,3.6a5.33,5.33,0,0,1-6.88,2.86,5.11,5.11,0,0,1-3-6.46Z"/></g></g></g></svg>