<svg id="Layer_1" data-name="Layer 1" xmlns="http://www.w3.org/2000/svg" width="42.52" height="56.69" viewBox="0 0 42.52 56.69"><defs><style>.cls-1{fill:#57a300;}.cls-1,.cls-2,.cls-3{fill-rule:evenodd;}.cls-2{fill:#b8d432;fill-opacity:0.4;}.cls-3{fill:#fff;}</style></defs><g id="group718-1"><g id="group719-2"><g id="shape720-3"><path class="cls-1" d="M36.18,6.75C23.4,5.38,21.26,0,21.26,0S18.38,7.07,0,7.07v29c0,3.51,2,6.8,4.76,9.68,6.27,6.51,16.5,10.9,16.5,10.9s21.26-9.1,21.26-20.58v-29A57.16,57.16,0,0,1,36.18,6.75Z"/></g><g id="shape721-5"><path class="cls-2" d="M26.52,29.66l9.66-12C23.4,16.28,21.26,10.9,21.26,10.9S18.38,18,0,18V47c0,3.51,2,6.8,4.76,9.67l7.14-8.87Z"/></g><g id="shape722-7"><path class="cls-3" d="M29.69,27.73H28.45v-4a7.5,7.5,0,0,0-1.93-5.05l-.13-.15a7.06,7.06,0,0,0-10.26,0,7.49,7.49,0,0,0-2.07,5.2v4H12.83a.92.92,0,0,0-.93.9h0V39.29a.92.92,0,0,0,.93.91H29.69a.92.92,0,0,0,.93-.91h0V28.64a.92.92,0,0,0-.93-.91Zm-4.65,0H17.48v-4a4.21,4.21,0,0,1,1.15-2.92,3.58,3.58,0,0,1,5.26,0,4,4,0,0,1,.45.57h0a4.17,4.17,0,0,1,.7,2.34Z"/></g></g></g></svg>