<svg id="Layer_1" data-name="Layer 1" xmlns="http://www.w3.org/2000/svg" width="42.52" height="56.69" viewBox="0 0 42.52 56.69"><defs><style>.cls-1{fill:#e5e5e4;}.cls-1,.cls-2,.cls-3,.cls-4,.cls-5,.cls-6{fill-rule:evenodd;}.cls-2{fill:#d5d7d7;}.cls-3{fill:#0f85ce;}.cls-4{fill:#0072c6;}.cls-5{fill:#fff;}.cls-6{fill:#edeced;}</style></defs><g id="group730-1"><g id="group731-2"><g id="shape732-3"><path class="cls-1" d="M36.25,6.8c-12.9-1.47-15-6.8-15-6.8S18.36,7,0,7v29c0,3.51,2,6.8,4.76,9.64,6.28,6.57,16.5,11,16.5,11s21.26-9.07,21.26-20.52V7C40.2,7,38.11,6.92,36.25,6.8Z"/></g><g id="shape733-5"><path class="cls-2" d="M36.25,6.8a37.58,37.58,0,0,1-8.48-1.92c-.12,0-10.34,49.89-10.34,50a12.63,12.63,0,0,0,3.83,1.81s21.26-9.07,21.26-20.52V7C40.2,7,38.11,6.92,36.25,6.8Z"/></g><g id="shape734-7"><path class="cls-3" d="M34.5,9.19c-11.38-1.13-13.24-5.9-13.24-5.9S18.7,9.53,2.44,9.53V35.27c0,3.06,1.74,6,4.18,8.62,5.58,5.78,14.64,9.63,14.64,9.63s18.82-8.16,18.82-18.25V9.53A41.59,41.59,0,0,1,34.5,9.19Z"/></g><g id="shape735-9"><path class="cls-4" d="M34.51,9.19A35,35,0,0,1,27.19,7.6C27,7.49,18,51.94,18,51.94a30.35,30.35,0,0,0,3.25,1.58s18.82-8.16,18.82-18.25V9.53A41.34,41.34,0,0,1,34.51,9.19Z"/></g><g id="shape736-11"><path class="cls-5" d="M22.19,19.39l1.63,3.28L24.51,24c.12.34.47.46.82.57l5.22.8a1,1,0,0,1,.58,1.7L27.3,30.61a1.3,1.3,0,0,0-.35.91l.93,5.1a1,1,0,0,1-1.51,1l-4.65-2.38a1.31,1.31,0,0,0-.58-.11.46.46,0,0,0-.35.11l-4.64,2.38a1,1,0,0,1-1.51-1l.93-5.1a.93.93,0,0,0-.35-.91L11.5,27a1,1,0,0,1,.58-1.7l5.23-.79c.35,0,.58-.23.81-.57l2.33-4.65C20.68,18.71,21.84,18.71,22.19,19.39Z"/></g><g id="shape737-13"><path class="cls-6" d="M23.93,22.79,24.51,24c.12.34.47.46.82.57l5.22.8a1,1,0,0,1,.58,1.7L27.3,30.61a1.3,1.3,0,0,0-.35.91l.93,5.1a1,1,0,0,1-1.51,1l-4.65-2.38a.42.42,0,0,0-.34-.11C21.26,35.15,23.93,22.79,23.93,22.79Z"/></g></g></g></svg>