<svg id="Layer_1" data-name="Layer 1" xmlns="http://www.w3.org/2000/svg" width="51.02" height="46.06" viewBox="0 0 51.02 46.06"><defs><style>.cls-1{fill:#57a300;}.cls-1,.cls-2,.cls-3,.cls-4,.cls-5{fill-rule:evenodd;}.cls-2{fill:#b8d432;fill-opacity:0.4;}.cls-3{fill:#fff;}.cls-4{fill:#3898c6;}.cls-5{fill:#3999c6;}</style></defs><g id="group723-1"><g id="group724-2"><g id="shape725-3"><path class="cls-1" d="M31,5.49C20.06,4.37,18.22,0,18.22,0S15.76,5.75,0,5.75V29.34c0,2.86,1.71,5.53,4.08,7.86,5.37,5.3,14.14,8.86,14.14,8.86s18.23-7.39,18.23-16.72V5.75C34.42,5.75,32.62,5.65,31,5.49Z"/></g><g id="shape726-5"><path class="cls-2" d="M22.73,24.1,31,14.34c-11-1.11-12.79-5.48-12.79-5.48S15.76,14.61,0,14.61V38.2c0,2.86,1.71,5.53,4.08,7.86l6.12-7.2Z"/></g><g id="shape727-7"><path class="cls-3" d="M21.87,17.71H47.38v24.8L22,42.68Z"/></g><g id="shape728-9"><path class="cls-4" d="M32.8,21.26H43.73V24.8H32.8Zm0,7.08H43.73v3.55H32.8Zm0,7.09H43.73V39H32.8ZM25.51,21.26h3.64V24.8H25.51Zm0,7.08h3.64v3.55H25.51Zm0,7.09h3.64V39H25.51Z"/></g><g id="shape729-11"><path class="cls-5" d="M49.76,10.63H19.48a1.24,1.24,0,0,0-1.26,1.22h0v33a1.23,1.23,0,0,0,1.26,1.22H49.75A1.24,1.24,0,0,0,51,44.84h0v-33a1.23,1.23,0,0,0-1.26-1.22ZM21.86,42.52V17.71H47.38V42.52Z"/></g></g></g></svg>