<svg id="Layer_1" data-name="Layer 1" xmlns="http://www.w3.org/2000/svg" xmlns:xlink="http://www.w3.org/1999/xlink" width="56.7" height="56.7" viewBox="0 0 56.7 56.7"><defs><style>.cls-1{fill:#005ba1;}.cls-1,.cls-2,.cls-3{fill-rule:evenodd;}.cls-2{fill:#0078d4;}.cls-3{fill:url(#linear-gradient);}</style><linearGradient id="linear-gradient" x1="-267.41" y1="443" x2="-266.41" y2="443" gradientTransform="matrix(0, 37.79, 37.81, 0, -16712.14, 10105.34)" gradientUnits="userSpaceOnUse"><stop offset="0" stop-color="#32d4f5"/><stop offset="0.23" stop-color="#31d0f1"/><stop offset="0.46" stop-color="#2cc3e6"/><stop offset="0.7" stop-color="#25afd4"/><stop offset="0.94" stop-color="#1c92ba"/><stop offset="1" stop-color="#198ab3"/></linearGradient></defs><g id="group706-1"><g id="shape707-2"><path class="cls-1" d="M18.89,37.79H0v-17a1.92,1.92,0,0,1,1.94-1.87H19Zm18.92,0H18.89V56.7h17a1.92,1.92,0,0,0,1.94-1.9Z"/></g><g id="shape708-4"><path class="cls-2" d="M37.81,37.79H18.89V18.91H37.81Zm-18.92,0H0v17a1.92,1.92,0,0,0,1.94,1.9H19Z"/></g><g id="shape709-6"><path class="cls-2" d="M37.81,18.91H18.89v-17A1.92,1.92,0,0,1,20.82,0h17Zm18.89,0H37.81V37.79H55.13a1.55,1.55,0,0,0,1.57-1.5Z"/></g><g id="shape710-8"><path class="cls-3" d="M56.7,18.91H37.81V0H55.13A1.56,1.56,0,0,1,56.7,1.51Zm-18.89,0H18.89v17a1.91,1.91,0,0,0,1.94,1.87h17Z"/></g></g></svg>