<svg id="Layer_1" data-name="Layer 1" xmlns="http://www.w3.org/2000/svg" width="48.19" height="56.7" viewBox="0 0 48.19 56.7"><defs><style>.cls-1{fill:#0072c6;}.cls-1,.cls-2,.cls-3{fill-rule:evenodd;}.cls-2,.cls-3{fill:#fff;}.cls-2{fill-opacity:0.15;}</style></defs><g id="group700-1"><g id="group701-2"><g id="shape702-3"><path class="cls-1" d="M23.05,56C17.64,52.57,0,40.18,0,25.72V7.22l1.89-.14c7.54-.49,10.47-2.5,13.05-4.28C17.14,1.31,19,0,24.1,0s7,1.37,9.13,2.81C35.82,4.58,38.76,6.62,46.3,7.1l1.89.12v18.5c0,14.46-17.65,26.85-23.06,30.3l-1.05.68Z"/></g><g id="shape703-5"><path class="cls-2" d="M17.05,50.29,32.86,4l-.25-.17c-2-1.4-3.8-2.62-8.51-2.62s-6.4,1.18-8.52,2.63C12.87,5.67,9.81,7.78,2,8.26l-.81.07V25.72c0,10,8.94,19,15.91,24.58Z"/></g><g id="shape704-7"><path class="cls-3" d="M24.1,16.54h0A12.74,12.74,0,0,1,36.66,28.3v.05H42.4A18.6,18.6,0,0,0,24.09,10.48,18.57,18.57,0,0,0,5.78,28.3v.05h5.73A12.76,12.76,0,0,1,24.06,16.54Z"/></g><g id="shape705-9"><path class="cls-3" d="M30.87,29.53a6.77,6.77,0,1,1-13.54.32v-.32a6.77,6.77,0,1,1,13.54-.31Z"/></g></g></g></svg>