<svg id="Layer_1" data-name="Layer 1" xmlns="http://www.w3.org/2000/svg" xmlns:xlink="http://www.w3.org/1999/xlink" width="53.85" height="56.06" viewBox="0 0 53.85 56.06"><defs><style>.cls-1{fill:#0078d4;}.cls-1,.cls-2,.cls-3,.cls-4,.cls-6{fill-rule:evenodd;}.cls-2{fill:url(#linear-gradient);}.cls-3,.cls-5{fill:#f2f2f2;}.cls-4{fill:#5ea0ef;}.cls-6{fill:#b3b3b3;}</style><linearGradient id="linear-gradient" x1="-283.95" y1="419.1" x2="-282.95" y2="419.1" gradientTransform="matrix(0, -56.06, -45.16, 0, 18953.99, -15862.77)" gradientUnits="userSpaceOnUse"><stop offset="0" stop-color="#0078d4"/><stop offset="0.82" stop-color="#5ea0ef"/></linearGradient></defs><g id="group644-1"><g id="group645-2"><g id="shape646-3"><path class="cls-1" d="M41.12,7.89A7.58,7.58,0,0,1,48.63.23h0a6.13,6.13,0,0,1,5.2,6.2,6.21,6.21,0,0,1-1.34,3.9,2.35,2.35,0,0,1-1.8.85H40.89Z"/></g><g id="shape647-5"><path class="cls-2" d="M41.8.06H12.35A7.53,7.53,0,0,0,4.92,7.62V56.06H34.37a7.52,7.52,0,0,0,7.5-7.54h0V15.83a86,86,0,0,1,0-9.9C43-.63,50.08.53,50.08.53A36.44,36.44,0,0,0,41.8.06Z"/></g><g id="shape648-9"><path class="cls-3" d="M23.61,36.77V21.27a1.76,1.76,0,0,0,.88-1.52A1.78,1.78,0,0,0,22.72,18h0a1.78,1.78,0,0,0-.85,3.3v15.5A1.82,1.82,0,0,0,21,38.32a1.77,1.77,0,1,0,3.5.5,2.09,2.09,0,0,0,0-.5A1.82,1.82,0,0,0,23.61,36.77Z"/></g><g id="shape649-11"><path class="cls-4" d="M34.9,56.06A6.09,6.09,0,0,1,32,45.38a.76.76,0,0,0,.12-1.06A.75.75,0,0,0,31.5,44H5A6.11,6.11,0,0,0,5,56a3.78,3.78,0,0,0,1,0Z"/></g><g id="shape650-13"><ellipse class="cls-5" cx="28.32" cy="19.79" rx="1.8" ry="1.81"/></g><g id="shape651-15"><ellipse class="cls-5" cx="22.59" cy="19.79" rx="1.8" ry="1.81"/></g><g id="shape652-17"><ellipse class="cls-5" cx="16.9" cy="19.79" rx="1.8" ry="1.81"/></g><g id="shape653-19"><path class="cls-6" d="M17.06,28.07,18.11,27a.49.49,0,0,0,0-.66L10,18.17l-1,1.06a.92.92,0,0,0,0,1.3v0l7.59,7.52a.52.52,0,0,0,.56,0Z"/></g><g id="shape654-21"><path class="cls-3" d="M18.05,12.57l-1-1a.49.49,0,0,0-.66,0L8.92,19.07a.92.92,0,0,0,0,1.3h0l1,1.09,8.12-8.24a.44.44,0,0,0,.05-.61l-.05,0Z"/></g><g id="shape655-23"><path class="cls-6" d="M27.93,28.07,26.88,27a.44.44,0,0,1-.06-.61l.06-.05,8.28-8.15,1,1.06a.93.93,0,0,1,0,1.3v0l-7.59,7.52a.49.49,0,0,1-.66,0Z"/></g><g id="shape656-25"><path class="cls-3" d="M27,12.57l1.05-1a.48.48,0,0,1,.65,0l7.44,7.52a.92.92,0,0,1,0,1.3h0l-1,1.06L27,13.23a.49.49,0,0,1,0-.66Z"/></g></g></g></svg>