<svg id="Layer_1" data-name="Layer 1" xmlns="http://www.w3.org/2000/svg" width="53.69" height="56.56" viewBox="0 0 53.69 56.56"><defs><style>.cls-1{fill:#3999c6;}.cls-1,.cls-2,.cls-4,.cls-6,.cls-7{fill-rule:evenodd;}.cls-2,.cls-3{fill:#57a300;}.cls-4{fill:#59b4d9;}.cls-5,.cls-6,.cls-7{fill:#fff;}.cls-6{fill-opacity:0.2;}</style></defs><g id="group632-1"><g id="group633-2"><g id="shape634-3"><path class="cls-1" d="M53.33,16.07a1.46,1.46,0,0,0,0-1.92L50.8,11.6,39.38.4a1.22,1.22,0,0,0-1.8,0,1.28,1.28,0,0,0,0,1.92l12,11.84a1.36,1.36,0,0,1,0,1.91L37.37,28.33a1.35,1.35,0,0,0,0,1.91h0a1.29,1.29,0,0,0,1.8,0L50.48,19l.11-.1Zm-52.21,0a1.47,1.47,0,0,1,0-1.92L3.66,11.6,15.07.4a1.22,1.22,0,0,1,1.8,0,1.28,1.28,0,0,1,0,1.92L5.14,14.16a1.35,1.35,0,0,0,0,1.91L17.08,28.33a1.35,1.35,0,0,1,0,1.91h0a1.29,1.29,0,0,1-1.8,0L3.76,19.06,3.66,19Z"/></g><g id="shape635-5"><path class="cls-2" d="M19.88,15.31a4,4,0,0,1-3.86,4,4.36,4.36,0,0,1-4.09-4,4,4,0,0,1,4.09-4A3.9,3.9,0,0,1,19.88,15.31Z"/></g><g id="shape636-7"><ellipse class="cls-3" cx="38.63" cy="15.31" rx="3.98" ry="4.01"/></g><g id="shape637-9"><path class="cls-4" d="M45.44,40.51a7.72,7.72,0,0,0-1.18.1h0a15.47,15.47,0,0,0-30.2-5A10.45,10.45,0,0,0,10.6,35a10.79,10.79,0,0,0,0,21.57H44.93l.26,0,.25,0a8,8,0,0,0,0-16.05Z"/></g><g id="shape638-11"><rect class="cls-5" x="24.99" y="17.6" width="4.54" height="26.36"/></g><g id="shape639-13"><path class="cls-6" d="M24,37.1a15.49,15.49,0,0,1,8-11.93A15.35,15.35,0,0,0,14.06,35.59,10.45,10.45,0,0,0,10.6,35a10.79,10.79,0,0,0,0,21.57h4.47A12,12,0,0,1,24,37.1Z"/></g><g id="shape640-15"><path class="cls-2" d="M31.24,15.31a4,4,0,0,1-3.86,4,4.36,4.36,0,0,1-4.09-4,4.18,4.18,0,0,1,4.09-4A4,4,0,0,1,31.24,15.31Z"/></g><g id="shape641-17"><path class="cls-7" d="M29.54,38.7V24.87c-.26,0-.51,0-.78,0A15.49,15.49,0,0,0,25,25.3V38.8a4.78,4.78,0,0,0-2.39,4,5,5,0,0,0,4.76,4.7,4.64,4.64,0,0,0,4.56-4.7A4.71,4.71,0,0,0,29.54,38.7Z"/></g><g id="shape642-19"><path class="cls-2" d="M30.56,42.8a3.29,3.29,0,0,1-3.2,3.33A3.61,3.61,0,0,1,24,42.8a3.46,3.46,0,0,1,3.39-3.32A3.29,3.29,0,0,1,30.56,42.8Z"/></g><g id="shape643-21"><rect class="cls-3" x="26.13" y="18.74" width="2.27" height="24.06"/></g></g></g></svg>