<svg id="Layer_1" data-name="Layer 1" xmlns="http://www.w3.org/2000/svg" width="53.85" height="56.69" viewBox="0 0 53.85 56.69"><defs><style>.cls-1,.cls-2{fill:#646565;}.cls-1,.cls-2,.cls-3,.cls-4,.cls-5,.cls-6{fill-rule:evenodd;}.cls-2{fill-opacity:0.5;}.cls-3{fill:#0072c6;}.cls-4,.cls-5,.cls-6{fill:#fff;}.cls-4{fill-opacity:0.75;}.cls-5{fill-opacity:0.8;}</style></defs><g id="group657-1"><g id="group658-2"><g id="shape659-3"><path class="cls-1" d="M0,55.51H6.58v1.18H1.2A1.17,1.17,0,0,1,0,55.51Z"/></g><g id="shape660-5"><path class="cls-2" d="M4.79,53.15H3.59A3.57,3.57,0,0,0,0,56.69H1.2a2.38,2.38,0,0,1,2.39-2.36h1.2Z"/></g><g id="shape661-7"><path class="cls-1" d="M0,55.51H6.58v1.18H1.2A1.17,1.17,0,0,1,0,55.51Z"/></g><g id="shape662-9"><path class="cls-2" d="M4.79,53.15H3.59A3.57,3.57,0,0,0,0,56.69H1.2a2.38,2.38,0,0,1,2.39-2.36h1.2Z"/></g><g id="shape663-11"><path class="cls-1" d="M0,55.51H6.58v1.18H1.2A1.17,1.17,0,0,1,0,55.51Z"/></g><g id="shape664-13"><path class="cls-2" d="M4.79,53.15H3.59A3.57,3.57,0,0,0,0,56.69H1.2a2.38,2.38,0,0,1,2.39-2.36h1.2Z"/></g><g id="shape665-15"><path class="cls-1" d="M0,55.51H6.58v1.18H1.2A1.17,1.17,0,0,1,0,55.51Z"/></g><g id="shape666-17"><path class="cls-2" d="M4.79,53.15H3.59A3.57,3.57,0,0,0,0,56.69H1.2a2.38,2.38,0,0,1,2.39-2.36h1.2Z"/></g><g id="shape667-19"><path class="cls-1" d="M0,55.51H6.58v1.18H1.2A1.17,1.17,0,0,1,0,55.51Z"/></g><g id="shape668-21"><path class="cls-2" d="M4.79,53.15H3.59A3.57,3.57,0,0,0,0,56.69H1.2a2.38,2.38,0,0,1,2.39-2.36h1.2Z"/></g><g id="shape669-23"><path class="cls-1" d="M0,55.51H6.58v1.18H1.2A1.17,1.17,0,0,1,0,55.51Z"/></g><g id="shape670-25"><path class="cls-2" d="M4.79,53.15H3.59A3.57,3.57,0,0,0,0,56.69H1.2a2.38,2.38,0,0,1,2.39-2.36h1.2Z"/></g><g id="shape671-27"><path class="cls-1" d="M0,55.51H6.58v1.18H1.2A1.17,1.17,0,0,1,0,55.51Z"/></g><g id="shape672-29"><path class="cls-2" d="M4.79,53.15H3.59A3.57,3.57,0,0,0,0,56.69H1.2a2.38,2.38,0,0,1,2.39-2.36h1.2Z"/></g><g id="shape673-31"><path class="cls-3" d="M14.36,0C10.77,0,6,3.54,6,3.54H8.37V53.15H50.26v2.36L53.85,52V0Z"/></g><g id="shape674-33"><path class="cls-4" d="M12,1.18,7.78,3.54h1.8V54.33H50.27L52.66,52V1.18Z"/></g><g id="shape675-35"><path class="cls-5" d="M12.57,1.18,8.38,3.54H50.27l2.39-2.36Z"/></g><g id="shape676-37"><path class="cls-3" d="M4.79,56.69V53.15H7.18L8.38,52V50.78L7.18,49.6H4.79V46.06H7.18l1.2-1.18V43.7l-1.2-1.18H4.79V39H7.18l1.2-1.18V36.61l-1.2-1.18H4.79V31.89H7.18l1.2-1.18V29.52l-1.2-1.18H4.79V24.8H7.18l1.2-1.18V22.44l-1.2-1.18H4.79V17.71H7.18l1.2-1.18V15.35l-1.2-1.18H4.79V10.63H7.18l1.2-1.18V8.26L7.18,7.08H4.79V3.54H50.27V56.69Z"/></g><g id="shape677-39"><path class="cls-6" d="M31.9,34.32l.08,0,5.32-2.91a.16.16,0,0,0,.08-.14V25.42a.16.16,0,0,0-.08-.14.22.22,0,0,0-.16,0l-5.32,2.91a.14.14,0,0,0-.08.13v5.84a.16.16,0,0,0,.08.14l.08,0Zm0,7.68L32,42l5.32-2.91a.16.16,0,0,0,.08-.14V33.1A.16.16,0,0,0,37.3,33a.22.22,0,0,0-.16,0l-5.32,2.92a.14.14,0,0,0-.08.13v5.84a.15.15,0,0,0,.15.15Zm6.9-11.53.09,0,5.31-2.9a.16.16,0,0,0,.08-.14V21.58a.16.16,0,0,0-.08-.14.22.22,0,0,0-.16,0l-5.32,2.91a.14.14,0,0,0-.08.13v5.84a.13.13,0,0,0,.08.13l.08,0Zm0,7.69.09,0,5.31-2.91a.16.16,0,0,0,.08-.14V29.26a.16.16,0,0,0-.08-.14.22.22,0,0,0-.16,0L38.72,32a.14.14,0,0,0-.08.13V38a.16.16,0,0,0,.08.13l.08,0Zm-8.47-3.84-.08,0-5.32-2.91a.16.16,0,0,1-.08-.14V25.42a.16.16,0,0,1,.08-.14.25.25,0,0,1,.17,0l5.31,2.91a.14.14,0,0,1,.08.13v5.84a.15.15,0,0,1-.15.15h0Zm0,7.68-.08,0-5.32-2.91a.16.16,0,0,1-.08-.14V33.1a.16.16,0,0,1,.08-.14.25.25,0,0,1,.17,0l5.31,2.92a.14.14,0,0,1,.08.13v5.84a.15.15,0,0,1-.15.15Zm-6.9-11.53-.08,0L18,27.55a.16.16,0,0,1-.08-.14V21.58a.16.16,0,0,1,.08-.14.25.25,0,0,1,.17,0l5.31,2.91a.14.14,0,0,1,.08.13v5.84a.15.15,0,0,1-.15.15Zm0,7.69-.08,0L18,35.23a.16.16,0,0,1-.08-.14V29.26a.16.16,0,0,1,.08-.14.25.25,0,0,1,.17,0L23.51,32a.14.14,0,0,1,.08.13V38a.15.15,0,0,1-.15.15Zm2.31-14.49.06-.06,5.29-2.83a.15.15,0,0,1,.16,0l5.23,2.81a.13.13,0,0,1,.08.13.16.16,0,0,1-.08.13l-5.29,2.84a.22.22,0,0,1-.16,0L25.8,23.87a.15.15,0,0,1-.06-.2h0ZM18.85,20l.06-.06,5.23-2.83a.15.15,0,0,1,.16,0l5.17,2.81a.13.13,0,0,1,.08.13.16.16,0,0,1-.08.13L24.24,23a.19.19,0,0,1-.15,0l-5.18-2.81a.17.17,0,0,1-.07-.13.08.08,0,0,1,0-.07ZM32.78,20a.17.17,0,0,1,.06-.06l5.23-2.83a.15.15,0,0,1,.16,0L43.4,20a.14.14,0,0,1,.08.13.16.16,0,0,1-.08.13l-5.23,2.84a.19.19,0,0,1-.15,0l-5.18-2.82a.17.17,0,0,1-.07-.13.08.08,0,0,1,0-.07Zm-7-3.65.06-.06,5.29-2.79a.15.15,0,0,1,.16,0l5.23,2.77a.13.13,0,0,1,.08.12.13.13,0,0,1-.08.13l-5.29,2.79a.22.22,0,0,1-.16,0l-5.23-2.77a.16.16,0,0,1-.08-.13A.14.14,0,0,1,25.77,16.38Z"/></g><g id="shape678-41"><path class="cls-3" d="M25.29,48.62c-2.15,0-4.07-1.75-5.47-3a13.29,13.29,0,0,0-1-.89,8.67,8.67,0,0,0-4.51-1.34H12.64a1.79,1.79,0,0,1-1.79-1.77v-5.5a1.79,1.79,0,0,1,1.8-1.77h2.68l.13,1.18V34.32a20.76,20.76,0,0,0,3-.41c.85-.16,1.65-.31,2.32-.37.29,0,.59,0,.89,0,.84,0,3.7.14,4.94,1.89a10.25,10.25,0,0,0,1.13,1.24,3.33,3.33,0,0,0,1.93.43h.19l.52,0c.71-.06,1.79-.15,2.61-.15a4.18,4.18,0,0,1,.52,0A2.61,2.61,0,0,1,36.1,39a2.7,2.7,0,0,1-.2,1.38l.58-.28a61.93,61.93,0,0,1,5.83-2.61A5.38,5.38,0,0,1,44,37.24a2.92,2.92,0,0,1,2.63,1.3,2.38,2.38,0,0,1-.2,2.52,5.22,5.22,0,0,1-1.68,1.62q-2,1.2-3.92,2.37L39.1,46.11c-1.93,1.23-3.16,2-4.08,2.11a10.53,10.53,0,0,1-1.26.07l-1.33,0-1.31,0c-.32,0-.61,0-.86,0L29,48.38A37.37,37.37,0,0,1,25.29,48.62Z"/></g><g id="shape679-43"><path class="cls-6" d="M42.58,38.76c-2,.68-6.49,3-7.51,3.41a17.94,17.94,0,0,1-6.25.76c-1.47,0-2.52-.19-3.11-.73,0,0-2.11-1.69-2.54-2.1a.77.77,0,0,1,.94-1.21c.54.41,1.43,1.3,2.3,1.94s3.95.35,5.22.26a7.53,7.53,0,0,0,2.62-.54,1.27,1.27,0,0,0,.55-1.23,1.46,1.46,0,0,0-1.46-1.15c-1-.07-3.21.18-3.54.19a4.52,4.52,0,0,1-2.9-.69,11.2,11.2,0,0,1-1.35-1.48c-.78-1.09-2.92-1.52-4.75-1.35-1.52.14-4.11.82-5.59.78H12.53a.59.59,0,0,0-.6.59h0v5.5a.6.6,0,0,0,.6.59h1.64a9.77,9.77,0,0,1,5.19,1.56c1.21.84,3.54,3.7,5.82,3.7,1.8,0,3.61-.26,4.88-.35s3.69.1,4.68,0,3.31-1.81,5.29-3c1.21-.72,2.55-1.53,3.92-2.37a4.09,4.09,0,0,0,1.3-1.24C46.22,39,44.54,38.1,42.58,38.76Z"/></g></g></g></svg>