<svg id="Layer_1" data-name="Layer 1" xmlns="http://www.w3.org/2000/svg" xmlns:xlink="http://www.w3.org/1999/xlink" width="56.7" height="51.03" viewBox="0 0 56.7 51.03"><defs><style>.cls-1{fill:#50e6ff;}.cls-1,.cls-2,.cls-3,.cls-4,.cls-5,.cls-6,.cls-7{fill-rule:evenodd;}.cls-2{fill:#32bedd;}.cls-3{fill:#198ab3;}.cls-4{fill:url(#linear-gradient);}.cls-5,.cls-6{fill:#999;}.cls-6{fill-opacity:0.5;}.cls-7{fill:#949494;}</style><linearGradient id="linear-gradient" x1="-242.71" y1="430.81" x2="-241.71" y2="430.81" gradientTransform="matrix(0, 9.77, 29.25, 0, -12572.93, 2401.19)" gradientUnits="userSpaceOnUse"><stop offset="0" stop-color="#005ba1"/><stop offset="0.26" stop-color="#00589d"/><stop offset="0.53" stop-color="#004f90"/><stop offset="0.8" stop-color="#003f7c"/><stop offset="1" stop-color="#003067"/></linearGradient></defs><g id="group680-1"><g id="group681-2"><g id="shape682-3"><path class="cls-1" d="M43,20.13h0v-.07h-.07l-14.54-10-14.57,10h-.07V39.67H43V20.13Z"/></g><g id="shape683-5"><path class="cls-2" d="M13.71,20.13V39.67L28.35,29.9Z"/></g><g id="shape684-7"><path class="cls-3" d="M43,20.13,28.35,29.9,43,39.67Z"/></g><g id="shape685-9"><path class="cls-4" d="M28.32,29.9,13.71,39.64v0H43v0Z"/></g><g id="group686-13"><g id="shape687-14"><path class="cls-5" d="M1.91,38h4.3V50.06a1,1,0,0,1-1,1H1a1,1,0,0,1-1-1V39.94A1.9,1.9,0,0,1,1.9,38Z"/></g><g id="shape688-16"><path class="cls-6" d="M1.91,38h4.3V50.06a1,1,0,0,1-1,1H1a1,1,0,0,1-1-1V39.94A1.9,1.9,0,0,1,1.9,38Z"/></g></g><g id="group689-18"><g id="shape690-19"><path class="cls-5" d="M50.5,0h4.3a1.91,1.91,0,0,1,1.9,1.92h0V12a1,1,0,0,1-1,1h-4.3a1,1,0,0,1-.94-1Z"/></g><g id="shape691-21"><path class="cls-6" d="M50.5,0h4.3a1.91,1.91,0,0,1,1.9,1.92h0V12a1,1,0,0,1-1,1h-4.3a1,1,0,0,1-.94-1Z"/></g></g><g id="shape692-23"><path class="cls-7" d="M56.7,1.92V6.13H0V1.92A1.92,1.92,0,0,1,1.91,0H54.84A1.93,1.93,0,0,1,56.7,1.92Z"/></g><g id="group693-25"><g id="shape694-26"><path class="cls-5" d="M1,37.92h4.3a1,1,0,0,1,1,1V51H1.91A1.9,1.9,0,0,1,0,49.1V39a1,1,0,0,1,.86-1.07H1Z"/></g><g id="shape695-28"><path class="cls-6" d="M1,37.92h4.3a1,1,0,0,1,1,1V51H1.91A1.9,1.9,0,0,1,0,49.1V39a1,1,0,0,1,.86-1.07H1Z"/></g></g><g id="group696-30"><g id="shape697-31"><path class="cls-5" d="M51.43,37.91h4.31a1,1,0,0,1,1,1V49a1.92,1.92,0,0,1-1.9,1.92H50.5V39a1,1,0,0,1,.86-1.07h.07Z"/></g><g id="shape698-33"><path class="cls-6" d="M51.43,37.91h4.31a1,1,0,0,1,1,1V49a1.92,1.92,0,0,1-1.9,1.92H50.5V39a1,1,0,0,1,.86-1.07h.07Z"/></g></g><g id="shape699-35"><path class="cls-7" d="M0,49.1V44.89H56.7V49.1A1.92,1.92,0,0,1,54.8,51H1.91A1.9,1.9,0,0,1,0,49.1Z"/></g></g></g></svg>