<svg id="Layer_1" data-name="Layer 1" xmlns="http://www.w3.org/2000/svg" xmlns:xlink="http://www.w3.org/1999/xlink" width="56.69" height="56.69" viewBox="0 0 56.69 56.69"><defs><style>.cls-1{fill:#005ba1;}.cls-1,.cls-2,.cls-3,.cls-4,.cls-5,.cls-6,.cls-7,.cls-8{fill-rule:evenodd;}.cls-2{fill:#0078d4;}.cls-3{fill:#32bedd;}.cls-4{fill:#50e6ff;}.cls-5{fill:#c3f1ff;}.cls-6{fill:#9cebff;}.cls-7{fill:url(#linear-gradient);}.cls-8{fill:#f2f2f2;}</style><linearGradient id="linear-gradient" x1="-293.54" y1="420.22" x2="-292.54" y2="420.22" gradientTransform="matrix(0, -20.13, -56.69, 0, 23850.41, -5852.32)" gradientUnits="userSpaceOnUse"><stop offset="0" stop-color="#0078d4"/><stop offset="0.82" stop-color="#5ea0ef"/></linearGradient></defs><g id="group609-1"><g id="group610-2"><g id="shape611-3"><path class="cls-1" d="M17,40.53a1.42,1.42,0,0,0,1.41,1.41H49.09a1.41,1.41,0,0,0,1.41-1.41V1.41A1.41,1.41,0,0,0,49.09,0H18.41A1.42,1.42,0,0,0,17,1.41Z"/></g><g id="shape612-5"><path class="cls-2" d="M11.93,45.07a1.41,1.41,0,0,0,1.41,1.41H44a1.41,1.41,0,0,0,1.41-1.41V6A1.41,1.41,0,0,0,44,4.54H13.34A1.41,1.41,0,0,0,11.93,6Z"/></g><g id="shape613-7"><path class="cls-3" d="M6.79,49.64A1.41,1.41,0,0,0,8.2,51.05H38.88a1.41,1.41,0,0,0,1.41-1.41V10.52a1.41,1.41,0,0,0-1.41-1.41H8.2a1.41,1.41,0,0,0-1.41,1.41Z"/></g><g id="shape614-9"><path class="cls-4" d="M33.34,21.61V33l-9.78,5.71V27.32Z"/></g><g id="shape615-11"><path class="cls-5" d="M33.34,21.62l-9.78,5.74-9.78-5.74,9.78-5.72Z"/></g><g id="shape616-13"><path class="cls-6" d="M23.56,27.35V38.71L13.78,33V21.61Z"/></g><g id="shape617-15"><path class="cls-5" d="M13.78,33l9.78-5.68V38.71Z"/></g><g id="shape618-17"><path class="cls-6" d="M33.34,33l-9.78-5.68V38.71Z"/></g><g id="shape619-19"><path class="cls-7" d="M0,54.81a1.88,1.88,0,0,0,1.88,1.88H54.81a1.88,1.88,0,0,0,1.88-1.88V38.44a1.88,1.88,0,0,0-1.88-1.88H1.88A1.88,1.88,0,0,0,0,38.44Z"/></g><g id="shape620-23"><path class="cls-8" d="M20.3,43a1.44,1.44,0,0,0,1.45,1.44H35A1.45,1.45,0,0,0,36.46,43v0A1.45,1.45,0,0,0,35,41.54H21.75A1.44,1.44,0,0,0,20.3,43Z"/></g></g></g></svg>