<svg id="Layer_1" data-name="Layer 1" xmlns="http://www.w3.org/2000/svg" xmlns:xlink="http://www.w3.org/1999/xlink" width="56.69" height="39.69" viewBox="0 0 56.69 39.69"><defs><style>.cls-1,.cls-2{fill-rule:evenodd;}.cls-1{fill:url(#linear-gradient);}.cls-2{fill:#fff;}</style><linearGradient id="linear-gradient" x1="-268.41" y1="420.79" x2="-267.41" y2="420.79" gradientTransform="matrix(0, 39.69, 56.69, 0, -23826.31, 10654.53)" gradientUnits="userSpaceOnUse"><stop offset="0.09" stop-color="#6cc6b9"/><stop offset="0.47" stop-color="#6ac4b7"/><stop offset="0.64" stop-color="#62bdb0"/><stop offset="0.77" stop-color="#56b1a4"/><stop offset="0.88" stop-color="#439f93"/><stop offset="0.97" stop-color="#2c897d"/><stop offset="1" stop-color="#258277"/></linearGradient></defs><g id="group621-1"><g id="group622-2"><g id="shape623-3"><path class="cls-1" d="M1.73,0H55a1.64,1.64,0,0,1,1.74,1.53h0V38.16A1.64,1.64,0,0,1,55,39.69H1.73A1.63,1.63,0,0,1,0,38.16V1.54A1.65,1.65,0,0,1,1.73,0Z"/></g><g id="shape624-7"><path class="cls-2" d="M23.45,4.67H48.93a.49.49,0,0,1,.5.46h0v14a.48.48,0,0,1-.5.46H23.45a.47.47,0,0,1-.5-.46h0V5.13a.47.47,0,0,1,.49-.46Z"/></g><g id="shape625-9"><path class="cls-2" d="M7,34.13a.47.47,0,0,0,.47.47h9.79a.47.47,0,0,0,.47-.46v-29a.47.47,0,0,0-.47-.46H7.5A.47.47,0,0,0,7,5.14Z"/></g><g id="shape626-11"><path class="cls-2" d="M39.08,23.76H49a.47.47,0,0,1,.47.45v9.93a.48.48,0,0,1-.48.46H39.08a.45.45,0,0,1-.47-.45V24.2a.46.46,0,0,1,.47-.43Zm-15.67,0h9.73a.47.47,0,0,1,.46.47v9.9a.47.47,0,0,1-.47.47H23.41a.45.45,0,0,1-.46-.44h0V24.2a.44.44,0,0,1,.45-.43Z"/></g></g></g></svg>