<svg id="Layer_1" data-name="Layer 1" xmlns="http://www.w3.org/2000/svg" width="53.93" height="56.69" viewBox="0 0 53.93 56.69"><defs><style>.cls-1{fill:#0072c6;}.cls-1,.cls-2{fill-rule:evenodd;}.cls-2{fill:#57a300;}</style></defs><g id="group605-1"><g id="group606-2"><g id="shape607-3"><path class="cls-1" d="M25.45,0A28.78,28.78,0,0,1,45.64,8.27,28.35,28.35,0,0,1,25.45,56.69a28.79,28.79,0,0,1-20.2-8.27,4.67,4.67,0,0,1,0-6.72,4.69,4.69,0,0,1,6.73,0,18.87,18.87,0,0,0,13.47,5.68A18.87,18.87,0,0,0,38.91,15.16,19,19,0,0,0,12,15a4.7,4.7,0,0,1-6.73,0,4.67,4.67,0,0,1,0-6.72A28.49,28.49,0,0,1,25.45,0Z"/></g><g id="shape608-5"><path class="cls-2" d="M28.51,40.87,19,30.84h7.54L39.33,43.76,26.77,56.69H19l9.47-9.84H1.76A1.75,1.75,0,0,1,0,45.1V42.63a1.76,1.76,0,0,1,1.76-1.76Z"/></g></g></g></svg>