<svg id="Layer_1" data-name="Layer 1" xmlns="http://www.w3.org/2000/svg" xmlns:xlink="http://www.w3.org/1999/xlink" width="56.69" height="45.36" viewBox="0 0 56.69 45.36"><defs><style>.cls-1,.cls-2,.cls-3{fill-rule:evenodd;}.cls-1{fill:url(#linear-gradient);}.cls-2{fill:url(#linear-gradient-2);}.cls-3{fill:#fff;}</style><linearGradient id="linear-gradient" x1="-267.51" y1="435.75" x2="-266.51" y2="435.75" gradientTransform="matrix(0, 38.86, 56.69, 0, -24674.23, 10395.82)" gradientUnits="userSpaceOnUse"><stop offset="0" stop-color="#5ea0ef"/><stop offset="0.18" stop-color="#559cec"/><stop offset="0.47" stop-color="#3c91e5"/><stop offset="0.84" stop-color="#1380da"/><stop offset="1" stop-color="#0078d4"/></linearGradient><linearGradient id="linear-gradient-2" x1="-265.24" y1="445.34" x2="-264.24" y2="445.34" gradientTransform="matrix(0, 31.15, 18.85, 0, -8385.33, 8276.71)" gradientUnits="userSpaceOnUse"><stop offset="0" stop-color="#b3b3b3"/><stop offset="0.12" stop-color="#adadad"/><stop offset="0.64" stop-color="#9b9b9b"/><stop offset="1" stop-color="#949494"/></linearGradient></defs><g id="group598-1"><g id="shape599-2"><path class="cls-1" d="M56.69,26.75A12.51,12.51,0,0,0,45.61,14.86,15.82,15.82,0,0,0,29.1,0,16.47,16.47,0,0,0,13.35,10.36,14.94,14.94,0,0,0,0,24.58,15.24,15.24,0,0,0,16,38.85H43.21a3.75,3.75,0,0,0,.67,0A12.74,12.74,0,0,0,56.69,26.75Z"/></g><g id="shape600-6"><path class="cls-2" d="M18.85,43.8a1.58,1.58,0,0,1-1.6,1.56H1.64A1.58,1.58,0,0,1,0,43.85V15.77a1.58,1.58,0,0,1,1.59-1.56H17.22a1.59,1.59,0,0,1,1.63,1.53V43.8Z"/></g><g id="shape601-10"><path class="cls-3" d="M21.32,17.45H25v4.37H21.32Zm5.41,0h3.6v4.37h-3.6Zm5.4,0h3.61v4.37H32.13Zm-10.81,7H25v4.37H21.32Zm5.41,0h3.6v4.37h-3.6Zm5.4,0h3.61v4.37H32.13Zm-10.81,7H25v4.37H21.32Zm5.41,0h3.6v4.37h-3.6Zm0,7h3.6v5.25h-3.6Zm5.4-7h3.61v4.37H32.13Z"/></g></g></svg>