<svg id="Layer_1" data-name="Layer 1" xmlns="http://www.w3.org/2000/svg" width="53.86" height="56.69" viewBox="0 0 53.86 56.69"><defs><style>.cls-1{fill:#3999c6;}.cls-1,.cls-2,.cls-3,.cls-5{fill-rule:evenodd;}.cls-2,.cls-4{fill:#fff;}.cls-3{fill:#59b4d9;fill-opacity:0.4;}.cls-5,.cls-6{fill:#804998;}</style></defs><g id="group586-1"><g id="group587-2"><g id="shape588-3"><path class="cls-1" d="M1.35,36.31,24.74,19.57l23.4,16.74L24.74,54.19Z"/></g><g id="shape589-5"><path class="cls-2" d="M7.07,36.41,24.74,23.76,42.4,36.41,24.74,49.91Z"/></g><g id="shape590-7"><path class="cls-3" d="M7.07,36.41,24.74,23.76,42.4,36.41,24.74,49.91Z"/></g><g id="shape591-9"><ellipse class="cls-4" cx="43.95" cy="36.31" rx="7.8" ry="7.86"/></g><g id="shape592-11"><path class="cls-1" d="M44,31.87a4.44,4.44,0,1,1-4.41,4.44A4.43,4.43,0,0,1,44,31.87Zm0-3.41a7.86,7.86,0,0,0-.05,15.71H44a7.86,7.86,0,0,0,0-15.71Z"/></g><g id="shape593-13"><path class="cls-5" d="M53.86,10.75C53.86,4.88,49.42,0,44,0S34,4.68,34,10.75,44,33.46,44,37.45C44,33.46,53.86,16.63,53.86,10.75Z"/></g><g id="shape594-15"><ellipse class="cls-4" cx="43.95" cy="10.13" rx="4.41" ry="4.44"/></g><g id="shape595-17"><ellipse class="cls-6" cx="24.74" cy="22.65" rx="5.54" ry="5.58"/></g><g id="shape596-19"><ellipse class="cls-6" cx="5.54" cy="36.31" rx="5.54" ry="5.58"/></g><g id="shape597-21"><ellipse class="cls-6" cx="5.54" cy="51.11" rx="5.54" ry="5.58"/></g></g></g></svg>