<svg id="Layer_1" data-name="Layer 1" xmlns="http://www.w3.org/2000/svg" xmlns:xlink="http://www.w3.org/1999/xlink" width="49.76" height="56.5" viewBox="0 0 49.76 56.5"><defs><style>.cls-1,.cls-2,.cls-4,.cls-5{fill-rule:evenodd;}.cls-1{fill:url(#linear-gradient);}.cls-2{fill:#003067;}.cls-3{fill:#50e6ff;}.cls-4{fill:url(#linear-gradient-2);}.cls-5{fill:#f2f2f2;}</style><linearGradient id="linear-gradient" x1="-282.89" y1="416.88" x2="-281.89" y2="416.88" gradientTransform="matrix(0, -56.49, -32.75, 0, 13669.33, -15924.33)" gradientUnits="userSpaceOnUse"><stop offset="0" stop-color="#949494"/><stop offset="0.53" stop-color="#a2a2a2"/><stop offset="1" stop-color="#b3b3b3"/></linearGradient><linearGradient id="linear-gradient-2" x1="-286.36" y1="419.42" x2="-285.36" y2="419.42" gradientTransform="matrix(0, -35.59, -49.76, 0, 20894.99, -10133.86)" gradientUnits="userSpaceOnUse"><stop offset="0" stop-color="#0078d4"/><stop offset="0.16" stop-color="#1380da"/><stop offset="0.53" stop-color="#3c91e5"/><stop offset="0.82" stop-color="#559cec"/><stop offset="1" stop-color="#5ea0ef"/></linearGradient></defs><g id="group504-1"><g id="group505-2"><g id="shape506-3"><path class="cls-1" d="M32.75,54.57a2,2,0,0,1-1.9,1.92H1.9A1.91,1.91,0,0,1,0,54.57V1.93A1.89,1.89,0,0,1,1.83,0h29a1.91,1.91,0,0,1,1.9,1.93h0Z"/></g><g id="shape507-7"><path class="cls-2" d="M4.8,19.6A3.59,3.59,0,0,1,8.33,16H24.68a3.59,3.59,0,0,1,3.66,3.52v.06a3.59,3.59,0,0,1-3.57,3.61H8.33A3.6,3.6,0,0,1,4.8,19.6Zm0-10.68A3.6,3.6,0,0,1,8.33,5.31H24.68a3.59,3.59,0,0,1,3.66,3.52v.09a3.59,3.59,0,0,1-3.6,3.58H8.33A3.59,3.59,0,0,1,4.8,8.92Z"/></g><g id="shape508-9"><ellipse class="cls-3" cx="8.54" cy="8.92" rx="2.4" ry="2.43"/></g><g id="shape509-11"><ellipse class="cls-3" cx="8.54" cy="19.6" rx="2.4" ry="2.43"/></g><g id="shape510-13"><path class="cls-4" d="M49.76,45.31a11.3,11.3,0,0,0-9.71-10.88,14.15,14.15,0,0,0-14.5-13.51,14.41,14.41,0,0,0-13.81,9.39A13.45,13.45,0,0,0,0,43.32,13.61,13.61,0,0,0,14,56.49H38.65A11.38,11.38,0,0,0,49.76,45.31Z"/></g><g id="shape511-17"><path class="cls-5" d="M43.72,46.56V35.21h-3.1V49.13h8.17V46.56ZM20,41a7.6,7.6,0,0,1-1.7-1,1.53,1.53,0,0,1-.4-1.08,1.17,1.17,0,0,1,.5-1,2.19,2.19,0,0,1,1.4-.4,5.46,5.46,0,0,1,3.34,1V35.51A9.48,9.48,0,0,0,19.84,35a5.6,5.6,0,0,0-3.63,1.12,3.74,3.74,0,0,0-1.37,3,4.52,4.52,0,0,0,3.13,4,8.62,8.62,0,0,1,2,1.22,1.4,1.4,0,0,1,.5,1.08,1.15,1.15,0,0,1-.5,1,2.49,2.49,0,0,1-1.5.41,5.42,5.42,0,0,1-3.6-1.42v3.11a7.42,7.42,0,0,0,3.43.77,6.26,6.26,0,0,0,3.84-.94,3.65,3.65,0,0,0,1.43-3.08A3.38,3.38,0,0,0,22.78,43,7.86,7.86,0,0,0,20,41Zm17.21,5.34a8.13,8.13,0,0,0,1.1-4.25,7.78,7.78,0,0,0-.83-3.79,6,6,0,0,0-2.3-2.5,6.37,6.37,0,0,0-3.54-.88,7.27,7.27,0,0,0-3.33,1,6.31,6.31,0,0,0-2.44,2.6,8.61,8.61,0,0,0-.9,3.86,7.75,7.75,0,0,0,.8,3.54,6.29,6.29,0,0,0,2.27,2.5,6.56,6.56,0,0,0,3.33,1l2.84,3.38h4l-4-3.71A6.11,6.11,0,0,0,37.25,46.32Zm-3.1-.84a3.06,3.06,0,0,1-2.54,1.18,3,3,0,0,1-2.5-1.22,5.18,5.18,0,0,1-.93-3.37,5,5,0,0,1,1-3.38,3.06,3.06,0,0,1,2.56-1.25,2.85,2.85,0,0,1,2.47,1.25,5.27,5.27,0,0,1,.94,3.38A5,5,0,0,1,34.15,45.48Z"/></g></g></g></svg>