<svg id="Layer_1" data-name="Layer 1" xmlns="http://www.w3.org/2000/svg" xmlns:xlink="http://www.w3.org/1999/xlink" width="42.04" height="56.69" viewBox="0 0 42.04 56.69"><defs><style>.cls-1,.cls-2,.cls-3,.cls-4,.cls-5,.cls-6{fill-rule:evenodd;}.cls-1{fill:url(#linear-gradient);}.cls-2{fill:#e8e8e8;}.cls-3{fill:#50e6ff;}.cls-4{fill:#198ab3;}.cls-5{fill:#f2f2f2;}.cls-6{fill:#949494;}</style><linearGradient id="linear-gradient" x1="-271.22" y1="417.6" x2="-270.22" y2="417.6" gradientTransform="matrix(42.04, 0, 0, -48.27, 11402.08, 20189.33)" gradientUnits="userSpaceOnUse"><stop offset="0" stop-color="#005ba1"/><stop offset="0.07" stop-color="#0060a9"/><stop offset="0.36" stop-color="#0071c8"/><stop offset="0.52" stop-color="#0078d4"/><stop offset="0.64" stop-color="#0074cd"/><stop offset="0.82" stop-color="#006abb"/><stop offset="1" stop-color="#005ba1"/></linearGradient></defs><g id="group482-1"><g id="group483-2"><g id="shape484-3"><path class="cls-1" d="M21,15.3C9.42,15.3,0,12,0,7.65V48.27c0,4.19,9.25,7.59,20.72,7.65H21c11.6,0,21-3.32,21-7.65V7.65C42,11.87,32.62,15.3,21,15.3Z"/></g><g id="shape485-7"><path class="cls-2" d="M42,7.65c0,4.23-9.42,7.65-21,7.65S0,11.88,0,7.65,9.42,0,21,0,42,3.33,42,7.65Z"/></g><g id="shape486-9"><path class="cls-3" d="M37.13,7c0,2.69-7.23,4.85-16.11,4.85S5,9.71,5,7,12.13,2.16,21,2.16,37.13,4.35,37.13,7Z"/></g><g id="shape487-11"><path class="cls-4" d="M21,8.15A39.76,39.76,0,0,0,8.29,10a37.11,37.11,0,0,0,12.76,1.89A37.2,37.2,0,0,0,33.82,10,40,40,0,0,0,21,8.15Z"/></g><g id="shape488-13"><path class="cls-5" d="M34,35.29V24.05H30.86V37.82H39V35.29ZM10.24,29.74a6.38,6.38,0,0,1-1.69-1,1.5,1.5,0,0,1-.27-1.07,1.31,1.31,0,0,1,.54-1,2.44,2.44,0,0,1,1.39-.37,5.63,5.63,0,0,1,3.31,1V24.35a9.08,9.08,0,0,0-3.31-.53,5.81,5.81,0,0,0-4,1.16,3.82,3.82,0,0,0-1.36,3c0,1.7,1.06,3,3.32,4a9.79,9.79,0,0,1,2,1.2,1.32,1.32,0,0,1,.53,1.06,1.23,1.23,0,0,1-.53,1,2.45,2.45,0,0,1-1.49.4A5.27,5.27,0,0,1,5,34.2v3.09a7.44,7.44,0,0,0,3.55.77A6.52,6.52,0,0,0,12.43,37a3.6,3.6,0,0,0,1.42-3.06A3.33,3.33,0,0,0,13,31.6,8.08,8.08,0,0,0,10.24,29.74ZM27.48,35a7.88,7.88,0,0,0,1.09-4.22,7.78,7.78,0,0,0-.82-3.66,6,6,0,0,0-2.32-2.5,6.63,6.63,0,0,0-3.32-.86,7.34,7.34,0,0,0-3.61.89,6.37,6.37,0,0,0-2.42,2.57A8.08,8.08,0,0,0,15.21,31a7.55,7.55,0,0,0,.8,3.5A6.15,6.15,0,0,0,18.26,37a6.54,6.54,0,0,0,3.32,1l2.82,3.32h3.94l-4-3.69A5.93,5.93,0,0,0,27.48,35ZM24.4,34.1a3.3,3.3,0,0,1-4.67.4,3,3,0,0,1-.4-.4,5.05,5.05,0,0,1-.93-3.33,5,5,0,0,1,1-3.33,3.07,3.07,0,0,1,2.58-1.23,2.94,2.94,0,0,1,2.49,1.23,5.35,5.35,0,0,1,.9,3.33,4.83,4.83,0,0,1-.93,3.43Z"/></g><g id="shape489-15"><path class="cls-6" d="M12.3,56.56l.8-2.63,1.55-.9,2.69,1.2,1.72-1.76v-.2l-1.22-2.36.73-1.67,2.68-1h.3V44.85h-.33l-2.65-.8-.87-1.53,1.16-2.73-1.75-1.7h-.2l-2.36,1.2-1.62-1-1.06-3H9.42v.37l-.8,2.63-1.69.73L4,37.73,2.35,39.49l.17.33,1.26,2.47L3.12,44,0,45v2.46H.36l2.62.8.73,1.7L2.42,52.77,4.18,54.5l.3-.17,2.45-1.26,1.69.66,1.13,3h2.42Zm-4-7.85a3.54,3.54,0,0,1,4.94-5.06h0a3.54,3.54,0,0,1-4.94,5.06Z"/></g></g></g></svg>