<svg id="Layer_1" data-name="Layer 1" xmlns="http://www.w3.org/2000/svg" xmlns:xlink="http://www.w3.org/1999/xlink" width="56.69" height="56.69" viewBox="0 0 56.69 56.69"><defs><style>.cls-1,.cls-2,.cls-3,.cls-4,.cls-6{fill-rule:evenodd;}.cls-1{fill:url(#linear-gradient);}.cls-2{fill:#50e6ff;}.cls-3{fill:url(#linear-gradient-2);}.cls-4{fill:#e8e8e8;}.cls-5{fill:none;}.cls-6{fill:#32bedd;}</style><linearGradient id="linear-gradient" x1="-269.16" y1="429.84" x2="-268.16" y2="429.84" gradientTransform="matrix(0, 42.45, 45.48, 0, -19526.52, 11425.65)" gradientUnits="userSpaceOnUse"><stop offset="0" stop-color="#b3b2b3"/><stop offset="0.38" stop-color="#afaeaf"/><stop offset="0.76" stop-color="#a2a2a2"/><stop offset="1" stop-color="#979797"/></linearGradient><linearGradient id="linear-gradient-2" x1="-268.45" y1="412.64" x2="-267.45" y2="412.64" gradientTransform="matrix(28.41, 0, 0, -28.08, 7654.85, 11629.61)" gradientUnits="userSpaceOnUse"><stop offset="0" stop-color="#005ba1"/><stop offset="0.07" stop-color="#0060a9"/><stop offset="0.36" stop-color="#0071c8"/><stop offset="0.52" stop-color="#0078d4"/><stop offset="0.64" stop-color="#0074cd"/><stop offset="0.82" stop-color="#006abb"/><stop offset="1" stop-color="#005ba1"/></linearGradient></defs><g id="group578-1"><g id="group579-2"><g id="shape580-3"><path class="cls-1" d="M22.74,0,0,12.94v3.2H4.18V40.42H8.29V16.14H37.18V42.45H41.3V16.14h4.18v-3.2Z"/></g><g id="shape581-7"><path class="cls-2" d="M12.41,40.42h8.26V32.35H12.41Zm12.37,0H33V32.35H24.88ZM12.41,28.35h8.26V20.18H12.41Zm12.47-8.17v8.17H33V20.18Z"/></g><g id="shape582-9"><path class="cls-3" d="M42.35,33.05c-7.85,0-14.07-2-14.07-4.44V52.26c0,2.43,6.25,4.4,14,4.43h.21c7.85,0,14.2-2,14.2-4.43V28.61C56.56,31.05,50.2,33.05,42.35,33.05Z"/></g><g id="shape583-13"><path class="cls-4" d="M56.56,28.62c0,2.43-6.36,4.43-14.21,4.43s-14.07-2-14.07-4.43,6.36-4.44,14.21-4.44,14.2,2,14.2,4.44Z"/><path class="cls-5" d="M56.56,28.62c0,2.43-6.36,4.43-14.21,4.43s-14.07-2-14.07-4.43,6.36-4.44,14.21-4.44,14.2,2,14.2,4.44"/></g><g id="shape584-16"><path class="cls-2" d="M53.26,28.35c0,1.57-4.9,2.83-10.91,2.83s-10.88-1.36-10.88-2.83,4.86-2.84,10.88-2.84S53.26,26.78,53.26,28.35Z"/></g><g id="shape585-18"><path class="cls-6" d="M42.35,28.92A29.52,29.52,0,0,0,33.72,30a29.55,29.55,0,0,0,8.63,1.1A29.66,29.66,0,0,0,51,30,29.67,29.67,0,0,0,42.35,28.92Z"/></g></g></g></svg>