<svg id="Layer_1" data-name="Layer 1" xmlns="http://www.w3.org/2000/svg" xmlns:xlink="http://www.w3.org/1999/xlink" width="55.14" height="55.14" viewBox="0 0 55.14 55.14"><defs><style>.cls-1,.cls-2,.cls-3,.cls-5{fill-rule:evenodd;}.cls-1{fill:url(#linear-gradient);}.cls-2{fill:#50e6ff;}.cls-3{fill:#eaeaea;}.cls-4{fill:none;}.cls-5{fill:#32bedd;}</style><linearGradient id="linear-gradient" x1="-285.31" y1="418.44" x2="-284.31" y2="418.44" gradientTransform="matrix(0, -40.09, -40.09, 0, 16801.98, -11391.16)" gradientUnits="userSpaceOnUse"><stop offset="0" stop-color="#005ba1"/><stop offset="0.1" stop-color="#0060a9"/><stop offset="0.52" stop-color="#0071c8"/><stop offset="0.75" stop-color="#0078d4"/></linearGradient></defs><g id="group521-1"><g id="group522-2"><g id="shape523-3"><path class="cls-1" d="M26.24,54.59a1.88,1.88,0,0,0,2.65,0h0l25.7-25.7a1.88,1.88,0,0,0,0-2.65h0L28.9.55a1.88,1.88,0,0,0-2.65,0h0L.55,26.25a1.88,1.88,0,0,0,0,2.65h0Z"/></g><g id="shape524-7"><path class="cls-2" d="M27.58,10.44c-2.91,0-5.24-.74-5.24-1.69v8.92c0,.89,2.3,1.65,5.15,1.65h.09c2.88,0,5.24-.73,5.24-1.65V8.75C32.85,9.7,30.65,10.44,27.58,10.44Z"/></g><g id="shape525-9"><path class="cls-3" d="M32.85,8.75c0,.95-2.36,1.68-5.24,1.68s-5.24-.73-5.24-1.68,2.33-1.66,5.21-1.66,5.24.74,5.24,1.66Z"/><path class="cls-4" d="M32.85,8.75c0,.95-2.36,1.68-5.24,1.68s-5.24-.73-5.24-1.68,2.33-1.66,5.21-1.66,5.24.74,5.24,1.66"/></g><g id="shape526-12"><path class="cls-2" d="M31.62,8.63c0,.58-1.81,1.07-4,1.07s-4-.52-4-1.07,1.78-1.07,4-1.07,4,.49,4,1.07Z"/><path class="cls-4" d="M31.62,8.63c0,.58-1.81,1.07-4,1.07s-4-.52-4-1.07,1.78-1.07,4-1.07,4,.49,4,1.07"/></g><g id="shape527-15"><path class="cls-5" d="M27.57,8.88a10.52,10.52,0,0,0-3.06.31,11.35,11.35,0,0,0,3.06.42,11.37,11.37,0,0,0,3.07-.42A10.94,10.94,0,0,0,27.57,8.88Z"/></g><g id="shape528-17"><path class="cls-2" d="M27.58,39.28c-2.91,0-5.24-.74-5.24-1.69v8.92c0,.89,2.3,1.65,5.15,1.65h.09c2.88,0,5.24-.73,5.24-1.65V37.59C32.85,38.54,30.65,39.28,27.58,39.28Z"/></g><g id="shape529-19"><path class="cls-3" d="M32.85,37.59c0,.95-2.36,1.68-5.24,1.68s-5.24-.73-5.24-1.68,2.33-1.66,5.24-1.66S32.85,36.67,32.85,37.59Z"/></g><g id="shape530-21"><path class="cls-2" d="M31.62,37.47c0,.58-1.81,1.07-4,1.07s-4-.49-4-1.07,1.78-1.07,4-1.07S31.62,36.89,31.62,37.47Z"/></g><g id="shape531-23"><path class="cls-5" d="M27.57,37.72a11,11,0,0,0-3.06.4,11,11,0,0,0,3.06.42,10.63,10.63,0,0,0,3.07-.42A11,11,0,0,0,27.57,37.72Z"/></g><g id="shape532-25"><path class="cls-2" d="M40.51,24.79c-3.06,0-5.24-.74-5.24-1.66V32c0,.92,2.3,1.65,5.18,1.68s5.24-.76,5.24-1.68V23.13C45.75,24.05,43.39,24.79,40.51,24.79Z"/></g><g id="shape533-27"><path class="cls-3" d="M45.75,23.13c0,.92-2.36,1.65-5.24,1.65s-5.24-.73-5.24-1.65,2.33-1.69,5.24-1.69S45.75,22.21,45.75,23.13Z"/></g><g id="shape534-29"><path class="cls-2" d="M44.53,23c0,.61-1.81,1.07-4,1.07s-4-.46-4-1.07,1.78-1,4-1S44.53,22.39,44.53,23Z"/></g><g id="shape535-31"><path class="cls-5" d="M40.51,23.22a10.88,10.88,0,0,0-3.06.43,10.49,10.49,0,0,0,3.06.39,10.65,10.65,0,0,0,3.07-.39A11,11,0,0,0,40.51,23.22Z"/></g><g id="shape536-33"><path class="cls-2" d="M15.07,24.79c-2.91,0-5.24-.74-5.24-1.66V32c0,.92,2.3,1.65,5.15,1.68s5.24-.76,5.24-1.68V23.13C20.31,24.05,18,24.79,15.07,24.79Z"/></g><g id="shape537-35"><path class="cls-3" d="M20.31,23.13c0,.92-2.36,1.65-5.24,1.65s-5.24-.73-5.24-1.65,2.42-1.69,5.24-1.69S20.31,22.21,20.31,23.13Z"/></g><g id="shape538-37"><path class="cls-2" d="M19.09,23c0,.61-1.81,1.07-4,1.07s-4-.46-4-1.07,1.78-1,4-1S19.09,22.39,19.09,23Z"/></g><g id="shape539-39"><path class="cls-5" d="M15.07,23.22a10.88,10.88,0,0,0-3.06.43,10.49,10.49,0,0,0,3.06.39,10.65,10.65,0,0,0,3.07-.39A11,11,0,0,0,15.07,23.22Z"/></g></g></g></svg>