<svg id="Layer_1" data-name="Layer 1" xmlns="http://www.w3.org/2000/svg" xmlns:xlink="http://www.w3.org/1999/xlink" width="52" height="50.51" viewBox="0 0 52 50.51"><defs><style>.cls-1{fill:#fff;fill-opacity:0.4;}.cls-1,.cls-10,.cls-2,.cls-3,.cls-5,.cls-6,.cls-7,.cls-8,.cls-9{fill-rule:evenodd;}.cls-2{fill:url(#linear-gradient);}.cls-3{fill:#e8e8e8;}.cls-4{fill:none;}.cls-5{fill:#50e6ff;}.cls-6{fill:#198ab3;}.cls-7{fill:url(#linear-gradient-2);}.cls-8{fill:#0072c6;}.cls-9{fill:url(#linear-gradient-3);}.cls-10{fill:url(#radial-gradient);}</style><linearGradient id="linear-gradient" x1="-255.52" y1="403.01" x2="-254.52" y2="403.01" gradientTransform="matrix(11.44, 0, 0, -12.71, 2955.4, 5130.63)" gradientUnits="userSpaceOnUse"><stop offset="0" stop-color="#005ba1"/><stop offset="0.07" stop-color="#0060a9"/><stop offset="0.35" stop-color="#0071c8"/><stop offset="0.52" stop-color="#0078d4"/><stop offset="0.64" stop-color="#0074cd"/><stop offset="0.82" stop-color="#006abb"/><stop offset="1" stop-color="#005ba1"/></linearGradient><linearGradient id="linear-gradient-2" x1="-289.88" y1="424.79" x2="-288.88" y2="424.79" gradientTransform="matrix(0, -32.02, -46.51, 0, 19785.23, -9244.53)" gradientUnits="userSpaceOnUse"><stop offset="0" stop-color="#198ab3"/><stop offset="0.1" stop-color="#209ec5"/><stop offset="0.24" stop-color="#28b6da"/><stop offset="0.4" stop-color="#2ec7e9"/><stop offset="0.56" stop-color="#31d1f2"/><stop offset="0.78" stop-color="#32d4f5"/></linearGradient><linearGradient id="linear-gradient-3" x1="-265.28" y1="414.49" x2="-264.28" y2="414.49" gradientTransform="matrix(19.61, 0, 0, -21.8, 5216.78, 9075.56)" xlink:href="#linear-gradient"/><radialGradient id="radial-gradient" cx="-261.41" cy="385.58" r="0.5" gradientTransform="matrix(15.73, 0, 0, -7.78, 4137.15, 3041.28)" gradientUnits="userSpaceOnUse"><stop offset="0" stop-color="#f2f2f2"/><stop offset="0.58" stop-color="#eee"/><stop offset="1" stop-color="#e6e6e6"/></radialGradient></defs><g id="group564-1"><g id="group565-2"><g id="shape566-3"><path class="cls-1" d="M32.19,8.74c4.76,1.25,6,2,10.26,5.44L42.34,14c-.2-.31-.41-.6-.63-.89-.08-.1-.16-.22-.25-.32s-.4-.44-.61-.65a11.25,11.25,0,0,0-1-.93h0a11.81,11.81,0,0,0-3.81-2l-.18-.06L34.94,9l-.72-.11-.56-.08a12,12,0,0,0-1.34,0Z"/></g><g id="shape567-5"><path class="cls-2" d="M38,4c-3.16,0-5.72-.9-5.72-2v10.7c0,1.1,2.52,2,5.64,2H38c3.16,0,5.72-.9,5.72-2V2C43.66,3.12,41.1,4,38,4Z"/></g><g id="shape568-9"><path class="cls-3" d="M43.66,2c0,1.11-2.56,2-5.72,2s-5.71-.9-5.71-2S34.79,0,38,0s5.72.9,5.72,2Z"/><path class="cls-4" d="M43.66,2c0,1.11-2.56,2-5.72,2s-5.71-.9-5.71-2S34.79,0,38,0s5.72.9,5.72,2"/></g><g id="shape569-12"><path class="cls-5" d="M42.33,1.84c0,.71-2,1.28-4.38,1.28s-4.38-.57-4.38-1.28S35.53.56,38,.56s4.38.58,4.38,1.28Z"/><path class="cls-4" d="M42.33,1.84c0,.71-2,1.28-4.38,1.28s-4.38-.57-4.38-1.28S35.53.56,38,.56s4.38.58,4.38,1.28"/></g><g id="shape570-15"><path class="cls-6" d="M38,2.14a11,11,0,0,0-3.47.49,10.49,10.49,0,0,0,3.47.5,10.46,10.46,0,0,0,3.47-.5A11,11,0,0,0,38,2.14Z"/></g><g id="shape571-17"><path class="cls-7" d="M51.68,28a10.27,10.27,0,0,0-9.07-9.75C42.54,11.49,36.5,6,29.05,6a13.53,13.53,0,0,0-12.92,8.55c-6.21.92-11,5.79-11,11.66C5.17,32.75,11,38,18.27,38c.39,0,.77,0,1.15,0H40.63a2.1,2.1,0,0,0,.56-.08C47,37.68,51.68,33.33,51.68,28Z"/></g><g id="shape572-21"><path class="cls-8" d="M50.67,8.41c-1.43-1.82-3.89-2.7-7-2.74v3c2.19,0,3.78.57,4.54,1.55,2.63,3.35-2.15,14.33-15.9,24.6S6.42,46.77,3.79,43.42c-1.49-1.9-.57-6.26,3-11.54a11.12,11.12,0,0,1-1.37-3.37C.33,35.28-1.5,41.67,1.32,45.26c4.52,5.76,19.24,2.18,32.87-8S55.19,14.17,50.67,8.41Z"/></g><g id="shape573-23"><path class="cls-9" d="M24.41,32.16c-5.42,0-9.81-1.54-9.81-3.45V47.06c0,1.89,4.32,3.43,9.67,3.45h.14c5.41,0,9.8-1.54,9.8-3.45V28.71c0,1.91-4.39,3.45-9.8,3.45Z"/></g><g id="shape574-26"><path class="cls-3" d="M34.21,28.71c0,1.91-4.39,3.45-9.8,3.45s-9.81-1.54-9.81-3.45,4.39-3.45,9.81-3.45S34.21,26.81,34.21,28.71Z"/></g><g id="shape575-28"><path class="cls-5" d="M31.93,28.43c0,1.21-3.37,2.19-7.52,2.19s-7.52-1-7.52-2.19,3.37-2.2,7.52-2.2S31.93,27.22,31.93,28.43Z"/></g><g id="shape576-30"><path class="cls-6" d="M24.41,28.93a19.09,19.09,0,0,0-6,.83,18,18,0,0,0,6,.86,17.87,17.87,0,0,0,5.95-.86A19,19,0,0,0,24.41,28.93Z"/></g><g id="shape577-32"><path class="cls-10" d="M30.37,41.44v-5H28.94v6.13h3.77V41.44ZM19.46,39a2.86,2.86,0,0,1-.79-.46.67.67,0,0,1-.19-.47.54.54,0,0,1,.24-.45,1.06,1.06,0,0,1,.64-.18,2.63,2.63,0,0,1,1.46.43V36.56a4.38,4.38,0,0,0-1.53-.24,2.66,2.66,0,0,0-1.68.5A1.67,1.67,0,0,0,17,38.15a2,2,0,0,0,1.45,1.79,4.31,4.31,0,0,1,.94.53.65.65,0,0,1,.24.49.54.54,0,0,1-.24.45,1.13,1.13,0,0,1-.69.17A2.56,2.56,0,0,1,17,41v1.37a3.42,3.42,0,0,0,1.63.34,2.93,2.93,0,0,0,1.8-.48,1.55,1.55,0,0,0,.66-1.35,1.48,1.48,0,0,0-.38-1.05A4,4,0,0,0,19.46,39Zm7.93,2.36a3.7,3.7,0,0,0,.13-3.51,2.68,2.68,0,0,0-1.08-1.11,3.22,3.22,0,0,0-1.56-.39,3.41,3.41,0,0,0-1.65.4,2.87,2.87,0,0,0-1.13,1.16,3.63,3.63,0,0,0-.4,1.7,3.35,3.35,0,0,0,.37,1.56,2.75,2.75,0,0,0,1,1.1,3,3,0,0,0,1.52.43l1.31,1.43h1.85L26,42.45a2.58,2.58,0,0,0,1.43-1.12ZM26,41a1.41,1.41,0,0,1-1.17.52,1.39,1.39,0,0,1-1.16-.54,2.58,2.58,0,0,1,0-2.88,1.48,1.48,0,0,1,1.18-.55,1.39,1.39,0,0,1,1.15.54,2.32,2.32,0,0,1,.41,1.48A2.1,2.1,0,0,1,26,41Z"/></g></g></g></svg>