<svg id="Layer_1" data-name="Layer 1" xmlns="http://www.w3.org/2000/svg" xmlns:xlink="http://www.w3.org/1999/xlink" width="56.7" height="51.02" viewBox="0 0 56.7 51.02"><defs><style>.cls-1,.cls-2,.cls-3,.cls-4,.cls-5,.cls-6,.cls-8{fill-rule:evenodd;}.cls-1{fill:url(#linear-gradient);}.cls-2{fill:#e8e8e8;}.cls-3{fill:#50e6ff;}.cls-4{fill:#198ab3;}.cls-5{fill:url(#radial-gradient);}.cls-6{fill:#fff;}.cls-7{fill:none;}.cls-8{fill:#32bedd;}</style><linearGradient id="linear-gradient" x1="-270.4" y1="414.18" x2="-269.4" y2="414.18" gradientTransform="matrix(38.66, 0, 0, -44.06, 10453.71, 18277.98)" gradientUnits="userSpaceOnUse"><stop offset="0" stop-color="#005ba1"/><stop offset="0.07" stop-color="#0060a9"/><stop offset="0.36" stop-color="#0071c8"/><stop offset="0.52" stop-color="#0078d4"/><stop offset="0.64" stop-color="#0074cd"/><stop offset="0.82" stop-color="#006abb"/><stop offset="1" stop-color="#005ba1"/></linearGradient><radialGradient id="radial-gradient" cx="-268.37" cy="400.83" r="0.73" gradientTransform="matrix(31.1, 0, 0, -16.02, 8366.94, 6450.82)" gradientUnits="userSpaceOnUse"><stop offset="0" stop-color="#f2f2f2"/><stop offset="0.58" stop-color="#eee"/><stop offset="1" stop-color="#e6e6e6"/></radialGradient></defs><g id="group490-1"><g id="group491-2"><g id="group492-3"><g id="shape493-4"><path class="cls-1" d="M19.35,13.93C8.58,13.93,0,10.81,0,7V44.05C0,47.86,8.58,51,19.08,51h.27c10.66,0,19.31-3.29,19.31-7V7C38.66,10.81,30,13.93,19.35,13.93Z"/></g><g id="shape494-8"><path class="cls-2" d="M38.66,7c0,3.84-8.65,7-19.31,7S0,10.81,0,7,8.58,0,19.35,0,38.66,3.28,38.66,7Z"/></g><g id="shape495-10"><path class="cls-3" d="M34.17,6.41c0,2.43-6.6,4.44-14.82,4.44S4.52,8.84,4.52,6.41,11.12,2,19.35,2,34.17,3.94,34.17,6.41Z"/></g><g id="shape496-12"><path class="cls-4" d="M19.34,7.43A36,36,0,0,0,7.59,9.07a35,35,0,0,0,11.75,1.75A34.78,34.78,0,0,0,31.07,9.07,35.84,35.84,0,0,0,19.34,7.43Z"/></g><g id="shape497-14"><path class="cls-5" d="M31.1,32.71V22.59H28.4V35h7.39V32.71Zm-21.52-5A8.1,8.1,0,0,1,8,26.8a1.46,1.46,0,0,1-.36-1,1.13,1.13,0,0,1,.46-.92,2,2,0,0,1,1.29-.33,5.11,5.11,0,0,1,2.87,1V22.85a8.08,8.08,0,0,0-3-.62,4.93,4.93,0,0,0-3.31,1,3.27,3.27,0,0,0-1.25,2.66,4.08,4.08,0,0,0,2.87,3.65,8.25,8.25,0,0,1,1.85,1.05,1.38,1.38,0,0,1,.46,1,1.07,1.07,0,0,1-.49.92,2.27,2.27,0,0,1-1.32.36,5,5,0,0,1-3.3-1.28v2.76a6.72,6.72,0,0,0,3.3.72,5.76,5.76,0,0,0,3.53-1,3.32,3.32,0,0,0,1.29-2.72,3.06,3.06,0,0,0-.73-2.11A7.26,7.26,0,0,0,9.58,27.72ZM25.1,32.48a7,7,0,0,0,1.12-3.68,6.92,6.92,0,0,0-.76-3.29,5.45,5.45,0,0,0-2.08-2.23,6.09,6.09,0,0,0-3.11-1.05,6.23,6.23,0,0,0-3.3.82,5.32,5.32,0,0,0-2.18,2.46,7.8,7.8,0,0,0,0,6.58,5.65,5.65,0,0,0,2.08,2.23,6.73,6.73,0,0,0,2.94,1.06l2.58,2.86H26L22.42,35A5.33,5.33,0,0,0,25.1,32.48Zm-2.81-.75A2.86,2.86,0,0,1,20,32.78a2.77,2.77,0,0,1-2.28-1.09A4.57,4.57,0,0,1,17,28.8a4.5,4.5,0,0,1,.89-2.92,2.72,2.72,0,0,1,2.32-1.12,2.67,2.67,0,0,1,2.27,1.12,4.69,4.69,0,0,1,.83,2.95,4.51,4.51,0,0,1-.86,2.9Z"/></g></g><g id="shape498-18"><path class="cls-6" d="M46.82.33h-12a1,1,0,0,0-1,1h0V27.15a1,1,0,0,0,1,1h20.9a1,1,0,0,0,1-.95h0V10a1,1,0,0,0-1-.95H48.73a1,1,0,0,1-1-1h0V1.28a1,1,0,0,0-1-.95Z"/></g><g id="shape499-20"><path class="cls-3" d="M46.39,1.54V8.12a2.37,2.37,0,0,0,2.37,2.37h6.62V26.92H35V1.54H46.39ZM46.76.13H34.54a1,1,0,0,0-1,.92V27.38a1,1,0,0,0,1,.95H55.74a1,1,0,0,0,.95-.95h0V10a1,1,0,0,0-.86-.89H48.77a1,1,0,0,1-1-1h0v-7a1,1,0,0,0-1-.95h-.09Z"/><path class="cls-7" d="M46.39,1.54V8.12a2.37,2.37,0,0,0,2.37,2.37h6.62V26.92H35V1.54H46.3M46.76.13H34.54a1,1,0,0,0-1,.92V27.38a1,1,0,0,0,1,.95H55.74a1,1,0,0,0,.95-.95h0V10a1,1,0,0,0-.86-.89H48.77a1,1,0,0,1-1-1h0v-7a1,1,0,0,0-1-.95h-.09"/></g><g id="shape500-23"><path class="cls-8" d="M56.43,9.07l-9-8.88V7.42A1.65,1.65,0,0,0,49.1,9.07Z"/></g><g id="shape501-25"><path class="cls-8" d="M38.47,16.14a.89.89,0,0,0,.89.89H51.05a.89.89,0,1,0,0-1.77H39.36a.89.89,0,0,0-.89.89Z"/></g><g id="shape502-27"><path class="cls-8" d="M38.47,19.13a.89.89,0,0,0,.89.89H51.05a.89.89,0,1,0,0-1.77H39.36a.89.89,0,0,0-.89.89Z"/></g><g id="shape503-29"><path class="cls-8" d="M38.47,22.12a.82.82,0,0,0,.82.82h5.59a.83.83,0,0,0,0-1.65H39.3a.83.83,0,0,0-.83.82Z"/></g></g></g></svg>