<svg id="Layer_1" data-name="Layer 1" xmlns="http://www.w3.org/2000/svg" xmlns:xlink="http://www.w3.org/1999/xlink" width="42.52" height="56.69" viewBox="0 0 42.52 56.69"><defs><style>.cls-1,.cls-2,.cls-3,.cls-4,.cls-5{fill-rule:evenodd;}.cls-1{fill:url(#linear-gradient);}.cls-2{fill:#e8e8e8;}.cls-3{fill:#50e6ff;}.cls-4{fill:#198ab3;}.cls-5{fill:url(#radial-gradient);}</style><linearGradient id="linear-gradient" x1="-278.12" y1="417.7" x2="-277.12" y2="417.7" gradientTransform="matrix(42.52, 0, 0, -48.95, 11825.68, 20478.44)" gradientUnits="userSpaceOnUse"><stop offset="0" stop-color="#005ba1"/><stop offset="0.07" stop-color="#0060a9"/><stop offset="0.36" stop-color="#0071c8"/><stop offset="0.52" stop-color="#0078d4"/><stop offset="0.64" stop-color="#0074cd"/><stop offset="0.82" stop-color="#006abb"/><stop offset="1" stop-color="#005ba1"/></linearGradient><radialGradient id="radial-gradient" cx="-276.16" cy="405.41" r="0.73" gradientTransform="matrix(34.06, 0, 0, -17.45, 9428.82, 7107.04)" gradientUnits="userSpaceOnUse"><stop offset="0" stop-color="#f2f2f2"/><stop offset="0.58" stop-color="#eee"/><stop offset="1" stop-color="#e6e6e6"/></radialGradient></defs><g id="group557-1"><g id="group558-2"><g id="shape559-3"><path class="cls-1" d="M21.26,15.47C9.52,15.47,0,12.14,0,7.74V49c0,4.23,9.35,7.67,21,7.73h.3C33,56.69,42.52,53.36,42.52,49V7.74C42.52,12,33,15.47,21.26,15.47Z"/></g><g id="shape560-7"><path class="cls-2" d="M42.52,7.74c0,4.3-9.52,7.73-21.26,7.73S0,12.14,0,7.74,9.52,0,21.26,0,42.52,3.33,42.52,7.74Z"/></g><g id="shape561-9"><path class="cls-3" d="M37.58,7.11c0,2.73-7.33,4.93-16.32,4.93S4.94,9.84,4.94,7.11s7.33-4.9,16.32-4.9S37.58,4.41,37.58,7.11Z"/></g><g id="shape562-11"><path class="cls-4" d="M21.26,8.34a37.91,37.91,0,0,0-12.9,1.9A37.86,37.86,0,0,0,21.26,12a36.94,36.94,0,0,0,12.9-1.93A38.88,38.88,0,0,0,21.26,8.34Z"/></g><g id="shape563-13"><path class="cls-5" d="M34.2,36.35V25h-3V38.78h8.16V36.35ZM10.52,30.78a5.88,5.88,0,0,1-1.69-1,1.42,1.42,0,0,1-.4-1.06,1.13,1.13,0,0,1,.5-1,2.27,2.27,0,0,1,1.39-.4,5.44,5.44,0,0,1,3.31,1V25.38a8.53,8.53,0,0,0-3.31-.54A5.42,5.42,0,0,0,6.7,26a3.6,3.6,0,0,0-1.39,3c0,1.7,1.06,3,3.32,4a10,10,0,0,1,2,1.2,1.43,1.43,0,0,1,.5,1.07,1.26,1.26,0,0,1-.53,1,2.61,2.61,0,0,1-1.49.37,5.43,5.43,0,0,1-3.62-1.4v3.1a7,7,0,0,0,3.55.8A6.2,6.2,0,0,0,13,38.05a3.63,3.63,0,0,0,1.1-3,3.54,3.54,0,0,0-.83-2.33A8.17,8.17,0,0,0,10.52,30.78Zm17.38,5.3A7.83,7.83,0,0,0,29,31.88a7.92,7.92,0,0,0-1.09-3.54,6,6,0,0,0-2.33-2.5A6.73,6.73,0,0,0,22.26,25a7,7,0,0,0-3.58.91,6.1,6.1,0,0,0-2.42,2.46,8.21,8.21,0,0,0-.87,3.8,7.44,7.44,0,0,0,.8,3.34A5.81,5.81,0,0,0,18.48,38a6.71,6.71,0,0,0,3.31,1l2.86,3.33h4l-4.08-3.67A6,6,0,0,0,27.9,36.08Zm-3.32-.83a3.13,3.13,0,0,1-2.52,1.16,3,3,0,0,1-2.52-1.2,5.08,5.08,0,0,1-1-3.33,5.12,5.12,0,0,1,1-3.34,3.32,3.32,0,0,1,2.59-1.23,2.88,2.88,0,0,1,2.48,1.23,5.5,5.5,0,0,1,.9,3.34A4.94,4.94,0,0,1,24.58,35.25Z"/></g></g></g></svg>