<svg id="Layer_1" data-name="Layer 1" xmlns="http://www.w3.org/2000/svg" xmlns:xlink="http://www.w3.org/1999/xlink" width="49.76" height="56.7" viewBox="0 0 49.76 56.7"><defs><style>.cls-1{fill:#777;}.cls-1,.cls-2,.cls-3,.cls-4,.cls-6,.cls-7{fill-rule:evenodd;}.cls-2{fill:#999;}.cls-3{fill:url(#linear-gradient);}.cls-4{fill:#003067;}.cls-5{fill:#50e6ff;}.cls-6{fill:url(#linear-gradient-2);}.cls-7{fill:#f2f2f2;}</style><linearGradient id="linear-gradient" x1="-284.75" y1="417.08" x2="-283.75" y2="417.08" gradientTransform="matrix(0, -42.97, -32.75, 0, 13676.04, -12179.01)" gradientUnits="userSpaceOnUse"><stop offset="0" stop-color="#949494"/><stop offset="0.53" stop-color="#a2a2a2"/><stop offset="1" stop-color="#b3b3b3"/></linearGradient><linearGradient id="linear-gradient-2" x1="-286.35" y1="419.61" x2="-285.35" y2="419.61" gradientTransform="matrix(0, -35.6, -49.76, 0, 20904.78, -10136.72)" gradientUnits="userSpaceOnUse"><stop offset="0" stop-color="#0078d4"/><stop offset="0.16" stop-color="#1380da"/><stop offset="0.53" stop-color="#3c91e5"/><stop offset="0.82" stop-color="#559cec"/><stop offset="1" stop-color="#5ea0ef"/></linearGradient></defs><g id="group512-1"><g id="group513-2"><g id="shape514-3"><path class="cls-1" d="M46.09,41.05A2,2,0,0,1,44.19,43H15.24a1.91,1.91,0,0,1-1.9-1.92V1.92A1.85,1.85,0,0,1,15.11,0H44.19a1.91,1.91,0,0,1,1.9,1.92Z"/></g><g id="shape515-5"><path class="cls-2" d="M39.42,47.81a2,2,0,0,1-1.9,1.92H8.57a1.91,1.91,0,0,1-1.9-1.92V8.68A1.85,1.85,0,0,1,8.44,6.76H37.52a1.91,1.91,0,0,1,1.9,1.92Z"/></g><g id="shape516-7"><path class="cls-3" d="M32.75,54.77a2,2,0,0,1-1.9,1.92H1.9A2,2,0,0,1,0,54.77V15.64a1.85,1.85,0,0,1,1.77-1.92H30.85a1.91,1.91,0,0,1,1.9,1.92Z"/></g><g id="shape517-11"><path class="cls-4" d="M4.8,22.63A3.57,3.57,0,0,1,8.31,19H24.68a3.59,3.59,0,0,1,3.66,3.37,3.63,3.63,0,0,1-3.43,3.82H8.33A3.63,3.63,0,0,1,4.8,22.63Z"/></g><g id="shape518-13"><ellipse class="cls-5" cx="8.54" cy="22.63" rx="2.4" ry="2.43"/></g><g id="shape519-15"><path class="cls-6" d="M49.76,45.51a11.26,11.26,0,0,0-9.71-10.88,14.1,14.1,0,0,0-14.5-13.52,14.37,14.37,0,0,0-13.81,9.4A13.43,13.43,0,0,0,0,43.51,13.61,13.61,0,0,0,14,56.69H38.65A11.35,11.35,0,0,0,49.76,45.51Z"/></g><g id="shape520-19"><path class="cls-7" d="M43.72,46.76V35.41h-3.1V49.33h8.17V46.76ZM20,41.18a9,9,0,0,1-1.7-1,1.66,1.66,0,0,1-.4-1.08,1.08,1.08,0,0,1,.5-1,2.08,2.08,0,0,1,1.4-.4,5.53,5.53,0,0,1,3.34,1V35.71a9,9,0,0,0-3.34-.51,5.6,5.6,0,0,0-3.63,1.12,3.69,3.69,0,0,0-1.37,3A4.55,4.55,0,0,0,18,43.38a8,8,0,0,1,2,1.22,1.39,1.39,0,0,1,.5,1.08,1.11,1.11,0,0,1-.5,1,2.58,2.58,0,0,1-1.5.41A5.37,5.37,0,0,1,15,45.68v3.11a7.56,7.56,0,0,0,3.33.77,6.4,6.4,0,0,0,3.84-.94,3.6,3.6,0,0,0,1.43-3.08,3.38,3.38,0,0,0-.83-2.36A7.42,7.42,0,0,0,20,41.18Zm17.21,5.34a8,8,0,0,0,1.1-4.25,7.76,7.76,0,0,0-.83-3.79,5.68,5.68,0,0,0-2.3-2.5,6.13,6.13,0,0,0-3.54-.88,6.9,6.9,0,0,0-3.33,1,6.31,6.31,0,0,0-2.44,2.6,8.45,8.45,0,0,0-.9,3.86,7.91,7.91,0,0,0,.8,3.54,6.29,6.29,0,0,0,2.27,2.5,6.9,6.9,0,0,0,3.33,1l2.84,3.38h4.1l-4-3.72A6.11,6.11,0,0,0,37.25,46.52Zm-3.1-.84a3.25,3.25,0,0,1-5,0,5.18,5.18,0,0,1-.93-3.37,4.87,4.87,0,0,1,1-3.38,3.08,3.08,0,0,1,2.56-1.25,2.85,2.85,0,0,1,2.47,1.25,5,5,0,0,1,.94,3.38A5,5,0,0,1,34.15,45.68Z"/></g></g></g></svg>