<svg id="Layer_1" data-name="Layer 1" xmlns="http://www.w3.org/2000/svg" xmlns:xlink="http://www.w3.org/1999/xlink" width="56.69" height="51.03" viewBox="0 0 56.69 51.03"><defs><style>.cls-1,.cls-2,.cls-3,.cls-4,.cls-5{fill-rule:evenodd;}.cls-1{fill:url(#linear-gradient);}.cls-2{fill:#198ab3;}.cls-3{fill:#32bedd;}.cls-4{fill:#50e6ff;}.cls-5{fill:#f2f2f2;}</style><linearGradient id="linear-gradient" x1="-285.49" y1="418.21" x2="-284.49" y2="418.21" gradientTransform="matrix(0, -39.43, -56.69, 0, 23736.75, -11217.67)" gradientUnits="userSpaceOnUse"><stop offset="0" stop-color="#0078d4"/><stop offset="0.16" stop-color="#1380da"/><stop offset="0.53" stop-color="#3c91e5"/><stop offset="0.82" stop-color="#559cec"/><stop offset="1" stop-color="#5ea0ef"/></linearGradient></defs><g id="group411-1"><g id="group412-2"><g id="shape413-3"><path class="cls-1" d="M56.69,27.06a12.62,12.62,0,0,0-11-12A15.93,15.93,0,0,0,29.1,0,16.47,16.47,0,0,0,13.35,10.54,15,15,0,0,0,0,24.87,15.32,15.32,0,0,0,16,39.42H43.91A12.79,12.79,0,0,0,56.69,27.06Z"/></g><g id="shape414-7"><path class="cls-2" d="M0,50.1A.94.94,0,0,0,1,51H12.44a.94.94,0,0,0,1-.93v-.92a.94.94,0,0,0-.94-.93H.94a.93.93,0,0,0-.94.92Z"/></g><g id="shape415-9"><path class="cls-3" d="M29.08,44.2a.94.94,0,0,0,.94.93h11.5a.94.94,0,0,0,.94-.93v-.92a1,1,0,0,0-.95-.93H30a.93.93,0,0,0-.95.93Z"/></g><g id="shape416-11"><path class="cls-4" d="M29.08,38.33a.94.94,0,0,0,.94.93h11.5a.93.93,0,0,0,.94-.93v-.92a1,1,0,0,0-.95-.93H30a.94.94,0,0,0-.95.93Z"/></g><g id="shape417-13"><path class="cls-5" d="M15.6,23.66a.94.94,0,0,0,.94.93H28a.94.94,0,0,0,.94-.93v-.92a1,1,0,0,0-.95-.93H16.54a.93.93,0,0,0-.95.93Z"/></g><g id="shape418-15"><path class="cls-5" d="M15.6,29.06a.93.93,0,0,0,.94.93H28a.93.93,0,0,0,.94-.92v-.93a.94.94,0,0,0-.95-.92H16.54a.94.94,0,0,0-.95.93Z"/></g><g id="shape419-17"><path class="cls-5" d="M15.6,34.5a.94.94,0,0,0,.94.93H28A.93.93,0,0,0,29,34.5v-.92a1,1,0,0,0-.95-.93H16.54a.94.94,0,0,0-.95.93Z"/></g></g></g></svg>