<svg id="Layer_1" data-name="Layer 1" xmlns="http://www.w3.org/2000/svg" xmlns:xlink="http://www.w3.org/1999/xlink" width="42.52" height="56.66" viewBox="0 0 42.52 56.66"><defs><style>.cls-1,.cls-2,.cls-4,.cls-5,.cls-6{fill-rule:evenodd;}.cls-1{fill:url(#linear-gradient);}.cls-2{fill:#f2f2f2;}.cls-3{fill:none;}.cls-4{fill:#50e6ff;}.cls-5{fill:#198ab3;}.cls-6{fill:#fff;}</style><linearGradient id="linear-gradient" x1="-277.89" y1="418.09" x2="-276.89" y2="418.09" gradientTransform="matrix(42.49, 0.11, 0.1, -48.96, 11767.34, 20532.93)" gradientUnits="userSpaceOnUse"><stop offset="0" stop-color="#005ba1"/><stop offset="0.07" stop-color="#0060a9"/><stop offset="0.36" stop-color="#0071c8"/><stop offset="0.52" stop-color="#0078d4"/><stop offset="0.64" stop-color="#0074cd"/><stop offset="0.82" stop-color="#006abb"/><stop offset="1" stop-color="#005ba1"/></linearGradient></defs><g id="group420-1"><g id="shape421-2"><path class="cls-1" d="M21.23,15.46C9.5,15.46,0,12.13,0,7.7V48.86c0,4.23,9.33,7.7,20.93,7.8h.3c11.73,0,21.26-3.33,21.26-7.7V7.8C42.52,12.06,33,15.5,21.23,15.46Z"/></g><g id="shape422-6"><path class="cls-2" d="M42.52,7.8c0,4.27-9.53,7.7-21.26,7.67S0,12.13,0,7.7,9.56,0,21.22,0,42.45,3.53,42.45,7.8Z"/><path class="cls-3" d="M42.52,7.8c0,4.27-9.53,7.7-21.26,7.67S0,12.13,0,7.7,9.56,0,21.22,0,42.45,3.53,42.45,7.8"/></g><g id="shape423-9"><path class="cls-4" d="M37.56,7.17c0,2.7-7.3,4.9-16.3,4.87S5,9.8,5,7.07s7.3-4.9,16.23-4.87,16.29,2.24,16.26,5Z"/><path class="cls-3" d="M37.56,7.17c0,2.7-7.3,4.9-16.3,4.87S5,9.8,5,7.07s7.3-4.9,16.23-4.87,16.29,2.24,16.26,5"/></g><g id="shape424-12"><path class="cls-5" d="M21.23,8.33A39.87,39.87,0,0,0,8.3,10.2,37.54,37.54,0,0,0,21.23,12a37.87,37.87,0,0,0,12.93-1.9A40.47,40.47,0,0,0,21.23,8.33Z"/></g><g id="shape425-14"><path class="cls-6" d="M32.79,32.26l-2.73-.86c-.17,0-.27,0-.33-.3l-.57-1.4a1.06,1.06,0,0,1,0-.5c.4-.87.8-1.74,1.27-2.57a.37.37,0,0,0,0-.52h0c-.47-.47-.94-.87-1.37-1.37a.45.45,0,0,0-.6-.14.47.47,0,0,0-.14.14L26,25.9h-.43l-1.36-.57a.48.48,0,0,1-.54-.33c-.33-.9-.66-1.8-.93-2.7a.37.37,0,0,0-.34-.3H20.16c-.23,0-.26,0-.4.27-.26.93-.56,1.83-.9,2.73a.33.33,0,0,1-.3.33l-1.4.57a.72.72,0,0,1-.54,0L14,24.6a.36.36,0,0,0-.4,0c-.5.53-1,1.1-1.57,1.6a.28.28,0,0,0,0,.38l0,0c.43.83.83,1.7,1.3,2.53a.62.62,0,0,1,0,.53L12.7,31a.47.47,0,0,1-.4.4c-.9.34-1.8.67-2.7.94-.23,0-.3.16-.3.36V35c0,.23,0,.33.27.4.93.26,1.83.63,2.73.9a.44.44,0,0,1,.33.37c0,.43.4.89.57,1.36a.62.62,0,0,1,0,.5c-.47.9-.87,1.8-1.3,2.7a.29.29,0,0,0,0,.37l1.67,1.63s0,.17.26,0l1.6-.83,1.17-.74h.46l1.4.57c.17,0,.24.17.3.33.34.9.67,1.87.94,2.77a.39.39,0,0,0,.36.3h2.2c.24,0,.3,0,.4-.27.3-.9.64-1.83.9-2.73a.47.47,0,0,1,.3-.33l1.43-.57a.47.47,0,0,1,.43,0L28.39,43a.33.33,0,0,0,.4,0c.5-.53,1-1.1,1.6-1.6s.17-.23,0-.47a25.21,25.21,0,0,1-1.3-2.6.37.37,0,0,1,0-.5c.2-.46.4-.9.57-1.36a.4.4,0,0,1,.33-.33c.9-.34,1.84-.71,2.74-1,.23,0,.26-.17.26-.4V32.63C33,31.93,33,32.36,32.79,32.26Zm-7.86,5.07-.27.23a5.28,5.28,0,0,1-6.23.4l-.33-.23A5.32,5.32,0,0,1,16,34.4a5.07,5.07,0,0,1,1.53-4.7c.17-.17.17-.24,0-.4l-.43-.5h2.76v2.56l-.73-.7s0-.16-.33,0a3.73,3.73,0,0,0-.37,5.24,2.5,2.5,0,0,0,.57.5l.4.2a3.53,3.53,0,0,0,5-1.27A3.66,3.66,0,0,0,23.76,31s-.33-.24-.36-.47,0,0,0-.23a7.31,7.31,0,0,0,.6-.64c.46-.36.46-.36.8,0A5.44,5.44,0,0,1,24.93,37.33Z"/></g></g></svg>