<svg id="Layer_1" data-name="Layer 1" xmlns="http://www.w3.org/2000/svg" width="56.69" height="48.19" viewBox="0 0 56.69 48.19"><defs><style>.cls-1{fill:#a0a1a2;}.cls-1,.cls-2,.cls-3,.cls-4,.cls-5{fill-rule:evenodd;}.cls-2{fill:#7a7a7a;}.cls-3,.cls-5{fill:#fff;}.cls-3{fill-opacity:0.8;}.cls-4{fill:#ff8c00;}.cls-5{fill-opacity:0.2;}</style></defs><g id="group468-1"><g id="group469-2"><g id="shape470-3"><path class="cls-1" d="M0,46a2.13,2.13,0,0,0,2,2.15h52.5A2.15,2.15,0,0,0,56.69,46V8.69H0Z"/></g><g id="shape471-5"><path class="cls-2" d="M54.54,0H2A2.12,2.12,0,0,0,0,2.14V8.58H56.69V2.14A2.14,2.14,0,0,0,54.54,0Z"/></g><g id="shape472-7"><path class="cls-3" d="M43.09,19.41V16.7H25.85l-4.08-4.07H11V42.32a1.55,1.55,0,0,0,1.59,1.58H43.43A1.55,1.55,0,0,0,45,42.32V19.41Z"/></g><g id="shape473-9"><path class="cls-4" d="M14.17,19.41V42.32a1.59,1.59,0,0,1-3.17,0V12.63H21.89L26,16.7H43.09v2.71Z"/></g><g id="shape474-11"><path class="cls-5" d="M2.27,0A2.27,2.27,0,0,0,0,2.26V45.82a2.27,2.27,0,0,0,2.27,2.26H4.76L49.44,0Z"/></g></g></g></svg>