<svg id="Layer_1" data-name="Layer 1" xmlns="http://www.w3.org/2000/svg" width="56.69" height="48.19" viewBox="0 0 56.69 48.19"><defs><style>.cls-1{fill:#a0a1a2;}.cls-1,.cls-2,.cls-4,.cls-5,.cls-6{fill-rule:evenodd;}.cls-2{fill:#7a7a7a;}.cls-3,.cls-5,.cls-6{fill:#fff;}.cls-4{fill:#fcd116;}.cls-6{fill-opacity:0.2;}</style></defs><g id="group453-1"><g id="group454-2"><g id="shape455-3"><path class="cls-1" d="M0,46a2.08,2.08,0,0,0,2.15,2.15H54.54A2.08,2.08,0,0,0,56.69,46V8.59H0Z"/></g><g id="shape456-5"><path class="cls-2" d="M54.54,0H2.15A2.08,2.08,0,0,0,0,2.15V8.6H56.69V2.15A2.08,2.08,0,0,0,54.54,0Z"/></g><g id="shape457-7"><rect class="cls-3" x="21.32" y="12.33" width="14.29" height="8.6"/></g><g id="shape458-9"><path class="cls-4" d="M21.32,24H35.61v8.6H21.32Zm17,0H52.61v8.6H38.33Z"/></g><g id="shape459-11"><path class="cls-5" d="M38.33,12.33H52.61v8.59H38.33Zm-34,0H18.6v8.59H4.31ZM4.31,24H18.6v8.6H4.31Z"/></g><g id="shape460-13"><path class="cls-4" d="M4.31,35.52H18.6v8.6H4.31Zm17,0H35.6v8.6H21.32Zm17,0H52.61v8.6H38.33Z"/></g><g id="shape461-15"><path class="cls-6" d="M2.15,0A2.3,2.3,0,0,0,0,2.15V46a2.31,2.31,0,0,0,2.15,2.15H4.54L49.44,0Z"/></g></g></g></svg>