<svg id="Layer_1" data-name="Layer 1" xmlns="http://www.w3.org/2000/svg" xmlns:xlink="http://www.w3.org/1999/xlink" width="56.69" height="48.19" viewBox="0 0 56.69 48.19"><defs><style>.cls-1,.cls-2,.cls-3,.cls-4,.cls-5,.cls-6{fill-rule:evenodd;}.cls-1{fill:url(#linear-gradient);}.cls-2{fill:url(#linear-gradient-2);}.cls-3{fill:#fff;}.cls-4{fill:#003067;}.cls-5{fill:#50e6ff;}.cls-6{fill:#0078d4;}</style><linearGradient id="linear-gradient" x1="-285.32" y1="427.91" x2="-284.32" y2="427.91" gradientTransform="matrix(0, -40.93, -56.69, 0, 24286.47, -11637.52)" gradientUnits="userSpaceOnUse"><stop offset="0" stop-color="#0078d4"/><stop offset="0.14" stop-color="#077bd6"/><stop offset="0.34" stop-color="#1a83db"/><stop offset="0.59" stop-color="#3990e4"/><stop offset="0.82" stop-color="#5ea0ef"/></linearGradient><linearGradient id="linear-gradient-2" x1="-287.37" y1="418.44" x2="-286.37" y2="418.44" gradientTransform="matrix(0, -33.08, -19.02, 0, 7968.25, -9458.03)" gradientUnits="userSpaceOnUse"><stop offset="0" stop-color="#949494"/><stop offset="0.41" stop-color="#c1c1c1"/><stop offset="1" stop-color="#fff"/></linearGradient></defs><g id="group426-1"><g id="group427-2"><g id="shape428-3"><path class="cls-1" d="M56.69,28.1a12.93,12.93,0,0,0-11-12.48A16.18,16.18,0,0,0,29.1,0,16.53,16.53,0,0,0,13.35,10.94,15.29,15.29,0,0,0,0,25.82a15.55,15.55,0,0,0,16,15.1H43.21a4.09,4.09,0,0,0,.7,0A13,13,0,0,0,56.69,28.1Z"/></g><g id="shape429-7"><path class="cls-2" d="M17.42,15.11H0V46.53a1.65,1.65,0,0,0,1.64,1.66H17.39A1.64,1.64,0,0,0,19,46.53V16.77A1.65,1.65,0,0,0,17.42,15.11Z"/></g><g id="shape430-11"><path class="cls-3" d="M17.71,15.11a.28.28,0,0,1-.32-.25V11.07a.35.35,0,0,0-.39-.3h0a.26.26,0,0,0-.17.07l-6.3,6.42a.33.33,0,0,0,0,.45l6.3,6.41a.32.32,0,0,0,.36.05.35.35,0,0,0,.21-.3V20a.31.31,0,0,1,.31-.32h3.15V15.11Z"/></g><g id="shape431-13"><path class="cls-4" d="M23.59,26.71a2.07,2.07,0,0,1,2.08-2.12h9.45a2.1,2.1,0,0,1,2.08,2.12h0a2.08,2.08,0,0,1-2.08,2.08H25.67a2,2,0,0,1-1.47-.59A2.11,2.11,0,0,1,23.59,26.71Zm0-6.28a2.11,2.11,0,0,1,2.07-2.12h9.46a2.12,2.12,0,0,1,0,4.23H25.67A2.09,2.09,0,0,1,23.59,20.43Z"/></g><g id="shape432-15"><path class="cls-5" d="M25.73,21.84A1.41,1.41,0,0,0,25.82,19h-.09a1.41,1.41,0,0,0,0,2.82Zm0,6.28a1.41,1.41,0,0,0,.08-2.82h-.08a1.41,1.41,0,0,0,0,2.82Z"/></g><g id="shape433-17"><path class="cls-6" d="M31.12,38.8l-6.3,6.42a.36.36,0,0,1-.36.05.37.37,0,0,1-.21-.31V41.18a.31.31,0,0,0-.31-.32H20.66V36.27H24a.28.28,0,0,0,.32-.32V32.23a.36.36,0,0,1,.39-.31.37.37,0,0,1,.18.08l6.29,6.42a.31.31,0,0,1,0,.21.34.34,0,0,1-.11.17Z"/></g></g></g></svg>