<svg id="Layer_1" data-name="Layer 1" xmlns="http://www.w3.org/2000/svg" width="56.69" height="48.19" viewBox="0 0 56.69 48.19"><defs><style>.cls-1{fill:#a0a1a2;}.cls-1,.cls-2,.cls-3,.cls-4{fill-rule:evenodd;}.cls-2{fill:#7a7a7a;}.cls-3{fill:#804998;}.cls-4{fill:#fff;fill-opacity:0.2;}</style></defs><g id="group462-1"><g id="group463-2"><g id="shape464-3"><path class="cls-1" d="M0,46a2.13,2.13,0,0,0,2,2.15h52.5A2.15,2.15,0,0,0,56.69,46V8.69H0Z"/></g><g id="shape465-5"><path class="cls-2" d="M54.54,0H2A2.12,2.12,0,0,0,0,2.14V8.58H56.69V2.14A2.14,2.14,0,0,0,54.54,0Z"/></g><g id="shape466-7"><path class="cls-3" d="M4.2,12.52H17.81V43.9H4.2Zm17.35,0h13.6V43.9H21.55Zm17.35,0H52.5V43.9H38.9Z"/></g><g id="shape467-9"><path class="cls-4" d="M2.27,0A2.27,2.27,0,0,0,0,2.26V45.82a2.27,2.27,0,0,0,2.27,2.26H4.76L49.44,0Z"/></g></g></g></svg>