<svg id="Layer_1" data-name="Layer 1" xmlns="http://www.w3.org/2000/svg" xmlns:xlink="http://www.w3.org/1999/xlink" width="48.19" height="45.99" viewBox="0 0 48.19 45.99"><defs><style>.cls-1,.cls-2,.cls-3,.cls-4,.cls-5,.cls-6{fill-rule:evenodd;}.cls-1{fill:url(#linear-gradient);}.cls-2{fill:#005ba1;}.cls-3{fill:#5ea0ef;}.cls-4{fill:#fff;}.cls-5{fill:#0078d4;}.cls-6{fill:#83b9f9;}</style><linearGradient id="linear-gradient" x1="-271.56" y1="419.44" x2="-270.56" y2="419.44" gradientTransform="matrix(-1.18, 35.93, 48.18, 0.88, -20504.26, 9396.95)" gradientUnits="userSpaceOnUse"><stop offset="0" stop-color="#e6e6e6"/><stop offset="1" stop-color="#b3b3b3"/></linearGradient></defs><g id="group434-1"><g id="group435-2"><g id="shape436-3"><path class="cls-1" d="M46.57,10.05H31.24a.81.81,0,0,0-.8.82h0v9.39a.81.81,0,0,1-.8.82H16a.8.8,0,0,0-.8.81v9.59a.82.82,0,0,1-.81.82H.8a.8.8,0,0,0-.8.81V44.37A1.62,1.62,0,0,0,1.6,46H32.17a.5.5,0,0,0,.17,0H46.57a1.61,1.61,0,0,0,1.62-1.62h0V11.68a1.62,1.62,0,0,0-1.61-1.63Z"/></g><g id="shape437-7"><path class="cls-2" d="M33,42.68a.81.81,0,0,0,.8.82H44.84a.8.8,0,0,0,.8-.81V35.77a.81.81,0,0,0-.81-.81H33.79a.82.82,0,0,0-.81.82Z"/></g><g id="shape438-9"><path class="cls-3" d="M33,31.47a.81.81,0,0,0,.8.82H44.84a.8.8,0,0,0,.8-.81V24.56a.81.81,0,0,0-.81-.81H33.79a.82.82,0,0,0-.81.82Z"/></g><g id="shape439-11"><path class="cls-4" d="M33,20.26a.81.81,0,0,0,.8.82H44.84a.8.8,0,0,0,.8-.81V13.35a.81.81,0,0,0-.81-.81H33.79a.82.82,0,0,0-.81.82Z"/></g><g id="shape440-13"><path class="cls-2" d="M17.76,42.7a.81.81,0,0,0,.81.81H29.62a.82.82,0,0,0,.81-.82v-6.9a.81.81,0,0,0-.8-.82H18.57a.8.8,0,0,0-.8.81Z"/></g><g id="shape441-15"><path class="cls-4" d="M17.76,31.49a.82.82,0,0,0,.81.82H29.62a.81.81,0,0,0,.81-.81V24.58a.8.8,0,0,0-.8-.81H18.57a.81.81,0,0,0-.8.82Z"/></g><g id="shape442-17"><path class="cls-2" d="M2.55,42.7a.81.81,0,0,0,.81.81H14.41a.82.82,0,0,0,.81-.82v-6.9a.82.82,0,0,0-.81-.82h-11a.81.81,0,0,0-.81.81Z"/></g><g id="shape443-19"><path class="cls-3" d="M15.06,9.17a1,1,0,0,0,1,1H29.15a1,1,0,0,0,1-1V1a1,1,0,0,0-1-1H16a1,1,0,0,0-1,1Z"/></g><g id="shape444-21"><path class="cls-5" d="M0,45a1,1,0,0,0,1,1H14.09a1,1,0,0,0,1-1v-8.2a1,1,0,0,0-1-1H1a1,1,0,0,0-1,1Z"/></g><g id="shape445-23"><path class="cls-6" d="M0,45a1,1,0,0,0,1,1H14.09a1,1,0,0,0,1-1v-8.2a1,1,0,0,0-1-1H1a1,1,0,0,0-1,1Z"/></g></g></g></svg>