<svg id="Layer_1" data-name="Layer 1" xmlns="http://www.w3.org/2000/svg" xmlns:xlink="http://www.w3.org/1999/xlink" width="56.69" height="45.35" viewBox="0 0 56.69 45.35"><defs><style>.cls-1,.cls-2,.cls-3,.cls-4,.cls-5{fill-rule:evenodd;}.cls-1{fill:url(#linear-gradient);}.cls-2{fill:#198ab3;}.cls-3{fill:#fff;}.cls-4{fill:#9cebff;}.cls-5{fill:#50e6ff;}</style><linearGradient id="linear-gradient" x1="-287.14" y1="415.22" x2="-286.14" y2="415.22" gradientTransform="matrix(0, -33.34, -56.69, 0, 23567.01, -9527.83)" gradientUnits="userSpaceOnUse"><stop offset="0" stop-color="#32bedd"/><stop offset="0.18" stop-color="#32caea"/><stop offset="0.41" stop-color="#32d2f2"/><stop offset="0.78" stop-color="#32d4f5"/></linearGradient></defs><g id="group475-1"><g id="group476-2"><g id="shape477-3"><path class="cls-1" d="M0,12H56.69V43.46a1.89,1.89,0,0,1-1.9,1.89H1.9A1.89,1.89,0,0,1,0,43.46Z"/></g><g id="shape478-7"><path class="cls-2" d="M1.9,0H54.79a1.9,1.9,0,0,1,1.9,1.89h0V12H0V1.86A1.9,1.9,0,0,1,1.9,0Z"/></g><g id="shape479-9"><path class="cls-3" d="M7.71,15.67H49a.89.89,0,0,1,.86.89v4.65a.9.9,0,0,1-.87.89H7.71a.9.9,0,0,1-.87-.9V16.56a.89.89,0,0,1,.86-.9Z"/></g><g id="shape480-11"><path class="cls-4" d="M7.74,24.92H49a.89.89,0,0,1,.87.89V30.5a.89.89,0,0,1-.87.89H7.74a.91.91,0,0,1-.87-.9V26a.9.9,0,0,1,.72-1l.15,0Z"/></g><g id="shape481-13"><path class="cls-5" d="M7.74,34.27H49a.91.91,0,0,1,.87.9v4.68a.9.9,0,0,1-.87.9H7.74a.9.9,0,0,1-.87-.89V35.17a.89.89,0,0,1,.87-.89Z"/></g></g></g></svg>