<svg id="Layer_1" data-name="Layer 1" xmlns="http://www.w3.org/2000/svg" xmlns:xlink="http://www.w3.org/1999/xlink" width="43.63" height="45.36" viewBox="0 0 43.63 45.36"><defs><style>.cls-1,.cls-2,.cls-3{fill-rule:evenodd;}.cls-1{fill:url(#linear-gradient);}.cls-2{fill:#50e6ff;}.cls-3{fill:#32bedd;}</style><linearGradient id="linear-gradient" x1="-284.52" y1="424.76" x2="-283.52" y2="424.76" gradientTransform="matrix(0, -45.36, -43.63, 0, 18553.88, -12860.36)" gradientUnits="userSpaceOnUse"><stop offset="0" stop-color="#949494"/><stop offset="0.33" stop-color="#9b9b9b"/><stop offset="0.82" stop-color="#aeafb0"/><stop offset="1" stop-color="#b6b8b9"/></linearGradient></defs><g id="group406-1"><g id="shape407-2"><path class="cls-1" d="M43.63,24.76V19.48l-.31-.27-5.8-1.83L36,13.87l2.87-5.55.31-.62L37.33,5.9l-2.2-2-.76.35L28.7,6.91l-3.81-1L22.43,0H16.79l-.28.27-2,5.4-4,1.38L4,4.1,0,7.79l.38.71,3,5.37a19.81,19.81,0,0,1,10.08-2.54A20.66,20.66,0,0,1,24.73,14.7a10.63,10.63,0,0,1,1.13.76,9.67,9.67,0,0,1,2.93,4,8.39,8.39,0,0,1,.67,3.27c0,5.26-4.56,9.53-10.18,9.53h-.06a10.78,10.78,0,0,1-5.89-1.74A20.55,20.55,0,0,1,.72,35.68L.13,36.83l4,3.8.82-.2,5.67-3,3.9,1.5L17,45.36h5.67l.22-.74L25,39l3.84-1.5,6.65,3,4-3.72L39.06,36l-2.93-5.28L37.33,27Z"/></g><g id="shape408-6"><path class="cls-2" d="M12.58,27.6a11.8,11.8,0,0,1-8.06-3.1A1.32,1.32,0,0,1,4,22.63a1.52,1.52,0,0,1,2-.45,1.34,1.34,0,0,1,.53.55,8.7,8.7,0,0,0,6,2.15,8.57,8.57,0,0,0,5.93-2.15,11.57,11.57,0,0,1,8-2.95,11.9,11.9,0,0,1,8.1,2.95,1.29,1.29,0,0,1,0,1.92,1.52,1.52,0,0,1-2,0h0a8.72,8.72,0,0,0-6-2.31,8.48,8.48,0,0,0-5.92,2.31A11.87,11.87,0,0,1,12.58,27.6Z"/></g><g id="shape409-8"><path class="cls-2" d="M12.59,22.2a5.88,5.88,0,0,1-4-1.54,1.29,1.29,0,0,1,0-1.92,1.52,1.52,0,0,1,2.05,0h0a2.78,2.78,0,0,0,1.92.74,3.6,3.6,0,0,0,1.89-.74,18,18,0,0,1,24.16,0,1.29,1.29,0,0,1-.13,1.91,1.53,1.53,0,0,1-1.91,0,15,15,0,0,0-20.2,0A6.41,6.41,0,0,1,12.59,22.2Z"/></g><g id="shape410-10"><path class="cls-3" d="M12.59,33A17.72,17.72,0,0,1,.4,28.3a1.33,1.33,0,0,1,0-1.88,1.54,1.54,0,0,1,2.08,0,14.63,14.63,0,0,0,10.11,3.89,14.73,14.73,0,0,0,10.08-3.92,6.24,6.24,0,0,1,3.81-1.45,6,6,0,0,1,3.94,1.53,1.29,1.29,0,0,1,0,1.92h0a1.56,1.56,0,0,1-2.08,0,2.68,2.68,0,0,0-1.86-.73,3.17,3.17,0,0,0-1.89.76A17.7,17.7,0,0,1,12.59,33Z"/></g></g></svg>