<svg id="Layer_1" data-name="Layer 1" xmlns="http://www.w3.org/2000/svg" xmlns:xlink="http://www.w3.org/1999/xlink" width="34.02" height="56.69" viewBox="0 0 34.02 56.69"><defs><style>.cls-1,.cls-2{fill-rule:evenodd;}.cls-1{fill:url(#radial-gradient);}.cls-2{fill:#ff9300;fill-opacity:0.75;}</style><radialGradient id="radial-gradient" cx="-280.04" cy="418.62" r="0.5" gradientTransform="matrix(34.02, 0, 0, -56.69, 9542.59, 23758.82)" gradientUnits="userSpaceOnUse"><stop offset="0.26" stop-color="#ffd70f"/><stop offset="0.48" stop-color="#ffcb12"/><stop offset="0.89" stop-color="#feac19"/><stop offset="1" stop-color="#fea11b"/></radialGradient></defs><g id="group402-1"><g id="group403-2"><g id="shape404-3"><path class="cls-1" d="M32.19,22.38a6.72,6.72,0,0,0,0-9.22L21.41,1.91a6.05,6.05,0,0,0-8.81,0v0L1.83,13.16a6.72,6.72,0,0,0,0,9.22l9,9.35A1.86,1.86,0,0,1,11.3,33V50.42A2.25,2.25,0,0,0,11.92,52L16,56.26a1.38,1.38,0,0,0,2,0l4-4.13v-.05l2.33-2.43a.9.9,0,0,0,0-1.21l-1.68-1.75a1,1,0,0,1,0-1.32l1.68-1.74a.9.9,0,0,0,0-1.21l-1.68-1.74a1,1,0,0,1,0-1.32l1.69-1.75a.89.89,0,0,0,0-1.2L22,34v-.9ZM17,4.63a3.61,3.61,0,0,1,3.55,3.69,3.55,3.55,0,1,1-7.1,0h0A3.62,3.62,0,0,1,17,4.63Z"/></g><g id="shape405-7"><path class="cls-2" d="M14.21,50.79a.73.73,0,0,0,1.07,0,.81.81,0,0,0,.22-.58V36.11a.86.86,0,0,0-.35-.7.75.75,0,0,0-1.06.24.72.72,0,0,0-.12.46V50.19a.85.85,0,0,0,.24.6ZM9.34,16.91H25.13a1,1,0,0,1,.95,1h0v.19a1,1,0,0,1-1,1H9.34a1,1,0,0,1-1-1h0V17.9a1,1,0,0,1,1-1h0Zm0,3.54H25.13a1,1,0,0,1,.95,1h0v.19a1,1,0,0,1-1,1H9.34a1,1,0,0,1-1-1h0v-.18a1,1,0,0,1,1-1Z"/></g></g></g></svg>