<svg id="Layer_1" data-name="Layer 1" xmlns="http://www.w3.org/2000/svg" xmlns:xlink="http://www.w3.org/1999/xlink" width="56.69" height="56.69" viewBox="0 0 56.69 56.69"><defs><style>.cls-1,.cls-2{fill-rule:evenodd;}.cls-1{fill:url(#linear-gradient);}.cls-2{fill:#552f99;}</style><linearGradient id="linear-gradient" x1="-271.13" y1="428.79" x2="-270.13" y2="428.79" gradientTransform="matrix(0, 56.69, 56.69, 0, -24280.16, 15370.98)" gradientUnits="userSpaceOnUse"><stop offset="0" stop-color="#c69aeb"/><stop offset="0.09" stop-color="#bb90e4"/><stop offset="0.49" stop-color="#926bc9"/><stop offset="0.81" stop-color="#7854b8"/><stop offset="1" stop-color="#6f4bb2"/></linearGradient></defs><g id="group398-1"><g id="group399-2"><g id="shape400-3"><path class="cls-1" d="M56.14,8.32,48.46.59A1.86,1.86,0,0,0,47.08,0L32.86.56a1.69,1.69,0,0,0-1.31.55l-31,31.4a2,2,0,0,0,0,2.7L21.21,56.13a1.9,1.9,0,0,0,2.7,0L55,24.71a1.84,1.84,0,0,0,.55-1.21L56.68,9.82A1.85,1.85,0,0,0,56.14,8.32Zm-9.25,5.13a3.53,3.53,0,1,1,3.47-3.52v0a3.46,3.46,0,0,1-3.42,3.5Z"/></g><g id="shape401-7"><path class="cls-2" d="M46.89,3.69A6.27,6.27,0,1,0,53.09,10,6.23,6.23,0,0,0,46.89,3.69Zm3.41,7a3.46,3.46,0,0,1-4.08,2.76,3.54,3.54,0,0,1,0-6.91A3.47,3.47,0,0,1,50.3,9.26,3.56,3.56,0,0,1,50.3,10.64Z"/></g></g></g></svg>