<svg id="Layer_1" data-name="Layer 1" xmlns="http://www.w3.org/2000/svg" width="45.37" height="53.89" viewBox="0 0 45.37 53.89"><defs><style>.cls-1{fill:#57a300;}.cls-1,.cls-2,.cls-3,.cls-4,.cls-5{fill-rule:evenodd;}.cls-2{fill:#fff;fill-opacity:0.1;}.cls-3{fill:#1e1e1e;fill-opacity:0.3;}.cls-4{fill:#3999c6;}.cls-5{fill:#804998;}</style></defs><g id="group387-1"><g id="group388-2"><g id="shape389-3"><path class="cls-1" d="M34.94,13.3l-11.3.45L0,37.22,16.79,53.89,40.42,30.42l.92-10.77ZM35.86,22a2.36,2.36,0,0,1-3.32,0,2.32,2.32,0,0,1,0-3.29,2.36,2.36,0,0,1,3.32,0A2.32,2.32,0,0,1,35.86,22Z"/></g><g id="shape390-5"><path class="cls-2" d="M0,37.22,16.79,53.89l3.76-3.74V16.81Z"/></g><g id="shape391-7"><path class="cls-3" d="M37.23,1.27a4.26,4.26,0,0,0-6.06,0,4.16,4.16,0,0,0,0,6,4.24,4.24,0,0,0,6.06,0A4.16,4.16,0,0,0,37.23,1.27ZM35.85,5.92a2.35,2.35,0,0,1-3.31,0,2.32,2.32,0,0,1,0-3.29,2.35,2.35,0,0,1,3.31,0A2.31,2.31,0,0,1,35.85,5.92Z"/></g><g id="shape392-9"><path class="cls-4" d="M38.37,5.25l-11.3.45L3.43,29.17,20.22,45.84,43.85,22.37l.92-10.77ZM39.29,14A2.36,2.36,0,0,1,36,14a2.32,2.32,0,0,1,0-3.29,2.36,2.36,0,0,1,3.32,0A2.32,2.32,0,0,1,39.29,14Z"/></g><g id="shape393-11"><path class="cls-2" d="M3.43,29.17,20.22,45.84,24,42.1V8.76Z"/></g><g id="shape394-13"><path class="cls-3" d="M40.66,9.33a4.24,4.24,0,0,0-6.06,0,4.16,4.16,0,0,0,0,6,4.24,4.24,0,0,0,6.06,0A4.16,4.16,0,0,0,40.66,9.33ZM39.28,14A2.35,2.35,0,0,1,36,14a2.32,2.32,0,0,1,0-3.29,2.35,2.35,0,0,1,3.31,0A2.31,2.31,0,0,1,39.28,14Z"/></g><g id="shape395-15"><path class="cls-5" d="M34.94,13.3l-11.3.45L0,37.22,16.79,53.89,40.42,30.42l.92-10.77ZM35.86,22a2.36,2.36,0,0,1-3.32,0,2.32,2.32,0,0,1,0-3.29,2.36,2.36,0,0,1,3.32,0A2.32,2.32,0,0,1,35.86,22Z"/></g><g id="shape396-17"><path class="cls-2" d="M0,37.22,16.79,53.89l3.76-3.74V16.81Z"/></g><g id="shape397-19"><path class="cls-3" d="M44.08,17.38a4.24,4.24,0,0,0-6.06,0,4.16,4.16,0,0,0,0,6,4.24,4.24,0,0,0,6.06,0A4.16,4.16,0,0,0,44.08,17.38ZM42.7,22a2.35,2.35,0,0,1-3.31,0,2.32,2.32,0,0,1,0-3.29,2.35,2.35,0,0,1,3.31,0A2.31,2.31,0,0,1,42.7,22Z"/></g></g></g></svg>