<svg id="Layer_1" data-name="Layer 1" xmlns="http://www.w3.org/2000/svg" width="51.02" height="56.69" viewBox="0 0 51.02 56.69"><defs><style>.cls-1{fill:#59b4d9;}.cls-1,.cls-2{fill-rule:evenodd;}.cls-2{fill:#fff;fill-opacity:0.8;}</style></defs><g id="group382-1"><g id="group383-2"><g id="shape384-3"><path class="cls-1" d="M48.7,7.71,43.14,2.26,40.82,0H0V56.69H51V10Z"/></g><g id="shape385-5"><path class="cls-2" d="M40.59,2.26H2.32V54.42H48.71V10.2H40.59Z"/></g><g id="shape386-7"><path class="cls-1" d="M11.88,30.24A4.09,4.09,0,0,1,11,33.1a3.18,3.18,0,0,1-2.47,1A3.57,3.57,0,0,1,7.29,34V32.34a1.88,1.88,0,0,0,1.08.28c1.17,0,1.76-.88,1.76-2.65V23.61h1.75v6.63Zm2,3.3V31.77a2.93,2.93,0,0,0,.58.39,5,5,0,0,0,.71.29,6.87,6.87,0,0,0,.75.19,4.39,4.39,0,0,0,.69.06,3,3,0,0,0,1.65-.36,1.18,1.18,0,0,0,.54-1.05,1.11,1.11,0,0,0-.18-.63,1.87,1.87,0,0,0-.51-.5,5.7,5.7,0,0,0-.76-.43l-.94-.42c-.36-.19-.69-.38-1-.57a4.23,4.23,0,0,1-.81-.64,2.64,2.64,0,0,1-.54-.79,2.45,2.45,0,0,1-.19-1A2.38,2.38,0,0,1,14.23,25a2.88,2.88,0,0,1,.89-.88,3.94,3.94,0,0,1,1.25-.52,6.28,6.28,0,0,1,1.43-.17,5.76,5.76,0,0,1,2.41.37V25.5a3.94,3.94,0,0,0-2.31-.63,4.11,4.11,0,0,0-.78.07,2.1,2.1,0,0,0-.69.24,1.46,1.46,0,0,0-.5.42,1,1,0,0,0-.19.63,1.16,1.16,0,0,0,.15.6,1.43,1.43,0,0,0,.43.46,4.34,4.34,0,0,0,.69.4c.27.14.59.28.95.43s.71.39,1,.59a5,5,0,0,1,.86.69,2.94,2.94,0,0,1,.59.83,2.33,2.33,0,0,1,.22,1,2.59,2.59,0,0,1-.32,1.33,2.64,2.64,0,0,1-.88.88,4,4,0,0,1-1.26.49,6.88,6.88,0,0,1-2.17.11c-.27,0-.53-.07-.79-.12a7.71,7.71,0,0,1-.76-.18A2.15,2.15,0,0,1,13.91,33.54ZM27,34.12a4.78,4.78,0,0,1-3.66-1.45,5.23,5.23,0,0,1-1.38-3.77,5.56,5.56,0,0,1,1.4-4,5,5,0,0,1,3.8-1.49,4.71,4.71,0,0,1,3.59,1.44,5.26,5.26,0,0,1,1.36,3.77,5.57,5.57,0,0,1-1.39,4A4.89,4.89,0,0,1,27,34.12ZM27,25A3,3,0,0,0,24.68,26a4.13,4.13,0,0,0-.91,2.78,4.18,4.18,0,0,0,.89,2.78,2.88,2.88,0,0,0,2.31,1,3,3,0,0,0,2.4-1,4.14,4.14,0,0,0,.87-2.8A4.33,4.33,0,0,0,29.39,26,2.91,2.91,0,0,0,27,25ZM43,34H41.06L36,26.35a2.85,2.85,0,0,1-.31-.6h-.05a10.28,10.28,0,0,1,.06,1.42V34H34V23.61h2L40.94,31c.2.31.34.52.4.63h0a8.56,8.56,0,0,1-.08-1.39V23.61H43V34Z"/></g></g></g></svg>