<svg id="Layer_1" data-name="Layer 1" xmlns="http://www.w3.org/2000/svg" width="51.02" height="46.26" viewBox="0 0 51.02 46.26"><defs><style>.cls-1{fill:#59b4d9;}.cls-1,.cls-2,.cls-3,.cls-4{fill-rule:evenodd;}.cls-2{fill:#fff;}.cls-3{fill:#dd5900;}.cls-4{fill:#ba141a;}</style></defs><g id="group375-1"><g id="group376-2"><g id="shape377-3"><path class="cls-1" d="M26.15,9.74a9.68,9.68,0,0,1-9.59,9.75A9.68,9.68,0,0,1,7,9.74a9.6,9.6,0,1,1,19.19,0ZM23.33,21.91l-6.77,9.88L9.78,21.91H0V46.26H33.11V21.91Z"/></g><g id="shape378-5"><path class="cls-2" d="M44.33,31.18l-5.06-5.12-8.88-3.48L27.57,27l-3.73,3H19.27L20.69,33h5.43a69.26,69.26,0,0,0,9.13,11.26,36.71,36.71,0,0,0,9.14-9.57h1.82a11.61,11.61,0,0,0,1.6-3.16Z"/></g><g id="shape379-7"><path class="cls-2" d="M51,32.35h-5.6L44,35.3h5.56Z"/></g><g id="shape380-9"><path class="cls-3" d="M41.7,18.44a7,7,0,0,0-6.3,4.31,7,7,0,0,0-6.3-4.31c-3.92,0-7.09,3.5-7.09,7.82a11.64,11.64,0,0,0,.39,2.91H18.82l.94,1.91h7.31l4.07-6.39,4.73,9.93,4.48-6.38,3.32,4.11h3.86a16.06,16.06,0,0,0,1.26-6.09C48.79,21.94,45.61,18.44,41.7,18.44Z"/></g><g id="shape381-11"><path class="cls-4" d="M26.22,34.25H18.9l-2.32-2.88-4.9,7L7,28.57,4.21,33H0c3.68,7.16,11.52,13.28,11.52,13.28a39,39,0,0,0,10.12-10.1h3.64Z"/></g></g></g></svg>