<svg id="Layer_1" data-name="Layer 1" xmlns="http://www.w3.org/2000/svg" xmlns:xlink="http://www.w3.org/1999/xlink" width="56.69" height="56.7" viewBox="0 0 56.69 56.7"><defs><style>.cls-1,.cls-2,.cls-3,.cls-4{fill-rule:evenodd;}.cls-1{fill:url(#linear-gradient);}.cls-2{fill:#c3f1ff;}.cls-3{fill:#949494;}.cls-4{fill:#767676;}</style><linearGradient id="linear-gradient" x1="-288.62" y1="416.07" x2="-287.62" y2="416.07" gradientTransform="matrix(0, -28.85, -29.11, 0, 12140.37, -8283.99)" gradientUnits="userSpaceOnUse"><stop offset="0" stop-color="#198ab3"/><stop offset="0.4" stop-color="#25aed3"/><stop offset="0.78" stop-color="#2fcaec"/><stop offset="1" stop-color="#32d4f5"/></linearGradient></defs><g id="group358-1"><g id="shape359-2"><path class="cls-1" d="M13.87,41.43a1.36,1.36,0,0,0,1.36,1.36H41.62A1.35,1.35,0,0,0,43,41.44h0V15.3a1.35,1.35,0,0,0-1.35-1.36H15.23a1.36,1.36,0,0,0-1.36,1.36h0Z"/></g><g id="shape361-7"><path class="cls-2" d="M37.59,38.84,52.16,28.72a.43.43,0,0,0,.14-.6.44.44,0,0,0-.14-.13L37.59,17.9A.42.42,0,0,0,37,18a.38.38,0,0,0-.09.29v5.81h-23v8.57h23v5.83a.47.47,0,0,0,.5.42.66.66,0,0,0,.2-.06Z"/></g><g id="shape362-9"><path class="cls-3" d="M55,56.7H1.73A1.72,1.72,0,0,1,0,55H0V1.72A1.72,1.72,0,0,1,1.72,0H55a1.72,1.72,0,0,1,1.73,1.71h0V18.46a.87.87,0,0,1-1.36.73L52,16.88a.91.91,0,0,1-.37-.73V5.28H5.26V51.42H51.44V40.87a.84.84,0,0,1,.37-.69l3.32-2.4a.88.88,0,0,1,1.21.2.91.91,0,0,1,.15.53V55A1.71,1.71,0,0,1,55,56.7Z"/></g><g id="shape363-11"><path class="cls-4" d="M51.44,5.27V16a.87.87,0,0,0,.36.73L55.13,19a.86.86,0,0,0,1.22,0,.8.8,0,0,0,.27-.6V5.27Z"/></g><g id="shape364-13"><path class="cls-4" d="M51.44,51.42V40.71A.79.79,0,0,1,51.8,40l3.33-2.34a.9.9,0,0,1,1.23.3.94.94,0,0,1,.13.43V51.59Z"/></g></g></svg>