<svg id="Layer_1" data-name="Layer 1" xmlns="http://www.w3.org/2000/svg" xmlns:xlink="http://www.w3.org/1999/xlink" width="56.7" height="56.7" viewBox="0 0 56.7 56.7"><defs><style>.cls-1,.cls-2{fill-rule:evenodd;}.cls-1{fill:url(#linear-gradient);}.cls-2{fill:#50e6ff;}</style><linearGradient id="linear-gradient" x1="-270.36" y1="429.63" x2="-269.36" y2="429.63" gradientTransform="matrix(0, 56.7, 55.86, 0, -23970.99, 15328.29)" gradientUnits="userSpaceOnUse"><stop offset="0" stop-color="#b3b2b3"/><stop offset="0.21" stop-color="#afaeaf"/><stop offset="0.44" stop-color="#a2a2a2"/><stop offset="0.57" stop-color="#979797"/></linearGradient></defs><g id="group365-1"><g id="group366-2"><g id="shape367-3"><path class="cls-1" d="M0,20.79C4.27,5.71,20.23-3.14,35.66,1a28.69,28.69,0,0,1,20.2,19.76H50.33A23.85,23.85,0,0,0,20.18,6.44,23.49,23.49,0,0,0,5.51,20.79ZM50.23,36.25A23.88,23.88,0,0,1,19.86,50.17,23.51,23.51,0,0,1,5.63,36.25H.1C4.56,51.28,20.64,59.93,36,55.57A28.69,28.69,0,0,0,55.76,36.25Z"/></g><g id="shape368-7"><path class="cls-2" d="M30.42,41.52l-7-15.3-2.93,5H2.64a2.58,2.58,0,1,1,0-5.16H17.5l6.59-11.13,7.58,16.68L36.14,26l17.92,0a2.58,2.58,0,1,1,0,5.16h0l-15.33,0Z"/></g></g></g></svg>