<svg id="Layer_1" data-name="Layer 1" xmlns="http://www.w3.org/2000/svg" xmlns:xlink="http://www.w3.org/1999/xlink" width="56.69" height="56.69" viewBox="0 0 56.69 56.69"><defs><style>.cls-1,.cls-2{fill-rule:evenodd;}.cls-1{fill:url(#linear-gradient);}.cls-2{fill:#f2f2f2;}</style><linearGradient id="linear-gradient" x1="-282.87" y1="420.21" x2="-281.87" y2="420.21" gradientTransform="matrix(0, -56.69, -56.69, 0, 23850.25, -15979.44)" gradientUnits="userSpaceOnUse"><stop offset="0.16" stop-color="#6f4bb2"/><stop offset="0.32" stop-color="#7450b5"/><stop offset="0.51" stop-color="#825dbf"/><stop offset="0.72" stop-color="#9a72ce"/><stop offset="0.94" stop-color="#bb90e4"/><stop offset="1" stop-color="#c69aeb"/></linearGradient></defs><g id="group347-1"><g id="group348-2"><g id="shape349-3"><path class="cls-1" d="M39.32,0H17.37A1.86,1.86,0,0,0,16,.57L.57,16A1.86,1.86,0,0,0,0,17.37v22a1.86,1.86,0,0,0,.57,1.33L16,56.13a1.85,1.85,0,0,0,1.33.56h22a1.85,1.85,0,0,0,1.33-.56L56.13,40.65a1.85,1.85,0,0,0,.56-1.33V17.37A1.85,1.85,0,0,0,56.13,16L40.65.57A1.86,1.86,0,0,0,39.32,0Z"/></g><g id="shape350-7"><path class="cls-2" d="M18.34,23.81l-.23.23-3.34,3.34a.47.47,0,0,0,.06.66.4.4,0,0,0,.27.11H27.78a.47.47,0,0,0,.47-.46V15.17a.56.56,0,0,0-1.1-.16l-3.34,3.33-.23.23a.5.5,0,0,1-.67,0l-8.57-8.44L9.77,14.74l8.57,8.4a.5.5,0,0,1,0,.67Z"/></g><g id="shape351-9"><path class="cls-2" d="M52.3,18,38.66,4.4A.93.93,0,0,0,38,4.14H18.71A1,1,0,0,0,18,4.4L4.41,18a.9.9,0,0,0-.27.67V38a.94.94,0,0,0,.27.67L18.05,52.29a.86.86,0,0,0,.66.27H38a.92.92,0,0,0,.66-.26L52.3,38.65a1.07,1.07,0,0,0,.26-.67V18.7a1,1,0,0,0-.27-.66ZM51.1,36.21,40.59,25.71l2.53-2.57a.53.53,0,0,0,0-.75l0-.05a.59.59,0,0,0-.37,0l-9-.23a.57.57,0,0,0-.57.54l.24,9a.52.52,0,0,0,.53.54h0a.47.47,0,0,0,.4,0l2.84-2.81,11.17,11-8.47,8.47L28.35,37.38,31,35a.53.53,0,0,0,0-.75l0,0a.52.52,0,0,0-.37-.16l-9-.41a.57.57,0,0,0-.57.54l.24,9a.52.52,0,0,0,.53.54h0a.54.54,0,0,0,.4-.17L25,40.81,35.29,51.09H18.91L5.57,37.75V18.9l4.21-4.16,4.56-4.61,4.57-4.57H37.79L51.13,18.9Z"/></g></g></g></svg>