<svg id="Layer_1" data-name="Layer 1" xmlns="http://www.w3.org/2000/svg" xmlns:xlink="http://www.w3.org/1999/xlink" width="56.7" height="48.2" viewBox="0 0 56.7 48.2"><defs><style>.cls-1,.cls-2,.cls-3,.cls-4,.cls-6,.cls-8{fill-rule:evenodd;}.cls-1{fill:url(#linear-gradient);}.cls-2{fill:#005ba1;}.cls-3{fill:url(#linear-gradient-2);}.cls-4{fill:#5ea0ef;}.cls-5{fill:#0078d4;}.cls-6{fill:#83b9f9;}.cls-7{fill:#c3f1ff;}.cls-8{fill:url(#linear-gradient-3);}</style><linearGradient id="linear-gradient" x1="-285.17" y1="416.42" x2="-284.17" y2="416.42" gradientTransform="matrix(0, -40.23, -56.64, 0, 23614.26, -11431.64)" gradientUnits="userSpaceOnUse"><stop offset="0" stop-color="#773adc"/><stop offset="0.81" stop-color="#a67af4"/></linearGradient><linearGradient id="linear-gradient-2" x1="-257.47" y1="431.24" x2="-256.47" y2="431.24" gradientTransform="matrix(0, 17.52, 23.21, 0, -9970.36, 4519.19)" gradientUnits="userSpaceOnUse"><stop offset="0" stop-color="#c3f1ff"/><stop offset="1" stop-color="#9cebff"/></linearGradient><linearGradient id="linear-gradient-3" x1="-302.74" y1="410.22" x2="-301.74" y2="410.22" gradientTransform="matrix(0, -13.02, -23.21, 0, 9534.72, -3892.43)" xlink:href="#linear-gradient-2"/></defs><g id="group337-1"><g id="group338-2"><g id="shape339-3"><path class="cls-1" d="M56.64,27.63c0-2.58-3.76-3.43-5.21-5.42-2-2.73-2.2-6.23-5.84-6.83A16,16,0,0,0,29.07,0,16.45,16.45,0,0,0,13.35,10.74,15.2,15.2,0,0,0,0,25.39,15.44,15.44,0,0,0,16,40.22c.47,0,.94,0,1.4-.06H43.18a2.54,2.54,0,0,0,.68-.1A12.89,12.89,0,0,0,56.64,27.63Z"/></g><g id="shape340-7"><path class="cls-2" d="M24.14,27.05a1,1,0,0,0,.95.94h27a1,1,0,0,0,.95-.95V17.33a.94.94,0,0,0-.94-.95h-27a.94.94,0,0,0-.94.94Z"/></g><g id="shape341-9"><path class="cls-3" d="M27,25.67a1,1,0,0,0,.94.95H49.26a.94.94,0,0,0,.94-.95V10.05a1,1,0,0,0-1-1H27.94a1,1,0,0,0-1,1Z"/></g><g id="shape342-13"><path class="cls-4" d="M22.39,21.51H54.81A1.89,1.89,0,0,1,56.7,23.4V42.65H20.5V23.4A1.89,1.89,0,0,1,22.39,21.51Z"/></g><g id="shape343-15"><rect class="cls-5" x="20.5" y="40.17" width="36.2" height="3.22"/></g><g id="shape344-17"><path class="cls-6" d="M25.19,37.35a1,1,0,0,0,.95.95H51.05a1,1,0,0,0,1-.95V35.48a1,1,0,0,0-.94-.95H26.13a.94.94,0,0,0-.94.95Z"/></g><g id="shape345-19"><circle class="cls-7" cx="50.54" cy="27.52" r="0.9"/></g><g id="shape346-21"><path class="cls-8" d="M0,35.18H23.21V47.25a.94.94,0,0,1-.94,1H.94A.94.94,0,0,1,0,47.25H0V35.18Z"/></g></g></g></svg>