<svg id="Layer_1" data-name="Layer 1" xmlns="http://www.w3.org/2000/svg" width="56.69" height="51.02" viewBox="0 0 56.69 51.02"><defs><style>.cls-1{fill:#a0a1a2;}.cls-1,.cls-3,.cls-5{fill-rule:evenodd;}.cls-2{fill:#0072c6;}.cls-3,.cls-5{fill:#fff;}.cls-3,.cls-4{fill-opacity:0.2;}.cls-4{fill:#fafdff;}.cls-6{fill:#1e1e1e;fill-opacity:0.15;}</style></defs><g id="group328-1"><g id="group329-2"><g id="shape330-3"><path class="cls-1" d="M35.43,39.15H21.26c1.86,6.89-.68,8.31-11.81,8.31V51h37.8V47.46C36.12,47.46,33.58,46,35.43,39.15Z"/></g><g id="shape331-5"><path class="cls-1" d="M53.15,0h-50A3.39,3.39,0,0,0,0,3.44V37a3.29,3.29,0,0,0,3.19,3.32h50A3.6,3.6,0,0,0,56.69,37V3.44A3.71,3.71,0,0,0,53.15,0Z"/></g><g id="shape332-7"><rect class="cls-2" x="4.72" y="4.74" width="47.24" height="30.85"/></g><g id="shape333-9"><path class="cls-3" d="M43.7,0H3.19A3.39,3.39,0,0,0,0,3.44V37a3.29,3.29,0,0,0,3.19,3.32H8.27Z"/></g><g id="shape334-11"><rect class="cls-4" y="47.46" width="37.8" height="3.56"/></g><g id="shape335-13"><path class="cls-5" d="M28.06,31.64A10.08,10.08,0,0,0,38,22.54H35a7.07,7.07,0,0,1-7,6.14,6.31,6.31,0,0,1-5.28-2.76L26,22.54H17.72v8.89l3-3.39A10,10,0,0,0,28.06,31.64Zm.59-18.81a6.32,6.32,0,0,1,5.28,2.75L30.76,19H39v-8.9l-3,3.18a9.43,9.43,0,0,0-7.39-3.39A9.92,9.92,0,0,0,18.74,19h3A6.89,6.89,0,0,1,28.65,12.83Z"/></g><g id="shape336-15"><rect class="cls-6" x="22.44" y="40.34" width="11.81" height="1.19"/></g></g></g></svg>