<svg id="Layer_1" data-name="Layer 1" xmlns="http://www.w3.org/2000/svg" width="56.69" height="48.19" viewBox="0 0 56.69 48.19"><defs><style>.cls-1{fill:#e5e5e5;}.cls-1,.cls-2,.cls-3,.cls-7{fill-rule:evenodd;}.cls-2{fill:#57a300;}.cls-3,.cls-5,.cls-6{fill:#fff;}.cls-3,.cls-6{fill-opacity:0.6;}.cls-4{fill:#7a7a7a;}.cls-5{fill-opacity:0.7;}.cls-7{fill:#1e1e1e;fill-opacity:0.2;}</style></defs><g id="group310-1"><g id="group311-2"><g id="shape312-3"><path class="cls-1" d="M0,36.71H56.69V48.19H0Z"/></g><g id="shape313-5"><path class="cls-2" d="M2.27,39.08H54.43V45.9H2.27Z"/></g><g id="shape314-7"><path class="cls-3" d="M22.68,39H54.43V45.9H22.68Z"/></g><g id="shape315-9"><rect class="cls-4" y="36.72" width="4.54" height="11.47"/></g><g id="shape316-11"><rect class="cls-5" x="20.41" y="36.71" width="2.27" height="11.47"/></g><g id="shape317-13"><path class="cls-1" d="M0,18.36H56.69V29.84H0Z"/></g><g id="shape318-15"><path class="cls-2" d="M2.27,20.72H54.43v6.82H2.27Z"/></g><g id="shape319-17"><rect class="cls-6" x="40.82" y="20.64" width="13.61" height="6.89"/></g><g id="shape320-19"><rect class="cls-4" x="38.55" y="18.36" width="4.54" height="11.47"/></g><g id="shape321-21"><rect class="cls-5" x="38.55" y="18.36" width="2.27" height="11.47"/></g><g id="shape322-23"><path class="cls-1" d="M0,0H56.69V11.48H0Z"/></g><g id="shape323-25"><path class="cls-2" d="M2.27,2.36H54.43V9.18H2.27Z"/></g><g id="shape324-27"><path class="cls-3" d="M22.68,2.3H54.43V9.19H22.68Z"/></g><g id="shape325-29"><rect class="cls-4" x="20.41" width="4.54" height="11.47"/></g><g id="shape326-31"><rect class="cls-5" x="20.41" width="2.27" height="11.47"/></g><g id="shape327-33"><path class="cls-7" d="M24.94,36.71h2.27V48.19H24.94ZM24.94,0h2.27V11.51H24.94ZM43.08,18.35h2.27V29.82H43.08Z"/></g></g></g></svg>