<svg id="Layer_1" data-name="Layer 1" xmlns="http://www.w3.org/2000/svg" xmlns:xlink="http://www.w3.org/1999/xlink" width="53.87" height="56.7" viewBox="0 0 53.87 56.7"><defs><style>.cls-1,.cls-2,.cls-4,.cls-5{fill-rule:evenodd;}.cls-1{fill:url(#linear-gradient);}.cls-2{fill:#fff;fill-opacity:0.8;}.cls-3{fill:url(#linear-gradient-2);}.cls-4{fill:#005ba1;}.cls-5{fill:url(#linear-gradient-3);}</style><linearGradient id="linear-gradient" x1="-266.34" y1="429.6" x2="-265.34" y2="429.6" gradientTransform="matrix(0, 28.56, 47.8, 0, -20511.49, 7630)" gradientUnits="userSpaceOnUse"><stop offset="0.22" stop-color="#32d4f5"/><stop offset="1" stop-color="#198ab3"/></linearGradient><linearGradient id="linear-gradient-2" x1="-264.71" y1="432.59" x2="-263.71" y2="432.59" gradientTransform="matrix(2.15, 26.35, 26.64, -2.12, -10933.15, 7893.21)" xlink:href="#linear-gradient"/><linearGradient id="linear-gradient-3" x1="-290.81" y1="413.14" x2="-289.81" y2="413.14" gradientTransform="matrix(0, -26, -21.48, 0, 8916.9, -7505.31)" gradientUnits="userSpaceOnUse"><stop offset="0" stop-color="#1988d9"/><stop offset="0.9" stop-color="#54aef0"/></linearGradient></defs><g id="group303-1"><g id="group304-2"><g id="shape305-3"><path class="cls-1" d="M43.54,51.87a4.23,4.23,0,0,0,4.25-4.16,4.17,4.17,0,0,0,0-.5c-1.65-13.31-9.26-23.9-23.57-23.9S1.64,32.4,0,47.25a4.24,4.24,0,0,0,3.8,4.59H43.54Z"/></g><g id="shape306-7"><path class="cls-2" d="M24,26.43a13.28,13.28,0,0,1-7.17-2.13l7.07,18.51,7.14-18.37A13.64,13.64,0,0,1,24,26.43Z"/></g><g id="shape307-9"><ellipse class="cls-3" cx="24.02" cy="13.22" rx="13.36" ry="13.22"/></g><g id="shape308-13"><path class="cls-4" d="M53.87,41.61c0,7.59-9.29,13.72-11.31,15a.81.81,0,0,1-.77,0c-2.16-1.37-11.48-7.5-11.48-15V32.36a.74.74,0,0,1,.71-.73c7.23-.2,5.58-3.33,11-3.33s3.74,3.13,11,3.33a.74.74,0,0,1,.71.73Z"/></g><g id="shape309-15"><path class="cls-5" d="M52.76,41.61c0,7-8.51,12.62-10.37,13.75a.68.68,0,0,1-.7,0c-1.85-1.13-10.37-6.65-10.37-13.75V33.19a.64.64,0,0,1,.61-.67h0c6.73,0,5.12-3.06,10.1-3.06s3.36,2.9,10.1,3.07a.63.63,0,0,1,.64.63v0Z"/></g></g></g></svg>