<svg id="Layer_1" data-name="Layer 1" xmlns="http://www.w3.org/2000/svg" width="56.69" height="51.03" viewBox="0 0 56.69 51.03"><defs><style>.cls-1{fill:#7a7a7a;}.cls-1,.cls-10,.cls-11,.cls-2,.cls-3,.cls-5,.cls-6,.cls-7,.cls-8,.cls-9{fill-rule:evenodd;}.cls-2{fill:#a0a1a2;}.cls-11,.cls-3,.cls-7{fill:#fff;}.cls-3{fill-opacity:0.2;}.cls-4,.cls-8{fill:#59b4d9;}.cls-5{fill:#b8d432;}.cls-6{fill:#00188f;}.cls-7{fill-opacity:0.4;}.cls-9{fill:#68217a;}.cls-10{fill:#ec008c;fill-opacity:0.15;}.cls-11{fill-opacity:0.8;}</style></defs><g id="group285-1"><g id="group286-2"><g id="shape287-3"><path class="cls-1" d="M35.46,38.89H21.23c1.83,6.69-.25,8.66-11,8.66V51H46.48V47.55C35.7,47.55,33.62,45.58,35.46,38.89Z"/></g><g id="shape288-5"><path class="cls-2" d="M51,0H5.36A3.23,3.23,0,0,0,2.27,3.25v33a3.21,3.21,0,0,0,3.09,3.22H51a3.52,3.52,0,0,0,3.44-3.22v-33A3.53,3.53,0,0,0,51,0Z"/></g><g id="shape289-7"><path class="cls-3" d="M50.86,0H5.35A3.22,3.22,0,0,0,2.27,3.25v33a3.2,3.2,0,0,0,3.08,3.22H6.54Z"/></g><g id="shape290-9"><rect class="cls-4" x="6.8" y="4.64" width="43.09" height="30.15"/></g><g id="shape291-11"><path class="cls-2" d="M0,47.55l36.28,0V51H0Z"/></g><g id="shape292-13"><path class="cls-5" d="M29.15,2.33a.81.81,0,1,1-.8-.83.81.81,0,0,1,.8.83Z"/></g><g id="shape293-15"><path class="cls-6" d="M19.27,31.31H30.05a3.39,3.39,0,0,0,2.72-1.39l.76-1A1.16,1.16,0,0,0,32.47,27L17,29Z"/></g><g id="shape294-17"><path class="cls-7" d="M29,21.46H35.1A2.92,2.92,0,0,0,38,18.51h0L39.12,14a2.92,2.92,0,0,0-2.88-3H25.57c-1.6,0-2.89.69-2.89,3C22.68,19.72,25.57,21.46,29,21.46Z"/></g><g id="shape295-19"><path class="cls-8" d="M9.69,21.46H4.07a2.93,2.93,0,0,1-2.89-2.95h0V14a2.93,2.93,0,0,1,2.89-3h9c1.59,0,2.88.69,2.88,3C16,19.72,13.09,21.46,9.69,21.46Z"/></g><g id="shape296-21"><path class="cls-7" d="M9.69,21.46H4.07a2.93,2.93,0,0,1-2.89-2.95h0V14a2.93,2.93,0,0,1,2.89-3h9c1.59,0,2.88.69,2.88,3C16,19.72,13.09,21.46,9.69,21.46Z"/></g><g id="shape297-23"><path class="cls-3" d="M4.59,22S1.7,20.72,1.7,19.09V14.55a2.92,2.92,0,0,1,2.89-3h7.88Zm21.54,0s-2.89-1.32-2.89-2.95V14.55a2.92,2.92,0,0,1,2.89-3H34Z"/></g><g id="shape298-25"><path class="cls-9" d="M50.86,10.61C46.48,10,42,9.28,42,9.28v3.48l9.12,1.16s-1.89-.24,0,0c2.64.35,3.35,1.15,3.35,3.47v1.16c1.14,0,2.27-1.71,2.27-3.48S55.24,11.25,50.86,10.61Zm-28.71,1H16.49v6.7c1.14-3.22,4.55-3.22,5.66,0Z"/></g><g id="shape299-27"><path class="cls-9" d="M35.1,23.2H29c-5.07,0-8-3.36-8-9.22,0-2.94,1.71-4.7,4.58-4.7H36.23A4.87,4.87,0,0,1,40.82,14C40.82,18.56,39.69,23.2,35.1,23.2ZM25.56,12.76c-1,0-1.18.22-1.18,1.22,0,5.09,2.45,5.74,4.59,5.74H35.1c2.32,0,2.32-5.74,2.32-5.74a1.21,1.21,0,0,0-1.19-1.22ZM9.69,23.2H4.59A4.64,4.64,0,0,1,0,18.51V14a4.64,4.64,0,0,1,4.59-4.7h8.5C16,9.28,17.68,11,17.68,14,17.68,19.84,14.77,23.2,9.69,23.2ZM4.59,12.76A1.21,1.21,0,0,0,3.4,14v4.53a1.2,1.2,0,0,0,1.19,1.21h5.1c2.14,0,4.59-.65,4.59-5.74,0-1-.21-1.22-1.19-1.22Z"/></g><g id="shape300-29"><path class="cls-9" d="M39.69,13.92h1.13c2.27,0,2.27-2.32,2.27-3.48A1.15,1.15,0,0,0,42,9.28H36.28Zm-37.94,0H0V10.44A1.15,1.15,0,0,1,1.13,9.28h4Z"/></g><g id="shape301-31"><path class="cls-10" d="M50.86,10.61C46.48,10,42,9.28,42,9.28H25.56a4.2,4.2,0,0,0-4.08,2.32h-4.3a4.2,4.2,0,0,0-4.09-2.32h-12A1.15,1.15,0,0,0,0,10.44v3.48H0v4.59A4.64,4.64,0,0,0,4.59,23.2h5.1c4.21,0,6.92-2.32,7.73-6.44a2.54,2.54,0,0,1,3.81,0C22,20.88,24.75,23.2,29,23.2H35.1c4.59,0,5.72-4.64,5.72-9.22,0,0,0,0,0-.06h0a1.92,1.92,0,0,0,1.86-1.06l7.6,1,.79.11c2.64.35,3.36,1.15,3.36,3.47v1.16c1.13,0,2.26-1.71,2.26-3.48S55.24,11.25,50.86,10.61ZM9.69,19.72H4.59A1.2,1.2,0,0,1,3.4,18.51h0V14a1.21,1.21,0,0,1,1.19-1.22h8.5c1,0,1.19.22,1.19,1.22C14.28,19.07,11.83,19.72,9.69,19.72Zm25.41,0H29c-2.14,0-4.59-.65-4.59-5.74,0-1,.21-1.22,1.18-1.22H36.23A1.21,1.21,0,0,1,37.42,14S37.42,19.72,35.1,19.72Zm15.73-5.83.24,0Z"/></g><g id="shape302-33"><path class="cls-11" d="M2.26,10.44V11.6H1.13V10.44Zm38.56,0V11.6H39.68V10.44Z"/></g></g></g></svg>