<svg id="Layer_1" data-name="Layer 1" xmlns="http://www.w3.org/2000/svg" xmlns:xlink="http://www.w3.org/1999/xlink" width="56.69" height="51.02" viewBox="0 0 56.69 51.02"><defs><style>.cls-1,.cls-2,.cls-3,.cls-4,.cls-5,.cls-6,.cls-7,.cls-8{fill-rule:evenodd;}.cls-1{fill:url(#linear-gradient);}.cls-2{fill:#fff;}.cls-3{fill:#0078d4;}.cls-4,.cls-6{fill:#83b9f9;}.cls-5,.cls-7{fill:#5ea0ef;}.cls-6,.cls-7{fill-opacity:0.2;}.cls-8{fill:url(#linear-gradient-2);}</style><linearGradient id="linear-gradient" x1="-286.1" y1="418.21" x2="-285.1" y2="418.21" gradientTransform="matrix(0, -36.81, -56.69, 0, 23736.62, -10494.57)" gradientUnits="userSpaceOnUse"><stop offset="0" stop-color="#0078d4"/><stop offset="0.82" stop-color="#5ea0ef"/></linearGradient><linearGradient id="linear-gradient-2" x1="-300.59" y1="413.92" x2="-299.59" y2="413.92" gradientTransform="matrix(0, -14.2, -28.35, 0, 11748.94, -4217.39)" gradientUnits="userSpaceOnUse"><stop offset="0" stop-color="#1490df"/><stop offset="0.98" stop-color="#1f56a3"/></linearGradient></defs><g id="group260-1"><g id="group261-2"><g id="shape262-3"><path class="cls-1" d="M0,35a1.87,1.87,0,0,0,1.89,1.84H54.8A1.87,1.87,0,0,0,56.69,35V1.84A1.87,1.87,0,0,0,54.8,0H1.89A1.87,1.87,0,0,0,0,1.84Z"/></g><g id="shape263-7"><path class="cls-2" d="M3.15,32.73a1,1,0,0,0,1,1H52.5a1,1,0,0,0,1-1V4.07a1,1,0,0,0-1-1H4.19a1,1,0,0,0-1,1Z"/></g><g id="shape264-9"><path class="cls-3" d="M37.8,13v10.7l-9.45,5.4V18.41Z"/></g><g id="shape265-11"><path class="cls-4" d="M37.8,13l-9.45,5.4L18.9,13l9.45-5.37Z"/></g><g id="shape266-13"><path class="cls-5" d="M28.35,18.44v10.7l-9.45-5.4V13Z"/></g><g id="shape267-15"><path class="cls-6" d="M18.9,23.74l9.45-5.33V29.14Z"/></g><g id="shape268-17"><path class="cls-7" d="M37.8,23.74l-9.45-5.33V29.14Z"/></g><g id="shape269-19"><path class="cls-8" d="M25.51,48c-5.57-.86-5.79-4.82-5.79-11.14H8.6C8.6,43.14,8.38,47.1,2.8,48A3.09,3.09,0,0,0,0,51H28.35A3.1,3.1,0,0,0,25.51,48Z"/></g></g></g></svg>