<svg id="Layer_1" data-name="Layer 1" xmlns="http://www.w3.org/2000/svg" xmlns:xlink="http://www.w3.org/1999/xlink" width="56.7" height="34.02" viewBox="0 0 56.7 34.02"><defs><style>.cls-1,.cls-2,.cls-3{fill-rule:evenodd;}.cls-1{fill:url(#linear-gradient);}.cls-2{fill:#50e6ff;}.cls-3{fill:#1490df;}</style><linearGradient id="linear-gradient" x1="-323.98" y1="405.57" x2="-322.98" y2="405.57" gradientTransform="matrix(0, -7.32, -30.63, 0, 12449.15, -2351.25)" gradientUnits="userSpaceOnUse"><stop offset="0" stop-color="#5e9624"/><stop offset="0.24" stop-color="#6fb02a"/><stop offset="0.5" stop-color="#7cc52f"/><stop offset="0.76" stop-color="#83d232"/><stop offset="1" stop-color="#86d633"/></linearGradient></defs><g id="group71-1"><g id="group72-2"><g id="shape73-3"><path class="cls-1" d="M43.78,17a3.65,3.65,0,1,1-3.67-3.64h0A3.66,3.66,0,0,1,43.78,17ZM28.45,13.35A3.66,3.66,0,1,0,32.1,17h0a3.66,3.66,0,0,0-3.65-3.65Zm-11.65,0A3.66,3.66,0,1,0,20.45,17a3.65,3.65,0,0,0-3.65-3.67Z"/></g><g id="shape74-7"><path class="cls-2" d="M19.45,31.64l-2.09,2.1a.94.94,0,0,1-1.33,0L.55,18.28a1.9,1.9,0,0,1,0-2.67L2.64,13.5,19.45,30.3a1,1,0,0,1,0,1.34h0Z"/></g><g id="shape75-9"><path class="cls-3" d="M17.06,14l2.11,2.11a1,1,0,0,1,0,1.34h0L2.65,34l-2.1-2.1a1.9,1.9,0,0,1,0-2.67h0L15.74,14a1,1,0,0,1,1.34,0h0Z"/></g><g id="shape76-11"><path class="cls-2" d="M54,13.5l2.09,2.1a1.9,1.9,0,0,1,0,2.68h0L40.64,33.74a1,1,0,0,1-1.34,0l-2.08-2.1a1,1,0,0,1,0-1.34Z"/></g><g id="shape77-13"><path class="cls-3" d="M56.13,18.24,54,20.34,37.52,3.73a1,1,0,0,1,0-1.34L39.63.28A1,1,0,0,1,41,.28L56.15,15.54a1.9,1.9,0,0,1,0,2.68h0Z"/></g></g></g></svg>