<svg id="Layer_1" data-name="Layer 1" xmlns="http://www.w3.org/2000/svg" xmlns:xlink="http://www.w3.org/1999/xlink" width="56.69" height="51.02" viewBox="0 0 56.69 51.02"><defs><style>.cls-1,.cls-10,.cls-2,.cls-3,.cls-4,.cls-5,.cls-6,.cls-7,.cls-8,.cls-9{fill-rule:evenodd;}.cls-1{fill:url(#linear-gradient);}.cls-2{fill:url(#linear-gradient-2);}.cls-11,.cls-3{fill:#fff;}.cls-3{fill-opacity:0.32;}.cls-4{fill:#fbfbf9;}.cls-10,.cls-4,.cls-5,.cls-6,.cls-7,.cls-8,.cls-9{fill-opacity:0.8;}.cls-5{fill:#ff8c00;}.cls-6{fill:#1e1e1e;}.cls-7{fill:#dda516;}.cls-8{fill:#8c5f07;}.cls-9{fill:#e3a906;}.cls-10{fill:#fcd116;}.cls-11{fill-opacity:0.9;}</style><linearGradient id="linear-gradient" x1="-286.1" y1="418.21" x2="-285.1" y2="418.21" gradientTransform="matrix(0, -36.81, -56.69, 0, 23736.62, -10494.57)" gradientUnits="userSpaceOnUse"><stop offset="0" stop-color="#804998"/><stop offset="0.82" stop-color="#b482c8"/></linearGradient><linearGradient id="linear-gradient-2" x1="-300.59" y1="413.92" x2="-299.59" y2="413.92" gradientTransform="matrix(0, -14.2, -28.35, 0, 11748.94, -4217.39)" gradientUnits="userSpaceOnUse"><stop offset="0.15" stop-color="#ccc"/><stop offset="1" stop-color="#707070"/></linearGradient></defs><g id="group163-1"><g id="group164-2"><g id="shape165-3"><path class="cls-1" d="M0,35a1.87,1.87,0,0,0,1.89,1.84H54.8A1.87,1.87,0,0,0,56.69,35V1.84A1.87,1.87,0,0,0,54.8,0H1.89A1.87,1.87,0,0,0,0,1.84Z"/></g><g id="shape166-7"><path class="cls-2" d="M25.54,48c-5.6-.86-5.82-4.79-5.82-11.14H8.6C8.6,43.17,8.41,47.1,2.8,48A3.09,3.09,0,0,0,0,51H28.35A3.09,3.09,0,0,0,25.54,48Z"/></g><g id="group167-11"><g id="shape168-12"><path class="cls-3" d="M29.91,12l-.49.29L29,11.55a.82.82,0,0,1-.07-.78.55.55,0,0,1,.53-.35h.05a.86.86,0,0,1,.63.54c.08.25.08.86-.23,1Z"/></g><g id="shape169-14"><path class="cls-4" d="M25.18,26.35s-2.4-3.79-2.26-4.44c1.13-5.24,2.48-6,3-7.12s.21-2.13.8-2.14a15.31,15.31,0,0,1,2.74.25,2.25,2.25,0,0,1,1.35,1.45,8,8,0,0,1,1,2.6.44.44,0,0,0,.11.24,5.39,5.39,0,0,1,1.27,4.21,7.36,7.36,0,0,1-.13,1.16c-.05.21-1.56,5-4,4.92a6.94,6.94,0,0,1-3.93-1.13Z"/></g><g id="shape170-16"><path class="cls-5" d="M38,25.23c-.88,0-1.34-.55-1.34-1s.24-1.29-.61-1.36-2.58-.16-3-.24c-1-.19-1.07.22-1.08.5a10.38,10.38,0,0,1,0,2,3.07,3.07,0,0,1,0,.68c-.1.61-.17,1.23-.25,1.84,0,.3,0,.6,0,.89a2,2,0,0,0,3.06.19,10.23,10.23,0,0,1,2.91-1.9A1.4,1.4,0,0,0,38.3,26C38.46,25.61,38.31,25.25,38,25.23Z"/></g><g id="shape171-18"><path class="cls-6" d="M26.4,24.73c-.12.57-.75,1.07-1.08,1a5.22,5.22,0,0,1-.88-1c-.36-.53-1.94-2.73-2.4-2.57a.46.46,0,0,0-.31.23l-.09,0a1.51,1.51,0,0,1,0-1.46,13.23,13.23,0,0,0,1.15-3.25,2.76,2.76,0,0,1,.59-1c.47-.57.46-1.15.93-1.72a1.83,1.83,0,0,0,.55-1.23,34.89,34.89,0,0,1-.2-4A3.54,3.54,0,0,1,27.24,7a3.57,3.57,0,0,1,3.74.7,3.91,3.91,0,0,1,1.3,2.84c0,.2,0,.41,0,.61a7.21,7.21,0,0,0,2.16,5.27,8,8,0,0,1,1.93,5.06A2.83,2.83,0,0,1,36,22.83,2.29,2.29,0,0,1,35,24c-.38.16-1.85.27-1.56-.67.14-.46.16-.66-.43-.77,0-.39.11-.78.13-1.17a4.39,4.39,0,0,0-1.4-3.86c-.37-.34,0-.4,0-.7a6.08,6.08,0,0,0-1-2.48A1,1,0,0,0,30.5,14a.44.44,0,0,0-.11-.33,1.65,1.65,0,0,0,.13-.79c0-.24-2.53-.35-2.84-.22a11.79,11.79,0,0,0-1.48-.08,1,1,0,0,0-.37.52c0,.2.28.61.31.68,0,.28,0,.56-.05.84,0,.1-.05.2-.08.3-.22.32-.44.64-.64,1a2,2,0,0,0-.43.95c-.15.37.38.86-.1,1.29a7.2,7.2,0,0,0-1,3c0,.52,1,1.73,1.36,2.07.69.64,1.31.88,1.17,1.56Z"/></g><g id="shape172-20"><path class="cls-6" d="M25.92,26.7c1,.29,3.89.37,5.29-1l.7-.63a3.11,3.11,0,0,1,0,.68c-.1.61-.17,1.23-.25,1.84,0,.3,0,.6,0,.89a16.61,16.61,0,0,0-3.79-.43,11.43,11.43,0,0,0-1.82.28Z"/></g><g id="shape173-22"><path class="cls-7" d="M36.73,24.34l-.06-.09Z"/></g><g id="shape174-24"><path class="cls-7" d="M36.36,23.05,36.28,23Z"/></g><g id="shape175-26"><path class="cls-8" d="M25.34,25.87l0,.06Z"/></g><g id="shape176-28"><path class="cls-9" d="M36.28,23Z"/></g><g id="shape177-30"><path class="cls-5" d="M24.92,25.27a10.4,10.4,0,0,1-1.84-2.69c-.28-.54-1.12-1-1.44-.12A1.39,1.39,0,0,1,20,23.54a.8.8,0,0,0-.91,1.11c.27.79.57,1.42,0,2s-.35,1.14.48,1.25a16.63,16.63,0,0,1,4.3,1.24,1.84,1.84,0,0,0,2.4-.94c.34-.9-.6-2.15-1.34-2.9Z"/></g><g id="shape178-32"><path class="cls-6" d="M27.75,16.43c-.72,0-1.19-.65-1.53-1.23,0,0-1.1-1.5-.7-2.33.06-.12.15-.31,1.28-1L27,11.7l.2-.1.13,0a2.18,2.18,0,0,1,.51-.09h.07l.15,0,.34.11,2.75,1,.08.4a1.72,1.72,0,0,1-.09.84l-.11.39-.23.09A3,3,0,0,0,30,15a4.15,4.15,0,0,1-.75.68l-.28.21a2.21,2.21,0,0,1-1.23.55Z"/></g><g id="shape179-34"><path class="cls-5" d="M29.58,13.15a2.85,2.85,0,0,1-1.74.78h0a.43.43,0,0,0-.14-.41.33.33,0,0,1-.09-.35,6.5,6.5,0,0,0,.07-1.46,1.19,1.19,0,0,0-.47.07l-.18.09-.2.17a5.55,5.55,0,0,0-1.12.8c-.25.51.56,1.77.68,1.91.95,1.62,1.48.92,2.37.31.48-.3,1.1-1.22,1.64-1.41a2,2,0,0,0,.13-.8,1.46,1.46,0,0,0-1,.3Z"/></g><g id="shape180-36"><path class="cls-9" d="M27.29,11.71h0Z"/></g><g id="shape181-38"><path class="cls-10" d="M30.14,12.49c.2.1.39.21.39.48a1.55,1.55,0,0,0-1,.32,3.76,3.76,0,0,1-2,1.13c0-.24-.33-.59-.23-1a9.89,9.89,0,0,0,.16-1.71,1.5,1.5,0,0,1,1,.09l.4.24.71.26a1.94,1.94,0,0,0,.62.19Z"/></g></g><g id="shape182-40"><rect class="cls-11" x="26.39" y="10.82" width="0.95" height="0.92"/></g><g id="shape183-42"><rect class="cls-11" x="29.24" y="10.82" width="0.95" height="0.92"/></g></g></g></svg>