<svg id="Layer_1" data-name="Layer 1" xmlns="http://www.w3.org/2000/svg" xmlns:xlink="http://www.w3.org/1999/xlink" width="56.69" height="42.51" viewBox="0 0 56.69 42.51"><defs><style>.cls-1,.cls-2,.cls-3{fill-rule:evenodd;}.cls-1{fill:url(#linear-gradient);}.cls-2{fill:#50e6ff;}.cls-3{fill:#1490df;}</style><linearGradient id="linear-gradient" x1="-314.19" y1="390.15" x2="-313.19" y2="390.15" gradientTransform="matrix(0, -9.14, -8.88, 0, 3494.21, -2846.18)" gradientUnits="userSpaceOnUse"><stop offset="0" stop-color="#5e9624"/><stop offset="0.24" stop-color="#6fb02a"/><stop offset="0.5" stop-color="#7cc52f"/><stop offset="0.76" stop-color="#83d232"/><stop offset="1" stop-color="#86d633"/></linearGradient></defs><g id="group64-1"><g id="group65-2"><g id="shape66-3"><path class="cls-1" d="M28.15,16.81A4.58,4.58,0,0,0,25,24.61a4.42,4.42,0,0,0,7.57-3.24A4.5,4.5,0,0,0,28.15,16.81Z"/></g><g id="shape67-7"><path class="cls-2" d="M23.67,39.55l-2.55,2.62a1.12,1.12,0,0,1-1.62,0L.67,22.88a2.42,2.42,0,0,1,0-3.34l2.55-2.63,20.44,21a1.2,1.2,0,0,1,0,1.67Z"/></g><g id="shape68-9"><path class="cls-3" d="M20.76.42l2.57,2.63a1.2,1.2,0,0,1,0,1.67L3.23,25.45.67,22.83a2.42,2.42,0,0,1,0-3.34L19.15.44a1.12,1.12,0,0,1,1.62,0Z"/></g><g id="shape69-11"><path class="cls-2" d="M53.45,16.85,56,19.47a2.4,2.4,0,0,1,0,3.34h0L37.17,42.11a1.14,1.14,0,0,1-1.63,0h0L33,39.49a1.2,1.2,0,0,1,0-1.67Z"/></g><g id="shape70-13"><path class="cls-3" d="M56,22.76l-2.54,2.62L33.36,4.65a1.22,1.22,0,0,1,0-1.67L35.92.35a1.14,1.14,0,0,1,1.63,0h0L56,19.4a2.4,2.4,0,0,1,0,3.34Z"/></g></g></g></svg>