<svg id="Layer_1" data-name="Layer 1" xmlns="http://www.w3.org/2000/svg" width="56.51" height="56.55" viewBox="0 0 56.51 56.55"><defs><style>.cls-1{fill:#3999c6;}.cls-1,.cls-2,.cls-4,.cls-5{fill-rule:evenodd;}.cls-2,.cls-3{fill:#57a300;}.cls-4{fill:#b8d432;fill-opacity:0.4;}.cls-5{fill:#fff;}</style></defs><g id="group92-1"><g id="group93-2"><g id="shape94-3"><path class="cls-1" d="M56.13,17.05a1.56,1.56,0,0,0,0-2l-2.7-2.71L41.28.42a1.3,1.3,0,0,0-1.91,0,1.36,1.36,0,0,0,0,2L52.08,15a1.43,1.43,0,0,1,0,2l-12.93,13a1.44,1.44,0,0,0,0,2,1.38,1.38,0,0,0,1.91,0l12-12,.11-.11Zm-55.57,0a1.56,1.56,0,0,1,0-2l2.7-2.71L15.41.42a1.3,1.3,0,0,1,1.91,0,1.35,1.35,0,0,1,0,2L4.84,15a1.45,1.45,0,0,0,0,2h0l12.71,13a1.44,1.44,0,0,1,0,2,1.39,1.39,0,0,1-1.92,0L3.37,20.22l-.11-.12Z"/></g><g id="shape95-5"><path class="cls-2" d="M20.75,15.84A3.76,3.76,0,0,1,17,19.57a4.13,4.13,0,0,1-3.94-3.73A3.81,3.81,0,0,1,17,12.1,3.68,3.68,0,0,1,20.75,15.84Zm11.36,0a3.76,3.76,0,0,1-3.71,3.73,4.13,4.13,0,0,1-3.94-3.73A4,4,0,0,1,28.4,12.1,3.75,3.75,0,0,1,32.11,15.84Z"/></g><g id="shape96-7"><ellipse class="cls-3" cx="39.88" cy="15.83" rx="3.71" ry="3.73"/></g><g id="shape97-9"><path class="cls-2" d="M21.09,26.65c-7.45-.82-8.7-4-8.7-4S10.72,26.84,0,26.84V44.23A8.79,8.79,0,0,0,2.77,50c3.66,3.9,9.62,6.53,9.62,6.53s12.4-5.45,12.4-12.32V26.84A33.88,33.88,0,0,1,21.09,26.65Z"/></g><g id="shape98-11"><path class="cls-4" d="M42.53,33.89l5.58-7.11c-7.38-.82-8.61-4-8.61-4S37.84,27,27.22,27V44.19A8.71,8.71,0,0,0,30,49.93l4.12-5.26Z"/></g><g id="shape99-13"><path class="cls-5" d="M44.68,38.47h-.56V36.19a4.51,4.51,0,0,0-9,0v2.28h-.57a.56.56,0,0,0-.56.58v6.76a.57.57,0,0,0,.56.58H44.68a.56.56,0,0,0,.56-.58V39.05a.58.58,0,0,0-.57-.58Zm-5.07-4.54a2.26,2.26,0,0,1,2.26,2.26v2.28H37.36V36.19A2.26,2.26,0,0,1,39.61,33.93Z"/></g></g></g></svg>