<svg id="Layer_1" data-name="Layer 1" xmlns="http://www.w3.org/2000/svg" xmlns:xlink="http://www.w3.org/1999/xlink" width="56.69" height="56.69" viewBox="0 0 56.69 56.69"><defs><style>.cls-1{fill:#0078d4;}.cls-1,.cls-2,.cls-3,.cls-4,.cls-5,.cls-6{fill-rule:evenodd;}.cls-2{fill:#50e6ff;}.cls-3{fill:#c3f1ff;}.cls-4{fill:#9cebff;}.cls-5{fill:url(#linear-gradient);}.cls-6{fill:url(#linear-gradient-2);}</style><linearGradient id="linear-gradient" x1="-293.97" y1="416.21" x2="-292.97" y2="416.21" gradientTransform="matrix(0, -19.62, -29.32, 0, 12234.91, -5726.22)" gradientUnits="userSpaceOnUse"><stop offset="0" stop-color="#0078d4"/><stop offset="0.82" stop-color="#5ea0ef"/></linearGradient><linearGradient id="linear-gradient-2" x1="-320.99" y1="407.94" x2="-319.99" y2="407.94" gradientTransform="matrix(0, -7.57, -14.67, 0, 6017.18, -2381.63)" gradientUnits="userSpaceOnUse"><stop offset="0.15" stop-color="#ccc"/><stop offset="1" stop-color="#707070"/></linearGradient></defs><g id="group245-1"><g id="group246-2"><g id="shape247-3"><path class="cls-1" d="M5.4,0H12V1.9H5.4ZM53.79,1.9h1.07v1h1.83V0h-2.9ZM3,54.66H2.1V53.59H0v3.1H3Zm51.83-1v1H53.79v2h2.9v-3ZM2.1,2.87v-1H3V0H0V2.87Z"/></g><g id="shape248-5"><path class="cls-1" d="M9.57,28.82a1,1,0,0,0,1,1H37.92a1,1,0,0,0,1-1V11.14a1,1,0,0,0-1-1H10.54a1,1,0,0,0-1,1Z"/></g><g id="shape249-7"><path class="cls-2" d="M29.11,17.14v5.7l-4.87,2.87V20Z"/></g><g id="shape250-9"><path class="cls-3" d="M29.11,17.14,24.24,20l-4.9-2.87,4.9-2.86Z"/></g><g id="shape251-11"><path class="cls-4" d="M24.24,20v5.7l-4.9-2.87v-5.7Z"/></g><g id="shape252-13"><path class="cls-5" d="M18,39.76a1,1,0,0,0,1,1H46.39a1,1,0,0,0,1-1V22.08a1,1,0,0,0-1-1H19a1,1,0,0,0-1,1Z"/></g><g id="shape253-17"><path class="cls-2" d="M37.59,28.05v5.7l-4.87,2.87v-5.7Z"/></g><g id="shape254-19"><path class="cls-3" d="M37.58,28l-4.87,2.87L27.81,28l4.9-2.86Z"/></g><g id="shape255-21"><path class="cls-4" d="M32.71,30.92v5.7l-4.9-2.87v-5.7Z"/></g><g id="shape256-23"><path class="cls-3" d="M27.81,33.75l4.9-2.83v5.7Z"/></g><g id="shape257-25"><path class="cls-4" d="M37.59,33.75l-4.87-2.83v5.7Z"/></g><g id="shape258-27"><path class="cls-6" d="M38.59,46.63c-2.91-.47-3-2.57-3-5.94H29.82c0,3.34,0,5.47-3,5.94a1.69,1.69,0,0,0-1.43,1.63H40.05A1.69,1.69,0,0,0,38.59,46.63Z"/></g><g id="shape259-31"><path class="cls-1" d="M15.24,0h6.57V1.9H15.24ZM25,0h6.57V1.9H25Zm9.84,0h6.57V1.9H34.88Zm9.84,0h6.57V1.9H44.72ZM5.47,54.66H12v1.9H5.47Zm9.8,0h6.57v1.9H15.27Zm9.84,0h6.57v1.9H25.11Zm9.84,0h6.57v1.9H35Zm9.8,0h6.57v1.9H44.75Zm10-49.49h1.9v6.57h-1.9Zm0,9.81h1.9v6.57h-1.9Zm0,9.83h1.9v6.57h-1.9Zm0,9.81h1.9v6.57h-1.9Zm0,9.84h1.9V51h-1.9ZM0,5.11H1.9v6.57H0Zm0,9.83H1.9v6.57H0Zm0,9.81H1.9v6.57H0Zm0,9.84H1.9v6.57H0Zm0,9.8H1.9V51H0Z"/></g></g></g></svg>