<svg id="Layer_1" data-name="Layer 1" xmlns="http://www.w3.org/2000/svg" xmlns:xlink="http://www.w3.org/1999/xlink" width="56.69" height="51.02" viewBox="0 0 56.69 51.02"><defs><style>.cls-1,.cls-2,.cls-3,.cls-4{fill-rule:evenodd;}.cls-1{fill:url(#linear-gradient);}.cls-2{fill:url(#linear-gradient-2);}.cls-3{fill:#804998;fill-opacity:0.2;}.cls-4{fill:#fff;fill-opacity:0.8;}</style><linearGradient id="linear-gradient" x1="-286.1" y1="418.21" x2="-285.1" y2="418.21" gradientTransform="matrix(0, -36.81, -56.69, 0, 23736.62, -10494.57)" gradientUnits="userSpaceOnUse"><stop offset="0" stop-color="#0078d4"/><stop offset="0.82" stop-color="#5ea0ef"/></linearGradient><linearGradient id="linear-gradient-2" x1="-300.59" y1="413.92" x2="-299.59" y2="413.92" gradientTransform="matrix(0, -14.2, -28.35, 0, 11748.94, -4217.39)" gradientUnits="userSpaceOnUse"><stop offset="0.15" stop-color="#ccc"/><stop offset="1" stop-color="#707070"/></linearGradient></defs><g id="group114-1"><g id="group115-2"><g id="shape116-3"><path class="cls-1" d="M0,35a1.87,1.87,0,0,0,1.89,1.84H54.8A1.87,1.87,0,0,0,56.69,35V1.84A1.87,1.87,0,0,0,54.8,0H1.89A1.87,1.87,0,0,0,0,1.84Z"/></g><g id="shape117-7"><path class="cls-2" d="M25.54,48c-5.6-.86-5.82-4.79-5.82-11.14H8.6C8.6,43.17,8.41,47.1,2.8,48A3.09,3.09,0,0,0,0,51H28.35A3.09,3.09,0,0,0,25.54,48Z"/></g><g id="shape118-11"><path class="cls-3" d="M40.79,30.48l-25.52-2a1.16,1.16,0,0,1-1.07-1.14V8.26a1.16,1.16,0,0,1,1.07-1.13l25.53-2a1.17,1.17,0,0,1,1.25,1.13V29.35a1.1,1.1,0,0,1-.34.8,1.14,1.14,0,0,1-.82.33Z"/></g><g id="shape119-13"><path class="cls-4" d="M28.13,16.91H40.89V6.26l-12.76,1Z"/></g><g id="shape120-15"><path class="cls-4" d="M15.37,16.91H26.31V7.4l-10.94.86Z"/></g><g id="shape121-17"><path class="cls-4" d="M28.13,18.69H40.89V29.34l-12.76-1Z"/></g><g id="shape122-19"><path class="cls-4" d="M15.37,18.69H26.31V28.2l-10.94-.85Z"/></g></g></g></svg>