<svg id="Layer_1" data-name="Layer 1" xmlns="http://www.w3.org/2000/svg" xmlns:xlink="http://www.w3.org/1999/xlink" width="56.69" height="56.69" viewBox="0 0 56.69 56.69"><defs><style>.cls-1,.cls-2,.cls-3,.cls-4,.cls-5{fill-rule:evenodd;}.cls-1{fill:url(#linear-gradient);}.cls-2{fill:#773adc;}.cls-3{fill:#50e6ff;}.cls-4{fill:#c3f1ff;}.cls-5{fill:#9cebff;}</style><linearGradient id="linear-gradient" x1="-282.87" y1="419.02" x2="-281.87" y2="419.02" gradientTransform="matrix(0, -56.69, -44.37, 0, 18614.25, -15979.45)" gradientUnits="userSpaceOnUse"><stop offset="0" stop-color="#32bedd"/><stop offset="0.36" stop-color="#34c1e0"/><stop offset="0.63" stop-color="#3ccbe8"/><stop offset="0.88" stop-color="#48dbf6"/><stop offset="1" stop-color="#50e6ff"/></linearGradient></defs><g id="group225-1"><g id="group226-2"><g id="shape227-3"><path class="cls-1" d="M0,54.81a1.86,1.86,0,0,0,1.84,1.88H42.52a1.86,1.86,0,0,0,1.85-1.87h0V1.88A1.86,1.86,0,0,0,42.53,0H1.84A1.86,1.86,0,0,0,0,1.88Z"/></g><g id="shape228-7"><path class="cls-2" d="M56.56,39.7l-9.44-9.64a.49.49,0,0,0-.82.33V36C35,36,23.61,42.22,23.61,53.37c1.61-2.48,9.87-9.1,22.69-9.1v5.41a.5.5,0,0,0,.53.46.51.51,0,0,0,.3-.13l9.43-9.63a.52.52,0,0,0,0-.68Z"/></g><g id="shape229-9"><path class="cls-3" d="M35.12,16.93V32.31L22.2,40V24.62Z"/></g><g id="shape230-11"><path class="cls-4" d="M35.12,16.93,22.2,24.65l-13-7.72,13-7.73Z"/></g><g id="shape231-13"><path class="cls-5" d="M22.2,24.65V40l-13-7.72V16.93Z"/></g><g id="shape232-15"><path class="cls-4" d="M9.24,32.31l13-7.69V40Z"/></g><g id="shape233-17"><path class="cls-5" d="M35.12,32.31,22.2,24.62V40Z"/></g></g></g></svg>