<svg id="Layer_1" data-name="Layer 1" xmlns="http://www.w3.org/2000/svg" xmlns:xlink="http://www.w3.org/1999/xlink" width="56.69" height="51.02" viewBox="0 0 56.69 51.02"><defs><style>.cls-1,.cls-10,.cls-2,.cls-3,.cls-4,.cls-5,.cls-6,.cls-7,.cls-8,.cls-9{fill-rule:evenodd;}.cls-1{fill:url(#linear-gradient);}.cls-2{fill:url(#linear-gradient-2);}.cls-11,.cls-3{fill:#fff;}.cls-3{fill-opacity:0.32;}.cls-4{fill:#fbfbf9;}.cls-10,.cls-4,.cls-5,.cls-6,.cls-7,.cls-8,.cls-9{fill-opacity:0.8;}.cls-5{fill:#ff8c00;}.cls-6{fill:#1e1e1e;}.cls-7{fill:#dda516;}.cls-8{fill:#8c5f07;}.cls-9{fill:#e3a906;}.cls-10{fill:#fcd116;}.cls-11{fill-opacity:0.9;}</style><linearGradient id="linear-gradient" x1="-286.1" y1="418.21" x2="-285.1" y2="418.21" gradientTransform="matrix(0, -36.81, -56.69, 0, 23736.62, -10494.57)" gradientUnits="userSpaceOnUse"><stop offset="0" stop-color="#0078d4"/><stop offset="0.82" stop-color="#5ea0ef"/></linearGradient><linearGradient id="linear-gradient-2" x1="-300.59" y1="413.92" x2="-299.59" y2="413.92" gradientTransform="matrix(0, -14.2, -28.35, 0, 11748.94, -4217.39)" gradientUnits="userSpaceOnUse"><stop offset="0.15" stop-color="#ccc"/><stop offset="1" stop-color="#707070"/></linearGradient></defs><g id="group184-1"><g id="group185-2"><g id="shape186-3"><path class="cls-1" d="M0,35a1.87,1.87,0,0,0,1.89,1.84H54.8A1.87,1.87,0,0,0,56.69,35V1.84A1.87,1.87,0,0,0,54.8,0H1.89A1.87,1.87,0,0,0,0,1.84Z"/></g><g id="shape187-7"><path class="cls-2" d="M25.54,48c-5.6-.86-5.82-4.79-5.82-11.14H8.6C8.6,43.17,8.41,47.1,2.8,48A3.09,3.09,0,0,0,0,51H28.35A3.09,3.09,0,0,0,25.54,48Z"/></g><g id="group188-11"><g id="shape189-12"><path class="cls-3" d="M29.48,11.79l-.51.3-.44-.78a.87.87,0,0,1-.08-.82.58.58,0,0,1,.56-.36h.06a.9.9,0,0,1,.65.56C29.81,11,29.81,11.59,29.48,11.79Z"/></g><g id="shape190-14"><path class="cls-4" d="M24.54,26.81s-2.52-4-2.37-4.65c1.18-5.49,2.59-6.29,3.11-7.45s.22-2.23.84-2.24a16.9,16.9,0,0,1,2.87.26,2.39,2.39,0,0,1,1.41,1.52A8.47,8.47,0,0,1,31.48,17a.41.41,0,0,0,.11.24,5.64,5.64,0,0,1,1.33,4.41,9.7,9.7,0,0,1-.13,1.22c-.06.21-1.64,5.2-4.14,5.14A7.14,7.14,0,0,1,24.54,26.81Z"/></g><g id="shape191-16"><path class="cls-5" d="M38,25.65c-.92,0-1.4-.58-1.4-1.09s.25-1.35-.64-1.43-2.71-.17-3.19-.25c-1.07-.19-1.12.23-1.14.53a11.15,11.15,0,0,1,0,2.09,3.4,3.4,0,0,1-.05.71c-.1.64-.18,1.28-.26,1.93,0,.31,0,.62,0,.93a2,2,0,0,0,3.21.19,10.63,10.63,0,0,1,3-2,1.43,1.43,0,0,0,.77-.81C38.43,26,38.27,25.66,38,25.65Z"/></g><g id="shape192-18"><path class="cls-6" d="M25.81,25.11c-.13.59-.79,1.12-1.14,1.08a6.13,6.13,0,0,1-.92-1.05c-.37-.55-2-2.86-2.51-2.69a.49.49,0,0,0-.33.25l-.09,0a1.57,1.57,0,0,1,.05-1.53,13.74,13.74,0,0,0,1.2-3.4,2.72,2.72,0,0,1,.62-1.06c.48-.61.47-1.21,1-1.81a1.89,1.89,0,0,0,.57-1.29A40.84,40.84,0,0,1,24,9.5a3.73,3.73,0,0,1,2.66-3,3.74,3.74,0,0,1,3.92.74,4.07,4.07,0,0,1,1.36,3c0,.21,0,.43,0,.64a7.58,7.58,0,0,0,2.26,5.52,8.39,8.39,0,0,1,2,5.3,3,3,0,0,1-.36,1.45,2.36,2.36,0,0,1-1.11,1.25c-.4.18-1.94.29-1.64-.69.15-.49.17-.69-.44-.82,0-.4.11-.81.13-1.22a4.57,4.57,0,0,0-1.46-4c-.39-.36,0-.41,0-.73a6.36,6.36,0,0,0-1-2.6,1.06,1.06,0,0,0-.23-.43c0-.13-.05-.23-.1-.34a1.81,1.81,0,0,0,.13-.83c0-.25-2.65-.36-3-.23a11,11,0,0,0-1.55-.08,1,1,0,0,0-.38.54c-.06.21.29.64.32.71,0,.3,0,.59,0,.89l-.09.31c-.23.34-.46.67-.68,1a2.19,2.19,0,0,0-.45,1c-.15.38.4.9-.1,1.35a7.52,7.52,0,0,0-1,3.14c0,.55,1,1.81,1.42,2.17C25.3,24.15,26,24.4,25.81,25.11Z"/></g><g id="shape193-20"><path class="cls-6" d="M25.31,27.18c1.07.29,4.08.38,5.54-1l.73-.66a3.35,3.35,0,0,1,0,.71c-.1.64-.18,1.29-.27,1.93,0,.31,0,.62,0,.93a16.71,16.71,0,0,0-4-.45,10.5,10.5,0,0,0-1.9.3Z"/></g><g id="shape194-22"><path class="cls-7" d="M36.63,24.71l-.07-.09Z"/></g><g id="shape195-24"><path class="cls-7" d="M36.24,23.35l-.09-.08Z"/></g><g id="shape196-26"><path class="cls-8" d="M24.69,26.31l0,.06Z"/></g><g id="shape197-28"><path class="cls-9" d="M36.15,23.27Z"/></g><g id="shape198-30"><path class="cls-5" d="M24.26,25.68a11.25,11.25,0,0,1-1.93-2.82c-.29-.56-1.17-1-1.5-.12a1.47,1.47,0,0,1-1.71,1.13.85.85,0,0,0-1,1.16c.29.83.61,1.48,0,2.07s-.37,1.18.5,1.3a17.23,17.23,0,0,1,4.5,1.3,1.94,1.94,0,0,0,2.52-1C26,27.77,25,26.47,24.26,25.68Z"/></g><g id="shape199-32"><path class="cls-6" d="M27.21,16.43c-.75,0-1.24-.68-1.6-1.28,0,0-1.15-1.58-.73-2.45.06-.12.16-.32,1.34-1l.22-.18.21-.1.14-.05a1.56,1.56,0,0,1,.52-.11h.09l.15,0,.35.12,2.88,1,.08.42a1.76,1.76,0,0,1-.09.88l-.11.41-.25.09a3.45,3.45,0,0,0-.83.71,4.3,4.3,0,0,1-.79.72l-.29.21A2.26,2.26,0,0,1,27.21,16.43Z"/></g><g id="shape200-34"><path class="cls-5" d="M29.13,13a3,3,0,0,1-1.82.82h0a.46.46,0,0,0-.14-.43.35.35,0,0,1-.1-.37,6.55,6.55,0,0,0,.07-1.53c-.13-.05-.44.07-.48.08l-.19.09-.22.17a6,6,0,0,0-1.17.85c-.26.53.59,1.84.71,2,1,1.69,1.55,1,2.48.32.5-.31,1.15-1.28,1.72-1.48a1.81,1.81,0,0,0,.13-.83A1.49,1.49,0,0,0,29.13,13Z"/></g><g id="shape201-36"><path class="cls-9" d="M26.73,11.48h0Z"/></g><g id="shape202-38"><path class="cls-10" d="M29.72,12.3c.21.1.41.22.41.5a1.64,1.64,0,0,0-1.09.34,3.92,3.92,0,0,1-2.11,1.18c0-.25-.34-.61-.24-1.05a10.86,10.86,0,0,0,.18-1.79,1.52,1.52,0,0,1,1,.09l.43.25.74.28A1.89,1.89,0,0,0,29.72,12.3Z"/></g></g><g id="shape203-40"><rect class="cls-11" x="25.8" y="10.55" width="0.99" height="0.97"/></g><g id="shape204-42"><rect class="cls-11" x="28.78" y="10.55" width="0.99" height="0.97"/></g></g></g></svg>