<svg id="Layer_1" data-name="Layer 1" xmlns="http://www.w3.org/2000/svg" xmlns:xlink="http://www.w3.org/1999/xlink" width="56.69" height="53.87" viewBox="0 0 56.69 53.87"><defs><style>.cls-1{fill:#949494;}.cls-1,.cls-2,.cls-4,.cls-5{fill-rule:evenodd;}.cls-2{fill:#003067;}.cls-3{fill:#50e6ff;}.cls-4{fill:url(#linear-gradient);}.cls-5{fill:url(#linear-gradient-2);}</style><linearGradient id="linear-gradient" x1="-267.04" y1="433.51" x2="-266.04" y2="433.51" gradientTransform="matrix(0, 33.52, 24.28, 0, -10509.31, 8971.93)" gradientUnits="userSpaceOnUse"><stop offset="0" stop-color="#b3b2b3"/><stop offset="0.38" stop-color="#afaeaf"/><stop offset="0.76" stop-color="#a2a2a2"/><stop offset="1" stop-color="#979797"/></linearGradient><linearGradient id="linear-gradient-2" x1="-288.61" y1="417.59" x2="-287.61" y2="417.59" gradientTransform="matrix(0, -28.76, -41.15, 0, 17220.03, -8251.03)" gradientUnits="userSpaceOnUse"><stop offset="0" stop-color="#0078d4"/><stop offset="0.16" stop-color="#1380da"/><stop offset="0.53" stop-color="#3c91e5"/><stop offset="0.82" stop-color="#559cec"/><stop offset="1" stop-color="#5ea0ef"/></linearGradient></defs><g id="group270-1"><g id="group271-2"><g id="shape272-3"><path class="cls-1" d="M24.24,52.74a1.29,1.29,0,0,1-1.4,1.12H1.4A1.29,1.29,0,0,1,0,52.74V21.57a1.3,1.3,0,0,1,1.4-1.12H22.84a1.3,1.3,0,0,1,1.4,1.12Z"/></g><g id="shape273-5"><path class="cls-2" d="M3.57,14.44a2.61,2.61,0,0,1,2.63-2.6H18.34A2.62,2.62,0,0,1,21,14.43h0a2.62,2.62,0,0,1-2.6,2.63H6.2a2.61,2.61,0,0,1-2.63-2.6Zm0-7.7a2.61,2.61,0,0,1,2.6-2.63H18.34A2.62,2.62,0,0,1,21,6.7v0a2.62,2.62,0,0,1-2.63,2.6H6.2A2.61,2.61,0,0,1,3.57,6.74Z"/></g><g id="shape274-7"><ellipse class="cls-3" cx="6.3" cy="6.74" rx="1.77" ry="1.74"/></g><g id="shape275-9"><ellipse class="cls-3" cx="6.3" cy="14.44" rx="1.77" ry="1.74"/></g><g id="shape276-11"><path class="cls-1" d="M51,32.29a1.3,1.3,0,0,1-1.4,1.15H28.15a1.29,1.29,0,0,1-1.4-1.15V1.15A1.3,1.3,0,0,1,28.15,0H49.59A1.31,1.31,0,0,1,51,1.15Z"/></g><g id="shape277-13"><path class="cls-2" d="M30.31,14.3a2.62,2.62,0,0,1,2.63-2.59H45a2.68,2.68,0,0,1,.18,5.35H32.94a2.62,2.62,0,0,1-2.63-2.6Zm0-7.72a2.62,2.62,0,0,1,2.56-2.67H45a2.64,2.64,0,0,1,2.63,2.6,2.61,2.61,0,0,1-2.56,2.67H32.94A2.62,2.62,0,0,1,30.31,6.58Z"/></g><g id="shape278-15"><ellipse class="cls-3" cx="33.05" cy="6.58" rx="1.77" ry="1.74"/></g><g id="shape279-17"><ellipse class="cls-3" cx="33.05" cy="14.3" rx="1.77" ry="1.74"/></g><g id="shape280-19"><path class="cls-4" d="M28.35,52.71A1.29,1.29,0,0,1,27,53.86H5.47a1.29,1.29,0,0,1-1.4-1.15V21.57a1.3,1.3,0,0,1,1.36-1.22H26.91a1.31,1.31,0,0,1,1.43,1.14.25.25,0,0,1,0,.08Z"/></g><g id="shape281-23"><path class="cls-2" d="M7.64,34.72a2.62,2.62,0,0,1,2.63-2.6H22.35A2.63,2.63,0,0,1,25,34.72h0a2.65,2.65,0,0,1-2.63,2.6H10.27A2.61,2.61,0,0,1,7.64,34.72Zm0-7.79a2.62,2.62,0,0,1,2.63-2.6H22.35A2.63,2.63,0,0,1,25,26.91v0a2.65,2.65,0,0,1-2.63,2.59H10.27A2.61,2.61,0,0,1,7.64,26.93Z"/></g><g id="shape282-25"><ellipse class="cls-3" cx="10.37" cy="27" rx="1.77" ry="1.74"/></g><g id="shape283-27"><ellipse class="cls-3" cx="10.37" cy="34.72" rx="1.77" ry="1.74"/></g><g id="shape284-29"><path class="cls-5" d="M56.69,40.08a9.15,9.15,0,0,0-8-8.74,11.57,11.57,0,0,0-12-11A11.93,11.93,0,0,0,25.24,28a11,11,0,0,0-9.7,10.45A11.17,11.17,0,0,0,27.15,49.09H46.92a1.4,1.4,0,0,0,.5,0A9.28,9.28,0,0,0,56.69,40.08Z"/></g></g></g></svg>