<svg id="Layer_1" data-name="Layer 1" xmlns="http://www.w3.org/2000/svg" xmlns:xlink="http://www.w3.org/1999/xlink" width="60.98" height="54.55" viewBox="0 0 60.98 54.55"><defs><style>.cls-1,.cls-2,.cls-3{fill-rule:evenodd;}.cls-1{fill:url(#linear-gradient);}.cls-2{fill:#fff;}.cls-3{fill:url(#linear-gradient-2);}</style><linearGradient id="linear-gradient" x1="-280.48" y1="419.78" x2="-279.48" y2="419.78" gradientTransform="matrix(0, -40.05, -56.69, 0, 23830.07, -11193.89)" gradientUnits="userSpaceOnUse"><stop offset="0" stop-color="#0078d4"/><stop offset="0.82" stop-color="#5ea0ef"/></linearGradient><linearGradient id="linear-gradient-2" x1="-283.06" y1="416.15" x2="-282.06" y2="416.15" gradientTransform="matrix(0, -30.62, -30.74, 0, 12825.73, -8611.56)" gradientUnits="userSpaceOnUse"><stop offset="0" stop-color="#6f4bb2"/><stop offset="0.19" stop-color="#7854b8"/><stop offset="0.51" stop-color="#926bc9"/><stop offset="0.91" stop-color="#bb90e4"/><stop offset="1" stop-color="#c69aeb"/></linearGradient></defs><g id="group60-1"><g id="shape61-2"><path class="cls-1" d="M61,27.48a12.72,12.72,0,0,0-11-12.2A16,16,0,0,0,33.39,0,16.47,16.47,0,0,0,17.64,10.7,15.15,15.15,0,0,0,4.29,25.26,15.41,15.41,0,0,0,20.26,40H47.5a2.73,2.73,0,0,0,.7,0A12.86,12.86,0,0,0,61,27.48Z"/></g><g id="shape62-6"><path class="cls-2" d="M14.67,53.86A14.62,14.62,0,1,1,29.35,39.24h0A14.64,14.64,0,0,1,14.67,53.86Z"/></g><g id="shape63-8"><path class="cls-3" d="M32.64,23.93a15.32,15.32,0,1,0,8.89,2.79A15.34,15.34,0,0,0,32.64,23.93Zm14,15.31a11.06,11.06,0,0,1,0,1.82,18,18,0,0,0-2.45-1A2.89,2.89,0,0,0,41,37.48a3,3,0,0,0-.93.25,16.76,16.76,0,0,0-7.87-6.27,3.12,3.12,0,0,0-.79-1.5,15.35,15.35,0,0,1,6.05-3.83A14,14,0,0,1,46.62,39.24ZM41,50.41a13.72,13.72,0,0,1-7.28,2.69,14.87,14.87,0,0,1-4.91-5.42,2.75,2.75,0,0,0,.91-1.29A2.84,2.84,0,0,0,29.49,44a15.86,15.86,0,0,1,8.79-3.14,2.88,2.88,0,0,0,1.86,2.26,3,3,0,0,0,.72.16A15.57,15.57,0,0,1,41,50.41ZM28.17,34.72A2.89,2.89,0,0,0,31.85,33a15.08,15.08,0,0,1,7.09,5.61,3.88,3.88,0,0,0-.38.69,17.32,17.32,0,0,0-10.11,3.64L28,42.72a2.44,2.44,0,0,0-.88-.19,15.18,15.18,0,0,1,1-7.93Zm-2.4,13.43H26a2.66,2.66,0,0,0,1.48,0,16.08,16.08,0,0,0,3.87,5,13.87,13.87,0,0,1-6.9-2.54A16.38,16.38,0,0,1,25.77,48Zm6.87-22.87a16.38,16.38,0,0,1,2.43.22,16.34,16.34,0,0,0-5,3.67,2.92,2.92,0,0,0-3.15,1.19h-.82a17.45,17.45,0,0,0-4.76.69A14.15,14.15,0,0,1,32.64,25.28Zm-14,14A13.83,13.83,0,0,1,20.17,33a15.63,15.63,0,0,1,6.3-1.2,3.13,3.13,0,0,0,.69,2,16.6,16.6,0,0,0-1.42,9.13,2.89,2.89,0,0,0-1.1,4.27,17.16,17.16,0,0,0-1.32,2.51A13.81,13.81,0,0,1,18.66,39.24Zm24,9.72V47a16.44,16.44,0,0,0-.35-4,2.74,2.74,0,0,0,1.48-1.44,17.76,17.76,0,0,1,2.42,1A13.6,13.6,0,0,1,42.66,49Z"/></g></g></svg>