<svg id="Layer_1" data-name="Layer 1" xmlns="http://www.w3.org/2000/svg" xmlns:xlink="http://www.w3.org/1999/xlink" width="56.69" height="56.99" viewBox="0 0 56.69 56.99"><defs><style>.cls-1,.cls-3,.cls-4{fill-rule:evenodd;}.cls-1{fill:url(#linear-gradient);}.cls-2{fill:#f2f2f2;}.cls-3{fill:#0078d4;}.cls-4{fill:#e6e6e6;}.cls-5{fill:#ce74b6;}</style><linearGradient id="linear-gradient" x1="-285.09" y1="421.2" x2="-284.09" y2="421.2" gradientTransform="matrix(0, -41.1, -56.69, 0, 23906.34, -11676.09)" gradientUnits="userSpaceOnUse"><stop offset="0" stop-color="#198ab3"/><stop offset="0.11" stop-color="#22a5cb"/><stop offset="0.23" stop-color="#29bade"/><stop offset="0.37" stop-color="#2ec9eb"/><stop offset="0.53" stop-color="#31d1f3"/><stop offset="0.78" stop-color="#32d4f5"/></linearGradient></defs><g id="group49-1"><g id="group50-2"><g id="shape51-3"><path class="cls-1" d="M56.69,28.19a13,13,0,0,0-11-12.56A16.35,16.35,0,0,0,29,0,16.72,16.72,0,0,0,13.34,10.87,15.83,15.83,0,0,0,0,25.81,15.51,15.51,0,0,0,15.73,41.1H44A12.79,12.79,0,0,0,56.69,28.19Z"/></g><g id="shape52-7"><ellipse class="cls-2" cx="14.67" cy="41.76" rx="14.67" ry="14.94"/></g><g id="shape53-9"><path class="cls-3" d="M40.69,32.26a15.15,15.15,0,0,0-21.35-3,15.67,15.67,0,0,0-2.84,21.7A15,15,0,0,0,37.82,53.8l.2-.15A15.66,15.66,0,0,0,40.69,32.26ZM15.34,40.75a16.33,16.33,0,0,1,1.33-5.43h3.67a26.78,26.78,0,0,0-.66,5.43Zm7-5.43h5v5.43H21.68A26.78,26.78,0,0,1,22.34,35.32Zm7,0h5A26.8,26.8,0,0,1,35,40.75H29.35Zm-1.67,7.13v5.43H22.34l-1-5.09Zm1.67,0h6a34.29,34.29,0,0,1-.67,5.43H29.35Zm8,0h4.34a16.22,16.22,0,0,1-1.34,5.43H36.68A27,27,0,0,0,37.35,42.45Zm0-1.7a34,34,0,0,0-.67-5.43h3.67a14.33,14.33,0,0,1,1.34,5.43ZM39,33.28H36a15.12,15.12,0,0,0-2-4.07A14.58,14.58,0,0,1,39,33.28Zm-5,0H29.35V28.53A7.28,7.28,0,0,1,34,33.28Zm-6.34-4.75v5.09H23A7.12,7.12,0,0,1,27.68,28.53ZM20.34,30.9A18.19,18.19,0,0,1,23,29.21a10.67,10.67,0,0,0-2,4.41H18A9,9,0,0,1,20.34,30.9Zm-5,11.89h4.34a35.47,35.47,0,0,0,.66,5.43H16.67A18.54,18.54,0,0,1,15.34,42.79ZM18,49.92h3L23,54A11.75,11.75,0,0,1,18,49.92Zm5,0h4.34V55A8.27,8.27,0,0,1,23,49.92ZM29.35,55V49.92h4.33A6.66,6.66,0,0,1,29.35,55Zm7.33-2.72a8.77,8.77,0,0,1-3,1.7,11.55,11.55,0,0,0,2-4.07h3A4.57,4.57,0,0,1,36.68,52.29Z"/></g><g id="shape54-11"><path class="cls-4" d="M15.34,36.67A13.64,13.64,0,0,1,8,26.82,12.47,12.47,0,0,1,13,17l2-1.7,1.67,2-2,1.69a8.59,8.59,0,0,0-4,7.47,10.26,10.26,0,0,0,6,7.81Z"/></g><g id="shape55-13"><ellipse class="cls-2" cx="16.01" cy="16.3" rx="3.67" ry="3.73"/></g><g id="shape56-15"><path class="cls-4" d="M40.68,36.67l-1.33-2.38a11,11,0,0,0,6-7.81,9.35,9.35,0,0,0-4-7.47l-2-1.35,1.67-2L43,17a10.49,10.49,0,0,1,5,9.84A13.61,13.61,0,0,1,40.68,36.67Z"/></g><g id="shape57-17"><ellipse class="cls-2" cx="40.35" cy="16.3" rx="3.67" ry="3.73"/></g><g id="shape58-19"><ellipse class="cls-5" cx="16.01" cy="35.65" rx="3.67" ry="3.73"/></g><g id="shape59-21"><ellipse class="cls-5" cx="40.35" cy="35.65" rx="3.67" ry="3.73"/></g></g></g></svg>