<svg id="Layer_1" data-name="Layer 1" xmlns="http://www.w3.org/2000/svg" width="56.33" height="30.88" viewBox="0 0 56.33 30.88"><defs><style>.cls-1{fill:#3999c6;}.cls-1,.cls-2{fill-rule:evenodd;}.cls-2,.cls-3{fill:#0072c6;}</style></defs><g id="group100-1"><g id="group101-2"><g id="shape102-3"><path class="cls-1" d="M56,16.21a1.43,1.43,0,0,0,0-1.94l-2.7-2.58L41.1.41a1.31,1.31,0,0,0-1.91,0,1.24,1.24,0,0,0,0,1.93L51.9,14.27a1.33,1.33,0,0,1,0,1.94L39,28.58a1.3,1.3,0,0,0,0,1.93,1.44,1.44,0,0,0,1.91,0l12-11.4L53,19Zm-55.57,0a1.43,1.43,0,0,1,0-1.94l2.7-2.58L15.23.41a1.31,1.31,0,0,1,1.91,0,1.23,1.23,0,0,1,0,1.93L4.66,14.27a1.31,1.31,0,0,0,0,1.94L17.37,28.58a1.32,1.32,0,0,1,0,1.93,1.44,1.44,0,0,1-1.91,0L3.19,19.23l-.11-.12Z"/></g><g id="shape103-5"><path class="cls-2" d="M20.52,15.24a3.66,3.66,0,0,1-3.71,3.55c-1.92,0-3.94-1.72-3.94-3.55a3.72,3.72,0,0,1,3.94-3.54A3.59,3.59,0,0,1,20.52,15.24Zm11.36,0a3.66,3.66,0,0,1-3.71,3.55c-1.91,0-3.94-1.72-3.94-3.55a3.87,3.87,0,0,1,3.94-3.54A3.66,3.66,0,0,1,31.88,15.24Z"/></g><g id="shape104-7"><ellipse class="cls-3" cx="39.64" cy="15.24" rx="3.71" ry="3.55"/></g></g></g></svg>