<svg id="Layer_1" data-name="Layer 1" xmlns="http://www.w3.org/2000/svg" xmlns:xlink="http://www.w3.org/1999/xlink" width="56.69" height="53.86" viewBox="0 0 56.69 53.86"><defs><style>.cls-1,.cls-2,.cls-3{fill-rule:evenodd;}.cls-1{fill:url(#linear-gradient);}.cls-2{fill:url(#linear-gradient-2);}.cls-3{fill:url(#radial-gradient);}</style><linearGradient id="linear-gradient" x1="-285.63" y1="419.22" x2="-284.63" y2="419.22" gradientTransform="matrix(0, -38.69, -56.69, 0, 23793.68, -11012.43)" gradientUnits="userSpaceOnUse"><stop offset="0" stop-color="#0078d4"/><stop offset="0.82" stop-color="#5ea0ef"/></linearGradient><linearGradient id="linear-gradient-2" x1="-299.06" y1="414.93" x2="-298.06" y2="414.93" gradientTransform="matrix(0, -15.14, -28.36, 0, 11781.91, -4473.91)" gradientUnits="userSpaceOnUse"><stop offset="0.15" stop-color="#ccc"/><stop offset="1" stop-color="#707070"/></linearGradient><radialGradient id="radial-gradient" cx="-269.6" cy="405.49" r="0.73" gradientTransform="matrix(35.24, 0, 0, -18.55, 9530.37, 7540.88)" gradientUnits="userSpaceOnUse"><stop offset="0" stop-color="#f2f2f2"/><stop offset="0.58" stop-color="#eee"/><stop offset="1" stop-color="#e6e6e6"/></radialGradient></defs><g id="group123-1"><g id="group124-2"><g id="shape125-3"><path class="cls-1" d="M0,36.77a1.9,1.9,0,0,0,1.88,1.92H54.82a1.9,1.9,0,0,0,1.87-1.92V1.92A1.9,1.9,0,0,0,54.82,0H1.88A1.9,1.9,0,0,0,0,1.92H0Z"/></g><g id="shape126-7"><path class="cls-2" d="M25.55,50.43c-5.6-.9-5.84-5-5.8-11.71H8.62c0,6.66-.2,10.81-5.8,11.71A3.41,3.41,0,0,0,0,53.86H28.36A3.41,3.41,0,0,0,25.55,50.43Z"/></g><g id="shape127-11"><path class="cls-3" d="M42,23V11.09H38.65V25.68h8.49V23ZM17.4,17.13a6.82,6.82,0,0,1-1.75-1.06,1.58,1.58,0,0,1-.43-1.17,1.25,1.25,0,0,1,.54-1.06,2.24,2.24,0,0,1,1.44-.38,5.44,5.44,0,0,1,3.35,1v-3a8.94,8.94,0,0,0-3.35-.59,5.68,5.68,0,0,0-3.79,1.2A3.88,3.88,0,0,0,12,15.21,4.74,4.74,0,0,0,15,19.47a8.12,8.12,0,0,1,2.11,1.27,1.42,1.42,0,0,1,0,2.23,2.51,2.51,0,0,1-1.41.45,5.65,5.65,0,0,1-3.75-1.51v3.43a7.53,7.53,0,0,0,3.69.82,6.66,6.66,0,0,0,4.05-1.34,3.88,3.88,0,0,0,1.48-3.22,3.45,3.45,0,0,0-.87-2.48A8.39,8.39,0,0,0,17.4,17.13Zm17.9,5.63a8.41,8.41,0,0,0,1.14-4.46,8.51,8.51,0,0,0-.87-3.88,6.21,6.21,0,0,0-2.41-2.64,6.74,6.74,0,0,0-3.36-.93,7.27,7.27,0,0,0-3.72,1,6.4,6.4,0,0,0-2.55,2.75,8.63,8.63,0,0,0-.23,7.76,6.59,6.59,0,0,0,2.38,2.61A6.89,6.89,0,0,0,29,26L32,29.39h4.16l-4.06-4A6,6,0,0,0,35.3,22.76ZM32,21.87a3.13,3.13,0,0,1-2.62,1.24,3.08,3.08,0,0,1-2.61-1.27,5.46,5.46,0,0,1-1-3.44,5.5,5.5,0,0,1,1-3.43A3.3,3.3,0,0,1,29.4,13.7,3,3,0,0,1,32,15a5.69,5.69,0,0,1,.94,3.43,5.19,5.19,0,0,1-.84,3.47Z"/></g></g></g></svg>