<svg id="Layer_1" data-name="Layer 1" xmlns="http://www.w3.org/2000/svg" xmlns:xlink="http://www.w3.org/1999/xlink" width="56.7" height="56.69" viewBox="0 0 56.7 56.69"><defs><style>.cls-1{fill:#005ba1;}.cls-1,.cls-2,.cls-3,.cls-4,.cls-5,.cls-6,.cls-7{fill-rule:evenodd;}.cls-2{fill:#50e6ff;}.cls-3{fill:#c3f1ff;}.cls-4{fill:#9cebff;}.cls-5{fill:#0078d4;}.cls-6{fill:url(#linear-gradient);}.cls-7{fill:url(#linear-gradient-2);}</style><linearGradient id="linear-gradient" x1="-291.06" y1="418.03" x2="-290.06" y2="418.03" gradientTransform="matrix(0, -22.51, -33.72, 0, 14135.73, -6503.91)" gradientUnits="userSpaceOnUse"><stop offset="0" stop-color="#0078d4"/><stop offset="0.82" stop-color="#5ea0ef"/></linearGradient><linearGradient id="linear-gradient-2" x1="-315.13" y1="410.66" x2="-314.13" y2="410.66" gradientTransform="matrix(0, -8.57, -16.67, 0, 6853.98, -2643.95)" gradientUnits="userSpaceOnUse"><stop offset="0.15" stop-color="#ccc"/><stop offset="1" stop-color="#707070"/></linearGradient></defs><g id="group128-1"><g id="group129-2"><g id="shape130-3"><path class="cls-1" d="M0,21.38a1.14,1.14,0,0,0,1.13,1.13H32.58a1.13,1.13,0,0,0,1.14-1.13h0V1.14A1.13,1.13,0,0,0,32.59,0H1.13A1.13,1.13,0,0,0,0,1.14H0Z"/></g><g id="shape131-5"><path class="cls-2" d="M16.87,17.81V11.28L22.47,8v6.57Z"/></g><g id="shape132-7"><path class="cls-3" d="M11.24,8l5.64-3.3L22.48,8l-5.6,3.3Z"/></g><g id="shape133-9"><path class="cls-4" d="M11.24,14.55V8l5.64,3.3v6.53Z"/></g><g id="shape134-11"><path class="cls-5" d="M13.24,34.29a1.14,1.14,0,0,0,1.13,1.13H45.82A1.14,1.14,0,0,0,47,34.29h0V14.05a1.13,1.13,0,0,0-1.13-1.14H14.37A1.13,1.13,0,0,0,13.24,14h0Z"/></g><g id="shape135-13"><path class="cls-2" d="M30.11,30.75V24.19l5.6-3.27v6.53Z"/></g><g id="shape136-15"><path class="cls-3" d="M24.48,20.92l5.64-3.3,5.6,3.3-5.6,3.26Z"/></g><g id="shape137-17"><path class="cls-4" d="M24.48,27.45V20.92l5.64,3.27v6.56Z"/></g><g id="shape138-19"><path class="cls-6" d="M23,46.83A1.14,1.14,0,0,0,24.11,48H55.56a1.15,1.15,0,0,0,1.14-1.13h0V26.59a1.13,1.13,0,0,0-1.13-1.14H24.11A1.13,1.13,0,0,0,23,26.58h0Z"/></g><g id="shape139-23"><path class="cls-2" d="M39.85,43.29V36.73l5.6-3.27V40Z"/></g><g id="shape140-25"><path class="cls-3" d="M34.22,33.45l5.64-3.3,5.6,3.3-5.6,3.3Z"/></g><g id="shape141-27"><path class="cls-4" d="M34.22,40V33.46l5.64,3.3v6.53Z"/></g><g id="shape142-29"><path class="cls-3" d="M34.22,40l5.64-3.26v6.56Z"/></g><g id="shape143-31"><path class="cls-4" d="M45.45,40l-5.6-3.26v6.56Z"/></g><g id="shape144-33"><path class="cls-7" d="M15,54.79c-3.34-.53-3.34-2.93-3.34-6.67H5C5,52,5,54.39,1.67,54.79A2,2,0,0,0,0,56.69H16.67A2,2,0,0,0,15,54.79Z"/></g></g></g></svg>