<svg id="Layer_1" data-name="Layer 1" xmlns="http://www.w3.org/2000/svg" xmlns:xlink="http://www.w3.org/1999/xlink" width="56.69" height="51.02" viewBox="0 0 56.69 51.02"><defs><style>.cls-1,.cls-2,.cls-3,.cls-4,.cls-5{fill-rule:evenodd;}.cls-1{fill:url(#linear-gradient);}.cls-2{fill:#50e6ff;}.cls-3{fill:#c3f1ff;}.cls-4{fill:#9cebff;}.cls-5{fill:url(#linear-gradient-2);}</style><linearGradient id="linear-gradient" x1="-286.1" y1="418.21" x2="-285.1" y2="418.21" gradientTransform="matrix(0, -36.81, -56.69, 0, 23736.62, -10494.57)" gradientUnits="userSpaceOnUse"><stop offset="0" stop-color="#804998"/><stop offset="0.82" stop-color="#b482c8"/></linearGradient><linearGradient id="linear-gradient-2" x1="-300.59" y1="413.92" x2="-299.59" y2="413.92" gradientTransform="matrix(0, -14.2, -28.35, 0, 11748.94, -4217.39)" gradientUnits="userSpaceOnUse"><stop offset="0.15" stop-color="#ccc"/><stop offset="1" stop-color="#707070"/></linearGradient></defs><g id="group145-1"><g id="group146-2"><g id="shape147-3"><path class="cls-1" d="M0,35a1.87,1.87,0,0,0,1.89,1.84H54.8A1.87,1.87,0,0,0,56.69,35V1.84A1.87,1.87,0,0,0,54.8,0H1.89A1.87,1.87,0,0,0,0,1.84Z"/></g><g id="shape148-7"><path class="cls-2" d="M37.8,13v10.7l-9.45,5.4V18.41Z"/></g><g id="shape149-9"><path class="cls-3" d="M37.8,13l-9.45,5.4L18.9,13l9.45-5.37Z"/></g><g id="shape150-11"><path class="cls-4" d="M28.35,18.44v10.7l-9.45-5.4V13Z"/></g><g id="shape151-13"><path class="cls-3" d="M18.9,23.74l9.45-5.33V29.14Z"/></g><g id="shape152-15"><path class="cls-4" d="M37.8,23.74l-9.45-5.33V29.14Z"/></g><g id="shape153-17"><path class="cls-5" d="M25.54,48c-5.6-.86-5.82-4.79-5.82-11.14H8.6C8.6,43.17,8.41,47.1,2.8,48A3.09,3.09,0,0,0,0,51H28.35A3.09,3.09,0,0,0,25.54,48Z"/></g></g></g></svg>