<svg id="Layer_1" data-name="Layer 1" xmlns="http://www.w3.org/2000/svg" xmlns:xlink="http://www.w3.org/1999/xlink" width="56.69" height="48.41" viewBox="0 0 56.69 48.41"><defs><style>.cls-1{fill:#0078d4;}.cls-1,.cls-2,.cls-3,.cls-4,.cls-5,.cls-6{fill-rule:evenodd;}.cls-2{fill:url(#linear-gradient);}.cls-3{fill:#773adc;}.cls-4{fill:#50e6ff;}.cls-5{fill:#c3f1ff;}.cls-6{fill:#9cebff;}</style><linearGradient id="linear-gradient" x1="-283.9" y1="411.85" x2="-282.9" y2="411.85" gradientTransform="matrix(0, -48.41, -39.2, 0, 16169.87, -13695.17)" gradientUnits="userSpaceOnUse"><stop offset="0" stop-color="#32bedd"/><stop offset="0.3" stop-color="#36c3e1"/><stop offset="0.67" stop-color="#41d2ee"/><stop offset="1" stop-color="#50e6ff"/></linearGradient></defs><g id="group215-1"><g id="group216-2"><g id="shape217-3"><path class="cls-1" d="M0,46.8a1.62,1.62,0,0,0,1.63,1.61H37.56A1.63,1.63,0,0,0,39.2,46.8h0V1.61A1.62,1.62,0,0,0,37.56,0H1.63A1.62,1.62,0,0,0,0,1.61Z"/></g><g id="shape218-5"><path class="cls-2" d="M5.72,46.8a1.62,1.62,0,0,0,1.63,1.61H43.28a1.63,1.63,0,0,0,1.64-1.61h0V1.61A1.63,1.63,0,0,0,43.28,0H7.35A1.62,1.62,0,0,0,5.72,1.61Z"/></g><g id="shape219-9"><path class="cls-3" d="M56.57,33.7l-9.38-9.22a.46.46,0,0,0-.64-.08.45.45,0,0,0-.17.4v5.38c-11.27,0-22.54,5.94-22.54,16.68,1.6-2.39,9.8-8.74,22.54-8.74v5.16a.5.5,0,0,0,.5.48.53.53,0,0,0,.32-.12l9.37-9.26a.54.54,0,0,0,0-.68Z"/></g><g id="shape220-11"><path class="cls-4" d="M36.74,14.45V27.58L25.31,34.19V21Z"/></g><g id="shape221-13"><path class="cls-5" d="M36.74,14.45,25.31,21.06,13.88,14.45,25.31,7.84Z"/></g><g id="shape222-15"><path class="cls-6" d="M25.31,21.06V34.19L13.88,27.58V14.45Z"/></g><g id="shape223-17"><path class="cls-5" d="M13.88,27.58,25.31,21V34.19Z"/></g><g id="shape224-19"><path class="cls-6" d="M36.74,27.58,25.31,21V34.19Z"/></g></g></g></svg>