<svg id="Layer_1" data-name="Layer 1" xmlns="http://www.w3.org/2000/svg" width="56.51" height="45.21" viewBox="0 0 56.51 45.21"><defs><style>.cls-1,.cls-2{fill-rule:evenodd;}.cls-2{fill:#3999c6;}.cls-3{fill:#57a300;}</style></defs><g id="group78-1"><g id="group79-2"><g id="shape80-3"><path class="cls-1" d="M5.45,33.34H11c2,0,3.16.92,4.05,2.74H5.45c-1.52,0-2.54,1.8-2.54,3.32s1.15,3.07,2.54,3.07h9.63c-.89,1.83-2,2.74-4.05,2.74H5.45c-3,0-5.45-2.88-5.45-5.93S2.54,33.34,5.45,33.34Zm21.93,2.74H17.74c.89-1.82,2-2.74,4.06-2.74h5.57c3.05,0,5.33,3,5.33,6.06s-2.41,5.81-5.32,5.81H21.8a4.12,4.12,0,0,1-4.06-2.74h9.64c1.52,0,2.53-1.79,2.53-3.06C29.91,37.88,29,36.08,27.38,36.08Z"/></g><g id="shape81-5"><path class="cls-1" d="M23.32,40.65H9.63c-.76,0-2.41-.61-2.41-1.37s1.65-1.37,2.41-1.37H23.32c.76,0,2.91.35,2.91,1.12C26.23,40,24.08,40.65,23.32,40.65Z"/></g></g><g id="shape82-7"><path class="cls-2" d="M56.13,17a1.55,1.55,0,0,0,0-2l-2.7-2.72L41.28.43a1.28,1.28,0,0,0-1.91,0,1.35,1.35,0,0,0,0,2L52.08,15a1.44,1.44,0,0,1,0,2L39.15,30a1.42,1.42,0,0,0,0,2,1.37,1.37,0,0,0,1.91,0l12-12,.12-.11ZM.56,17a1.55,1.55,0,0,1,0-2l2.7-2.72L15.41.43a1.28,1.28,0,0,1,1.91,0,1.33,1.33,0,0,1,0,2L4.84,15a1.42,1.42,0,0,0,0,2L17.55,30a1.44,1.44,0,0,1,0,2,1.37,1.37,0,0,1-1.91,0L3.37,20.21l-.11-.12Z"/></g><g id="shape83-9"><ellipse class="cls-3" cx="39.82" cy="16.02" rx="3.71" ry="3.73"/></g><g id="shape84-11"><ellipse class="cls-3" cx="28.23" cy="16.02" rx="3.71" ry="3.73"/></g><g id="shape85-13"><ellipse class="cls-3" cx="16.87" cy="16.02" rx="3.71" ry="3.73"/></g></g></svg>