<svg id="Layer_1" data-name="Layer 1" xmlns="http://www.w3.org/2000/svg" xmlns:xlink="http://www.w3.org/1999/xlink" width="56.69" height="51.02" viewBox="0 0 56.69 51.02"><defs><style>.cls-1,.cls-2,.cls-3,.cls-4,.cls-5,.cls-6{fill-rule:evenodd;}.cls-1{fill:url(#linear-gradient);}.cls-2{fill:#50e6ff;}.cls-3{fill:#c3f1ff;}.cls-4{fill:#9cebff;}.cls-5{fill:url(#linear-gradient-2);}.cls-6{fill:#fff;}</style><linearGradient id="linear-gradient" x1="-286.1" y1="418.21" x2="-285.1" y2="418.21" gradientTransform="matrix(0, -36.81, -56.69, 0, 23736.62, -10494.57)" gradientUnits="userSpaceOnUse"><stop offset="0" stop-color="#0078d4"/><stop offset="0.82" stop-color="#5ea0ef"/></linearGradient><linearGradient id="linear-gradient-2" x1="-300.59" y1="413.92" x2="-299.59" y2="413.92" gradientTransform="matrix(0, -14.2, -28.35, 0, 11748.94, -4217.39)" gradientUnits="userSpaceOnUse"><stop offset="0" stop-color="#1490df"/><stop offset="0.98" stop-color="#1f56a3"/></linearGradient></defs><g id="group205-1"><g id="group206-2"><g id="shape207-3"><path class="cls-1" d="M0,35a1.87,1.87,0,0,0,1.89,1.84H54.8A1.87,1.87,0,0,0,56.69,35V1.84A1.87,1.87,0,0,0,54.8,0H1.89A1.87,1.87,0,0,0,0,1.84Z"/></g><g id="shape208-7"><path class="cls-2" d="M37.8,13v10.7l-9.45,5.4V18.41Z"/></g><g id="shape209-9"><path class="cls-3" d="M37.8,13l-9.42,5.4L18.9,13l9.48-5.37Z"/></g><g id="shape210-11"><path class="cls-4" d="M28.35,18.44v10.7l-9.45-5.4V13Z"/></g><g id="shape211-13"><path class="cls-3" d="M18.9,23.74l9.45-5.33V29.14Z"/></g><g id="shape212-15"><path class="cls-4" d="M37.8,23.74l-9.45-5.33V29.14Z"/></g><g id="shape213-17"><path class="cls-5" d="M25.51,48c-5.6-.86-5.82-4.79-5.79-11.14H8.47c0,6.35,0,10.28-5.7,11.14A3.08,3.08,0,0,0,0,51H28.35A3.29,3.29,0,0,0,25.51,48Z"/></g><g id="shape214-21"><path class="cls-6" d="M15.37,3.68H6.71a2,2,0,0,0-2.08,2v8.47a1,1,0,0,0,1,1h.69a1,1,0,0,0,1-1V6.35h8a1,1,0,0,0,1-1V4.69A1,1,0,0,0,15.37,3.68Zm0,26.57h-8V22.49a1,1,0,0,0-1-1H5.67a1,1,0,0,0-1,1h0v8.59a2.05,2.05,0,0,0,2.05,2.05h8.69a1.06,1.06,0,0,0,1-1.09s0-.07,0-.1v-.68A1,1,0,0,0,15.37,30.25ZM50.11,3.77H41.57a1,1,0,0,0-1,1v.65a1,1,0,0,0,1,1.09h8v7.7a1,1,0,0,0,1,1h.74a1,1,0,0,0,1-1h0V5.8a2.06,2.06,0,0,0-2.07-2Zm1.07,17.77h-.66a1,1,0,0,0-1,1v7.79H41.57a1,1,0,0,0-1,1V32a1,1,0,0,0,1,1h8.67a2.09,2.09,0,0,0,2.11-2V22.55a1,1,0,0,0-1-1Z"/></g></g></g></svg>