<svg id="Layer_1" data-name="Layer 1" xmlns="http://www.w3.org/2000/svg" xmlns:xlink="http://www.w3.org/1999/xlink" width="42.52" height="56.69" viewBox="0 0 42.52 56.69"><defs><style>.cls-1,.cls-2,.cls-3,.cls-4{fill-rule:evenodd;}.cls-1{fill:url(#linear-gradient);}.cls-2{fill:#50e6ff;}.cls-3,.cls-4{fill:#fff;}.cls-3{fill-opacity:0.2;}</style><linearGradient id="linear-gradient" x1="-277.98" y1="430.23" x2="-276.98" y2="430.23" gradientTransform="matrix(1.08, 56.67, 42.45, -1.44, -17941.89, 16372.71)" gradientUnits="userSpaceOnUse"><stop offset="0.22" stop-color="#32d4f5"/><stop offset="0.47" stop-color="#31d1f3"/><stop offset="0.63" stop-color="#2ec9eb"/><stop offset="0.77" stop-color="#29bade"/><stop offset="0.89" stop-color="#22a5cb"/><stop offset="1" stop-color="#198ab3"/></linearGradient></defs><g id="group86-1"><g id="group87-2"><g id="shape88-3"><path class="cls-1" d="M40.26,27.23H37.13V17.56A18.28,18.28,0,0,0,32.45,5.25,15,15,0,0,0,21,0,15,15,0,0,0,9.38,5.25,18,18,0,0,0,4.7,17.56v9.67H2.16A2.2,2.2,0,0,0,0,29.4V54.53a2.2,2.2,0,0,0,2.16,2.16h38.1a2.22,2.22,0,0,0,2.2-2.16V29.4A2.23,2.23,0,0,0,40.26,27.23Zm-10.57,0H12.26V17.4A10,10,0,0,1,15,10.65,7.88,7.88,0,0,1,20.88,8a8,8,0,0,1,5.93,2.7,9.43,9.43,0,0,1,1,1.35,9.44,9.44,0,0,1,1.92,5.37Z"/></g><g id="shape89-7"><path class="cls-2" d="M40.36,27.23H2.2a2,2,0,0,0-1.38.54L41.74,56a2.14,2.14,0,0,0,.78-1.63V29.27A2.24,2.24,0,0,0,40.36,27.23Z"/></g><g id="shape90-9"><path class="cls-3" d="M2.25,27.23H40.38a2.21,2.21,0,0,1,1.42.54L.84,56A2.21,2.21,0,0,1,.06,54.4V29.27A2.26,2.26,0,0,1,2.25,27.23Z"/></g><g id="shape91-11"><path class="cls-4" d="M17.49,33.3l3.77-3.77a.23.23,0,0,1,.29,0l3.72,3.77a.19.19,0,0,1,.06.26l-.06,0H23.08a.18.18,0,0,0-.18.18h0v4.85a.18.18,0,0,1-.18.18H20.22a.16.16,0,0,1-.18-.12.08.08,0,0,1,0-.07V33.8a.22.22,0,0,0-.22-.19H17.62a.19.19,0,0,1-.17-.21.16.16,0,0,1,.05-.11Zm7.75,17.21-3.73,3.74a.19.19,0,0,1-.26,0h0l-3.74-3.74a.2.2,0,0,1,0-.27s0,0,0-.05h2.2a.22.22,0,0,0,.22-.19V45.14A.19.19,0,0,1,20.1,45h2.32a.18.18,0,0,1,.19.18h0V50a.19.19,0,0,0,.19.18H25a.2.2,0,1,1,.25.31ZM10.5,45.64V43.45a.18.18,0,0,0-.18-.19H5.58a.19.19,0,0,1-.18-.19h0V40.84a.19.19,0,0,1,.07-.26l.12,0h4.73a.19.19,0,0,0,.19-.19h0v-2.2a.22.22,0,0,1,.24-.2.21.21,0,0,1,.11,0l3.73,3.77a.17.17,0,0,1,0,.25L10.85,45.8a.21.21,0,0,1-.3-.06.18.18,0,0,1,0-.1Zm21.73-7.47v2.2a.19.19,0,0,0,.19.18h4.83s.22,0,.22.18v2.33a.22.22,0,0,1-.22.18H32.42a.18.18,0,0,0-.18.18h0v2.2a.18.18,0,0,1-.17.2.16.16,0,0,1-.14-.05L28.19,42v-.25L31.92,38S32.23,38,32.23,38.17Z"/></g></g></g></svg>