<svg id="Layer_1" data-name="Layer 1" xmlns="http://www.w3.org/2000/svg" xmlns:xlink="http://www.w3.org/1999/xlink" width="56.69" height="51.02" viewBox="0 0 56.69 51.02"><defs><style>.cls-1,.cls-2,.cls-3,.cls-4{fill-rule:evenodd;}.cls-1{fill:url(#linear-gradient);}.cls-2{fill:url(#linear-gradient-2);}.cls-3{fill:#804998;fill-opacity:0.2;}.cls-4{fill:#fff;fill-opacity:0.8;}</style><linearGradient id="linear-gradient" x1="-286.1" y1="418.21" x2="-285.1" y2="418.21" gradientTransform="matrix(0, -36.81, -56.69, 0, 23736.62, -10494.57)" gradientUnits="userSpaceOnUse"><stop offset="0" stop-color="#804998"/><stop offset="0.82" stop-color="#b482c8"/></linearGradient><linearGradient id="linear-gradient-2" x1="-300.59" y1="413.92" x2="-299.59" y2="413.92" gradientTransform="matrix(0, -14.2, -28.35, 0, 11748.94, -4217.39)" gradientUnits="userSpaceOnUse"><stop offset="0.15" stop-color="#ccc"/><stop offset="1" stop-color="#707070"/></linearGradient></defs><g id="group154-1"><g id="group155-2"><g id="shape156-3"><path class="cls-1" d="M0,35a1.87,1.87,0,0,0,1.89,1.84H54.8A1.87,1.87,0,0,0,56.69,35V1.84A1.87,1.87,0,0,0,54.8,0H1.89A1.87,1.87,0,0,0,0,1.84Z"/></g><g id="shape157-7"><path class="cls-2" d="M25.54,48c-5.6-.86-5.82-4.79-5.82-11.14H8.6C8.6,43.17,8.41,47.1,2.8,48A3.09,3.09,0,0,0,0,51H28.35A3.09,3.09,0,0,0,25.54,48Z"/></g><g id="shape158-11"><path class="cls-3" d="M40.06,30.48,15,28.52a1.14,1.14,0,0,1-1-1.12V8.67a1.14,1.14,0,0,1,1-1.11l25.06-2A1.15,1.15,0,0,1,41.3,6.71V29.37a1.08,1.08,0,0,1-.34.79,1.13,1.13,0,0,1-.8.32Z"/></g><g id="shape159-13"><path class="cls-4" d="M27.63,17.16H40.15V6.7l-12.52,1Z"/></g><g id="shape160-15"><path class="cls-4" d="M15.11,17.16H25.85V7.83l-10.74.84Z"/></g><g id="shape161-17"><path class="cls-4" d="M27.63,18.91H40.15V29.36l-12.52-1Z"/></g><g id="shape162-19"><path class="cls-4" d="M15.11,18.91H25.85v9.33L15.11,27.4Z"/></g></g></g></svg>