<svg id="Layer_1" data-name="Layer 1" xmlns="http://www.w3.org/2000/svg" xmlns:xlink="http://www.w3.org/1999/xlink" width="57.27" height="58.33" viewBox="0 0 57.27 58.33"><defs><style>.cls-1,.cls-10,.cls-2,.cls-6,.cls-9{fill-rule:evenodd;}.cls-1{fill:url(#radial-gradient);}.cls-2{fill:#83b9f9;}.cls-3{fill:url(#linear-gradient);}.cls-4{fill:none;}.cls-5{fill:#f2f2f2;}.cls-6{fill:#821010;}.cls-7,.cls-9{fill:#e62323;}.cls-10,.cls-8{fill:#ff7381;}</style><radialGradient id="radial-gradient" cx="-271.88" cy="419.99" r="1.4" gradientTransform="matrix(55.04, 0, 0, -56.4, 14963.92, 23687.27)" gradientUnits="userSpaceOnUse"><stop offset="0.18" stop-color="#5ea0ef"/><stop offset="1" stop-color="#0078d4"/></radialGradient><linearGradient id="linear-gradient" x1="-294.82" y1="411.79" x2="-293.82" y2="411.79" gradientTransform="matrix(-0.14, -18.01, -17.63, 0.14, 7229.77, -5308.75)" gradientUnits="userSpaceOnUse"><stop offset="0" stop-color="#ccc"/><stop offset="0.13" stop-color="#d7d7d7"/><stop offset="0.42" stop-color="#ebebeb"/><stop offset="0.71" stop-color="#f8f8f8"/><stop offset="1" stop-color="#fcfcfc"/></linearGradient></defs><g id="group25-1"><g id="group26-2"><g id="shape27-3"><path class="cls-1" d="M44.54,50.66A27.4,27.4,0,0,1,5.62,45.13,28.8,28.8,0,0,1,10.27,6l.33-.34a27.43,27.43,0,0,1,38.92,5.79A28.84,28.84,0,0,1,44.54,50.66Z"/></g><g id="shape28-7"><path class="cls-2" d="M6,34c-1,2.85-1.89,5.74-2.61,8.67l2,3,2,2A48.54,48.54,0,0,1,10.92,36,8.15,8.15,0,0,1,6,34ZM9.29,18.64A46.94,46.94,0,0,1,7,9a25.89,25.89,0,0,0-3.59,4.67,36.4,36.4,0,0,0,2,8A9,9,0,0,1,9.29,18.64Z"/></g><g id="shape29-9"><ellipse class="cls-3" cx="12.23" cy="49.33" rx="8.81" ry="9"/></g><g id="shape30-13"><path class="cls-2" d="M25.28,44a7.09,7.09,0,0,1,1.64-4.33,30.09,30.09,0,0,1-8.16-6.34A9,9,0,0,1,13.86,36a65.47,65.47,0,0,0,4.9,4.67,26.65,26.65,0,0,0,6.52,4Zm20.57.67a43.23,43.23,0,0,1-9.14-1V44a5.62,5.62,0,0,1-1.63,4,42.09,42.09,0,0,0,11.09.66c1.31-1.33,2.62-3,3.92-4.33A17.77,17.77,0,0,1,45.85,44.66Z"/></g><g id="shape31-15"><ellipse class="cls-4" cx="31.16" cy="43.99" rx="5.88" ry="6"/></g><g id="shape32-17"><path class="cls-2" d="M29.53,15.31a43.2,43.2,0,0,1,19.25-4.67A22.11,22.11,0,0,0,43.89,6,49.3,49.3,0,0,0,28.55,9.64a31.44,31.44,0,0,0-3.27,1.67,63.31,63.31,0,0,1-6.53-9.67,6.08,6.08,0,0,0-2.93,1A70.18,70.18,0,0,0,22.67,13a32.17,32.17,0,0,0-7.18,5.67,9.31,9.31,0,0,1,4.24,3.66,29.25,29.25,0,0,1,6.21-5A73.68,73.68,0,0,0,38,28a7,7,0,0,1,2-3.33A91.51,91.51,0,0,1,29.53,15.31Z"/></g><g id="shape33-19"><ellipse class="cls-5" cx="44.22" cy="29.32" rx="6.2" ry="6.34"/></g><g id="shape34-21"><path class="cls-2" d="M54.66,33.65c-.33-.33-.65-.33-1-.67s-.65-.33-1-.66h-.33l-1-.67h-.32l-1-.67a4.82,4.82,0,0,1-2,3c.33.34.65.34,1.31.67h.32c.33.33.65.33,1,.67,1,.66,2,1,2.94,1.66C54,36,54.33,34.65,54.66,33.65Z"/></g><g id="shape35-23"><ellipse class="cls-5" cx="12.23" cy="49.33" rx="8.81" ry="9"/></g><g id="shape36-25"><ellipse class="cls-5" cx="31.16" cy="43.99" rx="5.88" ry="6"/></g><g id="shape37-27"><path class="cls-6" d="M16.15,34H55.64c.65,0,1.63.67,1.63,1.33V56.67a1.77,1.77,0,0,1-1.63,1.66H16.15a1.52,1.52,0,0,1-1.31-1.66v-21A1.52,1.52,0,0,1,16.15,34Z"/></g><g id="shape38-29"><rect class="cls-7" x="16.47" y="36.65" width="11.75" height="5.34"/></g><g id="shape39-31"><rect class="cls-8" x="30.18" y="36.65" width="11.75" height="5.34"/></g><g id="shape40-33"><path class="cls-9" d="M43.56,36.66H55.31V42H43.56Zm-27.09,7h4.9V49h-4.9Z"/></g><g id="shape41-35"><path class="cls-10" d="M50.42,43.66h4.9V49h-4.9Zm-27.09,0H35.08V49H23.33Z"/></g><g id="shape42-37"><path class="cls-9" d="M36.71,43.66H48.46V49H36.71Zm-20.24,7H28.22V56H16.47Z"/></g><g id="shape43-39"><rect class="cls-8" x="30.18" y="50.66" width="11.75" height="5.34"/></g><g id="shape44-41"><rect class="cls-7" x="43.56" y="50.66" width="11.75" height="5.34"/></g></g></g></svg>