<svg id="Layer_1" data-name="Layer 1" xmlns="http://www.w3.org/2000/svg" xmlns:xlink="http://www.w3.org/1999/xlink" width="56.69" height="56.69" viewBox="0 0 56.69 56.69"><defs><style>.cls-1{fill:url(#radial-gradient);}.cls-2{fill:#005ba1;}.cls-3{fill:#f2f2f2;fill-rule:evenodd;}</style><radialGradient id="radial-gradient" cx="-271.74" cy="419.6" r="1.1" gradientTransform="matrix(56.69, 0, 0, -56.69, 15433.92, 23788.56)" gradientUnits="userSpaceOnUse"><stop offset="0" stop-color="#198ab3"/><stop offset="0.38" stop-color="#1a8cb5"/><stop offset="0.57" stop-color="#1c94bc"/><stop offset="0.72" stop-color="#21a1c8"/><stop offset="0.85" stop-color="#27b4d8"/><stop offset="0.97" stop-color="#2fccee"/><stop offset="1" stop-color="#32d4f5"/></radialGradient></defs><g id="group20-1"><g id="group21-2"><g id="shape22-3"><circle class="cls-1" cx="28.35" cy="28.35" r="28.35"/></g><g id="shape23-7"><circle class="cls-2" cx="28.35" cy="28.35" r="24.41"/></g><g id="shape24-9"><path class="cls-3" d="M28.68,31.47l-9.45-9.38a1.7,1.7,0,0,0-2.37,0l-1.19,1.18a1.61,1.61,0,0,0-.47,1.13,1.59,1.59,0,0,0,.47,1.13l7.11,7.08-7.27,7.21a1.58,1.58,0,0,0,0,2.23l0,0,1.2,1.19a1.68,1.68,0,0,0,2.37,0l9.6-9.54a1.58,1.58,0,0,0,0-2.25Zm-1.15-7.54A1.59,1.59,0,0,0,28,25.06l9.6,9.54a1.68,1.68,0,0,0,2.37,0l1.2-1.19a1.57,1.57,0,0,0,.47-1.12,1.61,1.61,0,0,0-.47-1.13L33.92,24,41,16.87a1.58,1.58,0,0,0,0-2.25l-1.2-1.19a1.7,1.7,0,0,0-2.37,0L28,22.81a1.59,1.59,0,0,0-.48,1.12Z"/></g></g></g></svg>