<svg id="Layer_1" data-name="Layer 1" xmlns="http://www.w3.org/2000/svg" width="56.69" height="56.7" viewBox="0 0 56.69 56.7"><defs><style>.cls-1,.cls-2{fill:#58b4d9;}.cls-1{fill-rule:evenodd;}</style></defs><g id="group13-1"><g id="group14-2"><g id="shape15-3"><path class="cls-1" d="M34.61,0,26.77,5.6,19.64,7,26.77,5.6l.71,3.67L39.39,6.83a3.31,3.31,0,0,1,3.87,2.54l9.16,45A3,3,0,0,1,52,56.7H13.94L5.9,17a3.31,3.31,0,0,1,2.55-3.86l12-2.45-.71-3.56L14.55,0H0V56.7H56.69V0Z"/></g><g id="shape16-5"><circle class="cls-2" cx="23.72" cy="8.86" r="1.02"/></g><g id="shape17-7"><path class="cls-1" d="M25.86,0h-5.5l2.75,3.16Z"/></g><g id="shape18-9"><path class="cls-1" d="M40.92,13.64,9.67,20l6.11,30.23L21.58,49,18.73,35l5.9-1.22,5.29,4.89,3-6.52,5.9-1.22,2.75,13.84,5.39-1.12ZM28.5,31.15a5.69,5.69,0,0,1-6.72-4.48A5.76,5.76,0,0,1,26.26,20a5.71,5.71,0,0,1,2.24,11.2Z"/></g><g id="shape19-11"><path class="cls-1" d="M17.1,15.27a.72.72,0,0,0,.92.61l13.74-2.75a.86.86,0,0,0,.61-.82v-.1a.86.86,0,0,0-.82-.61l-3.25.71.2,1-7.13,1.43-.2-1-3.26.71A.75.75,0,0,0,17.1,15.27Z"/></g></g></g></svg>