<svg id="Layer_1" data-name="Layer 1" xmlns="http://www.w3.org/2000/svg" width="53.85" height="56.69" viewBox="0 0 53.85 56.69"><defs><style>.cls-1{fill:#fcd116;}.cls-1,.cls-2,.cls-3,.cls-4,.cls-5,.cls-7,.cls-8{fill-rule:evenodd;}.cls-2{fill:#68217a;fill-opacity:0.4;}.cls-3,.cls-4,.cls-5,.cls-6{fill:#fff;}.cls-3{fill-opacity:0.75;}.cls-4{fill-opacity:0.8;}.cls-5{fill-opacity:0.1;}.cls-8{fill-opacity:0.5;}</style></defs><g id="group1-1"><g id="group2-2"><g id="shape3-3"><path class="cls-1" d="M14.36,0C10.77,0,6,3.54,6,3.54H8.37V53.15H50.26v2.36L53.85,52V0Z"/></g><g id="shape4-5"><path class="cls-2" d="M14.36,0C10.77,0,6,3.54,6,3.54H8.37V53.15H50.26v2.36L53.85,52V0Z"/></g><g id="shape5-7"><path class="cls-3" d="M15.56,1.18c-1.79,0-7.18,2.36-7.18,2.36h1.2V54.33H50.27L52.66,52V1.18Z"/></g><g id="shape6-9"><path class="cls-4" d="M15.55,1.18c-2.39,0-6,2.36-6,2.36H50.26l2.4-2.36Z"/></g><g id="shape7-11"><path class="cls-1" d="M0,56.69V53.15H2.39L3.59,52V50.78L2.39,49.6H0V46.06H2.39l1.2-1.18V43.7l-1.2-1.18H0V39H2.39l1.2-1.18V36.61l-1.2-1.18H0V31.89H2.39l1.2-1.18V29.52l-1.2-1.18H0V24.8H2.39l1.2-1.18V22.44l-1.2-1.18H0V17.71H2.39l1.2-1.18V15.35l-1.2-1.18H0V10.63H2.39l1.2-1.18V8.26L2.39,7.08H0V3.54H45.48V56.69Z"/></g><g id="shape8-13"><path class="cls-2" d="M0,56.69V53.15H2.39L3.59,52V50.78L2.39,49.6H0V46.06H2.39l1.2-1.18V43.7l-1.2-1.18H0V39H2.39l1.2-1.18V36.61l-1.2-1.18H0V31.89H2.39l1.2-1.18V29.52l-1.2-1.18H0V24.8H2.39l1.2-1.18V22.44l-1.2-1.18H0V17.71H2.39l1.2-1.18V15.35l-1.2-1.18H0V10.63H2.39l1.2-1.18V8.26L2.39,7.08H0V3.54H45.48V56.69Z"/></g><g id="shape9-15"><path class="cls-5" d="M0,56.69V53.15H2.39L3.59,52V50.78L2.39,49.6H0V46.06H2.39l1.2-1.18V43.7l-1.2-1.18H0V39H2.39l1.2-1.18V36.61l-1.2-1.18H0V31.89H2.39l1.2-1.18V29.52l-1.2-1.18H0V24.8H2.39l1.2-1.18V22.44l-1.2-1.18H0V17.71H2.39l1.2-1.18V15.35l-1.2-1.18H0V10.63H2.39l1.2-1.18V8.26L2.39,7.08H0V3.54H37.1L8.38,56.69Z"/></g><g id="shape10-17"><rect class="cls-6" x="20.35" y="18.9" width="19.15" height="7.09"/></g><g id="shape11-19"><path class="cls-7" d="M0,13H6v1.18H0Zm0,7.09H6v1.18H0Zm0,7.08H6v1.18H0Zm0,7.09H6v1.18H0Zm0,7.09H6v1.18H0Zm0,7.08H6V49.6H0Zm0,7.09H6v1.18H0Z"/></g><g id="shape12-21"><path class="cls-8" d="M1.8,10.63h3v1.18h-3ZM.6,11.81H1.8V13H.6ZM0,13H1.2v1.18H0Zm1.8,4.72h3v1.18h-3ZM.6,18.89H1.8v1.19H.6ZM0,20.08H1.2v1.18H0ZM1.8,24.8h3V26h-3ZM.6,26H1.8v1.18H.6ZM0,27.16H1.2v1.18H0Zm1.8,4.73h3v1.18h-3ZM.6,33.07H1.8v1.18H.6ZM0,34.25H1.2v1.18H0ZM1.8,39h3v1.18h-3ZM.6,40.15H1.8v1.19H.6ZM0,41.34H1.2v1.18H0Zm1.8,4.72h3v1.18h-3ZM.6,47.24H1.8v1.18H.6ZM0,48.42H1.2V49.6H0Zm1.8,4.73h3v1.18h-3ZM.6,54.33H1.8v1.18H.6ZM0,55.51H1.2v1.18H0Z"/></g></g></g></svg>