<?xml version="1.0" encoding="utf-8"?>
<!-- Generator: Adobe Illustrator 25.2.0, SVG Export Plug-In . SVG Version: 6.00 Build 0)  -->
<svg version="1.1" id="Layer_1" xmlns:ev="http://www.w3.org/2001/xml-events"
	 xmlns="http://www.w3.org/2000/svg" xmlns:xlink="http://www.w3.org/1999/xlink" x="0px" y="0px" viewBox="0 0 72.4 92.9"
	 style="enable-background:new 0 0 72.4 92.9;" xml:space="preserve">
<style type="text/css">
	.st0{fill-rule:evenodd;clip-rule:evenodd;fill:#FFFFFF;}
	.st1{fill-rule:evenodd;clip-rule:evenodd;fill:#3999C6;}
	.st2{fill-rule:evenodd;clip-rule:evenodd;fill:#A0A1A2;}
	.st3{fill-rule:evenodd;clip-rule:evenodd;fill:#59B4D9;}
	.st4{fill-rule:evenodd;clip-rule:evenodd;fill:#7A7A7A;}
	.st5{fill-rule:evenodd;clip-rule:evenodd;}
</style>
<g>
	<g id="group3607-1" transform="translate(7.83454,-28.3465)">
		<g id="group3608-2">
			<g id="group3609-3">
				<g id="group3610-4" transform="translate(4.82304,-4.65209)">
					<g id="shape3611-5">
						<path class="st0" d="M21,45.6c-6.2,0.6-12,3.7-15.9,8.6c-4,4.8-5.8,11-5.1,17.2c0.7,6.2,3.8,11.8,8.6,15.7
							c4.7,3.8,10.9,5.8,17.4,5.1s12.1-3.9,15.9-8.6c3.8-4.7,5.8-10.7,5.1-17.2c-0.7-6.5-4-12-8.8-15.9c-4-3.2-9.2-5.1-14.7-5.1
							C22.8,45.5,21.9,45.5,21,45.6z"/>
					</g>
				</g>
				<g id="group3612-7" transform="translate(16.3368,-2.84217E-13)">
					<g id="shape3613-8">
						<path class="st1" d="M40.4,61.3c-0.8-7.8-4.9-14.5-10.6-19.1c-1.1-0.9-2.3-1.7-3.5-2.4L24,44.1c0.9,0.5,1.9,1.2,2.7,1.8
							c4.8,3.8,8.1,9.4,8.8,15.9c0.7,6.4-1.3,12.5-5.1,17.2c-3.8,4.7-9.4,7.9-15.9,8.6c-4.4,0.4-8.5-0.3-12.3-2L0,89.8
							c4.5,2.1,9.7,3.1,15,2.5c7.5-0.8,14.4-4.5,19.2-10.3C38.9,76.2,41.2,68.7,40.4,61.3z"/>
					</g>
				</g>
				<g id="group3614-10" transform="translate(2.8777E-13,-3.05813)">
					<g id="shape3615-11">
						<path class="st2" d="M13.5,85.5c-4.9-3.9-8-9.6-8.6-15.8C4.2,63.6,6,57.4,10,52.6c3.9-4.8,9.7-7.9,15.9-8.5
							c5.3-0.5,10.3,0.6,14.5,3.1l2.2-4.3c-5.2-3-11.2-4.3-17.2-3.6C17.8,40,10.9,43.7,6.2,49.6l0,0c-4.8,5.8-7,13.3-6.2,20.7
							c0.8,7.4,4.5,14.3,10.4,19c1.8,1.5,3.8,2.7,5.9,3.6l2.2-4.3C16.7,87.8,15,86.8,13.5,85.5z"/>
					</g>
				</g>
				<g id="group3616-13" transform="translate(2.8777E-13,-3.05813)">
					<g id="shape3617-14">
						<path class="st3" d="M13.5,85.5c-4.9-3.9-8-9.6-8.6-15.8C4.2,63.6,6,57.4,10,52.6c3.9-4.8,9.7-7.9,15.9-8.5
							c5.3-0.5,10.3,0.6,14.5,3.1l2.2-4.3c-5.2-3-11.2-4.3-17.2-3.6C17.8,40,10.9,43.7,6.2,49.6l0,0c-4.8,5.8-7,13.3-6.2,20.7
							c0.8,7.4,4.5,14.3,10.4,19c1.8,1.5,3.8,2.7,5.9,3.6l2.2-4.3C16.7,87.8,15,86.8,13.5,85.5z"/>
					</g>
				</g>
				<g id="group3618-16" transform="translate(27.9395,-21.2217)">
					<g id="shape3619-17">
						<path class="st4" d="M12.4,92.9L1.4,89c-1.2-0.4-1.9-1.6-1.5-2.8c0.4-1.2,1.7-1.9,2.9-1.5c0.1,0,0.1,0,0.2,0.1l10.9,3.9
							c1.2,0.4,1.9,1.6,1.5,2.8c-0.4,1.2-1.7,1.9-2.9,1.5C12.5,92.9,12.4,92.9,12.4,92.9z"/>
					</g>
				</g>
				<g id="group3620-19" transform="translate(25.8392,-25.4945)">
					<g id="shape3621-20">
						<path class="st4" d="M2.3,92.9c-1.3,0-2.3-1-2.3-2.3c0,0,0,0,0,0V71.4c0-1.2,1-2.3,2.2-2.3c1.3,0,2.3,1,2.3,2.2
							c0,0,0,0.1,0,0.1v19.2C4.6,91.9,3.5,92.9,2.3,92.9C2.3,92.9,2.3,92.9,2.3,92.9z"/>
					</g>
				</g>
				<g id="group3622-22" transform="translate(24.7891,-24.4585)">
					<g id="shape3623-23">
						<ellipse class="st5" cx="3.3" cy="89.6" rx="3.3" ry="3.3"/>
					</g>
				</g>
				<g id="group3624-25" transform="translate(13.4155,-14.1809)">
					<g id="shape3625-26">
						<path class="st4" d="M0.9,63.6l2.9,2.8l-0.9,0.9L0,64.6L0.9,63.6z M14.3,58.2h1.3v4h-1.3V58.2z M28.8,63.8l0.9,0.9l-2.9,2.8
							l-0.9-0.9L28.8,63.8z M31,77.8h4v1.3h-4V77.8z M26.6,89.1l2.9,2.8l-0.9,0.9L25.7,90L26.6,89.1z"/>
					</g>
				</g>
				<g id="group3626-28" transform="translate(13.4155,-8.81087)">
					<g id="shape3627-29">
						<path class="st4" d="M26.6,83.7l2.9,2.8l-0.9,0.9l-2.9-2.8L26.6,83.7z M14.3,88.9h1.3v4h-1.3V88.9z M0.9,58.3l2.9,2.8L2.9,62
							L0,59.2L0.9,58.3z M3.1,83.9L4,84.8l-2.9,2.8l-0.9-0.9L3.1,83.9z"/>
					</g>
				</g>
				<g id="group3628-31" transform="translate(7.99508,-14.0624)">
					<g id="shape3629-32">
						<path class="st4" d="M8.5,89.1L9.4,90l-2.9,2.8L5.6,92L8.5,89.1z M0,77.7h4.1v1.3H0V77.7z"/>
					</g>
				</g>
			</g>
		</g>
	</g>
</g>
</svg>
