<?xml version="1.0" encoding="UTF-8" standalone="no"?>
<!DOCTYPE svg PUBLIC "-//W3C//DTD SVG 1.1//EN" "http://www.w3.org/Graphics/SVG/1.1/DTD/svg11.dtd">
<!-- Generated by Microsoft Visio, SVG Export Adaptive Network Hardening.svg Page-1 -->
<svg xmlns="http://www.w3.org/2000/svg" xmlns:xlink="http://www.w3.org/1999/xlink" xmlns:ev="http://www.w3.org/2001/xml-events"
		width="1.55137in" height="1.56747in" viewBox="0 0 111.699 112.858" xml:space="preserve" color-interpolation-filters="sRGB"
		class="st8">
	<style type="text/css">
	<![CDATA[
		.st1 {fill:#c7e4f0;stroke:none;stroke-linecap:butt;stroke-width:27.8182}
		.st2 {fill:#59b4d9;stroke:none;stroke-linecap:butt;stroke-width:27.8182}
		.st3 {fill:#b8d432;stroke:none;stroke-linecap:butt;stroke-width:27.8182}
		.st4 {fill:#57a300;stroke:none;stroke-linecap:butt;stroke-width:27.8182}
		.st5 {fill:#ffffff;fill-opacity:0.25;stroke:none;stroke-linecap:butt;stroke-width:27.8182}
		.st6 {fill:#429ec9;stroke:none;stroke-linecap:butt;stroke-width:27.8182}
		.st7 {fill:#74b7d7;stroke:none;stroke-linecap:butt;stroke-width:27.8182}
		.st8 {fill:none;fill-rule:evenodd;font-size:12px;overflow:visible;stroke-linecap:square;stroke-miterlimit:3}
	]]>
	</style>

	<g>
		<title>Page-1</title>
		<g id="group3590-1" transform="translate(27.8184,-28.3465)">
			<title>Adaptive Network Hardening</title>
			<g id="group3591-2">
				<title> ASC_Adaptive-network-hardening</title>
				<g id="shape3592-3" transform="translate(0.786958,-1.22109)">
					<title>Sheet.3592</title>
					<path d="M19.82 112.85 L30.51 92.48 L30.97 80.06 L30.97 79.6 L39.18 79.6 L39.18 70.1 A1.22254 1.20959 -180 0
								 0 37.94 68.88 L37.63 68.88 C36.86 69.03 35.93 69.03 35.15 69.03 C28.96 69.03 23.39 65.5 20.75 59.83
								 C20.44 59.53 20.13 59.53 19.67 59.53 L19.51 59.53 C19.2 59.53 18.43 59.83 18.43 59.83 C15.8 65.35
								 10.07 68.88 3.87 68.88 C3.1 68.88 2.33 68.88 1.55 68.72 L1.24 68.72 C0.46 68.72 0 69.18 0 69.95
								 L0 93.7 C0 95.39 0.31 96.77 1.08 98.15 L1.39 98.3 A35.2214 34.8484 -180 0 0 18.27 112.4 C18.27 112.4
								 19.05 112.55 19.82 112.86 L19.82 112.85 Z" class="st1"/>
				</g>
				<g id="shape3593-5" transform="translate(25.4092,-0.152277)">
					<title>Sheet.3593</title>
					<path d="M30.2 109.49 L20.75 92.33 L20.75 85.43 L20.91 85.43 C21.99 85.43 22.92 84.51 22.92 83.28 C22.92 82.06
								 21.99 81.14 20.91 81.14 L10.53 81.14 C9.45 81.14 8.52 82.06 8.52 83.28 C8.52 84.51 9.45 85.43 10.53
								 85.43 L10.69 85.43 L10.69 92.33 L1.08 109.49 C0 111.33 0.93 112.86 2.94 112.86 L28.19 112.86 C30.35
								 112.86 31.28 111.33 30.2 109.49 L30.2 109.49 Z" class="st2"/>
				</g>
				<g id="shape3594-7" transform="translate(30.52,-3.8299)">
					<title>Sheet.3594</title>
					<path d="M3.87 105.81 L0 112.86 L21.22 112.86 L17.19 105.81 L3.87 105.81 Z" class="st3"/>
				</g>
				<g id="shape3595-9" transform="translate(39.6615,-5.66584)">
					<title>Sheet.3595</title>
					<path d="M1.86 110.4 C2.94 110.4 3.71 109.48 3.71 108.41 C3.71 108.11 3.71 107.8 3.56 107.49 L0.15 107.49 C0
								 107.8 0 108.11 0 108.41 C0 109.64 0.93 110.4 1.86 110.4 L1.86 110.4 ZM5.26 111.94 a0.929249 0.919407
								 0 0 1 -1.8585 0 a0.929249 0.919407 0 1 1 1.8585 0 Z" class="st4"/>
				</g>
				<g id="shape3596-11" transform="translate(25.5631,1.42109E-14)">
					<title>Sheet.3596</title>
					<path d="M0.93 109.34 L10.38 92.17 L10.38 85.28 L10.22 85.28 C9.14 85.28 8.21 84.36 8.21 83.13 C8.21 81.91 9.14
								 80.99 10.22 80.99 L14.71 80.99 L14.71 92.17 L9.76 112.86 L2.94 112.86 C0.77 112.71 0 111.17 0.93
								 109.33 L0.93 109.34 Z" class="st5"/>
				</g>
				<g id="shape3597-13" transform="translate(2.79776E-13,-1.06594)">
					<title>Sheet.3597</title>
					<path d="M20.45 112.85 L22 110.1 C22 110.1 21.54 110.25 20.92 110.4 L19.99 110.1 C13.02 107.34 7.44 102.74 3.73
								 96.46 L3.57 96.31 C2.95 95.08 2.64 94.01 2.64 92.63 L2.64 68.88 L2.8 68.88 C3.57 69.03 4.5 69.03
								 5.12 69.03 C11.62 69.03 17.66 65.35 20.61 59.68 L21.07 59.68 C23.86 65.51 29.9 69.18 36.4 69.18
								 C37.18 69.18 38.11 69.18 38.88 69.03 L39.19 69.03 L39.19 79.45 L41.67 79.45 L41.67 69.03 A2.44509
								 2.41919 -180 0 0 39.19 66.58 L38.72 66.58 C38.11 66.73 37.18 66.73 36.55 66.73 C30.82 66.73 25.71
								 63.36 23.23 58.31 L22.92 58 A2.56415 2.53699 -180 0 0 21.06 57.23 L20.75 57.23 C20.29 57.23 19.82
								 57.38 19.51 57.54 L18.43 58.61 C15.95 63.51 10.69 66.73 5.11 66.73 C4.34 66.73 3.72 66.73 2.94 66.58
								 L2.48 66.58 A2.44509 2.41919 -180 0 0 0 69.03 L0 92.78 C0 94.62 0.46 96.15 1.24 97.84 L1.39 98.15
								 C5.42 104.74 11.46 109.64 18.9 112.55 C19.21 112.24 19.98 112.55 20.44 112.86 L20.45 112.85 Z"
							class="st6"/>
				</g>
				<g id="shape3598-15" transform="translate(2.33183,-3.8299)">
					<title>Sheet.3598</title>
					<path d="M0 89.11 L0 95.08 C0 96.62 0.31 98.15 0.93 99.37 L1.08 99.53 C4.65 105.5 10.06 109.79 16.57 112.4 C16.57
								 112.4 17.19 112.55 17.81 112.86 L17.81 89.11 L0 89.11 L0 89.11 ZM29.43 82.52 L29.43 82.06 L36.86
								 82.06 L37.02 73.02 L37.02 72.71 C37.02 71.94 36.71 71.18 35.93 71.18 L35.47 71.18 C34.69 71.33 33.61
								 71.33 32.83 71.33 C26.64 71.33 21.68 67.65 18.74 61.53 C18.43 61.53 18.43 61.53 18.12 61.68 L18.12
								 89.41 L29.43 89.41 L29.43 82.52 L29.43 82.52 Z" class="st7"/>
				</g>
			</g>
		</g>
	</g>
</svg>
