<?xml version="1.0" encoding="UTF-8" standalone="no"?>
<!DOCTYPE svg PUBLIC "-//W3C//DTD SVG 1.1//EN" "http://www.w3.org/Graphics/SVG/1.1/DTD/svg11.dtd">
<!-- Generated by Microsoft Visio, SVG Export ADFS.svg Page-1 -->
<svg xmlns="http://www.w3.org/2000/svg" xmlns:xlink="http://www.w3.org/1999/xlink" xmlns:ev="http://www.w3.org/2001/xml-events"
		width="0.805724in" height="1.25984in" viewBox="0 0 58.0121 90.7087" xml:space="preserve" color-interpolation-filters="sRGB"
		class="st2">
	<style type="text/css">
	<![CDATA[
		.st1 {fill:#59b4d9;stroke:none;stroke-linecap:butt;stroke-width:0.9717}
		.st2 {fill:none;fill-rule:evenodd;font-size:12px;overflow:visible;stroke-linecap:square;stroke-miterlimit:3}
	]]>
	</style>

	<g>
		<title>Page-1</title>
		<g id="group3570-1" transform="translate(4.8189,-28.3465)">
			<title>ADFS</title>
			<g id="group3571-2">
				<title>Page-1</title>
				<g id="group3572-3">
					<title>ADFS</title>
					<g id="group3573-4">
						<title>Sheet.3573</title>
						<g id="group3574-5">
							<title>Sheet.3574</title>
							<g id="group3575-6" transform="translate(10.9273,-0.145043)">
								<title>Sheet.3575</title>
								<g id="shape3576-7">
									<title>Sheet.3576</title>
									<path d="M36.54 88.63 L19.94 62.49 C19.2 61.37 18.04 61.37 17.32 62.49 L0.73 88.63 C0 89.74 0.58
												 90.56 2.04 90.56 L35.22 90.56 C36.68 90.71 37.26 89.74 36.54 88.63 ZM28.39 88.08
												 L21.11 88.08 L21.11 83.94 L24.03 83.94 L24.03 81.17 L19.66 81.17 L18.19 81.17 L13.83
												 81.17 L13.83 83.94 L16.74 83.94 L16.74 88.08 L9.47 88.08 L9.47 83.94 L12.39 83.94
												 L12.39 79.8 L13.85 79.8 L18.19 79.8 L18.19 77.02 L15.27 77.02 L15.27 72.89 L22.55
												 72.89 L22.55 77.02 L19.63 77.02 L19.63 79.8 L23.99 79.8 L25.45 79.8 L25.45 83.94
												 L28.37 83.94 L28.37 88.08 L28.39 88.08 Z" class="st1"/>
								</g>
							</g>
							<g id="group3577-9">
								<title>Sheet.3577</title>
								<g id="shape3578-10">
									<title>Sheet.3578</title>
									<path d="M26.21 34.02 L2.92 34.02 C1.32 34.02 0 35.25 0 36.78 L0 90.71 L8.15 90.71 C8.15 90.16
												 8.29 89.47 8.73 88.9 L11.05 85.16 L4.34 85.16 L4.34 82.4 L12.79 82.4 L14.54 79.62
												 L4.34 79.62 L4.34 76.85 L16.29 76.85 L26.63 60.53 C27.2 59.58 28.09 59.03 29.1 58.88
												 L29.1 36.64 C29.11 35.25 27.81 34.02 26.21 34.02 ZM24.75 45.07 L4.38 45.07 L4.38
												 42.29 L24.75 42.29 C24.75 42.31 24.75 45.07 24.75 45.07 Z" class="st1"/>
								</g>
							</g>
						</g>
					</g>
				</g>
			</g>
		</g>
	</g>
</svg>
