<?xml version="1.0" encoding="UTF-8" standalone="no"?>
<!DOCTYPE svg PUBLIC "-//W3C//DTD SVG 1.1//EN" "http://www.w3.org/Graphics/SVG/1.1/DTD/svg11.dtd">
<!-- Generated by Microsoft Visio, SVG Export ADFS Proxy.svg Page-1 -->
<svg xmlns="http://www.w3.org/2000/svg" xmlns:xlink="http://www.w3.org/1999/xlink" xmlns:ev="http://www.w3.org/2001/xml-events"
		width="0.764195in" height="1.25984in" viewBox="0 0 55.0221 90.7087" xml:space="preserve" color-interpolation-filters="sRGB"
		class="st2">
	<style type="text/css">
	<![CDATA[
		.st1 {fill:#59b4d9;stroke:none;stroke-linecap:butt;stroke-width:0.971698}
		.st2 {fill:none;fill-rule:evenodd;font-size:12px;overflow:visible;stroke-linecap:square;stroke-miterlimit:3}
	]]>
	</style>

	<g>
		<title>Page-1</title>
		<g id="group3579-1" transform="translate(4.53543,-28.3465)">
			<title>ADFS Proxy</title>
			<g id="group3580-2">
				<title>Page-1</title>
				<g id="group3581-3">
					<title>ADFS Proxy</title>
					<g id="group3582-4">
						<title>Sheet.3582</title>
						<g id="shape3583-5">
							<title>Sheet.3583</title>
							<path d="M20.62 84.72 L5.41 84.72 L5.41 82.37 L20.75 82.37 L20.75 77.67 L5.41 77.67 L5.41 75.33 L20.49
										 75.33 L15.34 69.85 L23.33 61.38 L27.57 61.38 L27.57 59.04 L22.04 59.04 C20.75 59.04 19.58
										 58.38 19.07 57.47 C18.42 56.43 18.55 55.13 19.2 53.96 L27.44 38.71 C27.06 37.54 25.9 36.62
										 24.62 36.62 L3.1 36.62 C1.42 36.62 0 38.05 0 39.75 L0 90.71 L27.44 90.71 L27.44 84.58 L22.16
										 84.58 L20.62 84.58 L20.62 84.72 ZM5.41 43.66 L22.16 43.66 L22.16 46.01 L5.41 46.01 L5.41
										 43.66 Z" class="st1"/>
						</g>
					</g>
					<g id="group3584-7" transform="translate(18.4266,-14.5972)">
						<title>Sheet.3584</title>
						<g id="shape3585-8">
							<title>Sheet.3585</title>
							<path d="M5.16 83.02 L9.66 78.46 L5.92 78.46 L0 84.58 L5.92 90.71 L9.66 90.71 L5.16 86.15 L8.89 86.15
										 L19.07 86.15 L19.07 83.02 L8.89 83.02 L5.16 83.02 Z" class="st1"/>
						</g>
					</g>
					<g id="group3586-10" transform="translate(22.9366,-3.77962)">
						<title>Sheet.3586</title>
						<g id="shape3587-11">
							<title>Sheet.3587</title>
							<path d="M12.89 78.46 L9.02 78.46 L13.53 83.02 L9.79 83.02 L0 83.02 L0 86.15 L9.79 86.15 L13.53 86.15
										 L9.02 90.71 L12.89 90.71 L18.68 84.58 L12.89 78.46 Z" class="st1"/>
						</g>
					</g>
					<g id="group3588-13" transform="translate(20.6172,-33.8862)">
						<title>Sheet.3588</title>
						<g id="shape3589-14">
							<title>Sheet.3589</title>
							<path d="M13.27 68.81 C12.76 67.9 11.99 67.9 11.47 68.81 L0.52 89.14 C0 90.06 0.39 90.71 1.42 90.71 L23.33
										 90.71 C24.36 90.71 24.74 90.06 24.23 89.14 L13.27 68.81 ZM12.37 74.16 C13.53 74.16 14.56
										 75.2 14.56 76.37 C14.56 77.54 13.53 78.59 12.37 78.59 C11.21 78.59 10.18 77.54 10.18 76.37
										 C10.18 75.07 11.21 74.16 12.37 74.16 ZM16.88 83.54 C16.36 83.68 15.98 83.8 15.72 84.06 L13.02
										 78.98 C13.4 78.85 13.79 78.71 14.05 78.33 L16.88 83.54 ZM10.44 78.46 C10.7 78.71 11.08 78.98
										 11.47 79.11 L8.76 84.19 C8.5 83.93 8.12 83.68 7.6 83.68 L10.44 78.46 ZM7.21 88.5 C6.05 88.5
										 5.03 87.45 5.03 86.28 C5.03 85.1 6.05 84.06 7.21 84.06 C8.37 84.06 9.41 85.1 9.41 86.28
										 C9.28 87.59 8.37 88.5 7.21 88.5 ZM14.69 86.93 L9.92 86.93 C10.05 86.67 10.05 86.54 10.05
										 86.28 C10.05 86.02 10.05 85.89 9.92 85.63 L14.69 85.63 C14.56 85.89 14.56 86.02 14.56 86.28
										 C14.56 86.54 14.56 86.8 14.69 86.93 ZM17.39 88.5 C16.23 88.5 15.21 87.45 15.21 86.28 C15.21
										 85.1 16.23 84.06 17.39 84.06 C18.55 84.06 19.58 85.1 19.58 86.28 C19.46 87.59 18.55 88.5
										 17.39 88.5 Z" class="st1"/>
						</g>
					</g>
				</g>
			</g>
		</g>
	</g>
</svg>
