<?xml version="1.0" encoding="UTF-8" standalone="no"?>
<!DOCTYPE svg PUBLIC "-//W3C//DTD SVG 1.1//EN" "http://www.w3.org/Graphics/SVG/1.1/DTD/svg11.dtd">
<!-- Generated by Microsoft Visio, SVG Export All Resources.svg Page-1 -->
<svg xmlns="http://www.w3.org/2000/svg" xmlns:xlink="http://www.w3.org/1999/xlink" xmlns:ev="http://www.w3.org/2001/xml-events"
		width="1.73185in" height="1.73185in" viewBox="0 0 124.693 124.693" xml:space="preserve" color-interpolation-filters="sRGB"
		class="st2">
	<style type="text/css">
	<![CDATA[
		.st1 {fill:url(#grad0-5);stroke:none;stroke-linecap:butt;stroke-width:34}
		.st2 {fill:none;fill-rule:evenodd;font-size:12px;overflow:visible;stroke-linecap:square;stroke-miterlimit:3}
	]]>
	</style>

	<defs id="Patterns_And_Gradients">
		<linearGradient id="grad0-5" x1="0" y1="0" x2="1" y2="0" gradientTransform="rotate(-90 0.5 0.5)">
			<stop offset="0" stop-color="#5e9624" stop-opacity="1"/>
			<stop offset="0.01" stop-color="#5e9724" stop-opacity="1"/>
			<stop offset="0.35" stop-color="#6cab29" stop-opacity="1"/>
			<stop offset="0.68" stop-color="#73b82c" stop-opacity="1"/>
			<stop offset="1" stop-color="#76bc2d" stop-opacity="1"/>
		</linearGradient>
	</defs>
	<g>
		<title>Page-1</title>
		<g id="group3556-1" transform="translate(34,-34)">
			<title>All Resources</title>
			<g id="shape3557-2">
				<title>Sheet.3557</title>
				<path d="M19.84 107.69 L36.85 107.69 L36.85 124.69 L19.84 124.69 L19.84 107.69 ZM0 85.01 L17.01 85.01 L17.01 68 L2.37
							 68 A2.37402 2.37402 -180 0 0 0 70.37 L0 85.01 ZM2.37 124.69 L17.01 124.69 L17.01 107.69 L0 107.69 L0
							 122.32 A2.37402 2.37402 -180 0 0 2.37 124.69 ZM0 104.85 L17.01 104.85 L17.01 87.84 L0 87.84 L0 104.85
							 ZM39.69 124.69 L54.35 124.69 A2.37402 2.37402 -180 0 0 56.69 122.32 L56.69 107.69 L39.69 107.69 L39.69
							 124.69 ZM19.84 104.85 L36.85 104.85 L36.85 87.84 L19.84 87.84 L19.84 104.85 ZM39.69 104.85 L56.69 104.85
							 L56.69 87.84 L39.69 87.84 L39.69 104.85 ZM39.69 68 L39.69 85.01 L56.69 85.01 L56.69 70.37 A2.37402 2.37402
							 -180 0 0 54.35 68 L39.69 68 ZM19.84 85.01 L36.85 85.01 L36.85 68 L19.84 68 L19.84 85.01 Z" class="st1"/>
			</g>
		</g>
	</g>
</svg>
