<?xml version="1.0" encoding="UTF-8" standalone="no"?>
<!DOCTYPE svg PUBLIC "-//W3C//DTD SVG 1.1//EN" "http://www.w3.org/Graphics/SVG/1.1/DTD/svg11.dtd">
<!-- Generated by Microsoft Visio, SVG Export Application Service Environment.svg Page-1 -->
<svg xmlns="http://www.w3.org/2000/svg" xmlns:xlink="http://www.w3.org/1999/xlink" xmlns:ev="http://www.w3.org/2001/xml-events"
		width="1.73185in" height="1.73185in" viewBox="0 0 124.693 124.693" xml:space="preserve" color-interpolation-filters="sRGB"
		class="st4">
	<style type="text/css">
	<![CDATA[
		.st1 {fill:#949494;stroke:none;stroke-linecap:butt;stroke-width:34}
		.st2 {fill:url(#grad0-8);stroke:none;stroke-linecap:butt;stroke-width:34}
		.st3 {fill:none;stroke:none;stroke-linecap:butt;stroke-width:34}
		.st4 {fill:none;fill-rule:evenodd;font-size:12px;overflow:visible;stroke-linecap:square;stroke-miterlimit:3}
	]]>
	</style>

	<defs id="Patterns_And_Gradients">
		<linearGradient id="grad0-8" x1="0" y1="0" x2="1" y2="0" gradientTransform="rotate(90 0.5 0.5)">
			<stop offset="0.18" stop-color="#5ea0ef" stop-opacity="1"/>
			<stop offset="1" stop-color="#0078d4" stop-opacity="1"/>
		</linearGradient>
	</defs>
	<g>
		<title>Page-1</title>
		<g id="group3462-1" transform="translate(34,-34)">
			<title>Application Service Environment</title>
			<g id="group3463-2">
				<title>Icon-web-47</title>
				<g id="shape3464-3" transform="translate(3.14961,-2.89764)">
					<title>Sheet.3464</title>
					<path d="M23.84 98.27 L0 98.27 L0 77.76 A3.46457 3.46457 0 0 1 3.43 74.3 L23.84 74.3 L23.84 98.27 ZM2.96 95.31
								 L20.88 95.31 L20.88 77.2 L3.43 77.2 a0.472441 0.472441 -180 0 0 -0.472441 0.472441 L2.96 95.31 ZM50.39
								 98.27 L26.55 98.27 L26.55 74.3 L46.96 74.3 A3.46457 3.46457 0 0 1 50.39 77.76 L50.39 98.27 ZM29.51
								 95.31 L47.43 95.31 L47.43 77.76 a0.472441 0.472441 -180 0 0 -0.472441 -0.566929 L29.51 77.2 L29.51
								 95.31 ZM23.84 124.69 L3.43 124.69 A3.43307 3.43307 0 0 1 0 121.29 L0 100.76 L23.84 100.76 L23.84
								 124.69 ZM2.96 103.72 L2.96 121.29 a0.472441 0.472441 -180 0 0 0.472441 0.472441 L20.88 121.76 L20.88
								 103.72 L2.96 103.72 ZM46.96 124.69 L26.55 124.69 L26.55 100.76 L50.39 100.76 L50.39 121.29 A3.43307
								 3.43307 0 0 1 46.96 124.69 ZM29.51 121.73 L46.96 121.73 a0.472441 0.472441 -180 0 0 0.472441 -0.472441
								 L47.43 103.72 L29.51 103.72 L29.51 121.73 Z" class="st1"/>
				</g>
				<g id="shape3465-5" transform="translate(10.5197,-15.2126)">
					<title>Sheet.3465</title>
					<path d="M35.69 116.66 A8.15748 8.15748 -180 0 0 28.72 108.79 A10.2047 10.2047 -180 0 0 18.3 98.96 A10.4567 10.4567
								 -180 0 0 8.38 105.8 A9.70079 9.70079 -180 0 0 0 115.24 A9.79528 9.79528 -180 0 0 10.05 124.69 L27.72
								 124.69 A8.22047 8.22047 -180 0 0 35.69 116.66 Z" class="st2"/>
				</g>
				<g id="shape3466-9">
					<title>Sheet.3466</title>
					<rect x="0" y="68" width="56.6929" height="56.6929" class="st3"/>
				</g>
			</g>
		</g>
	</g>
</svg>
