<?xml version="1.0" encoding="UTF-8" standalone="no"?>
<!DOCTYPE svg PUBLIC "-//W3C//DTD SVG 1.1//EN" "http://www.w3.org/Graphics/SVG/1.1/DTD/svg11.dtd">
<!-- Generated by Microsoft Visio, SVG Export Application Gateway.svg Page-1 -->
<svg xmlns="http://www.w3.org/2000/svg" xmlns:xlink="http://www.w3.org/1999/xlink" xmlns:ev="http://www.w3.org/2001/xml-events"
		width="1.71056in" height="1.71056in" viewBox="0 0 123.16 123.16" xml:space="preserve" color-interpolation-filters="sRGB"
		class="st9">
	<style type="text/css">
	<![CDATA[
		.st1 {fill:url(#grad0-6);stroke:none;stroke-linecap:butt;stroke-width:34}
		.st2 {fill:#ffffff;stroke:none;stroke-linecap:butt;stroke-width:34}
		.st3 {fill:#0078d4}
		.st4 {stroke:none;stroke-linecap:butt;stroke-width:34}
		.st5 {fill:url(#grad0-20);stroke:none;stroke-linecap:butt;stroke-width:34}
		.st6 {fill:#f2f2f2;fill-opacity:0.55;stroke:none;stroke-linecap:butt;stroke-width:34}
		.st7 {fill:none;stroke:none;stroke-linecap:butt;stroke-width:34}
		.st8 {fill:#f2f2f2;stroke:none;stroke-linecap:butt;stroke-width:34}
		.st9 {fill:none;fill-rule:evenodd;font-size:12px;overflow:visible;stroke-linecap:square;stroke-miterlimit:3}
	]]>
	</style>

	<defs id="Patterns_And_Gradients">
		<linearGradient id="grad0-6" x1="0" y1="0" x2="1" y2="0" gradientTransform="rotate(-45 0.5 0.5)">
			<stop offset="0" stop-color="#5e9624" stop-opacity="1"/>
			<stop offset="0.55" stop-color="#6dad2a" stop-opacity="1"/>
			<stop offset="1" stop-color="#76bc2d" stop-opacity="1"/>
		</linearGradient>
		<linearGradient id="grad0-20" x1="0" y1="0" x2="1" y2="0" gradientTransform="rotate(-90.454718861693 0.5 0.5)">
			<stop offset="0" stop-color="#cccccc" stop-opacity="1"/>
			<stop offset="0.12" stop-color="#d7d7d7" stop-opacity="1"/>
			<stop offset="0.42" stop-color="#ebebeb" stop-opacity="1"/>
			<stop offset="0.72" stop-color="#f8f8f8" stop-opacity="1"/>
			<stop offset="1" stop-color="#fcfcfc" stop-opacity="1"/>
		</linearGradient>
	</defs>
	<g>
		<title>Page-1</title>
		<g id="group3507-1" transform="translate(33.2336,-33.2336)">
			<title>Application Gateway</title>
			<g id="group3508-2">
				<title>Icon-networking-76</title>
				<g id="shape3509-3" transform="translate(-58.7409,36.0728) rotate(-45)">
					<title>Sheet.3509</title>
					<path d="M0 121.31 A1.85026 1.85026 -180 0 0 1.85 123.16 L38.24 123.16 A1.85026 1.85026 -180 0 0 40.09 121.31
								 L40.09 84.92 A1.85026 1.85026 -180 0 0 38.24 83.07 L1.85 83.07 A1.85026 1.85026 -180 0 0 -0 84.92
								 L0 121.31 Z" class="st1"/>
				</g>
				<g id="group3510-7" transform="translate(12.1473,-8.55108)">
					<title>Sheet.3510</title>
					<g id="shape3511-8" transform="translate(13.6671,-14.8945)">
						<title>Sheet.3511</title>
						<path d="M8.7 123.16 L17.92 123.16 a0.357059 0.357059 -180 0 0 0.324599 -0.357059 L18.24 113.62 a0.324599
									 0.324599 -180 0 0 -0.584278 -0.227219 L15.12 115.92 L15.12 116.08 a0.324599 0.324599 0 0 1 -0.454438
									 -1.42109E-14 L3.41 104.98 a0.324599 0.324599 -180 0 0 -0.454438 -5.68434E-14 L0.1 107.84 a0.357059
									 0.357059 -180 0 0 1.45439E-14 0.486898 L11.16 119.39 a0.357059 0.357059 0 0 1 1.59872E-14 0.486898
									 L11 120.04 L8.47 122.58 a0.357059 0.357059 -180 0 0 0.227219 0.584278 Z" class="st2"/>
					</g>
					<g id="shape3512-10" transform="translate(0,-14.8945)">
						<title>Sheet.3512</title>
						<path d="M9.48 123.16 L0.26 123.16 a0.357059 0.357059 0 0 1 -0.259679 -0.357059 L0 113.62 a0.324599 0.324599
									 0 0 1 0.551818 -0.227219 L3.12 115.92 L3.12 116.08 a0.324599 0.324599 -180 0 0 0.454438 1.42109E-14
									 L14.77 104.98 a0.324599 0.324599 0 0 1 0.454438 8.52651E-14 L18.08 107.84 a0.357059 0.357059
									 0 0 1 3.55271E-15 0.486898 L7.01 119.39 a0.357059 0.357059 -180 0 0 -1.77636E-15 0.486898 L7.01
									 120.04 L9.54 122.58 a0.357059 0.357059 0 0 1 -0.0649197 0.584278 Z" class="st2"/>
					</g>
					<g id="shape3513-12" transform="translate(9.08531,0)">
						<title>Sheet.3513</title>
						<path d="M0.07 116.58 L6.56 123.07 a0.324599 0.324599 -180 0 0 0.454438 0 L13.51 116.58 a0.324599 0.324599
									 -180 0 0 -0.227219 -0.551818 L9.48 116.02 a0.357059 0.357059 0 0 1 -0.324599 -0.324599 L9.16
									 100.12 a0.324599 0.324599 -180 0 0 -0.324599 -0.357059 L4.81 99.76 a0.357059 0.357059 -180 0
									 0 -0.357059 0.357059 L4.45 115.7 a0.324599 0.324599 0 0 1 -0.324599 0.324599 L0.3 116.02 a0.324599
									 0.324599 -180 0 0 -0.227219 0.551818 Z" class="st2"/>
					</g>
				</g>
				<g id="shape3514-14" transform="translate(21.6361,-32.2422)">
					<title>Sheet.3514</title>
					<path d="M12.1 123.1 A8.79663 8.79663 0 0 1 1.32 109.2 A8.79663 8.79663 0 0 1 12 123.16 L12.1 123.1 Z"
							class="st3"/>
					<path d="M12.1 123.1 A8.79663 8.79663 0 0 1 1.32 109.2 A8.79663 8.79663 0 0 1 12 123.16" class="st4"/>
				</g>
				<g id="shape3515-17" transform="translate(20.7816,-36.7217)">
					<title>Sheet.3515</title>
					<ellipse cx="2.82401" cy="120.336" rx="2.82401" ry="2.82401" class="st5"/>
				</g>
				<g id="shape3516-21" transform="translate(20.7816,-32.9888)">
					<title>Sheet.3516</title>
					<path d="M0.03 121.31 L0.65 122.28 L1.1 122.93 A19.2812 19.2812 0 0 1 2.21 119.36 A2.75909 2.75909 0 0 1 0.75
								 118.62 A21.7806 21.7806 -180 0 0 0.03 121.31 ZM1.88 113.94 A12.9839 12.9839 0 0 1 1.1 110.92 A8.05005
								 8.05005 -180 0 0 0 112.42 A11.3934 11.3934 -180 0 0 0.65 114.82 A3.24599 3.24599 0 0 1 1.88 113.94
								 ZM4.9 118.52 A2.82401 2.82401 0 0 1 3.34 119.36 A14.9965 14.9965 -180 0 0 4.84 120.69 A13.4384 13.4384
								 -180 0 0 6.95 121.96 L6.95 121.73 A1.72037 1.72037 0 0 1 7.6 120.43 A11.6856 11.6856 0 0 1 4.9 118.52
								 ZM13.41 121.96 A13.4384 13.4384 0 0 1 10.58 121.63 A1.78529 1.78529 0 0 1 10.06 122.9 A12.4646 12.4646
								 -180 0 0 13.57 123.16 A9.51074 9.51074 -180 0 0 14.77 121.8 L13.41 121.96 Z" class="st6"/>
				</g>
				<g id="shape3517-23" transform="translate(27.728,-32.5993)">
					<title>Sheet.3517</title>
					<ellipse cx="1.81775" cy="121.342" rx="1.81775" ry="1.81775" class="st7"/>
				</g>
				<g id="shape3518-25" transform="translate(31.7531,-36.9813)">
					<title>Sheet.3518</title>
					<ellipse cx="1.94759" cy="121.213" rx="1.94759" ry="1.94759" class="st8"/>
				</g>
				<g id="shape3519-27" transform="translate(24.6444,-36.1374)">
					<title>Sheet.3519</title>
					<path d="M4.41 116.08 A13.9253 13.9253 0 0 1 10.52 114.72 A7.27101 7.27101 -180 0 0 8.99 113.26 A14.6069 14.6069
								 -180 0 0 4.15 114.4 C3.83 114.4 3.54 114.75 3.21 114.92 A18.989 18.989 0 0 1 1.17 111.9 L0.06 112.32
								 A17.366 17.366 -180 0 0 2.17 115.56 A12.7243 12.7243 -180 0 0 -0 117.35 A2.82401 2.82401 0 0 1 1.4
								 118.49 A10.6793 10.6793 0 0 1 3.38 116.93 A29.7332 29.7332 -180 0 0 7.17 120.17 A1.85021 1.85021
								 0 0 1 7.82 119.14 A27.3961 27.3961 0 0 1 4.41 116.08 ZM12.01 121.5 L11.43 121.5 L11.1 121.31 A1.98005
								 1.98005 0 0 1 10.45 122.28 L10.84 122.51 L11.2 122.71 L12.11 123.16 A11.6206 11.6206 -180 0 0 12.4
								 122.02 L12.01 121.5 Z" class="st6"/>
				</g>
				<g id="shape3520-29" transform="translate(20.7816,-36.7217)">
					<title>Sheet.3520</title>
					<ellipse cx="2.82401" cy="120.336" rx="2.82401" ry="2.82401" class="st8"/>
				</g>
				<g id="shape3521-31" transform="translate(27.728,-32.5993)">
					<title>Sheet.3521</title>
					<ellipse cx="1.81775" cy="121.342" rx="1.81775" ry="1.81775" class="st8"/>
				</g>
			</g>
		</g>
	</g>
</svg>
