<?xml version="1.0" encoding="UTF-8" standalone="no"?>
<!DOCTYPE svg PUBLIC "-//W3C//DTD SVG 1.1//EN" "http://www.w3.org/Graphics/SVG/1.1/DTD/svg11.dtd">
<!-- Generated by Microsoft Visio, SVG Export Application Configuration.svg Page-1 -->
<svg xmlns="http://www.w3.org/2000/svg" xmlns:xlink="http://www.w3.org/1999/xlink" xmlns:ev="http://www.w3.org/2001/xml-events"
		width="1.1274in" height="1.3511in" viewBox="0 0 81.1729 97.2794" xml:space="preserve" color-interpolation-filters="sRGB"
		class="st5">
	<style type="text/css">
	<![CDATA[
		.st1 {fill:#59b4d9;stroke:none;stroke-linecap:butt;stroke-width:12.24}
		.st2 {fill:#fcd116;stroke:none;stroke-linecap:butt;stroke-width:12.24}
		.st3 {fill:#57a300;stroke:none;stroke-linecap:butt;stroke-width:12.24}
		.st4 {fill:#ffffff;fill-opacity:0.2;stroke:none;stroke-linecap:butt;stroke-width:12.24}
		.st5 {fill:none;fill-rule:evenodd;font-size:12px;overflow:visible;stroke-linecap:square;stroke-miterlimit:3}
	]]>
	</style>

	<g>
		<title>Page-1</title>
		<g id="group3522-1" transform="translate(12.24,-28.3465)">
			<title>Application Configuration</title>
			<g id="group3523-2">
				<title> Azure_AppConfiguration</title>
				<g id="shape3524-3" transform="translate(-2.79776E-13,-18.8826)">
					<title>Sheet.3524</title>
					<path d="M48.66 75.35 C48.66 74.91 48.77 74.35 48.77 73.9 A14.23 14.3959 -180 0 0 34.39 59.58 A13.9547 14.1174
								 -180 0 0 22.78 65.4 A10.2909 10.4109 -180 0 0 17.03 63.72 A10.8315 10.9578 -180 0 0 6.2 74.58 L6.2
								 75.47 A10.7224 10.8474 -180 0 0 0 85.31 A11.9759 12.1155 -180 0 0 12.39 97.28 L42.91 97.28 A11.9759
								 12.1155 -180 0 0 55.3 85.31 A10.4893 10.6116 -180 0 0 48.66 75.35 Z" class="st1"/>
				</g>
				<g id="shape3525-5" transform="translate(21.4869,-0.826599)">
					<title>Sheet.3525</title>
					<path d="M4.84 83.1 L6.01 85.9 L3.39 90.54 L6.26 93.45 L11 91.2 L13.77 92.38 L15.21 96.76 L15.36 97.28 L19.44
								 97.28 L21.15 92.38 L23.92 91.2 L28 93.33 L28.51 93.59 L31.38 90.68 L29.2 86.12 L30.36 83.32 L34.7
								 81.85 L35.21 81.7 L35.21 77.57 L30.37 75.84 L29.21 73.04 L31.31 68.92 L31.57 68.4 L28.8 65.49 L24.21
								 67.74 L21.45 66.56 L19.99 62.18 L19.73 61.66 L15.83 61.66 L14.12 66.56 L11.36 67.74 L7.28 65.61
								 L6.77 65.35 L4.04 68.66 L6.01 72.9 L4.84 75.7 L0.51 77.17 L0 77.43 L0 81.37 L4.84 83.1 ZM11.98 79.53
								 A5.64387 5.70968 0 1 1 17.62 85.24 A5.5794 5.64446 0 0 1 11.98 79.53 Z" class="st2"/>
				</g>
				<g id="shape3526-7" transform="translate(5.36242,-2.84217E-13)">
					<title>Sheet.3526</title>
					<path d="M3.4 92.22 L4.48 93.39 L4.02 96.16 L5.96 97.06 L7.89 95.09 L9.46 95.16 L10.96 97.05 L11.13 97.28 L13.14
								 96.53 L13.1 93.8 L14.25 92.71 L16.65 93.01 L16.94 93.05 L17.84 91.09 L15.94 89.24 L16.02 87.64 L17.89
								 86.12 L18.11 85.96 L17.37 83.93 L14.67 83.96 L13.6 82.8 L13.9 80.38 L13.93 80.08 L12.04 79.15 L10.18
								 81.1 L8.61 81.03 L7.11 79.13 L6.89 78.93 L4.97 79.64 L5.01 82.37 L3.85 83.46 L1.47 83.16 L1.17 83.13
								 L0.42 85.26 L2.15 86.99 L2.08 88.58 L0.2 90.1 L0 90.32 L0.71 92.26 L3.4 92.22 ZM6.28 89.15 A2.96328
								 2.99783 0 1 1 10.08 90.93 A2.92981 2.96397 0 0 1 6.28 89.15 Z" class="st3"/>
				</g>
				<g id="shape3527-9" transform="translate(2.79776E-13,-19.2187)">
					<title>Sheet.3527</title>
					<path d="M7.75 91.13 C7.75 86.54 10.07 82.96 14.38 80.72 L14.38 79.83 A11.6039 11.7392 0 0 1 31.96 69.99 A15.2888
								 15.4671 0 0 1 44.35 63.61 A14.9788 15.1535 -180 0 0 34.39 59.81 A14.349 14.5163 -180 0 0 22.78 65.73
								 A10.2909 10.4109 -180 0 0 17.03 64.06 A10.8315 10.9578 -180 0 0 6.2 74.91 L6.2 75.81 A10.7224 10.8474
								 -180 0 0 0 85.65 A11.7254 11.8621 -180 0 0 9.3 97.28 A12.4148 12.5595 0 0 1 7.75 91.13 Z"
							class="st4"/>
				</g>
			</g>
		</g>
	</g>
</svg>
