<?xml version="1.0" encoding="UTF-8" standalone="no"?>
<!DOCTYPE svg PUBLIC "-//W3C//DTD SVG 1.1//EN" "http://www.w3.org/Graphics/SVG/1.1/DTD/svg11.dtd">
<!-- Generated by Microsoft Visio, SVG Export Application Security Group.svg Page-1 -->
<svg xmlns="http://www.w3.org/2000/svg" xmlns:xlink="http://www.w3.org/1999/xlink" xmlns:ev="http://www.w3.org/2001/xml-events"
		width="1.57437in" height="1.73185in" viewBox="0 0 113.354 124.693" xml:space="preserve" color-interpolation-filters="sRGB"
		class="st11">
	<style type="text/css">
	<![CDATA[
		.st1 {fill:#1b93eb;stroke:none;stroke-linecap:butt;stroke-width:34}
		.st2 {fill:url(#grad0-8);stroke:none;stroke-linecap:butt;stroke-width:34}
		.st3 {fill:#1f56a3;stroke:none;stroke-linecap:butt;stroke-width:34}
		.st4 {fill:#1490df;stroke:none;stroke-linecap:butt;stroke-width:34}
		.st5 {fill:#ffffff;stroke:none;stroke-linecap:butt;stroke-width:34}
		.st6 {fill:#0078d4;stroke:none;stroke-linecap:butt;stroke-width:34}
		.st7 {fill:#83b9f9;stroke:none;stroke-linecap:butt;stroke-width:34}
		.st8 {fill:#5ea0ef;stroke:none;stroke-linecap:butt;stroke-width:34}
		.st9 {fill:#5ea0ef;fill-opacity:0.2;stroke:none;stroke-linecap:butt;stroke-width:34}
		.st10 {fill:#83b9f9;fill-opacity:0.2;stroke:none;stroke-linecap:butt;stroke-width:34}
		.st11 {fill:none;fill-rule:evenodd;font-size:12px;overflow:visible;stroke-linecap:square;stroke-miterlimit:3}
	]]>
	</style>

	<defs id="Patterns_And_Gradients">
		<linearGradient id="grad0-8" x1="0" y1="0" x2="1" y2="0" gradientTransform="rotate(90 0.5 0.5)">
			<stop offset="0" stop-color="#6bb9f2" stop-opacity="1"/>
			<stop offset="1" stop-color="#1b93eb" stop-opacity="1"/>
		</linearGradient>
	</defs>
	<g>
		<title>Page-1</title>
		<g id="group3481-1" transform="translate(34,-34)">
			<title>Application Security Group</title>
			<g id="group3482-2">
				<title>Icon-networking-83</title>
				<g id="shape3483-3">
					<title>Sheet.3483</title>
					<path d="M45.35 94.46 C45.35 109.71 27.33 121.99 23.42 124.48 A1.41732 1.44901 0 0 1 21.94 124.48 C18.02 121.99
								 0 109.71 0 94.46 L0 76.13 A1.41732 1.44901 0 0 1 1.39 74.68 C15.41 74.3 12.17 68 22.68 68 C33.18
								 68 29.95 74.3 43.97 74.68 A1.41732 1.44901 0 0 1 45.35 76.13 L45.35 94.46 Z" class="st1"/>
				</g>
				<g id="shape3484-5" transform="translate(1.87949,-2.35317)">
					<title>Sheet.3484</title>
					<path d="M41.6 96.97 C41.6 110.96 25.08 122.17 21.48 124.5 A1.32489 1.35451 0 0 1 20.12 124.5 C16.51 122.23 0
								 110.96 0 96.97 L0 80.15 A1.29408 1.32301 0 0 1 1.26 78.83 C14.11 78.48 11.15 72.72 20.8 72.72 C30.44
								 72.72 27.48 78.48 40.33 78.83 A1.29408 1.32301 0 0 1 41.6 80.15 L41.6 96.97 Z" class="st2"/>
				</g>
				<g id="shape3485-9" transform="translate(14.05,-14.2935)">
					<title>Sheet.3485</title>
					<path d="M14.94 123.05 C11.49 122.58 11.52 120.28 11.55 116.75 L5.02 116.75 C5.02 120.44 5.02 122.74 1.63 123.05
								 A1.78706 1.82702 -180 0 0 0 124.69 L16.61 124.69 A1.81787 1.85852 -180 0 0 14.94 123.05 Z"
							class="st3"/>
				</g>
				<g id="shape3486-11" transform="translate(7.33311,-22.2946)">
					<title>Sheet.3486</title>
					<path d="M0 123.65 A1.0168 1.03953 -180 0 0 1.02 124.69 L28.93 124.69 A1.0168 1.03953 -180 0 0 29.95 123.65 L29.95
								 104.06 A1.0168 1.03953 -180 0 0 28.93 103.02 L1.02 103.02 A1.0168 1.03953 -180 0 0 0 104.06 L0 123.65
								 Z" class="st4"/>
				</g>
				<g id="shape3487-13" transform="translate(9.05854,-24.3106)">
					<title>Sheet.3487</title>
					<path d="M0 124.19 a0.492993 0.504017 -180 0 0 0.492982 0.504005 L25.97 124.69 a0.492993 0.504017 -180 0 0 0.492982
								 -0.504005 L26.47 107.21 a0.492993 0.504017 -180 0 0 -0.492982 -0.504005 L0.49 106.71 a0.492993 0.504017
								 -180 0 0 -0.492982 0.504005 L0 124.19 Z" class="st5"/>
				</g>
				<g id="shape3488-15" transform="translate(22.3074,-26.9566)">
					<title>Sheet.3488</title>
					<path d="M5.36 115.18 L5.39 121.51 L0 124.69 L0 118.36 L5.36 115.18 Z" class="st6"/>
				</g>
				<g id="shape3489-17" transform="translate(16.9154,-33.2882)">
					<title>Sheet.3489</title>
					<path d="M10.75 121.51 L5.39 124.69 L0 121.51 L5.36 118.33 L10.75 121.51 Z" class="st7"/>
				</g>
				<g id="shape3490-19" transform="translate(16.9154,-26.9566)">
					<title>Sheet.3490</title>
					<path d="M5.39 118.36 L5.36 124.69 L0 121.51 L0 115.18 L5.39 118.36 Z" class="st8"/>
				</g>
				<g id="shape3491-21" transform="translate(22.3074,-26.9566)">
					<title>Sheet.3491</title>
					<path d="M0 118.36 L0 124.69 L5.36 121.51 L0 118.36 Z" class="st9"/>
				</g>
				<g id="shape3492-23" transform="translate(16.9154,-26.8621)">
					<title>Sheet.3492</title>
					<path d="M5.36 118.33 L5.39 118.36 L5.39 124.69 L5.36 124.69 L0 121.51 L5.36 118.33 Z" class="st10"/>
				</g>
			</g>
		</g>
	</g>
</svg>
