<?xml version="1.0" encoding="UTF-8" standalone="no"?>
<!DOCTYPE svg PUBLIC "-//W3C//DTD SVG 1.1//EN" "http://www.w3.org/Graphics/SVG/1.1/DTD/svg11.dtd">
<!-- Generated by Microsoft Visio, SVG Export Application Change Analysis.svg Page-1 -->
<svg xmlns="http://www.w3.org/2000/svg" xmlns:xlink="http://www.w3.org/1999/xlink" xmlns:ev="http://www.w3.org/2001/xml-events"
		width="1.73185in" height="1.73186in" viewBox="0 0 124.693 124.694" xml:space="preserve" color-interpolation-filters="sRGB"
		class="st8">
	<style type="text/css">
	<![CDATA[
		.st1 {fill:#76bc2d;stroke:none;stroke-linecap:butt;stroke-width:34}
		.st2 {fill:url(#grad0-8);stroke:none;stroke-linecap:butt;stroke-width:34}
		.st3 {fill:url(#grad0-12);stroke:none;stroke-linecap:butt;stroke-width:34}
		.st4 {fill:url(#grad0-16);stroke:none;stroke-linecap:butt;stroke-width:34}
		.st5 {fill:url(#grad0-20);stroke:none;stroke-linecap:butt;stroke-width:34}
		.st6 {fill:#0078d4;stroke:none;stroke-linecap:butt;stroke-width:34}
		.st7 {fill:#ffffff;stroke:none;stroke-linecap:butt;stroke-width:34}
		.st8 {fill:none;fill-rule:evenodd;font-size:12px;overflow:visible;stroke-linecap:square;stroke-miterlimit:3}
	]]>
	</style>

	<defs id="Patterns_And_Gradients">
		<linearGradient id="grad0-8" x1="0" y1="0" x2="1" y2="0" gradientTransform="rotate(-84.6 0.5 0.5)">
			<stop offset="0" stop-color="#5e9624" stop-opacity="1"/>
			<stop offset="0.82" stop-color="#86d633" stop-opacity="1"/>
		</linearGradient>
		<linearGradient id="grad0-12" x1="0" y1="0" x2="1" y2="0" gradientTransform="rotate(-89.369771843738 0.5 0.5)">
			<stop offset="0" stop-color="#5e9624" stop-opacity="1"/>
			<stop offset="0.82" stop-color="#86d633" stop-opacity="1"/>
		</linearGradient>
		<linearGradient id="grad0-16" x1="0" y1="0" x2="1" y2="0" gradientTransform="rotate(-84.784845544421 0.5 0.5)">
			<stop offset="0" stop-color="#5e9624" stop-opacity="1"/>
			<stop offset="0.82" stop-color="#86d633" stop-opacity="1"/>
		</linearGradient>
		<linearGradient id="grad0-20" x1="0" y1="0" x2="1" y2="0" gradientTransform="rotate(-84.784845544421 0.5 0.5)">
			<stop offset="0" stop-color="#5e9624" stop-opacity="1"/>
			<stop offset="0.82" stop-color="#86d633" stop-opacity="1"/>
		</linearGradient>
	</defs>
	<g>
		<title>Page-1</title>
		<g id="group3528-1" transform="translate(34,-34)">
			<title>Application Change Analysis</title>
			<g id="group3529-2">
				<title>Sheet.3529</title>
				<g id="shape3530-3" transform="translate(3.42572,-3.18442)">
					<title>Sheet.3530</title>
					<path d="M3.54 124.69 L0 121.54 L17.28 102.1 L31.99 117.32 L45.87 102.54 L49.3 105.79 L32.02 124.19 L17.45 109.04
								 L3.54 124.69 Z" class="st1"/>
				</g>
				<g id="shape3531-5" transform="translate(15.1072,-16.569)">
					<title>Sheet.3531</title>
					<ellipse cx="5.67063" cy="118.995" rx="5.67063" ry="5.69843" class="st2"/>
				</g>
				<g id="shape3532-9" transform="translate(29.7508,-1.89054)">
					<title>Sheet.3532</title>
					<ellipse cx="5.67063" cy="118.995" rx="5.67063" ry="5.69843" class="st3"/>
				</g>
				<g id="shape3533-13" transform="translate(45.3517,-18.5132)">
					<title>Sheet.3533</title>
					<ellipse cx="5.67063" cy="118.995" rx="5.67063" ry="5.69843" class="st4"/>
				</g>
				<g id="shape3534-17">
					<title>Sheet.3534</title>
					<ellipse cx="5.67063" cy="118.995" rx="5.67063" ry="5.69843" class="st5"/>
				</g>
				<g id="shape3535-21" transform="translate(19.8191,-20.0149)">
					<title>Sheet.3535</title>
					<path d="M25.8 113.9 L15.2 124.69 L4.49 113.9 A14.8437 14.9165 0 0 1 4.2 92.8 L4.49 92.52 A14.9104 14.9835 0
								 0 1 25.58 92.3 L25.8 92.52 A14.9137 14.9869 0 0 1 25.99 113.71 L25.8 113.9 Z" class="st6"/>
				</g>
				<g id="shape3536-23" transform="translate(22.8352,-32.2781)">
					<title>Sheet.3536</title>
					<path d="M3.04 112.5 A9.60004 9.64711 -180 0 0 4.01 120.01 A9.26647 9.31191 -180 0 0 5.75 122.14 A9.7368 9.78454
								 -180 0 0 7.94 123.72 A11.0277 11.0818 -180 0 0 10.48 124.59 A9.00629 9.05045 -180 0 0 13.22 124.59
								 L12.98 121.97 a0.557056 0.559787 -180 0 0 -0.523699 -0.489395 A6.46451 6.49621 0 0 1 11.07 121.48
								 A7.67202 7.70964 0 0 1 9.37 120.89 A6.48453 6.51632 0 0 1 7.87 119.84 A6.09092 6.12079 0 0 1 6.69
								 118.37 A5.81072 5.83922 0 0 1 5.85 115.99 A6.85479 6.8884 0 0 1 5.85 113.48 L6.76 114.98 a0.55372
								 0.556435 -180 0 0 0.73051 -1.42109E-14 L8.71 114.67 a0.557056 0.559787 -180 0 0 0.173454 -0.734092
								 L5.88 109.01 a0.550384 0.553083 -180 0 0 -0.667132 -0.335202 L0.14 111.69 a0.55372 0.556435 -180
								 0 0 1.88738E-15 0.734092 L0.76 113.51 a0.557056 0.559787 -180 0 0 0.73051 0.207825 L3.04 112.5 ZM13.57
								 108.76 A5.82407 5.85262 0 0 1 15.27 109.36 A6.28105 6.31185 0 0 1 17.94 111.84 A6.22101 6.25151
								 0 0 1 18.78 114.25 A6.90816 6.94203 0 0 1 18.78 116.8 L17.91 115.3 a0.557056 0.559787 -180 0 0 -0.727174
								 -0.224585 L16.11 115.74 a0.523699 0.526267 -180 0 0 -0.226825 0.707276 L15.88 116.48 L18.9 121.54
								 a0.523699 0.526267 -180 0 0 0.700489 0.224585 L19.63 121.77 L24.67 118.73 a0.520363 0.522915 -180
								 0 0 -4.9738E-14 -0.734092 L24.05 116.91 a0.560391 0.563139 -180 0 0 -0.73051 0 L21.58 117.96 A9.41991
								 9.4661 -180 0 0 21.85 114.11 A8.95959 9.00352 -180 0 0 20.6 110.42 A9.24979 9.29515 -180 0 0 18.9
								 108.26 A10.8542 10.9075 -180 0 0 16.67 106.72 A9.17974 9.22476 -180 0 0 14.13 105.85 A9.22644 9.27168
								 -180 0 0 11.98 105.51 a0.55372 0.556435 -180 0 0 -0.487007 0.593307 L11.49 108.17 a0.560391 0.563139
								 -180 0 0 0.523699 0.489395 A6.00419 6.03363 0 0 1 13.57 108.76 Z" class="st7"/>
				</g>
			</g>
		</g>
	</g>
</svg>
