<?xml version="1.0" encoding="UTF-8" standalone="no"?>
<!DOCTYPE svg PUBLIC "-//W3C//DTD SVG 1.1//EN" "http://www.w3.org/Graphics/SVG/1.1/DTD/svg11.dtd">
<!-- Generated by Microsoft Visio, SVG Export Application Registration.svg Page-1 -->
<svg xmlns="http://www.w3.org/2000/svg" xmlns:xlink="http://www.w3.org/1999/xlink" xmlns:ev="http://www.w3.org/2001/xml-events"
		width="1.73185in" height="1.73185in" viewBox="0 0 124.693 124.693" xml:space="preserve" color-interpolation-filters="sRGB"
		class="st5">
	<style type="text/css">
	<![CDATA[
		.st1 {fill:url(#grad0-6);stroke:none;stroke-linecap:butt;stroke-width:34}
		.st2 {fill:#32bedd;stroke:none;stroke-linecap:butt;stroke-width:34}
		.st3 {fill:#9cebff;stroke:none;stroke-linecap:butt;stroke-width:34}
		.st4 {fill:#50e6ff;stroke:none;stroke-linecap:butt;stroke-width:34}
		.st5 {fill:none;fill-rule:evenodd;font-size:12px;overflow:visible;stroke-linecap:square;stroke-miterlimit:3}
	]]>
	</style>

	<defs id="Patterns_And_Gradients">
		<linearGradient id="grad0-6" x1="0" y1="0" x2="1" y2="0" gradientTransform="rotate(90 0.5 0.5)">
			<stop offset="0" stop-color="#5ea0ef" stop-opacity="1"/>
			<stop offset="0.18" stop-color="#589eed" stop-opacity="1"/>
			<stop offset="0.41" stop-color="#4897e9" stop-opacity="1"/>
			<stop offset="0.66" stop-color="#2e8ce1" stop-opacity="1"/>
			<stop offset="0.94" stop-color="#0a7cd7" stop-opacity="1"/>
			<stop offset="1" stop-color="#0078d4" stop-opacity="1"/>
		</linearGradient>
	</defs>
	<g>
		<title>Page-1</title>
		<g id="group3493-1" transform="translate(34,-34)">
			<title>Application Registration</title>
			<g id="group3494-2">
				<title>Icon-identity-232</title>
				<g id="shape3495-3" transform="translate(2.8777E-13,-8.50059)">
					<title>Sheet.3495</title>
					<path d="M17.07 110.24 L31.73 110.24 L31.73 124.69 L17.07 124.69 L17.07 110.24 ZM0.14 90.96 L14.8 90.96 L14.8
								 76.5 L2.03 76.5 A2.032 2.00801 -180 0 0 -0 78.51 L0.14 90.96 ZM2.17 124.69 L14.8 124.69 L14.8 110.24
								 L0 110.24 L0 122.68 A2.032 2.00801 -180 0 0 2.03 124.69 L2.17 124.69 ZM0.14 107.96 L14.8 107.96
								 L14.8 93.37 L0 93.37 L0.14 107.96 ZM34.27 124.69 L46.87 124.69 A2.032 2.00801 -180 0 0 48.9 122.68
								 L48.9 110.24 L34.14 110.24 L34.27 124.69 ZM17.34 107.96 L31.73 107.96 L31.73 93.37 L17.07 93.37
								 L17.34 107.96 ZM34.27 107.96 L48.67 107.96 L48.67 93.37 L34.14 93.37 L34.27 107.96 ZM34.27 76.63
								 L34.27 90.96 L48.67 90.96 L48.67 78.51 A2.032 2.00801 -180 0 0 46.63 76.5 L34.27 76.63 ZM17.34 91.09
								 L31.73 91.09 L31.73 76.5 L17.07 76.5 L17.34 91.09 Z" class="st1"/>
				</g>
				<g id="shape3496-7" transform="translate(43.5865,0)">
					<title>Sheet.3496</title>
					<path d="M13.11 102.04 L13.11 117.13 L0 124.69 L0 109.6 L13.11 102.04 Z" class="st2"/>
				</g>
				<g id="shape3497-9" transform="translate(30.4801,-15.0601)">
					<title>Sheet.3497</title>
					<path d="M26.21 117.1 L13.11 124.69 L0 117.1 L13.11 109.53 L26.21 117.1 Z" class="st3"/>
				</g>
				<g id="shape3498-11" transform="translate(30.4801,0)">
					<title>Sheet.3498</title>
					<path d="M13.11 109.63 L13.11 124.69 L0 117.13 L0 102.04 L13.11 109.63 Z" class="st4"/>
				</g>
				<g id="shape3499-13" transform="translate(30.4801,2.84217E-13)">
					<title>Sheet.3499</title>
					<path d="M0 117.13 L13.11 109.6 L13.11 124.69 L0 117.13 Z" class="st3"/>
				</g>
				<g id="shape3500-15" transform="translate(43.5865,2.84217E-13)">
					<title>Sheet.3500</title>
					<path d="M13.11 117.13 L0 109.6 L0 124.69 L13.11 117.13 Z" class="st4"/>
				</g>
			</g>
		</g>
	</g>
</svg>
