<?xml version="1.0" encoding="UTF-8" standalone="no"?>
<!DOCTYPE svg PUBLIC "-//W3C//DTD SVG 1.1//EN" "http://www.w3.org/Graphics/SVG/1.1/DTD/svg11.dtd">
<!-- Generated by Microsoft Visio, SVG Export Archive Storage.svg Page-1 -->
<svg xmlns="http://www.w3.org/2000/svg" xmlns:xlink="http://www.w3.org/1999/xlink" xmlns:ev="http://www.w3.org/2001/xml-events"
		width="0.944882in" height="1.21654in" viewBox="0 0 68.0315 87.5906" xml:space="preserve" color-interpolation-filters="sRGB"
		class="st11">
	<style type="text/css">
	<![CDATA[
		.st1 {fill:#3e3e3e;stroke:none;stroke-linecap:butt;stroke-width:0.940678}
		.st2 {fill:#ffffff;stroke:none;stroke-linecap:butt;stroke-width:0.940678}
		.st3 {fill:#804998;fill-opacity:0.85;stroke:none;stroke-linecap:butt;stroke-width:0.940678}
		.st4 {fill:#59b4d9;fill-opacity:0.5;stroke:none;stroke-linecap:butt;stroke-width:0.940678}
		.st5 {fill:#59b4d9;stroke:none;stroke-linecap:butt;stroke-width:0.940678}
		.st6 {fill:#ffffff;fill-opacity:0.25;stroke:none;stroke-linecap:butt;stroke-width:0.940678}
		.st7 {fill:#ffffff;fill-opacity:0.2;stroke:none;stroke-linecap:butt;stroke-width:0.940678}
		.st8 {fill:#ffffff;fill-opacity:0.4;stroke:none;stroke-linecap:butt;stroke-width:0.940678}
		.st9 {fill:#ffffff;fill-opacity:0.15;stroke:none;stroke-linecap:butt;stroke-width:0.940678}
		.st10 {fill:#ffffff;fill-opacity:0.6;stroke:none;stroke-linecap:butt;stroke-width:0.940678}
		.st11 {fill:none;fill-rule:evenodd;font-size:12px;overflow:visible;stroke-linecap:square;stroke-miterlimit:3}
	]]>
	</style>

	<g>
		<title>Page-1</title>
		<g id="group3426-1" transform="translate(5.66929,-28.3465)">
			<title>Archive Storage</title>
			<g id="shape3427-2">
				<title>path2</title>
				<path d="M49.89 87.59 L6.8 87.59 C3.05 87.59 0 84.58 0 80.86 L0 35.98 L56.69 35.98 L56.69 80.86 C56.69 84.58 53.65
							 87.59 49.89 87.59 Z" class="st1"/>
			</g>
			<g id="shape3428-4" transform="translate(4.53544,-21.3189)">
				<title>rect4</title>
				<rect x="0" y="74.126" width="47.622" height="13.4646" class="st2"/>
			</g>
			<g id="shape3429-6" transform="translate(4.53544,-21.3189)">
				<title>rect6</title>
				<rect x="0" y="74.126" width="47.622" height="13.4646" class="st3"/>
			</g>
			<g id="shape3430-8" transform="translate(4.53544,-4.48819)">
				<title>rect8</title>
				<rect x="0" y="74.126" width="47.622" height="13.4646" class="st2"/>
			</g>
			<g id="shape3431-10" transform="translate(4.53544,-4.48819)">
				<title>rect10</title>
				<rect x="0" y="74.126" width="47.622" height="13.4646" class="st4"/>
			</g>
			<g id="shape3432-12" transform="translate(4.53544,-38.1496)">
				<title>rect12</title>
				<rect x="0" y="74.126" width="47.622" height="13.4646" class="st5"/>
			</g>
			<g id="shape3433-14" transform="translate(4.53544,-32.5394)">
				<title>rect14</title>
				<rect x="0" y="85.3465" width="47.622" height="2.24409" class="st6"/>
			</g>
			<g id="shape3434-16" transform="translate(4.53544,-49.3701)">
				<title>rect16</title>
				<rect x="0" y="85.3465" width="47.622" height="2.24409" class="st7"/>
			</g>
			<g id="shape3435-18" transform="translate(4.53544,-15.7087)">
				<title>rect18</title>
				<rect x="0" y="85.3465" width="47.622" height="2.24409" class="st8"/>
			</g>
			<g id="shape3436-20">
				<title>path20</title>
				<path d="M6.8 87.59 L9.86 87.59 L45.45 35.98 L0 35.98 L0 80.86 C0 84.58 3.05 87.59 6.8 87.59 Z" class="st9"/>
			</g>
			<g id="shape3437-22" transform="translate(11.0699,-28.2756)">
				<title>path22</title>
				<path d="M3.57 87.59 C4.08 87.59 4.52 87.21 4.58 86.7 L7.07 63.13 C7.13 62.53 6.66 62.01 6.05 62.01 L1.08 62.01 C0.47
							 62.01 0 62.53 0.07 63.13 L2.56 86.7 C2.62 87.21 3.05 87.59 3.57 87.59 Z" class="st5"/>
			</g>
			<g id="shape3438-24" transform="translate(12.0268,-29.1732)">
				<title>polygon24</title>
				<path d="M5.22 63.8 L2.71 87.59 L2.51 87.59 L0 63.8 L5.22 63.8 Z" class="st10"/>
			</g>
			<g id="shape3439-26" transform="translate(12.0268,-29.1732)">
				<title>polygon26</title>
				<path d="M2.61 63.8 L2.71 87.59 L2.51 87.59 L0 63.8 L2.61 63.8 Z" class="st10"/>
			</g>
			<g id="shape3440-28" transform="translate(39.7621,-23.563)">
				<title>path28</title>
				<path d="M4.46 87.59 C5.1 87.59 5.65 87.11 5.72 86.48 L8.83 58.7 C8.92 57.95 8.33 57.3 7.57 57.3 L1.35 57.3 C0.59
							 57.3 0 57.95 0.09 58.7 L3.19 86.48 C3.27 87.11 3.81 87.59 4.46 87.59 Z" class="st5"/>
			</g>
			<g id="shape3441-30" transform="translate(40.9572,-24.685)">
				<title>polygon30</title>
				<path d="M6.53 59.54 L3.39 87.59 L3.14 87.59 L0 59.54 L6.53 59.54 Z" class="st10"/>
			</g>
			<g id="shape3442-32" transform="translate(33.4375,-28.2756)">
				<title>path32</title>
				<path d="M3.57 87.59 C4.08 87.59 4.52 87.21 4.58 86.7 L7.06 63.13 C7.13 62.53 6.66 62.01 6.05 62.01 L1.08 62.01 C0.47
							 62.01 0 62.53 0.07 63.13 L2.56 86.7 C2.61 87.21 3.05 87.59 3.57 87.59 Z" class="st5"/>
			</g>
			<g id="shape3443-34" transform="translate(34.6473,-30.3906)">
				<title>path34</title>
				<path d="M0 65.24 L4.72 65.24 L2.36 87.59 L0 65.24 Z" class="st10"/>
			</g>
			<g id="shape3444-36" transform="translate(34.6473,-30.3906)">
				<title>path36</title>
				<path d="M0 65.24 L2.36 65.24 L2.36 87.59 L0 65.24 Z" class="st10"/>
			</g>
			<g id="shape3445-38" transform="translate(40.9572,-24.685)">
				<title>polygon38</title>
				<path d="M3.26 59.54 L3.39 87.59 L3.14 87.59 L0 59.54 L3.26 59.54 Z" class="st10"/>
			</g>
		</g>
	</g>
</svg>
