<?xml version="1.0" encoding="UTF-8" standalone="no"?>
<!DOCTYPE svg PUBLIC "-//W3C//DTD SVG 1.1//EN" "http://www.w3.org/Graphics/SVG/1.1/DTD/svg11.dtd">
<!-- Generated by Microsoft Visio, SVG Export ARM Template.svg Page-1 -->
<svg xmlns="http://www.w3.org/2000/svg" xmlns:xlink="http://www.w3.org/1999/xlink" xmlns:ev="http://www.w3.org/2001/xml-events"
		width="0.854769in" height="1.25984in" viewBox="0 0 61.5434 90.7087" xml:space="preserve" color-interpolation-filters="sRGB"
		class="st3">
	<style type="text/css">
	<![CDATA[
		.st1 {fill:#59b4d9;stroke:none;stroke-linecap:butt;stroke-width:0.905763}
		.st2 {fill:#ffffff;fill-opacity:0.8;stroke:none;stroke-linecap:butt;stroke-width:0.905763}
		.st3 {fill:none;fill-rule:evenodd;font-size:12px;overflow:visible;stroke-linecap:square;stroke-miterlimit:3}
	]]>
	</style>

	<g>
		<title>Page-1</title>
		<g id="group3421-1" transform="translate(5.10236,-28.3465)">
			<title>ARM Template</title>
			<g id="group3422-2">
				<title>g10</title>
				<g id="shape3423-3">
					<title>path4</title>
					<path d="M48.7 41.73 L43.14 36.28 L40.82 34.02 L0 34.02 L0 90.71 L51.02 90.71 L51.02 43.99 L48.7 41.73 Z"
							class="st1"/>
				</g>
				<g id="shape3424-5" transform="translate(2.31926,-2.26772)">
					<title>path6</title>
					<path d="M38.27 38.55 L0 38.55 L0 90.71 L46.39 90.71 L46.39 46.49 L38.27 46.49 L38.27 38.55 Z" class="st2"/>
				</g>
				<g id="shape3425-7" transform="translate(7.28826,-22.5706)">
					<title>path8</title>
					<path d="M4.59 86.83 C4.59 88.06 4.28 89.01 3.66 89.69 C3.04 90.37 2.22 90.71 1.19 90.71 C0.7 90.71 0.31 90.65
								 0 90.54 L0 88.93 C0.28 89.12 0.64 89.21 1.08 89.21 C2.25 89.21 2.84 88.33 2.84 86.56 L2.84 80.2
								 L4.59 80.2 L4.59 86.83 L4.59 86.83 ZM6.62 90.12 L6.62 88.36 C6.78 88.5 6.97 88.63 7.2 88.75 C7.42
								 88.86 7.66 88.96 7.91 89.04 C8.16 89.12 8.41 89.18 8.66 89.22 C8.91 89.27 9.14 89.29 9.35 89.29
								 C10.09 89.29 10.64 89.17 11 88.93 C11.36 88.69 11.54 88.34 11.54 87.88 C11.54 87.64 11.48 87.43
								 11.36 87.25 A1.89831 1.85613 -180 0 0 10.85 86.75 A5.3053 5.1874 -180 0 0 10.09 86.32 C9.8 86.19
								 9.48 86.04 9.15 85.9 C8.79 85.71 8.46 85.52 8.15 85.33 A4.26395 4.1692 0 0 1 7.34 84.69 A2.73788
								 2.67704 0 0 1 6.8 83.9 A2.63931 2.58066 0 0 1 6.61 82.87 C6.61 82.38 6.72 81.96 6.94 81.6 C7.17
								 81.25 7.46 80.95 7.83 80.72 A4.03782 3.94809 0 0 1 9.08 80.2 A5.95585 5.8235 0 0 1 10.51 80.03 C11.61
								 80.03 12.42 80.15 12.92 80.4 L12.92 82.09 C12.32 81.67 11.55 81.46 10.61 81.46 C10.35 81.46 10.09
								 81.48 9.83 81.53 A2.31346 2.26205 -180 0 0 9.14 81.77 A1.50984 1.47628 -180 0 0 8.64 82.19 A1.06686
								 1.04315 -180 0 0 8.45 82.82 C8.45 83.05 8.5 83.25 8.6 83.42 C8.69 83.58 8.84 83.74 9.03 83.88 C9.22
								 84.02 9.45 84.15 9.72 84.28 C9.99 84.42 10.31 84.56 10.67 84.71 C11.04 84.9 11.38 85.1 11.71 85.3
								 C12.04 85.51 12.32 85.74 12.57 85.99 C12.82 86.24 13.02 86.52 13.16 86.82 C13.31 87.13 13.38 87.47
								 13.38 87.86 C13.38 88.39 13.27 88.83 13.06 89.19 C12.84 89.55 12.55 89.84 12.18 90.07 C11.82 90.29
								 11.39 90.45 10.92 90.56 A6.57277 6.42671 0 0 1 8.75 90.67 A9.15758 8.95408 0 0 1 7.96 90.55 C7.69
								 90.5 7.44 90.44 7.2 90.37 C6.95 90.3 6.76 90.22 6.62 90.12 ZM19.68 90.71 C18.15 90.71 16.93 90.23
								 16.02 89.26 C15.1 88.29 14.64 87.04 14.64 85.49 C14.64 83.83 15.11 82.51 16.04 81.52 C16.98 80.53
								 18.24 80.03 19.84 80.03 C21.33 80.03 22.52 80.51 23.43 81.47 C24.34 82.43 24.79 83.69 24.79 85.24
								 C24.79 86.93 24.33 88.26 23.4 89.24 C22.47 90.22 21.23 90.71 19.68 90.71 ZM19.75 81.54 C18.79 81.54
								 18 81.89 17.39 82.59 C16.79 83.3 16.48 84.23 16.48 85.38 C16.48 86.53 16.78 87.46 17.37 88.16 C17.96
								 88.86 18.73 89.21 19.68 89.21 C20.69 89.21 21.49 88.88 22.08 88.21 C22.66 87.54 22.95 86.61 22.95
								 85.4 C22.95 84.17 22.67 83.22 22.1 82.54 C21.53 81.87 20.75 81.54 19.75 81.54 ZM35.69 90.54 L33.77
								 90.54 L28.72 82.94 A3.44641 3.36983 0 0 1 28.41 82.34 L28.36 82.34 C28.4 82.56 28.42 83.04 28.42
								 83.76 L28.42 90.54 L26.73 90.54 L26.73 80.2 L28.77 80.2 L33.65 87.62 C33.85 87.93 33.99 88.14 34.05
								 88.25 L34.08 88.25 C34.03 87.98 34 87.51 34 86.86 L34 80.2 L35.69 80.2 L35.69 90.54 L35.69 90.54
								 Z" class="st1"/>
				</g>
			</g>
		</g>
	</g>
</svg>
