<?xml version="1.0" encoding="UTF-8" standalone="no"?>
<!DOCTYPE svg PUBLIC "-//W3C//DTD SVG 1.1//EN" "http://www.w3.org/Graphics/SVG/1.1/DTD/svg11.dtd">
<!-- Generated by Microsoft Visio, SVG Export Automation Account.svg Page-1 -->
<svg xmlns="http://www.w3.org/2000/svg" xmlns:xlink="http://www.w3.org/1999/xlink" xmlns:ev="http://www.w3.org/2001/xml-events"
		width="1.73185in" height="1.73123in" viewBox="0 0 124.693 124.648" xml:space="preserve" color-interpolation-filters="sRGB"
		class="st3">
	<style type="text/css">
	<![CDATA[
		.st1 {fill:url(#grad0-6);stroke:none;stroke-linecap:butt;stroke-width:34}
		.st2 {fill:url(#grad0-10);stroke:none;stroke-linecap:butt;stroke-width:34}
		.st3 {fill:none;fill-rule:evenodd;font-size:12px;overflow:visible;stroke-linecap:square;stroke-miterlimit:3}
	]]>
	</style>

	<defs id="Patterns_And_Gradients">
		<linearGradient id="grad0-6" x1="0" y1="0" x2="1" y2="0" gradientTransform="rotate(-90 0.5 0.5)">
			<stop offset="0" stop-color="#0078d4" stop-opacity="1"/>
			<stop offset="0.065" stop-color="#0a7cd7" stop-opacity="1"/>
			<stop offset="0.34" stop-color="#2e8ce1" stop-opacity="1"/>
			<stop offset="0.595" stop-color="#4897e9" stop-opacity="1"/>
			<stop offset="0.82" stop-color="#589eed" stop-opacity="1"/>
			<stop offset="1" stop-color="#5ea0ef" stop-opacity="1"/>
		</linearGradient>
		<linearGradient id="grad0-10" x1="0" y1="0" x2="1" y2="0" gradientTransform="rotate(-90 0.5 0.5)">
			<stop offset="0" stop-color="#fea11b" stop-opacity="1"/>
			<stop offset="0.285" stop-color="#fea51a" stop-opacity="1"/>
			<stop offset="0.545" stop-color="#feb018" stop-opacity="1"/>
			<stop offset="0.8" stop-color="#ffc314" stop-opacity="1"/>
			<stop offset="1" stop-color="#ffd70f" stop-opacity="1"/>
		</linearGradient>
	</defs>
	<g>
		<title>Page-1</title>
		<g id="group3417-1" transform="translate(34,-33.9554)">
			<title>Automation Account</title>
			<g id="group3418-2">
				<title>Sheet.3418</title>
				<g id="shape3419-3" transform="translate(0,-0.0445949)">
					<title>Sheet.3419</title>
					<path d="M56.69 99.38 L56.69 92.93 L55.78 92.58 L48.87 90.32 L47.05 85.9 L50.56 78.42 L46.03 73.89 L45.13 74.35
								 L38.66 77.63 L34.24 75.82 L31.4 68 L24.94 68 L24.6 68.91 L22.33 75.82 L17.91 77.63 L10.54 74.13
								 L6 78.65 L6.46 79.56 L9.75 86.01 L7.94 90.43 L0 93.27 L0 99.72 L0.91 100.06 L7.82 102.33 L9.64 106.75
								 L6.13 114.23 L10.66 118.76 L11.57 118.3 L18.04 115.02 L22.46 116.83 L25.3 124.65 L31.76 124.65 L32.1
								 123.74 L34.37 116.83 L38.79 115.02 L46.27 118.52 L50.81 113.99 L50.35 113.09 L47.07 106.63 L48.88
								 102.21 L56.69 99.38 ZM28.34 108.75 A12.4341 12.4229 0 1 1 40.78 96.32 A12.4341 12.4229 0 0 1 28.34
								 108.75 Z" class="st1"/>
				</g>
				<g id="shape3420-7" transform="translate(14.5383,-2.84217E-13)">
					<title>Sheet.3420</title>
					<path d="M12.08 101.1 L0.64 101.1 a0.615326 0.614773 0 0 1 -0.637644 -0.576549 a0.516492 0.516027 0 0 1 0.0573879
								 -0.235716 L13.78 73.18 a0.659961 0.659368 0 0 1 0.593009 -0.340833 L27.9 72.84 a0.615326 0.614773
								 0 0 1 0.637644 0.576549 a0.526056 0.525583 0 0 1 -0.111588 0.318535 L12.32 94.95 L28.03 94.95 a0.615326
								 0.614773 0 0 1 0.637644 0.576549 a0.545185 0.544695 0 0 1 -0.165787 0.385428 L2.38 123.06 C2.14
								 123.2 0.39 124.65 1.25 122.45 L12.08 101.1 Z" class="st2"/>
				</g>
			</g>
		</g>
	</g>
</svg>
