<?xml version="1.0" encoding="UTF-8" standalone="no"?>
<!DOCTYPE svg PUBLIC "-//W3C//DTD SVG 1.1//EN" "http://www.w3.org/Graphics/SVG/1.1/DTD/svg11.dtd">
<!-- Generated by Microsoft Visio, SVG Export Azure Lighthouse Protection.svg Page-1 -->
<svg xmlns="http://www.w3.org/2000/svg" xmlns:xlink="http://www.w3.org/1999/xlink" xmlns:ev="http://www.w3.org/2001/xml-events"
		width="0.944882in" height="1.25984in" viewBox="0 0 68.0315 90.7087" xml:space="preserve" color-interpolation-filters="sRGB"
		class="st33">
	<style type="text/css">
	<![CDATA[
		.st1 {fill:#edf4fb;stroke:none;stroke-linecap:butt;stroke-width:0.200146}
		.st2 {fill:#d6e8f7;stroke:none;stroke-linecap:butt;stroke-width:0.200146}
		.st3 {fill:#cce3f6;stroke:none;stroke-linecap:butt;stroke-width:0.200146}
		.st4 {fill:#bddbf4;stroke:none;stroke-linecap:butt;stroke-width:0.200146}
		.st5 {fill:#add2f1;stroke:none;stroke-linecap:butt;stroke-width:0.200146}
		.st6 {fill:#9dcaef;stroke:none;stroke-linecap:butt;stroke-width:0.200146}
		.st7 {fill:#8ec1ec;stroke:none;stroke-linecap:butt;stroke-width:0.200146}
		.st8 {fill:#59b4d9;stroke:none;stroke-linecap:butt;stroke-width:0.200146}
		.st9 {fill:#80bbea;stroke:none;stroke-linecap:butt;stroke-width:0.200146}
		.st10 {fill:#49defb;stroke:none;stroke-linecap:butt;stroke-width:0.200146}
		.st11 {fill:#7cb9e9;stroke:none;stroke-linecap:butt;stroke-width:0.200146}
		.st12 {fill:#6eb1e8;stroke:none;stroke-linecap:butt;stroke-width:0.200146}
		.st13 {fill:#40d0f6;stroke:none;stroke-linecap:butt;stroke-width:0.200146}
		.st14 {fill:#38c5f2;stroke:none;stroke-linecap:butt;stroke-width:0.200146}
		.st15 {fill:#60aae5;stroke:none;stroke-linecap:butt;stroke-width:0.200146}
		.st16 {fill:#57a6e4;stroke:none;stroke-linecap:butt;stroke-width:0.200146}
		.st17 {fill:#31bbee;stroke:none;stroke-linecap:butt;stroke-width:0.200146}
		.st18 {fill:#4ea1e3;stroke:none;stroke-linecap:butt;stroke-width:0.200146}
		.st19 {fill:#2cb4eb;stroke:none;stroke-linecap:butt;stroke-width:0.200146}
		.st20 {fill:#4099e0;stroke:none;stroke-linecap:butt;stroke-width:0.200146}
		.st21 {fill:#3f99e0;stroke:none;stroke-linecap:butt;stroke-width:0.200146}
		.st22 {fill:#22a7e8;stroke:none;stroke-linecap:butt;stroke-width:0.200146}
		.st23 {fill:#3493de;stroke:none;stroke-linecap:butt;stroke-width:0.200146}
		.st24 {fill:#1da0e5;stroke:none;stroke-linecap:butt;stroke-width:0.200146}
		.st25 {fill:#2f90de;stroke:none;stroke-linecap:butt;stroke-width:0.200146}
		.st26 {fill:#1393e0;stroke:none;stroke-linecap:butt;stroke-width:0.200146}
		.st27 {fill:#2088db;stroke:none;stroke-linecap:butt;stroke-width:0.200146}
		.st28 {fill:#1683d9;stroke:none;stroke-linecap:butt;stroke-width:0.200146}
		.st29 {fill:#0c89dc;stroke:none;stroke-linecap:butt;stroke-width:0.200146}
		.st30 {fill:#047dd9;stroke:none;stroke-linecap:butt;stroke-width:0.200146}
		.st31 {fill:#0078d5;stroke:none;stroke-linecap:butt;stroke-width:0.200146}
		.st32 {fill:#0077d5;stroke:none;stroke-linecap:butt;stroke-width:0.200146}
		.st33 {fill:none;fill-rule:evenodd;font-size:12px;overflow:visible;stroke-linecap:square;stroke-miterlimit:3}
	]]>
	</style>

	<g>
		<title>Page-1</title>
		<g id="group2948-1" transform="translate(5.66929,-28.3465)">
			<title>Azure Lighthouse Protection</title>
			<g id="group2949-2">
				<title>g1590</title>
				<g id="shape2950-3" transform="translate(0.00359082,-0.00393053)">
					<title>path1654</title>
					<path d="M26.72 74.23 L26.72 57.75 L41.71 57.75 L56.69 57.75 L56.69 74.23 L56.69 90.71 L41.71 90.71 L26.72 90.71
								 L26.72 74.23 ZM22.6 88.43 C16.23 86.97 10.22 82.89 6.7 77.65 C6.13 76.8 5.63 76.06 5.59 76.01 C5.55
								 75.96 4.84 76.15 4.01 76.43 C2.97 76.78 2.5 76.85 2.51 76.65 C2.52 76.48 3.16 75.03 3.95 73.42 L5.37
								 70.48 L8.43 71.92 C10.11 72.71 11.49 73.43 11.49 73.52 C11.49 73.61 10.95 73.88 10.3 74.13 C9.65
								 74.37 9.08 74.59 9.03 74.63 C8.87 74.74 11.1 77.6 12.25 78.75 C15.27 81.78 18.9 83.8 23.41 84.96
								 L24.47 85.23 L24.47 86.97 C24.47 88.9 24.52 88.87 22.6 88.43 ZM0 50.5 L0 34.02 L14.92 34.08 L29.84
								 34.15 L29.91 44.57 L29.97 55 L27.22 55 L24.47 55 L24.47 60.99 L24.47 66.99 L12.24 66.99 L0 66.99
								 L0 50.5 ZM47.77 53.05 C46.09 52.27 44.71 51.55 44.71 51.46 C44.71 51.37 45.43 51.05 46.33 50.75
								 L47.95 50.21 L47.51 49.47 C46.75 48.17 44.02 45.36 42.27 44.06 C40.07 42.43 37 40.95 34.34 40.25
								 L32.22 39.69 L32.22 37.95 L32.22 36.21 L33.4 36.39 C36.69 36.88 41.55 39.01 44.5 41.25 C46.37 42.66
								 49.6 46.03 50.6 47.62 C51.4 48.89 51.46 48.91 52.94 48.38 C53.92 48.04 53.98 48.04 53.83 48.45 C53.41
								 49.57 51.06 54.49 50.95 54.48 C50.88 54.48 49.45 53.84 47.77 53.05 Z" class="st1"/>
				</g>
				<g id="shape2951-5" transform="translate(0.00359082,-2.84217E-13)">
					<title>path1652</title>
					<path d="M26.72 74.22 L26.72 57.74 L41.64 57.8 L56.56 57.87 L56.56 74.22 L56.56 90.58 L41.64 90.64 L26.72 90.71
								 L26.72 74.22 ZM22.6 88.43 C16.05 86.92 9.77 82.54 6.3 77.05 C5.93 76.46 5.48 75.97 5.32 75.97 C5.15
								 75.97 4.45 76.19 3.76 76.47 C3.06 76.74 2.5 76.87 2.5 76.75 C2.5 76.64 3.14 75.19 3.93 73.53 L5.37
								 70.52 L8.43 71.93 C10.11 72.7 11.49 73.42 11.49 73.51 C11.49 73.61 10.93 73.87 10.24 74.1 C9.55
								 74.33 8.99 74.6 8.99 74.7 C8.99 74.8 9.76 75.83 10.69 76.99 C13.9 80.96 18.1 83.59 23.41 84.96 L24.47
								 85.23 L24.47 86.97 C24.47 88.9 24.52 88.87 22.6 88.43 ZM0 50.5 L0 34.02 L14.86 34.02 L29.72 34.02
								 L29.72 44.51 L29.72 55 L27.1 55 L24.47 55 L24.47 60.99 L24.47 66.98 L12.24 66.98 L0 66.98 L0 50.5
								 ZM47.77 53.03 C46.09 52.26 44.71 51.56 44.71 51.48 C44.71 51.4 45.29 51.15 46.01 50.92 C48.14 50.24
								 48.14 50.24 47.01 48.72 C43.99 44.65 39.42 41.61 34.26 40.23 L32.22 39.68 L32.22 37.95 L32.22 36.21
								 L33.4 36.39 C36.69 36.88 41.55 39.01 44.5 41.24 C46.45 42.72 49.38 45.79 50.59 47.61 L51.5 48.98
								 L52.38 48.62 C53.98 47.95 53.99 48.1 52.55 51.19 C51.79 52.8 51.09 54.19 50.99 54.28 C50.9 54.37
								 49.45 53.81 47.77 53.03 Z" class="st2"/>
				</g>
				<g id="shape2952-7" transform="translate(0,-0.00393053)">
					<title>path1650</title>
					<path d="M26.72 74.23 L26.72 57.75 L41.58 57.75 L56.44 57.75 L56.44 74.23 L56.44 90.71 L41.58 90.71 L26.72 90.71
								 L26.72 74.23 ZM21.82 88.22 C15.55 86.57 9.6 82.3 6.45 77.19 C5.64 75.87 5.42 75.79 4.09 76.35 C3.59
								 76.56 3.04 76.72 2.85 76.72 C2.44 76.72 2.51 76.54 4.17 73.06 L5.37 70.53 L8.43 71.98 C10.11 72.79
								 11.49 73.5 11.49 73.57 C11.49 73.63 10.93 73.87 10.24 74.1 C9.56 74.33 8.99 74.58 8.99 74.65 C8.99
								 74.72 9.24 75.13 9.54 75.56 C12.8 80.24 17.72 83.58 23.42 84.97 L24.48 85.23 L24.48 86.97 C24.48
								 88.99 24.58 88.94 21.82 88.22 ZM0.06 50.57 L0.13 34.15 L14.93 34.08 L29.72 34.02 L29.72 44.51 L29.72
								 55 L27.1 55 L24.48 55 L24.48 60.99 L24.48 66.99 L12.24 66.99 L0 66.99 L0.06 50.57 ZM47.7 52.96 L44.58
								 51.46 L46.16 50.88 C47.02 50.57 47.8 50.24 47.87 50.17 C48.11 49.93 46.35 47.73 44.54 45.98 C41.57
								 43.11 37.9 41.1 33.83 40.09 L32.22 39.7 L32.22 37.95 L32.22 36.21 L33.41 36.39 C35.24 36.65 38.89
								 37.94 40.96 39.06 C44.71 41.07 48.17 44.15 50.43 47.48 L51.45 48.98 L52.48 48.62 C53.05 48.42 53.6
								 48.26 53.71 48.26 C53.91 48.26 51.34 53.95 50.99 54.29 C50.9 54.38 49.42 53.78 47.7 52.96 Z"
							class="st3"/>
				</g>
				<g id="shape2953-9" transform="translate(0.00359082,-0.00393053)">
					<title>path1648</title>
					<path d="M26.72 74.23 L26.72 57.75 L41.58 57.75 L56.44 57.75 L56.44 74.23 L56.44 90.71 L41.58 90.71 L26.72 90.71
								 L26.72 74.23 ZM21.8 88.21 C15.59 86.58 9.67 82.26 6.2 76.81 L5.53 75.76 L4.23 76.25 C3.52 76.52
								 2.85 76.71 2.74 76.67 C2.48 76.58 5.1 70.9 5.45 70.79 C5.6 70.74 7.04 71.33 8.66 72.11 L11.61 73.52
								 L10.36 74.02 C9.68 74.29 9.08 74.56 9.03 74.6 C8.88 74.76 10.42 76.86 11.74 78.3 C14.17 80.96 18.56
								 83.67 21.98 84.61 C24.55 85.32 24.47 85.25 24.47 87.08 C24.47 88.97 24.56 88.94 21.8 88.21 ZM0 50.63
								 L0 34.27 L14.86 34.27 L29.72 34.27 L29.72 44.64 L29.72 55 L27.1 55 L24.47 55 L24.47 60.99 L24.47
								 66.99 L12.24 66.99 L0 66.99 L0 50.63 ZM47.7 52.94 L44.58 51.45 L46.12 50.91 C46.97 50.62 47.74 50.3
								 47.84 50.2 C48.09 49.95 46.32 47.67 44.48 45.89 C41.61 43.09 37.98 41.12 33.79 40.08 L32.22 39.7
								 L32.22 37.95 L32.22 36.21 L33.38 36.39 C36.63 36.88 41.25 38.91 44.34 41.2 C46.53 42.82 48.98 45.36
								 50.48 47.56 L51.45 48.98 L52.48 48.62 C53.04 48.42 53.6 48.26 53.71 48.26 C53.9 48.26 51.32 53.96
								 50.99 54.28 C50.89 54.37 49.42 53.76 47.7 52.94 Z" class="st4"/>
				</g>
				<g id="shape2954-11" transform="translate(0.00359082,-0.00393053)">
					<title>path1646</title>
					<path d="M26.72 74.23 L26.72 57.75 L41.58 57.75 L56.44 57.75 L56.44 74.23 L56.44 90.71 L41.58 90.71 L26.72 90.71
								 L26.72 74.23 ZM21.85 88.21 C19.56 87.62 16.33 86.18 14.13 84.78 C12.02 83.43 7.99 79.46 6.54 77.31
								 L5.51 75.77 L4.22 76.26 C3.51 76.53 2.84 76.71 2.73 76.67 C2.49 76.59 5.13 70.9 5.46 70.78 C5.59
								 70.74 7.02 71.34 8.65 72.12 L11.61 73.53 L10.3 74.04 C9.58 74.32 8.99 74.61 8.99 74.7 C9 75.09 11.64
								 78.31 12.89 79.46 C15.52 81.86 18.96 83.79 22.21 84.7 C23.18 84.96 24.08 85.25 24.22 85.34 C24.36
								 85.42 24.47 86.22 24.47 87.1 C24.47 88.96 24.57 88.92 21.85 88.21 ZM0 50.63 L0 34.27 L14.86 34.27
								 L29.72 34.27 L29.72 44.64 L29.72 55 L27.1 55 L24.48 55 L24.42 60.93 L24.35 66.86 L12.17 66.93 L0
								 66.99 L0 50.63 ZM47.89 53.04 C46.27 52.28 44.95 51.59 44.95 51.51 C44.95 51.42 45.58 51.15 46.34
								 50.89 C47.1 50.63 47.78 50.32 47.85 50.21 C48.05 49.88 46.56 47.9 44.79 46.14 C41.82 43.2 37.83
								 40.97 34.03 40.12 L32.22 39.72 L32.22 37.99 C32.22 36.69 32.3 36.27 32.56 36.27 C32.75 36.27 34.01
								 36.56 35.35 36.91 C41.36 38.47 46.97 42.42 50.48 47.57 C51.02 48.36 51.5 49.01 51.55 49.01 C51.6
								 49.01 52.05 48.83 52.57 48.62 C53.08 48.4 53.56 48.29 53.63 48.37 C53.76 48.49 51.31 53.95 50.97
								 54.28 C50.89 54.36 49.5 53.8 47.89 53.04 Z" class="st5"/>
				</g>
				<g id="shape2955-13" transform="translate(0.00359082,-0.00393053)">
					<title>path1644</title>
					<path d="M26.72 74.23 L26.72 57.75 L41.58 57.75 L56.44 57.75 L56.44 74.23 L56.44 90.71 L41.58 90.71 L26.72 90.71
								 L26.72 74.23 ZM22.85 88.43 C19.89 87.75 16.59 86.35 13.86 84.61 C11.98 83.41 7.91 79.35 6.53 77.29
								 L5.48 75.74 L4.21 76.24 C3.5 76.52 2.85 76.71 2.74 76.67 C2.51 76.58 5.25 70.73 5.53 70.73 C5.64
								 70.73 7.06 71.36 8.67 72.13 L11.61 73.52 L10.3 74.02 C9.58 74.29 8.99 74.61 8.99 74.72 C8.99 75.16
								 11.31 77.99 12.8 79.37 C15.43 81.8 19.19 83.93 22.23 84.71 C22.84 84.87 23.55 85.05 23.79 85.12
								 C24.15 85.23 24.22 85.55 24.22 86.98 C24.22 87.93 24.14 88.7 24.04 88.69 C23.93 88.67 23.4 88.56
								 22.85 88.43 ZM0 50.63 L0 34.27 L14.86 34.27 L29.72 34.27 L29.72 44.64 L29.72 55 L26.97 55 L24.22
								 55 L24.22 60.99 L24.22 66.99 L12.11 66.99 L0 66.99 L0 50.63 ZM47.89 53.03 C46.27 52.26 44.95 51.58
								 44.95 51.5 C44.95 51.43 45.68 51.11 46.56 50.8 L48.17 50.22 L47.25 48.93 C44.32 44.82 39.44 41.51
								 34.4 40.21 L32.22 39.65 L32.22 37.94 L32.22 36.23 L33.28 36.41 C39.87 37.52 46.49 41.8 50.26 47.38
								 C50.82 48.21 51.31 48.92 51.35 48.98 C51.39 49.03 51.89 48.88 52.46 48.65 C53.04 48.42 53.56 48.29
								 53.63 48.36 C53.75 48.48 51.28 53.96 50.97 54.28 C50.89 54.36 49.5 53.8 47.89 53.03 Z" class="st6"/>
				</g>
				<g id="shape2956-15" transform="translate(0.00359082,-0.00393053)">
					<title>path1642</title>
					<path d="M26.89 90.54 C26.8 90.45 26.72 83.03 26.72 74.06 L26.72 57.75 L41.58 57.75 L56.44 57.75 L56.44 74.23
								 L56.44 90.71 L41.75 90.71 C33.67 90.71 26.98 90.63 26.89 90.54 ZM22.1 88.22 C18.52 87.26 15.17 85.65
								 12.55 83.64 C10.11 81.76 6.85 78.08 5.6 75.78 C5.58 75.74 4.97 75.94 4.24 76.23 C3.52 76.51 2.85
								 76.71 2.75 76.67 C2.54 76.59 5.24 70.73 5.5 70.73 C5.59 70.73 7.01 71.36 8.64 72.13 L11.61 73.53
								 L10.3 74.02 C9.58 74.29 8.99 74.6 8.99 74.72 C8.99 75.14 11.22 77.9 12.64 79.24 C15.75 82.17 18.83
								 83.85 23.16 84.96 L24.22 85.23 L24.22 86.97 C24.22 87.93 24.14 88.7 24.04 88.7 C23.93 88.69 23.06
								 88.47 22.1 88.22 ZM0 50.63 L0 34.27 L14.86 34.27 L29.72 34.27 L29.72 44.64 L29.72 55 L26.97 55 L24.22
								 55 L24.22 60.99 L24.22 66.99 L12.11 66.99 L0 66.99 L0 50.63 ZM47.64 52.92 C46.16 52.22 44.95 51.58
								 44.95 51.51 C44.95 51.43 45.68 51.11 46.56 50.8 L48.18 50.22 L47.5 49.29 C45.23 46.19 43.05 44.23
								 39.8 42.38 C37.89 41.29 34.99 40.2 33.15 39.88 L32.22 39.71 L32.22 37.97 L32.22 36.23 L33.28 36.4
								 C33.86 36.5 35.24 36.86 36.34 37.2 C42.02 38.98 47.11 42.7 50.26 47.38 C50.82 48.21 51.31 48.93
								 51.36 48.98 C51.4 49.04 51.91 48.9 52.49 48.67 C53.06 48.45 53.57 48.31 53.63 48.36 C53.68 48.41
								 53.13 49.76 52.4 51.35 C51.54 53.23 50.94 54.24 50.7 54.22 C50.49 54.21 49.11 53.63 47.64 52.92
								 Z" class="st7"/>
				</g>
				<g id="shape2957-17" transform="translate(0.00359082,-0.00393053)">
					<title>path1640</title>
					<path d="M26.84 90.4 C26.77 90.22 26.75 82.84 26.78 73.98 L26.85 57.87 L41.64 57.81 L56.44 57.74 L56.44 74.23
								 L56.44 90.71 L41.7 90.71 C30.13 90.71 26.93 90.64 26.84 90.4 ZM22.1 88.21 C18.56 87.29 15.18 85.64
								 12.34 83.45 C10.01 81.65 6.81 78.01 5.6 75.78 C5.58 75.74 4.92 75.95 4.14 76.24 C3.35 76.53 2.68
								 76.73 2.64 76.69 C2.52 76.54 5.31 70.73 5.5 70.73 C5.59 70.73 7.01 71.37 8.64 72.14 L11.61 73.55
								 L10.18 74.03 L8.74 74.52 L9.78 76 C12.6 80.03 17.26 83.3 22.22 84.73 L24.22 85.31 L24.22 87.01 C24.22
								 87.95 24.14 88.7 24.04 88.69 C23.93 88.68 23.06 88.46 22.1 88.21 ZM0.17 66.82 C0.07 66.73 0 59.37
								 0 50.46 L0 34.27 L14.86 34.27 L29.72 34.27 L29.72 44.64 L29.72 55 L26.97 55 L24.22 55 L24.22 60.99
								 L24.22 66.99 L12.28 66.99 C5.71 66.99 0.26 66.91 0.17 66.82 ZM47.77 52.93 C46.23 52.21 44.96 51.56
								 44.96 51.48 C44.95 51.4 45.43 51.19 46.01 51.02 C48.42 50.3 48.4 50.37 46.6 48.12 C43.31 44.01 38.96
								 41.32 33.21 39.85 L32.34 39.63 L32.27 37.95 C32.23 37.03 32.25 36.27 32.31 36.27 C32.78 36.27 36.09
								 37.08 37.23 37.48 C42.5 39.31 47.78 43.4 50.57 47.82 C50.98 48.47 51.41 49.01 51.52 49.01 C51.62
								 49.01 52.12 48.84 52.62 48.63 C53.11 48.42 53.57 48.3 53.63 48.36 C53.81 48.54 51.09 54.24 50.82
								 54.23 C50.68 54.23 49.31 53.64 47.77 52.93 Z" class="st8"/>
				</g>
				<g id="shape2958-19" transform="translate(0.00359082,-0.00393053)">
					<title>path1638</title>
					<path d="M26.84 90.4 C26.77 90.22 26.75 82.84 26.78 73.98 L26.85 57.87 L41.64 57.81 L56.44 57.74 L56.44 74.23
								 L56.44 90.71 L41.7 90.71 C30.13 90.71 26.93 90.64 26.84 90.4 ZM51.32 68.99 L50.19 67.87 L44.14 73.92
								 C40.81 77.25 37.97 79.97 37.84 79.97 C37.71 79.97 36.8 79.18 35.83 78.22 L34.07 76.47 L32.96 77.6
								 L31.86 78.73 L34.84 81.72 L37.83 84.72 L45.14 77.42 L52.44 70.11 L51.32 68.99 ZM22.1 88.21 C18.56
								 87.29 15.18 85.64 12.34 83.45 C10.01 81.65 6.81 78.01 5.6 75.78 C5.58 75.74 4.92 75.95 4.14 76.24
								 C3.35 76.53 2.68 76.73 2.64 76.69 C2.52 76.54 5.31 70.73 5.5 70.73 C5.59 70.73 7.01 71.37 8.64 72.14
								 L11.61 73.55 L10.18 74.03 L8.74 74.52 L9.78 76 C12.6 80.03 17.26 83.3 22.22 84.73 L24.22 85.31 L24.22
								 87.01 C24.22 87.95 24.14 88.7 24.04 88.69 C23.93 88.68 23.06 88.46 22.1 88.21 ZM0.17 66.82 C0.07
								 66.73 0 59.37 0 50.46 L0 34.27 L14.86 34.27 L29.72 34.27 L29.72 44.64 L29.72 55 L26.97 55 L24.22
								 55 L24.22 60.99 L24.22 66.99 L12.28 66.99 C5.71 66.99 0.26 66.91 0.17 66.82 ZM21.68 52.19 C21.61
								 44.12 21.57 43.57 21.08 42.5 C19.52 39.13 16.19 37.56 12.68 38.53 C10.85 39.04 8.5 41.37 8.1 43.08
								 C7.94 43.76 7.95 43.76 9.21 43.76 C10.36 43.76 10.51 43.69 10.86 43.03 C12.08 40.66 15.37 40.06
								 17.4 41.84 C18.55 42.84 18.98 43.88 18.98 45.63 L18.98 47.01 L13.36 47.01 L7.74 47.01 L7.74 53.88
								 L7.74 60.74 L14.75 60.74 L21.77 60.74 L21.68 52.19 ZM13.35 54.89 C12.6 54.14 12.57 53.28 13.25 52.41
								 C14.12 51.31 15.81 51.55 16.36 52.83 C17.2 54.85 14.89 56.43 13.35 54.89 ZM47.77 52.93 C46.23 52.21
								 44.96 51.56 44.96 51.48 C44.95 51.4 45.43 51.19 46.01 51.02 C48.42 50.3 48.4 50.37 46.6 48.12 C43.31
								 44.01 38.96 41.32 33.21 39.85 L32.34 39.63 L32.27 37.95 C32.23 37.03 32.25 36.27 32.31 36.27 C32.78
								 36.27 36.09 37.08 37.23 37.48 C42.5 39.31 47.78 43.4 50.57 47.82 C50.98 48.47 51.41 49.01 51.52
								 49.01 C51.62 49.01 52.12 48.84 52.62 48.63 C53.11 48.42 53.57 48.3 53.63 48.36 C53.81 48.54 51.09
								 54.24 50.82 54.23 C50.68 54.23 49.31 53.64 47.77 52.93 Z" class="st9"/>
				</g>
				<g id="shape2959-21" transform="translate(0.00359082,-0.253644)">
					<title>path1636</title>
					<path d="M26.78 74.41 L26.85 58.12 L41.64 58.06 L56.44 57.99 L56.44 74.35 L56.44 90.71 L41.58 90.71 L26.72 90.71
								 L26.78 74.41 ZM51.32 69.24 L50.19 68.11 L44.14 74.17 C40.81 77.5 37.97 80.22 37.84 80.22 C37.71
								 80.22 36.8 79.43 35.83 78.47 L34.07 76.72 L32.96 77.85 L31.86 78.98 L34.84 81.97 L37.83 84.97 L45.14
								 77.66 L52.44 70.36 L51.32 69.24 ZM21.82 88.35 C19.14 87.65 16.47 86.47 13.95 84.84 C11.7 83.39 7.89
								 79.63 6.61 77.6 C6.1 76.77 5.65 76.07 5.62 76.04 C5.6 76 4.94 76.19 4.16 76.46 C3.38 76.73 2.75
								 76.86 2.75 76.75 C2.75 76.55 5.21 71.21 5.39 71.01 C5.52 70.86 11.24 73.56 11.24 73.76 C11.24 73.86
								 10.68 74.12 9.99 74.35 L8.74 74.77 L9.79 76.27 C11.21 78.29 14.39 81.24 16.5 82.5 C18.49 83.68 21.04
								 84.76 22.91 85.2 L24.22 85.51 L24.22 87.24 C24.22 88.19 24.2 88.96 24.16 88.95 C24.13 88.94 23.08
								 88.67 21.82 88.35 ZM0.17 67.07 C0.07 66.98 0 59.62 0 50.71 L0 34.52 L14.86 34.52 L29.72 34.52 L29.72
								 44.89 L29.72 55.25 L26.97 55.25 L24.22 55.25 L24.22 61.24 L24.22 67.24 L12.28 67.24 C5.71 67.24
								 0.26 67.16 0.17 67.07 ZM21.68 52.44 C21.61 44.37 21.57 43.82 21.08 42.75 C19.52 39.38 16.19 37.81
								 12.68 38.78 C10.85 39.29 8.5 41.62 8.1 43.33 C7.94 44.01 7.95 44.01 9.21 44.01 C10.36 44.01 10.51
								 43.94 10.86 43.28 C12.08 40.91 15.37 40.31 17.4 42.09 C18.55 43.09 18.98 44.13 18.98 45.88 L18.98
								 47.26 L13.36 47.26 L7.74 47.26 L7.74 54.13 L7.74 60.99 L14.75 60.99 L21.77 60.99 L21.68 52.44 ZM13.35
								 55.14 C12.6 54.39 12.57 53.53 13.25 52.66 C14.12 51.56 15.81 51.8 16.36 53.08 C17.2 55.1 14.89 56.68
								 13.35 55.14 ZM47.71 53.12 L44.84 51.77 L45.72 51.41 C46.21 51.2 46.91 50.96 47.28 50.87 C47.65 50.78
								 48 50.62 48.07 50.52 C48.29 50.16 44.9 46.26 43.12 44.83 C40.76 42.93 37.32 41.17 34.55 40.43 L32.34
								 39.84 L32.27 38.18 C32.23 37.27 32.25 36.52 32.31 36.52 C32.78 36.52 36.09 37.33 37.23 37.73 C42.21
								 39.46 47.43 43.41 50.2 47.54 C50.79 48.41 51.31 49.17 51.35 49.22 C51.39 49.27 51.93 49.14 52.56
								 48.92 C53.18 48.71 53.69 48.58 53.69 48.63 C53.69 48.96 50.93 54.5 50.77 54.49 C50.66 54.48 49.28
								 53.87 47.71 53.12 Z" class="st10"/>
				</g>
				<g id="shape2960-23" transform="translate(0.00359082,-0.253644)">
					<title>path1634</title>
					<path d="M26.78 74.41 L26.85 58.12 L41.64 58.06 L56.44 57.99 L56.44 74.35 L56.44 90.71 L41.58 90.71 L26.72 90.71
								 L26.78 74.41 ZM51.26 69.17 L50.08 67.98 L43.96 74.1 L37.83 80.22 L36.02 78.41 L34.21 76.61 L33.03
								 77.79 L31.85 78.97 L34.84 81.97 L37.83 84.97 L45.13 77.67 L52.44 70.37 L51.26 69.17 ZM21.82 88.35
								 C19.14 87.65 16.47 86.47 13.95 84.84 C11.7 83.39 7.89 79.63 6.61 77.6 C6.1 76.77 5.65 76.07 5.62
								 76.04 C5.6 76 4.94 76.19 4.16 76.46 C3.38 76.73 2.75 76.86 2.75 76.75 C2.75 76.55 5.21 71.21 5.39
								 71.01 C5.52 70.86 11.24 73.56 11.24 73.76 C11.24 73.86 10.68 74.12 9.99 74.35 L8.74 74.77 L9.79
								 76.27 C11.21 78.29 14.39 81.24 16.5 82.5 C18.49 83.68 21.04 84.76 22.91 85.2 L24.22 85.51 L24.22
								 87.24 C24.22 88.19 24.2 88.96 24.16 88.95 C24.13 88.94 23.08 88.67 21.82 88.35 ZM0.17 67.07 C0.07
								 66.98 0 59.62 0 50.71 L0 34.52 L14.86 34.52 L29.72 34.52 L29.72 44.89 L29.72 55.25 L26.97 55.25
								 L24.22 55.25 L24.22 61.24 L24.22 67.24 L12.28 67.24 C5.71 67.24 0.26 67.16 0.17 67.07 ZM21.68 52.44
								 C21.59 42.63 21.61 42.74 19.82 40.75 C18.5 39.3 16.77 38.52 14.83 38.52 C12.05 38.52 10 39.64 8.72
								 41.87 C7.64 43.76 7.72 44.01 9.33 44.01 C10.6 44.01 10.7 43.97 11 43.24 C11.17 42.82 11.72 42.2
								 12.22 41.87 C14.05 40.66 15.94 40.77 17.49 42.18 C18.57 43.15 18.98 44.22 18.98 46.07 L18.98 47.26
								 L13.36 47.26 L7.74 47.26 L7.74 54.25 L7.74 61.24 L14.75 61.24 L21.76 61.24 L21.68 52.44 ZM13.79
								 55.58 C13.25 55.36 12.71 54.05 12.88 53.37 C13.4 51.31 16.48 51.7 16.48 53.83 C16.48 55.21 15.1
								 56.11 13.79 55.58 ZM47.71 53.12 L44.84 51.77 L45.72 51.41 C46.21 51.2 46.91 50.96 47.28 50.87 C47.65
								 50.78 48 50.62 48.07 50.52 C48.29 50.16 44.9 46.26 43.12 44.83 C40.76 42.93 37.32 41.17 34.55 40.43
								 L32.34 39.84 L32.27 38.18 C32.23 37.27 32.25 36.52 32.31 36.52 C32.78 36.52 36.09 37.33 37.23 37.73
								 C42.21 39.46 47.43 43.41 50.2 47.54 C50.79 48.41 51.31 49.17 51.35 49.22 C51.39 49.27 51.93 49.14
								 52.56 48.92 C53.18 48.71 53.69 48.58 53.69 48.63 C53.69 48.96 50.93 54.5 50.77 54.49 C50.66 54.48
								 49.28 53.87 47.71 53.12 Z" class="st11"/>
				</g>
				<g id="shape2961-25" transform="translate(0.00359082,-0.253644)">
					<title>path1632</title>
					<path d="M26.78 74.41 L26.85 58.12 L41.64 58.06 L56.44 57.99 L56.44 74.35 L56.44 90.71 L41.58 90.71 L26.72 90.71
								 L26.78 74.41 ZM51.26 69.17 L50.08 67.98 L43.96 74.1 L37.83 80.22 L36.02 78.41 L34.21 76.61 L33.03
								 77.79 L31.85 78.97 L34.84 81.97 L37.83 84.97 L45.13 77.67 L52.44 70.37 L51.26 69.17 ZM21.82 88.35
								 C19.14 87.65 16.47 86.47 13.95 84.84 C11.7 83.39 7.89 79.63 6.61 77.6 C6.1 76.77 5.65 76.07 5.62
								 76.04 C5.6 76 4.94 76.19 4.16 76.46 C3.38 76.73 2.75 76.86 2.75 76.75 C2.75 76.55 5.21 71.21 5.39
								 71.01 C5.52 70.86 11.24 73.56 11.24 73.76 C11.24 73.86 10.68 74.12 9.99 74.35 L8.74 74.77 L9.79
								 76.27 C11.21 78.29 14.39 81.24 16.5 82.5 C18.49 83.68 21.04 84.76 22.91 85.2 L24.22 85.51 L24.22
								 87.24 C24.22 88.19 24.2 88.96 24.16 88.95 C24.13 88.94 23.08 88.67 21.82 88.35 ZM0.17 67.07 C0.07
								 66.98 0 59.62 0 50.71 L0 34.52 L14.86 34.52 L29.72 34.52 L29.72 44.89 L29.72 55.25 L26.97 55.25
								 L24.22 55.25 L24.22 61.24 L24.22 67.24 L12.28 67.24 C5.71 67.24 0.26 67.16 0.17 67.07 ZM21.68 52.44
								 C21.59 42.63 21.61 42.74 19.82 40.75 C18.5 39.3 16.77 38.52 14.83 38.52 C12.05 38.52 10 39.64 8.72
								 41.87 C7.64 43.76 7.72 44.01 9.33 44.01 C10.6 44.01 10.7 43.97 11 43.24 C11.17 42.82 11.72 42.2
								 12.22 41.87 C14.05 40.66 15.94 40.77 17.49 42.18 C18.57 43.15 18.98 44.22 18.98 46.07 L18.98 47.26
								 L13.36 47.26 L7.74 47.26 L7.74 54.25 L7.74 61.24 L14.75 61.24 L21.76 61.24 L21.68 52.44 ZM13.79
								 55.58 C13.25 55.36 12.71 54.05 12.88 53.37 C13.4 51.31 16.48 51.7 16.48 53.83 C16.48 55.21 15.1
								 56.11 13.79 55.58 ZM47.71 53.12 L44.84 51.77 L45.72 51.41 C46.21 51.2 46.91 50.96 47.28 50.87 C47.65
								 50.78 48 50.62 48.07 50.52 C48.29 50.16 44.9 46.26 43.12 44.83 C40.76 42.93 37.32 41.17 34.55 40.43
								 L32.34 39.84 L32.27 38.18 C32.23 37.27 32.25 36.52 32.31 36.52 C32.78 36.52 36.09 37.33 37.23 37.73
								 C42.21 39.46 47.43 43.41 50.2 47.54 C50.79 48.41 51.31 49.17 51.35 49.22 C51.39 49.27 51.93 49.14
								 52.56 48.92 C53.18 48.71 53.69 48.58 53.69 48.63 C53.69 48.96 50.93 54.5 50.77 54.49 C50.66 54.48
								 49.28 53.87 47.71 53.12 Z" class="st12"/>
				</g>
				<g id="shape2962-27" transform="translate(0.253324,-0.253644)">
					<title>path1630</title>
					<path d="M26.47 74.48 L26.47 58.25 L41.33 58.25 L56.19 58.25 L56.19 74.48 L56.19 90.71 L41.33 90.71 L26.47 90.71
								 L26.47 74.48 ZM51.01 69.17 L49.83 67.98 L43.71 74.1 L37.58 80.22 L35.77 78.41 L33.96 76.61 L32.78
								 77.79 L31.6 78.97 L34.59 81.97 L37.58 84.97 L44.88 77.67 L52.19 70.37 L51.01 69.17 ZM22.1 88.47
								 C15.49 86.77 10.05 83.01 6.48 77.68 C5.89 76.81 5.39 76.06 5.35 76.01 C5.31 75.97 4.65 76.16 3.89
								 76.45 C3.12 76.73 2.5 76.87 2.5 76.76 C2.5 76.57 4.95 71.22 5.13 71.02 C5.24 70.89 10.97 73.58 10.98
								 73.77 C10.98 73.86 10.43 74.12 9.74 74.35 L8.49 74.77 L9.29 75.93 C10.45 77.64 13.14 80.37 14.9
								 81.63 C16.84 83.02 20.11 84.56 22.29 85.1 L23.97 85.53 L23.97 87.24 C23.97 88.19 23.95 88.95 23.91
								 88.94 C23.88 88.93 23.06 88.72 22.1 88.47 ZM0 50.88 L0 34.52 L14.73 34.52 L29.47 34.52 L29.47 44.89
								 L29.47 55.25 L26.72 55.25 L23.97 55.25 L23.97 61.24 L23.97 67.24 L11.99 67.24 L0 67.24 L0 50.88
								 ZM21.43 52.44 C21.34 42.63 21.36 42.74 19.57 40.75 C18.25 39.3 16.52 38.52 14.58 38.52 C11.81 38.52
								 9.75 39.64 8.47 41.87 C7.39 43.76 7.47 44.01 9.08 44.01 C10.35 44.01 10.45 43.97 10.75 43.24 C10.92
								 42.82 11.47 42.2 11.97 41.87 C13.8 40.66 15.69 40.77 17.24 42.18 C18.32 43.15 18.73 44.22 18.73
								 46.07 L18.73 47.26 L13.11 47.26 L7.49 47.26 L7.49 54.25 L7.49 61.24 L14.5 61.24 L21.51 61.24 L21.43
								 52.44 ZM13.54 55.58 C13 55.36 12.46 54.05 12.63 53.37 C13.15 51.31 16.23 51.7 16.23 53.83 C16.23
								 55.21 14.85 56.11 13.54 55.58 ZM47.47 53.13 L44.63 51.79 L45.57 51.4 C46.09 51.18 46.55 51 46.59
								 51 C46.63 51 46.96 50.89 47.32 50.75 L47.98 50.5 L47.42 49.69 C44.2 45.08 39.19 41.6 33.92 40.31
								 L32.09 39.86 L32.02 38.19 C31.98 37.27 32.05 36.52 32.18 36.52 C32.31 36.52 33.52 36.81 34.87 37.15
								 C40.79 38.68 46.4 42.52 49.82 47.4 C50.49 48.35 51.07 49.17 51.1 49.22 C51.14 49.27 51.68 49.14
								 52.31 48.92 C52.93 48.71 53.44 48.58 53.44 48.63 C53.44 48.96 50.68 54.5 50.52 54.49 C50.41 54.48
								 49.04 53.87 47.47 53.13 Z" class="st13"/>
				</g>
				<g id="shape2963-29" transform="translate(0.253324,-0.253644)">
					<title>path1628</title>
					<path d="M26.47 74.48 L26.47 58.25 L41.33 58.25 L56.19 58.25 L56.19 74.48 L56.19 90.71 L41.33 90.71 L26.47 90.71
								 L26.47 74.48 ZM51.01 69.17 L49.83 67.98 L43.71 74.1 L37.58 80.22 L35.77 78.41 L33.96 76.61 L32.78
								 77.79 L31.6 78.97 L34.59 81.97 L37.58 84.97 L44.88 77.67 L52.19 70.37 L51.01 69.17 ZM22.1 88.47
								 C15.49 86.77 10.05 83.01 6.48 77.68 C5.89 76.81 5.39 76.06 5.35 76.01 C5.31 75.97 4.65 76.16 3.89
								 76.45 C3.12 76.73 2.5 76.87 2.5 76.76 C2.5 76.57 4.95 71.22 5.13 71.02 C5.24 70.89 10.97 73.58 10.98
								 73.77 C10.98 73.86 10.43 74.12 9.74 74.35 L8.49 74.77 L9.29 75.93 C10.45 77.64 13.14 80.37 14.9
								 81.63 C16.84 83.02 20.11 84.56 22.29 85.1 L23.97 85.53 L23.97 87.24 C23.97 88.19 23.95 88.95 23.91
								 88.94 C23.88 88.93 23.06 88.72 22.1 88.47 ZM0 50.88 L0 34.52 L14.73 34.52 L29.47 34.52 L29.47 44.89
								 L29.47 55.25 L26.72 55.25 L23.97 55.25 L23.97 61.24 L23.97 67.24 L11.99 67.24 L0 67.24 L0 50.88
								 ZM21.43 52.44 C21.35 43.9 21.34 43.6 20.79 42.5 C19.55 39.97 17.13 38.46 14.38 38.47 C11.78 38.49
								 9.74 39.66 8.47 41.87 C7.39 43.76 7.46 44.01 9.1 44.01 C10.22 44.01 10.48 43.93 10.61 43.53 C10.9
								 42.61 12.63 41.31 13.8 41.14 C14.97 40.96 16.41 41.4 17.32 42.21 C18.08 42.89 18.72 44.53 18.72
								 45.82 L18.73 47.01 L13.11 47.01 L7.49 47.01 L7.49 54.13 L7.49 61.24 L14.5 61.24 L21.51 61.24 L21.43
								 52.44 ZM13.46 55.43 C12.38 54.6 12.31 53.08 13.32 52.37 C15.21 51.05 17.38 53.81 15.57 55.23 C14.84
								 55.81 14.06 55.88 13.46 55.43 ZM47.47 53.13 L44.63 51.79 L45.57 51.4 C46.09 51.18 46.55 51 46.59
								 51 C46.63 51 46.96 50.89 47.32 50.75 L47.98 50.5 L47.42 49.69 C44.2 45.08 39.19 41.6 33.92 40.31
								 L32.09 39.86 L32.02 38.19 C31.98 37.27 32.05 36.52 32.18 36.52 C32.31 36.52 33.52 36.81 34.87 37.15
								 C40.79 38.68 46.4 42.52 49.82 47.4 C50.49 48.35 51.07 49.17 51.1 49.22 C51.14 49.27 51.68 49.14
								 52.31 48.92 C52.93 48.71 53.44 48.58 53.44 48.63 C53.44 48.96 50.68 54.5 50.52 54.49 C50.41 54.48
								 49.04 53.87 47.47 53.13 Z" class="st14"/>
				</g>
				<g id="shape2964-31" transform="translate(0.253324,-0.253644)">
					<title>path1626</title>
					<path d="M26.47 74.48 L26.47 58.25 L41.33 58.25 L56.19 58.25 L56.19 74.48 L56.19 90.71 L41.33 90.71 L26.47 90.71
								 L26.47 74.48 ZM51.01 69.17 L49.83 67.98 L43.71 74.1 L37.58 80.22 L35.77 78.41 L33.96 76.61 L32.78
								 77.79 L31.6 78.97 L34.59 81.97 L37.58 84.97 L44.88 77.67 L52.19 70.37 L51.01 69.17 ZM22.1 88.47
								 C15.49 86.77 10.05 83.01 6.48 77.68 C5.89 76.81 5.39 76.06 5.35 76.01 C5.31 75.97 4.65 76.16 3.89
								 76.45 C3.12 76.73 2.5 76.87 2.5 76.76 C2.5 76.57 4.95 71.22 5.13 71.02 C5.24 70.89 10.97 73.58 10.98
								 73.77 C10.98 73.86 10.43 74.12 9.74 74.35 L8.49 74.77 L9.29 75.93 C10.45 77.64 13.14 80.37 14.9
								 81.63 C16.84 83.02 20.11 84.56 22.29 85.1 L23.97 85.53 L23.97 87.24 C23.97 88.19 23.95 88.95 23.91
								 88.94 C23.88 88.93 23.06 88.72 22.1 88.47 ZM0 50.88 L0 34.52 L14.73 34.52 L29.47 34.52 L29.47 44.89
								 L29.47 55.25 L26.72 55.25 L23.97 55.25 L23.97 61.24 L23.97 67.24 L11.99 67.24 L0 67.24 L0 50.88
								 ZM21.43 52.44 C21.36 44.09 21.32 43.58 20.82 42.5 C18.83 38.19 13.29 37.07 9.68 40.24 C8.84 40.98
								 8.01 42.37 7.62 43.7 C7.47 44.23 7.52 44.26 8.84 44.26 C10.11 44.26 10.26 44.2 10.6 43.54 C11.49
								 41.81 13.68 40.78 15.45 41.26 C17.46 41.8 18.71 43.55 18.72 45.82 L18.73 47.01 L13.11 47.01 L7.49
								 47.01 L7.49 54.13 L7.49 61.24 L14.5 61.24 L21.5 61.24 L21.43 52.44 ZM13.39 55.19 C12.46 54.36 12.42
								 53.31 13.28 52.51 C13.98 51.86 14.74 51.87 15.57 52.52 C16.05 52.9 16.23 53.27 16.23 53.88 C16.23
								 54.48 16.05 54.86 15.57 55.23 C14.73 55.9 14.16 55.89 13.39 55.19 L13.39 55.19 ZM47.47 53.13 L44.63
								 51.79 L45.57 51.4 C46.09 51.18 46.55 51 46.59 51 C46.63 51 46.96 50.89 47.32 50.75 L47.98 50.5 L47.42
								 49.69 C44.2 45.08 39.19 41.6 33.92 40.31 L32.09 39.86 L32.02 38.19 C31.98 37.27 32.05 36.52 32.18
								 36.52 C32.31 36.52 33.52 36.81 34.87 37.15 C40.79 38.68 46.4 42.52 49.82 47.4 C50.49 48.35 51.07
								 49.17 51.1 49.22 C51.14 49.27 51.68 49.14 52.31 48.92 C52.93 48.71 53.44 48.58 53.44 48.63 C53.44
								 48.96 50.68 54.5 50.52 54.49 C50.41 54.48 49.04 53.87 47.47 53.13 Z" class="st15"/>
				</g>
				<g id="shape2965-33" transform="translate(0.253324,-0.253644)">
					<title>path1624</title>
					<path d="M26.47 74.48 L26.47 58.25 L41.33 58.25 L56.19 58.25 L56.19 74.48 L56.19 90.71 L41.33 90.71 L26.47 90.71
								 L26.47 74.48 ZM51.01 69.17 L49.83 67.98 L43.71 74.1 L37.58 80.22 L35.77 78.41 L33.96 76.61 L32.78
								 77.79 L31.6 78.97 L34.59 81.97 L37.58 84.97 L44.88 77.67 L52.19 70.37 L51.01 69.17 ZM22.05 88.45
								 C15.54 86.77 10 82.94 6.47 77.66 C5.89 76.8 5.39 76.06 5.35 76.01 C5.31 75.97 4.65 76.16 3.89 76.45
								 C3.12 76.73 2.5 76.89 2.5 76.8 C2.5 76.65 4.98 71.2 5.12 71.03 C5.22 70.92 10.97 73.58 10.98 73.74
								 C10.99 73.82 10.43 74.08 9.74 74.33 L8.5 74.77 L9.29 75.94 C10.45 77.64 13.14 80.37 14.9 81.63 C16.84
								 83.02 20.22 84.61 22.34 85.13 L23.97 85.54 L23.97 87.25 C23.97 88.19 23.95 88.95 23.91 88.94 C23.88
								 88.93 23.04 88.71 22.05 88.45 ZM0 50.88 L0 34.52 L14.73 34.52 L29.47 34.52 L29.47 44.89 L29.47 55.25
								 L26.72 55.25 L23.97 55.25 L23.97 61.24 L23.97 67.24 L11.99 67.24 L0 67.24 L0 50.88 ZM21.43 52.44
								 C21.36 44.09 21.32 43.58 20.82 42.5 C18.83 38.19 13.29 37.07 9.68 40.24 C8.84 40.98 8.01 42.37 7.62
								 43.7 C7.47 44.23 7.52 44.26 8.84 44.26 C10.11 44.26 10.26 44.2 10.6 43.54 C11.49 41.81 13.68 40.78
								 15.45 41.26 C17.46 41.8 18.71 43.55 18.72 45.82 L18.73 47.01 L13.11 47.01 L7.49 47.01 L7.49 54.13
								 L7.49 61.24 L14.5 61.24 L21.5 61.24 L21.43 52.44 ZM13.39 55.19 C12.46 54.36 12.42 53.31 13.28 52.51
								 C13.98 51.86 14.74 51.87 15.57 52.52 C16.05 52.9 16.23 53.27 16.23 53.88 C16.23 54.48 16.05 54.86
								 15.57 55.23 C14.73 55.9 14.16 55.89 13.39 55.19 L13.39 55.19 ZM47.64 53.18 C46.16 52.48 44.95 51.84
								 44.95 51.76 C44.95 51.67 45.37 51.45 45.89 51.27 C46.4 51.09 47.08 50.84 47.4 50.72 L47.97 50.51
								 L47.17 49.32 C45.95 47.54 43.06 44.76 41 43.4 C38.84 41.98 36.39 40.91 33.9 40.3 L32.09 39.86 L32.02
								 38.17 C31.95 36.64 31.99 36.49 32.39 36.61 C32.64 36.68 33.23 36.81 33.71 36.89 C35.18 37.17 38.47
								 38.27 39.81 38.94 C43.7 40.88 47.8 44.37 49.95 47.57 C50.56 48.49 51.2 49.24 51.35 49.25 C51.51
								 49.25 52.04 49.09 52.54 48.88 C53.04 48.67 53.44 48.54 53.44 48.6 C53.44 48.94 50.68 54.5 50.52
								 54.48 C50.41 54.46 49.11 53.88 47.64 53.18 Z" class="st16"/>
				</g>
				<g id="shape2966-35" transform="translate(0.253324,-0.253644)">
					<title>path1622</title>
					<path d="M26.47 74.48 L26.47 58.25 L41.33 58.25 L56.19 58.25 L56.19 74.48 L56.19 90.71 L41.33 90.71 L26.47 90.71
								 L26.47 74.48 ZM51.01 69.17 L49.83 67.98 L43.71 74.1 L37.58 80.22 L35.77 78.41 L33.96 76.61 L32.78
								 77.79 L31.6 78.97 L34.59 81.97 L37.58 84.97 L44.88 77.67 L52.19 70.37 L51.01 69.17 ZM22.05 88.45
								 C15.54 86.77 10 82.94 6.47 77.66 C5.89 76.8 5.39 76.06 5.35 76.01 C5.31 75.97 4.65 76.16 3.89 76.45
								 C3.12 76.73 2.5 76.89 2.5 76.8 C2.5 76.65 4.98 71.2 5.12 71.03 C5.22 70.92 10.97 73.58 10.98 73.74
								 C10.99 73.82 10.43 74.08 9.74 74.33 L8.5 74.77 L9.29 75.94 C10.45 77.64 13.14 80.37 14.9 81.63 C16.84
								 83.02 20.22 84.61 22.34 85.13 L23.97 85.54 L23.97 87.25 C23.97 88.19 23.95 88.95 23.91 88.94 C23.88
								 88.93 23.04 88.71 22.05 88.45 ZM0 50.88 L0 34.52 L14.73 34.52 L29.47 34.52 L29.47 44.89 L29.47 55.25
								 L26.72 55.25 L23.97 55.25 L23.97 61.24 L23.97 67.24 L11.99 67.24 L0 67.24 L0 50.88 ZM21.43 52.44
								 C21.36 44.09 21.32 43.58 20.82 42.5 C18.83 38.19 13.29 37.07 9.68 40.24 C8.84 40.98 8.01 42.37 7.62
								 43.7 C7.47 44.23 7.52 44.26 8.84 44.26 C10.11 44.26 10.26 44.2 10.6 43.54 C11.49 41.81 13.68 40.78
								 15.45 41.26 C17.46 41.8 18.71 43.55 18.72 45.82 L18.73 47.01 L13.11 47.01 L7.49 47.01 L7.49 54.13
								 L7.49 61.24 L14.5 61.24 L21.5 61.24 L21.43 52.44 ZM13.39 55.19 C12.46 54.36 12.42 53.31 13.28 52.51
								 C13.98 51.86 14.74 51.87 15.57 52.52 C16.05 52.9 16.23 53.27 16.23 53.88 C16.23 54.48 16.05 54.86
								 15.57 55.23 C14.73 55.9 14.16 55.89 13.39 55.19 L13.39 55.19 ZM47.64 53.18 C46.16 52.48 44.95 51.84
								 44.95 51.76 C44.95 51.67 45.37 51.45 45.89 51.27 C46.4 51.09 47.08 50.84 47.4 50.72 L47.97 50.51
								 L47.17 49.32 C45.95 47.54 43.06 44.76 41 43.4 C38.84 41.98 36.39 40.91 33.9 40.3 L32.09 39.86 L32.02
								 38.17 C31.95 36.64 31.99 36.49 32.39 36.61 C32.64 36.68 33.23 36.81 33.71 36.89 C35.18 37.17 38.47
								 38.27 39.81 38.94 C43.7 40.88 47.8 44.37 49.95 47.57 C50.56 48.49 51.2 49.24 51.35 49.25 C51.51
								 49.25 52.04 49.09 52.54 48.88 C53.04 48.67 53.44 48.54 53.44 48.6 C53.44 48.94 50.68 54.5 50.52
								 54.48 C50.41 54.46 49.11 53.88 47.64 53.18 Z" class="st17"/>
				</g>
				<g id="shape2967-37" transform="translate(0.253324,-0.253644)">
					<title>path1620</title>
					<path d="M26.47 74.48 L26.47 58.25 L41.33 58.25 L56.19 58.25 L56.19 74.48 L56.19 90.71 L41.33 90.71 L26.47 90.71
								 L26.47 74.48 ZM51.01 69.17 L49.83 67.98 L43.7 74.1 L37.58 80.23 L35.84 78.48 C34.88 77.51 33.99
								 76.72 33.85 76.72 C33.72 76.72 33.12 77.2 32.53 77.78 L31.46 78.83 L34.52 81.9 L37.58 84.97 L44.88
								 77.67 L52.19 70.37 L51.01 69.17 ZM22.05 88.45 C15.54 86.77 10 82.94 6.47 77.66 C5.89 76.8 5.39 76.06
								 5.35 76.01 C5.31 75.97 4.65 76.16 3.89 76.45 C3.12 76.73 2.5 76.89 2.5 76.8 C2.5 76.65 4.98 71.2
								 5.12 71.03 C5.22 70.92 10.97 73.58 10.98 73.74 C10.99 73.82 10.43 74.08 9.74 74.33 L8.5 74.77 L9.29
								 75.94 C10.45 77.64 13.14 80.37 14.9 81.63 C16.84 83.02 20.22 84.61 22.34 85.13 L23.97 85.54 L23.97
								 87.25 C23.97 88.19 23.95 88.95 23.91 88.94 C23.88 88.93 23.04 88.71 22.05 88.45 ZM0 50.88 L0 34.52
								 L14.73 34.52 L29.47 34.52 L29.47 44.89 L29.47 55.25 L26.72 55.25 L23.97 55.25 L23.97 61.24 L23.97
								 67.24 L11.99 67.24 L0 67.24 L0 50.88 ZM21.43 52.44 C21.36 44.09 21.32 43.58 20.82 42.5 C18.86 38.25
								 13.41 37.08 9.8 40.13 C8.9 40.89 7.89 42.5 7.64 43.58 C7.48 44.26 7.49 44.26 8.85 44.26 C10.11 44.26
								 10.26 44.2 10.6 43.54 C11.79 41.23 14.93 40.45 16.95 41.96 C17.93 42.69 18.73 44.41 18.73 45.8 L18.73
								 47.01 L13.11 47.01 L7.49 47.01 L7.49 54.13 L7.49 61.24 L14.5 61.24 L21.5 61.24 L21.43 52.44 ZM13.39
								 55.19 C12.46 54.36 12.42 53.31 13.28 52.51 C14.01 51.83 14.87 51.87 15.62 52.62 C16.45 53.45 16.43
								 54.55 15.57 55.23 C14.73 55.9 14.16 55.89 13.39 55.19 ZM47.64 53.18 C46.16 52.48 44.95 51.84 44.95
								 51.76 C44.95 51.67 45.37 51.45 45.89 51.27 C46.4 51.09 47.08 50.84 47.4 50.72 L47.97 50.51 L47.17
								 49.32 C45.95 47.54 43.06 44.76 41 43.4 C38.84 41.98 36.39 40.91 33.9 40.3 L32.09 39.86 L32.02 38.17
								 C31.95 36.64 31.99 36.49 32.39 36.61 C32.64 36.68 33.23 36.81 33.71 36.89 C35.18 37.17 38.47 38.27
								 39.81 38.94 C43.7 40.88 47.8 44.37 49.95 47.57 C50.56 48.49 51.2 49.24 51.35 49.25 C51.51 49.25
								 52.04 49.09 52.54 48.88 C53.04 48.67 53.44 48.54 53.44 48.6 C53.44 48.94 50.68 54.5 50.52 54.48
								 C50.41 54.46 49.11 53.88 47.64 53.18 Z" class="st18"/>
				</g>
				<g id="shape2968-39" transform="translate(0.253324,-0.253644)">
					<title>path1618</title>
					<path d="M26.47 74.48 L26.47 58.25 L41.33 58.25 L56.19 58.25 L56.19 74.48 L56.19 90.71 L41.33 90.71 L26.47 90.71
								 L26.47 74.48 ZM51.01 69.17 L49.83 67.98 L43.7 74.1 L37.58 80.23 L35.84 78.48 C34.88 77.51 33.99
								 76.72 33.85 76.72 C33.72 76.72 33.12 77.2 32.53 77.78 L31.46 78.83 L34.52 81.9 L37.58 84.97 L44.88
								 77.67 L52.19 70.37 L51.01 69.17 ZM22.85 88.66 C19.47 87.84 16.1 86.39 13.36 84.59 C11.4 83.3 7.87
								 79.77 6.5 77.72 C5.91 76.83 5.39 76.06 5.35 76.01 C5.31 75.97 4.65 76.16 3.89 76.45 C3.12 76.73
								 2.5 76.9 2.5 76.83 C2.5 76.7 4.99 71.21 5.13 71.03 C5.16 70.99 6.52 71.59 8.15 72.37 L11.11 73.78
								 L9.81 74.28 L8.5 74.79 L8.93 75.54 C9.64 76.77 13.21 80.43 14.85 81.6 C16.86 83.03 20.09 84.58 22.24
								 85.13 L23.97 85.58 L23.97 87.27 C23.97 88.2 23.95 88.95 23.91 88.93 C23.88 88.92 23.4 88.8 22.85
								 88.66 ZM0 50.88 L0 34.52 L14.73 34.52 L29.47 34.52 L29.47 44.89 L29.47 55.25 L26.72 55.25 L23.97
								 55.25 L23.97 61.24 L23.97 67.24 L11.99 67.24 L0 67.24 L0 50.88 ZM21.43 52.44 C21.36 44.09 21.32
								 43.58 20.82 42.5 C18.86 38.25 13.41 37.08 9.8 40.13 C8.9 40.89 7.89 42.5 7.64 43.58 C7.48 44.26
								 7.49 44.26 8.85 44.26 C10.11 44.26 10.26 44.2 10.6 43.54 C11.79 41.23 14.93 40.45 16.95 41.96 C17.93
								 42.69 18.73 44.41 18.73 45.8 L18.73 47.01 L13.11 47.01 L7.49 47.01 L7.49 54.13 L7.49 61.24 L14.5
								 61.24 L21.5 61.24 L21.43 52.44 ZM13.39 55.19 C12.46 54.36 12.42 53.31 13.28 52.51 C14.01 51.83 14.87
								 51.87 15.62 52.62 C16.45 53.45 16.43 54.55 15.57 55.23 C14.73 55.9 14.16 55.89 13.39 55.19 ZM47.64
								 53.18 C46.16 52.48 44.95 51.83 44.95 51.73 C44.95 51.64 45.21 51.49 45.53 51.41 C45.85 51.33 46.52
								 51.09 47.03 50.88 L47.96 50.49 L47.19 49.36 C44.21 45.03 39.16 41.59 33.9 40.3 L32.09 39.86 L32.02
								 38.21 L31.94 36.57 L34.03 37.02 C38.25 37.94 42.04 39.82 45.59 42.76 C47.19 44.09 49.68 46.93 50.6
								 48.5 C51.12 49.37 51.29 49.4 52.54 48.88 L53.45 48.5 L53.1 49.31 C51.99 51.88 50.67 54.5 50.51 54.48
								 C50.41 54.46 49.11 53.88 47.64 53.18 Z" class="st19"/>
				</g>
				<g id="shape2969-41" transform="translate(0.253324,-0.253644)">
					<title>path1616</title>
					<path d="M26.47 74.48 L26.47 58.25 L41.33 58.25 L56.19 58.25 L56.19 74.48 L56.19 90.71 L41.33 90.71 L26.47 90.71
								 L26.47 74.48 ZM44.89 77.66 L52.2 70.35 L51.01 69.17 L49.81 67.99 L43.7 74.1 L37.59 80.22 L35.71
								 78.34 L33.82 76.47 L32.59 77.72 L31.35 78.98 L34.34 81.97 C35.98 83.62 37.39 84.97 37.46 84.97 C37.53
								 84.97 40.88 81.68 44.89 77.66 ZM22.85 88.66 C19.47 87.84 16.1 86.39 13.36 84.59 C11.4 83.3 7.87
								 79.77 6.5 77.72 C5.91 76.83 5.39 76.06 5.35 76.01 C5.31 75.97 4.65 76.16 3.89 76.45 C3.12 76.73
								 2.5 76.9 2.5 76.83 C2.5 76.7 4.99 71.21 5.13 71.03 C5.16 70.99 6.52 71.59 8.15 72.37 L11.11 73.78
								 L9.81 74.28 L8.5 74.79 L8.93 75.54 C9.64 76.77 13.21 80.43 14.85 81.6 C16.86 83.03 20.09 84.58 22.24
								 85.13 L23.97 85.58 L23.97 87.27 C23.97 88.2 23.95 88.95 23.91 88.93 C23.88 88.92 23.4 88.8 22.85
								 88.66 ZM0 50.88 L0 34.52 L14.73 34.52 L29.47 34.52 L29.47 44.89 L29.47 55.25 L26.72 55.25 L23.97
								 55.25 L23.97 61.24 L23.97 67.24 L11.99 67.24 L0 67.24 L0 50.88 ZM21.48 52.76 C21.48 44.83 21.44
								 44.19 20.97 42.92 C20.35 41.27 18.86 39.66 17.27 38.94 C15.84 38.28 13.08 38.24 11.68 38.86 C9.85
								 39.67 8.06 41.75 7.64 43.58 L7.48 44.26 L8.97 44.26 C10.29 44.26 10.47 44.2 10.63 43.7 C11.06 42.26
								 12.72 41.21 14.53 41.23 C16.87 41.25 18.36 42.78 18.64 45.48 L18.8 47.01 L13.15 47.01 L7.49 47.01
								 L7.49 54.13 L7.49 61.24 L14.48 61.24 L21.48 61.24 L21.48 52.76 ZM13.99 55.57 C12.59 55.07 12.28
								 53.4 13.41 52.51 C14.53 51.63 16.23 52.45 16.23 53.88 C16.23 54.94 14.94 55.91 13.99 55.57 ZM47.64
								 53.18 C46.16 52.48 44.95 51.83 44.95 51.73 C44.95 51.64 45.21 51.49 45.53 51.41 C45.85 51.33 46.52
								 51.09 47.03 50.88 L47.96 50.49 L47.19 49.36 C44.21 45.03 39.16 41.59 33.9 40.3 L32.09 39.86 L32.02
								 38.21 L31.94 36.57 L34.03 37.02 C38.25 37.94 42.04 39.82 45.59 42.76 C47.19 44.09 49.68 46.93 50.6
								 48.5 C51.12 49.37 51.29 49.4 52.54 48.88 L53.45 48.5 L53.1 49.31 C51.99 51.88 50.67 54.5 50.51 54.48
								 C50.41 54.46 49.11 53.88 47.64 53.18 Z" class="st20"/>
				</g>
				<g id="shape2970-43" transform="translate(0.253324,-0.253644)">
					<title>path1614</title>
					<path d="M26.47 74.48 L26.47 58.25 L41.33 58.25 L56.19 58.25 L56.19 74.48 L56.19 90.71 L41.33 90.71 L26.47 90.71
								 L26.47 74.48 ZM44.89 77.66 L52.2 70.35 L51.01 69.17 L49.81 67.99 L43.7 74.1 L37.59 80.22 L35.71
								 78.34 L33.82 76.47 L32.59 77.72 L31.35 78.98 L34.34 81.97 C35.98 83.62 37.39 84.97 37.46 84.97 C37.53
								 84.97 40.88 81.68 44.89 77.66 ZM20.77 88.07 C18.41 87.37 15.56 86.03 13.36 84.59 C11.4 83.3 7.63
								 79.5 6.37 77.54 C5.82 76.68 5.29 75.98 5.18 75.98 C5.08 75.98 4.44 76.19 3.75 76.45 C3.06 76.71
								 2.5 76.87 2.5 76.81 C2.5 76.7 5 71.19 5.13 71.03 C5.16 70.99 6.52 71.59 8.15 72.37 L11.11 73.78
								 L9.86 74.22 C9.09 74.5 8.65 74.79 8.7 75 C8.97 76.12 13.02 80.38 15.28 81.92 C17.06 83.14 20.31
								 84.63 22.24 85.13 L23.97 85.58 L23.97 87.14 C23.97 89.01 23.97 89.02 20.77 88.07 ZM0 50.75 L0 34.52
								 L14.73 34.52 L29.47 34.52 L29.47 44.89 L29.47 55.25 L26.72 55.25 L23.97 55.25 L23.97 61.12 L23.97
								 66.99 L11.99 66.99 L0 66.99 L0 50.75 ZM21.48 52.76 C21.48 44.83 21.44 44.19 20.97 42.92 C20.35 41.27
								 18.86 39.66 17.27 38.94 C15.84 38.28 13.08 38.24 11.68 38.86 C9.85 39.67 8.06 41.75 7.64 43.58 L7.48
								 44.26 L8.97 44.26 C10.29 44.26 10.47 44.2 10.63 43.7 C11.06 42.26 12.72 41.21 14.53 41.23 C16.87
								 41.25 18.36 42.78 18.64 45.48 L18.8 47.01 L13.15 47.01 L7.49 47.01 L7.49 54.13 L7.49 61.24 L14.48
								 61.24 L21.48 61.24 L21.48 52.76 ZM13.99 55.57 C12.59 55.07 12.28 53.4 13.41 52.51 C14.53 51.63 16.23
								 52.45 16.23 53.88 C16.23 54.94 14.94 55.91 13.99 55.57 ZM47.64 53.18 C46.16 52.48 44.95 51.84 44.95
								 51.76 C44.95 51.68 45.58 51.39 46.34 51.14 C47.1 50.88 47.77 50.59 47.83 50.49 C48.01 50.2 45.62
								 47.21 43.99 45.71 C41.23 43.15 36.59 40.73 33.31 40.12 C32.78 40.03 32.26 39.82 32.16 39.67 C32.06
								 39.52 31.97 38.76 31.97 37.98 L31.97 36.57 L34.04 37.02 C38.25 37.94 42.04 39.83 45.59 42.76 C47.19
								 44.09 49.68 46.93 50.6 48.5 C51.12 49.37 51.29 49.4 52.54 48.88 L53.45 48.5 L53.1 49.31 C52.09 51.63
								 50.65 54.5 50.5 54.48 C50.4 54.46 49.11 53.88 47.64 53.18 L47.64 53.18 Z" class="st21"/>
				</g>
				<g id="shape2971-45" transform="translate(0.253324,-0.253644)">
					<title>path1612</title>
					<path d="M26.47 74.48 L26.47 58.25 L41.33 58.25 L56.19 58.25 L56.19 74.48 L56.19 90.71 L41.33 90.71 L26.47 90.71
								 L26.47 74.48 ZM44.89 77.66 L52.2 70.35 L51.01 69.17 L49.81 67.99 L43.7 74.1 L37.59 80.22 L35.71
								 78.34 L33.82 76.47 L32.59 77.72 L31.35 78.98 L34.34 81.97 C35.98 83.62 37.39 84.97 37.46 84.97 C37.53
								 84.97 40.88 81.68 44.89 77.66 ZM20.77 88.07 C18.41 87.37 15.56 86.03 13.36 84.59 C11.4 83.3 7.63
								 79.5 6.37 77.54 C5.82 76.68 5.29 75.98 5.18 75.98 C5.08 75.98 4.44 76.19 3.75 76.45 C3.06 76.71
								 2.5 76.87 2.5 76.81 C2.5 76.74 3.11 75.4 3.85 73.84 L5.21 70.99 L7.91 72.25 C9.4 72.94 10.7 73.6
								 10.81 73.71 C10.93 73.82 10.5 74.05 9.87 74.23 C9.24 74.4 8.68 74.62 8.62 74.72 C8.42 75.04 10.18
								 77.38 11.9 79.08 C14.81 81.95 18.64 84.18 22.31 85.14 L23.97 85.58 L23.97 87.15 C23.97 89.01 23.97
								 89.02 20.77 88.07 ZM0 50.75 L0 34.52 L14.73 34.52 L29.47 34.52 L29.47 44.89 L29.47 55.25 L26.72
								 55.25 L23.97 55.25 L23.97 61.12 L23.97 66.99 L11.99 66.99 L0 66.99 L0 50.75 ZM21.48 52.76 C21.48
								 44.83 21.44 44.19 20.97 42.92 C20.35 41.27 18.86 39.66 17.27 38.94 C15.84 38.28 13.08 38.24 11.68
								 38.86 C9.85 39.67 8.06 41.75 7.64 43.58 L7.48 44.26 L8.97 44.26 C10.29 44.26 10.47 44.2 10.63 43.7
								 C11.06 42.26 12.72 41.21 14.53 41.23 C16.87 41.25 18.36 42.78 18.64 45.48 L18.8 47.01 L13.15 47.01
								 L7.49 47.01 L7.49 54.13 L7.49 61.24 L14.48 61.24 L21.48 61.24 L21.48 52.76 ZM13.99 55.57 C12.59
								 55.07 12.28 53.4 13.41 52.51 C14.53 51.63 16.23 52.45 16.23 53.88 C16.23 54.94 14.94 55.91 13.99
								 55.57 ZM47.64 53.18 C46.16 52.48 44.95 51.84 44.95 51.76 C44.95 51.68 45.58 51.39 46.34 51.14 C47.1
								 50.88 47.77 50.59 47.83 50.49 C48.02 50.19 45.56 47.16 43.88 45.62 C42.99 44.8 41.35 43.59 40.24
								 42.92 C38.26 41.73 33.88 40.02 32.78 40.02 C32.25 40.02 32.22 39.91 32.22 38.39 C32.22 36.49 32.15
								 36.52 35.04 37.26 C40.85 38.74 46.56 42.71 49.87 47.55 C50.51 48.49 51.17 49.26 51.33 49.26 C51.5
								 49.26 52.04 49.09 52.54 48.88 L53.45 48.5 L53.1 49.31 C52.09 51.63 50.65 54.5 50.5 54.48 C50.4 54.46
								 49.11 53.88 47.64 53.18 Z" class="st22"/>
				</g>
				<g id="shape2972-47" transform="translate(0.253324,-0.253644)">
					<title>path1610</title>
					<path d="M26.47 74.48 L26.47 58.25 L41.33 58.25 L56.19 58.25 L56.19 74.48 L56.19 90.71 L41.33 90.71 L26.47 90.71
								 L26.47 74.48 ZM44.89 77.66 L52.2 70.35 L51.01 69.17 L49.81 67.99 L43.7 74.1 L37.59 80.22 L35.71
								 78.34 L33.82 76.47 L32.59 77.72 L31.35 78.98 L34.34 81.97 C35.98 83.62 37.39 84.97 37.46 84.97 C37.53
								 84.97 40.88 81.68 44.89 77.66 ZM20.77 88.07 C18.41 87.37 15.56 86.03 13.36 84.59 C11.4 83.3 7.63
								 79.5 6.37 77.54 C5.82 76.68 5.29 75.98 5.18 75.98 C5.08 75.98 4.44 76.19 3.75 76.45 C3.06 76.71
								 2.5 76.87 2.5 76.81 C2.5 76.74 3.11 75.4 3.85 73.84 L5.21 70.99 L7.91 72.25 C9.4 72.94 10.7 73.6
								 10.81 73.71 C10.93 73.82 10.5 74.05 9.87 74.23 C9.24 74.4 8.68 74.62 8.62 74.72 C8.42 75.04 10.18
								 77.38 11.9 79.08 C14.81 81.95 18.64 84.18 22.31 85.14 L23.97 85.58 L23.97 87.15 C23.97 89.01 23.97
								 89.02 20.77 88.07 ZM0 50.75 L0 34.52 L14.73 34.52 L29.47 34.52 L29.47 44.89 L29.47 55.25 L26.72
								 55.25 L23.97 55.25 L23.97 61.12 L23.97 66.99 L11.99 66.99 L0 66.99 L0 50.75 ZM21.48 52.54 L21.48
								 43.84 L20.71 42.31 C19.55 39.99 17.65 38.66 15.03 38.35 C12.31 38.03 9.29 39.78 8.08 42.38 C7.24
								 44.19 7.27 44.26 8.93 44.26 C10.33 44.26 10.38 44.24 10.86 43.33 C11.95 41.32 14.44 40.65 16.52
								 41.82 C17.83 42.55 18.45 43.62 18.64 45.48 L18.8 47.01 L13.02 47.01 L7.24 47.01 L7.24 53.96 C7.24
								 57.78 7.32 60.98 7.41 61.08 C7.5 61.17 10.7 61.24 14.53 61.24 L21.48 61.24 L21.48 52.54 ZM13.99
								 55.55 C12.72 55.15 12.3 53.48 13.24 52.62 C14.71 51.29 16.92 52.99 15.99 54.74 C15.71 55.26 14.55
								 55.73 13.99 55.55 ZM47.64 53.18 C46.16 52.48 44.95 51.84 44.95 51.76 C44.95 51.68 45.58 51.39 46.34
								 51.14 C47.1 50.88 47.77 50.59 47.83 50.49 C48.02 50.19 45.56 47.16 43.88 45.62 C42.99 44.8 41.35
								 43.59 40.24 42.92 C38.26 41.73 33.88 40.02 32.78 40.02 C32.25 40.02 32.22 39.91 32.22 38.39 C32.22
								 36.49 32.15 36.52 35.04 37.26 C40.85 38.74 46.56 42.71 49.87 47.55 C50.51 48.49 51.17 49.26 51.33
								 49.26 C51.5 49.26 52.04 49.09 52.54 48.88 L53.45 48.5 L53.1 49.31 C52.09 51.63 50.65 54.5 50.5 54.48
								 C50.4 54.46 49.11 53.88 47.64 53.18 Z" class="st23"/>
				</g>
				<g id="shape2973-49" transform="translate(0.253324,-0.253644)">
					<title>path1608</title>
					<path d="M26.72 74.48 L26.72 58.25 L41.46 58.25 L56.19 58.25 L56.19 74.48 L56.19 90.71 L41.46 90.71 L26.72 90.71
								 L26.72 74.48 ZM44.89 77.66 L52.2 70.35 L51.01 69.17 L49.81 67.99 L43.7 74.1 L37.59 80.22 L35.71
								 78.34 L33.82 76.47 L32.59 77.72 L31.35 78.98 L34.34 81.97 C35.98 83.62 37.39 84.97 37.46 84.97 C37.53
								 84.97 40.88 81.68 44.89 77.66 ZM20.77 88.07 C18.41 87.37 15.56 86.03 13.36 84.59 C11.4 83.3 7.63
								 79.5 6.37 77.54 C5.82 76.68 5.29 75.98 5.18 75.98 C5.08 75.98 4.44 76.19 3.75 76.45 C3.06 76.71
								 2.5 76.87 2.5 76.81 C2.5 76.74 3.11 75.4 3.85 73.84 L5.21 70.99 L7.91 72.25 C9.4 72.94 10.7 73.6
								 10.81 73.71 C10.93 73.82 10.5 74.05 9.87 74.23 C9.24 74.4 8.68 74.62 8.62 74.72 C8.42 75.04 10.18
								 77.38 11.9 79.08 C14.81 81.95 18.64 84.18 22.31 85.14 L23.97 85.58 L23.97 87.15 C23.97 89.01 23.97
								 89.02 20.77 88.07 ZM0 50.75 L0 34.52 L14.73 34.52 L29.47 34.52 L29.47 44.89 L29.47 55.25 L26.72
								 55.25 L23.97 55.25 L23.97 61.12 L23.97 66.99 L11.99 66.99 L0 66.99 L0 50.75 ZM21.48 52.54 L21.48
								 43.84 L20.71 42.31 C19.55 39.99 17.65 38.66 15.03 38.35 C12.31 38.03 9.29 39.78 8.08 42.38 C7.24
								 44.19 7.27 44.26 8.93 44.26 C10.33 44.26 10.38 44.24 10.86 43.33 C11.95 41.32 14.44 40.65 16.52
								 41.82 C17.83 42.55 18.45 43.62 18.64 45.48 L18.8 47.01 L13.02 47.01 L7.24 47.01 L7.24 53.96 C7.24
								 57.78 7.32 60.98 7.41 61.08 C7.5 61.17 10.7 61.24 14.53 61.24 L21.48 61.24 L21.48 52.54 ZM13.99
								 55.55 C12.72 55.15 12.3 53.48 13.24 52.62 C14.71 51.29 16.92 52.99 15.99 54.74 C15.71 55.26 14.55
								 55.73 13.99 55.55 ZM47.64 53.18 C46.16 52.48 44.95 51.84 44.95 51.76 C44.95 51.68 45.58 51.39 46.34
								 51.14 C47.1 50.88 47.77 50.59 47.83 50.49 C48.02 50.19 45.56 47.16 43.88 45.62 C42.99 44.8 41.35
								 43.59 40.24 42.92 C38.26 41.73 33.88 40.02 32.78 40.02 C32.25 40.02 32.22 39.91 32.22 38.39 C32.22
								 36.49 32.15 36.52 35.04 37.26 C40.85 38.74 46.56 42.71 49.87 47.55 C50.51 48.49 51.17 49.26 51.33
								 49.26 C51.5 49.26 52.04 49.09 52.54 48.88 L53.45 48.5 L53.1 49.31 C52.09 51.63 50.65 54.5 50.5 54.48
								 C50.4 54.46 49.11 53.88 47.64 53.18 Z" class="st24"/>
				</g>
				<g id="shape2974-51" transform="translate(0.253324,-0.253644)">
					<title>path1606</title>
					<path d="M26.72 74.48 L26.72 58.25 L41.46 58.25 L56.19 58.25 L56.19 74.48 L56.19 90.71 L41.46 90.71 L26.72 90.71
								 L26.72 74.48 ZM45.01 77.79 C48.96 73.84 52.19 70.49 52.19 70.35 C52.19 70.2 51.69 69.59 51.07 68.98
								 L49.94 67.87 L43.88 73.92 C40.55 77.25 37.72 79.97 37.59 79.97 C37.46 79.97 36.55 79.18 35.59 78.22
								 L33.82 76.47 L32.59 77.72 L31.35 78.98 L34.34 81.97 C35.98 83.62 37.44 84.97 37.58 84.97 C37.72
								 84.97 41.06 81.74 45.01 77.79 ZM20.77 88.07 C18.41 87.37 15.56 86.03 13.36 84.59 C11.4 83.3 7.63
								 79.5 6.37 77.54 C5.82 76.68 5.29 75.98 5.18 75.98 C5.08 75.98 4.44 76.19 3.75 76.45 C3.06 76.71
								 2.5 76.87 2.5 76.81 C2.5 76.74 3.11 75.4 3.85 73.84 L5.21 70.99 L7.91 72.25 C9.4 72.94 10.7 73.6
								 10.81 73.71 C10.93 73.82 10.5 74.05 9.87 74.23 C9.24 74.4 8.68 74.62 8.62 74.72 C8.42 75.04 10.18
								 77.38 11.9 79.08 C14.81 81.95 18.64 84.18 22.31 85.14 L23.97 85.58 L23.97 87.15 C23.97 89.01 23.97
								 89.02 20.77 88.07 ZM0 50.75 L0 34.52 L14.73 34.52 L29.47 34.52 L29.47 44.89 L29.47 55.25 L26.72
								 55.25 L23.97 55.25 L23.97 61.12 L23.97 66.99 L11.99 66.99 L0 66.99 L0 50.75 ZM21.42 52.32 L21.35
								 43.39 L20.73 42.18 C19.18 39.14 15.46 37.57 12.29 38.63 C10.64 39.17 8.82 40.8 8.08 42.38 C7.24
								 44.19 7.27 44.26 8.93 44.26 C10.32 44.26 10.38 44.24 10.86 43.35 C11.59 42.02 12.49 41.45 14.09
								 41.32 C15.24 41.22 15.64 41.31 16.56 41.85 C17.86 42.61 18.46 43.7 18.66 45.65 L18.8 47.01 L13.02
								 47.01 L7.24 47.01 L7.24 54.13 L7.24 61.24 L14.37 61.24 L21.5 61.24 L21.42 52.32 ZM13.99 55.55 C12.72
								 55.15 12.3 53.48 13.24 52.62 C14.71 51.29 16.92 52.99 15.99 54.74 C15.71 55.26 14.55 55.73 13.99
								 55.55 ZM47.64 53.18 C46.16 52.48 44.95 51.84 44.95 51.76 C44.95 51.68 45.58 51.39 46.34 51.14 C47.1
								 50.88 47.77 50.59 47.83 50.49 C48.02 50.19 45.56 47.16 43.88 45.62 C42.99 44.8 41.35 43.59 40.24
								 42.92 C38.26 41.73 33.88 40.02 32.78 40.02 C32.25 40.02 32.22 39.91 32.22 38.39 C32.22 36.49 32.15
								 36.52 35.04 37.26 C40.85 38.74 46.56 42.71 49.87 47.55 C50.51 48.49 51.17 49.26 51.33 49.26 C51.5
								 49.26 52.04 49.09 52.54 48.88 L53.45 48.5 L53.1 49.31 C52.09 51.63 50.65 54.5 50.5 54.48 C50.4 54.46
								 49.11 53.88 47.64 53.18 Z" class="st25"/>
				</g>
				<g id="shape2975-53" transform="translate(0.253324,-0.253644)">
					<title>path1604</title>
					<path d="M26.72 74.48 L26.72 58.25 L41.46 58.25 L56.19 58.25 L56.19 74.48 L56.19 90.71 L41.46 90.71 L26.72 90.71
								 L26.72 74.48 ZM45.01 77.79 C48.96 73.84 52.19 70.49 52.19 70.35 C52.19 70.2 51.69 69.59 51.07 68.98
								 L49.94 67.87 L43.88 73.92 C40.55 77.25 37.72 79.97 37.59 79.97 C37.46 79.97 36.55 79.18 35.59 78.22
								 L33.82 76.47 L32.59 77.72 L31.35 78.98 L34.34 81.97 C35.98 83.62 37.44 84.97 37.58 84.97 C37.72
								 84.97 41.06 81.74 45.01 77.79 ZM21.12 88.18 C15.36 86.54 9.55 82.35 6.5 77.64 C5.91 76.73 5.35 75.98
								 5.25 75.98 C5.16 75.98 4.55 76.16 3.9 76.38 C3.25 76.6 2.68 76.74 2.64 76.69 C2.59 76.64 3.15 75.34
								 3.88 73.8 L5.2 70.99 L7.91 72.26 C9.4 72.95 10.7 73.61 10.81 73.71 C10.93 73.82 10.5 74.05 9.87
								 74.23 C9.24 74.4 8.68 74.62 8.62 74.72 C8.48 74.95 9.53 76.5 10.96 78.19 C13.76 81.49 18.99 84.59
								 23.04 85.35 L23.97 85.52 L23.97 87.12 C23.97 88.99 23.96 88.99 21.12 88.18 ZM0 50.75 L0 34.52 L14.73
								 34.52 L29.47 34.52 L29.47 44.89 L29.47 55.25 L26.72 55.25 L23.97 55.25 L23.97 61.12 L23.97 66.99
								 L11.99 66.99 L0 66.99 L0 50.75 ZM21.42 52.32 L21.35 43.39 L20.73 42.18 C19.18 39.14 15.46 37.57
								 12.29 38.63 C10.64 39.17 8.82 40.8 8.08 42.38 C7.24 44.19 7.27 44.26 8.93 44.26 C10.32 44.26 10.38
								 44.24 10.86 43.35 C11.59 42.02 12.49 41.45 14.09 41.32 C15.24 41.22 15.64 41.31 16.56 41.85 C17.86
								 42.61 18.46 43.7 18.66 45.65 L18.8 47.01 L13.02 47.01 L7.24 47.01 L7.24 54.13 L7.24 61.24 L14.37
								 61.24 L21.5 61.24 L21.42 52.32 ZM13.99 55.55 C12.72 55.15 12.3 53.48 13.24 52.62 C14.71 51.29 16.92
								 52.99 15.99 54.74 C15.71 55.26 14.55 55.73 13.99 55.55 ZM47.57 53.13 L44.83 51.81 L45.71 51.42 C46.2
								 51.21 46.91 50.96 47.28 50.87 C47.65 50.78 47.95 50.61 47.95 50.51 C47.95 50.06 45.68 47.28 44.18
								 45.89 C41.28 43.19 38.38 41.57 34.4 40.42 L32.34 39.82 L32.27 38.27 L32.19 36.71 L33.37 36.89 C36.2
								 37.31 40.07 38.91 43.08 40.9 C45.2 42.3 48.47 45.5 49.87 47.55 C51.12 49.38 51.27 49.45 52.78 48.86
								 C53.18 48.71 53.22 48.77 53.08 49.22 C52.75 50.26 50.66 54.5 50.49 54.48 C50.4 54.47 49.08 53.86
								 47.57 53.13 Z" class="st26"/>
				</g>
				<g id="shape2976-55" transform="translate(0.253324,-0.253644)">
					<title>path1602</title>
					<path d="M26.72 74.48 L26.72 58.25 L41.46 58.25 L56.19 58.25 L56.19 74.48 L56.19 90.71 L41.46 90.71 L26.72 90.71
								 L26.72 74.48 ZM52.19 70.37 C52.19 70.04 50.16 67.98 49.83 67.98 C49.69 67.98 46.85 70.71 43.52 74.04
								 L37.46 80.09 L35.64 78.28 L33.82 76.47 L32.59 77.72 L31.35 78.98 L34.47 82.1 L37.58 85.22 L44.89
								 77.91 C48.91 73.9 52.19 70.5 52.19 70.37 ZM21.12 88.18 C15.36 86.54 9.55 82.35 6.5 77.64 C5.91 76.73
								 5.35 75.98 5.25 75.98 C5.16 75.98 4.55 76.16 3.9 76.38 C3.25 76.6 2.68 76.74 2.64 76.69 C2.59 76.64
								 3.15 75.34 3.88 73.8 L5.2 70.99 L7.91 72.26 C9.4 72.95 10.7 73.61 10.81 73.71 C10.93 73.82 10.5
								 74.05 9.87 74.23 C9.24 74.4 8.68 74.62 8.62 74.72 C8.48 74.95 9.53 76.5 10.96 78.19 C13.76 81.49
								 18.99 84.59 23.04 85.35 L23.97 85.52 L23.97 87.12 C23.97 88.99 23.96 88.99 21.12 88.18 ZM0 50.75
								 L0 34.52 L14.73 34.52 L29.47 34.52 L29.47 44.89 L29.47 55.25 L26.72 55.25 L23.97 55.25 L23.97 61.12
								 L23.97 66.99 L11.99 66.99 L0 66.99 L0 50.75 ZM21.42 52.32 C21.35 43.45 21.35 43.38 20.75 42.21 C20.02
								 40.79 18.98 39.76 17.48 38.98 C15.93 38.17 12.84 38.15 11.35 38.94 C9.58 39.88 8.06 41.78 7.59 43.65
								 C7.44 44.25 7.47 44.26 8.9 44.25 C10.35 44.25 10.37 44.24 11.01 43.18 C12.13 41.33 14.29 40.76 16.36
								 41.76 C17.75 42.44 18.48 43.76 18.48 45.61 L18.48 47.01 L12.86 47.01 L7.24 47.01 L7.24 54.13 L7.24
								 61.24 L14.37 61.24 L21.5 61.24 L21.42 52.32 ZM13.15 55.04 C12.32 54.13 12.84 52.41 13.99 52.25 C15.02
								 52.1 15.49 52.29 15.86 53.01 C16.52 54.29 15.8 55.5 14.38 55.5 C13.91 55.5 13.39 55.31 13.15 55.04
								 ZM47.57 53.13 L44.83 51.81 L45.71 51.42 C46.2 51.21 46.91 50.96 47.28 50.87 C47.65 50.78 47.95 50.61
								 47.95 50.51 C47.95 50.06 45.68 47.28 44.18 45.89 C41.28 43.19 38.38 41.57 34.4 40.42 L32.34 39.82
								 L32.27 38.27 L32.19 36.71 L33.37 36.89 C36.2 37.31 40.07 38.91 43.08 40.9 C45.2 42.3 48.47 45.5
								 49.87 47.55 C51.12 49.38 51.27 49.45 52.78 48.86 C53.18 48.71 53.22 48.77 53.08 49.22 C52.75 50.26
								 50.66 54.5 50.49 54.48 C50.4 54.47 49.08 53.86 47.57 53.13 Z" class="st27"/>
				</g>
				<g id="shape2977-57" transform="translate(0.253324,-0.253644)">
					<title>path1600</title>
					<path d="M26.72 74.48 L26.72 58.25 L41.46 58.25 L56.19 58.25 L56.19 74.48 L56.19 90.71 L41.46 90.71 L26.72 90.71
								 L26.72 74.48 ZM52.19 70.37 C52.19 70.04 50.16 67.98 49.83 67.98 C49.69 67.98 46.85 70.71 43.52 74.04
								 L37.46 80.09 L35.64 78.28 L33.82 76.47 L32.59 77.72 L31.35 78.98 L34.47 82.1 L37.58 85.22 L44.89
								 77.91 C48.91 73.9 52.19 70.5 52.19 70.37 ZM21.23 88.19 C17.22 87.15 11.77 83.87 9.1 80.9 C8.46 80.18
								 7.42 78.87 6.79 77.97 C6.17 77.08 5.57 76.25 5.47 76.14 C5.37 76.02 4.71 76.11 4 76.35 C3.29 76.58
								 2.68 76.74 2.64 76.69 C2.6 76.64 3.16 75.34 3.88 73.8 L5.2 71 L7.97 72.3 C9.49 73.01 10.74 73.67
								 10.74 73.77 C10.74 73.86 10.32 74.07 9.8 74.24 C8.46 74.67 8.42 74.76 9.16 75.86 C12.21 80.44 18.15
								 84.52 22.92 85.33 L23.97 85.51 L23.97 87.11 C23.97 88.97 24.07 88.94 21.23 88.19 ZM0 50.75 L0 34.52
								 L14.73 34.52 L29.47 34.52 L29.47 44.76 L29.47 55 L26.72 55 L23.97 55 L23.97 60.99 L23.97 66.99 L11.99
								 66.99 L0 66.99 L0 50.75 ZM21.42 52.32 C21.35 43.45 21.35 43.38 20.75 42.21 C20.02 40.79 18.98 39.76
								 17.48 38.98 C15.93 38.17 12.84 38.15 11.35 38.94 C9.58 39.88 8.06 41.78 7.59 43.65 C7.44 44.25 7.47
								 44.26 8.9 44.25 C10.35 44.25 10.37 44.24 11.01 43.18 C12.13 41.33 14.29 40.76 16.36 41.76 C17.75
								 42.44 18.48 43.76 18.48 45.61 L18.48 47.01 L12.86 47.01 L7.24 47.01 L7.24 54.13 L7.24 61.24 L14.37
								 61.24 L21.5 61.24 L21.42 52.32 ZM13.15 55.04 C12.32 54.13 12.84 52.41 13.99 52.25 C15.02 52.1 15.49
								 52.29 15.86 53.01 C16.52 54.29 15.8 55.5 14.38 55.5 C13.91 55.5 13.39 55.31 13.15 55.04 ZM47.78
								 53.18 C46.25 52.47 45.05 51.8 45.11 51.7 C45.17 51.61 45.83 51.33 46.58 51.09 C47.33 50.86 47.95
								 50.58 47.95 50.49 C47.95 50.08 45.66 47.27 44.17 45.85 C41.44 43.25 37.68 41.16 34.21 40.32 L32.34
								 39.86 L32.27 38.28 L32.19 36.71 L33.37 36.89 C36.18 37.31 40.03 38.89 43.08 40.89 C45 42.14 48.81
								 45.94 50.16 47.93 L51.2 49.48 L52.1 49.1 C52.59 48.9 53.05 48.78 53.12 48.85 C53.19 48.92 52.65
								 50.21 51.91 51.73 L50.57 54.47 L47.78 53.18 Z" class="st28"/>
				</g>
				<g id="shape2978-59" transform="translate(0.253324,-0.253644)">
					<title>path1598</title>
					<path d="M26.72 74.48 L26.72 58.25 L41.46 58.25 L56.19 58.25 L56.19 74.48 L56.19 90.71 L41.46 90.71 L26.72 90.71
								 L26.72 74.48 ZM52.19 70.37 C52.19 70.04 50.16 67.98 49.83 67.98 C49.69 67.98 46.85 70.71 43.52 74.04
								 L37.46 80.09 L35.64 78.28 L33.82 76.47 L32.59 77.72 L31.35 78.98 L34.47 82.1 L37.58 85.22 L44.89
								 77.91 C48.91 73.9 52.19 70.5 52.19 70.37 ZM21.85 88.36 C15.71 86.85 9.9 82.72 6.33 77.33 C5.83 76.59
								 5.27 75.98 5.08 75.98 C4.89 75.98 4.33 76.14 3.83 76.35 C3.34 76.56 2.89 76.72 2.84 76.72 C2.6 76.72
								 2.83 76.12 3.99 73.66 L5.24 71.02 L7.99 72.31 C9.5 73.01 10.74 73.66 10.74 73.75 C10.74 73.83 10.29
								 74.03 9.75 74.19 C9.21 74.36 8.69 74.6 8.61 74.73 C8.39 75.1 9.89 77.14 11.85 79.11 C13.68 80.95
								 15.71 82.45 17.86 83.52 C19.41 84.3 22.76 85.46 23.45 85.46 C23.93 85.46 23.97 85.61 23.97 87.09
								 C23.97 88.92 24.02 88.89 21.85 88.36 ZM0 50.75 L0 34.52 L14.73 34.52 L29.47 34.52 L29.47 44.76 L29.47
								 55 L26.72 55 L23.97 55 L23.97 60.99 L23.97 66.99 L11.99 66.99 L0 66.99 L0 50.75 ZM21.42 52.32 C21.35
								 43.45 21.35 43.38 20.75 42.21 C20.02 40.79 18.98 39.76 17.48 38.98 C15.93 38.17 12.84 38.15 11.35
								 38.94 C9.58 39.88 8.06 41.78 7.59 43.65 C7.44 44.25 7.47 44.26 8.9 44.25 C10.35 44.25 10.37 44.24
								 11.01 43.18 C12.13 41.33 14.29 40.76 16.36 41.76 C17.75 42.44 18.48 43.76 18.48 45.61 L18.48 47.01
								 L12.86 47.01 L7.24 47.01 L7.24 54.13 L7.24 61.24 L14.37 61.24 L21.5 61.24 L21.42 52.32 ZM13.15 55.04
								 C12.32 54.13 12.84 52.41 13.99 52.25 C15.02 52.1 15.49 52.29 15.86 53.01 C16.52 54.29 15.8 55.5
								 14.38 55.5 C13.91 55.5 13.39 55.31 13.15 55.04 ZM47.77 53.17 C46.24 52.46 45.06 51.81 45.15 51.73
								 C45.25 51.64 45.92 51.37 46.64 51.11 C47.36 50.86 47.95 50.56 47.95 50.44 C47.95 50.01 45.96 47.58
								 44.3 45.98 C41.47 43.27 37.75 41.18 34.21 40.32 L32.34 39.86 L32.27 38.28 L32.19 36.71 L33.37 36.89
								 C37.57 37.52 42.53 40.04 46.14 43.39 C47.7 44.83 48.43 45.69 50.53 48.56 L51.2 49.48 L52.2 49.13
								 C52.75 48.94 53.18 48.86 53.17 48.96 C53.16 49.05 52.57 50.33 51.86 51.8 L50.57 54.47 L47.77 53.17
								 Z" class="st29"/>
				</g>
				<g id="shape2979-61" transform="translate(0.253324,-0.253644)">
					<title>path1596</title>
					<path d="M26.72 74.48 L26.72 58.25 L41.46 58.25 L56.19 58.25 L56.19 74.48 L56.19 90.71 L41.46 90.71 L26.72 90.71
								 L26.72 74.48 ZM51.13 69.05 L49.83 67.73 L43.71 73.85 L37.58 79.97 L35.77 78.16 L33.96 76.36 L32.66
								 77.66 L31.35 78.97 L34.46 82.09 L37.58 85.22 L45.01 77.79 L52.44 70.37 L51.13 69.05 ZM21.85 88.36
								 C15.71 86.85 9.9 82.72 6.33 77.33 C5.83 76.59 5.27 75.98 5.08 75.98 C4.89 75.98 4.33 76.14 3.83
								 76.35 C3.34 76.56 2.89 76.72 2.84 76.72 C2.6 76.72 2.83 76.12 3.99 73.66 L5.24 71.02 L7.99 72.31
								 C9.5 73.01 10.74 73.66 10.74 73.75 C10.74 73.83 10.29 74.03 9.75 74.19 C9.21 74.36 8.69 74.6 8.61
								 74.73 C8.39 75.1 9.89 77.14 11.85 79.11 C13.68 80.95 15.71 82.45 17.86 83.52 C19.41 84.3 22.76 85.46
								 23.45 85.46 C23.93 85.46 23.97 85.61 23.97 87.09 C23.97 88.92 24.02 88.89 21.85 88.36 ZM0 50.75
								 L0 34.52 L14.73 34.52 L29.47 34.52 L29.47 44.76 L29.47 55 L26.72 55 L23.97 55 L23.97 60.99 L23.97
								 66.99 L11.99 66.99 L0 66.99 L0 50.75 ZM21.47 52.44 C21.47 43.74 21.47 43.62 20.89 42.39 C18.3 36.86
								 10.21 37 7.86 42.61 C7.23 44.13 7.32 44.26 8.93 44.26 C10.33 44.26 10.39 44.23 10.86 43.37 C11.12
								 42.87 11.82 42.19 12.42 41.84 C13.32 41.32 13.73 41.23 14.76 41.32 C17.05 41.54 18.48 43.17 18.48
								 45.55 L18.48 47.01 L12.86 47.01 L7.24 47.01 L7.24 54.13 L7.24 61.24 L14.36 61.24 L21.48 61.24 L21.47
								 52.44 L21.47 52.44 ZM13.24 55 C12.22 53.99 12.97 52.25 14.42 52.26 C15.25 52.26 15.57 52.45 15.94
								 53.17 C16.77 54.74 14.51 56.27 13.24 55 ZM47.77 53.17 C46.24 52.46 45.06 51.81 45.15 51.73 C45.25
								 51.64 45.92 51.37 46.64 51.11 C47.36 50.86 47.95 50.56 47.95 50.44 C47.95 50.01 45.96 47.58 44.3
								 45.98 C41.47 43.27 37.75 41.18 34.21 40.32 L32.34 39.86 L32.27 38.28 L32.19 36.71 L33.37 36.89 C37.57
								 37.52 42.53 40.04 46.14 43.39 C47.7 44.83 48.43 45.69 50.53 48.56 L51.2 49.48 L52.2 49.13 C52.75
								 48.94 53.18 48.86 53.17 48.96 C53.16 49.05 52.57 50.33 51.86 51.8 L50.57 54.47 L47.77 53.17 Z"
							class="st30"/>
				</g>
				<g id="shape2980-63" transform="translate(0.253324,-0.253644)">
					<title>path1594</title>
					<path d="M26.72 74.48 L26.72 58.25 L41.46 58.25 L56.19 58.25 L56.19 74.48 L56.19 90.71 L41.46 90.71 L26.72 90.71
								 L26.72 74.48 ZM51.13 69.05 L49.83 67.73 L43.7 73.85 L37.58 79.98 L35.84 78.23 C34.88 77.26 33.99
								 76.47 33.85 76.47 C33.52 76.47 31.47 78.51 31.47 78.83 C31.47 78.97 32.84 80.47 34.52 82.15 L37.58
								 85.22 L45.01 77.79 L52.44 70.37 L51.13 69.05 ZM21.85 88.36 C15.71 86.85 9.9 82.72 6.33 77.33 C5.83
								 76.59 5.27 75.98 5.08 75.98 C4.89 75.98 4.33 76.14 3.83 76.35 C3.34 76.56 2.89 76.72 2.84 76.72
								 C2.6 76.72 2.83 76.12 3.99 73.66 L5.24 71.02 L7.99 72.31 C9.5 73.01 10.74 73.66 10.74 73.75 C10.74
								 73.83 10.29 74.03 9.75 74.19 C9.21 74.36 8.69 74.6 8.61 74.73 C8.39 75.1 9.89 77.14 11.85 79.11
								 C13.68 80.95 15.71 82.45 17.86 83.52 C19.41 84.3 22.76 85.46 23.45 85.46 C23.93 85.46 23.97 85.61
								 23.97 87.09 C23.97 88.92 24.02 88.89 21.85 88.36 ZM0 50.75 L0 34.52 L14.73 34.52 L29.47 34.52 L29.47
								 44.76 L29.47 55 L26.72 55 L23.97 55 L23.97 60.99 L23.97 66.99 L11.99 66.99 L0 66.99 L0 50.75 ZM21.68
								 52.56 C21.6 44.09 21.58 43.86 21.01 42.59 C19.72 39.73 16.94 38.1 13.72 38.33 C11.08 38.52 9.08
								 39.92 7.96 42.39 C7.19 44.08 7.28 44.26 8.95 44.26 C10.35 44.26 10.43 44.23 11.01 43.35 C11.99 41.85
								 12.81 41.39 14.48 41.39 C16.92 41.39 18.27 42.76 18.44 45.39 L18.54 47.01 L12.89 47.01 L7.24 47.01
								 L7.24 54.13 L7.24 61.24 L14.5 61.24 L21.77 61.24 L21.68 52.56 ZM13.24 55 C12.23 53.99 13.01 52.25
								 14.48 52.25 C15.59 52.25 16.16 53.01 15.99 54.25 C15.82 55.45 14.14 55.9 13.24 55 ZM47.77 53.17
								 C46.24 52.46 45.06 51.81 45.15 51.73 C45.25 51.64 45.92 51.37 46.64 51.11 C47.36 50.86 47.95 50.56
								 47.95 50.44 C47.95 50.01 45.96 47.58 44.3 45.98 C41.47 43.27 37.75 41.18 34.21 40.32 L32.34 39.86
								 L32.27 38.28 L32.19 36.71 L33.37 36.89 C37.57 37.52 42.53 40.04 46.14 43.39 C47.7 44.83 48.43 45.69
								 50.53 48.56 L51.2 49.48 L52.2 49.13 C52.75 48.94 53.18 48.86 53.17 48.96 C53.16 49.05 52.57 50.33
								 51.86 51.8 L50.57 54.47 L47.77 53.17 Z" class="st31"/>
				</g>
				<g id="shape2981-65" transform="translate(0.253324,-0.253644)">
					<title>path1592</title>
					<path d="M26.72 74.48 L26.72 58.25 L41.46 58.25 L56.19 58.25 L56.19 74.48 L56.19 90.71 L41.46 90.71 L26.72 90.71
								 L26.72 74.48 ZM51.13 69.05 L49.83 67.73 L43.7 73.85 L37.58 79.98 L35.84 78.23 C34.88 77.26 33.99
								 76.47 33.85 76.47 C33.52 76.47 31.47 78.51 31.47 78.83 C31.47 78.97 32.84 80.47 34.52 82.15 L37.58
								 85.22 L45.01 77.79 L52.44 70.37 L51.13 69.05 ZM21.58 88.1 C18.89 87.4 16.22 86.22 13.7 84.59 C11.45
								 83.14 7.64 79.38 6.36 77.35 C5.85 76.52 5.4 75.82 5.38 75.79 C5.35 75.76 4.8 75.91 4.15 76.13 C3.5
								 76.35 2.92 76.48 2.86 76.42 C2.79 76.36 3.3 75.12 3.99 73.66 L5.24 71.02 L7.98 72.3 C9.49 73.01
								 10.65 73.66 10.55 73.75 C10.45 73.84 9.94 74.05 9.43 74.22 C8.91 74.38 8.49 74.63 8.49 74.76 C8.49
								 75.26 10.13 77.38 11.85 79.11 C13.68 80.95 15.71 82.45 17.86 83.52 C19.41 84.3 22.76 85.46 23.45
								 85.46 C23.93 85.46 23.97 85.61 23.97 87.09 C23.97 87.98 23.95 88.71 23.91 88.7 C23.88 88.69 22.83
								 88.42 21.58 88.1 ZM0 50.75 L0 34.52 L14.73 34.52 L29.47 34.52 L29.47 44.76 L29.47 55 L26.72 55 L23.97
								 55 L23.97 60.99 L23.97 66.99 L11.99 66.99 L0 66.99 L0 50.75 ZM21.68 52.56 L21.6 43.89 L20.95 42.5
								 C18.8 37.92 13.41 36.72 9.68 39.99 C8.75 40.81 7.49 43.01 7.49 43.81 C7.49 44.19 7.71 44.26 8.95
								 44.26 C10.35 44.26 10.43 44.23 11.01 43.35 C11.99 41.85 12.81 41.39 14.48 41.39 C16.86 41.39 18.25
								 42.75 18.43 45.25 L18.54 46.75 L12.95 46.82 L7.37 46.88 L7.3 54.06 L7.23 61.24 L14.5 61.24 L21.77
								 61.24 L21.68 52.56 ZM13.39 54.98 C12.61 54.36 12.55 53.54 13.25 52.8 C14.14 51.84 15.93 52.27 16.01
								 53.46 C16.07 54.28 15.95 54.63 15.44 55.06 C14.77 55.64 14.2 55.61 13.39 54.98 ZM47.7 52.97 L45.08
								 51.7 L46.51 51.18 C47.3 50.89 47.95 50.53 47.95 50.38 C47.95 49.79 44.59 45.96 42.83 44.54 C40.51
								 42.68 36.65 40.72 34.13 40.13 L32.22 39.68 L32.22 38.19 L32.22 36.71 L33.38 36.89 C37.57 37.52 42.53
								 40.04 46.14 43.39 C47.7 44.83 48.43 45.69 50.53 48.56 L51.2 49.48 L52.2 49.13 C52.75 48.94 53.19
								 48.82 53.19 48.87 C53.19 49.19 50.68 54.25 50.52 54.24 C50.41 54.23 49.14 53.66 47.7 52.97 Z"
							class="st32"/>
				</g>
			</g>
		</g>
	</g>
</svg>
