<?xml version="1.0" encoding="UTF-8" standalone="no"?>
<!DOCTYPE svg PUBLIC "-//W3C//DTD SVG 1.1//EN" "http://www.w3.org/Graphics/SVG/1.1/DTD/svg11.dtd">
<!-- Generated by Microsoft Visio, SVG Export Azure Attestation.svg Page-1 -->
<svg xmlns="http://www.w3.org/2000/svg" xmlns:xlink="http://www.w3.org/1999/xlink" xmlns:ev="http://www.w3.org/2001/xml-events"
		width="0.768154in" height="1.25984in" viewBox="0 0 55.3071 90.7087" xml:space="preserve" color-interpolation-filters="sRGB"
		class="st4">
	<style type="text/css">
	<![CDATA[
		.st1 {fill:url(#grad0-6);stroke:none;stroke-linecap:butt;stroke-width:0.75}
		.st2 {fill:url(#grad0-10);stroke:none;stroke-linecap:butt;stroke-width:0.75}
		.st3 {fill:#ffffff;stroke:none;stroke-linecap:butt;stroke-width:0.75}
		.st4 {fill:none;fill-rule:evenodd;font-size:12px;overflow:visible;stroke-linecap:square;stroke-miterlimit:3}
	]]>
	</style>

	<defs id="Patterns_And_Gradients">
		<linearGradient id="grad0-6" x1="0" y1="0" x2="1" y2="0" gradientTransform="rotate(90 0.5 0.5)">
			<stop offset="0" stop-color="#5e9624" stop-opacity="1"/>
			<stop offset="0.315" stop-color="#619a25" stop-opacity="1"/>
			<stop offset="0.66" stop-color="#69a728" stop-opacity="1"/>
			<stop offset="1" stop-color="#76bc2d" stop-opacity="1"/>
		</linearGradient>
		<linearGradient id="grad0-10" x1="0" y1="0" x2="1" y2="0" gradientTransform="rotate(-90 0.5 0.5)">
			<stop offset="0" stop-color="#5e9624" stop-opacity="1"/>
			<stop offset="0.545" stop-color="#6dad2a" stop-opacity="1"/>
			<stop offset="1" stop-color="#76bc2d" stop-opacity="1"/>
		</linearGradient>
	</defs>
	<g>
		<title>Page-1</title>
		<g id="group3235-1" transform="translate(4.53543,-28.3465)">
			<title>Azure Attestation</title>
			<g id="group3236-2">
				<title>Sheet.3236</title>
				<g id="shape3237-3">
					<title>Sheet.3237</title>
					<path d="M45.35 60.49 C45.35 75.73 27.34 88 23.42 90.49 A1.41065 1.44285 0 0 1 21.93 90.49 C18.01 88 0 75.73
								 0 60.49 L0 42.15 A1.42636 1.45892 0 0 1 1.39 40.69 C15.4 40.3 12.18 34.02 22.68 34.02 C33.18 34.02
								 29.95 40.3 43.96 40.69 A1.42636 1.45892 0 0 1 45.35 42.15 L45.35 60.49 Z" class="st1"/>
				</g>
				<g id="shape3238-7" transform="translate(1.88819,-2.35241)">
					<title>Sheet.3238</title>
					<path d="M41.58 62.99 C41.58 76.97 25.06 88.23 21.48 90.51 A1.29754 1.32716 0 0 1 20.11 90.51 C16.52 88.23 0
								 76.97 0 62.99 L0 46.18 A1.30069 1.33038 0 0 1 1.28 44.85 C14.12 44.49 11.16 38.72 20.79 38.72 C30.42
								 38.72 27.46 44.5 40.31 44.85 A1.30069 1.33038 0 0 1 41.58 46.18 L41.58 62.99 Z" class="st2"/>
				</g>
				<g id="group3239-11" transform="translate(10.4055,-13.4396)">
					<title>Sheet.3239</title>
					<g id="shape3240-12" transform="translate(0,-5.916)">
						<title>Sheet.3240</title>
						<path d="M22.39 85.42 L2.15 85.42 A2.14896 2.19801 -180 0 0 0 87.62 L0 90.34 a0.35816 0.366336 -180 0 0 0.35816
									 0.366336 L24.19 90.71 a0.35816 0.366336 -180 0 0 0.35816 -0.366336 L24.54 87.62 A2.14896 2.19801
									 -180 0 0 22.39 85.42 Z" class="st3"/>
					</g>
					<g id="shape3241-14" transform="translate(1.98245,0)">
						<title>Sheet.3241</title>
						<path d="M20.32 87.51 L0.25 87.51 a0.254482 0.260291 -180 0 0 -0.254482 0.260291 L0 89.14 A1.53003 1.56496
									 -180 0 0 1.53 90.71 L19.05 90.71 A1.53003 1.56496 -180 0 0 20.58 89.14 L20.58 87.77 a0.254482
									 0.260291 -180 0 0 -0.254482 -0.260291 Z" class="st3"/>
					</g>
					<g id="shape3242-16" transform="translate(4.89171,-14.0493)">
						<title>Sheet.3242</title>
						<path d="M12.04 81.59 C13.46 79.48 14.45 79.88 13.64 75.02 C12.84 70.16 7.55 70.2 7.23 70.2 C6.9 70.2 1.61
									 70.15 0.81 75.02 C0 79.89 0.99 79.48 2.41 81.59 A27.7888 28.4231 0 0 1 3.7 90.71 L10.75 90.71
									 A27.8579 28.4938 0 0 1 12.04 81.59 Z" class="st3"/>
					</g>
				</g>
			</g>
		</g>
	</g>
</svg>
