<?xml version="1.0" encoding="UTF-8" standalone="no"?>
<!DOCTYPE svg PUBLIC "-//W3C//DTD SVG 1.1//EN" "http://www.w3.org/Graphics/SVG/1.1/DTD/svg11.dtd">
<!-- Generated by Microsoft Visio, SVG Export Azure Maps Account.svg Page-1 -->
<svg xmlns="http://www.w3.org/2000/svg" xmlns:xlink="http://www.w3.org/1999/xlink" xmlns:ev="http://www.w3.org/2001/xml-events"
		width="0.944882in" height="1.25984in" viewBox="0 0 68.0315 90.7087" xml:space="preserve" color-interpolation-filters="sRGB"
		class="st5">
	<style type="text/css">
	<![CDATA[
		.st1 {fill:url(#grad0-6);stroke:none;stroke-linecap:butt;stroke-width:5.32174}
		.st2 {fill:#9cebff;stroke:none;stroke-linecap:butt;stroke-width:5.32174}
		.st3 {fill:#ffffff;fill-opacity:0.7;stroke:none;stroke-linecap:butt;stroke-width:5.32174}
		.st4 {fill:#32bedd;stroke:none;stroke-linecap:butt;stroke-width:5.32174}
		.st5 {fill:none;fill-rule:evenodd;font-size:12px;overflow:visible;stroke-linecap:square;stroke-miterlimit:3}
	]]>
	</style>

	<defs id="Patterns_And_Gradients">
		<linearGradient id="grad0-6" x1="0" y1="0" x2="1" y2="0" gradientTransform="rotate(-90 0.5 0.5)">
			<stop offset="0" stop-color="#198ab3" stop-opacity="1"/>
			<stop offset="0.44" stop-color="#28b7db" stop-opacity="1"/>
			<stop offset="0.775" stop-color="#32d4f5" stop-opacity="1"/>
		</linearGradient>
	</defs>
	<g>
		<title>Page-1</title>
		<g id="group2898-1" transform="translate(5.66929,-28.3465)">
			<title>Azure Maps Account</title>
			<g id="group2899-2">
				<title> atlasicon</title>
				<g id="shape2900-3">
					<title>Sheet.2900</title>
					<path d="M43.74 82.2 C32.78 90.71 17.04 88.71 8.52 77.77 C0 66.83 2 51.1 12.96 42.6 C13.03 42.52 13.1 42.45 13.24
								 42.38 C24.27 34.02 40.01 36.23 48.39 47.24 C56.69 58.25 54.62 73.77 43.74 82.2 Z" class="st1"/>
				</g>
				<g id="shape2901-7" transform="translate(13.6722,-17.0145)">
					<title>Sheet.2901</title>
					<path d="M18.68 61.04 L0 90.71 L23.41 81.63 L18.68 61.04 L18.68 61.04 Z" class="st2"/>
				</g>
				<g id="shape2902-9" transform="translate(28.5612,-12.582)">
					<title>Sheet.2902</title>
					<path d="M0 62.61 L11.6 90.71 L3.79 56.61 L0 62.61 L0 62.61 Z" class="st3"/>
				</g>
				<g id="shape2903-11" transform="translate(27.9168,-12.5109)">
					<title>Sheet.2903</title>
					<path d="M0 80.7 L7.02 77.98 L12.24 90.71 L0 80.7 L0 80.7 Z" class="st4"/>
				</g>
			</g>
		</g>
	</g>
</svg>
