<?xml version="1.0" encoding="UTF-8" standalone="no"?>
<!DOCTYPE svg PUBLIC "-//W3C//DTD SVG 1.1//EN" "http://www.w3.org/Graphics/SVG/1.1/DTD/svg11.dtd">
<!-- Generated by Microsoft Visio, SVG Export Azure Arc Machine.svg Page-1 -->
<svg xmlns="http://www.w3.org/2000/svg" xmlns:xlink="http://www.w3.org/1999/xlink" xmlns:ev="http://www.w3.org/2001/xml-events"
		width="1.53494in" height="1.8499in" viewBox="0 0 110.516 133.193" xml:space="preserve" color-interpolation-filters="sRGB"
		class="st4">
	<style type="text/css">
	<![CDATA[
		.st1 {fill:#804998;stroke:none;stroke-linecap:butt;stroke-width:38.25}
		.st2 {fill:#e5e5e5;stroke:none;stroke-linecap:butt;stroke-width:38.25}
		.st3 {fill:#b8d432;stroke:none;stroke-linecap:butt;stroke-width:38.25}
		.st4 {fill:none;fill-rule:evenodd;font-size:12px;overflow:visible;stroke-linecap:square;stroke-miterlimit:3}
	]]>
	</style>

	<g>
		<title>Page-1</title>
		<g id="group3271-1" transform="translate(38.25,-38.25)">
			<title>Azure Arc Machine</title>
			<g id="group3272-2">
				<title>Sheet.3272</title>
				<g id="shape3273-3">
					<title>Sheet.3273</title>
					<path d="M27.21 76.5 L6.8 76.5 C3.06 76.5 0 79.69 0 83.59 L0 133.19 L34.02 133.19 L34.02 83.59 C34.02 79.69 30.95
								 76.5 27.21 76.5 Z" class="st1"/>
				</g>
				<g id="shape3274-5" transform="translate(6.80315,-28.3465)">
					<title>Sheet.3274</title>
					<path d="M18.71 119.02 L1.7 119.02 C0.75 119.02 0 118.24 0 117.25 C0 116.26 0.75 115.48 1.7 115.48 L18.71 115.48
								 C19.66 115.48 20.41 116.26 20.41 117.25 C20.41 118.24 19.66 119.02 18.71 119.02 ZM18.71 133.19 L1.7
								 133.19 C0.75 133.19 0 132.41 0 131.42 C0 130.43 0.75 129.65 1.7 129.65 L18.71 129.65 C19.66 129.65
								 20.41 130.43 20.41 131.42 C20.41 132.41 19.66 133.19 18.71 133.19 Z" class="st2"/>
				</g>
				<g id="shape3275-7" transform="translate(13.6063,-7.08661)">
					<title>Sheet.3275</title>
					<ellipse cx="3.40157" cy="129.65" rx="3.40157" ry="3.54331" class="st3"/>
				</g>
			</g>
		</g>
	</g>
</svg>
