<?xml version="1.0" encoding="UTF-8" standalone="no"?>
<!DOCTYPE svg PUBLIC "-//W3C//DTD SVG 1.1//EN" "http://www.w3.org/Graphics/SVG/1.1/DTD/svg11.dtd">
<!-- Generated by Microsoft Visio, SVG Export Azure Stack Capacity.svg Page-1 -->
<svg xmlns="http://www.w3.org/2000/svg" xmlns:xlink="http://www.w3.org/1999/xlink" xmlns:ev="http://www.w3.org/2001/xml-events"
		width="0.768154in" height="1.25984in" viewBox="0 0 55.3071 90.7087" xml:space="preserve" color-interpolation-filters="sRGB"
		class="st9">
	<style type="text/css">
	<![CDATA[
		.st1 {fill:url(#grad0-7);stroke:none;stroke-linecap:butt;stroke-width:0.75}
		.st2 {fill:#003067;stroke:none;stroke-linecap:butt;stroke-width:0.75}
		.st3 {fill:#50e6ff;stroke:none;stroke-linecap:butt;stroke-width:0.75}
		.st4 {fill:#76bc2d;stroke:none;stroke-linecap:butt;stroke-width:0.75}
		.st5 {fill:#5e9624;stroke:none;stroke-linecap:butt;stroke-width:0.75}
		.st6 {fill:url(#grad0-23);stroke:none;stroke-linecap:butt;stroke-width:0.75}
		.st7 {fill:#005ba1;stroke:none;stroke-linecap:butt;stroke-width:0.75}
		.st8 {fill:#0078d4;stroke:none;stroke-linecap:butt;stroke-width:0.75}
		.st9 {fill:none;fill-rule:evenodd;font-size:12px;overflow:visible;stroke-linecap:square;stroke-miterlimit:3}
	]]>
	</style>

	<defs id="Patterns_And_Gradients">
		<linearGradient id="grad0-7" x1="0" y1="0" x2="1" y2="0" gradientTransform="rotate(-90 0.5 0.5)">
			<stop offset="0" stop-color="#949494" stop-opacity="1"/>
			<stop offset="0.53" stop-color="#a2a2a2" stop-opacity="1"/>
			<stop offset="1" stop-color="#b3b3b3" stop-opacity="1"/>
		</linearGradient>
		<linearGradient id="grad0-23" x1="0" y1="0" x2="1" y2="0" gradientTransform="rotate(76.668659428474 0.5 0.5)">
			<stop offset="0" stop-color="#0078d4" stop-opacity="1"/>
			<stop offset="0.02" stop-color="#0d7ed8" stop-opacity="1"/>
			<stop offset="0.08" stop-color="#2b8ae0" stop-opacity="1"/>
			<stop offset="0.15" stop-color="#4194e7" stop-opacity="1"/>
			<stop offset="0.22" stop-color="#519beb" stop-opacity="1"/>
			<stop offset="0.29" stop-color="#5b9fee" stop-opacity="1"/>
			<stop offset="0.4" stop-color="#5ea0ef" stop-opacity="1"/>
			<stop offset="0.55" stop-color="#5b9fee" stop-opacity="1"/>
			<stop offset="0.68" stop-color="#509aeb" stop-opacity="1"/>
			<stop offset="0.8" stop-color="#3f92e6" stop-opacity="1"/>
			<stop offset="0.91" stop-color="#2688df" stop-opacity="1"/>
			<stop offset="0.99" stop-color="#127fd9" stop-opacity="1"/>
		</linearGradient>
	</defs>
	<g>
		<title>Page-1</title>
		<g id="group2797-1" transform="translate(4.53543,-28.3465)">
			<title>Azure Stack Capacity</title>
			<g id="group2798-2">
				<title>Sheet.2798</title>
				<g id="group2799-3" transform="translate(0,-0.291231)">
					<title>Sheet.2799</title>
					<g id="shape2800-4">
						<title>Sheet.2800</title>
						<path d="M28.63 88.8 A1.67772 1.94154 0 0 1 26.98 90.71 L1.65 90.71 A1.64976 1.90918 0 0 1 0 88.8 L0 36.22
									 A1.62179 1.87682 0 0 1 1.65 34.31 L26.98 34.31 A1.64976 1.90918 0 0 1 28.63 36.22 L28.63 88.8
									 Z" class="st1"/>
					</g>
					<g id="shape2801-8" transform="translate(4.1943,-33.0061)">
						<title>Sheet.2801</title>
						<path d="M0 87.08 A3.13174 3.6242 0 0 1 3.13 83.49 L17.36 83.49 A3.10378 3.59185 0 0 1 20.47 87.08 A3.10378
									 3.59185 0 0 1 17.36 90.71 L3.13 90.71 A3.13174 3.6242 0 0 1 0 87.08 Z" class="st2"/>
					</g>
					<g id="shape2802-10" transform="translate(4.1943,-43.717)">
						<title>Sheet.2802</title>
						<path d="M0 87.12 A3.10378 3.59185 0 0 1 3.13 83.65 L17.36 83.65 A3.07582 3.55949 0 0 1 20.47 87.12 A3.10378
									 3.59185 0 0 1 17.36 90.71 L3.13 90.71 A3.13174 3.6242 0 0 1 0 87.12 Z" class="st2"/>
					</g>
					<g id="shape2803-12" transform="translate(5.34074,-44.8819)">
						<title>Sheet.2803</title>
						<ellipse cx="2.09715" cy="88.2817" rx="2.09715" ry="2.42692" class="st3"/>
					</g>
					<g id="shape2804-14" transform="translate(5.34074,-34.2034)">
						<title>Sheet.2804</title>
						<ellipse cx="2.09715" cy="88.2817" rx="2.09715" ry="2.42692" class="st3"/>
					</g>
				</g>
				<g id="shape2805-16" transform="translate(20.2445,-3.33297)">
					<title>Sheet.2805</title>
					<ellipse cx="12.5549" cy="84.7546" rx="12.5549" ry="5.95405" class="st4"/>
				</g>
				<g id="shape2806-18" transform="translate(28.9406,-8.02502)">
					<title>Sheet.2806</title>
					<ellipse cx="4.16633" cy="89.3819" rx="4.16633" ry="1.32672" class="st5"/>
				</g>
				<g id="shape2807-20" transform="translate(20.2445,-16.5678)">
					<title>Sheet.2807</title>
					<ellipse cx="12.5549" cy="84.7546" rx="12.5549" ry="5.95405" class="st6"/>
				</g>
				<g id="shape2808-24" transform="translate(28.9406,-21.2598)">
					<title>Sheet.2808</title>
					<ellipse cx="4.16633" cy="89.3819" rx="4.16633" ry="1.32672" class="st7"/>
				</g>
				<g id="shape2809-26" transform="translate(20.2445,0)">
					<title>Sheet.2809</title>
					<path d="M12.55 87.28 C19.49 87.28 25.11 84.59 25.11 81.29 L25.11 84.95 C24.86 88.18 19.35 90.71 12.55 90.71
								 C5.76 90.71 0 88.06 0 84.75 L0 81.52 C0 84.59 5.62 87.28 12.55 87.28 Z" class="st5"/>
				</g>
				<g id="shape2810-28" transform="translate(20.2445,-13.3643)">
					<title>Sheet.2810</title>
					<path d="M12.55 87.38 C19.49 87.38 25.11 84.72 25.11 81.42 L25.11 84.95 C24.86 88.18 19.35 90.71 12.55 90.71
								 C5.76 90.71 0 88.02 0 84.72 L0 81.49 C0 84.72 5.62 87.38 12.55 87.38 Z" class="st8"/>
				</g>
			</g>
		</g>
	</g>
</svg>
