<?xml version="1.0" encoding="UTF-8" standalone="no"?>
<!DOCTYPE svg PUBLIC "-//W3C//DTD SVG 1.1//EN" "http://www.w3.org/Graphics/SVG/1.1/DTD/svg11.dtd">
<!-- Generated by Microsoft Visio, SVG Export Azure Active Directory Risky Sign-In.svg Page-1 -->
<svg xmlns="http://www.w3.org/2000/svg" xmlns:xlink="http://www.w3.org/1999/xlink" xmlns:ev="http://www.w3.org/2001/xml-events"
		width="0.945129in" height="1.25984in" viewBox="0 0 68.0493 90.7087" xml:space="preserve" color-interpolation-filters="sRGB"
		class="st4">
	<style type="text/css">
	<![CDATA[
		.st1 {fill:#57a300;stroke:none;stroke-linecap:butt;stroke-width:0.489424}
		.st2 {fill:#0072c6;stroke:none;stroke-linecap:butt;stroke-width:0.489424}
		.st3 {fill:#ff8c00;stroke:none;stroke-linecap:butt;stroke-width:0.489424}
		.st4 {fill:none;fill-rule:evenodd;font-size:12px;overflow:visible;stroke-linecap:square;stroke-miterlimit:3}
	]]>
	</style>

	<g>
		<title>Page-1</title>
		<g id="group3314-1" transform="translate(5.66929,-28.3465)">
			<title>Azure-Active-Directory-Risky-Sign-in</title>
			<g id="group3315-2">
				<title>g16</title>
				<g id="shape3316-3" transform="translate(0,-16.5648)">
					<title>path10</title>
					<path d="M28.52 75.85 L19.03 66.93 L26.58 66.93 L39.37 78.82 L26.78 90.71 L19.03 90.71 L28.52 81.79 L1.7 81.79
								 C0.73 81.79 0 80.7 0 79.73 L0 77.27 C0 76.31 0.73 75.84 1.7 75.84 L28.52 75.85 Z" class="st1"/>
				</g>
				<g id="shape3317-5" transform="translate(3.77134,-0.215907)">
					<title>path12</title>
					<path d="M1.53 49.26 A4.70288 4.66465 -180 0 0 8.18 49.16 L8.29 49.06 A19.0156 18.861 0 0 1 35.18 49.34 C35.26
								 49.42 35.34 49.5 35.42 49.58 A18.9207 18.7668 0 0 1 40.71 64.03 A4.8393 4.79996 0 0 1 42.86 65.96
								 L42.87 65.98 L42.88 66 L47.69 74.29 A28.4812 28.2497 -180 0 0 41.93 42.47 A28.843 28.6085 -180 0
								 0 21.68 34.23 A28.5358 28.3038 -180 0 0 1.43 42.47 C1.4 42.5 1.36 42.53 1.33 42.57 A4.70288 4.66465
								 -180 0 0 1.43 49.16 C1.46 49.2 1.5 49.23 1.53 49.26 ZM22.33 88.66 A4.90217 4.86232 0 0 1 23.01 86.31
								 L25.99 81.03 A18.9574 18.8033 0 0 1 8.18 75.77 A5.19873 5.15647 -180 0 0 8.08 75.68 A4.70288 4.66465
								 -180 0 0 1.43 75.77 C1.39 75.81 1.36 75.84 1.33 75.87 A4.70288 4.66465 -180 0 0 1.43 82.47 A28.8436
								 28.6091 -180 0 0 21.68 90.71 C22.04 90.71 22.4 90.7 22.76 90.69 A4.57892 4.54169 0 0 1 22.33 88.66
								 Z" class="st2"/>
				</g>
				<g id="shape3318-7" transform="translate(28.7179,2.70006E-13)">
					<title>path14</title>
					<path d="M27.85 87.27 L21.86 77.27 L15.88 66.95 A2.22718 2.20907 -180 0 0 13.99 65.78 A2.22718 2.20907 -180 0
								 0 12.1 66.96 L6.11 76.64 L0.12 87.27 A2.20998 2.19201 -180 0 0 2.01 90.71 L25.96 90.71 A2.20998
								 2.19201 -180 0 0 27.85 87.27 ZM14.3 73.21 L15.88 73.21 L15.25 82.27 L12.73 82.27 L12.41 73.21 L14.3
								 73.21 ZM13.99 86.96 A1.89029 1.87492 0 0 1 12.1 85.08 A1.89029 1.87492 0 0 1 13.99 83.21 A1.89029
								 1.87492 0 0 1 15.88 85.08 A1.89029 1.87492 0 0 1 13.99 86.96 L13.99 86.96 Z" class="st3"/>
				</g>
			</g>
		</g>
	</g>
</svg>
