<?xml version="1.0" encoding="UTF-8" standalone="no"?>
<!DOCTYPE svg PUBLIC "-//W3C//DTD SVG 1.1//EN" "http://www.w3.org/Graphics/SVG/1.1/DTD/svg11.dtd">
<!-- Generated by Microsoft Visio, SVG Export Azure Active Directory B2C.svg Page-1 -->
<svg xmlns="http://www.w3.org/2000/svg" xmlns:xlink="http://www.w3.org/1999/xlink" xmlns:ev="http://www.w3.org/2001/xml-events"
		width="0.944882in" height="1.21654in" viewBox="0 0 68.0315 87.5906" xml:space="preserve" color-interpolation-filters="sRGB"
		class="st9">
	<style type="text/css">
	<![CDATA[
		.st1 {fill:#804998;stroke:none;stroke-linecap:butt;stroke-width:0.48495}
		.st2 {fill:#59b4d9;stroke:none;stroke-linecap:butt;stroke-width:0.48495}
		.st3 {fill:#ffffff;stroke:none;stroke-linecap:butt;stroke-width:0.408885}
		.st4 {fill:#804998;stroke:none;stroke-linecap:butt;stroke-width:0.37371}
		.st5 {fill:#ffffff;stroke:none;stroke-linecap:butt;stroke-width:0.614778}
		.st6 {fill:#804998;stroke:none;stroke-linecap:butt;stroke-width:0.637652}
		.st7 {fill:#804998;stroke:none;stroke-linecap:butt;stroke-width:0.6481}
		.st8 {fill:#ffffff;stroke:none;stroke-linecap:butt;stroke-width:0.637534}
		.st9 {fill:none;fill-rule:evenodd;font-size:12px;overflow:visible;stroke-linecap:square;stroke-miterlimit:3}
	]]>
	</style>

	<g>
		<title>Page-1</title>
		<g id="group3385-1" transform="translate(5.66929,-28.3465)">
			<title>Azure Active Directory B2C</title>
			<g id="group3386-2">
				<title>g12</title>
				<g id="shape3387-3" transform="translate(-2.83773E-13,-6.11691)">
					<title>circle4</title>
					<ellipse cx="23.346" cy="63.7199" rx="23.346" ry="23.8707" class="st1"/>
				</g>
				<g id="shape3388-5" transform="translate(33.0746,-9.70345)">
					<title>path8</title>
					<path d="M8.01 75.41 C7.8 75.52 7.7 75.52 7.38 75.62 L7.38 86.73 C7.7 86.84 8.12 87.05 8.44 87.38 L13.29 83.39
								 C13.18 83.17 13.18 82.74 13.18 82.42 C13.18 82.09 13.29 81.55 13.39 81.23 L8.01 75.41 ZM0 81.23
								 C0.21 81.55 0.32 82.09 0.32 82.52 C0.32 82.85 0.21 83.28 0.11 83.6 L4.96 87.59 C5.17 87.38 5.59
								 87.16 5.9 86.94 L5.9 75.62 C5.69 75.52 5.59 75.52 5.48 75.41 L0 81.23 Z" class="st2"/>
				</g>
				<g id="shape3389-7" transform="translate(22.9526,1.42109E-14)">
					<title>path10</title>
					<path d="M16.87 53.09 L0 73.58 L16.87 87.59 L33.74 73.58 L16.87 53.09 ZM26.04 75.62 C25.41 75.62 24.88 75.41
								 24.36 74.98 L19.51 79.07 C19.61 79.29 19.61 79.51 19.61 79.83 C19.61 81.34 18.45 82.63 16.87 82.63
								 C15.29 82.63 14.13 81.45 14.13 79.83 C14.13 79.61 14.13 79.4 14.23 79.18 L9.07 75.08 C8.65 75.41
								 8.12 75.52 7.59 75.52 C6.12 75.52 4.85 74.33 4.85 72.71 C4.85 71.2 6.01 69.91 7.59 69.91 C8.01 69.91
								 8.44 70.02 8.86 70.23 L14.23 64.2 C14.13 63.87 14.02 63.44 14.02 63.01 C14.02 61.5 15.18 60.21 16.77
								 60.21 C18.35 60.21 19.51 61.39 19.51 63.01 C19.51 63.44 19.4 63.98 19.19 64.3 L24.46 70.34 C24.88
								 70.13 25.41 70.02 25.83 70.02 C27.31 70.02 28.57 71.2 28.57 72.82 C28.68 74.44 27.41 75.62 26.04
								 75.62 Z" class="st2"/>
				</g>
				<g id="shape3390-9" transform="translate(17.2147,-33.1158)">
					<title>path4530</title>
					<ellipse cx="6.11542" cy="81.3377" rx="6.11542" ry="6.25287" class="st3"/>
				</g>
				<g id="shape3391-11" transform="translate(19.058,-34.9197)">
					<title>path4534</title>
					<ellipse cx="4.29611" cy="83.1979" rx="4.29611" ry="4.39267" class="st4"/>
				</g>
				<g id="shape3392-13" transform="translate(14.3199,-15.9063)">
					<title>path4530-1</title>
					<ellipse cx="9.19483" cy="78.1891" rx="9.19483" ry="9.40149" class="st5"/>
				</g>
				<g id="shape3393-15" transform="translate(16.1264,-17.7118)">
					<title>path4534-6</title>
					<ellipse cx="7.33035" cy="80.0954" rx="7.33035" ry="7.49511" class="st6"/>
				</g>
				<g id="shape3394-17" transform="translate(11.477,-14.8442)">
					<title>rect4554</title>
					<path d="M0 84.15 A3.36316 3.43875 -180 0 0 3.36 87.59 L20.65 87.59 A3.36316 3.43875 -180 0 0 24.01 84.15 L24.01
								 80.28 A3.36316 3.43875 -180 0 0 20.65 76.84 L3.36 76.84 A3.36316 3.43875 -180 0 0 -0 80.28 L0 84.15
								 Z" class="st7"/>
				</g>
				<g id="shape3395-19" transform="translate(-22.9626,26.5122) rotate(-46.2537)">
					<title>rect4558</title>
					<path d="M-0.46 87.59 L20.65 87.59 L21.57 66.03 L0.46 66.03 L-0.46 87.59 Z" class="st8"/>
				</g>
				<g id="shape3396-21" transform="translate(33.0746,-9.70346)">
					<title>path8-5</title>
					<path d="M8.01 75.41 C7.8 75.52 7.7 75.52 7.38 75.62 L7.38 86.73 C7.7 86.84 8.12 87.05 8.44 87.38 L13.29 83.39
								 C13.18 83.17 13.18 82.74 13.18 82.42 C13.18 82.09 13.29 81.55 13.39 81.23 L8.01 75.41 ZM0 81.23
								 C0.21 81.55 0.32 82.09 0.32 82.52 C0.32 82.85 0.21 83.28 0.11 83.6 L4.96 87.59 C5.17 87.38 5.59
								 87.16 5.9 86.94 L5.9 75.62 C5.69 75.52 5.59 75.52 5.48 75.41 L0 81.23 Z" class="st2"/>
				</g>
				<g id="shape3397-23" transform="translate(22.9526,1.42109E-14)">
					<title>path10-9</title>
					<path d="M16.87 53.09 L0 73.58 L16.87 87.59 L33.74 73.58 L16.87 53.09 ZM26.04 75.62 C25.41 75.62 24.88 75.41
								 24.36 74.98 L19.51 79.07 C19.61 79.29 19.61 79.51 19.61 79.83 C19.61 81.34 18.45 82.63 16.87 82.63
								 C15.29 82.63 14.13 81.45 14.13 79.83 C14.13 79.61 14.13 79.4 14.23 79.18 L9.07 75.08 C8.65 75.41
								 8.12 75.52 7.59 75.52 C6.12 75.52 4.85 74.33 4.85 72.71 C4.85 71.2 6.01 69.91 7.59 69.91 C8.01 69.91
								 8.44 70.02 8.86 70.23 L14.23 64.2 C14.13 63.87 14.02 63.44 14.02 63.01 C14.02 61.5 15.18 60.21 16.77
								 60.21 C18.35 60.21 19.51 61.39 19.51 63.01 C19.51 63.44 19.4 63.98 19.19 64.3 L24.46 70.34 C24.88
								 70.13 25.41 70.02 25.83 70.02 C27.31 70.02 28.57 71.2 28.57 72.82 C28.68 74.44 27.41 75.62 26.04
								 75.62 Z" class="st2"/>
				</g>
			</g>
		</g>
	</g>
</svg>
