<?xml version="1.0" encoding="UTF-8" standalone="no"?>
<!DOCTYPE svg PUBLIC "-//W3C//DTD SVG 1.1//EN" "http://www.w3.org/Graphics/SVG/1.1/DTD/svg11.dtd">
<!-- Generated by Microsoft Visio, SVG Export Azure Stack Edge Management.svg Page-1 -->
<svg xmlns="http://www.w3.org/2000/svg" xmlns:xlink="http://www.w3.org/1999/xlink" xmlns:ev="http://www.w3.org/2001/xml-events"
		width="0.944882in" height="1.25984in" viewBox="0 0 68.0315 90.7087" xml:space="preserve" color-interpolation-filters="sRGB"
		class="st5">
	<style type="text/css">
	<![CDATA[
		.st1 {fill:url(#grad0-6);stroke:none;stroke-linecap:butt;stroke-width:0.75}
		.st2 {fill:#949494;stroke:none;stroke-linecap:butt;stroke-width:0.75}
		.st3 {fill:url(#grad0-12);stroke:none;stroke-linecap:butt;stroke-width:0.75}
		.st4 {fill:#ffffff;stroke:none;stroke-linecap:butt;stroke-width:0.75}
		.st5 {fill:none;fill-rule:evenodd;font-size:12px;overflow:visible;stroke-linecap:square;stroke-miterlimit:3}
	]]>
	</style>

	<defs id="Patterns_And_Gradients">
		<linearGradient id="grad0-6" x1="0" y1="0" x2="1" y2="0" gradientTransform="rotate(90 0.5 0.5)">
			<stop offset="0" stop-color="#5ea0ef" stop-opacity="1"/>
			<stop offset="0.18" stop-color="#559cec" stop-opacity="1"/>
			<stop offset="0.47" stop-color="#3c91e5" stop-opacity="1"/>
			<stop offset="0.84" stop-color="#1380da" stop-opacity="1"/>
			<stop offset="1" stop-color="#0078d4" stop-opacity="1"/>
		</linearGradient>
		<linearGradient id="grad0-12" x1="0" y1="0" x2="1" y2="0" gradientTransform="rotate(-90 0.5 0.5)">
			<stop offset="0" stop-color="#0078d4" stop-opacity="1"/>
			<stop offset="0.16" stop-color="#1380da" stop-opacity="1"/>
			<stop offset="0.53" stop-color="#3c91e5" stop-opacity="1"/>
			<stop offset="0.82" stop-color="#559cec" stop-opacity="1"/>
			<stop offset="1" stop-color="#5ea0ef" stop-opacity="1"/>
		</linearGradient>
	</defs>
	<g>
		<title>Page-1</title>
		<g id="group2791-1" transform="translate(5.66929,-28.3465)">
			<title>Icon-484-EdgeManagementArtboard 1</title>
			<g id="group2792-2">
				<title>bc5f08d8-e18b-48db-a908-1aa1ac8</title>
				<g id="shape2793-3" transform="translate(0,-17.0005)">
					<title>Sheet.2793</title>
					<path d="M56.69 78.26 A12.8126 12.4475 -180 0 0 45.66 66.18 A16.1386 15.6787 -180 0 0 29.1 51.02 A16.5165 16.0459
								 -180 0 0 13.38 61.59 A15.4205 14.981 -180 0 0 0 76.02 A15.5717 15.1279 -180 0 0 15.99 90.71 L17.39
								 90.71 L43.24 90.71 L43.84 90.38 A13.0016 12.6311 -180 0 0 56.69 78.26 Z" class="st1"/>
				</g>
				<g id="shape2794-7" transform="translate(10.9984,-7.49051)">
					<title>Sheet.2794</title>
					<path d="M33.64 83.44 L18.52 83.44 L18.52 65.08 L16.25 65.08 L16.25 83.44 L1.13 83.44 A1.13386 1.10155 -180 0
								 0 -0 84.54 L0 88.84 A1.13386 1.10155 -180 0 0 1.13 89.94 A1.09606 1.06483 -180 0 0 2.23 88.84 L2.23
								 85.6 L16.25 85.6 L16.25 87.84 L18.48 87.84 L18.48 85.6 L32.54 85.6 L32.54 89.61 A1.13386 1.10155
								 -180 0 0 33.64 90.71 A1.17165 1.13826 -180 0 0 34.77 89.61 L34.77 84.54 A1.13386 1.10155 -180 0
								 0 33.64 83.44 Z" class="st2"/>
				</g>
				<g id="shape2795-9" transform="translate(6.61417,-1.13687E-13)">
					<title>Sheet.2795</title>
					<path d="M41.88 90.71 L34.02 90.71 A1.36063 1.32186 0 0 1 32.62 89.35 L32.62 81.53 A1.39843 1.35857 0 0 1 34.02
								 80.17 L41.88 80.17 A1.43622 1.39529 0 0 1 43.28 81.53 L43.28 89.35 A1.39843 1.35857 0 0 1 41.88
								 90.71 ZM26.99 89.35 L26.99 81.53 A1.43622 1.39529 -180 0 0 25.59 80.17 L17.73 80.17 A1.39843 1.35857
								 -180 0 0 16.33 81.53 L16.33 89.35 A1.36063 1.32186 -180 0 0 17.73 90.71 L25.59 90.71 A1.39843 1.35857
								 -180 0 0 26.99 89.35 ZM10.77 89.35 L10.77 81.53 A1.43622 1.39529 -180 0 0 9.37 80.17 L1.4 80.17
								 A1.43622 1.39529 -180 0 0 0 81.53 L0 89.35 A1.39843 1.35857 -180 0 0 1.4 90.71 L9.3 90.71 A1.39843
								 1.35857 -180 0 0 10.77 89.35 Z" class="st3"/>
				</g>
				<g id="shape2796-13" transform="translate(17.0835,-27.098)">
					<title>Sheet.2796</title>
					<path d="M22.98 80.65 L22.98 78.11 L22.6 78.11 L19.8 77.23 L19.09 75.51 L20.49 72.57 L18.67 70.81 L18.29 70.99
								 L15.42 72.13 L13.61 71.43 L12.47 68.35 L10.02 68.35 L10.02 68.71 L9.11 71.43 L7.33 72.13 L4.08 70.73
								 L2.27 72.53 L2.46 72.86 L4.08 75.4 L3.33 77.12 L0 78.44 L0 80.94 L0.34 80.94 L3.14 81.82 L3.86 83.55
								 L2.46 86.49 L4.27 88.25 L4.65 88.25 L7.26 86.96 L9.03 87.66 L10.17 90.71 L12.77 90.71 L12.77 90.38
								 L13.68 87.66 L15.46 86.96 L18.48 88.32 L20.3 86.56 L20.11 86.19 L18.78 83.66 L19.5 81.93 L22.98
								 80.65 ZM11.64 84.32 A5.02677 4.88352 0 1 1 16.63 79.44 A4.98898 4.8468 0 0 1 11.41 84.32 L11.64
								 84.32 Z" class="st4"/>
				</g>
			</g>
		</g>
	</g>
</svg>
