<?xml version="1.0" encoding="UTF-8" standalone="no"?>
<!DOCTYPE svg PUBLIC "-//W3C//DTD SVG 1.1//EN" "http://www.w3.org/Graphics/SVG/1.1/DTD/svg11.dtd">
<!-- Generated by Microsoft Visio, SVG Export Azure Databricks.svg Page-1 -->
<svg xmlns="http://www.w3.org/2000/svg" xmlns:xlink="http://www.w3.org/1999/xlink" xmlns:ev="http://www.w3.org/2001/xml-events"
		width="1.48716in" height="1.55067in" viewBox="0 0 107.076 111.648" xml:space="preserve" color-interpolation-filters="sRGB"
		class="st3">
	<style type="text/css">
	<![CDATA[
		.st1 {fill:#dc2126;stroke:none;stroke-linecap:butt;stroke-width:26.6087}
		.st2 {fill:#f0542d;stroke:none;stroke-linecap:butt;stroke-width:26.6087}
		.st3 {fill:none;fill-rule:evenodd;font-size:12px;overflow:visible;stroke-linecap:square;stroke-miterlimit:3}
	]]>
	</style>

	<g>
		<title>Page-1</title>
		<g id="group3069-1" transform="translate(26.6087,-28.3465)">
			<title>Azure Databricks</title>
			<g id="group3070-2">
				<title>Sheet.3070</title>
				<g id="group3071-3">
					<title>Sheet.3071</title>
					<g id="shape3072-4">
						<title>Sheet.3072</title>
						<path d="M0 88.17 L0 97.32 L26.92 111.65 L53.83 97.32 L53.83 88.17 L44.36 83.2 L53.83 78.15 L53.83 69.08
									 L53.74 69.05 L26.92 54.96 L0.09 69.02 L0 69.08 L0 78.15 L9.47 83.2 L0 88.17 Z" class="st1"/>
					</g>
					<g id="shape3073-6" transform="translate(0,-9.15514)">
						<title>Sheet.3073</title>
						<path d="M44.39 92.36 L26.92 101.63 L9.47 92.36 L0 97.32 L26.92 111.65 L53.86 97.32 L44.39 92.36 Z"
								class="st2"/>
					</g>
					<g id="shape3074-8" transform="translate(0,-28.2459)">
						<title>Sheet.3074</title>
						<path d="M26.92 83.2 L53.86 97.32 L26.92 111.65 L0 97.33 L26.92 83.2 Z" class="st2"/>
					</g>
				</g>
			</g>
		</g>
	</g>
</svg>
