<?xml version="1.0" encoding="UTF-8" standalone="no"?>
<!DOCTYPE svg PUBLIC "-//W3C//DTD SVG 1.1//EN" "http://www.w3.org/Graphics/SVG/1.1/DTD/svg11.dtd">
<!-- Generated by Microsoft Visio, SVG Export Azure Synapse Analytics.svg Page-1 -->
<svg xmlns="http://www.w3.org/2000/svg" xmlns:xlink="http://www.w3.org/1999/xlink" xmlns:ev="http://www.w3.org/2001/xml-events"
		width="1.61374in" height="1.73185in" viewBox="0 0 116.189 124.693" xml:space="preserve" color-interpolation-filters="sRGB"
		class="st6">
	<style type="text/css">
	<![CDATA[
		.st1 {fill:#0078d4;stroke:none;stroke-linecap:butt;stroke-width:34}
		.st2 {fill:url(#grad0-8);stroke:none;stroke-linecap:butt;stroke-width:34}
		.st3 {fill:#50e6ff;stroke:none;stroke-linecap:butt;stroke-width:34}
		.st4 {fill:url(#grad0-16);stroke:none;stroke-linecap:butt;stroke-width:34}
		.st5 {fill:none;stroke:none;stroke-linecap:butt;stroke-width:34}
		.st6 {fill:none;fill-rule:evenodd;font-size:12px;overflow:visible;stroke-linecap:square;stroke-miterlimit:3}
	]]>
	</style>

	<defs id="Patterns_And_Gradients">
		<linearGradient id="grad0-8" x1="0" y1="0" x2="1" y2="0" gradientTransform="rotate(-90 0.5 0.5)">
			<stop offset="0.2" stop-color="#005ba1" stop-opacity="1"/>
			<stop offset="1" stop-color="#0078d4" stop-opacity="1"/>
		</linearGradient>
		<linearGradient id="grad0-16" x1="0" y1="0" x2="1" y2="0" gradientTransform="rotate(-90 0.5 0.5)">
			<stop offset="0" stop-color="#198ab3" stop-opacity="1"/>
			<stop offset="0.35" stop-color="#32bedd" stop-opacity="1"/>
			<stop offset="0.8" stop-color="#50e6ff" stop-opacity="1"/>
		</linearGradient>
	</defs>
	<g>
		<title>Page-1</title>
		<g id="group2744-1" transform="translate(34,-34)">
			<title>Azure Synapse Analytics</title>
			<g id="group2745-2">
				<title>arcadia_icon_1</title>
				<g id="shape2746-3">
					<title>path4</title>
					<path d="M24.09 68 L0 82.14 L0 110.49 L24.09 124.69 L48.19 110.55 L48.19 82.2 L24.09 68 ZM43.74 107.59 L24.09
								 119.24 L4.45 107.72 L4.45 84.94 L24.09 73.29 L43.74 84.98 L43.74 107.59 Z" class="st1"/>
				</g>
				<g id="shape2747-5" transform="translate(0,-39.748)">
					<title>path6</title>
					<path d="M24.09 107.75 L0 121.89 L4.45 124.69 L24.09 113.04 L43.74 124.69 L48.19 121.89 L24.09 107.75 Z"
							class="st2"/>
				</g>
				<g id="shape2748-9" transform="translate(14.1805,-20.189)">
					<title>path8</title>
					<path d="M17.03 124.69 A13.2596 13.6063 -180 0 0 1.07 114.65 L0 110.05 A17.8637 18.3307 0 0 1 21.49 123.62 L17.03
								 124.69 Z" class="st3"/>
				</g>
				<g id="shape2749-11" transform="translate(7.55063,-7.08661)">
					<title>path10</title>
					<path d="M28.02 108.06 A2.27133 2.33071 -180 0 0 24.95 107.21 L0 121.95 L4.6 124.69 L27.19 111.31 A2.33271 2.3937
								 -180 0 0 28.02 108.06 ZM28.55 82.14 L5.89 95.56 A2.33271 2.3937 -180 0 0 5.06 98.71 A2.30202 2.3622
								 -180 0 0 7.06 99.87 A2.11786 2.17323 -180 0 0 8.2 99.56 L33.18 84.76 L28.55 82.14 Z" class="st3"/>
				</g>
				<g id="shape2750-13" transform="translate(27.9005,-16.6929)">
					<title>circle12</title>
					<ellipse cx="5.67832" cy="118.866" rx="5.67832" ry="5.82677" class="st4"/>
				</g>
				<g id="shape2751-17" transform="translate(8.93184,-28.3465)">
					<title>circle14</title>
					<ellipse cx="5.67832" cy="118.866" rx="5.67832" ry="5.82677" class="st5"/>
				</g>
				<g id="shape2752-19" transform="translate(9.33199,-28.4858)">
					<title>circle12-3</title>
					<ellipse cx="5.67832" cy="118.866" rx="5.67832" ry="5.82677" class="st4"/>
				</g>
			</g>
		</g>
	</g>
</svg>
