<?xml version="1.0" encoding="UTF-8" standalone="no"?>
<!DOCTYPE svg PUBLIC "-//W3C//DTD SVG 1.1//EN" "http://www.w3.org/Graphics/SVG/1.1/DTD/svg11.dtd">
<!-- Generated by Microsoft Visio, SVG Export Azure Lighthouse Projection.svg Page-1 -->
<svg xmlns="http://www.w3.org/2000/svg" xmlns:xlink="http://www.w3.org/1999/xlink" xmlns:ev="http://www.w3.org/2001/xml-events"
		width="0.944882in" height="1.08661in" viewBox="0 0 68.0315 78.2362" xml:space="preserve" color-interpolation-filters="sRGB"
		class="st3">
	<style type="text/css">
	<![CDATA[
		.st1 {fill:#59b4d9;stroke:none;stroke-linecap:butt;stroke-width:0.097958}
		.st2 {fill:#0077d3;stroke:none;stroke-linecap:butt;stroke-width:0.097958}
		.st3 {fill:none;fill-rule:evenodd;font-size:12px;overflow:visible;stroke-linecap:square;stroke-miterlimit:3}
	]]>
	</style>

	<g>
		<title>Page-1</title>
		<g id="group2982-1" transform="translate(5.66929,-28.3465)">
			<title>Azure Lighthouse Projection</title>
			<g id="group2983-2">
				<title>g1535</title>
				<g id="shape2984-3">
					<title>path1557</title>
					<path d="M0 76.95 L0 75.67 L1.4 75.67 C2.49 75.67 20.25 75.67 40.55 75.67 L41.65 75.67 L41.65 76.95 L41.65 78.24
								 L20.83 78.24 L0 78.24 L0 76.95 ZM41.51 52.72 L41.54 48.49 L41.25 47.87 C41.09 47.53 40.78 47.13
								 40.56 46.96 C39.63 46.27 40.13 46.3 27.89 46.3 L16.66 46.3 L17.19 45.76 C17.94 45 19 44.35 19.96
								 44.07 C20.84 43.8 20.81 43.84 20.94 42.74 C21.16 40.85 22.96 39.07 25.03 38.7 C26.35 38.46 27.95
								 38.9 28.97 39.78 C29.63 40.34 29.71 40.28 30.26 38.84 C30.79 37.46 31.34 36.65 32.51 35.51 C34.35
								 33.73 36.4 32.88 38.91 32.88 C40.8 32.88 41.79 33.12 43.5 33.98 C44.24 34.34 44.72 34.71 45.6 35.57
								 C46.6 36.54 46.82 36.83 47.36 37.9 C47.71 38.59 48.06 39.49 48.16 39.94 C48.41 41.14 48.39 43.03
								 48.1 44.14 C47.97 44.64 47.86 45.15 47.86 45.27 C47.86 45.53 48.23 45.55 48.92 45.31 C50.85 44.64
								 53.32 45.24 54.89 46.75 C56.15 47.96 56.69 49.25 56.69 51.01 C56.68 53.17 55.6 54.99 53.65 56.1
								 C52.38 56.82 52.33 56.83 46.67 56.9 L41.47 56.96 L41.51 52.72 ZM20.53 56.72 C17.63 56.11 15.39 53.54
								 15.25 50.64 L15.21 49.79 L26.58 49.79 L37.95 49.79 L37.95 53.35 L37.95 56.9 L29.63 56.89 C22.99
								 56.89 21.15 56.85 20.53 56.72 L20.53 56.72 Z" class="st1"/>
				</g>
				<g id="shape2985-5" transform="translate(1.46705,-3.0256)">
					<title>path1537</title>
					<path d="M1.31 78.1 C0.89 77.95 0.46 77.55 0.24 77.13 C0.01 76.69 0 76.4 0 64.03 C0 55.4 0.04 51.29 0.13 51.06
								 C0.32 50.57 0.95 49.99 1.43 49.86 C1.7 49.79 8.41 49.74 19.86 49.74 L37.88 49.74 L38.4 49.99 C38.68
								 50.12 39.06 50.42 39.24 50.65 L39.56 51.06 L39.6 63.61 C39.62 70.5 39.6 76.32 39.56 76.53 C39.46
								 77.06 38.64 77.92 38.09 78.07 C37.58 78.21 3.46 78.24 3.46 78.1 C3.46 78.05 3.66 77.85 3.91 77.66
								 C4.15 77.47 4.79 76.93 5.33 76.47 L6.31 75.62 L21.52 75.62 C35.12 75.62 36.75 75.6 36.88 75.44 C37.01
								 75.29 37.02 73.08 36.96 63.94 C36.92 57.71 36.84 52.57 36.79 52.53 C36.63 52.38 2.84 52.3 2.66 52.44
								 C2.54 52.54 2.51 53.77 2.51 58.61 C2.51 63.94 2.53 64.67 2.69 64.83 C2.86 64.99 3.51 65.01 8.03
								 65.01 C11.07 65.01 13.26 64.96 13.37 64.9 C13.52 64.81 13.54 64.47 13.51 62.8 C13.48 61.42 13.51
								 60.82 13.6 60.82 C13.75 60.82 19.22 65.7 19.22 65.84 C19.22 65.89 17.97 67.11 16.44 68.56 L13.67
								 71.19 L13.61 69.06 C13.57 67.89 13.5 66.87 13.45 66.79 C13.31 66.58 2.86 66.58 2.65 66.78 C2.43
								 67 2.45 75.31 2.66 75.49 C2.75 75.56 3.46 75.63 4.32 75.65 L5.83 75.68 L4.34 76.93 L2.85 78.19 L2.17
								 78.18 C1.8 78.17 1.41 78.14 1.31 78.1 L1.31 78.1 Z" class="st2"/>
				</g>
			</g>
		</g>
	</g>
</svg>
