<?xml version="1.0" encoding="UTF-8" standalone="no"?>
<!DOCTYPE svg PUBLIC "-//W3C//DTD SVG 1.1//EN" "http://www.w3.org/Graphics/SVG/1.1/DTD/svg11.dtd">
<!-- Generated by Microsoft Visio, SVG Export Azure Active Directory Security.svg Page-1 -->
<svg xmlns="http://www.w3.org/2000/svg" xmlns:xlink="http://www.w3.org/1999/xlink" xmlns:ev="http://www.w3.org/2001/xml-events"
		width="1.57437in" height="1.73185in" viewBox="0 0 113.354 124.693" xml:space="preserve" color-interpolation-filters="sRGB"
		class="st3">
	<style type="text/css">
	<![CDATA[
		.st1 {fill:#0078d4;stroke:none;stroke-linecap:butt;stroke-width:34}
		.st2 {fill:url(#grad0-8);stroke:none;stroke-linecap:butt;stroke-width:34}
		.st3 {fill:none;fill-rule:evenodd;font-size:12px;overflow:visible;stroke-linecap:square;stroke-miterlimit:3}
	]]>
	</style>

	<defs id="Patterns_And_Gradients">
		<linearGradient id="grad0-8" x1="0" y1="0" x2="1" y2="0" gradientTransform="rotate(90 0.5 0.5)">
			<stop offset="0.18" stop-color="#5ea0ef" stop-opacity="1"/>
			<stop offset="1" stop-color="#0078d4" stop-opacity="1"/>
		</linearGradient>
	</defs>
	<g>
		<title>Page-1</title>
		<g id="group3305-1" transform="translate(34,-34)">
			<title>Azure Active Directory Security</title>
			<g id="group3306-2">
				<title>blueshield</title>
				<g id="shape3307-3">
					<title>Sheet.3307</title>
					<path d="M45.35 94.46 C45.35 109.71 27.33 121.99 23.42 124.48 A1.41732 1.44901 0 0 1 21.94 124.48 C18.02 121.99
								 0 109.71 0 94.46 L0 76.13 A1.41732 1.44901 0 0 1 1.39 74.68 C15.41 74.3 12.17 68 22.68 68 C33.18
								 68 29.95 74.3 43.97 74.68 A1.41732 1.44901 0 0 1 45.35 76.13 L45.35 94.46 Z" class="st1"/>
				</g>
				<g id="shape3308-5" transform="translate(1.87949,-2.35265)">
					<title>Sheet.3308</title>
					<path d="M41.6 96.97 C41.6 110.96 25.08 122.17 21.48 124.5 A1.32181 1.35136 0 0 1 20.12 124.5 C16.51 122.23 0
								 110.96 0 96.97 L0 80.15 A1.29408 1.32301 0 0 1 1.26 78.83 C14.11 78.48 11.15 72.72 20.8 72.72 C30.44
								 72.72 27.48 78.48 40.33 78.83 A1.29408 1.32301 0 0 1 41.6 80.15 L41.6 96.97 Z" class="st2"/>
				</g>
			</g>
		</g>
	</g>
</svg>
