<?xml version="1.0" encoding="UTF-8" standalone="no"?>
<!DOCTYPE svg PUBLIC "-//W3C//DTD SVG 1.1//EN" "http://www.w3.org/Graphics/SVG/1.1/DTD/svg11.dtd">
<!-- Generated by Microsoft Visio, SVG Export Azure Repo.svg Page-1 -->
<svg xmlns="http://www.w3.org/2000/svg" xmlns:xlink="http://www.w3.org/1999/xlink" xmlns:ev="http://www.w3.org/2001/xml-events"
		width="0.81146in" height="1.25984in" viewBox="0 0 58.4252 90.7087" xml:space="preserve" color-interpolation-filters="sRGB"
		class="st6">
	<style type="text/css">
	<![CDATA[
		.st1 {fill:#bc3200;stroke:none;stroke-linecap:butt;stroke-width:0.75}
		.st2 {fill:#d13600;stroke:none;stroke-linecap:butt;stroke-width:0.75}
		.st3 {fill:#e15815;stroke:none;stroke-linecap:butt;stroke-width:0.75}
		.st4 {fill:#ffb290;stroke:none;stroke-linecap:butt;stroke-width:0.75}
		.st5 {fill:#ffdbca;stroke:none;stroke-linecap:butt;stroke-width:0.75}
		.st6 {fill:none;fill-rule:evenodd;font-size:12px;overflow:visible;stroke-linecap:square;stroke-miterlimit:3}
	]]>
	</style>

	<g>
		<title>Page-1</title>
		<g id="group2845-1" transform="translate(4.8189,-28.3465)">
			<title>Azure Repo</title>
			<g id="shape2846-2" transform="translate(8.19059,-47.8913)">
				<title>path2</title>
				<path d="M29.86 81.91 L1.94 81.91 C0.87 81.91 0 82.82 0 83.97 L0 90.71 L31.8 90.71 L31.8 83.97 C31.8 82.82 30.94
							 81.91 29.86 81.91 Z" class="st1"/>
			</g>
			<g id="shape2847-4" transform="translate(4.04054,-47.2561)">
				<title>path4</title>
				<path d="M37.3 85.39 L2.81 85.39 C1.25 85.39 0 86.72 0 88.37 L0 90.71 L40.11 90.71 L40.11 88.37 C40.11 86.72 38.85
							 85.39 37.3 85.39 Z" class="st2"/>
			</g>
			<g id="shape2848-6">
				<title>path6</title>
				<path d="M45.38 42.36 L2.81 42.36 C1.25 42.36 0 43.69 0 45.34 L0 87.72 C0 89.37 1.27 90.71 2.82 90.71 L45.37 90.71
							 C46.92 90.71 48.19 89.37 48.19 87.72 L48.19 45.34 C48.19 43.69 46.93 42.36 45.38 42.36 Z" class="st3"/>
			</g>
			<g id="shape2849-8" transform="translate(8.86905,-32.6424)">
				<title>path8</title>
				<path d="M5.35 79.37 C2.4 79.37 0 81.91 0 85.04 C0 88.17 2.4 90.71 5.35 90.71 C8.3 90.71 10.7 88.17 10.7 85.04 C10.7
							 81.91 8.3 79.37 5.35 79.37 ZM5.35 88.71 C3.43 88.71 1.88 87.06 1.88 85.03 C1.88 82.99 3.43 81.34 5.35
							 81.34 C7.27 81.34 8.83 82.99 8.83 85.03 C8.83 87.06 7.27 88.71 5.35 88.71 Z" class="st4"/>
			</g>
			<g id="shape2850-10" transform="translate(12.2661,-21.7566)">
				<title>path10</title>
				<path d="M3.96 79.21 L0 79.21 L0 90.71 L3.96 90.71 L3.96 79.21 Z" class="st4"/>
			</g>
			<g id="shape2851-12" transform="translate(8.88216,-3.85961)">
				<title>path12</title>
				<path d="M30.75 56.34 C30.75 53.21 28.35 50.67 25.4 50.67 C22.45 50.67 20.05 53.21 20.05 56.34 C20.05 58.75 21.47
							 60.81 23.48 61.63 L23.48 65.53 L3.39 72.56 L3.35 72.56 L3.35 79.78 C1.39 80.61 0 82.66 0 85.04 C0 88.17
							 2.4 90.71 5.35 90.71 C8.3 90.71 10.7 88.17 10.7 85.04 C10.7 82.68 9.35 80.66 7.43 79.8 L7.43 75.33 L27.41
							 68.33 L27.36 68.25 L27.41 68.25 L27.41 61.59 C29.36 60.75 30.75 58.71 30.75 56.34 ZM8.81 85.05 C8.81
							 87.08 7.26 88.73 5.34 88.73 C3.42 88.73 1.87 87.08 1.87 85.05 C1.87 83.01 3.42 81.37 5.34 81.37 C7.26
							 81.37 8.81 83.01 8.81 85.05 ZM25.4 60.01 C23.48 60.01 21.92 58.36 21.92 56.33 C21.92 54.29 23.48 52.64
							 25.4 52.64 C27.32 52.64 28.87 54.29 28.87 56.33 C28.87 58.36 27.31 60.01 25.4 60.01 Z" class="st5"/>
			</g>
		</g>
	</g>
</svg>
