<?xml version="1.0" encoding="UTF-8" standalone="no"?>
<!DOCTYPE svg PUBLIC "-//W3C//DTD SVG 1.1//EN" "http://www.w3.org/Graphics/SVG/1.1/DTD/svg11.dtd">
<!-- Generated by Microsoft Visio, SVG Export Azure Best Practices.svg Page-1 -->
<svg xmlns="http://www.w3.org/2000/svg" xmlns:xlink="http://www.w3.org/1999/xlink" xmlns:ev="http://www.w3.org/2001/xml-events"
		width="1.73185in" height="1.65311in" viewBox="0 0 124.693 119.024" xml:space="preserve" color-interpolation-filters="sRGB"
		class="st4">
	<style type="text/css">
	<![CDATA[
		.st1 {fill:url(#grad0-6);stroke:none;stroke-linecap:butt;stroke-width:34}
		.st2 {fill:url(#grad0-10);stroke:none;stroke-linecap:butt;stroke-width:34}
		.st3 {fill:#ffffff;stroke:none;stroke-linecap:butt;stroke-width:11.956}
		.st4 {fill:none;fill-rule:evenodd;font-size:12px;overflow:visible;stroke-linecap:square;stroke-miterlimit:3}
	]]>
	</style>

	<defs id="Patterns_And_Gradients">
		<linearGradient id="grad0-6" x1="0" y1="0" x2="1" y2="0" gradientTransform="rotate(-90 0.5 0.5)">
			<stop offset="0" stop-color="#0078d4" stop-opacity="1"/>
			<stop offset="0.82" stop-color="#5ea0ef" stop-opacity="1"/>
		</linearGradient>
		<linearGradient id="grad0-10" x1="0" y1="0" x2="1" y2="0" gradientTransform="rotate(-90 0.5 0.5)">
			<stop offset="0.15" stop-color="#cccccc" stop-opacity="1"/>
			<stop offset="1" stop-color="#707070" stop-opacity="1"/>
		</linearGradient>
	</defs>
	<g>
		<title>Page-1</title>
		<g id="group3188-1" transform="translate(34,-34)">
			<title>Azure Best Practices</title>
			<g id="group3189-2">
				<title>g16</title>
				<g id="shape3190-3" transform="translate(0,-14.2056)">
					<title>rect2</title>
					<path d="M0 117.18 A1.88981 1.84094 -180 0 0 1.89 119.02 L54.8 119.02 A1.88981 1.84094 -180 0 0 56.69 117.18
								 L56.69 84.05 A1.88981 1.84094 -180 0 0 54.8 82.21 L1.89 82.21 A1.88981 1.84094 -180 0 0 0 84.05
								 L0 117.18 Z" class="st1"/>
				</g>
				<g id="shape3191-7" transform="translate(14.1732,1.42109E-14)">
					<title>path14</title>
					<path d="M25.54 115.96 C19.94 115.1 19.72 111.17 19.72 104.82 L8.6 104.82 C8.6 111.17 8.41 115.1 2.8 115.96 A3.14961
								 3.06817 -180 0 0 0 119.02 L28.35 119.02 A3.14961 3.06817 -180 0 0 25.54 115.96 Z" class="st2"/>
				</g>
				<g id="shape3192-11" transform="translate(12.9045,-17.9723)">
					<title>path16</title>
					<path d="M28.61 113 L29.86 110.97 a0.675605 0.658136 -180 0 0 -0.104126 -0.803789 L27.27 107.55 a0.696648 0.678635
								 0 0 1 -0.190488 -0.552403 L27.33 105.13 a0.642379 0.625769 0 0 1 0.31011 -0.46609 L30.71 102.71
								 a0.667852 0.650584 -180 0 0 0.290173 -0.73366 L30.33 99.66 a0.770854 0.750922 -180 0 0 -0.671172
								 -0.522193 L25.96 98.89 a0.768639 0.748765 0 0 1 -0.542699 -0.280516 L24.18 97.09 a0.712154 0.69374
								 0 0 1 -0.146173 -0.550245 L24.68 93.09 a0.704401 0.686188 -180 0 0 -0.356643 -0.730423 L22.14 91.15
								 a0.735413 0.716397 -180 0 0 -0.856135 0.0787599 L18.55 93.5 a0.733198 0.714239 0 0 1 -0.585894 0.163994
								 L15.97 93.38 a0.715477 0.696977 0 0 1 -0.505043 -0.302095 L13.3 90.15 a0.753133 0.73366 -180 0 0
								 -0.79079 -0.290229 L10.05 90.43 a0.708831 0.690503 -180 0 0 -0.540484 0.614979 L9.34 94.51 a0.68225
								 0.664609 0 0 1 -0.286857 0.501694 L7.46 96.13 a0.761994 0.742291 0 0 1 -0.583679 0.122994 L3.18
								 95.56 a0.718799 0.700214 -180 0 0 -0.771962 0.316121 L1.15 97.91 a0.680035 0.662452 -180 0 0 0.0886047
								 0.794079 L3.73 101.33 C3.88 101.47 3.95 101.68 3.92 101.88 L3.67 103.74 a0.642379 0.625769 0 0 1
								 -0.310113 0.46609 L0.29 106.17 a0.667852 0.650584 -180 0 0 -0.290176 0.73366 L0.67 109.21 a0.768639
								 0.748765 -180 0 0 0.670067 0.521114 L5.05 109.98 C5.27 110 5.46 110.1 5.59 110.26 L6.82 111.78 a0.708831
								 0.690503 0 0 1 0.14509 0.550245 L6.32 115.78 a0.704401 0.686188 -180 0 0 0.35774 0.730426 L8.88
								 117.74 a0.735413 0.716397 -180 0 0 0.856135 -0.0787599 L12.47 115.39 a0.733198 0.714239 0 0 1 0.587001
								 -0.163994 L15.05 115.5 C15.26 115.53 15.45 115.64 15.56 115.8 L17.72 118.73 a0.753133 0.73366 -180
								 0 0 0.79079 0.290249 L20.97 118.45 a0.708831 0.690503 -180 0 0 0.540482 -0.61498 L21.68 114.37 a0.68225
								 0.664609 0 0 1 0.285732 -0.501694 L23.56 112.75 a0.761994 0.742291 0 0 1 0.58257 -0.122997 L27.84
								 113.32 C28.16 113.37 28.47 113.24 28.61 113 L28.61 113 ZM12.36 110.96 C10.47 110.12 9.02 108.66
								 8.3 106.83 A7.06284 6.88022 0 0 1 8.46 101.29 C9.31 99.54 10.84 98.22 12.77 97.59 A7.93338 7.72824
								 0 0 1 18.69 97.88 C21.31 99.02 22.97 101.38 23.24 103.9 C23.36 105.12 23.13 106.36 22.59 107.54
								 C20.84 111.16 16.27 112.7 12.36 110.96 Z" class="st3"/>
				</g>
			</g>
		</g>
	</g>
</svg>
