<?xml version="1.0" encoding="UTF-8" standalone="no"?>
<!DOCTYPE svg PUBLIC "-//W3C//DTD SVG 1.1//EN" "http://www.w3.org/Graphics/SVG/1.1/DTD/svg11.dtd">
<!-- Generated by Microsoft Visio, SVG Export Azure Batch.svg Page-1 -->
<svg xmlns="http://www.w3.org/2000/svg" xmlns:xlink="http://www.w3.org/1999/xlink" xmlns:ev="http://www.w3.org/2001/xml-events"
		width="0.944882in" height="1.25984in" viewBox="0 0 68.0315 90.7087" xml:space="preserve" color-interpolation-filters="sRGB"
		class="st9">
	<style type="text/css">
	<![CDATA[
		.st1 {fill:#177acd;stroke:none;stroke-linecap:butt;stroke-width:0.100536}
		.st2 {fill:#ffffff;stroke:none;stroke-linecap:butt;stroke-width:0.0943546}
		.st3 {fill:#a7a8a9;stroke:none;stroke-linecap:butt;stroke-width:0.0847624}
		.st4 {fill:#ffffff;fill-opacity:0.2;stroke:none;stroke-linecap:butt;stroke-width:0.0955156}
		.st5 {fill:#ffffff;stroke:none;stroke-linecap:butt;stroke-width:0.109072}
		.st6 {fill:#ffffff;stroke:none;stroke-linecap:butt;stroke-width:0.0772262}
		.st7 {fill:#509ccc;stroke:none;stroke-linecap:butt;stroke-width:0.100536}
		.st8 {fill:#59afd5;stroke:none;stroke-linecap:butt;stroke-width:0.100536}
		.st9 {fill:none;fill-rule:evenodd;font-size:12px;overflow:visible;stroke-linecap:square;stroke-miterlimit:3}
	]]>
	</style>

	<g>
		<title>Page-1</title>
		<g id="group3193-1" transform="translate(5.66929,-28.3465)">
			<title>Azure Batch</title>
			<g id="shape3194-2" transform="translate(0,-22.4809)">
				<title>path7</title>
				<path d="M32.25 63.03 L0 63.03 L0 89.02 C0 89.43 0.16 89.83 0.44 90.14 L0.43 90.15 C0.47 90.19 0.52 90.24 0.57 90.27
							 C0.86 90.54 1.25 90.71 1.7 90.71 L35.22 90.71 C36.07 90.71 36.92 90.01 36.92 89.01 L36.92 63.03 L32.25
							 63.03 Z" class="st1"/>
			</g>
			<g id="shape3195-4" transform="translate(16.173,-28.0231)">
				<title>path9</title>
				<path d="M0 78.35 L14.84 78.35 L14.84 81.25 L0 81.25 L0 78.35 ZM0 87.81 L14.84 87.81 L14.84 90.71 L0 90.71 L0 87.81
							 Z" class="st2"/>
			</g>
			<g id="shape3196-6" transform="translate(0,-50.1584)">
				<title>path17</title>
				<path d="M4.68 90.71 L36.91 90.71 L36.91 85.38 C36.91 84.78 36.21 84.17 35.21 84.17 L1.7 84.17 C0.85 84.17 0 84.67
							 0 85.38 L0 90.71 L4.68 90.71 Z" class="st3"/>
			</g>
			<g id="shape3197-8" transform="translate(0.0246706,-21.7456)">
				<title>path23</title>
				<path d="M28.15 62.3 L0 62.3 L0 89.17 C0 89.6 0.15 90.05 0.42 90.38 C0.68 90.71 32.22 62.3 32.22 62.3 L28.15 62.3
							 Z" class="st4"/>
			</g>
			<g id="shape3198-10" transform="translate(5.80265,-26.0482)">
				<title>path9-0</title>
				<path d="M0 88.47 L10.13 80.5 L11.9 82.57 L1.77 90.71 L0 88.47 Z" class="st5"/>
			</g>
			<g id="shape3199-12" transform="translate(2.33932,-26.0482)">
				<title>path9-0-9</title>
				<path d="M5.24 90.71 L0 85.14 L2.33 83.11 L7.64 88.83 L5.24 90.71 Z" class="st6"/>
			</g>
			<g id="shape3200-14" transform="translate(6.2869,-36.6612)">
				<title>path9-0-5</title>
				<path d="M0 88.47 L10.13 80.5 L11.9 82.57 L1.77 90.71 L0 88.47 Z" class="st5"/>
			</g>
			<g id="shape3201-16" transform="translate(2.82357,-36.6612)">
				<title>path9-0-9-8</title>
				<path d="M5.24 90.71 L0 85.14 L2.33 83.11 L7.64 88.83 L5.24 90.71 Z" class="st6"/>
			</g>
			<g id="shape3202-18" transform="translate(9.88607,-11.6081)">
				<title>path7-1</title>
				<path d="M32.25 63.03 L0 63.03 L0 89.02 C0 89.43 0.16 89.83 0.44 90.14 L0.43 90.15 C0.47 90.19 0.52 90.24 0.57 90.27
							 C0.86 90.54 1.25 90.71 1.7 90.71 L35.22 90.71 C36.07 90.71 36.92 90.01 36.92 89.01 L36.92 63.03 L32.25
							 63.03 Z" class="st7"/>
			</g>
			<g id="shape3203-20" transform="translate(26.059,-17.1503)">
				<title>path9-3</title>
				<path d="M0 78.35 L14.84 78.35 L14.84 81.25 L0 81.25 L0 78.35 ZM0 87.81 L14.84 87.81 L14.84 90.71 L0 90.71 L0 87.81
							 Z" class="st2"/>
			</g>
			<g id="shape3204-22" transform="translate(9.88607,-39.2855)">
				<title>path17-6</title>
				<path d="M4.68 90.71 L36.91 90.71 L36.91 85.38 C36.91 84.78 36.21 84.17 35.21 84.17 L1.7 84.17 C0.85 84.17 0 84.67
							 0 85.38 L0 90.71 L4.68 90.71 Z" class="st3"/>
			</g>
			<g id="shape3205-24" transform="translate(9.91074,-10.8728)">
				<title>path23-4</title>
				<path d="M28.15 62.3 L0 62.3 L0 89.17 C0 89.6 0.15 90.05 0.42 90.38 C0.68 90.71 32.22 62.3 32.22 62.3 L28.15 62.3
							 Z" class="st4"/>
			</g>
			<g id="shape3206-26" transform="translate(15.6887,-15.1754)">
				<title>path9-0-2</title>
				<path d="M0 88.47 L10.13 80.5 L11.9 82.57 L1.77 90.71 L0 88.47 Z" class="st5"/>
			</g>
			<g id="shape3207-28" transform="translate(12.2254,-15.1754)">
				<title>path9-0-9-5</title>
				<path d="M5.24 90.71 L0 85.14 L2.33 83.11 L7.64 88.83 L5.24 90.71 Z" class="st6"/>
			</g>
			<g id="shape3208-30" transform="translate(16.173,-25.7884)">
				<title>path9-0-5-1</title>
				<path d="M0 88.47 L10.13 80.5 L11.9 82.57 L1.77 90.71 L0 88.47 Z" class="st5"/>
			</g>
			<g id="shape3209-32" transform="translate(12.7096,-25.7884)">
				<title>path9-0-9-8-4</title>
				<path d="M5.24 90.71 L0 85.14 L2.33 83.11 L7.64 88.83 L5.24 90.71 Z" class="st6"/>
			</g>
			<g id="shape3210-34" transform="translate(26.059,-17.1503)">
				<title>path9-6</title>
				<path d="M0 78.35 L14.84 78.35 L14.84 81.25 L0 81.25 L0 78.35 ZM0 87.81 L14.84 87.81 L14.84 90.71 L0 90.71 L0 87.81
							 Z" class="st2"/>
			</g>
			<g id="shape3211-36" transform="translate(19.7721,-0.73524)">
				<title>path7-1-9</title>
				<path d="M32.25 63.03 L0 63.03 L0 89.02 C0 89.43 0.16 89.83 0.44 90.14 L0.43 90.15 C0.47 90.19 0.52 90.24 0.57 90.27
							 C0.86 90.54 1.25 90.71 1.7 90.71 L35.22 90.71 C36.07 90.71 36.92 90.01 36.92 89.01 L36.92 63.03 L32.25
							 63.03 Z" class="st8"/>
			</g>
			<g id="shape3212-38" transform="translate(35.9451,-6.27752)">
				<title>path9-3-0</title>
				<path d="M0 78.35 L14.84 78.35 L14.84 81.25 L0 81.25 L0 78.35 ZM0 87.81 L14.84 87.81 L14.84 90.71 L0 90.71 L0 87.81
							 Z" class="st2"/>
			</g>
			<g id="shape3213-40" transform="translate(19.7721,-28.4127)">
				<title>path17-6-4</title>
				<path d="M4.68 90.71 L36.91 90.71 L36.91 85.38 C36.91 84.78 36.21 84.17 35.21 84.17 L1.7 84.17 C0.85 84.17 0 84.67
							 0 85.38 L0 90.71 L4.68 90.71 Z" class="st3"/>
			</g>
			<g id="shape3214-42" transform="translate(19.7968,-2.70006E-13)">
				<title>path23-4-1</title>
				<path d="M28.15 62.3 L0 62.3 L0 89.17 C0 89.6 0.15 90.05 0.42 90.38 C0.68 90.71 32.22 62.3 32.22 62.3 L28.15 62.3
							 Z" class="st4"/>
			</g>
			<g id="shape3215-44" transform="translate(25.5748,-4.3026)">
				<title>path9-0-2-5</title>
				<path d="M0 88.47 L10.13 80.5 L11.9 82.57 L1.77 90.71 L0 88.47 Z" class="st5"/>
			</g>
			<g id="shape3216-46" transform="translate(22.1115,-4.3026)">
				<title>path9-0-9-5-3</title>
				<path d="M5.24 90.71 L0 85.14 L2.33 83.11 L7.64 88.83 L5.24 90.71 Z" class="st6"/>
			</g>
			<g id="shape3217-48" transform="translate(26.059,-14.9156)">
				<title>path9-0-5-1-4</title>
				<path d="M0 88.47 L10.13 80.5 L11.9 82.57 L1.77 90.71 L0 88.47 Z" class="st5"/>
			</g>
			<g id="shape3218-50" transform="translate(22.5957,-14.9156)">
				<title>path9-0-9-8-4-1</title>
				<path d="M5.24 90.71 L0 85.14 L2.33 83.11 L7.64 88.83 L5.24 90.71 Z" class="st6"/>
			</g>
		</g>
	</g>
</svg>
