<?xml version="1.0" encoding="UTF-8" standalone="no"?>
<!DOCTYPE svg PUBLIC "-//W3C//DTD SVG 1.1//EN" "http://www.w3.org/Graphics/SVG/1.1/DTD/svg11.dtd">
<!-- Generated by Microsoft Visio, SVG Export Azure Stack.svg Page-1 -->
<svg xmlns="http://www.w3.org/2000/svg" xmlns:xlink="http://www.w3.org/1999/xlink" xmlns:ev="http://www.w3.org/2001/xml-events"
		width="1.73185in" height="1.73189in" viewBox="0 0 124.693 124.696" xml:space="preserve" color-interpolation-filters="sRGB"
		class="st5">
	<style type="text/css">
	<![CDATA[
		.st1 {fill:url(#grad0-5);stroke:none;stroke-linecap:butt;stroke-width:34}
		.st2 {fill:#f2f2f2;stroke:none;stroke-linecap:butt;stroke-width:34}
		.st3 {fill:#50e6ff;stroke:none;stroke-linecap:butt;stroke-width:34}
		.st4 {fill:url(#grad0-13);stroke:none;stroke-linecap:butt;stroke-width:34}
		.st5 {fill:none;fill-rule:evenodd;font-size:12px;overflow:visible;stroke-linecap:square;stroke-miterlimit:3}
	]]>
	</style>

	<defs id="Patterns_And_Gradients">
		<linearGradient id="grad0-5" x1="0" y1="0" x2="1" y2="0" gradientTransform="rotate(90 0.5 0.5)">
			<stop offset="0" stop-color="#5ea0ef" stop-opacity="1"/>
			<stop offset="0.18" stop-color="#559cec" stop-opacity="1"/>
			<stop offset="0.47" stop-color="#3c91e5" stop-opacity="1"/>
			<stop offset="0.84" stop-color="#1380da" stop-opacity="1"/>
			<stop offset="1" stop-color="#0078d4" stop-opacity="1"/>
		</linearGradient>
		<linearGradient id="grad0-13" x1="0" y1="0" x2="1" y2="0" gradientTransform="rotate(-90 0.5 0.5)">
			<stop offset="0" stop-color="#198ab3" stop-opacity="1"/>
			<stop offset="0" stop-color="#198ab3" stop-opacity="1"/>
			<stop offset="0.14" stop-color="#22a5cb" stop-opacity="1"/>
			<stop offset="0.3" stop-color="#29bade" stop-opacity="1"/>
			<stop offset="0.47" stop-color="#2ec9eb" stop-opacity="1"/>
			<stop offset="0.68" stop-color="#31d1f3" stop-opacity="1"/>
			<stop offset="1" stop-color="#32d4f5" stop-opacity="1"/>
		</linearGradient>
	</defs>
	<g>
		<title>Page-1</title>
		<g id="group2753-1" transform="translate(34,-34.003)">
			<title>Azure Stack</title>
			<g id="shape2754-2" transform="translate(22.6703,-0.30138)">
				<title>Sheet.2754</title>
				<path d="M32.1 68.3 L1.96 68.3 A1.96086 1.90874 -180 0 0 -0 70.18 L0 111.97 A36.0179 35.0605 0 0 1 4.88 108.62 L10.6
							 108.62 L13.76 112.71 L13.76 118.9 L9.77 121.72 L4.23 121.05 L0 117.16 L0 122.82 A1.96086 1.90874 -180
							 0 0 1.96 124.7 L32.1 124.7 A1.92646 1.87525 -180 0 0 34.02 122.82 L34.02 70.18 A1.92646 1.87525 -180
							 0 0 32.1 68.3 Z" class="st1"/>
			</g>
			<g id="shape2755-6" transform="translate(26.6952,-1.60736)">
				<title>Sheet.2755</title>
				<path d="M0.48 75.47 L6.02 75.47 a0.481615 0.468813 0 0 1 0.481615 0.468813 L6.5 82.9 a0.481615 0.468813 0 0 1 -0.481615
							 0.468813 L0.48 83.37 a0.481615 0.468813 0 0 1 -0.481615 -0.468813 L0 75.94 a0.481615 0.468813 0 0 1
							 0.481615 -0.468813 ZM10.22 75.47 L15.76 75.47 a0.481615 0.468813 0 0 1 0.481615 0.468813 L16.24 82.9
							 a0.481615 0.468813 0 0 1 -0.481615 0.468813 L10.22 83.37 a0.481615 0.468813 0 0 1 -0.481615 -0.468813
							 L9.74 75.94 a0.481615 0.468813 0 0 1 0.481615 -0.468813 ZM19.99 75.47 L25.53 75.47 a0.481615 0.468813
							 0 0 1 0.481615 0.468813 L26.01 82.9 a0.481615 0.468813 0 0 1 -0.481615 0.468813 L19.99 83.37 a0.481615
							 0.468813 0 0 1 -0.481615 -0.468813 L19.51 75.94 a0.481615 0.468813 0 0 1 0.481615 -0.468813 ZM0.48 88.06
							 L6.02 88.06 a0.481615 0.468813 0 0 1 0.481615 0.468813 L6.5 95.56 a0.481615 0.468813 0 0 1 -0.481615
							 0.468813 L0.48 96.03 a0.481615 0.468813 0 0 1 -0.481615 -0.468813 L0 88.6 a0.481615 0.468813 0 0 1 0.481615
							 -0.535787 ZM10.22 88.06 L15.76 88.06 a0.481615 0.468813 0 0 1 0.481615 0.468813 L16.24 95.56 a0.481615
							 0.468813 0 0 1 -0.481615 0.468813 L10.22 96.03 a0.481615 0.468813 0 0 1 -0.481615 -0.468813 L9.74 88.6
							 a0.481615 0.468813 0 0 1 0.481615 -0.535787 ZM19.99 88.06 L25.53 88.06 a0.481615 0.468813 0 0 1 0.481615
							 0.468813 L26.01 95.56 a0.481615 0.468813 0 0 1 -0.481615 0.468813 L19.99 96.03 a0.481615 0.468813 0
							 0 1 -0.481615 -0.468813 L19.51 88.6 a0.481615 0.468813 0 0 1 0.481615 -0.535787 ZM0.48 100.79 L6.02
							 100.79 a0.481615 0.468813 0 0 1 0.481615 0.468813 L6.5 108.15 a0.481615 0.468813 0 0 1 -0.481615 0.468813
							 L0.48 108.62 a0.481615 0.468813 0 0 1 -0.481615 -0.468813 L0 101.26 a0.481615 0.468813 0 0 1 0.481615
							 -0.468813 ZM10.22 100.79 L15.76 100.79 a0.481615 0.468813 0 0 1 0.481615 0.468813 L16.24 108.15 a0.481615
							 0.468813 0 0 1 -0.481615 0.468813 L10.22 108.62 a0.481615 0.468813 0 0 1 -0.481615 -0.468813 L9.74 101.26
							 a0.481615 0.468813 0 0 1 0.481615 -0.468813 ZM10.22 113.44 L15.76 113.44 a0.481615 0.468813 0 0 1 0.481615
							 0.468813 L16.24 124.23 a0.481615 0.468813 0 0 1 -0.481615 0.468813 L10.22 124.7 a0.481615 0.468813 0
							 0 1 -0.481615 -0.468813 L9.74 113.91 a0.481615 0.468813 0 0 1 0.481615 -0.468813 ZM19.99 100.79 L25.53
							 100.79 a0.481615 0.468813 0 0 1 0.481615 0.468813 L26.01 108.15 a0.481615 0.468813 0 0 1 -0.481615 0.468813
							 L19.99 108.62 a0.481615 0.468813 0 0 1 -0.481615 -0.468813 L19.51 101.26 a0.481615 0.468813 0 0 1 0.481615
							 -0.468813 Z" class="st2"/>
			</g>
			<g id="shape2756-8" transform="translate(10.0451,-7.94596)">
				<title>Sheet.2756</title>
				<path d="M20.02 117.84 A4.47214 4.35327 -180 0 0 15.76 121.19 L0.28 121.19 A9.70109 9.44324 -180 0 0 0 123.37 L0
							 123.57 L15.76 123.57 A4.43773 4.31978 -180 1 0 20.02 117.84 Z" class="st3"/>
			</g>
			<g id="shape2757-10" transform="translate(10.2859,0)">
				<title>Sheet.2757</title>
				<path d="M31.82 108.09 A11.2147 10.9167 -180 0 0 20.12 97.67 A11.4899 11.1845 -180 0 0 9.12 104.97 A10.9395 10.6488
							 -180 0 0 0.38 111.67 L14.62 111.67 A5.91698 5.75971 0 1 1 19.78 119.94 A5.95138 5.79319 0 0 1 14.52
							 116.59 L0 116.59 A11.0083 10.7157 -180 0 0 10.94 124.7 L30 124.7 L30.48 124.7 A9.04747 8.80699 -180
							 0 0 39.42 116.59 A8.94427 8.70653 -180 0 0 31.82 108.09 Z" class="st4"/>
			</g>
			<g id="shape2758-14" transform="translate(2.89768E-13,-7.90617)">
				<title>Sheet.2758</title>
				<path d="M30.07 117.8 A4.47214 4.35327 -180 0 0 25.8 121.15 L10.32 121.15 A7.63703 7.43404 0 0 1 8.7 120.95 A7.98104
							 7.7689 0 0 1 2.44 113.62 A8.01544 7.80239 0 0 1 9.56 105.95 L10.32 105.95 L10.56 105.28 A8.80667 8.57258
							 0 0 1 19.02 99.55 A9.08187 8.84048 0 0 1 26.87 103.8 A10.5955 10.3139 0 0 1 29.45 103.5 A11.4211 11.1176
							 -180 0 0 19.13 97.17 A11.2835 10.9836 -180 0 0 8.5 103.7 A10.3203 10.046 -180 0 0 0 113.48 A10.3203
							 10.046 -180 0 0 7.71 122.99 A6.88021 6.69733 -180 0 0 10.22 123.39 L25.8 123.39 A4.43773 4.31978 -180
							 1 0 30.07 117.8 Z" class="st3"/>
			</g>
		</g>
	</g>
</svg>
