<?xml version="1.0" encoding="UTF-8" standalone="no"?>
<!DOCTYPE svg PUBLIC "-//W3C//DTD SVG 1.1//EN" "http://www.w3.org/Graphics/SVG/1.1/DTD/svg11.dtd">
<!-- Generated by Microsoft Visio, SVG Export Azure Active Directory Domain Services.svg Page-1 -->
<svg xmlns="http://www.w3.org/2000/svg" xmlns:xlink="http://www.w3.org/1999/xlink" xmlns:ev="http://www.w3.org/2001/xml-events"
		width="1.73185in" height="1.65311in" viewBox="0 0 124.693 119.024" xml:space="preserve" color-interpolation-filters="sRGB"
		class="st9">
	<style type="text/css">
	<![CDATA[
		.st1 {fill:#50e6ff;stroke:none;stroke-linecap:butt;stroke-width:34}
		.st2 {fill:#ffffff;stroke:none;stroke-linecap:butt;stroke-width:34}
		.st3 {fill:url(#grad0-12);stroke:none;stroke-linecap:butt;stroke-width:34}
		.st4 {fill:#53b1e0;stroke:none;stroke-linecap:butt;stroke-width:34}
		.st5 {fill:#9cebff;stroke:none;stroke-linecap:butt;stroke-width:34}
		.st6 {fill:url(#grad0-20);stroke:none;stroke-linecap:butt;stroke-width:34}
		.st7 {fill:#773adc;stroke:none;stroke-linecap:butt;stroke-width:34}
		.st8 {fill:#f9f9f9;fill-opacity:0.5;stroke:none;stroke-linecap:butt;stroke-width:34}
		.st9 {fill:none;fill-rule:evenodd;font-size:12px;overflow:visible;stroke-linecap:square;stroke-miterlimit:3}
	]]>
	</style>

	<defs id="Patterns_And_Gradients">
		<linearGradient id="grad0-12" x1="0" y1="0" x2="1" y2="0" gradientTransform="rotate(-133.54829310906 0.5 0.5)">
			<stop offset="0" stop-color="#1988d9" stop-opacity="1"/>
			<stop offset="0.9" stop-color="#54aef0" stop-opacity="1"/>
		</linearGradient>
		<linearGradient id="grad0-20" x1="0" y1="0" x2="1" y2="0" gradientTransform="rotate(65.834982258294 0.5 0.5)">
			<stop offset="0.1" stop-color="#54aef0" stop-opacity="1"/>
			<stop offset="0.29" stop-color="#4fabee" stop-opacity="1"/>
			<stop offset="0.51" stop-color="#41a2e9" stop-opacity="1"/>
			<stop offset="0.74" stop-color="#2a93e0" stop-opacity="1"/>
			<stop offset="0.88" stop-color="#1988d9" stop-opacity="1"/>
		</linearGradient>
	</defs>
	<g>
		<title>Page-1</title>
		<g id="group3363-1" transform="translate(34,-34)">
			<title>Azure Active Directory Domain Services</title>
			<g id="group3364-2">
				<title>Icon-identity-222</title>
				<g id="shape3365-3">
					<title>Sheet.3365</title>
					<path d="M3.18 97.22 L28.13 113.23 L53.51 97.16 L56.69 100.8 L28.13 119.02 L0 100.83 L3.18 97.22 Z" class="st1"/>
				</g>
				<g id="shape3366-5" transform="translate(5.07087,-9.12694)">
					<title>Sheet.3366</title>
					<path d="M0 104.29 L23.06 77.13 L46.58 104.32 L23.06 119.02 L0 104.29 Z" class="st2"/>
				</g>
				<g id="shape3367-7" transform="translate(5.07087,-9.12694)">
					<title>Sheet.3367</title>
					<path d="M23.06 77.13 L23.06 119.02 L0 104.29 L23.06 77.13 Z" class="st1"/>
				</g>
				<g id="shape3368-9" transform="translate(28.126,-9.12694)">
					<title>Sheet.3368</title>
					<path d="M0 77.13 L0 119.02 L23.53 104.32 L0 77.13 Z" class="st3"/>
				</g>
				<g id="shape3369-13" transform="translate(28.126,-9.12694)">
					<title>Sheet.3369</title>
					<path d="M0 98.78 L23.53 104.32 L0 119.02 L0 98.78 Z" class="st4"/>
				</g>
				<g id="shape3370-15" transform="translate(5.07087,-9.12694)">
					<title>Sheet.3370</title>
					<path d="M23.06 119.02 L0 104.29 L23.06 98.78 L23.06 119.02 Z" class="st5"/>
				</g>
				<g id="shape3371-17" transform="translate(28.126,2.55795E-13)">
					<title>Sheet.3371</title>
					<path d="M0 119.02 L28.57 100.8 L25.39 97.16 L0 113.23 L0 119.02 Z" class="st6"/>
				</g>
				<g id="shape3372-21" transform="translate(28.5354,-0.342649)">
					<title>Sheet.3372</title>
					<path d="M14.08 93.85 L0 113.35 L14.08 119.02 L28.16 113.35 L14.08 93.85 Z" class="st7"/>
				</g>
				<g id="shape3373-23" transform="translate(28.5354,-0.342649)">
					<title>Sheet.3373</title>
					<path d="M14.08 93.85 L0 113.35 L14.08 119.02 L14.08 93.85 Z" class="st8"/>
				</g>
			</g>
		</g>
	</g>
</svg>
