<?xml version="1.0" encoding="UTF-8" standalone="no"?>
<!DOCTYPE svg PUBLIC "-//W3C//DTD SVG 1.1//EN" "http://www.w3.org/Graphics/SVG/1.1/DTD/svg11.dtd">
<!-- Generated by Microsoft Visio, SVG Export Azure Lighthouse My Request.svg Page-1 -->
<svg xmlns="http://www.w3.org/2000/svg" xmlns:xlink="http://www.w3.org/1999/xlink" xmlns:ev="http://www.w3.org/2001/xml-events"
		width="1.00929in" height="1.3511in" viewBox="0 0 72.669 97.2794" xml:space="preserve" color-interpolation-filters="sRGB"
		class="st9">
	<style type="text/css">
	<![CDATA[
		.st1 {fill:#ff8c00;stroke:none;stroke-linecap:butt;stroke-width:12.24}
		.st2 {fill:#000000;fill-opacity:0.4;stroke:none;stroke-linecap:butt;stroke-width:12.24}
		.st3 {fill:#ffffff;stroke:none;stroke-linecap:butt;stroke-width:12.24}
		.st4 {fill:#a0a1a2;stroke:none;stroke-linecap:butt;stroke-width:12.24}
		.st5 {fill:#ffffff;fill-opacity:0.2;stroke:none;stroke-linecap:butt;stroke-width:12.24}
		.st6 {fill:#59b4d9;stroke:none;stroke-linecap:butt;stroke-width:12.24}
		.st7 {fill:#ffffff;fill-opacity:0.4;stroke:none;stroke-linecap:butt;stroke-width:12.24}
		.st8 {fill:#3999c6;stroke:none;stroke-linecap:butt;stroke-width:12.24}
		.st9 {fill:none;fill-rule:evenodd;font-size:12px;overflow:visible;stroke-linecap:square;stroke-miterlimit:3}
	]]>
	</style>

	<g>
		<title>Page-1</title>
		<g id="group2997-1" transform="translate(12.24,-28.3465)">
			<title>Azure Lighthouse My Request</title>
			<g id="group2998-2">
				<title>g24</title>
				<g id="shape2999-3" transform="translate(0,-8.26772)">
					<title>path4</title>
					<path d="M34.99 97.28 L1.72 97.28 A1.72103 1.77165 0 0 1 0 95.51 L0 54.17 A1.72103 1.77165 0 0 1 1.72 52.4 L34.99
								 52.4 A1.72103 1.77165 0 0 1 36.72 54.17 L36.72 95.51 A1.72103 1.77165 0 0 1 34.99 97.28 Z"
							class="st1"/>
				</g>
				<g id="shape3000-5" transform="translate(0,-8.26772)">
					<title>path6</title>
					<path d="M34.99 97.28 L1.72 97.28 A1.72103 1.77165 0 0 1 0 95.51 L0 54.17 A1.72103 1.77165 0 0 1 1.72 52.4 L34.99
								 52.4 A1.72103 1.77165 0 0 1 36.72 54.17 L36.72 95.51 A1.72103 1.77165 0 0 1 34.99 97.28 Z"
							class="st2"/>
				</g>
				<g id="shape3001-7" transform="translate(3.44207,-11.811)">
					<title>path8</title>
					<rect x="0" y="59.4841" width="29.8313" height="37.7953" class="st3"/>
				</g>
				<g id="shape3002-9" transform="translate(9.17885,-47.2441)">
					<title>path10</title>
					<path d="M18.36 97.28 L0 97.28 L0 91.61 A3.67154 3.77953 0 0 1 3.67 87.83 L14.69 87.83 A3.67154 3.77953 0 0 1
								 18.36 91.61 L18.36 97.28 Z" class="st4"/>
				</g>
				<g id="shape3003-11" transform="translate(9.17885,-47.2441)">
					<title>path12</title>
					<path d="M9.18 87.83 L3.67 87.83 A3.67154 3.77953 -180 0 0 0 91.61 L0 97.28 L9.18 97.28 L9.18 87.83 Z"
							class="st5"/>
				</g>
				<g id="shape3004-13" transform="translate(16.063,-18.8976)">
					<title>path14</title>
					<path d="M0 76.02 L12.62 76.02 L12.62 78.38 L0 78.38 L0 76.02 ZM0 85.47 L12.62 85.47 L12.62 87.83 L0 87.83 L0
								 85.47 ZM0 94.92 L12.62 94.92 L12.62 97.28 L0 97.28 L0 94.92 Z" class="st6"/>
				</g>
				<g id="shape3005-15" transform="translate(26.3892,-8.26772)">
					<title>path16</title>
					<path d="M5.74 87.83 L0 87.83 L0 97.28 L8.61 97.28 A1.72103 1.77165 -180 0 0 10.33 95.51 L10.33 85.23 C7.77 84.68
								 5.85 82.35 5.85 79.56 C5.85 76.78 7.77 74.45 10.33 73.9 L10.33 71.51 C6.5 72.08 3.56 75.47 3.56
								 79.56 C3.56 81.89 4.51 83.98 6.03 85.47 L5.74 85.47 L5.74 87.83 Z" class="st7"/>
				</g>
				<g id="shape3006-17" transform="translate(27.5366,-2.84217E-13)">
					<title>path18</title>
					<path d="M17.1 71.3 A6.76998 6.96909 0 1 1 3.56 71.29 A6.76998 6.96909 0 0 1 17.1 71.3 ZM14.55 80.74 L10.33 87.45
								 L6.1 80.74 L0 80.74 L0 97.28 L20.65 97.28 L20.65 80.74 L14.55 80.74 Z" class="st8"/>
				</g>
				<g id="shape3007-19" transform="translate(6.88414,-16.5354)">
					<title>path20</title>
					<path d="M0 72.48 L5.74 72.48 L5.74 78.38 L0 78.38 L0 72.48 ZM0 81.93 L5.74 81.93 L5.74 87.83 L0 87.83 L0 81.93
								 ZM0 91.37 L5.74 91.37 L5.74 97.28 L0 97.28 L0 91.37 Z" class="st6"/>
				</g>
				<g id="shape3008-21" transform="translate(8.31834,-18.0118)">
					<title>path22</title>
					<path d="M0 75.43 L2.87 75.43 L2.87 78.38 L0 78.38 L0 75.43 ZM0 84.88 L2.87 84.88 L2.87 87.83 L0 87.83 L0 84.88
								 ZM0 94.33 L2.87 94.33 L2.87 97.28 L0 97.28 L0 94.33 Z" class="st3"/>
				</g>
			</g>
		</g>
	</g>
</svg>
