<?xml version="1.0" encoding="UTF-8" standalone="no"?>
<!DOCTYPE svg PUBLIC "-//W3C//DTD SVG 1.1//EN" "http://www.w3.org/Graphics/SVG/1.1/DTD/svg11.dtd">
<!-- Generated by Microsoft Visio, SVG Export Azure Batch Account.svg Page-1 -->
<svg xmlns="http://www.w3.org/2000/svg" xmlns:xlink="http://www.w3.org/1999/xlink" xmlns:ev="http://www.w3.org/2001/xml-events"
		width="0.944882in" height="1.25984in" viewBox="0 0 68.0315 90.7087" xml:space="preserve" color-interpolation-filters="sRGB"
		class="st6">
	<style type="text/css">
	<![CDATA[
		.st1 {fill:#59b4d9;stroke:none;stroke-linecap:butt;stroke-width:0.0826977}
		.st2 {fill:#ffffff;stroke:none;stroke-linecap:butt;stroke-width:0.0826977}
		.st3 {fill:#57a300;stroke:none;stroke-linecap:butt;stroke-width:0.0826977}
		.st4 {fill:#3999c6;stroke:none;stroke-linecap:butt;stroke-width:0.0826977}
		.st5 {fill:#ffffff;fill-opacity:0.2;stroke:none;stroke-linecap:butt;stroke-width:0.0826977}
		.st6 {fill:none;fill-rule:evenodd;font-size:12px;overflow:visible;stroke-linecap:square;stroke-miterlimit:3}
	]]>
	</style>

	<g>
		<title>Page-1</title>
		<g id="group3219-1" transform="translate(5.66929,-28.3465)">
			<title>Azure Batch Account</title>
			<g id="shape3220-2" transform="translate(2.8777E-13,-25.07)">
				<title>path7</title>
				<path d="M26.49 66.97 L0 66.97 L0 89.26 C0 89.61 0.13 89.96 0.36 90.22 L0.35 90.23 C0.39 90.26 0.43 90.31 0.47 90.33
							 C0.71 90.56 1.02 90.71 1.4 90.71 L28.93 90.71 C29.63 90.71 30.33 90.11 30.33 89.25 L30.33 66.97 L26.49
							 66.97 Z" class="st1"/>
			</g>
			<g id="shape3221-4" transform="translate(5.81726,-30.1538)">
				<title>path9</title>
				<path d="M0 77.02 L18.93 77.02 L18.93 78.84 L0 78.84 L0 77.02 ZM0 82.95 L18.93 82.95 L18.93 84.77 L0 84.77 L0 82.95
							 ZM0 88.89 L18.93 88.89 L18.93 90.71 L0 90.71 L0 88.89 Z" class="st2"/>
			</g>
			<g id="shape3222-6" transform="translate(32.5422,-24.9432)">
				<title>path11</title>
				<path d="M11.6 82.59 C11.6 82.59 13 71.81 3.48 69.75 C3.48 69.75 2.67 69.63 1.62 69.63 C0.46 69.63 0 69.99 0 69.99
							 L0 74.36 C0 74.36 0.34 74 1.85 74 C2.79 74 3.48 74.12 3.83 74.12 C6.04 74.84 8.13 76.54 7.66 82.48 L3.6
							 82.48 L9.98 90.71 L16.26 82.48 L11.6 82.48 L11.6 82.59 Z" class="st3"/>
			</g>
			<g id="shape3223-8" transform="translate(38.2277,-3.49839)">
				<title>path13</title>
				<path d="M14.06 74.96 L13.25 74.96 L13.25 88.76 L0 88.76 L0 89.86 C0 90.35 0.11 90.71 0.58 90.71 L14.29 90.71 C14.76
							 90.71 15.1 90.35 15.1 89.86 L15.1 75.81 C15.1 75.32 14.52 74.96 14.06 74.96 Z" class="st1"/>
			</g>
			<g id="shape3224-10" transform="translate(41.5924,2.84217E-13)">
				<title>path15</title>
				<path d="M14.06 74.97 L13.25 74.97 L13.25 88.66 C13.25 88.77 13.13 88.77 13.13 88.77 L0 88.77 L0 89.86 C0 90.35 0.11
							 90.71 0.58 90.71 L14.06 90.71 C14.63 90.71 15.1 90.22 15.1 89.62 L15.1 75.82 C15.1 75.34 14.52 74.97
							 14.06 74.97 Z" class="st1"/>
			</g>
			<g id="shape3225-12" transform="translate(-2.79776E-13,-19.1302)">
				<title>path17</title>
				<path d="M3.84 61.03 L30.32 61.03 L30.32 54.6 C30.32 53.88 29.75 53.15 28.92 53.15 L1.4 53.15 C0.7 53.15 0 53.75
							 0 54.6 L0 61.03 L3.84 61.03 ZM48.68 86.71 L35.2 86.71 C34.73 86.71 34.39 87.07 34.39 87.56 L34.39 90.71
							 L49.48 90.71 L49.48 87.56 C49.5 87.07 49.14 86.71 48.68 86.71 Z" class="st4"/>
			</g>
			<g id="shape3226-14" transform="translate(34.3968,-7.37727)">
				<title>path19</title>
				<path d="M13.24 78.84 L0 78.84 L0 89.86 C0 90.35 0.34 90.71 0.81 90.71 L14.29 90.71 C14.76 90.71 15.1 90.35 15.1
							 89.86 L15.1 78.84 L13.24 78.84 Z" class="st1"/>
			</g>
			<g id="shape3227-16" transform="translate(37.873,-15.3781)">
				<title>path21</title>
				<rect x="0" y="88.7745" width="7.55027" height="1.93415" class="st2"/>
			</g>
			<g id="shape3228-18" transform="translate(0.0202698,-7.66263)">
				<title>path23</title>
				<path d="M26.49 49.56 L0 49.56 L0 71.85 C0 72.21 0.14 72.58 0.4 72.86 C0.64 73.13 30.32 49.56 30.32 49.56 L26.49
							 49.56 ZM49.48 79.12 L34.38 79.12 L34.38 90.09 C34.38 90.09 34.34 90.47 34.57 90.71 L49.48 79.12 Z"
						class="st5"/>
			</g>
		</g>
	</g>
</svg>
