<?xml version="1.0" encoding="UTF-8" standalone="no"?>
<!DOCTYPE svg PUBLIC "-//W3C//DTD SVG 1.1//EN" "http://www.w3.org/Graphics/SVG/1.1/DTD/svg11.dtd">
<!-- Generated by Microsoft Visio, SVG Export Azure Automation Runbook.svg Page-1 -->
<svg xmlns="http://www.w3.org/2000/svg" xmlns:xlink="http://www.w3.org/1999/xlink" xmlns:ev="http://www.w3.org/2001/xml-events"
		width="0.853335in" height="1.25984in" viewBox="0 0 61.4401 90.7087" xml:space="preserve" color-interpolation-filters="sRGB"
		class="st3">
	<style type="text/css">
	<![CDATA[
		.st1 {fill:#7a7a7a;stroke:none;stroke-linecap:butt;stroke-width:0.75}
		.st2 {fill:#59b4d9;stroke:none;stroke-linecap:butt;stroke-width:0.75}
		.st3 {fill:none;fill-rule:evenodd;font-size:12px;overflow:visible;stroke-linecap:square;stroke-miterlimit:3}
	]]>
	</style>

	<g>
		<title>Page-1</title>
		<g id="group3229-1" transform="translate(5.10236,-28.3465)">
			<title>COLOUR-DEVELOPMENT_Azure-Automation-Runbook</title>
			<g id="shape3230-2" transform="translate(7.38355,-14.088)">
				<title>path2</title>
				<path d="M33.61 74.46 L2.53 74.46 C1.21 74.46 0 75.6 0 77.3 L0 89.46 L4.3 90.71 L4.3 78.89 L31.74 78.89 L31.74 90.6
							 L36.04 89.35 L36.04 77.3 C36.04 75.6 34.82 74.46 33.61 74.46 Z" class="st1"/>
			</g>
			<g id="shape3231-4" transform="translate(23.2527,-26.2446)">
				<title>rect4</title>
				<rect x="0" y="78.8929" width="4.29789" height="11.8158" class="st1"/>
			</g>
			<g id="shape3232-6" transform="translate(15.8691,-37.9468)">
				<title>path6</title>
				<path d="M16.53 71.96 L2.64 71.96 C1.21 71.96 0 73.21 0 74.69 L0 87.98 C0 89.46 1.21 90.71 2.64 90.71 L16.42 90.71
							 C17.85 90.71 19.06 89.46 19.06 87.98 L19.06 74.69 C19.18 73.21 17.96 71.96 16.53 71.96 Z" class="st2"/>
			</g>
			<g id="shape3233-8">
				<title>path8</title>
				<path d="M16.42 71.96 L2.64 71.96 C1.21 71.96 0 73.21 0 74.69 L0 87.98 C0 89.46 1.21 90.71 2.64 90.71 L16.42 90.71
							 C17.85 90.71 19.06 89.46 19.06 87.98 L19.06 74.69 C19.06 73.21 17.85 71.96 16.42 71.96 Z" class="st2"/>
			</g>
			<g id="shape3234-10" transform="translate(31.8484,-2.70006E-13)">
				<title>path10</title>
				<path d="M16.42 71.96 L2.64 71.96 C1.21 71.96 0 73.21 0 74.69 L0 87.98 C0 89.46 1.21 90.71 2.64 90.71 L16.42 90.71
							 C17.85 90.71 19.06 89.46 19.06 87.98 L19.06 74.69 C19.18 73.21 17.96 71.96 16.42 71.96 Z" class="st2"/>
			</g>
		</g>
	</g>
</svg>
