<?xml version="1.0" encoding="UTF-8" standalone="no"?>
<!DOCTYPE svg PUBLIC "-//W3C//DTD SVG 1.1//EN" "http://www.w3.org/Graphics/SVG/1.1/DTD/svg11.dtd">
<!-- Generated by Microsoft Visio, SVG Export Azure Arc Service.svg Page-1 -->
<svg xmlns="http://www.w3.org/2000/svg" xmlns:xlink="http://www.w3.org/1999/xlink" xmlns:ev="http://www.w3.org/2001/xml-events"
		width="0.944882in" height="0.870079in" viewBox="0 0 68.0315 62.6457" xml:space="preserve"
		color-interpolation-filters="sRGB" class="st8">
	<style type="text/css">
	<![CDATA[
		.st1 {fill:#4bc8ef;stroke:none;stroke-linecap:butt;stroke-width:0.53125}
		.st2 {fill:#96d8ec;stroke:none;stroke-linecap:butt;stroke-width:0.53125}
		.st3 {fill:#74cfeb;stroke:none;stroke-linecap:butt;stroke-width:0.53125}
		.st4 {fill:#2f76bc;stroke:none;stroke-linecap:butt;stroke-width:0.53125}
		.st5 {fill:#1d4b7a;stroke:none;stroke-linecap:butt;stroke-width:0.53125}
		.st6 {fill:#509ed7;stroke:none;stroke-linecap:butt;stroke-width:0.53125}
		.st7 {fill:url(#grad0-18);stroke:none;stroke-linecap:butt;stroke-width:0.53125}
		.st8 {fill:none;fill-rule:evenodd;font-size:12px;overflow:visible;stroke-linecap:square;stroke-miterlimit:3}
	]]>
	</style>

	<defs id="Patterns_And_Gradients">
		<linearGradient id="grad0-18" x1="0" y1="0" x2="1" y2="0" gradientTransform="rotate(0 0.5 0.5)">
			<stop offset="0.25" stop-color="#0560a5" stop-opacity="1"/>
			<stop offset="0.8" stop-color="#72c8e6" stop-opacity="1"/>
		</linearGradient>
	</defs>
	<g>
		<title>Page-1</title>
		<g id="group3254-1" transform="translate(5.66929,-28.3465)">
			<title>Azure Arc Service</title>
			<g id="group3255-2">
				<title> AzureARC_outlines</title>
				<g id="shape3256-3" transform="translate(52.8979,-1.56319E-13)">
					<title>Sheet.3256</title>
					<path d="M0 62.65 L3.8 60.25 L3.8 34.86 L0.01 37.13 L0 62.65 Z" class="st1"/>
				</g>
				<g id="shape3257-5" transform="translate(47.5145,0)">
					<title>Sheet.3257</title>
					<path d="M0 33.81 L0 59.38 L5.38 62.65 L5.38 37.12 L0 33.81 Z" class="st2"/>
				</g>
				<g id="shape3258-7" transform="translate(47.5088,-25.5236)">
					<title>Sheet.3258</title>
					<path d="M5.39 62.65 L9.18 60.38 L3.72 56.99 L0 59.33 L5.39 62.65 Z" class="st3"/>
				</g>
				<g id="shape3259-9">
					<title>Sheet.3259</title>
					<path d="M3.8 37.12 L0 34.86 L0 60.25 L3.8 62.65 L3.8 37.12 Z" class="st4"/>
				</g>
				<g id="shape3260-11" transform="translate(3.79503,0)">
					<title>Sheet.3260</title>
					<path d="M0 37.12 L0 62.65 L5.38 59.38 L5.38 33.81 L0 37.12 Z" class="st5"/>
				</g>
				<g id="shape3261-13" transform="translate(0.00567269,-25.518)">
					<title>Sheet.3261</title>
					<path d="M9.17 59.33 L5.46 56.99 L0 60.38 L3.8 62.65 L9.17 59.33 Z" class="st6"/>
				</g>
				<g id="shape3262-15" transform="translate(6.35342,-17.3835)">
					<title>Sheet.3262</title>
					<path d="M22.1 62.65 C18.37 62.65 14.9 62.27 11.78 61.53 C9.27 60.94 6.98 60.11 4.97 59.08 C1.54 57.3 0.12 55.55
								 0.07 55.48 C0 55.4 0.02 55.27 0.1 55.2 C0.19 55.14 0.31 55.15 0.38 55.24 C0.39 55.25 1.82 57.01
								 5.18 58.74 C7.16 59.76 9.42 60.57 11.89 61.15 C14.98 61.87 18.41 62.25 22.1 62.25 C25.79 62.25 29.21
								 61.87 32.29 61.14 C34.75 60.56 36.98 59.75 38.93 58.72 C42.23 56.99 43.58 55.25 43.6 55.23 C43.67
								 55.15 43.79 55.13 43.88 55.19 C43.96 55.26 43.98 55.38 43.92 55.47 C43.86 55.54 42.5 57.3 39.11
								 59.07 C37.13 60.11 34.87 60.93 32.39 61.52 C29.28 62.27 25.82 62.65 22.1 62.65 Z" class="st7"/>
				</g>
				<g id="shape3263-19" transform="translate(6.35909,-16.5954)">
					<title>Sheet.3263</title>
					<path d="M22.09 62.65 C17.44 62.65 10.7 62.21 4.99 60.16 C1.56 58.92 0.14 57.7 0.09 57.65 C0.01 57.57 0 57.45
								 0.07 57.37 C0.15 57.29 0.27 57.29 0.35 57.35 C0.36 57.37 1.79 58.59 5.16 59.8 C10.81 61.83 17.49
								 62.25 22.1 62.25 C26.71 62.25 33.38 61.82 38.95 59.79 C42.26 58.58 43.61 57.37 43.63 57.36 C43.71
								 57.29 43.84 57.29 43.91 57.38 C43.98 57.46 43.97 57.58 43.9 57.65 C43.84 57.7 42.48 58.93 39.09
								 60.16 C37.12 60.88 34.85 61.46 32.37 61.87 C29.27 62.39 25.81 62.65 22.09 62.65 Z" class="st7"/>
				</g>
				<g id="shape3264-22" transform="translate(6.34775,-15.8073)">
					<title>Sheet.3264</title>
					<path d="M22.1 62.65 C17.45 62.65 10.73 62.4 5.03 61.21 C1.6 60.5 0.19 59.79 0.14 59.76 C0.04 59.71 0 59.59 0.05
								 59.49 C0.1 59.4 0.22 59.36 0.32 59.41 C0.33 59.41 1.76 60.13 5.14 60.83 C10.8 62.01 17.48 62.26
								 22.1 62.26 C26.72 62.26 33.38 62.01 38.95 60.83 C42.28 60.13 43.66 59.42 43.67 59.41 C43.76 59.35
								 43.88 59.39 43.94 59.48 C44 59.58 43.96 59.7 43.87 59.75 C43.86 59.75 43.86 59.76 43.86 59.76 C43.8
								 59.79 42.44 60.5 39.07 61.21 C33.46 62.4 26.75 62.65 22.1 62.65 Z" class="st7"/>
				</g>
				<g id="shape3265-25" transform="translate(6.35909,-15.0192)">
					<title>Sheet.3265</title>
					<path d="M22.09 62.65 C6 62.65 0.23 61.26 0.17 61.24 C0.06 61.21 0 61.1 0.03 61 C0.06 60.89 0.16 60.83 0.27 60.86
								 C0.32 60.87 6.06 62.26 22.09 62.26 C38.11 62.26 43.65 60.88 43.7 60.86 C43.81 60.84 43.92 60.91
								 43.94 61.01 C43.96 61.11 43.9 61.22 43.8 61.24 C43.75 61.25 38.18 62.65 22.09 62.65 Z" class="st7"/>
				</g>
				<g id="shape3266-28" transform="translate(6.38178,-14.2311)">
					<title>Sheet.3266</title>
					<path d="M43.61 62.65 L0.2 62.65 C0.09 62.65 0 62.56 0 62.45 C0 62.34 0.09 62.25 0.2 62.25 L43.62 62.25 C43.73
								 62.25 43.82 62.34 43.82 62.45 C43.82 62.56 43.73 62.65 43.61 62.65 Z" class="st7"/>
				</g>
				<g id="shape3267-31" transform="translate(6.36476,-3.96871)">
					<title>Sheet.3267</title>
					<path d="M43.75 62.62 C43.69 62.62 43.63 62.6 43.59 62.54 C43.58 62.53 42.21 60.77 38.89 59.04 C36.94 58.02 34.71
								 57.21 32.26 56.63 C29.19 55.91 25.77 55.54 22.09 55.54 C18.41 55.54 14.97 55.91 11.88 56.63 C9.42
								 57.21 7.16 58.02 5.18 59.04 C1.81 60.78 0.39 62.53 0.38 62.54 C0.31 62.63 0.19 62.65 0.1 62.58 C0.02
								 62.51 0 62.39 0.07 62.3 C0.12 62.23 1.54 60.48 4.97 58.71 C6.98 57.67 9.27 56.84 11.78 56.25 C14.9
								 55.51 18.37 55.14 22.1 55.14 C25.82 55.14 29.28 55.51 32.38 56.25 C34.86 56.84 37.13 57.67 39.11
								 58.71 C42.49 60.48 43.86 62.23 43.91 62.3 C43.98 62.39 43.96 62.51 43.87 62.58 C43.83 62.61 43.79
								 62.62 43.75 62.62 Z" class="st7"/>
				</g>
				<g id="shape3268-34" transform="translate(6.34775,-6.89598)">
					<title>Sheet.3268</title>
					<path d="M43.76 62.62 C43.71 62.62 43.67 62.61 43.63 62.57 C43.62 62.56 42.24 61.33 38.92 60.12 C33.36 58.1 26.7
								 57.67 22.1 57.67 C17.49 57.67 10.81 58.1 5.16 60.12 C1.79 61.33 0.36 62.56 0.35 62.57 C0.27 62.65
								 0.15 62.64 0.07 62.56 C0 62.48 0.01 62.36 0.09 62.29 L0.09 62.28 C0.15 62.23 1.57 61 5 59.77 C8.15
								 58.64 13.67 57.28 22.1 57.28 C25.81 57.28 29.27 57.54 32.37 58.06 C34.85 58.47 37.11 59.04 39.09
								 59.77 C42.47 61.01 43.84 62.23 43.9 62.29 C43.97 62.36 43.98 62.48 43.91 62.56 C43.87 62.6 43.82
								 62.62 43.76 62.62 Z" class="st7"/>
				</g>
				<g id="shape3269-37" transform="translate(6.38178,-9.76133)">
					<title>Sheet.3269</title>
					<path d="M0.2 62.62 C0.09 62.62 0 62.53 0 62.42 C0 62.35 0.04 62.28 0.11 62.25 C0.16 62.22 1.58 61.51 5 60.79
								 C10.69 59.61 17.43 59.36 22.07 59.36 C26.72 59.36 33.43 59.61 39.04 60.79 C42.41 61.51 43.77 62.22
								 43.83 62.25 C43.92 62.3 43.96 62.41 43.92 62.51 C43.87 62.61 43.75 62.65 43.65 62.6 C43.65 62.6
								 43.65 62.6 43.64 62.6 C43.63 62.59 42.25 61.87 38.92 61.17 C33.35 59.99 26.68 59.75 22.07 59.75
								 C17.45 59.75 10.75 59.99 5.08 61.18 C1.71 61.88 0.31 62.58 0.29 62.6 C0.26 62.61 0.23 62.62 0.2
								 62.62 Z" class="st7"/>
				</g>
				<g id="shape3270-40" transform="translate(6.38178,-12.0243)">
					<title>Sheet.3270</title>
					<path d="M0.2 62.63 C0.09 62.63 0 62.54 0 62.43 C0 62.34 0.06 62.26 0.15 62.24 C0.2 62.23 5.98 60.83 22.07 60.83
								 C38.15 60.83 43.73 62.23 43.78 62.24 C43.89 62.27 43.95 62.38 43.91 62.49 C43.88 62.59 43.78 62.65
								 43.68 62.62 C43.62 62.61 38.09 61.23 22.07 61.23 C6.04 61.23 0.3 62.61 0.24 62.62 C0.23 62.62 0.22
								 62.63 0.2 62.63 Z" class="st7"/>
				</g>
			</g>
		</g>
	</g>
</svg>
