<?xml version="1.0" encoding="UTF-8" standalone="no"?>
<!DOCTYPE svg PUBLIC "-//W3C//DTD SVG 1.1//EN" "http://www.w3.org/Graphics/SVG/1.1/DTD/svg11.dtd">
<!-- Generated by Microsoft Visio, SVG Export Azure Spring Cloud.svg Page-1 -->
<svg xmlns="http://www.w3.org/2000/svg" xmlns:xlink="http://www.w3.org/1999/xlink" xmlns:ev="http://www.w3.org/2001/xml-events"
		width="1.2124in" height="1.3936in" viewBox="0 0 87.2929 100.339" xml:space="preserve" color-interpolation-filters="sRGB"
		class="st10">
	<style type="text/css">
	<![CDATA[
		.st1 {fill:url(#grad0-6);stroke:none;stroke-linecap:butt;stroke-width:15.3}
		.st2 {fill:url(#grad0-10);stroke:none;stroke-linecap:butt;stroke-width:15.3}
		.st3 {fill:url(#grad0-14);stroke:none;stroke-linecap:butt;stroke-width:15.3}
		.st4 {fill:url(#grad0-18);stroke:none;stroke-linecap:butt;stroke-width:15.3}
		.st5 {fill:url(#grad0-25);stroke:none;stroke-linecap:butt;stroke-width:15.3}
		.st6 {fill:url(#grad0-32);stroke:none;stroke-linecap:butt;stroke-width:15.3}
		.st7 {fill:url(#grad0-36);stroke:none;stroke-linecap:butt;stroke-width:15.3}
		.st8 {fill:#5fb832;stroke:none;stroke-linecap:butt;stroke-width:15.3}
		.st9 {fill:#ffffff;stroke:none;stroke-linecap:butt;stroke-width:15.3}
		.st10 {fill:none;fill-rule:evenodd;font-size:12px;overflow:visible;stroke-linecap:square;stroke-miterlimit:3}
	]]>
	</style>

	<defs id="Patterns_And_Gradients">
		<linearGradient id="grad0-6" x1="0" y1="0" x2="1" y2="0" gradientTransform="rotate(90 0.5 0.5)">
			<stop offset="0" stop-color="#008bf1" stop-opacity="1"/>
			<stop offset="0.22" stop-color="#0086ec" stop-opacity="1"/>
			<stop offset="0.495" stop-color="#0078dd" stop-opacity="1"/>
			<stop offset="0.79" stop-color="#0061c4" stop-opacity="1"/>
			<stop offset="1" stop-color="#004dae" stop-opacity="1"/>
		</linearGradient>
		<linearGradient id="grad0-10" x1="0" y1="0" x2="1" y2="0" gradientTransform="rotate(0 0.5 0.5)">
			<stop offset="0" stop-color="#00315c" stop-opacity="1"/>
			<stop offset="0.785" stop-color="#0080e5" stop-opacity="1"/>
		</linearGradient>
		<linearGradient id="grad0-14" x1="0" y1="0" x2="1" y2="0" gradientTransform="rotate(-180 0.5 0.5)">
			<stop offset="0" stop-color="#00315c" stop-opacity="1"/>
			<stop offset="0.785" stop-color="#0080e5" stop-opacity="1"/>
		</linearGradient>
		<linearGradient id="grad0-18" x1="0" y1="0" x2="1" y2="0" gradientTransform="rotate(-90 0.5 0.5)">
			<stop offset="0" stop-color="#00315c" stop-opacity="1"/>
			<stop offset="0.785" stop-color="#008af0" stop-opacity="1"/>
		</linearGradient>
		<linearGradient id="grad0-25" x1="0" y1="0" x2="1" y2="0" gradientTransform="rotate(90 0.5 0.5)">
			<stop offset="0" stop-color="#00294f" stop-opacity="1"/>
			<stop offset="0.705" stop-color="#005ba6" stop-opacity="1"/>
			<stop offset="0.83" stop-color="#0457ac" stop-opacity="1"/>
			<stop offset="1" stop-color="#0050b2" stop-opacity="1"/>
		</linearGradient>
		<linearGradient id="grad0-32" x1="0" y1="0" x2="1" y2="0" gradientTransform="rotate(0 0.5 0.5)">
			<stop offset="0" stop-color="#00315c" stop-opacity="1"/>
			<stop offset="0.58" stop-color="#0e71c7" stop-opacity="1"/>
			<stop offset="1" stop-color="#0a75d5" stop-opacity="1"/>
		</linearGradient>
		<linearGradient id="grad0-36" x1="0" y1="0" x2="1" y2="0" gradientTransform="rotate(-180 0.5 0.5)">
			<stop offset="0" stop-color="#00315c" stop-opacity="1"/>
			<stop offset="0.58" stop-color="#0e71c7" stop-opacity="1"/>
			<stop offset="1" stop-color="#0a75d5" stop-opacity="1"/>
		</linearGradient>
	</defs>
	<g>
		<title>Page-1</title>
		<g id="group2824-1" transform="translate(15.3,-28.3465)">
			<title>Azure Spring Cloud</title>
			<g id="group2825-2">
				<title>Sheet.2825</title>
				<g id="shape2826-3">
					<title>Sheet.2826</title>
					<path d="M26.77 70.42 L0 70.42 L0 43.65 L26.77 43.65 L26.77 70.42 ZM4.72 65.69 L22.05 65.69 L22.05 48.37 L4.72
								 48.37 L4.72 65.69 ZM56.69 70.42 L29.92 70.42 L29.92 43.65 L56.69 43.65 L56.69 70.42 ZM34.65 65.69
								 L51.97 65.69 L51.97 48.37 L34.65 48.37 L34.65 65.69 ZM26.77 100.34 L0 100.34 L0 73.57 L26.77 73.57
								 L26.77 100.34 ZM4.72 95.61 L22.05 95.61 L22.05 78.29 L4.72 78.29 L4.72 95.61 ZM56.69 100.34 L29.92
								 100.34 L29.92 73.57 L56.69 73.57 L56.69 100.34 ZM34.65 95.61 L51.97 95.61 L51.97 78.29 L34.65 78.29
								 L34.65 95.61 Z" class="st1"/>
				</g>
				<g id="shape2827-7" transform="translate(34.4882,-29.9213)">
					<title>Sheet.2827</title>
					<path d="M22.2 95.61 L22.2 100.34 L0 100.34 L0 95.61 L22.2 95.61 Z" class="st2"/>
				</g>
				<g id="shape2828-11" transform="translate(-2.79776E-13,-29.9213)">
					<title>Sheet.2828</title>
					<path d="M0 100.34 L0 95.61 L22.2 95.61 L22.2 100.34 L0 100.34 Z" class="st3"/>
				</g>
				<g id="shape2829-15" transform="translate(22.0472,-34.6457)">
					<title>Sheet.2829</title>
					<path d="M0 78.29 L4.72 78.29 L4.72 100.34 L0 100.34 L0 78.29 Z" class="st4"/>
				</g>
				<g id="shape2830-19" transform="translate(29.9213,-34.6457)">
					<title>Sheet.2830</title>
					<path d="M0 78.29 L4.72 78.29 L4.72 100.34 L0 100.34 L0 78.29 Z" class="st4"/>
				</g>
				<g id="shape2831-22" transform="translate(29.9213,2.84217E-13)">
					<title>Sheet.2831</title>
					<path d="M4.72 100.34 L0 100.34 L0 78.29 L4.72 78.29 L4.72 100.34 Z" class="st5"/>
				</g>
				<g id="shape2832-26" transform="translate(22.0472,2.84217E-13)">
					<title>Sheet.2832</title>
					<path d="M4.72 100.34 L0 100.34 L0 78.29 L4.72 78.29 L4.72 100.34 Z" class="st5"/>
				</g>
				<g id="shape2833-29" transform="translate(34.4882,-22.0472)">
					<title>Sheet.2833</title>
					<path d="M22.2 95.61 L22.2 100.34 L0 100.34 L0 95.61 L22.2 95.61 Z" class="st6"/>
				</g>
				<g id="shape2834-33" transform="translate(-2.79776E-13,-22.0472)">
					<title>Sheet.2834</title>
					<path d="M0 100.34 L0 95.61 L22.2 95.61 L22.2 100.34 L0 100.34 Z" class="st7"/>
				</g>
				<g id="shape2835-37" transform="translate(9.44882,-9.44882)">
					<title>Sheet.2835</title>
					<path d="M37.8 81.13 C37.8 76.72 36.54 71.21 34.33 64.75 C33.86 66.01 33.07 67.11 32.44 68.06 C28.82 64.59 24.09
								 62.54 18.9 62.54 C8.5 62.54 0 71.05 0 81.44 C0 91.84 8.5 100.34 18.9 100.34 C29.29 100.34 37.8 91.84
								 37.8 81.44 L37.8 81.13 Z" class="st8"/>
				</g>
				<g id="shape2836-39" transform="translate(13.2283,-13.7008)">
					<title>Sheet.2836</title>
					<path d="M30.39 94.2 C25.67 100.34 15.75 98.29 9.45 98.61 C9.45 98.61 8.35 98.61 7.24 98.76 L8.19 98.45 C12.6
								 96.87 14.8 96.56 17.48 95.14 C22.68 92.47 27.72 86.8 28.66 80.81 C26.77 86.64 20.79 91.52 15.43
								 93.41 C11.81 94.83 5.04 96.09 5.04 96.09 L4.72 95.93 C0.16 93.73 0 83.8 8.19 80.65 C11.81 79.24
								 15.28 80.02 19.21 79.08 C23.46 77.98 28.19 74.99 30.24 70.89 C32.6 77.66 35.12 87.9 30.39 94.2 ZM3.78
								 100.34 A1.5748 1.5748 -180 0 0 3.78 97.19 A1.5748 1.5748 -180 1 0 3.78 100.34 Z" class="st9"/>
				</g>
			</g>
		</g>
	</g>
</svg>
