<?xml version="1.0" encoding="UTF-8" standalone="no"?>
<!DOCTYPE svg PUBLIC "-//W3C//DTD SVG 1.1//EN" "http://www.w3.org/Graphics/SVG/1.1/DTD/svg11.dtd">
<!-- Generated by Microsoft Visio, SVG Export Azure Information Protection.svg Page-1 -->
<svg xmlns="http://www.w3.org/2000/svg" xmlns:xlink="http://www.w3.org/1999/xlink" xmlns:ev="http://www.w3.org/2001/xml-events"
		width="0.768154in" height="1.25984in" viewBox="0 0 55.3071 90.7087" xml:space="preserve" color-interpolation-filters="sRGB"
		class="st6">
	<style type="text/css">
	<![CDATA[
		.st1 {fill:url(#grad0-5);stroke:none;stroke-linecap:butt;stroke-width:0.75}
		.st2 {fill:#50e6ff;stroke:none;stroke-linecap:butt;stroke-width:0.75}
		.st3 {fill:#ffffff;fill-opacity:0.2;stroke:none;stroke-linecap:butt;stroke-width:0.75}
		.st4 {fill:#198ab3;stroke:none;stroke-linecap:butt;stroke-width:0.75}
		.st5 {fill:url(#grad0-15);stroke:none;stroke-linecap:butt;stroke-width:0.75}
		.st6 {fill:none;fill-rule:evenodd;font-size:12px;overflow:visible;stroke-linecap:square;stroke-miterlimit:3}
	]]>
	</style>

	<defs id="Patterns_And_Gradients">
		<linearGradient id="grad0-5" x1="0" y1="0" x2="1" y2="0" gradientTransform="rotate(88.546233687646 0.5 0.5)">
			<stop offset="0.22" stop-color="#32d4f5" stop-opacity="1"/>
			<stop offset="1" stop-color="#198ab3" stop-opacity="1"/>
		</linearGradient>
		<linearGradient id="grad0-15" x1="0" y1="0" x2="1" y2="0" gradientTransform="rotate(-99.914945678475 0.5 0.5)">
			<stop offset="0" stop-color="#cccccc" stop-opacity="1"/>
			<stop offset="1" stop-color="#fcfcfc" stop-opacity="1"/>
		</linearGradient>
	</defs>
	<g>
		<title>Page-1</title>
		<g id="group3053-1" transform="translate(4.53543,-28.3465)">
			<title>Azure Information Protection</title>
			<g id="shape3054-2">
				<title>Sheet.3054</title>
				<path d="M42.95 61.25 L39.6 61.25 L39.6 51.57 A19.4328 18.2485 -180 0 0 34.62 39.26 A16.0212 15.0448 -180 0 0 22.38
							 34.02 A16.0212 15.0448 -180 0 0 10 39.26 A19.1652 17.9973 -180 0 0 5.02 51.57 L5.02 61.25 L2.31 61.25
							 A2.3413 2.19862 -180 0 0 0 63.41 L0 88.54 A2.3413 2.19862 -180 0 0 2.31 90.71 L42.95 90.71 A2.37475
							 2.23003 -180 0 0 45.29 88.54 L45.29 63.41 A2.37475 2.23003 -180 0 0 42.95 61.25 ZM31.67 61.25 L13.08
							 61.25 L13.08 51.42 A10.6362 9.988 0 0 1 15.99 44.66 A8.39523 7.88361 0 0 1 22.28 41.96 A8.49558 7.97784
							 0 0 1 28.6 44.66 A10.6696 10.0194 0 0 1 29.67 46.01 A10.0341 9.42264 0 0 1 31.71 51.38 L31.67 61.25
							 Z" class="st1"/>
			</g>
			<g id="shape3055-6" transform="translate(0.869626,-0.659585)">
				<title>Sheet.3055</title>
				<path d="M42.18 61.91 L1.47 61.91 A2.20751 2.07298 -180 0 0 0 62.44 L43.65 90.71 A2.24096 2.10439 -180 0 0 44.48
							 89.08 L44.48 63.95 A2.37475 2.23003 -180 0 0 42.18 61.91 Z" class="st2"/>
			</g>
			<g id="shape3056-8" transform="translate(0.0668943,-0.659585)">
				<title>Sheet.3056</title>
				<path d="M2.34 61.91 L43.01 61.91 A2.3413 2.19862 0 0 1 44.52 62.44 L0.84 90.71 A2.3413 2.19862 0 0 1 0 89.08 L0
							 63.95 A2.40819 2.26143 0 0 1 2.34 61.91 Z" class="st3"/>
			</g>
			<g id="shape3057-10" transform="translate(9.96725,-5.18245)">
				<title>Sheet.3057</title>
				<path d="M20.8 90.71 L0 80.97 L20.8 71.33 L21.74 73.15 L4.85 80.97 L21.74 88.92 L20.8 90.71 Z" class="st4"/>
			</g>
			<g id="shape3058-12" transform="translate(8.26145,-10.9303)">
				<title>Sheet.3058</title>
				<ellipse cx="4.18089" cy="86.7826" rx="4.18089" ry="3.9261" class="st5"/>
			</g>
			<g id="shape3059-16" transform="translate(26.8915,-19.3478)">
				<title>Sheet.3059</title>
				<ellipse cx="4.18089" cy="86.7826" rx="4.18089" ry="3.9261" class="st5"/>
			</g>
			<g id="shape3060-19" transform="translate(26.8915,-2.16721)">
				<title>Sheet.3060</title>
				<ellipse cx="4.18089" cy="86.7826" rx="4.18089" ry="3.9261" class="st5"/>
			</g>
		</g>
	</g>
</svg>
