<?xml version="1.0" encoding="UTF-8" standalone="no"?>
<!DOCTYPE svg PUBLIC "-//W3C//DTD SVG 1.1//EN" "http://www.w3.org/Graphics/SVG/1.1/DTD/svg11.dtd">
<!-- Generated by Microsoft Visio, SVG Export Azure Board.svg Page-1 -->
<svg xmlns="http://www.w3.org/2000/svg" xmlns:xlink="http://www.w3.org/1999/xlink" xmlns:ev="http://www.w3.org/2001/xml-events"
		width="0.944882in" height="1.25984in" viewBox="0 0 68.0315 90.7087" xml:space="preserve" color-interpolation-filters="sRGB"
		class="st11">
	<style type="text/css">
	<![CDATA[
		.st1 {fill:#00947d;stroke:none;stroke-linecap:butt;stroke-width:0.975404}
		.st2 {fill:#1fc1a7;stroke:none;stroke-linecap:butt;stroke-width:0.975404}
		.st3 {fill:#61ddc9;stroke:none;stroke-linecap:butt;stroke-width:0.975404}
		.st4 {fill:#9bfdec;stroke:none;stroke-linecap:butt;stroke-width:0.975404}
		.st5 {fill:#00b99d;stroke:none;stroke-linecap:butt;stroke-width:0.975404}
		.st6 {fill:#04bca1;stroke:none;stroke-linecap:butt;stroke-width:0.975404}
		.st7 {fill:#1dc0a7;stroke:none;stroke-linecap:butt;stroke-width:0.975404}
		.st8 {fill:#00ba9d;stroke:none;stroke-linecap:butt;stroke-width:0.975404}
		.st9 {fill:#27cfb2;stroke:none;stroke-linecap:butt;stroke-width:0.975404}
		.st10 {fill:#c5fdf4;stroke:none;stroke-linecap:butt;stroke-width:0.975404}
		.st11 {fill:none;fill-rule:evenodd;font-size:12px;overflow:visible;stroke-linecap:square;stroke-miterlimit:3}
	]]>
	</style>

	<g>
		<title>Page-1</title>
		<g id="group3139-1" transform="translate(5.66929,-28.3465)">
			<title>Azure Board</title>
			<g id="group3140-2">
				<title>Page-1</title>
				<g id="group3141-3">
					<title>Azure Board</title>
					<g id="group3142-4" transform="translate(2.8777E-13,-13.9956)">
						<title>path2</title>
						<g id="shape3143-5">
							<title>Sheet.3143</title>
							<path d="M40.18 71.74 C44.42 71.74 48.26 73.33 51.18 75.92 L51.18 50.35 C51.18 49.06 50.14 48.01 48.84
										 48.01 L2.34 48.01 C1.05 48.01 0 49.06 0 50.35 L0 88.37 C0 89.66 1.05 90.71 2.34 90.71 L23.87
										 90.71 C23.75 89.9 23.69 89.07 23.69 88.22 C23.68 79.12 31.07 71.74 40.18 71.74 Z"
									class="st1"/>
						</g>
					</g>
					<g id="group3144-7" transform="translate(4.21168,-45.2124)">
						<title>path4</title>
						<g id="shape3145-8">
							<title>Sheet.3145</title>
							<rect x="0" y="83.5117" width="11.3863" height="7.19697" class="st2"/>
						</g>
					</g>
					<g id="group3146-10" transform="translate(19.865,-45.2124)">
						<title>path6</title>
						<g id="shape3147-11">
							<title>Sheet.3147</title>
							<rect x="0" y="83.5117" width="11.3863" height="7.19697" class="st3"/>
						</g>
					</g>
					<g id="group3148-13" transform="translate(4.21168,-33.8095)">
						<title>path8</title>
						<g id="shape3149-14">
							<title>Sheet.3149</title>
							<rect x="0" y="83.5118" width="11.3863" height="7.19687" class="st4"/>
						</g>
					</g>
					<g id="group3150-16" transform="translate(4.21168,-22.5111)">
						<title>path10</title>
						<g id="shape3151-17">
							<title>Sheet.3151</title>
							<rect x="0" y="83.6168" width="11.3863" height="7.09184" class="st5"/>
						</g>
					</g>
					<g id="group3152-19" transform="translate(19.865,-33.8095)">
						<title>path12</title>
						<g id="shape3153-20">
							<title>Sheet.3153</title>
							<rect x="0" y="83.5118" width="11.3863" height="7.19687" class="st6"/>
						</g>
					</g>
					<g id="group3154-22" transform="translate(35.5508,-45.2124)">
						<title>path14</title>
						<g id="shape3155-23">
							<title>Sheet.3155</title>
							<rect x="0" y="83.5117" width="11.3863" height="7.19697" class="st7"/>
						</g>
					</g>
					<g id="group3156-25" transform="translate(23.6774,-13.9892)">
						<title>path16</title>
						<g id="shape3157-26">
							<title>Sheet.3157</title>
							<path d="M27.5 88.36 L27.5 75.92 C24.59 73.33 20.73 71.74 16.51 71.74 C7.4 71.74 0 79.11 0 88.22 C0 89.07
										 0.06 89.89 0.19 90.71 L25.16 90.71 C26.46 90.7 27.5 89.65 27.5 88.36 Z" class="st8"/>
						</g>
					</g>
					<g id="group3158-28" transform="translate(23.8677,2.84217E-13)">
						<title>path18</title>
						<g id="shape3159-29">
							<title>Sheet.3159</title>
							<path d="M27.31 61.94 L27.31 74.38 C27.31 75.67 26.27 76.72 24.98 76.72 L0 76.72 C1.2 84.64 8.05 90.71
										 16.32 90.71 C25.44 90.7 32.83 83.33 32.83 74.22 C32.83 69.34 30.69 64.95 27.31 61.94 Z"
									class="st9"/>
						</g>
					</g>
					<g id="group3160-31" transform="translate(29.8347,-7.72865)">
						<title>path20</title>
						<g id="shape3161-32">
							<title>Sheet.3161</title>
							<path d="M18.83 73.84 L8.49 84.16 L3.17 78.86 L0 82.03 L5.32 87.34 L8.69 90.71 L11.87 87.53 L22.2 77.21
										 L18.83 73.84 Z" class="st10"/>
						</g>
					</g>
				</g>
			</g>
		</g>
	</g>
</svg>
