<?xml version="1.0" encoding="UTF-8" standalone="no"?>
<!DOCTYPE svg PUBLIC "-//W3C//DTD SVG 1.1//EN" "http://www.w3.org/Graphics/SVG/1.1/DTD/svg11.dtd">
<!-- Generated by Microsoft Visio, SVG Export Azure Database For Mysql.svg Page-1 -->
<svg xmlns="http://www.w3.org/2000/svg" xmlns:xlink="http://www.w3.org/1999/xlink" xmlns:ev="http://www.w3.org/2001/xml-events"
		width="1.535in" height="1.73185in" viewBox="0 0 110.52 124.693" xml:space="preserve" color-interpolation-filters="sRGB"
		class="st6">
	<style type="text/css">
	<![CDATA[
		.st1 {fill:url(#grad0-6);stroke:none;stroke-linecap:butt;stroke-width:34}
		.st2 {fill:#e8e8e8;stroke:none;stroke-linecap:butt;stroke-width:34}
		.st3 {fill:#50e6ff;stroke:none;stroke-linecap:butt;stroke-width:34}
		.st4 {fill:#198ab3;stroke:none;stroke-linecap:butt;stroke-width:34}
		.st5 {fill:#f2f2f2;stroke:none;stroke-linecap:butt;stroke-width:34}
		.st6 {fill:none;fill-rule:evenodd;font-size:12px;overflow:visible;stroke-linecap:square;stroke-miterlimit:3}
	]]>
	</style>

	<defs id="Patterns_And_Gradients">
		<linearGradient id="grad0-6" x1="0" y1="0" x2="1" y2="0" gradientTransform="rotate(0 0.5 0.5)">
			<stop offset="0" stop-color="#005ba1" stop-opacity="1"/>
			<stop offset="0.07" stop-color="#0060a9" stop-opacity="1"/>
			<stop offset="0.36" stop-color="#0071c8" stop-opacity="1"/>
			<stop offset="0.52" stop-color="#0078d4" stop-opacity="1"/>
			<stop offset="0.64" stop-color="#0074cd" stop-opacity="1"/>
			<stop offset="0.82" stop-color="#006abb" stop-opacity="1"/>
			<stop offset="1" stop-color="#005ba1" stop-opacity="1"/>
		</linearGradient>
	</defs>
	<g>
		<title>Page-1</title>
		<g id="group3090-1" transform="translate(34,-34)">
			<title>Azure Database For Mysql</title>
			<g id="group3091-2">
				<title>Icon-databases-122</title>
				<g id="shape3092-3">
					<title>Sheet.3092</title>
					<path d="M21.26 83.47 C9.52 83.47 0 80.14 0 75.74 L0 116.96 C0 121.19 9.35 124.63 20.96 124.69 L21.26 124.69
								 C33 124.69 42.52 121.36 42.52 116.96 L42.52 75.74 C42.52 80.04 33 83.47 21.26 83.47 Z" class="st1"/>
				</g>
				<g id="shape3093-7" transform="translate(0,-41.2191)">
					<title>Sheet.3093</title>
					<path d="M42.52 116.96 C42.52 121.26 33 124.69 21.26 124.69 C9.52 124.69 0 121.36 0 116.96 C0 112.55 9.52 109.22
								 21.26 109.22 C33 109.22 42.52 112.55 42.52 116.96 Z" class="st2"/>
				</g>
				<g id="shape3094-9" transform="translate(4.94184,-44.654)">
					<title>Sheet.3094</title>
					<path d="M32.64 119.76 C32.64 122.49 25.31 124.69 16.32 124.69 C7.33 124.69 0 122.49 0 119.76 C0 117.02 7.33
								 114.86 16.32 114.86 C25.31 114.86 32.64 117.06 32.64 119.76 Z" class="st3"/>
				</g>
				<g id="shape3095-11" transform="translate(8.358,-44.654)">
					<title>Sheet.3095</title>
					<path d="M12.9 120.99 A38.3075 38.5178 -180 0 0 0 122.89 A37.8763 38.0843 -180 0 0 12.9 124.69 A36.9808 37.1839
								 -180 0 0 25.8 122.76 A39.2694 39.4849 -180 0 0 12.9 120.99 Z" class="st4"/>
				</g>
				<g id="shape3096-13" transform="translate(4.8755,-15.107)">
					<title>Sheet.3096</title>
					<path d="M28.46 111.45 L28.46 116.89 L25.14 116.89 A1.2935 1.3006 0 0 1 24.18 116.42 L24.18 111.45 L19.7 111.45
								 L19.7 117.39 A3.05133 3.06809 -180 0 0 23.02 120.36 L27.96 120.36 L28.82 119.92 C28.82 119.92 28.46
								 121.29 27.96 121.36 L20.07 121.36 L20.07 124.69 L28.89 124.69 A4.01317 4.0352 -180 0 0 32.97 120.46
								 L32.97 111.45 L28.46 111.45 ZM18.14 111.45 L18.14 109.82 A2.32167 2.33441 -180 0 0 16.55 107.25
								 A5.771 5.80269 -180 0 0 14.89 106.98 A3.11767 3.13478 -180 0 0 11.87 108.92 L9.29 115.26 L5.97 108.92
								 A3.0845 3.10144 -180 0 0 3.12 106.98 A4.776 4.80222 -180 0 0 1.43 107.28 C0.27 107.65 0 108.42 0
								 109.72 L0 120.76 L3.88 120.76 L3.88 113.32 L5.97 118.56 A3.582 3.60167 -180 0 0 9.29 120.76 C10.75
								 120.76 11.34 119.89 11.94 118.56 L14.16 113.52 L14.16 120.69 L18.08 120.69 L18.08 111.45 L18.14
								 111.45 Z" class="st5"/>
				</g>
			</g>
		</g>
	</g>
</svg>
