<?xml version="1.0" encoding="UTF-8" standalone="no"?>
<!DOCTYPE svg PUBLIC "-//W3C//DTD SVG 1.1//EN" "http://www.w3.org/Graphics/SVG/1.1/DTD/svg11.dtd">
<!-- Generated by Microsoft Visio, SVG Export Azure Active Directory Risky User.svg Page-1 -->
<svg xmlns="http://www.w3.org/2000/svg" xmlns:xlink="http://www.w3.org/1999/xlink" xmlns:ev="http://www.w3.org/2001/xml-events"
		width="0.94513in" height="1.25984in" viewBox="0 0 68.0494 90.7087" xml:space="preserve" color-interpolation-filters="sRGB"
		class="st3">
	<style type="text/css">
	<![CDATA[
		.st1 {fill:#59b4d9;stroke:none;stroke-linecap:butt;stroke-width:0.489491}
		.st2 {fill:#ff8c00;stroke:none;stroke-linecap:butt;stroke-width:0.489491}
		.st3 {fill:none;fill-rule:evenodd;font-size:12px;overflow:visible;stroke-linecap:square;stroke-miterlimit:3}
	]]>
	</style>

	<g>
		<title>Page-1</title>
		<g id="group3309-1" transform="translate(5.66929,-28.3465)">
			<title>Azure-Active-Directory-Risky-User</title>
			<g id="group3310-2">
				<title>g11</title>
				<g id="shape3311-3" transform="translate(9.27171,-33.2026)">
					<title>path5</title>
					<path d="M23.59 78.86 A11.7961 11.7449 0 0 1 11.9 90.71 A11.7961 11.7449 0 0 1 0 79.07 A11.7961 11.7449 0 0 1
								 11.69 67.22 L11.79 67.22 A11.7439 11.6929 0 0 1 23.59 78.86 L23.59 78.86 Z" class="st1"/>
				</g>
				<g id="shape3312-5" transform="translate(28.7179,-0.373819)">
					<title>path7</title>
					<path d="M27.85 87.26 L21.86 77.22 L15.88 66.86 A2.22718 2.21752 -180 0 0 13.99 65.69 A2.22837 2.2187 -180 0
								 0 12.1 66.87 L6.11 76.59 L0.12 87.26 A2.20998 2.20039 -180 0 0 2.01 90.71 L25.96 90.71 A2.20998
								 2.20039 -180 0 0 27.85 87.26 ZM14.3 73.14 L15.88 73.14 L15.25 82.24 L12.73 82.24 L12.41 73.14 L14.3
								 73.14 ZM13.99 86.94 A1.89029 1.88209 0 0 1 12.1 85.06 A1.89029 1.88209 0 0 1 13.99 83.18 A1.89029
								 1.88209 0 0 1 15.88 85.06 A1.89029 1.88209 0 0 1 13.99 86.94 Z" class="st2"/>
				</g>
				<g id="shape3313-7">
					<title>path9</title>
					<path d="M26.69 90.41 A4.57417 4.55433 0 0 1 26.1 88.06 A4.90217 4.88091 0 0 1 26.78 85.7 L32.76 75.06 L32.78
								 75.02 L32.8 74.98 L38.79 65.26 A4.66611 4.64587 0 0 1 42.13 62.99 L42.13 61.3 L29.69 61.3 L21.07
								 73.22 L12.44 61.3 L0 61.3 L0 90.71 L26.88 90.71 C26.82 90.61 26.75 90.52 26.69 90.41 Z"
							class="st1"/>
				</g>
			</g>
		</g>
	</g>
</svg>
