<?xml version="1.0" encoding="UTF-8" standalone="no"?>
<!DOCTYPE svg PUBLIC "-//W3C//DTD SVG 1.1//EN" "http://www.w3.org/Graphics/SVG/1.1/DTD/svg11.dtd">
<!-- Generated by Microsoft Visio, SVG Export Azure Active Directory B2B.svg Page-1 -->
<svg xmlns="http://www.w3.org/2000/svg" xmlns:xlink="http://www.w3.org/1999/xlink" xmlns:ev="http://www.w3.org/2001/xml-events"
		width="0.944882in" height="1.21654in" viewBox="0 0 68.0315 87.5906" xml:space="preserve" color-interpolation-filters="sRGB"
		class="st4">
	<style type="text/css">
	<![CDATA[
		.st1 {fill:#804998;stroke:none;stroke-linecap:butt;stroke-width:5.32174}
		.st2 {fill:#ffffff;stroke:none;stroke-linecap:butt;stroke-width:5.32174}
		.st3 {fill:#59b4d9;stroke:none;stroke-linecap:butt;stroke-width:5.32174}
		.st4 {fill:none;fill-rule:evenodd;font-size:12px;overflow:visible;stroke-linecap:square;stroke-miterlimit:3}
	]]>
	</style>

	<g>
		<title>Page-1</title>
		<g id="group3398-1" transform="translate(5.66929,-28.3465)">
			<title>Azure Active Directory B2B</title>
			<g id="group3399-2">
				<title>g12</title>
				<g id="shape3400-3" transform="translate(-2.83773E-13,-6.11691)">
					<title>circle4</title>
					<ellipse cx="23.346" cy="63.7199" rx="23.346" ry="23.8707" class="st1"/>
				</g>
				<g id="shape3401-5" transform="translate(5.62289,-0.000606655)">
					<title>path6</title>
					<path d="M24.4 49.73 C27.18 51.18 29 54.14 29 57.33 C28.5 57.33 27.71 57.5 27.25 57.33 C26.76 57.14 26.97 57.23
								 26.87 56.47 A6.07263 6.20912 -180 0 0 26.35 54.67 C25.27 52.32 22.84 50.81 20.29 50.99 C17.84 51.16
								 15.66 52.89 14.84 55.25 C14.4 56.54 14.62 57.91 14.22 59.2 A6.28445 6.42569 0 0 1 11.98 62.44 C14.75
								 63.88 16.57 66.85 16.57 70.04 C16.08 70.04 15.27 70.21 14.82 70.04 C14.4 69.87 14.55 70 14.47 69.39
								 C14.38 68.76 14.26 68.16 14.01 67.57 C13.03 65.26 10.76 63.68 8.29 63.68 C5.88 63.68 3.67 65.17
								 2.65 67.38 A6.0489 6.18485 -180 0 0 2.13 69.18 C2.06 69.69 2.2 69.86 1.83 70.04 C1.43 70.23 0.47
								 70.04 0 70.04 C0 66.85 1.82 63.88 4.6 62.44 C1.58 60.16 1.25 55.55 3.9 52.84 C6.55 50.13 11.05 50.47
								 13.29 53.56 A8.53728 8.72917 0 0 1 17.02 49.73 C12.32 46.17 14.86 38.27 20.71 38.27 C26.57 38.27
								 29.11 46.17 24.4 49.73 C25.11 50.1 24.76 49.54 24.4 49.73 ZM8.29 61.56 C13.62 61.56 13.62 53.1 8.29
								 53.09 C2.95 53.09 2.95 61.56 8.29 61.56 ZM16.57 44.62 C16.57 50.08 24.86 50.07 24.86 44.62 C24.85
								 39.17 16.57 39.16 16.57 44.62 ZM19.58 72.64 L34.29 57.59 L48.92 72.54 L34.2 87.59 L19.58 72.64 Z"
							class="st2"/>
				</g>
				<g id="shape3402-7" transform="translate(33.0746,-9.70345)">
					<title>path8</title>
					<path d="M8.01 75.41 C7.8 75.52 7.7 75.52 7.38 75.62 L7.38 86.73 C7.7 86.84 8.12 87.05 8.44 87.38 L13.29 83.39
								 C13.18 83.17 13.18 82.74 13.18 82.42 C13.18 82.09 13.29 81.55 13.39 81.23 L8.01 75.41 ZM0 81.23
								 C0.21 81.55 0.32 82.09 0.32 82.52 C0.32 82.85 0.21 83.28 0.11 83.6 L4.96 87.59 C5.17 87.38 5.59
								 87.16 5.9 86.94 L5.9 75.62 C5.69 75.52 5.59 75.52 5.48 75.41 L0 81.23 Z" class="st3"/>
				</g>
				<g id="shape3403-9" transform="translate(22.9526,1.42109E-14)">
					<title>path10</title>
					<path d="M16.87 53.09 L0 73.58 L16.87 87.59 L33.74 73.58 L16.87 53.09 ZM26.04 75.62 C25.41 75.62 24.88 75.41
								 24.36 74.98 L19.51 79.07 C19.61 79.29 19.61 79.51 19.61 79.83 C19.61 81.34 18.45 82.63 16.87 82.63
								 C15.29 82.63 14.13 81.45 14.13 79.83 C14.13 79.61 14.13 79.4 14.23 79.18 L9.07 75.08 C8.65 75.41
								 8.12 75.52 7.59 75.52 C6.12 75.52 4.85 74.33 4.85 72.71 C4.85 71.2 6.01 69.91 7.59 69.91 C8.01 69.91
								 8.44 70.02 8.86 70.23 L14.23 64.2 C14.13 63.87 14.02 63.44 14.02 63.01 C14.02 61.5 15.18 60.21 16.77
								 60.21 C18.35 60.21 19.51 61.39 19.51 63.01 C19.51 63.44 19.4 63.98 19.19 64.3 L24.46 70.34 C24.88
								 70.13 25.41 70.02 25.83 70.02 C27.31 70.02 28.57 71.2 28.57 72.82 C28.68 74.44 27.41 75.62 26.04
								 75.62 Z" class="st3"/>
				</g>
			</g>
		</g>
	</g>
</svg>
