<?xml version="1.0" encoding="UTF-8" standalone="no"?>
<!DOCTYPE svg PUBLIC "-//W3C//DTD SVG 1.1//EN" "http://www.w3.org/Graphics/SVG/1.1/DTD/svg11.dtd">
<!-- Generated by Microsoft Visio, SVG Export Azure Data Explorer Cluster.svg Page-1 -->
<svg xmlns="http://www.w3.org/2000/svg" xmlns:xlink="http://www.w3.org/1999/xlink" xmlns:ev="http://www.w3.org/2001/xml-events"
		width="1.06575in" height="1.32277in" viewBox="0 0 76.7338 95.2394" xml:space="preserve" color-interpolation-filters="sRGB"
		class="st6">
	<style type="text/css">
	<![CDATA[
		.st1 {fill:#0078d4;stroke:none;stroke-linecap:butt;stroke-width:10.2}
		.st2 {fill:#b8d432;stroke:none;stroke-linecap:butt;stroke-width:10.2}
		.st3 {fill:#59b4d9;stroke:none;stroke-linecap:butt;stroke-width:10.2}
		.st4 {fill:#ffffff;fill-opacity:0.2;stroke:none;stroke-linecap:butt;stroke-width:10.2}
		.st5 {fill:#ffffff;stroke:none;stroke-linecap:butt;stroke-width:10.2}
		.st6 {fill:none;fill-rule:evenodd;font-size:12px;overflow:visible;stroke-linecap:square;stroke-miterlimit:3}
	]]>
	</style>

	<g>
		<title>Page-1</title>
		<g id="group3104-1" transform="translate(9.84087,-28.3465)">
			<title>Azure Data Explorer Cluster</title>
			<g id="group3105-2">
				<title> 1- Icon - Query 60x60 Color</title>
				<g id="shape3106-3" transform="translate(0.35913,-0.367252)">
					<title>Sheet.3106</title>
					<path d="M56.33 38.91 L0 38.91 L56.33 95.24 L56.33 38.91 Z" class="st1"/>
				</g>
				<g id="shape3107-5" transform="translate(-63.3673,27.8965) rotate(-45)">
					<title>Sheet.3107</title>
					<path d="M-0 94.36 a0.883522 0.883395 -180 0 0 0.883501 0.883374 L30.17 95.24 a0.883522 0.883395 -180 0 0 0.883501
								 -0.883374 L31.05 90.5 a0.883522 0.883395 -180 0 0 -0.883501 -0.883374 L0.88 89.62 a0.883522 0.883395
								 -180 0 0 -0.883501 0.883374 L0 94.36 Z" class="st2"/>
				</g>
				<g id="shape3108-7" transform="translate(-63.3564,11.9469) rotate(-45)">
					<title>Sheet.3108</title>
					<path d="M0 94.36 a0.883522 0.883395 -180 0 0 0.883501 0.883374 L18.95 95.24 a0.883522 0.883395 -180 0 0 0.883501
								 -0.883374 L19.84 90.5 a0.883522 0.883395 -180 0 0 -0.883501 -0.883374 L0.88 89.62 a0.883522 0.883395
								 -180 0 0 -0.883501 0.883374 L0 94.36 Z" class="st2"/>
				</g>
				<g id="shape3109-9" transform="translate(17.0217,-17.0274)">
					<title>Sheet.3109</title>
					<path d="M0 72.23 L23.01 95.24 L39.67 78.58 L39.67 55.57 L16.66 55.57 L0 72.23 Z" class="st3"/>
				</g>
				<g id="shape3110-11" transform="translate(-47.5411,27.8786) rotate(-45)">
					<title>Sheet.3110</title>
					<path d="M0 94.36 a0.883522 0.883395 -180 0 0 0.883501 0.883374 L18.95 95.24 a0.883522 0.883395 -180 0 0 0.883501
								 -0.883374 L19.84 90.5 a0.883522 0.883395 -180 0 0 -0.883501 -0.883374 L0.88 89.62 a0.883522 0.883395
								 -180 0 0 -0.883501 0.883374 L0 94.36 Z" class="st2"/>
				</g>
				<g id="shape3111-13" transform="translate(28.526,-0.367252)">
					<title>Sheet.3111</title>
					<path d="M28.17 95.24 L28.17 38.91 L0 67.08 L28.17 95.24 Z" class="st4"/>
				</g>
				<g id="shape3112-15" transform="translate(-35.5522,-7.92378) rotate(-45)">
					<title>Sheet.3112</title>
					<path d="M0 93.99 A1.25158 1.2514 -180 0 0 1.25 95.24 L4.37 95.24 A1.25158 1.2514 -180 0 0 5.62 93.99 L5.62 90.87
								 A1.25158 1.2514 -180 0 0 4.37 89.62 L1.25 89.62 A1.25158 1.2514 -180 0 0 0 90.87 L0 93.99 Z"
							class="st5"/>
				</g>
				<g id="shape3113-17" transform="translate(-27.5963,-15.8772) rotate(-45)">
					<title>Sheet.3113</title>
					<path d="M0 93.99 A1.25158 1.2514 -180 0 0 1.25 95.24 L4.37 95.24 A1.25158 1.2514 -180 0 0 5.62 93.99 L5.62 90.87
								 A1.25158 1.2514 -180 0 0 4.37 89.62 L1.25 89.62 A1.25158 1.2514 -180 0 0 0 90.87 L0 93.99 Z"
							class="st5"/>
				</g>
				<g id="shape3114-19" transform="translate(-27.597,0.030347) rotate(-45)">
					<title>Sheet.3114</title>
					<path d="M0 93.99 A1.25158 1.2514 -180 0 0 1.25 95.24 L4.37 95.24 A1.25158 1.2514 -180 0 0 5.62 93.99 L5.62 90.87
								 A1.25158 1.2514 -180 0 0 4.37 89.62 L1.25 89.62 A1.25158 1.2514 -180 0 0 0 90.87 L0 93.99 Z"
							class="st5"/>
				</g>
				<g id="shape3115-21" transform="translate(-19.6424,-7.92311) rotate(-45)">
					<title>Sheet.3115</title>
					<path d="M0 93.99 A1.25158 1.2514 -180 0 0 1.25 95.24 L4.37 95.24 A1.25158 1.2514 -180 0 0 5.62 93.99 L5.62 90.87
								 A1.25158 1.2514 -180 0 0 4.37 89.62 L1.25 89.62 A1.25158 1.2514 -180 0 0 0 90.87 L0 93.99 Z"
							class="st5"/>
				</g>
			</g>
		</g>
	</g>
</svg>
