<?xml version="1.0" encoding="UTF-8" standalone="no"?>
<!DOCTYPE svg PUBLIC "-//W3C//DTD SVG 1.1//EN" "http://www.w3.org/Graphics/SVG/1.1/DTD/svg11.dtd">
<!-- Generated by Microsoft Visio, SVG Export Azure Blueprint.svg Page-1 -->
<svg xmlns="http://www.w3.org/2000/svg" xmlns:xlink="http://www.w3.org/1999/xlink" xmlns:ev="http://www.w3.org/2001/xml-events"
		width="0.944882in" height="1.25984in" viewBox="0 0 68.0315 90.7087" xml:space="preserve" color-interpolation-filters="sRGB"
		class="st4">
	<style type="text/css">
	<![CDATA[
		.st1 {fill:#59b4d9;stroke:none;stroke-linecap:butt;stroke-width:0.966948}
		.st2 {fill:#ffffff;fill-opacity:0.7;stroke:none;stroke-linecap:butt;stroke-width:0.966948}
		.st3 {fill:#0072c6;stroke:none;stroke-linecap:butt;stroke-width:0.966948}
		.st4 {fill:none;fill-rule:evenodd;font-size:12px;overflow:visible;stroke-linecap:square;stroke-miterlimit:3}
	]]>
	</style>

	<g>
		<title>Page-1</title>
		<g id="group3162-1" transform="translate(5.66929,-28.3465)">
			<title>Azure Blueprint</title>
			<g id="group3163-2">
				<title>g20</title>
				<g id="shape3164-3" transform="translate(1.1811,-1.16844)">
					<title>path4</title>
					<path d="M48.9 90.59 C48.33 90.59 48.91 90.71 48.43 90.59 L48.43 84.47 L5.91 84.47 C5.66 84.47 0 84.41 0 79.52
								 L0 41.24 C0 37.92 2.76 36.42 5.31 36.42 C7.87 36.42 10.63 37.93 10.63 41.24 L10.63 42.47 L43.82
								 42.47 C50.21 42.47 54.33 44.49 54.33 51.24 L54.33 86.94 C54.33 89.71 51.94 90.59 48.9 90.59 Z"
							class="st1"/>
				</g>
				<g id="shape3165-5" transform="translate(1.1811,-1.16844)">
					<title>path6</title>
					<path d="M48.9 90.59 C48.33 90.59 48.91 90.71 48.43 90.59 L48.43 84.47 L5.91 84.47 C5.66 84.47 0 84.41 0 79.52
								 L0 41.24 C0 37.92 2.76 36.42 5.31 36.42 C7.87 36.42 10.63 37.93 10.63 41.24 L10.63 42.47 L43.82
								 42.47 C50.21 42.47 54.33 44.49 54.33 51.24 L54.33 86.94 C54.33 89.71 51.94 90.59 48.9 90.59 Z"
							class="st2"/>
				</g>
				<g id="shape3166-7">
					<title>path8</title>
					<path d="M45 40.07 L12.99 40.07 C12.99 36.36 10.04 34.02 6.5 34.02 C2.95 34.02 0 36.36 0 40.07 L0 77.12 C0 83.3
								 3.54 84.53 7.09 84.53 L48.43 84.53 L48.43 90.71 C48.43 90.71 56.69 90.71 56.69 84.53 L56.69 50.07
								 C56.69 42.66 53.15 40.07 45 40.07 ZM54.33 84.78 C54.33 84.78 51.97 82.06 47.36 82.06 L7.09 82.06
								 C4.72 82.06 2.36 81.45 2.36 77.74 C2.36 75.64 3.9 73.42 7.09 73.42 C10.63 73.42 12.87 77.12 12.87
								 77.12 L12.99 77.12 L12.99 42.54 L46.18 42.54 C50.91 42.54 54.33 43.9 54.33 48.84 L54.33 84.78 Z"
							class="st3"/>
				</g>
				<g id="shape3167-9" transform="translate(25.9843,-14.8822)">
					<title>path10</title>
					<path d="M15.35 85.77 L17.13 90.71 L18.9 85.77 L15.35 85.77 ZM15.35 68.48 L18.9 68.48 L18.9 83.3 L15.35 83.3
								 L15.35 68.48 ZM17.13 62.43 C18.1 62.43 18.9 63.22 18.9 64.21 L18.87 66.01 L15.35 65.97 L15.35 64.21
								 C15.35 63.22 16.15 62.43 17.13 62.43 ZM1.18 61.19 C1.83 61.19 2.36 61.99 2.36 62.98 L2.34 64.77
								 L0 64.74 L0 62.97 C0 61.99 0.53 61.19 1.18 61.19 Z" class="st3"/>
				</g>
				<g id="shape3168-11" transform="translate(22.5591,-32.2964)">
					<title>path12</title>
					<path d="M4.61 81.07 A4.6063 4.81704 -180 1 0 4.61 90.71 A4.6063 4.81704 -180 0 0 4.61 81.07 ZM4.61 89.47 C2.72
								 89.47 1.18 87.87 1.18 85.89 C1.18 83.92 2.72 82.31 4.61 82.31 C6.49 82.31 8.03 83.92 8.03 85.89
								 C8.03 87.87 6.49 89.47 4.61 89.47 Z" class="st3"/>
				</g>
				<g id="shape3169-13" transform="translate(19.8791,-13.9138)">
					<title>path14</title>
					<path d="M7.29 71.11 L7.29 68.74 L5.08 70.36 L0.34 85.63 L0 90.71 L2.58 86.39 L2.58 86.39 L7.33 71.12 L7.29 71.11
								 Z" class="st3"/>
				</g>
				<g id="shape3170-15" transform="translate(27.124,-13.9138)">
					<title>path16</title>
					<path d="M6.99 85.63 L2.25 70.36 L0.04 68.74 L0.04 71.11 L0 71.12 L4.74 86.39 L4.75 86.39 L7.33 90.71 L6.99 85.63
								 Z" class="st3"/>
				</g>
				<g id="shape3171-17" transform="translate(17.126,-24.7621)">
					<title>path18</title>
					<path d="M19.49 90.71 L0.59 90.71 a0.590551 0.61757 0 1 1 -8.32667E-15 -1.23514 L19.49 89.47 a0.590551 0.61757
								 0 0 1 0 1.23514 Z" class="st3"/>
				</g>
			</g>
		</g>
	</g>
</svg>
