<?xml version="1.0" encoding="UTF-8" standalone="no"?>
<!DOCTYPE svg PUBLIC "-//W3C//DTD SVG 1.1//EN" "http://www.w3.org/Graphics/SVG/1.1/DTD/svg11.dtd">
<!-- Generated by Microsoft Visio, SVG Export Azure Pipelines.svg Page-1 -->
<svg xmlns="http://www.w3.org/2000/svg" xmlns:xlink="http://www.w3.org/1999/xlink" xmlns:ev="http://www.w3.org/2001/xml-events"
		width="0.944882in" height="1.25984in" viewBox="0 0 68.0315 90.7087" xml:space="preserve" color-interpolation-filters="sRGB"
		class="st8">
	<style type="text/css">
	<![CDATA[
		.st1 {fill:#235dc1;stroke:none;stroke-linecap:butt;stroke-width:0.75}
		.st2 {fill:#3b6ec6;stroke:none;stroke-linecap:butt;stroke-width:0.75}
		.st3 {fill:#5d8de4;stroke:none;stroke-linecap:butt;stroke-width:0.75}
		.st4 {fill:#9fbbf0;stroke:none;stroke-linecap:butt;stroke-width:0.75}
		.st5 {fill:#adc5f2;stroke:none;stroke-linecap:butt;stroke-width:0.75}
		.st6 {fill:#6c9aee;stroke:none;stroke-linecap:butt;stroke-width:0.75}
		.st7 {fill:#88acef;stroke:none;stroke-linecap:butt;stroke-width:0.75}
		.st8 {fill:none;fill-rule:evenodd;font-size:12px;overflow:visible;stroke-linecap:square;stroke-miterlimit:3}
	]]>
	</style>

	<g>
		<title>Page-1</title>
		<g id="group2852-1" transform="translate(5.66929,-28.3465)">
			<title>Azure Pipelines</title>
			<g id="shape2853-2" transform="translate(19.2795,-0.059247)">
				<title>path2</title>
				<path d="M0.27 83.02 L7.95 90.71 L20.42 90.71 C21.94 90.71 23.16 89.47 23.16 87.96 L23.16 59.13 L0.27 82.06 C0 82.32
							 0 82.75 0.27 83.02 Z" class="st1"/>
			</g>
			<g id="shape2854-4" transform="translate(-2.8777E-13,-19.365)">
				<title>path4</title>
				<path d="M0 70.26 L0 82.75 L7.68 90.44 C7.95 90.71 8.38 90.71 8.63 90.44 L31.53 67.5 L2.74 67.5 C1.24 67.5 0 68.74
							 0 70.26 Z" class="st2"/>
			</g>
			<g id="shape2855-6" transform="translate(9.71102,-9.62716)">
				<title>path6</title>
				<path d="M19.11 46.54 L0.62 74.87 C0 75.84 0.13 77.1 0.94 77.91 L12.78 89.77 C13.59 90.58 14.87 90.71 15.82 90.08
							 L44.1 71.56 C45.9 70.38 46.98 68.36 46.98 66.21 L46.98 46.46 C46.98 44.91 45.72 43.64 44.17 43.64 L24.46
							 43.64 C22.31 43.64 20.3 44.74 19.11 46.54 Z" class="st3"/>
			</g>
			<g id="shape2856-8">
				<title>path8</title>
				<path d="M4.16 86.76 L4.16 76.75 L0 76.75 L0 90.71 L14.16 90.71 L14.16 86.76 L4.16 86.76 Z" class="st4"/>
			</g>
			<g id="shape2857-10" transform="translate(35.4632,-35.7069)">
				<title>path10</title>
				<path d="M7.04 90.71 C10.93 90.71 14.08 87.55 14.08 83.66 C14.08 79.76 10.93 76.6 7.04 76.6 C3.15 76.6 0 79.76 0
							 83.66 C0 87.55 3.15 90.71 7.04 90.71 Z" class="st5"/>
			</g>
			<g id="shape2858-12" transform="translate(14.8407,-14.7498)">
				<title>path12</title>
				<path d="M15.06 72.15 L0 87.23 L3.47 90.71 L18.53 75.63 L15.06 72.15 Z" class="st6"/>
			</g>
			<g id="shape2859-14" transform="translate(11.8415,-11.7494)">
				<title>path14</title>
				<path d="M3.47 90.71 L6.47 87.71 L2.99 84.23 L0 87.23 L3.47 90.71 Z" class="st7"/>
			</g>
		</g>
	</g>
</svg>
