<?xml version="1.0" encoding="UTF-8" standalone="no"?>
<!DOCTYPE svg PUBLIC "-//W3C//DTD SVG 1.1//EN" "http://www.w3.org/Graphics/SVG/1.1/DTD/svg11.dtd">
<!-- Generated by Microsoft Visio, SVG Export Azure Active Directory Identity Secure Score.svg Page-1 -->
<svg xmlns="http://www.w3.org/2000/svg" xmlns:xlink="http://www.w3.org/1999/xlink" xmlns:ev="http://www.w3.org/2001/xml-events"
		width="1.05049in" height="1.3511in" viewBox="0 0 75.6355 97.2794" xml:space="preserve" color-interpolation-filters="sRGB"
		class="st6">
	<style type="text/css">
	<![CDATA[
		.st1 {fill:#ff8c00;stroke:none;stroke-linecap:butt;stroke-width:12.24}
		.st2 {fill:#dd5900;fill-opacity:0.6;stroke:none;stroke-linecap:butt;stroke-width:12.24}
		.st3 {fill:#fcd116;stroke:none;stroke-linecap:butt;stroke-width:12.24}
		.st4 {fill:#dd5900;fill-opacity:0.4;stroke:none;stroke-linecap:butt;stroke-width:12.24}
		.st5 {fill:#dd5900;fill-opacity:0.3;stroke:none;stroke-linecap:butt;stroke-width:12.24}
		.st6 {fill:none;fill-rule:evenodd;font-size:12px;overflow:visible;stroke-linecap:square;stroke-miterlimit:3}
	]]>
	</style>

	<g>
		<title>Page-1</title>
		<g id="group3335-1" transform="translate(10.8887,-28.3465)">
			<title>Azure Active Directory Identity Secure Score</title>
			<g id="group3336-2">
				<title>Sheet.3336</title>
				<g id="shape3337-3" transform="translate(0,-28.3465)">
					<title>Sheet.3337</title>
					<path d="M47.26 74.84 L6.6 74.84 C2.34 74.84 0 79.56 2.18 83.11 C4.36 86.65 6.82 93.52 6.82 93.52 C7.65 95.77
								 10.45 97.28 12.93 97.28 L40.92 97.28 C43.41 97.28 46.21 95.77 47.03 93.52 C47.03 93.52 49.5 86.65
								 51.68 83.11 C53.86 79.56 51.52 74.84 47.26 74.84 ZM48.69 81.24 C46.35 85.05 43.84 92.02 43.73 92.32
								 C43.42 93.16 42.53 93.74 41.51 93.74 L12.35 93.74 C11.33 93.74 10.43 93.16 10.12 92.3 C10.02 92.02
								 7.51 85.05 5.17 81.24 A1.933 1.95 0 0 1 5.11 79.25 C5.33 78.85 5.76 78.38 6.6 78.38 L47.26 78.38
								 C48.1 78.38 48.53 78.85 48.75 79.25 C48.88 79.48 49.26 80.32 48.69 81.24 Z" class="st1"/>
				</g>
				<g id="shape3338-5" transform="translate(29.2702,-28.3465)">
					<title>Sheet.3338</title>
					<path d="M17.99 74.84 L0 74.84 L0 78.38 L17.99 78.38 C18.82 78.38 19.26 78.85 19.48 79.25 C19.61 79.48 19.99
								 80.32 19.42 81.24 C17.07 85.05 14.56 92.02 14.46 92.32 C14.15 93.16 13.26 93.74 12.24 93.74 L0 93.74
								 L0 97.28 L11.65 97.28 C14.14 97.28 16.94 95.77 17.76 93.52 C17.76 93.52 20.23 86.65 22.41 83.11
								 C24.59 79.56 22.25 74.84 17.99 74.84 Z" class="st2"/>
				</g>
				<g id="shape3339-7" transform="translate(22.2453,-10.6299)">
					<title>Sheet.3339</title>
					<rect x="0" y="84.2872" width="9.36645" height="12.9921" class="st3"/>
				</g>
				<g id="shape3340-9" transform="translate(26.9285,-10.6299)">
					<title>Sheet.3340</title>
					<rect x="0" y="84.2872" width="4.68323" height="12.9921" class="st4"/>
				</g>
				<g id="shape3341-11" transform="translate(11.4903,-2.70006E-13)">
					<title>Sheet.3341</title>
					<path d="M30.58 95.81 L28.41 88.17 C27.71 86.54 27.12 85.47 25.25 85.47 L5.63 85.47 C3.76 85.47 3.16 86.54 2.47
								 88.17 L0.3 95.81 C0 96.51 0.55 97.28 1.36 97.28 L29.51 97.28 C30.32 97.28 30.88 96.51 30.58 95.81
								 Z" class="st1"/>
				</g>
				<g id="shape3342-13" transform="translate(26.9285,-2.70006E-13)">
					<title>Sheet.3342</title>
					<path d="M15.14 95.81 L12.97 88.17 C12.28 86.54 11.68 85.47 9.81 85.47 L0 85.47 L0 97.28 L14.08 97.28 C14.88
								 97.28 15.44 96.51 15.14 95.81 Z" class="st2"/>
				</g>
				<g id="shape3343-15" transform="translate(22.2453,-18.8976)">
					<title>Sheet.3343</title>
					<path d="M0 95.97 C1.43 96.8 3.02 97.28 4.68 97.28 C6.35 97.28 7.94 96.8 9.37 95.98 L9.37 92.55 L0 92.55 L0 95.97
								 Z" class="st4"/>
				</g>
				<g id="shape3344-17" transform="translate(10.2422,-21.2598)">
					<title>Sheet.3344</title>
					<path d="M31.27 61.85 L2.02 61.85 C0 61.85 0.11 64.19 0.58 64.73 C1.06 65.28 4.49 69.61 4.49 85.14 C4.49 91.8
								 10.12 97.28 16.64 97.28 C23.23 97.28 28.8 91.79 28.8 85.14 C28.8 69.61 32.1 65.34 32.7 64.73 C33.3
								 64.13 33.41 61.85 31.27 61.85 Z" class="st3"/>
				</g>
				<g id="shape3345-19" transform="translate(26.9285,-21.2622)">
					<title>Sheet.3345</title>
					<path d="M0 97.28 C6.56 97.25 12.11 91.78 12.11 85.14 C12.11 69.61 15.42 65.34 16.02 64.74 C16.61 64.13 16.73
								 61.85 14.58 61.85 L0 61.85 L0 97.28 Z" class="st5"/>
				</g>
			</g>
		</g>
	</g>
</svg>
