<?xml version="1.0" encoding="UTF-8" standalone="no"?>
<!DOCTYPE svg PUBLIC "-//W3C//DTD SVG 1.1//EN" "http://www.w3.org/Graphics/SVG/1.1/DTD/svg11.dtd">
<!-- Generated by Microsoft Visio, SVG Export Azure Database Migration Service.svg Page-1 -->
<svg xmlns="http://www.w3.org/2000/svg" xmlns:xlink="http://www.w3.org/1999/xlink" xmlns:ev="http://www.w3.org/2001/xml-events"
		width="1.68515in" height="1.72462in" viewBox="0 0 121.331 124.173" xml:space="preserve" color-interpolation-filters="sRGB"
		class="st8">
	<style type="text/css">
	<![CDATA[
		.st1 {fill:url(#grad0-6);stroke:none;stroke-linecap:butt;stroke-width:33.7362}
		.st2 {fill:url(#grad0-10);stroke:none;stroke-linecap:butt;stroke-width:33.7362}
		.st3 {fill:#e8e8e8}
		.st4 {stroke:none;stroke-linecap:butt;stroke-width:33.7362}
		.st5 {fill:#50e6ff}
		.st6 {fill:#32bedd;stroke:none;stroke-linecap:butt;stroke-width:33.7362}
		.st7 {fill:#f2f2f2;stroke:none;stroke-linecap:butt;stroke-width:33.7362}
		.st8 {fill:none;fill-rule:evenodd;font-size:12px;overflow:visible;stroke-linecap:square;stroke-miterlimit:3}
	]]>
	</style>

	<defs id="Patterns_And_Gradients">
		<linearGradient id="grad0-6" x1="0" y1="0" x2="1" y2="0" gradientTransform="rotate(-90 0.5 0.5)">
			<stop offset="0" stop-color="#0078d4" stop-opacity="1"/>
			<stop offset="0.16" stop-color="#1380da" stop-opacity="1"/>
			<stop offset="0.53" stop-color="#3c91e5" stop-opacity="1"/>
			<stop offset="0.82" stop-color="#559cec" stop-opacity="1"/>
			<stop offset="1" stop-color="#5ea0ef" stop-opacity="1"/>
		</linearGradient>
		<linearGradient id="grad0-10" x1="0" y1="0" x2="1" y2="0" gradientTransform="rotate(0 0.5 0.5)">
			<stop offset="0" stop-color="#32bedd" stop-opacity="1"/>
			<stop offset="0.06" stop-color="#37c5e3" stop-opacity="1"/>
			<stop offset="0.3" stop-color="#49ddf7" stop-opacity="1"/>
			<stop offset="0.45" stop-color="#50e6ff" stop-opacity="1"/>
			<stop offset="0.55" stop-color="#50e6ff" stop-opacity="1"/>
			<stop offset="0.7" stop-color="#49ddf7" stop-opacity="1"/>
			<stop offset="0.94" stop-color="#37c5e3" stop-opacity="1"/>
			<stop offset="1" stop-color="#32bedd" stop-opacity="1"/>
		</linearGradient>
	</defs>
	<g>
		<title>Page-1</title>
		<g id="group3075-1" transform="translate(33.7362,-33.7362)">
			<title>Azure Database Migration Service</title>
			<g id="group3076-2">
				<title>g18</title>
				<g id="shape3077-3" transform="translate(0,-19.3495)">
					<title>path34</title>
					<path d="M53.86 112.44 A12.1505 11.8722 -180 0 0 43.35 101.07 A15.2223 14.8736 -180 0 0 27.65 86.83 A15.6319
								 15.2737 -180 0 0 12.7 96.83 A14.4373 14.1065 -180 0 0 -0 110.37 A14.6762 14.34 -180 0 0 15.15 124.15
								 L16.49 124.15 L41.06 124.15 A1.97958 1.93423 -180 0 0 41.71 124.15 A12.2529 11.9722 -180 0 0 53.86
								 112.44 Z" class="st1"/>
				</g>
				<g id="shape3078-7" transform="translate(12.6625,0)">
					<title>path36</title>
					<path d="M14.27 100.53 C6.42 100.53 0 98.53 0 96.09 L0 119.74 C0 122.17 6.31 124.14 14.1 124.17 L14.27 124.17
								 C22.15 124.17 28.53 122.17 28.53 119.74 L28.53 96.09 C28.67 98.53 22.29 100.53 14.27 100.53 Z"
							class="st2"/>
				</g>
				<g id="shape3079-11" transform="translate(12.799,-23.6443)">
					<title>path38</title>
					<path d="M28.53 119.74 C28.53 122.17 22.15 124.17 14.27 124.17 C6.38 124.17 0 122.17 0 119.74 C0 117.3 6.42 115.3
								 14.13 115.3 C21.84 115.3 28.4 117.27 28.4 119.74 L28.53 119.74 Z" class="st3"/>
					<path d="M28.53 119.74 C28.53 122.17 22.15 124.17 14.27 124.17 C6.38 124.17 0 122.17 0 119.74 C0 117.3 6.42 115.3
								 14.13 115.3 C21.84 115.3 28.4 117.27 28.4 119.74" class="st4"/>
				</g>
				<g id="shape3080-14" transform="translate(16.1438,-25.5118)">
					<title>path40</title>
					<path d="M21.88 121.34 C21.88 122.91 16.96 124.17 10.92 124.17 C4.88 124.17 0 122.81 0 121.34 C0 119.87 4.91
								 118.4 10.79 118.4 C16.66 118.4 21.74 119.67 21.74 121.24 L21.88 121.34 Z" class="st5"/>
					<path d="M21.88 121.34 C21.88 122.91 16.96 124.17 10.92 124.17 C4.88 124.17 0 122.81 0 121.34 C0 119.87 4.91
								 118.4 10.79 118.4 C16.66 118.4 21.74 119.67 21.74 121.24" class="st4"/>
				</g>
				<g id="shape3081-17" transform="translate(18.2941,-25.6119)">
					<title>path42</title>
					<path d="M8.64 122.01 A29.25 28.5799 -180 0 0 0 123.07 A28.6015 27.9463 -180 0 0 8.64 124.17 A28.6698 28.013
								 -180 0 0 17.3 123.07 A29.3183 28.6466 -180 0 0 8.64 122.01 Z" class="st6"/>
				</g>
				<g id="shape3082-19" transform="translate(17.6009,-29.3469)">
					<title>path44</title>
					<path d="M0.04 111.83 L8.88 103.16 A1.05805 1.03381 0 0 1 10.39 103.16 L19.23 111.83 a0.47783 0.466883 0 0 1
								 -0.341308 0.767022 L13.46 112.6 a0.47783 0.466883 -180 0 0 -0.477832 0.466883 L12.98 123.81 a0.341307
								 0.333488 0 0 1 -0.238917 0.366838 L6.67 124.17 a0.341307 0.333488 0 0 1 -0.375439 -0.366838 L6.29
								 113.03 a0.47783 0.466883 -180 0 0 -0.375436 -0.466883 L0.39 112.57 a0.47783 0.466883 0 0 1 -0.341307
								 -0.733673 Z" class="st7"/>
				</g>
			</g>
		</g>
	</g>
</svg>
