<?xml version="1.0" encoding="UTF-8" standalone="no"?>
<!DOCTYPE svg PUBLIC "-//W3C//DTD SVG 1.1//EN" "http://www.w3.org/Graphics/SVG/1.1/DTD/svg11.dtd">
<!-- Generated by Microsoft Visio, SVG Export Azure Lighthouse Service Provider.svg Page-1 -->
<svg xmlns="http://www.w3.org/2000/svg" xmlns:xlink="http://www.w3.org/1999/xlink" xmlns:ev="http://www.w3.org/2001/xml-events"
		width="0.944882in" height="1.25984in" viewBox="0 0 68.0315 90.7087" xml:space="preserve" color-interpolation-filters="sRGB"
		class="st5">
	<style type="text/css">
	<![CDATA[
		.st1 {fill:url(#grad0-5);stroke:none;stroke-linecap:butt;stroke-width:2.52454}
		.st2 {fill:#ffffff;fill-opacity:0.8;stroke:none;stroke-linecap:butt;stroke-width:2.52454}
		.st3 {fill:url(#grad0-11);stroke:none;stroke-linecap:butt;stroke-width:2.52454}
		.st4 {fill:url(#grad0-15);stroke:none;stroke-linecap:butt;stroke-width:2.52454}
		.st5 {fill:none;fill-rule:evenodd;font-size:12px;overflow:visible;stroke-linecap:square;stroke-miterlimit:3}
	]]>
	</style>

	<defs id="Patterns_And_Gradients">
		<linearGradient id="grad0-5" x1="0" y1="0" x2="1" y2="0" gradientTransform="rotate(90 0.5 0.5)">
			<stop offset="0.1" stop-color="#54aef0" stop-opacity="1"/>
			<stop offset="1" stop-color="#1988d9" stop-opacity="1"/>
		</linearGradient>
		<linearGradient id="grad0-11" x1="0" y1="0" x2="1" y2="0" gradientTransform="rotate(85.417782300505 0.5 0.5)">
			<stop offset="0.1" stop-color="#54aef0" stop-opacity="1"/>
			<stop offset="1" stop-color="#1988d9" stop-opacity="1"/>
		</linearGradient>
		<linearGradient id="grad0-15" x1="0" y1="0" x2="1" y2="0" gradientTransform="rotate(-90 0.5 0.5)">
			<stop offset="0" stop-color="#76bc2d" stop-opacity="1"/>
			<stop offset="0.6" stop-color="#81ce31" stop-opacity="1"/>
			<stop offset="0.82" stop-color="#86d633" stop-opacity="1"/>
		</linearGradient>
	</defs>
	<g>
		<title>Page-1</title>
		<g id="group2909-1" transform="translate(5.66929,-28.3465)">
			<title>Azure-Lighthouse-Service-Provider</title>
			<g id="shape2910-2" transform="translate(2.79776E-13,-5.89759)">
				<title>path23</title>
				<path d="M29.73 72.06 A1.65693 1.61708 0 0 1 31.38 70.45 L40.9 70.45 A21.2152 20.705 -180 0 0 23.65 62.74 C9.1 62.74
							 1.46 71.65 0 86.21 A4.19105 4.09026 -180 0 0 3.77 90.71 L29.76 90.71 L29.73 72.06 Z" class="st1"/>
			</g>
			<g id="shape2911-6" transform="translate(16.4718,-14.744)">
				<title>path25</title>
				<path d="M7.18 74.66 A13.2879 12.9683 0 0 1 -0 72.6 L7.12 90.71 L14.17 72.7 A12.9955 12.683 0 0 1 7.18 74.66 Z"
						class="st2"/>
			</g>
			<g id="shape2912-8" transform="translate(10.3964,-30.8196)">
				<title>circle27</title>
				<ellipse cx="13.2554" cy="77.772" rx="13.2554" ry="12.9366" class="st3"/>
			</g>
			<g id="shape2913-12" transform="translate(31.3842,0)">
				<title>path29</title>
				<path d="M8.87 83.29 L16.47 83.29 L16.47 90.71 L8.87 90.71 L8.87 83.29 ZM0 73.4 L7.6 73.4 L7.6 65.98 L1.1 65.98 A1.07213
							 1.04635 -180 0 0 0.03 67.02 L0 73.4 ZM1.07 90.71 L7.57 90.71 L7.57 83.29 L0 83.29 L0 89.63 A1.07213
							 1.04635 -180 0 0 1.07 90.71 ZM0 82.05 L7.6 82.05 L7.6 74.7 L0 74.7 L0 82.05 ZM17.71 90.71 L24.2 90.71
							 A1.03964 1.01464 -180 0 0 25.24 89.66 L25.24 83.32 L17.71 83.32 L17.71 90.71 ZM8.87 82.05 L16.47 82.05
							 L16.47 74.7 L8.87 74.7 L8.87 82.05 ZM17.71 82.05 L25.31 82.05 L25.31 74.7 L17.71 74.7 L17.71 82.05 ZM17.71
							 65.98 L17.71 73.4 L25.31 73.4 L25.31 67.05 A1.03964 1.01464 -180 0 0 24.27 66.01 L17.71 65.98 ZM8.87
							 73.4 L16.47 73.4 L16.47 65.98 L8.87 65.98 L8.87 73.4 Z" class="st4"/>
			</g>
		</g>
	</g>
</svg>
