<?xml version="1.0" encoding="UTF-8" standalone="no"?>
<!DOCTYPE svg PUBLIC "-//W3C//DTD SVG 1.1//EN" "http://www.w3.org/Graphics/SVG/1.1/DTD/svg11.dtd">
<!-- Generated by Microsoft Visio, SVG Export Azure Stack Update.svg Page-1 -->
<svg xmlns="http://www.w3.org/2000/svg" xmlns:xlink="http://www.w3.org/1999/xlink" xmlns:ev="http://www.w3.org/2001/xml-events"
		width="0.944882in" height="1.25984in" viewBox="0 0 68.0315 90.7087" xml:space="preserve" color-interpolation-filters="sRGB"
		class="st6">
	<style type="text/css">
	<![CDATA[
		.st1 {fill:#0078d4;stroke:none;stroke-linecap:butt;stroke-width:0.75}
		.st2 {fill:#f2f2f2;stroke:none;stroke-linecap:butt;stroke-width:0.75}
		.st3 {fill:#50e6ff;stroke:none;stroke-linecap:butt;stroke-width:0.75}
		.st4 {fill:#32bedd;stroke:none;stroke-linecap:butt;stroke-width:0.75}
		.st5 {fill:url(#grad0-16);stroke:none;stroke-linecap:butt;stroke-width:0.75}
		.st6 {fill:none;fill-rule:evenodd;font-size:12px;overflow:visible;stroke-linecap:square;stroke-miterlimit:3}
	]]>
	</style>

	<defs id="Patterns_And_Gradients">
		<linearGradient id="grad0-16" x1="0" y1="0" x2="1" y2="0" gradientTransform="rotate(91.06188994431 0.5 0.5)">
			<stop offset="0" stop-color="#9cebff" stop-opacity="1"/>
			<stop offset="1" stop-color="#50e6ff" stop-opacity="1"/>
		</linearGradient>
	</defs>
	<g>
		<title>Page-1</title>
		<g id="group2770-1" transform="translate(5.66929,-28.3465)">
			<title>Azure Stack Update</title>
			<g id="group2771-2">
				<title>Sheet.2771</title>
				<g id="shape2772-3" transform="translate(17.6673,-12.0326)">
					<title>Sheet.2772</title>
					<path d="M23.94 46.05 L1.48 46.05 A1.44393 1.45949 -180 0 0 0.03 47.51 L0.03 80.59 A28.2369 28.5411 0 0 1 3.66
								 77.9 L7.93 77.9 L10.3 81.14 L10.3 86.14 L7.32 90.16 L3.21 89.61 L0 88.34 L0 89.22 A1.44393 1.45949
								 -180 0 0 1.44 90.71 L23.91 90.71 A1.44393 1.45949 -180 0 0 25.35 89.22 L25.35 47.51 A1.44393 1.45949
								 -180 0 0 23.94 46.05 Z" class="st1"/>
				</g>
				<g id="shape2773-5" transform="translate(20.7156,-34.4763)">
					<title>ad507295-c076-421c-9034-1cdfff6</title>
					<path d="M0.35 74.36 L4.52 74.36 a0.352961 0.356763 0 0 1 0.385048 0.356763 L4.91 80.23 a0.385048 0.389196 0
								 0 1 -0.385048 0.389196 L0.35 80.62 a0.352961 0.356763 0 0 1 -0.352961 -0.389196 L0 74.72 a0.352961
								 0.356763 0 0 1 0.352961 -0.356763 ZM7.73 74.36 L11.87 74.36 a0.352961 0.356763 0 0 1 0.352961 0.356763
								 L12.23 80.23 a0.352961 0.356763 0 0 1 -0.352961 0.389196 L7.73 80.62 a0.352961 0.356763 0 0 1 -0.352961
								 -0.389196 L7.38 74.72 a0.352961 0.356763 0 0 1 0.352961 -0.356763 ZM15.02 74.36 L19.12 74.36 a0.352961
								 0.356763 0 0 1 0.352961 0.356763 L19.48 80.23 a0.352961 0.356763 0 0 1 -0.352961 0.389196 L14.89
								 80.62 a0.385048 0.389196 0 0 1 -0.385048 -0.389196 L14.5 74.72 a0.352961 0.356763 0 0 1 0.385048
								 -0.356763 L15.02 74.36 ZM0.35 84.38 L4.52 84.38 a0.352961 0.356763 0 0 1 0.385048 0.356763 L4.91
								 90.35 a0.352961 0.356763 0 0 1 -0.385048 0.291897 L0.35 90.64 a0.352961 0.356763 0 0 1 -0.352961
								 -0.291897 L0 84.74 a0.352961 0.356763 0 0 1 0.352961 -0.356763 ZM7.73 84.38 L11.87 84.38 a0.352961
								 0.356763 0 0 1 0.352961 0.356763 L12.23 90.35 a0.352961 0.356763 0 0 1 -0.352961 0.356763 L7.73
								 90.71 a0.352961 0.356763 0 0 1 -0.48131 -0.356763 L7.25 84.74 a0.352961 0.356763 0 0 1 0.48131 -0.356763
								 ZM15.02 84.38 L19.12 84.38 a0.352961 0.356763 0 0 1 0.352961 0.356763 L19.48 90.35 a0.352961 0.356763
								 0 0 1 -0.352961 0.356763 L14.89 90.71 a0.352961 0.356763 0 0 1 -0.385048 -0.356763 L14.5 84.74 a0.352961
								 0.356763 0 0 1 0.385048 -0.356763 L15.02 84.38 Z" class="st2"/>
				</g>
				<g id="shape2774-7" transform="translate(7.49565,-16.5205)">
					<title>Sheet.2774</title>
					<path d="M14.92 85.53 A3.20874 3.2433 -180 0 0 11.71 88 L0.19 88 A9.85082 9.95694 -180 0 0 0 89.72 L0 89.88 L11.71
								 89.88 A3.20874 3.2433 -180 1 0 14.92 85.53 Z" class="st3"/>
				</g>
				<g id="shape2775-9" transform="translate(7.68817,-9.8272)">
					<title>Sheet.2775</title>
					<path d="M23.58 77.38 A8.47106 8.56232 -180 0 0 14.98 69.11 A8.56733 8.65962 -180 0 0 6.77 74.88 A8.24645 8.33529
								 -180 0 0 0.35 80.2 L10.81 80.2 A4.39597 4.44332 0 0 1 14.73 77.74 A4.52432 4.57306 0 1 1 10.81 84.22
								 L0 84.22 A8.18228 8.27042 -180 0 0 8.12 90.71 L22.3 90.71 L22.69 90.71 A6.57791 6.64877 -180 0 0
								 23.58 77.44 L23.58 77.38 Z" class="st4"/>
				</g>
				<g id="shape2776-11" transform="translate(0,-16.4881)">
					<title>Sheet.2776</title>
					<path d="M22.42 85.5 A3.20874 3.2433 -180 0 0 19.21 87.96 L7.69 87.96 A6.16077 6.22714 0 0 1 6.5 87.8 A5.90407
								 5.96768 0 0 1 7.14 76.03 L7.69 76.03 L7.88 75.48 A6.41747 6.4866 0 0 1 14.3 71.07 A6.67417 6.74607
								 0 0 1 20.14 74.31 A9.27325 9.37314 0 0 1 22.03 74.12 A8.53524 8.62718 -180 0 0 14.17 69.12 A8.43898
								 8.52988 -180 0 0 6.34 74.28 A7.76514 7.84879 -180 0 0 5.67 89.55 A4.84519 4.89739 -180 0 0 7.56
								 89.88 L19.21 89.88 A3.20874 3.2433 -180 1 0 22.42 85.53 L22.42 85.5 Z" class="st3"/>
				</g>
				<g id="shape2777-13" transform="translate(25.0841,0)">
					<title>Sheet.2777</title>
					<path d="M0.16 69.79 L14.6 55.19 A1.73272 1.75138 0 0 1 17.03 55.19 L31.44 69.79 a0.770097 0.778392 0 0 1 -0.545485
								 1.32975 L22.17 71.12 a0.770097 0.778392 -180 0 0 -0.770097 0.778392 L21.4 90.09 a0.60966 0.616227
								 0 0 1 -0.60966 0.616227 L11.16 90.71 a0.577572 0.583794 0 0 1 -0.60966 -0.616227 L10.55 71.9 a0.770097
								 0.778392 -180 0 0 -0.770097 -0.778392 L0.83 71.12 a0.770097 0.778392 0 0 1 -0.673835 -1.32975 Z"
							class="st5"/>
				</g>
			</g>
		</g>
	</g>
</svg>
