<?xml version="1.0" encoding="UTF-8" standalone="no"?>
<!DOCTYPE svg PUBLIC "-//W3C//DTD SVG 1.1//EN" "http://www.w3.org/Graphics/SVG/1.1/DTD/svg11.dtd">
<!-- Generated by Microsoft Visio, SVG Export Azure Blockchain Service.svg Page-1 -->
<svg xmlns="http://www.w3.org/2000/svg" xmlns:xlink="http://www.w3.org/1999/xlink" xmlns:ev="http://www.w3.org/2001/xml-events"
		width="1.73185in" height="1.73185in" viewBox="0 0 124.693 124.693" xml:space="preserve" color-interpolation-filters="sRGB"
		class="st6">
	<style type="text/css">
	<![CDATA[
		.st1 {fill:#773adc;stroke:none;stroke-linecap:butt;stroke-width:34}
		.st2 {fill:#552f99;stroke:none;stroke-linecap:butt;stroke-width:34}
		.st3 {fill:#a67af4;stroke:none;stroke-linecap:butt;stroke-width:34}
		.st4 {fill:#32bedd;stroke:none;stroke-linecap:butt;stroke-width:34}
		.st5 {fill:#b796f9;stroke:none;stroke-linecap:butt;stroke-width:34}
		.st6 {fill:none;fill-rule:evenodd;font-size:12px;overflow:visible;stroke-linecap:square;stroke-miterlimit:3}
	]]>
	</style>

	<g>
		<title>Page-1</title>
		<g id="group3172-1" transform="translate(34,-34)">
			<title>Azure Blockchain Service</title>
			<g id="group3173-2">
				<title>Sheet.3173</title>
				<g id="shape3174-3" transform="translate(28.9134,-27.4238)">
					<title>Sheet.3174</title>
					<path d="M12.44 102.74 L12.44 117.38 L0 124.69 L0 110.06 L12.44 102.74 Z" class="st1"/>
				</g>
				<g id="shape3175-5" transform="translate(32.9134,-33.7867)">
					<title>Sheet.3175</title>
					<path d="M3.15 116.42 C4.88 115.4 6.3 116.2 6.3 118.2 A6.86614 6.9355 0 0 1 3.15 123.67 C1.42 124.69 0 123.9
								 0 121.86 A6.83465 6.90368 0 0 1 3.15 116.42 Z" class="st2"/>
				</g>
				<g id="shape3176-7" transform="translate(12.4409,-0.0636284)">
					<title>Sheet.3176</title>
					<path d="M12.44 102.74 L12.44 117.38 L0 124.69 L0 110.06 L12.44 102.74 Z" class="st1"/>
				</g>
				<g id="shape3177-9" transform="translate(15.4961,-5.66293)">
					<title>Sheet.3177</title>
					<path d="M3.15 116.39 C4.88 115.43 6.3 116.2 6.3 118.2 A6.92913 6.99913 0 0 1 3.15 123.67 C1.42 124.69 0 123.87
								 0 121.86 A6.92913 6.99913 0 0 1 3.15 116.39 Z" class="st2"/>
				</g>
				<g id="shape3178-11" transform="translate(0,-0.0636284)">
					<title>Sheet.3178</title>
					<path d="M12.44 110.06 L12.44 124.69 L0 117.38 L0 102.74 L12.44 110.06 Z" class="st3"/>
				</g>
				<g id="shape3179-13" transform="translate(44.252,-0.0636284)">
					<title>Sheet.3179</title>
					<path d="M12.44 102.74 L12.44 117.38 L0 124.69 L0 110.06 L12.44 102.74 Z" class="st1"/>
				</g>
				<g id="shape3180-15" transform="translate(35.3228,-27.4557)">
					<title>Sheet.3180</title>
					<path d="M0.9 114.86 A13.1339 13.2665 0 0 1 8.36 123.17 L8.99 122.85 L12.14 124.69 A16.4094 16.5752 -180 0 0
								 2.22 111.78 A1.70203 1.71922 -180 1 0 0.93 114.96 L0.9 114.86 Z" class="st4"/>
				</g>
				<g id="shape3181-17" transform="translate(31.811,0)">
					<title>Sheet.3181</title>
					<path d="M12.44 110.06 L12.44 124.69 L0 117.38 L0 102.68 L12.44 109.99 L12.44 110.06 Z" class="st3"/>
				</g>
				<g id="shape3182-19" transform="translate(35.4646,-5.88563)">
					<title>Sheet.3182</title>
					<path d="M2.96 116.83 C1.32 115.88 0 116.68 0 118.55 A6.55118 6.61735 -180 0 0 2.96 123.74 C4.6 124.69 5.92 123.93
								 5.92 122.02 A6.55118 6.61735 -180 0 0 2.96 116.83 Z" class="st2"/>
				</g>
				<g id="shape3183-21" transform="translate(18.4456,-5.79019)">
					<title>Sheet.3183</title>
					<path d="M10.53 124.69 A17.1969 17.3706 0 0 1 0.52 121.51 A1.73228 1.74978 0 1 1 2.53 118.68 A13.7323 13.871
								 -180 0 0 17.68 119.25 A1.73943 1.757 0 0 1 19.51 122.24 A17.4488 17.6251 0 0 1 10.53 124.69 Z"
							class="st4"/>
				</g>
				<g id="shape3184-23" transform="translate(16.5039,-42.0584)">
					<title>Sheet.3184</title>
					<path d="M24.85 117.38 L12.47 124.69 L0 117.38 L12.47 110.06 L24.88 117.38 L24.85 117.38 Z" class="st5"/>
				</g>
				<g id="shape3185-25" transform="translate(9.07087,-27.4238)">
					<title>Sheet.3185</title>
					<path d="M7.43 111.97 A16.5354 16.7025 -180 0 0 0 124.69 L3.53 122.78 L3.53 122.94 A13.2283 13.362 0 0 1 7.43
								 116.36 L7.43 111.97 Z" class="st4"/>
				</g>
				<g id="shape3186-27" transform="translate(0,-14.6982)">
					<title>Sheet.3186</title>
					<path d="M56.69 117.38 L44.25 124.69 L31.81 117.38 L44.25 110.06 L56.69 117.38 ZM24.88 117.38 L12.44 124.69 L0
								 117.38 L12.44 110.06 L24.88 117.38 Z" class="st5"/>
				</g>
				<g id="shape3187-29" transform="translate(16.5039,-27.4238)">
					<title>Sheet.3187</title>
					<path d="M12.41 110.06 L12.41 124.69 L0 117.38 L0 102.74 L12.41 110.06 Z" class="st3"/>
				</g>
			</g>
		</g>
	</g>
</svg>
