<?xml version="1.0" encoding="UTF-8" standalone="no"?>
<!DOCTYPE svg PUBLIC "-//W3C//DTD SVG 1.1//EN" "http://www.w3.org/Graphics/SVG/1.1/DTD/svg11.dtd">
<!-- Generated by Microsoft Visio, SVG Export Azure Artifact.svg Page-1 -->
<svg xmlns="http://www.w3.org/2000/svg" xmlns:xlink="http://www.w3.org/1999/xlink" xmlns:ev="http://www.w3.org/2001/xml-events"
		width="0.944882in" height="1.25984in" viewBox="0 0 68.0315 90.7087" xml:space="preserve" color-interpolation-filters="sRGB"
		class="st10">
	<style type="text/css">
	<![CDATA[
		.st1 {fill:#b41055;stroke:none;stroke-linecap:butt;stroke-width:0.978813}
		.st2 {fill:#e86299;stroke:none;stroke-linecap:butt;stroke-width:0.978813}
		.st3 {fill:#f173a7;stroke:none;stroke-linecap:butt;stroke-width:0.978813}
		.st4 {fill:#c12664;stroke:none;stroke-linecap:butt;stroke-width:0.978813}
		.st5 {fill:#cf3071;stroke:none;stroke-linecap:butt;stroke-width:0.978813}
		.st6 {fill:#b5205c;stroke:none;stroke-linecap:butt;stroke-width:0.978813}
		.st7 {fill:#fe90be;stroke:none;stroke-linecap:butt;stroke-width:0.978813}
		.st8 {fill:#cb2e6f;stroke:none;stroke-linecap:butt;stroke-width:0.978813}
		.st9 {fill:#900740;stroke:none;stroke-linecap:butt;stroke-width:0.978813}
		.st10 {fill:none;fill-rule:evenodd;font-size:12px;overflow:visible;stroke-linecap:square;stroke-miterlimit:3}
	]]>
	</style>

	<g>
		<title>Page-1</title>
		<g id="group3243-1" transform="translate(5.66929,-28.3465)">
			<title>Azure Artifact</title>
			<g id="shape3244-2">
				<title>path2</title>
				<path d="M21.44 90.71 L2.47 90.71 C1.11 90.71 0 89.59 0 88.22 L0 64.84 C0 63.46 1.11 62.36 2.47 62.36 L21.44 62.36
							 L21.44 90.71 Z" class="st1"/>
			</g>
			<g id="shape3245-4" transform="translate(46.2286,-2.84217E-13)">
				<title>path4</title>
				<path d="M8.04 90.71 L0 90.71 L0 62.36 L8.04 62.36 C9.37 62.36 10.46 63.45 10.46 64.79 L10.46 88.28 C10.46 89.62
							 9.37 90.71 8.04 90.71 Z" class="st2"/>
			</g>
			<g id="shape3246-6" transform="translate(18.9943,-2.84217E-13)">
				<title>path6</title>
				<path d="M2.62 90.71 L28.33 90.71 L28.33 62.36 L0 62.36 L0 88.08 C0 89.52 1.17 90.71 2.62 90.71 Z" class="st3"/>
			</g>
			<g id="shape3247-8" transform="translate(9.6794,-28.3465)">
				<title>path8</title>
				<path d="M35.07 62.36 L2.54 62.36 C1.14 62.36 0 63.5 0 64.91 L0 90.71 L37.62 90.71 L37.62 64.91 C37.62 63.5 36.48
							 62.36 35.07 62.36 Z" class="st4"/>
			</g>
			<g id="shape3248-10" transform="translate(9.6794,-28.3465)">
				<title>path10</title>
				<path d="M28.18 62.36 L2.54 62.36 C1.14 62.36 0 63.5 0 64.91 L0 90.71 L28.18 90.71 L28.18 62.36 Z" class="st5"/>
			</g>
			<g id="shape3249-12" transform="translate(18.9713,-47.3139)">
				<title>path12</title>
				<path d="M7.27 90.71 L2.34 90.71 C1.05 90.71 0 89.65 0 88.36 C0 87.07 1.05 86.02 2.34 86.02 L7.27 86.02 C8.55 86.02
							 9.61 87.07 9.61 88.36 C9.61 89.65 8.57 90.71 7.27 90.71 Z" class="st6"/>
			</g>
			<g id="shape3250-14" transform="translate(23.774,-9.42625)">
				<title>path14</title>
				<rect x="0" y="88.3054" width="14.0266" height="2.4033" class="st7"/>
			</g>
			<g id="shape3251-16" transform="translate(23.774,-4.65342)">
				<title>path16</title>
				<rect x="0" y="88.3054" width="7.98004" height="2.40331" class="st7"/>
			</g>
			<g id="shape3252-18" transform="translate(28.4062,-18.8283)">
				<title>path18</title>
				<path d="M7.11 90.71 L2.44 90.71 C1.09 90.71 0 89.62 0 88.27 C0 86.92 1.09 85.83 2.44 85.83 L7.11 85.83 C8.46 85.83
							 9.55 86.92 9.55 88.27 C9.55 89.62 8.46 90.71 7.11 90.71 Z" class="st8"/>
			</g>
			<g id="shape3253-20" transform="translate(9.38413,-18.8283)">
				<title>path20</title>
				<path d="M7.11 90.71 L2.44 90.71 C1.09 90.71 0 89.62 0 88.27 C0 86.92 1.09 85.83 2.44 85.83 L7.11 85.83 C8.46 85.83
							 9.55 86.92 9.55 88.27 C9.55 89.62 8.46 90.71 7.11 90.71 Z" class="st9"/>
			</g>
		</g>
	</g>
</svg>
