<?xml version="1.0" encoding="UTF-8" standalone="no"?>
<!DOCTYPE svg PUBLIC "-//W3C//DTD SVG 1.1//EN" "http://www.w3.org/Graphics/SVG/1.1/DTD/svg11.dtd">
<!-- Generated by Microsoft Visio, SVG Export Azure Role Based Access Control.svg Page-1 -->
<svg xmlns="http://www.w3.org/2000/svg" xmlns:xlink="http://www.w3.org/1999/xlink" xmlns:ev="http://www.w3.org/2001/xml-events"
		width="0.944882in" height="1.25984in" viewBox="0 0 68.0315 90.7087" xml:space="preserve" color-interpolation-filters="sRGB"
		class="st2">
	<style type="text/css">
	<![CDATA[
		.st1 {fill:#58b4d9;stroke:none;stroke-linecap:butt;stroke-width:1.15109}
		.st2 {fill:none;fill-rule:evenodd;font-size:12px;overflow:visible;stroke-linecap:square;stroke-miterlimit:3}
	]]>
	</style>

	<g>
		<title>Page-1</title>
		<g id="group2837-1" transform="translate(5.66929,-28.3465)">
			<title>Azure Role Based Access Control</title>
			<g id="group2838-2">
				<title>paths</title>
				<g id="group2839-3">
					<title>Microsoft_account</title>
					<g id="group2840-4">
						<title>group1068-2156_1_</title>
						<g id="group2841-5">
							<title>Sheet.2841</title>
							<g id="shape2842-6">
								<title>path5</title>
								<path d="M56.69 67.84 L28.42 34.02 L0 67.69 L28.28 90.71 L56.69 67.84 ZM24.76 79.48 L24.76 65.17
											 C22.09 63.77 20.4 60.96 20.4 57.59 C20.4 52.96 23.92 49.17 28.28 49.17 C32.64 49.17
											 36.15 52.96 36.15 57.59 C36.15 60.82 34.33 63.77 31.79 65.03 L31.79 67.84 L31.65 67.98
											 L28.98 70.78 L31.79 73.73 L31.79 73.87 L29.26 76.68 L31.65 79.34 L28.14 82.99 L24.76
											 79.48 Z" class="st1"/>
							</g>
						</g>
						<g id="group2843-8" transform="translate(25.4776,-32.4349)">
							<title>Sheet.2843</title>
							<g id="shape2844-9">
								<title>path10</title>
								<path d="M5.77 87.76 C5.77 86.36 4.08 85.24 2.81 85.24 C1.41 85.24 0 86.22 0 87.62 C0 89.02 1.41
											 90.57 2.81 90.57 C4.08 90.71 5.77 89.31 5.77 87.76 Z" class="st1"/>
							</g>
						</g>
					</g>
				</g>
			</g>
		</g>
	</g>
</svg>
