<?xml version="1.0" encoding="UTF-8" standalone="no"?>
<!DOCTYPE svg PUBLIC "-//W3C//DTD SVG 1.1//EN" "http://www.w3.org/Graphics/SVG/1.1/DTD/svg11.dtd">
<!-- Generated by Microsoft Visio, SVG Export Azure Active Directory Identity Protection.svg Page-1 -->
<svg xmlns="http://www.w3.org/2000/svg" xmlns:xlink="http://www.w3.org/1999/xlink" xmlns:ev="http://www.w3.org/2001/xml-events"
		width="1.69273in" height="1.73185in" viewBox="0 0 121.877 124.693" xml:space="preserve" color-interpolation-filters="sRGB"
		class="st6">
	<style type="text/css">
	<![CDATA[
		.st1 {fill:url(#grad0-6);stroke:none;stroke-linecap:butt;stroke-width:34}
		.st2 {fill:#ffffff;fill-opacity:0.8;stroke:none;stroke-linecap:butt;stroke-width:34}
		.st3 {fill:#dfa500;stroke:none;stroke-linecap:butt;stroke-width:34}
		.st4 {fill:url(#grad0-17);stroke:none;stroke-linecap:butt;stroke-width:34}
		.st5 {fill:#ffd400;stroke:none;stroke-linecap:butt;stroke-width:34}
		.st6 {fill:none;fill-rule:evenodd;font-size:12px;overflow:visible;stroke-linecap:square;stroke-miterlimit:3}
	]]>
	</style>

	<defs id="Patterns_And_Gradients">
		<linearGradient id="grad0-6" x1="0" y1="0" x2="1" y2="0" gradientTransform="rotate(90 0.5 0.5)">
			<stop offset="0.1" stop-color="#54aef0" stop-opacity="1"/>
			<stop offset="1" stop-color="#1988d9" stop-opacity="1"/>
		</linearGradient>
		<linearGradient id="grad0-17" x1="0" y1="0" x2="1" y2="0" gradientTransform="rotate(90 0.5 0.5)">
			<stop offset="0" stop-color="#ffd70f" stop-opacity="1"/>
			<stop offset="0.12" stop-color="#ffcc11" stop-opacity="1"/>
			<stop offset="0.44" stop-color="#feb517" stop-opacity="1"/>
			<stop offset="0.75" stop-color="#fea61a" stop-opacity="1"/>
			<stop offset="1" stop-color="#fea11b" stop-opacity="1"/>
		</linearGradient>
	</defs>
	<g>
		<title>Page-1</title>
		<g id="group3346-1" transform="translate(34.0182,-34)">
			<title>Azure Active Directory Identity Protection</title>
			<g id="group3347-2">
				<title>Artboard 1</title>
				<g id="shape3348-3" transform="translate(0,-4.77882)">
					<title>Sheet.3348</title>
					<path d="M43.55 124.69 A4.21368 4.17113 -180 0 0 47.8 120.56 A2.53292 2.50735 -180 0 0 47.8 120.06 C46.14 106.72
								 38.53 96.12 24.22 96.12 C9.9 96.12 1.62 105.22 0 120.09 A4.27767 4.23448 -180 0 0 3.81 124.69 L43.55
								 124.69 Z" class="st1"/>
				</g>
				<g id="shape3349-7" transform="translate(16.8412,-13.8146)">
					<title>Sheet.3349</title>
					<path d="M7.17 108.29 A13.2743 13.1402 0 0 1 0 106.15 L7.07 124.69 L14.21 106.29 A13.473 13.337 0 0 1 7.17 108.29
								 Z" class="st2"/>
				</g>
				<g id="shape3350-9" transform="translate(10.6437,-30.2191)">
					<title>Sheet.3350</title>
					<ellipse cx="13.3719" cy="111.456" rx="13.3719" ry="13.2369" class="st1"/>
				</g>
				<g id="shape3351-12" transform="translate(30.2839,0)">
					<title>Sheet.3351</title>
					<path d="M23.57 109.53 C23.57 117.22 14.64 123.97 12.2 124.64 A1.50561 1.4904 0 0 1 11.37 124.64 C8.94 123.97
								 0 117.2 0 109.53 L0 100.3 a0.700595 0.693522 0 0 1 0.609653 -0.766875 a0.673649 0.666848 0 0 1 0.165044
								 -2.84217E-14 C8.03 99.28 6.47 96.2 11.65 96.2 C16.83 96.2 15.28 99.28 22.53 99.53 a0.700595 0.693522
								 0 0 1 0.778065 0.600163 a0.673649 0.666848 0 0 1 -4.26326E-14 0.163378 L23.57 109.53 Z"
							class="st3"/>
				</g>
				<g id="shape3352-14" transform="translate(31.3247,-1.05781)">
					<title>Sheet.3352</title>
					<path d="M10.62 111.62 L10.62 98.67 C15.54 98.67 13.98 101.36 20.72 101.61 a0.828589 0.820223 0 0 1 0.774697
								 0.770209 L21.5 111.36 L10.62 111.62 ZM10.62 111.62 L0 111.62 C0.52 118.28 8.55 123.41 10.36 124.44
								 L10.88 124.69 L10.62 111.62 Z" class="st4"/>
				</g>
				<g id="shape3353-18" transform="translate(31.3247,-14.1347)">
					<title>Sheet.3353</title>
					<path d="M0.52 114.79 C7.25 114.53 5.7 111.74 10.62 111.74 L10.62 124.69 L0 124.69 L0 115.42 C0 114.92 0.26 114.79
								 0.52 114.79 Z" class="st5"/>
				</g>
				<g id="shape3354-20" transform="translate(41.9414,-1.05781)">
					<title>Sheet.3354</title>
					<path d="M10.88 111.36 L0 111.62 L0.26 124.69 C2.07 123.41 10.1 118.02 10.88 111.36 Z" class="st5"/>
				</g>
			</g>
		</g>
	</g>
</svg>
