<?xml version="1.0" encoding="UTF-8" standalone="no"?>
<!DOCTYPE svg PUBLIC "-//W3C//DTD SVG 1.1//EN" "http://www.w3.org/Graphics/SVG/1.1/DTD/svg11.dtd">
<!-- Generated by Microsoft Visio, SVG Export Azure Active Directory Authentication Method.svg Page-1 -->
<svg xmlns="http://www.w3.org/2000/svg" xmlns:xlink="http://www.w3.org/1999/xlink" xmlns:ev="http://www.w3.org/2001/xml-events"
		width="1.73185in" height="1.69248in" viewBox="0 0 124.693 121.858" xml:space="preserve" color-interpolation-filters="sRGB"
		class="st9">
	<style type="text/css">
	<![CDATA[
		.st1 {fill:#50e6ff;stroke:none;stroke-linecap:butt;stroke-width:34}
		.st2 {fill:#ffffff;stroke:none;stroke-linecap:butt;stroke-width:34}
		.st3 {fill:url(#grad0-12);stroke:none;stroke-linecap:butt;stroke-width:34}
		.st4 {fill:#53b1e0;stroke:none;stroke-linecap:butt;stroke-width:34}
		.st5 {fill:#9cebff;stroke:none;stroke-linecap:butt;stroke-width:34}
		.st6 {fill:url(#grad0-20);stroke:none;stroke-linecap:butt;stroke-width:34}
		.st7 {fill:#ffca00;stroke:none;stroke-linecap:butt;stroke-width:34}
		.st8 {fill:#ff9300;fill-opacity:0.75;stroke:none;stroke-linecap:butt;stroke-width:34}
		.st9 {fill:none;fill-rule:evenodd;font-size:12px;overflow:visible;stroke-linecap:square;stroke-miterlimit:3}
	]]>
	</style>

	<defs id="Patterns_And_Gradients">
		<linearGradient id="grad0-12" x1="0" y1="0" x2="1" y2="0" gradientTransform="rotate(-133.50152230549 0.5 0.5)">
			<stop offset="0" stop-color="#1988d9" stop-opacity="1"/>
			<stop offset="0.9" stop-color="#54aef0" stop-opacity="1"/>
		</linearGradient>
		<linearGradient id="grad0-20" x1="0" y1="0" x2="1" y2="0" gradientTransform="rotate(65.832309755673 0.5 0.5)">
			<stop offset="0.1" stop-color="#54aef0" stop-opacity="1"/>
			<stop offset="0.29" stop-color="#4fabee" stop-opacity="1"/>
			<stop offset="0.51" stop-color="#41a2e9" stop-opacity="1"/>
			<stop offset="0.74" stop-color="#2a93e0" stop-opacity="1"/>
			<stop offset="0.88" stop-color="#1988d9" stop-opacity="1"/>
		</linearGradient>
	</defs>
	<g>
		<title>Page-1</title>
		<g id="group3404-1" transform="translate(34,-34)">
			<title>Azure Active Directory Authentication Method</title>
			<g id="group3405-2">
				<title>Icon-identity-227</title>
				<g id="shape3406-3" transform="translate(0,-2.82519)">
					<title>Sheet.3406</title>
					<path d="M3.2 100.03 L28.12 116.03 L53.49 100 L56.69 103.64 L28.12 121.86 L0 103.68 L3.2 100.03 Z" class="st1"/>
				</g>
				<g id="shape3407-5" transform="translate(5.06072,-11.9484)">
					<title>Sheet.3407</title>
					<path d="M0 107.13 L23.06 79.95 L46.6 107.16 L23.06 121.86 L0 107.13 Z" class="st2"/>
				</g>
				<g id="shape3408-7" transform="translate(5.06072,-11.9484)">
					<title>Sheet.3408</title>
					<path d="M23.06 79.95 L23.06 121.86 L0 107.13 L23.06 79.95 Z" class="st1"/>
				</g>
				<g id="shape3409-9" transform="translate(28.1222,-11.9484)">
					<title>Sheet.3409</title>
					<path d="M0 79.95 L0 121.86 L23.54 107.16 L0 79.95 Z" class="st3"/>
				</g>
				<g id="shape3410-13" transform="translate(28.1222,-11.9484)">
					<title>Sheet.3410</title>
					<path d="M0 101.58 L23.54 107.16 L0 121.86 L0 101.58 Z" class="st4"/>
				</g>
				<g id="shape3411-15" transform="translate(5.06072,-11.9484)">
					<title>Sheet.3411</title>
					<path d="M23.06 121.86 L0 107.13 L23.06 101.58 L23.06 121.86 Z" class="st5"/>
				</g>
				<g id="shape3412-17" transform="translate(28.1222,-2.82519)">
					<title>Sheet.3412</title>
					<path d="M0 121.86 L28.57 103.64 L25.37 100 L0 116.03 L0 121.86 Z" class="st6"/>
				</g>
				<g id="shape3413-21" transform="translate(32.6502,-2.70006E-13)">
					<title>Sheet.3413</title>
					<path d="M19.14 102.47 A3.71547 3.67464 -180 0 0 19.14 97.24 L12.74 90.9 A3.71547 3.67464 -180 0 0 7.48 90.9
								 L1.08 97.24 A3.77953 3.73799 -180 0 0 1.08 102.47 L6.43 107.76 A1.02496 1.01369 0 0 1 6.71 108.48
								 L6.71 118.3 A1.15308 1.1404 -180 0 0 7.1 119.19 L9.53 121.6 a0.800747 0.791947 -180 0 0 1.18511
								 0 L13.06 119.29 L14.47 117.89 a0.480448 0.475168 -180 0 0 0 -0.665236 L13.47 116.25 a0.512478 0.506846
								 0 0 1 1.24345E-14 -0.760269 L14.47 114.5 a0.512478 0.506846 -180 0 0 -1.95399E-14 -0.696914 L13.47
								 112.82 a0.480448 0.475168 0 0 1 8.88178E-15 -0.728591 L14.47 111.08 a0.480448 0.475168 -180 0 0
								 2.4869E-14 -0.665236 L13.06 109.02 L13.06 108.52 L19.14 102.47 ZM10.11 92.42 A2.11397 2.09074 0
								 1 1 8 94.51 A2.11397 2.09074 0 0 1 10.11 92.42 Z" class="st7"/>
				</g>
				<g id="shape3414-23" transform="translate(41.0176,-3.07901)">
					<title>Sheet.3414</title>
					<path d="M0.14 121.76 a0.448419 0.44349 -180 0 0 0.768717 -0.348457 L0.91 113.31 a0.512478 0.506846 -180 0 0
								 -0.192179 -0.411813 a0.448419 0.44349 -180 0 0 -0.704658 0.411813 L0.01 121.26 a0.480448 0.475168
								 -180 0 0 0.12812 0.506846 Z" class="st8"/>
				</g>
				<g id="shape3415-25" transform="translate(37.6351,-21.2617)">
					<title>Sheet.3415</title>
					<path d="M-0 121.29 a0.576551 0.570215 -180 0 0 0.576538 0.570202 L9.96 121.86 a0.576551 0.570215 -180 0 0 0.576538
								 -0.570202 L10.54 121.19 a0.576551 0.570215 -180 0 0 -0.576538 -0.570202 L0.58 120.62 a0.576551 0.570215
								 -180 0 0 -0.576538 0.570202 L0 121.29 Z" class="st8"/>
				</g>
				<g id="shape3416-27" transform="translate(37.6351,-19.266)">
					<title>Sheet.3416</title>
					<path d="M-0 121.29 a0.576551 0.570215 -180 0 0 0.576538 0.570202 L9.96 121.86 a0.576551 0.570215 -180 0 0 0.576538
								 -0.570202 L10.54 121.19 a0.576551 0.570215 -180 0 0 -0.576538 -0.570202 L0.58 120.62 a0.576551 0.570215
								 -180 0 0 -0.576538 0.570202 L0 121.29 Z" class="st8"/>
				</g>
			</g>
		</g>
	</g>
</svg>
