<?xml version="1.0" encoding="UTF-8" standalone="no"?>
<!DOCTYPE svg PUBLIC "-//W3C//DTD SVG 1.1//EN" "http://www.w3.org/Graphics/SVG/1.1/DTD/svg11.dtd">
<!-- Generated by Microsoft Visio, SVG Export Azure Lighthouse My Role.svg Page-1 -->
<svg xmlns="http://www.w3.org/2000/svg" xmlns:xlink="http://www.w3.org/1999/xlink" xmlns:ev="http://www.w3.org/2001/xml-events"
		width="1.1274in" height="1.3511in" viewBox="0 0 81.1729 97.2794" xml:space="preserve" color-interpolation-filters="sRGB"
		class="st7">
	<style type="text/css">
	<![CDATA[
		.st1 {fill:#0072c6;stroke:none;stroke-linecap:butt;stroke-width:12.24}
		.st2 {fill:#ffffff;stroke:none;stroke-linecap:butt;stroke-width:12.24}
		.st3 {fill:#7a7a7a;stroke:none;stroke-linecap:butt;stroke-width:12.24}
		.st4 {fill:#804998;stroke:none;stroke-linecap:butt;stroke-width:12.24}
		.st5 {fill:#3999c6;stroke:none;stroke-linecap:butt;stroke-width:12.24}
		.st6 {fill:#ffffff;fill-opacity:0.2;stroke:none;stroke-linecap:butt;stroke-width:12.24}
		.st7 {fill:none;fill-rule:evenodd;font-size:12px;overflow:visible;stroke-linecap:square;stroke-miterlimit:3}
	]]>
	</style>

	<g>
		<title>Page-1</title>
		<g id="group2986-1" transform="translate(12.24,-28.3465)">
			<title>Azure Lighthouse My Role</title>
			<g id="group2987-2">
				<title>g22</title>
				<g id="shape2988-3">
					<title>path4</title>
					<path d="M14.17 97.28 L1.7 97.28 A1.70079 1.7355 0 0 1 0 95.54 L0 82.82 A1.70079 1.7355 0 0 1 1.7 81.08 L14.17
								 81.08 A1.70079 1.7355 0 0 1 15.87 82.82 L15.87 95.54 A1.70079 1.7355 0 0 1 14.17 97.28 Z"
							class="st1"/>
				</g>
				<g id="shape2989-5" transform="translate(3.40157,-3.47099)">
					<title>path6</title>
					<rect x="0" y="88.0234" width="9.07087" height="9.25599" class="st2"/>
				</g>
				<g id="shape2990-7" transform="translate(19.2756,2.84217E-13)">
					<title>path8</title>
					<path d="M14.17 97.28 L1.7 97.28 A1.70079 1.7355 0 0 1 -0 95.54 L0 82.82 A1.70079 1.7355 0 0 1 1.7 81.08 L14.17
								 81.08 A1.70079 1.7355 0 0 1 15.87 82.82 L15.87 95.54 A1.70079 1.7355 0 0 1 14.17 97.28 Z"
							class="st1"/>
				</g>
				<g id="shape2991-9" transform="translate(22.6772,-3.47099)">
					<title>path10</title>
					<rect x="0" y="88.0234" width="9.07087" height="9.25599" class="st2"/>
				</g>
				<g id="shape2992-11" transform="translate(26.0787,-16.198)">
					<title>path12</title>
					<rect x="0" y="82.2384" width="2.26772" height="15.041" class="st3"/>
				</g>
				<g id="shape2993-13" transform="translate(14.7402,-31.239)">
					<title>path14</title>
					<path d="M24.94 84.55 C24.94 91.58 19.36 97.28 12.47 97.28 C5.58 97.28 0 91.58 0 84.55 C0 77.52 5.58 71.83 12.47
								 71.83 C19.36 71.83 24.94 77.52 24.94 84.55 Z" class="st4"/>
				</g>
				<g id="shape2994-15" transform="translate(36.2835,2.84217E-13)">
					<title>path16</title>
					<path d="M16.89 71.83 C16.89 75.48 13.9 78.44 10.2 78.44 C6.51 78.44 3.51 75.48 3.51 71.83 C3.51 68.17 6.51 65.21
								 10.2 65.21 C13.9 65.21 16.89 68.17 16.89 71.83 ZM14.38 81.08 L10.2 87.65 L6.03 81.08 L0 81.08 L0
								 97.28 L20.41 97.28 L20.41 81.08 L14.38 81.08 Z" class="st5"/>
				</g>
				<g id="shape2995-17" transform="translate(14.7662,-35.7848)">
					<title>path18</title>
					<path d="M20.46 80.92 C16.04 76.4 8.86 76.4 4.43 80.92 C0 85.44 0 92.76 4.43 97.28 L20.46 80.92 Z" class="st6"/>
				</g>
				<g id="shape2996-19" transform="translate(6.80315,-16.198)">
					<title>path20</title>
					<path d="M31.86 88.02 L2.27 88.02 A2.26772 2.314 -180 0 0 0 90.34 L0 97.28 L2.27 97.28 L2.27 90.34 L32.22 90.34
								 A7.40409 7.5552 0 0 1 31.86 88.02 Z" class="st3"/>
				</g>
			</g>
		</g>
	</g>
</svg>
