<?xml version="1.0" encoding="UTF-8" standalone="no"?>
<!DOCTYPE svg PUBLIC "-//W3C//DTD SVG 1.1//EN" "http://www.w3.org/Graphics/SVG/1.1/DTD/svg11.dtd">
<!-- Generated by Microsoft Visio, SVG Export Azure Stack Backup.svg Page-1 -->
<svg xmlns="http://www.w3.org/2000/svg" xmlns:xlink="http://www.w3.org/1999/xlink" xmlns:ev="http://www.w3.org/2001/xml-events"
		width="0.768154in" height="1.25984in" viewBox="0 0 55.3071 90.7087" xml:space="preserve" color-interpolation-filters="sRGB"
		class="st7">
	<style type="text/css">
	<![CDATA[
		.st1 {fill:#198ab3;stroke:none;stroke-linecap:butt;stroke-width:0.75}
		.st2 {fill:url(#grad0-9);stroke:none;stroke-linecap:butt;stroke-width:0.75}
		.st3 {fill:#003067;stroke:none;stroke-linecap:butt;stroke-width:0.75}
		.st4 {fill:#50e6ff;stroke:none;stroke-linecap:butt;stroke-width:0.75}
		.st5 {fill:url(#grad0-21);stroke:none;stroke-linecap:butt;stroke-width:0.75}
		.st6 {fill:#e6e6e6;stroke:none;stroke-linecap:butt;stroke-width:0.75}
		.st7 {fill:none;fill-rule:evenodd;font-size:12px;overflow:visible;stroke-linecap:square;stroke-miterlimit:3}
	]]>
	</style>

	<defs id="Patterns_And_Gradients">
		<linearGradient id="grad0-9" x1="0" y1="0" x2="1" y2="0" gradientTransform="rotate(-90 0.5 0.5)">
			<stop offset="0" stop-color="#949494" stop-opacity="1"/>
			<stop offset="0.53" stop-color="#a2a2a2" stop-opacity="1"/>
			<stop offset="1" stop-color="#b3b3b3" stop-opacity="1"/>
		</linearGradient>
		<linearGradient id="grad0-21" x1="0" y1="0" x2="1" y2="0" gradientTransform="rotate(0 0.5 0.5)">
			<stop offset="0" stop-color="#005ba1" stop-opacity="1"/>
			<stop offset="0.07" stop-color="#0060a9" stop-opacity="1"/>
			<stop offset="0.36" stop-color="#0071c8" stop-opacity="1"/>
			<stop offset="0.52" stop-color="#0078d4" stop-opacity="1"/>
			<stop offset="0.64" stop-color="#0074cd" stop-opacity="1"/>
			<stop offset="0.82" stop-color="#006abb" stop-opacity="1"/>
			<stop offset="1" stop-color="#005ba1" stop-opacity="1"/>
		</linearGradient>
	</defs>
	<g>
		<title>Page-1</title>
		<g id="group2811-1" transform="translate(4.53543,-28.3465)">
			<title>Azure Stack Backup</title>
			<g id="group2812-2">
				<title>Sheet.2812</title>
				<g id="shape2813-3" transform="translate(21.9799,-24.3064)">
					<title>Sheet.2813</title>
					<path d="M6.76 88.56 A20.3731 22.2533 -180 0 0 0 89.62 A20.1305 21.9884 -180 0 0 6.76 90.71 A19.888 21.7235 -180
								 0 0 13.52 89.62 A20.1002 21.9553 -180 0 0 6.76 88.56 Z" class="st1"/>
				</g>
				<g id="group2814-5" transform="translate(0,-0.59607)">
					<title>Sheet.2814</title>
					<g id="shape2815-6">
						<title>Sheet.2815</title>
						<path d="M30.17 88.82 A1.72807 1.88756 0 0 1 28.41 90.71 L1.73 90.71 A1.69776 1.85444 0 0 1 0 88.82 L0 36.47
									 A1.72807 1.88756 0 0 1 1.73 34.61 L28.41 34.61 A1.75839 1.92067 0 0 1 30.17 36.5 L30.17 88.82
									 Z" class="st2"/>
					</g>
					<g id="shape2816-10" transform="translate(4.48693,-32.817)">
						<title>Sheet.2816</title>
						<path d="M0 87.1 A3.27424 3.57642 0 0 1 3.21 83.52 L18.19 83.52 A3.27424 3.57642 0 0 1 21.46 87.1 A3.27424
									 3.57642 0 0 1 18.19 90.71 L3.21 90.71 A3.27424 3.57642 0 0 1 -0 87.1 Z" class="st3"/>
					</g>
					<g id="shape2817-12" transform="translate(4.48693,-43.48)">
						<title>Sheet.2817</title>
						<path d="M0 87.13 A3.27424 3.57642 0 0 1 3.21 83.56 L18.19 83.56 A3.27424 3.57642 0 0 1 21.46 87.13 A3.27424
									 3.57642 0 0 1 18.19 90.71 L3.21 90.71 A3.27424 3.57642 0 0 1 -0 87.13 Z" class="st3"/>
					</g>
					<g id="shape2818-14" transform="translate(5.63897,-44.639)">
						<title>Sheet.2818</title>
						<ellipse cx="2.21315" cy="88.2913" rx="2.21315" ry="2.4174" class="st4"/>
					</g>
					<g id="shape2819-16" transform="translate(5.63897,-34.0091)">
						<title>Sheet.2819</title>
						<ellipse cx="2.21315" cy="88.2913" rx="2.21315" ry="2.4174" class="st4"/>
					</g>
				</g>
				<g id="shape2820-18" transform="translate(25.8908,0)">
					<title>Sheet.2820</title>
					<path d="M9.73 70.24 C4.37 70.24 0 68.49 0 66.37 L0 86.87 C0 88.95 4.31 90.68 9.61 90.71 C15.01 90.71 19.34 88.99
								 19.34 86.87 L19.34 66.37 C19.46 68.49 15.13 70.24 9.73 70.24 Z" class="st5"/>
				</g>
				<g id="shape2821-22" transform="translate(25.8908,-20.4651)">
					<title>Sheet.2821</title>
					<path d="M19.46 86.83 C19.46 88.95 15.13 90.71 9.73 90.71 C4.34 90.71 0 88.95 0 86.83 C0 84.71 4.37 82.99 9.73
								 82.99 C15.1 82.99 19.46 84.71 19.46 86.83 Z" class="st6"/>
				</g>
				<g id="shape2822-24" transform="translate(28.1646,-22.1871)">
					<title>Sheet.2822</title>
					<path d="M14.92 88.26 C14.92 89.62 11.58 90.71 7.46 90.71 C3.33 90.71 0 89.62 0 88.26 C0 86.9 3.33 85.81 7.46
								 85.81 C11.58 85.81 14.92 86.9 14.92 88.26 Z" class="st4"/>
				</g>
				<g id="shape2823-26" transform="translate(27.6795,-29.3712)">
					<title>Sheet.2823</title>
					<path d="M9.19 90.61 L15.64 83.55 a0.333488 0.364265 -180 0 0 -0.242537 -0.629185 L11.64 82.92 C11.64 74.41 7.49
								 65.94 0 65.94 A20.2518 22.1208 0 0 1 6.06 82.92 L2.49 82.92 a0.333488 0.364265 -180 0 0 -0.242537
								 0.629185 L8.7 90.61 a0.363805 0.39738 -180 0 0 0.485073 0 Z" class="st4"/>
				</g>
			</g>
		</g>
	</g>
</svg>
