<?xml version="1.0" encoding="UTF-8" standalone="no"?>
<!DOCTYPE svg PUBLIC "-//W3C//DTD SVG 1.1//EN" "http://www.w3.org/Graphics/SVG/1.1/DTD/svg11.dtd">
<!-- Generated by Microsoft Visio, SVG Export Azure Active Directory Privileged Identity Management.svg Page-1 -->
<svg xmlns="http://www.w3.org/2000/svg" xmlns:xlink="http://www.w3.org/1999/xlink" xmlns:ev="http://www.w3.org/2001/xml-events"
		width="1.09186in" height="1.31553in" viewBox="0 0 78.614 94.7183" xml:space="preserve" color-interpolation-filters="sRGB"
		class="st7">
	<style type="text/css">
	<![CDATA[
		.st1 {fill:#804998;stroke:none;stroke-linecap:butt;stroke-width:12.24}
		.st2 {fill:#ffffff;fill-opacity:0.15}
		.st3 {stroke:none;stroke-linecap:butt;stroke-width:12.24}
		.st4 {fill:#ffffff;stroke:none;stroke-linecap:butt;stroke-width:12.24}
		.st5 {fill:#57a300;stroke:none;stroke-linecap:butt;stroke-width:12.24}
		.st6 {fill:#ffffff;fill-opacity:0.5;stroke:none;stroke-linecap:butt;stroke-width:12.24}
		.st7 {fill:none;fill-rule:evenodd;font-size:12px;overflow:visible;stroke-linecap:square;stroke-miterlimit:3}
	]]>
	</style>

	<g>
		<title>Page-1</title>
		<g id="group3324-1" transform="translate(9.68104,-28.3465)">
			<title>Azure Active Directory Privileged Identity Management</title>
			<g id="group3325-2">
				<title>Sheet.3325</title>
				<g id="shape3326-3" transform="translate(2.55896,0)">
					<title>Sheet.3326</title>
					<path d="M54.13 67.65 C54.13 82.6 42.01 94.72 27.07 94.72 C12.12 94.72 0 82.6 0 67.65 C0 52.71 12.12 40.59 27.07
								 40.59 C42.01 40.59 54.13 52.71 54.13 67.65 Z" class="st1"/>
				</g>
				<g id="shape3327-5" transform="translate(0,-4.60346)">
					<title>Sheet.3327</title>
					<path d="M16.66 94.72 C4.25 87.56 0 71.69 7.16 59.29 C14.32 46.88 30.19 42.63 42.59 49.79 L16.66 94.72 Z"
							class="st2"/>
					<path d="M16.66 94.72 C4.25 87.56 0 71.69 7.16 59.29 C14.32 46.88 30.19 42.63 42.59 49.79" class="st3"/>
				</g>
				<g id="shape3328-8" transform="translate(11.3918,-5.44814)">
					<title>Sheet.3328</title>
					<path d="M32.96 77.68 L30.57 75.29 L20.13 85.73 C20.07 85.7 20 85.67 19.93 85.65 L19.93 69.72 L16.54 69.72 L16.54
								 85.64 C16.47 85.67 16.4 85.7 16.33 85.73 L8.99 78.38 C9.25 77.8 9.4 77.16 9.4 76.48 A4.70853 4.70834
								 -180 0 0 4.7 71.78 C2.11 71.79 0 73.9 0 76.49 C0 79.08 2.11 81.18 4.7 81.18 L4.7 81.18 A4.65778
								 4.65759 -180 0 0 6.6 80.78 L13.94 88.12 A4.66567 4.66548 -180 0 0 13.53 90.02 A4.70627 4.70608 -180
								 0 0 18.23 94.72 L18.24 94.72 A4.7074 4.70721 -180 0 0 22.93 90.02 C22.93 89.34 22.78 88.7 22.53
								 88.12 L32.96 77.68 ZM4.7 76.29 C4.75 76.29 4.8 76.32 4.83 76.35 L4.57 76.62 a0.192852 0.192845 0
								 0 1 -0.0552617 -0.134202 C4.51 76.39 4.61 76.29 4.7 76.29 ZM18.23 90.21 a0.188341 0.188334 0 0 1
								 -0.133079 -0.0552595 L18.23 90.02 L18.37 90.15 a0.192852 0.192845 0 0 1 -0.134207 0.0552595 Z"
							class="st4"/>
				</g>
				<g id="shape3329-10" transform="translate(27.8978,-8.42007)">
					<title>Sheet.3329</title>
					<path d="M4.17 92.99 A2.44505 2.44495 0 1 1 1.73 90.54 L1.73 90.54 C3.08 90.54 4.17 91.64 4.17 92.99 Z"
							class="st5"/>
				</g>
				<g id="shape3330-12" transform="translate(38.4565,-18.9822)">
					<title>Sheet.3330</title>
					<path d="M4.7 94.72 C2.11 94.72 0 92.61 0 90.02 C0 87.43 2.11 85.32 4.7 85.32 A4.70853 4.70834 0 0 1 9.4 90.02
								 A4.70514 4.70496 0 0 1 4.71 94.72 L4.7 94.72 ZM4.7 89.83 C4.61 89.83 4.51 89.93 4.51 90.02 a0.189469
								 0.189461 -180 1 0 0.189469 -0.188334 Z" class="st4"/>
				</g>
				<g id="shape3331-14" transform="translate(14.3643,-21.953)">
					<title>Sheet.3331</title>
					<path d="M31.24 92.99 A2.44505 2.44495 0 1 1 28.79 90.54 L28.8 90.54 C30.15 90.54 31.24 91.64 31.24 92.99 ZM4.17
								 92.99 A2.44505 2.44495 0 1 1 1.73 90.54 L1.73 90.54 C3.08 90.54 4.17 91.64 4.17 92.99 Z"
							class="st5"/>
				</g>
				<g id="shape3332-16" transform="translate(24.1821,-32.9302)">
					<title>Sheet.3332</title>
					<path d="M11.05 89.19 C11.05 92.25 8.58 94.72 5.53 94.72 C2.47 94.72 0 92.25 0 89.19 C0 86.14 2.47 83.67 5.53
								 83.67 C8.58 83.67 11.05 86.14 11.05 89.19 Z" class="st1"/>
				</g>
				<g id="shape3333-18" transform="translate(20.7987,-29.5469)">
					<title>Sheet.3333</title>
					<path d="M8.91 76.9 C3.99 76.9 0 80.89 0 85.81 C0 90.73 3.99 94.72 8.91 94.72 C13.83 94.72 17.82 90.73 17.82
								 85.81 C17.82 80.89 13.83 76.9 8.91 76.9 ZM8.91 91.34 A5.52505 5.52483 0 0 1 3.38 85.81 C3.38 82.76
								 5.86 80.28 8.91 80.28 C11.96 80.28 14.44 82.76 14.44 85.81 C14.44 88.86 11.96 91.34 8.91 91.34 Z"
							class="st4"/>
				</g>
				<g id="shape3334-20" transform="translate(17.1075,-24.6976)">
					<title>Sheet.3334</title>
					<path d="M2.39 94.72 L10.02 87.09 A6.69005 6.68979 0 0 1 7.33 85 L0 92.33 A3.56382 3.56368 0 0 1 2.39 94.72 ZM22.69
								 94.72 L15.06 87.09 A6.69005 6.68979 -180 0 0 17.76 85 L25.08 92.33 A3.56269 3.56255 -180 0 0 22.69
								 94.72 Z" class="st6"/>
				</g>
			</g>
		</g>
	</g>
</svg>
