<?xml version="1.0" encoding="UTF-8" standalone="no"?>
<!DOCTYPE svg PUBLIC "-//W3C//DTD SVG 1.1//EN" "http://www.w3.org/Graphics/SVG/1.1/DTD/svg11.dtd">
<!-- Generated by Microsoft Visio, SVG Export Azure Database For Postgresql.svg Page-1 -->
<svg xmlns="http://www.w3.org/2000/svg" xmlns:xlink="http://www.w3.org/1999/xlink" xmlns:ev="http://www.w3.org/2001/xml-events"
		width="1.535in" height="1.73185in" viewBox="0 0 110.52 124.693" xml:space="preserve" color-interpolation-filters="sRGB"
		class="st6">
	<style type="text/css">
	<![CDATA[
		.st1 {fill:url(#grad0-6);stroke:none;stroke-linecap:butt;stroke-width:34}
		.st2 {fill:#e8e8e8;stroke:none;stroke-linecap:butt;stroke-width:34}
		.st3 {fill:#50e6ff;stroke:none;stroke-linecap:butt;stroke-width:34}
		.st4 {fill:#198ab3;stroke:none;stroke-linecap:butt;stroke-width:34}
		.st5 {fill:#f2f2f2;stroke:none;stroke-linecap:butt;stroke-width:34}
		.st6 {fill:none;fill-rule:evenodd;font-size:12px;overflow:visible;stroke-linecap:square;stroke-miterlimit:3}
	]]>
	</style>

	<defs id="Patterns_And_Gradients">
		<linearGradient id="grad0-6" x1="0" y1="0" x2="1" y2="0" gradientTransform="rotate(-0.0087329700482936 0.5 0.5)">
			<stop offset="0" stop-color="#005ba1" stop-opacity="1"/>
			<stop offset="0.07" stop-color="#0060a9" stop-opacity="1"/>
			<stop offset="0.36" stop-color="#0071c8" stop-opacity="1"/>
			<stop offset="0.52" stop-color="#0078d4" stop-opacity="1"/>
			<stop offset="0.64" stop-color="#0074cd" stop-opacity="1"/>
			<stop offset="0.82" stop-color="#006abb" stop-opacity="1"/>
			<stop offset="1" stop-color="#005ba1" stop-opacity="1"/>
		</linearGradient>
	</defs>
	<g>
		<title>Page-1</title>
		<g id="group3083-1" transform="translate(34,-34)">
			<title>Azure Database For Postgresql</title>
			<g id="group3084-2">
				<title>Icon-databases-131</title>
				<g id="shape3085-3">
					<title>Sheet.3085</title>
					<path d="M21.26 83.47 C9.52 83.47 0 80.14 0 75.74 L0 116.96 C0 121.19 9.35 124.63 20.96 124.69 L21.26 124.69
								 C33 124.69 42.52 121.36 42.52 116.96 L42.52 75.74 C42.52 80.01 33 83.47 21.26 83.47 Z" class="st1"/>
				</g>
				<g id="shape3086-7" transform="translate(0,-41.2191)">
					<title>Sheet.3086</title>
					<path d="M42.52 116.96 C42.52 121.22 33 124.69 21.26 124.69 C9.52 124.69 0 121.36 0 116.96 C0 112.55 9.52 109.22
								 21.26 109.22 C33 109.22 42.52 112.55 42.52 116.96 Z" class="st2"/>
				</g>
				<g id="shape3087-9" transform="translate(4.94184,-44.654)">
					<title>Sheet.3087</title>
					<path d="M32.6 119.76 C32.6 122.49 25.31 124.69 16.32 124.69 C7.33 124.69 0 122.49 0 119.79 C0 117.09 7.3 114.86
								 16.32 114.86 C25.34 114.86 32.6 117.06 32.6 119.76 Z" class="st3"/>
				</g>
				<g id="shape3088-11" transform="translate(8.32484,-44.654)">
					<title>Sheet.3088</title>
					<path d="M12.94 120.99 A38.6392 38.8513 -180 0 0 0 122.89 A38.2412 38.4511 -180 0 0 12.94 124.69 A38.0422 38.251
								 -180 0 0 25.84 122.76 A39.5679 39.7851 -180 0 0 12.94 120.99 Z" class="st4"/>
				</g>
				<g id="shape3089-13" transform="translate(6.33484,-5.90273)">
					<title>Sheet.3089</title>
					<path d="M24.88 102.25 L24.88 103.65 A16.9813 17.0746 -180 0 0 24.61 105.75 C24.61 106.15 24.61 106.75 24.78
								 107.28 C24.94 107.82 24.78 108.19 24.78 108.49 A5.572 5.60259 0 0 1 23.95 111.35 A1.42617 1.434
								 -180 0 0 23.95 111.59 L24.28 111.99 A34.9908 35.183 -180 0 0 27.79 104.05 C28.72 100.88 28.82 98.61
								 28.09 97.65 A8.557 8.60398 -180 0 0 19.2 94.78 A10.9118 10.9717 0 0 1 22.22 97.01 A7.562 7.60352
								 0 0 1 24.88 102.25 ZM23.85 102.52 A3.81417 3.83511 -180 0 0 21.23 102.82 C20.26 103.42 20.56 104.65
								 21.23 106.15 A25.7705 25.912 -180 0 0 22.39 108.99 L22.69 109.52 C22.85 109.79 22.95 110.02 23.05
								 110.19 L23.32 110.62 A4.24534 4.26864 -180 0 0 23.91 108.45 A9.48567 9.53775 -180 0 0 23.91 107.35
								 C23.91 106.78 23.91 106.15 23.75 105.72 A20.2317 20.3428 0 0 1 24.01 103.42 A2.56378 2.57786 0 0
								 1 23.98 102.42 L23.85 102.52 ZM22.85 103.88 A1.32667 1.33395 0 0 1 22.25 104.22 A1.0945 1.10051
								 0 0 1 21.79 104.22 a0.762834 0.767022 0 0 1 -0.232167 -0.633627 C21.56 103.35 21.92 103.15 22.35
								 103.08 L22.98 103.08 C22.98 103.08 23.28 103.08 23.28 103.35 a0.663334 0.666975 0 0 1 -0.2985 0.433534
								 L22.85 103.88 ZM7.3 106.85 L7.3 106.28 A3.31667 3.33488 -180 0 0 7.3 105.72 A18.4075 18.5086 0 0
								 1 7.3 102.38 A17.313 17.4081 0 0 1 8.29 98.71 A7.99317 8.03705 0 0 1 10.22 95.58 A15.8537 15.9407
								 -180 0 0 5.74 94.91 A6.20217 6.23622 -180 0 0 2.09 95.91 A6.63334 6.66975 -180 0 0 0 101.98 A40.6955
								 40.9189 -180 0 0 1.66 109.45 C2.79 113.25 4.08 115.59 5.21 115.96 C5.7 116.12 6.24 115.96 6.77 115.26
								 C7.69 114.12 8.56 113.15 9.05 112.59 A6.23534 6.26957 0 0 1 7.43 106.75 L7.3 106.85 ZM8.16 108.19
								 A7.23034 7.27003 -180 0 0 8.36 110.05 A4.975 5.00232 -180 0 0 9.22 111.52 A3.54883 3.56832 -180
								 0 0 10.38 112.35 A3.61517 3.63502 -180 0 0 11.67 112.62 C11.67 112.05 12.14 111.35 12.44 110.62
								 A14.4275 14.5067 -180 0 0 13.13 108.65 A21.9232 22.0435 -180 0 0 13.13 104.95 C13.13 104.65 13.13
								 104.32 12.94 103.95 A1.4925 1.50069 -180 0 0 12.54 103.05 A2.189 2.20102 -180 0 0 11.61 102.52 L10.95
								 102.52 A5.174 5.20241 -180 0 0 9.35 102.98 A6.63334 6.66975 -180 0 0 8.29 103.62 L8.29 106.02 A2.85233
								 2.86799 0 0 1 8.29 106.52 L8.29 107.82 L8.16 108.19 ZM10.35 103.72 A1.52567 1.53404 0 0 1 11.28
								 103.72 A1.99 2.00093 0 0 1 11.91 103.92 C12.21 103.92 12.24 104.28 12.21 104.38 A1.22717 1.2339
								 0 0 1 11.81 104.82 a0.995 1.00046 0 0 1 -0.199 -0.133395 A1.12767 1.13386 0 0 1 10.68 103.75 L10.35
								 103.72 ZM12.8 113.72 a0.762834 0.767022 -180 0 0 -0.431167 0.200093 L11.91 114.49 C11.34 115.19
								 11.11 115.42 9.49 115.76 A1.72467 1.73414 -180 0 0 8.62 116.09 A1.92367 1.93423 -180 0 0 9.42 116.46
								 A3.91367 3.93516 -180 0 0 11.81 116.46 A5.63834 5.66929 -180 0 0 13.1 115.59 A2.02317 2.03428 -180
								 0 0 13.76 114.55 A1.194 1.20056 -180 0 0 13.43 113.62 a0.4975 0.500232 -180 0 0 -0.4975 -0.0666975
								 L12.8 113.72 ZM28.09 113.72 A5.40617 5.43585 0 0 1 24.34 113.72 a0.729667 0.733673 -180 0 0 -0.464334
								 -1.42109E-14 a0.995 1.00046 -180 0 0 -0.563834 0.466883 A3.61517 3.63502 -180 0 0 23.32 115.22 A5.97
								 6.00278 -180 0 0 26.96 114.89 A4.51067 4.53543 -180 0 0 28.56 113.75 L28.09 113.72 ZM20.13 106.58
								 C19.67 105.22 19 103.25 20.73 102.05 A4.4775 4.50208 0 0 1 23.68 101.55 A10.547 10.6049 -180 0 0
								 21.56 97.71 L21.23 97.38 L21.03 97.18 A1.12767 1.13386 -180 0 0 20.83 96.98 A7.761 7.80361 -180
								 0 0 18.61 95.58 A8.72284 8.77073 -180 0 0 14.93 94.85 A5.04134 5.06901 -180 0 0 12.6 95.21 A5.8705
								 5.90273 -180 0 0 11.61 95.58 A6.965 7.00324 -180 0 0 9.15 98.91 A19.3693 19.4757 -180 0 0 8.46 102.25
								 A5.50567 5.5359 0 0 1 11.77 101.48 A2.786 2.8013 0 0 1 14.33 104.52 A24.079 24.2112 0 0 1 14.33
								 108.75 A12.8355 12.906 0 0 1 13.57 110.85 C13.37 111.42 13.1 112.02 12.97 112.49 A1.65833 1.66744
								 0 0 1 14.23 112.95 A2.189 2.20102 0 0 1 14.86 114.72 L14.93 114.72 L14.93 115.52 A21.7242 21.8434
								 -180 0 0 15.72 123.66 A1.791 1.80083 -180 0 0 16.52 124.36 A1.99 2.00093 -180 0 0 17.55 124.69 A4.31167
								 4.33534 -180 0 0 20.86 123.56 A3.4825 3.50162 -180 0 0 21.82 121.36 C22.06 119.86 22.55 115.69 22.62
								 114.69 A2.388 2.40111 0 0 1 22.92 113.22 A2.0895 2.10097 0 0 1 23.81 112.42 A17.7773 17.8749 0 0
								 1 20.26 106.38 L20.13 106.58 Z" class="st5"/>
				</g>
			</g>
		</g>
	</g>
</svg>
