<?xml version="1.0" encoding="UTF-8" standalone="no"?>
<!DOCTYPE svg PUBLIC "-//W3C//DTD SVG 1.1//EN" "http://www.w3.org/Graphics/SVG/1.1/DTD/svg11.dtd">
<!-- Generated by Microsoft Visio, SVG Export Azure Lighthouse My Audit History.svg Page-1 -->
<svg xmlns="http://www.w3.org/2000/svg" xmlns:xlink="http://www.w3.org/1999/xlink" xmlns:ev="http://www.w3.org/2001/xml-events"
		width="1.04866in" height="1.3511in" viewBox="0 0 75.5036 97.2794" xml:space="preserve" color-interpolation-filters="sRGB"
		class="st8">
	<style type="text/css">
	<![CDATA[
		.st1 {fill:#57a300;stroke:none;stroke-linecap:butt;stroke-width:12.24}
		.st2 {fill:#1e1e1e;fill-opacity:0.15;stroke:none;stroke-linecap:butt;stroke-width:12.24}
		.st3 {fill:#e5e5e5;fill-opacity:0.2;stroke:none;stroke-linecap:butt;stroke-width:12.24}
		.st4 {fill:#ffffff;stroke:none;stroke-linecap:butt;stroke-width:12.24}
		.st5 {fill:#a0a1a2;fill-opacity:0.5;stroke:none;stroke-linecap:butt;stroke-width:12.24}
		.st6 {fill:#ffffff;fill-opacity:0.4;stroke:none;stroke-linecap:butt;stroke-width:12.24}
		.st7 {fill:#3999c6;stroke:none;stroke-linecap:butt;stroke-width:12.24}
		.st8 {fill:none;fill-rule:evenodd;font-size:12px;overflow:visible;stroke-linecap:square;stroke-miterlimit:3}
	]]>
	</style>

	<g>
		<title>Page-1</title>
		<g id="group3021-1" transform="translate(12.24,-28.3465)">
			<title>Azure Lighthouse My Audit History</title>
			<g id="group3022-2">
				<title>g20</title>
				<g id="shape3023-3" transform="translate(0,-8.44363)">
					<title>path4</title>
					<path d="M41.78 92.81 L43.73 92.81 L43.73 49.03 L3.88 49.03 C2.62 49.19 0 52.21 0 52.65 L0.06 95 C0.06 96.26
								 1.09 97.28 2.36 97.28 L38.87 97.28 L38.87 96.58 L41.78 92.81 Z" class="st1"/>
				</g>
				<g id="shape3024-5" transform="translate(0,-8.44363)">
					<title>path6</title>
					<path d="M41.78 92.81 L43.73 92.81 L43.73 49.03 L3.88 49.03 C2.62 49.19 0 52.21 0 52.65 L0.06 95 C0.06 96.26
								 1.09 97.28 2.36 97.28 L38.87 97.28 L38.87 96.58 L41.78 92.81 Z" class="st2"/>
				</g>
				<g id="shape3025-7" transform="translate(0,-9.15771)">
					<title>path8</title>
					<path d="M6.47 49.74 L3.88 49.74 C2.62 49.91 0 52.93 0 53.36 L0 54.57 L38.88 54.57 L38.88 97.28 L41.78 93.52
								 L43.73 93.52 L43.73 49.74 L6.47 49.74 Z" class="st3"/>
				</g>
				<g id="shape3026-9" transform="translate(0.964589,-9.14686)">
					<title>path10</title>
					<path d="M4.65 51.66 C3.57 51.66 3.11 51.84 2.21 52.63 C0 54.56 2.59 54.56 3.66 54.56 L37.9 54.56 L37.9 97.28
								 L40.82 93.51 L40.82 51.66 L4.65 51.66 Z" class="st4"/>
				</g>
				<g id="shape3027-11" transform="translate(38.8679,-9.14686)">
					<title>path12</title>
					<path d="M0 97.28 L2.92 93.51 L2.92 51.66 L0 54.56 L0 97.28 Z" class="st5"/>
				</g>
				<g id="shape3028-13" transform="translate(27.9415,-8.10226)">
					<title>path14</title>
					<path d="M10.93 97.28 L15.79 92.81 L15.79 71.56 A8.49908 8.4388 -180 0 0 12.15 70.74 C7.53 70.74 3.77 74.38 3.77
								 78.84 C3.77 82.05 5.71 84.82 8.51 86.13 L8.51 87.55 L8.33 87.29 L1.82 87.29 A1.82227 1.80935 -180
								 0 0 0 89.1 L0 97.28 L10.93 97.28 Z" class="st6"/>
				</g>
				<g id="shape3029-15" transform="translate(29.1564,1.42109E-14)">
					<title>path16</title>
					<path d="M18.1 70.74 C18.1 74.55 14.89 77.64 10.93 77.64 C6.97 77.64 3.77 74.55 3.77 70.74 C3.77 66.93 6.97 63.85
								 10.93 63.85 C14.89 63.85 18.1 66.93 18.1 70.74 ZM15.41 80.39 L10.93 87.24 L6.46 80.39 L0 80.39 L0
								 97.28 L21.87 97.28 L21.87 80.39 L15.41 80.39 Z" class="st7"/>
				</g>
				<g id="shape3030-17" transform="translate(5.39667,-16.8873)">
					<title>path18</title>
					<path d="M11.61 73.15 L24.97 73.15 L24.97 75.57 L11.61 75.57 L11.61 73.15 ZM11.61 82.8 L24.97 82.8 L24.97 85.22
								 L11.61 85.22 L11.61 82.8 ZM11.61 92.45 L24.97 92.45 L24.97 94.87 L11.61 94.87 L11.61 92.45 ZM0.68
								 81.6 L0.68 87.63 L6.75 87.63 L6.75 81.6 L0.68 81.6 ZM5.23 86.12 L2.2 86.12 L2.2 83.11 L5.23 83.11
								 L5.23 86.12 ZM0.68 91.25 L0.68 97.28 L6.75 97.28 L6.75 91.25 L0.68 91.25 ZM5.23 95.77 L2.2 95.77
								 L2.2 92.76 L5.23 92.76 L5.23 95.77 ZM3.71 76.73 L0.11 73.11 a0.364454 0.36187 0 0 1 0.0024297 -0.511442
								 L0.89 71.84 a0.364454 0.36187 0 0 1 0.515096 0.00241246 L3.66 74.11 L7.13 69.68 a0.364454 0.36187
								 0 0 1 0.512666 -0.0639303 L8.5 70.28 a0.364454 0.36187 0 0 1 0.064387 0.507824 L3.93 76.72 a0.145782
								 0.144748 0 0 1 -0.219888 0.0120623 Z" class="st4"/>
				</g>
			</g>
		</g>
	</g>
</svg>
