<?xml version="1.0" encoding="UTF-8" standalone="no"?>
<!DOCTYPE svg PUBLIC "-//W3C//DTD SVG 1.1//EN" "http://www.w3.org/Graphics/SVG/1.1/DTD/svg11.dtd">
<!-- Generated by Microsoft Visio, SVG Export Azure API For FHIR.svg Page-1 -->
<svg xmlns="http://www.w3.org/2000/svg" xmlns:xlink="http://www.w3.org/1999/xlink" xmlns:ev="http://www.w3.org/2001/xml-events"
		width="1.1274in" height="1.3511in" viewBox="0 0 81.1729 97.2794" xml:space="preserve" color-interpolation-filters="sRGB"
		class="st4">
	<style type="text/css">
	<![CDATA[
		.st1 {fill:#ff8c00;stroke:none;stroke-linecap:butt;stroke-width:12.24}
		.st2 {fill:#ba141a;fill-opacity:0.25;stroke:none;stroke-linecap:butt;stroke-width:12.24}
		.st3 {fill:#ffffff;stroke:none;stroke-linecap:butt;stroke-width:12.24}
		.st4 {fill:none;fill-rule:evenodd;font-size:12px;overflow:visible;stroke-linecap:square;stroke-miterlimit:3}
	]]>
	</style>

	<g>
		<title>Page-1</title>
		<g id="group3276-1" transform="translate(12.24,-28.3465)">
			<title>Azure API For FHIR</title>
			<g id="group3277-2">
				<title>Sheet.3277</title>
				<g id="shape3278-3">
					<title>Sheet.3278</title>
					<path d="M41.84 40.59 C35.76 40.59 30.53 44.28 28.29 49.56 C26.04 44.28 20.82 40.59 14.73 40.59 C4.71 40.59 0
								 50.15 0 58.3 C0 83.11 28.29 97.28 28.29 97.28 C28.29 97.28 56.58 83.11 56.58 58.3 C56.58 50.15 51.86
								 40.59 41.84 40.59 Z" class="st1"/>
				</g>
				<g id="shape3279-5" transform="translate(0.128473,2.84217E-13)">
					<title>Sheet.3279</title>
					<path d="M28.16 72.48 C15.53 72.48 4.69 67.77 0 61.04 C1.96 84.14 28.16 97.28 28.16 97.28 C28.16 97.28 54.36
								 84.14 56.32 61.04 C51.63 67.77 40.79 72.48 28.16 72.48 Z" class="st2"/>
				</g>
				<g id="shape3280-7" transform="translate(27.2267,-9.56693)">
					<title>Sheet.3280</title>
					<ellipse cx="4.59672" cy="92.6731" rx="4.59672" ry="4.6063" class="st3"/>
				</g>
				<g id="shape3281-9" transform="translate(2.63899,-12.4996)">
					<title>Sheet.3281</title>
					<path d="M1.66 57.93 C1.66 57.93 0 63.88 6.88 69.84 L9.06 67.05 C9.02 67.02 5.31 64.02 5.04 59.65 C4.81 56.08
								 6.59 54.16 6.59 54.16 C4.62 55.06 2.98 56.29 1.66 57.93 ZM52.52 63.03 C53.57 67.63 53.18 72.17 51.33
								 76.34 C48.01 83.84 40.15 89.92 28.61 93.93 L29.76 97.28 C39.71 93.83 47.27 88.84 51.79 82.71 C53.19
								 79.07 54.05 75.1 54.05 70.8 C54.05 68.24 53.47 65.53 52.52 63.03 Z" class="st3"/>
				</g>
				<g id="shape3282-11" transform="translate(3.01144,-15.5679)">
					<title>Sheet.3282</title>
					<path d="M6.63 70.54 C0 77.17 8.21 88.83 14.88 95.51 L16.13 96.76 A1.76797 1.77165 -180 0 0 18.63 96.76 L21.13
								 94.26 A1.76797 1.77165 -180 1 0 18.63 91.75 L17.29 93.09 C8.13 83.9 5.18 76.67 8.96 72.88 C12.74
								 69.09 19.96 72.04 29.13 81.23 L27.79 82.56 A1.76797 1.77165 -180 1 0 30.29 85.07 L32.79 82.56 A1.76797
								 1.77165 -180 0 0 32.79 80.06 L31.54 78.8 C24.88 72.12 13.25 63.9 6.63 70.54 Z" class="st3"/>
				</g>
			</g>
		</g>
	</g>
</svg>
