<?xml version="1.0" encoding="UTF-8" standalone="no"?>
<!DOCTYPE svg PUBLIC "-//W3C//DTD SVG 1.1//EN" "http://www.w3.org/Graphics/SVG/1.1/DTD/svg11.dtd">
<!-- Generated by Microsoft Visio, SVG Export Azure Database For Mariadb.svg Page-1 -->
<svg xmlns="http://www.w3.org/2000/svg" xmlns:xlink="http://www.w3.org/1999/xlink" xmlns:ev="http://www.w3.org/2001/xml-events"
		width="1.535in" height="1.73185in" viewBox="0 0 110.52 124.693" xml:space="preserve" color-interpolation-filters="sRGB"
		class="st6">
	<style type="text/css">
	<![CDATA[
		.st1 {fill:url(#grad0-6);stroke:none;stroke-linecap:butt;stroke-width:34}
		.st2 {fill:#e8e8e8;stroke:none;stroke-linecap:butt;stroke-width:34}
		.st3 {fill:#50e6ff;stroke:none;stroke-linecap:butt;stroke-width:34}
		.st4 {fill:#198ab3;stroke:none;stroke-linecap:butt;stroke-width:34}
		.st5 {fill:#f2f2f2;stroke:none;stroke-linecap:butt;stroke-width:34}
		.st6 {fill:none;fill-rule:evenodd;font-size:12px;overflow:visible;stroke-linecap:square;stroke-miterlimit:3}
	]]>
	</style>

	<defs id="Patterns_And_Gradients">
		<linearGradient id="grad0-6" x1="0" y1="0" x2="1" y2="0" gradientTransform="rotate(0 0.5 0.5)">
			<stop offset="0" stop-color="#005ba1" stop-opacity="1"/>
			<stop offset="0.07" stop-color="#0060a9" stop-opacity="1"/>
			<stop offset="0.36" stop-color="#0071c8" stop-opacity="1"/>
			<stop offset="0.52" stop-color="#0078d4" stop-opacity="1"/>
			<stop offset="0.64" stop-color="#0074cd" stop-opacity="1"/>
			<stop offset="0.82" stop-color="#006abb" stop-opacity="1"/>
			<stop offset="1" stop-color="#005ba1" stop-opacity="1"/>
		</linearGradient>
	</defs>
	<g>
		<title>Page-1</title>
		<g id="group3097-1" transform="translate(34,-34)">
			<title>Azure Database For Mariadb</title>
			<g id="group3098-2">
				<title>Icon-databases-123</title>
				<g id="shape3099-3">
					<title>Sheet.3099</title>
					<path d="M21.26 83.47 C9.52 83.47 0 80.14 0 75.74 L0 116.96 C0 121.19 9.35 124.63 20.96 124.69 L21.26 124.69
								 C33 124.69 42.52 121.36 42.52 116.96 L42.52 75.74 C42.52 80.04 33 83.47 21.26 83.47 Z" class="st1"/>
				</g>
				<g id="shape3100-7" transform="translate(0,-41.2191)">
					<title>Sheet.3100</title>
					<path d="M42.52 116.96 C42.52 121.26 33 124.69 21.26 124.69 C9.52 124.69 0 121.36 0 116.96 C0 112.55 9.52 109.22
								 21.26 109.22 C33 109.22 42.52 112.55 42.52 116.96 Z" class="st2"/>
				</g>
				<g id="shape3101-9" transform="translate(4.94184,-44.654)">
					<title>Sheet.3101</title>
					<path d="M32.64 119.76 C32.64 122.49 25.31 124.69 16.32 124.69 C7.33 124.69 0 122.49 0 119.76 C0 117.02 7.33
								 114.86 16.32 114.86 C25.31 114.86 32.64 117.06 32.64 119.76 Z" class="st3"/>
				</g>
				<g id="shape3102-11" transform="translate(8.358,-44.654)">
					<title>Sheet.3102</title>
					<path d="M12.9 120.99 A38.3075 38.5178 -180 0 0 0 122.89 A37.8763 38.0843 -180 0 0 12.9 124.69 A36.9808 37.1839
								 -180 0 0 25.8 122.76 A39.2694 39.4849 -180 0 0 12.9 120.99 Z" class="st4"/>
				</g>
				<g id="shape3103-13" transform="translate(3.4825,-13.7063)">
					<title>Sheet.3103</title>
					<path d="M35.19 101.12 C34.1 101.12 35.39 101.95 31.51 102.12 C27.63 102.28 26.27 106.28 23.75 109.65 A16.3512
								 16.4409 0 0 1 13.8 114.35 A12.1722 12.239 -180 0 0 7.56 118.99 A3.05133 3.06809 0 0 1 5.21 120.72
								 C4.31 120.72 2.35 120.99 2.35 120.99 A11.144 11.2052 -180 0 0 -0 121.79 C0.27 122.89 2.45 122.43
								 2.45 122.43 A17.4125 17.5081 0 0 1 0.73 123.99 A9.28667 9.33766 -180 0 0 4.05 124.16 C5.47 124.16
								 6.57 122.79 9.19 121.36 C11.81 119.92 17.84 121.36 18.81 121.36 C19.77 121.36 21.19 118.82 21.53
								 118.02 C21.79 119.82 18.81 124.69 18.81 124.69 A6.99817 7.03659 -180 0 0 24.31 121.36 C24.58 121.02
								 25.41 119.29 25.51 119.46 C25.6 119.62 26.04 120.09 26.2 120.02 A6.23534 6.26957 -180 0 0 27.03
								 119.12 A25.1403 25.2784 -180 0 0 30.81 110.85 C31.04 110.05 31.04 107.15 33.03 105.95 C35.02 104.75
								 35.29 103.65 35.29 103.55 L35.29 103.38 A5.40617 5.43585 0 0 1 34 102.22 a0.364833 0.366836 0 0
								 1 6.39488E-14 -0.366836 A2.55383 2.56786 -180 0 0 35.59 103.12 C35.59 103.12 36.28 101.12 35.19
								 101.12 ZM31.04 104.65 L30.85 104.65 A1.194 1.20056 0 0 1 29.85 104.38 A1.592 1.60074 0 0 1 31.57
								 103.38 a0.995 1.00046 0 0 1 -0.530667 1.26725 ZM32.9 104.65 A9.31984 9.37101 0 0 1 34 102.72 A10.348
								 10.4048 -180 0 0 32.84 104.78 L32.9 104.65 ZM34.1 102.95 A6.00317 6.03613 -180 0 0 33.83 104.65
								 A5.60517 5.63594 0 0 1 33.83 103.38 A4.64334 4.66883 -180 0 0 33.3 104.68 A4.44434 4.46874 0 0 1
								 34.03 103.08 L34.1 102.95 ZM28.42 118.46 C28.42 118.46 26.8 119.99 26.73 120.52 C26.67 121.06 28.52
								 121.89 29.68 121.59 A25.1403 25.2784 0 0 1 28.42 118.46 Z" class="st5"/>
				</g>
			</g>
		</g>
	</g>
</svg>
