<?xml version="1.0" encoding="UTF-8" standalone="no"?>
<!DOCTYPE svg PUBLIC "-//W3C//DTD SVG 1.1//EN" "http://www.w3.org/Graphics/SVG/1.1/DTD/svg11.dtd">
<!-- Generated by Microsoft Visio, SVG Export Azure Advisor.svg Page-1 -->
<svg xmlns="http://www.w3.org/2000/svg" xmlns:xlink="http://www.w3.org/1999/xlink" xmlns:ev="http://www.w3.org/2001/xml-events"
		width="0.944882in" height="1.21654in" viewBox="0 0 68.0315 87.5906" xml:space="preserve" color-interpolation-filters="sRGB"
		class="st7">
	<style type="text/css">
	<![CDATA[
		.st1 {fill:#59b4d9;stroke:none;stroke-linecap:butt;stroke-width:0.936268}
		.st2 {fill:#ffffff;fill-opacity:0.2;stroke:none;stroke-linecap:butt;stroke-width:0.936268}
		.st3 {fill:#000000;stroke:none;stroke-linecap:butt;stroke-width:0.936268}
		.st4 {fill:#dd5900;stroke:none;stroke-linecap:butt;stroke-width:0.936268}
		.st5 {fill:#ff8c00;stroke:none;stroke-linecap:butt;stroke-width:0.936268}
		.st6 {fill:#ffffff;fill-opacity:0.15;stroke:none;stroke-linecap:butt;stroke-width:0.936268}
		.st7 {fill:none;fill-rule:evenodd;font-size:12px;overflow:visible;stroke-linecap:square;stroke-miterlimit:3}
	]]>
	</style>

	<g>
		<title>Page-1</title>
		<g id="group3283-1" transform="translate(5.66929,-28.3465)">
			<title>Azure Advisor</title>
			<g id="group3284-2">
				<title>g16</title>
				<g id="shape3285-3" transform="translate(0,-20.0913)">
					<title>path4</title>
					<path d="M56.69 81.17 C56.69 77.63 53.67 74.93 50.12 74.93 L49.23 74.93 C49.58 73.58 49.94 72.06 49.94 70.54
								 A17.5215 16.6454 -180 0 0 32.35 53.82 C24.7 53.82 18.13 58.55 15.82 65.3 C14.57 64.97 13.33 64.63
								 11.91 64.63 C5.33 64.63 0 69.69 0 76.11 C0 82.53 5.33 87.59 11.91 87.59 L50.65 87.59 A6.7578 6.41991
								 -180 0 0 56.69 81.17 Z" class="st1"/>
				</g>
				<g id="shape3286-5" transform="translate(0,-20.0913)">
					<title>path6</title>
					<path d="M18.13 87.59 C16.53 86.07 15.46 84.21 14.93 82.02 C13.51 75.77 17.42 69.69 23.99 68.34 C25.41 68.01
								 26.66 68.01 27.9 68.17 C28.43 62.43 32.17 57.2 37.68 54.67 A16.7301 15.8936 -180 0 0 32.35 53.82
								 C24.7 53.82 18.13 58.55 15.82 65.3 C14.57 64.97 13.33 64.63 11.91 64.63 C5.33 64.63 0 69.69 0 76.11
								 C0 82.53 5.33 87.59 11.91 87.59 L18.13 87.59 Z" class="st2"/>
				</g>
				<g id="shape3287-7" transform="translate(26.9189,1.42109E-14)">
					<title>path8</title>
					<path d="M14.5 68.17 C12.7 69.72 10.34 70.65 7.74 70.65 C5.13 70.65 2.77 69.72 0.98 68.17 L0 87.59 L7.74 80.16
								 L15.47 87.59 L14.5 68.17 Z" class="st3"/>
				</g>
				<g id="shape3288-9" transform="translate(21.4617,-13.6164)">
					<title>circle10</title>
					<ellipse cx="13.1936" cy="75.0567" rx="13.1936" ry="12.5339" class="st4"/>
				</g>
				<g id="shape3289-11" transform="translate(24.7192,-16.7111)">
					<title>circle12</title>
					<ellipse cx="9.936" cy="78.1514" rx="9.936" ry="9.4392" class="st5"/>
				</g>
				<g id="shape3290-13" transform="translate(20.16,-17.253)">
					<title>path14</title>
					<path d="M5.13 87.59 C0 82.72 0 74.75 5.13 69.87 C10.26 65 18.65 65 23.78 69.87 L5.13 87.59 Z" class="st6"/>
				</g>
			</g>
		</g>
	</g>
</svg>
