<?xml version="1.0" encoding="UTF-8" standalone="no"?>
<!DOCTYPE svg PUBLIC "-//W3C//DTD SVG 1.1//EN" "http://www.w3.org/Graphics/SVG/1.1/DTD/svg11.dtd">
<!-- Generated by Microsoft Visio, SVG Export Bastion.svg Page-1 -->
<svg xmlns="http://www.w3.org/2000/svg" xmlns:xlink="http://www.w3.org/1999/xlink" xmlns:ev="http://www.w3.org/2001/xml-events"
		width="1.11741in" height="1.34172in" viewBox="0 0 80.4536 96.604" xml:space="preserve" color-interpolation-filters="sRGB"
		class="st2">
	<style type="text/css">
	<![CDATA[
		.st1 {fill:#0072c6;stroke:none;stroke-linecap:butt;stroke-width:12.24}
		.st2 {fill:none;fill-rule:evenodd;font-size:12px;overflow:visible;stroke-linecap:square;stroke-miterlimit:3}
	]]>
	</style>

	<g>
		<title>Page-1</title>
		<g id="group2727-1" transform="translate(12.0002,-28.3465)">
			<title>Bastion</title>
			<g id="group2728-2">
				<title>Sheet.2728</title>
				<g id="shape2729-3">
					<title>Sheet.2729</title>
					<path d="M25.13 82.04 C17.81 87.04 6.09 94.71 4.96 95.6 C3.49 96.6 1.35 96.16 0.68 95.27 C0 94.27 0 92.16 1.47
								 91.16 C2.37 90.6 17.81 80.26 22.54 77.04 L25.25 79.93 C26.49 81.15 25.13 82.04 25.13 82.04 ZM24.8
								 75.04 C24.8 75.04 11.27 60.7 9.69 59.14 C8.23 57.47 9.58 55.59 10.37 54.92 C11.16 54.25 13.53 53.25
								 14.76 54.47 C16 55.7 31.11 71.7 32.23 72.93 C33.36 74.15 33.25 76.04 31.33 77.37 C31 77.6 30.09
								 78.26 28.74 79.15 C28.63 79.26 28.06 79.71 27.5 80.04 C27.5 80.04 28.74 79.15 27.84 78.15 L24.8
								 75.04 ZM34.49 65.59 C40.58 72.04 50.04 82.15 51.06 83.15 C52.3 84.49 54.44 84.49 55.34 83.71 C56.24
								 82.93 56.69 80.93 55.45 79.6 C54.78 78.82 42.04 65.37 38.21 61.25 L34.94 63.48 C33.36 64.37 34.49
								 65.59 34.49 65.59 ZM35.84 59.03 C35.84 59.03 52.18 47.8 53.99 46.47 C55.79 45.14 54.89 43.02 54.21
								 42.25 C53.54 41.47 51.51 39.91 50.04 40.91 C48.58 41.91 30.43 54.36 29.08 55.36 C27.73 56.36 27.39
								 58.14 29.08 59.92 C29.3 60.25 30.09 61.03 31.22 62.25 C31.33 62.37 31.78 62.92 32.23 63.37 C32.23
								 63.37 31.22 62.25 32.35 61.48 L35.84 59.03 Z" class="st1"/>
				</g>
			</g>
		</g>
	</g>
</svg>
