<?xml version="1.0" encoding="UTF-8" standalone="no"?>
<!DOCTYPE svg PUBLIC "-//W3C//DTD SVG 1.1//EN" "http://www.w3.org/Graphics/SVG/1.1/DTD/svg11.dtd">
<!-- Generated by Microsoft Visio, SVG Export Batch AI.svg Page-1 -->
<svg xmlns="http://www.w3.org/2000/svg" xmlns:xlink="http://www.w3.org/1999/xlink" xmlns:ev="http://www.w3.org/2001/xml-events"
		width="0.891181in" height="1.35054in" viewBox="0 0 64.165 97.2386" xml:space="preserve" color-interpolation-filters="sRGB"
		class="st5">
	<style type="text/css">
	<![CDATA[
		.st1 {fill:#7a7a7a;stroke:none;stroke-linecap:butt;stroke-width:12.24}
		.st2 {fill:#ffffff;stroke:none;stroke-linecap:butt;stroke-width:12.24}
		.st3 {fill:#59b4d9;stroke:none;stroke-linecap:butt;stroke-width:12.24}
		.st4 {fill:#3999c6;stroke:none;stroke-linecap:butt;stroke-width:12.24}
		.st5 {fill:none;fill-rule:evenodd;font-size:12px;overflow:visible;stroke-linecap:square;stroke-miterlimit:3}
	]]>
	</style>

	<g>
		<title>Page-1</title>
		<g id="group2720-1" transform="translate(12.24,-28.3465)">
			<title>Batch AI</title>
			<g id="group2721-2">
				<title>Sheet.2721</title>
				<g id="shape2722-3" transform="translate(13.1952,0)">
					<title>Sheet.2722</title>
					<path d="M0 88.14 L13.24 88.14 L13.24 91.55 L0 91.55 L0 88.14 ZM3.31 97.24 L8.83 97.24 L12.85 93.83 L0.15 93.83
								 L3.31 97.24 Z" class="st1"/>
				</g>
				<g id="shape2723-5" transform="translate(0.110374,-11.4855)">
					<title>Sheet.2723</title>
					<path d="M13.28 97.24 a0.452534 0.466243 0 0 1 -0.462468 -0.445774 C12.63 90.69 9.34 86.76 6.16 82.97 C2.99 79.19
								 0 75.62 0 70.13 C0 58.67 7.18 52.09 19.71 52.09 C32.23 52.09 39.41 58.67 39.41 70.13 C39.41 75.62
								 36.42 79.19 33.26 82.97 C30.08 86.76 26.79 90.69 26.6 96.79 a0.452534 0.466243 0 0 1 -0.462468 0.445774
								 L13.28 97.24 Z" class="st2"/>
				</g>
				<g id="shape2724-7" transform="translate(0,-11.3718)">
					<title>Sheet.2724</title>
					<path d="M18.71 53.1 C18.71 52.45 18.18 51.92 17.55 51.96 C6.18 52.73 0 59.36 0 70.01 C0 81.19 12.44 84.66 12.81
								 96.68 a0.56622 0.583373 -180 0 0 0.573946 0.55608 L17.61 97.24 A1.10374 1.13718 -180 0 0 18.71 96.1
								 L18.71 53.1 Z" class="st3"/>
				</g>
				<g id="shape2725-9" transform="translate(20.9711,-11.3718)">
					<title>Sheet.2725</title>
					<path d="M0 53.1 C0 52.45 0.54 51.92 1.17 51.96 C12.53 52.73 18.71 59.36 18.71 70.01 C18.71 81.19 6.27 84.66
								 5.9 96.68 a0.56622 0.583373 0 0 1 -0.573946 0.55608 L1.1 97.24 A1.10374 1.13718 0 0 1 0 96.1 L0
								 53.1 Z" class="st4"/>
				</g>
				<g id="shape2726-11" transform="translate(3.1843,-17.6126)">
					<title>Sheet.2726</title>
					<path d="M23.36 75.93 L22.37 73.9 L16.63 76.85 L10.9 73.9 L9.91 75.93 L15.95 79.04 L17.32 79.04 L23.36 75.93
								 ZM23.14 94.24 L22.15 92.21 L16.63 95.05 L11.12 92.21 L10.13 94.24 L15.95 97.24 L17.32 97.24 L23.14
								 94.24 ZM10.93 67.54 L10.23 65.38 L5.44 67.03 L1.69 63.16 C1.15 63.69 0.66 64.26 0.21 64.86 L3.88
								 68.64 L2.28 73.57 L4.38 74.29 L6.02 69.23 L10.93 67.54 ZM32.57 64.22 A14.6025 15.0449 -180 0 0 30.99
								 62.63 L26.72 67.03 L21.93 65.38 L21.23 67.54 L26.15 69.23 L27.78 74.29 L29.88 73.57 L28.28 68.64
								 L32.57 64.22 ZM33.27 85.38 L28.18 83.37 L27.75 78.32 L25.55 78.52 L26.01 83.84 L22.15 87.4 L23.63
								 89.1 L27.48 85.53 L31.85 87.25 A37.8694 39.0166 -180 0 0 33.27 85.38 ZM11.11 87.4 L7.26 83.84 L7.72
								 78.52 L5.52 78.32 L5.09 83.37 L0 85.38 C0.45 86.02 0.92 86.64 1.42 87.25 L5.78 85.53 L9.64 89.1
								 L11.11 87.4 Z" class="st2"/>
				</g>
			</g>
		</g>
	</g>
</svg>
