<?xml version="1.0" encoding="UTF-8" standalone="no"?>
<!DOCTYPE svg PUBLIC "-//W3C//DTD SVG 1.1//EN" "http://www.w3.org/Graphics/SVG/1.1/DTD/svg11.dtd">
<!-- Generated by Microsoft Visio, SVG Export Blockchain Consortium.svg Page-1 -->
<svg xmlns="http://www.w3.org/2000/svg" xmlns:xlink="http://www.w3.org/1999/xlink" xmlns:ev="http://www.w3.org/2001/xml-events"
		width="0.944882in" height="1.25984in" viewBox="0 0 68.0315 90.7087" xml:space="preserve" color-interpolation-filters="sRGB"
		class="st16">
	<style type="text/css">
	<![CDATA[
		.st1 {fill:#773adc;stroke:none;stroke-linecap:butt;stroke-width:0.75}
		.st2 {fill:#552f99;stroke:none;stroke-linecap:butt;stroke-width:0.75}
		.st3 {fill:#b796f9;stroke:none;stroke-linecap:butt;stroke-width:0.75}
		.st4 {fill:#a67af4;stroke:none;stroke-linecap:butt;stroke-width:0.75}
		.st5 {fill:#5e9624;stroke:none;stroke-linecap:butt;stroke-width:0.75}
		.st6 {fill:#76bc2d;stroke:none;stroke-linecap:butt;stroke-width:0.75}
		.st7 {fill:#32bedd;stroke:none;stroke-linecap:butt;stroke-width:0.75}
		.st8 {fill:#258277;stroke:none;stroke-linecap:butt;stroke-width:0.75}
		.st9 {fill:#37c2b1;stroke:none;stroke-linecap:butt;stroke-width:0.75}
		.st10 {fill:#d15900;stroke:none;stroke-linecap:butt;stroke-width:0.75}
		.st11 {fill:#f78d1e;stroke:none;stroke-linecap:butt;stroke-width:0.75}
		.st12 {fill:#207067;stroke:none;stroke-linecap:butt;stroke-width:0.75}
		.st13 {fill:#ffb34d;stroke:none;stroke-linecap:butt;stroke-width:0.75}
		.st14 {fill:#42e8ca;stroke:none;stroke-linecap:butt;stroke-width:0.75}
		.st15 {fill:#b4ec36;stroke:none;stroke-linecap:butt;stroke-width:0.75}
		.st16 {fill:none;fill-rule:evenodd;font-size:12px;overflow:visible;stroke-linecap:square;stroke-miterlimit:3}
	]]>
	</style>

	<g>
		<title>Page-1</title>
		<g id="group2673-1" transform="translate(5.66929,-28.3465)">
			<title>Blockchain Consortium</title>
			<g id="group2674-2">
				<title>Sheet.2674</title>
				<g id="shape2675-3" transform="translate(28.0243,-32.3502)">
					<title>Sheet.2675</title>
					<path d="M10.31 72.45 L10.31 84.62 L0 90.71 L0 78.54 L10.31 72.45 Z" class="st1"/>
				</g>
				<g id="shape2676-5" transform="translate(31.5676,-37.981)">
					<title>Sheet.2676</title>
					<path d="M2.25 84.53 C3.67 83.68 4.51 84.25 4.51 85.93 A5.72083 5.68851 0 0 1 2.25 89.87 C1.12 90.71 0 90.15
								 0 88.46 A5.72083 5.68851 0 0 1 2.25 84.53 Z" class="st2"/>
				</g>
				<g id="shape2677-7" transform="translate(17.3944,-44.5216)">
					<title>Sheet.2677</title>
					<path d="M20.94 84.62 L10.63 90.71 L0 84.62 L10.63 78.54 L20.94 84.62 Z" class="st3"/>
				</g>
				<g id="shape2678-9" transform="translate(17.3944,-32.3502)">
					<title>Sheet.2678</title>
					<path d="M10.63 78.54 L10.63 90.71 L0 84.62 L0 72.45 L10.63 78.54 Z" class="st4"/>
				</g>
				<g id="shape2679-11" transform="translate(19.7008,-38.1156)">
					<title>Sheet.2679</title>
					<path d="M2.58 84.62 C1.29 83.98 0 84.62 0 85.9 A4.64173 4.61551 -180 0 0 2.58 90.07 C3.87 90.71 5.15 90.07 5.15
								 88.79 A5.32462 5.29454 -180 0 0 2.58 84.62 Z" class="st1"/>
				</g>
				<g id="shape2680-13" transform="translate(46.3851,-16.3352)">
					<title>Sheet.2680</title>
					<path d="M10.31 72.45 L10.31 84.62 L0 90.71 L0 78.54 L10.31 72.45 Z" class="st5"/>
				</g>
				<g id="shape2681-15" transform="translate(36.0773,-16.3352)">
					<title>Sheet.2681</title>
					<path d="M10.31 78.54 L10.31 90.71 L0 84.62 L0 72.45 L10.31 78.54 Z" class="st6"/>
				</g>
				<g id="shape2682-17" transform="translate(38.9764,-21.46)">
					<title>Sheet.2682</title>
					<path d="M2.58 84.62 C1.29 83.98 0 84.62 0 85.9 A4.64173 4.61551 -180 0 0 2.58 90.07 C3.87 90.71 5.15 90.07 5.15
								 88.79 A5.32462 5.29454 -180 0 0 2.58 84.62 Z" class="st5"/>
				</g>
				<g id="group2683-19" transform="translate(33.1782,-30.7487)">
					<title>Sheet.2683</title>
					<g id="shape2684-20" transform="translate(0,-5.39063)">
						<title>Sheet.2684</title>
						<path d="M8.49 89.13 A16.5923 16.4986 -180 0 0 2.25 84.57 A1.66535 1.65595 -180 0 0 0 85.53 A1.43665 1.42853
									 -180 0 0 0.97 87.45 A13.7094 13.6319 0 0 1 5.67 90.71 L8.49 89.13 Z" class="st7"/>
					</g>
					<g id="shape2685-22" transform="translate(8.48461,0)">
						<title>Sheet.2685</title>
						<path d="M0 90.16 C0.06 90.35 0.16 90.52 0.21 90.71 L0.6 90.52 L0 90.16 Z" class="st7"/>
					</g>
				</g>
				<g id="shape2686-24" transform="translate(10.3078,-16.0149)">
					<title>Sheet.2686</title>
					<path d="M10.63 72.77 L10.63 84.62 L0 90.71 L0 78.86 L10.63 72.77 Z" class="st8"/>
				</g>
				<g id="shape2687-26" transform="translate(5.69544E-14,-16.0149)">
					<title>Sheet.2687</title>
					<path d="M10.31 78.86 L10.31 90.71 L0 84.62 L0 72.77 L10.31 78.86 Z" class="st9"/>
				</g>
				<g id="shape2688-28" transform="translate(14.6306,-35.6204)">
					<title>Sheet.2688</title>
					<path d="M8.56 85.01 A2.1582 2.146 -180 0 0 5.98 84.05 A21.2598 21.1397 -180 0 0 0 88.77 L3.41 90.71 A14.9656
								 14.8811 0 0 1 7.6 87.57 A2.1582 2.146 -180 0 0 8.56 85.01 Z" class="st7"/>
				</g>
				<g id="shape2689-30" transform="translate(28.9907,0)">
					<title>Sheet.2689</title>
					<path d="M10.31 72.45 L10.31 84.62 L0 90.71 L0 78.54 L10.31 72.45 Z" class="st10"/>
				</g>
				<g id="shape2690-32" transform="translate(18.6829,0)">
					<title>Sheet.2690</title>
					<path d="M10.31 78.54 L10.31 90.71 L0 84.62 L0 72.45 L10.31 78.54 Z" class="st11"/>
				</g>
				<g id="shape2691-34" transform="translate(34.9853,-18.9681)">
					<title>Sheet.2691</title>
					<path d="M6.89 84.69 A1.67824 1.66876 -180 0 0 4.31 85.01 A16.9435 16.8477 0 0 1 -0 88.87 L3.11 90.71 A19.2369
								 19.1283 -180 0 0 7.21 87.26 A1.67824 1.66876 -180 0 0 6.89 84.69 Z" class="st7"/>
				</g>
				<g id="shape2692-36" transform="translate(13.6095,-21.1045)">
					<title>Sheet.2692</title>
					<path d="M2.54 84.07 C4 83.27 5.07 83.94 5.07 85.53 A5.82713 5.79421 0 0 1 2.54 89.91 C1.07 90.71 0 90.04 0 88.45
								 A5.47602 5.44508 0 0 1 2.54 84.07 Z" class="st12"/>
				</g>
				<g id="shape2693-38" transform="translate(14.7047,-18.7855)">
					<title>Sheet.2693</title>
					<path d="M8.56 88.53 A13.7351 13.6575 0 0 1 3.33 84.51 A1.70401 1.69438 -180 0 0 0.76 84.19 A1.70401 1.69438
								 -180 0 0 0.43 86.75 A17.7938 17.6933 -180 0 0 4.88 90.71 L8.56 88.53 Z" class="st7"/>
				</g>
				<g id="shape2694-40" transform="translate(18.6829,-12.1714)">
					<title>Sheet.2694</title>
					<path d="M20.62 84.62 L10.31 90.71 L0 84.62 L10.31 78.54 L20.62 84.62 Z" class="st13"/>
				</g>
				<g id="shape2695-42" transform="translate(0,-27.866)">
					<title>Sheet.2695</title>
					<path d="M20.94 84.62 L10.31 90.71 L0 84.62 L10.31 78.54 L20.94 84.62 Z" class="st14"/>
				</g>
				<g id="shape2696-44" transform="translate(36.0773,-28.5066)">
					<title>Sheet.2696</title>
					<path d="M20.62 84.62 L10.31 90.71 L0 84.62 L10.31 78.86 L20.62 84.62 Z" class="st15"/>
				</g>
			</g>
		</g>
	</g>
</svg>
