<?xml version="1.0" encoding="UTF-8" standalone="no"?>
<!DOCTYPE svg PUBLIC "-//W3C//DTD SVG 1.1//EN" "http://www.w3.org/Graphics/SVG/1.1/DTD/svg11.dtd">
<!-- Generated by Microsoft Visio, SVG Export Blockchain Devkit.svg Page-1 -->
<svg xmlns="http://www.w3.org/2000/svg" xmlns:xlink="http://www.w3.org/1999/xlink" xmlns:ev="http://www.w3.org/2001/xml-events"
		width="0.944882in" height="1.25984in" viewBox="0 0 68.0315 90.7087" xml:space="preserve" color-interpolation-filters="sRGB"
		class="st6">
	<style type="text/css">
	<![CDATA[
		.st1 {fill:#773adc;stroke:none;stroke-linecap:butt;stroke-width:0.75}
		.st2 {fill:#b796f9;stroke:none;stroke-linecap:butt;stroke-width:0.75}
		.st3 {fill:#a67af4;stroke:none;stroke-linecap:butt;stroke-width:0.75}
		.st4 {fill:#198ab3;stroke:none;stroke-linecap:butt;stroke-width:0.75}
		.st5 {fill:url(#grad0-15);stroke:none;stroke-linecap:butt;stroke-width:0.75}
		.st6 {fill:none;fill-rule:evenodd;font-size:12px;overflow:visible;stroke-linecap:square;stroke-miterlimit:3}
	]]>
	</style>

	<defs id="Patterns_And_Gradients">
		<linearGradient id="grad0-15" x1="0" y1="0" x2="1" y2="0" gradientTransform="rotate(90 0.5 0.5)">
			<stop offset="0" stop-color="#32d4f5" stop-opacity="1"/>
			<stop offset="1" stop-color="#198ab3" stop-opacity="1"/>
		</linearGradient>
	</defs>
	<g>
		<title>Page-1</title>
		<g id="group2657-1" transform="translate(5.66929,-28.3465)">
			<title>Blockchain Devkit</title>
			<g id="group2658-2">
				<title>Sheet.2658</title>
				<g id="group2659-3" transform="translate(0,-3.84406)">
					<title>Sheet.2659</title>
					<g id="shape2660-4" transform="translate(22.7928,2.70006E-13)">
						<title>Sheet.2660</title>
						<path d="M22.8 51.11 L22.8 77.46 L0 90.71 L0 64.31 L22.8 51.11 Z" class="st1"/>
					</g>
					<g id="shape2661-6" transform="translate(0,-26.3603)">
						<title>Sheet.2661</title>
						<path d="M45.59 77.47 L22.8 90.71 L0 77.46 L22.8 64.22 L45.59 77.47 Z" class="st2"/>
					</g>
					<g id="shape2662-8">
						<title>Sheet.2662</title>
						<path d="M22.79 64.35 L22.79 90.71 L0 77.46 L0 51.1 L22.79 64.35 Z" class="st3"/>
					</g>
				</g>
				<g id="shape2663-10" transform="translate(28.6463,0)">
					<title>b27129ef-d9eb-4579-8bb0-024170d</title>
					<path d="M23.78 67.59 L23.92 67.72 a0.251488 0.249892 -180 0 0 0.330906 -4.26326E-14 L25.57 66.61 L28.01 62.63
								 a0.254797 0.25318 -180 0 0 -0.0363996 -0.309077 L27.59 61.94 a0.254797 0.25318 -180 0 0 -0.330906
								 -0.0295925 L23.44 64.44 L22.36 65.83 a0.248179 0.246604 -180 0 0 0.0231634 0.328805 L22.53 66.31
								 L14.59 74.43 L12.95 72.75 L11.14 74.61 A3.2528 3.23215 0 0 1 10.29 77.2 A2.86895 2.85074 0 0 1 7.81
								 78.1 L0.14 85.95 a0.502977 0.499784 -180 0 0 -5.38458E-15 0.697067 L3.92 90.55 a0.502977 0.499784
								 -180 0 0 0.727993 0 L12.26 82.69 A3.11051 3.09077 0 0 1 13.17 80.1 A2.87888 2.8606 0 0 1 15.65 79.2
								 L17.47 77.33 L15.83 75.65 L23.78 67.59 Z" class="st4"/>
				</g>
				<g id="shape2664-12" transform="translate(28.9311,-0.0389779)">
					<title>Sheet.2664</title>
					<path d="M26.62 85.48 L24.73 83.55 L12.69 71.19 L12.09 70.56 A6.71739 6.67474 -180 0 0 10.52 63.98 A6.22765 6.18811
								 -180 0 0 4.92 62.19 a0.251488 0.249892 -180 0 0 -0.135671 0.424159 L7.94 65.8 a0.254797 0.25318
								 0 0 1 0.0661812 0.23674 L7.16 69.31 a0.254797 0.25318 0 0 1 -0.178689 0.180843 L3.76 70.38 a0.254797
								 0.25318 0 0 1 -0.248179 -0.0690491 L0.43 67.15 a0.254797 0.25318 -180 0 0 -0.433487 0.131522 A6.61812
								 6.5761 -180 0 0 1.74 73.02 A6.12507 6.08618 -180 0 0 7.86 74.65 L7.98 74.76 L8.64 75.46 L22.44 89.81
								 A2.85572 2.83759 -180 0 0 26.48 89.95 C26.53 89.9 26.57 89.86 26.62 89.81 A3.00793 2.98884 -180
								 0 0 27.47 87.64 A3.2892 3.26832 -180 0 0 26.62 85.48 Z" class="st5"/>
				</g>
			</g>
		</g>
	</g>
</svg>
