<?xml version="1.0" encoding="UTF-8" standalone="no"?>
<!DOCTYPE svg PUBLIC "-//W3C//DTD SVG 1.1//EN" "http://www.w3.org/Graphics/SVG/1.1/DTD/svg11.dtd">
<!-- Generated by Microsoft Visio, SVG Export Blockchain Streaming.svg Page-1 -->
<svg xmlns="http://www.w3.org/2000/svg" xmlns:xlink="http://www.w3.org/1999/xlink" xmlns:ev="http://www.w3.org/2001/xml-events"
		width="0.944882in" height="1.08661in" viewBox="0 0 68.0315 78.2362" xml:space="preserve" color-interpolation-filters="sRGB"
		class="st7">
	<style type="text/css">
	<![CDATA[
		.st1 {fill:#773adc;stroke:none;stroke-linecap:butt;stroke-width:0.75}
		.st2 {fill:#b796f9;stroke:none;stroke-linecap:butt;stroke-width:0.75}
		.st3 {fill:#a67af4;stroke:none;stroke-linecap:butt;stroke-width:0.75}
		.st4 {fill:#552f99;stroke:none;stroke-linecap:butt;stroke-width:0.75}
		.st5 {fill:#50e6ff;stroke:none;stroke-linecap:butt;stroke-width:0.75}
		.st6 {fill:#32bedd;stroke:none;stroke-linecap:butt;stroke-width:0.75}
		.st7 {fill:none;fill-rule:evenodd;font-size:12px;overflow:visible;stroke-linecap:square;stroke-miterlimit:3}
	]]>
	</style>

	<g>
		<title>Page-1</title>
		<g id="group2650-1" transform="translate(5.66929,-28.3465)">
			<title>Blockchain Streaming</title>
			<g id="shape2651-2" transform="translate(26.7185,-8.06007)">
				<title>Sheet.2651</title>
				<path d="M16.85 50.28 L16.85 68.87 L0 78.24 L0 59.59 L16.85 50.28 Z" class="st1"/>
			</g>
			<g id="shape2652-4" transform="translate(9.83188,-26.677)">
				<title>Sheet.2652</title>
				<path d="M33.74 68.9 L16.89 78.24 L0 68.9 L16.89 59.56 L33.74 68.9 Z" class="st2"/>
			</g>
			<g id="shape2653-6" transform="translate(9.83188,-8.06007)">
				<title>Sheet.2653</title>
				<path d="M16.89 59.62 L16.89 78.24 L0 68.87 L0 50.28 L16.89 59.62 Z" class="st3"/>
			</g>
			<g id="shape2654-8" transform="translate(31.2194,-16.6734)">
				<title>Sheet.2654</title>
				<path d="M3.99 68.29 C6.22 67.08 8.01 68.05 8.01 70.47 A8.84231 8.37156 0 0 1 4.02 77.03 C1.79 78.24 0 77.27 0 74.85
							 A8.84231 8.37156 0 0 1 3.99 68.29 Z" class="st4"/>
			</g>
			<g id="shape2655-10" transform="translate(34.3477,-20.149)">
				<title>Sheet.2655</title>
				<path d="M12.07 78.24 L2.01 78.24 A2.01107 1.904 0 0 1 2.01 74.43 L12.07 74.43 A6.57587 6.22578 -180 0 0 18.45 67.99
							 A6.57587 6.22578 -180 0 0 12.07 61.52 A2.01107 1.904 0 0 1 12.07 57.72 A10.5661 10.0036 0 0 1 22.35
							 67.99 A10.5661 10.0036 0 0 1 12.07 78.24 Z" class="st5"/>
			</g>
			<g id="shape2656-12">
				<title>Sheet.2656</title>
				<path d="M37.73 70.3 L29.97 62.95 a0.414982 0.392889 -180 0 0 -0.638434 -2.13163E-14 L29.34 68.6 L10.18 68.6 A6.57587
							 6.22578 0 0 1 3.8 62.14 A6.60779 6.25601 0 0 1 9.83 55.76 L9.83 51.95 A10.6299 10.064 -180 0 0 0 62.2
							 A10.598 10.0338 -180 0 0 10.28 72.47 L29.43 72.47 L29.43 78.09 a0.414982 0.392889 -180 0 0 0.638434
							 7.10543E-14 L37.73 70.69 a0.351139 0.332445 -180 0 0 -9.23706E-14 -0.392889 Z" class="st6"/>
			</g>
		</g>
	</g>
</svg>
