<?xml version="1.0" encoding="UTF-8" standalone="no"?>
<!DOCTYPE svg PUBLIC "-//W3C//DTD SVG 1.1//EN" "http://www.w3.org/Graphics/SVG/1.1/DTD/svg11.dtd">
<!-- Generated by Microsoft Visio, SVG Export Blockchain Connection.svg Page-1 -->
<svg xmlns="http://www.w3.org/2000/svg" xmlns:xlink="http://www.w3.org/1999/xlink" xmlns:ev="http://www.w3.org/2001/xml-events"
		width="1.66763in" height="1.58889in" viewBox="0 0 120.069 114.4" xml:space="preserve" color-interpolation-filters="sRGB"
		class="st5">
	<style type="text/css">
	<![CDATA[
		.st1 {fill:#773adc;stroke:none;stroke-linecap:butt;stroke-width:31.6881}
		.st2 {fill:#b796f9;stroke:none;stroke-linecap:butt;stroke-width:31.6881}
		.st3 {fill:#a67af4;stroke:none;stroke-linecap:butt;stroke-width:31.6881}
		.st4 {fill:#32bedd;stroke:none;stroke-linecap:butt;stroke-width:31.6881}
		.st5 {fill:none;fill-rule:evenodd;font-size:12px;overflow:visible;stroke-linecap:square;stroke-miterlimit:3}
	]]>
	</style>

	<g>
		<title>Page-1</title>
		<g id="group2697-1" transform="translate(31.6881,-31.6881)">
			<title>Blockchain Connection</title>
			<g id="group2698-2">
				<title>layer1</title>
				<g id="shape2699-3" transform="translate(28.4156,-9.92362)">
					<title>polygon4</title>
					<path d="M17.73 83.61 L17.73 104.12 L0 114.4 L0 93.88 L17.73 83.61 Z" class="st1"/>
				</g>
				<g id="shape2700-5" transform="translate(10.6876,-30.4112)">
					<title>polygon6</title>
					<path d="M35.46 104.09 L17.73 114.4 L0 104.09 L17.73 93.79 L35.46 104.09 Z" class="st2"/>
				</g>
				<g id="shape2701-7" transform="translate(10.6876,-9.92362)">
					<title>polygon8</title>
					<path d="M17.73 93.91 L17.73 114.4 L0 104.12 L0 83.61 L17.73 93.91 Z" class="st3"/>
				</g>
				<g id="shape2702-9" transform="translate(14.8367,-19.1681)">
					<title>path10</title>
					<path d="M4.21 103.44 C1.89 102.13 0 103.19 0 105.84 A9.20977 9.15068 -180 0 0 4.21 113.06 C6.51 114.4 8.42 113.34
								 8.42 110.68 A9.4298 9.3693 -180 0 0 4.21 103.44 Z" class="st1"/>
				</g>
				<g id="shape2703-11">
					<title>path12</title>
					<path d="M56.58 105.6 L48.44 97.48 a0.440058 0.437234 -180 0 0 -0.660539 2.27374E-13 L47.78 103.73 L10.56 103.73
								 A6.28654 6.2462 0 1 1 10.56 91.23 L18.07 91.23 A2.13742 2.12371 -180 0 0 20.18 89.11 A2.10599 2.09248
								 -180 0 0 18.07 87.02 L10.56 87.02 A10.5614 10.4936 -180 0 0 10.56 108.01 L47.65 108.01 L47.65 114.25
								 a0.440058 0.437234 -180 0 0 0.660528 -9.9476E-14 L56.58 106.16 a0.408625 0.406003 -180 0 0 1.13687E-13
								 -0.561867 L56.58 105.6 Z" class="st4"/>
				</g>
			</g>
		</g>
	</g>
</svg>
