<?xml version="1.0" encoding="UTF-8" standalone="no"?>
<!DOCTYPE svg PUBLIC "-//W3C//DTD SVG 1.1//EN" "http://www.w3.org/Graphics/SVG/1.1/DTD/svg11.dtd">
<!-- Generated by Microsoft Visio, SVG Export Blueprint.svg Page-1 -->
<svg xmlns="http://www.w3.org/2000/svg" xmlns:xlink="http://www.w3.org/1999/xlink" xmlns:ev="http://www.w3.org/2001/xml-events"
		width="1.1274in" height="1.31173in" viewBox="0 0 81.1729 94.4447" xml:space="preserve" color-interpolation-filters="sRGB"
		class="st4">
	<style type="text/css">
	<![CDATA[
		.st1 {fill:#59b4d9;stroke:none;stroke-linecap:butt;stroke-width:12.24}
		.st2 {fill:#ffffff;fill-opacity:0.7;stroke:none;stroke-linecap:butt;stroke-width:12.24}
		.st3 {fill:#0072c6;stroke:none;stroke-linecap:butt;stroke-width:12.24}
		.st4 {fill:none;fill-rule:evenodd;font-size:12px;overflow:visible;stroke-linecap:square;stroke-miterlimit:3}
	]]>
	</style>

	<g>
		<title>Page-1</title>
		<g id="group2629-1" transform="translate(12.24,-28.3465)">
			<title>Blueprint</title>
			<g id="group2630-2">
				<title>Sheet.2630</title>
				<g id="shape2631-3" transform="translate(1.1811,-1.11002)">
					<title>Sheet.2631</title>
					<path d="M48.9 94.33 C48.33 94.33 48.91 94.44 48.43 94.33 L48.43 88.51 L5.91 88.51 C5.66 88.51 0 88.46 0 83.82
								 L0 47.44 C0 44.3 2.76 42.87 5.31 42.87 C7.87 42.87 10.63 44.3 10.63 47.44 L10.63 48.62 L43.82 48.62
								 C50.21 48.62 54.33 50.53 54.33 56.95 L54.33 90.86 C54.33 93.49 51.94 94.33 48.9 94.33 Z"
							class="st1"/>
				</g>
				<g id="shape2632-5" transform="translate(1.1811,-1.11002)">
					<title>Sheet.2632</title>
					<path d="M48.9 94.33 C48.33 94.33 48.91 94.44 48.43 94.33 L48.43 88.51 L5.91 88.51 C5.66 88.51 0 88.46 0 83.82
								 L0 47.44 C0 44.3 2.76 42.87 5.31 42.87 C7.87 42.87 10.63 44.3 10.63 47.44 L10.63 48.62 L43.82 48.62
								 C50.21 48.62 54.33 50.53 54.33 56.95 L54.33 90.86 C54.33 93.49 51.94 94.33 48.9 94.33 Z"
							class="st2"/>
				</g>
				<g id="shape2633-7">
					<title>Sheet.2633</title>
					<path d="M45 46.34 L12.99 46.34 C12.99 42.82 10.04 40.59 6.5 40.59 C2.95 40.59 0 42.82 0 46.34 L0 81.54 C0 87.4
								 3.54 88.58 7.09 88.58 L48.43 88.58 L48.43 94.44 C48.43 94.44 56.69 94.44 56.69 88.58 L56.69 55.84
								 C56.69 48.8 53.15 46.34 45 46.34 ZM54.33 88.81 C54.33 88.81 51.97 86.23 47.36 86.23 L7.09 86.23
								 C4.72 86.23 2.36 85.64 2.36 82.12 C2.36 80.13 3.9 78.02 7.09 78.02 C10.63 78.02 12.87 81.54 12.87
								 81.54 L12.99 81.54 L12.99 48.68 L46.18 48.68 C50.91 48.68 54.33 49.97 54.33 54.67 L54.33 88.81 Z"
							class="st3"/>
				</g>
				<g id="shape2634-9" transform="translate(25.9843,-14.1381)">
					<title>Sheet.2634</title>
					<path d="M15.35 89.75 L17.13 94.44 L18.9 89.75 L15.35 89.75 ZM15.35 73.33 L18.9 73.33 L18.9 87.41 L15.35 87.41
								 L15.35 73.33 ZM17.13 67.58 C18.1 67.58 18.9 68.33 18.9 69.27 L18.87 70.98 L15.35 70.95 L15.35 69.27
								 C15.35 68.33 16.15 67.58 17.13 67.58 ZM1.18 66.4 C1.83 66.4 2.36 67.16 2.36 68.1 L2.34 69.8 L0 69.77
								 L0 68.1 C0 67.16 0.53 66.4 1.18 66.4 Z" class="st3"/>
				</g>
				<g id="shape2635-11" transform="translate(22.5591,-30.6816)">
					<title>Sheet.2635</title>
					<path d="M4.61 85.29 A4.6063 4.57619 -180 1 0 4.61 94.44 A4.6063 4.57619 -180 0 0 4.61 85.29 ZM4.61 93.27 C2.72
								 93.27 1.18 91.74 1.18 89.87 C1.18 87.99 2.72 86.47 4.61 86.47 C6.49 86.47 8.03 87.99 8.03 89.87
								 C8.03 91.74 6.49 93.27 4.61 93.27 Z" class="st3"/>
				</g>
				<g id="shape2636-13" transform="translate(19.8791,-13.2182)">
					<title>Sheet.2636</title>
					<path d="M7.29 75.82 L7.29 73.58 L5.08 75.11 L0.34 89.62 L0 94.44 L2.58 90.34 L2.58 90.34 L7.33 75.84 L7.29 75.82
								 Z" class="st3"/>
				</g>
				<g id="shape2637-15" transform="translate(27.124,-13.2182)">
					<title>Sheet.2637</title>
					<path d="M6.99 89.62 L2.25 75.11 L0.04 73.58 L0.04 75.82 L0 75.84 L4.74 90.34 L4.75 90.34 L7.33 94.44 L6.99 89.62
								 Z" class="st3"/>
				</g>
				<g id="shape2638-17" transform="translate(17.126,-23.524)">
					<title>Sheet.2638</title>
					<path d="M19.49 94.44 L0.59 94.44 a0.590551 0.586691 0 1 1 -8.54872E-15 -1.17338 L19.49 93.27 a0.590551 0.586691
								 0 0 1 0 1.17338 Z" class="st3"/>
				</g>
			</g>
		</g>
	</g>
</svg>
