<?xml version="1.0" encoding="UTF-8" standalone="no"?>
<!DOCTYPE svg PUBLIC "-//W3C//DTD SVG 1.1//EN" "http://www.w3.org/Graphics/SVG/1.1/DTD/svg11.dtd">
<!-- Generated by Microsoft Visio, SVG Export Bot Service.svg Page-1 -->
<svg xmlns="http://www.w3.org/2000/svg" xmlns:xlink="http://www.w3.org/1999/xlink" xmlns:ev="http://www.w3.org/2001/xml-events"
		width="1.7979in" height="1.7979in" viewBox="0 0 129.449 129.449" xml:space="preserve" color-interpolation-filters="sRGB"
		class="st4">
	<style type="text/css">
	<![CDATA[
		.st1 {fill:url(#grad7-6);stroke:none;stroke-linecap:butt;stroke-width:33.6947}
		.st2 {fill:#ffffff;stroke:none;stroke-linecap:butt;stroke-width:33.6947}
		.st3 {fill:#32bedd;stroke:none;stroke-linecap:butt;stroke-width:33.6947}
		.st4 {fill:none;fill-rule:evenodd;font-size:12px;overflow:visible;stroke-linecap:square;stroke-miterlimit:3}
	]]>
	</style>

	<defs id="Patterns_And_Gradients">
		<radialGradient id="grad7-6" cx="0" cy="0" r="1.4">
			<stop offset="0.67" stop-color="#6bb9f2" stop-opacity="1"/>
			<stop offset="0.74" stop-color="#61b4f1" stop-opacity="1"/>
			<stop offset="0.85" stop-color="#47a8ef" stop-opacity="1"/>
			<stop offset="0.99" stop-color="#1d94eb" stop-opacity="1"/>
			<stop offset="1" stop-color="#1b93eb" stop-opacity="1"/>
		</radialGradient>
	</defs>
	<g>
		<title>Page-1</title>
		<g id="group2621-1" transform="translate(39.061,-39.061)">
			<title>Bot Service</title>
			<g id="group2622-2">
				<title>layer1</title>
				<g id="shape2623-3" transform="translate(3.72206,-3.72205)">
					<title>f6a29e1b-194b-4d8d-8529-49edea7</title>
					<path d="M21.94 76.48 A31.0296 31.0296 -180 1 0 52.97 107.51 A31.0296 31.0296 -180 0 0 21.94 76.48 Z"
							class="st1"/>
				</g>
				<g id="shape2624-7">
					<title>circle18</title>
					<ellipse cx="25.6633" cy="103.785" rx="25.6633" ry="25.6633" class="st2"/>
				</g>
				<g id="shape2625-9" transform="translate(17.1941,-22.8524)">
					<title>circle20</title>
					<ellipse cx="2.81092" cy="126.638" rx="2.81092" ry="2.81092" class="st3"/>
				</g>
				<g id="shape2626-11" transform="translate(9.56441,-9.60091)">
					<title>path22</title>
					<path d="M2.45 105.35 L1.06 105.35 A1.05866 1.05866 -180 0 0 0 106.41 L0 127.29 A2.15382 2.15382 -180 0 0 2.15
								 129.45 L22.49 129.45 A1.05866 1.05866 -180 0 0 23.55 128.35 L23.55 126.97 A1.05866 1.05866 -180
								 0 0 22.49 125.91 L4.23 125.91 a0.511076 0.511076 0 0 1 -0.511078 -0.547554 L3.72 106.41 A1.05866
								 1.05866 -180 0 0 2.45 105.35 Z" class="st3"/>
				</g>
				<g id="shape2627-13" transform="translate(28.5108,-22.8524)">
					<title>circle24</title>
					<ellipse cx="2.81092" cy="126.638" rx="2.81092" ry="2.81092" class="st3"/>
				</g>
				<g id="shape2628-15" transform="translate(18.1432,-17.6321)">
					<title>path26</title>
					<path d="M20 105.35 L1.06 105.35 A1.05866 1.05866 -180 0 0 0 106.45 L0 107.84 A1.05866 1.05866 -180 0 0 1.06
								 108.9 L19.31 108.9 a0.547581 0.547581 0 0 1 0.547585 0.547583 L19.86 128.39 A1.05866 1.05866 -180
								 0 0 20.92 129.45 L22.3 129.45 A1.05866 1.05866 -180 0 0 23.36 128.39 L23.36 107.51 A2.15382 2.15382
								 -180 0 0 21.25 105.35 L20 105.35 Z" class="st3"/>
				</g>
			</g>
		</g>
	</g>
</svg>
