<?xml version="1.0" encoding="UTF-8" standalone="no"?>
<!DOCTYPE svg PUBLIC "-//W3C//DTD SVG 1.1//EN" "http://www.w3.org/Graphics/SVG/1.1/DTD/svg11.dtd">
<!-- Generated by Microsoft Visio, SVG Export Budget.svg Page-1 -->
<svg xmlns="http://www.w3.org/2000/svg" xmlns:xlink="http://www.w3.org/1999/xlink" xmlns:ev="http://www.w3.org/2001/xml-events"
		width="1.07653in" height="1.3511in" viewBox="0 0 77.5101 97.2794" xml:space="preserve" color-interpolation-filters="sRGB"
		class="st4">
	<style type="text/css">
	<![CDATA[
		.st1 {fill:#ff8c00;stroke:none;stroke-linecap:butt;stroke-width:12.24}
		.st2 {fill:#57a300;fill-opacity:0.2;stroke:none;stroke-linecap:butt;stroke-width:12.24}
		.st3 {fill:#57a300;stroke:none;stroke-linecap:butt;stroke-width:12.24}
		.st4 {fill:none;fill-rule:evenodd;font-size:12px;overflow:visible;stroke-linecap:square;stroke-miterlimit:3}
	]]>
	</style>

	<g>
		<title>Page-1</title>
		<g id="group2606-1" transform="translate(12.24,-28.3465)">
			<title>Budget</title>
			<g id="group2607-2">
				<title>g30</title>
				<g id="shape2608-3" transform="translate(16.2509,-50.2413)">
					<title>circle4</title>
					<ellipse cx="3.19493" cy="94.0536" rx="3.19493" ry="3.22581" class="st1"/>
				</g>
				<g id="shape2609-5" transform="translate(-5.59552E-14,-26.1762)">
					<title>circle6</title>
					<ellipse cx="3.19493" cy="94.0536" rx="3.19493" ry="3.22581" class="st1"/>
				</g>
				<g id="shape2610-7" transform="translate(1.08339,-37.1149)">
					<title>circle8</title>
					<ellipse cx="3.19493" cy="94.0536" rx="3.19493" ry="3.22581" class="st1"/>
				</g>
				<g id="shape2611-9" transform="translate(6.50036,-45.8658)">
					<title>circle10</title>
					<ellipse cx="3.19493" cy="94.0536" rx="3.19493" ry="3.22581" class="st1"/>
				</g>
				<g id="shape2612-11" transform="translate(16.2509,-50.2413)">
					<title>circle12</title>
					<ellipse cx="3.19493" cy="94.0536" rx="3.19493" ry="3.22581" class="st2"/>
				</g>
				<g id="shape2613-13" transform="translate(-5.59552E-14,-26.1762)">
					<title>circle14</title>
					<ellipse cx="3.19493" cy="94.0536" rx="3.19493" ry="3.22581" class="st2"/>
				</g>
				<g id="shape2614-15" transform="translate(1.08339,-37.1149)">
					<title>circle16</title>
					<ellipse cx="3.19493" cy="94.0536" rx="3.19493" ry="3.22581" class="st2"/>
				</g>
				<g id="shape2615-17" transform="translate(6.50036,-45.8658)">
					<title>circle18</title>
					<ellipse cx="3.19493" cy="94.0536" rx="3.19493" ry="3.22581" class="st2"/>
				</g>
				<g id="shape2616-19" transform="translate(24.5909,-42.255)">
					<title>circle20</title>
					<ellipse cx="2.43764" cy="94.8182" rx="2.43764" ry="2.4612" class="st3"/>
				</g>
				<g id="shape2617-21" transform="translate(24.5909,-11.6267)">
					<title>circle22</title>
					<ellipse cx="2.43764" cy="94.8182" rx="2.43764" ry="2.4612" class="st3"/>
				</g>
				<g id="shape2618-23" transform="translate(18.474,-18.0685)">
					<title>path24</title>
					<path d="M17.11 90.88 C17.11 94.59 13.47 97.28 8.45 97.28 C4.04 97.28 1.27 95.6 0 92.15 L4.31 91.33 C4.87 92.54
								 6.1 93.93 8.81 93.93 C11.52 93.93 12.53 92.29 12.53 91.25 C12.53 89.1 9.96 88.35 8.85 88.13 C4.15
								 87.18 0.82 86.1 0.82 80.66 C0.82 76.2 4.93 74.61 8.45 74.61 C12.3 74.61 14.8 75.9 16.1 78.54 L12.38
								 79.73 C11.59 78.39 10.26 77.68 8.51 77.68 C5.96 77.68 5.28 79.46 5.28 80.4 C5.28 81.69 6.56 82.83
								 8.54 83.29 C11.02 83.87 12.76 84.32 13.78 84.75 C15.39 85.43 17.11 87.4 17.11 90.88 Z" class="st3"/>
				</g>
				<g id="shape2619-25" transform="translate(5.65207,0)">
					<title>path26</title>
					<path d="M44.6 56.38 C40.17 47.52 30.74 41.93 21.38 41.55 L21.38 45.73 C29.19 46.11 37.2 50.88 40.89 58.26 C46.3
								 69.08 41.98 82.32 31.26 87.78 C21.83 92.59 9.81 89.27 3.42 81.05 L0 83.5 C7.56 93.4 21.82 97.28
								 33.13 91.52 C45.91 85.01 51.04 69.28 44.6 56.38 Z" class="st3"/>
				</g>
				<g id="shape2620-27" transform="translate(2.7204,-9.00252)">
					<title>path28</title>
					<path d="M0 97.28 L1.1 84.15 L12.49 88.32 L0 97.28 Z" class="st3"/>
				</g>
			</g>
		</g>
	</g>
</svg>
