<?xml version="1.0" encoding="UTF-8" standalone="no"?>
<!DOCTYPE svg PUBLIC "-//W3C//DTD SVG 1.1//EN" "http://www.w3.org/Graphics/SVG/1.1/DTD/svg11.dtd">
<!-- Generated by Microsoft Visio, SVG Export Citrix Virtual Desktop Essentials.svg Page-1 -->
<svg xmlns="http://www.w3.org/2000/svg" xmlns:xlink="http://www.w3.org/1999/xlink" xmlns:ev="http://www.w3.org/2001/xml-events"
		width="0.944882in" height="1.25984in" viewBox="0 0 68.0315 90.7087" xml:space="preserve" color-interpolation-filters="sRGB"
		class="st2">
	<style type="text/css">
	<![CDATA[
		.st1 {fill:#000000;stroke:none;stroke-linecap:butt;stroke-width:3.37748}
		.st2 {fill:none;fill-rule:evenodd;font-size:12px;overflow:visible;stroke-linecap:square;stroke-miterlimit:3}
	]]>
	</style>

	<g>
		<title>Page-1</title>
		<g id="group2587-1" transform="translate(5.66929,-28.3465)">
			<title>Citrix Virtual Desktop Essentials</title>
			<g id="group2588-2">
				<title>g8</title>
				<g id="shape2589-3">
					<title>path4</title>
					<path d="M44.35 90.67 C40.28 90.67 36.44 88.63 34.13 85.22 C32.83 83.26 30.68 82.13 28.37 82.13 C26.02 82.13
								 23.94 83.26 22.61 85.22 C20.33 88.63 16.53 90.71 12.38 90.71 C5.56 90.71 0.04 85.18 0.04 78.37 C0.04
								 74.29 2.08 70.45 5.49 68.14 C7.44 66.85 8.58 64.69 8.58 62.38 C8.58 60.03 7.44 57.95 5.49 56.62
								 C2.08 54.35 0 50.55 0 46.4 C0 39.58 5.52 34.05 12.34 34.05 C16.42 34.05 20.26 36.09 22.57 39.5 C23.86
								 41.46 26.02 42.6 28.33 42.6 C30.64 42.6 32.79 41.42 34.09 39.5 C36.36 36.09 40.16 34.02 44.31 34.02
								 C51.13 34.02 56.65 39.54 56.65 46.36 C56.65 50.43 54.62 54.27 51.21 56.58 C49.25 57.88 48.11 60.03
								 48.11 62.34 C48.11 64.69 49.25 66.77 51.21 68.1 C54.62 70.37 56.69 74.17 56.69 78.33 C56.69 85.15
								 51.17 90.67 44.35 90.67 ZM28.37 78.8 C31.77 78.8 34.95 80.48 36.87 83.34 C38.59 85.85 41.37 87.34
								 44.35 87.34 C49.33 87.34 53.36 83.3 53.36 78.33 C53.36 75.31 51.87 72.53 49.37 70.84 C46.51 68.92
								 44.78 65.71 44.78 62.3 C44.78 58.89 46.47 55.72 49.33 53.8 C51.83 52.08 53.32 49.3 53.32 46.32 C53.32
								 41.34 49.29 37.31 44.31 37.31 C41.3 37.31 38.51 38.8 36.83 41.3 C34.91 44.16 31.7 45.89 28.33 45.89
								 C24.96 45.89 21.74 44.2 19.82 41.34 C18.1 38.83 15.32 37.35 12.34 37.35 C7.37 37.35 3.33 41.38 3.33
								 46.36 C3.33 49.37 4.82 52.16 7.33 53.84 C10.19 55.76 11.91 58.97 11.91 62.34 C11.91 65.75 10.23
								 68.92 7.37 70.84 C4.86 72.57 3.37 75.35 3.37 78.33 C3.37 83.3 7.4 87.34 12.38 87.34 C15.4 87.34
								 18.18 85.85 19.86 83.34 C21.78 80.48 24.96 78.8 28.37 78.8 Z" class="st1"/>
				</g>
				<g id="shape2590-5" transform="translate(13.2819,-14.2222)">
					<title>path6</title>
					<path d="M15.08 90.71 C12.58 90.71 10.07 89.77 8.15 87.89 L3.88 83.66 C0.04 79.82 0 73.55 3.8 69.67 L8.03 65.4
								 C11.87 61.56 18.14 61.52 22.02 65.32 L26.29 69.55 C28.17 71.39 29.23 73.9 29.23 76.53 C29.23 79.19
								 28.21 81.66 26.37 83.54 L22.14 87.81 C20.22 89.73 17.67 90.71 15.08 90.71 ZM15.04 65.75 C13.36 65.75
								 11.64 66.38 10.34 67.67 L6.15 71.98 C3.6 74.57 3.64 78.72 6.19 81.31 L10.46 85.54 C13.05 88.08 17.2
								 88.04 19.79 85.5 L24.02 81.23 C25.27 79.97 25.94 78.33 25.94 76.56 C25.94 74.8 25.23 73.16 23.98
								 71.94 L19.71 67.71 C18.41 66.38 16.73 65.75 15.04 65.75 Z" class="st1"/>
				</g>
			</g>
		</g>
	</g>
</svg>
