<?xml version="1.0" encoding="UTF-8" standalone="no"?>
<!DOCTYPE svg PUBLIC "-//W3C//DTD SVG 1.1//EN" "http://www.w3.org/Graphics/SVG/1.1/DTD/svg11.dtd">
<!-- Generated by Microsoft Visio, SVG Export Client App.svg Page-1 -->
<svg xmlns="http://www.w3.org/2000/svg" xmlns:xlink="http://www.w3.org/1999/xlink" xmlns:ev="http://www.w3.org/2001/xml-events"
		width="1.13208in" height="1.35344in" viewBox="0 0 81.5099 97.4479" xml:space="preserve" color-interpolation-filters="sRGB"
		class="st2">
	<style type="text/css">
	<![CDATA[
		.st1 {fill:#0072c6;stroke:none;stroke-linecap:butt;stroke-width:12.4085}
		.st2 {fill:none;fill-rule:evenodd;font-size:12px;overflow:visible;stroke-linecap:square;stroke-miterlimit:3}
	]]>
	</style>

	<g>
		<title>Page-1</title>
		<g id="group2584-1" transform="translate(12.4085,-28.3465)">
			<title>Client App</title>
			<g id="group2585-2">
				<title> Applications</title>
				<g id="shape2586-3">
					<title>Sheet.2586</title>
					<path d="M0 40.75 L16.41 40.75 L16.41 57.16 L0 57.16 L0 40.75 ZM19.41 40.75 L37.32 40.75 L37.32 57.16 L19.41
								 57.16 L19.41 40.75 ZM40.29 40.75 L56.69 40.75 L56.69 57.16 L40.29 57.16 L40.29 40.75 ZM0 60.16 L16.41
								 60.16 L16.41 76.57 L0 76.57 L0 60.16 ZM19.41 60.16 L37.32 60.16 L37.32 76.57 L19.41 76.57 L19.41
								 60.16 ZM40.29 60.16 L56.69 60.16 L56.69 76.57 L40.29 76.57 L40.29 60.16 ZM0 79.54 L16.41 79.54 L16.41
								 97.45 L0 97.45 L0 79.54 ZM19.41 79.54 L37.32 79.54 L37.32 97.45 L19.41 97.45 L19.41 79.54 ZM40.29
								 79.54 L56.69 79.54 L56.69 97.45 L40.29 97.45 L40.29 79.54 Z" class="st1"/>
				</g>
			</g>
		</g>
	</g>
</svg>
