<?xml version="1.0" encoding="UTF-8" standalone="no"?>
<!DOCTYPE svg PUBLIC "-//W3C//DTD SVG 1.1//EN" "http://www.w3.org/Graphics/SVG/1.1/DTD/svg11.dtd">
<!-- Generated by Microsoft Visio, SVG Export Cloud Service (Classic).svg Page-1 -->
<svg xmlns="http://www.w3.org/2000/svg" xmlns:xlink="http://www.w3.org/1999/xlink" xmlns:ev="http://www.w3.org/2001/xml-events"
		width="1.1274in" height="1.23299in" viewBox="0 0 81.1729 88.7755" xml:space="preserve" color-interpolation-filters="sRGB"
		class="st4">
	<style type="text/css">
	<![CDATA[
		.st1 {fill:#59b4d9;stroke:none;stroke-linecap:butt;stroke-width:12.24}
		.st2 {fill:#ffffff;stroke:none;stroke-linecap:butt;stroke-width:12.24}
		.st3 {fill:#b8d432;stroke:none;stroke-linecap:butt;stroke-width:12.24}
		.st4 {fill:none;fill-rule:evenodd;font-size:12px;overflow:visible;stroke-linecap:square;stroke-miterlimit:3}
	]]>
	</style>

	<g>
		<title>Page-1</title>
		<g id="group2573-1" transform="translate(12.24,-28.3465)">
			<title>Cloud Service (Classic)</title>
			<g id="group2574-2">
				<title>Sheet.2574</title>
				<g id="shape2575-3">
					<title>Sheet.2575</title>
					<path d="M49.14 57.23 C49.36 56.2 49.47 55.21 49.47 54.23 C49.47 46.71 43.35 40.59 35.82 40.59 A13.6063 13.6275
								 -180 0 0 23.57 48.24 A9.82035 9.83562 -180 0 0 16.63 45.37 C11.23 45.37 6.84 49.77 6.84 55.18 C6.84
								 55.91 6.92 56.65 7.09 57.41 C2.64 59.23 0 62.99 0 67.57 C0 73.75 5.04 78.58 11.47 78.58 L12.2 78.58
								 C12.32 84.23 16.94 88.78 22.59 88.78 A10.3612 10.3773 -180 0 0 31.66 83.46 A7.54016 7.55189 -180
								 0 0 36.6 85.31 C40.48 85.31 43.69 82.37 44.14 78.58 L45.23 78.58 C51.66 78.58 56.69 73.75 56.69
								 67.57 C56.69 62.8 53.81 58.88 49.14 57.23 Z" class="st1"/>
				</g>
				<g id="shape2576-5" transform="translate(13.307,-8.04929)">
					<title>Sheet.2576</title>
					<path d="M31.41 70.43 L32.24 68.45 L32 68.24 L30.18 66.66 L30.19 65.05 L32.24 63.21 L31.44 61.22 L31.12 61.25
								 L28.71 61.42 L27.58 60.28 L27.74 57.52 L25.76 56.68 L25.55 56.92 L23.97 58.75 L22.37 58.74 L20.53
								 56.69 L18.54 57.49 L18.57 57.81 L18.74 60.22 L17.6 61.35 L14.85 61.2 L14.01 63.18 L14.25 63.38 L16.08
								 64.97 L16.07 66.57 L14.01 68.41 L14.82 70.4 L15.14 70.38 L17.55 70.21 L18.67 71.35 L18.52 74.11
								 L20.49 74.94 L20.7 74.7 L22.28 72.88 L23.89 72.89 L25.72 74.94 L27.71 74.14 L27.69 73.82 L27.52
								 71.4 L28.66 70.28 L31.41 70.43 ZM21.42 69.86 A4.39025 4.39708 0 1 1 24.83 61.76 A4.39025 4.39708
								 0 0 1 21.42 69.86 ZM18.85 80.37 L18.85 78.22 L18.54 78.13 L16.25 77.37 L15.64 75.89 L16.82 73.4
								 L15.3 71.88 L15.02 72.02 L12.86 73.12 L11.38 72.5 L10.46 69.9 L8.31 69.9 L8.21 70.2 L7.46 72.5 L5.98
								 73.11 L3.49 71.93 L1.98 73.45 L2.12 73.74 L3.21 75.9 L2.6 77.37 L0 78.3 L0 80.45 L0.3 80.55 L2.6
								 81.3 L3.21 82.79 L2.03 85.28 L3.55 86.8 L3.83 86.66 L5.99 85.56 L7.46 86.17 L8.39 88.77 L10.53 88.78
								 L10.63 88.47 L11.39 86.17 L12.86 85.56 L15.35 86.74 L16.87 85.23 L16.73 84.94 L15.64 82.78 L16.25
								 81.3 L18.85 80.37 ZM9.42 83.74 A4.39087 4.3977 0 1 1 9.43 74.94 A4.39087 4.3977 0 0 1 9.42 83.74
								 Z" class="st2"/>
				</g>
				<g id="shape2577-7" transform="translate(19.8822,-14.6331)">
					<title>Sheet.2577</title>
					<path d="M19.18 73.51 A2.84939 2.85382 0 1 1 13.93 71.29 A2.84939 2.85382 0 0 1 19.18 73.51 ZM5.7 85.92 A2.84939
								 2.85382 0 0 1 -0 85.92 A2.84939 2.85382 0 0 1 5.7 85.92 Z" class="st3"/>
				</g>
			</g>
		</g>
	</g>
</svg>
