<?xml version="1.0" encoding="UTF-8" standalone="no"?>
<!DOCTYPE svg PUBLIC "-//W3C//DTD SVG 1.1//EN" "http://www.w3.org/Graphics/SVG/1.1/DTD/svg11.dtd">
<!-- Generated by Microsoft Visio, SVG Export Cloud Simple Virtual Machine.svg Page-1 -->
<svg xmlns="http://www.w3.org/2000/svg" xmlns:xlink="http://www.w3.org/1999/xlink" xmlns:ev="http://www.w3.org/2001/xml-events"
		width="0.944882in" height="1in" viewBox="0 0 68.0315 72" xml:space="preserve" color-interpolation-filters="sRGB"
		class="st3">
	<style type="text/css">
	<![CDATA[
		.st1 {fill:#83bc41;stroke:none;stroke-linecap:butt;stroke-width:1.09899}
		.st2 {fill:#496487;stroke:none;stroke-linecap:butt;stroke-width:1.09899}
		.st3 {fill:none;fill-rule:evenodd;font-size:12px;overflow:visible;stroke-linecap:square;stroke-miterlimit:3}
	]]>
	</style>

	<g>
		<title>Page-1</title>
		<g id="group2535-1" transform="translate(5.66929,-28.3465)">
			<title>Cloud Simple Virtual Machine</title>
			<g id="shape2536-2" transform="translate(0,-0.0289961)">
				<title>path7</title>
				<path d="M31.5 68.26 A17.4316 18.8493 0 0 1 29.46 69.49 A22.7952 24.6491 0 0 1 26.7 70.7 A24.9406 26.969 0 0 1 23.17
							 71.62 A25.9329 28.042 0 0 1 18.71 72 A21.9504 23.7356 0 0 1 11.45 70.72 A17.0427 18.4288 0 0 1 5.51
							 66.95 A16.493 17.8343 0 0 1 1.49 60.79 A19.2686 20.8357 0 0 1 -0 52.34 A20.2341 21.8797 0 0 1 1.45 43.81
							 A16.3723 17.7039 0 0 1 5.47 37.53 A17.083 18.4723 0 0 1 11.52 33.68 A22.7952 24.6491 0 0 1 19.01 32.37
							 A25.9329 28.042 0 0 1 24.78 32.97 A15.0582 16.2829 0 0 1 28.65 34.42 A9.74828 10.5411 0 0 1 29.73 35.19
							 A3.7545 4.05985 0 0 1 31.22 40.28 A2.38679 2.58091 0 0 1 30.83 41 C29.49 42.87 26.71 41.78 25.13 41
							 A14.0123 15.1519 -180 0 0 19.32 39.84 A13.5698 14.6735 -180 0 0 14.94 40.58 A9.38624 10.1496 -180 0
							 0 11.41 42.86 A10.0567 10.8746 -180 0 0 9.06 46.67 A13.1676 14.2385 -180 0 0 8.21 52.09 A13.4089 14.4995
							 -180 0 0 9.1 57.7 A9.38624 10.1496 -180 0 0 11.6 61.52 A10.1908 11.0196 -180 0 0 15.27 63.72 A14.7498
							 15.9494 -180 0 0 19.76 64.4 A13.9185 15.0504 -180 0 0 25.33 63.39 A25.0613 27.0995 -180 0 0 28.2 61.85
							 L31.5 68.26 Z" class="st1"/>
			</g>
			<g id="shape2537-4" transform="translate(23.2108,0)">
				<title>path9</title>
				<path d="M3 61.57 A10.5796 11.4401 -180 0 0 4.73 62.55 A30.9478 33.4648 -180 0 0 7.8 63.78 A31.7389 34.3202 -180
							 0 0 11.99 64.87 A29.3521 31.7393 -180 0 0 17.11 65.32 A15.6884 16.9644 -180 0 0 22.98 64.3 A3.27178
							 3.53787 -180 0 0 25.26 60.82 A3.35223 3.62487 -180 0 0 23.81 57.65 A12.068 13.0495 -180 0 0 18.62 56.11
							 L13.26 55.43 A25.3026 27.3605 0 0 1 8.21 54.34 A13.0067 14.0645 0 0 1 4.18 52.21 A8.79625 9.51165 0
							 0 1 1.6 48.87 A9.56056 10.3381 0 0 1 0.67 44.13 A10.3115 11.1501 0 0 1 1.53 39.61 A9.38624 10.1496 0
							 0 1 4.21 35.84 A13.5564 14.659 0 0 1 9.09 33.26 A26.7106 28.8829 0 0 1 16.39 32.31 A31.1087 33.6388
							 0 0 1 27.56 34.03 A11.116 12.0201 0 0 1 29.86 35.39 A3.24496 3.50887 0 0 1 31.2 40.1 C30.01 42.52 27.49
							 41.38 27.26 41.25 A16.6807 18.0373 -180 0 0 25.44 40.38 A25.3294 27.3895 -180 0 0 16.52 38.77 C11.16
							 38.77 8.47 40.29 8.47 43.33 A3.01701 3.26238 -180 0 0 9.99 46.23 A10.9685 11.8606 -180 0 0 14.35 47.6
							 L21.39 48.6 A18.7725 20.2993 0 0 1 30.3 52.02 A8.20626 8.87367 0 0 1 33.48 59.66 A9.88237 10.6861 0
							 0 1 29.37 68.64 C26.62 70.88 22.67 72 17.51 72 A38.0277 41.1205 0 0 1 10.69 71.39 A41.1117 44.4554 0
							 0 1 5.4 70.03 A26.2949 28.4335 0 0 1 1.8 68.48 A10.9551 11.8461 0 0 1 -0 67.36 L3 61.57 Z" class="st2"/>
			</g>
			<g id="shape2538-6" transform="translate(23.1706,-2.02993)">
				<title>path11</title>
				<path d="M4.77 64.56 L4.24 64.32 C3.55 64.71 2.9 65.07 2.13 65.4 L0.94 67.42 L0 69.39 A8.30012 8.97517 -180 0 0 1.73
							 70.55 A8.82307 9.54065 -180 0 0 5.24 72 L6.26 71.51 A17.4316 18.8493 -180 0 0 8.3 70.27 L5.52 64.92
							 L4.77 64.56 Z" class="st1"/>
			</g>
		</g>
	</g>
</svg>
