<?xml version="1.0" encoding="UTF-8" standalone="no"?>
<!DOCTYPE svg PUBLIC "-//W3C//DTD SVG 1.1//EN" "http://www.w3.org/Graphics/SVG/1.1/DTD/svg11.dtd">
<!-- Generated by Microsoft Visio, SVG Export Cloud App Security.svg Page-1 -->
<svg xmlns="http://www.w3.org/2000/svg" xmlns:xlink="http://www.w3.org/1999/xlink" xmlns:ev="http://www.w3.org/2001/xml-events"
		width="0.944882in" height="1.08661in" viewBox="0 0 68.0315 78.2362" xml:space="preserve" color-interpolation-filters="sRGB"
		class="st5">
	<style type="text/css">
	<![CDATA[
		.st1 {fill:none;stroke:#fea11b;stroke-linecap:butt;stroke-width:2.68275}
		.st2 {fill:url(#grad0-8);stroke:none;stroke-linecap:butt;stroke-width:1.12564}
		.st3 {fill:#000000;stroke:#000000;stroke-linecap:butt;stroke-width:3.22922}
		.st4 {fill:#000000;stroke:#000000;stroke-linecap:butt;stroke-width:2.75991}
		.st5 {fill:none;fill-rule:evenodd;font-size:12px;overflow:visible;stroke-linecap:square;stroke-miterlimit:3}
	]]>
	</style>

	<defs id="Patterns_And_Gradients">
		<linearGradient id="grad0-8" x1="0" y1="0" x2="1" y2="0" gradientTransform="rotate(-90.032128289245 0.5 0.5)">
			<stop offset="0" stop-color="#0078d4" stop-opacity="1"/>
			<stop offset="0.065" stop-color="#0a7cd7" stop-opacity="1"/>
			<stop offset="0.34" stop-color="#2e8ce1" stop-opacity="1"/>
			<stop offset="0.595" stop-color="#4897e9" stop-opacity="1"/>
			<stop offset="0.82" stop-color="#589eed" stop-opacity="1"/>
			<stop offset="1" stop-color="#5ea0ef" stop-opacity="1"/>
		</linearGradient>
	</defs>
	<g>
		<title>Page-1</title>
		<g id="group2578-1" transform="translate(5.66929,-28.3465)">
			<title>Cloud App Security</title>
			<g id="group2579-2">
				<title>g8</title>
				<g id="shape2580-3" transform="translate(18.3199,-22.533)">
					<title>path53</title>
					<ellipse cx="10.6327" cy="66.8255" rx="10.6327" ry="11.4107" class="st1"/>
				</g>
				<g id="shape2581-5">
					<title>path6-9</title>
					<path d="M49.91 56.18 C49.95 55.68 49.98 55.18 49.98 54.68 C49.98 46.74 43.38 40.31 35.28 40.31 C30.47 40.31
								 26.06 42.58 23.34 46.29 A11.1539 11.0272 -180 0 0 17.46 44.65 C11.34 44.65 6.35 49.54 6.35 55.54
								 L6.37 56.41 C2.23 58.48 0 61.91 0 66.21 C0 72.96 5.57 78.24 12.67 78.24 L44.02 78.24 C51.13 78.24
								 56.69 72.96 56.69 66.21 C56.69 61.75 54.25 58.18 49.91 56.18 Z" class="st2"/>
				</g>
				<g id="shape2582-9" transform="translate(26.2961,-18.0594)">
					<title>path875</title>
					<ellipse cx="2.50496" cy="75.7597" rx="2.50496" ry="2.47648" class="st3"/>
				</g>
				<g id="shape2583-11" transform="translate(26.6903,-1.67639)">
					<title>rect893</title>
					<rect x="0" y="67.0218" width="4.29724" height="11.2144" class="st4"/>
				</g>
			</g>
		</g>
	</g>
</svg>
