<?xml version="1.0" encoding="UTF-8" standalone="no"?>
<!DOCTYPE svg PUBLIC "-//W3C//DTD SVG 1.1//EN" "http://www.w3.org/Graphics/SVG/1.1/DTD/svg11.dtd">
<!-- Generated by Microsoft Visio, SVG Export Cloud Simple Service.svg Page-1 -->
<svg xmlns="http://www.w3.org/2000/svg" xmlns:xlink="http://www.w3.org/1999/xlink" xmlns:ev="http://www.w3.org/2001/xml-events"
		width="0.944882in" height="1.25984in" viewBox="0 0 68.0315 90.7087" xml:space="preserve" color-interpolation-filters="sRGB"
		class="st4">
	<style type="text/css">
	<![CDATA[
		.st1 {fill:#e4e4e4;stroke:none;stroke-linecap:butt;stroke-width:0.972542}
		.st2 {fill:#81ba33;stroke:none;stroke-linecap:butt;stroke-width:0.972542}
		.st3 {fill:#486385;stroke:none;stroke-linecap:butt;stroke-width:0.972542}
		.st4 {fill:none;fill-rule:evenodd;font-size:12px;overflow:visible;stroke-linecap:square;stroke-miterlimit:3}
	]]>
	</style>

	<g>
		<title>Page-1</title>
		<g id="group2539-1" transform="translate(5.66929,-28.3465)">
			<title>Cloud Simple Service</title>
			<g id="group2540-2">
				<title>g11</title>
				<g id="shape2541-3">
					<title>rect5</title>
					<path d="M-0 88.35 A2.36226 2.36226 -180 0 0 2.36 90.71 L54.33 90.71 A2.36226 2.36226 -180 0 0 56.69 88.35 L56.69
								 36.38 A2.36226 2.36226 -180 0 0 54.33 34.02 L2.36 34.02 A2.36226 2.36226 -180 0 0 0 36.38 L0 88.35
								 Z" class="st1"/>
				</g>
				<g id="shape2542-5" transform="translate(4.88858,-12.7654)">
					<title>path7</title>
					<path d="M26.3 87.78 C25.98 88.01 25.54 88.29 24.96 88.61 C24.38 88.93 23.65 89.25 22.78 89.56 C21.9 89.87 20.87
								 90.14 19.68 90.37 C18.49 90.6 17.15 90.71 15.65 90.71 C13.53 90.71 11.52 90.39 9.63 89.75 C7.73
								 89.12 6.07 88.16 4.64 86.89 C3.22 85.62 2.09 84.04 1.25 82.14 C0.42 80.25 0 78.04 0 75.53 C0 73.07
								 0.4 70.88 1.21 68.97 C2.01 67.06 3.12 65.45 4.52 64.14 C5.92 62.82 7.56 61.82 9.44 61.13 C11.32
								 60.43 13.35 60.09 15.52 60.09 C16.68 60.09 17.73 60.16 18.66 60.3 C19.59 60.44 20.42 60.62 21.14
								 60.85 A12.5787 12.5787 0 0 1 22.99 61.57 C23.5 61.83 23.91 62.05 24.22 62.25 C24.87 62.73 25.33
								 63.23 25.62 63.76 C25.9 64.28 26.04 64.82 26.04 65.39 C26.04 65.93 25.94 66.44 25.72 66.92 A6.11811
								 6.11811 0 0 1 24.96 68.21 A7.62402 7.62402 0 0 1 24.07 69.19 A4.59449 4.59449 0 0 1 23.33 69.76
								 C23.04 69.47 22.68 69.14 22.24 68.76 A7.54724 7.54724 -180 0 0 20.66 67.72 A12.1134 12.1134 -180
								 0 0 18.51 66.92 C17.71 66.69 16.81 66.58 15.82 66.58 C14.58 66.58 13.45 66.78 12.43 67.19 A7.55906
								 7.55906 -180 0 0 9.78 68.97 C9.03 69.75 8.45 70.69 8.04 71.79 C7.63 72.9 7.42 74.14 7.42 75.53 C7.42
								 76.94 7.65 78.18 8.1 79.26 C8.55 80.33 9.18 81.23 9.97 81.95 A7.86969 7.86969 -180 0 0 12.79 83.58
								 C13.88 83.95 15.06 84.14 16.33 84.14 C17.91 84.14 19.28 83.94 20.42 83.54 C21.57 83.15 22.44 82.74
								 23.03 82.31 L26.21 87.78 L26.3 87.78 Z" class="st2"/>
				</g>
				<g id="shape2543-7" transform="translate(25.7244,-12.7654)">
					<title>path9</title>
					<path d="M2.93 81.63 C3.1 81.77 3.48 81.99 4.07 82.29 C4.67 82.59 5.41 82.88 6.32 83.18 C7.22 83.48 8.27 83.75
								 9.46 83.99 C10.65 84.23 11.93 84.35 13.32 84.35 C14.45 84.35 15.35 84.27 16.03 84.11 C16.71 83.96
								 17.23 83.75 17.6 83.5 C17.97 83.25 18.21 82.96 18.32 82.63 C18.43 82.31 18.49 81.97 18.49 81.63
								 C18.49 80.95 18.21 80.4 17.66 79.96 C17.11 79.52 16.09 79.17 14.59 78.92 L10.26 78.15 A24.802 24.802
								 0 0 1 6.87 77.31 A10.7185 10.7185 0 0 1 3.84 75.78 A7.64646 7.64646 0 0 1 1.65 73.28 C1.09 72.26
								 0.81 71 0.81 69.5 C0.81 68.2 1.05 66.98 1.53 65.83 A7.96299 7.96299 0 0 1 3.73 62.84 C4.72 62 5.97
								 61.33 7.48 60.83 C9 60.33 10.77 60.09 12.81 60.09 C14.28 60.09 15.56 60.17 16.67 60.32 C17.77 60.48
								 18.72 60.67 19.51 60.89 C20.3 61.12 20.94 61.35 21.44 61.57 C21.93 61.8 22.29 61.98 22.52 62.12
								 C23 62.41 23.46 62.8 23.9 63.29 C24.34 63.79 24.56 64.37 24.56 65.05 C24.56 65.53 24.47 65.99 24.3
								 66.43 A6.46535 6.46535 0 0 1 23.69 67.64 C23.45 68 23.19 68.32 22.9 68.59 A7.16929 7.16929 0 0 1
								 22.18 69.21 C21.9 68.92 21.47 68.61 20.91 68.25 A10.5248 10.5248 -180 0 0 18.87 67.3 C18.08 67.01
								 17.18 66.77 16.16 66.58 A17.1024 17.1024 -180 0 0 12.89 66.28 C11.79 66.28 10.91 66.37 10.26 66.56
								 C9.61 66.74 9.13 66.97 8.8 67.23 C8.47 67.5 8.26 67.81 8.16 68.15 A3.35433 3.35433 -180 0 0 8.01
								 69.08 C8.01 69.33 8.05 69.57 8.12 69.8 C8.19 70.03 8.36 70.24 8.63 70.46 C8.9 70.67 9.28 70.87 9.78
								 71.05 C10.27 71.23 10.94 71.41 11.79 71.58 L16.29 72.47 C17.87 72.78 19.26 73.17 20.46 73.64 C21.66
								 74.1 22.68 74.68 23.5 75.36 A6.4252 6.4252 0 0 1 25.34 77.82 C25.75 78.78 25.95 79.92 25.95 81.25
								 C25.95 84.22 24.85 86.54 22.63 88.21 C20.41 89.87 17.28 90.71 13.23 90.71 C11.39 90.71 9.71 90.55
								 8.16 90.24 C6.62 89.93 5.27 89.57 4.11 89.16 C2.96 88.75 2.01 88.36 1.29 87.99 C0.57 87.63 0.14
								 87.37 0 87.23 L2.93 81.63 Z" class="st3"/>
				</g>
			</g>
		</g>
	</g>
</svg>
