<?xml version="1.0" encoding="UTF-8" standalone="no"?>
<!DOCTYPE svg PUBLIC "-//W3C//DTD SVG 1.1//EN" "http://www.w3.org/Graphics/SVG/1.1/DTD/svg11.dtd">
<!-- Generated by Microsoft Visio, SVG Export Cloud Simple Node.svg Page-1 -->
<svg xmlns="http://www.w3.org/2000/svg" xmlns:xlink="http://www.w3.org/1999/xlink" xmlns:ev="http://www.w3.org/2001/xml-events"
		width="0.954738in" height="1.25984in" viewBox="0 0 68.7411 90.7087" xml:space="preserve" color-interpolation-filters="sRGB"
		class="st11">
	<style type="text/css">
	<![CDATA[
		.st1 {fill:#81ba33}
		.st2 {stroke:#81ba33;stroke-linecap:butt;stroke-width:2.88424}
		.st3 {stroke:#81ba33;stroke-linecap:round;stroke-linejoin:round;stroke-width:2.88424}
		.st4 {fill:#ffffff;stroke:#81ba33;stroke-linecap:butt;stroke-width:1.92283}
		.st5 {fill:#eaeaea;stroke:#486385;stroke-linecap:butt;stroke-width:1.92283}
		.st6 {fill:none;stroke:#486385;stroke-linecap:butt;stroke-width:0.961415}
		.st7 {fill:#486385;stroke:none;stroke-linecap:butt;stroke-width:0.961415}
		.st8 {fill:#ffffff;fill-opacity:0.2;stroke:none;stroke-linecap:butt;stroke-width:0.961415}
		.st9 {fill:#f7f7f7;stroke:#81ba33;stroke-linecap:butt;stroke-width:1.34598}
		.st10 {fill:#81ba33;stroke:none;stroke-linecap:butt;stroke-width:0.961415}
		.st11 {fill:none;fill-rule:evenodd;font-size:12px;overflow:visible;stroke-linecap:square;stroke-miterlimit:3}
	]]>
	</style>

	<g>
		<title>Page-1</title>
		<g id="group2544-1" transform="translate(5.66929,-28.3465)">
			<title>Cloud Simple Node</title>
			<g id="group2545-2">
				<title>g59</title>
				<g id="group2546-3" transform="translate(11.809,0)">
					<title>g11</title>
					<g id="shape2547-4" transform="translate(21.1588,-4.76921)">
						<title>path5</title>
						<path d="M0 90.71 L0 84.81 L0 90.71 Z" class="st1"/>
						<path d="M0 90.71 L0 84.81" class="st2"/>
					</g>
					<g id="shape2548-7" transform="translate(0,-2.42882)">
						<title>path7</title>
						<path d="M41.08 90.71 L26.29 90.71 L41.08 90.71 ZM14.79 90.71 L0 90.71 L14.79 90.71 Z" class="st1"/>
						<path d="M41.08 90.71 L26.29 90.71M14.79 90.71 L0 90.71" class="st3"/>
					</g>
					<g id="shape2549-10" transform="translate(16.0095,0)">
						<title>path9</title>
						<rect x="0" y="86.147" width="10.2975" height="4.5617" class="st4"/>
					</g>
				</g>
				<g id="shape2550-12" transform="translate(9.26474,-11.0747)">
					<title>path13</title>
					<path d="M45.6 78.92 L1.83 78.92 C0.8 78.92 0 79.56 0 80.38 L0 89.25 C0 90.07 0.8 90.71 1.82 90.71 L45.6 90.71
								 C46.63 90.71 47.43 90.07 47.43 89.25 L47.43 80.38 C47.43 79.56 46.63 78.92 45.6 78.92 Z"
							class="st5"/>
				</g>
				<g id="shape2551-14" transform="translate(13.4275,-15.4124)">
					<title>path15</title>
					<path d="M1.71 90.71 C0.8 90.71 0 89.98 0 89.15 C0 88.32 0.8 87.59 1.71 87.59 C2.62 87.59 3.42 88.32 3.42 89.15
								 C3.42 89.98 2.62 90.71 1.71 90.71 L1.71 90.71 Z" class="st6"/>
				</g>
				<g id="group2552-16" transform="translate(43.2727,-13.9999)">
					<title>g23</title>
					<g id="shape2553-17">
						<title>rect17</title>
						<path d="M0 90 a0.729046 0.70744 -180 0 0 0.729029 0.707423 L8.02 90.71 a0.729046 0.70744 -180 0 0 0.729029
									 -0.707423 a0.729046 0.70744 -180 0 0 -0.729029 -0.707423 L0.73 89.29 a0.729046 0.70744 -180
									 0 0 -0.729029 0.707423 Z" class="st7"/>
					</g>
					<g id="shape2554-19" transform="translate(0,-2.4017)">
						<title>rect19</title>
						<path d="M0 90 a0.729046 0.70744 -180 0 0 0.729029 0.707423 L8.02 90.71 a0.729046 0.70744 -180 0 0 0.729029
									 -0.707423 a0.729046 0.70744 -180 0 0 -0.729029 -0.707423 L0.73 89.29 a0.729046 0.70744 -180
									 0 0 -0.729029 0.707423 Z" class="st7"/>
					</g>
					<g id="shape2555-21" transform="translate(0,-4.75978)">
						<title>rect21</title>
						<path d="M0 90 a0.729046 0.70744 -180 0 0 0.729029 0.707423 L8.02 90.71 a0.729046 0.70744 -180 0 0 0.729029
									 -0.707423 a0.729046 0.70744 -180 0 0 -0.729029 -0.707423 L0.73 89.29 a0.729046 0.70744 -180
									 0 0 -0.729029 0.707423 Z" class="st7"/>
					</g>
				</g>
				<g id="shape2556-23" transform="translate(9.26474,-25.9624)">
					<title>path25</title>
					<path d="M45.6 78.92 L1.83 78.92 C0.8 78.92 0 79.56 0 80.38 L0 89.25 C0 90.07 0.8 90.71 1.82 90.71 L45.6 90.71
								 C46.63 90.71 47.43 90.07 47.43 89.25 L47.43 80.38 C47.43 79.56 46.63 78.92 45.6 78.92 Z"
							class="st5"/>
				</g>
				<g id="shape2557-25" transform="translate(13.4275,-30.3001)">
					<title>path27</title>
					<path d="M1.71 90.71 C0.8 90.71 0 89.98 0 89.15 C0 88.32 0.8 87.59 1.71 87.59 C2.62 87.59 3.42 88.32 3.42 89.15
								 C3.42 89.98 2.62 90.71 1.71 90.71 L1.71 90.71 Z" class="st6"/>
				</g>
				<g id="group2558-27" transform="translate(43.2727,-28.8876)">
					<title>g35</title>
					<g id="shape2559-28">
						<title>rect29</title>
						<path d="M0 90 a0.729046 0.70744 -180 0 0 0.729029 0.707423 L8.02 90.71 a0.729046 0.70744 -180 0 0 0.729029
									 -0.707423 a0.729046 0.70744 -180 0 0 -0.729029 -0.707423 L0.73 89.29 a0.729046 0.70744 -180
									 0 0 -0.729029 0.707423 Z" class="st7"/>
					</g>
					<g id="shape2560-30" transform="translate(0,-2.4017)">
						<title>rect31</title>
						<path d="M0 90 a0.729046 0.70744 -180 0 0 0.729029 0.707423 L8.02 90.71 a0.729046 0.70744 -180 0 0 0.729029
									 -0.707423 a0.729046 0.70744 -180 0 0 -0.729029 -0.707423 L0.73 89.29 a0.729046 0.70744 -180
									 0 0 -0.729029 0.707423 Z" class="st7"/>
					</g>
					<g id="shape2561-32" transform="translate(0,-4.75978)">
						<title>rect33</title>
						<path d="M0 90 a0.729046 0.70744 -180 0 0 0.729029 0.707423 L8.02 90.71 a0.729046 0.70744 -180 0 0 0.729029
									 -0.707423 a0.729046 0.70744 -180 0 0 -0.729029 -0.707423 L0.73 89.29 a0.729046 0.70744 -180
									 0 0 -0.729029 0.707423 Z" class="st7"/>
					</g>
				</g>
				<g id="shape2562-34" transform="translate(9.26474,-40.8513)">
					<title>path37</title>
					<path d="M45.6 78.92 L1.83 78.92 C0.8 78.92 0 79.56 0 80.38 L0 89.25 C0 90.07 0.8 90.71 1.82 90.71 L45.6 90.71
								 C46.63 90.71 47.43 90.07 47.43 89.25 L47.43 80.38 C47.43 79.56 46.63 78.92 45.6 78.92 L45.6 78.92
								 Z" class="st5"/>
				</g>
				<g id="shape2563-36" transform="translate(13.4275,-45.189)">
					<title>path39</title>
					<path d="M1.71 90.71 C0.8 90.71 0 89.98 0 89.15 C0 88.32 0.8 87.59 1.71 87.59 C2.62 87.59 3.42 88.32 3.42 89.15
								 C3.42 89.98 2.62 90.71 1.71 90.71 L1.71 90.71 Z" class="st6"/>
				</g>
				<g id="group2564-38" transform="translate(43.2727,-43.7765)">
					<title>g47</title>
					<g id="shape2565-39">
						<title>rect41</title>
						<path d="M0 90 a0.729046 0.70744 -180 0 0 0.729029 0.707423 L8.02 90.71 a0.729046 0.70744 -180 0 0 0.729029
									 -0.707423 a0.729046 0.70744 -180 0 0 -0.729029 -0.707423 L0.73 89.29 a0.729046 0.70744 -180
									 0 0 -0.729029 0.707423 Z" class="st7"/>
					</g>
					<g id="shape2566-41" transform="translate(0,-2.4017)">
						<title>rect43</title>
						<path d="M0 90 a0.729046 0.70744 -180 0 0 0.729029 0.707423 L8.02 90.71 a0.729046 0.70744 -180 0 0 0.729029
									 -0.707423 a0.729046 0.70744 -180 0 0 -0.729029 -0.707423 L0.73 89.29 a0.729046 0.70744 -180
									 0 0 -0.729029 0.707423 Z" class="st7"/>
					</g>
					<g id="shape2567-43" transform="translate(0,-4.75978)">
						<title>rect45</title>
						<path d="M0 90 a0.729046 0.70744 -180 0 0 0.729029 0.707423 L8.02 90.71 a0.729046 0.70744 -180 0 0 0.729029
									 -0.707423 a0.729046 0.70744 -180 0 0 -0.729029 -0.707423 L0.73 89.29 a0.729046 0.70744 -180
									 0 0 -0.729029 0.707423 Z" class="st7"/>
					</g>
				</g>
				<g id="shape2568-45" transform="translate(7.9938,-9.59148)">
					<title>path49</title>
					<path d="M48.6 46.82 L48.57 46.82 L2.81 46.82 C1.25 46.82 0 48.43 0 50.24 L0 87.32 C0 89.11 1.25 90.71 2.81 90.71
								 L3.9 90.71 L48.6 46.82 Z" class="st8"/>
				</g>
				<g id="group2569-47" transform="translate(2.8777E-13,-28.3842)">
					<title>g57</title>
					<g id="shape2570-48">
						<title>circle51</title>
						<ellipse cx="14.5866" cy="76.5543" rx="14.5866" ry="14.1544" class="st9"/>
					</g>
					<g id="shape2571-50" transform="translate(3.07164,-7.52345)">
						<title>path53</title>
						<path d="M12.06 89.41 A6.55397 6.35974 0 0 1 10.44 90.2 A9.72403 9.43585 0 0 1 7.18 90.71 C6.2 90.71 5.28
									 90.57 4.41 90.28 A6.50658 6.31375 0 0 1 2.13 89.01 A6.23563 6.05083 0 0 1 0.57 86.9 C0.19 86.05
									 0 85.07 0 83.95 C0 82.86 0.18 81.89 0.55 81.04 C0.92 80.19 1.43 79.47 2.07 78.89 A6.57341 6.3786
									 0 0 1 4.33 77.54 A8.01081 7.7734 0 0 1 7.12 77.08 C7.65 77.08 8.13 77.11 8.56 77.18 C8.99 77.24
									 9.36 77.32 9.69 77.42 A5.77269 5.60161 0 0 1 11.1 78.05 C11.4 78.26 11.62 78.48 11.75 78.72
									 C11.88 78.95 11.94 79.19 11.94 79.44 C11.94 79.68 11.89 79.91 11.8 80.12 C11.7 80.34 11.58 80.53
									 11.45 80.7 A3.49569 3.3921 0 0 1 11.04 81.13 A2.10689 2.04445 0 0 1 10.7 81.39 A10.0533 9.75537
									 -180 0 0 10.2 80.94 A3.46167 3.35908 -180 0 0 9.47 80.48 A5.5552 5.39057 -180 0 0 8.49 80.12
									 A4.56493 4.42965 -180 0 0 7.25 79.97 C6.68 79.97 6.17 80.06 5.7 80.24 A3.46653 3.3638 -180 0
									 0 4.48 81.04 A3.6901 3.58074 -180 0 0 3.69 82.29 A4.88449 4.73974 -180 0 0 3.4 83.95 C3.4 84.58
									 3.51 85.14 3.71 85.61 C3.92 86.09 4.21 86.49 4.57 86.81 A3.60869 3.50175 -180 0 0 5.86 87.54
									 C6.36 87.7 6.9 87.78 7.49 87.78 C8.21 87.78 8.84 87.7 9.36 87.52 C9.89 87.34 10.29 87.16 10.56
									 86.97 L12.02 89.41 L12.06 89.41 Z" class="st10"/>
					</g>
					<g id="shape2572-52" transform="translate(12.6256,-7.52345)">
						<title>path55</title>
						<path d="M1.34 86.67 C1.42 86.73 1.6 86.83 1.87 86.96 C2.14 87.09 2.48 87.23 2.9 87.36 C3.31 87.49 3.79 87.61
									 4.34 87.72 C4.88 87.82 5.47 87.88 6.11 87.88 C6.63 87.88 7.04 87.84 7.35 87.77 C7.66 87.7 7.9
									 87.61 8.07 87.5 a0.826232 0.801747 -180 0 0 0.330493 -0.386725 C8.45 86.97 8.48 86.82 8.48 86.67
									 a0.939232 0.911397 -180 0 0 -0.379095 -0.745153 C7.85 85.73 7.38 85.58 6.69 85.46 L4.71 85.12
									 A11.3728 11.0358 0 0 1 3.15 84.75 A4.91487 4.76921 0 0 1 1.76 84.07 A3.50663 3.40271 0 0 1 0.76
									 82.95 C0.5 82.5 0.37 81.94 0.37 81.27 C0.37 80.69 0.48 80.15 0.7 79.64 C0.92 79.13 1.26 78.69
									 1.71 78.31 C2.17 77.93 2.74 77.63 3.43 77.41 C4.13 77.19 4.94 77.08 5.87 77.08 C6.55 77.08 7.14
									 77.12 7.64 77.19 A9.90264 9.60917 0 0 1 8.95 77.44 C9.31 77.54 9.6 77.64 9.83 77.74 C10.06 77.84
									 10.22 77.93 10.33 77.99 C10.55 78.11 10.76 78.29 10.96 78.51 A1.17738 1.14249 0 0 1 11.26 79.29
									 C11.26 79.5 11.22 79.71 11.14 79.9 A2.96472 2.87686 0 0 1 10.86 80.44 C10.75 80.61 10.63 80.75
									 10.5 80.87 A3.24661 3.15039 0 0 1 10.17 81.14 A3.37419 3.27419 -180 0 0 9.59 80.72 A4.82617
									 4.68314 -180 0 0 8.65 80.29 A8.59646 8.3417 -180 0 0 7.41 79.97 A7.84192 7.60952 -180 0 0 5.91
									 79.84 C5.41 79.84 5 79.88 4.71 79.96 C4.41 80.04 4.18 80.14 4.04 80.26 a0.854179 0.828864 -180
									 0 0 -0.291611 0.405589 A1.53825 1.49266 -180 0 0 3.68 81.08 C3.68 81.2 3.69 81.3 3.72 81.4 C3.76
									 81.51 3.83 81.6 3.96 81.7 C4.08 81.79 4.26 81.88 4.48 81.96 C4.71 82.04 5.02 82.12 5.41 82.2
									 L7.47 82.59 A11.3777 11.0405 0 0 1 9.38 83.11 C9.94 83.32 10.4 83.57 10.77 83.88 C11.15 84.18
									 11.43 84.54 11.62 84.97 C11.81 85.4 11.9 85.91 11.9 86.5 C11.9 87.82 11.39 88.85 10.38 89.59
									 C9.36 90.34 7.92 90.71 6.07 90.71 A11.7629 11.4143 0 0 1 3.74 90.5 A13.8054 13.3962 0 0 1 1.89
									 90.02 A10.9913 10.6656 0 0 1 0.59 89.5 C0.26 89.34 0.06 89.22 0 89.16 L1.34 86.67 Z"
								class="st7"/>
					</g>
				</g>
			</g>
		</g>
	</g>
</svg>
