<?xml version="1.0" encoding="UTF-8" standalone="no"?>
<!DOCTYPE svg PUBLIC "-//W3C//DTD SVG 1.1//EN" "http://www.w3.org/Graphics/SVG/1.1/DTD/svg11.dtd">
<!-- Generated by Microsoft Visio, SVG Export Cognitive Services Vision.svg Page-1 -->
<svg xmlns="http://www.w3.org/2000/svg" xmlns:xlink="http://www.w3.org/1999/xlink" xmlns:ev="http://www.w3.org/2001/xml-events"
		width="0.944882in" height="1.04331in" viewBox="0 0 68.0315 75.1181" xml:space="preserve" color-interpolation-filters="sRGB"
		class="st2">
	<style type="text/css">
	<![CDATA[
		.st1 {fill:#3176bc;stroke:#3176bc;stroke-linecap:butt;stroke-width:0.075}
		.st2 {fill:none;fill-rule:evenodd;font-size:12px;overflow:visible;stroke-linecap:square;stroke-miterlimit:3}
	]]>
	</style>

	<g>
		<title>Page-1</title>
		<g id="group2517-1" transform="translate(5.66929,-28.3465)">
			<title>Cognitive Services Vision</title>
			<g id="shape2518-2">
				<title>path1684-9</title>
				<path d="M23.57 74.66 C17.77 73.58 12.26 70.72 7.29 66.22 C4.85 64 2.31 60.75 1.14 58.33 C0.18 56.37 0 54.46 0.59
							 52.64 C1.62 49.47 5.84 44.37 10.2 41.02 C19.63 33.79 31.53 32.6 42.01 37.84 C48.21 40.94 53.01 45.4
							 55.67 50.55 C56.67 52.46 56.69 52.58 56.69 54.85 C56.69 57.13 56.67 57.25 55.67 59.16 C51.69 66.85 42.67
							 73.13 33.4 74.67 C30.68 75.12 26.03 75.11 23.57 74.66 L23.57 74.66 ZM32.87 71.48 C39.81 70.32 46.32
							 66.47 50.74 60.89 C52.66 58.47 53.68 56.37 53.68 54.85 C53.68 51.82 49.29 46.24 44.04 42.61 C41.09 40.57
							 36.98 38.89 33.35 38.25 C30.92 37.81 26.58 37.75 24.36 38.12 C20.75 38.72 16.35 40.61 12.82 43.07 C8.97
							 45.76 3.88 51.7 3.46 54.01 C3.38 54.48 3.38 55.23 3.46 55.7 C3.72 57.1 5.94 60.25 8.51 62.87 C15.42
							 69.89 24.04 72.94 32.87 71.48 ZM34.42 50.18 L34.42 45.75 L38.51 45.75 L42.61 45.75 L42.61 50.18 L42.61
							 54.61 L38.51 54.61 L34.42 54.61 L34.42 50.18 Z" class="st1"/>
			</g>
		</g>
	</g>
</svg>
