<?xml version="1.0" encoding="UTF-8" standalone="no"?>
<!DOCTYPE svg PUBLIC "-//W3C//DTD SVG 1.1//EN" "http://www.w3.org/Graphics/SVG/1.1/DTD/svg11.dtd">
<!-- Generated by Microsoft Visio, SVG Export Cognitive Services Search.svg Page-1 -->
<svg xmlns="http://www.w3.org/2000/svg" xmlns:xlink="http://www.w3.org/1999/xlink" xmlns:ev="http://www.w3.org/2001/xml-events"
		width="0.944882in" height="1.25984in" viewBox="0 0 68.0315 90.7087" xml:space="preserve" color-interpolation-filters="sRGB"
		class="st2">
	<style type="text/css">
	<![CDATA[
		.st1 {fill:#3176bc;stroke:none;stroke-linecap:butt;stroke-width:0.953811}
		.st2 {fill:none;fill-rule:evenodd;font-size:12px;overflow:visible;stroke-linecap:square;stroke-miterlimit:3}
	]]>
	</style>

	<g>
		<title>Page-1</title>
		<g id="group2522-1" transform="translate(5.66929,-28.3465)">
			<title>Cognitive Services Search</title>
			<g id="group2523-2">
				<title>g6</title>
				<g id="shape2524-3">
					<title>path4</title>
					<path d="M24.7 34.7 C26.41 35.15 27.89 35.83 29.37 36.62 C30.74 37.53 32.1 38.55 33.24 39.69 C34.38 40.93 35.4
								 42.18 36.32 43.65 C37.11 45.13 37.8 46.6 38.25 48.3 C38.71 50 38.93 51.7 38.93 53.52 C38.93 55.79
								 38.59 58.05 37.8 60.09 C37 62.14 35.86 64.18 34.38 65.88 L56.12 87.65 C56.47 87.99 56.69 88.44 56.69
								 88.89 C56.69 89.35 56.47 89.8 56.12 90.14 C55.78 90.48 55.33 90.71 54.87 90.71 C54.42 90.71 53.96
								 90.48 53.62 90.14 L31.99 68.49 C30.17 69.96 28.23 71.09 26.18 71.89 C24.02 72.68 21.86 73.02 19.58
								 73.02 C17.76 73.02 16.05 72.79 14.34 72.34 C12.64 71.89 11.16 71.21 9.68 70.41 C8.2 69.62 6.94 68.6
								 5.69 67.35 C4.55 66.1 3.53 64.86 2.62 63.38 C1.82 61.91 1.14 60.43 0.68 58.73 C0.23 57.03 0 55.33
								 0 53.52 C0 51.7 0.23 50 0.68 48.3 C1.14 46.6 1.82 45.13 2.62 43.65 C3.42 42.29 4.44 40.93 5.58 39.69
								 C6.72 38.55 8.08 37.53 9.56 36.62 C11.04 35.83 12.52 35.15 14.23 34.7 C15.94 34.24 17.65 34.02 19.47
								 34.02 C21.29 34.02 23 34.24 24.7 34.7 ZM25.73 68.14 C27.66 67.35 29.37 66.22 30.85 64.74 C32.33
								 63.27 33.47 61.57 34.27 59.64 C35.06 57.71 35.52 55.67 35.52 53.4 C35.52 51.25 35.06 49.1 34.27
								 47.17 C33.47 45.24 32.33 43.54 30.85 42.07 C29.37 40.59 27.66 39.46 25.73 38.66 C23.79 37.87 21.74
								 37.42 19.47 37.42 C17.19 37.42 15.14 37.87 13.21 38.66 C11.27 39.69 9.56 40.82 8.2 42.29 C6.83 43.77
								 5.58 45.35 4.67 47.28 C3.87 49.21 3.42 51.25 3.42 53.52 C3.42 55.67 3.87 57.83 4.67 59.75 C5.46
								 61.68 6.6 63.38 8.08 64.86 C9.56 66.33 11.27 67.46 13.21 68.26 C15.14 69.05 17.19 69.51 19.47 69.51
								 C21.74 69.51 23.68 69.05 25.73 68.14 Z" class="st1"/>
				</g>
			</g>
		</g>
	</g>
</svg>
