<?xml version="1.0" encoding="UTF-8" standalone="no"?>
<!DOCTYPE svg PUBLIC "-//W3C//DTD SVG 1.1//EN" "http://www.w3.org/Graphics/SVG/1.1/DTD/svg11.dtd">
<!-- Generated by Microsoft Visio, SVG Export Cognitive Services Language.svg Page-1 -->
<svg xmlns="http://www.w3.org/2000/svg" xmlns:xlink="http://www.w3.org/1999/xlink" xmlns:ev="http://www.w3.org/2001/xml-events"
		width="0.944882in" height="0.956693in" viewBox="0 0 68.0315 68.8819" xml:space="preserve"
		color-interpolation-filters="sRGB" class="st2">
	<style type="text/css">
	<![CDATA[
		.st1 {fill:#3176bc;stroke:#3176bc;stroke-linecap:butt;stroke-width:0.075}
		.st2 {fill:none;fill-rule:evenodd;font-size:12px;overflow:visible;stroke-linecap:square;stroke-miterlimit:3}
	]]>
	</style>

	<g>
		<title>Page-1</title>
		<g id="group2525-1" transform="translate(5.66929,-28.3465)">
			<title>Cognitive Services Language</title>
			<g id="group2526-2">
				<title>g12</title>
				<g id="shape2527-3">
					<title>path1491-5</title>
					<path d="M4.21 68.7 C4.21 68.65 4.01 67.59 3.76 66.35 C3.51 65.12 3.25 63.66 3.17 63.11 L3.02 62.12 L5.04 60.98
								 C7.27 59.71 9.9 57.45 9.9 56.8 C9.9 56.52 9.35 56.14 8.08 55.58 C2.97 53.31 0 47.43 1.14 41.84 C2.29
								 36.26 7.36 32.03 12.91 32.05 C19.14 32.07 24.18 36.06 25.94 42.37 C26.52 44.47 26.54 49.27 25.97
								 51.58 C23.83 60.32 16.69 66.79 7.39 68.43 C5.37 68.78 4.21 68.88 4.21 68.7 L4.21 68.7 ZM10.22 64.71
								 C17.43 62.37 22.52 56.39 23.47 49.1 C24.61 40.45 18.85 33.79 11.39 35.14 C6.39 36.04 3.03 40.89
								 3.94 45.88 C4.75 50.33 7.69 53.11 12.25 53.71 C13.24 53.85 14.1 53.99 14.14 54.03 C14.35 54.22 13.35
								 57.02 12.73 58.01 C11.8 59.48 9.66 61.52 7.83 62.65 C6.51 63.47 6.34 63.66 6.34 64.34 C6.34 64.76
								 6.41 65.18 6.5 65.27 C6.82 65.59 8.06 65.41 10.22 64.71 ZM34.36 68.7 C34.36 68.65 34.16 67.59 33.91
								 66.35 C33.67 65.12 33.4 63.66 33.32 63.11 L33.17 62.12 L35.19 60.98 C37.42 59.71 40.06 57.45 40.06
								 56.8 C40.06 56.52 39.5 56.14 38.24 55.58 C33.12 53.31 30.15 47.43 31.29 41.84 C32.43 36.28 37.54
								 32.03 43.06 32.05 C49.29 32.07 54.33 36.06 56.09 42.37 C56.68 44.47 56.69 49.27 56.12 51.58 C53.98
								 60.32 46.84 66.79 37.54 68.43 C35.52 68.78 34.36 68.88 34.36 68.7 L34.36 68.7 ZM40.37 64.71 C47.59
								 62.37 52.67 56.39 53.62 49.1 C54.76 40.45 49 33.79 41.54 35.14 C36.54 36.04 33.18 40.89 34.09 45.88
								 C34.9 50.33 37.84 53.11 42.4 53.71 C43.39 53.85 44.25 53.99 44.29 54.03 C44.5 54.22 43.51 57.02
								 42.88 58.01 C41.95 59.48 39.81 61.52 37.98 62.65 C36.66 63.47 36.49 63.66 36.49 64.34 C36.49 64.76
								 36.57 65.18 36.65 65.27 C36.97 65.59 38.21 65.41 40.37 64.71 Z" class="st1"/>
				</g>
			</g>
		</g>
	</g>
</svg>
