<?xml version="1.0" encoding="UTF-8" standalone="no"?>
<!DOCTYPE svg PUBLIC "-//W3C//DTD SVG 1.1//EN" "http://www.w3.org/Graphics/SVG/1.1/DTD/svg11.dtd">
<!-- Generated by Microsoft Visio, SVG Export Cognitive Services Speech.svg Page-1 -->
<svg xmlns="http://www.w3.org/2000/svg" xmlns:xlink="http://www.w3.org/1999/xlink" xmlns:ev="http://www.w3.org/2001/xml-events"
		width="0.944882in" height="1.17323in" viewBox="0 0 68.0315 84.4724" xml:space="preserve" color-interpolation-filters="sRGB"
		class="st2">
	<style type="text/css">
	<![CDATA[
		.st1 {fill:#3176bc;stroke:#3176bc;stroke-linecap:butt;stroke-width:0.075}
		.st2 {fill:none;fill-rule:evenodd;font-size:12px;overflow:visible;stroke-linecap:square;stroke-miterlimit:3}
	]]>
	</style>

	<g>
		<title>Page-1</title>
		<g id="group2519-1" transform="translate(5.66929,-28.3465)">
			<title>Cognitive Services Speech</title>
			<g id="group2520-2">
				<title>g12</title>
				<g id="shape2521-3">
					<title>path1640-0</title>
					<path d="M1.56 84.14 C1.63 83.93 2.73 80.98 4 77.59 C6.6 70.63 6.56 71.32 4.49 68.69 C2.85 66.61 1.15 62.82 0.61
								 60.08 C0 56.98 0.06 51.85 0.74 49.05 C2.49 41.83 7.4 36.3 14.04 34.08 C15.91 33.45 16.02 33.45 28.34
								 33.45 C40.67 33.45 40.77 33.45 42.64 34.08 C49.3 36.32 54.18 41.81 55.95 49.05 C56.69 52.09 56.69
								 57.58 55.96 60.62 C55.16 63.93 53.48 67.34 51.53 69.59 C49.28 72.2 45.97 74.54 43.32 75.4 C40.2
								 76.42 37.58 76.62 27.67 76.63 L18.6 76.63 L10.37 80.42 C5.84 82.51 1.97 84.28 1.77 84.37 C1.53 84.47
								 1.46 84.4 1.56 84.14 L1.56 84.14 ZM13.45 75.15 L18.35 72.86 L29.06 72.86 C41.11 72.86 41.28 72.84
								 44.72 70.92 C48.25 68.95 51.19 65.2 52.47 61.02 C53.29 58.36 53.41 52.7 52.7 49.72 C51.97 46.6 50.71
								 44.34 48.31 41.79 C45.97 39.3 43.56 37.84 40.76 37.21 C38.21 36.64 18.47 36.64 15.93 37.21 C13.13
								 37.84 10.72 39.3 8.38 41.79 C4.84 45.53 3.51 49.08 3.51 54.71 C3.51 56.37 3.62 58.35 3.75 59.11
								 C4.36 62.54 6.89 67.11 9.18 68.91 C9.77 69.38 10.27 69.89 10.27 70.05 C10.28 70.2 9.77 71.69 9.15
								 73.34 C8.02 76.36 7.79 77.44 8.29 77.44 C8.44 77.44 10.76 76.41 13.45 75.15 ZM15.55 58.16 C13.92
								 57.58 13.29 56.63 13.29 54.72 C13.29 53.76 13.44 53.32 14 52.65 C14.6 51.93 14.93 51.78 16.13 51.67
								 C17.48 51.55 17.58 51.59 18.43 52.49 C19.19 53.3 19.31 53.62 19.31 54.69 C19.31 55.38 19.14 56.31
								 18.92 56.75 C18.36 57.9 16.74 58.58 15.55 58.16 ZM27.59 58.16 C25.96 57.58 25.33 56.63 25.33 54.72
								 C25.33 53.76 25.48 53.32 26.04 52.65 C26.64 51.93 26.97 51.78 28.17 51.67 C29.52 51.55 29.63 51.59
								 30.47 52.49 C31.23 53.3 31.35 53.62 31.35 54.69 C31.35 55.38 31.18 56.31 30.96 56.75 C30.41 57.9
								 28.78 58.58 27.59 58.16 ZM39.63 58.16 C38 57.58 37.37 56.63 37.37 54.72 C37.37 53.76 37.52 53.32
								 38.08 52.65 C38.68 51.93 39.01 51.78 40.21 51.67 C41.56 51.55 41.67 51.59 42.51 52.49 C43.27 53.3
								 43.39 53.62 43.39 54.69 C43.39 55.38 43.22 56.31 43 56.75 C42.45 57.9 40.82 58.58 39.63 58.16 Z"
							class="st1"/>
				</g>
			</g>
		</g>
	</g>
</svg>
