<?xml version="1.0" encoding="UTF-8" standalone="no"?>
<!DOCTYPE svg PUBLIC "-//W3C//DTD SVG 1.1//EN" "http://www.w3.org/Graphics/SVG/1.1/DTD/svg11.dtd">
<!-- Generated by Microsoft Visio, SVG Export Cognitive Services Decision.svg Page-1 -->
<svg xmlns="http://www.w3.org/2000/svg" xmlns:xlink="http://www.w3.org/1999/xlink" xmlns:ev="http://www.w3.org/2001/xml-events"
		width="0.950329in" height="1.21654in" viewBox="0 0 68.4237 87.5906" xml:space="preserve" color-interpolation-filters="sRGB"
		class="st2">
	<style type="text/css">
	<![CDATA[
		.st1 {fill:#ecfffc;stroke:#3176bc;stroke-linecap:butt;stroke-width:1.875}
		.st2 {fill:none;fill-rule:evenodd;font-size:12px;overflow:visible;stroke-linecap:square;stroke-miterlimit:3}
	]]>
	</style>

	<g>
		<title>Page-1</title>
		<g id="group2533-1" transform="translate(5.66929,-28.3465)">
			<title>Cognitive Services Decision</title>
			<g id="shape2534-2">
				<title>path2269-5</title>
				<path d="M5.73 87.28 C4.71 86.94 4.18 86.59 3.46 85.82 C2.36 84.63 2.07 83.86 1.99 81.93 C1.93 80.37 1.96 80.17 2.37
							 79.22 C3.13 77.47 4.79 76.21 6.76 75.88 C10.28 75.29 13 77.6 13.17 81.33 C13.28 83.92 12.26 85.82 10.18
							 86.88 C9.26 87.35 8.92 87.43 7.74 87.46 C6.94 87.49 6.11 87.41 5.73 87.28 ZM9.78 85.5 C11.6 84.59 12.26
							 81.76 11.18 79.54 C10.76 78.68 10.47 78.38 9.58 77.92 C7.73 76.97 5.17 77.6 4.08 79.27 C3.41 80.29 3.22
							 81.75 3.58 83.09 C3.88 84.22 5.27 85.53 6.53 85.87 C7.31 86.08 9 85.89 9.78 85.5 ZM26.97 87.13 C26.47
							 86.91 25.86 86.56 25.61 86.36 C24.92 85.8 23.97 84.41 23.75 83.64 C23.52 82.84 23.48 80.96 23.67 79.87
							 L23.8 79.13 L17.46 72.58 L11.11 66.02 L10.59 66.25 C9.06 66.89 8.69 66.98 7.42 66.99 C5.6 67.02 4.56
							 66.64 3.55 65.6 C0 61.93 2.02 55.94 7.04 55.24 C8.03 55.1 9.51 55.37 10.29 55.84 C10.59 56.02 10.99
							 56.12 11.17 56.08 C11.36 56.03 14.28 53.12 17.67 49.61 L23.83 43.22 L23.69 42.42 C23.61 41.98 23.55
							 41.02 23.55 40.29 C23.57 38.18 24.4 36.64 26.08 35.59 C28.16 34.3 30.36 34.26 32.37 35.48 C33.23 36
							 33.83 36.73 34.34 37.89 C34.68 38.65 34.75 39.05 34.75 40.38 C34.75 41.48 34.67 42.2 34.47 42.77 L34.18
							 43.58 L40.41 50.03 C43.84 53.57 46.76 56.47 46.89 56.47 C47.03 56.47 47.54 56.26 48.02 55.99 C50.04
							 54.86 52.37 54.95 54.16 56.21 C55 56.8 55.24 57.09 55.76 58.15 C56.33 59.31 56.38 59.49 56.39 60.89
							 C56.4 62.79 56.08 63.83 55.13 64.92 C53.83 66.42 52.29 67.03 50.16 66.89 C49.26 66.83 48.73 66.69 47.95
							 66.29 C47.39 66 46.86 65.77 46.79 65.77 C46.52 65.77 34.37 78.46 34.37 78.74 C34.37 78.89 34.49 79.49
							 34.63 80.07 C35.18 82.28 34.49 84.83 33.01 86.09 C31.86 87.06 30.96 87.4 29.32 87.46 C28.08 87.51 27.74
							 87.46 26.97 87.13 ZM30.52 85.84 C31.58 85.59 32.38 84.94 32.84 83.96 C33.36 82.84 33.48 81.95 33.26
							 80.83 C32.78 78.45 30.75 77.07 28.46 77.56 C27.72 77.72 27.45 77.89 26.78 78.6 C25.75 79.69 25.38 80.59
							 25.39 82 C25.4 84.88 27.6 86.53 30.52 85.84 ZM25.44 77.25 C25.88 76.74 27.35 76.06 28.35 75.89 C29.71
							 75.66 31.37 75.94 32.33 76.56 C32.76 76.83 33.19 77.05 33.3 77.05 C33.53 77.05 45.76 64.42 45.76 64.19
							 C45.75 64.1 45.61 63.61 45.44 63.11 C45.06 62 45.03 60.27 45.36 59.3 C45.49 58.91 45.6 58.43 45.6 58.23
							 C45.6 57.99 43.7 55.91 39.38 51.45 L33.16 45.02 L31.96 45.65 C30.81 46.24 30.7 46.27 29.16 46.26 C27.42
							 46.25 26.5 45.96 25.52 45.11 C25.26 44.88 24.95 44.69 24.85 44.69 C24.75 44.69 21.89 47.56 18.49 51.08
							 L12.32 57.46 L12.53 58.17 C13.2 60.46 13.23 62.24 12.62 63.74 C12.5 64.05 12.39 64.44 12.39 64.58 C12.39
							 64.93 24.58 77.55 24.92 77.55 C25.06 77.55 25.3 77.41 25.44 77.25 ZM27.95 66.98 C26.91 66.81 25.85 66.2
							 25.06 65.34 C23.86 64.02 23.55 63.21 23.55 61.29 C23.54 59.92 23.6 59.58 23.96 58.78 C24.56 57.46 25.41
							 56.56 26.65 55.93 C27.63 55.43 27.83 55.4 29.32 55.4 C31.23 55.41 32 55.7 33.22 56.88 C34.42 58.04 34.76
							 58.98 34.77 61.12 C34.77 62.66 34.72 62.97 34.36 63.78 C33.26 66.18 30.72 67.45 27.95 66.98 ZM9.61 64.8
							 C11.02 64.05 11.69 62.63 11.55 60.66 C11.38 58.22 10.06 56.92 7.74 56.91 C5.28 56.91 3.41 58.75 3.41
							 61.16 C3.41 63.05 4.46 64.5 6.29 65.13 C7.01 65.37 8.88 65.19 9.61 64.8 ZM52.35 65.02 C54.03 64.4 54.79
							 63.19 54.79 61.08 C54.79 58.7 53.8 57.4 51.66 56.95 C49.89 56.59 48.07 57.59 47.26 59.38 C46.5 61.08
							 46.95 63.54 48.2 64.46 C49.25 65.24 51.07 65.48 52.35 65.02 ZM30.65 44.6 C32.72 43.97 33.83 41.65 33.19
							 39.35 C32.66 37.48 31.45 36.45 29.59 36.28 C27.82 36.12 25.9 37.32 25.29 38.99 C24.9 40.04 25.03 41.97
							 25.53 42.71 C26.12 43.58 26.93 44.22 27.85 44.55 C28.87 44.92 29.58 44.93 30.65 44.6 ZM48.68 87.18 C45.61
							 86.11 44.17 81.99 45.77 78.88 C46.8 76.89 48.63 75.85 51.1 75.85 C52.36 75.85 52.62 75.91 53.55 76.38
							 C55.38 77.31 56.38 79.16 56.38 81.65 C56.38 82.39 56.29 83.29 56.18 83.64 C55.68 85.23 54.32 86.65 52.77
							 87.2 C51.68 87.59 49.81 87.58 48.68 87.18 L48.68 87.18 ZM52.97 85.52 C53.79 85.09 54.53 84.17 54.76
							 83.32 C55.02 82.32 54.87 80.44 54.46 79.61 C53.76 78.2 52.52 77.48 50.81 77.49 C49.67 77.5 49.08 77.78
							 48.28 78.69 C47.31 79.8 46.98 80.63 46.98 81.95 C46.97 83.91 47.93 85.31 49.6 85.8 C50.54 86.07 52.19
							 85.94 52.97 85.52 ZM5.85 46.26 C4.7 45.94 4.14 45.62 3.4 44.85 C1.12 42.49 1.22 38.17 3.61 36.18 C6.2
							 34 9.66 34.07 11.58 36.32 C12.82 37.79 13.36 39.91 12.97 41.85 C12.68 43.29 12.39 43.87 11.51 44.78
							 C10.04 46.3 7.95 46.84 5.85 46.26 ZM8.87 44.59 C10.87 43.99 11.67 42.87 11.66 40.63 C11.65 39.52 11.58
							 39.16 11.23 38.45 C10.69 37.38 10.04 36.8 8.98 36.48 C7.95 36.16 7.37 36.16 6.36 36.47 C3.97 37.21 2.72
							 40.12 3.79 42.45 C4.71 44.47 6.61 45.27 8.87 44.59 ZM49.25 46.18 C47.68 45.77 46.33 44.61 45.62 43.06
							 C45.25 42.24 45.2 41.91 45.2 40.46 C45.2 38.98 45.25 38.7 45.65 37.86 C47 35.01 50.87 33.73 53.63 35.23
							 C55.61 36.31 56.69 38.82 56.33 41.5 C55.95 44.29 53.87 46.18 51.06 46.29 C50.39 46.32 49.58 46.27 49.25
							 46.18 ZM52.93 44.34 C53.75 43.93 54.53 43.01 54.75 42.2 C54.83 41.88 54.9 41.13 54.9 40.53 C54.91 37.38
							 52.25 35.46 49.4 36.56 C47.67 37.23 46.65 38.78 46.66 40.72 C46.66 41.6 46.74 41.96 47.09 42.56 C48.23
							 44.58 50.86 45.38 52.93 44.34 Z" class="st1"/>
			</g>
		</g>
	</g>
</svg>
