<?xml version="1.0" encoding="UTF-8" standalone="no"?>
<!DOCTYPE svg PUBLIC "-//W3C//DTD SVG 1.1//EN" "http://www.w3.org/Graphics/SVG/1.1/DTD/svg11.dtd">
<!-- Generated by Microsoft Visio, SVG Export Compute &#38; App.svg Page-1 -->
<svg xmlns="http://www.w3.org/2000/svg" xmlns:xlink="http://www.w3.org/1999/xlink" xmlns:ev="http://www.w3.org/2001/xml-events"
		width="1.31867in" height="1.44673in" viewBox="0 0 94.9445 104.164" xml:space="preserve" color-interpolation-filters="sRGB"
		class="st9">
	<style type="text/css">
	<![CDATA[
		.st1 {fill:#7c7b7b;stroke:none;stroke-linecap:butt;stroke-width:19.125}
		.st2 {fill:#9fa0a2;stroke:none;stroke-linecap:butt;stroke-width:19.125}
		.st3 {fill:#ffffff;fill-opacity:0.2;stroke:none;stroke-linecap:butt;stroke-width:19.125}
		.st4 {fill:#5bb4da;stroke:none;stroke-linecap:butt;stroke-width:19.125}
		.st5 {fill:#b8d433;stroke:none;stroke-linecap:butt;stroke-width:19.125}
		.st6 {fill:#ffffff;stroke:none;stroke-linecap:butt;stroke-width:19.125}
		.st7 {fill:#ffffff;fill-opacity:0.7;stroke:none;stroke-linecap:butt;stroke-width:19.125}
		.st8 {fill:#ffffff;fill-opacity:0.4;stroke:none;stroke-linecap:butt;stroke-width:19.125}
		.st9 {fill:none;fill-rule:evenodd;font-size:12px;overflow:visible;stroke-linecap:square;stroke-miterlimit:3}
	]]>
	</style>

	<g>
		<title>Page-1</title>
		<g id="group2481-1" transform="translate(19.1265,-28.3465)">
			<title>Compute &#38; App</title>
			<g id="group2482-2">
				<title> Dashboard_computeapps-pathfind</title>
				<g id="shape2483-3" transform="translate(8.37998,-11.8077)">
					<title>path6</title>
					<path d="M20.07 103.43 L20.07 103.38 C20.07 100.18 21.04 97.21 22.69 94.73 L22.65 94.79 L9.96 94.79 C11.55 100.4
								 9.42 101.2 0 101.2 L0 104.16 L20.07 104.16 L20.07 103.43 L20.07 103.43 Z" class="st1"/>
				</g>
				<g id="shape2484-5" transform="translate(-2.83773E-13,-21.1793)">
					<title>path8</title>
					<path d="M44.2 97.06 A15.6058 15.5808 0 0 1 48.83 97.76 L48.71 97.73 L48.71 71.49 A3.018 3.01318 -180 0 0 45.77
								 68.65 L2.65 68.65 A2.76191 2.7575 -180 0 0 0 71.5 L0 71.49 L0 101.45 A2.73345 2.72909 -180 0 0 2.64
								 104.16 L31.1 104.16 C33.94 99.88 38.75 97.09 44.2 97.06 L44.2 97.06 L44.2 97.06 Z" class="st2"/>
				</g>
				<g id="shape2485-7" transform="translate(2.79776E-13,-21.1793)">
					<title>path10</title>
					<path d="M45.77 68.65 L2.65 68.65 A2.76191 2.7575 -180 0 0 -0 71.5 L0 71.49 L0 101.45 A2.73345 2.72909 -180 0
								 0 2.64 104.16 L3.67 104.16 L45.8 68.65 L45.77 68.65 Z" class="st3"/>
				</g>
				<g id="shape2486-9" transform="translate(3.69914,-24.9027)">
					<title>path12</title>
					<path d="M40.51 100.78 L41.22 100.78 L41.22 76.12 L0 76.12 L0 104.16 L30.77 104.16 A15.5471 15.5222 0 0 1 40.5
								 100.78 L40.51 100.78 L40.51 100.78 Z" class="st4"/>
				</g>
				<g id="shape2487-11" transform="translate(3.69914,-24.8885)">
					<title>path14</title>
					<path d="M0 104.16 L0.04 104.16 L0.04 76.11 L37.73 76.05 L0 76.11 L0 104.16 Z" class="st4"/>
				</g>
				<g id="shape2488-13" transform="translate(23.4611,-53.9656)">
					<title>path16</title>
					<path d="M1.39 103.47 L1.39 103.48 a0.682919 0.681828 0 0 1 -0.682919 0.681828 a0.711374 0.710237 0 1 1 -9.99201E-15
								 -1.42047 C1.09 102.74 1.39 103.05 1.39 103.43 L1.39 103.47 Z" class="st5"/>
				</g>
				<g id="shape2489-15" transform="translate(16.0913,-39.7733)">
					<title>path18</title>
					<path d="M8.79 104.16 L8.66 104.16 L0.13 99.22 a0.313004 0.312504 0 0 1 -0.128047 -0.2255 L0 98.99 C0 98.9 0.05
								 98.81 0.13 98.76 L0.13 98.76 L8.66 93.85 a0.2721 0.271666 0 0 1 0.257873 0.00177559 L8.92 93.85
								 L17.46 98.79 C17.53 98.85 17.58 98.93 17.59 99.02 L17.59 99.02 a0.2721 0.271666 0 0 1 -0.126269
								 0.227276 L17.46 99.25 L8.92 104.16 L8.78 104.16 L8.79 104.16 Z" class="st6"/>
				</g>
				<g id="shape2490-17" transform="translate(14.8677,-27.7454)">
					<title>path20</title>
					<path d="M8.79 104.15 C8.77 104.16 8.75 104.16 8.73 104.16 C8.71 104.16 8.68 104.16 8.66 104.15 L8.66 104.15
								 L0.13 99.24 a0.313004 0.312504 0 0 1 -0.128047 -0.2255 L0 89.07 C0 88.97 0.05 88.89 0.13 88.84 L0.13
								 88.84 C0.17 88.81 0.21 88.8 0.26 88.8 C0.31 88.8 0.36 88.81 0.4 88.84 L8.93 93.77 a0.268544 0.268115
								 0 0 1 0.128047 0.227276 L9.06 103.94 a0.273879 0.273441 0 0 1 -0.126269 0.213071 L8.93 104.15 a0.241867
								 0.241481 0 0 1 -0.129826 0 L8.81 104.15 L8.79 104.15 Z" class="st7"/>
				</g>
				<g id="shape2491-19" transform="translate(25.8229,-27.7578)">
					<title>path22</title>
					<path d="M0.26 104.16 L0.11 104.16 a0.254316 0.25391 0 0 1 -0.11382 -0.213071 L0 94.06 C0 93.98 0.04 93.9 0.11
								 93.85 L0.12 93.85 L8.65 88.92 a0.302334 0.301851 0 0 1 0.2721 0.00177559 L8.92 88.92 C8.99 88.98
								 9.04 89.06 9.05 89.15 L9.05 98.98 a0.314783 0.31428 0 0 1 -0.128047 0.227276 L0.39 104.12 a0.241867
								 0.241481 0 0 1 -0.129826 0 L0.26 104.12 L0.26 104.16 Z" class="st8"/>
				</g>
				<g id="shape2492-21" transform="translate(32.3812,0)">
					<title>path24</title>
					<path d="M19.36 101.45 A12.7176 12.6973 0 0 1 11.47 104.16 A12.8047 12.7843 0 1 1 21.66 83.63 L21.68 83.66 A12.634
								 12.6138 0 0 1 24.31 91.39 A12.7016 12.6813 0 0 1 19.39 101.43 L19.36 101.45 L19.36 101.45 Z"
							class="st4"/>
				</g>
				<g id="shape2493-23" transform="translate(33.15,-2.97589)">
					<title>path26</title>
					<path d="M16.25 96.61 A2.84372 2.83917 -180 0 0 20.11 97.12 L20.1 97.12 L20.26 96.95 L22.84 98.74 C22.95 98.46
								 23.06 98.1 23.16 97.72 L23.18 97.65 A68.299 68.1899 0 0 1 20.99 95.93 A2.71745 2.71311 -180 0 0
								 17.06 92.61 L17.07 92.61 A154.75 154.503 0 0 1 12.8 88.62 A14.8268 14.8031 0 0 1 20.93 86.46 L20.92
								 86.46 C20.34 85.75 19.71 85.12 19.02 84.56 L19 84.54 A13.5232 13.5016 -180 0 0 10.39 86.16 L10.46
								 86.13 A112.708 112.528 0 0 1 6.89 82.21 C6.22 82.42 5.66 82.65 5.12 82.92 L5.19 82.89 A27.7863 27.7419
								 -180 0 0 8.66 87.26 L8.65 87.25 A23.9804 23.9421 -180 0 0 5.12 90.29 L5.11 90.3 L4.68 90.79 A3.65468
								 3.64884 -180 0 0 2.55 90.94 L2.58 90.93 A9.17316 9.15851 0 0 1 1.6 86.79 C1.6 86.3 1.64 85.82 1.72
								 85.35 L1.71 85.4 C1.2 85.9 0.73 86.44 0.31 87.02 L0.29 87.06 A8.02074 8.00793 -180 0 0 0.08 88.88
								 C0.08 90.08 0.34 91.23 0.81 92.26 L0.78 92.2 C0.3 92.84 0 93.66 0 94.54 C0 95.42 0.3 96.23 0.79
								 96.89 L0.78 96.88 C0.87 96.99 0.97 97.09 1.07 97.2 A18.2556 18.2265 -180 0 0 0.33 101.62 L0.33 101.66
								 C0.44 101.82 0.44 101.96 0.57 102.12 C1.2 102.88 1.9 103.55 2.66 104.14 L2.69 104.16 A13.8789 13.8567
								 0 0 1 3.59 98.27 L3.56 98.37 A3.82897 3.82285 -180 0 0 5.36 98.08 L5.34 98.08 L6.38 98.95 C7.46
								 99.82 8.68 100.6 9.97 101.26 L10.09 101.31 A2.60541 2.60124 -180 0 0 10.59 103.12 L10.59 103.11
								 A2.54138 2.53732 -180 0 0 14.15 103.58 L14.14 103.58 A2.96998 2.96524 -180 0 0 14.71 102.97 L14.71
								 102.96 C16.18 103.29 17.86 103.48 19.58 103.48 L19.71 103.48 L19.71 103.48 C20.36 102.93 20.91 102.31
								 21.38 101.61 L21.4 101.58 A12.9417 12.921 0 0 1 19.14 101.77 A13.3116 13.2903 0 0 1 15.03 101.13
								 L15.13 101.15 A2.39022 2.3864 -180 0 0 14.67 100.14 L14.67 100.14 A2.53249 2.52844 -180 0 0 11.29
								 99.57 L11.3 99.56 C9.99 98.85 8.86 98.1 7.82 97.24 L7.86 97.28 C7.62 97.09 7.37 96.91 7.16 96.71
								 C7.53 96.12 7.75 95.41 7.75 94.65 C7.75 94 7.59 93.39 7.31 92.85 L7.32 92.87 C7.46 92.72 7.62 92.57
								 7.76 92.43 A26.5325 26.4901 0 0 1 11 89.8 L11.09 89.75 L10.96 89.55 C10.99 89.59 11.03 89.63 11.07
								 89.66 L11.07 89.66 C12.67 91.08 14.36 92.5 15.95 93.77 A2.72456 2.72021 -180 0 0 16.25 96.61 L16.25
								 96.61 L16.25 96.61 Z" class="st6"/>
				</g>
				<g id="shape2494-25" transform="translate(8.43689,-11.8059)">
					<title>path28</title>
					<path d="M20.02 103.43 A16.4327 16.4065 0 0 1 20.2 101.14 L20.19 101.22 L0 101.22 L0 104.16 L20.02 104.16 L20.02
								 103.43 Z" class="st2"/>
				</g>
			</g>
		</g>
	</g>
</svg>
