<?xml version="1.0" encoding="UTF-8" standalone="no"?>
<!DOCTYPE svg PUBLIC "-//W3C//DTD SVG 1.1//EN" "http://www.w3.org/Graphics/SVG/1.1/DTD/svg11.dtd">
<!-- Generated by Microsoft Visio, SVG Export Conditional Access.svg Page-1 -->
<svg xmlns="http://www.w3.org/2000/svg" xmlns:xlink="http://www.w3.org/1999/xlink" xmlns:ev="http://www.w3.org/2001/xml-events"
		width="1.73185in" height="1.73187in" viewBox="0 0 124.693 124.695" xml:space="preserve" color-interpolation-filters="sRGB"
		class="st5">
	<style type="text/css">
	<![CDATA[
		.st1 {fill:#86d633;stroke:none;stroke-linecap:butt;stroke-width:34}
		.st2 {fill:url(#grad0-8);stroke:none;stroke-linecap:butt;stroke-width:34}
		.st3 {fill:#9cebff;stroke:none;stroke-linecap:butt;stroke-width:34}
		.st4 {fill:#0078d4;stroke:none;stroke-linecap:butt;stroke-width:34}
		.st5 {fill:none;fill-rule:evenodd;font-size:12px;overflow:visible;stroke-linecap:square;stroke-miterlimit:3}
	]]>
	</style>

	<defs id="Patterns_And_Gradients">
		<linearGradient id="grad0-8" x1="0" y1="0" x2="1" y2="0" gradientTransform="rotate(-124.76538136097 0.5 0.5)">
			<stop offset="0" stop-color="#5e9624" stop-opacity="1"/>
			<stop offset="0.26" stop-color="#70a828" stop-opacity="1"/>
			<stop offset="0.79" stop-color="#9fd732" stop-opacity="1"/>
			<stop offset="1" stop-color="#b4ec36" stop-opacity="1"/>
		</linearGradient>
	</defs>
	<g>
		<title>Page-1</title>
		<g id="group2472-1" transform="translate(34,-34.002)">
			<title>Conditional Access</title>
			<g id="group2473-2">
				<title>Icon-intune-336</title>
				<g id="shape2474-3" transform="translate(0,-9.40651)">
					<title>Sheet.2474</title>
					<path d="M39.7 99.49 C39.7 112.19 23.91 122.43 20.49 124.5 A1.1755 1.16721 0 0 1 19.18 124.5 C15.75 122.43 0
								 112.19 0 99.49 L0 84.18 A1.24268 1.2339 0 0 1 1.21 82.98 C13.47 82.64 10.65 77.41 19.85 77.41 C29.05
								 77.41 26.2 82.64 38.42 82.98 A1.27626 1.26725 0 0 1 39.66 84.18 L39.7 99.49 Z" class="st1"/>
				</g>
				<g id="shape2475-5" transform="translate(1.64571,-11.3605)">
					<title>Sheet.2475</title>
					<path d="M36.41 101.57 C36.41 113.24 21.93 122.62 18.81 124.52 A1.10833 1.10051 0 0 1 17.6 124.52 C14.44 122.62
								 0 113.24 0 101.57 L0 87.7 A1.10833 1.10051 0 0 1 1.11 86.6 C12.36 86.13 9.91 81.33 18.2 81.33 C26.5
								 81.33 24.05 86.13 35.27 86.43 A1.14192 1.13386 0 0 1 36.41 87.53 L36.41 101.57 Z" class="st2"/>
				</g>
				<g id="shape2476-9" transform="translate(18.002,1.42109E-14)">
					<title>Sheet.2476</title>
					<path d="M1.24 95.18 L37.45 95.18 A1.1755 1.16721 0 0 1 38.69 96.28 L38.69 123.59 A1.1755 1.16721 0 0 1 37.45
								 124.69 L1.24 124.69 A1.20909 1.20056 0 0 1 0 123.59 L0 96.35 A1.20909 1.20056 0 0 1 1.24 95.18 Z"
							class="st3"/>
				</g>
				<g id="shape2477-11" transform="translate(18.002,-4.46874)">
					<title>Sheet.2477</title>
					<path d="M1.18 99.65 L37.52 99.65 A1.10833 1.10051 0 0 1 38.69 100.68 L38.69 104.82 L0 104.82 L0 100.82 A1.10833
								 1.10051 0 0 1 1.18 99.78 L1.18 99.65 ZM33.42 115.52 L9.54 115.52 C9 115.52 8.6 115.79 8.6 116.06
								 L8.6 117.49 C8.6 117.79 9 118.03 9.54 118.03 L33.42 118.03 C33.96 118.03 34.39 117.79 34.39 117.49
								 L34.39 116.16 C34.39 115.79 33.85 115.52 33.42 115.52 ZM33.42 109.52 L9.54 109.52 C9 109.52 8.6
								 109.75 8.6 110.05 L8.6 111.36 C8.6 111.66 9 111.89 9.54 111.89 L33.42 111.89 C33.96 111.89 34.39
								 111.66 34.39 111.36 L34.39 110.05 C34.39 109.75 33.85 109.52 33.42 109.52 ZM33.42 122.29 L9.54 122.29
								 C9 122.29 8.6 122.53 8.6 122.83 L8.6 124.16 C8.6 124.46 9 124.69 9.54 124.69 L33.42 124.69 C33.96
								 124.69 34.39 124.46 34.39 124.16 L34.39 122.83 C34.39 122.53 33.85 122.29 33.42 122.29 Z"
							class="st4"/>
				</g>
				<g id="shape2478-13" transform="translate(21.0583,-16.9078)">
					<title>Sheet.2478</title>
					<ellipse cx="1.57853" cy="123.128" rx="1.57853" ry="1.56739" class="st4"/>
				</g>
				<g id="shape2479-15" transform="translate(21.0583,-10.8717)">
					<title>Sheet.2479</title>
					<ellipse cx="1.57853" cy="123.128" rx="1.57853" ry="1.56739" class="st4"/>
				</g>
				<g id="shape2480-17" transform="translate(21.0583,-4.1019)">
					<title>Sheet.2480</title>
					<ellipse cx="1.57853" cy="123.128" rx="1.57853" ry="1.56739" class="st4"/>
				</g>
			</g>
		</g>
	</g>
</svg>
