<?xml version="1.0" encoding="UTF-8" standalone="no"?>
<!DOCTYPE svg PUBLIC "-//W3C//DTD SVG 1.1//EN" "http://www.w3.org/Graphics/SVG/1.1/DTD/svg11.dtd">
<!-- Generated by Microsoft Visio, SVG Export Configuration Management.svg Page-1 -->
<svg xmlns="http://www.w3.org/2000/svg" xmlns:xlink="http://www.w3.org/1999/xlink" xmlns:ev="http://www.w3.org/2001/xml-events"
		width="1.04866in" height="1.3511in" viewBox="0 0 75.5036 97.2794" xml:space="preserve" color-interpolation-filters="sRGB"
		class="st5">
	<style type="text/css">
	<![CDATA[
		.st1 {fill:#a0a1a2;stroke:none;stroke-linecap:butt;stroke-width:12.24}
		.st2 {fill:#3999c6;stroke:none;stroke-linecap:butt;stroke-width:12.24}
		.st3 {fill:#ffffff;stroke:none;stroke-linecap:butt;stroke-width:12.24}
		.st4 {fill:#000000;fill-opacity:0.2;stroke:none;stroke-linecap:butt;stroke-width:12.24}
		.st5 {fill:none;fill-rule:evenodd;font-size:12px;overflow:visible;stroke-linecap:square;stroke-miterlimit:3}
	]]>
	</style>

	<g>
		<title>Page-1</title>
		<g id="group2466-1" transform="translate(12.24,-28.3465)">
			<title>Configuration Management</title>
			<g id="group2467-2">
				<title>g12</title>
				<g id="shape2468-3">
					<title>path4</title>
					<path d="M40.82 40.59 L0 40.59 L0 97.28 L51.02 97.28 L51.02 50.67 L40.82 40.59 Z" class="st1"/>
				</g>
				<g id="shape2469-5" transform="translate(2.55118,-2.51969)">
					<title>path6</title>
					<path d="M36.99 45.63 L0 45.63 L0 97.28 L45.92 97.28 L45.92 54.44 L36.99 54.44 L36.99 45.63 Z" class="st2"/>
				</g>
				<g id="shape2470-7" transform="translate(7.35123,-8.69039)">
					<title>path8</title>
					<path d="M16.88 66.91 C16.88 66.21 17.47 65.65 18.2 65.65 L33.43 65.65 C34.16 65.65 34.74 66.21 34.74 66.91 C34.74
								 67.62 34.16 68.17 33.43 68.17 L18.2 68.17 C17.47 68.17 16.88 67.62 16.88 66.91 ZM16.88 79.51 C16.88
								 78.81 17.47 78.25 18.2 78.25 L33.43 78.25 C34.16 78.25 34.74 78.81 34.74 79.51 C34.74 80.21 34.16
								 80.77 33.43 80.77 L18.2 80.77 C17.47 80.77 16.88 80.21 16.88 79.51 ZM0.62 66.25 L0.13 65.73 C0 65.59
								 0 65.37 0.15 65.24 L1.56 63.95 a0.344409 0.340157 0 0 1 0.491102 0.0201575 L5.95 68.09 L12.65 59.62
								 a0.345685 0.341417 0 0 1 0.491102 -0.0579528 L14.67 60.72 a0.334205 0.330079 0 0 1 0.133937 0.225512
								 a0.339307 0.335118 0 0 1 -0.0752598 0.251969 L6.12 72.08 L0.62 66.25 ZM0.62 78.85 L0.13 78.33 C0
								 78.19 0 77.97 0.15 77.84 L1.56 76.54 a0.344409 0.340157 0 0 1 0.491102 0.0201575 L5.95 80.69 L12.65
								 72.21 a0.345685 0.341417 0 0 1 0.491102 -0.0579528 L14.67 73.32 a0.334205 0.330079 0 0 1 0.133937
								 0.225512 a0.339307 0.335118 0 0 1 -0.0752598 0.251969 L6.12 84.68 L0.62 78.85 ZM16.88 92.11 C16.88
								 91.41 17.47 90.85 18.2 90.85 L33.43 90.85 C34.16 90.85 34.74 91.41 34.74 92.11 C34.74 92.81 34.16
								 93.37 33.43 93.37 L18.2 93.37 C17.47 93.37 16.88 92.81 16.88 92.11 ZM0.62 91.45 L0.13 90.93 C0 90.79
								 0 90.57 0.15 90.44 L1.56 89.14 a0.344409 0.340157 0 0 1 0.491102 0.0201575 L5.95 93.29 L12.65 84.81
								 a0.345685 0.341417 0 0 1 0.491102 -0.0579528 L14.67 85.92 a0.334205 0.330079 0 0 1 0.133937 0.225512
								 a0.339307 0.335118 0 0 1 -0.0752598 0.251969 L6.12 97.28 L0.62 91.45 Z" class="st3"/>
				</g>
				<g id="shape2471-9" transform="translate(39.5433,-44.0945)">
					<title>path10</title>
					<rect x="0" y="96.0195" width="8.92913" height="1.25984" class="st4"/>
				</g>
			</g>
		</g>
	</g>
</svg>
