<?xml version="1.0" encoding="UTF-8" standalone="no"?>
<!DOCTYPE svg PUBLIC "-//W3C//DTD SVG 1.1//EN" "http://www.w3.org/Graphics/SVG/1.1/DTD/svg11.dtd">
<!-- Generated by Microsoft Visio, SVG Export Connection Monitor.svg Page-1 -->
<svg xmlns="http://www.w3.org/2000/svg" xmlns:xlink="http://www.w3.org/1999/xlink" xmlns:ev="http://www.w3.org/2001/xml-events"
		width="1.1274in" height="1.3511in" viewBox="0 0 81.1729 97.2794" xml:space="preserve" color-interpolation-filters="sRGB"
		class="st10">
	<style type="text/css">
	<![CDATA[
		.st1 {fill:#7a7a7a;stroke:none;stroke-linecap:butt;stroke-width:12.24}
		.st2 {fill:#a0a1a2;stroke:none;stroke-linecap:butt;stroke-width:12.24}
		.st3 {fill:#ffffff;fill-opacity:0.2;stroke:none;stroke-linecap:butt;stroke-width:12.24}
		.st4 {fill:#59b4d9;stroke:none;stroke-linecap:butt;stroke-width:12.24}
		.st5 {fill:#b8d432;stroke:none;stroke-linecap:butt;stroke-width:12.24}
		.st6 {fill:#ffffff;stroke:none;stroke-linecap:butt;stroke-width:12.24}
		.st7 {fill:#ffffff;fill-opacity:0.7;stroke:none;stroke-linecap:butt;stroke-width:12.24}
		.st8 {fill:#ffffff;fill-opacity:0.4;stroke:none;stroke-linecap:butt;stroke-width:12.24}
		.st9 {fill:#804998;stroke:none;stroke-linecap:butt;stroke-width:12.24}
		.st10 {fill:none;fill-rule:evenodd;font-size:12px;overflow:visible;stroke-linecap:square;stroke-miterlimit:3}
	]]>
	</style>

	<g>
		<title>Page-1</title>
		<g id="group2448-1" transform="translate(12.24,-28.3465)">
			<title>Connection Monitor</title>
			<g id="group2449-2">
				<title>g28</title>
				<g id="shape2450-3" transform="translate(9.08904,-4.52152)">
					<title>path4</title>
					<path d="M26.61 85.15 L11.17 85.15 C13.02 91.83 10.92 93.8 0 93.8 L0 97.28 L36.75 97.28 L36.75 93.78 C25.83 93.78
								 24.76 91.84 26.61 85.15 Z" class="st1"/>
				</g>
				<g id="shape2451-5" transform="translate(2.8777E-13,-16.6531)">
					<title>path6</title>
					<path d="M51.09 57.24 L3.1 57.24 C1.38 57.24 0 58.8 0 60.54 L0 94.01 C0 95.74 1.38 97.28 3.1 97.28 L51.09 97.28
								 C52.8 97.28 54.54 95.74 54.54 94.01 L54.54 60.54 C54.53 58.79 52.8 57.24 51.09 57.24 Z"
							class="st2"/>
				</g>
				<g id="shape2452-7" transform="translate(0,-16.6519)">
					<title>path8</title>
					<path d="M50.96 57.24 L50.93 57.24 L3.09 57.24 C1.38 57.24 0 58.8 0 60.54 L0 94.01 C0 95.74 1.38 97.28 3.09 97.28
								 L4.28 97.28 L50.96 57.24 Z" class="st3"/>
				</g>
				<g id="shape2453-9" transform="translate(4.54452,-20.7526)">
					<title>path10</title>
					<rect x="0" y="65.9765" width="45.4452" height="31.3028" class="st4"/>
				</g>
				<g id="shape2454-11" transform="translate(4.47863,-21.1132)">
					<title>path12</title>
					<path d="M0 97.28 L0.07 97.28 L0.07 66.16 L41.57 66.09 L41.57 66.09 L0 66.16 L0 97.28 Z" class="st4"/>
				</g>
				<g id="shape2455-13" transform="translate(9.08904,-4.52152)">
					<title>path14</title>
					<path d="M0 93.8 L36.75 93.78 L36.75 97.28 L0 97.28 L0 93.8 Z" class="st2"/>
				</g>
				<g id="shape2456-15" transform="translate(26.4593,-53.551)">
					<title>path16</title>
					<path d="M1.61 96.46 a0.806653 0.823149 0 1 1 -1.61331 0 a0.806653 0.823149 0 1 1 1.61331 -1.42109E-14 Z"
							class="st5"/>
				</g>
				<g id="shape2457-17" transform="translate(17.4476,-37.8022)">
					<title>path18</title>
					<path d="M9.85 97.28 a0.299938 0.306072 0 0 1 -0.145425 -0.0417371 L0.14 91.61 a0.290849 0.296797 0 0 1 -4.82947E-15
								 -0.51128 L9.65 85.5 a0.289713 0.295638 0 0 1 0.285169 -1.42109E-14 L19.5 91.13 a0.287441 0.293319
								 0 0 1 0.142016 0.25506 a0.285169 0.291 0 0 1 -0.142016 0.25506 L10 97.24 a0.291986 0.297957 0 0
								 1 -0.146561 0.0428965 Z" class="st6"/>
				</g>
				<g id="shape2458-19" transform="translate(16.0206,-23.9548)">
					<title>path20</title>
					<path d="M9.83 97.28 a0.270399 0.275929 0 0 1 -0.145425 -0.0394184 L0.15 91.69 a0.279488 0.285204 0 0 1 -0.147697
								 -0.252741 L0 80.3 C0 80.19 0.06 80.1 0.15 80.05 a0.289713 0.295638 0 0 1 0.290849 -1.42109E-14 L9.97
								 85.59 a0.29653 0.302594 0 0 1 0.14088 0.253901 L10.11 96.99 C10.11 97.09 10.05 97.19 9.97 97.24
								 a0.304483 0.31071 0 0 1 -0.144289 0.0405777 Z" class="st7"/>
				</g>
				<g id="shape2459-21" transform="translate(28.4033,-23.9548)">
					<title>path22</title>
					<path d="M0.29 97.28 a0.310164 0.316506 0 0 1 -0.149969 -0.0394184 a0.293122 0.299116 0 0 1 -0.139744 -0.253901
								 L0 85.92 a0.295394 0.301435 0 0 1 0.139744 -0.252741 L9.67 80.12 a0.286305 0.29216 0 0 1 0.286305
								 -7.10543E-14 C10.05 80.17 10.1 80.26 10.1 80.37 L10.1 91.44 a0.279488 0.285204 0 0 1 -0.146561 0.252741
								 L0.43 97.24 a0.247676 0.252741 0 0 1 -0.138608 0.0405777 Z" class="st8"/>
				</g>
				<g id="shape2460-23" transform="translate(29.653,2.84217E-13)">
					<title>circle24</title>
					<ellipse cx="13.52" cy="83.4829" rx="13.52" ry="13.7964" class="st9"/>
				</g>
				<g id="shape2461-25" transform="translate(33.3818,-3.80503)">
					<title>path26</title>
					<path d="M12.85 93.61 A6.80542 6.94459 0 0 1 9.79 94.36 A6.93494 7.07676 0 0 1 2.86 87.29 A6.93494 7.07676 0
								 0 1 9.79 80.22 C13.2 80.22 16.03 82.82 16.61 86.13 L13.2 86.13 L17.74 92.51 L22.29 86.13 L19.5 86.13
								 C18.9 81.2 14.78 77.3 9.79 77.3 C4.39 77.3 0 81.78 0 87.29 C0 92.8 4.39 97.28 9.79 97.28 A9.73777
								 9.93691 -180 0 0 14.56 96 L12.85 93.61 Z" class="st6"/>
				</g>
			</g>
		</g>
	</g>
</svg>
