<?xml version="1.0" encoding="UTF-8" standalone="no"?>
<!DOCTYPE svg PUBLIC "-//W3C//DTD SVG 1.1//EN" "http://www.w3.org/Graphics/SVG/1.1/DTD/svg11.dtd">
<!-- Generated by Microsoft Visio, SVG Export Container Registry.svg Page-1 -->
<svg xmlns="http://www.w3.org/2000/svg" xmlns:xlink="http://www.w3.org/1999/xlink" xmlns:ev="http://www.w3.org/2001/xml-events"
		width="1.66068in" height="1.54274in" viewBox="0 0 119.569 111.078" xml:space="preserve" color-interpolation-filters="sRGB"
		class="st9">
	<style type="text/css">
	<![CDATA[
		.st1 {fill:url(#grad0-5)}
		.st2 {stroke:none;stroke-linecap:butt;stroke-width:31.4382}
		.st3 {fill:#767676;stroke:none;stroke-linecap:butt;stroke-width:31.4382}
		.st4 {fill:#999999}
		.st5 {fill:#a3a3a3;stroke:none;stroke-linecap:butt;stroke-width:31.4382}
		.st6 {fill:#b3b3b3;stroke:none;stroke-linecap:butt;stroke-width:31.4382}
		.st7 {fill:url(#grad0-27);stroke:none;stroke-linecap:butt;stroke-width:31.4382}
		.st8 {fill:#999999;stroke:none;stroke-linecap:butt;stroke-width:31.4382}
		.st9 {fill:none;fill-rule:evenodd;font-size:12px;overflow:visible;stroke-linecap:square;stroke-miterlimit:3}
	]]>
	</style>

	<defs id="Patterns_And_Gradients">
		<linearGradient id="grad0-5" x1="0" y1="0" x2="1" y2="0" gradientTransform="rotate(-90 0.5 0.5)">
			<stop offset="0" stop-color="#0078d4" stop-opacity="1"/>
			<stop offset="0.16" stop-color="#1380da" stop-opacity="1"/>
			<stop offset="0.53" stop-color="#3c91e5" stop-opacity="1"/>
			<stop offset="0.82" stop-color="#559cec" stop-opacity="1"/>
			<stop offset="1" stop-color="#5ea0ef" stop-opacity="1"/>
		</linearGradient>
		<linearGradient id="grad0-27" x1="0" y1="0" x2="1" y2="0" gradientTransform="rotate(90 0.5 0.5)">
			<stop offset="0" stop-color="#333132" stop-opacity="1"/>
			<stop offset="1" stop-color="#5b5a5c" stop-opacity="1"/>
		</linearGradient>
	</defs>
	<g>
		<title>Page-1</title>
		<g id="group2389-1" transform="translate(31.4382,-31.4382)">
			<title>Container Registry</title>
			<g id="shape2390-2" transform="translate(0,-9.11083)">
				<title>path22</title>
				<path d="M51.12 90.48 A13.2042 13.3012 -180 0 0 44.12 86.92 A15.4732 15.5868 -180 0 0 28.05 72 A15.9774 16.0947 -180
							 0 0 12.79 82.44 A14.5593 14.6662 -180 0 0 0 96.67 A14.9059 15.0154 -180 0 0 15.41 111.08 L16.77 111.08
							 L41.72 111.08 L42.39 111.08 A12.6054 12.698 -180 0 0 54.74 98.98 A11.5655 11.6504 -180 0 0 51.15 90.63
							 L51.12 90.48 Z" class="st1"/>
				<path d="M51.12 90.48 A13.2042 13.3012 -180 0 0 44.12 86.92 A15.4732 15.5868 -180 0 0 28.05 72 A15.9774 16.0947 -180
							 0 0 12.79 82.44 A14.5593 14.6662 -180 0 0 0 96.67 A14.9059 15.0154 -180 0 0 15.41 111.08 L16.77 111.08
							 L41.72 111.08 L42.39 111.08 A12.6054 12.698 -180 0 0 54.74 98.98 A11.5655 11.6504 -180 0 0 51.15 90.63"
						class="st2"/>
			</g>
			<g id="shape2391-7" transform="translate(31.7342,-14.6662)">
				<title>polygon24</title>
				<path d="M24.96 101.62 L0 92.16 L0.03 105.74 L24.96 111.08 L24.96 101.62 Z" class="st3"/>
			</g>
			<g id="shape2392-9" transform="translate(24.9903,-16.8249)">
				<title>polyline26</title>
				<path d="M6.74 94.32 L0 98.44 L0 111.08 L6.78 107.9 L6.74 94.32 Z" class="st4"/>
				<path d="M6.74 94.32 L0 98.44 L0 111.08 L6.78 107.9" class="st2"/>
			</g>
			<g id="shape2393-12" transform="translate(43.1106,-19.174)">
				<title>polygon28</title>
				<path d="M0 102.89 L0 110.44 L2.27 111.08 L2.27 103.68 L0 102.89 Z" class="st5"/>
			</g>
			<g id="shape2394-14" transform="translate(38.5726,-20.3803)">
				<title>polygon30</title>
				<path d="M2.27 111.08 L2.27 103.36 L0 102.54 L0 110.44 L2.27 111.08 Z" class="st5"/>
			</g>
			<g id="shape2395-16" transform="translate(47.6485,-17.9677)">
				<title>polygon32</title>
				<path d="M0 103.27 L0 110.47 L2.21 111.08 L2.27 104.03 L0 103.27 Z" class="st5"/>
			</g>
			<g id="shape2396-18" transform="translate(34.0662,-21.6184)">
				<title>polygon34</title>
				<path d="M0 102.28 L0 110.51 L2.27 111.08 L2.27 103.05 L0 102.28 Z" class="st5"/>
			</g>
			<g id="shape2397-20" transform="translate(52.155,-16.7296)">
				<title>polygon36</title>
				<path d="M2.27 111.08 L2.27 104.35 L0 103.55 L0 110.44 L2.27 111.08 Z" class="st5"/>
			</g>
			<g id="shape2398-22" transform="translate(26.1563,-19.5549)">
				<title>a8719886-8ecb-4bb1-abaf-d5d3808</title>
				<path d="M1.13 110.41 L0 111.08 L0 102.09 L1.13 101.49 L1.13 110.41 ZM3.37 100.19 L2.21 100.95 L2.21 109.68 L3.37
							 109.05 L3.37 100.19 Z" class="st6"/>
			</g>
			<g id="shape2399-24" transform="translate(24.9903,-12.3171)">
				<title>polygon39</title>
				<path d="M6.78 103.4 L31.7 108.73 L24.9 111.08 L0 106.57 L6.78 103.4 Z" class="st7"/>
			</g>
			<g id="shape2400-28" transform="translate(31.6396,-0.190469)">
				<title>polygon41</title>
				<path d="M25.05 98 L25.05 106.28 L0 111.08 L0.13 93.33 L25.05 98 Z" class="st3"/>
			</g>
			<g id="shape2401-30" transform="translate(34.0662,-3.11101)">
				<title>polygon43</title>
				<path d="M2.27 110.7 L0 111.08 L0 99.81 L2.27 100.09 L2.27 110.7 Z" class="st5"/>
			</g>
			<g id="shape2402-32" transform="translate(38.5726,-3.84115)">
				<title>polygon45</title>
				<path d="M2.27 101.46 L2.27 110.66 L0 111.08 L0 101.11 L2.27 101.46 Z" class="st5"/>
			</g>
			<g id="shape2403-34" transform="translate(43.1106,-4.60303)">
				<title>polygon47</title>
				<path d="M2.27 110.66 L0 111.08 L0 102.44 L2.27 102.73 L2.27 110.66 Z" class="st5"/>
			</g>
			<g id="shape2404-36" transform="translate(47.6485,-5.39666)">
				<title>polygon49</title>
				<path d="M2.24 104.16 L2.24 110.66 L0 111.08 L0 103.81 L2.24 104.16 Z" class="st5"/>
			</g>
			<g id="shape2405-38" transform="translate(52.155,-6.12679)">
				<title>polygon51</title>
				<path d="M2.17 105.4 L2.33 110.66 L0 111.08 L0 105.11 L2.17 105.4 Z" class="st5"/>
			</g>
			<g id="shape2406-40" transform="translate(24.9903,2.41585E-13)">
				<title>b8a4c988-6241-4bdc-bddf-c20634c</title>
				<path d="M0 106.82 L0 96.47 L6.81 93.3 L6.81 111.08 L0 106.82 Z" class="st8"/>
			</g>
			<g id="shape2407-42" transform="translate(26.1248,-2.98403)">
				<title>b623bcd9-1396-4807-80b7-64d0fc8</title>
				<path d="M1.01 109.78 L0 109.27 L0 100.51 L1.01 100.03 L1.01 109.78 ZM3.43 98.82 L2.24 99.43 L2.24 110.47 L3.4 111.08
							 L3.4 98.82 L3.43 98.82 Z" class="st6"/>
			</g>
		</g>
	</g>
</svg>
