<?xml version="1.0" encoding="UTF-8" standalone="no"?>
<!DOCTYPE svg PUBLIC "-//W3C//DTD SVG 1.1//EN" "http://www.w3.org/Graphics/SVG/1.1/DTD/svg11.dtd">
<!-- Generated by Microsoft Visio, SVG Export Controller.svg Page-1 -->
<svg xmlns="http://www.w3.org/2000/svg" xmlns:xlink="http://www.w3.org/1999/xlink" xmlns:ev="http://www.w3.org/2001/xml-events"
		width="1.1274in" height="1.27236in" viewBox="0 0 81.1729 91.6101" xml:space="preserve" color-interpolation-filters="sRGB"
		class="st10">
	<style type="text/css">
	<![CDATA[
		.st1 {fill:#a0a1a2;stroke:none;stroke-linecap:butt;stroke-width:12.24}
		.st2 {fill:#7a7a7a;stroke:none;stroke-linecap:butt;stroke-width:12.24}
		.st3 {fill:#3e3e3e;stroke:none;stroke-linecap:butt;stroke-width:12.24}
		.st4 {fill:#e5e5e5;stroke:none;stroke-linecap:butt;stroke-width:12.24}
		.st5 {fill:#0070c9;stroke:none;stroke-linecap:butt;stroke-width:12.24}
		.st6 {fill:#000e92;stroke:none;stroke-linecap:butt;stroke-width:12.24}
		.st7 {fill:#ffffff;stroke:none;stroke-linecap:butt;stroke-width:12.24}
		.st8 {fill:#ffffff;fill-opacity:0.25;stroke:none;stroke-linecap:butt;stroke-width:12.24}
		.st9 {fill:#3e3e3e;fill-opacity:0.2;stroke:none;stroke-linecap:butt;stroke-width:12.24}
		.st10 {fill:none;fill-rule:evenodd;font-size:12px;overflow:visible;stroke-linecap:square;stroke-miterlimit:3}
	]]>
	</style>

	<g>
		<title>Page-1</title>
		<g id="group2367-1" transform="translate(12.24,-28.3465)">
			<title>Controller</title>
			<g id="shape2368-2" transform="translate(14.4,-29.1892)">
				<title>polygon4</title>
				<path d="M0.11 91.61 L13.72 86.09 L13.72 69.78 L0 75.41 L0.11 91.61 Z" class="st1"/>
			</g>
			<g id="shape2369-4" transform="translate(28.1197,-23.5582)">
				<title>polygon6</title>
				<path d="M13.49 69.09 L0 64.14 L0 64.37 L0 91.61 L13.49 85.98 L13.49 69.09 Z" class="st2"/>
			</g>
			<g id="shape2370-6" transform="translate(14.5134,-23.5582)">
				<title>polygon8</title>
				<path d="M27.1 85.98 L13.61 91.61 L0 85.98 L13.61 80.58 L27.1 85.98 Z" class="st3"/>
			</g>
			<g id="shape2371-8" transform="translate(0,-5.63099)">
				<title>polygon10</title>
				<path d="M0 91.61 L13.72 86.21 L13.72 69.78 L0 76.79 L0 91.61 Z" class="st1"/>
			</g>
			<g id="shape2372-10" transform="translate(13.6063,2.55795E-13)">
				<title>polygon12</title>
				<path d="M13.61 70.35 L0.11 64.14 L0.11 64.37 L0 91.61 L13.61 85.98 L13.61 70.35 Z" class="st2"/>
			</g>
			<g id="shape2373-12">
				<title>polygon14</title>
				<path d="M27.21 85.98 L13.72 91.61 L0 85.98 L13.72 80.58 L27.21 85.98 Z" class="st3"/>
			</g>
			<g id="shape2374-14" transform="translate(29.4803,-5.63099)">
				<title>polygon16</title>
				<path d="M0 91.61 L13.72 86.21 L13.72 69.78 L0 76.1 L0 91.61 Z" class="st4"/>
			</g>
			<g id="shape2375-16" transform="translate(43.0866,2.55795E-13)">
				<title>polygon18</title>
				<path d="M13.61 70.35 L0.11 64.14 L0.11 64.37 L0 91.61 L13.61 85.98 L13.61 70.35 Z" class="st1"/>
			</g>
			<g id="shape2376-18" transform="translate(29.4803,0)">
				<title>polygon20</title>
				<path d="M27.21 85.98 L13.72 91.61 L0 85.98 L13.72 80.58 L27.21 85.98 Z" class="st5"/>
			</g>
			<g id="shape2377-20" transform="translate(34.0157,-7.69951)">
				<title>path22</title>
				<path d="M16.78 91.61 L1.47 91.61 C0.68 91.61 0 90.92 0 90.12 L0 80.12 C0 79.31 0.57 78.74 1.36 78.74 L16.67 78.74
							 C17.46 78.74 18.14 79.43 18.14 80.23 L18.14 90.12 C18.26 90.92 17.57 91.61 16.78 91.61 Z" class="st6"/>
			</g>
			<g id="shape2378-22" transform="translate(35.4898,-8.84869)">
				<title>polygon24</title>
				<path d="M5.1 91.61 L0 86.44 L5.22 81.38 L6.24 82.42 L1.93 86.44 L6.01 90.69 L5.1 91.61 Z" class="st7"/>
			</g>
			<g id="shape2379-24" transform="translate(44.4472,-8.84869)">
				<title>polygon26</title>
				<path d="M1.02 91.61 L6.12 86.44 L0.91 81.38 L0 82.42 L4.2 86.44 L0.11 90.69 L1.02 91.61 Z" class="st7"/>
			</g>
			<g id="shape2380-26" transform="translate(34.1291,-7.69951)">
				<title>path28</title>
				<path d="M11.91 78.74 L1.25 78.74 C0.45 78.74 0 79.54 0 80.12 L0 90.23 C0 90.81 0.57 91.61 1.36 91.61 L5.44 91.61
							 L11.91 78.74 Z" class="st8"/>
			</g>
			<g id="shape2381-28" transform="translate(35.263,-20.5703)">
				<title>polygon30</title>
				<path d="M0 91.61 L7.48 89.77 L15.42 91.61 L0 91.61 Z" class="st9"/>
			</g>
		</g>
	</g>
</svg>
