<?xml version="1.0" encoding="UTF-8" standalone="no"?>
<!DOCTYPE svg PUBLIC "-//W3C//DTD SVG 1.1//EN" "http://www.w3.org/Graphics/SVG/1.1/DTD/svg11.dtd">
<!-- Generated by Microsoft Visio, SVG Export Container Batch Account.svg Page-1 -->
<svg xmlns="http://www.w3.org/2000/svg" xmlns:xlink="http://www.w3.org/1999/xlink" xmlns:ev="http://www.w3.org/2001/xml-events"
		width="1.71254in" height="1.67317in" viewBox="0 0 123.303 120.468" xml:space="preserve" color-interpolation-filters="sRGB"
		class="st7">
	<style type="text/css">
	<![CDATA[
		.st1 {fill:#949494;stroke:none;stroke-linecap:butt;stroke-width:33.3051}
		.st2 {fill:url(#grad0-9);stroke:none;stroke-linecap:butt;stroke-width:33.3051}
		.st3 {fill:#83b9f9;stroke:none;stroke-linecap:butt;stroke-width:33.3051}
		.st4 {fill:#005ba1;stroke:none;stroke-linecap:butt;stroke-width:33.3051}
		.st5 {fill:#ffffff;stroke:none;stroke-linecap:butt;stroke-width:33.3051}
		.st6 {fill:#0078d4;stroke:none;stroke-linecap:butt;stroke-width:33.3051}
		.st7 {fill:none;fill-rule:evenodd;font-size:12px;overflow:visible;stroke-linecap:square;stroke-miterlimit:3}
	]]>
	</style>

	<defs id="Patterns_And_Gradients">
		<linearGradient id="grad0-9" x1="0" y1="0" x2="1" y2="0" gradientTransform="rotate(-90 0.5 0.5)">
			<stop offset="0" stop-color="#0078d4" stop-opacity="1"/>
			<stop offset="1" stop-color="#5ea0ef" stop-opacity="1"/>
		</linearGradient>
	</defs>
	<g>
		<title>Page-1</title>
		<g id="group2432-1" transform="translate(33.3051,-33.3051)">
			<title>Container Batch Account</title>
			<g id="group2433-2">
				<title>g39</title>
				<g id="shape2434-3" transform="translate(35.0162,-24.9001)">
					<title>path11</title>
					<path d="M14.87 120.08 L21.11 113.72 C21.61 113.19 21.44 112.75 20.71 112.75 L17.57 112.75 a0.767022 0.769404
								 0 0 1 -0.900417 -0.802856 C16.67 108 15.67 97 0.67 96.59 a0.767022 0.769404 -180 0 0 -0.666975 0.769404
								 L0 101.28 a0.800371 0.802856 -180 0 0 0.833719 0.769404 A9.17091 9.19939 0 0 1 11.94 112.08 a0.767022
								 0.769404 0 0 1 -0.767022 0.769404 L8.27 112.85 C7.54 112.85 7.34 113.29 7.84 113.82 L13.64 120.18
								 a0.733673 0.735951 -180 0 0 1.2339 -0.100357 Z" class="st1"/>
				</g>
				<g id="group2435-5" transform="translate(-2.8777E-13,-24.9554)">
					<title>g17</title>
					<g id="shape2436-6">
						<title>rect13</title>
						<path d="M-0 118.56 A1.90092 1.90683 -180 0 0 1.9 120.47 L39.65 120.47 A1.90092 1.90683 -180 0 0 41.55 118.56
									 L41.55 93.47 A1.90092 1.90683 -180 0 0 39.65 91.57 L1.9 91.57 A1.90092 1.90683 -180 0 0 0 93.47
									 L0 118.56 Z" class="st2"/>
					</g>
					<g id="shape2437-10" transform="translate(0,-22.0451)">
						<title>path15</title>
						<path d="M1.9 113.61 L40.19 113.61 A1.3673 1.37155 0 0 1 41.55 114.98 L41.55 120.47 L0 120.47 L0 115.48 A1.90088
									 1.90678 0 0 1 1.9 113.61 Z" class="st3"/>
					</g>
				</g>
				<g id="shape2438-12" transform="translate(30.2807,0)">
					<title>rect19</title>
					<path d="M-0 119.26 A1.20058 1.20431 -180 0 0 1.2 120.47 L25.21 120.47 A1.20058 1.20431 -180 0 0 26.41 119.26
								 L26.41 103.31 A1.20058 1.20431 -180 0 0 25.21 102.1 L1.2 102.1 A1.20058 1.20431 -180 0 0 0 103.31
								 L0 119.26 Z" class="st4"/>
				</g>
				<g id="shape2439-14" transform="translate(5.3358,-40.0425)">
					<title>path21</title>
					<path d="M0.63 116.19 L30.21 116.19 a0.633627 0.635594 0 0 1 0.633627 0.602142 L30.85 119.87 a0.633627 0.635594
								 0 0 1 -0.633627 0.602142 L0.63 120.47 a0.633627 0.635594 0 0 1 -0.633627 -0.602142 L0 116.86 a0.633627
								 0.635594 0 0 1 0.633627 -0.669047 Z" class="st5"/>
				</g>
				<g id="shape2440-16" transform="translate(5.36915,-33.8872)">
					<title>path23</title>
					<path d="M0.63 116.19 L30.21 116.19 a0.633627 0.635594 0 0 1 0.633627 0.602142 L30.85 119.9 a0.633627 0.635594
								 0 0 1 -0.633627 0.56869 L0.63 120.47 a0.600278 0.602142 0 0 1 -0.633627 -0.56869 L0 116.79 a0.600278
								 0.602142 0 0 1 0.633627 -0.602142 Z" class="st5"/>
				</g>
				<g id="shape2441-18" transform="translate(5.36915,-27.6651)">
					<title>path25</title>
					<path d="M0.63 116.19 L30.21 116.19 a0.633627 0.635594 0 0 1 0.633627 0.602142 L30.85 119.87 a0.633627 0.635594
								 0 0 1 -0.633627 0.602142 L0.63 120.47 a0.600278 0.602142 0 0 1 -0.633627 -0.602142 L0 116.79 a0.600278
								 0.602142 0 0 1 0.633627 -0.602142 Z" class="st5"/>
				</g>
				<g id="group2442-20" transform="translate(25.912,-3.94738)">
					<title>g31</title>
					<g id="shape2443-21" transform="translate(1.66744E-06,-1.84741E-13)">
						<title>rect27</title>
						<path d="M-0 119.26 A1.20058 1.20431 -180 0 0 1.2 120.47 L25.21 120.47 A1.20058 1.20431 -180 0 0 26.41 119.26
									 L26.41 103.31 A1.20058 1.20431 -180 0 0 25.21 102.1 L1.2 102.1 A1.20058 1.20431 -180 0 0 -0
									 103.31 L0 119.26 Z" class="st6"/>
					</g>
					<g id="shape2444-23" transform="translate(1.3789E-13,-14.1503)">
						<title>path29</title>
						<path d="M1.2 116.25 L25.55 116.25 a0.867068 0.869761 0 0 1 0.867068 0.869761 L26.41 120.47 L0 120.47 L0
									 117.29 A1.20056 1.20428 0 0 1 1.2 116.25 Z" class="st3"/>
					</g>
				</g>
				<g id="shape2445-25" transform="translate(29.3136,-13.5147)">
					<title>path33</title>
					<path d="M0.4 117.73 L19.21 117.73 a0.400185 0.401428 0 0 1 0.400185 0.367976 L19.61 120.07 a0.400185 0.401428
								 0 0 1 -0.400185 0.401428 L0.4 120.47 a0.400185 0.401428 0 0 1 -0.400185 -0.401428 L0 118.09 a0.366836
								 0.367976 0 0 1 0.400185 -0.367976 Z" class="st5"/>
				</g>
				<g id="shape2446-27" transform="translate(29.3136,-9.60082)">
					<title>path35</title>
					<path d="M0.4 117.73 L19.21 117.73 a0.400185 0.401428 0 0 1 0.400185 0.401428 L19.61 120.1 a0.366836 0.367976
								 0 0 1 -0.400185 0.367976 L0.4 120.47 a0.400185 0.401428 0 0 1 -0.400185 -0.367976 L0 118.13 a0.400185
								 0.401428 0 0 1 0.400185 -0.401428 Z" class="st5"/>
				</g>
				<g id="shape2447-29" transform="translate(29.3136,-5.65344)">
					<title>path37</title>
					<path d="M0.4 117.73 L19.21 117.73 a0.400185 0.401428 0 0 1 0.400185 0.401428 L19.61 120.1 a0.366836 0.367976
								 0 0 1 -0.400185 0.367976 L0.4 120.47 a0.400185 0.401428 0 0 1 -0.400185 -0.367976 L0 118.13 a0.400185
								 0.401428 0 0 1 0.400185 -0.401428 Z" class="st5"/>
				</g>
			</g>
		</g>
	</g>
</svg>
