<?xml version="1.0" encoding="UTF-8" standalone="no"?>
<!DOCTYPE svg PUBLIC "-//W3C//DTD SVG 1.1//EN" "http://www.w3.org/Graphics/SVG/1.1/DTD/svg11.dtd">
<!-- Generated by Microsoft Visio, SVG Export Container Kubernetes Service.svg Page-1 -->
<svg xmlns="http://www.w3.org/2000/svg" xmlns:xlink="http://www.w3.org/1999/xlink" xmlns:ev="http://www.w3.org/2001/xml-events"
		width="1.67323in" height="1.59449in" viewBox="0 0 120.473 114.804" xml:space="preserve" color-interpolation-filters="sRGB"
		class="st4">
	<style type="text/css">
	<![CDATA[
		.st1 {fill:url(#grad0-5);stroke:none;stroke-linecap:butt;stroke-width:31.89}
		.st2 {fill:none;stroke:none;stroke-linecap:butt;stroke-width:31.89}
		.st3 {fill:#341a6e;stroke:none;stroke-linecap:butt;stroke-width:31.89}
		.st4 {fill:none;fill-rule:evenodd;font-size:12px;overflow:visible;stroke-linecap:square;stroke-miterlimit:3}
	]]>
	</style>

	<defs id="Patterns_And_Gradients">
		<linearGradient id="grad0-5" x1="0" y1="0" x2="1" y2="0" gradientTransform="rotate(0 0.5 0.5)">
			<stop offset="0" stop-color="#b77af4" stop-opacity="1"/>
			<stop offset="1" stop-color="#773adc" stop-opacity="1"/>
		</linearGradient>
	</defs>
	<g>
		<title>Page-1</title>
		<g id="group2408-1" transform="translate(31.89,-31.89)">
			<title>Container Kubernetes Service</title>
			<g id="shape2409-2" transform="translate(9.21887,-34.8501)">
				<title>polygon41</title>
				<path d="M0 100.33 L0 112.85 L8.97 114.8 L17.97 111.11 L17.97 101.77 L8.97 98.63 L0 100.33 Z" class="st1"/>
			</g>
			<g id="shape2410-6" transform="translate(9.40701,-35.0051)">
				<title>path43</title>
				<path d="M9.12 114.77 L17.34 111.36 a0.627134 0.641807 -180 0 0 0.376281 -0.449264 L17.72 102.44 a0.658491 0.673897
							 -180 0 0 -0.407638 -0.577626 L9 98.98 L8.62 98.98 L0.47 100.52 a0.627134 0.641807 -180 0 0 -0.470351
							 0.577626 L0 112.42 a0.595777 0.609716 -180 0 0 0.470351 0.609715 L8.72 114.8 A1.00341 1.02689 -180 0
							 0 9.12 114.77 L9.12 114.77 Z" class="st2"/>
			</g>
			<g id="shape2411-8" transform="translate(9.21887,-34.8501)">
				<title>path45</title>
				<path d="M0 100.33 L0 112.85 L9.06 114.8 L9.06 98.76 L0 100.33 ZM3.83 111.88 L1.29 111.37 L1.29 101.74 L3.83 101.33
							 L3.83 111.88 ZM7.78 112.62 L4.86 112.14 L4.86 101.13 L7.78 100.62 L7.78 112.62 Z" class="st3"/>
			</g>
			<g id="shape2412-10" transform="translate(28.6287,-34.6896)">
				<title>polygon47</title>
				<path d="M0 100.33 L0 112.85 L8.97 114.8 L17.94 111.08 L17.94 101.77 L8.97 98.63 L0 100.33 Z" class="st1"/>
			</g>
			<g id="shape2413-13" transform="translate(28.6287,-34.6896)">
				<title>path49</title>
				<path d="M0 100.33 L0 112.85 L9 114.8 L9 98.76 L0 100.33 ZM3.79 111.88 L1.25 111.37 L1.25 101.74 L3.79 101.33 L3.79
							 111.88 ZM7.75 112.62 L4.83 112.14 L4.83 101.13 L7.75 100.59 L7.75 112.62 Z" class="st3"/>
			</g>
			<g id="shape2414-15" transform="translate(0.0313567,-17.5855)">
				<title>polygon51</title>
				<path d="M0 100.33 L0 112.85 L8.97 114.8 L17.97 111.11 L17.97 101.77 L8.97 98.63 L0 100.33 Z" class="st1"/>
			</g>
			<g id="shape2415-18" transform="translate(0,-17.6818)">
				<title>path53</title>
				<path d="M0 100.43 L0 112.85 L9.06 114.8 L9.06 98.76 L0 100.43 ZM3.79 112.01 L1.25 111.47 L1.25 101.84 L3.79 101.39
							 L3.79 112.01 ZM7.78 112.85 L4.86 112.36 L4.86 101.23 L7.78 100.72 L7.78 112.85 Z" class="st3"/>
			</g>
			<g id="shape2416-20" transform="translate(19.3784,-17.6818)">
				<title>polygon55</title>
				<path d="M0 100.3 L0 112.81 L8.97 114.8 L17.94 111.08 L17.94 101.74 L8.97 98.6 L0 100.3 Z" class="st1"/>
			</g>
			<g id="shape2417-23" transform="translate(19.3784,-17.6818)">
				<title>path57</title>
				<path d="M0 100.3 L0 112.85 L9.03 114.8 L9.03 98.76 L0 100.3 ZM3.79 111.88 L1.25 111.34 L1.25 101.71 L3.79 101.26
							 L3.79 111.88 ZM7.75 112.59 L4.83 112.11 L4.83 101.1 L7.75 100.59 L7.75 112.59 Z" class="st3"/>
			</g>
			<g id="shape2418-25" transform="translate(38.7255,-17.5534)">
				<title>polygon59</title>
				<path d="M0 100.33 L0 112.85 L8.97 114.8 L17.97 111.11 L17.97 101.77 L8.97 98.63 L0 100.33 Z" class="st1"/>
			</g>
			<g id="shape2419-28" transform="translate(38.7255,-17.6818)">
				<title>path61</title>
				<path d="M0 100.46 L0 112.85 L9.06 114.8 L9.06 98.76 L0 100.46 ZM3.83 112.04 L1.29 111.5 L1.29 101.87 L3.83 101.42
							 L3.83 112.04 ZM7.78 112.75 L4.86 112.27 L4.86 101.26 L7.78 100.75 L7.78 112.75 Z" class="st3"/>
			</g>
			<g id="shape2420-30" transform="translate(8.99937,-0.128361)">
				<title>polygon63</title>
				<path d="M0 100.3 L0 112.81 L8.97 114.8 L17.97 111.08 L17.97 101.77 L8.97 98.63 L0 100.3 Z" class="st1"/>
			</g>
			<g id="shape2421-33" transform="translate(9.15616,-0.35007)">
				<title>path65</title>
				<path d="M9.16 114.77 L17.34 111.56 a0.564421 0.577626 -180 0 0 0.37628 -0.577626 L17.72 102.64 a0.627134 0.641807
							 -180 0 0 -0.407636 -0.705987 L9.03 99.04 a0.533064 0.545536 -180 0 0 -0.37628 0 L0.5 100.55 a0.595777
							 0.609716 -180 0 0 -0.501707 0.609716 L0 112.52 a0.595777 0.609716 -180 0 0 0.470351 0.609716 L8.72 114.77
							 a0.721204 0.738078 -180 0 0 0.438993 0 Z" class="st2"/>
			</g>
			<g id="shape2422-35" transform="translate(8.99937,-0.128361)">
				<title>path67</title>
				<path d="M0 100.3 L0 112.81 L9.06 114.8 L9.06 98.5 L0 100.3 ZM3.83 111.88 L1.29 111.34 L1.29 101.71 L3.83 101.26
							 L3.83 111.88 ZM7.78 112.62 L4.86 112.14 L4.86 101.1 L7.78 100.59 L7.78 112.62 Z" class="st3"/>
			</g>
			<g id="shape2423-37" transform="translate(28.3778,-2.41585E-13)">
				<title>polygon69</title>
				<path d="M0 100.33 L0 112.85 L8.97 114.8 L17.97 111.11 L17.97 101.77 L8.97 98.63 L0 100.33 Z" class="st1"/>
			</g>
			<g id="shape2424-40" transform="translate(28.3778,-4.92679E-08)">
				<title>path71</title>
				<path d="M0 100.33 L0 112.85 L9.06 114.8 L9.06 98.76 L0 100.33 ZM3.83 111.92 L1.29 111.37 L1.29 101.74 L3.83 101.29
							 L3.83 111.92 ZM7.78 112.62 L4.86 112.14 L4.86 101.13 L7.78 100.62 L7.78 112.62 Z" class="st3"/>
			</g>
		</g>
	</g>
</svg>
