<?xml version="1.0" encoding="UTF-8" standalone="no"?>
<!DOCTYPE svg PUBLIC "-//W3C//DTD SVG 1.1//EN" "http://www.w3.org/Graphics/SVG/1.1/DTD/svg11.dtd">
<!-- Generated by Microsoft Visio, SVG Export Cost Analysis.svg Page-1 -->
<svg xmlns="http://www.w3.org/2000/svg" xmlns:xlink="http://www.w3.org/1999/xlink" xmlns:ev="http://www.w3.org/2001/xml-events"
		width="1.05128in" height="1.3511in" viewBox="0 0 75.6921 97.2794" xml:space="preserve" color-interpolation-filters="sRGB"
		class="st7">
	<style type="text/css">
	<![CDATA[
		.st1 {fill:#57a300;stroke:none;stroke-linecap:butt;stroke-width:12.24}
		.st2 {fill:#000000;stroke:none;stroke-linecap:butt;stroke-width:12.24}
		.st3 {fill:#000000;fill-opacity:0.4;stroke:none;stroke-linecap:butt;stroke-width:12.24}
		.st4 {fill:#ffffff;stroke:none;stroke-linecap:butt;stroke-width:12.24}
		.st5 {fill:#b8d432;stroke:none;stroke-linecap:butt;stroke-width:12.24}
		.st6 {fill:#ffffff;fill-opacity:0.5;stroke:none;stroke-linecap:butt;stroke-width:12.24}
		.st7 {fill:none;fill-rule:evenodd;font-size:12px;overflow:visible;stroke-linecap:square;stroke-miterlimit:3}
	]]>
	</style>

	<g>
		<title>Page-1</title>
		<g id="group2345-1" transform="translate(12.24,-28.3465)">
			<title>Cost Analysis</title>
			<g id="group2346-2">
				<title>g22</title>
				<g id="shape2347-3" transform="translate(9.22542,-48.8125)">
					<title>circle4</title>
					<ellipse cx="4.02798" cy="93.3391" rx="4.02798" ry="3.94023" class="st1"/>
				</g>
				<g id="shape2348-5" transform="translate(9.22542,-1.94788)">
					<title>circle6</title>
					<ellipse cx="4.02798" cy="93.3391" rx="4.02798" ry="3.94023" class="st1"/>
				</g>
				<g id="shape2349-7" transform="translate(0,-11.7029)">
					<title>path8</title>
					<path d="M27.45 87.33 C27.45 93.1 21.61 97.28 13.56 97.28 C6.47 97.28 2.04 94.67 0 89.3 L6.91 88.03 C7.81 89.92
								 9.78 92.08 14.13 92.08 C18.49 92.08 20.11 89.52 20.11 87.91 C20.11 84.56 15.98 83.39 14.2 83.05
								 C6.65 81.59 1.31 79.9 1.31 71.44 C1.31 64.51 7.91 62.04 13.56 62.04 C19.74 62.04 23.75 64.04 25.83
								 68.15 L19.86 70 C18.61 67.91 16.47 66.81 13.66 66.81 C9.57 66.81 8.48 69.57 8.48 71.03 C8.48 73.05
								 10.53 74.81 13.71 75.53 C17.69 76.43 20.48 77.13 22.11 77.8 C24.69 78.86 27.45 81.93 27.45 87.33
								 Z" class="st1"/>
				</g>
				<g id="shape2350-9" transform="translate(37.4053,2.84217E-13)">
					<title>path10</title>
					<path d="M11.34 97.28 C10.68 97.28 10.06 97.03 9.6 96.57 L0 87.19 L3.49 83.77 L13.09 93.16 A2.46912 2.41533 0
								 0 1 11.34 97.28 Z" class="st2"/>
				</g>
				<g id="shape2351-11" transform="translate(38.3832,-7.01046)">
					<title>path12</title>
					<path d="M0 95.16 L3.49 91.74 L5.66 93.86 A13.3283 13.038 0 0 1 2.17 97.28 L0 95.16 Z" class="st3"/>
				</g>
				<g id="shape2352-13" transform="translate(16.4166,-8.9992)">
					<title>circle14</title>
					<ellipse cx="12.7977" cy="84.7605" rx="12.7977" ry="12.5188" class="st4"/>
				</g>
				<g id="shape2353-15" transform="translate(18.2322,-10.0723)">
					<title>path16</title>
					<path d="M0 80.77 C1.97 81.65 4.48 83.76 4.48 86.27 C4.48 87.69 2.8 90.55 0.22 91.56 C0.98 93.73 2.84 95.68 4.44
								 97.28 C9.94 95.33 12.85 90.75 12.85 85.8 C12.85 79.19 8.86 75.44 5.7 74.14 C5.45 74.04 0.95 77.63
								 0 80.77 Z" class="st5"/>
				</g>
				<g id="shape2354-17" transform="translate(17.4804,-10.0398)">
					<title>path18</title>
					<path d="M11.73 75.52 C17.53 75.52 22.24 80.13 22.24 85.8 C22.24 91.47 17.53 96.08 11.73 96.08 C5.94 96.08 1.23
								 91.47 1.23 85.8 C1.23 80.13 5.94 75.52 11.73 75.52 ZM11.73 74.32 C5.25 74.32 0 79.46 0 85.8 C0 92.14
								 5.25 97.28 11.73 97.28 C18.21 97.28 23.47 92.14 23.47 85.8 C23.47 79.46 18.21 74.32 11.73 74.32
								 Z" class="st6"/>
				</g>
				<g id="shape2355-19" transform="translate(13.3762,-6.00828)">
					<title>path20</title>
					<path d="M0 81.78 C0 90.34 7.09 97.28 15.85 97.28 C24.6 97.28 31.69 90.34 31.69 81.78 C31.69 73.22 24.6 66.28
								 15.85 66.28 C7.09 66.28 0 73.22 0 81.78 ZM4.1 81.78 C4.1 75.43 9.36 70.29 15.85 70.29 C22.33 70.29
								 27.59 75.43 27.59 81.78 C27.59 88.12 22.33 93.26 15.85 93.26 C9.36 93.26 4.1 88.12 4.1 81.78 Z"
							class="st2"/>
				</g>
			</g>
		</g>
	</g>
</svg>
