<?xml version="1.0" encoding="UTF-8" standalone="no"?>
<!DOCTYPE svg PUBLIC "-//W3C//DTD SVG 1.1//EN" "http://www.w3.org/Graphics/SVG/1.1/DTD/svg11.dtd">
<!-- Generated by Microsoft Visio, SVG Export Cost Alert.svg Page-1 -->
<svg xmlns="http://www.w3.org/2000/svg" xmlns:xlink="http://www.w3.org/1999/xlink" xmlns:ev="http://www.w3.org/2001/xml-events"
		width="1.12701in" height="1.35079in" viewBox="0 0 81.1448 97.2569" xml:space="preserve" color-interpolation-filters="sRGB"
		class="st3">
	<style type="text/css">
	<![CDATA[
		.st1 {fill:#57a300;stroke:none;stroke-linecap:butt;stroke-width:12.24}
		.st2 {fill:#ffffff;fill-opacity:0.9;stroke:none;stroke-linecap:butt;stroke-width:12.24}
		.st3 {fill:none;fill-rule:evenodd;font-size:12px;overflow:visible;stroke-linecap:square;stroke-miterlimit:3}
	]]>
	</style>

	<g>
		<title>Page-1</title>
		<g id="group2356-1" transform="translate(12.24,-28.3465)">
			<title>Cost Alert</title>
			<g id="group2357-2">
				<title>g12</title>
				<g id="shape2358-3">
					<title>path4</title>
					<path d="M49.16 40.59 L7.12 40.59 C2.96 40.56 0 43.07 0 47.2 L0 76.92 C0 81.12 3.02 84.84 7.18 84.89 L21.56 84.79
								 L35.17 97.26 L35.17 84.79 L49.04 84.95 C53.19 84.98 56.6 81.63 56.6 77.48 L56.66 47.65 C56.69 43.52
								 53.32 40.59 49.16 40.59 Z" class="st1"/>
				</g>
				<g id="shape2359-5" transform="translate(25.541,-48.2116)">
					<title>circle6</title>
					<ellipse cx="2.7913" cy="94.4653" rx="2.7913" ry="2.79158" class="st2"/>
				</g>
				<g id="shape2360-7" transform="translate(25.541,-14.2095)">
					<title>circle8</title>
					<ellipse cx="2.7913" cy="94.4653" rx="2.7913" ry="2.79158" class="st2"/>
				</g>
				<g id="shape2361-9" transform="translate(18.8194,-21.52)">
					<title>path10</title>
					<path d="M19.02 90.21 C19.02 94.29 14.97 97.26 9.39 97.26 C4.49 97.26 1.41 95.41 0 91.61 L4.79 90.7 C5.41 92.04
								 6.78 93.57 9.79 93.57 C12.81 93.57 13.93 91.76 13.93 90.62 C13.93 88.24 11.07 87.42 9.84 87.18 C4.61
								 86.14 0.91 84.94 0.91 78.96 C0.91 74.04 5.48 72.29 9.39 72.29 C13.68 72.29 16.46 73.71 17.9 76.62
								 L13.76 77.93 C12.89 76.45 11.41 75.67 9.47 75.67 C6.63 75.67 5.88 77.63 5.88 78.66 C5.88 80.09 7.3
								 81.34 9.5 81.85 C12.26 82.49 14.19 82.98 15.32 83.46 C17.11 84.21 19.02 86.38 19.02 90.21 Z"
							class="st2"/>
				</g>
			</g>
		</g>
	</g>
</svg>
