<?xml version="1.0" encoding="UTF-8" standalone="no"?>
<!DOCTYPE svg PUBLIC "-//W3C//DTD SVG 1.1//EN" "http://www.w3.org/Graphics/SVG/1.1/DTD/svg11.dtd">
<!-- Generated by Microsoft Visio, SVG Export Cost Management And Billing.svg Page-1 -->
<svg xmlns="http://www.w3.org/2000/svg" xmlns:xlink="http://www.w3.org/1999/xlink" xmlns:ev="http://www.w3.org/2001/xml-events"
		width="0.898075in" height="1.25984in" viewBox="0 0 64.6614 90.7087" xml:space="preserve" color-interpolation-filters="sRGB"
		class="st7">
	<style type="text/css">
	<![CDATA[
		.st1 {fill:#258277;stroke:none;stroke-width:4.91887}
		.st2 {fill:#ffca00}
		.st3 {stroke:none;stroke-width:4.91887}
		.st4 {fill:url(#grad7-10);stroke:none;stroke-width:4.91887}
		.st5 {fill:#cccccc;stroke:none;stroke-width:4.91887}
		.st6 {fill:#999999;stroke:none;stroke-width:4.91887}
		.st7 {fill:none;fill-rule:evenodd;font-size:12px;overflow:visible;stroke-linecap:square;stroke-miterlimit:3}
	]]>
	</style>

	<defs id="Patterns_And_Gradients">
		<radialGradient id="grad7-10" cx="0" cy="0" r="1.4">
			<stop offset="0" stop-color="#76bc2d" stop-opacity="1"/>
			<stop offset="0.41" stop-color="#74b92c" stop-opacity="1"/>
			<stop offset="0.66" stop-color="#6fb12a" stop-opacity="1"/>
			<stop offset="0.88" stop-color="#66a227" stop-opacity="1"/>
			<stop offset="1" stop-color="#5e9624" stop-opacity="1"/>
		</radialGradient>
	</defs>
	<g>
		<title>Page-1</title>
		<g id="group2339-1" transform="translate(5.38583,-28.3465)">
			<title>Cost Management And Billing</title>
			<g id="shape2340-2" transform="translate(21.1225,-18.2977)">
				<title>path17</title>
				<path d="M8.95 84.84 A3.17187 3.33292 0 0 1 7.96 87.48 A4.72608 4.96604 0 0 1 5.14 88.71 L5.14 90.71 L3.74 90.71
							 L3.74 88.64 A7.4856 7.86568 0 0 1 0.26 87.71 L0.26 85.01 A5.70936 5.99925 -180 0 0 1.84 85.84 A7.89794
							 8.29896 -180 0 0 3.74 86.31 L3.74 82.84 A7.67591 8.06566 0 0 1 0.86 81.08 A3.64764 3.83285 0 0 1 1.05
							 75.91 A4.47233 4.69941 0 0 1 3.74 74.64 L3.74 72.81 L5.11 72.81 L5.11 74.61 A7.00982 7.36574 0 0 1 8.03
							 75.28 L8.03 77.94 A7.23185 7.59905 -180 0 0 5.11 76.91 L5.11 80.71 A7.42216 7.79902 0 0 1 8.03 82.51
							 A3.17187 3.33292 0 0 1 8.95 84.84 ZM3.74 80.08 L3.74 76.98 A1.26875 1.33317 -180 0 0 2.6 78.38 C2.6
							 79.08 3.02 79.64 3.87 80.08 L3.74 80.08 ZM6.44 84.98 C6.44 84.34 6 83.84 5.11 83.41 L5.11 86.41 C6 86.24
							 6.44 85.78 6.44 84.98 Z" class="st1"/>
			</g>
			<g id="shape2341-4" transform="translate(34.7002,-6.69916)">
				<title>path19</title>
				<path d="M16.11 70.74 L4.69 70.74 A14.0514 14.7648 0 0 1 -0 81.74 L7.58 90.71 A25.3749 26.6633 -180 0 0 16.11 70.71
							 L16.11 70.74 Z" class="st2"/>
				<path d="M16.11 70.74 L4.69 70.74 A14.0514 14.7648 0 0 1 -0 81.74 L7.58 90.71 A25.3749 26.6633 -180 0 0 16.11 70.71"
						class="st3"/>
			</g>
			<g id="shape2342-7">
				<title>path21</title>
				<path d="M25.37 78.84 A14.0514 14.7648 0 0 1 25.37 49.31 L25.37 37.38 A25.3749 26.6633 -180 0 0 0 64.05 A25.3749
							 26.6633 -180 0 0 25.37 90.71 A25.3749 26.6633 -180 0 0 42.31 84.04 L34.7 75.08 A13.8928 14.5982 0 0
							 1 25.37 78.84 Z" class="st4"/>
			</g>
			<g id="shape2343-11" transform="translate(24.2013,-25.5635)">
				<title>path23</title>
				<path d="M0 59.58 L0 73.44 A16.1448 16.9645 0 0 1 16.4 90.71 L29.66 90.71 A29.6252 31.1294 -180 0 0 0 59.58 Z"
						class="st5"/>
			</g>
			<g id="shape2344-13" transform="translate(24.2013,-25.5635)">
				<title>path25</title>
				<path d="M16.46 90.71 A16.2717 17.0979 -180 0 0 0.41 73.44 L0 73.44 L1.05 75.51 A14.2734 14.9981 0 0 1 14.46 89.68
							 L16.46 90.71 Z" class="st6"/>
			</g>
		</g>
	</g>
</svg>
