<?xml version="1.0" encoding="UTF-8" standalone="no"?>
<!DOCTYPE svg PUBLIC "-//W3C//DTD SVG 1.1//EN" "http://www.w3.org/Graphics/SVG/1.1/DTD/svg11.dtd">
<!-- Generated by Microsoft Visio, SVG Export Cost Management.svg Page-1 -->
<svg xmlns="http://www.w3.org/2000/svg" xmlns:xlink="http://www.w3.org/1999/xlink" xmlns:ev="http://www.w3.org/2001/xml-events"
		width="1.04866in" height="1.3511in" viewBox="0 0 75.5036 97.2794" xml:space="preserve" color-interpolation-filters="sRGB"
		class="st5">
	<style type="text/css">
	<![CDATA[
		.st1 {fill:#57a300;stroke:none;stroke-linecap:butt;stroke-width:12.24}
		.st2 {fill:#b8d432;fill-opacity:0.4;stroke:none;stroke-linecap:butt;stroke-width:12.24}
		.st3 {fill:#ffffff;stroke:none;stroke-linecap:butt;stroke-width:12.24}
		.st4 {fill:#57a300;fill-opacity:0.2;stroke:none;stroke-linecap:butt;stroke-width:12.24}
		.st5 {fill:none;fill-rule:evenodd;font-size:12px;overflow:visible;stroke-linecap:square;stroke-miterlimit:3}
	]]>
	</style>

	<g>
		<title>Page-1</title>
		<g id="group2329-1" transform="translate(12.24,-28.3465)">
			<title>Cost Management</title>
			<g id="group2330-2">
				<title>Sheet.2330</title>
				<g id="shape2331-3">
					<title>Sheet.2331</title>
					<path d="M23.86 41.02 L1.69 53.56 A3.33973 3.32296 -180 0 0 -0 56.44 L0 81.42 A3.33973 3.32296 -180 0 0 1.69
								 84.31 L23.86 96.85 A3.34205 3.32527 -180 0 0 27.16 96.85 L49.33 84.31 A3.33973 3.32296 -180 0 0
								 51.02 81.42 L51.02 56.44 A3.33973 3.32296 -180 0 0 49.33 53.56 L27.16 41.02 A3.34205 3.32527 -180
								 0 0 23.86 41.02 Z" class="st1"/>
				</g>
				<g id="shape2332-5" transform="translate(-2.51799E-13,-4.46616)">
					<title>Sheet.2332</title>
					<path d="M34.22 49.47 L27.16 45.49 A3.34205 3.32527 -180 0 0 23.86 45.49 L1.69 58.02 A3.33973 3.32296 -180 0
								 0 -0 60.91 L0 85.89 A3.33973 3.32296 -180 0 0 1.69 88.78 L16.73 97.28 L34.22 49.47 Z" class="st2"/>
				</g>
				<g id="shape2333-7" transform="translate(22.1489,-44.6151)">
					<title>Sheet.2333</title>
					<ellipse cx="3.36292" cy="93.9333" rx="3.36292" ry="3.34603" class="st3"/>
				</g>
				<g id="shape2334-9" transform="translate(22.1489,-5.38574)">
					<title>Sheet.2334</title>
					<ellipse cx="3.36292" cy="93.9333" rx="3.36292" ry="3.34603" class="st3"/>
				</g>
				<g id="shape2335-11" transform="translate(14.2101,-13.3851)">
					<title>Sheet.2335</title>
					<path d="M22.92 88.83 C22.92 93.73 18.04 97.28 11.32 97.28 C5.41 97.28 1.7 95.06 0 90.51 L5.77 89.42 C6.52 91.03
								 8.17 92.86 11.8 92.86 C15.43 92.86 16.79 90.69 16.79 89.32 C16.79 86.48 13.34 85.49 11.85 85.2 C5.55
								 83.95 1.09 82.52 1.09 75.34 C1.09 69.45 6.6 67.36 11.32 67.36 C16.48 67.36 19.83 69.05 21.57 72.54
								 L16.58 74.12 C15.53 72.34 13.75 71.41 11.4 71.41 C7.98 71.41 7.08 73.75 7.08 74.99 C7.08 76.7 8.79
								 78.2 11.44 78.81 C14.77 79.58 17.1 80.17 18.46 80.74 C20.62 81.64 22.92 84.24 22.92 88.83 Z"
							class="st3"/>
				</g>
				<g id="shape2336-13" transform="translate(22.1489,-44.6151)">
					<title>Sheet.2336</title>
					<ellipse cx="3.36292" cy="93.9333" rx="3.36292" ry="3.34603" class="st4"/>
				</g>
				<g id="shape2337-15" transform="translate(22.1489,-5.38574)">
					<title>Sheet.2337</title>
					<ellipse cx="3.36292" cy="93.9333" rx="3.36292" ry="3.34603" class="st4"/>
				</g>
				<g id="shape2338-17" transform="translate(14.2101,-13.3851)">
					<title>Sheet.2338</title>
					<path d="M22.92 88.83 C22.92 93.73 18.04 97.28 11.32 97.28 C5.41 97.28 1.7 95.06 0 90.51 L5.77 89.42 C6.52 91.03
								 8.17 92.86 11.8 92.86 C15.43 92.86 16.79 90.69 16.79 89.32 C16.79 86.48 13.34 85.49 11.85 85.2 C5.55
								 83.95 1.09 82.52 1.09 75.34 C1.09 69.45 6.6 67.36 11.32 67.36 C16.48 67.36 19.83 69.05 21.57 72.54
								 L16.58 74.12 C15.53 72.34 13.75 71.41 11.4 71.41 C7.98 71.41 7.08 73.75 7.08 74.99 C7.08 76.7 8.79
								 78.2 11.44 78.81 C14.77 79.58 17.1 80.17 18.46 80.74 C20.62 81.64 22.92 84.24 22.92 88.83 Z"
							class="st4"/>
				</g>
			</g>
		</g>
	</g>
</svg>
