<?xml version="1.0" encoding="UTF-8" standalone="no"?>
<!DOCTYPE svg PUBLIC "-//W3C//DTD SVG 1.1//EN" "http://www.w3.org/Graphics/SVG/1.1/DTD/svg11.dtd">
<!-- Generated by Microsoft Visio, SVG Export Database Migration Service.svg Page-1 -->
<svg xmlns="http://www.w3.org/2000/svg" xmlns:xlink="http://www.w3.org/1999/xlink" xmlns:ev="http://www.w3.org/2001/xml-events"
		width="0.898075in" height="1.25984in" viewBox="0 0 64.6614 90.7087" xml:space="preserve" color-interpolation-filters="sRGB"
		class="st8">
	<style type="text/css">
	<![CDATA[
		.st1 {fill:url(#grad0-5);stroke:none;stroke-linecap:butt;stroke-width:2.61615}
		.st2 {fill:url(#grad0-9);stroke:none;stroke-linecap:butt;stroke-width:2.61615}
		.st3 {fill:#e8e8e8}
		.st4 {stroke:none;stroke-linecap:butt;stroke-width:2.61615}
		.st5 {fill:#50e6ff}
		.st6 {fill:#32bedd;stroke:none;stroke-linecap:butt;stroke-width:2.61615}
		.st7 {fill:#f2f2f2;stroke:none;stroke-linecap:butt;stroke-width:2.61615}
		.st8 {fill:none;fill-rule:evenodd;font-size:12px;overflow:visible;stroke-linecap:square;stroke-miterlimit:3}
	]]>
	</style>

	<defs id="Patterns_And_Gradients">
		<linearGradient id="grad0-5" x1="0" y1="0" x2="1" y2="0" gradientTransform="rotate(-90 0.5 0.5)">
			<stop offset="0" stop-color="#0078d4" stop-opacity="1"/>
			<stop offset="0.16" stop-color="#1380da" stop-opacity="1"/>
			<stop offset="0.53" stop-color="#3c91e5" stop-opacity="1"/>
			<stop offset="0.82" stop-color="#559cec" stop-opacity="1"/>
			<stop offset="1" stop-color="#5ea0ef" stop-opacity="1"/>
		</linearGradient>
		<linearGradient id="grad0-9" x1="0" y1="0" x2="1" y2="0" gradientTransform="rotate(0 0.5 0.5)">
			<stop offset="0" stop-color="#32bedd" stop-opacity="1"/>
			<stop offset="0.06" stop-color="#37c5e3" stop-opacity="1"/>
			<stop offset="0.3" stop-color="#49ddf7" stop-opacity="1"/>
			<stop offset="0.45" stop-color="#50e6ff" stop-opacity="1"/>
			<stop offset="0.55" stop-color="#50e6ff" stop-opacity="1"/>
			<stop offset="0.7" stop-color="#49ddf7" stop-opacity="1"/>
			<stop offset="0.94" stop-color="#37c5e3" stop-opacity="1"/>
			<stop offset="1" stop-color="#32bedd" stop-opacity="1"/>
		</linearGradient>
	</defs>
	<g>
		<title>Page-1</title>
		<g id="group2210-1" transform="translate(5.38583,-28.3465)">
			<title>Database Migration Service</title>
			<g id="shape2211-2" transform="translate(0,-19.3495)">
				<title>path34</title>
				<path d="M53.86 78.98 A12.1505 11.8722 -180 0 0 43.35 67.61 A15.2223 14.8736 -180 0 0 27.65 53.37 A15.6319 15.2737
							 -180 0 0 12.7 63.37 A14.4373 14.1065 -180 0 0 -0 76.91 A14.6762 14.34 -180 0 0 15.15 90.68 L16.49 90.68
							 L41.06 90.68 A1.97958 1.93423 -180 0 0 41.71 90.68 A12.2529 11.9722 -180 0 0 53.86 78.98 Z"
						class="st1"/>
			</g>
			<g id="shape2212-6" transform="translate(12.6625,0)">
				<title>path36</title>
				<path d="M14.27 67.06 C6.42 67.06 0 65.06 0 62.63 L0 86.27 C0 88.71 6.31 90.68 14.1 90.71 L14.27 90.71 C22.15 90.71
							 28.53 88.71 28.53 86.27 L28.53 62.63 C28.67 65.06 22.29 67.06 14.27 67.06 Z" class="st2"/>
			</g>
			<g id="shape2213-10" transform="translate(12.799,-23.6443)">
				<title>path38</title>
				<path d="M28.53 86.27 C28.53 88.71 22.15 90.71 14.27 90.71 C6.38 90.71 0 88.71 0 86.27 C0 83.84 6.42 81.84 14.13
							 81.84 C21.84 81.84 28.4 83.81 28.4 86.27 L28.53 86.27 Z" class="st3"/>
				<path d="M28.53 86.27 C28.53 88.71 22.15 90.71 14.27 90.71 C6.38 90.71 0 88.71 0 86.27 C0 83.84 6.42 81.84 14.13
							 81.84 C21.84 81.84 28.4 83.81 28.4 86.27" class="st4"/>
			</g>
			<g id="shape2214-13" transform="translate(16.1438,-25.5118)">
				<title>path40</title>
				<path d="M21.88 87.87 C21.88 89.44 16.96 90.71 10.92 90.71 C4.88 90.71 0 89.34 0 87.87 C0 86.41 4.91 84.94 10.79
							 84.94 C16.66 84.94 21.74 86.21 21.74 87.77 L21.88 87.87 Z" class="st5"/>
				<path d="M21.88 87.87 C21.88 89.44 16.96 90.71 10.92 90.71 C4.88 90.71 0 89.34 0 87.87 C0 86.41 4.91 84.94 10.79
							 84.94 C16.66 84.94 21.74 86.21 21.74 87.77" class="st4"/>
			</g>
			<g id="shape2215-16" transform="translate(18.2941,-25.6119)">
				<title>path42</title>
				<path d="M8.64 88.54 A29.25 28.5799 -180 0 0 0 89.61 A28.6015 27.9463 -180 0 0 8.64 90.71 A28.6698 28.013 -180 0
							 0 17.3 89.61 A29.3183 28.6466 -180 0 0 8.64 88.54 Z" class="st6"/>
			</g>
			<g id="shape2216-18" transform="translate(17.6009,-29.3469)">
				<title>path44</title>
				<path d="M0.04 78.37 L8.88 69.7 A1.05805 1.03381 0 0 1 10.39 69.7 L19.23 78.37 a0.47783 0.466883 0 0 1 -0.341307
							 0.767023 L13.46 79.14 a0.47783 0.466883 -180 0 0 -0.477829 0.466882 L12.98 90.34 a0.341307 0.333488
							 0 0 1 -0.238916 0.366836 L6.67 90.71 a0.341307 0.333488 0 0 1 -0.375437 -0.366836 L6.29 79.57 a0.47783
							 0.466883 -180 0 0 -0.375438 -0.466883 L0.39 79.1 a0.47783 0.466883 0 0 1 -0.341307 -0.733672 Z"
						class="st7"/>
			</g>
		</g>
	</g>
</svg>
