<?xml version="1.0" encoding="UTF-8" standalone="no"?>
<!DOCTYPE svg PUBLIC "-//W3C//DTD SVG 1.1//EN" "http://www.w3.org/Graphics/SVG/1.1/DTD/svg11.dtd">
<!-- Generated by Microsoft Visio, SVG Export Data Lake.svg Page-1 -->
<svg xmlns="http://www.w3.org/2000/svg" xmlns:xlink="http://www.w3.org/1999/xlink" xmlns:ev="http://www.w3.org/2001/xml-events"
		width="0.724847in" height="1.25984in" viewBox="0 0 52.189 90.7087" xml:space="preserve" color-interpolation-filters="sRGB"
		class="st8">
	<style type="text/css">
	<![CDATA[
		.st1 {fill:#3e3e3e;stroke:none;stroke-linecap:butt;stroke-width:0.75}
		.st2 {fill:#a0a1a2;stroke:none;stroke-linecap:butt;stroke-width:0.75}
		.st3 {fill:#ffffff;stroke:none;stroke-linecap:butt;stroke-width:0.75}
		.st4 {fill:#7fba00;stroke:none;stroke-linecap:butt;stroke-width:0.75}
		.st5 {fill:#b8d432;stroke:none;stroke-linecap:butt;stroke-width:0.75}
		.st6 {fill:#3999c6;stroke:none;stroke-linecap:butt;stroke-width:0.75}
		.st7 {fill:#59b4d9;stroke:none;stroke-linecap:butt;stroke-width:0.75}
		.st8 {fill:none;fill-rule:evenodd;font-size:12px;overflow:visible;stroke-linecap:square;stroke-miterlimit:3}
	]]>
	</style>

	<g>
		<title>Page-1</title>
		<g id="group2243-1" transform="translate(4.25197,-28.3465)">
			<title>Data Lake</title>
			<g id="group2244-2">
				<title>g12</title>
				<g id="shape2245-3" transform="translate(0,-0.113386)">
					<title>path2</title>
					<path d="M0 41.84 L0 83 C0 87.31 9.45 90.71 21.26 90.71 L21.26 41.84 L0 41.84 Z" class="st1"/>
				</g>
				<g id="shape2246-5" transform="translate(20.9224,0)">
					<title>path4</title>
					<path d="M0 90.71 L0.34 90.71 C12.04 90.71 21.6 87.19 21.6 83 L21.6 41.73 L0 41.73 L0 90.71 Z" class="st2"/>
				</g>
				<g id="shape2247-7" transform="translate(0,-41.2724)">
					<title>path6</title>
					<path d="M42.52 83 C42.52 87.31 33.07 90.71 21.26 90.71 C9.45 90.71 0 87.31 0 83 C0 78.8 9.56 75.29 21.26 75.29
								 C32.96 75.29 42.52 78.8 42.52 83 Z" class="st3"/>
				</g>
				<g id="shape2248-9" transform="translate(4.38695,-44.3339)">
					<title>path8</title>
					<path d="M33.75 85.61 C33.75 88.44 26.21 90.71 16.87 90.71 C7.54 90.71 0 88.44 0 85.61 C0 82.77 7.54 80.5 16.87
								 80.5 C26.21 80.5 33.75 82.77 33.75 85.61 Z" class="st4"/>
				</g>
				<g id="shape2249-11" transform="translate(4.38695,-46.2614)">
					<title>path10</title>
					<path d="M30.26 90.71 C32.51 89.8 33.75 88.78 33.75 87.53 C33.75 84.7 26.21 82.43 16.87 82.43 C7.54 82.43 0 84.7
								 0 87.53 C0 88.67 1.35 89.8 3.49 90.71 C6.52 89.46 11.36 88.67 16.87 88.67 C22.27 88.67 27.11 89.46
								 30.26 90.71 Z" class="st5"/>
				</g>
			</g>
			<g id="group2250-13">
				<title>g24</title>
				<g id="shape2251-14">
					<title>path14</title>
					<path d="M20.92 90.71 L20.92 70.3 C17.77 70.3 15.07 68.6 13.5 66.1 C11.92 68.6 9.34 70.3 6.19 70.3 C3.71 70.3
								 1.57 69.28 0 67.58 L0 83 C0 87.19 9.34 90.6 20.92 90.71 Z" class="st6"/>
				</g>
				<g id="shape2252-16" transform="translate(21.2598,0)">
					<title>path16</title>
					<path d="M0 90.71 C0 90.71 0 90.71 0 90.71 Z" class="st6"/>
				</g>
				<g id="shape2253-18" transform="translate(20.9224,0)">
					<title>path18</title>
					<path d="M0 90.71 L0.34 90.71 C0.22 90.71 0.11 90.71 0 90.71 Z" class="st7"/>
				</g>
				<g id="shape2254-20" transform="translate(21.1474,0)">
					<title>path20</title>
					<path d="M14.85 70.3 C11.7 70.3 8.89 68.6 7.31 66.1 C5.85 68.6 3.15 70.19 0 70.3 L0 90.71 C11.7 90.71 21.26 87.19
								 21.26 83 L21.26 67.46 C19.69 69.17 17.44 70.3 14.85 70.3 Z" class="st7"/>
				</g>
				<g id="shape2255-22" transform="translate(20.9224,0)">
					<title>path22</title>
					<path d="M0.11 70.3 C0.11 70.3 0.11 70.3 0.11 70.3 L0 90.71 C0.11 90.71 0.11 90.71 0.22 90.71 L0.22 70.3 C0.22
								 70.3 0.22 70.3 0.11 70.3 Z" class="st7"/>
				</g>
			</g>
		</g>
	</g>
</svg>
