<?xml version="1.0" encoding="UTF-8" standalone="no"?>
<!DOCTYPE svg PUBLIC "-//W3C//DTD SVG 1.1//EN" "http://www.w3.org/Graphics/SVG/1.1/DTD/svg11.dtd">
<!-- Generated by Microsoft Visio, SVG Export Data And Storage.svg Page-1 -->
<svg xmlns="http://www.w3.org/2000/svg" xmlns:xlink="http://www.w3.org/1999/xlink" xmlns:ev="http://www.w3.org/2001/xml-events"
		width="1.10222in" height="1.33851in" viewBox="0 0 79.3597 96.3727" xml:space="preserve" color-interpolation-filters="sRGB"
		class="st10">
	<style type="text/css">
	<![CDATA[
		.st1 {fill:#a0a1a2;stroke:none;stroke-linecap:butt;stroke-width:11.3333}
		.st2 {fill:#7a7a7a}
		.st3 {stroke:none;stroke-linecap:butt;stroke-width:11.3333}
		.st4 {fill:#b8d432;stroke:none;stroke-linecap:butt;stroke-width:11.3333}
		.st5 {fill:#ffffff;stroke:none;stroke-linecap:butt;stroke-width:11.3333}
		.st6 {fill:#ffffff;fill-opacity:0.2;stroke:none;stroke-linecap:butt;stroke-width:11.3333}
		.st7 {fill:#0072c6;stroke:none;stroke-linecap:butt;stroke-width:11.3333}
		.st8 {fill:#ffffff;fill-opacity:0.15;stroke:none;stroke-linecap:butt;stroke-width:11.3333}
		.st9 {fill:#57a300;stroke:none;stroke-linecap:butt;stroke-width:11.3333}
		.st10 {fill:none;fill-rule:evenodd;font-size:12px;overflow:visible;stroke-linecap:square;stroke-miterlimit:3}
	]]>
	</style>

	<g>
		<title>Page-1</title>
		<g id="group2299-1" transform="translate(11.3335,-28.3465)">
			<title>Data And Storage</title>
			<g id="group2300-2">
				<title>g30</title>
				<g id="shape2301-3" transform="translate(0,-23.4436)">
					<title>path4</title>
					<path d="M28.17 88.55 C28.17 86.19 32.58 84.19 38.67 83.51 L38.67 69.31 L0 69.31 L0 94.9 A1.44882 1.44882 -180
								 0 0 1.4 96.37 L28.17 96.37 L28.17 88.55 Z" class="st1"/>
				</g>
				<g id="shape2302-5" transform="translate(2.79776E-13,-50.5092)">
					<title>path6</title>
					<path d="M1.4 90.26 A1.44882 1.44882 -180 0 0 0 91.73 L0 96.37 L38.66 96.37 L38.66 91.43 C38.66 90.65 38.04 90.19
								 37.19 90.19 L1.4 90.26 Z" class="st2"/>
					<path d="M1.4 90.26 A1.44882 1.44882 -180 0 0 0 91.73 L0 96.37 L38.66 96.37 L38.66 91.43 C38.66 90.65 38.04 90.19
								 37.19 90.19" class="st3"/>
				</g>
				<g id="shape2303-8" transform="translate(3.09711,-34.6457)">
					<title>path8</title>
					<path d="M32.47 95.22 L32.47 90.94 L0 90.94 L0 96.37 L28.6 96.37 A21.5748 21.5748 0 0 1 32.47 95.22 Z"
							class="st4"/>
				</g>
				<g id="shape2304-10" transform="translate(3.09711,-42.7717)">
					<title>path10</title>
					<rect x="0" y="90.9554" width="32.4724" height="5.41732" class="st5"/>
				</g>
				<g id="shape2305-12" transform="translate(3.11811,-26.5407)">
					<title>path12</title>
					<path d="M25.05 91.65 A1.98425 1.98425 0 0 1 25.2 90.96 L0 90.96 L0 96.37 L25.05 96.37 L25.05 91.65 Z"
							class="st4"/>
				</g>
				<g id="shape2306-14" transform="translate(-2.81775E-13,-23.5066)">
					<title>path14</title>
					<path d="M1.54 63.19 A1.55381 1.55381 -180 0 0 -0 64.73 L0 94.58 C0 96.12 0.69 96.37 1.54 96.37 L3.24 96.37 L33.71
								 63.19 L1.54 63.19 Z" class="st6"/>
				</g>
				<g id="shape2307-16" transform="translate(29.3963,2.98428E-13)">
					<title>path16</title>
					<path d="M0 65.18 L0 91.43 C0 94.21 6.11 96.37 13.65 96.37 L13.65 65.18 L0 65.18 Z" class="st7"/>
				</g>
				<g id="shape2308-18" transform="translate(42.8556,2.98428E-13)">
					<title>path18</title>
					<path d="M0 96.37 L0.19 96.37 C7.73 96.37 13.84 94.16 13.84 91.43 L13.84 65.18 L0 65.18 L0 96.37 Z" class="st7"/>
				</g>
				<g id="shape2309-20" transform="translate(42.8556,2.98428E-13)">
					<title>path20</title>
					<path d="M0 96.37 L0.19 96.37 C7.73 96.37 13.84 94.16 13.84 91.43 L13.84 65.18 L0 65.18 L0 96.37 Z" class="st8"/>
				</g>
				<g id="shape2310-22" transform="translate(29.3963,-26.2467)">
					<title>path22</title>
					<path d="M27.3 91.43 C27.3 94.16 21.19 96.37 13.65 96.37 C6.11 96.37 0 94.16 0 91.43 C0 88.7 6.11 86.48 13.65
								 86.48 C21.19 86.48 27.3 88.7 27.3 91.43 Z" class="st5"/>
				</g>
				<g id="shape2311-24" transform="translate(32.189,-28.231)">
					<title>path24</title>
					<path d="M21.72 93.11 C21.72 94.91 16.86 96.37 10.87 96.37 C4.87 96.37 0 94.92 0 93.11 C0 91.29 4.86 89.86 10.86
								 89.86 C16.85 89.86 21.72 91.32 21.72 93.11 Z" class="st9"/>
				</g>
				<g id="shape2312-26" transform="translate(32.189,-29.4803)">
					<title>path26</title>
					<path d="M19.44 96.37 C20.86 95.82 21.72 95.13 21.72 94.38 C21.72 92.57 16.86 91.11 10.87 91.11 C4.87 91.11 0
								 92.57 0 94.36 C0 95.1 0.85 95.8 2.28 96.35 A25.3543 25.3543 0 0 1 10.86 95.1 A25.3648 25.3648 0
								 0 1 19.44 96.37 Z" class="st4"/>
				</g>
				<g id="shape2313-28" transform="translate(33.0709,-8.39895)">
					<title>path28</title>
					<path d="M5.64 91.84 A2.24672 2.24672 0 0 1 4.72 93.73 A3.9895 3.9895 0 0 1 2.27 94.4 A4.67192 4.67192 0 0 1
								 0.04 93.92 L0.04 92.01 A3.44357 3.44357 -180 0 0 2.32 92.89 A1.55381 1.55381 -180 0 0 3.24 92.65
								 a0.755906 0.755906 -180 0 0 0.325459 -0.64042 a0.892388 0.892388 -180 0 0 -0.314961 -0.682415 A5.79528
								 5.79528 -180 0 0 1.97 90.58 A2.82415 2.82415 0 0 1 0 88.06 A2.27822 2.27822 0 0 1 0.86 86.2 A3.50656
								 3.50656 0 0 1 3.14 85.5 A5.70079 5.70079 0 0 1 5.24 85.82 L5.24 87.62 A3.41207 3.41207 -180 0 0
								 3.25 87.02 A1.46982 1.46982 -180 0 0 2.37 87.26 a0.745407 0.745407 -180 0 0 -0.325459 0.629921 a0.902887
								 0.902887 -180 0 0 0.262467 0.671916 A4.19948 4.19948 -180 0 0 3.36 89.21 A5.31234 5.31234 0 0 1
								 5.08 90.37 A2.16273 2.16273 0 0 1 5.64 91.84 ZM14.91 89.88 A4.91339 4.91339 0 0 1 14.17 92.52 A3.68504
								 3.68504 0 0 1 12.23 94.08 L14.77 96.37 L12.25 96.37 L10.47 94.37 A4.19948 4.19948 0 0 1 8.37 93.76
								 A3.80052 3.80052 0 0 1 6.94 92.22 A4.74541 4.74541 0 0 1 6.47 90.07 A5.12336 5.12336 0 0 1 7.01
								 87.69 A3.86352 3.86352 0 0 1 8.55 86.07 A4.46194 4.46194 0 0 1 10.8 85.51 A4.19948 4.19948 0 0 1
								 12.9 86.05 A3.72703 3.72703 0 0 1 14.36 87.61 A4.91339 4.91339 0 0 1 14.91 89.88 ZM12.87 89.99 A3.37008
								 3.37008 -180 0 0 12.3 87.89 A1.84777 1.84777 -180 0 0 10.74 87.13 A1.96325 1.96325 -180 0 0 9.12
								 87.9 A3.70604 3.70604 -180 0 0 9.12 91.94 A1.91076 1.91076 -180 0 0 10.7 92.7 A1.94226 1.94226 -180
								 0 0 12.29 91.96 A3.14961 3.14961 -180 0 0 12.87 90 L12.87 89.99 ZM21.46 94.25 L16.34 94.25 L16.34
								 85.64 L18.28 85.64 L18.28 92.68 L21.46 92.68 L21.46 94.25 Z" class="st5"/>
				</g>
			</g>
		</g>
	</g>
</svg>
