<?xml version="1.0" encoding="UTF-8" standalone="no"?>
<!DOCTYPE svg PUBLIC "-//W3C//DTD SVG 1.1//EN" "http://www.w3.org/Graphics/SVG/1.1/DTD/svg11.dtd">
<!-- Generated by Microsoft Visio, SVG Export Data Box.svg Page-1 -->
<svg xmlns="http://www.w3.org/2000/svg" xmlns:xlink="http://www.w3.org/1999/xlink" xmlns:ev="http://www.w3.org/2001/xml-events"
		width="1.67952in" height="1.63985in" viewBox="0 0 120.926 118.069" xml:space="preserve" color-interpolation-filters="sRGB"
		class="st5">
	<style type="text/css">
	<![CDATA[
		.st1 {fill:url(#grad0-6);stroke:none;stroke-linecap:butt;stroke-width:32.1017}
		.st2 {fill:#50e6ff;stroke:none;stroke-linecap:butt;stroke-width:32.1017}
		.st3 {fill:#0078d4;stroke:none;stroke-linecap:butt;stroke-width:32.1016}
		.st4 {fill:#ffffff;stroke:none;stroke-linecap:butt;stroke-width:32.1016}
		.st5 {fill:none;fill-rule:evenodd;font-size:12px;overflow:visible;stroke-linecap:square;stroke-miterlimit:3}
	]]>
	</style>

	<defs id="Patterns_And_Gradients">
		<linearGradient id="grad0-6" x1="0" y1="0" x2="1" y2="0" gradientTransform="rotate(-90 0.5 0.5)">
			<stop offset="0" stop-color="#0078d4" stop-opacity="1"/>
			<stop offset="0.82" stop-color="#5ea0ef" stop-opacity="1"/>
		</linearGradient>
	</defs>
	<g>
		<title>Page-1</title>
		<g id="group2289-1" transform="translate(32.131,-32.1016)">
			<title>Data Box</title>
			<g id="group2290-2" transform="translate(0,-13.9794)">
				<title>g15</title>
				<g id="shape2291-3">
					<title>path11</title>
					<path d="M56.69 105.57 A12.7559 12.6597 -180 0 0 45.64 93.41 A16.063 15.9418 -180 0 0 29.1 78.19 A16.4724 16.3482
								 -180 0 0 13.35 88.82 A15.2441 15.1291 -180 0 0 0 103.35 A15.4016 15.2854 -180 0 0 15.97 118.04 A9.98425
								 9.90892 -180 0 0 17.35 118.04 L43.21 118.04 A2.45669 2.43816 -180 0 0 43.91 118.04 A12.8819 12.7847
								 -180 0 0 56.69 105.57 Z" class="st1"/>
				</g>
				<g id="shape2292-7" transform="translate(4.24426,-0.0243671)">
					<title>path13</title>
					<path d="M25.58 103 A14.9291 14.8165 -180 1 0 10.68 118.07 L25.58 118.07 L25.58 103 Z" class="st2"/>
				</g>
			</g>
			<g id="shape2293-9" transform="translate(22.4495,-2.55795E-13)">
				<title>path17</title>
				<path d="M14.72 110.94 L7.63 117.94 a0.314961 0.312584 0 0 1 -0.503938 0 L0.07 110.94 a0.377953 0.375101 0 0 1 0.251972
							 -0.625173 L4.48 110.32 a0.346457 0.343843 -180 0 0 0.346456 -0.437614 L4.83 100.81 a0.346457 0.343843
							 0 0 1 0.377951 -0.312587 L9.58 100.5 a0.346457 0.343843 0 0 1 0.346456 0.343844 L9.93 109.88 a0.346457
							 0.343843 -180 0 0 0.377955 0.343842 L14.46 110.22 a0.383491 0.380597 0 0 1 0.251971 0.718945 Z"
						class="st3"/>
			</g>
			<g id="shape2294-11" transform="translate(22.4701,-14.035)">
				<title>path19</title>
				<path d="M0.05 107.72 L7.36 100.47 L14.7 107.72 a0.346457 0.343843 0 0 1 -0.251971 0.593913 L10.29 108.32 a0.377953
							 0.375101 -180 0 0 -0.377955 0.375098 L9.91 118.07 L4.81 118.07 L4.81 108.69 a0.377953 0.375101 -180
							 0 0 -0.346456 -0.406359 L0.3 108.29 a0.346457 0.343843 0 0 1 -0.251972 -0.562652 Z" class="st4"/>
			</g>
		</g>
	</g>
</svg>
