<?xml version="1.0" encoding="UTF-8" standalone="no"?>
<!DOCTYPE svg PUBLIC "-//W3C//DTD SVG 1.1//EN" "http://www.w3.org/Graphics/SVG/1.1/DTD/svg11.dtd">
<!-- Generated by Microsoft Visio, SVG Export Data Lake Analytics.svg Page-1 -->
<svg xmlns="http://www.w3.org/2000/svg" xmlns:xlink="http://www.w3.org/1999/xlink" xmlns:ev="http://www.w3.org/2001/xml-events"
		width="0.952566in" height="1.26355in" viewBox="0 0 68.5848 90.9755" xml:space="preserve" color-interpolation-filters="sRGB"
		class="st5">
	<style type="text/css">
	<![CDATA[
		.st1 {fill:#a0a1a2;stroke:none;stroke-linecap:butt;stroke-width:6.12}
		.st2 {fill:#7a7a7a;stroke:none;stroke-linecap:butt;stroke-width:6.12}
		.st3 {fill:#ffffff;stroke:none;stroke-linecap:butt;stroke-width:6.12}
		.st4 {fill:#59b4d9;stroke:none;stroke-linecap:butt;stroke-width:6.12}
		.st5 {fill:none;fill-rule:evenodd;font-size:12px;overflow:visible;stroke-linecap:square;stroke-miterlimit:3}
	]]>
	</style>

	<g>
		<title>Page-1</title>
		<g id="group2263-1" transform="translate(5.93671,-28.3465)">
			<title>Data Lake Analytics</title>
			<g id="group2264-2">
				<title>Sheet.2264</title>
				<g id="shape2265-3" transform="translate(4.7338,-4.63491)">
					<title>Sheet.2265</title>
					<path d="M42.04 90.98 L5.13 90.98 C2.31 90.98 0 88.66 0 85.83 L0 48.81 C0 45.98 2.31 43.67 5.13 43.67 L42.04
								 43.67 C44.86 43.67 47.17 45.98 47.17 48.81 L47.17 85.83 C47.17 88.66 44.86 90.98 42.04 90.98 ZM5.13
								 47.06 C4.17 47.06 3.44 47.85 3.44 48.75 L3.44 85.78 C3.44 86.74 4.23 87.47 5.13 87.47 L42.04 87.47
								 C43 87.47 43.73 86.68 43.73 85.78 L43.73 48.75 C43.73 47.79 42.94 47.06 42.04 47.06 L5.13 47.06
								 Z" class="st1"/>
				</g>
				<g id="shape2266-5">
					<title>Sheet.2266</title>
					<path d="M23.33 34.96 C22.09 34.4 20.63 34.28 19.33 34.79 C18.03 35.24 16.96 36.2 16.4 37.5 L15.61 39.14 L32.23
								 39.14 L23.33 34.96 ZM56.19 53.67 C55.73 52.37 54.78 51.3 53.48 50.73 L51.85 49.94 L51.85 66.67 L56.02
								 57.74 C56.64 56.44 56.69 55.03 56.19 53.67 ZM0.68 71.59 C0.11 72.83 0 74.3 0.51 75.6 C0.96 76.9
								 1.92 77.98 3.21 78.54 L4.85 79.33 L4.85 62.66 L0.68 71.59 ZM37.19 90.47 C37.87 90.81 38.66 90.98
								 39.39 90.98 C40.01 90.98 40.58 90.86 41.2 90.64 C42.49 90.18 43.56 89.22 44.13 87.92 L44.91 86.28
								 L28.29 86.28 L37.19 90.47 Z" class="st2"/>
				</g>
				<g id="shape2267-7" transform="translate(8.17144,-8.13936)">
					<title>Sheet.2267</title>
					<path d="M1.69 50.56 C0.73 50.56 0 51.35 0 52.26 L0 89.28 C0 90.24 0.79 90.98 1.69 90.98 L38.6 90.98 C39.56 90.98
								 40.29 90.18 40.29 89.28 L40.29 52.26 C40.29 51.3 39.5 50.56 38.6 50.56 L1.69 50.56 Z" class="st3"/>
				</g>
				<g id="shape2268-9" transform="translate(19.6678,-13.6786)">
					<title>Sheet.2268</title>
					<path d="M16.79 72.83 L9.64 72.83 L12.62 62.83 C12.68 62.54 12.57 62.26 12.34 62.15 C12.29 62.09 12.17 62.09
								 12.12 62.09 C11.95 62.09 11.78 62.21 11.67 62.32 L0.11 79.22 C0 79.39 0 79.61 0.06 79.78 C0.17 79.95
								 0.34 80.07 0.56 80.07 L7.5 80.07 L4.4 90.24 C4.34 90.52 4.45 90.81 4.68 90.92 C4.73 90.98 4.85 90.98
								 4.9 90.98 C5.07 90.98 5.24 90.86 5.35 90.75 L17.24 73.68 C17.3 73.57 17.36 73.45 17.36 73.34 C17.36
								 73.06 17.08 72.83 16.79 72.83 Z" class="st4"/>
				</g>
			</g>
		</g>
	</g>
</svg>
