<?xml version="1.0" encoding="UTF-8" standalone="no"?>
<!DOCTYPE svg PUBLIC "-//W3C//DTD SVG 1.1//EN" "http://www.w3.org/Graphics/SVG/1.1/DTD/svg11.dtd">
<!-- Generated by Microsoft Visio, SVG Export Data Factory.svg Page-1 -->
<svg xmlns="http://www.w3.org/2000/svg" xmlns:xlink="http://www.w3.org/1999/xlink" xmlns:ev="http://www.w3.org/2001/xml-events"
		width="1.73185in" height="1.73185in" viewBox="0 0 124.694 124.693" xml:space="preserve" color-interpolation-filters="sRGB"
		class="st7">
	<style type="text/css">
	<![CDATA[
		.st1 {fill:#005ba1;stroke:none;stroke-linecap:butt;stroke-width:34}
		.st2 {fill:url(#grad0-8);stroke:none;stroke-linecap:butt;stroke-width:34}
		.st3 {fill:#ffffff;stroke:none;stroke-linecap:butt;stroke-width:34}
		.st4 {fill:#eaeaea;stroke:none;stroke-linecap:butt;stroke-width:34}
		.st5 {fill:#50e6ff;stroke:none;stroke-linecap:butt;stroke-width:34}
		.st6 {fill:#198ab3;stroke:none;stroke-linecap:butt;stroke-width:34}
		.st7 {fill:none;fill-rule:evenodd;font-size:12px;overflow:visible;stroke-linecap:square;stroke-miterlimit:3}
	]]>
	</style>

	<defs id="Patterns_And_Gradients">
		<linearGradient id="grad0-8" x1="0" y1="0" x2="1" y2="0" gradientTransform="rotate(0 0.5 0.5)">
			<stop offset="0" stop-color="#005ba1" stop-opacity="1"/>
			<stop offset="0.07" stop-color="#0060a9" stop-opacity="1"/>
			<stop offset="0.36" stop-color="#0071c8" stop-opacity="1"/>
			<stop offset="0.52" stop-color="#0078d4" stop-opacity="1"/>
			<stop offset="0.64" stop-color="#0074cd" stop-opacity="1"/>
			<stop offset="0.81" stop-color="#006abb" stop-opacity="1"/>
			<stop offset="0.99" stop-color="#005ba1" stop-opacity="1"/>
		</linearGradient>
	</defs>
	<g>
		<title>Page-1</title>
		<g id="group2269-1" transform="translate(34.0003,-34.0003)">
			<title>Data Factory</title>
			<g id="group2270-2">
				<title>Icon-analytics-146</title>
				<g id="shape2271-3" transform="translate(14.5067,1.42109E-14)">
					<title>path4</title>
					<path d="M28.01 101.28 L28.01 88.24 a0.466883 0.466883 -180 0 0 -0.800371 -0.333488 L13.87 101.25 L0 115.12 L0
								 124.69 L40.29 124.69 A1.86753 1.86753 -180 0 0 42.19 122.79 L42.19 88.24 a0.466883 0.466883 -180
								 0 0 -0.800371 -0.333488 L28.01 101.28 Z" class="st1"/>
				</g>
				<g id="shape2272-5">
					<title>path6</title>
					<path d="M14.17 78.27 C6.34 78.27 0 75.97 0 73 L0 122.79 A1.86753 1.86753 -180 0 0 1.9 124.69 L28.35 124.69 L28.35
								 73 C28.35 75.97 22.01 78.27 14.17 78.27 Z" class="st2"/>
				</g>
				<g id="shape2273-9" transform="translate(41.3858,-7.53682)">
					<title>rect8</title>
					<path d="M0 123.76 a0.933787 0.933787 -180 0 0 0.933766 0.933766 L6.64 124.69 a0.933787 0.933787 -180 0 0 0.933766
								 -0.933766 L7.57 118.06 a0.933787 0.933787 -180 0 0 -0.933766 -0.933766 L0.93 117.12 a0.933787 0.933787
								 -180 0 0 -0.933766 0.933766 L0 123.76 Z" class="st3"/>
				</g>
				<g id="shape2274-11" transform="translate(28.2464,-7.53682)">
					<title>rect10</title>
					<path d="M0 123.76 a0.933787 0.933787 -180 0 0 0.933766 0.933766 L6.64 124.69 a0.933787 0.933787 -180 0 0 0.933766
								 -0.933766 L7.57 118.06 a0.933787 0.933787 -180 0 0 -0.933766 -0.933766 L0.93 117.12 a0.933787 0.933787
								 -180 0 0 -0.933766 0.933766 L0 123.76 Z" class="st3"/>
				</g>
				<g id="shape2275-13" transform="translate(15.107,-7.53682)">
					<title>rect12</title>
					<path d="M0 123.76 a0.933787 0.933787 -180 0 0 0.933766 0.933766 L6.64 124.69 a0.933787 0.933787 -180 0 0 0.933766
								 -0.933766 L7.57 118.06 a0.933787 0.933787 -180 0 0 -0.933766 -0.933766 L0.93 117.12 a0.933787 0.933787
								 -180 0 0 -0.933766 0.933766 L0 123.76 Z" class="st3"/>
				</g>
				<g id="shape2276-15" transform="translate(0,-46.5549)">
					<title>path14</title>
					<path d="M28.35 119.56 C28.35 122.39 22.01 124.69 14.17 124.69 C6.34 124.69 0 122.53 0 119.56 C0 116.59 6.34
								 114.56 14.17 114.56 C22.01 114.56 28.35 116.86 28.35 119.56 Z" class="st4"/>
				</g>
				<g id="shape2277-17" transform="translate(3.26818,-48.6559)">
					<title>path16</title>
					<path d="M21.74 121.36 C21.74 123.19 16.87 124.69 10.87 124.69 C4.87 124.69 0 123.26 0 121.36 C0 119.46 5.07
								 118.12 10.91 118.12 C16.74 118.12 21.74 119.56 21.74 121.36 Z" class="st5"/>
				</g>
				<g id="shape2278-19" transform="translate(5.56925,-48.7226)">
					<title>path18</title>
					<path d="M8.6 122.19 A26.9125 26.9125 -180 0 0 0 123.43 A25.4785 25.4785 -180 0 0 8.6 124.69 A25.4785 25.4785
								 -180 0 0 17.21 123.43 A26.9125 26.9125 -180 0 0 8.6 122.19 Z" class="st6"/>
				</g>
			</g>
		</g>
	</g>
</svg>
