<?xml version="1.0" encoding="UTF-8" standalone="no"?>
<!DOCTYPE svg PUBLIC "-//W3C//DTD SVG 1.1//EN" "http://www.w3.org/Graphics/SVG/1.1/DTD/svg11.dtd">
<!-- Generated by Microsoft Visio, SVG Export Data Transfer.svg Page-1 -->
<svg xmlns="http://www.w3.org/2000/svg" xmlns:xlink="http://www.w3.org/1999/xlink" xmlns:ev="http://www.w3.org/2001/xml-events"
		width="1.1274in" height="1.31173in" viewBox="0 0 81.1729 94.4447" xml:space="preserve" color-interpolation-filters="sRGB"
		class="st8">
	<style type="text/css">
	<![CDATA[
		.st1 {fill:#3999c6;stroke:none;stroke-linecap:butt;stroke-width:12.24}
		.st2 {fill:#000000;fill-opacity:0.15;stroke:none;stroke-linecap:butt;stroke-width:12.24}
		.st3 {fill:#ffffff;stroke:none;stroke-linecap:butt;stroke-width:12.24}
		.st4 {fill:#57a300;stroke:none;stroke-linecap:butt;stroke-width:12.24}
		.st5 {fill:#b8d432;stroke:none;stroke-linecap:butt;stroke-width:12.24}
		.st6 {fill:#ffffff;fill-opacity:0.4;stroke:none;stroke-linecap:butt;stroke-width:12.24}
		.st7 {fill:#804998;stroke:none;stroke-linecap:butt;stroke-width:12.24}
		.st8 {fill:none;fill-rule:evenodd;font-size:12px;overflow:visible;stroke-linecap:square;stroke-miterlimit:3}
	]]>
	</style>

	<g>
		<title>Page-1</title>
		<g id="group2217-1" transform="translate(12.24,-28.3465)">
			<title>Data Transfer</title>
			<g id="group2218-2">
				<title>g18</title>
				<g id="shape2219-3" transform="translate(0.00113386,-2.70006E-13)">
					<title>path4</title>
					<path d="M0 50.08 L0 85.34 C0 90.32 8.06 94.44 18.14 94.44 C28.22 94.44 36.28 90.37 36.28 85.34 L36.28 50.08
								 L0 50.08 Z" class="st1"/>
				</g>
				<g id="shape2220-5" transform="translate(18.1417,-2.70006E-13)">
					<title>path6</title>
					<path d="M0 94.44 C10.08 94.44 18.14 90.37 18.14 85.34 L18.14 50.08 L0 50.08 L0 94.44 Z" class="st2"/>
				</g>
				<g id="shape2221-7" transform="translate(0,-34.9918)">
					<title>path8</title>
					<path d="M36.28 85.01 C36.28 90.22 28.16 94.44 18.14 94.44 C8.12 94.44 0 90.22 0 85.01 C0 79.8 8.12 75.58 18.14
								 75.58 C28.16 75.58 36.28 79.8 36.28 85.01 Z" class="st3"/>
				</g>
				<g id="shape2222-9" transform="translate(3.70885,-39.099)">
					<title>path10</title>
					<path d="M28.87 88.45 C28.87 91.76 22.4 94.44 14.43 94.44 C6.46 94.44 0 91.76 0 88.45 C0 85.14 6.46 82.45 14.43
								 82.45 C22.4 82.45 28.87 85.14 28.87 88.45 Z" class="st4"/>
				</g>
				<g id="shape2223-11" transform="translate(3.71112,-41.4306)">
					<title>path12</title>
					<path d="M25.84 94.44 C27.73 93.43 28.86 92.16 28.86 90.78 C28.86 87.47 22.4 84.79 14.43 84.79 C6.46 84.79 0
								 87.47 0 90.78 C0 92.16 1.13 93.43 3.03 94.44 C5.66 93.03 9.79 92.11 14.43 92.11 C19.08 92.11 23.2
								 93.03 25.84 94.44 Z" class="st5"/>
				</g>
				<g id="shape2224-13" transform="translate(26.1732,-16.0928)">
					<title>path14</title>
					<path d="M10.11 78.48 L0.5 88.25 A1.70079 1.72623 -180 0 0 0.5 90.69 L3.7 93.94 A1.70079 1.72623 -180 0 0 6.11
								 93.94 L10.11 89.87 L10.11 78.48 Z" class="st6"/>
				</g>
				<g id="shape2225-15" transform="translate(27.072,-17.0045)">
					<title>path16</title>
					<path d="M0 90.38 L19.07 71.03 L14.66 66.55 L29.62 64.38 L27.48 79.57 L23.07 75.09 L4.01 94.44 L0 90.38 Z"
							class="st7"/>
				</g>
			</g>
		</g>
	</g>
</svg>
