<?xml version="1.0" encoding="UTF-8" standalone="no"?>
<!DOCTYPE svg PUBLIC "-//W3C//DTD SVG 1.1//EN" "http://www.w3.org/Graphics/SVG/1.1/DTD/svg11.dtd">
<!-- Generated by Microsoft Visio, SVG Export Ddos Protection Plan.svg Page-1 -->
<svg xmlns="http://www.w3.org/2000/svg" xmlns:xlink="http://www.w3.org/1999/xlink" xmlns:ev="http://www.w3.org/2001/xml-events"
		width="1.57437in" height="1.73185in" viewBox="0 0 113.354 124.693" xml:space="preserve" color-interpolation-filters="sRGB"
		class="st6">
	<style type="text/css">
	<![CDATA[
		.st1 {fill:#0078d4;stroke:none;stroke-linecap:butt;stroke-width:34}
		.st2 {fill:url(#grad0-8);stroke:none;stroke-linecap:butt;stroke-width:34}
		.st3 {fill:#e6e6e6;stroke:none;stroke-linecap:butt;stroke-width:34}
		.st4 {fill:#003067;stroke:none;stroke-linecap:butt;stroke-width:34}
		.st5 {fill:#50e6ff;stroke:none;stroke-linecap:butt;stroke-width:34}
		.st6 {fill:none;fill-rule:evenodd;font-size:12px;overflow:visible;stroke-linecap:square;stroke-miterlimit:3}
	]]>
	</style>

	<defs id="Patterns_And_Gradients">
		<linearGradient id="grad0-8" x1="0" y1="0" x2="1" y2="0" gradientTransform="rotate(90 0.5 0.5)">
			<stop offset="0.18" stop-color="#5ea0ef" stop-opacity="1"/>
			<stop offset="1" stop-color="#0078d4" stop-opacity="1"/>
		</linearGradient>
	</defs>
	<g>
		<title>Page-1</title>
		<g id="group2201-1" transform="translate(34,-34)">
			<title>Ddos Protection Plan</title>
			<g id="group2202-2">
				<title>Icon-networking-72</title>
				<g id="shape2203-3">
					<title>Sheet.2203</title>
					<path d="M45.35 94.46 C45.35 109.71 27.33 121.99 23.42 124.48 A1.41732 1.44901 0 0 1 21.94 124.48 C18.02 121.99
								 0 109.71 0 94.46 L0 76.13 A1.41732 1.44901 0 0 1 1.39 74.68 C15.41 74.3 12.17 68 22.68 68 C33.18
								 68 29.95 74.3 43.97 74.68 A1.41732 1.44901 0 0 1 45.35 76.13 L45.35 94.46 Z" class="st1"/>
				</g>
				<g id="shape2204-5" transform="translate(1.87949,-2.35317)">
					<title>Sheet.2204</title>
					<path d="M41.6 96.97 C41.6 110.96 25.08 122.17 21.48 124.5 A1.32489 1.35451 0 0 1 20.12 124.5 C16.51 122.23 0
								 110.96 0 96.97 L0 80.15 A1.29408 1.32301 0 0 1 1.26 78.83 C14.11 78.48 11.15 72.72 20.8 72.72 C30.44
								 72.72 27.48 78.48 40.33 78.83 A1.29408 1.32301 0 0 1 41.6 80.15 L41.6 96.97 Z" class="st2"/>
				</g>
				<g id="shape2205-9" transform="translate(14.05,-15.7425)">
					<title>Sheet.2205</title>
					<path d="M17.25 123.18 A1.47895 1.51202 0 0 1 15.78 124.69 L1.48 124.69 A1.47895 1.51202 0 0 1 0 123.18 L0 96.15
								 A1.47895 1.51202 0 0 1 1.48 94.61 L15.78 94.61 A1.47895 1.51202 0 0 1 17.25 96.15 L17.25 123.18
								 Z" class="st3"/>
				</g>
				<g id="shape2206-11" transform="translate(16.5149,-39.0212)">
					<title>Sheet.2206</title>
					<path d="M0 122.77 A1.84868 1.89002 0 0 1 1.85 120.88 L10.48 120.88 A1.84868 1.89002 0 0 1 12.32 122.77 A1.84868
								 1.89002 0 0 1 10.48 124.69 L1.85 124.69 A1.84868 1.89002 0 0 1 0 122.77 Z" class="st4"/>
				</g>
				<g id="shape2207-13" transform="translate(17.1927,-39.6827)">
					<title>Sheet.2207</title>
					<ellipse cx="1.26327" cy="123.401" rx="1.26327" ry="1.29151" class="st5"/>
				</g>
				<g id="shape2208-15" transform="translate(16.5149,-33.0362)">
					<title>Sheet.2208</title>
					<path d="M0 122.77 A1.87949 1.92152 0 0 1 1.85 120.85 L10.48 120.85 A1.87949 1.92152 0 0 1 12.32 122.77 A1.84868
								 1.89002 0 0 1 10.48 124.69 L1.85 124.69 A1.84868 1.89002 0 0 1 0 122.77 Z" class="st4"/>
				</g>
				<g id="shape2209-17" transform="translate(17.1927,-33.6662)">
					<title>Sheet.2209</title>
					<ellipse cx="1.26327" cy="123.401" rx="1.26327" ry="1.29151" class="st5"/>
				</g>
			</g>
		</g>
	</g>
</svg>
