<?xml version="1.0" encoding="UTF-8" standalone="no"?>
<!DOCTYPE svg PUBLIC "-//W3C//DTD SVG 1.1//EN" "http://www.w3.org/Graphics/SVG/1.1/DTD/svg11.dtd">
<!-- Generated by Microsoft Visio, SVG Export DDOS Protection.svg Page-1 -->
<svg xmlns="http://www.w3.org/2000/svg" xmlns:xlink="http://www.w3.org/1999/xlink" xmlns:ev="http://www.w3.org/2001/xml-events"
		width="0.930551in" height="1.3511in" viewBox="0 0 66.9997 97.2794" xml:space="preserve" color-interpolation-filters="sRGB"
		class="st6">
	<style type="text/css">
	<![CDATA[
		.st1 {fill:#57a300;stroke:none;stroke-linecap:butt;stroke-width:12.24}
		.st2 {fill:#000000;stroke:none;stroke-linecap:butt;stroke-width:12.24}
		.st3 {fill:#88aa00;stroke:none;stroke-linecap:butt;stroke-width:12.24}
		.st4 {fill:#00ff00;stroke:none;stroke-linecap:butt;stroke-width:12.24}
		.st5 {fill:#4d4d4d;stroke:none;stroke-linecap:butt;stroke-width:24.2787}
		.st6 {fill:none;fill-rule:evenodd;font-size:12px;overflow:visible;stroke-linecap:square;stroke-miterlimit:3}
	]]>
	</style>

	<g>
		<title>Page-1</title>
		<g id="group2183-1" transform="translate(12.24,-28.3465)">
			<title>DDOS Protection</title>
			<g id="group2184-2">
				<title>g20</title>
				<g id="shape2185-3">
					<title>path2</title>
					<path d="M36.18 47.34 C23.4 45.97 21.26 40.59 21.26 40.59 C21.26 40.59 18.38 47.66 0 47.66 L0 76.7 C0 80.21 2
								 83.5 4.76 86.38 C11.03 92.89 21.26 97.28 21.26 97.28 C21.26 97.28 42.52 88.18 42.52 76.7 L42.52
								 47.66 C40.16 47.66 38.05 47.55 36.18 47.34 Z" class="st1"/>
				</g>
				<g id="shape2186-5" transform="translate(11.9796,-12.4724)">
					<title>path4</title>
					<path d="M18.56 95.67 C18.56 96.56 17.84 97.28 16.96 97.28 L1.6 97.28 C0.72 97.28 0 96.56 0 95.67 L0 67.14 C0
								 66.25 0.72 65.53 1.6 65.53 L16.96 65.53 C17.84 65.53 18.56 66.25 18.56 67.14 L18.56 95.67 Z"
							class="st2"/>
				</g>
				<g id="shape2187-7" transform="translate(14.6245,-37.0908)">
					<title>path6</title>
					<path d="M0 95.25 C0 94.13 0.9 93.23 2.02 93.23 L11.25 93.23 C12.37 93.23 13.27 94.13 13.27 95.25 C13.27 96.37
								 12.37 97.28 11.25 97.28 L2.02 97.28 C0.9 97.28 0 96.37 0 95.25 Z" class="st2"/>
				</g>
				<g id="shape2188-9" transform="translate(15.3739,-37.7575)">
					<title>ellipse8</title>
					<ellipse cx="1.35375" cy="95.9187" rx="1.35375" ry="1.36063" class="st2"/>
				</g>
				<g id="shape2189-11" transform="translate(14.6245,-31.4215)">
					<title>path10</title>
					<path d="M0 95.25 C0 94.13 0.9 93.23 2.02 93.23 L11.25 93.23 C12.37 93.23 13.27 94.13 13.27 95.25 C13.27 96.37
								 12.37 97.28 11.25 97.28 L2.02 97.28 C0.9 97.28 0 96.37 0 95.25 Z" class="st2"/>
				</g>
				<g id="shape2190-13" transform="translate(15.3739,-32.0882)">
					<title>ellipse12</title>
					<ellipse cx="1.35375" cy="95.9187" rx="1.35375" ry="1.36063" class="st2"/>
				</g>
				<g id="shape2191-15" transform="translate(14.6245,-25.7522)">
					<title>path14</title>
					<path d="M0 95.25 C0 94.13 0.9 93.23 2.02 93.23 L11.25 93.23 C12.37 93.23 13.27 94.13 13.27 95.25 C13.27 96.37
								 12.37 97.28 11.25 97.28 L2.02 97.28 C0.9 97.28 0 96.37 0 95.25 Z" class="st2"/>
				</g>
				<g id="shape2192-17" transform="translate(15.3739,-26.4189)">
					<title>ellipse16</title>
					<ellipse cx="1.35375" cy="95.9187" rx="1.35375" ry="1.36063" class="st2"/>
				</g>
				<g id="shape2193-19" transform="translate(-2.07834E-13,-10.9032)">
					<title>path18</title>
					<path d="M26.52 70.25 L36.18 58.25 C23.4 56.87 21.26 51.49 21.26 51.49 C21.26 51.49 18.38 58.57 0 58.57 L0 87.61
								 C0 91.12 2 94.41 4.76 97.28 L11.9 88.41 L26.52 70.25 Z" class="st3"/>
				</g>
				<g id="shape2194-21" transform="translate(11.9796,-12.4724)">
					<title>path4-0</title>
					<path d="M18.56 95.67 C18.56 96.56 17.84 97.28 16.96 97.28 L1.6 97.28 C0.72 97.28 0 96.56 0 95.67 L0 67.14 C0
								 66.25 0.72 65.53 1.6 65.53 L16.96 65.53 C17.84 65.53 18.56 66.25 18.56 67.14 L18.56 95.67 Z"
							class="st2"/>
				</g>
				<g id="shape2195-23" transform="translate(14.6245,-39.1181)">
					<title>rect45</title>
					<rect x="0" y="94.8771" width="2.45769" height="2.40224" class="st4"/>
				</g>
				<g id="shape2196-25" transform="translate(14.6245,-35.6241)">
					<title>rect45-7</title>
					<rect x="0" y="94.8771" width="2.45769" height="2.40224" class="st4"/>
				</g>
				<g id="shape2197-27" transform="translate(14.6245,-32.13)">
					<title>rect45-7-8</title>
					<rect x="0" y="94.8771" width="2.45769" height="2.40224" class="st4"/>
				</g>
				<g id="shape2198-29" transform="translate(18.1881,-39.1181)">
					<title>rect45-78</title>
					<rect x="0" y="94.8771" width="9.66975" height="2.40224" class="st5"/>
				</g>
				<g id="shape2199-31" transform="translate(18.1881,-35.6241)">
					<title>rect45-7-2</title>
					<rect x="0" y="94.8771" width="9.66975" height="2.40224" class="st5"/>
				</g>
				<g id="shape2200-33" transform="translate(18.1881,-32.13)">
					<title>rect45-7-8-8</title>
					<rect x="0" y="94.8771" width="9.66975" height="2.40224" class="st5"/>
				</g>
			</g>
		</g>
	</g>
</svg>
