<?xml version="1.0" encoding="UTF-8" standalone="no"?>
<!DOCTYPE svg PUBLIC "-//W3C//DTD SVG 1.1//EN" "http://www.w3.org/Graphics/SVG/1.1/DTD/svg11.dtd">
<!-- Generated by Microsoft Visio, SVG Export Deployment.svg Page-1 -->
<svg xmlns="http://www.w3.org/2000/svg" xmlns:xlink="http://www.w3.org/1999/xlink" xmlns:ev="http://www.w3.org/2001/xml-events"
		width="1.1274in" height="1.31173in" viewBox="0 0 81.1729 94.4447" xml:space="preserve" color-interpolation-filters="sRGB"
		class="st2">
	<style type="text/css">
	<![CDATA[
		.st1 {fill:#000000;stroke:none;stroke-linecap:butt;stroke-width:12.24}
		.st2 {fill:none;fill-rule:evenodd;font-size:12px;overflow:visible;stroke-linecap:square;stroke-miterlimit:3}
	]]>
	</style>

	<g>
		<title>Page-1</title>
		<g id="group2174-1" transform="translate(12.24,-28.3465)">
			<title>Deployment</title>
			<g id="group2175-2">
				<title>g8</title>
				<g id="shape2176-3">
					<title>path4</title>
					<path d="M26.73 47.18 L18.9 54.69 L18.9 50.61 L28.34 40.59 L37.8 50.58 L37.8 54.64 L30.01 47.18 L30.01 60.47
								 L26.73 60.47 L26.73 47.18 ZM54.6 65.8 L2.1 65.8 C0.94 65.8 0 66.75 0 67.92 L0 92.32 C0 93.49 0.95
								 94.44 2.1 94.44 L54.59 94.44 C55.75 94.44 56.69 93.49 56.69 92.32 L56.69 67.92 A2.10688 2.12912
								 -180 0 0 54.6 65.8 ZM52.42 89.87 L4.23 89.87 L4.23 70.38 L52.42 70.38 L52.42 89.87 Z" class="st1"/>
				</g>
				<g id="shape2177-5" transform="translate(9.33127,-9.16736)">
					<title>path6</title>
					<path d="M14.08 84.91 L23.52 84.91 L23.52 94.44 L14.08 94.44 L14.08 84.91 ZM28.16 84.91 L37.6 84.91 L37.6 94.44
								 L28.16 94.44 L28.16 84.91 ZM0 84.91 L9.44 84.91 L9.44 94.44 L0 94.44 L0 84.91 Z" class="st1"/>
				</g>
			</g>
		</g>
	</g>
</svg>
