<?xml version="1.0" encoding="UTF-8" standalone="no"?>
<!DOCTYPE svg PUBLIC "-//W3C//DTD SVG 1.1//EN" "http://www.w3.org/Graphics/SVG/1.1/DTD/svg11.dtd">
<!-- Generated by Microsoft Visio, SVG Export Deployment Script.svg Page-1 -->
<svg xmlns="http://www.w3.org/2000/svg" xmlns:xlink="http://www.w3.org/1999/xlink" xmlns:ev="http://www.w3.org/2001/xml-events"
		width="1.73259in" height="1.73185in" viewBox="0 0 124.747 124.693" xml:space="preserve" color-interpolation-filters="sRGB"
		class="st4">
	<style type="text/css">
	<![CDATA[
		.st1 {fill:#0078d4;stroke:none;stroke-linecap:butt;stroke-width:34}
		.st2 {fill:url(#grad0-8);stroke:none;stroke-linecap:butt;stroke-width:34}
		.st3 {fill:#c3f1ff;stroke:none;stroke-linecap:butt;stroke-width:34}
		.st4 {fill:none;fill-rule:evenodd;font-size:12px;overflow:visible;stroke-linecap:square;stroke-miterlimit:3}
	]]>
	</style>

	<defs id="Patterns_And_Gradients">
		<linearGradient id="grad0-8" x1="0" y1="0" x2="1" y2="0" gradientTransform="rotate(90 0.5 0.5)">
			<stop offset="0" stop-color="#5ea0ef" stop-opacity="1"/>
			<stop offset="0.2" stop-color="#5a9eee" stop-opacity="1"/>
			<stop offset="0.41" stop-color="#4d99ea" stop-opacity="1"/>
			<stop offset="0.62" stop-color="#3990e4" stop-opacity="1"/>
			<stop offset="0.835" stop-color="#1c84dc" stop-opacity="1"/>
			<stop offset="1" stop-color="#0078d4" stop-opacity="1"/>
		</linearGradient>
	</defs>
	<g>
		<title>Page-1</title>
		<g id="group2178-1" transform="translate(34.0268,-34)">
			<title>Deployment Script</title>
			<g id="group2179-2">
				<title>deployment-script</title>
				<g id="shape2180-3">
					<title>Sheet.2180</title>
					<path d="M46.79 85.48 L55.69 85.48 A1.02769 1.02677 -180 0 0 56.69 84.22 L53.16 68.8 A1.02769 1.02677 -180 0
								 0 52.15 68 L43.25 68 A1.02769 1.02677 -180 0 0 42.25 69.26 L45.78 84.68 A1.02769 1.02677 -180 0
								 0 46.78 85.48 L46.79 85.48 ZM4.54 124.69 L13.44 124.69 A1.02769 1.02677 -180 0 0 14.44 123.43 L10.91
								 108.01 A1.02769 1.02677 -180 0 0 9.91 107.21 L1.01 107.21 A1.02769 1.02677 -180 0 0 -0 108.47 L3.53
								 123.89 A1.02769 1.02677 -180 0 0 4.54 124.69 Z" class="st1"/>
				</g>
				<g id="shape2181-5" transform="translate(3.78604,1.42109E-14)">
					<title>Sheet.2181</title>
					<path d="M35.87 124.69 L0.92 124.69 a0.945723 0.944882 0 0 1 -0.920503 -1.15591 L12.55 68.73 a0.945723 0.944882
								 0 0 1 0.926808 -0.733858 L48.42 68 a0.945723 0.944882 0 0 1 0.923656 1.15591 L36.79 123.96 a0.945723
								 0.944882 0 0 1 -0.923656 0.733858 L35.87 124.69 Z" class="st2"/>
				</g>
				<g id="shape2182-9" transform="translate(19.5197,-14.6835)">
					<title>Sheet.2182</title>
					<path d="M18.91 111.1 L5.31 95.6 L1.43 99 L11.64 110.62 L0 120.82 L3.4 124.69 L18.91 111.1 Z" class="st3"/>
				</g>
			</g>
		</g>
	</g>
</svg>
