<?xml version="1.0" encoding="UTF-8" standalone="no"?>
<!DOCTYPE svg PUBLIC "-//W3C//DTD SVG 1.1//EN" "http://www.w3.org/Graphics/SVG/1.1/DTD/svg11.dtd">
<!-- Generated by Microsoft Visio, SVG Export Devtest Lab.svg Page-1 -->
<svg xmlns="http://www.w3.org/2000/svg" xmlns:xlink="http://www.w3.org/1999/xlink" xmlns:ev="http://www.w3.org/2001/xml-events"
		width="1.1274in" height="1.3511in" viewBox="0 0 81.1729 97.2794" xml:space="preserve" color-interpolation-filters="sRGB"
		class="st7">
	<style type="text/css">
	<![CDATA[
		.st1 {fill:#0072c6;stroke:none;stroke-linecap:butt;stroke-width:12.24}
		.st2 {fill:#ffffff;fill-opacity:0.098;stroke:none;stroke-linecap:butt;stroke-width:12.24}
		.st3 {fill:#59b4d9;stroke:none;stroke-linecap:butt;stroke-width:12.24}
		.st4 {fill:#804998;stroke:none;stroke-linecap:butt;stroke-width:12.24}
		.st5 {fill:#68217a;stroke:none;stroke-linecap:butt;stroke-width:12.24}
		.st6 {fill:#ffffff;fill-opacity:0.25;stroke:none;stroke-linecap:butt;stroke-width:12.24}
		.st7 {fill:none;fill-rule:evenodd;font-size:12px;overflow:visible;stroke-linecap:square;stroke-miterlimit:3}
	]]>
	</style>

	<g>
		<title>Page-1</title>
		<g id="group2162-1" transform="translate(12.24,-28.3465)">
			<title>Devtest Lab</title>
			<g id="group2163-2">
				<title>Sheet.2163</title>
				<g id="shape2164-3" transform="translate(0,-21.2031)">
					<title>Sheet.2164</title>
					<path d="M56.69 90.7 C56.69 87.07 53.74 84.13 50.12 84.13 L49.32 84.13 C49.78 82.65 49.89 81.07 49.89 79.48 C50
								 69.73 42.07 61.79 32.43 61.79 C24.72 61.79 18.14 66.78 15.87 73.81 C14.63 73.35 13.38 73.13 12.02
								 73.13 C5.33 73.13 0 78.57 0 85.26 C0 91.95 5.33 97.28 11.91 97.28 L50.57 97.28 C54.09 96.94 56.69
								 94.1 56.69 90.7 Z" class="st1"/>
				</g>
				<g id="shape2165-5" transform="translate(0,-21.2031)">
					<title>Sheet.2165</title>
					<path d="M18.37 97.28 C16.78 95.69 15.65 93.65 15.08 91.38 C13.61 84.92 17.57 78.46 24.04 76.98 C25.4 76.64 26.76
								 76.64 28.01 76.76 C28.57 70.63 32.31 65.3 37.76 62.58 C36.06 62.13 34.36 61.79 32.43 61.79 C24.72
								 61.79 18.14 66.78 15.87 73.81 C14.63 73.35 13.38 73.13 12.02 73.13 C5.33 73.13 0 78.57 0 85.26 C0
								 91.95 5.33 97.28 11.91 97.28 L18.37 97.28 Z" class="st2"/>
				</g>
				<g id="shape2166-7" transform="translate(14.5134,0)">
					<title>Sheet.2166</title>
					<path d="M37.98 93.08 L26.08 72.33 L26.08 63.94 L26.31 63.94 C27.78 63.94 28.91 62.81 28.91 61.34 C28.91 59.86
								 27.67 58.73 26.31 58.73 L13.15 58.73 C11.68 58.73 10.54 59.86 10.54 61.34 C10.54 62.81 11.68 63.94
								 13.15 63.94 L13.38 63.94 L13.38 72.33 L1.36 93.08 C0 95.35 1.13 97.28 3.74 97.28 L35.6 97.28 C38.32
								 97.28 39.34 95.47 37.98 93.08 Z" class="st3"/>
				</g>
				<g id="shape2167-9" transform="translate(20.863,-4.53543)">
					<title>Sheet.2167</title>
					<path d="M21.77 88.78 L16.1 88.78 C16.21 89.12 16.33 89.46 16.33 89.8 C16.33 91.16 15.19 92.18 13.95 92.18 C12.7
								 92.18 11.57 91.04 11.57 89.8 C11.57 89.46 11.68 89 11.79 88.78 L4.88 88.78 L0 97.28 L26.76 97.28
								 L21.77 88.78 Z" class="st4"/>
				</g>
				<g id="shape2168-11" transform="translate(32.4283,-9.6378)">
					<title>Sheet.2168</title>
					<path d="M2.38 97.28 C3.74 97.28 4.76 96.15 4.76 94.9 C4.76 94.56 4.65 94.1 4.54 93.88 L0.23 93.88 C0.11 94.22
								 0 94.56 0 94.9 C0 96.26 1.13 97.28 2.38 97.28 Z" class="st5"/>
				</g>
				<g id="shape2169-13" transform="translate(36.737,-6.57638)">
					<title>Sheet.2169</title>
					<ellipse cx="1.13386" cy="96.1455" rx="1.13386" ry="1.13386" class="st5"/>
				</g>
				<g id="shape2170-15" transform="translate(14.6268,0)">
					<title>Sheet.2170</title>
					<path d="M1.25 93.08 L13.27 72.33 L13.27 63.94 L13.04 63.94 C11.57 63.94 10.43 62.81 10.43 61.34 C10.43 59.86
								 11.57 58.73 13.04 58.73 L18.71 58.73 L18.71 72.33 L12.36 97.28 L3.63 97.28 C1.02 97.28 0 95.47 1.25
								 93.08 Z" class="st6"/>
				</g>
			</g>
		</g>
	</g>
</svg>
