<?xml version="1.0" encoding="UTF-8" standalone="no"?>
<!DOCTYPE svg PUBLIC "-//W3C//DTD SVG 1.1//EN" "http://www.w3.org/Graphics/SVG/1.1/DTD/svg11.dtd">
<!-- Generated by Microsoft Visio, SVG Export Diagnostics Setting.svg Page-1 -->
<svg xmlns="http://www.w3.org/2000/svg" xmlns:xlink="http://www.w3.org/1999/xlink" xmlns:ev="http://www.w3.org/2001/xml-events"
		width="1.61376in" height="1.73226in" viewBox="0 0 116.191 124.723" xml:space="preserve" color-interpolation-filters="sRGB"
		class="st6">
	<style type="text/css">
	<![CDATA[
		.st1 {fill:#5e9624;stroke:none;stroke-linecap:butt;stroke-width:34}
		.st2 {fill:#ffffff}
		.st3 {stroke:none;stroke-linecap:butt;stroke-width:34}
		.st4 {fill:url(#grad0-11);stroke:none;stroke-linecap:butt;stroke-width:34}
		.st5 {fill:#ffffff;stroke:none;stroke-linecap:butt;stroke-width:34}
		.st6 {fill:none;fill-rule:evenodd;font-size:12px;overflow:visible;stroke-linecap:square;stroke-miterlimit:3}
	]]>
	</style>

	<defs id="Patterns_And_Gradients">
		<linearGradient id="grad0-11" x1="0" y1="0" x2="1" y2="0" gradientTransform="rotate(-90 0.5 0.5)">
			<stop offset="0" stop-color="#5e9624" stop-opacity="1"/>
			<stop offset="0.31" stop-color="#69a828" stop-opacity="1"/>
			<stop offset="0.93" stop-color="#86d633" stop-opacity="1"/>
		</linearGradient>
	</defs>
	<g>
		<title>Page-1</title>
		<g id="group2156-1" transform="translate(34,-34)">
			<title>Diagnostics Setting</title>
			<g id="group2157-2">
				<title>g10</title>
				<g id="shape2158-3" transform="translate(0,-0.0998701)">
					<title>path2</title>
					<path d="M45.03 68.13 L5.63 68.13 A1.93435 1.89753 -180 0 0 4.14 68.8 L0 73.49 L45.41 118.63 L38.62 124.72 L42.01
								 124.72 A2.40945 2.36359 -180 0 0 43.57 124.16 L47.54 120.59 A2.00222 1.96411 -180 0 0 48.19 119.16
								 L48.19 70.89 A2.74881 2.69649 -180 0 0 45.03 68.13 Z" class="st1"/>
				</g>
				<g id="shape2159-5" transform="translate(3.32572,-2.36359)">
					<title>path4</title>
					<path d="M0 75.72 L2.51 72.92 A1.69679 1.6645 0 0 1 3.7 72.32 L40.62 72.32 A1.76467 1.73108 0 0 1 42.39 74.06
								 L42.39 119.93 A1.76467 1.73108 0 0 1 41.81 121.19 L37.91 124.72 L0 75.72 Z" class="st2"/>
					<path d="M0 75.72 L2.51 72.92 A1.69679 1.6645 0 0 1 3.7 72.32 L40.62 72.32 A1.76467 1.73108 0 0 1 42.39 74.06
								 L42.39 119.93 A1.76467 1.73108 0 0 1 41.81 121.19 L37.91 124.72" class="st3"/>
				</g>
				<g id="shape2160-8" transform="translate(0.0678718,1.42109E-14)">
					<title>path6</title>
					<path d="M40.89 73.32 L0.17 73.32 a0.203615 0.19974 -180 0 0 -0.169679 0.19974 L0 123.46 A1.28956 1.26502 -180
								 0 0 1.29 124.72 L40.89 124.72 A1.28956 1.26502 -180 0 0 42.18 123.46 L42.18 74.62 A1.28956 1.26502
								 -180 0 0 40.89 73.32 Z" class="st4"/>
				</g>
				<g id="shape2161-12" transform="translate(5.294,-18.0432)">
					<title>path8</title>
					<path d="M30.58 110.44 A1.25563 1.23173 -180 0 0 29.32 109.14 L23.04 109.14 a0.542974 0.53264 -180 0 0 -0.509038
								 0.29961 L19.92 114.04 L15.64 105.55 L11.67 117.7 L8.28 109.04 L3.8 117.17 a0.610846 0.59922 0 0
								 1 -0.509038 0.3329 L1.26 117.5 A1.25563 1.23173 -180 0 0 0 118.6 A1.25563 1.23173 -180 0 0 1.26
								 119.96 L4.65 119.96 a0.610846 0.59922 -180 0 0 0.542974 -0.3329 L7.84 114.74 L11.95 124.72 L16.12
								 111.87 L19.78 119.16 L23.89 111.94 a0.542974 0.53264 0 0 1 0.509038 -0.29961 L29.32 111.64 A1.25563
								 1.23173 -180 0 0 30.58 110.44 Z" class="st5"/>
				</g>
			</g>
		</g>
	</g>
</svg>
