<?xml version="1.0" encoding="UTF-8" standalone="no"?>
<!DOCTYPE svg PUBLIC "-//W3C//DTD SVG 1.1//EN" "http://www.w3.org/Graphics/SVG/1.1/DTD/svg11.dtd">
<!-- Generated by Microsoft Visio, SVG Export Disk Encryption Set.svg Page-1 -->
<svg xmlns="http://www.w3.org/2000/svg" xmlns:xlink="http://www.w3.org/1999/xlink" xmlns:ev="http://www.w3.org/2001/xml-events"
		width="1.73185in" height="1.73185in" viewBox="0 0 124.693 124.693" xml:space="preserve" color-interpolation-filters="sRGB"
		class="st7">
	<style type="text/css">
	<![CDATA[
		.st1 {fill:#0078d4;stroke:none;stroke-linecap:butt;stroke-width:34}
		.st2 {fill:#76bc2d;stroke:none;stroke-linecap:butt;stroke-width:34}
		.st3 {fill:url(#grad4-10);stroke:none;stroke-linecap:butt;stroke-width:34}
		.st4 {fill:#005ba1;stroke:none;stroke-linecap:butt;stroke-width:34}
		.st5 {fill:#c3f1ff;fill-opacity:0.75;stroke:none;stroke-linecap:butt;stroke-width:34}
		.st6 {fill:#5e9624;stroke:none;stroke-linecap:butt;stroke-width:34}
		.st7 {fill:none;fill-rule:evenodd;font-size:12px;overflow:visible;stroke-linecap:square;stroke-miterlimit:3}
	]]>
	</style>

	<defs id="Patterns_And_Gradients">
		<radialGradient id="grad4-10" cx="0.5" cy="0" r="1.1">
			<stop offset="0" stop-color="#5ea0ef" stop-opacity="1"/>
			<stop offset="0.11" stop-color="#519aeb" stop-opacity="1"/>
			<stop offset="0.51" stop-color="#2588df" stop-opacity="1"/>
			<stop offset="0.82" stop-color="#0a7cd7" stop-opacity="1"/>
			<stop offset="1" stop-color="#0078d4" stop-opacity="1"/>
		</radialGradient>
	</defs>
	<g>
		<title>Page-1</title>
		<g id="group2142-1" transform="translate(34,-34)">
			<title>Disk Encryption Set</title>
			<g id="group2143-2">
				<title>Sheet.2143</title>
				<g id="shape2144-3">
					<title>Sheet.2144</title>
					<path d="M5.4 68 L12.01 68 L12.01 69.9 L5.4 69.9 L5.4 68 ZM53.76 69.9 L54.83 69.9 L54.83 70.9 L56.66 70.9 L56.66
								 68 L53.76 68 L53.76 69.9 ZM3 122.66 L2.07 122.66 L2.07 121.59 L0 121.59 L0 124.69 L3 124.69 L3 122.69
								 L3 122.66 ZM54.86 121.66 L54.86 122.66 L53.79 122.66 L53.79 124.66 L56.69 124.66 L56.69 121.66 L54.86
								 121.66 ZM2.1 70.87 L2.1 69.87 L3.03 69.87 L3.03 68 L0 68 L0 70.87 L2.1 70.87 ZM15.24 68 L21.81 68
								 L21.81 69.9 L15.24 69.9 L15.24 68 ZM25.01 68 L31.58 68 L31.58 69.9 L25.01 69.9 L25.01 68 ZM34.88
								 68 L41.45 68 L41.45 69.9 L34.88 69.9 L34.88 68 ZM44.69 68 L51.26 68 L51.26 69.9 L44.69 69.9 L44.69
								 68 ZM5.47 122.66 L12.01 122.66 L12.01 124.56 L5.47 124.56 L5.47 122.66 ZM15.27 122.66 L21.84 122.66
								 L21.84 124.56 L15.27 124.56 L15.27 122.66 ZM25.11 122.66 L31.68 122.66 L31.68 124.56 L25.11 124.56
								 L25.11 122.66 ZM34.95 122.66 L41.52 122.66 L41.52 124.56 L34.95 124.56 L34.95 122.66 ZM44.75 122.66
								 L51.32 122.66 L51.32 124.56 L44.75 124.56 L44.75 122.66 ZM54.76 73.17 L56.66 73.17 L56.66 79.73
								 L54.76 79.73 L54.76 73.17 ZM54.76 83 L56.66 83 L56.66 89.56 L54.76 89.56 L54.76 83 ZM54.76 92.8
								 L56.66 92.8 L56.66 99.33 L54.76 99.33 L54.76 92.8 ZM54.76 102.6 L56.66 102.6 L56.66 109.16 L54.76
								 109.16 L54.76 102.6 ZM54.76 112.43 L56.66 112.43 L56.66 118.99 L54.76 118.99 L54.76 112.43 ZM0 73.1
								 L1.9 73.1 L1.9 79.67 L0 79.67 L0 73.1 ZM0 82.93 L1.9 82.93 L1.9 89.5 L0 89.5 L0 82.93 ZM0 92.73
								 L1.9 92.73 L1.9 99.33 L0 99.33 L0 92.73 ZM0 102.56 L1.9 102.56 L1.9 109.13 L0 109.13 L0 102.56 ZM0
								 112.33 L1.9 112.33 L1.9 118.89 L0 118.89 L0 112.33 Z" class="st1"/>
				</g>
				<g id="shape2145-5" transform="translate(7.80361,-17.0312)">
					<title>Sheet.2145</title>
					<path d="M24.88 120.03 A5.00232 4.99938 0 0 1 24.88 112.99 L27.41 110.46 A40.4521 40.4283 -180 0 0 18.51 109.49
								 C8.27 109.49 0 112.83 0 117.09 C0 121.36 8.2 124.69 18.48 124.69 A39.4516 39.4284 -180 0 0 28.25
								 123.36 L24.88 120.03 Z" class="st2"/>
				</g>
				<g id="shape2146-7" transform="translate(7.80361,-33.9291)">
					<title>Sheet.2146</title>
					<ellipse cx="18.4752" cy="117.094" rx="18.4752" ry="7.59905" class="st3"/>
				</g>
				<g id="shape2147-11" transform="translate(20.5762,-39.9617)">
					<title>Sheet.2147</title>
					<ellipse cx="6.13617" cy="123.026" rx="6.13617" ry="1.66646" class="st4"/>
				</g>
				<g id="group2148-13" transform="translate(7.77026,-4.88034)">
					<title>Sheet.2148</title>
					<g id="shape2149-14" transform="translate(24.9581,0)">
						<title>Sheet.2149</title>
						<path d="M17.56 106.71 A3.33488 3.33292 -180 0 0 17.56 101.91 L11.69 96.01 A3.33488 3.33292 -180 0 0 6.89
									 96.01 L1.02 101.88 A3.33488 3.33292 -180 0 0 1.02 106.68 L5.92 111.68 A1.06716 1.06653 0 0 1
									 6.19 112.34 L6.19 121.44 A1.16721 1.16652 -180 0 0 6.52 122.24 L8.76 124.47 a0.800371 0.7999
									 -180 0 0 1.10051 0 L13.26 121.07 a0.466883 0.466608 -180 0 0 7.10543E-15 -0.633254 L12.26 119.51
									 a0.433534 0.433279 0 0 1 -2.84217E-14 -0.666583 L13.16 117.91 a0.466883 0.466608 -180 0 0 1.95399E-14
									 -0.633254 L12.26 116.37 a0.466883 0.466608 0 0 1 3.55271E-15 -0.699913 L13.16 114.78 a0.466883
									 0.466608 -180 0 0 1.77636E-15 -0.633254 L11.89 112.81 L11.89 112.38 L17.56 106.71 ZM9.29 97.44
									 A1.93423 1.93309 0 1 1 9.29 101.21 A1.93423 1.93309 0 0 1 9.29 97.34 L9.29 97.44 Z"
								class="st1"/>
					</g>
					<g id="shape2150-16" transform="translate(2.15827E-13,-25.0159)">
						<title>Sheet.2150</title>
						<path d="M30.75 119.89 A4.96897 4.96605 0 0 1 34.08 118.43 A5.30245 5.29934 0 0 1 36.25 118.93 A4.00185 3.9995
									 -180 0 0 36.82 117.33 L36.82 112.89 C36.82 117.06 28.55 120.46 18.34 120.46 C8.14 120.46 0 117.13
									 0 112.89 L0 117.09 C0 121.29 8.27 124.69 18.51 124.69 A42.1862 42.1614 -180 0 0 26.78 123.89
									 L30.75 119.89 Z" class="st1"/>
					</g>
				</g>
				<g id="group2151-18" transform="translate(37.3506,-7.91171)">
					<title>Sheet.2151</title>
					<g id="shape2152-19" transform="translate(2.97011,0)">
						<title>Sheet.2152</title>
						<path d="M0.2 124.57 a0.433534 0.433279 -180 0 0 0.600278 0 a0.366836 0.366621 -180 0 0 -3.33067E-16 -0.266633
									 L0.8 116.81 a0.566929 0.566596 -180 0 0 -0.200093 -0.366621 a0.433534 0.433279 -180 0 0 -0.566929
									 -1.42109E-14 a0.233441 0.233304 -180 0 0 9.71445E-16 0.233304 L0.03 124.24 a0.366836 0.366621
									 -180 0 0 0.166744 0.333292 Z" class="st5"/>
					</g>
					<g id="shape2153-21" transform="translate(0,-16.6852)">
						<title>Sheet.2153</title>
						<path d="M0 124.16 a0.533593 0.533279 -180 0 0 0.53358 0.533267 L9.1 124.69 a0.533593 0.533279 -180 0 0 0.53358
									 -0.533267 L9.64 124.09 a0.533593 0.533279 -180 0 0 -0.53358 -0.533267 L0.53 123.56 a0.533593
									 0.533279 -180 0 0 -0.53358 0.533267 L0 124.16 Z" class="st5"/>
					</g>
					<g id="shape2154-23" transform="translate(0,-14.8188)">
						<title>Sheet.2154</title>
						<path d="M0 124.16 a0.533593 0.533279 -180 0 0 0.53358 0.533267 L9.1 124.69 a0.533593 0.533279 -180 0 0 0.53358
									 -0.533267 L9.64 124.09 a0.533593 0.533279 -180 0 0 -0.53358 -0.533267 L0.53 123.56 a0.533593
									 0.533279 -180 0 0 -0.53358 0.533267 L0 124.16 Z" class="st5"/>
					</g>
				</g>
				<g id="shape2155-25" transform="translate(7.77026,-12.9984)">
					<title>Sheet.2155</title>
					<path d="M29.58 120.73 L28.18 119.33 A40.7189 40.6949 0 0 1 18.51 120.46 C8.27 120.46 0 117.13 0 112.86 L0 117.09
								 C0 121.29 8.27 124.69 18.51 124.69 A39.0848 39.0618 -180 0 0 29.58 123.16 L29.58 120.73 ZM23.48
								 111.79 A16.3742 16.3646 -180 0 0 18.94 111.23 C15.61 111.23 12.81 111.99 12.81 112.89 C12.81 113.79
								 15.57 114.56 18.94 114.56 A16.3075 16.298 -180 0 0 23.71 113.93 A5.30245 5.29934 0 0 1 23.48 111.76
								 L23.48 111.79 Z" class="st6"/>
				</g>
			</g>
		</g>
	</g>
</svg>
