<?xml version="1.0" encoding="UTF-8" standalone="no"?>
<!DOCTYPE svg PUBLIC "-//W3C//DTD SVG 1.1//EN" "http://www.w3.org/Graphics/SVG/1.1/DTD/svg11.dtd">
<!-- Generated by Microsoft Visio, SVG Export DNS Zone.svg Page-1 -->
<svg xmlns="http://www.w3.org/2000/svg" xmlns:xlink="http://www.w3.org/1999/xlink" xmlns:ev="http://www.w3.org/2001/xml-events"
		width="1.64572in" height="1.64572in" viewBox="0 0 118.492 118.492" xml:space="preserve" color-interpolation-filters="sRGB"
		class="st4">
	<style type="text/css">
	<![CDATA[
		.st1 {fill:url(#grad7-6);stroke:none;stroke-linecap:butt;stroke-width:0.696362}
		.st2 {fill:#5ea0ef;stroke:none;stroke-linecap:butt;stroke-width:33.5821}
		.st3 {fill:#ffffff;stroke:none;stroke-linecap:butt;stroke-width:33.5821}
		.st4 {fill:none;fill-rule:evenodd;font-size:12px;overflow:visible;stroke-linecap:square;stroke-miterlimit:3}
	]]>
	</style>

	<defs id="Patterns_And_Gradients">
		<radialGradient id="grad7-6" cx="0" cy="0" r="1.4">
			<stop offset="0.18" stop-color="#5ea0ef" stop-opacity="1"/>
			<stop offset="1" stop-color="#0078d4" stop-opacity="1"/>
		</radialGradient>
	</defs>
	<g>
		<title>Page-1</title>
		<g id="group2137-1" transform="translate(30.7111,-31.0875)">
			<title>DNS Zone</title>
			<g id="group2138-2">
				<title>layer1</title>
				<g id="shape2139-3">
					<title>path822</title>
					<ellipse cx="28.3465" cy="90.1451" rx="28.3465" ry="28.3465" class="st1"/>
				</g>
				<g id="shape2140-7" transform="translate(4.11147,-3.92906)">
					<title>path11-4</title>
					<path d="M24.42 68.6 A25.6637 25.6637 -180 1 0 50.09 94.26 A25.6971 25.6971 -180 0 0 24.42 68.6 ZM41.61 77.24
								 A24.5958 24.5958 0 0 1 34.43 79.91 A29.4682 29.4682 -180 0 0 30.26 70.9 A24.0284 24.0284 0 0 1 41.61
								 77.24 ZM24.42 70.03 A21.9927 21.9927 0 0 1 28.06 70.33 A24.9629 24.9629 0 0 1 33.17 80.35 A50.4597
								 50.4597 0 0 1 14.98 80.35 A24.6291 24.6291 0 0 1 20.02 70.53 A24.4957 24.4957 0 0 1 24.42 70.03
								 L24.42 70.03 ZM17.75 70.9 A29.1011 29.1011 -180 0 0 13.51 79.85 A18.622 18.622 0 0 1 7.17 77.28
								 A24.529 24.529 0 0 1 17.75 70.9 ZM6.8 110.95 A17.5875 17.5875 0 0 1 12.74 108.41 A23.628 23.628
								 -180 0 0 17.25 117.49 A24.1953 24.1953 0 0 1 6.8 110.95 ZM28.19 118.29 A23.628 23.628 0 0 1 24.42
								 118.49 A22.7936 22.7936 0 0 1 19.62 117.99 A20.0237 20.0237 0 0 1 14.04 107.98 A49.1582 49.1582
								 0 0 1 33.67 107.98 A20.0237 20.0237 0 0 1 28.03 117.99 L28.19 118.29 ZM30.63 117.76 A23.7948 23.7948
								 -180 0 0 35.24 108.41 A22.293 22.293 0 0 1 41.91 111.18 A23.7948 23.7948 0 0 1 30.63 117.62 L30.63
								 117.76 ZM35.57 107.01 C35.84 105.81 36.07 104.58 36.24 103.27 L34.7 103.64 C34.54 104.67 34.37 105.71
								 34.13 106.68 A50.8268 50.8268 -180 0 0 13.81 106.68 C13.58 105.78 13.41 104.81 13.24 103.81 a0.934439
								 0.934439 0 0 1 0 -0.300203 L11.71 103.07 A7.87599 7.87599 -180 0 0 11.71 104.01 C11.71 105.08 12.07
								 106.08 12.27 107.05 A19.69 19.69 -180 0 0 5.6 109.88 A24.1619 24.1619 0 0 1 5.97 78.51 A20.9915
								 20.9915 -180 0 0 12.91 81.38 C12.68 82.18 12.48 83.05 12.31 83.92 C12.14 84.79 12.31 84.75 12.04
								 85.15 L13.61 84.79 L13.61 84.22 C13.81 83.35 14.01 82.52 14.24 81.71 A49.6921 49.6921 -180 0 0 24.42
								 82.52 A50.0592 50.0592 -180 0 0 33.7 81.65 C33.93 82.55 34.17 83.52 34.37 84.48 L35.9 84.85 C35.66
								 83.65 35.39 82.54 35.1 81.51 A25.7972 25.7972 -180 0 0 42.78 78.48 A24.0952 24.0952 0 0 1 42.98
								 110.15 A24.2954 24.2954 -180 0 0 35.57 106.91 L35.57 107.01 Z" class="st2"/>
				</g>
				<g id="shape2141-9" transform="translate(9.34963,-21.0513)">
					<title>path13-4</title>
					<path d="M0.03 104.58 A26.4313 26.4313 0 0 1 3.9 104.31 A8.14297 8.14297 0 0 1 9.61 106.04 A6.67456 6.67456 0
								 0 1 11.58 110.92 A7.37539 7.37539 0 0 1 9.54 116.39 A8.67693 8.67693 0 0 1 3.34 118.42 A30.6029
								 30.6029 0 0 1 -0 118.26 L0.03 104.58 ZM1.87 117.02 A13.3491 13.3491 -180 0 0 3.7 117.02 A5.4064
								 5.4064 -180 0 0 9.68 110.98 A5.00592 5.00592 -180 0 0 3.97 105.58 A10.5792 10.5792 -180 0 0 1.87
								 105.58 L1.87 117.02 ZM13.95 118.29 L13.95 104.24 L15.92 104.24 L20.42 111.25 A40.6481 40.6481 0
								 0 1 22.96 115.82 C22.79 113.95 22.76 112.25 22.76 110.05 L22.76 104.24 L24.43 104.24 L24.43 118.29
								 L22.59 118.29 L18.19 111.25 C17.22 109.68 16.29 107.91 15.55 106.58 L15.55 118.39 L13.95 118.29
								 ZM27.4 116.09 A6.67456 6.67456 -180 0 0 30.74 116.99 C32.61 116.99 33.67 116.02 33.67 114.59 C33.67
								 113.15 32.94 112.52 31.04 111.82 C29.13 111.12 27.3 109.81 27.3 107.81 A4.07148 4.07148 0 0 1 31.87
								 104.01 A6.67456 6.67456 0 0 1 34.97 104.67 L34.44 106.18 A5.43977 5.43977 -180 0 0 31.77 105.51
								 C29.84 105.51 29.1 106.64 29.1 107.61 C29.1 108.58 29.97 109.58 31.9 110.32 C33.84 111.05 35.51
								 112.38 35.51 114.45 C35.51 116.52 33.91 118.49 30.57 118.49 A7.20853 7.20853 0 0 1 27 117.59 L27.4
								 116.09 Z" class="st3"/>
				</g>
			</g>
		</g>
	</g>
</svg>
