<?xml version="1.0" encoding="UTF-8" standalone="no"?>
<!DOCTYPE svg PUBLIC "-//W3C//DTD SVG 1.1//EN" "http://www.w3.org/Graphics/SVG/1.1/DTD/svg11.dtd">
<!-- Generated by Microsoft Visio, SVG Export Ebook.svg Page-1 -->
<svg xmlns="http://www.w3.org/2000/svg" xmlns:xlink="http://www.w3.org/1999/xlink" xmlns:ev="http://www.w3.org/2001/xml-events"
		width="1.1274in" height="1.23299in" viewBox="0 0 81.1729 88.7754" xml:space="preserve" color-interpolation-filters="sRGB"
		class="st6">
	<style type="text/css">
	<![CDATA[
		.st1 {fill:#0072c6;stroke:none;stroke-linecap:butt;stroke-width:12.24}
		.st2 {fill:#e5e5e5;stroke:none;stroke-linecap:butt;stroke-width:12.24}
		.st3 {fill:#7a7a7a;stroke:none;stroke-linecap:butt;stroke-width:12.24}
		.st4 {fill:#ffffff;fill-opacity:0.2;stroke:none;stroke-linecap:butt;stroke-width:12.24}
		.st5 {fill:#231f20;fill-opacity:0.4;stroke:none;stroke-linecap:butt;stroke-width:12.24}
		.st6 {fill:none;fill-rule:evenodd;font-size:12px;overflow:visible;stroke-linecap:square;stroke-miterlimit:3}
	]]>
	</style>

	<g>
		<title>Page-1</title>
		<g id="group2128-1" transform="translate(12.24,-28.3465)">
			<title>Ebook</title>
			<g id="group2129-2">
				<title>g18</title>
				<g id="shape2130-3">
					<title>path4</title>
					<path d="M0 44.18 L0 85.06 A1.20623 1.23879 -180 0 0 1.21 86.3 L16.89 86.3 C21.66 86.3 23.32 87.61 23.87 88.32
								 C24.09 88.61 24.43 88.78 24.8 88.78 L31.9 88.78 C32.26 88.78 32.6 88.61 32.83 88.32 C33.38 87.61
								 35.03 86.3 39.81 86.3 L55.49 86.3 A1.20623 1.23879 -180 0 0 56.69 85.06 L56.69 44.18 A1.20623 1.23879
								 -180 0 0 55.49 42.94 L1.21 42.94 A1.20623 1.23879 -180 0 0 0 44.18 Z" class="st1"/>
				</g>
				<g id="shape2131-5" transform="translate(4.82493,-6.19396)">
					<title>path6</title>
					<rect x="0" y="52.8505" width="47.0431" height="35.9249" class="st2"/>
				</g>
				<g id="shape2132-7" transform="translate(2.41246,-5.91647)">
					<title>path8</title>
					<path d="M51.44 51.55 C51.2 51.35 45.52 46.5 36.96 46.5 C30.1 46.5 27.04 50.28 25.93 52.18 C24.83 50.28 21.76
								 46.5 14.91 46.5 C6.35 46.5 0.67 51.35 0.43 51.55 L0 51.92 L0 88.78 L51.87 88.78 L51.87 51.92 L51.44
								 51.55 Z" class="st3"/>
				</g>
				<g id="shape2133-9" transform="translate(3.6187,-6.19396)">
					<title>path10</title>
					<path d="M13.84 48.02 C5.54 48.02 0 52.78 0 52.78 L0 87.54 C0 87.54 7.44 85.99 13.92 85.99 C19.14 85.99 24.37
								 88.78 24.37 88.78 L24.37 53.95 C24.37 53.95 22.14 48.02 13.84 48.02 ZM35.62 48.02 C43.92 48.02 49.46
								 52.78 49.46 52.78 L49.46 87.54 C49.46 87.54 42.01 85.99 35.53 85.99 C30.31 85.99 25.09 88.78 25.09
								 88.78 L25.09 53.95 C25.09 53.95 27.31 48.02 35.62 48.02 Z" class="st2"/>
				</g>
				<g id="shape2134-11" transform="translate(4.82493,-8.11904)">
					<title>path12</title>
					<path d="M9.65 51.39 C4.73 52.1 1.18 54.44 0 55.31 L0 87.97 C1.99 87.61 5.75 87.01 9.65 86.78 L9.65 51.39 ZM34.98
								 51.2 C34.84 51.19 34.69 51.18 34.55 51.18 C28.02 51.18 25.76 55.21 25.33 56.13 L25.33 88.78 C27.37
								 87.91 30.89 86.68 34.46 86.68 C34.63 86.68 34.81 86.69 34.98 86.69 L34.98 51.2 Z" class="st4"/>
				</g>
				<g id="shape2135-13" transform="translate(6.03116,-12.6617)">
					<title>path14</title>
					<path d="M0 62.08 A22.9281 23.5469 0 0 1 11.29 59.51 C15.05 59.65 17.6 60.93 19.3 62.34 L19.3 64 C17.83 62.5
								 15.33 60.9 11.29 60.75 C6.26 60.55 2.26 62.25 0 63.52 L0 62.08 ZM0 67.03 A22.9281 23.5469 0 0 1
								 11.29 64.46 C15.05 64.61 17.6 65.89 19.3 67.29 L19.3 68.95 C17.83 67.46 15.33 65.86 11.29 65.7 C6.26
								 65.5 2.26 67.2 0 68.47 L0 67.03 ZM0 71.99 A22.9281 23.5469 0 0 1 11.29 69.42 C15.05 69.56 17.6 70.84
								 19.3 72.25 L19.3 73.91 C17.83 72.41 15.33 70.81 11.29 70.66 C6.26 70.46 2.26 72.16 0 73.43 L0 71.99
								 ZM-0 76.94 A22.9281 23.5469 0 0 1 11.29 74.37 C15.05 74.52 17.6 75.8 19.3 77.2 L19.3 78.87 C17.83
								 77.37 15.33 75.77 11.29 75.61 C6.26 75.41 2.26 77.11 0 78.38 L0 76.94 ZM-0 81.9 A22.9281 23.5469
								 0 0 1 11.29 79.33 C15.05 79.47 17.6 80.75 19.3 82.16 L19.3 83.82 C17.83 82.32 15.33 80.72 11.29
								 80.57 C6.26 80.37 2.26 82.07 0 83.34 L0 81.9 ZM-0 86.85 A22.9281 23.5469 0 0 1 11.29 84.28 C15.05
								 84.43 17.6 85.71 19.3 87.11 L19.3 88.78 C17.83 87.28 15.33 85.68 11.29 85.52 C6.26 85.32 2.26 87.02
								 0 88.29 L0 86.85 ZM44.63 62.08 A22.9281 23.5469 -180 0 0 33.34 59.51 C29.59 59.65 27.03 60.93 25.33
								 62.34 L25.33 64 C26.8 62.5 29.3 60.9 33.34 60.75 C38.37 60.55 42.37 62.25 44.63 63.52 L44.63 62.08
								 ZM44.63 67.03 A22.9281 23.5469 -180 0 0 33.34 64.46 C29.59 64.61 27.03 65.89 25.33 67.29 L25.33
								 68.95 C26.8 67.46 29.3 65.86 33.34 65.7 C38.37 65.5 42.37 67.2 44.63 68.47 L44.63 67.03 ZM44.63
								 71.99 A22.9281 23.5469 -180 0 0 33.34 69.42 C29.59 69.56 27.03 70.84 25.33 72.25 L25.33 73.91 C26.8
								 72.41 29.3 70.81 33.34 70.66 C38.37 70.46 42.37 72.16 44.63 73.43 L44.63 71.99 ZM44.63 76.94 A22.9281
								 23.5469 -180 0 0 33.34 74.37 C29.59 74.52 27.03 75.8 25.33 77.2 L25.33 78.87 C26.8 77.37 29.3 75.77
								 33.34 75.61 C38.37 75.41 42.37 77.11 44.63 78.38 L44.63 76.94 ZM41.01 80.38 C39.13 79.89 35.76 79.23
								 33.34 79.33 C29.59 79.47 27.03 80.75 25.33 82.16 L25.33 83.82 C26.8 82.32 29.3 80.72 33.34 80.57
								 A21.3177 21.8932 0 0 1 39.81 81.35 L41.01 80.38 Z" class="st5"/>
				</g>
				<g id="shape2136-15" transform="translate(4.82493,-8.11904)">
					<title>path16</title>
					<path d="M9.65 51.39 C4.73 52.1 1.18 54.44 0 55.31 L0 87.97 C1.99 87.61 5.75 87.01 9.65 86.78 L9.65 51.39 ZM34.98
								 51.2 C34.84 51.19 34.69 51.18 34.55 51.18 C28.02 51.18 25.76 55.21 25.33 56.13 L25.33 88.78 C27.37
								 87.91 30.89 86.68 34.46 86.68 C34.63 86.68 34.81 86.69 34.98 86.69 L34.98 51.2 Z" class="st4"/>
				</g>
			</g>
		</g>
	</g>
</svg>
