<?xml version="1.0" encoding="UTF-8" standalone="no"?>
<!DOCTYPE svg PUBLIC "-//W3C//DTD SVG 1.1//EN" "http://www.w3.org/Graphics/SVG/1.1/DTD/svg11.dtd">
<!-- Generated by Microsoft Visio, SVG Export Education.svg Page-1 -->
<svg xmlns="http://www.w3.org/2000/svg" xmlns:xlink="http://www.w3.org/1999/xlink" xmlns:ev="http://www.w3.org/2001/xml-events"
		width="0.944882in" height="1.08661in" viewBox="0 0 68.0315 78.2362" xml:space="preserve" color-interpolation-filters="sRGB"
		class="st5">
	<style type="text/css">
	<![CDATA[
		.st1 {fill:#773adc;stroke:none;stroke-linecap:butt;stroke-width:1.73864}
		.st2 {fill:url(#grad0-8);stroke:none;stroke-linecap:butt;stroke-width:1.73864}
		.st3 {fill:#50e6ff;stroke:none;stroke-linecap:butt;stroke-width:1.73864}
		.st4 {fill:#552f99;stroke:none;stroke-linecap:butt;stroke-width:1.73864}
		.st5 {fill:none;fill-rule:evenodd;font-size:12px;overflow:visible;stroke-linecap:square;stroke-miterlimit:3}
	]]>
	</style>

	<defs id="Patterns_And_Gradients">
		<linearGradient id="grad0-8" x1="0" y1="0" x2="1" y2="0" gradientTransform="rotate(90 0.5 0.5)">
			<stop offset="0.13" stop-color="#773adc" stop-opacity="1"/>
			<stop offset="0.23" stop-color="#8249e2" stop-opacity="1"/>
			<stop offset="0.43" stop-color="#9664ec" stop-opacity="1"/>
			<stop offset="0.6" stop-color="#a274f2" stop-opacity="1"/>
			<stop offset="0.74" stop-color="#a67af4" stop-opacity="1"/>
		</linearGradient>
	</defs>
	<g>
		<title>Page-1</title>
		<g id="group2122-1" transform="translate(5.66929,-28.3465)">
			<title>Education</title>
			<g id="group2123-2">
				<title>Sheet.2123</title>
				<g id="shape2124-3" transform="translate(11.4407,0)">
					<title>Sheet.2124</title>
					<path d="M34.21 54.9 L0 54.9 L0 70.75 C0 74.87 7.66 78.24 17.28 78.24 C26.91 78.24 34.56 74.97 34.56 70.75 L34.21
								 54.9 Z" class="st1"/>
				</g>
				<g id="shape2125-5" transform="translate(0,-16.0657)">
					<title>Sheet.2125</title>
					<path d="M26.4 49.26 L0.99 62.63 A2.25555 2.32071 -180 0 0 0.19 65.7 A1.96946 2.02635 -180 0 0 0.99 66.62 L26.4
								 77.99 A2.95549 3.04086 -180 0 0 28.72 77.99 L55.66 66.55 A2.28693 2.35299 -180 0 0 56.55 63.48 A2.00165
								 2.05947 -180 0 0 55.66 62.5 L28.79 49.2 A2.73215 2.81107 -180 0 0 26.4 49.26 L26.4 49.26 Z"
							class="st2"/>
				</g>
				<g id="shape2126-9" transform="translate(26.7528,-10.8511)">
					<title>Sheet.2126</title>
					<path d="M23.32 70.33 A4.0041 4.11977 -180 0 0 22.59 68.63 A16.4883 16.9646 -180 0 0 14.58 61.34 L3.53 56.6 L0
								 59.18 L11.12 64.05 A16.0426 16.506 0 0 1 19.76 72.75 A25.0195 25.7423 0 0 1 20.65 78.24 L23.32 70.33
								 ZM21.16 78.24 L22.49 75.52 L24.18 77.75 L24.49 77.75 A15.8841 16.343 -180 0 0 23.29 70.33 L21.16
								 78.24 Z" class="st3"/>
				</g>
				<g id="shape2127-11" transform="translate(23.8934,-28.7625)">
					<title>Sheet.2127</title>
					<path d="M4.26 78.24 C6.61 78.24 8.51 77.24 8.51 76.01 C8.51 74.79 6.61 73.79 4.26 73.79 C1.91 73.79 0 74.79
								 0 76.01 C0 77.24 1.91 78.24 4.26 78.24 Z" class="st4"/>
				</g>
			</g>
		</g>
	</g>
</svg>
