<?xml version="1.0" encoding="UTF-8" standalone="no"?>
<!DOCTYPE svg PUBLIC "-//W3C//DTD SVG 1.1//EN" "http://www.w3.org/Graphics/SVG/1.1/DTD/svg11.dtd">
<!-- Generated by Microsoft Visio, SVG Export Endpoint Security.svg Page-1 -->
<svg xmlns="http://www.w3.org/2000/svg" xmlns:xlink="http://www.w3.org/1999/xlink" xmlns:ev="http://www.w3.org/2001/xml-events"
		width="1.73185in" height="1.73185in" viewBox="0 0 124.693 124.693" xml:space="preserve" color-interpolation-filters="sRGB"
		class="st6">
	<style type="text/css">
	<![CDATA[
		.st1 {fill:#5ea0ef;stroke:none;stroke-linecap:butt;stroke-width:34}
		.st2 {fill:#60b0ef;stroke:none;stroke-linecap:butt;stroke-width:34}
		.st3 {fill:url(#grad0-10);stroke:none;stroke-linecap:butt;stroke-width:34}
		.st4 {fill:#0078d4;stroke:none;stroke-linecap:butt;stroke-width:34}
		.st5 {fill:#949494;stroke:none;stroke-linecap:butt;stroke-width:34}
		.st6 {fill:none;fill-rule:evenodd;font-size:12px;overflow:visible;stroke-linecap:square;stroke-miterlimit:3}
	]]>
	</style>

	<defs id="Patterns_And_Gradients">
		<linearGradient id="grad0-10" x1="0" y1="0" x2="1" y2="0" gradientTransform="rotate(90 0.5 0.5)">
			<stop offset="0.18" stop-color="#5ea0ef" stop-opacity="1"/>
			<stop offset="1" stop-color="#0078d4" stop-opacity="1"/>
		</linearGradient>
	</defs>
	<g>
		<title>Page-1</title>
		<g id="group2103-1" transform="translate(34,-34)">
			<title>Endpoint Security</title>
			<g id="group2104-2">
				<title>Sheet.2104</title>
				<g id="shape2105-3" transform="translate(0,-2.90048)">
					<title>Sheet.2105</title>
					<path d="M44.27 96.13 C44.27 110.57 26.69 122.17 22.88 124.5 A1.49359 1.48196 0 0 1 21.42 124.5 C17.57 122.14
								 0 110.54 0 96.13 L0 78.72 A1.39826 1.38737 0 0 1 1.37 77.36 C15.03 76.99 11.85 70.9 22.02 70.9 C32.19
								 70.9 29.11 76.89 42.81 77.21 A1.39826 1.38737 0 0 1 44.14 78.56 L44.27 96.13 Z" class="st1"/>
				</g>
				<g id="shape2106-5" transform="translate(1.84316,-5.23555)">
					<title>Sheet.2106</title>
					<path d="M40.58 98.46 C40.58 111.7 24.44 122.33 20.94 124.51 A1.27114 1.26124 0 0 1 19.61 124.51 C16.11 122.42
								 0 111.8 0 98.46 L0 82.69 A1.23936 1.22971 0 0 1 1.11 81.4 C13.82 81.06 10.87 75.6 20.18 75.6 C29.49
								 75.6 26.69 81.06 39.25 81.4 A1.27114 1.26124 0 0 1 40.52 82.66 L40.58 98.46 Z" class="st2"/>
				</g>
				<g id="shape2107-7" transform="translate(1.90671,-5.13957)">
					<title>Sheet.2107</title>
					<path d="M20.12 100.1 L20.12 75.5 C29.65 75.5 26.63 80.96 39.18 81.31 A1.30292 1.29277 0 0 1 40.45 82.57 L40.45
								 99.94 L20.12 100.1 ZM20.12 100.1 L0 100.1 C1.27 112.71 16.21 122.49 19.54 124.54 A1.08047 1.07206
								 -180 0 0 20.08 124.69 L20.12 124.69 L20.12 100.1 Z" class="st3"/>
				</g>
				<g id="shape2108-11" transform="translate(1.90671,-5.13957)">
					<title>Sheet.2108</title>
					<path d="M1.05 81.34 C13.76 80.96 10.8 75.5 20.12 75.5 L20.12 100.1 L0 100.1 L0 82.6 A1.27114 1.26124 0 0 1 1.05
								 81.31 L1.05 81.34 ZM40.45 100.1 L20.12 100.1 L20.12 124.69 A1.08047 1.07206 -180 0 0 20.66 124.54
								 C24.25 122.45 39.18 112.55 40.42 100.1 L40.45 100.1 Z" class="st4"/>
				</g>
				<g id="shape2109-13" transform="translate(28.41,1.42109E-14)">
					<title>Sheet.2109</title>
					<path d="M16.27 124.13 L17.32 120.72 L19.32 119.55 L22.82 121.07 L25.04 118.8 L25.04 118.45 L23.45 115.3 L24.41
								 113.15 L27.9 111.89 L28.28 111.73 L28.28 108.58 L27.84 108.58 L24.41 107.54 L23.26 105.55 L24.76
								 102.09 L22.47 99.88 L22.21 99.88 L19.04 101.45 L16.81 100.51 L15.41 96.66 L12.23 96.66 L12.08 97.1
								 L11.03 100.51 L8.8 101.45 L5.05 99.75 L2.83 102.02 L3.05 102.43 L4.7 105.59 L3.81 107.79 L0 109.21
								 L0 112.36 L0.44 112.52 L3.88 113.56 L4.83 115.77 L3.15 119.4 L5.47 121.6 L5.88 121.38 L9.06 119.71
								 L11.28 120.59 L12.93 124.69 L16.11 124.69 L16.27 124.13 ZM11.09 113.94 A4.60789 4.57201 0 1 1 17.45
								 113.94 A4.57611 4.54048 0 0 1 11.09 113.94 Z" class="st5"/>
				</g>
			</g>
		</g>
	</g>
</svg>
