<?xml version="1.0" encoding="UTF-8" standalone="no"?>
<!DOCTYPE svg PUBLIC "-//W3C//DTD SVG 1.1//EN" "http://www.w3.org/Graphics/SVG/1.1/DTD/svg11.dtd">
<!-- Generated by Microsoft Visio, SVG Export Event Grid Domain.svg Page-1 -->
<svg xmlns="http://www.w3.org/2000/svg" xmlns:xlink="http://www.w3.org/1999/xlink" xmlns:ev="http://www.w3.org/2001/xml-events"
		width="1.73192in" height="1.65311in" viewBox="0 0 124.698 119.024" xml:space="preserve" color-interpolation-filters="sRGB"
		class="st5">
	<style type="text/css">
	<![CDATA[
		.st1 {fill:#949494;stroke:none;stroke-linecap:butt;stroke-width:34}
		.st2 {fill:url(#grad0-8);stroke:none;stroke-linecap:butt;stroke-width:34}
		.st3 {fill:#999999;stroke:none;stroke-linecap:butt;stroke-width:34}
		.st4 {fill:#999999;fill-opacity:0.5;stroke:none;stroke-linecap:butt;stroke-width:34}
		.st5 {fill:none;fill-rule:evenodd;font-size:12px;overflow:visible;stroke-linecap:square;stroke-miterlimit:3}
	]]>
	</style>

	<defs id="Patterns_And_Gradients">
		<linearGradient id="grad0-8" x1="0" y1="0" x2="1" y2="0" gradientTransform="rotate(-88.484441664842 0.5 0.5)">
			<stop offset="0" stop-color="#198ab3" stop-opacity="1"/>
			<stop offset="0" stop-color="#198ab3" stop-opacity="1"/>
			<stop offset="0.11" stop-color="#22a5cb" stop-opacity="1"/>
			<stop offset="0.23" stop-color="#29bade" stop-opacity="1"/>
			<stop offset="0.37" stop-color="#2ec9eb" stop-opacity="1"/>
			<stop offset="0.53" stop-color="#31d1f3" stop-opacity="1"/>
			<stop offset="0.78" stop-color="#32d4f5" stop-opacity="1"/>
		</linearGradient>
	</defs>
	<g>
		<title>Page-1</title>
		<g id="group2080-1" transform="translate(34.0052,-34)">
			<title>Event Grid Domain</title>
			<g id="group2081-2">
				<title>Icon-iot-183</title>
				<g id="shape2082-3" transform="translate(8.87077,-16.3451)">
					<title>Sheet.2082</title>
					<path d="M36.02 107.36 L13.21 107.36 L19.64 100.82 L30.41 100.82 L30.41 98.3 L18.61 98.3 L9.67 107.36 L0 107.36
								 L0 109.89 L1.73 109.89 L10.7 119.02 L24.08 119.02 L24.08 116.5 L11.74 116.5 L5.24 109.89 L36.02
								 109.89 L36.02 107.36 Z" class="st1"/>
				</g>
				<g id="shape2083-5" transform="translate(30.1473,-14.5397)">
					<title>Sheet.2083</title>
					<path d="M5.17 93.43 A4.30199 4.34746 0 1 1 0.87 97.74 A4.26864 4.31375 0 0 1 5.17 93.43 ZM9.07 106.91 A4.30199
								 4.34746 -180 1 0 13.37 102.59 A4.30199 4.34746 -180 0 0 9.07 106.84 L9.07 106.91 ZM0 115.9 A4.30199
								 4.34746 -180 1 0 4.3 111.59 A4.26864 4.31375 -180 0 0 -0 115.9 Z" class="st2"/>
				</g>
				<g id="group2084-9" transform="translate(5.64548E-14,-38.015)">
					<title>Sheet.2084</title>
					<g id="shape2085-10">
						<title>Sheet.2085</title>
						<path d="M1.9 106.01 L6.2 106.01 L6.2 118.05 a0.967114 0.977335 0 0 1 -0.967114 0.977335 L0.97 119.02 a0.967114
									 0.977335 0 0 1 -0.967114 -0.977335 L0 107.94 A1.90088 1.92097 0 0 1 1.9 106.01 Z" class="st3"/>
					</g>
					<g id="shape2086-12">
						<title>Sheet.2086</title>
						<path d="M1.9 106.01 L6.2 106.01 L6.2 118.05 a0.967114 0.977335 0 0 1 -0.967114 0.977335 L0.97 119.02 a0.967114
									 0.977335 0 0 1 -0.967114 -0.977335 L0 107.94 A1.90088 1.92097 0 0 1 1.9 106.01 Z" class="st4"/>
					</g>
				</g>
				<g id="group2087-14" transform="translate(50.49,-38.015)">
					<title>Sheet.2087</title>
					<g id="shape2088-15">
						<title>Sheet.2088</title>
						<path d="M0 106.01 L4.3 106.01 A1.90088 1.92097 0 0 1 6.2 107.94 L6.2 118.05 a0.967114 0.977335 0 0 1 -0.967114
									 0.977335 L0.93 119.02 a0.967114 0.977335 0 0 1 -0.933766 -0.977335 L0 106.01 Z" class="st3"/>
					</g>
					<g id="shape2089-17">
						<title>Sheet.2089</title>
						<path d="M0 106.01 L4.3 106.01 A1.90088 1.92097 0 0 1 6.2 107.94 L6.2 118.05 a0.967114 0.977335 0 0 1 -0.967114
									 0.977335 L0.93 119.02 a0.967114 0.977335 0 0 1 -0.933766 -0.977335 L0 106.01 Z" class="st4"/>
					</g>
				</g>
				<g id="shape2090-19" transform="translate(0,-44.89)">
					<title>Sheet.2090</title>
					<path d="M56.69 114.81 L56.69 119.02 L0 119.02 L0 114.81 A1.90088 1.92097 0 0 1 1.9 112.89 L54.83 112.89 A1.90088
								 1.92097 0 0 1 56.69 114.81 Z" class="st1"/>
				</g>
				<g id="group2091-21">
					<title>Sheet.2091</title>
					<g id="shape2092-22">
						<title>Sheet.2092</title>
						<path d="M0.97 105.91 L5.27 105.91 a0.967114 0.977335 0 0 1 0.967114 0.977335 L6.24 119.02 L1.9 119.02 A1.90088
									 1.92097 0 0 1 0 117.1 L0 106.99 a0.967114 0.977335 0 0 1 0.967114 -1.07844 Z" class="st3"/>
					</g>
					<g id="shape2093-24">
						<title>Sheet.2093</title>
						<path d="M0.97 105.91 L5.27 105.91 a0.967114 0.977335 0 0 1 0.967114 0.977335 L6.24 119.02 L1.9 119.02 A1.90088
									 1.92097 0 0 1 0 117.1 L0 106.99 a0.967114 0.977335 0 0 1 0.967114 -1.07844 Z" class="st4"/>
					</g>
				</g>
				<g id="group2094-26" transform="translate(50.49,-0.101104)">
					<title>Sheet.2094</title>
					<g id="shape2095-27">
						<title>Sheet.2095</title>
						<path d="M0.93 106.01 L5.24 106.01 a0.967114 0.977335 0 0 1 0.967114 0.977335 L6.2 117.1 A1.90088 1.92097
									 0 0 1 4.3 119.02 L0 119.02 L0 107.09 a0.967114 0.977335 0 0 1 0.933766 -1.07844 Z" class="st3"/>
					</g>
					<g id="shape2096-29">
						<title>Sheet.2096</title>
						<path d="M0.93 106.01 L5.24 106.01 a0.967114 0.977335 0 0 1 0.967114 0.977335 L6.2 117.1 A1.90088 1.92097
									 0 0 1 4.3 119.02 L0 119.02 L0 107.09 a0.967114 0.977335 0 0 1 0.933766 -1.07844 Z" class="st4"/>
					</g>
				</g>
				<g id="shape2097-31">
					<title>Sheet.2097</title>
					<path d="M0 117.1 L0 112.89 L56.69 112.89 L56.69 117.1 A1.90088 1.92097 0 0 1 54.79 119.02 L1.9 119.02 A1.90088
								 1.92097 0 0 1 0 117.1 Z" class="st1"/>
				</g>
			</g>
		</g>
	</g>
</svg>
