<?xml version="1.0" encoding="UTF-8" standalone="no"?>
<!DOCTYPE svg PUBLIC "-//W3C//DTD SVG 1.1//EN" "http://www.w3.org/Graphics/SVG/1.1/DTD/svg11.dtd">
<!-- Generated by Microsoft Visio, SVG Export Event Grid Topic.svg Page-1 -->
<svg xmlns="http://www.w3.org/2000/svg" xmlns:xlink="http://www.w3.org/1999/xlink" xmlns:ev="http://www.w3.org/2001/xml-events"
		width="1.73188in" height="1.65311in" viewBox="0 0 124.695 119.024" xml:space="preserve" color-interpolation-filters="sRGB"
		class="st6">
	<style type="text/css">
	<![CDATA[
		.st1 {fill:#a3a3a3;stroke:none;stroke-linecap:butt;stroke-width:34}
		.st2 {fill:#a3a3a3;fill-opacity:0.5;stroke:none;stroke-linecap:butt;stroke-width:34}
		.st3 {fill:#949494;stroke:none;stroke-linecap:butt;stroke-width:34}
		.st4 {fill:#5ea0ef;stroke:none;stroke-linecap:butt;stroke-width:34}
		.st5 {fill:url(#grad0-32);stroke:none;stroke-linecap:butt;stroke-width:34}
		.st6 {fill:none;fill-rule:evenodd;font-size:12px;overflow:visible;stroke-linecap:square;stroke-miterlimit:3}
	]]>
	</style>

	<defs id="Patterns_And_Gradients">
		<linearGradient id="grad0-32" x1="0" y1="0" x2="1" y2="0" gradientTransform="rotate(-90 0.5 0.5)">
			<stop offset="0" stop-color="#5e9624" stop-opacity="1"/>
			<stop offset="0.01" stop-color="#5e9724" stop-opacity="1"/>
			<stop offset="0.35" stop-color="#6cab29" stop-opacity="1"/>
			<stop offset="0.68" stop-color="#73b82c" stop-opacity="1"/>
			<stop offset="1" stop-color="#76bc2d" stop-opacity="1"/>
		</linearGradient>
	</defs>
	<g>
		<title>Page-1</title>
		<g id="group2036-1" transform="translate(34.0023,-34.0003)">
			<title>Event Grid Topic</title>
			<g id="group2037-2">
				<title>Icon-integration-206</title>
				<g id="group2038-3" transform="translate(-5.79536E-14,-37.982)">
					<title>Sheet.2038</title>
					<g id="shape2039-4">
						<title>Sheet.2039</title>
						<path d="M1.93 106.02 L6.22 106.02 L6.22 118.05 a0.964844 0.97476 0 0 1 -0.964844 0.97476 L0.96 119.02 a0.964844
									 0.97476 0 0 1 -0.964844 -0.97476 L0 107.97 A1.89642 1.91591 0 0 1 1.93 106.02 Z" class="st1"/>
					</g>
					<g id="shape2040-6">
						<title>Sheet.2040</title>
						<path d="M1.93 106.02 L6.22 106.02 L6.22 118.05 a0.964844 0.97476 0 0 1 -0.964844 0.97476 L0.96 119.02 a0.964844
									 0.97476 0 0 1 -0.964844 -0.97476 L0 107.97 A1.89642 1.91591 0 0 1 1.93 106.02 Z" class="st2"/>
					</g>
				</g>
				<g id="group2041-8" transform="translate(50.4713,-37.982)">
					<title>Sheet.2041</title>
					<g id="shape2042-9">
						<title>Sheet.2042</title>
						<path d="M0 106.02 L4.29 106.02 A1.89642 1.91591 0 0 1 6.19 107.93 L6.19 118.05 a0.964844 0.97476 0 0 1 -0.964844
									 0.97476 L0.96 119.02 a0.964844 0.97476 0 0 1 -0.964844 -0.97476 L0 106.02 Z" class="st1"/>
					</g>
					<g id="shape2043-11">
						<title>Sheet.2043</title>
						<path d="M0 106.02 L4.29 106.02 A1.89642 1.91591 0 0 1 6.19 107.93 L6.19 118.05 a0.964844 0.97476 0 0 1 -0.964844
									 0.97476 L0.96 119.02 a0.964844 0.97476 0 0 1 -0.964844 -0.97476 L0 106.02 Z" class="st2"/>
					</g>
				</g>
				<g id="shape2044-13" transform="translate(0.0998115,-44.9062)">
					<title>Sheet.2044</title>
					<path d="M56.56 114.82 L56.56 119.02 L0 119.02 L0 114.82 A1.89642 1.91591 0 0 1 1.9 112.91 L54.66 112.91 A1.89642
								 1.91591 0 0 1 56.56 114.82 Z" class="st3"/>
				</g>
				<g id="group2045-15">
					<title>Sheet.2045</title>
					<g id="shape2046-16">
						<title>Sheet.2046</title>
						<path d="M0.96 105.92 L5.26 105.92 a0.964844 0.97476 0 0 1 0.964844 0.97476 L6.22 119.02 L1.93 119.02 A1.89642
									 1.91591 0 0 1 -0 117.04 L0 106.96 a0.964844 0.97476 0 0 1 0.964844 -1.04198 Z" class="st1"/>
					</g>
					<g id="shape2047-18">
						<title>Sheet.2047</title>
						<path d="M0.96 105.92 L5.26 105.92 a0.964844 0.97476 0 0 1 0.964844 0.97476 L6.22 119.02 L1.93 119.02 A1.89642
									 1.91591 0 0 1 -0 117.04 L0 106.96 a0.964844 0.97476 0 0 1 0.964844 -1.04198 Z" class="st2"/>
					</g>
				</g>
				<g id="group2048-20" transform="translate(50.4713,-0.13445)">
					<title>Sheet.2048</title>
					<g id="shape2049-21">
						<title>Sheet.2049</title>
						<path d="M0.96 106.05 L5.26 106.05 a0.964844 0.97476 0 0 1 0.964844 0.97476 L6.22 117.11 A1.89642 1.91591
									 0 0 1 4.33 119.02 L0 119.02 L0 107.09 a0.964844 0.97476 0 0 1 0.964844 -1.04198 Z" class="st1"/>
					</g>
					<g id="shape2050-23">
						<title>Sheet.2050</title>
						<path d="M0.96 106.05 L5.26 106.05 a0.964844 0.97476 0 0 1 0.964844 0.97476 L6.22 117.11 A1.89642 1.91591
									 0 0 1 4.33 119.02 L0 119.02 L0 107.09 a0.964844 0.97476 0 0 1 0.964844 -1.04198 Z" class="st2"/>
					</g>
				</g>
				<g id="shape2051-25">
					<title>Sheet.2051</title>
					<path d="M0 117.11 L0 112.91 L56.56 112.91 L56.56 117.11 A1.89642 1.91591 0 0 1 54.66 119.02 L1.9 119.02 A1.89642
								 1.91591 0 0 1 0 117.11 Z" class="st3"/>
				</g>
				<g id="shape2052-27" transform="translate(16.8856,-18.9648)">
					<title>Sheet.2052</title>
					<path d="M31.12 111.94 L25.07 105.75 a0.299434 0.302512 -180 0 0 -0.532328 0.235287 L24.54 109.79 a0.299434 0.302512
								 0 0 1 -0.332705 0.336124 L6.77 110.12 A3.4934 3.5293 -180 0 0 4.01 108.75 A3.65975 3.69736 -180
								 1 0 4.01 116.11 A3.59321 3.63014 -180 0 0 6.8 114.7 L24.2 114.7 a0.299434 0.302512 0 0 1 0.332705
								 0.302512 L24.54 118.73 a0.299434 0.302512 -180 0 0 0.532328 0.201674 L31.12 112.85 a0.66541 0.672248
								 -180 0 0 -2.13163E-14 -0.907535 Z" class="st4"/>
				</g>
				<g id="shape2053-29" transform="translate(12.863,-29.8889)">
					<title>Sheet.2053</title>
					<path d="M23.97 111.94 L17.91 105.86 a0.299434 0.302512 -180 0 0 -0.532328 0.235287 L17.38 109.96 a0.299434 0.302512
								 0 0 1 -0.299434 0.336124 L6.17 110.29 A3.55994 3.59653 -180 0 0 3.37 108.91 A3.65975 3.69736 -180
								 1 0 6.2 114.86 L17.08 114.86 a0.299434 0.302512 0 0 1 0.299434 0.302512 L17.38 118.73 a0.299434
								 0.302512 -180 0 0 0.532328 0.201674 L23.97 112.85 a0.66541 0.672248 -180 0 0 -1.77636E-14 -0.907535
								 Z" class="st5"/>
				</g>
				<g id="shape2054-33" transform="translate(12.9316,-7.73829)">
					<title>Sheet.2054</title>
					<path d="M23.9 111.84 L17.84 105.75 a0.299434 0.302512 -180 0 0 -0.532328 0.235287 L17.31 109.69 a0.332705 0.336124
								 0 0 1 -0.299434 0.336124 L6.1 110.02 A3.55994 3.59653 -180 0 0 3.3 108.65 A3.65975 3.69736 -180
								 1 0 6.13 114.7 L17.01 114.7 a0.299434 0.302512 0 0 1 0.299434 0.302512 L17.31 118.73 a0.299434 0.302512
								 -180 0 0 0.532328 0.201674 L23.9 112.85 a0.66541 0.672248 -180 0 0 -1.42109E-14 -1.00837 Z"
							class="st5"/>
				</g>
			</g>
		</g>
	</g>
</svg>
