<?xml version="1.0" encoding="UTF-8" standalone="no"?>
<!DOCTYPE svg PUBLIC "-//W3C//DTD SVG 1.1//EN" "http://www.w3.org/Graphics/SVG/1.1/DTD/svg11.dtd">
<!-- Generated by Microsoft Visio, SVG Export Event Hub.svg Page-1 -->
<svg xmlns="http://www.w3.org/2000/svg" xmlns:xlink="http://www.w3.org/1999/xlink" xmlns:ev="http://www.w3.org/2001/xml-events"
		width="1.73188in" height="1.65311in" viewBox="0 0 124.696 119.024" xml:space="preserve" color-interpolation-filters="sRGB"
		class="st6">
	<style type="text/css">
	<![CDATA[
		.st1 {fill:#76bc2d;stroke:none;stroke-linecap:butt;stroke-width:34}
		.st2 {fill:#86d633;stroke:none;stroke-linecap:butt;stroke-width:34}
		.st3 {fill:#999999;stroke:none;stroke-linecap:butt;stroke-width:34}
		.st4 {fill:#999999;fill-opacity:0.5;stroke:none;stroke-linecap:butt;stroke-width:34}
		.st5 {fill:#949494;stroke:none;stroke-linecap:butt;stroke-width:34}
		.st6 {fill:none;fill-rule:evenodd;font-size:12px;overflow:visible;stroke-linecap:square;stroke-miterlimit:3}
	]]>
	</style>

	<g>
		<title>Page-1</title>
		<g id="group1996-1" transform="translate(34.0026,-34)">
			<title>Event Hub</title>
			<g id="group1997-2">
				<title> Icon-analytics-144</title>
				<g id="shape1998-3" transform="translate(25.7786,-16.1092)">
					<title>Sheet.1998</title>
					<path d="M8.67 107.4 a0.867068 0.876231 0 0 1 -0.800371 0.909932 L0.9 108.31 a0.867068 0.876231 0 0 1 -0.900417
								 -0.808829 L0 102.24 a0.867068 0.876231 0 0 1 0.800371 -0.909932 L7.77 101.33 a0.867068 0.876231
								 0 0 1 0.900417 0.808829 L8.67 107.4 ZM21.04 112.72 a0.867068 0.876231 0 0 1 -0.800371 0.909932 L13.27
								 113.63 a0.867068 0.876231 0 0 1 -0.900417 -0.808829 L12.37 107.6 a0.867068 0.876231 0 0 1 0.800371
								 -0.909932 L20.14 106.69 a0.867068 0.876231 0 0 1 0.900417 0.808829 L21.04 112.72 ZM8.67 118.11 a0.867068
								 0.876231 0 0 1 -0.800371 0.909932 L0.9 119.02 a0.867068 0.876231 0 0 1 -0.900417 -0.808829 L0 112.96
								 a0.867068 0.876231 0 0 1 0.800371 -0.909932 L7.77 112.05 a0.867068 0.876231 0 0 1 0.900417 0.808829
								 L8.67 118.11 Z" class="st1"/>
				</g>
				<g id="shape1999-5" transform="translate(13.2395,-32.1846)">
					<title>Sheet.1999</title>
					<path d="M8.84 118.15 a0.833719 0.84253 0 0 1 -0.767022 0.876231 L0.9 119.02 a0.867068 0.876231 0 0 1 -0.900417
								 -0.775128 L0 112.79 a0.867068 0.876231 0 0 1 0.800371 -0.84253 L7.77 111.95 C8.5 111.95 8.84 112.32
								 8.84 112.86 L8.84 118.15 Z" class="st2"/>
				</g>
				<g id="shape2000-7" transform="translate(13.2395,-10.7507)">
					<title>Sheet.2000</title>
					<path d="M8.84 107.36 a0.833719 0.84253 0 0 1 -0.767022 0.909932 L0.9 108.27 a0.867068 0.876231 0 0 1 -0.900417
								 -0.909932 L0 102.04 a0.867068 0.876231 0 0 1 0.800371 -0.876231 L7.77 101.16 C8.5 101.16 8.84 101.53
								 8.84 102.04 L8.84 107.36 ZM8.84 118.11 a0.833719 0.84253 0 0 1 -0.767022 0.909932 L0.9 119.02 a0.867068
								 0.876231 0 0 1 -0.900417 -0.808829 L0 112.76 a0.833719 0.84253 0 0 1 0.800371 -0.876231 L7.77 111.88
								 C8.5 111.88 8.84 112.22 8.84 112.76 L8.84 118.11 Z" class="st1"/>
				</g>
				<g id="group2001-9" transform="translate(5.64548E-14,-37.9139)">
					<title>Sheet.2001</title>
					<g id="shape2002-10">
						<title>Sheet.2002</title>
						<path d="M1.9 105.91 L6.2 105.91 L6.2 118.05 a0.967114 0.977335 0 0 1 -0.967114 0.977335 L0.97 119.02 a0.967114
									 0.977335 0 0 1 -0.967114 -0.977335 L0 107.94 A1.90088 1.92097 0 0 1 1.9 105.91 Z" class="st3"/>
					</g>
					<g id="shape2003-12">
						<title>Sheet.2003</title>
						<path d="M1.9 105.91 L6.2 105.91 L6.2 118.05 a0.967114 0.977335 0 0 1 -0.967114 0.977335 L0.97 119.02 a0.967114
									 0.977335 0 0 1 -0.967114 -0.977335 L0 107.94 A1.90088 1.92097 0 0 1 1.9 105.91 Z" class="st4"/>
					</g>
				</g>
				<g id="group2004-14" transform="translate(50.4567,-38.015)">
					<title>Sheet.2004</title>
					<g id="shape2005-15">
						<title>Sheet.2005</title>
						<path d="M0.03 106.01 L4.34 106.01 A1.90088 1.92097 0 0 1 6.24 107.94 L6.24 118.05 a0.967114 0.977335 0 0
									 1 -0.967114 0.977335 L0.97 119.02 a0.967114 0.977335 0 0 1 -0.967114 -0.977335 L0 106.01 L0.03
									 106.01 Z" class="st3"/>
					</g>
					<g id="shape2006-17">
						<title>Sheet.2006</title>
						<path d="M0.03 106.01 L4.34 106.01 A1.90088 1.92097 0 0 1 6.24 107.94 L6.24 118.05 a0.967114 0.977335 0 0
									 1 -0.967114 0.977335 L0.97 119.02 a0.967114 0.977335 0 0 1 -0.967114 -0.977335 L0 106.01 L0.03
									 106.01 Z" class="st4"/>
					</g>
				</g>
				<g id="shape2007-19" transform="translate(0,-44.89)">
					<title>Sheet.2007</title>
					<path d="M56.69 114.81 L56.69 119.02 L0 119.02 L0 114.81 A1.90088 1.92097 0 0 1 1.9 112.89 L54.83 112.89 A1.90088
								 1.92097 0 0 1 56.69 114.81 Z" class="st5"/>
				</g>
				<g id="group2008-21">
					<title>Sheet.2008</title>
					<g id="shape2009-22">
						<title>Sheet.2009</title>
						<path d="M0.97 105.91 L5.27 105.91 a0.967114 0.977335 0 0 1 0.967114 0.977335 L6.24 119.02 L1.9 119.02 A1.90088
									 1.92097 0 0 1 0 117.1 L0 106.72 a0.967114 0.977335 0 0 1 0.967114 -0.808829 Z" class="st3"/>
					</g>
					<g id="shape2010-24">
						<title>Sheet.2010</title>
						<path d="M0.97 105.91 L5.27 105.91 a0.967114 0.977335 0 0 1 0.967114 0.977335 L6.24 119.02 L1.9 119.02 A1.90088
									 1.92097 0 0 1 0 117.1 L0 106.72 a0.967114 0.977335 0 0 1 0.967114 -0.808829 Z" class="st4"/>
					</g>
				</g>
				<g id="group2011-26" transform="translate(50.49,-0.101104)">
					<title>Sheet.2011</title>
					<g id="shape2012-27">
						<title>Sheet.2012</title>
						<path d="M0.93 106.01 L5.24 106.01 a0.967114 0.977335 0 0 1 0.967114 0.977335 L6.2 117.1 A1.90088 1.92097
									 0 0 1 4.3 119.02 L0 119.02 L0 106.82 a0.967114 0.977335 0 0 1 0.933766 -0.808829 Z"
								class="st3"/>
					</g>
					<g id="shape2013-29">
						<title>Sheet.2013</title>
						<path d="M0.93 106.01 L5.24 106.01 a0.967114 0.977335 0 0 1 0.967114 0.977335 L6.2 117.1 A1.90088 1.92097
									 0 0 1 4.3 119.02 L0 119.02 L0 106.82 a0.967114 0.977335 0 0 1 0.933766 -0.808829 Z"
								class="st4"/>
					</g>
				</g>
				<g id="shape2014-31">
					<title>Sheet.2014</title>
					<path d="M0 117.1 L0 112.89 L56.69 112.89 L56.69 117.1 A1.90088 1.92097 0 0 1 54.79 119.02 L1.9 119.02 A1.90088
								 1.92097 0 0 1 0 117.1 Z" class="st5"/>
				</g>
			</g>
		</g>
	</g>
</svg>
