<?xml version="1.0" encoding="UTF-8" standalone="no"?>
<!DOCTYPE svg PUBLIC "-//W3C//DTD SVG 1.1//EN" "http://www.w3.org/Graphics/SVG/1.1/DTD/svg11.dtd">
<!-- Generated by Microsoft Visio, SVG Export Export Template.svg Page-1 -->
<svg xmlns="http://www.w3.org/2000/svg" xmlns:xlink="http://www.w3.org/1999/xlink" xmlns:ev="http://www.w3.org/2001/xml-events"
		width="1.1274in" height="1.27236in" viewBox="0 0 81.1729 91.6101" xml:space="preserve" color-interpolation-filters="sRGB"
		class="st7">
	<style type="text/css">
	<![CDATA[
		.st1 {fill:#7a7a7a;stroke:none;stroke-linecap:butt;stroke-width:12.24}
		.st2 {fill:#a0a1a2;stroke:none;stroke-linecap:butt;stroke-width:12.24}
		.st3 {fill:#ffffff;fill-opacity:0.2;stroke:none;stroke-linecap:butt;stroke-width:12.24}
		.st4 {fill:#59b4d9;stroke:none;stroke-linecap:butt;stroke-width:12.24}
		.st5 {fill:#ffffff;stroke:none;stroke-linecap:butt;stroke-width:12.24}
		.st6 {fill:#b8d432;stroke:none;stroke-linecap:butt;stroke-width:12.24}
		.st7 {fill:none;fill-rule:evenodd;font-size:12px;overflow:visible;stroke-linecap:square;stroke-miterlimit:3}
	]]>
	</style>

	<g>
		<title>Page-1</title>
		<g id="group1983-1" transform="translate(12.24,-28.3465)">
			<title>Export Template</title>
			<g id="group1984-2">
				<title>g18</title>
				<g id="shape1985-3" transform="translate(9.81335,0)">
					<title>path4</title>
					<path d="M26.95 80.98 L11.54 80.98 C13.39 87.36 10.9 88.27 0 88.27 L0 91.61 L37.07 91.61 L37.07 88.27 C26.17
								 88.27 25.1 87.36 26.95 80.98 Z" class="st1"/>
				</g>
				<g id="shape1986-5" transform="translate(0.00113384,-10.6284)">
					<title>path6</title>
					<path d="M53.27 51.21 L3.08 51.21 C1.38 51.21 0 52.7 0 54.36 L0 88.49 C0 90.14 1.38 91.61 3.08 91.61 L53.27 91.61
								 C54.97 91.61 56.69 90.14 56.69 88.49 L56.69 54.36 C56.69 52.7 54.97 51.21 53.27 51.21 Z"
							class="st2"/>
				</g>
				<g id="shape1987-7" transform="translate(0,-10.6273)">
					<title>path8</title>
					<path d="M53.3 51.22 L53.27 51.21 L3.08 51.21 C1.38 51.21 0 52.7 0 54.36 L0 88.49 C0 90.14 1.38 91.61 3.08 91.61
								 L4.27 91.61 L53.3 51.22 Z" class="st3"/>
				</g>
				<g id="shape1988-9" transform="translate(4.29724,-14.8818)">
					<title>path10</title>
					<path d="M48.1 59.72 L48.1 91.61 L0 91.61 L0 59.72 L48.1 59.65 L48.1 59.72 Z" class="st4"/>
				</g>
				<g id="shape1989-11" transform="translate(18.8965,-17.2876)">
					<title>path12</title>
					<path d="M11.07 78.41 L18.9 71.17 L18.9 75.1 L9.45 84.78 L0 75.13 L0 71.22 L7.78 78.41 L7.78 63.38 L11.07 63.38
								 L11.07 78.41 ZM1.26 87.93 L17.64 87.93 L17.64 91.61 L1.26 91.61 L1.26 87.93 Z" class="st5"/>
				</g>
				<g id="shape1990-13" transform="translate(9.81335,-2.84217E-14)">
					<title>path14</title>
					<rect x="0" y="88.27" width="37.0674" height="3.3401" class="st2"/>
				</g>
				<g id="shape1991-15" transform="translate(27.3232,-47.9223)">
					<title>path16</title>
					<path d="M1.61 90.83 a0.805023 0.784996 0 1 1 -1.61005 0 a0.805023 0.784996 0 0 1 1.61005 0 Z" class="st6"/>
				</g>
			</g>
		</g>
	</g>
</svg>
