<?xml version="1.0" encoding="UTF-8" standalone="no"?>
<!DOCTYPE svg PUBLIC "-//W3C//DTD SVG 1.1//EN" "http://www.w3.org/Graphics/SVG/1.1/DTD/svg11.dtd">
<!-- Generated by Microsoft Visio, SVG Export Expressroute Filter.svg Page-1 -->
<svg xmlns="http://www.w3.org/2000/svg" xmlns:xlink="http://www.w3.org/1999/xlink" xmlns:ev="http://www.w3.org/2001/xml-events"
		width="0.944882in" height="1.17323in" viewBox="0 0 68.0315 84.4724" xml:space="preserve" color-interpolation-filters="sRGB"
		class="st5">
	<style type="text/css">
	<![CDATA[
		.st1 {fill:#804998;stroke:none;stroke-linecap:butt;stroke-width:0.917452}
		.st2 {fill:#7fba00;stroke:none;stroke-linecap:butt;stroke-width:0.917452}
		.st3 {fill:#ffffff;fill-opacity:0.2;stroke:none;stroke-linecap:butt;stroke-width:0.917452}
		.st4 {fill:#ffffff;stroke:none;stroke-linecap:butt;stroke-width:0.917452}
		.st5 {fill:none;fill-rule:evenodd;font-size:12px;overflow:visible;stroke-linecap:square;stroke-miterlimit:3}
	]]>
	</style>

	<g>
		<title>Page-1</title>
		<g id="group1963-1" transform="translate(5.66929,-28.3465)">
			<title>Expressroute Filter</title>
			<g id="group1964-2">
				<title>g18</title>
				<g id="shape1965-3" transform="translate(34.6595,2.70006E-13)">
					<title>path4</title>
					<path d="M12.56 72.71 L9.75 84.47 L0 78.28 L12.56 72.71 Z" class="st1"/>
				</g>
				<g id="shape1966-5" transform="translate(26.0847,-2.02112)">
					<title>path6</title>
					<path d="M1.13 62.2 C1.13 62.2 0.59 63.24 0 63.41 C7.47 63.41 12.35 76.71 15.26 84.47 L19.03 83.3 C16.06 74.88
								 12.46 62.2 1.13 62.2 ZM21.14 47.24 L18.32 35.47 L8.57 41.66 L21.14 47.24 Z" class="st1"/>
				</g>
				<g id="shape1967-7" transform="translate(26.0847,-18.2241)">
					<title>path8</title>
					<path d="M1.13 75.97 C1.13 75.97 0.59 74.92 0 74.76 C7.47 74.76 12.35 61.46 15.26 53.69 L19.03 54.86 C16.06 63.29
								 12.46 75.97 1.13 75.97 ZM21.55 69.9 L30.61 77.18 L21.55 84.47 L21.55 69.9 Z" class="st1"/>
				</g>
				<g id="shape1968-9" transform="translate(23.7906,-23.0777)">
					<title>path10</title>
					<rect x="0" y="79.6091" width="27.4203" height="4.86333" class="st1"/>
				</g>
				<g id="shape1969-11" transform="translate(2.81775E-13,-9.71693)">
					<title>path12</title>
					<path d="M5.39 84.47 L21.52 84.47 A5.38573 5.77429 -180 0 0 26.91 78.7 L26.91 58.66 A5.38573 5.77429 -180 0 0
								 21.52 52.89 L5.39 52.89 A5.3846 5.77307 -180 0 0 0 58.66 L0 78.7 A5.3846 5.77307 -180 0 0 5.39 84.47
								 Z" class="st2"/>
				</g>
				<g id="shape1970-13" transform="translate(-2.8777E-13,-9.71693)">
					<title>path14</title>
					<path d="M5.39 84.47 L21.52 52.89 L5.39 52.89 A5.3846 5.77307 -180 0 0 -0 58.66 L0 78.7 A5.3846 5.77307 -180
								 0 0 5.39 84.47 Z" class="st3"/>
				</g>
				<g id="shape1971-15" transform="translate(4.53154,-14.5754)">
					<title>path16</title>
					<path d="M11.33 69.89 L18.13 69.89 L18.13 77.18 L11.33 77.18 L11.33 69.89 ZM0 62.61 L6.8 62.61 L6.8 69.9 L0 69.9
								 L0 62.61 ZM0 77.18 L6.8 77.18 L6.8 84.47 L0 84.47 L0 77.18 Z" class="st4"/>
				</g>
			</g>
		</g>
	</g>
</svg>
