<?xml version="1.0" encoding="UTF-8" standalone="no"?>
<!DOCTYPE svg PUBLIC "-//W3C//DTD SVG 1.1//EN" "http://www.w3.org/Graphics/SVG/1.1/DTD/svg11.dtd">
<!-- Generated by Microsoft Visio, SVG Export Expressroute Connection.svg Page-1 -->
<svg xmlns="http://www.w3.org/2000/svg" xmlns:xlink="http://www.w3.org/1999/xlink" xmlns:ev="http://www.w3.org/2001/xml-events"
		width="0.944882in" height="1.25984in" viewBox="0 0 68.0315 90.7087" xml:space="preserve" color-interpolation-filters="sRGB"
		class="st3">
	<style type="text/css">
	<![CDATA[
		.st1 {fill:#b8d432;stroke:none;stroke-linecap:butt;stroke-width:0.938305}
		.st2 {fill:#59b4d9;stroke:none;stroke-linecap:butt;stroke-width:0.938305}
		.st3 {fill:none;fill-rule:evenodd;font-size:12px;overflow:visible;stroke-linecap:square;stroke-miterlimit:3}
	]]>
	</style>

	<g>
		<title>Page-1</title>
		<g id="group1972-1" transform="translate(5.66929,-28.3465)">
			<title>Expressroute Connection</title>
			<g id="group1973-2">
				<title>g8</title>
				<g id="shape1974-3" transform="translate(13.8331,-11.1118)">
					<title>path4</title>
					<path d="M29.03 59.98 L25.29 56.24 L13.15 68.49 L25.29 80.73 L29.03 77.22 L20.75 68.83 L29.03 59.98 ZM0 70.3
								 L8.28 78.58 L0 86.97 L3.74 90.71 L15.87 78.46 L3.74 66.22 L0 70.3 Z" class="st1"/>
				</g>
				<g id="shape1975-5">
					<title>path6</title>
					<path d="M28.35 34.02 C12.59 34.02 0 46.94 0 62.36 C0 78.12 12.93 90.71 28.35 90.71 C43.77 90.71 56.69 77.78
								 56.69 62.36 C56.69 46.94 44.11 34.02 28.35 34.02 ZM28.35 37.76 C41.95 37.76 52.95 48.76 52.95 62.36
								 C52.95 75.97 41.84 86.97 28.35 86.97 C14.85 86.97 3.74 75.86 3.74 62.36 C3.74 48.87 14.74 37.76
								 28.35 37.76 Z" class="st2"/>
				</g>
			</g>
		</g>
	</g>
</svg>
