<?xml version="1.0" encoding="UTF-8" standalone="no"?>
<!DOCTYPE svg PUBLIC "-//W3C//DTD SVG 1.1//EN" "http://www.w3.org/Graphics/SVG/1.1/DTD/svg11.dtd">
<!-- Generated by Microsoft Visio, SVG Export Extended Security Updates.svg Page-1 -->
<svg xmlns="http://www.w3.org/2000/svg" xmlns:xlink="http://www.w3.org/1999/xlink" xmlns:ev="http://www.w3.org/2001/xml-events"
		width="1.65311in" height="1.73185in" viewBox="0 0 119.024 124.693" xml:space="preserve" color-interpolation-filters="sRGB"
		class="st5">
	<style type="text/css">
	<![CDATA[
		.st1 {fill:#0078d4;stroke:none;stroke-linecap:butt;stroke-width:34}
		.st2 {fill:url(#grad0-8);stroke:none;stroke-linecap:butt;stroke-width:34}
		.st3 {fill:#76bc2d;stroke:none;stroke-linecap:butt;stroke-width:34}
		.st4 {fill:#ffffff;stroke:none;stroke-linecap:butt;stroke-width:34}
		.st5 {fill:none;fill-rule:evenodd;font-size:12px;overflow:visible;stroke-linecap:square;stroke-miterlimit:3}
	]]>
	</style>

	<defs id="Patterns_And_Gradients">
		<linearGradient id="grad0-8" x1="0" y1="0" x2="1" y2="0" gradientTransform="rotate(-90 0.5 0.5)">
			<stop offset="0" stop-color="#0078d4" stop-opacity="1"/>
			<stop offset="1" stop-color="#5ea0ef" stop-opacity="1"/>
		</linearGradient>
	</defs>
	<g>
		<title>Page-1</title>
		<g id="group1957-1" transform="translate(34,-34)">
			<title>Extended Security Updates</title>
			<g id="group1958-2">
				<title>g10</title>
				<g id="shape1959-3" transform="translate(0,-1.69616)">
					<title>path2</title>
					<path d="M44.65 95.37 C44.65 110.18 26.92 122.07 23.06 124.48 A1.38451 1.39528 0 0 1 21.59 124.48 C17.74 122.07
								 0 110.16 0 95.37 L0 77.57 A1.40326 1.41417 0 0 1 1.37 76.16 C15.17 75.8 11.99 69.7 22.33 69.7 C32.66
								 69.7 29.49 75.8 43.29 76.17 A1.40326 1.41417 0 0 1 44.65 77.58 L44.65 95.37 Z" class="st1"/>
				</g>
				<g id="shape1960-5" transform="translate(1.8533,-3.97935)">
					<title>path4</title>
					<path d="M40.95 97.81 C40.95 111.37 24.7 122.28 21.15 124.5 A1.27512 1.28504 0 0 1 19.8 124.5 C16.26 122.29 0
								 111.37 0 97.81 L0 81.49 A1.2845 1.29449 0 0 1 1.25 80.2 C13.91 79.85 10.99 74.26 20.47 74.26 C29.95
								 74.26 27.04 79.86 39.69 80.2 A1.2845 1.29449 0 0 1 40.94 81.49 L40.95 97.81 Z" class="st2"/>
				</g>
				<g id="shape1961-9" transform="translate(18.4143,2.98428E-13)">
					<title>circle6</title>
					<ellipse cx="16.3047" cy="108.261" rx="16.3047" ry="16.4315" class="st3"/>
				</g>
				<g id="shape1962-11" transform="translate(21.5309,-5.78064)">
					<title>path8</title>
					<path d="M1.54 112.5 a0.575055 0.579528 0 0 1 -0.790701 -0.204724 L0.06 111.12 a0.57818 0.582677 0 0 1 0.203144
								 -0.79685 L5.74 107.05 a0.575055 0.579528 0 0 1 0.790701 0.204724 L9.78 112.77 a0.575055 0.579528
								 0 0 1 -0.203144 0.79685 L8.41 114.27 a0.57818 0.582677 0 0 1 -0.790701 -0.204724 L6.66 112.42 A7.3632
								 7.42047 -180 0 0 6.51 115.19 A6.76627 6.8189 -180 0 0 7.41 117.8 A6.64751 6.69921 -180 0 0 8.66
								 119.38 A7.48196 7.54016 -180 0 0 10.29 120.52 A7.18819 7.24409 -180 0 0 12.16 121.17 A7.38195 7.43937
								 -180 0 0 13.65 121.31 a0.568804 0.573228 0 0 1 0.562554 0.525984 L14.48 124.67 A10.2854 10.3654
								 0 0 1 11.52 124.51 A10.8385 10.9228 0 0 1 8.76 123.54 A10.4729 10.5543 0 0 1 6.37 121.86 A10.4104
								 10.4913 0 0 1 3.15 115.56 A10.4729 10.5543 0 0 1 3.44 111.37 L1.54 112.5 ZM14.84 107.14 A7.26007
								 7.31654 0 0 1 16.72 107.81 A7.43196 7.48976 0 0 1 18.34 108.95 A6.82565 6.87874 0 0 1 20.51 113.12
								 A7.3632 7.42047 0 0 1 20.36 115.88 L19.39 114.25 a0.57818 0.582677 -180 0 0 -0.790701 -0.204724
								 L17.44 114.74 a0.575055 0.579528 -180 0 0 -0.203144 0.79685 L20.49 121.05 a0.57818 0.582677 -180
								 0 0 0.790701 0.201575 L26.75 117.98 a0.575055 0.579528 -180 0 0 0.203144 -0.79685 L26.26 116.01
								 a0.57818 0.582677 -180 0 0 -0.790701 -0.201575 L23.58 116.94 A10.4572 10.5386 -180 0 0 23.87 112.76
								 A10.4072 10.4882 -180 0 0 20.65 106.46 A10.5573 10.6394 -180 0 0 18.26 104.78 A10.7948 10.8787 -180
								 0 0 15.49 103.82 A10.3135 10.3937 -180 0 0 13.13 103.62 a0.568804 0.573228 -180 0 0 -0.537551 0.629921
								 L12.8 106.48 a0.568804 0.573228 -180 0 0 0.565679 0.529134 A6.56313 6.61417 0 0 1 14.84 107.17 L14.84
								 107.14 Z" class="st4"/>
				</g>
			</g>
		</g>
	</g>
</svg>
