<?xml version="1.0" encoding="UTF-8" standalone="no"?>
<!DOCTYPE svg PUBLIC "-//W3C//DTD SVG 1.1//EN" "http://www.w3.org/Graphics/SVG/1.1/DTD/svg11.dtd">
<!-- Generated by Microsoft Visio, SVG Export File Share.svg Page-1 -->
<svg xmlns="http://www.w3.org/2000/svg" xmlns:xlink="http://www.w3.org/1999/xlink" xmlns:ev="http://www.w3.org/2001/xml-events"
		width="1.73185in" height="1.73185in" viewBox="0 0 124.693 124.693" xml:space="preserve" color-interpolation-filters="sRGB"
		class="st6">
	<style type="text/css">
	<![CDATA[
		.st1 {fill:#005ba1;stroke:none;stroke-linecap:butt;stroke-width:34}
		.st2 {fill:#50e5ff;stroke:none;stroke-linecap:butt;stroke-width:34}
		.st3 {fill:#0078d4;stroke:none;stroke-linecap:butt;stroke-width:34}
		.st4 {fill:#ffffff;stroke:none;stroke-linecap:butt;stroke-width:34}
		.st5 {fill:url(#grad0-18);stroke:none;stroke-linecap:butt;stroke-width:34}
		.st6 {fill:none;fill-rule:evenodd;font-size:12px;overflow:visible;stroke-linecap:square;stroke-miterlimit:3}
	]]>
	</style>

	<defs id="Patterns_And_Gradients">
		<linearGradient id="grad0-18" x1="0" y1="0" x2="1" y2="0" gradientTransform="rotate(88.955156399999 0.5 0.5)">
			<stop offset="0" stop-color="#32d4f5" stop-opacity="1"/>
			<stop offset="0.23" stop-color="#31d0f1" stop-opacity="1"/>
			<stop offset="0.46" stop-color="#2cc3e6" stop-opacity="1"/>
			<stop offset="0.7" stop-color="#25afd4" stop-opacity="1"/>
			<stop offset="0.94" stop-color="#1c92ba" stop-opacity="1"/>
			<stop offset="1" stop-color="#198ab3" stop-opacity="1"/>
		</linearGradient>
	</defs>
	<g>
		<title>Page-1</title>
		<g id="group1936-1" transform="translate(34,-34)">
			<title>File Share</title>
			<g id="group1937-2">
				<title>g16</title>
				<g id="shape1938-3" transform="translate(10.2362,-7.33044)">
					<title>path2</title>
					<path d="M44.19 87.63 L41.32 87.63 A13.1024 13.0878 -180 0 0 39.59 87.63 A2.14173 2.13936 0 0 1 37.73 84.49 L38.96
								 82.28 A5.76378 5.75738 -180 0 0 37.35 81.37 L34.43 86.59 A2.20472 2.20228 0 0 1 32.54 87.69 L29.92
								 87.69 A2.07874 2.07643 -180 0 0 28.91 87.95 L23.97 91.09 a0.787402 0.786528 0 0 1 -0.503937 9.9476E-14
								 L6.36 91.09 a0.913386 0.912372 -180 0 0 -0.850394 1.00676 L5.51 107.26 L0 108.96 L0.41 110.72 L5.51
								 109.97 L5.51 119.09 a0.913386 0.912372 -180 0 0 0.913386 0.912372 L35.94 120.01 L39.56 124.69 L41.1
								 123.72 L38.96 120.01 L44.25 120.01 a0.913386 0.912372 -180 0 0 0.944882 -0.912372 L45.2 88.58 a0.944882
								 0.943833 -180 0 0 -1.00787 -0.943833 Z" class="st1"/>
				</g>
				<g id="shape1939-5" transform="translate(46.5827,-49.8344)">
					<title>circle4</title>
					<ellipse cx="3.43307" cy="121.264" rx="3.43307" ry="3.42926" class="st2"/>
				</g>
				<g id="shape1940-7" transform="translate(47.748,-5.68434E-14)">
					<title>circle6</title>
					<ellipse cx="4.47244" cy="120.225" rx="4.47244" ry="4.46748" class="st2"/>
				</g>
				<g id="shape1941-9" transform="translate(-1.1291E-13,-15.1013)">
					<title>circle8</title>
					<ellipse cx="5.5748" cy="119.124" rx="5.5748" ry="5.56862" class="st2"/>
				</g>
				<g id="shape1942-11" transform="translate(21.6063,-36.8095)">
					<title>path10</title>
					<path d="M26.17 119.78 L4.41 116.64 L3.97 116.64 A3.14961 3.14611 -180 0 0 0.82 119.38 L0 124.69 L28.79 124.69
								 L28.79 123.4 A3.14961 3.14611 -180 0 0 26.17 119.78 Z" class="st3"/>
				</g>
				<g id="shape1943-13" transform="translate(22.9921,-36.8095)">
					<title>path12</title>
					<path d="M24.57 121.14 L2.83 117.99 L2.55 117.99 A1.82677 1.82474 -180 0 0 0.76 119.56 L0 124.69 L25.89 124.69
								 L26.11 123.21 A1.82677 1.82474 -180 0 0 24.57 121.14 Z" class="st4"/>
				</g>
				<g id="shape1944-15" transform="translate(15.748,-12.0181)">
					<title>path14</title>
					<path d="M0.82 95.78 L19.87 95.78 A1.03937 1.03822 0 0 1 20.54 96.06 L23.69 99.21 a0.913386 0.912372 -180 0 0
								 0.661417 0.28315 L38.83 99.49 a0.944882 0.943833 0 0 1 0.944882 0.912372 L39.78 123.78 a0.944882
								 0.943833 0 0 1 -0.944882 0.912372 L1.04 124.69 a0.913386 0.912372 0 0 1 -1.03937 -0.912372 L0 96.79
								 a0.944882 0.943833 0 0 1 0.818898 -1.00676 Z" class="st5"/>
				</g>
			</g>
		</g>
	</g>
</svg>
