<?xml version="1.0" encoding="UTF-8" standalone="no"?>
<!DOCTYPE svg PUBLIC "-//W3C//DTD SVG 1.1//EN" "http://www.w3.org/Graphics/SVG/1.1/DTD/svg11.dtd">
<!-- Generated by Microsoft Visio, SVG Export File Integrity Monitoring.svg Page-1 -->
<svg xmlns="http://www.w3.org/2000/svg" xmlns:xlink="http://www.w3.org/1999/xlink" xmlns:ev="http://www.w3.org/2001/xml-events"
		width="1.13825in" height="1.3511in" viewBox="0 0 81.9538 97.2794" xml:space="preserve" color-interpolation-filters="sRGB"
		class="st7">
	<style type="text/css">
	<![CDATA[
		.st1 {fill:#59b4d9;stroke:none;stroke-linecap:butt;stroke-width:12.24}
		.st2 {fill:#ffffff;fill-opacity:0.8;stroke:none;stroke-linecap:butt;stroke-width:12.24}
		.st3 {fill:#59b4d9}
		.st4 {stroke:none;stroke-linecap:butt;stroke-width:12.24}
		.st5 {fill:#00188f;stroke:none;stroke-linecap:butt;stroke-width:12.24}
		.st6 {fill:#1e1e1e;fill-opacity:0.5;stroke:none;stroke-linecap:butt;stroke-width:12.24}
		.st7 {fill:none;fill-rule:evenodd;font-size:12px;overflow:visible;stroke-linecap:square;stroke-miterlimit:3}
	]]>
	</style>

	<g>
		<title>Page-1</title>
		<g id="group1945-1" transform="translate(12.24,-28.3465)">
			<title>File Integrity Monitoring</title>
			<g id="group1946-2">
				<title>Sheet.1946</title>
				<g id="shape1947-3" transform="translate(0,-2.74516)">
					<title>Sheet.1947</title>
					<path d="M46.4 50.67 L41.1 45.49 L38.89 43.33 L0 43.33 L0 97.28 L48.61 97.28 L48.61 52.83 L46.4 50.67 Z"
							class="st1"/>
				</g>
				<g id="shape1948-5" transform="translate(2.20918,-4.90256)">
					<title>Sheet.1948</title>
					<path d="M36.46 47.65 L0 47.65 L0 97.28 L44.2 97.28 L44.2 55.2 L36.46 55.2 L36.46 47.65 Z" class="st2"/>
				</g>
				<g id="shape1949-7" transform="translate(9.35352,-13.2106)">
					<title>Sheet.1949</title>
					<path d="M19.15 96.09 A1.22614 1.1974 0 0 1 17.94 97.28 L1.25 97.28 A1.21552 1.18703 0 1 1 1.25 94.91 L17.94
								 94.91 A1.22614 1.1974 0 0 1 19.15 96.09 ZM30.31 79.91 A1.22732 1.19856 0 0 1 29.1 81.1 L1.25 81.1
								 A1.21552 1.18703 0 0 1 1.25 78.72 L28.99 78.72 A1.25447 1.22506 0 0 1 30.31 79.91 L30.31 79.91 ZM30.31
								 88 A1.22732 1.19856 0 0 1 29.1 89.19 L1.25 89.19 A1.21552 1.18703 0 1 1 1.25 86.81 L28.99 86.81
								 A1.25447 1.22506 0 0 1 30.31 88 L30.31 88 ZM30.31 71.82 A1.22732 1.19856 0 0 1 29.1 73 L1.25 73
								 A1.21552 1.18703 0 0 1 1.25 70.63 L28.99 70.63 A1.25447 1.22506 0 0 1 30.31 71.82 L30.31 71.82 Z"
							class="st3"/>
					<path d="M19.15 96.09 A1.22614 1.1974 0 0 1 17.94 97.28 L1.25 97.28 A1.21552 1.18703 0 1 1 1.25 94.91 L17.94
								 94.91 A1.22614 1.1974 0 0 1 19.15 96.09M30.31 79.91 A1.22732 1.19856 0 0 1 29.1 81.1 L1.25 81.1
								 A1.21552 1.18703 0 0 1 1.25 78.72 L28.99 78.72 A1.25447 1.22506 0 0 1 30.31 79.91M30.31 88 A1.22732
								 1.19856 0 0 1 29.1 89.19 L1.25 89.19 A1.21552 1.18703 0 1 1 1.25 86.81 L28.99 86.81 A1.25447 1.22506
								 0 0 1 30.31 88M30.31 71.82 A1.22732 1.19856 0 0 1 29.1 73 L1.25 73 A1.21552 1.18703 0 0 1 1.25 70.63
								 L28.99 70.63 A1.25447 1.22506 0 0 1 30.31 71.82" class="st4"/>
				</g>
				<g id="shape1950-10" transform="translate(27.4755,1.42109E-14)">
					<title>Sheet.1950</title>
					<path d="M-0 82.01 A11.2324 10.9691 -180 0 0 13.6 90.04 A11.0318 10.7732 -180 0 0 16.55 88.86 L25.1 97.28 A2.89601
								 2.82813 -180 0 0 29.22 93.3 L20.62 84.84 A11.2241 10.961 -180 1 0 -0 82.01 L0 82.01 ZM4.17 75.4
								 A7.82183 7.6385 0 0 1 9.03 71.91 A7.87493 7.69036 0 1 1 3.27 81.22 A7.81829 7.63504 0 0 1 4.17 75.4
								 Z" class="st5"/>
				</g>
				<g id="shape1951-12" transform="translate(44.0267,-7.61891)">
					<title>Sheet.1951</title>
					<path d="M0 96.48 L0.81 97.28 A4.49507 4.38972 -180 0 0 1.43 97.01 A12.4137 12.1227 -180 0 0 4.64 93.84 C4.76
								 93.68 4.86 93.51 4.97 93.34 L4.88 93.25 L4.07 92.46 C3.93 92.7 3.79 92.94 3.63 93.17 A11.2288 10.9656
								 0 0 1 0.73 96.03 C0.49 96.19 0.25 96.34 0 96.48 Z" class="st6"/>
				</g>
			</g>
		</g>
	</g>
</svg>
