<?xml version="1.0" encoding="UTF-8" standalone="no"?>
<!DOCTYPE svg PUBLIC "-//W3C//DTD SVG 1.1//EN" "http://www.w3.org/Graphics/SVG/1.1/DTD/svg11.dtd">
<!-- Generated by Microsoft Visio, SVG Export Firewall Policy.svg Page-1 -->
<svg xmlns="http://www.w3.org/2000/svg" xmlns:xlink="http://www.w3.org/1999/xlink" xmlns:ev="http://www.w3.org/2001/xml-events"
		width="1.36122in" height="1.19243in" viewBox="0 0 98.0076 85.8548" xml:space="preserve" color-interpolation-filters="sRGB"
		class="st6">
	<style type="text/css">
	<![CDATA[
		.st1 {fill:#821010;stroke:none;stroke-linecap:butt;stroke-width:20.6572}
		.st2 {fill:#e62323;stroke:none;stroke-linecap:butt;stroke-width:20.6572}
		.st3 {fill:#ff7381;stroke:none;stroke-linecap:butt;stroke-width:20.6572}
		.st4 {fill:#e6e6e6;stroke:none;stroke-linecap:butt;stroke-width:20.6572}
		.st5 {fill:#666666;stroke:none;stroke-linecap:butt;stroke-width:20.6572}
		.st6 {fill:none;fill-rule:evenodd;font-size:12px;overflow:visible;stroke-linecap:square;stroke-miterlimit:3}
	]]>
	</style>

	<g>
		<title>Page-1</title>
		<g id="group1909-1" transform="translate(20.6575,-28.3465)">
			<title>Firewall Policy</title>
			<g id="group1910-2">
				<title>g26</title>
				<g id="shape1911-3" transform="translate(-2.79776E-13,-7.05269)">
					<title>path4</title>
					<path d="M52.82 56.06 L2.23 56.06 A2.12226 2.08799 -180 0 0 -0 58.18 L0 83.77 A2.12226 2.08799 -180 0 0 2.16
								 85.85 L30.17 85.85 L30.17 75.78 A1.79114 1.76222 0 0 1 31.42 74.09 L31.89 74.09 A17.8843 17.5955
								 -180 0 0 43.56 69.91 A8.48709 8.35006 0 0 1 46.09 69.01 A14.6292 14.393 0 0 1 49.16 68.58 A14.3388
								 14.1073 0 0 1 52.23 68.87 C53.18 69.05 54.09 69.37 54.94 69.84 L54.94 58.18 A2.11838 2.08418 -180
								 0 0 52.82 56.06 L52.82 56.06 ZM37.38 76.36 L37.38 82.98 L52.23 82.98 L52.23 76.36 L37.38 76.36 Z"
							class="st1"/>
				</g>
				<g id="shape1912-5" transform="translate(3.1098,-27.4201)">
					<title>path6</title>
					<rect x="0" y="79.3775" width="14.8848" height="6.47735" class="st2"/>
				</g>
				<g id="shape1913-7" transform="translate(20.2273,-27.4201)">
					<title>path8</title>
					<rect x="0" y="79.3775" width="14.8848" height="6.47735" class="st3"/>
				</g>
				<g id="shape1914-9" transform="translate(3.1098,-18.7462)">
					<title>path10</title>
					<path d="M49.16 70.7 L34.27 70.7 L34.27 77.18 L49.16 77.18 L49.16 70.7 ZM6.18 79.38 L0 79.38 L0 85.85 L6.18 85.85
								 L6.18 79.38 Z" class="st2"/>
				</g>
				<g id="shape1915-11" transform="translate(11.5582,-18.7462)">
					<title>path12</title>
					<path d="M40.67 79.38 L40.67 80.67 A14.3388 14.1073 -180 0 0 37.6 80.28 A14.6312 14.395 -180 0 0 34.53 80.56
								 L34.53 79.38 L40.67 79.38 ZM14.89 79.38 L0 79.38 L0 85.85 L14.89 85.85 L14.89 79.38 Z" class="st3"/>
				</g>
				<g id="shape1916-13" transform="translate(3.1098,-10.038)">
					<title>path14</title>
					<path d="M40.45 70.67 L40.45 72.86 A17.8843 17.5955 0 0 1 28.78 77.04 L25.57 77.04 L25.57 70.67 L40.45 70.67
								 L40.45 70.67 ZM14.88 79.38 L0 79.38 L0 85.85 L14.88 85.85 L14.88 79.38 Z" class="st2"/>
				</g>
				<g id="shape1917-15" transform="translate(20.2273,-10.0742)">
					<title>path16</title>
					<rect x="0" y="79.3775" width="9.94711" height="6.47735" class="st3"/>
				</g>
				<g id="shape1918-17" transform="translate(23.7747,1.42109E-14)">
					<title>path18</title>
					<path d="M32.92 61.92 L32.92 65.34 L0 65.34 L0 84.92 a0.987546 0.971602 -180 0 0 1.02434 0.935405 L31.78 85.85
								 A1.0224 1.00589 -180 0 0 32.84 84.92 L32.84 61.93 L32.92 61.93 L32.92 61.92 ZM2.63 70.31 A1.35546
								 1.33357 0 1 1 3.99 71.64 A1.38837 1.36596 0 0 1 2.63 70.31 ZM3.99 82.4 A1.35352 1.33167 0 1 1 5.34
								 81.07 A1.39031 1.36786 0 0 1 3.99 82.4 L3.99 82.4 ZM3.99 76.72 A1.38837 1.36596 0 0 1 2.63 75.38
								 A1.35352 1.33167 0 1 1 5.34 75.38 A1.39031 1.36786 0 0 1 3.99 76.75 L3.99 76.72 L3.99 76.72 ZM29.26
								 81.61 C29.26 81.86 28.89 82.08 28.46 82.08 L8.16 82.08 C7.72 82.08 7.35 81.86 7.35 81.61 L7.35 80.35
								 C7.35 80.13 7.72 79.92 8.16 79.92 L28.46 79.92 C28.89 79.92 29.26 80.13 29.26 80.35 L29.26 81.61
								 ZM29.26 75.92 C29.26 76.18 28.89 76.39 28.46 76.39 L8.16 76.39 C7.72 76.39 7.35 76.18 7.35 75.92
								 L7.35 74.81 C7.35 74.56 7.72 74.38 8.16 74.38 L28.46 74.38 C28.89 74.38 29.26 74.56 29.26 74.81
								 L29.26 75.92 ZM29.26 70.85 C29.26 71.1 28.89 71.32 28.46 71.32 L8.16 71.32 C7.72 71.32 7.35 71.1
								 7.35 70.85 L7.35 69.73 C7.35 69.52 7.72 69.3 8.16 69.3 L28.46 69.3 C28.89 69.3 29.26 69.52 29.26
								 69.73 L29.26 70.85 Z" class="st4"/>
				</g>
				<g id="shape1919-19" transform="translate(23.7747,-3.45395)">
					<title>path20</title>
					<path d="M1.06 64.44 a0.917837 0.903019 -180 0 0 -1.06113 0.899208 L0 68.76 L32.92 68.76 L32.92 65.38 a0.948819
								 0.9335 -180 0 0 -0.987547 -0.863011 L1.06 64.52 L1.06 64.44 ZM28.45 77.83 L8.16 77.83 C7.72 77.83
								 7.35 78.01 7.35 78.26 L7.35 79.38 C7.35 79.63 7.72 79.85 8.16 79.85 L28.45 79.85 C28.89 79.85 29.26
								 79.63 29.26 79.38 L29.26 78.26 C29.26 78.01 28.89 77.83 28.46 77.83 L28.45 77.83 ZM28.45 72.76 L8.16
								 72.76 C7.72 72.76 7.35 72.97 7.35 73.19 L7.35 74.3 C7.35 74.56 7.72 74.77 8.16 74.77 L28.45 74.77
								 C28.89 74.77 29.26 74.56 29.26 74.3 L29.26 73.19 C29.26 73.01 28.89 72.76 28.46 72.76 L28.45 72.76
								 ZM28.45 83.52 L8.16 83.52 C7.72 83.52 7.35 83.73 7.35 83.95 L7.35 85.06 C7.35 85.32 7.72 85.53 8.16
								 85.53 L28.45 85.53 C28.89 85.53 29.26 85.32 29.26 85.06 L29.26 83.8 C29.26 83.8 28.89 83.52 28.46
								 83.52 L28.45 83.52 ZM3.99 75.09 A1.35352 1.33167 -180 1 0 3.99 72.43 A1.35352 1.33167 -180 0 0 3.99
								 75.09 ZM3.99 80.17 A1.35352 1.33167 -180 1 0 3.99 77.51 A1.35352 1.33167 -180 0 0 3.99 80.17 ZM3.99
								 85.85 A1.35352 1.33167 -180 1 0 3.99 83.19 A1.35352 1.33167 -180 0 0 3.99 85.85 Z" class="st5"/>
				</g>
			</g>
		</g>
	</g>
</svg>
