<?xml version="1.0" encoding="UTF-8" standalone="no"?>
<!DOCTYPE svg PUBLIC "-//W3C//DTD SVG 1.1//EN" "http://www.w3.org/Graphics/SVG/1.1/DTD/svg11.dtd">
<!-- Generated by Microsoft Visio, SVG Export Free Services.svg Page-1 -->
<svg xmlns="http://www.w3.org/2000/svg" xmlns:xlink="http://www.w3.org/1999/xlink" xmlns:ev="http://www.w3.org/2001/xml-events"
		width="0.944882in" height="1.17628in" viewBox="0 0 68.0315 84.6918" xml:space="preserve" color-interpolation-filters="sRGB"
		class="st10">
	<style type="text/css">
	<![CDATA[
		.st1 {fill:#7a7a7a;stroke:none;stroke-linecap:butt;stroke-width:5.32174}
		.st2 {fill:#a0a1a2;stroke:none;stroke-linecap:butt;stroke-width:5.32174}
		.st3 {fill:#ffffff;fill-opacity:0.2;stroke:none;stroke-linecap:butt;stroke-width:5.32174}
		.st4 {fill:#59b4d9;stroke:none;stroke-linecap:butt;stroke-width:5.32174}
		.st5 {fill:#b8d432;stroke:none;stroke-linecap:butt;stroke-width:5.32174}
		.st6 {fill:#ffffff;stroke:none;stroke-linecap:butt;stroke-width:5.32174}
		.st7 {fill:#ffffff;fill-opacity:0.7;stroke:none;stroke-linecap:butt;stroke-width:5.32174}
		.st8 {fill:#ffffff;fill-opacity:0.4;stroke:none;stroke-linecap:butt;stroke-width:5.32174}
		.st9 {fill:#ba141a;stroke:none;stroke-linecap:butt;stroke-width:5.32174}
		.st10 {fill:none;fill-rule:evenodd;font-size:12px;overflow:visible;stroke-linecap:square;stroke-miterlimit:3}
	]]>
	</style>

	<g>
		<title>Page-1</title>
		<g id="group1885-1" transform="translate(5.66929,-28.3465)">
			<title>Free Services</title>
			<g id="group1886-2">
				<title>g26</title>
				<g id="shape1887-3" transform="translate(9.87348,2.55795E-13)">
					<title>path4</title>
					<path d="M26.91 74.07 L10.35 74.07 C12.21 80.44 10.88 81.38 0 81.38 L0 84.69 L37.05 84.69 L37.05 81.38 C26.12
								 81.38 25.06 80.44 26.91 74.07 Z" class="st1"/>
				</g>
				<g id="shape1888-5" transform="translate(0,-10.6191)">
					<title>path6</title>
					<path d="M53.24 44.29 L3.08 44.29 C1.38 44.29 0 45.79 0 47.45 L0 81.58 C0 83.24 1.38 84.69 3.08 84.69 L53.24
								 84.69 C54.94 84.69 56.64 83.24 56.64 81.58 L56.64 47.45 C56.69 45.79 54.94 44.29 53.24 44.29 Z"
							class="st2"/>
				</g>
				<g id="shape1889-7" transform="translate(0,-10.6191)">
					<title>path8</title>
					<path d="M53.3 44.29 L3.08 44.29 C1.38 44.29 0 45.79 0 47.45 L0 81.58 C0 83.24 1.38 84.69 3.08 84.69 L4.25 84.69
								 L53.3 44.29 Z" class="st3"/>
				</g>
				<g id="shape1890-9" transform="translate(4.29974,-14.8668)">
					<title>path10</title>
					<rect x="0" y="52.7826" width="47.9873" height="31.9092" class="st4"/>
				</g>
				<g id="shape1891-11" transform="translate(4.29974,-14.8668)">
					<title>path12</title>
					<path d="M0 84.69 L0.11 84.69 L0.11 52.78 L43.9 52.73 L0 52.78 L0 84.69 Z" class="st4"/>
				</g>
				<g id="shape1892-13" transform="translate(9.8204,0)">
					<title>path14</title>
					<rect x="0" y="81.3766" width="37.0521" height="3.31524" class="st2"/>
				</g>
				<g id="shape1893-15" transform="translate(27.3379,-47.9156)">
					<title>path16</title>
					<path d="M1.59 83.91 C1.59 84.33 1.22 84.69 0.8 84.69 C0.37 84.69 0 84.33 0 83.91 C0 83.5 0.37 83.14 0.8 83.14
								 C1.22 83.14 1.59 83.5 1.59 83.91 Z" class="st5"/>
				</g>
				<g id="shape1894-17" transform="translate(21.0741,-25.7449)">
					<title>path18</title>
					<path d="M7.33 84.69 C7.27 84.69 7.27 84.69 7.22 84.64 L0.11 80.65 C0.05 80.6 0 80.55 0 80.44 C0 80.39 0.05 80.29
								 0.11 80.29 L7.17 76.3 C7.22 76.25 7.33 76.25 7.38 76.3 L14.49 80.29 C14.54 80.34 14.6 80.39 14.6
								 80.44 C14.6 80.5 14.54 80.6 14.49 80.6 L7.43 84.59 L7.33 84.69 Z" class="st6"/>
				</g>
				<g id="shape1895-19" transform="translate(20.0655,-16.0582)">
					<title>path20</title>
					<path d="M7.27 84.69 C7.22 84.69 7.22 84.69 7.17 84.64 L0.11 80.65 C0.05 80.6 0 80.55 0 80.44 L0 72.52 C0 72.47
								 0.05 72.36 0.11 72.31 C0.16 72.26 0.27 72.26 0.32 72.31 L7.38 76.3 C7.43 76.35 7.48 76.4 7.48 76.51
								 L7.48 84.48 C7.48 84.54 7.43 84.64 7.38 84.69 L7.27 84.69 Z" class="st7"/>
				</g>
				<g id="shape1896-21" transform="translate(29.1427,-16.0582)">
					<title>path22</title>
					<path d="M0.21 84.69 C0.16 84.69 0.16 84.69 0.11 84.64 C0.05 84.59 0 84.54 0 84.43 L0 76.56 C0 76.51 0.05 76.4
								 0.11 76.35 L7.17 72.36 C7.22 72.31 7.33 72.31 7.38 72.36 C7.43 72.42 7.48 72.47 7.48 72.52 L7.48
								 80.44 C7.48 80.5 7.43 80.6 7.38 80.65 L0.32 84.64 C0.32 84.69 0.27 84.69 0.21 84.69 Z" class="st8"/>
				</g>
				<g id="shape1897-23" transform="translate(14.4917,-29.63)">
					<title>path24</title>
					<path d="M4.57 67.96 C14.23 74.59 13.96 83.29 13.96 83.29 C13.96 83.29 11.31 75.01 0 71.59 L6.05 71.74 L4.57
								 67.96 ZM21.5 72.16 C13.85 76.56 13.38 83.5 13.38 83.5 C13.38 83.5 15.98 77.03 24.68 75.16 L20.12
								 74.95 L21.5 72.16 ZM13.91 82.41 C13.8 82.26 11.63 79.05 7.86 77.54 C5.41 76.61 3.56 76.3 2.28 76.77
								 C1.59 77.03 1.11 77.44 0.85 78.06 C0.42 79.1 0.48 81.12 5.52 83.09 C9.29 84.59 13.16 83.71 13.32
								 83.66 L14.44 83.24 L13.91 82.41 ZM7.22 79.1 C9.24 79.87 10.78 81.27 11.63 82.26 C10.3 82.36 8.23
								 82.36 6.21 81.53 C3.29 80.39 2.23 79.2 2.44 78.63 C2.49 78.53 2.55 78.37 2.87 78.32 C3.24 78.16
								 4.46 78.01 7.22 79.1 ZM14.33 83.5 C14.49 83.55 18.26 84.69 22.19 83.55 C24.68 82.78 26.33 81.84
								 27.02 80.75 C27.39 80.13 27.5 79.51 27.28 78.89 C26.97 77.8 25.59 76.3 20.38 77.85 C16.51 79.05
								 14.01 82.1 13.91 82.21 L13.22 83.09 L14.33 83.5 ZM21.71 81.95 C19.64 82.57 17.57 82.41 16.24 82.21
								 C17.2 81.32 18.84 80.03 20.91 79.41 C23.94 78.48 25.48 78.73 25.69 79.36 C25.75 79.46 25.75 79.62
								 25.59 79.87 C25.37 80.19 24.58 81.07 21.71 81.95 Z" class="st9"/>
				</g>
			</g>
		</g>
	</g>
</svg>
