<?xml version="1.0" encoding="UTF-8" standalone="no"?>
<!DOCTYPE svg PUBLIC "-//W3C//DTD SVG 1.1//EN" "http://www.w3.org/Graphics/SVG/1.1/DTD/svg11.dtd">
<!-- Generated by Microsoft Visio, SVG Export Genomics Account.svg Page-1 -->
<svg xmlns="http://www.w3.org/2000/svg" xmlns:xlink="http://www.w3.org/1999/xlink" xmlns:ev="http://www.w3.org/2001/xml-events"
		width="0.677873in" height="1.32304in" viewBox="0 0 48.8069 95.2585" xml:space="preserve" color-interpolation-filters="sRGB"
		class="st3">
	<style type="text/css">
	<![CDATA[
		.st1 {fill:#ff8c00;stroke:none;stroke-linecap:butt;stroke-width:10.2}
		.st2 {fill:#59b4d9;stroke:none;stroke-linecap:butt;stroke-width:10.2}
		.st3 {fill:none;fill-rule:evenodd;font-size:12px;overflow:visible;stroke-linecap:square;stroke-miterlimit:3}
	]]>
	</style>

	<g>
		<title>Page-1</title>
		<g id="group1874-1" transform="translate(10.2294,-28.3465)">
			<title>Genomics Account</title>
			<g id="group1875-2">
				<title> Microsoft Genomics icon</title>
				<g id="shape1876-3" transform="translate(0.292719,0)">
					<title>Sheet.1876</title>
					<path d="M10.68 75.08 C10.45 74.93 10.27 74.83 10.11 74.7 C8.79 73.63 7.41 72.64 6.19 71.46 A6.39916 6.59608
								 0 0 1 5.04 64.01 A11.7246 12.0854 0 0 1 8.09 60.6 A48.0299 49.508 0 0 1 16.7 55.23 A28.7444 29.629
								 -180 0 0 22.48 51.64 A15.4042 15.8782 -180 0 0 27.9 42.45 A11.1946 11.5391 -180 0 0 28.05 41.28
								 A2.32622 2.3978 -180 1 0 23.44 40.67 C22.79 44.78 20.4 47.59 17.06 49.62 C15.46 50.59 13.77 51.38
								 12.14 52.28 A37.3744 38.5246 -180 0 0 3.88 58.09 C2.31 59.63 0.83 61.25 0.22 63.48 A10.7279 11.0581
								 -180 0 0 3 74.95 C3.84 75.83 4.79 76.61 5.7 77.41 a0.689521 0.71074 -180 0 0 0.589577 0.147441 C7.74
								 76.77 9.17 75.94 10.68 75.08 ZM16.99 83.7 C17.49 84.03 17.96 84.34 18.42 84.63 A9.71289 10.0118
								 0 0 1 23.21 91.97 C23.27 92.37 23.29 92.79 23.36 93.2 A2.30604 2.37701 -180 0 0 25.87 95.26 A2.25836
								 2.32786 -180 0 0 27.95 92.86 A13.2641 13.6723 -180 0 0 24.78 84.07 A31.5832 32.5551 -180 0 0 22.08
								 81.44 a0.673933 0.694673 -180 0 0 -0.58866 -0.137044 C20.01 82.07 18.54 82.87 16.99 83.7 Z"
							class="st1"/>
				</g>
				<g id="shape1877-5" transform="translate(0,-0.00327027)">
					<title>Sheet.1877</title>
					<path d="M5.25 43.63 A9.19667 9.47969 -180 0 0 6.84 46.69 L16.87 46.69 A17.5278 18.0672 0 0 1 15.19 47.84 C14.87
								 48.04 14.54 48.22 14.21 48.41 L8.54 48.41 A12.4343 12.817 -180 0 0 9.63 49.2 C10.09 49.5 10.56 49.8
								 11.06 50.13 C9.5 50.96 8.04 51.76 6.56 52.53 a0.67485 0.695618 0 0 1 -0.58866 -0.137044 A31.5227
								 32.4927 0 0 1 3.27 49.76 A13.2641 13.6723 0 0 1 0.1 40.97 A2.25836 2.32786 0 0 1 2.18 38.57 A2.30604
								 2.37701 0 0 1 4.69 40.63 C4.76 41.04 4.79 41.46 4.84 41.86 C4.84 41.88 4.84 41.89 4.85 41.91 L20.67
								 41.91 L20.67 41.97 A10.9755 11.3132 0 0 1 19.75 43.63 L5.25 43.63 ZM0.15 91.38 A15.4042 15.8782
								 0 0 1 5.58 82.18 A28.738 29.6224 0 0 1 11.35 78.6 A48.0537 49.5325 -180 0 0 19.96 73.23 C20.26 72.98
								 20.55 72.72 20.84 72.46 L10.91 72.46 A20.6911 21.3279 0 0 1 9.88 71.54 A4.95135 5.10372 0 0 1 9.22
								 70.74 L22.42 70.74 A7.06025 7.27752 -180 0 0 23.01 69.82 A5.51892 5.68876 -180 0 0 23.61 67.64 L8.13
								 67.64 A6.66048 6.86545 0 0 1 8.16 65.92 L23.57 65.92 A6.23503 6.42691 -180 0 0 22.32 62.91 L9.52
								 62.91 A13.3384 13.7489 0 0 1 11.19 61.19 L20.5 61.19 C19.65 60.5 18.79 59.82 17.94 59.13 C17.78
								 59 17.6 58.9 17.37 58.75 C18.88 57.89 20.31 57.06 21.76 56.26 a0.689521 0.71074 0 0 1 0.589577 0.146496
								 C23.26 57.21 24.2 57.99 25.04 58.88 A10.7279 11.0581 0 0 1 27.84 70.34 C27.23 72.58 25.74 74.2 24.17
								 75.73 A37.3781 38.5284 0 0 1 15.92 81.54 C14.29 82.44 12.59 83.23 11 84.2 A17.1225 17.6494 -180
								 0 0 8.99 85.64 L15.69 85.64 L15.8 85.71 A11.6072 11.9644 0 0 1 17.83 87.36 L7.25 87.36 A11.1084
								 11.4503 -180 0 0 5.37 90.45 L19.88 90.45 A9.74315 10.043 0 0 1 20.42 92.17 L4.83 92.17 C4.75 92.49
								 4.67 92.81 4.61 93.16 A2.32622 2.3978 0 1 1 0 92.55 A11.2075 11.5524 0 0 1 0.15 91.38 Z"
							class="st2"/>
				</g>
			</g>
		</g>
	</g>
</svg>
