<?xml version="1.0" encoding="UTF-8" standalone="no"?>
<!DOCTYPE svg PUBLIC "-//W3C//DTD SVG 1.1//EN" "http://www.w3.org/Graphics/SVG/1.1/DTD/svg11.dtd">
<!-- Generated by Microsoft Visio, SVG Export Geo-Replication.svg Page-1 -->
<svg xmlns="http://www.w3.org/2000/svg" xmlns:xlink="http://www.w3.org/1999/xlink" xmlns:ev="http://www.w3.org/2001/xml-events"
		width="1.00243in" height="1.34407in" viewBox="0 0 72.1746 96.7732" xml:space="preserve" color-interpolation-filters="sRGB"
		class="st5">
	<style type="text/css">
	<![CDATA[
		.st1 {fill:#ff8c00;stroke:none;stroke-linecap:butt;stroke-width:12.24}
		.st2 {fill:#fcd116;stroke:none;stroke-linecap:butt;stroke-width:12.24}
		.st3 {fill:#59b4d9;stroke:#59b4d9;stroke-linecap:butt;stroke-width:2.83968}
		.st4 {fill:#b8d432;stroke:none;stroke-linecap:butt;stroke-width:12.24}
		.st5 {fill:none;fill-rule:evenodd;font-size:12px;overflow:visible;stroke-linecap:square;stroke-miterlimit:3}
	]]>
	</style>

	<g>
		<title>Page-1</title>
		<g id="group1867-1" transform="translate(11.7456,-28.3465)">
			<title>Geo-Replication</title>
			<g id="group1868-2">
				<title>g14</title>
				<g id="shape1869-3" transform="translate(10.4008,7.10543E-14)">
					<title>path4</title>
					<path d="M13.02 85.93 L8.71 85.93 C9.75 92.43 6.15 93.37 0 93.37 L0 96.77 L20.92 96.77 L20.92 93.37 C14.77 93.37
								 11.98 92.44 13.02 85.93 Z" class="st1"/>
				</g>
				<g id="shape1870-5" transform="translate(10.403,2.84217E-14)">
					<title>path6</title>
					<rect x="0" y="93.3662" width="20.9229" height="3.40706" class="st2"/>
				</g>
				<g id="shape1871-7" transform="translate(0.598702,-12.9686)">
					<title>path8</title>
					<path d="M22.8 88.31 A2.52919 2.60137 0 0 1 26.38 88.31 L22.38 84.2 A2.52926 2.60144 0 1 1 25.96 80.52 L27.02
								 81.61 L27.85 82.38 L29.8 84.39 A2.52926 2.60144 -180 0 0 33.38 80.71 L31.42 78.7 L30.18 77.43 L24.23
								 71.31 A2.52926 2.60144 0 1 1 27.81 67.63 L30.42 70.31 A2.52926 2.60144 0 1 1 33.99 66.63 L40.76
								 73.59 A20.3537 20.9345 -180 0 0 34.8 59.71 A20.3602 20.9413 -180 0 0 22.42 53.67 L25.45 56.79 A3.19132
								 3.28239 0 0 1 20.94 61.43 L18.87 59.29 A3.19132 3.28239 -180 0 0 14.35 63.94 L18.44 68.14 A3.19132
								 3.28239 0 0 1 13.93 72.78 L9.44 68.17 A3.19017 3.2812 0 0 1 4.28 71.85 L7.55 75.21 A3.19132 3.28239
								 0 0 1 3.04 79.85 L0 76.73 A20.357 20.9379 -180 0 0 5.88 89.46 C11.23 94.96 18.81 96.77 25.63 94.9
								 L22.8 91.99 A2.53137 2.60361 0 0 1 22.8 88.31 Z" class="st3"/>
				</g>
				<g id="shape1872-9" transform="translate(2.43805E-13,-14.843)">
					<title>path10</title>
					<path d="M41.36 75.47 L34.6 68.51 A2.52926 2.60144 -180 1 0 31.02 72.19 L28.41 69.5 A2.52926 2.60144 -180 1 0
								 24.83 73.18 L30.79 79.3 L32.02 80.58 L33.98 82.59 A2.52926 2.60144 0 0 1 30.4 86.27 L28.45 84.26
								 L27.62 83.48 L26.56 82.39 A2.52926 2.60144 -180 1 0 22.98 86.07 L26.98 90.18 A2.52926 2.60144 -180
								 0 0 23.4 93.86 L26.23 96.77 A20.3428 20.9233 -180 0 0 35.4 91.33 A20.4007 20.9829 -180 0 0 41.36
								 75.47 ZM8.15 81.72 A3.19017 3.2812 -180 0 0 8.15 77.08 L4.88 73.72 A3.19017 3.2812 -180 1 0 10.04
								 70.04 L14.53 74.66 A3.19132 3.28239 -180 0 0 19.04 70.01 L14.95 65.81 A3.19132 3.28239 0 1 1 19.46
								 61.17 L21.54 63.3 A3.19132 3.28239 -180 0 0 26.05 58.66 L23.02 55.54 C17.12 54.92 11 56.94 6.48
								 61.59 C1.96 66.24 0 72.53 0.6 78.6 L3.63 81.72 A3.19017 3.2812 -180 0 0 8.15 81.72 Z" class="st4"/>
				</g>
				<g id="shape1873-11" transform="translate(1.67047,-7.12875)">
					<title>path12</title>
					<path d="M19.27 96.77 C11.99 96.77 5.15 93.86 0 88.56 A1.9012 1.95545 0 1 1 2.69 85.8 A23.2926 23.9573 -180 0
								 0 19.27 92.86 A23.2926 23.9573 -180 0 0 35.85 85.8 C40.28 81.24 42.72 75.19 42.72 68.75 C42.72 62.3
								 40.28 56.25 35.85 51.69 A1.9012 1.95545 0 0 1 38.54 48.93 C43.68 54.22 46.52 61.26 46.52 68.75 C46.52
								 76.23 43.68 83.27 38.54 88.56 C33.39 93.86 26.55 96.77 19.27 96.77 Z" class="st2"/>
				</g>
			</g>
		</g>
	</g>
</svg>
