<?xml version="1.0" encoding="UTF-8" standalone="no"?>
<!DOCTYPE svg PUBLIC "-//W3C//DTD SVG 1.1//EN" "http://www.w3.org/Graphics/SVG/1.1/DTD/svg11.dtd">
<!-- Generated by Microsoft Visio, SVG Export Hdinsight Cluster.svg Page-1 -->
<svg xmlns="http://www.w3.org/2000/svg" xmlns:xlink="http://www.w3.org/1999/xlink" xmlns:ev="http://www.w3.org/2001/xml-events"
		width="1.73185in" height="1.73185in" viewBox="0 0 124.693 124.693" xml:space="preserve" color-interpolation-filters="sRGB"
		class="st5">
	<style type="text/css">
	<![CDATA[
		.st1 {fill:none;stroke:none;stroke-linecap:butt;stroke-width:34}
		.st2 {fill:#0078d4;stroke:none;stroke-linecap:butt;stroke-width:34}
		.st3 {fill:url(#grad0-10);stroke:none;stroke-linecap:butt;stroke-width:34}
		.st4 {fill:#5ea0ef;stroke:none;stroke-linecap:butt;stroke-width:34}
		.st5 {fill:none;fill-rule:evenodd;font-size:12px;overflow:visible;stroke-linecap:square;stroke-miterlimit:3}
	]]>
	</style>

	<defs id="Patterns_And_Gradients">
		<linearGradient id="grad0-10" x1="0" y1="0" x2="1" y2="0" gradientTransform="rotate(-90 0.5 0.5)">
			<stop offset="0.09" stop-color="#32bedd" stop-opacity="1"/>
			<stop offset="0.21" stop-color="#3bcae7" stop-opacity="1"/>
			<stop offset="0.42" stop-color="#47daf5" stop-opacity="1"/>
			<stop offset="0.66" stop-color="#4ee3fd" stop-opacity="1"/>
			<stop offset="1" stop-color="#50e6ff" stop-opacity="1"/>
		</linearGradient>
	</defs>
	<g>
		<title>Page-1</title>
		<g id="group1859-1" transform="translate(34,-34)">
			<title>Hdinsight Cluster</title>
			<g id="group1860-2">
				<title>Icon-analytics-142</title>
				<g id="shape1861-3">
					<title>Sheet.1861</title>
					<rect x="0" y="68" width="56.6929" height="56.6929" class="st1"/>
				</g>
				<g id="shape1862-5" transform="translate(1.58264,-2.23622)">
					<title>Sheet.1862</title>
					<path d="M21.47 107.53 L31.9 107.53 a0.88189 0.88189 -180 0 0 0.850394 -0.692913 A11.6535 11.6535 0 0 1 36.97
								 100.06 a0.850394 0.850394 -180 0 0 0.220472 -1.13386 L31.77 89.48 a0.850394 0.850394 -180 0 0 -1.07087
								 -0.346457 A12.189 12.189 0 0 1 26.76 89.86 A11.2126 11.2126 0 0 1 22.7 89.13 a0.88189 0.88189 -180
								 0 0 -1.07087 0.409449 L16.21 98.99 a0.88189 0.88189 -180 0 0 0.220472 1.13386 A11.6535 11.6535 0
								 0 1 20.62 106.87 a0.850394 0.850394 -180 0 0 0.850394 0.661417 ZM15.17 78.27 L8.87 78.27 a0.850394
								 0.850394 -180 0 0 -0.755906 0.440945 L0.12 92.47 a0.88189 0.88189 -180 0 0 -3.55271E-14 0.88189
								 L3.05 98.39 a0.913386 0.913386 -180 0 0 1.16535 0.377953 A11.4016 11.4016 0 0 1 9.25 97.61 A8.47244
								 8.47244 0 0 1 10.51 97.61 a0.976378 0.976378 -180 0 0 0.88189 -0.440945 L13.88 92.91 L17.63 86.43
								 a0.850394 0.850394 -180 0 0 0 -0.976378 A11.4961 11.4961 0 0 1 15.05 78.27 L15.17 78.27 ZM45.47
								 78.71 a0.850394 0.850394 -180 0 0 -0.755906 -0.440945 L38.42 78.27 A11.5591 11.5591 0 0 1 35.96
								 85.42 a0.850394 0.850394 -180 0 0 -7.10543E-15 0.976378 L39.74 92.91 L42.23 97.23 a0.88189 0.88189
								 -180 0 0 0.88189 0.440945 L44.31 97.67 A11.874 11.874 0 0 1 49.38 98.83 a0.850394 0.850394 -180
								 0 0 0.976378 -0.251969 L53.28 93.51 a0.88189 0.88189 -180 0 0 7.10543E-15 -0.88189 L45.47 78.71
								 ZM32.34 112.57 L21.03 112.57 a0.88189 0.88189 -180 0 0 -0.850394 0.566929 A11.4646 11.4646 0 0 1
								 15.8 118.77 a0.913386 0.913386 -180 0 0 -0.283465 1.19685 L18.01 124.25 a0.913386 0.913386 -180
								 0 0 0.755906 0.440945 L34.67 124.69 a0.913386 0.913386 -180 0 0 0.755906 -0.440945 L37.88 120 a0.88189
								 0.88189 -180 0 0 -0.283465 -1.19685 A11.5906 11.5906 0 0 1 33.19 113.13 a0.88189 0.88189 -180 0
								 0 -0.850394 -0.566929 Z" class="st2"/>
				</g>
				<g id="shape1863-7" transform="translate(5.00787,-11.874)">
					<title>Sheet.1863</title>
					<ellipse cx="5.82677" cy="118.866" rx="5.82677" ry="5.82677" class="st3"/>
				</g>
				<g id="shape1864-11" transform="translate(39.874,-11.874)">
					<title>Sheet.1864</title>
					<ellipse cx="5.82677" cy="118.866" rx="5.82677" ry="5.82677" class="st3"/>
				</g>
				<g id="shape1865-14" transform="translate(22.4567,-42.8346)">
					<title>Sheet.1865</title>
					<ellipse cx="5.82677" cy="118.866" rx="5.82677" ry="5.82677" class="st3"/>
				</g>
				<g id="shape1866-17" transform="translate(27.0236,-2.23622)">
					<title>Sheet.1866</title>
					<path d="M18.68 90.46 A18.6772 18.6772 -180 0 0 13.17 91.28 L14.11 92.91 L16.6 97.23 a0.88189 0.88189 -180 0
								 0 0.88189 0.440945 L18.68 97.67 A11.874 11.874 0 0 1 23.75 98.83 a0.850394 0.850394 -180 0 0 1.16535
								 -0.251969 L27.4 94.3 L28.06 93.13 A18.5197 18.5197 -180 0 0 18.68 90.46 ZM7.31 106.83 A11.6535 11.6535
								 0 0 1 11.53 100.06 a0.850394 0.850394 -180 0 0 0.220472 -1.13386 L8.6 93.39 A18.8976 18.8976 -180
								 0 0 0 107.53 L6.49 107.53 a0.88189 0.88189 -180 0 0 0.818898 -0.692913 ZM7.75 113.13 a0.88189 0.88189
								 -180 0 0 -0.850394 -0.566929 L0.19 112.57 A18.8976 18.8976 -180 0 0 8.06 124.69 L9.23 124.69 a0.913386
								 0.913386 -180 0 0 0.755906 -0.440945 L12.44 120 a0.88189 0.88189 -180 0 0 -0.283465 -1.19685 A11.5906
								 11.5906 0 0 1 7.62 113.13 L7.75 113.13 Z" class="st4"/>
				</g>
			</g>
		</g>
	</g>
</svg>
