<?xml version="1.0" encoding="UTF-8" standalone="no"?>
<!DOCTYPE svg PUBLIC "-//W3C//DTD SVG 1.1//EN" "http://www.w3.org/Graphics/SVG/1.1/DTD/svg11.dtd">
<!-- Generated by Microsoft Visio, SVG Export Host Group.svg Page-1 -->
<svg xmlns="http://www.w3.org/2000/svg" xmlns:xlink="http://www.w3.org/1999/xlink" xmlns:ev="http://www.w3.org/2001/xml-events"
		width="0.944882in" height="1.25984in" viewBox="0 0 68.0315 90.7087" xml:space="preserve" color-interpolation-filters="sRGB"
		class="st6">
	<style type="text/css">
	<![CDATA[
		.st1 {fill:#198ab3;stroke:none;stroke-linecap:butt;stroke-width:0.75}
		.st2 {fill:#32bedd;stroke:none;stroke-linecap:butt;stroke-width:0.75}
		.st3 {fill:url(#grad0-10);stroke:none;stroke-linecap:butt;stroke-width:0.75}
		.st4 {fill:#b4ec36;stroke:none;stroke-linecap:butt;stroke-width:0.75}
		.st5 {fill:none;stroke:none;stroke-linecap:butt;stroke-width:0.75}
		.st6 {fill:none;fill-rule:evenodd;font-size:12px;overflow:visible;stroke-linecap:square;stroke-miterlimit:3}
	]]>
	</style>

	<defs id="Patterns_And_Gradients">
		<linearGradient id="grad0-10" x1="0" y1="0" x2="1" y2="0" gradientTransform="rotate(-90 0.5 0.5)">
			<stop offset="0" stop-color="#198ab3" stop-opacity="1"/>
			<stop offset="0.1" stop-color="#1c93bb" stop-opacity="1"/>
			<stop offset="0.7" stop-color="#2cc2e5" stop-opacity="1"/>
			<stop offset="1" stop-color="#32d4f5" stop-opacity="1"/>
		</linearGradient>
	</defs>
	<g>
		<title>Page-1</title>
		<g id="group1832-1" transform="translate(5.66929,-28.3465)">
			<title>Host Group</title>
			<g id="group1833-2">
				<title>g39</title>
				<g id="shape1834-3" transform="translate(2.8777E-13,-21.1215)">
					<title>path17</title>
					<path d="M46.75 55.14 L2.54 55.14 A2.50495 2.27979 -180 0 0 0 57.42 L0 67.74 A2.54179 2.31331 -180 0 0 2.54 70.06
								 L46.75 70.06 A2.54179 2.31331 -180 0 0 49.29 67.74 L49.29 57.42 A2.54179 2.31331 -180 0 0 46.75
								 55.14 ZM46.75 75.79 L2.54 75.79 A2.50495 2.27979 -180 0 0 0 78.07 L0 88.4 A2.54179 2.31331 -180
								 0 0 2.54 90.71 L46.75 90.71 A2.54179 2.31331 -180 0 0 49.29 88.4 L49.29 78.07 A2.50495 2.27979 -180
								 0 0 46.75 75.79 Z" class="st1"/>
				</g>
				<g id="shape1835-5" transform="translate(28.8806,-7.37578)">
					<title>path19</title>
					<rect x="0" y="56.3107" width="3.68375" height="34.3979" class="st2"/>
				</g>
				<g id="shape1836-7" transform="translate(7.51485,-38.4211)">
					<title>path21</title>
					<path d="M47.08 77.03 L2.1 77.03 A2.09974 1.911 -180 0 0 -0 78.94 L0 89 A2.09974 1.911 -180 0 0 2.1 90.71 L47.08
								 90.71 A2.09974 1.911 -180 0 0 49.18 88.8 L49.18 78.74 A2.09974 1.911 -180 0 0 47.08 77.03 Z"
							class="st3"/>
				</g>
				<g id="group1837-11" transform="translate(48.6255,-40.6003)">
					<title>g27</title>
					<g id="shape1838-12" transform="translate(0,-6.06825)">
						<title>rect23</title>
						<path d="M0 90.21 a0.552575 0.502906 -180 0 0 0.552563 0.502894 L3.32 90.71 a0.552575 0.502906 -180 0 0 0.552563
									 -0.502894 L3.87 87.69 a0.552575 0.502906 -180 0 0 -0.552563 -0.502894 L0.55 87.19 a0.552575
									 0.502906 -180 0 0 -0.552563 0.502894 L0 90.21 Z" class="st4"/>
					</g>
					<g id="shape1839-14">
						<title>rect25</title>
						<path d="M0 90.21 a0.552575 0.502906 -180 0 0 0.552563 0.502894 L3.32 90.71 a0.552575 0.502906 -180 0 0 0.552563
									 -0.502894 L3.87 87.69 a0.552575 0.502906 -180 0 0 -0.552563 -0.502894 L0.55 87.19 a0.552575
									 0.502906 -180 0 0 -0.552563 0.502894 L0 90.21 Z" class="st4"/>
					</g>
				</g>
				<g id="shape1840-16" transform="translate(7.51485,-17.5678)">
					<title>path29</title>
					<path d="M47.08 76.83 L2.1 76.83 A2.09974 1.911 -180 0 0 0 78.74 L0 88.8 A2.09974 1.911 -180 0 0 2.1 90.71 L47.08
								 90.71 A2.09974 1.911 -180 0 0 49.18 88.8 L49.18 78.74 A2.09974 1.911 -180 0 0 47.08 76.83 Z"
							class="st5"/>
				</g>
				<g id="shape1841-18" transform="translate(25.1969,0)">
					<title>circle31</title>
					<ellipse cx="5.56246" cy="85.6462" rx="5.56246" ry="5.06247" class="st5"/>
				</g>
				<g id="shape1842-20" transform="translate(7.51485,-17.7689)">
					<title>path21-5</title>
					<path d="M47.08 77.03 L2.1 77.03 A2.09974 1.911 -180 0 0 0 78.94 L0 89 A2.09974 1.911 -180 0 0 2.1 90.71 L47.08
								 90.71 A2.09974 1.911 -180 0 0 49.18 88.8 L49.18 78.74 A2.09974 1.911 -180 0 0 47.08 77.03 Z"
							class="st3"/>
				</g>
				<g id="group1843-23" transform="translate(48.6255,-19.9481)">
					<title>g27-1</title>
					<g id="shape1844-24" transform="translate(0,-6.06825)">
						<title>rect23-9</title>
						<path d="M0 90.21 a0.552575 0.502906 -180 0 0 0.552563 0.502894 L3.32 90.71 a0.552575 0.502906 -180 0 0 0.552563
									 -0.502894 L3.87 87.69 a0.552575 0.502906 -180 0 0 -0.552563 -0.502894 L0.55 87.19 a0.552575
									 0.502906 -180 0 0 -0.552563 0.502894 L0 90.21 Z" class="st4"/>
					</g>
					<g id="shape1845-26">
						<title>rect25-4</title>
						<path d="M0 90.21 a0.552575 0.502906 -180 0 0 0.552563 0.502894 L3.32 90.71 a0.552575 0.502906 -180 0 0 0.552563
									 -0.502894 L3.87 87.69 a0.552575 0.502906 -180 0 0 -0.552563 -0.502894 L0.55 87.19 a0.552575
									 0.502906 -180 0 0 -0.552563 0.502894 L0 90.21 Z" class="st4"/>
					</g>
				</g>
			</g>
		</g>
	</g>
</svg>
