<?xml version="1.0" encoding="UTF-8" standalone="no"?>
<!DOCTYPE svg PUBLIC "-//W3C//DTD SVG 1.1//EN" "http://www.w3.org/Graphics/SVG/1.1/DTD/svg11.dtd">
<!-- Generated by Microsoft Visio, SVG Export Hunting.svg Page-1 -->
<svg xmlns="http://www.w3.org/2000/svg" xmlns:xlink="http://www.w3.org/1999/xlink" xmlns:ev="http://www.w3.org/2001/xml-events"
		width="1.31865in" height="1.44673in" viewBox="0 0 94.9429 104.164" xml:space="preserve" color-interpolation-filters="sRGB"
		class="st3">
	<style type="text/css">
	<![CDATA[
		.st1 {fill:#0072c6;stroke:none;stroke-linecap:butt;stroke-width:19.125}
		.st2 {fill:#ae0d1a;stroke:none;stroke-linecap:butt;stroke-width:19.125}
		.st3 {fill:none;fill-rule:evenodd;font-size:12px;overflow:visible;stroke-linecap:square;stroke-miterlimit:3}
	]]>
	</style>

	<g>
		<title>Page-1</title>
		<g id="group1807-1" transform="translate(19.125,-28.3465)">
			<title>Hunting</title>
			<g id="group1808-2">
				<title>g8</title>
				<g id="shape1809-3" transform="translate(7.93701,-7.93701)">
					<title>path4</title>
					<path d="M20.41 63.35 A20.4094 20.4094 -180 1 0 20.41 104.16 A20.4094 20.4094 -180 0 0 20.41 63.35 ZM20.41 97.2
								 A13.5514 13.5514 0 0 1 20.41 70.11 A13.5514 13.5514 0 0 1 20.41 97.2 Z" class="st1"/>
				</g>
				<g id="shape1810-5">
					<title>path6</title>
					<path d="M55.78 74.9 L29.26 74.9 L29.26 48.39 a0.914402 0.914402 -180 1 0 -1.8288 7.10543E-15 L27.43 74.9 L0.91
								 74.9 a0.914402 0.914402 -180 1 0 -1.27676E-14 1.8288 L27.43 76.73 L27.43 103.25 a0.914402 0.914402
								 -180 1 0 1.8288 1.42109E-14 L29.26 76.73 L55.78 76.73 a0.914402 0.914402 -180 1 0 0 -1.8288 Z"
							class="st2"/>
				</g>
			</g>
		</g>
	</g>
</svg>
