<?xml version="1.0" encoding="UTF-8" standalone="no"?>
<!DOCTYPE svg PUBLIC "-//W3C//DTD SVG 1.1//EN" "http://www.w3.org/Graphics/SVG/1.1/DTD/svg11.dtd">
<!-- Generated by Microsoft Visio, SVG Export Identity Governance.svg Page-1 -->
<svg xmlns="http://www.w3.org/2000/svg" xmlns:xlink="http://www.w3.org/1999/xlink" xmlns:ev="http://www.w3.org/2001/xml-events"
		width="1.08177in" height="1.33086in" viewBox="0 0 77.8874 95.822" xml:space="preserve" color-interpolation-filters="sRGB"
		class="st6">
	<style type="text/css">
	<![CDATA[
		.st1 {fill:#e5e5e5;stroke:none;stroke-linecap:butt;stroke-width:12.24}
		.st2 {fill:#ffffff;fill-opacity:0.5;stroke:none;stroke-linecap:butt;stroke-width:12.24}
		.st3 {fill:#2999c6;stroke:none;stroke-linecap:butt;stroke-width:12.24}
		.st4 {fill:#ffffff;stroke:none;stroke-linecap:butt;stroke-width:12.24}
		.st5 {fill:#804998;stroke:none;stroke-linecap:butt;stroke-width:12.24}
		.st6 {fill:none;fill-rule:evenodd;font-size:12px;overflow:visible;stroke-linecap:square;stroke-miterlimit:3}
	]]>
	</style>

	<g>
		<title>Page-1</title>
		<g id="group1785-1" transform="translate(10.5971,-28.3465)">
			<title>Identity Governance</title>
			<g id="group1786-2">
				<title>Sheet.1786</title>
				<g id="shape1787-3" transform="translate(3.28282,-3.10999)">
					<title>Sheet.1787</title>
					<path d="M42.79 88.43 A24.9008 25.0681 0 0 1 25.06 95.82 L25.06 95.82 A24.9087 25.0759 0 0 1 7.34 88.43 C2.61
								 83.67 0 77.33 0 70.59 C0 63.85 2.61 57.51 7.34 52.75 C12.07 47.98 18.37 45.36 25.06 45.36 C31.76
								 45.36 38.05 47.98 42.79 52.75 A24.8975 25.0647 0 0 1 50.13 70.59 A24.9053 25.0726 0 0 1 42.79 88.43
								 Z" class="st1"/>
				</g>
				<g id="shape1788-5" transform="translate(3.28282,-10.4992)">
					<title>Sheet.1788</title>
					<path d="M7.34 95.82 C2.61 91.06 0 84.72 0 77.98 C0 71.24 2.61 64.9 7.34 60.14 C12.07 55.37 18.37 52.75 25.06
								 52.75 C31.76 52.75 38.05 55.37 42.79 60.14 L7.34 95.82 Z" class="st2"/>
				</g>
				<g id="shape1789-7">
					<title>Sheet.1789</title>
					<path d="M6.65 76.22 A23.2359 23.392 0 0 1 9.7 53.3 A6.55109 6.59508 0 0 1 8.34 52.04 A6.60815 6.65253 0 0 1
								 7.49 50.66 C1.22 58.53 0 69.1 3.8 78.05 A9.91111 9.97766 0 0 1 6.65 76.22 ZM18.66 42.42 A9.95474
								 10.0216 0 0 1 20.61 45.29 A23.2964 23.4528 0 0 1 28.34 43.94 C33.34 43.94 38.09 45.53 42.05 48.43
								 A6.54214 6.58607 0 0 1 43.79 46.22 L43.79 46.22 C43.95 46.09 44.11 45.98 44.28 45.86 C36.79 40.26
								 27.07 39.13 18.66 42.42 ZM50.04 58.74 A23.2382 23.3942 0 0 1 46.99 81.66 C47.49 82 47.95 82.42 48.35
								 82.92 C48.7 83.35 48.98 83.82 49.2 84.3 C55.48 76.43 56.69 65.86 52.9 56.91 A9.96257 10.0295 0 0
								 1 50.04 58.74 ZM36.08 89.67 A23.2885 23.4449 0 0 1 28.35 91.02 L28.34 91.02 A23.2046 23.3604 0 0
								 1 14.64 86.53 A6.54214 6.58607 0 0 1 12.9 88.74 L12.9 88.74 A6.32955 6.37205 0 0 1 12.43 89.08 C19.92
								 94.68 29.63 95.82 38.04 92.54 A9.91558 9.98217 0 0 1 36.08 89.67 Z" class="st3"/>
				</g>
				<g id="shape1790-9" transform="translate(4.31891,-39.7184)">
					<title>Sheet.1790</title>
					<path d="M11.92 84.48 A6.61263 6.65703 0 0 1 11.91 93.88 A6.61486 6.65929 0 0 1 2.57 93.88 C0 91.28 0 87.06 2.58
								 84.47 C5.16 81.88 9.34 81.88 11.92 84.47 L11.92 84.48 Z" class="st3"/>
				</g>
				<g id="shape1791-11" transform="translate(9.2767,-43.1074)">
					<title>Sheet.1791</title>
					<path d="M4.58 94.87 A3.23582 3.25755 -180 1 0 -0 94.87 L0 94.87 A3.2347 3.25643 -180 0 0 4.58 94.87 Z"
							class="st4"/>
				</g>
				<g id="shape1792-13" transform="translate(39.645,-39.7163)">
					<title>Sheet.1792</title>
					<path d="M1.93 84.47 A6.61263 6.65703 0 0 1 11.27 84.48 A6.61486 6.65929 0 0 1 11.27 93.88 A6.61263 6.65703 0
								 0 1 1.93 93.88 A6.61263 6.65703 0 0 1 1.93 84.48 L1.93 84.47 Z" class="st3"/>
				</g>
				<g id="shape1793-15" transform="translate(43.0096,-44.0581)">
					<title>Sheet.1793</title>
					<path d="M5.53 91.22 A3.23582 3.25755 -180 1 0 5.52 95.82 L5.52 95.82 A3.23694 3.25868 -180 0 0 5.53 91.22 Z"
							class="st4"/>
				</g>
				<g id="shape1794-17" transform="translate(38.5261,-3.02664)">
					<title>Sheet.1794</title>
					<path d="M1.93 93.23 A6.61263 6.65703 0 0 1 1.93 83.82 A6.61486 6.65929 0 0 1 11.27 83.83 C13.85 86.42 13.85
								 90.64 11.27 93.23 C8.69 95.82 4.51 95.82 1.93 93.23 L1.93 93.23 Z" class="st3"/>
				</g>
				<g id="shape1795-19" transform="translate(42.84,-7.06096)">
					<title>Sheet.1795</title>
					<path d="M0 90.26 A3.23582 3.25755 -180 1 0 4.58 90.26 L4.57 90.26 A3.2347 3.25643 -180 0 0 -0 90.26 Z"
							class="st4"/>
				</g>
				<g id="shape1796-21" transform="translate(3.84486,-3.67601)">
					<title>Sheet.1796</title>
					<path d="M11.27 93.88 A6.61263 6.65703 0 0 1 1.93 93.88 A6.61486 6.65929 0 0 1 1.93 84.47 C4.51 81.88 8.7 81.88
								 11.27 84.48 C13.85 87.07 13.84 91.29 11.27 93.88 L11.27 93.88 Z" class="st3"/>
				</g>
				<g id="shape1797-23" transform="translate(7.21103,-8.01998)">
					<title>Sheet.1797</title>
					<path d="M0.95 95.82 A3.23582 3.25755 -180 1 0 0.95 91.22 L0.95 91.22 A3.23694 3.25868 -180 0 0 0.95 95.82 ZM17.78
								 72.12 L21.13 82.26 L24.49 72.12 L17.78 72.12 Z" class="st4"/>
				</g>
				<g id="shape1798-25" transform="translate(17.0071,-17.0729)">
					<title>Sheet.1798</title>
					<path d="M22.56 93.31 C21.92 87.59 19.28 82.79 14.7 81.17 L11.34 91.31 L7.98 81.17 C3.51 82.69 0.67 87.01 0.11
								 93.33 C0 94.57 0.8 95.68 1.91 95.81 C1.97 95.81 2.04 95.82 2.11 95.82 L20.57 95.82 C21.67 95.82
								 22.57 94.82 22.57 93.58 C22.57 93.49 22.57 93.4 22.56 93.31 Z" class="st5"/>
				</g>
				<g id="shape1799-27" transform="translate(21.7445,-30.7068)">
					<title>Sheet.1799</title>
					<ellipse cx="6.60144" cy="89.1762" rx="6.60144" ry="6.64577" class="st5"/>
				</g>
			</g>
		</g>
	</g>
</svg>
