<?xml version="1.0" encoding="UTF-8" standalone="no"?>
<!DOCTYPE svg PUBLIC "-//W3C//DTD SVG 1.1//EN" "http://www.w3.org/Graphics/SVG/1.1/DTD/svg11.dtd">
<!-- Generated by Microsoft Visio, SVG Export Identity And Access.svg Page-1 -->
<svg xmlns="http://www.w3.org/2000/svg" xmlns:xlink="http://www.w3.org/1999/xlink" xmlns:ev="http://www.w3.org/2001/xml-events"
		width="1.31865in" height="1.44674in" viewBox="0 0 94.9429 104.165" xml:space="preserve" color-interpolation-filters="sRGB"
		class="st6">
	<style type="text/css">
	<![CDATA[
		.st1 {fill:#7ac3e2;stroke:none;stroke-linecap:butt;stroke-width:19.125}
		.st2 {fill:#fbd118;stroke:none;stroke-linecap:butt;stroke-width:19.125}
		.st3 {fill:#f78c1e;fill-opacity:0.4;stroke:none;stroke-linecap:butt;stroke-width:19.125}
		.st4 {fill:#ffffff;fill-opacity:0.5;stroke:none;stroke-linecap:butt;stroke-width:19.125}
		.st5 {fill:#5bb4da;stroke:none;stroke-linecap:butt;stroke-width:19.125}
		.st6 {fill:none;fill-rule:evenodd;font-size:12px;overflow:visible;stroke-linecap:square;stroke-miterlimit:3}
	]]>
	</style>

	<g>
		<title>Page-1</title>
		<g id="group1800-1" transform="translate(19.125,-28.3465)">
			<title>Identity And Access</title>
			<g id="group1801-2">
				<title> Dashboard_Identityaccess-pathf</title>
				<g id="shape1802-3" transform="translate(2.8777E-13,-3.86931)">
					<title>path6</title>
					<path d="M18.98 73.91 A11.3379 11.4223 -180 0 0 30.32 62.49 L30.32 62.35 A11.4229 11.508 -180 0 0 7.48 62.58
								 L7.48 62.59 A11.3379 11.4223 -180 0 0 18.82 73.91 L18.99 73.91 L18.98 73.91 L18.98 73.91 ZM34.48
								 88.56 A4.68573 4.72062 0 0 1 34.48 81.99 L34.48 81.99 L38.44 78.05 L38.44 76.34 L27.1 76.34 L19.18
								 86.97 L11.34 76.34 L0 76.34 L0 104.16 L38.44 104.16 L38.44 92.54 L34.48 88.56 Z" class="st1"/>
				</g>
				<g id="shape1803-5" transform="translate(37.1174,2.84217E-13)">
					<title>path8</title>
					<path d="M18.57 84.76 C19.19 84.1 19.58 83.21 19.58 82.23 C19.58 81.24 19.19 80.35 18.57 79.69 L18.57 79.69 L12.3
								 73.38 C11.65 72.75 10.76 72.37 9.79 72.37 C8.81 72.37 7.92 72.75 7.27 73.38 L7.27 73.38 L1.01 79.69
								 C0.38 80.35 0 81.24 0 82.23 C0 83.21 0.38 84.1 1.01 84.76 L1.01 84.76 L6.41 90.2 L6.41 100.82 L9.72
								 104.16 L12.56 101.31 L14.29 99.58 L12.49 97.85 L14.22 96.13 L12.62 94.53 L14.39 92.74 L12.67 91.02
								 L12.67 90.53 L18.57 84.76 ZM9.85 74.87 A2.08333 2.09885 0 1 1 7.77 77.04 L7.77 77.02 C7.77 75.85
								 8.69 74.9 9.85 74.87 L9.85 74.87 Z" class="st2"/>
				</g>
				<g id="shape1804-7" transform="translate(45.1265,-2.59857)">
					<title>path10</title>
					<path d="M0 102.94 L1.35 104.16 L1.35 94.03 L0 93.41 L0 102.94 Z" class="st3"/>
				</g>
				<g id="shape1805-9" transform="translate(40.8323,-18.6755)">
					<title>path12</title>
					<path d="M0 99.72 L11.78 99.72 L11.78 101.45 L0 101.45 L0 99.72 ZM0 102.44 L11.78 102.44 L11.78 104.16 L0 104.16
								 L0 102.44 Z" class="st4"/>
				</g>
				<g id="shape1806-11" transform="translate(12.9677,-3.86931)">
					<title>path14</title>
					<path d="M16.8 65.93 A11.5115 11.5972 -180 0 0 9.45 51.43 L9.37 51.41 L5.29 73.91 L6.01 73.91 L6.16 73.91 A11.1023
								 11.1849 -180 0 0 16.78 66.01 L16.8 65.93 L16.8 65.93 ZM21.52 88.56 A4.68573 4.72062 0 0 1 21.52
								 81.99 L21.51 81.99 L25.3 78.25 L25.3 76.34 L13.96 76.34 L6.04 86.97 L3.63 83.59 L0 103.92 L25.23
								 104.16 L25.23 92.33 L21.52 88.56 Z" class="st5"/>
				</g>
			</g>
		</g>
	</g>
</svg>
