<?xml version="1.0" encoding="UTF-8" standalone="no"?>
<!DOCTYPE svg PUBLIC "-//W3C//DTD SVG 1.1//EN" "http://www.w3.org/Graphics/SVG/1.1/DTD/svg11.dtd">
<!-- Generated by Microsoft Visio, SVG Export Incident.svg Page-1 -->
<svg xmlns="http://www.w3.org/2000/svg" xmlns:xlink="http://www.w3.org/1999/xlink" xmlns:ev="http://www.w3.org/2001/xml-events"
		width="1.2233in" height="1.28094in" viewBox="0 0 88.0776 92.2277" xml:space="preserve" color-interpolation-filters="sRGB"
		class="st6">
	<style type="text/css">
	<![CDATA[
		.st1 {fill:#ffffff;fill-opacity:0.75;stroke:none;stroke-linecap:butt;stroke-width:15.6923}
		.st2 {fill:#0072c6;stroke:none;stroke-linecap:butt;stroke-width:15.6923}
		.st3 {fill:#bcbcbc;fill-opacity:0.61;stroke:none;stroke-linecap:butt;stroke-width:15.6923}
		.st4 {fill:#1185db;stroke:none;stroke-linecap:butt;stroke-width:15.6923}
		.st5 {fill:#ffffff;stroke:none;stroke-linecap:butt;stroke-width:15.6923}
		.st6 {fill:none;fill-rule:evenodd;font-size:12px;overflow:visible;stroke-linecap:square;stroke-miterlimit:3}
	]]>
	</style>

	<g>
		<title>Page-1</title>
		<g id="group1772-1" transform="translate(15.6923,-28.3465)">
			<title>Incident</title>
			<g id="group1773-2">
				<title>g18</title>
				<g id="shape1774-3" transform="translate(21.971,-19.7605)">
					<title>path4</title>
					<path d="M10.79 83.96 L1.57 83.96 C0.59 83.96 0 84.77 0 85.57 L0 90.61 C0 91.62 0.79 92.23 1.57 92.23 L10.79
								 92.23 C11.77 92.23 12.36 91.42 12.36 90.61 L12.36 85.57 C12.36 84.77 11.57 83.96 10.79 83.96 Z"
							class="st1"/>
				</g>
				<g id="shape1775-5" transform="translate(13.3385,-34.8813)">
					<title>path6</title>
					<path d="M29.82 92.23 L25.5 92.23 L25.5 84.97 C25.5 83.76 24.72 82.95 23.54 82.95 L6.28 82.95 C5.1 82.95 4.32
								 83.76 4.32 84.97 L4.32 92.23 L0 92.23 L0 85.98 C0 82.35 2.55 79.32 6.28 78.92 L23.54 78.92 C27.07
								 79.32 29.82 82.35 29.82 85.98 L29.82 92.23 Z" class="st2"/>
				</g>
				<g id="shape1776-7" transform="translate(0,-24.1954)">
					<title>path8</title>
					<path d="M56.1 89.61 L0 89.61 L0 92.23 L56.1 92.23 L56.1 89.61 Z" class="st3"/>
				</g>
				<g id="shape1777-9">
					<title>path10</title>
					<path d="M0 92.23 L0 55.94 C0 53.92 1.77 52.1 3.73 52.1 L53.16 52.1 A3.51629 3.61417 0 0 1 56.69 55.73 L56.69
								 92.23 L0 92.23 Z" class="st2"/>
				</g>
				<g id="shape1778-11">
					<title>path12</title>
					<path d="M16.87 92.23 L0 92.23 L0 55.94 C0 53.92 1.77 52.1 3.73 52.1 L34.53 52.1 L16.87 92.23 Z" class="st4"/>
				</g>
				<g id="shape1779-13" transform="translate(0,-26.01)">
					<title>path14</title>
					<path d="M0 89.61 L56.69 89.61 L56.69 92.23 L0 92.23 L0 89.61 Z" class="st5"/>
				</g>
				<g id="shape1780-15" transform="translate(21.382,-19.7605)">
					<title>path16</title>
					<path d="M12.16 83.96 L1.57 83.96 C0.59 83.96 0 84.77 0 85.57 L0 90.61 C0 91.62 0.79 92.23 1.57 92.23 L12.16
								 92.23 C13.14 92.23 13.73 91.42 13.73 90.61 L13.73 85.57 C13.73 84.77 12.95 83.96 12.16 83.96 Z"
							class="st5"/>
				</g>
			</g>
		</g>
	</g>
</svg>
