<?xml version="1.0" encoding="UTF-8" standalone="no"?>
<!DOCTYPE svg PUBLIC "-//W3C//DTD SVG 1.1//EN" "http://www.w3.org/Graphics/SVG/1.1/DTD/svg11.dtd">
<!-- Generated by Microsoft Visio, SVG Export Integration Service Environment.svg Page-1 -->
<svg xmlns="http://www.w3.org/2000/svg" xmlns:xlink="http://www.w3.org/1999/xlink" xmlns:ev="http://www.w3.org/2001/xml-events"
		width="1.1274in" height="1.3511in" viewBox="0 0 81.1729 97.2794" xml:space="preserve" color-interpolation-filters="sRGB"
		class="st7">
	<style type="text/css">
	<![CDATA[
		.st1 {fill:#0072c6;stroke:none;stroke-linecap:butt;stroke-width:12.24}
		.st2 {fill:#ffffff;fill-opacity:0.8;stroke:none;stroke-linecap:butt;stroke-width:12.24}
		.st3 {fill:#3999c6;stroke:none;stroke-linecap:butt;stroke-width:12.24}
		.st4 {fill:#57a300;stroke:none;stroke-linecap:butt;stroke-width:12.24}
		.st5 {fill:#804998;stroke:none;stroke-linecap:butt;stroke-width:12.24}
		.st6 {fill:#ffffff;stroke:none;stroke-linecap:butt;stroke-width:12.24}
		.st7 {fill:none;fill-rule:evenodd;font-size:12px;overflow:visible;stroke-linecap:square;stroke-miterlimit:3}
	]]>
	</style>

	<g>
		<title>Page-1</title>
		<g id="group1753-1" transform="translate(12.24,-28.3465)">
			<title>Integration Service Environment</title>
			<g id="group1754-2">
				<title>Sheet.1754</title>
				<g id="shape1755-3">
					<title>Sheet.1755</title>
					<ellipse cx="28.3465" cy="68.9329" rx="28.3465" ry="28.3465" class="st1"/>
				</g>
				<g id="shape1756-5" transform="translate(3.43953,-3.43953)">
					<title>Sheet.1756</title>
					<ellipse cx="24.9069" cy="72.3724" rx="24.9069" ry="24.9069" class="st2"/>
				</g>
				<g id="shape1757-7" transform="translate(15.3,-18.3837)">
					<title>Sheet.1757</title>
					<path d="M14.11 81.86 L14.11 75.93 L11.15 75.93 L11.15 81.86 C11.15 82.93 10.2 83.88 8.66 84.35 L4.63 85.18 C1.9
								 86.01 0 88.15 0 90.52 L0 97.28 L2.97 97.28 L2.97 90.52 C2.97 89.45 3.91 88.5 5.46 88.03 L9.49 87.08
								 C12.22 86.37 14.11 84.23 14.11 81.86 Z" class="st3"/>
				</g>
				<g id="shape1758-9" transform="translate(27.279,-18.3837)">
					<title>Sheet.1758</title>
					<path d="M0 81.86 L0 75.93 L2.97 75.93 L2.97 81.86 C2.97 82.93 3.91 83.88 5.46 84.35 L9.49 85.18 C12.22 86.01
								 14.11 88.15 14.11 90.52 L14.11 97.28 L11.15 97.28 L11.15 90.52 C11.15 89.45 10.2 88.5 8.66 88.03
								 L4.63 87.08 C1.9 86.37 0 84.23 0 81.86 Z" class="st3"/>
				</g>
				<g id="shape1759-11" transform="translate(11.7418,-12.6907)">
					<title>Sheet.1759</title>
					<path d="M10.2 94.67 L10.2 89.21 C10.2 87.91 9.13 86.84 7.83 86.84 L2.37 86.84 C1.07 86.84 0 87.91 0 89.21 L0
								 94.67 C0 95.97 1.07 97.04 2.37 97.04 L7.83 97.04 C9.13 97.04 10.2 95.97 10.2 94.67 ZM23.01 94.91
								 L23.01 89.45 C23.01 88.15 24.08 87.08 25.38 87.08 L30.84 87.08 C32.14 87.08 33.21 88.15 33.21 89.45
								 L33.21 94.91 C33.21 96.21 32.14 97.28 30.84 97.28 L25.38 97.28 C24.08 97.28 23.01 96.21 23.01 94.91
								 Z" class="st4"/>
				</g>
				<g id="shape1760-13" transform="translate(22.4162,-36.6488)">
					<title>Sheet.1760</title>
					<path d="M8.29 88.99 L8.29 93.71 L3.57 93.71 L3.57 88.99 L8.29 88.99 ZM9.31 85.42 L2.55 85.42 C1.15 85.42 0 86.57
								 0 87.97 L0 94.73 C0 96.13 1.15 97.28 2.55 97.28 L9.31 97.28 C10.71 97.28 11.86 96.13 11.86 94.73
								 L11.86 87.97 C11.86 86.57 10.71 85.42 9.31 85.42 Z" class="st5"/>
				</g>
				<g id="shape1761-15" transform="translate(25.9744,-40.2069)">
					<title>Sheet.1761</title>
					<rect x="0" y="92.5352" width="4.74418" height="4.74418" class="st6"/>
				</g>
			</g>
		</g>
	</g>
</svg>
