<?xml version="1.0" encoding="UTF-8" standalone="no"?>
<!DOCTYPE svg PUBLIC "-//W3C//DTD SVG 1.1//EN" "http://www.w3.org/Graphics/SVG/1.1/DTD/svg11.dtd">
<!-- Generated by Microsoft Visio, SVG Export Internet Analyzer Profile.svg Page-1 -->
<svg xmlns="http://www.w3.org/2000/svg" xmlns:xlink="http://www.w3.org/1999/xlink" xmlns:ev="http://www.w3.org/2001/xml-events"
		width="1.73185in" height="1.73185in" viewBox="0 0 124.693 124.693" xml:space="preserve" color-interpolation-filters="sRGB"
		class="st6">
	<style type="text/css">
	<![CDATA[
		.st1 {fill:none;stroke:none;stroke-linecap:butt;stroke-width:34}
		.st2 {fill:url(#grad0-10);stroke:none;stroke-linecap:butt;stroke-width:34}
		.st3 {fill:#ffffff;stroke:none;stroke-linecap:butt;stroke-width:34}
		.st4 {fill:#50e6ff;stroke:none;stroke-linecap:butt;stroke-width:34}
		.st5 {fill:#86d633;stroke:none;stroke-linecap:butt;stroke-width:34}
		.st6 {fill:none;fill-rule:evenodd;font-size:12px;overflow:visible;stroke-linecap:square;stroke-miterlimit:3}
	]]>
	</style>

	<defs id="Patterns_And_Gradients">
		<linearGradient id="grad0-10" x1="0" y1="0" x2="1" y2="0" gradientTransform="rotate(-90 0.5 0.5)">
			<stop offset="0" stop-color="#0078d4" stop-opacity="1"/>
			<stop offset="0.105" stop-color="#1480da" stop-opacity="1"/>
			<stop offset="0.305" stop-color="#348ee3" stop-opacity="1"/>
			<stop offset="0.5" stop-color="#4b98ea" stop-opacity="1"/>
			<stop offset="0.68" stop-color="#599eee" stop-opacity="1"/>
			<stop offset="0.84" stop-color="#5ea0ef" stop-opacity="1"/>
		</linearGradient>
	</defs>
	<g>
		<title>Page-1</title>
		<g id="group1742-1" transform="translate(34,-34)">
			<title>Internet Analyzer Profile</title>
			<g id="group1743-2">
				<title>Icon-469-Internet-Analyzer</title>
				<g id="shape1744-3">
					<title>Sheet.1744</title>
					<rect x="0" y="68" width="56.6929" height="56.6929" class="st1"/>
				</g>
				<g id="shape1745-5">
					<title>Sheet.1745</title>
					<rect x="0" y="68" width="56.6929" height="56.6929" class="st1"/>
				</g>
				<g id="shape1746-7" transform="translate(0.664567,-16.611)">
					<title>Sheet.1746</title>
					<path d="M53.42 112.83 A12.0031 12.0031 -180 0 0 43.01 101.3 A15.1181 15.1181 -180 0 0 27.43 86.83 A15.515 15.515
								 -180 0 0 12.6 96.94 A14.3213 14.3213 -180 0 0 -0 110.72 A14.5354 14.5354 -180 0 0 15.04 124.69 C15.49
								 124.69 15.93 124.67 16.37 124.64 L40.72 124.64 A2.42205 2.42205 -180 0 0 41.35 124.54 A12.1417 12.1417
								 -180 0 0 53.42 112.83 Z" class="st2"/>
				</g>
				<g id="shape1747-11" transform="translate(24.5134,-32.4504)">
					<title>Sheet.1747</title>
					<ellipse cx="4.15118" cy="120.542" rx="4.15118" ry="4.15118" class="st3"/>
				</g>
				<g id="shape1748-13" transform="translate(36.6488,-29.1024)">
					<title>Sheet.1748</title>
					<ellipse cx="3.32913" cy="121.348" rx="3.32913" ry="3.34488" class="st3"/>
				</g>
				<g id="shape1749-15" transform="translate(30.4913,-42.9827)">
					<title>Sheet.1749</title>
					<ellipse cx="2.32441" cy="122.369" rx="2.32441" ry="2.32441" class="st3"/>
				</g>
				<g id="shape1750-17" transform="translate(26.148,-2.20472)">
					<title>Sheet.1750</title>
					<path d="M28.79 124.69 L1.39 124.69 C0.51 124.69 0 123.3 0.49 122.58 L9.94 108.82 A1.10551 1.10551 -180 0 0 10.14
								 108.19 L10.14 99.09 a0.544882 0.544882 -180 0 0 -0.548031 -0.541732 L9.08 98.55 A1.08346 1.08346
								 0 0 1 8 97.47 L8 96.98 A1.08346 1.08346 0 0 1 9.08 95.89 L21.1 95.89 A1.08346 1.08346 0 0 1 22.18
								 96.98 L22.18 97.46 A1.08346 1.08346 0 0 1 21.1 98.55 L20.59 98.55 a0.541732 0.541732 -180 0 0 -0.541732
								 0.541732 L20.05 108.21 A1.06772 1.06772 -180 0 0 20.24 108.84 L29.69 122.58 C30.18 123.28 29.66
								 124.69 28.79 124.69 Z" class="st4"/>
				</g>
				<g id="shape1751-19" transform="translate(30.6621,-4.91654)">
					<title>Sheet.1751</title>
					<path d="M0.03 123.71 L7.21 113.26 A2.60472 2.60472 -180 0 0 7.67 111.77 L7.67 107.56 a0.834646 0.834646 0 0
								 1 0.834646 -0.834646 L12.57 106.73 a0.834646 0.834646 0 0 1 0.834646 0.834646 L13.4 112.06 A1.74173
								 1.74173 -180 0 0 13.72 113.06 L21.04 123.71 a0.629921 0.629921 0 0 1 -0.513386 0.979528 L0.55 124.69
								 a0.629921 0.629921 0 0 1 -0.513386 -0.979528 Z" class="st3"/>
				</g>
				<g id="shape1752-21" transform="translate(31.789,-5.8363)">
					<title>Sheet.1752</title>
					<path d="M5.85 121.19 L7.3 124.56 a0.207874 0.207874 -180 0 0 0.390551 -0.015748 L9.22 120.03 a0.207874 0.207874
								 0 0 1 0.384252 -0.0314961 L10.84 122.36 a0.211024 0.211024 -180 0 0 0.365354 0 L12.87 119.56 a0.207874
								 0.207874 0 0 1 0.182677 -0.103937 L16.38 119.46 L15.7 118.48 a0.207874 0.207874 -180 0 0 -0.173228
								 -0.0913386 L12.44 118.39 a0.211024 0.211024 -180 0 0 -0.182677 0.100787 L11.27 120.16 a0.207874
								 0.207874 0 0 1 -0.365354 -1.42109E-14 L9.39 117.28 a0.207874 0.207874 -180 0 0 -0.384252 0.0314961
								 L7.58 121.56 a0.207874 0.207874 0 0 1 -0.390551 0.015748 L5.97 118.74 a0.207874 0.207874 -180 0
								 0 -0.374803 0 L3.87 121.89 a0.211024 0.211024 0 0 1 -0.185827 0.107087 L0.85 122 a0.214173 0.214173
								 -180 0 0 -0.173228 0.0913386 L0 123.07 L4.31 123.07 a0.211024 0.211024 -180 0 0 0.185827 -0.107087
								 L5.47 121.18 a0.207874 0.207874 0 0 1 0.374803 0.00629921 Z" class="st5"/>
				</g>
			</g>
		</g>
	</g>
</svg>
