<?xml version="1.0" encoding="UTF-8" standalone="no"?>
<!DOCTYPE svg PUBLIC "-//W3C//DTD SVG 1.1//EN" "http://www.w3.org/Graphics/SVG/1.1/DTD/svg11.dtd">
<!-- Generated by Microsoft Visio, SVG Export Intune Exchange On-Premises Access.svg Page-1 -->
<svg xmlns="http://www.w3.org/2000/svg" xmlns:xlink="http://www.w3.org/1999/xlink" xmlns:ev="http://www.w3.org/2001/xml-events"
		width="0.724852in" height="1.25984in" viewBox="0 0 52.1894 90.7087" xml:space="preserve" color-interpolation-filters="sRGB"
		class="st3">
	<style type="text/css">
	<![CDATA[
		.st1 {fill:url(#grad0-5);stroke:none;stroke-linecap:butt;stroke-width:0.75}
		.st2 {fill:#f2f2f2;stroke:none;stroke-linecap:butt;stroke-width:0.75}
		.st3 {fill:none;fill-rule:evenodd;font-size:12px;overflow:visible;stroke-linecap:square;stroke-miterlimit:3}
	]]>
	</style>

	<defs id="Patterns_And_Gradients">
		<linearGradient id="grad0-5" x1="0" y1="0" x2="1" y2="0" gradientTransform="rotate(90 0.5 0.5)">
			<stop offset="0" stop-color="#5ea0ef" stop-opacity="1"/>
			<stop offset="0.18" stop-color="#559cec" stop-opacity="1"/>
			<stop offset="0.47" stop-color="#3c91e5" stop-opacity="1"/>
			<stop offset="0.84" stop-color="#1380da" stop-opacity="1"/>
			<stop offset="1" stop-color="#0078d4" stop-opacity="1"/>
		</linearGradient>
	</defs>
	<g>
		<title>Page-1</title>
		<g id="group1685-1" transform="translate(4.25197,-28.3465)">
			<title>Intune Exchange On-Premises Access</title>
			<g id="shape1686-2">
				<title>Sheet.1686</title>
				<path d="M42.52 35.92 L42.52 88.81 A2.3811 1.86753 0 0 1 40.14 90.71 L2.42 90.71 A2.3811 1.86753 0 0 1 0 88.81 L0
							 35.92 A2.3811 1.86753 0 0 1 2.42 34.02 L40.1 34.02 A2.3811 1.86753 0 0 1 42.52 35.92 Z" class="st1"/>
			</g>
			<g id="shape1687-6" transform="translate(5.01732,-1.20056)">
				<title>a1bc77ea-5288-41a0-8f9a-2d282cf</title>
				<path d="M0.64 41.12 L7.74 41.12 a0.595276 0.466883 0 0 1 0.595276 0.466883 L8.33 48.59 a0.595276 0.466883 0 0 1
							 -0.595276 0.466883 L0.64 49.06 a0.637795 0.500232 0 0 1 -0.637795 -0.466883 L0 41.59 a0.637795 0.500232
							 0 0 1 0.637795 -0.466883 ZM12.8 41.12 L19.69 41.12 a0.595276 0.466883 0 0 1 0.595276 0.466883 L20.28
							 48.59 a0.595276 0.466883 0 0 1 -0.595276 0.466883 L12.8 49.06 a0.595276 0.466883 0 0 1 -0.595276 -0.466883
							 L12.2 41.59 a0.595276 0.466883 0 0 1 0.595276 -0.466883 ZM24.96 41.12 L31.85 41.12 a0.637795 0.500232
							 0 0 1 0.637795 0.466883 L32.49 48.59 a0.637795 0.500232 0 0 1 -0.637795 0.466883 L24.96 49.06 a0.595276
							 0.466883 0 0 1 -0.595276 -0.466883 L24.36 41.59 a0.595276 0.466883 0 0 1 0.595276 -0.466883 ZM0.64 53.82
							 L7.74 53.82 a0.595276 0.466883 0 0 1 0.595276 0.466883 L8.33 61.3 a0.637795 0.500232 0 0 1 -0.595276
							 0.500232 L0.64 61.8 a0.637795 0.500232 0 0 1 -0.637795 -0.500232 L0 54.29 a0.637795 0.500232 0 0 1 0.637795
							 -0.466883 ZM12.8 53.82 L19.69 53.82 a0.595276 0.466883 0 0 1 0.595276 0.466883 L20.28 61.3 a0.637795
							 0.500232 0 0 1 -0.595276 0.500232 L12.8 61.8 a0.637795 0.500232 0 0 1 -0.595276 -0.500232 L12.2 54.29
							 a0.595276 0.466883 0 0 1 0.595276 -0.466883 ZM24.96 53.82 L31.85 53.82 a0.637795 0.500232 0 0 1 0.637795
							 0.466883 L32.49 61.3 a0.637795 0.500232 0 0 1 -0.637795 0.500232 L24.96 61.8 a0.637795 0.500232 0 0
							 1 -0.595276 -0.500232 L24.36 54.29 a0.595276 0.466883 0 0 1 0.595276 -0.466883 ZM0.64 66.56 L7.74 66.56
							 a0.595276 0.466883 0 0 1 0.595276 0.466883 L8.33 74.03 a0.595276 0.466883 0 0 1 -0.595276 0.466883 L0.64
							 74.5 a0.637795 0.500232 0 0 1 -0.637795 -0.466883 L0 66.9 a0.637795 0.500232 0 0 1 0.637795 -0.333488
							 ZM12.8 66.56 L19.69 66.56 a0.595276 0.466883 0 0 1 0.807874 0.333488 L20.49 73.9 a0.595276 0.466883
							 0 0 1 -0.595276 0.466883 L12.8 74.37 a0.595276 0.466883 0 0 1 -0.595276 -0.466883 L12.2 66.9 a0.595276
							 0.466883 0 0 1 0.595276 -0.333488 ZM12.8 79.27 L19.69 79.27 a0.595276 0.466883 0 0 1 0.595276 0.466883
							 L20.28 90.24 a0.595276 0.466883 0 0 1 -0.595276 0.466883 L12.8 90.71 a0.595276 0.466883 0 0 1 -0.595276
							 -0.466883 L12.2 79.74 a0.595276 0.466883 0 0 1 0.595276 -0.466883 ZM24.96 66.56 L31.85 66.56 a0.637795
							 0.500232 0 0 1 0.637795 0.466883 L32.49 74.03 a0.637795 0.500232 0 0 1 -0.637795 0.466883 L24.96 74.5
							 a0.595276 0.466883 0 0 1 -0.595276 -0.466883 L24.36 66.9 a0.595276 0.466883 0 0 1 0.595276 -0.333488
							 Z" class="st2"/>
			</g>
		</g>
	</g>
</svg>
