<?xml version="1.0" encoding="UTF-8" standalone="no"?>
<!DOCTYPE svg PUBLIC "-//W3C//DTD SVG 1.1//EN" "http://www.w3.org/Graphics/SVG/1.1/DTD/svg11.dtd">
<!-- Generated by Microsoft Visio, SVG Export Intune Tenant Status.svg Page-1 -->
<svg xmlns="http://www.w3.org/2000/svg" xmlns:xlink="http://www.w3.org/1999/xlink" xmlns:ev="http://www.w3.org/2001/xml-events"
		width="0.944882in" height="1.25984in" viewBox="0 0 68.0315 90.7087" xml:space="preserve" color-interpolation-filters="sRGB"
		class="st7">
	<style type="text/css">
	<![CDATA[
		.st1 {fill:url(#grad0-5);stroke:none;stroke-linecap:butt;stroke-width:0.75}
		.st2 {fill:#ffffff;fill-opacity:0.8;stroke:none;stroke-linecap:butt;stroke-width:0.75}
		.st3 {fill:url(#grad0-11);stroke:none;stroke-linecap:butt;stroke-width:0.75}
		.st4 {fill:#b31b1b;stroke:none;stroke-linecap:butt;stroke-width:0.75}
		.st5 {fill:#f2f2f2}
		.st6 {stroke:none;stroke-linecap:butt;stroke-width:0.75}
		.st7 {fill:none;fill-rule:evenodd;font-size:12px;overflow:visible;stroke-linecap:square;stroke-miterlimit:3}
	]]>
	</style>

	<defs id="Patterns_And_Gradients">
		<linearGradient id="grad0-5" x1="0" y1="0" x2="1" y2="0" gradientTransform="rotate(90 0.5 0.5)">
			<stop offset="0.22" stop-color="#32d4f5" stop-opacity="1"/>
			<stop offset="1" stop-color="#198ab3" stop-opacity="1"/>
		</linearGradient>
		<linearGradient id="grad0-11" x1="0" y1="0" x2="1" y2="0" gradientTransform="rotate(85.385943817791 0.5 0.5)">
			<stop offset="0.22" stop-color="#32d4f5" stop-opacity="1"/>
			<stop offset="1" stop-color="#198ab3" stop-opacity="1"/>
		</linearGradient>
	</defs>
	<g>
		<title>Page-1</title>
		<g id="group1655-1" transform="translate(5.66929,-28.3465)">
			<title>Intune Tenant Status</title>
			<g id="shape1656-2" transform="translate(0,-4.04472)">
				<title>Sheet.1656</title>
				<path d="M46.06 90.71 A4.5 4.24528 -180 0 0 50.63 86.53 A2.69291 2.54048 -180 0 0 50.63 86.03 C48.86 72.66 40.78
							 61.79 25.37 61.79 C9.96 61.79 1.56 70.92 0 86 A4.53543 4.27871 -180 0 0 4.04 90.68 L46.06 90.68 L46.06
							 90.71 Z" class="st1"/>
			</g>
			<g id="shape1657-6" transform="translate(17.7165,-13.2373)">
				<title>Sheet.1657</title>
				<path d="M7.62 74.06 A13.8898 13.1036 0 0 1 0 71.92 L7.55 90.71 L15.09 72.06 A14.1732 13.371 0 0 1 7.62 74.06 Z"
						class="st2"/>
			</g>
			<g id="shape1658-8" transform="translate(11.126,-29.8841)">
				<title>Sheet.1658</title>
				<ellipse cx="14.2087" cy="77.3043" rx="14.2087" ry="13.4044" class="st3"/>
			</g>
			<g id="shape1659-12" transform="translate(31.8898,0)">
				<title>Sheet.1659</title>
				<path d="M18.81 68.51 A6.27165 5.91665 -180 0 0 12.4 72.46 A6.23622 5.88323 -180 0 0 5.99 68.51 C0.18 69.11 0 74.36
							 0 76.44 C0 77.91 0.35 82.59 12.33 90.71 C24.48 82.49 24.8 77.91 24.8 76.44 C24.8 74.36 24.8 69.11 18.81
							 68.51 Z" class="st4"/>
			</g>
			<g id="shape1660-14" transform="translate(33.7677,-5.44867)">
				<title>Sheet.1660</title>
				<path d="M22.93 81.25 L17.26 81.25 a0.389764 0.367702 -180 0 0 -0.389764 0.200565 L15.09 84.22 a0.248031 0.233992
							 0 0 1 -0.389764 1.42109E-14 L12.3 79.51 a0.46063 0.434557 -180 0 0 -0.850394 -1.42109E-14 L9.04 86.2
							 a0.212598 0.200565 0 0 1 -0.425197 0 L6.52 81.65 a0.46063 0.434557 -180 0 0 -0.814961 0 L2.94 86.4 a0.389764
							 0.367702 0 0 1 -0.389764 0.200565 L0 86.6 A16.2992 15.3766 -180 0 0 1.31 88.3 L3.61 88.3 a0.389764 0.367702
							 -180 0 0 0.389764 -0.233992 L5.95 84.73 L8.57 90.44 a0.46063 0.434557 -180 0 0 0.850394 0 L12.15 82.82
							 L14.53 87.1 a0.496063 0.467984 -180 0 0 0.814961 0 L17.96 82.89 a0.531496 0.501411 0 0 1 0.389764 -0.233992
							 L22.93 82.65 L22.93 81.25 Z" class="st5"/>
				<path d="M22.93 81.25 L17.26 81.25 a0.389764 0.367702 -180 0 0 -0.389764 0.200565 L15.09 84.22 a0.248031 0.233992
							 0 0 1 -0.389764 1.42109E-14 L12.3 79.51 a0.46063 0.434557 -180 0 0 -0.850394 -1.42109E-14 L9.04 86.2
							 a0.212598 0.200565 0 0 1 -0.425197 0 L6.52 81.65 a0.46063 0.434557 -180 0 0 -0.814961 0 L2.94 86.4 a0.389764
							 0.367702 0 0 1 -0.389764 0.200565 L0 86.6 A16.2992 15.3766 -180 0 0 1.31 88.3 L3.61 88.3 a0.389764 0.367702
							 -180 0 0 0.389764 -0.233992 L5.95 84.73 L8.57 90.44 a0.46063 0.434557 -180 0 0 0.850394 0 L12.15 82.82
							 L14.53 87.1 a0.496063 0.467984 -180 0 0 0.814961 0 L17.96 82.89 a0.531496 0.501411 0 0 1 0.389764 -0.233992
							 L22.93 82.65" class="st6"/>
			</g>
		</g>
	</g>
</svg>
