<?xml version="1.0" encoding="UTF-8" standalone="no"?>
<!DOCTYPE svg PUBLIC "-//W3C//DTD SVG 1.1//EN" "http://www.w3.org/Graphics/SVG/1.1/DTD/svg11.dtd">
<!-- Generated by Microsoft Visio, SVG Export Intune Software Update.svg Page-1 -->
<svg xmlns="http://www.w3.org/2000/svg" xmlns:xlink="http://www.w3.org/1999/xlink" xmlns:ev="http://www.w3.org/2001/xml-events"
		width="0.944882in" height="1.08661in" viewBox="0 0 68.0315 78.2362" xml:space="preserve" color-interpolation-filters="sRGB"
		class="st6">
	<style type="text/css">
	<![CDATA[
		.st1 {fill:#0078d4;stroke:none;stroke-linecap:butt;stroke-width:0.75}
		.st2 {fill:url(#grad0-7);stroke:none;stroke-linecap:butt;stroke-width:0.75}
		.st3 {fill:#f2f2f2;stroke:none;stroke-linecap:butt;stroke-width:0.75}
		.st4 {fill:#76bc2d;stroke:none;stroke-linecap:butt;stroke-width:0.75}
		.st5 {fill:#ffffff;stroke:none;stroke-linecap:butt;stroke-width:0.75}
		.st6 {fill:none;fill-rule:evenodd;font-size:12px;overflow:visible;stroke-linecap:square;stroke-miterlimit:3}
	]]>
	</style>

	<defs id="Patterns_And_Gradients">
		<linearGradient id="grad0-7" x1="0" y1="0" x2="1" y2="0" gradientTransform="rotate(-90 0.5 0.5)">
			<stop offset="0" stop-color="#d2ebff" stop-opacity="1"/>
			<stop offset="1" stop-color="#f0fffd" stop-opacity="1"/>
		</linearGradient>
	</defs>
	<g>
		<title>Page-1</title>
		<g id="group1661-1" transform="translate(5.66929,-28.3465)">
			<title>Intune Software Update</title>
			<g id="shape1662-2" transform="translate(0,-8.44271)">
				<title>Sheet.1662</title>
				<path d="M0 76.51 A1.88981 1.72892 -180 0 0 1.89 78.24 L54.8 78.24 A1.88981 1.72892 -180 0 0 56.69 76.51 L56.69 43.05
							 A1.88981 1.72892 -180 0 0 54.8 41.32 L1.89 41.32 A1.88981 1.72892 -180 0 0 -0 43.05 L0 76.51 Z"
						class="st1"/>
			</g>
			<g id="shape1663-4" transform="translate(3.30709,-11.353)">
				<title>Sheet.1663</title>
				<path d="M0 77.29 a1.03939 0.950907 -180 0 0 1.03937 0.950885 L49.07 78.24 a1.03939 0.950907 -180 0 0 1.03937 -0.950885
							 L50.11 47.78 a1.03939 0.950907 -180 0 0 -1.03937 -0.950885 L1.04 46.83 a1.03939 0.950907 -180 0 0 -1.03937
							 0.950885 L0 77.29 Z" class="st2"/>
			</g>
			<g id="shape1664-8" transform="translate(25.4173,-43.4526)">
				<title>Sheet.1664</title>
				<path d="M0 77.89 a0.377962 0.345784 -180 0 0 0.377953 0.345776 L5.64 78.24 a0.377962 0.345784 -180 0 0 0.377953
							 -0.345776 L6.02 77.83 a0.377962 0.345784 -180 0 0 -0.377953 -0.345776 L0.38 77.49 a0.377962 0.345784
							 -180 0 0 -0.377953 0.345776 L0 77.89 Z" class="st3"/>
			</g>
			<g id="shape1665-10" transform="translate(27.2441,0)">
				<title>Sheet.1665</title>
				<ellipse cx="13.2913" cy="66.0764" rx="13.2913" ry="12.1598" class="st4"/>
			</g>
			<g id="shape1666-12" transform="translate(29.7574,-4.50552)">
				<title>Sheet.1666</title>
				<path d="M2.84 68.71 A8.69291 7.95286 -180 0 0 2.59 71.59 A8.34646 7.63589 -180 0 0 3.72 74.47 A7.9685 7.29012 -180
							 0 0 5.23 76.2 A9.19685 8.41389 -180 0 0 7.16 77.44 A11.3701 10.4021 -180 0 0 9.42 78.16 A8.66142 7.92404
							 -180 0 0 11.82 78.16 L11.6 76.06 a0.440945 0.403406 -180 0 0 -0.440945 -0.403406 L9.93 75.65 A6.29921
							 5.76294 0 0 1 8.42 75.16 A7.62205 6.97316 0 0 1 7.09 74.47 A4.7874 4.37983 0 0 1 6.09 73.32 A5.32283
							 4.86968 0 0 1 5.33 71.39 A5.92126 5.41716 0 0 1 5.33 69.34 L6.12 70.55 a0.472441 0.43222 -180 0 0 0.629921
							 0.144073 L7.72 70.18 a0.472441 0.43222 -180 0 0 0.15748 -0.576294 L5.23 65.51 a0.503937 0.461035 -180
							 0 0 -0.661417 -0.144073 L0.13 67.79 a0.440945 0.403406 -180 0 0 -1.02696E-14 0.576294 L0.67 69.23 a0.472441
							 0.43222 -180 0 0 0.661417 0.172888 L2.84 68.71 Z" class="st5"/>
			</g>
			<g id="shape1667-14" transform="translate(40.063,-6.76741)">
				<title>Sheet.1667</title>
				<path d="M1.83 67.74 A7.81102 7.14604 0 0 1 3.34 68.23 A6.29921 5.76294 0 0 1 4.66 69.1 A5.03937 4.61035 0 0 1 5.7
							 70.25 A5.6063 5.12902 0 0 1 6.43 72.18 A5.95276 5.44598 0 0 1 6.43 74.23 L5.64 73.02 a0.472441 0.43222
							 -180 0 0 -0.629921 -0.172888 L4.06 73.36 a0.472441 0.43222 -180 0 0 -0.15748 0.605109 L6.52 78.03 a0.503937
							 0.461035 -180 0 0 0.661417 0.172888 L11.62 75.78 a0.472441 0.43222 -180 0 0 0.188976 -0.605109 L11.24
							 74.31 a0.503937 0.461035 -180 0 0 -0.661417 -0.144073 L9.04 75 A8.25197 7.54945 -180 0 0 9.29 71.89
							 A9.07087 8.29863 -180 0 0 8.19 69.01 A9.73228 8.90374 -180 0 0 6.68 67.31 A8.7874 8.0393 -180 0 0 2.33
							 65.21 A7.77953 7.11723 -180 0 0 0.41 65.21 a0.440945 0.403406 -180 0 0 -0.409449 0.461035 L0 67.34 a0.472441
							 0.43222 -180 0 0 0.440945 0.374591 A8.06299 7.37656 0 0 1 1.83 67.74 Z" class="st5"/>
			</g>
		</g>
	</g>
</svg>
