<?xml version="1.0" encoding="UTF-8" standalone="no"?>
<!DOCTYPE svg PUBLIC "-//W3C//DTD SVG 1.1//EN" "http://www.w3.org/Graphics/SVG/1.1/DTD/svg11.dtd">
<!-- Generated by Microsoft Visio, SVG Export Intune Device Enrolment.svg Page-1 -->
<svg xmlns="http://www.w3.org/2000/svg" xmlns:xlink="http://www.w3.org/1999/xlink" xmlns:ev="http://www.w3.org/2001/xml-events"
		width="1.65149in" height="1.57275in" viewBox="0 0 118.907 113.238" xml:space="preserve" color-interpolation-filters="sRGB"
		class="st9">
	<style type="text/css">
	<![CDATA[
		.st1 {fill:#0078d4;stroke:none;stroke-linecap:butt;stroke-width:31.1071}
		.st2 {fill:url(#grad0-8);stroke:none;stroke-linecap:butt;stroke-width:31.1071}
		.st3 {fill:url(#grad0-12);stroke:none;stroke-linecap:butt;stroke-width:31.1071}
		.st4 {fill:#f2f2f2;stroke:none;stroke-linecap:butt;stroke-width:31.1071}
		.st5 {fill:none;stroke:none;stroke-linecap:butt;stroke-width:31.1071}
		.st6 {fill:url(#grad0-8);stroke:none;stroke-linecap:butt;stroke-width:23.451}
		.st7 {fill:#76bc2d;stroke:none;stroke-linecap:butt;stroke-width:31.1071}
		.st8 {fill:#ffffff;stroke:none;stroke-linecap:butt;stroke-width:31.1071}
		.st9 {fill:none;fill-rule:evenodd;font-size:12px;overflow:visible;stroke-linecap:square;stroke-miterlimit:3}
	]]>
	</style>

	<defs id="Patterns_And_Gradients">
		<linearGradient id="grad0-8" x1="0" y1="0" x2="1" y2="0" gradientTransform="rotate(-90 0.5 0.5)">
			<stop offset="0" stop-color="#d2ebff" stop-opacity="1"/>
			<stop offset="1" stop-color="#f0fffd" stop-opacity="1"/>
		</linearGradient>
		<linearGradient id="grad0-12" x1="0" y1="0" x2="1" y2="0" gradientTransform="rotate(-90 0.5 0.5)">
			<stop offset="0" stop-color="#0078d4" stop-opacity="1"/>
			<stop offset="0.17" stop-color="#1c84dc" stop-opacity="1"/>
			<stop offset="0.38" stop-color="#3990e4" stop-opacity="1"/>
			<stop offset="0.59" stop-color="#4d99ea" stop-opacity="1"/>
			<stop offset="0.8" stop-color="#5a9eee" stop-opacity="1"/>
			<stop offset="1" stop-color="#5ea0ef" stop-opacity="1"/>
		</linearGradient>
	</defs>
	<g>
		<title>Page-1</title>
		<g id="group1705-1" transform="translate(31.1071,-31.1071)">
			<title>Intune Device Enrolment</title>
			<g id="group1706-2">
				<title>layer1</title>
				<g id="shape1707-3" transform="translate(0,-13.0279)">
					<title>rect25</title>
					<path d="M0 111.32 A1.8898 1.92064 -180 0 0 1.89 113.24 L50.65 113.24 A1.8898 1.92064 -180 0 0 52.54 111.32 L52.54
								 77.16 A1.8898 1.92064 -180 0 0 50.65 75.24 L1.89 75.24 A1.8898 1.92064 -180 0 0 -0 77.16 L0 111.32
								 Z" class="st1"/>
				</g>
				<g id="shape1708-5" transform="translate(3.0552,-16.0368)">
					<title>rect27</title>
					<path d="M0 112.28 a0.944902 0.960319 -180 0 0 0.94488 0.960297 L45.48 113.24 a0.944902 0.960319 -180 0 0 0.94488
								 -0.960297 L46.43 81.87 a0.944902 0.960319 -180 0 0 -0.94488 -0.960297 L0.94 80.91 a0.944902 0.960319
								 -180 0 0 -0.94488 0.960297 L0 112.28 Z" class="st2"/>
				</g>
				<g id="shape1709-9" transform="translate(32.441,0)">
					<title>rect29</title>
					<path d="M0 112.28 a0.944902 0.960319 -180 0 0 0.94488 0.960297 L23.31 113.24 a0.944902 0.960319 -180 0 0 0.94488
								 -0.960297 L24.25 73.07 a0.944902 0.960319 -180 0 0 -0.94488 -0.960297 L0.94 72.11 a0.944902 0.960319
								 -180 0 0 -0.94488 0.960297 L0 112.28 Z" class="st3"/>
				</g>
				<g id="shape1710-13" transform="translate(41.7951,-38.9881)">
					<title>rect31</title>
					<path d="M-0 112.89 a0.346464 0.352117 -180 0 0 0.346456 0.352109 L5.23 113.24 a0.346464 0.352117 -180 0 0 0.346456
								 -0.352109 L5.57 112.82 a0.346464 0.352117 -180 0 0 -0.346456 -0.352109 L0.35 112.47 a0.346464 0.352117
								 -180 0 0 -0.346456 0.352109 L0 112.89 Z" class="st4"/>
				</g>
				<g id="shape1711-15" transform="translate(34.7402,-4.60941)">
					<title>rect33</title>
					<path d="M0 112.79 a0.440954 0.448149 -180 0 0 0.440944 0.448138 L19.24 113.24 a0.440954 0.448149 -180 0 0 0.440944
								 -0.448138 L19.68 80.62 a0.440954 0.448149 -180 0 0 -0.440944 -0.448138 L0.44 80.17 a0.440954 0.448149
								 -180 0 0 -0.440944 0.448138 L0 112.79 Z" class="st5"/>
				</g>
				<g id="shape1712-17" transform="translate(23.5591,-49.0711)">
					<title>rect35</title>
					<path d="M-0 112.89 a0.346464 0.352117 -180 0 0 0.346456 0.352109 L5.23 113.24 a0.346464 0.352117 -180 0 0 0.346456
								 -0.352109 L5.57 112.82 a0.346464 0.352117 -180 0 0 -0.346456 -0.352109 L0.35 112.47 a0.346464 0.352117
								 -180 0 0 -0.346456 0.352109 L0 112.89 Z" class="st4"/>
				</g>
				<g id="shape1713-19" transform="translate(43.2127,-0.896177)">
					<title>rect41</title>
					<path d="M0 112.6 a0.629934 0.640213 -180 0 0 0.62992 0.640198 L2.08 113.24 a0.629934 0.640213 -180 0 0 0.62992
								 -0.640198 L2.71 111.54 a0.629934 0.640213 -180 0 0 -0.62992 -0.640198 L0.63 110.9 a0.629934 0.640213
								 -180 0 0 -0.62992 0.640198 L0 112.6 Z" class="st4"/>
				</g>
				<g id="shape1714-21" transform="translate(34.7402,-4.60942)">
					<title>rect30</title>
					<path d="M0 112.78 a0.45115 0.458511 -180 0 0 0.45114 0.458501 L19.16 113.24 a0.45115 0.458511 -180 0 0 0.45114
								 -0.458501 L19.61 80.76 a0.45115 0.458511 -180 0 0 -0.45114 -0.458501 L0.45 80.3 a0.45115 0.458511
								 -180 0 0 -0.45114 0.458501 L0 112.78 Z" class="st6"/>
				</g>
				<g id="shape1715-24" transform="translate(10.6389,-0.108042)">
					<title>rect37</title>
					<path d="M0 99.83 A13.1971 13.4125 -180 0 0 13.2 113.24 L13.32 113.24 A13.1971 13.4125 -180 0 0 26.52 99.83 L26.52
								 99.7 A13.1971 13.4125 -180 0 0 13.32 86.29 L13.2 86.29 A13.1971 13.4125 -180 0 0 -0 99.7 L0 99.83
								 Z" class="st7"/>
				</g>
				<g id="shape1716-26" transform="translate(14.419,-4.07698)">
					<title>path39</title>
					<path d="M17.45 101.97 L11.15 101.97 L11.15 95.57 A1.48031 1.50446 -180 0 0 9.73 94.26 L9.23 94.26 A1.48031 1.50446
								 -180 0 0 7.75 95.76 L7.75 102.16 L1.45 102.16 A1.48031 1.50446 -180 0 0 -0 103.67 L0 103.86 A1.48031
								 1.50446 -180 0 0 1.45 105.36 L7.75 105.36 L7.75 111.77 A1.48031 1.50446 -180 0 0 9.23 113.24 L9.73
								 113.24 A1.48031 1.50446 -180 0 0 11.21 111.77 L11.21 105.36 L17.51 105.36 A1.48031 1.50446 -180
								 0 0 18.99 103.86 L18.99 103.35 A1.48031 1.50446 -180 0 0 17.45 101.97 L17.45 101.97 Z" class="st8"/>
				</g>
			</g>
		</g>
	</g>
</svg>
