<?xml version="1.0" encoding="UTF-8" standalone="no"?>
<!DOCTYPE svg PUBLIC "-//W3C//DTD SVG 1.1//EN" "http://www.w3.org/Graphics/SVG/1.1/DTD/svg11.dtd">
<!-- Generated by Microsoft Visio, SVG Export Intune Security Baseline.svg Page-1 -->
<svg xmlns="http://www.w3.org/2000/svg" xmlns:xlink="http://www.w3.org/1999/xlink" xmlns:ev="http://www.w3.org/2001/xml-events"
		width="0.944882in" height="1.25984in" viewBox="0 0 68.0315 90.7087" xml:space="preserve" color-interpolation-filters="sRGB"
		class="st5">
	<style type="text/css">
	<![CDATA[
		.st1 {fill:#86d633;stroke:none;stroke-linecap:butt;stroke-width:0.75}
		.st2 {fill:url(#grad0-7);stroke:none;stroke-linecap:butt;stroke-width:0.75}
		.st3 {fill:#9cebff;stroke:none;stroke-linecap:butt;stroke-width:0.75}
		.st4 {fill:#0078d4;stroke:none;stroke-linecap:butt;stroke-width:0.75}
		.st5 {fill:none;fill-rule:evenodd;font-size:12px;overflow:visible;stroke-linecap:square;stroke-miterlimit:3}
	]]>
	</style>

	<defs id="Patterns_And_Gradients">
		<linearGradient id="grad0-7" x1="0" y1="0" x2="1" y2="0" gradientTransform="rotate(-124.76538136097 0.5 0.5)">
			<stop offset="0" stop-color="#5e9624" stop-opacity="1"/>
			<stop offset="0.26" stop-color="#70a828" stop-opacity="1"/>
			<stop offset="0.79" stop-color="#9fd732" stop-opacity="1"/>
			<stop offset="1" stop-color="#b4ec36" stop-opacity="1"/>
		</linearGradient>
	</defs>
	<g>
		<title>Page-1</title>
		<g id="group1668-1" transform="translate(5.66929,-28.3465)">
			<title>Intune Security Baseline</title>
			<g id="shape1669-2" transform="translate(0,-9.40651)">
				<title>Sheet.1669</title>
				<path d="M39.7 65.5 C39.7 78.21 23.91 88.44 20.49 90.51 A1.1755 1.16721 0 0 1 19.18 90.51 C15.75 88.44 0 78.21 0
							 65.5 L0 50.19 A1.24268 1.2339 0 0 1 1.21 48.99 C13.47 48.66 10.65 43.42 19.85 43.42 C29.05 43.42 26.2
							 48.66 38.42 48.99 A1.27626 1.26725 0 0 1 39.66 50.19 L39.7 65.5 Z" class="st1"/>
			</g>
			<g id="shape1670-4" transform="translate(1.64571,-11.3605)">
				<title>Sheet.1670</title>
				<path d="M36.41 67.59 C36.41 79.26 21.93 88.63 18.81 90.53 A1.10833 1.10051 0 0 1 17.6 90.53 C14.44 88.63 0 79.26
							 0 67.59 L0 53.71 A1.10833 1.10051 0 0 1 1.11 52.61 C12.36 52.15 9.91 47.34 18.2 47.34 C26.5 47.34 24.05
							 52.15 35.27 52.45 A1.14192 1.13386 0 0 1 36.41 53.55 L36.41 67.59 Z" class="st2"/>
			</g>
			<g id="shape1671-8" transform="translate(18.002,0)">
				<title>Sheet.1671</title>
				<path d="M1.24 61.19 L37.45 61.19 A1.1755 1.16721 0 0 1 38.69 62.3 L38.69 89.61 A1.1755 1.16721 0 0 1 37.45 90.71
							 L1.24 90.71 A1.20909 1.20056 0 0 1 0 89.61 L0 62.36 A1.20909 1.20056 0 0 1 1.24 61.19 Z" class="st3"/>
			</g>
			<g id="shape1672-10" transform="translate(18.002,-24.3446)">
				<title>Sheet.1672</title>
				<path d="M1.18 85.54 L37.52 85.54 A1.10833 1.10051 0 0 1 38.69 86.57 L38.69 90.71 L0 90.71 L0 86.71 A1.10833 1.10051
							 0 0 1 1.18 85.67 L1.18 85.54 Z" class="st4"/>
			</g>
			<g id="shape1673-12" transform="translate(26.6,-11.1385)">
				<title>Sheet.1673</title>
				<path d="M24.82 88.21 L0.94 88.21 C0.4 88.21 0 88.47 0 88.74 L0 90.18 C0 90.48 0.4 90.71 0.94 90.71 L24.82 90.71
							 C25.36 90.71 25.79 90.48 25.79 90.18 L25.79 88.84 C25.79 88.47 25.26 88.21 24.82 88.21 Z" class="st4"/>
			</g>
			<g id="shape1674-14" transform="translate(26.6,-17.2747)">
				<title>Sheet.1674</title>
				<path d="M24.82 88.34 L0.94 88.34 C0.4 88.34 0 88.57 0 88.87 L0 90.18 C0 90.48 0.4 90.71 0.94 90.71 L24.82 90.71
							 C25.36 90.71 25.79 90.48 25.79 90.18 L25.79 88.87 C25.79 88.57 25.26 88.34 24.82 88.34 Z" class="st4"/>
			</g>
			<g id="shape1675-16" transform="translate(26.6,-4.46874)">
				<title>Sheet.1675</title>
				<path d="M24.82 88.31 L0.94 88.31 C0.4 88.31 0 88.54 0 88.84 L0 90.18 C0 90.48 0.4 90.71 0.94 90.71 L24.82 90.71
							 C25.36 90.71 25.79 90.48 25.79 90.18 L25.79 88.84 C25.79 88.54 25.26 88.31 24.82 88.31 Z" class="st4"/>
			</g>
			<g id="shape1676-18" transform="translate(21.0583,-16.9078)">
				<title>Sheet.1676</title>
				<ellipse cx="1.57853" cy="89.1413" rx="1.57853" ry="1.56739" class="st4"/>
			</g>
			<g id="shape1677-20" transform="translate(21.0583,-10.8717)">
				<title>Sheet.1677</title>
				<ellipse cx="1.57853" cy="89.1413" rx="1.57853" ry="1.56739" class="st4"/>
			</g>
			<g id="shape1678-22" transform="translate(21.0583,-4.1019)">
				<title>Sheet.1678</title>
				<ellipse cx="1.57853" cy="89.1413" rx="1.57853" ry="1.56739" class="st4"/>
			</g>
		</g>
	</g>
</svg>
