<?xml version="1.0" encoding="UTF-8" standalone="no"?>
<!DOCTYPE svg PUBLIC "-//W3C//DTD SVG 1.1//EN" "http://www.w3.org/Graphics/SVG/1.1/DTD/svg11.dtd">
<!-- Generated by Microsoft Visio, SVG Export Intune Managed Desktop.svg Page-1 -->
<svg xmlns="http://www.w3.org/2000/svg" xmlns:xlink="http://www.w3.org/1999/xlink" xmlns:ev="http://www.w3.org/2001/xml-events"
		width="0.944882in" height="1.12992in" viewBox="0 0 68.0315 81.3543" xml:space="preserve" color-interpolation-filters="sRGB"
		class="st6">
	<style type="text/css">
	<![CDATA[
		.st1 {fill:url(#grad0-5);stroke:none;stroke-linecap:butt;stroke-width:0.75}
		.st2 {fill:#ffffff;stroke:none;stroke-linecap:butt;stroke-width:0.75}
		.st3 {fill:url(#grad0-11);stroke:none;stroke-linecap:butt;stroke-width:0.75}
		.st4 {fill:#86d633;stroke:none;stroke-linecap:butt;stroke-width:0.75}
		.st5 {fill:#5e9624;stroke:none;stroke-linecap:butt;stroke-width:0.75}
		.st6 {fill:none;fill-rule:evenodd;font-size:12px;overflow:visible;stroke-linecap:square;stroke-miterlimit:3}
	]]>
	</style>

	<defs id="Patterns_And_Gradients">
		<linearGradient id="grad0-5" x1="0" y1="0" x2="1" y2="0" gradientTransform="rotate(-90 0.5 0.5)">
			<stop offset="0" stop-color="#0078d4" stop-opacity="1"/>
			<stop offset="0.82" stop-color="#5ea0ef" stop-opacity="1"/>
		</linearGradient>
		<linearGradient id="grad0-11" x1="0" y1="0" x2="1" y2="0" gradientTransform="rotate(-90 0.5 0.5)">
			<stop offset="0" stop-color="#1490df" stop-opacity="1"/>
			<stop offset="0.98" stop-color="#1f56a3" stop-opacity="1"/>
		</linearGradient>
	</defs>
	<g>
		<title>Page-1</title>
		<g id="group1679-1" transform="translate(5.66929,-28.3465)">
			<title>Intune Managed Desktop</title>
			<g id="shape1680-2" transform="translate(0,-15.2017)">
				<title>Sheet.1680</title>
				<path d="M0 79.7 A1.6224 1.6494 -180 0 0 1.62 81.35 L47.05 81.35 A1.6224 1.6494 -180 0 0 48.67 79.7 L48.67 50.02
							 A1.6224 1.6494 -180 0 0 47.05 48.37 L1.62 48.37 A1.6224 1.6494 -180 0 0 0 50.02 L0 79.7 Z" class="st1"/>
			</g>
			<g id="shape1681-6" transform="translate(2.70394,-17.9506)">
				<title>Sheet.1681</title>
				<path d="M-0 80.45 a0.892322 0.907172 -180 0 0 0.892301 0.907151 L42.37 81.35 a0.892322 0.907172 -180 0 0 0.892301
							 -0.907151 L43.26 54.77 a0.892322 0.907172 -180 0 0 -0.892301 -0.907151 L0.89 53.86 a0.892322 0.907172
							 -180 0 0 -0.892301 0.907151 L0 80.45 Z" class="st2"/>
			</g>
			<g id="shape1682-8" transform="translate(12.1677,-2.47405)">
				<title>Sheet.1682</title>
				<path d="M21.93 78.61 C17.12 77.84 16.93 74.32 16.95 68.63 L7.38 68.63 C7.38 74.32 7.22 77.84 2.41 78.61 A2.83914
							 2.88639 -180 0 0 -0 81.35 L24.34 81.35 A2.83914 2.88639 -180 0 0 21.93 78.61 Z" class="st3"/>
			</g>
			<g id="shape1683-12" transform="translate(83.7474,93.7674) rotate(135)">
				<title>Sheet.1683</title>
				<path d="M16.22 69.42 L18.79 69.42 a0.784144 0.797194 0 0 1 0.784144 0.797194 L19.58 80.56 a0.784144 0.797194 0 0
							 1 -0.784144 0.797194 L17.01 81.35 a0.784144 0.797194 0 0 1 -0.784144 -0.797194 L16.22 69.56 L16.22 69.42
							 Z" class="st4"/>
			</g>
			<g id="shape1684-14" transform="translate(-0.661459,117.712) rotate(-135)">
				<title>Sheet.1684</title>
				<path d="M27.34 56.83 L29.91 56.83 L29.91 80.56 a0.784144 0.797194 0 0 1 -0.784144 0.797194 L27.36 81.35 a0.784144
							 0.797194 0 0 1 -0.784144 -0.797194 L26.58 57.63 a0.784144 0.797194 0 0 1 0.784144 -0.797194 L27.34 56.83
							 Z" class="st5"/>
			</g>
		</g>
	</g>
</svg>
