<?xml version="1.0" encoding="UTF-8" standalone="no"?>
<!DOCTYPE svg PUBLIC "-//W3C//DTD SVG 1.1//EN" "http://www.w3.org/Graphics/SVG/1.1/DTD/svg11.dtd">
<!-- Generated by Microsoft Visio, SVG Export Intune App Protection.svg Page-1 -->
<svg xmlns="http://www.w3.org/2000/svg" xmlns:xlink="http://www.w3.org/1999/xlink" xmlns:ev="http://www.w3.org/2001/xml-events"
		width="1.64265in" height="1.56391in" viewBox="0 0 118.271 112.601" xml:space="preserve" color-interpolation-filters="sRGB"
		class="st7">
	<style type="text/css">
	<![CDATA[
		.st1 {fill:url(#grad0-6);stroke:none;stroke-linecap:butt;stroke-width:30.7888}
		.st2 {fill:#ffffff;stroke:none;stroke-linecap:butt;stroke-width:30.7888}
		.st3 {fill:url(#grad0-12);stroke:none;stroke-linecap:butt;stroke-width:30.7888}
		.st4 {fill:#32bedd;stroke:none;stroke-linecap:butt;stroke-width:30.7888}
		.st5 {fill:url(#grad0-20);stroke:none;stroke-linecap:butt;stroke-width:30.7888}
		.st6 {fill:#0078d4;stroke:none;stroke-linecap:butt;stroke-width:30.7888}
		.st7 {fill:none;fill-rule:evenodd;font-size:12px;overflow:visible;stroke-linecap:square;stroke-miterlimit:3}
	]]>
	</style>

	<defs id="Patterns_And_Gradients">
		<linearGradient id="grad0-6" x1="0" y1="0" x2="1" y2="0" gradientTransform="rotate(-90 0.5 0.5)">
			<stop offset="0" stop-color="#0078d4" stop-opacity="1"/>
			<stop offset="0.82" stop-color="#5ea0ef" stop-opacity="1"/>
		</linearGradient>
		<linearGradient id="grad0-12" x1="0" y1="0" x2="1" y2="0" gradientTransform="rotate(-90 0.5 0.5)">
			<stop offset="0" stop-color="#1490df" stop-opacity="1"/>
			<stop offset="0.98" stop-color="#1f56a3" stop-opacity="1"/>
		</linearGradient>
		<linearGradient id="grad0-20" x1="0" y1="0" x2="1" y2="0" gradientTransform="rotate(-90 0.5 0.5)">
			<stop offset="0" stop-color="#d2ebff" stop-opacity="1"/>
			<stop offset="1" stop-color="#f0fffd" stop-opacity="1"/>
		</linearGradient>
	</defs>
	<g>
		<title>Page-1</title>
		<g id="group1733-1" transform="translate(30.7888,-30.7888)">
			<title>Intune App Protection</title>
			<g id="group1734-2">
				<title>layer1</title>
				<g id="shape1735-3" transform="translate(0,-17.8648)">
					<title>rect21</title>
					<path d="M0 110.95 A1.66847 1.64809 -180 0 0 1.67 112.6 L48.72 112.6 A1.66847 1.64809 -180 0 0 50.39 110.95 L50.39
								 81.09 A1.66847 1.64809 -180 0 0 48.72 79.44 L1.67 79.44 A1.66847 1.64809 -180 0 0 -0 81.09 L0 110.95
								 Z" class="st1"/>
				</g>
				<g id="shape1736-7" transform="translate(2.80289,-20.6004)">
					<title>rect23</title>
					<path d="M0 111.68 a0.934343 0.922931 -180 0 0 0.934322 0.922909 L43.85 112.6 a0.934343 0.922931 -180 0 0 0.934322
								 -0.922909 L44.78 85.87 a0.934343 0.922931 -180 0 0 -0.934322 -0.922909 L0.93 84.95 a0.934343 0.922931
								 -180 0 0 -0.934322 0.922909 L0 111.68 Z" class="st2"/>
				</g>
				<g id="shape1737-9" transform="translate(12.4798,-5.04289)">
					<title>path25</title>
					<path d="M22.82 109.83 C17.82 109.07 17.62 105.51 17.65 99.94 L7.64 99.94 C7.64 105.68 7.44 109.24 2.47 109.83
								 A2.90307 2.86761 -180 0 0 -0 112.6 L25.16 112.6 A2.93644 2.90057 -180 0 0 22.82 109.83 Z"
							class="st3"/>
				</g>
				<g id="shape1738-13" transform="translate(17.4059,1.42109E-14)">
					<title>path27</title>
					<path d="M38.22 76.9 L15.26 76.9 A7.70815 7.614 -180 1 0 15.26 79.94 L17.63 79.94 L17.63 111.51 A1.10116 1.08771
								 -180 0 0 18.73 112.6 L38.19 112.6 A1.10116 1.08771 -180 0 0 39.29 111.51 L39.29 77.99 A1.10116 1.08771
								 -180 0 0 38.22 76.9 L38.22 76.9 Z" class="st4"/>
				</g>
				<g id="shape1739-15" transform="translate(37.1059,-4.02115)">
					<title>rect29</title>
					<path d="M0 112.21 a0.400433 0.395542 -180 0 0 0.400424 0.395533 L17.18 112.6 a0.400433 0.395542 -180 0 0 0.400424
								 -0.395533 L17.59 84.32 a0.400433 0.395542 -180 0 0 -0.400424 -0.395533 L0.4 83.93 a0.400433 0.395542
								 -180 0 0 -0.400424 0.395533 L0 112.21 Z" class="st2"/>
				</g>
				<g id="shape1740-17" transform="translate(20.3215,-29.2363)">
					<title>circle31</title>
					<ellipse cx="4.87182" cy="107.789" rx="4.87182" ry="4.81231" class="st5"/>
				</g>
				<g id="shape1741-21" transform="translate(35.0374,-15.3046)">
					<title>path33</title>
					<path d="M12.95 108.39 L9.21 104.7 a0.200212 0.197766 -180 0 0 -0.332949 0.164441 L8.88 107.11 a0.200212 0.197766
								 0 0 1 -0.200529 0.198077 L0 107.31 L0 110.04 L8.68 110.04 a0.200212 0.197766 0 0 1 0.200529 0.198077
								 L8.88 112.51 a0.200212 0.197766 -180 0 0 0.332949 0 L12.95 108.99 a0.400424 0.395533 -180 0 0 -1.77636E-14
								 -0.59299 L12.95 108.39 Z" class="st6"/>
				</g>
			</g>
		</g>
	</g>
</svg>
