<?xml version="1.0" encoding="UTF-8" standalone="no"?>
<!DOCTYPE svg PUBLIC "-//W3C//DTD SVG 1.1//EN" "http://www.w3.org/Graphics/SVG/1.1/DTD/svg11.dtd">
<!-- Generated by Microsoft Visio, SVG Export Intune Device Configuration.svg Page-1 -->
<svg xmlns="http://www.w3.org/2000/svg" xmlns:xlink="http://www.w3.org/1999/xlink" xmlns:ev="http://www.w3.org/2001/xml-events"
		width="0.944882in" height="1.25984in" viewBox="0 0 68.0315 90.7087" xml:space="preserve" color-interpolation-filters="sRGB"
		class="st6">
	<style type="text/css">
	<![CDATA[
		.st1 {fill:url(#grad0-5);stroke:none;stroke-linecap:butt;stroke-width:0.75}
		.st2 {fill:#f2f2f2;stroke:none;stroke-linecap:butt;stroke-width:0.75}
		.st3 {fill:url(#grad0-13);stroke:none;stroke-linecap:butt;stroke-width:0.75}
		.st4 {fill:#949494;stroke:none;stroke-linecap:butt;stroke-width:0.75}
		.st5 {fill:#ffffff;stroke:none;stroke-linecap:butt;stroke-width:0.75}
		.st6 {fill:none;fill-rule:evenodd;font-size:12px;overflow:visible;stroke-linecap:square;stroke-miterlimit:3}
	]]>
	</style>

	<defs id="Patterns_And_Gradients">
		<linearGradient id="grad0-5" x1="0" y1="0" x2="1" y2="0" gradientTransform="rotate(-90 0.5 0.5)">
			<stop offset="0" stop-color="#0078d4" stop-opacity="1"/>
			<stop offset="0.17" stop-color="#1c84dc" stop-opacity="1"/>
			<stop offset="0.38" stop-color="#3990e4" stop-opacity="1"/>
			<stop offset="0.59" stop-color="#4d99ea" stop-opacity="1"/>
			<stop offset="0.8" stop-color="#5a9eee" stop-opacity="1"/>
			<stop offset="1" stop-color="#5ea0ef" stop-opacity="1"/>
		</linearGradient>
		<linearGradient id="grad0-13" x1="0" y1="0" x2="1" y2="0" gradientTransform="rotate(-90 0.5 0.5)">
			<stop offset="0" stop-color="#d2ebff" stop-opacity="1"/>
			<stop offset="1" stop-color="#f0fffd" stop-opacity="1"/>
		</linearGradient>
	</defs>
	<g>
		<title>Page-1</title>
		<g id="group1717-1" transform="translate(5.66929,-28.3465)">
			<title>Intune Device Configuration</title>
			<g id="shape1718-2">
				<title>Sheet.1718</title>
				<path d="M-0 89.01 A1.86663 1.70183 -180 0 0 1.87 90.71 L35.36 90.71 A1.86663 1.70183 -180 0 0 37.22 89.01 L37.22
							 35.72 A1.86663 1.70183 -180 0 0 35.36 34.02 L1.87 34.02 A1.86663 1.70183 -180 0 0 0 35.72 L0 89.01 Z"
						class="st1"/>
			</g>
			<g id="shape1719-6" transform="translate(16.5065,-1.20126)">
				<title>Sheet.1719</title>
				<path d="M0 89.81 a0.988214 0.900968 -180 0 0 0.988192 0.900947 L3.18 90.71 a0.988214 0.900968 -180 0 0 0.988192
							 -0.900947 L4.17 88.37 a0.988214 0.900968 -180 0 0 -0.988192 -0.900947 L0.99 87.47 a0.988214 0.900968
							 -180 0 0 -0.988192 0.900947 L0 89.81 Z" class="st2"/>
			</g>
			<g id="shape1720-8" transform="translate(14.3105,-53.7565)">
				<title>Sheet.1720</title>
				<path d="M-0 90.24 a0.512407 0.467168 -180 0 0 0.512396 0.467158 L8.05 90.71 a0.512407 0.467168 -180 0 0 0.512396
							 -0.467158 L8.56 90.14 a0.512407 0.467168 -180 0 0 -0.512396 -0.467158 L0.51 89.67 a0.512407 0.467168
							 -180 0 0 -0.512396 0.467158 L0 90.24 Z" class="st2"/>
			</g>
			<g id="shape1721-10" transform="translate(3.47697,-6.34)">
				<title>Sheet.1721</title>
				<path d="M0 90.07 a0.69541 0.634014 -180 0 0 0.695394 0.634 L29.54 90.71 a0.69541 0.634014 -180 0 0 0.695394 -0.634
							 L30.23 45.79 a0.69541 0.634014 -180 0 0 -0.695394 -0.634 L0.7 45.16 a0.69541 0.634014 -180 0 0 -0.695394
							 0.634 L0 90.07 Z" class="st3"/>
			</g>
			<g id="shape1722-14" transform="translate(24.229,-0.266947)">
				<title>Sheet.1722</title>
				<path d="M29.32 85.04 L27.52 81.7 a0.512396 0.467158 0 0 1 7.10543E-14 -0.367052 L28.15 79.36 a0.548995 0.500526
							 0 0 1 0.329397 -0.333684 L32.13 77.83 a0.622195 0.567263 -180 0 0 0.329397 -0.467158 L32.46 74.26 L32.24
							 74.09 L28.58 72.96 a0.475796 0.433789 0 0 1 -0.329397 -0.300316 L27.45 70.72 a0.622195 0.567263 0 0
							 1 2.13163E-14 -0.400421 L28.99 67.45 a0.512396 0.467158 -180 0 0 3.19744E-14 -0.567263 L26.57 64.65
							 a0.548995 0.500526 -180 0 0 -0.622195 0 L22.87 66.05 a0.512396 0.467158 0 0 1 -0.548995 -0.0667368 L20.24
							 65.42 a0.439196 0.400421 0 0 1 -0.365997 -0.300316 L18.48 61.78 a0.548995 0.500526 -180 0 0 -0.512396
							 -0.333684 L14.64 61.44 L14.46 61.44 L13.21 64.78 a0.585595 0.533894 0 0 1 -0.329397 0.300316 L10.72
							 65.82 a0.622195 0.567263 0 0 1 -0.439196 -8.52651E-14 L6.62 64.15 a0.548995 0.500526 -180 0 0 -0.622195
							 -2.84217E-14 L3.88 66.05 a0.622195 0.567263 -180 0 0 5.77316E-15 0.567263 L5.67 69.95 a0.622195 0.567263
							 0 0 1 -4.44089E-15 0.400421 L4.65 72.66 a0.585595 0.533894 0 0 1 -0.329397 0.300316 L0.37 74.06 a0.548995
							 0.500526 -180 0 0 -0.365997 0.467158 L0 77.23 a0.475796 0.433789 -180 0 0 0.365997 0.467158 L4.03 78.83
							 a0.585595 0.533894 0 0 1 0.329397 0.300316 L5.23 81.07 a0.475796 0.433789 0 0 1 -8.88178E-15 0.400421
							 L3.4 84.8 a0.585595 0.533894 -180 0 0 -1.77636E-15 0.533894 L5.49 87.31 a0.548995 0.500526 -180 0 0
							 0.658794 0 L9.81 85.67 a0.475796 0.433789 0 0 1 0.439196 0 L12.37 86.47 a0.731994 0.667368 0 0 1 0.329397
							 0.300316 L14.09 90.37 a0.548995 0.500526 -180 0 0 0.512396 0.333684 L17.57 90.71 a0.548995 0.500526
							 -180 0 0 0.512396 -0.367052 L19.32 87 a0.731994 0.667368 0 0 1 0.329397 -0.300316 L22.33 86 a0.585595
							 0.533894 0 0 1 0.439196 -2.84217E-14 L26.61 87.64 a0.512396 0.467158 -180 0 0 0.622195 7.10543E-14 L29.32
							 85.74 a0.512396 0.467158 -180 0 0 7.81597E-14 -0.700736 ZM14.38 80.46 A5.16056 4.70494 0 1 1 21.12 77.96
							 A5.16056 4.70494 0 0 1 14.38 80.46 Z" class="st4"/>
			</g>
			<g id="shape1723-16" transform="translate(-40.6892,47.1978) rotate(-67.17)">
				<title>Sheet.1723</title>
				<ellipse cx="5.12396" cy="86.0371" rx="5.12396" ry="4.67158" class="st5"/>
			</g>
		</g>
	</g>
</svg>
