<?xml version="1.0" encoding="UTF-8" standalone="no"?>
<!DOCTYPE svg PUBLIC "-//W3C//DTD SVG 1.1//EN" "http://www.w3.org/Graphics/SVG/1.1/DTD/svg11.dtd">
<!-- Generated by Microsoft Visio, SVG Export Iot Edge.svg Page-1 -->
<svg xmlns="http://www.w3.org/2000/svg" xmlns:xlink="http://www.w3.org/1999/xlink" xmlns:ev="http://www.w3.org/2001/xml-events"
		width="1.6766in" height="1.6767in" viewBox="0 0 120.715 120.722" xml:space="preserve" color-interpolation-filters="sRGB"
		class="st5">
	<style type="text/css">
	<![CDATA[
		.st1 {fill:url(#grad0-6);stroke:none;stroke-linecap:butt;stroke-width:32.0111}
		.st2 {fill:#b3b3b3;stroke:none;stroke-linecap:butt;stroke-width:32.0111}
		.st3 {fill:#f2f2f2;stroke:none;stroke-linecap:butt;stroke-width:32.0111}
		.st4 {fill:url(#grad0-14);stroke:none;stroke-linecap:butt;stroke-width:32.0111}
		.st5 {fill:none;fill-rule:evenodd;font-size:12px;overflow:visible;stroke-linecap:square;stroke-miterlimit:3}
	]]>
	</style>

	<defs id="Patterns_And_Gradients">
		<linearGradient id="grad0-6" x1="0" y1="0" x2="1" y2="0" gradientTransform="rotate(-90 0.5 0.5)">
			<stop offset="0" stop-color="#198ab3" stop-opacity="1"/>
			<stop offset="0.44" stop-color="#28b7db" stop-opacity="1"/>
			<stop offset="0.78" stop-color="#32d4f5" stop-opacity="1"/>
		</linearGradient>
		<linearGradient id="grad0-14" x1="0" y1="0" x2="1" y2="0" gradientTransform="rotate(-89.304723436312 0.5 0.5)">
			<stop offset="0" stop-color="#198ab3" stop-opacity="1"/>
			<stop offset="0.44" stop-color="#28b7db" stop-opacity="1"/>
			<stop offset="0.78" stop-color="#32d4f5" stop-opacity="1"/>
		</linearGradient>
	</defs>
	<g>
		<title>Page-1</title>
		<g id="group1604-1" transform="translate(32.0111,-32.0111)">
			<title>Iot Edge</title>
			<g id="group1605-2">
				<title>layer1</title>
				<g id="shape1606-3" transform="translate(0,-16.0731)">
					<title>path12</title>
					<path d="M56.69 107.97 A12.7874 12.9166 -180 0 0 45.64 95.72 A16.063 16.2253 -180 0 0 29.1 80.1 A16.4724 16.6389
								 -180 0 0 13.35 90.95 A15.1811 15.3345 -180 0 0 0 105.71 A15.4331 15.589 -180 0 0 15.97 120.7 L43.21
								 120.7 A2.45669 2.48152 -180 0 0 43.91 120.7 A12.8819 13.012 -180 0 0 56.69 107.97 L56.69 107.97
								 Z" class="st1"/>
				</g>
				<g id="shape1607-7" transform="translate(27.0236,-10.3713)">
					<title>path14</title>
					<rect x="0" y="101.029" width="2.45669" height="19.693" class="st2"/>
				</g>
				<g id="shape1608-9" transform="translate(21.7008,-29.3961)">
					<title>circle16</title>
					<ellipse cx="6.55118" cy="114.105" rx="6.55118" ry="6.61737" class="st3"/>
				</g>
				<g id="shape1609-11" transform="translate(22.2992,1.42109E-14)">
					<title>rect18</title>
					<path d="M-0 118.4 A2.29926 2.3225 -180 0 0 2.3 120.72 L9.61 120.72 A2.29926 2.3225 -180 0 0 11.91 118.4 L11.91
								 111.02 A2.29926 2.3225 -180 0 0 9.61 108.7 L2.3 108.7 A2.29926 2.3225 -180 0 0 -0 111.02 L0 118.4
								 Z" class="st4"/>
				</g>
			</g>
		</g>
	</g>
</svg>
