<?xml version="1.0" encoding="UTF-8" standalone="no"?>
<!DOCTYPE svg PUBLIC "-//W3C//DTD SVG 1.1//EN" "http://www.w3.org/Graphics/SVG/1.1/DTD/svg11.dtd">
<!-- Generated by Microsoft Visio, SVG Export Iot Digital Twin.svg Page-1 -->
<svg xmlns="http://www.w3.org/2000/svg" xmlns:xlink="http://www.w3.org/1999/xlink" xmlns:ev="http://www.w3.org/2001/xml-events"
		width="1.04866in" height="1.3511in" viewBox="0 0 75.5036 97.2794" xml:space="preserve" color-interpolation-filters="sRGB"
		class="st6">
	<style type="text/css">
	<![CDATA[
		.st1 {fill:#0072c6;stroke:none;stroke-linecap:butt;stroke-width:12.24}
		.st2 {fill:#57a300;stroke:none;stroke-linecap:butt;stroke-width:12.24}
		.st3 {fill:#ffffff;stroke:none;stroke-linecap:butt;stroke-width:12.24}
		.st4 {fill:#ffffff;fill-opacity:0.3;stroke:none;stroke-linecap:butt;stroke-width:12.24}
		.st5 {fill:#00188f;fill-opacity:0.6;stroke:none;stroke-linecap:butt;stroke-width:12.24}
		.st6 {fill:none;fill-rule:evenodd;font-size:12px;overflow:visible;stroke-linecap:square;stroke-miterlimit:3}
	]]>
	</style>

	<g>
		<title>Page-1</title>
		<g id="group1610-1" transform="translate(12.24,-28.3465)">
			<title>Iot Digital Twin</title>
			<g id="group1611-2">
				<title>Sheet.1611</title>
				<g id="shape1612-3" transform="translate(2.53797E-13,-15.7922)">
					<title>Sheet.1612</title>
					<path d="M31.82 56.38 L0 56.38 L0 97.28 L31.82 97.28 L31.82 56.38 Z" class="st1"/>
				</g>
				<g id="shape1613-5" transform="translate(17.0458,-4.43091)">
					<title>Sheet.1613</title>
					<path d="M0 55.24 L0 97.28 L29.43 97.28 L29.55 55.24 L0 55.24 ZM27.18 57.51 L27.18 74.56 L2.26 74.56 L2.26 57.51
								 L27.18 57.51 ZM2.26 95.01 L2.26 76.83 L27.18 76.83 L27.18 95.01 L2.26 95.01 Z" class="st1"/>
				</g>
				<g id="shape1614-7" transform="translate(12.6139,-7.10543E-14)">
					<title>Sheet.1614</title>
					<ellipse cx="5.56828" cy="91.7123" rx="5.56828" ry="5.56704" class="st2"/>
				</g>
				<g id="shape1615-9" transform="translate(16.023,-3.40839)">
					<title>Sheet.1615</title>
					<path d="M2.16 97.28 C0.97 97.28 0 96.31 0 95.12 C0 93.93 0.97 92.96 2.16 92.96 C3.35 92.96 4.32 93.93 4.32 95.12
								 C4.32 96.31 3.35 97.28 2.16 97.28 Z" class="st3"/>
				</g>
				<g id="shape1616-11" transform="translate(39.8871,-7.10543E-14)">
					<title>Sheet.1616</title>
					<ellipse cx="5.56828" cy="91.7123" rx="5.56828" ry="5.56704" class="st2"/>
				</g>
				<g id="shape1617-13" transform="translate(43.2962,-3.40839)">
					<title>Sheet.1617</title>
					<path d="M2.16 97.28 C0.97 97.28 0 96.31 0 95.12 C0 93.93 0.97 92.96 2.16 92.96 C3.35 92.96 4.32 93.93 4.32 95.12
								 C4.32 96.31 3.35 97.28 2.16 97.28 Z" class="st3"/>
				</g>
				<g id="shape1618-15" transform="translate(39.8871,-39.7646)">
					<title>Sheet.1618</title>
					<ellipse cx="5.56828" cy="91.7123" rx="5.56828" ry="5.56704" class="st2"/>
				</g>
				<g id="shape1619-17" transform="translate(43.2962,-43.173)">
					<title>Sheet.1619</title>
					<ellipse cx="2.15913" cy="95.1207" rx="2.15913" ry="2.15865" class="st3"/>
				</g>
				<g id="shape1620-19" transform="translate(39.8871,-20.4503)">
					<title>Sheet.1620</title>
					<ellipse cx="5.56828" cy="91.7123" rx="5.56828" ry="5.56704" class="st2"/>
				</g>
				<g id="shape1621-21" transform="translate(43.2962,-23.8587)">
					<title>Sheet.1621</title>
					<ellipse cx="2.15913" cy="95.1207" rx="2.15913" ry="2.15865" class="st3"/>
				</g>
				<g id="shape1622-23" transform="translate(3.29665,-19.3154)">
					<title>Sheet.1622</title>
					<rect x="0" y="63.1966" width="25.2925" height="34.0828" class="st4"/>
				</g>
				<g id="shape1623-25" transform="translate(13.8639,-15.7922)">
					<title>Sheet.1623</title>
					<path d="M8.7 68.88 L17.95 68.88 L17.95 66.6 L8.7 66.6 C8.19 64.71 6.48 63.31 4.43 63.31 C1.99 63.31 0 65.3 0
								 67.74 C0 69.75 1.35 71.43 3.18 71.97 L3.18 82.82 C1.35 83.37 0 85.05 0 87.05 C0 89.06 1.35 90.74
								 3.18 91.28 L3.18 97.28 L5.44 97.28 L5.44 91.36 A4.4319 4.43091 -180 0 0 8.7 88.19 L17.95 88.19 L17.95
								 85.92 L8.7 85.92 A4.42735 4.42636 -180 0 0 5.44 82.75 L5.44 72.04 A4.4319 4.43091 -180 0 0 8.7 68.88
								 Z" class="st5"/>
				</g>
			</g>
		</g>
	</g>
</svg>
