<?xml version="1.0" encoding="UTF-8" standalone="no"?>
<!DOCTYPE svg PUBLIC "-//W3C//DTD SVG 1.1//EN" "http://www.w3.org/Graphics/SVG/1.1/DTD/svg11.dtd">
<!-- Generated by Microsoft Visio, SVG Export Iot Windows 10 Core.svg Page-1 -->
<svg xmlns="http://www.w3.org/2000/svg" xmlns:xlink="http://www.w3.org/1999/xlink" xmlns:ev="http://www.w3.org/2001/xml-events"
		width="1.71072in" height="1.71376in" viewBox="0 0 123.172 123.39" xml:space="preserve" color-interpolation-filters="sRGB"
		class="st6">
	<style type="text/css">
	<![CDATA[
		.st1 {fill:url(#grad0-6);stroke:none;stroke-linecap:butt;stroke-width:33.2348}
		.st2 {fill:#32bedd;stroke:none;stroke-linecap:butt;stroke-width:33.2348}
		.st3 {fill:#50e6ff;stroke:none;stroke-linecap:butt;stroke-width:33.2348}
		.st4 {fill:#f2f2f2;stroke:none;stroke-linecap:butt;stroke-width:33.2348}
		.st5 {fill:#86d633;stroke:none;stroke-linecap:butt;stroke-width:33.2348}
		.st6 {fill:none;fill-rule:evenodd;font-size:12px;overflow:visible;stroke-linecap:square;stroke-miterlimit:3}
	]]>
	</style>

	<defs id="Patterns_And_Gradients">
		<linearGradient id="grad0-6" x1="0" y1="0" x2="1" y2="0" gradientTransform="rotate(-90 0.5 0.5)">
			<stop offset="0" stop-color="#0078d4" stop-opacity="1"/>
			<stop offset="0.06" stop-color="#0a7cd7" stop-opacity="1"/>
			<stop offset="0.34" stop-color="#2e8ce1" stop-opacity="1"/>
			<stop offset="0.59" stop-color="#4897e9" stop-opacity="1"/>
			<stop offset="0.82" stop-color="#589eed" stop-opacity="1"/>
			<stop offset="1" stop-color="#5ea0ef" stop-opacity="1"/>
		</linearGradient>
	</defs>
	<g>
		<title>Page-1</title>
		<g id="group1549-1" transform="translate(33.2348,-33.4627)">
			<title>Iot Windows 10 Core</title>
			<g id="group1550-2">
				<title>layer1</title>
				<g id="shape1551-3">
					<title>path17</title>
					<path d="M48.79 77.74 L44.26 73.28 L43.8 73.28 L37.7 76.61 L33.33 74.64 L30.58 66.7 L24.25 66.76 L23.95 67.66
								 L21.79 74.58 L17.42 76.47 L10.01 73.15 L5.61 77.64 L6.07 78.53 L9.35 84.95 L7.61 89.37 L0 92.27
								 L0 98.75 L0.89 99.05 L7.71 101.18 L9.58 105.6 L6.3 113.15 L10.86 117.64 L11.68 117.17 L18.01 113.85
								 L20.04 116.37 L25.29 123.39 L31.63 123.39 L31.92 122.49 L34.19 118.44 L37.79 116.61 L44.95 116.17
								 L49.41 111.55 L49.41 111.12 L50.29 107.8 L52.89 99.92 L48.79 77.74 ZM27.92 109.56 A14.3373 14.5306
								 0 1 1 42.22 95.16 A14.3045 14.4974 0 0 1 27.92 109.56 Z" class="st1"/>
				</g>
				<g id="shape1552-7" transform="translate(18.0775,-15.8181)">
					<title>path19</title>
					<path d="M19.72 110.61 C19.72 117.06 11.88 122.25 10.17 123.31 a0.754593 0.76477 0 0 1 -0.655958 0 C7.81 122.25
								 0 117.06 0 110.61 L0 102.87 a0.62336 0.631767 0 0 1 0.590241 -0.631756 C6.69 102.23 5.28 99.41 9.84
								 99.41 C14.4 99.41 13.12 102.07 19.09 102.23 a0.656168 0.665018 0 0 1 0.623722 0.631756 L19.72 110.61
								 Z" class="st2"/>
				</g>
				<g id="shape1553-9" transform="translate(18.8979,-16.8163)">
					<title>path21</title>
					<path d="M18.08 111.68 C18.08 117.6 10.89 122.35 9.32 123.32 a0.62336 0.631767 0 0 1 -0.590244 -1.42109E-14 C7.15
								 122.35 0 117.6 0 111.68 L0 104.56 a0.557743 0.565265 0 0 1 0.524519 -0.565276 C6.13 104 4.86 101.4
								 9.02 101.4 C13.19 101.4 11.94 103.86 17.52 104 a0.590551 0.598516 0 0 1 0.557999 0.565276 L18.08
								 111.68 Z" class="st3"/>
				</g>
				<g id="shape1554-11" transform="translate(23.4889,-23.4752)">
					<title>path23</title>
					<path d="M8.4 117.17 L7.84 117.17 L7.84 115.31 A3.74016 3.7906 -180 0 0 6.86 112.75 A3.08399 3.12558 -180 0 0
								 4.43 111.69 A3.28084 3.32509 -180 0 0 2 112.75 A3.74016 3.7906 -180 0 0 1.02 115.31 L1.02 117.31
								 L0.46 117.31 a0.459318 0.465512 -180 0 0 -0.460039 0.46549 L0 122.96 a0.459318 0.465512 -180 0 0
								 0.460039 0.432314 L8.4 123.39 a0.426509 0.432261 -180 0 0 0.4588 -0.432314 L8.86 117.64 a0.459318
								 0.465512 -180 0 0 -0.4588 -0.465493 L8.4 117.17 ZM6.24 117.17 L2.63 117.17 L2.63 115.31 A1.9357
								 1.9618 0 0 1 3.18 113.91 A1.70604 1.72905 0 0 1 4.43 113.35 A1.64042 1.66254 0 0 1 5.68 113.91 L5.91
								 114.18 A2.19816 2.22781 0 0 1 6.24 115.31 L6.24 117.17 Z" class="st4"/>
				</g>
				<g id="shape1555-13" transform="translate(15.7761,-1.08317)">
					<title>path25</title>
					<path d="M29.5 74.26 L31.83 69.38 a0.492126 0.498763 -180 0 0 -0.229397 -0.698237 L31.34 68.68 L13.26 70.07 a0.524934
								 0.532014 -180 0 0 -0.4588 0.565275 a0.426509 0.432261 -180 0 0 -1.86517E-13 0.266049 L23.04 85.87
								 a0.524934 0.532014 -180 0 0 0.721679 1.56319E-13 L23.92 85.67 L25.96 81.38 a0.557743 0.565265 0
								 0 1 0.68944 -0.266049 A20.7677 21.0478 0 0 1 34.26 96.24 A21.063 21.3471 0 0 1 13.62 118.06 A21.916
								 22.2116 0 0 1 3.42 115.73 a0.524934 0.532014 -180 0 0 -0.689441 0.19944 L0.04 120.85 a0.524934 0.532014
								 -180 0 0 0.19716 0.698236 A27.9528 28.3298 -180 0 0 37.8 109.54 A27.2638 27.6315 -180 0 0 40.92
								 95.98 A27.6247 27.9972 -180 0 0 29.63 74.9 a0.557743 0.565265 0 0 1 -0.131441 -0.631756 L29.5 74.26
								 Z" class="st5"/>
				</g>
			</g>
		</g>
	</g>
</svg>
