<?xml version="1.0" encoding="UTF-8" standalone="no"?>
<!DOCTYPE svg PUBLIC "-//W3C//DTD SVG 1.1//EN" "http://www.w3.org/Graphics/SVG/1.1/DTD/svg11.dtd">
<!-- Generated by Microsoft Visio, SVG Export Iot Hub Security.svg Page-1 -->
<svg xmlns="http://www.w3.org/2000/svg" xmlns:xlink="http://www.w3.org/1999/xlink" xmlns:ev="http://www.w3.org/2001/xml-events"
		width="1.27805in" height="1.52485in" viewBox="0 0 92.0197 109.789" xml:space="preserve" color-interpolation-filters="sRGB"
		class="st4">
	<style type="text/css">
	<![CDATA[
		.st1 {fill:#7fba00;stroke:none;stroke-linecap:butt;stroke-width:24.75}
		.st2 {fill:#96c414;stroke:none;stroke-linecap:butt;stroke-width:24.75}
		.st3 {fill:#ffffff;stroke:none;stroke-linecap:butt;stroke-width:24.75}
		.st4 {fill:none;fill-rule:evenodd;font-size:12px;overflow:visible;stroke-linecap:square;stroke-miterlimit:3}
	]]>
	</style>

	<g>
		<title>Page-1</title>
		<g id="group1599-1" transform="translate(24.75,-28.3465)">
			<title>Iot Hub Security</title>
			<g id="group1600-2">
				<title> IOT</title>
				<g id="shape1601-3" transform="translate(0.305312,0)">
					<title>path6</title>
					<path d="M35.91 60.05 C23.23 58.67 21.1 53.31 21.1 53.31 C21.1 53.31 18.25 60.36 0 60.36 L0 89.29 C0 92.79 1.98
								 96.07 4.72 98.93 C10.95 105.42 21.1 109.79 21.1 109.79 C21.1 109.79 42.21 100.72 42.21 89.29 L42.21
								 60.36 L42.01 60.36 A58.0996 56.9782 0 0 1 35.65 60.02 L35.91 60.05 L35.91 60.05 Z" class="st1"/>
				</g>
				<g id="shape1602-5" transform="translate(-2.15827E-13,-11.0803)">
					<title>path8</title>
					<path d="M21.1 64.18 C21.1 64.18 18.25 71.22 0 71.22 L0 100.16 C0 103.66 1.98 106.93 4.72 109.79 L35.91 70.91
								 C23.23 69.54 21.1 64.18 21.1 64.18 Z" class="st2"/>
				</g>
				<g id="shape1603-7" transform="translate(7.01371,-18.2964)">
					<title>path10</title>
					<path d="M23.18 109.79 A2.78755 2.73375 0 0 1 21.24 105.09 L18.26 99.99 A3.36024 3.29538 0 0 1 15.95 99.93 L15.97
								 99.94 L13.79 103.48 A2.40275 2.35637 0 1 1 12.11 102.8 L12.11 102.8 C12.22 102.81 12.31 102.82 12.41
								 102.83 L12.4 102.83 L14.69 99.11 A3.50477 3.43712 0 0 1 13.81 97.66 L13.81 97.63 L4.76 98.37 A2.41359
								 2.367 0 1 1 4.5 96.86 L4.5 96.87 L13.7 96.12 C13.82 95.45 14.12 94.85 14.55 94.37 L14.55 94.38 L11.38
								 89.97 A2.9917 2.93395 0 1 1 12.65 89.11 L12.65 89.11 L15.78 93.47 A3.55174 3.48318 0 0 1 19.6 99.24
								 L19.6 99.24 L22.59 104.38 A2.78936 2.73552 0 1 1 23.17 109.78 L23.18 109.79 Z" class="st3"/>
				</g>
			</g>
		</g>
	</g>
</svg>
