<?xml version="1.0" encoding="UTF-8" standalone="no"?>
<!DOCTYPE svg PUBLIC "-//W3C//DTD SVG 1.1//EN" "http://www.w3.org/Graphics/SVG/1.1/DTD/svg11.dtd">
<!-- Generated by Microsoft Visio, SVG Export Iot Central.svg Page-1 -->
<svg xmlns="http://www.w3.org/2000/svg" xmlns:xlink="http://www.w3.org/1999/xlink" xmlns:ev="http://www.w3.org/2001/xml-events"
		width="0.768154in" height="1.25984in" viewBox="0 0 55.3071 90.7087" xml:space="preserve" color-interpolation-filters="sRGB"
		class="st6">
	<style type="text/css">
	<![CDATA[
		.st1 {fill:#a3a3a3;stroke:none;stroke-linecap:butt;stroke-width:0.75}
		.st2 {fill:#949494;stroke:none;stroke-linecap:butt;stroke-width:0.75}
		.st3 {fill:#32bedd;stroke:none;stroke-linecap:butt;stroke-width:0.75}
		.st4 {fill:#9cebff;stroke:none;stroke-linecap:butt;stroke-width:0.75}
		.st5 {fill:#50e6ff;stroke:none;stroke-linecap:butt;stroke-width:0.75}
		.st6 {fill:none;fill-rule:evenodd;font-size:12px;overflow:visible;stroke-linecap:square;stroke-miterlimit:3}
	]]>
	</style>

	<g>
		<title>Page-1</title>
		<g id="group1639-1" transform="translate(4.53543,-28.3465)">
			<title>Iot Central</title>
			<g id="shape1640-2">
				<title>Sheet.1640</title>
				<path d="M22.68 34.02 L0 48.16 L0 57.61 L8.81 63.43 L8.81 57.76 L4.19 54.87 L4.19 50.96 L22.68 39.31 L41.17 50.99
							 L41.17 73.61 L22.68 85.26 L0 71.12 L0 76.41 L22.68 90.71 L45.35 76.57 L45.35 48.22 L22.68 34.02 Z"
						class="st1"/>
			</g>
			<g id="shape1641-4" transform="translate(0,-39.748)">
				<title>Sheet.1641</title>
				<path d="M22.68 73.76 L0 87.91 L4.19 90.71 L22.68 79.06 L41.17 90.71 L45.35 87.91 L22.68 73.76 Z" class="st2"/>
			</g>
			<g id="shape1642-6" transform="translate(22.6772,-12.8189)">
				<title>Sheet.1642</title>
				<path d="M12.28 67.43 L12.28 82.93 L0 90.71 L0 75.21 L12.28 67.43 Z" class="st3"/>
			</g>
			<g id="shape1643-8" transform="translate(10.3997,-28.315)">
				<title>Sheet.1643</title>
				<path d="M24.55 82.93 L12.28 90.71 L0 82.93 L12.28 75.15 L24.55 82.93 Z" class="st4"/>
			</g>
			<g id="shape1644-10" transform="translate(10.3997,-12.8189)">
				<title>Sheet.1644</title>
				<path d="M12.28 75.21 L12.28 90.71 L0 82.93 L0 67.43 L12.28 75.21 Z" class="st5"/>
			</g>
			<g id="shape1645-12" transform="translate(10.3997,-12.8189)">
				<title>Sheet.1645</title>
				<path d="M0 82.93 L12.28 75.21 L12.28 90.71 L0 82.93 Z" class="st4"/>
			</g>
			<g id="shape1646-14" transform="translate(22.6772,-12.8189)">
				<title>Sheet.1646</title>
				<path d="M12.28 82.93 L0 75.21 L0 90.71 L12.28 82.93 Z" class="st5"/>
			</g>
		</g>
	</g>
</svg>
