<?xml version="1.0" encoding="UTF-8" standalone="no"?>
<!DOCTYPE svg PUBLIC "-//W3C//DTD SVG 1.1//EN" "http://www.w3.org/Graphics/SVG/1.1/DTD/svg11.dtd">
<!-- Generated by Microsoft Visio, SVG Export Iot Hub.svg Page-1 -->
<svg xmlns="http://www.w3.org/2000/svg" xmlns:xlink="http://www.w3.org/1999/xlink" xmlns:ev="http://www.w3.org/2001/xml-events"
		width="1.724in" height="1.724in" viewBox="0 0 124.128 124.128" xml:space="preserve" color-interpolation-filters="sRGB"
		class="st4">
	<style type="text/css">
	<![CDATA[
		.st1 {fill:#ffffff;stroke:none;stroke-linecap:butt;stroke-width:33.7176}
		.st2 {fill:#949494;stroke:none;stroke-linecap:butt;stroke-width:33.7176}
		.st3 {fill:url(#grad0-22);stroke:none;stroke-linecap:butt;stroke-width:33.7176}
		.st4 {fill:none;fill-rule:evenodd;font-size:12px;overflow:visible;stroke-linecap:square;stroke-miterlimit:3}
	]]>
	</style>

	<defs id="Patterns_And_Gradients">
		<linearGradient id="grad0-22" x1="0" y1="0" x2="1" y2="0" gradientTransform="rotate(-90.596448237298 0.5 0.5)">
			<stop offset="0" stop-color="#198ab3" stop-opacity="1"/>
			<stop offset="0" stop-color="#198ab3" stop-opacity="1"/>
			<stop offset="0.09" stop-color="#22a5cb" stop-opacity="1"/>
			<stop offset="0.19" stop-color="#29bade" stop-opacity="1"/>
			<stop offset="0.29" stop-color="#2ec9eb" stop-opacity="1"/>
			<stop offset="0.42" stop-color="#31d1f3" stop-opacity="1"/>
			<stop offset="0.62" stop-color="#32d4f5" stop-opacity="1"/>
		</linearGradient>
	</defs>
	<g>
		<title>Page-1</title>
		<g id="group1588-1" transform="translate(33.7176,-33.7176)">
			<title>Iot Hub</title>
			<g id="shape1589-2" transform="translate(29.7754,-23.6248)">
				<title>fa3a22e9-e4e8-46a1-bc09-f953274</title>
				<ellipse cx="6.5466" cy="117.554" rx="6.5466" ry="6.57358" class="st1"/>
			</g>
			<g id="shape1590-4" transform="translate(42.1375,-5.47242)">
				<title>eb214416-6791-4934-ac0c-35afaa8</title>
				<ellipse cx="5.15088" cy="118.956" rx="5.15088" ry="5.1721" class="st1"/>
			</g>
			<g id="shape1591-6" transform="translate(22.4977,-9.74358)">
				<title>a4424413-b91f-48da-aedd-39e3a97</title>
				<ellipse cx="4.41979" cy="119.69" rx="4.41979" ry="4.438" class="st1"/>
			</g>
			<g id="shape1592-8" transform="translate(18.2441,-42.478)">
				<title>f7ecfc1a-3268-471b-9464-57023bf</title>
				<ellipse cx="5.48319" cy="118.622" rx="5.48319" ry="5.50579" class="st1"/>
			</g>
			<g id="shape1593-10" transform="translate(4.61918,-23.2578)">
				<title>b4388938-ad80-41b4-b729-5c21e3e</title>
				<ellipse cx="4.41979" cy="119.69" rx="4.41979" ry="4.438" class="st1"/>
			</g>
			<g id="shape1594-12" transform="translate(8.90604,-10.2775)">
				<title>polygon26</title>
				<path d="M24.59 102.87 L0 104.91 L0.23 107.78 L24.59 105.74 L16.52 119.22 L18.94 120.69 L27.25 106.81 L37.12 124.13
							 L39.58 122.73 L28.51 103.27 L27.42 103.91 L28.31 103.24 L15.78 85.35 L13.49 87.02 L24.59 102.87 Z"
						class="st2"/>
			</g>
			<g id="group1595-14">
				<title>g32</title>
				<g id="shape1596-15" transform="translate(40.4427,-40.6761)">
					<title>path28</title>
					<path d="M16.25 110.55 A2.4259 2.43589 -180 0 0 13.82 108.11 L1.2 108.11 A1.19633 1.20126 -180 0 0 0 109.31 L0
								 114.02 A1.19633 1.20126 -180 0 0 1.2 115.22 L9.01 115.22 L9.01 122.89 A1.2628 1.268 -180 0 0 10.24
								 124.13 L14.89 124.13 A1.2628 1.268 -180 0 0 16.12 122.89 L16.12 110.55 L16.25 110.55 Z"
							class="st2"/>
				</g>
				<g id="shape1597-17">
					<title>path30</title>
					<path d="M15.05 117.05 L7.11 117.05 L7.11 109.38 A1.2628 1.268 -180 0 0 5.88 108.14 L1.23 108.14 A1.2628 1.268
								 -180 0 0 -0 109.38 L0 121.73 A2.4259 2.43589 -180 0 0 2.43 124.13 L15.05 124.13 A1.19633 1.20126
								 -180 0 0 16.25 122.93 L16.25 118.26 A1.19633 1.20126 -180 0 0 15.05 117.05 Z" class="st2"/>
				</g>
			</g>
			<g id="shape1598-19" transform="translate(4.61918,-6.9421)">
				<title>path34</title>
				<path d="M31.7 94.36 A6.6463 6.67368 0 1 1 25.06 100.87 A6.6463 6.67368 0 0 1 31.7 94.36 ZM13.76 83.09 A5.51643 5.53915
							 -180 1 0 19.14 77.58 A5.4832 5.50579 -180 0 0 13.76 83.09 ZM0 103.34 A4.41979 4.438 -180 1 0 4.42 98.9
							 A4.41979 4.438 -180 0 0 0 103.34 ZM17.88 116.86 A4.45302 4.47137 -180 1 0 22.33 112.42 A4.41979 4.438
							 -180 0 0 17.88 116.86 ZM37.55 120.43 A5.15088 5.1721 -180 1 0 42.7 115.29 A5.08442 5.10537 -180 0 0
							 37.55 120.43 Z" class="st3"/>
			</g>
		</g>
	</g>
</svg>
