<?xml version="1.0" encoding="UTF-8" standalone="no"?>
<!DOCTYPE svg PUBLIC "-//W3C//DTD SVG 1.1//EN" "http://www.w3.org/Graphics/SVG/1.1/DTD/svg11.dtd">
<!-- Generated by Microsoft Visio, SVG Export Iot Device Provisioning Service.svg Page-1 -->
<svg xmlns="http://www.w3.org/2000/svg" xmlns:xlink="http://www.w3.org/1999/xlink" xmlns:ev="http://www.w3.org/2001/xml-events"
		width="0.898075in" height="1.25984in" viewBox="0 0 64.6614 90.7087" xml:space="preserve" color-interpolation-filters="sRGB"
		class="st2">
	<style type="text/css">
	<![CDATA[
		.st1 {fill:#0072c6;stroke:none;stroke-linecap:butt;stroke-width:0.140354}
		.st2 {fill:none;fill-rule:evenodd;font-size:12px;overflow:visible;stroke-linecap:square;stroke-miterlimit:3}
	]]>
	</style>

	<g>
		<title>Page-1</title>
		<g id="group1624-1" transform="translate(5.38583,-28.3465)">
			<title>Iot Device Provisioning Service</title>
			<g id="group1625-2">
				<title>g30</title>
				<g id="shape1626-3" transform="translate(17.1156,-41.2724)">
					<title>circle4</title>
					<ellipse cx="4.1583" cy="86.5092" rx="4.1583" ry="4.19947" class="st1"/>
				</g>
				<g id="shape1627-5" transform="translate(25.8147,-26.9438)">
					<title>circle6</title>
					<ellipse cx="4.95669" cy="85.7029" rx="4.95669" ry="5.00577" class="st1"/>
				</g>
				<g id="shape1628-7" transform="translate(35.1958,-13.1528)">
					<title>circle8</title>
					<ellipse cx="3.87553" cy="86.7948" rx="3.87553" ry="3.91391" class="st1"/>
				</g>
				<g id="shape1629-9" transform="translate(20.3424,-16.3948)">
					<title>circle10</title>
					<ellipse cx="3.34327" cy="87.3323" rx="3.34327" ry="3.37638" class="st1"/>
				</g>
				<g id="shape1630-11" transform="translate(6.80297,-26.6751)">
					<title>circle12</title>
					<ellipse cx="3.34327" cy="87.3323" rx="3.34327" ry="3.37638" class="st1"/>
				</g>
				<g id="shape1631-13" transform="translate(19.6411,-30.8223)">
					<title>path14</title>
					<path d="M0 76.39 L2.46 74.64 L12.43 88.96 L9.97 90.71 L0 76.39 Z" class="st1"/>
				</g>
				<g id="shape1632-15" transform="translate(29.1646,-16.2022)">
					<title>path16</title>
					<path d="M0 75.17 L2.61 73.66 L11.42 89.2 L8.81 90.71 L0 75.17 Z" class="st1"/>
				</g>
				<g id="shape1633-17" transform="translate(9.57623,-28.7604)">
					<title>path18</title>
					<path d="M0 87.68 L21.28 85.89 L21.53 88.92 L0.25 90.71 L0 87.68 Z" class="st1"/>
				</g>
				<g id="shape1634-19" transform="translate(21.9352,-18.7916)">
					<title>path20</title>
					<path d="M0 89.14 L7.63 76.35 L10.21 77.92 L2.58 90.71 L0 89.14 Z" class="st1"/>
				</g>
				<g id="shape1635-21" transform="translate(1.59679,-38.2992)">
					<title>circle22</title>
					<ellipse cx="3.99197" cy="86.6772" rx="3.99197" ry="4.0315" class="st1"/>
				</g>
				<g id="shape1636-23" transform="translate(44.1778,-38.2992)">
					<title>circle24</title>
					<ellipse cx="3.99197" cy="86.6772" rx="3.99197" ry="4.0315" class="st1"/>
				</g>
				<g id="shape1637-25" transform="translate(23.9518,0)">
					<title>circle26</title>
					<ellipse cx="3.99197" cy="86.6772" rx="3.99197" ry="4.0315" class="st1"/>
				</g>
				<g id="shape1638-27" transform="translate(0,-2.65407)">
					<title>path28</title>
					<path d="M9.96 47.49 C14.24 42.97 20.26 40.16 26.93 40.16 C33.57 40.16 39.57 42.95 43.85 47.44 C44.59 46.51 45.64
								 45.82 46.82 45.52 C46.56 45.22 46.27 44.92 45.97 44.63 C43.5 42.13 40.62 40.18 37.41 38.8 C34.08
								 37.38 30.56 36.67 26.91 36.67 C23.27 36.67 19.74 37.39 16.42 38.8 C13.21 40.18 10.33 42.13 7.85
								 44.63 C7.55 44.93 7.27 45.24 6.99 45.54 C8.2 45.86 9.21 46.55 9.96 47.49 ZM52.34 54.83 C51.55 55.72
								 50.48 56.34 49.27 56.59 C50 58.89 50.4 61.33 50.4 63.88 C50.4 74.87 43 84.11 32.95 86.79 C33.33
								 87.57 33.55 88.42 33.55 89.35 C33.55 89.67 33.52 89.99 33.47 90.29 C34.81 89.95 36.13 89.5 37.41
								 88.96 C40.62 87.58 43.5 85.64 45.97 83.13 C48.45 80.63 50.38 77.72 51.75 74.48 C53.16 71.12 53.86
								 67.56 53.86 63.88 C53.86 60.76 53.36 57.72 52.34 54.83 ZM22.74 87.2 C11.78 85.2 3.46 75.52 3.46
								 63.87 C3.46 61.33 3.86 58.89 4.59 56.59 C3.38 56.37 2.31 55.75 1.5 54.9 C0.5 57.77 0 60.77 0 63.87
								 C0 67.54 0.72 71.11 2.11 74.47 C3.48 77.71 5.41 80.61 7.88 83.12 C10.36 85.62 13.24 87.57 16.45
								 88.94 C18.4 89.78 20.43 90.37 22.5 90.71 C22.39 90.27 22.34 89.8 22.34 89.33 C22.32 88.58 22.47
								 87.85 22.74 87.2 Z" class="st1"/>
				</g>
			</g>
		</g>
	</g>
</svg>
