<?xml version="1.0" encoding="UTF-8" standalone="no"?>
<!DOCTYPE svg PUBLIC "-//W3C//DTD SVG 1.1//EN" "http://www.w3.org/Graphics/SVG/1.1/DTD/svg11.dtd">
<!-- Generated by Microsoft Visio, SVG Export Java.svg Page-1 -->
<svg xmlns="http://www.w3.org/2000/svg" xmlns:xlink="http://www.w3.org/1999/xlink" xmlns:ev="http://www.w3.org/2001/xml-events"
		width="0.908711in" height="1.35315in" viewBox="0 0 65.4272 97.427" xml:space="preserve" color-interpolation-filters="sRGB"
		class="st5">
	<style type="text/css">
	<![CDATA[
		.st1 {fill:#5382a1}
		.st2 {stroke:none;stroke-linecap:butt;stroke-width:12.3877}
		.st3 {fill:#e76f00}
		.st4 {fill:#5382a1;stroke:none;stroke-linecap:butt;stroke-width:12.3877}
		.st5 {fill:none;fill-rule:evenodd;font-size:12px;overflow:visible;stroke-linecap:square;stroke-miterlimit:3}
	]]>
	</style>

	<g>
		<title>Page-1</title>
		<g id="group1527-1" transform="translate(7.05887,-28.3465)">
			<title>Java</title>
			<g id="group1528-2">
				<title>layer1</title>
				<g id="shape1529-3" transform="translate(7.75501,-5.81745)">
					<title>path6</title>
					<path d="M10.66 90.03 C10.66 90.03 8.55 91.28 12.16 91.7 A31.5607 32.1675 -180 0 0 23.58 91.2 A19.8706 20.2526
								 -180 0 0 26.62 92.71 C15.82 97.43 2.18 92.44 10.66 90 L10.66 90.03 ZM9.34 83.88 C9.34 83.88 6.98
								 85.68 10.59 86.05 A44.5537 45.4103 -180 0 0 25.33 85.32 A6.54081 6.66657 -180 0 0 27.59 86.77 C14.54
								 90.62 0 87.04 9.34 83.88 Z" class="st1"/>
					<path d="M10.66 90.03 C10.66 90.03 8.55 91.28 12.16 91.7 A31.5607 32.1675 -180 0 0 23.58 91.2 A19.8706 20.2526
								 -180 0 0 26.62 92.71 C15.82 97.43 2.18 92.44 10.66 90M9.34 83.88 C9.34 83.88 6.98 85.68 10.59 86.05
								 A44.5537 45.4103 -180 0 0 25.33 85.32 A6.54081 6.66657 -180 0 0 27.59 86.77 C14.54 90.62 0 87.04
								 9.34 83.88" class="st2"/>
				</g>
				<g id="shape1530-6" transform="translate(19.197,-23.875)">
					<title>path8</title>
					<path d="M9.02 91.49 C11.68 94.62 8.32 97.43 8.32 97.43 C8.32 97.43 15.08 93.88 11.97 89.42 C9.08 85.27 6.85
								 83.21 18.89 76.1 C18.89 76.1 0 80.91 9.02 91.46 L9.02 91.49 Z" class="st3"/>
					<path d="M9.02 91.49 C11.68 94.62 8.32 97.43 8.32 97.43 C8.32 97.43 15.08 93.88 11.97 89.42 C9.08 85.27 6.85
								 83.21 18.89 76.1 C18.89 76.1 0 80.91 9.02 91.46" class="st2"/>
				</g>
				<g id="shape1531-9" transform="translate(0,-0.794851)">
					<title>path10</title>
					<path d="M42.5 89.56 C42.5 89.56 44.06 90.87 40.81 91.88 C34.61 93.8 14.87 94.38 9.39 91.95 C7.43 91.05 11.11
								 89.87 12.28 89.61 A7.48914 7.63313 0 0 1 14.18 89.4 C11.99 87.82 0 92.49 8.11 93.81 C30.12 97.43
								 48.24 92.18 42.53 89.55 L42.5 89.56 ZM19.43 72.48 C19.43 72.48 9.4 74.91 15.88 75.78 A75.3345 76.7829
								 -180 0 0 29.18 75.64 C33.32 75.29 37.49 74.53 37.49 74.53 A17.6017 17.9401 -180 0 0 34.97 75.9 C24.79
								 78.61 5.13 77.36 10.79 74.57 A18.9666 19.3312 0 0 1 19.46 72.48 L19.43 72.48 ZM37.41 82.72 C47.76
								 77.23 42.98 71.97 39.63 72.71 A7.74616 7.89509 -180 0 0 38.45 73.04 A1.88779 1.92409 0 0 1 39.33
								 72.34 C45.94 69.98 51.02 79.32 37.2 83.03 a0.886289 0.903329 -180 0 0 0.204 -0.27996 L37.41 82.72
								 Z" class="st1"/>
					<path d="M42.5 89.56 C42.5 89.56 44.06 90.87 40.81 91.88 C34.61 93.8 14.87 94.38 9.39 91.95 C7.43 91.05 11.11
								 89.87 12.28 89.61 A7.48914 7.63313 0 0 1 14.18 89.4 C11.99 87.82 0 92.49 8.11 93.81 C30.12 97.43
								 48.24 92.18 42.53 89.55M19.43 72.48 C19.43 72.48 9.4 74.91 15.88 75.78 A75.3345 76.7829 -180 0 0
								 29.18 75.64 C33.32 75.29 37.49 74.53 37.49 74.53 A17.6017 17.9401 -180 0 0 34.97 75.9 C24.79 78.61
								 5.13 77.36 10.79 74.57 A18.9666 19.3312 0 0 1 19.46 72.48M37.41 82.72 C47.76 77.23 42.98 71.97 39.63
								 72.71 A7.74616 7.89509 -180 0 0 38.45 73.04 A1.88779 1.92409 0 0 1 39.33 72.34 C45.94 69.98 51.02
								 79.32 37.2 83.03 a0.886289 0.903329 -180 0 0 0.204 -0.27996" class="st2"/>
				</g>
				<g id="shape1532-12" transform="translate(16.68,-25.8442)">
					<title>path12</title>
					<path d="M14.49 66.58 C14.49 66.58 20.23 72.47 9.07 81.41 C0.12 88.64 7.03 92.73 9.07 97.43 C3.84 92.62 0 88.39
								 2.58 84.46 C6.35 78.67 16.82 75.87 14.51 66.59 L14.49 66.58 Z" class="st3"/>
					<path d="M14.49 66.58 C14.49 66.58 20.23 72.47 9.07 81.41 C0.12 88.64 7.03 92.73 9.07 97.43 C3.84 92.62 0 88.39
								 2.58 84.46 C6.35 78.67 16.82 75.87 14.51 66.59" class="st2"/>
				</g>
				<g id="shape1533-15" transform="translate(12.6385,7.10543E-14)">
					<title>path14</title>
					<path d="M7.79 96.78 C17.73 97.43 32.98 96.42 33.34 91.63 C33.34 91.63 32.65 93.43 25.14 94.89 A81.6715 83.2417
								 0 0 1 0 95.29 C0 95.29 1.28 96.31 7.79 96.78 Z" class="st4"/>
				</g>
			</g>
		</g>
	</g>
</svg>
