<?xml version="1.0" encoding="UTF-8" standalone="no"?>
<!DOCTYPE svg PUBLIC "-//W3C//DTD SVG 1.1//EN" "http://www.w3.org/Graphics/SVG/1.1/DTD/svg11.dtd">
<!-- Generated by Microsoft Visio, SVG Export Key Vault HSM.svg Page-1 -->
<svg xmlns="http://www.w3.org/2000/svg" xmlns:xlink="http://www.w3.org/1999/xlink" xmlns:ev="http://www.w3.org/2001/xml-events"
		width="1.07966in" height="1.24849in" viewBox="0 0 77.7358 89.8915" xml:space="preserve" color-interpolation-filters="sRGB"
		class="st5">
	<style type="text/css">
	<![CDATA[
		.st1 {fill:#3e3e3e;stroke:none;stroke-linecap:butt;stroke-width:10.5214}
		.st2 {fill:#ffffff;fill-opacity:0.2;stroke:none;stroke-linecap:butt;stroke-width:10.5214}
		.st3 {fill:#b8d432;stroke:none;stroke-linecap:butt;stroke-width:10.5214}
		.st4 {fill:#fcd116;stroke:none;stroke-linecap:butt;stroke-width:10.5214}
		.st5 {fill:none;fill-rule:evenodd;font-size:12px;overflow:visible;stroke-linecap:square;stroke-miterlimit:3}
	]]>
	</style>

	<g>
		<title>Page-1</title>
		<g id="group1521-1" transform="translate(10.5214,-28.3465)">
			<title>Key Vault HSM</title>
			<g id="group1522-2">
				<title>layer1</title>
				<g id="shape1523-3">
					<title>path2</title>
					<path d="M54.17 69.02 L2.52 69.02 A2.51943 2.47003 -180 0 0 -0 71.49 L0 87.42 C0 88.79 1.13 89.89 2.52 89.89
								 L54.17 89.89 A2.51943 2.47003 -180 0 0 56.69 87.42 L56.69 71.49 C56.69 70.13 55.56 69.02 54.17 69.02
								 Z" class="st1"/>
				</g>
				<g id="shape1524-5">
					<title>path4</title>
					<path d="M43.97 69.02 L2.52 69.02 A2.51943 2.47003 -180 0 0 0 71.49 L0 87.42 C0 88.79 1.13 89.89 2.52 89.89 L12.22
								 89.89 L43.97 69.02 Z" class="st2"/>
				</g>
				<g id="shape1525-7" transform="translate(35.1496,-13.3395)">
					<title>path6</title>
					<path d="M13.61 86.56 L17.01 86.56 L17.01 89.89 L13.61 89.89 L13.61 86.56 ZM6.8 86.56 L10.2 86.56 L10.2 89.89
								 L6.8 89.89 L6.8 86.56 ZM0 86.56 L3.4 86.56 L3.4 89.89 L0 89.89 L0 86.56 Z" class="st3"/>
				</g>
				<g id="shape1526-9" transform="translate(15.9874,-4.44649)">
					<title>path8</title>
					<path d="M23.58 54.88 C23.58 48.49 18.31 43.31 11.79 43.31 C5.28 43.31 0 48.49 0 54.88 C0 60.3 3.82 64.84 8.96
								 66.09 L8.96 79.89 L3.29 79.89 L3.29 85.45 L8.96 85.45 L8.96 89.89 L14.63 89.89 L14.63 66.09 C19.77
								 64.84 23.58 60.3 23.58 54.88 ZM11.79 60.93 C8.39 60.93 5.61 58.21 5.61 54.88 C5.61 51.54 8.39 48.82
								 11.79 48.82 C15.2 48.82 17.97 51.54 17.97 54.88 C17.97 58.21 15.2 60.93 11.79 60.93 Z" class="st4"/>
				</g>
			</g>
		</g>
	</g>
</svg>
