<?xml version="1.0" encoding="UTF-8" standalone="no"?>
<!DOCTYPE svg PUBLIC "-//W3C//DTD SVG 1.1//EN" "http://www.w3.org/Graphics/SVG/1.1/DTD/svg11.dtd">
<!-- Generated by Microsoft Visio, SVG Export Lab Service.svg Page-1 -->
<svg xmlns="http://www.w3.org/2000/svg" xmlns:xlink="http://www.w3.org/1999/xlink" xmlns:ev="http://www.w3.org/2001/xml-events"
		width="1.73185in" height="1.69257in" viewBox="0 0 124.693 121.865" xml:space="preserve" color-interpolation-filters="sRGB"
		class="st4">
	<style type="text/css">
	<![CDATA[
		.st1 {fill:url(#grad0-6);stroke:none;stroke-linecap:butt;stroke-width:34}
		.st2 {fill:url(#grad0-10);stroke:none;stroke-linecap:butt;stroke-width:34}
		.st3 {fill:#ffffff;stroke:none;stroke-linecap:butt;stroke-width:34}
		.st4 {fill:none;fill-rule:evenodd;font-size:12px;overflow:visible;stroke-linecap:square;stroke-miterlimit:3}
	]]>
	</style>

	<defs id="Patterns_And_Gradients">
		<linearGradient id="grad0-6" x1="0" y1="0" x2="1" y2="0" gradientTransform="rotate(-90 0.5 0.5)">
			<stop offset="0" stop-color="#0078d4" stop-opacity="1"/>
			<stop offset="0.16" stop-color="#1380da" stop-opacity="1"/>
			<stop offset="0.53" stop-color="#3c91e5" stop-opacity="1"/>
			<stop offset="0.82" stop-color="#559cec" stop-opacity="1"/>
			<stop offset="1" stop-color="#5ea0ef" stop-opacity="1"/>
		</linearGradient>
		<linearGradient id="grad0-10" x1="0" y1="0" x2="1" y2="0" gradientTransform="rotate(89.407756635938 0.5 0.5)">
			<stop offset="0" stop-color="#32d4f5" stop-opacity="1"/>
			<stop offset="0.32" stop-color="#31d1f3" stop-opacity="1"/>
			<stop offset="0.53" stop-color="#2ec9eb" stop-opacity="1"/>
			<stop offset="0.7" stop-color="#29bade" stop-opacity="1"/>
			<stop offset="0.86" stop-color="#22a5cb" stop-opacity="1"/>
			<stop offset="1" stop-color="#198ab3" stop-opacity="1"/>
			<stop offset="1" stop-color="#198ab3" stop-opacity="1"/>
		</linearGradient>
	</defs>
	<g>
		<title>Page-1</title>
		<g id="group1508-1" transform="translate(34,-34)">
			<title>Lab Service</title>
			<g id="group1509-2">
				<title>Icon-devops-265</title>
				<g id="shape1510-3" transform="translate(0,-14.3254)">
					<title>Sheet.1510</title>
					<path d="M56.69 109.52 A12.7243 12.545 -180 0 0 45.63 97.47 A16.0219 15.7962 -180 0 0 29.15 82.33 A16.6548 16.4202
								 -180 0 0 13.32 92.84 A15.1226 14.9095 -180 0 0 0 107.26 A15.389 15.1723 -180 0 0 15.96 121.84 A9.99288
								 9.85212 -180 0 0 17.35 121.84 L43.17 121.84 A2.13181 2.10179 -180 0 0 43.84 121.84 A12.8575 12.6764
								 -180 0 0 56.69 109.52 Z" class="st1"/>
				</g>
				<g id="shape1511-7" transform="translate(13.99,2.70006E-13)">
					<title>Sheet.1511</title>
					<path d="M33.74 121.87 L1.63 121.87 C0.6 121.87 0 120.26 0.57 119.4 L11.63 103.51 A1.13253 1.11657 -180 0 0 11.86
								 102.79 L11.86 92.28 a0.666192 0.656808 -180 0 0 -0.632882 -0.623968 L10.63 91.65 A1.26576 1.24794
								 0 0 1 9.36 90.4 L9.36 89.85 A1.26576 1.24794 0 0 1 10.63 88.6 L24.72 88.6 A1.26576 1.24794 0 0 1
								 25.98 89.85 L25.98 90.4 A1.26576 1.24794 0 0 1 24.72 91.65 L24.12 91.65 a0.632882 0.623968 -180
								 0 0 -0.632882 0.623968 L23.48 102.82 A1.19915 1.18225 -180 0 0 23.72 103.54 L34.78 119.4 C35.34
								 120.22 34.74 121.87 33.74 121.87 Z" class="st2"/>
				</g>
				<g id="shape1512-11" transform="translate(19.2653,-3.11984)">
					<title>Sheet.1512</title>
					<path d="M0.05 120.72 L8.45 108.63 A3.1311 3.087 -180 0 0 9.11 106.92 L9.11 102.06 a0.965978 0.952372 0 0 1 0.965978
								 -0.952372 L14.88 101.11 a0.965978 0.952372 0 0 1 0.965978 0.952372 L15.84 107.25 A2.03188 2.00326
								 -180 0 0 16.21 108.4 L24.8 120.72 a0.76612 0.755329 0 0 1 -0.599573 1.14941 L0.89 121.87 a0.732811
								 0.722489 0 0 1 -0.83274 -1.14941 Z" class="st3"/>
				</g>
			</g>
		</g>
	</g>
</svg>
