<?xml version="1.0" encoding="UTF-8" standalone="no"?>
<!DOCTYPE svg PUBLIC "-//W3C//DTD SVG 1.1//EN" "http://www.w3.org/Graphics/SVG/1.1/DTD/svg11.dtd">
<!-- Generated by Microsoft Visio, SVG Export License.svg Page-1 -->
<svg xmlns="http://www.w3.org/2000/svg" xmlns:xlink="http://www.w3.org/1999/xlink" xmlns:ev="http://www.w3.org/2001/xml-events"
		width="0.976181in" height="1.3936in" viewBox="0 0 70.285 100.339" xml:space="preserve" color-interpolation-filters="sRGB"
		class="st5">
	<style type="text/css">
	<![CDATA[
		.st1 {fill:#59b4d9;stroke:none;stroke-linecap:butt;stroke-width:15.3}
		.st2 {fill:#ffffff;fill-opacity:0.2;stroke:none;stroke-linecap:butt;stroke-width:15.3}
		.st3 {fill:#dd5900;stroke:none;stroke-linecap:butt;stroke-width:15.3}
		.st4 {fill:#fcd116;fill-opacity:0.7;stroke:none;stroke-linecap:butt;stroke-width:15.3}
		.st5 {fill:none;fill-rule:evenodd;font-size:12px;overflow:visible;stroke-linecap:square;stroke-miterlimit:3}
	]]>
	</style>

	<g>
		<title>Page-1</title>
		<g id="group1501-1" transform="translate(15.3,-28.3465)">
			<title>License</title>
			<g id="group1502-2">
				<title>g14</title>
				<g id="shape1503-3" transform="translate(0,-2.83465)">
					<title>path4</title>
					<path d="M31 57.52 C31 63.63 26.07 68.56 19.96 68.56 C13.86 68.56 8.92 63.63 8.92 57.52 C9.03 51.41 13.96 46.48
								 19.96 46.48 A11.0239 11.0239 0 0 1 31 57.52 ZM28 71.99 L19.96 83.25 L11.93 71.99 L0 71.99 L0 100.34
								 L39.69 100.34 L39.69 71.99 L28 71.99 Z" class="st1"/>
				</g>
				<g id="shape1504-5" transform="translate(0,-2.83465)">
					<title>path6</title>
					<path d="M9.03 57.52 C9.03 63.52 13.86 68.35 19.75 68.56 L22.54 46.91 C21.68 46.59 20.82 46.48 19.96 46.48 C13.96
								 46.48 9.03 51.41 9.03 57.52 ZM11.93 71.99 L0 71.99 L0 100.34 L15.78 100.34 L18.25 80.97 L11.93 71.99
								 Z" class="st2"/>
				</g>
				<g id="shape1505-7" transform="translate(23.3135,-11.9679)">
					<title>circle8</title>
					<ellipse cx="6.83858" cy="93.5008" rx="6.83858" ry="6.83858" class="st3"/>
				</g>
				<g id="shape1506-9" transform="translate(25.0228,-13.6772)">
					<title>circle10</title>
					<ellipse cx="5.12929" cy="95.2101" rx="5.12929" ry="5.12929" class="st4"/>
				</g>
				<g id="shape1507-11" transform="translate(24.1739,0)">
					<title>path12</title>
					<path d="M5.98 86.66 A7.65354 7.65354 0 0 1 0.81 84.65 L0 100.25 L5.89 94.36 L11.88 100.34 L11.96 99.48 L11.14
								 84.65 A7.65354 7.65354 0 0 1 5.98 86.66 Z" class="st3"/>
				</g>
			</g>
		</g>
	</g>
</svg>
