<?xml version="1.0" encoding="UTF-8" standalone="no"?>
<!DOCTYPE svg PUBLIC "-//W3C//DTD SVG 1.1//EN" "http://www.w3.org/Graphics/SVG/1.1/DTD/svg11.dtd">
<!-- Generated by Microsoft Visio, SVG Export Local Network Gateway.svg Page-1 -->
<svg xmlns="http://www.w3.org/2000/svg" xmlns:xlink="http://www.w3.org/1999/xlink" xmlns:ev="http://www.w3.org/2001/xml-events"
		width="1.1274in" height="1.3511in" viewBox="0 0 81.1729 97.2794" xml:space="preserve" color-interpolation-filters="sRGB"
		class="st4">
	<style type="text/css">
	<![CDATA[
		.st1 {fill:#57a300;stroke:none;stroke-linecap:butt;stroke-width:12.24}
		.st2 {fill:#ffffff;fill-opacity:0.15;stroke:none;stroke-linecap:butt;stroke-width:12.24}
		.st3 {fill:#ffffff;stroke:none;stroke-linecap:butt;stroke-width:12.24}
		.st4 {fill:none;fill-rule:evenodd;font-size:12px;overflow:visible;stroke-linecap:square;stroke-miterlimit:3}
	]]>
	</style>

	<g>
		<title>Page-1</title>
		<g id="group1490-1" transform="translate(12.24,-28.3465)">
			<title>Local Network Gateway</title>
			<g id="group1491-2">
				<title>Sheet.1491</title>
				<g id="shape1492-3">
					<title>Sheet.1492</title>
					<path d="M28.29 97.28 C26.93 97.28 25.57 96.71 24.56 95.69 L1.58 72.67 C0.57 71.65 0 70.29 0 68.93 C0 67.57 0.57
								 66.21 1.58 65.19 L24.56 42.17 C25.57 41.15 26.93 40.59 28.29 40.59 C29.65 40.59 31.01 41.15 32.02
								 42.17 L55.11 65.3 C56.13 66.33 56.69 67.57 56.69 69.05 C56.69 70.41 56.13 71.77 55.11 72.79 L32.02
								 95.69 C31.01 96.71 29.65 97.28 28.29 97.28 Z" class="st1"/>
				</g>
				<g id="shape1493-5" transform="translate(-2.79776E-13,-11.5654)">
					<title>Sheet.1493</title>
					<path d="M32.02 53.74 C31.01 52.72 29.65 52.15 28.29 52.15 C26.93 52.15 25.57 52.72 24.56 53.74 L1.58 76.76 C0.57
								 77.78 0 79.14 0 80.5 C0 81.86 0.57 83.22 1.58 84.24 L14.6 97.28 L39.15 60.88 L32.02 53.74 Z"
							class="st2"/>
				</g>
				<g id="shape1494-7" transform="translate(7.24221,-4.98898)">
					<title>Sheet.1494</title>
					<path d="M21.05 50.56 L13.58 58.05 L18.9 58.05 L18.9 68.93 L23.31 68.93 L23.31 58.05 L28.52 58.05 L21.05 50.56
								 ZM21.05 97.28 L28.52 89.8 L23.2 89.8 L23.2 79.14 L18.78 79.14 L18.78 89.8 L13.58 89.8 L21.05 97.28
								 ZM24.56 73.92 L32.02 81.41 L32.02 76.19 L42.1 76.19 L42.1 71.65 L32.02 71.65 L32.02 66.44 L24.56
								 73.92 ZM17.65 73.92 L10.18 66.44 L10.18 71.65 L0 71.65 L0 76.19 L10.18 76.19 L10.18 81.41 L17.65
								 73.92 Z" class="st3"/>
				</g>
			</g>
		</g>
	</g>
</svg>
