<?xml version="1.0" encoding="UTF-8" standalone="no"?>
<!DOCTYPE svg PUBLIC "-//W3C//DTD SVG 1.1//EN" "http://www.w3.org/Graphics/SVG/1.1/DTD/svg11.dtd">
<!-- Generated by Microsoft Visio, SVG Export Log Analytics Solution.svg Page-1 -->
<svg xmlns="http://www.w3.org/2000/svg" xmlns:xlink="http://www.w3.org/1999/xlink" xmlns:ev="http://www.w3.org/2001/xml-events"
		width="1.73189in" height="1.73186in" viewBox="0 0 124.696 124.694" xml:space="preserve" color-interpolation-filters="sRGB"
		class="st4">
	<style type="text/css">
	<![CDATA[
		.st1 {fill:url(#grad0-6);stroke:none;stroke-linecap:butt;stroke-width:34}
		.st2 {fill:url(#grad0-10);stroke:none;stroke-linecap:butt;stroke-width:34}
		.st3 {fill:#ffffff;stroke:none;stroke-linecap:butt;stroke-width:34}
		.st4 {fill:none;fill-rule:evenodd;font-size:12px;overflow:visible;stroke-linecap:square;stroke-miterlimit:3}
	]]>
	</style>

	<defs id="Patterns_And_Gradients">
		<linearGradient id="grad0-6" x1="0" y1="0" x2="1" y2="0" gradientTransform="rotate(90 0.5 0.5)">
			<stop offset="0" stop-color="#5ea0ef" stop-opacity="1"/>
			<stop offset="0.18" stop-color="#589eed" stop-opacity="1"/>
			<stop offset="0.41" stop-color="#4897e9" stop-opacity="1"/>
			<stop offset="0.66" stop-color="#2e8ce1" stop-opacity="1"/>
			<stop offset="0.94" stop-color="#0a7cd7" stop-opacity="1"/>
			<stop offset="1" stop-color="#0078d4" stop-opacity="1"/>
		</linearGradient>
		<linearGradient id="grad0-10" x1="0" y1="0" x2="1" y2="0" gradientTransform="rotate(-90 0.5 0.5)">
			<stop offset="0" stop-color="#198ab3" stop-opacity="1"/>
			<stop offset="0.24" stop-color="#22a5cb" stop-opacity="1"/>
			<stop offset="0.53" stop-color="#2bbfe2" stop-opacity="1"/>
			<stop offset="0.79" stop-color="#30cff0" stop-opacity="1"/>
			<stop offset="1" stop-color="#32d4f5" stop-opacity="1"/>
		</linearGradient>
	</defs>
	<g>
		<title>Page-1</title>
		<g id="group1485-1" transform="translate(34,-34)">
			<title>Log Analytics Solution</title>
			<g id="group1486-2">
				<title>Icon-manage-321</title>
				<g id="shape1487-3">
					<title>Sheet.1487</title>
					<path d="M16.91 110.08 L31.4 110.08 L31.4 123.02 A1.67731 1.67236 0 0 1 29.72 124.69 L16.91 124.69 L16.91 110.08
								 ZM2.01 124.53 L14.49 124.53 L14.49 110.08 L0 110.08 L0 122.52 A2.01277 2.00683 -180 0 0 2.01 124.53
								 ZM0 107.8 L14.49 107.8 L14.49 93.22 L1.68 93.22 A1.67731 1.67236 -180 0 0 -0 94.89 L0 107.8 Z"
							class="st1"/>
				</g>
				<g id="shape1488-7" transform="translate(16.7731,-16.7236)">
					<title>Sheet.1488</title>
					<path d="M19.96 84.72 A19.7587 19.7004 0 0 1 39.92 104.79 A19.7587 19.7004 0 0 1 19.96 124.69 L0 124.69 L0 104.63
								 A19.7587 19.7004 0 0 1 19.96 84.72 Z" class="st2"/>
				</g>
				<g id="shape1489-11" transform="translate(20.8418,-24.9947)">
					<title>Sheet.1489</title>
					<path d="M28.17 101.99 A3.35461 3.34471 -180 0 0 24.81 105.34 A3.35461 3.34471 -180 0 0 25.55 107.41 L19.95 117.41
								 L19.51 117.41 A3.35461 3.34471 -180 0 0 17.74 117.95 L13.41 113.53 A3.35461 3.34471 -180 0 0 13.68
								 112.23 A3.43848 3.42833 -180 0 0 6.8 112.23 A3.35461 3.34471 -180 0 0 7.24 113.83 L3.31 118.98 A4.22681
								 4.21434 -180 0 0 2.37 118.98 A3.35461 3.34471 -180 1 0 5.73 122.33 A3.35461 3.34471 -180 0 0 5.29
								 120.76 L9.42 115.57 A3.35461 3.34471 -180 0 0 10.26 115.57 A3.52234 3.51195 -180 0 0 11.46 115.3
								 L16.19 120.26 A3.69007 3.67919 -180 0 0 16.19 120.86 A3.35461 3.34471 -180 0 0 22.9 120.86 A3.69007
								 3.67919 -180 0 0 22.23 118.85 L27.83 108.82 L28.17 108.82 A3.35461 3.34471 -180 0 0 31.52 105.47
								 A3.35461 3.34471 -180 0 0 28.17 101.99 Z" class="st3"/>
				</g>
			</g>
		</g>
	</g>
</svg>
