<?xml version="1.0" encoding="UTF-8" standalone="no"?>
<!DOCTYPE svg PUBLIC "-//W3C//DTD SVG 1.1//EN" "http://www.w3.org/Graphics/SVG/1.1/DTD/svg11.dtd">
<!-- Generated by Microsoft Visio, SVG Export Log Analytics Workspace.svg Page-1 -->
<svg xmlns="http://www.w3.org/2000/svg" xmlns:xlink="http://www.w3.org/1999/xlink" xmlns:ev="http://www.w3.org/2001/xml-events"
		width="1.73102in" height="1.73099in" viewBox="0 0 124.634 124.631" xml:space="preserve" color-interpolation-filters="sRGB"
		class="st4">
	<style type="text/css">
	<![CDATA[
		.st1 {fill:url(#grad0-6);stroke:none;stroke-linecap:butt;stroke-width:33.9686}
		.st2 {fill:url(#grad0-10);stroke:none;stroke-linecap:butt;stroke-width:33.9686}
		.st3 {fill:#ffffff;stroke:none;stroke-linecap:butt;stroke-width:33.9686}
		.st4 {fill:none;fill-rule:evenodd;font-size:12px;overflow:visible;stroke-linecap:square;stroke-miterlimit:3}
	]]>
	</style>

	<defs id="Patterns_And_Gradients">
		<linearGradient id="grad0-6" x1="0" y1="0" x2="1" y2="0" gradientTransform="rotate(-90 0.5 0.5)">
			<stop offset="0" stop-color="#1988d9" stop-opacity="1"/>
			<stop offset="0.9" stop-color="#54aef0" stop-opacity="1"/>
		</linearGradient>
		<linearGradient id="grad0-10" x1="0" y1="0" x2="1" y2="0" gradientTransform="rotate(-90 0.5 0.5)">
			<stop offset="0" stop-color="#198ab3" stop-opacity="1"/>
			<stop offset="0.01" stop-color="#198bb4" stop-opacity="1"/>
			<stop offset="0.44" stop-color="#27b2d7" stop-opacity="1"/>
			<stop offset="0.79" stop-color="#2fcbed" stop-opacity="1"/>
			<stop offset="1" stop-color="#32d4f5" stop-opacity="1"/>
		</linearGradient>
	</defs>
	<g>
		<title>Page-1</title>
		<g id="group1480-1" transform="translate(33.9686,-33.9686)">
			<title>Log Analytics Workspace</title>
			<g id="group1481-2">
				<title>layer1</title>
				<g id="shape1482-3">
					<title>path20</title>
					<path d="M16.91 110.14 L31.4 110.14 L31.4 124.63 L16.91 124.63 L16.91 110.14 ZM2.01 124.63 L14.49 124.63 L14.49
								 110.14 L0 110.14 L0 122.62 A2.01277 2.01277 -180 0 0 2.01 124.63 ZM0 107.86 L14.49 107.86 L14.49
								 93.23 L0 93.23 L0 107.86 Z" class="st1"/>
				</g>
				<g id="shape1483-7" transform="translate(16.7731,-16.6053)">
					<title>path22</title>
					<path d="M19.96 84.54 A19.7586 19.7586 0 0 1 39.92 104.67 A19.7586 19.7586 0 0 1 19.96 124.63 L0 124.63 L0 104.5
								 A19.7586 19.7586 0 0 1 19.96 84.54 Z" class="st2"/>
				</g>
				<g id="shape1484-11" transform="translate(23.6165,-25.8975)">
					<title>path24</title>
					<path d="M0 110.94 L4.56 110.94 L4.56 124.63 L0 124.63 L0 110.94 ZM9.12 115.51 L13.69 115.51 L13.69 124.63 L9.12
								 124.63 L9.12 115.51 ZM18.25 106.38 L22.81 106.38 L22.81 124.63 L18.25 124.63 L18.25 106.38 Z"
							class="st3"/>
				</g>
			</g>
		</g>
	</g>
</svg>
