<?xml version="1.0" encoding="UTF-8" standalone="no"?>
<!DOCTYPE svg PUBLIC "-//W3C//DTD SVG 1.1//EN" "http://www.w3.org/Graphics/SVG/1.1/DTD/svg11.dtd">
<!-- Generated by Microsoft Visio, SVG Export Machine Learning Studio Web Service (Classic).svg Page-1 -->
<svg xmlns="http://www.w3.org/2000/svg" xmlns:xlink="http://www.w3.org/1999/xlink" xmlns:ev="http://www.w3.org/2001/xml-events"
		width="1.73186in" height="1.73185in" viewBox="0 0 124.694 124.693" xml:space="preserve" color-interpolation-filters="sRGB"
		class="st4">
	<style type="text/css">
	<![CDATA[
		.st1 {fill:#59b4d9;stroke:none;stroke-linecap:butt;stroke-width:34}
		.st2 {fill:#e5e5e5;stroke:none;stroke-linecap:butt;stroke-width:34}
		.st3 {fill:#a0a1a2;stroke:none;stroke-linecap:butt;stroke-width:34}
		.st4 {fill:none;fill-rule:evenodd;font-size:12px;overflow:visible;stroke-linecap:square;stroke-miterlimit:3}
	]]>
	</style>

	<g>
		<title>Page-1</title>
		<g id="group1462-1" transform="translate(34,-34)">
			<title>Machine Learning Studio Web Service (Classic)</title>
			<g id="group1463-2">
				<title>Sheet.1463</title>
				<g id="shape1464-3">
					<title>Sheet.1464</title>
					<path d="M27.62 100.28 L27.62 90.83 L27.97 90.83 C29.45 90.83 30.05 89.8 30.05 87.69 A2.45669 2.45669 -180 0
								 0 27.12 84.94 L9.7 84.94 A2.45669 2.45669 -180 0 0 7.18 87.31 L7.18 88.44 A2.51969 2.51969 -180
								 0 0 9.8 90.83 L10.11 90.83 L10.11 100.28 L0 119.12 L3.5 124.69 L32.66 124.69 L36.79 119.12 L27.62
								 100.28 ZM15.75 111.43 L11.34 118.8 L5.32 118.8 L15.75 100.28 L15.75 90.83 L21.76 90.83 L21.76 100.28
								 L28.06 111.43 L15.75 111.43 Z" class="st1"/>
				</g>
				<g id="shape1465-5" transform="translate(5.32283,-5.88976)">
					<title>Sheet.1465</title>
					<path d="M10.39 117.32 L6.02 124.69 L0 124.69 L10.58 106.17 L10.58 96.76 L16.44 96.76 L16.44 106.17 L22.65 117.32
								 L10.39 117.32 Z" class="st2"/>
				</g>
				<g id="shape1466-7" transform="translate(17.1969,-15.748)">
					<title>Sheet.1466</title>
					<path d="M19.84 83.75 L19.02 83.75 A21.5748 21.5748 -180 0 0 0.54 96.35 L0 97.89 L3.15 97.89 L3.69 96.35 L8.22
								 96.35 L8 97.89 L11.15 97.89 L11.15 96.35 L17.45 96.35 L17.45 102.65 L15.56 102.65 A11.1496 11.1496
								 0 0 1 15.56 104.03 A9.13386 9.13386 0 0 1 15.4 105.8 L17.45 105.8 L17.45 112.09 L14.3 112.09 L14.3
								 115.24 L17.45 115.24 L17.45 121.54 L16.44 121.54 L18.11 124.69 L19.81 124.69 A20.252 20.252 -180
								 0 0 39.5 104.22 A20.5039 20.5039 -180 0 0 19.84 83.75 ZM5.35 93.2 A18.6142 18.6142 0 0 1 12.91 86.9
								 A15.2441 15.2441 -180 0 0 8.91 93.2 L5.35 93.2 ZM17.45 93.2 L11.81 93.2 A11.6535 11.6535 0 0 1 17.45
								 86.36 L17.45 93.2 ZM37.07 102.65 L31.53 102.65 A18.4882 18.4882 -180 0 0 30.61 96.35 L35.02 96.35
								 A15.1811 15.1811 0 0 1 37.1 102.65 L37.07 102.65 ZM33.92 93.2 L29.83 93.2 A15.1811 15.1811 -180
								 0 0 26.27 87.09 A19.5591 19.5591 0 0 1 33.89 93.2 L33.92 93.2 ZM20.6 86.36 A10.2677 10.2677 0 0
								 1 26.71 93.2 L20.6 93.2 L20.6 86.36 ZM20.6 96.35 L27.84 96.35 A22.0472 22.0472 0 0 1 28.85 102.65
								 L20.6 102.65 L20.6 96.35 ZM20.6 105.8 L28.85 105.8 A22.4882 22.4882 0 0 1 27.84 112.09 L20.6 112.09
								 L20.6 105.8 ZM20.6 121.54 L20.6 115.24 L26.9 115.24 A11.7165 11.7165 0 0 1 20.6 121.54 ZM25.39 121.54
								 A18.8976 18.8976 -180 0 0 30.05 115.24 L33.7 115.24 A20.8819 20.8819 0 0 1 25.39 121.54 ZM35.28
								 112.09 L30.61 112.09 A24.2205 24.2205 -180 0 0 31.72 105.8 L37.1 105.8 A18.7087 18.7087 0 0 1 35.28
								 112.09 Z" class="st3"/>
				</g>
			</g>
		</g>
	</g>
</svg>
