<?xml version="1.0" encoding="UTF-8" standalone="no"?>
<!DOCTYPE svg PUBLIC "-//W3C//DTD SVG 1.1//EN" "http://www.w3.org/Graphics/SVG/1.1/DTD/svg11.dtd">
<!-- Generated by Microsoft Visio, SVG Export Machine Learning Studio Workspace (Classic).svg Page-1 -->
<svg xmlns="http://www.w3.org/2000/svg" xmlns:xlink="http://www.w3.org/1999/xlink" xmlns:ev="http://www.w3.org/2001/xml-events"
		width="1.73185in" height="1.73185in" viewBox="0 0 124.693 124.693" xml:space="preserve" color-interpolation-filters="sRGB"
		class="st5">
	<style type="text/css">
	<![CDATA[
		.st1 {fill:#c9c9c9;stroke:none;stroke-linecap:butt;stroke-width:34}
		.st2 {fill:#a0a1a2;stroke:none;stroke-linecap:butt;stroke-width:34}
		.st3 {fill:#59b4d9;stroke:none;stroke-linecap:butt;stroke-width:34}
		.st4 {fill:#d5ecf6;stroke:none;stroke-linecap:butt;stroke-width:34}
		.st5 {fill:none;fill-rule:evenodd;font-size:12px;overflow:visible;stroke-linecap:square;stroke-miterlimit:3}
	]]>
	</style>

	<g>
		<title>Page-1</title>
		<g id="group1448-1" transform="translate(34,-34)">
			<title>Machine Learning Studio Workspace (Classic)</title>
			<g id="group1449-2">
				<title>Sheet.1449</title>
				<g id="shape1450-3" transform="translate(10.2362,-18.8976)">
					<title>Sheet.1450</title>
					<path d="M0 93.2 L0.94 93.2 L0.94 124.69 L0 124.69 L0 93.2 ZM36.22 93.2 L37.17 93.2 L37.17 124.69 L36.22 124.69
								 L36.22 93.2 ZM18.11 93.2 L19.06 93.2 L19.06 99.5 L18.11 99.5 L18.11 93.2 ZM27.18 93.2 L28.13 93.2
								 L28.13 99.5 L27.18 99.5 L27.18 93.2 ZM9.07 93.2 L10.02 93.2 L10.02 99.5 L9.07 99.5 L9.07 93.2 Z"
							class="st1"/>
				</g>
				<g id="shape1451-5" transform="translate(0,-15.748)">
					<title>Sheet.1451</title>
					<path d="M0 83.75 L0 124.69 L10.11 124.69 L11.72 121.54 L3.15 121.54 L3.15 90.05 L53.54 90.05 L53.54 121.54 L43.18
								 121.54 L44.76 124.69 L56.69 124.69 L56.69 83.75 L0 83.75 Z" class="st2"/>
				</g>
				<g id="shape1452-7" transform="translate(8.75591,1.42109E-14)">
					<title>Sheet.1452</title>
					<path d="M28.13 89.86 A2.45669 2.45669 -180 0 0 31.28 87.56 L31.28 86.11 A2.70866 2.70866 -180 0 0 28.35 84 L10.14
								 84 A2.61417 2.61417 -180 0 0 6.99 86.11 L6.99 87.72 A2.4252 2.4252 -180 0 0 10.14 89.86 L10.14 99.5
								 L0 119.02 L3.84 124.69 L33.76 124.69 L37.7 119.02 L28.13 99.5 L28.13 89.86 Z" class="st3"/>
				</g>
				<g id="shape1453-9" transform="translate(14.5512,-5.73228)">
					<title>Sheet.1453</title>
					<path d="M23.24 117.23 L10.68 117.23 L6.14 124.69 L0 124.69 L10.77 105.45 L10.77 95.62 L17.01 95.62 L17.01 105.45
								 L23.24 117.23 Z" class="st4"/>
				</g>
				<g id="shape1454-11" transform="translate(3.14961,-25.1685)">
					<title>Sheet.1454</title>
					<path d="M0 105.8 L50.39 105.8 L50.39 106.74 L0 106.74 L0 105.8 ZM10.58 115.72 L0 115.72 L0 114.77 L9.67 114.77
								 L10.58 115.72 ZM50.39 115.72 L38.61 115.72 L39.62 114.77 L50.39 114.77 L50.39 115.72 ZM0 123.75
								 L12.6 123.74 L12.6 124.68 L0 124.69 L0 123.75 ZM36.93 124.66 L36.93 123.71 L50.38 123.73 L50.38
								 124.67 L36.93 124.66 Z" class="st1"/>
				</g>
			</g>
		</g>
	</g>
</svg>
