<?xml version="1.0" encoding="UTF-8" standalone="no"?>
<!DOCTYPE svg PUBLIC "-//W3C//DTD SVG 1.1//EN" "http://www.w3.org/Graphics/SVG/1.1/DTD/svg11.dtd">
<!-- Generated by Microsoft Visio, SVG Export Machine Learning Studio Web Service Plan (Classic).svg Page-1 -->
<svg xmlns="http://www.w3.org/2000/svg" xmlns:xlink="http://www.w3.org/1999/xlink" xmlns:ev="http://www.w3.org/2001/xml-events"
		width="1.73214in" height="1.73185in" viewBox="0 0 124.714 124.693" xml:space="preserve" color-interpolation-filters="sRGB"
		class="st4">
	<style type="text/css">
	<![CDATA[
		.st1 {fill:#a0a1a2;stroke:none;stroke-linecap:butt;stroke-width:34}
		.st2 {fill:#59b4d9;stroke:none;stroke-linecap:butt;stroke-width:34}
		.st3 {fill:#d5ecf6;stroke:none;stroke-linecap:butt;stroke-width:34}
		.st4 {fill:none;fill-rule:evenodd;font-size:12px;overflow:visible;stroke-linecap:square;stroke-miterlimit:3}
	]]>
	</style>

	<g>
		<title>Page-1</title>
		<g id="group1455-1" transform="translate(34,-34)">
			<title>Machine Learning Studio Web Service Plan (Classic)</title>
			<g id="group1456-2">
				<title>Sheet.1456</title>
				<g id="shape1457-3" transform="translate(9.29134,-25.1024)">
					<title>Sheet.1457</title>
					<path d="M0 106.35 L0.56 105.79 L3.85 109.09 L3.3 109.64 L0 106.35 ZM38.11 123.75 L43.37 123.75 L43.37 124.69
								 L38.11 124.69 L38.11 123.75 ZM38.28 115.29 L42.38 113.83 L42.63 114.54 L38.54 116 L38.28 115.29
								 ZM27.38 103.44 L28.67 99.03 L29.42 99.25 L28.13 103.66 L27.38 103.44 ZM7.75 100.47 L8.38 100.12
								 L10.22 103.46 L9.59 103.8 L7.75 100.47 ZM17.54 97.83 L18.49 97.83 L18.49 103.09 L17.54 103.09 L17.54
								 97.83 Z" class="st1"/>
				</g>
				<g id="shape1458-5" transform="translate(9.29134,-19.3071)">
					<title>Sheet.1458</title>
					<path d="M0 100.55 L0.56 99.99 L3.85 103.29 L3.3 103.85 L0 100.55 ZM38.11 117.95 L43.37 117.95 L43.37 118.9 L38.11
								 118.9 L38.11 117.95 ZM38.28 109.49 L42.38 108.03 L42.63 108.75 L38.54 110.2 L38.28 109.49 ZM27.38
								 97.65 L28.67 93.23 L29.42 93.46 L28.13 97.87 L27.38 97.65 ZM7.75 94.67 L8.38 94.32 L10.22 97.66
								 L9.59 98.01 L7.75 94.67 ZM24.54 109.98 C23.15 111.62 22.52 111.78 19.34 115.46 A8.40945 8.40945
								 0 0 1 23.46 119.4 C25.95 116.5 27.09 115.72 28.72 113.8 L38.17 98.58 L24.54 109.98 ZM16.98 120.72
								 L19.37 124.69 A3.81102 3.81102 -180 0 0 21.39 121.32 A4.12598 4.12598 -180 0 0 16.98 117.42 L16.98
								 120.57 L16.98 120.72 Z" class="st1"/>
				</g>
				<g id="shape1459-7" transform="translate(0,-18.8976)">
					<title>Sheet.1459</title>
					<path d="M48.16 95.02 A28.6614 28.6614 -180 0 0 28.16 86.9 A28.1575 28.1575 -180 0 0 -0 114.99 L0 118.99 A6.77165
								 6.77165 -180 0 0 5.42 124.69 L6.93 122.02 A3.84252 3.84252 0 0 1 2.55 118.02 L2.55 112.98 C2.55
								 112.98 3.18 110.08 3.46 109.04 A25.1969 25.1969 0 0 1 28.35 89.17 A25.7638 25.7638 0 0 1 54.3 114.71
								 L54.3 118.05 C54.3 122.11 51.62 122.14 48.98 122.14 L32.85 122.14 C32.5 124.69 31.5 124.69 31.5
								 124.69 L50.61 124.69 A5.29134 5.29134 -180 0 0 56.69 118.99 L56.69 114.71 A27.3386 27.3386 -180
								 0 0 48.16 95.02 Z" class="st1"/>
				</g>
				<g id="shape1460-9" transform="translate(0.251969,1.42109E-14)">
					<title>Sheet.1460</title>
					<path d="M24.94 102.65 L24.94 94.14 L25.26 94.14 C26.58 94.08 27.15 93.2 27.15 91.31 A2.20472 2.20472 -180 0
								 0 24.5 88.82 L8.76 88.82 A2.20472 2.20472 -180 0 0 6.49 91.15 L6.49 91.97 A2.26772 2.26772 -180
								 0 0 9.13 94.11 L9.13 102.65 L0 119.65 L3.15 124.69 L29.48 124.69 L33.2 119.65 L24.94 102.65 ZM14.2
								 112.72 L10.24 119.37 L4.82 119.37 L14.27 102.65 L14.27 94.14 L19.65 94.14 L19.65 102.65 L25.26 112.72
								 L14.2 112.72 Z" class="st2"/>
				</g>
				<g id="shape1461-11" transform="translate(5.07087,-5.32283)">
					<title>Sheet.1461</title>
					<path d="M9.39 118.05 L5.42 124.69 L0 124.69 L9.54 107.97 L9.54 99.46 L14.83 99.46 L14.83 107.97 L20.44 118.05
								 L9.39 118.05 Z" class="st3"/>
				</g>
			</g>
		</g>
	</g>
</svg>
