<?xml version="1.0" encoding="UTF-8" standalone="no"?>
<!DOCTYPE svg PUBLIC "-//W3C//DTD SVG 1.1//EN" "http://www.w3.org/Graphics/SVG/1.1/DTD/svg11.dtd">
<!-- Generated by Microsoft Visio, SVG Export Management Group.svg Page-1 -->
<svg xmlns="http://www.w3.org/2000/svg" xmlns:xlink="http://www.w3.org/1999/xlink" xmlns:ev="http://www.w3.org/2001/xml-events"
		width="1.1274in" height="1.19362in" viewBox="0 0 81.1729 85.9408" xml:space="preserve" color-interpolation-filters="sRGB"
		class="st6">
	<style type="text/css">
	<![CDATA[
		.st1 {fill:#57a300;stroke:none;stroke-linecap:butt;stroke-width:12.24}
		.st2 {fill:#3999c6;stroke:none;stroke-linecap:butt;stroke-width:12.24}
		.st3 {fill:#804998;stroke:none;stroke-linecap:butt;stroke-width:12.24}
		.st4 {fill:#0072c6;stroke:none;stroke-linecap:butt;stroke-width:12.24}
		.st5 {fill:#7a7a7a;stroke:none;stroke-linecap:butt;stroke-width:12.24}
		.st6 {fill:none;fill-rule:evenodd;font-size:12px;overflow:visible;stroke-linecap:square;stroke-miterlimit:3}
	]]>
	</style>

	<g>
		<title>Page-1</title>
		<g id="group1281-1" transform="translate(12.24,-28.3465)">
			<title>Management Group</title>
			<g id="group1282-2">
				<title> ManagementGroups</title>
				<g id="shape1283-3" transform="translate(10.292,-10.1205)">
					<title>Sheet.1283</title>
					<path d="M29.39 69.12 L29.07 69.9 L18.93 57.85 L18.05 58.57 L17.18 57.85 L7.04 69.9 L6.72 69.12 L0 85.08 L2.09
								 85.94 L6.72 74.96 L11.34 85.94 L13.43 85.08 L8.03 72.23 L18.05 60.32 L28.08 72.23 L22.68 85.08 L24.77
								 85.94 L29.39 74.96 L34.02 85.94 L36.11 85.08 L29.39 69.12 Z" class="st1"/>
				</g>
				<g id="shape1284-5" transform="translate(41.9528,-7.18484)">
					<title>Sheet.1284</title>
					<ellipse cx="3.40157" cy="82.5729" rx="3.40157" ry="3.3679" class="st2"/>
				</g>
				<g id="shape1285-7" transform="translate(30.6142,-7.18484)">
					<title>Sheet.1285</title>
					<ellipse cx="3.40157" cy="82.5729" rx="3.40157" ry="3.3679" class="st2"/>
				</g>
				<g id="shape1286-9" transform="translate(22.6772,-31.8827)">
					<title>Sheet.1286</title>
					<ellipse cx="5.66929" cy="80.3276" rx="5.66929" ry="5.61316" class="st3"/>
				</g>
				<g id="shape1287-11" transform="translate(12.4724,-19.5338)">
					<title>Sheet.1287</title>
					<ellipse cx="4.53543" cy="81.4503" rx="4.53543" ry="4.49053" class="st4"/>
				</g>
				<g id="shape1288-13" transform="translate(35.1496,-19.5338)">
					<title>Sheet.1288</title>
					<ellipse cx="4.53543" cy="81.4503" rx="4.53543" ry="4.49053" class="st4"/>
				</g>
				<g id="shape1289-15" transform="translate(19.2756,-7.18484)">
					<title>Sheet.1289</title>
					<ellipse cx="3.40157" cy="82.5729" rx="3.40157" ry="3.3679" class="st2"/>
				</g>
				<g id="shape1290-17" transform="translate(7.93701,-7.18484)">
					<title>Sheet.1290</title>
					<ellipse cx="3.40157" cy="82.5729" rx="3.40157" ry="3.3679" class="st2"/>
				</g>
				<g id="shape1291-19">
					<title>Sheet.1291</title>
					<path d="M10.77 85.94 A2.10217 2.08136 0 0 1 9.98 85.72 L2.27 81.23 A4.67717 4.63086 0 0 1 0 77.41 L0 49.12 A4.52863
								 4.48379 0 0 1 2.27 45.3 L9.98 40.81 A1.65317 1.6368 0 0 1 11.68 43.62 L3.97 48.11 A1.52617 1.51106
								 -180 0 0 3.4 49.12 L3.4 77.41 A1.52617 1.51106 -180 0 0 3.97 78.42 L11.68 82.91 A1.6509 1.63455
								 0 0 1 12.25 85.15 A1.93776 1.91858 0 0 1 10.77 85.94 ZM45.92 40.59 A2.10217 2.08136 0 0 1 46.71
								 40.81 L54.43 45.3 A4.67717 4.63086 0 0 1 56.69 49.12 L56.69 77.41 A4.52863 4.48379 0 0 1 54.43 81.23
								 L46.71 85.72 A1.65317 1.6368 0 0 1 45.01 82.91 L52.72 78.42 A1.52617 1.51106 -180 0 0 53.29 77.41
								 L53.29 49.12 A1.52617 1.51106 -180 0 0 52.72 48.11 L45.01 43.62 A1.6509 1.63455 0 0 1 44.45 41.37
								 A2.14186 2.12065 0 0 1 45.92 40.59 Z" class="st5"/>
				</g>
			</g>
		</g>
	</g>
</svg>
