<?xml version="1.0" encoding="UTF-8" standalone="no"?>
<!DOCTYPE svg PUBLIC "-//W3C//DTD SVG 1.1//EN" "http://www.w3.org/Graphics/SVG/1.1/DTD/svg11.dtd">
<!-- Generated by Microsoft Visio, SVG Export Managed Disk Ultra SSD.svg Page-1 -->
<svg xmlns="http://www.w3.org/2000/svg" xmlns:xlink="http://www.w3.org/1999/xlink" xmlns:ev="http://www.w3.org/2001/xml-events"
		width="0.944882in" height="1.12992in" viewBox="0 0 68.0315 81.3543" xml:space="preserve" color-interpolation-filters="sRGB"
		class="st4">
	<style type="text/css">
	<![CDATA[
		.st1 {fill:#661db0;stroke:none;stroke-linecap:butt;stroke-width:0.749999}
		.st2 {fill:#945ccf;stroke:none;stroke-linecap:butt;stroke-width:0.749999}
		.st3 {fill:#ffffff;fill-opacity:0.25;stroke:none;stroke-linecap:butt;stroke-width:0.749999}
		.st4 {fill:none;fill-rule:evenodd;font-size:12px;overflow:visible;stroke-linecap:square;stroke-miterlimit:3}
	]]>
	</style>

	<g>
		<title>Page-1</title>
		<g id="group1311-1" transform="translate(5.66929,-28.3465)">
			<title>Managed Disk Ultra SSD</title>
			<g id="group1312-2">
				<title>Page-1</title>
				<g id="group1313-3">
					<title>Managed Disk Ultra SSD</title>
					<g id="shape1314-4">
						<title>Sheet.1314</title>
						<path d="M56.69 71.09 C56.69 76.76 44 81.35 28.35 81.35 C12.69 81.35 0 76.76 0 71.09 L0 65.55 L56.69 65.55
									 L56.69 71.09 Z" class="st1"/>
					</g>
					<g id="shape1315-6" transform="translate(0,-5.53254)">
						<title>Sheet.1315</title>
						<path d="M56.69 71.09 C56.69 76.76 44 81.35 28.35 81.35 C12.69 81.35 0 76.76 0 71.09 C0 65.42 12.69 60.82
									 28.35 60.82 C44 60.82 56.69 65.42 56.69 71.09 Z" class="st2"/>
					</g>
					<g id="shape1316-8" transform="translate(19.2573,-13.659)">
						<title>Sheet.1316</title>
						<path d="M18.18 78.63 C18.18 80.13 14.11 81.35 9.08 81.35 C4.07 81.35 0 80.13 0 78.63 C0 77.11 4.07 75.89
									 9.08 75.89 C14.11 75.89 18.18 77.11 18.18 78.63 Z" class="st1"/>
					</g>
					<g id="shape1317-10" transform="translate(30.1015,-18.2574)">
						<title>Sheet.1317</title>
						<path d="M18.74 76.78 C14.76 75.28 9.55 74.21 3.68 73.79 L0 80.6 C1.81 80.71 3.43 80.97 4.68 81.35 L18.74
									 76.78 Z" class="st3"/>
					</g>
					<g id="shape1318-12" transform="translate(6.69199,-5.66746)">
						<title>Sheet.1318</title>
						<path d="M0 77.9 C4.08 79.65 9.75 80.89 16.2 81.35 L20.5 73.39 C18.71 73.32 17.08 73.1 15.78 72.77 L0 77.9
									 Z" class="st3"/>
					</g>
					<g id="shape1319-14" transform="translate(0,-22.1256)">
						<title>Sheet.1319</title>
						<path d="M56.69 71.09 C56.69 76.76 44 81.35 28.35 81.35 C12.69 81.35 0 76.75 0 71.09 L0 65.55 L56.69 65.55
									 L56.69 71.09 Z" class="st1"/>
					</g>
					<g id="shape1320-16" transform="translate(0,-27.6582)">
						<title>Sheet.1320</title>
						<path d="M56.69 71.09 C56.69 76.76 44 81.35 28.35 81.35 C12.69 81.35 0 76.75 0 71.09 C0 65.42 12.69 60.82
									 28.35 60.82 C44 60.82 56.69 65.42 56.69 71.09 Z" class="st2"/>
					</g>
					<g id="shape1321-18" transform="translate(19.2573,-35.7846)">
						<title>Sheet.1321</title>
						<path d="M18.18 78.63 C18.18 80.13 14.11 81.35 9.08 81.35 C4.07 81.35 0 80.13 0 78.63 C0 77.11 4.07 75.89
									 9.08 75.89 C14.11 75.89 18.18 77.11 18.18 78.63 Z" class="st1"/>
					</g>
					<g id="shape1322-20" transform="translate(30.1015,-40.4397)">
						<title>Sheet.1322</title>
						<path d="M18.74 76.78 C14.76 75.28 9.55 74.21 3.68 73.79 L0 80.6 C1.81 80.71 3.43 80.97 4.68 81.35 L18.74
									 76.78 Z" class="st3"/>
					</g>
					<g id="shape1323-22" transform="translate(6.69199,-27.8498)">
						<title>Sheet.1323</title>
						<path d="M0 77.9 C4.08 79.65 9.75 80.89 16.2 81.35 L20.5 73.39 C18.71 73.32 17.08 73.1 15.78 72.77 L0 77.9
									 Z" class="st3"/>
					</g>
				</g>
			</g>
		</g>
	</g>
</svg>
