<?xml version="1.0" encoding="UTF-8" standalone="no"?>
<!DOCTYPE svg PUBLIC "-//W3C//DTD SVG 1.1//EN" "http://www.w3.org/Graphics/SVG/1.1/DTD/svg11.dtd">
<!-- Generated by Microsoft Visio, SVG Export Managed Disk Snapshot.svg Page-1 -->
<svg xmlns="http://www.w3.org/2000/svg" xmlns:xlink="http://www.w3.org/1999/xlink" xmlns:ev="http://www.w3.org/2001/xml-events"
		width="1.69248in" height="1.73191in" viewBox="0 0 121.859 124.697" xml:space="preserve" color-interpolation-filters="sRGB"
		class="st7">
	<style type="text/css">
	<![CDATA[
		.st1 {fill:#76bc2d;stroke:none;stroke-linecap:butt;stroke-width:34}
		.st2 {fill:#5e9624;stroke:none;stroke-linecap:butt;stroke-width:34}
		.st3 {fill:url(#grad0-10);stroke:none;stroke-linecap:butt;stroke-width:34}
		.st4 {fill:#005ba1;stroke:none;stroke-linecap:butt;stroke-width:34}
		.st5 {fill:#949494;stroke:none;stroke-linecap:butt;stroke-width:34}
		.st6 {fill:#0078d4;stroke:none;stroke-linecap:butt;stroke-width:34}
		.st7 {fill:none;fill-rule:evenodd;font-size:12px;overflow:visible;stroke-linecap:square;stroke-miterlimit:3}
	]]>
	</style>

	<defs id="Patterns_And_Gradients">
		<linearGradient id="grad0-10" x1="0" y1="0" x2="1" y2="0" gradientTransform="rotate(-90 0.5 0.5)">
			<stop offset="0" stop-color="#0078d4" stop-opacity="1"/>
			<stop offset="0.54" stop-color="#358ee3" stop-opacity="1"/>
			<stop offset="1" stop-color="#5ea0ef" stop-opacity="1"/>
		</linearGradient>
	</defs>
	<g>
		<title>Page-1</title>
		<g id="group1370-1" transform="translate(34.0003,-34)">
			<title>Managed Disk Snapshot</title>
			<g id="group1371-2">
				<title>Icon-compute-26</title>
				<g id="shape1372-3" transform="translate(8.23093,-14.2047)">
					<title>Sheet.1372</title>
					<ellipse cx="18.8535" cy="116.855" rx="18.8535" ry="7.84252" class="st1"/>
				</g>
				<g id="shape1373-5" transform="translate(21.2762,-20.378)">
					<title>Sheet.1373</title>
					<ellipse cx="6.27415" cy="122.965" rx="6.27415" ry="1.73228" class="st2"/>
				</g>
				<g id="shape1374-7" transform="translate(8.23093,-31.622)">
					<title>Sheet.1374</title>
					<ellipse cx="18.8535" cy="116.855" rx="18.8535" ry="7.84252" class="st3"/>
				</g>
				<g id="shape1375-11" transform="translate(21.2762,-37.8268)">
					<title>Sheet.1375</title>
					<ellipse cx="6.27415" cy="122.965" rx="6.27415" ry="1.73228" class="st4"/>
				</g>
				<g id="shape1376-13">
					<title>Sheet.1376</title>
					<path d="M11.18 68 L1.86 68 A1.80149 1.82677 -180 0 0 0 69.86 L0 79.31 a0.900744 0.913386 -180 0 0 0.900744 0.913386
								 L1.93 80.22 a0.900744 0.913386 -180 0 0 0.931804 -0.913386 L2.86 70.78 L11.18 70.78 a0.900744 0.913386
								 -180 0 0 0.931804 -0.913386 L12.11 68.95 a0.900744 0.913386 -180 0 0 -0.931804 -0.944882 ZM51.9
								 68 L42.58 68 a0.931804 0.944882 -180 0 0 -0.931804 0.944882 L41.65 69.96 a0.931804 0.944882 -180
								 0 0 0.931804 0.818898 L50.94 70.78 L50.94 79.28 a0.900744 0.913386 -180 0 0 0.962864 0.944882 L52.93
								 80.22 a0.900744 0.913386 -180 0 0 0.931804 -0.913386 L53.86 69.86 A1.83255 1.85827 -180 0 0 51.9
								 68 ZM11.18 121.83 L2.86 121.83 L2.86 113.33 a0.900744 0.913386 -180 0 0 -0.931804 -0.913386 L0.9
								 112.41 a0.900744 0.913386 -180 0 0 -0.900744 0.913386 L0 122.78 A1.80149 1.82677 -180 0 0 1.8 124.63
								 L11.12 124.63 a0.900744 0.913386 -180 0 0 0.931804 -0.913386 L12.05 122.71 a0.931804 0.944882 -180
								 0 0 -0.869684 -0.88189 ZM52.8 112.41 L51.9 112.41 a0.900744 0.913386 -180 0 0 -0.900744 0.913386
								 L51 121.83 L42.58 121.83 a0.962864 0.976378 -180 0 0 -0.931804 0.944882 L41.65 123.78 a0.931804
								 0.944882 -180 0 0 0.931804 0.913386 L51.9 124.7 A1.83255 1.85827 -180 0 0 53.73 122.84 L53.73 113.39
								 a0.900744 0.913386 -180 0 0 -0.931804 -0.976378 Z" class="st5"/>
				</g>
				<g id="shape1377-15" transform="translate(8.19987,-9.82677)">
					<title>Sheet.1377</title>
					<path d="M18.85 120.16 C29.26 120.16 37.71 116.67 37.71 112.32 L37.71 116.95 C37.49 121.17 29.07 124.7 18.85
								 124.7 C8.63 124.7 0 121.17 0 116.85 L0 112.32 C0.03 116.67 8.48 120.16 18.85 120.16 Z" class="st2"/>
				</g>
				<g id="shape1378-17" transform="translate(8.23093,-27.4016)">
					<title>Sheet.1378</title>
					<path d="M18.82 120.22 C29.23 120.22 37.68 116.7 37.68 112.38 L37.68 117.08 C37.46 121.33 29.04 124.7 18.82 124.7
								 C8.6 124.7 0 121.17 0 116.82 L0 112.48 C0 116.79 8.45 120.22 18.82 120.22 Z" class="st6"/>
				</g>
			</g>
		</g>
	</g>
</svg>
