<?xml version="1.0" encoding="UTF-8" standalone="no"?>
<!DOCTYPE svg PUBLIC "-//W3C//DTD SVG 1.1//EN" "http://www.w3.org/Graphics/SVG/1.1/DTD/svg11.dtd">
<!-- Generated by Microsoft Visio, SVG Export Managed Application Center.svg Page-1 -->
<svg xmlns="http://www.w3.org/2000/svg" xmlns:xlink="http://www.w3.org/1999/xlink" xmlns:ev="http://www.w3.org/2001/xml-events"
		width="1.06419in" height="1.23299in" viewBox="0 0 76.6216 88.7754" xml:space="preserve" color-interpolation-filters="sRGB"
		class="st7">
	<style type="text/css">
	<![CDATA[
		.st1 {fill:#3999c6;stroke:none;stroke-linecap:butt;stroke-width:12.24}
		.st2 {fill:#62117a;fill-opacity:0.15;stroke:none;stroke-linecap:butt;stroke-width:12.24}
		.st3 {fill:#59b4d9;stroke:none;stroke-linecap:butt;stroke-width:12.24}
		.st4 {fill:#ffffff;fill-opacity:0.2;stroke:none;stroke-linecap:butt;stroke-width:12.24}
		.st5 {fill:#ffffff;fill-opacity:0.4;stroke:none;stroke-linecap:butt;stroke-width:12.24}
		.st6 {fill:#804998;stroke:none;stroke-linecap:butt;stroke-width:12.24}
		.st7 {fill:none;fill-rule:evenodd;font-size:12px;overflow:visible;stroke-linecap:square;stroke-miterlimit:3}
	]]>
	</style>

	<g>
		<title>Page-1</title>
		<g id="group1420-1" transform="translate(10.895,-28.3465)">
			<title>Managed Application Center</title>
			<g id="group1421-2">
				<title>g16</title>
				<g id="shape1422-3" transform="translate(28.4135,-2.92529)">
					<title>path4</title>
					<path d="M0.25 76.57 C0.3 76.57 0.34 76.56 0.38 76.53 L8.84 71.91 a0.240819 0.237409 -180 0 0 0.13088 -0.210572
								 L8.98 62.43 a0.248148 0.244635 -180 0 0 -0.13088 -0.212636 a0.275371 0.271472 -180 0 0 -0.258618
								 2.41585E-13 L0.13 66.84 a0.247101 0.243602 -180 0 0 -0.125645 0.211604 L0 76.32 C0 76.41 0.05 76.49
								 0.13 76.53 C0.17 76.56 0.21 76.57 0.25 76.57 ZM0.25 88.78 C0.3 88.78 0.34 88.77 0.38 88.74 L8.84
								 84.12 a0.240819 0.237409 -180 0 0 0.13088 -0.210572 L8.98 74.64 a0.248148 0.244635 -180 0 0 -0.13088
								 -0.212636 a0.275371 0.271472 -180 0 0 -0.258618 0 L0.13 79.05 a0.247101 0.243602 -180 0 0 -0.125645
								 0.211604 L0 88.53 C0 88.62 0.05 88.7 0.13 88.74 C0.17 88.77 0.21 88.78 0.25 88.78 ZM11.22 70.46
								 C11.27 70.46 11.31 70.45 11.35 70.43 L19.81 65.81 a0.239772 0.236377 -180 0 0 0.129833 -0.210572
								 L19.94 56.33 a0.248148 0.244635 -180 0 0 -0.13088 -0.212636 a0.275371 0.271472 -180 0 0 -0.258618
								 -2.41585E-13 L11.09 60.73 a0.247101 0.243602 -180 0 0 -0.125645 0.211604 L10.97 70.22 C10.97 70.31
								 11.02 70.38 11.09 70.43 a0.262807 0.259086 -180 0 0 0.127739 0.0319986 ZM11.22 82.67 C11.27 82.67
								 11.31 82.66 11.35 82.64 L19.81 78.02 a0.238725 0.235345 -180 0 0 0.129833 -0.210572 L19.94 68.54
								 a0.248148 0.244635 -180 0 0 -0.13088 -0.212636 a0.275371 0.271472 -180 0 0 -0.258618 -2.84217E-14
								 L11.09 72.94 a0.247101 0.243602 -180 0 0 -0.125645 0.211604 L10.97 82.43 C10.97 82.52 11.02 82.59
								 11.09 82.64 a0.262807 0.259086 -180 0 0 0.127739 0.0319986 Z" class="st1"/>
				</g>
				<g id="shape1423-5" transform="translate(28.4135,-2.92529)">
					<title>path6</title>
					<path d="M0.25 88.78 C0.3 88.78 0.34 88.77 0.38 88.74 L8.84 84.12 a0.240819 0.237409 -180 0 0 0.13088 -0.210572
								 L8.98 74.64 a0.248148 0.244635 -180 0 0 -0.13088 -0.212636 a0.275371 0.271472 -180 0 0 -0.258618
								 0 L0.13 79.05 a0.247101 0.243602 -180 0 0 -0.125645 0.211604 L0 88.53 C0 88.62 0.05 88.7 0.13 88.74
								 C0.17 88.77 0.21 88.78 0.25 88.78 ZM11.22 82.67 C11.27 82.67 11.31 82.66 11.35 82.64 L19.81 78.02
								 a0.238725 0.235345 -180 0 0 0.129833 -0.210572 L19.94 68.54 a0.248148 0.244635 -180 0 0 -0.13088
								 -0.212636 a0.275371 0.271472 -180 0 0 -0.258618 -2.84217E-14 L11.09 72.94 a0.247101 0.243602 -180
								 0 0 -0.125645 0.211604 L10.97 82.43 C10.97 82.52 11.02 82.59 11.09 82.64 a0.262807 0.259086 -180
								 0 0 0.127739 0.0319986 ZM0.25 76.57 C0.3 76.57 0.34 76.56 0.38 76.53 L8.84 71.91 a0.240819 0.237409
								 -180 0 0 0.13088 -0.210572 L8.98 62.43 a0.248148 0.244635 -180 0 0 -0.13088 -0.212636 a0.275371
								 0.271472 -180 0 0 -0.258618 4.9738E-14 L0.13 66.84 a0.247101 0.243602 -180 0 0 -0.125645 0.211604
								 L0 76.32 C0 76.41 0.05 76.49 0.13 76.53 C0.17 76.56 0.21 76.57 0.25 76.57 ZM11.22 70.46 C11.27 70.46
								 11.31 70.45 11.35 70.43 L19.81 65.81 a0.239772 0.236377 -180 0 0 0.129833 -0.210572 L19.94 56.33
								 a0.248148 0.244635 -180 0 0 -0.13088 -0.212636 a0.275371 0.271472 -180 0 0 -0.258618 -2.41585E-13
								 L11.09 60.73 a0.247101 0.243602 -180 0 0 -0.125645 0.211604 L10.97 70.22 C10.97 70.31 11.02 70.38
								 11.09 70.43 a0.262807 0.259086 -180 0 0 0.127739 0.0319986 Z" class="st2"/>
				</g>
				<g id="shape1424-7" transform="translate(6.47488,-2.92529)">
					<title>path8</title>
					<path d="M19.69 76.57 a0.269089 0.265279 0 0 1 -0.13088 -0.0319986 L11.1 71.91 a0.240819 0.237409 0 0 1 -0.13088
								 -0.210572 L10.97 62.43 C10.97 62.34 11.02 62.27 11.1 62.22 a0.275371 0.271472 0 0 1 0.258618 -7.10543E-14
								 L19.82 66.84 C19.9 66.88 19.94 66.96 19.94 67.05 L19.94 76.32 a0.245007 0.241538 0 0 1 -0.125645
								 0.210572 a0.268042 0.264247 0 0 1 -0.126692 0.0319986 ZM19.69 88.78 a0.269089 0.265279 0 0 1 -0.13088
								 -0.0319986 L11.1 84.12 a0.240819 0.237409 0 0 1 -0.13088 -0.210572 L10.97 74.64 C10.97 74.55 11.02
								 74.48 11.1 74.43 a0.275371 0.271472 0 0 1 0.258618 4.26326E-14 L19.82 79.05 C19.9 79.09 19.94 79.17
								 19.94 79.26 L19.94 88.53 a0.245007 0.241538 0 0 1 -0.125645 0.210572 a0.268042 0.264247 0 0 1 -0.126692
								 0.0319986 ZM8.72 70.46 a0.269089 0.265279 0 0 1 -0.13088 -0.0319986 L0.13 65.81 a0.239772 0.236377
								 0 0 1 -0.129833 -0.210572 L0 56.33 C0 56.24 0.05 56.16 0.13 56.11 a0.275371 0.271472 0 0 1 0.258618
								 -2.84217E-14 L8.85 60.73 C8.93 60.78 8.98 60.86 8.98 60.94 L8.98 70.22 a0.245007 0.241538 0 0 1
								 -0.125645 0.210572 a0.262807 0.259086 0 0 1 -0.127739 0.0319986 ZM8.72 82.67 a0.269089 0.265279
								 0 0 1 -0.13088 -0.0319986 L0.13 78.02 a0.238725 0.235345 0 0 1 -0.129833 -0.210572 L0 68.54 C0 68.45
								 0.05 68.37 0.13 68.32 a0.275371 0.271472 0 0 1 0.258618 -2.84217E-14 L8.85 72.94 C8.93 72.99 8.98
								 73.07 8.98 73.15 L8.98 82.43 a0.245007 0.241538 0 0 1 -0.125645 0.210572 a0.262807 0.259086 0 0
								 1 -0.127739 0.0319986 ZM12.4 59.65 a0.248148 0.244635 0 0 1 0.0942334 -0.0877381 L20.9 55.06 a0.261759
								 0.258053 0 0 1 0.25443 -0.00206443 L29.48 59.52 a0.236631 0.23328 0 0 1 0.124598 0.206443 a0.251289
								 0.247731 0 0 1 -0.129833 0.20541 L21.07 64.44 a0.268042 0.264247 0 0 1 -0.253383 -0.00206443 L12.49
								 59.97 a0.232442 0.229151 0 0 1 -0.125645 -0.201282 a0.245007 0.241538 0 0 1 0.0355993 -0.11664 ZM1.43
								 53.77 a0.245007 0.241538 0 0 1 0.0931864 -0.0877381 L9.84 49.18 a0.257571 0.253925 0 0 1 0.252336
								 -0.00206443 L18.33 53.64 a0.235584 0.232248 0 0 1 0.12355 0.206443 a0.249195 0.245667 0 0 1 -0.128786
								 0.20541 L10.01 58.56 a0.261759 0.258053 0 0 1 -0.250242 -0.00206443 L1.52 54.09 a0.235584 0.232248
								 0 0 1 -0.124598 -0.201282 a0.234536 0.231216 0 0 1 0.0355993 -0.11664 ZM23.59 53.87 a0.245007 0.241538
								 0 0 1 0.0931864 -0.0877381 L32 49.28 a0.257571 0.253925 0 0 1 0.252336 -0.00206443 L40.48 53.74
								 a0.235584 0.232248 0 0 1 0.12355 0.206443 a0.249195 0.245667 0 0 1 -0.128786 0.20541 L32.16 58.66
								 a0.261759 0.258053 0 0 1 -0.250242 -0.00206443 L23.68 54.19 a0.235584 0.232248 0 0 1 -0.124598 -0.201282
								 a0.238725 0.235345 0 0 1 0.0355993 -0.11664 ZM12.44 48.06 a0.253383 0.249796 0 0 1 0.0942334 -0.0867059
								 L20.94 43.54 a0.264901 0.26115 0 0 1 0.25443 -0.00206443 L29.52 47.94 a0.230348 0.227087 0 0 1 0.124598
								 0.202314 a0.247101 0.243602 0 0 1 -0.129833 0.202314 L21.11 52.77 a0.274324 0.27044 0 0 1 -0.253383
								 -0.00206443 L12.53 48.38 a0.228254 0.225023 0 0 1 -0.125645 -0.198185 a0.240819 0.237409 0 0 1 0.0355993
								 -0.114576 Z" class="st3"/>
				</g>
				<g id="shape1425-9" transform="translate(7.87372,-27.2314)">
					<title>path10</title>
					<path d="M11 83.96 a0.248148 0.244635 0 0 1 0.0942334 -0.0877381 L19.5 79.37 a0.261759 0.258053 0 0 1 0.25443
								 -0.00206443 L28.08 83.83 a0.236631 0.23328 0 0 1 0.124598 0.206443 a0.251289 0.247731 0 0 1 -0.129833
								 0.20541 L19.67 88.75 a0.268042 0.264247 0 0 1 -0.253383 -0.00206443 L11.09 84.28 a0.232442 0.229151
								 0 0 1 -0.125645 -0.201282 a0.245007 0.241538 0 0 1 0.0355993 -0.11664 ZM0.04 78.08 a0.245007 0.241538
								 0 0 1 0.0931864 -0.0877381 L8.44 73.48 a0.257571 0.253925 0 0 1 0.252336 -0.00206443 L16.93 77.95
								 a0.235584 0.232248 0 0 1 0.12355 0.206443 a0.249195 0.245667 0 0 1 -0.128786 0.20541 L8.61 82.86
								 a0.261759 0.258053 0 0 1 -0.250242 -0.00206443 L0.12 78.39 a0.235584 0.232248 0 0 1 -0.124598 -0.201282
								 a0.234536 0.231216 0 0 1 0.0355993 -0.11664 ZM22.19 78.17 a0.245007 0.241538 0 0 1 0.0931864 -0.0877381
								 L30.6 73.58 a0.257571 0.253925 0 0 1 0.252336 -0.00206443 L39.08 78.05 a0.235584 0.232248 0 0 1
								 0.12355 0.206443 a0.249195 0.245667 0 0 1 -0.128786 0.20541 L30.76 82.96 a0.261759 0.258053 0 0
								 1 -0.250242 -0.00206443 L22.28 78.49 a0.235584 0.232248 0 0 1 -0.124598 -0.201282 a0.238725 0.235345
								 0 0 1 0.0355993 -0.11664 ZM11.04 72.37 a0.253383 0.249796 0 0 1 0.0942334 -0.0867059 L19.54 67.85
								 a0.264901 0.26115 0 0 1 0.25443 -0.00206443 L28.12 72.24 a0.230348 0.227087 0 0 1 0.124598 0.202314
								 a0.247101 0.243602 0 0 1 -0.129833 0.202314 L19.71 77.08 a0.274324 0.27044 0 0 1 -0.253383 -0.00206443
								 L11.13 72.68 a0.228254 0.225023 0 0 1 -0.125645 -0.198185 a0.240819 0.237409 0 0 1 0.0355993 -0.114576
								 Z" class="st4"/>
				</g>
				<g id="shape1426-11" transform="translate(15.0805,-4.78844)">
					<title>path12</title>
					<path d="M33.28 58.19 C33.28 58.09 33.2 58.03 33.17 58 L33.04 57.89 C31.24 62.59 26.42 69.36 17.91 75.7 C11.06
								 80.81 4.74 83.49 0 84.56 L7.64 88.78 C12.08 86.96 16.74 84.31 21.2 80.98 C26.12 77.31 30.22 73.3
								 33.28 69.33 L33.28 58.19 Z" class="st5"/>
				</g>
				<g id="shape1427-13">
					<title>path14</title>
					<path d="M52.14 45.74 C49.43 42.06 43.1 41.72 35.54 44.19 L39.33 46.2 C44.4 44.98 48.11 45.46 49.37 47.17 C51.85
								 50.55 46.96 61.8 33.62 71.74 C20.29 81.67 8.17 83.1 5.68 79.72 C4.78 78.49 4.86 76.22 5.95 73.36
								 L5.95 66.32 C1.48 72.81 0 78.94 2.69 82.59 C7.24 88.78 22 85.54 35.65 75.36 C49.31 65.19 56.69 51.93
								 52.14 45.74 Z" class="st6"/>
				</g>
			</g>
		</g>
	</g>
</svg>
