<?xml version="1.0" encoding="UTF-8" standalone="no"?>
<!DOCTYPE svg PUBLIC "-//W3C//DTD SVG 1.1//EN" "http://www.w3.org/Graphics/SVG/1.1/DTD/svg11.dtd">
<!-- Generated by Microsoft Visio, SVG Export Managed Disk Premium SSD.svg Page-1 -->
<svg xmlns="http://www.w3.org/2000/svg" xmlns:xlink="http://www.w3.org/1999/xlink" xmlns:ev="http://www.w3.org/2001/xml-events"
		width="0.944882in" height="1.12992in" viewBox="0 0 68.0315 81.3543" xml:space="preserve" color-interpolation-filters="sRGB"
		class="st6">
	<style type="text/css">
	<![CDATA[
		.st1 {fill:#661db0;stroke:none;stroke-linecap:butt;stroke-width:0.749999}
		.st2 {fill:#945ccf;stroke:none;stroke-linecap:butt;stroke-width:0.749999}
		.st3 {fill:#ffffff;fill-opacity:0.25;stroke:none;stroke-linecap:butt;stroke-width:0.749999}
		.st4 {fill:#0072c6;stroke:none;stroke-linecap:butt;stroke-width:0.749999}
		.st5 {fill:#59b4d9;stroke:none;stroke-linecap:butt;stroke-width:0.749999}
		.st6 {fill:none;fill-rule:evenodd;font-size:12px;overflow:visible;stroke-linecap:square;stroke-miterlimit:3}
	]]>
	</style>

	<g>
		<title>Page-1</title>
		<g id="group1379-1" transform="translate(5.66929,-28.3465)">
			<title>Managed Disk Premium SSD</title>
			<g id="group1380-2">
				<title>Page-1</title>
				<g id="group1381-3">
					<title>Managed Disk Premium SSD</title>
					<g id="group1382-4">
						<title>Sheet.1382</title>
						<g id="shape1383-5">
							<title>Sheet.1383</title>
							<path d="M56.69 71.09 C56.69 76.76 44 81.35 28.35 81.35 C12.69 81.35 0 76.76 0 71.09 L0 65.56 L56.69
										 65.56 L56.69 71.09 Z" class="st1"/>
						</g>
					</g>
					<g id="group1384-7" transform="translate(0,-5.53254)">
						<title>Sheet.1384</title>
						<g id="shape1385-8">
							<title>Sheet.1385</title>
							<path d="M56.69 71.09 C56.69 76.76 44 81.35 28.35 81.35 C12.69 81.35 0 76.76 0 71.09 C0 65.42 12.69 60.82
										 28.35 60.82 C44 60.82 56.69 65.42 56.69 71.09 Z" class="st2"/>
						</g>
					</g>
					<g id="group1386-10" transform="translate(19.2573,-13.659)">
						<title>Sheet.1386</title>
						<g id="shape1387-11">
							<title>Sheet.1387</title>
							<path d="M18.18 78.63 C18.18 80.14 14.11 81.35 9.08 81.35 C4.07 81.35 0 80.14 0 78.63 C0 77.11 4.07 75.9
										 9.08 75.9 C14.11 75.9 18.18 77.11 18.18 78.63 Z" class="st1"/>
						</g>
					</g>
					<g id="group1388-13" transform="translate(30.1015,-18.2574)">
						<title>Sheet.1388</title>
						<g id="shape1389-14">
							<title>Sheet.1389</title>
							<path d="M18.74 76.79 C14.76 75.28 9.55 74.21 3.68 73.8 L0 80.61 C1.81 80.71 3.43 80.98 4.68 81.35 L18.74
										 76.79 Z" class="st3"/>
						</g>
					</g>
					<g id="group1390-16" transform="translate(6.69199,-5.66746)">
						<title>Sheet.1390</title>
						<g id="shape1391-17">
							<title>Sheet.1391</title>
							<path d="M0 77.91 C4.08 79.65 9.75 80.9 16.2 81.35 L20.5 73.4 C18.71 73.33 17.08 73.11 15.78 72.77 L0
										 77.91 Z" class="st3"/>
						</g>
					</g>
					<g id="group1392-19" transform="translate(0,-22.1256)">
						<title>Sheet.1392</title>
						<g id="shape1393-20">
							<title>Sheet.1393</title>
							<path d="M56.69 71.09 C56.69 76.76 44 81.35 28.35 81.35 C12.69 81.35 0 76.76 0 71.09 L0 65.56 L56.69
										 65.56 L56.69 71.09 Z" class="st4"/>
						</g>
					</g>
					<g id="group1394-22" transform="translate(0,-27.6582)">
						<title>Sheet.1394</title>
						<g id="shape1395-23">
							<title>Sheet.1395</title>
							<path d="M56.69 71.09 C56.69 76.76 44 81.35 28.35 81.35 C12.69 81.35 0 76.76 0 71.09 C0 65.42 12.69 60.82
										 28.35 60.82 C44 60.82 56.69 65.42 56.69 71.09 Z" class="st5"/>
						</g>
					</g>
					<g id="group1396-25" transform="translate(19.2573,-35.7846)">
						<title>Sheet.1396</title>
						<g id="shape1397-26">
							<title>Sheet.1397</title>
							<path d="M18.18 78.63 C18.18 80.14 14.11 81.35 9.08 81.35 C4.07 81.35 0 80.14 0 78.63 C0 77.11 4.07 75.9
										 9.08 75.9 C14.11 75.9 18.18 77.11 18.18 78.63 Z" class="st4"/>
						</g>
					</g>
					<g id="group1398-28" transform="translate(30.1015,-40.4397)">
						<title>Sheet.1398</title>
						<g id="shape1399-29">
							<title>Sheet.1399</title>
							<path d="M18.74 76.79 C14.76 75.28 9.55 74.21 3.68 73.8 L0 80.61 C1.81 80.71 3.43 80.98 4.68 81.35 L18.74
										 76.79 Z" class="st3"/>
						</g>
					</g>
					<g id="group1400-31" transform="translate(6.69199,-27.8498)">
						<title>Sheet.1400</title>
						<g id="shape1401-32">
							<title>Sheet.1401</title>
							<path d="M0 77.91 C4.08 79.65 9.75 80.9 16.2 81.35 L20.5 73.4 C18.71 73.33 17.08 73.11 15.78 72.77 L0
										 77.91 Z" class="st3"/>
						</g>
					</g>
				</g>
			</g>
		</g>
	</g>
</svg>
