<?xml version="1.0" encoding="UTF-8" standalone="no"?>
<!DOCTYPE svg PUBLIC "-//W3C//DTD SVG 1.1//EN" "http://www.w3.org/Graphics/SVG/1.1/DTD/svg11.dtd">
<!-- Generated by Microsoft Visio, SVG Export Managed Database.svg Page-1 -->
<svg xmlns="http://www.w3.org/2000/svg" xmlns:xlink="http://www.w3.org/1999/xlink" xmlns:ev="http://www.w3.org/2001/xml-events"
		width="1.73185in" height="1.69255in" viewBox="0 0 124.693 121.864" xml:space="preserve" color-interpolation-filters="sRGB"
		class="st8">
	<style type="text/css">
	<![CDATA[
		.st1 {fill:url(#grad0-6);stroke:none;stroke-linecap:butt;stroke-width:34}
		.st2 {fill:#eaeaea}
		.st3 {stroke:none;stroke-linecap:butt;stroke-width:34}
		.st4 {fill:#50e6ff;stroke:none;stroke-linecap:butt;stroke-width:34}
		.st5 {fill:#198ab3;stroke:none;stroke-linecap:butt;stroke-width:34}
		.st6 {fill:url(#grad0-17)}
		.st7 {fill:#ffffff;stroke:none;stroke-linecap:butt;stroke-width:34}
		.st8 {fill:none;fill-rule:evenodd;font-size:12px;overflow:visible;stroke-linecap:square;stroke-miterlimit:3}
	]]>
	</style>

	<defs id="Patterns_And_Gradients">
		<linearGradient id="grad0-6" x1="0" y1="0" x2="1" y2="0" gradientTransform="rotate(0 0.5 0.5)">
			<stop offset="0" stop-color="#005ba1" stop-opacity="1"/>
			<stop offset="0.07" stop-color="#0060a9" stop-opacity="1"/>
			<stop offset="0.36" stop-color="#0071c8" stop-opacity="1"/>
			<stop offset="0.52" stop-color="#0078d4" stop-opacity="1"/>
			<stop offset="0.64" stop-color="#0074cd" stop-opacity="1"/>
			<stop offset="0.82" stop-color="#006abb" stop-opacity="1"/>
			<stop offset="1" stop-color="#005ba1" stop-opacity="1"/>
		</linearGradient>
		<linearGradient id="grad0-17" x1="0" y1="0" x2="1" y2="0" gradientTransform="rotate(-90 0.5 0.5)">
			<stop offset="0" stop-color="#198ab3" stop-opacity="1"/>
			<stop offset="0" stop-color="#198ab3" stop-opacity="1"/>
			<stop offset="0.11" stop-color="#22a5cb" stop-opacity="1"/>
			<stop offset="0.23" stop-color="#29bade" stop-opacity="1"/>
			<stop offset="0.37" stop-color="#2ec9eb" stop-opacity="1"/>
			<stop offset="0.53" stop-color="#31d1f3" stop-opacity="1"/>
			<stop offset="0.78" stop-color="#32d4f5" stop-opacity="1"/>
		</linearGradient>
	</defs>
	<g>
		<title>Page-1</title>
		<g id="group1402-1" transform="translate(34,-34.0056)">
			<title>Managed Database</title>
			<g id="group1403-2">
				<title>Icon-databases-135</title>
				<g id="shape1404-3" transform="translate(0.13316,-0.70689)">
					<title>Sheet.1404</title>
					<path d="M19.97 83.19 C8.99 83.19 0 79.82 0 75.92 L0 114.59 C0 118.57 8.76 121.83 19.57 121.86 L19.87 121.86
								 C30.83 121.86 39.85 118.5 39.85 114.59 L39.85 75.92 C39.81 79.92 30.93 83.19 19.97 83.19 Z"
							class="st1"/>
				</g>
				<g id="shape1405-7" transform="translate(-2.71783E-13,-39.3839)">
					<title>Sheet.1405</title>
					<path d="M39.95 114.59 C39.95 118.6 31.06 121.86 19.97 121.86 C8.89 121.86 0 118.5 0 114.59 C0 110.69 9.12 107.39
								 20.11 107.39 C31.09 107.39 40.08 110.76 40.08 114.69 L39.95 114.59 Z" class="st2"/>
					<path d="M39.95 114.59 C39.95 118.6 31.06 121.86 19.97 121.86 C8.89 121.86 0 118.5 0 114.59 C0 110.69 9.12 107.39
								 20.11 107.39 C31.09 107.39 40.08 110.76 40.08 114.69" class="st3"/>
				</g>
				<g id="shape1406-10" transform="translate(4.86034,-42.5144)">
					<title>Sheet.1406</title>
					<path d="M30.33 117.25 C30.33 119.81 23.67 121.86 15.11 121.86 C6.56 121.86 0 119.68 0 117.25 C0 114.83 6.82
								 112.51 15.25 112.51 C23.67 112.51 30.33 114.56 30.33 117.25 Z" class="st4"/>
				</g>
				<g id="shape1407-12" transform="translate(8.0229,-42.649)">
					<title>Sheet.1407</title>
					<path d="M12.08 118.33 A36.619 37.0276 -180 0 0 0 120.08 A36.2528 36.6573 -180 0 0 12.08 121.86 A36.153 36.5563
								 -180 0 0 24.14 120.08 A36.619 37.0276 -180 0 0 12.08 118.33 Z" class="st5"/>
				</g>
				<g id="shape1408-14" transform="translate(18.5425,1.42109E-14)">
					<title>Sheet.1408</title>
					<path d="M35.79 107.52 A9.62082 9.72815 -180 0 0 30.83 105.03 A10.786 10.9063 -180 0 0 19.71 94.6 A11.1522 11.2766
								 -180 0 0 9.05 101.9 A10.1867 10.3004 -180 0 0 0 111.77 A10.3865 10.5024 -180 0 0 10.72 121.86 L29.53
								 121.86 A8.6887 8.78563 -180 0 0 38.15 113.41 A8.18935 8.28071 -180 0 0 35.65 107.56 L35.79 107.52
								 Z" class="st6"/>
					<path d="M35.79 107.52 A9.62082 9.72815 -180 0 0 30.83 105.03 A10.786 10.9063 -180 0 0 19.71 94.6 A11.1522 11.2766
								 -180 0 0 9.05 101.9 A10.1867 10.3004 -180 0 0 0 111.77 A10.3865 10.5024 -180 0 0 10.72 121.86 L29.53
								 121.86 A8.6887 8.78563 -180 0 0 38.15 113.41 A8.18935 8.28071 -180 0 0 35.65 107.56" class="st3"/>
				</g>
				<g id="shape1409-19" transform="translate(30.1275,-4.03937)">
					<title>Sheet.1409</title>
					<path d="M16.05 121.86 L12.92 121.86 L12.92 110.32 C12.92 111.16 12.58 111.8 12.48 112.2 L9.15 121.86 L6.56 121.86
								 L3.23 112.27 A15.3467 15.5179 0 0 1 2.8 110.32 L2.8 121.86 L0 121.86 L0 107.63 L4.66 107.63 L7.52
								 116.07 A10.9524 11.0746 0 0 1 8.02 118.09 C8.19 117.32 8.39 116.61 8.56 116.04 L11.45 107.63 L16.05
								 107.63 L16.05 121.86 Z" class="st7"/>
				</g>
			</g>
		</g>
	</g>
</svg>
