<?xml version="1.0" encoding="UTF-8" standalone="no"?>
<!DOCTYPE svg PUBLIC "-//W3C//DTD SVG 1.1//EN" "http://www.w3.org/Graphics/SVG/1.1/DTD/svg11.dtd">
<!-- Generated by Microsoft Visio, SVG Export Managed Application.svg Page-1 -->
<svg xmlns="http://www.w3.org/2000/svg" xmlns:xlink="http://www.w3.org/1999/xlink" xmlns:ev="http://www.w3.org/2001/xml-events"
		width="1.08102in" height="1.3511in" viewBox="0 0 77.8331 97.2794" xml:space="preserve" color-interpolation-filters="sRGB"
		class="st7">
	<style type="text/css">
	<![CDATA[
		.st1 {fill:#3999c6;stroke:none;stroke-linecap:butt;stroke-width:12.24}
		.st2 {fill:#62117a;fill-opacity:0.15;stroke:none;stroke-linecap:butt;stroke-width:12.24}
		.st3 {fill:#59b4d9;stroke:none;stroke-linecap:butt;stroke-width:12.24}
		.st4 {fill:#ffffff;fill-opacity:0.2;stroke:none;stroke-linecap:butt;stroke-width:12.24}
		.st5 {fill:#804998;stroke:none;stroke-linecap:butt;stroke-width:12.24}
		.st6 {fill:#68217a;stroke:none;stroke-linecap:butt;stroke-width:12.24}
		.st7 {fill:none;fill-rule:evenodd;font-size:12px;overflow:visible;stroke-linecap:square;stroke-miterlimit:3}
	]]>
	</style>

	<g>
		<title>Page-1</title>
		<g id="group1410-1" transform="translate(12.24,-28.3465)">
			<title>Managed Application</title>
			<g id="group1411-2">
				<title>Sheet.1411</title>
				<g id="shape1412-3" transform="translate(31.7315,-6.82347)">
					<title>Sheet.1412</title>
					<path d="M0.27 83.83 C0.32 83.83 0.37 83.82 0.42 83.79 L9.59 78.7 a0.26109 0.261566 -180 0 0 0.141897 -0.231998
								 L9.73 68.25 a0.269036 0.269527 -180 0 0 -0.141897 -0.234273 a0.29855 0.299096 -180 0 0 -0.280388
								 2.41585E-13 L0.14 73.11 a0.267901 0.26839 -180 0 0 -0.136221 0.233135 L0 83.56 C0 83.66 0.05 83.74
								 0.14 83.79 C0.18 83.82 0.23 83.83 0.27 83.83 ZM0.27 97.28 C0.32 97.28 0.37 97.27 0.42 97.24 L9.59
								 92.15 a0.26109 0.261566 -180 0 0 0.141897 -0.231998 L9.73 81.71 a0.269036 0.269527 -180 0 0 -0.141897
								 -0.234273 a0.29855 0.299096 -180 0 0 -0.280388 -8.52651E-14 L0.14 86.56 a0.267901 0.26839 -180 0
								 0 -0.136221 0.233135 L0 97.01 C0 97.11 0.05 97.2 0.14 97.24 C0.18 97.27 0.23 97.28 0.27 97.28 ZM12.17
								 77.1 C12.22 77.1 12.26 77.09 12.31 77.06 L21.48 71.97 a0.259955 0.260429 -180 0 0 0.140761 -0.231998
								 L21.62 61.53 a0.269036 0.269527 -180 0 0 -0.141897 -0.234273 a0.29855 0.299096 -180 0 0 -0.280388
								 1.06581E-13 L12.03 66.38 a0.267901 0.26839 -180 0 0 -0.136221 0.233135 L11.89 76.83 C11.89 76.93
								 11.94 77.02 12.03 77.06 a0.284928 0.285449 -180 0 0 0.138491 0.0352546 ZM12.17 90.55 C12.22 90.55
								 12.26 90.54 12.31 90.52 L21.48 85.43 a0.258819 0.259292 -180 0 0 0.140761 -0.231998 L21.62 74.98
								 a0.269036 0.269527 -180 0 0 -0.141897 -0.234273 a0.29855 0.299096 -180 0 0 -0.280388 2.55795E-13
								 L12.03 79.84 a0.267901 0.26839 -180 0 0 -0.136221 0.233135 L11.89 90.29 C11.89 90.38 11.94 90.47
								 12.03 90.52 a0.284928 0.285449 -180 0 0 0.138491 0.0352546 Z" class="st1"/>
				</g>
				<g id="shape1413-5" transform="translate(31.7315,-6.82347)">
					<title>Sheet.1413</title>
					<path d="M0.27 97.28 C0.32 97.28 0.37 97.27 0.42 97.24 L9.59 92.15 a0.26109 0.261566 -180 0 0 0.141897 -0.231998
								 L9.73 81.71 a0.269036 0.269527 -180 0 0 -0.141897 -0.234273 a0.29855 0.299096 -180 0 0 -0.280388
								 -8.52651E-14 L0.14 86.56 a0.267901 0.26839 -180 0 0 -0.136221 0.233135 L0 97.01 C0 97.11 0.05 97.2
								 0.14 97.24 C0.18 97.27 0.23 97.28 0.27 97.28 ZM12.17 90.55 C12.22 90.55 12.26 90.54 12.31 90.52
								 L21.48 85.43 a0.258819 0.259292 -180 0 0 0.140761 -0.231998 L21.62 74.98 a0.269036 0.269527 -180
								 0 0 -0.141897 -0.234273 a0.29855 0.299096 -180 0 0 -0.280388 2.55795E-13 L12.03 79.84 a0.267901
								 0.26839 -180 0 0 -0.136221 0.233135 L11.89 90.29 C11.89 90.38 11.94 90.47 12.03 90.52 a0.284928
								 0.285449 -180 0 0 0.138491 0.0352546 ZM0.27 83.83 C0.32 83.83 0.37 83.82 0.42 83.79 L9.59 78.7 a0.26109
								 0.261566 -180 0 0 0.141897 -0.231998 L9.73 68.25 a0.269036 0.269527 -180 0 0 -0.141897 -0.234273
								 a0.29855 0.299096 -180 0 0 -0.280388 -1.42109E-13 L0.14 73.11 a0.267901 0.26839 -180 0 0 -0.136221
								 0.233135 L0 83.56 C0 83.66 0.05 83.74 0.14 83.79 C0.18 83.82 0.23 83.83 0.27 83.83 ZM12.17 77.1
								 C12.22 77.1 12.26 77.09 12.31 77.06 L21.48 71.97 a0.259955 0.260429 -180 0 0 0.140761 -0.231998
								 L21.62 61.53 a0.269036 0.269527 -180 0 0 -0.141897 -0.234273 a0.29855 0.299096 -180 0 0 -0.280388
								 1.06581E-13 L12.03 66.38 a0.267901 0.26839 -180 0 0 -0.136221 0.233135 L11.89 76.83 C11.89 76.93
								 11.94 77.02 12.03 77.06 a0.284928 0.285449 -180 0 0 0.138491 0.0352546 Z" class="st2"/>
				</g>
				<g id="shape1414-7" transform="translate(7.94621,-6.82347)">
					<title>Sheet.1414</title>
					<path d="M21.35 83.83 a0.291739 0.292272 0 0 1 -0.141897 -0.0352546 L12.03 78.7 a0.26109 0.261566 0 0 1 -0.141897
								 -0.231998 L11.89 68.25 C11.89 68.16 11.94 68.07 12.03 68.02 a0.29855 0.299096 0 0 1 0.280388 -4.26326E-14
								 L21.49 73.11 C21.57 73.16 21.62 73.25 21.62 73.34 L21.62 83.56 a0.26563 0.266115 0 0 1 -0.136221
								 0.231998 a0.290604 0.291135 0 0 1 -0.137356 0.0352546 ZM21.35 97.28 a0.291739 0.292272 0 0 1 -0.141897
								 -0.0352546 L12.03 92.15 a0.26109 0.261566 0 0 1 -0.141897 -0.231998 L11.89 81.71 C11.89 81.61 11.94
								 81.52 12.03 81.47 a0.29855 0.299096 0 0 1 0.280388 -5.68434E-14 L21.49 86.56 C21.57 86.61 21.62
								 86.7 21.62 86.8 L21.62 97.01 a0.26563 0.266115 0 0 1 -0.136221 0.231998 a0.290604 0.291135 0 0 1
								 -0.137356 0.0352546 ZM9.46 77.1 a0.291739 0.292272 0 0 1 -0.141897 -0.0352546 L0.14 71.97 a0.259955
								 0.260429 0 0 1 -0.140761 -0.231998 L0 61.53 C0 61.43 0.05 61.34 0.14 61.29 a0.29855 0.299096 0 0
								 1 0.280388 -1.49214E-13 L9.59 66.38 C9.68 66.43 9.73 66.52 9.73 66.62 L9.73 76.83 a0.26563 0.266115
								 0 0 1 -0.136221 0.231998 a0.284928 0.285449 0 0 1 -0.138491 0.0352546 ZM9.46 90.55 a0.291739 0.292272
								 0 0 1 -0.141897 -0.0352546 L0.14 85.43 a0.258819 0.259292 0 0 1 -0.140761 -0.231998 L0 74.98 C0
								 74.88 0.05 74.8 0.14 74.75 a0.29855 0.299096 0 0 1 0.280388 5.68434E-14 L9.59 79.84 C9.68 79.89
								 9.73 79.97 9.73 80.07 L9.73 90.29 a0.26563 0.266115 0 0 1 -0.136221 0.231998 a0.284928 0.285449
								 0 0 1 -0.138491 0.0352546 ZM13.44 65.19 a0.269036 0.269527 0 0 1 0.102166 -0.0966659 L22.66 60.13
								 a0.283793 0.284311 0 0 1 0.275847 -0.00227449 L31.96 65.05 a0.256549 0.257017 0 0 1 0.135086 0.227449
								 a0.272441 0.272939 0 0 1 -0.140761 0.226312 L22.84 70.47 a0.290604 0.291135 0 0 1 -0.274712 -0.00227449
								 L13.54 65.54 a0.252008 0.252468 0 0 1 -0.136221 -0.221763 a0.26563 0.266115 0 0 1 0.0385959 -0.128509
								 ZM1.56 58.71 a0.26563 0.266115 0 0 1 0.10103 -0.0966659 L10.67 53.65 a0.279252 0.279762 0 0 1 0.273577
								 -0.00227449 L19.87 58.57 a0.255414 0.25588 0 0 1 0.13395 0.227449 a0.270171 0.270664 0 0 1 -0.139626
								 0.226312 L10.85 63.99 a0.283793 0.284311 0 0 1 -0.271306 -0.00227449 L1.65 59.06 a0.255414 0.25588
								 0 0 1 -0.135086 -0.221763 a0.254279 0.254743 0 0 1 0.0385959 -0.128509 ZM25.58 58.82 a0.26563 0.266115
								 0 0 1 0.10103 -0.0966659 L34.69 53.76 a0.279252 0.279762 0 0 1 0.273577 -0.00227449 L43.89 58.68
								 a0.255414 0.25588 0 0 1 0.13395 0.227449 a0.270171 0.270664 0 0 1 -0.139626 0.226312 L34.87 64.09
								 a0.283793 0.284311 0 0 1 -0.271306 -0.00227449 L25.67 59.17 a0.255414 0.25588 0 0 1 -0.135086 -0.221763
								 a0.258819 0.259292 0 0 1 0.0385959 -0.128509 ZM13.49 52.42 a0.274712 0.275213 0 0 1 0.102166 -0.0955286
								 L22.7 47.45 a0.287199 0.287723 0 0 1 0.275847 -0.00227449 L32.01 52.29 a0.249738 0.250194 0 0 1
								 0.135086 0.2229 a0.267901 0.26839 0 0 1 -0.140761 0.2229 L22.88 57.61 a0.297415 0.297958 0 0 1 -0.274712
								 -0.00227449 L13.58 52.77 a0.247468 0.247919 0 0 1 -0.136221 -0.218351 a0.26109 0.261566 0 0 1 0.0385959
								 -0.126234 Z" class="st3"/>
				</g>
				<g id="shape1415-9" transform="translate(7.94621,-6.82347)">
					<title>Sheet.1415</title>
					<path d="M13.44 65.19 a0.269036 0.269527 0 0 1 0.102166 -0.0966659 L22.66 60.13 a0.283793 0.284311 0 0 1 0.275847
								 -0.00227449 L31.96 65.05 a0.256549 0.257017 0 0 1 0.135086 0.227449 a0.272441 0.272939 0 0 1 -0.140761
								 0.226312 L22.84 70.47 a0.290604 0.291135 0 0 1 -0.274712 -0.00227449 L13.54 65.54 a0.252008 0.252468
								 0 0 1 -0.136221 -0.221763 a0.26563 0.266115 0 0 1 0.0385959 -0.128509 ZM1.56 58.71 a0.26563 0.266115
								 0 0 1 0.10103 -0.0966659 L10.67 53.65 a0.279252 0.279762 0 0 1 0.273577 -0.00227449 L19.87 58.57
								 a0.255414 0.25588 0 0 1 0.13395 0.227449 a0.270171 0.270664 0 0 1 -0.139626 0.226312 L10.85 63.99
								 a0.283793 0.284311 0 0 1 -0.271306 -0.00227449 L1.65 59.06 a0.255414 0.25588 0 0 1 -0.135086 -0.221763
								 a0.254279 0.254743 0 0 1 0.0385959 -0.128509 ZM25.58 58.82 a0.26563 0.266115 0 0 1 0.10103 -0.0966659
								 L34.69 53.76 a0.279252 0.279762 0 0 1 0.273577 -0.00227449 L43.89 58.68 a0.255414 0.25588 0 0 1
								 0.13395 0.227449 a0.270171 0.270664 0 0 1 -0.139626 0.226312 L34.87 64.09 a0.283793 0.284311 0 0
								 1 -0.271306 -0.00227449 L25.67 59.17 a0.255414 0.25588 0 0 1 -0.135086 -0.221763 a0.258819 0.259292
								 0 0 1 0.0385959 -0.128509 ZM13.49 52.42 a0.274712 0.275213 0 0 1 0.102166 -0.0955286 L22.7 47.45
								 a0.287199 0.287723 0 0 1 0.275847 -0.00227449 L32.01 52.29 a0.249738 0.250194 0 0 1 0.135086 0.2229
								 a0.267901 0.26839 0 0 1 -0.140761 0.2229 L22.88 57.61 a0.297415 0.297958 0 0 1 -0.274712 -0.00227449
								 L13.58 52.77 a0.247468 0.247919 0 0 1 -0.136221 -0.218351 a0.26109 0.261566 0 0 1 0.0385959 -0.126234
								 ZM0.14 85.43 L9.32 90.52 a0.290604 0.291135 -180 0 0 0.279252 1.42109E-14 a0.26563 0.266115 -180
								 0 0 0.136221 -0.231998 L9.73 82.59 A8.32763 8.34283 -180 0 0 8.51 82.5 C6.02 82.5 4.16 82.9 2.67
								 83.23 C1.62 83.45 0.79 83.63 0 83.63 L0 85.2 C0 85.29 0.05 85.38 0.14 85.43 ZM21.35 97.28 C21.39
								 97.28 21.44 97.27 21.49 97.24 a0.26563 0.266115 -180 0 0 0.136221 -0.231998 L21.62 88.8 C20.76 88.82
								 19.85 88.83 19.06 88.83 C18 88.83 17.56 88.8 17.37 88.78 C17.11 88.59 16.59 87.87 16.24 87.38 C15.34
								 86.12 14.02 84.27 11.89 83.25 L11.89 91.92 C11.89 92.02 11.94 92.11 12.03 92.15 L21.21 97.25 C21.25
								 97.27 21.3 97.28 21.35 97.28 ZM33.51 91.92 L33.51 90.83 C32.42 91.3 31.21 91.82 30.05 92.31 C29.63
								 88.94 26.2 88.8 25.05 88.75 A11.3631 11.3838 -180 0 0 24.56 88.74 C24.34 88.74 24.08 88.75 23.79
								 88.75 L23.79 97.01 C23.79 97.11 23.84 97.19 23.92 97.24 a0.291739 0.292272 -180 0 0 0.279252 0.00113725
								 L33.37 92.15 a0.259955 0.260429 -180 0 0 0.140761 -0.231998 ZM36.96 89.29 C36.66 89.44 36.21 89.64
								 35.68 89.88 L35.68 90.29 C35.68 90.38 35.73 90.47 35.81 90.52 a0.291739 0.292272 -180 0 0 0.279252
								 -2.84217E-14 L39.84 88.44 A9.11884 9.13549 -180 0 0 36.96 89.29 Z" class="st4"/>
				</g>
				<g id="shape1416-11" transform="translate(0.567586,-0.568623)">
					<title>Sheet.1416</title>
					<path d="M20.79 97.28 C17.75 97.28 13.96 94.03 12.48 92.64 A46.7419 46.8272 -180 0 0 11.51 91.74 C9.18 89.7 6.79
								 88.75 3.97 88.75 C1.39 88.75 0 88.74 0 88.74 L0 79.08 L7.38 79.08 C8.35 79.08 9.31 78.88 10.41 78.64
								 C11.82 78.33 13.58 77.95 15.89 77.95 C19.27 77.95 20.92 80.26 22.24 82.12 C22.99 83.17 23.64 84.08
								 24.41 84.2 C24.75 84.26 25.39 84.28 26.42 84.28 C27.45 84.28 28.68 84.26 29.72 84.23 A115.141 115.351
								 0 0 1 31.95 84.19 C32.11 84.19 32.25 84.2 32.35 84.2 C34.7 84.3 35.65 84.94 35.76 86.48 C35.78 86.88
								 35.74 87.28 35.62 87.66 L35.27 88.82 L36.39 88.35 C38.99 87.25 43.59 85.29 45.07 84.57 C46.46 83.9
								 47.93 83.53 49.21 83.53 C50.57 83.53 51.57 83.95 51.95 84.68 C51.97 84.7 53.02 86.78 49.58 88.8
								 A891.03 892.657 0 0 1 43.6 92.27 C40.61 93.99 38.25 95.35 37.17 96.06 C36.16 96.73 34.77 96.82 33.67
								 96.82 C33.08 96.82 32.47 96.79 31.87 96.76 A37.6367 37.7054 -180 0 0 30.08 96.7 C28.62 96.7 26.42
								 96.87 24.1 97.05 C23.07 97.12 22.01 97.21 21 97.27 A3.17508 3.18088 0 0 1 20.79 97.28 Z"
							class="st5"/>
				</g>
				<g id="shape1417-13" transform="translate(1.13517,-1.13725)">
					<title>Sheet.1417</title>
					<path d="M36.04 89.44 C39.24 88.09 43.35 86.33 44.75 85.65 C46.07 85.02 47.45 84.67 48.65 84.67 C49.77 84.67
								 50.61 84.98 50.89 85.51 C50.91 85.57 51.64 87.17 48.73 88.88 A862.814 864.389 0 0 1 42.76 92.34
								 C39.76 94.07 37.39 95.43 36.29 96.16 C35.41 96.74 34.13 96.82 33.11 96.82 C32.54 96.82 31.97 96.79
								 31.39 96.77 A38.9898 39.061 -180 0 0 29.52 96.7 C28.04 96.7 25.86 96.87 23.55 97.04 C22.46 97.12
								 21.41 97.21 20.4 97.27 L20.22 97.28 C17.3 97.28 13.42 93.84 12.3 92.79 C11.87 92.39 11.56 92.1 11.31
								 91.88 C8.88 89.75 6.36 88.75 3.41 88.75 C1.78 88.75 0.63 88.75 0 88.74 L0 80.22 L6.81 80.22 C7.84
								 80.22 8.82 80.01 9.96 79.76 C11.36 79.46 13.08 79.08 15.32 79.08 C18.41 79.08 19.9 81.17 21.21 83.02
								 C22.03 84.17 22.74 85.17 23.75 85.33 C24.14 85.39 24.79 85.42 25.85 85.42 C26.83 85.42 27.99 85.4
								 28.99 85.37 L29.35 85.37 A105.128 105.32 0 0 1 31.38 85.33 C31.54 85.33 31.66 85.33 31.76 85.34
								 C34.31 85.45 34.57 86.19 34.63 87.08 C34.65 87.42 34.61 87.75 34.52 88.06 L33.76 90.11 C33.76 90.11
								 35.26 89.77 36.04 89.44 Z" class="st4"/>
				</g>
				<g id="shape1418-15">
					<title>Sheet.1418</title>
					<path d="M21.35 97.28 C18.38 97.28 14.81 94.51 12.66 92.49 C12.29 92.14 11.96 91.83 11.7 91.6 C9.48 89.66 7.21
								 88.75 4.54 88.75 C1.96 88.75 0.56 88.74 0.56 88.74 a0.567586 0.568623 0 0 1 -0.563046 -0.568623
								 L0 78.51 a0.567586 0.568623 0 0 1 0.567586 -0.568623 L7.95 77.95 C8.86 77.95 9.78 77.74 10.86 77.51
								 C12.3 77.2 14.09 76.81 16.46 76.81 C20.13 76.81 21.94 79.36 23.27 81.22 C23.92 82.13 24.53 82.99
								 25.06 83.07 C25.84 83.2 28.45 83.14 30.36 83.09 C31.51 83.07 32.51 83.05 32.94 83.06 C34.81 83.14
								 36.74 83.54 36.89 85.87 C36.93 86.4 36.86 86.86 36.74 87.26 C39.23 86.2 43.91 84.21 45.4 83.49 C48.63
								 81.93 52.06 82.03 53.03 83.84 C53.34 84.43 53.86 86.72 50.44 88.73 A891.686 893.314 0 0 1 44.46
								 92.19 C41.47 93.91 39.11 95.27 38.05 95.97 C36.56 96.96 34.44 96.86 32.38 96.76 C31.79 96.73 31.21
								 96.71 30.65 96.71 C29.21 96.71 27.03 96.87 24.71 97.05 C23.68 97.12 22.62 97.21 21.6 97.27 A4.59518
								 4.60357 0 0 1 21.35 97.28 ZM1.14 87.61 C1.77 87.61 2.92 87.61 4.54 87.61 C7.46 87.61 10.05 88.64
								 12.45 90.75 C12.72 90.98 13.05 91.3 13.43 91.66 C15.38 93.48 19.02 96.34 21.53 96.14 C22.54 96.07
								 23.6 95.99 24.63 95.91 C26.96 95.74 29.17 95.57 30.65 95.57 C31.23 95.57 31.83 95.6 32.44 95.62
								 C34.31 95.71 36.24 95.81 37.42 95.02 C38.52 94.3 40.89 92.93 43.89 91.2 C45.73 90.15 47.78 88.97
								 49.86 87.75 C51.58 86.74 52.53 85.33 52.02 84.38 C51.42 83.23 48.74 83.14 45.89 84.52 C43.82 85.52
								 35.91 88.84 35.57 88.98 a0.567586 0.568623 0 1 1 -0.584614 -0.959835 C35.02 87.99 35.85 87.26 35.76
								 85.95 C35.69 84.91 35.2 84.3 32.9 84.2 C32.5 84.18 31.52 84.21 30.39 84.23 C28.22 84.28 25.77 84.34
								 24.88 84.2 C23.88 84.03 23.17 83.04 22.35 81.88 C21.1 80.13 19.54 77.95 16.46 77.95 C14.21 77.95
								 12.56 78.31 11.1 78.62 C9.96 78.87 8.98 79.08 7.95 79.08 L1.14 79.08 L1.14 87.61 Z" class="st6"/>
				</g>
				<g id="shape1419-17" transform="translate(18.6055,-7.37276)">
					<title>Sheet.1419</title>
					<path d="M8.23 97.28 C5.99 97.28 4.39 97.01 3.49 96.22 L0 93.15 L0.75 92.3 L4.24 95.36 C5.43 96.41 10.57 96.02
								 12.51 95.89 C15.59 95.69 15.91 95.53 17.78 94.78 a0.567586 0.568623 0 0 1 0.42569 1.05423 C16.23
								 96.63 15.77 96.81 12.59 97.02 C11.39 97.1 9.2 97.28 8.23 97.28 Z" class="st6"/>
				</g>
			</g>
		</g>
	</g>
</svg>
