<?xml version="1.0" encoding="UTF-8" standalone="no"?>
<!DOCTYPE svg PUBLIC "-//W3C//DTD SVG 1.1//EN" "http://www.w3.org/Graphics/SVG/1.1/DTD/svg11.dtd">
<!-- Generated by Microsoft Visio, SVG Export Managed Disk Standard HDD.svg Page-1 -->
<svg xmlns="http://www.w3.org/2000/svg" xmlns:xlink="http://www.w3.org/1999/xlink" xmlns:ev="http://www.w3.org/2001/xml-events"
		width="0.944882in" height="1.12992in" viewBox="0 0 68.0315 81.3543" xml:space="preserve" color-interpolation-filters="sRGB"
		class="st4">
	<style type="text/css">
	<![CDATA[
		.st1 {fill:#7fba00;stroke:none;stroke-linecap:butt;stroke-width:0.749999}
		.st2 {fill:#b8d432;stroke:none;stroke-linecap:butt;stroke-width:0.749999}
		.st3 {fill:#ffffff;fill-opacity:0.25;stroke:none;stroke-linecap:butt;stroke-width:0.749999}
		.st4 {fill:none;fill-rule:evenodd;font-size:12px;overflow:visible;stroke-linecap:square;stroke-miterlimit:3}
	]]>
	</style>

	<g>
		<title>Page-1</title>
		<g id="group1347-1" transform="translate(5.66929,-28.3465)">
			<title>Managed Disk Standard HDD</title>
			<g id="group1348-2">
				<title>Page-1</title>
				<g id="group1349-3">
					<title>Managed Disk Standard HDD</title>
					<g id="group1350-4">
						<title>Sheet.1350</title>
						<g id="shape1351-5">
							<title>Sheet.1351</title>
							<path d="M56.69 71.09 C56.69 76.76 44 81.35 28.35 81.35 C12.69 81.35 0 76.76 0 71.09 L0 65.56 L56.69
										 65.56 L56.69 71.09 Z" class="st1"/>
						</g>
					</g>
					<g id="group1352-7" transform="translate(0,-5.53254)">
						<title>Sheet.1352</title>
						<g id="shape1353-8">
							<title>Sheet.1353</title>
							<path d="M56.69 71.09 C56.69 76.76 44 81.35 28.35 81.35 C12.69 81.35 0 76.76 0 71.09 C0 65.42 12.69 60.82
										 28.35 60.82 C44 60.82 56.69 65.42 56.69 71.09 Z" class="st2"/>
						</g>
					</g>
					<g id="group1354-10" transform="translate(19.2573,-13.659)">
						<title>Sheet.1354</title>
						<g id="shape1355-11">
							<title>Sheet.1355</title>
							<path d="M18.18 78.63 C18.18 80.14 14.11 81.35 9.08 81.35 C4.07 81.35 0 80.14 0 78.63 C0 77.11 4.07 75.9
										 9.08 75.9 C14.11 75.9 18.18 77.11 18.18 78.63 Z" class="st1"/>
						</g>
					</g>
					<g id="group1356-13" transform="translate(30.1015,-18.2574)">
						<title>Sheet.1356</title>
						<g id="shape1357-14">
							<title>Sheet.1357</title>
							<path d="M18.74 76.79 C14.76 75.28 9.55 74.21 3.68 73.8 L0 80.61 C1.81 80.71 3.43 80.98 4.68 81.35 L18.74
										 76.79 Z" class="st3"/>
						</g>
					</g>
					<g id="group1358-16" transform="translate(6.69199,-5.66746)">
						<title>Sheet.1358</title>
						<g id="shape1359-17">
							<title>Sheet.1359</title>
							<path d="M0 77.91 C4.08 79.65 9.75 80.9 16.2 81.35 L20.5 73.4 C18.71 73.33 17.08 73.11 15.78 72.77 L0
										 77.91 Z" class="st3"/>
						</g>
					</g>
					<g id="group1360-19" transform="translate(0,-22.1256)">
						<title>Sheet.1360</title>
						<g id="shape1361-20">
							<title>Sheet.1361</title>
							<path d="M56.69 71.09 C56.69 76.76 44 81.35 28.35 81.35 C12.69 81.35 0 76.76 0 71.09 L0 65.56 L56.69
										 65.56 L56.69 71.09 Z" class="st1"/>
						</g>
					</g>
					<g id="group1362-22" transform="translate(0,-27.6582)">
						<title>Sheet.1362</title>
						<g id="shape1363-23">
							<title>Sheet.1363</title>
							<path d="M56.69 71.09 C56.69 76.76 44 81.35 28.35 81.35 C12.69 81.35 0 76.76 0 71.09 C0 65.42 12.69 60.82
										 28.35 60.82 C44 60.82 56.69 65.42 56.69 71.09 Z" class="st2"/>
						</g>
					</g>
					<g id="group1364-25" transform="translate(19.2573,-35.7846)">
						<title>Sheet.1364</title>
						<g id="shape1365-26">
							<title>Sheet.1365</title>
							<path d="M18.18 78.63 C18.18 80.14 14.11 81.35 9.08 81.35 C4.07 81.35 0 80.14 0 78.63 C0 77.11 4.07 75.9
										 9.08 75.9 C14.11 75.9 18.18 77.11 18.18 78.63 Z" class="st1"/>
						</g>
					</g>
					<g id="group1366-28" transform="translate(30.1015,-40.4397)">
						<title>Sheet.1366</title>
						<g id="shape1367-29">
							<title>Sheet.1367</title>
							<path d="M18.74 76.79 C14.76 75.28 9.55 74.21 3.68 73.8 L0 80.61 C1.81 80.71 3.43 80.98 4.68 81.35 L18.74
										 76.79 Z" class="st3"/>
						</g>
					</g>
					<g id="group1368-31" transform="translate(6.69199,-27.8498)">
						<title>Sheet.1368</title>
						<g id="shape1369-32">
							<title>Sheet.1369</title>
							<path d="M0 77.91 C4.08 79.65 9.75 80.9 16.2 81.35 L20.5 73.4 C18.71 73.33 17.08 73.11 15.78 72.77 L0
										 77.91 Z" class="st3"/>
						</g>
					</g>
				</g>
			</g>
		</g>
	</g>
</svg>
