<?xml version="1.0" encoding="UTF-8" standalone="no"?>
<!DOCTYPE svg PUBLIC "-//W3C//DTD SVG 1.1//EN" "http://www.w3.org/Graphics/SVG/1.1/DTD/svg11.dtd">
<!-- Generated by Microsoft Visio, SVG Export Managed Disk Standard SSD.svg Page-1 -->
<svg xmlns="http://www.w3.org/2000/svg" xmlns:xlink="http://www.w3.org/1999/xlink" xmlns:ev="http://www.w3.org/2001/xml-events"
		width="0.944882in" height="1.12992in" viewBox="0 0 68.0315 81.3543" xml:space="preserve" color-interpolation-filters="sRGB"
		class="st6">
	<style type="text/css">
	<![CDATA[
		.st1 {fill:#7fba00;stroke:none;stroke-linecap:butt;stroke-width:0.749999}
		.st2 {fill:#b8d432;stroke:none;stroke-linecap:butt;stroke-width:0.749999}
		.st3 {fill:#ffffff;fill-opacity:0.25;stroke:none;stroke-linecap:butt;stroke-width:0.749999}
		.st4 {fill:#0072c6;stroke:none;stroke-linecap:butt;stroke-width:0.749999}
		.st5 {fill:#59b4d9;stroke:none;stroke-linecap:butt;stroke-width:0.749999}
		.st6 {fill:none;fill-rule:evenodd;font-size:12px;overflow:visible;stroke-linecap:square;stroke-miterlimit:3}
	]]>
	</style>

	<g>
		<title>Page-1</title>
		<g id="group1324-1" transform="translate(5.66929,-28.3465)">
			<title>Managed Disk Standard SSD</title>
			<g id="group1325-2">
				<title>Page-1</title>
				<g id="group1326-3">
					<title>Managed Disk Standard SSD</title>
					<g id="group1327-4">
						<title>Sheet.1327</title>
						<g id="shape1328-5">
							<title>Sheet.1328</title>
							<path d="M56.69 71.09 C56.69 76.76 44 81.35 28.35 81.35 C12.69 81.35 0 76.76 0 71.09 L0 65.55 L56.69
										 65.55 L56.69 71.09 Z" class="st1"/>
						</g>
					</g>
					<g id="group1329-7" transform="translate(0,-5.53254)">
						<title>Sheet.1329</title>
						<g id="shape1330-8">
							<title>Sheet.1330</title>
							<path d="M56.69 71.09 C56.69 76.76 44 81.35 28.35 81.35 C12.69 81.35 0 76.76 0 71.09 C0 65.42 12.69 60.82
										 28.35 60.82 C44 60.82 56.69 65.42 56.69 71.09 Z" class="st2"/>
						</g>
					</g>
					<g id="group1331-10" transform="translate(19.2573,-13.659)">
						<title>Sheet.1331</title>
						<g id="shape1332-11">
							<title>Sheet.1332</title>
							<path d="M18.18 78.63 C18.18 80.13 14.11 81.35 9.08 81.35 C4.07 81.35 0 80.13 0 78.63 C0 77.11 4.07 75.89
										 9.08 75.89 C14.11 75.89 18.18 77.11 18.18 78.63 Z" class="st1"/>
						</g>
					</g>
					<g id="group1333-13" transform="translate(30.1015,-18.2574)">
						<title>Sheet.1333</title>
						<g id="shape1334-14">
							<title>Sheet.1334</title>
							<path d="M18.74 76.78 C14.76 75.28 9.55 74.21 3.68 73.79 L0 80.6 C1.81 80.71 3.43 80.97 4.68 81.35 L18.74
										 76.78 Z" class="st3"/>
						</g>
					</g>
					<g id="group1335-16" transform="translate(6.69199,-5.66746)">
						<title>Sheet.1335</title>
						<g id="shape1336-17">
							<title>Sheet.1336</title>
							<path d="M0 77.9 C4.08 79.65 9.75 80.89 16.2 81.35 L20.5 73.39 C18.71 73.32 17.08 73.1 15.78 72.77 L0
										 77.9 Z" class="st3"/>
						</g>
					</g>
					<g id="group1337-19" transform="translate(0,-22.1256)">
						<title>Sheet.1337</title>
						<g id="shape1338-20">
							<title>Sheet.1338</title>
							<path d="M56.69 71.09 C56.69 76.76 44 81.35 28.35 81.35 C12.69 81.35 0 76.75 0 71.09 L0 65.55 L56.69
										 65.55 L56.69 71.09 Z" class="st4"/>
						</g>
					</g>
					<g id="group1339-22" transform="translate(0,-27.6582)">
						<title>Sheet.1339</title>
						<g id="shape1340-23">
							<title>Sheet.1340</title>
							<path d="M56.69 71.09 C56.69 76.76 44 81.35 28.35 81.35 C12.69 81.35 0 76.75 0 71.09 C0 65.42 12.69 60.82
										 28.35 60.82 C44 60.82 56.69 65.42 56.69 71.09 Z" class="st5"/>
						</g>
					</g>
					<g id="group1341-25" transform="translate(19.2573,-35.7846)">
						<title>Sheet.1341</title>
						<g id="shape1342-26">
							<title>Sheet.1342</title>
							<path d="M18.18 78.63 C18.18 80.13 14.11 81.35 9.08 81.35 C4.07 81.35 0 80.13 0 78.63 C0 77.11 4.07 75.89
										 9.08 75.89 C14.11 75.89 18.18 77.11 18.18 78.63 Z" class="st4"/>
						</g>
					</g>
					<g id="group1343-28" transform="translate(30.1015,-40.4397)">
						<title>Sheet.1343</title>
						<g id="shape1344-29">
							<title>Sheet.1344</title>
							<path d="M18.74 76.78 C14.76 75.28 9.55 74.21 3.68 73.79 L0 80.6 C1.81 80.71 3.43 80.97 4.68 81.35 L18.74
										 76.78 Z" class="st3"/>
						</g>
					</g>
					<g id="group1345-31" transform="translate(6.69199,-27.8498)">
						<title>Sheet.1345</title>
						<g id="shape1346-32">
							<title>Sheet.1346</title>
							<path d="M0 77.9 C4.08 79.65 9.75 80.89 16.2 81.35 L20.5 73.39 C18.71 73.32 17.08 73.1 15.78 72.77 L0
										 77.9 Z" class="st3"/>
						</g>
					</g>
				</g>
			</g>
		</g>
	</g>
</svg>
