<?xml version="1.0" encoding="UTF-8" standalone="no"?>
<!DOCTYPE svg PUBLIC "-//W3C//DTD SVG 1.1//EN" "http://www.w3.org/Graphics/SVG/1.1/DTD/svg11.dtd">
<!-- Generated by Microsoft Visio, SVG Export Marketplace.svg Page-1 -->
<svg xmlns="http://www.w3.org/2000/svg" xmlns:xlink="http://www.w3.org/1999/xlink" xmlns:ev="http://www.w3.org/2001/xml-events"
		width="1.61374in" height="1.73187in" viewBox="0 0 116.189 124.695" xml:space="preserve" color-interpolation-filters="sRGB"
		class="st7">
	<style type="text/css">
	<![CDATA[
		.st1 {fill:#50e6ff;stroke:none;stroke-linecap:butt;stroke-width:34}
		.st2 {fill:#9cebff;stroke:none;stroke-linecap:butt;stroke-width:34}
		.st3 {fill:#a3a3a3;stroke:none;stroke-linecap:butt;stroke-width:34}
		.st4 {fill:#767676;stroke:none;stroke-linecap:butt;stroke-width:34}
		.st5 {fill:#32bedd;stroke:none;stroke-linecap:butt;stroke-width:34}
		.st6 {fill:url(#grad0-16);stroke:none;stroke-linecap:butt;stroke-width:34}
		.st7 {fill:none;fill-rule:evenodd;font-size:12px;overflow:visible;stroke-linecap:square;stroke-miterlimit:3}
	]]>
	</style>

	<defs id="Patterns_And_Gradients">
		<linearGradient id="grad0-16" x1="0" y1="0" x2="1" y2="0" gradientTransform="rotate(-90 0.5 0.5)">
			<stop offset="0" stop-color="#cccccc" stop-opacity="1"/>
			<stop offset="0.15" stop-color="#dadada" stop-opacity="1"/>
			<stop offset="0.44" stop-color="#eeeeee" stop-opacity="1"/>
			<stop offset="0.725" stop-color="#fbfbfb" stop-opacity="1"/>
			<stop offset="1" stop-color="#ffffff" stop-opacity="1"/>
		</linearGradient>
	</defs>
	<g>
		<title>Page-1</title>
		<g id="group1273-1" transform="translate(34,-34)">
			<title>Marketplace</title>
			<g id="group1274-2">
				<title>Sheet.1274</title>
				<g id="shape1275-3" transform="translate(40.7745,0)">
					<title>Sheet.1275</title>
					<path d="M3.37 82.02 L0 82.02 L0 124.69 L3.37 118.28 L3.37 82.02 Z" class="st1"/>
				</g>
				<g id="shape1276-5" transform="translate(40.7745,-0.0133348)">
					<title>Sheet.1276</title>
					<path d="M3.39 118.23 L3.37 118.28 L0 124.69 L3.37 122.04 L7.41 118.87 L3.39 118.23 Z" class="st2"/>
				</g>
				<g id="shape1277-7" transform="translate(20.1403,-42.6914)">
					<title>Sheet.1277</title>
					<path d="M2.55 118.36 A5.14792 5.24724 0 0 1 7.87 113.32 A5.14138 5.24058 0 0 1 13.18 118.36 L13.18 124.69 L15.73
								 124.69 L15.73 118.36 A7.8756 8.02755 -180 0 0 -0 118.36 L0 124.69 L2.55 124.69 L2.55 118.36 Z"
							class="st3"/>
				</g>
				<g id="shape1278-9" transform="translate(12.3302,-42.6914)">
					<title>Sheet.1278</title>
					<path d="M2.55 118.36 A5.14138 5.24058 0 0 1 7.85 113.32 A5.14138 5.24058 0 0 1 13.16 118.36 L13.16 124.69 L15.72
								 124.69 L15.72 118.36 A7.70553 7.8542 -180 0 0 7.87 110.69 A7.70553 7.8542 -180 0 0 0 118.36 L0 124.69
								 L2.55 124.69 L2.55 118.36 Z" class="st4"/>
				</g>
				<g id="shape1279-11" transform="translate(0,-0.0133348)">
					<title>Sheet.1279</title>
					<path d="M40.77 82.04 L40.77 124.69 L0 121.41 L1.24 82.04 L40.77 82.04 ZM44.15 82.04 L44.15 118.28 L48.19 118.87
								 L46.95 82.04 L44.15 82.04 Z" class="st5"/>
				</g>
				<g id="shape1280-13" transform="translate(5.30164,-10.9645)">
					<title>Sheet.1280</title>
					<path d="M29.85 118.14 A7.52237 7.66751 -180 0 0 23.97 110.86 A9.31793 9.49771 -180 0 0 15.26 101.69 A8.10127
								 8.25758 -180 0 0 6.96 107.18 A7.52237 7.66751 -180 0 0 0 114.89 A8.94508 9.11767 -180 0 0 8.35 123.76
								 C8.6 123.76 8.85 123.78 9.09 123.76 L22.7 124.69 A1.30824 1.33348 -180 0 0 23.06 124.66 A6.42999
								 6.55406 -180 0 0 29.85 118.14 Z" class="st6"/>
				</g>
			</g>
		</g>
	</g>
</svg>
