<?xml version="1.0" encoding="UTF-8" standalone="no"?>
<!DOCTYPE svg PUBLIC "-//W3C//DTD SVG 1.1//EN" "http://www.w3.org/Graphics/SVG/1.1/DTD/svg11.dtd">
<!-- Generated by Microsoft Visio, SVG Export Metric.svg Page-1 -->
<svg xmlns="http://www.w3.org/2000/svg" xmlns:xlink="http://www.w3.org/1999/xlink" xmlns:ev="http://www.w3.org/2001/xml-events"
		width="1.67009in" height="1.73185in" viewBox="0 0 120.246 124.693" xml:space="preserve" color-interpolation-filters="sRGB"
		class="st6">
	<style type="text/css">
	<![CDATA[
		.st1 {fill:#b796f9;stroke:none;stroke-linecap:butt;stroke-width:34}
		.st2 {fill:url(#grad0-8);stroke:none;stroke-linecap:butt;stroke-width:34}
		.st3 {fill:#0078d4;stroke:none;stroke-linecap:butt;stroke-width:34}
		.st4 {fill:#005ba1;stroke:none;stroke-linecap:butt;stroke-width:34}
		.st5 {fill:#5ea0ef;stroke:none;stroke-linecap:butt;stroke-width:34}
		.st6 {fill:none;fill-rule:evenodd;font-size:12px;overflow:visible;stroke-linecap:square;stroke-miterlimit:3}
	]]>
	</style>

	<defs id="Patterns_And_Gradients">
		<linearGradient id="grad0-8" x1="0" y1="0" x2="1" y2="0" gradientTransform="rotate(74.192852890083 0.5 0.5)">
			<stop offset="0" stop-color="#b77af4" stop-opacity="1"/>
			<stop offset="0.405" stop-color="#9659e8" stop-opacity="1"/>
			<stop offset="0.765" stop-color="#7f42df" stop-opacity="1"/>
			<stop offset="0.995" stop-color="#773adc" stop-opacity="1"/>
		</linearGradient>
	</defs>
	<g>
		<title>Page-1</title>
		<g id="group1248-1" transform="translate(35.2224,-34)">
			<title>Metric</title>
			<g id="group1249-2">
				<title>g14</title>
				<g id="shape1250-3" transform="translate(2.02982,-22.0869)">
					<title>path2</title>
					<path d="M42.07 93.83 L28.72 117.51 L14.59 103.17 L0 121.96 L3.45 124.63 L14.98 109.78 L29.67 124.69 L45.88 95.97
								 L42.07 93.83 Z" class="st1"/>
				</g>
				<g id="shape1251-5" transform="translate(0.42223,-20.3838)">
					<title>path4</title>
					<path d="M21.86 104.7 A5.4899 5.46586 0 1 1 16.31 99.27 A5.49995 5.47587 0 0 1 21.86 104.7 ZM31.22 112.93 A5.51335
								 5.48921 -180 1 0 36.76 118.35 A5.49995 5.47587 -180 0 0 31.22 112.93 ZM45.05 88.38 A5.51335 5.48921
								 -180 1 0 50.6 93.81 A5.5033 5.4792 -180 0 0 45.05 88.38 ZM3.84 115.29 A5.51335 5.48921 -180 1 0
								 9.38 120.73 A5.50665 5.48254 -180 0 0 3.84 115.29 Z" class="st2"/>
				</g>
				<g id="shape1252-9" transform="translate(13.77,0)">
					<title>rect6</title>
					<path d="M0 123.75 a0.947943 0.943792 -180 0 0 0.947921 0.94377 L7.68 124.69 a0.947943 0.943792 -180 0 0 0.947921
								 -0.94377 L8.63 100.35 a0.947943 0.943792 -180 0 0 -0.947921 -0.94377 L0.95 99.41 a0.947943 0.943792
								 -180 0 0 -0.947921 0.94377 L0 123.75 Z" class="st3"/>
				</g>
				<g id="shape1253-11" transform="translate(27.5366,2.84217E-13)">
					<title>rect8</title>
					<path d="M0 123.75 a0.947943 0.943792 -180 0 0 0.947921 0.94377 L7.68 124.69 a0.947943 0.943792 -180 0 0 0.947921
								 -0.94377 L8.63 109.1 a0.947943 0.943792 -180 0 0 -0.947921 -0.94377 L0.95 108.16 a0.947943 0.943792
								 -180 0 0 -0.947921 0.94377 L0 123.75 Z" class="st4"/>
				</g>
				<g id="shape1254-13" transform="translate(41.3066,2.84217E-13)">
					<title>rect10</title>
					<path d="M0 123.75 a0.947943 0.943792 -180 0 0 0.947921 0.94377 L7.68 124.69 a0.947943 0.943792 -180 0 0 0.947921
								 -0.94377 L8.63 91.89 a0.947943 0.943792 -180 0 0 -0.947921 -0.94377 L0.95 90.95 a0.947943 0.943792
								 -180 0 0 -0.947921 0.94377 L0 123.75 Z" class="st4"/>
				</g>
				<g id="shape1255-15">
					<title>rect12</title>
					<path d="M0 123.75 a0.947943 0.943792 -180 0 0 0.947921 0.94377 L7.68 124.69 a0.947943 0.943792 -180 0 0 0.947921
								 -0.94377 L8.63 109.1 a0.947943 0.943792 -180 0 0 -0.947921 -0.94377 L0.95 108.16 a0.947943 0.943792
								 -180 0 0 -0.947921 0.94377 L0 123.75 Z" class="st5"/>
				</g>
			</g>
		</g>
	</g>
</svg>
