<?xml version="1.0" encoding="UTF-8" standalone="no"?>
<!DOCTYPE svg PUBLIC "-//W3C//DTD SVG 1.1//EN" "http://www.w3.org/Graphics/SVG/1.1/DTD/svg11.dtd">
<!-- Generated by Microsoft Visio, SVG Export Mobile Application.svg Page-1 -->
<svg xmlns="http://www.w3.org/2000/svg" xmlns:xlink="http://www.w3.org/1999/xlink" xmlns:ev="http://www.w3.org/2001/xml-events"
		width="0.994633in" height="1.40283in" viewBox="0 0 71.6136 101.004" xml:space="preserve" color-interpolation-filters="sRGB"
		class="st11">
	<style type="text/css">
	<![CDATA[
		.st1 {fill:#3e3e3e;stroke:none;stroke-linecap:butt;stroke-width:15.9643}
		.st2 {fill:#59b4d9;stroke:none;stroke-linecap:butt;stroke-width:15.9643}
		.st3 {fill:#ffffff;stroke:none;stroke-linecap:butt;stroke-width:15.9643}
		.st4 {fill:#b8d432;stroke:none;stroke-linecap:butt;stroke-width:15.9643}
		.st5 {fill:#ffffff;fill-opacity:0.15;stroke:none;stroke-linecap:butt;stroke-width:15.9643}
		.st6 {fill:#1e1e1e;stroke:none;stroke-linecap:butt;stroke-width:15.9643}
		.st7 {fill:#ffffff}
		.st8 {stroke:none;stroke-linecap:butt;stroke-width:15.9643}
		.st9 {fill:#ffffff;fill-opacity:0.7}
		.st10 {fill:#ffffff;fill-opacity:0.4}
		.st11 {fill:none;fill-rule:evenodd;font-size:12px;overflow:visible;stroke-linecap:square;stroke-miterlimit:3}
	]]>
	</style>

	<g>
		<title>Page-1</title>
		<g id="group1234-1" transform="translate(15.9643,-28.3465)">
			<title>Mobile Application</title>
			<g id="group1235-2">
				<title>layer1</title>
				<g id="shape1236-3">
					<title>path2</title>
					<path d="M39.69 97.6 A3.45638 3.40157 0 0 1 36.23 101 L3.46 101 A3.45638 3.40157 0 0 1 0 97.6 L0 47.71 A3.45638
								 3.40157 0 0 1 3.46 44.31 L36.23 44.31 A3.45638 3.40157 0 0 1 39.69 47.71 L39.69 97.6 Z"
							class="st1"/>
				</g>
				<g id="shape1237-5" transform="translate(2.56236,-11.0869)">
					<title>path4</title>
					<rect x="0" y="61.0669" width="34.5638" height="39.9367" class="st2"/>
				</g>
				<g id="shape1238-7" transform="translate(16.5135,-2.20598)">
					<title>path6</title>
					<path d="M6.66 97.67 A3.32965 3.27685 0 1 1 0 97.67 A3.32965 3.27685 0 0 1 6.66 97.67 Z" class="st3"/>
				</g>
				<g id="shape1239-9" transform="translate(17.6587,-3.39362)">
					<title>path8</title>
					<path d="M4.37 98.85 A2.18328 2.14866 0 1 1 -0 98.85 A2.18328 2.14866 0 0 1 4.37 98.85 Z" class="st4"/>
				</g>
				<g id="shape1240-11">
					<title>path10</title>
					<path d="M2.56 89.92 L2.56 49.98 L28.79 49.98 L31.13 44.31 L3.46 44.31 A3.45638 3.40157 -180 0 0 0 47.71 L0 97.6
								 A3.45638 3.40157 -180 0 0 3.46 101 L7.71 101 L12.29 89.92 L2.56 89.92 Z" class="st5"/>
				</g>
				<g id="shape1241-13" transform="translate(13.9245,-52.662)">
					<title>path12</title>
					<path d="M11.81 100.17 C11.81 100.63 11.43 101 10.96 101 L0.88 101 a0.851422 0.837921 0 1 1 -1.18794E-14 -1.67471
								 L10.96 99.33 C11.43 99.33 11.81 99.7 11.81 100.17 Z" class="st6"/>
				</g>
				<g id="shape1242-15" transform="translate(9.42505,-32.5289)">
					<title>path14</title>
					<path d="M16.31 80.03 C16.31 80.5 15.93 80.87 15.46 80.87 L5.38 80.87 a0.851422 0.837921 0 1 1 -1.15463E-14 -1.67471
								 L15.46 79.2 C15.93 79.2 16.31 79.57 16.31 80.03 ZM10.45 101 a0.320291 0.315213 0 0 1 -0.154582 -0.0432799
								 L0.15 95.2 a0.307618 0.30274 0 0 1 -6.66134E-15 -0.522697 L10.23 88.95 a0.30877 0.303874 0 0 1 0.303076
								 -1.42109E-14 L20.68 94.71 a0.304161 0.299339 0 0 1 0.1511 0.260984 a0.301857 0.297071 0 0 1 -0.1511
								 0.260984 L10.61 100.96 a0.311074 0.306142 0 0 1 -0.155456 0.0432799 L10.45 101 Z" class="st7"/>
					<path d="M16.31 80.03 C16.31 80.5 15.93 80.87 15.46 80.87 L5.38 80.87 a0.851422 0.837921 0 1 1 -1.15463E-14 -1.67471
								 L15.46 79.2 C15.93 79.2 16.31 79.57 16.31 80.03M10.45 101 a0.320291 0.315213 0 0 1 -0.154582 -0.0432799
								 L0.15 95.2 a0.307618 0.30274 0 0 1 -6.66134E-15 -0.522697 L10.23 88.95 a0.30877 0.303874 0 0 1 0.303076
								 -1.42109E-14 L20.68 94.71 a0.304161 0.299339 0 0 1 0.1511 0.260984 a0.301857 0.297071 0 0 1 -0.1511
								 0.260984 L10.61 100.96 a0.311074 0.306142 0 0 1 -0.155456 0.0432799" class="st8"/>
				</g>
				<g id="shape1243-18" transform="translate(7.99437,-18.5238)">
					<title>path16</title>
					<path d="M10.42 101 a0.289184 0.284598 0 0 1 -0.154585 -0.0428551 L0.16 95.22 a0.299553 0.294803 0 0 1 -0.156759
								 -0.261841 L0 83.43 C0 83.32 0.06 83.22 0.16 83.17 a0.303009 0.298205 0 0 1 0.308733 4.26326E-14
								 L10.58 88.91 a0.322595 0.31748 0 0 1 0.149796 0.263984 L10.73 100.7 a0.313379 0.308409 0 0 1 -0.149796
								 0.261839 a0.322595 0.31748 0 0 1 -0.153278 0.0428551 L10.42 101 Z" class="st9"/>
					<path d="M10.42 101 a0.289184 0.284598 0 0 1 -0.154585 -0.0428551 L0.16 95.22 a0.299553 0.294803 0 0 1 -0.156759
								 -0.261841 L0 83.43 C0 83.32 0.06 83.22 0.16 83.17 a0.303009 0.298205 0 0 1 0.308733 4.26326E-14
								 L10.58 88.91 a0.322595 0.31748 0 0 1 0.149796 0.263984 L10.73 100.7 a0.313379 0.308409 0 0 1 -0.149796
								 0.261839 a0.322595 0.31748 0 0 1 -0.153278 0.0428551" class="st8"/>
				</g>
				<g id="shape1244-21" transform="translate(20.9735,-18.5238)">
					<title>path18</title>
					<path d="M0.31 101 a0.33066 0.325417 0 0 1 -0.158939 -0.0428551 a0.311074 0.306142 0 0 1 -0.14849 -0.261843 L0
								 89.24 C0 89.14 0.06 89.04 0.15 88.98 L10.26 83.24 a0.299553 0.294803 0 0 1 0.303943 -1.42109E-14
								 a0.303009 0.298205 0 0 1 0.155456 0.260555 L10.72 94.95 a0.300705 0.295937 0 0 1 -0.155456 0.261841
								 L0.46 100.96 a0.271902 0.26759 0 0 1 -0.14849 0.0428551 L0.31 101 Z" class="st10"/>
					<path d="M0.31 101 a0.33066 0.325417 0 0 1 -0.158939 -0.0428551 a0.311074 0.306142 0 0 1 -0.14849 -0.261843 L0
								 89.24 C0 89.14 0.06 89.04 0.15 88.98 L10.26 83.24 a0.299553 0.294803 0 0 1 0.303943 -1.42109E-14
								 a0.303009 0.298205 0 0 1 0.155456 0.260555 L10.72 94.95 a0.300705 0.295937 0 0 1 -0.155456 0.261841
								 L0.46 100.96 a0.271902 0.26759 0 0 1 -0.14849 0.0428551" class="st8"/>
				</g>
			</g>
		</g>
	</g>
</svg>
