<?xml version="1.0" encoding="UTF-8" standalone="no"?>
<!DOCTYPE svg PUBLIC "-//W3C//DTD SVG 1.1//EN" "http://www.w3.org/Graphics/SVG/1.1/DTD/svg11.dtd">
<!-- Generated by Microsoft Visio, SVG Export NAT Gateway.svg Page-1 -->
<svg xmlns="http://www.w3.org/2000/svg" xmlns:xlink="http://www.w3.org/1999/xlink" xmlns:ev="http://www.w3.org/2001/xml-events"
		width="1.7107in" height="1.7107in" viewBox="0 0 123.171 123.171" xml:space="preserve" color-interpolation-filters="sRGB"
		class="st5">
	<style type="text/css">
	<![CDATA[
		.st1 {fill:url(#grad0-6);stroke:none;stroke-linecap:butt;stroke-width:34}
		.st2 {fill:#9cebff;stroke:none;stroke-linecap:butt;stroke-width:34}
		.st3 {fill:#ffffff;stroke:none;stroke-linecap:butt;stroke-width:34}
		.st4 {fill:#86d633;stroke:none;stroke-linecap:butt;stroke-width:34}
		.st5 {fill:none;fill-rule:evenodd;font-size:12px;overflow:visible;stroke-linecap:square;stroke-miterlimit:3}
	]]>
	</style>

	<defs id="Patterns_And_Gradients">
		<linearGradient id="grad0-6" x1="0" y1="0" x2="1" y2="0" gradientTransform="rotate(-45 0.5 0.5)">
			<stop offset="0" stop-color="#238ab0" stop-opacity="1"/>
			<stop offset="0.11" stop-color="#2da4c8" stop-opacity="1"/>
			<stop offset="0.775" stop-color="#3ed3f2" stop-opacity="1"/>
		</linearGradient>
	</defs>
	<g>
		<title>Page-1</title>
		<g id="group1206-1" transform="translate(33.2388,-33.2388)">
			<title>NAT Gateway</title>
			<g id="group1207-2">
				<title>Icon-310-NATService</title>
				<g id="shape1208-3" transform="translate(-58.7483,36.0758) rotate(-45)">
					<title>Sheet.1208</title>
					<path d="M0 121.33 A1.83763 1.83763 -180 0 0 1.84 123.17 L38.25 123.17 A1.83763 1.83763 -180 0 0 40.09 121.33
								 L40.09 84.92 A1.83763 1.83763 -180 0 0 38.25 83.08 L1.84 83.08 A1.83763 1.83763 -180 0 0 -0 84.92
								 L0 121.33 Z" class="st1"/>
				</g>
				<g id="shape1209-7" transform="translate(12.1431,-11.0433)">
					<title>Sheet.1209</title>
					<path d="M32.04 109.19 L30.92 108.07 L30.92 103.78 L22.04 103.78 L22.04 108.51 L26.02 108.51 L16.02 118.52 L6.01
								 108.51 L10.06 108.51 L10.06 103.78 L0.3 103.78 L0.3 108.51 L0.67 108.51 L0 109.19 L13.99 123.17
								 L16.02 121.14 L18.05 123.17 L32.04 109.19 Z" class="st2"/>
				</g>
				<g id="shape1210-9" transform="translate(-74.5155,15.1452) rotate(-45.121)">
					<title>Sheet.1210</title>
					<ellipse cx="4.90333" cy="118.242" rx="4.90333" ry="4.92821" class="st3"/>
				</g>
				<g id="shape1211-11" transform="translate(-74.4336,12.0594) rotate(-45.061)">
					<title>Sheet.1211</title>
					<ellipse cx="2.78591" cy="120.357" rx="2.78591" ry="2.8139" class="st4"/>
				</g>
				<g id="shape1212-13" transform="translate(-43.3067,15.1474) rotate(-45.121)">
					<title>Sheet.1212</title>
					<ellipse cx="4.90333" cy="118.242" rx="4.90333" ry="4.92821" class="st3"/>
				</g>
				<g id="shape1213-15" transform="translate(-43.2239,12.0638) rotate(-45.061)">
					<title>Sheet.1213</title>
					<ellipse cx="2.78591" cy="120.357" rx="2.78591" ry="2.8139" class="st4"/>
				</g>
				<g id="shape1214-17" transform="translate(21.4879,-8.34446)">
					<title>Sheet.1214</title>
					<path d="M13.2 90.13 L6.99 83.91 a0.466392 0.466392 -180 0 0 -0.662277 -9.9476E-14 L0.1 90.13 a0.466392 0.466392
								 -180 0 0 0.329584 0.799085 L3.96 90.93 a0.332693 0.332693 0 0 1 0.332693 0.332693 L4.3 123.17 L9.04
								 123.17 L9.04 91.26 a0.332693 0.332693 0 0 1 0.310928 -0.332693 L12.86 90.93 a0.466392 0.466392 -180
								 0 0 0.338911 -0.799085 Z" class="st3"/>
				</g>
				<g id="shape1215-19" transform="translate(-59.0987,30.8462) rotate(-45.121)">
					<title>Sheet.1215</title>
					<ellipse cx="4.90333" cy="118.242" rx="4.90333" ry="4.92821" class="st3"/>
				</g>
				<g id="shape1216-21" transform="translate(-59.0138,27.7617) rotate(-45.061)">
					<title>Sheet.1216</title>
					<ellipse cx="2.78591" cy="120.357" rx="2.78591" ry="2.8139" class="st4"/>
				</g>
			</g>
		</g>
	</g>
</svg>
