<?xml version="1.0" encoding="UTF-8" standalone="no"?>
<!DOCTYPE svg PUBLIC "-//W3C//DTD SVG 1.1//EN" "http://www.w3.org/Graphics/SVG/1.1/DTD/svg11.dtd">
<!-- Generated by Microsoft Visio, SVG Export Network Watcher.svg Page-1 -->
<svg xmlns="http://www.w3.org/2000/svg" xmlns:xlink="http://www.w3.org/1999/xlink" xmlns:ev="http://www.w3.org/2001/xml-events"
		width="1.72281in" height="1.72312in" viewBox="0 0 124.042 124.064" xml:space="preserve" color-interpolation-filters="sRGB"
		class="st6">
	<style type="text/css">
	<![CDATA[
		.st1 {fill:#198ab3;stroke:none;stroke-linecap:butt;stroke-width:34}
		.st2 {fill:url(#grad6-8);stroke:none;stroke-linecap:butt;stroke-width:34}
		.st3 {fill:#50e6ff;stroke:none;stroke-linecap:butt;stroke-width:34}
		.st4 {fill:#ffffff;stroke:none;stroke-linecap:butt;stroke-width:34}
		.st5 {fill:#76bc2d;stroke:none;stroke-linecap:butt;stroke-width:34}
		.st6 {fill:none;fill-rule:evenodd;font-size:12px;overflow:visible;stroke-linecap:square;stroke-miterlimit:3}
	]]>
	</style>

	<defs id="Patterns_And_Gradients">
		<radialGradient id="grad6-8" cx="1" cy="0" r="1.4">
			<stop offset="0" stop-color="#5ea0ef" stop-opacity="1"/>
			<stop offset="0.28" stop-color="#5b9fee" stop-opacity="1"/>
			<stop offset="0.47" stop-color="#529bec" stop-opacity="1"/>
			<stop offset="0.64" stop-color="#4394e7" stop-opacity="1"/>
			<stop offset="0.79" stop-color="#2d8be1" stop-opacity="1"/>
			<stop offset="0.93" stop-color="#117fd9" stop-opacity="1"/>
			<stop offset="1" stop-color="#0078d4" stop-opacity="1"/>
		</radialGradient>
	</defs>
	<g>
		<title>Page-1</title>
		<g id="group1173-1" transform="translate(33.1306,-33.1675)">
			<title>Network Watcher</title>
			<g id="group1174-2">
				<title>Icon-networking-66</title>
				<g id="shape1175-3" transform="translate(-84.5949,36.3677) rotate(-45)">
					<title>Sheet.1175</title>
					<path d="M0 121.99 A2.087 2.0779 -180 0 0 2.09 124.06 L17.42 124.06 A2.087 2.0779 -180 0 0 19.51 121.99 L19.51
								 121.72 A2.087 2.0779 -180 0 0 17.42 119.64 L2.09 119.64 A2.087 2.0779 -180 0 0 -0 121.72 L0 121.99
								 Z" class="st1"/>
				</g>
				<g id="shape1176-5" transform="translate(16.1392,-16.2735)">
					<title>Sheet.1176</title>
					<path d="M39.39 96.12 A21.3333 21.2403 -180 0 0 36.9 91.66 A20.6708 20.5807 -180 0 0 7.95 87.57 L7.75 87.74 A20.472
								 20.3828 -180 0 0 0.43 98.72 C0.43 99.45 0.1 100.17 0 100.9 A20.7039 20.6137 -180 0 0 6.26 118.91
								 A6.92338 6.89321 -180 0 0 6.99 119.57 L7.72 120.16 A19.0807 18.9975 -180 0 0 10.83 122.14 L11.16
								 122.34 L11.73 122.57 L12.19 122.8 L12.69 123 L13.22 123.19 L13.68 123.36 L14.34 123.56 L14.71 123.56
								 L15.67 123.82 L16.73 124.05 L16.99 124.05 A6.29398 6.26655 -180 0 0 17.82 124.05 L22.86 124.05 A16.8944
								 16.8207 -180 0 0 25.37 123.56 A20.5383 20.4487 -180 0 0 32.7 119.93 A21.0683 20.9765 -180 0 0 36.44
								 116.2 A20.8033 20.7126 -180 0 0 39.39 96.12 ZM34.58 93.05 L30.54 93.05 A19.6107 19.5253 -180 0 0
								 27.63 87.57 A17.6894 17.6123 0 0 1 34.68 93.05 L34.58 93.05 ZM21.63 86.45 A10.8323 10.7851 0 0 1
								 27.59 93.05 L21.63 93.05 L21.63 86.45 ZM21.63 95.82 L28.49 95.82 A30.5755 30.4422 0 0 1 29.58 102.78
								 L21.63 102.78 L21.63 95.82 ZM21.63 105.42 L29.58 105.42 A30.5755 30.4422 0 0 1 28.49 112.41 L21.73
								 112.41 L21.73 105.28 L21.63 105.42 ZM11.3 100.7 A28.9192 28.7932 0 0 1 12.22 95.69 L19.08 95.69
								 L19.08 102.65 L11.16 102.65 C11.2 101.99 11.23 101.33 11.3 100.7 ZM19.08 86.32 L19.08 92.92 L13.15
								 92.92 A10.6998 10.6531 0 0 1 19.08 86.32 ZM9.37 89.82 A19.3126 19.2284 0 0 1 13.02 87.7 A20.2732
								 20.1849 -180 0 0 10.1 93.21 L6.26 93.21 A18.8157 18.7337 0 0 1 9.37 89.82 ZM4.44 95.69 L9.57 95.69
								 A30.178 30.0465 -180 0 0 8.78 100.11 C8.78 100.93 8.61 101.79 8.61 102.65 L2.45 102.65 A21.3995
								 21.3063 0 0 1 2.95 100.17 A19.8757 19.7891 0 0 1 4.44 95.69 ZM2.45 105.28 L8.51 105.28 A30.973 30.838
								 -180 0 0 9.57 112.28 L4.44 112.28 A17.7556 17.6783 0 0 1 2.45 105.28 ZM6.26 114.98 L10.27 114.98
								 A19.6107 19.5253 -180 0 0 13.18 120.46 A17.59 17.5134 0 0 1 6.26 114.98 ZM19.15 121.58 A10.6998
								 10.6531 0 0 1 13.22 114.98 L19.15 114.98 L19.15 121.58 ZM19.15 112.21 L12.22 112.21 A30.6086 30.4752
								 0 0 1 11.16 105.22 L19.08 105.22 L19.08 112.28 L19.15 112.21 ZM24.22 120.19 A6.62524 6.59637 0 0
								 1 21.8 121.58 L21.8 114.98 L27.76 114.98 A14.708 14.6439 0 0 1 24.15 120.26 L24.22 120.19 ZM31.44
								 118.05 A17.1925 17.1176 0 0 1 27.63 120.29 A19.6107 19.5253 -180 0 0 30.54 114.82 L34.68 114.82
								 A17.7225 17.6453 0 0 1 31.44 118.05 ZM36.34 112.18 L31.37 112.18 A35.2463 35.0927 -180 0 0 32.33
								 105.19 L38.33 105.19 A17.4575 17.3814 0 0 1 36.34 112.28 L36.34 112.18 ZM32.33 102.65 A35.2463 35.0927
								 -180 0 0 31.37 95.69 L36.37 95.69 A18.3519 18.2719 0 0 1 38.36 102.65 L32.33 102.65 Z" class="st2"/>
				</g>
				<g id="shape1177-9" transform="translate(6.89694,-9.16299)">
					<title>Sheet.1177</title>
					<ellipse cx="13.383" cy="110.74" rx="13.383" ry="13.3247" class="st3"/>
				</g>
				<g id="shape1178-11" transform="translate(9.7458,-12.2633)">
					<title>Sheet.1178</title>
					<ellipse cx="10.501" cy="113.609" rx="10.501" ry="10.4552" class="st4"/>
				</g>
				<g id="shape1179-13" transform="translate(10.6402,-16.353)">
					<title>Sheet.1179</title>
					<path d="M4.21 117.93 L6.86 124.06 L9.54 116.18 L11.76 120.67 L14.51 116.05 L18.78 116.05 A11.8261 11.7745 -180
								 0 0 18.39 114.5 L13.78 114.5 L11.99 117.5 L9.24 112.29 L6.69 119.78 L4.37 114.47 L1.52 119.64 L0
								 119.64 A8.51344 8.47633 -180 0 0 0.5 121.2 L2.42 121.2 L4.21 117.93 Z" class="st5"/>
				</g>
			</g>
		</g>
	</g>
</svg>
