<?xml version="1.0" encoding="UTF-8" standalone="no"?>
<!DOCTYPE svg PUBLIC "-//W3C//DTD SVG 1.1//EN" "http://www.w3.org/Graphics/SVG/1.1/DTD/svg11.dtd">
<!-- Generated by Microsoft Visio, SVG Export Networking.svg Page-1 -->
<svg xmlns="http://www.w3.org/2000/svg" xmlns:xlink="http://www.w3.org/1999/xlink" xmlns:ev="http://www.w3.org/2001/xml-events"
		width="1.10222in" height="1.33851in" viewBox="0 0 79.3596 96.3727" xml:space="preserve" color-interpolation-filters="sRGB"
		class="st7">
	<style type="text/css">
	<![CDATA[
		.st1 {fill:#59b4d9;stroke:none;stroke-linecap:butt;stroke-width:11.3333}
		.st2 {fill:#a0a1a2;stroke:none;stroke-linecap:butt;stroke-width:11.3333}
		.st3 {fill:#ffffff;fill-opacity:0.2;stroke:none;stroke-linecap:butt;stroke-width:11.3333}
		.st4 {fill:#ffffff;stroke:none;stroke-linecap:butt;stroke-width:11.3333}
		.st5 {fill:#3999c6;stroke:none;stroke-linecap:butt;stroke-width:11.3333}
		.st6 {fill:#57a300;stroke:none;stroke-linecap:butt;stroke-width:11.3333}
		.st7 {fill:none;fill-rule:evenodd;font-size:12px;overflow:visible;stroke-linecap:square;stroke-miterlimit:3}
	]]>
	</style>

	<g>
		<title>Page-1</title>
		<g id="group1162-1" transform="translate(11.3334,-28.3465)">
			<title>Networking</title>
			<g id="group1163-2">
				<title>g22</title>
				<g id="shape1164-3" transform="translate(2.8777E-13,-22.9859)">
					<title>path4</title>
					<path d="M0 69.98 L0 94.78 A1.58521 1.59354 -180 0 0 1.59 96.37 L16.93 96.37 L20.63 92.75 C22.92 90.03 24.71
								 91.81 24.71 91.81 L24.71 91.88 C26.56 93.62 24.23 95.86 24.23 95.86 L23.69 96.37 L37.79 96.37 A1.58521
								 1.59354 -180 0 0 39.38 94.78 L39.38 69.98 L0 69.98 Z" class="st1"/>
				</g>
				<g id="shape1165-5" transform="translate(2.8777E-13,-46.6568)">
					<title>path6</title>
					<path d="M37.79 86.34 L1.59 86.34 A1.57471 1.58298 -180 0 0 -0 87.93 L0 96.37 L39.38 96.37 L39.38 87.93 A1.58521
								 1.59354 -180 0 0 37.79 86.34 Z" class="st2"/>
				</g>
				<g id="shape1166-7" transform="translate(-2.8777E-13,-22.9226)">
					<title>path8</title>
					<path d="M1.59 62.6 A1.58521 1.59354 -180 0 0 -0 64.2 L0 94.8 A1.58521 1.59354 -180 0 0 1.59 96.37 L3.31 96.37
								 L34.35 62.6 L1.59 62.6 Z" class="st3"/>
				</g>
				<g id="shape1167-9" transform="translate(10.1201,-49.7911)">
					<title>path10</title>
					<rect x="0" y="93.249" width="26.5181" height="3.12375" class="st4"/>
				</g>
				<g id="shape1168-11" transform="translate(2.34689,-48.6708)">
					<title>path12</title>
					<path d="M6.56 93.63 A3.84229 3.86248 0 1 1 2.71 89.78 A3.84229 3.86248 0 0 1 6.56 93.63 Z" class="st1"/>
				</g>
				<g id="shape1169-13" transform="translate(3.12842,-29.7611)">
					<title>path14</title>
					<path d="M1.53 75.16 L3.28 77.02 L2.33 77.02 L0 74.78 L2.32 72.55 L3.26 72.55 L1.53 74.39 L5.77 74.39 L5.77 75.16
								 L1.53 75.16 ZM10.59 94.83 A1.41724 1.42468 0 0 1 10.11 95.94 A1.82666 1.83626 0 0 1 8.85 96.37 A1.72168
								 1.73073 0 0 1 7.66 95.93 A1.40674 1.41413 0 0 1 7.17 94.87 A1.37524 1.38247 0 0 1 7.66 93.82 A1.81616
								 1.82571 0 0 1 8.9 93.4 A1.75317 1.76239 0 0 1 10.11 93.83 A1.38574 1.39302 0 0 1 10.59 94.83 ZM17.61
								 94.83 A1.41724 1.42468 0 0 1 17.12 95.94 A1.82666 1.83626 0 0 1 15.86 96.37 A1.72168 1.73073 0 0
								 1 14.72 95.93 A1.40674 1.41413 0 0 1 14.22 94.87 A1.37524 1.38247 0 0 1 14.72 93.71 A1.81616 1.82571
								 0 0 1 15.96 93.29 A1.75317 1.76239 0 0 1 17.16 93.72 A1.38574 1.39302 0 0 1 17.61 94.83 ZM24.62
								 94.83 A1.41724 1.42468 0 0 1 24.17 95.94 A1.82666 1.83626 0 0 1 22.91 96.37 A1.72168 1.73073 0 0
								 1 21.72 95.93 A1.40674 1.41413 0 0 1 21.23 94.87 A1.37524 1.38247 0 0 1 21.72 93.82 A1.81616 1.82571
								 0 0 1 22.96 93.4 A1.75317 1.76239 0 0 1 24.17 93.71 A1.38574 1.39302 0 0 1 24.62 94.83 Z"
							class="st4"/>
				</g>
				<g id="shape1170-15" transform="translate(9.69675,0)">
					<title>path16</title>
					<path d="M46.68 83.52 A1.28076 1.28749 -180 0 0 46.68 81.82 L44.42 79.55 L34.29 69.65 A1.0498 1.05532 -180 0
								 0 32.69 69.65 A1.11279 1.11864 -180 0 0 32.69 71.35 L43.3 81.82 A1.18628 1.19251 0 0 1 43.3 83.52
								 L32.51 94.36 A1.18628 1.19251 -180 0 0 32.51 96.06 A1.16528 1.17141 -180 0 0 34.1 96.06 L44.14 86.06
								 L44.23 85.97 L46.68 83.52 ZM0.32 83.52 A1.28076 1.28749 0 0 1 0.32 81.82 L2.58 79.55 L12.71 69.64
								 A1.0498 1.05532 0 0 1 14.3 69.64 A1.11279 1.11864 0 0 1 14.3 71.34 L3.89 81.81 A1.18628 1.19251
								 -180 0 0 3.89 83.51 L14.45 94.36 A1.18628 1.19251 0 0 1 14.45 96.06 A1.16528 1.17141 0 0 1 12.85
								 96.06 L2.67 86.11 L2.58 86.02 L0.32 83.52 Z" class="st5"/>
				</g>
				<g id="shape1171-17" transform="translate(20.4292,-10.5965)">
					<title>path18</title>
					<path d="M6.38 93.26 A3.14941 3.16596 0 0 1 3.29 96.37 A3.43286 3.4509 0 0 1 0 93.26 A3.14941 3.16596 0 0 1 3.29
								 90.15 A3.06543 3.08154 0 0 1 6.38 93.26 ZM15.86 93.26 A3.14941 3.16596 0 0 1 12.77 96.37 A3.43286
								 3.4509 0 0 1 9.48 93.26 A3.29639 3.31371 0 0 1 12.77 90.15 A3.14941 3.16596 0 0 1 15.86 93.26 Z"
							class="st6"/>
				</g>
				<g id="shape1172-19" transform="translate(39.6721,-10.5965)">
					<title>circle20</title>
					<ellipse cx="3.09692" cy="93.2595" rx="3.09692" ry="3.1132" class="st6"/>
				</g>
			</g>
		</g>
	</g>
</svg>
