<?xml version="1.0" encoding="UTF-8" standalone="no"?>
<!DOCTYPE svg PUBLIC "-//W3C//DTD SVG 1.1//EN" "http://www.w3.org/Graphics/SVG/1.1/DTD/svg11.dtd">
<!-- Generated by Microsoft Visio, SVG Export Network Interface.svg Page-1 -->
<svg xmlns="http://www.w3.org/2000/svg" xmlns:xlink="http://www.w3.org/1999/xlink" xmlns:ev="http://www.w3.org/2001/xml-events"
		width="1.73185in" height="1.65311in" viewBox="0 0 124.693 119.024" xml:space="preserve" color-interpolation-filters="sRGB"
		class="st7">
	<style type="text/css">
	<![CDATA[
		.st1 {fill:#ffca00;stroke:none;stroke-linecap:butt;stroke-width:34}
		.st2 {fill:url(#grad0-8);stroke:none;stroke-linecap:butt;stroke-width:34}
		.st3 {fill:#b4ec36;stroke:none;stroke-linecap:butt;stroke-width:34}
		.st4 {fill:#365615;stroke:none;stroke-linecap:butt;stroke-width:34}
		.st5 {fill:#f2f2f2;stroke:none;stroke-linecap:butt;stroke-width:34}
		.st6 {fill:#3b3b3b;stroke:none;stroke-linecap:butt;stroke-width:34}
		.st7 {fill:none;fill-rule:evenodd;font-size:12px;overflow:visible;stroke-linecap:square;stroke-miterlimit:3}
	]]>
	</style>

	<defs id="Patterns_And_Gradients">
		<linearGradient id="grad0-8" x1="0" y1="0" x2="1" y2="0" gradientTransform="rotate(-90 0.5 0.5)">
			<stop offset="0" stop-color="#5e9641" stop-opacity="1"/>
			<stop offset="0.34" stop-color="#6baa42" stop-opacity="1"/>
			<stop offset="0.67" stop-color="#73b743" stop-opacity="1"/>
			<stop offset="1" stop-color="#76bb43" stop-opacity="1"/>
		</linearGradient>
	</defs>
	<g>
		<title>Page-1</title>
		<g id="group1194-1" transform="translate(34,-34)">
			<title>Network Interface</title>
			<g id="group1195-2">
				<title>Sheet.1195</title>
				<g id="shape1196-3" transform="translate(51.3238,-3.26551)">
					<title>Sheet.1196</title>
					<path d="M0 76.06 L4.24 76.06 A1.13386 1.15654 0 0 1 5.37 77.22 L5.37 89.12 A1.13386 1.15654 0 0 1 4.24 90.28
								 L0 90.28 L0 76.06 ZM0 96.78 L4.24 96.78 A1.13386 1.15654 0 0 1 5.37 97.93 L5.37 117.87 A1.13386
								 1.15654 0 0 1 4.24 119.02 L0 119.02 L0 96.78 Z" class="st1"/>
				</g>
				<g id="shape1197-5" transform="translate(5.43585,0)">
					<title>Sheet.1197</title>
					<path d="M0 116.68 A2.30112 2.34714 -180 0 0 2.3 119.02 L43.59 119.02 A2.30112 2.34714 -180 0 0 45.89 116.68
								 L45.89 70.35 A2.30112 2.34714 -180 0 0 43.59 68 L2.3 68 A2.30112 2.34714 -180 0 0 -0 70.35 L0 116.68
								 Z" class="st2"/>
				</g>
				<g id="shape1198-9" transform="translate(15.0069,-12.2457)">
					<title>Sheet.1198</title>
					<path d="M3 119.02 L0.63 119.02 a0.666975 0.680315 0 0 1 -0.633627 -0.714331 L0 89.91 a0.633627 0.646299 0 0
								 1 0.633627 -0.680315 L7.07 89.23 a0.633627 0.646299 0 0 1 0.633627 0.680315 a0.666975 0.680315 0
								 0 1 -0.633627 0.714331 L1.27 90.62 L1.27 117.59 L3 117.59 a0.666975 0.680315 0 0 1 0.633627 0.714331
								 a0.700324 0.714331 0 0 1 -0.633627 0.714331 Z" class="st3"/>
				</g>
				<g id="shape1199-11" transform="translate(11.9389,-8.77606)">
					<title>Sheet.1199</title>
					<path d="M6.4 119.02 L1.07 119.02 a0.666975 0.680315 0 0 1 -0.633627 -0.714331 L0 83.17 a0.666975 0.680315 0
								 0 1 0.200093 -0.510236 a0.53358 0.544252 0 0 1 0.433534 -0.204094 L10.14 82.46 L10.14 83.85 L1.3
								 83.85 L1.7 117.59 L6.4 117.59 L6.4 119.02 ZM26.41 115.89 L21.11 115.89 a0.633627 0.646299 0 0 1
								 -0.466883 -0.23811 a0.600278 0.612283 0 0 1 -0.200093 -0.47622 L20.44 98.55 a0.633627 0.646299 0
								 0 1 0.633627 -0.680315 L24.11 97.87 L24.11 90.21 L25.38 90.21 L25.38 98.51 a0.666975 0.680315 0
								 0 1 -0.600278 0.714331 L21.74 99.23 L21.74 114.26 L26.41 114.26 L26.41 115.89 Z" class="st3"/>
				</g>
				<g id="shape1200-13" transform="translate(21.9101,-37.7575)">
					<title>Sheet.1200</title>
					<path d="M-0 118.14 a0.867088 0.88443 -180 0 0 0.867068 0.884409 L19.61 119.02 a0.867088 0.88443 -180 0 0 0.867068
								 -0.884409 L20.48 109.33 a0.867088 0.88443 -180 0 0 -0.867068 -0.884409 L0.87 108.44 a0.867088 0.88443
								 -180 0 0 -0.867068 0.884409 L0 118.14 Z" class="st4"/>
				</g>
				<g id="shape1201-15" transform="translate(143.198,99.764) rotate(90)">
					<title>Sheet.1201</title>
					<path d="M0 118.14 a0.867088 0.88443 -180 0 0 0.867068 0.884409 L15.47 119.02 a0.867088 0.88443 -180 0 0 0.867068
								 -0.884409 L16.34 116.2 a0.867088 0.88443 -180 0 0 -0.867068 -0.884409 L0.87 115.32 a0.867088 0.88443
								 -180 0 0 -0.867068 0.884409 L0 118.14 Z" class="st4"/>
				</g>
				<g id="shape1202-17" transform="translate(136.996,99.8321) rotate(90)">
					<title>Sheet.1202</title>
					<path d="M0 118.14 a0.867088 0.88443 -180 0 0 0.867068 0.884409 L15.47 119.02 a0.867088 0.88443 -180 0 0 0.867068
								 -0.884409 L16.34 116.2 a0.867088 0.88443 -180 0 0 -0.867068 -0.884409 L0.87 115.32 a0.867088 0.88443
								 -180 0 0 -0.867068 0.884409 L0 118.14 Z" class="st4"/>
				</g>
				<g id="shape1203-19" transform="translate(156.938,99.8321) rotate(90)">
					<title>Sheet.1203</title>
					<path d="M0 118.14 a0.867088 0.88443 -180 0 0 0.867068 0.884409 L15.47 119.02 a0.867088 0.88443 -180 0 0 0.867068
								 -0.884409 L16.34 116.2 a0.867088 0.88443 -180 0 0 -0.867068 -0.884409 L0.87 115.32 a0.867088 0.88443
								 -180 0 0 -0.867068 0.884409 L0 118.14 Z" class="st5"/>
				</g>
				<g id="shape1204-21" transform="translate(21.9101,-24.8995)">
					<title>Sheet.1204</title>
					<ellipse cx="3.46827" cy="115.214" rx="3.46827" ry="3.80976" class="st5"/>
				</g>
				<g id="shape1205-23" transform="translate(2.79776E-14,-14.4567)">
					<title>Sheet.1205</title>
					<path d="M5.37 119.02 L1.13 119.02 A1.13386 1.15654 0 0 1 -0 118 L0 98.07 A1.13386 1.15654 0 0 1 1.13 96.91 L5.37
								 96.91 L5.37 119.02 Z" class="st6"/>
				</g>
			</g>
		</g>
	</g>
</svg>
