<?xml version="1.0" encoding="UTF-8" standalone="no"?>
<!DOCTYPE svg PUBLIC "-//W3C//DTD SVG 1.1//EN" "http://www.w3.org/Graphics/SVG/1.1/DTD/svg11.dtd">
<!-- Generated by Microsoft Visio, SVG Export Network Security Group.svg Page-1 -->
<svg xmlns="http://www.w3.org/2000/svg" xmlns:xlink="http://www.w3.org/1999/xlink" xmlns:ev="http://www.w3.org/2001/xml-events"
		width="1.57437in" height="1.73185in" viewBox="0 0 113.354 124.693" xml:space="preserve" color-interpolation-filters="sRGB"
		class="st5">
	<style type="text/css">
	<![CDATA[
		.st1 {fill:#0078d4;stroke:none;stroke-linecap:butt;stroke-width:34}
		.st2 {fill:#6bb9f2;stroke:none;stroke-linecap:butt;stroke-width:34}
		.st3 {fill:url(#grad0-10);stroke:none;stroke-linecap:butt;stroke-width:34}
		.st4 {fill:#50e6ff;stroke:none;stroke-linecap:butt;stroke-width:34}
		.st5 {fill:none;fill-rule:evenodd;font-size:12px;overflow:visible;stroke-linecap:square;stroke-miterlimit:3}
	]]>
	</style>

	<defs id="Patterns_And_Gradients">
		<linearGradient id="grad0-10" x1="0" y1="0" x2="1" y2="0" gradientTransform="rotate(90 0.5 0.5)">
			<stop offset="0" stop-color="#5ea0ef" stop-opacity="1"/>
			<stop offset="0.18" stop-color="#559cec" stop-opacity="1"/>
			<stop offset="0.47" stop-color="#3c91e5" stop-opacity="1"/>
			<stop offset="0.84" stop-color="#1380da" stop-opacity="1"/>
			<stop offset="1" stop-color="#0078d4" stop-opacity="1"/>
		</linearGradient>
	</defs>
	<g>
		<title>Page-1</title>
		<g id="group1180-1" transform="translate(34,-34)">
			<title>Network Security Group</title>
			<g id="group1181-2">
				<title>Icon-networking-67</title>
				<g id="shape1182-3">
					<title>Sheet.1182</title>
					<path d="M45.35 94.46 C45.35 109.71 27.33 121.99 23.42 124.48 A1.41732 1.44901 0 0 1 21.94 124.48 C18.02 121.99
								 0 109.71 0 94.46 L0 76.13 A1.41732 1.44901 0 0 1 1.39 74.68 C15.41 74.3 12.17 68 22.68 68 C33.18
								 68 29.95 74.3 43.97 74.68 A1.41732 1.44901 0 0 1 45.35 76.13 L45.35 94.46 Z" class="st1"/>
				</g>
				<g id="shape1183-5" transform="translate(1.87949,-2.35317)">
					<title>Sheet.1183</title>
					<path d="M41.6 96.97 C41.6 110.96 25.08 122.17 21.48 124.5 A1.32489 1.35451 0 0 1 20.12 124.5 C16.51 122.23 0
								 110.96 0 96.97 L0 80.15 A1.29408 1.32301 0 0 1 1.26 78.83 C14.11 78.48 11.15 72.72 20.8 72.72 C30.44
								 72.72 27.48 78.48 40.33 78.83 A1.29408 1.32301 0 0 1 41.6 80.15 L41.6 96.97 Z" class="st2"/>
				</g>
				<g id="shape1184-7" transform="translate(1.97193,-2.35487)">
					<title>Sheet.1184</title>
					<path d="M20.71 98.71 L20.71 72.72 C30.35 72.72 27.39 78.48 40.24 78.83 A1.32489 1.35451 0 0 1 41.5 80.18 L41.5
								 97 A15.0668 15.4037 0 0 1 41.5 98.71 L20.71 98.71 ZM20.71 98.71 L0 98.71 C1.23 111.87 16.58 122.33
								 20.03 124.5 A1.20164 1.22851 -180 0 0 20.58 124.69 L20.71 124.69 L20.71 98.71 Z" class="st3"/>
				</g>
				<g id="shape1185-11" transform="translate(1.94894,-2.35487)">
					<title>Sheet.1185</title>
					<path d="M1.19 78.83 C14.04 78.48 11.08 72.72 20.73 72.72 L20.73 98.71 L0.02 98.71 A15.0668 15.4037 0 0 1 0.02
								 97 L0.02 80.18 A1.32489 1.35451 0 0 1 1.19 78.83 ZM41.43 98.71 L20.73 98.71 L20.73 124.69 A1.20164
								 1.22851 -180 0 0 21.28 124.5 C24.86 122.33 40.2 111.87 41.43 98.71 Z" class="st4"/>
				</g>
			</g>
		</g>
	</g>
</svg>
