<?xml version="1.0" encoding="UTF-8" standalone="no"?>
<!DOCTYPE svg PUBLIC "-//W3C//DTD SVG 1.1//EN" "http://www.w3.org/Graphics/SVG/1.1/DTD/svg11.dtd">
<!-- Generated by Microsoft Visio, SVG Export Network Security Group (Classic).svg Page-1 -->
<svg xmlns="http://www.w3.org/2000/svg" xmlns:xlink="http://www.w3.org/1999/xlink" xmlns:ev="http://www.w3.org/2001/xml-events"
		width="0.930551in" height="1.3511in" viewBox="0 0 66.9997 97.2794" xml:space="preserve" color-interpolation-filters="sRGB"
		class="st5">
	<style type="text/css">
	<![CDATA[
		.st1 {fill:#0072c6;stroke:none;stroke-linecap:butt;stroke-width:12.24}
		.st2 {fill:#3999c6;fill-opacity:0.4;stroke:none;stroke-linecap:butt;stroke-width:12.24}
		.st3 {fill:#ffffff;fill-opacity:0.3;stroke:none;stroke-linecap:butt;stroke-width:12.24}
		.st4 {fill:#ffffff;fill-opacity:0.7;stroke:none;stroke-linecap:butt;stroke-width:12.24}
		.st5 {fill:none;fill-rule:evenodd;font-size:12px;overflow:visible;stroke-linecap:square;stroke-miterlimit:3}
	]]>
	</style>

	<g>
		<title>Page-1</title>
		<g id="group1186-1" transform="translate(12.24,-28.3465)">
			<title>Network Security Group (Classic)</title>
			<g id="group1187-2">
				<title>Sheet.1187</title>
				<g id="shape1188-3">
					<title>Sheet.1188</title>
					<path d="M36.25 47.4 C23.47 46.04 21.26 40.59 21.26 40.59 C21.26 40.59 18.36 47.63 0 47.63 L0 76.72 C0 80.24
								 1.97 83.53 4.76 86.37 C11.04 92.85 21.26 97.28 21.26 97.28 C21.26 97.28 42.52 88.19 42.52 76.72
								 L42.52 47.63 C40.2 47.63 38.11 47.52 36.25 47.4 Z" class="st1"/>
				</g>
				<g id="shape1189-5" transform="translate(0,-10.9069)">
					<title>Sheet.1189</title>
					<path d="M26.6 70.24 L36.25 58.31 C23.47 56.95 21.26 51.49 21.26 51.49 C21.26 51.49 18.36 58.54 0 58.54 L0 87.62
								 C0 91.14 1.97 94.44 4.76 97.28 L11.97 88.42 L26.6 70.24 Z" class="st2"/>
				</g>
				<g id="group1190-7" transform="translate(4.29844,-5.68065)">
					<title>Sheet.1190</title>
					<g id="shape1191-8" transform="translate(0.116174,0)">
						<title>Sheet.1191</title>
						<path d="M0 73.99 L0 80.92 C0 83.76 1.63 86.37 3.83 88.64 C8.83 93.87 16.96 97.28 16.96 97.28 L16.96 73.99
									 L0 73.99 Z" class="st3"/>
					</g>
					<g id="shape1192-10">
						<title>Sheet.1192</title>
						<path d="M16.96 97.28 C16.96 97.28 33.92 90.01 33.92 80.92 L33.92 73.99 L16.96 73.99 L16.96 97.28 ZM16.96
									 52.06 C16.96 52.06 14.64 57.74 0 57.74 L0 73.99 L16.96 73.99 L16.96 52.06 Z" class="st4"/>
					</g>
					<g id="shape1193-12" transform="translate(16.9614,-23.2907)">
						<title>Sheet.1193</title>
						<path d="M11.85 80.81 C1.74 79.67 0 75.47 0 75.47 L0 97.28 L16.96 97.28 L16.96 81.03 C15.1 81.03 13.36 80.92
									 11.85 80.81 Z" class="st3"/>
					</g>
				</g>
			</g>
		</g>
	</g>
</svg>
