<?xml version="1.0" encoding="UTF-8" standalone="no"?>
<!DOCTYPE svg PUBLIC "-//W3C//DTD SVG 1.1//EN" "http://www.w3.org/Graphics/SVG/1.1/DTD/svg11.dtd">
<!-- Generated by Microsoft Visio, SVG Export Node JS.svg Page-1 -->
<svg xmlns="http://www.w3.org/2000/svg" xmlns:xlink="http://www.w3.org/1999/xlink" xmlns:ev="http://www.w3.org/2001/xml-events"
		width="1.03684in" height="0.990861in" viewBox="0 0 74.6526 71.342" xml:space="preserve" color-interpolation-filters="sRGB"
		class="st6">
	<style type="text/css">
	<![CDATA[
		.st1 {fill:#000000;stroke:none;stroke-linecap:butt;stroke-width:8.97979}
		.st2 {fill:#333333;stroke:none;stroke-linecap:butt;stroke-width:8.97979}
		.st3 {fill:#699f63;stroke:none;stroke-linecap:butt;stroke-width:8.97979}
		.st4 {fill:url(#grad0-14);stroke:none;stroke-linecap:butt;stroke-width:8.97979}
		.st5 {fill:#000000;stroke:none;stroke-linecap:butt;stroke-width:0.75}
		.st6 {fill:none;fill-rule:evenodd;font-size:12px;overflow:visible;stroke-linecap:square;stroke-miterlimit:3}
	]]>
	</style>

	<defs id="Patterns_And_Gradients">
		<linearGradient id="grad0-14" x1="0" y1="0" x2="1" y2="0" gradientTransform="rotate(119.29862583422 0.5 0.5)">
			<stop offset="0" stop-color="#41873f" stop-opacity="1"/>
			<stop offset="0.33" stop-color="#418b3d" stop-opacity="1"/>
			<stop offset="0.64" stop-color="#409637" stop-opacity="1"/>
			<stop offset="0.93" stop-color="#3fa92d" stop-opacity="1"/>
			<stop offset="1" stop-color="#3fae2a" stop-opacity="1"/>
		</linearGradient>
	</defs>
	<g>
		<title>Page-1</title>
		<g id="group1153-1" transform="translate(8.97988,-28.3465)">
			<title>Node JS</title>
			<g id="group1154-2">
				<title>layer1</title>
				<g id="shape1155-3" transform="translate(21.646,-1.7053E-13)">
					<title>path41</title>
					<path d="M6.31 71.34 A1.09322 1.05481 0 0 1 5.77 71.2 L4.03 70.21 C3.76 70.07 3.89 70.01 3.98 69.99 A3.48009
								 3.35782 -180 0 0 4.77 69.65 a0.136653 0.131851 0 0 1 0.127398 -1.42109E-14 L6.26 70.42 a0.173093
								 0.167012 -180 0 0 0.163895 0 L11.64 67.51 a0.163983 0.158222 -180 0 0 0.081949 -0.140531 L11.72
								 61.55 a0.173093 0.167012 -180 0 0 -0.081949 -0.14053 L6.4 58.46 a0.163983 0.158222 -180 0 0 -0.136699
								 2.13163E-14 L1.04 61.37 a0.163983 0.158222 -180 0 0 -0.0819476 0.14053 L0.96 67.33 a0.163983 0.158222
								 -180 0 0 0.0819476 0.13189 L2.47 68.27 C3.24 68.64 3.72 68.19 3.72 67.76 L3.72 62.05 a0.154873 0.149432
								 0 0 1 0.154944 -0.1495 L4.54 61.9 a0.154873 0.149432 0 0 1 0.154944 0.1495 L4.69 67.79 A1.44852
								 1.39762 0 0 1 3.14 69.36 A2.232 2.15357 0 0 1 1.91 69.01 L0.55 68.25 A1.10233 1.0636 0 0 1 -0 67.37
								 L0 61.55 A1.10233 1.0636 0 0 1 0.55 60.67 L5.77 57.76 A1.14788 1.10755 0 0 1 6.87 57.76 L12.09 60.67
								 A1.10233 1.0636 0 0 1 12.64 61.55 L12.64 67.37 A1.10233 1.0636 0 0 1 12.09 68.25 L6.87 71.16 A1.09322
								 1.05481 0 0 1 6.31 71.34 L6.31 71.34 Z" class="st1"/>
				</g>
				<g id="shape1156-5" transform="translate(26.684,-3.79755)">
					<title>path43</title>
					<path d="M2.73 71.34 C0.45 71.34 0 70.33 0 69.48 a0.145763 0.140641 0 0 1 0.154944 -0.149502 L0.83 69.33 a0.154873
								 0.149432 0 0 1 0.145648 0.122922 C1.07 70.11 1.38 70.45 2.8 70.45 C3.9 70.45 4.36 70.22 4.36 69.65
								 C4.36 69.33 4.23 69.09 2.54 68.92 C1.11 68.78 0.23 68.48 0.23 67.38 C0.23 66.27 1.14 65.75 2.61
								 65.75 C4.28 65.75 5.11 66.31 5.21 67.51 a0.154873 0.149432 0 0 1 -0.154943 0.158134 L4.38 67.67
								 a0.154873 0.149432 0 0 1 -0.145648 -0.114281 C4.07 66.86 3.68 66.67 2.61 66.67 C1.53 66.67 1.27
								 67.08 1.27 67.38 C1.27 67.68 1.43 67.85 3.09 68.05 C4.75 68.26 5.46 68.55 5.46 69.64 C5.46 70.73
								 4.38 71.34 2.73 71.34 L2.73 71.34 ZM10.26 65.24 a1.01123 0.9757 0 1 1 -1.01124 -0.975709 a1.01123
								 0.9757 0 0 1 1.01124 0.975709 ZM8.44 65.24 a0.847247 0.817479 -180 1 0 0.838145 -0.808666 a0.847247
								 0.817479 -180 0 0 -0.865451 0.808666 L8.44 65.24 ZM8.9 64.7 L9.29 64.7 C9.43 64.7 9.68 64.7 9.68
								 64.99 a0.255085 0.246123 0 0 1 -0.209692 0.263786 C9.63 65.25 9.64 65.36 9.66 65.5 A1.11144 1.07239
								 -180 0 0 9.71 65.79 L9.42 65.79 L9.42 65.44 C9.42 65.43 9.42 65.35 9.3 65.35 L9.1 65.35 L9.1 65.78
								 L8.87 65.78 L8.9 64.7 ZM9.11 65.17 L9.28 65.17 a0.154873 0.149432 -180 0 0 0.173193 -0.158139 C9.46
								 64.86 9.35 64.86 9.29 64.86 L9.11 64.86 L9.11 65.17 Z" class="st1"/>
				</g>
				<g id="shape1157-7" transform="translate(0,-12.513)">
					<title>path45</title>
					<path d="M12.42 61.51 a0.665043 0.641677 -180 0 0 -0.337092 -0.562556 L6.54 57.88 a0.655933 0.632887 -180 0 0
								 -0.300592 -0.0877073 L6.19 57.79 a0.665043 0.641677 -180 0 0 -0.309888 0.0877073 L0.34 60.96 a0.674154
								 0.650467 -180 0 0 -0.337092 0.562587 L0 69.8 a0.327967 0.316443 -180 0 0 0.163898 0.281394 a0.318856
								 0.307653 -180 0 0 0.327795 0 L3.81 68.25 a0.674154 0.650467 -180 0 0 0.337091 -0.562587 L4.14 63.82
								 a0.665043 0.641677 0 0 1 0.337089 -0.56259 L5.88 62.48 a0.665043 0.641677 0 0 1 0.337092 -0.0877073
								 a0.655933 0.632887 0 0 1 0.337091 0.0877073 L7.96 63.26 a0.665043 0.641677 0 0 1 0.337089 0.56259
								 L8.3 67.69 a0.674154 0.650467 -180 0 0 0.337091 0.562587 L11.91 70.1 a0.327967 0.316443 -180 0 0
								 0.337092 1.42109E-14 a0.337077 0.325233 -180 0 0 0.163895 -0.281394 L12.42 61.51 ZM38.27 49.88 a0.209534
								 0.202172 -180 0 0 -0.255142 -2.84217E-14 C37.92 49.94 37.93 50.05 37.93 50.16 L37.93 58.41 C37.93
								 58.49 37.81 58.57 37.73 58.6 a0.309746 0.298863 0 0 1 -0.273391 1.56319E-13 L36.06 57.79 a0.683264
								 0.659257 -180 0 0 -0.674147 -1.13687E-13 L29.92 60.88 C29.71 60.99 29.7 61.2 29.7 61.44 L29.7 67.59
								 C29.7 67.82 29.7 68.03 29.92 68.16 L35.38 71.24 a0.619493 0.597726 -180 0 0 0.637719 -2.13163E-13
								 L41.38 68.16 C41.59 68.04 41.52 67.83 41.52 67.59 L41.52 52.26 C41.52 52.03 41.52 51.81 41.35 51.7
								 L38.27 49.88 ZM37.93 65.62 C37.93 65.68 37.81 65.73 37.76 65.76 L35.82 66.81 a0.209534 0.202172
								 0 0 1 -0.191445 9.9476E-14 L33.59 65.76 C33.53 65.7 33.37 65.7 33.37 65.62 L33.37 63.5 C33.37 63.44
								 33.53 63.38 33.58 63.36 L35.55 62.29 a0.227755 0.219752 0 0 1 0.200395 -1.42109E-14 L37.75 63.36
								 C37.81 63.36 37.94 63.44 37.94 63.5 L37.93 65.62 ZM56.36 63.58 a0.665043 0.641677 -180 0 0 0.337091
								 -0.562556 L56.69 61.52 a0.665043 0.641677 -180 0 0 -0.337091 -0.562587 L50.89 57.87 a0.665043 0.641677
								 -180 0 0 -0.674147 1.06581E-13 L44.68 60.96 a0.665043 0.641677 -180 0 0 -0.337088 0.562587 L44.34
								 67.67 a0.665043 0.641677 -180 0 0 0.337088 0.562556 L50.14 71.26 a0.665043 0.641677 -180 0 0 0.655934
								 7.10543E-14 L54.12 69.5 a0.337077 0.325233 -180 0 0 3.05533E-13 -0.562556 L48.55 65.85 a0.337077
								 0.325233 0 0 1 -0.163898 -0.281394 L48.38 63.64 a0.337077 0.325233 0 0 1 0.163898 -0.281394 L50.28
								 62.39 a0.337077 0.325233 0 0 1 0.337091 3.55271E-14 L52.36 63.36 a0.337077 0.325233 0 0 1 0.163898
								 0.281394 L52.52 65.16 a0.337077 0.325233 -180 0 0 0.501058 0.281394 L56.36 63.58 Z" class="st2"/>
				</g>
				<g id="shape1158-9" transform="translate(49.3046,-17.9768)">
					<title>path47</title>
					<path d="M1.13 68.75 a0.127543 0.123061 0 0 1 0.127398 0 L2.32 69.34 a0.127543 0.123061 0 0 1 0.0636991 0.105649
								 L2.39 70.63 a0.127543 0.123061 0 0 1 -0.0636991 0.105646 L1.26 71.33 a0.127543 0.123061 0 0 1 -0.127398
								 0 L0.06 70.74 a0.127543 0.123061 0 0 1 -0.0636991 -0.105646 L0 69.41 a0.127543 0.123061 0 0 1 0.0636991
								 -0.105313 L1.13 68.75 Z" class="st3"/>
				</g>
				<g id="shape1159-11" transform="translate(14.4216,-12.5808)">
					<title>_Clipping_Path_2</title>
					<path d="M6.47 57.86 a0.665043 0.641677 -180 0 0 -0.665021 7.10543E-15 L0.34 60.93 a0.665043 0.641677 -180 0
								 0 -0.337091 0.553784 L0 67.63 a0.665043 0.641677 -180 0 0 0.337091 0.553784 L5.8 71.26 a0.665043
								 0.641677 -180 0 0 0.665021 0 L11.93 68.19 a0.665043 0.641677 -180 0 0 0.337091 -0.553784 L12.27
								 61.48 a0.665043 0.641677 -180 0 0 -0.337091 -0.553784 L6.47 57.86 Z" class="st4"/>
				</g>
				<g id="group1160-15" transform="translate(14.4217,-12.5808)">
					<title>clip-path</title>
					<g id="shape1161-16">
						<title>_Clipping_Path_</title>
						<path d="M6.47 57.86 a0.665043 0.641677 -180 0 0 -0.665043 -7.10543E-15 L0.34 60.93 a0.665043 0.641677 -180
									 0 0 -0.337077 0.553776 L0 67.63 a0.665043 0.641677 -180 0 0 0.337077 0.553776 L5.8 71.26 a0.665043
									 0.641677 -180 0 0 0.665043 0 L11.93 68.19 a0.665043 0.641677 -180 0 0 0.337077 -0.553776 L12.27
									 61.48 a0.665043 0.641677 -180 0 0 -0.337077 -0.553776 L6.47 57.86 Z" class="st5"/>
					</g>
				</g>
			</g>
		</g>
	</g>
</svg>
