<?xml version="1.0" encoding="UTF-8" standalone="no"?>
<!DOCTYPE svg PUBLIC "-//W3C//DTD SVG 1.1//EN" "http://www.w3.org/Graphics/SVG/1.1/DTD/svg11.dtd">
<!-- Generated by Microsoft Visio, SVG Export Open Dataset.svg Page-1 -->
<svg xmlns="http://www.w3.org/2000/svg" xmlns:xlink="http://www.w3.org/1999/xlink" xmlns:ev="http://www.w3.org/2001/xml-events"
		width="0.944882in" height="1.17323in" viewBox="0 0 68.0315 84.4724" xml:space="preserve" color-interpolation-filters="sRGB"
		class="st9">
	<style type="text/css">
	<![CDATA[
		.st1 {fill:#0072c6;stroke:none;stroke-linecap:butt;stroke-width:0.75}
		.st2 {fill:#ffffff;fill-opacity:0.2;stroke:none;stroke-linecap:butt;stroke-width:0.75}
		.st3 {fill:#ffffff;stroke:none;stroke-linecap:butt;stroke-width:0.75}
		.st4 {fill:#b8d432;stroke:none;stroke-linecap:butt;stroke-width:0.75}
		.st5 {fill:#7fba00;stroke:none;stroke-linecap:butt;stroke-width:0.75}
		.st6 {fill:#3999c6;stroke:none;stroke-linecap:butt;stroke-width:0.75}
		.st7 {fill:#59b4d9;stroke:none;stroke-linecap:butt;stroke-width:0.75}
		.st8 {fill:#ffffff;fill-opacity:0.25;stroke:none;stroke-linecap:butt;stroke-width:0.75}
		.st9 {fill:none;fill-rule:evenodd;font-size:12px;overflow:visible;stroke-linecap:square;stroke-miterlimit:3}
	]]>
	</style>

	<g>
		<title>Page-1</title>
		<g id="group1129-1" transform="translate(5.66929,-28.3465)">
			<title>Open Dataset</title>
			<g id="shape1130-2">
				<title>Sheet.1130</title>
				<path d="M0 52.38 L0 79.71 C0 82.34 6.03 84.47 13.48 84.47 L13.5 84.47 L13.66 84.47 L13.66 84.47 C21.02 84.43 26.95
							 82.32 26.95 79.71 L26.95 52.38 L0 52.38 Z" class="st1"/>
			</g>
			<g id="shape1131-4" transform="translate(0,-0.00108792)">
				<title>Sheet.1131</title>
				<path d="M0 52.38 L0 79.64 C0 82.31 6.31 84.47 13.86 84.47 L13.86 52.38 L0 52.38 Z" class="st2"/>
			</g>
			<g id="shape1132-6" transform="translate(0.11231,-27.0523)">
				<title>Sheet.1132</title>
				<path d="M26.85 79.39 C26.85 82.01 20.84 84.47 13.42 84.47 C6.01 84.47 0 82.01 0 79.39 C0 76.77 6.01 74.64 13.42
							 74.64 C20.84 74.64 26.85 76.77 26.85 79.39 Z" class="st3"/>
			</g>
			<g id="shape1133-8" transform="translate(2.8347,-29.2739)">
				<title>Sheet.1133</title>
				<path d="M21.4 81.55 C21.4 83.17 16.61 84.47 10.7 84.47 C4.79 84.47 0 83.16 0 81.55 C0 79.94 4.79 78.63 10.7 78.63
							 C16.61 78.63 21.4 79.94 21.4 81.55 Z" class="st4"/>
			</g>
			<g id="shape1134-10" transform="translate(4.96971,-29.2739)">
				<title>Sheet.1134</title>
				<path d="M0 83.3 C1.95 84.01 5.06 84.47 8.57 84.47 C12.08 84.47 15.18 84.01 17.13 83.3 C15.18 82.58 12.08 82.12 8.57
							 82.12 C5.06 82.12 1.95 82.58 0 83.3 Z" class="st5"/>
			</g>
			<g id="shape1135-12" transform="translate(9.0971,-32.7465)">
				<title>Sheet.1135</title>
				<ellipse cx="4.38009" cy="80.2295" rx="4.38009" ry="4.2429" class="st6"/>
			</g>
			<g id="shape1136-14" transform="translate(18.0819,-42.5378)">
				<title>Sheet.1136</title>
				<ellipse cx="4.38009" cy="80.2295" rx="4.38009" ry="4.2429" class="st6"/>
			</g>
			<g id="shape1137-16" transform="translate(30.436,-42.5378)">
				<title>Sheet.1137</title>
				<ellipse cx="4.38009" cy="80.2295" rx="4.38009" ry="4.2429" class="st6"/>
			</g>
			<g id="shape1138-18" transform="translate(38.2977,-32.7465)">
				<title>Sheet.1138</title>
				<ellipse cx="4.38009" cy="80.2295" rx="4.38009" ry="4.2429" class="st6"/>
			</g>
			<g id="shape1139-20" transform="translate(28.6626,-1.08792)">
				<title>Sheet.1139</title>
				<path d="M27.09 81.43 L18.53 66.18 L18.53 60 L18.68 60 C19.71 60 20.54 59.15 20.54 58.09 C20.54 57.04 19.71 56.19
							 18.68 56.19 L9.35 56.19 C8.32 56.19 7.49 57.04 7.49 58.09 C7.49 59.15 8.32 60 9.35 60 L9.5 60 L9.5 66.18
							 L0.94 81.43 C0 83.1 0.77 84.47 2.65 84.47 L25.39 84.47 C27.26 84.47 28.03 83.1 27.09 81.43 Z"
						class="st7"/>
			</g>
			<g id="shape1140-22" transform="translate(33.1202,-4.40174)">
				<title>Sheet.1140</title>
				<path d="M3.53 78.18 L0 84.47 L19.12 84.47 L15.58 78.18 L3.53 78.18 Z" class="st4"/>
			</g>
			<g id="shape1141-24" transform="translate(44.4275,-5.89872)">
				<title>Sheet.1141</title>
				<ellipse cx="0.84794" cy="83.601" rx="0.84794" ry="0.871427" class="st5"/>
			</g>
			<g id="shape1142-26" transform="translate(28.6626,-1.08792)">
				<title>Sheet.1142</title>
				<path d="M0.94 81.43 L9.5 66.18 L9.5 60 L9.35 60 C8.32 60 7.49 59.15 7.49 58.09 C7.49 57.04 8.32 56.19 9.35 56.19
							 L13.37 56.19 L13.37 66.13 L8.86 84.47 L2.65 84.47 C0.77 84.47 0 83.1 0.94 81.43 Z" class="st8"/>
			</g>
		</g>
	</g>
</svg>
