<?xml version="1.0" encoding="UTF-8" standalone="no"?>
<!DOCTYPE svg PUBLIC "-//W3C//DTD SVG 1.1//EN" "http://www.w3.org/Graphics/SVG/1.1/DTD/svg11.dtd">
<!-- Generated by Microsoft Visio, SVG Export Openshift Cluster.svg Page-1 -->
<svg xmlns="http://www.w3.org/2000/svg" xmlns:xlink="http://www.w3.org/1999/xlink" xmlns:ev="http://www.w3.org/2001/xml-events"
		width="0.898075in" height="1.25984in" viewBox="0 0 64.6614 90.7087" xml:space="preserve" color-interpolation-filters="sRGB"
		class="st6">
	<style type="text/css">
	<![CDATA[
		.st1 {fill:#c32034;stroke:none;stroke-linecap:butt;stroke-width:3.06}
		.st2 {fill:#db212f;stroke:none;stroke-linecap:butt;stroke-width:3.06}
		.st3 {fill:#ea2227;stroke:none;stroke-linecap:butt;stroke-width:3.06}
		.st4 {fill:#ad213a;stroke:none;stroke-linecap:butt;stroke-width:3.06}
		.st5 {fill:#ba2034;stroke:none;stroke-linecap:butt;stroke-width:3.06}
		.st6 {fill:none;fill-rule:evenodd;font-size:12px;overflow:visible;stroke-linecap:square;stroke-miterlimit:3}
	]]>
	</style>

	<g>
		<title>Page-1</title>
		<g id="group1120-1" transform="translate(5.38583,-28.3465)">
			<title>Openshift Cluster</title>
			<g id="group1121-2">
				<title>Sheet.1121</title>
				<g id="shape1122-3" transform="translate(6.97867,-23.5579)">
					<title>Sheet.1122</title>
					<path d="M8.65 83.38 L0 86.56 C0.11 87.98 0.33 89.36 0.71 90.71 L8.91 87.72 C8.65 86.22 8.54 84.8 8.65 83.38
								 ZM46.88 73.73 C46.29 72.49 45.58 71.26 44.8 70.14 L36.15 73.32 C37.15 74.36 38.01 75.52 38.71 76.75
								 C38.68 76.72 46.88 73.73 46.88 73.73 Z" class="st1"/>
				</g>
				<g id="shape1123-5" transform="translate(3.09957,-26.4138)">
					<title>Sheet.1123</title>
					<path d="M31.74 74.11 C33.52 74.93 35.08 76.13 36.42 77.48 L45.06 74.3 C42.69 70.93 39.38 68.09 35.41 66.22 C23.05
								 60.43 8.32 65.81 2.56 78.26 C0.71 82.3 0 86.56 0.33 90.71 L8.98 87.53 C9.13 85.62 9.58 83.76 10.43
								 81.92 C14.14 73.85 23.68 70.37 31.74 74.11 Z" class="st2"/>
				</g>
				<g id="shape1124-7" transform="translate(0,-12.3733)">
					<title>Sheet.1124</title>
					<path d="M8.2 79.27 L0 82.26 C0.74 85.25 2.08 88.13 3.86 90.71 L12.47 87.53 C10.28 85.25 8.8 82.37 8.2 79.27 Z"
							class="st3"/>
				</g>
				<g id="shape1125-9" transform="translate(7.98093,0)">
					<title>Sheet.1125</title>
					<path d="M36.08 63.61 C35.93 65.51 35.45 67.38 34.63 69.21 C30.88 77.29 21.31 80.84 13.29 77.03 C11.51 76.2 9.95
								 75.01 8.61 73.66 L0 76.84 C2.38 80.2 5.64 83.05 9.65 84.91 C22.01 90.71 36.75 85.33 42.5 72.88 C44.36
								 68.84 45.06 64.58 44.73 60.43 L36.08 63.61 Z" class="st2"/>
				</g>
				<g id="shape1126-11" transform="translate(37.9855,-25.6326)">
					<title>Sheet.1126</title>
					<path d="M8.2 78.6 L0 81.59 C1.52 84.35 2.26 87.53 2 90.71 L10.62 87.53 C10.39 84.47 9.54 81.44 8.2 78.6 Z"
							class="st3"/>
				</g>
				<g id="shape1127-13" transform="translate(7.00094,-26.0512)">
					<title>Sheet.1127</title>
					<path d="M0 89.03 L8.61 85.89 L8.57 87.61 L0.26 90.71 L0 89.03 ZM36.12 75.76 L44.88 72.77 L45.81 74.11 L37.31
								 77.1 C37.27 77.14 36.12 75.76 36.12 75.76 Z" class="st4"/>
				</g>
				<g id="shape1128-15" transform="translate(7.93638,-11.192)">
					<title>Sheet.1128</title>
					<path d="M0 88.02 L8.61 84.91 L11.21 87.34 L2.15 90.71 C2.19 90.71 0 88.02 0 88.02 ZM44.89 71.69 L36.13 74.83
								 L35.5 78.31 L44.86 75.02 C44.82 74.98 44.89 71.69 44.89 71.69 Z" class="st5"/>
				</g>
			</g>
		</g>
	</g>
</svg>
