<?xml version="1.0" encoding="UTF-8" standalone="no"?>
<!DOCTYPE svg PUBLIC "-//W3C//DTD SVG 1.1//EN" "http://www.w3.org/Graphics/SVG/1.1/DTD/svg11.dtd">
<!-- Generated by Microsoft Visio, SVG Export Organisational Relationship.svg Page-1 -->
<svg xmlns="http://www.w3.org/2000/svg" xmlns:xlink="http://www.w3.org/1999/xlink" xmlns:ev="http://www.w3.org/2001/xml-events"
		width="1.63333in" height="1.71207in" viewBox="0 0 117.6 123.269" xml:space="preserve" color-interpolation-filters="sRGB"
		class="st6">
	<style type="text/css">
	<![CDATA[
		.st1 {fill:#59b4d9;stroke:none;stroke-linecap:butt;stroke-width:33.288}
		.st2 {fill:#ffffff;stroke:none;stroke-linecap:butt;stroke-width:33.288}
		.st3 {fill:#0072c6}
		.st4 {stroke:none;stroke-linecap:butt;stroke-width:33.288}
		.st5 {fill:#ff8c00;stroke:none;stroke-linecap:butt;stroke-width:33.288}
		.st6 {fill:none;fill-rule:evenodd;font-size:12px;overflow:visible;stroke-linecap:square;stroke-miterlimit:3}
	]]>
	</style>

	<g>
		<title>Page-1</title>
		<g id="group1106-1" transform="translate(33.2881,-33.288)">
			<title>Organisational Relationship</title>
			<g id="group1107-2">
				<title> organizationalRelationships</title>
				<g id="shape1108-3" transform="translate(30.6419,-12.5546)">
					<title>path6</title>
					<path d="M20.38 120.9 A2.29239 2.34142 0 0 1 18.07 123.27 L2.31 123.27 A2.29239 2.34142 0 0 1 0 120.9 L0 94.41
								 A2.29239 2.34142 0 0 1 2.31 92.04 L17.97 92.04 A2.29239 2.34142 0 0 1 20.29 94.41 L20.29 120.9 L20.38
								 120.9 Z" class="st1"/>
				</g>
				<g id="shape1109-5" transform="translate(34.3469,-22.0167)">
					<title>path8</title>
					<path d="M0 106.24 L5.56 106.24 L5.56 112.86 L0 112.86 L0 106.24 ZM7.41 106.24 L12.97 106.24 L12.97 112.86 L7.41
								 112.86 L7.41 106.24 ZM0 116.64 L5.56 116.64 L5.56 123.27 L0 123.27 L0 116.64 ZM7.41 116.64 L12.97
								 116.64 L12.97 123.27 L7.41 123.27 L7.41 116.64 Z" class="st2"/>
				</g>
				<g id="shape1110-7" transform="translate(0,-12.5546)">
					<title>path10</title>
					<path d="M20.38 120.9 A2.29239 2.34142 0 0 1 18.07 123.27 L2.32 123.27 A2.29239 2.34142 0 0 1 0 120.9 L0 94.41
								 A2.29239 2.34142 0 0 1 2.32 92.04 L17.97 92.04 A2.29239 2.34142 0 0 1 20.29 94.41 L20.38 120.9 Z"
							class="st3"/>
					<path d="M20.38 120.9 A2.29239 2.34142 0 0 1 18.07 123.27 L2.32 123.27 A2.29239 2.34142 0 0 1 0 120.9 L0 94.41
								 A2.29239 2.34142 0 0 1 2.32 92.04 L17.97 92.04 A2.29239 2.34142 0 0 1 20.29 94.41" class="st4"/>
				</g>
				<g id="shape1111-10" transform="translate(3.70501,-22.0167)">
					<title>path12</title>
					<path d="M0 106.24 L5.56 106.24 L5.56 112.86 L0 112.86 L0 106.24 ZM7.41 106.24 L12.97 106.24 L12.97 112.86 L7.41
								 112.86 L7.41 106.24 ZM0 116.64 L5.56 116.64 L5.56 123.27 L0 123.27 L0 116.64 ZM7.41 116.64 L12.97
								 116.64 L12.97 123.27 L7.41 123.27 L7.41 116.64 Z" class="st1"/>
				</g>
				<g id="shape1112-12" transform="translate(14.0679,1.42109E-14)">
					<title>path14</title>
					<path d="M11.91 123.27 A11.4897 11.7354 -180 0 0 23.32 112.65 L19.9 112.65 A8.0178 8.18929 0 0 1 11.97 119.83
								 A7.70697 7.87181 0 0 1 5.78 116.69 L9.55 112.6 L0 112.6 L0 122.97 L3.44 119.23 A10.9901 11.2252
								 -180 0 0 11.91 123.27 ZM11.41 70.01 A7.69864 7.86331 0 0 1 17.59 73.16 L13.83 77.25 L23.37 77.25
								 L23.37 66.87 L19.93 70.61 A11.0096 11.245 -180 0 0 11.46 66.58 A11.4869 11.7326 -180 0 0 0.06 77.25
								 L3.47 77.25 A8.01502 8.18646 0 0 1 11.41 70.01 Z" class="st5"/>
				</g>
			</g>
		</g>
	</g>
</svg>
