<?xml version="1.0" encoding="UTF-8" standalone="no"?>
<!DOCTYPE svg PUBLIC "-//W3C//DTD SVG 1.1//EN" "http://www.w3.org/Graphics/SVG/1.1/DTD/svg11.dtd">
<!-- Generated by Microsoft Visio, SVG Export Peering Service.svg Page-1 -->
<svg xmlns="http://www.w3.org/2000/svg" xmlns:xlink="http://www.w3.org/1999/xlink" xmlns:ev="http://www.w3.org/2001/xml-events"
		width="1.1274in" height="1.3511in" viewBox="0 0 81.1729 97.2794" xml:space="preserve" color-interpolation-filters="sRGB"
		class="st7">
	<style type="text/css">
	<![CDATA[
		.st1 {fill:#59b4d9;stroke:none;stroke-linecap:butt;stroke-width:12.24}
		.st2 {fill:#ffffff;fill-opacity:0.8;stroke:none;stroke-linecap:butt;stroke-width:12.24}
		.st3 {fill:#0072c6;stroke:none;stroke-linecap:butt;stroke-width:12.24}
		.st4 {fill:#3999c6;stroke:none;stroke-linecap:butt;stroke-width:12.24}
		.st5 {fill:#ffffff;stroke:none;stroke-linecap:butt;stroke-width:12.24}
		.st6 {fill:#804998;stroke:none;stroke-linecap:butt;stroke-width:12.24}
		.st7 {fill:none;fill-rule:evenodd;font-size:12px;overflow:visible;stroke-linecap:square;stroke-miterlimit:3}
	]]>
	</style>

	<g>
		<title>Page-1</title>
		<g id="group1088-1" transform="translate(12.24,-28.3465)">
			<title>Peering Service</title>
			<g id="group1089-2">
				<title>Sheet.1089</title>
				<g id="shape1090-3" transform="translate(0,-18.1321)">
					<title>Sheet.1090</title>
					<path d="M47.18 74.53 C47.22 74.08 47.24 73.64 47.24 73.18 C47.24 65.19 40.9 58.72 33.07 58.72 C27 58.72 21.84
								 62.61 19.82 68.08 A14.6865 14.9686 -180 0 0 14.76 67.15 C6.61 67.15 0 73.9 0 82.22 C0 90.54 6.61
								 97.28 14.76 97.28 L45.47 97.28 C51.67 97.28 56.69 92.15 56.69 85.83 C56.69 80.1 52.56 75.37 47.18
								 74.53 Z" class="st1"/>
				</g>
				<g id="shape1091-5" transform="translate(12.9276,-1.2088)">
					<title>Sheet.1091</title>
					<path d="M15.42 65.85 C6.9 65.85 0 72.89 0 81.56 C0 90.24 6.9 97.28 15.42 97.28 C23.93 97.28 30.84 90.24 30.84
								 81.56 C30.84 72.89 23.93 65.85 15.42 65.85 Z" class="st1"/>
				</g>
				<g id="shape1092-7" transform="translate(12.9276,-1.2088)">
					<title>Sheet.1092</title>
					<path d="M15.42 65.85 C6.9 65.85 0 72.89 0 81.56 C0 90.24 6.9 97.28 15.42 97.28 C23.93 97.28 30.84 90.24 30.84
								 81.56 C30.84 72.89 23.93 65.85 15.42 65.85 Z" class="st2"/>
				</g>
				<g id="shape1093-9" transform="translate(11.7416,-2.84217E-13)">
					<title>Sheet.1093</title>
					<path d="M16.6 63.43 C7.43 63.43 0 71.01 0 80.36 C0 89.7 7.43 97.28 16.6 97.28 C25.77 97.28 33.21 89.7 33.21
								 80.36 C33.21 71.01 25.77 63.43 16.6 63.43 ZM16.6 95.02 C8.67 95.02 2.21 88.44 2.21 80.36 C2.21 72.27
								 8.67 65.69 16.6 65.69 C24.54 65.69 31 72.27 31 80.36 C31 88.44 24.54 95.02 16.6 95.02 Z"
							class="st3"/>
				</g>
				<g id="shape1094-11" transform="translate(20.6711,-1.27891)">
					<title>Sheet.1094</title>
					<path d="M7.67 65.99 C3.44 65.99 0 72.99 0 81.64 C0 90.28 3.44 97.28 7.67 97.28 C11.91 97.28 15.35 90.28 15.35
								 81.64 C15.35 72.99 11.91 65.99 7.67 65.99 ZM7.67 95.74 C5.02 95.74 2.07 89.94 2.07 81.64 C2.07 73.33
								 5.02 67.53 7.67 67.53 C10.33 67.53 13.28 73.33 13.28 81.64 C13.28 89.94 10.33 95.74 7.67 95.74 Z"
							class="st3"/>
				</g>
				<g id="shape1095-13" transform="translate(13.1862,-6.20721)">
					<title>Sheet.1095</title>
					<path d="M0 85.51 L30.32 85.51 L30.32 87.62 L0 87.62 L0 85.51 ZM27.54 76.6 C24.89 78.19 20.52 79.38 15.16 79.38
								 C9.8 79.38 5.43 78.19 2.78 76.6 C2.48 76.98 2.05 78.35 1.92 78.54 C4.96 80.4 9.76 81.6 15.16 81.6
								 C20.56 81.6 25.36 80.4 28.39 78.54 C28.27 78.35 27.84 76.98 27.54 76.6 ZM28.39 95.34 C25.36 93.48
								 20.56 92.28 15.16 92.28 C9.76 92.28 4.96 93.48 1.92 95.34 C2.05 95.53 2.48 96.9 2.78 97.28 C5.43
								 95.69 9.8 94.5 15.16 94.5 C20.52 94.5 24.89 95.69 27.54 97.28 C27.84 96.9 28.27 95.53 28.39 95.34
								 Z" class="st3"/>
				</g>
				<g id="shape1096-15" transform="translate(7.55376,-23.5475)">
					<title>Sheet.1096</title>
					<path d="M6.24 97.28 C2.23 94.32 0.18 90.18 0.12 86.16 C0 78.04 8.43 71.33 8.79 71.04 L11.69 74.87 C9.76 76.39
								 4.79 81.38 4.86 86.1 C4.9 88.54 6.26 91.33 9.02 93.37 L6.24 97.28 Z" class="st4"/>
				</g>
				<g id="shape1097-17" transform="translate(8.74808,-24.5266)">
					<title>Sheet.1097</title>
					<path d="M5.74 97.28 C2.06 94.56 0.16 90.74 0.11 87.12 C0 79.6 7.98 73.25 8.32 72.98 L9.77 74.89 C9.69 74.95
								 2.39 80.79 2.48 87.09 C2.52 89.9 4.09 93.08 7.13 95.32 L5.74 97.28 Z" class="st5"/>
				</g>
				<g id="shape1098-19" transform="translate(13.0462,-43.6378)">
					<title>Sheet.1098</title>
					<ellipse cx="4.62548" cy="92.565" rx="4.62548" ry="4.71434" class="st4"/>
				</g>
				<g id="shape1099-21" transform="translate(14.2322,-44.8466)">
					<title>Sheet.1099</title>
					<ellipse cx="3.43946" cy="93.7738" rx="3.43946" ry="3.50553" class="st5"/>
				</g>
				<g id="shape1100-23" transform="translate(34.1004,-14.6737)">
					<title>Sheet.1100</title>
					<path d="M2.25 97.28 L0 93.02 C13.97 85.36 12.09 73.82 12.07 73.7 L16.74 72.84 C16.85 73.45 19.23 87.97 2.25
								 97.28 Z" class="st4"/>
				</g>
				<g id="shape1101-25" transform="translate(34.6638,-15.7386)">
					<title>Sheet.1101</title>
					<path d="M1.12 97.28 L0 95.15 C14.73 87.08 12.7 74.67 12.68 74.55 L15.01 74.12 C15.04 74.26 17.35 88.38 1.12
								 97.28 Z" class="st5"/>
				</g>
				<g id="shape1102-27" transform="translate(11.7416,-22.0002)">
					<title>Sheet.1102</title>
					<ellipse cx="3.43946" cy="93.7738" rx="3.43946" ry="3.50553" class="st6"/>
				</g>
				<g id="shape1103-29" transform="translate(43.8827,-35.1774)">
					<title>Sheet.1103</title>
					<path d="M4.63 97.28 C2.08 97.28 0 95.17 0 92.57 C0 89.97 2.08 87.85 4.63 87.85 C7.18 87.85 9.25 89.97 9.25 92.57
								 C9.25 95.17 7.18 97.28 4.63 97.28 Z" class="st4"/>
				</g>
				<g id="shape1104-31" transform="translate(45.0687,-36.385)">
					<title>Sheet.1104</title>
					<ellipse cx="3.43946" cy="93.7738" rx="3.43946" ry="3.50553" class="st5"/>
				</g>
				<g id="shape1105-33" transform="translate(31.9039,-13.2968)">
					<title>Sheet.1105</title>
					<ellipse cx="3.43946" cy="93.7738" rx="3.43946" ry="3.50553" class="st6"/>
				</g>
			</g>
		</g>
	</g>
</svg>
