<?xml version="1.0" encoding="UTF-8" standalone="no"?>
<!DOCTYPE svg PUBLIC "-//W3C//DTD SVG 1.1//EN" "http://www.w3.org/Graphics/SVG/1.1/DTD/svg11.dtd">
<!-- Generated by Microsoft Visio, SVG Export Performance Diagnostics.svg Page-1 -->
<svg xmlns="http://www.w3.org/2000/svg" xmlns:xlink="http://www.w3.org/1999/xlink" xmlns:ev="http://www.w3.org/2001/xml-events"
		width="1.14065in" height="1.3511in" viewBox="0 0 82.1266 97.2794" xml:space="preserve" color-interpolation-filters="sRGB"
		class="st13">
	<style type="text/css">
	<![CDATA[
		.st1 {fill:#7a7a7a;stroke:none;stroke-linecap:butt;stroke-width:12.24}
		.st2 {fill:#a0a1a2;stroke:none;stroke-linecap:butt;stroke-width:12.24}
		.st3 {fill:#ffffff;fill-opacity:0.2;stroke:none;stroke-linecap:butt;stroke-width:12.24}
		.st4 {fill:#59b4d9;stroke:none;stroke-linecap:butt;stroke-width:12.24}
		.st5 {fill:#b8d432;stroke:none;stroke-linecap:butt;stroke-width:12.24}
		.st6 {fill:#ffffff;stroke:none;stroke-linecap:butt;stroke-width:12.24}
		.st7 {fill:#ffffff;fill-opacity:0.7;stroke:none;stroke-linecap:butt;stroke-width:12.24}
		.st8 {fill:#ffffff;fill-opacity:0.4;stroke:none;stroke-linecap:butt;stroke-width:12.24}
		.st9 {fill:#000000;stroke:none;stroke-linecap:butt;stroke-width:12.24}
		.st10 {fill:#000000;fill-opacity:0.4;stroke:none;stroke-linecap:butt;stroke-width:12.24}
		.st11 {fill:#000000;fill-opacity:0.2;stroke:none;stroke-linecap:butt;stroke-width:12.24}
		.st12 {fill:#57a300;stroke:none;stroke-linecap:butt;stroke-width:12.24}
		.st13 {fill:none;fill-rule:evenodd;font-size:12px;overflow:visible;stroke-linecap:square;stroke-miterlimit:3}
	]]>
	</style>

	<g>
		<title>Page-1</title>
		<g id="group1071-1" transform="translate(12.24,-28.3465)">
			<title>Performance Diagnostics</title>
			<g id="group1072-2">
				<title>g64</title>
				<g id="shape1073-3" transform="translate(8.08859,-15.1046)">
					<title>path4</title>
					<path d="M8.15 88.04 C9.67 93.58 8.88 94.82 0 94.82 L0 97.28 L30.03 97.28 L30.03 94.82 C21.15 94.82 19.21 93.58
								 20.72 88.04 L8.15 88.04 Z" class="st1"/>
				</g>
				<g id="shape1074-5" transform="translate(0,-24.3476)">
					<title>path6</title>
					<path d="M2.79 64.93 C1.41 64.93 0 66.12 0 67.45 L0 94.78 C0 96.1 1.4 97.28 2.79 97.28 L43.7 97.28 C45.09 97.28
								 46.21 96.1 46.21 94.78 L46.21 67.45 C46.21 66.13 45.09 64.93 43.7 64.93 L2.79 64.93 Z" class="st2"/>
				</g>
				<g id="shape1075-7" transform="translate(0.00231037,-24.3465)">
					<title>path8</title>
					<path d="M43.45 64.94 L43.42 64.93 L2.51 64.93 C1.12 64.93 0 66.12 0 67.45 L0 94.78 C0 96.1 1.12 97.28 2.51 97.28
								 L3.48 97.28 L43.45 64.94 Z" class="st3"/>
				</g>
				<g id="shape1076-9" transform="translate(3.46786,-27.8122)">
					<title>path10</title>
					<rect x="0" y="71.8643" width="39.2762" height="25.4151" class="st4"/>
				</g>
				<g id="shape1077-11" transform="translate(8.08744,-15.1046)">
					<title>path12</title>
					<path d="M0 94.97 L30.03 94.97 L30.03 97.28 L0 97.28 L0 94.97 Z" class="st2"/>
				</g>
				<g id="shape1078-13" transform="translate(22.6277,-54.1653)">
					<title>path14</title>
					<path d="M0 96.64 a0.646902 0.646929 0 0 1 0.656144 -0.639997 a0.646902 0.646929 0 0 1 0.654989 0.639997 a0.646902
								 0.646929 0 0 1 -0.654989 0.639997 a0.646902 0.646929 0 0 1 -0.656144 -0.639997 Z" class="st5"/>
				</g>
				<g id="shape1079-15" transform="translate(14.9818,-41.5594)">
					<title>path16</title>
					<path d="M8.1 97.28 a0.256451 0.256461 0 0 1 -0.121294 -0.0323464 L0.12 92.87 a0.227571 0.22758 0 0 1 -4.1217E-15
								 -0.39971 L8.03 88.07 a0.246054 0.246064 0 0 1 0.236813 -1.42109E-14 L16.13 92.44 a0.232192 0.232201
								 0 0 1 0.118984 0.199855 C16.25 92.72 16.2 92.8 16.13 92.84 L8.22 97.25 a0.25414 0.254151 0 0 1 -0.120139
								 0.0335017 Z" class="st6"/>
				</g>
				<g id="shape1080-17" transform="translate(24.2612,-30.4368)">
					<title>path18</title>
					<path d="M0.23 97.28 a0.231037 0.231046 0 0 1 -0.228726 -0.234512 L0 88.14 C0 88.05 0.05 87.98 0.11 87.93 L7.74
								 83.5 a0.226416 0.226425 0 0 1 0.232192 0 a0.229881 0.229891 0 0 1 0.117829 0.202165 L8.09 92.61
								 C8.09 92.69 8.04 92.77 7.97 92.81 L0.35 97.25 a0.219485 0.219494 0 0 1 -0.116673 0.0311912 Z"
							class="st7"/>
				</g>
				<g id="shape1081-19" transform="translate(13.8645,-30.4368)">
					<title>path20</title>
					<path d="M7.85 97.28 a0.201002 0.20101 0 0 1 -0.110898 -0.0311912 L0.12 92.81 a0.227571 0.22758 0 0 1 -0.117829
								 -0.202165 L0 83.76 a0.232192 0.232201 0 0 1 0.346555 -0.202165 L7.97 87.99 a0.241433 0.241443 0
								 0 1 0.112053 0.202165 L8.09 97.05 a0.237968 0.237977 0 0 1 -0.112053 0.202165 a0.25183 0.25184 0
								 0 1 -0.120139 0.0311912 Z" class="st8"/>
				</g>
				<g id="shape1082-21" transform="translate(40.5204,-2.84217E-13)">
					<title>path22</title>
					<path d="M0 85.73 L11.55 97.28 L11.55 97.28 A3.26408 3.26422 -180 0 0 16.17 92.66 L16.17 92.66 L4.62 81.11 L0
								 85.73 Z" class="st9"/>
				</g>
				<g id="shape1083-23" transform="translate(42.0336,-7.01802)">
					<title>path24</title>
					<path d="M4.62 89.64 L0 94.26 L3.02 97.28 A16.1841 16.1848 -180 0 0 7.64 92.66 L4.62 89.64 Z" class="st10"/>
				</g>
				<g id="shape1084-25" transform="translate(20.7956,-10.4837)">
					<title>circle26</title>
					<ellipse cx="12.707" cy="84.5718" rx="12.707" ry="12.7075" class="st6"/>
				</g>
				<g id="shape1085-27" transform="translate(20.2065,-12.7942)">
					<title>path28</title>
					<path d="M4.62 90.91 C4.62 83.4 9.85 78.21 17.33 78.21 C19.65 78.21 21.82 78.84 23.69 79.93 C21.49 76.14 17.4
								 73.59 12.71 73.59 C5.69 73.59 0 79.28 0 86.29 C0 90.99 2.55 95.08 6.34 97.28 A12.6285 12.629 0 0
								 1 4.62 90.91 Z" class="st11"/>
				</g>
				<g id="shape1086-29" transform="translate(17.4456,-7.13355)">
					<title>path30</title>
					<path d="M16.06 65.16 C7.19 65.16 0 72.35 0 81.22 C0 90.09 7.19 97.28 16.06 97.28 C24.93 97.28 32.11 90.09 32.11
								 81.22 C32.11 72.35 24.93 65.16 16.06 65.16 ZM16.06 93.12 C9.49 93.12 4.16 87.79 4.16 81.22 C4.16
								 74.65 9.49 69.32 16.06 69.32 C22.63 69.32 27.96 74.65 27.96 81.22 C27.96 87.79 22.63 93.12 16.06
								 93.12 Z" class="st9"/>
				</g>
				<g id="shape1087-31" transform="translate(25.4163,-17.4151)">
					<title>path32</title>
					<path d="M0 88.04 L3.47 88.04 L3.47 97.28 L0 97.28 L0 88.04 ZM5.78 90.35 L9.24 90.35 L9.24 97.28 L5.78 97.28
								 L5.78 90.35 ZM11.55 84.57 L15.02 84.57 L15.02 97.28 L11.55 97.28 L11.55 84.57 Z" class="st12"/>
				</g>
			</g>
		</g>
	</g>
</svg>
