<?xml version="1.0" encoding="UTF-8" standalone="no"?>
<!DOCTYPE svg PUBLIC "-//W3C//DTD SVG 1.1//EN" "http://www.w3.org/Graphics/SVG/1.1/DTD/svg11.dtd">
<!-- Generated by Microsoft Visio, SVG Export Playbooks.svg Page-1 -->
<svg xmlns="http://www.w3.org/2000/svg" xmlns:xlink="http://www.w3.org/1999/xlink" xmlns:ev="http://www.w3.org/2001/xml-events"
		width="1.1274in" height="1.19362in" viewBox="0 0 81.1729 85.9408" xml:space="preserve" color-interpolation-filters="sRGB"
		class="st4">
	<style type="text/css">
	<![CDATA[
		.st1 {fill:#59b4d9;stroke:none;stroke-linecap:butt;stroke-width:12.24}
		.st2 {fill:#57a300;stroke:none;stroke-linecap:butt;stroke-width:12.24}
		.st3 {fill:#0072c6;stroke:none;stroke-linecap:butt;stroke-width:12.24}
		.st4 {fill:none;fill-rule:evenodd;font-size:12px;overflow:visible;stroke-linecap:square;stroke-miterlimit:3}
	]]>
	</style>

	<g>
		<title>Page-1</title>
		<g id="group1050-1" transform="translate(12.24,-28.3465)">
			<title>Playbooks</title>
			<g id="group1051-2">
				<title>g18</title>
				<g id="shape1052-3" transform="translate(15.9874,-11.8062)">
					<title>path4</title>
					<path d="M13.49 70.74 L13.49 64.9 L10.66 64.9 L10.66 70.74 C10.66 71.8 9.75 72.73 8.28 73.2 L4.42 74.02 C1.81
								 74.84 0 76.94 0 79.28 L0 85.94 L2.83 85.94 L2.83 79.28 C2.83 78.23 3.74 77.29 5.22 76.82 L9.07 75.89
								 C11.68 75.19 13.49 73.08 13.49 70.74 Z" class="st1"/>
				</g>
				<g id="shape1053-5" transform="translate(12.4724,-6.42909)">
					<title>path6</title>
					<path d="M9.75 83.6 L9.75 78.23 C9.75 76.94 8.73 75.89 7.48 75.89 L2.27 75.89 C1.02 75.89 0 76.94 0 78.23 L0
								 83.6 C0 84.89 1.02 85.94 2.27 85.94 L7.48 85.94 C8.73 85.94 9.75 84.89 9.75 83.6 Z" class="st2"/>
				</g>
				<g id="shape1054-7" transform="translate(26.3055,-11.5724)">
					<title>path8</title>
					<path d="M0 70.51 L0 64.67 L2.83 64.67 L2.83 70.51 C2.83 71.56 3.74 72.5 5.22 72.97 L9.98 74.02 C12.59 74.84
								 14.4 76.94 14.4 79.28 L14.4 85.94 L11.57 85.94 L11.57 79.28 C11.57 78.23 10.66 77.29 9.18 76.82
								 L4.42 75.77 C1.81 74.95 0 72.85 0 70.51 Z" class="st1"/>
				</g>
				<g id="shape1055-9" transform="translate(34.4693,-6.19531)">
					<title>path10</title>
					<path d="M0 83.6 L0 78.23 C0 76.94 1.02 75.89 2.27 75.89 L7.48 75.89 C8.73 75.89 9.75 76.94 9.75 78.23 L9.75
								 83.6 C9.75 84.89 8.73 85.94 7.48 85.94 L2.27 85.94 C1.02 85.94 0 84.89 0 83.6 Z" class="st2"/>
				</g>
				<g id="shape1056-11" transform="translate(26.3055,-27.236)">
					<title>path12</title>
					<rect x="0" y="80.3299" width="3.1748" height="5.61085" class="st1"/>
				</g>
				<g id="shape1057-13" transform="translate(22.6772,-30.6259)">
					<title>path14</title>
					<path d="M7.37 78.34 L7.37 82.67 L3.17 82.67 L3.17 78.34 L7.37 78.34 ZM8.28 75.07 L2.27 75.07 C1.02 75.07 0 76.12
								 0 77.41 L0 83.6 C0 84.89 1.02 85.94 2.27 85.94 L8.28 85.94 C9.52 85.94 10.54 84.89 10.54 83.6 L10.54
								 77.41 C10.54 76.12 9.52 75.07 8.28 75.07 Z" class="st3"/>
				</g>
				<g id="shape1058-15">
					<title>path16</title>
					<path d="M8.96 85.94 C6.58 85.94 4.88 85.47 3.86 84.65 C2.83 83.72 2.38 82.2 2.38 79.98 L2.38 67.82 C2.38 65.84
								 1.59 64.78 0 64.78 L0 61.74 C1.59 61.74 2.38 60.69 2.38 58.59 L2.38 46.66 C2.38 44.44 2.83 42.81
								 3.86 41.87 C4.88 40.94 6.58 40.59 8.96 40.59 L8.96 43.63 C7.26 43.63 6.35 44.56 6.35 46.55 L6.35
								 58.24 C6.35 60.93 5.56 62.56 3.86 63.26 C5.44 63.96 6.35 65.6 6.35 68.29 L6.35 79.86 C6.35 80.91
								 6.58 81.73 6.92 82.2 C7.37 82.67 7.94 82.9 8.84 82.9 L8.96 85.94 C8.84 85.94 8.96 85.94 8.96 85.94
								 ZM47.74 40.59 C50.12 40.59 51.82 41.05 52.84 41.87 C53.86 42.81 54.31 44.33 54.31 46.55 L54.31 58.7
								 C54.31 60.69 55.11 61.74 56.69 61.74 L56.69 64.78 C55.11 64.78 54.31 65.84 54.31 67.94 L54.31 79.75
								 C54.31 81.97 53.86 83.6 52.84 84.54 C51.82 85.47 50.12 85.94 47.74 85.94 L47.74 82.9 C49.44 82.9
								 50.34 81.97 50.34 79.98 L50.34 68.29 C50.34 65.6 51.14 63.96 52.84 63.26 C51.25 62.56 50.34 60.93
								 50.34 58.24 L50.34 46.66 C50.34 45.61 50.12 44.79 49.78 44.33 C49.32 43.86 48.76 43.63 47.85 43.63
								 L47.74 40.59 Z" class="st1"/>
				</g>
			</g>
		</g>
	</g>
</svg>
