<?xml version="1.0" encoding="UTF-8" standalone="no"?>
<!DOCTYPE svg PUBLIC "-//W3C//DTD SVG 1.1//EN" "http://www.w3.org/Graphics/SVG/1.1/DTD/svg11.dtd">
<!-- Generated by Microsoft Visio, SVG Export Power BI Embedded.svg Page-1 -->
<svg xmlns="http://www.w3.org/2000/svg" xmlns:xlink="http://www.w3.org/1999/xlink" xmlns:ev="http://www.w3.org/2001/xml-events"
		width="1.2124in" height="1.3936in" viewBox="0 0 87.2929 100.339" xml:space="preserve" color-interpolation-filters="sRGB"
		class="st3">
	<style type="text/css">
	<![CDATA[
		.st1 {fill:#f2c811;stroke:none;stroke-linecap:butt;stroke-width:15.3}
		.st2 {fill:#212121;stroke:none;stroke-linecap:butt;stroke-width:15.3}
		.st3 {fill:none;fill-rule:evenodd;font-size:12px;overflow:visible;stroke-linecap:square;stroke-miterlimit:3}
	]]>
	</style>

	<g>
		<title>Page-1</title>
		<g id="group1035-1" transform="translate(15.3,-28.3465)">
			<title>Power BI Embedded</title>
			<g id="group1036-2">
				<title> power_bi_embedded</title>
				<g id="group1037-3">
					<title>Sheet.1037</title>
					<g id="shape1038-4">
						<title>Sheet.1038</title>
						<rect x="0" y="43.6465" width="56.6929" height="56.6929" class="st1"/>
					</g>
					<g id="shape1039-6" transform="translate(11.3386,-15.6076)">
						<title>Sheet.1039</title>
						<path d="M30.03 96.92 L29.35 96.92 L29.35 95.54 L30.03 95.54 C30.39 95.54 30.74 95.47 31.05 95.33 A2.69291
									 2.69291 -180 0 0 32.45 93.94 C32.58 93.62 32.65 93.28 32.65 92.92 L32.65 78.9 C32.65 78.53 32.58
									 78.19 32.45 77.87 A2.66457 2.66457 -180 0 0 31.05 76.46 A2.51433 2.51433 -180 0 0 30.03 76.26
									 L4.04 76.26 C3.67 76.26 3.33 76.33 3.01 76.46 A2.66457 2.66457 -180 0 0 2.17 77.03 A2.66457
									 2.66457 -180 0 0 1.6 77.87 A2.57386 2.57386 -180 0 0 1.39 78.9 L1.39 92.92 C1.39 93.28 1.47
									 93.62 1.6 93.94 A2.66457 2.66457 -180 0 0 3.01 95.33 C3.33 95.47 3.67 95.54 4.04 95.54 L4.72
									 95.54 L4.72 96.92 L4.04 96.92 A4.04787 4.04787 0 0 1 0.32 94.47 A3.83669 3.83669 0 0 1 0 92.92
									 L0 78.9 C0 78.34 0.1 77.82 0.32 77.34 A4.04787 4.04787 0 0 1 4.04 74.88 L30.03 74.88 A3.97559
									 3.97559 0 0 1 32.85 76.06 A4.11024 4.11024 0 0 1 33.7 77.34 C33.91 77.82 34.02 78.34 34.02 78.9
									 L34.02 92.92 C34.02 93.47 33.91 93.99 33.7 94.47 A4.1811 4.1811 0 0 1 32.85 95.74 A3.97559 3.97559
									 0 0 1 30.03 96.92 ZM8.22 100.34 A1.86803 1.86803 0 0 1 6.91 99.81 A1.91055 1.91055 0 0 1 6.51
									 99.22 A1.81843 1.81843 0 0 1 6.36 98.48 L6.36 94.18 C6.36 93.92 6.41 93.68 6.51 93.46 A1.91055
									 1.91055 0 0 1 7.5 92.48 C7.72 92.38 7.97 92.33 8.22 92.33 C8.49 92.33 8.73 92.38 8.96 92.48
									 A1.91055 1.91055 0 0 1 9.95 93.46 C10.05 93.68 10.1 93.92 10.1 94.18 L10.1 98.48 C10.1 98.73
									 10.05 98.97 9.95 99.2 A1.92756 1.92756 0 0 1 9.55 99.79 A1.90205 1.90205 0 0 1 8.22 100.34 L8.22
									 100.34 ZM14.1 100.34 C13.83 100.34 13.59 100.29 13.36 100.19 A1.91055 1.91055 0 0 1 12.77 99.79
									 A1.91055 1.91055 0 0 1 12.37 99.2 C12.27 98.98 12.22 98.73 12.22 98.48 L12.22 87.45 C12.22 87.2
									 12.27 86.96 12.37 86.73 A1.89354 1.89354 0 0 1 13.36 85.74 C13.59 85.64 13.83 85.59 14.1 85.59
									 C14.35 85.59 14.6 85.64 14.82 85.74 C15.05 85.84 15.25 85.97 15.41 86.14 C15.58 86.31 15.71
									 86.5 15.81 86.73 C15.91 86.96 15.96 87.2 15.96 87.45 L15.96 98.48 C15.96 98.73 15.91 98.97 15.81
									 99.2 C15.71 99.43 15.58 99.63 15.41 99.79 A1.90205 1.90205 0 0 1 14.1 100.34 ZM25.79 100.29
									 C25.54 100.29 25.3 100.24 25.07 100.14 A1.91055 1.91055 0 0 1 24.48 99.74 A1.91055 1.91055 0
									 0 1 24.08 99.15 A1.81843 1.81843 0 0 1 23.93 98.41 L23.93 82.82 C23.93 82.56 23.98 82.32 24.08
									 82.09 C24.18 81.87 24.31 81.67 24.48 81.5 C24.65 81.34 24.84 81.21 25.07 81.11 C25.3 81.01 25.54
									 80.96 25.79 80.96 C26.06 80.96 26.31 81.01 26.53 81.11 C26.76 81.21 26.96 81.34 27.12 81.5 C27.29
									 81.67 27.42 81.87 27.52 82.09 C27.62 82.32 27.67 82.56 27.67 82.82 L27.67 98.41 C27.67 98.68
									 27.62 98.92 27.52 99.15 A1.88929 1.88929 0 0 1 26.53 100.14 C26.31 100.24 26.06 100.29 25.79
									 100.29 ZM19.95 100.34 C19.69 100.34 19.45 100.29 19.22 100.19 A1.91055 1.91055 0 0 1 18.63 99.79
									 A1.91055 1.91055 0 0 1 18.24 99.2 A1.76173 1.76173 0 0 1 18.09 98.48 L18.09 90.29 C18.09 90.04
									 18.14 89.79 18.24 89.57 A1.89921 1.89921 0 0 1 19.22 88.58 C19.45 88.48 19.69 88.43 19.95 88.43
									 C20.2 88.43 20.44 88.48 20.67 88.58 A1.88504 1.88504 0 0 1 21.81 90.29 L21.81 98.48 C21.81 98.73
									 21.76 98.98 21.66 99.2 C21.56 99.43 21.42 99.63 21.26 99.79 A1.90205 1.90205 0 0 1 19.95 100.34
									 Z" class="st2"/>
					</g>
				</g>
			</g>
		</g>
	</g>
</svg>
