<?xml version="1.0" encoding="UTF-8" standalone="no"?>
<!DOCTYPE svg PUBLIC "-//W3C//DTD SVG 1.1//EN" "http://www.w3.org/Graphics/SVG/1.1/DTD/svg11.dtd">
<!-- Generated by Microsoft Visio, SVG Export Power BI.svg Page-1 -->
<svg xmlns="http://www.w3.org/2000/svg" xmlns:xlink="http://www.w3.org/1999/xlink" xmlns:ev="http://www.w3.org/2001/xml-events"
		width="1.04354in" height="1.11232in" viewBox="0 0 75.1349 80.0871" xml:space="preserve" color-interpolation-filters="sRGB"
		class="st4">
	<style type="text/css">
	<![CDATA[
		.st1 {fill:#f2c811;stroke:none;stroke-linecap:butt;stroke-width:9.22098}
		.st2 {fill:#f2c811}
		.st3 {stroke:none;stroke-linecap:butt;stroke-width:9.22098}
		.st4 {fill:none;fill-rule:evenodd;font-size:12px;overflow:visible;stroke-linecap:square;stroke-miterlimit:3}
	]]>
	</style>

	<g>
		<title>Page-1</title>
		<g id="group1031-1" transform="translate(9.22098,-28.3465)">
			<title>Power BI</title>
			<g id="group1032-2">
				<title>Layer_1-2</title>
				<g id="shape1033-3" transform="translate(0,-5.66812)">
					<title>path6</title>
					<path d="M48.72 80.09 L48.72 77.45 L50 77.45 C52.44 77.45 54.04 75.48 54.04 73.07 L54.04 49.94 A3.85335 3.81677
								 -180 0 0 50 45.87 L6.69 45.87 A3.85335 3.81677 -180 0 0 2.66 49.94 L2.66 73.07 C2.66 75.48 4.25
								 77.45 6.69 77.45 L7.97 77.45 L7.97 80.09 L6.69 80.09 C2.99 80.09 0 76.74 0 73.07 L0 49.94 A6.76772
								 6.70347 0 0 1 6.69 43.24 L50 43.24 A6.76772 6.70347 0 0 1 56.69 49.94 L56.69 73.07 C56.69 76.73
								 53.7 80.09 50 80.09 L48.72 80.09 Z" class="st1"/>
				</g>
				<g id="shape1034-5" transform="translate(10.6299,2.13163E-13)">
					<title>path8</title>
					<path d="M3.1 80.09 A3.19783 3.16748 0 0 1 0 76.82 L0 69.31 A3.19783 3.16748 0 0 1 3.1 66.05 A3.19783 3.16748
								 0 0 1 6.2 69.3 L6.2 76.82 A3.19783 3.16748 0 0 1 3.11 80.09 L3.1 80.09 ZM12.84 79.8 A3.11811 3.08851
								 0 0 1 9.74 76.7 L9.74 58.34 A3.10039 3.07096 0 1 1 15.94 58.34 L15.94 76.7 A3.10925 3.07974 0 0
								 1 12.85 79.81 L12.84 79.8 ZM32.36 79.87 A3.12697 3.09729 0 0 1 29.23 76.74 L29.23 50.54 A3.10039
								 3.07096 0 1 1 35.43 50.54 L35.43 76.74 A3.10925 3.07974 0 0 1 32.36 79.87 ZM22.6 79.95 A3.14469
								 3.11483 0 0 1 19.49 76.79 L19.49 62.92 A3.10039 3.07096 0 1 1 25.69 62.92 L25.69 76.79 A3.13583
								 3.10606 0 0 1 22.6 79.94 L22.6 79.95 Z" class="st2"/>
					<path d="M3.1 80.09 A3.19783 3.16748 0 0 1 0 76.82 L0 69.31 A3.19783 3.16748 0 0 1 3.1 66.05 A3.19783 3.16748
								 0 0 1 6.2 69.3 L6.2 76.82 A3.19783 3.16748 0 0 1 3.11 80.09 L3.1 80.09M12.84 79.8 A3.11811 3.08851
								 0 0 1 9.74 76.7 L9.74 58.34 A3.10039 3.07096 0 1 1 15.94 58.34 L15.94 76.7 A3.10925 3.07974 0 0
								 1 12.85 79.81M32.36 79.87 A3.12697 3.09729 0 0 1 29.23 76.74 L29.23 50.54 A3.10039 3.07096 0 1 1
								 35.43 50.54 L35.43 76.74 A3.10925 3.07974 0 0 1 32.36 79.87M22.6 79.95 A3.14469 3.11483 0 0 1 19.49
								 76.79 L19.49 62.92 A3.10039 3.07096 0 1 1 25.69 62.92 L25.69 76.79 A3.13583 3.10606 0 0 1 22.6 79.94"
							class="st3"/>
				</g>
			</g>
		</g>
	</g>
</svg>
