<?xml version="1.0" encoding="UTF-8" standalone="no"?>
<!DOCTYPE svg PUBLIC "-//W3C//DTD SVG 1.1//EN" "http://www.w3.org/Graphics/SVG/1.1/DTD/svg11.dtd">
<!-- Generated by Microsoft Visio, SVG Export Powershell.svg Page-1 -->
<svg xmlns="http://www.w3.org/2000/svg" xmlns:xlink="http://www.w3.org/1999/xlink" xmlns:ev="http://www.w3.org/2001/xml-events"
		width="1.03275in" height="1.14648in" viewBox="0 0 74.3577 82.5467" xml:space="preserve" color-interpolation-filters="sRGB"
		class="st4">
	<style type="text/css">
	<![CDATA[
		.st1 {fill:#0078d7;stroke:none;stroke-linecap:butt;stroke-width:8.93937}
		.st2 {fill:#000000;fill-opacity:0.25;stroke:none;stroke-linecap:butt;stroke-width:8.93937}
		.st3 {fill:#ffffff;stroke:none;stroke-linecap:butt;stroke-width:8.93937}
		.st4 {fill:none;fill-rule:evenodd;font-size:12px;overflow:visible;stroke-linecap:square;stroke-miterlimit:3}
	]]>
	</style>

	<g>
		<title>Page-1</title>
		<g id="group1026-1" transform="translate(8.71833,-28.3465)">
			<title>Powershell</title>
			<g id="group1027-2">
				<title>layer1</title>
				<g id="shape1028-3">
					<title>path6</title>
					<path d="M56.68 40.53 L50.31 79.31 A4.15571 4.28518 0 0 1 46.17 82.55 L3.33 82.55 C1.36 82.55 0 81.1 0.25 79.31
								 L6.62 40.53 A3.51981 3.62948 0 0 1 7.78 38.5 A4.47813 4.61766 0 0 1 10.76 37.29 L53.59 37.29 A2.91079
								 3.00148 0 0 1 56.59 39.44 A2.44506 2.52124 0 0 1 56.68 40.53 L56.68 40.53 Z" class="st1"/>
				</g>
				<g id="shape1029-5" transform="translate(7.783,-2.22572)">
					<title>path10</title>
					<path d="M48.81 41.66 L42.49 80.7 C42.38 81.39 42.08 82.03 41.64 82.55 C31.66 72.43 10.85 51.42 0 40.73 C0.81
								 39.96 1.87 39.53 2.97 39.52 L45.81 39.52 C47.18 39.42 48.42 40.31 48.81 41.66 Z" class="st2"/>
				</g>
				<g id="shape1030-7" transform="translate(13.035,-5.29135)">
					<title>path8-6</title>
					<path d="M2.07 82.18 A2.17637 2.24418 0 0 1 0.77 78.13 L19.16 64.18 L5.9 51.31 A2.16742 2.23495 0 0 1 5.81 48.15
								 A2.19429 2.26265 0 0 1 8.9 48.05 L24.13 62.76 A2.16742 2.23495 0 0 1 23.93 66.19 L3.36 81.74 A2.18533
								 2.25342 0 0 1 2.07 82.18 L2.07 82.18 ZM26.13 82.55 L16.12 82.55 A2.23907 2.30883 0 1 1 16.12 77.93
								 L26.13 77.93 A2.23907 2.30883 0 0 1 26.13 82.55 Z" class="st3"/>
				</g>
			</g>
		</g>
	</g>
</svg>
