<?xml version="1.0" encoding="UTF-8" standalone="no"?>
<!DOCTYPE svg PUBLIC "-//W3C//DTD SVG 1.1//EN" "http://www.w3.org/Graphics/SVG/1.1/DTD/svg11.dtd">
<!-- Generated by Microsoft Visio, SVG Export Private Link.svg Page-1 -->
<svg xmlns="http://www.w3.org/2000/svg" xmlns:xlink="http://www.w3.org/1999/xlink" xmlns:ev="http://www.w3.org/2001/xml-events"
		width="1.1274in" height="1.31173in" viewBox="0 0 81.1729 94.4447" xml:space="preserve" color-interpolation-filters="sRGB"
		class="st6">
	<style type="text/css">
	<![CDATA[
		.st1 {fill:#7a7a7a;stroke:none;stroke-linecap:butt;stroke-width:12.24}
		.st2 {fill:#1490df;stroke:none;stroke-linecap:butt;stroke-width:12.24}
		.st3 {fill:url(#grad0-10);stroke:none;stroke-linecap:butt;stroke-width:12.24}
		.st4 {fill:url(#grad0-14);stroke:none;stroke-linecap:butt;stroke-width:12.24}
		.st5 {fill:#50e6ff;stroke:none;stroke-linecap:butt;stroke-width:12.24}
		.st6 {fill:none;fill-rule:evenodd;font-size:12px;overflow:visible;stroke-linecap:square;stroke-miterlimit:3}
	]]>
	</style>

	<defs id="Patterns_And_Gradients">
		<linearGradient id="grad0-10" x1="0" y1="0" x2="1" y2="0" gradientTransform="rotate(90 0.5 0.5)">
			<stop offset="0.23" stop-color="#5ea0ef" stop-opacity="1"/>
			<stop offset="0.32" stop-color="#5b9fee" stop-opacity="1"/>
			<stop offset="0.48" stop-color="#509aeb" stop-opacity="1"/>
			<stop offset="0.57" stop-color="#3f92e6" stop-opacity="1"/>
			<stop offset="0.75" stop-color="#2688df" stop-opacity="1"/>
			<stop offset="0.93" stop-color="#127fd9" stop-opacity="1"/>
		</linearGradient>
		<linearGradient id="grad0-14" x1="0" y1="0" x2="1" y2="0" gradientTransform="rotate(90 0.5 0.5)">
			<stop offset="0.02" stop-color="#5ea0ef" stop-opacity="1"/>
			<stop offset="0.14" stop-color="#5b9fee" stop-opacity="1"/>
			<stop offset="0.23" stop-color="#5b9fee" stop-opacity="1"/>
			<stop offset="0.34" stop-color="#509aeb" stop-opacity="1"/>
			<stop offset="0.44" stop-color="#3f92e6" stop-opacity="1"/>
			<stop offset="0.63" stop-color="#2688df" stop-opacity="1"/>
			<stop offset="0.93" stop-color="#127fd9" stop-opacity="1"/>
		</linearGradient>
	</defs>
	<g>
		<title>Page-1</title>
		<g id="group1005-1" transform="translate(12.24,-28.3465)">
			<title>Private Link</title>
			<g id="group1006-2">
				<title>Artboard 1</title>
				<g id="shape1007-3" transform="translate(25.9891,-25.0122)">
					<title>Sheet.1007</title>
					<rect x="0" y="71.6334" width="3.53601" height="22.8113" class="st1"/>
				</g>
				<g id="shape1008-5" transform="translate(22.571,-43.2371)">
					<title>Sheet.1008</title>
					<path d="M10.37 89.13 A5.18614 5.31057 0 1 1 0 89.13 A5.18614 5.31057 0 0 1 10.37 89.13 Z" class="st2"/>
				</g>
				<g id="shape1009-7" transform="translate(14.3953,-11.7358)">
					<title>Sheet.1009</title>
					<path d="M12.65 79.96 L7 79.96 A7.07202 7.24168 -180 0 0 5.9 94.35 A7.55527 7.73653 0 0 1 5.97 91.66 A4.46716
								 4.57433 0 0 1 7 82.62 L12.65 82.62 A4.47894 4.5864 0 0 1 12.65 91.79 L11.1 91.79 A3.37099 3.45187
								 -180 0 0 10.77 93.24 A3.2767 3.35531 -180 0 0 10.99 94.44 L12.65 94.44 A7.07202 7.24168 -180 0 0
								 12.65 79.96 Z" class="st3"/>
				</g>
				<g id="shape1010-11" transform="translate(21.3923,-5.7011)">
					<title>Sheet.1010</title>
					<path d="M13.83 80.06 A8.25068 8.44863 0 0 1 13.91 81.17 A7.37847 7.55549 0 0 1 13.76 82.75 A4.46716 4.57433
								 0 0 1 12.73 91.79 L7.07 91.79 A4.47894 4.5864 0 1 1 7.07 82.62 L8.63 82.62 A3.32385 3.40359 -180
								 0 0 8.96 81.17 A3.2767 3.35531 -180 0 0 8.73 79.96 L7.07 79.96 A7.07202 7.24168 -180 0 0 7.07 94.44
								 L12.73 94.44 A7.07202 7.24168 -180 0 0 13.83 80.06 Z" class="st4"/>
				</g>
				<g id="shape1011-15" transform="translate(0,-1.05515)">
					<title>Sheet.1011</title>
					<path d="M17.57 92.84 L16.28 94.18 a0.884002 0.90521 0 0 1 -1.24939 0 L0.52 79.36 A1.77979 1.82249 0 0 1 0.52
								 76.79 L1.83 75.46 L17.57 91.56 a0.872215 0.893141 0 0 1 -1.42109E-14 1.27936 Z" class="st5"/>
				</g>
				<g id="shape1012-17" transform="translate(0,-14.6446)">
					<title>Sheet.1012</title>
					<path d="M16.01 75.77 L17.46 77.26 a0.884002 0.90521 0 0 1 7.10543E-15 1.27936 L1.97 94.44 L0.52 92.97 A1.77979
								 1.82249 0 0 1 0.52 90.4 L14.76 75.77 a0.884002 0.90521 0 0 1 1.24939 -1.42109E-14 Z" class="st2"/>
				</g>
				<g id="shape1013-19" transform="translate(38.8442,0)">
					<title>Sheet.1013</title>
					<path d="M0.26 92.84 a0.872215 0.893141 0 0 1 -8.77076E-15 -1.27936 L16.02 75.47 L17.33 76.81 A1.77979 1.82249
								 0 0 1 17.33 79.38 L2.81 94.17 a0.872215 0.893141 0 0 1 -1.24939 0 L0.26 92.84 Z" class="st5"/>
				</g>
				<g id="shape1014-21" transform="translate(38.9707,-13.5825)">
					<title>Sheet.1014</title>
					<path d="M2.95 75.77 L17.2 90.4 A1.768 1.81042 0 0 1 17.2 92.96 L15.75 94.44 L0.25 78.54 a0.907575 0.929349 0
								 0 1 -6.66134E-15 -1.29143 L1.7 75.77 a0.884002 0.90521 0 0 1 1.24939 0 Z" class="st2"/>
				</g>
			</g>
		</g>
	</g>
</svg>
