<?xml version="1.0" encoding="UTF-8" standalone="no"?>
<!DOCTYPE svg PUBLIC "-//W3C//DTD SVG 1.1//EN" "http://www.w3.org/Graphics/SVG/1.1/DTD/svg11.dtd">
<!-- Generated by Microsoft Visio, SVG Export Private DNS Zone.svg Page-1 -->
<svg xmlns="http://www.w3.org/2000/svg" xmlns:xlink="http://www.w3.org/1999/xlink" xmlns:ev="http://www.w3.org/2001/xml-events"
		width="1.09075in" height="1.31447in" viewBox="0 0 78.5343 94.6415" xml:space="preserve" color-interpolation-filters="sRGB"
		class="st5">
	<style type="text/css">
	<![CDATA[
		.st1 {fill:#0072c6;stroke:none;stroke-linecap:butt;stroke-width:12.24}
		.st2 {fill:#ffffff;fill-opacity:0.2;stroke:none;stroke-linecap:butt;stroke-width:12.24}
		.st3 {fill:#ffffff;fill-opacity:0.8;stroke:none;stroke-linecap:butt;stroke-width:12.24}
		.st4 {fill:#ffffff;stroke:none;stroke-linecap:butt;stroke-width:12.24}
		.st5 {fill:none;fill-rule:evenodd;font-size:12px;overflow:visible;stroke-linecap:square;stroke-miterlimit:3}
	]]>
	</style>

	<g>
		<title>Page-1</title>
		<g id="group1020-1" transform="translate(9.60135,-28.3465)">
			<title>Private DNS Zone</title>
			<g id="group1021-2">
				<title>Sheet.1021</title>
				<g id="shape1022-3" transform="translate(2.63892,0)">
					<title>Sheet.1022</title>
					<ellipse cx="27.027" cy="67.614" rx="27.027" ry="27.0275" class="st1"/>
				</g>
				<g id="shape1023-5" transform="translate(0,-7.91582)">
					<title>Sheet.1023</title>
					<path d="M10.55 94.64 C0 84.09 0 66.97 10.55 56.42 C21.11 45.86 38.22 45.86 48.78 56.42 L10.55 94.64 Z"
							class="st2"/>
				</g>
				<g id="shape1024-7" transform="translate(4.80108,-2.26599)">
					<title>Sheet.1024</title>
					<path d="M49.73 69.88 C49.73 64.31 47.84 58.93 44.36 54.56 L44.16 54.36 C44.06 54.26 44.06 54.16 43.96 54.06
								 L42.37 52.37 C37.7 47.6 31.53 45.01 24.86 45.01 L24.67 45.01 C18.1 45.11 12.03 47.6 7.36 52.27 L5.67
								 54.06 C5.57 54.16 5.57 54.26 5.47 54.36 L5.27 54.46 A25.347 25.3475 -180 0 0 0 69.88 C0 75.45 1.89
								 80.82 5.37 85.19 L5.57 85.39 C5.67 85.49 5.67 85.59 5.77 85.69 L7.36 87.38 C12.03 92.06 18.1 94.64
								 24.67 94.64 L24.86 94.64 A24.6886 24.6891 -180 0 0 42.37 87.38 L43.96 85.59 C44.06 85.49 44.06 85.39
								 44.16 85.29 L44.36 85.09 C47.84 80.92 49.73 75.45 49.73 69.88 ZM39.68 53.66 C39.58 53.66 39.49 53.76
								 39.39 53.76 C39.19 53.86 38.99 53.96 38.89 53.96 C38.49 54.16 37.99 54.26 37.5 54.46 C37.4 54.46
								 37.3 54.56 37.2 54.56 C36.6 54.76 36.1 54.86 35.51 55.06 C35.41 55.06 35.21 55.16 35.11 55.16 C34.21
								 52.77 33.12 50.68 31.83 49.09 C34.71 49.98 37.4 51.57 39.68 53.66 ZM24.67 47.89 L24.77 47.89 C27.45
								 47.89 30.24 50.78 32.22 55.75 C29.94 56.15 27.45 56.35 24.86 56.35 C22.28 56.35 19.69 56.15 17.31
								 55.75 C19.2 50.88 21.98 47.99 24.67 47.89 ZM17.6 49.19 C16.41 50.78 15.32 52.77 14.42 55.16 L14.22
								 55.16 C13.63 54.96 13.03 54.86 12.53 54.66 C12.43 54.66 12.33 54.56 12.23 54.56 C11.84 54.36 11.34
								 54.16 10.94 53.96 C10.74 53.86 10.64 53.86 10.44 53.76 C10.34 53.66 10.24 53.66 10.05 53.56 C12.33
								 51.67 14.82 50.08 17.6 49.19 ZM10.05 86.09 C10.14 86.09 10.24 85.99 10.34 85.99 C10.54 85.89 10.64
								 85.89 10.84 85.79 C11.24 85.59 11.74 85.49 12.23 85.29 C12.33 85.29 12.43 85.19 12.53 85.19 C13.13
								 84.99 13.63 84.89 14.22 84.7 L14.42 84.7 C15.32 86.98 16.41 89.07 17.6 90.66 C14.82 89.67 12.23
								 88.08 10.05 86.09 ZM24.77 91.86 L24.67 91.86 C21.98 91.76 19.2 88.97 17.31 84.1 C19.69 83.7 22.28
								 83.5 24.86 83.5 C27.45 83.5 29.84 83.7 32.22 84.1 C30.34 88.97 27.45 91.86 24.77 91.86 ZM31.83 90.66
								 C33.12 89.07 34.21 86.98 35.11 84.6 C35.21 84.6 35.41 84.7 35.51 84.7 C36.1 84.89 36.7 84.99 37.2
								 85.19 C37.3 85.19 37.4 85.29 37.5 85.29 C37.99 85.49 38.39 85.59 38.89 85.79 C39.09 85.89 39.19
								 85.89 39.39 85.99 C39.49 85.99 39.58 86.09 39.78 86.19 C37.4 88.18 34.71 89.77 31.83 90.66 ZM41.87
								 83.8 C41.57 83.8 41.38 83.7 41.08 83.6 C40.78 83.5 40.38 83.3 40.08 83.2 C39.98 83.2 39.88 83.1
								 39.78 83.1 C38.59 82.61 37.3 82.31 36 81.91 C36.3 80.72 36.6 79.52 36.8 78.33 L33.82 78.33 C33.62
								 79.42 33.42 80.42 33.12 81.31 C30.53 80.82 27.75 80.62 24.86 80.62 C21.88 80.62 19.1 80.92 16.41
								 81.41 C16.11 80.42 15.91 79.42 15.71 78.33 L12.73 78.33 C12.93 79.62 13.23 80.82 13.53 82.01 C12.33
								 82.31 11.14 82.71 10.05 83.1 C9.95 83.2 9.75 83.2 9.65 83.3 C9.35 83.4 8.95 83.6 8.65 83.7 C8.45
								 83.7 8.16 83.8 7.96 83.9 C4.97 80.32 3.28 75.84 2.98 71.27 L5.47 71.27 L5.47 68.38 L2.98 68.38 C3.28
								 63.81 4.97 59.43 7.86 55.95 L7.96 55.85 C8.16 55.95 8.45 56.05 8.65 56.15 C9.05 56.35 9.35 56.45
								 9.75 56.65 C9.85 56.65 9.95 56.75 10.05 56.75 C11.14 57.14 12.33 57.54 13.63 57.84 C13.33 58.93
								 13.13 60.03 12.93 61.12 L15.91 61.12 C16.11 60.23 16.31 59.23 16.51 58.44 C19.2 58.93 22.08 59.23
								 24.96 59.23 C27.85 59.23 30.63 58.93 33.22 58.54 C33.42 59.33 33.62 60.23 33.82 61.22 L36.8 61.22
								 C36.6 60.13 36.4 59.03 36.1 57.94 C37.4 57.64 38.59 57.24 39.78 56.75 C39.88 56.75 40.08 56.65 40.18
								 56.65 C40.58 56.55 40.88 56.35 41.28 56.25 C41.47 56.15 41.77 56.05 41.97 55.95 C44.86 59.53 46.65
								 63.91 46.94 68.48 L43.96 68.48 L43.96 71.37 L46.94 71.37 C46.45 75.84 44.76 80.32 41.87 83.8 Z"
							class="st3"/>
				</g>
				<g id="shape1025-9" transform="translate(12.7459,-20.3442)">
					<title>Sheet.1025</title>
					<path d="M10.67 87.8 C10.67 88.98 10.52 89.99 10.21 90.83 C9.9 91.66 9.46 92.35 8.89 92.87 C8.31 93.4 7.61 93.79
								 6.79 94.04 C5.96 94.29 4.98 94.41 3.84 94.41 L0.77 94.41 a0.819459 0.819474 0 0 1 -0.551351 -0.192436
								 C0.07 94.09 0 93.88 0 93.59 L0 82.39 C0 82.1 0.07 81.89 0.22 81.76 a0.81081 0.810825 0 0 1 0.551351
								 -0.193517 L4.07 81.57 C5.22 81.57 6.19 81.7 6.98 81.97 C7.78 82.24 8.45 82.63 9 83.16 A5.12432 5.12442
								 0 0 1 10.25 85.11 C10.53 85.88 10.67 86.78 10.67 87.8 ZM7.97 87.89 A6.43243 6.43255 -180 0 0 7.76
								 86.19 A3.62162 3.62169 -180 0 0 7.07 84.83 A3.17405 3.17411 -180 0 0 5.86 83.93 C5.37 83.72 4.72
								 83.61 3.92 83.61 L2.6 83.61 L2.6 92.35 L3.96 92.35 C4.67 92.35 5.28 92.26 5.77 92.07 C6.26 91.88
								 6.67 91.61 6.99 91.23 C7.32 90.86 7.57 90.39 7.73 89.84 C7.89 89.28 7.97 88.63 7.97 87.89 ZM23.41
								 93.5 a0.908107 0.908124 0 0 1 -0.294054 0.704878 a0.806486 0.806501 0 0 1 -0.316756 0.172976 A1.29838
								 1.2984 0 0 1 22.43 94.43 L21.32 94.43 C21.08 94.43 20.89 94.41 20.71 94.37 A1.18919 1.18921 0 0
								 1 20.25 94.11 A2.20648 2.20653 0 0 1 19.84 93.62 A8.98053 8.9807 0 0 1 19.39 92.81 L16.19 86.8 C16.01
								 86.44 15.82 86.06 15.63 85.64 A20.6292 20.6296 0 0 1 15.11 84.44 L15.09 84.44 A48.8356 48.8366 0
								 0 1 15.17 87.32 L15.17 94.05 a0.307027 0.307033 0 0 1 -0.0551351 0.179463 a0.411891 0.411899 0 0
								 1 -0.189189 0.134056 C14.84 94.4 14.72 94.42 14.56 94.44 A4.55675 4.55684 0 0 1 13.98 94.47 C13.75
								 94.47 13.55 94.46 13.4 94.44 C13.25 94.42 13.13 94.39 13.05 94.36 a0.371892 0.371899 0 0 1 -0.179459
								 -0.134056 a0.336216 0.336222 0 0 1 -0.0497297 -0.179463 L12.82 82.5 C12.82 82.19 12.91 81.95 13.09
								 81.8 a0.999999 1.00002 0 0 1 0.67027 -0.233518 L15.16 81.56 C15.41 81.56 15.62 81.59 15.79 81.63
								 C15.97 81.67 16.12 81.74 16.26 81.84 C16.39 81.94 16.52 82.08 16.64 82.26 C16.76 82.43 16.88 82.65
								 17 82.91 L19.51 87.6 C19.65 87.89 19.8 88.17 19.94 88.44 C20.08 88.71 20.22 88.99 20.35 89.27 L20.74
								 90.07 C20.86 90.34 20.98 90.6 21.1 90.87 L21.11 90.87 A64.4194 64.4206 0 0 1 21.06 87.98 L21.06
								 81.95 C21.06 81.89 21.07 81.83 21.11 81.77 a0.464864 0.464873 0 0 1 0.198919 -0.138381 C21.4 81.6
								 21.53 81.57 21.68 81.55 C21.83 81.53 22.03 81.53 22.26 81.53 C22.49 81.53 22.68 81.53 22.83 81.55
								 C22.98 81.57 23.1 81.6 23.18 81.64 C23.26 81.68 23.32 81.72 23.36 81.77 C23.39 81.83 23.41 81.89
								 23.41 81.95 L23.41 93.5 L23.41 93.5 ZM33.83 90.56 C33.83 91.24 33.7 91.83 33.45 92.34 A3.6681 3.66817
								 0 0 1 32.43 93.61 A4.46162 4.4617 0 0 1 30.92 94.38 A6.42161 6.42174 0 0 1 29.07 94.64 C28.63 94.64
								 28.22 94.6 27.84 94.53 A7.08864 7.08878 0 0 1 26.83 94.27 A4.28973 4.28981 0 0 1 26.1 93.95 A2.09621
								 2.09625 0 0 1 25.68 93.65 a0.756756 0.75677 0 0 1 -0.183784 -0.371899 A3.45081 3.45087 0 0 1 25.44
								 92.58 C25.44 92.37 25.44 92.2 25.46 92.06 C25.47 91.92 25.49 91.81 25.52 91.72 a0.37081 0.370817
								 0 0 1 0.118919 -0.183787 a0.290811 0.290816 0 0 1 0.174054 -0.0551361 C25.91 91.48 26.04 91.54 26.21
								 91.65 C26.38 91.75 26.59 91.88 26.86 92.01 C27.12 92.14 27.44 92.26 27.81 92.37 C28.17 92.48 28.6
								 92.54 29.08 92.54 A2.91892 2.91897 -180 0 0 29.93 92.42 C30.18 92.34 30.4 92.24 30.57 92.1 C30.75
								 91.96 30.88 91.79 30.98 91.58 C31.07 91.38 31.12 91.15 31.12 90.9 C31.12 90.6 31.04 90.36 30.88
								 90.15 A2.36432 2.36437 -180 0 0 30.26 89.59 A6.36432 6.36444 -180 0 0 29.39 89.13 C29.06 88.99 28.73
								 88.84 28.38 88.68 A9.23242 9.2326 0 0 1 27.38 88.14 C27.06 87.94 26.77 87.7 26.51 87.42 A3.44 3.44006
								 0 0 1 25.89 86.42 C25.73 86.03 25.65 85.57 25.65 85.04 C25.65 84.42 25.77 83.88 26 83.41 A3.35135
								 3.35141 0 0 1 26.92 82.25 C27.31 81.94 27.76 81.71 28.29 81.56 C28.82 81.41 29.38 81.33 29.96 81.33
								 A6.15134 6.15146 0 0 1 31.73 81.59 C31.99 81.67 32.23 81.76 32.43 81.86 C32.64 81.96 32.78 82.04
								 32.84 82.11 a0.728648 0.728662 0 0 1 0.134054 0.168652 C33 82.32 33.02 82.38 33.03 82.46 C33.05
								 82.54 33.06 82.63 33.07 82.75 A7.80324 7.80338 0 0 1 33.06 83.67 A1.95027 1.95031 0 0 1 33.01 83.99
								 a0.4 0.400007 0 0 1 -0.0994594 0.189193 a0.246486 0.246491 0 0 1 -0.174054 0.0594605 C32.67 84.24
								 32.55 84.2 32.39 84.11 C32.23 84.01 32.04 83.91 31.81 83.8 A5.75675 5.75686 -180 0 0 31 83.5 A3.53837
								 3.53844 -180 0 0 30 83.37 C29.72 83.37 29.47 83.4 29.26 83.47 A1.50378 1.50381 -180 0 0 28.73 83.76
								 A1.13513 1.13516 -180 0 0 28.41 84.2 A1.45081 1.45084 -180 0 0 28.3 84.75 C28.3 85.03 28.38 85.28
								 28.54 85.49 C28.69 85.7 28.9 85.88 29.16 86.05 C29.42 86.21 29.72 86.36 30.05 86.5 C30.38 86.64
								 30.72 86.79 31.07 86.95 C31.41 87.11 31.75 87.29 32.08 87.5 C32.41 87.7 32.7 87.94 32.96 88.22 C33.22
								 88.5 33.43 88.83 33.59 89.21 C33.75 89.6 33.83 90.05 33.83 90.56 Z" class="st4"/>
				</g>
			</g>
		</g>
	</g>
</svg>
