<?xml version="1.0" encoding="UTF-8" standalone="no"?>
<!DOCTYPE svg PUBLIC "-//W3C//DTD SVG 1.1//EN" "http://www.w3.org/Graphics/SVG/1.1/DTD/svg11.dtd">
<!-- Generated by Microsoft Visio, SVG Export Private Endpoint.svg Page-1 -->
<svg xmlns="http://www.w3.org/2000/svg" xmlns:xlink="http://www.w3.org/1999/xlink" xmlns:ev="http://www.w3.org/2001/xml-events"
		width="1.12087in" height="1.27236in" viewBox="0 0 80.7025 91.6101" xml:space="preserve" color-interpolation-filters="sRGB"
		class="st4">
	<style type="text/css">
	<![CDATA[
		.st1 {fill:#7a7a7a;stroke:none;stroke-linecap:butt;stroke-width:12.24}
		.st2 {fill:#57a300;stroke:none;stroke-linecap:butt;stroke-width:12.24}
		.st3 {fill:#3999c6;stroke:none;stroke-linecap:butt;stroke-width:12.24}
		.st4 {fill:none;fill-rule:evenodd;font-size:12px;overflow:visible;stroke-linecap:square;stroke-miterlimit:3}
	]]>
	</style>

	<g>
		<title>Page-1</title>
		<g id="group1015-1" transform="translate(12.0088,-28.3465)">
			<title>Private Endpoint</title>
			<g id="group1016-2">
				<title>g10</title>
				<g id="shape1017-3" transform="translate(26.6143,-14.8866)">
					<title>path4</title>
					<rect x="0" y="61.155" width="3.45625" height="30.4551" class="st1"/>
				</g>
				<g id="shape1018-5" transform="translate(22.1212,-9.20471)">
					<title>path6</title>
					<path d="M12.44 85.47 C12.44 88.8 9.6 91.61 6.22 91.61 C2.84 91.61 0 88.8 0 85.47 C0 82.14 2.84 79.34 6.22 79.34
								 C9.6 79.34 12.44 82.14 12.44 85.47 Z" class="st2"/>
				</g>
				<g id="shape1019-7">
					<title>path8</title>
					<path d="M33.41 45.59 C33.41 48.3 31.09 50.59 28.34 50.59 C25.59 50.59 23.27 48.3 23.27 45.59 C23.27 42.87 25.59
								 40.59 28.34 40.59 C31.09 40.59 33.41 42.87 33.41 45.59 ZM40.47 91.61 A1.58988 1.56821 0 0 1 39.33
								 91.15 A1.70624 1.68298 0 0 1 39.33 88.78 L51.51 76.77 a0.986184 0.972744 -180 0 0 0.00115208 -1.38071
								 L39.55 63.8 A1.48619 1.46593 0 0 1 39 62.73 C38.98 62.26 39.18 61.79 39.54 61.42 A1.64172 1.61935
								 0 0 1 40.87 60.93 C41.3 60.93 41.71 61.11 42.03 61.42 L53.45 72.38 L56 74.89 C56.51 75.52 56.69
								 76.58 56 77.27 L53.24 79.98 L41.81 91.15 A1.67743 1.65457 0 0 1 40.64 91.61 L40.65 91.61 L40.47
								 91.61 ZM16.05 91.61 A1.67052 1.64776 0 0 1 14.88 91.15 L3.24 80.09 L0.69 77.25 C0 76.58 0.17 75.55
								 0.67 74.92 L3.24 72.38 L14.67 61.42 A1.6325 1.61026 0 0 1 16 60.93 C16.42 60.93 16.83 61.11 17.15
								 61.42 C17.52 61.78 17.71 62.26 17.69 62.73 A1.54379 1.52275 0 0 1 17.13 63.82 L5.4 75.39 a0.982728
								 0.969335 -180 0 0 -0.00115208 1.38071 L17.37 88.77 A1.71315 1.6898 0 0 1 17.36 91.15 C17.06 91.45
								 16.66 91.61 16.23 91.61 L16.05 91.61 Z" class="st3"/>
				</g>
			</g>
		</g>
	</g>
</svg>
