<?xml version="1.0" encoding="UTF-8" standalone="no"?>
<!DOCTYPE svg PUBLIC "-//W3C//DTD SVG 1.1//EN" "http://www.w3.org/Graphics/SVG/1.1/DTD/svg11.dtd">
<!-- Generated by Microsoft Visio, SVG Export Property.svg Page-1 -->
<svg xmlns="http://www.w3.org/2000/svg" xmlns:xlink="http://www.w3.org/1999/xlink" xmlns:ev="http://www.w3.org/2001/xml-events"
		width="1.00929in" height="1.3511in" viewBox="0 0 72.669 97.2794" xml:space="preserve" color-interpolation-filters="sRGB"
		class="st7">
	<style type="text/css">
	<![CDATA[
		.st1 {fill:#e5e5e5;stroke:none;stroke-linecap:butt;stroke-width:12.24}
		.st2 {fill:#59b4d9;stroke:none;stroke-linecap:butt;stroke-width:12.24}
		.st3 {fill:#ffffff;fill-opacity:0.6;stroke:none;stroke-linecap:butt;stroke-width:12.24}
		.st4 {fill:#7a7a7a;stroke:none;stroke-linecap:butt;stroke-width:12.24}
		.st5 {fill:#ffffff;fill-opacity:0.7;stroke:none;stroke-linecap:butt;stroke-width:12.24}
		.st6 {fill:#1e1e1e;fill-opacity:0.2;stroke:none;stroke-linecap:butt;stroke-width:12.24}
		.st7 {fill:none;fill-rule:evenodd;font-size:12px;overflow:visible;stroke-linecap:square;stroke-miterlimit:3}
	]]>
	</style>

	<g>
		<title>Page-1</title>
		<g id="group987-1" transform="translate(12.24,-28.3465)">
			<title>Property</title>
			<g id="group988-2">
				<title>g36</title>
				<g id="shape989-3">
					<title>path4</title>
					<rect x="0" y="40.5865" width="11.4762" height="56.6929" class="st1"/>
				</g>
				<g id="shape990-5" transform="translate(2.29455,-2.26772)">
					<title>path6</title>
					<rect x="0" y="45.1219" width="6.81596" height="52.1575" class="st2"/>
				</g>
				<g id="shape991-7" transform="translate(2.29455,-2.26772)">
					<title>path8</title>
					<rect x="0" y="65.5313" width="6.88709" height="31.748" class="st3"/>
				</g>
				<g id="shape992-9" transform="translate(2.40807E-13,-31.748)">
					<title>path10</title>
					<rect x="0" y="92.7439" width="11.4716" height="4.53543" class="st4"/>
				</g>
				<g id="shape993-11" transform="translate(0.00114727,-34.0157)">
					<title>path12</title>
					<path d="M0 95.01 L11.47 95.01 L11.47 97.28 L0 97.28 L0 95.01 Z" class="st5"/>
				</g>
				<g id="shape994-13" transform="translate(18.3564,0)">
					<title>path14</title>
					<rect x="0" y="40.5865" width="11.4762" height="56.6929" class="st1"/>
				</g>
				<g id="shape995-15" transform="translate(20.6509,-2.26772)">
					<title>path16</title>
					<rect x="0" y="45.1219" width="6.81596" height="52.1575" class="st2"/>
				</g>
				<g id="shape996-17" transform="translate(20.6567,-2.26772)">
					<title>path18</title>
					<rect x="0" y="83.6731" width="6.88709" height="13.6063" class="st3"/>
				</g>
				<g id="shape997-19" transform="translate(18.3564,-13.6063)">
					<title>path20</title>
					<rect x="0" y="92.7439" width="11.4716" height="4.53543" class="st4"/>
				</g>
				<g id="shape998-21" transform="translate(18.3575,-15.874)">
					<title>path22</title>
					<rect x="0" y="95.0117" width="11.4727" height="2.26772" class="st5"/>
				</g>
				<g id="shape999-23" transform="translate(36.7128,0)">
					<title>path24</title>
					<rect x="0" y="40.5865" width="11.4762" height="56.6929" class="st1"/>
				</g>
				<g id="shape1000-25" transform="translate(39.0073,-2.26772)">
					<title>path26</title>
					<rect x="0" y="45.1219" width="6.81596" height="52.1575" class="st2"/>
				</g>
				<g id="shape1001-27" transform="translate(39.0073,-2.26772)">
					<title>path28</title>
					<rect x="0" y="65.5313" width="6.88709" height="31.748" class="st3"/>
				</g>
				<g id="shape1002-29" transform="translate(36.7128,-31.748)">
					<title>path30</title>
					<rect x="0" y="92.7439" width="11.4716" height="4.53543" class="st4"/>
				</g>
				<g id="shape1003-31" transform="translate(36.7139,-34.0157)">
					<title>path32</title>
					<rect x="0" y="95.0117" width="11.4727" height="2.26772" class="st5"/>
				</g>
				<g id="shape1004-33" transform="translate(0.00114727,-11.3386)">
					<title>path34</title>
					<path d="M0 76.87 L11.47 76.87 L11.47 79.14 L0 79.14 L0 76.87 ZM36.68 76.87 L48.15 76.87 L48.15 79.14 L36.68
								 79.14 L36.68 76.87 ZM18.36 95.01 L29.84 95.01 L29.84 97.28 L18.36 97.28 L18.36 95.01 Z"
							class="st6"/>
				</g>
			</g>
		</g>
	</g>
</svg>
