<?xml version="1.0" encoding="UTF-8" standalone="no"?>
<!DOCTYPE svg PUBLIC "-//W3C//DTD SVG 1.1//EN" "http://www.w3.org/Graphics/SVG/1.1/DTD/svg11.dtd">
<!-- Generated by Microsoft Visio, SVG Export Proximity Placement Group.svg Page-1 -->
<svg xmlns="http://www.w3.org/2000/svg" xmlns:xlink="http://www.w3.org/1999/xlink" xmlns:ev="http://www.w3.org/2001/xml-events"
		width="1.73185in" height="1.69248in" viewBox="0 0 124.693 121.858" xml:space="preserve" color-interpolation-filters="sRGB"
		class="st6">
	<style type="text/css">
	<![CDATA[
		.st1 {fill:#949494;stroke:none;stroke-linecap:butt;stroke-width:34}
		.st2 {fill:#a3a3a3;stroke:none;stroke-linecap:butt;stroke-width:34}
		.st3 {fill:#999999;stroke:none;stroke-linecap:butt;stroke-width:34}
		.st4 {fill:#003067;stroke:none;stroke-linecap:butt;stroke-width:34}
		.st5 {fill:#50e6ff;stroke:none;stroke-linecap:butt;stroke-width:34}
		.st6 {fill:none;fill-rule:evenodd;font-size:12px;overflow:visible;stroke-linecap:square;stroke-miterlimit:3}
	]]>
	</style>

	<g>
		<title>Page-1</title>
		<g id="group973-1" transform="translate(34,-34)">
			<title>Proximity Placement Group</title>
			<g id="group974-2">
				<title> ProximityPlacementGroups</title>
				<g id="shape975-3" transform="translate(0.0105707,-0.0303115)">
					<title>Sheet.975</title>
					<path d="M0 115.41 a0.503843 0.496531 -180 0 0 0.283412 0.465498 L4.13 118.08 L10.64 121.8 a0.566823 0.558597
								 -180 0 0 0.755765 -0.186199 L13.57 117.83 a0.503843 0.496531 -180 0 0 -0.188941 -0.713763 L5.73
								 112.74 a0.566823 0.558597 0 0 1 -0.251922 -0.465498 L5.48 77.64 a0.566823 0.558597 0 0 1 0.251922
								 -0.465498 L13.38 72.8 a0.503843 0.496531 -180 0 0 0.188941 -0.713763 L11.4 68.3 a0.566823 0.558597
								 -180 0 0 -0.755765 -0.186199 L4.35 71.78 L0.28 74.04 a0.503843 0.496531 -180 0 0 -0.283412 0.465498
								 L0 115.41 Z" class="st1"/>
				</g>
				<g id="shape976-5">
					<title>Sheet.976</title>
					<path d="M13.58 72.06 L11.41 68.27 a0.566823 0.558597 -180 0 0 -0.566823 -0.248265 a0.346392 0.341365 -180 0
								 0 -0.251922 -5.68434E-14 L4.29 71.69 L0.2 74.01 L0.01 74.2 a0.755765 0.744796 -180 0 0 2.45359E-14
								 0.248265 L5.49 77.55 a0.566823 0.558597 0 0 1 0.251922 -0.465498 L13.39 72.77 a0.503843 0.496531
								 -180 0 0 0.188941 -0.713763 ZM13.58 117.8 L11.41 121.59 a0.566823 0.558597 0 0 1 -0.566823 0.248265
								 a0.346392 0.341365 0 0 1 -0.251922 -1.42109E-14 L4.29 118.17 L0.2 115.85 L0.01 115.66 a0.755765
								 0.744796 0 0 1 -6.66134E-16 -0.248265 L5.49 112.31 a0.566823 0.558597 -180 0 0 0.251922 0.465498
								 L13.39 117.15 a0.503843 0.496531 0 0 1 0.188941 0.651697 Z" class="st2"/>
				</g>
				<g id="shape977-7" transform="translate(43.054,-0.0303115)">
					<title>Sheet.977</title>
					<path d="M13.64 74.51 a0.503843 0.496531 -180 0 0 -0.283412 -0.465498 L9.51 71.84 L3 68.12 a0.566823 0.558597
								 -180 0 0 -0.755765 0.186199 L0.07 72.09 a0.503843 0.496531 -180 0 0 0.188941 0.713763 L7.91 77.18
								 a0.566823 0.558597 0 0 1 0.251922 0.465498 L8.16 112.28 a0.566823 0.558597 0 0 1 -0.251922 0.465498
								 L0.26 117.12 a0.503843 0.496531 -180 0 0 -0.188941 0.713763 L2.24 121.62 a0.566823 0.558597 -180
								 0 0 0.755765 0.186199 L9.29 118.14 L13.26 115.88 a0.503843 0.496531 -180 0 0 0.283412 -0.465498
								 L13.54 74.51 L13.64 74.51 Z" class="st1"/>
				</g>
				<g id="shape978-9" transform="translate(43.053,0)">
					<title>Sheet.978</title>
					<path d="M0.07 117.8 L2.24 121.59 a0.566823 0.558597 -180 0 0 0.566823 0.248265 a0.346392 0.341365 -180 0 0 0.251922
								 0 L9.36 118.17 L13.32 115.91 L13.51 115.72 a0.755765 0.744796 -180 0 0 -2.4869E-14 -0.248265 L8.03
								 112.37 a0.566823 0.558597 0 0 1 -0.251922 0.465498 L0.13 117.21 a0.503843 0.496531 -180 0 0 -0.0629804
								 0.58963 ZM0.07 72.06 L2.24 68.27 a0.566823 0.558597 0 0 1 0.566823 -0.248265 a0.346392 0.341365
								 0 0 1 0.251922 2.84217E-14 L9.36 71.69 L13.32 73.95 L13.51 74.14 a0.755765 0.744796 0 0 1 8.52651E-14
								 0.248265 L8.03 77.49 a0.566823 0.558597 -180 0 0 -0.251922 -0.465498 L0.26 72.77 a0.503843 0.496531
								 0 0 1 -0.188941 -0.713763 Z" class="st2"/>
				</g>
				<g id="shape979-11" transform="translate(9.61508,-13.8952)">
					<title>Sheet.979</title>
					<path d="M17.23 120.96 a0.944706 0.930995 0 0 1 -0.976196 0.899962 L1.01 121.86 a0.944706 0.930995 0 0 1 -1.00769
								 -0.899962 L0 96.6 a0.944706 0.930995 0 0 1 1.00769 -0.899962 L16.25 95.7 a0.944706 0.930995 0 0
								 1 0.976196 0.899962 L17.23 120.96 Z" class="st3"/>
				</g>
				<g id="shape980-13" transform="translate(12.1658,-26.836)">
					<title>Sheet.980</title>
					<path d="M0 119.81 A1.95239 1.92406 0 0 1 1.86 117.79 L10.42 117.79 A1.98388 1.95509 0 0 1 12.31 119.81 A1.98388
								 1.95509 0 0 1 10.42 121.86 L1.86 121.86 A1.95239 1.92406 0 0 1 0 119.81 ZM0 113.79 A1.98388 1.95509
								 0 0 1 1.86 111.74 L10.42 111.74 A2.01537 1.98612 0 0 1 12.31 113.79 A1.98388 1.95509 0 0 1 10.42
								 115.81 L1.86 115.81 A1.95239 1.92406 0 0 1 0 113.79 Z" class="st4"/>
				</g>
				<g id="shape981-15" transform="translate(13.1735,-33.5392)">
					<title>Sheet.981</title>
					<ellipse cx="1.38557" cy="120.493" rx="1.38557" ry="1.36546" class="st5"/>
				</g>
				<g id="shape982-17" transform="translate(13.1735,-27.5188)">
					<title>Sheet.982</title>
					<ellipse cx="1.38557" cy="120.493" rx="1.38557" ry="1.36546" class="st5"/>
				</g>
				<g id="shape983-19" transform="translate(30.2726,-13.8952)">
					<title>Sheet.983</title>
					<path d="M17.23 120.96 a0.944706 0.930995 0 0 1 -1.00769 0.899962 L1.01 121.86 a0.944706 0.930995 0 0 1 -1.00769
								 -0.899962 L0 96.6 a0.944706 0.930995 0 0 1 1.00769 -0.899962 L16.22 95.7 a0.944706 0.930995 0 0
								 1 1.00769 0.899962 L17.23 120.96 Z" class="st3"/>
				</g>
				<g id="shape984-21" transform="translate(32.7604,-26.836)">
					<title>Sheet.984</title>
					<path d="M0.03 119.81 A1.98388 1.95509 0 0 1 1.92 117.79 L10.49 117.79 A1.98388 1.95509 0 0 1 12.38 119.81 A1.98388
								 1.95509 0 0 1 10.49 121.86 L1.89 121.86 A1.98388 1.95509 0 0 1 -0 119.81 L0.03 119.81 ZM0.03 113.79
								 A2.01537 1.98612 0 0 1 1.92 111.74 L10.49 111.74 A2.01537 1.98612 0 0 1 12.38 113.79 A1.98388 1.95509
								 0 0 1 10.49 115.81 L1.89 115.81 A1.98388 1.95509 0 0 1 0 113.79 L0.03 113.79 Z" class="st4"/>
				</g>
				<g id="shape985-23" transform="translate(33.831,-33.5392)">
					<title>Sheet.985</title>
					<ellipse cx="1.38557" cy="120.493" rx="1.38557" ry="1.36546" class="st5"/>
				</g>
				<g id="shape986-25" transform="translate(33.831,-27.5188)">
					<title>Sheet.986</title>
					<ellipse cx="1.38557" cy="120.493" rx="1.38557" ry="1.36546" class="st5"/>
				</g>
			</g>
		</g>
	</g>
</svg>
