<?xml version="1.0" encoding="UTF-8" standalone="no"?>
<!DOCTYPE svg PUBLIC "-//W3C//DTD SVG 1.1//EN" "http://www.w3.org/Graphics/SVG/1.1/DTD/svg11.dtd">
<!-- Generated by Microsoft Visio, SVG Export Python.svg Page-1 -->
<svg xmlns="http://www.w3.org/2000/svg" xmlns:xlink="http://www.w3.org/1999/xlink" xmlns:ev="http://www.w3.org/2001/xml-events"
		width="1.03688in" height="1.30609in" viewBox="0 0 74.6551 94.0386" xml:space="preserve" color-interpolation-filters="sRGB"
		class="st4">
	<style type="text/css">
	<![CDATA[
		.st1 {fill:#3772a4;stroke:none;stroke-linecap:butt;stroke-width:8.9811}
		.st2 {fill:#000000;stroke:none;stroke-linecap:butt;stroke-width:8.9811}
		.st3 {fill:#ffda4b;stroke:none;stroke-linecap:butt;stroke-width:8.9811}
		.st4 {fill:none;fill-rule:evenodd;font-size:12px;overflow:visible;stroke-linecap:square;stroke-miterlimit:3}
	]]>
	</style>

	<g>
		<title>Page-1</title>
		<g id="group944-1" transform="translate(8.9811,-28.3465)">
			<title>Python</title>
			<g id="group945-2">
				<title>layer1</title>
				<g id="shape946-3" transform="translate(2.79776E-13,-14.4977)">
					<title>path6</title>
					<path d="M0 79.74 C0 79.66 0.05 79.58 0.05 79.5 C0.1 78.67 0.11 77.84 0.2 77.02 A14.1821 14.1909 0 0 1 2.76 69.56
								 A7.46902 7.47366 0 0 1 7.88 66.58 A7.00108 7.00543 0 0 1 8.78 66.52 L27.9 66.52 C28.27 66.52 28.27
								 66.52 28.27 66.14 L28.27 64.82 C28.27 64.55 28.19 64.49 27.93 64.49 L14.9 64.49 C14.68 64.49 13.5
								 64.42 13.5 64.19 L13.5 57.69 C13.5 56.72 15.06 55.89 15.69 55.19 A7.89197 7.89686 0 0 1 18.9 53.13
								 A19.6804 19.6926 0 0 1 23.51 52.08 A38.7759 38.8 0 0 1 29.98 51.88 A21.1112 21.1243 0 0 1 36.81
								 53.15 A8.3869 8.39211 0 0 1 40.63 55.85 A5.39929 5.40264 0 0 1 41.75 59.45 C41.69 60.55 41.75 61.67
								 41.75 62.77 L41.75 68.91 C41.75 70.11 41.75 71.32 41.69 72.51 A6.40716 6.41114 0 0 1 37.53 78.47
								 A9.49376 9.49965 0 0 1 33.83 79.18 L20.33 79.18 A7.72099 7.72578 -180 0 0 16.2 80.27 A7.12707 7.13149
								 -180 0 0 13.08 84.64 A10.2317 10.238 -180 0 0 12.7 87.45 L12.7 93.59 C12.7 93.99 12.7 93.99 12.28
								 93.99 C10.82 93.99 9.34 94.04 7.87 93.99 A6.15519 6.15901 0 0 1 3.96 92.35 A9.78172 9.78779 0 0
								 1 1.26 88.14 A17.8987 17.9098 0 0 1 0.24 83.62 C0.15 82.63 0.12 81.64 0.05 80.65 C0.05 80.54 0 80.43
								 0 80.33 L0 79.74 Z" class="st1"/>
				</g>
				<g id="shape947-5" transform="translate(17.998,-47.7054)">
					<title>path8</title>
					<path d="M0 91.34 A2.69965 2.70132 0 0 1 5.4 91.34 A2.69965 2.70132 0 1 1 0 91.34 Z" class="st2"/>
				</g>
				<g id="shape948-7" transform="translate(14.9564,1.42109E-14)">
					<title>path10</title>
					<path d="M41.74 66.14 A1.44881 1.44971 -180 0 0 41.68 66.39 C41.64 67.21 41.63 68.04 41.54 68.86 A14.1821 14.1909
								 0 0 1 38.97 76.29 A7.46902 7.47366 0 0 1 33.85 79.28 A7.00108 7.00543 0 0 1 32.95 79.33 L13.84 79.33
								 C13.46 79.33 13.46 79.33 13.46 79.71 L13.46 81.04 C13.46 81.31 13.54 81.37 13.8 81.37 L26.83 81.37
								 C27.06 81.37 27.13 81.43 27.13 81.67 L27.13 88.17 A3.7885 3.79085 0 0 1 26.03 90.66 A7.89197 7.89686
								 0 0 1 22.84 92.75 A19.6804 19.6926 0 0 1 18.24 93.8 A38.7759 38.8 0 0 1 11.76 94 A21.1112 21.1243
								 0 0 1 4.94 92.73 A8.3869 8.39211 0 0 1 1.12 90.03 A5.39929 5.40264 0 0 1 0 86.43 C0.05 85.33 0 84.21
								 0 83.12 L0 76.97 C0 75.77 0 74.56 0.05 73.37 A6.40716 6.41114 0 0 1 4.21 67.41 A9.49376 9.49965
								 0 0 1 7.92 66.7 L21.42 66.7 A7.72099 7.72578 -180 0 0 25.54 65.61 A7.12707 7.13149 -180 0 0 28.66
								 61.24 A10.2317 10.238 -180 0 0 29.04 58.43 L29.04 52.29 C29.04 51.89 29.04 51.89 29.45 51.89 C30.92
								 51.89 32.4 51.84 33.86 51.89 A6.15519 6.15901 0 0 1 37.78 53.54 A9.78172 9.78779 0 0 1 40.48 57.74
								 A17.8987 17.9098 0 0 1 41.48 62.31 C41.57 63.3 41.6 64.29 41.66 65.28 A2.92462 2.92643 -180 0 0
								 41.72 65.6 C41.73 65.78 41.74 65.96 41.74 66.14 L41.74 66.14 Z" class="st3"/>
				</g>
				<g id="shape949-9" transform="translate(33.7549,-4.55682)">
					<title>path12</title>
					<path d="M5.4 91.34 A2.69965 2.70132 0 1 1 0 91.34 A2.69965 2.70132 0 0 1 5.4 91.34 Z" class="st2"/>
				</g>
			</g>
		</g>
	</g>
</svg>
