<?xml version="1.0" encoding="UTF-8" standalone="no"?>
<!DOCTYPE svg PUBLIC "-//W3C//DTD SVG 1.1//EN" "http://www.w3.org/Graphics/SVG/1.1/DTD/svg11.dtd">
<!-- Generated by Microsoft Visio, SVG Export Quickstart Center.svg Page-1 -->
<svg xmlns="http://www.w3.org/2000/svg" xmlns:xlink="http://www.w3.org/1999/xlink" xmlns:ev="http://www.w3.org/2001/xml-events"
		width="0.944882in" height="1.25984in" viewBox="0 0 68.0315 90.7087" xml:space="preserve" color-interpolation-filters="sRGB"
		class="st9">
	<style type="text/css">
	<![CDATA[
		.st1 {fill:#ff8c00;stroke:none;stroke-linecap:butt;stroke-width:3.825}
		.st2 {fill:#dd5900;stroke:none;stroke-linecap:butt;stroke-width:3.825}
		.st3 {fill:#fcd116;stroke:none;stroke-linecap:butt;stroke-width:3.825}
		.st4 {fill:#ff8c00;fill-opacity:0.2;stroke:none;stroke-linecap:butt;stroke-width:3.825}
		.st5 {fill:#0072c6;stroke:none;stroke-linecap:butt;stroke-width:3.825}
		.st6 {fill:#ffffff;fill-opacity:0.6;stroke:none;stroke-linecap:butt;stroke-width:3.825}
		.st7 {fill:#ffffff;stroke:none;stroke-linecap:butt;stroke-width:3.825}
		.st8 {fill:#ff8c00;fill-opacity:0.4;stroke:none;stroke-linecap:butt;stroke-width:3.825}
		.st9 {fill:none;fill-rule:evenodd;font-size:12px;overflow:visible;stroke-linecap:square;stroke-miterlimit:3}
	]]>
	</style>

	<g>
		<title>Page-1</title>
		<g id="group928-1" transform="translate(5.66929,-28.3465)">
			<title>Quickstart Center</title>
			<g id="group929-2">
				<title>Sheet.929</title>
				<g id="shape930-3" transform="translate(1.23965,-23.5704)">
					<title>Sheet.930</title>
					<path d="M11.08 90.71 C11.08 90.71 4.67 85.88 0 87.3 C1.29 82.65 7.74 77.4 13.55 76.36 C20.38 77.14 21.57 78.34
								 21.57 78.34 L11.08 90.71 Z" class="st1"/>
				</g>
				<g id="shape931-5" transform="translate(23.9978,-0.812173)">
					<title>Sheet.931</title>
					<path d="M0 79.63 L12.37 69.14 C12.37 69.14 13.56 70.33 14.35 77.16 C13.31 82.97 8.05 89.41 3.41 90.71 C4.82
								 86.03 0 79.63 0 79.63 Z" class="st2"/>
				</g>
				<g id="shape932-7" transform="translate(12.001,-12.0014)">
					<title>Sheet.932</title>
					<path d="M44.69 46.02 C44.69 46.02 17.33 51.83 0 78.73 L11.97 90.71 C38.88 73.38 44.69 46.02 44.69 46.02 Z"
							class="st3"/>
				</g>
				<g id="shape933-9" transform="translate(12.001,-12.0014)">
					<title>Sheet.933</title>
					<path d="M44.69 46.02 C44.69 46.02 17.33 51.83 0 78.73 L11.97 90.71 C38.88 73.38 44.69 46.02 44.69 46.02 Z"
							class="st4"/>
				</g>
				<g id="shape934-11" transform="translate(17.9885,-12.0014)">
					<title>Sheet.934</title>
					<path d="M38.7 46.02 L0 84.72 L5.99 90.71 C32.89 73.38 38.7 46.02 38.7 46.02 Z" class="st2"/>
				</g>
				<g id="shape935-13" transform="translate(13.507,-13.5074)">
					<title>Sheet.935</title>
					<path d="M0 81.74 C13.49 61.66 32.33 53.5 39.42 51.29 C37.21 58.37 29.04 77.22 8.96 90.71 L0 81.74 Z"
							class="st1"/>
				</g>
				<g id="shape936-15" transform="translate(40.8442,-40.8449)">
					<title>Sheet.936</title>
					<path d="M15.85 74.86 C15.85 74.86 9.01 76.31 0 81.13 L9.58 90.71 C14.4 81.7 15.85 74.86 15.85 74.86 Z"
							class="st5"/>
				</g>
				<g id="shape937-17">
					<title>Sheet.937</title>
					<path d="M0 90.71 C0 90.71 0.01 76.33 12 66.73 L23.98 78.71 C14.38 90.7 0 90.71 0 90.71 Z" class="st1"/>
				</g>
				<g id="shape938-19" transform="translate(4.05662,-4.052)">
					<title>Sheet.938</title>
					<path d="M0 90.71 C0.34 87.31 2.51 79.14 9.62 72.46 L18.25 81.09 C11.55 88.23 3.39 90.37 0 90.71 Z" class="st3"/>
				</g>
				<g id="shape939-21" transform="translate(8.29943,-8.29365)">
					<title>Sheet.939</title>
					<path d="M0 90.71 C0.71 87.38 2.63 82.36 6.59 77.92 L12.79 84.11 C7.79 88.6 2.44 90.19 0 90.71 Z" class="st6"/>
				</g>
				<g id="shape940-23" transform="translate(29.8095,-29.8103)">
					<title>Sheet.940</title>
					<ellipse cx="6.16743" cy="84.5412" rx="6.16743" ry="6.16743" class="st7"/>
				</g>
				<g id="shape941-25" transform="translate(31.3579,-31.3614)">
					<title>Sheet.941</title>
					<ellipse cx="4.61786" cy="86.0908" rx="4.61786" ry="4.61786" class="st3"/>
				</g>
				<g id="shape942-27" transform="translate(31.7912,-30.7161)">
					<title>Sheet.942</title>
					<path d="M8.37 83.49 C9.45 85.81 8.45 88.55 6.14 89.63 C3.83 90.71 1.08 89.71 0 87.4 L8.37 83.49 Z" class="st8"/>
				</g>
				<g id="shape943-29" transform="translate(11.5393,-11.5146)">
					<title>Sheet.943</title>
					<path d="M4.28 88.82 C2.89 90.21 0 90.71 0 90.71 C0 90.71 0.61 87.66 1.86 86.4 L13.46 74.81 L15.87 77.23 L4.28
								 88.82 Z" class="st2"/>
				</g>
			</g>
		</g>
	</g>
</svg>
