<?xml version="1.0" encoding="UTF-8" standalone="no"?>
<!DOCTYPE svg PUBLIC "-//W3C//DTD SVG 1.1//EN" "http://www.w3.org/Graphics/SVG/1.1/DTD/svg11.dtd">
<!-- Generated by Microsoft Visio, SVG Export Recent.svg Page-1 -->
<svg xmlns="http://www.w3.org/2000/svg" xmlns:xlink="http://www.w3.org/1999/xlink" xmlns:ev="http://www.w3.org/2001/xml-events"
		width="1.73185in" height="1.73185in" viewBox="0 0 124.693 124.693" xml:space="preserve" color-interpolation-filters="sRGB"
		class="st5">
	<style type="text/css">
	<![CDATA[
		.st1 {fill:url(#grad6-6);stroke:none;stroke-linecap:butt;stroke-width:34}
		.st2 {fill:#ffffff;stroke:none;stroke-linecap:butt;stroke-width:34}
		.st3 {fill:#7a7a7a;stroke:none;stroke-linecap:butt;stroke-width:34}
		.st4 {fill:url(#grad6-14);stroke:none;stroke-linecap:butt;stroke-width:34}
		.st5 {fill:none;fill-rule:evenodd;font-size:12px;overflow:visible;stroke-linecap:square;stroke-miterlimit:3}
	]]>
	</style>

	<defs id="Patterns_And_Gradients">
		<radialGradient id="grad6-6" cx="1" cy="0" r="1.4">
			<stop offset="0.185" stop-color="#5ea0ef" stop-opacity="1"/>
			<stop offset="0.555" stop-color="#5c9fee" stop-opacity="1"/>
			<stop offset="0.69" stop-color="#559ced" stop-opacity="1"/>
			<stop offset="0.785" stop-color="#4a97e9" stop-opacity="1"/>
			<stop offset="0.86" stop-color="#3990e4" stop-opacity="1"/>
			<stop offset="0.93" stop-color="#2387de" stop-opacity="1"/>
			<stop offset="0.985" stop-color="#087bd6" stop-opacity="1"/>
			<stop offset="1" stop-color="#0078d4" stop-opacity="1"/>
		</radialGradient>
		<radialGradient id="grad6-14" cx="1" cy="0" r="1.4">
			<stop offset="0" stop-color="#7f7f7f" stop-opacity="1"/>
			<stop offset="1" stop-color="#5e5e5e" stop-opacity="1"/>
		</radialGradient>
	</defs>
	<g>
		<title>Page-1</title>
		<g id="group922-1" transform="translate(34,-34)">
			<title>Recent</title>
			<g id="group923-2">
				<title>Sheet.923</title>
				<g id="shape924-3">
					<title>Sheet.924</title>
					<ellipse cx="28.3465" cy="96.3465" rx="28.3465" ry="28.3465" class="st1"/>
				</g>
				<g id="shape925-7" transform="translate(3.77842,-3.66503)">
					<title>Sheet.925</title>
					<ellipse cx="24.6814" cy="100.011" rx="24.6814" ry="24.6814" class="st2"/>
				</g>
				<g id="shape926-9" transform="translate(7.24002,-7.4868)">
					<title>Sheet.926</title>
					<path d="M32.69 91.37 L35.67 88.38 L36.64 89.35 L33.65 92.33 L32.69 91.37 ZM37.94 103.12 L42.17 103.12 L42.17
								 104.49 L37.94 104.49 L37.94 103.12 ZM32.49 116.05 L33.46 115.08 L36.44 118.07 L35.48 119.04 L32.49
								 116.05 ZM20.53 120.46 L21.9 120.46 L21.9 124.69 L20.53 124.69 L20.53 120.46 ZM5.66 89.21 L6.62 88.24
								 L9.61 91.23 L8.64 92.2 L5.66 89.21 ZM5.86 118.2 L8.85 115.21 L9.81 116.17 L6.82 119.16 L5.86 118.2
								 ZM0 103.12 L4.23 103.12 L4.23 104.49 L0 104.49 L0 103.12 ZM31.41 111.4 L24.24 104.23 A1.72747 1.72747
								 -180 0 0 23.07 103.74 A1.69078 1.69078 -180 0 0 23.28 102.94 L23.28 84.68 A1.74081 1.74081 -180
								 0 0 21.55 82.95 L21.22 82.95 A1.74081 1.74081 -180 0 0 19.48 84.68 L19.48 102.94 A1.74081 1.74081
								 -180 0 0 21.22 104.68 L21.41 104.68 A1.71413 1.71413 -180 0 0 21.55 106.91 L28.72 114.09 A1.73747
								 1.73747 -180 0 0 31.17 114.09 L31.41 113.85 A1.73747 1.73747 -180 0 0 31.41 111.4 Z" class="st3"/>
				</g>
				<g id="shape927-11" transform="translate(24.4613,-24.378)">
					<title>Sheet.927</title>
					<ellipse cx="4.01519" cy="120.678" rx="4.01519" ry="4.01519" class="st4"/>
				</g>
			</g>
		</g>
	</g>
</svg>
