<?xml version="1.0" encoding="UTF-8" standalone="no"?>
<!DOCTYPE svg PUBLIC "-//W3C//DTD SVG 1.1//EN" "http://www.w3.org/Graphics/SVG/1.1/DTD/svg11.dtd">
<!-- Generated by Microsoft Visio, SVG Export Regulatory Compliance.svg Page-1 -->
<svg xmlns="http://www.w3.org/2000/svg" xmlns:xlink="http://www.w3.org/1999/xlink" xmlns:ev="http://www.w3.org/2001/xml-events"
		width="1.28819in" height="1.39238in" viewBox="0 0 92.7496 100.251" xml:space="preserve" color-interpolation-filters="sRGB"
		class="st6">
	<style type="text/css">
	<![CDATA[
		.st1 {fill:#64707d;stroke:none;stroke-linecap:butt;stroke-width:18}
		.st2 {fill:#5168b1;stroke:none;stroke-linecap:butt;stroke-width:18}
		.st3 {fill:#7bc2e7;stroke:none;stroke-linecap:butt;stroke-width:18}
		.st4 {fill:#909ca8;stroke:none;stroke-linecap:butt;stroke-width:18}
		.st5 {fill:#565656;stroke:none;stroke-linecap:butt;stroke-width:18}
		.st6 {fill:none;fill-rule:evenodd;font-size:12px;overflow:visible;stroke-linecap:square;stroke-miterlimit:3}
	]]>
	</style>

	<g>
		<title>Page-1</title>
		<g id="group909-1" transform="translate(18,-28.3465)">
			<title>Regulatory Compliance</title>
			<g id="group910-2">
				<title> regulatory-compliance</title>
				<g id="shape911-3" transform="translate(28.2738,-10.6091)">
					<title>path6</title>
					<path d="M0 83.77 L4.17 77.74 L26.94 93.64 A3.57822 3.59625 0 0 1 27.84 98.64 L27.75 98.76 A3.57822 3.59625 0
								 0 1 22.77 99.67 L0 83.76 L0 83.77 Z" class="st1"/>
				</g>
				<g id="shape912-5" transform="translate(11.5727,-23.5466)">
					<title>path8</title>
					<path d="M0 91.06 L9.87 76.79 L23.03 85.98 L13.16 100.25 L0 91.06 Z" class="st2"/>
				</g>
				<g id="shape913-7" transform="translate(6.39684,-16.7647)">
					<title>path10</title>
					<path d="M0.47 87.93 L2.94 84.36 L18.86 95.47 L16.39 99.04 A2.90783 2.92248 0 0 1 12.34 99.78 L1.2 92 L1.2 92
								 A2.90783 2.92248 0 0 1 0.47 87.93 ZM32.68 75.48 L30.21 79.05 L14.3 67.93 L16.76 64.37 A2.90783 2.92248
								 0 0 1 20.81 63.63 L31.95 71.41 C33.27 72.33 33.6 74.15 32.68 75.48 L32.68 75.48 Z" class="st3"/>
				</g>
				<g id="shape914-9">
					<title>path12</title>
					<path d="M4.72 93.41 L28.17 93.41 A4.72125 4.74503 0 0 1 32.89 98.15 L32.89 100.25 L0 100.25 L0 98.15 A4.72125
								 4.74503 0 0 1 4.72 93.41 Z" class="st4"/>
				</g>
				<g id="shape915-11" transform="translate(9.3721,-21.5674)">
					<title>path14</title>
					<path d="M10.6 73.79 L11.32 72.74 L27.28 83.82 L26.55 84.88 L10.6 73.79 ZM0 89.13 L0.73 88.07 L16.66 99.2 L15.93
								 100.25 L0 89.13 Z" class="st5"/>
				</g>
				<g id="shape916-13" transform="translate(28.2738,-21.0368)">
					<title>path16</title>
					<path d="M12.93 94.28 L4.17 88.17 L0 94.2 L8.67 100.25 L12.93 94.28 L12.93 94.28 Z" class="st4"/>
				</g>
			</g>
		</g>
	</g>
</svg>
