<?xml version="1.0" encoding="UTF-8" standalone="no"?>
<!DOCTYPE svg PUBLIC "-//W3C//DTD SVG 1.1//EN" "http://www.w3.org/Graphics/SVG/1.1/DTD/svg11.dtd">
<!-- Generated by Microsoft Visio, SVG Export Relay.svg Page-1 -->
<svg xmlns="http://www.w3.org/2000/svg" xmlns:xlink="http://www.w3.org/1999/xlink" xmlns:ev="http://www.w3.org/2001/xml-events"
		width="1.73192in" height="1.65311in" viewBox="0 0 124.698 119.024" xml:space="preserve" color-interpolation-filters="sRGB"
		class="st6">
	<style type="text/css">
	<![CDATA[
		.st1 {fill:#949494;stroke:none;stroke-linecap:butt;stroke-width:34}
		.st2 {fill:#86d633;stroke:none;stroke-linecap:butt;stroke-width:34}
		.st3 {fill:url(#grad0-10);stroke:none;stroke-linecap:butt;stroke-width:34}
		.st4 {fill:#999999;stroke:none;stroke-linecap:butt;stroke-width:34}
		.st5 {fill:#999999;fill-opacity:0.5;stroke:none;stroke-linecap:butt;stroke-width:34}
		.st6 {fill:none;fill-rule:evenodd;font-size:12px;overflow:visible;stroke-linecap:square;stroke-miterlimit:3}
	]]>
	</style>

	<defs id="Patterns_And_Gradients">
		<linearGradient id="grad0-10" x1="0" y1="0" x2="1" y2="0" gradientTransform="rotate(-90 0.5 0.5)">
			<stop offset="0" stop-color="#6f4bb2" stop-opacity="1"/>
			<stop offset="1" stop-color="#c69aeb" stop-opacity="1"/>
		</linearGradient>
	</defs>
	<g>
		<title>Page-1</title>
		<g id="group889-1" transform="translate(34.0052,-34)">
			<title>Relay</title>
			<g id="group890-2">
				<title>Icon-integration-209</title>
				<g id="shape891-3" transform="translate(17.6645,-17.6815)">
					<title>Sheet.891</title>
					<path d="M21.66 117.74 L11.73 101.65 L10.83 102.22 L9.97 101.65 L0 117.74 L2.03 118.99 L10.83 104.74 L19.66 119.02
								 L21.66 117.74 Z" class="st1"/>
				</g>
				<g id="shape892-5" transform="translate(23.1971,-29.1997)">
					<title>Sheet.892</title>
					<ellipse cx="5.13269" cy="113.837" rx="5.13269" ry="5.18656" class="st2"/>
				</g>
				<g id="shape893-7" transform="translate(13.2983,-13.2022)">
					<title>Sheet.893</title>
					<ellipse cx="5.13269" cy="113.837" rx="5.13269" ry="5.18656" class="st3"/>
				</g>
				<g id="shape894-11" transform="translate(33.1292,-13.2022)">
					<title>Sheet.894</title>
					<ellipse cx="5.13269" cy="113.837" rx="5.13269" ry="5.18656" class="st3"/>
				</g>
				<g id="group895-14" transform="translate(-1.13909E-13,-37.9225)">
					<title>Sheet.895</title>
					<g id="shape896-15">
						<title>Sheet.896</title>
						<path d="M1.9 105.92 L6.2 105.92 L6.2 118.05 a0.966546 0.97669 0 0 1 -0.966546 0.97669 L0.97 119.02 a0.966546
									 0.97669 0 0 1 -0.966546 -0.97669 L0 107.94 A1.89976 1.9197 0 0 1 1.9 105.92 Z" class="st4"/>
					</g>
					<g id="shape897-17">
						<title>Sheet.897</title>
						<path d="M1.9 105.92 L6.2 105.92 L6.2 118.05 a0.966546 0.97669 0 0 1 -0.966546 0.97669 L0.97 119.02 a0.966546
									 0.97669 0 0 1 -0.966546 -0.97669 L0 107.94 A1.89976 1.9197 0 0 1 1.9 105.92 Z" class="st5"/>
					</g>
				</g>
				<g id="group898-19" transform="translate(50.427,-38.0235)">
					<title>Sheet.898</title>
					<g id="shape899-20">
						<title>Sheet.899</title>
						<path d="M0.03 106.02 L4.3 106.02 A1.89976 1.9197 0 0 1 6.2 107.94 L6.2 118.05 a0.966546 0.97669 0 0 1 -0.966546
									 0.97669 L0.97 119.02 a0.966546 0.97669 0 0 1 -0.966546 -0.97669 L0 106.02 L0.03 106.02 Z"
								class="st4"/>
					</g>
					<g id="shape900-22">
						<title>Sheet.900</title>
						<path d="M0.03 106.02 L4.3 106.02 A1.89976 1.9197 0 0 1 6.2 107.94 L6.2 118.05 a0.966546 0.97669 0 0 1 -0.966546
									 0.97669 L0.97 119.02 a0.966546 0.97669 0 0 1 -0.966546 -0.97669 L0 106.02 L0.03 106.02 Z"
								class="st5"/>
					</g>
				</g>
				<g id="shape901-24" transform="translate(0,-44.8604)">
					<title>Sheet.901</title>
					<path d="M56.66 114.78 L56.66 119.02 L0 119.02 L0 114.78 A1.89976 1.9197 0 0 1 1.9 112.86 L54.76 112.86 A1.89976
								 1.9197 0 0 1 56.66 114.78 Z" class="st1"/>
				</g>
				<g id="group902-26" transform="translate(1.1291E-13,-0.033679)">
					<title>Sheet.902</title>
					<g id="shape903-27">
						<title>Sheet.903</title>
						<path d="M0.97 105.92 L5.27 105.92 a0.966546 0.97669 0 0 1 0.966546 0.97669 L6.23 119.02 L1.9 119.02 A1.89976
									 1.9197 0 0 1 0 117.1 L0 107 a0.966546 0.97669 0 0 1 0.966546 -1.07773 Z" class="st4"/>
					</g>
					<g id="shape904-29">
						<title>Sheet.904</title>
						<path d="M0.97 105.92 L5.27 105.92 a0.966546 0.97669 0 0 1 0.966546 0.97669 L6.23 119.02 L1.9 119.02 A1.89976
									 1.9197 0 0 1 0 117.1 L0 107 a0.966546 0.97669 0 0 1 0.966546 -1.07773 Z" class="st5"/>
					</g>
				</g>
				<g id="group905-31" transform="translate(50.4604,-0.134716)">
					<title>Sheet.905</title>
					<g id="shape906-32">
						<title>Sheet.906</title>
						<path d="M0.93 106.02 L5.27 106.02 a0.966546 0.97669 0 0 1 0.966546 0.97669 L6.23 117.1 A1.89976 1.9197 0
									 0 1 4.33 119.02 L0 119.02 L0 106.9 a0.966546 0.97669 0 0 1 0.933217 -0.875653 Z" class="st4"/>
					</g>
					<g id="shape907-34">
						<title>Sheet.907</title>
						<path d="M0.93 106.02 L5.27 106.02 a0.966546 0.97669 0 0 1 0.966546 0.97669 L6.23 117.1 A1.89976 1.9197 0
									 0 1 4.33 119.02 L0 119.02 L0 106.9 a0.966546 0.97669 0 0 1 0.933217 -0.875653 Z" class="st5"/>
					</g>
				</g>
				<g id="shape908-36">
					<title>Sheet.908</title>
					<path d="M0 117.1 L0 112.86 L56.66 112.86 L56.66 117.1 A1.89976 1.9197 0 0 1 54.76 119.02 L1.9 119.02 A1.89976
								 1.9197 0 0 1 -0 117.1 Z" class="st1"/>
				</g>
			</g>
		</g>
	</g>
</svg>
