<?xml version="1.0" encoding="UTF-8" standalone="no"?>
<!DOCTYPE svg PUBLIC "-//W3C//DTD SVG 1.1//EN" "http://www.w3.org/Graphics/SVG/1.1/DTD/svg11.dtd">
<!-- Generated by Microsoft Visio, SVG Export Reserved IP Address (Classic).svg Page-1 -->
<svg xmlns="http://www.w3.org/2000/svg" xmlns:xlink="http://www.w3.org/1999/xlink" xmlns:ev="http://www.w3.org/2001/xml-events"
		width="1.1274in" height="1.23299in" viewBox="0 0 81.1729 88.7754" xml:space="preserve" color-interpolation-filters="sRGB"
		class="st4">
	<style type="text/css">
	<![CDATA[
		.st1 {fill:#59b4d9;stroke:none;stroke-linecap:butt;stroke-width:12.24}
		.st2 {fill:#0072c6;stroke:none;stroke-linecap:butt;stroke-width:12.24}
		.st3 {fill:#ffffff;stroke:none;stroke-linecap:butt;stroke-width:12.24}
		.st4 {fill:none;fill-rule:evenodd;font-size:12px;overflow:visible;stroke-linecap:square;stroke-miterlimit:3}
	]]>
	</style>

	<g>
		<title>Page-1</title>
		<g id="group856-1" transform="translate(12.24,-28.3465)">
			<title>Reserved IP Address (Classic)</title>
			<g id="group857-2">
				<title>Sheet.857</title>
				<g id="shape858-3">
					<title>Sheet.858</title>
					<path d="M0 86.51 C0 87.76 1.02 88.78 2.27 88.78 L54.43 88.78 C55.67 88.78 56.69 87.76 56.69 86.51 L56.69 51.11
								 L0 51.11 L0 86.51 Z" class="st1"/>
				</g>
				<g id="shape859-5" transform="translate(0,-33.9359)">
					<title>Sheet.859</title>
					<path d="M54.43 74.52 L2.27 74.52 C1.02 74.52 0 75.54 0 76.78 L0 88.78 L56.69 88.78 L56.69 76.78 C56.69 75.54
								 55.67 74.52 54.43 74.52 Z" class="st2"/>
				</g>
				<g id="shape860-7" transform="translate(14.6268,-38.3476)">
					<title>Sheet.860</title>
					<rect x="0" y="84.3638" width="38.211" height="4.41167" class="st3"/>
				</g>
				<g id="shape861-9" transform="translate(1.70079,-35.0671)">
					<title>Sheet.861</title>
					<path d="M11.11 83.23 C11.11 86.29 8.62 88.78 5.56 88.78 C2.49 88.78 0 86.29 0 83.23 C0 80.18 2.49 77.69 5.56
								 77.69 C8.62 77.69 11.11 80.18 11.11 83.23 Z" class="st1"/>
				</g>
				<g id="shape862-11" transform="translate(4.53543,-37.3295)">
					<title>Sheet.862</title>
					<path d="M2.15 86.06 L4.65 88.78 L3.29 88.78 L0 85.61 L3.29 82.33 L4.65 82.33 L2.15 85.04 L8.28 85.04 L8.28 86.06
								 L2.15 86.06 Z" class="st3"/>
				</g>
				<g id="shape863-13" transform="translate(14.8535,-9.72829)">
					<title>Sheet.863</title>
					<path d="M4.88 86.63 C4.88 87.3 4.65 87.76 4.2 88.21 C3.74 88.66 3.17 88.78 2.38 88.78 C1.7 88.78 1.13 88.55
								 0.68 88.1 C0.23 87.64 0 87.19 0 86.51 C0 85.83 0.23 85.38 0.68 84.93 C1.13 84.48 1.7 84.36 2.49
								 84.36 C3.17 84.36 3.74 84.59 4.2 85.04 C4.65 85.49 4.88 85.95 4.88 86.63 ZM14.97 86.63 C14.97 87.3
								 14.74 87.76 14.29 88.21 C13.83 88.66 13.27 88.78 12.47 88.78 C11.79 88.78 11.23 88.55 10.77 88.1
								 C10.32 87.64 10.09 87.19 10.09 86.51 C10.09 85.83 10.32 85.38 10.77 84.93 C11.23 84.48 11.79 84.36
								 12.59 84.36 C13.27 84.36 13.83 84.59 14.29 85.04 C14.74 85.49 14.97 85.95 14.97 86.63 ZM25.06 86.63
								 C25.06 87.3 24.83 87.76 24.38 88.21 C23.92 88.66 23.36 88.78 22.56 88.78 C21.88 88.78 21.32 88.55
								 20.86 88.1 C20.41 87.64 20.18 87.19 20.18 86.51 C20.18 85.83 20.41 85.38 20.86 84.93 C21.32 84.48
								 21.88 84.36 22.68 84.36 C23.36 84.36 23.92 84.59 24.38 85.04 C24.83 85.49 25.06 85.95 25.06 86.63
								 Z" class="st2"/>
				</g>
			</g>
		</g>
	</g>
</svg>
