<?xml version="1.0" encoding="UTF-8" standalone="no"?>
<!DOCTYPE svg PUBLIC "-//W3C//DTD SVG 1.1//EN" "http://www.w3.org/Graphics/SVG/1.1/DTD/svg11.dtd">
<!-- Generated by Microsoft Visio, SVG Export Reservation.svg Page-1 -->
<svg xmlns="http://www.w3.org/2000/svg" xmlns:xlink="http://www.w3.org/1999/xlink" xmlns:ev="http://www.w3.org/2001/xml-events"
		width="1.73209in" height="1.73185in" viewBox="0 0 124.71 124.693" xml:space="preserve" color-interpolation-filters="sRGB"
		class="st6">
	<style type="text/css">
	<![CDATA[
		.st1 {fill:#b0b0b0;stroke:none;stroke-linecap:butt;stroke-width:34}
		.st2 {fill:#ffffff;stroke:none;stroke-linecap:butt;stroke-width:34}
		.st3 {fill:#7a7a7a;stroke:none;stroke-linecap:butt;stroke-width:34}
		.st4 {fill:url(#grad0-24);stroke:none;stroke-linecap:butt;stroke-width:34}
		.st5 {fill:url(#grad3-32);stroke:none;stroke-linecap:butt;stroke-width:34}
		.st6 {fill:none;fill-rule:evenodd;font-size:12px;overflow:visible;stroke-linecap:square;stroke-miterlimit:3}
	]]>
	</style>

	<defs id="Patterns_And_Gradients">
		<linearGradient id="grad0-24" x1="0" y1="0" x2="1" y2="0" gradientTransform="rotate(0 0.5 0.5)">
			<stop offset="0" stop-color="#7956ba" stop-opacity="1"/>
			<stop offset="0.69" stop-color="#724eb4" stop-opacity="1"/>
			<stop offset="0.87" stop-color="#6f4bb2" stop-opacity="1"/>
		</linearGradient>
		<radialGradient id="grad3-32" cx="0.5" cy="0.5" r="0.73">
			<stop offset="0" stop-color="#7f7f7f" stop-opacity="1"/>
			<stop offset="1" stop-color="#5e5e5e" stop-opacity="1"/>
		</radialGradient>
	</defs>
	<g>
		<title>Page-1</title>
		<g id="group864-1" transform="translate(34,-34)">
			<title>Reservation</title>
			<g id="group865-2">
				<title>Sheet.865</title>
				<g id="shape866-3">
					<title>Sheet.866</title>
					<ellipse cx="28.3465" cy="96.3465" rx="28.3465" ry="28.3465" class="st1"/>
				</g>
				<g id="shape867-5" transform="translate(4.20195,-4.36869)">
					<title>Sheet.867</title>
					<ellipse cx="24.0778" cy="100.615" rx="24.0778" ry="24.0778" class="st2"/>
				</g>
				<g id="shape868-7" transform="translate(-47.5273,-3.36767) rotate(-45)">
					<title>Sheet.868</title>
					<rect x="0" y="123.326" width="4.23529" height="1.3673" class="st3"/>
				</g>
				<g id="shape869-9" transform="translate(44.9541,-27.6795)">
					<title>Sheet.869</title>
					<rect x="0" y="123.326" width="4.23529" height="1.3673" class="st3"/>
				</g>
				<g id="shape870-11" transform="translate(-45.7132,23.4116) rotate(-45)">
					<title>Sheet.870</title>
					<rect x="0" y="120.458" width="1.3673" height="4.23529" class="st3"/>
				</g>
				<g id="shape871-13" transform="translate(27.5127,-7.40343)">
					<title>Sheet.871</title>
					<rect x="0" y="120.458" width="1.3673" height="4.23529" class="st3"/>
				</g>
				<g id="shape872-15" transform="translate(-72.6005,-3.50025) rotate(-45)">
					<title>Sheet.872</title>
					<rect x="0" y="120.458" width="1.3673" height="4.23529" class="st3"/>
				</g>
				<g id="shape873-17" transform="translate(-74.4392,23.5528) rotate(-45)">
					<title>Sheet.873</title>
					<rect x="0" y="123.326" width="4.23529" height="1.3673" class="st3"/>
				</g>
				<g id="shape874-19" transform="translate(6.9032,-27.6795)">
					<title>Sheet.874</title>
					<rect x="0" y="123.326" width="4.23529" height="1.3673" class="st3"/>
				</g>
				<g id="shape875-21" transform="translate(5.56925,-2.30969)">
					<title>Sheet.875</title>
					<path d="M22.81 70.31 A2.03428 2.03428 -180 0 0 20.78 72.38 A2.10097 2.10097 -180 0 0 22.84 74.48 A24.2112 24.2112
								 0 1 1 4.97 82.32 L6.67 84.78 L11.41 74.24 L0 75.58 L2.5 78.91 A28.3131 28.3131 -180 1 0 22.81 70.31
								 Z" class="st4"/>
				</g>
				<g id="shape876-25" transform="translate(26.5456,-27.446)">
					<title>Sheet.876</title>
					<path d="M-0 122.96 A1.73418 1.73418 -180 0 0 1.73 124.69 L2.07 124.69 A1.73418 1.73418 -180 0 0 3.8 122.96 L3.8
								 104.72 A1.73418 1.73418 -180 0 0 2.07 102.98 L1.73 102.98 A1.73418 1.73418 -180 0 0 -0 104.72 L0
								 122.96 Z" class="st3"/>
				</g>
				<g id="shape877-27" transform="translate(118.232,183.761) rotate(135)">
					<title>Sheet.877</title>
					<path d="M-0 122.96 A1.73418 1.73418 -180 0 0 1.73 124.69 L2.07 124.69 A1.73418 1.73418 -180 0 0 3.8 122.96 L3.8
								 112.82 A1.73418 1.73418 -180 0 0 2.07 111.09 L1.73 111.09 A1.73418 1.73418 -180 0 0 0 112.82 L0
								 122.96 Z" class="st3"/>
				</g>
				<g id="shape878-29" transform="translate(24.2779,-24.3446)">
					<title>Sheet.878</title>
					<ellipse cx="4.00185" cy="120.691" rx="4.00185" ry="4.00185" class="st5"/>
				</g>
			</g>
		</g>
	</g>
</svg>
