<?xml version="1.0" encoding="UTF-8" standalone="no"?>
<!DOCTYPE svg PUBLIC "-//W3C//DTD SVG 1.1//EN" "http://www.w3.org/Graphics/SVG/1.1/DTD/svg11.dtd">
<!-- Generated by Microsoft Visio, SVG Export Resource Explorer.svg Page-1 -->
<svg xmlns="http://www.w3.org/2000/svg" xmlns:xlink="http://www.w3.org/1999/xlink" xmlns:ev="http://www.w3.org/2001/xml-events"
		width="1.12742in" height="1.27236in" viewBox="0 0 81.174 91.6101" xml:space="preserve" color-interpolation-filters="sRGB"
		class="st6">
	<style type="text/css">
	<![CDATA[
		.st1 {fill:#fee087;stroke:none;stroke-linecap:butt;stroke-width:12.24}
		.st2 {fill:#dd5900;stroke:none;stroke-linecap:butt;stroke-width:12.24}
		.st3 {fill:#ff8c00;stroke:none;stroke-linecap:butt;stroke-width:12.24}
		.st4 {fill:#ff8c00;fill-opacity:0.5;stroke:none;stroke-linecap:butt;stroke-width:12.24}
		.st5 {fill:#1e1e1e;fill-opacity:0.2;stroke:none;stroke-linecap:butt;stroke-width:12.24}
		.st6 {fill:none;fill-rule:evenodd;font-size:12px;overflow:visible;stroke-linecap:square;stroke-miterlimit:3}
	]]>
	</style>

	<g>
		<title>Page-1</title>
		<g id="group849-1" transform="translate(12.2411,-28.3465)">
			<title>Resource Explorer</title>
			<g id="group850-2">
				<title>Sheet.850</title>
				<g id="shape851-3" transform="translate(0,-0.0761442)">
					<title>Sheet.851</title>
					<path d="M54.5 51.62 L54.5 47.22 L24.83 47.22 L18.1 40.66 L0 40.66 L0 88.99 C0 90.44 1.2 91.61 2.69 91.61 L54
								 91.61 A2.68957 2.62256 -180 0 0 56.69 88.99 L56.69 51.62 L54.5 51.62 Z" class="st1"/>
				</g>
				<g id="shape852-5" transform="translate(17.7944,-22.338)">
					<title>Sheet.852</title>
					<path d="M11.89 91.61 a0.362842 0.353802 0 0 1 -0.175752 -0.0486478 L0.17 85.07 a0.350369 0.34164 0 0 1 -4.7462E-15
								 -0.589301 L11.64 78.03 a0.356039 0.347168 0 0 1 0.346968 5.68434E-14 L23.53 84.52 a0.345834 0.337217
								 0 0 1 0.17235 0.292992 a0.348101 0.339429 0 0 1 -0.17235 0.295203 L12.06 91.56 a0.343566 0.335006
								 0 0 1 -0.175752 0.0486478 Z" class="st2"/>
				</g>
				<g id="shape853-7" transform="translate(16.168,-6.55404)">
					<title>Sheet.853</title>
					<path d="M11.85 91.61 a0.331093 0.322844 0 0 1 -0.175752 -0.0453309 L0.18 85.09 a0.342432 0.333901 0 0 1 -0.176885
								 -0.295203 L0 71.81 a0.351503 0.342746 0 0 1 0.176885 -0.297415 a0.36511 0.356013 0 0 1 0.351503
								 1.42109E-14 L12.03 77.98 a0.362842 0.353802 0 0 1 0.170082 0.296309 L12.2 91.27 C12.2 91.39 12.13
								 91.5 12.03 91.56 a0.360574 0.351591 0 0 1 -0.174618 0.0453309 Z" class="st3"/>
				</g>
				<g id="shape854-9" transform="translate(30.9277,-6.55404)">
					<title>Sheet.854</title>
					<path d="M0.35 91.61 a0.357172 0.348274 0 0 1 -0.178019 -0.0453309 a0.350369 0.34164 0 0 1 -0.17235 -0.295203
								 L0 78.36 C0 78.24 0.07 78.13 0.17 78.07 L11.67 71.59 a0.351503 0.342746 0 0 1 0.523853 0.294098
								 L12.19 84.8 a0.346968 0.338323 0 0 1 -0.176885 0.295203 L0.52 91.56 a0.311817 0.304049 0 0 1 -0.170082
								 0.0453309 Z" class="st4"/>
				</g>
				<g id="shape855-11">
					<title>Sheet.855</title>
					<path d="M5.38 51.55 L5.38 88.91 A2.68957 2.62256 0 1 1 0 88.91 L0 40.59 L18.1 40.59 L24.83 47.15 L54.5 47.15
								 L54.5 51.55 L5.38 51.55 Z" class="st5"/>
				</g>
			</g>
		</g>
	</g>
</svg>
