<?xml version="1.0" encoding="UTF-8" standalone="no"?>
<!DOCTYPE svg PUBLIC "-//W3C//DTD SVG 1.1//EN" "http://www.w3.org/Graphics/SVG/1.1/DTD/svg11.dtd">
<!-- Generated by Microsoft Visio, SVG Export Resource Health.svg Page-1 -->
<svg xmlns="http://www.w3.org/2000/svg" xmlns:xlink="http://www.w3.org/1999/xlink" xmlns:ev="http://www.w3.org/2001/xml-events"
		width="1.72775in" height="1.69315in" viewBox="0 0 124.398 121.907" xml:space="preserve" color-interpolation-filters="sRGB"
		class="st5">
	<style type="text/css">
	<![CDATA[
		.st1 {fill:url(#grad0-6);stroke:none;stroke-linecap:butt;stroke-width:34}
		.st2 {fill:none}
		.st3 {stroke:none;stroke-linecap:butt;stroke-width:34}
		.st4 {fill:#ffffff}
		.st5 {fill:none;fill-rule:evenodd;font-size:12px;overflow:visible;stroke-linecap:square;stroke-miterlimit:3}
	]]>
	</style>

	<defs id="Patterns_And_Gradients">
		<linearGradient id="grad0-6" x1="0" y1="0" x2="1" y2="0" gradientTransform="rotate(-90 0.5 0.5)">
			<stop offset="0" stop-color="#1988d9" stop-opacity="1"/>
			<stop offset="0.22" stop-color="#218ddc" stop-opacity="1"/>
			<stop offset="0.56" stop-color="#379ce5" stop-opacity="1"/>
			<stop offset="0.9" stop-color="#54aef0" stop-opacity="1"/>
		</linearGradient>
	</defs>
	<g>
		<title>Page-1</title>
		<g id="group815-1" transform="translate(33.8524,-34)">
			<title>Resource Health</title>
			<g id="group816-2">
				<title>g8</title>
				<g id="shape817-3">
					<title>path2</title>
					<path d="M28.36 121.91 C55.5 102.27 56.43 90.8 56.53 87.22 C56.69 82.19 56.03 69.09 42.76 68.05 A14.1318 14.2773
								 -180 0 0 28.36 77.6 A14.1981 14.3443 -180 0 0 13.8 68.05 C0.7 69.09 0 82.19 0.17 87.22 C0.17 90.8
								 1.23 102.27 28.36 121.91 Z" class="st1"/>
				</g>
				<g id="shape818-7" transform="translate(0,-0.167574)">
					<title>path4</title>
					<path d="M56.53 87.39 C56.69 82.36 56.03 69.25 42.76 68.22 A14.1318 14.2773 -180 0 0 28.36 77.77 A14.1981 14.3443
								 -180 0 0 13.8 68.22 C0.7 69.25 0 82.36 0.17 87.39 C0.17 90.97 0.96 102.27 28.13 121.91 L56.53 87.39
								 Z" class="st2"/>
					<path d="M56.53 87.39 C56.69 82.36 56.03 69.25 42.76 68.22 A14.1318 14.2773 -180 0 0 28.36 77.77 A14.1981 14.3443
								 -180 0 0 13.8 68.22 C0.7 69.25 0 82.36 0.17 87.39 C0.17 90.97 0.96 102.27 28.13 121.91"
							class="st3"/>
				</g>
				<g id="shape819-10" transform="translate(4.34568,-12.9687)">
					<title>path6</title>
					<path d="M52.18 98.21 L38.91 98.21 a0.563944 0.569751 -180 0 0 -0.431251 0.234604 L34.47 105.45 a0.53077 0.536237
								 0 0 1 -0.895675 -7.10543E-14 L27.83 94.42 A1.02837 1.03896 -180 0 0 25.97 94.42 L20.47 111.01 a0.53077
								 0.536237 0 0 1 -0.962021 -4.26326E-14 L14.8 99.99 A1.02837 1.03896 -180 0 0 12.97 99.99 L6.54 111.68
								 a0.53077 0.536237 0 0 1 -0.431251 0.268118 L0 111.95 A43.1251 43.5692 -180 0 0 2.99 116.04 L8.56
								 116.04 a0.431251 0.435692 -180 0 0 0.431251 -0.268118 L13 108.3 a0.53077 0.536237 0 0 1 0.928848
								 0 L19.44 121.23 A1.02837 1.03896 -180 0 0 21.36 121.23 L27.17 103.81 a0.497597 0.502722 0 0 1 0.928848
								 -4.26326E-14 L32.94 113.09 a0.995195 1.00544 -180 0 0 1.75818 0 L40.87 102.6 a0.53077 0.536237 0
								 0 1 0.431251 -0.268118 L52.02 102.33 L52.18 98.21 Z" class="st4"/>
					<path d="M52.18 98.21 L38.91 98.21 a0.563944 0.569751 -180 0 0 -0.431251 0.234604 L34.47 105.45 a0.53077 0.536237
								 0 0 1 -0.895675 -7.10543E-14 L27.83 94.42 A1.02837 1.03896 -180 0 0 25.97 94.42 L20.47 111.01 a0.53077
								 0.536237 0 0 1 -0.962021 -4.26326E-14 L14.8 99.99 A1.02837 1.03896 -180 0 0 12.97 99.99 L6.54 111.68
								 a0.53077 0.536237 0 0 1 -0.431251 0.268118 L0 111.95 A43.1251 43.5692 -180 0 0 2.99 116.04 L8.56
								 116.04 a0.431251 0.435692 -180 0 0 0.431251 -0.268118 L13 108.3 a0.53077 0.536237 0 0 1 0.928848
								 0 L19.44 121.23 A1.02837 1.03896 -180 0 0 21.36 121.23 L27.17 103.81 a0.497597 0.502722 0 0 1 0.928848
								 -4.26326E-14 L32.94 113.09 a0.995195 1.00544 -180 0 0 1.75818 0 L40.87 102.6 a0.53077 0.536237 0
								 0 1 0.431251 -0.268118 L52.02 102.33" class="st3"/>
				</g>
			</g>
		</g>
	</g>
</svg>
