<?xml version="1.0" encoding="UTF-8" standalone="no"?>
<!DOCTYPE svg PUBLIC "-//W3C//DTD SVG 1.1//EN" "http://www.w3.org/Graphics/SVG/1.1/DTD/svg11.dtd">
<!-- Generated by Microsoft Visio, SVG Export Resource Graph Query.svg Page-1 -->
<svg xmlns="http://www.w3.org/2000/svg" xmlns:xlink="http://www.w3.org/1999/xlink" xmlns:ev="http://www.w3.org/2001/xml-events"
		width="1.73185in" height="1.73185in" viewBox="0 0 124.693 124.693" xml:space="preserve" color-interpolation-filters="sRGB"
		class="st5">
	<style type="text/css">
	<![CDATA[
		.st1 {fill:#552f99;stroke:none;stroke-linecap:butt;stroke-width:34}
		.st2 {fill:#ffffff;stroke:none;stroke-linecap:butt;stroke-width:34}
		.st3 {fill:#b796f9;stroke:none;stroke-linecap:butt;stroke-width:34}
		.st4 {fill:#9a5fe3;stroke:none;stroke-linecap:butt;stroke-width:34}
		.st5 {fill:none;fill-rule:evenodd;font-size:12px;overflow:visible;stroke-linecap:square;stroke-miterlimit:3}
	]]>
	</style>

	<g>
		<title>Page-1</title>
		<g id="group831-1" transform="translate(34,-34)">
			<title>Resource Graph Query</title>
			<g id="group832-2">
				<title>Sheet.832</title>
				<g id="shape833-3" transform="translate(0,-17.6012)">
					<title>Sheet.833</title>
					<path d="M0 122.75 A1.92682 1.94474 -180 0 0 1.93 124.69 L36.8 124.69 A1.92682 1.94474 -180 0 0 38.73 122.75
								 L38.73 87.55 A1.92682 1.94474 -180 0 0 36.8 85.6 L1.93 85.6 A1.92682 1.94474 -180 0 0 0 87.55 L0
								 122.75 Z" class="st1"/>
				</g>
				<g id="shape834-5" transform="translate(2.87383,-44.6621)">
					<title>Sheet.834</title>
					<path d="M0.62 119.02 L32.4 119.02 C32.72 119.02 33.02 119.02 33.02 119.22 L33.02 124.53 C33.02 124.53 32.72
								 124.69 32.4 124.69 L0.62 124.69 C0.26 124.53 0 124.53 0 124.53 L0 119.22 C0 119.22 0.26 119.02 0.62
								 119.02 Z" class="st2"/>
				</g>
				<g id="shape835-7" transform="translate(2.87383,-24.1604)">
					<title>Sheet.835</title>
					<path d="M0.62 108.9 L33.02 108.9 L33.02 114.31 L0 114.31 L0 109.07 C0 109.07 0.26 108.9 0.62 108.9 ZM0.62 119.29
								 L33.02 119.29 L33.02 124.53 C33.02 124.53 32.72 124.69 32.4 124.69 L0.62 124.69 C0.26 124.69 0 124.69
								 0 124.53 L0 119.45 C0 119.45 0.26 119.29 0.62 119.29 Z" class="st3"/>
				</g>
				<g id="shape836-9" transform="translate(28.7803,-5.27376)">
					<title>Sheet.836</title>
					<path d="M17.46 124.69 L0.28 107.26 A1.33895 1.3514 0 0 1 1.26 104.95 L23.11 104.95 L23.11 107.69 L4.5 107.69
								 L19.39 122.91 L17.46 124.69 Z" class="st3"/>
				</g>
				<g id="shape837-11" transform="translate(26.7789,-19.7436)">
					<title>Sheet.837</title>
					<ellipse cx="3.75558" cy="120.902" rx="3.75558" ry="3.79051" class="st4"/>
				</g>
				<g id="shape838-13" transform="translate(47.0917,-19.2163)">
					<title>Sheet.838</title>
					<ellipse cx="4.80061" cy="119.848" rx="4.80061" ry="4.84527" class="st4"/>
				</g>
				<g id="shape839-15" transform="translate(40.7562,0)">
					<title>Sheet.839</title>
					<ellipse cx="6.1069" cy="118.562" rx="6.1069" ry="6.13075" class="st4"/>
				</g>
			</g>
		</g>
	</g>
</svg>
