<?xml version="1.0" encoding="UTF-8" standalone="no"?>
<!DOCTYPE svg PUBLIC "-//W3C//DTD SVG 1.1//EN" "http://www.w3.org/Graphics/SVG/1.1/DTD/svg11.dtd">
<!-- Generated by Microsoft Visio, SVG Export REST.svg Page-1 -->
<svg xmlns="http://www.w3.org/2000/svg" xmlns:xlink="http://www.w3.org/1999/xlink" xmlns:ev="http://www.w3.org/2001/xml-events"
		width="0.944882in" height="1.25984in" viewBox="0 0 68.0315 90.7087" xml:space="preserve" color-interpolation-filters="sRGB"
		class="st4">
	<style type="text/css">
	<![CDATA[
		.st1 {fill:#004b1c;stroke:none;stroke-linecap:butt;stroke-width:8.97581}
		.st2 {fill:#006020;stroke:none;stroke-linecap:butt;stroke-width:8.97581}
		.st3 {fill:#ffffff;stroke:none;stroke-linecap:butt;stroke-width:8.97581}
		.st4 {fill:none;fill-rule:evenodd;font-size:12px;overflow:visible;stroke-linecap:square;stroke-miterlimit:3}
	]]>
	</style>

	<g>
		<title>Page-1</title>
		<g id="group810-1" transform="translate(5.66929,-28.3465)">
			<title>REST</title>
			<g id="group811-2">
				<title>layer1</title>
				<g id="shape812-3" transform="translate(-35.7943,26.568) rotate(-45)">
					<title>circle2</title>
					<ellipse cx="20.044" cy="70.6647" rx="20.044" ry="20.044" class="st1"/>
				</g>
				<g id="shape813-5" transform="translate(14.1703,-14.1732)">
					<title>path4</title>
					<path d="M28.35 62.36 A20.044 20.044 0 0 1 28.35 90.71 L0 62.36 A20.044 20.044 0 0 1 28.35 62.36 Z" class="st2"/>
				</g>
				<g id="shape814-7" transform="translate(13.0582,-22.9795)">
					<title>path6</title>
					<path d="M6.41 90.51 L4.64 87.14 A6.69857 6.69857 -180 0 0 4.13 86.31 A2.61865 2.61865 -180 0 0 3.62 85.77 A1.69404
								 1.69404 -180 0 0 3.06 85.48 A2.41174 2.41174 -180 0 0 2.41 85.4 L1.06 85.4 L1.06 90.51 L0 90.51
								 L0 78.74 L3.39 78.74 A4.2157 4.2157 0 0 1 4.68 78.93 A3.40748 3.40748 0 0 1 5.79 79.52 A2.84495
								 2.84495 0 0 1 6.56 80.49 A2.9872 2.9872 0 0 1 6.85 81.84 A3.38161 3.38161 0 0 1 6.67 82.99 A2.9484
								 2.9484 0 0 1 6.13 83.92 A3.18764 3.18764 0 0 1 5.28 84.61 A4.03466 4.03466 0 0 1 4.16 85.03 L4.16
								 85.06 A1.81042 1.81042 0 0 1 4.6 85.32 A2.61865 2.61865 0 0 1 4.98 85.69 A4.78469 4.78469 0 0 1
								 5.34 86.2 C5.46 86.39 5.59 86.61 5.72 86.85 L7.69 90.51 L6.41 90.51 ZM1.06 79.74 L1.06 84.4 L3 84.4
								 A3.2329 3.2329 -180 0 0 4.09 84.22 A2.40528 2.40528 -180 0 0 4.93 83.73 A2.22423 2.22423 -180 0
								 0 5.47 82.96 A2.58632 2.58632 -180 0 0 5.66 81.95 A2.04319 2.04319 -180 0 0 5.02 80.33 A2.78676
								 2.78676 -180 0 0 3.08 79.74 L1.06 79.74 ZM9.27 90.51 L9.27 78.74 L15.01 78.74 L15.01 79.74 L10.36
								 79.74 L10.36 84.05 L14.64 84.05 L14.64 85.03 L10.36 85.03 L10.36 89.51 L15.29 89.51 L15.29 90.51
								 L9.27 90.51 ZM16.85 88.79 A4.12518 4.12518 -180 0 0 17.5 89.19 A5.25669 5.25669 -180 0 0 18.98 89.67
								 A4.41614 4.41614 -180 0 0 19.7 89.73 A3.2329 3.2329 -180 0 0 21.71 89.22 A1.77163 1.77163 -180 0
								 0 22.35 87.73 A1.99793 1.99793 -180 0 0 22.2 86.91 A2.02379 2.02379 -180 0 0 21.71 86.27 A5.01099
								 5.01099 -180 0 0 20.88 85.67 C20.55 85.47 20.15 85.25 19.7 85.02 C19.25 84.79 18.82 84.53 18.41
								 84.24 A4.7071 4.7071 0 0 1 17.53 83.49 A2.5152 2.5152 0 0 1 17.03 82.67 A2.96134 2.96134 0 0 1 16.87
								 81.66 A2.65744 2.65744 0 0 1 17.17 80.36 A2.9872 2.9872 0 0 1 17.99 79.4 A3.78249 3.78249 0 0 1
								 19.2 78.79 A4.99806 4.99806 0 0 1 20.68 78.57 A6.11018 6.11018 0 0 1 23.01 78.96 L23.01 80.17 A4.82348
								 4.82348 -180 0 0 20.59 79.52 A3.73723 3.73723 -180 0 0 19.6 79.65 A2.58632 2.58632 -180 0 0 18.78
								 80.03 A1.80396 1.80396 -180 0 0 18.23 80.64 A1.7393 1.7393 -180 0 0 18.03 81.49 A2.09492 2.09492
								 -180 0 0 18.17 82.28 A1.88155 1.88155 -180 0 0 18.6 82.92 A4.11871 4.11871 -180 0 0 19.39 83.51
								 C19.71 83.71 20.11 83.92 20.59 84.16 A14.3929 14.3929 0 0 1 21.88 84.93 A5.03686 5.03686 0 0 1 22.8
								 85.71 A2.85788 2.85788 0 0 1 23.34 86.57 A2.7415 2.7415 0 0 1 23.52 87.59 A3.06479 3.06479 0 0 1
								 23.24 88.94 A2.64451 2.64451 0 0 1 22.4 89.93 A3.67257 3.67257 0 0 1 21.17 90.51 A5.88388 5.88388
								 0 0 1 19.6 90.71 A5.81922 5.81922 0 0 1 18.96 90.66 A7.6943 7.6943 0 0 1 18.18 90.53 A7.27402 7.27402
								 0 0 1 17.43 90.33 A2.71563 2.71563 0 0 1 16.85 90.07 L16.85 88.79 ZM28.9 79.74 L28.9 90.51 L27.81
								 90.51 L27.81 79.74 L24.41 79.74 L24.41 78.74 L32.3 78.74 L32.3 79.74 L28.9 79.74 Z" class="st3"/>
				</g>
			</g>
		</g>
	</g>
</svg>
