<?xml version="1.0" encoding="UTF-8" standalone="no"?>
<!DOCTYPE svg PUBLIC "-//W3C//DTD SVG 1.1//EN" "http://www.w3.org/Graphics/SVG/1.1/DTD/svg11.dtd">
<!-- Generated by Microsoft Visio, SVG Export Review Access.svg Page-1 -->
<svg xmlns="http://www.w3.org/2000/svg" xmlns:xlink="http://www.w3.org/1999/xlink" xmlns:ev="http://www.w3.org/2001/xml-events"
		width="1.00929in" height="1.3511in" viewBox="0 0 72.669 97.2794" xml:space="preserve" color-interpolation-filters="sRGB"
		class="st6">
	<style type="text/css">
	<![CDATA[
		.st1 {fill:#3999c6;stroke:none;stroke-linecap:butt;stroke-width:12.24}
		.st2 {fill:#ffffff;stroke:none;stroke-linecap:butt;stroke-width:12.24}
		.st3 {fill:#3999c6;fill-opacity:0.4;stroke:none;stroke-linecap:butt;stroke-width:12.24}
		.st4 {fill:#7a7a7a;stroke:none;stroke-linecap:butt;stroke-width:12.24}
		.st5 {fill:#000000;fill-opacity:0.4;stroke:none;stroke-linecap:butt;stroke-width:12.24}
		.st6 {fill:none;fill-rule:evenodd;font-size:12px;overflow:visible;stroke-linecap:square;stroke-miterlimit:3}
	]]>
	</style>

	<g>
		<title>Page-1</title>
		<g id="group802-1" transform="translate(12.24,-28.3465)">
			<title>Review Access</title>
			<g id="group803-2">
				<title>g16</title>
				<g id="shape804-3" transform="translate(0,-11.5936)">
					<title>path4</title>
					<path d="M25.28 61.34 C25.28 66.4 21.17 70.5 16.11 70.5 C11.04 70.5 6.94 66.4 6.94 61.34 C6.94 56.28 11.04 52.18
								 16.11 52.18 C21.17 52.18 25.28 56.28 25.28 61.34 ZM22.7 72.93 L16.11 82.81 L9.51 72.93 L0 72.93
								 L0 97.28 L32.21 97.28 L32.21 72.93 L22.7 72.93 Z" class="st1"/>
				</g>
				<g id="shape805-5" transform="translate(20.5658,-7.97063)">
					<title>circle6</title>
					<ellipse cx="9.92336" cy="87.2799" rx="9.92336" ry="9.99952" class="st2"/>
				</g>
				<g id="shape806-7" transform="translate(19.4153,-10.4343)">
					<title>path8</title>
					<path d="M0 89.74 C0 92.65 1.12 95.29 2.93 97.28 L13.95 97.28 L13.95 79.55 A12.4338 12.5292 -180 0 0 10.72 78.6
								 C4.78 78.79 0 83.71 0 89.74 Z" class="st3"/>
				</g>
				<g id="shape807-9" transform="translate(38.0631,0)">
					<title>path10</title>
					<path d="M8.16 97.28 C8.68 97.28 9.17 97.08 9.54 96.71 C9.92 96.34 10.12 95.84 10.13 95.32 A1.94901 1.96396 -180
								 0 0 9.56 93.91 L2.77 87.08 L0 89.87 L6.77 96.69 C7.14 97.07 7.63 97.28 8.16 97.28 Z" class="st4"/>
				</g>
				<g id="shape808-11" transform="translate(38.6338,-4.9331)">
					<title>path12</title>
					<path d="M1.88 97.28 A6.52928 6.57939 -180 0 0 4.64 94.5 L4.65 94.48 L2.77 92.59 L0 95.38 L1.88 97.28 L1.88 97.28
								 Z" class="st5"/>
				</g>
				<g id="shape809-13" transform="translate(16.7978,-4.17371)">
					<title>path14</title>
					<path d="M13.69 69.69 C6.13 69.69 0 75.86 0 83.48 C0 91.1 6.13 97.28 13.69 97.28 C21.25 97.28 27.38 91.1 27.38
								 83.48 C27.38 75.86 21.25 69.69 13.69 69.69 ZM13.69 93.48 C8.22 93.48 3.77 89 3.77 83.48 C3.77 77.97
								 8.22 73.48 13.69 73.48 C19.16 73.48 23.61 77.97 23.61 83.48 C23.61 89 19.16 93.48 13.69 93.48 Z"
							class="st4"/>
				</g>
			</g>
		</g>
	</g>
</svg>
