<?xml version="1.0" encoding="UTF-8" standalone="no"?>
<!DOCTYPE svg PUBLIC "-//W3C//DTD SVG 1.1//EN" "http://www.w3.org/Graphics/SVG/1.1/DTD/svg11.dtd">
<!-- Generated by Microsoft Visio, SVG Export Role.svg Page-1 -->
<svg xmlns="http://www.w3.org/2000/svg" xmlns:xlink="http://www.w3.org/1999/xlink" xmlns:ev="http://www.w3.org/2001/xml-events"
		width="0.944882in" height="1.25984in" viewBox="0 0 68.0315 90.7087" xml:space="preserve" color-interpolation-filters="sRGB"
		class="st6">
	<style type="text/css">
	<![CDATA[
		.st1 {fill:url(#grad0-5);stroke:none;stroke-linecap:butt;stroke-width:0.75}
		.st2 {fill:#ffffff;stroke:none;stroke-linecap:butt;stroke-width:0.75}
		.st3 {fill:#32bedd;stroke:none;stroke-linecap:butt;stroke-width:0.75}
		.st4 {fill:#9cebff;stroke:none;stroke-linecap:butt;stroke-width:0.75}
		.st5 {fill:#50e6ff;stroke:none;stroke-linecap:butt;stroke-width:0.75}
		.st6 {fill:none;fill-rule:evenodd;font-size:12px;overflow:visible;stroke-linecap:square;stroke-miterlimit:3}
	]]>
	</style>

	<defs id="Patterns_And_Gradients">
		<linearGradient id="grad0-5" x1="0" y1="0" x2="1" y2="0" gradientTransform="rotate(-90 0.5 0.5)">
			<stop offset="0" stop-color="#5e9624" stop-opacity="1"/>
			<stop offset="1" stop-color="#b4ec36" stop-opacity="1"/>
		</linearGradient>
	</defs>
	<g>
		<title>Page-1</title>
		<g id="group793-1" transform="translate(5.66929,-28.3465)">
			<title>Role</title>
			<g id="shape794-2" transform="translate(2.8777E-13,-2.16767)">
				<title>Sheet.794</title>
				<path d="M45.04 90.71 A4.34045 4.33534 -180 0 0 49.45 86.34 A2.70443 2.70125 -180 0 0 49.45 85.81 C47.71 71.97 39.83
							 60.69 24.74 60.69 C9.65 60.69 1.64 70.23 0 85.84 A4.474 4.46874 -180 0 0 3.97 90.71 L45.04 90.71 Z"
						class="st1"/>
			</g>
			<g id="shape795-6" transform="translate(17.462,-11.6721)">
				<title>Sheet.795</title>
				<path d="M7.55 73.47 A13.8894 13.8731 0 0 1 0 71.27 L7.28 90.71 L14.69 71.4 A14.023 14.0065 0 0 1 7.55 73.47 Z"
						class="st2"/>
			</g>
			<g id="shape796-8" transform="translate(10.9179,-28.88)">
				<title>Sheet.796</title>
				<ellipse cx="13.9228" cy="76.8022" rx="13.9228" ry="13.9064" class="st1"/>
			</g>
			<g id="shape797-11" transform="translate(44.5397,0)">
				<title>Sheet.797</title>
				<path d="M12.15 69.47 L12.15 83.61 L0 90.71 L0 76.57 L12.15 69.47 Z" class="st3"/>
			</g>
			<g id="shape798-13" transform="translate(32.3864,-14.1399)">
				<title>Sheet.798</title>
				<path d="M24.31 83.61 L12.15 90.71 L0 83.61 L12.15 76.5 L24.31 83.61 Z" class="st4"/>
			</g>
			<g id="shape799-15" transform="translate(32.3864,0)">
				<title>Sheet.799</title>
				<path d="M12.15 76.57 L12.15 90.71 L0 83.61 L0 69.47 L12.15 76.57 Z" class="st5"/>
			</g>
			<g id="shape800-17" transform="translate(32.3864,0)">
				<title>Sheet.800</title>
				<path d="M0 83.61 L12.15 76.57 L12.15 90.71 L0 83.61 Z" class="st4"/>
			</g>
			<g id="shape801-19" transform="translate(44.5397,0)">
				<title>Sheet.801</title>
				<path d="M12.15 83.61 L0 76.57 L0 90.71 L12.15 83.61 Z" class="st5"/>
			</g>
		</g>
	</g>
</svg>
