<?xml version="1.0" encoding="UTF-8" standalone="no"?>
<!DOCTYPE svg PUBLIC "-//W3C//DTD SVG 1.1//EN" "http://www.w3.org/Graphics/SVG/1.1/DTD/svg11.dtd">
<!-- Generated by Microsoft Visio, SVG Export Run Command.svg Page-1 -->
<svg xmlns="http://www.w3.org/2000/svg" xmlns:xlink="http://www.w3.org/1999/xlink" xmlns:ev="http://www.w3.org/2001/xml-events"
		width="1.1274in" height="1.27236in" viewBox="0 0 81.1729 91.6101" xml:space="preserve" color-interpolation-filters="sRGB"
		class="st7">
	<style type="text/css">
	<![CDATA[
		.st1 {fill:#7a7a7a;stroke:none;stroke-linecap:butt;stroke-width:12.24}
		.st2 {fill:#59b4d9;stroke:none;stroke-linecap:butt;stroke-width:12.24}
		.st3 {fill:#a0a1a2;stroke:none;stroke-linecap:butt;stroke-width:12.24}
		.st4 {fill:#ffffff;fill-opacity:0.2;stroke:none;stroke-linecap:butt;stroke-width:12.24}
		.st5 {fill:#b8d432;stroke:none;stroke-linecap:butt;stroke-width:12.24}
		.st6 {fill:#ffffff;stroke:none;stroke-linecap:butt;stroke-width:12.24}
		.st7 {fill:none;fill-rule:evenodd;font-size:12px;overflow:visible;stroke-linecap:square;stroke-miterlimit:3}
	]]>
	</style>

	<g>
		<title>Page-1</title>
		<g id="group762-1" transform="translate(12.24,-28.3465)">
			<title>Run Command</title>
			<g id="group763-2">
				<title>g16</title>
				<g id="shape764-3" transform="translate(9.75118,0)">
					<title>path4</title>
					<path d="M26.99 80.98 L11.57 80.98 C13.38 87.4 10.89 88.29 0 88.29 L0 91.61 L36.96 91.61 L36.96 88.29 C26.19
								 88.29 25.17 87.4 26.99 80.98 Z" class="st1"/>
				</g>
				<g id="shape765-5" transform="translate(3.40157,-13.2816)">
					<title>path6</title>
					<path d="M49.78 57.3 L49.89 91.61 L0 91.61 L0 57.3 L49.89 57.3 L49.78 57.3 Z" class="st2"/>
				</g>
				<g id="shape766-7" transform="translate(0,-10.6253)">
					<title>path8</title>
					<path d="M53.29 51.21 L3.06 51.21 C1.36 51.21 0 52.65 0 54.31 L0 88.51 C0 90.17 1.36 91.61 3.06 91.61 L53.29
								 91.61 C54.99 91.61 56.69 90.17 56.69 88.51 L56.69 54.31 C56.69 52.65 54.99 51.21 53.29 51.21 ZM52.38
								 55.42 L52.38 87.29 L4.31 87.29 L4.31 55.42 L52.38 55.31 L52.38 55.42 Z" class="st3"/>
				</g>
				<g id="shape767-9" transform="translate(0,-10.6253)">
					<title>path10</title>
					<path d="M4.31 87.4 L4.31 55.42 L48.19 55.31 L53.29 51.21 L3.06 51.21 C1.36 51.21 0 52.65 0 54.31 L0 88.51 C0
								 90.17 1.36 91.61 3.06 91.61 L4.31 91.61 L9.52 87.4 L4.31 87.4 Z" class="st4"/>
				</g>
				<g id="shape768-11" transform="translate(27.326,-47.9246)">
					<title>path12</title>
					<path d="M1.59 90.84 C1.59 91.28 1.25 91.61 0.79 91.61 C0.34 91.61 0 91.28 0 90.84 C0 90.39 0.34 90.06 0.79 90.06
								 C1.25 90.06 1.59 90.39 1.59 90.84 Z" class="st5"/>
				</g>
				<g id="shape769-13" transform="translate(17.0079,-17.7088)">
					<title>path14</title>
					<path d="M21.54 82.76 L19.28 82.76 L19.28 80.54 C19.28 78.71 17.75 77.22 15.88 77.22 L12.47 77.22 L12.47 73.9
								 L14.74 73.9 A1.13386 1.1068 -180 0 0 15.87 72.79 L15.87 66.15 A1.13386 1.1068 -180 0 0 14.74 65.05
								 L7.94 65.05 A1.13386 1.1068 -180 0 0 6.8 66.15 L6.8 72.79 A1.13386 1.1068 -180 0 0 7.94 73.9 L10.2
								 73.9 L10.2 77.22 L6.8 77.22 C4.93 77.22 3.4 78.71 3.4 80.54 L3.4 82.76 L1.13 82.76 A1.13386 1.1068
								 -180 0 0 -0 83.86 L0 90.5 A1.13386 1.1068 -180 0 0 1.13 91.61 L7.94 91.61 A1.13386 1.1068 -180 0
								 0 9.07 90.5 L9.07 83.86 A1.13386 1.1068 -180 0 0 7.94 82.76 L5.67 82.76 L5.67 80.54 C5.67 79.93
								 6.18 79.44 6.8 79.44 L15.87 79.44 C16.5 79.44 17.01 79.93 17.01 80.54 L17.01 82.76 L14.74 82.76
								 A1.13386 1.1068 -180 0 0 13.61 83.86 L13.61 90.5 A1.13386 1.1068 -180 0 0 14.74 91.61 L21.54 91.61
								 A1.13386 1.1068 -180 0 0 22.68 90.5 L22.68 83.86 A1.13386 1.1068 -180 0 0 21.54 82.76 Z"
							class="st6"/>
				</g>
			</g>
		</g>
	</g>
</svg>
