<?xml version="1.0" encoding="UTF-8" standalone="no"?>
<!DOCTYPE svg PUBLIC "-//W3C//DTD SVG 1.1//EN" "http://www.w3.org/Graphics/SVG/1.1/DTD/svg11.dtd">
<!-- Generated by Microsoft Visio, SVG Export SAP HANA On Azure.svg Page-1 -->
<svg xmlns="http://www.w3.org/2000/svg" xmlns:xlink="http://www.w3.org/1999/xlink" xmlns:ev="http://www.w3.org/2001/xml-events"
		width="1.1274in" height="0.957402in" viewBox="0 0 81.1729 68.9329" xml:space="preserve" color-interpolation-filters="sRGB"
		class="st4">
	<style type="text/css">
	<![CDATA[
		.st1 {fill:#0072c6;stroke:none;stroke-linecap:butt;stroke-width:12.24}
		.st2 {fill:#ffffff}
		.st3 {stroke:none;stroke-linecap:butt;stroke-width:12.24}
		.st4 {fill:none;fill-rule:evenodd;font-size:12px;overflow:visible;stroke-linecap:square;stroke-miterlimit:3}
	]]>
	</style>

	<g>
		<title>Page-1</title>
		<g id="group756-1" transform="translate(12.24,-28.3465)">
			<title>SAP HANA On Azure</title>
			<g id="group757-2">
				<title> Artboard 5</title>
				<g id="shape758-3" transform="translate(0,-0.00590428)">
					<title>Sheet.758</title>
					<path d="M0 68.93 L28.65 68.93 L56.69 40.59 L0 40.59 L0 68.93 Z" class="st1"/>
				</g>
				<g id="shape759-5" transform="translate(1.33228,-5.60789)">
					<title>Sheet.759</title>
					<path d="M31.39 52.09 L26.06 52.09 L26.06 64.76 L21.4 52.09 L16.78 52.09 L12.8 62.69 C12.38 60.02 9.62 59.09
								 7.44 58.4 C6 57.94 4.48 57.26 4.49 56.52 C4.51 55.9 5.31 55.33 6.91 55.41 A8.71417 8.71236 0 0 1
								 10.81 56.47 L12.66 53.24 A14.3882 14.3852 -180 0 0 6.62 51.81 L6.61 51.81 A7.33465 7.33312 -180
								 0 0 1.28 53.75 A4.49528 4.49434 -180 0 0 0 56.86 A4.17756 4.17669 -180 0 0 1.83 60.59 C2.94 61.33
								 4.17 61.89 5.46 62.24 C6.93 62.7 8.14 63.1 8.13 63.95 A1.2378 1.23754 0 0 1 7.78 64.78 A2.35276
								 2.35227 0 0 1 6.06 65.32 A7.36181 7.36028 0 0 1 1.65 64.06 L0 67.33 A12.3035 12.301 -180 0 0 6.04
								 68.93 L6.31 68.93 A7.27677 7.27526 -180 0 0 10.9 67.4 C10.97 67.34 11.03 67.28 11.1 67.23 L10.56
								 68.66 L15.4 68.66 L16.22 66.18 A8.80157 8.79974 -180 0 0 19.06 66.63 A8.93622 8.93436 -180 0 0 21.84
								 66.21 L22.63 68.66 L30.52 68.66 L30.52 63.54 L32.25 63.54 C36.41 63.54 38.87 61.41 38.87 57.86 C38.87
								 53.9 36.48 52.09 31.39 52.09 ZM19.07 62.93 A4.81299 4.81199 0 0 1 17.36 62.64 L19.05 57.31 L19.08
								 57.31 L20.74 62.65 A5.04331 5.04226 0 0 1 19.07 62.93 ZM31.7 59.87 L30.53 59.87 L30.53 55.58 L31.7
								 55.58 C33.27 55.58 34.52 56.1 34.52 57.7 C34.52 59.35 33.27 59.87 31.7 59.87 L31.7 59.87 Z"
							class="st2"/>
					<path d="M31.39 52.09 L26.06 52.09 L26.06 64.76 L21.4 52.09 L16.78 52.09 L12.8 62.69 C12.38 60.02 9.62 59.09
								 7.44 58.4 C6 57.94 4.48 57.26 4.49 56.52 C4.51 55.9 5.31 55.33 6.91 55.41 A8.71417 8.71236 0 0 1
								 10.81 56.47 L12.66 53.24 A14.3882 14.3852 -180 0 0 6.62 51.81 L6.61 51.81 A7.33465 7.33312 -180
								 0 0 1.28 53.75 A4.49528 4.49434 -180 0 0 0 56.86 A4.17756 4.17669 -180 0 0 1.83 60.59 C2.94 61.33
								 4.17 61.89 5.46 62.24 C6.93 62.7 8.14 63.1 8.13 63.95 A1.2378 1.23754 0 0 1 7.78 64.78 A2.35276
								 2.35227 0 0 1 6.06 65.32 A7.36181 7.36028 0 0 1 1.65 64.06 L0 67.33 A12.3035 12.301 -180 0 0 6.04
								 68.93 L6.31 68.93 A7.27677 7.27526 -180 0 0 10.9 67.4 C10.97 67.34 11.03 67.28 11.1 67.23 L10.56
								 68.66 L15.4 68.66 L16.22 66.18 A8.80157 8.79974 -180 0 0 19.06 66.63 A8.93622 8.93436 -180 0 0 21.84
								 66.21 L22.63 68.66 L30.52 68.66 L30.52 63.54 L32.25 63.54 C36.41 63.54 38.87 61.41 38.87 57.86 C38.87
								 53.9 36.48 52.09 31.39 52.09M19.07 62.93 A4.81299 4.81199 0 0 1 17.36 62.64 L19.05 57.31 L19.08
								 57.31 L20.74 62.65 A5.04331 5.04226 0 0 1 19.07 62.93M31.7 59.87 L30.53 59.87 L30.53 55.58 L31.7
								 55.58 C33.27 55.58 34.52 56.1 34.52 57.7 C34.52 59.35 33.27 59.87 31.7 59.87" class="st3"/>
				</g>
				<g id="shape760-8" transform="translate(34.8094,0)">
					<title>Sheet.760</title>
					<path d="M2 65.24 C2.93 65.24 3.7 66 3.7 66.94 C3.7 67.87 2.93 68.64 2 68.64 C1.06 68.64 0.3 67.87 0.3 66.94
								 C0.3 66 1.06 65.24 2 65.24 ZM2 64.94 A1.99606 1.99565 -180 1 0 2 68.93 A1.99606 1.99565 -180 0 0
								 2 64.94 Z" class="st1"/>
				</g>
				<g id="shape761-10" transform="translate(36.1843,-0.950589)">
					<title>Sheet.761</title>
					<path d="M0.99 68.01 a0.543307 0.543194 -180 0 0 0.54685 -0.539651 L1.53 67.43 C1.53 67.02 1.29 66.84 0.8 66.84
								 L0 66.84 L0 68.93 L0.32 68.93 L0.32 68.03 L0.68 68.03 L1.23 68.93 L1.59 68.93 L0.99 68.01 ZM0.32
								 67.76 L0.32 67.11 L0.75 67.11 C0.96 67.11 1.2 67.16 1.2 67.42 C1.2 67.74 0.96 67.76 0.69 67.76 L0.32
								 67.76 Z" class="st1"/>
				</g>
			</g>
		</g>
	</g>
</svg>
