<?xml version="1.0" encoding="UTF-8" standalone="no"?>
<!DOCTYPE svg PUBLIC "-//W3C//DTD SVG 1.1//EN" "http://www.w3.org/Graphics/SVG/1.1/DTD/svg11.dtd">
<!-- Generated by Microsoft Visio, SVG Export Scheduler Job Collection.svg Page-1 -->
<svg xmlns="http://www.w3.org/2000/svg" xmlns:xlink="http://www.w3.org/1999/xlink" xmlns:ev="http://www.w3.org/2001/xml-events"
		width="1.1274in" height="1.22996in" viewBox="0 0 81.1729 88.5572" xml:space="preserve" color-interpolation-filters="sRGB"
		class="st9">
	<style type="text/css">
	<![CDATA[
		.st1 {fill:#ffffff;stroke:none;stroke-linecap:butt;stroke-width:12.24}
		.st2 {fill:#3999c6;stroke:none;stroke-linecap:butt;stroke-width:12.24}
		.st3 {fill:#a0a1a2;stroke:none;stroke-linecap:butt;stroke-width:12.24}
		.st4 {fill:#59b4d9;stroke:none;stroke-linecap:butt;stroke-width:12.24}
		.st5 {fill:#7a7a7a;stroke:none;stroke-linecap:butt;stroke-width:12.24}
		.st6 {fill:#1e1e1e;stroke:none;stroke-linecap:butt;stroke-width:12.24}
		.st7 {fill:#b8d432;stroke:none;stroke-linecap:butt;stroke-width:12.24}
		.st8 {fill:#1e1e1e;fill-opacity:0.2;stroke:none;stroke-linecap:butt;stroke-width:12.24}
		.st9 {fill:none;fill-rule:evenodd;font-size:12px;overflow:visible;stroke-linecap:square;stroke-miterlimit:3}
	]]>
	</style>

	<g>
		<title>Page-1</title>
		<g id="group744-1" transform="translate(12.24,-28.3465)">
			<title>Scheduler Job Collection</title>
			<g id="group745-2">
				<title>Sheet.745</title>
				<g id="shape746-3" transform="translate(18.2146,-13.3549)">
					<title>Sheet.746</title>
					<path d="M12.86 60.96 C8.99 61.4 5.69 63.18 3.42 65.97 C1.14 68.75 0 72.31 0.34 75.98 C0.8 79.77 2.62 82.99 5.46
								 85.22 C8.31 87.44 11.95 88.56 15.71 88.22 C19.58 87.78 22.88 85.89 25.16 83.22 C27.44 80.43 28.57
								 76.87 28.23 73.2 C27.78 69.42 25.84 66.19 23 63.85 C20.61 61.96 17.53 60.85 14.34 60.85 C13.89 60.85
								 13.43 60.85 12.86 60.96 Z" class="st1"/>
				</g>
				<g id="shape747-5" transform="translate(25.3866,-11.0178)">
					<title>Sheet.747</title>
					<path d="M23.22 70.53 C22.77 66.08 20.38 62.18 17.08 59.62 C16.39 59.07 15.71 58.62 15.03 58.29 L13.77 60.73
								 C14.34 61.07 14.8 61.4 15.37 61.74 C18.1 63.96 20.04 67.08 20.49 70.75 C20.83 74.42 19.69 77.87
								 17.53 80.54 C15.37 83.22 12.07 85 8.31 85.44 C5.81 85.66 3.42 85.22 1.25 84.33 L0 86.78 C2.62 88
								 5.58 88.56 8.65 88.22 C13.21 87.78 17.08 85.55 19.69 82.32 C22.31 79.21 23.68 74.98 23.22 70.53
								 Z" class="st2"/>
				</g>
				<g id="shape748-7" transform="translate(15.3686,-12.7985)">
					<title>Sheet.748</title>
					<path d="M8.31 84.44 C5.58 82.32 3.76 79.1 3.3 75.42 C2.96 71.75 4.1 68.3 6.26 65.63 C8.42 62.96 11.73 61.18
								 15.48 60.73 C18.56 60.4 21.4 61.07 23.79 62.52 L25.05 60.07 C22.09 58.4 18.67 57.62 15.14 57.95
								 C10.59 58.4 6.72 60.62 4.1 63.85 C1.48 67.08 0 71.2 0.57 75.65 C1.02 80.1 3.3 83.88 6.6 86.44 C7.63
								 87.22 8.77 88 10.02 88.56 L11.27 86.11 C10.13 85.66 9.22 85.11 8.31 84.44 Z" class="st3"/>
				</g>
				<g id="shape749-9" transform="translate(15.3686,-12.7985)">
					<title>Sheet.749</title>
					<path d="M8.31 84.44 C5.58 82.32 3.76 79.1 3.3 75.42 C2.96 71.75 4.1 68.3 6.26 65.63 C8.42 62.96 11.73 61.18
								 15.48 60.73 C18.56 60.4 21.4 61.07 23.79 62.52 L25.05 60.07 C22.09 58.4 18.67 57.62 15.14 57.95
								 C10.59 58.4 6.72 60.62 4.1 63.85 C1.48 67.08 0 71.2 0.57 75.65 C1.02 80.1 3.3 83.88 6.6 86.44 C7.63
								 87.22 8.77 88 10.02 88.56 L11.27 86.11 C10.13 85.66 9.22 85.11 8.31 84.44 Z" class="st4"/>
				</g>
				<g id="shape750-11" transform="translate(31.7617,-22.8146)">
					<title>Sheet.750</title>
					<path d="M7.4 88.22 L1.02 86 C0.34 85.77 0 85 0.23 84.33 C0.46 83.66 1.25 83.33 1.94 83.55 L8.31 85.77 C8.99
								 86 9.33 86.78 9.11 87.44 C8.88 88.11 8.08 88.56 7.4 88.22 Z" class="st5"/>
				</g>
				<g id="shape751-13" transform="translate(30.7371,-25.5969)">
					<title>Sheet.751</title>
					<path d="M1.37 88.56 C0.68 88.56 0 88 0 87.22 L0 76.32 C0 75.65 0.57 74.98 1.37 74.98 C2.05 74.98 2.73 75.54
								 2.73 76.32 L2.73 87.22 C2.73 88 2.16 88.56 1.37 88.56 Z" class="st5"/>
				</g>
				<g id="shape752-15" transform="translate(30.1679,-24.9292)">
					<title>Sheet.752</title>
					<ellipse cx="1.9353" cy="86.6652" rx="1.9353" ry="1.89195" class="st6"/>
				</g>
				<g id="shape753-17" transform="translate(8.08272,-0.111291)">
					<title>Sheet.753</title>
					<path d="M22.43 75.76 L29.14 81.88 L23.22 88.56 L23.34 84.22 L21.74 84.22 C9.79 84.22 0 74.76 0 62.96 C0 51.16
								 9.56 41.81 21.63 41.81 C27.66 41.81 33.13 44.26 37.11 48.16 C33.7 44.93 29.03 42.93 23.91 42.82
								 C13.55 42.82 5.12 51.05 5.12 61.18 C5.12 70.97 13.21 78.87 23 79.54 L22.43 75.76 Z" class="st7"/>
				</g>
				<g id="shape754-19" transform="translate(7.96888,2.41585E-13)">
					<title>Sheet.754</title>
					<path d="M23.79 82.21 C11.84 81.77 2.62 71.97 3.07 60.4 C3.42 53.17 7.4 46.93 13.21 43.37 C5.46 46.6 0 54.17
								 0 62.96 C0 74.65 9.68 84.22 21.74 84.22 L23.34 84.22 L23.22 88.56 L29.14 81.88 C27.44 82.21 25.61
								 82.32 23.79 82.21 Z" class="st8"/>
				</g>
				<g id="shape755-21" transform="translate(0,-2.78227)">
					<title>Sheet.755</title>
					<path d="M10.81 88.33 C10.59 88.33 10.25 88.22 10.02 88.11 L2.28 83.66 C0.91 82.88 0 81.32 0 79.88 L0 51.83 C0
								 50.38 0.91 48.71 2.28 48.05 L10.02 43.6 C10.81 43.15 11.84 43.37 12.29 44.15 C12.75 44.93 12.52
								 45.93 11.73 46.38 L3.98 50.83 C3.76 50.94 3.42 51.5 3.42 51.83 L3.42 79.88 C3.42 80.21 3.76 80.77
								 3.98 80.88 L11.73 85.33 C12.52 85.77 12.75 86.78 12.29 87.56 C11.95 88 11.38 88.33 10.81 88.33 ZM45.88
								 43.37 C46.11 43.37 46.45 43.48 46.67 43.6 L54.42 48.05 C55.78 48.83 56.69 50.38 56.69 51.83 L56.69
								 79.88 C56.69 81.32 55.78 82.99 54.42 83.66 L46.67 88.11 C45.88 88.56 44.85 88.33 44.4 87.56 C43.94
								 86.78 44.17 85.77 44.97 85.33 L52.71 80.88 C52.94 80.77 53.28 80.21 53.28 79.88 L53.28 51.83 C53.28
								 51.5 52.94 50.94 52.71 50.83 L44.97 46.38 C44.17 45.93 43.94 44.93 44.4 44.15 C44.85 43.71 45.31
								 43.37 45.88 43.37 Z" class="st5"/>
				</g>
			</g>
		</g>
	</g>
</svg>
