<?xml version="1.0" encoding="UTF-8" standalone="no"?>
<!DOCTYPE svg PUBLIC "-//W3C//DTD SVG 1.1//EN" "http://www.w3.org/Graphics/SVG/1.1/DTD/svg11.dtd">
<!-- Generated by Microsoft Visio, SVG Export Search Service.svg Page-1 -->
<svg xmlns="http://www.w3.org/2000/svg" xmlns:xlink="http://www.w3.org/1999/xlink" xmlns:ev="http://www.w3.org/2001/xml-events"
		width="1.73185in" height="1.73185in" viewBox="0 0 124.693 124.693" xml:space="preserve" color-interpolation-filters="sRGB"
		class="st5">
	<style type="text/css">
	<![CDATA[
		.st1 {fill:url(#grad0-6);stroke:none;stroke-linecap:butt;stroke-width:34}
		.st2 {fill:#f2f2f2;stroke:none;stroke-linecap:butt;stroke-width:34}
		.st3 {fill:#83b9f9;stroke:none;stroke-linecap:butt;stroke-width:34}
		.st4 {fill:none;stroke:none;stroke-linecap:butt;stroke-width:34}
		.st5 {fill:none;fill-rule:evenodd;font-size:12px;overflow:visible;stroke-linecap:square;stroke-miterlimit:3}
	]]>
	</style>

	<defs id="Patterns_And_Gradients">
		<linearGradient id="grad0-6" x1="0" y1="0" x2="1" y2="0" gradientTransform="rotate(90 0.5 0.5)">
			<stop offset="0.18" stop-color="#5ea0ef" stop-opacity="1"/>
			<stop offset="1" stop-color="#0078d4" stop-opacity="1"/>
		</linearGradient>
	</defs>
	<g>
		<title>Page-1</title>
		<g id="group738-1" transform="translate(34,-34)">
			<title>Search Service</title>
			<g id="group739-2">
				<title>Azure-Search</title>
				<g id="shape740-3" transform="translate(0,-8.13293)">
					<title>Sheet.740</title>
					<path d="M56.69 111.79 A12.9764 12.9764 -180 0 0 45.64 99.19 A16.2205 16.2205 -180 0 0 29.1 83.44 A16.5354 16.5354
								 -180 0 0 13.35 94.43 A15.3071 15.3071 -180 0 0 -0 109.49 A15.748 15.748 -180 0 0 15.97 124.67 L43.21
								 124.67 A2.45669 2.45669 -180 0 0 43.91 124.67 A13.0079 13.0079 -180 0 0 56.69 111.79 Z"
							class="st1"/>
				</g>
				<g id="shape741-7" transform="translate(14.1015,-14.3937)">
					<title>Sheet.741</title>
					<path d="M24.73 103.15 A9.66929 9.66929 -180 0 0 7.06 105.83 A9.95276 9.95276 -180 0 0 8.1 112.98 L0.73 120.44
								 A2.48819 2.48819 -180 0 0 0.73 123.97 A2.45669 2.45669 -180 0 0 2.5 124.69 A2.3937 2.3937 -180 0
								 0 4.26 123.97 L11.6 116.54 A9.88976 9.88976 -180 0 0 14.15 117.57 A9.70079 9.70079 -180 0 0 24.73
								 103.15 ZM23.03 109.76 A6.80315 6.80315 0 0 1 16.45 114.96 A5.6378 5.6378 0 0 1 14.84 114.74 A5.88976
								 5.88976 0 0 1 12.64 113.73 A6.70866 6.70866 0 0 1 10.87 111.97 A6.83465 6.83465 0 0 1 9.9 106.52
								 A6.74016 6.74016 0 0 1 16.45 101.29 A7.27559 7.27559 0 0 1 18.09 101.48 A6.86614 6.86614 0 0 1 22.24
								 104.63 A6.70866 6.70866 0 0 1 23.03 109.76 Z" class="st2"/>
				</g>
				<g id="shape742-9" transform="translate(23.748,-24.126)">
					<title>Sheet.742</title>
					<ellipse cx="6.77165" cy="117.89" rx="6.77165" ry="6.80315" class="st3"/>
				</g>
				<g id="shape743-11">
					<title>Sheet.743</title>
					<rect x="0" y="68" width="56.6929" height="56.6929" class="st4"/>
				</g>
			</g>
		</g>
	</g>
</svg>
