<?xml version="1.0" encoding="UTF-8" standalone="no"?>
<!DOCTYPE svg PUBLIC "-//W3C//DTD SVG 1.1//EN" "http://www.w3.org/Graphics/SVG/1.1/DTD/svg11.dtd">
<!-- Generated by Microsoft Visio, SVG Export Secure Score.svg Page-1 -->
<svg xmlns="http://www.w3.org/2000/svg" xmlns:xlink="http://www.w3.org/1999/xlink" xmlns:ev="http://www.w3.org/2001/xml-events"
		width="1.1218in" height="1.44673in" viewBox="0 0 80.7697 104.164" xml:space="preserve" color-interpolation-filters="sRGB"
		class="st7">
	<style type="text/css">
	<![CDATA[
		.st1 {fill:#e5e5e4;stroke:none;stroke-linecap:butt;stroke-width:19.125}
		.st2 {fill:#d5d7d7;stroke:none;stroke-linecap:butt;stroke-width:19.125}
		.st3 {fill:#0f85ce;stroke:none;stroke-linecap:butt;stroke-width:19.125}
		.st4 {fill:#0072c6;stroke:none;stroke-linecap:butt;stroke-width:19.125}
		.st5 {fill:#ffffff;stroke:none;stroke-linecap:butt;stroke-width:19.125}
		.st6 {fill:#edeced;stroke:none;stroke-linecap:butt;stroke-width:19.125}
		.st7 {fill:none;fill-rule:evenodd;font-size:12px;overflow:visible;stroke-linecap:square;stroke-miterlimit:3}
	]]>
	</style>

	<g>
		<title>Page-1</title>
		<g id="group730-1" transform="translate(19.125,-28.3465)">
			<title>Secure Score</title>
			<g id="group731-2">
				<title> Secure-score-new</title>
				<g id="shape732-3">
					<title>path6</title>
					<path d="M36.25 54.27 C23.35 52.8 21.26 47.47 21.26 47.47 C21.26 47.47 18.36 54.5 0 54.5 L0 83.53 C0 87.04 1.97
								 90.33 4.76 93.17 C11.04 99.74 21.26 104.16 21.26 104.16 C21.26 104.16 42.52 95.09 42.52 83.64 L42.52
								 54.5 C40.2 54.5 38.11 54.39 36.25 54.27 Z" class="st1"/>
				</g>
				<g id="shape733-5" transform="translate(17.4261,0)">
					<title>path8</title>
					<path d="M18.82 54.27 C15.92 53.93 12.2 53.14 10.34 52.35 C10.22 52.35 0 102.24 0 102.35 C2.56 103.94 3.83 104.16
								 3.83 104.16 C3.83 104.16 25.09 95.09 25.09 83.64 L25.09 54.5 C22.77 54.5 20.68 54.39 18.82 54.27
								 Z" class="st2"/>
				</g>
				<g id="shape734-7" transform="translate(2.43965,-3.1748)">
					<title>path10</title>
					<path d="M32.06 59.83 C20.68 58.7 18.82 53.93 18.82 53.93 C18.82 53.93 16.26 60.17 0 60.17 L0 85.91 C0 88.97
								 1.74 91.92 4.18 94.53 C9.76 100.31 18.82 104.16 18.82 104.16 C18.82 104.16 37.64 96 37.64 85.91
								 L37.64 60.17 A39.7896 38.8346 0 0 1 32.06 59.83 Z" class="st3"/>
				</g>
				<g id="shape735-9" transform="translate(18.007,-3.1748)">
					<title>path12</title>
					<path d="M16.5 59.83 C13.94 59.6 10.8 58.81 9.18 58.24 C8.95 58.13 0 102.58 0 102.58 C2.32 103.82 3.25 104.16
								 3.25 104.16 C3.25 104.16 22.07 96 22.07 85.91 L22.07 60.17 A39.7896 38.8346 0 0 1 16.5 59.83 Z"
							class="st4"/>
				</g>
				<g id="shape736-11" transform="translate(10.9204,-18.5953)">
					<title>path14</title>
					<path d="M11.27 85.46 L12.9 88.74 L13.59 90.1 C13.71 90.44 14.06 90.56 14.41 90.67 L19.63 91.47 C20.45 91.58
								 20.8 92.6 20.21 93.17 L16.38 96.68 A1.31966 1.28799 -180 0 0 16.03 97.59 L16.96 102.69 C17.08 103.48
								 16.26 104.16 15.45 103.71 L10.8 101.33 C10.57 101.22 10.34 101.22 10.22 101.22 C10.11 101.22 9.99
								 101.22 9.87 101.33 L5.23 103.71 C4.41 104.05 3.6 103.48 3.72 102.69 L4.65 97.59 C4.65 97.25 4.65
								 96.91 4.3 96.68 L0.58 93.05 C0 92.49 0.35 91.47 1.16 91.35 L6.39 90.56 C6.74 90.56 6.97 90.33 7.2
								 89.99 L9.53 85.34 C9.76 84.78 10.92 84.78 11.27 85.46 Z" class="st5"/>
				</g>
				<g id="shape737-13" transform="translate(21.2598,-18.5953)">
					<title>path16</title>
					<path d="M2.67 88.86 L3.25 90.1 C3.37 90.44 3.72 90.56 4.07 90.67 L9.29 91.47 C10.11 91.58 10.46 92.6 9.87 93.17
								 L6.04 96.68 A1.31966 1.28799 -180 0 0 5.69 97.59 L6.62 102.69 C6.74 103.48 5.92 104.16 5.11 103.71
								 L0.46 101.33 C0.35 101.22 0.23 101.22 0.12 101.22 C0 101.22 2.67 88.86 2.67 88.86 Z" class="st6"/>
				</g>
			</g>
		</g>
	</g>
</svg>
