<?xml version="1.0" encoding="UTF-8" standalone="no"?>
<!DOCTYPE svg PUBLIC "-//W3C//DTD SVG 1.1//EN" "http://www.w3.org/Graphics/SVG/1.1/DTD/svg11.dtd">
<!-- Generated by Microsoft Visio, SVG Export Security Center.svg Page-1 -->
<svg xmlns="http://www.w3.org/2000/svg" xmlns:xlink="http://www.w3.org/1999/xlink" xmlns:ev="http://www.w3.org/2001/xml-events"
		width="0.930551in" height="1.3511in" viewBox="0 0 66.9997 97.2794" xml:space="preserve" color-interpolation-filters="sRGB"
		class="st4">
	<style type="text/css">
	<![CDATA[
		.st1 {fill:#57a300;stroke:none;stroke-linecap:butt;stroke-width:12.24}
		.st2 {fill:#b8d432;fill-opacity:0.4;stroke:none;stroke-linecap:butt;stroke-width:12.24}
		.st3 {fill:#ffffff;stroke:none;stroke-linecap:butt;stroke-width:12.24}
		.st4 {fill:none;fill-rule:evenodd;font-size:12px;overflow:visible;stroke-linecap:square;stroke-miterlimit:3}
	]]>
	</style>

	<g>
		<title>Page-1</title>
		<g id="group718-1" transform="translate(12.24,-28.3465)">
			<title>Security Center</title>
			<g id="group719-2">
				<title>Sheet.719</title>
				<g id="shape720-3">
					<title>Sheet.720</title>
					<path d="M36.18 47.34 C23.4 45.97 21.26 40.59 21.26 40.59 C21.26 40.59 18.38 47.66 0 47.66 L0 76.7 C0 80.21 2
								 83.5 4.76 86.38 C11.03 92.89 21.26 97.28 21.26 97.28 C21.26 97.28 42.52 88.18 42.52 76.7 L42.52
								 47.66 C40.16 47.66 38.05 47.55 36.18 47.34 Z" class="st1"/>
				</g>
				<g id="shape721-5" transform="translate(2.15827E-13,-10.903)">
					<title>Sheet.721</title>
					<path d="M26.52 70.25 L36.18 58.25 C23.4 56.87 21.26 51.49 21.26 51.49 C21.26 51.49 18.38 58.57 0 58.57 L0 87.61
								 C0 91.12 2 94.41 4.76 97.28 L11.9 88.41 L26.52 70.25 Z" class="st2"/>
				</g>
				<g id="shape722-7" transform="translate(11.8996,-16.4939)">
					<title>Sheet.722</title>
					<path d="M17.79 84.81 L16.55 84.81 L16.55 80.79 A7.76871 7.5933 -180 0 0 14.62 75.74 C14.57 75.69 14.53 75.64
								 14.49 75.59 C13.2 74.25 11.38 73.38 9.36 73.38 C7.35 73.38 5.52 74.25 4.23 75.59 A7.76871 7.5933
								 -180 0 0 2.16 80.79 L2.16 84.81 L0.93 84.81 a0.928023 0.907068 -180 0 0 -0.929183 0.908202 L0 96.37
								 C0 96.87 0.42 97.28 0.93 97.28 L17.79 97.28 a0.929183 0.908202 -180 0 0 0.929183 -0.908202 L18.72
								 85.72 a0.929183 0.908202 -180 0 0 -0.929183 -0.909336 ZM13.14 84.82 L7.32 84.82 L7.32 84.81 L5.58
								 84.81 L5.58 80.79 C5.58 79.63 6.03 78.6 6.73 77.87 C7.43 77.14 8.35 76.72 9.36 76.72 C10.37 76.72
								 11.29 77.14 11.99 77.87 C12.16 78.05 12.31 78.24 12.44 78.44 L12.44 78.45 C12.88 79.1 13.14 79.91
								 13.14 80.79 L13.14 84.82 Z" class="st3"/>
				</g>
			</g>
		</g>
	</g>
</svg>
