<?xml version="1.0" encoding="UTF-8" standalone="no"?>
<!DOCTYPE svg PUBLIC "-//W3C//DTD SVG 1.1//EN" "http://www.w3.org/Graphics/SVG/1.1/DTD/svg11.dtd">
<!-- Generated by Microsoft Visio, SVG Export Security Detonation Chamber.svg Page-1 -->
<svg xmlns="http://www.w3.org/2000/svg" xmlns:xlink="http://www.w3.org/1999/xlink" xmlns:ev="http://www.w3.org/2001/xml-events"
		width="1.71151in" height="1.71622in" viewBox="0 0 123.229 123.568" xml:space="preserve" color-interpolation-filters="sRGB"
		class="st5">
	<style type="text/css">
	<![CDATA[
		.st1 {fill:#ffffff;stroke:none;stroke-linecap:butt;stroke-width:34}
		.st2 {fill:#767676;stroke:none;stroke-linecap:butt;stroke-width:34}
		.st3 {fill:url(#grad0-10);stroke:none;stroke-linecap:butt;stroke-width:34}
		.st4 {fill:#f2f2f2;stroke:none;stroke-linecap:butt;stroke-width:34}
		.st5 {fill:none;fill-rule:evenodd;font-size:12px;overflow:visible;stroke-linecap:square;stroke-miterlimit:3}
	]]>
	</style>

	<defs id="Patterns_And_Gradients">
		<linearGradient id="grad0-10" x1="0" y1="0" x2="1" y2="0" gradientTransform="rotate(-90 0.5 0.5)">
			<stop offset="0" stop-color="#005ba1" stop-opacity="1"/>
			<stop offset="0.19" stop-color="#1e71b5" stop-opacity="1"/>
			<stop offset="0.565" stop-color="#5598da" stop-opacity="1"/>
			<stop offset="0.85" stop-color="#76b0f0" stop-opacity="1"/>
			<stop offset="1" stop-color="#83b9f9" stop-opacity="1"/>
		</linearGradient>
	</defs>
	<g>
		<title>Page-1</title>
		<g id="group711-1" transform="translate(32.5357,-32.8752)">
			<title>Security Detonation Chamber</title>
			<g id="group712-2">
				<title>Sheet.712</title>
				<g id="shape713-3" transform="translate(17.2438,-18.6282)">
					<title>Sheet.713</title>
					<ellipse cx="17.3343" cy="106.655" rx="17.3343" ry="16.9129" class="st1"/>
				</g>
				<g id="shape714-5" transform="translate(-82.2579,36.4687) rotate(-45)">
					<title>Sheet.714</title>
					<path d="M0 120.23 A3.42533 3.34207 -180 0 0 3.43 123.57 L28.75 123.57 A3.42533 3.34207 -180 0 0 32.17 120.23
								 L32.17 119.76 A3.42533 3.34207 -180 0 0 28.75 116.42 L3.43 116.42 A3.42533 3.34207 -180 0 0 0 119.76
								 L0 120.23 Z" class="st2"/>
				</g>
				<g id="shape715-7" transform="translate(12.5504,-13.6234)">
					<title>Sheet.715</title>
					<ellipse cx="22.0712" cy="102.033" rx="22.0712" ry="21.5348" class="st3"/>
				</g>
				<g id="shape716-11" transform="translate(17.2438,-18.6282)">
					<title>Sheet.716</title>
					<ellipse cx="17.3343" cy="106.655" rx="17.3343" ry="16.9129" class="st3"/>
				</g>
				<g id="shape717-14" transform="translate(21.501,-32.3137)">
					<title>Sheet.717</title>
					<path d="M26.17 116.94 A5.28429 5.15585 0 0 1 16.27 120.54 L26.17 116.94 ZM9.9 120.54 A5.28429 5.15585 0 0 1
								 -0 116.94 L9.9 120.54 Z" class="st4"/>
				</g>
			</g>
		</g>
	</g>
</svg>
