<?xml version="1.0" encoding="UTF-8" standalone="no"?>
<!DOCTYPE svg PUBLIC "-//W3C//DTD SVG 1.1//EN" "http://www.w3.org/Graphics/SVG/1.1/DTD/svg11.dtd">
<!-- Generated by Microsoft Visio, SVG Export Sendgrid Account.svg Page-1 -->
<svg xmlns="http://www.w3.org/2000/svg" xmlns:xlink="http://www.w3.org/1999/xlink" xmlns:ev="http://www.w3.org/2001/xml-events"
		width="0.944882in" height="1.25984in" viewBox="0 0 68.0315 90.7087" xml:space="preserve" color-interpolation-filters="sRGB"
		class="st4">
	<style type="text/css">
	<![CDATA[
		.st1 {fill:#005ba1;stroke:none;stroke-linecap:butt;stroke-width:0.75}
		.st2 {fill:#0078d4;stroke:none;stroke-linecap:butt;stroke-width:0.75}
		.st3 {fill:url(#grad0-11);stroke:none;stroke-linecap:butt;stroke-width:0.75}
		.st4 {fill:none;fill-rule:evenodd;font-size:12px;overflow:visible;stroke-linecap:square;stroke-miterlimit:3}
	]]>
	</style>

	<defs id="Patterns_And_Gradients">
		<linearGradient id="grad0-11" x1="0" y1="0" x2="1" y2="0" gradientTransform="rotate(90 0.5 0.5)">
			<stop offset="0" stop-color="#32d4f5" stop-opacity="1"/>
			<stop offset="0.23" stop-color="#31d0f1" stop-opacity="1"/>
			<stop offset="0.46" stop-color="#2cc3e6" stop-opacity="1"/>
			<stop offset="0.7" stop-color="#25afd4" stop-opacity="1"/>
			<stop offset="0.94" stop-color="#1c92ba" stop-opacity="1"/>
			<stop offset="1" stop-color="#198ab3" stop-opacity="1"/>
		</linearGradient>
	</defs>
	<g>
		<title>Page-1</title>
		<g id="group706-1" transform="translate(5.66929,-28.3465)">
			<title>Sendgrid Account</title>
			<g id="shape707-2">
				<title>Sheet.707</title>
				<path d="M18.89 71.8 L0 71.8 L0 54.79 A1.93967 1.90088 0 0 1 1.94 52.92 L18.95 52.92 L18.89 71.8 ZM37.81 71.8 L18.89
							 71.8 L18.89 90.71 L35.9 90.71 A1.93967 1.90088 -180 0 0 37.84 88.81 L37.81 71.8 Z" class="st1"/>
			</g>
			<g id="shape708-4">
				<title>Sheet.708</title>
				<path d="M37.81 71.8 L18.89 71.8 L18.89 52.92 L37.81 52.92 L37.81 71.8 ZM18.89 71.8 L0 71.8 L0 88.81 A1.93967 1.90088
							 -180 0 0 1.94 90.71 L18.95 90.71 L18.89 71.8 Z" class="st2"/>
			</g>
			<g id="shape709-6" transform="translate(18.8863,-18.9088)">
				<title>Sheet.709</title>
				<path d="M18.92 71.83 L0 71.83 L0 54.83 A1.93967 1.90088 0 0 1 1.94 52.92 L18.95 52.92 L18.92 71.83 ZM37.81 71.83
							 L18.92 71.83 L18.92 90.71 L36.24 90.71 A1.56535 1.53404 -180 0 0 37.81 89.21 L37.81 71.83 Z"
						class="st2"/>
			</g>
			<g id="shape710-8" transform="translate(18.8863,-18.9088)">
				<title>Sheet.710</title>
				<path d="M37.81 71.83 L18.92 71.83 L18.92 52.92 L36.24 52.92 A1.56535 1.53404 0 0 1 37.81 54.43 L37.81 71.83 ZM18.92
							 71.83 L0 71.83 L0 88.84 A1.93967 1.90088 -180 0 0 1.94 90.71 L18.95 90.71 L18.92 71.83 Z" class="st3"/>
			</g>
		</g>
	</g>
</svg>
