<?xml version="1.0" encoding="UTF-8" standalone="no"?>
<!DOCTYPE svg PUBLIC "-//W3C//DTD SVG 1.1//EN" "http://www.w3.org/Graphics/SVG/1.1/DTD/svg11.dtd">
<!-- Generated by Microsoft Visio, SVG Export Sentinel.svg Page-1 -->
<svg xmlns="http://www.w3.org/2000/svg" xmlns:xlink="http://www.w3.org/1999/xlink" xmlns:ev="http://www.w3.org/2001/xml-events"
		width="1.27643in" height="1.48467in" viewBox="0 0 91.9033 106.897" xml:space="preserve" color-interpolation-filters="sRGB"
		class="st4">
	<style type="text/css">
	<![CDATA[
		.st1 {fill:#0072c6;stroke:none;stroke-linecap:butt;stroke-width:21.8571}
		.st2 {fill:#ffffff;fill-opacity:0.15;stroke:none;stroke-linecap:butt;stroke-width:21.8571}
		.st3 {fill:#ffffff;stroke:none;stroke-linecap:butt;stroke-width:21.8571}
		.st4 {fill:none;fill-rule:evenodd;font-size:12px;overflow:visible;stroke-linecap:square;stroke-miterlimit:3}
	]]>
	</style>

	<g>
		<title>Page-1</title>
		<g id="group700-1" transform="translate(21.8571,-28.3465)">
			<title>Sentinel</title>
			<g id="group701-2">
				<title>Sheet.701</title>
				<g id="shape702-3">
					<title>Sheet.702</title>
					<path d="M23.05 106.21 C17.64 102.77 0 90.38 0 75.92 L0 57.42 L1.89 57.28 C9.43 56.79 12.36 54.78 14.94 53 C17.14
								 51.51 19.04 50.2 24.1 50.2 C29.16 50.2 31.14 51.57 33.23 53.01 C35.82 54.78 38.76 56.82 46.3 57.3
								 L48.19 57.42 L48.19 75.92 C48.19 90.38 30.54 102.77 25.13 106.22 L24.08 106.9 L23.05 106.21 Z"
							class="st1"/>
				</g>
				<g id="shape703-5" transform="translate(1.14498,-6.40276)">
					<title>Sheet.703</title>
					<path d="M15.91 106.89 L31.72 60.57 L31.47 60.4 C29.43 59 27.67 57.78 22.96 57.78 C18.25 57.78 16.56 58.96 14.44
								 60.41 C11.73 62.27 8.67 64.38 0.81 64.86 L0 64.93 L0 82.32 C0 92.29 8.94 101.35 15.91 106.9 L15.91
								 106.89 Z" class="st2"/>
				</g>
				<g id="shape704-7" transform="translate(5.77999,-28.3518)">
					<title>Sheet.704</title>
					<path d="M18.32 95.09 L18.33 95.09 A12.6051 12.9703 0 0 1 30.88 106.85 L30.89 106.9 L36.62 106.9 C36.08 96.92
								 28.09 89.03 18.31 89.03 C8.52 89.03 0.53 96.92 0 106.85 L0 106.9 L5.73 106.9 C6.33 100.25 11.72
								 95.09 18.28 95.09 L18.32 95.09 L18.32 95.09 L18.32 95.09 Z" class="st3"/>
				</g>
				<g id="shape705-9" transform="translate(17.3314,-20.1986)">
					<title>Sheet.705</title>
					<path d="M13.54 99.93 A6.77173 6.96791 0 1 1 0 99.93 A6.77173 6.96791 0 1 1 13.54 99.93 Z" class="st3"/>
				</g>
			</g>
		</g>
	</g>
</svg>
