<?xml version="1.0" encoding="UTF-8" standalone="no"?>
<!DOCTYPE svg PUBLIC "-//W3C//DTD SVG 1.1//EN" "http://www.w3.org/Graphics/SVG/1.1/DTD/svg11.dtd">
<!-- Generated by Microsoft Visio, SVG Export Service Endpoint Policy.svg Page-1 -->
<svg xmlns="http://www.w3.org/2000/svg" xmlns:xlink="http://www.w3.org/1999/xlink" xmlns:ev="http://www.w3.org/2001/xml-events"
		width="1.6925in" height="1.72311in" viewBox="0 0 121.86 124.064" xml:space="preserve" color-interpolation-filters="sRGB"
		class="st6">
	<style type="text/css">
	<![CDATA[
		.st1 {fill:#0078d4;stroke:none;stroke-linecap:butt;stroke-width:34}
		.st2 {fill:url(#grad0-8);stroke:none;stroke-linecap:butt;stroke-width:34}
		.st3 {fill:#f2f2f2;stroke:none;stroke-linecap:butt;stroke-width:34}
		.st4 {fill:#5ea0ef;stroke:none;stroke-linecap:butt;stroke-width:34}
		.st5 {fill:#b3b3b3;stroke:none;stroke-linecap:butt;stroke-width:34}
		.st6 {fill:none;fill-rule:evenodd;font-size:12px;overflow:visible;stroke-linecap:square;stroke-miterlimit:3}
	]]>
	</style>

	<defs id="Patterns_And_Gradients">
		<linearGradient id="grad0-8" x1="0" y1="0" x2="1" y2="0" gradientTransform="rotate(-90 0.5 0.5)">
			<stop offset="0" stop-color="#0078d4" stop-opacity="1"/>
			<stop offset="0.82" stop-color="#5ea0ef" stop-opacity="1"/>
		</linearGradient>
	</defs>
	<g>
		<title>Page-1</title>
		<g id="group644-1" transform="translate(34,-34)">
			<title>Service Endpoint Policy</title>
			<g id="group645-2">
				<title>Icon-networking-85</title>
				<g id="shape646-3" transform="translate(40.8994,-44.886)">
					<title>Sheet.646</title>
					<path d="M0.23 120.77 A7.55931 7.61842 0 0 1 7.76 113.11 A6.08672 6.13431 0 0 1 12.96 119.31 A6.08672 6.13431
								 0 0 1 11.62 123.21 A2.32343 2.34159 0 0 1 9.82 124.06 L0 124.06 L0.23 120.77 Z" class="st1"/>
				</g>
				<g id="shape647-5" transform="translate(4.93544,0)">
					<title>Sheet.647</title>
					<path d="M36.88 68.06 L7.43 68.06 A7.49387 7.55246 -180 0 0 -0 75.62 L0 124.06 L29.45 124.06 A7.49387 7.55246
								 -180 0 0 36.95 116.51 L36.95 83.83 A84.2978 84.9569 0 0 1 36.95 73.93 C38.12 67.37 45.16 68.53 45.16
								 68.53 A36.4221 36.7069 -180 0 0 36.88 68.06 Z" class="st2"/>
				</g>
				<g id="shape648-9" transform="translate(21.0031,-15.7206)">
					<title>Sheet.648</title>
					<path d="M2.62 120.49 L2.62 104.99 A1.73439 1.74795 -180 0 0 3.5 103.47 A1.76711 1.78093 -180 0 0 1.73 101.69
								 A1.76711 1.78093 -180 0 0 0.88 104.99 L0.88 120.49 A1.79984 1.81391 -180 0 0 -0 122.04 A1.76711
								 1.78093 -180 1 0 3.5 122.04 A1.79984 1.81391 -180 0 0 2.62 120.49 Z" class="st3"/>
				</g>
				<g id="shape649-11" transform="translate(2.67786E-13,-0.197881)">
					<title>Sheet.649</title>
					<path d="M34.91 124.06 A6.02127 6.06835 0 0 1 32 113.38 a0.752659 0.758544 -180 0 0 -0.490865 -1.35219 L4.97
								 112.03 A6.054 6.10133 -180 0 0 4.97 124.03 A4.45051 4.4853 -180 0 0 5.92 124.03 L34.91 124.06 Z"
							class="st4"/>
				</g>
				<g id="shape650-13" transform="translate(26.5335,-34.4643)">
					<title>Sheet.650</title>
					<ellipse cx="1.79984" cy="122.25" rx="1.79984" ry="1.81391" class="st3"/>
				</g>
				<g id="shape651-15" transform="translate(20.8067,-34.4643)">
					<title>Sheet.651</title>
					<ellipse cx="1.79984" cy="122.25" rx="1.79984" ry="1.81391" class="st3"/>
				</g>
				<g id="shape652-17" transform="translate(15.1127,-34.4643)">
					<title>Sheet.652</title>
					<ellipse cx="1.79984" cy="122.25" rx="1.79984" ry="1.81391" class="st3"/>
				</g>
				<g id="shape653-19" transform="translate(8.65278,-27.9131)">
					<title>Sheet.653</title>
					<path d="M8.42 123.98 L9.47 122.92 a0.490865 0.494703 -180 0 0 7.10543E-15 -0.659603 L1.32 114.08 L0.28 115.14
								 a0.91628 0.923445 -180 0 0 -9.65894E-15 1.31921 L7.87 123.98 a0.490865 0.494703 -180 0 0 0.556313
								 1.42109E-14 Z" class="st5"/>
				</g>
				<g id="shape654-21" transform="translate(8.65278,-34.5962)">
					<title>Sheet.654</title>
					<path d="M9.41 115.16 L8.42 114.17 a0.490865 0.494703 -180 0 0 -0.654486 0 L0.28 121.66 a0.91628 0.923445 -180
								 0 0 -8.88178E-15 1.31921 L1.29 124.06 L9.41 115.82 a0.425416 0.428742 -180 0 0 -7.10543E-15 -0.659603
								 Z" class="st3"/>
				</g>
				<g id="shape655-23" transform="translate(26.7399,-27.8742)">
					<title>Sheet.655</title>
					<path d="M1.2 123.94 L0.15 122.85 a0.425416 0.428742 0 0 1 -4.60743E-15 -0.659603 L8.43 114.04 L9.45 115.1 a0.91628
								 0.923445 0 0 1 1.77636E-15 1.31921 L1.86 123.94 a0.490865 0.494703 0 0 1 -0.654486 0 Z"
							class="st5"/>
				</g>
				<g id="shape656-25" transform="translate(26.9321,-34.5962)">
					<title>Sheet.656</title>
					<path d="M0.12 115.16 L1.17 114.17 a0.490865 0.494703 0 0 1 0.654486 0 L9.26 121.69 a0.91628 0.923445 0 0 1 0
								 1.31921 L8.24 124.06 L0.12 115.82 a0.490865 0.494703 0 0 1 -4.55191E-15 -0.659603 Z" class="st3"/>
				</g>
			</g>
		</g>
	</g>
</svg>
