<?xml version="1.0" encoding="UTF-8" standalone="no"?>
<!DOCTYPE svg PUBLIC "-//W3C//DTD SVG 1.1//EN" "http://www.w3.org/Graphics/SVG/1.1/DTD/svg11.dtd">
<!-- Generated by Microsoft Visio, SVG Export Service Bus.svg Page-1 -->
<svg xmlns="http://www.w3.org/2000/svg" xmlns:xlink="http://www.w3.org/1999/xlink" xmlns:ev="http://www.w3.org/2001/xml-events"
		width="1.73192in" height="1.65311in" viewBox="0 0 124.698 119.024" xml:space="preserve" color-interpolation-filters="sRGB"
		class="st8">
	<style type="text/css">
	<![CDATA[
		.st1 {fill:#50e6ff;stroke:none;stroke-linecap:butt;stroke-width:34}
		.st2 {fill:#32bedd;stroke:none;stroke-linecap:butt;stroke-width:34}
		.st3 {fill:#198ab3;stroke:none;stroke-linecap:butt;stroke-width:34}
		.st4 {fill:url(#grad0-12);stroke:none;stroke-linecap:butt;stroke-width:34}
		.st5 {fill:#999999;stroke:none;stroke-linecap:butt;stroke-width:34}
		.st6 {fill:#999999;fill-opacity:0.5;stroke:none;stroke-linecap:butt;stroke-width:34}
		.st7 {fill:#949494;stroke:none;stroke-linecap:butt;stroke-width:34}
		.st8 {fill:none;fill-rule:evenodd;font-size:12px;overflow:visible;stroke-linecap:square;stroke-miterlimit:3}
	]]>
	</style>

	<defs id="Patterns_And_Gradients">
		<linearGradient id="grad0-12" x1="0" y1="0" x2="1" y2="0" gradientTransform="rotate(90 0.5 0.5)">
			<stop offset="0" stop-color="#005ba1" stop-opacity="1"/>
			<stop offset="0.26" stop-color="#00589d" stop-opacity="1"/>
			<stop offset="0.53" stop-color="#004f90" stop-opacity="1"/>
			<stop offset="0.8" stop-color="#003f7c" stop-opacity="1"/>
			<stop offset="1" stop-color="#003067" stop-opacity="1"/>
		</linearGradient>
	</defs>
	<g>
		<title>Page-1</title>
		<g id="group680-1" transform="translate(34.0052,-34)">
			<title>Service Bus</title>
			<g id="group681-2">
				<title>Icon-integration-214</title>
				<g id="shape682-3" transform="translate(13.7063,-11.3573)">
					<title>Sheet.682</title>
					<path d="M29.28 99.48 L29.25 99.48 L29.25 99.41 L29.18 99.41 L14.64 89.4 L0.07 99.41 L0 99.41 L0 119.02 L29.25
								 119.02 L29.25 99.48 L29.28 99.48 Z" class="st1"/>
				</g>
				<g id="shape683-5" transform="translate(13.7063,-11.3573)">
					<title>Sheet.683</title>
					<path d="M0 99.48 L0 119.02 L14.64 109.25 L0 99.48 Z" class="st2"/>
				</g>
				<g id="shape684-7" transform="translate(28.3465,-11.3573)">
					<title>Sheet.684</title>
					<path d="M14.61 99.48 L0 109.25 L14.61 119.02 L14.61 99.48 Z" class="st3"/>
				</g>
				<g id="shape685-9" transform="translate(13.7063,-11.3573)">
					<title>Sheet.685</title>
					<path d="M14.61 109.25 L0 118.99 L0 119.02 L29.25 119.02 L29.25 118.99 L14.61 109.25 Z" class="st4"/>
				</g>
				<g id="group686-13" transform="translate(5.64548E-14,-38.015)">
					<title>Sheet.686</title>
					<g id="shape687-14">
						<title>Sheet.687</title>
						<path d="M1.9 106.01 L6.2 106.01 L6.2 118.05 a0.967114 0.977335 0 0 1 -0.967114 0.977335 L0.97 119.02 a0.967114
									 0.977335 0 0 1 -0.967114 -0.977335 L0 107.94 A1.90088 1.92097 0 0 1 1.9 106.01 Z" class="st5"/>
					</g>
					<g id="shape688-16">
						<title>Sheet.688</title>
						<path d="M1.9 106.01 L6.2 106.01 L6.2 118.05 a0.967114 0.977335 0 0 1 -0.967114 0.977335 L0.97 119.02 a0.967114
									 0.977335 0 0 1 -0.967114 -0.977335 L0 107.94 A1.90088 1.92097 0 0 1 1.9 106.01 Z" class="st6"/>
					</g>
				</g>
				<g id="group689-18" transform="translate(50.49,-38.015)">
					<title>Sheet.689</title>
					<g id="shape690-19">
						<title>Sheet.690</title>
						<path d="M0 106.01 L4.3 106.01 A1.90088 1.92097 0 0 1 6.2 107.94 L6.2 118.05 a0.967114 0.977335 0 0 1 -0.967114
									 0.977335 L0.93 119.02 a0.967114 0.977335 0 0 1 -0.933766 -0.977335 L0 106.01 Z" class="st5"/>
					</g>
					<g id="shape691-21">
						<title>Sheet.691</title>
						<path d="M0 106.01 L4.3 106.01 A1.90088 1.92097 0 0 1 6.2 107.94 L6.2 118.05 a0.967114 0.977335 0 0 1 -0.967114
									 0.977335 L0.93 119.02 a0.967114 0.977335 0 0 1 -0.933766 -0.977335 L0 106.01 Z" class="st6"/>
					</g>
				</g>
				<g id="shape692-23" transform="translate(0,-44.89)">
					<title>Sheet.692</title>
					<path d="M56.69 114.81 L56.69 119.02 L0 119.02 L0 114.81 A1.90088 1.92097 0 0 1 1.9 112.89 L54.83 112.89 A1.90088
								 1.92097 0 0 1 56.69 114.81 Z" class="st7"/>
				</g>
				<g id="group693-25">
					<title>Sheet.693</title>
					<g id="shape694-26">
						<title>Sheet.694</title>
						<path d="M0.97 105.91 L5.27 105.91 a0.967114 0.977335 0 0 1 0.967114 0.977335 L6.24 119.02 L1.9 119.02 A1.90088
									 1.92097 0 0 1 0 117.1 L0 106.99 a0.967114 0.977335 0 0 1 0.967114 -1.07844 Z" class="st5"/>
					</g>
					<g id="shape695-28">
						<title>Sheet.695</title>
						<path d="M0.97 105.91 L5.27 105.91 a0.967114 0.977335 0 0 1 0.967114 0.977335 L6.24 119.02 L1.9 119.02 A1.90088
									 1.92097 0 0 1 0 117.1 L0 106.99 a0.967114 0.977335 0 0 1 0.967114 -1.07844 Z" class="st6"/>
					</g>
				</g>
				<g id="group696-30" transform="translate(50.49,-0.101104)">
					<title>Sheet.696</title>
					<g id="shape697-31">
						<title>Sheet.697</title>
						<path d="M0.93 106.01 L5.24 106.01 a0.967114 0.977335 0 0 1 0.967114 0.977335 L6.2 117.1 A1.90088 1.92097
									 0 0 1 4.3 119.02 L0 119.02 L0 107.09 a0.967114 0.977335 0 0 1 0.933766 -1.07844 Z" class="st5"/>
					</g>
					<g id="shape698-33">
						<title>Sheet.698</title>
						<path d="M0.93 106.01 L5.24 106.01 a0.967114 0.977335 0 0 1 0.967114 0.977335 L6.2 117.1 A1.90088 1.92097
									 0 0 1 4.3 119.02 L0 119.02 L0 107.09 a0.967114 0.977335 0 0 1 0.933766 -1.07844 Z" class="st6"/>
					</g>
				</g>
				<g id="shape699-35">
					<title>Sheet.699</title>
					<path d="M0 117.1 L0 112.89 L56.69 112.89 L56.69 117.1 A1.90088 1.92097 0 0 1 54.79 119.02 L1.9 119.02 A1.90088
								 1.92097 0 0 1 0 117.1 Z" class="st7"/>
				</g>
			</g>
		</g>
	</g>
</svg>
