<?xml version="1.0" encoding="UTF-8" standalone="no"?>
<!DOCTYPE svg PUBLIC "-//W3C//DTD SVG 1.1//EN" "http://www.w3.org/Graphics/SVG/1.1/DTD/svg11.dtd">
<!-- Generated by Microsoft Visio, SVG Export Service Catalog Managed Application Definition.svg Page-1 -->
<svg xmlns="http://www.w3.org/2000/svg" xmlns:xlink="http://www.w3.org/1999/xlink" xmlns:ev="http://www.w3.org/2001/xml-events"
		width="1.08803in" height="1.3511in" viewBox="0 0 78.3383 97.2794" xml:space="preserve" color-interpolation-filters="sRGB"
		class="st7">
	<style type="text/css">
	<![CDATA[
		.st1 {fill:#646565;stroke:none;stroke-linecap:butt;stroke-width:12.24}
		.st2 {fill:#646565;fill-opacity:0.5;stroke:none;stroke-linecap:butt;stroke-width:12.24}
		.st3 {fill:#0072c6;stroke:none;stroke-linecap:butt;stroke-width:12.24}
		.st4 {fill:#ffffff;fill-opacity:0.75;stroke:none;stroke-linecap:butt;stroke-width:12.24}
		.st5 {fill:#ffffff;fill-opacity:0.8;stroke:none;stroke-linecap:butt;stroke-width:12.24}
		.st6 {fill:#ffffff;stroke:none;stroke-linecap:butt;stroke-width:12.24}
		.st7 {fill:none;fill-rule:evenodd;font-size:12px;overflow:visible;stroke-linecap:square;stroke-miterlimit:3}
	]]>
	</style>

	<g>
		<title>Page-1</title>
		<g id="group657-1" transform="translate(12.24,-28.3465)">
			<title>Service Catalog Managed Application Definition</title>
			<g id="group658-2">
				<title>Sheet.658</title>
				<g id="shape659-3" transform="translate(5.39568E-14,-47.2441)">
					<title>Sheet.659</title>
					<path d="M0 96.1 L6.58 96.1 L6.58 97.28 L1.2 97.28 C1.2 97.28 0 97.28 0 96.1 Z" class="st1"/>
				</g>
				<g id="shape660-5" transform="translate(-2.69784E-14,-48.4252)">
					<title>Sheet.660</title>
					<path d="M4.79 93.74 L3.59 93.74 A3.59055 3.54331 -180 0 0 0 97.28 L1.2 97.28 A2.3937 2.3622 0 0 1 3.59 94.92
								 L4.79 94.92 L4.79 93.74 Z" class="st2"/>
				</g>
				<g id="shape661-7" transform="translate(5.39568E-14,-40.1575)">
					<title>Sheet.661</title>
					<path d="M0 96.1 L6.58 96.1 L6.58 97.28 L1.2 97.28 C1.2 97.28 0 97.28 0 96.1 Z" class="st1"/>
				</g>
				<g id="shape662-9" transform="translate(-2.69784E-14,-41.3386)">
					<title>Sheet.662</title>
					<path d="M4.79 93.74 L3.59 93.74 A3.59055 3.54331 -180 0 0 -0 97.28 L1.2 97.28 A2.3937 2.3622 0 0 1 3.59 94.92
								 L4.79 94.92 L4.79 93.74 Z" class="st2"/>
				</g>
				<g id="shape663-11" transform="translate(5.39568E-14,-33.0709)">
					<title>Sheet.663</title>
					<path d="M0 96.1 L6.58 96.1 L6.58 97.28 L1.2 97.28 C1.2 97.28 0 97.28 0 96.1 Z" class="st1"/>
				</g>
				<g id="shape664-13" transform="translate(-2.69784E-14,-34.252)">
					<title>Sheet.664</title>
					<path d="M4.79 93.74 L3.59 93.74 A3.59055 3.54331 -180 0 0 0 97.28 L1.2 97.28 A2.3937 2.3622 0 0 1 3.59 94.92
								 L4.79 94.92 L4.79 93.74 Z" class="st2"/>
				</g>
				<g id="shape665-15" transform="translate(5.39568E-14,-25.9843)">
					<title>Sheet.665</title>
					<path d="M0 96.1 L6.58 96.1 L6.58 97.28 L1.2 97.28 C1.2 97.28 0 97.28 0 96.1 Z" class="st1"/>
				</g>
				<g id="shape666-17" transform="translate(-2.69784E-14,-27.1654)">
					<title>Sheet.666</title>
					<path d="M4.79 93.74 L3.59 93.74 A3.59055 3.54331 -180 0 0 -0 97.28 L1.2 97.28 A2.3937 2.3622 0 0 1 3.59 94.92
								 L4.79 94.92 L4.79 93.74 Z" class="st2"/>
				</g>
				<g id="shape667-19" transform="translate(5.39568E-14,-18.8976)">
					<title>Sheet.667</title>
					<path d="M0 96.1 L6.58 96.1 L6.58 97.28 L1.2 97.28 C1.2 97.28 0 97.28 0 96.1 Z" class="st1"/>
				</g>
				<g id="shape668-21" transform="translate(-2.69784E-14,-20.0787)">
					<title>Sheet.668</title>
					<path d="M4.79 93.74 L3.59 93.74 A3.59055 3.54331 -180 0 0 0 97.28 L1.2 97.28 A2.3937 2.3622 0 0 1 3.59 94.92
								 L4.79 94.92 L4.79 93.74 Z" class="st2"/>
				</g>
				<g id="shape669-23" transform="translate(5.39568E-14,-11.811)">
					<title>Sheet.669</title>
					<path d="M0 96.1 L6.58 96.1 L6.58 97.28 L1.2 97.28 C1.2 97.28 0 97.28 0 96.1 Z" class="st1"/>
				</g>
				<g id="shape670-25" transform="translate(-2.69784E-14,-12.9921)">
					<title>Sheet.670</title>
					<path d="M4.79 93.74 L3.59 93.74 A3.59055 3.54331 -180 0 0 -0 97.28 L1.2 97.28 A2.3937 2.3622 0 0 1 3.59 94.92
								 L4.79 94.92 L4.79 93.74 Z" class="st2"/>
				</g>
				<g id="shape671-27" transform="translate(5.39568E-14,-4.72441)">
					<title>Sheet.671</title>
					<path d="M0 96.1 L6.58 96.1 L6.58 97.28 L1.2 97.28 C1.2 97.28 0 97.28 0 96.1 Z" class="st1"/>
				</g>
				<g id="shape672-29" transform="translate(-2.69784E-14,-5.90551)">
					<title>Sheet.672</title>
					<path d="M4.79 93.74 L3.59 93.74 A3.59055 3.54331 -180 0 0 0 97.28 L1.2 97.28 A2.3937 2.3622 0 0 1 3.59 94.92
								 L4.79 94.92 L4.79 93.74 Z" class="st2"/>
				</g>
				<g id="shape673-31" transform="translate(5.98425,-1.1811)">
					<title>Sheet.673</title>
					<path d="M8.38 41.77 C4.79 41.77 0 45.31 0 45.31 L2.39 45.31 L2.39 94.92 L44.28 94.92 L44.28 97.28 L47.87 93.74
								 L47.87 41.77 L8.38 41.77 Z" class="st3"/>
				</g>
				<g id="shape674-33" transform="translate(7.77953,-2.3622)">
					<title>Sheet.674</title>
					<path d="M4.19 44.13 L0 46.49 L1.8 46.49 L1.8 97.28 L42.49 97.28 L44.88 94.92 L44.88 44.13 L4.19 44.13 Z"
							class="st4"/>
				</g>
				<g id="shape675-35" transform="translate(8.37795,-53.1496)">
					<title>Sheet.675</title>
					<path d="M4.19 94.92 L0 97.28 L41.89 97.28 L44.28 94.92 L4.19 94.92 Z" class="st5"/>
				</g>
				<g id="shape676-37" transform="translate(4.7874,0)">
					<title>Sheet.676</title>
					<path d="M0 97.28 L0 93.74 L2.39 93.74 L3.59 92.55 L3.59 91.37 L2.39 90.19 L0 90.19 L0 86.65 L2.39 86.65 L3.59
								 85.47 L3.59 84.29 L2.39 83.11 L0 83.11 L0 79.56 L2.39 79.56 L3.59 78.38 L3.59 77.2 L2.39 76.02 L0
								 76.02 L0 72.48 L2.39 72.48 L3.59 71.3 L3.59 70.11 L2.39 68.93 L0 68.93 L0 65.39 L2.39 65.39 L3.59
								 64.21 L3.59 63.03 L2.39 61.85 L0 61.85 L0 58.3 L2.39 58.3 L3.59 57.12 L3.59 55.94 L2.39 54.76 L0
								 54.76 L0 51.22 L2.39 51.22 L3.59 50.04 L3.59 48.85 L2.39 47.67 L0 47.67 L0 44.13 L45.48 44.13 L45.48
								 97.28 L0 97.28 Z" class="st3"/>
				</g>
				<g id="shape677-39" transform="translate(17.9528,-14.6941)">
					<title>Sheet.677</title>
					<path d="M13.95 89.6 a0.17115 0.168898 -180 0 0 0.0813858 -0.0200787 L19.35 86.67 a0.150803 0.148819 -180 0 0
								 0.0813858 -0.132283 L19.43 80.7 a0.155591 0.153543 -180 0 0 -0.0813858 -0.133465 a0.177134 0.174803
								 -180 0 0 -0.162772 1.84741E-13 L13.87 83.47 a0.155591 0.153543 -180 0 0 -0.0789921 0.133465 L13.79
								 89.44 C13.79 89.5 13.82 89.55 13.87 89.58 a0.162772 0.16063 -180 0 0 0.080189 0.0200787 ZM13.95
								 97.28 a0.17115 0.168898 -180 0 0 0.0813858 -0.0200787 L19.35 94.35 a0.150803 0.148819 -180 0 0 0.0813858
								 -0.132283 L19.43 88.38 a0.155591 0.153543 -180 0 0 -0.0813858 -0.133465 a0.177134 0.174803 -180
								 0 0 -0.162772 -2.84217E-14 L13.87 91.16 a0.155591 0.153543 -180 0 0 -0.0789921 0.133465 L13.79 97.13
								 a0.152 0.15 -180 0 0 0.159181 0.151181 ZM20.85 85.75 a0.179528 0.177165 -180 0 0 0.0825827 -0.0200787
								 L26.25 82.83 a0.150803 0.148819 -180 0 0 0.0813858 -0.132283 L26.33 76.86 a0.153197 0.151181 -180
								 0 0 -0.0825827 -0.133465 a0.177134 0.174803 -180 0 0 -0.162772 -4.68958E-13 L20.77 79.63 a0.155591
								 0.153543 -180 0 0 -0.0789921 0.133465 L20.69 85.6 C20.69 85.66 20.72 85.71 20.77 85.73 a0.183118
								 0.180709 -180 0 0 0.080189 0.0188976 ZM20.85 93.44 a0.179528 0.177165 -180 0 0 0.0825827 -0.0200787
								 L26.25 90.51 a0.150803 0.148819 -180 0 0 0.0813858 -0.132283 L26.33 84.54 a0.153197 0.151181 -180
								 0 0 -0.0825827 -0.133465 a0.177134 0.174803 -180 0 0 -0.162772 -2.27374E-13 L20.77 87.32 a0.155591
								 0.153543 -180 0 0 -0.0789921 0.133465 L20.69 93.29 C20.69 93.34 20.72 93.39 20.77 93.42 a0.183118
								 0.180709 -180 0 0 0.080189 0.0188976 ZM12.38 89.6 a0.17115 0.168898 0 0 1 -0.0813858 -0.0200787
								 L6.98 86.67 a0.150803 0.148819 0 0 1 -0.0813858 -0.132283 L6.9 80.7 a0.155591 0.153543 0 0 1 0.0813858
								 -0.133465 a0.177134 0.174803 0 0 1 0.162772 -2.13163E-13 L12.46 83.47 a0.155591 0.153543 0 0 1 0.0789921
								 0.133465 L12.54 89.44 a0.152 0.15 0 0 1 -0.159181 0.151181 ZM12.38 97.28 a0.17115 0.168898 0 0 1
								 -0.0813858 -0.0200787 L6.98 94.35 a0.150803 0.148819 0 0 1 -0.0813858 -0.132283 L6.9 88.38 a0.155591
								 0.153543 0 0 1 0.0813858 -0.133465 a0.177134 0.174803 0 0 1 0.162772 1.42109E-14 L12.46 91.16 a0.155591
								 0.153543 0 0 1 0.0789921 0.133465 L12.54 97.13 a0.152 0.15 0 0 1 -0.159181 0.151181 ZM5.48 85.75
								 a0.17115 0.168898 0 0 1 -0.0813858 -0.0200787 L0.08 82.83 a0.149606 0.147638 0 0 1 -0.0825827 -0.132283
								 L0 76.86 a0.155591 0.153543 0 0 1 0.0813858 -0.133465 a0.177134 0.174803 0 0 1 0.162772 -1.42109E-14
								 L5.56 79.63 a0.155591 0.153543 0 0 1 0.0789921 0.133465 L5.64 85.6 a0.152 0.15 0 0 1 -0.157984 0.151181
								 ZM5.48 93.44 a0.17115 0.168898 0 0 1 -0.0813858 -0.0200787 L0.08 90.51 a0.149606 0.147638 0 0 1
								 -0.0825827 -0.132283 L0 84.54 a0.155591 0.153543 0 0 1 0.0813858 -0.133465 a0.177134 0.174803 0
								 0 1 0.162772 -9.9476E-14 L5.56 87.32 a0.155591 0.153543 0 0 1 0.0789921 0.133465 L5.64 93.29 a0.152
								 0.15 0 0 1 -0.157984 0.151181 ZM7.79 78.95 a0.150803 0.148819 0 0 1 0.0598425 -0.0555118 L13.14
								 76.06 a0.162772 0.16063 0 0 1 0.160378 -0.0011811 L18.53 78.87 a0.147213 0.145276 0 0 1 0.0789921
								 0.129921 a0.159181 0.157087 0 0 1 -0.0813858 0.129921 L13.24 81.97 a0.169953 0.167717 0 0 1 -0.159181
								 -0.0011811 L7.85 79.15 a0.144819 0.142913 0 0 1 -0.0574488 -0.201969 ZM0.9 75.25 a0.155591 0.153543
								 0 0 1 0.0586457 -0.0555118 L6.19 72.36 a0.157984 0.155906 0 0 1 0.157984 -0.0011811 L11.52 75.17
								 C11.57 75.19 11.6 75.24 11.6 75.3 a0.159181 0.157087 0 0 1 -0.0813858 0.129921 L6.29 78.26 a0.165165
								 0.162992 0 0 1 -0.156787 -0.0011811 L0.96 75.45 a0.146016 0.144094 0 0 1 -0.0777953 -0.126378 a0.169953
								 0.167717 0 0 1 0.0227402 -0.0755906 ZM14.83 75.31 a0.155591 0.153543 0 0 1 0.0586457 -0.0555118
								 L20.12 72.42 a0.157984 0.155906 0 0 1 0.157984 -0.0011811 L25.45 75.23 C25.5 75.26 25.53 75.3 25.53
								 75.36 a0.159181 0.157087 0 0 1 -0.0813858 0.129921 L20.22 78.33 a0.165165 0.162992 0 0 1 -0.156787
								 -0.0011811 L14.89 75.51 a0.146016 0.144094 0 0 1 -0.0777953 -0.126378 a0.165165 0.162992 0 0 1 0.0227402
								 -0.0755906 ZM7.82 71.66 a0.155591 0.153543 0 0 1 0.0598425 -0.0543307 L13.17 68.81 a0.168756 0.166535
								 0 0 1 0.160378 -0.0011811 L18.56 71.58 a0.144819 0.142913 0 0 1 0.0789921 0.127559 a0.157984 0.155906
								 0 0 1 -0.0813858 0.127559 L13.27 74.62 a0.173543 0.17126 0 0 1 -0.159181 -0.0011811 L7.88 71.85
								 a0.142425 0.140551 0 0 1 -0.0789921 -0.125197 C7.8 71.7 7.81 71.68 7.82 71.66 Z" class="st6"/>
				</g>
				<g id="shape678-41" transform="translate(10.853,-8.07047)">
					<title>Sheet.678</title>
					<path d="M14.44 97.28 C12.29 97.28 10.37 95.53 8.97 94.25 C8.57 93.88 8.19 93.54 7.94 93.36 C7.02 92.72 5.21
								 92.02 3.43 92.02 L1.79 92.02 A1.79887 1.7752 0 0 1 -0 90.25 L0 84.75 C0 83.77 0.81 82.98 1.8 82.98
								 L4.48 82.98 L4.61 84.16 L4.61 82.98 C5.38 82.98 6.58 82.76 7.64 82.57 C8.49 82.41 9.29 82.26 9.96
								 82.2 C10.25 82.18 10.55 82.16 10.85 82.16 C11.69 82.16 14.55 82.3 15.79 84.05 C15.94 84.25 16.61
								 85.05 16.92 85.29 C17.18 85.5 17.82 85.72 18.85 85.72 L19.04 85.71 C19.12 85.71 19.31 85.69 19.56
								 85.67 C20.27 85.61 21.35 85.52 22.17 85.52 C22.36 85.52 22.54 85.52 22.69 85.54 C24.26 85.65 25.11
								 86.7 25.25 87.69 C25.31 88.07 25.25 88.59 25.05 89.07 L25.63 88.79 C27.47 87.89 30 86.67 31.46 86.18
								 A5.14167 5.07402 0 0 1 33.1 85.9 C34.29 85.9 35.27 86.39 35.73 87.2 C35.97 87.63 36.27 88.55 35.53
								 89.72 C35.15 90.33 34.53 90.93 33.85 91.34 A544.679 537.513 0 0 1 29.93 93.71 C29.38 94.05 28.81
								 94.41 28.25 94.77 C26.32 96 25.09 96.76 24.17 96.88 A9.55685 9.4311 0 0 1 22.91 96.95 C22.5 96.95
								 22.04 96.94 21.58 96.93 A56.7247 55.9783 -180 0 0 20.27 96.9 C19.95 96.9 19.66 96.91 19.41 96.93
								 C19.05 96.96 18.64 97 18.19 97.04 C17.11 97.15 15.77 97.28 14.44 97.28 Z" class="st3"/>
				</g>
				<g id="shape679-43" transform="translate(11.9314,-9.13228)">
					<title>Sheet.679</title>
					<path d="M30.65 88.48 C28.62 89.16 24.16 91.46 23.14 91.89 C21.94 92.39 19.55 92.7 16.89 92.65 C15.42 92.62 14.37
								 92.46 13.78 91.92 C13.78 91.92 11.67 90.23 11.24 89.82 C10.52 89.11 11.45 88.05 12.18 88.61 C12.72
								 89.02 13.61 89.91 14.48 90.55 C15.35 91.2 18.43 90.9 19.7 90.81 C21.17 90.71 21.99 90.43 22.32 90.27
								 C22.8 90.04 22.92 89.34 22.87 89.04 C22.81 88.61 22.41 87.97 21.41 87.89 C20.41 87.82 18.2 88.07
								 17.87 88.08 C16.34 88.11 15.43 87.76 14.97 87.39 C14.51 87.03 13.73 86.06 13.62 85.91 C12.84 84.82
								 10.7 84.39 8.87 84.56 C7.35 84.7 4.76 85.38 3.28 85.34 L0.6 85.34 a0.598425 0.590551 -180 0 0 -0.598425
								 0.590551 L0 91.43 a0.598425 0.590551 -180 0 0 0.596031 0.590551 L2.24 92.02 C4.18 92.02 6.23 92.74
								 7.43 93.58 C8.64 94.42 10.97 97.28 13.25 97.28 C15.05 97.28 16.86 97.02 18.13 96.93 C19.39 96.84
								 21.82 97.03 22.81 96.89 C23.79 96.76 26.12 95.08 28.1 93.89 C29.31 93.17 30.65 92.36 32.02 91.52
								 C32.57 91.19 33.04 90.72 33.32 90.28 C34.29 88.73 32.61 87.82 30.65 88.48 Z" class="st6"/>
				</g>
			</g>
		</g>
	</g>
</svg>
