<?xml version="1.0" encoding="UTF-8" standalone="no"?>
<!DOCTYPE svg PUBLIC "-//W3C//DTD SVG 1.1//EN" "http://www.w3.org/Graphics/SVG/1.1/DTD/svg11.dtd">
<!-- Generated by Microsoft Visio, SVG Export Service Endpoint.svg Page-1 -->
<svg xmlns="http://www.w3.org/2000/svg" xmlns:xlink="http://www.w3.org/1999/xlink" xmlns:ev="http://www.w3.org/2001/xml-events"
		width="1.08566in" height="1.34925in" viewBox="0 0 78.1677 97.1462" xml:space="preserve" color-interpolation-filters="sRGB"
		class="st6">
	<style type="text/css">
	<![CDATA[
		.st1 {fill:#3999c6;stroke:none;stroke-linecap:butt;stroke-width:12.24}
		.st2 {fill:#57a300;stroke:none;stroke-linecap:butt;stroke-width:12.24}
		.st3 {fill:#59b4d9;stroke:none;stroke-linecap:butt;stroke-width:12.24}
		.st4 {fill:#ffffff;stroke:none;stroke-linecap:butt;stroke-width:12.24}
		.st5 {fill:#ffffff;fill-opacity:0.2;stroke:none;stroke-linecap:butt;stroke-width:12.24}
		.st6 {fill:none;fill-rule:evenodd;font-size:12px;overflow:visible;stroke-linecap:square;stroke-miterlimit:3}
	]]>
	</style>

	<g>
		<title>Page-1</title>
		<g id="group632-1" transform="translate(12.24,-28.3465)">
			<title>Service Endpoint</title>
			<g id="group633-2">
				<title>g24</title>
				<g id="shape634-3" transform="translate(0.586231,-25.775)">
					<title>path4</title>
					<path d="M52.74 82.43 C53.27 81.9 53.17 81.05 52.74 80.51 L50.21 77.96 L38.79 66.76 C38.26 66.23 37.52 66.23
								 36.99 66.76 C36.47 67.3 36.36 68.15 36.99 68.68 L48.94 80.52 A1.34061 1.35218 0 0 1 48.94 82.43
								 L36.78 94.69 A1.34061 1.35218 -180 0 0 36.78 96.61 C37.31 97.15 38.16 97.04 38.58 96.61 L49.89 85.31
								 L50 85.21 L52.74 82.43 ZM0.53 82.43 C0 81.9 0.11 81.05 0.53 80.51 L3.07 77.96 L14.48 66.76 C15.01
								 66.23 15.75 66.23 16.28 66.76 C16.81 67.29 16.91 68.15 16.28 68.68 L4.55 80.52 A1.34061 1.35218
								 -180 0 0 4.55 82.43 L16.49 94.69 A1.34061 1.35218 0 0 1 16.49 96.61 C15.96 97.15 15.12 97.04 14.69
								 96.61 L3.17 85.42 L3.07 85.31 L0.53 82.43 Z" class="st1"/>
				</g>
				<g id="shape635-5" transform="translate(11.9291,-37.2422)">
					<title>path6</title>
					<path d="M7.95 93.14 C7.95 95.44 6.08 97.15 4.09 97.15 C2.11 97.15 0 95.2 0 93.14 C0 91.07 1.64 89.12 4.09 89.12
								 C6.43 89.12 7.95 91.07 7.95 93.14 Z" class="st2"/>
				</g>
				<g id="shape636-7" transform="translate(34.6513,-37.2422)">
					<title>circle8</title>
					<ellipse cx="3.97637" cy="93.1355" rx="3.97637" ry="4.0107" class="st2"/>
				</g>
				<g id="shape637-9">
					<title>path10</title>
					<path d="M45.44 81.1 C45.04 81.1 44.65 81.14 44.26 81.2 L44.26 81.19 C44.26 72.48 37.32 65.42 28.76 65.42 C21.92
								 65.42 16.12 69.93 14.06 76.18 A10.4033 10.4931 -180 0 0 10.6 75.58 C4.74 75.58 0 80.41 0 86.36 C0
								 92.32 4.74 97.15 10.6 97.15 L10.61 97.14 L10.61 97.15 L44.9 97.15 L44.9 97.14 L44.93 97.15 C45.02
								 97.15 45.1 97.14 45.19 97.13 C45.27 97.14 45.36 97.15 45.44 97.15 A7.95275 8.02139 -180 0 0 45.44
								 81.1 Z" class="st3"/>
				</g>
				<g id="shape638-11" transform="translate(24.9943,-12.605)">
					<title>path12</title>
					<rect x="0" y="70.7902" width="4.54443" height="26.356" class="st4"/>
				</g>
				<g id="shape639-13">
					<title>path14</title>
					<path d="M23.95 77.69 A15.3408 15.4733 0 0 1 31.92 65.76 C30.9 65.55 29.85 65.42 28.76 65.42 C21.92 65.42 16.12
								 69.92 14.06 76.18 A10.3976 10.4874 -180 0 0 10.6 75.58 C4.74 75.58 0 80.41 0 86.36 C0 92.32 4.74
								 97.15 10.6 97.15 L10.61 97.14 L10.61 97.15 L15.07 97.15 A11.8712 11.9736 0 0 1 12.5 89.7 C12.5 83.21
								 17.59 77.94 23.95 77.69 Z" class="st5"/>
				</g>
				<g id="shape640-15" transform="translate(23.2902,-37.2422)">
					<title>path16</title>
					<path d="M7.95 93.14 C7.95 95.44 6.08 97.15 4.09 97.15 C2.11 97.15 0 95.2 0 93.14 C0 91.07 1.87 89.12 4.09 89.12
								 C6.32 89.12 7.95 91.07 7.95 93.14 Z" class="st2"/>
				</g>
				<g id="shape641-17" transform="translate(22.6085,-9.05157)">
					<title>path18</title>
					<path d="M6.93 88.34 L6.93 74.51 C6.67 74.5 6.42 74.47 6.15 74.47 C4.85 74.47 3.59 74.64 2.39 74.94 L2.39 88.44
								 C0.99 89.28 0 90.79 0 92.45 C0 94.86 2.31 97.15 4.76 97.15 C7.27 97.15 9.32 95.04 9.32 92.45 A4.66145
								 4.70168 -180 0 0 6.93 88.34 Z" class="st4"/>
				</g>
				<g id="shape642-19" transform="translate(23.9718,-10.4278)">
					<title>path20</title>
					<path d="M6.59 93.82 C6.59 95.74 5.04 97.15 3.39 97.15 C1.74 97.15 0 95.54 0 93.82 C0 92.11 1.55 90.5 3.39 90.5
								 C5.23 90.5 6.59 92.11 6.59 93.82 Z" class="st2"/>
				</g>
				<g id="shape643-21" transform="translate(26.1305,-13.751)">
					<title>path22</title>
					<rect x="0" y="73.082" width="2.27221" height="24.0642" class="st2"/>
				</g>
			</g>
		</g>
	</g>
</svg>
