<?xml version="1.0" encoding="UTF-8" standalone="no"?>
<!DOCTYPE svg PUBLIC "-//W3C//DTD SVG 1.1//EN" "http://www.w3.org/Graphics/SVG/1.1/DTD/svg11.dtd">
<!-- Generated by Microsoft Visio, SVG Export Shared Image Gallery.svg Page-1 -->
<svg xmlns="http://www.w3.org/2000/svg" xmlns:xlink="http://www.w3.org/1999/xlink" xmlns:ev="http://www.w3.org/2001/xml-events"
		width="1.73185in" height="1.73185in" viewBox="0 0 124.693 124.693" xml:space="preserve" color-interpolation-filters="sRGB"
		class="st9">
	<style type="text/css">
	<![CDATA[
		.st1 {fill:#005ba1;stroke:none;stroke-linecap:butt;stroke-width:34}
		.st2 {fill:#0078d4;stroke:none;stroke-linecap:butt;stroke-width:34}
		.st3 {fill:#32bedd;stroke:none;stroke-linecap:butt;stroke-width:34}
		.st4 {fill:#50e6ff;stroke:none;stroke-linecap:butt;stroke-width:34}
		.st5 {fill:#c3f1ff;stroke:none;stroke-linecap:butt;stroke-width:34}
		.st6 {fill:#9cebff;stroke:none;stroke-linecap:butt;stroke-width:34}
		.st7 {fill:url(#grad0-22);stroke:none;stroke-linecap:butt;stroke-width:34}
		.st8 {fill:#f2f2f2;stroke:none;stroke-linecap:butt;stroke-width:34}
		.st9 {fill:none;fill-rule:evenodd;font-size:12px;overflow:visible;stroke-linecap:square;stroke-miterlimit:3}
	]]>
	</style>

	<defs id="Patterns_And_Gradients">
		<linearGradient id="grad0-22" x1="0" y1="0" x2="1" y2="0" gradientTransform="rotate(-90 0.5 0.5)">
			<stop offset="0" stop-color="#0078d4" stop-opacity="1"/>
			<stop offset="0.82" stop-color="#5ea0ef" stop-opacity="1"/>
		</linearGradient>
	</defs>
	<g>
		<title>Page-1</title>
		<g id="group609-1" transform="translate(34,-34)">
			<title>Shared Image Gallery</title>
			<g id="group610-2">
				<title>Icon-compute-39</title>
				<g id="shape611-3" transform="translate(17.0045,-14.7529)">
					<title>Sheet.611</title>
					<path d="M0 123.28 A1.41147 1.41147 -180 0 0 1.41 124.69 L32.09 124.69 A1.41147 1.41147 -180 0 0 33.5 123.28
								 L33.5 84.16 A1.41147 1.41147 -180 0 0 32.09 82.75 L1.41 82.75 A1.41147 1.41147 -180 0 0 0 84.16
								 L0 123.28 Z" class="st1"/>
				</g>
				<g id="shape612-5" transform="translate(11.93,-10.2162)">
					<title>Sheet.612</title>
					<path d="M0 123.28 A1.41147 1.41147 -180 0 0 1.41 124.69 L32.09 124.69 A1.41147 1.41147 -180 0 0 33.5 123.28
								 L33.5 84.16 A1.41147 1.41147 -180 0 0 32.09 82.75 L1.41 82.75 A1.41147 1.41147 -180 0 0 0 84.16
								 L0 123.28 Z" class="st2"/>
				</g>
				<g id="shape613-7" transform="translate(6.78836,-5.64577)">
					<title>Sheet.613</title>
					<path d="M0 123.28 A1.41147 1.41147 -180 0 0 1.41 124.69 L32.09 124.69 A1.41147 1.41147 -180 0 0 33.5 123.28
								 L33.5 84.16 A1.41147 1.41147 -180 0 0 32.09 82.75 L1.41 82.75 A1.41147 1.41147 -180 0 0 0 84.16
								 L0 123.28 Z" class="st3"/>
				</g>
				<g id="shape614-9" transform="translate(23.5576,-17.9791)">
					<title>Sheet.614</title>
					<path d="M9.78 107.59 L9.78 118.98 L0 124.69 L0 113.3 L9.78 107.59 Z" class="st4"/>
				</g>
				<g id="shape615-11" transform="translate(13.7784,-29.3378)">
					<title>Sheet.615</title>
					<path d="M19.56 118.95 L9.78 124.69 L0 118.95 L9.78 113.23 L19.56 118.95 Z" class="st5"/>
				</g>
				<g id="shape616-13" transform="translate(13.7784,-17.9791)">
					<title>Sheet.616</title>
					<path d="M9.78 113.33 L9.78 124.69 L0 118.98 L0 107.59 L9.78 113.33 Z" class="st6"/>
				</g>
				<g id="shape617-15" transform="translate(13.7784,-17.9791)">
					<title>Sheet.617</title>
					<path d="M0 118.98 L9.78 113.3 L9.78 124.69 L0 118.98 Z" class="st5"/>
				</g>
				<g id="shape618-17" transform="translate(23.5576,-17.9791)">
					<title>Sheet.618</title>
					<path d="M9.78 118.98 L0 113.3 L0 124.69 L9.78 118.98 Z" class="st6"/>
				</g>
				<g id="shape619-19">
					<title>Sheet.619</title>
					<path d="M0 122.81 A1.88197 1.88197 -180 0 0 1.88 124.69 L54.81 124.69 A1.88197 1.88197 -180 0 0 56.69 122.81
								 L56.69 106.44 A1.88197 1.88197 -180 0 0 54.81 104.56 L1.88 104.56 A1.88197 1.88197 -180 0 0 -0 106.44
								 L0 122.81 Z" class="st7"/>
				</g>
				<g id="shape620-23" transform="translate(20.2979,-12.2325)">
					<title>Sheet.620</title>
					<path d="M0 123.25 A1.44508 1.44508 -180 0 0 1.45 124.69 L14.72 124.69 A1.44508 1.44508 -180 0 0 16.16 123.25
								 L16.16 123.21 A1.44508 1.44508 -180 0 0 14.72 121.77 L1.45 121.77 A1.44508 1.44508 -180 0 0 0 123.21
								 L0 123.25 Z" class="st8"/>
				</g>
			</g>
		</g>
	</g>
</svg>
