<?xml version="1.0" encoding="UTF-8" standalone="no"?>
<!DOCTYPE svg PUBLIC "-//W3C//DTD SVG 1.1//EN" "http://www.w3.org/Graphics/SVG/1.1/DTD/svg11.dtd">
<!-- Generated by Microsoft Visio, SVG Export Sign In.svg Page-1 -->
<svg xmlns="http://www.w3.org/2000/svg" xmlns:xlink="http://www.w3.org/1999/xlink" xmlns:ev="http://www.w3.org/2001/xml-events"
		width="1.07597in" height="1.34456in" viewBox="0 0 77.4695 96.8086" xml:space="preserve" color-interpolation-filters="sRGB"
		class="st3">
	<style type="text/css">
	<![CDATA[
		.st1 {fill:#0072c6;stroke:none;stroke-linecap:butt;stroke-width:11.7692}
		.st2 {fill:#57a300;stroke:none;stroke-linecap:butt;stroke-width:11.7692}
		.st3 {fill:none;fill-rule:evenodd;font-size:12px;overflow:visible;stroke-linecap:square;stroke-miterlimit:3}
	]]>
	</style>

	<g>
		<title>Page-1</title>
		<g id="group605-1" transform="translate(11.7692,-28.3465)">
			<title>Sign In</title>
			<g id="group606-2">
				<title>g8</title>
				<g id="shape607-3" transform="translate(3.35198,0)">
					<title>path4</title>
					<path d="M22.1 40.12 C29.69 40.12 36.77 43.05 42.29 48.39 C53.34 59.42 53.34 77.51 42.29 88.54 C36.94 93.88 29.69
								 96.81 22.1 96.81 C14.5 96.81 7.42 93.88 1.9 88.54 C0 86.64 0 83.71 1.9 81.82 C3.8 79.92 6.73 79.92
								 8.63 81.82 C12.26 85.43 16.92 87.5 22.1 87.5 C27.27 87.5 31.94 85.61 35.56 81.99 C42.98 74.58 42.98
								 62.52 35.56 55.28 C31.94 51.66 27.1 49.59 22.1 49.59 C17.09 49.59 12.26 51.49 8.63 55.11 C6.73 57
								 3.8 57 1.9 55.11 C0 53.21 0 50.28 1.9 48.39 C7.25 43.05 14.5 40.12 22.1 40.12 Z" class="st1"/>
				</g>
				<g id="shape608-5" transform="translate(2.8777E-13,-15.8343)">
					<title>path6</title>
					<path d="M28.51 80.99 L19.04 70.96 L26.58 70.96 L39.33 83.88 L26.77 96.81 L19.04 96.81 L28.51 86.97 L1.76 86.97
								 A1.75834 1.75521 0 0 1 -0 85.22 L0 82.75 C0 81.78 0.79 80.99 1.76 80.99 L28.51 80.99 Z"
							class="st2"/>
				</g>
			</g>
		</g>
	</g>
</svg>
