<?xml version="1.0" encoding="UTF-8" standalone="no"?>
<!DOCTYPE svg PUBLIC "-//W3C//DTD SVG 1.1//EN" "http://www.w3.org/Graphics/SVG/1.1/DTD/svg11.dtd">
<!-- Generated by Microsoft Visio, SVG Export Signalr.svg Page-1 -->
<svg xmlns="http://www.w3.org/2000/svg" xmlns:xlink="http://www.w3.org/1999/xlink" xmlns:ev="http://www.w3.org/2001/xml-events"
		width="1.1274in" height="1.3511in" viewBox="0 0 81.1729 97.2794" xml:space="preserve" color-interpolation-filters="sRGB"
		class="st2">
	<style type="text/css">
	<![CDATA[
		.st1 {fill:url(#grad2-6);stroke:none;stroke-linecap:butt;stroke-width:12.24}
		.st2 {fill:none;fill-rule:evenodd;font-size:12px;overflow:visible;stroke-linecap:square;stroke-miterlimit:3}
	]]>
	</style>

	<defs id="Patterns_And_Gradients">
		<radialGradient id="grad2-6" cx="0" cy="1" r="1.4">
			<stop offset="0.18" stop-color="#5ea0ef" stop-opacity="1"/>
			<stop offset="1" stop-color="#0078d4" stop-opacity="1"/>
		</radialGradient>
	</defs>
	<g>
		<title>Page-1</title>
		<g id="group602-1" transform="translate(12.24,-28.3465)">
			<title>Signalr</title>
			<g id="group603-2">
				<title> SignalRServiceblue</title>
				<g id="shape604-3">
					<title>path6</title>
					<path d="M23.19 81.82 L26.39 74.09 L33.5 74.09 A5.16019 5.16019 -180 0 0 38.65 68.93 A5.16019 5.16019 -180 0
								 0 33.5 63.78 L10.31 63.78 L23.19 50.89 L23.19 56.05 L33.5 56.05 C40.62 56.05 46.39 61.82 46.39 68.93
								 C46.39 75.85 40.92 81.46 34.07 81.76 L44.51 92.2 C51.87 87.08 56.69 78.58 56.69 68.93 C56.69 53.28
								 44 40.59 28.35 40.59 C12.69 40.59 0 53.28 0 68.93 C0 84.59 12.69 97.28 28.35 97.28 C31.45 97.28
								 34.42 96.76 37.22 95.85 L23.19 81.82 Z" class="st1"/>
				</g>
			</g>
		</g>
	</g>
</svg>
