<?xml version="1.0" encoding="UTF-8" standalone="no"?>
<!DOCTYPE svg PUBLIC "-//W3C//DTD SVG 1.1//EN" "http://www.w3.org/Graphics/SVG/1.1/DTD/svg11.dtd">
<!-- Generated by Microsoft Visio, SVG Export Spatial Anchors Account.svg Page-1 -->
<svg xmlns="http://www.w3.org/2000/svg" xmlns:xlink="http://www.w3.org/1999/xlink" xmlns:ev="http://www.w3.org/2001/xml-events"
		width="1.08803in" height="1.3511in" viewBox="0 0 78.3383 97.2794" xml:space="preserve" color-interpolation-filters="sRGB"
		class="st5">
	<style type="text/css">
	<![CDATA[
		.st1 {fill:#3999c6;stroke:none;stroke-linecap:butt;stroke-width:12.24}
		.st2 {fill:#ffffff;stroke:none;stroke-linecap:butt;stroke-width:12.24}
		.st3 {fill:#59b4d9;fill-opacity:0.4;stroke:none;stroke-linecap:butt;stroke-width:12.24}
		.st4 {fill:#804998;stroke:none;stroke-linecap:butt;stroke-width:12.24}
		.st5 {fill:none;fill-rule:evenodd;font-size:12px;overflow:visible;stroke-linecap:square;stroke-miterlimit:3}
	]]>
	</style>

	<g>
		<title>Page-1</title>
		<g id="group586-1" transform="translate(12.24,-28.3465)">
			<title>Spatial Anchors Account</title>
			<g id="group587-2">
				<title>Sheet.587</title>
				<g id="shape588-3" transform="translate(1.34778,-2.49654)">
					<title>Sheet.588</title>
					<path d="M0 79.4 L23.39 62.66 L46.79 79.4 L23.39 97.28 L0 79.4 Z" class="st1"/>
				</g>
				<g id="shape589-5" transform="translate(7.07445,-6.7838)">
					<title>Sheet.589</title>
					<path d="M0 83.78 L17.67 71.13 L35.33 83.78 L17.67 97.28 L0 83.78 Z" class="st2"/>
				</g>
				<g id="shape590-7" transform="translate(7.07445,-6.7838)">
					<title>Sheet.590</title>
					<path d="M0 83.78 L17.67 71.13 L35.33 83.78 L17.67 97.28 L0 83.78 Z" class="st3"/>
				</g>
				<g id="shape591-9" transform="translate(36.1518,-12.5225)">
					<title>Sheet.591</title>
					<ellipse cx="7.79523" cy="89.4243" rx="7.79523" ry="7.85504" class="st2"/>
				</g>
				<g id="shape592-11" transform="translate(36.1518,-12.5225)">
					<title>Sheet.592</title>
					<path d="M7.8 84.98 C10.22 84.98 12.2 86.98 12.2 89.42 C12.2 91.87 10.22 93.86 7.8 93.86 C5.37 93.86 3.39 91.87
								 3.39 89.42 C3.39 86.98 5.37 84.98 7.8 84.98 ZM7.8 81.57 A7.79523 7.85504 -180 1 0 7.8 97.28 A7.79523
								 7.85504 -180 0 0 7.8 81.57 Z" class="st1"/>
				</g>
				<g id="shape593-13" transform="translate(34.0358,-19.2392)">
					<title>Sheet.593</title>
					<path d="M19.82 70.58 C19.82 64.71 15.38 59.83 9.91 59.83 C4.44 59.83 0 64.51 0 70.58 C0 76.66 9.91 93.29 9.91
								 97.28 C9.91 93.29 19.82 76.46 19.82 70.58 Z" class="st4"/>
				</g>
				<g id="shape594-15" transform="translate(39.541,-42.1212)">
					<title>Sheet.594</title>
					<ellipse cx="4.406" cy="92.8396" rx="4.406" ry="4.43981" class="st2"/>
				</g>
				<g id="shape595-17" transform="translate(19.2056,-28.4603)">
					<title>Sheet.595</title>
					<ellipse cx="5.53574" cy="91.7012" rx="5.53574" ry="5.57822" class="st4"/>
				</g>
				<g id="shape596-19" transform="translate(0,-14.7994)">
					<title>Sheet.596</title>
					<ellipse cx="5.53574" cy="91.7012" rx="5.53574" ry="5.57822" class="st4"/>
				</g>
				<g id="shape597-21" transform="translate(19.2056,5.68434E-14)">
					<title>Sheet.597</title>
					<ellipse cx="5.53574" cy="91.7012" rx="5.53574" ry="5.57822" class="st4"/>
				</g>
			</g>
		</g>
	</g>
</svg>
