<?xml version="1.0" encoding="UTF-8" standalone="no"?>
<!DOCTYPE svg PUBLIC "-//W3C//DTD SVG 1.1//EN" "http://www.w3.org/Graphics/SVG/1.1/DTD/svg11.dtd">
<!-- Generated by Microsoft Visio, SVG Export SQL Data Warehouse.svg Page-1 -->
<svg xmlns="http://www.w3.org/2000/svg" xmlns:xlink="http://www.w3.org/1999/xlink" xmlns:ev="http://www.w3.org/2001/xml-events"
		width="1.73185in" height="1.73185in" viewBox="0 0 124.693 124.693" xml:space="preserve" color-interpolation-filters="sRGB"
		class="st7">
	<style type="text/css">
	<![CDATA[
		.st1 {fill:url(#grad0-6);stroke:none;stroke-linecap:butt;stroke-width:34}
		.st2 {fill:#50e6ff;stroke:none;stroke-linecap:butt;stroke-width:34}
		.st3 {fill:url(#grad0-12);stroke:none;stroke-linecap:butt;stroke-width:34}
		.st4 {fill:#e8e8e8}
		.st5 {stroke:none;stroke-linecap:butt;stroke-width:34}
		.st6 {fill:#32bedd;stroke:none;stroke-linecap:butt;stroke-width:34}
		.st7 {fill:none;fill-rule:evenodd;font-size:12px;overflow:visible;stroke-linecap:square;stroke-miterlimit:3}
	]]>
	</style>

	<defs id="Patterns_And_Gradients">
		<linearGradient id="grad0-6" x1="0" y1="0" x2="1" y2="0" gradientTransform="rotate(90 0.5 0.5)">
			<stop offset="0" stop-color="#b3b2b3" stop-opacity="1"/>
			<stop offset="0.38" stop-color="#afaeaf" stop-opacity="1"/>
			<stop offset="0.76" stop-color="#a2a2a2" stop-opacity="1"/>
			<stop offset="1" stop-color="#979797" stop-opacity="1"/>
		</linearGradient>
		<linearGradient id="grad0-12" x1="0" y1="0" x2="1" y2="0" gradientTransform="rotate(0 0.5 0.5)">
			<stop offset="0" stop-color="#005ba1" stop-opacity="1"/>
			<stop offset="0.07" stop-color="#0060a9" stop-opacity="1"/>
			<stop offset="0.36" stop-color="#0071c8" stop-opacity="1"/>
			<stop offset="0.52" stop-color="#0078d4" stop-opacity="1"/>
			<stop offset="0.64" stop-color="#0074cd" stop-opacity="1"/>
			<stop offset="0.82" stop-color="#006abb" stop-opacity="1"/>
			<stop offset="1" stop-color="#005ba1" stop-opacity="1"/>
		</linearGradient>
	</defs>
	<g>
		<title>Page-1</title>
		<g id="group578-1" transform="translate(34,-34)">
			<title>SQL Data Warehouse</title>
			<g id="group579-2">
				<title>Icon-databases-125</title>
				<g id="shape580-3" transform="translate(0,-14.2399)">
					<title>Sheet.580</title>
					<path d="M22.74 82.24 L0 95.18 L0 98.38 L4.18 98.38 L4.18 122.66 L8.29 122.66 L8.29 98.38 L37.18 98.38 L37.18
								 124.69 L41.3 124.69 L41.3 98.38 L45.48 98.38 L45.48 95.18 L22.74 82.24 Z" class="st1"/>
				</g>
				<g id="shape581-7" transform="translate(12.4058,-16.2742)">
					<title>Sheet.581</title>
					<path d="M0 124.69 L8.26 124.69 L8.26 116.62 L0 116.62 L0 124.69 ZM12.37 124.69 L20.63 124.69 L20.63 116.62 L12.47
								 116.62 L12.37 124.69 ZM0 112.62 L8.26 112.62 L8.26 104.45 L0 104.45 L0 112.62 ZM12.47 104.45 L12.47
								 112.62 L20.63 112.62 L20.63 104.45 L12.47 104.45 Z" class="st2"/>
				</g>
				<g id="shape582-9" transform="translate(28.2785,0)">
					<title>Sheet.582</title>
					<path d="M14.07 101.05 C6.22 101.05 0 99.05 0 96.61 L0 120.26 C0 122.69 6.25 124.66 14 124.69 L14.21 124.69 C22.06
								 124.69 28.41 122.69 28.41 120.26 L28.41 96.61 C28.28 99.05 21.92 101.05 14.07 101.05 Z"
							class="st3"/>
				</g>
				<g id="shape583-13" transform="translate(28.2785,-23.6443)">
					<title>Sheet.583</title>
					<path d="M28.28 120.26 C28.28 122.69 21.92 124.69 14.07 124.69 C6.22 124.69 0 122.69 0 120.26 C0 117.82 6.36
								 115.82 14.21 115.82 C22.06 115.82 28.41 117.79 28.41 120.26 L28.28 120.26 Z" class="st4"/>
					<path d="M28.28 120.26 C28.28 122.69 21.92 124.69 14.07 124.69 C6.22 124.69 0 122.69 0 120.26 C0 117.82 6.36
								 115.82 14.21 115.82 C22.06 115.82 28.41 117.79 28.41 120.26" class="st5"/>
				</g>
				<g id="shape584-16" transform="translate(31.4734,-25.5118)">
					<title>Sheet.584</title>
					<path d="M21.79 121.86 C21.79 123.43 16.89 124.69 10.88 124.69 C4.86 124.69 0 123.33 0 121.86 C0 120.39 4.86
								 119.02 10.88 119.02 C16.89 119.02 21.79 120.29 21.79 121.86 Z" class="st2"/>
				</g>
				<g id="shape585-18" transform="translate(33.7166,-25.6119)">
					<title>Sheet.585</title>
					<path d="M8.63 122.53 A29.1962 28.6466 -180 0 0 0 123.59 A28.8903 28.3465 -180 0 0 8.63 124.69 A28.8903 28.3465
								 -180 0 0 17.27 123.59 A29.1962 28.6466 -180 0 0 8.63 122.53 Z" class="st6"/>
				</g>
			</g>
		</g>
	</g>
</svg>
