<?xml version="1.0" encoding="UTF-8" standalone="no"?>
<!DOCTYPE svg PUBLIC "-//W3C//DTD SVG 1.1//EN" "http://www.w3.org/Graphics/SVG/1.1/DTD/svg11.dtd">
<!-- Generated by Microsoft Visio, SVG Export SQL Server.svg Page-1 -->
<svg xmlns="http://www.w3.org/2000/svg" xmlns:xlink="http://www.w3.org/1999/xlink" xmlns:ev="http://www.w3.org/2001/xml-events"
		width="1.73185in" height="1.73185in" viewBox="0 0 124.693 124.693" xml:space="preserve" color-interpolation-filters="sRGB"
		class="st7">
	<style type="text/css">
	<![CDATA[
		.st1 {fill:url(#grad0-6);stroke:none;stroke-linecap:butt;stroke-width:34}
		.st2 {fill:#e8e8e8;stroke:none;stroke-linecap:butt;stroke-width:34}
		.st3 {fill:#50e6ff;stroke:none;stroke-linecap:butt;stroke-width:34}
		.st4 {fill:#198ab3;stroke:none;stroke-linecap:butt;stroke-width:34}
		.st5 {fill:#f2f2f2;stroke:none;stroke-linecap:butt;stroke-width:34}
		.st6 {fill:#949494;stroke:none;stroke-linecap:butt;stroke-width:34}
		.st7 {fill:none;fill-rule:evenodd;font-size:12px;overflow:visible;stroke-linecap:square;stroke-miterlimit:3}
	]]>
	</style>

	<defs id="Patterns_And_Gradients">
		<linearGradient id="grad0-6" x1="0" y1="0" x2="1" y2="0" gradientTransform="rotate(0 0.5 0.5)">
			<stop offset="0" stop-color="#005ba1" stop-opacity="1"/>
			<stop offset="0.07" stop-color="#0060a9" stop-opacity="1"/>
			<stop offset="0.36" stop-color="#0071c8" stop-opacity="1"/>
			<stop offset="0.52" stop-color="#0078d4" stop-opacity="1"/>
			<stop offset="0.64" stop-color="#0074cd" stop-opacity="1"/>
			<stop offset="0.82" stop-color="#006abb" stop-opacity="1"/>
			<stop offset="1" stop-color="#005ba1" stop-opacity="1"/>
		</linearGradient>
	</defs>
	<g>
		<title>Page-1</title>
		<g id="group482-1" transform="translate(34,-34)">
			<title>SQL Server</title>
			<g id="group483-2">
				<title>Sheet.483</title>
				<g id="shape484-3" transform="translate(0,-0.765221)">
					<title>Sheet.484</title>
					<path d="M21.02 84.07 C9.42 84.07 0 80.74 0 76.42 L0 117.04 C0 121.23 9.25 124.63 20.72 124.69 L21.02 124.69
								 C32.62 124.69 42.04 121.37 42.04 117.04 L42.04 76.42 C42.04 80.64 32.62 84.07 21.02 84.07 Z"
							class="st1"/>
				</g>
				<g id="shape485-7" transform="translate(0,-41.3885)">
					<title>Sheet.485</title>
					<path d="M42.04 117.04 C42.04 121.27 32.62 124.69 21.02 124.69 C9.42 124.69 0 121.27 0 117.04 C0 112.82 9.42
								 109.39 21.02 109.39 C32.62 109.39 42.04 112.72 42.04 117.04 Z" class="st2"/>
				</g>
				<g id="shape486-9" transform="translate(4.97306,-44.8153)">
					<title>Sheet.486</title>
					<path d="M32.16 119.84 C32.16 122.53 24.93 124.69 16.05 124.69 C7.16 124.69 0 122.53 0 119.84 C0 117.14 7.16
								 114.98 16.05 114.98 C24.93 114.98 32.16 117.17 32.16 119.84 Z" class="st3"/>
				</g>
				<g id="shape487-11" transform="translate(8.28844,-44.8153)">
					<title>Sheet.487</title>
					<path d="M12.73 120.97 A39.7845 39.9246 -180 0 0 0 122.8 A37.298 37.4293 -180 0 0 12.76 124.69 A37.298 37.4293
								 -180 0 0 25.53 122.8 A39.7845 39.9246 -180 0 0 12.73 120.97 Z" class="st4"/>
				</g>
				<g id="shape488-13" transform="translate(4.8736,-15.4042)">
					<title>Sheet.488</title>
					<path d="M29.08 118.7 L29.08 107.46 L25.99 107.46 L25.99 121.23 L34.15 121.23 L34.15 118.7 L29.08 118.7 ZM5.37
								 113.15 A6.36552 6.38793 0 0 1 3.68 112.12 A1.45877 1.4639 0 0 1 3.41 111.05 A1.25984 1.26428 0 0
								 1 3.95 110.02 A2.38707 2.39548 0 0 1 5.34 109.65 A5.53668 5.55617 0 0 1 8.65 110.62 L8.65 107.76
								 A8.85205 8.88322 -180 0 0 5.34 107.23 A5.76875 5.78907 -180 0 0 1.36 108.39 A3.74637 3.75957 -180
								 0 0 0 111.38 C0 113.08 1.06 114.41 3.32 115.41 A9.61459 9.64844 0 0 1 5.34 116.61 A1.32615 1.33082
								 0 0 1 5.87 117.67 A1.25984 1.26428 0 0 1 5.34 118.7 A2.48653 2.49529 0 0 1 3.85 119.1 A5.3046 5.32328
								 0 0 1 0.1 117.61 L0.1 120.7 A7.59221 7.61894 -180 0 0 3.65 121.47 A6.63075 6.6541 -180 0 0 7.56
								 120.4 A3.64691 3.65975 -180 0 0 8.98 117.34 A3.31538 3.32705 -180 0 0 8.16 115.01 A8.02321 8.05146
								 -180 0 0 5.37 113.15 ZM22.61 118.37 A7.9569 7.98492 -180 0 0 23.7 114.15 A7.69167 7.71875 -180 0
								 0 22.88 110.49 A6.00083 6.02196 -180 0 0 20.56 107.99 A6.63075 6.6541 -180 0 0 17.24 107.13 A7.22752
								 7.25297 -180 0 0 13.63 108.02 A6.19975 6.22158 -180 0 0 11.21 110.59 A7.99005 8.01819 -180 0 0 10.34
								 114.41 A7.49275 7.51913 -180 0 0 11.14 117.91 A6.06714 6.0885 -180 0 0 13.39 120.4 A6.63075 6.6541
								 -180 0 0 16.71 121.37 L19.53 124.69 L23.47 124.69 L19.49 121 A6.00083 6.02196 -180 0 0 22.61 118.37
								 ZM19.53 117.51 A3.31538 3.32705 0 0 1 14.46 117.51 A5.00622 5.02384 0 0 1 13.53 114.18 A4.90676
								 4.92403 0 0 1 14.49 110.85 A3.05015 3.06088 0 0 1 17.07 109.62 A2.95068 2.96107 0 0 1 19.56 110.85
								 A5.37091 5.38982 0 0 1 20.46 114.18 A4.84045 4.85749 0 0 1 19.53 117.61 L19.53 117.51 Z"
							class="st5"/>
				</g>
				<g id="shape489-15" transform="translate(35.143,1.42109E-14)">
					<title>Sheet.489</title>
					<path d="M12.3 124.56 L13.1 121.93 L14.65 121.03 L17.34 122.23 L19.06 120.47 L19.06 120.27 L17.84 117.91 L18.57
								 116.24 L21.25 115.28 L21.55 115.28 L21.55 112.85 L21.22 112.85 L18.57 112.05 L17.7 110.52 L18.86
								 107.79 L17.11 106.09 L16.91 106.09 L14.55 107.29 L12.93 106.29 L11.87 103.33 L9.42 103.33 L9.42
								 103.7 L8.62 106.33 L6.93 107.06 L4.04 105.73 L2.35 107.49 L2.52 107.82 L3.78 110.29 L3.12 111.98
								 L0 112.95 L0 115.41 L0.36 115.41 L2.98 116.21 L3.71 117.91 L2.42 120.77 L4.18 122.5 L4.48 122.33
								 L6.93 121.07 L8.62 121.73 L9.75 124.69 L12.17 124.69 L12.3 124.56 ZM8.32 116.71 A3.52838 3.54081
								 0 1 1 13.26 111.65 A3.52838 3.54081 0 0 1 8.32 116.71 Z" class="st6"/>
				</g>
			</g>
		</g>
	</g>
</svg>
