<?xml version="1.0" encoding="UTF-8" standalone="no"?>
<!DOCTYPE svg PUBLIC "-//W3C//DTD SVG 1.1//EN" "http://www.w3.org/Graphics/SVG/1.1/DTD/svg11.dtd">
<!-- Generated by Microsoft Visio, SVG Export SQL Server Registry.svg Page-1 -->
<svg xmlns="http://www.w3.org/2000/svg" xmlns:xlink="http://www.w3.org/1999/xlink" xmlns:ev="http://www.w3.org/2001/xml-events"
		width="1.72314in" height="1.6444in" viewBox="0 0 124.066 118.397" xml:space="preserve" color-interpolation-filters="sRGB"
		class="st10">
	<style type="text/css">
	<![CDATA[
		.st1 {fill:url(#grad0-7);stroke:none;stroke-linecap:butt;stroke-width:33.6866}
		.st2 {fill:#e8e8e8;stroke:none;stroke-linecap:butt;stroke-width:33.6866}
		.st3 {fill:#50e6ff;stroke:none;stroke-linecap:butt;stroke-width:33.6866}
		.st4 {fill:#198ab3;stroke:none;stroke-linecap:butt;stroke-width:33.6866}
		.st5 {fill:url(#grad3-17);stroke:none;stroke-linecap:butt;stroke-width:33.6866}
		.st6 {fill:#ffffff;stroke:none;stroke-linecap:butt;stroke-width:33.6866}
		.st7 {fill:#50e6ff}
		.st8 {stroke:none;stroke-linecap:butt;stroke-width:33.6866}
		.st9 {fill:#32bedd;stroke:none;stroke-linecap:butt;stroke-width:33.6866}
		.st10 {fill:none;fill-rule:evenodd;font-size:12px;overflow:visible;stroke-linecap:square;stroke-miterlimit:3}
	]]>
	</style>

	<defs id="Patterns_And_Gradients">
		<linearGradient id="grad0-7" x1="0" y1="0" x2="1" y2="0" gradientTransform="rotate(0 0.5 0.5)">
			<stop offset="0" stop-color="#005ba1" stop-opacity="1"/>
			<stop offset="0.07" stop-color="#0060a9" stop-opacity="1"/>
			<stop offset="0.36" stop-color="#0071c8" stop-opacity="1"/>
			<stop offset="0.52" stop-color="#0078d4" stop-opacity="1"/>
			<stop offset="0.64" stop-color="#0074cd" stop-opacity="1"/>
			<stop offset="0.82" stop-color="#006abb" stop-opacity="1"/>
			<stop offset="1" stop-color="#005ba1" stop-opacity="1"/>
		</linearGradient>
		<radialGradient id="grad3-17" cx="0.5" cy="0.5" r="0.73">
			<stop offset="0" stop-color="#f2f2f2" stop-opacity="1"/>
			<stop offset="0.58" stop-color="#eeeeee" stop-opacity="1"/>
			<stop offset="1" stop-color="#e6e6e6" stop-opacity="1"/>
		</radialGradient>
	</defs>
	<g>
		<title>Page-1</title>
		<g id="group490-1" transform="translate(33.6866,-33.6866)">
			<title>SQL Server Registry</title>
			<g id="group491-2">
				<title>g52</title>
				<g id="group492-3">
					<title>g38</title>
					<g id="shape493-4">
						<title>path28</title>
						<path d="M19.35 81.31 C8.58 81.31 0 78.19 0 74.34 L0 111.43 C0 115.24 8.58 118.36 19.08 118.4 L19.35 118.4
									 C30.01 118.4 38.66 115.11 38.66 111.43 L38.66 74.34 C38.66 78.19 30.01 81.31 19.35 81.31 Z"
								class="st1"/>
					</g>
					<g id="shape494-8" transform="translate(0,-37.0842)">
						<title>path30</title>
						<path d="M38.66 111.43 C38.66 115.27 30.01 118.4 19.35 118.4 C8.68 118.4 0 115.27 0 111.43 C0 107.58 8.58
									 104.46 19.35 104.46 C30.11 104.46 38.66 107.74 38.66 111.43 Z" class="st2"/>
					</g>
					<g id="shape495-10" transform="translate(4.52355,-40.1745)">
						<title>path32</title>
						<path d="M29.65 113.96 C29.65 116.39 23.05 118.4 14.83 118.4 C6.6 118.4 0 116.39 0 113.96 C0 111.53 6.6 109.52
									 14.83 109.52 C23.05 109.52 29.65 111.49 29.65 113.96 Z" class="st3"/>
					</g>
					<g id="shape496-12" transform="translate(7.59427,-40.2074)">
						<title>path34</title>
						<path d="M11.75 115.01 A36.0893 35.9335 -180 0 0 0 116.65 A34.6035 34.4541 -180 0 0 11.75 118.4 A34.3723
									 34.224 -180 0 0 23.48 116.65 A35.8582 35.7034 -180 0 0 11.75 115.01 Z" class="st4"/>
					</g>
					<g id="shape497-14" transform="translate(4.68864,-12.7888)">
						<title>path36</title>
						<path d="M26.41 112.87 L26.41 102.75 L23.71 102.75 L23.71 115.14 L31.1 115.14 L31.1 112.87 L26.41 112.87
									 ZM4.89 107.88 A7.4622 7.42999 0 0 1 3.33 106.96 A1.45282 1.44655 0 0 1 2.97 105.97 A1.15565
									 1.15066 0 0 1 3.43 105.05 A2.11319 2.10407 0 0 1 4.72 104.72 A5.1509 5.12866 0 0 1 7.59 105.67
									 L7.59 103.01 A8.12257 8.08751 -180 0 0 4.56 102.39 A4.95279 4.93141 -180 0 0 1.25 103.41 A3.30186
									 3.2876 -180 0 0 0 106.07 A4.0943 4.07663 -180 0 0 2.87 109.72 A8.58483 8.54777 0 0 1 4.72 110.77
									 A1.38678 1.38079 0 0 1 5.18 111.76 A1.05659 1.05203 0 0 1 4.69 112.68 A2.17923 2.16982 0 0 1
									 3.37 113.04 A4.88675 4.86565 0 0 1 0.07 111.76 L0.07 114.52 A6.60372 6.57521 -180 0 0 3.37 115.24
									 A5.6792 5.65468 -180 0 0 6.9 114.25 A3.30186 3.2876 -180 0 0 8.19 111.53 A3.03771 3.0246 -180
									 0 0 7.46 109.42 A7.29711 7.26561 -180 0 0 4.89 107.88 ZM20.41 112.64 A7.06598 7.03547 -180 0
									 0 21.53 108.96 A6.90088 6.87109 -180 0 0 20.77 105.67 A5.48109 5.45742 -180 0 0 18.69 103.44
									 A6.10844 6.08207 -180 0 0 15.58 102.39 A6.33957 6.3122 -180 0 0 12.28 103.21 A5.44807 5.42455
									 -180 0 0 10.1 105.67 A7.85842 7.8245 -180 0 0 10.1 112.25 A5.6792 5.65468 -180 0 0 12.18 114.48
									 A6.60372 6.57521 -180 0 0 15.12 115.54 L17.7 118.4 L21.33 118.4 L17.73 115.11 A5.31599 5.29304
									 -180 0 0 20.41 112.64 ZM17.6 111.89 A2.80658 2.79446 0 0 1 15.29 112.94 A2.74054 2.72871 0 0
									 1 13.01 111.85 A4.6226 4.60265 0 0 1 12.28 108.96 A4.52355 4.50402 0 0 1 13.17 106.04 A2.74054
									 2.72871 0 0 1 15.49 104.92 A2.67451 2.66296 0 0 1 17.76 106.04 A4.75468 4.73415 0 0 1 18.59
									 108.99 A4.49053 4.47114 0 0 1 17.73 111.89 L17.6 111.89 Z" class="st5"/>
					</g>
				</g>
				<g id="shape498-18" transform="translate(33.811,-22.9146)">
					<title>path40</title>
					<path d="M13.01 90.62 L0.96 90.62 a0.957539 0.953405 -180 0 0 -0.957539 0.953405 L0 117.44 a0.957539 0.953405
								 -180 0 0 0.957539 0.953405 L21.86 118.4 a0.957539 0.953405 -180 0 0 0.957539 -0.953405 L22.82 100.31
								 a0.957539 0.953405 -180 0 0 -0.957539 -0.953405 L14.92 99.36 a0.957539 0.953405 0 0 1 -0.957539
								 -0.953405 L13.97 91.57 a0.957539 0.953405 -180 0 0 -0.957539 -0.953405 Z" class="st6"/>
				</g>
				<g id="shape499-20" transform="translate(33.5469,-22.6845)">
					<title>path42</title>
					<path d="M12.84 91.6 L12.84 98.18 A2.37734 2.36708 -180 0 0 15.22 100.55 L21.83 100.55 L21.83 116.98 L1.45 116.98
								 L1.45 91.6 L12.75 91.6 L12.84 91.6 ZM13.21 90.19 L0.99 90.19 a0.957539 0.953405 -180 0 0 -0.990558
								 0.953405 L0 117.44 a0.957539 0.953405 -180 0 0 0.990558 0.953405 L22.19 118.4 a0.957539 0.953405
								 -180 0 0 0.957539 -0.953405 L23.15 100.02 a0.957539 0.953405 -180 0 0 -0.858483 -0.887653 L15.22
								 99.13 a0.957539 0.953405 0 0 1 -0.957539 -0.953405 L14.26 91.14 a0.957539 0.953405 -180 0 0 -0.957539
								 -0.953405 L13.21 90.19 Z" class="st7"/>
					<path d="M12.84 91.6 L12.84 98.18 A2.37734 2.36708 -180 0 0 15.22 100.55 L21.83 100.55 L21.83 116.98 L1.45 116.98
								 L1.45 91.6 L12.75 91.6M13.21 90.19 L0.99 90.19 a0.957539 0.953405 -180 0 0 -0.990558 0.953405 L0
								 117.44 a0.957539 0.953405 -180 0 0 0.990558 0.953405 L22.19 118.4 a0.957539 0.953405 -180 0 0 0.957539
								 -0.953405 L23.15 100.02 a0.957539 0.953405 -180 0 0 -0.858483 -0.887653 L15.22 99.13 a0.957539 0.953405
								 0 0 1 -0.957539 -0.953405 L14.26 91.14 a0.957539 0.953405 -180 0 0 -0.957539 -0.953405 L13.21 90.19"
							class="st8"/>
				</g>
				<g id="shape500-23" transform="translate(47.4807,-41.9498)">
					<title>path44</title>
					<path d="M8.95 118.4 L0 109.52 L0 116.75 A1.65093 1.6438 -180 0 0 1.62 118.4 L8.95 118.4 Z" class="st9"/>
				</g>
				<g id="shape501-25" transform="translate(38.4667,-33.9938)">
					<title>rect46</title>
					<path d="M0 117.51 a0.891523 0.887674 -180 0 0 0.891502 0.887653 L12.58 118.4 a0.891523 0.887674 -180 0 0 0.891502
								 -0.887653 a0.891523 0.887674 -180 0 0 -0.891502 -0.887653 L0.89 116.62 a0.891523 0.887674 -180 0
								 0 -0.891502 0.887653 Z" class="st9"/>
				</g>
				<g id="shape502-27" transform="translate(38.4667,-31.0021)">
					<title>rect48</title>
					<path d="M0 117.51 a0.891523 0.887674 -180 0 0 0.891502 0.887653 L12.58 118.4 a0.891523 0.887674 -180 0 0 0.891502
								 -0.887653 a0.891523 0.887674 -180 0 0 -0.891502 -0.887653 L0.89 116.62 a0.891523 0.887674 -180 0
								 0 -0.891502 0.887653 Z" class="st9"/>
				</g>
				<g id="shape503-29" transform="translate(38.4667,-28.0761)">
					<title>rect50</title>
					<path d="M0 117.57 a0.825484 0.82192 -180 0 0 0.825465 0.821901 L6.41 118.4 a0.825484 0.82192 -180 0 0 0.825465
								 -0.821901 a0.825484 0.82192 -180 0 0 -0.825465 -0.821901 L0.83 116.75 a0.825484 0.82192 -180 0 0
								 -0.825465 0.821901 Z" class="st9"/>
				</g>
			</g>
		</g>
	</g>
</svg>
