<?xml version="1.0" encoding="UTF-8" standalone="no"?>
<!DOCTYPE svg PUBLIC "-//W3C//DTD SVG 1.1//EN" "http://www.w3.org/Graphics/SVG/1.1/DTD/svg11.dtd">
<!-- Generated by Microsoft Visio, SVG Export SQL Elastic Pool.svg Page-1 -->
<svg xmlns="http://www.w3.org/2000/svg" xmlns:xlink="http://www.w3.org/1999/xlink" xmlns:ev="http://www.w3.org/2001/xml-events"
		width="1.71033in" height="1.71033in" viewBox="0 0 123.144 123.144" xml:space="preserve" color-interpolation-filters="sRGB"
		class="st8">
	<style type="text/css">
	<![CDATA[
		.st1 {fill:url(#grad0-6);stroke:none;stroke-linecap:butt;stroke-width:34}
		.st2 {fill:#50e6ff;stroke:none;stroke-linecap:butt;stroke-width:34}
		.st3 {fill:#eaeaea}
		.st4 {stroke:none;stroke-linecap:butt;stroke-width:34}
		.st5 {fill:#50e6ff}
		.st6 {fill:#32bedd;stroke:none;stroke-linecap:butt;stroke-width:34}
		.st7 {fill:#eaeaea;stroke:none;stroke-linecap:butt;stroke-width:34}
		.st8 {fill:none;fill-rule:evenodd;font-size:12px;overflow:visible;stroke-linecap:square;stroke-miterlimit:3}
	]]>
	</style>

	<defs id="Patterns_And_Gradients">
		<linearGradient id="grad0-6" x1="0" y1="0" x2="1" y2="0" gradientTransform="rotate(-45 0.5 0.5)">
			<stop offset="0" stop-color="#005ba1" stop-opacity="1"/>
			<stop offset="0.1" stop-color="#0060a9" stop-opacity="1"/>
			<stop offset="0.52" stop-color="#0071c8" stop-opacity="1"/>
			<stop offset="0.75" stop-color="#0078d4" stop-opacity="1"/>
		</linearGradient>
	</defs>
	<g>
		<title>Page-1</title>
		<g id="group521-1" transform="translate(33.2256,-33.2256)">
			<title>SQL Elastic Pool</title>
			<g id="group522-2">
				<title>SQL Elastic Pool</title>
				<g id="shape523-3" transform="translate(-58.7296,36.0681) rotate(-45)">
					<title>Sheet.523</title>
					<path d="M0 121.27 A1.86959 1.86959 -180 0 0 1.87 123.14 L38.22 123.14 A1.86959 1.86959 -180 0 0 40.09 121.27
								 L40.09 84.93 A1.86959 1.86959 -180 0 0 38.22 83.06 L1.87 83.06 A1.86959 1.86959 -180 0 0 -0 84.93
								 L0 121.27 Z" class="st1"/>
				</g>
				<g id="shape524-7" transform="translate(23.113,-36.5914)">
					<title>Sheet.524</title>
					<path d="M5.24 114.26 C2.33 114.26 0 113.52 0 112.57 L0 121.49 C0 122.38 2.3 123.14 5.15 123.14 L5.24 123.14
								 C8.12 123.14 10.48 122.41 10.48 121.49 L10.48 112.57 C10.51 113.52 8.31 114.26 5.24 114.26 Z"
							class="st2"/>
				</g>
				<g id="shape525-9" transform="translate(23.1436,-45.4794)">
					<title>Sheet.525</title>
					<path d="M10.48 121.46 C10.48 122.41 8.12 123.14 5.24 123.14 C2.36 123.14 0 122.41 0 121.46 C0 120.51 2.33 119.8
								 5.21 119.8 C8.09 119.8 10.45 120.54 10.45 121.46 L10.48 121.46 Z" class="st3"/>
					<path d="M10.48 121.46 C10.48 122.41 8.12 123.14 5.24 123.14 C2.36 123.14 0 122.41 0 121.46 C0 120.51 2.33 119.8
								 5.21 119.8 C8.09 119.8 10.45 120.54 10.45 121.46" class="st4"/>
				</g>
				<g id="shape526-12" transform="translate(24.3696,-46.2149)">
					<title>Sheet.526</title>
					<path d="M8.03 122.07 C8.03 122.65 6.22 123.14 4.01 123.14 C1.81 123.14 0 122.62 0 122.07 C0 121.52 1.78 121
								 3.98 121 C6.19 121 8 121.49 8 122.07 L8.03 122.07 Z" class="st5"/>
					<path d="M8.03 122.07 C8.03 122.65 6.22 123.14 4.01 123.14 C1.81 123.14 0 122.62 0 122.07 C0 121.52 1.78 121
								 3.98 121 C6.19 121 8 121.49 8 122.07" class="st4"/>
				</g>
				<g id="shape527-15" transform="translate(25.289,-46.3069)">
					<title>Sheet.527</title>
					<path d="M3.06 122.41 A10.9414 10.9414 -180 0 0 -0 122.72 A10.7882 10.7882 -180 0 0 3.06 123.14 A10.7882 10.7882
								 -180 0 0 6.13 122.72 A11.0947 11.0947 -180 0 0 3.06 122.41 Z" class="st6"/>
				</g>
				<g id="shape528-17" transform="translate(23.113,-7.75134)">
					<title>Sheet.528</title>
					<path d="M5.24 114.26 C2.33 114.26 0 113.52 0 112.57 L0 121.49 C0 122.38 2.3 123.14 5.15 123.14 L5.24 123.14
								 C8.12 123.14 10.48 122.41 10.48 121.49 L10.48 112.57 C10.51 113.52 8.31 114.26 5.24 114.26 Z"
							class="st2"/>
				</g>
				<g id="shape529-19" transform="translate(23.1436,-16.6393)">
					<title>Sheet.529</title>
					<path d="M10.48 121.46 C10.48 122.41 8.12 123.14 5.24 123.14 C2.36 123.14 0 122.41 0 121.46 C0 120.51 2.33 119.8
								 5.24 119.8 C8.15 119.8 10.48 120.54 10.48 121.46 Z" class="st7"/>
				</g>
				<g id="shape530-21" transform="translate(24.3696,-17.3749)">
					<title>Sheet.530</title>
					<path d="M8.03 122.07 C8.03 122.65 6.22 123.14 4.01 123.14 C1.81 123.14 0 122.65 0 122.07 C0 121.49 1.78 121
								 4.01 121 C6.25 121 8.03 121.49 8.03 122.07 Z" class="st2"/>
				</g>
				<g id="shape531-23" transform="translate(25.289,-17.3749)">
					<title>Sheet.531</title>
					<path d="M3.06 122.32 A10.9414 10.9414 -180 0 0 0 122.72 A10.7882 10.7882 -180 0 0 3.06 123.14 A10.7882 10.7882
								 -180 0 0 6.13 122.72 A11.0947 11.0947 -180 0 0 3.06 122.32 Z" class="st6"/>
				</g>
				<g id="shape532-25" transform="translate(36.0466,-22.2173)">
					<title>Sheet.532</title>
					<path d="M5.24 114.23 C2.18 114.23 0 113.49 0 112.57 L0 121.46 C0 122.38 2.3 123.11 5.18 123.14 C8.06 123.14
								 10.42 122.38 10.42 121.46 L10.42 112.57 C10.48 113.49 8.12 114.23 5.24 114.23 Z" class="st2"/>
				</g>
				<g id="shape533-27" transform="translate(36.0466,-31.136)">
					<title>Sheet.533</title>
					<path d="M10.48 121.49 C10.48 122.41 8.12 123.14 5.24 123.14 C2.36 123.14 0 122.41 0 121.49 C0 120.57 2.33 119.8
								 5.24 119.8 C8.15 119.8 10.48 120.57 10.48 121.49 Z" class="st7"/>
				</g>
				<g id="shape534-29" transform="translate(37.2725,-31.8715)">
					<title>Sheet.534</title>
					<path d="M8.03 122.07 C8.03 122.68 6.22 123.14 4.01 123.14 C1.81 123.14 0 122.68 0 122.07 C0 121.46 1.78 121.03
								 4.01 121.03 C6.25 121.03 8.03 121.49 8.03 122.07 Z" class="st2"/>
				</g>
				<g id="shape535-31" transform="translate(38.2226,-31.8715)">
					<title>Sheet.535</title>
					<path d="M3.06 122.32 A10.7882 10.7882 -180 0 0 0 122.75 A10.9414 10.9414 -180 0 0 3.06 123.14 A10.9414 10.9414
								 -180 0 0 6.13 122.75 A10.9414 10.9414 -180 0 0 3.06 122.32 Z" class="st6"/>
				</g>
				<g id="shape536-33" transform="translate(10.6085,-22.2173)">
					<title>Sheet.536</title>
					<path d="M5.24 114.23 C2.33 114.23 0 113.49 0 112.57 L0 121.46 C0 122.38 2.3 123.11 5.15 123.14 C8.03 123.14
								 10.39 122.38 10.39 121.46 L10.39 112.57 C10.48 113.49 8.12 114.23 5.24 114.23 Z" class="st2"/>
				</g>
				<g id="shape537-35" transform="translate(10.6085,-31.136)">
					<title>Sheet.537</title>
					<path d="M10.48 121.49 C10.48 122.41 8.12 123.14 5.24 123.14 C2.36 123.14 0 122.41 0 121.49 C0 120.57 2.42 119.8
								 5.24 119.8 C8.06 119.8 10.48 120.57 10.48 121.49 Z" class="st7"/>
				</g>
				<g id="shape538-37" transform="translate(11.8344,-31.8715)">
					<title>Sheet.538</title>
					<path d="M8.03 122.07 C8.03 122.68 6.22 123.14 4.01 123.14 C1.81 123.14 0 122.68 0 122.07 C0 121.46 1.78 121.03
								 4.01 121.03 C6.25 121.03 8.03 121.49 8.03 122.07 Z" class="st2"/>
				</g>
				<g id="shape539-39" transform="translate(12.7845,-31.8715)">
					<title>Sheet.539</title>
					<path d="M3.06 122.32 A10.7882 10.7882 -180 0 0 0 122.75 A10.9414 10.9414 -180 0 0 3.06 123.14 A10.9414 10.9414
								 -180 0 0 6.13 122.75 A10.9414 10.9414 -180 0 0 3.06 122.32 Z" class="st6"/>
				</g>
			</g>
		</g>
	</g>
</svg>
