<?xml version="1.0" encoding="UTF-8" standalone="no"?>
<!DOCTYPE svg PUBLIC "-//W3C//DTD SVG 1.1//EN" "http://www.w3.org/Graphics/SVG/1.1/DTD/svg11.dtd">
<!-- Generated by Microsoft Visio, SVG Export SQL Database.svg Page-1 -->
<svg xmlns="http://www.w3.org/2000/svg" xmlns:xlink="http://www.w3.org/1999/xlink" xmlns:ev="http://www.w3.org/2001/xml-events"
		width="1.535in" height="1.73185in" viewBox="0 0 110.52 124.693" xml:space="preserve" color-interpolation-filters="sRGB"
		class="st6">
	<style type="text/css">
	<![CDATA[
		.st1 {fill:url(#grad0-6);stroke:none;stroke-linecap:butt;stroke-width:34}
		.st2 {fill:#e8e8e8;stroke:none;stroke-linecap:butt;stroke-width:34}
		.st3 {fill:#50e6ff;stroke:none;stroke-linecap:butt;stroke-width:34}
		.st4 {fill:#198ab3;stroke:none;stroke-linecap:butt;stroke-width:34}
		.st5 {fill:url(#grad3-16);stroke:none;stroke-linecap:butt;stroke-width:34}
		.st6 {fill:none;fill-rule:evenodd;font-size:12px;overflow:visible;stroke-linecap:square;stroke-miterlimit:3}
	]]>
	</style>

	<defs id="Patterns_And_Gradients">
		<linearGradient id="grad0-6" x1="0" y1="0" x2="1" y2="0" gradientTransform="rotate(0 0.5 0.5)">
			<stop offset="0" stop-color="#005ba1" stop-opacity="1"/>
			<stop offset="0.07" stop-color="#0060a9" stop-opacity="1"/>
			<stop offset="0.36" stop-color="#0071c8" stop-opacity="1"/>
			<stop offset="0.52" stop-color="#0078d4" stop-opacity="1"/>
			<stop offset="0.64" stop-color="#0074cd" stop-opacity="1"/>
			<stop offset="0.82" stop-color="#006abb" stop-opacity="1"/>
			<stop offset="1" stop-color="#005ba1" stop-opacity="1"/>
		</linearGradient>
		<radialGradient id="grad3-16" cx="0.5" cy="0.5" r="0.73">
			<stop offset="0" stop-color="#f2f2f2" stop-opacity="1"/>
			<stop offset="0.58" stop-color="#eeeeee" stop-opacity="1"/>
			<stop offset="1" stop-color="#e6e6e6" stop-opacity="1"/>
		</radialGradient>
	</defs>
	<g>
		<title>Page-1</title>
		<g id="group557-1" transform="translate(34,-34)">
			<title>SQL Database</title>
			<g id="group558-2">
				<title>Sheet.558</title>
				<g id="shape559-3">
					<title>Sheet.559</title>
					<path d="M21.26 83.47 C9.52 83.47 0 80.14 0 75.74 L0 116.96 C0 121.19 9.35 124.63 20.96 124.69 L21.26 124.69
								 C33 124.69 42.52 121.36 42.52 116.96 L42.52 75.74 C42.52 80.04 33 83.47 21.26 83.47 Z" class="st1"/>
				</g>
				<g id="shape560-7" transform="translate(0,-41.2191)">
					<title>Sheet.560</title>
					<path d="M42.52 116.96 C42.52 121.26 33 124.69 21.26 124.69 C9.52 124.69 0 121.36 0 116.96 C0 112.55 9.52 109.22
								 21.26 109.22 C33 109.22 42.52 112.55 42.52 116.96 Z" class="st2"/>
				</g>
				<g id="shape561-9" transform="translate(4.94184,-44.654)">
					<title>Sheet.561</title>
					<path d="M32.64 119.76 C32.64 122.49 25.31 124.69 16.32 124.69 C7.33 124.69 0 122.49 0 119.76 C0 117.02 7.33
								 114.86 16.32 114.86 C25.31 114.86 32.64 117.06 32.64 119.76 Z" class="st3"/>
				</g>
				<g id="shape562-11" transform="translate(8.358,-44.654)">
					<title>Sheet.562</title>
					<path d="M12.9 120.99 A38.3075 38.5178 -180 0 0 0 122.89 A37.8763 38.0843 -180 0 0 12.9 124.69 A36.9808 37.1839
								 -180 0 0 25.8 122.76 A39.2694 39.4849 -180 0 0 12.9 120.99 Z" class="st4"/>
				</g>
				<g id="shape563-13" transform="translate(5.30667,-14.4067)">
					<title>Sheet.563</title>
					<path d="M28.89 118.76 L28.89 107.42 L25.9 107.42 L25.9 121.19 L34.06 121.19 L34.06 118.76 L28.89 118.76 ZM5.21
								 113.19 A6.0695 6.10283 0 0 1 3.52 112.15 A1.45933 1.46735 0 0 1 3.12 111.09 A1.12767 1.13386 0 0
								 1 3.62 110.09 A2.25533 2.26772 0 0 1 5.01 109.69 A5.373 5.4025 0 0 1 8.32 110.65 L8.32 107.79 A8.557
								 8.60398 -180 0 0 5.01 107.25 A5.43934 5.4692 -180 0 0 1.39 108.39 A3.582 3.60167 -180 0 0 0 111.35
								 C0 113.05 1.06 114.39 3.32 115.39 A9.552 9.60445 0 0 1 5.37 116.59 A1.393 1.40065 0 0 1 5.87 117.66
								 A1.26033 1.26725 0 0 1 5.34 118.69 A2.6865 2.70125 0 0 1 3.85 119.06 A5.50567 5.5359 0 0 1 0.23
								 117.66 L0.23 120.76 A7.19717 7.23668 -180 0 0 3.78 121.56 A6.23534 6.26957 -180 0 0 7.69 120.46
								 A3.582 3.60167 -180 0 0 8.79 117.42 A3.4825 3.50162 -180 0 0 7.96 115.09 A8.02634 8.0704 -180 0
								 0 5.21 113.19 ZM22.59 118.49 A7.761 7.80361 -180 0 0 23.68 114.29 A7.69467 7.73692 -180 0 0 22.59
								 110.75 A6.00317 6.03613 -180 0 0 20.26 108.25 A6.63334 6.66975 -180 0 0 16.95 107.38 A6.99817 7.03659
								 -180 0 0 13.37 108.29 A6.169 6.20287 -180 0 0 10.95 110.75 A8.159 8.2038 -180 0 0 10.08 114.55 A7.49567
								 7.53682 -180 0 0 10.88 117.89 A5.83734 5.86938 -180 0 0 13.17 120.36 A6.83234 6.86985 -180 0 0 16.48
								 121.36 L19.34 124.69 L23.35 124.69 L19.27 121.02 A5.93684 5.96943 -180 0 0 22.59 118.49 ZM19.27
								 117.66 A3.11767 3.13478 0 0 1 16.75 118.82 A3.05133 3.06809 0 0 1 14.23 117.62 A5.04134 5.06901
								 0 0 1 13.27 114.29 A5.0745 5.10236 0 0 1 14.23 110.95 A3.31667 3.33488 0 0 1 16.82 109.72 A2.8855
								 2.90134 0 0 1 19.3 110.95 A5.373 5.4025 0 0 1 20.2 114.29 A4.84234 4.86892 0 0 1 19.27 117.66 Z"
							class="st5"/>
				</g>
			</g>
		</g>
	</g>
</svg>
