<?xml version="1.0" encoding="UTF-8" standalone="no"?>
<!DOCTYPE svg PUBLIC "-//W3C//DTD SVG 1.1//EN" "http://www.w3.org/Graphics/SVG/1.1/DTD/svg11.dtd">
<!-- Generated by Microsoft Visio, SVG Export SQL Database Edge.svg Page-1 -->
<svg xmlns="http://www.w3.org/2000/svg" xmlns:xlink="http://www.w3.org/1999/xlink" xmlns:ev="http://www.w3.org/2001/xml-events"
		width="1.02645in" height="1.25445in" viewBox="0 0 73.9044 90.3203" xml:space="preserve" color-interpolation-filters="sRGB"
		class="st12">
	<style type="text/css">
	<![CDATA[
		.st1 {fill:#ffffff;fill-opacity:0.4;stroke:none;stroke-linecap:butt;stroke-width:10.9502}
		.st2 {fill:url(#grad0-8);stroke:none;stroke-linecap:butt;stroke-width:10.9502}
		.st3 {fill:#e8e8e8}
		.st4 {stroke:none;stroke-linecap:butt;stroke-width:10.9502}
		.st5 {fill:#50e6ff}
		.st6 {fill:#198ab3;stroke:none;stroke-linecap:butt;stroke-width:10.9502}
		.st7 {fill:url(#grad0-20);stroke:none;stroke-linecap:butt;stroke-width:10.9502}
		.st8 {fill:#0072c6;stroke:none;stroke-linecap:butt;stroke-width:10.9502}
		.st9 {fill:#e8e8e8;stroke:none;stroke-linecap:butt;stroke-width:10.9502}
		.st10 {fill:#50e6ff;stroke:none;stroke-linecap:butt;stroke-width:10.9502}
		.st11 {fill:url(#grad6-35);stroke:none;stroke-linecap:butt;stroke-width:10.9502}
		.st12 {fill:none;fill-rule:evenodd;font-size:12px;overflow:visible;stroke-linecap:square;stroke-miterlimit:3}
	]]>
	</style>

	<defs id="Patterns_And_Gradients">
		<linearGradient id="grad0-8" x1="0" y1="0" x2="1" y2="0" gradientTransform="rotate(0 0.5 0.5)">
			<stop offset="0" stop-color="#005ba1" stop-opacity="1"/>
			<stop offset="0.07" stop-color="#0060a9" stop-opacity="1"/>
			<stop offset="0.355" stop-color="#0071c8" stop-opacity="1"/>
			<stop offset="0.515" stop-color="#0078d4" stop-opacity="1"/>
			<stop offset="0.64" stop-color="#0074cd" stop-opacity="1"/>
			<stop offset="0.82" stop-color="#006abb" stop-opacity="1"/>
			<stop offset="1" stop-color="#005ba1" stop-opacity="1"/>
		</linearGradient>
		<linearGradient id="grad0-20" x1="0" y1="0" x2="1" y2="0" gradientTransform="rotate(-90 0.5 0.5)">
			<stop offset="0" stop-color="#198ab3" stop-opacity="1"/>
			<stop offset="0.095" stop-color="#209ec5" stop-opacity="1"/>
			<stop offset="0.24" stop-color="#28b6da" stop-opacity="1"/>
			<stop offset="0.395" stop-color="#2ec7e9" stop-opacity="1"/>
			<stop offset="0.565" stop-color="#31d1f2" stop-opacity="1"/>
			<stop offset="0.775" stop-color="#32d4f5" stop-opacity="1"/>
		</linearGradient>
		<radialGradient id="grad6-35" cx="1" cy="0" r="1.4">
			<stop offset="0" stop-color="#f2f2f2" stop-opacity="1"/>
			<stop offset="0.58" stop-color="#eeeeee" stop-opacity="1"/>
			<stop offset="1" stop-color="#e6e6e6" stop-opacity="1"/>
		</radialGradient>
	</defs>
	<g>
		<title>Page-1</title>
		<g id="group564-1" transform="translate(9.45301,-28.3465)">
			<title>SQL Database Edge</title>
			<g id="group565-2">
				<title>layer1</title>
				<g id="shape566-3" transform="translate(33.6837,-36.843)">
					<title>path40</title>
					<path d="M0 84.88 C4.76 86.13 5.97 86.93 10.26 90.32 C10.23 90.27 10.19 90.22 10.15 90.16 C9.95 89.85 9.74 89.56
								 9.52 89.27 C9.44 89.17 9.36 89.05 9.27 88.95 C9.08 88.72 8.87 88.51 8.66 88.3 A11.6804 11.3439 -180
								 0 0 7.64 87.37 L7.63 87.36 A11.5701 11.2368 -180 0 0 3.82 85.39 L3.64 85.33 C3.35 85.25 3.05 85.18
								 2.75 85.11 A12.4304 12.0722 -180 0 0 2.03 85 C1.84 84.97 1.66 84.94 1.47 84.92 A13.1169 12.739 -180
								 0 0 0.13 84.87 L0 84.88 Z" class="st1"/>
				</g>
				<g id="shape567-5" transform="translate(33.7284,-36.3056)">
					<title>path42</title>
					<path d="M5.72 79.62 C2.56 79.62 0 78.72 0 77.61 L0 88.31 C0 89.41 2.52 90.31 5.64 90.32 L5.72 90.32 C8.88 90.32
								 11.44 89.42 11.44 88.31 L11.44 77.61 C11.43 78.72 8.87 79.62 5.72 79.62 Z" class="st2"/>
				</g>
				<g id="shape568-9" transform="translate(33.7284,-47.0019)">
					<title>path44</title>
					<path d="M11.43 88.31 C11.43 89.42 8.87 90.32 5.71 90.32 C2.55 90.32 0 89.42 0 88.31 C0 87.2 2.56 86.3 5.72 86.3
								 C8.88 86.3 11.44 87.2 11.44 88.31 L11.43 88.31 Z" class="st3"/>
					<path d="M11.43 88.31 C11.43 89.42 8.87 90.32 5.71 90.32 C2.55 90.32 0 89.42 0 88.31 C0 87.2 2.56 86.3 5.72 86.3
								 C8.88 86.3 11.44 87.2 11.44 88.31" class="st4"/>
				</g>
				<g id="shape569-12" transform="translate(35.063,-47.8969)">
					<title>path46</title>
					<path d="M8.76 89.04 C8.76 89.75 6.8 90.32 4.38 90.32 C1.96 90.32 0 89.75 0 89.04 C0 88.34 1.96 87.76 4.39 87.76
								 C6.81 87.76 8.77 88.34 8.77 89.04 L8.76 89.04 Z" class="st5"/>
					<path d="M8.76 89.04 C8.76 89.75 6.8 90.32 4.38 90.32 C1.96 90.32 0 89.75 0 89.04 C0 88.34 1.96 87.76 4.39 87.76
								 C6.81 87.76 8.77 88.34 8.77 89.04" class="st4"/>
				</g>
				<g id="shape570-15" transform="translate(35.9784,-47.8919)">
					<title>path48</title>
					<path d="M3.47 89.33 A10.6038 10.2983 -180 0 0 0 89.82 A10.2303 9.9356 -180 0 0 3.47 90.32 A10.2303 9.9356 -180
								 0 0 6.94 89.82 A10.61 10.3043 -180 0 0 3.47 89.33 Z" class="st6"/>
				</g>
				<g id="shape571-17" transform="translate(6.66665,-12.9794)">
					<title>path50</title>
					<path d="M46.51 80.29 A10.4498 10.1488 -180 0 0 37.44 70.54 C37.37 63.77 31.33 58.3 23.88 58.3 A13.5153 13.1259
								 -180 0 0 10.96 66.85 C4.75 67.77 0 72.64 0 78.51 C0 85.03 5.86 90.32 13.1 90.32 C13.49 90.32 13.87
								 90.3 14.25 90.27 L35.46 90.27 A2.10952 2.04874 -180 0 0 36.02 90.19 C41.86 89.96 46.51 85.61 46.51
								 80.29 L46.51 80.29 Z" class="st7"/>
				</g>
				<g id="shape572-21">
					<title>path52</title>
					<path d="M52.17 47.71 C50.74 45.89 48.28 45.01 45.16 44.97 L45.16 48 C47.35 48.04 48.94 48.57 49.7 49.55 C52.33
								 52.9 47.55 63.88 33.8 74.15 C20.04 84.43 7.92 86.07 5.29 82.72 C3.8 80.82 4.72 76.46 8.28 71.18
								 A11.4827 11.1519 0 0 1 6.91 67.81 C1.83 74.58 0 80.97 2.82 84.56 C7.34 90.32 22.06 86.74 35.69 76.56
								 C49.31 66.38 56.69 53.47 52.17 47.71 Z" class="st8"/>
				</g>
				<g id="shape573-23" transform="translate(16.0981,-0.513202)">
					<title>path54</title>
					<path d="M9.81 71.97 C4.39 71.97 0 70.43 0 68.52 L0 86.87 C0 88.76 4.32 90.3 9.67 90.32 L9.81 90.32 C15.22 90.32
								 19.61 88.78 19.61 86.87 L19.61 68.52 C19.61 70.43 15.22 71.97 9.81 71.97 L9.81 71.97 Z"
							class="st2"/>
				</g>
				<g id="shape574-26" transform="translate(16.0981,-18.863)">
					<title>path56</title>
					<path d="M19.61 86.87 C19.61 88.78 15.22 90.32 9.81 90.32 C4.39 90.32 0 88.78 0 86.87 C0 84.97 4.39 83.42 9.81
								 83.42 C15.22 83.42 19.61 84.97 19.61 86.87 Z" class="st9"/>
				</g>
				<g id="shape575-28" transform="translate(18.3876,-20.3986)">
					<title>path58</title>
					<path d="M15.04 88.13 C15.04 89.34 11.67 90.32 7.52 90.32 C3.37 90.32 0 89.34 0 88.13 C0 86.92 3.37 85.93 7.52
								 85.93 C11.67 85.93 15.04 86.92 15.04 88.13 Z" class="st10"/>
				</g>
				<g id="shape576-30" transform="translate(19.95,-20.3986)">
					<title>path60</title>
					<path d="M5.96 88.63 A18.1681 17.6447 -180 0 0 0 89.46 A17.5513 17.0456 -180 0 0 5.96 90.32 A17.5544 17.0486
								 -180 0 0 11.91 89.46 A18.1795 17.6558 -180 0 0 5.96 88.63 Z" class="st6"/>
				</g>
				<g id="shape577-32" transform="translate(18.48,-6.91703)">
					<title>path62</title>
					<path d="M13.39 87.66 L13.39 82.65 L11.96 82.65 L11.96 88.78 L15.73 88.78 L15.73 87.66 L13.39 87.66 ZM2.48 85.19
								 A3.10395 3.01452 0 0 1 1.69 84.73 a0.662606 0.643516 0 0 1 -0.191462 -0.476815 a0.549225 0.533401
								 0 0 1 0.237067 -0.451576 A1.07661 1.04559 0 0 1 2.38 83.63 A2.49648 2.42455 0 0 1 3.84 84.06 L3.84
								 82.78 A4.16807 4.04799 -180 0 0 2.31 82.54 A2.57345 2.49931 -180 0 0 0.63 83.04 A1.67264 1.62445
								 -180 0 0 -0 84.37 A2.07311 2.01339 -180 0 0 1.45 86.16 A4.22632 4.10456 0 0 1 2.39 86.69 a0.653244
								 0.634424 0 0 1 0.231956 0.483878 a0.549225 0.533401 0 0 1 -0.241392 0.453603 A1.13486 1.10216 0
								 0 1 1.7 87.8 A2.52768 2.45486 0 0 1 0.03 87.18 L0.03 88.55 A3.43265 3.33375 -180 0 0 1.66 88.89
								 A2.9292 2.8448 -180 0 0 3.46 88.41 A1.64663 1.59919 -180 0 0 4.12 87.06 A1.58526 1.53959 -180 0
								 0 3.74 86.01 A3.89554 3.78331 -180 0 0 2.48 85.19 L2.48 85.19 ZM10.41 87.55 A3.91635 3.80351 -180
								 0 0 10.54 84.04 A2.74092 2.66195 -180 0 0 9.46 82.93 A3.05194 2.96401 -180 0 0 7.9 82.54 A3.27766
								 3.18323 -180 0 0 6.25 82.94 A2.83038 2.74883 -180 0 0 5.12 84.1 A3.74471 3.63682 -180 0 0 4.72 85.8
								 A3.49403 3.39336 -180 0 0 5.09 87.36 A2.78773 2.70741 -180 0 0 6.13 88.46 A3.0561 2.96805 -180 0
								 0 7.65 88.89 L8.96 90.32 L10.81 90.32 L8.98 88.67 A2.70452 2.62659 -180 0 0 10.41 87.55 L10.41 87.55
								 ZM8.99 87.18 A1.42299 1.38199 0 0 1 7.82 87.7 A1.40115 1.36078 0 0 1 6.66 87.16 A2.71804 2.63973
								 0 0 1 6.67 84.28 A1.44275 1.40119 0 0 1 7.85 83.73 A1.35226 1.3133 0 0 1 9 84.27 A2.47671 2.40535
								 0 0 1 9.41 85.75 A2.26763 2.2023 0 0 1 8.99 87.18 L8.99 87.18 Z" class="st11"/>
				</g>
			</g>
		</g>
	</g>
</svg>
