<?xml version="1.0" encoding="UTF-8" standalone="no"?>
<!DOCTYPE svg PUBLIC "-//W3C//DTD SVG 1.1//EN" "http://www.w3.org/Graphics/SVG/1.1/DTD/svg11.dtd">
<!-- Generated by Microsoft Visio, SVG Export Storage Sync Service.svg Page-1 -->
<svg xmlns="http://www.w3.org/2000/svg" xmlns:xlink="http://www.w3.org/1999/xlink" xmlns:ev="http://www.w3.org/2001/xml-events"
		width="0.944882in" height="1.12992in" viewBox="0 0 68.0315 81.3543" xml:space="preserve" color-interpolation-filters="sRGB"
		class="st7">
	<style type="text/css">
	<![CDATA[
		.st1 {fill:url(#grad0-6);stroke:none;stroke-linecap:butt;stroke-width:0.75}
		.st2 {fill:url(#grad0-10);stroke:none;stroke-linecap:butt;stroke-width:0.75}
		.st3 {fill:#ffffff;stroke:none;stroke-linecap:butt;stroke-width:0.75}
		.st4 {fill:#003067;stroke:none;stroke-linecap:butt;stroke-width:0.75}
		.st5 {fill:#50e6ff;stroke:none;stroke-linecap:butt;stroke-width:0.75}
		.st6 {fill:#0078d4;stroke:none;stroke-linecap:butt;stroke-width:0.75}
		.st7 {fill:none;fill-rule:evenodd;font-size:12px;overflow:visible;stroke-linecap:square;stroke-miterlimit:3}
	]]>
	</style>

	<defs id="Patterns_And_Gradients">
		<linearGradient id="grad0-6" x1="0" y1="0" x2="1" y2="0" gradientTransform="rotate(-90 0.5 0.5)">
			<stop offset="0" stop-color="#0078d4" stop-opacity="1"/>
			<stop offset="0.14" stop-color="#077bd6" stop-opacity="1"/>
			<stop offset="0.34" stop-color="#1a83db" stop-opacity="1"/>
			<stop offset="0.59" stop-color="#3990e4" stop-opacity="1"/>
			<stop offset="0.82" stop-color="#5ea0ef" stop-opacity="1"/>
		</linearGradient>
		<linearGradient id="grad0-10" x1="0" y1="0" x2="1" y2="0" gradientTransform="rotate(-90 0.5 0.5)">
			<stop offset="0" stop-color="#949494" stop-opacity="1"/>
			<stop offset="0.41" stop-color="#c1c1c1" stop-opacity="1"/>
			<stop offset="1" stop-color="#ffffff" stop-opacity="1"/>
		</linearGradient>
	</defs>
	<g>
		<title>Page-1</title>
		<g id="group426-1" transform="translate(5.66929,-28.3465)">
			<title>Storage Sync Service</title>
			<g id="group427-2">
				<title>layer1</title>
				<g id="shape428-3" transform="translate(0,-7.26442)">
					<title>path4</title>
					<path d="M56.69 68.52 A12.7877 13.0175 -180 0 0 45.64 56.04 A16.0636 16.3523 -180 0 0 29.1 40.43 A16.5356 16.8327
								 -180 0 0 13.35 51.36 A15.118 15.3897 -180 0 0 -0 66.24 A15.4327 15.71 -180 0 0 15.97 81.34 L43.21
								 81.34 A4.6105 4.69334 -180 0 0 43.91 81.34 A12.9135 13.1456 -180 0 0 56.69 68.52 Z" class="st1"/>
				</g>
				<g id="shape429-7" transform="translate(20.7877,-2.41585E-13)">
					<title>path6</title>
					<path d="M17.42 48.27 L0 48.27 L0 79.69 A1.63777 1.6672 -180 0 0 1.64 81.35 L17.39 81.35 A1.63777 1.6672 -180
								 0 0 19.02 79.69 L19.02 49.93 A1.63738 1.6668 -180 0 0 17.42 48.27 Z" class="st2"/>
				</g>
				<g id="shape430-11" transform="translate(10.4386,-24.0005)">
					<title>path8</title>
					<path d="M7.27 72.27 a0.283465 0.288558 0 0 1 -0.31507 -0.320526 L6.96 68.23 a0.346084 0.352302 -180 0 0 -0.400406
								 -0.302636 C6.49 67.93 6.44 67.96 6.39 68 L0.09 74.42 a0.314675 0.320329 -180 0 0 5.93969E-15 0.448823
								 L6.39 81.28 a0.345688 0.3519 -180 0 0 0.361491 0.0504646 a0.347071 0.353308 -180 0 0 0.205438 -0.307051
								 L6.96 77.17 a0.314675 0.320329 0 0 1 0.315071 -0.320526 L10.42 76.85 L10.42 72.27 L7.27 72.27 Z"
							class="st3"/>
				</g>
				<g id="shape431-13" transform="translate(23.5906,-19.3973)">
					<title>path10</title>
					<path d="M0 79.27 A2.04549 2.08224 0 0 1 0.6 77.76 A2.04845 2.08526 0 0 1 2.08 77.15 L11.53 77.15 A2.07927 2.11663
								 0 0 1 13.61 79.27 A2.07927 2.11663 0 0 1 11.53 81.35 L2.08 81.35 A2.04924 2.08606 0 0 1 0.61 80.76
								 A2.04628 2.08305 0 0 1 0 79.27 ZM0 72.99 A2.07808 2.11542 0 0 1 2.08 70.87 L11.53 70.87 A2.11028
								 2.1482 0 0 1 13.61 72.99 A2.11028 2.1482 0 0 1 11.53 75.1 L2.08 75.1 A2.07887 2.11623 0 0 1 0 72.99
								 Z" class="st4"/>
				</g>
				<g id="shape432-15" transform="translate(24.3486,-20.0706)">
					<title>path12</title>
					<path d="M1.38 75.07 A1.38591 1.41082 -180 1 0 1.38 72.25 A1.38591 1.41082 -180 0 0 1.38 75.07 ZM1.38 81.35 A1.38572
								 1.41062 -180 1 0 1.38 78.53 A1.38572 1.41062 -180 0 0 1.38 81.35 Z" class="st5"/>
				</g>
				<g id="shape433-17" transform="translate(20.6615,-2.90373)">
					<title>path14</title>
					<path d="M10.46 74.86 L4.16 81.28 a0.345491 0.351699 0 0 1 -0.361492 0.0504646 a0.347269 0.353509 0 0 1 -0.205437
								 -0.307059 L3.59 77.24 a0.315268 0.320933 -180 0 0 -0.314873 -0.320731 L0 76.92 L0 72.33 L3.37 72.33
								 a0.285045 0.290167 -180 0 0 0.233882 -0.0824458 a0.283069 0.288156 -180 0 0 0.0809897 -0.238286
								 L3.69 68.29 a0.346479 0.352704 0 0 1 0.56693 -0.224408 L10.55 74.48 C10.58 74.55 10.59 74.62 10.57
								 74.69 a0.313885 0.319525 0 0 1 -0.112595 0.175744 L10.46 74.86 Z" class="st6"/>
				</g>
			</g>
		</g>
	</g>
</svg>
