<?xml version="1.0" encoding="UTF-8" standalone="no"?>
<!DOCTYPE svg PUBLIC "-//W3C//DTD SVG 1.1//EN" "http://www.w3.org/Graphics/SVG/1.1/DTD/svg11.dtd">
<!-- Generated by Microsoft Visio, SVG Export Storage Account Container.svg Page-1 -->
<svg xmlns="http://www.w3.org/2000/svg" xmlns:xlink="http://www.w3.org/1999/xlink" xmlns:ev="http://www.w3.org/2001/xml-events"
		width="1.1274in" height="1.23299in" viewBox="0 0 81.1729 88.7754" xml:space="preserve" color-interpolation-filters="sRGB"
		class="st6">
	<style type="text/css">
	<![CDATA[
		.st1 {fill:#a0a1a2;stroke:none;stroke-linecap:butt;stroke-width:12.24}
		.st2 {fill:#7a7a7a;stroke:none;stroke-linecap:butt;stroke-width:12.24}
		.st3 {fill:#ffffff;fill-opacity:0.8;stroke:none;stroke-linecap:butt;stroke-width:12.24}
		.st4 {fill:#ff8c00;stroke:none;stroke-linecap:butt;stroke-width:12.24}
		.st5 {fill:#ffffff;fill-opacity:0.2;stroke:none;stroke-linecap:butt;stroke-width:12.24}
		.st6 {fill:none;fill-rule:evenodd;font-size:12px;overflow:visible;stroke-linecap:square;stroke-miterlimit:3}
	]]>
	</style>

	<g>
		<title>Page-1</title>
		<g id="group468-1" transform="translate(12.24,-28.3465)">
			<title>Storage Account Container</title>
			<g id="group469-2">
				<title>g14</title>
				<g id="shape470-3">
					<title>path4</title>
					<path d="M0 86.63 C0 87.76 0.91 88.78 2.04 88.78 L54.54 88.78 C55.67 88.78 56.69 87.87 56.69 86.63 L56.69 49.28
								 L0 49.28 L0 86.63 Z" class="st1"/>
				</g>
				<g id="shape471-5" transform="translate(0,-39.612)">
					<title>path6</title>
					<path d="M54.54 80.2 L2.04 80.2 C0.91 80.2 0 81.21 0 82.34 L0 88.78 L56.69 88.78 L56.69 82.34 C56.69 81.21 55.79
								 80.2 54.54 80.2 Z" class="st2"/>
				</g>
				<g id="shape472-7" transform="translate(10.9984,-4.28848)">
					<title>path8</title>
					<path d="M32.09 64.29 L32.09 61.58 L14.85 61.58 L10.77 57.51 L0 57.51 L0 87.2 C0 88.1 0.68 88.78 1.59 88.78 L32.43
								 88.78 C33.34 88.78 34.02 88.1 34.02 87.2 L34.02 64.29 L32.09 64.29 Z" class="st3"/>
				</g>
				<g id="shape473-9" transform="translate(10.9984,-4.28848)">
					<title>path10</title>
					<path d="M3.17 64.29 L3.17 87.2 C3.17 88.1 2.49 88.78 1.59 88.78 C0.68 88.78 0 88.1 0 87.2 L0 57.51 L10.89 57.51
								 L14.97 61.58 L32.09 61.58 L32.09 64.29 L3.17 64.29 Z" class="st4"/>
				</g>
				<g id="shape474-11" transform="translate(0,-0.112855)">
					<title>path12</title>
					<path d="M2.27 40.7 C1.02 40.7 0 41.72 0 42.96 L0 86.52 C0 87.76 1.02 88.78 2.27 88.78 L4.76 88.78 L49.44 40.7
								 L2.27 40.7 Z" class="st5"/>
				</g>
			</g>
		</g>
	</g>
</svg>
