<?xml version="1.0" encoding="UTF-8" standalone="no"?>
<!DOCTYPE svg PUBLIC "-//W3C//DTD SVG 1.1//EN" "http://www.w3.org/Graphics/SVG/1.1/DTD/svg11.dtd">
<!-- Generated by Microsoft Visio, SVG Export Storage Explorer.svg Page-1 -->
<svg xmlns="http://www.w3.org/2000/svg" xmlns:xlink="http://www.w3.org/1999/xlink" xmlns:ev="http://www.w3.org/2001/xml-events"
		width="1.49736in" height="1.61547in" viewBox="0 0 107.81 116.314" xml:space="preserve" color-interpolation-filters="sRGB"
		class="st7">
	<style type="text/css">
	<![CDATA[
		.st1 {fill:url(#grad0-6);stroke:none;stroke-linecap:butt;stroke-width:29.8104}
		.st2 {fill:#005ba1;stroke:none;stroke-linecap:butt;stroke-width:29.8104}
		.st3 {fill:#5ea0ef;stroke:none;stroke-linecap:butt;stroke-width:29.8104}
		.st4 {fill:#ffffff;stroke:none;stroke-linecap:butt;stroke-width:29.8104}
		.st5 {fill:#0078d4;stroke:none;stroke-linecap:butt;stroke-width:29.8104}
		.st6 {fill:#83b9f9;stroke:none;stroke-linecap:butt;stroke-width:29.8104}
		.st7 {fill:none;fill-rule:evenodd;font-size:12px;overflow:visible;stroke-linecap:square;stroke-miterlimit:3}
	]]>
	</style>

	<defs id="Patterns_And_Gradients">
		<linearGradient id="grad0-6" x1="0" y1="0" x2="1" y2="0" gradientTransform="rotate(91.406732702115 0.5 0.5)">
			<stop offset="0" stop-color="#e6e6e6" stop-opacity="1"/>
			<stop offset="1" stop-color="#b3b3b3" stop-opacity="1"/>
		</linearGradient>
	</defs>
	<g>
		<title>Page-1</title>
		<g id="group434-1" transform="translate(29.8104,-29.8104)">
			<title>Storage Explorer</title>
			<g id="group435-2">
				<title>g31</title>
				<g id="shape436-3">
					<title>path11</title>
					<path d="M46.57 80.37 L31.24 80.37 a0.806575 0.815748 -180 0 0 -0.806575 0.815748 L30.43 90.58 a0.806575 0.815748
								 0 0 1 -0.806575 0.815748 L16.02 91.39 a0.800347 0.809449 -180 0 0 -0.800347 0.809449 L15.22 101.79
								 a0.809689 0.818898 0 0 1 -0.809689 0.815748 L0.8 102.6 a0.803461 0.812598 -180 0 0 -0.803461 0.809449
								 L0 114.69 A1.60692 1.6252 -180 0 0 1.6 116.31 L32.17 116.31 a0.725606 0.733858 -180 0 0 0.165052
								 -0.0188976 L46.57 116.29 A1.61315 1.6315 -180 0 0 48.19 114.66 L48.19 82 A1.61315 1.6315 -180 0
								 0 46.57 80.37 Z" class="st1"/>
				</g>
				<g id="shape437-7" transform="translate(32.973,-2.50079)">
					<title>rect13</title>
					<path d="M0 115.5 a0.806594 0.815767 -180 0 0 0.806575 0.815748 L11.86 116.31 a0.806594 0.815767 -180 0 0 0.806575
								 -0.815748 L12.67 108.59 a0.806594 0.815767 -180 0 0 -0.806575 -0.815748 L0.81 107.78 a0.806594 0.815767
								 -180 0 0 -0.806575 0.815748 L0 115.5 Z" class="st2"/>
				</g>
				<g id="shape438-9" transform="translate(32.973,-13.7102)">
					<title>rect15</title>
					<path d="M0 115.5 a0.806594 0.815767 -180 0 0 0.806575 0.815748 L11.86 116.31 a0.806594 0.815767 -180 0 0 0.806575
								 -0.815748 L12.67 108.59 a0.806594 0.815767 -180 0 0 -0.806575 -0.815748 L0.81 107.78 a0.806594 0.815767
								 -180 0 0 -0.806575 0.815748 L0 115.5 Z" class="st3"/>
				</g>
				<g id="shape439-11" transform="translate(32.973,-24.9197)">
					<title>rect17</title>
					<path d="M0 115.5 a0.806594 0.815767 -180 0 0 0.806575 0.815748 L11.86 116.31 a0.806594 0.815767 -180 0 0 0.806575
								 -0.815748 L12.67 108.59 a0.806594 0.815767 -180 0 0 -0.806575 -0.815748 L0.81 107.78 a0.806594 0.815767
								 -180 0 0 -0.806575 0.815748 L0 115.5 Z" class="st4"/>
				</g>
				<g id="shape440-13" transform="translate(17.7602,-2.48504)">
					<title>rect19</title>
					<path d="M0 115.5 a0.806594 0.815767 -180 0 0 0.806575 0.815748 L11.86 116.31 a0.806594 0.815767 -180 0 0 0.806575
								 -0.815748 L12.67 108.59 a0.806594 0.815767 -180 0 0 -0.806575 -0.815748 L0.81 107.78 a0.806594 0.815767
								 -180 0 0 -0.806575 0.815748 L0 115.5 Z" class="st2"/>
				</g>
				<g id="shape441-15" transform="translate(17.7602,-13.6913)">
					<title>rect21</title>
					<path d="M0 115.5 a0.806594 0.815767 -180 0 0 0.806575 0.815748 L11.86 116.31 a0.806594 0.815767 -180 0 0 0.806575
								 -0.815748 L12.67 108.59 a0.806594 0.815767 -180 0 0 -0.806575 -0.815748 L0.81 107.78 a0.806594 0.815767
								 -180 0 0 -0.806575 0.815748 L0 115.5 Z" class="st4"/>
				</g>
				<g id="shape442-17" transform="translate(2.54741,-2.48504)">
					<title>rect23</title>
					<path d="M0 115.5 a0.806594 0.815767 -180 0 0 0.806575 0.815748 L11.86 116.31 a0.806594 0.815767 -180 0 0 0.806575
								 -0.815748 L12.67 108.59 a0.806594 0.815767 -180 0 0 -0.806575 -0.815748 L0.81 107.78 a0.806594 0.815767
								 -180 0 0 -0.806575 0.815748 L0 115.5 Z" class="st2"/>
				</g>
				<g id="shape443-19" transform="translate(15.054,-35.852)">
					<title>rect25</title>
					<path d="M0 115.34 a0.959193 0.970101 -180 0 0 0.959171 0.970079 L14.09 116.31 a0.959193 0.970101 -180 0 0 0.959171
								 -0.970079 L15.05 107.14 a0.959193 0.970101 -180 0 0 -0.959171 -0.970079 L0.96 106.17 a0.959193 0.970101
								 -180 0 0 -0.959171 0.970079 L0 115.34 Z" class="st3"/>
				</g>
				<g id="shape444-21" transform="translate(2.3781E-13,-25.2567)">
					<title>rect27</title>
					<path d="M0 115.34 a0.959193 0.970101 -180 0 0 0.959171 0.970079 L14.09 116.31 a0.959193 0.970101 -180 0 0 0.959171
								 -0.970079 L15.05 107.14 a0.959193 0.970101 -180 0 0 -0.959171 -0.970079 L0.96 106.17 a0.959193 0.970101
								 -180 0 0 -0.959171 0.970079 L0 115.34 Z" class="st5"/>
				</g>
				<g id="shape445-23" transform="translate(2.3781E-13,-46.548)">
					<title>rect29</title>
					<path d="M0 115.34 a0.959193 0.970101 -180 0 0 0.959171 0.970079 L14.09 116.31 a0.959193 0.970101 -180 0 0 0.959171
								 -0.970079 L15.05 107.14 a0.959193 0.970101 -180 0 0 -0.959171 -0.970079 L0.96 106.17 a0.959193 0.970101
								 -180 0 0 -0.959171 0.970079 L0 115.34 Z" class="st6"/>
				</g>
			</g>
		</g>
	</g>
</svg>
