<?xml version="1.0" encoding="UTF-8" standalone="no"?>
<!DOCTYPE svg PUBLIC "-//W3C//DTD SVG 1.1//EN" "http://www.w3.org/Graphics/SVG/1.1/DTD/svg11.dtd">
<!-- Generated by Microsoft Visio, SVG Export Tags.svg Page-1 -->
<svg xmlns="http://www.w3.org/2000/svg" xmlns:xlink="http://www.w3.org/1999/xlink" xmlns:ev="http://www.w3.org/2001/xml-events"
		width="1.00929in" height="1.3511in" viewBox="0 0 72.669 97.2794" xml:space="preserve" color-interpolation-filters="sRGB"
		class="st6">
	<style type="text/css">
	<![CDATA[
		.st1 {fill:#57a300;stroke:none;stroke-linecap:butt;stroke-width:12.24}
		.st2 {fill:#ffffff;fill-opacity:0.098;stroke:none;stroke-linecap:butt;stroke-width:12.24}
		.st3 {fill:#1e1e1e;fill-opacity:0.3;stroke:none;stroke-linecap:butt;stroke-width:12.24}
		.st4 {fill:#3999c6;stroke:none;stroke-linecap:butt;stroke-width:12.24}
		.st5 {fill:#804998;stroke:none;stroke-linecap:butt;stroke-width:12.24}
		.st6 {fill:none;fill-rule:evenodd;font-size:12px;overflow:visible;stroke-linecap:square;stroke-miterlimit:3}
	]]>
	</style>

	<g>
		<title>Page-1</title>
		<g id="group387-1" transform="translate(12.24,-28.3465)">
			<title>Tags</title>
			<g id="group388-2">
				<title>Sheet.388</title>
				<g id="shape389-3" transform="translate(2.39808E-13,-16.1008)">
					<title>Sheet.389</title>
					<path d="M34.94 56.69 L23.64 57.14 L0 80.61 L16.79 97.28 L40.42 73.81 L41.34 63.04 L34.94 56.69 ZM35.86 65.42
								 C34.94 66.33 33.46 66.33 32.54 65.42 C31.63 64.51 31.63 63.04 32.54 62.13 C33.46 61.22 34.94 61.22
								 35.86 62.13 C36.77 63.04 36.77 64.51 35.86 65.42 Z" class="st1"/>
				</g>
				<g id="shape390-5" transform="translate(-2.43805E-13,-16.1008)">
					<title>Sheet.390</title>
					<path d="M0 80.61 L16.79 97.28 L20.55 93.54 L20.55 60.2 L0 80.61 Z" class="st2"/>
				</g>
				<g id="shape391-7" transform="translate(29.4615,-44.9008)">
					<title>Sheet.391</title>
					<path d="M7.77 89.57 C6.05 87.87 3.43 87.87 1.71 89.57 C0 91.27 0 93.88 1.71 95.58 C3.43 97.28 6.05 97.28 7.77
								 95.58 C9.48 93.88 9.48 91.16 7.77 89.57 ZM6.39 94.22 C5.48 95.13 4 95.13 3.08 94.22 C2.17 93.31
								 2.17 91.84 3.08 90.93 C4 90.02 5.48 90.02 6.39 90.93 C7.31 91.84 7.31 93.31 6.39 94.22 Z"
							class="st3"/>
				</g>
				<g id="shape392-9" transform="translate(3.42576,-8.05039)">
					<title>Sheet.392</title>
					<path d="M34.94 56.69 L23.64 57.14 L0 80.61 L16.79 97.28 L40.42 73.81 L41.34 63.04 L34.94 56.69 ZM35.86 65.42
								 C34.94 66.33 33.46 66.33 32.54 65.42 C31.63 64.51 31.63 63.04 32.54 62.13 C33.46 61.22 34.94 61.22
								 35.86 62.13 C36.77 63.04 36.77 64.51 35.86 65.42 Z" class="st4"/>
				</g>
				<g id="shape393-11" transform="translate(3.42576,-8.05039)">
					<title>Sheet.393</title>
					<path d="M0 80.61 L16.79 97.28 L20.55 93.54 L20.55 60.2 L0 80.61 Z" class="st2"/>
				</g>
				<g id="shape394-13" transform="translate(32.8873,-36.8504)">
					<title>Sheet.394</title>
					<path d="M7.77 89.57 C6.05 87.87 3.43 87.87 1.71 89.57 C0 91.27 0 93.88 1.71 95.58 C3.43 97.28 6.05 97.28 7.77
								 95.58 C9.48 93.88 9.48 91.27 7.77 89.57 ZM6.39 94.22 C5.48 95.13 4 95.13 3.08 94.22 C2.17 93.31
								 2.17 91.84 3.08 90.93 C4 90.02 5.48 90.02 6.39 90.93 C7.31 91.84 7.31 93.31 6.39 94.22 Z"
							class="st3"/>
				</g>
				<g id="shape395-15" transform="translate(6.85151,1.42109E-14)">
					<title>Sheet.395</title>
					<path d="M34.94 56.69 L23.64 57.14 L0 80.61 L16.79 97.28 L40.42 73.81 L41.34 63.04 L34.94 56.69 ZM35.86 65.42
								 C34.94 66.33 33.46 66.33 32.54 65.42 C31.63 64.51 31.63 63.04 32.54 62.13 C33.46 61.22 34.94 61.22
								 35.86 62.13 C36.77 63.04 36.77 64.51 35.86 65.42 Z" class="st5"/>
				</g>
				<g id="shape396-17" transform="translate(6.85151,1.42109E-14)">
					<title>Sheet.396</title>
					<path d="M0 80.61 L16.79 97.28 L20.55 93.54 L20.55 60.2 L0 80.61 Z" class="st2"/>
				</g>
				<g id="shape397-19" transform="translate(36.313,-28.8)">
					<title>Sheet.397</title>
					<path d="M7.77 89.57 C6.05 87.87 3.43 87.87 1.71 89.57 C0 91.27 0 93.88 1.71 95.58 C3.43 97.28 6.05 97.28 7.77
								 95.58 C9.48 93.88 9.48 91.27 7.77 89.57 ZM6.39 94.22 C5.48 95.13 4 95.13 3.08 94.22 C2.17 93.31
								 2.17 91.84 3.08 90.93 C4 90.02 5.48 90.02 6.39 90.93 C7.31 91.84 7.31 93.31 6.39 94.22 Z"
							class="st3"/>
				</g>
			</g>
		</g>
	</g>
</svg>
