<?xml version="1.0" encoding="UTF-8" standalone="no"?>
<!DOCTYPE svg PUBLIC "-//W3C//DTD SVG 1.1//EN" "http://www.w3.org/Graphics/SVG/1.1/DTD/svg11.dtd">
<!-- Generated by Microsoft Visio, SVG Export Template.svg Page-1 -->
<svg xmlns="http://www.w3.org/2000/svg" xmlns:xlink="http://www.w3.org/1999/xlink" xmlns:ev="http://www.w3.org/2001/xml-events"
		width="1.04866in" height="1.3511in" viewBox="0 0 75.5036 97.2794" xml:space="preserve" color-interpolation-filters="sRGB"
		class="st3">
	<style type="text/css">
	<![CDATA[
		.st1 {fill:#59b4d9;stroke:none;stroke-linecap:butt;stroke-width:12.24}
		.st2 {fill:#ffffff;fill-opacity:0.8;stroke:none;stroke-linecap:butt;stroke-width:12.24}
		.st3 {fill:none;fill-rule:evenodd;font-size:12px;overflow:visible;stroke-linecap:square;stroke-miterlimit:3}
	]]>
	</style>

	<g>
		<title>Page-1</title>
		<g id="group382-1" transform="translate(12.24,-28.3465)">
			<title>Template</title>
			<g id="group383-2">
				<title>Sheet.383</title>
				<g id="shape384-3">
					<title>Sheet.384</title>
					<path d="M48.7 48.3 L43.14 42.85 L40.82 40.59 L0 40.59 L0 97.28 L51.02 97.28 L51.02 50.56 L48.7 48.3 Z"
							class="st1"/>
				</g>
				<g id="shape385-5" transform="translate(2.31926,-2.26772)">
					<title>Sheet.385</title>
					<path d="M38.27 45.12 L0 45.12 L0 97.28 L46.39 97.28 L46.39 53.06 L38.27 53.06 L38.27 45.12 Z" class="st2"/>
				</g>
				<g id="shape386-7" transform="translate(7.28826,-22.5706)">
					<title>Sheet.386</title>
					<path d="M4.59 93.4 C4.59 94.63 4.28 95.58 3.66 96.26 C3.04 96.94 2.22 97.28 1.19 97.28 C0.7 97.28 0.31 97.22
								 0 97.11 L0 95.5 C0.28 95.69 0.64 95.78 1.08 95.78 C2.25 95.78 2.84 94.9 2.84 93.13 L2.84 86.77 L4.59
								 86.77 L4.59 93.4 L4.59 93.4 ZM6.62 96.7 L6.62 94.93 C6.78 95.07 6.97 95.2 7.2 95.32 C7.42 95.43
								 7.66 95.53 7.91 95.61 C8.16 95.69 8.41 95.75 8.66 95.8 C8.91 95.84 9.14 95.86 9.35 95.86 C10.09
								 95.86 10.64 95.74 11 95.5 C11.36 95.26 11.54 94.91 11.54 94.45 C11.54 94.21 11.48 94 11.36 93.82
								 A1.89831 1.85613 -180 0 0 10.85 93.32 A5.3053 5.1874 -180 0 0 10.09 92.89 C9.8 92.76 9.48 92.61
								 9.15 92.47 C8.79 92.28 8.46 92.09 8.15 91.9 A4.26395 4.1692 0 0 1 7.34 91.26 A2.73788 2.67704 0
								 0 1 6.8 90.47 A2.63931 2.58066 0 0 1 6.61 89.44 C6.61 88.95 6.72 88.53 6.94 88.17 C7.17 87.82 7.46
								 87.52 7.83 87.29 A4.03782 3.94809 0 0 1 9.08 86.77 A5.95585 5.8235 0 0 1 10.51 86.6 C11.61 86.6
								 12.42 86.72 12.92 86.97 L12.92 88.66 C12.32 88.24 11.55 88.03 10.61 88.03 C10.35 88.03 10.09 88.05
								 9.83 88.1 A2.31346 2.26205 -180 0 0 9.14 88.34 A1.50984 1.47628 -180 0 0 8.64 88.76 A1.06686 1.04315
								 -180 0 0 8.45 89.39 C8.45 89.62 8.5 89.82 8.6 89.99 C8.69 90.16 8.84 90.31 9.03 90.45 C9.22 90.59
								 9.45 90.72 9.72 90.85 C9.99 90.99 10.31 91.13 10.67 91.28 C11.04 91.47 11.38 91.67 11.71 91.87 C12.04
								 92.08 12.32 92.31 12.57 92.56 C12.82 92.81 13.02 93.09 13.16 93.39 C13.31 93.7 13.38 94.04 13.38
								 94.43 C13.38 94.96 13.27 95.4 13.06 95.76 C12.84 96.12 12.55 96.41 12.18 96.64 C11.82 96.86 11.39
								 97.03 10.92 97.13 A6.57277 6.42671 0 0 1 8.75 97.24 A9.15758 8.95408 0 0 1 7.96 97.12 C7.69 97.07
								 7.44 97.01 7.2 96.94 C6.95 96.87 6.76 96.79 6.62 96.7 ZM19.68 97.28 C18.15 97.28 16.93 96.8 16.02
								 95.83 C15.1 94.87 14.64 93.61 14.64 92.06 C14.64 90.4 15.11 89.08 16.04 88.09 C16.98 87.1 18.24
								 86.6 19.84 86.6 C21.33 86.6 22.52 87.08 23.43 88.04 C24.34 89 24.79 90.26 24.79 91.81 C24.79 93.5
								 24.33 94.83 23.4 95.81 C22.47 96.79 21.23 97.28 19.68 97.28 ZM19.75 88.11 C18.79 88.11 18 88.46
								 17.39 89.17 C16.79 89.87 16.48 90.8 16.48 91.95 C16.48 93.1 16.78 94.03 17.37 94.73 C17.96 95.43
								 18.73 95.78 19.68 95.78 C20.69 95.78 21.49 95.45 22.08 94.78 C22.66 94.11 22.95 93.18 22.95 91.98
								 C22.95 90.74 22.67 89.79 22.1 89.11 C21.53 88.44 20.75 88.11 19.75 88.11 ZM35.69 97.11 L33.77 97.11
								 L28.72 89.51 A3.44641 3.36983 0 0 1 28.41 88.91 L28.36 88.91 C28.4 89.13 28.42 89.61 28.42 90.33
								 L28.42 97.11 L26.73 97.11 L26.73 86.77 L28.77 86.77 L33.65 94.19 C33.85 94.5 33.99 94.71 34.05 94.82
								 L34.08 94.82 C34.03 94.55 34 94.09 34 93.43 L34 86.77 L35.69 86.77 L35.69 97.11 L35.69 97.11 Z"
							class="st1"/>
				</g>
			</g>
		</g>
	</g>
</svg>
