<?xml version="1.0" encoding="UTF-8" standalone="no"?>
<!DOCTYPE svg PUBLIC "-//W3C//DTD SVG 1.1//EN" "http://www.w3.org/Graphics/SVG/1.1/DTD/svg11.dtd">
<!-- Generated by Microsoft Visio, SVG Export Tenant Status.svg Page-1 -->
<svg xmlns="http://www.w3.org/2000/svg" xmlns:xlink="http://www.w3.org/1999/xlink" xmlns:ev="http://www.w3.org/2001/xml-events"
		width="1.04866in" height="1.3511in" viewBox="0 0 75.5036 97.2794" xml:space="preserve" color-interpolation-filters="sRGB"
		class="st5">
	<style type="text/css">
	<![CDATA[
		.st1 {fill:#59b4d9;stroke:none;stroke-linecap:butt;stroke-width:12.24}
		.st2 {fill:#ffffff;stroke:none;stroke-linecap:butt;stroke-width:12.24}
		.st3 {fill:#dd5900;stroke:none;stroke-linecap:butt;stroke-width:12.24}
		.st4 {fill:#ba141a;stroke:none;stroke-linecap:butt;stroke-width:12.24}
		.st5 {fill:none;fill-rule:evenodd;font-size:12px;overflow:visible;stroke-linecap:square;stroke-miterlimit:3}
	]]>
	</style>

	<g>
		<title>Page-1</title>
		<g id="group375-1" transform="translate(12.24,-28.3465)">
			<title>Tenant Status</title>
			<g id="group376-2">
				<title>Sheet.376</title>
				<g id="shape377-3" transform="translate(2.51799E-13,-10.4343)">
					<title>Sheet.377</title>
					<path d="M26.15 60.76 A9.59091 9.73866 0 1 1 6.96 60.76 A9.59091 9.73866 0 0 1 26.15 60.76 ZM23.33 72.93 L16.56
								 82.81 L9.78 72.93 L0 72.93 L0 97.28 L33.11 97.28 L33.11 72.93 L23.33 72.93 Z" class="st1"/>
				</g>
				<g id="shape378-5" transform="translate(19.2697,-2.01961)">
					<title>Sheet.378</title>
					<path d="M25.06 84.22 L20 79.1 L11.12 75.62 L8.3 80.03 L4.57 83.07 L0 83.07 L1.42 86.02 L6.85 86.02 C10.8 92.27
								 15.98 97.28 15.98 97.28 C15.98 97.28 21.16 93.8 25.12 87.71 L26.94 87.71 A11.5388 11.7165 -180 0
								 0 28.54 84.55 L25.06 84.22 Z" class="st2"/>
				</g>
				<g id="shape379-7" transform="translate(44.0029,-10.9583)">
					<title>Sheet.379</title>
					<path d="M7.02 94.33 L1.42 94.33 L0 97.28 L5.56 97.28 L7.02 94.33 Z" class="st2"/>
				</g>
				<g id="shape380-9" transform="translate(18.8164,-11.6447)">
					<title>Sheet.380</title>
					<path d="M22.88 81.1 C20.12 81.1 17.75 82.86 16.58 85.41 C15.41 82.86 13.04 81.1 10.28 81.1 C6.36 81.1 3.19 84.6
								 3.19 88.92 C3.19 89.89 3.33 90.86 3.58 91.83 L0 91.83 L0.94 93.74 L8.25 93.74 L12.32 87.35 L17.05
								 97.28 L21.53 90.9 L24.85 95.01 L28.71 95.01 C29.49 93.1 29.97 91.06 29.97 88.92 C29.97 84.6 26.79
								 81.1 22.88 81.1 Z" class="st3"/>
				</g>
				<g id="shape381-11" transform="translate(23.8734,-2.84217E-13)">
					<title>Sheet.381</title>
					<path d="M26.22 85.27 L18.9 85.27 L16.58 82.39 L11.68 89.36 L7.02 79.59 L4.21 84 L0 84 C3.68 91.16 11.52 97.28
								 11.52 97.28 C11.52 97.28 17.68 93.28 21.64 87.18 L25.28 87.18 L26.22 85.27 Z" class="st4"/>
				</g>
			</g>
		</g>
	</g>
</svg>
