<?xml version="1.0" encoding="UTF-8" standalone="no"?>
<!DOCTYPE svg PUBLIC "-//W3C//DTD SVG 1.1//EN" "http://www.w3.org/Graphics/SVG/1.1/DTD/svg11.dtd">
<!-- Generated by Microsoft Visio, SVG Export Time Series Insights Event Source.svg Page-1 -->
<svg xmlns="http://www.w3.org/2000/svg" xmlns:xlink="http://www.w3.org/1999/xlink" xmlns:ev="http://www.w3.org/2001/xml-events"
		width="1.70535in" height="1.70535in" viewBox="0 0 122.785 122.785" xml:space="preserve" color-interpolation-filters="sRGB"
		class="st5">
	<style type="text/css">
	<![CDATA[
		.st1 {fill:url(#grad0-5);stroke:none;stroke-linecap:butt;stroke-width:33.0461}
		.st2 {fill:#c3f1ff;stroke:none;stroke-linecap:butt;stroke-width:33.0461}
		.st3 {fill:#949494;stroke:none;stroke-linecap:butt;stroke-width:33.0461}
		.st4 {fill:#767676;stroke:none;stroke-linecap:butt;stroke-width:33.0461}
		.st5 {fill:none;fill-rule:evenodd;font-size:12px;overflow:visible;stroke-linecap:square;stroke-miterlimit:3}
	]]>
	</style>

	<defs id="Patterns_And_Gradients">
		<linearGradient id="grad0-5" x1="0" y1="0" x2="1" y2="0" gradientTransform="rotate(-90 0.5 0.5)">
			<stop offset="0" stop-color="#198ab3" stop-opacity="1"/>
			<stop offset="0.4" stop-color="#25aed3" stop-opacity="1"/>
			<stop offset="0.78" stop-color="#2fcaec" stop-opacity="1"/>
			<stop offset="1" stop-color="#32d4f5" stop-opacity="1"/>
		</linearGradient>
	</defs>
	<g>
		<title>Page-1</title>
		<g id="group358-1" transform="translate(33.0461,-33.0461)">
			<title>Time Series Insights Event Source</title>
			<g id="shape359-2" transform="translate(13.8738,-13.9095)">
				<title>rect15</title>
				<path d="M0 121.43 A1.36412 1.35143 -180 0 0 1.36 122.79 L27.75 122.79 A1.36412 1.35143 -180 0 0 29.11 121.43 L29.11
							 95.3 A1.36412 1.35143 -180 0 0 27.75 93.94 L1.36 93.94 A1.36412 1.35143 -180 0 0 -0 95.3 L0 121.43 Z"
						class="st1"/>
			</g>
			<g id="shape360-6" transform="translate(22.7237,-16.7112)">
				<title>path17</title>
			</g>
			<g id="shape361-7" transform="translate(13.8738,-17.8549)">
				<title>path19</title>
				<path d="M23.72 122.78 L38.29 112.66 a0.432516 0.428493 -180 0 0 9.23706E-14 -0.725142 L23.72 101.84 a0.432516 0.428493
							 -180 0 0 -0.69868 0.36257 L23.02 108.01 L0 108.01 L0 116.58 L23.02 116.58 L23.02 122.41 a0.465787 0.461454
							 -180 0 0 0.69868 0.36257 Z" class="st2"/>
			</g>
			<g id="shape362-9">
				<title>path21</title>
				<path d="M54.96 122.79 L1.73 122.79 A1.73007 1.71397 0 0 1 0 121.07 L0 67.81 A1.73007 1.71397 0 0 1 1.73 66.09 L54.96
							 66.09 A1.73007 1.71397 0 0 1 56.69 67.81 L56.69 84.55 a0.865033 0.856986 0 0 1 -1.36409 0.725142 L52
							 82.97 a0.898303 0.889947 0 0 1 -0.365976 -0.725143 L51.64 71.37 L5.26 71.37 L5.26 117.51 L51.44 117.51
							 L51.44 106.96 a0.865033 0.856986 0 0 1 0.365976 -0.692181 L55.13 103.87 a0.865033 0.856986 0 0 1 1.36409
							 0.725142 L56.49 121.07 A1.73007 1.71397 0 0 1 54.96 122.79 Z" class="st3"/>
			</g>
			<g id="shape363-11" transform="translate(51.4362,-37.4574)">
				<title>path23</title>
				<path d="M0 108.82 L0 119.54 a0.898303 0.889947 -180 0 0 0.365976 0.725142 L3.69 122.57 a0.865033 0.856986 -180 0
							 0 1.49717 -0.560337 L5.19 108.82 L0 108.82 Z" class="st4"/>
			</g>
			<g id="shape364-13" transform="translate(51.4362,-5.10895)">
				<title>path25</title>
				<path d="M0 122.62 L0 111.91 a0.831762 0.824025 0 0 1 0.365976 -0.692181 L3.69 108.88 a0.898303 0.889947 0 0 1 1.36409
							 0.725142 L5.06 122.79 L0 122.62 Z" class="st4"/>
			</g>
		</g>
	</g>
</svg>
