<?xml version="1.0" encoding="UTF-8" standalone="no"?>
<!DOCTYPE svg PUBLIC "-//W3C//DTD SVG 1.1//EN" "http://www.w3.org/Graphics/SVG/1.1/DTD/svg11.dtd">
<!-- Generated by Microsoft Visio, SVG Export Time Series Insights Reference Data Set.svg Page-1 -->
<svg xmlns="http://www.w3.org/2000/svg" xmlns:xlink="http://www.w3.org/1999/xlink" xmlns:ev="http://www.w3.org/2001/xml-events"
		width="1.4814in" height="1.67825in" viewBox="0 0 106.661 120.834" xml:space="preserve" color-interpolation-filters="sRGB"
		class="st6">
	<style type="text/css">
	<![CDATA[
		.st1 {fill:url(#grad0-5);stroke:none;stroke-linecap:butt;stroke-width:32.0705}
		.st2 {fill:#e8e8e8;stroke:none;stroke-linecap:butt;stroke-width:32.0705}
		.st3 {fill:#50e6ff;stroke:none;stroke-linecap:butt;stroke-width:32.0705}
		.st4 {fill:#198ab3;stroke:none;stroke-linecap:butt;stroke-width:32.0705}
		.st5 {fill:url(#grad4-15);stroke:none;stroke-linecap:butt;stroke-width:32.0705}
		.st6 {fill:none;fill-rule:evenodd;font-size:12px;overflow:visible;stroke-linecap:square;stroke-miterlimit:3}
	]]>
	</style>

	<defs id="Patterns_And_Gradients">
		<linearGradient id="grad0-5" x1="0" y1="0" x2="1" y2="0" gradientTransform="rotate(0 0.5 0.5)">
			<stop offset="0" stop-color="#005ba1" stop-opacity="1"/>
			<stop offset="0.07" stop-color="#0060a9" stop-opacity="1"/>
			<stop offset="0.36" stop-color="#0071c8" stop-opacity="1"/>
			<stop offset="0.52" stop-color="#0078d4" stop-opacity="1"/>
			<stop offset="0.64" stop-color="#0074cd" stop-opacity="1"/>
			<stop offset="0.82" stop-color="#006abb" stop-opacity="1"/>
			<stop offset="1" stop-color="#005ba1" stop-opacity="1"/>
		</linearGradient>
		<radialGradient id="grad4-15" cx="0.5" cy="0" r="1.1">
			<stop offset="0" stop-color="#f2f2f2" stop-opacity="1"/>
			<stop offset="0.58" stop-color="#eeeeee" stop-opacity="1"/>
			<stop offset="1" stop-color="#e6e6e6" stop-opacity="1"/>
		</radialGradient>
	</defs>
	<g>
		<title>Page-1</title>
		<g id="group352-1" transform="translate(32.0705,-32.0705)">
			<title>Time Series Insights Reference Data Set</title>
			<g id="shape353-2">
				<title>path28</title>
				<path d="M21.26 79.61 C9.52 79.61 0 76.28 0 71.88 L0 113.1 C0 117.33 9.35 120.77 20.96 120.83 L21.26 120.83 C33 120.83
							 42.52 117.5 42.52 113.1 L42.52 71.88 C42.52 76.18 33 79.61 21.26 79.61 Z" class="st1"/>
			</g>
			<g id="shape354-6" transform="translate(0,-41.2191)">
				<title>path30</title>
				<path d="M42.52 113.1 C42.52 117.4 33 120.83 21.26 120.83 C9.52 120.83 0 117.5 0 113.1 C0 108.69 9.52 105.36 21.26
							 105.36 C33 105.36 42.52 108.69 42.52 113.1 Z" class="st2"/>
			</g>
			<g id="shape355-8" transform="translate(4.94184,-44.654)">
				<title>path32</title>
				<path d="M32.64 115.9 C32.64 118.63 25.31 120.83 16.32 120.83 C7.33 120.83 0 118.63 0 115.9 C0 113.16 7.33 111 16.32
							 111 C25.31 111 32.64 113.2 32.64 115.9 Z" class="st3"/>
			</g>
			<g id="shape356-10" transform="translate(8.358,-44.654)">
				<title>path34</title>
				<path d="M12.9 117.13 A38.3075 38.5178 -180 0 0 -0 119.03 A37.8764 38.0843 -180 0 0 12.9 120.83 A36.9809 37.1839
							 -180 0 0 25.8 118.9 A39.2694 39.4849 -180 0 0 12.9 117.13 Z" class="st4"/>
			</g>
			<g id="shape357-12" transform="translate(5.30667,-14.4067)">
				<title>path36</title>
				<path d="M28.89 114.9 L28.89 103.56 L25.9 103.56 L25.9 117.33 L34.06 117.33 L34.06 114.9 L28.89 114.9 ZM5.21 109.33
							 A6.0695 6.10283 0 0 1 3.52 108.29 A1.45933 1.46735 0 0 1 3.08 107.23 A1.16083 1.16721 0 0 1 3.62 106.23
							 A2.25533 2.26772 0 0 1 5.01 105.83 A5.53884 5.56924 0 0 1 8.32 106.79 L8.32 103.93 A8.8555 8.90412 -180
							 0 0 5.01 103.39 A5.43934 5.4692 -180 0 0 1.39 104.53 A3.582 3.60167 -180 0 0 0 107.49 C0 109.2 1.06
							 110.53 3.32 111.53 A9.552 9.60445 0 0 1 5.37 112.73 A1.393 1.40065 0 0 1 5.87 113.8 A1.26033 1.26725
							 0 0 1 5.34 114.83 A2.42117 2.43446 0 0 1 3.85 115.2 A5.50567 5.5359 0 0 1 0.23 113.8 L0.23 116.9 A7.19717
							 7.23668 -180 0 0 3.78 117.7 A6.23534 6.26957 -180 0 0 7.69 116.6 A3.582 3.60167 -180 0 0 8.79 113.56
							 A3.4825 3.50162 -180 0 0 7.96 111.23 A8.02634 8.0704 -180 0 0 5.21 109.33 ZM22.59 114.63 A7.761 7.80361
							 -180 0 0 23.68 110.43 A7.69467 7.73692 -180 0 0 22.59 106.89 A6.00317 6.03613 -180 0 0 20.26 104.39
							 A6.63334 6.66975 -180 0 0 16.95 103.53 A6.99817 7.03659 -180 0 0 13.37 104.43 A6.169 6.20287 -180 0
							 0 10.95 106.89 A8.159 8.2038 -180 0 0 10.08 110.7 A7.49567 7.53682 -180 0 0 10.88 114.03 A5.83734 5.86938
							 -180 0 0 13.17 116.5 A6.83234 6.86985 -180 0 0 16.48 117.5 L19.34 120.83 L23.35 120.83 L19.27 117.17
							 A5.93684 5.96943 -180 0 0 22.59 114.63 ZM19.27 113.8 A3.11767 3.13478 0 0 1 16.75 114.96 A3.05133 3.06809
							 0 0 1 14.23 113.76 A5.04134 5.06901 0 0 1 13.27 110.43 A5.0745 5.10236 0 0 1 14.23 107.09 A3.31667 3.33488
							 0 0 1 16.82 105.86 A2.8855 2.90134 0 0 1 19.3 107.09 A5.373 5.4025 0 0 1 20.2 110.43 A4.84234 4.86892
							 0 0 1 19.27 113.8 Z" class="st5"/>
			</g>
		</g>
	</g>
</svg>
