<?xml version="1.0" encoding="UTF-8" standalone="no"?>
<!DOCTYPE svg PUBLIC "-//W3C//DTD SVG 1.1//EN" "http://www.w3.org/Graphics/SVG/1.1/DTD/svg11.dtd">
<!-- Generated by Microsoft Visio, SVG Export Time Series Insights Environment.svg Page-1 -->
<svg xmlns="http://www.w3.org/2000/svg" xmlns:xlink="http://www.w3.org/1999/xlink" xmlns:ev="http://www.w3.org/2001/xml-events"
		width="1.68317in" height="1.68317in" viewBox="0 0 121.188 121.188" xml:space="preserve" color-interpolation-filters="sRGB"
		class="st3">
	<style type="text/css">
	<![CDATA[
		.st1 {fill:url(#grad0-6);stroke:none;stroke-linecap:butt;stroke-width:32.2475}
		.st2 {fill:#50e6ff;stroke:none;stroke-linecap:butt;stroke-width:32.2475}
		.st3 {fill:none;fill-rule:evenodd;font-size:12px;overflow:visible;stroke-linecap:square;stroke-miterlimit:3}
	]]>
	</style>

	<defs id="Patterns_And_Gradients">
		<linearGradient id="grad0-6" x1="0" y1="0" x2="1" y2="0" gradientTransform="rotate(90 0.5 0.5)">
			<stop offset="0" stop-color="#b3b2b3" stop-opacity="1"/>
			<stop offset="0.215" stop-color="#afaeaf" stop-opacity="1"/>
			<stop offset="0.44" stop-color="#a2a2a2" stop-opacity="1"/>
			<stop offset="0.575" stop-color="#979797" stop-opacity="1"/>
		</linearGradient>
	</defs>
	<g>
		<title>Page-1</title>
		<g id="group365-1" transform="translate(32.2475,-32.2475)">
			<title>Time Series Insights Environment</title>
			<g id="group366-2">
				<title>a96c4dc0-0b65-4066-a8fa-5efc74b</title>
				<g id="shape367-3" transform="translate(0.406366,1.42109E-14)">
					<title>path15</title>
					<path d="M0 85.28 A28.9788 28.3385 0 0 1 55.86 85.28 L50.33 85.28 A23.709 23.1852 -180 0 0 5.51 85.28 L0 85.28
								 ZM50.23 100.74 A23.7155 23.1915 0 0 1 5.63 100.74 L0.1 100.74 A28.9788 28.3385 -180 0 0 55.76 100.74
								 L50.23 100.74 Z" class="st1"/>
				</g>
				<g id="shape368-7" transform="translate(0,-15.1803)">
					<title>path17</title>
					<path d="M30.42 121.19 L23.47 105.89 L20.54 110.84 L2.64 110.84 A2.6365 2.57825 0 0 1 2.64 105.68 L17.5 105.68
								 L24.09 94.55 L31.67 111.23 L36.14 105.63 L54.06 105.66 A2.6365 2.57825 0 0 1 54.06 110.82 L38.73
								 110.79 L30.42 121.19 Z" class="st2"/>
				</g>
			</g>
		</g>
	</g>
</svg>
