<?xml version="1.0" encoding="UTF-8" standalone="no"?>
<!DOCTYPE svg PUBLIC "-//W3C//DTD SVG 1.1//EN" "http://www.w3.org/Graphics/SVG/1.1/DTD/svg11.dtd">
<!-- Generated by Microsoft Visio, SVG Export Traffic Manager Profile.svg Page-1 -->
<svg xmlns="http://www.w3.org/2000/svg" xmlns:xlink="http://www.w3.org/1999/xlink" xmlns:ev="http://www.w3.org/2001/xml-events"
		width="1.73185in" height="1.73185in" viewBox="0 0 124.693 124.693" xml:space="preserve" color-interpolation-filters="sRGB"
		class="st3">
	<style type="text/css">
	<![CDATA[
		.st1 {fill:url(#grad0-6);stroke:none;stroke-linecap:butt;stroke-width:34}
		.st2 {fill:#f2f2f2;stroke:none;stroke-linecap:butt;stroke-width:34}
		.st3 {fill:none;fill-rule:evenodd;font-size:12px;overflow:visible;stroke-linecap:square;stroke-miterlimit:3}
	]]>
	</style>

	<defs id="Patterns_And_Gradients">
		<linearGradient id="grad0-6" x1="0" y1="0" x2="1" y2="0" gradientTransform="rotate(-90 0.5 0.5)">
			<stop offset="0.16" stop-color="#6f4bb2" stop-opacity="1"/>
			<stop offset="0.32" stop-color="#7450b5" stop-opacity="1"/>
			<stop offset="0.51" stop-color="#825dbf" stop-opacity="1"/>
			<stop offset="0.72" stop-color="#9a72ce" stop-opacity="1"/>
			<stop offset="0.94" stop-color="#bb90e4" stop-opacity="1"/>
			<stop offset="1" stop-color="#c69aeb" stop-opacity="1"/>
		</linearGradient>
	</defs>
	<g>
		<title>Page-1</title>
		<g id="group347-1" transform="translate(34,-34)">
			<title>Traffic Manager Profile</title>
			<g id="group348-2">
				<title>Sheet.348</title>
				<g id="shape349-3">
					<title>Sheet.349</title>
					<path d="M39.32 68 L17.37 68 A1.86753 1.86753 -180 0 0 16.04 68.57 L0.57 84.04 A1.86753 1.86753 -180 0 0 0 85.37
								 L0 107.32 A1.86753 1.86753 -180 0 0 0.57 108.65 L16.04 124.13 A1.86753 1.86753 -180 0 0 17.37 124.69
								 L39.32 124.69 A1.86753 1.86753 -180 0 0 40.65 124.13 L56.13 108.65 A1.86753 1.86753 -180 0 0 56.69
								 107.32 L56.69 85.37 A1.86753 1.86753 -180 0 0 56.13 84.04 L40.65 68.57 A1.86753 1.86753 -180 0 0
								 39.32 68 Z" class="st1"/>
				</g>
				<g id="shape350-7" transform="translate(9.77119,-28.5465)">
					<title>Sheet.350</title>
					<path d="M8.57 120.36 L8.34 120.59 L5 123.93 a0.466883 0.466883 -180 0 0 0.333488 0.767022 L18.01 124.69 a0.466883
								 0.466883 -180 0 0 0.466883 -0.466883 L18.48 111.72 a0.556535 0.556535 -180 0 0 -1.10051 -0.166744
								 L14.04 114.89 L13.81 115.12 a0.500232 0.500232 0 0 1 -0.666975 0 L4.57 106.68 L0 111.29 L8.57 119.69
								 a0.500232 0.500232 0 0 1 -5.32907E-15 0.666975 Z" class="st2"/>
				</g>
				<g id="shape351-9" transform="translate(4.13525,-4.13525)">
					<title>Sheet.351</title>
					<path d="M48.16 90.18 L34.52 76.54 a0.933766 0.933766 -180 0 0 -0.666975 -0.26679 L14.57 76.27 a0.933766 0.933766
								 -180 0 0 -0.666975 0.26679 L0.27 90.18 a0.933766 0.933766 -180 0 0 -0.26679 0.666975 L0 110.12 A1.00046
								 1.00046 -180 0 0 0.27 110.79 L13.91 124.43 a0.933766 0.933766 -180 0 0 0.666975 0.26679 L33.85 124.69
								 a0.933766 0.933766 -180 0 0 0.666975 -0.26679 L48.16 110.79 A1.00046 1.00046 -180 0 0 48.42 110.12
								 L48.42 90.84 a0.933766 0.933766 -180 0 0 -0.26679 -0.666975 ZM46.96 108.35 L36.45 97.85 L38.98 95.28
								 a0.53358 0.53358 -180 0 0 -4.26326E-14 -0.800371 a0.53358 0.53358 -180 0 0 -0.366836 -1.98952E-13
								 L29.58 94.25 a0.566929 0.566929 -180 0 0 -0.566929 0.53358 L29.25 103.82 a0.53358 0.53358 -180 0
								 0 0.566929 0.53358 a0.433534 0.433534 -180 0 0 0.400185 -2.27374E-13 L33.05 101.55 L44.22 112.55
								 L35.75 121.02 L24.21 109.52 L26.88 107.15 a0.53358 0.53358 -180 0 0 -6.75016E-14 -0.800371 a0.53358
								 0.53358 -180 0 0 -0.366836 -0.166744 L17.54 105.78 a0.566929 0.566929 -180 0 0 -0.566929 0.53358
								 L17.21 115.36 a0.53358 0.53358 -180 0 0 0.566929 0.53358 a0.566929 0.566929 -180 0 0 0.400185 -0.166744
								 L20.88 112.95 L31.15 123.23 L14.77 123.23 L1.43 109.89 L1.43 91.04 L5.64 86.88 L10.2 82.27 L14.77
								 77.7 L33.65 77.7 L46.99 91.04 L46.96 108.35 Z" class="st2"/>
				</g>
			</g>
		</g>
	</g>
</svg>
