<?xml version="1.0" encoding="UTF-8" standalone="no"?>
<!DOCTYPE svg PUBLIC "-//W3C//DTD SVG 1.1//EN" "http://www.w3.org/Graphics/SVG/1.1/DTD/svg11.dtd">
<!-- Generated by Microsoft Visio, SVG Export Universal Print Service.svg Page-1 -->
<svg xmlns="http://www.w3.org/2000/svg" xmlns:xlink="http://www.w3.org/1999/xlink" xmlns:ev="http://www.w3.org/2001/xml-events"
		width="1.69779in" height="1.57978in" viewBox="0 0 122.241 113.744" xml:space="preserve" color-interpolation-filters="sRGB"
		class="st9">
	<style type="text/css">
	<![CDATA[
		.st1 {fill:url(#grad0-6);stroke:none;stroke-linecap:butt;stroke-width:32.7738}
		.st2 {fill:#005ba1;stroke:none;stroke-linecap:butt;stroke-width:32.7738}
		.st3 {fill:url(#grad0-12);stroke:none;stroke-linecap:butt;stroke-width:32.7738}
		.st4 {fill:#5ea0ef;stroke:none;stroke-linecap:butt;stroke-width:32.7738}
		.st5 {fill:#0078d4;stroke:none;stroke-linecap:butt;stroke-width:32.7738}
		.st6 {fill:#83b9f9;stroke:none;stroke-linecap:butt;stroke-width:32.7738}
		.st7 {fill:#c3f1ff;stroke:none;stroke-linecap:butt;stroke-width:32.7738}
		.st8 {fill:url(#grad0-24);stroke:none;stroke-linecap:butt;stroke-width:32.7738}
		.st9 {fill:none;fill-rule:evenodd;font-size:12px;overflow:visible;stroke-linecap:square;stroke-miterlimit:3}
	]]>
	</style>

	<defs id="Patterns_And_Gradients">
		<linearGradient id="grad0-6" x1="0" y1="0" x2="1" y2="0" gradientTransform="rotate(-90 0.5 0.5)">
			<stop offset="0" stop-color="#773adc" stop-opacity="1"/>
			<stop offset="0.815" stop-color="#a67af4" stop-opacity="1"/>
		</linearGradient>
		<linearGradient id="grad0-12" x1="0" y1="0" x2="1" y2="0" gradientTransform="rotate(90 0.5 0.5)">
			<stop offset="0" stop-color="#c3f1ff" stop-opacity="1"/>
			<stop offset="1" stop-color="#9cebff" stop-opacity="1"/>
		</linearGradient>
		<linearGradient id="grad0-24" x1="0" y1="0" x2="1" y2="0" gradientTransform="rotate(-90 0.5 0.5)">
			<stop offset="0" stop-color="#c3f1ff" stop-opacity="1"/>
			<stop offset="1" stop-color="#9cebff" stop-opacity="1"/>
		</linearGradient>
	</defs>
	<g>
		<title>Page-1</title>
		<g id="group337-1" transform="translate(32.7738,-32.7738)">
			<title>Universal Print Service</title>
			<g id="group338-2">
				<title>afb37d11-6e90-4ac0-b9c9-249fa60</title>
				<g id="shape339-3" transform="translate(0,-7.97469)">
					<title>path19</title>
					<path d="M56.64 101.15 C56.64 98.57 52.88 97.72 51.43 95.73 C49.44 93 49.23 89.5 45.59 88.9 A16.0346 16.0661
								 -180 0 0 29.07 73.53 A16.4567 16.489 -180 0 0 13.35 84.26 A15.1874 15.2172 -180 0 0 -0 98.91 A15.411
								 15.4413 -180 0 0 15.95 113.74 C16.42 113.74 16.89 113.72 17.35 113.68 L43.18 113.68 A2.55433 2.55935
								 -180 0 0 43.86 113.58 A12.8787 12.904 -180 0 0 56.64 101.15 Z" class="st1"/>
				</g>
				<g id="shape340-7" transform="translate(24.1386,-20.2066)">
					<title>rect21</title>
					<path d="M0 112.8 a0.944904 0.94676 -180 0 0 0.944882 0.946738 L27.96 113.74 a0.944904 0.94676 -180 0 0 0.944882
								 -0.946738 L28.91 103.08 a0.944904 0.94676 -180 0 0 -0.944882 -0.946738 L0.94 102.13 a0.944904 0.94676
								 -180 0 0 -0.944882 0.946738 L0 112.8 Z" class="st2"/>
				</g>
				<g id="shape341-9" transform="translate(26.9921,-21.5825)">
					<title>rect23</title>
					<path d="M-0 112.8 a0.944904 0.94676 -180 0 0 0.944882 0.946738 L22.26 113.74 a0.944904 0.94676 -180 0 0 0.944882
								 -0.946738 L23.2 97.18 a0.944904 0.94676 -180 0 0 -0.944882 -0.946738 L0.94 96.23 a0.944904 0.94676
								 -180 0 0 -0.944882 0.946738 L0 112.8 Z" class="st3"/>
				</g>
				<g id="shape342-13" transform="translate(20.4945,-5.53842)">
					<title>path25</title>
					<path d="M1.89 92.6 L34.31 92.6 A1.88976 1.89348 0 0 1 36.2 94.49 L36.2 113.74 L0 113.74 L0 94.49 A1.88976 1.89348
								 0 0 1 1.89 92.6 Z" class="st4"/>
				</g>
				<g id="shape343-15" transform="translate(20.4945,-4.80312)">
					<title>rect27</title>
					<rect x="0" y="110.525" width="36.1984" height="3.21891" class="st5"/>
				</g>
				<g id="shape344-17" transform="translate(25.1874,-9.90288)">
					<title>rect29</title>
					<path d="M0 112.8 a0.944904 0.94676 -180 0 0 0.944882 0.946738 L25.86 113.74 a0.944904 0.94676 -180 0 0 0.944882
								 -0.946738 L26.8 110.93 a0.944904 0.94676 -180 0 0 -0.944882 -0.946738 L0.94 109.98 a0.944904 0.94676
								 -180 0 0 -0.944882 0.946738 L0 112.8 Z" class="st6"/>
				</g>
				<g id="shape345-19" transform="translate(49.6378,-19.7805)">
					<title>circle31</title>
					<ellipse cx="0.897638" cy="112.845" rx="0.897638" ry="0.899401" class="st7"/>
				</g>
				<g id="shape346-21" transform="translate(26.989,-2.27374E-13)">
					<title>path33</title>
					<path d="M0 100.73 L23.21 100.73 L23.21 112.8 a0.944882 0.946738 0 0 1 -0.944882 0.946738 L0.94 113.74 a0.944882
								 0.946738 0 0 1 -0.944882 -0.946738 L0 100.73 L0 100.73 Z" class="st8"/>
				</g>
			</g>
		</g>
	</g>
</svg>
