<?xml version="1.0" encoding="UTF-8" standalone="no"?>
<!DOCTYPE svg PUBLIC "-//W3C//DTD SVG 1.1//EN" "http://www.w3.org/Graphics/SVG/1.1/DTD/svg11.dtd">
<!-- Generated by Microsoft Visio, SVG Export Update Management.svg Page-1 -->
<svg xmlns="http://www.w3.org/2000/svg" xmlns:xlink="http://www.w3.org/1999/xlink" xmlns:ev="http://www.w3.org/2001/xml-events"
		width="1.1274in" height="1.27236in" viewBox="0 0 81.1729 91.6101" xml:space="preserve" color-interpolation-filters="sRGB"
		class="st7">
	<style type="text/css">
	<![CDATA[
		.st1 {fill:#a0a1a2;stroke:none;stroke-linecap:butt;stroke-width:12.24}
		.st2 {fill:#0072c6;stroke:none;stroke-linecap:butt;stroke-width:12.24}
		.st3 {fill:#ffffff;fill-opacity:0.2;stroke:none;stroke-linecap:butt;stroke-width:12.24}
		.st4 {fill:#fafdff;fill-opacity:0.2;stroke:none;stroke-linecap:butt;stroke-width:12.24}
		.st5 {fill:#ffffff;stroke:none;stroke-linecap:butt;stroke-width:12.24}
		.st6 {fill:#1e1e1e;fill-opacity:0.15;stroke:none;stroke-linecap:butt;stroke-width:12.24}
		.st7 {fill:none;fill-rule:evenodd;font-size:12px;overflow:visible;stroke-linecap:square;stroke-miterlimit:3}
	]]>
	</style>

	<g>
		<title>Page-1</title>
		<g id="group328-1" transform="translate(12.24,-28.3465)">
			<title>Update Management</title>
			<g id="group329-2">
				<title>Sheet.329</title>
				<g id="shape330-3" transform="translate(9.44882,0)">
					<title>Sheet.330</title>
					<path d="M25.98 79.74 L11.81 79.74 C13.67 86.63 11.13 88.05 0 88.05 L0 91.61 L37.8 91.61 L37.8 88.05 C26.67 88.05
								 24.13 86.63 25.98 79.74 Z" class="st1"/>
				</g>
				<g id="shape331-5" transform="translate(0,-10.6794)">
					<title>Sheet.331</title>
					<path d="M53.15 51.27 L3.19 51.27 C1.42 51.27 0 52.93 0 54.71 L0 88.29 C0 90.07 1.42 91.61 3.19 91.61 L53.15
								 91.61 C54.92 91.61 56.69 90.07 56.69 88.29 L56.69 54.71 C56.69 52.93 54.92 51.27 53.15 51.27 Z"
							class="st1"/>
				</g>
				<g id="shape332-7" transform="translate(4.72441,-15.4257)">
					<title>Sheet.332</title>
					<rect x="0" y="60.7586" width="47.2441" height="30.8515" class="st2"/>
				</g>
				<g id="shape333-9" transform="translate(0,-10.6794)">
					<title>Sheet.333</title>
					<path d="M43.7 51.27 L53.15 51.27 L3.19 51.27 C1.42 51.27 0 52.93 0 54.71 L0 88.29 C0 90.07 1.42 91.61 3.19 91.61
								 L8.27 91.61 L43.7 51.27 Z" class="st3"/>
				</g>
				<g id="shape334-11" transform="translate(9.44882,-2.84217E-14)">
					<title>Sheet.334</title>
					<rect x="0" y="88.0503" width="37.7953" height="3.55979" class="st4"/>
				</g>
				<g id="shape335-13" transform="translate(17.7165,-19.3747)">
					<title>Sheet.335</title>
					<path d="M10.34 91.61 C15.4 91.61 19.83 87.59 20.26 82.51 L17.3 82.51 C16.88 85.89 13.93 88.65 10.34 88.65 C8.23
								 88.65 6.12 87.59 5.06 85.89 L8.23 82.51 L0 82.51 L0 91.4 L2.95 88.01 C4.85 90.13 7.39 91.61 10.34
								 91.61 ZM10.93 72.8 C13.04 72.8 15.15 73.86 16.21 75.55 L13.04 78.94 L21.27 78.94 L21.27 70.04 L18.32
								 73.22 C16.63 71.1 13.89 69.83 10.93 69.83 C5.66 69.83 1.44 73.86 1.02 78.94 L3.97 78.94 C4.39 75.34
								 7.35 72.8 10.93 72.8 Z" class="st5"/>
				</g>
				<g id="shape336-15" transform="translate(22.4409,-9.49277)">
					<title>Sheet.336</title>
					<rect x="0" y="90.4235" width="11.811" height="1.1866" class="st6"/>
				</g>
			</g>
		</g>
	</g>
</svg>
