<?xml version="1.0" encoding="UTF-8" standalone="no"?>
<!DOCTYPE svg PUBLIC "-//W3C//DTD SVG 1.1//EN" "http://www.w3.org/Graphics/SVG/1.1/DTD/svg11.dtd">
<!-- Generated by Microsoft Visio, SVG Export Usage And Quota.svg Page-1 -->
<svg xmlns="http://www.w3.org/2000/svg" xmlns:xlink="http://www.w3.org/1999/xlink" xmlns:ev="http://www.w3.org/2001/xml-events"
		width="1.1274in" height="1.23299in" viewBox="0 0 81.1729 88.7754" xml:space="preserve" color-interpolation-filters="sRGB"
		class="st7">
	<style type="text/css">
	<![CDATA[
		.st1 {fill:#e5e5e5;stroke:none;stroke-linecap:butt;stroke-width:12.24}
		.st2 {fill:#57a300;stroke:none;stroke-linecap:butt;stroke-width:12.24}
		.st3 {fill:#ffffff;fill-opacity:0.6;stroke:none;stroke-linecap:butt;stroke-width:12.24}
		.st4 {fill:#7a7a7a;stroke:none;stroke-linecap:butt;stroke-width:12.24}
		.st5 {fill:#ffffff;fill-opacity:0.7;stroke:none;stroke-linecap:butt;stroke-width:12.24}
		.st6 {fill:#1e1e1e;fill-opacity:0.2;stroke:none;stroke-linecap:butt;stroke-width:12.24}
		.st7 {fill:none;fill-rule:evenodd;font-size:12px;overflow:visible;stroke-linecap:square;stroke-miterlimit:3}
	]]>
	</style>

	<g>
		<title>Page-1</title>
		<g id="group310-1" transform="translate(12.24,-28.3465)">
			<title>Usage And Quota</title>
			<g id="group311-2">
				<title>g36</title>
				<g id="shape312-3">
					<title>path4</title>
					<path d="M0 77.3 L56.69 77.3 L56.69 88.78 L0 88.78 L0 77.3 Z" class="st1"/>
				</g>
				<g id="shape313-5" transform="translate(2.26772,-2.29346)">
					<title>path6</title>
					<path d="M0 81.96 L52.16 81.96 L52.16 88.78 L0 88.78 L0 81.96 Z" class="st2"/>
				</g>
				<g id="shape314-7" transform="translate(22.6772,-2.2946)">
					<title>path8</title>
					<path d="M0 81.89 L31.75 81.89 L31.75 88.78 L0 88.78 L0 81.89 Z" class="st3"/>
				</g>
				<g id="shape315-9" transform="translate(20.4094,-2.41585E-13)">
					<title>path10</title>
					<rect x="0" y="77.3036" width="4.53543" height="11.4719" class="st4"/>
				</g>
				<g id="shape316-11" transform="translate(20.4094,-0.0011473)">
					<title>path12</title>
					<rect x="0" y="77.3024" width="2.26772" height="11.473" class="st5"/>
				</g>
				<g id="shape317-13" transform="translate(0,-18.3557)">
					<title>path14</title>
					<path d="M0 77.3 L56.69 77.3 L56.69 88.78 L0 88.78 L0 77.3 Z" class="st1"/>
				</g>
				<g id="shape318-15" transform="translate(2.26772,-20.6514)">
					<title>path16</title>
					<path d="M0 81.96 L52.16 81.96 L52.16 88.78 L0 88.78 L0 81.96 Z" class="st2"/>
				</g>
				<g id="shape319-17" transform="translate(40.8189,-20.6572)">
					<title>path18</title>
					<rect x="0" y="81.8882" width="13.6063" height="6.88725" class="st3"/>
				</g>
				<g id="shape320-19" transform="translate(38.5512,-18.3568)">
					<title>path20</title>
					<rect x="0" y="77.3036" width="4.53543" height="11.4719" class="st4"/>
				</g>
				<g id="shape321-21" transform="translate(38.5512,-18.358)">
					<title>path22</title>
					<rect x="0" y="77.3024" width="2.26772" height="11.473" class="st5"/>
				</g>
				<g id="shape322-23" transform="translate(0,-36.7125)">
					<title>path24</title>
					<path d="M0 77.3 L56.69 77.3 L56.69 88.78 L0 88.78 L0 77.3 Z" class="st1"/>
				</g>
				<g id="shape323-25" transform="translate(2.26772,-39.0083)">
					<title>path26</title>
					<path d="M0 81.96 L52.16 81.96 L52.16 88.78 L0 88.78 L0 81.96 Z" class="st2"/>
				</g>
				<g id="shape324-27" transform="translate(22.6772,-39.0071)">
					<title>path28</title>
					<path d="M0 81.89 L31.75 81.89 L31.75 88.78 L0 88.78 L0 81.89 Z" class="st3"/>
				</g>
				<g id="shape325-29" transform="translate(20.4094,-36.7137)">
					<title>path30</title>
					<rect x="0" y="77.3036" width="4.53543" height="11.4719" class="st4"/>
				</g>
				<g id="shape326-31" transform="translate(20.4094,-36.7148)">
					<title>path32</title>
					<rect x="0" y="77.3024" width="2.26772" height="11.473" class="st5"/>
				</g>
				<g id="shape327-33" transform="translate(24.9449,-0.0011473)">
					<title>path34</title>
					<path d="M0 77.3 L2.27 77.3 L2.27 88.78 L0 88.78 L0 77.3 ZM0 40.62 L2.27 40.62 L2.27 52.1 L0 52.1 L0 40.62 ZM18.14
								 58.94 L20.41 58.94 L20.41 70.41 L18.14 70.41 L18.14 58.94 Z" class="st6"/>
				</g>
			</g>
		</g>
	</g>
</svg>
