<?xml version="1.0" encoding="UTF-8" standalone="no"?>
<!DOCTYPE svg PUBLIC "-//W3C//DTD SVG 1.1//EN" "http://www.w3.org/Graphics/SVG/1.1/DTD/svg11.dtd">
<!-- Generated by Microsoft Visio, SVG Export Virtual Network (Classic).svg Page-1 -->
<svg xmlns="http://www.w3.org/2000/svg" xmlns:xlink="http://www.w3.org/1999/xlink" xmlns:ev="http://www.w3.org/2001/xml-events"
		width="1.12236in" height="0.994905in" viewBox="0 0 80.8097 71.6332" xml:space="preserve" color-interpolation-filters="sRGB"
		class="st3">
	<style type="text/css">
	<![CDATA[
		.st1 {fill:#3999c6;stroke:none;stroke-linecap:butt;stroke-width:12.24}
		.st2 {fill:#0072c6;stroke:none;stroke-linecap:butt;stroke-width:12.24}
		.st3 {fill:none;fill-rule:evenodd;font-size:12px;overflow:visible;stroke-linecap:square;stroke-miterlimit:3}
	]]>
	</style>

	<g>
		<title>Page-1</title>
		<g id="group100-1" transform="translate(12.0584,-28.3465)">
			<title>Virtual Network (Classic)</title>
			<g id="group101-2">
				<title>Sheet.101</title>
				<g id="shape102-3">
					<title>Sheet.102</title>
					<path d="M56.13 56.8 C56.69 56.26 56.58 55.4 56.13 54.86 L53.43 52.28 L41.28 40.99 C40.72 40.45 39.93 40.45 39.37
								 40.99 C38.81 41.53 38.7 42.39 39.37 42.93 L52.08 54.86 C52.64 55.4 52.64 56.26 52.08 56.8 L39.15
								 69.16 C38.58 69.7 38.58 70.56 39.15 71.1 C39.71 71.63 40.61 71.53 41.06 71.1 L53.09 59.7 L53.21
								 59.59 L56.13 56.8 ZM0.56 56.8 C0 56.26 0.11 55.4 0.56 54.86 L3.26 52.28 L15.41 40.99 C15.97 40.45
								 16.76 40.45 17.32 40.99 C17.89 41.53 18 42.39 17.32 42.93 L4.84 54.86 C4.27 55.4 4.27 56.26 4.84
								 56.8 L17.55 69.16 C18.11 69.7 18.11 70.56 17.55 71.1 C16.99 71.63 16.09 71.53 15.64 71.1 L3.37 59.81
								 L3.26 59.7 L0.56 56.8 Z" class="st1"/>
				</g>
				<g id="shape103-5" transform="translate(13.0484,-12.2574)">
					<title>Sheet.103</title>
					<path d="M7.65 68.08 C7.65 70.13 5.85 71.63 3.94 71.63 C2.02 71.63 0 69.91 0 68.08 C0 66.26 1.57 64.54 3.94 64.54
								 C6.19 64.54 7.65 66.26 7.65 68.08 ZM19.01 68.08 C19.01 70.13 17.21 71.63 15.3 71.63 C13.39 71.63
								 11.36 69.91 11.36 68.08 C11.36 66.26 13.16 64.54 15.3 64.54 C17.44 64.54 19.01 66.26 19.01 68.08
								 Z" class="st2"/>
				</g>
				<g id="shape104-7" transform="translate(36.108,-12.2574)">
					<title>Sheet.104</title>
					<ellipse cx="3.71204" cy="68.085" rx="3.71204" ry="3.54819" class="st2"/>
				</g>
			</g>
		</g>
	</g>
</svg>
