<?xml version="1.0" encoding="UTF-8" standalone="no"?>
<!DOCTYPE svg PUBLIC "-//W3C//DTD SVG 1.1//EN" "http://www.w3.org/Graphics/SVG/1.1/DTD/svg11.dtd">
<!-- Generated by Microsoft Visio, SVG Export Virtual Machine Image Version.svg Page-1 -->
<svg xmlns="http://www.w3.org/2000/svg" xmlns:xlink="http://www.w3.org/1999/xlink" xmlns:ev="http://www.w3.org/2001/xml-events"
		width="1.73185in" height="1.69248in" viewBox="0 0 124.693 121.858" xml:space="preserve" color-interpolation-filters="sRGB"
		class="st7">
	<style type="text/css">
	<![CDATA[
		.st1 {fill:#0078d4;stroke:none;stroke-linecap:butt;stroke-width:34}
		.st2 {fill:url(#grad0-8);stroke:none;stroke-linecap:butt;stroke-width:34}
		.st3 {fill:#773adc;stroke:none;stroke-linecap:butt;stroke-width:34}
		.st4 {fill:#50e6ff;stroke:none;stroke-linecap:butt;stroke-width:34}
		.st5 {fill:#c3f1ff;stroke:none;stroke-linecap:butt;stroke-width:34}
		.st6 {fill:#9cebff;stroke:none;stroke-linecap:butt;stroke-width:34}
		.st7 {fill:none;fill-rule:evenodd;font-size:12px;overflow:visible;stroke-linecap:square;stroke-miterlimit:3}
	]]>
	</style>

	<defs id="Patterns_And_Gradients">
		<linearGradient id="grad0-8" x1="0" y1="0" x2="1" y2="0" gradientTransform="rotate(-90 0.5 0.5)">
			<stop offset="0" stop-color="#32bedd" stop-opacity="1"/>
			<stop offset="0.3" stop-color="#36c3e1" stop-opacity="1"/>
			<stop offset="0.67" stop-color="#41d2ee" stop-opacity="1"/>
			<stop offset="1" stop-color="#50e6ff" stop-opacity="1"/>
		</linearGradient>
	</defs>
	<g>
		<title>Page-1</title>
		<g id="group215-1" transform="translate(34,-34)">
			<title>Virtual Machine Image Version</title>
			<g id="group216-2">
				<title>Icon-compute-38</title>
				<g id="shape217-3" transform="translate(2.83773E-13,-5.45033)">
					<title>Sheet.217</title>
					<path d="M-0 120.25 A1.63325 1.61256 -180 0 0 1.63 121.86 L37.56 121.86 A1.63325 1.61256 -180 0 0 39.2 120.25
								 L39.2 75.06 A1.63325 1.61256 -180 0 0 37.56 73.45 L1.63 73.45 A1.63325 1.61256 -180 0 0 -0 75.06
								 L0 120.25 Z" class="st1"/>
				</g>
				<g id="shape218-5" transform="translate(5.71623,0)">
					<title>Sheet.218</title>
					<path d="M-0 120.25 A1.63325 1.61256 -180 0 0 1.63 121.86 L37.56 121.86 A1.63325 1.61256 -180 0 0 39.2 120.25
								 L39.2 75.06 A1.63325 1.61256 -180 0 0 37.56 73.45 L1.63 73.45 A1.63325 1.61256 -180 0 0 -0 75.06
								 L0 120.25 Z" class="st2"/>
				</g>
				<g id="shape219-9" transform="translate(23.8448,-1.54802)">
					<title>Sheet.219</title>
					<path d="M32.73 108.7 L23.35 99.48 a0.457298 0.451506 -180 0 0 -0.816604 0.322505 L22.54 105.18 C11.27 105.18
								 0 111.12 0 121.86 C1.6 119.47 9.8 113.12 22.54 113.12 L22.54 118.28 a0.489962 0.483757 -180 0 0
								 0.816604 0.354755 L32.73 109.38 a0.555291 0.548258 -180 0 0 -6.39488E-14 -0.67726 Z" class="st3"/>
				</g>
				<g id="shape220-11" transform="translate(25.3147,-14.2225)">
					<title>Sheet.220</title>
					<path d="M11.43 102.12 L11.43 115.25 L0 121.86 L0 108.7 L11.43 102.12 Z" class="st4"/>
				</g>
				<g id="shape221-13" transform="translate(13.8823,-27.3484)">
					<title>Sheet.221</title>
					<path d="M22.86 115.25 L11.43 121.86 L0 115.25 L11.43 108.64 L22.86 115.25 Z" class="st5"/>
				</g>
				<g id="shape222-15" transform="translate(13.8823,-14.2225)">
					<title>Sheet.222</title>
					<path d="M11.43 108.73 L11.43 121.86 L0 115.25 L0 102.12 L11.43 108.73 Z" class="st6"/>
				</g>
				<g id="shape223-17" transform="translate(13.8823,-14.2225)">
					<title>Sheet.223</title>
					<path d="M0 115.25 L11.43 108.7 L11.43 121.86 L0 115.25 Z" class="st5"/>
				</g>
				<g id="shape224-19" transform="translate(25.3147,-14.2225)">
					<title>Sheet.224</title>
					<path d="M11.43 115.25 L0 108.7 L0 121.86 L11.43 115.25 Z" class="st6"/>
				</g>
			</g>
		</g>
	</g>
</svg>
