<?xml version="1.0" encoding="UTF-8" standalone="no"?>
<!DOCTYPE svg PUBLIC "-//W3C//DTD SVG 1.1//EN" "http://www.w3.org/Graphics/SVG/1.1/DTD/svg11.dtd">
<!-- Generated by Microsoft Visio, SVG Export Virtual Assistant.svg Page-1 -->
<svg xmlns="http://www.w3.org/2000/svg" xmlns:xlink="http://www.w3.org/1999/xlink" xmlns:ev="http://www.w3.org/2001/xml-events"
		width="1.1274in" height="1.27236in" viewBox="0 0 81.1729 91.6101" xml:space="preserve" color-interpolation-filters="sRGB"
		class="st11">
	<style type="text/css">
	<![CDATA[
		.st1 {fill:#7a7a7a;stroke:none;stroke-linecap:butt;stroke-width:12.24}
		.st2 {fill:#a0a1a2;stroke:none;stroke-linecap:butt;stroke-width:12.24}
		.st3 {fill:#ffffff;fill-opacity:0.2;stroke:none;stroke-linecap:butt;stroke-width:12.24}
		.st4 {fill:#59b4d9;stroke:none;stroke-linecap:butt;stroke-width:12.24}
		.st5 {fill:#b8d432;stroke:none;stroke-linecap:butt;stroke-width:12.24}
		.st6 {fill:#00188f;stroke:none;stroke-linecap:butt;stroke-width:12.24}
		.st7 {fill:#ffffff;fill-opacity:0.4;stroke:none;stroke-linecap:butt;stroke-width:12.24}
		.st8 {fill:#68217a;stroke:none;stroke-linecap:butt;stroke-width:12.24}
		.st9 {fill:#ec008c;fill-opacity:0.15;stroke:none;stroke-linecap:butt;stroke-width:12.24}
		.st10 {fill:#ffffff;fill-opacity:0.8;stroke:none;stroke-linecap:butt;stroke-width:12.24}
		.st11 {fill:none;fill-rule:evenodd;font-size:12px;overflow:visible;stroke-linecap:square;stroke-miterlimit:3}
	]]>
	</style>

	<g>
		<title>Page-1</title>
		<g id="group285-1" transform="translate(12.24,-28.3465)">
			<title>Virtual Assistant</title>
			<g id="group286-2">
				<title>g36</title>
				<g id="shape287-3" transform="translate(10.2047,0)">
					<title>path4</title>
					<path d="M25.26 79.47 L11.03 79.47 C12.86 86.16 10.78 88.13 0 88.13 L0 91.61 L36.28 91.61 L36.28 88.13 C25.5
								 88.13 23.42 86.16 25.26 79.47 Z" class="st1"/>
				</g>
				<g id="shape288-5" transform="translate(2.26772,-11.5974)">
					<title>path6</title>
					<path d="M48.72 52.18 L3.09 52.18 C1.38 52.18 0 53.72 0 55.43 L0 88.39 C0 90.09 1.38 91.61 3.09 91.61 L48.72
								 91.61 C50.43 91.61 52.16 90.09 52.16 88.39 L52.16 55.43 C52.16 53.71 50.43 52.18 48.72 52.18 Z"
							class="st2"/>
				</g>
				<g id="shape289-7" transform="translate(2.26772,-11.5963)">
					<title>path8</title>
					<path d="M48.59 52.19 L48.56 52.18 L3.08 52.18 C1.38 52.18 0 53.72 0 55.43 L0 88.39 C0 90.09 1.38 91.61 3.08
								 91.61 L4.27 91.61 L48.59 52.19 Z" class="st3"/>
				</g>
				<g id="shape290-9" transform="translate(6.80315,-16.2348)">
					<title>path10</title>
					<rect x="0" y="61.4598" width="43.0866" height="30.1503" class="st4"/>
				</g>
				<g id="shape291-11" transform="translate(10.2047,-2.84217E-14)">
					<title>path12</title>
					<path d="M0 88.13 L36.28 88.11 L36.28 91.61 L0 91.61 L0 88.13 Z" class="st2"/>
				</g>
				<g id="shape292-13" transform="translate(27.5403,-47.881)">
					<title>path14</title>
					<path d="M1.61 90.79 a0.805039 0.823336 0 1 1 -1.61008 0 a0.805039 0.823336 0 1 1 1.61008 -1.42109E-14 Z"
							class="st5"/>
				</g>
				<g id="shape293-15" transform="translate(17.0079,-19.7137)">
					<title>path16</title>
					<path d="M2.26 91.61 L13.04 91.61 C14.11 91.61 15.12 91.09 15.76 90.22 L16.52 89.18 C17.12 88.36 16.46 87.2 15.46
								 87.34 L0 89.29 L2.26 91.61 Z" class="st6"/>
				</g>
				<g id="shape294-17" transform="translate(22.6772,-29.5705)">
					<title>path18</title>
					<path d="M6.29 91.61 L12.42 91.61 A2.8868 2.95241 -180 0 0 15.31 88.66 L16.44 84.12 A2.8868 2.95241 -180 0 0
								 13.56 81.17 L2.89 81.17 C1.29 81.17 0 81.86 0 84.13 C0 89.87 2.89 91.61 6.29 91.61 Z" class="st7"/>
				</g>
				<g id="shape295-19" transform="translate(1.18488,-29.5705)">
					<title>path20</title>
					<path d="M8.51 91.61 L2.89 91.61 A2.8868 2.95241 0 0 1 0 88.66 L0 84.12 A2.8868 2.95241 0 0 1 2.89 81.17 L11.91
								 81.17 C13.5 81.17 14.79 81.86 14.79 84.12 C14.79 89.87 11.91 91.61 8.51 91.61 Z" class="st4"/>
				</g>
				<g id="shape296-21" transform="translate(1.18488,-29.5705)">
					<title>path22</title>
					<path d="M8.51 91.61 L2.89 91.61 A2.8868 2.95241 0 0 1 0 88.66 L0 84.12 A2.8868 2.95241 0 0 1 2.89 81.17 L11.91
								 81.17 C13.5 81.17 14.79 81.86 14.79 84.12 C14.79 89.87 11.91 91.61 8.51 91.61 Z" class="st7"/>
				</g>
				<g id="shape297-23" transform="translate(1.69965,-28.9907)">
					<title>path24</title>
					<path d="M2.89 91.61 C2.89 91.61 0 90.29 0 88.66 L0 84.12 A2.88794 2.95357 0 0 1 2.89 81.17 L10.77 81.17 L2.89
								 91.61 ZM24.43 91.61 C24.43 91.61 21.54 90.29 21.54 88.66 L21.54 84.12 A2.8868 2.95241 0 0 1 24.43
								 81.17 L32.32 81.17 L24.43 91.61 Z" class="st3"/>
				</g>
				<g id="shape298-25" transform="translate(16.4931,-32.4696)">
					<title>path26</title>
					<path d="M34.37 83.66 C29.99 83.02 25.46 82.33 25.46 82.33 L25.46 85.81 L34.58 86.97 C34.58 86.97 32.69 86.73
								 34.58 86.98 C37.22 87.33 37.93 88.13 37.93 90.45 L37.93 91.61 C39.07 91.61 40.2 89.9 40.2 88.13
								 C40.2 86.36 38.75 84.3 34.37 83.66 ZM5.66 84.65 L0 84.65 L0 91.35 C1.14 88.13 4.55 88.13 5.66 91.35
								 L5.66 84.65 Z" class="st8"/>
				</g>
				<g id="shape299-27" transform="translate(0,-27.8311)">
					<title>path28</title>
					<path d="M35.1 91.61 L28.96 91.61 C23.89 91.61 20.98 88.25 20.98 82.39 C20.98 79.45 22.69 77.69 25.56 77.69 L36.23
								 77.69 C38.76 77.69 40.82 80.12 40.82 82.39 C40.82 86.97 39.69 91.61 35.1 91.61 ZM25.56 81.17 C24.59
								 81.17 24.38 81.39 24.38 82.39 C24.38 87.48 26.83 88.13 28.97 88.13 L35.1 88.13 C37.42 88.13 37.42
								 82.39 37.42 82.39 C37.42 81.72 36.89 81.17 36.23 81.17 L25.56 81.17 ZM9.69 91.61 L4.59 91.61 A4.59213
								 4.69649 0 0 1 0 86.92 L0 82.39 A4.59213 4.69649 0 0 1 4.59 77.69 L13.09 77.69 C15.96 77.69 17.68
								 79.45 17.68 82.39 C17.68 88.25 14.77 91.61 9.69 91.61 ZM4.59 81.17 C3.93 81.17 3.4 81.72 3.4 82.39
								 L3.4 86.92 C3.4 87.59 3.93 88.13 4.59 88.13 L9.69 88.13 C11.83 88.13 14.28 87.48 14.28 82.39 C14.28
								 81.39 14.07 81.17 13.09 81.17 L4.59 81.17 Z" class="st8"/>
				</g>
				<g id="shape300-29" transform="translate(0,-37.1081)">
					<title>path30</title>
					<path d="M39.69 91.61 L40.82 91.61 C43.09 91.61 43.09 89.29 43.09 88.13 A1.13386 1.15963 -180 0 0 41.95 86.97
								 L36.28 86.97 L39.69 91.61 ZM1.75 91.61 L0 91.61 L0 88.13 A1.13386 1.15963 0 0 1 1.13 86.97 L5.15
								 86.97 L1.75 91.61 Z" class="st8"/>
				</g>
				<g id="shape301-31" transform="translate(0,-27.8311)">
					<title>path32</title>
					<path d="M50.86 79.02 C46.48 78.38 41.95 77.69 41.95 77.69 L36.28 77.69 L36.29 77.7 C36.27 77.7 36.25 77.69 36.23
								 77.69 L25.56 77.69 C23.59 77.69 22.18 78.54 21.48 80.01 L17.18 80.01 C16.48 78.54 15.07 77.69 13.09
								 77.69 L1.13 77.69 A1.13386 1.15963 -180 0 0 -0 78.85 L0 82.33 L0 82.33 C0 82.35 0 82.37 0 82.39
								 L0 86.92 A4.59213 4.69649 -180 0 0 4.59 91.61 L9.69 91.61 C13.9 91.61 16.61 89.29 17.42 85.17 C18.53
								 84.02 20.12 84.01 21.23 85.16 C22.04 89.29 24.75 91.61 28.97 91.61 L35.1 91.61 C39.69 91.61 40.82
								 86.97 40.82 82.39 C40.82 82.37 40.81 82.35 40.81 82.33 L40.82 82.33 C41.82 82.33 42.37 81.87 42.68
								 81.27 L50.28 82.23 L51.07 82.34 C53.71 82.69 54.43 83.49 54.43 85.81 L54.43 86.97 C55.56 86.97 56.69
								 85.26 56.69 83.49 C56.69 81.72 55.24 79.66 50.86 79.02 ZM9.69 88.13 L4.59 88.13 A1.18602 1.21297
								 0 0 1 3.4 86.92 L3.4 82.39 C3.4 81.72 3.93 81.17 4.59 81.17 L13.09 81.17 C14.07 81.17 14.28 81.39
								 14.28 82.39 C14.28 87.48 11.83 88.13 9.69 88.13 ZM35.1 88.13 L28.97 88.13 C26.83 88.13 24.38 87.48
								 24.38 82.39 C24.38 81.39 24.59 81.17 25.56 81.17 L36.23 81.17 C36.89 81.17 37.42 81.72 37.42 82.39
								 C37.42 82.39 37.42 88.13 35.1 88.13 ZM50.83 82.3 L51.07 82.33 L50.83 82.3 Z" class="st9"/>
				</g>
				<g id="shape302-33" transform="translate(1.13386,-39.4273)">
					<title>path34</title>
					<path d="M1.13 90.45 L1.13 91.61 L0 91.61 L0 90.45 L1.13 90.45 ZM39.69 90.45 L39.69 91.61 L38.55 91.61 L38.55
								 90.45 L39.69 90.45 Z" class="st10"/>
				</g>
			</g>
		</g>
	</g>
</svg>
