<?xml version="1.0" encoding="UTF-8" standalone="no"?>
<!DOCTYPE svg PUBLIC "-//W3C//DTD SVG 1.1//EN" "http://www.w3.org/Graphics/SVG/1.1/DTD/svg11.dtd">
<!-- Generated by Microsoft Visio, SVG Export Virtual Machine Windows.svg Page-1 -->
<svg xmlns="http://www.w3.org/2000/svg" xmlns:xlink="http://www.w3.org/1999/xlink" xmlns:ev="http://www.w3.org/2001/xml-events"
		width="1.73185in" height="1.65311in" viewBox="0 0 124.693 119.024" xml:space="preserve" color-interpolation-filters="sRGB"
		class="st5">
	<style type="text/css">
	<![CDATA[
		.st1 {fill:url(#grad0-6);stroke:none;stroke-linecap:butt;stroke-width:34}
		.st2 {fill:url(#grad0-10);stroke:none;stroke-linecap:butt;stroke-width:34}
		.st3 {fill:#804998;fill-opacity:0.2;stroke:none;stroke-linecap:butt;stroke-width:14.0489}
		.st4 {fill:#ffffff;fill-opacity:0.8;stroke:none;stroke-linecap:butt;stroke-width:14.0489}
		.st5 {fill:none;fill-rule:evenodd;font-size:12px;overflow:visible;stroke-linecap:square;stroke-miterlimit:3}
	]]>
	</style>

	<defs id="Patterns_And_Gradients">
		<linearGradient id="grad0-6" x1="0" y1="0" x2="1" y2="0" gradientTransform="rotate(-90 0.5 0.5)">
			<stop offset="0" stop-color="#0078d4" stop-opacity="1"/>
			<stop offset="0.82" stop-color="#5ea0ef" stop-opacity="1"/>
		</linearGradient>
		<linearGradient id="grad0-10" x1="0" y1="0" x2="1" y2="0" gradientTransform="rotate(-90 0.5 0.5)">
			<stop offset="0.15" stop-color="#cccccc" stop-opacity="1"/>
			<stop offset="1" stop-color="#707070" stop-opacity="1"/>
		</linearGradient>
	</defs>
	<g>
		<title>Page-1</title>
		<g id="group114-1" transform="translate(34,-34)">
			<title>Virtual Machine Windows</title>
			<g id="group115-2">
				<title>g16</title>
				<g id="shape116-3" transform="translate(0,-14.2056)">
					<title>rect2</title>
					<path d="M0 117.18 A1.88981 1.84094 -180 0 0 1.89 119.02 L54.8 119.02 A1.88981 1.84094 -180 0 0 56.69 117.18
								 L56.69 84.05 A1.88981 1.84094 -180 0 0 54.8 82.21 L1.89 82.21 A1.88981 1.84094 -180 0 0 0 84.05
								 L0 117.18 Z" class="st1"/>
				</g>
				<g id="shape117-7" transform="translate(14.1732,1.42109E-14)">
					<title>path14</title>
					<path d="M25.54 115.96 C19.94 115.1 19.72 111.17 19.72 104.82 L8.6 104.82 C8.6 111.17 8.41 115.1 2.8 115.96 A3.14961
								 3.06817 -180 0 0 0 119.02 L28.35 119.02 A3.14961 3.06817 -180 0 0 25.54 115.96 Z" class="st2"/>
				</g>
				<g id="shape118-11" transform="translate(14.2042,-20.5365)">
					<title>path10</title>
					<path d="M26.59 119.02 L1.07 117.02 C0.47 116.97 0 116.47 0 115.88 L0 96.8 C0 96.22 0.47 95.72 1.07 95.67 C1.07
								 95.67 26.6 93.67 26.6 93.67 C27.34 93.67 27.85 94.18 27.85 94.8 L27.85 117.89 C27.85 118.19 27.73
								 118.48 27.51 118.69 C27.29 118.91 27 119.02 26.69 119.02 L26.59 119.02 Z" class="st3"/>
				</g>
				<g id="shape119-13" transform="translate(28.1308,-34.1029)">
					<title>polygon12</title>
					<path d="M0 119.02 L12.76 119.02 L12.76 108.37 L0 109.37 L0 119.02 Z" class="st4"/>
				</g>
				<g id="shape120-15" transform="translate(15.3703,-34.1029)">
					<title>polygon14</title>
					<path d="M0 119.02 L10.94 119.02 L10.94 109.51 L0 110.37 L0 119.02 Z" class="st4"/>
				</g>
				<g id="shape121-17" transform="translate(28.1308,-21.6737)">
					<title>polygon16</title>
					<path d="M0 108.37 L12.76 108.37 L12.76 119.02 L0 118.02 L0 108.37 Z" class="st4"/>
				</g>
				<g id="shape122-19" transform="translate(15.3703,-22.8172)">
					<title>polygon18</title>
					<path d="M0 109.51 L10.94 109.51 L10.94 119.02 L0 118.17 L0 109.51 Z" class="st4"/>
				</g>
			</g>
		</g>
	</g>
</svg>
