<?xml version="1.0" encoding="UTF-8" standalone="no"?>
<!DOCTYPE svg PUBLIC "-//W3C//DTD SVG 1.1//EN" "http://www.w3.org/Graphics/SVG/1.1/DTD/svg11.dtd">
<!-- Generated by Microsoft Visio, SVG Export Virtual Machine Linux.svg Page-1 -->
<svg xmlns="http://www.w3.org/2000/svg" xmlns:xlink="http://www.w3.org/1999/xlink" xmlns:ev="http://www.w3.org/2001/xml-events"
		width="1.73185in" height="1.65311in" viewBox="0 0 124.693 119.024" xml:space="preserve" color-interpolation-filters="sRGB"
		class="st12">
	<style type="text/css">
	<![CDATA[
		.st1 {fill:url(#grad0-6);stroke:none;stroke-linecap:butt;stroke-width:34}
		.st2 {fill:url(#grad0-10);stroke:none;stroke-linecap:butt;stroke-width:34}
		.st3 {fill:#ffffff;fill-opacity:0.32;stroke:none;stroke-linecap:butt;stroke-width:10.7234}
		.st4 {fill:#fbfbf9;fill-opacity:0.8;stroke:none;stroke-linecap:butt;stroke-width:10.7234}
		.st5 {fill:#ff8c00;fill-opacity:0.8;stroke:none;stroke-linecap:butt;stroke-width:10.7234}
		.st6 {fill:#1e1e1e;fill-opacity:0.8;stroke:none;stroke-linecap:butt;stroke-width:10.7234}
		.st7 {fill:#dda516;fill-opacity:0.8;stroke:none;stroke-linecap:butt;stroke-width:10.7234}
		.st8 {fill:#8c5f07;fill-opacity:0.8;stroke:none;stroke-linecap:butt;stroke-width:10.7234}
		.st9 {fill:#e3a906;fill-opacity:0.8;stroke:none;stroke-linecap:butt;stroke-width:10.7234}
		.st10 {fill:#fcd116;fill-opacity:0.8;stroke:none;stroke-linecap:butt;stroke-width:10.7234}
		.st11 {fill:#ffffff;fill-opacity:0.9;stroke:none;stroke-linecap:butt;stroke-width:10.7234}
		.st12 {fill:none;fill-rule:evenodd;font-size:12px;overflow:visible;stroke-linecap:square;stroke-miterlimit:3}
	]]>
	</style>

	<defs id="Patterns_And_Gradients">
		<linearGradient id="grad0-6" x1="0" y1="0" x2="1" y2="0" gradientTransform="rotate(-90 0.5 0.5)">
			<stop offset="0" stop-color="#0078d4" stop-opacity="1"/>
			<stop offset="0.82" stop-color="#5ea0ef" stop-opacity="1"/>
		</linearGradient>
		<linearGradient id="grad0-10" x1="0" y1="0" x2="1" y2="0" gradientTransform="rotate(-90 0.5 0.5)">
			<stop offset="0.15" stop-color="#cccccc" stop-opacity="1"/>
			<stop offset="1" stop-color="#707070" stop-opacity="1"/>
		</linearGradient>
	</defs>
	<g>
		<title>Page-1</title>
		<g id="group184-1" transform="translate(34,-34)">
			<title>Virtual Machine Linux</title>
			<g id="group185-2">
				<title>g16</title>
				<g id="shape186-3" transform="translate(0,-14.2056)">
					<title>rect2</title>
					<path d="M0 117.18 A1.88981 1.84094 -180 0 0 1.89 119.02 L54.8 119.02 A1.88981 1.84094 -180 0 0 56.69 117.18
								 L56.69 84.05 A1.88981 1.84094 -180 0 0 54.8 82.21 L1.89 82.21 A1.88981 1.84094 -180 0 0 0 84.05
								 L0 117.18 Z" class="st1"/>
				</g>
				<g id="shape187-7" transform="translate(14.1732,1.42109E-14)">
					<title>path14</title>
					<path d="M25.54 115.96 C19.94 115.1 19.72 111.17 19.72 104.82 L8.6 104.82 C8.6 111.17 8.41 115.1 2.8 115.96 A3.14961
								 3.06817 -180 0 0 0 119.02 L28.35 119.02 A3.14961 3.06817 -180 0 0 25.54 115.96 Z" class="st2"/>
				</g>
				<g id="group188-11" transform="translate(17.5264,-20.6308)">
					<title>Layer_3</title>
					<g id="shape189-12" transform="translate(10.8108,-18.293)">
						<title>path10</title>
						<path d="M1.14 118.72 L0.63 119.02 L0.19 118.24 C0.02 117.94 0 117.69 0.11 117.42 C0.21 117.19 0.41 117.06
									 0.67 117.06 L0.73 117.06 C1.01 117.09 1.29 117.37 1.38 117.62 C1.47 117.89 1.47 118.52 1.14
									 118.72 Z" class="st3"/>
					</g>
					<g id="shape190-14" transform="translate(4.49299,-2.33695)">
						<title>path12</title>
						<path d="M2.52 117.78 C2.52 117.75 0 113.82 0.15 113.13 C1.33 107.64 2.74 106.84 3.26 105.68 C3.78 104.52
									 3.48 103.45 4.1 103.44 C4.71 103.43 6.52 103.56 6.97 103.7 C7.41 103.84 8.03 104.28 8.38 105.22
									 C8.85 106.09 9.31 106.96 9.46 107.95 C9.47 108.04 9.51 108.13 9.57 108.19 C10.75 109.45 10.98
									 110.98 10.9 112.6 C10.88 113.01 10.82 113.61 10.77 113.82 C10.71 114.03 9.13 119.02 6.63 118.96
									 C4.14 118.9 2.81 118 2.52 117.78 Z" class="st4"/>
					</g>
					<g id="shape191-16" transform="translate(13.7124,-0.168376)">
						<title>path14-9</title>
						<path d="M6.71 114.45 C5.79 114.4 5.31 113.87 5.31 113.36 C5.3 112.76 5.56 112.01 4.67 111.93 C3.78 111.86
									 1.96 111.76 1.48 111.68 C0.41 111.49 0.36 111.91 0.34 112.21 C0.33 112.35 0.47 113.75 0.33 114.3
									 C0.34 114.54 0.32 114.77 0.28 115.01 C0.18 115.65 0.1 116.29 0.02 116.94 C0.01 117.25 0.01 117.56
									 0 117.87 C0.77 118.98 2.28 119.02 3.21 118.06 C4.08 117.2 5.14 116.6 6.25 116.08 C6.56 115.93
									 6.86 115.7 7.02 115.27 C7.19 114.84 7.03 114.46 6.71 114.45 Z" class="st5"/>
					</g>
					<g id="shape192-18" transform="translate(3.04268,-4.15328)">
						<title>path16</title>
						<path d="M5.24 117.9 C5.11 118.49 4.45 119.02 4.1 118.98 C3.89 118.86 3.31 118.12 3.18 117.93 C2.81 117.38
									 1.15 115.07 0.67 115.24 C0.51 115.26 0.43 115.37 0.34 115.49 C0.31 115.5 0.28 115.51 0.25 115.52
									 C0 115.01 0.02 114.49 0.3 113.99 C0.9 112.91 1.19 111.8 1.5 110.59 C1.6 110.19 1.85 109.85 2.12
									 109.53 C2.6 108.92 2.59 108.32 3.09 107.72 C3.41 107.34 3.69 106.92 3.66 106.43 C3.58 105.04
									 3.39 103.69 3.45 102.29 C3.51 100.93 4.74 99.78 6.11 99.29 C7.54 98.78 8.88 99.03 10.03 100.03
									 C10.93 100.81 11.32 101.84 11.39 103 C11.4 103.21 11.41 103.43 11.4 103.64 C11.3 105.81 12.24
									 107.58 13.66 109.16 C15.03 110.68 15.56 112.49 15.69 114.46 C15.72 114.97 15.55 115.45 15.33
									 115.91 C15.03 116.58 14.61 116.99 14.22 117.16 C13.82 117.34 12.28 117.45 12.58 116.47 C12.73
									 115.98 12.75 115.78 12.14 115.65 C12.18 115.25 12.25 114.84 12.27 114.43 C12.36 112.81 12.07
									 111.54 10.81 110.39 C10.42 110.03 10.78 109.98 10.77 109.66 C10.74 108.79 10.22 107.92 9.75
									 107.06 C9.71 106.9 9.63 106.76 9.52 106.63 C9.56 106.5 9.47 106.4 9.42 106.29 C9.49 106.02 9.61
									 105.75 9.55 105.46 C9.55 105.21 6.9 105.1 6.57 105.23 C6.43 105.18 5.02 105.12 5.02 105.15 C4.83
									 105.29 4.7 105.47 4.64 105.69 C4.58 105.9 4.93 106.33 4.96 106.4 C4.95 106.7 4.93 106.99 4.92
									 107.29 C4.89 107.39 4.86 107.49 4.83 107.6 C4.6 107.94 4.37 108.27 4.15 108.62 C3.96 108.92
									 3.73 109.22 3.7 109.61 C3.55 109.99 4.1 110.51 3.6 110.96 C3.1 111.41 2.6 113.58 2.59 114.1
									 C2.58 114.65 3.61 115.91 4.01 116.27 C4.73 116.94 5.39 117.19 5.24 117.9 Z" class="st6"/>
					</g>
					<g id="shape193-20" transform="translate(7.78003,-1.33153)">
						<title>path18</title>
						<path d="M0 117.15 C1.07 117.44 4.08 117.53 5.54 116.11 C5.78 115.89 6.03 115.67 6.27 115.45 C6.28 115.69
									 6.27 115.93 6.23 116.16 C6.13 116.8 6.05 117.45 5.96 118.09 C5.96 118.4 5.95 118.71 5.95 119.02
									 C4.6 118.66 2.58 118.53 1.97 118.57 C1.37 118.6 0.55 118.74 0.07 118.87 L0 117.15 Z"
								class="st6"/>
					</g>
					<g id="shape194-22" transform="translate(19.0339,-5.67641)">
						<title>path20</title>
						<path d="M0.07 119.02 C0.04 118.99 0.02 118.96 0 118.93 C0.02 118.96 0.04 118.99 0.07 119.02 Z" class="st7"/>
					</g>
					<g id="shape195-24" transform="translate(18.6216,-7.03213)">
						<title>path22</title>
						<path d="M0.09 119.02 C0.06 119 0.03 118.97 0 118.94 C0.03 118.97 0.06 119 0.09 119.02 Z" class="st7"/>
					</g>
					<g id="shape196-26" transform="translate(7.16713,-4.01006)">
						<title>path24</title>
						<path d="M0 118.96 C0.01 118.98 0.03 119 0.04 119.02 C0.03 119 0.01 118.98 0 118.96 Z" class="st8"/>
					</g>
					<g id="shape197-28" transform="translate(18.6216,-7.11148)">
						<title>polygon26</title>
						<path d="M0 119.02 L0 119.02 L0 119.02 L0 119.02 Z" class="st9"/>
					</g>
					<g id="shape198-30">
						<title>path28</title>
						<path d="M6.73 114.32 C5.95 113.53 5.35 112.57 4.8 111.5 C4.51 110.94 3.63 110.49 3.3 111.38 C2.97 112.26
									 2.44 112.62 1.59 112.51 C0.96 112.43 0.37 112.9 0.63 113.67 C0.92 114.5 1.24 115.15 0.62 115.74
									 C0 116.32 0.25 116.92 1.12 117.04 C2 117.15 4.29 117.66 5.62 118.34 C6.94 119.02 8 117.73 8.14
									 117.35 C8.49 116.41 7.51 115.11 6.73 114.32 Z" class="st5"/>
					</g>
					<g id="shape199-32" transform="translate(6.93369,-13.9559)">
						<title>path30</title>
						<path d="M2.75 119.02 C2 119.02 1.51 118.34 1.15 117.74 C1.15 117.74 0 116.16 0.42 115.29 C0.48 115.17 0.58
									 114.97 1.76 114.25 L1.98 114.07 L2.19 113.97 L2.33 113.92 C2.49 113.86 2.68 113.81 2.85 113.81
									 L2.94 113.81 L3.09 113.85 L3.44 113.97 L6.32 115 L6.4 115.42 C6.47 115.76 6.38 116.06 6.31 116.3
									 L6.2 116.71 L5.95 116.8 C5.74 116.87 5.4 117.23 5.12 117.51 C4.85 117.8 4.6 118.06 4.33 118.23
									 C4.24 118.29 4.14 118.37 4.04 118.44 C3.62 118.74 3.24 119.02 2.75 119.02 Z" class="st6"/>
					</g>
					<g id="shape200-34" transform="translate(7.29527,-14.0265)">
						<title>path32</title>
						<path d="M4.31 115.65 C3.8 116.08 3.22 116.45 2.49 116.47 C2.47 116.49 2.47 116.49 2.49 116.47 C2.5 116.31
									 2.49 116.15 2.35 116.04 C2.23 115.94 2.22 115.8 2.25 115.67 C2.39 115.16 2.3 114.65 2.32 114.14
									 C2.19 114.09 1.88 114.21 1.84 114.22 C1.77 114.25 1.71 114.28 1.65 114.31 C1.57 114.37 1.5 114.43
									 1.43 114.48 C1.34 114.54 0.36 115.12 0.26 115.33 C0 115.86 0.85 117.17 0.97 117.33 C1.97 119.02
									 2.52 118.29 3.45 117.65 C3.95 117.34 4.6 116.37 5.17 116.17 C5.24 115.9 5.36 115.63 5.3 115.34
									 C4.95 115.36 4.63 115.38 4.31 115.65 Z" class="st5"/>
					</g>
					<g id="shape201-36" transform="translate(9.2075,-18.9007)">
						<title>path34</title>
						<path d="M0 119.02 C0 119.02 0 119.02 0.01 119.02 C0.01 119.02 0.01 119.02 0 119.01 L0 119.02 Z"
								class="st9"/>
					</g>
					<g id="shape202-38" transform="translate(9.06346,-16.0664)">
						<title>path36</title>
						<path d="M3.13 117 C3.34 117.1 3.54 117.22 3.54 117.5 C3.14 117.52 2.8 117.55 2.45 117.84 C1.89 118.31 1.14
									 119 0.34 119.02 C0.37 118.77 0 118.41 0.1 117.97 C0.23 117.41 0.25 116.74 0.28 116.18 C0.64
									 116.04 0.97 116.17 1.31 116.27 C1.46 116.36 1.6 116.44 1.74 116.52 C1.99 116.62 2.23 116.71
									 2.48 116.8 C2.68 116.93 2.91 116.95 3.13 117 Z" class="st10"/>
					</g>
				</g>
				<g id="shape203-40" transform="translate(25.7972,-39.4966)">
					<title>rect39</title>
					<rect x="0" y="118.056" width="0.993365" height="0.96768" class="st11"/>
				</g>
				<g id="shape204-42" transform="translate(28.7773,-39.4966)">
					<title>rect41</title>
					<rect x="0" y="118.056" width="0.993365" height="0.96768" class="st11"/>
				</g>
			</g>
		</g>
	</g>
</svg>
