<?xml version="1.0" encoding="UTF-8" standalone="no"?>
<!DOCTYPE svg PUBLIC "-//W3C//DTD SVG 1.1//EN" "http://www.w3.org/Graphics/SVG/1.1/DTD/svg11.dtd">
<!-- Generated by Microsoft Visio, SVG Export Virtual Network Peering.svg Page-1 -->
<svg xmlns="http://www.w3.org/2000/svg" xmlns:xlink="http://www.w3.org/1999/xlink" xmlns:ev="http://www.w3.org/2001/xml-events"
		width="1.12236in" height="1.19166in" viewBox="0 0 80.8097 85.7995" xml:space="preserve" color-interpolation-filters="sRGB"
		class="st4">
	<style type="text/css">
	<![CDATA[
		.st1 {fill:#000000;stroke:none;stroke-linecap:butt;stroke-width:12.24}
		.st2 {fill:#3999c6;stroke:none;stroke-linecap:butt;stroke-width:12.24}
		.st3 {fill:#57a300;stroke:none;stroke-linecap:butt;stroke-width:12.24}
		.st4 {fill:none;fill-rule:evenodd;font-size:12px;overflow:visible;stroke-linecap:square;stroke-miterlimit:3}
	]]>
	</style>

	<g>
		<title>Page-1</title>
		<g id="group78-1" transform="translate(12.0584,-28.3465)">
			<title>Virtual Network Peering</title>
			<g id="group79-2" transform="translate(23.7694,-2.13163E-13)">
				<title>g18</title>
				<g id="shape80-3">
					<title>path4</title>
					<path d="M5.45 73.93 L11.03 73.93 C13.05 73.93 14.19 74.85 15.08 76.67 L5.45 76.67 C3.93 76.67 2.91 78.47 2.91
								 79.99 C2.91 81.52 4.06 83.06 5.45 83.06 L15.08 83.06 C14.19 84.89 13.05 85.8 11.03 85.8 L5.45 85.8
								 C2.41 85.8 0 82.92 0 79.87 C0 76.81 2.54 73.93 5.45 73.93 ZM27.38 76.67 L17.74 76.67 C18.63 74.85
								 19.77 73.93 21.8 73.93 L27.37 73.93 C30.42 73.93 32.7 76.94 32.7 79.99 C32.7 83.05 30.29 85.8 27.38
								 85.8 L21.8 85.8 C19.77 85.8 18.63 84.89 17.74 83.06 L27.38 83.06 C28.9 83.06 29.91 81.27 29.91 80
								 C29.91 78.47 29.02 76.67 27.38 76.67 Z" class="st1"/>
				</g>
				<g id="shape81-5" transform="translate(7.22385,-4.56313)">
					<title>path6</title>
					<path d="M16.1 85.8 L2.41 85.8 C1.65 85.8 0 85.19 0 84.43 C0 83.67 1.65 83.06 2.41 83.06 L16.1 83.06 C16.86 83.06
								 19.01 83.41 19.01 84.18 C19.01 85.19 16.86 85.8 16.1 85.8 Z" class="st1"/>
				</g>
			</g>
			<g id="shape82-7" transform="translate(0,-12.5749)">
				<title>path10</title>
				<path d="M56.13 70.2 C56.69 69.64 56.58 68.73 56.13 68.17 L53.43 65.45 L41.28 53.59 C40.72 53.02 39.93 53.02 39.37
							 53.59 C38.81 54.15 38.7 55.05 39.37 55.62 L52.08 68.17 C52.64 68.73 52.64 69.64 52.08 70.2 L39.15 83.2
							 C38.58 83.76 38.58 84.67 39.15 85.23 C39.71 85.8 40.61 85.69 41.06 85.23 L53.09 73.25 L53.21 73.14 L56.13
							 70.2 ZM0.56 70.2 C0 69.64 0.11 68.73 0.56 68.17 L3.26 65.45 L15.41 53.59 C15.97 53.02 16.76 53.02 17.32
							 53.59 C17.89 54.15 18 55.05 17.32 55.62 L4.84 68.17 C4.27 68.73 4.27 69.64 4.84 70.2 L17.55 83.2 C18.11
							 83.76 18.11 84.67 17.55 85.23 C16.99 85.8 16.09 85.69 15.64 85.23 L3.37 73.37 L3.26 73.25 L0.56 70.2
							 Z" class="st2"/>
			</g>
			<g id="shape83-9" transform="translate(36.108,-25.4606)">
				<title>circle12</title>
				<ellipse cx="3.71204" cy="82.0694" rx="3.71204" ry="3.73008" class="st3"/>
			</g>
			<g id="shape84-11" transform="translate(24.5219,-25.4606)">
				<title>circle14</title>
				<ellipse cx="3.71204" cy="82.0694" rx="3.71204" ry="3.73008" class="st3"/>
			</g>
			<g id="shape85-13" transform="translate(13.1609,-25.4606)">
				<title>circle16</title>
				<ellipse cx="3.71204" cy="82.0694" rx="3.71204" ry="3.73008" class="st3"/>
			</g>
		</g>
	</g>
</svg>
