<?xml version="1.0" encoding="UTF-8" standalone="no"?>
<!DOCTYPE svg PUBLIC "-//W3C//DTD SVG 1.1//EN" "http://www.w3.org/Graphics/SVG/1.1/DTD/svg11.dtd">
<!-- Generated by Microsoft Visio, SVG Export Virtual Cluster.svg Page-1 -->
<svg xmlns="http://www.w3.org/2000/svg" xmlns:xlink="http://www.w3.org/1999/xlink" xmlns:ev="http://www.w3.org/2001/xml-events"
		width="1.73185in" height="1.6926in" viewBox="0 0 124.693 121.867" xml:space="preserve" color-interpolation-filters="sRGB"
		class="st6">
	<style type="text/css">
	<![CDATA[
		.st1 {fill:#949494;stroke:none;stroke-linecap:butt;stroke-width:34}
		.st2 {fill:#003067;stroke:none;stroke-linecap:butt;stroke-width:34}
		.st3 {fill:#50e6ff;stroke:none;stroke-linecap:butt;stroke-width:34}
		.st4 {fill:url(#grad0-22);stroke:none;stroke-linecap:butt;stroke-width:34}
		.st5 {fill:url(#grad0-32);stroke:none;stroke-linecap:butt;stroke-width:34}
		.st6 {fill:none;fill-rule:evenodd;font-size:12px;overflow:visible;stroke-linecap:square;stroke-miterlimit:3}
	]]>
	</style>

	<defs id="Patterns_And_Gradients">
		<linearGradient id="grad0-22" x1="0" y1="0" x2="1" y2="0" gradientTransform="rotate(90 0.5 0.5)">
			<stop offset="0" stop-color="#b3b2b3" stop-opacity="1"/>
			<stop offset="0.38" stop-color="#afaeaf" stop-opacity="1"/>
			<stop offset="0.76" stop-color="#a2a2a2" stop-opacity="1"/>
			<stop offset="1" stop-color="#979797" stop-opacity="1"/>
		</linearGradient>
		<linearGradient id="grad0-32" x1="0" y1="0" x2="1" y2="0" gradientTransform="rotate(-90 0.5 0.5)">
			<stop offset="0" stop-color="#0078d4" stop-opacity="1"/>
			<stop offset="0.16" stop-color="#1380da" stop-opacity="1"/>
			<stop offset="0.53" stop-color="#3c91e5" stop-opacity="1"/>
			<stop offset="0.82" stop-color="#559cec" stop-opacity="1"/>
			<stop offset="1" stop-color="#5ea0ef" stop-opacity="1"/>
		</linearGradient>
	</defs>
	<g>
		<title>Page-1</title>
		<g id="group270-1" transform="translate(34,-34.0043)">
			<title>Virtual Cluster</title>
			<g id="group271-2">
				<title>Icon-databases-127</title>
				<g id="shape272-3" transform="translate(-2.81775E-13,-20.2873)">
					<title>Sheet.272</title>
					<path d="M24.24 120.75 A1.3006 1.28234 0 0 1 22.84 121.87 L1.4 121.87 A1.3006 1.28234 0 0 1 0 120.75 L0 89.58
								 A1.3006 1.28234 0 0 1 1.4 88.46 L22.84 88.46 A1.3006 1.28234 0 0 1 24.24 89.58 L24.24 120.75 Z"
							class="st1"/>
				</g>
				<g id="shape273-5" transform="translate(3.56832,-36.7933)">
					<title>Sheet.273</title>
					<path d="M0 119.24 A2.63455 2.59756 0 0 1 2.63 116.64 L14.77 116.64 A2.63455 2.59756 0 0 1 17.41 119.24 A2.63455
								 2.59756 0 0 1 14.77 121.87 L2.63 121.87 A2.63455 2.59756 0 0 1 0 119.27 L0 119.24 ZM0 111.54 A2.63455
								 2.59756 0 0 1 2.63 108.91 L14.77 108.91 A2.63455 2.59756 0 0 1 17.41 111.54 A2.63455 2.59756 0 0
								 1 14.77 114.14 L2.63 114.14 A2.63455 2.59756 0 0 1 -0 111.54 Z" class="st2"/>
				</g>
				<g id="shape274-7" transform="translate(4.53543,-45.3751)">
					<title>Sheet.274</title>
					<ellipse cx="1.76748" cy="120.124" rx="1.76748" ry="1.74267" class="st3"/>
				</g>
				<g id="shape275-9" transform="translate(4.53543,-37.6811)">
					<title>Sheet.275</title>
					<ellipse cx="1.76748" cy="120.124" rx="1.76748" ry="1.74267" class="st3"/>
				</g>
				<g id="shape276-11" transform="translate(26.7457,-20.4188)">
					<title>Sheet.276</title>
					<path d="M24.24 120.72 A1.3006 1.28234 0 0 1 22.84 121.87 L1.4 121.87 A1.3006 1.28234 0 0 1 0 120.72 L0 89.58
								 A1.3006 1.28234 0 0 1 1.4 88.43 L22.84 88.43 A1.3006 1.28234 0 0 1 24.24 89.58 L24.24 120.72 Z"
							class="st1"/>
				</g>
				<g id="shape277-13" transform="translate(30.314,-36.7933)">
					<title>Sheet.277</title>
					<path d="M0 119.1 A2.63455 2.59756 0 0 1 2.63 116.51 L14.71 116.51 A2.63455 2.59756 0 0 1 17.34 119.1 A2.63455
								 2.59756 0 0 1 14.71 121.87 L2.63 121.87 A2.63455 2.59756 0 0 1 0 119.27 L0 119.1 ZM0 111.38 A2.63455
								 2.59756 0 0 1 2.63 108.71 L14.71 108.71 A2.6679 2.63044 0 0 1 17.34 111.31 A2.63455 2.59756 0 0
								 1 14.71 113.98 L2.63 113.98 A2.63455 2.59756 0 0 1 -0 111.38 Z" class="st2"/>
				</g>
				<g id="shape278-15" transform="translate(31.2811,-45.5395)">
					<title>Sheet.278</title>
					<ellipse cx="1.76748" cy="120.124" rx="1.76748" ry="1.74267" class="st3"/>
				</g>
				<g id="shape279-17" transform="translate(31.2811,-37.8126)">
					<title>Sheet.279</title>
					<ellipse cx="1.76748" cy="120.124" rx="1.76748" ry="1.74267" class="st3"/>
				</g>
				<g id="shape280-19" transform="translate(4.06855,0)">
					<title>Sheet.280</title>
					<path d="M24.28 120.72 A1.3006 1.28234 0 0 1 22.88 121.87 L1.4 121.87 A1.3006 1.28234 0 0 1 -0 120.72 L0 89.58
								 A1.3006 1.28234 0 0 1 1.4 88.36 L22.84 88.36 A1.3006 1.28234 0 0 1 24.28 89.58 L24.28 120.72 Z"
							class="st4"/>
				</g>
				<g id="shape281-23" transform="translate(7.63687,-16.5389)">
					<title>Sheet.281</title>
					<path d="M0 119.27 A2.63455 2.59756 0 0 1 2.63 116.67 L14.71 116.67 A2.63455 2.59756 0 0 1 17.34 119.27 L17.37
								 119.27 A2.6679 2.63044 0 0 1 14.74 121.87 L2.63 121.87 A2.63455 2.59756 0 0 1 0 119.27 ZM0 111.48
								 A2.63455 2.59756 0 0 1 2.63 108.88 L14.71 108.88 A2.63455 2.59756 0 0 1 17.37 111.48 A2.6679 2.63044
								 0 0 1 14.74 114.07 L2.63 114.07 A2.63455 2.59756 0 0 1 0 111.48 Z" class="st2"/>
				</g>
				<g id="shape282-25" transform="translate(8.60398,-25.1207)">
					<title>Sheet.282</title>
					<ellipse cx="1.76748" cy="120.124" rx="1.76748" ry="1.74267" class="st3"/>
				</g>
				<g id="shape283-27" transform="translate(8.60398,-17.3938)">
					<title>Sheet.283</title>
					<ellipse cx="1.76748" cy="120.124" rx="1.76748" ry="1.74267" class="st3"/>
				</g>
				<g id="shape284-29" transform="translate(15.5405,-4.74435)">
					<title>Sheet.284</title>
					<path d="M41.15 112.83 A9.23761 9.1079 -180 0 0 33.12 104.09 A11.6387 11.4753 -180 0 0 21.14 93.11 A11.9389 11.7712
								 -180 0 0 9.7 100.77 A11.0384 10.8834 -180 0 0 -0 111.22 A11.2385 11.0807 -180 0 0 11.61 121.84 L31.38
								 121.84 A1.33395 1.31522 -180 0 0 31.88 121.84 A9.33766 9.20654 -180 0 0 41.15 112.83 Z"
							class="st5"/>
				</g>
			</g>
		</g>
	</g>
</svg>
