<?xml version="1.0" encoding="UTF-8" standalone="no"?>
<!DOCTYPE svg PUBLIC "-//W3C//DTD SVG 1.1//EN" "http://www.w3.org/Graphics/SVG/1.1/DTD/svg11.dtd">
<!-- Generated by Microsoft Visio, SVG Export Virtual Machine Availability Set.svg Page-1 -->
<svg xmlns="http://www.w3.org/2000/svg" xmlns:xlink="http://www.w3.org/1999/xlink" xmlns:ev="http://www.w3.org/2001/xml-events"
		width="1.73185in" height="1.73185in" viewBox="0 0 124.693 124.693" xml:space="preserve" color-interpolation-filters="sRGB"
		class="st7">
	<style type="text/css">
	<![CDATA[
		.st1 {fill:#0078d4;stroke:none;stroke-linecap:butt;stroke-width:34}
		.st2 {fill:#50e6ff;stroke:none;stroke-linecap:butt;stroke-width:34}
		.st3 {fill:#c3f1ff;stroke:none;stroke-linecap:butt;stroke-width:34}
		.st4 {fill:#9cebff;stroke:none;stroke-linecap:butt;stroke-width:34}
		.st5 {fill:url(#grad0-16);stroke:none;stroke-linecap:butt;stroke-width:34}
		.st6 {fill:url(#grad0-30);stroke:none;stroke-linecap:butt;stroke-width:34}
		.st7 {fill:none;fill-rule:evenodd;font-size:12px;overflow:visible;stroke-linecap:square;stroke-miterlimit:3}
	]]>
	</style>

	<defs id="Patterns_And_Gradients">
		<linearGradient id="grad0-16" x1="0" y1="0" x2="1" y2="0" gradientTransform="rotate(-90 0.5 0.5)">
			<stop offset="0" stop-color="#0078d4" stop-opacity="1"/>
			<stop offset="0.82" stop-color="#5ea0ef" stop-opacity="1"/>
		</linearGradient>
		<linearGradient id="grad0-30" x1="0" y1="0" x2="1" y2="0" gradientTransform="rotate(-90 0.5 0.5)">
			<stop offset="0.15" stop-color="#cccccc" stop-opacity="1"/>
			<stop offset="1" stop-color="#707070" stop-opacity="1"/>
		</linearGradient>
	</defs>
	<g>
		<title>Page-1</title>
		<g id="group245-1" transform="translate(34,-34)">
			<title>Virtual Machine Availability Set</title>
			<g id="group246-2">
				<title>Icon-compute-25</title>
				<g id="shape247-3">
					<title>Sheet.247</title>
					<path d="M5.4 68 L11.97 68 L11.97 69.9 L5.4 69.9 L5.4 68 ZM53.79 69.9 L54.86 69.9 L54.86 70.93 L56.69 70.93 L56.69
								 68 L53.79 68 L53.79 69.9 ZM3.03 122.66 L2.1 122.66 L2.1 121.59 L0 121.59 L0 124.69 L3.03 124.69
								 L3.03 122.66 ZM54.86 121.69 L54.86 122.66 L53.79 122.66 L53.79 124.69 L56.69 124.69 L56.69 121.69
								 L54.86 121.69 ZM2.1 70.87 L2.1 69.9 L3.03 69.9 L3.03 68 L0 68 L0 70.87 L2.1 70.87 Z" class="st1"/>
				</g>
				<g id="shape248-5" transform="translate(9.5711,-26.9125)">
					<title>Sheet.248</title>
					<path d="M-0 123.73 a0.967137 0.967137 -180 0 0 0.967114 0.967114 L28.35 124.69 a0.967137 0.967137 -180 0 0 0.967114
								 -0.967114 L29.31 106.05 a0.967137 0.967137 -180 0 0 -0.967114 -0.967114 L0.97 105.08 a0.967137 0.967137
								 -180 0 0 -0.967114 0.967114 L0 123.73 Z" class="st1"/>
				</g>
				<g id="shape249-7" transform="translate(24.2446,-30.981)">
					<title>Sheet.249</title>
					<path d="M4.87 116.12 L4.87 121.82 L0 124.69 L0 118.96 L4.87 116.12 Z" class="st2"/>
				</g>
				<g id="shape250-9" transform="translate(19.3423,-36.6836)">
					<title>Sheet.250</title>
					<path d="M9.77 121.82 L4.9 124.69 L0 121.82 L4.9 118.96 L9.77 121.82 Z" class="st3"/>
				</g>
				<g id="shape251-11" transform="translate(19.3423,-30.981)">
					<title>Sheet.251</title>
					<path d="M4.9 118.99 L4.9 124.69 L0 121.82 L0 116.12 L4.9 118.99 Z" class="st4"/>
				</g>
				<g id="shape252-13" transform="translate(18.0417,-15.9741)">
					<title>Sheet.252</title>
					<path d="M-0 123.73 a0.967137 0.967137 -180 0 0 0.967114 0.967114 L28.35 124.69 a0.967137 0.967137 -180 0 0 0.967114
								 -0.967114 L29.31 106.05 a0.967137 0.967137 -180 0 0 -0.967114 -0.967114 L0.97 105.08 a0.967137 0.967137
								 -180 0 0 -0.967114 0.967114 L0 123.73 Z" class="st5"/>
				</g>
				<g id="shape253-17" transform="translate(32.7151,-20.076)">
					<title>Sheet.253</title>
					<path d="M4.87 116.12 L4.87 121.82 L0 124.69 L0 118.99 L4.87 116.12 Z" class="st2"/>
				</g>
				<g id="shape254-19" transform="translate(27.8129,-25.7786)">
					<title>Sheet.254</title>
					<path d="M9.77 121.82 L4.9 124.69 L0 121.82 L4.9 118.96 L9.77 121.82 Z" class="st3"/>
				</g>
				<g id="shape255-21" transform="translate(27.8129,-20.076)">
					<title>Sheet.255</title>
					<path d="M4.9 118.99 L4.9 124.69 L0 121.82 L0 116.12 L4.9 118.99 Z" class="st4"/>
				</g>
				<g id="shape256-23" transform="translate(27.8129,-20.076)">
					<title>Sheet.256</title>
					<path d="M0 121.82 L4.9 118.99 L4.9 124.69 L0 121.82 Z" class="st3"/>
				</g>
				<g id="shape257-25" transform="translate(32.7151,-20.076)">
					<title>Sheet.257</title>
					<path d="M4.87 121.82 L0 118.99 L0 124.69 L4.87 121.82 Z" class="st4"/>
				</g>
				<g id="shape258-27" transform="translate(25.3784,-8.43724)">
					<title>Sheet.258</title>
					<path d="M13.21 123.06 C10.3 122.59 10.2 120.49 10.2 117.12 L4.44 117.12 C4.44 120.46 4.44 122.59 1.43 123.06
								 A1.70079 1.70079 -180 0 0 -0 124.69 L14.67 124.69 A1.70079 1.70079 -180 0 0 13.21 123.06 Z"
							class="st6"/>
				</g>
				<g id="shape259-31" transform="translate(0,-0.133395)">
					<title>Sheet.259</title>
					<path d="M15.24 68.13 L21.81 68.13 L21.81 70.03 L15.24 70.03 L15.24 68.13 ZM25.04 68.13 L31.61 68.13 L31.61 70.03
								 L25.04 70.03 L25.04 68.13 ZM34.88 68.13 L41.45 68.13 L41.45 70.03 L34.88 70.03 L34.88 68.13 ZM44.72
								 68.13 L51.29 68.13 L51.29 70.03 L44.72 70.03 L44.72 68.13 ZM5.47 122.79 L12.04 122.79 L12.04 124.69
								 L5.47 124.69 L5.47 122.79 ZM15.27 122.79 L21.84 122.79 L21.84 124.69 L15.27 124.69 L15.27 122.79
								 ZM25.11 122.79 L31.68 122.79 L31.68 124.69 L25.11 124.69 L25.11 122.79 ZM34.95 122.79 L41.52 122.79
								 L41.52 124.69 L34.95 124.69 L34.95 122.79 ZM44.75 122.79 L51.32 122.79 L51.32 124.69 L44.75 124.69
								 L44.75 122.79 ZM54.79 73.3 L56.69 73.3 L56.69 79.87 L54.79 79.87 L54.79 73.3 ZM54.79 83.11 L56.69
								 83.11 L56.69 89.68 L54.79 89.68 L54.79 83.11 ZM54.79 92.94 L56.69 92.94 L56.69 99.51 L54.79 99.51
								 L54.79 92.94 ZM54.79 102.75 L56.69 102.75 L56.69 109.32 L54.79 109.32 L54.79 102.75 ZM54.79 112.59
								 L56.69 112.59 L56.69 119.16 L54.79 119.16 L54.79 112.59 ZM0 73.24 L1.9 73.24 L1.9 79.81 L0 79.81
								 L0 73.24 ZM0 83.07 L1.9 83.07 L1.9 89.64 L0 89.64 L0 83.07 ZM0 92.88 L1.9 92.88 L1.9 99.45 L0 99.45
								 L0 92.88 ZM0 102.72 L1.9 102.72 L1.9 109.29 L0 109.29 L0 102.72 ZM0 112.52 L1.9 112.52 L1.9 119.09
								 L0 119.09 L0 112.52 Z" class="st1"/>
				</g>
			</g>
		</g>
	</g>
</svg>
