<?xml version="1.0" encoding="UTF-8" standalone="no"?>
<!DOCTYPE svg PUBLIC "-//W3C//DTD SVG 1.1//EN" "http://www.w3.org/Graphics/SVG/1.1/DTD/svg11.dtd">
<!-- Generated by Microsoft Visio, SVG Export Virtual Network Gateway.svg Page-1 -->
<svg xmlns="http://www.w3.org/2000/svg" xmlns:xlink="http://www.w3.org/1999/xlink" xmlns:ev="http://www.w3.org/2001/xml-events"
		width="1.535in" height="1.73187in" viewBox="0 0 110.52 124.694" xml:space="preserve" color-interpolation-filters="sRGB"
		class="st5">
	<style type="text/css">
	<![CDATA[
		.st1 {fill:url(#grad0-6);stroke:none;stroke-linecap:butt;stroke-width:34}
		.st2 {fill:#50e6ff;stroke:none;stroke-linecap:butt;stroke-width:34}
		.st3 {fill:#ffffff;fill-opacity:0.2;stroke:none;stroke-linecap:butt;stroke-width:34}
		.st4 {fill:#ffffff;stroke:none;stroke-linecap:butt;stroke-width:34}
		.st5 {fill:none;fill-rule:evenodd;font-size:12px;overflow:visible;stroke-linecap:square;stroke-miterlimit:3}
	]]>
	</style>

	<defs id="Patterns_And_Gradients">
		<linearGradient id="grad0-6" x1="0" y1="0" x2="1" y2="0" gradientTransform="rotate(88.546233687646 0.5 0.5)">
			<stop offset="0.22" stop-color="#32d4f5" stop-opacity="1"/>
			<stop offset="0.47" stop-color="#31d1f3" stop-opacity="1"/>
			<stop offset="0.63" stop-color="#2ec9eb" stop-opacity="1"/>
			<stop offset="0.77" stop-color="#29bade" stop-opacity="1"/>
			<stop offset="0.89" stop-color="#22a5cb" stop-opacity="1"/>
			<stop offset="1" stop-color="#198ab3" stop-opacity="1"/>
			<stop offset="1" stop-color="#198ab3" stop-opacity="1"/>
		</linearGradient>
	</defs>
	<g>
		<title>Page-1</title>
		<g id="group86-1" transform="translate(34,-34)">
			<title>Virtual Network Gateway</title>
			<g id="group87-2">
				<title>Icon-networking-63</title>
				<g id="shape88-3">
					<title>Sheet.88</title>
					<path d="M40.26 95.23 L37.13 95.23 L37.13 85.56 A18.2182 18.2485 -180 0 0 32.45 73.25 A15.0199 15.0448 -180 0
								 0 20.98 68 A15.0199 15.0448 -180 0 0 9.38 73.25 A17.9674 17.9973 -180 0 0 4.7 85.56 L4.7 95.23 L2.16
								 95.23 A2.19497 2.19862 -180 0 0 0 97.4 L0 122.53 A2.19497 2.19862 -180 0 0 2.16 124.69 L40.26 124.69
								 A2.22633 2.23003 -180 0 0 42.46 122.53 L42.46 97.4 A2.22633 2.23003 -180 0 0 40.26 95.23 ZM29.69
								 95.23 L12.26 95.23 L12.26 85.4 A9.97143 9.988 0 0 1 14.99 78.65 A7.87053 7.88361 0 0 1 20.88 75.95
								 A7.9646 7.97784 0 0 1 26.81 78.65 A10.0028 10.0194 0 0 1 27.81 80 A9.40701 9.42264 0 0 1 29.73 85.37
								 L29.69 95.23 Z" class="st1"/>
				</g>
				<g id="shape89-7" transform="translate(0.815274,-0.659585)">
					<title>Sheet.89</title>
					<path d="M39.54 95.89 L1.38 95.89 A2.06954 2.07298 -180 0 0 0 96.43 L40.92 124.69 A2.1009 2.10439 -180 0 0 41.7
								 123.06 L41.7 97.93 A2.22633 2.23003 -180 0 0 39.54 95.89 Z" class="st2"/>
				</g>
				<g id="shape90-9" transform="translate(0.0627134,-0.659585)">
					<title>Sheet.90</title>
					<path d="M2.19 95.89 L40.32 95.89 A2.19497 2.19862 0 0 1 41.74 96.43 L0.78 124.69 A2.19497 2.19862 0 0 1 -0 123.06
								 L0 97.93 A2.25768 2.26143 0 0 1 2.19 95.89 Z" class="st3"/>
				</g>
				<g id="shape91-11" transform="translate(5.39335,-2.38608)">
					<title>Sheet.91</title>
					<path d="M12.1 103.68 L15.87 99.91 a0.219497 0.219862 0 0 1 0.28221 -1.27898E-13 L19.88 103.68 a0.18814 0.188453
								 0 0 1 6.75016E-14 0.314088 L17.69 103.99 a0.18814 0.188453 -180 0 0 -0.18814 0.188453 L17.5 109.02
								 a0.18814 0.188453 0 0 1 -0.18814 0.188453 L14.83 109.21 a0.156783 0.157044 0 0 1 -0.18814 -0.188453
								 L14.64 104.18 a0.219497 0.219862 -180 0 0 -0.219497 -0.188453 L12.23 103.99 a0.18814 0.188453 0
								 0 1 -0.125427 -0.314088 ZM19.85 120.89 L16.12 124.63 a0.18814 0.188453 0 0 1 -0.28221 1.42109E-14
								 L12.1 120.89 a0.18814 0.188453 0 0 1 -3.37508E-14 -0.314088 L14.3 120.58 a0.219497 0.219862 -180
								 0 0 0.219497 -0.188453 L14.52 115.52 a0.18814 0.188453 0 0 1 0.18814 -0.188453 L17.03 115.33 a0.18814
								 0.188453 0 0 1 0.18814 0.188453 L17.21 120.39 a0.18814 0.188453 -180 0 0 0.18814 0.188453 L19.6
								 120.58 a0.200781 0.201115 0 0 1 0.250854 0.314088 ZM5.11 116.02 L5.11 113.83 a0.18814 0.188453 -180
								 0 0 -0.18814 -0.188453 L0.19 113.64 a0.18814 0.188453 0 0 1 -0.18814 -0.188453 L0 111.22 a0.18814
								 0.188453 0 0 1 0.18814 -0.282679 L4.92 110.94 a0.18814 0.188453 -180 0 0 0.18814 -0.188453 L5.11
								 108.55 a0.219497 0.219862 0 0 1 0.344924 -0.157044 L9.19 112.16 a0.18814 0.188453 0 0 1 -2.66454E-14
								 0.251271 L5.46 116.18 a0.219497 0.219862 0 0 1 -0.344924 -0.157044 ZM26.84 108.55 L26.84 110.75
								 a0.18814 0.188453 -180 0 0 0.18814 0.188453 L31.86 110.94 C31.86 110.94 32.08 110.94 32.08 111.12
								 L32.08 113.45 a0.219497 0.219862 0 0 1 -0.219497 0.188453 L27.03 113.64 a0.18814 0.188453 -180 0
								 0 -0.18814 0.188453 L26.84 116.02 a0.18814 0.188453 0 0 1 -0.313567 0.157044 L22.8 112.41 L22.8
								 112.16 L26.53 108.39 C26.53 108.39 26.84 108.36 26.84 108.55 Z" class="st4"/>
				</g>
			</g>
		</g>
	</g>
</svg>
