<?xml version="1.0" encoding="UTF-8" standalone="no"?>
<!DOCTYPE svg PUBLIC "-//W3C//DTD SVG 1.1//EN" "http://www.w3.org/Graphics/SVG/1.1/DTD/svg11.dtd">
<!-- Generated by Microsoft Visio, SVG Export Virtual Machine Scale Set.svg Page-1 -->
<svg xmlns="http://www.w3.org/2000/svg" xmlns:xlink="http://www.w3.org/1999/xlink" xmlns:ev="http://www.w3.org/2001/xml-events"
		width="1.7116in" height="1.7116in" viewBox="0 0 123.235 123.235" xml:space="preserve" color-interpolation-filters="sRGB"
		class="st8">
	<style type="text/css">
	<![CDATA[
		.st1 {fill:#005ba1;stroke:none;stroke-linecap:butt;stroke-width:33.271}
		.st2 {fill:#50e6ff;stroke:none;stroke-linecap:butt;stroke-width:33.271}
		.st3 {fill:#c3f1ff;stroke:none;stroke-linecap:butt;stroke-width:33.271}
		.st4 {fill:#9cebff;stroke:none;stroke-linecap:butt;stroke-width:33.271}
		.st5 {fill:#0078d4;stroke:none;stroke-linecap:butt;stroke-width:33.271}
		.st6 {fill:url(#grad0-22);stroke:none;stroke-linecap:butt;stroke-width:33.271}
		.st7 {fill:url(#grad0-36);stroke:none;stroke-linecap:butt;stroke-width:33.271}
		.st8 {fill:none;fill-rule:evenodd;font-size:12px;overflow:visible;stroke-linecap:square;stroke-miterlimit:3}
	]]>
	</style>

	<defs id="Patterns_And_Gradients">
		<linearGradient id="grad0-22" x1="0" y1="0" x2="1" y2="0" gradientTransform="rotate(-90 0.5 0.5)">
			<stop offset="0" stop-color="#0078d4" stop-opacity="1"/>
			<stop offset="0.82" stop-color="#5ea0ef" stop-opacity="1"/>
		</linearGradient>
		<linearGradient id="grad0-36" x1="0" y1="0" x2="1" y2="0" gradientTransform="rotate(-90 0.5 0.5)">
			<stop offset="0.15" stop-color="#cccccc" stop-opacity="1"/>
			<stop offset="1" stop-color="#707070" stop-opacity="1"/>
		</linearGradient>
	</defs>
	<g>
		<title>Page-1</title>
		<g id="group128-1" transform="translate(33.271,-33.271)">
			<title>Virtual Machine Scale Set</title>
			<g id="group129-2">
				<title>layer1</title>
				<g id="shape130-3" transform="translate(0,-34.1825)">
					<title>rect16</title>
					<path d="M0 122.1 A1.13388 1.13388 -180 0 0 1.13 123.23 L32.58 123.23 A1.13388 1.13388 -180 0 0 33.72 122.1 L33.72
								 101.86 A1.13388 1.13388 -180 0 0 32.58 100.72 L1.13 100.72 A1.13388 1.13388 -180 0 0 -0 101.86 L0
								 122.1 Z" class="st1"/>
				</g>
				<g id="shape131-5" transform="translate(16.8745,-38.8846)">
					<title>polygon18</title>
					<path d="M0 123.23 L0 116.7 L5.6 113.4 L5.6 119.97 L0 123.23 Z" class="st2"/>
				</g>
				<g id="shape132-7" transform="translate(11.2385,-45.421)">
					<title>polygon20</title>
					<path d="M0 119.93 L5.64 116.63 L11.24 119.93 L5.64 123.23 L0 119.93 Z" class="st3"/>
				</g>
				<g id="shape133-9" transform="translate(11.2385,-38.8846)">
					<title>polygon22</title>
					<path d="M0 119.97 L0 113.4 L5.64 116.7 L5.64 123.23 L0 119.97 Z" class="st4"/>
				</g>
				<g id="shape134-11" transform="translate(13.2395,-21.2765)">
					<title>rect24</title>
					<path d="M0 122.1 A1.13388 1.13388 -180 0 0 1.13 123.23 L32.58 123.23 A1.13388 1.13388 -180 0 0 33.72 122.1 L33.72
								 101.86 A1.13388 1.13388 -180 0 0 32.58 100.72 L1.13 100.72 A1.13388 1.13388 -180 0 0 -0 101.86 L0
								 122.1 Z" class="st5"/>
				</g>
				<g id="shape135-13" transform="translate(30.1139,-25.9453)">
					<title>polygon26</title>
					<path d="M0 123.23 L0 116.67 L5.6 113.4 L5.6 119.93 L0 123.23 Z" class="st2"/>
				</g>
				<g id="shape136-15" transform="translate(24.478,-32.515)">
					<title>polygon28</title>
					<path d="M0 119.97 L5.64 116.67 L11.24 119.97 L5.64 123.23 L0 119.97 Z" class="st3"/>
				</g>
				<g id="shape137-17" transform="translate(24.478,-25.9453)">
					<title>polygon30</title>
					<path d="M0 119.93 L0 113.4 L5.64 116.67 L5.64 123.23 L0 119.93 Z" class="st4"/>
				</g>
				<g id="shape138-19" transform="translate(22.9773,-8.73734)">
					<title>rect32</title>
					<path d="M0 122.1 A1.13388 1.13388 -180 0 0 1.13 123.23 L32.58 123.23 A1.13388 1.13388 -180 0 0 33.72 122.1 L33.72
								 101.86 A1.13388 1.13388 -180 0 0 32.58 100.72 L1.13 100.72 A1.13388 1.13388 -180 0 0 -0 101.86 L0
								 122.1 Z" class="st6"/>
				</g>
				<g id="shape139-23" transform="translate(39.8518,-13.4062)">
					<title>polygon34</title>
					<path d="M0 123.23 L0 116.67 L5.6 113.4 L5.6 119.93 L0 123.23 Z" class="st2"/>
				</g>
				<g id="shape140-25" transform="translate(34.2158,-19.9426)">
					<title>polygon36</title>
					<path d="M0 119.93 L5.64 116.63 L11.24 119.93 L5.64 123.23 L0 119.93 Z" class="st3"/>
				</g>
				<g id="shape141-27" transform="translate(34.2158,-13.4062)">
					<title>polygon38</title>
					<path d="M0 119.93 L0 113.4 L5.64 116.7 L5.64 123.23 L0 119.93 Z" class="st4"/>
				</g>
				<g id="shape142-29" transform="translate(34.2158,-13.4062)">
					<title>polygon40</title>
					<path d="M0 119.93 L5.64 116.67 L5.64 123.23 L0 119.93 Z" class="st3"/>
				</g>
				<g id="shape143-31" transform="translate(39.8518,-13.4062)">
					<title>polygon42</title>
					<path d="M5.6 119.93 L0 116.67 L0 123.23 L5.6 119.93 Z" class="st4"/>
				</g>
				<g id="shape144-33" transform="translate(31.5813,-5.68434E-14)">
					<title>path44</title>
					<path d="M15.01 121.33 C11.67 120.8 11.67 118.4 11.67 114.66 L5 114.66 C5 118.53 5 120.93 1.67 121.33 A1.96758
								 1.96758 -180 0 0 0 123.23 L16.67 123.23 A1.96758 1.96758 -180 0 0 15.01 121.33 Z" class="st7"/>
				</g>
			</g>
		</g>
	</g>
</svg>
