<?xml version="1.0" encoding="UTF-8" standalone="no"?>
<!DOCTYPE svg PUBLIC "-//W3C//DTD SVG 1.1//EN" "http://www.w3.org/Graphics/SVG/1.1/DTD/svg11.dtd">
<!-- Generated by Microsoft Visio, SVG Export Virtual Network Firewall.svg Page-1 -->
<svg xmlns="http://www.w3.org/2000/svg" xmlns:xlink="http://www.w3.org/1999/xlink" xmlns:ev="http://www.w3.org/2001/xml-events"
		width="1.12236in" height="1.34914in" viewBox="0 0 80.8097 97.138" xml:space="preserve" color-interpolation-filters="sRGB"
		class="st5">
	<style type="text/css">
	<![CDATA[
		.st1 {fill:#3999c6;stroke:none;stroke-linecap:butt;stroke-width:12.24}
		.st2 {fill:#57a300;stroke:none;stroke-linecap:butt;stroke-width:12.24}
		.st3 {fill:#b8d432;fill-opacity:0.4;stroke:none;stroke-linecap:butt;stroke-width:12.24}
		.st4 {fill:#ffffff;stroke:none;stroke-linecap:butt;stroke-width:12.24}
		.st5 {fill:none;fill-rule:evenodd;font-size:12px;overflow:visible;stroke-linecap:square;stroke-miterlimit:3}
	]]>
	</style>

	<g>
		<title>Page-1</title>
		<g id="group92-1" transform="translate(12.0584,-28.3465)">
			<title>Virtual Network Firewall</title>
			<g id="group93-2">
				<title>g16</title>
				<g id="shape94-3" transform="translate(0,-23.893)">
					<title>path4</title>
					<path d="M56.13 81.53 C56.69 80.96 56.58 80.06 56.13 79.49 L53.43 76.78 L41.28 64.9 C40.72 64.34 39.93 64.34
								 39.37 64.9 C38.81 65.47 38.7 66.37 39.37 66.94 L52.08 79.49 C52.65 80.06 52.65 80.96 52.08 81.53
								 L39.15 94.54 A1.43079 1.43641 -180 0 0 39.15 96.57 C39.71 97.14 40.61 97.02 41.06 96.57 L53.1 84.58
								 L53.21 84.47 L56.13 81.53 ZM0.56 81.53 C0 80.96 0.11 80.06 0.56 79.49 L3.26 76.78 L15.41 64.9 C15.97
								 64.34 16.76 64.34 17.32 64.9 C17.88 65.47 18 66.37 17.32 66.94 L4.84 79.49 A1.43079 1.43641 -180
								 0 0 4.84 81.53 L17.55 94.54 C18.11 95.1 18.11 96.01 17.55 96.57 C16.98 97.14 16.08 97.02 15.63 96.57
								 L3.37 84.7 L3.26 84.58 L0.56 81.53 Z" class="st1"/>
				</g>
				<g id="shape95-5" transform="translate(13.1035,-36.9847)">
					<title>path6</title>
					<path d="M7.65 93.41 C7.65 95.55 5.85 97.14 3.94 97.14 C2.03 97.14 0 95.33 0 93.41 C0 91.48 1.57 89.67 3.94 89.67
								 C6.19 89.67 7.65 91.48 7.65 93.41 ZM19.01 93.41 C19.01 95.55 17.21 97.14 15.3 97.14 C13.39 97.14
								 11.36 95.33 11.36 93.41 C11.36 91.48 13.16 89.67 15.3 89.67 C17.44 89.67 19.01 91.48 19.01 93.41
								 Z" class="st2"/>
				</g>
				<g id="shape96-7" transform="translate(36.164,-36.9847)">
					<title>ellipse8</title>
					<ellipse cx="3.71216" cy="93.4056" rx="3.71216" ry="3.7324" class="st2"/>
				</g>
				<g id="shape97-9" transform="translate(27.2199,-2.84217E-13)">
					<title>path10</title>
					<path d="M21.09 67.24 C13.64 66.42 12.39 63.19 12.39 63.19 C12.39 63.19 10.72 67.43 0 67.43 L0 84.82 C0 86.92
								 1.16 88.89 2.77 90.61 C6.43 94.51 12.39 97.14 12.39 97.14 C12.39 97.14 24.79 91.69 24.79 84.82 L24.79
								 67.43 C23.41 67.43 22.18 67.36 21.09 67.24 Z" class="st2"/>
				</g>
				<g id="shape98-11" transform="translate(27.2199,-6.62558)">
					<title>path12</title>
					<path d="M15.31 81.1 L20.89 73.99 C13.51 73.17 12.28 69.98 12.28 69.98 C12.28 69.98 10.62 74.18 0 74.18 L0 91.4
								 C0 93.48 1.15 95.43 2.75 97.14 L6.87 91.88 L15.31 81.1 Z" class="st3"/>
				</g>
				<g id="shape99-13" transform="translate(33.9795,-10.1623)">
					<title>path14</title>
					<path d="M10.7 89.22 L10.14 89.22 L10.14 86.94 A4.50641 4.52412 -180 0 0 1.13 86.94 L1.13 89.22 L0.56 89.22 a0.570061
								 0.572302 -180 0 0 -0.564428 0.576826 L0 96.56 C0 96.88 0.25 97.14 0.56 97.14 L10.7 97.14 a0.570061
								 0.572302 -180 0 0 0.564428 -0.576826 L11.27 89.8 a0.572314 0.574564 -180 0 0 -0.565555 -0.577957
								 ZM5.63 84.68 C6.88 84.68 7.89 85.69 7.89 86.94 L7.89 89.22 L3.38 89.22 L3.38 86.94 C3.38 85.69 4.39
								 84.68 5.63 84.68 Z" class="st4"/>
				</g>
			</g>
		</g>
	</g>
</svg>
