<?xml version="1.0" encoding="UTF-8" standalone="no"?>
<!DOCTYPE svg PUBLIC "-//W3C//DTD SVG 1.1//EN" "http://www.w3.org/Graphics/SVG/1.1/DTD/svg11.dtd">
<!-- Generated by Microsoft Visio, SVG Export Virtual Machine.svg Page-1 -->
<svg xmlns="http://www.w3.org/2000/svg" xmlns:xlink="http://www.w3.org/1999/xlink" xmlns:ev="http://www.w3.org/2001/xml-events"
		width="1.73185in" height="1.65311in" viewBox="0 0 124.693 119.024" xml:space="preserve" color-interpolation-filters="sRGB"
		class="st6">
	<style type="text/css">
	<![CDATA[
		.st1 {fill:url(#grad0-6);stroke:none;stroke-linecap:butt;stroke-width:34}
		.st2 {fill:#50e6ff;stroke:none;stroke-linecap:butt;stroke-width:34}
		.st3 {fill:#c3f1ff;stroke:none;stroke-linecap:butt;stroke-width:34}
		.st4 {fill:#9cebff;stroke:none;stroke-linecap:butt;stroke-width:34}
		.st5 {fill:url(#grad0-20);stroke:none;stroke-linecap:butt;stroke-width:34}
		.st6 {fill:none;fill-rule:evenodd;font-size:12px;overflow:visible;stroke-linecap:square;stroke-miterlimit:3}
	]]>
	</style>

	<defs id="Patterns_And_Gradients">
		<linearGradient id="grad0-6" x1="0" y1="0" x2="1" y2="0" gradientTransform="rotate(-90 0.5 0.5)">
			<stop offset="0" stop-color="#0078d4" stop-opacity="1"/>
			<stop offset="0.82" stop-color="#5ea0ef" stop-opacity="1"/>
		</linearGradient>
		<linearGradient id="grad0-20" x1="0" y1="0" x2="1" y2="0" gradientTransform="rotate(-90 0.5 0.5)">
			<stop offset="0.15" stop-color="#cccccc" stop-opacity="1"/>
			<stop offset="1" stop-color="#707070" stop-opacity="1"/>
		</linearGradient>
	</defs>
	<g>
		<title>Page-1</title>
		<g id="group105-1" transform="translate(34,-34)">
			<title>Virtual Machine</title>
			<g id="group106-2">
				<title>Sheet.106</title>
				<g id="shape107-3" transform="translate(0,-14.2056)">
					<title>Sheet.107</title>
					<path d="M0 117.18 A1.88981 1.84094 -180 0 0 1.89 119.02 L54.8 119.02 A1.88981 1.84094 -180 0 0 56.69 117.18
								 L56.69 84.05 A1.88981 1.84094 -180 0 0 54.8 82.21 L1.89 82.21 A1.88981 1.84094 -180 0 0 0 84.05
								 L0 117.18 Z" class="st1"/>
				</g>
				<g id="shape108-7" transform="translate(28.3465,-21.876)">
					<title>Sheet.108</title>
					<path d="M9.45 102.92 L9.45 113.62 L0 119.02 L0 108.29 L9.45 102.92 Z" class="st2"/>
				</g>
				<g id="shape109-9" transform="translate(18.8976,-32.5839)">
					<title>Sheet.109</title>
					<path d="M18.9 113.62 L9.45 119.02 L0 113.62 L9.45 108.25 L18.9 113.62 Z" class="st3"/>
				</g>
				<g id="shape110-11" transform="translate(18.8976,-21.876)">
					<title>Sheet.110</title>
					<path d="M9.45 108.32 L9.45 119.02 L0 113.62 L0 102.92 L9.45 108.32 Z" class="st4"/>
				</g>
				<g id="shape111-13" transform="translate(18.8976,-21.876)">
					<title>Sheet.111</title>
					<path d="M0 113.62 L9.45 108.29 L9.45 119.02 L0 113.62 Z" class="st3"/>
				</g>
				<g id="shape112-15" transform="translate(28.3465,-21.876)">
					<title>Sheet.112</title>
					<path d="M9.45 113.62 L0 108.29 L0 119.02 L9.45 113.62 Z" class="st4"/>
				</g>
				<g id="shape113-17" transform="translate(14.1732,1.42109E-14)">
					<title>Sheet.113</title>
					<path d="M25.54 115.96 C19.94 115.1 19.72 111.17 19.72 104.82 L8.6 104.82 C8.6 111.17 8.41 115.1 2.8 115.96 A3.14961
								 3.06817 -180 0 0 0 119.02 L28.35 119.02 A3.14961 3.06817 -180 0 0 25.54 115.96 Z" class="st5"/>
				</g>
			</g>
		</g>
	</g>
</svg>
