<?xml version="1.0" encoding="UTF-8" standalone="no"?>
<!DOCTYPE svg PUBLIC "-//W3C//DTD SVG 1.1//EN" "http://www.w3.org/Graphics/SVG/1.1/DTD/svg11.dtd">
<!-- Generated by Microsoft Visio, SVG Export Virtual Machine Image (Classic).svg Page-1 -->
<svg xmlns="http://www.w3.org/2000/svg" xmlns:xlink="http://www.w3.org/1999/xlink" xmlns:ev="http://www.w3.org/2001/xml-events"
		width="1.73185in" height="1.65311in" viewBox="0 0 124.693 119.024" xml:space="preserve" color-interpolation-filters="sRGB"
		class="st9">
	<style type="text/css">
	<![CDATA[
		.st1 {fill:url(#grad0-6);stroke:none;stroke-linecap:butt;stroke-width:34}
		.st2 {fill:#ffffff;stroke:none;stroke-linecap:butt;stroke-width:34}
		.st3 {fill:#0078d4;stroke:none;stroke-linecap:butt;stroke-width:34}
		.st4 {fill:#83b9f9;stroke:none;stroke-linecap:butt;stroke-width:34}
		.st5 {fill:#5ea0ef;stroke:none;stroke-linecap:butt;stroke-width:34}
		.st6 {fill:#83b9f9;fill-opacity:0.2;stroke:none;stroke-linecap:butt;stroke-width:34}
		.st7 {fill:#5ea0ef;fill-opacity:0.2;stroke:none;stroke-linecap:butt;stroke-width:34}
		.st8 {fill:url(#grad0-22);stroke:none;stroke-linecap:butt;stroke-width:34}
		.st9 {fill:none;fill-rule:evenodd;font-size:12px;overflow:visible;stroke-linecap:square;stroke-miterlimit:3}
	]]>
	</style>

	<defs id="Patterns_And_Gradients">
		<linearGradient id="grad0-6" x1="0" y1="0" x2="1" y2="0" gradientTransform="rotate(-90 0.5 0.5)">
			<stop offset="0" stop-color="#0078d4" stop-opacity="1"/>
			<stop offset="0.82" stop-color="#5ea0ef" stop-opacity="1"/>
		</linearGradient>
		<linearGradient id="grad0-22" x1="0" y1="0" x2="1" y2="0" gradientTransform="rotate(-90 0.5 0.5)">
			<stop offset="0" stop-color="#1490df" stop-opacity="1"/>
			<stop offset="0.98" stop-color="#1f56a3" stop-opacity="1"/>
		</linearGradient>
	</defs>
	<g>
		<title>Page-1</title>
		<g id="group234-1" transform="translate(34,-34)">
			<title>Virtual Machine Image (Classic)</title>
			<g id="group235-2">
				<title>Icon-compute-27</title>
				<g id="shape236-3" transform="translate(0,-14.2056)">
					<title>Sheet.236</title>
					<path d="M0 117.18 A1.88981 1.84094 -180 0 0 1.89 119.02 L54.8 119.02 A1.88981 1.84094 -180 0 0 56.69 117.18
								 L56.69 84.05 A1.88981 1.84094 -180 0 0 54.8 82.21 L1.89 82.21 A1.88981 1.84094 -180 0 0 0 84.05
								 L0 117.18 Z" class="st1"/>
				</g>
				<g id="shape237-7" transform="translate(3.14961,-17.2738)">
					<title>Sheet.237</title>
					<path d="M0 118.01 A1.03939 1.01252 -180 0 0 1.04 119.02 L49.35 119.02 A1.03939 1.01252 -180 0 0 50.39 118.01
								 L50.39 89.35 A1.03939 1.01252 -180 0 0 49.35 88.34 L1.04 88.34 A1.03939 1.01252 -180 0 0 0 89.35
								 L0 118.01 Z" class="st2"/>
				</g>
				<g id="shape238-9" transform="translate(28.3465,-21.876)">
					<title>Sheet.238</title>
					<path d="M9.45 102.92 L9.45 113.62 L0 119.02 L0 108.29 L9.45 102.92 Z" class="st3"/>
				</g>
				<g id="shape239-11" transform="translate(18.8976,-32.5839)">
					<title>Sheet.239</title>
					<path d="M18.9 113.62 L9.45 119.02 L0 113.62 L9.45 108.25 L18.9 113.62 Z" class="st4"/>
				</g>
				<g id="shape240-13" transform="translate(18.8976,-21.876)">
					<title>Sheet.240</title>
					<path d="M9.45 108.32 L9.45 119.02 L0 113.62 L0 102.92 L9.45 108.32 Z" class="st5"/>
				</g>
				<g id="shape241-15" transform="translate(18.8976,-21.876)">
					<title>Sheet.241</title>
					<path d="M0 113.62 L9.45 108.29 L9.45 119.02 L0 113.62 Z" class="st6"/>
				</g>
				<g id="shape242-17" transform="translate(28.3465,-21.876)">
					<title>Sheet.242</title>
					<path d="M9.45 113.62 L0 108.29 L0 119.02 L9.45 113.62 Z" class="st7"/>
				</g>
				<g id="shape243-19" transform="translate(14.1732,1.42109E-14)">
					<title>Sheet.243</title>
					<path d="M25.54 115.96 C19.94 115.1 19.72 111.17 19.72 104.82 L8.6 104.82 C8.6 111.17 8.41 115.1 2.8 115.96 A3.14961
								 3.06817 -180 0 0 0 119.02 L28.35 119.02 A3.14961 3.06817 -180 0 0 25.54 115.96 Z" class="st8"/>
				</g>
				<g id="shape244-23" transform="translate(6.89764,-19.3601)">
					<title>Sheet.244</title>
					<path d="M9.7 92.58 L1.89 92.58 A1.85827 1.81022 -180 0 0 0 94.39 L0 102 a0.944882 0.92045 -180 0 0 0.944882
								 0.92045 L1.57 102.92 a0.944882 0.92045 -180 0 0 0.944882 -0.92045 L2.52 94.97 L9.7 94.97 a0.944882
								 0.92045 -180 0 0 0.944882 -0.92045 L10.65 93.47 a0.944882 0.92045 -180 0 0 -0.944882 -0.889769 ZM9.7
								 116.51 L2.49 116.51 L2.49 109.51 a0.944882 0.92045 -180 0 0 -0.944882 -0.92045 L0.94 108.59 a0.944882
								 0.92045 -180 0 0 -0.944882 0.92045 L0 117.12 A1.85827 1.81022 -180 0 0 1.89 118.93 L9.7 118.93 a0.944882
								 0.92045 -180 0 0 0.944882 -0.889769 L10.65 117.43 a0.944882 0.92045 -180 0 0 -0.944882 -0.92045
								 ZM40.88 92.64 L33.2 92.64 a0.913386 0.889769 -180 0 0 -0.944882 0.92045 L32.25 94.14 a0.913386 0.889769
								 -180 0 0 0.944882 0.889769 L40.38 95.03 L40.38 102.09 a0.913386 0.889769 -180 0 0 0.944882 0.889769
								 L41.95 102.98 a0.913386 0.889769 -180 0 0 0.913386 -0.889769 L42.87 94.48 A1.85827 1.81022 -180
								 0 0 40.88 92.64 ZM41.95 108.65 L41.35 108.65 a0.944882 0.92045 -180 0 0 -0.944882 0.92045 L40.41
								 116.57 L33.2 116.57 a0.913386 0.889769 -180 0 0 -0.944882 0.92045 L32.25 118.1 a0.944882 0.92045
								 -180 0 0 0.944882 0.92045 L40.88 119.02 A1.85827 1.81022 -180 0 0 42.74 117.18 L42.74 109.57 a0.944882
								 0.92045 -180 0 0 -0.787402 -0.92045 Z" class="st5"/>
				</g>
			</g>
		</g>
	</g>
</svg>
