<?xml version="1.0" encoding="UTF-8" standalone="no"?>
<!DOCTYPE svg PUBLIC "-//W3C//DTD SVG 1.1//EN" "http://www.w3.org/Graphics/SVG/1.1/DTD/svg11.dtd">
<!-- Generated by Microsoft Visio, SVG Export Virtual Machine Non-Azure Linux.svg Page-1 -->
<svg xmlns="http://www.w3.org/2000/svg" xmlns:xlink="http://www.w3.org/1999/xlink" xmlns:ev="http://www.w3.org/2001/xml-events"
		width="1.73185in" height="1.65311in" viewBox="0 0 124.693 119.024" xml:space="preserve" color-interpolation-filters="sRGB"
		class="st12">
	<style type="text/css">
	<![CDATA[
		.st1 {fill:url(#grad0-6);stroke:none;stroke-linecap:butt;stroke-width:34}
		.st2 {fill:url(#grad0-10);stroke:none;stroke-linecap:butt;stroke-width:34}
		.st3 {fill:#ffffff;fill-opacity:0.32;stroke:none;stroke-linecap:butt;stroke-width:10.2424}
		.st4 {fill:#fbfbf9;fill-opacity:0.8;stroke:none;stroke-linecap:butt;stroke-width:10.2424}
		.st5 {fill:#ff8c00;fill-opacity:0.8;stroke:none;stroke-linecap:butt;stroke-width:10.2424}
		.st6 {fill:#1e1e1e;fill-opacity:0.8;stroke:none;stroke-linecap:butt;stroke-width:10.2424}
		.st7 {fill:#dda516;fill-opacity:0.8;stroke:none;stroke-linecap:butt;stroke-width:10.2424}
		.st8 {fill:#8c5f07;fill-opacity:0.8;stroke:none;stroke-linecap:butt;stroke-width:10.2424}
		.st9 {fill:#e3a906;fill-opacity:0.8;stroke:none;stroke-linecap:butt;stroke-width:10.2424}
		.st10 {fill:#fcd116;fill-opacity:0.8;stroke:none;stroke-linecap:butt;stroke-width:10.2424}
		.st11 {fill:#ffffff;fill-opacity:0.9;stroke:none;stroke-linecap:butt;stroke-width:10.2424}
		.st12 {fill:none;fill-rule:evenodd;font-size:12px;overflow:visible;stroke-linecap:square;stroke-miterlimit:3}
	]]>
	</style>

	<defs id="Patterns_And_Gradients">
		<linearGradient id="grad0-6" x1="0" y1="0" x2="1" y2="0" gradientTransform="rotate(-90 0.5 0.5)">
			<stop offset="0" stop-color="#804998" stop-opacity="1"/>
			<stop offset="0.82" stop-color="#b482c8" stop-opacity="1"/>
		</linearGradient>
		<linearGradient id="grad0-10" x1="0" y1="0" x2="1" y2="0" gradientTransform="rotate(-90 0.5 0.5)">
			<stop offset="0.15" stop-color="#cccccc" stop-opacity="1"/>
			<stop offset="1" stop-color="#707070" stop-opacity="1"/>
		</linearGradient>
	</defs>
	<g>
		<title>Page-1</title>
		<g id="group163-1" transform="translate(34,-34)">
			<title>Virtual Machine Non-Azure Linux</title>
			<g id="group164-2">
				<title>g16</title>
				<g id="shape165-3" transform="translate(0,-14.2056)">
					<title>rect2</title>
					<path d="M0 117.18 A1.88981 1.84094 -180 0 0 1.89 119.02 L54.8 119.02 A1.88981 1.84094 -180 0 0 56.69 117.18
								 L56.69 84.05 A1.88981 1.84094 -180 0 0 54.8 82.21 L1.89 82.21 A1.88981 1.84094 -180 0 0 0 84.05
								 L0 117.18 Z" class="st1"/>
				</g>
				<g id="shape166-7" transform="translate(14.1732,1.42109E-14)">
					<title>path14</title>
					<path d="M25.54 115.96 C19.94 115.1 19.72 111.17 19.72 104.82 L8.6 104.82 C8.6 111.17 8.41 115.1 2.8 115.96 A3.14961
								 3.06817 -180 0 0 0 119.02 L28.35 119.02 A3.14961 3.06817 -180 0 0 25.54 115.96 Z" class="st2"/>
				</g>
				<g id="group167-11" transform="translate(18.4927,-21.2525)">
					<title>Layer_3</title>
					<g id="shape168-12" transform="translate(10.3259,-17.4725)">
						<title>path10</title>
						<path d="M1.09 118.73 L0.6 119.02 L0.18 118.28 C0.02 117.99 0 117.75 0.11 117.5 C0.2 117.28 0.4 117.15 0.64
									 117.15 L0.69 117.15 C0.96 117.17 1.23 117.45 1.32 117.69 C1.4 117.94 1.4 118.55 1.09 118.73
									 L1.09 118.73 Z" class="st3"/>
					</g>
					<g id="shape169-14" transform="translate(4.29147,-2.23213)">
						<title>path12</title>
						<path d="M2.4 117.84 C2.4 117.81 0 114.05 0.14 113.4 C1.27 108.16 2.62 107.39 3.11 106.28 C3.61 105.17 3.32
									 104.15 3.91 104.14 C4.5 104.13 6.23 104.25 6.65 104.39 C7.07 104.52 7.67 104.94 8 105.84 C8.45
									 106.67 8.89 107.5 9.03 108.44 C9.04 108.53 9.08 108.61 9.14 108.68 C10.26 109.88 10.49 111.34
									 10.41 112.89 C10.39 113.28 10.34 113.85 10.28 114.05 C10.23 114.26 8.72 119.02 6.33 118.97 C3.95
									 118.91 2.68 118.04 2.4 117.84 L2.4 117.84 Z" class="st4"/>
					</g>
					<g id="shape170-16" transform="translate(13.0974,-0.160826)">
						<title>path14-9</title>
						<path d="M6.41 114.65 C5.53 114.61 5.07 114.1 5.07 113.61 C5.06 113.04 5.31 112.32 4.46 112.25 C3.61 112.18
									 1.88 112.09 1.41 112.01 C0.39 111.82 0.34 112.23 0.33 112.51 C0.32 112.65 0.45 113.99 0.31 114.51
									 C0.32 114.74 0.31 114.97 0.27 115.19 C0.17 115.8 0.1 116.42 0.02 117.03 C0.01 117.33 0.01 117.63
									 0 117.92 C0.74 118.98 2.18 119.02 3.06 118.11 C3.9 117.28 4.91 116.71 5.97 116.21 C6.26 116.07
									 6.55 115.85 6.71 115.44 C6.87 115.03 6.72 114.67 6.41 114.65 Z" class="st5"/>
					</g>
					<g id="shape171-18" transform="translate(2.9062,-3.967)">
						<title>path16</title>
						<path d="M5 117.95 C4.88 118.52 4.25 119.02 3.92 118.98 C3.71 118.87 3.16 118.16 3.04 117.98 C2.68 117.45
									 1.1 115.25 0.64 115.41 C0.49 115.43 0.41 115.53 0.33 115.64 C0.3 115.66 0.27 115.67 0.24 115.68
									 C0 115.19 0.02 114.69 0.28 114.22 C0.86 113.18 1.13 112.12 1.43 110.97 C1.53 110.58 1.77 110.26
									 2.02 109.95 C2.49 109.38 2.48 108.8 2.95 108.23 C3.26 107.86 3.52 107.47 3.5 107 C3.41 105.67
									 3.24 104.38 3.3 103.04 C3.36 101.74 4.52 100.65 5.84 100.18 C7.2 99.69 8.49 99.93 9.58 100.88
									 C10.44 101.63 10.81 102.61 10.88 103.72 C10.89 103.92 10.9 104.13 10.89 104.33 C10.79 106.4
									 11.69 108.09 13.05 109.6 C14.35 111.05 14.86 112.79 14.98 114.66 C15.01 115.15 14.85 115.61
									 14.64 116.05 C14.36 116.69 13.95 117.08 13.58 117.25 C13.2 117.41 11.73 117.52 12.02 116.58
									 C12.16 116.12 12.18 115.92 11.59 115.81 C11.64 115.42 11.7 115.03 11.72 114.64 C11.8 113.09
									 11.52 111.87 10.32 110.78 C9.95 110.44 10.3 110.38 10.29 110.08 C10.26 109.25 9.76 108.42 9.31
									 107.6 C9.27 107.44 9.2 107.31 9.1 107.19 C9.13 107.06 9.05 106.96 8.99 106.86 C9.06 106.6 9.18
									 106.35 9.12 106.07 C9.12 105.83 6.59 105.72 6.28 105.85 C6.14 105.8 4.79 105.75 4.8 105.77 C4.62
									 105.9 4.49 106.08 4.43 106.29 C4.38 106.49 4.71 106.9 4.74 106.97 C4.73 107.25 4.71 107.53 4.69
									 107.81 C4.67 107.91 4.64 108.01 4.61 108.11 C4.39 108.43 4.17 108.75 3.97 109.08 C3.78 109.38
									 3.56 109.66 3.54 110.03 C3.39 110.4 3.92 110.89 3.44 111.32 C2.96 111.75 2.48 113.83 2.47 114.32
									 C2.46 114.84 3.45 116.05 3.83 116.39 C4.52 117.03 5.14 117.27 5 117.95 L5 117.95 Z"
								class="st6"/>
					</g>
					<g id="shape172-20" transform="translate(7.43108,-1.27181)">
						<title>path18</title>
						<path d="M0 117.23 C1.02 117.52 3.89 117.6 5.29 116.24 C5.52 116.03 5.76 115.82 5.99 115.61 C6 115.84 5.99
									 116.06 5.95 116.29 C5.85 116.9 5.78 117.52 5.7 118.13 C5.69 118.43 5.69 118.73 5.68 119.02 C4.39
									 118.68 2.46 118.56 1.89 118.59 C1.31 118.62 0.52 118.76 0.07 118.87 L0 117.23 Z" class="st6"/>
					</g>
					<g id="shape173-22" transform="translate(18.1802,-5.42181)">
						<title>path20</title>
						<path d="M0.06 119.02 C0.04 118.99 0.02 118.96 0 118.93 C0.02 118.96 0.04 118.99 0.06 119.02 Z" class="st7"/>
					</g>
					<g id="shape174-24" transform="translate(17.7864,-6.71672)">
						<title>path22</title>
						<path d="M0.08 119.02 C0.06 119 0.03 118.97 0 118.95 C0.03 118.97 0.06 119 0.08 119.02 Z" class="st7"/>
					</g>
					<g id="shape175-26" transform="translate(6.84566,-3.83021)">
						<title>path24</title>
						<path d="M0 118.96 C0.01 118.98 0.03 119 0.04 119.02 C0.03 119 0.01 118.98 0 118.96 Z" class="st8"/>
					</g>
					<g id="shape176-28" transform="translate(17.7864,-6.79251)">
						<title>polygon26</title>
						<path d="M0 119.02 L0 119.02 L0 119.02 L0 119.02 Z" class="st9"/>
					</g>
					<g id="shape177-30">
						<title>path28</title>
						<path d="M6.43 114.53 C5.68 113.78 5.11 112.86 4.59 111.84 C4.31 111.3 3.47 110.88 3.15 111.72 C2.84 112.56
									 2.34 112.91 1.52 112.8 C0.92 112.72 0.35 113.17 0.61 113.91 C0.88 114.7 1.18 115.33 0.59 115.88
									 C0 116.44 0.24 117.02 1.07 117.13 C1.91 117.24 4.1 117.72 5.37 118.37 C6.63 119.02 7.64 117.79
									 7.77 117.43 C8.11 116.53 7.17 115.28 6.43 114.53 L6.43 114.53 Z" class="st5"/>
					</g>
					<g id="shape178-32" transform="translate(6.62269,-13.3299)">
						<title>path30</title>
						<path d="M2.63 119.02 C1.91 119.02 1.44 118.37 1.1 117.79 C1.1 117.79 0 116.29 0.4 115.46 C0.46 115.34 0.55
									 115.15 1.68 114.47 L1.89 114.29 L2.09 114.19 L2.22 114.14 C2.38 114.1 2.56 114.05 2.73 114.05
									 L2.8 114.05 L2.95 114.08 L3.29 114.19 L6.04 115.18 L6.12 115.58 C6.18 115.91 6.1 116.19 6.03
									 116.42 L5.92 116.81 L5.69 116.9 C5.48 116.97 5.15 117.31 4.89 117.58 C4.63 117.85 4.39 118.11
									 4.14 118.26 C4.05 118.32 3.95 118.4 3.86 118.47 C3.46 118.75 3.09 119.02 2.63 119.02 L2.63 119.02
									 Z" class="st6"/>
					</g>
					<g id="shape179-34" transform="translate(6.96805,-13.3974)">
						<title>path32</title>
						<path d="M4.12 115.8 C3.63 116.21 3.07 116.56 2.38 116.58 C2.36 116.6 2.36 116.6 2.38 116.58 C2.39 116.43
									 2.38 116.28 2.24 116.17 C2.13 116.08 2.12 115.94 2.15 115.82 C2.28 115.34 2.2 114.84 2.22 114.36
									 C2.09 114.32 1.79 114.42 1.75 114.43 C1.69 114.46 1.63 114.49 1.57 114.52 C1.5 114.58 1.43 114.63
									 1.37 114.69 C1.28 114.74 0.34 115.3 0.25 115.49 C0 116 0.81 117.26 0.93 117.4 C1.88 119.02 2.41
									 118.32 3.3 117.71 C3.78 117.41 4.4 116.49 4.94 116.3 C5 116.04 5.12 115.78 5.07 115.5 C4.72
									 115.52 4.42 115.55 4.12 115.8 L4.12 115.8 Z" class="st5"/>
					</g>
					<g id="shape180-36" transform="translate(8.79452,-18.0529)">
						<title>path34</title>
						<path d="M0 119.02 C0 119.02 0 119.02 0.01 119.02 C0.01 119.02 0.01 119.02 0 119.01 L0 119.02 Z"
								class="st9"/>
					</g>
					<g id="shape181-38" transform="translate(8.65694,-15.3458)">
						<title>path36</title>
						<path d="M2.99 117.09 C3.19 117.19 3.38 117.3 3.38 117.57 C3 117.59 2.67 117.61 2.34 117.89 C1.81 118.34
									 1.08 119 0.33 119.02 C0.36 118.78 0 118.43 0.1 118.02 C0.22 117.49 0.24 116.84 0.26 116.31 C0.61
									 116.18 0.93 116.3 1.26 116.4 C1.39 116.48 1.53 116.56 1.66 116.64 C1.9 116.72 2.13 116.81 2.37
									 116.9 C2.56 117.02 2.78 117.04 2.99 117.09 L2.99 117.09 Z" class="st10"/>
					</g>
				</g>
				<g id="shape182-40" transform="translate(26.3924,-39.2722)">
					<title>rect39</title>
					<rect x="0" y="118.099" width="0.94881" height="0.924277" class="st11"/>
				</g>
				<g id="shape183-42" transform="translate(29.2389,-39.2722)">
					<title>rect41</title>
					<rect x="0" y="118.099" width="0.94881" height="0.924277" class="st11"/>
				</g>
			</g>
		</g>
	</g>
</svg>
