<?xml version="1.0" encoding="UTF-8" standalone="no"?>
<!DOCTYPE svg PUBLIC "-//W3C//DTD SVG 1.1//EN" "http://www.w3.org/Graphics/SVG/1.1/DTD/svg11.dtd">
<!-- Generated by Microsoft Visio, SVG Export Virtual Machine SQL.svg Page-1 -->
<svg xmlns="http://www.w3.org/2000/svg" xmlns:xlink="http://www.w3.org/1999/xlink" xmlns:ev="http://www.w3.org/2001/xml-events"
		width="1.73185in" height="1.69248in" viewBox="0 0 124.693 121.858" xml:space="preserve" color-interpolation-filters="sRGB"
		class="st4">
	<style type="text/css">
	<![CDATA[
		.st1 {fill:url(#grad0-6);stroke:none;stroke-linecap:butt;stroke-width:34}
		.st2 {fill:url(#grad0-10);stroke:none;stroke-linecap:butt;stroke-width:34}
		.st3 {fill:url(#grad3-14);stroke:none;stroke-linecap:butt;stroke-width:34}
		.st4 {fill:none;fill-rule:evenodd;font-size:12px;overflow:visible;stroke-linecap:square;stroke-miterlimit:3}
	]]>
	</style>

	<defs id="Patterns_And_Gradients">
		<linearGradient id="grad0-6" x1="0" y1="0" x2="1" y2="0" gradientTransform="rotate(-90 0.5 0.5)">
			<stop offset="0" stop-color="#0078d4" stop-opacity="1"/>
			<stop offset="0.82" stop-color="#5ea0ef" stop-opacity="1"/>
		</linearGradient>
		<linearGradient id="grad0-10" x1="0" y1="0" x2="1" y2="0" gradientTransform="rotate(-90 0.5 0.5)">
			<stop offset="0.15" stop-color="#cccccc" stop-opacity="1"/>
			<stop offset="1" stop-color="#707070" stop-opacity="1"/>
		</linearGradient>
		<radialGradient id="grad3-14" cx="0.5" cy="0.5" r="0.73">
			<stop offset="0" stop-color="#f2f2f2" stop-opacity="1"/>
			<stop offset="0.58" stop-color="#eeeeee" stop-opacity="1"/>
			<stop offset="1" stop-color="#e6e6e6" stop-opacity="1"/>
		</radialGradient>
	</defs>
	<g>
		<title>Page-1</title>
		<g id="group123-1" transform="translate(34,-34)">
			<title>Virtual Machine SQL</title>
			<g id="group124-2">
				<title>Sql virtual machine</title>
				<g id="shape125-3" transform="translate(0,-15.1723)">
					<title>rect4</title>
					<path d="M0 119.94 A1.87751 1.92233 -180 0 0 1.88 121.86 L54.82 121.86 A1.87751 1.92233 -180 0 0 56.69 119.94
								 L56.69 85.09 A1.87751 1.92233 -180 0 0 54.82 83.17 L1.88 83.17 A1.87751 1.92233 -180 0 0 0 85.09
								 L0 119.94 Z" class="st1"/>
				</g>
				<g id="shape126-7" transform="translate(14.1816,1.42109E-14)">
					<title>path6</title>
					<path d="M25.55 118.43 C19.95 117.53 19.71 113.38 19.75 106.72 L8.62 106.72 C8.62 113.38 8.42 117.53 2.82 118.43
								 A3.35263 3.43265 -180 0 0 0 121.86 L28.36 121.86 A3.35263 3.43265 -180 0 0 25.55 118.43 Z"
							class="st2"/>
				</g>
				<g id="shape127-11" transform="translate(11.9018,-24.4748)">
					<title>path8</title>
					<path d="M30.11 115.51 L30.11 103.56 L26.75 103.56 L26.75 118.15 L35.24 118.15 L35.24 115.51 L30.11 115.51 ZM5.5
								 109.6 A6.70525 6.8653 0 0 1 3.75 108.54 A1.50868 1.54469 0 0 1 3.32 107.37 A1.20695 1.23575 0 0
								 1 3.86 106.31 A2.31331 2.36853 0 0 1 5.3 105.93 A5.56536 5.6982 0 0 1 8.65 106.93 L8.65 103.91 A9.28678
								 9.50844 -180 0 0 5.3 103.32 A5.80004 5.93848 -180 0 0 1.51 104.52 A3.75494 3.84457 -180 0 0 0.1
								 107.68 A4.62662 4.73706 -180 0 0 3.05 111.94 A8.34804 8.5473 0 0 1 5.16 113.21 A1.37458 1.40739
								 0 0 1 5.7 114.34 A1.34105 1.37306 0 0 1 5.16 115.44 A2.548 2.60881 0 0 1 3.75 115.89 A5.66594 5.80118
								 0 0 1 -0 114.38 L0 117.81 A7.61046 7.79211 -180 0 0 3.69 118.63 A6.70525 6.8653 -180 0 0 7.74 117.29
								 A3.75494 3.84457 -180 0 0 9.22 114.07 A3.35263 3.43265 -180 0 0 8.35 111.59 A8.51567 8.71893 -180
								 0 0 5.5 109.6 ZM23.4 115.23 A8.0463 8.23836 -180 0 0 24.54 110.77 A8.18041 8.37566 -180 0 0 23.67
								 106.89 A6.20236 6.3504 -180 0 0 21.26 104.25 A6.87288 7.03693 -180 0 0 17.9 103.32 A7.47636 7.65481
								 -180 0 0 14.18 104.28 A6.33646 6.48771 -180 0 0 11.63 107.03 A8.28099 8.47864 -180 0 0 10.59 111.08
								 A8.18041 8.37566 -180 0 0 11.4 114.79 A6.43704 6.59069 -180 0 0 13.78 117.4 A6.90641 7.07126 -180
								 0 0 17.13 118.43 L20.08 121.86 L24.24 121.86 L20.18 117.88 A5.96768 6.11012 -180 0 0 23.4 115.23
								 ZM20.05 114.34 A3.15147 3.22669 0 0 1 17.43 115.58 A3.08442 3.15804 0 0 1 14.82 114.31 A5.19657
								 5.32061 0 0 1 13.81 110.87 A5.26362 5.38926 0 0 1 14.82 107.44 A3.35263 3.43265 0 0 1 17.5 106.17
								 A3.01736 3.08938 0 0 1 20.08 107.44 A5.53183 5.66387 0 0 1 21.02 110.87 A5.02894 5.14897 0 0 1 20.18
								 114.34 L20.05 114.34 Z" class="st3"/>
				</g>
			</g>
		</g>
	</g>
</svg>
