<?xml version="1.0" encoding="UTF-8" standalone="no"?>
<!DOCTYPE svg PUBLIC "-//W3C//DTD SVG 1.1//EN" "http://www.w3.org/Graphics/SVG/1.1/DTD/svg11.dtd">
<!-- Generated by Microsoft Visio, SVG Export Virtual Machine Image.svg Page-1 -->
<svg xmlns="http://www.w3.org/2000/svg" xmlns:xlink="http://www.w3.org/1999/xlink" xmlns:ev="http://www.w3.org/2001/xml-events"
		width="1.73185in" height="1.65311in" viewBox="0 0 124.693 119.024" xml:space="preserve" color-interpolation-filters="sRGB"
		class="st7">
	<style type="text/css">
	<![CDATA[
		.st1 {fill:url(#grad0-6);stroke:none;stroke-linecap:butt;stroke-width:34}
		.st2 {fill:#50e6ff;stroke:none;stroke-linecap:butt;stroke-width:34}
		.st3 {fill:#c3f1ff;stroke:none;stroke-linecap:butt;stroke-width:34}
		.st4 {fill:#9cebff;stroke:none;stroke-linecap:butt;stroke-width:34}
		.st5 {fill:url(#grad0-20);stroke:none;stroke-linecap:butt;stroke-width:34}
		.st6 {fill:#ffffff;stroke:none;stroke-linecap:butt;stroke-width:34}
		.st7 {fill:none;fill-rule:evenodd;font-size:12px;overflow:visible;stroke-linecap:square;stroke-miterlimit:3}
	]]>
	</style>

	<defs id="Patterns_And_Gradients">
		<linearGradient id="grad0-6" x1="0" y1="0" x2="1" y2="0" gradientTransform="rotate(-90 0.5 0.5)">
			<stop offset="0" stop-color="#0078d4" stop-opacity="1"/>
			<stop offset="0.82" stop-color="#5ea0ef" stop-opacity="1"/>
		</linearGradient>
		<linearGradient id="grad0-20" x1="0" y1="0" x2="1" y2="0" gradientTransform="rotate(-90 0.5 0.5)">
			<stop offset="0" stop-color="#1490df" stop-opacity="1"/>
			<stop offset="0.98" stop-color="#1f56a3" stop-opacity="1"/>
		</linearGradient>
	</defs>
	<g>
		<title>Page-1</title>
		<g id="group205-1" transform="translate(34,-34)">
			<title>Virtual Machine Image</title>
			<g id="group206-2">
				<title>Icon-compute-33</title>
				<g id="shape207-3" transform="translate(0,-14.2056)">
					<title>Sheet.207</title>
					<path d="M0 117.18 A1.88981 1.84094 -180 0 0 1.89 119.02 L54.8 119.02 A1.88981 1.84094 -180 0 0 56.69 117.18
								 L56.69 84.05 A1.88981 1.84094 -180 0 0 54.8 82.21 L1.89 82.21 A1.88981 1.84094 -180 0 0 0 84.05
								 L0 117.18 Z" class="st1"/>
				</g>
				<g id="shape208-7" transform="translate(28.3465,-21.876)">
					<title>Sheet.208</title>
					<path d="M9.45 102.92 L9.45 113.62 L0 119.02 L0 108.29 L9.45 102.92 Z" class="st2"/>
				</g>
				<g id="shape209-9" transform="translate(18.8976,-32.5839)">
					<title>Sheet.209</title>
					<path d="M18.9 113.62 L9.48 119.02 L0 113.62 L9.48 108.25 L18.9 113.62 Z" class="st3"/>
				</g>
				<g id="shape210-11" transform="translate(18.8976,-21.876)">
					<title>Sheet.210</title>
					<path d="M9.45 108.32 L9.45 119.02 L0 113.62 L0 102.92 L9.45 108.32 Z" class="st4"/>
				</g>
				<g id="shape211-13" transform="translate(18.8976,-21.876)">
					<title>Sheet.211</title>
					<path d="M0 113.62 L9.45 108.29 L9.45 119.02 L0 113.62 Z" class="st3"/>
				</g>
				<g id="shape212-15" transform="translate(28.3465,-21.876)">
					<title>Sheet.212</title>
					<path d="M9.45 113.62 L0 108.29 L0 119.02 L9.45 113.62 Z" class="st4"/>
				</g>
				<g id="shape213-17" transform="translate(14.2047,1.42109E-14)">
					<title>Sheet.213</title>
					<path d="M25.51 115.96 C19.91 115.1 19.69 111.17 19.72 104.82 L8.47 104.82 C8.47 111.17 8.47 115.1 2.77 115.96
								 A3.14961 3.06817 -180 0 0 0 119.02 L28.35 119.02 A3.33858 3.25226 -180 0 0 25.51 115.96 Z"
							class="st5"/>
				</g>
				<g id="shape214-21" transform="translate(4.62992,-17.8874)">
					<title>Sheet.214</title>
					<path d="M10.74 89.57 L2.08 89.57 A2.07874 2.02499 -180 0 0 -0 91.59 L0 100.06 A1.03937 1.0125 -180 0 0 1.04
								 101.07 L1.73 101.07 A1.03937 1.0125 -180 0 0 2.77 100.06 L2.77 92.24 L10.74 92.24 A1.03937 1.0125
								 -180 0 0 11.75 91.23 L11.75 90.58 A1.03937 1.0125 -180 0 0 10.74 89.57 ZM10.74 116.14 L2.74 116.14
								 L2.74 108.38 A1.03937 1.0125 -180 0 0 1.7 107.36 L1.04 107.36 A1.03937 1.0125 -180 0 0 -0 108.38
								 L0 116.97 A2.07874 2.02499 -180 0 0 2.08 119.02 L10.74 119.02 A1.07087 1.04318 -180 0 0 11.75 117.83
								 L11.75 117.15 A1.03937 1.0125 -180 0 0 10.74 116.14 ZM45.48 89.66 L36.94 89.66 A1.03937 1.0125 -180
								 0 0 35.91 90.67 L35.91 91.32 A1.03937 1.0125 -180 0 0 36.94 92.42 L44.91 92.42 L44.91 100.12 A1.03937
								 1.0125 -180 0 0 45.95 101.14 L46.68 101.14 A1.03937 1.0125 -180 0 0 47.72 100.12 L47.72 91.69 A2.07874
								 2.02499 -180 0 0 45.48 89.66 ZM46.55 107.43 L45.89 107.43 A1.03937 1.0125 -180 0 0 44.85 108.44
								 L44.85 116.23 L36.94 116.23 A1.03937 1.0125 -180 0 0 35.91 117.24 L35.91 117.92 A1.03937 1.0125
								 -180 0 0 36.94 118.93 L45.61 118.93 A2.11024 2.05567 -180 0 0 47.72 116.91 L47.72 108.44 A1.03937
								 1.0125 -180 0 0 46.55 107.43 Z" class="st6"/>
				</g>
			</g>
		</g>
	</g>
</svg>
