<?xml version="1.0" encoding="UTF-8" standalone="no"?>
<!DOCTYPE svg PUBLIC "-//W3C//DTD SVG 1.1//EN" "http://www.w3.org/Graphics/SVG/1.1/DTD/svg11.dtd">
<!-- Generated by Microsoft Visio, SVG Export WAF Policy.svg Page-1 -->
<svg xmlns="http://www.w3.org/2000/svg" xmlns:xlink="http://www.w3.org/1999/xlink" xmlns:ev="http://www.w3.org/2001/xml-events"
		width="1.74371in" height="1.75631in" viewBox="0 0 125.547 126.454" xml:space="preserve" color-interpolation-filters="sRGB"
		class="st9">
	<style type="text/css">
	<![CDATA[
		.st1 {fill:url(#grad7-6);stroke:none;stroke-linecap:butt;stroke-width:34}
		.st2 {fill:#83b9f9;stroke:none;stroke-linecap:butt;stroke-width:34}
		.st3 {fill:url(#grad0-12);stroke:none;stroke-linecap:butt;stroke-width:34}
		.st4 {fill:none;stroke:none;stroke-linecap:butt;stroke-width:34}
		.st5 {fill:#f2f2f2;stroke:none;stroke-linecap:butt;stroke-width:34}
		.st6 {fill:#821010;stroke:none;stroke-linecap:butt;stroke-width:34}
		.st7 {fill:#e62323;stroke:none;stroke-linecap:butt;stroke-width:34}
		.st8 {fill:#ff7381;stroke:none;stroke-linecap:butt;stroke-width:34}
		.st9 {fill:none;fill-rule:evenodd;font-size:12px;overflow:visible;stroke-linecap:square;stroke-miterlimit:3}
	]]>
	</style>

	<defs id="Patterns_And_Gradients">
		<radialGradient id="grad7-6" cx="0" cy="0" r="1.4">
			<stop offset="0.185" stop-color="#5ea0ef" stop-opacity="1"/>
			<stop offset="1" stop-color="#0078d4" stop-opacity="1"/>
		</radialGradient>
		<linearGradient id="grad0-12" x1="0" y1="0" x2="1" y2="0" gradientTransform="rotate(-90.44863169121 0.5 0.5)">
			<stop offset="0" stop-color="#cccccc" stop-opacity="1"/>
			<stop offset="0.125" stop-color="#d7d7d7" stop-opacity="1"/>
			<stop offset="0.42" stop-color="#ebebeb" stop-opacity="1"/>
			<stop offset="0.715" stop-color="#f8f8f8" stop-opacity="1"/>
			<stop offset="1" stop-color="#fcfcfc" stop-opacity="1"/>
		</linearGradient>
	</defs>
	<g>
		<title>Page-1</title>
		<g id="group25-1" transform="translate(37.6888,-34)">
			<title>WAF Policy</title>
			<g id="group26-2">
				<title>Icon-362Artboard 1</title>
				<g id="shape27-3" transform="translate(2.22562,-7.67022)">
					<title>Sheet.27</title>
					<path d="M38.9 126.45 A27.7843 28.3865 0 0 1 4.63 81.77 L4.96 81.43 A27.8137 28.4165 0 0 1 38.9 126.45 Z"
							class="st1"/>
				</g>
				<g id="shape28-7" transform="translate(0,-10.6716)">
					<title>Sheet.28</title>
					<path d="M2.61 112.78 A84.2931 86.1199 -180 0 0 0 121.45 L1.96 124.45 L3.92 126.45 A46.5107 47.5187 0 0 1 7.51
								 114.78 A8.255 8.4339 0 0 1 2.61 112.78 ZM5.88 97.44 A44.5718 45.5377 0 0 1 3.59 87.77 A24.6475 25.1817
								 -180 0 0 0 92.44 A34.4301 35.1763 -180 0 0 1.96 100.44 A8.9111 9.10421 0 0 1 5.88 97.44 Z"
							class="st2"/>
				</g>
				<g id="shape29-9" transform="translate(-2.65787E-13,-22.0102)">
					<title>Sheet.29</title>
					<ellipse cx="8.81317" cy="117.45" rx="8.81317" ry="9.00417" class="st3"/>
				</g>
				<g id="shape30-13" transform="translate(10.4452,-9.63074)">
					<title>Sheet.30</title>
					<path d="M11.42 121.74 A6.87427 7.02325 0 0 1 13.06 117.41 A30.0301 30.6809 0 0 1 4.9 111.07 A8.97964 9.17425
								 0 0 1 0 113.74 A62.6714 64.0296 -180 0 0 4.9 118.41 A26.6843 27.2626 -180 0 0 11.42 122.41 L11.42
								 121.74 ZM31.99 122.41 A43.5077 44.4506 0 0 1 22.85 121.41 L22.85 121.74 A5.40541 5.52256 0 0 1 21.22
								 125.75 A42.3261 43.2434 -180 0 0 32.31 126.41 C33.62 125.08 34.93 123.41 36.23 122.08 A17.2444 17.6182
								 0 0 1 31.99 122.41 Z" class="st2"/>
				</g>
				<g id="shape31-15" transform="translate(21.8697,-8.33719)">
					<title>Sheet.31</title>
					<ellipse cx="5.87545" cy="120.451" rx="5.87545" ry="6.00278" class="st4"/>
				</g>
				<g id="shape32-17" transform="translate(12.0773,-30.3474)">
					<title>Sheet.32</title>
					<path d="M14.04 113.78 A43.9614 44.9141 0 0 1 33.29 109.11 A21.9676 22.4437 -180 0 0 28.4 104.44 A50.0555 51.1403
								 -180 0 0 13.06 108.11 A30.1933 30.8476 -180 0 0 9.79 109.78 A61.1144 62.4389 0 0 1 3.26 100.11 A6.20186
								 6.33627 -180 0 0 0.33 101.11 A68.9484 70.4426 -180 0 0 7.18 111.45 A32.1224 32.8185 -180 0 0 -0
								 117.12 A9.30279 9.5044 0 0 1 4.24 120.78 A29.2499 29.8838 0 0 1 10.45 115.78 A72.9959 74.5779 -180
								 0 0 22.52 126.45 A6.77309 6.91987 0 0 1 24.48 123.12 A91.0433 93.0164 0 0 1 14.04 113.78 Z"
							class="st2"/>
				</g>
				<g id="shape33-19" transform="translate(34.5999,-22.6772)">
					<title>Sheet.33</title>
					<ellipse cx="6.20186" cy="120.118" rx="6.20186" ry="6.33627" class="st5"/>
				</g>
				<g id="shape34-21" transform="translate(44.7187,-21.3432)">
					<title>Sheet.34</title>
					<path d="M6.53 123.12 C6.2 122.79 5.88 122.79 5.55 122.45 C5.22 122.12 4.9 122.12 4.57 121.79 L4.24 121.79 L3.26
								 121.12 L2.94 121.12 L1.96 120.45 A4.75258 4.85558 0 0 1 0 123.45 C0.33 123.79 0.65 123.79 1.31 124.12
								 L1.63 124.12 C1.96 124.45 2.28 124.45 2.61 124.79 C3.59 125.45 4.57 125.79 5.55 126.45 C5.88 125.45
								 6.2 124.12 6.53 123.12 Z" class="st2"/>
				</g>
				<g id="shape35-23" transform="translate(-2.65787E-13,-22.0102)">
					<title>Sheet.35</title>
					<ellipse cx="8.81317" cy="117.45" rx="8.81317" ry="9.00417" class="st5"/>
				</g>
				<g id="shape36-25" transform="translate(21.8697,-8.33719)">
					<title>Sheet.36</title>
					<ellipse cx="5.87545" cy="120.451" rx="5.87545" ry="6.00278" class="st5"/>
				</g>
				<g id="shape37-27" transform="translate(11.4245,0)">
					<title>Sheet.37</title>
					<path d="M1.31 102.11 L40.8 102.11 C41.45 102.11 42.43 102.78 42.43 103.44 L42.43 124.79 A1.74958 1.78749 0 0
								 1 40.8 126.45 L1.31 126.45 A1.49497 1.52737 0 0 1 0 124.79 L0 103.78 A1.49497 1.52737 0 0 1 1.31
								 102.11 Z" class="st6"/>
				</g>
				<g id="shape38-29" transform="translate(13.0565,-16.3409)">
					<title>Sheet.38</title>
					<rect x="0" y="121.118" width="11.7509" height="5.3358" class="st7"/>
				</g>
				<g id="shape39-31" transform="translate(26.7659,-16.3409)">
					<title>Sheet.39</title>
					<rect x="0" y="121.118" width="11.7509" height="5.3358" class="st8"/>
				</g>
				<g id="shape40-33" transform="translate(13.0565,-9.33766)">
					<title>Sheet.40</title>
					<path d="M27.09 114.12 L38.84 114.12 L38.84 119.45 L27.09 119.45 L27.09 114.12 ZM0 121.12 L4.9 121.12 L4.9 126.45
								 L0 126.45 L0 121.12 Z" class="st7"/>
				</g>
				<g id="shape41-35" transform="translate(19.9112,-9.33766)">
					<title>Sheet.41</title>
					<path d="M27.09 121.12 L31.99 121.12 L31.99 126.45 L27.09 126.45 L27.09 121.12 ZM0 121.12 L11.75 121.12 L11.75
								 126.45 L0 126.45 L0 121.12 Z" class="st8"/>
				</g>
				<g id="shape42-37" transform="translate(13.0565,-2.33441)">
					<title>Sheet.42</title>
					<path d="M20.24 114.12 L31.99 114.12 L31.99 119.45 L20.24 119.45 L20.24 114.12 ZM0 121.12 L11.75 121.12 L11.75
								 126.45 L0 126.45 L0 121.12 Z" class="st7"/>
				</g>
				<g id="shape43-39" transform="translate(26.7659,-2.33441)">
					<title>Sheet.43</title>
					<rect x="0" y="121.118" width="11.7509" height="5.3358" class="st8"/>
				</g>
				<g id="shape44-41" transform="translate(40.1489,-2.33441)">
					<title>Sheet.44</title>
					<rect x="0" y="121.118" width="11.7509" height="5.3358" class="st7"/>
				</g>
			</g>
		</g>
	</g>
</svg>
