<?xml version="1.0" encoding="UTF-8" standalone="no"?>
<!DOCTYPE svg PUBLIC "-//W3C//DTD SVG 1.1//EN" "http://www.w3.org/Graphics/SVG/1.1/DTD/svg11.dtd">
<!-- Generated by Microsoft Visio, SVG Export Windows Virtual Desktop.svg Page-1 -->
<svg xmlns="http://www.w3.org/2000/svg" xmlns:xlink="http://www.w3.org/1999/xlink" xmlns:ev="http://www.w3.org/2001/xml-events"
		width="1.7186in" height="1.7186in" viewBox="0 0 123.739 123.739" xml:space="preserve" color-interpolation-filters="sRGB"
		class="st4">
	<style type="text/css">
	<![CDATA[
		.st1 {fill:url(#grad4-6);stroke:none;stroke-linecap:butt;stroke-width:33.5231}
		.st2 {fill:#005ba1;stroke:none;stroke-linecap:butt;stroke-width:33.5231}
		.st3 {fill:#f2f2f2;stroke:none;stroke-linecap:butt;stroke-width:33.5231}
		.st4 {fill:none;fill-rule:evenodd;font-size:12px;overflow:visible;stroke-linecap:square;stroke-miterlimit:3}
	]]>
	</style>

	<defs id="Patterns_And_Gradients">
		<radialGradient id="grad4-6" cx="0.5" cy="0" r="1.1">
			<stop offset="0" stop-color="#198ab3" stop-opacity="1"/>
			<stop offset="0.38" stop-color="#1a8cb5" stop-opacity="1"/>
			<stop offset="0.575" stop-color="#1c94bc" stop-opacity="1"/>
			<stop offset="0.725" stop-color="#21a1c8" stop-opacity="1"/>
			<stop offset="0.855" stop-color="#27b4d8" stop-opacity="1"/>
			<stop offset="0.97" stop-color="#2fccee" stop-opacity="1"/>
			<stop offset="1" stop-color="#32d4f5" stop-opacity="1"/>
		</radialGradient>
	</defs>
	<g>
		<title>Page-1</title>
		<g id="group20-1" transform="translate(33.5231,-33.5231)">
			<title>Windows Virtual Desktop</title>
			<g id="group21-2">
				<title>layer1</title>
				<g id="shape22-3">
					<title>circle19</title>
					<ellipse cx="28.3465" cy="95.3927" rx="28.3465" ry="28.3465" class="st1"/>
				</g>
				<g id="shape23-7" transform="translate(3.93182,-3.93182)">
					<title>circle21</title>
					<ellipse cx="24.4146" cy="99.3245" rx="24.4146" ry="24.4146" class="st2"/>
				</g>
				<g id="shape24-9" transform="translate(15.0396,-12.9509)">
					<title>path23</title>
					<path d="M13.64 111.47 L4.19 102.09 A1.69078 1.69078 -180 0 0 1.82 102.09 L0.63 103.27 A1.56406 1.56406 -180
								 0 0 0.16 104.4 A1.5874 1.5874 -180 0 0 0.63 105.53 L7.74 112.61 L0.47 119.82 A1.5774 1.5774 -180
								 0 0 0.47 122.07 L1.67 123.26 A1.69078 1.69078 -180 0 0 4.04 123.26 L13.64 113.72 A1.58407 1.58407
								 -180 0 0 14.11 112.59 A1.56072 1.56072 -180 0 0 13.64 111.47 L13.64 111.47 ZM12.49 103.93 A1.58407
								 1.58407 -180 0 0 12.96 105.06 L22.56 114.6 A1.69078 1.69078 -180 0 0 24.93 114.6 L26.13 113.41 A1.56406
								 1.56406 -180 0 0 26.6 112.29 A1.58407 1.58407 -180 0 0 26.13 111.16 L18.88 103.95 L25.99 96.87 A1.58407
								 1.58407 -180 0 0 26.46 95.74 A1.56406 1.56406 -180 0 0 25.99 94.62 L24.79 93.43 A1.69078 1.69078
								 -180 0 0 22.42 93.43 L12.97 102.81 A1.57406 1.57406 -180 0 0 12.49 103.93 L12.49 103.93 Z"
							class="st3"/>
				</g>
			</g>
		</g>
	</g>
</svg>
