<?xml version="1.0" encoding="UTF-8" standalone="no"?>
<!DOCTYPE svg PUBLIC "-//W3C//DTD SVG 1.1//EN" "http://www.w3.org/Graphics/SVG/1.1/DTD/svg11.dtd">
<!-- Generated by Microsoft Visio, SVG Export Workbook.svg Page-1 -->
<svg xmlns="http://www.w3.org/2000/svg" xmlns:xlink="http://www.w3.org/1999/xlink" xmlns:ev="http://www.w3.org/2001/xml-events"
		width="1.08803in" height="1.3511in" viewBox="0 0 78.3383 97.2794" xml:space="preserve" color-interpolation-filters="sRGB"
		class="st9">
	<style type="text/css">
	<![CDATA[
		.st1 {fill:#fcd116;stroke:none;stroke-linecap:butt;stroke-width:12.24}
		.st2 {fill:#68217a;fill-opacity:0.4;stroke:none;stroke-linecap:butt;stroke-width:12.24}
		.st3 {fill:#ffffff;fill-opacity:0.75;stroke:none;stroke-linecap:butt;stroke-width:12.24}
		.st4 {fill:#ffffff;fill-opacity:0.8;stroke:none;stroke-linecap:butt;stroke-width:12.24}
		.st5 {fill:#ffffff;fill-opacity:0.098;stroke:none;stroke-linecap:butt;stroke-width:12.24}
		.st6 {fill:#ffffff;stroke:none;stroke-linecap:butt;stroke-width:12.24}
		.st7 {fill:#000000;stroke:none;stroke-linecap:butt;stroke-width:12.24}
		.st8 {fill:#000000;fill-opacity:0.5;stroke:none;stroke-linecap:butt;stroke-width:12.24}
		.st9 {fill:none;fill-rule:evenodd;font-size:12px;overflow:visible;stroke-linecap:square;stroke-miterlimit:3}
	]]>
	</style>

	<g>
		<title>Page-1</title>
		<g id="group1-1" transform="translate(12.24,-28.3465)">
			<title>Workbook</title>
			<g id="group2-2">
				<title>g24</title>
				<g id="shape3-3" transform="translate(5.98425,-1.1811)">
					<title>path4</title>
					<path d="M8.38 41.77 C4.79 41.77 0 45.31 0 45.31 L2.39 45.31 L2.39 94.92 L44.28 94.92 L44.28 97.28 L47.87 93.74
								 L47.87 41.77 L8.38 41.77 Z" class="st1"/>
				</g>
				<g id="shape4-5" transform="translate(5.98425,-1.1811)">
					<title>path6</title>
					<path d="M8.38 41.77 C4.79 41.77 0 45.31 0 45.31 L2.39 45.31 L2.39 94.92 L44.28 94.92 L44.28 97.28 L47.87 93.74
								 L47.87 41.77 L8.38 41.77 Z" class="st2"/>
				</g>
				<g id="shape5-7" transform="translate(8.37795,-2.3622)">
					<title>path8</title>
					<path d="M7.18 44.13 C5.39 44.13 0 46.49 0 46.49 L1.2 46.49 L1.2 97.28 L41.89 97.28 L44.28 94.92 L44.28 44.13
								 L7.18 44.13 Z" class="st3"/>
				</g>
				<g id="shape6-9" transform="translate(9.5748,-53.1496)">
					<title>path10</title>
					<path d="M5.98 94.92 C3.59 94.92 0 97.28 0 97.28 L40.69 97.28 L43.09 94.92 L5.98 94.92 Z" class="st4"/>
				</g>
				<g id="shape7-11" transform="translate(4.7874,1.42109E-14)">
					<title>path12</title>
					<path d="M0 97.28 L0 93.74 L2.39 93.74 L3.59 92.55 L3.59 91.37 L2.39 90.19 L0 90.19 L0 86.65 L2.39 86.65 L3.59
								 85.47 L3.59 84.29 L2.39 83.11 L0 83.11 L0 79.56 L2.39 79.56 L3.59 78.38 L3.59 77.2 L2.39 76.02 L0
								 76.02 L0 72.48 L2.39 72.48 L3.59 71.3 L3.59 70.11 L2.39 68.93 L0 68.93 L0 65.39 L2.39 65.39 L3.59
								 64.21 L3.59 63.03 L2.39 61.85 L0 61.85 L0 58.3 L2.39 58.3 L3.59 57.12 L3.59 55.94 L2.39 54.76 L0
								 54.76 L0 51.22 L2.39 51.22 L3.59 50.04 L3.59 48.85 L2.39 47.67 L0 47.67 L0 44.13 L45.48 44.13 L45.48
								 97.28 L0 97.28 Z" class="st1"/>
				</g>
				<g id="shape8-13" transform="translate(4.7874,1.42109E-14)">
					<title>path14</title>
					<path d="M0 97.28 L0 93.74 L2.39 93.74 L3.59 92.55 L3.59 91.37 L2.39 90.19 L0 90.19 L0 86.65 L2.39 86.65 L3.59
								 85.47 L3.59 84.29 L2.39 83.11 L0 83.11 L0 79.56 L2.39 79.56 L3.59 78.38 L3.59 77.2 L2.39 76.02 L0
								 76.02 L0 72.48 L2.39 72.48 L3.59 71.3 L3.59 70.11 L2.39 68.93 L0 68.93 L0 65.39 L2.39 65.39 L3.59
								 64.21 L3.59 63.03 L2.39 61.85 L0 61.85 L0 58.3 L2.39 58.3 L3.59 57.12 L3.59 55.94 L2.39 54.76 L0
								 54.76 L0 51.22 L2.39 51.22 L3.59 50.04 L3.59 48.85 L2.39 47.67 L0 47.67 L0 44.13 L45.48 44.13 L45.48
								 97.28 L0 97.28 Z" class="st2"/>
				</g>
				<g id="shape9-15" transform="translate(4.7874,1.42109E-14)">
					<title>path16</title>
					<path d="M0 97.28 L0 93.74 L2.39 93.74 L3.59 92.55 L3.59 91.37 L2.39 90.19 L0 90.19 L0 86.65 L2.39 86.65 L3.59
								 85.47 L3.59 84.29 L2.39 83.11 L0 83.11 L0 79.56 L2.39 79.56 L3.59 78.38 L3.59 77.2 L2.39 76.02 L0
								 76.02 L0 72.48 L2.39 72.48 L3.59 71.3 L3.59 70.11 L2.39 68.93 L0 68.93 L0 65.39 L2.39 65.39 L3.59
								 64.21 L3.59 63.03 L2.39 61.85 L0 61.85 L0 58.3 L2.39 58.3 L3.59 57.12 L3.59 55.94 L2.39 54.76 L0
								 54.76 L0 51.22 L2.39 51.22 L3.59 50.04 L3.59 48.85 L2.39 47.67 L0 47.67 L0 44.13 L37.1 44.13 L8.38
								 97.28 L0 97.28 Z" class="st5"/>
				</g>
				<g id="shape10-17" transform="translate(20.3465,-30.7087)">
					<title>path18</title>
					<rect x="0" y="90.1928" width="19.1496" height="7.08661" class="st6"/>
				</g>
				<g id="shape11-19" transform="translate(5.29576E-14,-4.72441)">
					<title>path20</title>
					<path d="M0 53.58 L5.98 53.58 L5.98 54.76 L0 54.76 L0 53.58 ZM0 60.67 L5.98 60.67 L5.98 61.85 L0 61.85 L0 60.67
								 ZM0 67.75 L5.98 67.75 L5.98 68.93 L0 68.93 L0 67.75 ZM0 74.84 L5.98 74.84 L5.98 76.02 L0 76.02 L0
								 74.84 ZM0 81.93 L5.98 81.93 L5.98 83.11 L0 83.11 L0 81.93 ZM0 89.01 L5.98 89.01 L5.98 90.19 L0 90.19
								 L0 89.01 ZM0 96.1 L5.98 96.1 L5.98 97.28 L0 97.28 L0 96.1 Z" class="st7"/>
				</g>
				<g id="shape12-21" transform="translate(-2.69784E-14,-5.90551)">
					<title>path22</title>
					<path d="M1.8 51.22 L4.79 51.22 L4.79 52.4 L1.8 52.4 L1.8 51.22 ZM0.6 52.4 L1.8 52.4 L1.8 53.58 L0.6 53.58 L0.6
								 52.4 ZM0 53.58 L1.2 53.58 L1.2 54.76 L0 54.76 L0 53.58 ZM1.8 58.3 L4.79 58.3 L4.79 59.48 L1.8 59.48
								 L1.8 58.3 ZM0.6 59.48 L1.8 59.48 L1.8 60.67 L0.6 60.67 L0.6 59.48 ZM0 60.67 L1.2 60.67 L1.2 61.85
								 L0 61.85 L0 60.67 ZM1.8 65.39 L4.79 65.39 L4.79 66.57 L1.8 66.57 L1.8 65.39 ZM0.6 66.57 L1.8 66.57
								 L1.8 67.75 L0.6 67.75 L0.6 66.57 ZM0 67.75 L1.2 67.75 L1.2 68.93 L0 68.93 L0 67.75 ZM1.8 72.48 L4.79
								 72.48 L4.79 73.66 L1.8 73.66 L1.8 72.48 ZM0.6 73.66 L1.8 73.66 L1.8 74.84 L0.6 74.84 L0.6 73.66
								 ZM0 74.84 L1.2 74.84 L1.2 76.02 L0 76.02 L0 74.84 ZM1.8 79.56 L4.79 79.56 L4.79 80.74 L1.8 80.74
								 L1.8 79.56 ZM0.6 80.74 L1.8 80.74 L1.8 81.93 L0.6 81.93 L0.6 80.74 ZM0 81.93 L1.2 81.93 L1.2 83.11
								 L0 83.11 L0 81.93 ZM1.8 86.65 L4.79 86.65 L4.79 87.83 L1.8 87.83 L1.8 86.65 ZM0.6 87.83 L1.8 87.83
								 L1.8 89.01 L0.6 89.01 L0.6 87.83 ZM0 89.01 L1.2 89.01 L1.2 90.19 L0 90.19 L0 89.01 ZM1.8 93.74 L4.79
								 93.74 L4.79 94.92 L1.8 94.92 L1.8 93.74 ZM0.6 94.92 L1.8 94.92 L1.8 96.1 L0.6 96.1 L0.6 94.92 ZM0
								 96.1 L1.2 96.1 L1.2 97.28 L0 97.28 L0 96.1 Z" class="st8"/>
				</g>
			</g>
		</g>
	</g>
</svg>
