<?xml version="1.0" encoding="UTF-8" standalone="no"?>
<!DOCTYPE svg PUBLIC "-//W3C//DTD SVG 1.1//EN" "http://www.w3.org/Graphics/SVG/1.1/DTD/svg11.dtd">
<!-- Generated by Microsoft Visio, SVG Export Work Account.svg Page-1 -->
<svg xmlns="http://www.w3.org/2000/svg" xmlns:xlink="http://www.w3.org/1999/xlink" xmlns:ev="http://www.w3.org/2001/xml-events"
		width="0.944882in" height="1.25984in" viewBox="0 0 68.0315 90.7087" xml:space="preserve" color-interpolation-filters="sRGB"
		class="st2">
	<style type="text/css">
	<![CDATA[
		.st1 {fill:#58b4d9;stroke:none;stroke-linecap:butt;stroke-width:0.812473}
		.st2 {fill:none;fill-rule:evenodd;font-size:12px;overflow:visible;stroke-linecap:square;stroke-miterlimit:3}
	]]>
	</style>

	<g>
		<title>Page-1</title>
		<g id="group13-1" transform="translate(5.66929,-28.3465)">
			<title>Work Account</title>
			<g id="group14-2">
				<title>Microsoft_organization_account_</title>
				<g id="shape15-3">
					<title>path2</title>
					<path d="M34.61 34.02 L26.77 39.61 L19.64 41.04 L26.77 39.61 L27.48 43.28 L39.39 40.84 C41.12 40.43 42.85 41.65
								 43.26 43.38 L52.42 88.37 C52.62 89.18 52.42 90.2 52.01 90.71 L13.94 90.71 L5.9 51.01 C5.5 49.28
								 6.72 47.55 8.45 47.15 L20.46 44.7 L19.75 41.14 L14.55 34.02 L0 34.02 L0 90.71 L56.69 90.71 L56.69
								 34.02 L34.61 34.02 Z" class="st1"/>
				</g>
				<g id="shape16-5" transform="translate(22.6975,-46.82)">
					<title>circle4</title>
					<ellipse cx="1.01783" cy="89.6908" rx="1.01783" ry="1.01783" class="st1"/>
				</g>
				<g id="shape17-7" transform="translate(20.3565,-53.5377)">
					<title>polygon6</title>
					<path d="M5.5 87.55 L0 87.55 L2.75 90.71 L5.5 87.55 Z" class="st1"/>
				</g>
				<g id="shape18-9" transform="translate(9.66935,-6.51409)">
					<title>path8</title>
					<path d="M31.25 54.17 L0 60.48 L6.11 90.71 L11.91 89.49 L9.06 75.54 L14.96 74.32 L20.25 79.21 L23.21 72.69 L29.11
								 71.47 L31.86 85.31 L37.25 84.19 L31.25 54.17 ZM18.83 71.68 C15.78 72.29 12.72 70.35 12.11 67.2 C11.5
								 64.14 13.54 61.09 16.59 60.48 C19.64 59.87 22.7 61.8 23.31 64.96 C23.92 68.11 21.88 71.06 18.83
								 71.68 Z" class="st1"/>
				</g>
				<g id="shape19-11" transform="translate(17.0995,-40.713)">
					<title>path10</title>
					<path d="M0 90 C0.1 90.51 0.51 90.71 0.92 90.61 L14.66 87.86 C15.06 87.76 15.27 87.35 15.27 87.04 L15.27 86.94
								 C15.17 86.54 14.76 86.33 14.45 86.33 L11.2 87.04 L11.4 88.06 L4.27 89.49 L4.07 88.47 L0.81 89.18
								 C0.2 89.18 0 89.59 0 90 Z" class="st1"/>
				</g>
			</g>
		</g>
	</g>
</svg>
