<svg xmlns="http://www.w3.org/2000/svg" xmlns:xlink="http://www.w3.org/1999/xlink" contentStyleType="text/css" height="983px" preserveAspectRatio="none" style="width:4009px;height:983px;background:#FFFFFF;" version="1.1" viewBox="0 0 4009 983" width="4009px" zoomAndPan="magnify"><defs/><g><!--cluster Game Application--><g id="cluster_Game Application"><path d="M362.5,152.5 L502.6934,152.5 A3.75,3.75 0 0 1 505.1934,155 L512.1934,174.7969 L2011.5,174.7969 A2.5,2.5 0 0 1 2014,177.2969 L2014,974 A2.5,2.5 0 0 1 2011.5,976.5 L362.5,976.5 A2.5,2.5 0 0 1 360,974 L360,155 A2.5,2.5 0 0 1 362.5,152.5 " fill="none" style="stroke:#000000;stroke-width:1.5;"/><line style="stroke:#000000;stroke-width:1.5;" x1="360" x2="512.1934" y1="174.7969" y2="174.7969"/><text fill="#000000" font-family="sans-serif" font-size="14" font-weight="bold" lengthAdjust="spacing" textLength="139.1934" x="364" y="167.4951">Game Application</text></g><!--cluster Core Engine--><g id="cluster_Core Engine"><path d="M386.5,479 L482.4785,479 A3.75,3.75 0 0 1 484.9785,481.5 L491.9785,501.2969 L932.5,501.2969 A2.5,2.5 0 0 1 935,503.7969 L935,794 A2.5,2.5 0 0 1 932.5,796.5 L386.5,796.5 A2.5,2.5 0 0 1 384,794 L384,481.5 A2.5,2.5 0 0 1 386.5,479 " fill="none" style="stroke:#000000;stroke-width:1.5;"/><line style="stroke:#000000;stroke-width:1.5;" x1="384" x2="491.9785" y1="501.2969" y2="501.2969"/><text fill="#000000" font-family="sans-serif" font-size="14" font-weight="bold" lengthAdjust="spacing" textLength="94.9785" x="388" y="493.9951">Core Engine</text><text fill="#000000" font-family="sans-serif" font-size="14" font-style="italic" lengthAdjust="spacing" textLength="79.8301" x="623.585" y="516.292">&#171;#FFF4E6&#187;</text></g><!--cluster UI Layer--><g id="cluster_UI Layer"><path d="M1751.5,195.5 L1817.8447,195.5 A3.75,3.75 0 0 1 1820.3447,198 L1827.3447,217.7969 L1987.5,217.7969 A2.5,2.5 0 0 1 1990,220.2969 L1990,941.5 A2.5,2.5 0 0 1 1987.5,944 L1751.5,944 A2.5,2.5 0 0 1 1749,941.5 L1749,198 A2.5,2.5 0 0 1 1751.5,195.5 " fill="none" style="stroke:#000000;stroke-width:1.5;"/><line style="stroke:#000000;stroke-width:1.5;" x1="1749" x2="1827.3447" y1="217.7969" y2="217.7969"/><text fill="#000000" font-family="sans-serif" font-size="14" font-weight="bold" lengthAdjust="spacing" textLength="65.3447" x="1753" y="210.4951">UI Layer</text><text fill="#000000" font-family="sans-serif" font-size="14" font-style="italic" lengthAdjust="spacing" textLength="81.4775" x="1832.7612" y="232.792">&#171;#E8F8E8&#187;</text></g><!--cluster Game Logic--><g id="cluster_Game Logic"><path d="M1360.5,227.5 L1453.0537,227.5 A3.75,3.75 0 0 1 1455.5537,230 L1462.5537,249.7969 L1717.5,249.7969 A2.5,2.5 0 0 1 1720,252.2969 L1720,623 A2.5,2.5 0 0 1 1717.5,625.5 L1360.5,625.5 A2.5,2.5 0 0 1 1358,623 L1358,230 A2.5,2.5 0 0 1 1360.5,227.5 " fill="none" style="stroke:#000000;stroke-width:1.5;"/><line style="stroke:#000000;stroke-width:1.5;" x1="1358" x2="1462.5537" y1="249.7969" y2="249.7969"/><text fill="#000000" font-family="sans-serif" font-size="14" font-weight="bold" lengthAdjust="spacing" textLength="91.5537" x="1362" y="242.4951">Game Logic</text></g><!--cluster State Management--><g id="cluster_State Management"><path d="M1376.5,690.5 L1527.8359,690.5 A3.75,3.75 0 0 1 1530.3359,693 L1537.3359,712.7969 L1722.5,712.7969 A2.5,2.5 0 0 1 1725,715.2969 L1725,941.5 A2.5,2.5 0 0 1 1722.5,944 L1376.5,944 A2.5,2.5 0 0 1 1374,941.5 L1374,693 A2.5,2.5 0 0 1 1376.5,690.5 " fill="none" style="stroke:#000000;stroke-width:1.5;"/><line style="stroke:#000000;stroke-width:1.5;" x1="1374" x2="1537.3359" y1="712.7969" y2="712.7969"/><text fill="#000000" font-family="sans-serif" font-size="14" font-weight="bold" lengthAdjust="spacing" textLength="150.3359" x="1378" y="705.4951">State Management</text></g><!--cluster Entity System--><g id="cluster_Entity System"><path d="M961.5,690.5 L1072.5313,690.5 A3.75,3.75 0 0 1 1075.0313,693 L1082.0313,712.7969 L1347.5,712.7969 A2.5,2.5 0 0 1 1350,715.2969 L1350,950 A2.5,2.5 0 0 1 1347.5,952.5 L961.5,952.5 A2.5,2.5 0 0 1 959,950 L959,693 A2.5,2.5 0 0 1 961.5,690.5 " fill="none" style="stroke:#000000;stroke-width:1.5;"/><line style="stroke:#000000;stroke-width:1.5;" x1="959" x2="1082.0313" y1="712.7969" y2="712.7969"/><text fill="#000000" font-family="sans-serif" font-size="14" font-weight="bold" lengthAdjust="spacing" textLength="110.0313" x="963" y="705.4951">Entity System</text></g><!--cluster Content & Data--><g id="cluster_Content &amp; Data"><path d="M2113.5,382.5 L2236.3711,382.5 A3.75,3.75 0 0 1 2238.8711,385 L2245.8711,404.7969 L3328.5,404.7969 A2.5,2.5 0 0 1 3331,407.2969 L3331,834 A2.5,2.5 0 0 1 3328.5,836.5 L2113.5,836.5 A2.5,2.5 0 0 1 2111,834 L2111,385 A2.5,2.5 0 0 1 2113.5,382.5 " fill="none" style="stroke:#000000;stroke-width:1.5;"/><line style="stroke:#000000;stroke-width:1.5;" x1="2111" x2="2245.8711" y1="404.7969" y2="404.7969"/><text fill="#000000" font-family="sans-serif" font-size="14" font-weight="bold" lengthAdjust="spacing" textLength="121.8711" x="2115" y="397.4951">Content &amp; Data</text><text fill="#000000" font-family="sans-serif" font-size="14" font-style="italic" lengthAdjust="spacing" textLength="79.8916" x="2685.0542" y="419.792">&#171;#F0F0F0&#187;</text></g><!--cluster EpisodeData--><g id="cluster_EpisodeData"><path d="M2947,459.5 C2947,449.5 3123,449.5 3123,449.5 C3123,449.5 3299,449.5 3299,459.5 L3299,794.5 C3299,804.5 3123,804.5 3123,804.5 C3123,804.5 2947,804.5 2947,794.5 L2947,459.5 " fill="none" style="stroke:#181818;stroke-width:1;"/><path d="M2947,459.5 C2947,469.5 3123,469.5 3123,469.5 C3123,469.5 3299,469.5 3299,459.5 " fill="none" style="stroke:#181818;stroke-width:1;"/><text fill="#000000" font-family="sans-serif" font-size="14" font-weight="bold" lengthAdjust="spacing" textLength="152.9063" x="3046.5469" y="484.4951">Episode Definitions</text><text fill="#000000" font-family="sans-serif" font-size="14" font-weight="bold" lengthAdjust="spacing" textLength="51.707" x="3097.1465" y="500.792">(JSON)</text></g><!--cluster SaveData--><g id="cluster_SaveData"><path d="M2143,459.5 C2143,449.5 2335,449.5 2335,449.5 C2335,449.5 2527,449.5 2527,459.5 L2527,623.5 C2527,633.5 2335,633.5 2335,633.5 C2335,633.5 2143,633.5 2143,623.5 L2143,459.5 " fill="none" style="stroke:#181818;stroke-width:1;"/><path d="M2143,459.5 C2143,469.5 2335,469.5 2335,469.5 C2335,469.5 2527,469.5 2527,459.5 " fill="none" style="stroke:#181818;stroke-width:1;"/><text fill="#000000" font-family="sans-serif" font-size="14" font-weight="bold" lengthAdjust="spacing" textLength="80.2334" x="2294.8833" y="484.4951">Save Data</text><text fill="#000000" font-family="sans-serif" font-size="14" font-weight="bold" lengthAdjust="spacing" textLength="116.1426" x="2276.9287" y="500.792">(LocalStorage)</text></g><!--cluster Assets--><g id="cluster_Assets"><path d="M2567,491.5 C2567,481.5 2737,481.5 2737,481.5 C2737,481.5 2907,481.5 2907,491.5 L2907,794.5 C2907,804.5 2737,804.5 2737,804.5 C2737,804.5 2567,804.5 2567,794.5 L2567,491.5 " fill="none" style="stroke:#181818;stroke-width:1;"/><path d="M2567,491.5 C2567,501.5 2737,501.5 2737,501.5 C2737,501.5 2907,501.5 2907,491.5 " fill="none" style="stroke:#181818;stroke-width:1;"/><text fill="#000000" font-family="sans-serif" font-size="14" font-weight="bold" lengthAdjust="spacing" textLength="104.6855" x="2684.6572" y="516.4951">Asset Library</text></g><!--cluster Development Tools--><g id="cluster_Development Tools"><path d="M8.5,6 L161.21,6 A3.75,3.75 0 0 1 163.71,8.5 L170.71,28.2969 L333.5,28.2969 A2.5,2.5 0 0 1 336,30.7969 L336,331 A2.5,2.5 0 0 1 333.5,333.5 L8.5,333.5 A2.5,2.5 0 0 1 6,331 L6,8.5 A2.5,2.5 0 0 1 8.5,6 " fill="none" style="stroke:#000000;stroke-width:1.5;"/><line style="stroke:#000000;stroke-width:1.5;" x1="6" x2="170.71" y1="28.2969" y2="28.2969"/><text fill="#000000" font-family="sans-serif" font-size="14" font-weight="bold" lengthAdjust="spacing" textLength="151.71" x="10" y="20.9951">Development Tools</text></g><!--entity Render--><g id="elem_Render"><rect fill="#E8F4F8" height="52.5938" rx="2.5" ry="2.5" style="stroke:#333333;stroke-width:0.5;" width="144.5508" x="400.5" y="565"/><text fill="#000000" font-family="sans-serif" font-size="14" lengthAdjust="spacing" textLength="124.5508" x="410.5" y="587.9951">Rendering Engine</text><text fill="#000000" font-family="sans-serif" font-size="14" lengthAdjust="spacing" textLength="62.3096" x="410.5" y="604.292">(Canvas)</text></g><!--entity Sim--><g id="elem_Sim"><rect fill="#E8F4F8" height="36.2969" rx="2.5" ry="2.5" style="stroke:#333333;stroke-width:0.5;" width="147.0049" x="580.5" y="573.5"/><text fill="#000000" font-family="sans-serif" font-size="14" lengthAdjust="spacing" textLength="127.0049" x="590.5" y="596.4951">Simulation Engine</text></g><!--entity Physics--><g id="elem_Physics"><rect fill="#E8F4F8" height="36.2969" rx="2.5" ry="2.5" style="stroke:#333333;stroke-width:0.5;" width="147.8662" x="407" y="744.5"/><text fill="#000000" font-family="sans-serif" font-size="14" lengthAdjust="spacing" textLength="127.8662" x="417" y="767.4951">Physics/Animation</text></g><!--entity Interaction--><g id="elem_Interaction"><rect fill="#E8F4F8" height="36.2969" rx="2.5" ry="2.5" style="stroke:#333333;stroke-width:0.5;" width="155.5293" x="763" y="573.5"/><text fill="#000000" font-family="sans-serif" font-size="14" lengthAdjust="spacing" textLength="135.5293" x="773" y="596.4951">Interaction Handler</text></g><!--entity Menu--><g id="elem_Menu"><rect fill="#E8F4F8" height="36.2969" rx="2.5" ry="2.5" style="stroke:#333333;stroke-width:0.5;" width="96.3096" x="1878" y="281.5"/><text fill="#000000" font-family="sans-serif" font-size="14" lengthAdjust="spacing" textLength="76.3096" x="1888" y="304.4951">Main Menu</text></g><!--entity EpisodeUI--><g id="elem_EpisodeUI"><rect fill="#E8F4F8" height="36.2969" rx="2.5" ry="2.5" style="stroke:#333333;stroke-width:0.5;" width="143.9492" x="1830" y="573.5"/><text fill="#000000" font-family="sans-serif" font-size="14" lengthAdjust="spacing" textLength="123.9492" x="1840" y="596.4951">Episode Selection</text></g><!--entity HUD--><g id="elem_HUD"><rect fill="#E8F4F8" height="36.2969" rx="2.5" ry="2.5" style="stroke:#333333;stroke-width:0.5;" width="97.6836" x="1853" y="744.5"/><text fill="#000000" font-family="sans-serif" font-size="14" lengthAdjust="spacing" textLength="77.6836" x="1863" y="767.4951">Game HUD</text></g><!--entity Results--><g id="elem_Results"><rect fill="#E8F4F8" height="36.2969" rx="2.5" ry="2.5" style="stroke:#333333;stroke-width:0.5;" width="128.623" x="1837.5" y="892"/><text fill="#000000" font-family="sans-serif" font-size="14" lengthAdjust="spacing" textLength="108.623" x="1847.5" y="914.9951">Win/Fail Screen</text></g><!--entity Settings--><g id="elem_Settings"><rect fill="#E8F4F8" height="36.2969" rx="2.5" ry="2.5" style="stroke:#333333;stroke-width:0.5;" width="77.4219" x="1765.5" y="281.5"/><text fill="#000000" font-family="sans-serif" font-size="14" lengthAdjust="spacing" textLength="57.4219" x="1775.5" y="304.4951">Settings</text></g><!--entity EpisodeMgr--><g id="elem_EpisodeMgr"><rect fill="#E8F4F8" height="36.2969" rx="2.5" ry="2.5" style="stroke:#333333;stroke-width:0.5;" width="140.7979" x="1539.5" y="281.5"/><text fill="#000000" font-family="sans-serif" font-size="14" lengthAdjust="spacing" textLength="120.7979" x="1549.5" y="304.4951">Episode Manager</text></g><!--entity WinCheck--><g id="elem_WinCheck"><rect fill="#E8F4F8" height="36.2969" rx="2.5" ry="2.5" style="stroke:#333333;stroke-width:0.5;" width="189.1758" x="1374.5" y="573.5"/><text fill="#000000" font-family="sans-serif" font-size="14" lengthAdjust="spacing" textLength="169.1758" x="1384.5" y="596.4951">Win Condition Evaluator</text></g><!--entity Hints--><g id="elem_Hints"><rect fill="#E8F4F8" height="36.2969" rx="2.5" ry="2.5" style="stroke:#333333;stroke-width:0.5;" width="105.4355" x="1598.5" y="573.5"/><text fill="#000000" font-family="sans-serif" font-size="14" lengthAdjust="spacing" textLength="85.4355" x="1608.5" y="596.4951">Hint System</text></g><!--entity Tutorial--><g id="elem_Tutorial"><rect fill="#E8F4F8" height="36.2969" rx="2.5" ry="2.5" style="stroke:#333333;stroke-width:0.5;" width="130.25" x="1374" y="281.5"/><text fill="#000000" font-family="sans-serif" font-size="14" lengthAdjust="spacing" textLength="110.25" x="1384" y="304.4951">Tutorial System</text></g><!--entity GameState--><g id="elem_GameState"><rect fill="#E8F4F8" height="36.2969" rx="2.5" ry="2.5" style="stroke:#333333;stroke-width:0.5;" width="144.9473" x="1390.5" y="744.5"/><text fill="#000000" font-family="sans-serif" font-size="14" lengthAdjust="spacing" textLength="124.9473" x="1400.5" y="767.4951">Game State Store</text></g><!--entity Progress--><g id="elem_Progress"><rect fill="#E8F4F8" height="36.2969" rx="2.5" ry="2.5" style="stroke:#333333;stroke-width:0.5;" width="138.1182" x="1571" y="744.5"/><text fill="#000000" font-family="sans-serif" font-size="14" lengthAdjust="spacing" textLength="118.1182" x="1581" y="767.4951">Progress Tracker</text></g><!--entity SaveLoad--><g id="elem_SaveLoad"><rect fill="#E8F4F8" height="36.2969" rx="2.5" ry="2.5" style="stroke:#333333;stroke-width:0.5;" width="149.5684" x="1478" y="892"/><text fill="#000000" font-family="sans-serif" font-size="14" lengthAdjust="spacing" textLength="129.5684" x="1488" y="914.9951">Save/Load System</text></g><!--entity EntityFactory--><g id="elem_EntityFactory"><rect fill="#E8F4F8" height="36.2969" rx="2.5" ry="2.5" style="stroke:#333333;stroke-width:0.5;" width="117.7471" x="1024" y="744.5"/><text fill="#000000" font-family="sans-serif" font-size="14" lengthAdjust="spacing" textLength="97.7471" x="1034" y="767.4951">Entity Factory</text></g><!--entity EntityTypes--><g id="elem_EntityTypes"><rect fill="#E8F4F8" height="52.5938" rx="2.5" ry="2.5" style="stroke:#333333;stroke-width:0.5;" width="158.8174" x="974.5" y="883.5"/><text fill="#000000" font-family="sans-serif" font-size="14" lengthAdjust="spacing" textLength="86.9531" x="984.5" y="906.4951">Entity Types</text><text fill="#000000" font-family="sans-serif" font-size="14" lengthAdjust="spacing" textLength="138.8174" x="984.5" y="922.792">(Triangle/Circle/etc)</text></g><!--entity Connections--><g id="elem_Connections"><rect fill="#E8F4F8" height="36.2969" rx="2.5" ry="2.5" style="stroke:#333333;stroke-width:0.5;" width="165.0313" x="1168.5" y="892"/><text fill="#000000" font-family="sans-serif" font-size="14" lengthAdjust="spacing" textLength="145.0313" x="1178.5" y="914.9951">Connection Manager</text></g><!--entity Episode Config--><g id="elem_Episode Config"><rect fill="#E8F4F8" height="36.2969" rx="2.5" ry="2.5" style="stroke:#333333;stroke-width:0.5;" width="124.3506" x="2990" y="573.5"/><text fill="#000000" font-family="sans-serif" font-size="14" lengthAdjust="spacing" textLength="104.3506" x="3000" y="596.4951">Episode Config</text></g><!--entity Win Conditions--><g id="elem_Win Conditions"><rect fill="#E8F4F8" height="36.2969" rx="2.5" ry="2.5" style="stroke:#333333;stroke-width:0.5;" width="125.1572" x="3149.5" y="573.5"/><text fill="#000000" font-family="sans-serif" font-size="14" lengthAdjust="spacing" textLength="105.1572" x="3159.5" y="596.4951">Win Conditions</text></g><!--entity Initial State--><g id="elem_Initial State"><rect fill="#E8F4F8" height="36.2969" rx="2.5" ry="2.5" style="stroke:#333333;stroke-width:0.5;" width="100.2471" x="3002" y="744.5"/><text fill="#000000" font-family="sans-serif" font-size="14" lengthAdjust="spacing" textLength="80.2471" x="3012" y="767.4951">Initial State</text></g><!--entity Entity Limits--><g id="elem_Entity Limits"><rect fill="#E8F4F8" height="36.2969" rx="2.5" ry="2.5" style="stroke:#333333;stroke-width:0.5;" width="107.3223" x="3137.5" y="744.5"/><text fill="#000000" font-family="sans-serif" font-size="14" lengthAdjust="spacing" textLength="87.3223" x="3147.5" y="767.4951">Entity Limits</text></g><!--entity Player Progress--><g id="elem_Player Progress"><rect fill="#E8F4F8" height="36.2969" rx="2.5" ry="2.5" style="stroke:#333333;stroke-width:0.5;" width="128.623" x="2373.5" y="573.5"/><text fill="#000000" font-family="sans-serif" font-size="14" lengthAdjust="spacing" textLength="108.623" x="2383.5" y="596.4951">Player Progress</text></g><!--entity Unlocked Episodes--><g id="elem_Unlocked Episodes"><rect fill="#E8F4F8" height="36.2969" rx="2.5" ry="2.5" style="stroke:#333333;stroke-width:0.5;" width="151.6055" x="2186" y="573.5"/><text fill="#000000" font-family="sans-serif" font-size="14" lengthAdjust="spacing" textLength="131.6055" x="2196" y="596.4951">Unlocked Episodes</text></g><!--entity Visual Themes--><g id="elem_Visual Themes"><rect fill="#E8F4F8" height="36.2969" rx="2.5" ry="2.5" style="stroke:#333333;stroke-width:0.5;" width="122.1357" x="2610" y="573.5"/><text fill="#000000" font-family="sans-serif" font-size="14" lengthAdjust="spacing" textLength="102.1357" x="2620" y="596.4951">Visual Themes</text></g><!--entity Sound Effects--><g id="elem_Sound Effects"><rect fill="#E8F4F8" height="36.2969" rx="2.5" ry="2.5" style="stroke:#333333;stroke-width:0.5;" width="116.332" x="2767" y="573.5"/><text fill="#000000" font-family="sans-serif" font-size="14" lengthAdjust="spacing" textLength="96.332" x="2777" y="596.4951">Sound Effects</text></g><!--entity UI Graphics--><g id="elem_UI Graphics"><rect fill="#E8F4F8" height="36.2969" rx="2.5" ry="2.5" style="stroke:#333333;stroke-width:0.5;" width="100.6504" x="2620.5" y="744.5"/><text fill="#000000" font-family="sans-serif" font-size="14" lengthAdjust="spacing" textLength="80.6504" x="2630.5" y="767.4951">UI Graphics</text></g><!--entity Editor--><g id="elem_Editor"><rect fill="#E8F4F8" height="36.2969" rx="2.5" ry="2.5" style="stroke:#333333;stroke-width:0.5;" width="103.084" x="205.5" y="60"/><text fill="#000000" font-family="sans-serif" font-size="14" lengthAdjust="spacing" textLength="83.084" x="215.5" y="82.9951">Level Editor</text></g><!--entity Validator--><g id="elem_Validator"><rect fill="#E8F4F8" height="36.2969" rx="2.5" ry="2.5" style="stroke:#333333;stroke-width:0.5;" width="142.6436" x="176.5" y="281.5"/><text fill="#000000" font-family="sans-serif" font-size="14" lengthAdjust="spacing" textLength="122.6436" x="186.5" y="304.4951">Episode Validator</text></g><!--entity Playtest--><g id="elem_Playtest"><rect fill="#E8F4F8" height="36.2969" rx="2.5" ry="2.5" style="stroke:#333333;stroke-width:0.5;" width="118.6768" x="22.5" y="281.5"/><text fill="#000000" font-family="sans-serif" font-size="14" lengthAdjust="spacing" textLength="98.6768" x="32.5" y="304.4951">Playtest Mode</text></g><!--entity UI--><g id="elem_UI"><ellipse cx="2057" cy="591.5" fill="#F1F1F1" rx="8" ry="8" style="stroke:#181818;stroke-width:0.5;"/><text fill="#000000" font-family="sans-serif" font-size="14" lengthAdjust="spacing" textLength="14.376" x="2049.812" y="621.4951">UI</text></g><g id="elem_GMN72"><path d="M3347.5,564 L3347.5,619.3984 L3564.4395,619.3984 L3564.4395,574 L3554.4395,564 L3347.5,564 " fill="#FEFFDD" style="stroke:#181818;stroke-width:0.5;"/><path d="M3554.4395,564 L3554.4395,574 L3564.4395,574 L3554.4395,564 " fill="#FEFFDD" style="stroke:#181818;stroke-width:1;"/><text fill="#000000" font-family="sans-serif" font-size="13" lengthAdjust="spacing" textLength="195.9395" x="3353.5" y="581.0669">Canvas-based particle system</text><text fill="#000000" font-family="sans-serif" font-size="13" lengthAdjust="spacing" textLength="176.8774" x="3353.5" y="596.1997">Optimized for thousands of</text><text fill="#000000" font-family="sans-serif" font-size="13" lengthAdjust="spacing" textLength="188.1636" x="3353.5" y="611.3325">concurrent event animations</text></g><g id="elem_GMN75"><path d="M3600,564 L3600,619.3984 L3803.9712,619.3984 L3803.9712,574 L3793.9712,564 L3600,564 " fill="#FEFFDD" style="stroke:#181818;stroke-width:0.5;"/><path d="M3793.9712,564 L3793.9712,574 L3803.9712,574 L3793.9712,564 " fill="#FEFFDD" style="stroke:#181818;stroke-width:1;"/><text fill="#000000" font-family="sans-serif" font-size="13" lengthAdjust="spacing" textLength="182.9712" x="3606" y="581.0669">Data-driven episode system</text><text fill="#000000" font-family="sans-serif" font-size="13" lengthAdjust="spacing" textLength="164.7788" x="3606" y="596.1997">No code changes needed</text><text fill="#000000" font-family="sans-serif" font-size="13" lengthAdjust="spacing" textLength="110.6206" x="3606" y="611.3325">for new episodes</text></g><g id="elem_GMN78"><path d="M3839.5,556 L3839.5,626.5313 L4002.3701,626.5313 L4002.3701,566 L3992.3701,556 L3839.5,556 " fill="#FEFFDD" style="stroke:#181818;stroke-width:0.5;"/><path d="M3992.3701,556 L3992.3701,566 L4002.3701,566 L3992.3701,556 " fill="#FEFFDD" style="stroke:#181818;stroke-width:1;"/><text fill="#000000" font-family="sans-serif" font-size="13" lengthAdjust="spacing" textLength="120.0596" x="3845.5" y="573.0669">Executes topology</text><text fill="#000000" font-family="sans-serif" font-size="13" lengthAdjust="spacing" textLength="105.168" x="3845.5" y="588.1997">Calculates flows</text><text fill="#000000" font-family="sans-serif" font-size="13" lengthAdjust="spacing" textLength="141.8701" x="3845.5" y="603.3325">Detects backpressure</text><text fill="#000000" font-family="sans-serif" font-size="13" lengthAdjust="spacing" textLength="104.8696" x="3845.5" y="618.4653">Handles failures</text></g><g id="elem_GMN81"><path d="M352,50.5 L352,74 L308.74,78 L352,82 L352,105.8984 A0,0 0 0 0 352,105.8984 L520.2402,105.8984 A0,0 0 0 0 520.2402,105.8984 L520.2402,60.5 L510.2402,50.5 L352,50.5 A0,0 0 0 0 352,50.5 " fill="#FEFFDD" style="stroke:#181818;stroke-width:0.5;"/><path d="M510.2402,50.5 L510.2402,60.5 L520.2402,60.5 L510.2402,50.5 " fill="#FEFFDD" style="stroke:#181818;stroke-width:0.5;"/><text fill="#000000" font-family="sans-serif" font-size="13" lengthAdjust="spacing" textLength="101.0864" x="358" y="67.5669">Internal tool for</text><text fill="#000000" font-family="sans-serif" font-size="13" lengthAdjust="spacing" textLength="107.2627" x="358" y="82.6997">content creation</text><text fill="#000000" font-family="sans-serif" font-size="13" lengthAdjust="spacing" textLength="147.2402" x="358" y="97.8325">Not shipped to players</text></g><!--link Render to Physics--><g id="link_Render_Physics"><path d="M474.22,618.17 C475.87,653.07 478.4964,708.5667 479.9064,738.3667 " fill="none" id="Render-to-Physics" style="stroke:#181818;stroke-width:1;"/><polygon fill="#181818" points="480.19,744.36,483.7602,735.181,479.9537,739.3656,475.7691,735.5591,480.19,744.36" style="stroke:#181818;stroke-width:1;"/></g><!--link Sim to Physics--><g id="link_Sim_Physics"><path d="M636.46,609.63 C603.3,642.03 536.0715,707.6968 502.8815,740.1268 " fill="none" id="Sim-to-Physics" style="stroke:#181818;stroke-width:1;"/><polygon fill="#181818" points="498.59,744.32,507.8227,740.8912,502.1662,740.8256,502.2318,735.1692,498.59,744.32" style="stroke:#181818;stroke-width:1;"/></g><!--link Menu to EpisodeUI--><g id="link_Menu_EpisodeUI"><path d="M1924.57,317.77 C1920.3,369.35 1908.175,515.8805 1903.915,567.3405 " fill="none" id="Menu-to-EpisodeUI" style="stroke:#181818;stroke-width:1;"/><polygon fill="#181818" points="1903.42,573.32,1908.1489,564.6807,1903.8325,568.337,1900.1761,564.0207,1903.42,573.32" style="stroke:#181818;stroke-width:1;"/></g><!--link EpisodeUI to HUD--><g id="link_EpisodeUI_HUD"><path d="M1902,609.63 C1902,642.03 1902,705.89 1902,738.32 " fill="none" id="EpisodeUI-to-HUD" style="stroke:#181818;stroke-width:1;"/><polygon fill="#181818" points="1902,744.32,1906,735.32,1902,739.32,1898,735.32,1902,744.32" style="stroke:#181818;stroke-width:1;"/></g><!--link HUD to Results--><g id="link_HUD_Results"><path d="M1902,780.76 C1902,808.76 1902,857.77 1902,885.76 " fill="none" id="HUD-to-Results" style="stroke:#181818;stroke-width:1;"/><polygon fill="#181818" points="1902,891.76,1906,882.76,1902,886.76,1898,882.76,1902,891.76" style="stroke:#181818;stroke-width:1;"/></g><!--link EpisodeMgr to WinCheck--><g id="link_EpisodeMgr_WinCheck"><path d="M1601.6,317.77 C1576.52,369.35 1504.9936,516.464 1479.9736,567.924 " fill="none" id="EpisodeMgr-to-WinCheck" style="stroke:#181818;stroke-width:1;"/><polygon fill="#181818" points="1477.35,573.32,1484.8827,566.975,1479.5363,568.8233,1477.688,563.4769,1477.35,573.32" style="stroke:#181818;stroke-width:1;"/></g><!--link EpisodeMgr to Hints--><g id="link_EpisodeMgr_Hints"><path d="M1612.44,317.77 C1619.73,369.35 1640.4607,515.919 1647.7307,567.379 " fill="none" id="EpisodeMgr-to-Hints" style="stroke:#181818;stroke-width:1;"/><polygon fill="#181818" points="1648.57,573.32,1651.2717,563.8489,1647.8706,568.3692,1643.3504,564.968,1648.57,573.32" style="stroke:#181818;stroke-width:1;"/></g><!--link Progress to SaveLoad--><g id="link_Progress_SaveLoad"><path d="M1629.68,780.76 C1612.93,808.76 1583.1183,858.6199 1566.3883,886.6099 " fill="none" id="Progress-to-SaveLoad" style="stroke:#181818;stroke-width:1;"/><polygon fill="#181818" points="1563.31,891.76,1571.3609,886.087,1565.8753,887.4682,1564.494,881.9826,1563.31,891.76" style="stroke:#181818;stroke-width:1;"/></g><!--link GameState to SaveLoad--><g id="link_GameState_SaveLoad"><path d="M1473.68,780.76 C1491,808.76 1521.8628,858.6678 1539.1828,886.6578 " fill="none" id="GameState-to-SaveLoad" style="stroke:#181818;stroke-width:1;"/><polygon fill="#181818" points="1542.34,891.76,1541.0057,882.0019,1539.709,887.5082,1534.2028,886.2115,1542.34,891.76" style="stroke:#181818;stroke-width:1;"/></g><!--link EntityFactory to EntityTypes--><g id="link_EntityFactory_EntityTypes"><path d="M1079.56,780.76 C1074.49,806.21 1066.1425,848.0557 1060.2625,877.5657 " fill="none" id="EntityFactory-to-EntityTypes" style="stroke:#181818;stroke-width:1;"/><polygon fill="#181818" points="1059.09,883.45,1064.7716,875.4052,1060.0671,878.5464,1056.9258,873.8419,1059.09,883.45" style="stroke:#181818;stroke-width:1;"/></g><!--link EntityFactory to Connections--><g id="link_EntityFactory_Connections"><path d="M1102.93,780.76 C1135.35,808.84 1194.585,860.1414 1226.815,888.0614 " fill="none" id="EntityFactory-to-Connections" style="stroke:#181818;stroke-width:1;"/><polygon fill="#181818" points="1231.35,891.99,1227.1665,883.0738,1227.5708,888.7162,1221.9284,889.1205,1231.35,891.99" style="stroke:#181818;stroke-width:1;"/></g><!--link Editor to Validator--><g id="link_Editor_Validator"><path d="M256.29,96.22 C254.61,137.26 250.6259,234.405 248.9459,275.365 " fill="none" id="Editor-to-Validator" style="stroke:#181818;stroke-width:1;"/><polygon fill="#181818" points="248.7,281.36,253.0655,272.5315,248.9049,276.3642,245.0722,272.2036,248.7,281.36" style="stroke:#181818;stroke-width:1;"/></g><!--link Editor to Playtest--><g id="link_Editor_Playtest"><path d="M222.4,96.22 C201.98,107.71 176.73,124.39 159,144.5 C121.64,186.88 99.3567,244.9244 89.2667,275.3844 " fill="none" id="Editor-to-Playtest" style="stroke:#181818;stroke-width:1;"/><polygon fill="#181818" points="87.38,281.08,94.0072,273.7943,88.9523,276.3336,86.413,271.2787,87.38,281.08" style="stroke:#181818;stroke-width:1;"/></g><!--link UI to GameState--><g id="link_UI_GameState"><path d="M2050.6,600.53 C2039.74,613.5 2016.27,638.7 1990,649.5 C1809.86,723.58 1732.56,607.03 1553,682.5 C1520.99,695.95 1496.3139,720.8882 1480.3339,739.7882 " fill="none" id="UI-to-GameState" style="stroke:#181818;stroke-width:1;"/><polygon fill="#181818" points="1476.46,744.37,1485.3254,740.0799,1479.6883,740.5518,1479.2163,734.9147,1476.46,744.37" style="stroke:#181818;stroke-width:1;"/><text fill="#000000" font-family="sans-serif" font-size="13" lengthAdjust="spacing" textLength="52.5776" x="1960" y="670.5669">updates</text></g><!--link GameState to Sim--><g id="link_GameState_Sim"><path d="M1445.69,744.3 C1424.97,725.03 1388.26,694.88 1350,682.5 C1322.83,673.71 864.27,678.54 836,674.5 C794.48,668.57 783.4,666.37 745,649.5 C720.59,638.78 699.9693,625.6995 682.1793,613.1995 " fill="none" id="GameState-to-Sim" style="stroke:#181818;stroke-width:1;"/><polygon fill="#181818" points="677.27,609.75,682.3343,618.1971,681.3611,612.6246,686.9336,611.6513,677.27,609.75" style="stroke:#181818;stroke-width:1;"/><text fill="#000000" font-family="sans-serif" font-size="13" lengthAdjust="spacing" textLength="39.6729" x="837" y="670.5669">drives</text></g><!--link Sim to EntityTypes--><g id="link_Sim_EntityTypes"><path d="M671.17,609.71 C714.33,652.46 831.74,765.68 942,844.5 C961.71,858.59 979.4826,869.3706 999.5026,880.4706 " fill="none" id="Sim-to-EntityTypes" style="stroke:#181818;stroke-width:1;"/><polygon fill="#181818" points="1004.75,883.38,998.8185,875.5176,1000.3772,880.9555,994.9393,882.5142,1004.75,883.38" style="stroke:#181818;stroke-width:1;"/><text fill="#000000" font-family="sans-serif" font-size="13" lengthAdjust="spacing" textLength="62.7339" x="943" y="767.0669">simulates</text></g><!--link Render to EntityTypes--><g id="link_Render_EntityTypes"><path d="M503.6,618.12 C523.77,635.52 550.36,659.49 572,682.5 C635.24,749.76 622.72,797.2 702,844.5 C746.95,871.32 879.2685,890.1015 968.5385,900.2615 " fill="none" id="Render-to-EntityTypes" style="stroke:#181818;stroke-width:1;"/><polygon fill="#181818" points="974.5,900.94,966.0101,895.9479,969.5321,900.3746,965.1054,903.8966,974.5,900.94" style="stroke:#181818;stroke-width:1;"/><text fill="#000000" font-family="sans-serif" font-size="13" lengthAdjust="spacing" textLength="38.9683" x="703" y="767.0669">draws</text></g><!--link EpisodeMgr to EpisodeData--><g id="link_EpisodeMgr_EpisodeData"><path d="M1656.59,317.52 C1683.26,326.43 1717.57,336.5 1749,341.5 C1752.95,342.13 2895.88,372.01 2899,374.5 C2918.085,389.7125 2931.1681,410.5188 2940.0477,433.2444 C2942.2675,438.9258 2944.2247,444.7271 2945.9472,450.5911 C2946.1625,451.3241 2946.3742,452.058 2946.5822,452.7929 C2946.6863,453.1603 2945.1829,447.747 2945.2851,448.1148 " fill="none" id="EpisodeMgr-to-EpisodeData" style="stroke:#181818;stroke-width:1;"/><polygon fill="#181818" points="2946.8916,453.8957,2948.3358,444.1533,2945.5528,449.0783,2940.6279,446.2954,2946.8916,453.8957" style="stroke:#181818;stroke-width:1;"/><text fill="#000000" font-family="sans-serif" font-size="13" lengthAdjust="spacing" textLength="34.5566" x="2650" y="362.5669">loads</text></g><!--link EpisodeMgr to EntityFactory--><g id="link_EpisodeMgr_EntityFactory"><path d="M1581.02,317.55 C1564.12,326.52 1542.05,336.65 1521,341.5 C1500.26,346.27 1154.05,335.52 1138,349.5 C1028.58,444.8 1132.9,531.73 1107,674.5 C1102.53,699.17 1096.0963,721.2647 1090.5363,738.6647 " fill="none" id="EpisodeMgr-to-EntityFactory" style="stroke:#181818;stroke-width:1;"/><polygon fill="#181818" points="1088.71,744.38,1095.2596,737.0246,1090.2319,739.6172,1087.6392,734.5895,1088.71,744.38" style="stroke:#181818;stroke-width:1;"/><text fill="#000000" font-family="sans-serif" font-size="13" lengthAdjust="spacing" textLength="100.8833" x="1115" y="596.0669">creates entities</text></g><!--link WinCheck to GameState--><g id="link_WinCheck_GameState"><path d="M1468.39,609.63 C1467.24,642.03 1464.9726,705.8938 1463.8226,738.3238 " fill="none" id="WinCheck-to-GameState" style="stroke:#181818;stroke-width:1;"/><polygon fill="#181818" points="1463.61,744.32,1467.9264,735.4674,1463.7872,739.3231,1459.9315,735.1839,1463.61,744.32" style="stroke:#181818;stroke-width:1;"/><text fill="#000000" font-family="sans-serif" font-size="13" lengthAdjust="spacing" textLength="63.3433" x="1468" y="670.5669">evaluates</text></g><!--link Progress to SaveData--><g id="link_Progress_SaveData"><path d="M1656.59,744.36 C1676.48,725.14 1711.79,695.03 1749,682.5 C1767.64,676.22 2086.05,684.48 2103,674.5 C2120.915,663.96 2132.8225,643.93 2140.2963,626.305 C2141.2305,624.1019 2139.9666,627.546 2140.7653,625.4412 " fill="none" id="Progress-to-SaveData" style="stroke:#181818;stroke-width:1;"/><polygon fill="#181818" points="2142.8941,619.8316,2135.9611,626.8268,2141.1201,624.5063,2143.4407,629.6653,2142.8941,619.8316" style="stroke:#181818;stroke-width:1;"/><text fill="#000000" font-family="sans-serif" font-size="13" lengthAdjust="spacing" textLength="50.6226" x="2122" y="670.5669">persists</text></g><!--link EpisodeMgr to Progress--><g id="link_EpisodeMgr_Progress"><path d="M1578.72,317.55 C1562.03,325.96 1540.88,335.55 1521,341.5 C1474.06,355.56 1334.95,337.35 1303,374.5 C1223.31,467.17 1223.71,556.49 1303,649.5 C1348.55,702.94 1389.3,665.96 1459,674.5 C1479.81,677.05 1533.78,674.12 1553,682.5 C1584.23,696.11 1607.9501,720.9385 1623.3001,739.7785 " fill="none" id="EpisodeMgr-to-Progress" style="stroke:#181818;stroke-width:1;"/><polygon fill="#181818" points="1627.09,744.43,1624.5062,734.9261,1623.9318,740.5537,1618.3042,739.9793,1627.09,744.43" style="stroke:#181818;stroke-width:1;"/><text fill="#000000" font-family="sans-serif" font-size="13" lengthAdjust="spacing" textLength="52.5776" x="1304" y="596.0669">updates</text></g><!--link Interaction to GameState--><g id="link_Interaction_GameState"><path d="M903.59,609.58 C949.23,621.68 1012.68,637.79 1069,649.5 C1135.17,663.26 1151.85,666.87 1219,674.5 C1247.98,677.79 1322.46,672.9 1350,682.5 C1387.75,695.66 1419.8923,721.2318 1440.7723,740.2318 " fill="none" id="Interaction-to-GameState" style="stroke:#181818;stroke-width:1;"/><polygon fill="#181818" points="1445.21,744.27,1441.2455,735.2543,1441.5119,740.9049,1435.8613,741.1712,1445.21,744.27" style="stroke:#181818;stroke-width:1;"/><text fill="#000000" font-family="sans-serif" font-size="13" lengthAdjust="spacing" textLength="55.4404" x="1220" y="670.5669">modifies</text></g><!--link Interaction to EntityFactory--><g id="link_Interaction_EntityFactory"><path d="M849.67,609.68 C860.03,628.47 879.14,658.07 904,674.5 C915.87,682.35 921.74,677.34 935,682.5 C979.1,699.68 1021.7196,723.7689 1050.7096,741.3489 " fill="none" id="Interaction-to-EntityFactory" style="stroke:#181818;stroke-width:1;"/><polygon fill="#181818" points="1055.84,744.46,1050.2185,736.373,1051.5647,741.8674,1046.0703,743.2135,1055.84,744.46" style="stroke:#181818;stroke-width:1;"/><text fill="#000000" font-family="sans-serif" font-size="13" lengthAdjust="spacing" textLength="100.8833" x="905" y="670.5669">creates entities</text></g><!--link Editor to EpisodeData--><g id="link_Editor_EpisodeData"><path d="M299.14,96.11 C310.3,99.91 322.45,103.43 334,105.5 C696.32,170.5 1625.28,94.71 1990,144.5 C2402.9,200.87 2603.47,80.69 2899,374.5 C2916.3075,391.7075 2928.4881,413.5269 2937.017,436.6461 C2939.1493,442.4259 2941.0533,448.2869 2942.7521,454.1775 C2943.6015,457.1227 2944.3996,460.0754 2945.1493,463.0289 C2945.5241,464.5057 2945.8869,465.9827 2946.2379,467.4591 C2946.4134,468.1973 2945.2412,463.088 2945.4109,463.8258 " fill="none" id="Editor-to-EpisodeData" style="stroke:#181818;stroke-width:1;"/><polygon fill="#181818" points="2946.7556,469.6732,2948.6368,460.0057,2945.635,464.8004,2940.8403,461.7986,2946.7556,469.6732" style="stroke:#181818;stroke-width:1;"/><text fill="#000000" font-family="sans-serif" font-size="13" lengthAdjust="spacing" textLength="48.3247" x="2861" y="304.0669">creates</text></g><!--link Playtest to Sim--><g id="link_Playtest_Sim"><path d="M107.58,317.53 C122.05,326.27 140.83,336.17 159,341.5 C245.43,366.86 490.05,321.67 563,374.5 C630.23,423.19 647.4632,525.4739 651.9432,567.4439 " fill="none" id="Playtest-to-Sim" style="stroke:#181818;stroke-width:1;"/><polygon fill="#181818" points="652.58,573.41,655.6021,564.0363,652.0493,568.4382,647.6473,564.8854,652.58,573.41" style="stroke:#181818;stroke-width:1;"/><text fill="#000000" font-family="sans-serif" font-size="13" lengthAdjust="spacing" textLength="31.7383" x="550" y="362.5669">tests</text></g><!--link Assets to Render--><g id="link_Assets_Render"><path d="M2566.8716,495.4362 C2566.7968,495.1366 2566.7214,494.837 2566.6454,494.5375 C2566.4934,493.9383 2566.3389,493.3391 2566.1818,492.7399 C2565.8678,491.5416 2565.5437,490.3434 2565.2092,489.1462 C2562.5333,479.5685 2559.1937,470.0498 2555.0345,460.9591 C2546.7163,442.7775 2535.12,426.3075 2519,414.5 C2431.33,350.29 655.63,357.68 563,414.5 C509.08,447.58 487.4637,518.3103 478.8337,559.0403 " fill="none" id="Assets-to-Render" style="stroke:#181818;stroke-width:1;"/><polygon fill="#181818" points="477.59,564.91,483.3687,556.9346,478.6264,560.0186,475.5424,555.2763,477.59,564.91" style="stroke:#181818;stroke-width:1;"/><text fill="#000000" font-family="sans-serif" font-size="13" lengthAdjust="spacing" textLength="104.6792" x="1147" y="362.5669">provides visuals</text></g><!--link Render to GMN72--><g id="link_Render_GMN72"><path d="M474.51,564.77 C479.28,510.62 499,390.36 580.5,358 C615.26,344.2 3238.74,344.2 3273.5,358 C3366.51,394.93 3423.53,510.53 3445.57,563.94 " fill="none" id="Render-GMN72" style="stroke:#181818;stroke-width:1;stroke-dasharray:7.0,7.0;"/></g><!--link EpisodeData to GMN75--><g id="link_EpisodeData_GMN75"><path d="M2946.9373,560.2999 C2946.8099,559.7277 2946.6822,559.1494 2946.5542,558.5651 C2946.2983,557.3965 2946.0414,556.204 2945.7842,554.9889 C2941.6697,535.5472 2937.4969,510.3081 2936.3888,484.2537 C2934.1725,432.145 2944.215,376.775 2991.5,358 C3021.09,346.25 3534.91,346.25 3564.5,358 C3649.76,391.86 3684.91,509.62 3696.82,563.81 " fill="none" id="EpisodeData-GMN75" style="stroke:#181818;stroke-width:1;stroke-dasharray:7.0,7.0;"/></g><!--link Sim to GMN78--><g id="link_Sim_GMN78"><path d="M654.92,573.22 C658.55,524.38 676.29,392.23 762.5,358 C801.77,342.41 3765.23,342.41 3804.5,358 C3882.82,389.1 3908.83,498.27 3917.2,555.65 " fill="none" id="Sim-GMN78" style="stroke:#181818;stroke-width:1;stroke-dasharray:7.0,7.0;"/></g><!--SRC=[XLVRRkCs47tNLt2pGDiy12dGHH44Ym1PMqvS-1B4plPX6omOQMopaKc1fEowHVwzCwH4KRRIEe0bpnpE_S9yo64b9B31VFemdwMpvVSlTzy7yydyaNrChqQVHbV9XngIpkx6ipJYZqQZJ-clWJ-yNTx6t9_fBt2Vnbt9L-bLafXN8Kkk-PPbQbig2T8kxA40fY6pNAuBY20lF7jTQrN9VA0AfTb-8opqYM3_90m_NuxmfovwcD8vQ0_v-8lx96z9yYDRglAYW1qKp1oCXKY1IKgKpTV0pkxu5jXjMHOYurOeULOhTry1DL0QuoVN68WpzldpKIHlRkf3zFds21Bj4N9T7_X3_ZJWSiVD-JFZXdbs2r-8RLKurJNUeP3QGXus1oCoStahnTOX7QIcjh2njA1vvaJTSvaNe1qmeWTmUF7ci8jSxUN5pObGjAENzzOJfASnc_03Q8fGL2tTw4ova6mAidAcqKlBIqjXL0vi0GLamS-Q-ZHkWIvfzqz3nyTdo_bToCiH5mLRP1f0rX4tLM6ZG2t0MioFyP6kVvo6XemBpfzQ4IW14rk2xu4U6z0NEEVEHAr5TXQ7gWd7b4k4wJWOqxNk-Cm6IkR25z6E5nMtokEHDzX0zjgYxmKssC8rX0-Va75ibXKU5Ro88GtjD4IjES7P4uqzc5PdNpWMbjl6worsQoSeBbOUiK2hVBSGqT6Ydj5ghS6WyLZwhtNq6c9K2dm7bnF5yzXV8XBjrDyWjV7a11fCwOVq-PjAA-oXDg1R0PupmkPL-k0Bm95goWboUIZ1uC1POhfe-buEXCxm0JOxZuuxM7iOYqVwXklKMalkQOwE7MsNz8ZlHnuBVwEP7SrRd5bOfp-m8RUS1afdEOMHaYFtXHiAOjqiGzfMhXCe3hyjvhFpiwXnI5nVZw72bLW_lzDKvZcUiaYY_g0aFvzaO2AsmjRuADcjeLGEpYiqRw8oNb0PezFUJE8Us_XGq5GDjHVfV9A5mkBE6-zYNXXoxvjoQmnOjFX5StrmwXt5nCg_2bEXjyiDjc97FErbbgvMcCIEIMDsftcvmKNnt9FO8UrZLL9RutvMXMdg_Tl4RUeK0rwFBl-QTDBqbHSY3yCj_4f2d2mOowO8zVrUKrhdlT1GXLq9Hynmsjqc7i5lQRCHfM4lOFUuNzYM_uadeej5j0xQKN3DgXBLO5FqZ0VSiDSirsA7x7ZTHhs40EEl2OWvsjXTMAxvtYH9pyoD6-2Q5JYGJ2-iqwtN3DSeQML0T87gc_dUwoRuvOEmf7TKrjfBq4OOssj0EDS6BOblDdrgjoeNApAk3_Y_7YL7UUz6geOdeRgwYICIYgWRfztuBaVegLOxWOt9TgwF35NIJ94yYTzCY_N6ChLgRuN-gdX13PhZYj1MuFokBx38dfSM1ypVo5kXnNQZAeCtFOCYa9afcLLQKszXC-4tRowC9a7vZ5GcHueZPr42FIvSBKe6TSy5tJE56f2GRN2te4iI80TQQsIAX7rpudrb_bQR_WLPHHcmgiHR-_hWt2uoNzziLQWzxOGXM9ejxj-6aYgYqhJV_SqMONZBGyf_UDRC3rSK4eUOnO53nlfGkGNZikilnfWMHirTOd2jOgMRkf7uVm40]--></g></svg>