<svg xmlns="http://www.w3.org/2000/svg" xmlns:xlink="http://www.w3.org/1999/xlink" contentStyleType="text/css" height="983px" preserveAspectRatio="none" style="width:3968px;height:983px;background:#FFFFFF;" version="1.1" viewBox="0 0 3968 983" width="3968px" zoomAndPan="magnify"><defs/><g><!--cluster Game Application--><g id="cluster_Game Application"><path d="M8.5,6 L148.6934,6 A3.75,3.75 0 0 1 151.1934,8.5 L158.1934,28.2969 L2043.5,28.2969 A2.5,2.5 0 0 1 2046,30.7969 L2046,974 A2.5,2.5 0 0 1 2043.5,976.5 L8.5,976.5 A2.5,2.5 0 0 1 6,974 L6,8.5 A2.5,2.5 0 0 1 8.5,6 " fill="none" style="stroke:#000000;stroke-width:1.5;"/><line style="stroke:#000000;stroke-width:1.5;" x1="6" x2="158.1934" y1="28.2969" y2="28.2969"/><text fill="#000000" font-family="sans-serif" font-size="14" font-weight="bold" lengthAdjust="spacing" textLength="139.1934" x="10" y="20.9951">Game Application</text></g><!--cluster Core Engine--><g id="cluster_Core Engine"><path d="M1058.5,479 L1154.4785,479 A3.75,3.75 0 0 1 1156.9785,481.5 L1163.9785,501.2969 L1604.5,501.2969 A2.5,2.5 0 0 1 1607,503.7969 L1607,794 A2.5,2.5 0 0 1 1604.5,796.5 L1058.5,796.5 A2.5,2.5 0 0 1 1056,794 L1056,481.5 A2.5,2.5 0 0 1 1058.5,479 " fill="none" style="stroke:#000000;stroke-width:1.5;"/><line style="stroke:#000000;stroke-width:1.5;" x1="1056" x2="1163.9785" y1="501.2969" y2="501.2969"/><text fill="#000000" font-family="sans-serif" font-size="14" font-weight="bold" lengthAdjust="spacing" textLength="94.9785" x="1060" y="493.9951">Core Engine</text><text fill="#000000" font-family="sans-serif" font-size="14" font-style="italic" lengthAdjust="spacing" textLength="79.8301" x="1295.585" y="516.292">&#171;#FFF4E6&#187;</text></g><!--cluster UI Layer--><g id="cluster_UI Layer"><path d="M418.5,49 L484.8447,49 A3.75,3.75 0 0 1 487.3447,51.5 L494.3447,71.2969 L654.5,71.2969 A2.5,2.5 0 0 1 657,73.7969 L657,794 A2.5,2.5 0 0 1 654.5,796.5 L418.5,796.5 A2.5,2.5 0 0 1 416,794 L416,51.5 A2.5,2.5 0 0 1 418.5,49 " fill="none" style="stroke:#000000;stroke-width:1.5;"/><line style="stroke:#000000;stroke-width:1.5;" x1="416" x2="494.3447" y1="71.2969" y2="71.2969"/><text fill="#000000" font-family="sans-serif" font-size="14" font-weight="bold" lengthAdjust="spacing" textLength="65.3447" x="420" y="63.9951">UI Layer</text><text fill="#000000" font-family="sans-serif" font-size="14" font-style="italic" lengthAdjust="spacing" textLength="81.4775" x="499.7612" y="86.292">&#171;#E8F8E8&#187;</text></g><!--cluster Game Logic--><g id="cluster_Game Logic"><path d="M32.5,227.5 L125.0537,227.5 A3.75,3.75 0 0 1 127.5537,230 L134.5537,249.7969 L389.5,249.7969 A2.5,2.5 0 0 1 392,252.2969 L392,623 A2.5,2.5 0 0 1 389.5,625.5 L32.5,625.5 A2.5,2.5 0 0 1 30,623 L30,230 A2.5,2.5 0 0 1 32.5,227.5 " fill="none" style="stroke:#000000;stroke-width:1.5;"/><line style="stroke:#000000;stroke-width:1.5;" x1="30" x2="134.5537" y1="249.7969" y2="249.7969"/><text fill="#000000" font-family="sans-serif" font-size="14" font-weight="bold" lengthAdjust="spacing" textLength="91.5537" x="34" y="242.4951">Game Logic</text></g><!--cluster State Management--><g id="cluster_State Management"><path d="M683.5,690.5 L834.8359,690.5 A3.75,3.75 0 0 1 837.3359,693 L844.3359,712.7969 L1029.5,712.7969 A2.5,2.5 0 0 1 1032,715.2969 L1032,941.5 A2.5,2.5 0 0 1 1029.5,944 L683.5,944 A2.5,2.5 0 0 1 681,941.5 L681,693 A2.5,2.5 0 0 1 683.5,690.5 " fill="none" style="stroke:#000000;stroke-width:1.5;"/><line style="stroke:#000000;stroke-width:1.5;" x1="681" x2="844.3359" y1="712.7969" y2="712.7969"/><text fill="#000000" font-family="sans-serif" font-size="14" font-weight="bold" lengthAdjust="spacing" textLength="150.3359" x="685" y="705.4951">State Management</text></g><!--cluster Entity System--><g id="cluster_Entity System"><path d="M1633.5,690.5 L1744.5313,690.5 A3.75,3.75 0 0 1 1747.0313,693 L1754.0313,712.7969 L2019.5,712.7969 A2.5,2.5 0 0 1 2022,715.2969 L2022,950 A2.5,2.5 0 0 1 2019.5,952.5 L1633.5,952.5 A2.5,2.5 0 0 1 1631,950 L1631,693 A2.5,2.5 0 0 1 1633.5,690.5 " fill="none" style="stroke:#000000;stroke-width:1.5;"/><line style="stroke:#000000;stroke-width:1.5;" x1="1631" x2="1754.0313" y1="712.7969" y2="712.7969"/><text fill="#000000" font-family="sans-serif" font-size="14" font-weight="bold" lengthAdjust="spacing" textLength="110.0313" x="1635" y="705.4951">Entity System</text></g><!--cluster Content & Data--><g id="cluster_Content &amp; Data"><path d="M2072.5,382.5 L2195.3711,382.5 A3.75,3.75 0 0 1 2197.8711,385 L2204.8711,404.7969 L3287.5,404.7969 A2.5,2.5 0 0 1 3290,407.2969 L3290,834 A2.5,2.5 0 0 1 3287.5,836.5 L2072.5,836.5 A2.5,2.5 0 0 1 2070,834 L2070,385 A2.5,2.5 0 0 1 2072.5,382.5 " fill="none" style="stroke:#000000;stroke-width:1.5;"/><line style="stroke:#000000;stroke-width:1.5;" x1="2070" x2="2204.8711" y1="404.7969" y2="404.7969"/><text fill="#000000" font-family="sans-serif" font-size="14" font-weight="bold" lengthAdjust="spacing" textLength="121.8711" x="2074" y="397.4951">Content &amp; Data</text><text fill="#000000" font-family="sans-serif" font-size="14" font-style="italic" lengthAdjust="spacing" textLength="79.8916" x="2644.0542" y="419.792">&#171;#F0F0F0&#187;</text></g><!--cluster EpisodeData--><g id="cluster_EpisodeData"><path d="M2906,459.5 C2906,449.5 3082,449.5 3082,449.5 C3082,449.5 3258,449.5 3258,459.5 L3258,794.5 C3258,804.5 3082,804.5 3082,804.5 C3082,804.5 2906,804.5 2906,794.5 L2906,459.5 " fill="none" style="stroke:#181818;stroke-width:1;"/><path d="M2906,459.5 C2906,469.5 3082,469.5 3082,469.5 C3082,469.5 3258,469.5 3258,459.5 " fill="none" style="stroke:#181818;stroke-width:1;"/><text fill="#000000" font-family="sans-serif" font-size="14" font-weight="bold" lengthAdjust="spacing" textLength="152.9063" x="3005.5469" y="484.4951">Episode Definitions</text><text fill="#000000" font-family="sans-serif" font-size="14" font-weight="bold" lengthAdjust="spacing" textLength="51.707" x="3056.1465" y="500.792">(JSON)</text></g><!--cluster SaveData--><g id="cluster_SaveData"><path d="M2102,459.5 C2102,449.5 2294,449.5 2294,449.5 C2294,449.5 2486,449.5 2486,459.5 L2486,623.5 C2486,633.5 2294,633.5 2294,633.5 C2294,633.5 2102,633.5 2102,623.5 L2102,459.5 " fill="none" style="stroke:#181818;stroke-width:1;"/><path d="M2102,459.5 C2102,469.5 2294,469.5 2294,469.5 C2294,469.5 2486,469.5 2486,459.5 " fill="none" style="stroke:#181818;stroke-width:1;"/><text fill="#000000" font-family="sans-serif" font-size="14" font-weight="bold" lengthAdjust="spacing" textLength="80.2334" x="2253.8833" y="484.4951">Save Data</text><text fill="#000000" font-family="sans-serif" font-size="14" font-weight="bold" lengthAdjust="spacing" textLength="116.1426" x="2235.9287" y="500.792">(LocalStorage)</text></g><!--cluster Assets--><g id="cluster_Assets"><path d="M2526,491.5 C2526,481.5 2696,481.5 2696,481.5 C2696,481.5 2866,481.5 2866,491.5 L2866,794.5 C2866,804.5 2696,804.5 2696,804.5 C2696,804.5 2526,804.5 2526,794.5 L2526,491.5 " fill="none" style="stroke:#181818;stroke-width:1;"/><path d="M2526,491.5 C2526,501.5 2696,501.5 2696,501.5 C2696,501.5 2866,501.5 2866,491.5 " fill="none" style="stroke:#181818;stroke-width:1;"/><text fill="#000000" font-family="sans-serif" font-size="14" font-weight="bold" lengthAdjust="spacing" textLength="104.6855" x="2643.6572" y="516.4951">Asset Library</text></g><!--cluster Development Tools--><g id="cluster_Development Tools"><path d="M2302.5,81 L2455.21,81 A3.75,3.75 0 0 1 2457.71,83.5 L2464.71,103.2969 L2627.5,103.2969 A2.5,2.5 0 0 1 2630,105.7969 L2630,331 A2.5,2.5 0 0 1 2627.5,333.5 L2302.5,333.5 A2.5,2.5 0 0 1 2300,331 L2300,83.5 A2.5,2.5 0 0 1 2302.5,81 " fill="none" style="stroke:#000000;stroke-width:1.5;"/><line style="stroke:#000000;stroke-width:1.5;" x1="2300" x2="2464.71" y1="103.2969" y2="103.2969"/><text fill="#000000" font-family="sans-serif" font-size="14" font-weight="bold" lengthAdjust="spacing" textLength="151.71" x="2304" y="95.9951">Development Tools</text></g><!--entity Render--><g id="elem_Render"><rect fill="#E8F4F8" height="52.5938" rx="2.5" ry="2.5" style="stroke:#333333;stroke-width:0.5;" width="144.5508" x="1445.5" y="565"/><text fill="#000000" font-family="sans-serif" font-size="14" lengthAdjust="spacing" textLength="124.5508" x="1455.5" y="587.9951">Rendering Engine</text><text fill="#000000" font-family="sans-serif" font-size="14" lengthAdjust="spacing" textLength="62.3096" x="1455.5" y="604.292">(Canvas)</text></g><!--entity Sim--><g id="elem_Sim"><rect fill="#E8F4F8" height="36.2969" rx="2.5" ry="2.5" style="stroke:#333333;stroke-width:0.5;" width="147.0049" x="1263.5" y="573.5"/><text fill="#000000" font-family="sans-serif" font-size="14" lengthAdjust="spacing" textLength="127.0049" x="1273.5" y="596.4951">Simulation Engine</text></g><!--entity Physics--><g id="elem_Physics"><rect fill="#E8F4F8" height="36.2969" rx="2.5" ry="2.5" style="stroke:#333333;stroke-width:0.5;" width="147.8662" x="1423" y="744.5"/><text fill="#000000" font-family="sans-serif" font-size="14" lengthAdjust="spacing" textLength="127.8662" x="1433" y="767.4951">Physics/Animation</text></g><!--entity Interaction--><g id="elem_Interaction"><rect fill="#E8F4F8" height="36.2969" rx="2.5" ry="2.5" style="stroke:#333333;stroke-width:0.5;" width="155.5293" x="1072" y="573.5"/><text fill="#000000" font-family="sans-serif" font-size="14" lengthAdjust="spacing" textLength="135.5293" x="1082" y="596.4951">Interaction Handler</text></g><!--entity Menu--><g id="elem_Menu"><rect fill="#E8F4F8" height="36.2969" rx="2.5" ry="2.5" style="stroke:#333333;stroke-width:0.5;" width="96.3096" x="545" y="135"/><text fill="#000000" font-family="sans-serif" font-size="14" lengthAdjust="spacing" textLength="76.3096" x="555" y="157.9951">Main Menu</text></g><!--entity EpisodeUI--><g id="elem_EpisodeUI"><rect fill="#E8F4F8" height="36.2969" rx="2.5" ry="2.5" style="stroke:#333333;stroke-width:0.5;" width="143.9492" x="497" y="281.5"/><text fill="#000000" font-family="sans-serif" font-size="14" lengthAdjust="spacing" textLength="123.9492" x="507" y="304.4951">Episode Selection</text></g><!--entity HUD--><g id="elem_HUD"><rect fill="#E8F4F8" height="36.2969" rx="2.5" ry="2.5" style="stroke:#333333;stroke-width:0.5;" width="97.6836" x="525" y="573.5"/><text fill="#000000" font-family="sans-serif" font-size="14" lengthAdjust="spacing" textLength="77.6836" x="535" y="596.4951">Game HUD</text></g><!--entity Results--><g id="elem_Results"><rect fill="#E8F4F8" height="36.2969" rx="2.5" ry="2.5" style="stroke:#333333;stroke-width:0.5;" width="128.623" x="509.5" y="744.5"/><text fill="#000000" font-family="sans-serif" font-size="14" lengthAdjust="spacing" textLength="108.623" x="519.5" y="767.4951">Win/Fail Screen</text></g><!--entity Settings--><g id="elem_Settings"><rect fill="#E8F4F8" height="36.2969" rx="2.5" ry="2.5" style="stroke:#333333;stroke-width:0.5;" width="77.4219" x="432.5" y="135"/><text fill="#000000" font-family="sans-serif" font-size="14" lengthAdjust="spacing" textLength="57.4219" x="442.5" y="157.9951">Settings</text></g><!--entity EpisodeMgr--><g id="elem_EpisodeMgr"><rect fill="#E8F4F8" height="36.2969" rx="2.5" ry="2.5" style="stroke:#333333;stroke-width:0.5;" width="140.7979" x="234.5" y="281.5"/><text fill="#000000" font-family="sans-serif" font-size="14" lengthAdjust="spacing" textLength="120.7979" x="244.5" y="304.4951">Episode Manager</text></g><!--entity WinCheck--><g id="elem_WinCheck"><rect fill="#E8F4F8" height="36.2969" rx="2.5" ry="2.5" style="stroke:#333333;stroke-width:0.5;" width="189.1758" x="46.5" y="573.5"/><text fill="#000000" font-family="sans-serif" font-size="14" lengthAdjust="spacing" textLength="169.1758" x="56.5" y="596.4951">Win Condition Evaluator</text></g><!--entity Hints--><g id="elem_Hints"><rect fill="#E8F4F8" height="36.2969" rx="2.5" ry="2.5" style="stroke:#333333;stroke-width:0.5;" width="105.4355" x="270.5" y="573.5"/><text fill="#000000" font-family="sans-serif" font-size="14" lengthAdjust="spacing" textLength="85.4355" x="280.5" y="596.4951">Hint System</text></g><!--entity Tutorial--><g id="elem_Tutorial"><rect fill="#E8F4F8" height="36.2969" rx="2.5" ry="2.5" style="stroke:#333333;stroke-width:0.5;" width="130.25" x="58" y="281.5"/><text fill="#000000" font-family="sans-serif" font-size="14" lengthAdjust="spacing" textLength="110.25" x="68" y="304.4951">Tutorial System</text></g><!--entity GameState--><g id="elem_GameState"><rect fill="#E8F4F8" height="36.2969" rx="2.5" ry="2.5" style="stroke:#333333;stroke-width:0.5;" width="144.9473" x="697.5" y="744.5"/><text fill="#000000" font-family="sans-serif" font-size="14" lengthAdjust="spacing" textLength="124.9473" x="707.5" y="767.4951">Game State Store</text></g><!--entity Progress--><g id="elem_Progress"><rect fill="#E8F4F8" height="36.2969" rx="2.5" ry="2.5" style="stroke:#333333;stroke-width:0.5;" width="138.1182" x="878" y="744.5"/><text fill="#000000" font-family="sans-serif" font-size="14" lengthAdjust="spacing" textLength="118.1182" x="888" y="767.4951">Progress Tracker</text></g><!--entity SaveLoad--><g id="elem_SaveLoad"><rect fill="#E8F4F8" height="36.2969" rx="2.5" ry="2.5" style="stroke:#333333;stroke-width:0.5;" width="149.5684" x="785" y="892"/><text fill="#000000" font-family="sans-serif" font-size="14" lengthAdjust="spacing" textLength="129.5684" x="795" y="914.9951">Save/Load System</text></g><!--entity EntityFactory--><g id="elem_EntityFactory"><rect fill="#E8F4F8" height="36.2969" rx="2.5" ry="2.5" style="stroke:#333333;stroke-width:0.5;" width="117.7471" x="1718" y="744.5"/><text fill="#000000" font-family="sans-serif" font-size="14" lengthAdjust="spacing" textLength="97.7471" x="1728" y="767.4951">Entity Factory</text></g><!--entity EntityTypes--><g id="elem_EntityTypes"><rect fill="#E8F4F8" height="52.5938" rx="2.5" ry="2.5" style="stroke:#333333;stroke-width:0.5;" width="158.8174" x="1646.5" y="883.5"/><text fill="#000000" font-family="sans-serif" font-size="14" lengthAdjust="spacing" textLength="86.9531" x="1656.5" y="906.4951">Entity Types</text><text fill="#000000" font-family="sans-serif" font-size="14" lengthAdjust="spacing" textLength="138.8174" x="1656.5" y="922.792">(Triangle/Circle/etc)</text></g><!--entity Connections--><g id="elem_Connections"><rect fill="#E8F4F8" height="36.2969" rx="2.5" ry="2.5" style="stroke:#333333;stroke-width:0.5;" width="165.0313" x="1840.5" y="892"/><text fill="#000000" font-family="sans-serif" font-size="14" lengthAdjust="spacing" textLength="145.0313" x="1850.5" y="914.9951">Connection Manager</text></g><!--entity Episode Config--><g id="elem_Episode Config"><rect fill="#E8F4F8" height="36.2969" rx="2.5" ry="2.5" style="stroke:#333333;stroke-width:0.5;" width="124.3506" x="2949" y="573.5"/><text fill="#000000" font-family="sans-serif" font-size="14" lengthAdjust="spacing" textLength="104.3506" x="2959" y="596.4951">Episode Config</text></g><!--entity Win Conditions--><g id="elem_Win Conditions"><rect fill="#E8F4F8" height="36.2969" rx="2.5" ry="2.5" style="stroke:#333333;stroke-width:0.5;" width="125.1572" x="3108.5" y="573.5"/><text fill="#000000" font-family="sans-serif" font-size="14" lengthAdjust="spacing" textLength="105.1572" x="3118.5" y="596.4951">Win Conditions</text></g><!--entity Initial State--><g id="elem_Initial State"><rect fill="#E8F4F8" height="36.2969" rx="2.5" ry="2.5" style="stroke:#333333;stroke-width:0.5;" width="100.2471" x="2961" y="744.5"/><text fill="#000000" font-family="sans-serif" font-size="14" lengthAdjust="spacing" textLength="80.2471" x="2971" y="767.4951">Initial State</text></g><!--entity Entity Limits--><g id="elem_Entity Limits"><rect fill="#E8F4F8" height="36.2969" rx="2.5" ry="2.5" style="stroke:#333333;stroke-width:0.5;" width="107.3223" x="3096.5" y="744.5"/><text fill="#000000" font-family="sans-serif" font-size="14" lengthAdjust="spacing" textLength="87.3223" x="3106.5" y="767.4951">Entity Limits</text></g><!--entity Player Progress--><g id="elem_Player Progress"><rect fill="#E8F4F8" height="36.2969" rx="2.5" ry="2.5" style="stroke:#333333;stroke-width:0.5;" width="128.623" x="2332.5" y="573.5"/><text fill="#000000" font-family="sans-serif" font-size="14" lengthAdjust="spacing" textLength="108.623" x="2342.5" y="596.4951">Player Progress</text></g><!--entity Unlocked Episodes--><g id="elem_Unlocked Episodes"><rect fill="#E8F4F8" height="36.2969" rx="2.5" ry="2.5" style="stroke:#333333;stroke-width:0.5;" width="151.6055" x="2145" y="573.5"/><text fill="#000000" font-family="sans-serif" font-size="14" lengthAdjust="spacing" textLength="131.6055" x="2155" y="596.4951">Unlocked Episodes</text></g><!--entity Visual Themes--><g id="elem_Visual Themes"><rect fill="#E8F4F8" height="36.2969" rx="2.5" ry="2.5" style="stroke:#333333;stroke-width:0.5;" width="122.1357" x="2569" y="573.5"/><text fill="#000000" font-family="sans-serif" font-size="14" lengthAdjust="spacing" textLength="102.1357" x="2579" y="596.4951">Visual Themes</text></g><!--entity Sound Effects--><g id="elem_Sound Effects"><rect fill="#E8F4F8" height="36.2969" rx="2.5" ry="2.5" style="stroke:#333333;stroke-width:0.5;" width="116.332" x="2726" y="573.5"/><text fill="#000000" font-family="sans-serif" font-size="14" lengthAdjust="spacing" textLength="96.332" x="2736" y="596.4951">Sound Effects</text></g><!--entity UI Graphics--><g id="elem_UI Graphics"><rect fill="#E8F4F8" height="36.2969" rx="2.5" ry="2.5" style="stroke:#333333;stroke-width:0.5;" width="100.6504" x="2579.5" y="744.5"/><text fill="#000000" font-family="sans-serif" font-size="14" lengthAdjust="spacing" textLength="80.6504" x="2589.5" y="767.4951">UI Graphics</text></g><!--entity Editor--><g id="elem_Editor"><rect fill="#E8F4F8" height="36.2969" rx="2.5" ry="2.5" style="stroke:#333333;stroke-width:0.5;" width="103.084" x="2505.5" y="135"/><text fill="#000000" font-family="sans-serif" font-size="14" lengthAdjust="spacing" textLength="83.084" x="2515.5" y="157.9951">Level Editor</text></g><!--entity Validator--><g id="elem_Validator"><rect fill="#E8F4F8" height="36.2969" rx="2.5" ry="2.5" style="stroke:#333333;stroke-width:0.5;" width="142.6436" x="2316.5" y="281.5"/><text fill="#000000" font-family="sans-serif" font-size="14" lengthAdjust="spacing" textLength="122.6436" x="2326.5" y="304.4951">Episode Validator</text></g><!--entity Playtest--><g id="elem_Playtest"><rect fill="#E8F4F8" height="36.2969" rx="2.5" ry="2.5" style="stroke:#333333;stroke-width:0.5;" width="118.6768" x="2494.5" y="281.5"/><text fill="#000000" font-family="sans-serif" font-size="14" lengthAdjust="spacing" textLength="98.6768" x="2504.5" y="304.4951">Playtest Mode</text></g><g id="elem_GMN71"><path d="M3306.5,564 L3306.5,619.3984 L3523.4395,619.3984 L3523.4395,574 L3513.4395,564 L3306.5,564 " fill="#FEFFDD" style="stroke:#181818;stroke-width:0.5;"/><path d="M3513.4395,564 L3513.4395,574 L3523.4395,574 L3513.4395,564 " fill="#FEFFDD" style="stroke:#181818;stroke-width:1;"/><text fill="#000000" font-family="sans-serif" font-size="13" lengthAdjust="spacing" textLength="195.9395" x="3312.5" y="581.0669">Canvas-based particle system</text><text fill="#000000" font-family="sans-serif" font-size="13" lengthAdjust="spacing" textLength="176.8774" x="3312.5" y="596.1997">Optimized for thousands of</text><text fill="#000000" font-family="sans-serif" font-size="13" lengthAdjust="spacing" textLength="188.1636" x="3312.5" y="611.3325">concurrent event animations</text></g><g id="elem_GMN74"><path d="M3559,564 L3559,619.3984 L3762.9712,619.3984 L3762.9712,574 L3752.9712,564 L3559,564 " fill="#FEFFDD" style="stroke:#181818;stroke-width:0.5;"/><path d="M3752.9712,564 L3752.9712,574 L3762.9712,574 L3752.9712,564 " fill="#FEFFDD" style="stroke:#181818;stroke-width:1;"/><text fill="#000000" font-family="sans-serif" font-size="13" lengthAdjust="spacing" textLength="182.9712" x="3565" y="581.0669">Data-driven episode system</text><text fill="#000000" font-family="sans-serif" font-size="13" lengthAdjust="spacing" textLength="164.7788" x="3565" y="596.1997">No code changes needed</text><text fill="#000000" font-family="sans-serif" font-size="13" lengthAdjust="spacing" textLength="110.6206" x="3565" y="611.3325">for new episodes</text></g><g id="elem_GMN77"><path d="M3798.5,556 L3798.5,626.5313 L3961.3701,626.5313 L3961.3701,566 L3951.3701,556 L3798.5,556 " fill="#FEFFDD" style="stroke:#181818;stroke-width:0.5;"/><path d="M3951.3701,556 L3951.3701,566 L3961.3701,566 L3951.3701,556 " fill="#FEFFDD" style="stroke:#181818;stroke-width:1;"/><text fill="#000000" font-family="sans-serif" font-size="13" lengthAdjust="spacing" textLength="120.0596" x="3804.5" y="573.0669">Executes topology</text><text fill="#000000" font-family="sans-serif" font-size="13" lengthAdjust="spacing" textLength="105.168" x="3804.5" y="588.1997">Calculates flows</text><text fill="#000000" font-family="sans-serif" font-size="13" lengthAdjust="spacing" textLength="141.8701" x="3804.5" y="603.3325">Detects backpressure</text><text fill="#000000" font-family="sans-serif" font-size="13" lengthAdjust="spacing" textLength="104.8696" x="3804.5" y="618.4653">Handles failures</text></g><g id="elem_GMN80"><path d="M2646,125.5 L2646,149 L2608.7,153 L2646,157 L2646,180.8984 A0,0 0 0 0 2646,180.8984 L2814.2402,180.8984 A0,0 0 0 0 2814.2402,180.8984 L2814.2402,135.5 L2804.2402,125.5 L2646,125.5 A0,0 0 0 0 2646,125.5 " fill="#FEFFDD" style="stroke:#181818;stroke-width:0.5;"/><path d="M2804.2402,125.5 L2804.2402,135.5 L2814.2402,135.5 L2804.2402,125.5 " fill="#FEFFDD" style="stroke:#181818;stroke-width:0.5;"/><text fill="#000000" font-family="sans-serif" font-size="13" lengthAdjust="spacing" textLength="101.0864" x="2652" y="142.5669">Internal tool for</text><text fill="#000000" font-family="sans-serif" font-size="13" lengthAdjust="spacing" textLength="107.2627" x="2652" y="157.6997">content creation</text><text fill="#000000" font-family="sans-serif" font-size="13" lengthAdjust="spacing" textLength="147.2402" x="2652" y="172.8325">Not shipped to players</text></g><!--link Render to Physics--><g id="link_Render_Physics"><path d="M1508.82,618.08 C1505.02,629.91 1501.03,644.25 1499,657.5 C1494.36,687.85 1494.7249,717.7563 1495.6749,738.4563 " fill="none" id="Render-to-Physics" style="stroke:#181818;stroke-width:1;"/><polygon fill="#181818" points="1495.95,744.45,1499.5332,735.2761,1495.7208,739.4553,1491.5416,735.6428,1495.95,744.45" style="stroke:#181818;stroke-width:1;"/></g><!--link Sim to Physics--><g id="link_Sim_Physics"><path d="M1353.22,609.63 C1383.89,642.03 1445.9159,707.5321 1476.6059,739.9621 " fill="none" id="Sim-to-Physics" style="stroke:#181818;stroke-width:1;"/><polygon fill="#181818" points="1480.73,744.32,1477.4491,735.0337,1477.2932,740.6884,1471.6385,740.5325,1480.73,744.32" style="stroke:#181818;stroke-width:1;"/></g><!--link Menu to EpisodeUI--><g id="link_Menu_EpisodeUI"><path d="M590.15,171.14 C585.53,198.95 577.4436,247.6612 572.8236,275.4612 " fill="none" id="Menu-to-EpisodeUI" style="stroke:#181818;stroke-width:1;"/><polygon fill="#181818" points="571.84,281.38,577.2613,273.1575,572.6597,276.4476,569.3696,271.846,571.84,281.38" style="stroke:#181818;stroke-width:1;"/></g><!--link EpisodeUI to HUD--><g id="link_EpisodeUI_HUD"><path d="M569.3,317.77 C570.19,369.35 572.7174,515.8609 573.5974,567.3209 " fill="none" id="EpisodeUI-to-HUD" style="stroke:#181818;stroke-width:1;"/><polygon fill="#181818" points="573.7,573.32,577.5455,564.2529,573.6145,568.3207,569.5467,564.3897,573.7,573.32" style="stroke:#181818;stroke-width:1;"/></g><!--link HUD to Results--><g id="link_HUD_Results"><path d="M574,609.63 C574,642.03 574,705.89 574,738.32 " fill="none" id="HUD-to-Results" style="stroke:#181818;stroke-width:1;"/><polygon fill="#181818" points="574,744.32,578,735.32,574,739.32,570,735.32,574,744.32" style="stroke:#181818;stroke-width:1;"/></g><!--link EpisodeMgr to WinCheck--><g id="link_EpisodeMgr_WinCheck"><path d="M291.92,317.7 C280.97,332.42 265.22,354.36 253,374.5 C209.61,446 168.882,530.6751 151.502,567.8351 " fill="none" id="EpisodeMgr-to-WinCheck" style="stroke:#181818;stroke-width:1;"/><polygon fill="#181818" points="148.96,573.27,156.3962,566.8122,151.0783,568.7409,149.1496,563.423,148.96,573.27" style="stroke:#181818;stroke-width:1;"/></g><!--link EpisodeMgr to Hints--><g id="link_EpisodeMgr_Hints"><path d="M306.07,317.77 C309.27,369.35 318.3688,515.8715 321.5588,567.3315 " fill="none" id="EpisodeMgr-to-Hints" style="stroke:#181818;stroke-width:1;"/><polygon fill="#181818" points="321.93,573.32,325.3655,564.0898,321.6206,568.3296,317.3808,564.5847,321.93,573.32" style="stroke:#181818;stroke-width:1;"/></g><!--link Progress to SaveLoad--><g id="link_Progress_SaveLoad"><path d="M936.68,780.76 C919.93,808.76 890.1183,858.6199 873.3883,886.6099 " fill="none" id="Progress-to-SaveLoad" style="stroke:#181818;stroke-width:1;"/><polygon fill="#181818" points="870.31,891.76,878.3609,886.087,872.8753,887.4682,871.494,881.9826,870.31,891.76" style="stroke:#181818;stroke-width:1;"/></g><!--link GameState to SaveLoad--><g id="link_GameState_SaveLoad"><path d="M780.68,780.76 C798,808.76 828.8628,858.6678 846.1828,886.6578 " fill="none" id="GameState-to-SaveLoad" style="stroke:#181818;stroke-width:1;"/><polygon fill="#181818" points="849.34,891.76,848.0057,882.0019,846.709,887.5082,841.2028,886.2115,849.34,891.76" style="stroke:#181818;stroke-width:1;"/></g><!--link EntityFactory to EntityTypes--><g id="link_EntityFactory_EntityTypes"><path d="M1770.95,780.76 C1762.03,806.21 1747.2841,848.2775 1736.9441,877.7875 " fill="none" id="EntityFactory-to-EntityTypes" style="stroke:#181818;stroke-width:1;"/><polygon fill="#181818" points="1734.96,883.45,1741.7111,876.279,1736.6134,878.7313,1734.1611,873.6336,1734.96,883.45" style="stroke:#181818;stroke-width:1;"/></g><!--link EntityFactory to Connections--><g id="link_EntityFactory_Connections"><path d="M1794.32,780.76 C1822.42,808.76 1873.3706,859.5342 1901.4506,887.5242 " fill="none" id="EntityFactory-to-Connections" style="stroke:#181818;stroke-width:1;"/><polygon fill="#181818" points="1905.7,891.76,1902.1497,882.5733,1902.1588,888.2301,1896.5019,888.2392,1905.7,891.76" style="stroke:#181818;stroke-width:1;"/></g><!--link Editor to Validator--><g id="link_Editor_Validator"><path d="M2535.76,171.01 C2519.52,184.1 2496.67,202.73 2477,219.5 C2452.47,240.41 2429.2425,261.1481 2411.3525,277.3081 " fill="none" id="Editor-to-Validator" style="stroke:#181818;stroke-width:1;"/><polygon fill="#181818" points="2406.9,281.33,2416.2599,278.2655,2410.6104,277.9784,2410.8974,272.3289,2406.9,281.33" style="stroke:#181818;stroke-width:1;"/></g><!--link Editor to Playtest--><g id="link_Editor_Playtest"><path d="M2556.64,171.14 C2556.07,198.95 2555.053,247.5813 2554.483,275.3813 " fill="none" id="Editor-to-Playtest" style="stroke:#181818;stroke-width:1;"/><polygon fill="#181818" points="2554.36,281.38,2558.5437,272.4639,2554.4625,276.3811,2550.5453,272.2999,2554.36,281.38" style="stroke:#181818;stroke-width:1;"/></g><!--link HUD to GameState--><g id="link_HUD_GameState"><path d="M623.24,593.16 C670.56,596.75 739.77,610.39 774,657.5 C792.48,682.94 785.8628,716.1398 778.5328,738.4498 " fill="none" id="HUD-to-GameState" style="stroke:#181818;stroke-width:1;"/><polygon fill="#181818" points="776.66,744.15,783.2694,736.8482,778.2207,739.3998,775.6691,734.3511,776.66,744.15" style="stroke:#181818;stroke-width:1;"/><text fill="#000000" font-family="sans-serif" font-size="13" lengthAdjust="spacing" textLength="52.5776" x="783" y="670.5669">updates</text></g><!--link GameState to Sim--><g id="link_GameState_Sim"><path d="M783.38,744.16 C799.28,725.07 827.75,695.37 860,682.5 C881.17,674.05 1042.29,676.51 1065,674.5 C1145.45,667.36 1169.03,676.92 1245,649.5 C1270.98,640.12 1292.6264,626.2748 1310.4664,613.1548 " fill="none" id="GameState-to-Sim" style="stroke:#181818;stroke-width:1;"/><polygon fill="#181818" points="1315.3,609.6,1305.6798,611.7097,1311.272,612.5623,1310.4194,618.1545,1315.3,609.6" style="stroke:#181818;stroke-width:1;"/><text fill="#000000" font-family="sans-serif" font-size="13" lengthAdjust="spacing" textLength="39.6729" x="1221" y="670.5669">drives</text></g><!--link Sim to EntityTypes--><g id="link_Sim_EntityTypes"><path d="M1330.67,609.76 C1315.45,654.63 1282.22,776.16 1341,844.5 C1379.67,889.46 1539.385,902.8448 1640.375,906.9748 " fill="none" id="Sim-to-EntityTypes" style="stroke:#181818;stroke-width:1;"/><polygon fill="#181818" points="1646.37,907.22,1637.541,902.8556,1641.3742,907.0157,1637.2141,910.8489,1646.37,907.22" style="stroke:#181818;stroke-width:1;"/><text fill="#000000" font-family="sans-serif" font-size="13" lengthAdjust="spacing" textLength="62.7339" x="1342" y="767.0669">simulates</text></g><!--link Render to EntityTypes--><g id="link_Render_EntityTypes"><path d="M1590.72,617.77 C1608.87,627.47 1626.43,640.44 1638,657.5 C1684.96,726.77 1623.07,769.4 1660,844.5 C1667.28,859.31 1674.9241,868.6331 1686.7941,879.2831 " fill="none" id="Render-to-EntityTypes" style="stroke:#181818;stroke-width:1;"/><polygon fill="#181818" points="1691.26,883.29,1687.2324,874.3023,1687.5384,879.9509,1681.8898,880.2569,1691.26,883.29" style="stroke:#181818;stroke-width:1;"/><text fill="#000000" font-family="sans-serif" font-size="13" lengthAdjust="spacing" textLength="38.9683" x="1661" y="767.0669">draws</text></g><!--link EpisodeMgr to EpisodeData--><g id="link_EpisodeMgr_EpisodeData"><path d="M341.35,317.58 C362.6,326.63 390.23,336.81 416,341.5 C453.28,348.28 1742.14,348.1 1780,349.5 C1891.29,353.61 1918.72,362.18 2030,366.5 C2041.49,366.95 2848.94,367.42 2858,374.5 C2877.23,389.53 2890.3869,410.2438 2899.2952,432.9336 C2901.5222,438.6061 2903.4838,444.402 2905.2083,450.2636 C2905.4238,450.9963 2903.9996,445.9573 2904.2078,446.692 " fill="none" id="EpisodeMgr-to-EpisodeData" style="stroke:#181818;stroke-width:1;"/><polygon fill="#181818" points="2905.8439,452.4646,2907.2382,442.7149,2904.4805,447.6541,2899.5413,444.8964,2905.8439,452.4646" style="stroke:#181818;stroke-width:1;"/><text fill="#000000" font-family="sans-serif" font-size="13" lengthAdjust="spacing" textLength="34.5566" x="2031" y="362.5669">loads</text></g><!--link EpisodeMgr to EntityFactory--><g id="link_EpisodeMgr_EntityFactory"><path d="M341.35,317.58 C362.6,326.63 390.23,336.81 416,341.5 C434.39,344.84 1748.58,336.48 1762,349.5 C1769.2,356.48 1775.1909,661.371 1776.5909,738.381 " fill="none" id="EpisodeMgr-to-EntityFactory" style="stroke:#181818;stroke-width:1;"/><polygon fill="#181818" points="1776.7,744.38,1780.5358,735.3088,1776.6091,739.3808,1772.5371,735.4542,1776.7,744.38" style="stroke:#181818;stroke-width:1;"/><text fill="#000000" font-family="sans-serif" font-size="13" lengthAdjust="spacing" textLength="100.8833" x="1776" y="596.0669">creates entities</text></g><!--link WinCheck to GameState--><g id="link_WinCheck_GameState"><path d="M167.39,609.67 C189.35,623.02 221.93,640.7 253,649.5 C426.33,698.62 487.51,621.43 657,682.5 C694.61,696.05 726.7847,721.5213 747.7047,740.3913 " fill="none" id="WinCheck-to-GameState" style="stroke:#181818;stroke-width:1;"/><polygon fill="#181818" points="752.16,744.41,748.1562,735.4117,748.4472,741.0611,742.7979,741.3521,752.16,744.41" style="stroke:#181818;stroke-width:1;"/><text fill="#000000" font-family="sans-serif" font-size="13" lengthAdjust="spacing" textLength="63.3433" x="629" y="670.5669">evaluates</text></g><!--link Progress to SaveData--><g id="link_Progress_SaveData"><path d="M963.57,744.28 C983.43,725 1018.72,694.83 1056,682.5 C1092.66,670.38 1712.58,678.38 1751,674.5 C1809.54,668.58 1823.54,662.17 1881,649.5 C1931.41,638.385 1987.6725,624.4025 2031.815,613.0687 C2053.8863,607.4019 2072.9275,602.3972 2086.6922,598.7442 C2090.1334,597.831 2093.2447,597.0022 2095.9912,596.2687 C2097.3645,595.902 2098.6465,595.559 2099.8329,595.2412 C2100.4261,595.0824 2100.9955,594.9298 2101.5403,594.7836 C2101.6765,594.7471 2096.0162,596.2658 2096.1493,596.2301 " fill="none" id="Progress-to-SaveData" style="stroke:#181818;stroke-width:1;"/><polygon fill="#181818" points="2101.9444,594.6752,2092.2152,593.1442,2097.1152,595.9709,2094.2884,600.8709,2101.9444,594.6752" style="stroke:#181818;stroke-width:1;"/><text fill="#000000" font-family="sans-serif" font-size="13" lengthAdjust="spacing" textLength="50.6226" x="1846" y="670.5669">persists</text></g><!--link EpisodeMgr to Progress--><g id="link_EpisodeMgr_Progress"><path d="M344.67,317.55 C365.55,325.9 391.78,335.45 416,341.5 C520.88,367.72 559.17,328.49 657,374.5 C825.22,453.62 890.25,487.29 965,657.5 C977.6,686.19 967.7964,717.4759 958.2564,738.7359 " fill="none" id="EpisodeMgr-to-Progress" style="stroke:#181818;stroke-width:1;"/><polygon fill="#181818" points="955.8,744.21,963.134,737.6364,957.847,739.6482,955.8352,734.3612,955.8,744.21" style="stroke:#181818;stroke-width:1;"/><text fill="#000000" font-family="sans-serif" font-size="13" lengthAdjust="spacing" textLength="52.5776" x="962" y="596.0669">updates</text></g><!--link Interaction to GameState--><g id="link_Interaction_GameState"><path d="M1120.35,609.51 C1097.01,622.22 1063.32,639.13 1032,649.5 C958.11,673.97 929.92,648.29 860,682.5 C829.19,697.57 804.6951,721.5635 788.3451,739.8835 " fill="none" id="Interaction-to-GameState" style="stroke:#181818;stroke-width:1;"/><polygon fill="#181818" points="784.35,744.36,793.327,740.3087,787.6793,740.6296,787.3584,734.9818,784.35,744.36" style="stroke:#181818;stroke-width:1;"/><text fill="#000000" font-family="sans-serif" font-size="13" lengthAdjust="spacing" textLength="55.4404" x="1001" y="670.5669">modifies</text></g><!--link Interaction to EntityFactory--><g id="link_Interaction_EntityFactory"><path d="M1171.86,609.51 C1190.45,622.94 1218.45,640.83 1246,649.5 C1293.29,664.38 1645.5,662.8 1691,682.5 C1722.07,695.95 1745.4533,720.7836 1760.5633,739.6836 " fill="none" id="Interaction-to-EntityFactory" style="stroke:#181818;stroke-width:1;"/><polygon fill="#181818" points="1764.31,744.37,1761.8143,734.8426,1761.1878,740.4646,1755.5657,739.8381,1764.31,744.37" style="stroke:#181818;stroke-width:1;"/><text fill="#000000" font-family="sans-serif" font-size="13" lengthAdjust="spacing" textLength="100.8833" x="1642" y="670.5669">creates entities</text></g><!--link Editor to EpisodeData--><g id="link_Editor_EpisodeData"><path d="M2594.96,171.08 C2659.35,202.04 2789.63,273.72 2858,374.5 C2871.7025,394.6975 2882.0525,418.0356 2889.8702,441.7453 C2893.779,453.6002 2897.0547,465.5479 2899.7999,477.2424 C2901.1725,483.0896 2902.4124,488.8736 2903.5326,494.5509 C2904.0926,497.3896 2904.6227,500.2016 2905.1245,502.9816 C2905.3753,504.3716 2904.5992,499.8409 2904.8361,501.2142 " fill="none" id="Editor-to-EpisodeData" style="stroke:#181818;stroke-width:1;"/><polygon fill="#181818" points="2905.856,507.1269,2908.2679,497.5779,2905.0061,502.1997,2900.3843,498.9378,2905.856,507.1269" style="stroke:#181818;stroke-width:1;"/><text fill="#000000" font-family="sans-serif" font-size="13" lengthAdjust="spacing" textLength="48.3247" x="2833" y="304.0669">creates</text></g><!--link Playtest to Sim--><g id="link_Playtest_Sim"><path d="M2528.46,317.67 C2514,326.45 2495.22,336.35 2477,341.5 C2304.32,390.34 2253.33,359.83 2074,366.5 C2056.07,367.17 1442.89,364.48 1428,374.5 C1358.96,420.95 1342.7092,525.0461 1338.7392,567.4561 " fill="none" id="Playtest-to-Sim" style="stroke:#181818;stroke-width:1;"/><polygon fill="#181818" points="1338.18,573.43,1343.0014,564.842,1338.646,568.4518,1335.0362,564.0964,1338.18,573.43" style="stroke:#181818;stroke-width:1;"/><text fill="#000000" font-family="sans-serif" font-size="13" lengthAdjust="spacing" textLength="31.7383" x="2438" y="362.5669">tests</text></g><!--link Assets to Render--><g id="link_Assets_Render"><path d="M2525.8716,495.4362 C2525.7968,495.1366 2525.7214,494.837 2525.6454,494.5375 C2525.4934,493.9383 2525.3389,493.3391 2525.1818,492.7399 C2524.8678,491.5416 2524.5437,490.3434 2524.2092,489.1462 C2521.5333,479.5685 2518.1937,470.0498 2514.0345,460.9591 C2505.7163,442.7775 2494.12,426.3075 2478,414.5 C2343.54,316.01 1884.55,357.32 1728,414.5 C1645.37,444.68 1576.5659,518.6515 1542.4659,560.2115 " fill="none" id="Assets-to-Render" style="stroke:#181818;stroke-width:1;"/><polygon fill="#181818" points="1538.66,564.85,1547.4611,560.4295,1541.8316,560.9846,1541.2765,555.3551,1538.66,564.85" style="stroke:#181818;stroke-width:1;"/><text fill="#000000" font-family="sans-serif" font-size="13" lengthAdjust="spacing" textLength="104.6792" x="1649" y="362.5669">provides visuals</text></g><!--link Render to GMN71--><g id="link_Render_GMN71"><path d="M1533.12,564.98 C1564.62,512.89 1642.93,398.73 1745.5,358 C1783.89,342.76 3194.11,342.76 3232.5,358 C3325.51,394.93 3382.53,510.53 3404.57,563.94 " fill="none" id="Render-GMN71" style="stroke:#181818;stroke-width:1;stroke-dasharray:7.0,7.0;"/></g><!--link EpisodeData to GMN74--><g id="link_EpisodeData_GMN74"><path d="M2905.9373,560.2999 C2905.8099,559.7277 2905.6822,559.1494 2905.5542,558.5651 C2905.2983,557.3965 2905.0414,556.204 2904.7842,554.9889 C2900.6697,535.5472 2896.4969,510.3081 2895.3888,484.2537 C2893.1725,432.145 2903.215,376.775 2950.5,358 C2980.09,346.25 3493.91,346.25 3523.5,358 C3608.76,391.86 3643.91,509.62 3655.82,563.81 " fill="none" id="EpisodeData-GMN74" style="stroke:#181818;stroke-width:1;stroke-dasharray:7.0,7.0;"/></g><!--link Sim to GMN77--><g id="link_Sim_GMN77"><path d="M1337.92,573.22 C1341.55,524.38 1359.29,392.23 1445.5,358 C1475.42,346.12 3733.58,346.12 3763.5,358 C3841.82,389.1 3867.83,498.27 3876.2,555.65 " fill="none" id="Sim-GMN77" style="stroke:#181818;stroke-width:1;stroke-dasharray:7.0,7.0;"/></g><!--SRC=[XLRRRkCs47tNLt2pGDiy62dGHH44Ym1PMqvS-1B4zlPX6omOYRRPoAH0KdRT8l_U6PAYA4jfRS2IPmxdnhbzoDc62qQ6YzdZOfxELz-_t7yVBgQB9_8nlHv_6byd7pmadTzFvcd47u_7dz9V0tzqjxgBkJ_ZDt3NaxRaw_GwIVGh5oLLT4yokI-bOC8ipQbWHB7CKB4jM0HveTdhLibAv4DPI4MEEsvOdmZoJqBWy-KCttNHmQJAcNAGZx_OJ_AM93-IbIm71JkmWkYJDYnIe9CIPDCj8nVtTC_8NLaMFAE6It7XbTkVW1fA1V4JMmZ41Vdy-IoIjxV-47w-FJ41zd2nzGV-43yDgJXGVVbCg2QEtS2NV5yLLhN7MnHG6yZZxgHvfg_k1DzRf8LuQWER2CCKpQoe1ohoWYaBZEW175wSEMIGowCOt7Q4WXszlBUU8AqdP4fFJ664ecnfHsT6kI0p9Yfh6huqlBJaMkQCB5d1ik2dfwud3T1UsiDwPFdmR3Y_St4rfhmWoqmn9dp4TLMOA51BPWpSZtQHzd-weK7ZWlDTAm8bO69Bu3tGOmFw0cVTcSejpoxYKDNXc541C1K7OxPLBP_9K8gSkoGwqAAYHZeyy8Oxbhqsw0SE1RQq1U72nqKScrK5HpajOaXDwuQeCISusz7OWsbqzeLZQQYflTv3jRQ2OcFb44kmobKB4YqjgXabjuffC1vI_zL7hoP6gK0Fx6egQHxxYqIaTVqDKcjFEj1WIZ-apzzK66vEte1s1ZZE68fNgfDB04lob0voTIgPXeQpWkl2xdirv2g31pFPPNJSmfh3a3p25LmhrnfoJt6qx6Ygf4TyF_9S-1lsxAZVGi-2FFs1ZAYXs51Qmocqb1ouBrHZ47snZ71QsKh0EFosNCmlBwB2GN5zDGOADtpx_4vHwUUuom89wmCl-Rbp0rE-vyRZeyjk3CLqi5w1ULEPqGBJ69nsPYBttCR70hjgoBr8vreK4f8xhxsBUQ79lM_AdTRCWCKlYggJLMyfEbR-bUiAl5tje1HRud4katIpWKjicJGXzugMEnWKppqNEy9vB4iiQvZFij1rld-RsacTGi1zwtAlIUkQljA2vw6vXNz9Y9DXsf0PG5szUqhZl1CQih0juOmPJjjjuecvAQrtlDJaXPaZp1Uoft_2YMYni7qV3ZTzu8PK9UY0YeXw0_O56Aqt95Vy02mxPzi514pjTWFWrsEw0yaLFUeaYPjiCwri9jsG0hgFxa1QPNb3O5wY9iAGpa5btSWxxZ0tOG2IDFtGDpgliMHASsqwIWE-2KeIhotdglOovniqvXpqlzOdzMLsek6XIKYNvZBmBnprLJ2mezl67JnIyi2XmiZ15eJ6b9XBb2FWboY-tHaYDyrwvtQ-0LPQ3hrU6GwDs6-Ym5wK1Zh5ty3RW9Lc9oiDAvi64S3CfCWgfR18e2hWbzQRdqv0Fa6LoPdYo4cGW8-1pIr1c2-Ue7ikGGCGiXqC2N19C9Opd4zeYc37-iJxojnwclx5iWgZRcG9w_VsPDqkCfUpP5F88pRt4JFO9Ep-N-BjLme7jLjH0GRh6b3-mxEw4TWa4D2D37GEDDQ5oauAUwjkmuLh8LYb9GJNI5BQzXc9_nS0]--></g></svg>