<svg xmlns="http://www.w3.org/2000/svg" xmlns:xlink="http://www.w3.org/1999/xlink" contentScriptType="application/ecmascript" contentStyleType="text/css" height="316px" preserveAspectRatio="none" style="width:423px;height:316px;" version="1.1" viewBox="0 0 423 316" width="423px" zoomAndPan="magnify"><defs/> --><g><!--MD5=[71c15fae838385c3307b3a5a99c18a83]
entity MachineLearningStudioClassicWebServices--><rect fill="#FFFFFF" height="121.8828" style="stroke:#3C7FC0;stroke-width:1.0;" width="120" x="7" y="7"/> --><svg x="40" y="17"><g transform="scale(3,3)" ><defs><linearGradient id="aa5994b0-7cc1-426e-80f1-5365573f8425" x1="5.77" y1="7.08" x2="5.88" y2="17.58" gradientUnits="userSpaceOnUse"><stop offset="0" stop-color="#32d4f5" /> --><stop offset="0.32" stop-color="#31d1f3" /> --><stop offset="0.53" stop-color="#2ec9eb" /> --><stop offset="0.7" stop-color="#29bade" /> --><stop offset="0.86" stop-color="#22a5cb" /> --><stop offset="1" stop-color="#198ab3" /> --><stop offset="1" stop-color="#198ab3" /> --></linearGradient></defs><path id="b9c253d2-19cf-459c-b9f4-aa31a074509f" d="M15.08,11.65A6.25,6.25,0,1,1,7.41,1.77l.07-.05a6.25,6.25,0,0,1,7.6,9.93" fill="#f2f2f2" /> --><path d="M16.24,2.94A6.26,6.26,0,0,0,7.48,1.71l-.07.05A6.26,6.26,0,0,0,11.26,13a6.16,6.16,0,0,0,3.82-1.31h0A6.28,6.28,0,0,0,16.24,2.94ZM5.81,6.31a5.55,5.55,0,0,1,.61-2.13H7.93a10.84,10.84,0,0,0-.29,2.13Zm3-2.13h2.08V6.31H8.45A9.41,9.41,0,0,1,8.77,4.18Zm2.88,0h2.08a9.41,9.41,0,0,1,.32,2.13h-2.4Zm-.8,2.93V9.23H8.77a9.24,9.24,0,0,1-.32-2.12Zm.8,0h2.4a9.24,9.24,0,0,1-.32,2.12H11.65Zm3.21,0h1.82a5.61,5.61,0,0,1-.6,2.12H14.56A10,10,0,0,0,14.86,7.11Zm0-.8a10.13,10.13,0,0,0-.3-2.13h1.52a5.41,5.41,0,0,1,.6,2.13Zm.71-2.93H14.32a5.92,5.92,0,0,0-.88-1.66A5.4,5.4,0,0,1,15.57,3.38Zm-2.12,0h-1.8v-2A3.27,3.27,0,0,1,13.45,3.38Zm-2.6-2v2H9.05A3.27,3.27,0,0,1,10.85,1.34ZM7.91,2.4l0,0a5.39,5.39,0,0,1,1.1-.65,6.12,6.12,0,0,0-.88,1.67H6.93A5.05,5.05,0,0,1,7.91,2.4ZM5.81,7.11H7.64a10.74,10.74,0,0,0,.29,2.12H6.42A5.22,5.22,0,0,1,5.81,7.11Zm1.13,2.94H8.18a6.06,6.06,0,0,0,.88,1.66A5.35,5.35,0,0,1,6.94,10.05Zm2.11,0h1.8v2A3.27,3.27,0,0,1,9.05,10Zm2.6,2V10h1.8A3.27,3.27,0,0,1,11.65,12.08ZM14.59,11h0a5,5,0,0,1-1.16.68A5.82,5.82,0,0,0,14.32,10h1.25A5.68,5.68,0,0,1,14.59,11Z" fill="#0078d4" /> --><path d="M10.85,17.5H.89c-.31,0-.5-.51-.32-.77l3.43-5a.39.39,0,0,0,.07-.23V8.2a.2.2,0,0,0-.2-.2H3.69a.39.39,0,0,1-.39-.39V7.43A.39.39,0,0,1,3.69,7H8.06a.4.4,0,0,1,.39.4v.18A.4.4,0,0,1,8.06,8H7.87a.19.19,0,0,0-.19.2v3.31a.34.34,0,0,0,.07.22l3.43,5C11.36,17,11.17,17.5,10.85,17.5Z" fill="url(#aa5994b0-7cc1-426e-80f1-5365573f8425)" /> --><path d="M2.24,16.18l2.47-3.6a.87.87,0,0,0,.16-.52V10.61a.29.29,0,0,1,.29-.28h1.4a.29.29,0,0,1,.29.28v1.55a.6.6,0,0,0,.1.35l2.53,3.67a.22.22,0,0,1-.18.34H2.42A.22.22,0,0,1,2.24,16.18Z" fill="#fff" /> --></g></svg><text fill="#000000" font-family="Segoe UI" font-size="12" lengthAdjust="spacing" textLength="95" x="18" y="83.9492">Machine Learning</text><text fill="#000000" font-family="Segoe UI" font-size="12" lengthAdjust="spacing" textLength="100" x="17" y="99.9102">Studio Classic Web</text><text fill="#000000" font-family="Segoe UI" font-size="12" lengthAdjust="spacing" textLength="42" x="46" y="115.8711">Services</text><!--MD5=[85a83d335eccf909d5c94e68f172724b]
entity TranslatorText--><rect fill="#FFFFFF" height="89.9609" style="stroke:#3C7FC0;stroke-width:1.0;" width="97" x="162.5" y="23"/> --><svg x="184" y="33"><g transform="scale(3,3)" ><defs><linearGradient id="bcf06cd3-a4b8-4fd5-87ad-fd0a708c782b" x1="9" x2="9" y2="18" gradientUnits="userSpaceOnUse"><stop offset="0" stop-color="#5ea0ef" /> --><stop offset="1" stop-color="#0078d4" /> --></linearGradient><linearGradient id="ab8b109c-2878-45da-89b4-5b7b4d0302fd" x1="-998.057" y1="-213.109" x2="-1002.698" y2="-204.987" gradientTransform="translate(-195.271 1006.992) rotate(90)" gradientUnits="userSpaceOnUse"><stop offset="0" stop-color="#fff" /> --><stop offset="1" stop-color="#fff" stop-opacity="0.3" /> --></linearGradient><linearGradient id="aa22a732-ecb4-41ce-bd4f-17b24d84fd2f" x1="-122.365" y1="1106.487" x2="-127.006" y2="1114.61" gradientTransform="translate(-1106.024 -112.477) rotate(-90)" gradientUnits="userSpaceOnUse"><stop offset="0" stop-color="#fff" /> --><stop offset="1" stop-color="#fff" stop-opacity="0.3" /> --></linearGradient></defs><rect width="18" height="18" rx="0.6" fill="url(#bcf06cd3-a4b8-4fd5-87ad-fd0a708c782b)" /> --><path d="M13.281,9.822a3.549,3.549,0,0,0-1.946.537v.94a2.819,2.819,0,0,1,1.868-.7q1.181,0,1.18,1.459l-1.717.241q-1.89.262-1.89,1.868a1.568,1.568,0,0,0,.484,1.2,1.882,1.882,0,0,0,1.339.453,1.921,1.921,0,0,0,1.762-1.029h.022v.895H15.3V11.958Q15.3,9.822,13.281,9.822Zm1.1,3.534a1.706,1.706,0,0,1-.445,1.211,1.47,1.47,0,0,1-1.126.478,1.155,1.155,0,0,1-.8-.265.874.874,0,0,1-.3-.685.913.913,0,0,1,.324-.8A2.247,2.247,0,0,1,13,12.976l1.381-.19Z" fill="#fff" /> --><path d="M13.782,8.891l1.537-1.58c.167-.166.106-.311-.16-.311h-.683a.2.2,0,0,1-.2-.2c.022-1.019-.264-3.848-4.129-3.944a.2.2,0,0,0-.2.2v1a.2.2,0,0,0,.216.2A2.373,2.373,0,0,1,13.026,6.8a.2.2,0,0,1-.2.2H12.2c-.322,0-.376.1-.161.311l1.425,1.58A.2.2,0,0,0,13.782,8.891Z" fill="url(#ab8b109c-2878-45da-89b4-5b7b4d0302fd)" /> --><path d="M4.52,9.932l-1.538,1.58c-.167.167-.106.311.161.311h.682a.2.2,0,0,1,.2.2C4,13.042,4.285,15.871,8.15,15.967a.2.2,0,0,0,.2-.2v-1a.2.2,0,0,0-.215-.2,2.373,2.373,0,0,1-2.863-2.551.2.2,0,0,1,.2-.2h.632c.321,0,.375-.1.16-.311L4.841,9.932A.2.2,0,0,0,4.52,9.932Z" fill="url(#aa22a732-ecb4-41ce-bd4f-17b24d84fd2f)" /> --><path d="M6.63,4.4a2.62,2.62,0,0,1,1.416.746,2,2,0,0,1-.014,2.9,3.036,3.036,0,0,1-1.914.742l-.285-.643a2.731,2.731,0,0,0,1.6-.462,1.3,1.3,0,0,0,.565-1.077A1.418,1.418,0,0,0,7.56,5.583,2.046,2.046,0,0,0,6.467,5.01a6.487,6.487,0,0,1-1.138,2.3,2.205,2.205,0,0,0,.262.457l-.536.372a2.221,2.221,0,0,1-.218-.333,2.313,2.313,0,0,1-1.444.635,1.139,1.139,0,0,1-.821-.317,1.246,1.246,0,0,1-.329-.937A2.383,2.383,0,0,1,2.777,5.73,3.317,3.317,0,0,1,4.143,4.669q.024-.8.052-1.119-.834.032-1.317.032l-.107-.619q.519.019,1.471-.016a12.15,12.15,0,0,1,.21-1.364l.619.091L4.9,2.9a24.13,24.13,0,0,0,2.59-.31l.131.6a27.012,27.012,0,0,1-2.777.322,7.044,7.044,0,0,0-.059.928,4.058,4.058,0,0,1,.936-.123c.082,0,.162,0,.242.008a2.4,2.4,0,0,0,.115-.512l.634.091A3.792,3.792,0,0,1,6.63,4.4ZM4.552,7.172a6.95,6.95,0,0,1-.381-1.821,2.468,2.468,0,0,0-.913.8,1.761,1.761,0,0,0-.337,1,.688.688,0,0,0,.143.508.434.434,0,0,0,.294.13,1.6,1.6,0,0,0,.523-.138A1.952,1.952,0,0,0,4.552,7.172Zm1.241-2.21a3.7,3.7,0,0,0-.976.147,5.732,5.732,0,0,0,.23,1.464A6,6,0,0,0,5.793,4.962Z" fill="#fff" /> -->​</g></svg><text fill="#000000" font-family="Segoe UI" font-size="12" lengthAdjust="spacing" textLength="77" x="172.5" y="99.9492">Translator Text</text><!--MD5=[9bc95aa131df5d46e9bfea977d04ec85]
entity CognitiveServices--><rect fill="#FFFFFF" height="89.9609" style="stroke:#3C7FC0;stroke-width:1.0;" width="116" x="295" y="23"/> --><svg x="326" y="33"><g transform="scale(3,3)" ><defs><linearGradient id="b6c43bd9-e37f-4191-93c2-d3a7a84c505e" x1="9" y1="19.13" x2="9" y2="-0.29" gradientUnits="userSpaceOnUse"><stop offset="0" stop-color="#0078d4" /> --><stop offset="0.16" stop-color="#1380da" /> --><stop offset="0.53" stop-color="#3c91e5" /> --><stop offset="0.82" stop-color="#559cec" /> --><stop offset="1" stop-color="#5ea0ef" /> --></linearGradient></defs><title>Icon-machinelearning-162</title><path d="M18,11.38A4,4,0,0,0,14.49,7.5,5.1,5.1,0,0,0,9.24,2.62,5.25,5.25,0,0,0,4.22,6,4.8,4.8,0,0,0,0,10.67a4.9,4.9,0,0,0,5.07,4.71l.44,0h8.21a.78.78,0,0,0,.22,0A4.1,4.1,0,0,0,18,11.38Z" fill="url(#b6c43bd9-e37f-4191-93c2-d3a7a84c505e)" /> --><path d="M5.42,10.39H4.54a1.09,1.09,0,1,0,0,.49h.88a.2.2,0,0,1,.2.2v4.3h.49v-4.3A.69.69,0,0,0,5.42,10.39Zm-1.95.88a.64.64,0,1,1,.64-.64A.64.64,0,0,1,3.47,11.27Z" fill="#9cebff" /> --><path d="M8.94,10.61v-1a.7.7,0,0,0-.7-.7H6.69a.2.2,0,0,1-.2-.2V3.4l-.23.12L6,3.66v5a.69.69,0,0,0,.69.69H8.24a.21.21,0,0,1,.21.21v1a1.08,1.08,0,0,0-.85,1.06,1.09,1.09,0,1,0,1.34-1.06Zm-.25,1.7h0a.64.64,0,1,1,.64-.64A.64.64,0,0,1,8.69,12.31Z" fill="#f2f2f2" /> --><path d="M14.53,8.5a1.09,1.09,0,0,0-.25,2.15v.2a.21.21,0,0,1-.21.21h-2V7.54a.69.69,0,0,0-.69-.69H10.35A1.08,1.08,0,0,0,9.29,6a1.09,1.09,0,1,0,1.06,1.34h1.07a.2.2,0,0,1,.2.2v7.84h.49V11.55h2a.7.7,0,0,0,.7-.7v-.2a1.09,1.09,0,0,0,.85-1.06h0A1.09,1.09,0,0,0,14.53,8.5ZM9.29,7.73h0a.64.64,0,1,1,.64-.64A.64.64,0,0,1,9.29,7.73Zm5.24,2.5h0a.64.64,0,1,1,.63-.64A.64.64,0,0,1,14.53,10.23Z" fill="#9cebff" /> --></g></svg><text fill="#000000" font-family="Segoe UI" font-size="12" lengthAdjust="spacing" textLength="96" x="305" y="99.9492">Cognitive Services</text><!--MD5=[88d4f5ca591727afe7f0a75c7db155a6]
entity BotServices--><rect fill="#FFFFFF" height="89.9609" style="stroke:#3C7FC0;stroke-width:1.0;" width="83" x="25.5" y="205"/> --><svg x="40" y="215"><g transform="scale(3,3)" ><defs><radialGradient id="b915730c-dc69-4cd4-8cf3-619882b8e8ab" cx="55.71" cy="71.92" r="9" gradientTransform="translate(-43.61 -58.92) scale(0.94 0.94)" gradientUnits="userSpaceOnUse"><stop offset="0.67" stop-color="#6bb9f2" /> --><stop offset="0.74" stop-color="#61b4f1" /> --><stop offset="0.85" stop-color="#47a8ef" /> --><stop offset="0.99" stop-color="#1d94eb" /> --><stop offset="1" stop-color="#1b93eb" /> --></radialGradient></defs><title>Icon-machinelearning-165</title><path id="f6a29e1b-194b-4d8d-8529-49edea7bbba0" d="M9,.5A8.5,8.5,0,1,0,17.5,9,8.5,8.5,0,0,0,9,.5Z" fill="url(#b915730c-dc69-4cd4-8cf3-619882b8e8ab)" /> --><circle cx="9" cy="9" r="7.03" fill="#fff" /> --><circle cx="7.45" cy="9" r="0.77" fill="#32bedd" /> --><path d="M5.26,6.8H4.88a.29.29,0,0,0-.29.29v5.72a.59.59,0,0,0,.59.59h5.57a.29.29,0,0,0,.29-.3v-.38a.29.29,0,0,0-.29-.29h-5a.14.14,0,0,1-.14-.15V7.09A.29.29,0,0,0,5.26,6.8Z" fill="#32bedd" /> --><circle cx="10.55" cy="9" r="0.77" fill="#32bedd" /> --><path d="M12.42,4.6H7.23a.29.29,0,0,0-.29.3v.38a.29.29,0,0,0,.29.29h5a.15.15,0,0,1,.15.15v5.19a.29.29,0,0,0,.29.29h.38a.29.29,0,0,0,.29-.29V5.19a.59.59,0,0,0-.58-.59Z" fill="#32bedd" /> --></g></svg><text fill="#000000" font-family="Segoe UI" font-size="12" lengthAdjust="spacing" textLength="63" x="35.5" y="281.9492">Bot Services</text><!--MD5=[8beff6167697454dccff63dc9f0cd530]
entity MachineLearningStudioWorkspaces--><rect fill="#FFFFFF" height="105.9219" style="stroke:#3C7FC0;stroke-width:1.0;" width="120" x="144" y="197"/> --><svg x="177" y="207"><g transform="scale(3,3)" ><defs><linearGradient id="b8ef1ebf-419d-4097-a9bc-e2fbb68d9c3b" x1="5.71" y1="7.1" x2="5.82" y2="17.48" gradientUnits="userSpaceOnUse"><stop offset="0" stop-color="#32d4f5" /> --><stop offset="0.32" stop-color="#31d1f3" /> --><stop offset="0.53" stop-color="#2ec9eb" /> --><stop offset="0.7" stop-color="#29bade" /> --><stop offset="0.86" stop-color="#22a5cb" /> --><stop offset="1" stop-color="#198ab3" /> --><stop offset="1" stop-color="#198ab3" /> --></linearGradient></defs><title>Icon-machinelearning-167</title><path d="M6,.6H17.12a.37.37,0,0,1,.38.34V9.53a.36.36,0,0,1-.38.34H6a.36.36,0,0,1-.38-.34V.94A.37.37,0,0,1,6,.6Z" fill="#e6e6e6" /> --><path d="M5.94.6h11.2a.35.35,0,0,1,.36.32h0v1.3H5.58V.92A.35.35,0,0,1,5.94.6Z" fill="#5ea0ef" /> --><rect x="5.58" y="2.22" width="3.98" height="3.83" fill="#83b9f9" /> --><rect x="9.54" y="2.22" width="3.98" height="3.83" fill="#0078d4" /> --><rect x="13.52" y="2.22" width="3.98" height="3.83" fill="#83b9f9" /> --><path d="M14.09,6H17.5a0,0,0,0,1,0,0V9.87a0,0,0,0,1,0,0h-4a0,0,0,0,1,0,0V6.61A.57.57,0,0,1,14.09,6Z" transform="translate(31.02 15.91) rotate(-180)" fill="#0078d4" /> --><rect x="9.56" y="6.04" width="3.98" height="3.83" transform="translate(23.11 15.91) rotate(-180)" fill="#83b9f9" /> --><rect x="5.58" y="6.04" width="3.98" height="3.83" transform="translate(15.15 15.91) rotate(-180)" fill="#0078d4" /> --><path d="M10.73,17.4H.89c-.31,0-.5-.5-.32-.76l3.39-5A.34.34,0,0,0,4,11.47V8.2A.2.2,0,0,0,3.84,8H3.65a.39.39,0,0,1-.39-.39V7.44a.39.39,0,0,1,.39-.38H8a.38.38,0,0,1,.39.38v.18A.38.38,0,0,1,8,8H7.79a.2.2,0,0,0-.2.19v3.28a.41.41,0,0,0,.07.22l3.4,4.94C11.23,16.9,11.05,17.4,10.73,17.4Z" fill="url(#b8ef1ebf-419d-4097-a9bc-e2fbb68d9c3b)" /> --><path d="M2.19,16l2.46-3.59a.86.86,0,0,0,.16-.51V10.4a.29.29,0,0,1,.29-.29H6.5a.28.28,0,0,1,.28.29V12a.6.6,0,0,0,.11.34L9.41,16a.21.21,0,0,1-.18.34H2.36A.21.21,0,0,1,2.19,16Z" fill="#fff" /> --></g></svg><text fill="#000000" font-family="Segoe UI" font-size="12" lengthAdjust="spacing" textLength="95" x="155" y="273.9492">Machine Learning</text><text fill="#000000" font-family="Segoe UI" font-size="12" lengthAdjust="spacing" textLength="100" x="154" y="289.9102">Studio Workspaces</text><!--MD5=[cb841a5f1560d87d95b7c0124608dcd7]
entity MachineLearningStudioWebServicePlans--><rect fill="#FFFFFF" height="121.8828" style="stroke:#3C7FC0;stroke-width:1.0;" width="118" x="299" y="189"/> --><svg x="331" y="199"><g transform="scale(3,3)" ><defs><linearGradient id="a2854fe3-9b14-477e-8294-5e6b9a1e1b11" x1="9.83" y1="1.59" x2="9.83" y2="8.94" gradientUnits="userSpaceOnUse"><stop offset="0" stop-color="#fff" /> --><stop offset="0.56" stop-color="#fbfbfb" /> --><stop offset="1" stop-color="#f2f2f2" /> --></linearGradient><linearGradient id="b36fdb3b-36cd-4376-b375-7b5dfcc211f3" x1="5.71" y1="7.13" x2="5.82" y2="17.51" gradientUnits="userSpaceOnUse"><stop offset="0" stop-color="#32d4f5" /> --><stop offset="0.32" stop-color="#31d1f3" /> --><stop offset="0.53" stop-color="#2ec9eb" /> --><stop offset="0.7" stop-color="#29bade" /> --><stop offset="0.86" stop-color="#22a5cb" /> --><stop offset="1" stop-color="#198ab3" /> --><stop offset="1" stop-color="#198ab3" /> --></linearGradient></defs><title>Icon-machinelearning-168</title><path d="M9.83.52C14.45.52,17.27,4,17.5,8.65A1.19,1.19,0,0,1,16.31,9.9h-13A1.18,1.18,0,0,1,2.16,8.65C2.39,4,5.21.52,9.83.52Z" fill="#0078d4" /> --><path d="M3.34,9.11A.39.39,0,0,1,3,8.69C3.17,4.2,6.26,1.31,9.83,1.31s6.66,2.89,6.88,7.38a.47.47,0,0,1-.11.3.44.44,0,0,1-.29.12Z" fill="url(#a2854fe3-9b14-477e-8294-5e6b9a1e1b11)" /> --><path d="M13.55,3.79a5.62,5.62,0,0,0-3.33-1.42V5a3.07,3.07,0,0,1,1.55.66Z" fill="#5ea0ef" /> --><path d="M6.11,3.79,7.89,5.62A3,3,0,0,1,9.43,5V2.37A5.57,5.57,0,0,0,6.11,3.79Z" fill="#0078d4" /> --><path d="M12.33,6.2A3.28,3.28,0,0,1,13,7.78h2.52a5.9,5.9,0,0,0-1.38-3.41Z" fill="#5ea0ef" /> --><path d="M7.33,6.2,5.55,4.37A5.84,5.84,0,0,0,4.17,7.78H6.68A3.39,3.39,0,0,1,7.33,6.2Z" fill="#005ba1" /> --><path d="M14.46,5.63a.42.42,0,0,0-.52-.23L10.23,6.88l.29.74,3.71-1.48A.41.41,0,0,0,14.46,5.63Z" fill="#005ba1" /> --><circle cx="9.83" cy="7.42" r="1.08" fill="#767676" /> --><path d="M10.73,17.43H.89c-.31,0-.5-.5-.32-.76L4,11.73A.38.38,0,0,0,4,11.51V8.24A.2.2,0,0,0,3.84,8H3.65a.39.39,0,0,1-.39-.39V7.48a.39.39,0,0,1,.39-.39H8a.38.38,0,0,1,.39.39v.17A.38.38,0,0,1,8,8H7.79a.2.2,0,0,0-.2.2v3.27a.41.41,0,0,0,.07.22l3.4,4.94C11.23,16.93,11.05,17.43,10.73,17.43Z" fill="url(#b36fdb3b-36cd-4376-b375-7b5dfcc211f3)" /> --><path d="M2.19,16l2.46-3.6a.86.86,0,0,0,.16-.51V10.43a.29.29,0,0,1,.29-.29H6.5a.28.28,0,0,1,.28.29V12a.6.6,0,0,0,.11.34L9.41,16a.21.21,0,0,1-.18.33H2.36A.21.21,0,0,1,2.19,16Z" fill="#fff" /> --></g></svg><text fill="#000000" font-family="Segoe UI" font-size="12" lengthAdjust="spacing" textLength="95" x="309" y="265.9492">Machine Learning</text><text fill="#000000" font-family="Segoe UI" font-size="12" lengthAdjust="spacing" textLength="61" x="326" y="281.9102">Studio Web</text><text fill="#000000" font-family="Segoe UI" font-size="12" lengthAdjust="spacing" textLength="68" x="324" y="297.8711">Service Plans</text><!--MD5=[08f0b6fb7f026318839af44c99669ebb]
link MachineLearningStudioClassicWebServices to TranslatorText--><!--MD5=[fc8a7779f0718f3d7a30db04941da3bb]
link TranslatorText to CognitiveServices--><!--MD5=[5239690a9c34a84d7d8c1eb402bc3bfd]
link MachineLearningStudioClassicWebServices to BotServices--><!--MD5=[b95f7329e0c8239ed6a0c39ad6bcc1e8]
link BotServices to MachineLearningStudioWorkspaces--><!--MD5=[6929e5f03bf0dcffa76cf550adc0bd0a]
link MachineLearningStudioWorkspaces to MachineLearningStudioWebServicePlans--><!--MD5=[8f94153f463fe11fbc622e142c917509]
@startuml
!pragma revision 1
!include ../../includes/AzureCommon.puml
sprite $MachineLearningStudioClassicWebServices AIMachineLearning/00030-icon-service-Machine-Learning-Studio-Classic-Web-Services.svg
rectangle "Machine Learning Studio Classic Web Services" <<$MachineLearningStudioClassicWebServices{scale=3}>> as MachineLearningStudioClassicWebServices
sprite $TranslatorText AIMachineLearning/00800-icon-service-Translator-Text.svg
rectangle "Translator Text" <<$TranslatorText{scale=3}>> as TranslatorText
sprite $CognitiveServices AIMachineLearning/10162-icon-service-Cognitive-Services.svg
rectangle "Cognitive Services" <<$CognitiveServices{scale=3}>> as CognitiveServices
sprite $BotServices AIMachineLearning/10165-icon-service-Bot-Services.svg
rectangle "Bot Services" <<$BotServices{scale=3}>> as BotServices
sprite $MachineLearningStudioWorkspaces AIMachineLearning/10167-icon-service-Machine-Learning-Studio-Workspaces.svg
rectangle "Machine Learning Studio Workspaces" <<$MachineLearningStudioWorkspaces{scale=3}>> as MachineLearningStudioWorkspaces
sprite $MachineLearningStudioWebServicePlans AIMachineLearning/10168-icon-service-Machine-Learning-Studio-Web-Service-Plans.svg
rectangle "Machine Learning Studio Web Service Plans" <<$MachineLearningStudioWebServicePlans{scale=3}>> as MachineLearningStudioWebServicePlans
@enduml

@startuml
!pragma revision 1


skinparam defaultTextAlignment center
skinparam defaultFontName Segoe UI
skinparam defaultBackgroundColor white
skinparam RectangleBackgroundColor white
skinparam RectangleBorderColor #3C7FC0
skinparam WrapWidth 100

skinparam rectangle {
    FontSize 12
    BorderThickness 1
    Shadowing false
}
sprite $MachineLearningStudioClassicWebServices AIMachineLearning/00030-icon-service-Machine-Learning-Studio-Classic-Web-Services.svg
rectangle "Machine Learning Studio Classic Web Services" <<$MachineLearningStudioClassicWebServices{scale=3}>> as MachineLearningStudioClassicWebServices
sprite $TranslatorText AIMachineLearning/00800-icon-service-Translator-Text.svg
rectangle "Translator Text" <<$TranslatorText{scale=3}>> as TranslatorText
sprite $CognitiveServices AIMachineLearning/10162-icon-service-Cognitive-Services.svg
rectangle "Cognitive Services" <<$CognitiveServices{scale=3}>> as CognitiveServices
sprite $BotServices AIMachineLearning/10165-icon-service-Bot-Services.svg
rectangle "Bot Services" <<$BotServices{scale=3}>> as BotServices
sprite $MachineLearningStudioWorkspaces AIMachineLearning/10167-icon-service-Machine-Learning-Studio-Workspaces.svg
rectangle "Machine Learning Studio Workspaces" <<$MachineLearningStudioWorkspaces{scale=3}>> as MachineLearningStudioWorkspaces
sprite $MachineLearningStudioWebServicePlans AIMachineLearning/10168-icon-service-Machine-Learning-Studio-Web-Service-Plans.svg
rectangle "Machine Learning Studio Web Service Plans" <<$MachineLearningStudioWebServicePlans{scale=3}>> as MachineLearningStudioWebServicePlans
@enduml

PlantUML version 1.2021.00(Sun Jan 10 02:25:05 PST 2021)
(GPL source distribution)
Java Runtime: Java(TM) SE Runtime Environment
JVM: Java HotSpot(TM) 64-Bit Server VM
Default Encoding: Cp1252
Language: en
Country: US
--></g></svg>