<svg xmlns="http://www.w3.org/2000/svg" xmlns:xlink="http://www.w3.org/1999/xlink" contentScriptType="application/ecmascript" contentStyleType="text/css" height="450px" preserveAspectRatio="none" style="width:415px;height:450px;" version="1.1" viewBox="0 0 415 450" width="415px" zoomAndPan="magnify"><defs/> --><g><!--MD5=[8d03ed8981b71250d4444418ab80479c]
entity LogAnalyticsWorkspaces--><rect fill="#FFFFFF" height="105.9219" style="stroke:#3C7FC0;stroke-width:1.0;" width="94" x="20" y="7"/> --><svg x="40" y="17"><g transform="scale(3,3)" ><defs><linearGradient id="a997e203-1d7d-4cb9-b131-5dc44e029b46" x1="5.23" y1="17.45" x2="5.23" y2="8.09" gradientUnits="userSpaceOnUse"><stop offset="0" stop-color="#1988d9"
><stop offset="0.9" stop-color="#54aef0"
></linearGradient><linearGradient id="e122e9d8-aee5-4f1a-a60e-b1eae355daa5" x1="11.5" y1="12.45" x2="11.5" y2="0.55" gradientUnits="userSpaceOnUse"><stop offset="0" stop-color="#198ab3"
><stop offset="0.01" stop-color="#198bb4"
><stop offset="0.44" stop-color="#27b2d7"
><stop offset="0.79" stop-color="#2fcbed"
><stop offset="1" stop-color="#32d4f5"
></linearGradient></defs><title>Icon-manage-307</title><path d="M5.59,13.13H9.91v4.32H5.59ZM1.15,17.45H4.87V13.13H.55v3.72A.6.6,0,0,0,1.15,17.45Zm-.6-5H4.87V8.09H.55Z" fill="url(#a997e203-1d7d-4cb9-b131-5dc44e029b46)"
><path d="M11.5.55a5.89,5.89,0,0,1,5.95,6,5.89,5.89,0,0,1-5.95,5.95H5.55V6.5A5.89,5.89,0,0,1,11.5.55Z" fill-rule="evenodd" fill="url(#e122e9d8-aee5-4f1a-a60e-b1eae355daa5)"
><rect x="7.59" y="5.65" width="1.36" height="4.08" fill="#fff"
><rect x="10.31" y="7.01" width="1.36" height="2.72" fill="#fff"
><rect x="13.03" y="4.29" width="1.36" height="5.44" fill="#fff"
></g></svg><text fill="#000000" font-family="Segoe UI" font-size="12" lengthAdjust="spacing" textLength="71" x="30" y="83.9492">Log Analytics</text><text fill="#000000" font-family="Segoe UI" font-size="12" lengthAdjust="spacing" textLength="63" x="35.5" y="99.9102">Workspaces</text><!--MD5=[35f8cd5d1c7f489214952462a7b225b6]
entity EventHubs--><rect fill="#FFFFFF" height="89.9609" style="stroke:#3C7FC0;stroke-width:1.0;" width="80" x="149" y="15"/> --><svg x="162" y="25"><title>Icon-analytics-144</title><g transform="scale(3,3)" ><g id="a53a4de8-371c-49da-a662-c4631299fc03"><path d="M10.83,8.42a.26.26,0,0,1-.24.27H8.5a.26.26,0,0,1-.27-.24V6.89a.26.26,0,0,1,.24-.27h2.09a.26.26,0,0,1,.27.24V8.42Z" fill="#76bc2d"
><path d="M14.54,10a.26.26,0,0,1-.24.27H12.21a.26.26,0,0,1-.27-.24V8.48a.26.26,0,0,1,.24-.27h2.09a.26.26,0,0,1,.27.24V10Z" fill="#76bc2d"
><path d="M10.83,11.6a.26.26,0,0,1-.24.27H8.5a.26.26,0,0,1-.27-.24V10.07a.26.26,0,0,1,.24-.27h2.09a.26.26,0,0,1,.27.24V11.6Z" fill="#76bc2d"
><path d="M7.12,6.84a.25.25,0,0,1-.23.26H4.74a.26.26,0,0,1-.27-.23V5.25A.26.26,0,0,1,4.71,5H6.8c.22,0,.32.11.32.27Z" fill="#86d633"
><path d="M7.12,10a.25.25,0,0,1-.23.27H4.74A.26.26,0,0,1,4.47,10V8.42a.26.26,0,0,1,.24-.26H6.8c.22,0,.32.11.32.26Z" fill="#76bc2d"
><path d="M7.12,13.19a.25.25,0,0,1-.23.27H4.74a.26.26,0,0,1-.27-.24V11.6a.25.25,0,0,1,.24-.26H6.8c.22,0,.32.1.32.26Z" fill="#76bc2d"
><g><path d="M1.07,1.51H2.36a0,0,0,0,1,0,0v3.6a.29.29,0,0,1-.29.29H.79A.29.29,0,0,1,.5,5.11v-3A.57.57,0,0,1,1.07,1.51Z" fill="#999"
><path d="M1.07,1.51H2.36a0,0,0,0,1,0,0v3.6a.29.29,0,0,1-.29.29H.79A.29.29,0,0,1,.5,5.11v-3A.57.57,0,0,1,1.07,1.51Z" fill="#999" opacity="0.5"
></g><g><path d="M15.64,1.51h1.29a.57.57,0,0,1,.57.57v3a.29.29,0,0,1-.29.29H15.92a.29.29,0,0,1-.29-.29V1.51A0,0,0,0,1,15.64,1.51Z" fill="#999"
><path d="M15.64,1.51h1.29a.57.57,0,0,1,.57.57v3a.29.29,0,0,1-.29.29H15.92a.29.29,0,0,1-.29-.29V1.51A0,0,0,0,1,15.64,1.51Z" fill="#999" opacity="0.5"
></g><path d="M8.66-6.08H9.91a0,0,0,0,1,0,0v17a0,0,0,0,1,0,0H8.66a.57.57,0,0,1-.57-.57V-5.52A.57.57,0,0,1,8.66-6.08Z" transform="translate(11.42 -6.58) rotate(90)" fill="#949494"
><g><path d="M.79,12.76H2.08a.29.29,0,0,1,.29.29v3.6a0,0,0,0,1,0,0H1.07a.57.57,0,0,1-.57-.57V13A.29.29,0,0,1,.79,12.76Z" fill="#999"
><path d="M.79,12.76H2.08a.29.29,0,0,1,.29.29v3.6a0,0,0,0,1,0,0H1.07a.57.57,0,0,1-.57-.57V13A.29.29,0,0,1,.79,12.76Z" fill="#999" opacity="0.5"
></g><g><path d="M15.92,12.76h1.29a.29.29,0,0,1,.29.29v3a.57.57,0,0,1-.57.57H15.64a0,0,0,0,1,0,0V13A.29.29,0,0,1,15.92,12.76Z" fill="#999"
><path d="M15.92,12.76h1.29a.29.29,0,0,1,.29.29v3a.57.57,0,0,1-.57.57H15.64a0,0,0,0,1,0,0V13A.29.29,0,0,1,15.92,12.76Z" fill="#999" opacity="0.5"
></g><path d="M8.66,7.24H9.91a0,0,0,0,1,0,0v17a0,0,0,0,1,0,0H8.66a.57.57,0,0,1-.57-.57V7.81A.57.57,0,0,1,8.66,7.24Z" transform="translate(-6.74 24.74) rotate(-90)" fill="#949494"
></g></g></svg><text fill="#000000" font-family="Segoe UI" font-size="12" lengthAdjust="spacing" textLength="60" x="159" y="91.9492">Event Hubs</text><!--MD5=[6f4f177b0d902bf83ffec0e70e605c88]
entity StreamAnalyticsJobs--><rect fill="#FFFFFF" height="105.9219" style="stroke:#3C7FC0;stroke-width:1.0;" width="111" x="264.5" y="7"/> --><svg x="293" y="17"><defs><linearGradient id="bf1f93aa-5175-40a2-82a6-8b8653d30d7a" x1="11.08" y1="31.2" x2="11.08" y2="15.71" gradientTransform="translate(0 -14.32) scale(1 0.99)" gradientUnits="userSpaceOnUse"><stop offset="0" stop-color="#949494"
><stop offset="0.33" stop-color="#9b9b9b"
><stop offset="0.82" stop-color="#aeafb0"
><stop offset="1" stop-color="#b6b8b9"
></linearGradient></defs><title>Icon-analytics-147</title><g transform="scale(3,3)" ><path d="M18,9.69V7.9l-.1-.09-1.84-.62L15.59,6l.91-1.88.1-.21L16,3.3l-.7-.69-.24.12-1.8.91L12.05,3.3l-.78-2H9.48l-.09.09L8.77,3.22l-1.26.47-2.08-1L4.15,3.94l.12.24L5.23,6a6,6,0,0,1,3.2-.86A6.26,6.26,0,0,1,12,6.28a3.32,3.32,0,0,1,.36.26l0,0a3.25,3.25,0,0,1,.93,1.35h0A3,3,0,0,1,13.5,9a3.23,3.23,0,0,1-3.25,3.23,3.27,3.27,0,0,1-1.87-.59,6.31,6.31,0,0,1-4,1.75l-.19.39,1.28,1.29L5.73,15,7.53,14l1.24.51.79,2.16h1.8l.07-.25.64-1.91L13.29,14l2.11,1,1.27-1.26-.12-.24-.93-1.79L16,10.46Z" fill="url(#bf1f93aa-5175-40a2-82a6-8b8653d30d7a)"
><path d="M4,10.65H4A3.6,3.6,0,0,1,1.44,9.6.46.46,0,1,1,2.09,9,2.65,2.65,0,0,0,4,9.73H4A2.62,2.62,0,0,0,5.88,9a3.55,3.55,0,0,1,2.55-1A3.64,3.64,0,0,1,11,9a.46.46,0,1,1-.65.65,2.69,2.69,0,0,0-1.89-.78h0a2.61,2.61,0,0,0-1.88.78A3.61,3.61,0,0,1,4,10.65Z" fill="#50e6ff"
><path d="M4,8.82H4A1.79,1.79,0,0,1,2.74,8.3a.46.46,0,0,1,.65-.65A.84.84,0,0,0,4,7.9H4a1.08,1.08,0,0,0,.6-.25,5.46,5.46,0,0,1,7.67,0,.46.46,0,0,1-.65.65,4.55,4.55,0,0,0-6.41,0A1.94,1.94,0,0,1,4,8.82Z" fill="#50e6ff"
><path d="M4,12.48A5.41,5.41,0,0,1,.13,10.89a.47.47,0,0,1,0-.64.47.47,0,0,1,.66,0A4.47,4.47,0,0,0,4,11.57,4.5,4.5,0,0,0,7.2,10.24a1.94,1.94,0,0,1,1.21-.49,1.83,1.83,0,0,1,1.25.52.46.46,0,0,1,0,.65.47.47,0,0,1-.66,0,.83.83,0,0,0-.59-.25h0a1,1,0,0,0-.6.26A5.41,5.41,0,0,1,4,12.48Z" fill="#32bedd"
></g></svg><text fill="#000000" font-family="Segoe UI" font-size="12" lengthAdjust="spacing" textLength="88" x="274.5" y="83.9492">Stream Analytics</text><text fill="#000000" font-family="Segoe UI" font-size="12" lengthAdjust="spacing" textLength="23" x="308.5" y="99.9102">Jobs</text><!--MD5=[f8976f088c12fb12ff006e19f1ba200e]
entity AzureSynapseAnalytics--><rect fill="#FFFFFF" height="105.9219" style="stroke:#3C7FC0;stroke-width:1.0;" width="99" x="17.5" y="173"/> --><svg x="40" y="183"><g transform="scale(3,3)" ><defs><linearGradient id="a891901b-79ae-490a-8568-9c4334417d35" x1="9" y1="5.38" x2="9" gradientUnits="userSpaceOnUse"><stop offset="0.199" stop-color="#005ba1"
><stop offset="1" stop-color="#0078d4"
></linearGradient><linearGradient id="bbdaa009-2281-4da8-9e89-6f41689e91a7" x1="9" y1="12.713" x2="9" y2="5.287" gradientUnits="userSpaceOnUse"><stop offset="0" stop-color="#198ab3"
><stop offset="0.172" stop-color="#32bedd"
><stop offset="0.5" stop-color="#50e6ff"
><stop offset="0.5" stop-color="#4fe4fd"
><stop offset="0.5" stop-color="#4bddf8"
><stop offset="0.5" stop-color="#44d2ee"
><stop offset="0.5" stop-color="#3ac1e0"
><stop offset="0.5" stop-color="#2dabce"
><stop offset="0.5" stop-color="#1d90b8"
><stop offset="0.5" stop-color="#198ab3"
><stop offset="0.662" stop-color="#32bedd"
><stop offset="0.975" stop-color="#50e6ff"
></linearGradient></defs><path d="M9,0,1.15,4.49v8.97L9,18l7.85-4.49v-9Zm6.4,12.57L9,16.27,2.6,12.609V5.38L9,1.68l6.4,3.71Z" fill="#0078d4"
><polygon points="9 0 9 0 1.15 4.49 2.6 5.38 9 1.68 9 1.68 15.4 5.38 16.85 4.49 9 0" fill="url(#a891901b-79ae-490a-8568-9c4334417d35)"
><path d="M12.74,10.475a.73.73,0,0,0-.323-.286A5.835,5.835,0,0,0,7.939,6.843L14.416,3.1,12.91,2.236,5.534,6.5A.75.75,0,0,0,5.91,7.9.684.684,0,0,0,6,7.877l.125.523a4.319,4.319,0,0,1,4.837,2.238L3.613,14.885l1.5.866L12.466,11.5a.729.729,0,0,0,.242-.236l.075-.018c-.007-.029-.018-.055-.025-.084A.735.735,0,0,0,12.74,10.475Z" fill="#50e6ff"
><path d="M12.091,9.013a1.85,1.85,0,1,0,1.85,1.85A1.85,1.85,0,0,0,12.091,9.013ZM5.909,5.267a1.85,1.85,0,1,0,1.85,1.85A1.85,1.85,0,0,0,5.909,5.267Z" fill="url(#bbdaa009-2281-4da8-9e89-6f41689e91a7)"
></g></svg><text fill="#000000" font-family="Segoe UI" font-size="12" lengthAdjust="spacing" textLength="76" x="27.5" y="249.9492">Azure Synapse</text><text fill="#000000" font-family="Segoe UI" font-size="12" lengthAdjust="spacing" textLength="48" x="43" y="265.9102">Analytics</text><!--MD5=[c9a26d8a497c674c19529193d28e7647]
entity HDInsightClusters--><rect fill="#FFFFFF" height="105.9219" style="stroke:#3C7FC0;stroke-width:1.0;" width="79" x="151.5" y="173"/> --><svg x="164" y="183"><g transform="scale(3,3)" ><defs><linearGradient id="f772da2f-25c0-485f-b825-95254810574a" x1="3.44" y1="14.22" x2="3.44" y2="10.54" gradientUnits="userSpaceOnUse"><stop offset="0.09" stop-color="#32bedd"
><stop offset="1" stop-color="#50e6ff"
></linearGradient><linearGradient id="e209b8d8-d6ba-4c1a-b87f-a54077b834d3" x1="14.51" y1="14.22" x2="14.51" y2="10.54" gradientUnits="userSpaceOnUse"><stop offset="0.09" stop-color="#32bedd"
><stop offset="1" stop-color="#50e6ff"
></linearGradient><linearGradient id="b6f64a2b-eee9-4c63-9dbc-7bc71d82c212" x1="8.98" y1="4.4" x2="8.98" y2="0.71" gradientUnits="userSpaceOnUse"><stop offset="0.09" stop-color="#32bedd"
><stop offset="1" stop-color="#50e6ff"
></linearGradient></defs><title>Icon-analytics-142</title><path d="M7.32,11.84h3.31a.28.28,0,0,0,.27-.22,3.7,3.7,0,0,1,1.34-2.15.27.27,0,0,0,.07-.36l-1.72-3A.27.27,0,0,0,10.25,6,3.87,3.87,0,0,1,9,6.23,3.56,3.56,0,0,1,7.71,6a.28.28,0,0,0-.34.13l-1.72,3a.28.28,0,0,0,.07.36,3.7,3.7,0,0,1,1.33,2.14A.27.27,0,0,0,7.32,11.84Zm-2-9.29h-2a.27.27,0,0,0-.24.14L.54,7.06a.28.28,0,0,0,0,.28l.93,1.6a.29.29,0,0,0,.37.12,3.62,3.62,0,0,1,1.6-.37,2.69,2.69,0,0,1,.4,0,.31.31,0,0,0,.28-.14L4.91,7.2,6.1,5.14a.27.27,0,0,0,0-.31A3.65,3.65,0,0,1,5.28,2.55Zm9.62.14a.27.27,0,0,0-.24-.14h-2a3.67,3.67,0,0,1-.78,2.27.27.27,0,0,0,0,.31l1.2,2.07.79,1.37a.28.28,0,0,0,.28.14l.38,0a3.77,3.77,0,0,1,1.61.37A.27.27,0,0,0,16.49,9l.93-1.61a.28.28,0,0,0,0-.28ZM10.77,13.44H7.18a.28.28,0,0,0-.27.18,3.64,3.64,0,0,1-1.39,1.79.29.29,0,0,0-.09.38l.79,1.36a.29.29,0,0,0,.24.14h5.05a.29.29,0,0,0,.24-.14l.78-1.35a.28.28,0,0,0-.09-.38,3.68,3.68,0,0,1-1.4-1.8A.28.28,0,0,0,10.77,13.44Z" fill="#0078d4"
><circle cx="3.44" cy="12.38" r="1.85" fill="url(#f772da2f-25c0-485f-b825-95254810574a)"
><circle cx="14.51" cy="12.38" r="1.85" fill="url(#e209b8d8-d6ba-4c1a-b87f-a54077b834d3)"
><circle cx="8.98" cy="2.55" r="1.85" fill="url(#b6f64a2b-eee9-4c63-9dbc-7bc71d82c212)"
><path d="M14.51,6.42a5.93,5.93,0,0,0-1.75.26l.3.52.79,1.37a.28.28,0,0,0,.28.14l.38,0a3.77,3.77,0,0,1,1.61.37A.27.27,0,0,0,16.49,9l.79-1.36.21-.37A5.88,5.88,0,0,0,14.51,6.42Zm-3.61,5.2a3.7,3.7,0,0,1,1.34-2.15.27.27,0,0,0,.07-.36l-1-1.76a6,6,0,0,0-2.73,4.49h2.06A.28.28,0,0,0,10.9,11.62Zm.14,2a.28.28,0,0,0-.27-.18H8.64a6,6,0,0,0,2.5,3.85h.37a.29.29,0,0,0,.24-.14l.78-1.35a.28.28,0,0,0-.09-.38A3.68,3.68,0,0,1,11,13.62Z" fill="#5ea0ef"
></g></svg><text fill="#000000" font-family="Segoe UI" font-size="12" lengthAdjust="spacing" textLength="56" x="161.5" y="249.9492">HD Insight</text><text fill="#000000" font-family="Segoe UI" font-size="12" lengthAdjust="spacing" textLength="42" x="170" y="265.9102">Clusters</text><!--MD5=[3e4e5020858011ed37e11e185bc2b1e4]
entity AnalysisServices--><rect fill="#FFFFFF" height="89.9609" style="stroke:#3C7FC0;stroke-width:1.0;" width="108" x="266" y="181"/> --><svg x="293" y="191"><g transform="scale(3,3)" ><defs><linearGradient id="fd591b35-0e01-4610-a025-8e017443b6ca" x1="3.96" y1="2.52" x2="3.96" y2="7.82" gradientUnits="userSpaceOnUse"><stop offset="0" stop-color="#32d4f5"
><stop offset="1" stop-color="#198ab3"
></linearGradient><linearGradient id="bded69e0-afb1-4c25-aa81-a799bd12553b" x1="14.04" y1="5.58" x2="14.04" y2="10.89" gradientUnits="userSpaceOnUse"><stop offset="0" stop-color="#32d4f5"
><stop offset="1" stop-color="#198ab3"
></linearGradient><linearGradient id="f25b6c72-365d-4ac2-a15c-1cace994f1e6" x1="5.29" y1="10.18" x2="5.29" y2="15.48" gradientUnits="userSpaceOnUse"><stop offset="0" stop-color="#32d4f5"
><stop offset="1" stop-color="#198ab3"
></linearGradient></defs><title>Icon-analytics-148</title><rect x="0.5" y="2.52" width="6.92" height="5.31" rx="0.28" fill="url(#fd591b35-0e01-4610-a025-8e017443b6ca)"
><rect x="10.58" y="5.58" width="6.92" height="5.31" rx="0.28" fill="url(#bded69e0-afb1-4c25-aa81-a799bd12553b)"
><rect x="1.82" y="10.18" width="6.92" height="5.31" rx="0.42" fill="url(#f25b6c72-365d-4ac2-a15c-1cace994f1e6)"
><path d="M13.15,8.92l.23-.64L4.82,5.13l-.23.63Zm.53-.09-.32-.6L5.29,12.48l.31.6ZM5,13.37l.67-.12L4.31,5.54l-.67.12Z" fill="#773adc"
><circle cx="14.04" cy="8.23" r="1.08" transform="translate(-2.23 8.81) rotate(-32.41)" fill="#fff"
><circle cx="3.96" cy="5.17" r="1.08" transform="translate(-2.15 2.93) rotate(-32.41)" fill="#fff"
><circle cx="5.29" cy="12.83" r="1.08" transform="translate(-6.05 4.83) rotate(-32.41)" fill="#fff"
></g></svg><text fill="#000000" font-family="Segoe UI" font-size="12" lengthAdjust="spacing" textLength="88" x="276" y="257.9492">Analysis Services</text><!--MD5=[d91c5fb1be8c92f12dde8b09bd0edcf7]
entity EventHubClusters--><rect fill="#FFFFFF" height="89.9609" style="stroke:#3C7FC0;stroke-width:1.0;" width="120" x="7" y="347"/> --><svg x="40" y="357"><title>Icon-analytics-149</title><g transform="scale(3,3)" ><g id="b4faf691-c548-4dca-a19b-147ca62db43a"><g><g><path d="M9.18,8.24h.65a0,0,0,0,1,0,0v1.81a.14.14,0,0,1-.14.14H9a.14.14,0,0,1-.14-.14V8.53A.29.29,0,0,1,9.18,8.24Z" fill="#b3b3b3"
><path d="M9.18,8.24h.65a0,0,0,0,1,0,0v1.81a.14.14,0,0,1-.14.14H9a.14.14,0,0,1-.14-.14V8.53A.29.29,0,0,1,9.18,8.24Z" fill="#b3b3b3" opacity="0.5"
></g><g><path d="M16.56,8.24h.65a.29.29,0,0,1,.29.29v1.53a.14.14,0,0,1-.14.14H16.7a.14.14,0,0,1-.14-.14V8.24A0,0,0,0,1,16.56,8.24Z" fill="#b3b3b3"
><path d="M16.56,8.24h.65a.29.29,0,0,1,.29.29v1.53a.14.14,0,0,1-.14.14H16.7a.14.14,0,0,1-.14-.14V8.24A0,0,0,0,1,16.56,8.24Z" fill="#b3b3b3" opacity="0.5"
></g><path d="M13,4.4h.63a0,0,0,0,1,0,0V13a0,0,0,0,1,0,0H13a.29.29,0,0,1-.29-.29v-8A.29.29,0,0,1,13,4.4Z" transform="translate(21.9 -4.5) rotate(90)" fill="#b3b3b3"
></g><g><g><path d="M9,14h.65a.14.14,0,0,1,.14.14v1.81a0,0,0,0,1,0,0H9.18a.29.29,0,0,1-.29-.29V14.11A.14.14,0,0,1,9,14Z" fill="#b3b3b3"
><path d="M9,14h.65a.14.14,0,0,1,.14.14v1.81a0,0,0,0,1,0,0H9.18a.29.29,0,0,1-.29-.29V14.11A.14.14,0,0,1,9,14Z" fill="#b3b3b3" opacity="0.5"
></g><g><path d="M16.7,14h.65a.14.14,0,0,1,.14.14v1.53a.29.29,0,0,1-.29.29h-.65a0,0,0,0,1,0,0V14.11A.14.14,0,0,1,16.7,14Z" fill="#b3b3b3"
><path d="M16.7,14h.65a.14.14,0,0,1,.14.14v1.53a.29.29,0,0,1-.29.29h-.65a0,0,0,0,1,0,0V14.11A.14.14,0,0,1,16.7,14Z" fill="#b3b3b3" opacity="0.5"
></g><path d="M13,11.17h.63a0,0,0,0,1,0,0v8.61a0,0,0,0,1,0,0H13a.29.29,0,0,1-.29-.29v-8A.29.29,0,0,1,13,11.17Z" transform="translate(-2.27 28.67) rotate(-90)" fill="#b3b3b3"
></g><path d="M14.09,11.74a.13.13,0,0,1-.11.13H13a.12.12,0,0,1-.13-.12h0V11a.14.14,0,0,1,.11-.13h1a.12.12,0,0,1,.13.12h0Z" fill="#76bc2d"
><path d="M15.88,12.5a.13.13,0,0,1-.11.13h-1a.12.12,0,0,1-.13-.12h0v-.74a.11.11,0,0,1,.11-.12h1a.11.11,0,0,1,.13.11h0Z" fill="#5e9624"
><path d="M14.09,13.26a.12.12,0,0,1-.11.13H13a.12.12,0,0,1-.13-.11v-.75A.12.12,0,0,1,13,12.4h1a.11.11,0,0,1,.13.11v.75Z" fill="#5e9624"
><path d="M12.3,11a.11.11,0,0,1-.11.12h-1A.11.11,0,0,1,11,11h0v-.77a.11.11,0,0,1,.11-.12h1c.1,0,.15.05.15.12Z" fill="#86d633"
><path d="M12.3,12.5a.12.12,0,0,1-.11.13h-1a.12.12,0,0,1-.12-.12h0v-.76a.12.12,0,0,1,.11-.13h1c.1,0,.15.05.15.13Z" fill="#76bc2d"
><path d="M12.3,14a.11.11,0,0,1-.11.13h-1A.12.12,0,0,1,11,14v-.78a.12.12,0,0,1,.11-.13h1a.13.13,0,0,1,.15.13Z" fill="#5e9624"
><g><path d="M13.31,5.8h0A.28.28,0,0,0,13,5.52H5a.28.28,0,0,0-.29.28h0V7.33a.15.15,0,0,0,.15.14H5.5a.14.14,0,0,0,.14-.14v-.9h6.72v.9a.15.15,0,0,0,.15.14h.65a.15.15,0,0,0,.15-.14V5.8Z" fill="#949494"
><path d="M5.64,11.32a.14.14,0,0,0-.14-.14H4.85a.15.15,0,0,0-.15.14v1.53h0a.25.25,0,0,0,.21.28H8.39v-.91H5.64Z" fill="#949494"
></g><g><path d="M9.11,2.36h0a.29.29,0,0,0-.29-.29h-8a.29.29,0,0,0-.29.29h0V3.89A.14.14,0,0,0,.64,4H1.3a.14.14,0,0,0,.14-.14V3H8.16v.91A.15.15,0,0,0,8.31,4H9a.15.15,0,0,0,.15-.14V2.36Z" fill="#949494"
><path d="M1.44,7.88a.15.15,0,0,0-.14-.15H.64a.15.15,0,0,0-.14.15V9.4h0c0,.15.1.28.21.28H4.19V8.78H1.44Z" fill="#949494"
></g><path d="M7.82,8.32a.11.11,0,0,1-.11.12h-1a.11.11,0,0,1-.13-.11h0V7.56a.11.11,0,0,1,.11-.13h1c.1,0,.15.05.15.13Zm0,.76C7.82,9,7.77,9,7.67,9h-1a.12.12,0,0,0-.11.13v.78a.12.12,0,0,0,.13.11h1a.12.12,0,0,0,.11-.13Zm0,1.52c0-.07-.05-.12-.15-.12h-1a.11.11,0,0,0-.11.12v.78a.11.11,0,0,0,.13.11h1a.11.11,0,0,0,.11-.13ZM3.62,4.11A.13.13,0,0,0,3.47,4h-1a.12.12,0,0,0-.11.13v.78A.12.12,0,0,0,2.47,5h1a.11.11,0,0,0,.11-.13Zm0,1.52c0-.07-.05-.12-.15-.12h-1a.11.11,0,0,0-.11.12V6.4h0a.11.11,0,0,0,.12.11h1a.11.11,0,0,0,.11-.12Zm0,1.53c0-.08-.05-.13-.15-.13h-1a.12.12,0,0,0-.11.13v.76h0a.12.12,0,0,0,.12.12h1a.12.12,0,0,0,.11-.13Z" fill="#76bc2d"
></g></g></svg><text fill="#000000" font-family="Segoe UI" font-size="12" lengthAdjust="spacing" textLength="100" x="17" y="423.9492">Event Hub Clusters</text><!--MD5=[4411e68b9c0a30c662585eb1f761551f]
entity DataLakeStoreGen1--><rect fill="#FFFFFF" height="105.9219" style="stroke:#3C7FC0;stroke-width:1.0;" width="104" x="162" y="339"/> --><svg x="187" y="349"><g transform="scale(3,3)" ><defs><linearGradient id="a2f5a399-e513-4b5d-9b50-e5cb6806323d" x1="9.24" y1="0.96" x2="8.85" y2="16.52" gradientUnits="userSpaceOnUse"><stop offset="0" stop-color="#32d4f5"
><stop offset="0.23" stop-color="#31d0f1"
><stop offset="0.46" stop-color="#2cc3e6"
><stop offset="0.7" stop-color="#25afd4"
><stop offset="0.94" stop-color="#1c92ba"
><stop offset="1" stop-color="#198ab3"
></linearGradient></defs><title>Icon-analytics-150</title><path d="M17.1,3.6H9.69a.34.34,0,0,1-.22-.07L7.35,2.12a.43.43,0,0,0-.22-.06H.9a.4.4,0,0,0-.4.39v13.1a.4.4,0,0,0,.4.39H17.1a.4.4,0,0,0,.4-.39V4A.4.4,0,0,0,17.1,3.6Z" fill="#005ba1"
><rect x="2.05" y="2.82" width="3.86" height="0.77" rx="0.16" fill="#fff"
><rect x="2.05" y="2.82" width="0.77" height="0.77" rx="0.11" fill="#1ac3f2"
><path d="M17.1,3.58H9a.36.36,0,0,0-.28.12L7.37,5a.43.43,0,0,1-.28.11H.9a.4.4,0,0,0-.4.4v10a.4.4,0,0,0,.4.39H17.1a.4.4,0,0,0,.4-.39V4A.4.4,0,0,0,17.1,3.58Z" fill="url(#a2f5a399-e513-4b5d-9b50-e5cb6806323d)"
><path d="M10.18,5.7a.15.15,0,0,0-.08,0s-.09,0-.13.07L6.81,10.36a.16.16,0,0,0,0,.16.19.19,0,0,0,.15.1H8.83L8,13.4a.13.13,0,0,0,.07.18.1.1,0,0,0,.07,0c.06,0,.09,0,.13-.07l3.26-4.66s0-.06,0-.1a.17.17,0,0,0-.17-.16h-2l.81-2.73A.13.13,0,0,0,10.18,5.7Z" fill="#fff"
></g></svg><text fill="#000000" font-family="Segoe UI" font-size="12" lengthAdjust="spacing" textLength="81" x="172" y="415.9492">Data Lake Store</text><text fill="#000000" font-family="Segoe UI" font-size="12" lengthAdjust="spacing" textLength="27" x="200.5" y="431.9102">Gen1</text><!--MD5=[d8f17c6eb4cd88430d177feb431daa35]
entity AzureDatabricks--><rect fill="#FFFFFF" height="89.9609" style="stroke:#3C7FC0;stroke-width:1.0;" width="108" x="301" y="347"/> --><svg x="328" y="357"><g transform="scale(3,3)" ><path d="M1.155,4.93v.512L9,9.868l7.006-3.957,0,1.6L9,11.491,1.55,7.258l-.395.22V10.54L9,14.955l7.006-3.942,0,1.586L9,16.581,1.55,12.347l-.395.22v.519L9,17.5l7.845-4.414V10.021l-.4-.218L9,14.036,1.992,10.054V8.476L9,12.414,16.845,8V4.978l-.4-.219L9,8.993,2.352,5.215,9,1.46l5.476,3.094.479-.269V3.863L9,.5Z" fill="#ff3621"
></g></svg><text fill="#000000" font-family="Segoe UI" font-size="12" lengthAdjust="spacing" textLength="88" x="311" y="423.9492">Azure Databricks</text><!--MD5=[140f82475327455ae0860d7c8596e22e]
link LogAnalyticsWorkspaces to EventHubs--><!--MD5=[45475483cfa5f093479bbb4ba24812cd]
link EventHubs to StreamAnalyticsJobs--><!--MD5=[44f068feefeba4d791bfb210941b9f29]
link LogAnalyticsWorkspaces to AzureSynapseAnalytics--><!--MD5=[e3c15288bc16168d78de55450a937ec4]
link AzureSynapseAnalytics to HDInsightClusters--><!--MD5=[c25c28c78558b069780a4437c43f332d]
link HDInsightClusters to AnalysisServices--><!--MD5=[c26054bcb8f15ed787f72b8b9a6125a5]
link AzureSynapseAnalytics to EventHubClusters--><!--MD5=[a4562214f66384b4bb24cfe26c374b14]
link EventHubClusters to DataLakeStoreGen1--><!--MD5=[c7125ff75dab2092f040466c9981d9d9]
link DataLakeStoreGen1 to AzureDatabricks--><!--MD5=[2bd76c8d7b375a7a8b04c88391791119]
@startuml
!pragma revision 1
!include ../../includes/AzureCommon.puml
sprite $LogAnalyticsWorkspaces Analytics/00009-icon-service-Log-Analytics-Workspaces.svg
rectangle "Log Analytics Workspaces" <<$LogAnalyticsWorkspaces{scale=3}>> as LogAnalyticsWorkspaces
sprite $EventHubs Analytics/00039-icon-service-Event-Hubs.svg
rectangle "Event Hubs" <<$EventHubs{scale=3}>> as EventHubs
sprite $StreamAnalyticsJobs Analytics/00042-icon-service-Stream-Analytics-Jobs.svg
rectangle "Stream Analytics Jobs" <<$StreamAnalyticsJobs{scale=3}>> as StreamAnalyticsJobs
sprite $AzureSynapseAnalytics Analytics/00606-icon-service-Azure-Synapse-Analytics.svg
rectangle "Azure Synapse Analytics" <<$AzureSynapseAnalytics{scale=3}>> as AzureSynapseAnalytics
sprite $HDInsightClusters Analytics/10142-icon-service-HD-Insight-Clusters.svg
rectangle "HD Insight Clusters" <<$HDInsightClusters{scale=3}>> as HDInsightClusters
sprite $AnalysisServices Analytics/10148-icon-service-Analysis-Services.svg
rectangle "Analysis Services" <<$AnalysisServices{scale=3}>> as AnalysisServices
sprite $EventHubClusters Analytics/10149-icon-service-Event-Hub-Clusters.svg
rectangle "Event Hub Clusters" <<$EventHubClusters{scale=3}>> as EventHubClusters
sprite $DataLakeStoreGen1 Analytics/10150-icon-service-Data-Lake-Store-Gen1.svg
rectangle "Data Lake Store Gen1" <<$DataLakeStoreGen1{scale=3}>> as DataLakeStoreGen1
sprite $AzureDatabricks Analytics/10787-icon-service-Azure-Databricks.svg
rectangle "Azure Databricks" <<$AzureDatabricks{scale=3}>> as AzureDatabricks
@enduml

@startuml
!pragma revision 1


skinparam defaultTextAlignment center
skinparam defaultFontName Segoe UI
skinparam defaultBackgroundColor white
skinparam RectangleBackgroundColor white
skinparam RectangleBorderColor #3C7FC0
skinparam WrapWidth 100

skinparam rectangle {
    FontSize 12
    BorderThickness 1
    Shadowing false
}
sprite $LogAnalyticsWorkspaces Analytics/00009-icon-service-Log-Analytics-Workspaces.svg
rectangle "Log Analytics Workspaces" <<$LogAnalyticsWorkspaces{scale=3}>> as LogAnalyticsWorkspaces
sprite $EventHubs Analytics/00039-icon-service-Event-Hubs.svg
rectangle "Event Hubs" <<$EventHubs{scale=3}>> as EventHubs
sprite $StreamAnalyticsJobs Analytics/00042-icon-service-Stream-Analytics-Jobs.svg
rectangle "Stream Analytics Jobs" <<$StreamAnalyticsJobs{scale=3}>> as StreamAnalyticsJobs
sprite $AzureSynapseAnalytics Analytics/00606-icon-service-Azure-Synapse-Analytics.svg
rectangle "Azure Synapse Analytics" <<$AzureSynapseAnalytics{scale=3}>> as AzureSynapseAnalytics
sprite $HDInsightClusters Analytics/10142-icon-service-HD-Insight-Clusters.svg
rectangle "HD Insight Clusters" <<$HDInsightClusters{scale=3}>> as HDInsightClusters
sprite $AnalysisServices Analytics/10148-icon-service-Analysis-Services.svg
rectangle "Analysis Services" <<$AnalysisServices{scale=3}>> as AnalysisServices
sprite $EventHubClusters Analytics/10149-icon-service-Event-Hub-Clusters.svg
rectangle "Event Hub Clusters" <<$EventHubClusters{scale=3}>> as EventHubClusters
sprite $DataLakeStoreGen1 Analytics/10150-icon-service-Data-Lake-Store-Gen1.svg
rectangle "Data Lake Store Gen1" <<$DataLakeStoreGen1{scale=3}>> as DataLakeStoreGen1
sprite $AzureDatabricks Analytics/10787-icon-service-Azure-Databricks.svg
rectangle "Azure Databricks" <<$AzureDatabricks{scale=3}>> as AzureDatabricks
@enduml

PlantUML version 1.2021.00(Sun Jan 10 02:25:05 PST 2021)
(GPL source distribution)
Java Runtime: Java(TM) SE Runtime Environment
JVM: Java HotSpot(TM) 64-Bit Server VM
Default Encoding: Cp1252
Language: en
Country: US
--></g></svg>