<svg xmlns="http://www.w3.org/2000/svg" xmlns:xlink="http://www.w3.org/1999/xlink" contentScriptType="application/ecmascript" contentStyleType="text/css" height="450px" preserveAspectRatio="none" style="width:397px;height:450px;" version="1.1" viewBox="0 0 397 450" width="397px" zoomAndPan="magnify"><defs/> --><g><!--MD5=[8a389e164642b96a5aea9ac8ceb9c029]
entity AppServicePlans--><rect fill="#FFFFFF" height="89.9609" style="stroke:#3C7FC0;stroke-width:1.0;" width="113" x="7" y="15"/> --><svg x="36.5" y="25"><g transform="scale(3,3)" ><defs><linearGradient id="a773af38-43e4-4fd2-9485-f8aac63ca91b" x1="5.57" y1="17.5" x2="5.57" y2="0.5" gradientUnits="userSpaceOnUse"><stop offset="0.05" stop-color="#949494"
---

 --><stop offset="0.36" stop-color="#979797"
---

 --><stop offset="0.54" stop-color="#9f9f9f"
---

 --><stop offset="0.69" stop-color="#adadad"
---

 --><stop offset="0.73" stop-color="#b3b3b3"
---

 --></linearGradient><linearGradient id="b4779ae6-74a5-486d-8aad-cd011859785a" x1="10.56" y1="6.02" x2="10.56" y2="19.71" gradientUnits="userSpaceOnUse"><stop offset="0.18" stop-color="#5ea0ef"
---

 --><stop offset="1" stop-color="#0078d4"
---

 --></linearGradient></defs><title>Icon-web-46</title><path d="M10.56,16.93a.56.56,0,0,1-.57.57H1.14a.56.56,0,0,1-.56-.57V1.07A.56.56,0,0,1,1.14.5H10a.56.56,0,0,1,.57.57Z" fill="url(#a773af38-43e4-4fd2-9485-f8aac63ca91b)"
---

 --><path d="M2,6.46A1.08,1.08,0,0,1,3.13,5.38h5A1.08,1.08,0,0,1,9.18,6.46h0A1.08,1.08,0,0,1,8.1,7.55h-5A1.09,1.09,0,0,1,2,6.46Z" fill="#003067"
---

 --><path d="M2,3.24A1.09,1.09,0,0,1,3.13,2.15h5A1.08,1.08,0,0,1,9.18,3.24h0A1.08,1.08,0,0,1,8.1,4.32h-5A1.08,1.08,0,0,1,2,3.24Z" fill="#003067"
---

 --><circle cx="3.17" cy="3.24" r="0.73" fill="#50e6ff"
---

 --><circle cx="3.17" cy="6.46" r="0.73" fill="#50e6ff"
---

 --><path d="M17.42,14.38a3.12,3.12,0,0,0-2.67-3,3.93,3.93,0,0,0-4-3.8,4,4,0,0,0-3.83,2.66A3.7,3.7,0,0,0,3.7,13.83,3.77,3.77,0,0,0,7.56,17.5l.34,0h6.26l.17,0A3.15,3.15,0,0,0,17.42,14.38Z" fill="url(#b4779ae6-74a5-486d-8aad-cd011859785a)"
---

 --><rect width="18" height="18" fill="none"
---

 --></g></svg><text fill="#000000" font-family="Segoe UI" font-size="12" lengthAdjust="spacing" textLength="93" x="17" y="91.9492">App Service Plans</text><!--MD5=[404969f3f7b3d278ab95c039675bb387]
entity AppServiceCertificates--><rect fill="#FFFFFF" height="105.9219" style="stroke:#3C7FC0;stroke-width:1.0;" width="85" x="155" y="7"/> --><svg x="170.5" y="17"><g transform="scale(3,3)" ><defs><linearGradient id="efc95f57-28bf-41de-a09e-d4f8c25449a4" x1="9" y1="13.51" x2="9" y2="0.76" gradientUnits="userSpaceOnUse"><stop offset="0" stop-color="#f78d1e"
---

 --><stop offset="0.44" stop-color="#f8911e"
---

 --><stop offset="0.85" stop-color="#f99c1d"
---

 --><stop offset="1" stop-color="#faa21d"
---

 --></linearGradient></defs><title>Icon-web-49</title><rect y="0.76" width="18" height="12.75" rx="0.6" fill="url(#efc95f57-28bf-41de-a09e-d4f8c25449a4)"
---

 --><rect x="1.05" y="1.88" width="15.9" height="10.5" rx="0.3" fill="#fff"
---

 --><path id="bcc3d4fb-2f67-48ef-b6e7-f3c11ba0061b" d="M14.94,9.34a.29.29,0,0,1-.28.29H8.16a.29.29,0,0,1,0-.58h6.5a.28.28,0,0,1,.28.29" fill="#d15900"
---

 --><path id="e696babd-447d-4e2b-bc61-f978fd3ed1bc" d="M14.94,7.54a.29.29,0,0,1-.28.29H8.16a.29.29,0,0,1,0-.58h6.5a.28.28,0,0,1,.28.29" fill="#d15900"
---

 --><path id="b5d2bd6a-dd0a-43be-bfa5-16266f75812c" d="M14.94,4.93a.28.28,0,0,1-.28.29H3.77a.29.29,0,1,1,0-.58H14.66a.28.28,0,0,1,.28.29" fill="#d15900"
---

 --><path id="aad840c2-43d5-415e-a865-328ca9d53f36" d="M5.13,12.69a2.52,2.52,0,0,1-3.37,0l-.21,4.19a.33.33,0,0,0,.57.25l1.3-1.32,1.31,1.33a.33.33,0,0,0,.57-.24Z" fill="#b31b1b"
---

 --><ellipse id="beae3214-3e24-4a7c-af86-a4353a2d1797" cx="3.48" cy="10.54" rx="3.01" ry="3.02" fill="#e62323"
---

 --><ellipse id="f1e213df-20de-4eb9-9bf3-0c6690c16a0a" cx="3.48" cy="10.54" rx="2.29" ry="2.29" fill="#ffb34d"
---

 --></g></svg><text fill="#000000" font-family="Segoe UI" font-size="12" lengthAdjust="spacing" textLength="62" x="165" y="83.9492">App Service</text><text fill="#000000" font-family="Segoe UI" font-size="12" lengthAdjust="spacing" textLength="59" x="168" y="99.9102">Certificates</text><!--MD5=[545f2338903fcaa9e082e0c23679a9c4]
entity AppServiceDomains--><rect fill="#FFFFFF" height="105.9219" style="stroke:#3C7FC0;stroke-width:1.0;" width="85" x="275" y="7"/> --><svg x="290.5" y="17"><g transform="scale(3,3)" ><defs><linearGradient id="e3b462d3-4c3c-47e9-827b-0de254d5c11f" x1="9" y1="15.83" x2="9" y2="5.79" gradientUnits="userSpaceOnUse"><stop offset="0" stop-color="#32bedd"
---

 --><stop offset="0.18" stop-color="#32caea"
---

 --><stop offset="0.41" stop-color="#32d2f2"
---

 --><stop offset="0.78" stop-color="#32d4f5"
---

 --></linearGradient></defs><title>Icon-web-50</title><path d="M.5,5.79h17a0,0,0,0,1,0,0v9.48a.57.57,0,0,1-.57.57H1.07a.57.57,0,0,1-.57-.57V5.79A0,0,0,0,1,.5,5.79Z" fill="url(#e3b462d3-4c3c-47e9-827b-0de254d5c11f)"
---

 --><path d="M1.07,2.17H16.93a.57.57,0,0,1,.57.57V5.79a0,0,0,0,1,0,0H.5a0,0,0,0,1,0,0V2.73A.57.57,0,0,1,1.07,2.17Z" fill="#005ba1"
---

 --><rect x="2.79" y="3.25" width="12.43" height="1.46" rx="0.28" fill="#f2f2f2"
---

 --><path d="M6.68,9l-.9,3H5.06L4.51,10a1.1,1.1,0,0,1,0-.27h0a1,1,0,0,1,0,.26L3.8,12H3.09L2.2,9h.71l.55,2.19a1.43,1.43,0,0,1,0,.26h0a1.32,1.32,0,0,1,0-.26L4.18,9h.65l.55,2.2a1.59,1.59,0,0,1,0,.26h0a1.51,1.51,0,0,1,0-.26L6,9Z" fill="#fff"
---

 --><path d="M11.28,9l-.9,3H9.66L9.11,10a1.1,1.1,0,0,1,0-.27h0A1.85,1.85,0,0,1,9,10L8.4,12H7.7L6.8,9h.71l.56,2.19a1.56,1.56,0,0,1,0,.26h0c0-.08,0-.17.05-.26L8.79,9h.64l.55,2.2a1.59,1.59,0,0,1,0,.26h0a1.51,1.51,0,0,1,0-.26L10.63,9Z" fill="#fff"
---

 --><path d="M15.89,9,15,12h-.72L13.71,10a1.93,1.93,0,0,1,0-.27h0a1,1,0,0,1-.05.26L13,12H12.3l-.9-3h.72l.55,2.19a1.43,1.43,0,0,1,0,.26h0a1.27,1.27,0,0,1,0-.26L13.39,9H14l.54,2.2a1.59,1.59,0,0,1,0,.26h0a1.66,1.66,0,0,1,0-.26L15.23,9Z" fill="#fff"
---

 --></g></svg><text fill="#000000" font-family="Segoe UI" font-size="12" lengthAdjust="spacing" textLength="62" x="285" y="83.9492">App Service</text><text fill="#000000" font-family="Segoe UI" font-size="12" lengthAdjust="spacing" textLength="47" x="294" y="99.9102">Domains</text><!--MD5=[40e6a177b728ff9c8fbc94daaad03552]
entity CDNProfiles--><rect fill="#FFFFFF" height="89.9609" style="stroke:#3C7FC0;stroke-width:1.0;" width="87" x="20" y="181"/> --><svg x="36.5" y="191"><g transform="scale(3,3)" ><defs><linearGradient id="b8cad6fd-ec7f-45e9-be2a-125e8b87bd03" x1="10.79" y1="2.17" x2="10.79" y2="16.56" gradientUnits="userSpaceOnUse"><stop offset="0.18" stop-color="#5ea0ef"
---

 --><stop offset="1" stop-color="#0078d4"
---

 --></linearGradient></defs><title>Icon-web-43</title><rect x="3.7" y="5.49" width="1.18" height="5.26" rx="0.52" transform="translate(-3.83 12.41) rotate(-90)" fill="#b3b3b3"
---

 --><rect x="2.04" y="7.88" width="1.18" height="5.26" rx="0.52" transform="translate(-7.88 13.14) rotate(-90)" fill="#a3a3a3"
---

 --><rect x="3.7" y="10.26" width="1.18" height="5.26" rx="0.52" transform="translate(-8.6 17.19) rotate(-90)" fill="#7a7a7a"
---

 --><path d="M18,11a3.28,3.28,0,0,0-2.81-3.18,4.13,4.13,0,0,0-4.21-4,4.23,4.23,0,0,0-4,2.8,3.89,3.89,0,0,0-3.38,3.8,4,4,0,0,0,4.06,3.86l.36,0h6.58l.17,0A3.32,3.32,0,0,0,18,11Z" fill="url(#b8cad6fd-ec7f-45e9-be2a-125e8b87bd03)"
---

 --></g></svg><text fill="#000000" font-family="Segoe UI" font-size="12" lengthAdjust="spacing" textLength="67" x="30" y="257.9492">CDN Profiles</text><!--MD5=[8143bb6655ee3f2bac3d6b04ab84062e]
entity AppServices--><rect fill="#FFFFFF" height="89.9609" style="stroke:#3C7FC0;stroke-width:1.0;" width="87" x="142" y="181"/> --><svg x="158.5" y="191"><g transform="scale(3,3)" ><defs><radialGradient id="e2cf8746-c9a8-4eee-86c2-4951983c6032" cx="13428.81" cy="3518.86" r="56.67" gradientTransform="translate(-2005.33 -518.83) scale(0.15)" gradientUnits="userSpaceOnUse"><stop offset="0.18" stop-color="#5ea0ef"
---

 --><stop offset="1" stop-color="#0078d4"
---

 --></radialGradient><linearGradient id="bdd213dd-d313-473c-8ff4-0133fd3a9033" x1="4.4" y1="11.48" x2="4.37" y2="7.53" gradientUnits="userSpaceOnUse"><stop offset="0" stop-color="#ccc"
---

 --><stop offset="1" stop-color="#fcfcfc"
---

 --></linearGradient><linearGradient id="afcc63c5-3649-4476-a742-bcb53a569f3c" x1="10.13" y1="15.45" x2="10.13" y2="11.9" gradientUnits="userSpaceOnUse"><stop offset="0" stop-color="#ccc"
---

 --><stop offset="1" stop-color="#fcfcfc"
---

 --></linearGradient><linearGradient id="bd873f0b-9954-4aa5-a3df-9f4c64e8729d" x1="14.18" y1="11.15" x2="14.18" y2="7.38" gradientUnits="userSpaceOnUse"><stop offset="0" stop-color="#ccc"
---

 --><stop offset="1" stop-color="#fcfcfc"
---

 --></linearGradient></defs><title>Icon-web-41</title><path id="ee75dd06-1aca-4f76-9d11-d05a284020ad" d="M14.21,15.72A8.5,8.5,0,0,1,3.79,2.28l.09-.06a8.5,8.5,0,0,1,10.33,13.5" fill="url(#e2cf8746-c9a8-4eee-86c2-4951983c6032)"
---

 --><path d="M6.69,7.23A13,13,0,0,1,15.6,3.65a8.47,8.47,0,0,0-1.49-1.44,14.34,14.34,0,0,0-4.69,1.1A12.54,12.54,0,0,0,5.34,6.13,2.76,2.76,0,0,1,6.69,7.23Z" fill="#fff" opacity="0.6"
---

 --><path d="M2.48,10.65a17.86,17.86,0,0,0-.83,2.62,7.82,7.82,0,0,0,.62.92c.18.23.35.44.55.65A17.94,17.94,0,0,1,3.9,11.37,2.76,2.76,0,0,1,2.48,10.65Z" fill="#fff" opacity="0.6"
---

 --><path d="M3.46,6.11a12,12,0,0,1-.69-2.94,8.15,8.15,0,0,0-1.1,1.45A12.69,12.69,0,0,0,2.24,7,2.69,2.69,0,0,1,3.46,6.11Z" fill="#f2f2f2" opacity="0.55"
---

 --><circle cx="4.38" cy="8.68" r="2.73" fill="url(#bdd213dd-d313-473c-8ff4-0133fd3a9033)"
---

 --><path d="M8.36,13.67A1.77,1.77,0,0,1,8.9,12.4a11.88,11.88,0,0,1-2.53-1.86,2.74,2.74,0,0,1-1.49.83,13.1,13.1,0,0,0,1.45,1.28A12.12,12.12,0,0,0,8.38,13.9,1.79,1.79,0,0,1,8.36,13.67Z" fill="#f2f2f2" opacity="0.55"
---

 --><path d="M14.66,13.88a12,12,0,0,1-2.76-.32.41.41,0,0,1,0,.11,1.75,1.75,0,0,1-.51,1.24,13.69,13.69,0,0,0,3.42.24A8.21,8.21,0,0,0,16,13.81,11.5,11.5,0,0,1,14.66,13.88Z" fill="#f2f2f2" opacity="0.55"
---

 --><circle cx="10.13" cy="13.67" r="1.78" fill="url(#afcc63c5-3649-4476-a742-bcb53a569f3c)"
---

 --><path d="M12.32,8.93a1.83,1.83,0,0,1,.61-1A25.5,25.5,0,0,1,8.47,3.79a16.91,16.91,0,0,1-2-2.92,7.64,7.64,0,0,0-1.09.42A18.14,18.14,0,0,0,7.53,4.47,26.44,26.44,0,0,0,12.32,8.93Z" fill="#f2f2f2" opacity="0.7"
---

 --><circle cx="14.18" cy="9.27" r="1.89" fill="url(#bd873f0b-9954-4aa5-a3df-9f4c64e8729d)"
---

 --><path d="M17.35,10.54,17,10.37l0,0-.3-.16-.06,0L16.38,10l-.07,0L16,9.8a1.76,1.76,0,0,1-.64.92c.12.08.25.15.38.22l.08.05.35.19,0,0,.86.45h0a8.63,8.63,0,0,0,.29-1.11Z" fill="#f2f2f2" opacity="0.55"
---

 --><circle cx="4.38" cy="8.68" r="2.73" fill="url(#bdd213dd-d313-473c-8ff4-0133fd3a9033)"
---

 --><circle cx="10.13" cy="13.67" r="1.78" fill="url(#afcc63c5-3649-4476-a742-bcb53a569f3c)"
---

 --></g></svg><text fill="#000000" font-family="Segoe UI" font-size="12" lengthAdjust="spacing" textLength="67" x="152" y="257.9492">App Services</text><!--MD5=[10fde560afb99a068cde2e4d3866c7b9]
entity APIManagementServices--><rect fill="#FFFFFF" height="105.9219" style="stroke:#3C7FC0;stroke-width:1.0;" width="115" x="264" y="173"/> --><svg x="294.5" y="183"><g transform="scale(3,3)" ><defs><linearGradient id="bf8a9583-aae9-48ff-87d8-fb8f44e7d6bd" x1="9" y1="16.82" x2="9" y2="1.18" gradientUnits="userSpaceOnUse"><stop offset="0" stop-color="#198ab3"
---

 --><stop offset="0.09" stop-color="#1f9dc4"
---

 --><stop offset="0.24" stop-color="#28b5d9"
---

 --><stop offset="0.4" stop-color="#2dc6e9"
---

 --><stop offset="0.57" stop-color="#31d1f2"
---

 --><stop offset="0.78" stop-color="#32d4f5"
---

 --></linearGradient><linearGradient id="f9b1bb8c-728e-4abf-bce5-6c11ac170c5b" x1="8.36" y1="11.35" x2="8.36" y2="14.46" gradientUnits="userSpaceOnUse"><stop offset="0" stop-color="#c69aeb"
---

 --><stop offset="1" stop-color="#6f4bb2"
---

 --></linearGradient></defs><title>Icon-web-42</title><path d="M14.18,5.89A4.85,4.85,0,0,0,9.23,1.18,5,5,0,0,0,4.48,4.47,4.61,4.61,0,0,0,.5,9,4.67,4.67,0,0,0,5.29,13.5a3,3,0,0,0,.42,0h1.2a1.47,1.47,0,0,1-.11-.56v0A1.51,1.51,0,0,1,7,12.21H5.6l-.31,0A3.41,3.41,0,0,1,1.77,9,3.33,3.33,0,0,1,4.68,5.73l.76-.12.25-.73A3.73,3.73,0,0,1,9.23,2.45,3.6,3.6,0,0,1,12.91,5.9V7L14,7.15a2.59,2.59,0,0,1,2.26,2.49,2.63,2.63,0,0,1-2.62,2.54h-.15l-.08,0h-1A3.92,3.92,0,0,0,8.54,9a.64.64,0,1,0,0,1.27,2.65,2.65,0,0,1,0,5.29.64.64,0,1,0,0,1.27,3.92,3.92,0,0,0,3.87-3.34h1.05a.64.64,0,0,0,.2,0A3.91,3.91,0,0,0,17.5,9.64,3.86,3.86,0,0,0,14.18,5.89Z" fill="url(#bf8a9583-aae9-48ff-87d8-fb8f44e7d6bd)"
---

 --><rect x="6.8" y="11.35" width="3.12" height="3.12" rx="1.54" fill="url(#f9b1bb8c-728e-4abf-bce5-6c11ac170c5b)"
---

 --></g></svg><text fill="#000000" font-family="Segoe UI" font-size="12" lengthAdjust="spacing" textLength="92" x="274" y="249.9492">API Management</text><text fill="#000000" font-family="Segoe UI" font-size="12" lengthAdjust="spacing" textLength="42" x="300.5" y="265.9102">Services</text><!--MD5=[757b5356e5c352afc09e43105512c6b0]
entity SearchServices--><rect fill="#FFFFFF" height="89.9609" style="stroke:#3C7FC0;stroke-width:1.0;" width="100" x="13.5" y="347"/> --><svg x="36.5" y="357"><g transform="scale(3,3)" ><defs><linearGradient id="b198f9ad-224e-4f37-99bb-f1c5a20d3916" x1="9" y1="0.36" x2="9" y2="18.31" gradientUnits="userSpaceOnUse"><stop offset="0.18" stop-color="#5ea0ef"
---

 --><stop offset="1" stop-color="#0078d4"
---

 --></linearGradient></defs><title>Icon-web-44</title><path d="M18,11.32a4.12,4.12,0,0,0-3.51-4,5.15,5.15,0,0,0-5.25-5,5.25,5.25,0,0,0-5,3.49A4.86,4.86,0,0,0,0,10.59a5,5,0,0,0,5.07,4.82l.44,0h8.21a.78.78,0,0,0,.22,0A4.13,4.13,0,0,0,18,11.32Z" fill="url(#b198f9ad-224e-4f37-99bb-f1c5a20d3916)"
---

 --><path d="M12.33,6.59a3.07,3.07,0,0,0-5.61.85,3.16,3.16,0,0,0,.33,2.27L4.71,12.08a.79.79,0,0,0,0,1.12.78.78,0,0,0,.56.23.76.76,0,0,0,.56-.23l2.33-2.36a3.14,3.14,0,0,0,.81.33,3.08,3.08,0,0,0,3.36-4.58Zm-.54,2.1A2.16,2.16,0,0,1,9.7,10.34a1.79,1.79,0,0,1-.51-.07,1.87,1.87,0,0,1-.7-.32,2.13,2.13,0,0,1-.56-.56,2.17,2.17,0,0,1-.31-1.73A2.14,2.14,0,0,1,9.7,6a2.31,2.31,0,0,1,.52.06,2.18,2.18,0,0,1,1.32,1A2.13,2.13,0,0,1,11.79,8.69Z" fill="#f2f2f2"
---

 --><ellipse cx="9.69" cy="8.18" rx="2.15" ry="2.16" fill="#83b9f9"
---

 --></g></svg><text fill="#000000" font-family="Segoe UI" font-size="12" lengthAdjust="spacing" textLength="80" x="23.5" y="423.9492">Search Services</text><!--MD5=[a711112f91c457b5159290ddc7a9c995]
entity NotificationHubs--><rect fill="#FFFFFF" height="89.9609" style="stroke:#3C7FC0;stroke-width:1.0;" width="114" x="148.5" y="347"/> --><svg x="178.5" y="357"><defs><linearGradient id="bd9b1662-9bee-4ea8-9cee-787e4ccd4f18" x1="9" y1="0.81" x2="9" y2="21.28" gradientUnits="userSpaceOnUse"><stop offset="0" stop-color="#ffd70f"
---

 --><stop offset="0.34" stop-color="#eeb309"
---

 --><stop offset="0.77" stop-color="#dc8c03"
---

 --><stop offset="1" stop-color="#d57d01"
---

 --></linearGradient></defs><title>Icon-web-45</title><g transform="scale(3,3)" ><g><path d="M17.5,2.5V13.33a.58.58,0,0,1-.59.58H12.39a.14.14,0,0,0-.14.14V15.8a.28.28,0,0,1-.45.22L9.08,13.94l-.09,0H1.09a.58.58,0,0,1-.59-.58V2.5a.58.58,0,0,1,.59-.58H16.91A.58.58,0,0,1,17.5,2.5Z" fill="url(#bd9b1662-9bee-4ea8-9cee-787e4ccd4f18)"
---

 --><path d="M2.05,9l3,2.52a.29.29,0,0,0,.47-.22v-1.1H17.48V8.5H2.23A.29.29,0,0,0,2.05,9Z" fill="#ffe452"
---

 --><path d="M16.24,6.46,13.13,3.94a.29.29,0,0,0-.47.22v1.1H.5V7H16.06A.29.29,0,0,0,16.24,6.46Z" fill="#fff"
---

 --></g></g></svg><text fill="#000000" font-family="Segoe UI" font-size="12" lengthAdjust="spacing" textLength="94" x="158.5" y="423.9492">Notification Hubs</text><!--MD5=[9d6a9ef1203f743e28f8b99f8b7c2682]
entity AppServiceEnvironments--><rect fill="#FFFFFF" height="105.9219" style="stroke:#3C7FC0;stroke-width:1.0;" width="93" x="298" y="339"/> --><svg x="317.5" y="349"><g transform="scale(3,3)" ><defs><linearGradient id="b25a6eef-63a1-4028-981f-ae9a6e561a3b" x1="9" y1="3.72" x2="9" y2="15.02" gradientUnits="userSpaceOnUse"><stop offset="0.18" stop-color="#5ea0ef"
---

 --><stop offset="1" stop-color="#0078d4"
---

 --></linearGradient></defs><title>Icon-web-47</title><path d="M8.57,8.69H1V2.18a1.1,1.1,0,0,1,1.09-1.1H8.57ZM1.94,7.75H7.63V2H2.09a.15.15,0,0,0-.15.15Z" fill="#949494"
---

 --><path d="M17,8.69H9.43V1.08h6.48A1.1,1.1,0,0,1,17,2.18Zm-6.63-.94h5.69V2.18A.15.15,0,0,0,15.91,2H10.37Z" fill="#949494"
---

 --><path d="M8.57,17.08H2.09A1.09,1.09,0,0,1,1,16V9.48H8.57ZM1.94,10.42V16a.15.15,0,0,0,.15.15H7.63V10.42Z" fill="#949494"
---

 --><path d="M15.91,17.08H9.43V9.48H17V16A1.09,1.09,0,0,1,15.91,17.08Zm-5.54-.94h5.54a.15.15,0,0,0,.15-.15V10.42H10.37Z" fill="#949494"
---

 --><path d="M14.67,10.62a2.59,2.59,0,0,0-2.21-2.5A3.24,3.24,0,0,0,9.15,5,3.32,3.32,0,0,0,6,7.17a3.08,3.08,0,0,0-2.66,3,3.11,3.11,0,0,0,3.19,3H12l.14,0A2.61,2.61,0,0,0,14.67,10.62Z" fill="url(#b25a6eef-63a1-4028-981f-ae9a6e561a3b)"
---

 --></g></svg><text fill="#000000" font-family="Segoe UI" font-size="12" lengthAdjust="spacing" textLength="62" x="312" y="415.9492">App Service</text><text fill="#000000" font-family="Segoe UI" font-size="12" lengthAdjust="spacing" textLength="73" x="308" y="431.9102">Environments</text><!--MD5=[29a25a9c7ab0fdf9d1cdac1e0a8d61f1]
link AppServicePlans to AppServiceCertificates--><!--MD5=[f334dcca6a0bfd1223079e8906a19887]
link AppServiceCertificates to AppServiceDomains--><!--MD5=[4e1a8bac45ed4ae48e85490ef79a562d]
link AppServicePlans to CDNProfiles--><!--MD5=[8bf8a04db08d9ee16d52f39462107ac1]
link CDNProfiles to AppServices--><!--MD5=[e023d26e547866ce5217fb628cd36b81]
link AppServices to APIManagementServices--><!--MD5=[1ac8b313508e51cc66254c2257891018]
link CDNProfiles to SearchServices--><!--MD5=[07f5f2d50738c2634b889bce91a990b9]
link SearchServices to NotificationHubs--><!--MD5=[4ae720ebff8c77889c21ff464c6795c8]
link NotificationHubs to AppServiceEnvironments--><!--MD5=[93a0f3a50d5d68884a2ddddc2f03fe6c]
@startuml
!pragma revision 1
!include ../../includes/AzureCommon.puml
sprite $AppServicePlans AppServices/00046-icon-service-App-Service-Plans.svg
rectangle "App Service Plans" <<$AppServicePlans{scale=3}>> as AppServicePlans
sprite $AppServiceCertificates AppServices/00049-icon-service-App-Service-Certificates.svg
rectangle "App Service Certificates" <<$AppServiceCertificates{scale=3}>> as AppServiceCertificates
sprite $AppServiceDomains AppServices/00050-icon-service-App-Service-Domains.svg
rectangle "App Service Domains" <<$AppServiceDomains{scale=3}>> as AppServiceDomains
sprite $CDNProfiles AppServices/00056-icon-service-CDN-Profiles.svg
rectangle "CDN Profiles" <<$CDNProfiles{scale=3}>> as CDNProfiles
sprite $AppServices AppServices/10035-icon-service-App-Services.svg
rectangle "App Services" <<$AppServices{scale=3}>> as AppServices
sprite $APIManagementServices AppServices/10042-icon-service-API-Management-Services.svg
rectangle "API Management Services" <<$APIManagementServices{scale=3}>> as APIManagementServices
sprite $SearchServices AppServices/10044-icon-service-Search-Services.svg
rectangle "Search Services" <<$SearchServices{scale=3}>> as SearchServices
sprite $NotificationHubs AppServices/10045-icon-service-Notification-Hubs.svg
rectangle "Notification Hubs" <<$NotificationHubs{scale=3}>> as NotificationHubs
sprite $AppServiceEnvironments AppServices/10047-icon-service-App-Service-Environments.svg
rectangle "App Service Environments" <<$AppServiceEnvironments{scale=3}>> as AppServiceEnvironments
@enduml

@startuml
!pragma revision 1


skinparam defaultTextAlignment center
skinparam defaultFontName Segoe UI
skinparam defaultBackgroundColor white
skinparam RectangleBackgroundColor white
skinparam RectangleBorderColor #3C7FC0
skinparam WrapWidth 100

skinparam rectangle {
    FontSize 12
    BorderThickness 1
    Shadowing false
}
sprite $AppServicePlans AppServices/00046-icon-service-App-Service-Plans.svg
rectangle "App Service Plans" <<$AppServicePlans{scale=3}>> as AppServicePlans
sprite $AppServiceCertificates AppServices/00049-icon-service-App-Service-Certificates.svg
rectangle "App Service Certificates" <<$AppServiceCertificates{scale=3}>> as AppServiceCertificates
sprite $AppServiceDomains AppServices/00050-icon-service-App-Service-Domains.svg
rectangle "App Service Domains" <<$AppServiceDomains{scale=3}>> as AppServiceDomains
sprite $CDNProfiles AppServices/00056-icon-service-CDN-Profiles.svg
rectangle "CDN Profiles" <<$CDNProfiles{scale=3}>> as CDNProfiles
sprite $AppServices AppServices/10035-icon-service-App-Services.svg
rectangle "App Services" <<$AppServices{scale=3}>> as AppServices
sprite $APIManagementServices AppServices/10042-icon-service-API-Management-Services.svg
rectangle "API Management Services" <<$APIManagementServices{scale=3}>> as APIManagementServices
sprite $SearchServices AppServices/10044-icon-service-Search-Services.svg
rectangle "Search Services" <<$SearchServices{scale=3}>> as SearchServices
sprite $NotificationHubs AppServices/10045-icon-service-Notification-Hubs.svg
rectangle "Notification Hubs" <<$NotificationHubs{scale=3}>> as NotificationHubs
sprite $AppServiceEnvironments AppServices/10047-icon-service-App-Service-Environments.svg
rectangle "App Service Environments" <<$AppServiceEnvironments{scale=3}>> as AppServiceEnvironments
@enduml

PlantUML version 1.2021.00(Sun Jan 10 02:25:05 PST 2021)
(GPL source distribution)
Java Runtime: Java(TM) SE Runtime Environment
JVM: Java HotSpot(TM) 64-Bit Server VM
Default Encoding: Cp1252
Language: en
Country: US
--></g></svg>