<svg xmlns="http://www.w3.org/2000/svg" xmlns:xlink="http://www.w3.org/1999/xlink" contentScriptType="application/ecmascript" contentStyleType="text/css" height="102px" preserveAspectRatio="none" style="width:87px;height:102px;" version="1.1" viewBox="0 0 87 102" width="87px" zoomAndPan="magnify"><defs/> --><g><!--MD5=[408beb3d875ff7ee3734998fc96e48c3]
entity AVS--><rect fill="#FFFFFF" height="89.9609" style="stroke:#3C7FC0;stroke-width:1.0;" width="74" x="7" y="7"/> --><svg x="17" y="17"><defs><linearGradient id="ff3b339c-673f-4785-8ec9-c7c05e10f5a2" x1="8.956" y1="14.347" x2="8.956" y2="1.59" gradientUnits="userSpaceOnUse"><stop offset="0" stop-color="#0078d4" /> --><stop offset="1" stop-color="#5ea0ef" /> --></linearGradient><linearGradient id="ebb540ac-df51-4d1a-9240-e4de893645e8" x1="9.014" y1="15.941" x2="9.014" y2="12.602" gradientUnits="userSpaceOnUse"><stop offset="0" stop-color="#76bc2d" /> --><stop offset="0.817" stop-color="#86d633" /> --></linearGradient></defs><g transform="scale(3,3)"  id="ec090ac3-568c-4230-bc25-7e5ca8f80c39"><path d="M17.956,10.352a4.045,4.045,0,0,0-3.51-3.888A5.1,5.1,0,0,0,9.2,1.59,5.228,5.228,0,0,0,4.2,5,4.827,4.827,0,0,0-.044,9.641a4.9,4.9,0,0,0,5.068,4.706c.151,0,.3-.007.447-.019h8.207A.813.813,0,0,0,13.9,14.3,4.092,4.092,0,0,0,17.956,10.352Z" fill="url(#ff3b339c-673f-4785-8ec9-c7c05e10f5a2)" /> --><path d="M11.554,7.876a2.533,2.533,0,1,0-3.769,2.2v3.279h2.431V10.1A2.525,2.525,0,0,0,11.554,7.876ZM9.466,12.6H8.535V10.36a2.6,2.6,0,0,0,.486.049,2.514,2.514,0,0,0,.445-.045Zm0-3.006a1.771,1.771,0,0,1-.445.063,1.739,1.739,0,0,1-.486-.076Zm.75-.4L7.785,9.157a1.785,1.785,0,1,1,2.431.034Z" fill="#fff" /> --><rect x="2.908" y="12.602" width="12.211" height="3.338" rx="0.408" fill="url(#ebb540ac-df51-4d1a-9240-e4de893645e8)" /> --><rect x="13.269" y="13.186" width="0.912" height="0.912" rx="0.204" fill="#fff" /> --><rect x="13.269" y="14.444" width="0.912" height="0.912" rx="0.204" fill="#fff" opacity="0.6" /> --><path d="M10.8,7.876A1.783,1.783,0,1,0,8.535,9.583V12.6h.931V9.6A1.779,1.779,0,0,0,10.8,7.876Z" fill="#76bc2d" /> --></g></svg><text fill="#000000" font-family="Segoe UI" font-size="12" lengthAdjust="spacing" textLength="21" x="33.5" y="83.9492">AVS</text><!--MD5=[5987bca29c930a7be935edc81f72bc12]
@startuml
!pragma revision 1
!include ../../includes/AzureCommon.puml
sprite $AVS AzureVMwareSolution/00524-icon-service-AVS.svg
rectangle "AVS" <<$AVS{scale=3}>> as AVS
@enduml

@startuml
!pragma revision 1


skinparam defaultTextAlignment center
skinparam defaultFontName Segoe UI
skinparam defaultBackgroundColor white
skinparam RectangleBackgroundColor white
skinparam RectangleBorderColor #3C7FC0
skinparam WrapWidth 100

skinparam rectangle {
    FontSize 12
    BorderThickness 1
    Shadowing false
}
sprite $AVS AzureVMwareSolution/00524-icon-service-AVS.svg
rectangle "AVS" <<$AVS{scale=3}>> as AVS
@enduml

PlantUML version 1.2021.00(Sun Jan 10 02:25:05 PST 2021)
(GPL source distribution)
Java Runtime: Java(TM) SE Runtime Environment
JVM: Java HotSpot(TM) 64-Bit Server VM
Default Encoding: Cp1252
Language: en
Country: US
--></g></svg>