<svg xmlns="http://www.w3.org/2000/svg" xmlns:xlink="http://www.w3.org/1999/xlink" contentScriptType="application/ecmascript" contentStyleType="text/css" height="268px" preserveAspectRatio="none" style="width:370px;height:268px;" version="1.1" viewBox="0 0 370 268" width="370px" zoomAndPan="magnify"><defs/><g><!--MD5=[033d1714c4a12bbafd5abe3f527e494b]
entity OutboundConnection--><rect fill="#FFFFFF" height="105.9219" style="stroke:#3C7FC0;stroke-width:1.0;" width="82" x="10.5" y="7"/><svg x="24.5" y="17"><g transform="scale(3,3)" ><title>Icon-Blockchain-364</title><polygon points="14.68 4.13 14.68 10.7 9.04 13.99 9.04 7.42 14.68 4.13" fill="#773adc" /><polygon points="14.68 4.13 9.04 7.43 3.4 4.13 9.04 0.83 14.68 4.13" fill="#b796f9" /><polygon points="9.04 7.43 9.04 13.99 3.4 10.7 3.4 4.13 9.04 7.43" fill="#a67af4" /><path d="M6.06,7.52c-.74-.42-1.34-.08-1.34.77A2.93,2.93,0,0,0,6.06,10.6c.73.43,1.34.09,1.34-.76A3,3,0,0,0,6.06,7.52Z" fill="#773adc" /><path d="M18,14.35l-2.59-2.6a.14.14,0,0,0-.21,0v2H3.36a2,2,0,1,1,0-4H5.75a.68.68,0,0,0,.67-.68.67.67,0,0,0-.67-.67H3.36a3.36,3.36,0,0,0,0,6.72h11.8v2a.14.14,0,0,0,.21,0L18,14.53A.13.13,0,0,0,18,14.35Z" fill="#32bedd" /></g></svg><text fill="#000000" font-family="Segoe UI" font-size="12" lengthAdjust="spacing" textLength="55" x="22.5" y="83.9492">Outbound</text><text fill="#000000" font-family="Segoe UI" font-size="12" lengthAdjust="spacing" textLength="62" x="20.5" y="99.9102">Connection</text><!--MD5=[629088945ae0870b2185742c2d9de8ef]
entity AzureBlockchainService--><rect fill="#FFFFFF" height="105.9219" style="stroke:#3C7FC0;stroke-width:1.0;" width="114" x="127.5" y="7"/><svg x="157.5" y="17"><g transform="scale(3,3)" ><title>Icon-Blockchain-366</title><polygon points="13.13 2.4 13.13 6.99 9.18 9.3 9.18 4.7 13.13 2.4" fill="#773adc" /><path d="M11.45,4.71c.55-.32,1-.07,1,.56a2.18,2.18,0,0,1-1,1.72c-.55.32-1,.07-1-.57A2.17,2.17,0,0,1,11.45,4.71Z" fill="#552f99" /><polygon points="7.9 11 7.9 15.59 3.95 17.9 3.95 13.3 7.9 11" fill="#773adc" /><path d="M5.92,13.53c.55-.31,1-.06,1,.57a2.2,2.2,0,0,1-1,1.72c-.55.32-1,.06-1-.57A2.2,2.2,0,0,1,5.92,13.53Z" fill="#552f99" /><polygon points="3.95 13.3 3.95 17.9 0 15.59 0 11 3.95 13.3" fill="#a67af4" /><polygon points="18 11.01 18 15.6 14.05 17.91 14.05 13.31 18 11.01" fill="#773adc" /><path d="M11.49,6.2a4.17,4.17,0,0,1,2.37,2.61l.19-.11,1,.58A5.21,5.21,0,0,0,11.9,5.22a.53.53,0,0,0-.41,1Z" fill="#32bedd" /><polygon points="14.05 13.32 14.05 17.91 10.1 15.6 10.1 11.01 14.05 13.32" fill="#a67af4" /><path d="M12.19,13.59c-.52-.3-.94-.05-.94.54a2.08,2.08,0,0,0,.94,1.63c.52.3.94.06.94-.54A2.08,2.08,0,0,0,12.19,13.59Z" fill="#552f99" /><path d="M9.2,16.11a5.46,5.46,0,0,1-3.18-1,.55.55,0,1,1,.64-.89,4.36,4.36,0,0,0,4.81.18.55.55,0,1,1,.58.94A5.54,5.54,0,0,1,9.2,16.11Z" fill="#32bedd" /><polygon points="13.13 2.4 9.19 4.71 5.24 2.4 9.19 0.09 13.13 2.4" fill="#b796f9" /><path d="M5.24,5.3a5.25,5.25,0,0,0-2.36,4L4,8.69,4,8.74A4.2,4.2,0,0,1,5.24,6.67Z" fill="#32bedd" /><polygon points="18 11.01 14.05 13.32 10.1 11.01 14.05 8.7 18 11.01" fill="#b796f9" /><polygon points="7.9 11 3.95 13.3 0 11 3.95 8.69 7.9 11" fill="#b796f9" /><polygon points="9.18 4.71 9.18 9.3 5.24 6.99 5.24 2.4 9.18 4.71" fill="#a67af4" /></g></svg><text fill="#000000" font-family="Segoe UI" font-size="12" lengthAdjust="spacing" textLength="91" x="137.5" y="83.9492">Azure Blockchain</text><text fill="#000000" font-family="Segoe UI" font-size="12" lengthAdjust="spacing" textLength="37" x="166" y="99.9102">Service</text><!--MD5=[2fe3d043835683c68399c0c192f04fb2]
entity AzureTokenService--><rect fill="#FFFFFF" height="105.9219" style="stroke:#3C7FC0;stroke-width:1.0;" width="88" x="276.5" y="7"/><svg x="293.5" y="17"><g transform="scale(3,3)" ><path fill="#773adc" d="M13.276 3.608V10.6l-6.01 3.514V7.11l6.01-3.503z" /><path fill="#b796f9" d="M13.276 3.608L7.268 7.12l-6-3.514 6-3.514 6.008 3.515z" /><path fill="#a67af4" d="M7.267 7.12v6.994L1.258 10.6V3.607l6.01 3.514z" /><path d="M11.66 13.1c0 .033-.006.066-.012.1s-.013.054-.02.08l-.027.095c-.01.032-.02.05-.032.076l-.047.1a1.434 1.434 0 0 1-.08.134l-.016.02a1.531 1.531 0 0 1-.1.129l-.02.025-.133.13a1.03 1.03 0 0 1-.1.08l-.09.07-.113.076-.12.077a3.322 3.322 0 0 1-.3.151l-.1.038-.25.094-.1.03-.163.047-.124.033-.175.038-.12.024-.36.05c-.037 0-.075.006-.113.01l-.212.015H8.3l-.16-.008-.296-.034-.142-.02-.167-.03-.13-.027-.2-.048-.108-.03-.34-.114-.16-.068-.08-.035-.232-.12a1.582 1.582 0 0 1-.932-1.3v1.406a1.582 1.582 0 0 0 .932 1.3l.232.12c.026.013.054.024.082.036l.14.062.018.006.366.123c.026.008.054.013.08.02l.2.048.052.013.08.014.167.03.067.01c.025 0 .05.006.075.01l.157.017c.026 0 .05.007.075.01h.072l.16.008h.455q.107-.006.213-.015h.112l.36-.05h.017l.1-.02.176-.038.123-.033.164-.047.034-.01c.02-.006.037-.014.056-.02l.25-.094.1-.038.3-.15.04-.023c.03-.017.053-.036.08-.054l.114-.076.088-.07.1-.08.02-.016c.04-.037.078-.076.114-.114l.02-.025.06-.07a.68.68 0 0 0 .042-.059l.016-.02.07-.11.01-.024a1.079 1.079 0 0 0 .046-.1l.027-.058.006-.02a1.01 1.01 0 0 0 .027-.094l.018-.064v-.017a1.09 1.09 0 0 0 .012-.1c.003-.034.007-.044.007-.065V13l-.013.1z" fill="#32bedd" /><path d="M10.735 11.7c1.238.714 1.244 1.873.015 2.587a4.925 4.925 0 0 1-4.468 0c-1.238-.715-1.243-1.874-.013-2.588a4.92 4.92 0 0 1 4.466.001z" fill="#50e6ff" /><path d="M16.734 14.774c0 .033-.005.066-.01.1s-.014.054-.02.08l-.027.095c-.01.03-.02.05-.032.077l-.046.1c-.017.034-.05.1-.08.134l-.015.02-.1.13-.02.024-.133.13a1.46 1.46 0 0 1-.1.08l-.088.07c-.03.023-.075.05-.114.075l-.12.077a3.078 3.078 0 0 1-.3.151l-.1.04-.248.094-.09.03-.163.046-.124.034-.175.037-.12.024-.36.05-.113.01-.213.014h-.455c-.054 0-.107 0-.16-.01s-.1-.007-.146-.012l-.158-.018-.14-.02-.168-.03-.13-.026-.2-.048-.108-.03-.34-.115-.16-.068-.08-.035-.232-.12a1.581 1.581 0 0 1-.932-1.3v1.405a1.582 1.582 0 0 0 .932 1.3l.232.12.08.035.143.062.017.006q.165.064.34.114l.027.01.08.02.2.05c.018 0 .035.01.052.012l.08.014.168.03c.022 0 .044.01.066.012l.075.008.158.018.075.008h.07c.053 0 .106.006.16.008h.455c.07 0 .142-.01.213-.014.028 0 .057 0 .086-.006h.027l.36-.05h.017l.1-.022.174-.037.124-.034.163-.046.035-.01.056-.02.248-.095.1-.038a3.322 3.322 0 0 0 .3-.151l.04-.023c.03-.017.054-.036.08-.054l.114-.076.088-.07.1-.08.02-.017a1.532 1.532 0 0 0 .114-.114l.02-.025.06-.07.043-.058.015-.02.07-.1.012-.024c.017-.032.03-.065.046-.1l.027-.058v-.02c.01-.032.02-.063.027-.095l.02-.063v-.018c.006-.033.008-.066.01-.1s.007-.043.007-.065v-1.428c.007.026.002.057-.001.088z" fill="#32bedd" /><path d="M15.8 13.38a1.367 1.367 0 0 1 .014 2.587 4.921 4.921 0 0 1-4.468 0c-1.237-.715-1.243-1.874-.013-2.588a4.922 4.922 0 0 1 4.467.001z" fill="#50e6ff" /><path d="M16.742 11.62c0 .03-.005.062-.008.092l-.01.1c-.006.033-.014.054-.02.08l-.027.094c-.01.03-.02.05-.032.077l-.046.1c-.017.034-.05.1-.08.134l-.015.02-.1.13-.02.024a2.06 2.06 0 0 1-.133.131 1.46 1.46 0 0 1-.1.08l-.09.07-.113.075-.12.078a3.191 3.191 0 0 1-.3.15l-.1.04-.25.094-.1.03-.163.047-.124.033-.175.037-.12.024-.36.05-.113.01-.213.014h-.454c-.054 0-.107 0-.16-.01s-.1-.007-.146-.012l-.158-.018-.14-.02-.168-.03-.13-.026-.2-.05-.108-.03q-.174-.05-.34-.114l-.16-.068-.082-.035-.232-.12a1.583 1.583 0 0 1-.933-1.3v1.406a1.583 1.583 0 0 0 .933 1.3l.232.12.08.035.143.062.017.006.34.114.027.01.08.02.2.048c.018 0 .035.01.053.013l.078.014.168.03c.022 0 .044.01.067.012l.074.008.158.018.075.008h.07c.053 0 .106.006.16.008h.454c.072 0 .143-.008.214-.014.028 0 .057 0 .086-.006h.026l.36-.05h.018l.1-.022.175-.037.123-.034.164-.046.035-.01c.02-.006.036-.015.055-.02l.25-.094.1-.04a3.2 3.2 0 0 0 .3-.151l.038-.022.082-.055.113-.075.09-.07.1-.08.02-.017a1.75 1.75 0 0 0 .114-.114l.02-.024.06-.072.043-.058.015-.02a1.18 1.18 0 0 0 .069-.11l.012-.024c.017-.032.03-.065.046-.1l.027-.057v-.02a1.03 1.03 0 0 0 .027-.095l.02-.063v-.017c.006-.033.008-.067.01-.1s.007-.043.007-.064v-.028z" fill="#32bedd" /><ellipse cx="13.583" cy="11.61" rx="1.83" ry="3.159" transform="matrix(.002827 -.999996 .999996 .002827 1.935 25.16)" fill="#50e6ff" /></g></svg><text fill="#000000" font-family="Segoe UI" font-size="12" lengthAdjust="spacing" textLength="65" x="286.5" y="83.9492">Azure Token</text><text fill="#000000" font-family="Segoe UI" font-size="12" lengthAdjust="spacing" textLength="37" x="302" y="99.9102">Service</text><!--MD5=[7e3328288d1ac1e46e22e2a9eb787520]
entity ABSMember--><rect fill="#FFFFFF" height="89.9609" style="stroke:#3C7FC0;stroke-width:1.0;" width="89" x="7" y="173"/><svg x="24.5" y="183"><defs><linearGradient id="ebaa666f-d34b-47c6-9dd8-955cce642dd9" x1="14.415" y1="13.555" x2="11.867" y2="9.096" gradientUnits="userSpaceOnUse"><stop offset="0.101" stop-color="#773adc" /><stop offset="1" stop-color="#403457" /></linearGradient></defs><title>Icon-494-ABS-Member</title><g transform="scale(3,3)"  id="fedf7af2-b5cf-45c6-91f6-8fba9e1b615a"><g><polygon points="16.299 4.726 16.299 13.274 9 17.5 9 9.048 16.299 4.726" fill="#773adc" /><path d="M13.074,9.1C14.131,8.52,14.9,9,14.9,10.153a4.189,4.189,0,0,1-1.825,3.169c-1.056.576-1.825.1-1.825-1.056A3.933,3.933,0,0,1,13.074,9.1Z" fill="url(#ebaa666f-d34b-47c6-9dd8-955cce642dd9)" /><polygon points="16.299 4.726 9 9.048 1.701 4.726 9 0.5 16.299 4.726" fill="#b796f9" /><polygon points="9 9.048 9 17.5 1.701 13.274 1.701 4.726 9 9.048" fill="#a67af4" /></g></g></svg><text fill="#000000" font-family="Segoe UI" font-size="12" lengthAdjust="spacing" textLength="69" x="17" y="249.9492">ABS Member</text><!--MD5=[b548cbfcb2cf8d2f48bfc3e995a6a14f]
entity Consortium--><rect fill="#FFFFFF" height="89.9609" style="stroke:#3C7FC0;stroke-width:1.0;" width="83" x="131" y="173"/><svg x="145.5" y="183"><g transform="scale(3,3)"  id="b7868355-0001-41e8-84e1-ae842d94a5aa"><g><polygon points="12.1 2.05 12.1 5.85 8.9 7.75 8.9 3.95 12.1 2.05" fill="#773adc" /><path d="M10.7,4.062c.439-.263.7-.088.7.439a1.776,1.776,0,0,1-.7,1.228c-.351.263-.7.088-.7-.439A1.776,1.776,0,0,1,10.7,4.062Z" fill="#552f99" /><polygon points="12.1 2.05 8.9 3.95 5.6 2.05 8.9 0.15 12.1 2.05" fill="#b796f9" /><polygon points="8.9 3.95 8.9 7.75 5.6 5.85 5.6 2.05 8.9 3.95" fill="#a67af4" /><path d="M7.116,4.05c-.4-.2-.8,0-.8.4a1.441,1.441,0,0,0,.8,1.3c.4.2.8,0,.8-.4A1.653,1.653,0,0,0,7.116,4.05Z" fill="#773adc" /><polygon points="17.8 7.05 17.8 10.85 14.6 12.75 14.6 8.95 17.8 7.05" fill="#5e9624" /><polygon points="14.6 8.95 14.6 12.75 11.4 10.85 11.4 7.05 14.6 8.95" fill="#76bc2d" /><path d="M13.1,9.25c-.4-.2-.8,0-.8.4a1.441,1.441,0,0,0,.8,1.3c.4.2.8,0,.8-.4A1.653,1.653,0,0,0,13.1,9.25Z" fill="#5e9624" /><g><path d="M13.137,6.073A5.151,5.151,0,0,0,11.2,4.65a.517.517,0,0,0-.7.3.446.446,0,0,0,.3.6,4.256,4.256,0,0,1,1.459,1.017Z" fill="#32bedd" /><path d="M13.134,8.079c.018.059.051.111.066.171l.12-.06Z" fill="#32bedd" /></g><polygon points="6.7 7.25 6.7 10.95 3.4 12.85 3.4 9.15 6.7 7.25" fill="#258277" /><polygon points="3.4 9.15 3.4 12.85 0.2 10.95 0.2 7.25 3.4 9.15" fill="#37c2b1" /><path d="M7.4,4.95a.67.67,0,0,0-.8-.3A6.6,6.6,0,0,0,4.742,6.123L5.8,6.729A4.646,4.646,0,0,1,7.1,5.75.67.67,0,0,0,7.4,4.95Z" fill="#32bedd" /><polygon points="12.4 12.15 12.4 15.95 9.2 17.85 9.2 14.05 12.4 12.15" fill="#d15900" /><polygon points="9.2 14.05 9.2 17.85 6 15.95 6 12.15 9.2 14.05" fill="#f78d1e" /><path d="M13.2,10.05a.521.521,0,0,0-.8.1,5.26,5.26,0,0,1-1.339,1.205l.966.573A5.972,5.972,0,0,0,13.3,10.85.521.521,0,0,0,13.2,10.05Z" fill="#32bedd" /><path d="M5.212,9.188c.456-.249.788-.041.788.456a1.809,1.809,0,0,1-.788,1.368c-.455.249-.787.041-.787-.456A1.7,1.7,0,0,1,5.212,9.188Z" fill="#207067" /><path d="M7.423,11.305A4.264,4.264,0,0,1,5.8,10.05a.529.529,0,0,0-.8-.1.529.529,0,0,0-.1.8,5.524,5.524,0,0,0,1.379,1.235Z" fill="#32bedd" /><polygon points="12.4 12.15 9.2 14.05 6 12.15 9.2 10.25 12.4 12.15" fill="#ffb34d" /><polygon points="6.7 7.25 3.4 9.15 0.2 7.25 3.4 5.35 6.7 7.25" fill="#42e8ca" /><polygon points="17.8 7.05 14.6 8.95 11.4 7.05 14.6 5.25 17.8 7.05" fill="#b4ec36" /></g></g></svg><text fill="#000000" font-family="Segoe UI" font-size="12" lengthAdjust="spacing" textLength="63" x="141" y="249.9492">Consortium</text><!--MD5=[ea752251380fac5ce25a3ccfc00a9358]
link OutboundConnection to AzureBlockchainService--><!--MD5=[de3fc948a66fdf955c220d0c42a6a70e]
link AzureBlockchainService to AzureTokenService--><!--MD5=[20cc4610e4806789a3f39addb8de5870]
link OutboundConnection to ABSMember--><!--MD5=[f96604307221b79f6f56670ffee5cb40]
link ABSMember to Consortium--><!--MD5=[3d5afadc5203931c87847c943e3e171d]
@startuml
!pragma revision 1
!include ../../includes/AzureCommon.puml
sprite $OutboundConnection Blockchain/10364-icon-service-Outbound-Connection.svg
rectangle "Outbound Connection" <<$OutboundConnection{scale=3}>> as OutboundConnection
sprite $AzureBlockchainService Blockchain/10366-icon-service-Azure-Blockchain-Service.svg
rectangle "Azure Blockchain Service" <<$AzureBlockchainService{scale=3}>> as AzureBlockchainService
sprite $AzureTokenService Blockchain/10367-icon-service-Azure-Token-Service.svg
rectangle "Azure Token Service" <<$AzureTokenService{scale=3}>> as AzureTokenService
sprite $ABSMember Blockchain/10374-icon-service-ABS-Member.svg
rectangle "ABS Member" <<$ABSMember{scale=3}>> as ABSMember
sprite $Consortium Blockchain/10375-icon-service-Consortium.svg
rectangle "Consortium" <<$Consortium{scale=3}>> as Consortium
@enduml

@startuml
!pragma revision 1


skinparam defaultTextAlignment center
skinparam defaultFontName Segoe UI
skinparam defaultBackgroundColor white
skinparam RectangleBackgroundColor white
skinparam RectangleBorderColor #3C7FC0
skinparam WrapWidth 100

skinparam rectangle {
    FontSize 12
    BorderThickness 1
    Shadowing false
}
sprite $OutboundConnection Blockchain/10364-icon-service-Outbound-Connection.svg
rectangle "Outbound Connection" <<$OutboundConnection{scale=3}>> as OutboundConnection
sprite $AzureBlockchainService Blockchain/10366-icon-service-Azure-Blockchain-Service.svg
rectangle "Azure Blockchain Service" <<$AzureBlockchainService{scale=3}>> as AzureBlockchainService
sprite $AzureTokenService Blockchain/10367-icon-service-Azure-Token-Service.svg
rectangle "Azure Token Service" <<$AzureTokenService{scale=3}>> as AzureTokenService
sprite $ABSMember Blockchain/10374-icon-service-ABS-Member.svg
rectangle "ABS Member" <<$ABSMember{scale=3}>> as ABSMember
sprite $Consortium Blockchain/10375-icon-service-Consortium.svg
rectangle "Consortium" <<$Consortium{scale=3}>> as Consortium
@enduml

PlantUML version 1.2021.00(Sun Jan 10 02:25:05 PST 2021)
(GPL source distribution)
Java Runtime: Java(TM) SE Runtime Environment
JVM: Java HotSpot(TM) 64-Bit Server VM
Default Encoding: Cp1252
Language: en
Country: US
--></g></svg>