<svg xmlns="http://www.w3.org/2000/svg" xmlns:xlink="http://www.w3.org/1999/xlink" contentScriptType="application/ecmascript" contentStyleType="text/css" height="134px" preserveAspectRatio="none" style="width:238px;height:134px;" version="1.1" viewBox="0 0 238 134" width="238px" zoomAndPan="magnify"><defs/> --><g><!--MD5=[47fd958c4e251e6c343583e9da848ea7]
entity DigitalTwins--><rect fill="#FFFFFF" height="89.9609" style="stroke:#3C7FC0;stroke-width:1.0;" width="87" x="7" y="23"/> --><svg x="23.5" y="33"><g transform="scale(3,3)" ><defs><linearGradient id="a2543bcd-55aa-4840-a5ac-39d57afd4228" x1="9.261" y1="-0.364" x2="6.218" y2="20.052" gradientUnits="userSpaceOnUse"><stop offset="0" stop-color="#32bedd"
---

 --><stop offset="1" stop-color="#198ab3"
---

 --></linearGradient><linearGradient id="a60145e1-6ccb-441f-b67d-d2694a998ff5" x1="10.798" y1="7.388" x2="14.441" y2="19.066" gradientUnits="userSpaceOnUse"><stop offset="0" stop-color="#50e6ff"
---

 --><stop offset="0.997" stop-color="#32bedd"
---

 --></linearGradient><linearGradient id="b456a054-82ca-4a95-919b-f07fd04a13ed" x1="-0.168" y1="4.114" x2="12.572" y2="10.895" gradientUnits="userSpaceOnUse"><stop offset="0" stop-color="#fff"
---

 --><stop offset="1" stop-color="#9cebff"
---

 --></linearGradient></defs><path d="M14.428,3.35l-5.195-3a2.624,2.624,0,0,0-2.622,0l-5.195,3A2.625,2.625,0,0,0,.105,5.621v6a2.625,2.625,0,0,0,1.311,2.272l5.2,3a2.624,2.624,0,0,0,2.622,0l5.2-3a2.625,2.625,0,0,0,1.311-2.272v-6A2.625,2.625,0,0,0,14.428,3.35Z" fill="url(#a2543bcd-55aa-4840-a5ac-39d57afd4228)"
---

 --><path d="M16.842,7.743,13.189,5.634a2.109,2.109,0,0,0-2.107,0L7.43,7.743A2.1,2.1,0,0,0,6.377,9.567v4.218A2.106,2.106,0,0,0,7.43,15.609l3.652,2.109a2.109,2.109,0,0,0,2.107,0l3.653-2.109A2.108,2.108,0,0,0,17.9,13.785V9.567A2.107,2.107,0,0,0,16.842,7.743Z" fill="url(#a60145e1-6ccb-441f-b67d-d2694a998ff5)"
---

 --><polygon points="7.578 2.963 8.63 2.381 13.14 11.728 12.774 12.128 2.835 12.128 2.947 10.931 11.328 10.931 7.578 2.963" fill="url(#b456a054-82ca-4a95-919b-f07fd04a13ed)"
---

 --><circle cx="2.732" cy="11.585" r="1.5" fill="#fff"
---

 --><circle cx="12.136" cy="11.676" r="2.344" fill="#fff"
---

 --><circle cx="8.041" cy="2.558" r="1.5" fill="#fff"
---

 -->​</g></svg><text fill="#000000" font-family="Segoe UI" font-size="12" lengthAdjust="spacing" textLength="67" x="17" y="99.9492">Digital Twins</text><!--MD5=[773bbff6b77f9213f9443da3b91d120d]
entity TimeSeriesInsightsAccessPolicies--><rect fill="#FFFFFF" height="121.8828" style="stroke:#3C7FC0;stroke-width:1.0;" width="103" x="129" y="7"/> --><svg x="153.5" y="17"><g transform="scale(3,3)" ><defs><radialGradient id="b17621e4-6399-4962-9fdc-bbf01106b616" cx="125.5" cy="123.98" r="11.18" gradientTransform="translate(-110.36 -108.4) scale(0.94 0.94)" gradientUnits="userSpaceOnUse"><stop offset="0.27" stop-color="#ffd70f"
---

 --><stop offset="0.49" stop-color="#ffcb12"
---

 --><stop offset="0.88" stop-color="#feac19"
---

 --><stop offset="1" stop-color="#fea11b"
---

 --></radialGradient></defs><path id="bbd54d76-e899-4d26-8609-8a0e8ded9211" d="M14,7.1a2.06,2.06,0,0,0,0-2.92h0L10.46.61a2.06,2.06,0,0,0-2.92,0h0L4,4.18A2.06,2.06,0,0,0,4,7.1l3,3a.57.57,0,0,1,.17.41V16a.71.71,0,0,0,.21.5l1.35,1.35a.45.45,0,0,0,.66,0l1.31-1.31h0l.77-.78a.26.26,0,0,0,0-.38l-.55-.55a.29.29,0,0,1,0-.42l.55-.56a.26.26,0,0,0,0-.38l-.55-.56a.28.28,0,0,1,0-.41l.55-.56a.26.26,0,0,0,0-.38l-.77-.78V10.5ZM9,1.47A1.18,1.18,0,1,1,7.83,2.64,1.17,1.17,0,0,1,9,1.47Z" fill="url(#b17621e4-6399-4962-9fdc-bbf01106b616)"
---

 --><path id="b5ac53e1-f5f5-4d33-8596-5914266bdddb" d="M8.07,16.13h0a.25.25,0,0,0,.43-.19V11.47a.24.24,0,0,0-.12-.22h0a.25.25,0,0,0-.39.22v4.47A.27.27,0,0,0,8.07,16.13Z" fill="#ff9300" opacity="0.75"
---

 --><rect id="a910bf31-c926-4a28-ae73-c28c8b4a8847" x="6.15" y="5.37" width="5.86" height="0.69" rx="0.32" fill="#ff9300" opacity="0.75"
---

 --><rect id="a644da9e-84f7-4645-963a-2de150154184" x="6.15" y="6.49" width="5.86" height="0.69" rx="0.32" fill="#ff9300" opacity="0.75"
---

 -->​    </g></svg><text fill="#000000" font-family="Segoe UI" font-size="12" lengthAdjust="spacing" textLength="59" x="149.5" y="83.9492">Time Series</text><text fill="#000000" font-family="Segoe UI" font-size="12" lengthAdjust="spacing" textLength="80" x="139" y="99.9102">Insights Access</text><text fill="#000000" font-family="Segoe UI" font-size="12" lengthAdjust="spacing" textLength="40" x="160.5" y="115.8711">Policies</text><!--MD5=[244e8a77c4afabdaf63d497b51dac6b9]
@startuml
!pragma revision 1
!include ../../includes/AzureCommon.puml
sprite $DigitalTwins InternetofThings/01030-icon-service-Digital-Twins.svg
rectangle "Digital Twins" <<$DigitalTwins{scale=3}>> as DigitalTwins
sprite $TimeSeriesInsightsAccessPolicies InternetofThings/10192-icon-service-Time-Series-Insights-Access-Policies.svg
rectangle "Time Series Insights Access Policies" <<$TimeSeriesInsightsAccessPolicies{scale=3}>> as TimeSeriesInsightsAccessPolicies
@enduml

@startuml
!pragma revision 1


skinparam defaultTextAlignment center
skinparam defaultFontName Segoe UI
skinparam defaultBackgroundColor white
skinparam RectangleBackgroundColor white
skinparam RectangleBorderColor #3C7FC0
skinparam WrapWidth 100

skinparam rectangle {
    FontSize 12
    BorderThickness 1
    Shadowing false
}
sprite $DigitalTwins InternetofThings/01030-icon-service-Digital-Twins.svg
rectangle "Digital Twins" <<$DigitalTwins{scale=3}>> as DigitalTwins
sprite $TimeSeriesInsightsAccessPolicies InternetofThings/10192-icon-service-Time-Series-Insights-Access-Policies.svg
rectangle "Time Series Insights Access Policies" <<$TimeSeriesInsightsAccessPolicies{scale=3}>> as TimeSeriesInsightsAccessPolicies
@enduml

PlantUML version 1.2021.00(Sun Jan 10 02:25:05 PST 2021)
(GPL source distribution)
Java Runtime: Java(TM) SE Runtime Environment
JVM: Java HotSpot(TM) 64-Bit Server VM
Default Encoding: Cp1252
Language: en
Country: US
--></g></svg>