<svg xmlns="http://www.w3.org/2000/svg" xmlns:xlink="http://www.w3.org/1999/xlink" contentScriptType="application/ecmascript" contentStyleType="text/css" height="600px" preserveAspectRatio="none" style="width:506px;height:600px;" version="1.1" viewBox="0 0 506 600" width="506px" zoomAndPan="magnify"><defs/><g><!--MD5=[b095e7fc2e65c72039bf7de6897d3ff8]
entity SQLDataWarehouses--><rect fill="#FFFFFF" height="105.9219" style="stroke:#3C7FC0;stroke-width:1.0;" width="84" x="11" y="7"/><svg x="26" y="17"><defs><linearGradient id="fbb0c6d7-8dd3-4464-9217-32033b9dbe40" x1="7.37" y1="0.5" x2="7.37" y2="13.23" gradientUnits="userSpaceOnUse"><stop offset="0" stop-color="#b3b2b3" /><stop offset="0.38" stop-color="#afaeaf" /><stop offset="0.76" stop-color="#a2a2a2" /><stop offset="1" stop-color="#979797" /></linearGradient><linearGradient id="f4df9409-8db7-49ba-98de-c39ce5949175" x1="8.96" y1="13.29" x2="17.32" y2="13.29" gradientUnits="userSpaceOnUse"><stop offset="0" stop-color="#005ba1" /><stop offset="0.07" stop-color="#0060a9" /><stop offset="0.36" stop-color="#0071c8" /><stop offset="0.52" stop-color="#0078d4" /><stop offset="0.64" stop-color="#0074cd" /><stop offset="0.82" stop-color="#006abb" /><stop offset="1" stop-color="#005ba1" /></linearGradient></defs><title>Icon-databases-125</title><g transform="scale(3,3)" ><polygon points="7.37 0.5 0.68 4.38 0.68 5.34 1.91 5.34 1.91 12.62 3.12 12.62 3.12 5.34 11.62 5.34 11.62 13.23 12.83 13.23 12.83 5.34 14.06 5.34 14.06 4.38 7.37 0.5" fill="url(#fbb0c6d7-8dd3-4464-9217-32033b9dbe40)" /><path d="M4.33,12.62H6.76V10.2H4.33Zm3.64,0H10.4V10.2H8ZM4.33,9H6.76V6.55H4.33ZM8,6.55V9H10.4V6.55Z" fill="#50e6ff" /><path d="M13.14,10.41C10.83,10.41,9,9.81,9,9.08v7.09c0,.73,1.84,1.32,4.12,1.33h.06c2.31,0,4.18-.6,4.18-1.33V9.08C17.32,9.81,15.45,10.41,13.14,10.41Z" fill="url(#f4df9409-8db7-49ba-98de-c39ce5949175)" /><path d="M17.32,9.08c0,.73-1.87,1.33-4.18,1.33S9,9.81,9,9.08s1.87-1.33,4.18-1.33,4.18.59,4.18,1.33" fill="#e8e8e8" /><path d="M16.35,9c0,.47-1.44.85-3.21.85S9.94,9.44,9.94,9s1.43-.85,3.2-.85,3.21.38,3.21.85" fill="#50e6ff" /><path d="M13.14,9.17a8.59,8.59,0,0,0-2.54.32,8.5,8.5,0,0,0,2.54.33,8.5,8.5,0,0,0,2.54-.33A8.59,8.59,0,0,0,13.14,9.17Z" fill="#32bedd" /></g></svg><text fill="#000000" font-family="Segoe UI" font-size="12" lengthAdjust="spacing" textLength="48" x="27.5" y="83.9492">SQL Data</text><text fill="#000000" font-family="Segoe UI" font-size="12" lengthAdjust="spacing" textLength="64" x="21" y="99.9102">Warehouses</text><!--MD5=[89313bfafa1d62f4969f0f11c2d79d16]
entity PartnerTopic--><rect fill="#FFFFFF" height="89.9609" style="stroke:#3C7FC0;stroke-width:1.0;" width="90" x="130" y="15"/><svg x="148" y="25"><g transform="scale(3,3)" ><defs><linearGradient id="b27e0b88-9d6f-4764-b5a0-04b62ac83910" x1="10.275" y1="11.03" x2="10.275" y2="7.773" gradientUnits="userSpaceOnUse"><stop offset="0" stop-color="#0078d4" /><stop offset="1" stop-color="#5ea0ef" /></linearGradient></defs><path d="M.613.993H1.976V4.775a.306.306,0,0,1-.306.306H.307A.306.306,0,0,1,0,4.775V1.606A.6.6,0,0,1,.592.993Z" fill="#a3a3a3" /><path d="M.613.993H1.976V4.775a.306.306,0,0,1-.306.306H.307A.306.306,0,0,1,0,4.775V1.606A.6.6,0,0,1,.592.993Z" fill="#a3a3a3" opacity="0.5" /><path d="M16.025.993h1.362a.6.6,0,0,1,.6.6v3.18a.306.306,0,0,1-.306.306H16.331a.306.306,0,0,1-.306-.306V.993Z" fill="#a3a3a3" /><path d="M16.025.993h1.362a.6.6,0,0,1,.6.6v3.18a.306.306,0,0,1-.306.306H16.331a.306.306,0,0,1-.306-.306V.993Z" fill="#a3a3a3" opacity="0.5" /><path d="M17.989,1.585v1.32H.032V1.585a.6.6,0,0,1,.6-.6H17.387A.6.6,0,0,1,17.989,1.585Z" fill="#949494" /><path d="M.307,12.9H1.67a.306.306,0,0,1,.306.306v3.813H.613A.6.6,0,0,1,0,16.426c0-.011,0-.021,0-.032V13.225A.306.306,0,0,1,.285,12.9Z" fill="#a3a3a3" /><path d="M.307,12.9H1.67a.306.306,0,0,1,.306.306v3.813H.613A.6.6,0,0,1,0,16.426c0-.011,0-.021,0-.032V13.225A.306.306,0,0,1,.285,12.9Z" fill="#a3a3a3" opacity="0.5" /><path d="M16.331,12.9h1.363A.306.306,0,0,1,18,13.2h0v3.169a.6.6,0,0,1-.6.6H16.025v-3.75a.306.306,0,0,1,.284-.327Z" fill="#a3a3a3" /><path d="M16.331,12.9h1.363A.306.306,0,0,1,18,13.2h0v3.169a.6.6,0,0,1-.6.6H16.025v-3.75a.306.306,0,0,1,.284-.327Z" fill="#a3a3a3" opacity="0.5" /><path d="M0,16.415V15.1H17.958v1.32a.6.6,0,0,1-.6.6H.6A.6.6,0,0,1,0,16.415Z" fill="#949494" /><path d="M12.919,11.292h0a.105.105,0,0,0,.082-.04l2.14-2.128a.234.234,0,0,0,0-.318l-2.14-2.163a.1.1,0,0,0-.148-.02.106.106,0,0,0-.04.1V8.054a.106.106,0,0,1-.093.117H7.736a1.235,1.235,0,0,0-.976-.482c-.042,0-.083-.006-.124-.006a1.294,1.294,0,0,0-.122,2.582c.041,0,.082,0,.123,0s.082,0,.123,0a1.274,1.274,0,0,0,.988-.494h4.963a.106.106,0,0,1,.105.094v1.318A.107.107,0,0,0,12.919,11.292Z" fill="url(#b27e0b88-9d6f-4764-b5a0-04b62ac83910)" /><path d="M8.886,10.57a2.747,2.747,0,1,1-.01-3.2h1.49a4.04,4.04,0,1,0,.006,3.2Z" fill="#773adc" />​</g></svg><text fill="#000000" font-family="Segoe UI" font-size="12" lengthAdjust="spacing" textLength="70" x="140" y="91.9492">Partner Topic</text><!--MD5=[914041b5c4b1cf3147acd26a539d6c34]
entity SystemTopic--><rect fill="#FFFFFF" height="89.9609" style="stroke:#3C7FC0;stroke-width:1.0;" width="90" x="255" y="15"/><svg x="273" y="25"><g transform="scale(3,3)" ><defs><linearGradient id="bc881cb0-2250-4e99-b6cd-568a96c57a9d" x1="10.467" y1="9.987" x2="10.467" y2="7.506" gradientUnits="userSpaceOnUse"><stop offset="0" stop-color="#773adc" /><stop offset="1" stop-color="#a67af4" /></linearGradient><linearGradient id="f536bf50-992c-4fa0-bbf6-4d12488616d9" x1="4.288" y1="13.077" x2="4.58" y2="5.029" gradientUnits="userSpaceOnUse"><stop offset="0" stop-color="#5e9624" /><stop offset="1" stop-color="#76bc2d" /></linearGradient><linearGradient id="f6c8ad87-986c-41f6-be34-270b4e00d1b0" x1="8.711" y1="13.237" x2="9.003" y2="5.189" gradientUnits="userSpaceOnUse"><stop offset="0" stop-color="#5e9624" /><stop offset="1" stop-color="#76bc2d" /></linearGradient><linearGradient id="bbbaf763-e5a9-4da8-9d1e-32d9d3fe8ff0" x1="8.915" y1="13.245" x2="9.207" y2="5.197" gradientUnits="userSpaceOnUse"><stop offset="0" stop-color="#5e9624" /><stop offset="1" stop-color="#76bc2d" /></linearGradient><linearGradient id="aa6fdf52-a4ca-43f3-b8a8-2f510d97420f" x1="4.471" y1="13.083" x2="4.763" y2="5.035" gradientUnits="userSpaceOnUse"><stop offset="0" stop-color="#5e9624" /><stop offset="1" stop-color="#76bc2d" /></linearGradient></defs><path d="M.613.993H1.976V4.775a.306.306,0,0,1-.306.306H.307A.306.306,0,0,1,0,4.775V1.606A.6.6,0,0,1,.592.993Z" fill="#a3a3a3" /><path d="M.613.993H1.976V4.775a.306.306,0,0,1-.306.306H.307A.306.306,0,0,1,0,4.775V1.606A.6.6,0,0,1,.592.993Z" fill="#a3a3a3" opacity="0.5" /><path d="M16.025.993h1.362a.6.6,0,0,1,.6.6v3.18a.306.306,0,0,1-.306.306H16.331a.306.306,0,0,1-.306-.306V.993Z" fill="#a3a3a3" /><path d="M16.025.993h1.362a.6.6,0,0,1,.6.6v3.18a.306.306,0,0,1-.306.306H16.331a.306.306,0,0,1-.306-.306V.993Z" fill="#a3a3a3" opacity="0.5" /><path d="M17.989,1.585v1.32H.032V1.585a.6.6,0,0,1,.6-.6H17.387A.6.6,0,0,1,17.989,1.585Z" fill="#949494" /><path d="M.307,12.9H1.67a.306.306,0,0,1,.306.306v3.813H.613A.6.6,0,0,1,0,16.426c0-.011,0-.021,0-.032V13.225A.306.306,0,0,1,.285,12.9Z" fill="#a3a3a3" /><path d="M.307,12.9H1.67a.306.306,0,0,1,.306.306v3.813H.613A.6.6,0,0,1,0,16.426c0-.011,0-.021,0-.032V13.225A.306.306,0,0,1,.285,12.9Z" fill="#a3a3a3" opacity="0.5" /><path d="M16.331,12.9h1.363A.306.306,0,0,1,18,13.2h0v3.169a.6.6,0,0,1-.6.6H16.025v-3.75a.306.306,0,0,1,.284-.327Z" fill="#a3a3a3" /><path d="M16.331,12.9h1.363A.306.306,0,0,1,18,13.2h0v3.169a.6.6,0,0,1-.6.6H16.025v-3.75a.306.306,0,0,1,.284-.327Z" fill="#a3a3a3" opacity="0.5" /><path d="M0,16.415V15.1H17.958v1.32a.6.6,0,0,1-.6.6H.6A.6.6,0,0,1,0,16.415Z" fill="#949494" /><path d="M15.436,8.828,13.3,6.664a.106.106,0,0,0-.148-.019.105.105,0,0,0-.04.1V8.075a.1.1,0,0,1-.092.117H7.83a1.237,1.237,0,0,0-.976-.482c-.042,0-.084-.006-.125-.006a1.294,1.294,0,0,0-.122,2.582q.061.006.123.006c.041,0,.083,0,.124-.006a1.272,1.272,0,0,0,.987-.494H13a.106.106,0,0,1,.1.094V11.2a.107.107,0,0,0,.1.11h0a.1.1,0,0,0,.082-.039l2.141-2.129A.235.235,0,0,0,15.436,8.828Z" fill="url(#bc881cb0-2250-4e99-b6cd-568a96c57a9d)" /><path d="M2.746,5.448V8.531H4.7A2.073,2.073,0,0,1,6.33,6.943v-2H3.246A.5.5,0,0,0,2.746,5.448Z" fill="url(#f536bf50-992c-4fa0-bbf6-4d12488616d9)" /><path d="M10.259,4.947H7.175v2a2.059,2.059,0,0,1,.99.451h2.594V5.447A.5.5,0,0,0,10.259,4.947Z" fill="url(#f6c8ad87-986c-41f6-be34-270b4e00d1b0)" /><path d="M7.175,11.053v1.979h3.084a.5.5,0,0,0,.5-.5v-1.94H8.179A2.046,2.046,0,0,1,7.175,11.053Z" fill="url(#bbbaf763-e5a9-4da8-9d1e-32d9d3fe8ff0)" /><path d="M4.7,9.448H2.746v3.084a.5.5,0,0,0,.5.5H6.33V11.043A2.036,2.036,0,0,1,4.7,9.448Z" fill="url(#aa6fdf52-a4ca-43f3-b8a8-2f510d97420f)" />​</g></svg><text fill="#000000" font-family="Segoe UI" font-size="12" lengthAdjust="spacing" textLength="70" x="265" y="91.9492">System Topic</text><!--MD5=[10fde560afb99a068cde2e4d3866c7b9]
entity APIManagementServices--><rect fill="#FFFFFF" height="105.9219" style="stroke:#3C7FC0;stroke-width:1.0;" width="115" x="380.5" y="7"/><svg x="411" y="17"><g transform="scale(3,3)" ><defs><linearGradient id="bf8a9583-aae9-48ff-87d8-fb8f44e7d6bd" x1="9" y1="16.82" x2="9" y2="1.18" gradientUnits="userSpaceOnUse"><stop offset="0" stop-color="#198ab3" /><stop offset="0.09" stop-color="#1f9dc4" /><stop offset="0.24" stop-color="#28b5d9" /><stop offset="0.4" stop-color="#2dc6e9" /><stop offset="0.57" stop-color="#31d1f2" /><stop offset="0.78" stop-color="#32d4f5" /></linearGradient><linearGradient id="f9b1bb8c-728e-4abf-bce5-6c11ac170c5b" x1="8.36" y1="11.35" x2="8.36" y2="14.46" gradientUnits="userSpaceOnUse"><stop offset="0" stop-color="#c69aeb" /><stop offset="1" stop-color="#6f4bb2" /></linearGradient></defs><title>Icon-web-42</title><path d="M14.18,5.89A4.85,4.85,0,0,0,9.23,1.18,5,5,0,0,0,4.48,4.47,4.61,4.61,0,0,0,.5,9,4.67,4.67,0,0,0,5.29,13.5a3,3,0,0,0,.42,0h1.2a1.47,1.47,0,0,1-.11-.56v0A1.51,1.51,0,0,1,7,12.21H5.6l-.31,0A3.41,3.41,0,0,1,1.77,9,3.33,3.33,0,0,1,4.68,5.73l.76-.12.25-.73A3.73,3.73,0,0,1,9.23,2.45,3.6,3.6,0,0,1,12.91,5.9V7L14,7.15a2.59,2.59,0,0,1,2.26,2.49,2.63,2.63,0,0,1-2.62,2.54h-.15l-.08,0h-1A3.92,3.92,0,0,0,8.54,9a.64.64,0,1,0,0,1.27,2.65,2.65,0,0,1,0,5.29.64.64,0,1,0,0,1.27,3.92,3.92,0,0,0,3.87-3.34h1.05a.64.64,0,0,0,.2,0A3.91,3.91,0,0,0,17.5,9.64,3.86,3.86,0,0,0,14.18,5.89Z" fill="url(#bf8a9583-aae9-48ff-87d8-fb8f44e7d6bd)" /><rect x="6.8" y="11.35" width="3.12" height="3.12" rx="1.54" fill="url(#f9b1bb8c-728e-4abf-bce5-6c11ac170c5b)" /></g></svg><text fill="#000000" font-family="Segoe UI" font-size="12" lengthAdjust="spacing" textLength="92" x="390.5" y="83.9492">API Management</text><text fill="#000000" font-family="Segoe UI" font-size="12" lengthAdjust="spacing" textLength="42" x="417" y="99.9102">Services</text><!--MD5=[d86f3688527373ac508ddf728afb93a2]
entity LogicApps--><rect fill="#FFFFFF" height="89.9609" style="stroke:#3C7FC0;stroke-width:1.0;" width="79" x="13.5" y="173"/><svg x="26" y="183"><defs><linearGradient id="e20ae4ca-8128-4625-bcc6-863bc1bc51d9" x1="5.05" y1="10.55" x2="5.05" y2="13.48" gradientUnits="userSpaceOnUse"><stop offset="0" stop-color="#76bc2d" /><stop offset="1" stop-color="#5e9624" /></linearGradient><linearGradient id="b6fa89de-29eb-462e-97de-5bdbdaeb090e" x1="12.84" y1="10.57" x2="12.84" y2="13.5" gradientUnits="userSpaceOnUse"><stop offset="0" stop-color="#76bc2d" /><stop offset="1" stop-color="#5e9624" /></linearGradient></defs><title>Icon-integration-204</title><g transform="scale(3,3)" ><path d="M3.19,15.6a2.49,2.49,0,0,1-1.53-.38,1.7,1.7,0,0,1-.45-1.36V10.33c0-.58-.23-.89-.71-.89V8.56c.48,0,.71-.31.71-.92V4.17a1.79,1.79,0,0,1,.45-1.39A2.29,2.29,0,0,1,3.19,2.4v.89c-.51,0-.79.27-.79.85v3.4c0,.78-.23,1.26-.74,1.46a1.42,1.42,0,0,1,.74,1.46v3.37a1.25,1.25,0,0,0,.17.68.74.74,0,0,0,.58.2l0,.89Z" fill="#949494" /><path d="M14.81,2.4a2.49,2.49,0,0,1,1.53.38,1.7,1.7,0,0,1,.45,1.36V7.67c0,.58.23.89.71.89v.88c-.48,0-.71.31-.71.92v3.43a1.8,1.8,0,0,1-.45,1.4,2.28,2.28,0,0,1-1.53.41v-.89c.51,0,.79-.27.79-.85v-3.4c0-.78.23-1.26.74-1.46a1.42,1.42,0,0,1-.74-1.46V4.17a1.25,1.25,0,0,0-.17-.68.74.74,0,0,0-.58-.2Z" fill="#949494" /><path d="M9.41,8.35V7.08h-.9V8.35a.18.18,0,0,1-.18.18H5a.36.36,0,0,0-.36.36v1.65h.9V9.63a.18.18,0,0,1,.17-.18h6.54a.18.18,0,0,1,.18.18v.93h.89V8.89a.36.36,0,0,0-.35-.36H9.59A.18.18,0,0,1,9.41,8.35Z" fill="#005ba1" /><path d="M10.61,3.21H7.25a.38.38,0,0,0-.38.37V6.94a.37.37,0,0,0,.38.37h3.36A.37.37,0,0,0,11,6.94V3.58A.38.38,0,0,0,10.61,3.21Zm-.32,3.17a.25.25,0,0,1-.25.24H7.81a.25.25,0,0,1-.25-.24V4.15a.25.25,0,0,1,.25-.25H10a.25.25,0,0,1,.25.25Z" fill="#0078d4" /><rect x="3.58" y="10.55" width="2.94" height="2.94" rx="0.27" fill="url(#e20ae4ca-8128-4625-bcc6-863bc1bc51d9)" /><rect x="11.38" y="10.57" width="2.94" height="2.94" rx="0.27" fill="url(#b6fa89de-29eb-462e-97de-5bdbdaeb090e)" /></g></svg><text fill="#000000" font-family="Segoe UI" font-size="12" lengthAdjust="spacing" textLength="59" x="23.5" y="249.9492">Logic Apps</text><!--MD5=[338359103f8335a2ebb59b9ec636896b]
entity EventGridTopics--><rect fill="#FFFFFF" height="89.9609" style="stroke:#3C7FC0;stroke-width:1.0;" width="111" x="127.5" y="173"/><svg x="156" y="183"><defs><linearGradient id="afc27830-8354-4c08-adf9-e299527ebe55" x1="7.94" y1="7.7" x2="7.94" y2="3.75" gradientUnits="userSpaceOnUse"><stop offset="0" stop-color="#5e9624" /><stop offset="1" stop-color="#76bc2d" /></linearGradient><linearGradient id="edc561ac-a1d6-439f-a08b-594ef0214ee3" x1="7.94" y1="14.26" x2="7.94" y2="10.31" gradientUnits="userSpaceOnUse"><stop offset="0" stop-color="#5e9624" /><stop offset="1" stop-color="#76bc2d" /></linearGradient></defs><title>Icon-integration-206</title><g transform="scale(3,3)" ><g id="aa7ea84e-faaa-4698-89ff-203b553089f2"><g><g><path d="M1.06,1.42H2.35a0,0,0,0,1,0,0V5a.29.29,0,0,1-.29.29H.77A.29.29,0,0,1,.48,5V2A.57.57,0,0,1,1.06,1.42Z" fill="#a3a3a3" /><path d="M1.06,1.42H2.35a0,0,0,0,1,0,0V5a.29.29,0,0,1-.29.29H.77A.29.29,0,0,1,.48,5V2A.57.57,0,0,1,1.06,1.42Z" fill="#a3a3a3" opacity="0.5" /></g><g><path d="M15.65,1.42h1.29a.57.57,0,0,1,.57.57V5a.29.29,0,0,1-.29.29H15.94A.29.29,0,0,1,15.65,5V1.42A0,0,0,0,1,15.65,1.42Z" fill="#a3a3a3" /><path d="M15.65,1.42h1.29a.57.57,0,0,1,.57.57V5a.29.29,0,0,1-.29.29H15.94A.29.29,0,0,1,15.65,5V1.42A0,0,0,0,1,15.65,1.42Z" fill="#a3a3a3" opacity="0.5" /></g><path d="M8.66-6.19H9.91a0,0,0,0,1,0,0v17a0,0,0,0,1,0,0H8.66a.57.57,0,0,1-.57-.57V-5.62A.57.57,0,0,1,8.66-6.19Z" transform="translate(11.32 -6.68) rotate(90)" fill="#949494" /><g><path d="M.77,12.69H2.06a.29.29,0,0,1,.29.29v3.61a0,0,0,0,1,0,0H1.06A.57.57,0,0,1,.48,16V13A.29.29,0,0,1,.77,12.69Z" fill="#a3a3a3" /><path d="M.77,12.69H2.06a.29.29,0,0,1,.29.29v3.61a0,0,0,0,1,0,0H1.06A.57.57,0,0,1,.48,16V13A.29.29,0,0,1,.77,12.69Z" fill="#a3a3a3" opacity="0.5" /></g><g><path d="M15.94,12.69h1.29a.29.29,0,0,1,.29.29v3a.57.57,0,0,1-.57.57H15.65a0,0,0,0,1,0,0V13A.29.29,0,0,1,15.94,12.69Z" fill="#a3a3a3" /><path d="M15.94,12.69h1.29a.29.29,0,0,1,.29.29v3a.57.57,0,0,1-.57.57H15.65a0,0,0,0,1,0,0V13A.29.29,0,0,1,15.94,12.69Z" fill="#a3a3a3" opacity="0.5" /></g><path d="M8.66,7.16H9.91a0,0,0,0,1,0,0v17a0,0,0,0,1,0,0H8.66a.57.57,0,0,1-.57-.57V7.73A.57.57,0,0,1,8.66,7.16Z" transform="translate(-6.68 24.68) rotate(-90)" fill="#949494" /><path d="M14.91,8.84,13.09,7a.09.09,0,0,0-.16.07V8.2a.09.09,0,0,1-.1.1H7.59a1.05,1.05,0,0,0-.83-.41,1.1,1.1,0,1,0,0,2.19,1.08,1.08,0,0,0,.84-.42h5.23a.09.09,0,0,1,.1.09v1.11a.09.09,0,0,0,.16.06l1.82-1.81A.2.2,0,0,0,14.91,8.84Z" fill="#5ea0ef" /><path d="M11.55,5.59,9.73,3.78a.09.09,0,0,0-.16.07V5a.09.09,0,0,1-.09.1H6.2a1.07,1.07,0,0,0-.84-.41,1.1,1.1,0,1,0,.85,1.77H9.48a.09.09,0,0,1,.09.09V7.61a.09.09,0,0,0,.16.06l1.82-1.81A.2.2,0,0,0,11.55,5.59Z" fill="url(#afc27830-8354-4c08-adf9-e299527ebe55)" /><path d="M11.55,12.15,9.73,10.34a.09.09,0,0,0-.16.07v1.1a.1.1,0,0,1-.09.1H6.2a1.07,1.07,0,0,0-.84-.41A1.1,1.1,0,1,0,6.21,13H9.48a.09.09,0,0,1,.09.09v1.11a.09.09,0,0,0,.16.06l1.82-1.81A.2.2,0,0,0,11.55,12.15Z" fill="url(#edc561ac-a1d6-439f-a08b-594ef0214ee3)" /></g></g></g></svg><text fill="#000000" font-family="Segoe UI" font-size="12" lengthAdjust="spacing" textLength="91" x="137.5" y="249.9492">Event Grid Topics</text><!--MD5=[1693b989e692b90acd6e36ece5ec0fe3]
entity Relays--><rect fill="#FFFFFF" height="89.9609" style="stroke:#3C7FC0;stroke-width:1.0;" width="74" x="274" y="173"/><svg x="284" y="183"><defs><linearGradient id="bc749e5b-d92e-4108-bd03-94292d319bad" x1="6.11" y1="12.5" x2="6.11" y2="9.42" gradientUnits="userSpaceOnUse"><stop offset="0" stop-color="#6f4bb2" /><stop offset="1" stop-color="#c69aeb" /></linearGradient><linearGradient id="a6c0d9d6-4ddb-42bb-a4e1-0936b3e0d5bd" x1="12.06" y1="12.5" x2="12.06" y2="9.42" gradientUnits="userSpaceOnUse"><stop offset="0" stop-color="#6f4bb2" /><stop offset="1" stop-color="#c69aeb" /></linearGradient></defs><title>Icon-integration-209</title><g transform="scale(3,3)" ><g id="a648095e-7302-4e27-a235-6a21bc33cd8e"><polygon points="12.38 10.79 9.4 6.01 9.13 6.18 8.87 6.01 5.88 10.79 6.49 11.16 9.13 6.93 11.78 11.17 12.38 10.79" fill="#949494" /><circle id="ba379c67-2b18-4ca9-949e-135360c6791b" cx="9.08" cy="6.21" r="1.54" fill="#86d633" /><circle id="f9fc8275-0c73-430b-aa4d-fa59c8a3d174" cx="6.11" cy="10.96" r="1.54" fill="url(#bc749e5b-d92e-4108-bd03-94292d319bad)" /><circle id="bcd6bcfb-f475-487d-a26d-eedd4cead763" cx="12.06" cy="10.96" r="1.54" fill="url(#a6c0d9d6-4ddb-42bb-a4e1-0936b3e0d5bd)" /><g><path d="M1.15,1.27H2.44a0,0,0,0,1,0,0v3.6a.29.29,0,0,1-.29.29H.87a.29.29,0,0,1-.29-.29v-3A.57.57,0,0,1,1.15,1.27Z" fill="#999" /><path d="M1.15,1.27H2.44a0,0,0,0,1,0,0v3.6a.29.29,0,0,1-.29.29H.87a.29.29,0,0,1-.29-.29v-3A.57.57,0,0,1,1.15,1.27Z" fill="#999" opacity="0.5" /></g><g><path d="M15.72,1.27H17a.57.57,0,0,1,.57.57v3a.29.29,0,0,1-.29.29H16a.29.29,0,0,1-.29-.29V1.27A0,0,0,0,1,15.72,1.27Z" fill="#999" /><path d="M15.72,1.27H17a.57.57,0,0,1,.57.57v3a.29.29,0,0,1-.29.29H16a.29.29,0,0,1-.29-.29V1.27A0,0,0,0,1,15.72,1.27Z" fill="#999" opacity="0.5" /></g><path d="M8.74-6.32H10a0,0,0,0,1,0,0v17a0,0,0,0,1,0,0H8.74a.57.57,0,0,1-.57-.57V-5.75A.57.57,0,0,1,8.74-6.32Z" transform="translate(11.26 -6.9) rotate(90)" fill="#949494" /><g><path d="M.87,12.52H2.16a.29.29,0,0,1,.29.29v3.6a0,0,0,0,1,0,0H1.15a.57.57,0,0,1-.57-.57v-3A.29.29,0,0,1,.87,12.52Z" fill="#999" /><path d="M.87,12.52H2.16a.29.29,0,0,1,.29.29v3.6a0,0,0,0,1,0,0H1.15a.57.57,0,0,1-.57-.57v-3A.29.29,0,0,1,.87,12.52Z" fill="#999" opacity="0.5" /></g><g><path d="M16,12.52H17.3a.29.29,0,0,1,.29.29v3a.57.57,0,0,1-.57.57H15.72a0,0,0,0,1,0,0v-3.6A.29.29,0,0,1,16,12.52Z" fill="#999" /><path d="M16,12.52H17.3a.29.29,0,0,1,.29.29v3a.57.57,0,0,1-.57.57H15.72a0,0,0,0,1,0,0v-3.6A.29.29,0,0,1,16,12.52Z" fill="#999" opacity="0.5" /></g><path d="M8.74,7H10a0,0,0,0,1,0,0V24a0,0,0,0,1,0,0H8.74a.57.57,0,0,1-.57-.57V7.57A.57.57,0,0,1,8.74,7Z" transform="translate(-6.42 24.59) rotate(-90)" fill="#949494" /></g></g></svg><text fill="#000000" font-family="Segoe UI" font-size="12" lengthAdjust="spacing" textLength="33" x="294.5" y="249.9492">Relays</text><!--MD5=[88e06d4b2f0f683c6899325bbdec4d0b]
entity AzureAPIforFHIR--><rect fill="#FFFFFF" height="89.9609" style="stroke:#3C7FC0;stroke-width:1.0;" width="117" x="383.5" y="173"/><svg x="415" y="183"><defs><linearGradient id="e25b5478-43f7-4f53-84a7-1f55844412ae" x1="9.09" y1="17.5" x2="9.09" y2="1.36" gradientUnits="userSpaceOnUse"><stop offset="0" stop-color="#ef7100" /><stop offset="0.13" stop-color="#f27d07" /><stop offset="0.43" stop-color="#f69113" /><stop offset="0.72" stop-color="#f99e1b" /><stop offset="1" stop-color="#faa21d" /></linearGradient></defs><title>Icon-integration-212</title><path d="M13.47,1.38A4.26,4.26,0,0,0,9.09,4.23,4.28,4.28,0,0,0,4.7,1.38C.75,1.69.54,5.6.6,7.1.63,8.17.84,11.54,9,17.4v.1l.07-.05.07.05v-.1C17.34,11.54,17.55,8.11,17.58,7,17.64,5.54,17.42,1.69,13.47,1.38Z" fill="url(#e25b5478-43f7-4f53-84a7-1f55844412ae)" /><g transform="scale(3,3)" ><path d="M17,3.8a6.37,6.37,0,0,1-.31,4c-.88,2-2.8,3.6-5.59,4.78a1.34,1.34,0,0,0-1-.43,1.37,1.37,0,1,0,1.36,1.41A13.68,13.68,0,0,0,17,9.34a6.19,6.19,0,0,0,.54-3.26A7,7,0,0,0,17,3.8Z" fill="#ffe452" /><path d="M6.87,11.94h0l-.39.4C3.73,9.63,2.86,7.48,4,6.36s3.27-.25,6,2.47l-.39.4a.52.52,0,0,0,0,.74.51.51,0,0,0,.74,0h0l.74-.74a.53.53,0,0,0,0-.74l-.37-.37c-1.85-1.86-5-4.11-7-2.78a3.24,3.24,0,0,1-1-2,2.28,2.28,0,0,1,.46-1.63A4,4,0,0,0,1.7,2.84,3.52,3.52,0,0,0,3,6.08c-1.3,2,.94,5.14,2.79,7l.37.38a.53.53,0,0,0,.74,0l.75-.75a.53.53,0,0,0,0-.74A.52.52,0,0,0,6.87,11.94Z" fill="#ffe452" /></g></svg><text fill="#000000" font-family="Segoe UI" font-size="12" lengthAdjust="spacing" textLength="97" x="393.5" y="249.9492">Azure API for FHIR</text><!--MD5=[1d2dbf87c1a9df69feca3cdf48eeed49]
entity SoftwareasaService--><rect fill="#FFFFFF" height="105.9219" style="stroke:#3C7FC0;stroke-width:1.0;" width="92" x="7" y="323"/><svg x="26" y="333"><g transform="scale(3,3)" ><defs><linearGradient id="eecac283-5787-4815-966b-5038e8694ef9" x1="9" y1="1.99" x2="9" y2="14.03" gradientUnits="userSpaceOnUse"><stop offset="0" stop-color="#5ea0ef" /><stop offset="0.18" stop-color="#559cec" /><stop offset="0.47" stop-color="#3c91e5" /><stop offset="0.84" stop-color="#1380da" /><stop offset="1" stop-color="#0078d4" /></linearGradient><linearGradient id="f10368bd-0855-4655-99c6-f816802ac965" x1="9.06" y1="6.39" x2="9.06" y2="16.01" gradientUnits="userSpaceOnUse"><stop offset="0" stop-color="#b3b3b3" /><stop offset="0.12" stop-color="#adadad" /><stop offset="0.64" stop-color="#9b9b9b" /><stop offset="1" stop-color="#949494" /></linearGradient></defs><path d="M17.5,10.26a3.82,3.82,0,0,0-3.32-3.67A4.8,4.8,0,0,0,9.23,2,4.94,4.94,0,0,0,4.51,5.2a4.56,4.56,0,0,0-4,4.39A4.62,4.62,0,0,0,5.29,14h8.17a1.2,1.2,0,0,0,.2,0A3.87,3.87,0,0,0,17.5,10.26Z" fill="url(#eecac283-5787-4815-966b-5038e8694ef9)" /><path d="M11.88,15.53a.48.48,0,0,1-.49.48H6.72a.48.48,0,0,1-.49-.48V6.87a.48.48,0,0,1,.49-.48h4.67a.48.48,0,0,1,.49.48Z" fill="url(#f10368bd-0855-4655-99c6-f816802ac965)" /><path id="b27878c5-7f3c-4613-bf1f-666b5e29766a" d="M6.9,7.39H8V8.74H6.9Zm1.62,0H9.6V8.74H8.52Zm1.62,0h1.08V8.74H10.14ZM6.9,9.55H8V10.9H6.9Zm1.62,0H9.6V10.9H8.52Zm1.62,0h1.08V10.9H10.14ZM6.9,11.71H8v1.35H6.9Zm1.62,0H9.6v1.35H8.52Zm0,2.16H9.6v1.62H8.52Zm1.62-2.16h1.08v1.35H10.14Z" fill="#fff" /></g></svg><text fill="#000000" font-family="Segoe UI" font-size="12" lengthAdjust="spacing" textLength="69" x="17" y="399.9492">Software as a</text><text fill="#000000" font-family="Segoe UI" font-size="12" lengthAdjust="spacing" textLength="37" x="34.5" y="415.9102">Service</text><!--MD5=[8c8676a1d6d014facd645bac11ff3c92]
entity EventGridDomains--><rect fill="#FFFFFF" height="105.9219" style="stroke:#3C7FC0;stroke-width:1.0;" width="77" x="134.5" y="323"/><svg x="146" y="333"><defs><linearGradient id="a20547e5-d6af-456b-afbc-05d22ff8cb9d" x1="4589.72" y1="-5180.02" x2="4589.72" y2="-5184.21" gradientTransform="matrix(0.5, 0, 0, -0.5, -2275.31, -2589.32)" gradientUnits="userSpaceOnUse"><stop offset="0" stop-color="#c69aeb" /><stop offset="1" stop-color="#6f4bb2" /></linearGradient><linearGradient id="a4745f51-5e75-4126-812d-6bb8a5130e16" x1="4587.99" y1="-5188.47" x2="4587.99" y2="-5192.65" href="#a20547e5-d6af-456b-afbc-05d22ff8cb9d" /></defs><title>Icon-integration-215</title><g transform="scale(3,3)" ><g id="b30b0bd5-e4d2-456b-8d49-c2df20200912"><path id="b51878b5-8d50-4b8b-bc48-74f5f7315a99" d="M12.7,8.15v-.6H8.18L6.06,9.66H4.5L8.12,6h2.47V5.43H7.87L3.65,9.66h-.6v.6H4.86L7,12.37H12.1v-.6H7.22L5.71,10.26H9.38v-.6H6.92l1.5-1.51Z" fill="#32bedd" /><circle id="ad0ed4eb-cd5f-4cc0-bd19-2830d27ec806" cx="9.98" cy="9.96" r="0.87" fill="#fff" /><circle id="a2746b4a-0ae4-4308-876e-5b82657e1872" cx="10.89" cy="5.74" r="0.87" fill="#fff" /><circle id="fc3316e0-7094-4ce0-99ed-43f1e6e4350c" cx="13" cy="7.85" r="0.87" fill="#fff" /><circle id="b5d18443-d50e-4590-8e8f-80b6a7f6d348" cx="12.1" cy="12.07" r="0.87" fill="#fff" /><circle cx="10.86" cy="5.74" r="1.05" fill="#50e6ff" /><circle cx="12.97" cy="7.85" r="1.05" fill="url(#a20547e5-d6af-456b-afbc-05d22ff8cb9d)" /><circle cx="12.1" cy="12.07" r="1.05" fill="url(#a4745f51-5e75-4126-812d-6bb8a5130e16)" /><circle cx="9.98" cy="9.96" r="1.05" fill="#50e6ff" /><g><path d="M1.07,1.43H2.36a0,0,0,0,1,0,0V5a.29.29,0,0,1-.29.29H.79A.29.29,0,0,1,.5,5V2A.57.57,0,0,1,1.07,1.43Z" fill="#999" /><path d="M1.07,1.43H2.36a0,0,0,0,1,0,0V5a.29.29,0,0,1-.29.29H.79A.29.29,0,0,1,.5,5V2A.57.57,0,0,1,1.07,1.43Z" fill="#999" opacity="0.5" /></g><g><path d="M15.64,1.43h1.29A.57.57,0,0,1,17.5,2V5a.29.29,0,0,1-.29.29H15.92A.29.29,0,0,1,15.64,5V1.43A0,0,0,0,1,15.64,1.43Z" fill="#999" /><path d="M15.64,1.43h1.29A.57.57,0,0,1,17.5,2V5a.29.29,0,0,1-.29.29H15.92A.29.29,0,0,1,15.64,5V1.43A0,0,0,0,1,15.64,1.43Z" fill="#999" opacity="0.5" /></g><path d="M8.66-6.16H9.91a0,0,0,0,1,0,0v17a0,0,0,0,1,0,0H8.66a.57.57,0,0,1-.57-.57V-5.6A.57.57,0,0,1,8.66-6.16Z" transform="translate(11.34 -6.66) rotate(90)" fill="#949494" /><g><path d="M.79,12.68H2.08a.29.29,0,0,1,.29.29v3.6a0,0,0,0,1,0,0H1.07A.57.57,0,0,1,.5,16V13A.29.29,0,0,1,.79,12.68Z" fill="#999" /><path d="M.79,12.68H2.08a.29.29,0,0,1,.29.29v3.6a0,0,0,0,1,0,0H1.07A.57.57,0,0,1,.5,16V13A.29.29,0,0,1,.79,12.68Z" fill="#999" opacity="0.5" /></g><g><path d="M15.92,12.68h1.29a.29.29,0,0,1,.29.29v3a.57.57,0,0,1-.57.57H15.64a0,0,0,0,1,0,0V13A.29.29,0,0,1,15.92,12.68Z" fill="#999" /><path d="M15.92,12.68h1.29a.29.29,0,0,1,.29.29v3a.57.57,0,0,1-.57.57H15.64a0,0,0,0,1,0,0V13A.29.29,0,0,1,15.92,12.68Z" fill="#999" opacity="0.5" /></g><path d="M8.66,7.16H9.91a0,0,0,0,1,0,0v17a0,0,0,0,1,0,0H8.66a.57.57,0,0,1-.57-.57V7.73A.57.57,0,0,1,8.66,7.16Z" transform="translate(-6.66 24.66) rotate(-90)" fill="#949494" /></g></g></svg><text fill="#000000" font-family="Segoe UI" font-size="12" lengthAdjust="spacing" textLength="54" x="144.5" y="399.9492">Event Grid</text><text fill="#000000" font-family="Segoe UI" font-size="12" lengthAdjust="spacing" textLength="47" x="149.5" y="415.9102">Domains</text><!--MD5=[df4639252846316f006c4a7c79c76f08]
entity AzureDataCatalog--><rect fill="#FFFFFF" height="105.9219" style="stroke:#3C7FC0;stroke-width:1.0;" width="80" x="247" y="323"/><svg x="260" y="333"><defs><linearGradient id="a790cec7-07c9-4638-b5c5-ab9fbd5ca908" x1="6.41" y1="1.78" x2="6.41" y2="14.13" gradientUnits="userSpaceOnUse"><stop offset="0" stop-color="#b3b2b3" /><stop offset="0.38" stop-color="#afaeaf" /><stop offset="0.76" stop-color="#a2a2a2" /><stop offset="1" stop-color="#979797" /></linearGradient><linearGradient id="b9e6ae88-e13e-4cbb-9678-9c3623cbd024" x1="7.85" y1="13.09" x2="16.6" y2="13.09" gradientUnits="userSpaceOnUse"><stop offset="0" stop-color="#005ba1" /><stop offset="0.07" stop-color="#0060a9" /><stop offset="0.36" stop-color="#0071c8" /><stop offset="0.52" stop-color="#0078d4" /><stop offset="0.64" stop-color="#0074cd" /><stop offset="0.82" stop-color="#006abb" /><stop offset="1" stop-color="#005ba1" /></linearGradient></defs><title>Icon-integration-216</title><g transform="scale(3,3)" ><g id="e324a405-82e2-4fb6-93ca-106df2178669"><g><path d="M1.42,1.79l1-1.13A.48.48,0,0,1,2.75.5h9.31a.66.66,0,0,1,.71.67V12.79a.48.48,0,0,1-.16.35l-1,.95Z" fill="#999" /><path d="M1.42,1.79l1-1.13A.48.48,0,0,1,2.75.5h9.31a.66.66,0,0,1,.71.67V12.79a.48.48,0,0,1-.16.35l-1,.95Z" fill="#999" opacity="0.5" /><path d="M2.2,1.79l.59-.68A.44.44,0,0,1,3.11,1H11.8a.42.42,0,0,1,.42.42V12.43a.44.44,0,0,1-.13.31l-.93.85" fill="#fff" /><path d="M11.1,1.78H1.45a0,0,0,0,0-.05,0v12a.31.31,0,0,0,.31.31H11.1a.31.31,0,0,0,.31-.31V2.09A.31.31,0,0,0,11.1,1.78Z" fill="url(#a790cec7-07c9-4638-b5c5-ab9fbd5ca908)" /><g><path d="M12.22,10.08c-2.41,0-4.37-.62-4.37-1.39v7.42c0,.76,1.92,1.38,4.31,1.39h.06c2.42,0,4.38-.62,4.38-1.39V8.69C16.6,9.46,14.64,10.08,12.22,10.08Z" fill="url(#b9e6ae88-e13e-4cbb-9678-9c3623cbd024)" /><path d="M16.6,8.69c0,.77-2,1.39-4.38,1.39S7.85,9.46,7.85,8.69s2-1.4,4.37-1.4,4.38.63,4.38,1.4" fill="#e8e8e8" /><path d="M15.58,8.58c0,.49-1.51.88-3.36.88s-3.35-.39-3.35-.88,1.5-.89,3.35-.89,3.36.4,3.36.89" fill="#50e6ff" /><path d="M12.22,8.78a8.89,8.89,0,0,0-2.65.34,8.79,8.79,0,0,0,2.65.34,8.86,8.86,0,0,0,2.66-.34A9,9,0,0,0,12.22,8.78Z" fill="#198ab3" /></g></g></g></g></svg><text fill="#000000" font-family="Segoe UI" font-size="12" lengthAdjust="spacing" textLength="57" x="257" y="399.9492">Azure Data</text><text fill="#000000" font-family="Segoe UI" font-size="12" lengthAdjust="spacing" textLength="41" x="266.5" y="415.9102">Catalog</text><!--MD5=[ca14c43c13784846cd94f27fd4d19fb1]
entity IntegrationAccounts--><rect fill="#FFFFFF" height="105.9219" style="stroke:#3C7FC0;stroke-width:1.0;" width="81" x="362.5" y="323"/><svg x="376" y="333"><g transform="scale(3,3)" ><defs><linearGradient id="b6d2ab89-b9ea-48bf-8e7f-c0a0e94aaccb" x1="5.06" y1="11.62" x2="5.06" y2="14.5" gradientUnits="userSpaceOnUse"><stop offset="0" stop-color="#b77af4" /><stop offset="1" stop-color="#773adc" /></linearGradient><linearGradient id="aa835ab6-90f2-4950-9adc-1bef25952f94" x1="13.06" y1="11.62" x2="13.06" y2="14.5" gradientUnits="userSpaceOnUse"><stop offset="0" stop-color="#b77af4" /><stop offset="1" stop-color="#773adc" /></linearGradient></defs><title>Icon-integration-218</title><path id="a2734abb-83a3-460e-90d8-64455870d970" d="M1.06,1.6V16.52a.54.54,0,0,0,.54.54H16.52a.54.54,0,0,0,.54-.54V1.6a.54.54,0,0,0-.54-.54H1.6A.54.54,0,0,0,1.06,1.6Zm14.56,14H3a.54.54,0,0,1-.54-.54V2.5H15.62Z" fill="#0078d4" /><path id="ba3f6f82-9a3b-4057-ad2f-e8d6b6ae1b0d" d="M3.62,3.62H6.5V6.5H3.62Z" fill="#ffca00" /><path id="f46b9afd-fd39-4ca3-b68e-e5ca657f5953" d="M3.62,7.62H6.5V10.5H3.62Z" fill="#e62323" /><path id="e7dd79f4-ae03-42ec-8f08-c2efdcdd3517" d="M7.62,7.62H10.5V10.5H7.62Z" fill="#5ea0ef" /><path id="bdd26cbb-f087-4b40-a809-b68b4e92b643" d="M3.62,11.62H6.5V14.5H3.62Z" fill="url(#b6d2ab89-b9ea-48bf-8e7f-c0a0e94aaccb)" /><path id="b42c6875-f245-4ba4-9264-2088283c3036" d="M7.62,11.62H10.5V14.5H7.62Z" fill="#e62323" /><path id="a8d52762-2bc4-48b4-9685-903c7c3b7d84" d="M11.62,11.62H14.5V14.5H11.62Z" fill="url(#aa835ab6-90f2-4950-9adc-1bef25952f94)" /></g></svg><text fill="#000000" font-family="Segoe UI" font-size="12" lengthAdjust="spacing" textLength="58" x="372.5" y="399.9492">Integration</text><text fill="#000000" font-family="Segoe UI" font-size="12" lengthAdjust="spacing" textLength="50" x="378" y="415.9102">Accounts</text><!--MD5=[0c881af7adff3fb6f01e09d887480c6c]
entity EventGridSubscriptions--><rect fill="#FFFFFF" height="105.9219" style="stroke:#3C7FC0;stroke-width:1.0;" width="91" x="7.5" y="489"/><svg x="26" y="499"><defs><linearGradient id="a20547e5-d6af-456b-afbc-05d22ff8cb9d" x1="4589.72" y1="-5180.02" x2="4589.72" y2="-5184.21" gradientTransform="matrix(0.5, 0, 0, -0.5, -2275.31, -2589.32)" gradientUnits="userSpaceOnUse"><stop offset="0" stop-color="#c69aeb" /><stop offset="1" stop-color="#6f4bb2" /></linearGradient><linearGradient id="a4745f51-5e75-4126-812d-6bb8a5130e16" x1="4587.99" y1="-5188.47" x2="4587.99" y2="-5192.65" href="#a20547e5-d6af-456b-afbc-05d22ff8cb9d" /></defs><title>Icon-integration-221</title><g transform="scale(3,3)" ><g id="b30b0bd5-e4d2-456b-8d49-c2df20200912"><path id="b51878b5-8d50-4b8b-bc48-74f5f7315a99" d="M12.7,8.15v-.6H8.18L6.06,9.66H4.5L8.12,6h2.47V5.43H7.87L3.65,9.66h-.6v.6H4.86L7,12.37H12.1v-.6H7.22L5.71,10.26H9.38v-.6H6.92l1.5-1.51Z" fill="#32bedd" /><circle id="ad0ed4eb-cd5f-4cc0-bd19-2830d27ec806" cx="9.98" cy="9.96" r="0.87" fill="#fff" /><circle id="a2746b4a-0ae4-4308-876e-5b82657e1872" cx="10.89" cy="5.74" r="0.87" fill="#fff" /><circle id="fc3316e0-7094-4ce0-99ed-43f1e6e4350c" cx="13" cy="7.85" r="0.87" fill="#fff" /><circle id="b5d18443-d50e-4590-8e8f-80b6a7f6d348" cx="12.1" cy="12.07" r="0.87" fill="#fff" /><circle cx="10.86" cy="5.74" r="1.05" fill="#50e6ff" /><circle cx="12.97" cy="7.85" r="1.05" fill="url(#a20547e5-d6af-456b-afbc-05d22ff8cb9d)" /><circle cx="12.1" cy="12.07" r="1.05" fill="url(#a4745f51-5e75-4126-812d-6bb8a5130e16)" /><circle cx="9.98" cy="9.96" r="1.05" fill="#50e6ff" /><g><path d="M1.07,1.43H2.36a0,0,0,0,1,0,0V5a.29.29,0,0,1-.29.29H.79A.29.29,0,0,1,.5,5V2A.57.57,0,0,1,1.07,1.43Z" fill="#999" /><path d="M1.07,1.43H2.36a0,0,0,0,1,0,0V5a.29.29,0,0,1-.29.29H.79A.29.29,0,0,1,.5,5V2A.57.57,0,0,1,1.07,1.43Z" fill="#999" opacity="0.5" /></g><g><path d="M15.64,1.43h1.29A.57.57,0,0,1,17.5,2V5a.29.29,0,0,1-.29.29H15.92A.29.29,0,0,1,15.64,5V1.43A0,0,0,0,1,15.64,1.43Z" fill="#999" /><path d="M15.64,1.43h1.29A.57.57,0,0,1,17.5,2V5a.29.29,0,0,1-.29.29H15.92A.29.29,0,0,1,15.64,5V1.43A0,0,0,0,1,15.64,1.43Z" fill="#999" opacity="0.5" /></g><path d="M8.66-6.16H9.91a0,0,0,0,1,0,0v17a0,0,0,0,1,0,0H8.66a.57.57,0,0,1-.57-.57V-5.6A.57.57,0,0,1,8.66-6.16Z" transform="translate(11.34 -6.66) rotate(90)" fill="#949494" /><g><path d="M.79,12.68H2.08a.29.29,0,0,1,.29.29v3.6a0,0,0,0,1,0,0H1.07A.57.57,0,0,1,.5,16V13A.29.29,0,0,1,.79,12.68Z" fill="#999" /><path d="M.79,12.68H2.08a.29.29,0,0,1,.29.29v3.6a0,0,0,0,1,0,0H1.07A.57.57,0,0,1,.5,16V13A.29.29,0,0,1,.79,12.68Z" fill="#999" opacity="0.5" /></g><g><path d="M15.92,12.68h1.29a.29.29,0,0,1,.29.29v3a.57.57,0,0,1-.57.57H15.64a0,0,0,0,1,0,0V13A.29.29,0,0,1,15.92,12.68Z" fill="#999" /><path d="M15.92,12.68h1.29a.29.29,0,0,1,.29.29v3a.57.57,0,0,1-.57.57H15.64a0,0,0,0,1,0,0V13A.29.29,0,0,1,15.92,12.68Z" fill="#999" opacity="0.5" /></g><path d="M8.66,7.16H9.91a0,0,0,0,1,0,0v17a0,0,0,0,1,0,0H8.66a.57.57,0,0,1-.57-.57V7.73A.57.57,0,0,1,8.66,7.16Z" transform="translate(-6.66 24.66) rotate(-90)" fill="#949494" /></g></g></svg><text fill="#000000" font-family="Segoe UI" font-size="12" lengthAdjust="spacing" textLength="54" x="24.5" y="565.9492">Event Grid</text><text fill="#000000" font-family="Segoe UI" font-size="12" lengthAdjust="spacing" textLength="71" x="17.5" y="581.9102">Subscriptions</text><!--MD5=[3ca97943132d7e4496d36dc74c908322]
link SQLDataWarehouses to PartnerTopic--><!--MD5=[4d4b07086a0ec850870606b6107c907b]
link PartnerTopic to SystemTopic--><!--MD5=[28717eddc3eb24d30ae043c1f96d3569]
link SystemTopic to APIManagementServices--><!--MD5=[1003b261216186dc9b20170714f26460]
link SQLDataWarehouses to LogicApps--><!--MD5=[e4af3dab1eb5935504cf4886f2cbb8ec]
link LogicApps to EventGridTopics--><!--MD5=[0ca6e024f1809c19faf05df50c7cca62]
link EventGridTopics to Relays--><!--MD5=[86ebc84862229fb2601756bbb1308a76]
link Relays to AzureAPIforFHIR--><!--MD5=[ea7640fd76ee6de6db45de7262fbe0ca]
link LogicApps to SoftwareasaService--><!--MD5=[b0da09e3134d81d62e3572f1eb1dc50f]
link SoftwareasaService to EventGridDomains--><!--MD5=[019608852e25554fa507013e8660e219]
link EventGridDomains to AzureDataCatalog--><!--MD5=[8fa3dffd40900dc9b045f861f1f81f09]
link AzureDataCatalog to IntegrationAccounts--><!--MD5=[05689c7165ed3705ddd660e3f736bc2e]
link SoftwareasaService to EventGridSubscriptions--><!--MD5=[24ef668a6a7a838b1028102e67b39611]
@startuml
!pragma revision 1
!include ../../includes/AzureCommon.puml
sprite $SQLDataWarehouses Integration/00036-icon-service-SQL-Data-Warehouses.svg
rectangle "SQL Data Warehouses" <<$SQLDataWarehouses{scale=3}>> as SQLDataWarehouses
sprite $PartnerTopic Integration/02072-icon-service-Partner-Topic.svg
rectangle "Partner Topic" <<$PartnerTopic{scale=3}>> as PartnerTopic
sprite $SystemTopic Integration/02073-icon-service-System-Topic.svg
rectangle "System Topic" <<$SystemTopic{scale=3}>> as SystemTopic
sprite $APIManagementServices Integration/10042-icon-service-API-Management-Services.svg
rectangle "API Management Services" <<$APIManagementServices{scale=3}>> as APIManagementServices
sprite $LogicApps Integration/10201-icon-service-Logic-Apps.svg
rectangle "Logic Apps" <<$LogicApps{scale=3}>> as LogicApps
sprite $EventGridTopics Integration/10206-icon-service-Event-Grid-Topics.svg
rectangle "Event Grid Topics" <<$EventGridTopics{scale=3}>> as EventGridTopics
sprite $Relays Integration/10209-icon-service-Relays.svg
rectangle "Relays" <<$Relays{scale=3}>> as Relays
sprite $AzureAPIforFHIR Integration/10212-icon-service-Azure-API-for-FHIR.svg
rectangle "Azure API for FHIR" <<$AzureAPIforFHIR{scale=3}>> as AzureAPIforFHIR
sprite $SoftwareasaService Integration/10213-icon-service-Software-as-a-Service.svg
rectangle "Software as a Service" <<$SoftwareasaService{scale=3}>> as SoftwareasaService
sprite $EventGridDomains Integration/10215-icon-service-Event-Grid-Domains.svg
rectangle "Event Grid Domains" <<$EventGridDomains{scale=3}>> as EventGridDomains
sprite $AzureDataCatalog Integration/10216-icon-service-Azure-Data-Catalog.svg
rectangle "Azure Data Catalog" <<$AzureDataCatalog{scale=3}>> as AzureDataCatalog
sprite $IntegrationAccounts Integration/10218-icon-service-Integration-Accounts.svg
rectangle "Integration Accounts" <<$IntegrationAccounts{scale=3}>> as IntegrationAccounts
sprite $EventGridSubscriptions Integration/10221-icon-service-Event-Grid-Subscriptions.svg
rectangle "Event Grid Subscriptions" <<$EventGridSubscriptions{scale=3}>> as EventGridSubscriptions
@enduml

@startuml
!pragma revision 1


skinparam defaultTextAlignment center
skinparam defaultFontName Segoe UI
skinparam defaultBackgroundColor white
skinparam RectangleBackgroundColor white
skinparam RectangleBorderColor #3C7FC0
skinparam WrapWidth 100

skinparam rectangle {
    FontSize 12
    BorderThickness 1
    Shadowing false
}
sprite $SQLDataWarehouses Integration/00036-icon-service-SQL-Data-Warehouses.svg
rectangle "SQL Data Warehouses" <<$SQLDataWarehouses{scale=3}>> as SQLDataWarehouses
sprite $PartnerTopic Integration/02072-icon-service-Partner-Topic.svg
rectangle "Partner Topic" <<$PartnerTopic{scale=3}>> as PartnerTopic
sprite $SystemTopic Integration/02073-icon-service-System-Topic.svg
rectangle "System Topic" <<$SystemTopic{scale=3}>> as SystemTopic
sprite $APIManagementServices Integration/10042-icon-service-API-Management-Services.svg
rectangle "API Management Services" <<$APIManagementServices{scale=3}>> as APIManagementServices
sprite $LogicApps Integration/10201-icon-service-Logic-Apps.svg
rectangle "Logic Apps" <<$LogicApps{scale=3}>> as LogicApps
sprite $EventGridTopics Integration/10206-icon-service-Event-Grid-Topics.svg
rectangle "Event Grid Topics" <<$EventGridTopics{scale=3}>> as EventGridTopics
sprite $Relays Integration/10209-icon-service-Relays.svg
rectangle "Relays" <<$Relays{scale=3}>> as Relays
sprite $AzureAPIforFHIR Integration/10212-icon-service-Azure-API-for-FHIR.svg
rectangle "Azure API for FHIR" <<$AzureAPIforFHIR{scale=3}>> as AzureAPIforFHIR
sprite $SoftwareasaService Integration/10213-icon-service-Software-as-a-Service.svg
rectangle "Software as a Service" <<$SoftwareasaService{scale=3}>> as SoftwareasaService
sprite $EventGridDomains Integration/10215-icon-service-Event-Grid-Domains.svg
rectangle "Event Grid Domains" <<$EventGridDomains{scale=3}>> as EventGridDomains
sprite $AzureDataCatalog Integration/10216-icon-service-Azure-Data-Catalog.svg
rectangle "Azure Data Catalog" <<$AzureDataCatalog{scale=3}>> as AzureDataCatalog
sprite $IntegrationAccounts Integration/10218-icon-service-Integration-Accounts.svg
rectangle "Integration Accounts" <<$IntegrationAccounts{scale=3}>> as IntegrationAccounts
sprite $EventGridSubscriptions Integration/10221-icon-service-Event-Grid-Subscriptions.svg
rectangle "Event Grid Subscriptions" <<$EventGridSubscriptions{scale=3}>> as EventGridSubscriptions
@enduml

PlantUML version 1.2021.00(Sun Jan 10 02:25:05 PST 2021)
(GPL source distribution)
Java Runtime: Java(TM) SE Runtime Environment
JVM: Java HotSpot(TM) 64-Bit Server VM
Default Encoding: Cp1252
Language: en
Country: US
--></g></svg>