<svg xmlns="http://www.w3.org/2000/svg" xmlns:xlink="http://www.w3.org/1999/xlink" contentScriptType="application/ecmascript" contentStyleType="text/css" height="300px" preserveAspectRatio="none" style="width:392px;height:300px;" version="1.1" viewBox="0 0 392 300" width="392px" zoomAndPan="magnify"><defs/> --><g><!--MD5=[d2e2aa6328b440c547c62865a0ce2edb]
entity DeviceSecurityApple--><rect fill="#FFFFFF" height="105.9219" style="stroke:#3C7FC0;stroke-width:1.0;" width="103" x="7" y="7"/> --><svg x="31.5" y="17"><defs><linearGradient id="b6e62241-55ab-48cf-9a34-9e0759a89dfd" x1="11.122" y1="13.92" x2="2.751" y2="-0.562" gradientUnits="userSpaceOnUse"><stop offset="0" stop-color="#a33a85"
---

 --><stop offset="0.998" stop-color="#dc92bf"
---

 --></linearGradient></defs><g transform="scale(3,3)"  id="e89679d5-804c-4336-983f-2cbd0b6387ec"><path d="M12.494,7.023c0,4.037-4.969,7.286-6.049,7.945a.4.4,0,0,1-.412,0C4.952,14.309-.016,11.06-.016,7.023V2.167a.389.389,0,0,1,.384-.385C4.232,1.679,3.343.013,6.239.013S8.245,1.679,12.11,1.782a.39.39,0,0,1,.384.385Z" fill="#ce74b6"
---

 --><path d="M11.975,7.065c0,3.7-4.556,6.681-5.547,7.285a.362.362,0,0,1-.378,0C5.059,13.746.5,10.766.5,7.065V2.611a.357.357,0,0,1,.352-.353C4.4,2.164,3.583.636,6.239.636s1.84,1.528,5.384,1.622a.357.357,0,0,1,.352.353Z" fill="url(#b6e62241-55ab-48cf-9a34-9e0759a89dfd)"
---

 --><path d="M6.05,8.645H17.468a.368.368,0,0,1,.388.346v8.676a.368.368,0,0,1-.388.346H6.05a.369.369,0,0,1-.388-.346V8.991A.369.369,0,0,1,6.05,8.645Z" fill="#dc92bf"
---

 --><path d="M6.028,8.645H17.491a.347.347,0,0,1,.365.326h0v1.308H5.662V8.971a.348.348,0,0,1,.366-.326Z" fill="#fff" opacity="0.7"
---

 --><path d="M16.2,13.686H8.669c-.167,0-.3.076-.3.17v.42c0,.094.136.17.3.17H16.2c.168,0,.3-.076.3-.17v-.42C16.5,13.762,16.363,13.686,16.2,13.686Z" fill="#fff" opacity="0.7"
---

 --><path d="M16.2,11.773H8.669c-.167,0-.3.076-.3.17v.42c0,.094.136.17.3.17H16.2c.168,0,.3-.076.3-.17v-.42C16.5,11.849,16.363,11.773,16.2,11.773Z" fill="#fff" opacity="0.7"
---

 --><path d="M16.68,16.286H8.652c-.178,0-.323.081-.323.181v.448c0,.1.145.182.323.182H16.68c.179,0,.324-.081.324-.182v-.448C17,16.367,16.859,16.286,16.68,16.286Z" fill="#fff" opacity="0.7"
---

 --><circle cx="7.118" cy="12.153" r="0.498" fill="#fff" opacity="0.7"
---

 --><circle cx="7.118" cy="14.066" r="0.498" fill="#fff" opacity="0.7"
---

 --><circle cx="6.998" cy="16.691" r="0.531" fill="#fff" opacity="0.7"
---

 --></g></svg><text fill="#000000" font-family="Segoe UI" font-size="12" lengthAdjust="spacing" textLength="80" x="17" y="83.9492">Device Security</text><text fill="#000000" font-family="Segoe UI" font-size="12" lengthAdjust="spacing" textLength="31" x="43" y="99.9102">Apple</text><!--MD5=[5f1489b3705a2d5e986b88c91c767690]
entity DeviceSecurityGoogle--><rect fill="#FFFFFF" height="105.9219" style="stroke:#3C7FC0;stroke-width:1.0;" width="103" x="145" y="7"/> --><svg x="169.5" y="17"><defs><linearGradient id="e1bc122a-5193-4b91-8d10-c94c8a3caf04" x1="11.202" y1="13.906" x2="2.831" y2="-0.576" gradientUnits="userSpaceOnUse"><stop offset="0" stop-color="#5e9624"
---

 --><stop offset="1" stop-color="#b4ec36"
---

 --></linearGradient></defs><g transform="scale(3,3)"  id="f0ccebc5-934d-463a-9e07-8c81671ecf94"><path d="M12.574,7.01c0,4.036-4.969,7.286-6.049,7.945a.4.4,0,0,1-.412,0C5.032,14.3.064,11.046.064,7.01V2.153a.39.39,0,0,1,.384-.385C4.312,1.666,3.423,0,6.319,0S8.325,1.666,12.19,1.768a.39.39,0,0,1,.384.385Z" fill="#86d633"
---

 --><path d="M12.055,7.051c0,3.7-4.556,6.682-5.547,7.286a.366.366,0,0,1-.378,0c-.991-.6-5.547-3.584-5.547-7.286V2.6a.357.357,0,0,1,.352-.353C4.479,2.15,3.663.623,6.319.623S8.159,2.15,11.7,2.244a.357.357,0,0,1,.352.353Z" fill="url(#e1bc122a-5193-4b91-8d10-c94c8a3caf04)"
---

 --><path d="M6.13,8.631H17.548a.369.369,0,0,1,.388.347v8.675a.369.369,0,0,1-.388.347H6.13a.369.369,0,0,1-.388-.347V8.978A.37.37,0,0,1,6.13,8.631Z" fill="#b4ec36"
---

 --><path d="M6.108,8.631H17.571a.348.348,0,0,1,.365.327h0v1.307H5.742V8.958a.349.349,0,0,1,.366-.327Z" fill="#fff" opacity="0.7"
---

 --><path d="M16.275,13.673H8.749c-.167,0-.3.076-.3.17v.42c0,.094.136.17.3.17h7.526c.168,0,.3-.076.3-.17v-.42C16.578,13.749,16.443,13.673,16.275,13.673Z" fill="#fff" opacity="0.7"
---

 --><path d="M16.275,11.759H8.749c-.167,0-.3.076-.3.17v.42c0,.094.136.17.3.17h7.526c.168,0,.3-.076.3-.17v-.42C16.578,11.835,16.443,11.759,16.275,11.759Z" fill="#fff" opacity="0.7"
---

 --><path d="M16.76,16.272H8.733c-.179,0-.324.082-.324.182V16.9c0,.1.145.181.324.181H16.76c.179,0,.324-.081.324-.181v-.448C17.084,16.354,16.939,16.272,16.76,16.272Z" fill="#fff" opacity="0.7"
---

 --><circle cx="7.198" cy="12.139" r="0.498" fill="#fff" opacity="0.7"
---

 --><circle cx="7.198" cy="14.053" r="0.498" fill="#fff" opacity="0.7"
---

 --><circle cx="7.078" cy="16.678" r="0.531" fill="#fff" opacity="0.7"
---

 --></g></svg><text fill="#000000" font-family="Segoe UI" font-size="12" lengthAdjust="spacing" textLength="80" x="155" y="83.9492">Device Security</text><text fill="#000000" font-family="Segoe UI" font-size="12" lengthAdjust="spacing" textLength="38" x="177.5" y="99.9102">Google</text><!--MD5=[375ddbce2994190d9f2529ee8dde14f4]
entity DeviceSecurityWindows--><rect fill="#FFFFFF" height="105.9219" style="stroke:#3C7FC0;stroke-width:1.0;" width="103" x="283" y="7"/> --><svg x="307.5" y="17"><defs><linearGradient id="b34e541a-f267-45a6-9cce-021b15a8536a" x1="11.202" y1="13.906" x2="2.831" y2="-0.576" gradientUnits="userSpaceOnUse"><stop offset="0" stop-color="#0078d4"
---

 --><stop offset="0.998" stop-color="#83b9f9"
---

 --></linearGradient></defs><g transform="scale(3,3)"  id="bac6293a-af63-4cea-ac41-34ab61f3fcef"><path d="M12.574,7.01c0,4.036-4.969,7.286-6.049,7.945a.4.4,0,0,1-.412,0C5.032,14.3.064,11.046.064,7.01V2.153a.39.39,0,0,1,.384-.385C4.312,1.666,3.423,0,6.319,0S8.325,1.666,12.19,1.768a.39.39,0,0,1,.384.385Z" fill="#5ea0ef"
---

 --><path d="M12.055,7.051c0,3.7-4.556,6.682-5.547,7.286a.366.366,0,0,1-.378,0c-.991-.6-5.547-3.584-5.547-7.286V2.6a.357.357,0,0,1,.352-.353C4.479,2.15,3.663.623,6.319.623S8.159,2.15,11.7,2.244a.357.357,0,0,1,.352.353Z" fill="url(#b34e541a-f267-45a6-9cce-021b15a8536a)"
---

 --><path d="M6.13,8.631H17.548a.369.369,0,0,1,.388.347v8.675a.369.369,0,0,1-.388.347H6.13a.369.369,0,0,1-.388-.347V8.978A.37.37,0,0,1,6.13,8.631Z" fill="#83b9f9"
---

 --><path d="M6.108,8.631H17.571a.348.348,0,0,1,.365.327h0v1.307H5.742V8.958a.349.349,0,0,1,.366-.327Z" fill="#fff" opacity="0.7"
---

 --><path d="M16.275,13.673H8.749c-.167,0-.3.076-.3.17v.42c0,.094.136.17.3.17h7.526c.168,0,.3-.076.3-.17v-.42C16.578,13.749,16.443,13.673,16.275,13.673Z" fill="#fff" opacity="0.7"
---

 --><path d="M16.275,11.759H8.749c-.167,0-.3.076-.3.17v.42c0,.094.136.17.3.17h7.526c.168,0,.3-.076.3-.17v-.42C16.578,11.835,16.443,11.759,16.275,11.759Z" fill="#fff" opacity="0.7"
---

 --><path d="M16.76,16.272H8.733c-.179,0-.324.082-.324.182V16.9c0,.1.145.181.324.181H16.76c.179,0,.324-.081.324-.181v-.448C17.084,16.354,16.939,16.272,16.76,16.272Z" fill="#fff" opacity="0.7"
---

 --><circle cx="7.198" cy="12.139" r="0.498" fill="#fff" opacity="0.7"
---

 --><circle cx="7.198" cy="14.053" r="0.498" fill="#fff" opacity="0.7"
---

 --><circle cx="7.078" cy="16.678" r="0.531" fill="#fff" opacity="0.7"
---

 --></g></svg><text fill="#000000" font-family="Segoe UI" font-size="12" lengthAdjust="spacing" textLength="80" x="293" y="83.9492">Device Security</text><text fill="#000000" font-family="Segoe UI" font-size="12" lengthAdjust="spacing" textLength="49" x="310" y="99.9102">Windows</text><!--MD5=[991d4ac1cc4075fdfff2f9462fb8b27f]
entity Intune--><rect fill="#FFFFFF" height="89.9609" style="stroke:#3C7FC0;stroke-width:1.0;" width="74" x="21.5" y="189"/> --><svg x="31.5" y="199"><g transform="scale(3,3)" ><defs><linearGradient id="aaede26b-698f-4a65-b6db-859d207e2da6" x1="8.05" y1="11.32" x2="8.05" y2="1.26" gradientUnits="userSpaceOnUse"><stop offset="0" stop-color="#0078d4"
---

 --><stop offset="0.82" stop-color="#5ea0ef"
---

 --></linearGradient><linearGradient id="bc54987f-34ba-4701-8ce4-6eca10aff9e9" x1="8.05" y1="15.21" x2="8.05" y2="11.32" gradientUnits="userSpaceOnUse"><stop offset="0" stop-color="#1490df"
---

 --><stop offset="0.98" stop-color="#1f56a3"
---

 --></linearGradient><linearGradient id="a5434fd8-c18c-472c-be91-f2aa070858b7" x1="8.05" y1="7.87" x2="8.05" y2="4.94" gradientUnits="userSpaceOnUse"><stop offset="0" stop-color="#d2ebff"
---

 --><stop offset="1" stop-color="#f0fffd"
---

 --></linearGradient></defs><title>Icon-intune-329</title><rect x="0.5" y="1.26" width="15.1" height="10.06" rx="0.5" fill="url(#aaede26b-698f-4a65-b6db-859d207e2da6)"
---

 --><rect x="1.34" y="2.1" width="13.42" height="8.39" rx="0.28" fill="#fff"
---

 --><path d="M11.08,14.37c-1.5-.23-1.56-1.31-1.55-3h-3c0,1.74-.06,2.82-1.55,3a.87.87,0,0,0-.74.84h7.54A.88.88,0,0,0,11.08,14.37Z" fill="url(#bc54987f-34ba-4701-8ce4-6eca10aff9e9)"
---

 --><path d="M17.17,5.91H10.29a2.31,2.31,0,1,0,0,.92H11v9.58a.33.33,0,0,0,.33.33h5.83a.33.33,0,0,0,.33-.33V6.24A.33.33,0,0,0,17.17,5.91Z" fill="#32bedd"
---

 --><rect x="11.62" y="6.82" width="5.27" height="8.7" rx="0.12" fill="#fff"
---

 --><circle cx="8.05" cy="6.41" r="1.46" opacity="0.9" fill="url(#a5434fd8-c18c-472c-be91-f2aa070858b7)"
---

 --><path d="M14.88,10.82,13.76,9.7a.06.06,0,0,0-.1.05v.68a.06.06,0,0,1-.06.06H11v.83H13.6a.06.06,0,0,1,.06.06v.69a.06.06,0,0,0,.1,0L14.88,11A.12.12,0,0,0,14.88,10.82Z" fill="#0078d4"
---

 --></g></svg><text fill="#000000" font-family="Segoe UI" font-size="12" lengthAdjust="spacing" textLength="34" x="41.5" y="265.9492">Intune</text><!--MD5=[b8af3715b7d0846c0a744e417f8085f9]
entity AzureADRolesandAdministrators--><rect fill="#FFFFFF" height="121.8828" style="stroke:#3C7FC0;stroke-width:1.0;" width="103" x="131" y="173"/> --><svg x="155.5" y="183"><g transform="scale(3,3)" ><defs><linearGradient id="e78519cd-36d2-4ee5-987f-be84be24d95e" x1="7.93" y1="17.95" x2="7.93" y2="5.62" gradientUnits="userSpaceOnUse"><stop offset="0" stop-color="#5e9624"
---

 --><stop offset="1" stop-color="#b4ec36"
---

 --></linearGradient><linearGradient id="ac3f95ec-6391-4f34-b431-9534d4cdf013" x1="7.95" y1="9.21" x2="7.95" y2="-2.02" gradientUnits="userSpaceOnUse"><stop offset="0" stop-color="#5e9624"
---

 --><stop offset="1" stop-color="#b4ec36"
---

 --></linearGradient></defs><path d="M14,16.85a1.3,1.3,0,0,0,1.32-1.31.81.81,0,0,0,0-.16c-.52-4.15-2.88-7.53-7.4-7.53S1,10.71.51,15.39A1.34,1.34,0,0,0,1.7,16.85H14Z" fill="url(#e78519cd-36d2-4ee5-987f-be84be24d95e)"
---

 --><path d="M8,8.83a4.16,4.16,0,0,1-2.26-.66L7.92,14l2.22-5.79A4.2,4.2,0,0,1,8,8.83Z" fill="#fff"
---

 --><circle cx="7.95" cy="4.67" r="4.17" fill="url(#ac3f95ec-6391-4f34-b431-9534d4cdf013)"
---

 --><polygon points="17.49 11.13 17.49 15.37 13.85 17.5 13.85 13.26 17.49 11.13" fill="#32bedd"
---

 --><polygon points="17.49 11.13 13.85 13.26 10.21 11.13 13.85 9 17.49 11.13" fill="#9cebff"
---

 --><polygon points="13.85 13.26 13.85 17.5 10.21 15.37 10.21 11.13 13.85 13.26" fill="#50e6ff"
---

 --><polygon points="10.21 15.37 13.85 13.26 13.85 17.5 10.21 15.37" fill="#9cebff"
---

 --><polygon points="17.49 15.37 13.85 13.26 13.85 17.5 17.49 15.37" fill="#50e6ff"
---

 --></g></svg><text fill="#000000" font-family="Segoe UI" font-size="12" lengthAdjust="spacing" textLength="80" x="141" y="249.9492">Azure AD Roles</text><text fill="#000000" font-family="Segoe UI" font-size="12" lengthAdjust="spacing" textLength="20" x="171" y="265.9102">and</text><text fill="#000000" font-family="Segoe UI" font-size="12" lengthAdjust="spacing" textLength="78" x="143.5" y="281.8711">Administrators</text><!--MD5=[1b5da46778b2af667716997b9d4843f1]
entity IntuneForEducation--><rect fill="#FFFFFF" height="105.9219" style="stroke:#3C7FC0;stroke-width:1.0;" width="77" x="269" y="181"/> --><svg x="280.5" y="191"><g transform="scale(3,3)" ><defs><linearGradient id="aaede26b-698f-4a65-b6db-859d207e2da6" x1="8.05" y1="11.32" x2="8.05" y2="1.26" gradientUnits="userSpaceOnUse"><stop offset="0" stop-color="#0078d4"
---

 --><stop offset="0.82" stop-color="#5ea0ef"
---

 --></linearGradient><linearGradient id="bc54987f-34ba-4701-8ce4-6eca10aff9e9" x1="8.05" y1="15.21" x2="8.05" y2="11.32" gradientUnits="userSpaceOnUse"><stop offset="0" stop-color="#1490df"
---

 --><stop offset="0.98" stop-color="#1f56a3"
---

 --></linearGradient><linearGradient id="a5434fd8-c18c-472c-be91-f2aa070858b7" x1="8.05" y1="7.87" x2="8.05" y2="4.94" gradientUnits="userSpaceOnUse"><stop offset="0" stop-color="#d2ebff"
---

 --><stop offset="1" stop-color="#f0fffd"
---

 --></linearGradient></defs><title>Icon-intune-329</title><rect x="0.5" y="1.26" width="15.1" height="10.06" rx="0.5" fill="url(#aaede26b-698f-4a65-b6db-859d207e2da6)"
---

 --><rect x="1.34" y="2.1" width="13.42" height="8.39" rx="0.28" fill="#fff"
---

 --><path d="M11.08,14.37c-1.5-.23-1.56-1.31-1.55-3h-3c0,1.74-.06,2.82-1.55,3a.87.87,0,0,0-.74.84h7.54A.88.88,0,0,0,11.08,14.37Z" fill="url(#bc54987f-34ba-4701-8ce4-6eca10aff9e9)"
---

 --><path d="M17.17,5.91H10.29a2.31,2.31,0,1,0,0,.92H11v9.58a.33.33,0,0,0,.33.33h5.83a.33.33,0,0,0,.33-.33V6.24A.33.33,0,0,0,17.17,5.91Z" fill="#32bedd"
---

 --><rect x="11.62" y="6.82" width="5.27" height="8.7" rx="0.12" fill="#fff"
---

 --><circle cx="8.05" cy="6.41" r="1.46" opacity="0.9" fill="url(#a5434fd8-c18c-472c-be91-f2aa070858b7)"
---

 --><path d="M14.88,10.82,13.76,9.7a.06.06,0,0,0-.1.05v.68a.06.06,0,0,1-.06.06H11v.83H13.6a.06.06,0,0,1,.06.06v.69a.06.06,0,0,0,.1,0L14.88,11A.12.12,0,0,0,14.88,10.82Z" fill="#0078d4"
---

 --></g></svg><text fill="#000000" font-family="Segoe UI" font-size="12" lengthAdjust="spacing" textLength="54" x="279" y="257.9492">Intune For</text><text fill="#000000" font-family="Segoe UI" font-size="12" lengthAdjust="spacing" textLength="53" x="281" y="273.9102">Education</text><!--MD5=[4f53aa0c5edf966f4bf86ed90c0a426a]
link DeviceSecurityApple to DeviceSecurityGoogle--><!--MD5=[9d5516f4fe0a5dafb4b98275792b3d4e]
link DeviceSecurityGoogle to DeviceSecurityWindows--><!--MD5=[64adaf402fb22524775b13bf614dfb33]
link DeviceSecurityApple to Intune--><!--MD5=[2458836615290ce2d9c93c55ebade318]
link Intune to AzureADRolesandAdministrators--><!--MD5=[0f1d758c0911e4eec41083de157531cc]
link AzureADRolesandAdministrators to IntuneForEducation--><!--MD5=[76d0ebd0f033700b7f4338c6bb3c02bd]
@startuml
!pragma revision 1
!include ../../includes/AzureCommon.puml
sprite $DeviceSecurityApple Intune/00399-icon-service-Device-Security-Apple.svg
rectangle "Device Security Apple" <<$DeviceSecurityApple{scale=3}>> as DeviceSecurityApple
sprite $DeviceSecurityGoogle Intune/00399-icon-service-Device-Security-Google.svg
rectangle "Device Security Google" <<$DeviceSecurityGoogle{scale=3}>> as DeviceSecurityGoogle
sprite $DeviceSecurityWindows Intune/00399-icon-service-Device-Security-Windows.svg
rectangle "Device Security Windows" <<$DeviceSecurityWindows{scale=3}>> as DeviceSecurityWindows
sprite $Intune Intune/10329-icon-service-Intune.svg
rectangle "Intune" <<$Intune{scale=3}>> as Intune
sprite $AzureADRolesandAdministrators Intune/10340-icon-service-Azure-AD-Roles-and-Administrators.svg
rectangle "Azure AD Roles and Administrators" <<$AzureADRolesandAdministrators{scale=3}>> as AzureADRolesandAdministrators
sprite $IntuneForEducation Intune/10343-icon-service-Intune-For-Education.svg
rectangle "Intune For Education" <<$IntuneForEducation{scale=3}>> as IntuneForEducation
@enduml

@startuml
!pragma revision 1


skinparam defaultTextAlignment center
skinparam defaultFontName Segoe UI
skinparam defaultBackgroundColor white
skinparam RectangleBackgroundColor white
skinparam RectangleBorderColor #3C7FC0
skinparam WrapWidth 100

skinparam rectangle {
    FontSize 12
    BorderThickness 1
    Shadowing false
}
sprite $DeviceSecurityApple Intune/00399-icon-service-Device-Security-Apple.svg
rectangle "Device Security Apple" <<$DeviceSecurityApple{scale=3}>> as DeviceSecurityApple
sprite $DeviceSecurityGoogle Intune/00399-icon-service-Device-Security-Google.svg
rectangle "Device Security Google" <<$DeviceSecurityGoogle{scale=3}>> as DeviceSecurityGoogle
sprite $DeviceSecurityWindows Intune/00399-icon-service-Device-Security-Windows.svg
rectangle "Device Security Windows" <<$DeviceSecurityWindows{scale=3}>> as DeviceSecurityWindows
sprite $Intune Intune/10329-icon-service-Intune.svg
rectangle "Intune" <<$Intune{scale=3}>> as Intune
sprite $AzureADRolesandAdministrators Intune/10340-icon-service-Azure-AD-Roles-and-Administrators.svg
rectangle "Azure AD Roles and Administrators" <<$AzureADRolesandAdministrators{scale=3}>> as AzureADRolesandAdministrators
sprite $IntuneForEducation Intune/10343-icon-service-Intune-For-Education.svg
rectangle "Intune For Education" <<$IntuneForEducation{scale=3}>> as IntuneForEducation
@enduml

PlantUML version 1.2021.00(Sun Jan 10 02:25:05 PST 2021)
(GPL source distribution)
Java Runtime: Java(TM) SE Runtime Environment
JVM: Java HotSpot(TM) 64-Bit Server VM
Default Encoding: Cp1252
Language: en
Country: US
--></g></svg>