<svg xmlns="http://www.w3.org/2000/svg" xmlns:xlink="http://www.w3.org/1999/xlink" contentScriptType="application/ecmascript" contentStyleType="text/css" height="482px" preserveAspectRatio="none" style="width:529px;height:482px;" version="1.1" viewBox="0 0 529 482" width="529px" zoomAndPan="magnify"><defs/><g><!--MD5=[35f8cd5d1c7f489214952462a7b225b6]
entity EventHubs--><rect fill="#FFFFFF" height="89.9609" style="stroke:#3C7FC0;stroke-width:1.0;" width="80" x="15" y="15"/><svg x="28" y="25"><title>Icon-analytics-144</title><g transform="scale(3,3)" ><g id="a53a4de8-371c-49da-a662-c4631299fc03"><path d="M10.83,8.42a.26.26,0,0,1-.24.27H8.5a.26.26,0,0,1-.27-.24V6.89a.26.26,0,0,1,.24-.27h2.09a.26.26,0,0,1,.27.24V8.42Z" fill="#76bc2d" /><path d="M14.54,10a.26.26,0,0,1-.24.27H12.21a.26.26,0,0,1-.27-.24V8.48a.26.26,0,0,1,.24-.27h2.09a.26.26,0,0,1,.27.24V10Z" fill="#76bc2d" /><path d="M10.83,11.6a.26.26,0,0,1-.24.27H8.5a.26.26,0,0,1-.27-.24V10.07a.26.26,0,0,1,.24-.27h2.09a.26.26,0,0,1,.27.24V11.6Z" fill="#76bc2d" /><path d="M7.12,6.84a.25.25,0,0,1-.23.26H4.74a.26.26,0,0,1-.27-.23V5.25A.26.26,0,0,1,4.71,5H6.8c.22,0,.32.11.32.27Z" fill="#86d633" /><path d="M7.12,10a.25.25,0,0,1-.23.27H4.74A.26.26,0,0,1,4.47,10V8.42a.26.26,0,0,1,.24-.26H6.8c.22,0,.32.11.32.26Z" fill="#76bc2d" /><path d="M7.12,13.19a.25.25,0,0,1-.23.27H4.74a.26.26,0,0,1-.27-.24V11.6a.25.25,0,0,1,.24-.26H6.8c.22,0,.32.1.32.26Z" fill="#76bc2d" /><g><path d="M1.07,1.51H2.36a0,0,0,0,1,0,0v3.6a.29.29,0,0,1-.29.29H.79A.29.29,0,0,1,.5,5.11v-3A.57.57,0,0,1,1.07,1.51Z" fill="#999" /><path d="M1.07,1.51H2.36a0,0,0,0,1,0,0v3.6a.29.29,0,0,1-.29.29H.79A.29.29,0,0,1,.5,5.11v-3A.57.57,0,0,1,1.07,1.51Z" fill="#999" opacity="0.5" /></g><g><path d="M15.64,1.51h1.29a.57.57,0,0,1,.57.57v3a.29.29,0,0,1-.29.29H15.92a.29.29,0,0,1-.29-.29V1.51A0,0,0,0,1,15.64,1.51Z" fill="#999" /><path d="M15.64,1.51h1.29a.57.57,0,0,1,.57.57v3a.29.29,0,0,1-.29.29H15.92a.29.29,0,0,1-.29-.29V1.51A0,0,0,0,1,15.64,1.51Z" fill="#999" opacity="0.5" /></g><path d="M8.66-6.08H9.91a0,0,0,0,1,0,0v17a0,0,0,0,1,0,0H8.66a.57.57,0,0,1-.57-.57V-5.52A.57.57,0,0,1,8.66-6.08Z" transform="translate(11.42 -6.58) rotate(90)" fill="#949494" /><g><path d="M.79,12.76H2.08a.29.29,0,0,1,.29.29v3.6a0,0,0,0,1,0,0H1.07a.57.57,0,0,1-.57-.57V13A.29.29,0,0,1,.79,12.76Z" fill="#999" /><path d="M.79,12.76H2.08a.29.29,0,0,1,.29.29v3.6a0,0,0,0,1,0,0H1.07a.57.57,0,0,1-.57-.57V13A.29.29,0,0,1,.79,12.76Z" fill="#999" opacity="0.5" /></g><g><path d="M15.92,12.76h1.29a.29.29,0,0,1,.29.29v3a.57.57,0,0,1-.57.57H15.64a0,0,0,0,1,0,0V13A.29.29,0,0,1,15.92,12.76Z" fill="#999" /><path d="M15.92,12.76h1.29a.29.29,0,0,1,.29.29v3a.57.57,0,0,1-.57.57H15.64a0,0,0,0,1,0,0V13A.29.29,0,0,1,15.92,12.76Z" fill="#999" opacity="0.5" /></g><path d="M8.66,7.24H9.91a0,0,0,0,1,0,0v17a0,0,0,0,1,0,0H8.66a.57.57,0,0,1-.57-.57V7.81A.57.57,0,0,1,8.66,7.24Z" transform="translate(-6.74 24.74) rotate(-90)" fill="#949494" /></g></g></svg><text fill="#000000" font-family="Segoe UI" font-size="12" lengthAdjust="spacing" textLength="60" x="25" y="91.9492">Event Hubs</text><!--MD5=[6f4f177b0d902bf83ffec0e70e605c88]
entity StreamAnalyticsJobs--><rect fill="#FFFFFF" height="105.9219" style="stroke:#3C7FC0;stroke-width:1.0;" width="111" x="130.5" y="7"/><svg x="159" y="17"><defs><linearGradient id="bf1f93aa-5175-40a2-82a6-8b8653d30d7a" x1="11.08" y1="31.2" x2="11.08" y2="15.71" gradientTransform="translate(0 -14.32) scale(1 0.99)" gradientUnits="userSpaceOnUse"><stop offset="0" stop-color="#949494" /><stop offset="0.33" stop-color="#9b9b9b" /><stop offset="0.82" stop-color="#aeafb0" /><stop offset="1" stop-color="#b6b8b9" /></linearGradient></defs><title>Icon-analytics-147</title><g transform="scale(3,3)" ><path d="M18,9.69V7.9l-.1-.09-1.84-.62L15.59,6l.91-1.88.1-.21L16,3.3l-.7-.69-.24.12-1.8.91L12.05,3.3l-.78-2H9.48l-.09.09L8.77,3.22l-1.26.47-2.08-1L4.15,3.94l.12.24L5.23,6a6,6,0,0,1,3.2-.86A6.26,6.26,0,0,1,12,6.28a3.32,3.32,0,0,1,.36.26l0,0a3.25,3.25,0,0,1,.93,1.35h0A3,3,0,0,1,13.5,9a3.23,3.23,0,0,1-3.25,3.23,3.27,3.27,0,0,1-1.87-.59,6.31,6.31,0,0,1-4,1.75l-.19.39,1.28,1.29L5.73,15,7.53,14l1.24.51.79,2.16h1.8l.07-.25.64-1.91L13.29,14l2.11,1,1.27-1.26-.12-.24-.93-1.79L16,10.46Z" fill="url(#bf1f93aa-5175-40a2-82a6-8b8653d30d7a)" /><path d="M4,10.65H4A3.6,3.6,0,0,1,1.44,9.6.46.46,0,1,1,2.09,9,2.65,2.65,0,0,0,4,9.73H4A2.62,2.62,0,0,0,5.88,9a3.55,3.55,0,0,1,2.55-1A3.64,3.64,0,0,1,11,9a.46.46,0,1,1-.65.65,2.69,2.69,0,0,0-1.89-.78h0a2.61,2.61,0,0,0-1.88.78A3.61,3.61,0,0,1,4,10.65Z" fill="#50e6ff" /><path d="M4,8.82H4A1.79,1.79,0,0,1,2.74,8.3a.46.46,0,0,1,.65-.65A.84.84,0,0,0,4,7.9H4a1.08,1.08,0,0,0,.6-.25,5.46,5.46,0,0,1,7.67,0,.46.46,0,0,1-.65.65,4.55,4.55,0,0,0-6.41,0A1.94,1.94,0,0,1,4,8.82Z" fill="#50e6ff" /><path d="M4,12.48A5.41,5.41,0,0,1,.13,10.89a.47.47,0,0,1,0-.64.47.47,0,0,1,.66,0A4.47,4.47,0,0,0,4,11.57,4.5,4.5,0,0,0,7.2,10.24a1.94,1.94,0,0,1,1.21-.49,1.83,1.83,0,0,1,1.25.52.46.46,0,0,1,0,.65.47.47,0,0,1-.66,0,.83.83,0,0,0-.59-.25h0a1,1,0,0,0-.6.26A5.41,5.41,0,0,1,4,12.48Z" fill="#32bedd" /></g></svg><text fill="#000000" font-family="Segoe UI" font-size="12" lengthAdjust="spacing" textLength="88" x="140.5" y="83.9492">Stream Analytics</text><text fill="#000000" font-family="Segoe UI" font-size="12" lengthAdjust="spacing" textLength="23" x="174.5" y="99.9102">Jobs</text><!--MD5=[b3106fa45e7abae0e9fd04eecb4873e1]
entity FunctionApps--><rect fill="#FFFFFF" height="89.9609" style="stroke:#3C7FC0;stroke-width:1.0;" width="97" x="276.5" y="15"/><svg x="298" y="25"><defs><linearGradient id="b403aca7-f387-4434-96b4-ae157edc835f" x1="-175.993" y1="-343.723" x2="-175.993" y2="-359.232" gradientTransform="translate(212.573 370.548) scale(1.156 1.029)" gradientUnits="userSpaceOnUse"><stop offset="0" stop-color="#fea11b" /><stop offset="0.284" stop-color="#fea51a" /><stop offset="0.547" stop-color="#feb018" /><stop offset="0.8" stop-color="#ffc314" /><stop offset="1" stop-color="#ffd70f" /></linearGradient></defs><title>Icon-compute-29</title><g transform="scale(3,3)" ><path d="M2.37,7.475H3.2a.267.267,0,0,1,.267.267v6.148a.533.533,0,0,1-.533.533H2.1a0,0,0,0,1,0,0V7.741a.267.267,0,0,1,.267-.267Z" transform="translate(12.507 16.705) rotate(134.919)" fill="#50e6ff" /><path d="M2.325,3.6h.833a.267.267,0,0,1,.267.267v6.583a0,0,0,0,1,0,0H2.591a.533.533,0,0,1-.533-.533V3.865A.267.267,0,0,1,2.325,3.6Z" transform="translate(5.759 0.114) rotate(44.919)" fill="#1490df" /></g><g><path d="M14.53,7.475h.833a.533.533,0,0,1,.533.533v6.148a.267.267,0,0,1-.267.267H14.8a.267.267,0,0,1-.267-.267V7.475a0,0,0,0,1,0,0Z" transform="translate(12.223 -7.555) rotate(45.081)" fill="#50e6ff" /><path d="M15.108,3.6h.833a0,0,0,0,1,0,0v6.583a.267.267,0,0,1-.267.267h-.833a.267.267,0,0,1-.267-.267V4.131a.533.533,0,0,1,.533-.533Z" transform="translate(31.022 1.222) rotate(135.081)" fill="#1490df" /></g><path d="M8.459,9.9H4.87a.193.193,0,0,1-.2-.181.166.166,0,0,1,.018-.075L8.991,1.13a.206.206,0,0,1,.186-.106h4.245a.193.193,0,0,1,.2.181.165.165,0,0,1-.035.1L8.534,7.966h4.928a.193.193,0,0,1,.2.181.176.176,0,0,1-.052.122L5.421,16.788c-.077.046-.624.5-.356-.189h0Z" fill="url(#b403aca7-f387-4434-96b4-ae157edc835f)" /></svg><text fill="#000000" font-family="Segoe UI" font-size="12" lengthAdjust="spacing" textLength="77" x="286.5" y="91.9492">Function Apps</text><!--MD5=[a711112f91c457b5159290ddc7a9c995]
entity NotificationHubs--><rect fill="#FFFFFF" height="89.9609" style="stroke:#3C7FC0;stroke-width:1.0;" width="114" x="409" y="15"/><svg x="439" y="25"><defs><linearGradient id="bd9b1662-9bee-4ea8-9cee-787e4ccd4f18" x1="9" y1="0.81" x2="9" y2="21.28" gradientUnits="userSpaceOnUse"><stop offset="0" stop-color="#ffd70f" /><stop offset="0.34" stop-color="#eeb309" /><stop offset="0.77" stop-color="#dc8c03" /><stop offset="1" stop-color="#d57d01" /></linearGradient></defs><title>Icon-web-45</title><g transform="scale(3,3)" ><g><path d="M17.5,2.5V13.33a.58.58,0,0,1-.59.58H12.39a.14.14,0,0,0-.14.14V15.8a.28.28,0,0,1-.45.22L9.08,13.94l-.09,0H1.09a.58.58,0,0,1-.59-.58V2.5a.58.58,0,0,1,.59-.58H16.91A.58.58,0,0,1,17.5,2.5Z" fill="url(#bd9b1662-9bee-4ea8-9cee-787e4ccd4f18)" /><path d="M2.05,9l3,2.52a.29.29,0,0,0,.47-.22v-1.1H17.48V8.5H2.23A.29.29,0,0,0,2.05,9Z" fill="#ffe452" /><path d="M16.24,6.46,13.13,3.94a.29.29,0,0,0-.47.22v1.1H.5V7H16.06A.29.29,0,0,0,16.24,6.46Z" fill="#fff" /></g></g></svg><text fill="#000000" font-family="Segoe UI" font-size="12" lengthAdjust="spacing" textLength="94" x="419" y="91.9492">Notification Hubs</text><!--MD5=[dc8170e8fdfe453b742c7d4a0582df40]
entity TimeSeriesInsightsEnvironments--><rect fill="#FFFFFF" height="121.8828" style="stroke:#3C7FC0;stroke-width:1.0;" width="93" x="8.5" y="173"/><svg x="28" y="183"><defs><linearGradient id="a318d17a-947d-498f-80c1-0e0bae8f5723" x1="8.999" y1="-3108.081" x2="8.999" y2="-3125.919" gradientTransform="matrix(1, 0, 0, -1, 0, -3108)" gradientUnits="userSpaceOnUse"><stop offset="0" stop-color="#b3b2b3" /><stop offset="0.216" stop-color="#afaeaf" /><stop offset="0.44" stop-color="#a2a2a2" /><stop offset="0.577" stop-color="#979797" /></linearGradient></defs><g transform="scale(3,3)"  id="a96c4dc0-0b65-4066-a8fa-5efc74b0b38e"><path d="M.407,6.621a8.914,8.914,0,0,1,17.183,0h-1.7a7.293,7.293,0,0,0-13.789,0Zm15.451,4.863a7.295,7.295,0,0,1-13.718,0H.437a8.914,8.914,0,0,0,17.123,0Z" fill="url(#a318d17a-947d-498f-80c1-0e0bae8f5723)" /><path d="M9.64,13.141,7.5,8.33,6.6,9.885H1.093a.811.811,0,0,1,0-1.622H5.666l2.025-3.5,2.332,5.246L11.4,8.246l5.51.012a.811.811,0,0,1,0,1.622h0l-4.716-.011Z" fill="#50e6ff" /></g></svg><text fill="#000000" font-family="Segoe UI" font-size="12" lengthAdjust="spacing" textLength="59" x="24" y="249.9492">Time Series</text><text fill="#000000" font-family="Segoe UI" font-size="12" lengthAdjust="spacing" textLength="41" x="33" y="265.9102">Insights</text><text fill="#000000" font-family="Segoe UI" font-size="12" lengthAdjust="spacing" textLength="73" x="18.5" y="281.8711">Environments</text><!--MD5=[626f3a442fe3a626625c0ca80a690312]
entity IoTHub--><rect fill="#FFFFFF" height="89.9609" style="stroke:#3C7FC0;stroke-width:1.0;" width="74" x="137" y="189"/><svg x="147" y="199"><defs><linearGradient id="faaeb69b-3035-4577-9cb1-ddd3fba791e3" x1="9.13" y1="18.81" x2="8.85" y2="-8.1" gradientUnits="userSpaceOnUse"><stop offset="0" stop-color="#198ab3" /><stop offset="0" stop-color="#198ab3" /><stop offset="0.09" stop-color="#22a5cb" /><stop offset="0.19" stop-color="#29bade" /><stop offset="0.29" stop-color="#2ec9eb" /><stop offset="0.42" stop-color="#31d1f3" /><stop offset="0.62" stop-color="#32d4f5" /></linearGradient></defs><circle id="fa3a22e9-e4e8-46a1-bc09-f9532747c739" cx="11.4" cy="8.44" r="1.97" fill="#fff" /><circle id="eb214416-6791-4934-ac0c-35afaa829f6e" cx="14.7" cy="14.3" r="1.55" fill="#fff" /><circle id="a4424413-b91f-48da-aedd-39e3a978b430" cx="8.57" cy="13.24" r="1.33" fill="#fff" /><circle id="f7ecfc1a-3268-471b-9464-57023bfc9cc4" cx="7.61" cy="3.11" r="1.65" fill="#fff" /><circle id="b4388938-ad80-41b4-b729-5c21e3eab320" cx="3.19" cy="9.19" r="1.33" fill="#fff" /><polygon points="15.06 13.99 11.73 8.16 11.4 8.35 11.67 8.15 7.9 2.79 7.21 3.29 10.55 8.04 3.15 8.65 3.22 9.51 10.55 8.9 8.12 12.94 8.85 13.38 11.35 9.22 14.32 14.41 15.06 13.99" fill="#949494" /><g transform="scale(3,3)" ><path d="M17.53,1.23h0A.73.73,0,0,0,16.8.5H13a.36.36,0,0,0-.36.36V2.27a.36.36,0,0,0,.36.36h2.35v2.3a.38.38,0,0,0,.37.37h1.4a.38.38,0,0,0,.37-.37V1.23Z" fill="#949494" /><path d="M5,15.37H2.61v-2.3a.38.38,0,0,0-.37-.37H.84a.38.38,0,0,0-.37.37v3.7h0a.73.73,0,0,0,.73.72H5a.36.36,0,0,0,.36-.36V15.73A.36.36,0,0,0,5,15.37Z" fill="#949494" /></g><path d="M11.4,6.49a2,2,0,1,1-2,1.95A2,2,0,0,1,11.4,6.49ZM6,3.11A1.66,1.66,0,1,0,7.62,1.46,1.65,1.65,0,0,0,6,3.11ZM1.86,9.18A1.33,1.33,0,1,0,3.19,7.85,1.33,1.33,0,0,0,1.86,9.18Zm5.38,4.05A1.34,1.34,0,1,0,8.58,11.9,1.33,1.33,0,0,0,7.24,13.23Zm5.92,1.07a1.55,1.55,0,1,0,1.55-1.54A1.53,1.53,0,0,0,13.16,14.3Z" fill="url(#faaeb69b-3035-4577-9cb1-ddd3fba791e3)" /></svg><text fill="#000000" font-family="Segoe UI" font-size="12" lengthAdjust="spacing" textLength="42" x="153" y="265.9492">IoT Hub</text><!--MD5=[ec113c21dd28f8365fc756802de5752b]
entity IoTCentralApplications--><rect fill="#FFFFFF" height="105.9219" style="stroke:#3C7FC0;stroke-width:1.0;" width="86" x="246" y="181"/><svg x="262" y="191"><g transform="scale(3,3)" ><title>Icon-iot-184</title><path d="M9,0,1.15,4.49v3L4.2,9.34V7.54L2.6,6.62V5.38L9,1.68l6.4,3.71v7.18L9,16.27,1.15,11.78v1.68L9,18l7.85-4.49v-9Z" fill="#a3a3a3" /><polygon points="9 0 9 0 1.15 4.49 2.6 5.38 9 1.68 9 1.68 15.4 5.38 16.85 4.49 9 0" fill="#949494" /><polygon points="13.25 6.54 13.25 11.46 9 13.93 9 9.01 13.25 6.54" fill="#32bedd" /><polygon points="13.25 6.54 9 9.01 4.75 6.54 9 4.07 13.25 6.54" fill="#9cebff" /><polygon points="9 9.01 9 13.93 4.75 11.46 4.75 6.54 9 9.01" fill="#50e6ff" /><polygon points="4.75 11.46 9 9.01 9 13.93 4.75 11.46" fill="#9cebff" /><polygon points="13.25 11.46 9 9.01 9 13.93 13.25 11.46" fill="#50e6ff" /></g></svg><text fill="#000000" font-family="Segoe UI" font-size="12" lengthAdjust="spacing" textLength="57" x="259" y="257.9492">IoT Central</text><text fill="#000000" font-family="Segoe UI" font-size="12" lengthAdjust="spacing" textLength="66" x="256" y="273.9102">Applications</text><!--MD5=[ec87ec2864230a89e248f4c202656b54]
entity AzureMapsAccounts--><rect fill="#FFFFFF" height="105.9219" style="stroke:#3C7FC0;stroke-width:1.0;" width="85" x="367.5" y="181"/><svg x="383" y="191"><defs><linearGradient id="b708c95a-acf9-48dc-86e6-fd00deeb187d" x1="9" y1="17.5" x2="9" y2="0.5" gradientUnits="userSpaceOnUse"><stop offset="0" stop-color="#198ab3" /><stop offset="0.442" stop-color="#28b7db" /><stop offset="0.775" stop-color="#32d4f5" /></linearGradient></defs><g transform="scale(3,3)" ><circle cx="9" cy="9" r="8.5" fill="url(#b708c95a-acf9-48dc-86e6-fd00deeb187d)" /><g><path id="aea28990-0f7a-41ea-b630-96207e88670d" d="M10.282,2.757,3.941,12.82,11.88,9.742Z" fill="#9cebff" /><path id="ab7613f7-985d-4b9c-a222-e520a3439041" d="M9,4.79l3.934,9.54L10.282,2.757Z" fill="#fff" opacity="0.7" /><path id="f5bebea7-9a6d-4d44-be76-be804ddf602b" d="M8.772,10.947l2.386-.925,1.776,4.308Z" fill="#32bedd" /></g></g></svg><text fill="#000000" font-family="Segoe UI" font-size="12" lengthAdjust="spacing" textLength="62" x="377.5" y="257.9492">Azure Maps</text><text fill="#000000" font-family="Segoe UI" font-size="12" lengthAdjust="spacing" textLength="50" x="385" y="273.9102">Accounts</text><!--MD5=[8e46bc446ae791723b32dff36ab2ae42]
entity TimeSeriesInsightsEventSources--><rect fill="#FFFFFF" height="121.8828" style="stroke:#3C7FC0;stroke-width:1.0;" width="96" x="7" y="355"/><svg x="28" y="365"><g transform="scale(3,3)" ><defs><linearGradient id="be18c16e-547a-4c25-9f22-b3a89153c17b" x1="9.03" y1="13.38" x2="9.03" y2="4.63" gradientUnits="userSpaceOnUse"><stop offset="0" stop-color="#198ab3" /><stop offset="0.4" stop-color="#25aed3" /><stop offset="0.78" stop-color="#2fcaec" /><stop offset="1" stop-color="#32d4f5" /></linearGradient></defs><rect x="4.65" y="4.63" width="8.75" height="8.75" rx="0.41" fill="url(#be18c16e-547a-4c25-9f22-b3a89153c17b)" /><path d="M7.31,12.53Z" fill="#fff" /><path d="M11.78,12.18l4.38-3.07a.13.13,0,0,0,0-.22L11.78,5.83a.13.13,0,0,0-.21.11V7.7H4.65v2.6h6.92v1.77A.14.14,0,0,0,11.78,12.18Z" fill="#c3f1ff" /><path d="M17,17.6H1a.52.52,0,0,1-.52-.52V.92A.52.52,0,0,1,1,.4H17a.52.52,0,0,1,.52.52V6a.26.26,0,0,1-.41.22l-1-.7a.27.27,0,0,1-.11-.22V2H2.06V16H15.94V12.8a.26.26,0,0,1,.11-.21l1-.73a.26.26,0,0,1,.41.22v5A.52.52,0,0,1,17,17.6Z" fill="#949494" /><path d="M15.94,2V5.25a.27.27,0,0,0,.11.22l1,.7A.26.26,0,0,0,17.5,6V2Z" fill="#767676" /><path d="M15.94,16V12.75a.25.25,0,0,1,.11-.21l1-.71a.27.27,0,0,1,.41.22v4Z" fill="#767676" /></g></svg><text fill="#000000" font-family="Segoe UI" font-size="12" lengthAdjust="spacing" textLength="59" x="24" y="431.9492">Time Series</text><text fill="#000000" font-family="Segoe UI" font-size="12" lengthAdjust="spacing" textLength="73" x="17" y="447.9102">Insights Event</text><text fill="#000000" font-family="Segoe UI" font-size="12" lengthAdjust="spacing" textLength="41" x="34.5" y="463.8711">Sources</text><!--MD5=[d86f3688527373ac508ddf728afb93a2]
entity LogicApps--><rect fill="#FFFFFF" height="89.9609" style="stroke:#3C7FC0;stroke-width:1.0;" width="79" x="138.5" y="371"/><svg x="151" y="381"><defs><linearGradient id="e20ae4ca-8128-4625-bcc6-863bc1bc51d9" x1="5.05" y1="10.55" x2="5.05" y2="13.48" gradientUnits="userSpaceOnUse"><stop offset="0" stop-color="#76bc2d" /><stop offset="1" stop-color="#5e9624" /></linearGradient><linearGradient id="b6fa89de-29eb-462e-97de-5bdbdaeb090e" x1="12.84" y1="10.57" x2="12.84" y2="13.5" gradientUnits="userSpaceOnUse"><stop offset="0" stop-color="#76bc2d" /><stop offset="1" stop-color="#5e9624" /></linearGradient></defs><title>Icon-integration-204</title><g transform="scale(3,3)" ><path d="M3.19,15.6a2.49,2.49,0,0,1-1.53-.38,1.7,1.7,0,0,1-.45-1.36V10.33c0-.58-.23-.89-.71-.89V8.56c.48,0,.71-.31.71-.92V4.17a1.79,1.79,0,0,1,.45-1.39A2.29,2.29,0,0,1,3.19,2.4v.89c-.51,0-.79.27-.79.85v3.4c0,.78-.23,1.26-.74,1.46a1.42,1.42,0,0,1,.74,1.46v3.37a1.25,1.25,0,0,0,.17.68.74.74,0,0,0,.58.2l0,.89Z" fill="#949494" /><path d="M14.81,2.4a2.49,2.49,0,0,1,1.53.38,1.7,1.7,0,0,1,.45,1.36V7.67c0,.58.23.89.71.89v.88c-.48,0-.71.31-.71.92v3.43a1.8,1.8,0,0,1-.45,1.4,2.28,2.28,0,0,1-1.53.41v-.89c.51,0,.79-.27.79-.85v-3.4c0-.78.23-1.26.74-1.46a1.42,1.42,0,0,1-.74-1.46V4.17a1.25,1.25,0,0,0-.17-.68.74.74,0,0,0-.58-.2Z" fill="#949494" /><path d="M9.41,8.35V7.08h-.9V8.35a.18.18,0,0,1-.18.18H5a.36.36,0,0,0-.36.36v1.65h.9V9.63a.18.18,0,0,1,.17-.18h6.54a.18.18,0,0,1,.18.18v.93h.89V8.89a.36.36,0,0,0-.35-.36H9.59A.18.18,0,0,1,9.41,8.35Z" fill="#005ba1" /><path d="M10.61,3.21H7.25a.38.38,0,0,0-.38.37V6.94a.37.37,0,0,0,.38.37h3.36A.37.37,0,0,0,11,6.94V3.58A.38.38,0,0,0,10.61,3.21Zm-.32,3.17a.25.25,0,0,1-.25.24H7.81a.25.25,0,0,1-.25-.24V4.15a.25.25,0,0,1,.25-.25H10a.25.25,0,0,1,.25.25Z" fill="#0078d4" /><rect x="3.58" y="10.55" width="2.94" height="2.94" rx="0.27" fill="url(#e20ae4ca-8128-4625-bcc6-863bc1bc51d9)" /><rect x="11.38" y="10.57" width="2.94" height="2.94" rx="0.27" fill="url(#b6fa89de-29eb-462e-97de-5bdbdaeb090e)" /></g></svg><text fill="#000000" font-family="Segoe UI" font-size="12" lengthAdjust="spacing" textLength="59" x="148.5" y="447.9492">Logic Apps</text><!--MD5=[152eed715747953ef62b7b1aeabafe03]
entity DeviceProvisioningServices--><rect fill="#FFFFFF" height="121.8828" style="stroke:#3C7FC0;stroke-width:1.0;" width="89" x="252.5" y="355"/><svg x="270" y="365"><defs><linearGradient id="a2ce308d-2865-4d56-bfb4-da21e9e9e552" x1="8.992" y1="16.975" x2="8.992" y2="0.242" gradientUnits="userSpaceOnUse"><stop offset="0" stop-color="#b3b2b3" /><stop offset="0.31" stop-color="#9e9e9e" /><stop offset="0.54" stop-color="#949494" /></linearGradient></defs><g transform="scale(3,3)" ><circle cx="10.1" cy="8.05" r="1.43" fill="#fff" /><circle cx="12.5" cy="12.31" r="1.12" fill="#fff" /><circle cx="8.04" cy="11.54" r="0.97" fill="#fff" /><circle cx="7.35" cy="4.18" r="1.2" fill="#fff" /><circle cx="4.13" cy="8.59" r="0.97" fill="#fff" /></g><path d="M12.76,12.08,10.34,7.85l-.24.13.2-.14L7.56,3.94l-.5.36L9.49,7.75,4.11,8.2l.05.62,5.33-.45L7.72,11.31l.53.32,1.82-3.02,2.16,3.77.54-.3Z" fill="#989898" /><g><circle cx="10.09" cy="8.06" r="1.42" fill="#32bedd" /><circle cx="7.35" cy="4.18" r="1.2" fill="#32bedd" /><circle cx="4.13" cy="8.59" r="0.97" fill="#32bedd" /><circle cx="8.04" cy="11.54" r="0.97" fill="#32bedd" /><circle cx="12.5" cy="12.31" r="1.12" fill="#32bedd" /></g><circle cx="15.05" cy="3.85" r="1.42" fill="#198ab3" /><circle cx="3.17" cy="3.85" r="1.42" fill="#198ab3" /><circle cx="9.01" cy="16.33" r="1.42" fill="#198ab3" /><path d="M4.94,3.12a6.881,6.881,0,0,1,8.29.12,1.918,1.918,0,0,1,1-1.15A8.431,8.431,0,0,0,3.81,2,1.941,1.941,0,0,1,4.94,3.12ZM16.6,5a1.91,1.91,0,0,1-1.34.76,6.842,6.842,0,0,1,.67,3,6.92,6.92,0,0,1-5.22,6.7,1.871,1.871,0,0,1,.24.91,1.765,1.765,0,0,1-.13.65A8.45,8.45,0,0,0,16.59,5ZM7.1,16.32a1.95,1.95,0,0,1,.23-.9A6.909,6.909,0,0,1,2.77,5.73a2,2,0,0,1-1-.53,1.676,1.676,0,0,1-.3-.4A8.47,8.47,0,0,0,7.21,17a1.926,1.926,0,0,1-.12-.68Z" fill="url(#a2ce308d-2865-4d56-bfb4-da21e9e9e552)" /></svg><text fill="#000000" font-family="Segoe UI" font-size="12" lengthAdjust="spacing" textLength="35" x="278" y="431.9492">Device</text><text fill="#000000" font-family="Segoe UI" font-size="12" lengthAdjust="spacing" textLength="66" x="262.5" y="447.9102">Provisioning</text><text fill="#000000" font-family="Segoe UI" font-size="12" lengthAdjust="spacing" textLength="42" x="276" y="463.8711">Services</text><!--MD5=[45475483cfa5f093479bbb4ba24812cd]
link EventHubs to StreamAnalyticsJobs--><!--MD5=[e40a88d72568c648eab6fcb31320924d]
link StreamAnalyticsJobs to FunctionApps--><!--MD5=[0cf263911d6de6395ea498ff7d9387e7]
link FunctionApps to NotificationHubs--><!--MD5=[ad81e3ccd907849872d7a4ce13b3856a]
link EventHubs to TimeSeriesInsightsEnvironments--><!--MD5=[9757f19830c6045e65a56ba0beaba140]
link TimeSeriesInsightsEnvironments to IoTHub--><!--MD5=[8303d459441dbde13782bd8810d1e330]
link IoTHub to IoTCentralApplications--><!--MD5=[af798f66b084bcb6f5cb79d9031e9499]
link IoTCentralApplications to AzureMapsAccounts--><!--MD5=[0094fa7e9475234f8ed218c76a958fdb]
link TimeSeriesInsightsEnvironments to TimeSeriesInsightsEventSources--><!--MD5=[47df572c030839bacfee9fe78eccc599]
link TimeSeriesInsightsEventSources to LogicApps--><!--MD5=[02a6ef7c3eeb28057ba6fd591041cbe5]
link LogicApps to DeviceProvisioningServices--><!--MD5=[6b78830fc1271a43648d8cb23599c87f]
@startuml
!pragma revision 1
!include ../../includes/AzureCommon.puml
sprite $EventHubs IoT/00039-icon-service-Event-Hubs.svg
rectangle "Event Hubs" <<$EventHubs{scale=3}>> as EventHubs
sprite $StreamAnalyticsJobs IoT/00042-icon-service-Stream-Analytics-Jobs.svg
rectangle "Stream Analytics Jobs" <<$StreamAnalyticsJobs{scale=3}>> as StreamAnalyticsJobs
sprite $FunctionApps IoT/10029-icon-service-Function-Apps.svg
rectangle "Function Apps" <<$FunctionApps{scale=3}>> as FunctionApps
sprite $NotificationHubs IoT/10045-icon-service-Notification-Hubs.svg
rectangle "Notification Hubs" <<$NotificationHubs{scale=3}>> as NotificationHubs
sprite $TimeSeriesInsightsEnvironments IoT/10181-icon-service-Time-Series-Insights-Environments.svg
rectangle "Time Series Insights Environments" <<$TimeSeriesInsightsEnvironments{scale=3}>> as TimeSeriesInsightsEnvironments
sprite $IoTHub IoT/10182-icon-service-IoT-Hub.svg
rectangle "IoT Hub" <<$IoTHub{scale=3}>> as IoTHub
sprite $IoTCentralApplications IoT/10184-icon-service-IoT-Central-Applications.svg
rectangle "IoT Central Applications" <<$IoTCentralApplications{scale=3}>> as IoTCentralApplications
sprite $AzureMapsAccounts IoT/10185-icon-service-Azure-Maps-Accounts.svg
rectangle "Azure Maps Accounts" <<$AzureMapsAccounts{scale=3}>> as AzureMapsAccounts
sprite $TimeSeriesInsightsEventSources IoT/10188-icon-service-Time-Series-Insights-Event-Sources.svg
rectangle "Time Series Insights Event Sources" <<$TimeSeriesInsightsEventSources{scale=3}>> as TimeSeriesInsightsEventSources
sprite $LogicApps IoT/10201-icon-service-Logic-Apps.svg
rectangle "Logic Apps" <<$LogicApps{scale=3}>> as LogicApps
sprite $DeviceProvisioningServices IoT/10369-icon-service-Device-Provisioning-Services.svg
rectangle "Device Provisioning Services" <<$DeviceProvisioningServices{scale=3}>> as DeviceProvisioningServices
@enduml

@startuml
!pragma revision 1


skinparam defaultTextAlignment center
skinparam defaultFontName Segoe UI
skinparam defaultBackgroundColor white
skinparam RectangleBackgroundColor white
skinparam RectangleBorderColor #3C7FC0
skinparam WrapWidth 100

skinparam rectangle {
    FontSize 12
    BorderThickness 1
    Shadowing false
}
sprite $EventHubs IoT/00039-icon-service-Event-Hubs.svg
rectangle "Event Hubs" <<$EventHubs{scale=3}>> as EventHubs
sprite $StreamAnalyticsJobs IoT/00042-icon-service-Stream-Analytics-Jobs.svg
rectangle "Stream Analytics Jobs" <<$StreamAnalyticsJobs{scale=3}>> as StreamAnalyticsJobs
sprite $FunctionApps IoT/10029-icon-service-Function-Apps.svg
rectangle "Function Apps" <<$FunctionApps{scale=3}>> as FunctionApps
sprite $NotificationHubs IoT/10045-icon-service-Notification-Hubs.svg
rectangle "Notification Hubs" <<$NotificationHubs{scale=3}>> as NotificationHubs
sprite $TimeSeriesInsightsEnvironments IoT/10181-icon-service-Time-Series-Insights-Environments.svg
rectangle "Time Series Insights Environments" <<$TimeSeriesInsightsEnvironments{scale=3}>> as TimeSeriesInsightsEnvironments
sprite $IoTHub IoT/10182-icon-service-IoT-Hub.svg
rectangle "IoT Hub" <<$IoTHub{scale=3}>> as IoTHub
sprite $IoTCentralApplications IoT/10184-icon-service-IoT-Central-Applications.svg
rectangle "IoT Central Applications" <<$IoTCentralApplications{scale=3}>> as IoTCentralApplications
sprite $AzureMapsAccounts IoT/10185-icon-service-Azure-Maps-Accounts.svg
rectangle "Azure Maps Accounts" <<$AzureMapsAccounts{scale=3}>> as AzureMapsAccounts
sprite $TimeSeriesInsightsEventSources IoT/10188-icon-service-Time-Series-Insights-Event-Sources.svg
rectangle "Time Series Insights Event Sources" <<$TimeSeriesInsightsEventSources{scale=3}>> as TimeSeriesInsightsEventSources
sprite $LogicApps IoT/10201-icon-service-Logic-Apps.svg
rectangle "Logic Apps" <<$LogicApps{scale=3}>> as LogicApps
sprite $DeviceProvisioningServices IoT/10369-icon-service-Device-Provisioning-Services.svg
rectangle "Device Provisioning Services" <<$DeviceProvisioningServices{scale=3}>> as DeviceProvisioningServices
@enduml

PlantUML version 1.2021.00(Sun Jan 10 02:25:05 PST 2021)
(GPL source distribution)
Java Runtime: Java(TM) SE Runtime Environment
JVM: Java HotSpot(TM) 64-Bit Server VM
Default Encoding: Cp1252
Language: en
Country: US
--></g></svg>