<svg xmlns="http://www.w3.org/2000/svg" xmlns:xlink="http://www.w3.org/1999/xlink" contentScriptType="application/ecmascript" contentStyleType="text/css" height="450px" preserveAspectRatio="none" style="width:520px;height:450px;" version="1.1" viewBox="0 0 520 450" width="520px" zoomAndPan="magnify"><defs/><g><!--MD5=[45e2b5f4c9af21abdb3263cb653938c4]
entity WindowsVirtualDesktop--><rect fill="#FFFFFF" height="105.9219" style="stroke:#3C7FC0;stroke-width:1.0;" width="109" x="7" y="7"/><svg x="34.5" y="17"><defs><radialGradient id="e9a2b8bf-efad-4e15-89f0-635373400131" cx="9" cy="9" r="8.5" gradientUnits="userSpaceOnUse"><stop offset="0" stop-color="#198ab3" /><stop offset="0.382" stop-color="#1a8cb5" /><stop offset="0.576" stop-color="#1c94bc" /><stop offset="0.727" stop-color="#21a1c8" /><stop offset="0.856" stop-color="#27b4d8" /><stop offset="0.97" stop-color="#2fccee" /><stop offset="1" stop-color="#32d4f5" /></radialGradient></defs><g transform="scale(3,3)"  id="faeec9e4-44b9-413a-8332-867d334dcda2"><g><circle cx="9" cy="9" r="8.5" fill="url(#e9a2b8bf-efad-4e15-89f0-635373400131)" /><circle cx="9" cy="9" r="7.321" fill="#005ba1" /></g><g><path d="M9.1,9.937,6.266,7.125a.507.507,0,0,0-.709,0L5.2,7.48a.469.469,0,0,0-.143.337.476.476,0,0,0,.141.339l2.132,2.122L5.152,12.441a.473.473,0,0,0,0,.676l.361.355a.507.507,0,0,0,.709,0L9.1,10.612a.475.475,0,0,0,.141-.338A.468.468,0,0,0,9.1,9.937Z" fill="#f2f2f2" /><path d="M8.755,7.678a.475.475,0,0,0,.141.338l2.88,2.859a.507.507,0,0,0,.709,0l.361-.356a.469.469,0,0,0,.143-.337.475.475,0,0,0-.141-.338L10.674,7.682l2.132-2.123a.475.475,0,0,0,.141-.338.469.469,0,0,0-.143-.337l-.361-.356a.507.507,0,0,0-.709,0L8.9,7.34A.472.472,0,0,0,8.755,7.678Z" fill="#f2f2f2" /></g></g></svg><text fill="#000000" font-family="Segoe UI" font-size="12" lengthAdjust="spacing" textLength="86" x="17" y="83.9492">Windows Virtual</text><text fill="#000000" font-family="Segoe UI" font-size="12" lengthAdjust="spacing" textLength="43" x="40" y="99.9102">Desktop</text><!--MD5=[8810074943ac8d26fcf290268df6230a]
entity Detonation--><rect fill="#FFFFFF" height="89.9609" style="stroke:#3C7FC0;stroke-width:1.0;" width="79" x="151" y="15"/><svg x="163.5" y="25"><g transform="scale(3,3)" ><defs><linearGradient id="ff57b96a-66a9-4db3-80f9-889db4cc343d" x1="10.646" y1="12.18" x2="10.646" y2="1.846" gradientUnits="userSpaceOnUse"><stop offset="0" stop-color="#005ba1" /><stop offset="0.192" stop-color="#1e71b5" /><stop offset="0.567" stop-color="#5598da" /><stop offset="0.848" stop-color="#76b0f0" /><stop offset="1" stop-color="#83b9f9" /></linearGradient></defs><circle cx="10.646" cy="7.013" r="5.167" fill="#fff" /><rect x="-0.293" y="12.617" width="9.59" height="2.184" rx="1.021" transform="translate(-8.375 7.198) rotate(-45)" fill="#767676" /><circle cx="10.659" cy="7.13" r="6.579" fill="#a3a3a3" /><circle cx="10.646" cy="7.013" r="5.167" fill="url(#ff57b96a-66a9-4db3-80f9-889db4cc343d)" /><path d="M14.55,5.973a1.575,1.575,0,1,1-2.952,1.1Z" fill="#f2f2f2" /><path d="M9.7,7.073a1.575,1.575,0,0,1-2.952-1.1Z" fill="#f2f2f2" /></g></svg><text fill="#000000" font-family="Segoe UI" font-size="12" lengthAdjust="spacing" textLength="59" x="161" y="91.9492">Detonation</text><!--MD5=[e4f611088526c7d86e9591186e33e5b8]
entity SSHKeys--><rect fill="#FFFFFF" height="89.9609" style="stroke:#3C7FC0;stroke-width:1.0;" width="74" x="265.5" y="15"/><svg x="275.5" y="25"><defs><linearGradient id="eafc57a1-d419-432d-b0ed-435130422d7a" x1="9" y1="13.704" x2="9" y2="1.277" gradientUnits="userSpaceOnUse"><stop offset="0" stop-color="#0078d4" /><stop offset="0.817" stop-color="#5ea0ef" /></linearGradient><linearGradient id="a5a126a8-9900-4198-8d5d-2409233cbc74" x1="8.999" y1="16.723" x2="8.999" y2="4.174" gradientUnits="userSpaceOnUse"><stop offset="0" stop-color="#32bedd" /><stop offset="0.113" stop-color="#3ccce9" /><stop offset="0.292" stop-color="#47dbf5" /><stop offset="0.504" stop-color="#4ee3fd" /><stop offset="0.834" stop-color="#50e6ff" /></linearGradient></defs><g transform="scale(3,3)"  id="ae919516-4173-4e1b-b256-974218cbe15b"><g><path d="M17.767,9.812a3.941,3.941,0,0,0-3.419-3.787A4.965,4.965,0,0,0,9.234,1.277,5.094,5.094,0,0,0,4.366,4.6,4.7,4.7,0,0,0,.233,9.12,4.771,4.771,0,0,0,5.17,13.7c.147,0,.292-.007.435-.018H13.6a.822.822,0,0,0,.211-.032A3.987,3.987,0,0,0,17.767,9.812Z" fill="url(#eafc57a1-d419-432d-b0ed-435130422d7a)" /><path id="edcc7516-234e-4bfe-ace6-d3c29e9e8ef2" d="M12.5,9.127a1.446,1.446,0,0,0,0-2.041h0L10.017,4.6a1.437,1.437,0,0,0-2.036,0h0L5.5,7.086a1.446,1.446,0,0,0,0,2.041L7.565,11.2a.4.4,0,0,1,.118.286v3.85a.492.492,0,0,0,.144.348l.941.944a.325.325,0,0,0,.461,0l.913-.915V15.7l.538-.538a.188.188,0,0,0,0-.266l-.387-.389a.205.205,0,0,1,0-.29l.387-.389a.187.187,0,0,0,0-.266l-.387-.389a.205.205,0,0,1,0-.29l.388-.389a.189.189,0,0,0,0-.266l-.539-.541v-.2ZM9,5.2a.82.82,0,1,1-.817.819A.817.817,0,0,1,9,5.2Z" fill="url(#a5a126a8-9900-4198-8d5d-2409233cbc74)" /><path id="ba4c21bb-4a83-40a1-8204-81b9b545866c" d="M8.353,15.418h0a.176.176,0,0,0,.3-.134V12.168a.186.186,0,0,0-.081-.154h0a.176.176,0,0,0-.272.154v3.116A.186.186,0,0,0,8.353,15.418Z" fill="#0078d4" opacity="0.75" /><path id="b1b257e5-26b0-4209-80fd-7809752c5ce2" d="M7.23,7.916h3.642a.22.22,0,0,1,.22.22v.042a.22.22,0,0,1-.22.22H7.23a.22.22,0,0,1-.22-.22V8.137a.221.221,0,0,1,.221-.221Z" fill="#0078d4" opacity="0.75" /><path id="e30c1f38-cc79-4ca3-a4d8-0bde3ab49628" d="M7.23,8.7h3.642a.22.22,0,0,1,.22.22v.041a.221.221,0,0,1-.221.221H7.23a.22.22,0,0,1-.22-.22V8.921A.221.221,0,0,1,7.23,8.7Z" fill="#0078d4" opacity="0.75" /></g></g></svg><text fill="#000000" font-family="Segoe UI" font-size="12" lengthAdjust="spacing" textLength="48" x="278.5" y="91.9492">SSH Keys</text><!--MD5=[d62dadbf778b313e78e1235471313dce]
entity InternetAnalyzerProfiles--><rect fill="#FFFFFF" height="105.9219" style="stroke:#3C7FC0;stroke-width:1.0;" width="112" x="374.5" y="7"/><svg x="403.5" y="17"><defs><linearGradient id="bd6e50c9-d5a4-4e74-abad-3b4ae921495e" x1="8.693" y1="12.726" x2="8.693" y2="0.705" gradientUnits="userSpaceOnUse"><stop offset="0" stop-color="#0078d4" /><stop offset="0.105" stop-color="#1480da" /><stop offset="0.306" stop-color="#348ee3" /><stop offset="0.5" stop-color="#4b98ea" /><stop offset="0.682" stop-color="#599eee" /><stop offset="0.84" stop-color="#5ea0ef" /></linearGradient></defs><title>Icon-469-Internet-Analyzer</title><g transform="scale(3,3)"  id="b4e13e5d-9325-4dd7-a191-90f94b60adf1" /><g><rect width="18" height="18" fill="none" /><rect width="18" height="18" fill="none" /><g><path d="M17.173,8.961A3.811,3.811,0,0,0,13.866,5.3,4.8,4.8,0,0,0,8.919.705,4.926,4.926,0,0,0,4.211,3.916a4.547,4.547,0,0,0-4,4.375,4.615,4.615,0,0,0,4.776,4.435c.141,0,.281-.007.42-.018h7.734a.769.769,0,0,0,.2-.031A3.855,3.855,0,0,0,17.173,8.961Z" fill="url(#bd6e50c9-d5a4-4e74-abad-3b4ae921495e)" /><circle cx="9.101" cy="6.379" r="1.318" fill="#fff" /><ellipse cx="12.693" cy="7.698" rx="1.057" ry="1.062" fill="#fff" /><circle cx="10.419" cy="3.615" r="0.738" fill="#fff" /><g><path d="M17.442,17.3h-8.7c-.277,0-.44-.443-.283-.671l3-4.369a.351.351,0,0,0,.061-.2V9.172A.173.173,0,0,0,11.346,9h-.161a.344.344,0,0,1-.344-.344V8.5a.344.344,0,0,1,.344-.344H15a.344.344,0,0,1,.344.344v.155A.344.344,0,0,1,15,9h-.161a.172.172,0,0,0-.172.172v2.895a.339.339,0,0,0,.061.2l3,4.362C17.883,16.852,17.719,17.3,17.442,17.3Z" fill="#50e6ff" /><path d="M9.746,16.128l2.277-3.32a.827.827,0,0,0,.146-.471V11a.265.265,0,0,1,.265-.265h1.292a.265.265,0,0,1,.265.265v1.428a.553.553,0,0,0,.1.317l2.325,3.383a.2.2,0,0,1-.163.311H9.909A.2.2,0,0,1,9.746,16.128Z" fill="#fff" /><path d="M11.949,15.034l.463,1.072a.066.066,0,0,0,.124-.005l.484-1.435a.066.066,0,0,1,.122-.01l.394.751a.067.067,0,0,0,.116,0l.526-.889a.066.066,0,0,1,.058-.033h1.057l-.215-.311a.066.066,0,0,0-.055-.029h-.981a.067.067,0,0,0-.058.032l-.314.532a.066.066,0,0,1-.116,0l-.481-.915a.066.066,0,0,0-.122.01L12.5,15.152a.066.066,0,0,1-.124.005l-.387-.9a.066.066,0,0,0-.119,0l-.549,1a.067.067,0,0,1-.059.034h-.9a.068.068,0,0,0-.055.029l-.214.311H11.46a.067.067,0,0,0,.059-.034l.311-.565A.066.066,0,0,1,11.949,15.034Z" fill="#86d633" /></g></g></g></svg><text fill="#000000" font-family="Segoe UI" font-size="12" lengthAdjust="spacing" textLength="89" x="384.5" y="83.9492">Internet Analyzer</text><text fill="#000000" font-family="Segoe UI" font-size="12" lengthAdjust="spacing" textLength="39" x="411" y="99.9102">Profiles</text><!--MD5=[dcb7240a8fbb35cc61ba0fd2a822c48c]
entity UniversalPrint--><rect fill="#FFFFFF" height="89.9609" style="stroke:#3C7FC0;stroke-width:1.0;" width="96" x="13.5" y="181"/><svg x="34.5" y="191"><defs><linearGradient id="f10037e5-08de-4fde-88a0-a5111932c8f6" x1="8.991" y1="14.11" x2="8.991" y2="1.365" gradientUnits="userSpaceOnUse"><stop offset="0" stop-color="#773adc" /><stop offset="0.817" stop-color="#a67af4" /></linearGradient><linearGradient id="a611bbc8-9cc4-4056-894f-1a6a87216432" x1="12.253" y1="4.246" x2="12.253" y2="9.797" gradientUnits="userSpaceOnUse"><stop offset="0" stop-color="#c3f1ff" /><stop offset="0.999" stop-color="#9cebff" /></linearGradient><linearGradient id="eda6497f-9c76-477d-ab72-569c0508aebb" x1="12.253" y1="16.635" x2="12.253" y2="12.512" gradientUnits="userSpaceOnUse"><stop offset="0" stop-color="#c3f1ff" /><stop offset="0.999" stop-color="#9cebff" /></linearGradient></defs><g transform="scale(3,3)"  id="afb37d11-6e90-4ac0-b9c9-249fa60649c5"><path d="M17.982,10.118c0-.818-1.193-1.087-1.652-1.717-.632-.867-.7-1.977-1.855-2.166a5.091,5.091,0,0,0-5.244-4.87,5.225,5.225,0,0,0-4.993,3.4A4.822,4.822,0,0,0,0,9.408a4.893,4.893,0,0,0,5.063,4.7c.151,0,.3-.007.446-.019h8.2a.811.811,0,0,0,.216-.032A4.089,4.089,0,0,0,17.982,10.118Z" fill="url(#f10037e5-08de-4fde-88a0-a5111932c8f6)" /><rect x="7.664" y="6.553" width="9.178" height="3.679" rx="0.3" fill="#005ba1" /><rect x="8.57" y="4.246" width="7.367" height="5.55" rx="0.3" fill="url(#a611bbc8-9cc4-4056-894f-1a6a87216432)" /><path d="M7.106,8.18H17.4a.6.6,0,0,1,.6.6v6.1a0,0,0,0,1,0,0H6.507a0,0,0,0,1,0,0v-6.1A.6.6,0,0,1,7.106,8.18Z" fill="#5ea0ef" /><rect x="6.507" y="14.093" width="11.493" height="1.02" fill="#0078d4" /><rect x="7.997" y="12.305" width="8.509" height="1.192" rx="0.3" fill="#83b9f9" /><circle cx="16.045" cy="10.082" r="0.285" fill="#c3f1ff" /><path d="M8.57,12.512h7.367a0,0,0,0,1,0,0v3.823a.3.3,0,0,1-.3.3H8.869a.3.3,0,0,1-.3-.3V12.512A0,0,0,0,1,8.57,12.512Z" fill="url(#eda6497f-9c76-477d-ab72-569c0508aebb)" /></g></svg><text fill="#000000" font-family="Segoe UI" font-size="12" lengthAdjust="spacing" textLength="76" x="23.5" y="257.9492">Universal Print</text><!--MD5=[05eb41a6c79b2c9b309984834f351e34]
entity ExpressRouteDirect--><rect fill="#FFFFFF" height="105.9219" style="stroke:#3C7FC0;stroke-width:1.0;" width="93" x="145" y="173"/><svg x="164.5" y="183"><g transform="scale(3,3)" ><defs><linearGradient id="aa436aef-5326-4d7d-ad29-02c369cb3782" x1="13.119" y1="5.643" x2="11.489" y2="16.919" gradientUnits="userSpaceOnUse"><stop offset="0" stop-color="#a67af4" /><stop offset="1" stop-color="#773adc" /></linearGradient></defs><rect x="3.201" y="3.372" width="1.335" height="6.415" transform="translate(3.808 -1.053) rotate(30)" fill="#773adc" /><rect x="7.573" y="3.478" width="1.335" height="6.415" transform="translate(-2.239 5.016) rotate(-30)" fill="#773adc" /><rect x="5.338" y="7.261" width="1.335" height="6.415" transform="translate(16.473 4.462) rotate(90)" fill="#773adc" /><circle cx="6.124" cy="2.649" r="1.626" fill="#86d633" /><circle cx="1.626" cy="10.564" r="1.626" fill="#86d633" /><circle cx="12.284" cy="11.348" r="5.325" fill="#fff" /><path d="M9.853,12.725a.3.3,0,0,1-.212-.512l1.128-1.127a.3.3,0,1,1,.424.423l-1.128,1.128A.3.3,0,0,1,9.853,12.725Z" fill="#773adc" /><path d="M10.686,13.558a.3.3,0,0,1-.212-.512L11.6,11.919a.3.3,0,1,1,.424.424L10.9,13.471A.3.3,0,0,1,10.686,13.558Z" fill="#773adc" /><path d="M11.511,14.383a.3.3,0,0,1-.212-.511l1.127-1.128a.3.3,0,1,1,.425.424L11.724,14.3A.3.3,0,0,1,11.511,14.383Z" fill="#773adc" /><path d="M11.924,10.654a.3.3,0,0,1-.212-.511L12.84,9.015a.3.3,0,0,1,.424.424l-1.128,1.127A.3.3,0,0,1,11.924,10.654Z" fill="#773adc" /><path d="M12.757,11.487a.3.3,0,0,1-.212-.511l1.127-1.128a.3.3,0,1,1,.425.424L12.97,11.4A.3.3,0,0,1,12.757,11.487Z" fill="#773adc" /><path d="M13.582,12.312a.3.3,0,0,1-.212-.512L14.5,10.672a.3.3,0,0,1,.424.425l-1.128,1.128A.3.3,0,0,1,13.582,12.312Z" fill="#773adc" /><path d="M9.62,12.022a.3.3,0,0,0-.425,0L7.27,13.947a5.717,5.717,0,0,0,2.947,2.634l1.769-1.768a.3.3,0,0,0,0-.426Z" fill="#a67af4" /><path d="M14.973,6.249,12.78,8.442a.3.3,0,0,0,0,.425l2.366,2.366a.3.3,0,0,0,.425,0L17.606,9.2A5.713,5.713,0,0,0,14.973,6.249Z" fill="#b796f9" /><path d="M12.3,6.335a4.946,4.946,0,1,1-4.946,4.946A4.952,4.952,0,0,1,12.3,6.335m0-.75a5.7,5.7,0,1,0,5.7,5.7,5.7,5.7,0,0,0-5.7-5.7Z" fill="url(#aa436aef-5326-4d7d-ad29-02c369cb3782)" />​</g></svg><text fill="#000000" font-family="Segoe UI" font-size="12" lengthAdjust="spacing" textLength="70" x="155" y="249.9492">ExpressRoute</text><text fill="#000000" font-family="Segoe UI" font-size="12" lengthAdjust="spacing" textLength="31" x="176" y="265.9102">Direct</text><!--MD5=[5dbffca7f0361c835a57818c0eca8297]
entity PeeringService--><rect fill="#FFFFFF" height="89.9609" style="stroke:#3C7FC0;stroke-width:1.0;" width="100" x="273.5" y="181"/><svg x="296.5" y="191"><defs><linearGradient id="f40fb1ff-0852-4039-9599-71aa564b13c7" x1="7.123" x2="7.123" y2="13.962" gradientUnits="userSpaceOnUse"><stop offset="0" stop-color="#0078d4" /><stop offset="1" stop-color="#005ba1" /></linearGradient></defs><g transform="scale(3,3)"  id="a5954726-4807-4c57-b928-cf0999f8d145"><circle cx="7.123" cy="6.981" r="6.981" fill="url(#f40fb1ff-0852-4039-9599-71aa564b13c7)" /><circle cx="11.022" cy="11.164" r="6.684" fill="#0078d4" /><path d="M17.858,10.94h-.011a6.835,6.835,0,1,0,0,.45h.011Zm-2.835,0a7.851,7.851,0,0,0-.55-2.846h2.145A6.351,6.351,0,0,1,17.4,10.94Zm-10.375.45H7.114a7.83,7.83,0,0,0,.564,2.847H5.428A6.334,6.334,0,0,1,4.648,11.39Zm6.284-3.746h-2.5a7.724,7.724,0,0,1,2.5-2.466Zm.45-2.465A7.094,7.094,0,0,1,13.77,7.644H11.382Zm-.45,2.915V10.94H7.563a6.816,6.816,0,0,1,.645-2.846ZM7.113,10.94H4.648a6.338,6.338,0,0,1,.779-2.846H7.714A7.364,7.364,0,0,0,7.113,10.94Zm.451.45h3.368v2.847H8.183A7.252,7.252,0,0,1,7.564,11.39Zm3.368,3.3V17.3A7.461,7.461,0,0,1,8.4,14.688Zm.45,0h2.352a7.349,7.349,0,0,1-2.352,2.494Zm0-.451V11.39h3.191a7.252,7.252,0,0,1-.619,2.847Zm0-3.3V8.094h2.6a7.3,7.3,0,0,1,.59,2.846Zm4.962-3.3H14.258A7.429,7.429,0,0,0,11.637,4.81,6.389,6.389,0,0,1,16.344,7.644ZM10.7,4.8A8,8,0,0,0,7.941,7.644H5.7A6.379,6.379,0,0,1,10.7,4.8ZM5.7,14.688H7.9a7.648,7.648,0,0,0,2.558,2.833A6.387,6.387,0,0,1,5.7,14.688Zm5.99,2.826a7.649,7.649,0,0,0,2.548-2.826h2.1A6.39,6.39,0,0,1,11.692,17.514Zm4.925-3.277H14.459a7.83,7.83,0,0,0,.564-2.847H17.4A6.346,6.346,0,0,1,16.617,14.237Z" fill="#83b9f9" /><path d="M11.031,9.684a1.538,1.538,0,0,0-.663.154L6.328,4.862a1.573,1.573,0,1,0-.707.548L9.7,10.438a1.539,1.539,0,0,0-.23.8,1.557,1.557,0,1,0,1.557-1.557Z" fill="#42e8ca" /></g></svg><text fill="#000000" font-family="Segoe UI" font-size="12" lengthAdjust="spacing" textLength="80" x="283.5" y="257.9492">Peering Service</text><!--MD5=[2ca90e2c715e87786bf1ebbd71a4ce5d]
entity ResourceMover--><rect fill="#FFFFFF" height="89.9609" style="stroke:#3C7FC0;stroke-width:1.0;" width="105" x="409" y="181"/><svg x="434.5" y="191"><g transform="scale(3,3)"  id="e3fe82a8-d9fb-426b-99a6-6540dd1ff286"><g><polygon points="16.41 4.004 16.41 11.971 9.525 15.974 9.525 7.995 16.41 4.004" fill="#32bedd" /><polygon points="16.41 4.004 9.526 8.006 2.64 4.003 9.526 0 16.41 4.004" fill="#9cebff" /><polygon points="9.525 8.006 9.525 15.974 2.64 11.971 2.64 4.003 9.525 8.006" fill="#50e6ff" /><polygon points="2.64 11.971 9.525 7.995 9.525 15.974 2.64 11.971" fill="#9cebff" /><polygon points="16.41 11.971 9.525 7.995 9.525 15.974 16.41 11.971" fill="#50e6ff" /></g><path d="M13.087,14.679,9.753,17.952a.168.168,0,0,1-.286-.122l.017-1.82V15.9c-3.975-.037-7.931-2.2-7.895-6.023.56.857,3.378,3.152,7.921,3.2v-.033l.017-1.819a.168.168,0,0,1,.288-.117l3.272,3.335A.167.167,0,0,1,13.087,14.679Z" fill="#773adc" /></g>​</svg><text fill="#000000" font-family="Segoe UI" font-size="12" lengthAdjust="spacing" textLength="85" x="419" y="257.9492">Resource Mover</text><!--MD5=[5ec0a979407a3da075ccac397127e343]
entity TemplateSpecs--><rect fill="#FFFFFF" height="89.9609" style="stroke:#3C7FC0;stroke-width:1.0;" width="102" x="10.5" y="347"/><svg x="34.5" y="357"><defs><linearGradient id="a9c4371a-d707-43d8-b213-37d041a253ab" x1="-40" y1="74.181" x2="-40" y2="59.819" gradientTransform="translate(49 -58)" gradientUnits="userSpaceOnUse"><stop offset="0" stop-color="#198ab3" /><stop offset="0.619" stop-color="#31d0f1" /><stop offset="1" stop-color="#32d4f5" /></linearGradient></defs><g transform="scale(3,3)"  id="a71de4a0-d0de-4b34-8152-efb31beca04f"><g id="bcd05f9a-32fa-46a6-8f5a-731299f106a8"><g><path d="M6.216.5H2.845A1.026,1.026,0,0,0,1.819,1.526V4.9H3.871V2.552H6.216Z" fill="#32bedd" /><path d="M15.155.5h-3.37V2.552h2.344V4.9h2.052V1.526A1.026,1.026,0,0,0,15.155.5Z" fill="#32bedd" /><path d="M14.129,13.1v2.345H11.785V17.5h3.37a1.026,1.026,0,0,0,1.026-1.026V13.1Z" fill="#32bedd" /><path d="M3.871,15.448V13.1H1.819v3.371A1.026,1.026,0,0,0,2.845,17.5H6.216V15.448Z" fill="#32bedd" /><path d="M3.724,16.181H14.276a.588.588,0,0,0,.586-.586V2.4a.588.588,0,0,0-.586-.586H3.724a.588.588,0,0,0-.586.586V15.6A.588.588,0,0,0,3.724,16.181Z" fill="url(#a9c4371a-d707-43d8-b213-37d041a253ab)" /><path d="M4.6,15.009H13.4a.294.294,0,0,0,.293-.293V3.285a.294.294,0,0,0-.293-.294H4.6a.294.294,0,0,0-.293.294V14.716A.294.294,0,0,0,4.6,15.009Z" fill="#fff" /><path d="M6.655,13.25h4.69a.294.294,0,0,0,.293-.293V11.638a.294.294,0,0,0-.293-.293H6.655a.294.294,0,0,0-.293.293v1.319A.294.294,0,0,0,6.655,13.25Z" fill="#5e9624" /><path d="M6.655,9.953h4.69a.294.294,0,0,0,.293-.293V8.341a.294.294,0,0,0-.293-.294H6.655a.294.294,0,0,0-.293.294V9.66A.294.294,0,0,0,6.655,9.953Z" fill="#76bc2d" /><path d="M6.655,6.655h4.69a.294.294,0,0,0,.293-.293V5.043a.294.294,0,0,0-.293-.293H6.655a.294.294,0,0,0-.293.293V6.362A.294.294,0,0,0,6.655,6.655Z" fill="#86d633" /></g></g></g>​</svg><text fill="#000000" font-family="Segoe UI" font-size="12" lengthAdjust="spacing" textLength="82" x="20.5" y="423.9492">Template Specs</text><!--MD5=[d3859763352a6d77eac479b50b55ac73]
entity AzureBackupCenter--><rect fill="#FFFFFF" height="105.9219" style="stroke:#3C7FC0;stroke-width:1.0;" width="95" x="148" y="339"/><svg x="168.5" y="349"><defs><linearGradient id="bf1351b6-2f7f-4ceb-8808-067f2a41a599" x1="11.176" y1="7.698" x2="11.176" y2="16.95" gradientTransform="matrix(1, 0, 0, -1, 0, 18)" gradientUnits="userSpaceOnUse"><stop offset="0" stop-color="#0078d4" /><stop offset="0.149" stop-color="#1882db" /><stop offset="0.373" stop-color="#378fe4" /><stop offset="0.594" stop-color="#4c99ea" /><stop offset="0.806" stop-color="#5a9eee" /><stop offset="1" stop-color="#5ea0ef" /></linearGradient></defs><path d="M17.7,7.405a2.93,2.93,0,0,0-2.544-2.818A3.7,3.7,0,0,0,11.35,1.052,3.793,3.793,0,0,0,7.727,3.523,3.5,3.5,0,0,0,4.651,6.89,3.551,3.551,0,0,0,8.326,10.3a2.494,2.494,0,0,0,.324-.014H14.6a.6.6,0,0,0,.157-.024A2.966,2.966,0,0,0,17.7,7.405Z" fill="url(#bf1351b6-2f7f-4ceb-8808-067f2a41a599)" /><g transform="scale(3,3)" ><path d="M10.777,9.965l.019.431.428.057a2.54,2.54,0,0,1,2.2,2.43,2.579,2.579,0,0,1-2.546,2.5h-.044l-.032.006-.035-.007h-6.6a3.232,3.232,0,0,1-1.238-.168,3.375,3.375,0,0,1-1.106-.643,3.324,3.324,0,0,1-.741-1.035,3.039,3.039,0,0,1,.559-3.21A3.147,3.147,0,0,1,3.6,9.36l.313-.037.109-.295a3.487,3.487,0,0,1,1.29-1.662,3.434,3.434,0,0,1,2-.6h.025a3.338,3.338,0,0,1,3.439,3.2Z" fill="#fff" /><path d="M10.791,15.9l-.085-.019-6.539,0a3.738,3.738,0,0,1-1.4-.194,3.865,3.865,0,0,1-1.274-.741,3.815,3.815,0,0,1-.867-1.2,3.56,3.56,0,0,1,.644-3.755A3.65,3.65,0,0,1,3.549,8.863l0-.008a3.959,3.959,0,0,1,1.475-1.9,3.793,3.793,0,0,1,2.293-.689,3.852,3.852,0,0,1,3.954,3.677l.014.014a3.033,3.033,0,0,1,2.635,2.909,3.078,3.078,0,0,1-3.04,3.017ZM7.3,7.266A2.939,2.939,0,0,0,4.491,9.2l-.215.583-.617.072A2.654,2.654,0,0,0,2,10.67a2.546,2.546,0,0,0-.46,2.675,2.8,2.8,0,0,0,.623.863,2.8,2.8,0,0,0,.927.533,2.723,2.723,0,0,0,1.043.142h6.677l.01,0h.01a2.083,2.083,0,0,0,2.09-2.016,2.028,2.028,0,0,0-1.767-1.919l-.843-.111-.037-.852A2.842,2.842,0,0,0,7.353,7.266Z" fill="#50e6ff" /></g><path d="M5.1,12.5v-.3l-.307-.1-.078-.21.15-.313v-.036l-.1-.1-.114-.121H4.612l-.3.151-.21-.054-.127-.337h-.3l-.1.307-.21.078L3.016,11.3l-.216.217v.036l.15.3-.084.21L2.5,12.19v.3h.042l.319.108.09.205-.168.349L3,13.369h.036l.3-.156.21.084.133.367h.3v-.042l.109-.325.2-.084.355.162.21-.21v-.042l-.132-.289.06-.211Zm-1.269.277a.427.427,0,1,1,.155-.822.435.435,0,0,1,.193.157.427.427,0,0,1,.072.238.422.422,0,0,1-.4.427Z" fill="#0078d4" /><path d="M3.816,15.905a3.537,3.537,0,1,1,3.558-3.537H6.3a2.462,2.462,0,1,0-2.464,2.46H4.62a.056.056,0,0,0,.056-.016.063.063,0,0,0,.016-.026.076.076,0,0,0,0-.03v-.872a.087.087,0,0,1,.052-.067.1.1,0,0,1,.083.018l1.5,1.5a.082.082,0,0,1,0,.049.079.079,0,0,1-.027.042l-1.5,1.5a.083.083,0,0,1-.042.018.075.075,0,0,1-.044-.007.082.082,0,0,1-.035-.029.074.074,0,0,1-.014-.043v-.886a.075.075,0,0,0-.022-.053.073.073,0,0,0-.054-.022H3.816Z" fill="#0078d4" fill-rule="evenodd" /></svg><text fill="#000000" font-family="Segoe UI" font-size="12" lengthAdjust="spacing" textLength="72" x="158" y="415.9492">Azure Backup</text><text fill="#000000" font-family="Segoe UI" font-size="12" lengthAdjust="spacing" textLength="35" x="178" y="431.9102">Center</text><!--MD5=[cb83e82f7407d854f8ae3e04bb63b9a7]
entity LocalNetworkGateways--><rect fill="#FFFFFF" height="105.9219" style="stroke:#3C7FC0;stroke-width:1.0;" width="99" x="278" y="339"/><svg x="300.5" y="349"><g transform="scale(3,3)" ><defs><linearGradient id="b1a497bc-2886-4e22-b230-918a36444c3e" x1="9" y1="17.79" x2="9" y2="1.82" gradientTransform="translate(9 -3.73) rotate(45)" gradientUnits="userSpaceOnUse"><stop offset="0" stop-color="#258277" /><stop offset="0.42" stop-color="#49a498" /><stop offset="0.78" stop-color="#60baad" /><stop offset="1" stop-color="#68c2b5" /></linearGradient></defs><title>Icon-networking-77</title><rect x="2.82" y="2.82" width="12.35" height="12.35" rx="0.57" transform="translate(-3.73 9) rotate(-45)" fill="url(#b1a497bc-2886-4e22-b230-918a36444c3e)" /><path d="M7.05,4.68,8.93,2.8a.1.1,0,0,1,.14,0L11,4.68a.09.09,0,0,1-.07.16H9.78a.1.1,0,0,0-.1.1V7.37a.09.09,0,0,1-.09.09H8.42a.09.09,0,0,1-.1-.09V4.94a.1.1,0,0,0-.09-.1H7.12A.1.1,0,0,1,7.05,4.68ZM11,13.32,9.07,15.2a.1.1,0,0,1-.14,0L7.05,13.32a.1.1,0,0,1,.07-.16H8.23a.1.1,0,0,0,.09-.1V10.63a.09.09,0,0,1,.1-.09H9.59a.09.09,0,0,1,.09.09v2.43a.1.1,0,0,0,.1.1h1.1A.09.09,0,0,1,11,13.32ZM5.34,10.84V9.74a.11.11,0,0,0-.1-.1H2.81a.1.1,0,0,1-.1-.09V8.38a.11.11,0,0,1,.1-.1H5.24a.1.1,0,0,0,.1-.09V7.08A.09.09,0,0,1,5.5,7L7.38,8.9a.09.09,0,0,1,0,.13L5.5,10.91A.09.09,0,0,1,5.34,10.84Zm7.32-3.76V8.19a.1.1,0,0,0,.1.09h2.43a.11.11,0,0,1,.1.1V9.55a.1.1,0,0,1-.1.09H12.76a.11.11,0,0,0-.1.1v1.1a.09.09,0,0,1-.16.07L10.62,9a.09.09,0,0,1,0-.13L12.5,7A.09.09,0,0,1,12.66,7.08Z" fill="#fff" /></g></svg><text fill="#000000" font-family="Segoe UI" font-size="12" lengthAdjust="spacing" textLength="76" x="288" y="415.9492">Local Network</text><text fill="#000000" font-family="Segoe UI" font-size="12" lengthAdjust="spacing" textLength="50" x="302.5" y="431.9102">Gateways</text><!--MD5=[34b50e01f4bde33ad7b4d264964ab85e]
entity InstancePools--><rect fill="#FFFFFF" height="89.9609" style="stroke:#3C7FC0;stroke-width:1.0;" width="96" x="412.5" y="347"/><svg x="433.5" y="357"><defs><linearGradient id="a30745b0-ad63-49cb-b0a6-bfff2ae873e7" x1="5.41" y1="17.33" x2="5.41" y2="4.61" gradientUnits="userSpaceOnUse"><stop offset="0" stop-color="#949494" /><stop offset="0.53" stop-color="#a2a2a2" /><stop offset="1" stop-color="#b3b3b3" /></linearGradient><linearGradient id="a9d4c02a-89a8-4dd3-9cb4-7cc2e8933fb4" x1="10.04" y1="-1347.39" x2="10.04" y2="-1336.82" gradientTransform="matrix(1, 0, 0, -1, 0, -1330)" gradientUnits="userSpaceOnUse"><stop offset="0" stop-color="#0078d4" /><stop offset="0.16" stop-color="#1380da" /><stop offset="0.53" stop-color="#3c91e5" /><stop offset="0.82" stop-color="#559cec" /><stop offset="1" stop-color="#5ea0ef" /></linearGradient></defs><title>Icon-databases-138</title><g transform="scale(3,3)" ><path d="M14.32,12.76a.59.59,0,0,1-.57.57H5.07a.57.57,0,0,1-.57-.57V1.18A.55.55,0,0,1,5.05.61h8.7a.57.57,0,0,1,.57.57Z" fill="#777" /><path d="M12.32,14.76a.59.59,0,0,1-.57.57H3.07a.57.57,0,0,1-.57-.57V3.18a.55.55,0,0,1,.55-.57h8.7a.57.57,0,0,1,.57.57Z" fill="#999" /><path d="M10.32,16.76a.59.59,0,0,1-.57.57H1.07a.58.58,0,0,1-.57-.57V5.18a.55.55,0,0,1,.55-.57h8.7a.57.57,0,0,1,.57.57Z" fill="url(#a30745b0-ad63-49cb-b0a6-bfff2ae873e7)" /><path d="M1.94,7.31A1.06,1.06,0,0,1,3,6.24H7.9a1.07,1.07,0,0,1,1.1,1v0H9A1.08,1.08,0,0,1,7.92,8.37H3A1.08,1.08,0,0,1,1.94,7.31Z" fill="#003067" /><circle cx="3.06" cy="7.31" r="0.72" fill="#50e6ff" /><path d="M17.5,14.08a3.35,3.35,0,0,0-2.91-3.22,4.21,4.21,0,0,0-4.35-4A4.31,4.31,0,0,0,6.1,9.64a4,4,0,0,0-3.52,3.85,4.06,4.06,0,0,0,4.2,3.9h7.39A3.38,3.38,0,0,0,17.5,14.08Z" fill="url(#a9d4c02a-89a8-4dd3-9cb4-7cc2e8933fb4)" /><path d="M13.61,14.45V11.09h-.93v4.12h2.45v-.76ZM6.51,12.8A2.67,2.67,0,0,1,6,12.49a.47.47,0,0,1-.12-.32.32.32,0,0,1,.15-.3.63.63,0,0,1,.42-.12,1.68,1.68,0,0,1,1,.29v-.86a2.82,2.82,0,0,0-1-.15,1.7,1.7,0,0,0-1.09.33,1.08,1.08,0,0,0-.41.89,1.35,1.35,0,0,0,.94,1.2,2.51,2.51,0,0,1,.61.36.42.42,0,0,1,.15.32.33.33,0,0,1-.15.3.78.78,0,0,1-.45.12A1.61,1.61,0,0,1,5,14.13v.92a2.28,2.28,0,0,0,1,.23A1.93,1.93,0,0,0,7.15,15a1.06,1.06,0,0,0,.43-.91,1,1,0,0,0-.25-.7A2.26,2.26,0,0,0,6.51,12.8Zm5.16,1.58A2.33,2.33,0,0,0,12,13.12,2.27,2.27,0,0,0,11.75,12a1.7,1.7,0,0,0-.69-.74A1.88,1.88,0,0,0,10,11a2.1,2.1,0,0,0-1,.29,1.87,1.87,0,0,0-.73.77A2.49,2.49,0,0,0,8,13.2a2.28,2.28,0,0,0,.24,1.05,1.86,1.86,0,0,0,.68.74,2.07,2.07,0,0,0,1,.29l.85,1H12l-1.19-1.1A1.82,1.82,0,0,0,11.67,14.38Zm-.93-.25a.93.93,0,0,1-.76.35.92.92,0,0,1-.75-.36,1.5,1.5,0,0,1-.28-1,1.43,1.43,0,0,1,.29-1,.93.93,0,0,1,.77-.37.87.87,0,0,1,.74.37,1.48,1.48,0,0,1,.28,1A1.47,1.47,0,0,1,10.74,14.13Z" fill="#f2f2f2" /></g></svg><text fill="#000000" font-family="Segoe UI" font-size="12" lengthAdjust="spacing" textLength="76" x="422.5" y="423.9492">Instance Pools</text><!--MD5=[cdf606801c8d02aecfbe196f7a00d936]
link WindowsVirtualDesktop to Detonation--><!--MD5=[9f4b77a27367b85329573a1fd680979d]
link Detonation to SSHKeys--><!--MD5=[5cb5058b4b92430065674a5d511306d4]
link SSHKeys to InternetAnalyzerProfiles--><!--MD5=[c27677f548d8adaa508f45f66f6253d2]
link WindowsVirtualDesktop to UniversalPrint--><!--MD5=[40536ae710224c6fbf21827e276cbfbc]
link UniversalPrint to ExpressRouteDirect--><!--MD5=[7cc5f969549f333b573c9aec85f3d576]
link ExpressRouteDirect to PeeringService--><!--MD5=[9706260eaacf5b252c2093a2f54c3b88]
link PeeringService to ResourceMover--><!--MD5=[73613977378c911c501af12bb4aadf9d]
link UniversalPrint to TemplateSpecs--><!--MD5=[d204642cde5a6d6b88133511e032c1f6]
link TemplateSpecs to AzureBackupCenter--><!--MD5=[daad3892d1e957b881dd3b8046d25232]
link AzureBackupCenter to LocalNetworkGateways--><!--MD5=[155dfcc581c81542420898f8a8fb8271]
link LocalNetworkGateways to InstancePools--><!--MD5=[2daef976202c9cfdf15a40db8b17febb]
@startuml
!pragma revision 1
!include ../../includes/AzureCommon.puml
sprite $WindowsVirtualDesktop Other/00327-icon-service-Windows-Virtual-Desktop.svg
rectangle "Windows Virtual Desktop" <<$WindowsVirtualDesktop{scale=3}>> as WindowsVirtualDesktop
sprite $Detonation Other/00378-icon-service-Detonation.svg
rectangle "Detonation" <<$Detonation{scale=3}>> as Detonation
sprite $SSHKeys Other/00412-icon-service-SSH-Keys.svg
rectangle "SSH Keys" <<$SSHKeys{scale=3}>> as SSHKeys
sprite $InternetAnalyzerProfiles Other/00469-icon-service-Internet-Analyzer-Profiles.svg
rectangle "Internet Analyzer Profiles" <<$InternetAnalyzerProfiles{scale=3}>> as InternetAnalyzerProfiles
sprite $UniversalPrint Other/00571-icon-service-Universal-Print.svg
rectangle "Universal Print" <<$UniversalPrint{scale=3}>> as UniversalPrint
sprite $ExpressRouteDirect Other/00903-icon-service-ExpressRoute-Direct.svg
rectangle "ExpressRoute Direct" <<$ExpressRouteDirect{scale=3}>> as ExpressRouteDirect
sprite $PeeringService Other/00970-icon-service-Peering-Service.svg
rectangle "Peering Service" <<$PeeringService{scale=3}>> as PeeringService
sprite $ResourceMover Other/02200-icon-service-Resource-Mover.svg
rectangle "Resource Mover" <<$ResourceMover{scale=3}>> as ResourceMover
sprite $TemplateSpecs Other/02340-icon-service-Template-Specs.svg
rectangle "Template Specs" <<$TemplateSpecs{scale=3}>> as TemplateSpecs
sprite $AzureBackupCenter Other/02360-icon-service-Azure-Backup-Center.svg
rectangle "Azure Backup Center" <<$AzureBackupCenter{scale=3}>> as AzureBackupCenter
sprite $LocalNetworkGateways Other/10077-icon-service-Local-Network-Gateways.svg
rectangle "Local Network Gateways" <<$LocalNetworkGateways{scale=3}>> as LocalNetworkGateways
sprite $InstancePools Other/10139-icon-service-Instance-Pools.svg
rectangle "Instance Pools" <<$InstancePools{scale=3}>> as InstancePools
@enduml

@startuml
!pragma revision 1


skinparam defaultTextAlignment center
skinparam defaultFontName Segoe UI
skinparam defaultBackgroundColor white
skinparam RectangleBackgroundColor white
skinparam RectangleBorderColor #3C7FC0
skinparam WrapWidth 100

skinparam rectangle {
    FontSize 12
    BorderThickness 1
    Shadowing false
}
sprite $WindowsVirtualDesktop Other/00327-icon-service-Windows-Virtual-Desktop.svg
rectangle "Windows Virtual Desktop" <<$WindowsVirtualDesktop{scale=3}>> as WindowsVirtualDesktop
sprite $Detonation Other/00378-icon-service-Detonation.svg
rectangle "Detonation" <<$Detonation{scale=3}>> as Detonation
sprite $SSHKeys Other/00412-icon-service-SSH-Keys.svg
rectangle "SSH Keys" <<$SSHKeys{scale=3}>> as SSHKeys
sprite $InternetAnalyzerProfiles Other/00469-icon-service-Internet-Analyzer-Profiles.svg
rectangle "Internet Analyzer Profiles" <<$InternetAnalyzerProfiles{scale=3}>> as InternetAnalyzerProfiles
sprite $UniversalPrint Other/00571-icon-service-Universal-Print.svg
rectangle "Universal Print" <<$UniversalPrint{scale=3}>> as UniversalPrint
sprite $ExpressRouteDirect Other/00903-icon-service-ExpressRoute-Direct.svg
rectangle "ExpressRoute Direct" <<$ExpressRouteDirect{scale=3}>> as ExpressRouteDirect
sprite $PeeringService Other/00970-icon-service-Peering-Service.svg
rectangle "Peering Service" <<$PeeringService{scale=3}>> as PeeringService
sprite $ResourceMover Other/02200-icon-service-Resource-Mover.svg
rectangle "Resource Mover" <<$ResourceMover{scale=3}>> as ResourceMover
sprite $TemplateSpecs Other/02340-icon-service-Template-Specs.svg
rectangle "Template Specs" <<$TemplateSpecs{scale=3}>> as TemplateSpecs
sprite $AzureBackupCenter Other/02360-icon-service-Azure-Backup-Center.svg
rectangle "Azure Backup Center" <<$AzureBackupCenter{scale=3}>> as AzureBackupCenter
sprite $LocalNetworkGateways Other/10077-icon-service-Local-Network-Gateways.svg
rectangle "Local Network Gateways" <<$LocalNetworkGateways{scale=3}>> as LocalNetworkGateways
sprite $InstancePools Other/10139-icon-service-Instance-Pools.svg
rectangle "Instance Pools" <<$InstancePools{scale=3}>> as InstancePools
@enduml

PlantUML version 1.2021.00(Sun Jan 10 02:25:05 PST 2021)
(GPL source distribution)
Java Runtime: Java(TM) SE Runtime Environment
JVM: Java HotSpot(TM) 64-Bit Server VM
Default Encoding: Cp1252
Language: en
Country: US
--></g></svg>