<svg xmlns="http://www.w3.org/2000/svg" xmlns:xlink="http://www.w3.org/1999/xlink" contentScriptType="application/ecmascript" contentStyleType="text/css" height="418px" preserveAspectRatio="none" style="width:388px;height:418px;" version="1.1" viewBox="0 0 388 418" width="388px" zoomAndPan="magnify"><defs/> --><g><!--MD5=[8c79868926c9e68a3723f0a9f4680204]
entity AzureCloudShell--><rect fill="#FFFFFF" height="89.9609" style="stroke:#3C7FC0;stroke-width:1.0;" width="113" x="7" y="7"/> --><svg x="36.5" y="17"><defs><linearGradient id="ba88ea91-3b3a-4da0-9b97-9a10ebaa3e50" x1="12.805" y1="15.237" x2="12.805" y2="7.962" gradientUnits="userSpaceOnUse"><stop offset="0" stop-color="#0078d4" /> --><stop offset=".156" stop-color="#1380da" /> --><stop offset=".528" stop-color="#3c91e5" /> --><stop offset=".822" stop-color="#559cec" /> --><stop offset="1" stop-color="#5ea0ef" /> --></linearGradient></defs><path d="M15.6 5.7H.067V2.99a.226.226 0 0 1 .226-.226H15.37a.227.227 0 0 1 .227.226z" fill="#949494" /> --><path d="M.063 5.7h15.53a0 0 0 0 1 0 0v9.254a.231.231 0 0 1-.231.231H.294a.231.231 0 0 1-.231-.231V5.7a0 0 0 0 1 0 0z" fill="#bfbfbf" /> --><path fill="#005ba1" d="M1.135 6.5h13.37v7.57H1.135z" /> --><g transform="scale(3,3)"  fill="#fff"><rect x="4.576" y="10.738" width="2.837" height=".527" rx=".263" /> --><path d="M2.675 11.215L4.35 9.54a.169.169 0 0 0 0-.243l-1.7-1.633a.17.17 0 0 0-.244.01L2.28 7.8a.17.17 0 0 0 .01.236L3.623 9.3a.171.171 0 0 1 0 .242l-1.3 1.333a.171.171 0 0 0 0 .239l.1.1a.17.17 0 0 0 .252.001z" /> --></g><path d="M17.937 12.958a2.3 2.3 0 0 0-2-2.216 2.906 2.906 0 0 0-2.994-2.78A2.982 2.982 0 0 0 10.092 9.9a2.752 2.752 0 0 0-2.42 2.648 2.793 2.793 0 0 0 2.89 2.684l.255-.01H15.5a.465.465 0 0 0 .124-.019 2.333 2.333 0 0 0 2.313-2.244z" fill="url(#ba88ea91-3b3a-4da0-9b97-9a10ebaa3e50)" /> --></svg><text fill="#000000" font-family="Segoe UI" font-size="12" lengthAdjust="spacing" textLength="93" x="17" y="83.9492">Azure Cloud Shell</text><!--MD5=[98300ef90b4e2065051b9d8ee5e7c19b]
entity StaticApps--><rect fill="#FFFFFF" height="89.9609" style="stroke:#3C7FC0;stroke-width:1.0;" width="79" x="155" y="7"/> --><svg x="167.5" y="17"><defs><linearGradient id="e6ad4df9-0ab7-4b49-9706-620b42380f0b" x1="9" y1="16.236" x2="9" y2="5.599" gradientUnits="userSpaceOnUse"><stop offset="0" stop-color="#005ba1" /> --><stop offset="0.775" stop-color="#0078d4" /> --></linearGradient></defs><g transform="scale(3,3)"  id="e7885b9c-9714-4276-bd41-591cb7e086a5"><path d="M0,5.6H18a0,0,0,0,1,0,0V15.635a.6.6,0,0,1-.6.6H.6a.6.6,0,0,1-.6-.6V5.6A0,0,0,0,1,0,5.6Z" fill="url(#e6ad4df9-0ab7-4b49-9706-620b42380f0b)" /> --><rect x="1.309" y="6.657" width="15.527" height="8.514" rx="0.6" fill="#5ea0ef" opacity="0.6" /> --><path d="M.6,1.764H17.4a.6.6,0,0,1,.6.6V5.6a0,0,0,0,1,0,0H0a0,0,0,0,1,0,0V2.365A.6.6,0,0,1,.6,1.764Z" fill="#005ba1" /> --><path d="M7.109,13.217l-.321.32a.144.144,0,0,1-.205,0L4.258,11.205a.29.29,0,0,1,0-.41l.321-.32L7.11,13.012A.145.145,0,0,1,7.109,13.217Zm3.653,0,.321.32a.144.144,0,0,0,.205,0l2.325-2.332a.29.29,0,0,0,0-.41l-.322-.32-2.53,2.537A.145.145,0,0,0,10.762,13.217Z" fill="#fff" opacity="0.8" /> --><path d="M6.831,8.433l.32.321a.144.144,0,0,1,0,.205L4.576,11.527l-.32-.322a.289.289,0,0,1,0-.41l2.37-2.363A.145.145,0,0,1,6.831,8.433Zm4.207,0-.32.321a.144.144,0,0,0,0,.205l2.575,2.568.32-.321a.292.292,0,0,0,0-.411l-2.37-2.362A.144.144,0,0,0,11.038,8.434Z" fill="#fff" /> --><path d="M8.159,14.363,7.646,14.2a.105.105,0,0,1-.067-.131L9.669,7.54a.1.1,0,0,1,.13-.067l.513.164a.1.1,0,0,1,.067.13L8.289,14.3A.1.1,0,0,1,8.159,14.363Z" fill="#fff" /> --><path d="M3.166,3.847a.76.76,0,1,1-.76-.76A.76.76,0,0,1,3.166,3.847ZM4.8,3.087a.76.76,0,1,0,.76.76A.76.76,0,0,0,4.8,3.087Zm2.393,0a.76.76,0,1,0,.76.76A.76.76,0,0,0,7.191,3.087Z" fill="#fff" /> --></g></svg><text fill="#000000" font-family="Segoe UI" font-size="12" lengthAdjust="spacing" textLength="59" x="165" y="83.9492">Static Apps</text><!--MD5=[323988e09d5ce24c7863cf960ac3a3e5]
entity AzureWorkbooks--><rect fill="#FFFFFF" height="89.9609" style="stroke:#3C7FC0;stroke-width:1.0;" width="113" x="269" y="7"/> --><svg x="298.5" y="17"><defs><linearGradient id="abe241b1-5a9a-45d6-aa6a-018218fcb790" x1="15.601" y1="771.736" x2="2.537" y2="793.07" gradientTransform="matrix(1, 0, 0, -1, 0, 791.516)" gradientUnits="userSpaceOnUse"><stop offset="0" stop-color="#0078d4" /> --><stop offset="1" stop-color="#289bf2" /> --></linearGradient><linearGradient id="aa8b03fb-bed7-4004-829e-edcb663a744f" x1="5.138" y1="789.264" x2="13.27" y2="773.77" gradientTransform="matrix(1, 0, 0, -1, 0, 791.516)" gradientUnits="userSpaceOnUse"><stop offset="0" stop-color="#00ccf9" /> --><stop offset="1" stop-color="#0095e6" /> --></linearGradient><linearGradient id="b62f4b11-b9c6-44f0-b9c4-a8dc21d95f47" x1="5.768" y1="791.577" x2="9.72" y2="780.168" gradientTransform="matrix(1, 0, 0, -1, 0, 791.516)" gradientUnits="userSpaceOnUse"><stop offset="0" stop-color="#7cecff" /> --><stop offset="1" stop-color="#50e6ff" /> --></linearGradient></defs><g transform="scale(3,3)"  id="b29c674a-46cd-4195-96d0-b29284b870b6"><g><path d="M7.773,3.682,0,11.455v4.909A1.637,1.637,0,0,0,1.636,18H16.364A1.637,1.637,0,0,0,18,16.364V1.636A1.637,1.637,0,0,0,16.364,0h-.819L9.818,5.727Z" fill="url(#abe241b1-5a9a-45d6-aa6a-018218fcb790)" /> --><path d="M7.773,8.591.586,15.778a1.194,1.194,0,0,0-.381,1.379A1.635,1.635,0,0,0,1.636,18H16.364A1.637,1.637,0,0,0,18,16.364V2.455L9.818,10.636Z" fill="url(#aa8b03fb-bed7-4004-829e-edcb663a744f)" /> --><path d="M9.818,5.727,15.545,0H1.636A1.637,1.637,0,0,0,0,1.636v9.819L7.773,3.682Z" fill="url(#b62f4b11-b9c6-44f0-b9c4-a8dc21d95f47)" /> --></g></g></svg><text fill="#000000" font-family="Segoe UI" font-size="12" lengthAdjust="spacing" textLength="93" x="279" y="83.9492">Azure Workbooks</text><!--MD5=[5d18c05e37d201efde86a5554ce0a95f]
entity PrivateLinkHub--><rect fill="#FFFFFF" height="89.9609" style="stroke:#3C7FC0;stroke-width:1.0;" width="107" x="10" y="157"/> --><svg x="36.5" y="167"><defs><linearGradient id="ea0182c4-a05a-47e0-8d38-dceaa08cffc1" x1="7.688" y1="-26.771" x2="7.688" y2="-21.482" gradientTransform="translate(0 32)" gradientUnits="userSpaceOnUse"><stop offset="0.23" stop-color="#5ea0ef" /> --><stop offset="0.32" stop-color="#5b9fee" /> --><stop offset="0.48" stop-color="#509aeb" /> --><stop offset="0.57" stop-color="#3f92e6" /> --><stop offset="0.75" stop-color="#2688df" /> --><stop offset="0.93" stop-color="#127fd9" /> --></linearGradient><linearGradient id="b2374fe1-82b4-4770-97f1-de978b276dd6" x1="10.312" y1="-24.568" x2="10.312" y2="-19.279" gradientTransform="translate(0 32)" gradientUnits="userSpaceOnUse"><stop offset="0.2" stop-color="#50e6ff" /> --><stop offset="0.65" stop-color="#32bedd" /> --><stop offset="1" stop-color="#198ab3" /> --></linearGradient><linearGradient id="f85376f9-8ccb-4ef0-ab3e-33ae7fcb4e4a" x1="9" y1="5.38" x2="9" gradientUnits="userSpaceOnUse"><stop offset="0.199" stop-color="#005ba1" /> --><stop offset="1" stop-color="#0078d4" /> --></linearGradient></defs><g transform="scale(3,3)" ><g><g><path d="M8.736,5.229H6.62a2.644,2.644,0,0,0-.41,5.253A2.824,2.824,0,0,1,6.237,9.5,1.67,1.67,0,0,1,6.62,6.2H8.736a1.675,1.675,0,0,1,0,3.35H8.154a1.275,1.275,0,0,0-.124.529,1.234,1.234,0,0,0,.084.441h.622a2.645,2.645,0,0,0,0-5.289Z" fill="url(#ea0182c4-a05a-47e0-8d38-dceaa08cffc1)" /> --><path d="M11.79,7.468a3.042,3.042,0,0,1,.031.405,2.722,2.722,0,0,1-.058.577,1.671,1.671,0,0,1-.383,3.3H9.264a1.675,1.675,0,0,1,0-3.35h.582a1.195,1.195,0,0,0,.04-.97H9.264a2.645,2.645,0,0,0,0,5.289H11.38a2.644,2.644,0,0,0,.41-5.253Z" fill="url(#b2374fe1-82b4-4770-97f1-de978b276dd6)" /> --></g><path d="M9-.025,1.15,4.465v8.97L9,17.975l7.85-4.49v-9Zm6.4,12.57L9,16.245,2.6,12.584V5.355L9,1.655l6.4,3.71Z" fill="#0078d4" /> --></g><polygon points="9 0 9 0 1.15 4.49 2.6 5.38 9 1.68 9 1.68 15.4 5.38 16.85 4.49 9 0" fill="url(#f85376f9-8ccb-4ef0-ab3e-33ae7fcb4e4a)" /> --></g></svg><text fill="#000000" font-family="Segoe UI" font-size="12" lengthAdjust="spacing" textLength="87" x="20" y="233.9492">Private Link Hub</text><!--MD5=[38cb41fdde1f50f38b5c46a323b13c79]
entity IoTEdge--><rect fill="#FFFFFF" height="89.9609" style="stroke:#3C7FC0;stroke-width:1.0;" width="74" x="152.5" y="157"/> --><svg x="162.5" y="167"><g transform="scale(3,3)" ><defs><linearGradient id="bee47a41-9626-4448-9119-87ad28e72505" x1="9" y1="12.85" x2="9" y2="0.09" gradientUnits="userSpaceOnUse"><stop offset="0" stop-color="#198ab3" /> --><stop offset="0.44" stop-color="#28b7db" /> --><stop offset="0.78" stop-color="#32d4f5" /> --></linearGradient><linearGradient id="beb70c0a-9df6-4825-adec-20340c00add6" x1="8.97" y1="17.91" x2="8.97" y2="14.13" href="#bee47a41-9626-4448-9119-87ad28e72505" /> --></defs><path d="M18,8.85A4.06,4.06,0,0,0,14.49,5,5.1,5.1,0,0,0,9.24.09a5.23,5.23,0,0,0-5,3.41A4.82,4.82,0,0,0,0,8.14a4.9,4.9,0,0,0,5.07,4.71l.44,0h8.21a.78.78,0,0,0,.22,0A4.09,4.09,0,0,0,18,8.85Z" fill="url(#bee47a41-9626-4448-9119-87ad28e72505)" /> --><rect x="8.58" y="8.46" width="0.78" height="6.19" fill="#b3b3b3" /> --><circle cx="8.97" cy="6.59" r="2.08" fill="#f2f2f2" /> --><rect x="7.08" y="14.13" width="3.78" height="3.78" rx="0.73" fill="url(#beb70c0a-9df6-4825-adec-20340c00add6)" /> --></g></svg><text fill="#000000" font-family="Segoe UI" font-size="12" lengthAdjust="spacing" textLength="45" x="167" y="233.9492">IoT Edge</text><!--MD5=[bc6ba92c476308f438a7ac39fe9bab63]
entity AzureSphere--><rect fill="#FFFFFF" height="89.9609" style="stroke:#3C7FC0;stroke-width:1.0;" width="89" x="262" y="157"/> --><svg x="279.5" y="167"><defs><linearGradient id="fdda967e-7651-4c84-9759-7be8308e5f44" x1="9" y1="17.826" x2="9" y2="0.826" gradientUnits="userSpaceOnUse"><stop offset="0" stop-color="#198ab3" /> --><stop offset="0.442" stop-color="#28b7db" /> --><stop offset="0.775" stop-color="#32d4f5" /> --></linearGradient><linearGradient id="a71b08ef-312b-4529-8bf0-fa396a725f2f" x1="5.75" y1="-3114.591" x2="12.303" y2="-3119.908" gradientUnits="userSpaceOnUse"><stop offset="0" stop-color="#fff" stop-opacity="0.9" /> --><stop offset="1" stop-color="#fff" stop-opacity="0.8" /> --></linearGradient></defs><g transform="scale(3,3)" ><circle cx="9" cy="9.326" r="8.5" fill="url(#fdda967e-7651-4c84-9759-7be8308e5f44)" /> --><path d="M8.81,15.067c-.973-.6-4.151-2.747-4.151-5.255V6.605L5,6.584A4.044,4.044,0,0,0,7.35,5.842,2.48,2.48,0,0,1,9,5.353a2.511,2.511,0,0,1,1.648.487A4.048,4.048,0,0,0,13,6.584l.34.021V9.812c0,2.508-3.178,4.656-4.152,5.255L9,15.183Z" fill="url(#a71b08ef-312b-4529-8bf0-fa396a725f2f)" /> --><path d="M9,14.643C7.114,13.472,5.119,11.6,5.119,9.812V7.037a4.446,4.446,0,0,0,2.486-.812A2.027,2.027,0,0,1,9,5.813a2.073,2.073,0,0,1,1.394.411,4.456,4.456,0,0,0,2.487.813V9.812C12.881,11.6,10.886,13.472,9,14.643Z" fill="#50e6ff" /> --><g><circle cx="15.345" cy="14.083" r="1.302" fill="#fff" /> --><path d="M15.345,12.781a1.3,1.3,0,1,1-1.3,1.3,1.3,1.3,0,0,1,1.3-1.3m0-.651A1.954,1.954,0,1,0,17.3,14.083a1.956,1.956,0,0,0-1.953-1.953Z" fill="#b3b3b3" /> --></g><g><circle cx="2.655" cy="14.083" r="1.302" fill="#fff" /> --><path d="M2.655,12.781a1.3,1.3,0,1,1-1.3,1.3,1.3,1.3,0,0,1,1.3-1.3m0-.651a1.954,1.954,0,1,0,1.953,1.953A1.955,1.955,0,0,0,2.655,12.13Z" fill="#b3b3b3" /> --></g><g><circle cx="9" cy="2.128" r="1.302" fill="#fff" /> --><path d="M9,.826a1.3,1.3,0,1,1-1.3,1.3A1.3,1.3,0,0,1,9,.826M9,.174a1.954,1.954,0,1,0,1.953,1.954A1.956,1.956,0,0,0,9,.174Z" fill="#b3b3b3" /> --></g></g></svg><text fill="#000000" font-family="Segoe UI" font-size="12" lengthAdjust="spacing" textLength="69" x="272" y="233.9492">Azure Sphere</text><!--MD5=[0a7b0c309dd20d8cf7a85cb0e110c89c]
entity TimeSeriesDataSets--><rect fill="#FFFFFF" height="105.9219" style="stroke:#3C7FC0;stroke-width:1.0;" width="109" x="9" y="307"/> --><svg x="36.5" y="317"><g transform="scale(3,3)" ><defs><linearGradient id="ab5214c3-3e17-4021-b3c2-de63248529d4" x1="2.59" y1="10.16" x2="15.41" y2="10.16" gradientUnits="userSpaceOnUse"><stop offset="0" stop-color="#005ba1" /> --><stop offset="0.07" stop-color="#0060a9" /> --><stop offset="0.36" stop-color="#0071c8" /> --><stop offset="0.52" stop-color="#0078d4" /> --><stop offset="0.64" stop-color="#0074cd" /> --><stop offset="0.82" stop-color="#006abb" /> --><stop offset="1" stop-color="#005ba1" /> --></linearGradient><radialGradient id="bd8cfab1-5dd6-4d45-ad3d-d0c2bffa7473" cx="9.36" cy="10.57" r="7.07" gradientUnits="userSpaceOnUse"><stop offset="0" stop-color="#f2f2f2" /> --><stop offset="0.58" stop-color="#eee" /> --><stop offset="1" stop-color="#e6e6e6" /> --></radialGradient></defs><title>Icon-iot-198</title><path d="M9,5.14c-3.54,0-6.41-1-6.41-2.32V15.18c0,1.27,2.82,2.3,6.32,2.32H9c3.54,0,6.41-1,6.41-2.32V2.82C15.41,4.11,12.54,5.14,9,5.14Z" fill="url(#ab5214c3-3e17-4021-b3c2-de63248529d4)" /> --><path d="M15.41,2.82c0,1.29-2.87,2.32-6.41,2.32s-6.41-1-6.41-2.32S5.46.5,9,.5s6.41,1,6.41,2.32" fill="#e8e8e8" /> --><path d="M13.92,2.63c0,.82-2.21,1.48-4.92,1.48S4.08,3.45,4.08,2.63,6.29,1.16,9,1.16s4.92.66,4.92,1.47" fill="#50e6ff" /> --><path d="M9,3a11.55,11.55,0,0,0-3.89.57A11.42,11.42,0,0,0,9,4.11a11.15,11.15,0,0,0,3.89-.58A11.84,11.84,0,0,0,9,3Z" fill="#198ab3" /> --><path d="M12.9,11.4V8H12v4.13h2.46V11.4ZM5.76,9.73a1.83,1.83,0,0,1-.51-.31.44.44,0,0,1-.13-.32.35.35,0,0,1,.16-.3.68.68,0,0,1,.42-.12,1.67,1.67,0,0,1,1,.29V8.11a2.67,2.67,0,0,0-1-.16,1.64,1.64,0,0,0-1.09.34,1.08,1.08,0,0,0-.42.89c0,.51.32.91,1,1.21a2.88,2.88,0,0,1,.62.36.42.42,0,0,1,.15.32.38.38,0,0,1-.16.31.73.73,0,0,1-.45.11,1.66,1.66,0,0,1-1.09-.42V12a2.17,2.17,0,0,0,1.07.24,1.88,1.88,0,0,0,1.18-.33A1.08,1.08,0,0,0,6.84,11a1.05,1.05,0,0,0-.25-.7A2.42,2.42,0,0,0,5.76,9.73ZM11,11.32a2.34,2.34,0,0,0,.33-1.26A2.32,2.32,0,0,0,11,9a1.81,1.81,0,0,0-.7-.75,2,2,0,0,0-1-.26,2.11,2.11,0,0,0-1.08.27A1.86,1.86,0,0,0,7.49,9a2.46,2.46,0,0,0-.26,1.14,2.26,2.26,0,0,0,.24,1,1.76,1.76,0,0,0,.69.74,2.06,2.06,0,0,0,1,.3l.86,1h1.21L10,12.08A1.79,1.79,0,0,0,11,11.32ZM10,11.07a.94.94,0,0,1-.76.35.92.92,0,0,1-.76-.36,1.52,1.52,0,0,1-.29-1,1.53,1.53,0,0,1,.29-1,1,1,0,0,1,.78-.37.87.87,0,0,1,.75.37,1.62,1.62,0,0,1,.27,1A1.46,1.46,0,0,1,10,11.07Z" fill="url(#bd8cfab1-5dd6-4d45-ad3d-d0c2bffa7473)" /> --></g></svg><text fill="#000000" font-family="Segoe UI" font-size="12" lengthAdjust="spacing" textLength="86" x="19" y="383.9492">Time Series Data</text><text fill="#000000" font-family="Segoe UI" font-size="12" lengthAdjust="spacing" textLength="21" x="53" y="399.9102">Sets</text><!--MD5=[4f69f83e469a4b673f629fdaeaa98639]
entity RTOS--><rect fill="#FFFFFF" height="89.9609" style="stroke:#3C7FC0;stroke-width:1.0;" width="74" x="153.5" y="315"/> --><svg x="163.5" y="325"><defs><linearGradient id="aa17ea79-e1b1-4771-8623-8089fc66d31f" x1="9.252" y1="14.005" x2="9.252" y2="-0.028" gradientTransform="translate(0 2)" gradientUnits="userSpaceOnUse"><stop offset="0" stop-color="#b3b4b4" /> --><stop offset="0.33" stop-color="#b3b4b4" /> --><stop offset="0.82" stop-color="#cccccb" /> --><stop offset="1" stop-color="#cccccb" /> --></linearGradient><linearGradient id="e4e801cf-1833-4cda-9534-289a2affc042" x1="10.558" y1="15.244" x2="10.439" y2="17.218" gradientUnits="userSpaceOnUse"><stop offset="0.317" stop-color="#33bedd" /> --><stop offset="1" stop-color="#74cfeb" /> --></linearGradient><linearGradient id="f4710473-a20d-4433-b34a-8d485da6bbc6" x1="9" y1="14.113" x2="9" y2="3.938" gradientUnits="userSpaceOnUse"><stop offset="0" stop-color="#616261" /> --><stop offset="1" stop-color="#b6b8ba" /> --></linearGradient></defs><g transform="scale(3,3)" ><path d="M11.167,17.718,1.088,13.183a1.52,1.52,0,0,1-.806-2.016L4.817,1.088A1.52,1.52,0,0,1,6.833.282L16.912,4.817a1.52,1.52,0,0,1,.806,2.016L13.183,16.912A1.52,1.52,0,0,1,11.167,17.718Z" fill="#74cfeb" /> --><path d="M15.9,5.12,13.183,2.4A1.294,1.294,0,0,0,12.175,2H3.608A1.378,1.378,0,0,0,2.2,3.406V14.594a1.378,1.378,0,0,0,1.411,1.411H14.9a1.378,1.378,0,0,0,1.411-1.411V6.128a1.54,1.54,0,0,0-.4-1.008Z" fill="url(#aa17ea79-e1b1-4771-8623-8089fc66d31f)" /> --><path d="M7.449,16.005l3.7,1.652c1.166.681,2.139-.777,2.43-1.652" fill="url(#e4e801cf-1833-4cda-9534-289a2affc042)" /> --><path d="M14.087,9.575V8.415l-.162-.061-1.242-.407-.325-.794.63-1.343L12.174,5l-.162.081-1.16.591-.794-.326-.509-1.4H8.39L8.328,4.1,7.921,5.342l-.793.326L5.805,5.037l-.814.814.082.163.59,1.159-.326.794-1.424.509v1.16l.162.061,1.242.407.325.793-.63,1.343.814.814.162-.081,1.16-.59.794.325.509,1.4H9.61l.062-.163.407-1.242.793-.325,1.343.631.814-.814-.081-.163-.59-1.16.325-.794Z" fill="url(#f4710473-a20d-4433-b34a-8d485da6bbc6)" /> --><path d="M9.652,6.292A.1.1,0,0,0,9.6,6.279a.139.139,0,0,0-.094.053L7.2,9.687a.129.129,0,0,0-.013.121.137.137,0,0,0,.107.067H8.672L8.055,11.9a.1.1,0,0,0,.054.135.081.081,0,0,0,.053.013A.133.133,0,0,0,8.256,12L10.632,8.6c.013-.027.026-.04.026-.067a.12.12,0,0,0-.12-.121H9.115l.591-1.986A.1.1,0,0,0,9.652,6.292Z" fill="#fff" /> --></g></svg><text fill="#000000" font-family="Segoe UI" font-size="12" lengthAdjust="spacing" textLength="28" x="176.5" y="391.9492">RTOS</text><!--MD5=[bf8f9db678b424e73b67445b92636610]
entity WebEnvironment--><rect fill="#FFFFFF" height="89.9609" style="stroke:#3C7FC0;stroke-width:1.0;" width="115" x="263" y="315"/> --><svg x="293.5" y="325"><defs><radialGradient id="a6c0c18d-733f-412e-9946-4b3220f15c3a" cx="4649.515" cy="3578.357" r="48.597" gradientTransform="translate(-689.641 -529.326) scale(0.15)" gradientUnits="userSpaceOnUse"><stop offset="0.183" stop-color="#5ea0ef" /> --><stop offset="1" stop-color="#0078d4" /> --></radialGradient><linearGradient id="ba95cf02-a4ad-444a-ba86-4a77c3d6b54d" x1="3.844" y1="9.561" x2="3.817" y2="6.165" gradientUnits="userSpaceOnUse"><stop offset="0" stop-color="#ccc" /> --><stop offset="0.123" stop-color="#d7d7d7" /> --><stop offset="1" stop-color="#fcfcfc" /> --></linearGradient><linearGradient id="a3cb84a1-8f3b-4dab-92a1-05b9fc1b9b9d" x1="8.763" y1="12.958" x2="8.763" y2="9.913" gradientUnits="userSpaceOnUse"><stop offset="0" stop-color="#ccc" /> --><stop offset="0.123" stop-color="#d7d7d7" /> --><stop offset="1" stop-color="#fcfcfc" /> --></linearGradient><linearGradient id="ef149404-1205-4370-825c-1764b56b5820" x1="-105.292" y1="373.011" x2="-105.292" y2="364.165" gradientTransform="matrix(0.949, -0.314, 0.314, 0.949, -2.714, -371.496)" gradientUnits="userSpaceOnUse"><stop offset="0" stop-color="#32bedd" /> --><stop offset="0.576" stop-color="#32ceef" /> --><stop offset="1" stop-color="#32d4f5" /> --></linearGradient></defs><g transform="scale(3,3)"  id="f7be321e-44f2-40dd-a677-39c899dfee20"><g><path id="a030666d-76ea-43d2-b12a-26b869b32da2" data-name="Path 1237" d="M12.257,13.19A7.289,7.289,0,1,1,3.323,1.67L3.4,1.614A7.289,7.289,0,0,1,12.257,13.19" fill="url(#a6c0c18d-733f-412e-9946-4b3220f15c3a)" /> --><g><path d="M5.808,5.913A11.162,11.162,0,0,1,13.45,2.842,7.185,7.185,0,0,0,12.176,1.6a12.386,12.386,0,0,0-4.026.95,10.628,10.628,0,0,0-3.5,2.414A2.348,2.348,0,0,1,5.808,5.913Z" fill="#fff" opacity="0.6" /> --><path d="M2.2,8.841a16.236,16.236,0,0,0-.717,2.25,7.7,7.7,0,0,0,.534.791,6.782,6.782,0,0,0,.475.555A15.3,15.3,0,0,1,3.42,9.462,2.332,2.332,0,0,1,2.2,8.841Z" fill="#fff" opacity="0.6" /> --><path d="M3.039,4.952a10.239,10.239,0,0,1-.591-2.526A7.277,7.277,0,0,0,1.5,3.676,11.361,11.361,0,0,0,1.991,5.7,2.33,2.33,0,0,1,3.039,4.952Z" fill="#f2f2f2" opacity="0.55" /> --><circle cx="3.825" cy="7.157" r="2.343" fill="url(#ba95cf02-a4ad-444a-ba86-4a77c3d6b54d)" /> --><g><path d="M7.241,11.435A1.515,1.515,0,0,1,7.7,10.347,10.307,10.307,0,0,1,5.535,8.755a2.336,2.336,0,0,1-1.28.7,10.213,10.213,0,0,0,1.245,1.1,10.6,10.6,0,0,0,1.755,1.07A1.4,1.4,0,0,1,7.241,11.435Z" fill="#f2f2f2" opacity="0.55" /> --><path d="M12.642,11.617a10.288,10.288,0,0,1-2.362-.275c0,.031.005.062.005.093A1.515,1.515,0,0,1,9.852,12.5a11.879,11.879,0,0,0,2.925.209,7.185,7.185,0,0,0,.987-1.152A10.517,10.517,0,0,1,12.642,11.617Z" fill="#f2f2f2" opacity="0.55" /> --></g><circle cx="8.763" cy="11.435" r="1.522" fill="url(#a3cb84a1-8f3b-4dab-92a1-05b9fc1b9b9d)" /> --><path d="M10.635,7.368a1.588,1.588,0,0,1,.525-.848A21.663,21.663,0,0,1,7.333,2.962,14.576,14.576,0,0,1,5.632.457,7.227,7.227,0,0,0,4.7.816,15.211,15.211,0,0,0,6.529,3.548,22.61,22.61,0,0,0,10.635,7.368Z" fill="#f2f2f2" opacity="0.7" /> --><circle cx="12.232" cy="7.66" r="1.617" fill="#f2f2f2" /> --><path d="M14.948,8.75c-.1-.05-.18-.094-.275-.145l-.026-.014c-.086-.045-.17-.091-.254-.137l-.047-.026L14.117,8.3l-.056-.032c-.091-.051-.181-.1-.27-.154a1.536,1.536,0,0,1-.546.793c.105.062.212.123.321.184l.072.041.3.165.029.016c.241.131.487.262.739.391h0a7.107,7.107,0,0,0,.243-.955Z" fill="#f2f2f2" opacity="0.55" /> --><circle cx="3.825" cy="7.157" r="2.343" fill="url(#ba95cf02-a4ad-444a-ba86-4a77c3d6b54d)" /> --><circle cx="8.763" cy="11.435" r="1.522" fill="#f2f2f2" /> --></g><path d="M17.5,10.571l-.317-.958-.151,0-1.136,0-.485-.566.154-1.281-.895-.45-.112.112-.8.8-.744-.052-.8-1.02-.958.317-.006.151,0,1.136-.566.485L9.424,9.088l-.449.894.112.112.8.8-.051.743-1.037.81.317.957.151.006,1.136,0,.485.566-.154,1.281.895.449.112-.112.8-.8.744.052.8,1.02.958-.317.006-.151,0-1.135.566-.486,1.281.154.45-.894-.112-.113-.8-.8.052-.744ZM13.761,13.35A1.941,1.941,0,1,1,14.994,10.9,1.94,1.94,0,0,1,13.761,13.35Z" fill="url(#ef149404-1205-4370-825c-1764b56b5820)" /> --><path d="M7.613,14.753v-.794L7.5,13.918l-.85-.279L6.429,13.1l.432-.919L6.3,11.619l-.112.056-.794.4-.543-.223L4.507,10.9H3.713l-.042.111-.278.85-.544.223-.905-.432-.557.557.055.112.4.794-.222.543L.649,14V14.8l.111.042.85.279.223.543-.432.919.557.557.111-.056.794-.4.543.222.349.962h.794l.041-.112.279-.85.543-.222.92.431.557-.557-.056-.111-.4-.794.223-.543ZM4.131,15.906a1.529,1.529,0,1,1,1.528-1.529A1.528,1.528,0,0,1,4.131,15.906Z" fill="#50e6ff" /> --><circle cx="13.151" cy="11.507" r="1.941" fill="#fff" /> --><circle cx="4.131" cy="14.377" r="1.528" fill="#fff" /> --></g></g></svg><text fill="#000000" font-family="Segoe UI" font-size="12" lengthAdjust="spacing" textLength="95" x="273" y="391.9492">Web Environment</text><!--MD5=[b705a26c4732d02b1d62384cf8ed169a]
link AzureCloudShell to StaticApps--><!--MD5=[b3749b7f3cc6c61cd87c789e6554e4f6]
link StaticApps to AzureWorkbooks--><!--MD5=[61e325b449b6dd267e22f5562c45c9a1]
link AzureCloudShell to PrivateLinkHub--><!--MD5=[a1b4812f05e6f42a359c8868a9967688]
link PrivateLinkHub to IoTEdge--><!--MD5=[e13998dca0cd812155bdf262196874ea]
link IoTEdge to AzureSphere--><!--MD5=[724520a13764b623bb31b65e058059f2]
link PrivateLinkHub to TimeSeriesDataSets--><!--MD5=[9e881e93174742898a2a5047fe7f2503]
link TimeSeriesDataSets to RTOS--><!--MD5=[f04e5437c8c3c033328faefaac12282f]
link RTOS to WebEnvironment--><!--MD5=[3349296a6f1bb6ce2ae029e5dcc3ae6a]
@startuml
!pragma revision 1
!include ../../includes/AzureCommon.puml
sprite $AzureCloudShell Preview/00559-icon-service-Azure-Cloud-Shell.svg
rectangle "Azure Cloud Shell" <<$AzureCloudShell{scale=3}>> as AzureCloudShell
sprite $StaticApps Preview/01007-icon-service-Static-Apps.svg
rectangle "Static Apps" <<$StaticApps{scale=3}>> as StaticApps
sprite $AzureWorkbooks Preview/02189-icon-service-Azure-Workbooks.svg
rectangle "Azure Workbooks" <<$AzureWorkbooks{scale=3}>> as AzureWorkbooks
sprite $PrivateLinkHub Preview/02209-icon-service-Private-Link-Hub.svg
rectangle "Private Link Hub" <<$PrivateLinkHub{scale=3}>> as PrivateLinkHub
sprite $IoTEdge Preview/10186-icon-service-IoT-Edge.svg
rectangle "IoT Edge" <<$IoTEdge{scale=3}>> as IoTEdge
sprite $AzureSphere Preview/10190-icon-service-Azure-Sphere.svg
rectangle "Azure Sphere" <<$AzureSphere{scale=3}>> as AzureSphere
sprite $TimeSeriesDataSets Preview/10198-icon-service-Time-Series-Data-Sets.svg
rectangle "Time Series Data Sets" <<$TimeSeriesDataSets{scale=3}>> as TimeSeriesDataSets
sprite $RTOS Preview/10778-icon-service-RTOS.svg
rectangle "RTOS" <<$RTOS{scale=3}>> as RTOS
sprite $WebEnvironment Preview/10846-icon-service-Web-Environment.svg
rectangle "Web Environment" <<$WebEnvironment{scale=3}>> as WebEnvironment
@enduml

@startuml
!pragma revision 1


skinparam defaultTextAlignment center
skinparam defaultFontName Segoe UI
skinparam defaultBackgroundColor white
skinparam RectangleBackgroundColor white
skinparam RectangleBorderColor #3C7FC0
skinparam WrapWidth 100

skinparam rectangle {
    FontSize 12
    BorderThickness 1
    Shadowing false
}
sprite $AzureCloudShell Preview/00559-icon-service-Azure-Cloud-Shell.svg
rectangle "Azure Cloud Shell" <<$AzureCloudShell{scale=3}>> as AzureCloudShell
sprite $StaticApps Preview/01007-icon-service-Static-Apps.svg
rectangle "Static Apps" <<$StaticApps{scale=3}>> as StaticApps
sprite $AzureWorkbooks Preview/02189-icon-service-Azure-Workbooks.svg
rectangle "Azure Workbooks" <<$AzureWorkbooks{scale=3}>> as AzureWorkbooks
sprite $PrivateLinkHub Preview/02209-icon-service-Private-Link-Hub.svg
rectangle "Private Link Hub" <<$PrivateLinkHub{scale=3}>> as PrivateLinkHub
sprite $IoTEdge Preview/10186-icon-service-IoT-Edge.svg
rectangle "IoT Edge" <<$IoTEdge{scale=3}>> as IoTEdge
sprite $AzureSphere Preview/10190-icon-service-Azure-Sphere.svg
rectangle "Azure Sphere" <<$AzureSphere{scale=3}>> as AzureSphere
sprite $TimeSeriesDataSets Preview/10198-icon-service-Time-Series-Data-Sets.svg
rectangle "Time Series Data Sets" <<$TimeSeriesDataSets{scale=3}>> as TimeSeriesDataSets
sprite $RTOS Preview/10778-icon-service-RTOS.svg
rectangle "RTOS" <<$RTOS{scale=3}>> as RTOS
sprite $WebEnvironment Preview/10846-icon-service-Web-Environment.svg
rectangle "Web Environment" <<$WebEnvironment{scale=3}>> as WebEnvironment
@enduml

PlantUML version 1.2021.00(Sun Jan 10 02:25:05 PST 2021)
(GPL source distribution)
Java Runtime: Java(TM) SE Runtime Environment
JVM: Java HotSpot(TM) 64-Bit Server VM
Default Encoding: Cp1252
Language: en
Country: US
--></g></svg>