<svg xmlns="http://www.w3.org/2000/svg" xmlns:xlink="http://www.w3.org/1999/xlink" contentScriptType="application/ecmascript" contentStyleType="text/css" height="118px" preserveAspectRatio="none" style="width:249px;height:118px;" version="1.1" viewBox="0 0 249 118" width="249px" zoomAndPan="magnify"><defs/> --><g><!--MD5=[57ac697b2c72d341be6febe17161f317]
entity NotificationHubNamespaces--><rect fill="#FFFFFF" height="105.9219" style="stroke:#3C7FC0;stroke-width:1.0;" width="112" x="7" y="7"/> --><svg x="36" y="17"><defs><linearGradient id="a9fe2d6c-5ab5-424a-b9f8-0c4881eb70fd" x1="9" y1="0.81" x2="9" y2="21.28" gradientUnits="userSpaceOnUse"><stop offset="0" stop-color="#ffd70f" /> --><stop offset="0.34" stop-color="#eeb309" /> --><stop offset="0.77" stop-color="#dc8c03" /> --><stop offset="1" stop-color="#d57d01" /> --></linearGradient></defs><title>Icon-iot-196</title><g transform="scale(3,3)" ><g><path d="M17.5,2.5V13.33a.58.58,0,0,1-.59.58H12.39a.14.14,0,0,0-.14.14V15.8a.28.28,0,0,1-.45.22L9.08,13.94l-.09,0H1.09a.58.58,0,0,1-.59-.58V2.5a.58.58,0,0,1,.59-.58H16.91A.58.58,0,0,1,17.5,2.5Z" fill="url(#a9fe2d6c-5ab5-424a-b9f8-0c4881eb70fd)" /> --><path d="M2.05,9l3,2.52a.29.29,0,0,0,.47-.22v-1.1H17.48V8.5H2.23A.29.29,0,0,0,2.05,9Z" fill="#ffe452" /> --><path d="M16.24,6.46,13.13,3.94a.29.29,0,0,0-.47.22v1.1H.5V7H16.06A.29.29,0,0,0,16.24,6.46Z" fill="#fff" /> --></g></g></svg><text fill="#000000" font-family="Segoe UI" font-size="12" lengthAdjust="spacing" textLength="89" x="17" y="83.9492">Notification Hub</text><text fill="#000000" font-family="Segoe UI" font-size="12" lengthAdjust="spacing" textLength="67" x="29.5" y="99.9102">Namespaces</text><!--MD5=[4cb0a04760dc63fee3856cbd3d028a0e]
entity AzureMediaService--><rect fill="#FFFFFF" height="105.9219" style="stroke:#3C7FC0;stroke-width:1.0;" width="89" x="154.5" y="7"/> --><svg x="172" y="17"><defs><linearGradient id="af3748e9-b70c-45be-94d6-553fb78dc833" x1="-481.386" y1="-747.701" x2="-463.782" y2="-778.247" gradientTransform="matrix(0.5, 0.866, -0.866, 0.5, -419.682, 794.08)" gradientUnits="userSpaceOnUse"><stop offset="0" stop-color="#005ba1" /> --><stop offset="0.366" stop-color="#004e8f" /> --><stop offset="1" stop-color="#003067" /> --></linearGradient><linearGradient id="bccb774a-3f0f-4cfb-8caf-da5943d5aaf7" x1="-1395.588" y1="671.239" x2="-1374.204" y2="633.738" gradientTransform="matrix(-0.5, -0.866, 0.866, -0.5, -1249.226, -858.396)" gradientUnits="userSpaceOnUse"><stop offset="0" stop-color="#005ba1" /> --><stop offset="0.451" stop-color="#004685" /> --><stop offset="1" stop-color="#003067" /> --></linearGradient><linearGradient id="ecd98112-5cbf-4c9b-800a-df61d86f7d77" x1="6.003" y1="14.447" x2="7.447" y2="6.204" gradientUnits="userSpaceOnUse"><stop offset="0.26" stop-color="#50e6ff" /> --><stop offset="0.42" stop-color="#79eaff" /> --><stop offset="0.58" stop-color="#99edff" /> --><stop offset="0.733" stop-color="#b0efff" /> --><stop offset="0.876" stop-color="#bef1ff" /> --><stop offset="1" stop-color="#c3f1ff" /> --></linearGradient></defs><g transform="scale(3,3)" ><path d="M9.243,3.927l4.372,2.515,3.048-1.76A8.792,8.792,0,0,0,2.735,2.824,10.019,10.019,0,0,1,9.243,3.927Z" fill="url(#af3748e9-b70c-45be-94d6-553fb78dc833)" /> --><path d="M13.558,6.442l-.069,6.034,3.168.851A8.792,8.792,0,0,0,11.415.536,10.442,10.442,0,0,1,13.558,6.442Z" fill="#0078d4" /> --><path d="M13.552,11.646,9,14.276l.071,3.5a8.8,8.8,0,0,0,8.764-8.8,8.432,8.432,0,0,0-.288-2.09A9.573,9.573,0,0,1,13.552,11.646Z" fill="#5ea0ef" /> --><path d="M9,14.276l-4.555-2.63-3.02,1.812a8.78,8.78,0,0,0,13.672,1.881A9.908,9.908,0,0,1,9,14.276Z" fill="url(#bccb774a-3f0f-4cfb-8caf-da5943d5aaf7)" /> --><path d="M4.442,11.646l.069-6.237L1.394,4.588A8.744,8.744,0,0,0,.2,9a8.847,8.847,0,0,0,6.535,8.5A10.191,10.191,0,0,1,4.442,11.646Z" fill="#0078d4" /> --><path d="M4.6,6.3,9,3.757A10.579,10.579,0,0,0,3.058,2.512,8.758,8.758,0,0,0,.2,9a9.013,9.013,0,0,0,.314,2.32A10.25,10.25,0,0,1,4.6,6.3Z" fill="#5ea0ef" /> --></g><polygon points="13.552 11.646 13.552 6.386 8.997 3.757 4.442 6.386 4.442 11.646 8.997 14.276 13.552 11.646" fill="#c3f1ff" /> --><polygon points="9.003 9.071 9.003 14.276 4.442 11.646 4.442 6.404 9.003 9.071" fill="url(#ecd98112-5cbf-4c9b-800a-df61d86f7d77)" /> --><polygon points="8.997 9.071 8.997 14.276 13.558 11.646 13.558 6.404 8.997 9.071" fill="#50e6ff" /> --></svg><text fill="#000000" font-family="Segoe UI" font-size="12" lengthAdjust="spacing" textLength="66" x="164.5" y="83.9492">Azure Media</text><text fill="#000000" font-family="Segoe UI" font-size="12" lengthAdjust="spacing" textLength="37" x="180.5" y="99.9102">Service</text><!--MD5=[c7d15b1f545a66ff1f32abc9f66f1be8]
@startuml
!pragma revision 1
!include ../../includes/AzureCommon.puml
sprite $NotificationHubNamespaces Web/10053-icon-service-Notification-Hub-Namespaces.svg
rectangle "Notification Hub Namespaces" <<$NotificationHubNamespaces{scale=3}>> as NotificationHubNamespaces
sprite $AzureMediaService Web/10309-icon-service-Azure-Media-Service.svg
rectangle "Azure Media Service" <<$AzureMediaService{scale=3}>> as AzureMediaService
@enduml

@startuml
!pragma revision 1


skinparam defaultTextAlignment center
skinparam defaultFontName Segoe UI
skinparam defaultBackgroundColor white
skinparam RectangleBackgroundColor white
skinparam RectangleBorderColor #3C7FC0
skinparam WrapWidth 100

skinparam rectangle {
    FontSize 12
    BorderThickness 1
    Shadowing false
}
sprite $NotificationHubNamespaces Web/10053-icon-service-Notification-Hub-Namespaces.svg
rectangle "Notification Hub Namespaces" <<$NotificationHubNamespaces{scale=3}>> as NotificationHubNamespaces
sprite $AzureMediaService Web/10309-icon-service-Azure-Media-Service.svg
rectangle "Azure Media Service" <<$AzureMediaService{scale=3}>> as AzureMediaService
@enduml

PlantUML version 1.2021.00(Sun Jan 10 02:25:05 PST 2021)
(GPL source distribution)
Java Runtime: Java(TM) SE Runtime Environment
JVM: Java HotSpot(TM) 64-Bit Server VM
Default Encoding: Cp1252
Language: en
Country: US
--></g></svg>