<svg xmlns="http://www.w3.org/2000/svg" xmlns:xlink="http://www.w3.org/1999/xlink" contentScriptType="application/ecmascript" contentStyleType="text/css" height="452px" preserveAspectRatio="none" style="width:678px;height:452px;" version="1.1" viewBox="0 0 678 452" width="678px" zoomAndPan="magnify"><defs><filter height="300%" id="f19g057jd0zahe" width="300%" x="-1" y="-1"><feGaussianBlur result="blurOut" stdDeviation="2.0"/><feColorMatrix in="blurOut" result="blurOut2" type="matrix" values="0 0 0 0 0 0 0 0 0 0 0 0 0 0 0 0 0 0 .4 0"/><feOffset dx="4.0" dy="4.0" in="blurOut2" result="blurOut3"/><feBlend in="SourceGraphic" in2="blurOut3" mode="normal"/></filter></defs><g><!--MD5=[3e4e5020858011ed37e11e185bc2b1e4]
entity AnalysisServices--><rect fill="#FEFECE" filter="url(#f19g057jd0zahe)" height="75.6094" style="stroke:#000000;stroke-width:1.5;" width="126" x="12.5" y="13"/><svg x="50.5" y="23"><style type="text/css">	.st0{fill:#59B4D9;}</style><g><rect fill="new 0 0 50 38.7" style="enable-background:new 0 0 50 38.7;" /> 	<path class="st0" d="M29.4,9.1v4.6l-8.8-2.8V0H0v15.8h10.2l1.1,7.1H3.6v15.8h20.6v-11l5.3-2.8v0H50V9.1H29.4z M42.3,18.7		c-0.4,1.4-1.9,2.2-3.2,1.8c-0.5-0.1-0.9-0.4-1.3-0.8l-7,3.7l-1.4,0.7L24.1,27l-1.4,0.7l-6.4,3.4c0.4,1.4-0.4,2.8-1.8,3.2		s-2.8-0.4-3.2-1.8c-0.4-1.3,0.3-2.7,1.6-3.2l-0.5-3.1l-0.5-3.4l-1.1-7.1l-0.2-1.4l-0.5-2.9c-1.4-0.1-2.6-1.3-2.5-2.7		C7.7,7.3,9,6.2,10.4,6.3S13,7.5,12.9,9c0,0.1,0,0.1,0,0.2l6.3,2l1.4,0.4l8.8,2.8l1.4,0.4l6.6,2.1c0.6-1.3,2.1-2,3.4-1.4		C42,16,42.7,17.4,42.3,18.7L42.3,18.7z"/>	<path class="st0" d="M37.2,18l-6.4-2l-1.4-0.4l-8.8-2.8l-1.4-0.4l-6.6-2.1c-0.2,0.4-0.6,0.8-1,1c-0.1,0-0.2,0.1-0.3,0.1l0.5,3.1		l0.2,1.4l1.1,7.1l0.5,3.4l0.5,2.9c0.2,0,0.4,0,0.5,0.1c0.5,0.1,0.9,0.4,1.3,0.8l6.9-3.7l1.4-0.7l5.3-2.8l1.4-0.7l6.5-3.5		C37.2,18.5,37.2,18.3,37.2,18z M29.4,22.1L24.1,25v-2.1H13.7l-1.1-7.1h8v-2.3l8.8,2.8V22.1z"/></g></svg><text fill="#000000" font-family="sans-serif" font-size="14" lengthAdjust="spacing" textLength="106" x="22.5" y="75.5332">AnalysisServices</text><!--MD5=[972d391eefceb2e5df83d5449b79352f]
entity AzureDataExplorerClusters--><rect fill="#FEFECE" filter="url(#f19g057jd0zahe)" height="87.6094" style="stroke:#000000;stroke-width:1.5;" width="190" x="173.5" y="7"/><svg x="243.5" y="17"><g><title/><title>1- Icon - Query 60x60 Color</title><path fill="#0078d4" d="M 60 0 H 0 l 60 60 V 0 Z"/><rect class="msportalfx-svg-c13" fill="#b8d432" transform="rotate(-45 13.428 46.58)" x="-3.108" y="43.585" width="33.071" height="5.991" rx="0.941"/><rect class="msportalfx-svg-c13" fill="#b8d432" transform="rotate(-45 9.216 33.814)" x="-1.347" y="30.819" width="21.126" height="5.991" rx="0.941"/><path class="msportalfx-svg-c15" fill="#59b4d9" d="M 17.747 17.747 l 24.506 24.506 L 60 24.506 V 0 H 35.494 L 17.747 17.747 Z"/><rect class="msportalfx-svg-c13" fill="#b8d432" transform="rotate(-45 26.062 50.785)" x="15.498" y="47.789" width="21.126" height="5.991" rx="0.941"/><path class="msportalfx-svg-c01" opacity="0.2" fill="#ffffff" d="M 60 60 V 0 L 30 30 l 30 30 Z"/><rect class="msportalfx-svg-c01" fill="#ffffff" transform="rotate(-45 33.479 18)" x="30.484" y="15.004" width="5.991" height="5.991" rx="1.333"/><rect class="msportalfx-svg-c01" fill="#ffffff" transform="rotate(-45 41.952 9.527)" x="38.957" y="6.532" width="5.991" height="5.991" rx="1.333"/><rect class="msportalfx-svg-c01" fill="#ffffff" transform="rotate(-45 41.952 26.473)" x="38.957" y="23.477" width="5.991" height="5.991" rx="1.333"/><rect class="msportalfx-svg-c01" fill="#ffffff" transform="rotate(-45 50.425 18)" x="47.429" y="15.004" width="5.991" height="5.991" rx="1.333"/></g></svg><text fill="#000000" font-family="sans-serif" font-size="14" lengthAdjust="spacing" textLength="170" x="183.5" y="81.5332">AzureDataExplorerClusters</text><!--MD5=[d8f17c6eb4cd88430d177feb431daa35]
entity AzureDatabricks--><rect fill="#FEFECE" filter="url(#f19g057jd0zahe)" height="62.6094" style="stroke:#000000;stroke-width:1.5;" width="123" x="399" y="19.5"/><svg x="448.5" y="29.5"><title>Artboard 4</title><g>	<polygon fill="#DF262B" points="0,18.937 12,25.26 24,18.937 24,14.886 0,14.886 	"/>	<polygon fill="#F25F32" points="12,8.562 0,14.886 12,21.209 24,14.886 	"/></g><g>	<polygon fill="#DF262B" points="0,10.375 12,16.698 24,10.375 24,6.323 0,6.323 	"/>	<polygon fill="#F25F32" points="12,0 0,6.323 12,12.647 24,6.323 	"/></g></svg><text fill="#000000" font-family="sans-serif" font-size="14" lengthAdjust="spacing" textLength="103" x="409" y="69.0332">AzureDatabricks</text><!--MD5=[a4addf2d921dfeac3c31241fbe4e1ace]
entity DataFactories--><rect fill="#FEFECE" filter="url(#f19g057jd0zahe)" height="87.6094" style="stroke:#000000;stroke-width:1.5;" width="109" x="557" y="7"/><svg x="586.5" y="17"><path fill="#59B4D9" d="M49.9,29.5L49.9,29.5V17.4L36.2,29.3h-0.3V17.4L22.2,29.3l0,0V4.4c0-2.1-4.7-4.2-10.9-4.2	C5.1,0.2,0,2.2,0,4.4V50h50L49.9,29.5z M11.3,6.4c-4.5,0-8.1-1.1-8.1-2.3s3.6-2.3,8.1-2.3s8.1,1,8.1,2.3C19.3,5.3,15.7,6.4,11.3,6.4	z M34.9,41.9h-5.5v-5.5h5.5V41.9z M25.2,41.9h-5.5v-5.5h5.5V41.9z M39.2,41.9v-5.5h5.5v5.5H39.2z"/><rect x="0" y="4.1" fill="#3999C6" width="11.1" height="45.9"/><path fill="#FFFFFF" d="M22.1,4.1c0,2.2-5,4-11.1,4S0,6.3,0,4.1c0-2.2,5-4,11.1-4S22.1,1.8,22.1,4.1"/><path fill="#7FBA00" d="M19.9,3.8c0,1.5-3.9,2.6-8.8,2.6S2.3,5.3,2.3,3.8c0-1.5,3.9-2.6,8.8-2.6S19.9,2.4,19.9,3.8"/><path fill="#B8D432" d="M18,5.4c1.2-0.4,1.8-1,1.8-1.6c0-1.5-3.9-2.6-8.8-2.6c-4.9,0-8.8,1.2-8.8,2.6C2.3,4.4,3,5,4.1,5.4	c1.6-0.6,4.1-1,7-1C13.9,4.4,16.4,4.8,18,5.4"/></svg><text fill="#000000" font-family="sans-serif" font-size="14" lengthAdjust="spacing" textLength="89" x="567" y="81.5332">DataFactories</text><!--MD5=[38748c79b57de4c4477efb805abe1246]
entity DataLakeAnalytics--><rect fill="#FEFECE" filter="url(#f19g057jd0zahe)" height="137.6094" style="stroke:#000000;stroke-width:1.5;" width="137" x="7" y="155"/><svg x="25.5" y="165"><style type="text/css">	.st0{fill:#A0A1A2;}	.st1{fill:#7A7A7A;}	.st2{fill:#FFFFFF;}	.st3{fill:#59B4D9;}</style><g><rect fill="new 0 0 100 100" style="enable-background:new 0 0 100 100;" /> 	<path class="st0" d="M82.7,91.8H17.2c-5,0-9.1-4.1-9.1-9.1V17.2c0-5,4.1-9.1,9.1-9.1h65.5c5,0,9.1,4.1,9.1,9.1v65.5		C91.8,87.7,87.7,91.8,82.7,91.8z M17.2,14.1c-1.7,0-3,1.4-3,3v65.5c0,1.7,1.4,3,3,3h65.5c1.7,0,3-1.4,3-3V17.1c0-1.7-1.4-3-3-3		H17.2z"/>	<g>		<path class="st1" d="M41.1,0.9c-2.2-1-4.8-1.2-7.1-0.3c-2.3,0.8-4.2,2.5-5.2,4.8l-1.4,2.9h29.5L41.1,0.9z"/>		<path class="st1" d="M99.4,34c-0.8-2.3-2.5-4.2-4.8-5.2l-2.9-1.4V57l7.4-15.8C100.2,38.9,100.3,36.4,99.4,34z"/>		<path class="st1" d="M0.9,65.7c-1,2.2-1.2,4.8-0.3,7.1C1.4,75.1,3.1,77,5.4,78l2.9,1.4V49.9L0.9,65.7z"/>		<path class="st1" d="M65.7,99.1c1.2,0.6,2.6,0.9,3.9,0.9c1.1,0,2.1-0.2,3.2-0.6c2.3-0.8,4.2-2.5,5.2-4.8l0,0l1.4-2.9H49.9			L65.7,99.1z"/>	</g>	<path class="st2" d="M17.2,14.1c-1.7,0-3,1.4-3,3v65.5c0,1.7,1.4,3,3,3h65.5c1.7,0,3-1.4,3-3V17.1c0-1.7-1.4-3-3-3H17.2z"/>	<path class="st3" d="M64.4,43.7L64.4,43.7H51.7L57,26c0.1-0.5-0.1-1-0.5-1.2c-0.1-0.1-0.3-0.1-0.4-0.1c-0.3,0-0.6,0.2-0.8,0.4		L34.8,55c-0.2,0.3-0.2,0.7-0.1,1c0.2,0.3,0.5,0.5,0.9,0.5h12.3l-5.5,18c-0.1,0.5,0.1,1,0.5,1.2c0.1,0.1,0.3,0.1,0.4,0.1		c0.3,0,0.6-0.2,0.8-0.4l21.1-30.2c0.1-0.2,0.2-0.4,0.2-0.6C65.4,44.1,64.9,43.7,64.4,43.7z"/></g></svg><text fill="#000000" font-family="sans-serif" font-size="14" lengthAdjust="spacing" textLength="117" x="17" y="279.5332">DataLakeAnalytics</text><!--MD5=[4411e68b9c0a30c662585eb1f761551f]
entity DataLakeStoreGen1--><rect fill="#FEFECE" filter="url(#f19g057jd0zahe)" height="115.6094" style="stroke:#000000;stroke-width:1.5;" width="150" x="179.5" y="166"/><svg x="204.5" y="176"><style type="text/css">	.st0{fill:#3999C6;}	.st1{fill:#59B4D9;}</style><g><rect fill="new 0 0 100 78.5" style="enable-background:new 0 0 100 78.5;" /> 	<path class="st0" d="M59.1,8.1l-2.9-5C55.1,1.2,53,0,50.8,0H6.2C2.8,0,0,2.8,0,6.2v2.9v0.3h60.2C59.7,9.1,59.4,8.6,59.1,8.1z"/>	<path class="st1" d="M96.1,12.6H0v4.6v55.1c0,3.4,2.8,6.2,6.2,6.2h87.6c3.4,0,6.2-2.8,6.2-6.2v-54C100,15.8,98.4,13.6,96.1,12.6z		 M62.7,42.6L45,67.9c-0.2,0.2-0.4,0.4-0.7,0.4c-0.1,0-0.3,0-0.4-0.1c-0.4-0.2-0.6-0.6-0.4-1l4.6-15.1H37.8c-0.3,0-0.6-0.2-0.8-0.5		c-0.1-0.3-0.1-0.6,0.1-0.9l17.2-25c0.2-0.2,0.4-0.4,0.7-0.4c0.1,0,0.2,0,0.4,0.1c0.4,0.2,0.6,0.6,0.4,1l-4.4,14.8H62l0,0		c0.5,0,0.9,0.4,0.9,0.9C62.9,42.3,62.8,42.4,62.7,42.6z"/></g></svg><text fill="#000000" font-family="sans-serif" font-size="14" lengthAdjust="spacing" textLength="130" x="189.5" y="268.5332">DataLakeStoreGen1</text><!--MD5=[d91c5fb1be8c92f12dde8b09bd0edcf7]
entity EventHubClusters--><rect fill="#FEFECE" filter="url(#f19g057jd0zahe)" height="85.6094" style="stroke:#000000;stroke-width:1.5;" width="133" x="365" y="181"/><svg x="406.5" y="191"><style type="text/css">	.st0{fill:#7FBA00;}	.st1{fill:#7A7A7A;}	.st2{fill:#3999C6;}</style><g><rect fill="new 0 0 50 48" style="enable-background:new 0 0 50 48;" /> 	<path class="st0" d="M9.5,17h-4C5.2,17,5,16.8,5,16.5v-3C5,13.2,5.2,13,5.5,13h4c0.3,0,0.5,0.2,0.5,0.5v3C10,16.8,9.8,17,9.5,17z		 M9.5,24h-4C5.2,24,5,23.8,5,23.5v-3C5,20.2,5.2,20,5.5,20h4c0.3,0,0.5,0.2,0.5,0.5v3C10,23.8,9.8,24,9.5,24z M9.5,10h-4		C5.2,10,5,9.8,5,9.5v-3C5,6.2,5.2,6,5.5,6h4C9.8,6,10,6.2,10,6.5v3C10,9.8,9.8,10,9.5,10z"/>	<path class="st1" d="M0,0.5v6C0,6.8,0.2,7,0.5,7h2C2.8,7,3,6.8,3,6.5v-3C3,3.2,3.2,3,3.5,3h21C24.8,3,25,3.2,25,3.5v3		C25,6.8,25.2,7,25.5,7h2C27.8,7,28,6.8,28,6.5v-6C28,0.2,27.8,0,27.5,0h-27C0.2,0,0,0.2,0,0.5z"/>	<path class="st0" d="M20.5,26h-4c-0.3,0-0.5-0.2-0.5-0.5v-3c0-0.3,0.2-0.5,0.5-0.5h4c0.3,0,0.5,0.2,0.5,0.5v3		C21,25.8,20.8,26,20.5,26z M20.5,33h-4c-0.3,0-0.5-0.2-0.5-0.5v-3c0-0.3,0.2-0.5,0.5-0.5h4c0.3,0,0.5,0.2,0.5,0.5v3		C21,32.8,20.8,33,20.5,33z M20.5,19h-4c-0.3,0-0.5-0.2-0.5-0.5v-3c0-0.3,0.2-0.5,0.5-0.5h4c0.3,0,0.5,0.2,0.5,0.5v3		C21,18.8,20.8,19,20.5,19z"/>	<path class="st1" d="M11,9.5v6c0,0.3,0.2,0.5,0.5,0.5h2c0.3,0,0.5-0.2,0.5-0.5v-3c0-0.3,0.2-0.5,0.5-0.5h21c0.3,0,0.5,0.2,0.5,0.5		v3c0,0.3,0.2,0.5,0.5,0.5h2c0.3,0,0.5-0.2,0.5-0.5v-6C39,9.2,38.8,9,38.5,9h-27C11.2,9,11,9.2,11,9.5z"/>	<path class="st0" d="M31.5,35h-4c-0.3,0-0.5-0.2-0.5-0.5v-3c0-0.3,0.2-0.5,0.5-0.5h4c0.3,0,0.5,0.2,0.5,0.5v3		C32,34.8,31.8,35,31.5,35z M38.5,31h-4c-0.3,0-0.5-0.2-0.5-0.5v-3c0-0.3,0.2-0.5,0.5-0.5h4c0.3,0,0.5,0.2,0.5,0.5v3		C39,30.8,38.8,31,38.5,31z M38.5,38h-4c-0.3,0-0.5-0.2-0.5-0.5v-3c0-0.3,0.2-0.5,0.5-0.5h4c0.3,0,0.5,0.2,0.5,0.5v3		C39,37.8,38.8,38,38.5,38z M45.5,35h-4c-0.3,0-0.5-0.2-0.5-0.5v-3c0-0.3,0.2-0.5,0.5-0.5h4c0.3,0,0.5,0.2,0.5,0.5v3		C46,34.8,45.8,35,45.5,35z M31.5,42h-4c-0.3,0-0.5-0.2-0.5-0.5v-3c0-0.3,0.2-0.5,0.5-0.5h4c0.3,0,0.5,0.2,0.5,0.5v3		C32,41.8,31.8,42,31.5,42z M31.5,28h-4c-0.3,0-0.5-0.2-0.5-0.5v-3c0-0.3,0.2-0.5,0.5-0.5h4c0.3,0,0.5,0.2,0.5,0.5v3		C32,27.8,31.8,28,31.5,28z"/>	<path class="st2" d="M22,18.5v6c0,0.3,0.2,0.5,0.5,0.5h2c0.3,0,0.5-0.2,0.5-0.5v-3c0-0.3,0.2-0.5,0.5-0.5h21c0.3,0,0.5,0.2,0.5,0.5		v3c0,0.3,0.2,0.5,0.5,0.5h2c0.3,0,0.5-0.2,0.5-0.5v-6c0-0.3-0.2-0.5-0.5-0.5h-27C22.2,18,22,18.2,22,18.5z M50,47.5v-6		c0-0.3-0.2-0.5-0.5-0.5h-2c-0.3,0-0.5,0.2-0.5,0.5v3c0,0.3-0.2,0.5-0.5,0.5h-21c-0.3,0-0.5-0.2-0.5-0.5v-3c0-0.3-0.2-0.5-0.5-0.5		h-2c-0.3,0-0.5,0.2-0.5,0.5v6c0,0.3,0.2,0.5,0.5,0.5h27C49.8,48,50,47.8,50,47.5z"/>	<path class="st1" d="M11,27H3.5C3.2,27,3,26.8,3,26.5v-3C3,23.2,2.8,23,2.5,23h-2C0.2,23,0,23.2,0,23.5v6C0,29.8,0.2,30,0.5,30H11		V27z M22,36h-7.5c-0.3,0-0.5-0.2-0.5-0.5v-3c0-0.3-0.2-0.5-0.5-0.5h-2c-0.3,0-0.5,0.2-0.5,0.5v6c0,0.3,0.2,0.5,0.5,0.5H22V36z"/></g></svg><text fill="#000000" font-family="sans-serif" font-size="14" lengthAdjust="spacing" textLength="113" x="375" y="253.5332">EventHubClusters</text><!--MD5=[35f8cd5d1c7f489214952462a7b225b6]
entity EventHubs--><rect fill="#FEFECE" filter="url(#f19g057jd0zahe)" height="67.6094" style="stroke:#000000;stroke-width:1.5;" width="88" x="533.5" y="190"/><svg x="563" y="200"><style type="text/css">	.st0{fill:#B8D432;}	.st1{fill:#0072C6;}</style><path class="st0" d="M18,13.5c0,0.3-0.2,0.5-0.5,0.5h-3.9c-0.3,0-0.5-0.2-0.5-0.5v-2.9c0-0.3,0.2-0.5,0.5-0.5h3.9	c0.3,0,0.5,0.2,0.5,0.5V13.5z"/><path class="st0" d="M25,16.5c0,0.3-0.2,0.5-0.5,0.5h-3.9c-0.3,0-0.5-0.2-0.5-0.5v-2.9c0-0.3,0.2-0.5,0.5-0.5h3.9	c0.3,0,0.5,0.2,0.5,0.5V16.5z"/><path class="st0" d="M18,19.5c0,0.3-0.2,0.5-0.5,0.5h-3.9c-0.3,0-0.5-0.2-0.5-0.5v-2.9c0-0.3,0.2-0.5,0.5-0.5h3.9	c0.3,0,0.5,0.2,0.5,0.5V19.5z"/><path class="st0" d="M11,10.5c0,0.3-0.2,0.5-0.5,0.5h-4C6.2,11,6,10.8,6,10.5v-3C6,7.2,6.2,7,6.5,7h3.9C10.8,7,11,7.2,11,7.5V10.5z"	/><path class="st1" d="M28.5,0L28.5,0h-3H3.4H1.5h-1C0.2,0,0,0.2,0,0.5v6C0,6.8,0.2,7,0.5,7h3C3.8,7,4,6.8,4,6.5V4h21v2.5	C25,6.8,25.2,7,25.6,7h2.9C28.8,7,29,6.8,29,6.5v-3v-3C29,0.2,28.8,0,28.5,0z"/><path class="st1" d="M28.5,23.1h-2.9c-0.3,0-0.5,0.2-0.5,0.5V26H4v-2.5C4,23.2,3.8,23,3.4,23H0.5C0.2,23,0,23.2,0,23.6v5.9	C0,29.8,0.2,30,0.5,30h1h2h22.1h2.8h0.1c0.3,0,0.5-0.2,0.5-0.5v-5.9C29,23.3,28.8,23.1,28.5,23.1z"/><path class="st0" d="M11,16.5c0,0.3-0.2,0.5-0.5,0.5h-4C6.2,17,6,16.8,6,16.5v-3C6,13.2,6.2,13,6.5,13h3.9c0.4,0,0.6,0.2,0.6,0.5	V16.5z"/><path class="st0" d="M11,22.5c0,0.3-0.2,0.5-0.5,0.5h-4C6.2,23,6,22.8,6,22.5v-3C6,19.2,6.2,19,6.5,19h3.9c0.4,0,0.6,0.2,0.6,0.5	V22.5z"/></svg><text fill="#000000" font-family="sans-serif" font-size="14" lengthAdjust="spacing" textLength="68" x="543.5" y="244.5332">EventHubs</text><!--MD5=[c9a26d8a497c674c19529193d28e7647]
entity HDInsightClusters--><rect fill="#FEFECE" filter="url(#f19g057jd0zahe)" height="86.6094" style="stroke:#000000;stroke-width:1.5;" width="132" x="9.5" y="353.5"/><svg x="51" y="363.5"><path d="M38.637 18.1872C41.414 18.1872 43.9529 18.9012 46.2538 20.25V20.1707L39.4304 8.26953H34.0353C34.0353 10.4911 33.2419 12.7126 31.7344 14.3788L34.2733 18.7425C35.6221 18.3458 37.1296 18.1872 38.637 18.1872Z" fill="#59B3D8"/><path d="M10.389 23.9029C10.865 23.8235 11.4204 23.8235 11.8964 23.9029L14.1973 19.9358L17.4503 14.2233C15.9428 12.5571 15.1494 10.4149 15.1494 8.19336H9.67489L2.85156 20.0945L5.78718 25.1723C7.21532 24.3789 8.80214 23.9029 10.389 23.9029Z" fill="#59B3D8"/><path d="M20.7836 16.8379L15.7852 25.5654C17.9274 27.0729 19.4348 29.3738 19.7522 31.992H23.4812C23.8779 27.1522 26.5755 23.0265 30.4632 20.5669L28.321 16.8379C25.9408 17.9487 23.1639 17.9487 20.7836 16.8379Z" fill="#59B3D8"/><path d="M23.7212 36.041H19.4368C18.7227 38.3419 17.2152 40.2461 15.1523 41.4362L17.6913 45.8793H30.0684C26.8155 43.6577 24.4352 40.1667 23.7212 36.041Z" fill="#59B3D8"/><path d="M27.8207 11.5874C29.6488 9.75929 29.6488 6.7954 27.8207 4.96732C25.9926 3.13925 23.0287 3.13925 21.2006 4.96733C19.3726 6.7954 19.3726 9.75929 21.2006 11.5874C23.0287 13.4154 25.9926 13.4154 27.8207 11.5874Z" fill="#414141"/><path d="M39.7149 37.8911C42.2309 37.297 43.789 34.7757 43.1949 32.2597C42.6008 29.7437 40.0795 28.1856 37.5635 28.7797C35.0475 29.3739 33.4894 31.8951 34.0835 34.4111C34.6776 36.9272 37.1989 38.4852 39.7149 37.8911Z" fill="#414141"/><path d="M13.7152 36.6694C15.5433 34.8413 15.5433 31.8774 13.7152 30.0494C11.8871 28.2213 8.92325 28.2213 7.09517 30.0494C5.2671 31.8774 5.2671 34.8413 7.09517 36.6694C8.92325 38.4975 11.8871 38.4975 13.7152 36.6694Z" fill="#414141"/><path d="M34.1914 18.8242L34.9848 20.173L37.2857 24.14C37.7618 24.0607 38.2378 24.0607 38.7138 24.14C40.38 24.14 41.9668 24.6161 43.395 25.4095L46.1719 20.2523C43.9503 18.9829 41.3321 18.1895 38.5552 18.1895C37.127 18.1895 35.6195 18.3481 34.1914 18.8242Z" fill="#59B3D8"/><path d="M34.1914 18.8242L34.9848 20.173L37.2857 24.14C37.7618 24.0607 38.2378 24.0607 38.7138 24.14C40.38 24.14 41.9668 24.6161 43.395 25.4095L46.1719 20.2523C43.9503 18.9829 41.3321 18.1895 38.5552 18.1895C37.127 18.1895 35.6195 18.3481 34.1914 18.8242Z" fill="#8BC9E0"/><path d="M30.0672 45.8793H31.2574L33.7963 41.5155C31.7334 40.3254 30.2259 38.3419 29.5912 36.041H23.6406C24.434 40.1667 26.8143 43.6577 30.0672 45.8793Z" fill="#59B3D8"/><path d="M30.0672 45.8793H31.2574L33.7963 41.5155C31.7334 40.3254 30.2259 38.3419 29.5912 36.041H23.6406C24.434 40.1667 26.8143 43.6577 30.0672 45.8793Z" fill="#8BC9E0"/><path d="M23.4844 31.9935H29.2763C29.673 29.3752 31.1011 27.0743 33.3227 25.5668L30.387 20.5684C26.5787 23.0279 23.9604 27.1537 23.4844 31.9935Z" fill="#59B3D8"/><path d="M23.4844 31.9935H29.2763C29.673 29.3752 31.1011 27.0743 33.3227 25.5668L30.387 20.5684C26.5787 23.0279 23.9604 27.1537 23.4844 31.9935Z" fill="#8BC9E0"/></svg><text fill="#000000" font-family="sans-serif" font-size="14" lengthAdjust="spacing" textLength="112" x="19.5" y="427.0332">HDInsightClusters</text><!--MD5=[8d03ed8981b71250d4444418ab80479c]
entity LogAnalyticsWorkspaces--><rect fill="#FEFECE" filter="url(#f19g057jd0zahe)" height="87.6094" style="stroke:#000000;stroke-width:1.5;" width="178" x="176.5" y="353"/><svg x="240.5" y="363"><rect x="1" y="26" fill-rule="evenodd" clip-rule="evenodd" fill="#A0A1A2" width="10" height="10"/><rect x="1" y="13" fill-rule="evenodd" clip-rule="evenodd" fill="#A0A1A2" width="10" height="10"/><rect x="1" y="39" fill-rule="evenodd" clip-rule="evenodd" fill="#A0A1A2" width="10" height="10"/><rect x="14" y="39" fill-rule="evenodd" clip-rule="evenodd" fill="#A0A1A2" width="10" height="10"/><rect x="27" y="39" fill-rule="evenodd" clip-rule="evenodd" fill="#A0A1A2" width="10" height="10"/><g>	<g>		<g>			<path fill-rule="evenodd" clip-rule="evenodd" fill="#0072C6" d="M31.5,1C21.705,1,14,8.705,14,18.5V36c0,0,12.994,0,17.5,0				C41.295,36,49,28.295,49,18.5C49,8.705,41.295,1,31.5,1z"/>		</g>	</g></g><path fill-rule="evenodd" clip-rule="evenodd" fill="#FFFFFF" d="M21,16l3,0v11h-3V16z"/><path fill-rule="evenodd" clip-rule="evenodd" fill="#FFFFFF" d="M28,19h3v8h-3V19z"/><path fill-rule="evenodd" clip-rule="evenodd" fill="#FFFFFF" d="M35,12h3v15h-3V12z"/></svg><text fill="#000000" font-family="sans-serif" font-size="14" lengthAdjust="spacing" textLength="158" x="186.5" y="427.5332">LogAnalyticsWorkspaces</text><!--MD5=[6f4f177b0d902bf83ffec0e70e605c88]
entity StreamAnalyticsJobs--><rect fill="#FEFECE" filter="url(#f19g057jd0zahe)" height="87.6094" style="stroke:#000000;stroke-width:1.5;" width="150" x="389.5" y="353"/><svg x="439.5" y="363"><path fill="#7A7A7A" d="M43.3,32l1.2-3.1L50,27v-4.4l-0.6-0.2L44.5,21l-1.2-3.1l2.5-5.1l0,0l-3.1-3.1l-0.6,0.3l-4.5,2.3L34.4,11	l-2-5.3h-4.5l-0.2,0.6L26.2,11l-3.1,1.2l-5.3-2.3L14.6,13l0.3,0.6l1.4,2.6c2.5-1.4,5.1-2,7.9-2c3.9,0.2,7.5,1.6,10.3,4.2	c0.6,0.5,1.2,0.9,1.9,1.6c0.3,0.3,0.6,0.8,0.8,1.1c1.9,3.3,1.1,7.5-2,10c-2.3,1.9-5.5,2.2-7.9,1.1c-0.3-0.2-0.5-0.2-0.6-0.3l0,0l0,0	c-0.6-0.3-1.2-0.8-1.7-1.2c-0.2,0-0.3-0.2-0.6-0.2c-0.6,0-1.2,0.3-1.7,0.8l-0.2,0.2l0,0c-1.9,1.9-4,3.3-6.4,4l-0.9,1.9l3,3l0.2,0.2	l0.6-0.3l4.5-2.3l3.1,1.2l1.7,5.3h4.5l0.2-0.6l1.6-4.7l3.1-1.2l5.3,2.3L46,37l-0.3-0.6L43.3,32z"/><path fill="#48C8EF" d="M16.5,24.2L16.5,24.2L16.5,24.2c-3.4,3.6-8.9,3.6-12.1-0.2c-0.3-0.5-1.1-0.5-1.4,0c-0.2,0.2-0.3,0.5-0.3,0.8	s0.2,0.6,0.3,0.8c4,4.5,10.7,4.6,15,0.2l0,0l0,0c3.4-3.4,8.7-3.5,12,0.3c0.5,0.5,1.1,0.5,1.4,0c0.2-0.2,0.3-0.5,0.3-0.8	s-0.2-0.6-0.3-0.8C27.4,20,20.7,19.9,16.5,24.2z"/><path fill="#00ABEC" d="M24,26.1c-1.9,0-3.4,0.6-4.8,2L19,28.3l-0.2,0.2c-2.3,2.5-5.5,3.7-8.7,3.6c-3.3,0-6.2-1.6-8.6-4	c-0.5-0.5-1.1-0.5-1.4,0C0,28.1,0,28.3,0,28.6s0.3,0.8,0.5,0.9c2.6,3,6.2,4.7,10,4.7c3.7,0.2,7.3-1.4,10.1-4.4l0.2-0.2l0.2-0.2	c0.9-0.9,2-1.4,3.3-1.4c1.2,0,2.3,0.6,3.3,1.6c0.5,0.5,1.1,0.5,1.4,0c0.2-0.2,0.3-0.5,0.3-0.8s-0.2-0.6-0.3-0.8	C27.6,26.9,25.9,26.1,24,26.1z"/><path fill="#84D6EF" d="M15.6,22c2.3-2.5,5.5-3.7,8.7-3.7s6.2,1.6,8.4,4c0.5,0.5,1.1,0.5,1.4,0c0.2-0.2,0.3-0.5,0.3-0.8	s-0.2-0.6-0.3-0.8c-2.6-3-6.2-4.7-10-4.7s-7.3,1.4-10.1,4.4l-0.2,0.2l-0.2,0.2c-0.9,0.9-2,1.4-3.3,1.4s-2.3-0.6-3.3-1.6	c-0.5-0.5-1.1-0.5-1.4,0c-0.2,0.2-0.3,0.5-0.3,0.8s0.2,0.6,0.3,0.8c1.2,1.4,3,2.2,4.7,2.2c1.9,0,3.4-0.6,4.8-2l0.2-0.2L15.6,22z"/><g opacity="0.2" enable-background="new    ">	<path fill="#F1F1F1" d="M24.9,30.6c-0.2,0-0.3-0.2-0.6-0.2c-0.6,0-1.2,0.3-1.7,0.8l-0.2,0.2c-1.9,1.9-4,3.3-6.4,4l-0.9,1.9l1.6,1.6		L24.9,30.6C24.9,30.6,24.9,30.6,24.9,30.6z"/>	<path fill="#F1F1F1" d="M16.4,16.3c2.5-1.4,5.1-2,7.9-2c3.9,0.2,7.5,1.6,10.3,4.2c0.5,0.4,0.9,0.7,1.4,1.1l8.3-8.3l-1.7-1.7		l-0.6,0.3l-4.5,2.3L34.4,11l-2-5.3h-4.5l-0.2,0.6L26.2,11l-3.1,1.2l-5.3-2.3L14.6,13l0.3,0.6L16.4,16.3z"/></g></svg><text fill="#000000" font-family="sans-serif" font-size="14" lengthAdjust="spacing" textLength="130" x="399.5" y="427.5332">StreamAnalyticsJobs</text><!--MD5=[45bfc9582b265c031455e347fbced2c5]
link AnalysisServices to AzureDataExplorerClusters--><!--MD5=[772688949b574dd92d90bb21fe626692]
link AzureDataExplorerClusters to AzureDatabricks--><!--MD5=[8d91257120b155c7a5da5fd7a1759acc]
link AzureDatabricks to DataFactories--><!--MD5=[c94869c9fabd9d24a84d42745845dfa2]
link AnalysisServices to DataLakeAnalytics--><!--MD5=[ab5404609e8e81fe705ebad687498c64]
link DataLakeAnalytics to DataLakeStoreGen1--><!--MD5=[b5302588f0b89b9ac52c0013980326c1]
link DataLakeStoreGen1 to EventHubClusters--><!--MD5=[c0f358881c116ac8cbafeaf89123664c]
link EventHubClusters to EventHubs--><!--MD5=[c675b64c728f271f06e79707c57c3bd6]
link DataLakeAnalytics to HDInsightClusters--><!--MD5=[6d2f765c74ccfde5730d8ce136c88663]
link HDInsightClusters to LogAnalyticsWorkspaces--><!--MD5=[bd08ae3789ac20633460fc15dd59fe53]
link LogAnalyticsWorkspaces to StreamAnalyticsJobs--><!--MD5=[882ca348df51299b8e75f042a4fd6efb]
@startuml
sprite $AnalysisServices Analysis-Services2.svg
rectangle "AnalysisServices" <<$AnalysisServices>> as AnalysisServices
sprite $AzureDataExplorerClusters Azure-Data-Explorer-Clusters.svg
rectangle "AzureDataExplorerClusters" <<$AzureDataExplorerClusters>> as AzureDataExplorerClusters
sprite $AzureDatabricks Azure-Databricks.svg
rectangle "AzureDatabricks" <<$AzureDatabricks>> as AzureDatabricks
sprite $DataFactories Data-Factories.svg
rectangle "DataFactories" <<$DataFactories>> as DataFactories
sprite $DataLakeAnalytics Data-Lake-Analytics2.svg
rectangle "DataLakeAnalytics" <<$DataLakeAnalytics>> as DataLakeAnalytics
sprite $DataLakeStoreGen1 Data-Lake-Store-Gen1-2.svg
rectangle "DataLakeStoreGen1" <<$DataLakeStoreGen1>> as DataLakeStoreGen1
sprite $EventHubClusters Event-Hub-Clusters2.svg
rectangle "EventHubClusters" <<$EventHubClusters>> as EventHubClusters
sprite $EventHubs Event-Hubs2.svg
rectangle "EventHubs" <<$EventHubs>> as EventHubs
sprite $HDInsightClusters HDInsightClusters.svg
rectangle "HDInsightClusters" <<$HDInsightClusters>> as HDInsightClusters
sprite $LogAnalyticsWorkspaces Log-Analytics-Workspaces.svg
rectangle "LogAnalyticsWorkspaces" <<$LogAnalyticsWorkspaces>> as LogAnalyticsWorkspaces
sprite $StreamAnalyticsJobs Stream-Analytics-Jobs.svg
rectangle "StreamAnalyticsJobs" <<$StreamAnalyticsJobs>> as StreamAnalyticsJobs
@enduml

PlantUML version 1.2021.00(Sun Jan 10 02:25:05 PST 2021)
(GPL source distribution)
Java Runtime: Java(TM) SE Runtime Environment
JVM: Java HotSpot(TM) 64-Bit Server VM
Default Encoding: Cp1252
Language: en
Country: US
--></g></svg>