<?xml version="1.0" encoding="utf-8"?>
<!-- Generator: Adobe Illustrator 25.2.1, SVG Export Plug-In . SVG Version: 6.00 Build 0)  -->
<svg version="1.1" id="FxSymbol0-096" focusable="false" xmlns:svg="http://www.w3.org/2000/svg"
	 xmlns="http://www.w3.org/2000/svg" xmlns:xlink="http://www.w3.org/1999/xlink" x="0px" y="0px" width="50px" height="38.7px"
	 viewBox="0 0 50 38.7" style="enable-background:new 0 0 50 38.7;" xml:space="preserve">
<style type="text/css">
	.st0{fill:#59B4D9;}
</style>
<g>
	<path class="st0" d="M29.4,9.1v4.6l-8.8-2.8V0H0v15.8h10.2l1.1,7.1H3.6v15.8h20.6v-11l5.3-2.8v0H50V9.1H29.4z M42.3,18.7
		c-0.4,1.4-1.9,2.2-3.2,1.8c-0.5-0.1-0.9-0.4-1.3-0.8l-7,3.7l-1.4,0.7L24.1,27l-1.4,0.7l-6.4,3.4c0.4,1.4-0.4,2.8-1.8,3.2
		s-2.8-0.4-3.2-1.8c-0.4-1.3,0.3-2.7,1.6-3.2l-0.5-3.1l-0.5-3.4l-1.1-7.1l-0.2-1.4l-0.5-2.9c-1.4-0.1-2.6-1.3-2.5-2.7
		C7.7,7.3,9,6.2,10.4,6.3S13,7.5,12.9,9c0,0.1,0,0.1,0,0.2l6.3,2l1.4,0.4l8.8,2.8l1.4,0.4l6.6,2.1c0.6-1.3,2.1-2,3.4-1.4
		C42,16,42.7,17.4,42.3,18.7L42.3,18.7z"/>
	<path class="st0" d="M37.2,18l-6.4-2l-1.4-0.4l-8.8-2.8l-1.4-0.4l-6.6-2.1c-0.2,0.4-0.6,0.8-1,1c-0.1,0-0.2,0.1-0.3,0.1l0.5,3.1
		l0.2,1.4l1.1,7.1l0.5,3.4l0.5,2.9c0.2,0,0.4,0,0.5,0.1c0.5,0.1,0.9,0.4,1.3,0.8l6.9-3.7l1.4-0.7l5.3-2.8l1.4-0.7l6.5-3.5
		C37.2,18.5,37.2,18.3,37.2,18z M29.4,22.1L24.1,25v-2.1H13.7l-1.1-7.1h8v-2.3l8.8,2.8V22.1z"/>
</g>
</svg>
