<?xml version="1.0" encoding="utf-8"?>
<!-- Generator: Adobe Illustrator 25.2.1, SVG Export Plug-In . SVG Version: 6.00 Build 0)  -->
<svg version="1.1" id="Layer_1" xmlns="http://www.w3.org/2000/svg" xmlns:xlink="http://www.w3.org/1999/xlink" x="0px" y="0px"
	 width="100px" height="78.5px" viewBox="0 0 100 78.5" style="enable-background:new 0 0 100 78.5;" xml:space="preserve">
<style type="text/css">
	.st0{fill:#3999C6;}
	.st1{fill:#59B4D9;}
</style>
<g>
	<path class="st0" d="M59.1,8.1l-2.9-5C55.1,1.2,53,0,50.8,0H6.2C2.8,0,0,2.8,0,6.2v2.9v0.3h60.2C59.7,9.1,59.4,8.6,59.1,8.1z"/>
	<path class="st1" d="M96.1,12.6H0v4.6v55.1c0,3.4,2.8,6.2,6.2,6.2h87.6c3.4,0,6.2-2.8,6.2-6.2v-54C100,15.8,98.4,13.6,96.1,12.6z
		 M62.7,42.6L45,67.9c-0.2,0.2-0.4,0.4-0.7,0.4c-0.1,0-0.3,0-0.4-0.1c-0.4-0.2-0.6-0.6-0.4-1l4.6-15.1H37.8c-0.3,0-0.6-0.2-0.8-0.5
		c-0.1-0.3-0.1-0.6,0.1-0.9l17.2-25c0.2-0.2,0.4-0.4,0.7-0.4c0.1,0,0.2,0,0.4,0.1c0.4,0.2,0.6,0.6,0.4,1l-4.4,14.8H62l0,0
		c0.5,0,0.9,0.4,0.9,0.9C62.9,42.3,62.8,42.4,62.7,42.6z"/>
</g>
</svg>
