<?xml version="1.0" encoding="utf-8"?>
<!-- Generator: Adobe Illustrator 25.2.1, SVG Export Plug-In . SVG Version: 6.00 Build 0)  -->
<svg version="1.1" id="Layer_1" xmlns="http://www.w3.org/2000/svg" xmlns:xlink="http://www.w3.org/1999/xlink" x="0px" y="0px"
	 width="100px" height="100px" viewBox="0 0 100 100" style="enable-background:new 0 0 100 100;" xml:space="preserve">
<style type="text/css">
	.st0{fill:#A0A1A2;}
	.st1{fill:#7A7A7A;}
	.st2{fill:#FFFFFF;}
	.st3{fill:#59B4D9;}
</style>
<g>
	<path class="st0" d="M82.7,91.8H17.2c-5,0-9.1-4.1-9.1-9.1V17.2c0-5,4.1-9.1,9.1-9.1h65.5c5,0,9.1,4.1,9.1,9.1v65.5
		C91.8,87.7,87.7,91.8,82.7,91.8z M17.2,14.1c-1.7,0-3,1.4-3,3v65.5c0,1.7,1.4,3,3,3h65.5c1.7,0,3-1.4,3-3V17.1c0-1.7-1.4-3-3-3
		H17.2z"/>
	<g>
		<path class="st1" d="M41.1,0.9c-2.2-1-4.8-1.2-7.1-0.3c-2.3,0.8-4.2,2.5-5.2,4.8l-1.4,2.9h29.5L41.1,0.9z"/>
		<path class="st1" d="M99.4,34c-0.8-2.3-2.5-4.2-4.8-5.2l-2.9-1.4V57l7.4-15.8C100.2,38.9,100.3,36.4,99.4,34z"/>
		<path class="st1" d="M0.9,65.7c-1,2.2-1.2,4.8-0.3,7.1C1.4,75.1,3.1,77,5.4,78l2.9,1.4V49.9L0.9,65.7z"/>
		<path class="st1" d="M65.7,99.1c1.2,0.6,2.6,0.9,3.9,0.9c1.1,0,2.1-0.2,3.2-0.6c2.3-0.8,4.2-2.5,5.2-4.8l0,0l1.4-2.9H49.9
			L65.7,99.1z"/>
	</g>
	<path class="st2" d="M17.2,14.1c-1.7,0-3,1.4-3,3v65.5c0,1.7,1.4,3,3,3h65.5c1.7,0,3-1.4,3-3V17.1c0-1.7-1.4-3-3-3H17.2z"/>
	<path class="st3" d="M64.4,43.7L64.4,43.7H51.7L57,26c0.1-0.5-0.1-1-0.5-1.2c-0.1-0.1-0.3-0.1-0.4-0.1c-0.3,0-0.6,0.2-0.8,0.4
		L34.8,55c-0.2,0.3-0.2,0.7-0.1,1c0.2,0.3,0.5,0.5,0.9,0.5h12.3l-5.5,18c-0.1,0.5,0.1,1,0.5,1.2c0.1,0.1,0.3,0.1,0.4,0.1
		c0.3,0,0.6-0.2,0.8-0.4l21.1-30.2c0.1-0.2,0.2-0.4,0.2-0.6C65.4,44.1,64.9,43.7,64.4,43.7z"/>
</g>
</svg>
