<?xml version="1.0" encoding="utf-8"?>
<!-- Generator: Adobe Illustrator 25.2.1, SVG Export Plug-In . SVG Version: 6.00 Build 0)  -->
<svg version="1.1" id="FxSymbol0-082" focusable="false" xmlns:svg="http://www.w3.org/2000/svg"
	 xmlns="http://www.w3.org/2000/svg" xmlns:xlink="http://www.w3.org/1999/xlink" x="0px" y="0px" width="50px" height="48px"
	 viewBox="0 0 50 48" style="enable-background:new 0 0 50 48;" xml:space="preserve">
<style type="text/css">
	.st0{fill:#7FBA00;}
	.st1{fill:#7A7A7A;}
	.st2{fill:#3999C6;}
</style>
<g>
	<path class="st0" d="M9.5,17h-4C5.2,17,5,16.8,5,16.5v-3C5,13.2,5.2,13,5.5,13h4c0.3,0,0.5,0.2,0.5,0.5v3C10,16.8,9.8,17,9.5,17z
		 M9.5,24h-4C5.2,24,5,23.8,5,23.5v-3C5,20.2,5.2,20,5.5,20h4c0.3,0,0.5,0.2,0.5,0.5v3C10,23.8,9.8,24,9.5,24z M9.5,10h-4
		C5.2,10,5,9.8,5,9.5v-3C5,6.2,5.2,6,5.5,6h4C9.8,6,10,6.2,10,6.5v3C10,9.8,9.8,10,9.5,10z"/>
	<path class="st1" d="M0,0.5v6C0,6.8,0.2,7,0.5,7h2C2.8,7,3,6.8,3,6.5v-3C3,3.2,3.2,3,3.5,3h21C24.8,3,25,3.2,25,3.5v3
		C25,6.8,25.2,7,25.5,7h2C27.8,7,28,6.8,28,6.5v-6C28,0.2,27.8,0,27.5,0h-27C0.2,0,0,0.2,0,0.5z"/>
	<path class="st0" d="M20.5,26h-4c-0.3,0-0.5-0.2-0.5-0.5v-3c0-0.3,0.2-0.5,0.5-0.5h4c0.3,0,0.5,0.2,0.5,0.5v3
		C21,25.8,20.8,26,20.5,26z M20.5,33h-4c-0.3,0-0.5-0.2-0.5-0.5v-3c0-0.3,0.2-0.5,0.5-0.5h4c0.3,0,0.5,0.2,0.5,0.5v3
		C21,32.8,20.8,33,20.5,33z M20.5,19h-4c-0.3,0-0.5-0.2-0.5-0.5v-3c0-0.3,0.2-0.5,0.5-0.5h4c0.3,0,0.5,0.2,0.5,0.5v3
		C21,18.8,20.8,19,20.5,19z"/>
	<path class="st1" d="M11,9.5v6c0,0.3,0.2,0.5,0.5,0.5h2c0.3,0,0.5-0.2,0.5-0.5v-3c0-0.3,0.2-0.5,0.5-0.5h21c0.3,0,0.5,0.2,0.5,0.5
		v3c0,0.3,0.2,0.5,0.5,0.5h2c0.3,0,0.5-0.2,0.5-0.5v-6C39,9.2,38.8,9,38.5,9h-27C11.2,9,11,9.2,11,9.5z"/>
	<path class="st0" d="M31.5,35h-4c-0.3,0-0.5-0.2-0.5-0.5v-3c0-0.3,0.2-0.5,0.5-0.5h4c0.3,0,0.5,0.2,0.5,0.5v3
		C32,34.8,31.8,35,31.5,35z M38.5,31h-4c-0.3,0-0.5-0.2-0.5-0.5v-3c0-0.3,0.2-0.5,0.5-0.5h4c0.3,0,0.5,0.2,0.5,0.5v3
		C39,30.8,38.8,31,38.5,31z M38.5,38h-4c-0.3,0-0.5-0.2-0.5-0.5v-3c0-0.3,0.2-0.5,0.5-0.5h4c0.3,0,0.5,0.2,0.5,0.5v3
		C39,37.8,38.8,38,38.5,38z M45.5,35h-4c-0.3,0-0.5-0.2-0.5-0.5v-3c0-0.3,0.2-0.5,0.5-0.5h4c0.3,0,0.5,0.2,0.5,0.5v3
		C46,34.8,45.8,35,45.5,35z M31.5,42h-4c-0.3,0-0.5-0.2-0.5-0.5v-3c0-0.3,0.2-0.5,0.5-0.5h4c0.3,0,0.5,0.2,0.5,0.5v3
		C32,41.8,31.8,42,31.5,42z M31.5,28h-4c-0.3,0-0.5-0.2-0.5-0.5v-3c0-0.3,0.2-0.5,0.5-0.5h4c0.3,0,0.5,0.2,0.5,0.5v3
		C32,27.8,31.8,28,31.5,28z"/>
	<path class="st2" d="M22,18.5v6c0,0.3,0.2,0.5,0.5,0.5h2c0.3,0,0.5-0.2,0.5-0.5v-3c0-0.3,0.2-0.5,0.5-0.5h21c0.3,0,0.5,0.2,0.5,0.5
		v3c0,0.3,0.2,0.5,0.5,0.5h2c0.3,0,0.5-0.2,0.5-0.5v-6c0-0.3-0.2-0.5-0.5-0.5h-27C22.2,18,22,18.2,22,18.5z M50,47.5v-6
		c0-0.3-0.2-0.5-0.5-0.5h-2c-0.3,0-0.5,0.2-0.5,0.5v3c0,0.3-0.2,0.5-0.5,0.5h-21c-0.3,0-0.5-0.2-0.5-0.5v-3c0-0.3-0.2-0.5-0.5-0.5
		h-2c-0.3,0-0.5,0.2-0.5,0.5v6c0,0.3,0.2,0.5,0.5,0.5h27C49.8,48,50,47.8,50,47.5z"/>
	<path class="st1" d="M11,27H3.5C3.2,27,3,26.8,3,26.5v-3C3,23.2,2.8,23,2.5,23h-2C0.2,23,0,23.2,0,23.5v6C0,29.8,0.2,30,0.5,30H11
		V27z M22,36h-7.5c-0.3,0-0.5-0.2-0.5-0.5v-3c0-0.3-0.2-0.5-0.5-0.5h-2c-0.3,0-0.5,0.2-0.5,0.5v6c0,0.3,0.2,0.5,0.5,0.5H22V36z"/>
</g>
</svg>
