<?xml version="1.0" encoding="utf-8"?>
<!-- Generator: Adobe Illustrator 25.2.1, SVG Export Plug-In . SVG Version: 6.00 Build 0)  -->
<svg version="1.1" id="Layer_1" xmlns="http://www.w3.org/2000/svg" xmlns:xlink="http://www.w3.org/1999/xlink" x="0px" y="0px"
	 width="29px" height="30px" viewBox="0 0 29 30" style="enable-background:new 0 0 29 30;" xml:space="preserve">
<style type="text/css">
	.st0{fill:#B8D432;}
	.st1{fill:#0072C6;}
</style>
<path class="st0" d="M18,13.5c0,0.3-0.2,0.5-0.5,0.5h-3.9c-0.3,0-0.5-0.2-0.5-0.5v-2.9c0-0.3,0.2-0.5,0.5-0.5h3.9
	c0.3,0,0.5,0.2,0.5,0.5V13.5z"/>
<path class="st0" d="M25,16.5c0,0.3-0.2,0.5-0.5,0.5h-3.9c-0.3,0-0.5-0.2-0.5-0.5v-2.9c0-0.3,0.2-0.5,0.5-0.5h3.9
	c0.3,0,0.5,0.2,0.5,0.5V16.5z"/>
<path class="st0" d="M18,19.5c0,0.3-0.2,0.5-0.5,0.5h-3.9c-0.3,0-0.5-0.2-0.5-0.5v-2.9c0-0.3,0.2-0.5,0.5-0.5h3.9
	c0.3,0,0.5,0.2,0.5,0.5V19.5z"/>
<path class="st0" d="M11,10.5c0,0.3-0.2,0.5-0.5,0.5h-4C6.2,11,6,10.8,6,10.5v-3C6,7.2,6.2,7,6.5,7h3.9C10.8,7,11,7.2,11,7.5V10.5z"
	/>
<path class="st1" d="M28.5,0L28.5,0h-3H3.4H1.5h-1C0.2,0,0,0.2,0,0.5v6C0,6.8,0.2,7,0.5,7h3C3.8,7,4,6.8,4,6.5V4h21v2.5
	C25,6.8,25.2,7,25.6,7h2.9C28.8,7,29,6.8,29,6.5v-3v-3C29,0.2,28.8,0,28.5,0z"/>
<path class="st1" d="M28.5,23.1h-2.9c-0.3,0-0.5,0.2-0.5,0.5V26H4v-2.5C4,23.2,3.8,23,3.4,23H0.5C0.2,23,0,23.2,0,23.6v5.9
	C0,29.8,0.2,30,0.5,30h1h2h22.1h2.8h0.1c0.3,0,0.5-0.2,0.5-0.5v-5.9C29,23.3,28.8,23.1,28.5,23.1z"/>
<path class="st0" d="M11,16.5c0,0.3-0.2,0.5-0.5,0.5h-4C6.2,17,6,16.8,6,16.5v-3C6,13.2,6.2,13,6.5,13h3.9c0.4,0,0.6,0.2,0.6,0.5
	V16.5z"/>
<path class="st0" d="M11,22.5c0,0.3-0.2,0.5-0.5,0.5h-4C6.2,23,6,22.8,6,22.5v-3C6,19.2,6.2,19,6.5,19h3.9c0.4,0,0.6,0.2,0.6,0.5
	V22.5z"/>
</svg>
