<!-- Generated by IcoMoon.io -->
<svg version="1.1" xmlns="http://www.w3.org/2000/svg" width="25" height="32" viewBox="0 0 25 32">
<title>Activity</title>
<path fill="#fff" d="M11.614 4.345c-2.225 0.235-4.154 1.328-5.47 2.934l-0.012 0.015c-1.131 1.371-1.817 3.141-1.817 5.069 0 0.301 0.017 0.598 0.049 0.89l-0.003-0.036c0.239 2.201 1.344 4.11 2.965 5.412l0.015 0.012c1.623 1.302 3.738 1.988 5.978 1.754s4.166-1.34 5.482-2.949c1.313-1.606 2.005-3.701 1.768-5.919-0.234-2.236-1.382-4.152-3.032-5.472-1.385-1.113-3.156-1.754-5.051-1.754-0.286 0-0.579 0.014-0.872 0.045z"></path>
<path fill="#3999c6" d="M16.606 11.354c-0.286-2.701-1.678-5.013-3.645-6.588-0.382-0.303-0.792-0.572-1.216-0.813l-0.772 1.468c0.356 0.207 0.661 0.416 0.949 0.646l-0.015-0.012c1.654 1.32 2.798 3.232 3.036 5.468 0.238 2.219-0.455 4.317-1.768 5.923-1.316 1.609-3.242 2.715-5.482 2.949-1.502 0.155-2.942-0.107-4.224-0.686l-0.768 1.471c1.561 0.717 3.332 1.051 5.168 0.858 2.679-0.284 5.002-1.601 6.587-3.534l0.014-0.018c1.364-1.652 2.191-3.785 2.191-6.109 0-0.36-0.020-0.716-0.059-1.066l0.004 0.043z"></path>
<path fill="#a0a1a2" d="M7.337 19.696c-1.635-1.315-2.738-3.225-2.97-5.392l-0.003-0.035c-0.030-0.258-0.046-0.556-0.046-0.859 0-1.926 0.684-3.694 1.826-5.079l-0.012 0.014c1.328-1.62 3.257-2.712 5.446-2.943l0.036-0.003c1.812-0.189 3.542 0.221 4.989 1.075l0.768-1.471c-1.404-0.821-3.094-1.305-4.898-1.305-0.365 0-0.725 0.020-1.079 0.058l0.044-0.004c-2.68 0.285-5.004 1.601-6.591 3.534l-0.014 0.018-0.003 0.003c-1.36 1.652-2.184 3.784-2.184 6.106 0 0.362 0.020 0.719 0.059 1.070l-0.004-0.043c0.288 2.654 1.618 4.955 3.572 6.526l0.018 0.014c0.62 0.5 1.309 0.913 2.040 1.251l0.768-1.468c-0.672-0.303-1.251-0.66-1.776-1.080l0.016 0.012z"></path>
<path fill="#59b4d9" d="M7.337 19.696c-1.635-1.315-2.738-3.225-2.97-5.392l-0.003-0.035c-0.030-0.258-0.046-0.556-0.046-0.859 0-1.926 0.684-3.694 1.826-5.079l-0.012 0.014c1.328-1.62 3.257-2.712 5.446-2.943l0.036-0.003c1.812-0.189 3.542 0.221 4.989 1.075l0.768-1.471c-1.404-0.821-3.094-1.305-4.898-1.305-0.365 0-0.725 0.020-1.079 0.058l0.044-0.004c-2.68 0.285-5.004 1.601-6.591 3.534l-0.014 0.018-0.003 0.003c-1.36 1.652-2.184 3.784-2.184 6.106 0 0.362 0.020 0.719 0.059 1.070l-0.004-0.043c0.288 2.654 1.618 4.955 3.572 6.526l0.018 0.014c0.62 0.5 1.309 0.913 2.040 1.251l0.768-1.468c-0.672-0.303-1.251-0.66-1.776-1.080l0.016 0.012z"></path>
<path fill="#7a7a7a" d="M16.592 14.92l-3.773-1.33c-0.322-0.102-0.552-0.396-0.552-0.743 0-0.43 0.352-0.778 0.786-0.778 0.106 0 0.206 0.021 0.298 0.058l-0.005-0.002 3.773 1.33c0.322 0.102 0.552 0.396 0.552 0.743 0 0.43-0.352 0.778-0.786 0.778-0.106 0-0.206-0.021-0.298-0.058l0.005 0.002z"></path>
<path fill="#7a7a7a" d="M12.388 13.448c-0.434-0-0.786-0.348-0.786-0.778 0-0 0-0.001 0-0.001v0-6.619c-0-0.006-0-0.013-0-0.020 0-0.43 0.352-0.778 0.786-0.778s0.786 0.348 0.786 0.778c0 0.007-0 0.014-0 0.021l0-0.001v6.619c0 0 0 0.001 0 0.001 0 0.43-0.352 0.778-0.786 0.778v0z"></path>
<path fill="#000" d="M13.536 12.67c0 0.627-0.514 1.136-1.148 1.136s-1.148-0.509-1.148-1.136c0-0.627 0.514-1.136 1.148-1.136s1.148 0.509 1.148 1.136z"></path>
<path fill="#7a7a7a" d="M7.642 7.274l0.985 0.979-0.317 0.314-0.989-0.979 0.32-0.314zM12.239 5.4h0.448v1.385h-0.448v-1.385zM17.238 7.319l0.32 0.314-0.989 0.979-0.317-0.314 0.985-0.979zM17.989 12.14h1.395v0.448h-1.395v-0.448zM16.504 16.054l0.989 0.979-0.317 0.314-0.989-0.979 0.317-0.314z"></path>
<path fill="#7a7a7a" d="M16.504 16.050l0.989 0.979-0.317 0.317-0.989-0.979 0.317-0.317zM12.239 17.814h0.448v1.382h-0.448v-1.382zM7.642 7.274l0.985 0.979-0.317 0.314-0.989-0.975 0.32-0.317zM8.38 16.095l0.317 0.314-0.989 0.975-0.317-0.31 0.989-0.979z"></path>
<path fill="#7a7a7a" d="M8.379 16.095l0.317 0.314-0.985 0.979-0.32-0.314 0.989-0.979zM5.454 12.143h1.399v0.444h-1.399v-0.444z"></path>
</svg>
