<svg xmlns="http://www.w3.org/2000/svg" xmlns:xlink="http://www.w3.org/1999/xlink" contentScriptType="application/ecmascript" contentStyleType="text/css" height="268px" preserveAspectRatio="none" style="width:391px;height:268px;" version="1.1" viewBox="0 0 391 268" width="391px" zoomAndPan="magnify"><defs/> --><g><!--MD5=[2ddfc815d7287adf4d239d28c36e4cfa]
entity CostManagementandBilling--><rect fill="#FFFFFF" height="105.9219" style="stroke:#3C7FC0;stroke-width:1.0;" width="118" x="7" y="7"/> --><svg x="39" y="17"><defs><radialGradient id="f65398a3-df69-4689-8d5a-25969160d437" cx="7.18" cy="9.5" r="7.38" gradientUnits="userSpaceOnUse"><stop offset="0" stop-color="#76bc2d"
><stop offset="0.41" stop-color="#74b92c"
><stop offset="0.66" stop-color="#6fb12a"
><stop offset="0.88" stop-color="#66a227"
><stop offset="1" stop-color="#5e9624"
></radialGradient></defs><g transform="scale(3,3)" ><path d="M10,10.24a1,1,0,0,1-.31.79,1.49,1.49,0,0,1-.89.37V12H8.36v-.62a2.36,2.36,0,0,1-1.1-.28v-.81a1.8,1.8,0,0,0,.5.25,2.49,2.49,0,0,0,.6.14V9.64a2.42,2.42,0,0,1-.91-.53,1.15,1.15,0,0,1,.06-1.55,1.41,1.41,0,0,1,.85-.38V6.63h.43v.54a2.21,2.21,0,0,1,.92.2v.8a2.28,2.28,0,0,0-.92-.31V9a2.34,2.34,0,0,1,.92.54A1,1,0,0,1,10,10.24ZM8.36,8.81V7.88A.4.4,0,0,0,8,8.3c0,.21.13.38.4.51Zm.85,1.47c0-.19-.14-.34-.42-.47v.9c.28-.05.42-.19.42-.43Z" fill="#258277"
><path d="M16.54,9.49h-3.6a4.43,4.43,0,0,1-1.48,3.3l2.39,2.69a8,8,0,0,0,2.69-6" fill="#ffca00"
><path d="M8.52,13.93a4.43,4.43,0,0,1,0-8.86V1.49a8,8,0,0,0-8,8h0a8,8,0,0,0,8,8h0a8,8,0,0,0,5.34-2l-2.4-2.69A4.38,4.38,0,0,1,8.52,13.93Z" fill="url(#f65398a3-df69-4689-8d5a-25969160d437)"
><path d="M8.15.48h0V4.64h0a5.09,5.09,0,0,1,5.17,5.18H17.5A9.34,9.34,0,0,0,8.15.48Z" fill="#ccc"
><path d="M13.34,9.82A5.13,5.13,0,0,0,8.28,4.64H8.15l.33.62a4.5,4.5,0,0,1,4.23,4.25Z" fill="#999"
></g></svg><text fill="#000000" font-family="Segoe UI" font-size="12" lengthAdjust="spacing" textLength="98" x="17" y="83.9492">Cost Management</text><text fill="#000000" font-family="Segoe UI" font-size="12" lengthAdjust="spacing" textLength="56" x="38" y="99.9102">and Billing</text><!--MD5=[7dee77de2794246412dc6d626f8009e9]
entity RecoveryServicesVaults--><rect fill="#FFFFFF" height="105.9219" style="stroke:#3C7FC0;stroke-width:1.0;" width="116" x="160" y="7"/> --><svg x="191" y="17"><g transform="scale(3,3)" ><defs><linearGradient id="f1a30f9e-7f48-44e2-9483-6a6db8928977" x1="11.13" y1="10.95" x2="11.13" y2="1.21" gradientUnits="userSpaceOnUse"><stop offset="0" stop-color="#0078d4"
><stop offset="0.16" stop-color="#1380da"
><stop offset="0.53" stop-color="#3c91e5"
><stop offset="0.82" stop-color="#559cec"
><stop offset="1" stop-color="#5ea0ef"
></linearGradient><linearGradient id="b4a5ed8d-a28d-4d26-9aad-a57e6ad0c0b9" x1="7.06" y1="16.79" x2="7.06" y2="6.78" gradientUnits="userSpaceOnUse"><stop offset="0" stop-color="#198ab3"
><stop offset="0.13" stop-color="#21a0c7"
><stop offset="0.31" stop-color="#28b7db"
><stop offset="0.5" stop-color="#2ec7ea"
><stop offset="0.72" stop-color="#31d1f2"
><stop offset="1" stop-color="#32d4f5"
></linearGradient></defs><title>Icon-manage-315</title><path d="M18,7.9a3.09,3.09,0,0,0-2.68-3,3.89,3.89,0,0,0-4-3.72A4,4,0,0,0,7.5,3.81,3.68,3.68,0,0,0,4.26,7.36,3.74,3.74,0,0,0,8.13,11l.34,0h6.26l.17,0A3.13,3.13,0,0,0,18,7.9Z" fill="url(#f1a30f9e-7f48-44e2-9483-6a6db8928977)"
><path d="M14.39,5.22,12.56,3.44c-.2-.2-.37-.13-.37.18v.8a.22.22,0,0,1-.23.22c-1.18,0-4.47.31-4.59,4.81a.23.23,0,0,0,.23.23H8.77A.23.23,0,0,0,9,9.43,2.76,2.76,0,0,1,12,6.1a.23.23,0,0,1,.23.23v.74c0,.37.12.43.37.18L14.39,5.6A.23.23,0,0,0,14.39,5.22Z" fill="#fff"
><path d="M14.12,13.66a3.17,3.17,0,0,0-2.75-3.05A4,4,0,0,0,7.25,6.78,4.1,4.1,0,0,0,3.33,9.46,3.78,3.78,0,0,0,0,13.1a3.84,3.84,0,0,0,4,3.69h6.78a.47.47,0,0,0,.17,0A3.21,3.21,0,0,0,14.12,13.66Z" fill="url(#b4a5ed8d-a28d-4d26-9aad-a57e6ad0c0b9)"
></g></svg><text fill="#000000" font-family="Segoe UI" font-size="12" lengthAdjust="spacing" textLength="93" x="170" y="83.9492">Recovery Services</text><text fill="#000000" font-family="Segoe UI" font-size="12" lengthAdjust="spacing" textLength="32" x="202" y="99.9102">Vaults</text><!--MD5=[96ebc09faf95619366a628a8d571eaa1]
entity DataBox--><rect fill="#FFFFFF" height="89.9609" style="stroke:#3C7FC0;stroke-width:1.0;" width="74" x="311" y="15"/> --><svg x="321" y="25"><defs><linearGradient id="f1b81213-b7d5-465b-a5f3-d99014b0e364" x1="9" y1="13.14" x2="9" y2="0.39" gradientUnits="userSpaceOnUse"><stop offset="0" stop-color="#0078d4"
><stop offset="0.82" stop-color="#5ea0ef"
></linearGradient></defs><title>Icon-storage-94</title><g transform="scale(3,3)" ><path d="M18,9.15a4.05,4.05,0,0,0-3.51-3.89A5.1,5.1,0,0,0,9.24.39a5.23,5.23,0,0,0-5,3.4A4.84,4.84,0,0,0,0,8.44a4.89,4.89,0,0,0,5.07,4.7,3.17,3.17,0,0,0,.44,0h8.21a.78.78,0,0,0,.22,0A4.09,4.09,0,0,0,18,9.15Z" fill="url(#f1b81213-b7d5-465b-a5f3-d99014b0e364)"
><path d="M9.47,8.32a4.74,4.74,0,1,0-4.73,4.82H9.47V8.32Z" fill="#50e6ff"
></g><path d="M11.8,15.34,9.55,17.58a.1.1,0,0,1-.16,0L7.15,15.34a.12.12,0,0,1,.08-.2H8.55A.11.11,0,0,0,8.66,15v-2.9A.11.11,0,0,1,8.78,12h1.39a.11.11,0,0,1,.11.11V15a.11.11,0,0,0,.12.11h1.32A.12.12,0,0,1,11.8,15.34Z" fill="#0078d4"
><path d="M7.15,9.82,9.47,7.5,11.8,9.82a.11.11,0,0,1-.08.19H10.4a.12.12,0,0,0-.12.12v3H8.66v-3A.12.12,0,0,0,8.55,10H7.23A.11.11,0,0,1,7.15,9.82Z" fill="#fff"
></svg><text fill="#000000" font-family="Segoe UI" font-size="12" lengthAdjust="spacing" textLength="47" x="324.5" y="91.9492">Data Box</text><!--MD5=[0294f30e1a8b26c544803aa6b96470d6]
entity DataBoxEdge--><rect fill="#FFFFFF" height="89.9609" style="stroke:#3C7FC0;stroke-width:1.0;" width="96" x="18" y="173"/> --><svg x="39" y="183"><defs><linearGradient id="e45189b1-c2d3-4f10-b300-1da54b2b00ea" x1="9.59" y1="17.96" x2="9.59" y2="-0.17" gradientUnits="userSpaceOnUse"><stop offset="0" stop-color="#0078d4"
><stop offset="0.82" stop-color="#5ea0ef"
></linearGradient></defs><title>Icon-storage-95</title><path d="M18,10.73A3.77,3.77,0,0,0,14.72,7.1a4.75,4.75,0,0,0-4.9-4.55A4.89,4.89,0,0,0,5.13,5.73a4.48,4.48,0,0,0-3.94,4.34,4.57,4.57,0,0,0,4.73,4.39l.42,0H14l.21,0A3.81,3.81,0,0,0,18,10.73Z" fill="url(#e45189b1-c2d3-4f10-b300-1da54b2b00ea)"
><path d="M0,11.66a3.76,3.76,0,0,1,3.8-3.8,3.77,3.77,0,0,1,3.8,3.8v3.79H3.8A3.76,3.76,0,0,1,0,11.66Z" fill="#50e6ff" fill-rule="evenodd"
><g transform="scale(3,3)"  id="b33a10b5-62f7-4935-ba61-5887e2c71eb8"><path d="M6.17,11.91v-.56l0,0-.57-.2-.14-.38.28-.59,0-.06-.18-.18L5.35,9.7l-.08,0L4.71,10l-.38-.11-.25-.63H3.53l0,0-.19.57L2.92,10l-.65-.31-.39.39,0,.07.29.56L2,11.13l-.67.25v.56l.08,0,.59.2.16.38-.3.65.39.4.08,0,.55-.28.39.16.24.67h.56l0-.08.19-.6.38-.16.66.31.39-.39,0-.08-.28-.56.11-.39Zm-2.35.52a.79.79,0,0,1,0-1.57.78.78,0,0,1,.79.78h0A.78.78,0,0,1,3.82,12.43Z" fill="#fff"
></g></svg><text fill="#000000" font-family="Segoe UI" font-size="12" lengthAdjust="spacing" textLength="76" x="28" y="249.9492">Data Box Edge</text><!--MD5=[bd3e28520341461cdd5233de4a1da8eb]
entity AzureMigrate--><rect fill="#FFFFFF" height="89.9609" style="stroke:#3C7FC0;stroke-width:1.0;" width="94" x="149" y="173"/> --><svg x="169" y="183"><defs><linearGradient id="a89be84a-3752-4123-adee-32901ecefd3d" x1="10.75" y1="13.54" x2="10.75" y2="2.92" gradientUnits="userSpaceOnUse"><stop offset="0" stop-color="#0078d4"
><stop offset="0.16" stop-color="#1380da"
><stop offset="0.53" stop-color="#3c91e5"
><stop offset="0.82" stop-color="#559cec"
><stop offset="1" stop-color="#5ea0ef"
></linearGradient><linearGradient id="a2f994c2-8580-44cf-92d2-32655328fefe" x1="7.45" y1="17.24" x2="7.45" y2="1.19" gradientUnits="userSpaceOnUse"><stop offset="0" stop-color="#198ab3"
><stop offset="0" stop-color="#198ab3"
><stop offset="0.11" stop-color="#22a5cb"
><stop offset="0.23" stop-color="#29bade"
><stop offset="0.37" stop-color="#2ec9eb"
><stop offset="0.53" stop-color="#31d1f3"
><stop offset="0.78" stop-color="#32d4f5"
></linearGradient></defs><title>Icon-migrate-281</title><path d="M18,10.53A3.26,3.26,0,0,0,15.17,7.4a4.11,4.11,0,0,0-4.23-3.93,4.22,4.22,0,0,0-4,2.75A3.89,3.89,0,0,0,3.5,10a4,4,0,0,0,4.08,3.79h7l.18,0A3.29,3.29,0,0,0,18,10.53Z" fill="url(#a89be84a-3752-4123-adee-32901ecefd3d)"
><path d="M14.9,11.22A3.35,3.35,0,0,0,12,8,4.21,4.21,0,0,0,7.65,4,4.33,4.33,0,0,0,3.51,6.79,4,4,0,0,0,0,10.63a4.06,4.06,0,0,0,4.2,3.9l.37,0h6.79l.18,0A3.38,3.38,0,0,0,14.9,11.22Z" fill="url(#a2f994c2-8580-44cf-92d2-32655328fefe)"
><g transform="scale(3,3)"  id="b1b7ddb8-8ec2-480f-967f-c2bf89d2fe16"><path d="M4.82,9.37h.85a.23.23,0,0,1,.17.07l2,2a.24.24,0,0,1,0,.35L5.12,14.46a.24.24,0,0,1-.17.07H4.14A.25.25,0,0,1,4,14.11l2.31-2.34a.23.23,0,0,0,0-.34L4.65,9.78A.24.24,0,0,1,4.82,9.37ZM8.25,6h.87a.25.25,0,0,1,.17.08l1.53,1.55a.24.24,0,0,1,0,.34l-2,1.91a.24.24,0,0,1-.17.07H7.92a.25.25,0,0,1-.18-.41L9.27,8a.25.25,0,0,0,0-.34L8.08,6.46A.24.24,0,0,1,8.25,6Zm1.79,4h.85a.28.28,0,0,1,.17.07l1.25,1.25a.25.25,0,0,1,0,.34L10.5,13.49a.23.23,0,0,1-.17.07H9.51a.24.24,0,0,1-.17-.41l1.42-1.44a.25.25,0,0,0,0-.34l-.89-.91A.24.24,0,0,1,10,10.05Z" fill="#fff"
></g></svg><text fill="#000000" font-family="Segoe UI" font-size="12" lengthAdjust="spacing" textLength="74" x="159" y="249.9492">Azure Migrate</text><!--MD5=[829ebdd96e834d0540ee73bf54aa0424]
link CostManagementandBilling to RecoveryServicesVaults--><!--MD5=[c1fb4837633839d831268e1124ae1661]
link RecoveryServicesVaults to DataBox--><!--MD5=[b3624f664cdce7e0efe1612998ed3c58]
link CostManagementandBilling to DataBoxEdge--><!--MD5=[f141b6b0295a117bd7f6d5e687668b23]
link DataBoxEdge to AzureMigrate--><!--MD5=[ad9aa10f15daa2f7048edad11b1d93da]
@startuml
!pragma revision 1
!include ../../includes/AzureCommon.puml
sprite $CostManagementandBilling Migrate/00004-icon-service-Cost-Management-and-Billing.svg
rectangle "Cost Management and Billing" <<$CostManagementandBilling{scale=3}>> as CostManagementandBilling
sprite $RecoveryServicesVaults Migrate/00017-icon-service-Recovery-Services-Vaults.svg
rectangle "Recovery Services Vaults" <<$RecoveryServicesVaults{scale=3}>> as RecoveryServicesVaults
sprite $DataBox Migrate/10094-icon-service-Data-Box.svg
rectangle "Data Box" <<$DataBox{scale=3}>> as DataBox
sprite $DataBoxEdge Migrate/10095-icon-service-Data-Box-Edge.svg
rectangle "Data Box Edge" <<$DataBoxEdge{scale=3}>> as DataBoxEdge
sprite $AzureMigrate Migrate/10281-icon-service-Azure-Migrate.svg
rectangle "Azure Migrate" <<$AzureMigrate{scale=3}>> as AzureMigrate
@enduml

@startuml
!pragma revision 1


skinparam defaultTextAlignment center
skinparam defaultFontName Segoe UI
skinparam defaultBackgroundColor white
skinparam RectangleBackgroundColor white
skinparam RectangleBorderColor #3C7FC0
skinparam WrapWidth 100

skinparam rectangle {
    FontSize 12
    BorderThickness 1
    Shadowing false
}
sprite $CostManagementandBilling Migrate/00004-icon-service-Cost-Management-and-Billing.svg
rectangle "Cost Management and Billing" <<$CostManagementandBilling{scale=3}>> as CostManagementandBilling
sprite $RecoveryServicesVaults Migrate/00017-icon-service-Recovery-Services-Vaults.svg
rectangle "Recovery Services Vaults" <<$RecoveryServicesVaults{scale=3}>> as RecoveryServicesVaults
sprite $DataBox Migrate/10094-icon-service-Data-Box.svg
rectangle "Data Box" <<$DataBox{scale=3}>> as DataBox
sprite $DataBoxEdge Migrate/10095-icon-service-Data-Box-Edge.svg
rectangle "Data Box Edge" <<$DataBoxEdge{scale=3}>> as DataBoxEdge
sprite $AzureMigrate Migrate/10281-icon-service-Azure-Migrate.svg
rectangle "Azure Migrate" <<$AzureMigrate{scale=3}>> as AzureMigrate
@enduml

PlantUML version 1.2021.00(Sun Jan 10 02:25:05 PST 2021)
(GPL source distribution)
Java Runtime: Java(TM) SE Runtime Environment
JVM: Java HotSpot(TM) 64-Bit Server VM
Default Encoding: Cp1252
Language: en
Country: US
--></g></svg>