<?xml version="1.0" encoding="utf-8"?>
<!-- Generator: Adobe Illustrator 25.4.1, SVG Export Plug-In . SVG Version: 6.00 Build 0)  -->
<svg version="1.1" id="Layer_1" xmlns="http://www.w3.org/2000/svg" xmlns:xlink="http://www.w3.org/1999/xlink" x="0px" y="0px"
	 viewBox="0 0 88.9 120.6" style="enable-background:new 0 0 88.9 120.6;" xml:space="preserve">
<style type="text/css">
	.st0{fill:#1D4A79;}
	.st1{fill:#185A97;}
	.st2{fill:#0078D4;}
	.st3{fill:#156AB3;}
	.st4{fill:#32B0E7;}
	.st5{fill:#45CAF2;}
	.st6{fill:#50E6FF;}
	.st7{fill:#84ECFD;}
	.st8{fill:#FFFFFF;}
</style>
<path class="st0" d="M69.3,37.5l13.4,7.8v53.8L35.8,72.2l0-68.6L69.3,23V37.5z"/> -->
<path class="st1" d="M35.8,3.6L41.9,0l33.6,19.4L69.2,23L35.8,3.6z"/> -->
<path class="st1" d="M82.7,45.1l6.3-3.5v53.9l-6.3,3.6V45.1z"/> -->
<path class="st2" d="M69.3,23l6.3-3.6l13.4,22.2l-6.3,3.5L69.3,23z"/> -->
<path class="st3" d="M69.3,23l13.4,22.1l-13.4-7.6V23z"/> -->
<path class="st2" d="M51.1,47.7l13.4,7.8v53.9L17.4,82.4V14l33.6,19.4L51.1,47.7z"/> -->
<path class="st4" d="M17.6,14l6.3-3.6l33.6,19.4l-6.3,3.6L17.6,14z"/> -->
<path class="st4" d="M64.5,55.4l6.3-3.5v53.9l-6.3,3.6V55.4z"/> -->
<path class="st5" d="M51.1,33.4l6.3-3.6l13.3,22.2l-6.3,3.5L51.1,33.4z"/> -->
<path class="st4" d="M51.1,33.4l13.4,22.1l-13.4-7.8V33.4z"/> -->
<path class="st5" d="M33.7,58.9l13.4,7.8v53.9L0,93.8V25l33.5,19.4L33.7,58.9z"/> -->
<path class="st6" d="M0,25l6.3-3.6l33.6,19.4l-6.3,3.6L0,25z"/> -->
<path class="st4" d="M47.1,66.6l6.3-3.5V117l-6.3,3.6V66.6z"/> -->
<path class="st7" d="M33.7,44.6l6.3-3.6l13.3,22.2L47,66.6L33.7,44.6z"/> -->
<path class="st6" d="M33.7,44.6l13.4,22.1l-13.4-7.8V44.6z"/> -->
<path class="st8" d="M35.9,80.3v3.9L18.8,73.9V70L35.9,80.3z"/> -->
<path class="st8" d="M35.9,87.5v3.9L9.1,75.8v-3.7L35.9,87.5z"/> -->
<path class="st8" d="M35.9,94.8v3.9L9.1,83.1v-3.9L35.9,94.8z"/> -->
<path class="st8" d="M10.2,51.6c0.2,0.1,0.4,0.3,0.6,0.4l5.1,6.3l5.1,6.3c0.7,0.9,0.7,2,0,2.1l-5.1,0.4l-5.1,0.4
	c-0.2,0.1-0.3,0.1-0.5,0c-0.6-0.4-1-1-1.1-1.8V52.2C9.2,51.5,9.7,51.3,10.2,51.6z"/> -->
</svg>
