<!-- Generated by IcoMoon.io -->
<svg version="1.1" xmlns="http://www.w3.org/2000/svg" width="30" height="32" viewBox="0 0 30 32">
<title>Activity-Log</title>
<path fill="#005ba1" d="M8.742 10.103l1.055-1.203c0.095-0.106 0.233-0.172 0.387-0.172 0.002 0 0.004 0 0.006 0h10.123c0.021-0.002 0.046-0.004 0.071-0.004 0.39 0 0.706 0.31 0.706 0.692 0 0.007-0 0.014-0 0.021l0-0.001v12.386c-0.001 0.147-0.068 0.278-0.174 0.366l-0.001 0.001-1.134 1.019h-10.351l-0.706-0.282 0.018-12.822z"></path>
<path fill="#fff" d="M9.597 10.094l0.644-0.716c0.074-0.087 0.182-0.145 0.304-0.154l0.001-0h9.497c0 0 0 0 0.001 0 0.25 0 0.453 0.199 0.453 0.444v0 11.77c0 0.001 0 0.003 0 0.005 0 0.13-0.057 0.247-0.148 0.329l-0 0-1.011 0.898-9.741-12.576z"></path>
<path fill="#000" d="M19.266 10.087h-10.464c-0.029 0-0.052 0.023-0.052 0.051v0l0.001 12.812c0.004 0.181 0.155 0.326 0.34 0.326 0 0 0.001 0 0.001 0h10.174c0.001 0 0.001 0 0.002 0 0.183 0 0.331-0.145 0.331-0.325 0-0 0-0.001 0-0.001v0-12.533c-0.001-0.181-0.149-0.327-0.333-0.331h-0z"></path>
<path fill="#fff" d="M11.175 15.39c0 0.132 0.109 0.239 0.244 0.239l5.25 0.002c0.135 0 0.244-0.107 0.244-0.239v0l-0-1.554c0-0.132-0.109-0.239-0.244-0.239l-5.25-0.002c-0.135 0-0.244 0.107-0.244 0.239v0l0 1.554z"></path>
</svg>
