<!-- Generated by IcoMoon.io -->
<svg version="1.1" xmlns="http://www.w3.org/2000/svg" width="35" height="32" viewBox="0 0 35 32">
<title>Adaptive-Application-Control</title>
<path fill="#c5c7c7" d="M11.798 10.287h8.79c0.797 0.037 1.428 0.674 1.428 1.455 0 0.023-0.001 0.046-0.002 0.068l0-0.003v6.754c0 0.202-0.479 0.622-0.615 0.754-0.134 0.131-0.431 0.65-0.63 0.65h-9.713c-0.005 0-0.011 0-0.018 0-0.413 0-0.748-0.326-0.748-0.728 0-0 0-0 0-0v0-7.429c-0.001-0.019-0.001-0.041-0.001-0.064 0-0.804 0.67-1.456 1.497-1.456 0.004 0 0.008 0 0.012 0h-0.001z"></path>
<path fill="#f7fafa" d="M12.645 11.166h7.089c0.769 0.033 1.38 0.648 1.38 1.402 0 0.024-0.001 0.049-0.002 0.073l0-0.003v5.746c0 0.006 0 0.012 0 0.019 0 0.385-0.318 0.697-0.713 0.702h-8.458c-0.008 0-0.018 0-0.028 0-0.398 0-0.721-0.314-0.721-0.702 0-0.010 0-0.019 0.001-0.028l-0 0.001v-5.738c-0.001-0.020-0.002-0.044-0.002-0.068 0-0.775 0.646-1.404 1.443-1.404 0.004 0 0.007 0 0.011 0h-0.001z"></path>
<path fill="#0072c6" d="M11.798 10.287h8.79c0.014-0 0.030-0.001 0.047-0.001 0.767 0 1.389 0.605 1.389 1.351 0 0.053-0.003 0.106-0.009 0.158l0.001-0.006v1.132h-11.724v-1.132c-0.006-0.047-0.009-0.102-0.009-0.157 0-0.746 0.622-1.351 1.389-1.351 0.045 0 0.089 0.002 0.133 0.006l-0.006-0z"></path>
<path fill="#4e5d69" d="M14.801 15.91v0.265l-2.319 1.132-0.343-0.509 1.623-0.789-1.623-0.799 0.343-0.509 2.319 1.202v0.008z"></path>
<path fill="#fff" d="M18.699 16.429l-3.488 4.735c-0.263 0.32-0.654 0.529-1.097 0.554l-0.004 0c-0.413-0.066-0.773-0.248-1.054-0.51l0.001 0.001-2.165-1.668c-0.372-0.293-0.608-0.738-0.608-1.236 0-0.38 0.137-0.729 0.366-1.002l-0.002 0.003c0.902-1.114 1.749-0.439 2.445 0l0.756 0.544 2.157-3.054c0.257-0.47 0.758-0.784 1.333-0.784 0.325 0 0.626 0.1 0.872 0.27l-0.005-0.003c0.428 0.308 0.703 0.798 0.703 1.35 0 0.293-0.077 0.568-0.213 0.808l0.005-0.009z"></path>
<path fill="#98ce07" d="M23.683 16.070l-3.211 4.473c-0.163 0.16-0.39 0.26-0.64 0.26-0.035 0-0.069-0.002-0.102-0.006l0.004 0c-0.017 0.001-0.037 0.002-0.057 0.002-0.214 0-0.409-0.077-0.559-0.204l0.001 0.001-2.127-1.641c-0.176-0.149-0.287-0.367-0.287-0.61 0-0.199 0.074-0.382 0.197-0.522l-0.001 0.001c0.163-0.16 0.39-0.26 0.64-0.26 0.212 0 0.407 0.071 0.561 0.19l-0.002-0.001 1.497 1.149 2.795-3.886c0.163-0.16 0.39-0.26 0.64-0.26 0.212 0 0.407 0.071 0.561 0.19l-0.002-0.001c0.179 0.147 0.291 0.366 0.291 0.61 0 0.196-0.073 0.376-0.194 0.515l0.001-0.001h-0.008z"></path>
</svg>
