<!-- Generated by IcoMoon.io -->
<svg version="1.1" xmlns="http://www.w3.org/2000/svg" width="32" height="32" viewBox="0 0 32 32">
<title>Adaptive-Network-Hardening</title>
<path fill="#c7e4f0" d="M13.731 23.614l3.031-5.776 0.13-3.522v-0.13h2.328v-2.694c0-0.001 0-0.002 0-0.003 0-0.189-0.155-0.343-0.347-0.343-0.002 0-0.003 0-0.005 0h-0.088c-0.218 0.043-0.482 0.043-0.703 0.043-1.755 0-3.334-1.001-4.083-2.609-0.088-0.085-0.176-0.085-0.306-0.085h-0.045c-0.088 0-0.306 0.085-0.306 0.085-0.746 1.565-2.37 2.566-4.128 2.566-0.218 0-0.437 0-0.658-0.045h-0.088c-0.221 0-0.352 0.13-0.352 0.349v6.734c0 0.479 0.088 0.87 0.306 1.262l0.088 0.043c1.127 1.795 2.768 3.181 4.72 3.974l0.067 0.024c0 0 0.221 0.043 0.44 0.13v-0.003z"></path>
<path fill="#59b4d9" d="M23.655 22.964l-2.679-4.866v-1.956h0.045c0.306 0 0.57-0.261 0.57-0.61 0-0.346-0.264-0.607-0.57-0.607h-2.943c-0.306 0-0.57 0.261-0.57 0.607 0 0.349 0.264 0.61 0.57 0.61h0.045v1.956l-2.725 4.866c-0.306 0.522-0.043 0.956 0.527 0.956h7.159c0.612 0 0.876-0.434 0.57-0.956v0z"></path>
<path fill="#b8d432" d="M17.639 20.878l-1.097 1.999h6.017l-1.143-1.999h-3.777z"></path>
<path fill="#57a300" d="M19.661 21.659c0.306 0 0.525-0.261 0.525-0.564 0-0.085 0-0.173-0.043-0.261h-0.967c-0.043 0.088-0.043 0.176-0.043 0.261 0 0.349 0.264 0.564 0.527 0.564v0zM20.625 22.096c0 0.144-0.118 0.261-0.263 0.261s-0.263-0.117-0.263-0.261v0c0-0.144 0.118-0.261 0.263-0.261s0.263 0.117 0.263 0.261v0z"></path>
<path fill="#fff" opacity="0.25" d="M8.151 22.965l2.679-4.868v-1.954h-0.045c-0.306 0-0.57-0.261-0.57-0.61 0-0.346 0.264-0.607 0.57-0.607h1.273v3.17l-1.404 5.867h-1.934c-0.615-0.043-0.834-0.479-0.57-1.001v0.003z"></path>
<path fill="#429ec9" d="M13.686 23.96l0.44-0.78c0 0-0.13 0.043-0.306 0.085l-0.264-0.085c-1.976-0.783-3.558-2.087-4.61-3.867l-0.045-0.043c-0.176-0.349-0.264-0.652-0.264-1.043v-6.734h0.045c0.218 0.043 0.482 0.043 0.658 0.043 1.843 0 3.556-1.043 4.392-2.651h0.13c0.791 1.653 2.504 2.694 4.347 2.694 0.221 0 0.485 0 0.703-0.043h0.088v2.954h0.703v-2.954c0-0.003 0-0.006 0-0.009 0-0.379-0.31-0.686-0.693-0.686-0.003 0-0.007 0-0.010 0h-0.133c-0.173 0.043-0.437 0.043-0.615 0.043-1.625 0-3.074-0.956-3.777-2.387l-0.088-0.088c-0.132-0.135-0.317-0.218-0.522-0.218-0.002 0-0.004 0-0.006 0h-0.088c-0.13 0-0.264 0.043-0.352 0.088l-0.306 0.303c-0.703 1.389-2.195 2.302-3.777 2.302-0.218 0-0.394 0-0.615-0.043h-0.13c-0.003-0-0.006-0-0.010-0-0.383 0-0.693 0.307-0.693 0.686 0 0.003 0 0.006 0 0.009v-0 6.734c0 0.522 0.13 0.956 0.352 1.435l0.043 0.088c1.143 1.869 2.855 3.258 4.965 4.083 0.088-0.088 0.306 0 0.437 0.088l0.003-0.003z"></path>
<path fill="#74b7d7" d="M8.549 16.143v1.693c0 0.437 0.088 0.87 0.264 1.216l0.043 0.045c1.012 1.693 2.546 2.909 4.392 3.649 0 0 0.176 0.043 0.352 0.13v-6.734h-5.050zM16.893 14.275v-0.13h2.107l0.045-2.563v-0.088c0-0.218-0.088-0.434-0.309-0.434h-0.13c-0.221 0.043-0.527 0.043-0.749 0.043-1.755 0-3.162-1.043-3.995-2.779-0.088 0-0.088 0-0.176 0.043v7.863h3.207v-1.954z"></path>
</svg>
