<!-- Generated by IcoMoon.io -->
<svg version="1.1" xmlns="http://www.w3.org/2000/svg" width="19" height="32" viewBox="0 0 19 32">
<title>ADFS-Proxy</title>
<path fill="#59b4d9" d="M8.874 19.887h-5.366v-0.829h5.412v-1.658h-5.412v-0.826h5.32l-1.817-1.933 2.819-2.988h1.496v-0.825h-1.951c-0.455 0-0.868-0.233-1.048-0.554-0.229-0.367-0.183-0.825 0.046-1.238l2.907-5.38c-0.134-0.413-0.543-0.737-0.995-0.737h-7.592c-0.593 0-1.094 0.504-1.094 1.104v17.978h9.68v-2.163h-2.406v0.049zM3.509 5.402h5.909v0.829h-5.909v-0.829z"></path>
<path fill="#59b4d9" d="M9.921 14.138l1.588-1.609h-1.319l-2.088 2.159 2.088 2.163h1.319l-1.588-1.609h4.907v-1.104h-4.907z"></path>
<path fill="#59b4d9" d="M14.239 16.346h-1.365l1.591 1.609h-4.773v1.104h4.773l-1.591 1.609h1.365l2.043-2.163-2.043-2.159z"></path>
<path fill="#59b4d9" d="M13.555 2.32c-0.18-0.321-0.452-0.321-0.635 0l-3.863 7.172c-0.183 0.325-0.046 0.554 0.318 0.554h7.729c0.363 0 0.497-0.229 0.317-0.554l-3.866-7.172zM13.237 4.208c0.409 0 0.773 0.367 0.773 0.78s-0.363 0.783-0.773 0.783c-0.409 0-0.773-0.37-0.773-0.783 0-0.459 0.363-0.78 0.773-0.78zM14.828 7.517c-0.183 0.049-0.318 0.092-0.409 0.183l-0.953-1.792c0.134-0.046 0.272-0.095 0.363-0.229l0.998 1.838zM12.556 5.725c0.092 0.088 0.226 0.183 0.363 0.229l-0.956 1.792c-0.092-0.092-0.226-0.18-0.409-0.18l1.002-1.841zM11.417 9.267c-0.409 0-0.769-0.37-0.769-0.783 0-0.416 0.36-0.783 0.769-0.783s0.776 0.367 0.776 0.783c-0.046 0.462-0.367 0.783-0.776 0.783zM14.056 8.713h-1.683c0.046-0.092 0.046-0.138 0.046-0.229s0-0.138-0.046-0.229h1.683c-0.046 0.092-0.046 0.138-0.046 0.229s0 0.183 0.046 0.229zM15.008 9.267c-0.409 0-0.769-0.37-0.769-0.783 0-0.416 0.36-0.783 0.769-0.783s0.773 0.367 0.773 0.783c-0.042 0.462-0.363 0.783-0.773 0.783z"></path>
</svg>
