<!-- Generated by IcoMoon.io -->
<svg version="1.1" xmlns="http://www.w3.org/2000/svg" width="20" height="32" viewBox="0 0 20 32">
<title>ADFS</title>
<path fill="#59b4d9" d="M18.445 21.215l-5.856-9.222c-0.261-0.395-0.67-0.395-0.924 0l-5.853 9.222c-0.258 0.392-0.053 0.681 0.462 0.681h11.705c0.515 0.053 0.72-0.289 0.466-0.681zM15.57 21.021h-2.568v-1.46h1.030v-0.977h-3.598v0.977h1.027v1.46h-2.565v-1.46h1.030v-1.46h2.046v-0.981h-1.030v-1.457h2.568v1.457h-1.030v0.981h2.053v1.46h1.030v1.46h0.007z"></path>
<path fill="#59b4d9" d="M10.946 2.001h-8.216c-0.564 0-1.030 0.434-1.030 0.974v19.025h2.875c0-0.194 0.049-0.437 0.205-0.639l0.818-1.319h-2.367v-0.974h2.981l0.617-0.981h-3.598v-0.977h4.216l3.648-5.757c0.201-0.335 0.515-0.529 0.871-0.582v-7.846c0.004-0.49-0.455-0.924-1.020-0.924zM10.431 5.9h-7.186v-0.981h7.186c0 0.007 0 0.981 0 0.981z"></path>
</svg>
