<!-- Generated by IcoMoon.io -->
<svg version="1.1" xmlns="http://www.w3.org/2000/svg" width="33" height="32" viewBox="0 0 33 32">
<title>Advisor</title>
<path fill="#000" d="M23.807 16.227c-0.033-1.651-1.276-3.004-2.885-3.232l-0.018-0.002c-0.072-2.261-1.942-4.067-4.239-4.067-0.031 0-0.061 0-0.092 0.001l0.005-0c-0.014-0-0.031-0-0.047-0-1.878 0-3.479 1.171-4.098 2.816l-0.010 0.030c-1.958 0.255-3.459 1.878-3.497 3.855l-0 0.004c0.062 2.178 1.862 3.921 4.073 3.921 0.041 0 0.082-0.001 0.122-0.002l-0.006 0c0.055 0.004 0.118 0.006 0.182 0.006s0.128-0.002 0.191-0.007l-0.008 0h6.778c0.026 0.004 0.057 0.007 0.088 0.007s0.061-0.003 0.091-0.007l-0.003 0c1.85-0.020 3.345-1.494 3.373-3.321l0-0.003z"></path>
<path fill="#37c2b1" d="M21.211 21.158l-1.748 1.851c-0.041 0.041-0.098 0.066-0.161 0.066-0.112 0-0.205-0.080-0.224-0.186l-0-0.001-1.059-5.103c-0-0.005-0.001-0.011-0.001-0.018 0-0.080 0.042-0.149 0.105-0.189l0.001-0.001 1.155-0.467c0.025-0.010 0.053-0.016 0.083-0.016 0.090 0 0.168 0.052 0.205 0.127l0.001 0.001 1.704 3.72c0.006 0.018 0.009 0.039 0.009 0.061 0 0.062-0.027 0.117-0.070 0.155l-0 0z"></path>
<path fill="#42e8ca" d="M15.5 21.158l1.748 1.851c0.041 0.041 0.098 0.066 0.161 0.066 0.112 0 0.205-0.080 0.224-0.186l0-0.001 1.059-5.103c0.002-0.011 0.003-0.024 0.003-0.037 0-0.091-0.054-0.169-0.133-0.205l-0.001-0.001-1.155-0.467c-0.025-0.010-0.053-0.016-0.083-0.016-0.090 0-0.168 0.052-0.205 0.127l-0.001 0.001-1.704 3.718c-0.009 0.022-0.014 0.047-0.014 0.073 0 0.075 0.040 0.14 0.1 0.177l0.001 0z"></path>
<path fill="#005ba1" d="M18.632 13.252l0.226-0.192c0.061-0.050 0.14-0.080 0.226-0.080 0.109 0 0.206 0.048 0.272 0.124l0 0c0.025 0.029 0.046 0.063 0.060 0.1l0.001 0.002 0.105 0.278c0.056 0.134 0.187 0.227 0.34 0.227 0.019 0 0.037-0.001 0.055-0.004l-0.002 0 0.289-0.053c0.018-0.003 0.038-0.005 0.059-0.005 0.175 0 0.321 0.124 0.352 0.289l0 0.002c0.004 0.018 0.007 0.039 0.007 0.060s-0.002 0.042-0.007 0.062l0-0.002-0.052 0.286c-0.002 0.016-0.004 0.033-0.004 0.052 0 0.152 0.094 0.281 0.227 0.336l0.002 0.001 0.281 0.097c0.136 0.055 0.23 0.185 0.23 0.337 0 0.043-0.008 0.084-0.021 0.122l0.001-0.003c-0.019 0.040-0.040 0.075-0.064 0.107l0.001-0.002-0.192 0.215c-0.050 0.061-0.079 0.14-0.079 0.226s0.030 0.164 0.080 0.227l-0.001-0.001 0.192 0.223c0.050 0.060 0.081 0.137 0.081 0.221 0 0.11-0.052 0.208-0.133 0.271l-0.001 0.001c-0.027 0.024-0.058 0.044-0.092 0.059l-0.002 0.001-0.281 0.105c-0.136 0.049-0.232 0.177-0.232 0.326 0 0.022 0.002 0.044 0.006 0.065l-0-0.002 0.052 0.286c0.004 0.019 0.006 0.040 0.006 0.062 0 0.17-0.127 0.311-0.293 0.334l-0.002 0c-0.019 0.004-0.040 0.007-0.062 0.007s-0.043-0.002-0.064-0.007l0.002 0h-0.289c-0.019-0.004-0.041-0.006-0.064-0.006-0.152 0-0.281 0.096-0.329 0.229l-0.001 0.002-0.105 0.268c-0.050 0.135-0.178 0.23-0.33 0.23-0.045 0-0.088-0.008-0.127-0.023l0.002 0.001c-0.040-0.014-0.075-0.035-0.105-0.061l0 0-0.218-0.215c-0.061-0.052-0.14-0.083-0.227-0.083s-0.166 0.031-0.228 0.083l0-0-0.228 0.181c-0.061 0.052-0.14 0.083-0.227 0.083-0.109 0-0.207-0.050-0.271-0.127l-0-0.001c-0.029-0.027-0.051-0.063-0.061-0.102l-0-0.001-0.104-0.266c-0.046-0.136-0.174-0.233-0.324-0.233-0.025 0-0.049 0.003-0.072 0.007l0.002-0-0.289 0.052c-0.017 0.003-0.038 0.005-0.058 0.005-0.178 0-0.326-0.128-0.354-0.297l-0-0.002c-0.004-0.017-0.006-0.036-0.006-0.056s0.002-0.039 0.007-0.058l-0 0.002 0.052-0.287c0.004-0.019 0.006-0.041 0.006-0.063 0-0.149-0.095-0.276-0.229-0.325l-0.002-0.001-0.27-0.105c-0.154-0.046-0.264-0.184-0.264-0.349 0-0.029 0.003-0.057 0.010-0.084l-0.001 0.002c0.019-0.040 0.039-0.075 0.062-0.107l-0.001 0.002 0.194-0.226c0.049-0.061 0.078-0.139 0.078-0.224s-0.030-0.163-0.079-0.225l0.001 0.001-0.194-0.215c-0.051-0.061-0.081-0.139-0.081-0.225 0-0.111 0.052-0.211 0.133-0.276l0.001-0.001c0.028-0.026 0.064-0.045 0.104-0.052l0.001-0 0.273-0.106c0.136-0.055 0.229-0.185 0.229-0.337 0-0.018-0.001-0.036-0.004-0.054l0 0.002-0.018-0.26c-0.003-0.017-0.005-0.038-0.005-0.058 0-0.173 0.125-0.317 0.291-0.348l0.002-0h0.123l0.289 0.053c0.017 0.003 0.038 0.005 0.058 0.005 0.153 0 0.283-0.095 0.335-0.228l0.001-0.002 0.105-0.284c0.052-0.136 0.183-0.23 0.336-0.23 0.042 0 0.083 0.007 0.121 0.021l-0.003-0.001 0.105 0.063 0.228 0.189c0.055 0.036 0.123 0.058 0.197 0.058 0.097 0 0.185-0.038 0.25-0.1l-0 0z"></path>
<path fill="#ffca00" d="M20.476 15.864c0 1.128-0.924 2.041-2.064 2.041s-2.064-0.914-2.064-2.041c0-1.127 0.924-2.041 2.064-2.041s2.064 0.914 2.064 2.041z"></path>
</svg>
