<!-- Generated by IcoMoon.io -->
<svg version="1.1" xmlns="http://www.w3.org/2000/svg" width="34" height="32" viewBox="0 0 34 32">
<title>Alert</title>
<path fill="#000" d="M24.955 9.908v10.151c0 0 0 0.001 0 0.001 0 0.3-0.238 0.543-0.531 0.544h-4.147c-0 0-0 0-0 0-0.073 0-0.132 0.058-0.137 0.131l-0 0-0.003 1.641c0 0.002 0 0.005 0 0.007 0 0.145-0.115 0.262-0.257 0.262-0.059 0-0.113-0.020-0.157-0.054l0.001 0-2.496-1.96h-7.341c-0.293-0.001-0.53-0.243-0.531-0.542v-10.181c-0-0.003-0-0.006-0-0.009 0-0.3 0.238-0.543 0.531-0.544h14.537c0.293 0.001 0.531 0.244 0.531 0.544 0 0.003-0 0.007-0 0.010v-0.001z"></path>
<path fill="#fff" d="M17.651 16.591h-1.065c-0.005 0-0.011 0-0.017 0-0.175 0-0.319-0.14-0.33-0.316l-0-0.001-0.184-5.495c-0-0.002-0-0.005-0-0.008 0-0.181 0.144-0.328 0.321-0.328 0 0 0.001 0 0.001 0h1.56c0.177 0.001 0.32 0.147 0.32 0.328 0 0.007-0 0.013-0.001 0.020l0-0.001-0.283 5.492c-0.011 0.172-0.15 0.308-0.321 0.308-0 0-0.001 0-0.001 0h0z"></path>
<path fill="#fff" d="M16.357 18.533c0.001 0.314 0.251 0.569 0.559 0.57h0.432c0 0 0.001 0 0.002 0 0.308 0 0.559-0.255 0.56-0.569v-0.443c-0.001-0.315-0.251-0.57-0.56-0.57-0.001 0-0.001 0-0.002 0h-0.432c-0.308 0.001-0.557 0.255-0.559 0.569v0.443z"></path>
</svg>
