<!-- Generated by IcoMoon.io -->
<svg version="1.1" xmlns="http://www.w3.org/2000/svg" width="32" height="32" viewBox="0 0 32 32">
<title>All-Resources</title>
<path d="M13.817 18.911h4.365v4.363h-4.365v-4.363zM8.725 13.091h4.365v-4.365h-3.757c-0.336 0.001-0.608 0.273-0.608 0.608v3.757zM9.334 23.274h3.757v-4.363h-4.365v3.755c0.001 0.336 0.273 0.608 0.608 0.608h0zM8.725 18.182h4.365v-4.365h-4.365v4.365zM18.911 23.274h3.762c0.332-0.005 0.6-0.275 0.601-0.608v-3.755h-4.363v4.363zM13.817 18.182h4.365v-4.365h-4.365v4.365zM18.911 18.182h4.363v-4.365h-4.363v4.365zM18.911 8.725v4.365h4.363v-3.757c-0.001-0.333-0.268-0.603-0.6-0.608h-3.763zM13.817 13.091h4.365v-4.365h-4.365v4.365z"></path>
</svg>
