<!-- Generated by IcoMoon.io -->
<svg version="1.1" xmlns="http://www.w3.org/2000/svg" width="36" height="32" viewBox="0 0 36 32">
<title>Analysis-Service</title>
<path fill="#000" d="M9.844 21.889c0 0.147 0.121 0.266 0.27 0.266l6.14 0.001c0.149 0 0.27-0.119 0.27-0.266v0l0.002-4.509c0-0.147-0.121-0.266-0.27-0.266l-6.143-0.001c-0.149 0-0.27 0.119-0.27 0.266v0l0.001 4.509z"></path>
<path fill="#000" d="M19.577 17.523c0 0.147 0.121 0.266 0.27 0.266l6.14 0.001c0.149 0 0.27-0.119 0.27-0.266v0l0.002-4.509c0-0.147-0.121-0.266-0.27-0.266l-6.143-0.001c-0.149 0-0.27 0.119-0.27 0.266v0l0.001 4.509z"></path>
<path fill="#000" d="M9.844 21.756c0 0 0 0.001 0 0.001 0 0.22 0.181 0.399 0.405 0.399h5.872c0.224-0 0.405-0.179 0.405-0.399 0-0 0-0.001 0-0.001v0-4.242c0-0 0-0.001 0-0.001 0-0.22-0.181-0.399-0.405-0.399h-5.872c-0.224 0-0.405 0.179-0.405 0.399 0 0 0 0.001 0 0.001v-0 4.242z"></path>
<path fill="#773adc" d="M22.058 15.919l0.223-0.608-8.264-2.988-0.223 0.596 8.264 3zM22.57 15.835l-0.307-0.57-7.794 4.033 0.301 0.57 7.8-4.033zM14.191 20.143l0.646-0.113-1.315-7.32-0.646 0.113 1.315 7.32z"></path>
<path fill="#fff" d="M23.793 14.708c0.303 0.478 0.155 1.116-0.331 1.424s-1.126 0.171-1.43-0.307c-0.303-0.478-0.155-1.116 0.331-1.424s1.126-0.171 1.43 0.307z"></path>
<path fill="#fff" d="M14.070 11.803c0.303 0.478 0.155 1.116-0.331 1.424s-1.126 0.171-1.43-0.307c-0.303-0.478-0.155-1.116 0.331-1.424s1.126-0.171 1.43 0.307z"></path>
<path fill="#fff" d="M15.352 19.068c0.303 0.478 0.155 1.116-0.331 1.424s-1.126 0.171-1.43-0.307c-0.303-0.478-0.155-1.116 0.331-1.424s1.126-0.171 1.43 0.307z"></path>
</svg>
