<!-- Generated by IcoMoon.io -->
<svg version="1.1" xmlns="http://www.w3.org/2000/svg" width="32" height="32" viewBox="0 0 32 32">
<title>API-Connection</title>
<path d="M20.192 13.971h-3.662c-1.571 0.089-2.836 1.288-3.029 2.82l-0.002 0.016h1.147c0.185-0.899 0.95-1.571 1.879-1.614l0.004-0h3.662c1.103 0.065 1.973 0.976 1.973 2.090 0 0.035-0.001 0.069-0.003 0.104l0-0.005c0.002 0.030 0.002 0.066 0.002 0.102 0 1.116-0.869 2.028-1.967 2.097l-0.006 0h-3.662c-0.934-0.043-1.699-0.717-1.881-1.604l-0.002-0.013h-1.147c0.172 1.569 1.445 2.791 3.022 2.884l0.009 0h3.662c1.729-0.103 3.091-1.531 3.091-3.276 0-0.058-0.002-0.116-0.005-0.173l0 0.008c0.003-0.048 0.004-0.104 0.004-0.16 0-1.745-1.363-3.173-3.082-3.276l-0.009-0z"></path>
<path d="M15.479 16.809h-3.662c-1.104-0.065-1.975-0.976-1.975-2.090 0-0.044 0.001-0.087 0.004-0.131l-0 0.006c-0.002-0.030-0.002-0.066-0.002-0.102 0-1.116 0.869-2.028 1.967-2.097l0.006-0h3.662c0.934 0.043 1.699 0.717 1.881 1.604l0.002 0.013h1.147c-0.183-1.559-1.452-2.77-3.022-2.861l-0.009-0h-3.662c-1.729 0.103-3.092 1.531-3.092 3.276 0 0.059 0.002 0.118 0.005 0.176l-0-0.008c-0.002 0.047-0.004 0.102-0.004 0.158 0 1.745 1.363 3.172 3.082 3.276l0.009 0h3.662c1.571-0.089 2.836-1.288 3.029-2.82l0.002-0.016h-1.147c-0.184 0.9-0.949 1.574-1.879 1.617l-0.004 0z"></path>
<path d="M15.479 16.808h-2.425v1.245h2.425c1.578-0.091 2.848-1.302 3.029-2.846l0.001-0.015h-1.147c-0.184 0.9-0.949 1.574-1.879 1.617l-0.004 0z"></path>
</svg>
