<!-- Generated by IcoMoon.io -->
<svg version="1.1" xmlns="http://www.w3.org/2000/svg" width="34" height="32" viewBox="0 0 34 32">
<title>API-Management-Service</title>
<path d="M21.403 13.269c-0.069-2.295-1.988-4.13-4.346-4.13-0.032 0-0.065 0-0.097 0.001l0.005-0c-0.014-0-0.030-0-0.046-0-1.926 0-3.568 1.187-4.202 2.854l-0.010 0.030c-2.015 0.28-3.55 1.947-3.567 3.969v0.002c0.084 2.196 1.925 3.945 4.184 3.945 0.038 0 0.077-0 0.115-0.002l-0.006 0c0.056 0.004 0.122 0.006 0.188 0.006s0.132-0.002 0.197-0.007l-0.009 0h1.078c-0.063-0.145-0.099-0.314-0.099-0.491 0-0 0-0.001 0-0.001v0c0.004-0.236 0.070-0.456 0.184-0.646l-0.003 0.006h-1.535c-0.030 0.001-0.066 0.002-0.101 0.002-1.625 0-2.954-1.24-3.051-2.805l-0-0.008c0.014-1.47 1.139-2.68 2.592-2.867l0.015-0.002 0.68-0.105 0.226-0.64c0.487-1.254 1.706-2.129 3.134-2.129 0.013 0 0.027 0 0.040 0l-0.002-0c0.023-0.001 0.050-0.001 0.076-0.001 1.736 0 3.151 1.339 3.224 3.019l0 0.006v0.962l0.976 0.132c1.126 0.144 1.991 1.060 2.027 2.179l0 0.003c-0.045 1.236-1.079 2.222-2.349 2.226h-1.102c-0.323-1.597-1.745-2.785-3.451-2.785-0.007 0-0.014 0-0.021 0h0.001c-0.022-0.003-0.047-0.004-0.072-0.004-0.317 0-0.574 0.251-0.574 0.561s0.257 0.561 0.574 0.561c0.025 0 0.051-0.002 0.075-0.005l-0.003 0c1.241 0.085 2.215 1.090 2.215 2.317s-0.974 2.232-2.207 2.317l-0.007 0c-0.022-0.003-0.047-0.004-0.072-0.004-0.317 0-0.574 0.251-0.574 0.561s0.257 0.561 0.574 0.561c0.025 0 0.051-0.002 0.075-0.005l-0.003 0c1.755-0.003 3.209-1.263 3.468-2.908l0.003-0.019h0.941c0.027 0.004 0.058 0.007 0.090 0.007s0.063-0.003 0.093-0.007l-0.003 0c1.889-0.035 3.411-1.526 3.441-3.371l0-0.003c-0.034-1.674-1.307-3.048-2.957-3.283l-0.019-0.002z"></path>
<path d="M14.787 19.438c0 0.745 0.618 1.349 1.381 1.349 0 0 0.001 0 0.001 0h0.035c0.762-0.001 1.379-0.605 1.379-1.349v-0.035c-0-0.745-0.617-1.349-1.379-1.349h-0.035c-0 0-0.001 0-0.001 0-0.762 0-1.38 0.604-1.381 1.349v0 0.035z"></path>
</svg>
