<!-- Generated by IcoMoon.io -->
<svg version="1.1" xmlns="http://www.w3.org/2000/svg" width="28" height="32" viewBox="0 0 28 32">
<title>Application-Insights</title>
<path fill="#cecece" d="M11.541 23.181l0.698-0.744v-1.986h-3.48v1.986l0.698 0.744c0.041 0.048 0.098 0.081 0.163 0.092l0.002 0h1.722c0.079-0.003 0.149-0.038 0.197-0.092l0-0z"></path>
<path fill="#000" d="M13.851 8.727c-0.015-0-0.033-0-0.051-0-2.803 0-5.075 2.257-5.075 5.041 0 0.205 0.012 0.407 0.036 0.606l-0.002-0.024c0.234 2.112 2.258 3.097 2.836 5.777 0.045 0.184 0.207 0.32 0.402 0.323h3.706c0.197-0.003 0.361-0.138 0.405-0.32l0.001-0.003c0.577-2.679 2.584-3.665 2.836-5.777 0.022-0.175 0.034-0.377 0.034-0.582 0-2.784-2.272-5.041-5.075-5.041-0.019 0-0.037 0-0.056 0l0.003-0z"></path>
<path fill="#000" d="M15.97 11.542c-0.647 0.024-1.163 0.551-1.163 1.197 0 0.012 0 0.024 0.001 0.036l-0-0.002v0.66h-1.817v-0.66c0-0.007 0-0.016 0-0.025 0-0.666-0.544-1.207-1.215-1.207-0.001 0-0.001 0-0.002 0h0c-0.647 0.024-1.163 0.551-1.163 1.197 0 0.012 0 0.024 0.001 0.036l-0-0.002c-0 0.010-0 0.022-0 0.034 0 0.648 0.515 1.177 1.16 1.206l0.003 0h0.552v5.135c0 0.17 0.139 0.308 0.311 0.308s0.311-0.138 0.311-0.308v0-5.135h1.861v5.135c0 0.17 0.139 0.308 0.311 0.308s0.311-0.138 0.311-0.308v0-5.135h0.541c0.649-0.022 1.166-0.55 1.166-1.197 0-0.015-0-0.030-0.001-0.044l0 0.002c0-0.010 0-0.022 0-0.034 0-0.647-0.517-1.175-1.164-1.197l-0.002-0zM12.326 13.434h-0.585c-0.329-0.027-0.586-0.3-0.586-0.631 0-0.010 0-0.020 0.001-0.030l-0 0.001c-0-0.008-0.001-0.018-0.001-0.028 0-0.332 0.257-0.604 0.583-0.631l0.002-0c0.329 0.027 0.586 0.3 0.586 0.631 0 0.010-0 0.020-0.001 0.030l0-0.001v0.66zM16.014 13.434h-0.585v-0.693c-0.003-0.022-0.005-0.047-0.005-0.073 0-0.321 0.262-0.582 0.586-0.582s0.586 0.261 0.586 0.582c0 0.026-0.002 0.051-0.005 0.076l0-0.003c0.003 0.021 0.004 0.045 0.004 0.070 0 0.328-0.255 0.598-0.579 0.623l-0.002 0z"></path>
<path fill="#999" d="M12.094 21.82l3.516-0.677v-0.385l-3.516 0.685v0.377zM15.61 22.084v-0.375l-3.516 0.693v0.033l0.267 0.29 3.249-0.642z"></path>
</svg>
