<!-- Generated by IcoMoon.io -->
<svg version="1.1" xmlns="http://www.w3.org/2000/svg" width="32" height="32" viewBox="0 0 32 32">
<title>Application-Service-Environment</title>
<path fill="#949494" d="M15.652 15.75h-6.118v-5.264c0.001-0.487 0.393-0.883 0.88-0.888h5.238v6.151zM10.293 14.99h4.599v-4.648h-4.478c-0.067 0-0.121 0.054-0.121 0.121v0l0.001 4.526zM22.465 15.75h-6.118v-6.151h5.238c0.487 0.005 0.88 0.4 0.88 0.888v5.264zM17.107 14.99h4.599v-4.504c0.002-0.007 0.002-0.016 0.002-0.024 0-0.067-0.054-0.121-0.121-0.121-0.001 0-0.002 0-0.003 0l-4.477 0.002v4.648zM15.652 22.53h-5.238c-0.483-0-0.875-0.39-0.88-0.872v-5.269h6.118v6.141zM10.293 17.149v4.509c0 0.067 0.054 0.121 0.121 0.121v0l4.478-0.001v-4.63h-4.599zM21.585 22.53h-5.238v-6.141h6.118v5.269c-0.005 0.483-0.397 0.872-0.88 0.873h-0zM17.107 21.771h4.478c0.067 0 0.121-0.054 0.121-0.121v0l-0.001-4.501h-4.599v4.622z"></path>
<path fill="#000" d="M20.584 17.309c-0.026-1.027-0.788-1.869-1.777-2.018l-0.012-0.001c-0.053-1.405-1.204-2.523-2.617-2.523-0.020 0-0.040 0-0.060 0.001l0.003-0c-0.008-0-0.018-0-0.028-0-1.149 0-2.129 0.722-2.512 1.737l-0.006 0.018c-1.207 0.17-2.128 1.186-2.151 2.42l-0 0.002c0.049 1.35 1.155 2.426 2.512 2.426 0.024 0 0.047-0 0.070-0.001l-0.003 0h4.535c1.121-0.035 2.019-0.939 2.045-2.058l0-0.003z"></path>
</svg>
