<!-- Generated by IcoMoon.io -->
<svg version="1.1" xmlns="http://www.w3.org/2000/svg" width="32" height="32" viewBox="0 0 32 32">
<title>Application-Registration</title>
<path fill="#000" d="M13.106 19.566h3.762v3.708h-3.762v-3.708zM8.761 14.618h3.762v-3.711h-3.277c-0.288 0-0.521 0.231-0.521 0.515 0 0 0 0 0 0.001v-0l0.036 3.195zM9.282 23.274h3.241v-3.708h-3.798v3.192c0 0 0 0 0 0 0 0.284 0.233 0.515 0.521 0.515h0.036zM8.761 18.98h3.762v-3.744h-3.798l0.036 3.744zM17.52 23.274h3.234c0.288-0 0.521-0.231 0.521-0.515 0-0 0-0 0-0.001v0-3.192h-3.788l0.033 3.708zM13.175 18.98h3.693v-3.744h-3.762l0.069 3.744zM17.52 18.98h3.695v-3.744h-3.729l0.033 3.744zM17.52 10.94v3.678h3.695v-3.195c0-0 0-0 0-0.001 0-0.285-0.233-0.515-0.521-0.515-0.001 0-0.001 0-0.002 0h0l-3.172 0.033zM13.175 14.651h3.693v-3.744h-3.762l0.069 3.744z"></path>
<path fill="#32bedd" d="M23.275 17.461v3.873l-3.364 1.94v-3.873l3.364-1.94z"></path>
<path fill="#9cebff" d="M23.274 17.461l-3.362 1.948-3.364-1.948 3.364-1.943 3.362 1.943z"></path>
<path fill="#50e6ff" d="M19.912 19.409v3.865l-3.364-1.94v-3.873l3.364 1.948z"></path>
<path fill="#9cebff" d="M8.725 21.334l3.364-1.932v3.873l-3.364-1.94z"></path>
<path fill="#50e6ff" d="M12.090 21.334l-3.364-1.932v3.873l3.364-1.94z"></path>
</svg>
