<!-- Generated by IcoMoon.io -->
<svg version="1.1" xmlns="http://www.w3.org/2000/svg" width="32" height="32" viewBox="0 0 32 32">
<title>Application-Service</title>
<path fill="#000" d="M23.111 16c0 3.927-3.184 7.111-7.111 7.111s-7.111-3.184-7.111-7.111c0-3.927 3.184-7.111 7.111-7.111s7.111 3.184 7.111 7.111z"></path>
<path fill="#83b9f9" d="M10.574 17.399c-0.286 0.71-0.517 1.468-0.695 2.215 0.158 0.266 0.329 0.497 0.517 0.743 0.143 0.188 0.296 0.379 0.459 0.549 0.201-0.993 0.507-1.972 0.906-2.902-0.447-0.078-0.86-0.288-1.187-0.605zM11.39 13.613c-0.293-0.79-0.494-1.626-0.579-2.466-0.351 0.371-0.652 0.76-0.913 1.197 0.098 0.67 0.256 1.36 0.474 1.999 0.266-0.334 0.617-0.587 1.018-0.73z"></path>
<path fill="#83b9f9" d="M15.478 19.921c0-0.399 0.163-0.783 0.452-1.059-0.768-0.421-1.475-0.943-2.107-1.55-0.331 0.356-0.768 0.597-1.244 0.685 0.371 0.391 0.775 0.75 1.207 1.074 0.534 0.404 1.106 0.753 1.708 1.044-0.010-0.065-0.013-0.128-0.013-0.193h-0.002zM20.733 20.099c-0.773 0-1.545-0.090-2.298-0.268 0 0.033 0.008 0.060 0.008 0.090 0 0.389-0.153 0.76-0.424 1.036 0.938 0.183 1.914 0.258 2.867 0.208 0.359-0.339 0.682-0.725 0.963-1.129-0.364 0.038-0.75 0.063-1.114 0.063h-0.003z"></path>
<path fill="#83b9f9" d="M16.556 12.771c1.54-0.775 3.269-1.207 4.992-1.227-0.361-0.452-0.778-0.853-1.239-1.202-1.35 0.088-2.702 0.411-3.946 0.938-0.273 0.115-0.539 0.251-0.8 0.389-0.632-0.75-1.224-1.583-1.688-2.448-0.309 0.095-0.585 0.203-0.878 0.339 0.479 0.918 1.069 1.814 1.728 2.611-0.64 0.419-1.232 0.908-1.764 1.457 0.464 0.176 0.858 0.499 1.124 0.918 0.489-0.482 1.029-0.911 1.606-1.282 0.948 0.991 1.979 1.894 3.088 2.699 0.075-0.324 0.256-0.612 0.509-0.825-0.973-0.712-1.887-1.505-2.732-2.368z"></path>
<path fill="#f2f2f2" d="M21.907 16.249c0 0.869-0.704 1.573-1.573 1.573s-1.573-0.704-1.573-1.573c0-0.869 0.704-1.573 1.573-1.573s1.573 0.704 1.573 1.573z"></path>
<path fill="#f2f2f2" d="M14.435 15.759c0 1.259-1.021 2.279-2.279 2.279s-2.279-1.020-2.279-2.279c0-1.259 1.021-2.279 2.279-2.279s2.279 1.021 2.279 2.279z"></path>
<path fill="#f2f2f2" d="M18.44 19.922c0 0.818-0.663 1.481-1.481 1.481s-1.481-0.663-1.481-1.481c0-0.818 0.663-1.481 1.481-1.481s1.481 0.663 1.481 1.481z"></path>
</svg>
