<!-- Generated by IcoMoon.io -->
<svg version="1.1" xmlns="http://www.w3.org/2000/svg" width="35" height="32" viewBox="0 0 35 32">
<title>Application-Service-Domain</title>
<path fill="#000" d="M9.598 12.989h16.004v8.878c-0 0.295-0.24 0.533-0.536 0.534h-14.931c-0.296-0-0.536-0.239-0.536-0.534v-8.878z"></path>
<path fill="#005ba1" d="M10.135 9.597h14.931c0.296 0 0.536 0.239 0.536 0.534 0 0.001 0 0.002 0 0.003v-0 2.854h-16.004v-2.865c0.005-0.291 0.243-0.525 0.536-0.525v0z"></path>
<path fill="#f2f2f2" d="M11.754 11.716c0 0.145 0.118 0.262 0.264 0.262l11.175-0.003c0.146 0 0.264-0.117 0.264-0.262v0l-0.001-0.842c0-0.145-0.118-0.262-0.264-0.262l-11.175-0c-0.146 0-0.264 0.117-0.264 0.262v0l0.001 0.844z"></path>
<path fill="#fff" d="M15.416 15.995l-0.847 2.809h-0.678l-0.519-1.872c-0.005-0.038-0.008-0.082-0.008-0.127s0.003-0.089 0.008-0.132l-0.001 0.005c0.005 0.037 0.008 0.079 0.008 0.123s-0.003 0.086-0.009 0.128l0.001-0.005-0.666 1.88h-0.669l-0.838-2.809h0.669l0.517 2.052c0.004 0.036 0.006 0.079 0.006 0.121s-0.002 0.085-0.006 0.127l0-0.005c-0.004-0.036-0.006-0.079-0.006-0.121s0.002-0.085 0.006-0.127l-0 0.005 0.678-2.052h0.613l0.517 2.061c0.003 0.036 0.005 0.079 0.005 0.121s-0.002 0.085-0.005 0.127l0-0.005c-0.003-0.036-0.005-0.079-0.005-0.121s0.002-0.085 0.006-0.127l-0 0.005 0.584-2.061h0.641zM19.747 15.995l-0.847 2.809h-0.678l-0.519-1.872c-0.005-0.038-0.008-0.082-0.008-0.127s0.003-0.089 0.008-0.132l-0.001 0.005c-0.031 0.099-0.066 0.183-0.106 0.264l0.005-0.010-0.565 1.872h-0.661l-0.847-2.809h0.669l0.528 2.052c0.003 0.036 0.005 0.079 0.005 0.121s-0.002 0.085-0.005 0.127l0-0.005c0-0.076 0-0.158 0.045-0.243l0.632-2.052h0.601l0.519 2.061c0.003 0.036 0.005 0.079 0.005 0.121s-0.002 0.085-0.005 0.127l0-0.005c-0.003-0.036-0.005-0.079-0.005-0.121s0.002-0.085 0.006-0.127l-0 0.005 0.61-2.061h0.613zM24.086 15.995l-0.836 2.809h-0.678l-0.539-1.872c-0.003-0.038-0.005-0.082-0.005-0.127s0.002-0.089 0.005-0.133l-0 0.006c-0.004 0.089-0.021 0.173-0.047 0.252l0.002-0.007-0.621 1.88h-0.661l-0.847-2.809h0.678l0.519 2.052c0.004 0.036 0.006 0.079 0.006 0.121s-0.002 0.085-0.006 0.127l0-0.005c-0.004-0.036-0.006-0.079-0.006-0.121s0.002-0.085 0.007-0.127l-0 0.005 0.678-2.052h0.573l0.508 2.061c0.003 0.036 0.005 0.079 0.005 0.121s-0.002 0.085-0.005 0.127l0-0.005c-0.003-0.036-0.005-0.079-0.005-0.121s0.002-0.085 0.005-0.127l-0 0.006 0.649-2.061h0.621z"></path>
</svg>
