<!-- Generated by IcoMoon.io -->
<svg version="1.1" xmlns="http://www.w3.org/2000/svg" width="32" height="32" viewBox="0 0 32 32">
<title>Application-Service-Plan</title>
<path fill="#000" d="M17.348 22.787c0 0.003 0 0.005 0 0.008 0 0.265-0.217 0.479-0.484 0.479-0.003 0-0.006-0-0.009-0h-7.644c-0 0-0.001 0-0.001 0-0.267 0-0.484-0.215-0.484-0.479 0-0.003 0-0.006 0-0.009v0-13.575c-0-0.002-0-0.005-0-0.008 0-0.265 0.217-0.479 0.484-0.479 0 0 0.001 0 0.001 0h7.652c0.003-0 0.006-0 0.009-0 0.267 0 0.484 0.215 0.484 0.479 0 0.003-0 0.006-0 0.009v-0l-0.008 13.575z"></path>
<path fill="#003067" d="M9.952 13.825c0-0 0-0 0-0.001 0-0.51 0.418-0.924 0.933-0.924 0.015 0 0.030 0 0.044 0.001l-0.002-0h4.322c0.503 0.015 0.906 0.423 0.906 0.924v0c0 0.003 0 0.006 0 0.010 0 0.51-0.417 0.923-0.931 0.924h-4.322c-0.002 0-0.005 0-0.008 0-0.52 0-0.942-0.418-0.942-0.933 0-0 0-0.001 0-0.001v0zM9.952 11.069c0-0.515 0.422-0.932 0.942-0.932 0.012 0 0.024 0 0.035 0.001l-0.002-0h4.322c0.504 0.015 0.906 0.423 0.906 0.924 0 0.003 0 0.005-0 0.008v-0c0 0.001 0 0.001 0 0.002 0 0.51-0.417 0.923-0.931 0.924h-4.322c-0.005 0-0.011 0-0.016 0-0.515 0-0.933-0.414-0.933-0.924 0-0.001 0-0.002 0-0.002v0z"></path>
<path fill="#50e6ff" d="M11.594 11.070c0 0.345-0.282 0.625-0.631 0.625s-0.631-0.28-0.631-0.625c0-0.345 0.282-0.625 0.631-0.625s0.631 0.28 0.631 0.625z"></path>
<path fill="#50e6ff" d="M11.594 13.826c0 0.345-0.282 0.625-0.631 0.625s-0.631-0.28-0.631-0.625c0-0.345 0.282-0.625 0.631-0.625s0.631 0.28 0.631 0.625z"></path>
<path fill="#000" d="M20.579 20.603c-0.039-1.307-1.020-2.376-2.292-2.564l-0.015-0.002c-0.061-1.81-1.557-3.255-3.393-3.255-0.022 0-0.044 0-0.067 0.001l0.003-0c-0.015-0-0.033-0-0.051-0-1.495 0-2.767 0.94-3.249 2.255l-0.008 0.024c-1.555 0.207-2.747 1.496-2.782 3.068l-0 0.004c0.048 1.745 1.487 3.142 3.256 3.142 0.027 0 0.055-0 0.082-0.001l-0.004 0h5.851c1.472-0.029 2.655-1.211 2.669-2.67v-0.001z"></path>
</svg>
