<!-- Generated by IcoMoon.io -->
<svg version="1.1" xmlns="http://www.w3.org/2000/svg" width="27" height="32" viewBox="0 0 27 32">
<title>Application-Configuration</title>
<path fill="#59b4d9" d="M20.033 15.462c0-0.145 0.036-0.329 0.036-0.477-0.014-2.605-2.104-4.711-4.681-4.711-0.017 0-0.035 0-0.052 0l0.003-0c-0.031-0.001-0.068-0.001-0.104-0.001-1.522 0-2.87 0.749-3.706 1.903l-0.009 0.013c-0.52-0.347-1.159-0.553-1.844-0.553-0.017 0-0.033 0-0.050 0l0.002-0c-1.956 0-3.545 1.596-3.563 3.571v0.294c-1.214 0.581-2.040 1.811-2.040 3.235 0 0.001 0 0.001 0 0.002v-0c0.025 2.181 1.779 3.94 3.939 3.94 0.048 0 0.096-0.001 0.143-0.003l-0.007 0h10.040c0.041 0.002 0.088 0.002 0.136 0.002 2.16 0 3.914-1.759 3.939-3.938l0-0.002c0-0.009 0-0.019 0-0.029 0-1.467-0.894-2.722-2.161-3.239l-0.023-0.008z"></path>
<path fill="#fcd116" d="M12.687 17.739l0.385 0.921-0.862 1.526 0.944 0.957 1.559-0.74 0.911 0.388 0.474 1.441 0.049 0.171h1.342l0.563-1.612 0.911-0.388 1.342 0.701 0.168 0.086 0.944-0.957-0.717-1.5 0.382-0.921 1.428-0.484 0.168-0.049v-1.359l-1.592-0.569-0.382-0.921 0.691-1.355 0.086-0.171-0.911-0.957-1.51 0.74-0.908-0.388-0.48-1.441-0.086-0.171h-1.283l-0.563 1.612-0.908 0.388-1.342-0.701-0.168-0.086-0.898 1.089 0.648 1.395-0.385 0.921-1.424 0.484-0.168 0.086v1.296l1.592 0.569zM15.035 16.565c0-1.037 0.831-1.878 1.857-1.878s1.857 0.841 1.857 1.878-0.831 1.878-1.857 1.878c-0 0-0.001 0-0.001 0h0c-0.006 0-0.013 0-0.020 0-1.014 0-1.835-0.831-1.835-1.857 0-0.008 0-0.015 0-0.023v0.001z"></path>
<path fill="#57a300" d="M5.145 21.011l0.355 0.385-0.151 0.911 0.638 0.296 0.635-0.648 0.516 0.023 0.493 0.622 0.056 0.076 0.661-0.247-0.013-0.898 0.378-0.359 0.789 0.099 0.095 0.013 0.296-0.645-0.625-0.609 0.026-0.526 0.615-0.5 0.072-0.053-0.243-0.668-0.888 0.010-0.352-0.382 0.099-0.796 0.010-0.099-0.622-0.306-0.612 0.641-0.516-0.023-0.493-0.625-0.072-0.066-0.632 0.234 0.013 0.898-0.382 0.359-0.783-0.099-0.099-0.010-0.247 0.701 0.569 0.569-0.023 0.523-0.618 0.5-0.066 0.072 0.234 0.638 0.885-0.013zM6.092 20.001c-0.038-0.101-0.060-0.218-0.060-0.34 0-0.545 0.436-0.986 0.975-0.986s0.975 0.442 0.975 0.986c0 0.423-0.263 0.784-0.633 0.924l-0.007 0.002c-0.101 0.040-0.219 0.063-0.342 0.063-0.417 0-0.772-0.268-0.906-0.642l-0.002-0.007z"></path>
<path fill="#fff" opacity="0.2" d="M6.576 20.653c0-1.51 0.763-2.688 2.181-3.424v-0.293c0.040-2.101 1.734-3.789 3.816-3.789 0.726 0 1.405 0.205 1.983 0.562l-0.017-0.010c0.925-1.278 2.403-2.099 4.070-2.099 0.002 0 0.004 0 0.006 0h-0c-0.865-0.776-2.009-1.25-3.263-1.25-0.005 0-0.009 0-0.014 0h0.001c-0.005-0-0.010-0-0.016-0-1.555 0-2.934 0.761-3.794 1.935l-0.009 0.013c-0.519-0.345-1.156-0.55-1.839-0.55-0.018 0-0.037 0-0.055 0l0.003-0c-1.955 0-3.543 1.594-3.563 3.567v0.298c-1.214 0.581-2.040 1.811-2.040 3.235 0 0.001 0 0.001 0 0.002v-0c0 0.002 0 0.005 0 0.008 0 1.869 1.299 3.431 3.034 3.813l0.025 0.005c-0.321-0.576-0.51-1.265-0.51-1.999 0-0.008 0-0.017 0-0.025v0.001z"></path>
</svg>
