<!-- Generated by IcoMoon.io -->
<svg version="1.1" xmlns="http://www.w3.org/2000/svg" width="32" height="32" viewBox="0 0 32 32">
<title>Application-Gateway</title>
<path fill="#000" d="M15.66 23.025c0.188 0.188 0.492 0.188 0.68 0l6.686-6.686c0.188-0.188 0.188-0.492 0-0.68v0l-6.686-6.686c-0.188-0.188-0.492-0.188-0.68 0l-6.686 6.686c-0.188 0.188-0.188 0.492 0 0.68v0l6.686 6.686z"></path>
<path fill="#fff" d="M17.603 17.273h2.396c0.047-0.004 0.084-0.044 0.084-0.092 0-0 0-0 0-0v0l-0.001-2.386c0-0.003 0-0.006 0-0.009 0-0.047-0.038-0.084-0.084-0.084-0.028 0-0.052 0.013-0.068 0.034l-0 0-0.659 0.657v0.042c-0.015 0.015-0.036 0.024-0.059 0.024s-0.044-0.009-0.059-0.024v0l-2.924-2.884c-0.015-0.015-0.036-0.024-0.059-0.024s-0.044 0.009-0.059 0.024v0l-0.742 0.743c-0.015 0.017-0.025 0.039-0.025 0.063s0.009 0.047 0.025 0.063l2.874 2.874c0.015 0.017 0.025 0.039 0.025 0.063s-0.009 0.047-0.025 0.063l0-0-0.042 0.042-0.657 0.66c-0.014 0.016-0.022 0.037-0.022 0.060 0 0.047 0.035 0.086 0.080 0.092l0 0z"></path>
<path fill="#fff" d="M14.254 17.273h-2.396c-0.039-0.011-0.068-0.047-0.068-0.089 0-0.001 0-0.002 0-0.004v0l-0-2.386c0.001-0.046 0.038-0.083 0.084-0.083 0.023 0 0.044 0.009 0.059 0.024v0l0.667 0.657v0.042c0.015 0.015 0.036 0.024 0.059 0.024s0.044-0.009 0.059-0.024v0l2.909-2.884c0.015-0.015 0.036-0.024 0.059-0.024s0.044 0.009 0.059 0.024v0l0.742 0.743c0.015 0.017 0.025 0.039 0.025 0.063s-0.009 0.047-0.025 0.063l-2.876 2.874c-0.015 0.017-0.025 0.039-0.025 0.063s0.009 0.047 0.025 0.063l-0-0v0.042l0.657 0.66c0.020 0.017 0.032 0.042 0.032 0.070 0 0.035-0.020 0.066-0.048 0.081l-0.001 0z"></path>
<path fill="#fff" d="M14.17 19.434l1.686 1.686c0.015 0.015 0.036 0.024 0.059 0.024s0.044-0.009 0.059-0.024v0l1.688-1.686c0.015-0.015 0.024-0.036 0.024-0.059 0-0.046-0.037-0.084-0.083-0.084h-0l-0.988-0.002c-0.045-0.004-0.080-0.039-0.084-0.084l-0-0 0.001-4.047c0-0.003 0-0.005 0-0.008 0-0.047-0.038-0.084-0.084-0.084-0 0-0 0-0 0l-1.046-0.001c-0.051 0-0.093 0.042-0.093 0.093v0l-0.001 4.049c0 0.047-0.038 0.084-0.084 0.084v0l-0.994-0.001c-0.046 0.001-0.083 0.038-0.083 0.084 0 0.023 0.009 0.044 0.024 0.059v0z"></path>
<path fill="#0078d4" d="M17.4 14.972c-0.376 0.284-0.852 0.454-1.367 0.454-1.262 0-2.286-1.023-2.286-2.286 0-0.717 0.331-1.358 0.848-1.777l0.004-0.003c0.365-0.258 0.819-0.412 1.309-0.412 1.262 0 2.286 1.023 2.286 2.286 0 0.703-0.317 1.331-0.816 1.751l-0.003 0.003 0.026-0.016z"></path>
<path fill="#000" d="M15.502 13.090c0 0.405-0.329 0.734-0.734 0.734s-0.734-0.329-0.734-0.734c0-0.405 0.329-0.734 0.734-0.734s0.734 0.329 0.734 0.734z"></path>
<path fill="#f2f2f2" opacity="0.55" d="M14.042 14.313l0.161 0.252 0.117 0.169c0.074-0.354 0.174-0.665 0.301-0.96l-0.012 0.033c-0.149-0.026-0.279-0.094-0.38-0.192l0 0c-0.067 0.188-0.131 0.422-0.181 0.662l-0.006 0.037zM14.523 12.398c-0.092-0.227-0.163-0.492-0.201-0.767l-0.002-0.018c-0.106 0.114-0.201 0.242-0.28 0.38l-0.005 0.010c0.037 0.235 0.096 0.444 0.176 0.643l-0.007-0.020c0.086-0.098 0.193-0.176 0.314-0.227l0.006-0.002zM15.308 13.588c-0.105 0.111-0.244 0.189-0.401 0.218l-0.004 0.001c0.12 0.121 0.247 0.234 0.381 0.339l0.009 0.007c0.159 0.118 0.338 0.228 0.528 0.321l0.021 0.009v-0.060c0.004-0.137 0.069-0.258 0.168-0.337l0.001-0.001c-0.268-0.139-0.499-0.304-0.703-0.498l0.001 0.001zM17.519 14.482c-0.262-0.003-0.515-0.034-0.759-0.090l0.024 0.005c0 0.001 0 0.002 0 0.003 0 0.128-0.052 0.243-0.135 0.327l0-0c0.208 0.048 0.447 0.075 0.693 0.075 0.077 0 0.154-0.003 0.229-0.008l-0.010 0.001c0.114-0.106 0.216-0.222 0.307-0.346l0.005-0.007-0.353 0.042z"></path>
<path fill="#f2f2f2" d="M17.897 13.251c0 0.279-0.227 0.506-0.506 0.506s-0.506-0.227-0.506-0.506c0-0.279 0.227-0.506 0.506-0.506s0.506 0.227 0.506 0.506z"></path>
<path fill="#f2f2f2" opacity="0.55" d="M16.184 12.136c0.456-0.223 0.993-0.353 1.56-0.353 0.010 0 0.020 0 0.029 0h-0.002c-0.114-0.146-0.245-0.271-0.392-0.375l-0.006-0.004c-0.46 0.029-0.889 0.135-1.282 0.306l0.025-0.009c-0.083 0-0.159 0.091-0.244 0.135-0.191-0.23-0.367-0.487-0.517-0.759l-0.013-0.025-0.288 0.109c0.163 0.32 0.345 0.596 0.554 0.849l-0.006-0.008c-0.212 0.14-0.397 0.293-0.563 0.464l-0.001 0.001c0.153 0.058 0.278 0.161 0.362 0.293l0.002 0.003c0.151-0.151 0.32-0.285 0.503-0.398l0.012-0.007c0.298 0.301 0.619 0.578 0.962 0.826l0.022 0.015c0.026-0.109 0.086-0.201 0.168-0.267l0.001-0.001c-0.327-0.249-0.616-0.509-0.883-0.792l-0.003-0.003zM18.159 13.544h-0.151l-0.086-0.049c-0.031 0.102-0.090 0.188-0.168 0.251l-0.001 0.001 0.101 0.060 0.094 0.052 0.236 0.117c0.025-0.076 0.051-0.175 0.072-0.277l0.003-0.020-0.101-0.135z"></path>
<path fill="#f2f2f2" d="M15.502 13.090c0 0.405-0.329 0.734-0.734 0.734s-0.734-0.329-0.734-0.734c0-0.405 0.329-0.734 0.734-0.734s0.734 0.329 0.734 0.734z"></path>
<path fill="#f2f2f2" d="M16.784 14.423c0 0.261-0.211 0.472-0.472 0.472s-0.472-0.211-0.472-0.472c0-0.261 0.211-0.472 0.472-0.472s0.472 0.211 0.472 0.472z"></path>
</svg>
