<!-- Generated by IcoMoon.io -->
<svg version="1.1" xmlns="http://www.w3.org/2000/svg" width="29" height="32" viewBox="0 0 29 32">
<title>Application-Security-Group</title>
<path fill="#1b93eb" d="M20.364 15.516c0 3.914-4.624 7.065-5.628 7.704-0.054 0.034-0.12 0.055-0.19 0.055s-0.136-0.020-0.191-0.056l0.002 0.001c-1.006-0.639-5.63-3.79-5.63-7.704v-4.704c0-0 0-0 0-0 0-0.203 0.159-0.368 0.356-0.372h0c3.598-0.098 2.766-1.714 5.464-1.714 2.695 0 1.866 1.617 5.464 1.714 0.197 0.005 0.354 0.17 0.354 0.372 0 0 0 0 0 0v-0 4.704z"></path>
<path fill="#000" d="M19.884 15.556c0 3.59-4.24 6.467-5.163 7.065-0.050 0.031-0.11 0.049-0.175 0.049s-0.125-0.018-0.176-0.050l0.002 0.001c-0.926-0.583-5.163-3.475-5.163-7.065v-4.317c0-0.184 0.144-0.334 0.323-0.339h0c3.298-0.090 2.538-1.568 5.015-1.568 2.474 0 1.714 1.478 5.012 1.568 0.18 0.004 0.326 0.154 0.326 0.339v4.317z"></path>
<path fill="#1f56a3" d="M16.165 19.185c-0.885-0.121-0.878-0.711-0.87-1.617h-1.676c0 0.947 0 1.537-0.87 1.617-0.221 0.019-0.396 0.196-0.418 0.419l-0 0.002h4.263c-0.026-0.227-0.205-0.403-0.427-0.421l-0.002-0z"></path>
<path fill="#1490df" d="M10.607 17.285c0 0 0 0 0 0 0 0.147 0.117 0.267 0.261 0.267 0 0 0.001 0 0.001 0h7.163c0 0 0.001 0 0.001 0 0.144 0 0.261-0.119 0.261-0.267 0-0 0-0 0-0v0-5.027c0-0 0-0 0-0 0-0.147-0.117-0.267-0.261-0.267-0 0-0.001 0-0.001 0h-7.163c-0 0-0.001 0-0.001 0-0.144 0-0.261 0.119-0.261 0.267 0 0 0 0 0 0v0 5.027z"></path>
<path fill="#fff" d="M11.050 16.907c0 0.071 0.057 0.129 0.127 0.129l6.538-0.001c0.070 0 0.127-0.058 0.127-0.129v0l0.002-4.357c0-0.071-0.057-0.129-0.127-0.129l-6.541 0.001c-0.070 0-0.127 0.058-0.127 0.129v0l0.001 4.357z"></path>
<path fill="#0078d4" d="M15.826 13.915l0.008 1.624-1.383 0.816v-1.624l1.376-0.816z"></path>
<path fill="#83b9f9" d="M15.825 13.915l-1.376 0.816-1.383-0.816 1.376-0.816 1.383 0.816z"></path>
<path fill="#5ea0ef" d="M14.45 14.731l-0.008 1.624-1.376-0.816v-1.624l1.383 0.816z"></path>
<path fill="#5ea0ef" opacity="0.2" d="M14.45 14.731v1.624l1.376-0.816-1.376-0.808z"></path>
<path fill="#83b9f9" opacity="0.2" d="M14.442 14.748l0.008 0.008v1.624h-0.008l-1.376-0.816 1.376-0.816z"></path>
</svg>
