<!-- Generated by IcoMoon.io -->
<svg version="1.1" xmlns="http://www.w3.org/2000/svg" width="25" height="32" viewBox="0 0 25 32">
<title>Archive-Storage</title>
<path fill="#3e3e3e" d="M20.298 21.644h-15.742c-1.37 0-2.484-1.1-2.484-2.459v-16.396h20.711v16.396c0 1.359-1.111 2.459-2.484 2.459z"></path>
<path fill="#fff" d="M3.728 8.936h17.398v4.919h-17.398v-4.919z"></path>
<path fill="#804998" opacity="0.85" d="M3.728 8.936h17.398v4.919h-17.398v-4.919z"></path>
<path fill="#fff" d="M3.728 15.085h17.398v4.919h-17.398v-4.919z"></path>
<path fill="#59b4d9" opacity="0.5" d="M3.728 15.085h17.398v4.919h-17.398v-4.919z"></path>
<path fill="#59b4d9" d="M3.728 2.787h17.398v4.919h-17.398v-4.919z"></path>
<path fill="#fff" opacity="0.25" d="M3.728 8.936h17.398v0.82h-17.398v-0.82z"></path>
<path fill="#fff" opacity="0.2" d="M3.728 2.787h17.398v0.82h-17.398v-0.82z"></path>
<path fill="#fff" opacity="0.4" d="M3.728 15.085h17.398v0.82h-17.398v-0.82z"></path>
<path fill="#fff" opacity="0.15" d="M4.555 21.644h1.118l13.002-18.855h-16.605v16.396c0 1.359 1.114 2.459 2.484 2.459z"></path>
<path fill="#59b4d9" d="M7.42 11.314c0.186 0 0.347-0.139 0.369-0.325l0.91-8.611c0.022-0.219-0.15-0.409-0.373-0.409h-1.816c-0.223 0-0.395 0.19-0.369 0.409l0.91 8.611c0.022 0.186 0.179 0.325 0.369 0.325z"></path>
<path fill="#fff" opacity="0.6" d="M8.372 2.294l-0.917 8.691h-0.073l-0.917-8.691h1.907z"></path>
<path fill="#fff" opacity="0.6" d="M7.418 2.294l0.037 8.691h-0.073l-0.917-8.691h0.954z"></path>
<path fill="#59b4d9" d="M18.227 13.035c0.234 0 0.435-0.175 0.46-0.406l1.136-10.149c0.033-0.274-0.183-0.511-0.46-0.511h-2.272c-0.278 0-0.493 0.237-0.46 0.511l1.133 10.149c0.029 0.23 0.227 0.406 0.464 0.406z"></path>
<path fill="#fff" opacity="0.6" d="M19.42 2.378l-1.147 10.248h-0.091l-1.147-10.248h2.386z"></path>
<path fill="#59b4d9" d="M15.591 11.314c0.186 0 0.347-0.139 0.369-0.325l0.906-8.611c0.026-0.219-0.146-0.409-0.369-0.409h-1.816c-0.223 0-0.395 0.19-0.369 0.409l0.91 8.611c0.018 0.186 0.179 0.325 0.369 0.325z"></path>
<path fill="#fff" opacity="0.6" d="M14.729 2.376h1.724l-0.862 8.165-0.862-8.165z"></path>
<path fill="#fff" opacity="0.6" d="M14.729 2.376h0.862v8.165l-0.862-8.165z"></path>
<path fill="#fff" opacity="0.6" d="M18.225 2.378l0.047 10.248h-0.091l-1.147-10.248h1.191z"></path>
</svg>
