<!-- Generated by IcoMoon.io -->
<svg version="1.1" xmlns="http://www.w3.org/2000/svg" width="22" height="32" viewBox="0 0 22 32">
<title>ARM-Template</title>
<path fill="#59b4d9" d="M18.98 4.721l-1.961-1.923-0.818-0.797h-14.4v19.999h17.999v-16.482l-0.818-0.797z"></path>
<path fill="#fff" opacity="0.8" d="M16.119 2.8h-13.501v18.401h16.365v-15.6h-2.865v-2.801z"></path>
<path fill="#59b4d9" d="M5.99 12.669c0 0.434-0.109 0.769-0.328 1.009s-0.508 0.36-0.871 0.36c-0.173 0-0.31-0.021-0.42-0.060v-0.568c0.099 0.067 0.226 0.099 0.381 0.099 0.413 0 0.621-0.31 0.621-0.935v-2.244h0.617v2.339zM6.707 13.83v-0.621c0.056 0.049 0.123 0.095 0.205 0.138 0.078 0.039 0.162 0.074 0.25 0.102s0.176 0.049 0.265 0.063c0.088 0.018 0.169 0.025 0.243 0.025 0.261 0 0.455-0.042 0.582-0.127s0.191-0.208 0.191-0.37c0-0.085-0.021-0.159-0.063-0.222-0.049-0.070-0.108-0.129-0.178-0.175l-0.002-0.001c-0.077-0.053-0.165-0.104-0.257-0.147l-0.011-0.005c-0.102-0.046-0.215-0.099-0.332-0.148-0.127-0.067-0.243-0.134-0.353-0.201-0.108-0.066-0.202-0.141-0.285-0.225l-0-0c-0.078-0.079-0.142-0.171-0.188-0.273l-0.002-0.006c-0.043-0.101-0.067-0.217-0.067-0.34 0-0.008 0-0.016 0-0.025l-0 0.001c0-0.173 0.039-0.321 0.116-0.448 0.081-0.123 0.183-0.229 0.314-0.31 0.127-0.081 0.274-0.144 0.431-0.181l0.010-0.002c0.151-0.038 0.325-0.060 0.504-0.060 0 0 0 0 0.001 0h-0c0.388 0 0.674 0.042 0.85 0.131v0.596c-0.212-0.148-0.483-0.222-0.815-0.222-0.092 0-0.183 0.007-0.275 0.025s-0.173 0.046-0.248 0.087l0.004-0.002c-0.071 0.037-0.129 0.087-0.175 0.147l-0.001 0.001c-0.042 0.059-0.067 0.131-0.067 0.21 0 0.004 0 0.009 0 0.013l-0-0.001c0 0.081 0.018 0.152 0.053 0.212 0.032 0.056 0.085 0.113 0.152 0.162s0.148 0.095 0.243 0.141c0.095 0.049 0.208 0.099 0.335 0.152 0.131 0.067 0.25 0.138 0.367 0.208 0.116 0.074 0.215 0.155 0.303 0.243s0.159 0.187 0.208 0.293c0.053 0.109 0.078 0.229 0.078 0.367 0 0.187-0.039 0.342-0.113 0.469-0.078 0.127-0.18 0.229-0.31 0.31-0.127 0.078-0.279 0.134-0.444 0.173-0.151 0.034-0.324 0.054-0.501 0.054-0.093 0-0.185-0.005-0.275-0.016l0.011 0.001c-0.111-0.012-0.206-0.027-0.3-0.046l0.021 0.004c-0.095-0.018-0.183-0.039-0.268-0.063-0.088-0.025-0.155-0.053-0.205-0.088zM11.314 14.038c-0.54 0-0.97-0.169-1.291-0.512-0.325-0.342-0.487-0.783-0.487-1.33 0-0.586 0.166-1.051 0.494-1.401 0.332-0.349 0.776-0.526 1.341-0.526 0.526 0 0.945 0.169 1.266 0.508s0.48 0.783 0.48 1.33c0 0.596-0.162 1.065-0.49 1.411s-0.766 0.519-1.312 0.519zM11.338 10.803c-0.339 0-0.617 0.123-0.833 0.37-0.212 0.25-0.321 0.579-0.321 0.984s0.106 0.734 0.314 0.981c0.208 0.247 0.48 0.37 0.815 0.37 0.356 0 0.639-0.116 0.847-0.353 0.205-0.236 0.307-0.564 0.307-0.991 0-0.434-0.099-0.769-0.3-1.009-0.201-0.236-0.476-0.353-0.829-0.353zM16.962 13.978h-0.677l-1.782-2.681c-0.040-0.061-0.077-0.13-0.107-0.204l-0.003-0.008h-0.018c0.014 0.078 0.021 0.247 0.021 0.501v2.392h-0.596v-3.648h0.72l1.722 2.618c0.071 0.109 0.12 0.183 0.141 0.222h0.011c-0.018-0.095-0.028-0.261-0.028-0.49v-2.35h0.596v3.648z"></path>
</svg>
