<!-- Generated by IcoMoon.io -->
<svg version="1.1" xmlns="http://www.w3.org/2000/svg" width="32" height="32" viewBox="0 0 32 32">
<title>Automation-Account</title>
<path d="M23.282 16.785v-1.656l-0.234-0.090-1.774-0.58-0.467-1.135 0.901-1.92-1.163-1.163-0.231 0.118-1.661 0.842-1.135-0.465-0.729-2.008h-1.658l-0.087 0.234-0.583 1.774-1.135 0.465-1.892-0.899-1.166 1.16 0.118 0.234 0.845 1.656-0.465 1.135-2.038 0.729v1.656l0.234 0.087 1.774 0.583 0.467 1.135-0.901 1.92 1.163 1.163 0.234-0.118 1.661-0.842 1.135 0.465 0.729 2.008h1.658l0.087-0.234 0.583-1.774 1.135-0.465 1.92 0.899 1.166-1.163-0.118-0.231-0.842-1.658 0.465-1.135 2.005-0.727zM16.004 19.19c-1.762-0.001-3.191-1.428-3.191-3.189s1.429-3.189 3.192-3.189c1.762 0 3.191 1.427 3.192 3.187v0c0 0.001 0 0.001 0 0.002 0 1.761-1.429 3.189-3.192 3.189-0.001 0-0.001 0-0.002 0h0z"></path>
<path d="M11.83 17.238h-2.937c-0.002 0-0.004 0-0.006 0-0.084 0-0.152-0.065-0.158-0.148l-0-0c0-0.022 0.005-0.043 0.015-0.061l-0 0.001 3.522-6.959c0.029-0.053 0.085-0.088 0.148-0.088 0.001 0 0.003 0 0.004 0l3.473 0c0.002-0 0.004-0 0.006-0 0.084 0 0.152 0.065 0.158 0.148l0 0c-0 0.031-0.011 0.059-0.029 0.082l-4.135 5.446h4.033c0.002-0 0.004-0 0.006-0 0.084 0 0.152 0.065 0.158 0.148l0 0c-0 0.039-0.017 0.074-0.043 0.099l-0 0-6.706 6.97c-0.062 0.036-0.511 0.408-0.29-0.157l2.78-5.481z"></path>
</svg>
