<!-- Generated by IcoMoon.io -->
<svg version="1.1" xmlns="http://www.w3.org/2000/svg" width="28" height="32" viewBox="0 0 28 32">
<title>Azure-Database-For-Postgresql</title>
<path fill="#000" d="M14.181 12.695c-3.013 0-5.456-0.855-5.456-1.984v10.578c0 1.086 2.399 1.968 5.379 1.984h0.077c3.013 0 5.456-0.855 5.456-1.984v-10.578c0 1.096-2.443 1.984-5.456 1.984z"></path>
<path fill="#e8e8e8" d="M19.637 10.712c0 1.093-2.443 1.984-5.456 1.984s-5.456-0.855-5.456-1.984c0-1.132 2.443-1.986 5.456-1.986s5.456 0.855 5.456 1.986z"></path>
<path fill="#50e6ff" d="M18.36 10.549c0 0.701-1.871 1.265-4.178 1.265s-4.188-0.565-4.188-1.258c0-0.693 1.873-1.265 4.188-1.265s4.178 0.565 4.178 1.258z"></path>
<path fill="#198ab3" d="M14.183 10.865c-0.074-0.002-0.161-0.003-0.248-0.003-1.098 0-2.155 0.18-3.143 0.511l0.070-0.020c0.892 0.297 1.919 0.468 2.986 0.468 0.118 0 0.235-0.002 0.352-0.006l-0.017 0c0.071 0.002 0.155 0.003 0.24 0.003 1.098 0 2.154-0.182 3.14-0.519l-0.069 0.020c-0.9-0.291-1.935-0.459-3.009-0.459-0.106 0-0.211 0.002-0.316 0.005l0.015-0z"></path>
<path fill="#f2f2f2" d="M16.736 16v0.359c-0.031 0.153-0.056 0.337-0.069 0.525l-0.001 0.014c0 0.103 0 0.257 0.044 0.393 0.041 0.139 0 0.234 0 0.311-0.004 0.272-0.083 0.525-0.216 0.74l0.003-0.006c-0.001 0.009-0.001 0.020-0.001 0.031s0 0.022 0.001 0.032l-0-0.001 0.085 0.103c0.357-0.585 0.663-1.261 0.884-1.974l0.017-0.064c0.239-0.814 0.264-1.396 0.077-1.642-0.406-0.499-1.018-0.814-1.703-0.814-0.206 0-0.405 0.028-0.594 0.082l0.015-0.004c0.3 0.152 0.556 0.343 0.774 0.571l0.001 0.001c0.386 0.329 0.641 0.804 0.682 1.338l0 0.007zM16.472 16.070c-0.070-0.018-0.15-0.028-0.232-0.028-0.16 0-0.312 0.039-0.446 0.108l0.006-0.003c-0.249 0.154-0.172 0.47 0 0.855 0.101 0.294 0.201 0.535 0.315 0.768l-0.017-0.039 0.077 0.136c0.041 0.069 0.067 0.128 0.092 0.172l0.069 0.11c0.095-0.159 0.151-0.351 0.151-0.557v0c0.003-0.042 0.004-0.091 0.004-0.141s-0.001-0.099-0.004-0.148l0 0.007c0-0.146 0-0.308-0.041-0.418 0.013-0.22 0.036-0.423 0.071-0.622l-0.005 0.031c-0.011-0.044-0.017-0.095-0.017-0.148 0-0.038 0.003-0.076 0.009-0.113l-0.001 0.004-0.033 0.026zM16.215 16.419c-0.042 0.041-0.094 0.071-0.152 0.087l-0.002 0.001c-0.018 0.004-0.038 0.006-0.059 0.006s-0.041-0.002-0.061-0.007l0.002 0c-0.037-0.036-0.061-0.086-0.061-0.142 0-0.007 0-0.014 0.001-0.021l-0 0.001c0.001-0.061 0.093-0.112 0.203-0.13h0.162c0 0 0.077 0 0.077 0.069-0.010 0.047-0.038 0.086-0.076 0.111l-0.001 0-0.034 0.025zM12.225 17.181v-0.146c0.002-0.022 0.003-0.047 0.003-0.072s-0.001-0.050-0.003-0.075l0 0.003c-0.012-0.128-0.019-0.278-0.019-0.429s0.007-0.3 0.021-0.447l-0.001 0.019c0.056-0.354 0.145-0.671 0.265-0.972l-0.011 0.030c0.107-0.315 0.277-0.584 0.495-0.803l0-0c-0.344-0.107-0.739-0.17-1.149-0.172h-0.001c-0.021-0.001-0.045-0.002-0.070-0.002-0.322 0-0.622 0.096-0.873 0.262l0.006-0.004c-0.345 0.314-0.561 0.767-0.561 1.27 0 0.102 0.009 0.201 0.026 0.298l-0.002-0.010c0.092 0.721 0.242 1.369 0.447 1.991l-0.021-0.074c0.29 0.975 0.621 1.576 0.911 1.671 0.126 0.041 0.264 0 0.4-0.18 0.236-0.293 0.459-0.541 0.585-0.685-0.284-0.29-0.459-0.688-0.459-1.128 0-0.132 0.016-0.26 0.045-0.382l-0.002 0.011-0.033 0.026zM12.445 17.525c-0 0.012-0 0.026-0 0.040 0 0.155 0.019 0.306 0.054 0.45l-0.003-0.013c0.055 0.145 0.13 0.27 0.222 0.379l-0.002-0.002c0.082 0.089 0.181 0.16 0.292 0.211l0.006 0.002c0.098 0.041 0.211 0.067 0.33 0.069l0.001 0c0-0.146 0.121-0.326 0.198-0.513 0.062-0.138 0.123-0.306 0.171-0.479l0.006-0.026c0.013-0.142 0.020-0.308 0.020-0.475s-0.007-0.333-0.021-0.496l0.001 0.021c0-0.077 0-0.162-0.049-0.257-0.008-0.090-0.046-0.17-0.103-0.231l0 0c-0.065-0.063-0.145-0.11-0.235-0.135l-0.004-0.001h-0.169c-0.152 0.018-0.291 0.060-0.419 0.122l0.008-0.003c-0.104 0.051-0.193 0.105-0.277 0.168l0.005-0.003v0.616c0.002 0.019 0.003 0.042 0.003 0.064s-0.001 0.045-0.003 0.067l0-0.003v0.334l-0.033 0.095zM13.007 16.377c0.036-0.012 0.077-0.019 0.119-0.019s0.084 0.007 0.122 0.020l-0.003-0.001c0.060 0.009 0.115 0.027 0.165 0.053l-0.003-0.001c0.077 0 0.085 0.092 0.077 0.118-0.025 0.046-0.060 0.084-0.102 0.112l-0.001 0.001c-0.019-0.010-0.036-0.021-0.051-0.035l0 0c-0.123-0.021-0.218-0.117-0.239-0.239l-0-0.002-0.085-0.008zM13.636 18.944c-0.043 0.005-0.081 0.024-0.111 0.051l0-0-0.118 0.146c-0.146 0.18-0.205 0.239-0.621 0.326-0.085 0.008-0.161 0.038-0.224 0.086l0.001-0.001c0.057 0.045 0.127 0.079 0.202 0.094l0.003 0.001c0.092 0.031 0.197 0.048 0.307 0.048s0.215-0.018 0.314-0.050l-0.007 0.002c0.126-0.063 0.235-0.137 0.332-0.224l-0.001 0.001c0.081-0.068 0.14-0.159 0.169-0.263l0.001-0.004c0.001-0.007 0.001-0.016 0.001-0.025 0-0.083-0.033-0.158-0.086-0.214l0 0c-0.021-0.017-0.049-0.027-0.078-0.027-0.018 0-0.035 0.004-0.050 0.010l0.001-0-0.034 0.043zM17.56 18.944c-0.143 0.055-0.308 0.087-0.481 0.087s-0.338-0.032-0.491-0.090l0.010 0.003c-0.018-0.006-0.038-0.010-0.060-0.010s-0.042 0.004-0.061 0.010l0.001-0c-0.063 0.021-0.113 0.063-0.144 0.119l-0.001 0.001c-0.005 0.038-0.008 0.081-0.008 0.125 0 0.049 0.004 0.098 0.011 0.145l-0.001-0.005c0.101 0.024 0.217 0.038 0.336 0.038 0.216 0 0.422-0.045 0.608-0.126l-0.010 0.004c0.162-0.069 0.299-0.168 0.41-0.292l0.001-0.001-0.121-0.008zM15.517 17.111c-0.118-0.349-0.29-0.855 0.154-1.163 0.161-0.092 0.353-0.146 0.559-0.146 0.070 0 0.139 0.006 0.206 0.018l-0.007-0.001c-0.119-0.381-0.305-0.71-0.547-0.989l0.003 0.003-0.136-0.136c-0.015-0.019-0.032-0.036-0.051-0.051l-0.001-0.001c-0.162-0.146-0.351-0.267-0.557-0.354l-0.013-0.005c-0.264-0.119-0.572-0.188-0.895-0.188-0.017 0-0.034 0-0.052 0.001l0.003-0c-0.032-0.003-0.070-0.005-0.108-0.005-0.177 0-0.345 0.036-0.499 0.1l0.009-0.003c-0.098 0.027-0.183 0.060-0.263 0.099l0.009-0.004c-0.287 0.213-0.506 0.504-0.627 0.842l-0.004 0.013c-0.077 0.244-0.139 0.535-0.175 0.833l-0.002 0.024c0.208-0.127 0.459-0.203 0.728-0.203 0.043 0 0.085 0.002 0.127 0.006l-0.005-0c0.37 0.030 0.66 0.339 0.66 0.717 0 0.022-0.001 0.044-0.003 0.066l0-0.003c0.015 0.163 0.024 0.352 0.024 0.543s-0.009 0.38-0.025 0.567l0.002-0.024c-0.056 0.209-0.123 0.388-0.204 0.559l0.009-0.020c-0.051 0.146-0.121 0.3-0.154 0.421 0.009-0.001 0.019-0.001 0.029-0.001 0.114 0 0.218 0.045 0.295 0.119l-0-0c0.102 0.102 0.164 0.243 0.164 0.399 0 0.019-0.001 0.039-0.003 0.057l0-0.002h0.018v0.205c-0.015 0.153-0.023 0.33-0.023 0.51 0 0.563 0.082 1.106 0.236 1.619l-0.010-0.040c0.049 0.079 0.119 0.141 0.202 0.178l0.003 0.001c0.075 0.050 0.165 0.081 0.263 0.085l0.001 0c0.030 0.003 0.064 0.005 0.1 0.005 0.29 0 0.553-0.112 0.751-0.295l-0.001 0.001c0.141-0.148 0.232-0.344 0.246-0.562l0-0.003c0.062-0.385 0.187-1.455 0.205-1.712-0.003-0.021-0.004-0.046-0.004-0.071 0-0.113 0.030-0.218 0.083-0.309l-0.002 0.003c0.055-0.089 0.133-0.159 0.225-0.204l0.003-0.001c-0.389-0.435-0.699-0.951-0.901-1.518l-0.010-0.032-0.033 0.051z"></path>
</svg>
