<!-- Generated by IcoMoon.io -->
<svg version="1.1" xmlns="http://www.w3.org/2000/svg" width="32" height="32" viewBox="0 0 32 32">
<title>Azure-Stack-Offer</title>
<path fill="#000" d="M23.11 10.865l-1.989-1.984c-0.093-0.090-0.22-0.146-0.359-0.146h-0l-3.603 0.138c-0.125 0.014-0.234 0.079-0.307 0.173l-0.001 0.001-7.971 8.014c-0.091 0.087-0.148 0.211-0.148 0.349s0.057 0.261 0.148 0.348l0 0 5.297 5.364c0.088 0.088 0.208 0.142 0.341 0.142s0.253-0.054 0.341-0.142l-0 0 7.968-8.060c0.082-0.077 0.137-0.184 0.146-0.303l0-0.002 0.29-3.475c0.002-0.015 0.002-0.033 0.002-0.050 0-0.145-0.060-0.275-0.156-0.367l-0-0zM20.745 12.178c-0 0-0 0-0.001 0-0.472 0-0.854-0.389-0.854-0.869s0.382-0.869 0.854-0.869c0.472 0 0.854 0.389 0.854 0.869 0 0 0 0 0 0.001v-0c-0 0.48-0.382 0.868-0.853 0.869h-0z"></path>
<path fill="#005ba1" d="M20.744 9.675c-0.869 0.005-1.571 0.723-1.571 1.608 0 0.888 0.707 1.608 1.58 1.608s1.58-0.72 1.58-1.608c0-0 0-0.001 0-0.001v0c-0.001-0.888-0.708-1.607-1.58-1.607-0.003 0-0.006 0-0.009 0h0zM21.6 11.456c-0.083 0.409-0.434 0.713-0.855 0.713-0.481 0-0.872-0.397-0.872-0.887 0-0.062 0.006-0.122 0.018-0.18l-0.001 0.006c0.065-0.359 0.339-0.637 0.687-0.701l0.005-0.001c0.061-0.016 0.131-0.025 0.203-0.025 0.472 0 0.854 0.389 0.854 0.869 0 0.073-0.009 0.144-0.026 0.212l0.001-0.006h-0.015z"></path>
<path fill="#fff" d="M16.628 12.707l-0.323-0.331-0.308 0.331-0.42-0.425 0.718-0.756 0.743 0.756-0.41 0.425zM12.691 16.046l-0.418-0.425 0.923-0.941 0.238 0.218-0.213-0.218 0.392 0.454-0.923 0.912zM14.844 13.020l0.418 0.436-0.905 0.923-0.418-0.428 0.905-0.93zM11.556 17.871l-0.743-0.756 0.743-0.73 0.418 0.425-0.323 0.305 0.323 0.331-0.418 0.425zM12.75 18.238l0.992 1.017-0.428 0.425-0.989-1.010 0.425-0.433zM14.836 21.218l-0.743-0.756 0.451-0.425 0.292 0.305 0.308-0.279 0.418 0.425-0.725 0.73zM16.851 18.376l0.428 0.425-0.948 0.923-0.42-0.428 0.941-0.92zM18.004 18.053l-0.443-0.425 0.923-0.938 0.418 0.425-0.853 0.938-0.205-0.208 0.161 0.208zM19.652 16.385v0zM19.652 16.385l-0.454-0.382 0.3-0.338-0.3-0.297 0.42-0.459 0.743 0.756-0.71 0.72zM17.843 13.091l0.989 1.007-0.425 0.436-0.992-1.010 0.428-0.433z"></path>
</svg>
