<!-- Generated by IcoMoon.io -->
<svg version="1.1" xmlns="http://www.w3.org/2000/svg" width="24" height="32" viewBox="0 0 24 32">
<title>Azure-Lighthouse-Service-Provider</title>
<path fill="#000" d="M12.488 15.421c0.001-0.313 0.261-0.567 0.582-0.568h3.359c-1.383-1.667-3.48-2.724-5.83-2.724-0.090 0-0.179 0.002-0.268 0.005l0.013-0c-5.133 0-7.828 3.143-8.343 8.28-0.005 0.045-0.008 0.098-0.008 0.151 0 0.749 0.584 1.364 1.332 1.436l0.006 0h9.169l-0.011-6.579z"></path>
<path fill="#fff" opacity="0.8" d="M10.344 11.137c-0.941-0-1.817-0.271-2.551-0.738l0.018 0.011 2.512 6.389 2.487-6.354c-0.694 0.434-1.54 0.691-2.448 0.691-0.006 0-0.012 0-0.019-0h0.001z"></path>
<path fill="#000" d="M15.020 6.564c0 2.521-2.094 4.564-4.676 4.564s-4.676-2.043-4.676-4.564c0-2.521 2.094-4.564 4.676-4.564s4.676 2.043 4.676 4.564z"></path>
<path fill="#000" d="M16.201 19.383h2.681v2.618h-2.681v-2.618zM13.072 15.894h2.681v-2.618h-2.293c-0.208 0-0.376 0.164-0.377 0.367v0l-0.011 2.251zM13.449 22h2.293v-2.618h-2.671v2.237c-0 0.004-0 0.008-0 0.012 0 0.204 0.169 0.369 0.378 0.369h0zM13.072 18.945h2.681v-2.593h-2.681v2.593zM19.319 22h2.29c0 0 0 0 0 0 0.203 0 0.367-0.16 0.367-0.358 0-0.004-0-0.009-0-0.013l0 0.001v-2.237h-2.656v2.607zM16.201 18.945h2.681v-2.593h-2.681v2.593zM19.319 18.945h2.681v-2.593h-2.681v2.593zM19.319 13.276v2.618h2.681v-2.24c0-0.003 0-0.006 0-0.009 0-0.198-0.164-0.358-0.367-0.358-0 0-0 0-0 0v0l-2.314-0.011zM16.201 15.894h2.681v-2.618h-2.681v2.618z"></path>
</svg>
