<!-- Generated by IcoMoon.io -->
<svg version="1.1" xmlns="http://www.w3.org/2000/svg" width="21" height="32" viewBox="0 0 21 32">
<title>Azure-Repo</title>
<path fill="#bc3200" d="M15.123 2.001h-9.85c-0.377 0-0.684 0.321-0.684 0.727v2.378h11.218v-2.378c0-0.406-0.303-0.727-0.684-0.727z"></path>
<path fill="#d13600" d="M16.284 3.453h-12.167c-0.55 0-0.991 0.469-0.991 1.051v0.825h14.15v-0.825c0-0.582-0.445-1.051-0.991-1.051z"></path>
<path fill="#e15815" d="M17.709 4.944h-15.018c-0.55 0-0.991 0.469-0.991 1.051v14.951c0 0.582 0.448 1.055 0.995 1.055h15.011c0.547 0 0.995-0.473 0.995-1.055v-14.951c0-0.582-0.445-1.051-0.991-1.051z"></path>
<path fill="#ffb290" d="M6.716 6.484c-1.041 0-1.887 0.896-1.887 2s0.847 2 1.887 2c1.041 0 1.887-0.896 1.887-2s-0.847-2-1.887-2zM6.716 9.779c-0.677 0-1.224-0.582-1.224-1.298 0-0.72 0.547-1.302 1.224-1.302s1.228 0.582 1.228 1.302c0 0.716-0.55 1.298-1.228 1.298z"></path>
<path fill="#ffb290" d="M7.424 10.268h-1.397v4.057h1.397v-4.057z"></path>
<path fill="#ffdbca" d="M15.681 8.514c0-1.104-0.847-2-1.887-2s-1.887 0.896-1.887 2c0 0.85 0.501 1.577 1.21 1.866v1.376l-7.101 2.48v2.547c-0.691 0.293-1.182 1.016-1.182 1.856 0 1.104 0.847 2 1.887 2s1.887-0.896 1.887-2c0-0.833-0.476-1.545-1.154-1.849v-1.577l7.048-2.469-0.018-0.028h0.018v-2.35c0.688-0.296 1.178-1.016 1.178-1.852zM7.941 18.642c0 0.716-0.547 1.298-1.224 1.298s-1.224-0.582-1.224-1.298c0-0.72 0.547-1.298 1.224-1.298s1.224 0.579 1.224 1.298zM13.794 9.809c-0.677 0-1.228-0.582-1.228-1.298 0-0.72 0.55-1.302 1.228-1.302s1.224 0.582 1.224 1.302c0 0.716-0.55 1.298-1.224 1.298z"></path>
</svg>
