<!-- Generated by IcoMoon.io -->
<svg version="1.1" xmlns="http://www.w3.org/2000/svg" width="26" height="32" viewBox="0 0 26 32">
<title>Azure-Active-Directory-Risk-Detection</title>
<path fill="#ff8c00" d="M21.524 21.261h-17.278c-1.375 0-2.099-1.481-1.421-2.682l4.36-7.944 4.315-7.482c0.693-1.205 2.072-1.22 2.746-0.019l8.69 15.463c0.686 1.197-0.008 2.663-1.413 2.663z"></path>
<path fill="#fff" d="M14.296 16.93c0 0.808-0.631 1.462-1.41 1.462s-1.41-0.655-1.41-1.462c0-0.808 0.631-1.462 1.41-1.462s1.41 0.655 1.41 1.462z"></path>
<path fill="#fff" d="M13.167 8.016h-1.474l0.375 6.773h1.777l0.379-6.773h-1.057z"></path>
</svg>
