<!-- Generated by IcoMoon.io -->
<svg version="1.1" xmlns="http://www.w3.org/2000/svg" width="27" height="32" viewBox="0 0 27 32">
<title>Azure-Arc-Machine</title>
<path fill="#804998" d="M15.727 9.19h-4.904c-0.899 0-1.634 0.766-1.634 1.703v11.917h8.173v-11.917c0-0.937-0.738-1.703-1.636-1.703z"></path>
<path fill="#e5e5e5" d="M15.319 12.595h-4.087c-0.228 0-0.408-0.187-0.408-0.425s0.18-0.425 0.408-0.425h4.087c0.228 0 0.408 0.187 0.408 0.425s-0.18 0.425-0.408 0.425zM15.319 15.999h-4.087c-0.228 0-0.408-0.187-0.408-0.425s0.18-0.425 0.408-0.425h4.087c0.228 0 0.408 0.187 0.408 0.425s-0.18 0.425-0.408 0.425z"></path>
<path fill="#b8d432" d="M14.093 20.257c0 0.47-0.366 0.851-0.817 0.851s-0.817-0.381-0.817-0.851c0-0.47 0.366-0.851 0.817-0.851s0.817 0.381 0.817 0.851z"></path>
</svg>
