<!-- Generated by IcoMoon.io -->
<svg version="1.1" xmlns="http://www.w3.org/2000/svg" width="27" height="32" viewBox="0 0 27 32">
<title>Azure-Monitor-Private-Link-Scope</title>
<path fill="#7a7a7a" d="M12.878 10.988h1.022v6.666h-1.022v-6.666z"></path>
<path fill="#1490df" d="M14.889 10.777c-0.001 0.856-0.672 1.55-1.499 1.55s-1.499-0.695-1.499-1.552c0-0.857 0.671-1.551 1.499-1.552h0c0 0 0 0 0.001 0 0.828 0 1.499 0.695 1.499 1.552 0 0.001 0 0.002 0 0.002v-0z"></path>
<path fill="#000" d="M13.186 17.299h-1.636c-1.122 0.010-2.028 0.953-2.028 2.116 0 1.047 0.734 1.916 1.699 2.086l0.012 0.002c-0.015-0.1-0.024-0.215-0.024-0.333 0-0.16 0.016-0.317 0.047-0.468l-0.002 0.015c-0.583-0.137-1.012-0.669-1.012-1.305 0-0.738 0.578-1.337 1.292-1.337 0.006 0 0.012 0 0.018 0h1.635c0.715 0 1.295 0.6 1.295 1.34s-0.58 1.34-1.295 1.34v0h-0.451c-0.059 0.124-0.095 0.27-0.097 0.424v0.001c0 0 0 0 0 0 0 0.127 0.024 0.248 0.066 0.359l-0.002-0.007h0.484c1.102-0.036 1.983-0.97 1.983-2.116s-0.88-2.080-1.98-2.116l-0.003-0v-0.003z"></path>
<path fill="#000" d="M12.7 19.092c0.015 0.096 0.024 0.209 0.026 0.323l0 0.002c0 0.001 0 0.002 0 0.003 0 0.162-0.017 0.32-0.049 0.472l0.003-0.015c0.587 0.134 1.019 0.668 1.019 1.306 0 0.738-0.578 1.336-1.291 1.336-0.008 0-0.015-0-0.023-0l0.001 0h-1.636c-0.715 0-1.295-0.6-1.295-1.34s0.58-1.34 1.295-1.34v0h0.448c0.060-0.124 0.096-0.269 0.096-0.424 0-0.127-0.024-0.248-0.067-0.358l0.002 0.006h-0.479c-1.118 0.016-2.018 0.957-2.018 2.116s0.9 2.1 2.017 2.116h1.637c1.12-0.013 2.023-0.955 2.023-2.116 0-1.047-0.734-1.916-1.699-2.086l-0.012-0.002h0.003z"></path>
<path fill="#1490df" d="M11.223 11.753c-0.211-0.254-0.343-0.584-0.353-0.945l-0-0.002c0.001-0.343 0.13-0.655 0.341-0.886l-0.001 0.001c0.063-0.065 0.102-0.155 0.102-0.254 0-0.198-0.155-0.358-0.346-0.358-0.087 0-0.166 0.033-0.227 0.088l0-0c-0.344 0.363-0.557 0.859-0.561 1.407v0.001c0.011 0.557 0.217 1.063 0.55 1.449l-0.002-0.002c0.063 0.068 0.151 0.11 0.249 0.11 0.001 0 0.001 0 0.002 0h-0c0.092-0.001 0.175-0.039 0.236-0.1l-0 0c0.066-0.065 0.107-0.157 0.107-0.259 0-0.096-0.037-0.184-0.097-0.248l0 0zM9.661 12.943c-0 0-0.001 0-0.002 0-0.104 0-0.196-0.047-0.259-0.122l-0-0c-0.424-0.542-0.685-1.237-0.696-1.994l-0-0.003c0.028-0.754 0.283-1.441 0.697-1.995l-0.006 0.008c0.063-0.072 0.155-0.117 0.256-0.117 0.191 0 0.346 0.16 0.346 0.358 0 0.078-0.024 0.15-0.065 0.209l0.001-0.001c-0.311 0.426-0.508 0.957-0.535 1.535l-0 0.006c0.010 0.58 0.207 1.11 0.531 1.531l-0.004-0.005c0.053 0.063 0.085 0.145 0.085 0.236 0 0.198-0.155 0.358-0.346 0.358-0 0-0 0-0 0v0l-0.003-0.003zM15.992 9.398c-0.060-0.054-0.14-0.087-0.227-0.087-0.191 0-0.346 0.16-0.346 0.358 0 0.099 0.039 0.189 0.102 0.254v0c0.212 0.232 0.343 0.546 0.343 0.891v0c-0.012 0.364-0.144 0.693-0.357 0.949l0.002-0.002c-0.059 0.064-0.095 0.151-0.095 0.247 0 0.198 0.155 0.358 0.346 0.358 0.099 0 0.188-0.043 0.251-0.111l0-0c0.33-0.384 0.535-0.891 0.545-1.447l0-0.002c-0.004-0.549-0.218-1.046-0.563-1.408l0 0zM17.182 12.946c-0.001 0-0.001 0-0.002 0-0.191 0-0.346-0.16-0.346-0.358 0-0.091 0.033-0.174 0.087-0.237l-0 0c0.318-0.417 0.514-0.946 0.527-1.523l0-0.003c-0.027-0.583-0.224-1.113-0.54-1.546l0.005 0.007c-0.032-0.053-0.051-0.117-0.051-0.186 0-0.198 0.155-0.358 0.346-0.358 0.093 0 0.177 0.038 0.239 0.099l-0-0c0.406 0.546 0.66 1.232 0.688 1.977l0 0.007c-0.011 0.761-0.272 1.457-0.701 2.005l0.005-0.006c-0.063 0.074-0.155 0.12-0.257 0.12-0 0-0.001 0-0.002 0h0z"></path>
</svg>
