<!-- Generated by IcoMoon.io -->
<svg version="1.1" xmlns="http://www.w3.org/2000/svg" width="31" height="32" viewBox="0 0 31 32">
<title>Azure-Active-Directory-User</title>
<path fill="#000" d="M20.658 23.274c0 0 0.001 0 0.001 0 0.641 0 1.16-0.524 1.161-1.17v-0c0.004-0.021 0.006-0.045 0.006-0.069s-0.002-0.048-0.007-0.072l0 0.002c-0.465-3.693-2.538-6.701-6.544-6.701s-6.136 2.546-6.544 6.708c-0.004 0.038-0.007 0.082-0.007 0.127 0 0.612 0.461 1.114 1.051 1.174l0.005 0h10.876z"></path>
<path fill="#fff" opacity="0.8" d="M15.276 16.137c-0.738-0.001-1.425-0.221-2.001-0.599l0.014 0.009 1.986 5.189 1.956-5.156c-0.546 0.35-1.211 0.557-1.924 0.557-0.011 0-0.022-0-0.033-0h0.002z"></path>
<path fill="#000" d="M18.953 12.427c0 2.045-1.642 3.702-3.668 3.702s-3.668-1.657-3.668-3.702c0-2.045 1.642-3.702 3.668-3.702s3.668 1.657 3.668 3.702z"></path>
</svg>
