<!-- Generated by IcoMoon.io -->
<svg version="1.1" xmlns="http://www.w3.org/2000/svg" width="20" height="32" viewBox="0 0 20 32">
<title>Azure-Attestation</title>
<path fill="#000" d="M17.599 11.339c0 5.376-6.354 9.705-7.736 10.583-0.075 0.048-0.165 0.077-0.263 0.077s-0.188-0.029-0.265-0.078l0.002 0.001c-1.383-0.878-7.736-5.207-7.736-10.583v-6.47c0-0 0-0 0-0.001 0-0.28 0.218-0.507 0.49-0.514h0.001c4.942-0.138 3.806-2.353 7.511-2.353s2.565 2.215 7.507 2.353c0.272 0.007 0.49 0.235 0.49 0.514 0 0 0 0 0 0.001v-0 6.47z"></path>
<path fill="#000" d="M16.935 11.392c0 4.932-5.828 8.904-7.091 9.708-0.069 0.044-0.152 0.071-0.242 0.071s-0.173-0.026-0.244-0.072l0.002 0.001c-1.266-0.804-7.094-4.777-7.094-9.708v-5.93c0-0.257 0.201-0.465 0.451-0.469h0c4.53-0.127 3.485-2.163 6.883-2.163s2.353 2.039 6.886 2.163c0.249 0.006 0.448 0.214 0.448 0.469v0 5.93z"></path>
<path fill="#fff" d="M13.17 13.306h-7.14c-0 0-0 0-0 0-0.419 0-0.758 0.347-0.758 0.775 0 0 0 0.001 0 0.001v-0 0.96c0 0.071 0.057 0.129 0.126 0.129v0l8.407 0.001c0.070 0 0.126-0.058 0.126-0.129v0l-0.003-0.961c0-0 0-0 0-0.001 0-0.428-0.339-0.775-0.758-0.775-0 0-0 0-0 0h0z"></path>
<path fill="#fff" d="M13.139 16.13h-7.080c-0.050 0-0.090 0.041-0.090 0.092v0l0.002 0.483c0 0.001 0 0.001 0 0.002 0 0.305 0.242 0.552 0.54 0.552h6.181c0.298 0 0.54-0.247 0.54-0.552 0-0.001 0-0.001 0-0.002v0-0.483c0-0.051-0.040-0.092-0.090-0.092v0z"></path>
<path fill="#fff" d="M11.244 9.086c0.501-0.744 0.85-0.603 0.564-2.318-0.282-1.715-2.148-1.7-2.261-1.7-0.116 0-1.983-0.018-2.265 1.7-0.286 1.718 0.064 1.573 0.564 2.318 0.29 0.904 0.457 1.945 0.457 3.025 0 0.068-0.001 0.135-0.002 0.202l0-0.010h2.487c-0.001-0.056-0.002-0.122-0.002-0.188 0-1.082 0.167-2.124 0.476-3.1l-0.019 0.071z"></path>
</svg>
