<!-- Generated by IcoMoon.io -->
<svg version="1.1" xmlns="http://www.w3.org/2000/svg" width="35" height="32" viewBox="0 0 35 32">
<title>Azure-Active-Directory-Group</title>
<path fill="#0078d4" d="M24.897 20.278c0.003 0 0.006 0 0.010 0 0.387 0 0.701-0.307 0.702-0.686v-0c0.001-0.006 0.001-0.013 0.001-0.021 0-0.033-0.007-0.065-0.019-0.094l0.001 0.002c-0.276-2.174-1.546-3.949-3.963-3.949-2.414 0-3.721 1.53-3.969 3.949-0.002 0.019-0.003 0.042-0.003 0.064 0 0.363 0.28 0.662 0.641 0.7l0.003 0h6.597v0.034z"></path>
<path fill="#fff" opacity="0.8" d="M21.638 16.078c-0.006 0-0.013 0-0.020 0-0.442 0-0.853-0.13-1.196-0.352l0.008 0.005 1.2 3.060 1.18-3.035c-0.334 0.202-0.738 0.322-1.172 0.322h-0z"></path>
<path fill="#0078d4" d="M23.867 13.895c0 1.206-0.998 2.183-2.229 2.183s-2.229-0.977-2.229-2.183c0-1.206 0.998-2.183 2.229-2.183s2.229 0.977 2.229 2.183z"></path>
<path fill="#000" d="M20.429 22.401c0.583-0.001 1.055-0.463 1.056-1.033v-0c0.002-0.018 0.003-0.039 0.003-0.061s-0.001-0.043-0.004-0.063l0 0.003c-0.415-3.255-2.306-5.897-5.914-5.897-3.605 0-5.578 2.244-5.968 5.869-0.003 0.031-0.005 0.066-0.005 0.102 0 0.539 0.417 0.982 0.952 1.038l0.005 0h9.858l0.017 0.042z"></path>
<path fill="#fff" opacity="0.8" d="M15.615 16.123c-0.661-0.005-1.274-0.199-1.788-0.53l0.012 0.008 1.776 4.565 1.776-4.531c-0.503 0.307-1.114 0.488-1.768 0.488-0.003 0-0.005 0-0.008 0h0z"></path>
<path fill="#000" d="M18.92 12.86c0 1.801-1.491 3.262-3.331 3.262s-3.331-1.46-3.331-3.262c0-1.801 1.491-3.262 3.331-3.262s3.331 1.46 3.331 3.262z"></path>
</svg>
