<!-- Generated by IcoMoon.io -->
<svg version="1.1" xmlns="http://www.w3.org/2000/svg" width="25" height="32" viewBox="0 0 25 32">
<title>Azure-Active-Directory-B2B</title>
<path fill="#804998" d="M19.129 12.923c0 4.816-3.819 8.721-8.529 8.721s-8.529-3.904-8.529-8.721c0-4.816 3.819-8.721 8.529-8.721s8.529 3.904 8.529 8.721z"></path>
<path fill="#fff" d="M13.040 7.812c1.016 0.53 1.681 1.611 1.681 2.777-0.183 0-0.471 0.062-0.639 0-0.179-0.069-0.102-0.037-0.139-0.314-0.033-0.245-0.1-0.467-0.196-0.671l0.006 0.014c-0.395-0.859-1.282-1.41-2.214-1.344-0.895 0.062-1.691 0.694-1.991 1.556-0.161 0.471-0.080 0.972-0.226 1.443-0.151 0.485-0.437 0.89-0.813 1.179l-0.006 0.004c1.012 0.526 1.677 1.611 1.677 2.777-0.179 0-0.475 0.062-0.639 0-0.153-0.062-0.099-0.015-0.128-0.237-0.033-0.23-0.077-0.449-0.168-0.665-0.358-0.844-1.187-1.421-2.090-1.421-0.88 0-1.688 0.544-2.061 1.352-0.090 0.191-0.157 0.413-0.189 0.646l-0.001 0.012c-0.026 0.186 0.026 0.248-0.11 0.314-0.146 0.069-0.497 0-0.669 0 0-1.165 0.665-2.25 1.681-2.777-1.103-0.833-1.224-2.517-0.256-3.507s2.612-0.866 3.43 0.263c0.304-0.605 0.773-1.086 1.345-1.391l0.017-0.008c-1.717-1.301-0.789-4.187 1.348-4.187 2.141 0 3.069 2.886 1.348 4.187 0.259 0.135 0.132-0.069 0 0zM7.154 12.134c1.947 0 1.947-3.091 0-3.094-1.951 0-1.951 3.094 0 3.094zM10.179 5.945c0 1.995 3.029 1.991 3.029 0-0.004-1.991-3.029-1.995-3.029 0zM11.279 16.182l5.374-5.498 5.345 5.462-5.378 5.498-5.341-5.462z"></path>
<path fill="#59b4d9" d="M17.081 13.649c-0.077 0.040-0.113 0.040-0.23 0.077v4.059c0.117 0.040 0.27 0.117 0.387 0.237l1.772-1.458c-0.040-0.080-0.040-0.237-0.040-0.354 0-0.121 0.040-0.318 0.077-0.435l-1.965-2.126zM14.155 15.775c0.077 0.117 0.117 0.314 0.117 0.471 0 0.121-0.040 0.278-0.077 0.395l1.772 1.458c0.077-0.077 0.23-0.157 0.343-0.237v-4.136c-0.077-0.037-0.113-0.037-0.153-0.077l-2.002 2.126z"></path>
<path fill="#59b4d9" d="M8.234 9.040l-6.163 7.486 6.163 5.118 6.163-5.118-6.163-7.486zM11.585 17.271c-0.23 0-0.424-0.077-0.614-0.234l-1.772 1.494c0.037 0.080 0.037 0.161 0.037 0.278 0 0.552-0.424 1.023-1.001 1.023s-1.001-0.431-1.001-1.023c0-0.080 0-0.157 0.037-0.237l-1.885-1.498c-0.153 0.121-0.347 0.161-0.541 0.161-0.537 0-1.001-0.435-1.001-1.027 0-0.552 0.424-1.023 1.001-1.023 0.153 0 0.311 0.040 0.464 0.117l1.962-2.203c-0.037-0.121-0.077-0.278-0.077-0.435 0-0.552 0.424-1.023 1.005-1.023 0.577 0 1.001 0.431 1.001 1.023 0 0.157-0.040 0.354-0.117 0.471l1.925 2.207c0.153-0.077 0.347-0.117 0.501-0.117 0.541 0 1.001 0.431 1.001 1.023 0.040 0.592-0.424 1.023-0.924 1.023z"></path>
</svg>
