<!-- Generated by IcoMoon.io -->
<svg version="1.1" xmlns="http://www.w3.org/2000/svg" width="24" height="32" viewBox="0 0 24 32">
<title>Azure-Batch</title>
<path fill="#177acd" d="M13.377 4.305h-11.377v9.169c0 0.145 0.056 0.286 0.155 0.395l-0.004 0.004c0.014 0.014 0.032 0.032 0.049 0.042 0.102 0.095 0.24 0.155 0.399 0.155h11.825c0.3 0 0.6-0.247 0.6-0.6v-9.165h-1.647z"></path>
<path fill="#fff" d="M7.705 7.754h5.235v1.023h-5.235v-1.023zM7.705 11.091h5.235v1.023h-5.235v-1.023z"></path>
<path fill="#a7a8a9" d="M3.651 4.306h11.37v-1.88c0-0.212-0.247-0.427-0.6-0.427h-11.822c-0.3 0-0.6 0.176-0.6 0.427v1.88h1.651z"></path>
<path fill="#fff" opacity="0.2" d="M11.939 4.307h-9.931v9.479c0 0.152 0.053 0.31 0.148 0.427 0.092 0.116 11.218-9.906 11.218-9.906h-1.436z"></path>
<path fill="#fff" d="M4.047 12.021l3.574-2.812 0.624 0.73-3.574 2.872-0.624-0.79z"></path>
<path fill="#fff" d="M4.674 12.811l-1.849-1.965 0.822-0.716 1.873 2.018-0.847 0.663z"></path>
<path fill="#fff" d="M4.218 8.277l3.574-2.812 0.624 0.73-3.574 2.872-0.624-0.79z"></path>
<path fill="#fff" d="M4.845 9.067l-1.849-1.965 0.822-0.716 1.873 2.018-0.847 0.663z"></path>
<path fill="#509ccc" d="M16.865 8.14h-11.377v9.169c0 0.145 0.056 0.286 0.155 0.395l-0.004 0.004c0.014 0.014 0.032 0.032 0.049 0.042 0.102 0.095 0.24 0.155 0.399 0.155h11.825c0.3 0 0.6-0.247 0.6-0.6v-9.165h-1.647z"></path>
<path fill="#a7a8a9" d="M7.139 8.141h11.37v-1.88c0-0.212-0.247-0.427-0.6-0.427h-11.822c-0.3 0-0.6 0.176-0.6 0.427v1.88h1.651z"></path>
<path fill="#fff" opacity="0.2" d="M15.427 8.142h-9.931v9.479c0 0.152 0.053 0.31 0.148 0.427 0.092 0.116 11.218-9.906 11.218-9.906h-1.436z"></path>
<path fill="#fff" d="M7.535 15.857l3.574-2.812 0.624 0.73-3.574 2.872-0.624-0.79z"></path>
<path fill="#fff" d="M8.161 16.647l-1.849-1.965 0.822-0.716 1.873 2.018-0.847 0.663z"></path>
<path fill="#fff" d="M7.705 12.113l3.574-2.812 0.624 0.73-3.574 2.872-0.624-0.79z"></path>
<path fill="#fff" d="M8.332 12.903l-1.849-1.965 0.822-0.716 1.873 2.018-0.847 0.663z"></path>
<path fill="#fff" d="M11.193 11.59h5.235v1.023h-5.235v-1.023zM11.193 14.927h5.235v1.023h-5.235v-1.023z"></path>
<path fill="#59afd5" d="M20.352 11.976h-11.377v9.169c0 0.145 0.056 0.286 0.155 0.395l-0.004 0.004c0.014 0.014 0.032 0.032 0.049 0.042 0.102 0.095 0.24 0.155 0.399 0.155h11.825c0.3 0 0.6-0.247 0.6-0.6v-9.165h-1.647z"></path>
<path fill="#fff" d="M14.681 15.426h5.235v1.023h-5.235v-1.023zM14.681 18.763h5.235v1.023h-5.235v-1.023z"></path>
<path fill="#a7a8a9" d="M10.626 11.977h11.37v-1.88c0-0.212-0.247-0.427-0.6-0.427h-11.822c-0.3 0-0.6 0.176-0.6 0.427v1.88h1.651z"></path>
<path fill="#fff" opacity="0.2" d="M11.931 11.978h-9.931v9.479c0 0.152 0.053 0.31 0.148 0.427 0.092 0.116 11.218-9.906 11.218-9.906h-1.436z"></path>
<path fill="#fff" d="M11.022 19.692l3.574-2.812 0.624 0.73-3.574 2.872-0.624-0.79z"></path>
<path fill="#fff" d="M11.649 20.483l-1.849-1.965 0.822-0.716 1.873 2.018-0.847 0.663z"></path>
<path fill="#fff" d="M11.193 15.948l3.574-2.812 0.624 0.73-3.574 2.872-0.624-0.79z"></path>
<path fill="#fff" d="M11.82 16.739l-1.849-1.965 0.822-0.716 1.873 2.018-0.847 0.663z"></path>
</svg>
