<!-- Generated by IcoMoon.io -->
<svg version="1.1" xmlns="http://www.w3.org/2000/svg" width="30" height="32" viewBox="0 0 30 32">
<title>Azure-Synapse-Analytics</title>
<path fill="#0078d4" d="M14.908 8.725l-6.182 3.629v7.275l6.182 3.644 6.185-3.629v-7.275l-6.185-3.644zM19.95 18.885l-5.043 2.99-5.040-2.956v-5.846l5.040-2.99 5.043 3v5.802z"></path>
<path fill="#000" d="M14.908 8.726l-6.182 3.629 1.142 0.719 5.040-2.99 5.043 2.99 1.142-0.719-6.185-3.629z"></path>
<path fill="#50e6ff" d="M16.735 18.093c-0.373-1.545-1.712-2.672-3.308-2.672-0.28 0-0.551 0.035-0.812 0.1l0.023-0.005-0.275-1.181c0.317-0.080 0.682-0.127 1.057-0.127 2.153 0 3.96 1.523 4.452 3.577l0.007 0.032-1.145 0.275z"></path>
<path fill="#50e6ff" d="M17.854 17.187c-0.103-0.178-0.289-0.295-0.502-0.295-0.105 0-0.203 0.028-0.288 0.078l0.003-0.002-6.403 3.783 1.181 0.703 5.797-3.434c0.176-0.109 0.293-0.305 0.293-0.528 0-0.113-0.030-0.218-0.081-0.309l0.002 0.003zM17.99 10.536l-5.815 3.444c-0.171 0.11-0.282 0.303-0.282 0.521 0 0.105 0.026 0.204 0.071 0.29l-0.002-0.003c0.105 0.179 0.293 0.298 0.509 0.298 0.002 0 0.003 0 0.005-0h-0c0.004 0 0.008 0 0.013 0 0.103 0 0.2-0.030 0.282-0.081l-0.002 0.001 6.411-3.798-1.188-0.672z"></path>
<path fill="#000" d="M18.8 17.495c0 0.826-0.652 1.495-1.457 1.495s-1.457-0.669-1.457-1.495c0-0.826 0.652-1.495 1.457-1.495s1.457 0.669 1.457 1.495z"></path>
<path fill="#000" d="M14.035 14.469c0 0.826-0.652 1.495-1.457 1.495s-1.457-0.669-1.457-1.495c0-0.826 0.652-1.495 1.457-1.495s1.457 0.669 1.457 1.495z"></path>
</svg>
