<!-- Generated by IcoMoon.io -->
<svg version="1.1" xmlns="http://www.w3.org/2000/svg" width="34" height="32" viewBox="0 0 34 32">
<title>Azure-Best-Practices</title>
<path fill="#000" d="M9.141 18.544c0 0.273 0.228 0.495 0.508 0.495 0 0 0 0 0 0h14.225c0 0 0 0 0 0 0.28 0 0.508-0.221 0.508-0.495v0-8.907c-0-0.273-0.228-0.495-0.508-0.495-0 0-0 0-0 0h-14.225c0 0-0 0-0 0-0.28 0-0.508 0.221-0.508 0.495v0 8.907z"></path>
<path fill="#000" d="M16.008 22.035c-1.506-0.231-1.565-1.288-1.565-2.995h-2.99c0 1.707-0.051 2.764-1.559 2.995-0.425 0.048-0.753 0.396-0.753 0.82 0 0.001 0 0.002 0 0.003v-0h7.622c0-0.001 0-0.002 0-0.003 0-0.424-0.329-0.774-0.752-0.82l-0.004-0z"></path>
<path fill="#fff" d="M20.302 16.407l0.336-0.546c0.016-0.026 0.026-0.057 0.026-0.091 0-0.049-0.020-0.093-0.054-0.126v0l-0.668-0.703c-0.033-0.033-0.053-0.077-0.053-0.127 0-0.008 0-0.015 0.001-0.023l-0 0.001 0.067-0.502c0.007-0.053 0.038-0.099 0.083-0.125l0.001-0 0.825-0.525c0.051-0.031 0.085-0.086 0.085-0.149 0-0.017-0.003-0.034-0.007-0.050l0 0.001-0.18-0.623c-0.026-0.077-0.095-0.133-0.18-0.14l-0.995-0.067c-0.059-0.005-0.111-0.033-0.146-0.075l-0-0-0.333-0.409c-0.026-0.032-0.042-0.072-0.042-0.117 0-0.011 0.001-0.022 0.003-0.032l-0 0.001 0.174-0.927c0.002-0.010 0.003-0.022 0.003-0.034 0-0.070-0.040-0.13-0.098-0.162l-0.001-0-0.587-0.325c-0.029-0.017-0.063-0.026-0.1-0.026-0.050 0-0.096 0.018-0.13 0.048l0-0-0.735 0.611c-0.034 0.029-0.079 0.046-0.128 0.046-0.010 0-0.020-0.001-0.030-0.002l0.001 0-0.536-0.076c-0.057-0.007-0.105-0.037-0.135-0.081l-0-0.001-0.582-0.787c-0.037-0.051-0.097-0.083-0.165-0.083-0.017 0-0.033 0.002-0.049 0.006l0.001-0-0.661 0.153c-0.079 0.019-0.138 0.085-0.145 0.165l-0 0.001-0.046 0.932c-0.004 0.056-0.033 0.104-0.077 0.134l-0.001 0-0.428 0.301c-0.033 0.023-0.074 0.037-0.118 0.037-0.014 0-0.027-0.001-0.040-0.004l0.001 0-0.994-0.186c-0.013-0.003-0.028-0.005-0.043-0.005-0.069 0-0.13 0.036-0.164 0.089l-0 0.001-0.338 0.547c-0.016 0.026-0.026 0.058-0.026 0.091 0 0.047 0.019 0.090 0.050 0.122l-0-0 0.67 0.706c0.040 0.038 0.059 0.094 0.051 0.148l-0.067 0.5c-0.007 0.053-0.038 0.099-0.083 0.125l-0.001 0-0.825 0.528c-0.051 0.031-0.085 0.086-0.085 0.149 0 0.017 0.003 0.034 0.007 0.050l-0-0.001 0.18 0.62c0.025 0.077 0.095 0.133 0.179 0.14l0.998 0.067c0.059 0.005 0.11 0.032 0.145 0.075l0.331 0.409c0.026 0.032 0.042 0.072 0.042 0.116 0 0.011-0.001 0.022-0.003 0.033l0-0.001-0.173 0.927c-0.002 0.010-0.003 0.022-0.003 0.034 0 0.070 0.040 0.131 0.098 0.162l0.001 0 0.592 0.331c0.029 0.017 0.063 0.026 0.1 0.026 0.050 0 0.096-0.018 0.13-0.048l-0 0 0.735-0.611c0.034-0.029 0.079-0.046 0.128-0.046 0.010 0 0.021 0.001 0.031 0.002l-0.001-0 0.536 0.074c0.056 0.008 0.108 0.038 0.137 0.081l0.581 0.788c0.037 0.051 0.097 0.083 0.165 0.083 0.017 0 0.033-0.002 0.049-0.006l-0.001 0 0.661-0.153c0.079-0.019 0.138-0.085 0.145-0.165l0-0.001 0.046-0.932c0.004-0.056 0.033-0.104 0.076-0.135l0.001-0 0.429-0.301c0.033-0.023 0.074-0.037 0.118-0.037 0.014 0 0.027 0.001 0.040 0.004l-0.001-0 0.994 0.186c0.086 0.013 0.169-0.021 0.207-0.086v0zM15.934 15.859c-0.508-0.226-0.898-0.618-1.092-1.11-0.089-0.206-0.14-0.446-0.14-0.697 0-0.288 0.068-0.56 0.188-0.803l-0.005 0.011c0.229-0.47 0.64-0.825 1.159-0.995 0.208-0.072 0.447-0.114 0.696-0.114 0.325 0 0.633 0.071 0.908 0.197l-0.013-0.005c0.704 0.306 1.151 0.941 1.223 1.618 0.032 0.328-0.030 0.661-0.175 0.979-0.471 0.973-1.699 1.387-2.75 0.919z"></path>
</svg>
