<!-- Generated by IcoMoon.io -->
<svg version="1.1" xmlns="http://www.w3.org/2000/svg" width="20" height="32" viewBox="0 0 20 32">
<title>Azure-Stack-Capacity</title>
<path fill="#000" d="M11.7 21.224c-0.005 0.37-0.263 0.668-0.582 0.674h-8.936c-0 0-0 0-0 0-0.321 0-0.582-0.302-0.582-0.674 0-0 0-0 0-0v0-18.549c-0-0.003-0-0.008-0-0.012 0-0.366 0.256-0.662 0.572-0.662 0.004 0 0.007 0 0.011 0h8.935c0 0 0 0 0 0 0.321 0 0.582 0.302 0.582 0.674 0 0 0 0 0 0v-0 18.549z"></path>
<path fill="#003067" d="M3.080 8.973c0.006-0.701 0.498-1.266 1.104-1.266h5.020c0.001 0 0.001 0 0.002 0 0.605 0 1.095 0.567 1.095 1.266v0c0 0.004 0 0.009 0 0.013 0 0.7-0.49 1.267-1.095 1.267-0.001 0-0.002 0-0.002 0h-5.020c-0.61-0-1.104-0.573-1.104-1.279 0-0.001 0-0.001 0-0.002v0z"></path>
<path fill="#003067" d="M3.080 5.209c0.021-0.681 0.503-1.224 1.094-1.224 0.003 0 0.007 0 0.010 0h5.019c0.004-0 0.008-0 0.012-0 0.59 0 1.070 0.544 1.085 1.223l0 0.002c-0 0.7-0.49 1.266-1.095 1.266-0.001 0-0.002 0-0.002 0h-5.020c-0.606-0-1.098-0.566-1.104-1.266v-0.001z"></path>
<path fill="#50e6ff" d="M4.964 5.208c0 0.473-0.331 0.856-0.74 0.856s-0.74-0.383-0.74-0.856c0-0.473 0.331-0.856 0.74-0.856s0.74 0.383 0.74 0.856z"></path>
<path fill="#50e6ff" d="M4.964 8.975c0 0.473-0.331 0.856-0.74 0.856s-0.74-0.383-0.74-0.856c0-0.473 0.331-0.856 0.74-0.856s0.74 0.383 0.74 0.856z"></path>
<path fill="#76bc2d" d="M17.6 18.724c0 1.16-1.983 2.1-4.429 2.1s-4.429-0.94-4.429-2.1c0-1.16 1.983-2.1 4.429-2.1s4.429 0.94 4.429 2.1z"></path>
<path fill="#5e9624" d="M14.749 18.701c0 0.259-0.658 0.468-1.47 0.468s-1.47-0.21-1.47-0.468c0-0.259 0.658-0.468 1.47-0.468s1.47 0.21 1.47 0.468z"></path>
<path fill="#000" d="M17.6 14.055c0 1.16-1.983 2.1-4.429 2.1s-4.429-0.94-4.429-2.1c0-1.16 1.983-2.1 4.429-2.1s4.429 0.94 4.429 2.1z"></path>
<path fill="#005ba1" d="M14.749 14.032c0 0.258-0.658 0.468-1.47 0.468s-1.47-0.21-1.47-0.468c0-0.258 0.658-0.468 1.47-0.468s1.47 0.21 1.47 0.468z"></path>
<path fill="#5e9624" d="M13.169 20.79c2.448 0 4.431-0.949 4.431-2.113v1.291c-0.088 1.139-2.032 2.032-4.431 2.032-2.395 0-4.427-0.935-4.427-2.103v-1.139c0 1.083 1.983 2.032 4.427 2.032z"></path>
<path fill="#0078d4" d="M13.169 16.111c2.448 0 4.431-0.938 4.431-2.103v1.245c-0.088 1.139-2.032 2.032-4.431 2.032-2.395 0-4.427-0.949-4.427-2.113v-1.139c0 1.139 1.983 2.078 4.427 2.078z"></path>
</svg>
