<!-- Generated by IcoMoon.io -->
<svg version="1.1" xmlns="http://www.w3.org/2000/svg" width="24" height="32" viewBox="0 0 24 32">
<title>Azure-Lighthouse-Protection</title>
<path fill="#edf4fb" d="M11.428 16.185v-5.814h10.573v11.628h-10.573v-5.814zM9.974 21.195c-2.247-0.515-4.367-1.954-5.609-3.803-0.201-0.3-0.377-0.561-0.392-0.579s-0.265 0.049-0.557 0.148c-0.367 0.123-0.533 0.148-0.529 0.078 0.004-0.060 0.229-0.572 0.508-1.139l0.501-1.037 1.079 0.508c0.593 0.279 1.079 0.533 1.079 0.564s-0.191 0.127-0.42 0.215c-0.229 0.085-0.43 0.162-0.448 0.176-0.056 0.039 0.73 1.048 1.136 1.453 1.065 1.069 2.346 1.782 3.937 2.191l0.374 0.095v0.614c0 0.681 0.018 0.67-0.66 0.515zM2.001 7.814v-5.814l10.527 0.046 0.025 3.676 0.021 3.679h-1.94v4.23h-8.632v-5.817zM18.853 8.713c-0.593-0.275-1.079-0.529-1.079-0.561s0.254-0.145 0.572-0.25l0.572-0.191-0.155-0.261c-0.268-0.459-1.231-1.45-1.849-1.909-0.776-0.575-1.859-1.097-2.798-1.344l-0.748-0.198v-1.228l0.416 0.063c1.161 0.173 2.875 0.924 3.916 1.714 0.66 0.497 1.799 1.686 2.152 2.247 0.282 0.448 0.303 0.455 0.826 0.268 0.346-0.12 0.367-0.12 0.314 0.025-0.148 0.395-0.977 2.131-1.016 2.127-0.025 0-0.529-0.226-1.122-0.504z"></path>
<path fill="#d6e8f7" d="M11.426 16.183v-5.814l10.527 0.046v11.539l-10.527 0.046v-5.817zM9.973 21.196c-2.311-0.533-4.526-2.078-5.75-4.015-0.131-0.208-0.289-0.381-0.346-0.381-0.060 0-0.307 0.078-0.55 0.176-0.247 0.095-0.445 0.141-0.445 0.099 0-0.039 0.226-0.55 0.504-1.136l0.508-1.062 1.079 0.497c0.593 0.272 1.079 0.526 1.079 0.557 0 0.035-0.198 0.127-0.441 0.208s-0.441 0.176-0.441 0.212c0 0.035 0.272 0.399 0.6 0.808 1.132 1.401 2.614 2.328 4.487 2.812l0.374 0.095v0.614c0 0.681 0.018 0.67-0.66 0.515zM2 7.815v-5.814h10.485v7.401h-1.852v4.226h-8.632v-5.814zM18.852 8.708c-0.593-0.272-1.079-0.519-1.079-0.547s0.205-0.116 0.459-0.198c0.751-0.24 0.751-0.24 0.353-0.776-1.065-1.436-2.678-2.508-4.498-2.995l-0.72-0.194v-1.224l0.416 0.063c1.161 0.173 2.875 0.924 3.916 1.711 0.688 0.522 1.722 1.605 2.148 2.247l0.321 0.483 0.31-0.127c0.564-0.236 0.568-0.183 0.060 0.907-0.268 0.568-0.515 1.058-0.55 1.090-0.032 0.032-0.543-0.166-1.136-0.441z"></path>
<path fill="#cce3f6" d="M11.426 16.185v-5.814h10.485v11.628h-10.485v-5.814zM9.698 21.121c-2.212-0.582-4.311-2.088-5.422-3.891-0.286-0.466-0.363-0.494-0.833-0.296-0.176 0.074-0.37 0.131-0.437 0.131-0.145 0-0.12-0.064 0.466-1.291l0.423-0.893 1.079 0.512c0.593 0.286 1.079 0.536 1.079 0.561 0 0.021-0.198 0.106-0.441 0.187-0.24 0.081-0.441 0.169-0.441 0.194s0.088 0.169 0.194 0.321c1.15 1.651 2.886 2.829 4.897 3.32l0.374 0.092v0.614c0 0.713 0.035 0.695-0.938 0.441zM2.021 7.839l0.025-5.793 10.439-0.046v7.401h-1.849v4.23h-8.636l0.021-5.793zM18.828 8.682l-1.101-0.529 0.557-0.205c0.303-0.109 0.579-0.226 0.603-0.25 0.085-0.085-0.536-0.861-1.175-1.478-1.048-1.012-2.342-1.722-3.778-2.078l-0.568-0.138v-1.231l0.42 0.063c0.646 0.092 1.933 0.547 2.663 0.942 1.323 0.709 2.544 1.796 3.341 2.97l0.36 0.529 0.363-0.127c0.201-0.071 0.395-0.127 0.434-0.127 0.071 0-0.836 2.007-0.96 2.127-0.032 0.032-0.554-0.18-1.161-0.469z"></path>
<path fill="#bddbf4" d="M11.428 16.185v-5.814h10.485v11.628h-10.485v-5.814zM9.692 21.117c-2.191-0.575-4.279-2.099-5.503-4.022l-0.236-0.37-0.459 0.173c-0.25 0.095-0.487 0.162-0.526 0.148-0.092-0.032 0.833-2.036 0.956-2.074 0.053-0.018 0.561 0.191 1.132 0.466l1.041 0.497-0.441 0.176c-0.24 0.095-0.452 0.191-0.469 0.205-0.053 0.056 0.49 0.797 0.956 1.305 0.857 0.938 2.406 1.894 3.612 2.226 0.907 0.25 0.878 0.226 0.878 0.871 0 0.667 0.032 0.656-0.942 0.399zM2.001 7.86v-5.771h10.485v7.313h-1.852v4.23h-8.632v-5.771zM18.829 8.675l-1.101-0.526 0.543-0.191c0.3-0.102 0.572-0.215 0.607-0.25 0.088-0.088-0.536-0.893-1.185-1.52-1.012-0.988-2.293-1.683-3.771-2.050l-0.554-0.134v-1.231l0.409 0.063c1.147 0.173 2.776 0.889 3.866 1.697 0.773 0.572 1.637 1.468 2.166 2.244l0.342 0.501 0.363-0.127c0.198-0.071 0.395-0.127 0.434-0.127 0.067 0-0.843 2.011-0.96 2.124-0.035 0.032-0.554-0.183-1.161-0.473z"></path>
<path fill="#add2f1" d="M11.428 16.185v-5.814h10.485v11.628h-10.485v-5.814zM9.71 21.117c-0.808-0.208-1.947-0.716-2.723-1.21-0.744-0.476-2.166-1.877-2.678-2.635l-0.363-0.543-0.455 0.173c-0.25 0.095-0.487 0.159-0.526 0.145-0.085-0.028 0.847-2.036 0.963-2.078 0.046-0.014 0.55 0.198 1.125 0.473l1.044 0.497-0.462 0.18c-0.254 0.099-0.462 0.201-0.462 0.233 0.004 0.138 0.935 1.274 1.376 1.679 0.928 0.847 2.141 1.528 3.288 1.849 0.342 0.092 0.66 0.194 0.709 0.226 0.049 0.028 0.088 0.31 0.088 0.621 0 0.656 0.035 0.642-0.924 0.392zM2.001 7.86v-5.771h10.485v7.313h-1.849l-0.021 2.092-0.025 2.092-8.59 0.046v-5.771zM18.896 8.71c-0.572-0.268-1.037-0.512-1.037-0.54 0-0.032 0.222-0.127 0.49-0.219s0.508-0.201 0.533-0.24c0.071-0.116-0.455-0.815-1.079-1.436-1.048-1.037-2.455-1.824-3.796-2.124l-0.639-0.141v-0.61c0-0.459 0.028-0.607 0.12-0.607 0.067 0 0.512 0.102 0.984 0.226 2.12 0.55 4.099 1.944 5.338 3.761 0.191 0.279 0.36 0.508 0.377 0.508s0.176-0.064 0.36-0.138c0.18-0.078 0.349-0.116 0.374-0.088 0.046 0.042-0.818 1.968-0.938 2.085-0.028 0.028-0.519-0.169-1.087-0.437z"></path>
<path fill="#9dcaef" d="M11.428 16.185v-5.814h10.485v11.628h-10.485v-5.814zM10.062 21.195c-1.044-0.24-2.208-0.734-3.171-1.348-0.663-0.423-2.099-1.856-2.586-2.582l-0.37-0.547-0.448 0.176c-0.25 0.099-0.48 0.166-0.519 0.152-0.081-0.032 0.885-2.095 0.984-2.095 0.039 0 0.54 0.222 1.108 0.494l1.037 0.49-0.462 0.176c-0.254 0.095-0.462 0.208-0.462 0.247 0 0.155 0.818 1.154 1.344 1.64 0.928 0.857 2.254 1.609 3.327 1.884 0.215 0.056 0.466 0.12 0.55 0.145 0.127 0.039 0.152 0.152 0.152 0.656 0 0.335-0.028 0.607-0.063 0.603-0.039-0.007-0.226-0.046-0.42-0.092zM2.001 7.86v-5.771h10.485v7.313h-1.94v4.23h-8.544v-5.771zM18.896 8.706c-0.572-0.272-1.037-0.512-1.037-0.54 0-0.025 0.258-0.138 0.568-0.247l0.568-0.205-0.325-0.455c-1.034-1.45-2.755-2.618-4.533-3.076l-0.769-0.198v-1.207l0.374 0.063c2.325 0.392 4.66 1.901 5.99 3.87 0.198 0.293 0.37 0.543 0.385 0.564 0.014 0.018 0.191-0.035 0.392-0.116 0.205-0.081 0.388-0.127 0.413-0.102 0.042 0.042-0.829 1.976-0.938 2.088-0.028 0.028-0.519-0.169-1.087-0.441z"></path>
<path fill="#8ec1ec" d="M11.488 21.939c-0.032-0.032-0.060-2.649-0.060-5.814v-5.754h10.485v11.628h-5.182c-2.85 0-5.211-0.028-5.242-0.060zM9.798 21.121c-1.263-0.339-2.445-0.907-3.369-1.616-0.861-0.663-2.011-1.961-2.452-2.773-0.007-0.014-0.222 0.056-0.48 0.159-0.254 0.099-0.49 0.169-0.526 0.155-0.074-0.028 0.878-2.095 0.97-2.095 0.032 0 0.533 0.222 1.108 0.494l1.048 0.494-0.462 0.173c-0.254 0.095-0.462 0.205-0.462 0.247 0 0.148 0.787 1.122 1.288 1.595 1.097 1.034 2.184 1.626 3.711 2.018l0.374 0.095v0.614c0 0.339-0.028 0.61-0.063 0.61-0.039-0.004-0.346-0.081-0.684-0.169zM2.001 7.86v-5.771h10.485v7.313h-1.94v4.23h-8.544v-5.771zM18.808 8.668c-0.522-0.247-0.949-0.473-0.949-0.497 0-0.028 0.258-0.141 0.568-0.25l0.572-0.205-0.24-0.328c-0.801-1.094-1.57-1.785-2.716-2.438-0.674-0.385-1.697-0.769-2.346-0.882l-0.328-0.060v-1.228l0.374 0.060c0.205 0.035 0.691 0.162 1.079 0.282 2.004 0.628 3.799 1.94 4.911 3.591 0.198 0.293 0.37 0.547 0.388 0.564 0.014 0.021 0.194-0.028 0.399-0.109 0.201-0.078 0.381-0.127 0.402-0.109 0.018 0.018-0.176 0.494-0.434 1.055-0.303 0.663-0.515 1.020-0.6 1.012-0.074-0.004-0.561-0.208-1.079-0.459z"></path>
<path fill="#59b4d9" d="M11.47 21.89c-0.025-0.064-0.032-2.667-0.021-5.793l0.025-5.683 10.439-0.046v11.631h-5.2c-4.082 0-5.211-0.025-5.242-0.109zM9.798 21.117c-1.249-0.325-2.441-0.907-3.443-1.679-0.822-0.635-1.951-1.919-2.378-2.706-0.007-0.014-0.24 0.060-0.515 0.162-0.279 0.102-0.515 0.173-0.529 0.159-0.042-0.053 0.942-2.103 1.009-2.103 0.032 0 0.533 0.226 1.108 0.497l1.048 0.497-0.504 0.169-0.508 0.173 0.367 0.522c0.995 1.422 2.639 2.575 4.389 3.080l0.706 0.205v0.6c0 0.332-0.028 0.596-0.063 0.593-0.039-0.004-0.346-0.081-0.684-0.169zM2.061 13.571c-0.035-0.032-0.060-2.628-0.060-5.771v-5.711h10.485v7.313h-1.94v4.23h-4.212c-2.318 0-4.24-0.028-4.272-0.060zM18.853 8.671c-0.543-0.254-0.991-0.483-0.991-0.512-0.004-0.028 0.166-0.102 0.37-0.162 0.85-0.254 0.843-0.229 0.208-1.023-1.161-1.45-2.695-2.399-4.724-2.917l-0.307-0.078-0.025-0.593c-0.014-0.325-0.007-0.593 0.014-0.593 0.166 0 1.333 0.286 1.736 0.427 1.859 0.646 3.722 2.088 4.706 3.648 0.145 0.229 0.296 0.42 0.335 0.42 0.035 0 0.212-0.060 0.388-0.134 0.173-0.074 0.335-0.116 0.356-0.095 0.064 0.064-0.896 2.074-0.991 2.071-0.049 0-0.533-0.208-1.076-0.459z"></path>
<path fill="#80bbea" d="M11.47 21.89c-0.025-0.064-0.032-2.667-0.021-5.793l0.025-5.683 10.439-0.046v11.631h-5.2c-4.082 0-5.211-0.025-5.242-0.109zM20.106 14.337l-0.399-0.395-2.134 2.134c-1.175 1.175-2.177 2.134-2.223 2.134s-0.367-0.279-0.709-0.617l-0.621-0.617-0.392 0.399-0.388 0.399 2.106 2.113 2.579-2.575 2.575-2.579-0.395-0.395zM9.798 21.117c-1.249-0.325-2.441-0.907-3.443-1.679-0.822-0.635-1.951-1.919-2.378-2.706-0.007-0.014-0.24 0.060-0.515 0.162-0.279 0.102-0.515 0.173-0.529 0.159-0.042-0.053 0.942-2.103 1.009-2.103 0.032 0 0.533 0.226 1.108 0.497l1.048 0.497-0.504 0.169-0.508 0.173 0.367 0.522c0.995 1.422 2.639 2.575 4.389 3.080l0.706 0.205v0.6c0 0.332-0.028 0.596-0.063 0.593-0.039-0.004-0.346-0.081-0.684-0.169zM2.061 13.571c-0.035-0.032-0.060-2.628-0.060-5.771v-5.711h10.485v7.313h-1.94v4.23h-4.212c-2.318 0-4.24-0.028-4.272-0.060zM9.649 8.41c-0.025-2.847-0.039-3.041-0.212-3.418-0.55-1.189-1.725-1.743-2.963-1.401-0.646 0.18-1.475 1.002-1.616 1.605-0.056 0.24-0.053 0.24 0.392 0.24 0.406 0 0.459-0.025 0.582-0.258 0.43-0.836 1.591-1.048 2.307-0.42 0.406 0.353 0.557 0.72 0.557 1.337v0.487h-3.965v4.844h4.949l-0.032-3.016zM6.711 9.363c-0.265-0.265-0.275-0.568-0.035-0.875 0.307-0.388 0.903-0.303 1.097 0.148 0.296 0.713-0.519 1.27-1.062 0.727zM18.853 8.671c-0.543-0.254-0.991-0.483-0.991-0.512-0.004-0.028 0.166-0.102 0.37-0.162 0.85-0.254 0.843-0.229 0.208-1.023-1.161-1.45-2.695-2.399-4.724-2.917l-0.307-0.078-0.025-0.593c-0.014-0.325-0.007-0.593 0.014-0.593 0.166 0 1.333 0.286 1.736 0.427 1.859 0.646 3.722 2.088 4.706 3.648 0.145 0.229 0.296 0.42 0.335 0.42 0.035 0 0.212-0.060 0.388-0.134 0.173-0.074 0.335-0.116 0.356-0.095 0.064 0.064-0.896 2.074-0.991 2.071-0.049 0-0.533-0.208-1.076-0.459z"></path>
<path fill="#49defb" d="M11.449 16.161l0.025-5.747 10.439-0.046v11.543h-10.485l0.021-5.75zM20.106 14.337l-0.399-0.399-2.134 2.138c-1.175 1.175-2.177 2.134-2.223 2.134s-0.367-0.279-0.709-0.617l-0.621-0.617-0.392 0.399-0.388 0.399 2.106 2.113 5.154-5.154-0.395-0.395zM9.699 21.078c-0.945-0.247-1.887-0.663-2.776-1.238-0.794-0.512-2.138-1.838-2.589-2.554-0.18-0.293-0.339-0.54-0.349-0.55-0.007-0.014-0.24 0.053-0.515 0.148s-0.497 0.141-0.497 0.102c0-0.071 0.868-1.954 0.931-2.025 0.046-0.053 2.064 0.9 2.064 0.97 0 0.035-0.198 0.127-0.441 0.208l-0.441 0.148 0.37 0.529c0.501 0.713 1.623 1.753 2.367 2.198 0.702 0.416 1.602 0.797 2.261 0.953l0.462 0.109v0.61c0 0.335-0.007 0.607-0.021 0.603-0.011-0.004-0.381-0.099-0.825-0.212zM2.061 13.571c-0.035-0.032-0.060-2.628-0.060-5.771v-5.711h10.485v7.313h-1.94v4.23h-4.212c-2.318 0-4.24-0.028-4.272-0.060zM9.649 8.41c-0.025-2.847-0.039-3.041-0.212-3.418-0.55-1.189-1.725-1.743-2.963-1.401-0.646 0.18-1.475 1.002-1.616 1.605-0.056 0.24-0.053 0.24 0.392 0.24 0.406 0 0.459-0.025 0.582-0.258 0.43-0.836 1.591-1.048 2.307-0.42 0.406 0.353 0.557 0.72 0.557 1.337v0.487h-3.965v4.844h4.949l-0.032-3.016zM6.711 9.363c-0.265-0.265-0.275-0.568-0.035-0.875 0.307-0.388 0.903-0.303 1.097 0.148 0.296 0.713-0.519 1.27-1.062 0.727zM18.832 8.65l-1.012-0.476 0.31-0.127c0.173-0.074 0.42-0.159 0.55-0.191s0.254-0.088 0.279-0.123c0.078-0.127-1.118-1.503-1.746-2.007-0.833-0.67-2.046-1.291-3.023-1.552l-0.78-0.208-0.025-0.586c-0.014-0.321-0.007-0.586 0.014-0.586 0.166 0 1.333 0.286 1.736 0.427 1.757 0.61 3.598 2.004 4.576 3.461 0.208 0.307 0.392 0.575 0.406 0.593s0.205-0.028 0.427-0.106c0.219-0.074 0.399-0.12 0.399-0.102 0 0.116-0.974 2.071-1.030 2.067-0.039-0.004-0.526-0.219-1.079-0.483z"></path>
<path fill="#7cb9e9" d="M11.449 16.161l0.025-5.747 10.439-0.046v11.543h-10.485l0.021-5.75zM20.085 14.312l-0.416-0.42-4.322 4.318-0.639-0.639-0.639-0.635-0.833 0.833 2.11 2.117 5.154-5.151-0.416-0.423zM9.699 21.078c-0.945-0.247-1.887-0.663-2.776-1.238-0.794-0.512-2.138-1.838-2.589-2.554-0.18-0.293-0.339-0.54-0.349-0.55-0.007-0.014-0.24 0.053-0.515 0.148s-0.497 0.141-0.497 0.102c0-0.071 0.868-1.954 0.931-2.025 0.046-0.053 2.064 0.9 2.064 0.97 0 0.035-0.198 0.127-0.441 0.208l-0.441 0.148 0.37 0.529c0.501 0.713 1.623 1.753 2.367 2.198 0.702 0.416 1.602 0.797 2.261 0.953l0.462 0.109v0.61c0 0.335-0.007 0.607-0.021 0.603-0.011-0.004-0.381-0.099-0.825-0.212zM2.061 13.571c-0.035-0.032-0.060-2.628-0.060-5.771v-5.711h10.485v7.313h-1.94v4.23h-4.212c-2.318 0-4.24-0.028-4.272-0.060zM9.649 8.41c-0.032-3.461-0.025-3.422-0.656-4.124-0.466-0.512-1.076-0.787-1.76-0.787-0.981 0-1.704 0.395-2.155 1.182-0.381 0.667-0.353 0.755 0.215 0.755 0.448 0 0.483-0.014 0.589-0.272 0.060-0.148 0.254-0.367 0.43-0.483 0.646-0.427 1.312-0.388 1.859 0.109 0.381 0.342 0.526 0.72 0.526 1.372v0.42h-3.965v4.932h4.946l-0.028-3.104zM6.866 9.518c-0.191-0.078-0.381-0.54-0.321-0.78 0.183-0.727 1.27-0.589 1.27 0.162 0 0.487-0.487 0.804-0.949 0.617zM18.832 8.65l-1.012-0.476 0.31-0.127c0.173-0.074 0.42-0.159 0.55-0.191s0.254-0.088 0.279-0.123c0.078-0.127-1.118-1.503-1.746-2.007-0.833-0.67-2.046-1.291-3.023-1.552l-0.78-0.208-0.025-0.586c-0.014-0.321-0.007-0.586 0.014-0.586 0.166 0 1.333 0.286 1.736 0.427 1.757 0.61 3.598 2.004 4.576 3.461 0.208 0.307 0.392 0.575 0.406 0.593s0.205-0.028 0.427-0.106c0.219-0.074 0.399-0.12 0.399-0.102 0 0.116-0.974 2.071-1.030 2.067-0.039-0.004-0.526-0.219-1.079-0.483z"></path>
<path fill="#6eb1e8" d="M11.449 16.161l0.025-5.747 10.439-0.046v11.543h-10.485l0.021-5.75zM20.085 14.312l-0.416-0.42-4.322 4.318-0.639-0.639-0.639-0.635-0.833 0.833 2.11 2.117 5.154-5.151-0.416-0.423zM9.699 21.078c-0.945-0.247-1.887-0.663-2.776-1.238-0.794-0.512-2.138-1.838-2.589-2.554-0.18-0.293-0.339-0.54-0.349-0.55-0.007-0.014-0.24 0.053-0.515 0.148s-0.497 0.141-0.497 0.102c0-0.071 0.868-1.954 0.931-2.025 0.046-0.053 2.064 0.9 2.064 0.97 0 0.035-0.198 0.127-0.441 0.208l-0.441 0.148 0.37 0.529c0.501 0.713 1.623 1.753 2.367 2.198 0.702 0.416 1.602 0.797 2.261 0.953l0.462 0.109v0.61c0 0.335-0.007 0.607-0.021 0.603-0.011-0.004-0.381-0.099-0.825-0.212zM2.061 13.571c-0.035-0.032-0.060-2.628-0.060-5.771v-5.711h10.485v7.313h-1.94v4.23h-4.212c-2.318 0-4.24-0.028-4.272-0.060zM9.649 8.41c-0.032-3.461-0.025-3.422-0.656-4.124-0.466-0.512-1.076-0.787-1.76-0.787-0.981 0-1.704 0.395-2.155 1.182-0.381 0.667-0.353 0.755 0.215 0.755 0.448 0 0.483-0.014 0.589-0.272 0.060-0.148 0.254-0.367 0.43-0.483 0.646-0.427 1.312-0.388 1.859 0.109 0.381 0.342 0.526 0.72 0.526 1.372v0.42h-3.965v4.932h4.946l-0.028-3.104zM6.866 9.518c-0.191-0.078-0.381-0.54-0.321-0.78 0.183-0.727 1.27-0.589 1.27 0.162 0 0.487-0.487 0.804-0.949 0.617zM18.832 8.65l-1.012-0.476 0.31-0.127c0.173-0.074 0.42-0.159 0.55-0.191s0.254-0.088 0.279-0.123c0.078-0.127-1.118-1.503-1.746-2.007-0.833-0.67-2.046-1.291-3.023-1.552l-0.78-0.208-0.025-0.586c-0.014-0.321-0.007-0.586 0.014-0.586 0.166 0 1.333 0.286 1.736 0.427 1.757 0.61 3.598 2.004 4.576 3.461 0.208 0.307 0.392 0.575 0.406 0.593s0.205-0.028 0.427-0.106c0.219-0.074 0.399-0.12 0.399-0.102 0 0.116-0.974 2.071-1.030 2.067-0.039-0.004-0.526-0.219-1.079-0.483z"></path>
<path fill="#40d0f6" d="M11.427 16.185v-5.726h10.485v11.451h-10.485v-5.726zM20.085 14.312l-0.416-0.42-4.322 4.318-0.639-0.639-0.639-0.635-0.833 0.833 2.11 2.117 5.154-5.151-0.416-0.423zM9.886 21.121c-2.332-0.6-4.251-1.926-5.51-3.806-0.208-0.307-0.385-0.572-0.399-0.589-0.014-0.014-0.247 0.053-0.515 0.155-0.272 0.099-0.49 0.148-0.49 0.109 0-0.067 0.864-1.954 0.928-2.025 0.039-0.046 2.060 0.903 2.064 0.97 0 0.032-0.194 0.123-0.437 0.205l-0.441 0.148 0.282 0.409c0.409 0.603 1.358 1.566 1.979 2.011 0.684 0.49 1.838 1.034 2.607 1.224l0.593 0.152v0.603c0 0.335-0.007 0.603-0.021 0.6-0.011-0.004-0.3-0.078-0.639-0.166zM2.089 7.86v-5.771h10.396v7.313h-1.94v4.23h-8.456v-5.771zM9.649 8.41c-0.032-3.461-0.025-3.422-0.656-4.124-0.466-0.512-1.076-0.787-1.76-0.787-0.977 0-1.704 0.395-2.155 1.182-0.381 0.667-0.353 0.755 0.215 0.755 0.448 0 0.483-0.014 0.589-0.272 0.060-0.148 0.254-0.367 0.43-0.483 0.646-0.427 1.312-0.388 1.859 0.109 0.381 0.342 0.526 0.72 0.526 1.372v0.42h-3.965v4.932h4.946l-0.028-3.104zM6.866 9.518c-0.191-0.078-0.381-0.54-0.321-0.78 0.183-0.727 1.27-0.589 1.27 0.162 0 0.487-0.487 0.804-0.949 0.617zM18.836 8.654l-1.002-0.473 0.332-0.138c0.183-0.078 0.346-0.141 0.36-0.141s0.131-0.039 0.258-0.088l0.233-0.088-0.198-0.286c-1.136-1.626-2.903-2.854-4.762-3.309l-0.646-0.159-0.025-0.589c-0.014-0.325 0.011-0.589 0.056-0.589s0.473 0.102 0.949 0.222c2.088 0.54 4.068 1.894 5.274 3.616 0.236 0.335 0.441 0.624 0.452 0.642 0.014 0.018 0.205-0.028 0.427-0.106 0.219-0.074 0.399-0.12 0.399-0.102 0 0.116-0.974 2.071-1.030 2.067-0.039-0.004-0.522-0.219-1.076-0.48z"></path>
<path fill="#38c5f2" d="M11.427 16.185v-5.726h10.485v11.451h-10.485v-5.726zM20.085 14.312l-0.416-0.42-4.322 4.318-0.639-0.639-0.639-0.635-0.833 0.833 2.11 2.117 5.154-5.151-0.416-0.423zM9.886 21.121c-2.332-0.6-4.251-1.926-5.51-3.806-0.208-0.307-0.385-0.572-0.399-0.589-0.014-0.014-0.247 0.053-0.515 0.155-0.272 0.099-0.49 0.148-0.49 0.109 0-0.067 0.864-1.954 0.928-2.025 0.039-0.046 2.060 0.903 2.064 0.97 0 0.032-0.194 0.123-0.437 0.205l-0.441 0.148 0.282 0.409c0.409 0.603 1.358 1.566 1.979 2.011 0.684 0.49 1.838 1.034 2.607 1.224l0.593 0.152v0.603c0 0.335-0.007 0.603-0.021 0.6-0.011-0.004-0.3-0.078-0.639-0.166zM2.089 7.86v-5.771h10.396v7.313h-1.94v4.23h-8.456v-5.771zM9.649 8.41c-0.028-3.013-0.032-3.119-0.226-3.507-0.437-0.893-1.291-1.425-2.261-1.422-0.917 0.007-1.637 0.42-2.085 1.199-0.381 0.667-0.356 0.755 0.222 0.755 0.395 0 0.487-0.028 0.533-0.169 0.102-0.325 0.713-0.783 1.125-0.843 0.413-0.064 0.921 0.092 1.242 0.377 0.268 0.24 0.494 0.818 0.494 1.274l0.004 0.42h-3.965v5.020h4.946l-0.028-3.104zM6.838 9.465c-0.381-0.293-0.406-0.829-0.049-1.079 0.667-0.466 1.432 0.508 0.794 1.009-0.258 0.205-0.533 0.229-0.744 0.071zM18.836 8.654l-1.002-0.473 0.332-0.138c0.183-0.078 0.346-0.141 0.36-0.141s0.131-0.039 0.258-0.088l0.233-0.088-0.198-0.286c-1.136-1.626-2.903-2.854-4.762-3.309l-0.646-0.159-0.025-0.589c-0.014-0.325 0.011-0.589 0.056-0.589s0.473 0.102 0.949 0.222c2.088 0.54 4.068 1.894 5.274 3.616 0.236 0.335 0.441 0.624 0.452 0.642 0.014 0.018 0.205-0.028 0.427-0.106 0.219-0.074 0.399-0.12 0.399-0.102 0 0.116-0.974 2.071-1.030 2.067-0.039-0.004-0.522-0.219-1.076-0.48z"></path>
<path fill="#60aae5" d="M11.427 16.185v-5.726h10.485v11.451h-10.485v-5.726zM20.085 14.312l-0.416-0.42-4.322 4.318-0.639-0.639-0.639-0.635-0.833 0.833 2.11 2.117 5.154-5.151-0.416-0.423zM9.886 21.121c-2.332-0.6-4.251-1.926-5.51-3.806-0.208-0.307-0.385-0.572-0.399-0.589-0.014-0.014-0.247 0.053-0.515 0.155-0.272 0.099-0.49 0.148-0.49 0.109 0-0.067 0.864-1.954 0.928-2.025 0.039-0.046 2.060 0.903 2.064 0.97 0 0.032-0.194 0.123-0.437 0.205l-0.441 0.148 0.282 0.409c0.409 0.603 1.358 1.566 1.979 2.011 0.684 0.49 1.838 1.034 2.607 1.224l0.593 0.152v0.603c0 0.335-0.007 0.603-0.021 0.6-0.011-0.004-0.3-0.078-0.639-0.166zM2.089 7.86v-5.771h10.396v7.313h-1.94v4.23h-8.456v-5.771zM9.649 8.41c-0.025-2.946-0.039-3.126-0.215-3.507-0.702-1.52-2.656-1.916-3.93-0.797-0.296 0.261-0.589 0.751-0.727 1.221-0.053 0.187-0.035 0.198 0.43 0.198 0.448 0 0.501-0.021 0.621-0.254 0.314-0.61 1.087-0.974 1.711-0.804 0.709 0.191 1.15 0.808 1.154 1.609l0.004 0.42h-3.965v5.020h4.942l-0.025-3.104zM6.813 9.38c-0.328-0.293-0.342-0.663-0.039-0.945 0.247-0.229 0.515-0.226 0.808 0.004 0.169 0.134 0.233 0.265 0.233 0.48 0 0.212-0.064 0.346-0.233 0.476-0.296 0.236-0.497 0.233-0.769-0.014v0zM18.836 8.654l-1.002-0.473 0.332-0.138c0.183-0.078 0.346-0.141 0.36-0.141s0.131-0.039 0.258-0.088l0.233-0.088-0.198-0.286c-1.136-1.626-2.903-2.854-4.762-3.309l-0.646-0.159-0.025-0.589c-0.014-0.325 0.011-0.589 0.056-0.589s0.473 0.102 0.949 0.222c2.088 0.54 4.068 1.894 5.274 3.616 0.236 0.335 0.441 0.624 0.452 0.642 0.014 0.018 0.205-0.028 0.427-0.106 0.219-0.074 0.399-0.12 0.399-0.102 0 0.116-0.974 2.071-1.030 2.067-0.039-0.004-0.522-0.219-1.076-0.48z"></path>
<path fill="#57a6e4" d="M11.427 16.185v-5.726h10.485v11.451h-10.485v-5.726zM20.085 14.312l-0.416-0.42-4.322 4.318-0.639-0.639-0.639-0.635-0.833 0.833 2.11 2.117 5.154-5.151-0.416-0.423zM9.868 21.114c-2.297-0.593-4.251-1.944-5.496-3.806-0.205-0.303-0.381-0.564-0.395-0.582-0.014-0.014-0.247 0.053-0.515 0.155-0.272 0.099-0.49 0.155-0.49 0.123 0-0.053 0.875-1.976 0.924-2.036 0.035-0.039 2.064 0.9 2.067 0.956 0.004 0.028-0.194 0.12-0.437 0.208l-0.437 0.155 0.279 0.413c0.409 0.6 1.358 1.563 1.979 2.007 0.684 0.49 1.877 1.051 2.625 1.235l0.575 0.145v0.603c0 0.332-0.007 0.6-0.021 0.596-0.011-0.004-0.307-0.081-0.656-0.173zM2.089 7.86v-5.771h10.396v7.313h-1.94v4.23h-8.456v-5.771zM9.649 8.41c-0.025-2.946-0.039-3.126-0.215-3.507-0.702-1.52-2.656-1.916-3.93-0.797-0.296 0.261-0.589 0.751-0.727 1.221-0.053 0.187-0.035 0.198 0.43 0.198 0.448 0 0.501-0.021 0.621-0.254 0.314-0.61 1.087-0.974 1.711-0.804 0.709 0.191 1.15 0.808 1.154 1.609l0.004 0.42h-3.965v5.020h4.942l-0.025-3.104zM6.813 9.38c-0.328-0.293-0.342-0.663-0.039-0.945 0.247-0.229 0.515-0.226 0.808 0.004 0.169 0.134 0.233 0.265 0.233 0.48 0 0.212-0.064 0.346-0.233 0.476-0.296 0.236-0.497 0.233-0.769-0.014v0zM18.896 8.671c-0.522-0.247-0.949-0.473-0.949-0.501 0-0.032 0.148-0.109 0.332-0.173 0.18-0.064 0.42-0.152 0.533-0.194l0.201-0.074-0.282-0.42c-0.43-0.628-1.45-1.609-2.177-2.088-0.762-0.501-1.626-0.878-2.505-1.094l-0.639-0.155-0.025-0.596c-0.025-0.54-0.011-0.593 0.131-0.55 0.088 0.025 0.296 0.071 0.466 0.099 0.519 0.099 1.679 0.487 2.152 0.723 1.372 0.684 2.819 1.916 3.577 3.044 0.215 0.325 0.441 0.589 0.494 0.593 0.056 0 0.243-0.056 0.42-0.131s0.317-0.12 0.317-0.099c0 0.12-0.974 2.081-1.030 2.074-0.039-0.007-0.497-0.212-1.016-0.459z"></path>
<path fill="#31bbee" d="M11.427 16.185v-5.726h10.485v11.451h-10.485v-5.726zM20.085 14.312l-0.416-0.42-4.322 4.318-0.639-0.639-0.639-0.635-0.833 0.833 2.11 2.117 5.154-5.151-0.416-0.423zM9.868 21.114c-2.297-0.593-4.251-1.944-5.496-3.806-0.205-0.303-0.381-0.564-0.395-0.582-0.014-0.014-0.247 0.053-0.515 0.155-0.272 0.099-0.49 0.155-0.49 0.123 0-0.053 0.875-1.976 0.924-2.036 0.035-0.039 2.064 0.9 2.067 0.956 0.004 0.028-0.194 0.12-0.437 0.208l-0.437 0.155 0.279 0.413c0.409 0.6 1.358 1.563 1.979 2.007 0.684 0.49 1.877 1.051 2.625 1.235l0.575 0.145v0.603c0 0.332-0.007 0.6-0.021 0.596-0.011-0.004-0.307-0.081-0.656-0.173zM2.089 7.86v-5.771h10.396v7.313h-1.94v4.23h-8.456v-5.771zM9.649 8.41c-0.025-2.946-0.039-3.126-0.215-3.507-0.702-1.52-2.656-1.916-3.93-0.797-0.296 0.261-0.589 0.751-0.727 1.221-0.053 0.187-0.035 0.198 0.43 0.198 0.448 0 0.501-0.021 0.621-0.254 0.314-0.61 1.087-0.974 1.711-0.804 0.709 0.191 1.15 0.808 1.154 1.609l0.004 0.42h-3.965v5.020h4.942l-0.025-3.104zM6.813 9.38c-0.328-0.293-0.342-0.663-0.039-0.945 0.247-0.229 0.515-0.226 0.808 0.004 0.169 0.134 0.233 0.265 0.233 0.48 0 0.212-0.064 0.346-0.233 0.476-0.296 0.236-0.497 0.233-0.769-0.014v0zM18.896 8.671c-0.522-0.247-0.949-0.473-0.949-0.501 0-0.032 0.148-0.109 0.332-0.173 0.18-0.064 0.42-0.152 0.533-0.194l0.201-0.074-0.282-0.42c-0.43-0.628-1.45-1.609-2.177-2.088-0.762-0.501-1.626-0.878-2.505-1.094l-0.639-0.155-0.025-0.596c-0.025-0.54-0.011-0.593 0.131-0.55 0.088 0.025 0.296 0.071 0.466 0.099 0.519 0.099 1.679 0.487 2.152 0.723 1.372 0.684 2.819 1.916 3.577 3.044 0.215 0.325 0.441 0.589 0.494 0.593 0.056 0 0.243-0.056 0.42-0.131s0.317-0.12 0.317-0.099c0 0.12-0.974 2.081-1.030 2.074-0.039-0.007-0.497-0.212-1.016-0.459z"></path>
<path fill="#4ea1e3" d="M11.427 16.185v-5.726h10.485v11.451h-10.485v-5.726zM20.085 14.312l-0.416-0.42-2.163 2.159-2.159 2.163-0.614-0.617c-0.339-0.342-0.653-0.621-0.702-0.621-0.046 0-0.258 0.169-0.466 0.374l-0.377 0.37 2.159 2.166 5.154-5.151-0.416-0.423zM9.868 21.114c-2.297-0.593-4.251-1.944-5.496-3.806-0.205-0.303-0.381-0.564-0.395-0.582-0.014-0.014-0.247 0.053-0.515 0.155-0.272 0.099-0.49 0.155-0.49 0.123 0-0.053 0.875-1.976 0.924-2.036 0.035-0.039 2.064 0.9 2.067 0.956 0.004 0.028-0.194 0.12-0.437 0.208l-0.437 0.155 0.279 0.413c0.409 0.6 1.358 1.563 1.979 2.007 0.684 0.49 1.877 1.051 2.625 1.235l0.575 0.145v0.603c0 0.332-0.007 0.6-0.021 0.596-0.011-0.004-0.307-0.081-0.656-0.173zM2.089 7.86v-5.771h10.396v7.313h-1.94v4.23h-8.456v-5.771zM9.649 8.41c-0.025-2.946-0.039-3.126-0.215-3.507-0.691-1.499-2.614-1.912-3.888-0.836-0.317 0.268-0.674 0.836-0.762 1.217-0.056 0.24-0.053 0.24 0.427 0.24 0.444 0 0.497-0.021 0.617-0.254 0.42-0.815 1.528-1.090 2.24-0.557 0.346 0.258 0.628 0.864 0.628 1.355v0.427h-3.965v5.020h4.942l-0.025-3.104zM6.813 9.38c-0.328-0.293-0.342-0.663-0.039-0.945 0.258-0.24 0.561-0.226 0.825 0.039 0.293 0.293 0.286 0.681-0.018 0.921-0.296 0.236-0.497 0.233-0.769-0.014zM18.896 8.671c-0.522-0.247-0.949-0.473-0.949-0.501 0-0.032 0.148-0.109 0.332-0.173 0.18-0.064 0.42-0.152 0.533-0.194l0.201-0.074-0.282-0.42c-0.43-0.628-1.45-1.609-2.177-2.088-0.762-0.501-1.626-0.878-2.505-1.094l-0.639-0.155-0.025-0.596c-0.025-0.54-0.011-0.593 0.131-0.55 0.088 0.025 0.296 0.071 0.466 0.099 0.519 0.099 1.679 0.487 2.152 0.723 1.372 0.684 2.819 1.916 3.577 3.044 0.215 0.325 0.441 0.589 0.494 0.593 0.056 0 0.243-0.056 0.42-0.131s0.317-0.12 0.317-0.099c0 0.12-0.974 2.081-1.030 2.074-0.039-0.007-0.497-0.212-1.016-0.459z"></path>
<path fill="#2cb4eb" d="M11.427 16.185v-5.726h10.485v11.451h-10.485v-5.726zM20.085 14.312l-0.416-0.42-2.163 2.159-2.159 2.163-0.614-0.617c-0.339-0.342-0.653-0.621-0.702-0.621-0.046 0-0.258 0.169-0.466 0.374l-0.377 0.37 2.159 2.166 5.154-5.151-0.416-0.423zM10.15 21.188c-1.192-0.289-2.381-0.801-3.348-1.436-0.691-0.455-1.937-1.7-2.42-2.424-0.208-0.314-0.392-0.586-0.406-0.603-0.014-0.014-0.247 0.053-0.515 0.155-0.272 0.099-0.49 0.159-0.49 0.134 0-0.046 0.878-1.983 0.928-2.046 0.011-0.014 0.49 0.198 1.065 0.473l1.044 0.497-0.459 0.176-0.462 0.18 0.152 0.265c0.25 0.434 1.51 1.725 2.088 2.138 0.709 0.504 1.849 1.051 2.607 1.245l0.61 0.159v0.596c0 0.328-0.007 0.593-0.021 0.586-0.011-0.004-0.18-0.046-0.374-0.095zM2.089 7.86v-5.771h10.396v7.313h-1.94v4.23h-8.456v-5.771zM9.649 8.41c-0.025-2.946-0.039-3.126-0.215-3.507-0.691-1.499-2.614-1.912-3.888-0.836-0.317 0.268-0.674 0.836-0.762 1.217-0.056 0.24-0.053 0.24 0.427 0.24 0.444 0 0.497-0.021 0.617-0.254 0.42-0.815 1.528-1.090 2.24-0.557 0.346 0.258 0.628 0.864 0.628 1.355v0.427h-3.965v5.020h4.942l-0.025-3.104zM6.813 9.38c-0.328-0.293-0.342-0.663-0.039-0.945 0.258-0.24 0.561-0.226 0.825 0.039 0.293 0.293 0.286 0.681-0.018 0.921-0.296 0.236-0.497 0.233-0.769-0.014zM18.896 8.671c-0.522-0.247-0.949-0.476-0.949-0.512 0-0.032 0.092-0.085 0.205-0.113s0.349-0.113 0.529-0.187l0.328-0.138-0.272-0.399c-1.051-1.528-2.833-2.741-4.688-3.196l-0.639-0.155-0.025-0.582-0.028-0.579 0.737 0.159c1.489 0.325 2.826 0.988 4.078 2.025 0.564 0.469 1.443 1.471 1.767 2.025 0.183 0.307 0.243 0.317 0.684 0.134l0.321-0.134-0.123 0.286c-0.392 0.907-0.857 1.831-0.914 1.824-0.035-0.007-0.494-0.212-1.012-0.459z"></path>
<path fill="#4099e0" d="M11.427 16.185v-5.726h10.485v11.451h-10.485v-5.726zM17.926 17.307l2.579-2.579-0.42-0.416-0.423-0.416-4.311 4.314-0.663-0.663-0.667-0.66-0.871 0.885 1.055 1.055c0.579 0.582 1.076 1.058 1.101 1.058s1.206-1.161 2.621-2.579zM10.15 21.188c-1.192-0.289-2.381-0.801-3.348-1.436-0.691-0.455-1.937-1.7-2.42-2.424-0.208-0.314-0.392-0.586-0.406-0.603-0.014-0.014-0.247 0.053-0.515 0.155-0.272 0.099-0.49 0.159-0.49 0.134 0-0.046 0.878-1.983 0.928-2.046 0.011-0.014 0.49 0.198 1.065 0.473l1.044 0.497-0.459 0.176-0.462 0.18 0.152 0.265c0.25 0.434 1.51 1.725 2.088 2.138 0.709 0.504 1.849 1.051 2.607 1.245l0.61 0.159v0.596c0 0.328-0.007 0.593-0.021 0.586-0.011-0.004-0.18-0.046-0.374-0.095zM2.089 7.86v-5.771h10.396v7.313h-1.94v4.23h-8.456v-5.771zM9.667 8.523c0-2.798-0.014-3.023-0.18-3.471-0.219-0.582-0.744-1.15-1.305-1.404-0.504-0.233-1.478-0.247-1.972-0.028-0.646 0.286-1.277 1.020-1.425 1.665l-0.056 0.24h0.526c0.466 0 0.529-0.021 0.586-0.198 0.152-0.508 0.737-0.878 1.376-0.871 0.825 0.007 1.351 0.547 1.45 1.499l0.056 0.54h-3.99v5.020h4.935v-2.992zM7.025 9.514c-0.494-0.176-0.603-0.766-0.205-1.079 0.395-0.31 0.995-0.021 0.995 0.483 0 0.374-0.455 0.716-0.79 0.596zM18.896 8.671c-0.522-0.247-0.949-0.476-0.949-0.512 0-0.032 0.092-0.085 0.205-0.113s0.349-0.113 0.529-0.187l0.328-0.138-0.272-0.399c-1.051-1.528-2.833-2.741-4.688-3.196l-0.639-0.155-0.025-0.582-0.028-0.579 0.737 0.159c1.489 0.325 2.826 0.988 4.078 2.025 0.564 0.469 1.443 1.471 1.767 2.025 0.183 0.307 0.243 0.317 0.684 0.134l0.321-0.134-0.123 0.286c-0.392 0.907-0.857 1.831-0.914 1.824-0.035-0.007-0.494-0.212-1.012-0.459z"></path>
<path fill="#3f99e0" d="M11.427 16.185v-5.726h10.485v11.451h-10.485v-5.726zM17.926 17.307l2.579-2.579-0.42-0.416-0.423-0.416-4.311 4.314-0.663-0.663-0.667-0.66-0.871 0.885 1.055 1.055c0.579 0.582 1.076 1.058 1.101 1.058s1.206-1.161 2.621-2.579zM9.417 20.98c-0.833-0.247-1.838-0.72-2.614-1.228-0.691-0.455-2.021-1.796-2.466-2.487-0.194-0.303-0.381-0.55-0.42-0.55-0.035 0-0.261 0.074-0.504 0.166s-0.441 0.148-0.441 0.127c0-0.039 0.882-1.983 0.928-2.039 0.011-0.014 0.49 0.198 1.065 0.473l1.044 0.497-0.441 0.155c-0.272 0.099-0.427 0.201-0.409 0.275 0.095 0.395 1.524 1.898 2.321 2.441 0.628 0.43 1.774 0.956 2.455 1.132l0.61 0.159v0.55c0 0.66 0 0.663-1.129 0.328zM2.089 7.814v-5.726h10.396v7.313h-1.94v4.142h-8.456v-5.729zM9.667 8.523c0-2.798-0.014-3.023-0.18-3.471-0.219-0.582-0.744-1.15-1.305-1.404-0.504-0.233-1.478-0.247-1.972-0.028-0.646 0.286-1.277 1.020-1.425 1.665l-0.056 0.24h0.526c0.466 0 0.529-0.021 0.586-0.198 0.152-0.508 0.737-0.878 1.376-0.871 0.825 0.007 1.351 0.547 1.45 1.499l0.056 0.54h-3.99v5.020h4.935v-2.992zM7.025 9.514c-0.494-0.176-0.603-0.766-0.205-1.079 0.395-0.31 0.995-0.021 0.995 0.483 0 0.374-0.455 0.716-0.79 0.596zM18.896 8.671c-0.522-0.247-0.949-0.473-0.949-0.501s0.222-0.131 0.49-0.219c0.268-0.092 0.504-0.194 0.526-0.229 0.064-0.102-0.78-1.157-1.355-1.686-0.974-0.903-2.611-1.757-3.768-1.972-0.187-0.032-0.37-0.106-0.406-0.159s-0.067-0.321-0.067-0.596v-0.497l0.73 0.159c1.485 0.325 2.822 0.991 4.075 2.025 0.564 0.469 1.443 1.471 1.767 2.025 0.183 0.307 0.243 0.317 0.684 0.134l0.321-0.134-0.123 0.286c-0.356 0.818-0.864 1.831-0.917 1.824-0.035-0.007-0.49-0.212-1.009-0.459v0z"></path>
<path fill="#22a7e8" d="M11.427 16.185v-5.726h10.485v11.451h-10.485v-5.726zM17.926 17.307l2.579-2.579-0.42-0.416-0.423-0.416-4.311 4.314-0.663-0.663-0.667-0.66-0.871 0.885 1.055 1.055c0.579 0.582 1.076 1.058 1.101 1.058s1.206-1.161 2.621-2.579zM9.417 20.98c-0.833-0.247-1.838-0.72-2.614-1.228-0.691-0.455-2.021-1.796-2.466-2.487-0.194-0.303-0.381-0.55-0.42-0.55-0.035 0-0.261 0.074-0.504 0.166s-0.441 0.148-0.441 0.127c0-0.025 0.215-0.497 0.476-1.048l0.48-1.005 0.953 0.444c0.526 0.243 0.984 0.476 1.023 0.515 0.042 0.039-0.109 0.12-0.332 0.183-0.222 0.060-0.42 0.138-0.441 0.173-0.071 0.113 0.55 0.938 1.157 1.538 1.027 1.012 2.378 1.799 3.672 2.138l0.586 0.155v0.554c0 0.656 0 0.66-1.129 0.325zM2.089 7.814v-5.726h10.396v7.313h-1.94v4.142h-8.456v-5.729zM9.667 8.523c0-2.798-0.014-3.023-0.18-3.471-0.219-0.582-0.744-1.15-1.305-1.404-0.504-0.233-1.478-0.247-1.972-0.028-0.646 0.286-1.277 1.020-1.425 1.665l-0.056 0.24h0.526c0.466 0 0.529-0.021 0.586-0.198 0.152-0.508 0.737-0.878 1.376-0.871 0.825 0.007 1.351 0.547 1.45 1.499l0.056 0.54h-3.99v5.020h4.935v-2.992zM7.025 9.514c-0.494-0.176-0.603-0.766-0.205-1.079 0.395-0.31 0.995-0.021 0.995 0.483 0 0.374-0.455 0.716-0.79 0.596zM18.896 8.671c-0.522-0.247-0.949-0.473-0.949-0.501s0.222-0.131 0.49-0.219c0.268-0.092 0.504-0.194 0.526-0.229 0.067-0.106-0.801-1.175-1.393-1.718-0.314-0.289-0.893-0.716-1.284-0.952-0.698-0.42-2.244-1.023-2.632-1.023-0.187 0-0.198-0.039-0.198-0.575 0-0.67-0.025-0.66 0.995-0.399 2.050 0.522 4.064 1.923 5.232 3.63 0.226 0.332 0.459 0.603 0.515 0.603 0.060 0 0.25-0.060 0.427-0.134l0.321-0.134-0.123 0.286c-0.356 0.818-0.864 1.831-0.917 1.824-0.035-0.007-0.49-0.212-1.009-0.459z"></path>
<path fill="#3493de" d="M11.427 16.185v-5.726h10.485v11.451h-10.485v-5.726zM17.926 17.307l2.579-2.579-0.42-0.416-0.423-0.416-4.311 4.314-0.663-0.663-0.667-0.66-0.871 0.885 1.055 1.055c0.579 0.582 1.076 1.058 1.101 1.058s1.206-1.161 2.621-2.579zM9.417 20.98c-0.833-0.247-1.838-0.72-2.614-1.228-0.691-0.455-2.021-1.796-2.466-2.487-0.194-0.303-0.381-0.55-0.42-0.55-0.035 0-0.261 0.074-0.504 0.166s-0.441 0.148-0.441 0.127c0-0.025 0.215-0.497 0.476-1.048l0.48-1.005 0.953 0.444c0.526 0.243 0.984 0.476 1.023 0.515 0.042 0.039-0.109 0.12-0.332 0.183-0.222 0.060-0.42 0.138-0.441 0.173-0.071 0.113 0.55 0.938 1.157 1.538 1.027 1.012 2.378 1.799 3.672 2.138l0.586 0.155v0.554c0 0.656 0 0.66-1.129 0.325zM2.089 7.814v-5.726h10.396v7.313h-1.94v4.142h-8.456v-5.729zM9.667 8.445v-3.069l-0.272-0.54c-0.409-0.818-1.079-1.288-2.004-1.397-0.96-0.113-2.025 0.504-2.452 1.422-0.296 0.639-0.286 0.663 0.3 0.663 0.494 0 0.512-0.007 0.681-0.328 0.385-0.709 1.263-0.945 1.997-0.533 0.462 0.258 0.681 0.635 0.748 1.291l0.056 0.54h-4.078v2.452c0 1.348 0.028 2.476 0.060 2.512 0.032 0.032 1.161 0.056 2.512 0.056h2.452v-3.069zM7.025 9.507c-0.448-0.141-0.596-0.73-0.265-1.034 0.519-0.469 1.298 0.131 0.97 0.748-0.099 0.183-0.508 0.349-0.706 0.286zM18.896 8.671c-0.522-0.247-0.949-0.473-0.949-0.501s0.222-0.131 0.49-0.219c0.268-0.092 0.504-0.194 0.526-0.229 0.067-0.106-0.801-1.175-1.393-1.718-0.314-0.289-0.893-0.716-1.284-0.952-0.698-0.42-2.244-1.023-2.632-1.023-0.187 0-0.198-0.039-0.198-0.575 0-0.67-0.025-0.66 0.995-0.399 2.050 0.522 4.064 1.923 5.232 3.63 0.226 0.332 0.459 0.603 0.515 0.603 0.060 0 0.25-0.060 0.427-0.134l0.321-0.134-0.123 0.286c-0.356 0.818-0.864 1.831-0.917 1.824-0.035-0.007-0.49-0.212-1.009-0.459z"></path>
<path fill="#1da0e5" d="M11.516 16.185v-5.726h10.396v11.451h-10.396v-5.726zM17.926 17.307l2.579-2.579-0.42-0.416-0.423-0.416-4.311 4.314-0.663-0.663-0.667-0.66-0.871 0.885 1.055 1.055c0.579 0.582 1.076 1.058 1.101 1.058s1.206-1.161 2.621-2.579zM9.417 20.98c-0.833-0.247-1.838-0.72-2.614-1.228-0.691-0.455-2.021-1.796-2.466-2.487-0.194-0.303-0.381-0.55-0.42-0.55-0.035 0-0.261 0.074-0.504 0.166s-0.441 0.148-0.441 0.127c0-0.025 0.215-0.497 0.476-1.048l0.48-1.005 0.953 0.444c0.526 0.243 0.984 0.476 1.023 0.515 0.042 0.039-0.109 0.12-0.332 0.183-0.222 0.060-0.42 0.138-0.441 0.173-0.071 0.113 0.55 0.938 1.157 1.538 1.027 1.012 2.378 1.799 3.672 2.138l0.586 0.155v0.554c0 0.656 0 0.66-1.129 0.325zM2.089 7.814v-5.726h10.396v7.313h-1.94v4.142h-8.456v-5.729zM9.667 8.445v-3.069l-0.272-0.54c-0.409-0.818-1.079-1.288-2.004-1.397-0.96-0.113-2.025 0.504-2.452 1.422-0.296 0.639-0.286 0.663 0.3 0.663 0.494 0 0.512-0.007 0.681-0.328 0.385-0.709 1.263-0.945 1.997-0.533 0.462 0.258 0.681 0.635 0.748 1.291l0.056 0.54h-4.078v2.452c0 1.348 0.028 2.476 0.060 2.512 0.032 0.032 1.161 0.056 2.512 0.056h2.452v-3.069zM7.025 9.507c-0.448-0.141-0.596-0.73-0.265-1.034 0.519-0.469 1.298 0.131 0.97 0.748-0.099 0.183-0.508 0.349-0.706 0.286zM18.896 8.671c-0.522-0.247-0.949-0.473-0.949-0.501s0.222-0.131 0.49-0.219c0.268-0.092 0.504-0.194 0.526-0.229 0.067-0.106-0.801-1.175-1.393-1.718-0.314-0.289-0.893-0.716-1.284-0.952-0.698-0.42-2.244-1.023-2.632-1.023-0.187 0-0.198-0.039-0.198-0.575 0-0.67-0.025-0.66 0.995-0.399 2.050 0.522 4.064 1.923 5.232 3.63 0.226 0.332 0.459 0.603 0.515 0.603 0.060 0 0.25-0.060 0.427-0.134l0.321-0.134-0.123 0.286c-0.356 0.818-0.864 1.831-0.917 1.824-0.035-0.007-0.49-0.212-1.009-0.459z"></path>
<path fill="#2f90de" d="M11.516 16.185v-5.726h10.396v11.451h-10.396v-5.726zM17.968 17.353c1.393-1.393 2.533-2.575 2.533-2.625 0-0.053-0.176-0.268-0.395-0.483l-0.399-0.392-2.138 2.134c-1.175 1.175-2.173 2.134-2.219 2.134s-0.367-0.279-0.706-0.617l-0.624-0.617-0.871 0.885 1.055 1.055c0.579 0.582 1.094 1.058 1.143 1.058s1.228-1.139 2.621-2.533zM9.417 20.98c-0.833-0.247-1.838-0.72-2.614-1.228-0.691-0.455-2.021-1.796-2.466-2.487-0.194-0.303-0.381-0.55-0.42-0.55-0.035 0-0.261 0.074-0.504 0.166s-0.441 0.148-0.441 0.127c0-0.025 0.215-0.497 0.476-1.048l0.48-1.005 0.953 0.444c0.526 0.243 0.984 0.476 1.023 0.515 0.042 0.039-0.109 0.12-0.332 0.183-0.222 0.060-0.42 0.138-0.441 0.173-0.071 0.113 0.55 0.938 1.157 1.538 1.027 1.012 2.378 1.799 3.672 2.138l0.586 0.155v0.554c0 0.656 0 0.66-1.129 0.325zM2.089 7.814v-5.726h10.396v7.313h-1.94v4.142h-8.456v-5.729zM9.646 8.368l-0.025-3.15-0.219-0.427c-0.547-1.072-1.859-1.626-2.977-1.252-0.582 0.191-1.224 0.766-1.485 1.323-0.296 0.639-0.286 0.663 0.3 0.663 0.49 0 0.512-0.007 0.681-0.321 0.258-0.469 0.575-0.67 1.139-0.716 0.406-0.035 0.547-0.004 0.871 0.187 0.459 0.268 0.67 0.653 0.741 1.341l0.049 0.48h-4.078v5.020h5.031l-0.028-3.147zM7.025 9.507c-0.448-0.141-0.596-0.73-0.265-1.034 0.519-0.469 1.298 0.131 0.97 0.748-0.099 0.183-0.508 0.349-0.706 0.286zM18.896 8.671c-0.522-0.247-0.949-0.473-0.949-0.501s0.222-0.131 0.49-0.219c0.268-0.092 0.504-0.194 0.526-0.229 0.067-0.106-0.801-1.175-1.393-1.718-0.314-0.289-0.893-0.716-1.284-0.952-0.698-0.42-2.244-1.023-2.632-1.023-0.187 0-0.198-0.039-0.198-0.575 0-0.67-0.025-0.66 0.995-0.399 2.050 0.522 4.064 1.923 5.232 3.63 0.226 0.332 0.459 0.603 0.515 0.603 0.060 0 0.25-0.060 0.427-0.134l0.321-0.134-0.123 0.286c-0.356 0.818-0.864 1.831-0.917 1.824-0.035-0.007-0.49-0.212-1.009-0.459z"></path>
<path fill="#1393e0" d="M11.516 16.185v-5.726h10.396v11.451h-10.396v-5.726zM17.968 17.353c1.393-1.393 2.533-2.575 2.533-2.625 0-0.053-0.176-0.268-0.395-0.483l-0.399-0.392-2.138 2.134c-1.175 1.175-2.173 2.134-2.219 2.134s-0.367-0.279-0.706-0.617l-0.624-0.617-0.871 0.885 1.055 1.055c0.579 0.582 1.094 1.058 1.143 1.058s1.228-1.139 2.621-2.533zM9.54 21.018c-2.032-0.579-4.082-2.057-5.158-3.718-0.208-0.321-0.406-0.586-0.441-0.586-0.032 0-0.247 0.064-0.476 0.141s-0.43 0.127-0.445 0.109c-0.018-0.018 0.18-0.476 0.437-1.020l0.466-0.991 0.956 0.448c0.526 0.243 0.984 0.476 1.023 0.512 0.042 0.039-0.109 0.12-0.332 0.183-0.222 0.060-0.42 0.138-0.441 0.173-0.049 0.081 0.321 0.628 0.825 1.224 0.988 1.164 2.833 2.258 4.262 2.526l0.328 0.060v0.564c0 0.66-0.004 0.66-1.005 0.374zM2.089 7.814v-5.726h10.396v7.313h-1.94v4.142h-8.456v-5.729zM9.646 8.368l-0.025-3.15-0.219-0.427c-0.547-1.072-1.859-1.626-2.977-1.252-0.582 0.191-1.224 0.766-1.485 1.323-0.296 0.639-0.286 0.663 0.3 0.663 0.49 0 0.512-0.007 0.681-0.321 0.258-0.469 0.575-0.67 1.139-0.716 0.406-0.035 0.547-0.004 0.871 0.187 0.459 0.268 0.67 0.653 0.741 1.341l0.049 0.48h-4.078v5.020h5.031l-0.028-3.147zM7.025 9.507c-0.448-0.141-0.596-0.73-0.265-1.034 0.519-0.469 1.298 0.131 0.97 0.748-0.099 0.183-0.508 0.349-0.706 0.286zM18.871 8.654l-0.967-0.466 0.31-0.138c0.173-0.074 0.423-0.162 0.554-0.194s0.236-0.092 0.236-0.127c0-0.159-0.801-1.139-1.33-1.63-1.023-0.952-2.046-1.524-3.45-1.93l-0.727-0.212-0.025-0.547-0.028-0.55 0.416 0.063c0.998 0.148 2.364 0.713 3.425 1.415 0.748 0.494 1.901 1.623 2.395 2.346 0.441 0.646 0.494 0.67 1.027 0.462 0.141-0.053 0.155-0.032 0.106 0.127-0.116 0.367-0.854 1.863-0.914 1.856-0.032-0.004-0.497-0.219-1.030-0.476z"></path>
<path fill="#2088db" d="M11.516 16.185v-5.726h10.396v11.451h-10.396v-5.726zM20.501 14.735c0-0.116-0.716-0.843-0.833-0.843-0.049 0-1.051 0.963-2.226 2.138l-2.138 2.134-1.284-1.277-0.871 0.885 1.101 1.101 1.097 1.101 2.579-2.579c1.418-1.415 2.575-2.614 2.575-2.66zM9.54 21.018c-2.032-0.579-4.082-2.057-5.158-3.718-0.208-0.321-0.406-0.586-0.441-0.586-0.032 0-0.247 0.064-0.476 0.141s-0.43 0.127-0.445 0.109c-0.018-0.018 0.18-0.476 0.437-1.020l0.466-0.991 0.956 0.448c0.526 0.243 0.984 0.476 1.023 0.512 0.042 0.039-0.109 0.12-0.332 0.183-0.222 0.060-0.42 0.138-0.441 0.173-0.049 0.081 0.321 0.628 0.825 1.224 0.988 1.164 2.833 2.258 4.262 2.526l0.328 0.060v0.564c0 0.66-0.004 0.66-1.005 0.374zM2.089 7.814v-5.726h10.396v7.313h-1.94v4.142h-8.456v-5.729zM9.646 8.368c-0.025-3.129-0.025-3.154-0.236-3.567-0.258-0.501-0.624-0.864-1.154-1.139-0.547-0.286-1.637-0.293-2.163-0.014-0.624 0.332-1.161 1.002-1.326 1.662-0.053 0.212-0.042 0.215 0.462 0.212 0.512 0 0.519-0.004 0.744-0.377 0.395-0.653 1.157-0.854 1.887-0.501 0.49 0.24 0.748 0.706 0.748 1.358v0.494h-3.965v5.020h5.031l-0.028-3.147zM6.728 9.327c-0.293-0.321-0.109-0.928 0.296-0.984 0.363-0.053 0.529 0.014 0.66 0.268 0.233 0.452-0.021 0.878-0.522 0.878-0.166 0-0.349-0.067-0.434-0.162zM18.871 8.654l-0.967-0.466 0.31-0.138c0.173-0.074 0.423-0.162 0.554-0.194s0.236-0.092 0.236-0.127c0-0.159-0.801-1.139-1.33-1.63-1.023-0.952-2.046-1.524-3.45-1.93l-0.727-0.212-0.025-0.547-0.028-0.55 0.416 0.063c0.998 0.148 2.364 0.713 3.425 1.415 0.748 0.494 1.901 1.623 2.395 2.346 0.441 0.646 0.494 0.67 1.027 0.462 0.141-0.053 0.155-0.032 0.106 0.127-0.116 0.367-0.854 1.863-0.914 1.856-0.032-0.004-0.497-0.219-1.030-0.476z"></path>
<path fill="#1683d9" d="M11.516 16.185v-5.726h10.396v11.451h-10.396v-5.726zM20.501 14.735c0-0.116-0.716-0.843-0.833-0.843-0.049 0-1.051 0.963-2.226 2.138l-2.138 2.134-1.284-1.277-0.871 0.885 1.101 1.101 1.097 1.101 2.579-2.579c1.418-1.415 2.575-2.614 2.575-2.66zM9.579 21.022c-1.415-0.367-3.337-1.524-4.279-2.572-0.226-0.254-0.593-0.716-0.815-1.034-0.219-0.314-0.43-0.607-0.466-0.646-0.035-0.042-0.268-0.011-0.519 0.074-0.25 0.081-0.466 0.138-0.48 0.12s0.183-0.476 0.437-1.020l0.466-0.988 0.977 0.459c0.536 0.25 0.977 0.483 0.977 0.519 0 0.032-0.148 0.106-0.332 0.166-0.473 0.152-0.487 0.183-0.226 0.572 1.076 1.616 3.171 3.055 4.854 3.341l0.37 0.064v0.564c0 0.656 0.035 0.646-0.967 0.381zM2.089 7.814v-5.726h10.396v7.225h-1.94v4.23h-8.456v-5.729zM9.646 8.368c-0.025-3.129-0.025-3.154-0.236-3.567-0.258-0.501-0.624-0.864-1.154-1.139-0.547-0.286-1.637-0.293-2.163-0.014-0.624 0.332-1.161 1.002-1.326 1.662-0.053 0.212-0.042 0.215 0.462 0.212 0.512 0 0.519-0.004 0.744-0.377 0.395-0.653 1.157-0.854 1.887-0.501 0.49 0.24 0.748 0.706 0.748 1.358v0.494h-3.965v5.020h5.031l-0.028-3.147zM6.728 9.327c-0.293-0.321-0.109-0.928 0.296-0.984 0.363-0.053 0.529 0.014 0.66 0.268 0.233 0.452-0.021 0.878-0.522 0.878-0.166 0-0.349-0.067-0.434-0.162zM18.945 8.671c-0.54-0.25-0.963-0.487-0.942-0.522 0.021-0.032 0.254-0.131 0.519-0.215 0.265-0.081 0.483-0.18 0.483-0.212 0-0.145-0.808-1.136-1.334-1.637-0.963-0.917-2.29-1.655-3.514-1.951l-0.66-0.162-0.025-0.557-0.028-0.554 0.416 0.063c0.991 0.148 2.35 0.706 3.425 1.411 0.677 0.441 2.021 1.782 2.498 2.484l0.367 0.547 0.317-0.134c0.173-0.071 0.335-0.113 0.36-0.088s-0.166 0.48-0.427 1.016l-0.473 0.967-0.984-0.455z"></path>
<path fill="#0c89dc" d="M11.516 16.185v-5.726h10.396v11.451h-10.396v-5.726zM20.501 14.735c0-0.116-0.716-0.843-0.833-0.843-0.049 0-1.051 0.963-2.226 2.138l-2.138 2.134-1.284-1.277-0.871 0.885 1.101 1.101 1.097 1.101 2.579-2.579c1.418-1.415 2.575-2.614 2.575-2.66zM9.798 21.082c-2.166-0.533-4.216-1.99-5.475-3.891-0.176-0.261-0.374-0.476-0.441-0.476s-0.265 0.056-0.441 0.131c-0.173 0.074-0.332 0.131-0.349 0.131-0.085 0-0.004-0.212 0.406-1.079l0.441-0.931 0.97 0.455c0.533 0.247 0.97 0.476 0.97 0.508 0 0.028-0.159 0.099-0.349 0.155-0.191 0.060-0.374 0.145-0.402 0.191-0.078 0.131 0.452 0.85 1.143 1.545 0.646 0.649 1.362 1.178 2.12 1.556 0.547 0.275 1.729 0.684 1.972 0.684 0.169 0 0.183 0.053 0.183 0.575 0 0.646 0.018 0.635-0.748 0.448zM2.089 7.814v-5.726h10.396v7.225h-1.94v4.23h-8.456v-5.729zM9.646 8.368c-0.025-3.129-0.025-3.154-0.236-3.567-0.258-0.501-0.624-0.864-1.154-1.139-0.547-0.286-1.637-0.293-2.163-0.014-0.624 0.332-1.161 1.002-1.326 1.662-0.053 0.212-0.042 0.215 0.462 0.212 0.512 0 0.519-0.004 0.744-0.377 0.395-0.653 1.157-0.854 1.887-0.501 0.49 0.24 0.748 0.706 0.748 1.358v0.494h-3.965v5.020h5.031l-0.028-3.147zM6.728 9.327c-0.293-0.321-0.109-0.928 0.296-0.984 0.363-0.053 0.529 0.014 0.66 0.268 0.233 0.452-0.021 0.878-0.522 0.878-0.166 0-0.349-0.067-0.434-0.162zM18.942 8.668c-0.54-0.25-0.956-0.48-0.924-0.508 0.035-0.032 0.272-0.127 0.526-0.219 0.254-0.088 0.462-0.194 0.462-0.236 0-0.152-0.702-1.009-1.288-1.573-0.998-0.956-2.311-1.693-3.56-1.997l-0.66-0.162-0.025-0.557-0.028-0.554 0.416 0.063c1.482 0.222 3.231 1.111 4.505 2.293 0.55 0.508 0.808 0.811 1.549 1.824l0.236 0.325 0.353-0.123c0.194-0.067 0.346-0.095 0.342-0.060-0.004 0.032-0.212 0.483-0.462 1.002l-0.455 0.942-0.988-0.459z"></path>
<path fill="#047dd9" d="M11.516 16.185v-5.726h10.396v11.451h-10.396v-5.726zM20.127 14.27l-0.459-0.466-4.322 4.318-0.639-0.639-0.639-0.635-0.921 0.921 2.198 2.205 5.242-5.239-0.462-0.466zM9.798 21.082c-2.166-0.533-4.216-1.99-5.475-3.891-0.176-0.261-0.374-0.476-0.441-0.476s-0.265 0.056-0.441 0.131c-0.173 0.074-0.332 0.131-0.349 0.131-0.085 0-0.004-0.212 0.406-1.079l0.441-0.931 0.97 0.455c0.533 0.247 0.97 0.476 0.97 0.508 0 0.028-0.159 0.099-0.349 0.155-0.191 0.060-0.374 0.145-0.402 0.191-0.078 0.131 0.452 0.85 1.143 1.545 0.646 0.649 1.362 1.178 2.12 1.556 0.547 0.275 1.729 0.684 1.972 0.684 0.169 0 0.183 0.053 0.183 0.575 0 0.646 0.018 0.635-0.748 0.448zM2.089 7.814v-5.726h10.396v7.225h-1.94v4.23h-8.456v-5.729zM9.664 8.41c0-3.069 0-3.111-0.205-3.545-0.914-1.951-3.768-1.901-4.597 0.078-0.222 0.536-0.191 0.582 0.377 0.582 0.494 0 0.515-0.011 0.681-0.314 0.092-0.176 0.339-0.416 0.55-0.54 0.317-0.183 0.462-0.215 0.825-0.183 0.808 0.078 1.312 0.653 1.312 1.492v0.515h-3.965v5.020h5.024l-0.004-3.104zM6.76 9.313c-0.36-0.356-0.095-0.97 0.416-0.967 0.293 0 0.406 0.067 0.536 0.321 0.293 0.554-0.504 1.094-0.952 0.646zM18.942 8.668c-0.54-0.25-0.956-0.48-0.924-0.508 0.035-0.032 0.272-0.127 0.526-0.219 0.254-0.088 0.462-0.194 0.462-0.236 0-0.152-0.702-1.009-1.288-1.573-0.998-0.956-2.311-1.693-3.56-1.997l-0.66-0.162-0.025-0.557-0.028-0.554 0.416 0.063c1.482 0.222 3.231 1.111 4.505 2.293 0.55 0.508 0.808 0.811 1.549 1.824l0.236 0.325 0.353-0.123c0.194-0.067 0.346-0.095 0.342-0.060-0.004 0.032-0.212 0.483-0.462 1.002l-0.455 0.942-0.988-0.459z"></path>
<path fill="#0078d5" d="M11.516 16.185v-5.726h10.396v11.451h-10.396v-5.726zM20.127 14.27l-0.459-0.466-2.163 2.159-2.159 2.163-0.614-0.617c-0.339-0.342-0.653-0.621-0.702-0.621-0.116 0-0.84 0.72-0.84 0.833 0 0.049 0.483 0.579 1.076 1.171l1.079 1.083 5.242-5.239-0.462-0.466zM9.798 21.082c-2.166-0.533-4.216-1.99-5.475-3.891-0.176-0.261-0.374-0.476-0.441-0.476s-0.265 0.056-0.441 0.131c-0.173 0.074-0.332 0.131-0.349 0.131-0.085 0-0.004-0.212 0.406-1.079l0.441-0.931 0.97 0.455c0.533 0.247 0.97 0.476 0.97 0.508 0 0.028-0.159 0.099-0.349 0.155-0.191 0.060-0.374 0.145-0.402 0.191-0.078 0.131 0.452 0.85 1.143 1.545 0.646 0.649 1.362 1.178 2.12 1.556 0.547 0.275 1.729 0.684 1.972 0.684 0.169 0 0.183 0.053 0.183 0.575 0 0.646 0.018 0.635-0.748 0.448zM2.089 7.814v-5.726h10.396v7.225h-1.94v4.23h-8.456v-5.729zM9.738 8.453c-0.028-2.988-0.035-3.069-0.236-3.517-0.455-1.009-1.436-1.584-2.572-1.503-0.931 0.067-1.637 0.561-2.032 1.432-0.272 0.596-0.24 0.66 0.349 0.66 0.494 0 0.522-0.011 0.727-0.321 0.346-0.529 0.635-0.691 1.224-0.691 0.861 0 1.337 0.483 1.397 1.411l0.035 0.572h-3.986v5.020h5.126l-0.032-3.062zM6.76 9.313c-0.356-0.356-0.081-0.97 0.437-0.97 0.392 0 0.593 0.268 0.533 0.706-0.060 0.423-0.653 0.582-0.97 0.265zM18.942 8.668c-0.54-0.25-0.956-0.48-0.924-0.508 0.035-0.032 0.272-0.127 0.526-0.219 0.254-0.088 0.462-0.194 0.462-0.236 0-0.152-0.702-1.009-1.288-1.573-0.998-0.956-2.311-1.693-3.56-1.997l-0.66-0.162-0.025-0.557-0.028-0.554 0.416 0.063c1.482 0.222 3.231 1.111 4.505 2.293 0.55 0.508 0.808 0.811 1.549 1.824l0.236 0.325 0.353-0.123c0.194-0.067 0.346-0.095 0.342-0.060-0.004 0.032-0.212 0.483-0.462 1.002l-0.455 0.942-0.988-0.459z"></path>
<path fill="#0077d5" d="M11.516 16.185v-5.726h10.396v11.451h-10.396v-5.726zM20.127 14.27l-0.459-0.466-2.163 2.159-2.159 2.163-0.614-0.617c-0.339-0.342-0.653-0.621-0.702-0.621-0.116 0-0.84 0.72-0.84 0.833 0 0.049 0.483 0.579 1.076 1.171l1.079 1.083 5.242-5.239-0.462-0.466zM9.702 20.99c-0.949-0.247-1.891-0.663-2.78-1.238-0.794-0.512-2.138-1.838-2.589-2.554-0.18-0.293-0.339-0.54-0.346-0.55-0.011-0.011-0.205 0.042-0.434 0.12s-0.434 0.123-0.455 0.102c-0.025-0.021 0.155-0.459 0.399-0.974l0.441-0.931 0.967 0.452c0.533 0.25 0.942 0.48 0.907 0.512s-0.215 0.106-0.395 0.166c-0.183 0.056-0.332 0.145-0.332 0.191 0 0.176 0.579 0.924 1.185 1.535 0.646 0.649 1.362 1.178 2.12 1.556 0.547 0.275 1.729 0.684 1.972 0.684 0.169 0 0.183 0.053 0.183 0.575 0 0.314-0.007 0.572-0.021 0.568-0.011-0.004-0.381-0.099-0.822-0.212zM2.089 7.814v-5.726h10.396v7.225h-1.94v4.23h-8.456v-5.729zM9.738 8.453l-0.028-3.059-0.229-0.49c-0.758-1.616-2.66-2.039-3.976-0.885-0.328 0.289-0.773 1.065-0.773 1.348 0 0.134 0.078 0.159 0.515 0.159 0.494 0 0.522-0.011 0.727-0.321 0.346-0.529 0.635-0.691 1.224-0.691 0.84 0 1.33 0.48 1.393 1.362l0.039 0.529-3.941 0.046-0.049 5.066h5.129l-0.032-3.062zM6.813 9.306c-0.275-0.219-0.296-0.508-0.049-0.769 0.314-0.339 0.945-0.187 0.974 0.233 0.021 0.289-0.021 0.413-0.201 0.564-0.236 0.205-0.437 0.194-0.723-0.028zM18.917 8.597l-0.924-0.448 0.504-0.183c0.279-0.102 0.508-0.229 0.508-0.282 0-0.208-1.185-1.559-1.806-2.060-0.818-0.656-2.18-1.348-3.069-1.556l-0.674-0.159v-1.048l0.409 0.063c1.478 0.222 3.228 1.111 4.501 2.293 0.55 0.508 0.808 0.811 1.549 1.824l0.236 0.325 0.353-0.123c0.194-0.067 0.349-0.109 0.349-0.092 0 0.113-0.885 1.898-0.942 1.894-0.039-0.004-0.487-0.205-0.995-0.448z"></path>
</svg>
