<!-- Generated by IcoMoon.io -->
<svg version="1.1" xmlns="http://www.w3.org/2000/svg" width="35" height="32" viewBox="0 0 35 32">
<title>Azure-Lighthouse-My-Customers</title>
<path fill="#0078d4" d="M24.891 20.278c0.003 0 0.006 0 0.009 0 0.387 0 0.701-0.307 0.702-0.686v-0c0.004-0.017 0.007-0.036 0.007-0.057s-0.002-0.040-0.007-0.058l0 0.002c-0.277-2.174-1.539-3.949-3.966-3.949-2.425 0-3.732 1.53-3.98 3.949-0.003 0.024-0.005 0.052-0.005 0.081 0 0.357 0.278 0.651 0.634 0.684l0.003 0h6.603v0.034z"></path>
<path fill="#fff" opacity="0.8" d="M21.628 16.078c-0.006 0-0.012 0-0.019 0-0.44 0-0.849-0.13-1.189-0.352l0.008 0.005 1.191 3.060 1.191-3.035c-0.338 0.201-0.746 0.321-1.183 0.322h-0z"></path>
<path fill="#0078d4" d="M23.859 13.895c0 1.206-0.999 2.183-2.231 2.183s-2.231-0.977-2.231-2.183c0-1.206 0.999-2.183 2.231-2.183s2.231 0.977 2.231 2.183z"></path>
<path fill="#000" d="M20.418 22.401c0 0 0.001 0 0.001 0 0.583 0 1.057-0.462 1.058-1.033v-0c0.002-0.018 0.003-0.039 0.003-0.061s-0.001-0.043-0.004-0.063l0 0.003c-0.409-3.255-2.301-5.897-5.92-5.897-3.616 0-5.581 2.244-5.954 5.869-0.003 0.031-0.005 0.067-0.005 0.103 0 0.536 0.412 0.977 0.943 1.037l0.005 0h9.864l0.008 0.042z"></path>
<path fill="#fff" opacity="0.8" d="M15.612 16.123c-0.662-0.004-1.277-0.198-1.791-0.53l0.012 0.007 1.778 4.565 1.776-4.531c-0.5 0.307-1.108 0.488-1.759 0.488-0.006 0-0.011 0-0.017-0h0.001z"></path>
<path fill="#000" d="M18.918 12.86c0 1.801-1.492 3.262-3.333 3.262s-3.333-1.46-3.333-3.262c0-1.801 1.492-3.262 3.333-3.262s3.333 1.46 3.333 3.262z"></path>
</svg>
