<!-- Generated by IcoMoon.io -->
<svg version="1.1" xmlns="http://www.w3.org/2000/svg" width="20" height="32" viewBox="0 0 20 32">
<title>Azure-Information-Protection</title>
<path fill="#000" d="M16.752 11.608h-1.182v-3.415c0-0.012 0-0.025 0-0.039 0-1.657-0.667-3.168-1.762-4.309l0.005 0.006c-1.043-1.135-2.576-1.849-4.287-1.849-0.011 0-0.022 0-0.033 0h0.002c-0.024-0-0.052-0.001-0.080-0.001-1.711 0-3.245 0.714-4.281 1.842l-0.006 0.007c-1.090 1.123-1.757 2.623-1.757 4.27 0 0.026 0 0.051 0 0.077l-0-0.004v3.415h-0.956c-0.446 0.006-0.807 0.343-0.815 0.761v8.866c0.006 0.42 0.367 0.76 0.814 0.766h14.337c0.45-0.006 0.813-0.344 0.825-0.764l0-0.001v-8.865c-0.014-0.42-0.377-0.756-0.825-0.762h-0.001zM12.773 11.608h-6.558v-3.468c0.011-0.925 0.4-1.764 1.028-2.386l-0.002 0.002c0.543-0.582 1.335-0.949 2.218-0.952h0.001c0.887 0.005 1.682 0.371 2.227 0.95l0.003 0.003c0.134 0.141 0.258 0.297 0.368 0.462l0.009 0.015c0.426 0.521 0.692 1.176 0.719 1.888l0 0.006-0.014 3.482z"></path>
<path fill="#50e6ff" d="M16.787 11.608h-14.362c-0.2 0-0.382 0.071-0.519 0.188l0.001-0.001 15.399 9.973c0.179-0.137 0.292-0.343 0.293-0.575v-8.865c-0.037-0.397-0.384-0.708-0.81-0.72l-0.001-0z"></path>
<path fill="#fff" opacity="0.2" d="M2.449 11.608h14.347c0.204 0.001 0.39 0.072 0.534 0.188l-0.001-0.001-15.409 9.973c-0.176-0.139-0.29-0.344-0.296-0.574l-0-0.001v-8.865c0.043-0.399 0.394-0.71 0.824-0.72l0.001-0z"></path>
<path fill="#198ab3" d="M12.454 20.172l-7.338-3.436 7.338-3.401 0.332 0.642-5.958 2.759 5.958 2.805-0.332 0.631z"></path>
<path fill="#000" d="M7.464 16.759c0 0.765-0.66 1.385-1.475 1.385s-1.475-0.62-1.475-1.385c0-0.765 0.66-1.385 1.475-1.385s1.475 0.62 1.475 1.385z"></path>
<path fill="#000" d="M14.037 13.789c0 0.765-0.66 1.385-1.475 1.385s-1.475-0.62-1.475-1.385c0-0.765 0.66-1.385 1.475-1.385s1.475 0.62 1.475 1.385z"></path>
<path fill="#000" d="M14.037 19.85c0 0.765-0.66 1.385-1.475 1.385s-1.475-0.62-1.475-1.385c0-0.765 0.66-1.385 1.475-1.385s1.475 0.62 1.475 1.385z"></path>
</svg>
