<!-- Generated by IcoMoon.io -->
<svg version="1.1" xmlns="http://www.w3.org/2000/svg" width="24" height="32" viewBox="0 0 24 32">
<title>Azure-Active-Directory-Risky-Sign-In</title>
<path fill="#57a300" d="M12.061 10.914l-3.348-3.147h2.663l4.512 4.195-4.441 4.195h-2.734l3.348-3.147h-9.461c-0.342 0-0.6-0.385-0.6-0.727v-0.868c0-0.339 0.258-0.504 0.6-0.504l9.461 0.004z"></path>
<path fill="#0072c6" d="M3.87 7.302c0.298 0.287 0.706 0.464 1.155 0.464 0.467 0 0.889-0.191 1.19-0.499l0-0 0.039-0.035c1.209-1.175 2.866-1.9 4.693-1.9 1.877 0 3.574 0.765 4.792 1.997l0.001 0.001c0.028 0.028 0.056 0.056 0.085 0.085 1.166 1.191 1.884 2.817 1.884 4.61 0 0.172-0.007 0.342-0.020 0.51l0.001-0.022c0.321 0.149 0.58 0.383 0.754 0.673l0.004 0.008 0.007 0.014 1.697 2.925c0.582-1.223 0.921-2.656 0.921-4.168 0-2.757-1.129-5.253-2.953-7.057l-0-0c-1.836-1.797-4.359-2.907-7.144-2.907h-0c-0.013-0-0.028-0-0.043-0-2.771 0-5.281 1.111-7.101 2.907l0-0c-0.011 0.011-0.025 0.021-0.035 0.035-0.289 0.296-0.467 0.7-0.467 1.145 0 0.463 0.192 0.881 0.502 1.18l0 0c0.011 0.014 0.025 0.025 0.035 0.035zM11.208 21.201c0.008-0.307 0.096-0.592 0.244-0.837l-0.004 0.008 1.051-1.863c-0.444 0.104-0.954 0.164-1.478 0.164-1.885 0-3.588-0.773-4.803-2.018l-0.002-0.002c-0.010-0.010-0.022-0.020-0.033-0.030l-0.002-0.002c-0.299-0.288-0.707-0.466-1.157-0.466-0.466 0-0.887 0.191-1.189 0.498l-0 0c-0.014 0.014-0.025 0.025-0.035 0.035-0.29 0.296-0.469 0.701-0.469 1.147 0 0.463 0.193 0.882 0.504 1.181l0 0c1.836 1.797 4.359 2.907 7.144 2.907h0c0.127 0 0.254-0.004 0.381-0.007-0.096-0.199-0.152-0.432-0.152-0.679 0-0.013 0-0.026 0-0.039l-0 0.002z"></path>
<path fill="#ff8c00" d="M11.825 20.787l-2.113-3.528-2.11-3.641c-0.131-0.24-0.378-0.403-0.665-0.413l-0.001-0c-0.289 0.011-0.537 0.175-0.665 0.412l-0.002 0.004-2.113 3.415-2.113 3.75c-0.087 0.123-0.139 0.276-0.139 0.441 0 0.427 0.349 0.773 0.78 0.773 0.009 0 0.018-0 0.027-0l-0.001 0h8.449c0.008 0 0.017 0 0.026 0 0.431 0 0.78-0.346 0.78-0.773 0-0.165-0.052-0.318-0.141-0.443l0.002 0.003zM7.045 15.827h0.557l-0.222 3.196h-0.889l-0.113-3.196h0.667zM6.935 20.678c-0.368-0-0.667-0.296-0.667-0.661 0-0.001 0-0.001 0-0.002v0c0.001-0.365 0.299-0.66 0.667-0.66v0c0.368 0 0.666 0.295 0.667 0.66v0c0 0.001 0 0.001 0 0.002 0 0.365-0.298 0.661-0.667 0.661v0z"></path>
</svg>
