<!-- Generated by IcoMoon.io -->
<svg version="1.1" xmlns="http://www.w3.org/2000/svg" width="24" height="32" viewBox="0 0 24 32">
<title>Azure-Role-Based-Access-Control</title>
<path fill="#58b4d9" d="M21.999 13.932l-9.973-11.931-10.026 11.878 9.977 8.121 10.022-8.068zM10.735 18.039v-5.048c-0.942-0.494-1.538-1.485-1.538-2.674 0-1.633 1.242-2.97 2.78-2.97s2.776 1.337 2.776 2.97c0 1.139-0.642 2.18-1.538 2.625v0.991l-0.049 0.049-0.942 0.988 0.991 1.041v0.049l-0.893 0.991 0.843 0.938-1.238 1.288-1.192-1.238z"></path>
<path fill="#58b4d9" d="M13.023 9.517c0-0.494-0.596-0.889-1.044-0.889-0.494 0-0.991 0.346-0.991 0.84s0.497 1.041 0.991 1.041c0.448 0.049 1.044-0.444 1.044-0.991z"></path>
</svg>
