<!-- Generated by IcoMoon.io -->
<svg version="1.1" xmlns="http://www.w3.org/2000/svg" width="24" height="32" viewBox="0 0 24 32">
<title>Azure-Stack-Edge-Management</title>
<path fill="#000" d="M21.999 11.611c-0.046-2.173-1.71-3.956-3.867-4.259l-0.024-0.003c-0.103-2.976-2.611-5.35-5.69-5.35-0.053 0-0.107 0.001-0.159 0.002l0.008-0c-0.020-0-0.045-0-0.069-0-2.505 0-4.64 1.535-5.464 3.69l-0.013 0.039c-2.628 0.349-4.642 2.48-4.72 5.083l-0 0.008c0.087 2.881 2.512 5.184 5.491 5.184 0.053 0 0.105-0.001 0.157-0.002l-0.008 0h9.613l0.212-0.116c2.447-0.027 4.432-1.91 4.533-4.267l0-0.009z"></path>
<path fill="#949494" d="M17.747 16.793h-5.334v-6.477h-0.801v6.477h-5.334c-0.22 0.001-0.398 0.174-0.399 0.388v1.517c0 0.214 0.178 0.387 0.399 0.388h0c0 0 0.001 0 0.002 0 0.214 0 0.387-0.168 0.387-0.376 0-0.004-0-0.009-0-0.013l0 0.001v-1.143h4.946v0.79h0.787v-0.79h4.96v1.415c0 0.21 0.172 0.382 0.387 0.388h0.001c0.217-0.008 0.391-0.177 0.399-0.387l0-0.001v-1.789c-0-0.214-0.178-0.387-0.399-0.388h-0z"></path>
<path fill="#000" d="M16.774 22h-2.773c-0.004 0-0.009 0-0.014 0-0.265 0-0.48-0.209-0.48-0.466 0-0.005 0-0.010 0-0.014l-0 0.001v-2.759c0-0 0-0 0-0 0-0.265 0.221-0.479 0.493-0.479 0 0 0 0 0.001 0h2.773c0.27 0.007 0.487 0.218 0.494 0.479v2.759c0 0 0 0 0 0 0 0.265-0.221 0.479-0.493 0.479-0 0-0 0-0.001 0h0zM11.521 21.521v-2.759c-0.007-0.262-0.224-0.473-0.493-0.48h-2.774c-0 0-0 0-0.001 0-0.272 0-0.493 0.215-0.493 0.479 0 0 0 0 0 0.001v-0 2.759c-0 0.004-0 0.009-0 0.014 0 0.258 0.215 0.466 0.48 0.466 0.005 0 0.010-0 0.015-0l-0.001 0h2.773c0 0 0 0 0.001 0 0.272 0 0.493-0.215 0.493-0.479 0-0 0-0 0-0.001v0zM5.799 21.521v-2.759c-0.007-0.262-0.224-0.473-0.493-0.48h-2.812c-0.27 0.007-0.487 0.218-0.494 0.479v2.759c0 0 0 0 0 0 0 0.265 0.221 0.479 0.493 0.479 0 0 0 0 0.001 0h2.787c0.008 0 0.016 0.001 0.025 0.001 0.272 0 0.493-0.215 0.493-0.479 0-0 0-0.001 0-0.001v0z"></path>
<path fill="#fff" d="M16.134 8.892v-0.896h-0.134l-0.988-0.31-0.25-0.607 0.494-1.037-0.642-0.621-0.134 0.064-1.012 0.402-0.639-0.247-0.402-1.087h-0.864v0.127l-0.321 0.96-0.628 0.247-1.147-0.494-0.639 0.635 0.067 0.116 0.572 0.896-0.265 0.607-1.175 0.466v0.882h0.12l0.988 0.31 0.254 0.61-0.494 1.037 0.639 0.621h0.134l0.921-0.455 0.624 0.247 0.402 1.076h0.917v-0.116l0.321-0.96 0.628-0.247 1.065 0.48 0.642-0.621-0.067-0.131-0.469-0.893 0.254-0.61 1.228-0.452zM12.133 10.187c-0.004 0-0.008 0-0.013 0-0.979 0-1.773-0.771-1.773-1.723s0.794-1.723 1.773-1.723c0.979 0 1.773 0.771 1.773 1.723 0 0 0 0.001 0 0.001v-0c0 0.004 0 0.009 0 0.014 0 0.944-0.788 1.71-1.76 1.71-0.029 0-0.057-0.001-0.086-0.002l0.004 0h0.081z"></path>
</svg>
