<!-- Generated by IcoMoon.io -->
<svg version="1.1" xmlns="http://www.w3.org/2000/svg" width="33" height="32" viewBox="0 0 33 32">
<title>Azure-Active-Directory-Authentication-Method</title>
<path fill="#50e6ff" d="M9.769 16.598l6.544 4.202 6.662-4.209 0.84 0.956-7.502 4.785-7.384-4.774 0.84-0.959z"></path>
<path fill="#fff" d="M10.257 16.066l6.056-7.137 6.182 7.145-6.182 3.86-6.056-3.868z"></path>
<path fill="#50e6ff" d="M16.313 8.929v11.006l-6.056-3.868 6.056-7.137z"></path>
<path fill="#000" d="M16.313 8.929v11.006l6.182-3.86-6.182-7.145z"></path>
<path fill="#53b1e0" d="M16.313 14.609l6.182 1.465-6.182 3.86v-5.326z"></path>
<path fill="#9cebff" d="M16.313 19.934l-6.056-3.868 6.056-1.457v5.326z"></path>
<path fill="#000" d="M16.313 22.33l7.502-4.785-0.84-0.956-6.662 4.209v1.531z"></path>
<path fill="#ffca00" d="M13.955 17.98c0.179-0.175 0.29-0.418 0.29-0.687s-0.111-0.512-0.29-0.687l-0-0-1.681-1.665c-0.177-0.175-0.421-0.283-0.691-0.283s-0.514 0.108-0.691 0.283l-1.681 1.665c-0.175 0.177-0.283 0.419-0.283 0.687s0.108 0.51 0.283 0.687l-0-0 1.405 1.389c0.046 0.048 0.074 0.112 0.074 0.183 0 0.002-0 0.004-0 0.006v-0 2.579c-0 0.003-0 0.006-0 0.009 0 0.089 0.040 0.169 0.102 0.224l0 0 0.638 0.633c0.039 0.042 0.094 0.068 0.156 0.068s0.117-0.026 0.155-0.068l0-0 0.616-0.607 0.37-0.368c0.022-0.023 0.036-0.053 0.036-0.087s-0.014-0.065-0.036-0.087l0 0-0.263-0.256c-0.028-0.024-0.046-0.060-0.046-0.1s0.018-0.075 0.045-0.1l0-0 0.263-0.26c0.023-0.024 0.037-0.056 0.037-0.091s-0.014-0.068-0.037-0.092l0 0-0.263-0.258c-0.028-0.023-0.045-0.057-0.045-0.096s0.017-0.073 0.045-0.096l0-0 0.263-0.266c0.022-0.023 0.036-0.053 0.036-0.087s-0.014-0.065-0.036-0.087l0 0-0.37-0.366v-0.131l1.597-1.589zM11.583 15.341c0 0 0.001 0 0.001 0 0.307 0 0.555 0.246 0.555 0.549s-0.249 0.549-0.555 0.549c-0.307 0-0.555-0.246-0.555-0.549 0-0 0-0 0-0v0c0-0.303 0.248-0.548 0.554-0.549h0z"></path>
<path fill="#ff9300" opacity="0.75" d="M19.736 22.237c0.021 0.022 0.051 0.035 0.085 0.035 0.065 0 0.118-0.052 0.118-0.116 0-0.004-0-0.007-0-0.011l0 0 0-2.127c0-0.001 0-0.003 0-0.004 0-0.042-0.020-0.079-0.050-0.104l-0-0c-0.019-0.013-0.043-0.021-0.068-0.021-0.065 0-0.118 0.052-0.118 0.116 0 0.005 0 0.009 0.001 0.014l-0-0.001-0.001 2.088c-0.005 0.012-0.007 0.026-0.007 0.041 0 0.036 0.016 0.069 0.041 0.092l0 0z"></path>
<path fill="#ff9300" opacity="0.75" d="M18.811 17.339c0 0.083 0.068 0.15 0.151 0.15l2.464-0c0.084 0 0.151-0.067 0.151-0.15v0l0.001-0.026c0-0.083-0.068-0.15-0.151-0.15l-2.464 0c-0.084 0-0.151 0.067-0.151 0.15v0l-0.001 0.026z"></path>
<path fill="#ff9300" opacity="0.75" d="M18.811 17.863c0 0.083 0.068 0.15 0.151 0.15l2.464-0c0.084 0 0.151-0.067 0.151-0.15v0l0.001-0.026c0-0.083-0.068-0.15-0.151-0.15l-2.464 0c-0.084 0-0.151 0.067-0.151 0.15v0l-0.001 0.026z"></path>
</svg>
