<!-- Generated by IcoMoon.io -->
<svg version="1.1" xmlns="http://www.w3.org/2000/svg" width="34" height="32" viewBox="0 0 34 32">
<title>Azure-Front-Door</title>
<path fill="#000" d="M24.381 16.72c-0.061-1.71-1.327-3.099-2.954-3.31l-0.017-0.002c-0.079-2.373-1.981-4.266-4.316-4.266-0.046 0-0.092 0.001-0.137 0.002l0.007-0c-0.024-0.001-0.053-0.001-0.082-0.001-1.893 0-3.508 1.213-4.142 2.919l-0.010 0.031c-1.989 0.257-3.521 1.941-3.589 4.004l-0 0.007c0.086 2.271 1.91 4.078 4.146 4.078 0.052 0 0.103-0.001 0.155-0.003l-0.007 0h7.323c0.028 0.004 0.061 0.007 0.094 0.007s0.066-0.003 0.098-0.007l-0.004 0c1.875-0.015 3.394-1.549 3.436-3.456l0-0.004z"></path>
<path fill="#f2f2f2" d="M14.754 14.116h4.284v6.054h-4.284v-6.054z"></path>
<path fill="#50e6ff" d="M19.818 13.727l-2.955-1.731c-0.019-0.007-0.041-0.010-0.064-0.010-0.090 0-0.167 0.057-0.198 0.139l-0 0.001-0.001 10.519c0 0 0 0 0 0 0 0.116 0.090 0.211 0.203 0.216h0l0.068-0.001 2.955-1.782c0.083-0.029 0.141-0.107 0.144-0.199v-0l0.001-6.917c0.001-0.006 0.001-0.012 0.001-0.019 0-0.1-0.064-0.184-0.152-0.214l-0.002-0z"></path>
</svg>
