<!-- Generated by IcoMoon.io -->
<svg version="1.1" xmlns="http://www.w3.org/2000/svg" width="32" height="32" viewBox="0 0 32 32">
<title>Azure-Cosmos-DB</title>
<path fill="#50e6ff" d="M10.917 12.827c-0 0-0.001 0-0.001 0-0.083 0-0.15-0.067-0.15-0.149 0-0 0-0.001 0-0.001v0c-0.001-0.942-0.772-1.706-1.722-1.708h-0c-0 0-0 0-0 0-0.083 0-0.15-0.066-0.151-0.149v-0c0-0 0-0 0-0 0-0.083 0.068-0.15 0.151-0.15 0 0 0 0 0 0v0c0.951-0.003 1.721-0.766 1.722-1.709v-0c0-0 0-0.001 0-0.001 0-0.082 0.067-0.149 0.15-0.149 0 0 0.001 0 0.001 0h-0c0 0 0.001 0 0.001 0 0.083 0 0.15 0.067 0.15 0.149 0 0 0 0.001 0 0.001v-0c0.001 0.943 0.772 1.707 1.724 1.708h0c0 0 0.001 0 0.001 0 0.083 0 0.15 0.067 0.15 0.149 0 0 0 0.001 0 0.001v-0c0 0 0 0.001 0 0.001 0 0.082-0.067 0.149-0.15 0.149-0 0-0.001 0-0.001 0h0c-0.951 0.002-1.721 0.766-1.722 1.708v0c-0 0.082-0.068 0.149-0.151 0.15h-0l-0.001-0z"></path>
<path fill="#50e6ff" d="M10.159 23.188c-0.067 0-0.121-0.054-0.121-0.12v0c-0-0.755-0.618-1.366-1.379-1.367h-0c-0.066 0-0.12-0.053-0.121-0.119v-0c0-0.066 0.054-0.12 0.121-0.12v0c0 0 0 0 0 0 0.761 0 1.379-0.611 1.38-1.365v-0c0-0.066 0.054-0.12 0.121-0.12v0c0.067 0 0.121 0.054 0.121 0.12v0c0 0.754 0.617 1.366 1.378 1.367h0c0.001 0 0.001-0 0.002-0 0.067 0 0.121 0.054 0.121 0.12s-0.054 0.12-0.121 0.12c-0.001 0-0.002 0-0.002-0h0c-0.761 0-1.378 0.611-1.38 1.364v0c-0.001 0.066-0.055 0.119-0.121 0.119v0z"></path>
<path fill="#000" d="M21.128 15.978c0 2.885-2.361 5.224-5.273 5.224s-5.273-2.339-5.273-5.224c0-2.885 2.361-5.224 5.273-5.224s5.273 2.339 5.273 5.224z"></path>
<path fill="#f2f2f2" d="M13.363 19.483c1.919 0.051 1.924-2.827 0.003-2.784 0.005-0.040 0.008-0.080 0.005-0.117-0.005-0.774-0.643-1.396-1.423-1.391h-1.054c-0.312 1.38 0.208 3.134 1.284 4.292h1.185z"></path>
<path fill="#f2f2f2" d="M21.285 15.017c0-0.013 0-0.027-0.005-0.037-0.182-0.95-0.608-1.781-1.211-2.453l0.005 0.005c-0.069-0.029-0.152-0.056-0.238-0.075l-0.011-0.002c-0.127-0.037-0.273-0.059-0.424-0.059-0.834 0-1.514 0.653-1.548 1.47l-0 0.003c-0.050-0.007-0.11-0.012-0.171-0.013l-0.002-0c-0.001 0-0.001 0-0.002 0-0.823 0-1.49 0.661-1.49 1.476 0 0.64 0.411 1.185 0.986 1.39l0.010 0.003c0.135 0.054 0.291 0.085 0.455 0.085 0.002 0 0.005 0 0.007-0h1.743c0.71-0.536 1.333-1.125 1.883-1.776l0.015-0.018z"></path>
<path fill="#50e6ff" d="M23.131 11.606c-0.539-0.889-1.802-1.236-3.563-0.977-0.686 0.098-1.289 0.232-1.874 0.407l0.089-0.023c0.5 0.174 0.933 0.395 1.329 0.666l-0.019-0.012c0.206-0.045 0.414-0.099 0.614-0.131 0.283-0.046 0.61-0.073 0.943-0.075h0.002c0.081-0.012 0.174-0.019 0.268-0.019 0.563 0 1.067 0.245 1.411 0.634l0.002 0.002c0.328 0.542 0.051 1.471-0.761 2.549-1.126 1.381-2.476 2.529-4.004 3.407l-0.069 0.037c-1.433 0.901-3.111 1.571-4.907 1.91l-0.090 0.014c-1.343 0.198-2.303 0-2.632-0.542-0.328-0.539-0.051-1.471 0.761-2.546 0.101-0.133 0.125-0.198 0.24-0.331-0.023-0.184-0.036-0.396-0.036-0.612 0-0.273 0.021-0.541 0.061-0.803l-0.004 0.029c-0.356 0.353-0.685 0.733-0.984 1.136l-0.019 0.027c-1.062 1.409-1.351 2.677-0.811 3.566 0.501 0.659 1.288 1.080 2.175 1.080 0.11 0 0.219-0.006 0.325-0.019l-0.013 0.001c0.381-0.002 0.752-0.033 1.114-0.091l-0.041 0.005c2.013-0.371 3.805-1.082 5.399-2.076l-0.064 0.037c1.704-0.977 3.144-2.206 4.32-3.654l0.023-0.029c1.065-1.412 1.353-2.677 0.814-3.569v0z"></path>
</svg>
