<!-- Generated by IcoMoon.io -->
<svg version="1.1" xmlns="http://www.w3.org/2000/svg" width="30" height="32" viewBox="0 0 30 32">
<title>Azure-Lighthouse</title>
<path fill="#000" d="M21.134 22.635l-2.902-7.658c-0.033-0.087-0.115-0.147-0.21-0.148l-2.069-0.001v-1.822c0.002-0.027 0.004-0.058 0.004-0.090 0-0.59-0.47-1.068-1.051-1.068s-1.051 0.478-1.051 1.068c0 0.032 0.001 0.063 0.004 0.094l-0-0.004v1.822h-1.866c-0 0-0.001 0-0.001 0-0.097 0-0.181 0.060-0.216 0.146l-0.001 0.002-3.008 7.659c-0.026 0.055-0.041 0.12-0.041 0.189 0 0.235 0.177 0.429 0.403 0.45l0.002 0h11.638c0.228-0.021 0.405-0.215 0.405-0.45 0-0.069-0.015-0.134-0.042-0.192l0.001 0.003z"></path>
<path fill="#83b9f9" d="M10.398 18.459l6.978-3.631h0.606c0.001-0 0.003-0 0.004-0 0.099 0 0.183 0.065 0.214 0.155l0 0.002 0.67 1.769-9.739 4.994 1.268-3.287zM15.387 23.258l4.85-2.959 0.88 2.335c0.023 0.053 0.037 0.116 0.037 0.181 0 0.238-0.178 0.434-0.407 0.458l-0.002 0-5.358-0.015z"></path>
<path fill="#0078d4" d="M14.846 8.733l-3.331 1.963c-0.039 0.023-0.065 0.065-0.065 0.114 0 0 0 0.001 0 0.001v-0l0.001 0.303c0 0.073 0.058 0.131 0.129 0.131v0l0.502 0.002v3.58h0.629v-3.58h4.399v3.58h0.621v-3.58h0.511c0.071 0 0.129-0.059 0.129-0.131v0l-0.001-0.305c0-0 0-0.001 0-0.001 0-0.048-0.026-0.091-0.064-0.114l-0.001-0-3.354-1.964c-0.016-0.005-0.034-0.008-0.053-0.008s-0.037 0.003-0.054 0.008l0.001-0z"></path>
</svg>
