<!-- Generated by IcoMoon.io -->
<svg version="1.1" xmlns="http://www.w3.org/2000/svg" width="31" height="32" viewBox="0 0 31 32">
<title>Azure-Lighthouse-My-Permission</title>
<path fill="#000" d="M21.817 21.962c-0.375-3.026-1.843-5.589-4.553-6.421 1.020-0.669 1.685-1.814 1.685-3.115 0-2.045-1.643-3.703-3.669-3.703s-3.669 1.658-3.669 3.703c0 1.282 0.645 2.411 1.626 3.076l0.013 0.008c-2.731 0.739-4.186 3.062-4.519 6.462-0.004 0.035-0.006 0.076-0.006 0.118 0 0.609 0.456 1.11 1.043 1.175l0.005 0c0.036 0.004 0.078 0.007 0.12 0.008h10.764c0.001 0 0.002 0 0.003 0 0.642 0 1.162-0.523 1.165-1.17v-0c0-0.002 0-0.003 0-0.005 0-0.048-0.003-0.095-0.008-0.142l0.001 0.006z"></path>
<path fill="#fff" opacity="0.8" d="M15.286 16.135c-0.001 0-0.001 0-0.002 0-0.739 0-1.426-0.221-2.001-0.601l0.014 0.009 1.968 5.192 1.956-5.156c-0.548 0.35-1.215 0.557-1.931 0.557-0.002 0-0.003 0-0.005 0h0z"></path>
</svg>
