<!-- Generated by IcoMoon.io -->
<svg version="1.1" xmlns="http://www.w3.org/2000/svg" width="29" height="32" viewBox="0 0 29 32">
<title>Azure-Active-Directory-Security</title>
<path fill="#0078d4" d="M20.364 15.516c0 3.914-4.624 7.065-5.628 7.704-0.054 0.034-0.12 0.055-0.19 0.055s-0.136-0.020-0.191-0.056l0.002 0.001c-1.006-0.639-5.63-3.79-5.63-7.704v-4.704c0-0 0-0 0-0 0-0.203 0.159-0.368 0.356-0.372h0c3.598-0.098 2.766-1.714 5.464-1.714 2.695 0 1.866 1.617 5.464 1.714 0.197 0.005 0.354 0.17 0.354 0.372 0 0 0 0 0 0v-0 4.704z"></path>
<path fill="#000" d="M19.884 15.556c0 3.59-4.24 6.467-5.163 7.065-0.050 0.031-0.11 0.049-0.175 0.049s-0.125-0.018-0.176-0.050l0.002 0.001c-0.926-0.583-5.163-3.475-5.163-7.065v-4.317c0-0.184 0.144-0.334 0.323-0.339h0c3.298-0.090 2.538-1.568 5.015-1.568 2.474 0 1.714 1.478 5.012 1.568 0.18 0.004 0.326 0.154 0.326 0.339v4.317z"></path>
</svg>
