<!-- Generated by IcoMoon.io -->
<svg version="1.1" xmlns="http://www.w3.org/2000/svg" width="31" height="32" viewBox="0 0 31 32">
<title>Azure-Database-Migration-Service</title>
<path fill="#000" d="M22.574 15.296c-0.053-1.502-1.205-2.725-2.692-2.928l-0.017-0.002c-0.091-2.046-1.811-3.672-3.919-3.672-0.044 0-0.089 0.001-0.133 0.002l0.006-0c-0.021-0-0.047-0.001-0.072-0.001-1.726 0-3.198 1.060-3.772 2.551l-0.009 0.027c-1.812 0.22-3.21 1.686-3.273 3.483l-0 0.006c0.080 1.979 1.742 3.553 3.779 3.553 0.044 0 0.088-0.001 0.131-0.002l-0.006 0h6.677c0.025 0.004 0.054 0.007 0.084 0.007s0.059-0.002 0.087-0.007l-0.003 0c1.709-0.014 3.093-1.352 3.131-3.014l0-0.004z"></path>
<path fill="#000" d="M15.635 17.213c-2.023 0-3.677-0.515-3.677-1.144v6.095c0 0.626 1.626 1.134 3.634 1.142h0.044c2.031 0 3.675-0.515 3.675-1.142v-6.095c0.036 0.629-1.608 1.144-3.675 1.144z"></path>
<path fill="#e8e8e8" d="M19.345 16.070c0 0.626-1.644 1.142-3.675 1.142-2.033 0-3.677-0.515-3.677-1.142 0-0.629 1.654-1.144 3.641-1.144s3.677 0.508 3.677 1.144h0.034z"></path>
<path fill="#50e6ff" d="M18.493 16.001c0 0.405-1.268 0.729-2.824 0.729s-2.814-0.35-2.814-0.729c0-0.379 1.265-0.758 2.781-0.758 1.513 0 2.822 0.327 2.822 0.732l0.036 0.026z"></path>
<path fill="#32bedd" d="M15.635 16.148c-0.055-0.001-0.12-0.002-0.185-0.002-0.727 0-1.43 0.101-2.095 0.288l0.053-0.013c0.615 0.181 1.322 0.285 2.055 0.285 0.060 0 0.121-0.001 0.181-0.002l-0.009 0c0.052 0.001 0.113 0.002 0.175 0.002 0.733 0 1.441-0.104 2.11-0.299l-0.052 0.013c-0.613-0.175-1.317-0.275-2.045-0.275-0.066 0-0.131 0.001-0.197 0.002l0.010-0z"></path>
<path fill="#f2f2f2" d="M13.24 12.562l2.278-2.234c0.050-0.049 0.118-0.080 0.195-0.080s0.145 0.031 0.195 0.080l0 0 2.278 2.234c0.018 0.021 0.029 0.048 0.029 0.078 0 0.064-0.052 0.117-0.117 0.12l-1.399 0.001c0 0 0 0 0 0-0.068 0-0.123 0.054-0.123 0.12v0l-0.001 2.769c0.001 0.004 0.001 0.008 0.001 0.012 0 0.039-0.026 0.071-0.062 0.082l-0.001 0-1.565-0.002c-0.003 0-0.006 0-0.009 0-0.049 0-0.088-0.038-0.088-0.086 0-0.003 0-0.006 0.001-0.009l-0 0-0.001-2.776c0-0.001 0-0.002 0-0.003 0-0.057-0.041-0.105-0.096-0.117l-0.001-0-1.424 0.002c-0.062-0.006-0.111-0.058-0.111-0.12 0-0.026 0.008-0.050 0.023-0.070l-0 0z"></path>
</svg>
