<!-- Generated by IcoMoon.io -->
<svg version="1.1" xmlns="http://www.w3.org/2000/svg" width="27" height="32" viewBox="0 0 27 32">
<title>Azure-Lighthouse-My-Role</title>
<path fill="#fff" d="M5.145 18.489h2.984v3.045h-2.984v-3.045z"></path>
<path fill="#0072c6" d="M8.688 22.676h-4.102c-0.309-0-0.559-0.256-0.559-0.571 0-0.001 0-0.001 0-0.002v0-4.184c0-0 0-0.001 0-0.001 0-0.315 0.25-0.571 0.559-0.571h4.102c0.309 0 0.559 0.256 0.559 0.571 0 0.001 0 0.001 0 0.002v-0 4.184c0 0 0 0.001 0 0.001 0 0.315-0.25 0.571-0.559 0.571v0z"></path>
<path fill="#fff" d="M11.486 18.489h2.984v3.045h-2.984v-3.045z"></path>
<path fill="#7a7a7a" d="M12.605 12.399h0.746v4.948h-0.746v-4.948z"></path>
<path fill="#804998" d="M17.079 8.212c0 2.313-1.836 4.188-4.102 4.188s-4.102-1.875-4.102-4.188c0-2.313 1.836-4.184 4.102-4.184s4.102 1.872 4.102 4.184z"></path>
<path fill="#3999c6" d="M9.582 14.304c0 1.201-0.984 2.174-2.201 2.174-1.214 0-2.201-0.974-2.201-2.174 0-1.204 0.987-2.178 2.201-2.178 1.217 0 2.201 0.974 2.201 2.178zM8.757 17.347l-1.375 2.161-1.372-2.161h-1.984v5.329h6.714v-5.329h-1.984z"></path>
<path fill="#fff" opacity="0.2" d="M15.614 5.523c-1.454-1.487-3.816-1.487-5.273 0s-1.457 3.895 0 5.382l5.273-5.382z"></path>
<path fill="#7a7a7a" d="M16.745 14.301h-9.734c-0 0-0 0-0.001 0-0.412 0-0.746 0.341-0.746 0.761 0 0.001 0 0.001 0 0.002v-0 2.283h0.747v-2.283h9.852c-0.075-0.228-0.118-0.49-0.118-0.763v-0z"></path>
</svg>
