<!-- Generated by IcoMoon.io -->
<svg version="1.1" xmlns="http://www.w3.org/2000/svg" width="34" height="32" viewBox="0 0 34 32">
<title>Azure-Active-Directory</title>
<path fill="#50e6ff" d="M9.996 16.997l6.708 4.304 6.823-4.32 0.855 0.987-7.678 4.89-7.563-4.89 0.855-0.971z"></path>
<path fill="#fff" d="M10.504 16.444l6.2-7.302 6.323 7.31-6.323 3.952-6.2-3.96z"></path>
<path fill="#50e6ff" d="M16.704 9.142v11.262l-6.2-3.96 6.2-7.302z"></path>
<path fill="#000" d="M16.703 9.142v11.262l6.326-3.952-6.326-7.31z"></path>
<path fill="#53b1e0" d="M16.703 14.963l6.326 1.489-6.326 3.952v-5.442z"></path>
<path fill="#9cebff" d="M16.704 20.404l-6.2-3.96 6.2-1.481v5.442z"></path>
<path fill="#000" d="M9.141 22.858l7.681-4.89-0.855-0.987-6.826 4.32v1.557z"></path>
</svg>
