<!-- Generated by IcoMoon.io -->
<svg version="1.1" xmlns="http://www.w3.org/2000/svg" width="25" height="32" viewBox="0 0 25 32">
<title>Azure-Advisor</title>
<path fill="#59b4d9" d="M22.782 11.958c0-1.293-1.103-2.28-2.4-2.28h-0.325c0.128-0.493 0.259-1.049 0.259-1.604 0-0.008 0-0.018 0-0.027 0-3.359-2.866-6.081-6.401-6.081-0.009 0-0.018 0-0.026 0h0.001c-2.795 0-5.195 1.728-6.039 4.194-0.457-0.121-0.91-0.245-1.428-0.245-2.404 0-4.351 1.849-4.351 4.194s1.947 4.194 4.351 4.194h14.153c1.246-0.13 2.207-1.125 2.207-2.332 0-0.005 0-0.009-0-0.014v0.001z"></path>
<path fill="#fff" opacity="0.2" d="M8.695 14.304c-0.585-0.555-0.975-1.235-1.169-2.035-0.519-2.283 0.91-4.505 3.31-4.998 0.519-0.121 0.975-0.121 1.428-0.062 0.194-2.097 1.56-4.008 3.573-4.932-0.58-0.194-1.249-0.308-1.946-0.311h-0.001c-2.795 0-5.195 1.728-6.039 4.194-0.457-0.121-0.91-0.245-1.428-0.245-2.404 0-4.351 1.849-4.351 4.194s1.947 4.194 4.351 4.194h2.272z"></path>
<path fill="#000" d="M7.369 14.549c-0.658 0.566-1.52 0.906-2.47 0.906-0.954 0-1.816-0.34-2.47-0.906l-0.358 7.095 2.828-2.714 2.824 2.714-0.354-7.095z"></path>
<path fill="#dd5900" d="M19.552 12.090c0 2.529-2.158 4.579-4.82 4.579s-4.82-2.050-4.82-4.579c0-2.529 2.158-4.579 4.82-4.579s4.82 2.050 4.82 4.579z"></path>
<path fill="#ff8c00" d="M18.362 12.090c0 1.905-1.625 3.448-3.63 3.448s-3.63-1.544-3.63-3.448c0-1.905 1.625-3.448 3.63-3.448s3.63 1.544 3.63 3.448z"></path>
<path fill="#fff" opacity="0.15" d="M11.31 15.341c-1.874-1.779-1.874-4.691 0-6.474 1.874-1.779 4.939-1.779 6.814 0l-6.814 6.474z"></path>
</svg>
