<!-- Generated by IcoMoon.io -->
<svg version="1.1" xmlns="http://www.w3.org/2000/svg" width="28" height="32" viewBox="0 0 28 32">
<title>Azure-Database-For-Mariadb</title>
<path fill="#000" d="M14.181 12.695c-3.013 0-5.456-0.855-5.456-1.984v10.578c0 1.086 2.399 1.968 5.379 1.984h0.077c3.013 0 5.456-0.855 5.456-1.984v-10.578c0 1.104-2.443 1.984-5.456 1.984z"></path>
<path fill="#e8e8e8" d="M19.637 10.712c0 1.104-2.443 1.984-5.456 1.984s-5.456-0.855-5.456-1.984c0-1.132 2.443-1.986 5.456-1.986s5.456 0.855 5.456 1.986z"></path>
<path fill="#50e6ff" d="M18.37 10.549c0 0.701-1.881 1.265-4.188 1.265s-4.188-0.565-4.188-1.265c0-0.703 1.881-1.258 4.188-1.258s4.188 0.565 4.188 1.258z"></path>
<path fill="#198ab3" d="M14.181 10.865c-0.075-0.002-0.163-0.003-0.251-0.003-1.094 0-2.146 0.18-3.129 0.511l0.069-0.020c0.888 0.297 1.91 0.468 2.971 0.468 0.119 0 0.238-0.002 0.356-0.006l-0.017 0.001c0.084 0.003 0.182 0.004 0.28 0.004 1.084 0 2.126-0.183 3.097-0.52l-0.067 0.020c-0.897-0.291-1.928-0.459-2.999-0.459-0.11 0-0.219 0.002-0.327 0.005l0.016-0z"></path>
<path fill="#f2f2f2" d="M18.65 13.708c-0.28 0 0.051 0.213-0.944 0.257-0.996 0.041-1.345 1.068-1.991 1.932-0.665 0.664-1.55 1.106-2.536 1.205l-0.018 0.001c-0.664 0.22-1.213 0.637-1.595 1.181l-0.007 0.010c-0.113 0.237-0.335 0.407-0.599 0.444l-0.004 0c-0.231 0-0.734 0.069-0.734 0.069-0.229 0.051-0.431 0.122-0.62 0.213l0.017-0.007c0.069 0.282 0.629 0.164 0.629 0.164-0.136 0.141-0.28 0.272-0.432 0.393l-0.009 0.007c0.164 0.040 0.352 0.064 0.545 0.064 0.108 0 0.215-0.007 0.319-0.021l-0.012 0.001c0.364 0 0.647-0.352 1.319-0.719 0.672-0.37 2.22 0 2.469 0 0.246 0 0.611-0.652 0.698-0.857 0.067 0.462-0.698 1.712-0.698 1.712 0.597-0.041 1.11-0.369 1.407-0.847l0.004-0.008c0.069-0.087 0.282-0.531 0.308-0.488 0.023 0.041 0.136 0.162 0.177 0.144 0.078-0.070 0.148-0.145 0.21-0.227l0.003-0.004c0.428-0.606 0.761-1.314 0.96-2.077l0.010-0.045c0.059-0.205 0.059-0.95 0.57-1.258s0.58-0.59 0.58-0.616v-0.044c-0.128-0.083-0.237-0.182-0.329-0.295l-0.002-0.003c-0.008-0.014-0.013-0.030-0.013-0.047s0.005-0.034 0.013-0.047l-0 0c0.086 0.159 0.23 0.276 0.403 0.324l0.005 0.001c0 0 0.177-0.513-0.103-0.513zM17.585 14.613h-0.049c-0.017 0.003-0.037 0.005-0.057 0.005-0.077 0-0.147-0.028-0.2-0.075l0 0c0.061-0.154 0.208-0.261 0.381-0.261 0.021 0 0.043 0.002 0.063 0.005l-0.002-0c0.010 0.027 0.016 0.058 0.016 0.090 0 0.104-0.062 0.194-0.151 0.234l-0.002 0.001zM18.062 14.613c0.081-0.189 0.175-0.352 0.287-0.502l-0.004 0.006c-0.112 0.153-0.212 0.327-0.291 0.511l-0.007 0.017 0.015-0.033zM18.37 14.177c-0.042 0.13-0.067 0.28-0.069 0.435v0.001c-0.006-0.049-0.009-0.106-0.009-0.163s0.003-0.114 0.010-0.17l-0.001 0.007c-0.058 0.096-0.105 0.207-0.134 0.325l-0.002 0.008c0.038-0.157 0.102-0.294 0.19-0.414l-0.002 0.003 0.018-0.033zM16.913 18.158c0 0-0.416 0.393-0.434 0.529-0.015 0.139 0.459 0.352 0.757 0.275-0.109-0.218-0.218-0.484-0.31-0.758l-0.013-0.046z"></path>
</svg>
