<!-- Generated by IcoMoon.io -->
<svg version="1.1" xmlns="http://www.w3.org/2000/svg" width="31" height="32" viewBox="0 0 31 32">
<title>Azure-Active-Directory-Identity-Protection</title>
<path fill="#000" d="M19.906 22.047c0.003 0 0.006 0 0.009 0 0.593 0 1.075-0.473 1.081-1.059v-0.001c0.002-0.019 0.003-0.042 0.003-0.064s-0.001-0.045-0.003-0.067l0 0.003c-0.426-3.423-2.379-6.144-6.051-6.144-3.675 0-5.8 2.335-6.216 6.151-0.003 0.030-0.005 0.065-0.005 0.1 0 0.56 0.428 1.021 0.978 1.080l0.005 0h10.198z"></path>
<path fill="#fff" opacity="0.8" d="M14.892 15.52c-0.685-0.005-1.321-0.209-1.853-0.557l0.013 0.008 1.814 4.758 1.832-4.722c-0.514 0.32-1.137 0.51-1.806 0.513h-0.001z"></path>
<path fill="#000" d="M18.325 12.122c0 1.876-1.536 3.397-3.432 3.397s-3.432-1.521-3.432-3.397c0-1.876 1.536-3.397 3.432-3.397s3.432 1.521 3.432 3.397z"></path>
<path fill="#dfa500" d="M22.551 19.383c0 1.974-2.292 3.706-2.918 3.878-0.032 0.009-0.069 0.015-0.107 0.015s-0.075-0.005-0.109-0.015l0.003 0.001c-0.624-0.172-2.918-1.909-2.918-3.878v-2.369c-0.001-0.006-0.001-0.013-0.001-0.020 0-0.091 0.068-0.165 0.157-0.177l0.001-0c0.006-0.001 0.014-0.001 0.021-0.001s0.015 0 0.022 0.001l-0.001-0c1.862-0.065 1.462-0.855 2.791-0.855s0.932 0.79 2.792 0.855c0.006-0.001 0.014-0.001 0.021-0.001 0.091 0 0.167 0.067 0.178 0.154l0 0.001c0.001 0.006 0.001 0.014 0.001 0.021s-0 0.015-0.001 0.022l0-0.001 0.067 2.37z"></path>
<path fill="#000" d="M19.494 19.648v-3.323c1.263 0 0.862 0.69 2.592 0.755 0.107 0.007 0.192 0.091 0.199 0.197l0 0.001 0.001 2.305-2.792 0.067zM19.494 19.648h-2.725c0.133 1.709 2.194 3.026 2.659 3.29l0.133 0.064-0.067-3.354z"></path>
<path fill="#ffd400" d="M16.902 17.106c1.727-0.067 1.329-0.783 2.592-0.783v3.323h-2.725v-2.379c0-0.128 0.067-0.162 0.133-0.162z"></path>
<path fill="#ffd400" d="M22.286 19.581l-2.792 0.067 0.067 3.354c0.465-0.329 2.525-1.712 2.725-3.421z"></path>
</svg>
