<!-- Generated by IcoMoon.io -->
<svg version="1.1" xmlns="http://www.w3.org/2000/svg" width="32" height="32" viewBox="0 0 32 32">
<title>Azure-Stack-User-Subscription</title>
<path fill="#000" d="M20.321 23.348c0.628-0.001 1.138-0.521 1.143-1.164v-0.001c0.002-0.021 0.003-0.045 0.003-0.070s-0.001-0.049-0.004-0.073l0 0.003c-0.451-3.682-2.494-6.679-6.399-6.679s-6.015 2.543-6.409 6.687c-0.004 0.036-0.006 0.078-0.006 0.121 0 0.604 0.445 1.102 1.017 1.167l0.005 0 10.648 0.008z"></path>
<path fill="#fff" opacity="0.8" d="M15.065 16.242c-0.007 0-0.016 0-0.024 0-0.713 0-1.375-0.219-1.928-0.594l0.013 0.008 1.924 5.159 1.913-5.126c-0.535 0.347-1.186 0.552-1.883 0.552-0.005 0-0.010 0-0.015-0h0.001z"></path>
<path fill="#000" d="M18.663 12.562c0 2.038-1.611 3.689-3.597 3.689s-3.597-1.652-3.597-3.689c0-2.038 1.611-3.689 3.597-3.689s3.597 1.652 3.597 3.689z"></path>
<path fill="#000" d="M23.073 18.168c0.175-0.179 0.284-0.427 0.284-0.701s-0.108-0.522-0.284-0.701l-0-0-1.659-1.753c-0.174-0.182-0.416-0.294-0.683-0.294s-0.509 0.113-0.683 0.294l-0 0-1.709 1.701c-0.176 0.181-0.284 0.43-0.284 0.705s0.109 0.525 0.284 0.705l-0-0 1.374 1.436c0.048 0.049 0.078 0.117 0.078 0.192 0 0.001 0 0.002 0 0.002v-0 2.629c-0 0.002-0 0.005-0 0.007 0 0.094 0.040 0.178 0.103 0.236l0 0 0.622 0.659c0.041 0.040 0.097 0.064 0.158 0.064s0.117-0.024 0.158-0.064l-0 0 0.615-0.633 0.36-0.376c0.022-0.022 0.036-0.053 0.036-0.088s-0.014-0.065-0.036-0.088l-0-0-0.264-0.271c-0.024-0.026-0.038-0.062-0.038-0.101s0.015-0.074 0.038-0.101l-0 0 0.264-0.273c0.025-0.021 0.040-0.052 0.040-0.088s-0.016-0.067-0.040-0.087l-0-0-0.257-0.271c-0.024-0.026-0.038-0.062-0.038-0.101s0.015-0.074 0.038-0.101l-0 0 0.264-0.273c0.022-0.022 0.036-0.053 0.036-0.088s-0.014-0.065-0.036-0.088l-0-0-0.358-0.377v-0.096l1.615-1.62zM20.74 15.443c0.301 0.009 0.541 0.259 0.547 0.567v0.001c0 0.003 0 0.007 0 0.011 0 0.305-0.241 0.552-0.538 0.552-0.007 0-0.013-0-0.020-0l0.001 0c-0.276-0.036-0.487-0.276-0.487-0.565s0.211-0.529 0.484-0.565l0.003-0h0.010z"></path>
<path fill="#ff9300" opacity="0.75" d="M20.277 22.488c0.022 0.023 0.052 0.037 0.085 0.037 0.066 0 0.12-0.055 0.12-0.123 0-0.001 0-0.001 0-0.002v0l-0-2.147c0-0.001 0-0.003 0-0.004 0-0.044-0.020-0.084-0.051-0.109l-0-0c-0.019-0.014-0.043-0.022-0.068-0.022-0.066 0-0.12 0.055-0.12 0.123 0 0.002 0 0.003 0 0.005v-0l0.001 2.155c-0 0.002-0 0.003-0 0.005 0 0.032 0.013 0.062 0.034 0.082l0 0z"></path>
<path fill="#ff9300" opacity="0.75" d="M22.016 17.65c0.082 0 0.149-0.064 0.15-0.144v0l-0.001-0.034c0-0.080-0.066-0.146-0.148-0.146v0l-2.514-0.015c-0.082-0-0.149 0.064-0.15 0.144v0l0.001 0.034c-0 0.080 0.066 0.146 0.148 0.146v0l2.514 0.015z"></path>
<path fill="#ff9300" opacity="0.75" d="M22.007 18.197c0.082 0 0.149-0.064 0.15-0.144v0l-0.001-0.034c0-0.080-0.066-0.146-0.148-0.146v0l-2.514-0.015c-0.082-0-0.149 0.064-0.15 0.144v0l0.001 0.034c-0 0.080 0.066 0.146 0.148 0.146v0l2.514 0.015z"></path>
</svg>
