<!-- Generated by IcoMoon.io -->
<svg version="1.1" xmlns="http://www.w3.org/2000/svg" width="24" height="32" viewBox="0 0 24 32">
<title>Azure-Board</title>
<path fill="#00947d" d="M16.175 15.308c1.496 0 2.85 0.561 3.881 1.475v-9.021c0-0.455-0.367-0.825-0.826-0.825h-16.404c-0.455 0-0.825 0.37-0.825 0.825v13.413c0 0.455 0.37 0.826 0.825 0.826h7.595c-0.042-0.286-0.063-0.579-0.063-0.878-0.004-3.21 2.604-5.814 5.817-5.814z"></path>
<path fill="#1fc1a7" d="M3.486 3.511h4.017v2.539h-4.017v-2.539z"></path>
<path fill="#61ddc9" d="M9.008 3.511h4.017v2.539h-4.017v-2.539z"></path>
<path fill="#9bfdec" d="M3.486 7.534h4.017v2.539h-4.017v-2.539z"></path>
<path fill="#00b99d" d="M3.486 11.557h4.017v2.502h-4.017v-2.502z"></path>
<path fill="#04bca1" d="M9.008 7.534h4.017v2.539h-4.017v-2.539z"></path>
<path fill="#1dc0a7" d="M14.542 3.511h4.017v2.539h-4.017v-2.539z"></path>
<path fill="#00ba9d" d="M20.054 16.236v-4.389c-1.027-0.914-2.388-1.475-3.877-1.475-3.214 0-5.824 2.6-5.824 5.814 0 0.3 0.021 0.589 0.067 0.878h8.809c0.459-0.004 0.826-0.374 0.826-0.829z"></path>
<path fill="#27cfb2" d="M11.634 11.851v4.389c0 0.455-0.367 0.826-0.822 0.826h-8.812c0.423 2.794 2.84 4.935 5.757 4.935 3.217-0.004 5.824-2.604 5.824-5.817 0-1.722-0.755-3.27-1.947-4.332z"></path>
<path fill="#c5fdf4" d="M19.168 13.323l-3.648 3.641-1.877-1.87-1.118 1.118 3.066 3.062 4.766-4.762-1.189-1.189z"></path>
</svg>
