<!-- Generated by IcoMoon.io -->
<svg version="1.1" xmlns="http://www.w3.org/2000/svg" width="26" height="32" viewBox="0 0 26 32">
<title>Azure-Lighthouse-Management</title>
<path fill="#0179d3" d="M2.148 5.282h21.477v15.979h-21.477v-15.979z"></path>
<path fill="#59b4d9" d="M2.148 5.324c0 0.092 0.070 0.166 0.157 0.166l21.163 0.001c0.087 0 0.157-0.074 0.157-0.166v0l-0.002-3.225c0-0.092-0.070-0.166-0.157-0.166l-21.159-0.001c-0.087 0-0.157 0.074-0.157 0.166v0l-0.002 3.225z"></path>
<path fill="#59b4d9" d="M16.598 7.864h2.751v11.025h-2.751v-11.025z"></path>
<path fill="#fff" d="M14.013 13.098h1.723v5.792h-1.723v-5.792z"></path>
<path fill="#fff" d="M12.124 15.784h1.094v3.105h-1.094v-3.105z"></path>
<path fill="#fff" d="M10.5 17.11h0.928v1.779h-0.928v-1.779z"></path>
<path fill="#fff" d="M9.141 17.775h0.729v1.114h-0.729v-1.114z"></path>
<path fill="#fff" d="M7.914 18.191h0.663v0.698h-0.663v-0.698z"></path>
<path fill="#0179d3" d="M2.148 5.282h21.477v2.901h-21.477v-2.901z"></path>
<path fill="#0179d3" d="M4.615 3.554c0 0.293-0.226 0.53-0.504 0.53s-0.504-0.237-0.504-0.53c0-0.293 0.226-0.53 0.504-0.53s0.504 0.237 0.504 0.53z"></path>
<path fill="#0179d3" d="M6.197 3.566c0 0.293-0.226 0.53-0.504 0.53s-0.504-0.237-0.504-0.53c0-0.293 0.226-0.53 0.504-0.53s0.504 0.237 0.504 0.53z"></path>
<path fill="#0179d3" d="M7.767 3.541c0 0.293-0.226 0.53-0.504 0.53s-0.504-0.237-0.504-0.53c0-0.293 0.226-0.53 0.504-0.53s0.504 0.237 0.504 0.53z"></path>
</svg>
