<!-- Generated by IcoMoon.io -->
<svg version="1.1" xmlns="http://www.w3.org/2000/svg" width="24" height="32" viewBox="0 0 24 32">
<title>Azure-Batch-Account</title>
<path fill="#59b4d9" d="M11.345 13.626h-9.345v7.863c0 0.123 0.046 0.247 0.127 0.339l-0.004 0.004c0.014 0.011 0.028 0.028 0.042 0.035 0.085 0.081 0.194 0.134 0.328 0.134h9.712c0.247 0 0.494-0.212 0.494-0.515v-7.86h-1.355z"></path>
<path fill="#fff" d="M4.052 6.533h6.678v0.642h-6.678v-0.642zM4.052 8.625h6.678v0.642h-6.678v-0.642zM4.052 10.721h6.678v0.642h-6.678v-0.642z"></path>
<path fill="#57a300" d="M17.572 10.336c0 0 0.494-3.803-2.865-4.53 0 0-0.286-0.042-0.656-0.042-0.409 0-0.572 0.127-0.572 0.127v1.542c0 0 0.12-0.127 0.653-0.127 0.332 0 0.575 0.042 0.698 0.042 0.78 0.254 1.517 0.854 1.351 2.949h-1.432l2.251 2.903 2.215-2.903h-1.644v0.039z"></path>
<path fill="#59b4d9" d="M20.446 15.21h-0.286v4.868h-4.674v0.388c0 0.173 0.039 0.3 0.205 0.3h4.837c0.166 0 0.286-0.127 0.286-0.3v-4.957c0-0.173-0.205-0.3-0.367-0.3z"></path>
<path fill="#59b4d9" d="M6.96 16.448h-0.286v4.83c0 0.039-0.042 0.039-0.042 0.039h-4.632v0.385c0 0.173 0.039 0.3 0.205 0.3h4.755c0.201 0 0.367-0.173 0.367-0.385v-4.868c0-0.169-0.205-0.3-0.367-0.3z"></path>
<path fill="#3999c6" d="M3.355 11.53h9.342v-2.268c0-0.254-0.201-0.512-0.494-0.512h-9.708c-0.247 0-0.494 0.212-0.494 0.512v2.268h1.355zM19.173 20.589h-4.755c-0.166 0-0.286 0.127-0.286 0.3v1.111h5.323v-1.111c0.007-0.173-0.12-0.3-0.282-0.3z"></path>
<path fill="#59b4d9" d="M18.805 15.21h-4.671v3.888c0 0.173 0.12 0.3 0.286 0.3h4.755c0.166 0 0.286-0.127 0.286-0.3v-3.888h-0.656z"></path>
<path fill="#fff" d="M15.361 15.893h2.664v0.682h-2.664v-0.682z"></path>
<path fill="#fff" opacity="0.2" d="M11.352 4.78h-9.345v7.863c0 0.127 0.049 0.258 0.141 0.356 0.085 0.095 10.555-8.22 10.555-8.22h-1.351zM19.463 15.209h-5.327v3.87c0 0-0.014 0.134 0.067 0.219l5.26-4.089z"></path>
</svg>
