<!-- Generated by IcoMoon.io -->
<svg version="1.1" xmlns="http://www.w3.org/2000/svg" width="25" height="32" viewBox="0 0 25 32">
<title>Azure-Active-Directory-Identity-Secure-Score</title>
<path fill="#ff8c00" d="M19.128 5.969h-13.375c-1.401 0-2.171 1.553-1.454 2.72 0.717 1.164 1.526 3.424 1.526 3.424 0.273 0.74 1.194 1.237 2.010 1.237h9.207c0.819 0 1.74-0.497 2.010-1.237 0 0 0.813-2.26 1.53-3.424 0.717-1.168-0.053-2.72-1.454-2.72zM19.598 8.075c-0.77 1.253-1.595 3.546-1.632 3.645-0.102 0.276-0.395 0.467-0.73 0.467h-9.592c-0.336 0-0.632-0.191-0.734-0.474-0.033-0.092-0.859-2.385-1.628-3.638-0.062-0.097-0.099-0.216-0.099-0.344 0-0.114 0.029-0.221 0.081-0.314l-0.002 0.003c0.072-0.132 0.214-0.286 0.49-0.286h13.375c0.276 0 0.418 0.155 0.49 0.286 0.043 0.076 0.168 0.352-0.020 0.655z"></path>
<path fill="#dd5900" opacity="0.6" d="M19.128 5.969h-5.918v1.164h5.918c0.273 0 0.418 0.155 0.49 0.286 0.043 0.076 0.168 0.352-0.020 0.655-0.773 1.253-1.599 3.546-1.632 3.645-0.102 0.276-0.395 0.467-0.73 0.467h-4.026v1.164h3.832c0.819 0 1.74-0.497 2.010-1.237 0 0 0.813-2.26 1.53-3.424 0.717-1.168-0.053-2.72-1.454-2.72z"></path>
<path fill="#fcd116" d="M10.899 14.905h3.081v4.274h-3.081v-4.274z"></path>
<path fill="#dd5900" opacity="0.4" d="M12.44 14.905h1.541v4.274h-1.541v-4.274z"></path>
<path fill="#ff8c00" d="M13.641 22.192l-0.714-2.513c-0.23-0.536-0.424-0.888-1.039-0.888h-6.454c-0.615 0-0.813 0.352-1.039 0.888l-0.714 2.513c-0.099 0.23 0.082 0.484 0.349 0.484h9.26c0.266 0 0.451-0.253 0.352-0.484z"></path>
<path fill="#dd5900" opacity="0.6" d="M8.562 22.192l-0.714-2.513c-0.227-0.536-0.424-0.888-1.039-0.888h-3.227v3.885h4.632c0.263 0 0.447-0.253 0.349-0.484z"></path>
<path fill="#dd5900" opacity="0.4" d="M10.899 16.028c0.47 0.273 0.993 0.431 1.539 0.431 0.549 0 1.072-0.158 1.543-0.428v-1.128h-3.082v1.125z"></path>
<path fill="#fcd116" d="M17.237 4.028h-9.622c-0.664 0-0.628 0.77-0.474 0.947 0.158 0.181 1.286 1.605 1.286 6.714 0 2.191 1.852 3.993 3.997 3.993 2.168 0 4-1.806 4-3.993 0-5.109 1.086-6.513 1.283-6.714 0.197-0.197 0.234-0.947-0.47-0.947z"></path>
<path fill="#dd5900" opacity="0.3" d="M12.44 15.681c2.158-0.010 3.984-1.809 3.984-3.993 0-5.109 1.089-6.513 1.286-6.711 0.194-0.201 0.234-0.951-0.474-0.951h-4.796v11.655z"></path>
</svg>
