<!-- Generated by IcoMoon.io -->
<svg version="1.1" xmlns="http://www.w3.org/2000/svg" width="24" height="32" viewBox="0 0 24 32">
<title>Azure-Pipelines</title>
<path fill="#235dc1" d="M8.897 19.267l2.709 2.713h4.399c0.536 0 0.967-0.437 0.967-0.97v-10.171l-8.075 8.089c-0.095 0.092-0.095 0.243 0 0.339z"></path>
<path fill="#3b6ec6" d="M2 14.786v4.406l2.709 2.713c0.095 0.095 0.247 0.095 0.335 0l8.079-8.093h-10.156c-0.529 0-0.967 0.437-0.967 0.974z"></path>
<path fill="#5d8de4" d="M12.167 3.022l-6.523 9.994c-0.219 0.342-0.173 0.787 0.113 1.072l4.177 4.184c0.286 0.286 0.737 0.332 1.072 0.109l9.977-6.533c0.635-0.416 1.016-1.129 1.016-1.887v-6.967c0-0.547-0.445-0.995-0.991-0.995h-6.953c-0.758 0-1.468 0.388-1.887 1.023z"></path>
<path fill="#9fbbf0" d="M3.468 20.607v-3.531h-1.468v4.925h4.995v-1.393h-3.528z"></path>
<path fill="#adc5f2" d="M16.994 9.404c1.372 0 2.484-1.115 2.484-2.487 0-1.376-1.111-2.491-2.484-2.491s-2.484 1.115-2.484 2.491c0 1.372 1.111 2.487 2.484 2.487z"></path>
<path fill="#6c9aee" d="M12.548 10.249l-5.313 5.32 1.224 1.228 5.313-5.32-1.224-1.228z"></path>
<path fill="#88acef" d="M7.402 17.856l1.058-1.058-1.228-1.228-1.055 1.058 1.224 1.228z"></path>
</svg>
