<!-- Generated by IcoMoon.io -->
<svg version="1.1" xmlns="http://www.w3.org/2000/svg" width="25" height="32" viewBox="0 0 25 32">
<title>Azure-Active-Directory-B2C</title>
<path fill="#804998" d="M19.129 12.923c0 4.816-3.819 8.721-8.529 8.721s-8.529-3.904-8.529-8.721c0-4.816 3.819-8.721 8.529-8.721s8.529 3.904 8.529 8.721z"></path>
<path fill="#59b4d9" d="M17.081 13.649c-0.077 0.040-0.113 0.040-0.23 0.077v4.059c0.117 0.040 0.27 0.117 0.387 0.237l1.772-1.458c-0.040-0.080-0.040-0.237-0.040-0.354 0-0.121 0.040-0.318 0.077-0.435l-1.965-2.126zM14.155 15.775c0.077 0.117 0.117 0.314 0.117 0.471 0 0.121-0.040 0.278-0.077 0.395l1.772 1.458c0.077-0.077 0.23-0.157 0.343-0.237v-4.136c-0.077-0.037-0.113-0.037-0.153-0.077l-2.002 2.126z"></path>
<path fill="#fff" d="M12.829 7.261c0 1.262-1 2.284-2.234 2.284s-2.234-1.023-2.234-2.284c0-1.262 1-2.284 2.234-2.284s2.234 1.023 2.234 2.284z"></path>
<path fill="#804998" d="M12.173 7.282c0 0.886-0.703 1.605-1.57 1.605s-1.57-0.719-1.57-1.605c0-0.886 0.703-1.605 1.57-1.605s1.57 0.718 1.57 1.605z"></path>
<path fill="#fff" d="M14.021 12.398c0 1.897-1.504 3.435-3.359 3.435s-3.359-1.538-3.359-3.435c0-1.897 1.504-3.435 3.359-3.435s3.359 1.538 3.359 3.435z"></path>
<path fill="#804998" d="M13.319 12.435c0 1.512-1.199 2.738-2.678 2.738s-2.678-1.226-2.678-2.738c0-1.512 1.199-2.738 2.678-2.738s2.678 1.226 2.678 2.738z"></path>
<path fill="#804998" d="M6.264 14.964c0 0 0 0 0 0 0 0.693 0.549 1.256 1.227 1.256h6.317c0.678-0.001 1.228-0.563 1.228-1.256 0-0 0-0 0-0v0-1.414c0-0 0-0 0-0 0-0.693-0.549-1.256-1.227-1.256h-6.317c-0.678 0.001-1.228 0.563-1.228 1.256 0 0 0 0 0 0v-0 1.414z"></path>
<path fill="#fff" d="M16.683 21.578l5.333-5.571-5.458-5.689-5.333 5.571 5.458 5.689z"></path>
<path fill="#59b4d9" d="M17.081 13.649c-0.077 0.040-0.113 0.040-0.23 0.077v4.059c0.117 0.040 0.27 0.117 0.387 0.237l1.772-1.458c-0.040-0.080-0.040-0.237-0.040-0.354 0-0.121 0.040-0.318 0.077-0.435l-1.965-2.126zM14.155 15.775c0.077 0.117 0.117 0.314 0.117 0.471 0 0.121-0.040 0.278-0.077 0.395l1.772 1.458c0.077-0.077 0.23-0.157 0.343-0.237v-4.136c-0.077-0.037-0.113-0.037-0.153-0.077l-2.002 2.126z"></path>
<path fill="#59b4d9" d="M8.234 9.040l-6.163 7.486 6.163 5.118 6.163-5.118-6.163-7.486zM11.585 17.271c-0.23 0-0.424-0.077-0.614-0.234l-1.772 1.494c0.037 0.080 0.037 0.161 0.037 0.278 0 0.552-0.424 1.023-1.001 1.023s-1.001-0.431-1.001-1.023c0-0.080 0-0.157 0.037-0.237l-1.885-1.498c-0.153 0.121-0.347 0.161-0.541 0.161-0.537 0-1.001-0.435-1.001-1.027 0-0.552 0.424-1.023 1.001-1.023 0.153 0 0.311 0.040 0.464 0.117l1.962-2.203c-0.037-0.121-0.077-0.278-0.077-0.435 0-0.552 0.424-1.023 1.005-1.023 0.577 0 1.001 0.431 1.001 1.023 0 0.157-0.040 0.354-0.117 0.471l1.925 2.207c0.153-0.077 0.347-0.117 0.501-0.117 0.541 0 1.001 0.431 1.001 1.023 0.040 0.592-0.424 1.023-0.924 1.023z"></path>
</svg>
