<!-- Generated by IcoMoon.io -->
<svg version="1.1" xmlns="http://www.w3.org/2000/svg" width="24" height="32" viewBox="0 0 24 32">
<title>Azure-Lighthouse-My-Request</title>
<path fill="#ff8c00" d="M15.536 19.956h-10.944c-0.312-0-0.566-0.261-0.566-0.582v-13.599c0-0.322 0.253-0.582 0.566-0.582h10.944c0.001 0 0.002 0 0.003 0 0.312 0 0.566 0.261 0.566 0.582v13.599c-0 0.322-0.254 0.582-0.566 0.582-0.001 0-0.002 0-0.003 0h0z"></path>
<path fill="#000" opacity="0.4" d="M15.536 19.956h-10.944c-0.312-0-0.566-0.261-0.566-0.582v-13.599c0-0.322 0.253-0.582 0.566-0.582h10.944c0.001 0 0.002 0 0.003 0 0.312 0 0.566 0.261 0.566 0.582v13.599c-0 0.322-0.254 0.582-0.566 0.582-0.001 0-0.002 0-0.003 0h0z"></path>
<path fill="#fff" d="M5.159 6.357h9.813v12.433h-9.813v-12.433z"></path>
<path fill="#a0a1a2" d="M13.085 7.135h-6.040v-1.865c0-0 0-0 0-0 0-0.686 0.54-1.243 1.207-1.243h3.625c0.667 0 1.207 0.557 1.207 1.243 0 0 0 0 0 0v0 1.865z"></path>
<path fill="#fff" opacity="0.2" d="M10.065 4.026h-1.813c-0.667 0-1.207 0.557-1.207 1.243 0 0 0 0 0 0v0 1.865h3.020v-3.109z"></path>
<path fill="#59b4d9" d="M9.31 9.466h4.151v0.776h-4.151v-0.776zM9.31 12.574h4.151v0.776h-4.151v-0.776zM9.31 15.683h4.151v0.776h-4.151v-0.776z"></path>
<path fill="#fff" opacity="0.4" d="M14.595 16.847h-1.888v3.109h2.832c0.312-0 0.566-0.261 0.566-0.582v-3.382c-0.842-0.181-1.474-0.947-1.474-1.865 0-0.914 0.632-1.681 1.474-1.862v-0.786c-1.26 0.188-2.227 1.303-2.227 2.648 0 0.766 0.313 1.454 0.813 1.944h-0.095v0.776z"></path>
<path fill="#3999c6" d="M9.651 14.13c-0.001 1.265-0.998 2.291-2.227 2.291s-2.227-1.026-2.227-2.293c0-0.001 0-0.001 0-0.002v0c0.001-1.265 0.998-2.291 2.227-2.291s2.227 1.026 2.227 2.293c0 0.001 0 0.001 0 0.002v-0zM8.813 17.235l-1.388 2.207-1.391-2.207h-2.007v5.441h6.793v-5.441h-2.007z"></path>
<path fill="#59b4d9" d="M6.291 9.078h1.888v1.941h-1.888v-1.941zM6.291 12.187h1.888v1.941h-1.888v-1.941zM6.291 15.292h1.888v1.944h-1.888v-1.944z"></path>
<path fill="#fff" d="M6.763 9.563h0.944v0.97h-0.944v-0.97zM6.763 12.672h0.944v0.97h-0.944v-0.97zM6.763 15.78h0.944v0.97h-0.944v-0.97z"></path>
</svg>
