<!-- Generated by IcoMoon.io -->
<svg version="1.1" xmlns="http://www.w3.org/2000/svg" width="27" height="32" viewBox="0 0 27 32">
<title>Azure-Active-Directory-Privileged-Identity-Management</title>
<path fill="#804998" d="M22.423 13.278c0 5.051-4.095 9.145-9.142 9.145-5.051 0-9.145-4.095-9.145-9.145 0-5.047 4.095-9.142 9.145-9.142 5.047 0 9.142 4.095 9.142 9.142z"></path>
<path fill="#fff" opacity="0.15" d="M8.899 20.869c-4.193-2.419-5.628-7.781-3.21-11.97 2.419-4.193 7.781-5.628 11.97-3.21l-8.76 15.179z"></path>
<path fill="#fff" d="M18.255 14.826l-0.807-0.807-3.527 3.527c-0.020-0.010-0.044-0.020-0.068-0.027v-5.382h-1.145v5.378c-0.024 0.010-0.047 0.020-0.071 0.030l-2.48-2.483c0.088-0.196 0.139-0.412 0.139-0.642-0.002-0.876-0.712-1.586-1.588-1.588h-0c-0.875 0.003-1.588 0.716-1.588 1.591s0.713 1.584 1.588 1.584v0c0.001 0 0.003 0 0.004 0 0.231 0 0.45-0.050 0.648-0.139l-0.010 0.004 2.48 2.48c-0.087 0.189-0.138 0.409-0.139 0.642v0c0.001 0.876 0.711 1.587 1.588 1.588h0.004c0.875-0.003 1.583-0.713 1.585-1.588v-0c0-0.23-0.051-0.446-0.135-0.642l3.524-3.527zM8.707 14.357c0.017 0 0.034 0.010 0.044 0.020l-0.088 0.091c-0.011-0.012-0.019-0.028-0.019-0.045v-0c-0.002-0.032 0.032-0.066 0.063-0.066zM13.278 19.060c-0.018-0-0.033-0.007-0.045-0.019v0l0.045-0.046 0.047 0.044c-0.012 0.011-0.028 0.019-0.045 0.019h-0z"></path>
<path fill="#57a300" d="M14.105 18.995c-0.001 0.455-0.37 0.824-0.826 0.824s-0.826-0.37-0.826-0.826 0.37-0.826 0.826-0.826c0.001 0 0.001 0 0.002 0h-0c0.456 0 0.824 0.372 0.824 0.828z"></path>
<path fill="#fff" d="M17.851 16.011c-0.875 0-1.588-0.713-1.588-1.588s0.713-1.588 1.588-1.588c0.876 0.002 1.586 0.712 1.588 1.588v0c-0.001 0.875-0.709 1.585-1.584 1.588h-0.004zM17.851 14.359c-0.030 0-0.064 0.034-0.064 0.064 0 0 0 0 0 0 0 0.035 0.029 0.064 0.064 0.064s0.064-0.029 0.064-0.064c0-0.035-0.029-0.064-0.064-0.064v0z"></path>
<path fill="#57a300" d="M18.678 14.423c-0.001 0.455-0.37 0.824-0.826 0.824s-0.826-0.37-0.826-0.826c0-0.456 0.369-0.825 0.824-0.826h0.003c0.456 0 0.824 0.372 0.824 0.828zM9.532 14.423c-0.001 0.455-0.37 0.824-0.826 0.824s-0.826-0.37-0.826-0.826 0.37-0.826 0.826-0.826c0.001 0 0.001 0 0.002 0h-0c0.456 0 0.824 0.372 0.824 0.828z"></path>
<path fill="#804998" d="M15.174 9.43c0 1.034-0.834 1.868-1.865 1.868-1.034 0-1.868-0.834-1.868-1.868 0-1.030 0.834-1.865 1.868-1.865 1.030 0 1.865 0.834 1.865 1.865z"></path>
<path fill="#fff" d="M13.308 6.421c-1.662 0-3.010 1.348-3.010 3.010s1.348 3.010 3.010 3.010c1.662 0 3.010-1.348 3.010-3.010s-1.348-3.010-3.010-3.010zM13.308 11.3c-0.001 0-0.001 0-0.002 0-1.031 0-1.867-0.836-1.867-1.867 0-0.001 0-0.001 0-0.002v0c0-1.030 0.838-1.868 1.868-1.868s1.868 0.838 1.868 1.868c0 1.030-0.838 1.868-1.868 1.868z"></path>
<path fill="#fff" opacity="0.5" d="M9.858 14.080l2.578-2.578c-0.367-0.159-0.673-0.4-0.905-0.701l-0.004-0.005-2.476 2.476c0.389 0.119 0.688 0.419 0.805 0.799l0.002 0.009zM16.716 14.080l-2.578-2.578c0.369-0.159 0.676-0.4 0.908-0.701l0.004-0.005 2.473 2.476c-0.389 0.119-0.688 0.419-0.805 0.799l-0.002 0.009z"></path>
</svg>
