<!-- Generated by IcoMoon.io -->
<svg version="1.1" xmlns="http://www.w3.org/2000/svg" width="35" height="32" viewBox="0 0 35 32">
<title>Azure-Arc-Service</title>
<path fill="#4bc8ef" d="M2.896 17.523l1.941-1.226v-12.969l-1.936 1.16-0.005 13.036z"></path>
<path fill="#96d8ec" d="M27.167 2.791v13.061l2.748 1.67v-13.041l-2.748-1.691z"></path>
<path fill="#74cfeb" d="M29.917 4.485l1.936-1.16-2.789-1.732-1.9 1.195 2.753 1.696z"></path>
<path fill="#2f76bc" d="M4.837 4.482l-1.941-1.154v12.969l1.941 1.226v-13.041z"></path>
<path fill="#1d4b7a" d="M4.834 4.482v13.041l2.748-1.67v-13.061l-2.748 1.691z"></path>
<path fill="#509ed7" d="M7.583 2.792l-1.895-1.195-2.789 1.732 1.941 1.16 2.743-1.696z"></path>
<path fill="#000" d="M17.43 8.643c-1.905 0-3.678-0.194-5.272-0.572-1.282-0.301-2.452-0.725-3.479-1.251-1.752-0.909-2.477-1.803-2.503-1.839-0.036-0.041-0.026-0.107 0.015-0.143 0.046-0.031 0.107-0.026 0.143 0.020 0.005 0.005 0.736 0.904 2.452 1.788 1.011 0.521 2.166 0.935 3.428 1.231 1.578 0.368 3.33 0.562 5.215 0.562s3.632-0.194 5.205-0.567c1.257-0.296 2.396-0.71 3.392-1.236 1.686-0.884 2.375-1.772 2.385-1.783 0.036-0.041 0.097-0.051 0.143-0.020 0.041 0.036 0.051 0.097 0.020 0.143-0.031 0.036-0.725 0.935-2.457 1.839-1.011 0.531-2.166 0.95-3.433 1.251-1.589 0.383-3.356 0.577-5.256 0.577z"></path>
<path fill="#000" d="M17.428 9.045c-2.375 0-5.818-0.225-8.735-1.272-1.752-0.633-2.477-1.257-2.503-1.282-0.041-0.041-0.046-0.102-0.010-0.143 0.041-0.041 0.102-0.041 0.143-0.010 0.005 0.010 0.736 0.633 2.457 1.251 2.886 1.037 6.298 1.251 8.653 1.251s5.762-0.22 8.607-1.257c1.691-0.618 2.38-1.236 2.391-1.241 0.041-0.036 0.107-0.036 0.143 0.010 0.036 0.041 0.031 0.102-0.005 0.138-0.031 0.026-0.725 0.654-2.457 1.282-1.006 0.368-2.166 0.664-3.433 0.873-1.584 0.266-3.351 0.398-5.251 0.398z"></path>
<path fill="#000" d="M17.427 9.448c-2.375 0-5.808-0.128-8.72-0.736-1.752-0.363-2.472-0.725-2.498-0.741-0.051-0.026-0.072-0.087-0.046-0.138 0.026-0.046 0.087-0.066 0.138-0.041 0.005 0 0.736 0.368 2.462 0.725 2.891 0.603 6.303 0.73 8.663 0.73s5.762-0.128 8.607-0.73c1.701-0.358 2.406-0.72 2.411-0.725 0.046-0.031 0.107-0.010 0.138 0.036 0.031 0.051 0.010 0.112-0.036 0.138-0.005 0-0.005 0.005-0.005 0.005-0.031 0.015-0.725 0.378-2.447 0.741-2.866 0.608-6.293 0.736-8.668 0.736z"></path>
<path fill="#000" d="M17.428 9.851c-8.219 0-11.166-0.71-11.197-0.72-0.056-0.015-0.087-0.072-0.072-0.123 0.015-0.056 0.066-0.087 0.123-0.072 0.026 0.005 2.958 0.715 11.146 0.715 8.183 0 11.013-0.705 11.039-0.715 0.056-0.010 0.112 0.026 0.123 0.077s-0.020 0.107-0.072 0.117c-0.026 0.005-2.871 0.72-11.090 0.72z"></path>
<path fill="#000" d="M28.432 10.253h-22.174c-0.056 0-0.102-0.046-0.102-0.102s0.046-0.102 0.102-0.102h22.179c0.056 0 0.102 0.046 0.102 0.102s-0.046 0.102-0.107 0.102z"></path>
<path fill="#000" d="M28.495 15.48c-0.031 0-0.061-0.010-0.082-0.041-0.005-0.005-0.705-0.904-2.401-1.788-0.996-0.521-2.135-0.935-3.387-1.231-1.568-0.368-3.315-0.557-5.195-0.557s-3.637 0.189-5.215 0.557c-1.257 0.296-2.411 0.71-3.422 1.231-1.721 0.889-2.447 1.783-2.452 1.788-0.036 0.046-0.097 0.056-0.143 0.020-0.041-0.036-0.051-0.097-0.015-0.143 0.026-0.036 0.751-0.93 2.503-1.834 1.027-0.531 2.196-0.955 3.479-1.257 1.594-0.378 3.366-0.567 5.272-0.567 1.9 0 3.668 0.189 5.251 0.567 1.267 0.301 2.426 0.725 3.438 1.257 1.727 0.904 2.426 1.798 2.452 1.834 0.036 0.046 0.026 0.107-0.020 0.143-0.020 0.015-0.041 0.020-0.061 0.020z"></path>
<path fill="#000" d="M28.491 13.985c-0.026 0-0.046-0.005-0.066-0.026-0.005-0.005-0.71-0.633-2.406-1.251-2.84-1.032-6.242-1.251-8.592-1.251-2.355 0-5.767 0.22-8.653 1.251-1.721 0.618-2.452 1.246-2.457 1.251-0.041 0.041-0.102 0.036-0.143-0.005-0.036-0.041-0.031-0.102 0.010-0.138v-0.005c0.031-0.026 0.756-0.654 2.508-1.282 1.609-0.577 4.429-1.272 8.735-1.272 1.895 0 3.663 0.133 5.246 0.398 1.267 0.209 2.421 0.501 3.433 0.873 1.727 0.633 2.426 1.257 2.457 1.287 0.036 0.036 0.041 0.097 0.005 0.138-0.020 0.020-0.046 0.031-0.077 0.031z"></path>
<path fill="#000" d="M6.258 12.521c-0.056 0-0.102-0.046-0.102-0.102 0-0.036 0.020-0.072 0.056-0.087 0.026-0.015 0.751-0.378 2.498-0.746 2.906-0.603 6.349-0.73 8.72-0.73 2.375 0 5.803 0.128 8.668 0.73 1.721 0.368 2.416 0.73 2.447 0.746 0.046 0.026 0.066 0.082 0.046 0.133-0.026 0.051-0.087 0.072-0.138 0.046 0 0 0 0-0.005 0-0.005-0.005-0.71-0.373-2.411-0.73-2.845-0.603-6.252-0.725-8.607-0.725-2.36 0-5.782 0.123-8.679 0.73-1.721 0.358-2.437 0.715-2.447 0.725-0.015 0.005-0.031 0.010-0.046 0.010z"></path>
<path fill="#000" d="M6.258 11.37c-0.056 0-0.102-0.046-0.102-0.102 0-0.046 0.031-0.087 0.077-0.097 0.026-0.005 2.978-0.72 11.197-0.72 8.214 0 11.064 0.715 11.090 0.72 0.056 0.015 0.087 0.072 0.066 0.128-0.015 0.051-0.066 0.082-0.117 0.066-0.031-0.005-2.855-0.71-11.039-0.71-8.188 0-11.12 0.705-11.151 0.71-0.005 0-0.010 0.005-0.020 0.005z"></path>
</svg>
