<!-- Generated by IcoMoon.io -->
<svg version="1.1" xmlns="http://www.w3.org/2000/svg" width="24" height="32" viewBox="0 0 24 32">
<title>Azure-Active-Directory-Risky-User</title>
<path fill="#59b4d9" d="M13.593 6.107c0 0.011 0 0.024 0 0.037 0 2.275-1.842 4.122-4.122 4.143h-0.002c-0.011 0-0.024 0-0.037 0-2.285 0-4.14-1.834-4.161-4.105v-0.002c-0-0.011-0-0.024-0-0.037 0-2.275 1.842-4.122 4.122-4.143h0.037c0.006-0 0.013-0 0.020-0 2.282 0 4.132 1.836 4.143 4.105v0.001z"></path>
<path fill="#ff8c00" d="M21.956 20.651l-2.113-3.542-2.11-3.655c-0.131-0.24-0.379-0.403-0.665-0.413l-0.001-0c-0.289 0.011-0.536 0.175-0.665 0.412l-0.002 0.004-2.113 3.429-2.113 3.764c-0.086 0.123-0.138 0.276-0.138 0.441 0 0.429 0.349 0.776 0.78 0.776 0.009 0 0.018-0 0.027-0l-0.001 0h8.449c0.008 0 0.016 0 0.025 0 0.431 0 0.78-0.348 0.78-0.776 0-0.165-0.052-0.318-0.14-0.444l0.002 0.003zM17.176 15.67h0.557l-0.222 3.21h-0.889l-0.113-3.21h0.667zM17.066 20.539c-0.368-0-0.666-0.297-0.667-0.663v-0c0-0.366 0.299-0.663 0.667-0.663v0c0.368 0 0.666 0.297 0.667 0.663v0c-0 0.366-0.299 0.663-0.667 0.663v0z"></path>
<path fill="#59b4d9" d="M11.416 21.895c-0.131-0.227-0.209-0.5-0.209-0.79 0-0.014 0-0.027 0.001-0.041l-0 0.002c0.008-0.308 0.096-0.594 0.244-0.84l-0.004 0.008 2.124-3.782 2.113-3.429c0.249-0.423 0.672-0.722 1.169-0.8l0.009-0.001v-0.596h-4.389l-3.041 4.205-3.044-4.205h-4.389v10.375h9.483c-0.021-0.035-0.046-0.067-0.067-0.106z"></path>
</svg>
