<!-- Generated by IcoMoon.io -->
<svg version="1.1" xmlns="http://www.w3.org/2000/svg" width="35" height="32" viewBox="0 0 35 32">
<title>Azure-Netapp-Files</title>
<path fill="#000" d="M9.598 12.989h16.004v8.878c-0 0.295-0.24 0.533-0.536 0.534h-14.931c-0.296-0-0.536-0.239-0.536-0.534v-8.878z"></path>
<path fill="#198ab3" d="M10.135 9.597h14.931c0.296 0 0.536 0.239 0.536 0.534 0 0.001 0 0.002 0 0.003v-0 2.854h-16.004v-2.865c0.005-0.291 0.243-0.525 0.536-0.525v0z"></path>
<path fill="#fff" d="M11.774 14.020h11.636c0.14 0 0.254 0.113 0.254 0.253v0l-0 1.311c0 0.14-0.114 0.253-0.254 0.253v0l-11.636-0.002c-0.136-0.005-0.245-0.116-0.245-0.253 0-0 0-0 0-0v0l-0.001-1.311c0-0 0-0 0-0 0-0.136 0.108-0.248 0.244-0.253h0z"></path>
<path fill="#9cebff" d="M11.783 16.633h11.636c0.14 0 0.254 0.113 0.254 0.253v0l-0 1.32c0 0.14-0.114 0.253-0.254 0.253v0l-11.636 0.001c-0 0-0 0-0 0-0.135 0-0.245-0.109-0.245-0.244 0-0.003 0-0.007 0-0.010v0l-0.001-1.274c-0.004-0.017-0.007-0.036-0.007-0.056 0-0.134 0.11-0.244 0.245-0.244 0.002 0 0.005 0 0.007 0h-0zM11.783 19.272h11.636c0.14 0 0.254 0.113 0.254 0.253v0l-0 1.322c0 0.14-0.114 0.253-0.254 0.253v0l-11.636-0.002c-0 0-0 0-0 0-0.135 0-0.245-0.109-0.245-0.244 0-0.003 0-0.007 0-0.010v0l-0.001-1.32c-0-0.003-0-0.006-0-0.009 0-0.134 0.11-0.244 0.245-0.244 0 0 0 0 0 0v0z"></path>
<path fill="#0078d4" d="M13.938 14.928v5.237c0 0.145 0.118 0.262 0.264 0.262v0l2.212-0.003c0.137-0.010 0.245-0.123 0.245-0.262 0-0 0-0 0-0.001v0l0.001-3.108c-0-0.003-0-0.006-0-0.010 0-0.14 0.114-0.253 0.254-0.253 0.003 0 0.007 0 0.010 0l1.325-0c0.003-0 0.006-0 0.010-0 0.14 0 0.254 0.113 0.254 0.253 0 0.003-0 0.007-0 0.010v-0l0.002 3.111c0 0 0 0 0 0 0 0.145 0.118 0.262 0.264 0.262 0.003 0 0.007-0 0.010-0h-0l2.211-0.003c0.146 0 0.264-0.117 0.264-0.262v0l0.002-5.234c0-0.145-0.118-0.262-0.264-0.262v0l-6.8-0c-0.146 0-0.264 0.117-0.264 0.262v0z"></path>
</svg>
