<!-- Generated by IcoMoon.io -->
<svg version="1.1" xmlns="http://www.w3.org/2000/svg" width="20" height="32" viewBox="0 0 20 32">
<title>Azure-Stack-Backup</title>
<path fill="#198ab3" d="M11.739 12.667c-0.055-0.002-0.12-0.003-0.186-0.003-0.786 0-1.542 0.138-2.25 0.392l0.051-0.016c0.661 0.245 1.423 0.387 2.214 0.387 0.060 0 0.12-0.001 0.179-0.002l-0.009 0c0.055 0.002 0.119 0.003 0.183 0.003 0.787 0 1.545-0.142 2.251-0.403l-0.049 0.016c-0.653-0.239-1.404-0.377-2.185-0.377-0.070 0-0.14 0.001-0.21 0.003l0.010-0z"></path>
<path fill="#000" d="M12.243 21.123c0 0 0 0.001 0 0.001 0 0.368-0.273 0.666-0.61 0.666-0.004 0-0.008-0-0.012-0h-9.412c-0.003 0-0.007 0-0.011 0-0.331 0-0.599-0.293-0.599-0.654 0-0.004 0-0.009 0-0.013v0.001-18.468c0.005-0.364 0.276-0.656 0.61-0.656 0 0 0.001 0 0.001 0h9.412c0 0 0 0 0.001 0 0.339 0 0.615 0.297 0.62 0.666v18.458z"></path>
<path fill="#003067" d="M3.183 8.94c0-0 0-0.001 0-0.002 0-0.688 0.504-1.248 1.131-1.261l0.001-0h5.285c0.637 0.001 1.154 0.565 1.154 1.262 0 0 0 0.001 0 0.001v-0c0 0.004 0 0.008 0 0.012 0 0.696-0.516 1.261-1.154 1.262h-5.285c-0.628-0.014-1.132-0.573-1.132-1.261 0-0.004 0-0.008 0-0.013v0.001z"></path>
<path fill="#003067" d="M3.183 5.188c0.001-0.687 0.505-1.246 1.131-1.259l0.001-0h5.285c0.637 0.001 1.152 0.564 1.154 1.259v0c0 0 0 0.001 0 0.001 0 0.696-0.516 1.261-1.153 1.262h-5.285c-0.628-0.014-1.132-0.573-1.132-1.261 0-0.001 0-0.001 0-0.002v0z"></path>
<path fill="#50e6ff" d="M5.151 5.189c0 0.471-0.35 0.853-0.781 0.853s-0.781-0.382-0.781-0.853c0-0.471 0.35-0.853 0.781-0.853s0.781 0.382 0.781 0.853z"></path>
<path fill="#50e6ff" d="M5.151 8.939c0 0.471-0.35 0.853-0.781 0.853s-0.781-0.382-0.781-0.853c0-0.471 0.35-0.853 0.781-0.853s0.781 0.382 0.781 0.853z"></path>
<path fill="#000" d="M14.166 14.779c-1.891 0-3.433-0.617-3.433-1.365v7.232c0 0.734 1.52 1.344 3.39 1.355 1.905 0 3.433-0.607 3.433-1.355v-7.232c0.042 0.748-1.485 1.365-3.39 1.365z"></path>
<path fill="#e6e6e6" d="M17.599 13.412c0 0.748-1.528 1.369-3.433 1.369-1.901 0-3.433-0.621-3.433-1.369s1.542-1.355 3.433-1.355c1.894 0 3.433 0.607 3.433 1.355z"></path>
<path fill="#50e6ff" d="M16.799 13.309c0 0.48-1.178 0.864-2.632 0.864-1.457 0-2.632-0.385-2.632-0.864s1.175-0.864 2.632-0.864c1.453 0 2.632 0.385 2.632 0.864z"></path>
<path fill="#50e6ff" d="M14.607 11.604l2.275-2.491c0.023-0.024 0.037-0.057 0.037-0.094 0-0.071-0.053-0.129-0.118-0.129-0.002 0-0.003 0-0.005 0l-1.325-0c0-3.002-1.464-5.99-4.106-5.99 1.326 1.418 2.148 3.393 2.148 5.578 0 0.145-0.004 0.289-0.011 0.432l0.001-0.020h-1.259c-0.001-0-0.003-0-0.005-0-0.065 0-0.118 0.058-0.118 0.129 0 0.037 0.014 0.070 0.037 0.094l0 0 2.276 2.491c0.023 0.022 0.053 0.036 0.086 0.036s0.063-0.014 0.086-0.036l-0 0z"></path>
</svg>
