<!-- Generated by IcoMoon.io -->
<svg version="1.1" xmlns="http://www.w3.org/2000/svg" width="35" height="32" viewBox="0 0 35 32">
<title>Azure-Cache-For-Redis</title>
<path fill="#000" d="M21.837 11.954c-2.081 0-3.766-0.528-3.766-1.183v6.273c0 0.638 1.657 1.163 3.718 1.172h0.048c2.081 0 3.766-0.525 3.766-1.172v-6.273c0 0.655-1.685 1.183-3.766 1.183z"></path>
<path fill="#e8e8e8" d="M25.603 10.773c0 0.655-1.685 1.18-3.766 1.18s-3.766-0.525-3.766-1.18c0-0.658 1.685-1.174 3.766-1.174s3.766 0.528 3.766 1.174z"></path>
<path fill="#50e6ff" d="M24.728 10.678c0 0.418-1.301 0.748-2.891 0.748-1.592 0-2.891-0.33-2.891-0.748 0-0.415 1.299-0.748 2.891-0.748 1.589 0 2.891 0.333 2.891 0.748z"></path>
<path fill="#32bedd" d="M21.836 10.856c-0.047-0.001-0.102-0.001-0.157-0.001-0.758 0-1.491 0.102-2.187 0.291l0.057-0.013c0.624 0.188 1.341 0.296 2.084 0.296 0.071 0 0.142-0.001 0.213-0.003l-0.010 0c0.061 0.002 0.133 0.003 0.205 0.003 0.743 0 1.46-0.108 2.136-0.31l-0.052 0.013c-0.639-0.177-1.372-0.278-2.13-0.278-0.056 0-0.112 0.001-0.168 0.002l0.008-0z"></path>
<path fill="#000" d="M13.364 11.954c-2.081 0-3.766-0.528-3.766-1.183v6.273c0 0.638 1.657 1.163 3.766 1.172 2.081 0 3.766-0.525 3.766-1.172v-6.273c0 0.655-1.685 1.183-3.766 1.183z"></path>
<path fill="#e8e8e8" d="M17.13 10.773c0 0.655-1.685 1.18-3.766 1.18s-3.766-0.525-3.766-1.18c0-0.658 1.685-1.174 3.766-1.174s3.766 0.528 3.766 1.174z"></path>
<path fill="#50e6ff" d="M16.255 10.678c0 0.418-1.301 0.748-2.891 0.748-1.592 0-2.891-0.33-2.891-0.748 0-0.415 1.299-0.748 2.891-0.748 1.589 0 2.891 0.333 2.891 0.748z"></path>
<path fill="#32bedd" d="M13.363 10.856c-0.047-0.001-0.102-0.001-0.157-0.001-0.758 0-1.491 0.102-2.187 0.291l0.057-0.013c0.624 0.188 1.341 0.296 2.084 0.296 0.071 0 0.142-0.001 0.213-0.003l-0.010 0c0.061 0.002 0.133 0.003 0.205 0.003 0.743 0 1.46-0.108 2.136-0.31l-0.052 0.013c-0.639-0.177-1.372-0.278-2.13-0.278-0.056 0-0.112 0.001-0.168 0.002l0.008-0z"></path>
<path fill="#000" d="M17.601 16.139c-2.081 0-3.766-0.528-3.766-1.183v6.273c0 0.646 1.657 1.163 3.718 1.172h0.048c2.081 0 3.766-0.525 3.766-1.172v-6.273c0 0.655-1.685 1.183-3.766 1.183z"></path>
<path fill="#e8e8e8" d="M21.366 14.957c0 0.655-1.685 1.18-3.766 1.18s-3.766-0.525-3.766-1.18c0-0.658 1.685-1.174 3.766-1.174s3.766 0.528 3.766 1.174z"></path>
<path fill="#50e6ff" d="M20.492 14.863c0 0.418-1.301 0.748-2.891 0.748-1.592 0-2.891-0.33-2.891-0.748 0-0.415 1.299-0.711 2.891-0.711 1.589 0 2.891 0.333 2.891 0.748v-0.037z"></path>
<path fill="#32bedd" d="M17.599 15.077c-0.047-0.001-0.102-0.001-0.157-0.001-0.758 0-1.491 0.102-2.187 0.291l0.057-0.013c0.59 0.167 1.268 0.264 1.968 0.264 0.112 0 0.223-0.002 0.334-0.007l-0.016 0.001c0.061 0.002 0.133 0.003 0.205 0.003 0.743 0 1.46-0.108 2.136-0.31l-0.052 0.013c-0.601-0.156-1.29-0.245-2.001-0.245-0.101 0-0.203 0.002-0.303 0.005l0.015-0z"></path>
</svg>
