<!-- Generated by IcoMoon.io -->
<svg version="1.1" xmlns="http://www.w3.org/2000/svg" width="25" height="32" viewBox="0 0 25 32">
<title>Azure-Lighthouse-My-Audit-History</title>
<path fill="#57a300" d="M17.77 18.428h0.641v-14.401h-13.109c-0.414 0.053-1.276 1.046-1.276 1.191l0.020 13.931c0 0.414 0.339 0.75 0.757 0.75h12.010v-0.23l0.957-1.24z"></path>
<path fill="#1e1e1e" opacity="0.15" d="M17.77 18.428h0.641v-14.401h-13.109c-0.414 0.053-1.276 1.046-1.276 1.191l0.020 13.931c0 0.414 0.339 0.75 0.757 0.75h12.010v-0.23l0.957-1.24z"></path>
<path fill="#e5e5e5" opacity="0.2" d="M6.155 4.025h-0.852c-0.414 0.056-1.276 1.049-1.276 1.191v0.398h12.79v14.049l0.954-1.237h0.641v-14.401h-12.257z"></path>
<path fill="#fff" d="M5.873 4.66c-0.355 0-0.507 0.059-0.803 0.319-0.727 0.635 0.125 0.635 0.477 0.635h11.263v14.053l0.961-1.24v-13.767h-11.898z"></path>
<path fill="#a0a1a2" opacity="0.5" d="M16.812 19.667l0.961-1.24v-13.767l-0.961 0.954v14.053z"></path>
<path fill="#fff" opacity="0.4" d="M16.813 20.010l1.599-1.47v-6.99c-0.35-0.17-0.762-0.269-1.197-0.27h-0c-1.52 0-2.757 1.197-2.757 2.665 0 1.056 0.638 1.967 1.559 2.398v0.467l-0.059-0.086h-2.141c-0.331 0-0.599 0.267-0.599 0.595 0 0 0 0 0 0v0 2.691h3.595z"></path>
<path fill="#3999c6" d="M9.98 13.945c0 1.253-1.056 2.27-2.359 2.27s-2.355-1.016-2.355-2.27c0-1.253 1.053-2.266 2.355-2.266s2.359 1.013 2.359 2.266zM9.095 17.12l-1.474 2.253-1.47-2.253h-2.125v5.556h7.194v-5.556h-2.125z"></path>
<path fill="#fff" d="M9.621 9.183h4.395v0.796h-4.395v-0.796zM9.621 12.357h4.395v0.796h-4.395v-0.796zM9.621 15.532h4.395v0.796h-4.395v-0.796zM6.025 11.963v1.984h1.997v-1.984h-1.997zM7.522 13.45h-0.997v-0.99h0.997v0.99zM6.025 15.137v1.984h1.997v-1.984h-1.997zM7.522 16.624h-0.997v-0.99h0.997v0.99zM7.022 10.361l-1.184-1.191c-0.021-0.021-0.035-0.051-0.035-0.084s0.014-0.063 0.035-0.085v0l0.256-0.25c0.022-0.021 0.051-0.034 0.084-0.034s0.063 0.013 0.085 0.035v0l0.742 0.746 1.141-1.457c0.022-0.028 0.056-0.046 0.095-0.046 0.028 0 0.054 0.010 0.074 0.025l-0-0 0.282 0.218c0.028 0.022 0.046 0.056 0.046 0.094 0 0.028-0.009 0.053-0.025 0.073l0-0-1.524 1.951c-0.009 0.011-0.023 0.018-0.038 0.018-0.013 0-0.026-0.006-0.034-0.014v0z"></path>
</svg>
