<!-- Generated by IcoMoon.io -->
<svg version="1.1" xmlns="http://www.w3.org/2000/svg" width="28" height="32" viewBox="0 0 28 32">
<title>Azure-Database-For-Mysql</title>
<path fill="#000" d="M14.181 12.695c-3.013 0-5.456-0.855-5.456-1.984v10.578c0 1.086 2.399 1.968 5.379 1.984h0.077c3.013 0 5.456-0.855 5.456-1.984v-10.578c0 1.104-2.443 1.984-5.456 1.984z"></path>
<path fill="#e8e8e8" d="M19.637 10.712c0 1.104-2.443 1.984-5.456 1.984s-5.456-0.855-5.456-1.984c0-1.132 2.443-1.986 5.456-1.986s5.456 0.855 5.456 1.986z"></path>
<path fill="#50e6ff" d="M18.37 10.549c0 0.701-1.881 1.265-4.188 1.265s-4.188-0.565-4.188-1.265c0-0.703 1.881-1.258 4.188-1.258s4.188 0.565 4.188 1.258z"></path>
<path fill="#198ab3" d="M14.181 10.865c-0.075-0.002-0.163-0.003-0.251-0.003-1.094 0-2.146 0.18-3.129 0.511l0.069-0.020c0.888 0.297 1.91 0.468 2.971 0.468 0.119 0 0.238-0.002 0.356-0.006l-0.017 0.001c0.084 0.003 0.182 0.004 0.28 0.004 1.084 0 2.126-0.183 3.097-0.52l-0.067 0.020c-0.897-0.291-1.928-0.459-2.999-0.459-0.11 0-0.219 0.002-0.327 0.005l0.016-0z"></path>
<path fill="#f2f2f2" d="M17.28 15.999v1.396h-0.852c-0.099-0.003-0.187-0.049-0.246-0.12l-0-0.001v-1.275h-1.15v1.524c0.012 0.425 0.358 0.765 0.783 0.765 0.024 0 0.049-0.001 0.072-0.003l-0.003 0h1.268l0.221-0.113c0 0-0.092 0.352-0.221 0.37h-2.025v0.855h2.263c0.005 0 0.012 0 0.018 0 0.569 0 1.030-0.464 1.030-1.036 0-0.018-0-0.035-0.001-0.053l0 0.002v-2.312h-1.157zM14.632 15.999v-0.418c0.004-0.027 0.007-0.057 0.007-0.089 0-0.266-0.172-0.491-0.41-0.569l-0.004-0.001c-0.127-0.042-0.273-0.067-0.425-0.069h-0.001c-0.010-0.001-0.023-0.001-0.035-0.001-0.332 0-0.617 0.204-0.738 0.493l-0.002 0.005-0.662 1.627-0.852-1.627c-0.12-0.294-0.402-0.497-0.731-0.498h-0c-0.002 0-0.005-0-0.007-0-0.153 0-0.3 0.028-0.435 0.080l0.008-0.003c-0.298 0.095-0.367 0.293-0.367 0.626v2.833h0.996v-1.909l0.536 1.345c0.143 0.335 0.468 0.565 0.847 0.565 0.002 0 0.004 0 0.005-0h-0c0.375 0 0.526-0.223 0.68-0.565l0.57-1.293v1.84h1.006v-2.371h0.015z"></path>
</svg>
