<!-- Generated by IcoMoon.io -->
<svg version="1.1" xmlns="http://www.w3.org/2000/svg" width="32" height="32" viewBox="0 0 32 32">
<title>Azure-Blockchain-Service</title>
<path fill="#773adc" d="M19.338 10.603v3.757l-3.192 1.876v-3.755l3.192-1.879z"></path>
<path fill="#552f99" d="M17.98 12.481c0.444-0.262 0.808-0.056 0.808 0.457-0.032 0.589-0.343 1.099-0.802 1.4l-0.007 0.004c-0.444 0.262-0.808 0.059-0.808-0.464 0.033-0.587 0.344-1.094 0.801-1.392l0.007-0.004z"></path>
<path fill="#773adc" d="M15.111 17.624v3.757l-3.192 1.876v-3.755l3.192-1.879z"></path>
<path fill="#552f99" d="M13.511 19.691c0.444-0.246 0.808-0.049 0.808 0.465-0.035 0.589-0.345 1.097-0.802 1.4l-0.007 0.004c-0.444 0.262-0.808 0.051-0.808-0.465 0.035-0.589 0.345-1.097 0.802-1.4l0.007-0.004z"></path>
<path fill="#a67af4" d="M11.918 19.503v3.755l-3.192-1.876v-3.757l3.192 1.879z"></path>
<path fill="#773adc" d="M23.274 17.624v3.757l-3.192 1.876v-3.755l3.192-1.879z"></path>
<path fill="#32bedd" d="M18.021 13.705c0.916 0.396 1.611 1.163 1.908 2.108l0.007 0.024 0.162-0.082 0.808 0.472c-0.223-1.504-1.197-2.734-2.518-3.303l-0.028-0.011c-0.053-0.024-0.114-0.039-0.179-0.039-0.241 0-0.437 0.198-0.437 0.441 0 0.188 0.117 0.349 0.281 0.412l0.003 0.001-0.008-0.026z"></path>
<path fill="#a67af4" d="M20.082 19.519v3.755l-3.192-1.876v-3.772l3.192 1.876v0.018z"></path>
<path fill="#552f99" d="M18.586 19.746c-0.421-0.244-0.76-0.038-0.76 0.441 0.030 0.558 0.322 1.040 0.753 1.328l0.006 0.004c0.421 0.244 0.76 0.049 0.76-0.441-0.030-0.558-0.322-1.040-0.753-1.328l-0.006-0.004z"></path>
<path fill="#32bedd" d="M16.161 21.788c-0.007 0-0.015 0-0.023 0-0.954 0-1.837-0.306-2.559-0.825l0.014 0.009c-0.134-0.079-0.222-0.223-0.222-0.389 0-0.248 0.199-0.449 0.445-0.449 0.113 0 0.215 0.042 0.294 0.112l-0.001-0c0.57 0.417 1.283 0.667 2.053 0.667 0.678 0 1.312-0.194 1.85-0.529l-0.015 0.009c0.067-0.042 0.148-0.067 0.235-0.067 0.247 0 0.447 0.202 0.447 0.451 0 0.161-0.084 0.303-0.21 0.383l-0.002 0.001c-0.651 0.395-1.438 0.629-2.278 0.629-0.009 0-0.019-0-0.028-0h0.001z"></path>
<path fill="#b796f9" d="M19.338 10.604l-3.177 1.876-3.2-1.876 3.2-1.879 3.185 1.879h-0.008z"></path>
<path fill="#32bedd" d="M12.96 12.972c-1.076 0.719-1.802 1.896-1.906 3.25l-0.001 0.015 0.906-0.49v0.041c0.173-0.673 0.523-1.247 0.998-1.686l0.003-0.002v-1.127z"></path>
<path fill="#b796f9" d="M23.274 17.626l-3.192 1.876-3.192-1.876 3.192-1.879 3.192 1.879zM15.11 17.626l-3.192 1.876-3.192-1.876 3.192-1.879 3.192 1.879z"></path>
<path fill="#a67af4" d="M16.146 12.482v3.755l-3.185-1.876v-3.757l3.185 1.879z"></path>
</svg>
