<!-- Generated by IcoMoon.io -->
<svg version="1.1" xmlns="http://www.w3.org/2000/svg" width="32" height="32" viewBox="0 0 32 32">
<title>Azure-Migrate</title>
<path fill="#000" d="M19.865 20.093c-0.036-1.098-0.88-1.993-1.968-2.139l-0.012-0.001c-0.068-1.498-1.329-2.688-2.874-2.688-0.031 0-0.062 0-0.093 0.001l0.005-0c-0.009-0-0.020-0-0.031-0-1.262 0-2.339 0.773-2.762 1.86l-0.007 0.020c-1.342 0.157-2.377 1.248-2.407 2.582l-0 0.003c0.081 1.446 1.302 2.59 2.796 2.59 0.021 0 0.042-0 0.063-0.001l-0.003 0h5.024c1.249-0.018 2.256-1.006 2.269-2.226v-0.001z"></path>
<path fill="#000" d="M17.695 20.563c-0.036-1.127-0.9-2.046-2.017-2.199l-0.012-0.001c-0.080-1.527-1.367-2.735-2.943-2.735-0.036 0-0.073 0.001-0.109 0.002l0.005-0c-0.019-0-0.041-0.001-0.063-0.001-1.287 0-2.386 0.783-2.826 1.887l-0.007 0.020c-1.362 0.168-2.411 1.27-2.458 2.62l-0 0.005c0.061 1.485 1.309 2.666 2.839 2.666 0.035 0 0.071-0.001 0.106-0.002l-0.005 0h5.138c1.283-0.008 2.324-1.012 2.351-2.26l0-0.003z"></path>
<path fill="#fff" d="M7.879 19.299h0.596c0.001-0 0.002-0 0.003-0 0.045 0 0.086 0.018 0.116 0.048l0 0 1.399 1.368c0.033 0.030 0.053 0.072 0.053 0.12s-0.020 0.090-0.053 0.12l-0 0-1.902 1.825c-0.030 0.030-0.072 0.048-0.119 0.048-0 0-0 0-0 0l-0.568-0.001c-0.084-0.014-0.147-0.084-0.147-0.169 0-0.046 0.019-0.088 0.049-0.118l-0 0 1.616-1.597c0.032-0.029 0.053-0.070 0.053-0.116s-0.020-0.087-0.052-0.116l-0-0-1.16-1.128c-0.031-0.030-0.049-0.071-0.049-0.116 0-0.091 0.075-0.164 0.168-0.164 0 0 0 0 0 0h-0zM10.282 16.997h0.609c0.047 0.003 0.089 0.023 0.119 0.055l0 0 1.070 1.059c0.031 0.030 0.049 0.071 0.049 0.116s-0.019 0.087-0.049 0.116v0l-1.4 1.305c-0.030 0.030-0.072 0.048-0.119 0.048-0 0-0 0-0 0h0l-0.51 0.001c-0.093-0.004-0.167-0.079-0.167-0.171 0-0.042 0.015-0.080 0.041-0.11l-0 0 1.070-1.053c0.029-0.030 0.047-0.071 0.047-0.116s-0.018-0.086-0.047-0.116l0 0-0.833-0.821c-0.066-0.024-0.112-0.085-0.112-0.157 0-0.093 0.077-0.168 0.172-0.168 0.021 0 0.042 0.004 0.061 0.011l-0.001-0zM11.533 19.73h0.596c0.046 0.003 0.087 0.020 0.119 0.048l-0-0 0.874 0.854c0.029 0.030 0.047 0.071 0.047 0.116s-0.018 0.086-0.047 0.116l0-0-1.267 1.252c-0.029 0.030-0.070 0.048-0.116 0.048-0.001 0-0.002 0-0.003-0h0l-0.574-0.001c-0 0-0 0-0 0-0.093 0-0.168-0.073-0.168-0.164 0-0.045 0.019-0.087 0.049-0.116v0l0.995-0.984c0.029-0.030 0.047-0.071 0.047-0.116s-0.018-0.086-0.047-0.116l0 0-0.622-0.621c-0.032-0.030-0.051-0.072-0.051-0.118 0-0.082 0.061-0.15 0.141-0.162l0.001-0 0.027-0.035z"></path>
</svg>
