<!-- Generated by IcoMoon.io -->
<svg version="1.1" xmlns="http://www.w3.org/2000/svg" width="29" height="32" viewBox="0 0 29 32">
<title>Azure-Stack-Plan</title>
<path fill="#fff" d="M15.469 9.723h-5.339c-0.233 0.001-0.422 0.194-0.422 0.433 0 0 0 0.001 0 0.001v-0 11.686c0 0 0 0.001 0 0.001 0 0.239 0.189 0.432 0.422 0.433h9.193c0.233-0.001 0.422-0.194 0.422-0.433 0-0 0-0.001 0-0.001v0-7.733c-0.001-0.238-0.189-0.431-0.422-0.431h-3.052c-0.229-0-0.415-0.19-0.415-0.424v-3.097c0-0.003 0-0.006 0-0.010 0-0.224-0.17-0.408-0.385-0.424l-0.001-0z"></path>
<path fill="#000" d="M15.239 10.27v2.938c0.001 0.594 0.472 1.075 1.053 1.076h2.888v7.445h-8.91v-11.459h4.968zM15.468 9.633h-5.404c-0.002-0-0.005-0-0.008-0-0.234 0-0.423 0.194-0.423 0.433 0 0 0 0.001 0 0.001v-0 11.868c0 0 0 0.001 0 0.001 0 0.239 0.189 0.433 0.423 0.433 0.003 0 0.006-0 0.008-0h9.325c0.002 0 0.004 0 0.006 0 0.234 0 0.423-0.194 0.423-0.433 0-0 0-0.001 0-0.001v0-7.854c-0.001-0.238-0.19-0.431-0.423-0.431-0.002 0-0.004 0-0.006 0h-3.097c-0.233-0.001-0.422-0.194-0.422-0.433 0-0.003 0-0.005 0-0.008v0-3.142c0-0 0-0.001 0-0.002 0-0.231-0.178-0.42-0.401-0.432l-0.001-0z"></path>
<path fill="#0078d4" d="M19.657 13.724l-3.935-4v3.241c0 0 0 0 0 0 0 0.419 0.332 0.759 0.742 0.759 0 0 0.001 0 0.001 0h3.191z"></path>
<path fill="#83b9f9" d="M17.89 15.612h-4.647c-0.169 0-0.305 0.14-0.305 0.312s0.137 0.312 0.305 0.312h4.676c0.169 0 0.305-0.14 0.305-0.312s-0.137-0.312-0.305-0.312h-0.029zM17.89 17.465h-4.647c-0.014-0.002-0.029-0.003-0.045-0.003-0.168 0-0.304 0.139-0.304 0.311s0.136 0.311 0.304 0.311c0.016 0 0.031-0.001 0.047-0.004l-0.002 0h4.676c0.014 0.002 0.029 0.003 0.045 0.003 0.168 0 0.304-0.139 0.304-0.311s-0.136-0.311-0.304-0.311c-0.016 0-0.032 0.001-0.047 0.004l0.002-0h-0.029zM17.89 19.324h-4.647c-0.166 0.003-0.299 0.141-0.299 0.311s0.133 0.308 0.299 0.311h4.676c0.166-0.003 0.299-0.141 0.299-0.311s-0.133-0.308-0.299-0.311h-0.029z"></path>
<path fill="#0078d4" d="M11.602 16.547v-1.002c-0.041 0.024-0.088 0.042-0.139 0.051l-0.003 0-0.164 0.047v-0.312c0.090-0.028 0.166-0.059 0.239-0.094l-0.010 0.005c0.088-0.028 0.165-0.064 0.235-0.11l-0.004 0.002h0.238v1.413h-0.393zM11.312 18.519v-0.115c-0.004-0.029-0.006-0.063-0.006-0.098s0.002-0.068 0.007-0.102l-0 0.004c0.028-0.068 0.055-0.123 0.085-0.177l-0.004 0.008c0.063-0.073 0.131-0.138 0.205-0.195l0.003-0.003c0.060-0.036 0.111-0.078 0.155-0.127l0-0.001c0 0 0-0.054 0.052-0.067 0.005-0.012 0.008-0.027 0.008-0.042s-0.003-0.029-0.009-0.042l0 0.001c0-0.101-0.052-0.146-0.164-0.146-0.123 0.004-0.235 0.052-0.319 0.131l0-0v-0.341c0.060-0.036 0.13-0.065 0.203-0.084l0.006-0.001c0.031-0.004 0.067-0.006 0.103-0.006s0.072 0.002 0.108 0.006l-0.004-0c0.006-0 0.012-0 0.019-0 0.122 0 0.235 0.043 0.324 0.116l-0.001-0.001c0.079 0.071 0.128 0.175 0.128 0.29 0 0.002-0 0.004-0 0.007v-0c-0.002 0.095-0.027 0.184-0.069 0.261l0.001-0.003c-0.066 0.084-0.145 0.155-0.234 0.209l-0.004 0.002-0.148 0.092c-0.022 0.019-0.038 0.045-0.044 0.075l-0 0.001 0.541 0v0.319l-0.941 0.029zM12.233 20.098c0.001 0.009 0.001 0.019 0.001 0.030 0 0.115-0.056 0.217-0.142 0.279l-0.001 0.001c-0.106 0.072-0.236 0.115-0.375 0.115-0.006 0-0.012-0-0.019-0l0.001 0c-0.029 0.004-0.063 0.006-0.097 0.006s-0.068-0.002-0.101-0.006l0.004 0-0.171-0.054v-0.326c0.040 0.026 0.087 0.045 0.137 0.054l0.002 0c0.025 0.004 0.053 0.006 0.082 0.006s0.057-0.002 0.085-0.007l-0.003 0c0.023 0.004 0.050 0.007 0.078 0.007s0.054-0.003 0.080-0.007l-0.003 0c0.029-0.024 0.048-0.059 0.052-0.098l0-0.001c0-0.001 0-0.002 0-0.002 0-0.055-0.038-0.101-0.088-0.111l-0.001-0c-0.051-0.019-0.111-0.033-0.173-0.039l-0.003-0h-0.106v-0.294h0.112c0.010 0.002 0.022 0.003 0.034 0.003 0.052 0 0.1-0.018 0.137-0.049l-0 0c0.032-0.014 0.053-0.046 0.053-0.083 0-0.005-0-0.011-0.001-0.016l0 0.001c-0-0.002-0-0.069-0-0.085s-0.067 0-0.126 0c-0.096 0.004-0.186 0.032-0.263 0.078l0.003-0.002v-0.312c0.101-0.045 0.218-0.072 0.341-0.074h0.001c0.011-0.001 0.023-0.001 0.035-0.001 0.122 0 0.236 0.037 0.331 0.101l-0.002-0.001c0.073 0.053 0.12 0.139 0.12 0.236 0 0.007-0 0.014-0.001 0.021l0-0.001c0 0.002 0 0.005 0 0.008 0 0.078-0.025 0.149-0.068 0.207l0.001-0.001c-0.049 0.058-0.115 0.099-0.191 0.114l-0.002 0c0.090 0.004 0.17 0.047 0.224 0.112l0 0c0.016 0.044 0.025 0.094 0.025 0.147 0 0.016-0.001 0.031-0.002 0.046l0-0.002z"></path>
</svg>
