<!-- Generated by IcoMoon.io -->
<svg version="1.1" xmlns="http://www.w3.org/2000/svg" width="26" height="32" viewBox="0 0 26 32">
<title>Azure-Data-Explorer-Cluster</title>
<path fill="#0078d4" d="M22.354 3.426h-18.927l18.927 18.927v-18.927z"></path>
<path fill="#b8d432" d="M4.434 22.267c0.116 0.116 0.304 0.116 0.42-0l6.957-6.959c0.116-0.116 0.116-0.304 0-0.42v0l-0.917-0.915c-0.116-0.116-0.304-0.116-0.42 0l-6.957 6.959c-0.116 0.116-0.116 0.304-0 0.42v0l0.917 0.915z"></path>
<path fill="#b8d432" d="M4.438 16.908c0.116 0.116 0.304 0.116 0.42-0l4.292-4.293c0.116-0.116 0.116-0.304 0-0.42v0l-0.915-0.918c-0.116-0.116-0.304-0.116-0.42 0l-4.294 4.296c-0.116 0.116-0.116 0.304-0 0.42v0l0.917 0.915z"></path>
<path fill="#59b4d9" d="M9.026 9.024l7.731 7.731 5.598-5.598v-7.731h-7.731l-5.598 5.598z"></path>
<path fill="#b8d432" d="M9.751 22.261c0.116 0.116 0.304 0.116 0.42-0l4.292-4.293c0.116-0.116 0.116-0.304 0-0.42v0l-0.915-0.918c-0.116-0.116-0.304-0.116-0.42 0l-4.294 4.296c-0.116 0.116-0.116 0.304-0 0.42v0l0.917 0.915z"></path>
<path fill="#fff" opacity="0.2" d="M22.356 22.352v-18.927l-9.465 9.465 9.465 9.462z"></path>
<path fill="#fff" d="M13.692 10.144c0.164 0.164 0.43 0.164 0.594 0l0.741-0.741c0.164-0.164 0.164-0.43 0-0.594l-0.741-0.741c-0.164-0.164-0.43-0.164-0.594-0l-0.741 0.741c-0.164 0.164-0.164 0.43-0 0.594l0.741 0.741z"></path>
<path fill="#fff" d="M16.365 7.472c0.164 0.164 0.43 0.164 0.594 0l0.741-0.741c0.164-0.164 0.164-0.43 0-0.594l-0.741-0.741c-0.164-0.164-0.43-0.164-0.594-0l-0.741 0.741c-0.164 0.164-0.164 0.43-0 0.594l0.741 0.741z"></path>
<path fill="#fff" d="M16.365 12.816c0.164 0.164 0.43 0.164 0.594 0l0.741-0.741c0.164-0.164 0.164-0.43 0-0.594l-0.741-0.741c-0.164-0.164-0.43-0.164-0.594-0l-0.741 0.741c-0.164 0.164-0.164 0.43-0 0.594l0.741 0.741z"></path>
<path fill="#fff" d="M19.037 10.144c0.164 0.164 0.43 0.164 0.594 0l0.741-0.741c0.164-0.164 0.164-0.43 0-0.594l-0.741-0.741c-0.164-0.164-0.43-0.164-0.594-0l-0.741 0.741c-0.164 0.164-0.164 0.43-0 0.594l0.741 0.741z"></path>
</svg>
