<!-- Generated by IcoMoon.io -->
<svg version="1.1" xmlns="http://www.w3.org/2000/svg" width="27" height="32" viewBox="0 0 27 32">
<title>Azure-API-For-FHIR</title>
<path fill="#ff8c00" d="M17.79 4.027c-2 0-3.72 1.214-4.457 2.951-0.74-1.737-2.457-2.951-4.461-2.951-3.296 0-4.845 3.145-4.845 5.826 0 8.161 9.306 12.822 9.306 12.822s9.306-4.661 9.306-12.822c0-2.681-1.553-5.826-4.849-5.826z"></path>
<path fill="#ba141a" opacity="0.25" d="M13.29 14.518c-4.155 0-7.72-1.549-9.263-3.763 0.645 7.599 9.263 11.921 9.263 11.921s8.618-4.322 9.263-11.921c-1.543 2.214-5.109 3.763-9.263 3.763z"></path>
<path fill="#fff" d="M16.007 18.013c0 0.837-0.677 1.515-1.512 1.515s-1.512-0.678-1.512-1.515c0-0.837 0.677-1.515 1.512-1.515s1.512 0.678 1.512 1.515z"></path>
<path fill="#fff" d="M5.441 5.62c0 0-0.546 1.957 1.717 3.918l0.717-0.918c-0.013-0.010-1.234-0.997-1.322-2.434-0.076-1.174 0.51-1.806 0.51-1.806-0.648 0.296-1.188 0.701-1.622 1.24zM22.171 7.297c0.345 1.513 0.217 3.007-0.391 4.378-1.092 2.467-3.678 4.467-7.474 5.786l0.378 1.102c3.273-1.135 5.76-2.776 7.247-4.793 0.461-1.197 0.743-2.503 0.743-3.918 0-0.842-0.191-1.734-0.503-2.556z"></path>
<path fill="#fff" d="M7.198 8.758c-2.181 2.181 0.52 6.016 2.714 8.214l0.411 0.411c0.105 0.105 0.251 0.171 0.411 0.171s0.306-0.065 0.411-0.171v0l0.822-0.822c0.106-0.106 0.171-0.252 0.171-0.413 0-0.322-0.261-0.583-0.582-0.583-0.161 0-0.306 0.065-0.411 0.17l-0.441 0.441c-3.013-3.023-3.984-5.401-2.74-6.648s3.618-0.276 6.635 2.747l-0.441 0.438c-0.106 0.106-0.171 0.252-0.171 0.413 0 0.322 0.261 0.583 0.582 0.583 0.161 0 0.306-0.065 0.411-0.17v0l0.822-0.826c0.105-0.105 0.169-0.251 0.169-0.411s-0.065-0.306-0.169-0.411l-0.411-0.414c-2.191-2.197-6.016-4.901-8.194-2.717z"></path>
</svg>
