<!-- Generated by IcoMoon.io -->
<svg version="1.1" xmlns="http://www.w3.org/2000/svg" width="24" height="32" viewBox="0 0 24 32">
<title>Azure-Artifact</title>
<path fill="#b41055" d="M9.564 22h-6.692c-0.48 0-0.871-0.395-0.871-0.878v-8.248c0-0.487 0.392-0.875 0.871-0.875h6.692v10.001z"></path>
<path fill="#e86299" d="M4.836 22h-2.836v-10.001h2.836c0.469 0 0.854 0.385 0.854 0.857v8.287c0 0.473-0.385 0.857-0.854 0.857z"></path>
<path fill="#f173a7" d="M2.924 22h9.070v-10.001h-9.994v9.073c0 0.508 0.413 0.928 0.924 0.928z"></path>
<path fill="#c12664" d="M17.787 1.999h-11.476c-0.494 0-0.896 0.402-0.896 0.9v9.102h13.271v-9.102c0-0.497-0.402-0.9-0.9-0.9z"></path>
<path fill="#cf3071" d="M15.356 1.999h-9.045c-0.494 0-0.896 0.402-0.896 0.9v9.102h9.941v-10.001z"></path>
<path fill="#b5205c" d="M11.257 5.309h-1.739c-0.455 0-0.825-0.374-0.825-0.829s0.37-0.825 0.825-0.825h1.739c0.452 0 0.825 0.37 0.825 0.825s-0.367 0.829-0.825 0.829z"></path>
<path fill="#fe90be" d="M10.387 17.827h4.948v0.848h-4.948v-0.848z"></path>
<path fill="#fe90be" d="M10.387 19.511h2.815v0.848h-2.815v-0.848z"></path>
<path fill="#cb2e6f" d="M14.529 15.358h-1.647c-0.476 0-0.861-0.385-0.861-0.861s0.385-0.861 0.861-0.861h1.647c0.476 0 0.861 0.385 0.861 0.861s-0.385 0.861-0.861 0.861z"></path>
<path fill="#900740" d="M7.819 15.358h-1.647c-0.476 0-0.861-0.385-0.861-0.861s0.385-0.861 0.861-0.861h1.647c0.476 0 0.861 0.385 0.861 0.861s-0.385 0.861-0.861 0.861z"></path>
</svg>
