<!-- Generated by IcoMoon.io -->
<svg version="1.1" xmlns="http://www.w3.org/2000/svg" width="29" height="32" viewBox="0 0 29 32">
<title>Azure-Multifactor-Authentication</title>
<path fill="#0078d7" d="M14.33 10.591c1.124 0 2.038 0.895 2.067 2.011l0 0.003c0.412 0.056 0.836 0.13 1.267 0.224 0.002-0.056 0.005-0.113 0.005-0.17 0-1.841-1.494-3.333-3.338-3.333s-3.338 1.492-3.338 3.333v0c0 0.054 0.002 0.106 0.005 0.16 0.37-0.080 0.796-0.158 1.269-0.219 0.032-1.114 0.943-2.006 2.063-2.009h0z"></path>
<path fill="#0078d7" d="M9.325 13.924v1.25c0.004 3.358 2.044 6.239 4.953 7.48l0.053 0.020c2.962-1.261 5.002-4.142 5.006-7.499v-1.251c-1.492-0.532-3.213-0.839-5.006-0.839s-3.514 0.307-5.114 0.872l0.107-0.033zM16.001 18.937h-3.339v-0.221c0.001-0.728 0.469-1.347 1.121-1.574l0.012-0.004c-0.427-0.205-0.716-0.634-0.716-1.129 0-0.69 0.56-1.25 1.252-1.25s1.252 0.56 1.252 1.25c0 0.496-0.289 0.924-0.708 1.126l-0.007 0.003c0.665 0.23 1.134 0.849 1.135 1.578v0.221z"></path>
</svg>
