<!-- Generated by IcoMoon.io -->
<svg version="1.1" xmlns="http://www.w3.org/2000/svg" width="24" height="32" viewBox="0 0 24 32">
<title>Azure-Blueprint</title>
<path fill="#59b4d9" d="M19.668 21.546c-0.201 0 0.004 0.042-0.166 0v-2.159h-15c-0.088 0-2.085-0.021-2.085-1.746v-13.504c0-1.171 0.974-1.7 1.873-1.7 0.903 0 1.877 0.533 1.877 1.7v0.434h11.709c2.254 0 3.708 0.713 3.708 3.094v12.594c0 0.977-0.843 1.288-1.916 1.288z"></path>
<path fill="#fff" opacity="0.7" d="M19.668 21.546c-0.201 0 0.004 0.042-0.166 0v-2.159h-15c-0.088 0-2.085-0.021-2.085-1.746v-13.504c0-1.171 0.974-1.7 1.873-1.7 0.903 0 1.877 0.533 1.877 1.7v0.434h11.709c2.254 0 3.708 0.713 3.708 3.094v12.594c0 0.977-0.843 1.288-1.916 1.288z"></path>
<path fill="#0072c6" d="M17.875 4.136h-11.292c0-1.309-1.041-2.134-2.29-2.134-1.252 0-2.293 0.825-2.293 2.134v13.070c0 2.18 1.249 2.614 2.501 2.614h14.584v2.18c0 0 2.914 0 2.914-2.18v-12.157c0-2.614-1.249-3.528-4.124-3.528zM21.166 19.908c0 0-0.833-0.96-2.459-0.96h-14.206c-0.836 0-1.669-0.215-1.669-1.524 0-0.741 0.543-1.524 1.669-1.524 1.249 0 2.039 1.305 2.039 1.305h0.042v-12.199h11.709c1.669 0 2.875 0.48 2.875 2.223v12.679z"></path>
<path fill="#0072c6" d="M16.582 15.008l0.628 1.743 0.624-1.743h-1.252zM16.582 8.908h1.252v5.228h-1.252v-5.228zM17.21 6.774c0.342 0 0.624 0.279 0.624 0.628l-0.011 0.635-1.242-0.014v-0.621c0-0.349 0.282-0.628 0.628-0.628zM11.583 6.336c0.229 0 0.416 0.282 0.416 0.631l-0.007 0.631-0.825-0.011v-0.624c0-0.346 0.187-0.628 0.416-0.628z"></path>
<path fill="#0072c6" d="M11.585 7.206c-0.898 0-1.626 0.761-1.626 1.7s0.728 1.7 1.626 1.7v0c0.898 0 1.626-0.761 1.626-1.7s-0.728-1.7-1.626-1.7v0zM11.585 10.17c-0.667 0-1.21-0.564-1.21-1.263 0-0.695 0.543-1.263 1.21-1.263 0.663 0 1.207 0.568 1.207 1.263 0 0.698-0.543 1.263-1.207 1.263z"></path>
<path fill="#0072c6" d="M11.585 10.178v-0.836l-0.78 0.572-1.672 5.387-0.12 1.792 0.91-1.524 1.676-5.387-0.014-0.004z"></path>
<path fill="#0072c6" d="M14.035 15.3l-1.672-5.387-0.78-0.572v0.836l-0.014 0.004 1.672 5.387h0.004l0.91 1.524-0.12-1.792z"></path>
<path fill="#0072c6" d="M14.917 13.265h-6.668c-0.115 0-0.208-0.098-0.208-0.218s0.093-0.218 0.208-0.218v0l6.668-0.002c0.115 0 0.208 0.098 0.208 0.218s-0.093 0.218-0.208 0.218v0z"></path>
</svg>
