<!-- Generated by IcoMoon.io -->
<svg version="1.1" xmlns="http://www.w3.org/2000/svg" width="33" height="32" viewBox="0 0 33 32">
<title>Azure-Active-Directory-Connect-Health</title>
<path fill="#50e6ff" d="M9.771 16.843l6.531 4.338 6.654-4.354 0.835 0.995-7.489 4.929-7.374-4.929 0.843-0.98z"></path>
<path fill="#fff" d="M10.258 16.287l6.045-7.358 6.168 7.366-6.168 3.984-6.045-3.992z"></path>
<path fill="#50e6ff" d="M16.303 8.929v11.35l-6.045-3.992 6.045-7.358z"></path>
<path fill="#000" d="M16.302 8.929v11.35l6.168-3.984-6.168-7.366z"></path>
<path fill="#53b1e0" d="M16.302 14.793l6.168 1.502-6.168 3.984v-5.486z"></path>
<path fill="#9cebff" d="M16.303 20.279l-6.045-3.992 6.045-1.494v5.486z"></path>
<path fill="#000" d="M16.302 22.751l7.489-4.929-0.835-0.995-6.654 4.354v1.57z"></path>
<path fill="#f04049" d="M20.116 23.072c3.616-2.65 3.7-4.16 3.7-4.632 0-0.675-0.066-2.432-1.791-2.531-0.046-0.004-0.1-0.006-0.154-0.006-0.815 0-1.509 0.532-1.767 1.275l-0.004 0.013c-0.25-0.772-0.95-1.32-1.775-1.32-0.043 0-0.086 0.002-0.129 0.004l0.006-0c-1.725 0.126-1.817 1.891-1.817 2.566 0 0.473 0.108 1.983 3.692 4.606l0.039 0.026z"></path>
<path fill="#fff" d="M23.816 18.169h-1.652c-0.049 0.001-0.091 0.028-0.115 0.067l-0 0.001-0.52 0.904c-0.012 0.021-0.033 0.035-0.058 0.035s-0.046-0.014-0.058-0.035l-0-0-0.785-1.452c-0.019-0.052-0.067-0.088-0.124-0.088s-0.105 0.036-0.124 0.087l-0 0.001-0.692 2.193c-0.010 0.026-0.034 0.044-0.062 0.044s-0.052-0.018-0.062-0.044l-0-0-0.627-1.476c-0.022-0.046-0.067-0.078-0.12-0.078s-0.098 0.032-0.119 0.077l-0 0.001-0.827 1.536c-0.022 0.045-0.067 0.076-0.119 0.076-0.002 0-0.004-0-0.005-0l-0.792 0c0.134 0.209 0.265 0.388 0.404 0.558l-0.008-0.010h0.685c0.050-0.003 0.093-0.033 0.115-0.075l0-0.001 0.586-1.114 0.827 1.846c0.019 0.052 0.067 0.088 0.124 0.088s0.105-0.036 0.124-0.087l0.824-2.472 0.704 1.4c0.023 0.042 0.066 0.070 0.116 0.070s0.093-0.028 0.115-0.069l0-0.001 0.824-1.366c0.025-0.040 0.067-0.066 0.115-0.067l1.305-0.001v-0.549z"></path>
</svg>
