<!-- Generated by IcoMoon.io -->
<svg version="1.1" xmlns="http://www.w3.org/2000/svg" width="32" height="32" viewBox="0 0 32 32">
<title>Azure-Stack</title>
<path fill="#000" d="M22.781 8.724h-7.735c-0.275 0-0.499 0.215-0.503 0.482v10.725c0.369-0.302 0.778-0.586 1.21-0.837l0.042-0.023h1.468l0.811 1.050v1.588l-1.024 0.724-1.422-0.172-1.086-0.998v1.453c0.004 0.267 0.228 0.482 0.503 0.482h7.735c0.272-0.001 0.493-0.216 0.493-0.481 0-0 0-0.001 0-0.001v0-13.509c0-0 0-0.001 0-0.001 0-0.265-0.22-0.48-0.493-0.481h-0z"></path>
<path fill="#f2f2f2" d="M15.699 10.229h1.422c0.068 0 0.124 0.054 0.124 0.12v0l-0 1.786c0 0.066-0.055 0.12-0.124 0.12v0l-1.421 0c-0.068 0-0.124-0.054-0.124-0.12v0l0-1.786c0-0.066 0.055-0.12 0.124-0.12v0zM18.199 10.229h1.422c0.068 0 0.124 0.054 0.124 0.12v0l-0 1.786c0 0.066-0.055 0.12-0.124 0.12v0l-1.421 0c-0.068 0-0.124-0.054-0.124-0.12v0l0-1.786c0-0.066 0.055-0.12 0.124-0.12v0zM20.706 10.229h1.422c0.068 0 0.124 0.054 0.124 0.12v0l-0 1.786c0 0.066-0.055 0.12-0.124 0.12l-1.421 0c-0.068 0-0.124-0.054-0.124-0.12v0l0-1.786c0-0.066 0.055-0.12 0.124-0.12v0zM15.699 13.46h1.422c0.068 0 0.124 0.054 0.124 0.12v0l-0 1.804c0 0.066-0.055 0.12-0.124 0.12v0l-1.421 0c-0.068 0-0.124-0.054-0.124-0.12v0l0-1.786c-0.001-0.005-0.001-0.011-0.001-0.017 0-0.066 0.055-0.12 0.124-0.12 0 0 0.001 0 0.001 0h-0zM18.199 13.46h1.422c0.068 0 0.124 0.054 0.124 0.12v0l-0 1.804c0 0.066-0.055 0.12-0.124 0.12v0l-1.421 0c-0.068 0-0.124-0.054-0.124-0.12v0l0-1.786c-0.001-0.005-0.001-0.011-0.001-0.017 0-0.066 0.055-0.12 0.124-0.12 0 0 0.001 0 0.001 0h-0zM20.706 13.46h1.422c0.068 0 0.124 0.054 0.124 0.12v0l-0 1.804c0 0.066-0.055 0.12-0.124 0.12l-1.421 0c-0.068 0-0.124-0.054-0.124-0.12v0l0-1.786c-0.001-0.005-0.001-0.011-0.001-0.017 0-0.066 0.055-0.12 0.124-0.12 0 0 0.001 0 0.001 0h-0zM15.699 16.727h1.422c0.068 0 0.124 0.054 0.124 0.12v0l-0 1.768c0 0.066-0.055 0.12-0.124 0.12v0l-1.421 0c-0.068 0-0.124-0.054-0.124-0.12v0l0-1.768c0-0.066 0.055-0.12 0.124-0.12v0zM18.199 16.727h1.422c0.068 0 0.124 0.054 0.124 0.12v0l-0 1.768c0 0.066-0.055 0.12-0.124 0.12v0l-1.421 0c-0.068 0-0.124-0.054-0.124-0.12v0l0-1.768c0-0.066 0.055-0.12 0.124-0.12v0zM18.199 19.973h1.422c0.068 0 0.124 0.054 0.124 0.12v0l-0 2.649c0 0.066-0.055 0.12-0.124 0.12v0l-1.421 0c-0.068 0-0.124-0.054-0.124-0.12v0l0-2.649c0-0.066 0.055-0.12 0.124-0.12v0zM20.706 16.727h1.422c0.068 0 0.124 0.054 0.124 0.12v0l-0 1.768c0 0.066-0.055 0.12-0.124 0.12l-1.421 0c-0.068 0-0.124-0.054-0.124-0.12v0l0-1.768c0-0.066 0.055-0.12 0.124-0.12v0z"></path>
<path fill="#50e6ff" d="M16.441 19.475c-0.53 0.011-0.971 0.37-1.092 0.852l-0.002 0.008h-3.973c-0.044 0.168-0.070 0.36-0.072 0.558v0.052h4.044c0.159 0.438 0.581 0.747 1.076 0.747 0.629 0 1.139-0.496 1.139-1.109 0-0.606-0.5-1.099-1.121-1.108h-0.001z"></path>
<path fill="#000" d="M19.531 19.012c-0.070-1.493-1.331-2.677-2.875-2.677-0.045 0-0.089 0.001-0.134 0.003l0.006-0c-0.017-0-0.037-0.001-0.058-0.001-1.261 0-2.337 0.77-2.758 1.854l-0.007 0.020c-1.029 0.138-1.87 0.803-2.236 1.701l-0.007 0.018h3.654c0.252-0.497 0.769-0.833 1.366-0.833 0.839 0 1.518 0.662 1.518 1.478s-0.68 1.478-1.518 1.478c-0.015 0-0.030-0-0.044-0.001l0.002 0c-0.596-0.014-1.106-0.358-1.346-0.851l-0.004-0.009h-3.726c0.318 1.205 1.424 2.082 2.74 2.082 0.024 0 0.047-0 0.071-0.001l-0.003 0h5.014c1.209-0.011 2.197-0.919 2.294-2.073l0.001-0.008c-0.014-1.104-0.849-2.014-1.937-2.18l-0.013-0.002z"></path>
<path fill="#50e6ff" d="M16.442 21.504c-0.531 0.010-0.974 0.37-1.094 0.852l-0.002 0.008h-3.973c-0.149-0.003-0.292-0.021-0.429-0.054l0.013 0.003c-0.904-0.199-1.574-0.959-1.606-1.878l-0-0.003c0.012-1.018 0.802-1.853 1.818-1.967l0.010-0.001h0.195l0.062-0.172c0.318-0.864 1.153-1.471 2.132-1.471 0.014 0 0.027 0 0.041 0l-0.002-0c0.007-0 0.015-0 0.023-0 0.84 0 1.576 0.432 1.986 1.081l0.006 0.010c0.196-0.049 0.42-0.077 0.651-0.077 0.004 0 0.008 0 0.012 0h-0.001c-0.483-0.969-1.485-1.624-2.645-1.624-0.001 0-0.002 0-0.003 0h0c-0.024-0.001-0.052-0.001-0.081-0.001-1.175 0-2.186 0.681-2.64 1.659l-0.007 0.018c-1.239 0.222-2.167 1.258-2.181 2.508v0.002c0.026 1.17 0.849 2.146 1.96 2.436l0.018 0.004c0.179 0.065 0.386 0.103 0.602 0.103 0.015 0 0.029-0 0.044-0.001l-0.002 0h3.998c0.148 0.457 0.579 0.783 1.088 0.783 0.629 0 1.139-0.496 1.139-1.109 0-0.61-0.506-1.105-1.131-1.109h-0z"></path>
</svg>
