<!-- Generated by IcoMoon.io -->
<svg version="1.1" xmlns="http://www.w3.org/2000/svg" width="28" height="32" viewBox="0 0 28 32">
<title>Azure-Lighthouse-Projection</title>
<path fill="#59b4d9" d="M2.319 19.88v-0.524h0.573c0.446 0 7.71 0 16.013 0h0.45v1.051h-17.036v-0.528zM19.297 9.969l0.012-1.73-0.119-0.254c-0.065-0.139-0.192-0.303-0.282-0.372-0.38-0.282-0.176-0.27-5.182-0.27h-4.593l0.217-0.221c0.307-0.311 0.74-0.577 1.133-0.691 0.36-0.11 0.348-0.094 0.401-0.544 0.090-0.773 0.826-1.501 1.673-1.652 0.54-0.098 1.194 0.082 1.612 0.442 0.27 0.229 0.303 0.205 0.528-0.384 0.217-0.564 0.442-0.896 0.92-1.362 0.753-0.728 1.591-1.076 2.618-1.076 0.773 0 1.178 0.098 1.877 0.45 0.303 0.147 0.499 0.299 0.859 0.65 0.409 0.397 0.499 0.515 0.72 0.953 0.143 0.282 0.286 0.65 0.327 0.834 0.102 0.491 0.094 1.264-0.025 1.718-0.053 0.205-0.098 0.413-0.098 0.462 0 0.106 0.151 0.115 0.434 0.016 0.789-0.274 1.8-0.029 2.442 0.589 0.515 0.495 0.736 1.023 0.736 1.742-0.004 0.883-0.446 1.628-1.243 2.082-0.519 0.294-0.54 0.299-2.855 0.327l-2.127 0.025 0.016-1.734zM10.716 11.605c-1.186-0.249-2.102-1.301-2.16-2.487l-0.016-0.348h9.301v2.908l-3.403-0.004c-2.716 0-3.468-0.016-3.722-0.070v0z"></path>
<path fill="#0077d3" d="M3.455 19.113c-0.172-0.061-0.348-0.225-0.438-0.397-0.094-0.18-0.098-0.299-0.098-5.358 0-3.53 0.016-5.211 0.053-5.305 0.078-0.2 0.335-0.438 0.532-0.491 0.11-0.029 2.855-0.049 7.538-0.049h7.37l0.213 0.102c0.115 0.053 0.27 0.176 0.344 0.27l0.131 0.168 0.016 5.133c0.008 2.818 0 5.199-0.016 5.284-0.041 0.217-0.376 0.569-0.601 0.63-0.209 0.057-14.164 0.070-14.164 0.012 0-0.020 0.082-0.102 0.184-0.18 0.098-0.078 0.36-0.299 0.581-0.487l0.401-0.348h6.221c5.563 0 6.229-0.008 6.283-0.074 0.053-0.061 0.057-0.965 0.033-4.704-0.016-2.548-0.049-4.651-0.070-4.667-0.065-0.061-13.886-0.094-13.96-0.037-0.049 0.041-0.061 0.544-0.061 2.524 0 2.18 0.008 2.479 0.074 2.544 0.070 0.065 0.335 0.074 2.184 0.074 1.243 0 2.139-0.020 2.184-0.045 0.061-0.037 0.070-0.176 0.057-0.859-0.012-0.564 0-0.81 0.037-0.81 0.061 0 2.299 1.996 2.299 2.053 0 0.020-0.511 0.519-1.137 1.113l-1.133 1.076-0.025-0.871c-0.016-0.479-0.045-0.896-0.065-0.928-0.057-0.086-4.332-0.086-4.417-0.004-0.090 0.090-0.082 3.489 0.004 3.563 0.037 0.029 0.327 0.057 0.679 0.065l0.618 0.012-0.609 0.511-0.609 0.515-0.278-0.004c-0.151-0.004-0.311-0.016-0.352-0.033v0z"></path>
</svg>
