<!-- Generated by IcoMoon.io -->
<svg version="1.1" xmlns="http://www.w3.org/2000/svg" width="28" height="32" viewBox="0 0 28 32">
<title>Azure-Spring-Cloud</title>
<path fill="#000" d="M13.417 13.418h-8.537v-8.537h8.537v8.537zM6.385 11.91h5.527v-5.524h-5.527v5.524zM22.959 13.418h-8.537v-8.537h8.537v8.537zM15.93 11.91h5.524v-5.524h-5.524v5.524zM13.417 22.96h-8.537v-8.537h8.537v8.537zM6.385 21.452h5.527v-5.524h-5.527v5.524zM22.959 22.96h-8.537v-8.537h8.537v8.537zM15.93 21.452h5.524v-5.524h-5.524v5.524z"></path>
<path fill="#000" d="M22.958 11.909v1.508h-7.080v-1.508h7.080z"></path>
<path fill="#000" d="M4.879 22.96v-1.509h7.080v1.509h-7.080z"></path>
<path fill="#000" d="M11.911 4.879h1.505v7.032h-1.505v-7.032z"></path>
<path fill="#000" d="M14.422 4.879h1.505v7.032h-1.505v-7.032z"></path>
<path fill="#000" d="M6.385 22.96h-1.505v-7.032h1.505v7.032z"></path>
<path fill="#000" d="M22.958 14.42v1.508h-7.080v-1.508h7.080z"></path>
<path fill="#000" d="M4.879 22.96v-1.509h7.080v1.509h-7.080z"></path>
<path fill="#5fb832" d="M19.948 13.82c0-1.406-0.402-3.164-1.107-5.224-0.15 0.402-0.402 0.753-0.603 1.056-1.154-1.107-2.663-1.76-4.318-1.76-3.317 0-6.028 2.714-6.028 6.028 0 3.317 2.711 6.028 6.028 6.028 3.314 0 6.028-2.711 6.028-6.028v-0.099z"></path>
<path fill="#fff" d="M18.79 16.632c-1.505 1.958-4.669 1.304-6.678 1.406 0 0-0.351 0-0.705 0.048l0.303-0.099c1.406-0.504 2.108-0.603 2.963-1.056 1.658-0.852 3.266-2.66 3.565-4.57-0.603 1.859-2.51 3.416-4.219 4.018-1.155 0.453-3.314 0.855-3.314 0.855l-0.102-0.051c-1.454-0.702-1.505-3.869 1.107-4.873 1.155-0.45 2.261-0.201 3.514-0.501 1.355-0.351 2.864-1.304 3.518-2.612 0.753 2.159 1.556 5.425 0.048 7.434zM10.304 18.591c0.277 0 0.502-0.225 0.502-0.502s-0.225-0.502-0.502-0.502v0c-0.277 0-0.502 0.225-0.502 0.502s0.225 0.502 0.502 0.502v0z"></path>
</svg>
