<!-- Generated by IcoMoon.io -->
<svg version="1.1" xmlns="http://www.w3.org/2000/svg" width="22" height="32" viewBox="0 0 22 32">
<title>Azure-Automation-Runbook</title>
<path fill="#7a7a7a" d="M16.262 11.298h-10.964c-0.466 0-0.893 0.402-0.893 1.002v4.29l1.517 0.441v-4.17h9.68v4.131l1.517-0.441v-4.251c0-0.6-0.43-1.002-0.857-1.002z"></path>
<path fill="#7a7a7a" d="M10.003 8.573h1.516v4.168h-1.516v-4.168z"></path>
<path fill="#59b4d9" d="M13.23 1.999h-4.9c-0.504 0-0.931 0.441-0.931 0.963v4.688c0 0.522 0.427 0.963 0.931 0.963h4.861c0.504 0 0.931-0.441 0.931-0.963v-4.688c0.042-0.522-0.388-0.963-0.893-0.963z"></path>
<path fill="#59b4d9" d="M7.593 15.386h-4.861c-0.504 0-0.931 0.441-0.931 0.963v4.688c0 0.522 0.427 0.963 0.931 0.963h4.861c0.504 0 0.931-0.441 0.931-0.963v-4.688c0-0.522-0.427-0.963-0.931-0.963z"></path>
<path fill="#59b4d9" d="M7.593 15.386h-4.861c-0.504 0-0.931 0.441-0.931 0.963v4.688c0 0.522 0.427 0.963 0.931 0.963h4.861c0.504 0 0.931-0.441 0.931-0.963v-4.688c0.042-0.522-0.388-0.963-0.931-0.963z"></path>
</svg>
