<!-- Generated by IcoMoon.io -->
<svg version="1.1" xmlns="http://www.w3.org/2000/svg" width="24" height="32" viewBox="0 0 24 32">
<title>Azure-Stack-Update</title>
<path fill="#0078d4" d="M16.678 2.001h-7.923c-0.001 0-0.001 0-0.002 0-0.281 0-0.509 0.231-0.509 0.515 0 0 0 0 0 0v0 11.67c0.379-0.333 0.797-0.645 1.239-0.924l0.042-0.025h1.506l0.836 1.143v1.764l-1.051 1.418-1.45-0.194-1.132-0.448v0.31c-0 0.003-0 0.007-0 0.011 0 0.284 0.227 0.514 0.508 0.515h7.927c0.281-0.001 0.508-0.231 0.508-0.515 0-0.004-0-0.008-0-0.011v0.001-14.714c0-0 0-0 0-0 0-0.28-0.221-0.508-0.497-0.515h-0.001z"></path>
<path fill="#f2f2f2" d="M9.431 4.070h1.471c0.003-0 0.007-0.001 0.011-0.001 0.069 0 0.125 0.056 0.125 0.126 0 0 0 0 0 0.001v-0l0.002 1.945c0 0.076-0.061 0.137-0.136 0.137v0l-1.473 0c-0 0-0 0-0.001 0-0.069 0-0.125-0.056-0.125-0.126 0-0.004 0-0.008 0.001-0.012l-0 0 0.001-1.944c0-0.069 0.056-0.126 0.125-0.126v0zM12.035 4.070h1.46c0.069 0 0.125 0.056 0.125 0.126v0l0.002 1.945c0 0.003 0.001 0.007 0.001 0.011 0 0.069-0.056 0.126-0.125 0.126-0 0-0 0-0.001 0l-1.463 0c-0 0-0 0-0.001 0-0.069 0-0.125-0.056-0.125-0.126 0-0.004 0-0.008 0.001-0.012l-0 0 0.001-1.944c0-0.069 0.056-0.126 0.125-0.126v0zM14.607 4.070h1.446c0.069 0 0.125 0.056 0.125 0.126v0l0.002 1.945c0 0.003 0.001 0.007 0.001 0.011 0 0.069-0.056 0.126-0.125 0.126-0 0-0 0-0.001 0l-1.495 0c-0.075 0-0.136-0.061-0.136-0.137v0l-0.002-1.944c0-0 0-0 0-0.001 0-0.069 0.056-0.126 0.125-0.126 0.004 0 0.008 0 0.012 0.001l-0.001-0 0.048-0.001zM9.431 7.605h1.471c0.003-0 0.007-0.001 0.011-0.001 0.069 0 0.125 0.056 0.125 0.126 0 0 0 0 0 0.001v-0l0.002 1.98c-0.011 0.059-0.062 0.104-0.123 0.104-0.005 0-0.009-0-0.014-0.001l0.001 0-1.473-0.001c-0.001 0-0.001 0-0.002 0-0.061 0-0.111-0.044-0.122-0.102l-0-0.001 0.001-1.978c0-0.069 0.056-0.126 0.125-0.126v0zM12.035 7.605h1.46c0.069 0 0.125 0.056 0.125 0.126v0l0.002 1.98c0 0.069-0.056 0.126-0.125 0.126v0l-1.463 0.001c-0.014 0.006-0.029 0.009-0.046 0.009-0.069 0-0.125-0.056-0.125-0.126 0-0.003 0-0.006 0-0.009l-0 0 0-1.98c-0-0.003-0-0.006-0-0.009 0-0.069 0.056-0.126 0.125-0.126 0.016 0 0.032 0.003 0.046 0.009l-0.001-0zM14.607 7.605h1.446c0.069 0 0.125 0.056 0.125 0.126v0l0.002 1.98c0 0.069-0.056 0.126-0.125 0.126v0l-1.495 0.001c-0.003 0-0.007 0.001-0.011 0.001-0.069 0-0.125-0.056-0.125-0.126 0-0 0-0 0-0.001v0l-0.002-1.98c0-0 0-0 0-0.001 0-0.069 0.056-0.126 0.125-0.126 0.004 0 0.008 0 0.012 0.001l-0.001-0 0.048-0.001z"></path>
<path fill="#50e6ff" d="M9.908 14.345c-0.010-0-0.021-0.001-0.033-0.001-0.53 0-0.974 0.367-1.098 0.864l-0.002 0.008h-4.064c-0.038 0.18-0.062 0.389-0.067 0.602l-0 0.004v0.056h4.131c0.163 0.442 0.577 0.752 1.063 0.752 0.625 0 1.132-0.512 1.132-1.144 0-0.607-0.468-1.104-1.060-1.142l-0.003-0z"></path>
<path fill="#32bedd" d="M13.031 13.831c-0.056-1.623-1.372-2.918-2.987-2.918-0.017 0-0.033 0-0.050 0l0.002-0c-0.014-0-0.030-0-0.047-0-1.308 0-2.422 0.84-2.843 2.015l-0.007 0.021c-1.048 0.175-1.896 0.895-2.258 1.857l-0.007 0.020h3.69c0.259-0.517 0.781-0.866 1.383-0.868h0c0.020-0.001 0.044-0.001 0.067-0.001 0.882 0 1.596 0.722 1.596 1.613s-0.715 1.613-1.596 1.613c-0.64 0-1.191-0.38-1.446-0.929l-0.004-0.010h-3.814c0.295 1.319 1.445 2.29 2.819 2.29 0.016 0 0.032-0 0.048-0l-0.002 0h5.14c0.047 0.003 0.102 0.005 0.157 0.005 1.282 0 2.321-1.050 2.321-2.346 0-1.24-0.952-2.255-2.157-2.34l-0.007-0v-0.021z"></path>
<path fill="#50e6ff" d="M9.909 14.346c-0.010-0-0.022-0.001-0.034-0.001-0.528 0-0.972 0.366-1.097 0.86l-0.002 0.008h-4.064c-0.152-0.005-0.296-0.026-0.435-0.059l0.015 0.003c-0.946-0.212-1.644-1.052-1.644-2.058 0-1.087 0.815-1.981 1.861-2.093l0.009-0.001h0.194l0.067-0.194c0.311-0.914 1.154-1.559 2.146-1.559 0.042 0 0.083 0.001 0.125 0.003l-0.006-0c0.014-0 0.031-0.001 0.048-0.001 0.848 0 1.592 0.453 2.006 1.133l0.006 0.010c0.197-0.043 0.423-0.067 0.655-0.067 0.004 0 0.008 0 0.012 0h-0.001c-0.49-1.050-1.528-1.764-2.732-1.764-0.014 0-0.029 0-0.043 0l0.002-0c-0.008-0-0.018-0-0.027-0-1.219 0-2.267 0.741-2.727 1.801l-0.007 0.019c-1.28 0.249-2.234 1.373-2.234 2.721 0 1.262 0.836 2.327 1.979 2.661l0.019 0.005c0.183 0.074 0.396 0.117 0.619 0.117 0.017 0 0.034-0 0.051-0.001l-0.002 0h4.11c0.163 0.442 0.577 0.752 1.063 0.752 0.625 0 1.132-0.512 1.132-1.144 0-0.607-0.468-1.104-1.060-1.142l-0.003-0v-0.011z"></path>
<path fill="#000" d="M10.906 14.62l5.094-5.151c0.11-0.11 0.262-0.177 0.429-0.177s0.318 0.068 0.429 0.177l-0-0 5.084 5.151c0.049 0.050 0.080 0.118 0.080 0.194 0 0.152-0.122 0.275-0.272 0.275-0 0-0 0-0.001 0l-3.078 0c-0.15 0-0.272 0.123-0.272 0.275v0l0 6.418c0 0.12-0.096 0.217-0.215 0.217v0l-3.397 0.001c-0.003 0-0.008 0-0.012 0-0.113 0-0.204-0.092-0.204-0.206 0-0.004 0-0.008 0-0.012l-0 0.001-0-6.418c0-0.152-0.122-0.275-0.272-0.275v0l-3.157-0.001c-0.015 0.003-0.033 0.005-0.051 0.005-0.15 0-0.272-0.123-0.272-0.275 0-0.078 0.033-0.149 0.085-0.199l0-0z"></path>
</svg>
