<!-- Generated by IcoMoon.io -->
<svg version="1.1" xmlns="http://www.w3.org/2000/svg" width="27" height="32" viewBox="0 0 27 32">
<title>Bastion</title>
<path fill="#0072c6" d="M12.299 17.786c-2.425 1.656-6.307 4.197-6.681 4.492-0.487 0.331-1.196 0.186-1.418-0.109-0.225-0.331-0.225-1.030 0.262-1.361 0.298-0.186 5.413-3.611 6.979-4.677l0.898 0.957c0.411 0.404-0.040 0.699-0.040 0.699zM12.19 15.467c0 0-4.482-4.75-5.005-5.267-0.484-0.553-0.036-1.176 0.225-1.398s1.047-0.553 1.454-0.149c0.411 0.407 5.416 5.707 5.787 6.115 0.374 0.404 0.338 1.030-0.298 1.471-0.109 0.076-0.411 0.295-0.858 0.59-0.036 0.036-0.225 0.186-0.411 0.295 0 0 0.411-0.295 0.113-0.626l-1.007-1.030zM15.4 12.337c2.017 2.137 5.151 5.486 5.489 5.817 0.411 0.444 1.12 0.444 1.418 0.186s0.447-0.921 0.036-1.361c-0.222-0.258-4.442-4.714-5.711-6.078l-1.083 0.739c-0.523 0.295-0.149 0.699-0.149 0.699zM15.847 10.164c0 0 5.413-3.72 6.012-4.16 0.596-0.441 0.298-1.143 0.073-1.398-0.222-0.258-0.894-0.775-1.381-0.444-0.484 0.331-6.496 4.455-6.943 4.787s-0.56 0.921 0 1.511c0.073 0.109 0.335 0.368 0.709 0.772 0.036 0.040 0.185 0.222 0.335 0.371 0 0-0.335-0.371 0.040-0.626l1.156-0.812z"></path>
</svg>
