<!-- Generated by IcoMoon.io -->
<svg version="1.1" xmlns="http://www.w3.org/2000/svg" width="21" height="32" viewBox="0 0 21 32">
<title>Batch-AI</title>
<path fill="#7a7a7a" d="M8.37 19.677h4.357v1.122h-4.357v-1.122zM9.46 22.672h1.817l1.323-1.122h-4.179l1.040 1.122z"></path>
<path fill="#fff" d="M8.435 18.892c-0.001 0-0.002 0-0.003 0-0.080 0-0.145-0.065-0.149-0.146v-0c-0.062-2.009-1.144-3.302-2.191-4.549-1.043-1.244-2.027-2.419-2.027-4.225 0-3.771 2.363-5.937 6.486-5.937 4.12 0 6.483 2.165 6.483 5.937 0 1.807-0.984 2.982-2.024 4.225-1.046 1.247-2.129 2.541-2.192 4.548-0.004 0.082-0.069 0.147-0.149 0.147-0.001 0-0.002 0-0.004-0l-4.231 0.001z"></path>
<path fill="#59b4d9" d="M10.185 4.404c0-0.214-0.174-0.388-0.382-0.375-3.742 0.253-5.775 2.435-5.775 5.94 0 3.679 4.094 4.821 4.216 8.777 0.005 0.102 0.086 0.183 0.186 0.183 0.001 0 0.002 0 0.003-0l1.391 0.001c0.2-0.001 0.362-0.168 0.362-0.374 0-0 0-0.001 0-0.001v0-14.151z"></path>
<path fill="#3999c6" d="M10.929 4.404c0-0.214 0.178-0.388 0.385-0.375 3.738 0.253 5.772 2.435 5.772 5.94 0 3.679-4.094 4.821-4.216 8.777-0.005 0.102-0.086 0.183-0.186 0.183-0.001 0-0.002 0-0.003-0l-1.391 0.001c-0.2-0.001-0.362-0.168-0.362-0.374 0-0 0-0.001 0-0.001v0-14.151z"></path>
<path fill="#fff" d="M12.763 9.863l-0.326-0.668-1.889 0.971-1.886-0.971-0.326 0.668 1.988 1.023h0.451l1.988-1.023zM12.691 15.889l-0.326-0.668-1.817 0.935-1.813-0.935-0.326 0.668 1.915 0.987h0.451l1.915-0.987zM8.673 7.102l-0.23-0.711-1.576 0.543-1.234-1.274c-0.178 0.174-0.339 0.362-0.487 0.559l1.208 1.244-0.527 1.622 0.691 0.237 0.54-1.665 1.616-0.556zM15.794 6.009c-0.161-0.189-0.331-0.36-0.513-0.517l-0.007-0.006-1.405 1.448-1.576-0.543-0.23 0.711 1.619 0.556 0.536 1.665 0.691-0.237-0.527-1.622 1.412-1.455zM16.025 12.973l-1.675-0.661-0.142-1.662-0.724 0.066 0.151 1.751-1.27 1.172 0.487 0.559 1.267-1.175 1.438 0.566c0.143-0.175 0.296-0.376 0.443-0.581l0.024-0.035zM8.732 13.638l-1.267-1.172 0.151-1.751-0.724-0.066-0.141 1.662-1.675 0.661c0.148 0.211 0.303 0.415 0.467 0.615l1.435-0.566 1.27 1.175 0.484-0.559z"></path>
</svg>
