<!-- Generated by IcoMoon.io -->
<svg version="1.1" xmlns="http://www.w3.org/2000/svg" width="28" height="32" viewBox="0 0 28 32">
<title>Blockchain-Streaming</title>
<path fill="#773adc" d="M20.139 5.674v7.604l-6.892 3.832v-7.628l6.892-3.808z"></path>
<path fill="#b796f9" d="M20.141 5.676l-6.892 3.82-6.908-3.82 6.908-3.82 6.892 3.82z"></path>
<path fill="#a67af4" d="M13.249 9.495v7.616l-6.908-3.832v-7.604l6.908 3.82z"></path>
<path fill="#552f99" d="M16.72 9.518c0.912-0.495 1.644-0.098 1.644 0.892-0.065 1.123-0.693 2.095-1.619 2.675l-0.013 0.008c-0.912 0.495-1.644 0.098-1.644-0.892 0.065-1.123 0.693-2.095 1.619-2.675l0.013-0.008z"></path>
<path fill="#50e6ff" d="M21.305 12.166h-4.115c-0.455 0-0.823-0.349-0.823-0.779s0.368-0.779 0.823-0.779v0h4.115c1.451-0.041 2.611-1.165 2.611-2.545 0-0.031-0.001-0.062-0.002-0.093l0 0.004c0.001-0.030 0.002-0.065 0.002-0.101 0-1.38-1.16-2.504-2.608-2.545l-0.004-0c-0.431-0.027-0.769-0.365-0.769-0.777s0.338-0.75 0.767-0.777l0.003-0c2.337 0.061 4.206 1.869 4.206 4.090 0 0.039-0.001 0.078-0.002 0.116l0-0.006c0.001 0.030 0.001 0.066 0.001 0.102 0 2.221-1.87 4.029-4.2 4.090l-0.006 0z"></path>
<path fill="#32bedd" d="M17.751 17.16l-3.174-3.006c-0.031-0.036-0.078-0.058-0.131-0.058s-0.099 0.022-0.13 0.058l-0 0 0.003 2.311h-7.837c-1.451-0.041-2.611-1.165-2.611-2.545 0-0.034 0.001-0.068 0.002-0.102l-0 0.005c-0-0.018-0.001-0.039-0.001-0.060 0-1.335 1.079-2.431 2.457-2.548l0.010-0.001v-1.558c-2.257 0.166-4.022 1.94-4.022 4.105 0 0.031 0 0.062 0.001 0.092l-0-0.005c-0.001 0.029-0.001 0.064-0.001 0.098 0 2.224 1.868 4.034 4.199 4.102l0.007 0h7.833v2.299c0.031 0.036 0.078 0.058 0.131 0.058s0.099-0.022 0.13-0.058l0-0 3.134-3.027c0.017-0.022 0.028-0.050 0.028-0.080s-0.010-0.058-0.028-0.081l0 0z"></path>
</svg>
