<!-- Generated by IcoMoon.io -->
<svg version="1.1" xmlns="http://www.w3.org/2000/svg" width="24" height="32" viewBox="0 0 24 32">
<title>Blockchain-Devkit</title>
<path fill="#773adc" d="M10.043 6.674v9.296l-8.043 4.674v-9.313l8.043-4.657z"></path>
<path fill="#b796f9" d="M18.083 6.674l-8.040 4.671-8.043-4.674 8.043-4.671 8.040 4.674z"></path>
<path fill="#a67af4" d="M10.040 11.345v9.299l-8.040-4.674v-9.299l8.040 4.674z"></path>
<path fill="#198ab3" d="M20.495 13.844l0.049 0.046c0.015 0.014 0.036 0.022 0.058 0.022s0.043-0.008 0.058-0.022l-0 0 0.465-0.392 0.861-1.404c0.008-0.013 0.013-0.029 0.013-0.046 0-0.024-0.010-0.047-0.026-0.063v0l-0.135-0.134c-0.016-0.017-0.039-0.027-0.064-0.027-0.020 0-0.038 0.006-0.053 0.017l0-0-1.347 0.892-0.381 0.49c-0.012 0.015-0.018 0.033-0.018 0.053 0 0.025 0.010 0.047 0.027 0.063l0 0 0.052 0.053-2.801 2.865-0.579-0.593-0.639 0.656c0.005 0.041 0.008 0.088 0.008 0.136 0 0.301-0.117 0.574-0.309 0.778l0.001-0.001c-0.186 0.201-0.451 0.326-0.746 0.326-0.046 0-0.090-0.003-0.134-0.009l0.005 0.001-2.706 2.769c-0.031 0.032-0.050 0.075-0.050 0.123s0.019 0.091 0.050 0.123l-0-0 1.334 1.377c0.032 0.034 0.078 0.055 0.128 0.055s0.096-0.021 0.128-0.055l0-0 2.685-2.773c-0.005-0.040-0.008-0.087-0.008-0.135 0-0.305 0.126-0.581 0.329-0.779l0-0c0.186-0.2 0.452-0.326 0.747-0.326 0.045 0 0.089 0.003 0.133 0.009l-0.005-0.001 0.642-0.66-0.579-0.593 2.805-2.843z"></path>
<path fill="#000" d="M21.597 20.142l-0.667-0.681-4.247-4.36-0.212-0.222c0.066-0.207 0.105-0.445 0.105-0.692 0-0.633-0.251-1.207-0.659-1.63l0.001 0.001c-0.4-0.412-0.96-0.667-1.581-0.667-0.14 0-0.276 0.013-0.408 0.038l0.014-0.002c-0.042 0.007-0.074 0.043-0.074 0.087 0 0.024 0.010 0.047 0.026 0.063v0l1.113 1.124c0.016 0.016 0.026 0.038 0.026 0.063 0 0.007-0.001 0.015-0.003 0.021l0-0.001-0.299 1.155c-0.008 0.031-0.032 0.055-0.062 0.064l-0.001 0-1.136 0.314c-0.007 0.002-0.015 0.003-0.023 0.003-0.025 0-0.048-0.010-0.065-0.027l-0-0-1.087-1.115c-0.016-0.017-0.039-0.027-0.064-0.027-0.044 0-0.081 0.031-0.088 0.073l-0 0.001c-0.024 0.125-0.038 0.269-0.038 0.415 0 0.625 0.249 1.193 0.653 1.61l-0.001-0.001c0.394 0.407 0.946 0.66 1.558 0.66 0.214 0 0.421-0.031 0.616-0.088l-0.015 0.004 0.042 0.039 0.233 0.247 4.868 5.062c0.184 0.197 0.447 0.319 0.737 0.319 0.266 0 0.508-0.103 0.688-0.27l-0.001 0.001c0.018-0.018 0.032-0.032 0.049-0.049 0.186-0.19 0.3-0.449 0.3-0.735 0-0.011-0-0.021-0-0.032l0 0.002c-0.003-0.294-0.116-0.561-0.301-0.763l0.001 0.001z"></path>
</svg>
