<!-- Generated by IcoMoon.io -->
<svg version="1.1" xmlns="http://www.w3.org/2000/svg" width="24" height="32" viewBox="0 0 24 32">
<title>Blockchain-Consortium</title>
<path fill="#773adc" d="M15.524 4.146v4.293l-3.637 2.148v-4.293l3.637-2.148z"></path>
<path fill="#552f99" d="M13.93 6.421c0.501-0.3 0.797-0.099 0.797 0.494-0.064 0.571-0.361 1.063-0.792 1.386l-0.005 0.004c-0.399 0.296-0.794 0.099-0.794-0.497 0.064-0.569 0.359-1.059 0.789-1.383l0.005-0.004z"></path>
<path fill="#b796f9" d="M15.524 4.146l-3.637 2.148-3.75-2.148 3.75-2.145 3.637 2.145z"></path>
<path fill="#a67af4" d="M11.886 6.295v4.293l-3.75-2.148v-4.293l3.75 2.148z"></path>
<path fill="#773adc" d="M9.86 6.406c-0.455-0.226-0.91 0-0.91 0.452-0 0.004-0 0.008-0 0.012 0 0.636 0.366 1.186 0.901 1.455l0.009 0.004c0.455 0.226 0.907 0 0.907-0.452-0.045-0.625-0.394-1.161-0.898-1.466l-0.008-0.005z"></path>
<path fill="#5e9624" d="M22.001 9.796v4.293l-3.637 2.148v-4.293l3.637-2.148z"></path>
<path fill="#76bc2d" d="M18.364 11.944v4.293l-3.637-2.148v-4.293l3.637 2.148z"></path>
<path fill="#5e9624" d="M16.66 12.281c-0.455-0.226-0.91 0-0.91 0.452-0 0.004-0 0.008-0 0.012 0 0.636 0.366 1.186 0.901 1.455l0.009 0.004c0.455 0.226 0.907 0 0.907-0.452-0.045-0.625-0.394-1.161-0.898-1.466l-0.008-0.005z"></path>
<path fill="#32bedd" d="M16.7 8.694c-0.589-0.69-1.326-1.236-2.163-1.594l-0.038-0.014c-0.070-0.032-0.153-0.051-0.24-0.051-0.254 0-0.471 0.161-0.553 0.386l-0.001 0.004c-0.024 0.056-0.037 0.121-0.037 0.19 0 0.233 0.159 0.43 0.376 0.487l0.004 0.001c0.65 0.276 1.202 0.665 1.656 1.147l0.003 0.003 0.995-0.557z"></path>
<path fill="#32bedd" d="M16.698 10.959c0.021 0.067 0.056 0.127 0.074 0.194l0.138-0.067-0.212-0.127z"></path>
<path fill="#258277" d="M9.386 10.022v4.18l-3.75 2.148v-4.18l3.75-2.148z"></path>
<path fill="#37c2b1" d="M5.637 17.82v4.18l-3.637-2.148v-4.18l3.637 2.148z"></path>
<path fill="#32bedd" d="M10.181 7.424c-0.134-0.229-0.379-0.381-0.661-0.381-0.089 0-0.175 0.015-0.255 0.043l0.005-0.002c-0.821 0.441-1.519 0.998-2.102 1.657l-0.007 0.008 1.203 0.684c0.416-0.444 0.905-0.815 1.449-1.094l0.030-0.014c0.229-0.133 0.381-0.377 0.381-0.656 0-0.089-0.015-0.174-0.043-0.253l0.002 0.005z"></path>
<path fill="#d15900" d="M15.864 15.559v4.293l-3.637 2.148v-4.293l3.637-2.148z"></path>
<path fill="#f78d1e" d="M12.228 17.707v4.293l-3.637-2.148v-4.293l3.637 2.148z"></path>
<path fill="#32bedd" d="M16.773 13.185c-0.106-0.101-0.25-0.163-0.409-0.163-0.21 0-0.395 0.109-0.5 0.273l-0.001 0.002c-0.426 0.536-0.928 0.988-1.496 1.347l-0.024 0.014 1.097 0.649c0.552-0.349 1.027-0.752 1.441-1.211l0.006-0.006c0.102-0.106 0.165-0.249 0.165-0.408 0-0.209-0.11-0.393-0.275-0.498l-0.002-0.001z"></path>
<path fill="#207067" d="M7.697 12.213c0.515-0.282 0.893-0.046 0.893 0.515-0.047 0.643-0.386 1.199-0.886 1.541l-0.007 0.004c-0.519 0.282-0.896 0.046-0.896-0.515 0.027-0.649 0.375-1.213 0.888-1.541l0.008-0.005z"></path>
<path fill="#32bedd" d="M10.207 14.604c-0.74-0.329-1.359-0.811-1.837-1.408l-0.008-0.010c-0.109-0.163-0.293-0.269-0.502-0.269-0.156 0-0.298 0.059-0.405 0.156l0-0c-0.165 0.108-0.273 0.292-0.273 0.501 0 0.155 0.059 0.297 0.157 0.403l-0-0c0.441 0.548 0.96 1.012 1.544 1.382l0.025 0.015 1.298-0.769z"></path>
<path fill="#ffb34d" d="M15.865 15.558l-3.637 2.148-3.637-2.148 3.637-2.145 3.637 2.145z"></path>
<path fill="#42e8ca" d="M9.387 10.022l-3.75 2.148-3.637-2.148 3.637-2.145 3.75 2.145z"></path>
<path fill="#b4ec36" d="M22.002 9.796l-3.637 2.148-3.637-2.148 3.637-2.032 3.637 2.032z"></path>
</svg>
