<!-- Generated by IcoMoon.io -->
<svg version="1.1" xmlns="http://www.w3.org/2000/svg" width="30" height="32" viewBox="0 0 30 32">
<title>Blockchain-Token</title>
<path fill="#773adc" d="M18.225 11.775v5.485l-4.603 2.756v-5.495l4.603-2.746z"></path>
<path fill="#b796f9" d="M18.225 11.775l-4.603 2.756-4.596-2.756 4.596-2.756 4.603 2.756z"></path>
<path fill="#a67af4" d="M13.622 17.498v5.485l-4.603-2.756v-5.485l4.603 2.756z"></path>
<path fill="#32bedd" d="M16.988 19.221c0 0.025-0.005 0.052-0.010 0.076-0.005 0.027-0.007 0.044-0.012 0.064l-0.022 0.074c-0.007 0.025-0.015 0.039-0.022 0.059l-0.037 0.079c-0.021 0.042-0.042 0.076-0.064 0.11l0.002-0.004-0.010 0.015c-0.026 0.038-0.051 0.071-0.078 0.102l0.001-0.002-0.015 0.020-0.103 0.103c-0.023 0.021-0.048 0.041-0.074 0.060l-0.003 0.002-0.069 0.054-0.086 0.062-0.091 0.059c-0.061 0.036-0.136 0.076-0.213 0.112l-0.016 0.007-0.079 0.030-0.19 0.074-0.076 0.025-0.126 0.037-0.096 0.025-0.133 0.030-0.091 0.020-0.276 0.039c-0.030 0-0.059 0.005-0.089 0.007l-0.163 0.012h-0.33l-0.123-0.005-0.227-0.027-0.108-0.017-0.128-0.022-0.101-0.022-0.153-0.037-0.081-0.025-0.261-0.089-0.123-0.052-0.062-0.030-0.177-0.094c-0.394-0.183-0.672-0.563-0.714-1.015l-0-0.005v1.103c0.042 0.456 0.32 0.837 0.707 1.017l0.008 0.003 0.177 0.094c0.020 0.010 0.042 0.020 0.064 0.027l0.106 0.049 0.015 0.005 0.281 0.096c0.020 0.007 0.042 0.010 0.062 0.017l0.153 0.037 0.039 0.010 0.062 0.010 0.128 0.025 0.052 0.007c0.020 0 0.037 0.005 0.057 0.007l0.121 0.015c0.020 0 0.037 0.005 0.057 0.007h0.057l0.121 0.007h0.35c0.054-0.005 0.108-0.007 0.163-0.012h0.086l0.276-0.039h0.015l0.076-0.017 0.135-0.030 0.094-0.025 0.126-0.037 0.027-0.007c0.012-0.005 0.027-0.012 0.042-0.017l0.268-0.103 0.229-0.116 0.032-0.020c0.022-0.012 0.039-0.027 0.062-0.042l0.086-0.059 0.067-0.054 0.079-0.064 0.012-0.012c0.032-0.030 0.062-0.059 0.089-0.089l0.015-0.020 0.047-0.054c0.010-0.014 0.021-0.029 0.031-0.045l0.001-0.002 0.010-0.017 0.054-0.086 0.010-0.017c0.011-0.020 0.022-0.046 0.033-0.073l0.002-0.006 0.020-0.047 0.007-0.015c0.006-0.019 0.013-0.043 0.019-0.069l0.001-0.005 0.015-0.049v-0.015c0.003-0.022 0.006-0.049 0.007-0.077l0-0.002c0.002-0.025 0.007-0.034 0.007-0.049v-1.135l-0.010 0.079h-0.017z"></path>
<path fill="#50e6ff" d="M16.28 18.122c0.948 0.562 0.953 1.47 0.010 2.029-0.498 0.265-1.086 0.42-1.71 0.42s-1.213-0.155-1.732-0.43l0.021 0.010c-0.948-0.562-0.953-1.47-0.010-2.029 0.497-0.265 1.086-0.42 1.71-0.42s1.213 0.155 1.731 0.43l-0.021-0.010z"></path>
<path fill="#32bedd" d="M20.875 20.532c0 0.027-0.002 0.052-0.010 0.079-0.002 0.027-0.010 0.042-0.012 0.064l-0.022 0.074c-0.007 0.022-0.015 0.039-0.022 0.059l-0.034 0.079c-0.015 0.027-0.039 0.079-0.062 0.106l-0.012 0.015-0.076 0.103-0.015 0.017-0.101 0.103c-0.023 0.020-0.049 0.040-0.075 0.059l-0.004 0.002-0.067 0.057c-0.022 0.017-0.057 0.037-0.089 0.057l-0.091 0.062c-0.061 0.037-0.137 0.077-0.214 0.112l-0.015 0.006-0.076 0.032-0.19 0.074-0.069 0.022-0.126 0.037-0.096 0.027-0.133 0.027-0.091 0.020-0.276 0.039-0.089 0.007-0.163 0.012h-0.347c-0.042 0-0.084 0-0.123-0.007-0.039-0.010-0.076-0.007-0.111-0.010l-0.121-0.015-0.108-0.015-0.128-0.025-0.101-0.020-0.153-0.037-0.081-0.025-0.261-0.091-0.123-0.052-0.062-0.027-0.177-0.096c-0.394-0.182-0.672-0.563-0.714-1.015l-0-0.005v1.103c0.042 0.456 0.32 0.837 0.707 1.017l0.008 0.003 0.177 0.094 0.062 0.027 0.108 0.049 0.015 0.005c0.086 0.032 0.172 0.064 0.261 0.089l0.020 0.007 0.062 0.017 0.153 0.039c0.015 0 0.027 0.007 0.042 0.007l0.062 0.012 0.128 0.022c0.017 0 0.032 0.007 0.049 0.010l0.059 0.007 0.121 0.015 0.057 0.005h0.054c0.039 0 0.081 0.005 0.123 0.007h0.347c0.054 0 0.108-0.010 0.165-0.012 0.020 0 0.042 0 0.064-0.005h0.020l0.276-0.039h0.015l0.076-0.017 0.133-0.030 0.096-0.025 0.15-0.044 0.31-0.121c0.093-0.042 0.168-0.082 0.241-0.125l-0.012 0.007 0.032-0.017c0.022-0.015 0.042-0.030 0.062-0.044l0.086-0.059 0.069-0.054 0.091-0.076c0.030-0.028 0.059-0.057 0.085-0.088l0.001-0.001 0.015-0.020 0.047-0.054 0.032-0.047 0.012-0.015 0.052-0.079 0.010-0.020c0.015-0.025 0.022-0.049 0.034-0.079l0.022-0.044v-0.015c0.007-0.027 0.012-0.052 0.020-0.076l0.015-0.049v-0.015c0.005-0.025 0.005-0.052 0.007-0.076 0.002-0.027 0.007-0.034 0.007-0.052v-1.121c0.005 0.020 0 0.044-0.002 0.069l-0.005-0.007z"></path>
<path fill="#50e6ff" d="M20.16 19.44c0.419 0.147 0.714 0.546 0.714 1.016 0 0.466-0.291 0.863-0.697 1.011l-0.007 0.002c-0.497 0.265-1.086 0.42-1.71 0.42s-1.213-0.155-1.732-0.43l0.021 0.010c-0.948-0.562-0.953-1.47-0.010-2.029 0.498-0.265 1.087-0.421 1.712-0.421s1.214 0.155 1.733 0.431l-0.021-0.010h-0.002z"></path>
<path fill="#32bedd" d="M20.882 18.058c0 0.025-0.002 0.049-0.007 0.074l-0.007 0.079c-0.005 0.025-0.012 0.042-0.015 0.062l-0.020 0.074c-0.010 0.022-0.015 0.039-0.025 0.059l-0.034 0.079c-0.015 0.027-0.037 0.079-0.062 0.106l-0.012 0.015-0.076 0.103-0.015 0.017c-0.033 0.036-0.065 0.070-0.1 0.102l-0.001 0.001c-0.023 0.021-0.048 0.042-0.073 0.062l-0.003 0.002-0.069 0.054-0.086 0.059-0.094 0.062c-0.061 0.036-0.136 0.075-0.213 0.109l-0.016 0.006-0.076 0.032-0.192 0.074-0.076 0.025-0.123 0.037-0.096 0.025-0.133 0.030-0.094 0.020-0.276 0.037-0.086 0.010-0.163 0.010h-0.347c-0.042 0-0.084 0-0.123-0.007-0.042-0.007-0.076-0.005-0.111-0.010l-0.123-0.015-0.106-0.015-0.128-0.025-0.101-0.020-0.153-0.039-0.084-0.022c-0.089-0.027-0.175-0.057-0.259-0.091l-0.123-0.052-0.064-0.027-0.177-0.096c-0.394-0.183-0.672-0.563-0.714-1.015l-0-0.005v1.103c0.042 0.456 0.32 0.837 0.707 1.017l0.008 0.003 0.177 0.094 0.062 0.027 0.111 0.049 0.010 0.005 0.261 0.089 0.022 0.010 0.059 0.015 0.155 0.037c0.012 0 0.025 0.010 0.039 0.010l0.059 0.012 0.128 0.022c0.020 0 0.034 0.007 0.052 0.010l0.057 0.007 0.121 0.015 0.059 0.005h0.054c0.039 0 0.081 0.005 0.121 0.007h0.347c0.057 0 0.111-0.007 0.165-0.012 0.020 0 0.044 0 0.067-0.005h0.020l0.276-0.039h0.015l0.076-0.017 0.133-0.030 0.096-0.025 0.15-0.044c0.015-0.005 0.030-0.012 0.042-0.017l0.268-0.103c0.094-0.042 0.17-0.081 0.243-0.125l-0.012 0.006 0.027-0.017 0.064-0.044 0.086-0.059 0.069-0.054 0.076-0.062 0.015-0.015c0.030-0.029 0.058-0.057 0.085-0.088l0.001-0.001 0.015-0.020 0.047-0.057 0.032-0.044 0.012-0.017c0.018-0.024 0.035-0.053 0.052-0.082l0.002-0.004 0.007-0.017c0.015-0.027 0.025-0.052 0.037-0.079l0.020-0.044v-0.017c0.006-0.019 0.013-0.043 0.019-0.068l0.001-0.005 0.015-0.049v-0.012c0.005-0.027 0.005-0.054 0.007-0.079 0.002-0.027 0.007-0.034 0.007-0.052v-0.022l0.012-1.101z"></path>
<path fill="#50e6ff" d="M18.465 16.649c1.368 0.004 2.476 0.635 2.474 1.409s-1.113 1.399-2.481 1.395c-1.368-0.004-2.476-0.635-2.473-1.409s1.113-1.399 2.481-1.395z"></path>
</svg>
