<!-- Generated by IcoMoon.io -->
<svg version="1.1" xmlns="http://www.w3.org/2000/svg" width="34" height="32" viewBox="0 0 34 32">
<title>Blockchain-Connection</title>
<path fill="#773adc" d="M21.772 11.748v5.737l-4.959 2.876v-5.74l4.959-2.873z"></path>
<path fill="#b796f9" d="M21.772 11.746l-4.959 2.884-4.959-2.884 4.959-2.881 4.959 2.881z"></path>
<path fill="#a67af4" d="M16.813 14.629v5.731l-4.959-2.876v-5.737l4.959 2.881z"></path>
<path fill="#773adc" d="M14.192 14.709c-0.649-0.366-1.178-0.070-1.178 0.671 0.045 0.847 0.499 1.581 1.168 2.014l0.010 0.006c0.643 0.375 1.178 0.078 1.178-0.666-0.054-0.847-0.505-1.578-1.168-2.019l-0.010-0.006z"></path>
<path fill="#32bedd" d="M24.69 20.675l-2.277-2.271c-0.023-0.026-0.056-0.041-0.092-0.041s-0.070 0.016-0.092 0.041l-0 0 0 1.748h-10.411c-0.972 0-1.76-0.783-1.76-1.748s0.788-1.748 1.76-1.748h2.101c0.327-0.004 0.59-0.268 0.59-0.593v-0c-0-0.323-0.264-0.585-0.589-0.585-0 0-0.001 0-0.001 0h-2.101c-1.632 0-2.955 1.314-2.955 2.936s1.323 2.936 2.955 2.936h10.375v1.745c0.023 0.026 0.056 0.041 0.092 0.041s0.070-0.016 0.092-0.041l0-0 2.313-2.263c0.020-0.020 0.032-0.048 0.032-0.079s-0.012-0.058-0.032-0.079l0 0v0.001z"></path>
</svg>
