<!-- Generated by IcoMoon.io -->
<svg version="1.1" xmlns="http://www.w3.org/2000/svg" width="34" height="32" viewBox="0 0 34 32">
<title>Blockchain-Data-Manager</title>
<path fill="#773adc" d="M21.364 12.098v5.437l-4.641 2.743v-5.456l4.641-2.724z"></path>
<path fill="#b796f9" d="M21.365 12.098l-4.641 2.732-4.652-2.732 4.652-2.735 4.641 2.735z"></path>
<path fill="#a67af4" d="M16.724 14.83v5.448l-4.652-2.743v-5.437l4.652 2.732z"></path>
<path fill="#552f99" d="M19.062 14.846c0.614-0.353 1.107-0.069 1.107 0.639-0.045 0.802-0.467 1.497-1.090 1.911l-0.009 0.006c-0.614 0.355-1.107 0.072-1.107-0.636 0.044-0.803 0.466-1.499 1.090-1.914l0.009-0.006z"></path>
<path fill="#50e6ff" d="M22.149 16.74h-2.771c-0.306 0-0.554-0.25-0.554-0.558s0.248-0.558 0.554-0.558v0h2.771c0.977-0.030 1.758-0.834 1.758-1.821 0-0.022-0-0.044-0.001-0.066l0 0.003c0.001-0.021 0.001-0.046 0.001-0.071 0-0.988-0.781-1.792-1.756-1.821l-0.003-0c-0.293-0.017-0.524-0.259-0.524-0.556s0.231-0.54 0.522-0.556l0.001-0c1.573 0.044 2.832 1.337 2.832 2.926 0 0.028-0 0.055-0.001 0.083l0-0.004c0.001 0.022 0.001 0.047 0.001 0.073 0 1.589-1.259 2.883-2.828 2.926l-0.004 0z"></path>
<path fill="#32bedd" d="M19.756 20.312l-2.137-2.148c-0.021-0.025-0.053-0.041-0.088-0.041s-0.067 0.016-0.088 0.041l-0 0 0.002 1.655h-5.277c-0.977-0.029-1.759-0.833-1.759-1.821 0-0.026 0.001-0.052 0.002-0.077l-0 0.004c-0-0.012-0-0.026-0-0.041 0-0.955 0.727-1.739 1.654-1.823l0.007-0v-1.115c-1.52 0.118-2.708 1.388-2.708 2.937 0 0.022 0 0.044 0.001 0.066l-0-0.003c-0.001 0.022-0.001 0.047-0.001 0.073 0 1.591 1.258 2.886 2.828 2.935l0.004 0h5.274v1.644c0.021 0.025 0.053 0.041 0.088 0.041s0.067-0.016 0.088-0.041l0-0 2.11-2.168c0.012-0.016 0.019-0.036 0.019-0.058s-0.007-0.042-0.019-0.058l0 0z"></path>
</svg>
