<!-- Generated by IcoMoon.io -->
<svg version="1.1" xmlns="http://www.w3.org/2000/svg" width="28" height="32" viewBox="0 0 28 32">
<title>Blockchain-Application</title>
<path fill="#773adc" d="M14.106 14.955l4.419-2.63v5.248l-4.419 2.637v-5.254z"></path>
<path fill="#b796f9" d="M14.105 9.685l4.421 2.639-4.421 2.637-4.419-2.637 4.419-2.639z"></path>
<path fill="#a67af4" d="M9.686 12.325l4.419 2.637v5.248l-4.419-2.637v-5.248z"></path>
<path fill="#fff" d="M16.093 16.001l-1.944-2.020c-0.019-0.019-0.044-0.030-0.072-0.030s-0.054 0.011-0.072 0.030v0l-1.96 2.020c-0.018 0.018-0.029 0.043-0.029 0.071 0 0.054 0.043 0.098 0.096 0.098 0.003 0 0.006-0 0.009-0l-0 0 1.149-0.001c0 0 0 0 0 0 0.057 0 0.103 0.047 0.103 0.105 0 0 0 0 0 0v0l-0.001 1.833c0 0 0 0 0 0 0 0.056 0.042 0.101 0.096 0.105l0 0 1.209-0.001c0.004 0.001 0.009 0.001 0.014 0.001 0.057 0 0.103-0.047 0.103-0.105 0-0 0-0.001 0-0.001v0l0.001-1.859c0-0 0-0 0-0 0-0.056 0.042-0.101 0.096-0.105l0-0 1.147 0.001c0.039-0.013 0.067-0.050 0.067-0.093 0-0.017-0.004-0.033-0.012-0.047l0 0 0.001-0z"></path>
<path fill="#000" d="M9.686 22.053c0 0 0 0.001 0 0.001 0 0.143 0.114 0.259 0.254 0.26h4.317c0.14-0 0.254-0.116 0.254-0.26 0-0 0-0.001 0-0.001v0-3.822c0-0 0-0.001 0-0.001 0-0.143-0.114-0.259-0.254-0.26h-4.317c-0.14 0-0.254 0.116-0.254 0.26 0 0 0 0.001 0 0.001v-0 3.822z"></path>
<path fill="#fff" d="M11.535 21.122l-0.969-0.991 0.949-0.967c0.012-0.013 0.020-0.030 0.020-0.049s-0.008-0.036-0.020-0.049v0l-0.151-0.156c-0.013-0.010-0.030-0.016-0.048-0.016s-0.035 0.006-0.048 0.016l0-0-1.1 1.123c-0.013 0.022-0.020 0.049-0.020 0.077s0.008 0.055 0.021 0.078l-0-0.001c-0.002 0.007-0.002 0.016-0.002 0.025s0.001 0.017 0.002 0.025l-0-0.001 1.114 1.137c0.012 0.012 0.029 0.020 0.048 0.020s0.036-0.008 0.048-0.020v0l0.151-0.154c0.014-0.013 0.023-0.032 0.023-0.053 0-0.017-0.006-0.033-0.017-0.046l0 0z"></path>
<path fill="#fff" d="M14.216 20.033l-1.094-1.123c-0.013-0.010-0.030-0.016-0.048-0.016s-0.035 0.006-0.048 0.016l0-0-0.151 0.156c-0.012 0.013-0.020 0.030-0.020 0.049s0.008 0.036 0.020 0.049v0l0.942 0.966-0.976 0.991c-0.012 0.013-0.020 0.030-0.020 0.049s0.008 0.036 0.020 0.049v0l0.151 0.153c0.012 0.012 0.029 0.020 0.048 0.020s0.036-0.008 0.048-0.020v0l1.127-1.165c0.019-0.024 0.030-0.054 0.030-0.088s-0.011-0.064-0.030-0.088l0 0z"></path>
</svg>
