<!-- Generated by IcoMoon.io -->
<svg version="1.1" xmlns="http://www.w3.org/2000/svg" width="28" height="32" viewBox="0 0 28 32">
<title>Blueprint</title>
<path fill="#59b4d9" d="M21.116 21.981c-0.193 0 0.003 0.037-0.159 0v-1.972h-14.407c-0.085 0-2.002-0.017-2.002-1.589v-12.326c0-1.064 0.935-1.548 1.799-1.548 0.867 0 1.803 0.485 1.803 1.548v0.4h11.246c2.165 0 3.561 0.647 3.561 2.822v11.489c0 0.891-0.81 1.176-1.84 1.176z"></path>
<path fill="#fff" opacity="0.7" d="M21.116 21.981c-0.193 0 0.003 0.037-0.159 0v-1.972h-14.407c-0.085 0-2.002-0.017-2.002-1.589v-12.326c0-1.064 0.935-1.548 1.799-1.548 0.867 0 1.803 0.485 1.803 1.548v0.4h11.246c2.165 0 3.561 0.647 3.561 2.822v11.489c0 0.891-0.81 1.176-1.84 1.176z"></path>
<path fill="#0072c6" d="M19.394 6.097h-10.846c0-1.193-1-1.948-2.199-1.948-1.203 0-2.202 0.756-2.202 1.948v11.927c0 1.986 1.199 2.385 2.402 2.385h14.007v1.985c0 0 2.799 0 2.799-1.986v-11.093c0-2.385-1.199-3.219-3.961-3.219zM22.555 20.486c0 0-0.8-0.874-2.362-0.874h-13.644c-0.803 0-1.603-0.2-1.603-1.393 0-0.674 0.522-1.389 1.603-1.389 1.199 0 1.958 1.193 1.958 1.193h0.041v-11.134h11.246c1.603 0 2.761 0.437 2.761 2.030v11.567z"></path>
<path fill="#0072c6" d="M18.152 16.015l0.603 1.589 0.6-1.589h-1.203zM18.152 10.451h1.203v4.771h-1.203v-4.771zM18.755 8.503c0.329 0 0.6 0.254 0.6 0.573l-0.010 0.579-1.193-0.010v-0.569c0-0.319 0.271-0.573 0.603-0.573zM13.351 8.103c0.22 0 0.4 0.258 0.4 0.576l-0.007 0.576-0.793-0.010v-0.566c0-0.319 0.18-0.576 0.4-0.576z"></path>
<path fill="#0072c6" d="M13.353 8.898c-0.011-0-0.023-0-0.036-0-0.862 0-1.561 0.694-1.561 1.551s0.699 1.551 1.561 1.551c0.012 0 0.025-0 0.037-0l-0.002 0c0.847-0.020 1.525-0.706 1.525-1.55s-0.679-1.53-1.523-1.55l-0.002-0zM13.353 11.602c-0.64 0-1.162-0.518-1.162-1.152 0-0.637 0.522-1.152 1.162-1.152 0.637 0 1.159 0.515 1.159 1.152 0 0.634-0.522 1.152-1.159 1.152z"></path>
<path fill="#0072c6" d="M13.353 11.606v-0.759l-0.749 0.518-1.606 4.916-0.115 1.633 0.874-1.389 1.609-4.913-0.014-0.007z"></path>
<path fill="#0072c6" d="M15.706 16.282l-1.606-4.916-0.749-0.518v0.759l-0.014 0.007 1.606 4.913h0.003l0.874 1.389-0.115-1.633z"></path>
<path fill="#0072c6" d="M16.554 14.424h-6.404c-0 0-0 0-0 0-0.111 0-0.2-0.089-0.2-0.199s0.090-0.199 0.2-0.199c0 0 0 0 0 0l6.404 0.001c0.11 0 0.2 0.089 0.2 0.199s-0.089 0.199-0.2 0.199h-0z"></path>
</svg>
