<!-- Generated by IcoMoon.io -->
<svg version="1.1" xmlns="http://www.w3.org/2000/svg" width="32" height="32" viewBox="0 0 32 32">
<title>Bot-Service</title>
<path fill="#000" d="M16 8.33c-4.236 0-7.67 3.434-7.67 7.671s3.434 7.671 7.671 7.671c4.236 0 7.671-3.434 7.671-7.67v0c0-0 0-0 0-0 0-4.236-3.434-7.671-7.671-7.671-0 0-0 0-0 0v0z"></path>
<path fill="#fff" d="M22.344 16c0 3.504-2.84 6.344-6.344 6.344s-6.344-2.84-6.344-6.344c0-3.504 2.84-6.344 6.344-6.344s6.344 2.84 6.344 6.344z"></path>
<path fill="#32bedd" d="M15.296 16c0 0.384-0.311 0.695-0.695 0.695s-0.695-0.311-0.695-0.695c0-0.384 0.311-0.695 0.695-0.695s0.695 0.311 0.695 0.695z"></path>
<path fill="#32bedd" d="M12.626 14.013h-0.344c-0 0-0 0-0 0-0.145 0-0.262 0.117-0.262 0.262 0 0 0 0 0 0v-0 5.162c0 0 0 0.001 0 0.002 0 0.294 0.238 0.532 0.531 0.532h5.028c0 0 0 0 0.001 0 0.145 0 0.262-0.117 0.262-0.262 0-0.004-0-0.007-0-0.011l0 0v-0.341c0-0 0-0 0-0 0-0.145-0.117-0.262-0.262-0.262-0 0-0 0-0 0h-4.514c-0 0-0 0-0 0-0.070 0-0.126-0.057-0.126-0.126 0-0.003 0-0.006 0-0.009l-0 0 0-4.685c0-0.002 0-0.004 0-0.006 0-0.145-0.117-0.262-0.262-0.262-0.018 0-0.037 0.002-0.054 0.006l0.002-0z"></path>
<path fill="#32bedd" d="M18.094 16c0 0.384-0.311 0.695-0.695 0.695s-0.695-0.311-0.695-0.695c0-0.384 0.311-0.695 0.695-0.695s0.695 0.311 0.695 0.695z"></path>
<path fill="#32bedd" d="M19.085 12.028h-4.682c-0 0-0 0-0.001 0-0.145 0-0.262 0.117-0.262 0.262 0 0.004 0 0.007 0 0.011l-0-0.001v0.344c0 0 0 0 0 0 0 0.145 0.117 0.262 0.262 0.262 0 0 0 0 0 0h4.511c0 0 0 0 0 0 0.075 0 0.135 0.061 0.135 0.135 0 0 0 0 0 0v0l0.001 4.683c0 0 0 0 0 0 0 0.145 0.117 0.262 0.262 0.262 0 0 0 0 0 0h0.341c0 0 0 0 0 0 0.145 0 0.262-0.117 0.262-0.262 0-0 0-0 0-0v0-5.162c0-0.001 0-0.001 0-0.002 0-0.29-0.232-0.526-0.521-0.532h-0.31z"></path>
</svg>
