<!-- Generated by IcoMoon.io -->
<svg version="1.1" xmlns="http://www.w3.org/2000/svg" width="26" height="32" viewBox="0 0 26 32">
<title>Budget</title>
<path fill="#ff8c00" d="M11.474 5.087c0 0.586-0.471 1.061-1.051 1.061s-1.051-0.475-1.051-1.061c0-0.586 0.471-1.061 1.051-1.061s1.051 0.475 1.051 1.061z"></path>
<path fill="#ff8c00" d="M6.128 21.614c0 0.586-0.471 1.061-1.051 1.061s-1.051-0.475-1.051-1.061c0-0.586 0.471-1.061 1.051-1.061s1.051 0.475 1.051 1.061z"></path>
<path fill="#ff8c00" d="M6.485 9.405c0 0.586-0.471 1.061-1.051 1.061s-1.051-0.475-1.051-1.061c0-0.586 0.471-1.061 1.051-1.061s1.051 0.475 1.051 1.061z"></path>
<path fill="#ff8c00" d="M8.267 6.527c0 0.586-0.471 1.061-1.051 1.061s-1.051-0.475-1.051-1.061c0-0.586 0.471-1.061 1.051-1.061s1.051 0.475 1.051 1.061z"></path>
<path fill="#57a300" opacity="0.2" d="M11.474 5.087c0 0.586-0.471 1.061-1.051 1.061s-1.051-0.475-1.051-1.061c0-0.586 0.471-1.061 1.051-1.061s1.051 0.475 1.051 1.061z"></path>
<path fill="#57a300" opacity="0.2" d="M6.128 21.614c0 0.586-0.471 1.061-1.051 1.061s-1.051-0.475-1.051-1.061c0-0.586 0.471-1.061 1.051-1.061s1.051 0.475 1.051 1.061z"></path>
<path fill="#57a300" opacity="0.2" d="M6.485 9.405c0 0.586-0.471 1.061-1.051 1.061s-1.051-0.475-1.051-1.061c0-0.586 0.471-1.061 1.051-1.061s1.051 0.475 1.051 1.061z"></path>
<path fill="#57a300" opacity="0.2" d="M8.267 6.527c0 0.586-0.471 1.061-1.051 1.061s-1.051-0.475-1.051-1.061c0-0.586 0.471-1.061 1.051-1.061s1.051 0.475 1.051 1.061z"></path>
<path fill="#57a300" d="M13.719 7.966c0 0.447-0.359 0.81-0.802 0.81s-0.802-0.362-0.802-0.81c0-0.447 0.359-0.81 0.802-0.81s0.802 0.362 0.802 0.81z"></path>
<path fill="#57a300" d="M13.719 18.041c0 0.447-0.359 0.81-0.802 0.81s-0.802-0.362-0.802-0.81c0-0.447 0.359-0.81 0.802-0.81s0.802 0.362 0.802 0.81z"></path>
<path fill="#57a300" d="M15.732 14.627c0 1.22-1.197 2.105-2.849 2.105-1.451 0-2.362-0.553-2.78-1.688l1.418-0.27c0.184 0.398 0.589 0.855 1.48 0.855s1.224-0.539 1.224-0.882c0-0.707-0.845-0.954-1.211-1.026-1.546-0.313-2.641-0.668-2.641-2.457 0-1.467 1.352-1.99 2.51-1.99 1.266 0 2.089 0.424 2.516 1.293l-1.224 0.391c-0.26-0.441-0.697-0.674-1.273-0.674-0.839 0-1.063 0.586-1.063 0.895 0 0.424 0.421 0.799 1.072 0.951 0.816 0.191 1.388 0.339 1.724 0.48 0.53 0.224 1.095 0.872 1.095 2.016z"></path>
<path fill="#57a300" d="M20.557 9.222c-1.457-2.915-4.559-4.753-7.638-4.878v1.375c2.569 0.125 5.204 1.694 6.418 4.122 1.78 3.559 0.359 7.915-3.168 9.711-3.102 1.582-7.056 0.49-9.158-2.214l-1.125 0.806c2.487 3.257 7.178 4.533 10.898 2.638 4.204-2.141 5.891-7.316 3.773-11.559z"></path>
<path fill="#57a300" d="M4.921 19.714l0.362-4.319 3.747 1.372-4.109 2.947z"></path>
</svg>
