<!-- Generated by IcoMoon.io -->
<svg version="1.1" xmlns="http://www.w3.org/2000/svg" width="32" height="32" viewBox="0 0 32 32">
<title>CDN-Profile</title>
<path fill="#b3b3b3" d="M12.143 19.076c0.207-0 0.376-0.163 0.376-0.364 0-0 0-0 0-0v0-0.098c0-0 0-0 0-0 0-0.201-0.168-0.364-0.376-0.364v0h-3.049c-0.001 0-0.001 0-0.002 0-0.208 0-0.376 0.163-0.376 0.364 0 0 0 0 0 0v-0 0.098c0 0 0 0 0 0 0 0.201 0.168 0.364 0.376 0.364 0.001 0 0.001 0 0.002 0h3.049z"></path>
<path fill="#a3a3a3" d="M10.981 20.804c0.207-0 0.376-0.163 0.376-0.364 0-0 0-0 0-0v0-0.098c0-0 0-0 0-0 0-0.201-0.168-0.364-0.376-0.364v0h-3.049c-0.001 0-0.001 0-0.002 0-0.208 0-0.376 0.163-0.376 0.364 0 0 0 0 0 0v-0 0.098c0 0 0 0 0 0 0 0.201 0.168 0.364 0.376 0.364 0.001 0 0.001 0 0.002 0h3.049z"></path>
<path fill="#7a7a7a" d="M12.143 22.531c0.207-0 0.376-0.163 0.376-0.364 0-0 0-0 0-0v0-0.098c0-0 0-0 0-0 0-0.201-0.168-0.364-0.376-0.364v0h-3.049c-0.001 0-0.001 0-0.002 0-0.208 0-0.376 0.163-0.376 0.364 0 0 0 0 0 0v-0 0.098c0 0 0 0 0 0 0 0.201 0.168 0.364 0.376 0.364 0.001 0 0.001 0 0.002 0h3.049z"></path>
<path fill="#000" d="M17.693 20.744c-0.024-1.169-0.864-2.128-1.954-2.296l-0.013-0.002c-0.050-1.608-1.324-2.892-2.889-2.892-0.020 0-0.040 0-0.060 0.001l0.003-0c-0.003 0-0.007-0-0.011-0-1.277 0-2.364 0.834-2.78 2.003l-0.007 0.021c-1.33 0.186-2.346 1.341-2.367 2.745l-0 0.002c0.054 1.552 1.286 2.789 2.798 2.789 0.016 0 0.031-0 0.047-0l-0.002 0h4.976c1.247-0.036 2.245-1.081 2.26-2.37v-0.001z"></path>
</svg>
