<!-- Generated by IcoMoon.io -->
<svg version="1.1" xmlns="http://www.w3.org/2000/svg" width="32" height="32" viewBox="0 0 32 32">
<title>Change-Analysis</title>
<path fill="#76bc2d" d="M10.513 22.456l-0.908-0.808 4.435-4.989 3.775 3.906 3.562-3.793 0.88 0.834-4.435 4.722-3.739-3.888-3.57 4.016z"></path>
<path fill="#000" d="M15.513 17.56c0 0.808-0.652 1.462-1.455 1.462s-1.455-0.655-1.455-1.462c0-0.808 0.652-1.462 1.455-1.462s1.455 0.655 1.455 1.462z"></path>
<path fill="#000" d="M19.271 21.327c0 0.808-0.652 1.462-1.455 1.462s-1.455-0.655-1.455-1.462c0-0.808 0.652-1.462 1.455-1.462s1.455 0.655 1.455 1.462z"></path>
<path fill="#000" d="M23.274 17.061c0 0.808-0.652 1.462-1.455 1.462s-1.455-0.655-1.455-1.462c0-0.808 0.652-1.462 1.455-1.462s1.455 0.655 1.455 1.462z"></path>
<path fill="#000" d="M11.636 21.812c0 0.808-0.652 1.462-1.455 1.462s-1.455-0.655-1.455-1.462c0-0.808 0.652-1.462 1.455-1.462s1.455 0.655 1.455 1.462z"></path>
<path fill="#0078d4" d="M20.433 15.368l-2.72 2.769-2.748-2.769c-0.712-0.696-1.154-1.669-1.154-2.745 0-1.039 0.412-1.981 1.080-2.671l-0.001 0.001 0.074-0.072c0.695-0.713 1.663-1.155 2.734-1.155 1.043 0 1.988 0.419 2.679 1.099l0.056 0.056c0.707 0.698 1.145 1.669 1.145 2.743 0 1.050-0.418 2.001-1.097 2.695l-0.048 0.048z"></path>
<path fill="#fff" d="M15.366 11.862c-0.058 0.201-0.092 0.432-0.092 0.671 0 0.463 0.127 0.897 0.347 1.268l-0.006-0.011c0.126 0.21 0.274 0.389 0.445 0.545l0.002 0.002c0.163 0.156 0.347 0.291 0.549 0.399l0.013 0.007c0.187 0.094 0.405 0.171 0.633 0.22l0.019 0.003c0.106 0.017 0.227 0.027 0.352 0.027s0.246-0.010 0.365-0.029l-0.013 0.002-0.062-0.672c-0.009-0.069-0.065-0.122-0.134-0.126h-0c-0.053 0.006-0.115 0.010-0.177 0.010s-0.125-0.004-0.186-0.010l0.008 0.001c-0.165-0.037-0.311-0.089-0.448-0.157l0.012 0.005c-0.147-0.075-0.274-0.165-0.386-0.27l0.001 0.001c-0.118-0.108-0.219-0.232-0.299-0.37l-0.004-0.007c-0.11-0.175-0.187-0.381-0.215-0.603l-0.001-0.007c-0.019-0.097-0.029-0.208-0.029-0.322s0.011-0.225 0.031-0.333l-0.002 0.011 0.234 0.385c0.025 0.022 0.058 0.035 0.094 0.035s0.069-0.013 0.094-0.036l-0 0 0.313-0.080c0.038-0.026 0.062-0.070 0.062-0.119 0-0.026-0.007-0.050-0.018-0.070l0 0.001-0.771-1.264c-0.021-0.054-0.072-0.092-0.132-0.092-0.014 0-0.027 0.002-0.040 0.006l0.001-0-1.302 0.774c-0.022 0.025-0.035 0.058-0.035 0.094s0.013 0.069 0.035 0.094l-0-0 0.159 0.279c0.025 0.042 0.071 0.069 0.122 0.069 0.024 0 0.046-0.006 0.066-0.016l-0.001 0 0.398-0.313zM18.068 10.902c0.164 0.031 0.31 0.084 0.444 0.158l-0.008-0.004c0.289 0.143 0.522 0.361 0.681 0.629l0.004 0.007c0.108 0.177 0.184 0.386 0.215 0.61l0.001 0.008c0.019 0.098 0.030 0.211 0.030 0.327s-0.011 0.229-0.032 0.338l0.002-0.011-0.223-0.385c-0.025-0.043-0.071-0.072-0.124-0.072-0.023 0-0.044 0.005-0.063 0.015l0.001-0-0.275 0.171c-0.044 0.023-0.073 0.068-0.073 0.12 0 0.022 0.005 0.044 0.015 0.062l-0-0.001-0.001 0.008 0.775 1.299c0.023 0.043 0.068 0.072 0.119 0.072 0.022 0 0.043-0.005 0.062-0.015l-0.001 0 0.008 0.001 1.293-0.78c0.024-0.024 0.038-0.057 0.038-0.094s-0.015-0.070-0.038-0.094v0l-0.159-0.279c-0.025-0.022-0.058-0.035-0.094-0.035s-0.069 0.013-0.094 0.035l0-0-0.446 0.269c0.058-0.198 0.091-0.426 0.091-0.661 0-0.115-0.008-0.229-0.023-0.34l0.001 0.013c-0.040-0.355-0.154-0.676-0.326-0.957l0.006 0.010c-0.122-0.212-0.267-0.395-0.435-0.553l-0.001-0.001c-0.167-0.149-0.354-0.281-0.557-0.388l-0.015-0.007c-0.188-0.1-0.407-0.177-0.637-0.221l-0.015-0.002c-0.163-0.048-0.352-0.079-0.547-0.087l-0.005-0c-0.071 0.009-0.125 0.069-0.125 0.142 0 0.004 0 0.007 0 0.011l-0-0-0.001 0.53c0.009 0.069 0.065 0.121 0.134 0.126l0 0c0.030-0.002 0.066-0.003 0.102-0.003 0.105 0 0.208 0.011 0.308 0.031l-0.010-0.002z"></path>
</svg>
