<!-- Generated by IcoMoon.io -->
<svg version="1.1" xmlns="http://www.w3.org/2000/svg" width="24" height="32" viewBox="0 0 24 32">
<title>Citrix-Virtual-Desktop-Essentials</title>
<path d="M17.646 21.986c-1.436 0-2.79-0.72-3.605-1.923-0.459-0.691-1.217-1.090-2.032-1.090-0.829 0-1.563 0.399-2.032 1.090-0.804 1.203-2.145 1.937-3.609 1.937-2.406 0-4.353-1.951-4.353-4.353 0-1.439 0.72-2.794 1.923-3.609 0.688-0.455 1.090-1.217 1.090-2.032 0-0.829-0.402-1.563-1.090-2.032-1.203-0.801-1.937-2.141-1.937-3.605 0-2.406 1.947-4.357 4.353-4.357 1.439 0 2.794 0.72 3.609 1.923 0.455 0.691 1.217 1.094 2.032 1.094s1.573-0.416 2.032-1.094c0.801-1.203 2.141-1.933 3.605-1.933 2.406 0 4.353 1.947 4.353 4.353 0 1.436-0.716 2.79-1.919 3.605-0.691 0.459-1.094 1.217-1.094 2.032 0 0.829 0.402 1.563 1.094 2.032 1.203 0.801 1.933 2.141 1.933 3.609 0 2.406-1.947 4.353-4.353 4.353zM12.008 17.799c1.199 0 2.321 0.593 2.999 1.602 0.607 0.885 1.588 1.411 2.639 1.411 1.757 0 3.179-1.425 3.179-3.179 0-1.065-0.526-2.046-1.408-2.642-1.009-0.677-1.619-1.81-1.619-3.013s0.596-2.321 1.605-2.999c0.882-0.607 1.408-1.588 1.408-2.639 0-1.757-1.422-3.179-3.179-3.179-1.062 0-2.046 0.526-2.639 1.408-0.677 1.009-1.81 1.619-2.999 1.619s-2.325-0.596-3.002-1.605c-0.607-0.885-1.588-1.408-2.639-1.408-1.753 0-3.179 1.422-3.179 3.179 0 1.062 0.526 2.046 1.411 2.639 1.009 0.677 1.616 1.81 1.616 2.999 0 1.203-0.593 2.321-1.602 2.999-0.885 0.61-1.411 1.591-1.411 2.642 0 1.753 1.422 3.179 3.179 3.179 1.065 0 2.046-0.526 2.639-1.411 0.677-1.009 1.799-1.602 3.002-1.602z"></path>
<path d="M12.005 16.983c-0.882 0-1.767-0.332-2.445-0.995l-1.506-1.492c-1.355-1.355-1.369-3.567-0.028-4.935l1.492-1.506c1.355-1.355 3.567-1.369 4.935-0.028l1.506 1.492c0.663 0.649 1.037 1.535 1.037 2.462 0 0.938-0.36 1.81-1.009 2.473l-1.492 1.506c-0.677 0.677-1.577 1.023-2.491 1.023zM11.991 8.178c-0.593 0-1.199 0.222-1.658 0.677l-1.478 1.52c-0.9 0.914-0.885 2.378 0.014 3.291l1.506 1.492c0.914 0.896 2.378 0.882 3.291-0.014l1.492-1.506c0.441-0.444 0.677-1.023 0.677-1.647 0-0.621-0.25-1.199-0.691-1.63l-1.506-1.492c-0.459-0.469-1.051-0.691-1.647-0.691z"></path>
</svg>
