<!-- Generated by IcoMoon.io -->
<svg version="1.1" xmlns="http://www.w3.org/2000/svg" width="30" height="32" viewBox="0 0 30 32">
<title>Cloud-Simple-Virtual-Machine</title>
<path fill="#83bc41" d="M16.52 17.726c-0.255 0.182-0.552 0.364-0.86 0.525l-0.046 0.022c-0.332 0.18-0.737 0.362-1.155 0.515l-0.071 0.023c-0.434 0.157-0.962 0.299-1.503 0.399l-0.065 0.010c-0.569 0.108-1.224 0.169-1.893 0.169-0.031 0-0.063-0-0.094-0l0.005 0c-0.020 0-0.043 0-0.066 0-1.132 0-2.219-0.208-3.229-0.592l0.068 0.023c-1.022-0.382-1.902-0.953-2.646-1.682l0.006 0.006c-0.753-0.751-1.358-1.663-1.768-2.687l-0.018-0.051c-0.42-1.056-0.664-2.284-0.664-3.575 0-0.064 0.001-0.127 0.002-0.19l-0 0.009c-0.001-0.051-0.001-0.112-0.001-0.172 0-1.304 0.237-2.547 0.668-3.684l-0.022 0.065c0.421-1.097 1.027-2.027 1.782-2.787l0.005-0.004c0.75-0.741 1.647-1.325 2.636-1.694l0.053-0.017c0.972-0.369 2.093-0.582 3.26-0.582 0.024 0 0.049 0 0.073 0l-0.004-0c0.055-0.001 0.12-0.002 0.186-0.002 0.842 0 1.664 0.098 2.455 0.283l-0.076-0.015c0.648 0.142 1.224 0.365 1.757 0.663l-0.037-0.019c0.184 0.114 0.341 0.227 0.49 0.35l-0.010-0.008c0.484 0.322 0.801 0.892 0.801 1.541 0 0.261-0.051 0.509-0.143 0.732l0.004-0.011c-0.044 0.123-0.103 0.229-0.175 0.322l0.001-0.002c-0.596 0.831-1.831 0.347-2.533 0-0.708-0.328-1.532-0.519-2.396-0.519-0.065 0-0.13 0.001-0.195 0.003l0.009-0c-0.016-0-0.036-0-0.055-0-0.677 0-1.327 0.12-1.934 0.343l0.043-0.013c-0.611 0.221-1.136 0.568-1.571 1.015l0.002-0.002c-0.444 0.467-0.799 1.031-1.034 1.661l-0.011 0.032c-0.24 0.666-0.38 1.437-0.38 2.243 0 0.058 0.001 0.117 0.002 0.175l-0-0.009c-0.001 0.053-0.002 0.116-0.002 0.178 0 0.833 0.146 1.628 0.412 2.359l-0.014-0.044c0.255 0.672 0.633 1.24 1.107 1.694l0.004 0.004c0.457 0.429 1.001 0.764 1.599 0.968l0.032 0.009c0.567 0.192 1.22 0.303 1.896 0.303 0.035 0 0.070-0 0.105-0.001l-0.005 0c0.070 0.003 0.153 0.005 0.236 0.005 0.806 0 1.575-0.167 2.281-0.47l-0.042 0.016c0.506-0.23 0.925-0.459 1.328-0.715l-0.052 0.031 1.467 2.849z"></path>
<path fill="#496487" d="M14.169 14.766c0.22 0.157 0.473 0.303 0.738 0.423l0.031 0.012c0.352 0.172 0.804 0.358 1.267 0.518l0.097 0.029c0.509 0.182 1.136 0.35 1.778 0.471l0.084 0.013c0.659 0.127 1.417 0.2 2.191 0.2 0.030 0 0.060-0 0.090-0l-0.005 0c0.065 0.002 0.141 0.004 0.218 0.004 0.858 0 1.68-0.168 2.439-0.474l-0.048 0.017c0.593-0.208 1.014-0.8 1.014-1.499 0-0.017-0-0.034-0.001-0.050l0 0.002c0.001-0.024 0.002-0.052 0.002-0.081 0-0.549-0.254-1.034-0.641-1.324l-0.005-0.004c-0.667-0.395-1.456-0.644-2.295-0.684l-0.011-0-2.382-0.302c-0.832-0.088-1.594-0.259-2.324-0.508l0.080 0.023c-0.684-0.217-1.279-0.541-1.807-0.959l0.016 0.012c-0.479-0.392-0.866-0.889-1.136-1.461l-0.010-0.024c-0.262-0.579-0.415-1.261-0.415-1.98 0-0.044 0.001-0.089 0.002-0.133l-0 0.006c-0-0.008-0-0.018-0-0.027 0-0.717 0.141-1.398 0.394-2.013l-0.012 0.032c0.28-0.669 0.684-1.23 1.183-1.669l0.008-0.007c0.613-0.515 1.338-0.91 2.127-1.136l0.042-0.010c0.908-0.27 1.951-0.424 3.027-0.424 0.076 0 0.153 0.001 0.229 0.002l-0.011-0c0.169-0.008 0.367-0.012 0.565-0.012 1.574 0 3.087 0.284 4.496 0.808l-0.097-0.031c0.391 0.172 0.727 0.375 1.037 0.615l-0.015-0.011c0.455 0.269 0.759 0.783 0.759 1.373 0 0.263-0.060 0.511-0.167 0.729l0.004-0.008c-0.529 1.076-1.649 0.569-1.751 0.511-0.217-0.125-0.484-0.255-0.758-0.368l-0.051-0.018c-1.133-0.454-2.441-0.717-3.806-0.717-0.056 0-0.111 0-0.167 0.001l0.008-0c-2.382 0-3.578 0.676-3.578 2.027-0 0.009-0 0.019-0 0.030 0 0.536 0.269 1.004 0.669 1.255l0.006 0.004c0.561 0.331 1.22 0.55 1.921 0.608l0.017 0.001 3.129 0.444c1.492 0.144 2.843 0.691 3.988 1.54l-0.029-0.020c0.868 0.728 1.422 1.857 1.422 3.125 0 0.095-0.003 0.19-0.009 0.283l0.001-0.013c0.001 0.040 0.002 0.087 0.002 0.135 0 1.582-0.715 2.984-1.816 3.847l-0.013 0.009c-1.222 0.996-2.978 1.493-5.271 1.493-0.038 0-0.083 0.001-0.128 0.001-1.026 0-2.030-0.099-3.006-0.288l0.103 0.017c-0.919-0.169-1.711-0.379-2.48-0.643l0.129 0.038c-0.63-0.216-1.16-0.45-1.668-0.722l0.068 0.033c-0.307-0.152-0.569-0.318-0.815-0.509l0.015 0.011 1.333-2.573z"></path>
<path fill="#83bc41" d="M14.938 15.193l-0.236-0.107c-0.307 0.173-0.596 0.333-0.938 0.48l-0.529 0.898-0.418 0.876c0.223 0.196 0.476 0.368 0.746 0.505l0.023 0.010c0.444 0.319 0.971 0.546 1.538 0.641l0.022 0.003 0.453-0.218c0.355-0.184 0.652-0.367 0.935-0.57l-0.029 0.019-1.236-2.378-0.333-0.16z"></path>
</svg>
