<!-- Generated by IcoMoon.io -->
<svg version="1.1" xmlns="http://www.w3.org/2000/svg" width="29" height="32" viewBox="0 0 29 32">
<title>Cloud-Service-Classic</title>
<path fill="#59b4d9" d="M22.125 10.411c0.079-0.371 0.119-0.728 0.119-1.081 0-2.711-2.206-4.917-4.92-4.917-0.002 0-0.005 0-0.008 0-1.926 0-3.592 1.112-4.395 2.729l-0.013 0.029c-0.64-0.639-1.524-1.035-2.499-1.035-0.001 0-0.002 0-0.003 0h0c-1.946 0-3.529 1.586-3.529 3.536 0 0.263 0.029 0.53 0.090 0.804-1.604 0.656-2.556 2.011-2.556 3.662 0 2.228 1.817 3.969 4.134 3.969h0.263c0.043 2.037 1.709 3.677 3.745 3.677 0.002 0 0.005 0 0.008 0 1.394 0 2.61-0.765 3.252-1.899l0.010-0.019c0.474 0.414 1.098 0.666 1.781 0.667h0c1.399 0 2.556-1.060 2.718-2.426h0.393c2.318 0 4.131-1.741 4.131-3.969 0-1.719-1.038-3.132-2.721-3.727z"></path>
<path fill="#fff" d="M20.531 12.268l0.299-0.714-0.087-0.076-0.656-0.57 0.004-0.58 0.739-0.663-0.288-0.717-0.115 0.011-0.869 0.061-0.407-0.411 0.058-0.995-0.714-0.303-0.076 0.087-0.57 0.66-0.577-0.004-0.663-0.739-0.717 0.288 0.011 0.115 0.061 0.869-0.411 0.407-0.991-0.054-0.303 0.714 0.086 0.072 0.66 0.573-0.004 0.577-0.743 0.663 0.292 0.717 0.115-0.007 0.869-0.061 0.404 0.411-0.054 0.995 0.71 0.299 0.076-0.086 0.57-0.656 0.58 0.004 0.66 0.739 0.717-0.288-0.007-0.115-0.061-0.872 0.411-0.404 0.991 0.054zM16.93 12.063c-0.596-0.236-1.010-0.809-1.010-1.477 0-0.875 0.708-1.585 1.583-1.585 0.238 0 0.464 0.053 0.666 0.147l-0.010-0.004c0.551 0.256 0.926 0.805 0.926 1.442 0 0.875-0.709 1.585-1.582 1.585-0.206 0-0.403-0.039-0.584-0.111l0.011 0.004zM16.003 15.851v-0.775l-0.112-0.032-0.825-0.274-0.22-0.533 0.425-0.898-0.548-0.548-0.101 0.050-0.779 0.396-0.533-0.223-0.332-0.937h-0.775l-0.036 0.108-0.27 0.829-0.533 0.22-0.898-0.425-0.544 0.548 0.050 0.105 0.393 0.779-0.22 0.53-0.937 0.335v0.775l0.108 0.036 0.829 0.27 0.22 0.537-0.425 0.898 0.548 0.548 0.101-0.050 0.779-0.396 0.53 0.22 0.335 0.937 0.771 0.004 0.036-0.112 0.274-0.829 0.53-0.22 0.898 0.425 0.548-0.544-0.050-0.105-0.393-0.779 0.22-0.533 0.937-0.335zM12.604 17.066c-0.874-0.001-1.582-0.711-1.582-1.586s0.709-1.586 1.584-1.586c0.001 0 0.001 0 0.002 0h-0c0.874 0.001 1.582 0.711 1.582 1.586s-0.709 1.586-1.584 1.586c-0.001 0-0.001 0-0.002 0h0z"></path>
<path fill="#b8d432" d="M18.492 11.005c-0.159 0.374-0.523 0.632-0.948 0.632-0.567 0-1.027-0.461-1.027-1.029 0-0.146 0.030-0.285 0.085-0.41l-0.003 0.007c0.161-0.371 0.523-0.625 0.945-0.625 0.567 0 1.027 0.461 1.027 1.029 0 0.143-0.029 0.279-0.082 0.403l0.003-0.007zM13.633 15.478c0 0.568-0.46 1.029-1.027 1.029s-1.027-0.461-1.027-1.029v0c0-0.568 0.46-1.029 1.027-1.029s1.027 0.461 1.027 1.029v0z"></path>
</svg>
