<!-- Generated by IcoMoon.io -->
<svg version="1.1" xmlns="http://www.w3.org/2000/svg" width="24" height="32" viewBox="0 0 24 32">
<title>Cloud-Simple-Service</title>
<path fill="#e4e4e4" d="M2 21.168c0 0.46 0.373 0.832 0.833 0.833h18.334c0.46-0 0.832-0.373 0.833-0.832v-18.334c-0-0.46-0.373-0.832-0.832-0.833h-18.334c-0.46 0-0.832 0.373-0.833 0.833v18.334z"></path>
<path fill="#81ba33" d="M13.003 16.463c-0.113 0.081-0.268 0.18-0.473 0.293s-0.462 0.226-0.769 0.335c-0.31 0.109-0.674 0.205-1.094 0.286s-0.893 0.12-1.422 0.12c-0.748 0-1.457-0.113-2.124-0.339-0.67-0.222-1.256-0.561-1.76-1.009-0.501-0.448-0.9-1.005-1.196-1.676-0.293-0.667-0.441-1.446-0.441-2.332 0-0.868 0.141-1.64 0.427-2.314 0.282-0.674 0.674-1.242 1.168-1.704 0.494-0.466 1.072-0.818 1.736-1.062 0.663-0.247 1.379-0.367 2.145-0.367 0.409 0 0.78 0.025 1.108 0.074s0.621 0.113 0.875 0.194c0.255 0.077 0.472 0.164 0.679 0.266l-0.026-0.012c0.18 0.092 0.325 0.169 0.434 0.24 0.229 0.169 0.392 0.346 0.494 0.533 0.099 0.183 0.148 0.374 0.148 0.575 0 0.191-0.035 0.37-0.113 0.54-0.076 0.174-0.166 0.323-0.272 0.46l0.004-0.005c-0.098 0.128-0.2 0.241-0.312 0.344l-0.002 0.002c-0.077 0.073-0.163 0.14-0.254 0.197l-0.007 0.004c-0.102-0.102-0.229-0.219-0.385-0.353-0.162-0.139-0.345-0.261-0.542-0.36l-0.015-0.007c-0.214-0.107-0.466-0.203-0.728-0.275l-0.030-0.007c-0.282-0.081-0.6-0.12-0.949-0.12-0.437 0-0.836 0.071-1.196 0.215-0.366 0.148-0.677 0.361-0.934 0.627l-0.001 0.001c-0.265 0.275-0.469 0.607-0.614 0.995-0.145 0.392-0.219 0.829-0.219 1.319 0 0.497 0.081 0.935 0.24 1.316 0.159 0.377 0.381 0.695 0.66 0.949 0.278 0.251 0.609 0.447 0.975 0.569l0.020 0.006c0.385 0.131 0.801 0.198 1.249 0.198 0.557 0 1.041-0.071 1.443-0.212 0.406-0.138 0.713-0.282 0.921-0.434l1.122 1.93h0.032z"></path>
<path fill="#486385" d="M12.109 14.294c0.060 0.049 0.194 0.127 0.402 0.233 0.212 0.106 0.473 0.208 0.794 0.314 0.318 0.106 0.688 0.201 1.108 0.286s0.871 0.127 1.362 0.127c0.399 0 0.716-0.028 0.956-0.085 0.24-0.053 0.423-0.127 0.554-0.215s0.215-0.191 0.254-0.307c0.039-0.113 0.060-0.233 0.060-0.353 0-0.24-0.099-0.434-0.293-0.589s-0.554-0.279-1.083-0.367l-1.528-0.272c-0.465-0.082-0.868-0.185-1.258-0.314l0.062 0.018c-0.408-0.132-0.762-0.316-1.080-0.547l0.011 0.007c-0.318-0.235-0.577-0.529-0.766-0.868l-0.007-0.014c-0.198-0.36-0.296-0.804-0.296-1.334 0-0.459 0.085-0.889 0.254-1.295 0.18-0.42 0.443-0.773 0.772-1.051l0.004-0.003c0.349-0.296 0.79-0.533 1.323-0.709 0.536-0.176 1.161-0.261 1.88-0.261 0.519 0 0.97 0.028 1.362 0.081 0.388 0.056 0.723 0.123 1.002 0.201 0.279 0.081 0.504 0.162 0.681 0.24 0.173 0.081 0.3 0.145 0.381 0.194 0.169 0.102 0.332 0.24 0.487 0.413 0.155 0.176 0.233 0.381 0.233 0.621 0 0.169-0.032 0.332-0.092 0.487-0.063 0.164-0.135 0.304-0.221 0.436l0.005-0.009c-0.085 0.127-0.176 0.24-0.279 0.335-0.078 0.076-0.16 0.148-0.248 0.214l-0.006 0.005c-0.099-0.102-0.25-0.212-0.448-0.339-0.206-0.127-0.444-0.24-0.694-0.327l-0.026-0.008c-0.279-0.102-0.596-0.187-0.956-0.254-0.338-0.067-0.727-0.106-1.125-0.106-0.010 0-0.020 0-0.030 0h0.002c-0.388 0-0.698 0.032-0.928 0.099-0.229 0.063-0.399 0.145-0.515 0.236-0.116 0.095-0.191 0.205-0.226 0.325-0.031 0.098-0.051 0.21-0.053 0.327l-0 0.001c0 0.088 0.014 0.173 0.039 0.254s0.085 0.155 0.18 0.233c0.095 0.074 0.229 0.145 0.406 0.208 0.173 0.063 0.409 0.127 0.709 0.187l1.588 0.314c0.557 0.109 1.048 0.247 1.471 0.413 0.423 0.162 0.783 0.367 1.072 0.607 0.279 0.23 0.5 0.521 0.643 0.853l0.006 0.015c0.145 0.339 0.215 0.741 0.215 1.21 0 1.048-0.388 1.866-1.171 2.455-0.783 0.586-1.887 0.882-3.316 0.882-0.649 0-1.242-0.056-1.789-0.166-0.543-0.109-1.020-0.236-1.429-0.381-0.406-0.145-0.741-0.282-0.995-0.413-0.254-0.127-0.406-0.219-0.455-0.268l1.034-1.976z"></path>
</svg>
