<!-- Generated by IcoMoon.io -->
<svg version="1.1" xmlns="http://www.w3.org/2000/svg" width="24" height="32" viewBox="0 0 24 32">
<title>Cognitive-Services-Search</title>
<path fill="#3176bc" d="M10.714 2.241c0.603 0.159 1.125 0.399 1.647 0.677 0.483 0.321 0.963 0.681 1.365 1.083 0.402 0.437 0.762 0.878 1.087 1.397 0.279 0.522 0.522 1.041 0.681 1.64 0.162 0.6 0.24 1.199 0.24 1.841 0 0.801-0.12 1.598-0.399 2.318-0.282 0.723-0.684 1.443-1.207 2.043l7.669 7.68c0.123 0.12 0.201 0.279 0.201 0.437 0 0.162-0.078 0.321-0.201 0.441-0.12 0.12-0.279 0.201-0.441 0.201-0.159 0-0.321-0.081-0.441-0.201l-7.631-7.638c-0.642 0.519-1.326 0.917-2.050 1.199-0.762 0.279-1.524 0.399-2.328 0.399-0.642 0-1.245-0.081-1.849-0.24-0.6-0.159-1.122-0.399-1.644-0.681-0.522-0.279-0.967-0.639-1.408-1.079-0.402-0.441-0.762-0.878-1.083-1.401-0.282-0.519-0.522-1.041-0.684-1.64-0.159-0.6-0.24-1.199-0.24-1.838 0-0.642 0.081-1.242 0.24-1.841 0.162-0.6 0.402-1.118 0.684-1.64 0.282-0.48 0.642-0.96 1.044-1.397 0.402-0.402 0.882-0.762 1.404-1.083 0.522-0.279 1.044-0.519 1.647-0.677 0.603-0.162 1.206-0.24 1.849-0.24s1.245 0.078 1.845 0.24zM11.077 14.038c0.681-0.279 1.284-0.677 1.806-1.199 0.522-0.519 0.924-1.118 1.207-1.799 0.279-0.681 0.441-1.401 0.441-2.201 0-0.758-0.162-1.517-0.441-2.198-0.282-0.681-0.684-1.281-1.207-1.799-0.522-0.522-1.125-0.921-1.806-1.203-0.684-0.279-1.408-0.437-2.208-0.437-0.804 0-1.528 0.159-2.208 0.437-0.684 0.363-1.288 0.762-1.767 1.281-0.483 0.522-0.924 1.079-1.245 1.76-0.282 0.681-0.441 1.401-0.441 2.201 0 0.758 0.159 1.52 0.441 2.198 0.279 0.681 0.681 1.281 1.203 1.803 0.522 0.519 1.125 0.917 1.81 1.199 0.681 0.279 1.404 0.441 2.208 0.441 0.801 0 1.485-0.162 2.208-0.483z"></path>
</svg>
