<!-- Generated by IcoMoon.io -->
<svg version="1.1" xmlns="http://www.w3.org/2000/svg" width="32" height="32" viewBox="0 0 32 32">
<title>Cognitive-Services</title>
<path fill="#000" d="M20.153 21.609c-0.032-1.38-1.086-2.508-2.442-2.679l-0.014-0.001c-0.084-1.88-1.648-3.373-3.566-3.373-0.038 0-0.077 0.001-0.115 0.002l0.006-0c-0.024-0.001-0.052-0.001-0.080-0.001-1.559 0-2.891 0.958-3.425 2.309l-0.009 0.025c-1.65 0.204-2.92 1.564-2.953 3.223l-0 0.003c0.072 1.813 1.579 3.255 3.427 3.255 0.043 0 0.085-0.001 0.128-0.002l-0.006 0h6.053c0.023 0.003 0.050 0.006 0.078 0.006s0.054-0.002 0.081-0.006l-0.003 0c1.548-0.016 2.801-1.238 2.84-2.759l0-0.004z"></path>
<path fill="#9cebff" d="M11.349 20.924h-0.616c-0.081-0.336-0.383-0.583-0.743-0.583-0.421 0-0.763 0.337-0.763 0.753s0.342 0.753 0.763 0.753c0.36 0 0.662-0.246 0.742-0.578l0.001-0.005h0.616c0.077 0 0.14 0.062 0.14 0.138v0l0 2.969h0.342v-2.969c0-0 0-0.001 0-0.001 0-0.263-0.216-0.476-0.482-0.477h-0zM9.985 21.532c-0 0-0.001 0-0.001 0-0.247 0-0.448-0.198-0.448-0.442s0.201-0.442 0.448-0.442c0.247 0 0.448 0.198 0.448 0.442v0c0 0 0 0 0 0 0 0.244-0.2 0.441-0.447 0.442h-0z"></path>
<path fill="#f2f2f2" d="M13.813 21.075v-0.691c-0.001-0.266-0.219-0.482-0.489-0.482h-1.087c-0.077 0-0.14-0.062-0.14-0.138v0l-0-3.669-0.16 0.084-0.182 0.096v3.453c0 0 0 0.001 0 0.001 0 0.263 0.216 0.476 0.482 0.477h1.087c0.081 0 0.147 0.065 0.147 0.145v0l-0 0.691c-0.343 0.075-0.596 0.373-0.596 0.729 0 0.001 0 0.002 0 0.002v-0c0 0 0 0.001 0 0.002 0 0.416 0.342 0.753 0.763 0.753s0.763-0.337 0.763-0.753c0-0.355-0.248-0.652-0.583-0.732l-0.005-0.001v0.033zM13.637 22.251c-0.247-0.001-0.447-0.198-0.447-0.442s0.201-0.442 0.448-0.442c0.247 0 0.448 0.198 0.448 0.442v0c0 0 0 0 0 0 0 0.244-0.201 0.442-0.448 0.442-0 0-0.001 0-0.001 0h0z"></path>
<path fill="#9cebff" d="M17.725 19.619c-0.419 0.003-0.758 0.339-0.758 0.753 0 0.353 0.246 0.649 0.577 0.73l0.005 0.001v0.138c0 0.080-0.066 0.145-0.147 0.145v0l-1.4-0.001v-2.431c-0.001-0.263-0.216-0.475-0.482-0.476h-0.722c-0.077-0.338-0.378-0.587-0.738-0.587-0.001 0-0.001 0-0.002 0h0c-0.001 0-0.002 0-0.003 0-0.421 0-0.763 0.337-0.763 0.753s0.342 0.753 0.763 0.753c0.36 0 0.661-0.246 0.742-0.576l0.001-0.005h0.749c0.077 0 0.14 0.062 0.14 0.138v0l0 5.415h0.344v-2.644h1.4c0.27-0.001 0.489-0.217 0.489-0.483 0-0 0-0.001 0-0.001v0-0.138c0.342-0.078 0.594-0.375 0.596-0.731v-0c0-0 0-0.001 0-0.001 0-0.416-0.342-0.753-0.763-0.753-0.010 0-0.020 0-0.030 0.001l0.001-0zM14.059 19.086c-0 0-0.001 0-0.001 0-0.247 0-0.448-0.198-0.448-0.442s0.201-0.442 0.448-0.442c0.247 0 0.448 0.198 0.448 0.442 0 0.001 0 0.001 0 0.002v-0c-0.001 0.243-0.201 0.439-0.447 0.44h-0zM17.725 20.815c-0.002 0-0.005 0-0.008 0-0.247 0-0.448-0.198-0.448-0.442s0.201-0.442 0.448-0.442c0.247 0 0.448 0.198 0.448 0.442v0c0 0 0 0 0 0 0 0.241-0.196 0.438-0.44 0.442h-0z"></path>
</svg>
