<!-- Generated by IcoMoon.io -->
<svg version="1.1" xmlns="http://www.w3.org/2000/svg" width="29" height="32" viewBox="0 0 29 32">
<title>Compute--App</title>
<path fill="#7c7b7b" d="M14.616 19.439v-0.015c0-0.983 0.298-1.895 0.805-2.657l-0.012 0.018h-3.898c0.488 1.723-0.166 1.969-3.060 1.969v0.909h6.166v-0.224z"></path>
<path fill="#9fa0a2" d="M19.454 21.109c0 0 0.001 0 0.002 0 0.507 0 0.996 0.079 1.455 0.224l-0.034-0.009-0.037-0.009v-8.061c-0.028-0.48-0.419-0.86-0.902-0.872l-0.001-0h-13.247c-0.454 0.019-0.815 0.39-0.815 0.846 0 0.010 0 0.020 0.001 0.031l-0-0.001v-0.003 9.204c0.003 0.451 0.362 0.817 0.81 0.832l0.001 0h8.743c0.872-1.315 2.35-2.172 4.024-2.181v0 0z"></path>
<path fill="#fff" opacity="0.2" d="M19.937 12.382h-13.247c-0.454 0.019-0.815 0.39-0.815 0.846 0 0.010 0 0.020 0.001 0.031l-0-0.001v-0.003 9.204c0.003 0.451 0.362 0.817 0.81 0.832l0.001 0h0.316l12.933-10.909z"></path>
<path fill="#5bb4da" d="M19.457 14.602h0.218v-7.576h-12.663v8.614h9.453c0.808-0.647 1.846-1.038 2.975-1.038 0.005 0 0.010 0 0.014 0h0.002z"></path>
<path fill="#5bb4da" d="M7.012 15.645h0.012v-8.617l11.579-0.018-11.591 0.018v8.617z"></path>
<path fill="#b8d433" d="M13.51 6.5v0.003c0 0.116-0.094 0.209-0.21 0.209v0c-0 0-0 0-0.001 0-0.121 0-0.219-0.098-0.219-0.218s0.098-0.218 0.219-0.218c0 0 0 0 0.001 0h-0c0.118-0 0.21 0.095 0.21 0.212v0.012z"></path>
<path fill="#fff" d="M13.519 11.072h-0.040l-2.62-1.518c-0.022-0.016-0.037-0.041-0.039-0.069l-0-0-0.001-0.001c0-0.028 0.015-0.055 0.040-0.071v0l2.62-1.508c0.011-0.006 0.025-0.010 0.039-0.010s0.029 0.004 0.041 0.010l-0-0 0.001-0.001 2.624 1.518c0.021 0.018 0.037 0.043 0.040 0.071v0c-0 0.029-0.015 0.055-0.038 0.070l-0 0-0.001 0.001-2.624 1.508h-0.040z"></path>
<path fill="#fff" opacity="0.7" d="M13.144 14.764c-0.006 0.003-0.012 0.003-0.018 0.003s-0.015 0-0.021-0.003v0l-2.62-1.508c-0.022-0.016-0.037-0.041-0.039-0.069l-0-0-0.001-3.055c0-0.031 0.015-0.055 0.040-0.071v0c0.012-0.009 0.025-0.012 0.040-0.012s0.031 0.003 0.043 0.012l2.62 1.515c0.024 0.015 0.039 0.040 0.039 0.070v0l0.001 3.054c-0.002 0.028-0.017 0.051-0.038 0.065l-0 0-0.001-0.001c-0.006 0.002-0.013 0.003-0.020 0.003s-0.014-0.001-0.020-0.003l0.001 0h-0.003z"></path>
<path fill="#fff" opacity="0.4" d="M13.889 14.763h-0.046c-0.021-0.014-0.035-0.038-0.035-0.065 0-0 0-0 0-0v0l0.001-3.037c0-0.025 0.012-0.049 0.034-0.065h0.003l2.62-1.515c0.012-0.006 0.026-0.010 0.041-0.010s0.030 0.004 0.043 0.010l-0-0-0.001-0.001c0.021 0.018 0.037 0.043 0.040 0.071v3.020c-0.003 0.029-0.017 0.054-0.039 0.070l-0 0-2.621 1.509c-0.006 0.002-0.013 0.003-0.020 0.003s-0.014-0.001-0.020-0.003l0.001 0h-0v0.012z"></path>
<path fill="#5bb4da" d="M21.771 22.458c-0.657 0.519-1.498 0.833-2.413 0.833-0.004 0-0.008 0-0.012-0h0.001c-2.172-0.001-3.933-1.759-3.933-3.927s1.761-3.927 3.934-3.927c1.272 0 2.404 0.603 3.123 1.539l0.007 0.009 0.006 0.009c0.504 0.647 0.808 1.472 0.808 2.367 0 0.003 0 0.006 0 0.009v-0c0 0.002 0 0.003 0 0.005 0 1.248-0.588 2.36-1.503 3.073l-0.009 0.006-0.009 0.006z"></path>
<path fill="#fff" d="M21.052 20.057c0.161 0.196 0.404 0.32 0.676 0.32 0.191 0 0.368-0.061 0.512-0.165l-0.003 0.002h-0.003l0.049-0.052 0.793 0.55c0.034-0.086 0.068-0.197 0.098-0.313l0.006-0.021c-0.274-0.206-0.493-0.38-0.709-0.557l0.036 0.029c0.037-0.091 0.058-0.196 0.058-0.306 0-0.46-0.374-0.834-0.835-0.834-0.159 0-0.308 0.044-0.434 0.122l0.004-0.002h0.003c-0.476-0.429-0.903-0.829-1.323-1.236l0.011 0.011c0.676-0.418 1.495-0.665 2.372-0.665 0.044 0 0.088 0.001 0.132 0.002l-0.006-0h-0.003c-0.178-0.218-0.372-0.412-0.584-0.584l-0.006-0.006c-0.179-0.027-0.385-0.043-0.595-0.043-0.754 0-1.461 0.201-2.071 0.551l0.020-0.011 0.021-0.009c-0.354-0.37-0.712-0.762-1.061-1.163l-0.036-0.042c-0.206 0.065-0.378 0.135-0.544 0.218l0.021-0.009c0.326 0.504 0.677 0.944 1.068 1.344l-0.002-0.002-0.003-0.003c-0.404 0.287-0.759 0.594-1.082 0.931l-0.003 0.003-0.003 0.003-0.132 0.151c-0.076-0.018-0.162-0.029-0.252-0.029-0.145 0-0.283 0.027-0.41 0.077l0.008-0.003 0.009-0.003c-0.19-0.368-0.301-0.804-0.301-1.265 0-0.002 0-0.005 0-0.007v0c0-0.151 0.012-0.298 0.037-0.442l-0.003 0.015c-0.157 0.154-0.301 0.32-0.43 0.498l-0.006 0.012c-0.041 0.168-0.064 0.361-0.064 0.559v0c0 0.369 0.080 0.722 0.224 1.038l-0.009-0.018c-0.147 0.197-0.24 0.449-0.24 0.719s0.092 0.519 0.243 0.722l-0.003-0.003c0.028 0.034 0.058 0.064 0.089 0.098-0.124 0.402-0.206 0.866-0.227 1.346l-0 0.012v0.012c0.034 0.049 0.034 0.092 0.074 0.141 0.194 0.233 0.409 0.439 0.642 0.621l0.009 0.006c-0.006-0.083-0.009-0.18-0.009-0.278 0-0.551 0.105-1.077 0.296-1.561l-0.010 0.029-0.009 0.031c0.028 0.002 0.061 0.004 0.094 0.004 0.166 0 0.323-0.034 0.466-0.096l-0.008 0.003h-0.006l0.32 0.267c0.332 0.267 0.707 0.507 1.103 0.71l0.037 0.015c-0.003 0.024-0.004 0.052-0.004 0.080 0 0.179 0.059 0.345 0.159 0.478l-0.002-0.002v-0.003c0.144 0.186 0.368 0.305 0.619 0.305 0.179 0 0.344-0.060 0.476-0.162l-0.002 0.001h-0.003c0.067-0.054 0.125-0.116 0.173-0.185l0.002-0.003v-0.003c0.452 0.101 0.968 0.16 1.496 0.16h0.040c0.2-0.169 0.369-0.359 0.513-0.574l0.006-0.009c-0.204 0.037-0.439 0.058-0.679 0.058-0.005 0-0.010 0-0.016-0h0.001c-0.003 0-0.006 0-0.009 0-0.448 0-0.879-0.072-1.283-0.205l0.029 0.008 0.031 0.006c-0.024-0.119-0.073-0.224-0.143-0.312l0.001 0.002c-0.144-0.184-0.365-0.3-0.615-0.3-0.158 0-0.304 0.047-0.427 0.127l0.003-0.002 0.003-0.003c-0.402-0.218-0.75-0.449-1.069-0.713l0.012 0.012c-0.074-0.058-0.151-0.114-0.215-0.175 0.114-0.181 0.181-0.399 0.181-0.633 0-0.2-0.049-0.387-0.135-0.553l0.003 0.006c0.043-0.046 0.092-0.092 0.135-0.135 0.3-0.285 0.624-0.551 0.969-0.79l0.027-0.018 0.028-0.015-0.040-0.061c0.009 0.012 0.021 0.025 0.034 0.034v0c0.492 0.436 1.011 0.872 1.499 1.263-0.052 0.106-0.082 0.23-0.082 0.362 0 0.193 0.066 0.371 0.176 0.513l-0.001-0.002z"></path>
<path fill="#9fa0a2" d="M14.618 19.439c0.002-0.25 0.022-0.494 0.059-0.732l-0.004 0.028-0.003 0.025h-6.203v0.903h6.15v-0.224z"></path>
</svg>
