<!-- Generated by IcoMoon.io -->
<svg version="1.1" xmlns="http://www.w3.org/2000/svg" width="29" height="32" viewBox="0 0 29 32">
<title>Compliance</title>
<path fill="#fff" d="M15.442 9.514h-5.521c-0.239 0-0.432 0.198-0.432 0.441v0 12.091c0 0.244 0.194 0.441 0.432 0.442h9.523c0.239-0 0.432-0.198 0.432-0.442v0-7.998c-0-0.245-0.193-0.444-0.432-0.448h-3.158c-0.003 0-0.006 0-0.009 0-0.235 0-0.425-0.194-0.425-0.434 0-0.004 0-0.007 0-0.011v0.001-3.2c0-0 0-0 0-0 0-0.235-0.18-0.428-0.408-0.441l-0.001-0z"></path>
<path fill="#000" d="M15.213 10.079v3.037c0.004 0.613 0.492 1.108 1.093 1.108 0 0 0.001 0 0.001 0h3v7.696h-9.249v-11.842h5.154zM15.441 9.412h-5.586c-0 0-0.001 0-0.001 0-0.243 0-0.44 0.201-0.44 0.449 0 0 0 0.001 0 0.001v-0 12.274c0 0 0 0.001 0 0.001 0 0.248 0.197 0.449 0.44 0.449 0 0 0.001 0 0.001 0h9.658c0.243-0.001 0.439-0.202 0.439-0.449 0-0 0-0.001 0-0.001v0-8.122c-0.001-0.247-0.197-0.448-0.439-0.448h-3.205c-0 0-0.001 0-0.001 0-0.243 0-0.44-0.201-0.44-0.449 0-0 0-0.001 0-0.001v0-3.253c0-0 0-0.001 0-0.002 0-0.243-0.189-0.441-0.425-0.449l-0.001-0z"></path>
<path fill="#0078d4" d="M19.784 13.676l-4.069-4.162v3.386c0 0 0 0.001 0 0.001 0 0.428 0.34 0.775 0.759 0.775 0 0 0 0 0.001 0h3.309z"></path>
<path fill="#b31b1b" d="M15.753 17.69c-0.295 0.267-0.685 0.43-1.112 0.43s-0.817-0.163-1.114-0.431l0.002 0.002-0.137 2.812c-0 0.005-0.001 0.010-0.001 0.016 0 0.124 0.099 0.225 0.22 0.225 0.063 0 0.12-0.027 0.16-0.070l0-0 0.85-0.891 0.867 0.869c0.039 0.038 0.093 0.062 0.152 0.062 0.122 0 0.22-0.101 0.22-0.225 0-0.003-0-0.006-0-0.008v0l-0.107-2.79z"></path>
<path fill="#e62323" d="M16.649 16.24c0 1.121-0.887 2.030-1.982 2.030s-1.982-0.909-1.982-2.030c0-1.121 0.887-2.030 1.982-2.030s1.982 0.909 1.982 2.030z"></path>
<path fill="#ffd400" d="M16.171 16.24c0 0.852-0.673 1.542-1.503 1.542s-1.503-0.69-1.503-1.542c0-0.852 0.673-1.542 1.503-1.542s1.503 0.69 1.503 1.542z"></path>
</svg>
