<!-- Generated by IcoMoon.io -->
<svg version="1.1" xmlns="http://www.w3.org/2000/svg" width="32" height="32" viewBox="0 0 32 32">
<title>Conditional-Access</title>
<path fill="#86d633" d="M18.913 14.392c0 3.259-4.052 5.887-4.93 6.418-0.047 0.032-0.105 0.051-0.168 0.051s-0.121-0.019-0.169-0.051l0.001 0.001c-0.88-0.531-4.922-3.159-4.922-6.418v-3.929c0.005-0.168 0.141-0.303 0.31-0.308h0c3.146-0.087 2.423-1.429 4.784-1.429s1.63 1.342 4.766 1.429c0.171 0.005 0.309 0.139 0.318 0.307l0 0.001 0.010 3.929z"></path>
<path fill="#000" d="M18.491 14.424c0 2.995-3.716 5.402-4.517 5.89-0.044 0.029-0.098 0.046-0.155 0.046s-0.111-0.017-0.156-0.046l0.001 0.001c-0.811-0.488-4.517-2.895-4.517-5.89v-3.559c0-0.156 0.127-0.282 0.284-0.282 0 0 0 0 0 0h-0c2.887-0.121 2.258-1.352 4.386-1.352 2.13 0 1.501 1.232 4.381 1.309 0.159 0 0.288 0.126 0.293 0.282v3.603z"></path>
<path fill="#9cebff" d="M9.044 15.7h9.292c0.005-0 0.011-0 0.017-0 0.161 0 0.292 0.125 0.301 0.282l0 0.001v7.008c-0.009 0.158-0.141 0.283-0.301 0.283-0.006 0-0.012-0-0.018-0l0.001 0h-9.292c-0.003 0-0.006 0-0.009 0-0.162 0-0.295-0.124-0.309-0.281l-0-0.001v-6.991c0.004-0.167 0.142-0.3 0.31-0.3 0.003 0 0.006 0 0.008 0h-0z"></path>
<path fill="#0078d4" d="M13.648 15.7h9.326c0.005-0 0.011-0 0.016-0 0.151 0 0.274 0.117 0.284 0.264l0 0.001v1.062h-9.929v-1.026c0.008-0.149 0.132-0.268 0.284-0.268 0.007 0 0.013 0 0.020 0.001l-0.001-0v-0.033zM21.922 19.773h-6.128c-0.139 0-0.241 0.069-0.241 0.139v0.367c0 0.077 0.103 0.139 0.241 0.139h6.128c0.139 0 0.249-0.062 0.249-0.139v-0.341c0-0.095-0.139-0.164-0.249-0.164zM21.922 18.233h-6.128c-0.139 0-0.241 0.059-0.241 0.136v0.336c0 0.077 0.103 0.136 0.241 0.136h6.128c0.139 0 0.249-0.059 0.249-0.136v-0.336c0-0.077-0.139-0.136-0.249-0.136zM21.922 21.51h-6.128c-0.139 0-0.241 0.062-0.241 0.139v0.341c0 0.077 0.103 0.136 0.241 0.136h6.128c0.139 0 0.249-0.059 0.249-0.136v-0.341c0-0.077-0.139-0.139-0.249-0.139z"></path>
<path fill="#0078d4" d="M14.94 18.533c0 0.222-0.181 0.402-0.405 0.402s-0.405-0.18-0.405-0.402c0-0.222 0.181-0.402 0.405-0.402s0.405 0.18 0.405 0.402z"></path>
<path fill="#0078d4" d="M14.94 20.082c0 0.222-0.181 0.402-0.405 0.402s-0.405-0.18-0.405-0.402c0-0.222 0.181-0.402 0.405-0.402s0.405 0.18 0.405 0.402z"></path>
<path fill="#0078d4" d="M14.94 21.819c0 0.222-0.181 0.402-0.405 0.402s-0.405-0.18-0.405-0.402c0-0.222 0.181-0.402 0.405-0.402s0.405 0.18 0.405 0.402z"></path>
</svg>
