<!-- Generated by IcoMoon.io -->
<svg version="1.1" xmlns="http://www.w3.org/2000/svg" width="25" height="32" viewBox="0 0 25 32">
<title>Configuration-Management</title>
<path fill="#a0a1a2" d="M17.454 4.027h-13.428v18.648h16.783v-15.332l-3.355-3.316z"></path>
<path fill="#3999c6" d="M17.033 4.857h-12.168v16.99h15.105v-14.092h-2.938v-2.898z"></path>
<path fill="#fff" d="M11.997 9.827c0-0.23 0.194-0.414 0.434-0.414h5.010c0.24 0 0.431 0.184 0.431 0.414 0 0.234-0.191 0.414-0.431 0.414h-5.010c-0.24 0-0.434-0.181-0.434-0.414zM11.997 13.972c0-0.23 0.194-0.414 0.434-0.414h5.010c0.24 0 0.431 0.184 0.431 0.414s-0.191 0.414-0.431 0.414h-5.010c-0.24 0-0.434-0.184-0.434-0.414zM6.649 9.61l-0.161-0.171c-0.043-0.046-0.043-0.118 0.007-0.161l0.464-0.424c0.020-0.019 0.047-0.030 0.077-0.030 0.033 0 0.063 0.014 0.084 0.037l0 0 1.283 1.355 2.204-2.786c0.021-0.027 0.054-0.044 0.090-0.044 0.027 0 0.052 0.009 0.072 0.025l-0-0 0.503 0.381c0.024 0.017 0.040 0.044 0.044 0.074l0 0.001c0 0.004 0.001 0.008 0.001 0.013 0 0.027-0.010 0.051-0.026 0.070l0-0-2.832 3.58-1.809-1.918zM6.649 13.754l-0.161-0.171c-0.043-0.046-0.043-0.118 0.007-0.161l0.464-0.428c0.020-0.019 0.047-0.030 0.077-0.030 0.033 0 0.063 0.014 0.084 0.037l0 0 1.283 1.358 2.204-2.79c0.021-0.027 0.054-0.044 0.090-0.044 0.027 0 0.052 0.009 0.072 0.025l-0-0 0.503 0.384c0.024 0.017 0.040 0.044 0.044 0.074l0 0.001c0 0.004 0.001 0.008 0.001 0.013 0 0.027-0.010 0.051-0.026 0.070l0-0-2.832 3.58-1.809-1.918zM11.997 18.116c0-0.23 0.194-0.414 0.434-0.414h5.010c0.24 0 0.431 0.184 0.431 0.414s-0.191 0.414-0.431 0.414h-5.010c-0.24 0-0.434-0.184-0.434-0.414zM6.649 17.899l-0.161-0.171c-0.043-0.046-0.043-0.118 0.007-0.161l0.464-0.428c0.020-0.019 0.047-0.030 0.077-0.030 0.033 0 0.063 0.014 0.084 0.037l0 0 1.283 1.358 2.204-2.79c0.021-0.027 0.054-0.044 0.090-0.044 0.027 0 0.052 0.009 0.072 0.025l-0-0 0.503 0.384c0.024 0.017 0.040 0.044 0.044 0.074l0 0.001c0 0.004 0.001 0.008 0.001 0.013 0 0.027-0.010 0.051-0.026 0.070l0-0-2.832 3.58-1.809-1.918z"></path>
<path fill="#000" opacity="0.2" d="M17.034 7.756h2.937v0.414h-2.937v-0.414z"></path>
</svg>
