<!-- Generated by IcoMoon.io -->
<svg version="1.1" xmlns="http://www.w3.org/2000/svg" width="33" height="32" viewBox="0 0 33 32">
<title>Configuration</title>
<path d="M18.49 10.513c0.489 0 0.888 0.409 0.888 0.913s-0.399 0.916-0.888 0.916c-0.492 0-0.891-0.412-0.891-0.916s0.399-0.913 0.891-0.913zM18.49 9.598c-0 0-0.001 0-0.001 0-0.982 0-1.778 0.819-1.778 1.829s0.795 1.829 1.777 1.829h0c0 0 0.001 0 0.001 0 0.982 0 1.778-0.819 1.778-1.829s-0.795-1.829-1.777-1.829h-0zM20.266 19.66c0.492 0 0.891 0.409 0.891 0.913s-0.399 0.916-0.891 0.916c-0.489 0-0.888-0.412-0.888-0.916s0.399-0.913 0.888-0.913zM20.266 18.744c-0.982 0-1.778 0.819-1.778 1.829s0.796 1.829 1.778 1.829v0c0.982 0 1.778-0.819 1.778-1.829s-0.796-1.829-1.778-1.829v0zM13.155 15.085c0.489 0 0.888 0.412 0.888 0.916s-0.399 0.913-0.888 0.913c-0.492 0-0.891-0.409-0.891-0.913s0.399-0.916 0.891-0.916zM13.155 14.172c-0.019-0.001-0.042-0.001-0.064-0.001-0.982 0-1.778 0.819-1.778 1.829s0.796 1.829 1.778 1.829c0.022 0 0.043-0 0.065-0.001l-0.003 0c0.955-0.035 1.716-0.84 1.716-1.828s-0.76-1.791-1.71-1.828l-0.003-0z"></path>
<path d="M9.598 10.969h7.114v0.916h-7.114v-0.916zM20.267 10.969h3.556v0.916h-3.556v-0.916zM9.598 15.544h1.779v0.913h-1.779v-0.913zM14.933 15.544h8.89v0.913h-8.89v-0.913zM22.046 20.115h1.777v0.916h-1.777v-0.916zM9.598 20.115h8.89v0.916h-8.89v-0.916z"></path>
</svg>
