<!-- Generated by IcoMoon.io -->
<svg version="1.1" xmlns="http://www.w3.org/2000/svg" width="27" height="32" viewBox="0 0 27 32">
<title>Connection-Monitor</title>
<path fill="#7a7a7a" d="M15.77 17.198h-5.079c0.609 2.197-0.082 2.845-3.674 2.845v1.145h12.089v-1.151c-3.592 0-3.944-0.638-3.336-2.839z"></path>
<path fill="#a0a1a2" d="M20.832 9.505h-15.786c-0.566 0-1.020 0.513-1.020 1.086v11.010c0 0.569 0.454 1.076 1.020 1.076h15.786c0.563 0 1.135-0.507 1.135-1.076v-11.010c-0.003-0.576-0.572-1.086-1.135-1.086z"></path>
<path fill="#fff" opacity="0.2" d="M20.79 4.027h-15.747c-0.563 0-1.016 0.513-1.016 1.086v11.010c0 0.569 0.454 1.076 1.016 1.076h0.391l15.355-13.171z"></path>
<path fill="#59b4d9" d="M5.521 5.552h14.949v10.297h-14.949v-10.297z"></path>
<path fill="#59b4d9" d="M5.5 15.73h0.023v-10.237l13.651-0.023-13.674 0.023v10.237z"></path>
<path fill="#a0a1a2" d="M7.016 20.044l12.089-0.007v1.151h-12.089v-1.145z"></path>
<path fill="#b8d432" d="M13.26 4.79c0 0.15-0.119 0.271-0.265 0.271s-0.265-0.121-0.265-0.271v0c0-0.15 0.119-0.271 0.265-0.271s0.265 0.121 0.265 0.271v0z"></path>
<path fill="#fff" d="M13.006 10.241c-0.018-0-0.034-0.005-0.048-0.014l0 0-3.146-1.851c-0.028-0.017-0.047-0.048-0.047-0.084s0.019-0.067 0.047-0.084l0-0 3.128-1.842c0.014-0.008 0.030-0.013 0.047-0.013s0.033 0.005 0.047 0.013l-0-0 3.146 1.852c0.028 0.017 0.047 0.048 0.047 0.083 0 0 0 0 0 0.001v-0c0 0 0 0.001 0 0.001 0 0.035-0.019 0.066-0.046 0.083l-0 0-3.125 1.842c-0.014 0.009-0.030 0.014-0.048 0.014h-0z"></path>
<path fill="#fff" opacity="0.7" d="M12.53 14.796c-0.001 0-0.001 0-0.002 0-0.017 0-0.033-0.005-0.046-0.013l0 0-3.136-1.826c-0.029-0.016-0.049-0.047-0.049-0.083 0-0 0-0 0-0v0l-0.001-3.664c0-0.036 0.020-0.066 0.049-0.082 0.014-0.008 0.030-0.013 0.048-0.013s0.034 0.005 0.048 0.013l-0-0 3.135 1.822c0.028 0.018 0.046 0.048 0.046 0.083v0l-0 3.666c0 0.033-0.020 0.066-0.046 0.082-0.014 0.008-0.030 0.013-0.047 0.013h-0z"></path>
<path fill="#fff" opacity="0.4" d="M13.465 14.796c0 0 0 0-0 0-0.018 0-0.035-0.005-0.050-0.013l0.001 0c-0.028-0.018-0.046-0.048-0.046-0.084v-0l-0-3.64c0-0.035 0.018-0.066 0.046-0.083l0-0 3.135-1.825c0.014-0.008 0.030-0.013 0.047-0.013s0.034 0.005 0.048 0.013l-0-0c0.031 0.016 0.047 0.046 0.047 0.082v3.641c0 0 0 0 0 0.001 0 0.035-0.019 0.066-0.048 0.082l-0 0-3.133 1.825c-0.012 0.008-0.028 0.013-0.044 0.013-0 0-0.001 0-0.001 0h0z"></path>
<path fill="#804998" d="M12.921 18.137c0 2.506-1.991 4.538-4.447 4.538s-4.447-2.032-4.447-4.538c0-2.506 1.991-4.538 4.447-4.538s4.447 2.032 4.447 4.538z"></path>
<path fill="#fff" d="M19.234 20.217c-0.293 0.155-0.639 0.246-1.006 0.247h-0c-1.258-0.001-2.278-1.042-2.28-2.326v-0c0.001-1.284 1.021-2.325 2.28-2.326h0c1.122 0 2.053 0.855 2.243 1.944h-1.122l1.493 2.099 1.497-2.099h-0.918c-0.197-1.622-1.553-2.905-3.194-2.905-1.776 0-3.22 1.474-3.22 3.286s1.444 3.286 3.22 3.286c0.577-0.001 1.118-0.157 1.585-0.43l-0.016 0.008-0.563-0.786z"></path>
</svg>
