<!-- Generated by IcoMoon.io -->
<svg version="1.1" xmlns="http://www.w3.org/2000/svg" width="33" height="32" viewBox="0 0 33 32">
<title>Container-Batch-Account</title>
<path fill="#949494" d="M22.098 16.436l1.658-1.689c0.133-0.141 0.088-0.258-0.106-0.258h-0.834c-0.011 0.002-0.023 0.003-0.036 0.003-0.113 0-0.204-0.091-0.204-0.204 0-0.004 0-0.008 0-0.013l-0 0.001c0-1.048-0.266-3.97-4.25-4.079-0.101 0.014-0.177 0.099-0.177 0.203 0 0.001 0 0.001 0 0.002v-0l-0.001 1.041c0.005 0.114 0.098 0.205 0.212 0.205 0.003 0 0.006-0 0.009-0l-0 0c0.159-0.037 0.342-0.059 0.53-0.059 1.345 0 2.436 1.094 2.436 2.444 0 0.098-0.006 0.195-0.017 0.291l0.001-0.012c0 0.113-0.091 0.204-0.204 0.204v0l-0.771 0c-0.194 0-0.247 0.117-0.114 0.258l1.541 1.689c0.036 0.047 0.092 0.078 0.155 0.078 0.074 0 0.139-0.042 0.172-0.103l0-0.001z"></path>
<path fill="#000" d="M8.847 22.646c0 0 0 0.001 0 0.001 0 0.28 0.226 0.506 0.505 0.506h10.028c0.279-0 0.505-0.227 0.505-0.506 0-0 0-0.001 0-0.001v0-6.665c-0.001-0.279-0.227-0.505-0.505-0.505h-10.028c-0.278 0-0.504 0.226-0.505 0.505v6.665z"></path>
<path fill="#83b9f9" d="M9.352 15.476h10.171c0.2 0.001 0.361 0.164 0.361 0.364v1.458h-11.037v-1.325c0.005-0.275 0.229-0.497 0.505-0.497v0z"></path>
<path fill="#005ba1" d="M16.89 22.832c0 0 0 0.001 0 0.002 0 0.177 0.143 0.32 0.319 0.32h6.378c0.176-0 0.319-0.143 0.319-0.32 0-0.001 0-0.001 0-0.002v0-4.237c0-0 0-0.001 0-0.002 0-0.177-0.143-0.32-0.319-0.32h-6.378c-0.176 0-0.319 0.143-0.319 0.32 0 0.001 0 0.001 0 0.002v-0 4.237z"></path>
<path fill="#fff" d="M10.432 11.38h7.857c0 0 0 0 0 0 0.090 0 0.163 0.071 0.168 0.16l0 0 0.002 0.818c-0.005 0.089-0.078 0.16-0.168 0.16-0 0-0 0-0 0v0l-7.859-0.001c-0 0-0 0-0 0-0.090 0-0.163-0.071-0.168-0.16l-0-0 0.001-0.799c-0-0.003-0-0.006-0-0.009 0-0.093 0.075-0.169 0.168-0.169 0 0 0 0 0 0v0z"></path>
<path fill="#fff" d="M10.44 13.015h7.857c0 0 0 0 0 0 0.090 0 0.163 0.071 0.168 0.16l0 0 0.002 0.826c-0.009 0.085-0.081 0.151-0.167 0.151-0 0-0.001 0-0.001 0l-7.859 0c-0.003 0-0.006 0-0.009 0-0.085 0-0.155-0.067-0.159-0.151l-0-0 0.001-0.826c0-0 0-0 0-0 0-0.088 0.071-0.16 0.159-0.16 0.003 0 0.006 0 0.009 0l-0-0z"></path>
<path fill="#fff" d="M10.44 14.668h7.857c0 0 0 0 0 0 0.090 0 0.163 0.071 0.168 0.16l0 0 0.002 0.818c-0.005 0.089-0.078 0.16-0.168 0.16-0 0-0 0-0 0v0l-7.859-0.001c-0.003 0-0.006 0-0.009 0-0.088 0-0.159-0.072-0.159-0.16 0-0 0-0 0-0v0l0.001-0.818c0-0 0-0 0-0 0-0.088 0.071-0.16 0.159-0.16 0.003 0 0.006 0 0.009 0l-0-0z"></path>
<path fill="#0078d4" d="M15.73 21.784c0 0 0 0.001 0 0.002 0 0.177 0.143 0.32 0.319 0.32h6.378c0.176-0 0.319-0.143 0.319-0.32 0-0.001 0-0.001 0-0.002v0-4.237c0-0 0-0.001 0-0.002 0-0.177-0.143-0.32-0.319-0.32h-6.378c-0.176 0-0.319 0.143-0.319 0.32 0 0.001 0 0.001 0 0.002v-0 4.237z"></path>
<path fill="#83b9f9" d="M16.049 20.984h6.468c0.127 0 0.23 0.103 0.23 0.231v0l-0.002 0.89h-7.015v-0.845c0.022-0.157 0.155-0.276 0.316-0.276 0.001 0 0.002 0 0.003 0h-0z"></path>
<path fill="#fff" d="M16.74 18.836h4.997c0 0 0 0 0 0 0.056 0 0.101 0.043 0.106 0.097l0 0-0 0.524c0 0.059-0.048 0.107-0.106 0.107v0l-4.996-0c-0.059 0-0.106-0.048-0.106-0.107v0l0-0.526c0-0 0-0 0-0 0-0.054 0.044-0.098 0.097-0.098 0.003 0 0.006 0 0.009 0l-0-0z"></path>
<path fill="#fff" d="M16.74 19.876h4.997c0.059 0 0.106 0.048 0.106 0.107v0l-0 0.523c0 0 0 0 0 0 0 0.054-0.044 0.098-0.097 0.098-0.003 0-0.006-0-0.009-0l0 0-4.996 0.001c-0 0-0 0-0 0-0.056 0-0.101-0.043-0.106-0.097l-0-0 0-0.524c0-0.059 0.048-0.107 0.106-0.107v0z"></path>
<path fill="#fff" d="M16.74 20.924h4.997c0.059 0 0.106 0.048 0.106 0.107v0l-0 0.523c0 0 0 0 0 0 0 0.054-0.044 0.098-0.097 0.098-0.003 0-0.006-0-0.009-0l0 0-4.996 0.001c-0 0-0 0-0 0-0.056 0-0.101-0.043-0.106-0.097l-0-0 0-0.524c0-0.059 0.048-0.107 0.106-0.107v0z"></path>
</svg>
