<!-- Generated by IcoMoon.io -->
<svg version="1.1" xmlns="http://www.w3.org/2000/svg" width="31" height="32" viewBox="0 0 31 32">
<title>Container-Instance</title>
<path fill="#000" d="M22.72 15.337c-0.047-1.549-1.226-2.813-2.747-3.015l-0.016-0.002c-0.091-2.112-1.849-3.79-4.004-3.79-0.046 0-0.091 0.001-0.136 0.002l0.007-0c-0.020-0-0.043-0.001-0.067-0.001-1.76 0-3.262 1.087-3.854 2.618l-0.009 0.028c-1.86 0.221-3.296 1.737-3.361 3.597l-0 0.006c0.081 2.038 1.775 3.659 3.853 3.659 0.049 0 0.097-0.001 0.145-0.003l-0.007 0h6.805c0.025 0.004 0.054 0.006 0.083 0.006s0.058-0.002 0.086-0.007l-0.003 0c0.001 0 0.002 0 0.002 0 1.752 0 3.178-1.379 3.225-3.096l0-0.004z"></path>
<path fill="#f2f2f2" d="M13.421 13.888l2.165-2.139c0.047-0.047 0.113-0.076 0.185-0.076s0.138 0.029 0.185 0.076v0l2.178 2.147c0.022 0.021 0.035 0.050 0.035 0.083 0 0.064-0.053 0.116-0.118 0.116-0.001 0-0.001 0-0.002 0h0l-1.336-0.001c-0.003-0-0.005-0-0.008-0-0.060 0-0.109 0.048-0.109 0.108 0 0 0 0 0 0v-0l-0.001 2.685c0 0.050-0.041 0.091-0.092 0.091 0 0 0 0 0 0l-1.462 0.001c-0.051 0-0.092-0.041-0.092-0.091v0l0-2.651c0.006-0.013 0.010-0.028 0.010-0.044 0-0.051-0.036-0.094-0.084-0.105l-0.001-0-1.379-0.001c-0.062-0.004-0.111-0.054-0.111-0.116 0-0.033 0.014-0.062 0.035-0.083l0-0z"></path>
<path fill="#a67af4" d="M19.796 17.956c-0-0.049-0.031-0.091-0.075-0.107l-0.001-0-3.95-1.317h-0.108v6.921h0.108l3.957-1.557c0.040-0.017 0.068-0.055 0.068-0.1 0-0.003-0-0.006-0-0.009l0 0 0.001-3.831z"></path>
<path fill="#552f99" d="M12.419 16.555l-3.788 0.688c-0.055 0.008-0.097 0.052-0.101 0.107l-0 0 0.001 5.172c-0 0.001-0 0.002-0 0.003 0 0.055 0.039 0.102 0.092 0.113l0.001 0 3.796 0.83c0.005 0.001 0.011 0.001 0.017 0.001 0.065 0 0.118-0.052 0.118-0.116 0-0 0-0.001 0-0.001v0l-0-6.631c0.008-0.016 0.013-0.034 0.013-0.054 0-0.064-0.053-0.116-0.118-0.116-0.011 0-0.021 0.001-0.031 0.004l0.001-0z"></path>
<path fill="#b77af4" opacity="0.75" d="M15.202 17.361l-1.32 0.224v4.813l1.32 0.208v-5.245z"></path>
<path fill="#b77af4" opacity="0.75" d="M13.412 17.657l-1.151 0.192v4.21l1.151 0.232v-4.634z"></path>
</svg>
