<!-- Generated by IcoMoon.io -->
<svg version="1.1" xmlns="http://www.w3.org/2000/svg" width="33" height="32" viewBox="0 0 33 32">
<title>Container-Service-Fabric-Cluster</title>
<path fill="#e27908" d="M22.409 14.457l-4.964-3.522-1.066-0.778-1.053 0.77-4.98 3.53 1.938 5.825 0.405 1.234h7.411l0.387-1.234 1.922-5.782v-0.043zM13.585 20.283l-1.722-5.327 4.516-3.239 4.548 3.247-1.722 5.329-5.62-0.011z"></path>
<path fill="#000" d="M13.078 21.063c0 1.169-0.953 2.116-2.128 2.116s-2.128-0.947-2.128-2.116c0-1.169 0.953-2.116 2.128-2.116s2.128 0.947 2.128 2.116z"></path>
<path fill="#000" d="M13.078 21.063c0 1.169-0.953 2.116-2.128 2.116s-2.128-0.947-2.128-2.116c0-1.169 0.953-2.116 2.128-2.116s2.128 0.947 2.128 2.116z"></path>
<path fill="#000" d="M23.935 14.724c0 1.169-0.953 2.116-2.128 2.116s-2.128-0.947-2.128-2.116c0-1.169 0.953-2.116 2.128-2.116s2.128 0.947 2.128 2.116z"></path>
<path fill="#000" d="M13.078 14.724c0 1.169-0.953 2.116-2.128 2.116s-2.128-0.947-2.128-2.116c0-1.169 0.953-2.116 2.128-2.116s2.128 0.947 2.128 2.116z"></path>
<path fill="#000" d="M18.506 10.937c0 1.169-0.953 2.116-2.128 2.116s-2.128-0.947-2.128-2.116c0-1.169 0.953-2.116 2.128-2.116s2.128 0.947 2.128 2.116z"></path>
</svg>
