<!-- Generated by IcoMoon.io -->
<svg version="1.1" xmlns="http://www.w3.org/2000/svg" width="34" height="32" viewBox="0 0 34 32">
<title>Container-Kubernetes-Service</title>
<path fill="#000" d="M11.459 9.363v3.49l2.5 0.544 2.509-1.029v-2.603l-2.509-0.875-2.5 0.474z"></path>
<path fill="#341a6e" d="M11.459 9.363v3.49l2.525 0.544v-4.471l-2.525 0.438zM12.526 12.582l-0.708-0.142v-2.684l0.708-0.114v2.941zM13.627 12.788l-0.814-0.134v-3.069l0.814-0.142v3.345z"></path>
<path fill="#000" d="M16.869 9.407v3.49l2.5 0.544 2.5-1.037v-2.595l-2.5-0.875-2.5 0.474z"></path>
<path fill="#341a6e" d="M16.869 9.407v3.49l2.509 0.544v-4.471l-2.509 0.438zM17.925 12.627l-0.708-0.142v-2.684l0.708-0.114v2.941zM19.029 12.833l-0.814-0.134v-3.069l0.814-0.151v3.353z"></path>
<path fill="#000" d="M8.898 14.175v3.49l2.5 0.544 2.509-1.029v-2.603l-2.509-0.875-2.5 0.474z"></path>
<path fill="#341a6e" d="M8.889 14.176v3.462l2.525 0.544v-4.471l-2.525 0.466zM9.945 17.404l-0.708-0.151v-2.684l0.708-0.125v2.96zM11.057 17.638l-0.814-0.137v-3.102l0.814-0.142v3.381z"></path>
<path fill="#000" d="M14.29 14.14v3.487l2.5 0.555 2.5-1.037v-2.603l-2.5-0.875-2.5 0.474z"></path>
<path fill="#341a6e" d="M14.29 14.14v3.498l2.517 0.544v-4.471l-2.517 0.429zM15.347 17.368l-0.708-0.151v-2.684l0.708-0.125v2.96zM16.451 17.565l-0.814-0.134v-3.069l0.814-0.142v3.345z"></path>
<path fill="#000" d="M19.683 14.184v3.49l2.5 0.544 2.509-1.029v-2.603l-2.509-0.875-2.5 0.474z"></path>
<path fill="#341a6e" d="M19.683 14.184v3.454l2.525 0.544v-4.471l-2.525 0.474zM20.751 17.412l-0.708-0.151v-2.684l0.708-0.125v2.96zM21.852 17.61l-0.814-0.134v-3.069l0.814-0.142v3.345z"></path>
<path fill="#000" d="M11.397 19.033v3.487l2.5 0.555 2.509-1.037v-2.595l-2.509-0.875-2.5 0.465z"></path>
<path fill="#341a6e" d="M11.397 19.033v3.487l2.525 0.555v-4.543l-2.525 0.502zM12.465 22.26l-0.708-0.151v-2.684l0.708-0.125v2.96zM13.566 22.467l-0.814-0.134v-3.077l0.814-0.142v3.353z"></path>
<path fill="#000" d="M8.889 19.077v3.49l2.5 0.544 2.509-1.029v-2.603l-2.509-0.875-2.5 0.474z"></path>
<path fill="#341a6e" d="M8.889 19.077v3.49l2.525 0.544v-4.471l-2.525 0.438zM9.956 22.307l-0.708-0.153v-2.684l0.708-0.125v2.963zM11.057 22.502l-0.814-0.134v-3.069l0.814-0.142v3.345z"></path>
</svg>
