<!-- Generated by IcoMoon.io -->
<svg version="1.1" xmlns="http://www.w3.org/2000/svg" width="34" height="32" viewBox="0 0 34 32">
<title>Container-Registry</title>
<path fill="#000" d="M23.784 14.384c-0.536-0.523-1.225-0.889-1.994-1.022l-0.023-0.003c-0.103-2.397-2.058-4.302-4.454-4.302-0.062 0-0.123 0.001-0.185 0.004l0.009-0c-0.026-0.001-0.056-0.001-0.086-0.001-1.961 0-3.636 1.236-4.299 2.977l-0.011 0.032c-2.055 0.26-3.636 1.987-3.685 4.095l-0 0.005c0.094 2.314 1.979 4.154 4.291 4.154 0.052 0 0.104-0.001 0.156-0.003l-0.008 0h7.773c1.916-0.038 3.466-1.565 3.558-3.477l0-0.008c-0.007-0.947-0.402-1.799-1.033-2.404l-0.001-0.001-0.009-0.043z"></path>
<path fill="#767676" d="M25.39 15.993l-7.191-2.725 0.009 3.912 7.182 1.538v-2.725z"></path>
<path fill="#999" d="M18.198 13.268l-1.942 1.187v3.641l1.953-0.916-0.012-3.912z"></path>
<path fill="#a3a3a3" d="M21.477 15.060v2.175l0.654 0.184v-2.132l-0.654-0.228z"></path>
<path fill="#a3a3a3" d="M20.823 17.072v-2.224l-0.654-0.236v2.276l0.654 0.184z"></path>
<path fill="#a3a3a3" d="M22.784 15.517v2.074l0.637 0.176 0.017-2.031-0.654-0.219z"></path>
<path fill="#a3a3a3" d="M18.871 14.181v2.371l0.654 0.164v-2.313l-0.654-0.222z"></path>
<path fill="#a3a3a3" d="M24.736 18.124v-1.939l-0.654-0.23v1.985l0.654 0.184z"></path>
<path fill="#b3b3b3" d="M16.918 17.117l-0.326 0.193v-2.59l0.326-0.173v2.57zM17.563 14.173l-0.334 0.219v2.515l0.334-0.181v-2.552z"></path>
<path fill="#000" d="M18.21 17.183l7.179 1.535-1.959 0.677-7.173-1.299 1.953-0.913z"></path>
<path fill="#767676" d="M25.389 19.121v2.385l-7.217 1.383 0.037-5.114 7.179 1.345z"></path>
<path fill="#a3a3a3" d="M19.525 21.938l-0.654 0.109v-3.247l0.654 0.081v3.057z"></path>
<path fill="#a3a3a3" d="M20.823 19.066v2.65l-0.654 0.121v-2.872l0.654 0.101z"></path>
<path fill="#a3a3a3" d="M22.131 21.497l-0.654 0.121v-2.489l0.654 0.084v2.285z"></path>
<path fill="#a3a3a3" d="M23.429 19.395v1.873l-0.645 0.121v-2.094l0.645 0.101z"></path>
<path fill="#a3a3a3" d="M24.707 19.542l0.046 1.515-0.671 0.121v-1.72l0.625 0.084z"></path>
<path fill="#999" d="M9.057 21.716v-2.982l1.962-0.913v5.122l-1.962-1.227z"></path>
<path fill="#b3b3b3" d="M16.874 21.71l-0.291-0.147v-2.524l0.291-0.138v2.809zM17.571 18.552l-0.343 0.176v3.18l0.334 0.176v-3.532h0.009z"></path>
</svg>
