<!-- Generated by IcoMoon.io -->
<svg version="1.1" xmlns="http://www.w3.org/2000/svg" width="28" height="32" viewBox="0 0 28 32">
<title>Controller</title>
<path fill="#a0a1a2" d="M9.344 11.902l4.754-1.928v-5.697l-4.793 1.967 0.038 5.659z"></path>
<path fill="#7a7a7a" d="M18.81 6.003l-4.712-1.729v9.595l4.712-1.967v-5.9z"></path>
<path fill="#3e3e3e" d="M18.811 11.903l-4.712 1.967-4.754-1.967 4.754-1.886 4.712 1.886z"></path>
<path fill="#a0a1a2" d="M4.276 20.131l4.793-1.886v-5.739l-4.793 2.449v5.177z"></path>
<path fill="#7a7a7a" d="M9.030 14.672l-4.716-2.169v0.080l-0.038 9.515 4.754-1.967v-5.46z"></path>
<path fill="#3e3e3e" d="M13.78 20.132l-4.712 1.967-4.793-1.967 4.793-1.886 4.712 1.886z"></path>
<path fill="#e5e5e5" d="M14.573 20.131l4.793-1.886v-5.739l-4.793 2.208v5.418z"></path>
<path fill="#a0a1a2" d="M9.030 14.672l-4.716-2.169v0.080l-0.038 9.515 4.754-1.967v-5.46z"></path>
<path fill="#0070c9" d="M24.078 20.132l-4.712 1.967-4.793-1.967 4.793-1.886 4.712 1.886z"></path>
<path fill="#000e92" d="M22.019 19.409h-5.348c-0.276 0-0.513-0.241-0.513-0.52v-3.493c0-0.283 0.199-0.482 0.475-0.482h5.348c0.276 0 0.513 0.241 0.513 0.52v3.455c0.042 0.279-0.199 0.52-0.475 0.52z"></path>
<path fill="#fff" d="M18.454 19.007l-1.781-1.806 1.823-1.768 0.356 0.363-1.506 1.404 1.425 1.485-0.318 0.321z"></path>
<path fill="#fff" d="M20.157 19.007l1.781-1.806-1.82-1.768-0.318 0.363 1.467 1.404-1.429 1.485 0.318 0.321z"></path>
<path fill="#fff" opacity="0.25" d="M20.357 14.913h-3.724c-0.279 0-0.437 0.279-0.437 0.482v3.531c0 0.203 0.199 0.482 0.475 0.482h1.425l2.26-4.496z"></path>
<path fill="#3e3e3e" opacity="0.2" d="M16.593 14.913l2.613-0.643 2.773 0.643h-5.386z"></path>
</svg>
