<!-- Generated by IcoMoon.io -->
<svg version="1.1" xmlns="http://www.w3.org/2000/svg" width="32" height="32" viewBox="0 0 32 32">
<title>CORS</title>
<path fill="#3999c6" d="M11.885 21.407c-1.646-1.256-2.696-3.21-2.696-5.407 0-1.564 0.532-3.005 1.427-4.154l-0.012 0.016c1.265-1.631 3.234-2.672 5.448-2.672 0.005 0 0.009 0 0.014 0h-0.001c1.454 0 2.924 0.454 4.168 1.403 1.646 1.256 2.697 3.21 2.697 5.408 0 1.565-0.533 3.006-1.428 4.156l0.012-0.016c-1.266 1.63-3.235 2.669-5.448 2.669-0.004 0-0.009 0-0.013 0h0.001c-0.001 0-0.001 0-0.002 0-1.575 0-3.026-0.528-4.182-1.415l0.016 0.012z"></path>
<path fill="#fff" d="M19.15 9.89c-0.296-0.152-0.647-0.295-1.012-0.408l-0.048-0.013c-1.261 1.85-3.46 4-5.437 5.658-0.014 0.012-0.019 0.024-0.034 0.038-0.358-0.402-0.687-0.848-0.974-1.321l-0.023-0.041c0 0-0.718 1.679-1.23 3.729 2.275 0.406 4.385-0.305 4.385-0.305s-0.68-0.531-1.454-1.309c2.016-1.542 4.226-3.686 5.826-6.028z"></path>
<path fill="#fff" d="M20.975 13.117c0 0-0.37 0.461-1.302 1.206-1.821-2.045-4.654-3.431-7.861-3.71-0.467 0.358-0.871 0.764-1.216 1.216l-0.012 0.016-0.019 0.026c0.281 0.012 0.565 0.031 0.851 0.060 2.66 0.216 5.129 1.593 6.814 3.44-0.488 0.322-1.045 0.666-1.687 1.028 0 0 2.345 0.687 4.327 2.102 0.584-2.458 0.106-5.386 0.106-5.386zM16.060 17.874c-0.853 0-1.544 0.685-1.545 1.53v0c0 0.024 0.005 0.046 0.007 0.070-0.821 0.227-1.764 0.357-2.737 0.357-0.532 0-1.055-0.039-1.566-0.114l0.058 0.007c0.279 0.425 0.61 0.826 0.99 1.189 0.155 0.007 0.336 0.011 0.518 0.011 1.132 0 2.226-0.16 3.261-0.459l-0.082 0.020c0.28 0.28 0.668 0.453 1.097 0.453 0.854 0 1.546-0.686 1.546-1.532s-0.692-1.532-1.546-1.532c-0.001 0-0.001 0-0.002 0h0z"></path>
</svg>
