<!-- Generated by IcoMoon.io -->
<svg version="1.1" xmlns="http://www.w3.org/2000/svg" width="25" height="32" viewBox="0 0 25 32">
<title>Cost-Management</title>
<path fill="#57a300" d="M11.875 4.169l-7.293 4.125c-0.334 0.191-0.555 0.543-0.556 0.947v8.217c0 0 0 0 0 0 0 0.405 0.221 0.759 0.551 0.948l0.005 0.003 7.293 4.125c0.156 0.090 0.343 0.143 0.543 0.143s0.387-0.053 0.548-0.145l-0.005 0.003 7.293-4.125c0.334-0.192 0.556-0.545 0.556-0.95 0-0 0-0 0-0v0-8.217c-0.001-0.404-0.222-0.756-0.551-0.945l-0.005-0.003-7.293-4.125c-0.156-0.090-0.343-0.143-0.543-0.143s-0.387 0.053-0.548 0.145l0.005-0.003z"></path>
<path fill="#b8d432" opacity="0.4" d="M15.283 6.949l-2.322-1.309c-0.156-0.090-0.343-0.143-0.543-0.143s-0.387 0.053-0.548 0.145l0.005-0.003-7.293 4.122c-0.334 0.192-0.556 0.545-0.556 0.95 0 0 0 0 0 0v0 8.217c0 0 0 0 0 0 0 0.405 0.221 0.759 0.551 0.948l0.005 0.003 4.947 2.796 5.753-15.727z"></path>
<path fill="#fff" d="M13.525 6.899c0 0.608-0.495 1.101-1.106 1.101s-1.106-0.493-1.106-1.101c0-0.608 0.495-1.101 1.106-1.101s1.106 0.493 1.106 1.101z"></path>
<path fill="#fff" d="M13.525 19.803c0 0.608-0.495 1.101-1.106 1.101s-1.106-0.493-1.106-1.101c0-0.608 0.495-1.101 1.106-1.101s1.106 0.493 1.106 1.101z"></path>
<path fill="#fff" d="M16.24 15.493c0 1.612-1.605 2.78-3.816 2.78-1.944 0-3.165-0.73-3.724-2.227l1.898-0.359c0.247 0.53 0.789 1.132 1.984 1.132s1.641-0.714 1.641-1.164c0-0.934-1.135-1.26-1.625-1.355-2.072-0.411-3.54-0.882-3.54-3.243 0-1.938 1.813-2.625 3.365-2.625 1.697 0 2.799 0.556 3.372 1.704l-1.641 0.52c-0.345-0.586-0.931-0.891-1.704-0.891-1.125 0-1.421 0.77-1.421 1.178 0 0.563 0.563 1.056 1.434 1.257 1.095 0.253 1.862 0.447 2.309 0.635 0.711 0.296 1.467 1.151 1.467 2.661z"></path>
<path fill="#57a300" opacity="0.2" d="M13.525 6.899c0 0.608-0.495 1.101-1.106 1.101s-1.106-0.493-1.106-1.101c0-0.608 0.495-1.101 1.106-1.101s1.106 0.493 1.106 1.101z"></path>
<path fill="#57a300" opacity="0.2" d="M13.525 19.803c0 0.608-0.495 1.101-1.106 1.101s-1.106-0.493-1.106-1.101c0-0.608 0.495-1.101 1.106-1.101s1.106 0.493 1.106 1.101z"></path>
<path fill="#57a300" opacity="0.2" d="M16.24 15.493c0 1.612-1.605 2.78-3.816 2.78-1.944 0-3.165-0.73-3.724-2.227l1.898-0.359c0.247 0.53 0.789 1.132 1.984 1.132s1.641-0.714 1.641-1.164c0-0.934-1.135-1.26-1.625-1.355-2.072-0.411-3.54-0.882-3.54-3.243 0-1.938 1.813-2.625 3.365-2.625 1.697 0 2.799 0.556 3.372 1.704l-1.641 0.52c-0.345-0.586-0.931-0.891-1.704-0.891-1.125 0-1.421 0.77-1.421 1.178 0 0.563 0.563 1.056 1.434 1.257 1.095 0.253 1.862 0.447 2.309 0.635 0.711 0.296 1.467 1.151 1.467 2.661z"></path>
</svg>
