<!-- Generated by IcoMoon.io -->
<svg version="1.1" xmlns="http://www.w3.org/2000/svg" width="27" height="32" viewBox="0 0 27 32">
<title>Cost-Alert</title>
<path fill="#57a300" d="M20.202 4.028h-13.832c-1.369-0.010-2.343 0.816-2.343 2.175v9.779c0 1.382 0.994 2.606 2.362 2.622l4.731-0.033 4.478 4.103v-4.103l4.564 0.053c1.365 0.010 2.487-1.092 2.487-2.458l0.020-9.815c0.010-1.359-1.099-2.323-2.468-2.323z"></path>
<path fill="#fff" opacity="0.9" d="M14.268 5.892c0 0.507-0.411 0.918-0.918 0.918s-0.918-0.411-0.918-0.918c0-0.507 0.411-0.918 0.918-0.918s0.918 0.411 0.918 0.918z"></path>
<path fill="#fff" opacity="0.9" d="M14.268 17.079c0 0.507-0.411 0.919-0.918 0.919s-0.918-0.411-0.918-0.919c0-0.507 0.411-0.919 0.918-0.919s0.918 0.411 0.918 0.919z"></path>
<path fill="#fff" opacity="0.9" d="M16.477 13.274c0 1.342-1.333 2.32-3.168 2.32-1.612 0-2.626-0.609-3.090-1.859l1.576-0.299c0.204 0.441 0.655 0.944 1.645 0.944 0.994 0 1.362-0.596 1.362-0.971 0-0.783-0.941-1.053-1.346-1.132-1.721-0.342-2.938-0.737-2.938-2.705 0-1.619 1.504-2.195 2.79-2.195 1.412 0 2.326 0.467 2.8 1.425l-1.362 0.431c-0.286-0.487-0.773-0.744-1.412-0.744-0.934 0-1.181 0.645-1.181 0.984 0 0.47 0.467 0.882 1.191 1.050 0.908 0.211 1.543 0.372 1.915 0.53 0.589 0.247 1.217 0.961 1.217 2.221z"></path>
</svg>
