<!-- Generated by IcoMoon.io -->
<svg version="1.1" xmlns="http://www.w3.org/2000/svg" width="34" height="32" viewBox="0 0 34 32">
<title>Cost</title>
<path fill="#0078d4" d="M22.666 21.39c-0.001 0.566-0.451 1.025-1.006 1.025-0 0-0 0-0 0h-11.068c-0 0-0 0-0 0-0.555 0-1.005-0.459-1.006-1.025v-6.672c0-0 0-0.001 0-0.002 0-0.567 0.45-1.026 1.006-1.026 0 0 0 0 0 0h11.068c0 0 0 0 0 0 0.556 0 1.006 0.459 1.006 1.026 0 0.001 0 0.001 0 0.002v-0 6.672z"></path>
<path fill="#000" d="M22.666 21.388c0 0 0 0 0 0.001 0 0.567-0.451 1.027-1.006 1.027h-11.068c-0.556-0-1.006-0.46-1.006-1.027 0-0 0-0 0-0.001v0-6.669c0-0 0-0 0-0.001 0-0.567 0.451-1.027 1.006-1.027h11.068c0.556 0 1.006 0.46 1.006 1.027 0 0 0 0.001 0 0.001v-0 6.669z"></path>
<path fill="#fff" d="M18.39 18.309h1.51c0.139 0 0.251 0.115 0.251 0.257 0 0 0 0 0 0v0l0.002 0.512c0 0 0 0 0 0 0 0.142-0.112 0.257-0.251 0.257l-1.511 0.001c-0.139 0-0.252-0.115-0.252-0.257v0l0.002-0.512c0-0.142 0.113-0.257 0.252-0.257v0zM20.906 18.309h1.51c0.139 0 0.251 0.115 0.251 0.257 0 0 0 0 0 0v0l-0.001 0.512c0 0 0 0 0 0 0 0.142-0.112 0.257-0.251 0.257l-1.509 0.001c-0.139-0-0.251-0.115-0.251-0.257 0 0 0 0 0 0v0l0.001-0.512c0 0 0 0 0 0 0-0.142 0.112-0.257 0.251-0.257h0zM13.357 18.309h1.51c0.139 0 0.251 0.115 0.251 0.257 0 0 0 0 0 0v0l0.002 0.512c0 0 0 0 0 0 0 0.142-0.112 0.257-0.251 0.257l-1.511 0.001c-0.139-0-0.251-0.115-0.251-0.257 0 0 0 0 0 0v0l0.001-0.512c0 0 0 0 0 0 0-0.142 0.112-0.257 0.251-0.257h0zM13.357 20.362h3.522c0.139 0 0.251 0.115 0.251 0.256v0c0 0 0 0 0 0 0 0.142-0.112 0.257-0.251 0.257l-3.522 0c-0.139-0-0.251-0.115-0.251-0.257 0 0 0 0 0 0v0c0-0.142 0.113-0.256 0.251-0.256v0zM18.39 20.362h1.006c0.139 0 0.251 0.115 0.251 0.256v0c0 0 0 0 0 0 0 0.142-0.112 0.257-0.251 0.257l-1.006 0c-0.139 0-0.252-0.115-0.252-0.257v0c0-0.142 0.113-0.256 0.252-0.256 0 0 0 0 0 0v0zM15.874 18.309h1.51c0.139 0 0.252 0.115 0.252 0.257v0l0.001 0.512c0 0.142-0.113 0.257-0.252 0.257v0l-1.51 0.001c-0.139-0-0.251-0.115-0.251-0.257 0 0 0 0 0 0v0l0.001-0.512c0 0 0 0 0 0 0-0.142 0.112-0.257 0.251-0.257h0zM15.623 16.885c-0.010 0.223-0.19 0.4-0.41 0.4-0.007 0-0.013-0-0.020-0l0.001 0h-1.661c-0.005 0-0.011 0-0.016 0-0.22 0-0.4-0.177-0.41-0.399l-0-0.001v-1.142c0-0.221 0.192-0.514 0.426-0.514h1.661c0.005-0 0.012-0 0.018-0 0.221 0 0.402 0.178 0.411 0.402l0 0.001v1.254z"></path>
<path fill="#e6e6e6" d="M9.585 21.389h13.081v1.026h-13.081v-1.026z"></path>
</svg>
