<!-- Generated by IcoMoon.io -->
<svg version="1.1" xmlns="http://www.w3.org/2000/svg" width="23" height="32" viewBox="0 0 23 32">
<title>Cost-Management-And-Billing</title>
<path fill="#258277" d="M12.509 13.475c0.001 0.023 0.002 0.049 0.002 0.076 0 0.337-0.135 0.641-0.351 0.855l-0.001 0.001c-0.266 0.247-0.611 0.407-0.99 0.434l-0.005 0v0.706h-0.494v-0.73c-0.45-0.003-0.872-0.124-1.242-0.335l0.014 0.007v-0.953c0.16 0.121 0.345 0.221 0.543 0.289l0.014 0.004c0.195 0.079 0.422 0.137 0.658 0.165l0.013 0.001v-1.224c-0.395-0.134-0.734-0.347-1.018-0.623l0.002 0.002c-0.189-0.234-0.305-0.54-0.305-0.873 0-0.371 0.142-0.706 0.372-0.951l-0 0c0.25-0.249 0.579-0.413 0.943-0.448l0.006-0v-0.646h0.483v0.635c0.374 0 0.728 0.087 1.045 0.243l-0.015-0.007v0.938c-0.296-0.189-0.645-0.318-1.018-0.362l-0.012-0.001v1.341c0.402 0.133 0.747 0.351 1.031 0.636l-0.001-0.001c0.199 0.211 0.323 0.501 0.325 0.822v0zM10.671 11.795v-1.094c-0.227 0.025-0.403 0.225-0.403 0.468 0 0.009 0 0.018 0.001 0.027l-0-0.001c0 0.247 0.148 0.444 0.448 0.6h-0.046zM11.623 13.524c0-0.226-0.155-0.402-0.469-0.554v1.058c0.314-0.060 0.469-0.222 0.469-0.504z"></path>
<path fill="#ffca00" d="M19.825 12.592h-4.029c-0.001 1.54-0.638 2.923-1.65 3.876l-0.005 0.004 2.674 3.164c1.85-1.731 3.009-4.241 3.009-7.035 0-0.007 0-0.015-0-0.022v0.012z"></path>
<path fill="#000" d="M10.85 17.813c-2.738 0-4.957-2.332-4.957-5.209s2.219-5.209 4.957-5.209v0-4.209c-4.943 0.001-8.95 4.212-8.95 9.406 0 0.001 0 0.002 0 0.002v-0c0.001 5.194 4.007 9.404 8.95 9.405h0c0.016 0 0.035 0 0.053 0 2.276 0 4.353-0.892 5.932-2.362l-0.009 0.009-2.685-3.161c-0.865 0.823-2.018 1.326-3.283 1.326-0.003 0-0.006 0-0.009 0h0z"></path>
<path fill="#ccc" d="M10.438 2v4.889c0.027-0 0.059-0.001 0.091-0.001 3.146 0 5.696 2.679 5.696 5.985 0 0.038-0 0.076-0.001 0.114l0-0.006h4.678c0-0 0-0 0-0 0-6.065-4.679-10.982-10.451-10.982-0.004 0-0.009 0-0.013 0h0.001z"></path>
<path fill="#999" d="M16.244 12.982c0-0.018 0-0.040 0-0.061 0-3.302-2.526-5.985-5.658-6.031l-0.004-0h-0.145l0.37 0.73c2.557 0.164 4.589 2.309 4.73 4.985l0.001 0.014 0.706 0.363z"></path>
</svg>
