<!-- Generated by IcoMoon.io -->
<svg version="1.1" xmlns="http://www.w3.org/2000/svg" width="25" height="32" viewBox="0 0 25 32">
<title>Cost-Analysis</title>
<path fill="#57a300" d="M9.711 5.322c0 0.716-0.593 1.296-1.325 1.296s-1.325-0.58-1.325-1.296c0-0.716 0.593-1.296 1.325-1.296s1.325 0.58 1.325 1.296z"></path>
<path fill="#57a300" d="M9.711 20.739c0 0.716-0.593 1.296-1.325 1.296s-1.325-0.58-1.325-1.296c0-0.716 0.593-1.296 1.325-1.296s1.325 0.58 1.325 1.296z"></path>
<path fill="#57a300" d="M13.056 15.553c0 1.898-1.921 3.273-4.569 3.273-2.332 0-3.79-0.859-4.461-2.625l2.273-0.418c0.296 0.622 0.944 1.332 2.375 1.332 1.434 0 1.967-0.842 1.967-1.372 0-1.102-1.359-1.487-1.944-1.599-2.484-0.48-4.24-1.036-4.24-3.819 0-2.28 2.171-3.092 4.030-3.092 2.033 0 3.352 0.658 4.036 2.010l-1.964 0.609c-0.411-0.688-1.115-1.049-2.040-1.049-1.345 0-1.704 0.908-1.704 1.388 0 0.664 0.674 1.243 1.72 1.48 1.309 0.296 2.227 0.526 2.763 0.747 0.849 0.349 1.757 1.359 1.757 3.135z"></path>
<path fill="#000" d="M7.757 22.676c-0.217 0-0.421-0.082-0.572-0.234l-3.158-3.086 1.148-1.125 3.158 3.089c0.146 0.144 0.237 0.342 0.237 0.561 0 0.439-0.364 0.795-0.812 0.795-0 0-0 0-0 0v0z"></path>
<path fill="#000" opacity="0.4" d="M16.652 19.672l1.148-1.125 0.714 0.697c-0.313 0.445-0.694 0.819-1.133 1.116l-0.015 0.009-0.714-0.697z"></path>
<path fill="#fff" d="M17.846 15.597c0 2.274-1.885 4.118-4.21 4.118s-4.21-1.844-4.21-4.118c0-2.274 1.885-4.118 4.21-4.118s4.21 1.844 4.21 4.118z"></path>
<path fill="#b8d432" d="M10.024 13.931c0.648 0.289 1.474 0.984 1.474 1.809 0 0.467-0.553 1.408-1.401 1.74 0.25 0.714 0.862 1.355 1.388 1.882 1.809-0.641 2.766-2.148 2.766-3.776 0-2.174-1.313-3.408-2.352-3.836-0.082-0.033-1.563 1.148-1.875 2.181z"></path>
<path fill="#fff" opacity="0.5" d="M13.635 12.215c1.908 0 3.457 1.516 3.457 3.382s-1.549 3.382-3.457 3.382c-1.905 0-3.454-1.516-3.454-3.382s1.549-3.382 3.454-3.382zM13.635 11.82c-2.132 0-3.859 1.691-3.859 3.776s1.727 3.776 3.859 3.776c2.132 0 3.862-1.691 3.862-3.776s-1.73-3.776-3.862-3.776z"></path>
<path fill="#000" d="M8.426 15.601c0 2.816 2.332 5.099 5.214 5.099 2.878 0 5.211-2.283 5.211-5.099s-2.332-5.099-5.211-5.099c-2.882 0-5.214 2.283-5.214 5.099zM9.775 15.601c0-2.089 1.73-3.78 3.865-3.78 2.132 0 3.862 1.691 3.862 3.78 0 2.086-1.73 3.776-3.862 3.776-2.135 0-3.865-1.691-3.865-3.776z"></path>
</svg>
