<!-- Generated by IcoMoon.io -->
<svg version="1.1" xmlns="http://www.w3.org/2000/svg" width="32" height="32" viewBox="0 0 32 32">
<title>Customer-Lockbox-For-Microsoft-Azure</title>
<path fill="#000" d="M20.173 23.233c0.002 0 0.005 0 0.007 0 0.614 0 1.111-0.504 1.115-1.127v-0c0-0.043 0-0.094 0-0.138-0.441-3.559-2.434-6.46-6.249-6.46s-5.856 2.449-6.274 6.471c-0.004 0.036-0.006 0.077-0.006 0.119 0 0.587 0.436 1.071 0.996 1.136l0.005 0h10.405z"></path>
<path fill="#fff" d="M15.039 15.912c-0.002 0-0.005 0-0.007 0-0.702 0-1.356-0.209-1.905-0.57l0.014 0.008 1.88 4.98 1.832-4.955c-0.514 0.335-1.141 0.535-1.814 0.536h-0z"></path>
<path fill="#000" d="M18.556 12.345c0 1.976-1.574 3.577-3.516 3.577s-3.516-1.602-3.516-3.577c0-1.976 1.574-3.577 3.516-3.577s3.516 1.602 3.516 3.577z"></path>
<path fill="#50e6ff" d="M16.070 22.748c0 0.268 0.214 0.485 0.477 0.485 0 0 0 0 0 0h6.215c0 0 0 0 0 0 0.263 0 0.477-0.217 0.477-0.485v-2.625c-0-0.268-0.214-0.485-0.477-0.485-0 0-0 0-0 0h-6.215c-0 0-0 0-0 0-0.263 0-0.477 0.217-0.477 0.485v2.625z"></path>
<path fill="#32bedd" d="M19.655 19.638h-3.108c-0 0-0 0-0 0-0.263 0-0.477 0.217-0.477 0.485v0 2.6c0 0.268 0.214 0.485 0.477 0.485 0 0 0 0 0 0h3.108v-3.57z"></path>
<path fill="#fff" d="M19.135 20.642l-0.077-0.087c-0.023-0.021-0.052-0.033-0.085-0.033s-0.063 0.013-0.085 0.033l0-0-1.498 1.508-0.536-0.546c-0.024-0.020-0.056-0.031-0.089-0.031s-0.065 0.012-0.090 0.032l0-0-0.076 0.087c-0.024 0.021-0.040 0.052-0.040 0.087s0.015 0.066 0.040 0.086l0 0 0.714 0.735h0.043c0.020 0.012 0.043 0.019 0.068 0.019s0.049-0.007 0.069-0.019l-0.001 0 1.66-1.73c0.010-0.017 0.016-0.037 0.016-0.058 0-0.031-0.013-0.060-0.033-0.080v0l-0.001-0.002z"></path>
<path fill="#f2f2f2" d="M22.396 22.254l-0.714-0.72 0.707-0.72c0.020-0.022 0.032-0.050 0.032-0.082s-0.012-0.061-0.032-0.082l0 0-0.094-0.093c-0.019-0.025-0.048-0.040-0.081-0.040s-0.062 0.016-0.081 0.040l-0 0-0.708 0.717-0.697-0.709c-0.022-0.025-0.054-0.041-0.089-0.041s-0.067 0.016-0.089 0.041l-0 0-0.087 0.079c-0.020 0.022-0.032 0.050-0.032 0.082s0.012 0.061 0.032 0.082l-0-0 0.707 0.726-0.697 0.712c-0.023 0.025-0.037 0.058-0.037 0.095s0.014 0.070 0.037 0.095l-0-0 0.084 0.077c0.017 0.025 0.045 0.041 0.077 0.041s0.059-0.016 0.076-0.040l0-0 0.714-0.72 0.717 0.72c0.021 0.020 0.050 0.032 0.081 0.032s0.060-0.012 0.081-0.032l-0 0 0.093-0.094c0.020-0.022 0.032-0.050 0.032-0.082s-0.012-0.061-0.032-0.082l0 0z"></path>
</svg>
