<!-- Generated by IcoMoon.io -->
<svg version="1.1" xmlns="http://www.w3.org/2000/svg" width="33" height="32" viewBox="0 0 33 32">
<title>Data-Box</title>
<path fill="#000" d="M24.073 16.123c-0.054-1.689-1.33-3.067-2.977-3.294l-0.018-0.002c-0.107-2.301-2.013-4.127-4.349-4.127-0.047 0-0.094 0.001-0.14 0.002l0.007-0c-0.026-0.001-0.056-0.001-0.086-0.001-1.905 0-3.531 1.184-4.172 2.851l-0.010 0.030c-2.006 0.255-3.551 1.908-3.618 3.931l-0 0.007c0.088 2.219 1.922 3.984 4.171 3.984 0.055 0 0.11-0.001 0.165-0.003l-0.008 0c0.056 0.004 0.121 0.006 0.187 0.006s0.131-0.002 0.196-0.007l-0.009 0h7.009c0.029 0.004 0.061 0.007 0.095 0.007s0.066-0.002 0.099-0.007l-0.004 0c1.887-0.015 3.416-1.512 3.464-3.375l0-0.004z"></path>
<path fill="#50e6ff" d="M16.791 15.42c-0.039-2.188-1.835-3.947-4.046-3.947-2.235 0-4.046 1.798-4.046 4.016s1.812 4.016 4.046 4.016c0.003 0 0.005 0 0.008 0h4.038v-4.084z"></path>
<path fill="#0078d4" d="M12.698 21.367l-1.922 1.897c-0.016 0.021-0.040 0.034-0.068 0.034s-0.053-0.013-0.068-0.034l-0-0-1.912-1.897c-0.016-0.018-0.026-0.042-0.026-0.068 0-0.053 0.042-0.097 0.094-0.101l0-0 1.127 0.001c0.001 0 0.002 0 0.004 0 0.052 0 0.094-0.042 0.094-0.093 0-0.009-0.001-0.018-0.004-0.026l0 0.001 0.001-2.459c0.004-0.048 0.045-0.085 0.094-0.085 0.003 0 0.006 0 0.009 0l-0-0 1.185 0.001c0.052 0 0.094 0.042 0.094 0.093 0 0 0 0 0 0v0l0.001 2.449c0 0 0 0 0 0 0 0.051 0.042 0.093 0.094 0.093 0.003 0 0.006-0 0.009-0l-0 0 1.125-0.001c0.010-0.004 0.022-0.006 0.034-0.006 0.057 0 0.104 0.046 0.104 0.103 0 0.045-0.029 0.083-0.069 0.097l-0.001 0z"></path>
<path fill="#fff" d="M14.812 16.691l1.981-1.965 1.989 1.965c0.018 0.017 0.030 0.041 0.030 0.068 0 0.051-0.042 0.093-0.094 0.093-0.001 0-0.003-0-0.004-0h0l-1.127 0.002c0 0 0 0 0 0-0.057 0-0.102 0.046-0.102 0.102v0l-0.001 2.541h-1.382v-2.542c0-0.003 0-0.006 0-0.009 0-0.053-0.041-0.097-0.094-0.101l-0-0-1.128 0.002c-0.050-0.002-0.090-0.043-0.090-0.093 0-0.023 0.008-0.043 0.022-0.060l-0 0z"></path>
</svg>
