<!-- Generated by IcoMoon.io -->
<svg version="1.1" xmlns="http://www.w3.org/2000/svg" width="28" height="32" viewBox="0 0 28 32">
<title>Data-Transfer</title>
<path fill="#3999c6" d="M4.147 7.364v11.947c0 1.687 2.731 3.083 6.146 3.083s6.146-1.379 6.146-3.083v-11.947h-12.293z"></path>
<path fill="#000" opacity="0.15" d="M4.147 22.394c3.415 0 6.146-1.379 6.146-3.083v-11.947h-6.146v15.030z"></path>
<path fill="#fff" d="M16.44 7.343c0 1.765-2.751 3.195-6.146 3.195s-6.146-1.43-6.146-3.195c0-1.765 2.751-3.195 6.146-3.195s6.146 1.43 6.146 3.195z"></path>
<path fill="#57a300" d="M15.186 7.117c0 1.121-2.192 2.030-4.893 2.030s-4.889-0.908-4.889-2.030c0-1.122 2.189-2.033 4.889-2.033s4.893 0.911 4.893 2.033z"></path>
<path fill="#b8d432" d="M14.16 8.356c0.64-0.342 1.023-0.772 1.023-1.24 0-1.122-2.189-2.030-4.889-2.030s-4.889 0.908-4.889 2.030c0 0.468 0.383 0.898 1.027 1.24 0.891-0.478 2.29-0.789 3.863-0.789 1.576 0 2.971 0.312 3.866 0.789z"></path>
<path fill="#fff" opacity="0.4" d="M16.441 11.534l-3.256 3.31c-0.104 0.106-0.169 0.252-0.169 0.413s0.064 0.308 0.169 0.413l1.084 1.101c0.104 0.106 0.249 0.172 0.408 0.172s0.304-0.066 0.408-0.172l0-0 1.355-1.379v-3.859z"></path>
<path fill="#804998" d="M13.32 15.257l6.461-6.556-1.494-1.518 5.069-0.735-0.725 5.147-1.494-1.518-6.458 6.556-1.359-1.376z"></path>
</svg>
