<!-- Generated by IcoMoon.io -->
<svg version="1.1" xmlns="http://www.w3.org/2000/svg" width="18" height="32" viewBox="0 0 18 32">
<title>Data-Lake</title>
<path fill="#3e3e3e" d="M1.5 4.72v14.52c0 1.52 3.334 2.72 7.5 2.72v-17.24h-7.5z"></path>
<path fill="#a0a1a2" d="M8.881 22h0.12c4.128 0 7.5-1.242 7.5-2.72v-14.559h-7.62v17.279z"></path>
<path fill="#fff" d="M16.5 4.721c0 1.52-3.334 2.72-7.5 2.72s-7.5-1.199-7.5-2.72c0-1.482 3.373-2.72 7.5-2.72s7.5 1.238 7.5 2.72z"></path>
<path fill="#7fba00" d="M14.954 4.561c0 0.998-2.66 1.799-5.955 1.799-3.291 0-5.951-0.801-5.951-1.799 0-1.002 2.66-1.803 5.951-1.803 3.295 0 5.955 0.801 5.955 1.803z"></path>
<path fill="#b8d432" d="M13.723 5.68c0.794-0.321 1.231-0.681 1.231-1.122 0-0.998-2.66-1.799-5.955-1.799-3.291 0-5.951 0.801-5.951 1.799 0 0.402 0.476 0.801 1.231 1.122 1.069-0.441 2.776-0.72 4.72-0.72 1.905 0 3.612 0.279 4.724 0.72z"></path>
<path fill="#3999c6" d="M8.88 22v-7.2c-1.111 0-2.064-0.6-2.618-1.482-0.557 0.882-1.468 1.482-2.579 1.482-0.875 0-1.63-0.36-2.184-0.96v5.44c0 1.478 3.295 2.681 7.38 2.72z"></path>
<path fill="#3999c6" d="M9 22c0 0 0 0 0 0z"></path>
<path fill="#59b4d9" d="M8.881 22h0.12c-0.042 0-0.081 0-0.12 0z"></path>
<path fill="#59b4d9" d="M14.199 14.8c-1.111 0-2.103-0.6-2.66-1.482-0.515 0.882-1.468 1.443-2.579 1.482v7.2c4.128 0 7.5-1.242 7.5-2.72v-5.482c-0.554 0.603-1.348 1.002-2.261 1.002z"></path>
<path fill="#59b4d9" d="M8.92 14.8c0 0 0 0 0 0l-0.039 7.2c0.039 0 0.039 0 0.078 0v-7.2c0 0 0 0-0.039 0z"></path>
</svg>
