<!-- Generated by IcoMoon.io -->
<svg version="1.1" xmlns="http://www.w3.org/2000/svg" width="35" height="32" viewBox="0 0 35 32">
<title>Data-Share</title>
<path fill="#949494" d="M23.927 12.136l-0.686-0.328-2.077 4.156h-1.776v0.73h1.796l2.057 4.12 0.686-0.331-2.088-4.173 2.088-4.175z"></path>
<path fill="#fff" d="M23.578 13.373c-0.003 0-0.005 0-0.008 0-0.28 0-0.54-0.082-0.757-0.223l0.005 0.003c-0.331-0.2-0.567-0.525-0.638-0.906l-0.001-0.008c-0.023-0.094-0.036-0.202-0.036-0.313 0-0.773 0.642-1.399 1.435-1.4h0c0.001 0 0.002 0 0.003 0 0.286 0 0.551 0.082 0.774 0.224l-0.005-0.003c0.323 0.207 0.553 0.529 0.629 0.905l0.002 0.009c0.022 0.091 0.034 0.197 0.034 0.304 0 0.773-0.643 1.4-1.436 1.4h-0v0.008z"></path>
<path fill="#32bedd" d="M23.579 10.885c0.223 0.002 0.431 0.066 0.605 0.176l-0.004-0.003c0.245 0.152 0.422 0.391 0.486 0.67l0.001 0.007c0.018 0.074 0.029 0.159 0.029 0.247 0 0.214-0.063 0.413-0.172 0.581l0.003-0.004c-0.203 0.302-0.547 0.499-0.938 0.504h-0.001c-0.003 0-0.007 0-0.011 0-0.218 0-0.422-0.062-0.594-0.168l0.005 0.003c-0.249-0.155-0.43-0.397-0.497-0.681l-0.001-0.007c-0.015-0.068-0.024-0.146-0.024-0.226 0-0.602 0.498-1.091 1.114-1.098h0.001zM23.579 10.262c-0.97 0.001-1.756 0.767-1.756 1.712s0.787 1.712 1.757 1.712 1.757-0.766 1.757-1.712c0-0.606-0.324-1.139-0.812-1.443l-0.007-0.004c-0.264-0.166-0.586-0.264-0.933-0.264-0.002 0-0.005 0-0.007 0h0z"></path>
<path fill="#fff" d="M23.577 22.050c-0.003 0-0.005 0-0.008 0-0.28 0-0.54-0.082-0.757-0.223l0.005 0.003c-0.408-0.247-0.675-0.682-0.675-1.177 0-0.277 0.083-0.534 0.227-0.75l-0.003 0.005c0.256-0.397 0.703-0.657 1.213-0.657 0.286 0 0.552 0.082 0.775 0.223l-0.006-0.003c0.402 0.253 0.664 0.687 0.664 1.18 0 0.773-0.642 1.399-1.435 1.4h-0z"></path>
<path fill="#32bedd" d="M23.579 19.562c0.223 0.002 0.431 0.066 0.605 0.176l-0.004-0.003c0.245 0.152 0.422 0.391 0.486 0.67l0.001 0.007c0.018 0.074 0.029 0.159 0.029 0.247 0 0.214-0.063 0.413-0.172 0.581l0.003-0.004c-0.203 0.302-0.547 0.499-0.938 0.504h-0.001c-0.003 0-0.007 0-0.011 0-0.218 0-0.422-0.062-0.594-0.168l0.005 0.003c-0.249-0.155-0.43-0.397-0.497-0.681l-0.001-0.007c-0.015-0.068-0.024-0.146-0.024-0.226 0-0.602 0.498-1.091 1.114-1.098h0.001zM23.579 18.939c-0.97 0.001-1.756 0.767-1.756 1.712s0.787 1.712 1.757 1.712 1.757-0.766 1.757-1.712c0-0.606-0.324-1.139-0.812-1.443l-0.007-0.004c-0.264-0.166-0.586-0.264-0.933-0.264-0.002 0-0.005 0-0.007 0h0z"></path>
<path fill="#000" d="M14.531 12.989c-2.817 0-5.167-0.815-5.167-1.812v9.628c0 0.997 2.264 1.831 5.065 1.831h0.102c2.817 0 5.139-0.807 5.139-1.831v-9.628c-0.039 0.997-2.322 1.812-5.139 1.812z"></path>
<path fill="#e8e8e8" d="M19.631 11.176c0 0.997-2.3 1.832-5.139 1.832-2.837 0-5.128-0.835-5.128-1.832s2.349-1.812 5.167-1.812c2.817 0 5.139 0.807 5.139 1.832l-0.039-0.019z"></path>
<path fill="#50e6ff" d="M18.431 11.029c0 0.633-1.757 1.146-3.938 1.146-2.179 0-3.936-0.512-3.936-1.146 0-0.631 1.765-1.151 3.974-1.151s3.936 0.512 3.936 1.151h-0.036z"></path>
<path fill="#198ab3" d="M14.531 11.296c-0.071-0.002-0.154-0.003-0.238-0.003-1.026 0-2.013 0.158-2.939 0.451l0.067-0.018c0.855 0.287 1.841 0.452 2.866 0.452 0.085 0 0.171-0.001 0.256-0.003l-0.012 0c0.071 0.002 0.154 0.003 0.238 0.003 1.031 0 2.022-0.165 2.947-0.47l-0.065 0.019c-0.859-0.274-1.848-0.433-2.875-0.433-0.086 0-0.172 0.001-0.258 0.003l0.013-0z"></path>
</svg>
