<!-- Generated by IcoMoon.io -->
<svg version="1.1" xmlns="http://www.w3.org/2000/svg" width="32" height="32" viewBox="0 0 32 32">
<title>Data-Factory</title>
<path fill="#005ba1" d="M15.914 17.266v-3.346c0-0.001 0-0.001 0-0.002 0-0.066-0.054-0.12-0.12-0.12-0.034 0-0.064 0.014-0.086 0.036l-6.983 6.984v2.456h10.34c0.003 0 0.005 0 0.008 0 0.265 0 0.479-0.215 0.479-0.479 0-0.003-0-0.006-0-0.009v0-8.867c0-0.001 0-0.001 0-0.002 0-0.066-0.054-0.12-0.12-0.12-0.034 0-0.064 0.014-0.086 0.036l-3.434 3.432z"></path>
<path fill="#000" d="M12.362 11.361c-2.009 0-3.636-0.59-3.636-1.352v12.778c-0 0.003-0 0.005-0 0.008 0 0.265 0.215 0.479 0.479 0.479 0.003 0 0.006-0 0.009-0h6.787v-13.265c0 0.762-1.627 1.352-3.639 1.352z"></path>
<path fill="#fff" d="M19.346 21.101c0 0.132 0.107 0.24 0.24 0.24l1.464-0.001c0.132 0 0.24-0.107 0.24-0.24v0l-0.001-1.462c0-0.132-0.107-0.24-0.24-0.24v0l-1.464-0.002c-0.132 0-0.24 0.107-0.24 0.24v0l0.001 1.464z"></path>
<path fill="#fff" d="M15.974 21.101c0 0.132 0.107 0.24 0.24 0.24l1.464-0.001c0.132 0 0.24-0.107 0.24-0.24v0l-0.001-1.462c0-0.132-0.107-0.24-0.24-0.24v0l-1.464-0.002c-0.132 0-0.24 0.107-0.24 0.24v0l0.001 1.464z"></path>
<path fill="#fff" d="M12.602 21.101c0 0.132 0.107 0.24 0.24 0.24l1.464-0.001c0.132 0 0.24-0.107 0.24-0.24v0l-0.001-1.462c0-0.132-0.107-0.24-0.24-0.24v0l-1.464-0.002c-0.132 0-0.24 0.107-0.24 0.24v0l0.001 1.464z"></path>
<path fill="#eaeaea" d="M16.001 10.010c0 0.726-1.627 1.316-3.639 1.316-2.009 0-3.636-0.554-3.636-1.316s1.627-1.283 3.636-1.283c2.012 0 3.639 0.59 3.639 1.283z"></path>
<path fill="#50e6ff" d="M15.143 9.933c0 0.47-1.25 0.855-2.79 0.855s-2.79-0.367-2.79-0.855c0-0.488 1.301-0.831 2.8-0.831 1.496 0 2.779 0.37 2.779 0.831z"></path>
<path fill="#198ab3" d="M12.362 10.129c-0.039-0.001-0.085-0.001-0.131-0.001-0.741 0-1.456 0.117-2.125 0.333l0.049-0.014c0.608 0.206 1.309 0.326 2.037 0.326 0.060 0 0.119-0.001 0.178-0.002l-0.009 0c0.051 0.001 0.111 0.002 0.172 0.002 0.729 0 1.429-0.119 2.084-0.339l-0.046 0.013c-0.621-0.203-1.335-0.319-2.076-0.319-0.047 0-0.094 0-0.14 0.001l0.007-0z"></path>
</svg>
