<!-- Generated by IcoMoon.io -->
<svg version="1.1" xmlns="http://www.w3.org/2000/svg" width="26" height="32" viewBox="0 0 26 32">
<title>Data-And-Storage</title>
<path fill="#a0a1a2" d="M13.117 12.206c0-0.784 1.464-1.448 3.486-1.674v-4.715h-12.84v8.497c-0 0.002-0 0.005-0 0.007 0 0.26 0.206 0.472 0.464 0.481l0.001 0h8.889v-2.597z"></path>
<path fill="#7a7a7a" d="M4.228 20.558c-0.259 0.009-0.465 0.221-0.465 0.481 0 0.003 0 0.005 0 0.008v-0 1.541h12.837v-1.64c0-0.259-0.206-0.412-0.488-0.412l-11.884 0.023z"></path>
<path fill="#b8d432" d="M15.573 10.701v-1.421h-10.781v1.803h9.496c0.363-0.152 0.794-0.283 1.239-0.374l0.046-0.008z"></path>
<path fill="#fff" d="M4.792 6.587h10.782v1.799h-10.782v-1.799z"></path>
<path fill="#b8d432" d="M13.116 12.207c0.003-0.083 0.021-0.162 0.051-0.233l-0.002 0.004h-8.367v1.796h8.318v-1.567z"></path>
<path fill="#fff" opacity="0.2" d="M4.275 11.57c-0.281 0.003-0.509 0.23-0.511 0.511v9.912c0 0.511 0.229 0.594 0.511 0.594h0.564l10.117-11.017h-10.682z"></path>
<path fill="#0072c6" d="M3.763 12.23v8.716c0 0.923 2.029 1.64 4.532 1.64v-10.356h-4.532z"></path>
<path fill="#0072c6" d="M3.763 22.587h0.063c2.504 0 4.532-0.734 4.532-1.64v-8.716h-4.596v10.356z"></path>
<path fill="#fff" opacity="0.15" d="M3.763 22.587h0.063c2.504 0 4.532-0.734 4.532-1.64v-8.716h-4.596v10.356z"></path>
<path fill="#fff" d="M22.589 12.231c0 0.906-2.029 1.64-4.532 1.64s-4.532-0.734-4.532-1.64c0-0.906 2.029-1.644 4.532-1.644s4.532 0.737 4.532 1.644z"></path>
<path fill="#57a300" d="M21.663 12.13c0 0.598-1.614 1.082-3.603 1.082-1.992 0-3.609-0.481-3.609-1.082 0-0.604 1.614-1.079 3.606-1.079 1.989 0 3.606 0.485 3.606 1.079z"></path>
<path fill="#b8d432" d="M20.906 12.798c0.471-0.183 0.757-0.412 0.757-0.661 0-0.601-1.614-1.086-3.603-1.086-1.992 0-3.609 0.485-3.609 1.079 0 0.246 0.282 0.478 0.757 0.661 0.782-0.265 1.683-0.418 2.62-0.418 0.080 0 0.161 0.001 0.24 0.003l-0.012-0c0.062-0.002 0.136-0.003 0.209-0.003 0.944 0 1.852 0.155 2.699 0.442l-0.059-0.017z"></path>
<path fill="#fff" d="M16.617 18.294c0 0.008 0 0.016 0 0.025 0 0.247-0.12 0.465-0.304 0.601l-0.002 0.001c-0.207 0.141-0.463 0.225-0.738 0.225-0.027 0-0.053-0.001-0.079-0.002l0.004 0c-0.016 0.001-0.035 0.001-0.054 0.001-0.25 0-0.486-0.059-0.696-0.164l0.009 0.004v-0.634c0.2 0.18 0.465 0.291 0.757 0.292h0c0.009 0 0.019 0.001 0.029 0.001 0.103 0 0.198-0.030 0.279-0.082l-0.002 0.001c0.066-0.046 0.108-0.121 0.108-0.206 0-0.002-0-0.004-0-0.007v0c0-0 0-0 0-0.001 0-0.090-0.040-0.171-0.104-0.226l-0-0c-0.123-0.096-0.263-0.179-0.413-0.243l-0.012-0.005c-0.365-0.118-0.629-0.443-0.654-0.834l-0-0.003c-0-0.008-0-0.016-0-0.025 0-0.239 0.111-0.453 0.284-0.591l0.002-0.001c0.192-0.146 0.436-0.234 0.7-0.234 0.020 0 0.040 0 0.060 0.002l-0.003-0c0.020-0.001 0.044-0.001 0.069-0.001 0.225 0 0.442 0.039 0.642 0.112l-0.013-0.004v0.598c-0.179-0.125-0.402-0.199-0.642-0.199-0.007 0-0.013 0-0.020 0h0.001c-0.007-0-0.016-0.001-0.024-0.001-0.1 0-0.193 0.030-0.27 0.081l0.002-0.001c-0.066 0.045-0.108 0.12-0.108 0.205 0 0.002 0 0.003 0 0.005v-0c-0 0.003-0 0.008-0 0.012 0 0.083 0.033 0.157 0.087 0.212v0c0.101 0.085 0.216 0.157 0.341 0.212l0.009 0.003c0.222 0.095 0.412 0.225 0.571 0.385l0 0c0.115 0.127 0.186 0.296 0.186 0.482 0 0.002 0 0.004-0 0.006v-0zM19.695 17.643c0 0.005 0 0.010 0 0.015 0 0.319-0.092 0.617-0.25 0.868l0.004-0.007c-0.148 0.24-0.371 0.422-0.636 0.515l-0.009 0.003 0.843 0.76h-0.837l-0.591-0.664c-0.258-0.005-0.498-0.080-0.703-0.206l0.006 0.003c-0.203-0.124-0.365-0.297-0.471-0.504l-0.003-0.007c-0.099-0.2-0.156-0.435-0.156-0.684 0-0.010 0-0.021 0-0.031l-0 0.002c-0-0.009-0-0.019-0-0.030 0-0.277 0.066-0.539 0.184-0.77l-0.004 0.010c0.116-0.228 0.291-0.411 0.505-0.535l0.006-0.003c0.207-0.117 0.455-0.186 0.719-0.186 0.010 0 0.020 0 0.029 0l-0.001-0c0.004-0 0.009-0 0.013-0 0.251 0 0.487 0.067 0.691 0.183l-0.007-0.004c0.209 0.123 0.375 0.3 0.482 0.511l0.003 0.007c0.115 0.218 0.183 0.476 0.183 0.75 0 0.001 0 0.003 0 0.004v-0zM19.018 17.68c0.001-0.021 0.002-0.046 0.002-0.071 0-0.234-0.072-0.451-0.194-0.63l0.003 0.004c-0.113-0.154-0.293-0.253-0.496-0.253-0.008 0-0.015 0-0.023 0l0.001-0c-0.006-0-0.013-0-0.020-0-0.21 0-0.398 0.1-0.517 0.254l-0.001 0.002c-0.125 0.189-0.199 0.421-0.199 0.671s0.074 0.482 0.202 0.675l-0.003-0.005c0.117 0.154 0.3 0.253 0.507 0.253 0.006 0 0.013-0 0.019-0l-0.001 0c0.006 0 0.014 0 0.021 0 0.205 0 0.388-0.096 0.506-0.245l0.001-0.001c0.121-0.168 0.194-0.379 0.194-0.606 0-0.016-0-0.031-0.001-0.047l0 0.002v-0.003zM21.87 19.094h-1.7v-2.859h0.644v2.338h1.056v0.521z"></path>
</svg>
