<!-- Generated by IcoMoon.io -->
<svg version="1.1" xmlns="http://www.w3.org/2000/svg" width="23" height="32" viewBox="0 0 23 32">
<title>Database-Migration-Service</title>
<path fill="#000" d="M20.901 11.036c-0.072-2.056-1.65-3.73-3.685-4.009l-0.023-0.003c-0.125-2.801-2.479-5.026-5.365-5.026-0.061 0-0.122 0.001-0.182 0.003l0.009-0c-0.029-0.001-0.064-0.001-0.098-0.001-2.362 0-4.378 1.451-5.163 3.491l-0.013 0.037c-2.481 0.301-4.394 2.308-4.48 4.768l-0 0.008c0.112 2.707 2.385 4.861 5.173 4.861 0.060 0 0.12-0.001 0.18-0.003l-0.009 0h9.14c0.034 0.006 0.074 0.009 0.115 0.009s0.080-0.003 0.119-0.010l-0.004 0.001c2.338-0.019 4.232-1.849 4.286-4.123l0-0.005z"></path>
<path fill="#000" d="M11.401 13.657c-2.769 0-5.034-0.706-5.034-1.563v8.34c0 0.861 2.226 1.556 4.974 1.566h0.060c2.78 0 5.031-0.706 5.031-1.566v-8.34c0.049 0.857-2.201 1.563-5.031 1.563z"></path>
<path fill="#e8e8e8" d="M16.48 12.093c0 0.861-2.251 1.566-5.031 1.566-2.783 0-5.034-0.706-5.034-1.566 0-0.857 2.265-1.563 4.985-1.563s5.034 0.695 5.034 1.563h0.046z"></path>
<path fill="#50e6ff" d="M15.314 11.999c0 0.554-1.736 1.002-3.866 1.002s-3.852-0.483-3.852-1.002c0-0.515 1.732-1.034 3.806-1.034 2.071 0 3.863 0.448 3.863 0.998l0.049 0.035z"></path>
<path fill="#32bedd" d="M11.402 12.2c-0.072-0.002-0.156-0.003-0.241-0.003-1 0-1.966 0.139-2.88 0.398l0.073-0.018c0.842 0.248 1.81 0.391 2.813 0.391 0.083 0 0.165-0.001 0.248-0.003l-0.012 0c0.071 0.002 0.155 0.003 0.239 0.003 1.003 0 1.973-0.143 2.888-0.409l-0.072 0.018c-0.842-0.241-1.81-0.38-2.811-0.38-0.086 0-0.172 0.001-0.257 0.003l0.013-0z"></path>
<path fill="#f2f2f2" d="M8.123 7.294l3.119-3.059c0.068-0.067 0.162-0.109 0.266-0.109s0.199 0.042 0.266 0.109l0 0 3.119 3.059c0.025 0.028 0.040 0.066 0.040 0.106 0 0.088-0.071 0.16-0.16 0.164l-0 0-1.915 0.001c-0.093 0-0.169 0.074-0.169 0.165v0l-0.001 3.786c0.001 0.005 0.001 0.011 0.001 0.017 0 0.053-0.036 0.098-0.085 0.112l-0.001 0-2.142 0.001c-0.004 0-0.008 0.001-0.013 0.001-0.066 0-0.12-0.053-0.12-0.118 0-0.004 0-0.009 0.001-0.013l-0 0.001-0.002-3.801c0-0.001 0-0.002 0-0.004 0-0.078-0.056-0.144-0.131-0.161l-0.001-0-1.949-0.001c-0.085-0.009-0.151-0.079-0.151-0.164 0-0.036 0.012-0.069 0.031-0.096l-0 0z"></path>
</svg>
