<!-- Generated by IcoMoon.io -->
<svg version="1.1" xmlns="http://www.w3.org/2000/svg" width="32" height="32" viewBox="0 0 32 32">
<title>Data-Box-Edge-And-Gateway</title>
<path fill="#000" d="M18.919 19.915c-0.038-1.275-1.018-2.314-2.282-2.481l-0.014-0.001c-0.076-1.735-1.534-3.113-3.322-3.113-0.038 0-0.075 0.001-0.113 0.002l0.005-0c-0.022-0.001-0.049-0.001-0.075-0.001-1.461 0-2.709 0.894-3.2 2.153l-0.008 0.023c-1.536 0.187-2.719 1.436-2.758 2.963l-0 0.004c0.069 1.672 1.474 3.002 3.196 3.002 0.040 0 0.081-0.001 0.121-0.002l-0.006 0h5.802c1.446-0.008 2.619-1.14 2.651-2.546l0-0.003z"></path>
<path fill="#50e6ff" d="M6.321 20.55c-0-0.008-0-0.018-0-0.027 0-1.42 1.178-2.57 2.632-2.57 0.010 0 0.020 0 0.030 0h-0.002c0.006-0 0.014-0 0.021-0 1.457 0 2.639 1.154 2.639 2.577 0 0.007-0 0.014-0 0.022v-0.001 2.591h-2.66c-0.008 0-0.018 0-0.028 0-1.453 0-2.632-1.151-2.632-2.57 0-0.007 0-0.015 0-0.022v0.001z"></path>
<path fill="#fff" d="M10.639 20.721v-0.382l-0.398-0.136-0.098-0.26 0.196-0.404v-0.040l-0.127-0.124-0.147-0.162h-0.056l-0.391 0.204-0.267-0.076-0.176-0.431h-0.384l-0.133 0.391-0.293 0.116-0.456-0.213-0.273 0.267v0.049l0.204 0.382-0.12 0.287-0.469 0.171v0.384h0.056l0.413 0.136 0.111 0.26-0.209 0.444 0.273 0.273h0.056l0.384-0.191 0.273 0.109 0.169 0.458h0.391v-0.053l0.133-0.411 0.267-0.109 0.46 0.211 0.273-0.267v-0.053l-0.196-0.384 0.078-0.267 0.453-0.178zM8.994 21.076c-0.278-0.031-0.491-0.26-0.491-0.537s0.213-0.505 0.488-0.536l0.003-0c0.002-0 0.005-0 0.007-0 0.302 0 0.546 0.239 0.546 0.533 0 0 0 0 0 0v0c0 0.002 0 0.004 0 0.007 0 0.294-0.244 0.533-0.546 0.533-0.003 0-0.005-0-0.008-0h0z"></path>
</svg>
