<!-- Generated by IcoMoon.io -->
<svg version="1.1" xmlns="http://www.w3.org/2000/svg" width="31" height="32" viewBox="0 0 31 32">
<title>Data-Catalog</title>
<path fill="#999" d="M9.069 10.109l0.823-0.924c0.067-0.074 0.162-0.123 0.268-0.13l0.001-0h7.661c0.012-0.001 0.026-0.002 0.040-0.002 0.3 0 0.543 0.242 0.543 0.539 0 0.003-0 0.006-0 0.009v-0 9.496c-0.002 0.114-0.052 0.216-0.132 0.286l-0 0-0.821 0.777-8.384-10.053z"></path>
<path fill="#999" opacity="0.5" d="M9.069 10.109l0.823-0.924c0.067-0.074 0.162-0.123 0.268-0.13l0.001-0h7.661c0.012-0.001 0.026-0.002 0.040-0.002 0.3 0 0.543 0.242 0.543 0.539 0 0.003-0 0.006-0 0.009v-0 9.496c-0.002 0.114-0.052 0.216-0.132 0.286l-0 0-0.821 0.777-8.384-10.053z"></path>
<path fill="#fff" d="M9.71 10.107l0.485-0.554c0.064-0.057 0.148-0.091 0.241-0.091 0.008 0 0.016 0 0.025 0.001l-0.001-0h7.149c0 0 0 0 0 0 0.191 0 0.345 0.154 0.346 0.343v0 8.999c-0.001 0.099-0.042 0.188-0.108 0.252l-0 0-0.765 0.696-7.372-9.646z"></path>
<path fill="#000" d="M17.032 10.099h-7.979v9.808c0 0 0 0.001 0 0.002 0 0.14 0.114 0.253 0.255 0.253h7.725c0.141-0 0.255-0.113 0.255-0.253 0-0.001 0-0.001 0-0.002v0-9.553c0-0 0-0.001 0-0.002 0-0.14-0.114-0.253-0.255-0.253v0z"></path>
<path fill="#000" d="M12.648 16.883c-1.983 0-3.595-0.507-3.595-1.135v6.063c0 0.622 1.581 1.127 3.546 1.137h0.049c1.99 0 3.603-0.507 3.603-1.137v-6.063c0 0.627-1.613 1.135-3.602 1.135v0z"></path>
<path fill="#e8e8e8" d="M21.556 15.747c0 0.63-1.644 1.137-3.602 1.137s-3.595-0.507-3.595-1.137c0-0.63 1.644-1.144 3.595-1.144 1.948 0 3.602 0.515 3.602 1.144z"></path>
<path fill="#50e6ff" d="M20.716 15.657c0 0.402-1.24 0.721-2.762 0.721s-2.757-0.319-2.757-0.72c0-0.399 1.235-0.728 2.757-0.728s2.762 0.328 2.762 0.728z"></path>
<path fill="#198ab3" d="M17.954 15.821c-0.052-0.001-0.113-0.002-0.174-0.002-0.715 0-1.406 0.102-2.059 0.292l0.052-0.013c0.6 0.179 1.29 0.282 2.004 0.282 0.062 0 0.124-0.001 0.186-0.002l-0.009 0c0.052 0.001 0.113 0.002 0.174 0.002 0.717 0 1.409-0.103 2.064-0.294l-0.052 0.013c-0.605-0.177-1.3-0.279-2.019-0.279-0.059 0-0.117 0.001-0.176 0.002l0.009-0z"></path>
</svg>
