<!-- Generated by IcoMoon.io -->
<svg version="1.1" xmlns="http://www.w3.org/2000/svg" width="35" height="32" viewBox="0 0 35 32">
<title>Data-Lake-Storage-Gen1</title>
<path fill="#005ba1" d="M25.226 11.018h-6.976c-0.004 0-0.009 0-0.014 0-0.074 0-0.142-0.025-0.196-0.066l0.001 0.001-1.996-1.299c-0.059-0.035-0.13-0.056-0.206-0.056h-5.866c-0.204 0.001-0.37 0.16-0.375 0.358v12.086c0.006 0.199 0.172 0.358 0.375 0.359h15.253c0.204-0.001 0.37-0.16 0.375-0.358v-10.655c0-0 0-0.001 0-0.001 0-0.203-0.168-0.368-0.375-0.369h-0z"></path>
<path fill="#fff" d="M11.057 10.862c0 0.082 0.067 0.148 0.151 0.148l3.333-0.001c0.083 0 0.151-0.066 0.151-0.148v0l-0.001-0.414c0-0.082-0.067-0.148-0.151-0.148l-3.333 0.001c-0.083 0-0.151 0.066-0.151 0.148v0l0.001 0.414z"></path>
<path fill="#1ac3f2" d="M11.057 10.907c0 0.056 0.046 0.101 0.104 0.101l0.518 0c0.057 0 0.104-0.045 0.104-0.101v0l0.001-0.505c0-0.056-0.046-0.101-0.104-0.101l-0.518-0c-0.057 0-0.104 0.045-0.104 0.101v0l-0.001 0.505z"></path>
<path fill="#000" d="M25.226 11.001h-7.625c-0.004-0-0.008-0-0.013-0-0.1 0-0.19 0.042-0.252 0.11l-0 0-1.27 1.2c-0.069 0.061-0.161 0.1-0.262 0.102h-5.83c-0.207 0.001-0.374 0.164-0.375 0.367v9.226c0.006 0.199 0.172 0.358 0.375 0.359h15.253c0.204-0.001 0.37-0.16 0.375-0.358v-10.618c0-0.005 0-0.012 0-0.018 0-0.204-0.168-0.369-0.376-0.369h-0z"></path>
<path fill="#fff" d="M18.711 12.955c-0.011-0.003-0.024-0.005-0.038-0.005s-0.026 0.002-0.039 0.005l0.001-0c-0.001 0-0.086 0-0.122 0.065l-2.975 4.235c-0.013 0.021-0.020 0.047-0.020 0.074s0.008 0.053 0.021 0.075l-0-0.001c0.028 0.051 0.080 0.086 0.14 0.092l0.001 0 1.761 0-0.782 2.566c-0.008 0.016-0.013 0.034-0.013 0.054 0 0.051 0.032 0.094 0.078 0.112l0.001 0c0.010 0.004 0.021 0.006 0.033 0.006s0.023-0.002 0.034-0.006l-0.001 0c0.057-0.002 0.086-0.002 0.122-0.067l3.069-4.297v-0.093c-0.005-0.083-0.075-0.148-0.16-0.148-0 0-0 0-0 0l-1.881 0.001 0.762-2.518c0.019-0.021 0.031-0.049 0.031-0.080 0-0.025-0.008-0.049-0.022-0.068l0 0z"></path>
</svg>
