<!-- Generated by IcoMoon.io -->
<svg version="1.1" xmlns="http://www.w3.org/2000/svg" width="24" height="32" viewBox="0 0 24 32">
<title>Data-Lake-Analytics</title>
<path fill="#a0a1a2" d="M18.541 20.401h-12.983c-0.992 0-1.804-0.816-1.804-1.811v-13.022c0-0.995 0.813-1.808 1.804-1.808h12.983c0.992 0 1.804 0.813 1.804 1.808v13.022c0 0.995-0.813 1.811-1.804 1.811zM5.558 4.952c-0.338 0-0.594 0.278-0.594 0.594v13.025c0 0.338 0.278 0.594 0.594 0.594h12.983c0.338 0 0.594-0.278 0.594-0.594v-13.025c0-0.338-0.278-0.594-0.594-0.594h-12.983z"></path>
<path fill="#7a7a7a" d="M10.294 2.326c-0.436-0.197-0.95-0.239-1.407-0.060-0.457 0.158-0.834 0.496-1.031 0.953l-0.278 0.577h5.846l-3.13-1.47zM21.853 8.907c-0.162-0.457-0.496-0.834-0.953-1.034l-0.573-0.278v5.885l1.467-3.141c0.218-0.457 0.236-0.953 0.060-1.432zM2.327 15.211c-0.2 0.436-0.239 0.953-0.060 1.411 0.158 0.457 0.496 0.837 0.95 1.034l0.577 0.278v-5.864l-1.467 3.141zM15.169 21.852c0.239 0.12 0.517 0.179 0.774 0.179 0.218 0 0.419-0.042 0.637-0.12 0.454-0.162 0.83-0.499 1.031-0.957l0.274-0.577h-5.846l3.13 1.474z"></path>
<path fill="#fff" d="M5.557 4.95c-0.338 0-0.594 0.278-0.594 0.598v13.022c0 0.338 0.278 0.598 0.594 0.598h12.983c0.338 0 0.594-0.281 0.594-0.598v-13.022c0-0.338-0.278-0.598-0.594-0.598h-12.983z"></path>
<path fill="#59b4d9" d="M14.912 10.835h-2.515l1.048-3.517c0.021-0.102-0.018-0.2-0.098-0.239-0.018-0.021-0.060-0.021-0.077-0.021-0.060 0-0.12 0.042-0.158 0.081l-4.066 5.944c-0.039 0.060-0.039 0.137-0.018 0.197 0.039 0.060 0.098 0.102 0.176 0.102h2.441l-1.090 3.577c-0.021 0.099 0.018 0.201 0.098 0.239 0.018 0.021 0.060 0.021 0.077 0.021 0.060 0 0.12-0.042 0.158-0.081l4.182-6.004c0.021-0.039 0.042-0.081 0.042-0.12 0-0.098-0.098-0.179-0.2-0.179z"></path>
</svg>
