<!-- Generated by IcoMoon.io -->
<svg version="1.1" xmlns="http://www.w3.org/2000/svg" width="29" height="32" viewBox="0 0 29 32">
<title>Ddos-Protection-Plan</title>
<path fill="#0078d4" d="M20.364 15.516c0 3.914-4.624 7.065-5.628 7.704-0.054 0.034-0.12 0.055-0.19 0.055s-0.136-0.020-0.191-0.056l0.002 0.001c-1.006-0.639-5.63-3.79-5.63-7.704v-4.704c0-0 0-0 0-0 0-0.203 0.159-0.368 0.356-0.372h0c3.598-0.098 2.766-1.714 5.464-1.714 2.695 0 1.866 1.617 5.464 1.714 0.197 0.005 0.354 0.17 0.354 0.372 0 0 0 0 0 0v-0 4.704z"></path>
<path fill="#000" d="M19.884 15.556c0 3.59-4.24 6.467-5.163 7.065-0.050 0.031-0.11 0.049-0.175 0.049s-0.125-0.018-0.176-0.050l0.002 0.001c-0.926-0.583-5.163-3.475-5.163-7.065v-4.317c0-0.184 0.144-0.334 0.323-0.339h0c3.298-0.090 2.538-1.568 5.015-1.568 2.474 0 1.714 1.478 5.012 1.568 0.18 0.004 0.326 0.154 0.326 0.339v4.317z"></path>
<path fill="#e6e6e6" d="M16.758 18.846c-0 0.213-0.169 0.386-0.377 0.387h-3.67c-0 0-0 0-0 0-0.209 0-0.379-0.173-0.38-0.387v-6.937c-0-0.002-0-0.005-0-0.007 0-0.214 0.17-0.388 0.38-0.388 0 0 0 0 0 0h3.67c0.209 0.001 0.377 0.175 0.377 0.388 0 0.003-0 0.005-0 0.008v-0 6.937z"></path>
<path fill="#003067" d="M12.964 12.767c0-0.268 0.212-0.485 0.474-0.485 0 0 0 0 0 0h2.215c0.261 0.001 0.472 0.218 0.472 0.485v0c0 0.002 0 0.005 0 0.008 0 0.267-0.211 0.484-0.472 0.485h-2.215c-0 0-0 0-0 0-0.262 0-0.474-0.217-0.474-0.485 0-0.003 0-0.005 0-0.008v0z"></path>
<path fill="#50e6ff" d="M13.786 12.759c0 0.183-0.145 0.331-0.324 0.331s-0.324-0.148-0.324-0.331c0-0.183 0.145-0.331 0.324-0.331s0.324 0.148 0.324 0.331z"></path>
<path fill="#003067" d="M12.964 14.303c0-0.269 0.212-0.488 0.474-0.493h2.215c0.262 0.006 0.472 0.224 0.472 0.493v0c0 0.002 0 0.005 0 0.008 0 0.267-0.211 0.484-0.472 0.485h-2.215c-0 0-0 0-0 0-0.262 0-0.474-0.217-0.474-0.485 0-0.003 0-0.005 0-0.008v0z"></path>
<path fill="#50e6ff" d="M13.786 14.303c0 0.183-0.145 0.331-0.324 0.331s-0.324-0.148-0.324-0.331c0-0.183 0.145-0.331 0.324-0.331s0.324 0.148 0.324 0.331z"></path>
</svg>
