<!-- Generated by IcoMoon.io -->
<svg version="1.1" xmlns="http://www.w3.org/2000/svg" width="22" height="32" viewBox="0 0 22 32">
<title>DDOS-Protection</title>
<path fill="#57a300" d="M15.928 6.248c-4.204-0.451-4.908-2.22-4.908-2.22s-0.947 2.326-6.993 2.326v9.553c0 1.155 0.658 2.237 1.566 3.184 2.063 2.141 5.428 3.586 5.428 3.586s6.993-2.993 6.993-6.77v-9.553c-0.776 0-1.47-0.036-2.086-0.105z"></path>
<path fill="#000" d="M8.837 9.807c0-0.368 0.296-0.664 0.664-0.664h3.036c0.368 0 0.664 0.296 0.664 0.664s-0.296 0.668-0.664 0.668h-3.036c-0.368 0-0.664-0.299-0.664-0.668z"></path>
<path fill="#000" d="M9.974 9.808c0 0.247-0.199 0.448-0.445 0.448s-0.445-0.2-0.445-0.448c0-0.247 0.199-0.448 0.445-0.448s0.445 0.2 0.445 0.448z"></path>
<path fill="#000" d="M8.837 11.672c0-0.368 0.296-0.664 0.664-0.664h3.036c0.368 0 0.664 0.296 0.664 0.664s-0.296 0.668-0.664 0.668h-3.036c-0.368 0-0.664-0.299-0.664-0.668z"></path>
<path fill="#000" d="M9.974 11.672c0 0.247-0.199 0.448-0.445 0.448s-0.445-0.2-0.445-0.448c0-0.247 0.199-0.448 0.445-0.448s0.445 0.2 0.445 0.448z"></path>
<path fill="#000" d="M8.837 13.537c0-0.368 0.296-0.664 0.664-0.664h3.036c0.368 0 0.664 0.296 0.664 0.664s-0.296 0.668-0.664 0.668h-3.036c-0.368 0-0.664-0.299-0.664-0.668z"></path>
<path fill="#000" d="M9.974 13.537c0 0.247-0.199 0.448-0.445 0.448s-0.445-0.2-0.445-0.448c0-0.247 0.199-0.448 0.445-0.448s0.445 0.2 0.445 0.448z"></path>
<path fill="#8a0" d="M12.75 13.784l3.178-3.947c-4.204-0.454-4.908-2.224-4.908-2.224s-0.947 2.329-6.993 2.329v9.553c0 1.155 0.658 2.237 1.566 3.181l7.158-8.892z"></path>
<path fill="#000" d="M14.072 18.043c0 0.293-0.237 0.53-0.526 0.53h-5.053c-0.289 0-0.526-0.237-0.526-0.53v-9.385c0-0.293 0.237-0.53 0.526-0.53h5.053c0.289 0 0.526 0.237 0.526 0.53v9.385z"></path>
<path fill="#0f0" d="M8.837 9.017h0.808v0.79h-0.808v-0.79z"></path>
<path fill="#0f0" d="M8.837 10.167h0.808v0.79h-0.808v-0.79z"></path>
<path fill="#0f0" d="M8.837 11.316h0.808v0.79h-0.808v-0.79z"></path>
<path fill="#4d4d4d" d="M10.009 9.017h3.181v0.79h-3.181v-0.79z"></path>
<path fill="#4d4d4d" d="M10.009 10.167h3.181v0.79h-3.181v-0.79z"></path>
<path fill="#4d4d4d" d="M10.009 11.316h3.181v0.79h-3.181v-0.79z"></path>
</svg>
