<!-- Generated by IcoMoon.io -->
<svg version="1.1" xmlns="http://www.w3.org/2000/svg" width="32" height="32" viewBox="0 0 32 32">
<title>Deployment-Script</title>
<path fill="#0078d4" d="M20.74 13.211h2.284c0.146-0 0.264-0.118 0.264-0.264 0-0.021-0.003-0.042-0.007-0.062l0 0.002-0.906-3.957c-0.028-0.118-0.132-0.205-0.257-0.205-0.001 0-0.001 0-0.002 0h-2.284c-0.146 0-0.264 0.118-0.264 0.264 0 0.021 0.003 0.042 0.007 0.062l-0-0.002 0.906 3.957c0.027 0.118 0.132 0.205 0.257 0.205h0.003zM9.897 23.274h2.284c0.146-0 0.264-0.118 0.264-0.264 0-0.021-0.002-0.042-0.007-0.062l0 0.002-0.906-3.957c-0.027-0.118-0.132-0.205-0.257-0.205h-2.284c-0.001 0-0.002 0-0.002 0-0.146 0-0.264 0.118-0.264 0.264 0 0.021 0.002 0.042 0.007 0.062l-0-0.002 0.906 3.957c0.028 0.118 0.132 0.205 0.257 0.205 0.001 0 0.001 0 0.002 0h-0z"></path>
<path fill="#000" d="M17.938 23.274h-8.969c-0.134-0-0.242-0.109-0.242-0.242 0-0.019 0.002-0.038 0.006-0.056l-0 0.002 3.221-14.064c0.026-0.109 0.122-0.188 0.237-0.188 0 0 0.001 0 0.001 0l8.967 0.001c0 0 0 0 0 0 0.134 0 0.243 0.109 0.243 0.242 0 0.019-0.002 0.038-0.006 0.056l0-0.002-3.222 14.064c-0.026 0.109-0.122 0.188-0.237 0.188-0 0-0 0-0 0h0l0.001-0.001z"></path>
<path fill="#c3f1ff" d="M18.594 16.018l-3.49-3.978-0.996 0.873 2.62 2.982-2.987 2.618 0.873 0.993 3.98-3.488z"></path>
</svg>
