<!-- Generated by IcoMoon.io -->
<svg version="1.1" xmlns="http://www.w3.org/2000/svg" width="28" height="32" viewBox="0 0 28 32">
<title>Deployment</title>
<path d="M13.204 6.381l-2.653 2.545v-1.382l3.198-3.395 3.205 3.385v1.376l-2.639-2.528v4.503h-1.111v-4.503zM22.647 12.69h-17.788c-0.393 0-0.712 0.322-0.712 0.718v8.267c0 0.396 0.322 0.718 0.712 0.718h17.785c0.393 0 0.712-0.322 0.712-0.718v-8.267c-0.002-0.395-0.317-0.715-0.708-0.718h-0zM21.908 20.846h-16.328v-6.604h16.328v6.604z"></path>
<path d="M12.079 16.059h3.198v3.229h-3.198v-3.229zM16.85 16.059h3.198v3.229h-3.198v-3.229zM7.309 16.059h3.199v3.229h-3.199v-3.229z"></path>
</svg>
