<!-- Generated by IcoMoon.io -->
<svg version="1.1" xmlns="http://www.w3.org/2000/svg" width="27" height="32" viewBox="0 0 27 32">
<title>Devtest-Lab</title>
<path fill="#0072c6" d="M22.674 13.536c0-1.194-0.97-2.161-2.161-2.161h-0.263c0.151-0.487 0.188-1.007 0.188-1.53 0.036-3.207-2.572-5.819-5.743-5.819-2.536 0-4.701 1.641-5.447 3.954-0.408-0.151-0.819-0.224-1.266-0.224-2.201 0-3.954 1.789-3.954 3.99s1.753 3.954 3.918 3.954h12.717c1.158-0.112 2.013-1.046 2.013-2.165z"></path>
<path fill="#fff" opacity="0.098" d="M10.069 15.701c-0.523-0.523-0.895-1.194-1.082-1.941-0.484-2.125 0.819-4.25 2.947-4.737 0.447-0.112 0.895-0.112 1.306-0.072 0.184-2.016 1.414-3.77 3.207-4.665-0.559-0.148-1.118-0.26-1.753-0.26-2.536 0-4.701 1.641-5.447 3.954-0.408-0.151-0.819-0.224-1.266-0.224-2.201 0-3.954 1.789-3.954 3.99s1.753 3.954 3.918 3.954h2.125z"></path>
<path fill="#59b4d9" d="M21.294 21.294l-3.915-6.826v-2.76h0.076c0.484 0 0.855-0.372 0.855-0.855 0-0.487-0.408-0.859-0.855-0.859h-4.329c-0.484 0-0.859 0.372-0.859 0.859 0 0.484 0.375 0.855 0.859 0.855h0.076v2.76l-3.954 6.826c-0.447 0.747-0.076 1.382 0.783 1.382h10.48c0.895 0 1.23-0.595 0.783-1.382z"></path>
<path fill="#804998" d="M18.050 18.388h-1.865c0.036 0.112 0.076 0.224 0.076 0.336 0 0.447-0.375 0.783-0.783 0.783-0.411 0-0.783-0.375-0.783-0.783 0-0.112 0.036-0.263 0.072-0.336h-2.273l-1.605 2.796h8.803l-1.641-2.796z"></path>
<path fill="#68217a" d="M15.477 19.505c0.447 0 0.783-0.372 0.783-0.783 0-0.112-0.036-0.263-0.072-0.336h-1.418c-0.039 0.112-0.076 0.224-0.076 0.336 0 0.447 0.372 0.783 0.783 0.783z"></path>
<path fill="#68217a" d="M16.857 20.139c0 0.206-0.167 0.373-0.373 0.373s-0.373-0.167-0.373-0.373c0-0.206 0.167-0.373 0.373-0.373s0.373 0.167 0.373 0.373z"></path>
<path fill="#fff" opacity="0.25" d="M9.249 21.294l3.954-6.826v-2.76h-0.076c-0.484 0-0.859-0.372-0.859-0.855 0-0.487 0.375-0.859 0.859-0.859h1.865v4.474l-2.089 8.207h-2.872c-0.859 0-1.194-0.595-0.783-1.382z"></path>
</svg>
