<!-- Generated by IcoMoon.io -->
<svg version="1.1" xmlns="http://www.w3.org/2000/svg" width="30" height="32" viewBox="0 0 30 32">
<title>Diagnostics-Setting</title>
<path fill="#5e9624" d="M20.277 8.731h-10.109c-0.001 0-0.002 0-0.004 0-0.151 0-0.287 0.066-0.378 0.171l-0.001 0.001-1.062 1.203 11.651 11.582-1.742 1.563h0.87c0 0 0 0 0.001 0 0.153 0 0.293-0.054 0.4-0.144l-0.001 0.001 1.019-0.916c0.102-0.091 0.165-0.222 0.167-0.367v-12.385c0-0.007 0-0.016 0-0.024 0-0.382-0.316-0.692-0.705-0.692-0.037 0-0.074 0.003-0.11 0.008l0.004-0.001z"></path>
<path fill="#fff" d="M9.577 10.098l0.644-0.718c0.074-0.088 0.182-0.145 0.304-0.154l0.001-0h9.473c0 0 0.001 0 0.001 0 0.25 0 0.453 0.199 0.453 0.444 0 0.001 0 0.002 0 0.002v-0 11.769c-0.002 0.128-0.059 0.243-0.148 0.323l-0 0-1.001 0.906-9.726-12.572z"></path>
<path fill="#000" d="M19.214 10.088h-10.447c-0.025 0.004-0.044 0.025-0.044 0.051 0 0 0 0.001 0 0.001v-0l-0 12.813c0.001 0.179 0.149 0.323 0.331 0.323 0 0 0 0 0 0h10.16c0 0 0 0 0 0 0.182 0 0.33-0.145 0.331-0.323v-12.531c0-0.003 0-0.006 0-0.009 0-0.179-0.148-0.325-0.331-0.325-0 0-0 0-0 0v0z"></path>
<path fill="#fff" d="M17.927 14.983c0-0.005 0-0.011 0-0.018 0-0.175-0.144-0.316-0.322-0.316-0.001 0-0.001 0-0.002 0h-1.611c-0.002-0-0.003-0-0.005-0-0.055 0-0.102 0.031-0.125 0.076l-0 0.001-0.67 1.18-1.098-2.178-1.019 3.117-0.87-2.222-1.149 2.086c-0.025 0.048-0.073 0.082-0.13 0.085l-0 0-0.521-0.001c-0.001 0-0.002 0-0.003 0-0.166 0-0.302 0.123-0.32 0.281l-0 0.001c-0.001 0.010-0.002 0.021-0.002 0.033 0 0.175 0.144 0.316 0.322 0.316 0.001 0 0.002 0 0.003 0h0.87c0.061-0 0.113-0.035 0.139-0.085l0-0.001 0.679-1.254 1.054 2.561 1.070-3.297 0.939 1.87 1.054-1.852c0.023-0.046 0.071-0.077 0.125-0.077 0.002 0 0.004 0 0.006 0l1.262-0c0 0 0.001 0 0.001 0 0.175 0 0.317-0.137 0.322-0.307v-0z"></path>
</svg>
