<!-- Generated by IcoMoon.io -->
<svg version="1.1" xmlns="http://www.w3.org/2000/svg" width="32" height="32" viewBox="0 0 32 32">
<title>Disk-Encryption-Set</title>
<path fill="#0078d4" d="M10.111 8.725h1.696v0.488h-1.696v-0.488zM22.522 9.213h0.275v0.257h0.47v-0.744h-0.744v0.488zM9.495 22.753h-0.239v-0.275h-0.531v0.796h0.77v-0.521zM22.804 22.496v0.257h-0.275v0.513h0.744v-0.77h-0.47zM9.264 9.462v-0.257h0.239v-0.48h-0.778v0.737h0.539zM12.636 8.725h1.686v0.488h-1.686v-0.488zM15.144 8.725h1.686v0.488h-1.686v-0.488zM17.677 8.725h1.686v0.488h-1.686v-0.488zM20.194 8.725h1.686v0.488h-1.686v-0.488zM10.129 22.753h1.678v0.488h-1.678v-0.488zM12.644 22.753h1.686v0.488h-1.686v-0.488zM15.169 22.753h1.686v0.488h-1.686v-0.488zM17.695 22.753h1.686v0.488h-1.686v-0.488zM20.21 22.753h1.686v0.488h-1.686v-0.488zM22.779 10.052h0.488v1.684h-0.488v-1.684zM22.779 12.575h0.488v1.684h-0.488v-1.684zM22.779 15.090h0.488v1.676h-0.488v-1.676zM22.779 17.605h0.488v1.683h-0.488v-1.683zM22.779 20.128h0.488v1.683h-0.488v-1.683zM8.725 10.034h0.488v1.686h-0.488v-1.686zM8.725 12.557h0.488v1.686h-0.488v-1.686zM8.725 15.072h0.488v1.694h-0.488v-1.694zM8.725 17.595h0.488v1.686h-0.488v-1.686zM8.725 20.102h0.488v1.683h-0.488v-1.683z"></path>
<path fill="#76bc2d" d="M17.113 17.707c-0.23-0.232-0.372-0.551-0.372-0.903s0.142-0.672 0.372-0.903l0.649-0.649c-0.679-0.158-1.459-0.249-2.261-0.249-0.008 0-0.017 0-0.025 0h0.001c-2.628 0-4.75 0.857-4.75 1.95 0 1.096 2.104 1.95 4.743 1.95 0.895-0.009 1.758-0.133 2.578-0.358l-0.071 0.017-0.865-0.855z"></path>
<path fill="#000" d="M20.211 12.617c0 1.077-2.123 1.95-4.741 1.95s-4.741-0.873-4.741-1.95c0-1.077 2.123-1.95 4.741-1.95s4.741 0.873 4.741 1.95z"></path>
<path fill="#005ba1" d="M17.155 12.591c0 0.236-0.705 0.428-1.575 0.428s-1.575-0.191-1.575-0.428c0-0.236 0.705-0.428 1.575-0.428s1.575 0.191 1.575 0.428z"></path>
<path fill="#0078d4" d="M21.631 17.407c0.162-0.156 0.262-0.374 0.262-0.616s-0.1-0.46-0.262-0.616l-0-0-1.506-1.514c-0.156-0.161-0.374-0.261-0.616-0.261s-0.46 0.1-0.616 0.261l-1.507 1.507c-0.162 0.156-0.262 0.374-0.262 0.616s0.1 0.46 0.262 0.616l0 0 1.258 1.283c0.040 0.045 0.066 0.104 0.069 0.169l0 0.001v2.335c0.001 0.080 0.033 0.152 0.085 0.205l-0-0 0.575 0.572c0.037 0.035 0.086 0.056 0.141 0.056s0.105-0.021 0.141-0.056l0.872-0.872c0.020-0.021 0.032-0.050 0.032-0.081s-0.012-0.060-0.032-0.081l0 0-0.257-0.238c-0.025-0.021-0.040-0.051-0.040-0.086s0.016-0.065 0.040-0.085l0-0 0.231-0.24c0.020-0.021 0.032-0.050 0.032-0.081s-0.012-0.060-0.032-0.081l0 0-0.231-0.233c-0.025-0.022-0.041-0.054-0.041-0.090s0.016-0.068 0.040-0.090l0-0 0.231-0.228c0.020-0.021 0.032-0.050 0.032-0.081s-0.012-0.060-0.032-0.081l0 0-0.326-0.343v-0.11l1.455-1.455zM19.509 15.028c0.033-0.008 0.071-0.012 0.11-0.012 0.274 0 0.496 0.222 0.496 0.496s-0.222 0.496-0.496 0.496c-0.039 0-0.077-0.005-0.113-0.013l0.003 0.001c-0.274 0-0.497-0.222-0.497-0.497s0.222-0.497 0.497-0.497v0 0.026z"></path>
<path fill="#0078d4" d="M18.611 20.79c0.22-0.221 0.519-0.361 0.852-0.375l0.002-0c0.203 0.003 0.394 0.050 0.565 0.132l-0.008-0.004c0.074-0.117 0.126-0.256 0.146-0.405l0.001-0.005v-1.139c0 1.070-2.122 1.943-4.743 1.943-2.618 0-4.707-0.855-4.707-1.943v1.078c0 1.078 2.122 1.95 4.75 1.95 0.007 0 0.015 0 0.023 0 0.743 0 1.468-0.075 2.169-0.217l-0.070 0.012 1.019-1.027z"></path>
<path fill="#c3f1ff" opacity="0.75" d="M19.124 21.213c0.020 0.019 0.047 0.031 0.077 0.031s0.057-0.012 0.077-0.031l-0 0c0.004-0.010 0.006-0.022 0.006-0.034s-0.002-0.024-0.007-0.035l0 0.001-0-1.923c-0.005-0.038-0.024-0.071-0.051-0.094l-0-0c-0.019-0.017-0.045-0.027-0.073-0.027s-0.053 0.010-0.073 0.027l0-0c-0.005 0.009-0.008 0.019-0.008 0.030s0.003 0.021 0.008 0.030l-0-0-0.001 1.941c-0 0.002-0 0.004-0 0.007 0 0.033 0.017 0.062 0.043 0.079l0 0z"></path>
<path fill="#c3f1ff" opacity="0.75" d="M18.311 16.825c0 0.076 0.061 0.137 0.137 0.137l2.198-0.001c0.076 0 0.137-0.061 0.137-0.137v0l0.002-0.017c0-0.076-0.061-0.137-0.137-0.137l-2.201 0.001c-0.076 0-0.137 0.061-0.137 0.137v0l0.001 0.017z"></path>
<path fill="#c3f1ff" opacity="0.75" d="M18.311 17.304c0 0.076 0.061 0.137 0.137 0.137l2.198-0.001c0.076 0 0.137-0.061 0.137-0.137v0l0.002-0.017c0-0.076-0.061-0.137-0.137-0.137l-2.201 0.001c-0.076 0-0.137 0.061-0.137 0.137v0l0.001 0.017z"></path>
<path fill="#5e9624" d="M18.311 18.922l-0.359-0.359c-0.735 0.184-1.578 0.29-2.446 0.29-0.013 0-0.025-0-0.038-0h0.002c-2.628 0-4.75-0.855-4.75-1.95v1.086c0 1.078 2.122 1.95 4.75 1.95 0.018 0 0.039 0 0.061 0 0.991 0 1.948-0.143 2.851-0.411l-0.071 0.018v-0.624zM16.745 16.628c-0.328-0.092-0.704-0.144-1.092-0.144-0.026 0-0.051 0-0.077 0.001l0.004-0c-0.855 0-1.573 0.195-1.573 0.426s0.708 0.429 1.573 0.429c0.021 0 0.045 0.001 0.070 0.001 0.411 0 0.809-0.059 1.184-0.17l-0.030 0.007c-0.042-0.125-0.066-0.269-0.066-0.419 0-0.049 0.003-0.097 0.008-0.144l-0 0.006v0.008z"></path>
</svg>
