<!-- Generated by IcoMoon.io -->
<svg version="1.1" xmlns="http://www.w3.org/2000/svg" width="32" height="32" viewBox="0 0 32 32">
<title>DNS-Zone</title>
<path fill="#000" d="M23.604 15.949c0 4.228-3.427 7.655-7.655 7.655s-7.655-3.427-7.655-7.655c0-4.228 3.427-7.655 7.655-7.655s7.655 3.427 7.655 7.655z"></path>
<path fill="#5ea0ef" d="M15.999 9.070c-3.827 0.001-6.929 3.104-6.929 6.931s3.103 6.931 6.931 6.931 6.931-3.103 6.931-6.931c0-0 0-0.001 0-0.001v0c-0.006-3.826-3.106-6.926-6.932-6.93h-0zM20.641 11.403c-0.559 0.321-1.208 0.57-1.896 0.714l-0.043 0.008c-0.255-0.926-0.641-1.736-1.143-2.459l0.017 0.026c1.206 0.296 2.245 0.895 3.065 1.712l-0-0zM15.999 9.456c0.002 0 0.003 0 0.005 0 0.345 0 0.684 0.029 1.013 0.086l-0.035-0.005c0.636 0.753 1.114 1.662 1.37 2.659l0.010 0.047c-0.738 0.142-1.588 0.223-2.456 0.223s-1.718-0.081-2.541-0.236l0.085 0.013c0.265-1.024 0.736-1.914 1.369-2.662l-0.008 0.010c0.353-0.076 0.762-0.125 1.181-0.135l0.008-0zM14.198 9.691c-0.492 0.691-0.884 1.496-1.132 2.362l-0.014 0.055c-0.648-0.134-1.222-0.375-1.732-0.706l0.020 0.012c0.769-0.787 1.732-1.383 2.81-1.711l0.047-0.012zM11.241 20.507c0.459-0.31 0.995-0.548 1.572-0.68l0.032-0.006c0.24 0.943 0.661 1.764 1.227 2.464l-0.009-0.012c-1.117-0.354-2.067-0.964-2.819-1.763l-0.003-0.003zM17.017 22.489c-0.254 0.036-0.548 0.056-0.846 0.056-0.061 0-0.121-0.001-0.181-0.003l0.009 0c-0.004 0-0.009 0-0.014 0-0.454 0-0.897-0.049-1.323-0.143l0.041 0.007c-0.734-0.715-1.265-1.635-1.5-2.667l-0.007-0.036c0.797-0.17 1.712-0.267 2.651-0.267s1.854 0.097 2.737 0.282l-0.086-0.015c-0.247 1.070-0.783 1.99-1.521 2.702l-0.002 0.002 0.043 0.081zM17.676 22.346c0.574-0.707 1.005-1.554 1.236-2.481l0.009-0.044c0.682 0.163 1.283 0.421 1.826 0.763l-0.025-0.015c-0.812 0.827-1.844 1.436-3.002 1.73l-0.044 0.010v0.038zM19.010 19.443c0.073-0.324 0.135-0.656 0.181-1.010l-0.416 0.1c-0.043 0.278-0.089 0.559-0.154 0.821-0.825-0.176-1.773-0.277-2.744-0.277s-1.919 0.101-2.833 0.293l0.089-0.016c-0.062-0.243-0.108-0.505-0.154-0.775-0.002-0.012-0.003-0.026-0.003-0.041s0.001-0.028 0.003-0.042l-0 0.001-0.413-0.119c-0.002 0.038-0.004 0.082-0.004 0.127s0.001 0.089 0.004 0.133l-0-0.006c0 0.289 0.097 0.559 0.151 0.821-0.683 0.153-1.286 0.418-1.82 0.776l0.019-0.012c-0.941-1.123-1.512-2.583-1.512-4.177 0-1.648 0.611-3.153 1.619-4.302l-0.006 0.007c0.537 0.351 1.164 0.619 1.837 0.768l0.038 0.007c-0.062 0.216-0.116 0.451-0.162 0.686s0 0.224-0.073 0.332l0.424-0.097v-0.154c0.054-0.235 0.108-0.459 0.17-0.678 0.732 0.142 1.573 0.222 2.433 0.222 0.111 0 0.222-0.001 0.332-0.004l-0.016 0c0.886-0 1.753-0.086 2.591-0.249l-0.085 0.014c0.062 0.243 0.127 0.505 0.181 0.764l0.413 0.1c-0.065-0.324-0.138-0.624-0.216-0.902 0.784-0.174 1.477-0.457 2.105-0.836l-0.031 0.018c1.012 1.142 1.63 2.652 1.63 4.307 0 1.626-0.597 3.113-1.583 4.254l0.007-0.008c-0.574-0.381-1.241-0.682-1.956-0.865l-0.046-0.010v0.027z"></path>
<path fill="#fff" d="M10.827 14.162c0.306-0.046 0.659-0.073 1.018-0.073 0.010 0 0.019 0 0.029 0h-0.001c0.053-0.005 0.115-0.007 0.178-0.007 0.517 0 0.993 0.179 1.369 0.478l-0.004-0.003c0.329 0.327 0.532 0.779 0.532 1.279 0 0.014-0 0.027-0 0.041l0-0.002c0.002 0.030 0.002 0.064 0.002 0.099 0 0.535-0.211 1.021-0.554 1.378l0.001-0.001c-0.405 0.344-0.935 0.554-1.513 0.554-0.057 0-0.113-0.002-0.169-0.006l0.008 0c-0.017 0-0.036 0-0.056 0-0.298 0-0.592-0.016-0.882-0.047l0.036 0.003 0.008-3.694zM11.324 17.522c0.074 0.005 0.16 0.008 0.247 0.008s0.173-0.003 0.259-0.009l-0.011 0.001c0.050 0.006 0.108 0.009 0.166 0.009 0.806 0 1.46-0.654 1.46-1.46 0-0.064-0.004-0.126-0.012-0.188l0.001 0.007c0.003-0.036 0.005-0.078 0.005-0.121 0-0.747-0.605-1.352-1.352-1.352-0.069 0-0.137 0.005-0.203 0.015l0.007-0.001c-0.085-0.009-0.184-0.014-0.284-0.014s-0.199 0.005-0.296 0.015l0.012-0.001v3.090zM14.586 17.865v-3.794h0.532l1.215 1.893c0.226 0.345 0.455 0.749 0.657 1.169l0.029 0.066c-0.046-0.505-0.054-0.964-0.054-1.558v-1.569h0.451v3.794h-0.497l-1.188-1.901c-0.262-0.424-0.513-0.902-0.713-1.261v3.189l-0.432-0.027zM18.218 17.271c0.259 0.152 0.57 0.243 0.902 0.243h0c0.505 0 0.791-0.262 0.791-0.648 0-0.389-0.197-0.559-0.71-0.748-0.516-0.189-1.010-0.543-1.010-1.083 0.035-0.579 0.513-1.035 1.098-1.035 0.048 0 0.096 0.003 0.142 0.009l-0.006-0.001c0.016-0.001 0.035-0.001 0.054-0.001 0.285 0 0.554 0.066 0.794 0.184l-0.011-0.005-0.143 0.408c-0.204-0.114-0.447-0.181-0.706-0.181-0.005 0-0.010 0-0.015 0h0.001c-0.521 0-0.721 0.305-0.721 0.567s0.235 0.532 0.756 0.732c0.524 0.197 0.975 0.556 0.975 1.115s-0.432 1.091-1.334 1.091c-0.007 0-0.014 0-0.022 0-0.346 0-0.671-0.090-0.952-0.248l0.010 0.005 0.108-0.405z"></path>
</svg>
