<!-- Generated by IcoMoon.io -->
<svg version="1.1" xmlns="http://www.w3.org/2000/svg" width="29" height="32" viewBox="0 0 29 32">
<title>Ebook</title>
<path fill="#0072c6" d="M4.412 5.707v14.736c0 0 0 0 0 0 0 0.247 0.195 0.447 0.435 0.447 0 0 0.001 0 0.001 0h5.652c1.719 0 2.318 0.472 2.516 0.728 0.079 0.105 0.202 0.166 0.335 0.166h2.559c0.13 0 0.252-0.061 0.335-0.166 0.198-0.256 0.793-0.728 2.516-0.728h5.652c0.239-0.001 0.433-0.201 0.433-0.447 0-0 0-0 0-0v0-14.736c0-0 0-0 0-0 0-0.246-0.193-0.445-0.432-0.447h-19.566c-0 0-0.001 0-0.001 0-0.24 0-0.435 0.2-0.435 0.447 0 0 0 0 0 0v-0z"></path>
<path fill="#e5e5e5" d="M6.151 6.6h16.957v12.95h-16.957v-12.95z"></path>
<path fill="#7a7a7a" d="M23.824 6.231c-0.087-0.072-2.134-1.82-5.219-1.82-2.473 0-3.576 1.363-3.976 2.047-0.396-0.685-1.503-2.047-3.972-2.047-3.086 0-5.133 1.748-5.219 1.82l-0.155 0.133v13.287h18.697v-13.287l-0.155-0.133z"></path>
<path fill="#e5e5e5" d="M10.705 4.859c-2.992 0-4.989 1.716-4.989 1.716v12.53c0 0 2.682-0.559 5.018-0.559 1.882 0 3.767 1.006 3.767 1.006v-12.555c0 0-0.804-2.138-3.796-2.138zM18.556 4.859c2.992 0 4.989 1.716 4.989 1.716v12.53c0 0-2.685-0.559-5.021-0.559-1.882 0-3.763 1.006-3.763 1.006v-12.555c0 0 0.8-2.138 3.796-2.138z"></path>
<path fill="#231f20" opacity="0.4" d="M6.586 7.596c1.095-0.587 2.391-0.932 3.765-0.932 0.107 0 0.213 0.002 0.319 0.006l-0.015-0c1.355 0.050 2.274 0.512 2.887 1.020v0.598c-0.53-0.541-1.431-1.117-2.887-1.171-1.813-0.072-3.255 0.541-4.070 0.998v-0.519zM6.586 9.38c1.095-0.587 2.391-0.932 3.765-0.932 0.107 0 0.213 0.002 0.319 0.006l-0.015-0c1.355 0.054 2.274 0.515 2.887 1.020v0.598c-0.53-0.537-1.431-1.114-2.887-1.171-1.813-0.072-3.255 0.541-4.070 0.998v-0.519zM6.586 11.168c1.095-0.587 2.391-0.932 3.765-0.932 0.107 0 0.213 0.002 0.319 0.006l-0.015-0c1.355 0.050 2.274 0.512 2.887 1.020v0.598c-0.53-0.541-1.431-1.117-2.887-1.171-1.813-0.072-3.255 0.541-4.070 0.998v-0.519zM6.586 12.952c1.095-0.587 2.391-0.932 3.765-0.932 0.107 0 0.213 0.002 0.319 0.006l-0.015-0c1.355 0.054 2.274 0.515 2.887 1.020v0.602c-0.53-0.541-1.431-1.117-2.887-1.175-1.813-0.072-3.255 0.541-4.070 0.998v-0.519zM6.586 14.74c1.095-0.587 2.391-0.932 3.765-0.932 0.107 0 0.213 0.002 0.319 0.006l-0.015-0c1.355 0.050 2.274 0.512 2.887 1.020v0.598c-0.53-0.541-1.431-1.117-2.887-1.171-1.813-0.072-3.255 0.541-4.070 0.998v-0.519zM6.586 16.524c1.095-0.587 2.391-0.932 3.765-0.932 0.107 0 0.213 0.002 0.319 0.006l-0.015-0c1.355 0.054 2.274 0.515 2.887 1.020v0.602c-0.53-0.541-1.431-1.117-2.887-1.175-1.813-0.072-3.255 0.541-4.070 0.998v-0.519zM22.673 7.596c-1.095-0.587-2.391-0.932-3.765-0.932-0.107 0-0.213 0.002-0.319 0.006l0.015-0c-1.352 0.050-2.274 0.512-2.887 1.020v0.598c0.53-0.541 1.431-1.117 2.887-1.171 1.813-0.072 3.255 0.541 4.070 0.998v-0.519zM22.673 9.38c-1.095-0.587-2.391-0.932-3.765-0.932-0.107 0-0.213 0.002-0.319 0.006l0.015-0c-1.352 0.054-2.274 0.515-2.887 1.020v0.598c0.53-0.537 1.431-1.114 2.887-1.171 1.813-0.072 3.255 0.541 4.070 0.998v-0.519zM22.673 11.168c-1.095-0.587-2.391-0.932-3.765-0.932-0.107 0-0.213 0.002-0.319 0.006l0.015-0c-1.352 0.050-2.274 0.512-2.887 1.020v0.598c0.53-0.541 1.431-1.117 2.887-1.171 1.813-0.072 3.255 0.541 4.070 0.998v-0.519zM22.673 12.952c-1.095-0.587-2.391-0.932-3.765-0.932-0.107 0-0.213 0.002-0.319 0.006l0.015-0c-1.352 0.054-2.274 0.515-2.887 1.020v0.602c0.53-0.541 1.431-1.117 2.887-1.175 1.813-0.072 3.255 0.541 4.070 0.998v-0.519zM21.369 14.192c-0.678-0.177-1.892-0.415-2.765-0.378-1.352 0.050-2.274 0.512-2.887 1.020v0.598c0.53-0.541 1.431-1.117 2.887-1.171 0.084-0.003 0.182-0.005 0.281-0.005 0.73 0 1.436 0.105 2.106 0.3l-0.054-0.014 0.433-0.35z"></path>
<path fill="#fff" opacity="0.2" d="M9.63 5.38c-1.773 0.256-3.053 1.099-3.478 1.413v11.773c0.717-0.13 2.073-0.346 3.478-0.429v-12.757zM18.76 5.311c-0.050-0.004-0.105-0.007-0.155-0.007-2.354 0-3.168 1.453-3.323 1.784v11.769c0.735-0.314 2.004-0.757 3.291-0.757 0.061 0 0.126 0.004 0.187 0.004v-12.793z"></path>
</svg>
