<!-- Generated by IcoMoon.io -->
<svg version="1.1" xmlns="http://www.w3.org/2000/svg" width="28" height="32" viewBox="0 0 28 32">
<title>Education</title>
<path fill="#773adc" d="M20.991 10.861h-13.992v6.483c0 1.685 3.133 3.064 7.068 3.064 3.939 0 7.068-1.337 7.068-3.064l-0.143-6.483z"></path>
<path fill="#000" d="M13.117 1.983l-10.393 5.469c-0.264 0.17-0.437 0.468-0.437 0.807 0 0.164 0.041 0.319 0.112 0.454l-0.002-0.005c0.070 0.159 0.183 0.288 0.324 0.374l0.004 0.002 10.393 4.651c0.14 0.063 0.303 0.1 0.474 0.1s0.335-0.037 0.482-0.103l-0.008 0.003 11.019-4.679c0.278-0.17 0.461-0.478 0.461-0.829 0-0.155-0.036-0.302-0.099-0.432l0.002 0.006c-0.076-0.173-0.203-0.311-0.36-0.399l-0.004-0.002-10.99-5.44c-0.136-0.066-0.296-0.104-0.464-0.104-0.188 0-0.364 0.048-0.519 0.131l0.006-0.003z"></path>
<path fill="#50e6ff" d="M22.8 12.734c-0.050-0.266-0.155-0.5-0.302-0.7l0.003 0.004c-0.747-1.336-1.876-2.372-3.232-2.965l-0.044-0.017-4.52-1.939-1.444 1.055 4.548 1.992c1.591 0.682 2.839 1.94 3.517 3.515l0.017 0.043c0.188 0.66 0.318 1.427 0.363 2.217l0.001 0.029 1.092-3.235zM21.916 15.969l0.544-1.113 0.691 0.912h0.127c0.009-0.135 0.015-0.291 0.015-0.45 0-0.933-0.186-1.822-0.522-2.629l0.016 0.044-0.871 3.235z"></path>
<path fill="#552f99" d="M13.834 8.643c0.961 0 1.738-0.409 1.738-0.912 0-0.499-0.777-0.908-1.738-0.908s-1.742 0.409-1.742 0.908c0 0.503 0.781 0.912 1.742 0.912z"></path>
</svg>
