<!-- Generated by IcoMoon.io -->
<svg version="1.1" xmlns="http://www.w3.org/2000/svg" width="32" height="32" viewBox="0 0 32 32">
<title>Endpoint-Security</title>
<path fill="#5ea0ef" d="M20.086 15.2c0 3.706-4.512 6.683-5.489 7.281-0.054 0.031-0.119 0.049-0.187 0.049s-0.133-0.018-0.189-0.049l0.002 0.001c-0.988-0.606-5.497-3.583-5.497-7.281v-4.468c0.004-0.191 0.159-0.345 0.351-0.349h0c3.506-0.095 2.689-1.658 5.299-1.658s1.82 1.537 5.335 1.619c0.187 0.009 0.336 0.16 0.341 0.346v0l0.033 4.509z"></path>
<path fill="#60b0ef" d="M19.613 15.199c0 3.398-4.142 6.126-5.040 6.685-0.049 0.030-0.107 0.048-0.171 0.048s-0.122-0.018-0.172-0.049l0.001 0.001c-0.898-0.536-5.033-3.262-5.033-6.685v-4.047c-0-0.005-0-0.011-0-0.017 0-0.163 0.124-0.297 0.284-0.314l0.001-0c3.262-0.087 2.505-1.488 4.894-1.488s1.671 1.401 4.894 1.488c0.18 0 0.326 0.145 0.326 0.323v0l0.015 4.055z"></path>
<path fill="#000" d="M14.378 15.644v-6.313c2.446 0 1.671 1.401 4.891 1.491 0.178 0.005 0.321 0.147 0.326 0.323v4.458l-5.217 0.041zM14.378 15.644h-5.163c0.326 3.236 4.16 5.746 5.015 6.272 0.040 0.024 0.087 0.038 0.138 0.038h0.010v-6.311z"></path>
<path fill="#0078d4" d="M9.484 10.83c3.262-0.098 2.502-1.499 4.894-1.499v6.313h-5.163v-4.491c-0-0.004-0-0.008-0-0.012 0-0.159 0.115-0.291 0.268-0.318l0.002-0v0.008zM19.595 15.644h-5.217v6.311c0.051-0.001 0.099-0.015 0.14-0.039l-0.001 0.001c0.921-0.536 4.753-3.077 5.071-6.272h0.008z"></path>
<path fill="#949494" d="M12.901 23.13l0.269-0.875 0.513-0.3 0.898 0.39 0.57-0.583v-0.090l-0.408-0.808 0.246-0.552 0.896-0.323 0.098-0.041v-0.808h-0.113l-0.88-0.267-0.295-0.511 0.385-0.888-0.588-0.567h-0.067l-0.814 0.403-0.572-0.241-0.359-0.988h-0.816l-0.039 0.113-0.269 0.875-0.572 0.241-0.962-0.436-0.57 0.583 0.056 0.105 0.423 0.811-0.228 0.565-0.978 0.364v0.808l0.113 0.041 0.883 0.267 0.244 0.567-0.431 0.932 0.595 0.565 0.105-0.056 0.816-0.429 0.57 0.226 0.423 1.052h0.816l0.041-0.144zM11.571 20.515c-0.226-0.214-0.366-0.515-0.366-0.849 0-0.648 0.529-1.173 1.183-1.173s1.183 0.525 1.183 1.173c0 0.334-0.14 0.635-0.366 0.849l-0 0c-0.211 0.203-0.499 0.327-0.816 0.327s-0.605-0.125-0.816-0.328l0 0z"></path>
</svg>
