<!-- Generated by IcoMoon.io -->
<svg version="1.1" xmlns="http://www.w3.org/2000/svg" width="32" height="32" viewBox="0 0 32 32">
<title>Enterprise-Application</title>
<path fill="#000" d="M13.114 19.479h3.694v3.706h-3.694v-3.706zM8.847 14.568h3.651v-3.684h-3.171c-0 0-0 0-0 0-0.283 0-0.512 0.229-0.512 0.511 0 0 0 0 0 0.001v-0l0.033 3.171zM9.326 23.185h3.171v-3.706h-3.684v3.171c-0 0.007-0.001 0.015-0.001 0.023 0 0.282 0.229 0.511 0.512 0.511 0 0 0.001 0 0.001 0h-0zM8.814 18.924h3.684v-3.742h-3.684v3.742zM17.421 23.185h3.172c0 0 0 0 0 0 0.282 0 0.511-0.228 0.512-0.509v-3.197h-3.684v3.706zM13.157 18.924h3.651v-3.742h-3.694l0.043 3.742zM17.464 18.924h3.658v-3.742h-3.701l0.043 3.742zM17.464 10.945v3.623h3.658v-3.171c0-0 0-0 0-0.001 0-0.282-0.229-0.511-0.512-0.511-0 0-0 0-0 0h0l-3.146 0.061zM13.198 14.627h3.61v-3.742h-3.694l0.084 3.742z"></path>
<path fill="#32bedd" d="M15.911 19.64c0 1.959-1.589 3.546-3.548 3.546s-3.548-1.588-3.548-3.546c0-1.959 1.589-3.546 3.548-3.546s3.548 1.588 3.548 3.546z"></path>
<path fill="#b4ec36" d="M22.347 20.307c-0.17 0.089-0.413 0.041-0.527 0.129-0.218 0.124-0.395 0.309-0.512 0.535 0 0.048 0 0.122-0.056 0.147-0.228 0.152-0.454 0.314-0.243 0.657-0.243 0-0.162-0.221-0.276-0.284-0.36-0.157-0.776 0.053-0.859 0.439-0.028 0.117 0.025 0.238 0.129 0.299 0.106 0.058 0.241 0.013 0.292-0.096 0.043-0.076 0.139-0.099 0.21-0.051 0 0.132-0.226 0.365 0.147 0.375 0.099 0 0.074 0.112 0.048 0.185s0.048 0.195 0.155 0.243c0.104 0.048 0 0 0 0.041-0.302 0-0.365-0.365-0.659-0.406-0.117-0.030-0.233-0.068-0.347-0.114-0.221-0.071-0.472-0.112-0.52-0.436-0.038-0.167-0.145-0.312-0.294-0.398-0.096-0.066-0.152-0.188-0.251-0.261-0.038-0.109-0.099-0.208-0.177-0.292-0.152-0.2-0.195-0.466-0.114-0.705 0.145-0.449 0.134-0.887-0.061-1.316-0.084-0.259-0.117-0.575-0.408-0.745-0.294-0.17-0.243 0.096-0.357 0.041-0.114-0.058-0.18 0.104-0.213 0.122-0.233 0.063-0.439 0.266-0.738 0.236 0.114-0.058 0.203-0.091 0.284-0.139s0.236-0.114 0.056-0.307c-0.177-0.195-0.114-0.479 0.365-0.674-0.041-0.114-0.332-0.089-0.203-0.299 0.132-0.213 0.228-0.106 0.35 0 0.081-0.155-0.099-0.35 0.041-0.439 0.183-0.104 0.38-0.185 0.586-0.236 0.101-0.053 0.226-0.013 0.276 0.089 0.145 0.228 0.436 0.269 0.583 0.494 0.041 0.074 0.122 0 0.18 0 0.332-0.112 0.55 0.099 0.811 0.269 0.259 0.17 0.218 0.276 0.428 0.251 0.056-0.013 0.117-0.013 0.172 0 0.129 0.058 0.251 0.089 0.347-0.048 0.104-0.010 0.188-0.086 0.213-0.188 0.048-0.071 0.074-0.177 0.195-0.129-0.061 0.231-0.028 0.474 0.089 0.682 0.104-0.081 0.21-0.129 0.089-0.317-0.112-0.18-0.010-0.416 0.203-0.454 0.193-0.063 0.406 0.013 0.512 0.188 0.155 0.274 0.203 0.591 0.38 0.811 0.058 0.071 0 0.104 0 0.162 0 0.056-0.145 0-0.226-0.051l0.056 0.35c-0.241 0.106-0.522 0.020-0.664-0.203 0-0.096 0-0.137 0.096-0.188 0.099-0.048 0.155-0.089 0.155-0.193 0.010-0.066-0.023-0.132-0.081-0.162-0.063 0-0.104 0-0.122 0.071-0.015 0.074-0.269 0.203-0.228 0.431 0.043 0.228-0.152 0.177-0.266 0.114-0.269-0.139-0.365 0.104-0.479 0.236-0.114 0.129 0 0.274 0.129 0.373 0.129 0.096 0.251 0.17 0.302 0.325 0.134-0.122 0.218-0.289 0.233-0.472 0-0.145 0.058-0.347 0.261-0.373 0.157-0.013 0.302 0.081 0.357 0.228 0.041 0.089 0.104 0.096 0.185 0.104 0.185 0.398 0.332 0.811 0.439 1.235l-0.299-0.041c0-0.236-0.203-0.129-0.317-0.18-0.033 0.147 0.155 0.188 0.147 0.335h-0.003z"></path>
</svg>
