<!-- Generated by IcoMoon.io -->
<svg version="1.1" xmlns="http://www.w3.org/2000/svg" width="34" height="32" viewBox="0 0 34 32">
<title>Event-Grid-Domain</title>
<path fill="#949494" d="M21.212 15.329h-6.133l1.729-1.758h2.896v-0.678h-3.172l-2.404 2.436h-2.6v0.68h0.465l2.412 2.455h3.597v-0.677h-3.318l-1.748-1.777h8.275v-0.68z"></path>
<path fill="#000" d="M18.638 12.069c0 0 0 0 0 0 0.639 0 1.157 0.523 1.157 1.169s-0.518 1.169-1.157 1.169c-0.639 0-1.157-0.523-1.157-1.169 0-0.004 0-0.007 0-0.011v0.001c0.001-0.64 0.514-1.159 1.148-1.159 0.003 0 0.006 0 0.009 0h-0zM19.686 15.693c0 0.002-0 0.005-0 0.007 0 0.646 0.518 1.169 1.157 1.169s1.157-0.523 1.157-1.169c0-0.646-0.518-1.169-1.157-1.169-0 0-0 0-0.001 0h0c-0.63 0-1.142 0.509-1.156 1.141l-0 0.001v0.019zM17.248 18.11c-0 0.003-0 0.007-0 0.010 0 0.646 0.518 1.169 1.157 1.169s1.157-0.523 1.157-1.169c0-0.646-0.518-1.169-1.157-1.169-0 0-0 0-0.001 0h0c-0.003-0-0.005-0-0.008-0-0.634 0-1.147 0.519-1.148 1.159v0z"></path>
<path fill="#999" d="M9.653 19.36h1.156v3.237c0 0.145-0.116 0.263-0.26 0.263v0l-1.146-0.002c-0.144 0-0.26-0.118-0.26-0.263v0l-0.001-2.716c0-0.001 0-0.002 0-0.002 0-0.285 0.229-0.516 0.511-0.516v0z"></path>
<path fill="#999" opacity="0.5" d="M9.653 19.36h1.156v3.237c0 0.145-0.116 0.263-0.26 0.263v0l-1.146-0.002c-0.144 0-0.26-0.118-0.26-0.263v0l-0.001-2.716c0-0.001 0-0.002 0-0.002 0-0.285 0.229-0.516 0.511-0.516v0z"></path>
<path fill="#999" d="M22.717 9.14h1.156c0.282 0 0.511 0.231 0.511 0.516 0 0.001 0 0.002 0 0.003v-0 2.718c0 0.145-0.116 0.263-0.26 0.263v0l-1.157-0.002c-0.14-0.005-0.251-0.121-0.251-0.263 0-0 0-0 0-0v0l0.001-3.235z"></path>
<path fill="#999" opacity="0.5" d="M22.717 9.14h1.156c0.282 0 0.511 0.231 0.511 0.516 0 0.001 0 0.002 0 0.003v-0 2.718c0 0.145-0.116 0.263-0.26 0.263v0l-1.157-0.002c-0.14-0.005-0.251-0.121-0.251-0.263 0-0 0-0 0-0v0l0.001-3.235z"></path>
<path fill="#949494" d="M24.384 9.657v1.132h-15.241v-1.132c0-0.285 0.229-0.516 0.511-0.516h14.23c0.277 0.006 0.5 0.235 0.5 0.516v0z"></path>
<path fill="#999" d="M9.403 19.333h1.156c0.144 0 0.26 0.118 0.26 0.263v0l0.001 3.262h-1.167c-0.282-0-0.511-0.231-0.511-0.516v0-2.718c-0.001-0.008-0.001-0.018-0.001-0.027 0-0.145 0.116-0.263 0.26-0.263 0.001 0 0.001 0 0.001 0h-0z"></path>
<path fill="#999" opacity="0.5" d="M9.403 19.333h1.156c0.144 0 0.26 0.118 0.26 0.263v0l0.001 3.262h-1.167c-0.282-0-0.511-0.231-0.511-0.516v0-2.718c-0.001-0.008-0.001-0.018-0.001-0.027 0-0.145 0.116-0.263 0.26-0.263 0.001 0 0.001 0 0.001 0h-0z"></path>
<path fill="#999" d="M22.967 19.333h1.159c0.144 0 0.26 0.118 0.26 0.263v0l-0.002 2.719c-0 0.285-0.229 0.516-0.511 0.516h-1.156v-3.207c-0.001-0.008-0.001-0.018-0.001-0.027 0-0.142 0.112-0.258 0.252-0.263h0z"></path>
<path fill="#999" opacity="0.5" d="M22.967 19.333h1.159c0.144 0 0.26 0.118 0.26 0.263v0l-0.002 2.719c-0 0.285-0.229 0.516-0.511 0.516h-1.156v-3.207c-0.001-0.008-0.001-0.018-0.001-0.027 0-0.142 0.112-0.258 0.252-0.263h0z"></path>
<path fill="#949494" d="M9.142 22.342v-1.132h15.241v1.132c-0 0.285-0.229 0.516-0.511 0.516h-14.22c-0.282-0-0.511-0.231-0.511-0.516v0z"></path>
</svg>
