<!-- Generated by IcoMoon.io -->
<svg version="1.1" xmlns="http://www.w3.org/2000/svg" width="35" height="32" viewBox="0 0 35 32">
<title>Event-Hub-Cluster</title>
<path fill="#b3b3b3" d="M17.765 15.294h0.61v1.668c0 0.071-0.059 0.129-0.132 0.129v0l-0.647 0.001c-0.073 0-0.132-0.058-0.132-0.129v0l-0.001-1.401c0-0 0-0.001 0-0.001 0-0.148 0.122-0.267 0.273-0.267 0.010 0 0.020 0.001 0.029 0.002l-0.001-0z"></path>
<path fill="#b3b3b3" opacity="0.5" d="M17.765 15.294h0.61v1.668c0 0.071-0.059 0.129-0.132 0.129v0l-0.647 0.001c-0.073 0-0.132-0.058-0.132-0.129v0l-0.001-1.401c0-0 0-0.001 0-0.001 0-0.148 0.122-0.267 0.273-0.267 0.010 0 0.020 0.001 0.029 0.002l-0.001-0z"></path>
<path fill="#b3b3b3" d="M17.463 15.285h0.613c0.151 0 0.273 0.12 0.273 0.267v0l-0.002 1.41c0 0.071-0.059 0.129-0.132 0.129v0l-0.619 0.001c-0.073 0-0.132-0.058-0.132-0.129v0l-0.001-1.678z"></path>
<path fill="#b3b3b3" opacity="0.5" d="M17.463 15.285h0.613c0.151 0 0.273 0.12 0.273 0.267v0l-0.002 1.41c0 0.071-0.059 0.129-0.132 0.129v0l-0.619 0.001c-0.073 0-0.132-0.058-0.132-0.129v0l-0.001-1.678z"></path>
<path fill="#b3b3b3" d="M25.591 15.524v0.582h-8.090v-0.582c0-0.148 0.122-0.267 0.273-0.267l7.527 0.002c0.006-0 0.012-0.001 0.019-0.001 0.151 0 0.273 0.12 0.273 0.267 0 0 0 0 0 0.001v-0z"></path>
<path fill="#b3b3b3" d="M9.702 20.603h0.61c0.073 0 0.132 0.058 0.132 0.129v0l0.001 1.669h-0.573c-0.151 0-0.273-0.12-0.273-0.267v0l-0.001-1.429c0.011-0.051 0.051-0.091 0.103-0.101l0.001-0z"></path>
<path fill="#b3b3b3" opacity="0.5" d="M9.702 20.603h0.61c0.073 0 0.132 0.058 0.132 0.129v0l0.001 1.669h-0.573c-0.151 0-0.273-0.12-0.273-0.267v0l-0.001-1.429c0.011-0.051 0.051-0.091 0.103-0.101l0.001-0z"></path>
<path fill="#b3b3b3" d="M9.739 20.594h0.613c0.073 0 0.132 0.058 0.132 0.129v0l-0.002 1.409c0 0.148-0.122 0.267-0.273 0.267v0l-0.611 0.001v-1.705c0.013-0.059 0.066-0.102 0.129-0.102 0.004 0 0.009 0 0.013 0.001l-0.001-0z"></path>
<path fill="#b3b3b3" opacity="0.5" d="M9.739 20.594h0.613c0.073 0 0.132 0.058 0.132 0.129v0l-0.002 1.409c0 0.148-0.122 0.267-0.273 0.267v0l-0.611 0.001v-1.705c0.013-0.059 0.066-0.102 0.129-0.102 0.004 0 0.009 0 0.013 0.001l-0.001-0z"></path>
<path fill="#b3b3b3" d="M9.598 22.133v-0.579h8.102v0.579c0 0.148-0.122 0.267-0.273 0.267v0l-7.527 0.001c-0.008 0.001-0.018 0.001-0.028 0.001-0.151 0-0.273-0.12-0.273-0.267 0-0 0-0.001 0-0.002v0z"></path>
<path fill="#76bc2d" d="M22.385 18.51c0 0 0 0.001 0 0.001 0 0.060-0.045 0.109-0.103 0.118l-0.001 0-0.924 0.002c-0.003 0-0.006 0-0.009 0-0.062 0-0.113-0.050-0.113-0.111 0-0 0-0 0-0v0l0.001-0.691c0.003-0.059 0.046-0.107 0.103-0.12l0.001-0 0.941-0.002c0.003-0 0.006-0 0.009-0 0.062 0 0.113 0.050 0.113 0.111 0 0 0 0 0 0v-0l-0.018 0.691z"></path>
<path fill="#5e9624" d="M24.067 19.211c0 0 0 0.001 0 0.001 0 0.060-0.045 0.109-0.103 0.118l-0.001 0-0.941 0.002c-0.003 0-0.006 0-0.009 0-0.062 0-0.113-0.050-0.113-0.111 0-0 0-0 0-0v0l0.001-0.683c-0-0.003-0-0.006-0-0.009 0-0.056 0.046-0.101 0.104-0.101 0 0 0 0 0 0l0.941 0.001c0.006-0.001 0.012-0.002 0.019-0.002 0.057 0 0.104 0.045 0.104 0.101 0 0.001 0 0.001-0 0.002v-0l-0.001 0.681zM22.385 19.911c0 0.003 0 0.006 0 0.010 0 0.058-0.046 0.106-0.104 0.11l-0 0-0.924 0.002c-0.003 0-0.006 0-0.010 0-0.059 0-0.108-0.045-0.113-0.101l-0-0 0.001-0.692c-0-0.003-0-0.006-0-0.010 0-0.061 0.051-0.111 0.113-0.111 0.003 0 0.007 0 0.010 0l-0-0 0.942 0.001c0.006-0.001 0.012-0.002 0.019-0.002 0.057 0 0.104 0.045 0.104 0.101 0 0.001 0 0.001-0 0.002v-0l-0.001 0.689h-0.037z"></path>
<path fill="#86d633" d="M20.699 17.828c0 0.003 0 0.006 0 0.009 0 0.056-0.046 0.101-0.104 0.101-0 0-0 0-0 0h0l-0.941 0.002c-0.019 0.029-0.052 0.048-0.089 0.048-0.058 0-0.106-0.046-0.106-0.104 0-0.020 0.006-0.040 0.017-0.056l-0 0 0.001-0.711c-0-0.003-0-0.006-0-0.009 0-0.056 0.046-0.101 0.104-0.101 0 0 0 0 0 0l0.941 0.001c0.093 0 0.141 0.045 0.141 0.11l0.037 0.709z"></path>
<path fill="#76bc2d" d="M20.7 19.21c0 0.003 0 0.006 0 0.010 0 0.058-0.046 0.106-0.104 0.11l-0 0-0.941 0.002c-0.062 0-0.113-0.050-0.113-0.111v0-0.7c-0-0.003-0-0.006-0-0.010 0-0.058 0.046-0.106 0.104-0.11l0-0 0.941-0.002c0.093 0 0.141 0.045 0.141 0.121l-0.028 0.689z"></path>
<path fill="#5e9624" d="M20.699 20.596c0.001 0.006 0.002 0.012 0.002 0.018 0 0.056-0.046 0.101-0.104 0.101-0.001 0-0.001 0-0.002 0h0l-0.941-0.001c-0.019 0.015-0.044 0.025-0.071 0.025-0.062 0-0.113-0.050-0.113-0.111 0-0.012 0.002-0.024 0.006-0.035l-0 0.001 0.001-0.719c-0-0.003-0-0.006-0-0.010 0-0.058 0.046-0.106 0.104-0.11l0-0 0.941-0.002c0.006-0.001 0.012-0.001 0.019-0.001 0.068 0 0.122 0.054 0.122 0.12 0 0 0 0.001 0 0.002v-0l0.037 0.721z"></path>
<path fill="#949494" d="M21.649 15.646c0-0 0-0.001 0-0.002 0-0.143-0.118-0.258-0.263-0.258-0.010 0-0.020 0.001-0.029 0.002l0.001-0-7.525-0.002c-0.003-0-0.006-0-0.009-0-0.146 0-0.263 0.116-0.263 0.258 0 0 0 0 0 0v0l-0.001 1.41c0.005 0.072 0.066 0.129 0.141 0.129 0 0 0 0 0 0h-0l0.601 0.001c0.073 0 0.132-0.058 0.132-0.129v0l0.001-0.831h6.323v0.83c0.005 0.072 0.066 0.129 0.141 0.129 0 0 0 0 0 0h-0l0.61 0.001c0 0 0 0 0 0 0.075 0 0.136-0.057 0.141-0.129l0-0 0-1.409zM14.433 20.733c0-0.071-0.059-0.129-0.132-0.129v0l-0.611-0.001c-0 0-0 0-0 0-0.075 0-0.136 0.057-0.141 0.129l-0 0-0 1.412c-0.001 0.009-0.002 0.020-0.002 0.030 0 0.115 0.086 0.21 0.198 0.228l0.001 0 3.275-0.001v-0.838h-2.589v-0.83zM17.699 12.473c0-0.148-0.122-0.267-0.273-0.267v0l-7.527 0.002c-0.151 0-0.273 0.12-0.273 0.267v0l-0.001 1.409c0.011 0.051 0.051 0.091 0.103 0.101l0.001 0 0.622 0c0.073 0 0.132-0.058 0.132-0.129v0l-0.002-0.794h6.323v0.838c0.022 0.050 0.072 0.083 0.13 0.083 0.004 0 0.008-0 0.012-0.001l-0.001 0 0.649 0.002c0 0 0 0 0 0 0.075 0 0.136-0.057 0.141-0.129l0-0 0-1.384h-0.037zM10.481 17.563c0-0 0-0 0-0 0-0.073-0.058-0.133-0.131-0.138l-0-0-0.619-0c-0.074 0.005-0.132 0.065-0.132 0.138 0 0 0 0 0 0v-0l-0.001 1.4c0 0.138 0.093 0.257 0.198 0.257h3.275v-0.827h-2.589v-0.83z"></path>
<path fill="#76bc2d" d="M16.485 15.359c0 0.003 0 0.006 0 0.009 0 0.056-0.046 0.101-0.104 0.101-0 0-0 0-0 0l-0.941-0.001c-0.006 0.001-0.012 0.002-0.019 0.002-0.057 0-0.104-0.045-0.104-0.101 0-0.001 0-0.001 0-0.002v0l-0.002-0.709c-0.001-0.006-0.002-0.012-0.002-0.018 0-0.056 0.046-0.101 0.104-0.101 0.001 0 0.001 0 0.002 0h-0l0.941-0.002c0.096 0 0.141 0.048 0.141 0.121l-0.017 0.7zM16.485 16.059c0-0.073-0.048-0.073-0.141-0.073h-0.943c-0.058 0.005-0.104 0.052-0.104 0.11 0 0.003 0 0.007 0 0.010l-0-0 0.002 0.719c0.005 0.057 0.053 0.102 0.113 0.102 0.003 0 0.007-0 0.010-0l-0 0 0.939 0c0.058-0.005 0.104-0.052 0.104-0.11 0-0.003-0-0.007-0-0.010l0 0 0.021-0.747zM16.485 17.459c0-0.065-0.048-0.11-0.141-0.11h-0.943c-0 0-0 0-0 0-0.057 0-0.104 0.045-0.104 0.101 0 0.003 0 0.006 0 0.010l-0-0 0.002 0.719c0 0 0 0.001 0 0.002 0 0.056 0.046 0.101 0.104 0.101 0.007 0 0.013-0.001 0.019-0.002l-0.001 0 0.939 0c0 0 0.001 0 0.002 0 0.057 0 0.104-0.045 0.104-0.101 0-0.007-0.001-0.013-0.002-0.019l0 0.001 0.021-0.702zM12.533 11.478c-0.009-0.059-0.060-0.103-0.121-0.103-0.007 0-0.014 0.001-0.021 0.002l0.001-0-0.94-0c-0.058 0.005-0.104 0.052-0.104 0.11 0 0.003 0 0.007 0 0.010l-0-0-0.001 0.719c0.012 0.046 0.054 0.080 0.103 0.083h0l0.941 0.002c0.001 0 0.001 0 0.002 0 0.057 0 0.104-0.045 0.104-0.101 0-0.007-0.001-0.013-0.002-0.019l0 0.001 0.038-0.702zM12.533 12.881c0-0.065-0.048-0.113-0.141-0.113h-0.94c-0 0-0 0-0 0-0.057 0-0.104 0.045-0.104 0.101 0 0.003 0 0.006 0 0.010l-0-0-0.001 0.711c0 0 0 0 0 0 0 0.056 0.046 0.101 0.104 0.101 0.003 0 0.007-0 0.010-0l-0 0 0.94 0c0 0 0 0 0 0 0.057 0 0.104-0.045 0.104-0.101 0-0.003-0-0.006-0-0.010l0 0 0.029-0.7zM12.533 14.289c0-0.073-0.048-0.119-0.141-0.119h-0.94c-0.058 0.005-0.104 0.052-0.104 0.11 0 0.003 0 0.007 0 0.010l-0-0-0.001 0.699c0 0.061 0.051 0.111 0.113 0.111l0.94-0.001c0.058-0.005 0.104-0.052 0.104-0.11 0-0.003-0-0.007-0-0.010l0 0 0.029-0.69z"></path>
</svg>
