<!-- Generated by IcoMoon.io -->
<svg version="1.1" xmlns="http://www.w3.org/2000/svg" width="34" height="32" viewBox="0 0 34 32">
<title>Event-Grid-Topic</title>
<path fill="#a3a3a3" d="M9.661 19.363h1.153v3.234c0 0.145-0.116 0.262-0.259 0.262v0l-1.155-0.001c-0.143 0-0.259-0.117-0.259-0.262v0l0.001-2.709c-0-0.003-0-0.006-0-0.009 0-0.284 0.228-0.515 0.51-0.515 0.003 0 0.006 0 0.010 0h-0z"></path>
<path fill="#a3a3a3" opacity="0.5" d="M9.661 19.363h1.153v3.234c0 0.145-0.116 0.262-0.259 0.262v0l-1.155-0.001c-0.143 0-0.259-0.117-0.259-0.262v0l0.001-2.709c-0-0.003-0-0.006-0-0.009 0-0.284 0.228-0.515 0.51-0.515 0.003 0 0.006 0 0.010 0h-0z"></path>
<path fill="#a3a3a3" d="M22.711 9.151h1.153c0 0 0.001 0 0.001 0 0.281 0 0.509 0.23 0.51 0.513v2.721c0 0.145-0.116 0.262-0.259 0.262v0l-1.147-0.001c-0.143 0-0.259-0.117-0.259-0.262v0l0.001-3.233z"></path>
<path fill="#a3a3a3" opacity="0.5" d="M22.711 9.151h1.153c0 0 0.001 0 0.001 0 0.281 0 0.509 0.23 0.51 0.513v2.721c0 0.145-0.116 0.262-0.259 0.262v0l-1.147-0.001c-0.143 0-0.259-0.117-0.259-0.262v0l0.001-3.233z"></path>
<path fill="#949494" d="M24.375 9.655v1.129h-15.206v-1.129c0.001-0.284 0.229-0.514 0.51-0.514 0 0 0.001 0 0.001 0h14.185c0 0 0.001 0 0.001 0 0.281 0 0.509 0.23 0.51 0.513v0z"></path>
<path fill="#a3a3a3" d="M9.4 19.336h1.156c0.143 0 0.259 0.117 0.259 0.262v0l-0.001 3.26h-1.153c-0.003 0-0.006 0-0.009 0-0.282 0-0.51-0.231-0.51-0.515 0-0.006 0-0.012 0-0.018l-0 0.001v-2.71c-0-0.005-0.001-0.012-0.001-0.018 0-0.145 0.116-0.262 0.259-0.262 0 0 0 0 0.001 0h-0z"></path>
<path fill="#a3a3a3" opacity="0.5" d="M9.4 19.336h1.156c0.143 0 0.259 0.117 0.259 0.262v0l-0.001 3.26h-1.153c-0.003 0-0.006 0-0.009 0-0.282 0-0.51-0.231-0.51-0.515 0-0.006 0-0.012 0-0.018l-0 0.001v-2.71c-0-0.005-0.001-0.012-0.001-0.018 0-0.145 0.116-0.262 0.259-0.262 0 0 0 0 0.001 0h-0z"></path>
<path fill="#a3a3a3" d="M22.969 19.335h1.156c0.143 0 0.259 0.117 0.259 0.262v0l-0.001 2.711c-0.001 0.283-0.228 0.513-0.508 0.514h-1.164v-3.207c-0-0.005-0.001-0.012-0.001-0.018 0-0.145 0.116-0.262 0.259-0.262 0 0 0 0 0.001 0h-0z"></path>
<path fill="#a3a3a3" opacity="0.5" d="M22.969 19.335h1.156c0.143 0 0.259 0.117 0.259 0.262v0l-0.001 2.711c-0.001 0.283-0.228 0.513-0.508 0.514h-1.164v-3.207c-0-0.005-0.001-0.012-0.001-0.018 0-0.145 0.116-0.262 0.259-0.262 0 0 0 0 0.001 0h-0z"></path>
<path fill="#949494" d="M9.142 22.344v-1.129h15.206v1.129c-0.001 0.284-0.229 0.514-0.51 0.514-0 0-0.001 0-0.001 0h-14.185c-0 0-0.001 0-0.001 0-0.281 0-0.509-0.23-0.51-0.513v-0z"></path>
<path fill="#5ea0ef" d="M22.048 15.856l-1.627-1.664c-0.015-0.019-0.038-0.032-0.064-0.032-0.044 0-0.081 0.036-0.081 0.081 0 0.005 0 0.009 0.001 0.014l-0-0.001 0.001 1.023c0 0.003 0.001 0.006 0.001 0.010 0 0.045-0.036 0.081-0.081 0.081-0.003 0-0.007-0-0.010-0.001l0 0-4.688-0.002c-0.173-0.225-0.441-0.368-0.742-0.368h-0c-0.029-0.003-0.062-0.005-0.095-0.005-0.543 0-0.984 0.445-0.984 0.994s0.441 0.994 0.984 0.994c0.034 0 0.067-0.002 0.099-0.005l-0.004 0c0.305-0.005 0.575-0.151 0.748-0.377l0.002-0.002h4.678c0.003-0 0.006-0 0.009-0 0.044 0 0.081 0.036 0.081 0.081 0 0 0 0 0 0.001v-0l0.002 1.002c-0 0.001-0 0.002-0 0.003 0 0.045 0.036 0.081 0.081 0.081 0.025 0 0.048-0.012 0.063-0.030l0-0 1.626-1.635c0.029-0.032 0.047-0.075 0.047-0.122s-0.018-0.090-0.047-0.122l0 0z"></path>
<path fill="#000" d="M19.044 12.919l-1.629-1.635c-0.015-0.019-0.038-0.032-0.064-0.032-0.044 0-0.081 0.036-0.081 0.081 0 0.005 0 0.009 0.001 0.014l-0-0.001 0.001 1.039c0 0.003 0 0.006 0 0.009 0 0.045-0.036 0.081-0.081 0.081-0 0-0 0-0.001 0l-2.933-0.002c-0.177-0.226-0.448-0.371-0.753-0.371h-0c-0.006-0-0.012-0-0.019-0-0.543 0-0.984 0.445-0.984 0.994s0.441 0.994 0.984 0.994c0.317 0 0.598-0.151 0.778-0.386l0.002-0.002h2.925c0.044 0 0.081 0.036 0.081 0.081v0l0 0.959c-0 0.001-0 0.002-0 0.003 0 0.045 0.036 0.081 0.081 0.081 0.025 0 0.048-0.012 0.063-0.030l0-0 1.629-1.635c0.029-0.032 0.047-0.075 0.047-0.122s-0.018-0.090-0.047-0.122l0 0z"></path>
<path fill="#000" d="M19.044 18.847l-1.629-1.637c-0.015-0.019-0.038-0.032-0.064-0.032-0.044 0-0.081 0.036-0.081 0.081 0 0.005 0 0.009 0.001 0.014l-0-0 0.001 0.996c0 0 0 0 0 0 0 0.047-0.035 0.085-0.080 0.090l-0 0-2.933-0.002c-0.177-0.225-0.448-0.368-0.752-0.368-0 0-0.001 0-0.001 0h0c-0.543 0.001-0.982 0.446-0.982 0.994s0.441 0.994 0.984 0.994c0.305 0 0.577-0.14 0.758-0.36l0.001-0.002h2.925c0.044 0 0.081 0.036 0.081 0.081v0l0 1.002c-0 0.001-0 0.002-0 0.003 0 0.045 0.036 0.081 0.081 0.081 0.025 0 0.048-0.012 0.063-0.030l0-0 1.629-1.635c0.037-0.033 0.061-0.082 0.061-0.136s-0.023-0.102-0.060-0.135l-0-0z"></path>
</svg>
