<!-- Generated by IcoMoon.io -->
<svg version="1.1" xmlns="http://www.w3.org/2000/svg" width="34" height="32" viewBox="0 0 34 32">
<title>Event-Grid-Subscription</title>
<path fill="#32bedd" d="M20.080 15.229v-0.543h-4.052l-1.901 1.912h-1.398l3.245-3.315h2.213v-0.519h-2.438l-3.783 3.834h-0.538v0.543h1.624l1.917 1.912h4.573v-0.543h-4.374l-1.355-1.368h3.291v-0.543h-2.205l1.344-1.368h3.837z"></path>
<path fill="#fff" d="M18.422 16.87c0 0.435-0.349 0.788-0.78 0.788s-0.78-0.353-0.78-0.788c0-0.435 0.349-0.788 0.78-0.788s0.78 0.353 0.78 0.788z"></path>
<path fill="#fff" d="M19.238 13.046c0 0.435-0.349 0.788-0.78 0.788s-0.78-0.353-0.78-0.788c0-0.435 0.349-0.788 0.78-0.788s0.78 0.353 0.78 0.788z"></path>
<path fill="#fff" d="M21.13 14.958c0 0.435-0.349 0.788-0.78 0.788s-0.78-0.353-0.78-0.788c0-0.435 0.349-0.788 0.78-0.788s0.78 0.353 0.78 0.788z"></path>
<path fill="#fff" d="M20.323 18.782c0 0.435-0.349 0.788-0.78 0.788s-0.78-0.353-0.78-0.788c0-0.435 0.349-0.788 0.78-0.788s0.78 0.353 0.78 0.788z"></path>
<path fill="#50e6ff" d="M19.373 13.046c0 0.525-0.422 0.951-0.941 0.951s-0.941-0.426-0.941-0.951c0-0.525 0.422-0.951 0.941-0.951s0.941 0.426 0.941 0.951z"></path>
<path fill="#000" d="M21.264 14.958c0 0.525-0.422 0.951-0.941 0.951s-0.941-0.426-0.941-0.951c0-0.525 0.422-0.951 0.941-0.951s0.941 0.426 0.941 0.951z"></path>
<path fill="#000" d="M20.484 18.782c0 0.525-0.422 0.951-0.941 0.951s-0.941-0.426-0.941-0.951c0-0.525 0.422-0.951 0.941-0.951s0.941 0.426 0.941 0.951z"></path>
<path fill="#50e6ff" d="M18.584 16.87c0 0.525-0.422 0.951-0.941 0.951s-0.941-0.426-0.941-0.951c0-0.525 0.422-0.951 0.941-0.951s0.941 0.426 0.941 0.951z"></path>
<path fill="#999" d="M9.653 19.36h1.156v3.237c0 0.145-0.116 0.263-0.26 0.263v0l-1.146-0.002c-0.144 0-0.26-0.118-0.26-0.263v0l-0.001-2.716c0-0.001 0-0.002 0-0.002 0-0.285 0.229-0.516 0.511-0.516v0z"></path>
<path fill="#999" opacity="0.5" d="M9.653 19.36h1.156v3.237c0 0.145-0.116 0.263-0.26 0.263v0l-1.146-0.002c-0.144 0-0.26-0.118-0.26-0.263v0l-0.001-2.716c0-0.001 0-0.002 0-0.002 0-0.285 0.229-0.516 0.511-0.516v0z"></path>
<path fill="#999" d="M22.717 9.14h1.156c0.282 0 0.511 0.231 0.511 0.516 0 0.001 0 0.002 0 0.003v-0 2.718c0 0.145-0.116 0.263-0.26 0.263v0l-1.157-0.002c-0.14-0.005-0.251-0.121-0.251-0.263 0-0 0-0 0-0v0l0.001-3.235z"></path>
<path fill="#999" opacity="0.5" d="M22.717 9.14h1.156c0.282 0 0.511 0.231 0.511 0.516 0 0.001 0 0.002 0 0.003v-0 2.718c0 0.145-0.116 0.263-0.26 0.263v0l-1.157-0.002c-0.14-0.005-0.251-0.121-0.251-0.263 0-0 0-0 0-0v0l0.001-3.235z"></path>
<path fill="#949494" d="M24.384 9.657v1.132h-15.241v-1.132c0-0.285 0.229-0.516 0.511-0.516h14.23c0.277 0.006 0.5 0.235 0.5 0.516v0z"></path>
<path fill="#999" d="M9.403 19.333h1.156c0.144 0 0.26 0.118 0.26 0.263v0l0.001 3.262h-1.167c-0.282-0-0.511-0.231-0.511-0.516v0-2.718c-0.001-0.008-0.001-0.018-0.001-0.027 0-0.145 0.116-0.263 0.26-0.263 0.001 0 0.001 0 0.001 0h-0z"></path>
<path fill="#999" opacity="0.5" d="M9.403 19.333h1.156c0.144 0 0.26 0.118 0.26 0.263v0l0.001 3.262h-1.167c-0.282-0-0.511-0.231-0.511-0.516v0-2.718c-0.001-0.008-0.001-0.018-0.001-0.027 0-0.145 0.116-0.263 0.26-0.263 0.001 0 0.001 0 0.001 0h-0z"></path>
<path fill="#999" d="M22.967 19.333h1.159c0.144 0 0.26 0.118 0.26 0.263v0l-0.002 2.719c-0 0.285-0.229 0.516-0.511 0.516h-1.156v-3.207c-0.001-0.008-0.001-0.018-0.001-0.027 0-0.142 0.112-0.258 0.252-0.263h0z"></path>
<path fill="#999" opacity="0.5" d="M22.967 19.333h1.159c0.144 0 0.26 0.118 0.26 0.263v0l-0.002 2.719c-0 0.285-0.229 0.516-0.511 0.516h-1.156v-3.207c-0.001-0.008-0.001-0.018-0.001-0.027 0-0.142 0.112-0.258 0.252-0.263h0z"></path>
<path fill="#949494" d="M9.142 22.342v-1.132h15.241v1.132c-0 0.285-0.229 0.516-0.511 0.516h-14.22c-0.282-0-0.511-0.231-0.511-0.516v0z"></path>
</svg>
