<!-- Generated by IcoMoon.io -->
<svg version="1.1" xmlns="http://www.w3.org/2000/svg" width="34" height="32" viewBox="0 0 34 32">
<title>Event-Hub</title>
<path fill="#76bc2d" d="M18.403 15.403c0 0.003 0 0.006 0 0.010 0 0.124-0.095 0.225-0.215 0.235l-0.001 0-1.874 0c-0.003 0-0.006 0-0.010 0-0.122 0-0.223-0.095-0.232-0.217l-0-0.001 0-1.414c-0-0.003-0-0.006-0-0.010 0-0.124 0.095-0.225 0.215-0.235l0.001-0 1.874-0c0.003-0 0.006-0 0.010-0 0.122 0 0.223 0.095 0.232 0.217l0 0.001-0 1.414zM21.729 16.833c0 0.003 0 0.006 0 0.010 0 0.124-0.095 0.225-0.215 0.235l-0.001 0-1.874 0c-0.003 0-0.006 0-0.010 0-0.122 0-0.223-0.096-0.232-0.217l-0-0.001 0-1.404c-0-0.003-0-0.006-0-0.010 0-0.124 0.095-0.225 0.215-0.235l0.001-0 1.874-0c0.003-0 0.006-0 0.010-0 0.122 0 0.223 0.095 0.232 0.217l0 0.001-0 1.404zM18.403 18.282c0 0.003 0 0.006 0 0.010 0 0.124-0.095 0.225-0.215 0.235l-0.001 0-1.874 0c-0.003 0-0.006 0-0.010 0-0.122 0-0.223-0.096-0.232-0.217l-0-0.001 0-1.412c-0-0.003-0-0.006-0-0.010 0-0.124 0.095-0.225 0.215-0.235l0.001-0 1.874-0c0.003-0 0.006-0 0.010-0 0.122 0 0.223 0.096 0.232 0.217l0 0.001-0 1.412z"></path>
<path fill="#86d633" d="M15.078 13.971c0 0.003 0 0.006 0 0.010 0 0.119-0.091 0.216-0.206 0.226l-0.001 0-1.928-0.002c-0.003 0-0.007 0-0.011 0-0.119 0-0.218-0.091-0.231-0.208l-0-0.001 0-1.467c0.004-0.12 0.097-0.217 0.214-0.226l0.001-0 1.874 0.001c0.196 0 0.288 0.099 0.288 0.245v1.422z"></path>
<path fill="#76bc2d" d="M15.078 16.833c0.001 0.006 0.001 0.012 0.001 0.019 0 0.119-0.091 0.217-0.206 0.226l-0.001 0-1.928 0c-0.003 0-0.006 0-0.009 0-0.129 0-0.233-0.105-0.233-0.236 0-0.003 0-0.006 0-0.010v0l0-1.43c0-0 0-0 0-0.001 0-0.124 0.094-0.225 0.214-0.235l0.001-0 1.874-0.001c0.196 0 0.288 0.099 0.288 0.237v1.43zM15.078 19.723c0.001 0.006 0.001 0.012 0.001 0.019 0 0.119-0.091 0.217-0.206 0.226l-0.001 0-1.928 0c-0.003 0-0.006 0-0.010 0-0.123 0-0.223-0.096-0.232-0.217l-0-0.001 0-1.466c-0-0.003-0-0.006-0-0.009 0-0.122 0.095-0.221 0.215-0.226l1.874-0.001c0.196 0 0.288 0.091 0.288 0.237v1.438z"></path>
<path fill="#999" d="M9.652 19.333h1.156v3.264c0 0.145-0.116 0.263-0.26 0.263v0l-1.146-0.002c-0.144 0-0.26-0.118-0.26-0.263v0l-0.001-2.716c-0.001-0.009-0.001-0.019-0.001-0.029 0-0.285 0.229-0.516 0.511-0.516 0 0 0 0 0.001 0h-0z"></path>
<path fill="#999" opacity="0.5" d="M9.652 19.333h1.156v3.264c0 0.145-0.116 0.263-0.26 0.263v0l-1.146-0.002c-0.144 0-0.26-0.118-0.26-0.263v0l-0.001-2.716c-0.001-0.009-0.001-0.019-0.001-0.029 0-0.285 0.229-0.516 0.511-0.516 0 0 0 0 0.001 0h-0z"></path>
<path fill="#999" d="M22.715 9.14h1.159c0.282 0 0.511 0.231 0.511 0.516 0 0.001 0 0.002 0 0.003v-0 2.718c0 0.145-0.116 0.263-0.26 0.263v0l-1.157-0.002c-0.144 0-0.26-0.118-0.26-0.263v0l-0.001-3.235h0.008z"></path>
<path fill="#999" opacity="0.5" d="M22.715 9.14h1.159c0.282 0 0.511 0.231 0.511 0.516 0 0.001 0 0.002 0 0.003v-0 2.718c0 0.145-0.116 0.263-0.26 0.263v0l-1.157-0.002c-0.144 0-0.26-0.118-0.26-0.263v0l-0.001-3.235h0.008z"></path>
<path fill="#949494" d="M24.383 9.657v1.132h-15.241v-1.132c0-0.285 0.229-0.516 0.511-0.516h14.23c0.277 0.006 0.5 0.235 0.5 0.516v0z"></path>
<path fill="#999" d="M9.402 19.333h1.156c0.144 0 0.26 0.118 0.26 0.263v0l0.001 3.262h-1.167c-0.282-0-0.511-0.231-0.511-0.516v0-2.791c0.022-0.124 0.128-0.218 0.256-0.218 0.001 0 0.003 0 0.004 0h-0z"></path>
<path fill="#999" opacity="0.5" d="M9.402 19.333h1.156c0.144 0 0.26 0.118 0.26 0.263v0l0.001 3.262h-1.167c-0.282-0-0.511-0.231-0.511-0.516v0-2.791c0.022-0.124 0.128-0.218 0.256-0.218 0.001 0 0.003 0 0.004 0h-0z"></path>
<path fill="#999" d="M22.966 19.333h1.159c0.144 0 0.26 0.118 0.26 0.263v0l-0.002 2.719c-0 0.285-0.229 0.516-0.511 0.516h-1.156v-3.28c0.022-0.123 0.125-0.215 0.251-0.217h0z"></path>
<path fill="#999" opacity="0.5" d="M22.966 19.333h1.159c0.144 0 0.26 0.118 0.26 0.263v0l-0.002 2.719c-0 0.285-0.229 0.516-0.511 0.516h-1.156v-3.28c0.022-0.123 0.125-0.215 0.251-0.217h0z"></path>
<path fill="#949494" d="M9.142 22.342v-1.132h15.241v1.132c-0 0.285-0.229 0.516-0.511 0.516h-14.22c-0.282-0-0.511-0.231-0.511-0.516v0z"></path>
</svg>
