<!-- Generated by IcoMoon.io -->
<svg version="1.1" xmlns="http://www.w3.org/2000/svg" width="28" height="32" viewBox="0 0 28 32">
<title>Export-Template</title>
<path fill="#7a7a7a" d="M17.117 18.385h-5.383c0.646 2.229-0.224 2.546-4.031 2.546v1.167h12.949v-1.167c-3.807 0-4.181-0.318-3.535-2.546z"></path>
<path fill="#a0a1a2" d="M22.883 4.274h-17.532c-0.594 0-1.076 0.52-1.076 1.1v11.922c0 0.576 0.482 1.090 1.076 1.090h17.532c0.594 0 1.195-0.513 1.195-1.090v-11.922c0-0.58-0.601-1.1-1.195-1.1z"></path>
<path fill="#fff" opacity="0.2" d="M22.894 4.278l-0.010-0.003h-17.532c-0.594 0-1.076 0.52-1.076 1.1v11.922c0 0.576 0.482 1.090 1.076 1.090h0.416l17.127-14.108z"></path>
<path fill="#59b4d9" d="M22.578 5.761v11.139h-16.802v-11.139l16.802-0.024v0.024z"></path>
<path fill="#fff" d="M14.743 11.449l2.735-2.529v1.373l-3.301 3.381-3.301-3.371v-1.366l2.718 2.511v-5.25h1.149v5.25zM11.316 14.774h5.722v1.285h-5.722v-1.285z"></path>
<path fill="#a0a1a2" d="M4.276 20.932h12.948v1.167h-12.948v-1.167z"></path>
<path fill="#b8d432" d="M14.382 5.086c0 0.151-0.126 0.274-0.281 0.274s-0.281-0.123-0.281-0.274v0c0-0.151 0.126-0.274 0.281-0.274s0.281 0.123 0.281 0.274v0z"></path>
</svg>
