<!-- Generated by IcoMoon.io -->
<svg version="1.1" xmlns="http://www.w3.org/2000/svg" width="26" height="32" viewBox="0 0 26 32">
<title>Expressroute-Filter</title>
<path fill="#804998" d="M6.906 16.806l-1.064 4.455-3.693-2.345 4.758-2.11z"></path>
<path fill="#804998" d="M12.457 12.059c0 0-0.205 0.394-0.428 0.458 2.83 0 4.678 5.038 5.781 7.978l1.428-0.443c-1.125-3.19-2.489-7.993-6.781-7.993zM20.037 6.392l-1.068-4.459-3.694 2.345 4.762 2.114z"></path>
<path fill="#804998" d="M12.457 11.137c0 0-0.205-0.398-0.428-0.458 2.83 0 4.678-5.038 5.781-7.982l1.428 0.443c-1.125 3.193-2.489 7.997-6.781 7.997zM20.193 8.838l3.432 2.758-3.432 2.762v-5.519z"></path>
<path fill="#804998" d="M11.16 10.677h10.387v1.842h-10.387v-1.842z"></path>
<path fill="#7fba00" d="M4.189 21.261h6.11c0 0 0.001 0 0.002 0 1.126 0 2.039-0.978 2.040-2.186v-7.592c-0.001-1.207-0.914-2.186-2.040-2.186-0.001 0-0.001 0-0.002 0h-6.11c-0.001 0-0.001 0-0.002 0-1.126 0-2.039 0.978-2.040 2.186v7.592c0.001 1.207 0.914 2.186 2.040 2.186 0.001 0 0.001 0 0.002 0h-0z"></path>
<path fill="#fff" opacity="0.2" d="M4.189 21.261l6.11-11.963h-6.11c-0.001 0-0.001 0-0.002 0-1.126 0-2.039 0.978-2.040 2.186v7.592c0.001 1.207 0.914 2.186 2.040 2.186 0.001 0 0.001 0 0.002 0h-0z"></path>
<path fill="#fff" d="M8.156 10.216h2.576v2.762h-2.576v-2.762zM3.864 7.458h2.576v2.762h-2.576v-2.762zM3.864 12.978h2.576v2.762h-2.576v-2.762z"></path>
</svg>
