<!-- Generated by IcoMoon.io -->
<svg version="1.1" xmlns="http://www.w3.org/2000/svg" width="24" height="32" viewBox="0 0 24 32">
<title>Expressroute-Connection</title>
<path fill="#b8d432" d="M17.121 7.24l-1.319-1.319-4.283 4.322 4.283 4.318 1.319-1.238-2.921-2.96 2.921-3.122zM6.88 10.88l2.921 2.921-2.921 2.96 1.319 1.319 4.279-4.322-4.279-4.318-1.319 1.439z"></path>
<path fill="#59b4d9" d="M12.001 2.001c-5.56 0-10.001 4.558-10.001 9.998 0 5.56 4.561 10.001 10.001 10.001s9.998-4.561 9.998-10.001c0-5.44-4.438-9.998-9.998-9.998zM12.001 3.321c4.798 0 8.678 3.881 8.678 8.678 0 4.801-3.919 8.682-8.678 8.682-4.763 0-8.682-3.919-8.682-8.682 0-4.759 3.881-8.678 8.682-8.678z"></path>
</svg>
