<!-- Generated by IcoMoon.io -->
<svg version="1.1" xmlns="http://www.w3.org/2000/svg" width="34" height="32" viewBox="0 0 34 32">
<title>Expressroute-Circuit</title>
<path fill="#a67af4" d="M15.28 12.15l1.452 0.82-4.022 6.824-1.452-0.823 4.022-6.821zM16.74 13.096l1.452-0.82 4.022 6.824-1.452 0.82-4.022-6.823z"></path>
<path fill="#773adc" d="M12.647 19.915h8.044v1.642h-8.044v-1.642z"></path>
<path fill="#000" d="M18.862 11.14c0 1.104-0.914 1.999-2.041 1.999s-2.041-0.895-2.041-1.999c0-1.104 0.914-1.999 2.041-1.999s2.041 0.895 2.041 1.999z"></path>
<path fill="#000" d="M13.223 20.86c0 1.104-0.914 1.999-2.041 1.999s-2.041-0.895-2.041-1.999c0-1.104 0.914-1.999 2.041-1.999s2.041 0.895 2.041 1.999z"></path>
<path fill="#000" d="M13.223 20.86c0 1.104-0.914 1.999-2.041 1.999s-2.041-0.895-2.041-1.999c0-1.104 0.914-1.999 2.041-1.999s2.041 0.895 2.041 1.999z"></path>
</svg>
