<!-- Generated by IcoMoon.io -->
<svg version="1.1" xmlns="http://www.w3.org/2000/svg" width="31" height="32" viewBox="0 0 31 32">
<title>Extended-Security-Updates</title>
<path fill="#0078d4" d="M20.184 15.314c0 3.801-4.55 6.852-5.541 7.471-0.054 0.034-0.119 0.055-0.189 0.055s-0.135-0.020-0.19-0.055l0.001 0.001c-0.988-0.618-5.541-3.675-5.541-7.471v-4.568c0.001-0.197 0.157-0.357 0.351-0.362h0c3.542-0.092 2.725-1.658 5.379-1.658 2.651 0 1.837 1.565 5.379 1.66 0.194 0.006 0.349 0.166 0.349 0.362v4.566z"></path>
<path fill="#000" d="M19.71 15.354c0 3.48-4.17 6.28-5.081 6.849-0.049 0.031-0.109 0.050-0.173 0.050s-0.124-0.019-0.175-0.051l0.001 0.001c-0.908-0.567-5.081-3.37-5.081-6.849v-4.188c0.001-0.18 0.143-0.326 0.32-0.331h0c3.249-0.090 2.5-1.524 4.932-1.524s1.686 1.437 4.932 1.524c0.178 0.005 0.32 0.151 0.321 0.331v0l0.003 4.188z"></path>
<path fill="#76bc2d" d="M17.094 19.058c0 2.329-1.873 4.217-4.184 4.217s-4.184-1.888-4.184-4.217c0-2.329 1.873-4.217 4.184-4.217s4.184 1.888 4.184 4.217z"></path>
<path fill="#fff" d="M14.646 18.662c-0.022 0.013-0.048 0.021-0.076 0.021-0.054 0-0.101-0.029-0.127-0.073l-0-0.001-0.177-0.302c-0.013-0.022-0.021-0.048-0.021-0.076 0-0.054 0.029-0.102 0.072-0.128l0.001-0 1.406-0.84c0.022-0.013 0.048-0.021 0.076-0.021 0.054 0 0.101 0.029 0.127 0.073l0 0.001 0.834 1.415c0.013 0.022 0.021 0.048 0.021 0.076 0 0.054-0.029 0.102-0.072 0.128l-0.001 0-0.299 0.18c-0.022 0.013-0.048 0.021-0.075 0.021-0.054 0-0.101-0.029-0.127-0.073l-0-0.001-0.246-0.422c-0.035 0.137-0.055 0.295-0.055 0.457 0 0.089 0.006 0.177 0.018 0.263l-0.001-0.010c0.033 0.251 0.115 0.477 0.235 0.678l-0.004-0.008c0.090 0.156 0.196 0.289 0.32 0.404l0.001 0.001c0.121 0.112 0.259 0.209 0.408 0.287l0.011 0.005c0.139 0.073 0.299 0.13 0.468 0.165l0.012 0.002c0.11 0.023 0.237 0.036 0.366 0.036 0.006 0 0.011-0 0.017-0h-0.001c0.076 0.001 0.138 0.059 0.144 0.134l0 0.001 0.069 0.727c-0.072 0.007-0.155 0.011-0.24 0.011-0.184 0-0.363-0.019-0.537-0.055l0.017 0.003c-0.267-0.056-0.504-0.142-0.724-0.256l0.015 0.007c-0.234-0.121-0.436-0.265-0.615-0.433l0.002 0.002c-0.44-0.414-0.74-0.974-0.825-1.603l-0.002-0.014c-0.015-0.106-0.023-0.229-0.023-0.353 0-0.257 0.036-0.506 0.102-0.741l-0.005 0.019-0.488 0.29zM18.059 17.286c0.182 0.038 0.343 0.098 0.493 0.177l-0.010-0.005c0.159 0.083 0.295 0.181 0.417 0.294l-0.001-0.001c0.296 0.272 0.498 0.643 0.556 1.061l0.001 0.009c0.011 0.076 0.017 0.163 0.017 0.252 0 0.162-0.020 0.319-0.058 0.47l0.003-0.013-0.249-0.418c-0.026-0.044-0.074-0.073-0.128-0.073-0.028 0-0.054 0.008-0.076 0.021l0.001-0-0.297 0.178c-0.044 0.026-0.073 0.074-0.073 0.128 0 0.028 0.008 0.054 0.021 0.077l-0-0.001 0.835 1.415c0.026 0.044 0.073 0.073 0.127 0.073 0.028 0 0.054-0.008 0.076-0.021l-0.001 0 1.404-0.84c0.044-0.026 0.073-0.074 0.073-0.128 0-0.028-0.008-0.054-0.021-0.077l0 0.001-0.178-0.301c-0.026-0.044-0.073-0.073-0.127-0.073-0.028 0-0.054 0.008-0.076 0.021l0.001-0-0.485 0.29c0.062-0.216 0.097-0.465 0.097-0.721 0-0.124-0.008-0.246-0.024-0.365l0.002 0.014c-0.086-0.643-0.387-1.203-0.825-1.615l-0.002-0.001c-0.177-0.166-0.379-0.31-0.598-0.424l-0.015-0.007c-0.205-0.107-0.443-0.192-0.693-0.243l-0.018-0.003c-0.157-0.033-0.338-0.053-0.523-0.053-0.029 0-0.058 0-0.087 0.001l0.004-0c-0.077 0.004-0.139 0.068-0.139 0.147 0 0.005 0 0.010 0.001 0.015l-0-0.001 0.053 0.572c0.006 0.076 0.069 0.136 0.145 0.136h0c0.003 0 0.006-0 0.009-0 0.131 0 0.258 0.015 0.381 0.044l-0.011-0.002v-0.008z"></path>
</svg>
