<!-- Generated by IcoMoon.io -->
<svg version="1.1" xmlns="http://www.w3.org/2000/svg" width="27" height="32" viewBox="0 0 27 32">
<title>File-Integrity-Monitoring</title>
<path fill="#59b4d9" d="M19.29 6.44l-2.47-2.415h-12.793v17.747h15.99v-14.622l-0.727-0.711z"></path>
<path fill="#fff" opacity="0.8" d="M16.747 4.737h-11.993v16.326h14.54v-13.842h-2.546v-2.484z"></path>
<path fill="#59b4d9" d="M13.403 17.939c-0.001 0.215-0.178 0.389-0.398 0.391h-5.49c-0.007 0-0.015 0.001-0.023 0.001-0.221 0-0.4-0.175-0.4-0.39s0.179-0.39 0.4-0.39c0.008 0 0.016 0 0.024 0.001l-0.001-0h5.49c0.218 0.003 0.395 0.175 0.398 0.388v0zM17.074 12.616c-0.002 0.215-0.178 0.388-0.398 0.391h-9.162c-0.221 0-0.401-0.175-0.401-0.391s0.179-0.391 0.401-0.391v0h9.125c0.006-0 0.014-0.001 0.022-0.001 0.224 0 0.406 0.174 0.413 0.391v0.001zM17.074 15.277c-0.002 0.215-0.178 0.388-0.398 0.391h-9.162c-0.221 0-0.401-0.175-0.401-0.391s0.179-0.391 0.401-0.391v0h9.125c0.006-0 0.014-0.001 0.022-0.001 0.224 0 0.406 0.174 0.413 0.391v0.001zM17.074 9.955c-0.003 0.213-0.18 0.385-0.398 0.388h-9.162c-0.211-0.012-0.376-0.182-0.376-0.39s0.166-0.377 0.375-0.39l0.001-0h9.125c0.006-0 0.014-0.001 0.022-0.001 0.224 0 0.406 0.174 0.413 0.391v0.001z"></path>
<path fill="#00188f" d="M4.026 17.653c0.41 1.589 1.861 2.747 3.588 2.747 0.314 0 0.62-0.038 0.911-0.111l-0.026 0.005c0.368-0.091 0.691-0.224 0.987-0.397l-0.017 0.009 2.813 2.77c0.173 0.171 0.413 0.276 0.678 0.276 0.526 0 0.953-0.417 0.953-0.931 0-0.255-0.105-0.487-0.276-0.655l0 0-2.829-2.783c0.31-0.516 0.493-1.137 0.493-1.799 0-1.991-1.653-3.606-3.692-3.606s-3.692 1.614-3.692 3.606c0 0.308 0.040 0.608 0.114 0.893l-0.006-0.025zM5.398 15.478c0.354-0.568 0.916-0.982 1.581-1.144l0.018-0.004c0.186-0.047 0.4-0.074 0.62-0.074 1.431 0 2.59 1.133 2.59 2.53s-1.16 2.53-2.59 2.53c-1.21 0-2.227-0.81-2.511-1.906l-0.004-0.017c-0.049-0.183-0.077-0.394-0.077-0.611 0-0.482 0.139-0.932 0.38-1.314l-0.006 0.011z"></path>
<path fill="#1e1e1e" opacity="0.5" d="M18.509 19.906l0.266 0.263c0.080-0.028 0.147-0.058 0.212-0.093l-0.008 0.004c0.417-0.285 0.768-0.631 1.047-1.029l0.009-0.014c0.039-0.053 0.072-0.109 0.109-0.164l-0.030-0.030-0.266-0.26c-0.046 0.079-0.092 0.158-0.145 0.234-0.26 0.371-0.577 0.684-0.942 0.933l-0.012 0.008c-0.079 0.053-0.158 0.102-0.24 0.148z"></path>
</svg>
