<!-- Generated by IcoMoon.io -->
<svg version="1.1" xmlns="http://www.w3.org/2000/svg" width="32" height="32" viewBox="0 0 32 32">
<title>File-Share</title>
<path fill="#005ba1" d="M22.693 11.882h-0.737c-0.066-0.005-0.144-0.007-0.222-0.007s-0.156 0.003-0.232 0.008l0.010-0.001c-0.3-0.005-0.541-0.249-0.541-0.549 0-0.094 0.024-0.182 0.065-0.26l-0.001 0.003 0.316-0.567c-0.118-0.095-0.255-0.174-0.403-0.23l-0.010-0.003-0.749 1.34c-0.099 0.169-0.279 0.28-0.485 0.282h-0.673c-0 0-0 0-0.001 0-0.095 0-0.184 0.025-0.261 0.068l0.003-0.001-1.268 0.806c-0.019 0.007-0.042 0.011-0.065 0.011s-0.045-0.004-0.066-0.011l0.001 0h-4.39c-0.123 0.008-0.22 0.11-0.22 0.234 0 0.009 0 0.017 0.001 0.026l-0-0.001 0 3.891-1.414 0.436 0.105 0.452 1.309-0.192v2.34c0 0.129 0.105 0.234 0.234 0.234v0l7.575 0.002 0.929 1.201 0.395-0.249-0.549-0.952h1.358c0.002 0 0.005 0 0.008 0 0.129 0 0.234-0.105 0.234-0.234 0-0 0-0 0-0v0l0.001-7.832c0-0 0-0 0-0.001 0-0.134-0.109-0.242-0.242-0.242-0.006 0-0.011 0-0.017 0.001l0.001-0z"></path>
<path fill="#50e5ff" d="M22.442 9.606c0 0.486-0.394 0.88-0.881 0.88s-0.881-0.394-0.881-0.88c0-0.486 0.394-0.88 0.881-0.88s0.881 0.394 0.881 0.88z"></path>
<path fill="#50e5ff" d="M11.021 22.128c0 0.633-0.514 1.146-1.148 1.146s-1.148-0.513-1.148-1.146c0-0.633 0.514-1.146 1.148-1.146s1.148 0.513 1.148 1.146z"></path>
<path fill="#50e5ff" d="M11.587 21.845c0 0.789-0.641 1.429-1.431 1.429s-1.431-0.64-1.431-1.429c0-0.789 0.641-1.429 1.431-1.429s1.431 0.64 1.431 1.429z"></path>
<path fill="#0078d4" d="M20.986 12.567l-5.584-0.806h-0.113c-0.002-0-0.004-0-0.007-0-0.41 0-0.748 0.304-0.801 0.699l-0 0.004-0.21 1.363h7.388v-0.331c0.007-0.040 0.011-0.085 0.011-0.131 0-0.402-0.294-0.735-0.678-0.797l-0.005-0.001z"></path>
<path fill="#fff" d="M20.931 12.916l-5.579-0.808h-0.072c-0.234 0.002-0.426 0.176-0.459 0.4l-0 0.003-0.195 1.316h6.644l0.056-0.38c0.003-0.020 0.005-0.044 0.005-0.068 0-0.234-0.172-0.429-0.398-0.463l-0.003-0z"></path>
<path fill="#000" d="M12.977 12.77h4.889c0.067 0.003 0.127 0.030 0.172 0.072l-0-0 0.808 0.808c0.043 0.045 0.103 0.073 0.17 0.073l3.716-0.001c0 0 0 0 0 0 0.131 0 0.238 0.104 0.242 0.234v0l0.001 5.999c-0.005 0.13-0.111 0.234-0.242 0.234-0 0-0 0-0 0l-9.699-0.001c-0.010 0.001-0.021 0.002-0.032 0.002-0.129 0-0.234-0.105-0.234-0.234 0-0.001 0-0.002 0-0.002v0l-0-6.926c-0-0.005-0.001-0.012-0.001-0.018 0-0.123 0.091-0.224 0.21-0.24l0.001-0z"></path>
</svg>
