<!-- Generated by IcoMoon.io -->
<svg version="1.1" xmlns="http://www.w3.org/2000/svg" width="37" height="32" viewBox="0 0 37 32">
<title>Firewall-Policy</title>
<path fill="#821010" d="M27.387 10.329h-18.856c-0.012-0.001-0.026-0.001-0.040-0.001-0.437 0-0.791 0.348-0.791 0.778 0 0.005 0 0.009 0 0.014v-0.001 9.538c0.002 0.429 0.355 0.775 0.791 0.775 0.005 0 0.010-0 0.015-0h10.439v-3.753c0-0.001 0-0.002 0-0.004 0-0.292 0.194-0.539 0.461-0.625l0.005-0.001h0.175c0.011 0 0.024 0 0.036 0 1.649 0 3.159-0.589 4.323-1.566l-0.009 0.008c0.272-0.151 0.588-0.268 0.923-0.332l0.020-0.003c0.339-0.088 0.731-0.146 1.135-0.16l0.010-0c0.019-0 0.042-0 0.064-0 0.382 0 0.755 0.040 1.115 0.115l-0.035-0.006c0.354 0.067 0.693 0.186 1.010 0.362v-4.346c0-0.004 0-0.009 0-0.013 0-0.429-0.354-0.777-0.79-0.777-0 0-0 0-0.001 0h0zM21.632 17.896v2.467h5.535v-2.467h-5.535z"></path>
<path fill="#e62323" d="M8.859 8.8h5.548v2.414h-5.548v-2.414z"></path>
<path fill="#ff7381" d="M15.239 8.8h5.548v2.414h-5.548v-2.414z"></path>
<path fill="#e62323" d="M27.182 8.799h-5.55v2.415h5.55v-2.415zM11.162 12.034h-2.303v2.412h2.303v-2.412z"></path>
<path fill="#ff7381" d="M27.166 12.034v0.481c-0.341-0.084-0.734-0.137-1.139-0.145l-0.006-0c-0.021-0-0.046-0-0.072-0-0.38 0-0.75 0.038-1.108 0.111l0.035-0.006v-0.44h2.289zM17.557 12.034h-5.55v2.412h5.55v-2.412z"></path>
<path fill="#e62323" d="M23.935 12.034v0.816c-1.155 0.969-2.664 1.558-4.313 1.558-0.013 0-0.026-0-0.038-0h-1.194v-2.374h5.546zM14.405 15.28h-5.546v2.411h5.546v-2.412z"></path>
<path fill="#ff7381" d="M15.239 15.265h3.708v2.414h-3.707v-2.414z"></path>
<path fill="#e6e6e6" d="M19.97 12.514v1.275h-12.27v7.298c0.007 0.194 0.169 0.349 0.368 0.349 0.005 0 0.010-0 0.015-0l-0.001 0 11.463-0.002c0.005 0 0.010 0 0.015 0 0.2 0 0.365-0.152 0.38-0.346l0-0.001v-8.569h0.030v-0.004zM8.68 15.641c0-0 0-0.001 0-0.001 0-0.274 0.226-0.497 0.505-0.497s0.505 0.223 0.505 0.497c0 0.274-0.225 0.496-0.503 0.497h-0c-0.277-0.006-0.499-0.224-0.507-0.495v-0.001zM9.187 20.147c-0 0-0.001 0-0.001 0-0.279 0-0.505-0.222-0.505-0.496s0.226-0.496 0.505-0.496c0.279 0 0.505 0.222 0.505 0.496 0 0 0 0 0 0.001v-0c-0.008 0.27-0.228 0.488-0.502 0.496l-0.001 0zM9.187 18.030c-0.278-0.006-0.502-0.226-0.507-0.499v-0c0-0.274 0.226-0.497 0.505-0.497s0.505 0.222 0.505 0.497v0c0 0 0 0.001 0 0.001 0 0.276-0.224 0.501-0.502 0.51l-0.001 0v-0.011zM18.605 19.852c0 0.093-0.138 0.175-0.298 0.175h-7.566c-0.164 0-0.302-0.082-0.302-0.175v-0.47c0-0.082 0.138-0.16 0.302-0.16h7.566c0.16 0 0.298 0.078 0.298 0.16v0.47zM18.605 17.732c0 0.097-0.138 0.175-0.298 0.175h-7.566c-0.164 0-0.302-0.078-0.302-0.175v-0.414c0-0.093 0.138-0.16 0.302-0.16h7.566c0.16 0 0.298 0.067 0.298 0.16v0.414zM18.605 15.842c0 0.093-0.138 0.175-0.298 0.175h-7.566c-0.164 0-0.302-0.082-0.302-0.175v-0.417c0-0.078 0.138-0.16 0.302-0.16h7.566c0.16 0 0.298 0.082 0.298 0.16v0.417z"></path>
<path fill="#666" d="M16.956 12.165c-0.016-0.003-0.035-0.004-0.053-0.004-0.189 0-0.342 0.151-0.342 0.337 0 0.001 0 0.002 0 0.003v-0l0 1.275h12.27v-1.26c-0.014-0.181-0.167-0.322-0.353-0.322-0.005 0-0.011 0-0.016 0l0.001-0-11.507 0.001v-0.030zM27.165 17.156h-7.563c-0.164 0-0.302 0.067-0.302 0.16v0.417c0 0.093 0.138 0.175 0.302 0.175h7.563c0.164 0 0.302-0.082 0.302-0.175v-0.417c0-0.093-0.138-0.16-0.298-0.16h-0.004zM27.165 15.267h-7.563c-0.164 0-0.302 0.078-0.302 0.16v0.414c0 0.097 0.138 0.175 0.302 0.175h7.563c0.164 0 0.302-0.078 0.302-0.175v-0.414c0-0.067-0.138-0.16-0.298-0.16h-0.004zM27.165 19.277h-7.563c-0.164 0-0.302 0.078-0.302 0.16v0.414c0 0.097 0.138 0.175 0.302 0.175h7.563c0.164 0 0.302-0.078 0.302-0.175v-0.47c0 0-0.138-0.104-0.298-0.104h-0.004zM18.048 16.135c0.008 0 0.016 0.001 0.025 0.001 0.279 0 0.505-0.222 0.505-0.496s-0.226-0.496-0.505-0.496c-0.009 0-0.018 0-0.026 0.001l0.001-0c-0.268 0.014-0.479 0.23-0.479 0.496s0.212 0.482 0.478 0.496l0.001 0zM18.048 18.028c0.008 0 0.016 0.001 0.025 0.001 0.279 0 0.505-0.222 0.505-0.496s-0.226-0.496-0.505-0.496c-0.009 0-0.018 0-0.026 0.001l0.001-0c-0.268 0.014-0.479 0.23-0.479 0.496s0.212 0.482 0.478 0.496l0.001 0zM18.048 20.145c0.008 0 0.016 0.001 0.025 0.001 0.279 0 0.505-0.222 0.505-0.496s-0.226-0.496-0.505-0.496c-0.009 0-0.018 0-0.026 0.001l0.001-0c-0.268 0.014-0.479 0.23-0.479 0.496s0.212 0.482 0.478 0.496l0.001 0z"></path>
</svg>
