<!-- Generated by IcoMoon.io -->
<svg version="1.1" xmlns="http://www.w3.org/2000/svg" width="34" height="32" viewBox="0 0 34 32">
<title>Firewall</title>
<path fill="#000" d="M24.976 17.004c-0.058-1.738-1.353-3.154-3.024-3.391l-0.019-0.002c-0.108-2.369-2.046-4.249-4.419-4.249-0.048 0-0.095 0.001-0.143 0.002l0.007-0c-0.025-0.001-0.054-0.001-0.084-0.001-1.939 0-3.594 1.223-4.243 2.944l-0.010 0.031c-2.040 0.255-3.612 1.956-3.676 4.039l-0 0.006c0.090 2.288 1.957 4.109 4.247 4.109 0.053 0 0.106-0.001 0.159-0.003l-0.008 0h7.502c0.029 0.002 0.062 0.004 0.096 0.004s0.068-0.001 0.101-0.004l-0.004 0c1.918-0.020 3.471-1.563 3.519-3.482l0-0.005z"></path>
<path fill="#821010" d="M21.758 17.92c-0.005-0.198-0.166-0.358-0.363-0.358h-8.449c-0.198 0-0.359 0.16-0.364 0.358v4.36c0.005 0.198 0.165 0.358 0.364 0.358h8.449c0.198-0 0.359-0.16 0.363-0.358v-4.36z"></path>
<path fill="#e62323" d="M13.093 18.067h2.489v1.107h-2.489v-1.107z"></path>
<path fill="#ff7381" d="M15.956 18.067h2.489v1.107h-2.489v-1.107z"></path>
<path fill="#e62323" d="M18.819 18.067h2.49v1.107h-2.49v-1.107zM13.093 19.551h1.033v1.107h-1.033v-1.107z"></path>
<path fill="#ff7381" d="M20.276 19.551h1.030v1.107h-1.030v-1.107zM14.498 19.551h2.49v1.107h-2.49v-1.107z"></path>
<path fill="#e62323" d="M17.37 19.549h2.49v1.107h-2.49v-1.107zM13.093 21.034h2.49v1.107h-2.49v-1.107z"></path>
<path fill="#ff7381" d="M15.956 21.032h2.489v1.107h-2.489v-1.107z"></path>
<path fill="#e62323" d="M18.818 21.032h2.489v1.107h-2.489v-1.107z"></path>
</svg>
