<!-- Generated by IcoMoon.io -->
<svg version="1.1" xmlns="http://www.w3.org/2000/svg" width="35" height="32" viewBox="0 0 35 32">
<title>Firewall-Manager</title>
<path fill="#821010" d="M16.637 13.815c0-0.19 0.086-0.282 0.279-0.282 2.644-0.103 2.072-1.218 3.966-1.218 0.043-0.003 0.093-0.005 0.144-0.005 0.509 0 0.978 0.166 1.357 0.446l-0.006-0.004v-2.753c0.013-0.037 0.020-0.079 0.020-0.124 0-0.218-0.178-0.394-0.398-0.394-0.019 0-0.037 0.001-0.056 0.004l0.002-0h-11.928c-0.010-0.001-0.022-0.001-0.034-0.001-0.277 0-0.501 0.223-0.501 0.497 0 0.006 0 0.013 0 0.019l-0-0.001v6.089c0.021 0.275 0.24 0.493 0.515 0.514l0.002 0h6.638v-2.787z"></path>
<path fill="#e62323" d="M10.277 10.171h3.543v1.543h-3.543v-1.543z"></path>
<path fill="#ff7381" d="M14.253 10.171h3.543v1.543h-3.543v-1.543z"></path>
<path fill="#e62323" d="M18.315 10.171h3.544v1.543h-3.544v-1.543z"></path>
<path fill="#e62323" d="M10.277 12.315h1.469v1.543h-1.469v-1.543z"></path>
<path fill="#ff7381" d="M12.265 12.315h3.543v1.543h-3.543v-1.543z"></path>
<path fill="#e62323" d="M16.24 13.859h0.397c0-0.19 0.086-0.284 0.279-0.284 1.934-0.069 2.149-0.684 2.868-1.011v-0.247h-3.543v1.543z"></path>
<path fill="#e62323" d="M10.277 14.373h3.543v1.543h-3.543v-1.543z"></path>
<path fill="#ff7381" d="M14.253 14.373h2.385v1.543h-2.385v-1.543z"></path>
<path fill="#dfa500" d="M24.909 17.247c0 2.572-2.983 4.825-3.793 5.049-0.042 0.012-0.090 0.020-0.139 0.020s-0.098-0.007-0.143-0.020l0.004 0.001c-0.81-0.224-3.793-2.486-3.793-5.049v-3.089c-0.001-0.008-0.002-0.018-0.002-0.027 0-0.128 0.104-0.232 0.233-0.232 0.010 0 0.019 0.001 0.029 0.002l-0.001-0c2.419-0.085 1.902-1.114 3.629-1.114 1.73 0 1.21 1.029 3.632 1.115 0.008-0.001 0.018-0.002 0.028-0.002 0.129 0 0.233 0.104 0.233 0.232 0 0.010-0.001 0.019-0.002 0.028l0-0.001 0.086 3.088z"></path>
<path fill="#000" d="M20.933 17.588v-4.374c1.644 0 1.124 0.943 3.371 1.029 0.14 0.009 0.251 0.119 0.259 0.256l0 0.001-0.001 3.001-3.629 0.086zM20.933 17.588h-3.543c0.172 2.23 2.854 3.945 3.457 4.287l0.172 0.086-0.086-4.374z"></path>
<path fill="#ffd400" d="M17.562 14.287c2.247-0.086 1.73-1.029 3.371-1.029v4.374h-3.543v-3.129c0-0.172 0.086-0.216 0.172-0.216z"></path>
<path fill="#ffd400" d="M24.563 17.502l-3.629 0.086 0.086 4.374h0.086c0.606-0.428 3.198-2.23 3.457-4.46z"></path>
</svg>
