<!-- Generated by IcoMoon.io -->
<svg version="1.1" xmlns="http://www.w3.org/2000/svg" width="26" height="32" viewBox="0 0 26 32">
<title>Free-Services</title>
<path fill="#7a7a7a" d="M12.31 17.276h-6.257c0.703 2.407 0.2 2.762-3.911 2.762v1.251h13.999v-1.251c-4.13 0-4.53-0.355-3.831-2.762z"></path>
<path fill="#a0a1a2" d="M22.258 2.012h-18.952c-0.642 0-1.164 0.567-1.164 1.194v12.896c0 0.627 0.521 1.175 1.164 1.175h18.952c0.642 0 1.285-0.548 1.285-1.175v-12.896c0.019-0.627-0.642-1.194-1.285-1.194z"></path>
<path fill="#fff" opacity="0.2" d="M22.281 2.012h-18.975c-0.642 0-1.164 0.567-1.164 1.194v12.896c0 0.627 0.521 1.175 1.164 1.175h0.442l18.533-15.265z"></path>
<path fill="#59b4d9" d="M3.767 3.616h18.132v12.057h-18.132v-12.057z"></path>
<path fill="#59b4d9" d="M3.767 15.672h0.042v-12.057l16.546-0.019-16.587 0.019v12.057z"></path>
<path fill="#a0a1a2" d="M5.853 20.037h14v1.253h-14v-1.253z"></path>
<path fill="#b8d432" d="M13.072 2.89c0 0.159-0.14 0.295-0.299 0.295-0.162 0-0.302-0.136-0.302-0.295 0-0.155 0.14-0.291 0.302-0.291 0.159 0 0.299 0.136 0.299 0.291z"></path>
<path fill="#fff" d="M12.874 11.561c-0.023 0-0.023 0-0.042-0.019l-2.686-1.508c-0.023-0.019-0.042-0.038-0.042-0.079 0-0.019 0.019-0.057 0.042-0.057l2.668-1.508c0.019-0.019 0.060-0.019 0.079 0l2.686 1.508c0.019 0.019 0.042 0.038 0.042 0.057 0 0.023-0.023 0.060-0.042 0.060l-2.668 1.508-0.038 0.038z"></path>
<path fill="#fff" opacity="0.7" d="M12.47 15.221c-0.019 0-0.019 0-0.038-0.019l-2.668-1.508c-0.023-0.019-0.042-0.038-0.042-0.079v-2.992c0-0.019 0.019-0.060 0.042-0.079 0.019-0.019 0.060-0.019 0.079 0l2.668 1.508c0.019 0.019 0.038 0.038 0.038 0.079v3.011c0 0.023-0.019 0.060-0.038 0.079h-0.042z"></path>
<path fill="#fff" opacity="0.4" d="M13.233 15.221c-0.019 0-0.019 0-0.038-0.019-0.023-0.019-0.042-0.038-0.042-0.079v-2.974c0-0.019 0.019-0.060 0.042-0.079l2.668-1.508c0.019-0.019 0.060-0.019 0.079 0 0.019 0.023 0.038 0.042 0.038 0.060v2.992c0 0.023-0.019 0.060-0.038 0.079l-2.668 1.508c0 0.019-0.019 0.019-0.042 0.019z"></path>
<path fill="#ba141a" d="M9.344 3.772c3.65 2.505 3.548 5.792 3.548 5.792s-1.001-3.129-5.275-4.421l2.286 0.057-0.559-1.428zM15.741 5.359c-2.89 1.663-3.068 4.285-3.068 4.285s0.982-2.445 4.27-3.151l-1.723-0.079 0.521-1.054zM12.873 9.232c-0.042-0.057-0.861-1.27-2.286-1.84-0.926-0.351-1.625-0.469-2.108-0.291-0.261 0.098-0.442 0.253-0.54 0.487-0.162 0.393-0.14 1.156 1.764 1.901 1.424 0.567 2.887 0.234 2.947 0.215l0.423-0.159-0.2-0.314zM10.346 7.981c0.763 0.291 1.345 0.82 1.666 1.194-0.503 0.038-1.285 0.038-2.048-0.276-1.103-0.431-1.504-0.88-1.424-1.096 0.019-0.038 0.042-0.098 0.162-0.117 0.14-0.060 0.601-0.117 1.644 0.295zM13.032 9.644c0.060 0.019 1.485 0.45 2.97 0.019 0.941-0.291 1.564-0.646 1.825-1.058 0.14-0.234 0.181-0.469 0.098-0.703-0.117-0.412-0.639-0.979-2.607-0.393-1.462 0.453-2.407 1.606-2.445 1.647l-0.261 0.332 0.419 0.155zM15.82 9.058c-0.782 0.234-1.564 0.174-2.067 0.098 0.363-0.336 0.982-0.824 1.764-1.058 1.145-0.351 1.727-0.257 1.806-0.019 0.023 0.038 0.023 0.098-0.038 0.193-0.083 0.121-0.382 0.453-1.466 0.786z"></path>
</svg>
