<!-- Generated by IcoMoon.io -->
<svg version="1.1" xmlns="http://www.w3.org/2000/svg" width="34" height="32" viewBox="0 0 34 32">
<title>Function-App</title>
<path fill="#50e6ff" d="M13.876 19.491l-0.513 0.51c-0.045 0.040-0.105 0.065-0.171 0.065s-0.126-0.025-0.171-0.065l0 0-3.672-3.65c-0.079-0.090-0.128-0.209-0.128-0.339s0.048-0.249 0.128-0.34l-0.001 0.001 0.428-0.51 4.098 4.073c0.039 0.029 0.064 0.076 0.064 0.127s-0.025 0.098-0.063 0.127l-0 0z"></path>
<path fill="#1490df" d="M13.28 12.022l0.513 0.51c0.040 0.045 0.065 0.104 0.065 0.17s-0.025 0.125-0.065 0.17l0-0-3.929 3.905-0.513-0.51c-0.081-0.090-0.13-0.209-0.13-0.339s0.049-0.249 0.13-0.339l-0 0.001 3.672-3.65c0.012-0.002 0.026-0.003 0.041-0.003 0.084 0 0.161 0.033 0.217 0.087l-0-0z"></path>
<path fill="#50e6ff" d="M23.955 15.164l0.513 0.507c0.080 0.090 0.129 0.21 0.129 0.34s-0.049 0.25-0.129 0.341l0-0.001-3.759 3.734c-0.045 0.040-0.105 0.065-0.171 0.065s-0.126-0.025-0.171-0.065l0 0-0.513-0.51c-0.040-0.045-0.065-0.104-0.065-0.17s0.025-0.125 0.065-0.17l-0 0 4.1-4.073z"></path>
<path fill="#1490df" d="M24.381 16.266l-0.513 0.51-4.014-3.989c-0.040-0.045-0.065-0.104-0.065-0.17s0.025-0.125 0.065-0.17l-0 0 0.513-0.509c0.045-0.040 0.105-0.065 0.171-0.065s0.126 0.025 0.171 0.065l-0-0 3.672 3.65c0.081 0.090 0.13 0.209 0.13 0.339s-0.049 0.249-0.13 0.339l0-0z"></path>
<path fill="#000" d="M12.466 16.777h-3.075c-0.092-0.006-0.164-0.079-0.171-0.169l-0-0.001-0-0.085 3.672-7.216c0.087 0 0.087-0.084 0.171-0.084h3.588c0.092 0.006 0.164 0.079 0.171 0.169l0 0.001 0 0.085-4.271 5.687h4.184c0.092 0.006 0.164 0.079 0.171 0.169l0 0.001c0 0.047-0.038 0.085-0.085 0.085v0l-7.003 7.214c-0.084 0-0.513 0.426-0.342-0.168l2.991-5.687z"></path>
</svg>
