<!-- Generated by IcoMoon.io -->
<svg version="1.1" xmlns="http://www.w3.org/2000/svg" width="16" height="32" viewBox="0 0 16 32">
<title>Genomics-Account</title>
<path fill="#ff8c00" d="M7.122 15.699c-0.077-0.050-0.138-0.084-0.191-0.128-0.443-0.359-0.907-0.692-1.317-1.088-0.372-0.398-0.601-0.94-0.601-1.537 0-0.351 0.079-0.684 0.221-0.979l-0.006 0.013c0.273-0.453 0.615-0.833 1.014-1.138l0.011-0.008c0.839-0.663 1.788-1.264 2.795-1.761l0.097-0.043c0.741-0.349 1.379-0.752 1.963-1.223l-0.021 0.017c0.915-0.766 1.567-1.832 1.815-3.053l0.006-0.035c0.021-0.108 0.039-0.242 0.049-0.379l0.001-0.014c0.007-0.042 0.012-0.089 0.012-0.138 0-0.445-0.35-0.805-0.781-0.805-0.409 0-0.744 0.323-0.779 0.736l-0 0.003c-0.218 1.381-1.021 2.325-2.143 3.007-0.537 0.326-1.105 0.591-1.653 0.894-1.059 0.553-1.971 1.203-2.786 1.962l0.011-0.010c-0.527 0.517-1.025 1.062-1.229 1.811-0.115 0.348-0.182 0.749-0.182 1.166 0 1.056 0.428 2.010 1.115 2.686l0.001 0.001c0.282 0.296 0.601 0.558 0.907 0.826 0.040 0.034 0.092 0.055 0.148 0.055 0.018 0 0.035-0.002 0.052-0.006l-0.002 0c0.487-0.265 0.968-0.543 1.475-0.832zM9.242 18.595c0.168 0.111 0.326 0.215 0.48 0.312 0.862 0.517 1.466 1.406 1.607 2.448l0.002 0.018c0.020 0.134 0.027 0.275 0.050 0.413 0.051 0.395 0.376 0.696 0.768 0.696 0.026 0 0.052-0.001 0.078-0.004l-0.003 0c0.393-0.033 0.699-0.369 0.699-0.78 0-0.009-0-0.019-0-0.028l0 0.001c-0.007-1.13-0.408-2.163-1.070-2.959l0.005 0.006c-0.284-0.311-0.58-0.599-0.891-0.87l-0.016-0.013c-0.039-0.033-0.089-0.053-0.143-0.053-0.019 0-0.038 0.002-0.056 0.007l0.002-0c-0.498 0.258-0.991 0.526-1.512 0.805z"></path>
<path fill="#59b4d9" d="M5.2 5.133c0.124 0.394 0.306 0.736 0.539 1.034l-0.005-0.006h3.369c-0.162 0.127-0.346 0.254-0.537 0.371l-0.027 0.015c-0.107 0.067-0.218 0.128-0.329 0.191h-1.905c0.106 0.087 0.225 0.174 0.349 0.255l0.017 0.010c0.155 0.101 0.312 0.202 0.48 0.312-0.524 0.279-1.014 0.548-1.512 0.806-0.016 0.004-0.035 0.007-0.054 0.007-0.055 0-0.105-0.020-0.144-0.053l0 0c-0.327-0.284-0.623-0.573-0.902-0.879l-0.005-0.006c-0.656-0.79-1.058-1.822-1.065-2.951v-0.001c-0-0.008-0-0.017-0-0.027 0-0.41 0.307-0.747 0.696-0.779l0.003-0c0.022-0.002 0.049-0.004 0.075-0.004 0.393 0 0.717 0.301 0.768 0.692l0 0.004c0.024 0.138 0.034 0.279 0.050 0.413 0 0.007 0 0.010 0.003 0.017h5.314v0.020c-0.097 0.215-0.2 0.398-0.317 0.57l0.008-0.012h-4.871zM3.487 21.174c0.254-1.256 0.907-2.325 1.814-3.083l0.010-0.008c0.562-0.453 1.199-0.854 1.878-1.177l0.060-0.026c1.104-0.54 2.053-1.141 2.931-1.833l-0.039 0.029c0.101-0.084 0.198-0.171 0.296-0.259h-3.336c-0.128-0.108-0.241-0.209-0.35-0.313l0.004 0.004c-0.081-0.080-0.154-0.168-0.218-0.263l-0.004-0.006h4.434c0.068-0.090 0.134-0.191 0.192-0.297l0.006-0.012c0.109-0.213 0.181-0.462 0.201-0.726l0-0.007h-5.2c-0.008-0.074-0.013-0.161-0.013-0.248 0-0.116 0.008-0.231 0.025-0.343l-0.002 0.013h5.177c-0.057-0.387-0.206-0.73-0.423-1.016l0.003 0.005h-4.3c0.172-0.211 0.356-0.4 0.554-0.572l0.007-0.006h3.127c-0.286-0.232-0.574-0.46-0.86-0.692-0.054-0.044-0.114-0.077-0.191-0.128 0.507-0.289 0.988-0.568 1.475-0.836 0.015-0.004 0.032-0.006 0.050-0.006 0.056 0 0.108 0.021 0.148 0.055l-0-0c0.306 0.27 0.622 0.532 0.904 0.831 0.691 0.678 1.12 1.633 1.12 2.692 0 0.414-0.066 0.812-0.187 1.184l0.007-0.026c-0.205 0.752-0.705 1.297-1.233 1.811-0.803 0.748-1.714 1.398-2.7 1.918l-0.071 0.034c-0.548 0.302-1.119 0.568-1.653 0.894-0.257 0.158-0.477 0.318-0.686 0.492l0.011-0.009h2.251l0.037 0.023c0.257 0.166 0.481 0.349 0.682 0.555l-0-0h-3.554c-0.254 0.297-0.466 0.64-0.622 1.013l-0.009 0.025h4.874c0.070 0.163 0.132 0.355 0.177 0.555l0.004 0.023h-5.237c-0.027 0.108-0.054 0.215-0.074 0.333-0.035 0.415-0.37 0.739-0.779 0.739-0.432 0-0.781-0.361-0.781-0.805 0-0.049 0.004-0.097 0.012-0.143l-0.001 0.005c0.012-0.151 0.030-0.285 0.054-0.417l-0.004 0.024z"></path>
</svg>
