<!-- Generated by IcoMoon.io -->
<svg version="1.1" xmlns="http://www.w3.org/2000/svg" width="32" height="32" viewBox="0 0 32 32">
<title>Hdinsight-Cluster</title>
<path fill="#0078d4" d="M14.641 18.296h2.677c0.107-0.001 0.195-0.076 0.218-0.176l0-0.002c0.153-0.71 0.541-1.312 1.077-1.734l0.006-0.005c0.054-0.040 0.089-0.104 0.089-0.176 0-0.043-0.012-0.082-0.033-0.116l0.001 0.001-1.391-2.424c-0.039-0.065-0.108-0.107-0.188-0.107-0.031 0-0.061 0.007-0.088 0.019l0.001-0.001c-0.3 0.112-0.647 0.18-1.008 0.186l-0.003 0c-0.006 0-0.013 0-0.020 0-0.367 0-0.718-0.069-1.041-0.194l0.020 0.007c-0.023-0.008-0.049-0.013-0.076-0.013-0.085 0-0.16 0.047-0.198 0.117l-0.001 0.001-1.391 2.425c-0.019 0.032-0.030 0.071-0.030 0.113 0 0.072 0.034 0.136 0.086 0.178l0 0c0.538 0.426 0.923 1.025 1.072 1.712l0.004 0.020c0.023 0.098 0.109 0.17 0.213 0.17 0.002 0 0.004-0 0.006-0h-0zM13.025 10.787h-1.617c-0.001 0-0.002-0-0.003-0-0.082 0-0.153 0.045-0.191 0.112l-0.001 0.001-2.052 3.531c-0.019 0.032-0.030 0.072-0.030 0.113s0.011 0.081 0.031 0.114l-0.001-0.001 0.752 1.293c0.041 0.071 0.117 0.118 0.203 0.118 0.035 0 0.068-0.008 0.097-0.021l-0.001 0.001c0.375-0.187 0.817-0.297 1.285-0.297 0.003 0 0.005 0 0.008 0h-0c0.048-0.004 0.105-0.006 0.162-0.006s0.113 0.002 0.169 0.006l-0.007-0c0.005 0 0.011 0.001 0.016 0.001 0.087 0 0.164-0.045 0.209-0.113l0.001-0.001 0.639-1.093 0.962-1.663c0.025-0.035 0.040-0.078 0.040-0.125s-0.015-0.090-0.040-0.126l0 0.001c-0.408-0.499-0.657-1.142-0.662-1.842v-0.001h0.031zM20.801 10.9c-0.038-0.068-0.109-0.113-0.191-0.113-0.001 0-0.002 0-0.003 0l-1.615 0c0 0.002 0 0.004 0 0.005 0 0.693-0.238 1.331-0.636 1.836l0.005-0.006c-0.025 0.035-0.040 0.078-0.040 0.125s0.015 0.090 0.040 0.126l-0-0.001 0.97 1.672 0.639 1.109c0.040 0.069 0.113 0.115 0.197 0.115 0.010 0 0.020-0.001 0.030-0.002l-0.001 0 0.307-0c0.473 0.002 0.921 0.112 1.319 0.306l-0.018-0.008c0.024 0.010 0.052 0.016 0.081 0.016 0.068 0 0.129-0.031 0.169-0.080l0-0 0.75-1.301c0.019-0.032 0.030-0.072 0.030-0.113s-0.011-0.081-0.031-0.114l0.001 0.001-2.004-3.572zM17.431 19.59h-2.902c-0.002-0-0.004-0-0.007-0-0.096 0-0.178 0.060-0.211 0.144l-0.001 0.002c-0.22 0.601-0.611 1.096-1.114 1.439l-0.010 0.007c-0.062 0.043-0.102 0.113-0.102 0.194 0 0.042 0.011 0.081 0.030 0.115l-0.001-0.001 0.64 1.099c0.041 0.066 0.112 0.111 0.194 0.113l4.082-0c0.082-0.002 0.153-0.047 0.193-0.112l0.001-0.001 0.63-1.090c0.020-0.033 0.032-0.073 0.032-0.116 0-0.080-0.041-0.15-0.104-0.19l-0.001-0.001c-0.516-0.353-0.909-0.851-1.124-1.435l-0.007-0.021c-0.033-0.086-0.115-0.146-0.211-0.146-0.002 0-0.005 0-0.007 0h0z"></path>
<path fill="#000" d="M13.001 18.732c0 0.826-0.669 1.495-1.495 1.495s-1.495-0.669-1.495-1.495c0-0.826 0.669-1.495 1.495-1.495s1.495 0.669 1.495 1.495z"></path>
<path fill="#000" d="M21.949 18.732c0 0.826-0.669 1.495-1.495 1.495s-1.495-0.669-1.495-1.495c0-0.826 0.669-1.495 1.495-1.495s1.495 0.669 1.495 1.495z"></path>
<path fill="#000" d="M17.479 10.787c0 0.826-0.669 1.495-1.495 1.495s-1.495-0.669-1.495-1.495c0-0.826 0.669-1.495 1.495-1.495s1.495 0.669 1.495 1.495z"></path>
<path fill="#5ea0ef" d="M20.454 13.915c-0.003 0-0.006 0-0.009 0-0.501 0-0.985 0.077-1.439 0.22l0.034-0.009 0.88 1.527c0.040 0.069 0.113 0.115 0.197 0.115 0.010 0 0.020-0.001 0.030-0.002l-0.001 0 0.307-0c0.473 0.002 0.921 0.112 1.319 0.306l-0.018-0.008c0.033 0.021 0.073 0.034 0.117 0.034 0.076 0 0.143-0.039 0.182-0.098l0-0.001 0.638-1.098 0.169-0.3c-0.687-0.422-1.516-0.675-2.404-0.685l-0.003-0zM17.536 18.116c0.153-0.71 0.541-1.311 1.077-1.733l0.006-0.005c0.054-0.040 0.089-0.104 0.089-0.176 0-0.043-0.012-0.082-0.033-0.116l0.001 0.001-0.808-1.421c-1.225 0.796-2.060 2.101-2.206 3.609l-0.002 0.020h1.666c0.103-0.005 0.188-0.079 0.21-0.176l0-0.002zM17.649 19.733c-0.033-0.086-0.115-0.146-0.211-0.146-0.002 0-0.005 0-0.007 0h0l-1.722 0.002c0.247 1.298 0.982 2.39 2.004 3.1l0.016 0.011h0.3c0.082-0.002 0.153-0.047 0.193-0.112l0.001-0.001 0.63-1.090c0.020-0.033 0.032-0.073 0.032-0.116 0-0.080-0.041-0.15-0.104-0.19l-0.001-0.001c-0.529-0.348-0.934-0.847-1.157-1.435l-0.007-0.020h0.033z"></path>
</svg>
