<!-- Generated by IcoMoon.io -->
<svg version="1.1" xmlns="http://www.w3.org/2000/svg" width="29" height="32" viewBox="0 0 29 32">
<title>Help-And-Support</title>
<path fill="#000" d="M20.354 22.108c-0.334-2.694-1.639-4.974-4.046-5.716 0.907-0.596 1.499-1.615 1.499-2.774 0-1.821-1.46-3.297-3.26-3.297s-3.26 1.476-3.26 3.297c0 1.141 0.573 2.147 1.444 2.739l0.012 0.008c-2.424 0.659-3.72 2.724-4.015 5.754-0.004 0.033-0.006 0.071-0.006 0.109 0 0.543 0.407 0.99 0.93 1.045l0.005 0c0.029 0.003 0.063 0.005 0.097 0.005 0.003 0 0.006 0 0.009-0h9.561c0.001 0 0.003 0 0.005 0 0.57 0 1.032-0.466 1.034-1.041v-0c-0-0.045-0.003-0.090-0.008-0.134l0.001 0.005z"></path>
<path fill="#fff" opacity="0.8" d="M14.552 16.92c-0.001 0-0.002 0-0.004 0-0.655 0-1.266-0.196-1.776-0.534l0.012 0.008 1.75 4.62 1.737-4.592c-0.488 0.312-1.082 0.498-1.719 0.498-0 0-0 0-0 0v0z"></path>
<path fill="#767676" d="M19.444 14.57c0.044-0.253 0.068-0.545 0.068-0.842 0-0.43-0.052-0.848-0.15-1.248l0.007 0.036c-0.55-2.142-2.413-3.709-4.648-3.781l-0.008-0c-0.098-0.008-0.211-0.012-0.326-0.012-1.634 0-3.061 0.894-3.829 2.225l-0.011 0.021c-0.045 0.072-0.072 0.159-0.072 0.252 0 0.17 0.088 0.319 0.221 0.403l0.002 0.001c0.064 0.040 0.142 0.064 0.225 0.064 0.151 0 0.283-0.078 0.361-0.196l0.001-0.002c0.632-1.115 1.801-1.855 3.142-1.855 0.082 0 0.164 0.003 0.245 0.008l-0.011-0.001c1.803 0.047 3.31 1.276 3.795 2.947l0.007 0.029c0.093 0.334 0.147 0.716 0.147 1.112 0 0.217-0.016 0.43-0.047 0.638l0.003-0.023c-0.205 0.088-0.361 0.26-0.427 0.472l-0.001 0.005-0.218 0.726c-0.027 0.076-0.043 0.163-0.043 0.255 0 0.42 0.337 0.76 0.752 0.76 0.349 0 0.642-0.24 0.727-0.566l0.001-0.005 0.221-0.729c0.020-0.066 0.032-0.141 0.032-0.22 0-0.181-0.062-0.347-0.167-0.477l0.001 0.001z"></path>
</svg>
