<!-- Generated by IcoMoon.io -->
<svg version="1.1" xmlns="http://www.w3.org/2000/svg" width="30" height="32" viewBox="0 0 30 32">
<title>High-Availability</title>
<path fill="#198ab3" d="M15.403 20.479c0-0.121-0.493-0.121-0.493 0 0.003 0.032 0.005 0.069 0.005 0.106 0 0.708-0.589 1.283-1.318 1.29h3.119c-0.729-0.007-1.317-0.581-1.317-1.288 0-0.038 0.002-0.076 0.005-0.113l-0 0.005z"></path>
<path fill="#32bedd" d="M18.64 9.849c0.083-0.081 0.198-0.132 0.325-0.132s0.242 0.050 0.324 0.132l0.021 0.021c1.009 1.128 1.623 2.61 1.623 4.232 0 3.578-2.992 6.478-6.682 6.478-1.674 0-3.204-0.597-4.377-1.583l0.008 0.007c-0.095-0.081-0.155-0.2-0.155-0.332 0-0.114 0.045-0.218 0.118-0.297l-0 0 0.019-0.019c0.083-0.081 0.197-0.131 0.324-0.131 0.117 0 0.224 0.043 0.304 0.113l-0-0c1.002 0.836 2.316 1.346 3.752 1.346 3.184 0 5.765-2.502 5.765-5.589 0-1.392-0.525-2.666-1.394-3.644l0.006 0.007c-0.073-0.078-0.117-0.181-0.117-0.295 0-0.123 0.052-0.234 0.136-0.314l0-0zM17.524 22.618h-4.739c-0.209-0.001-0.378-0.164-0.378-0.366v-0c0-0 0-0.001 0-0.001 0-0.203 0.169-0.367 0.378-0.368h4.74c0 0 0.001 0 0.001 0 0.209 0 0.379 0.165 0.379 0.368 0 0 0 0.001 0 0.001v-0c-0.001 0.203-0.17 0.367-0.379 0.367-0 0-0.001 0-0.001 0h0z"></path>
<path fill="#000" d="M19.122 17.897c0 2.607-2.18 4.721-4.87 4.721s-4.87-2.114-4.87-4.721c0-2.607 2.18-4.721 4.87-4.721s4.87 2.114 4.87 4.721z"></path>
<path fill="#37c2b1" d="M13.307 14.112c0.122-0.118 0.198-0.282 0.198-0.463 0-0.361-0.302-0.654-0.674-0.654s-0.674 0.293-0.674 0.654c0 0.181 0.076 0.344 0.198 0.463v0c0.122 0.118 0.29 0.191 0.476 0.191s0.354-0.073 0.476-0.191v0zM16.487 13.12c-0.334 0.324-0.54 0.771-0.54 1.264s0.206 0.941 0.54 1.264v0l0.374 0.362c0.061 0.062 0.099 0.146 0.099 0.239 0 0.096-0.041 0.184-0.106 0.246l-0 0c-0.065 0.063-0.154 0.102-0.253 0.102s-0.189-0.039-0.253-0.102v0l0.005 0.005c-0.084-0.068-0.193-0.11-0.312-0.11-0.269 0-0.486 0.211-0.486 0.471 0 0.117 0.044 0.225 0.117 0.307l-0.001-0.001 1.041 1.011c1.454-0.833 2.414-2.345 2.414-4.074 0-0.381-0.047-0.752-0.135-1.106l0.007 0.032c-0.321-0.27-0.744-0.435-1.206-0.435-0.509 0-0.97 0.2-1.304 0.524v0zM12.082 11.562c0.202 0.185 0.475 0.299 0.776 0.299 0.624 0 1.13-0.49 1.13-1.095 0-0.291-0.117-0.556-0.309-0.752l0.001 0.001-0.528-0.511c-0.819 0.189-1.53 0.557-2.116 1.060l0.005-0.004 1.041 1.004zM9.98 11.833c-0.227 0.392-0.402 0.847-0.502 1.329l-0.005 0.030 0.565 0.549c0.122 0.119 0.291 0.192 0.477 0.192 0.373 0 0.675-0.293 0.675-0.654 0-0.181-0.075-0.344-0.197-0.462l-1.013-0.983zM12.527 18.518c0.512 0.194 1.105 0.306 1.725 0.306 0.643 0 1.257-0.121 1.819-0.341l-0.033 0.011-0.285-0.276c-0.381-0.369-0.906-0.597-1.487-0.597s-1.107 0.228-1.487 0.597v0c-0.091 0.089-0.174 0.187-0.247 0.292l-0.005 0.007z"></path>
</svg>
