<!-- Generated by IcoMoon.io -->
<svg version="1.1" xmlns="http://www.w3.org/2000/svg" width="24" height="32" viewBox="0 0 24 32">
<title>Host</title>
<path fill="#32bedd" d="M11.196 7.76h1.424v11.497h-1.424v-11.497z"></path>
<path fill="#000" d="M21.188 2h-18.39c-0.444 0.013-0.797 0.319-0.797 0.694 0 0 0 0.001 0 0.001v-0 4.371c0 0 0 0 0 0 0 0.379 0.362 0.688 0.811 0.694h18.377c0 0 0 0 0 0 0.448 0 0.811-0.306 0.811-0.683 0-0.004-0-0.009-0-0.013v0.001-4.371c0-0.004 0-0.008 0-0.012 0-0.377-0.363-0.683-0.811-0.683-0 0-0 0-0 0v0z"></path>
<path fill="#000" d="M21.131 16.25h-18.39c-0.417 0.032-0.741 0.324-0.741 0.68 0 0.002 0 0.003 0 0.005v-0 4.381c-0 0.004-0 0.009-0 0.014 0 0.37 0.357 0.671 0.797 0.671 0.005 0 0.010-0 0.015-0h18.319c0.442-0.007 0.797-0.31 0.797-0.683 0-0.001 0-0.001 0-0.002v0-4.381c-0.006-0.371-0.358-0.671-0.796-0.684l-0.001-0z"></path>
<path fill="#7fba00" d="M6.299 20.192c0 0.999-0.962 1.808-2.149 1.808s-2.149-0.81-2.149-1.808c0-0.999 0.962-1.808 2.149-1.808s2.149 0.81 2.149 1.808z"></path>
<path fill="#000" d="M14.142 20.18c0 0.999-0.962 1.808-2.149 1.808s-2.149-0.81-2.149-1.808c0-0.999 0.962-1.808 2.149-1.808s2.149 0.81 2.149 1.808z"></path>
<path fill="#b4ec36" d="M18.683 4.156c0 0.099 0.096 0.18 0.214 0.18l1.067 0c0.118 0 0.214-0.080 0.214-0.18v0l0.002-0.9c0-0.099-0.096-0.18-0.214-0.18l-1.067-0c-0.118 0-0.214 0.080-0.214 0.18v0l-0.002 0.9z"></path>
<path fill="#b4ec36" d="M18.683 6.324c0 0.099 0.096 0.18 0.214 0.18l1.067 0c0.118 0 0.214-0.080 0.214-0.18v0l0.002-0.9c0-0.099-0.096-0.18-0.214-0.18l-1.067-0c-0.118 0-0.214 0.080-0.214 0.18v0l-0.002 0.9z"></path>
<path fill="#b4ec36" d="M18.683 11.928c0 0.099 0.096 0.18 0.214 0.18l1.067 0c0.118 0 0.214-0.080 0.214-0.18v0l0.002-0.9c0-0.099-0.096-0.18-0.214-0.18l-1.067-0c-0.118 0-0.214 0.080-0.214 0.18v0l-0.002 0.9z"></path>
<path fill="#b4ec36" d="M18.683 14.096c0 0.099 0.096 0.18 0.214 0.18l1.067 0c0.118 0 0.214-0.080 0.214-0.18v0l0.002-0.9c0-0.099-0.096-0.18-0.214-0.18l-1.067-0c-0.118 0-0.214 0.080-0.214 0.18v0l-0.002 0.9z"></path>
</svg>
