<!-- Generated by IcoMoon.io -->
<svg version="1.1" xmlns="http://www.w3.org/2000/svg" width="24" height="32" viewBox="0 0 24 32">
<title>Host-Group</title>
<path fill="#198ab3" d="M18.492 9.452h-15.596c-0.004-0-0.008-0-0.012-0-0.488 0-0.884 0.36-0.884 0.804 0 0 0 0 0 0v0 3.641c0 0.001 0 0.002 0 0.002 0 0.45 0.401 0.816 0.896 0.816h15.596c0.495-0 0.896-0.366 0.896-0.816 0-0.001 0-0.002 0-0.002v0-3.641c-0.007-0.445-0.406-0.804-0.896-0.804h-0zM18.492 16.737h-15.596c-0.004-0-0.008-0-0.012-0-0.488 0-0.884 0.36-0.884 0.804 0 0 0 0 0 0v0 3.644c0.001 0.45 0.402 0.815 0.896 0.815h15.596c0.494-0 0.895-0.365 0.896-0.815v-3.644c0-0 0-0 0-0 0-0.444-0.396-0.804-0.884-0.804-0.004 0-0.009 0-0.013 0h0.001z"></path>
<path fill="#32bedd" d="M12.188 7.263h1.3v12.135h-1.3v-12.135z"></path>
<path fill="#000" d="M21.26 3.62h-15.868c-0 0-0 0-0 0-0.409 0-0.741 0.302-0.741 0.674v3.549c0.041 0.341 0.355 0.603 0.737 0.603 0.001 0 0.003 0 0.004 0h15.868c0 0 0 0 0 0 0.409 0 0.741-0.302 0.741-0.674v-3.549c-0.041-0.341-0.355-0.603-0.737-0.603-0.001 0-0.003 0-0.004 0h0z"></path>
<path fill="#b4ec36" d="M19.154 5.36c0 0.098 0.087 0.177 0.195 0.177v0l0.976-0.001c0.108 0 0.195-0.079 0.195-0.177v0l-0.001-0.888c0-0.098-0.087-0.177-0.195-0.177v0l-0.976 0.001c-0.108 0-0.195 0.079-0.195 0.177v0l0.001 0.888z"></path>
<path fill="#b4ec36" d="M19.154 7.501c0 0.098 0.087 0.177 0.195 0.177v0l0.976-0.001c0.108 0 0.195-0.079 0.195-0.177v0l-0.001-0.888c0-0.098-0.087-0.177-0.195-0.177v0l-0.976 0.001c-0.108 0-0.195 0.079-0.195 0.177v0l0.001 0.888z"></path>
<path fill="#000" d="M21.26 10.906h-15.868c-0 0-0 0-0 0-0.409 0-0.741 0.302-0.741 0.674v3.549c0.041 0.341 0.355 0.603 0.737 0.603 0.001 0 0.003 0 0.004 0h15.868c0 0 0 0 0 0 0.409 0 0.741-0.302 0.741-0.674v-3.549c-0.041-0.341-0.355-0.603-0.737-0.603-0.001 0-0.003 0-0.004 0h0z"></path>
<path fill="#b4ec36" d="M19.154 12.646c0 0.098 0.087 0.177 0.195 0.177v0l0.976-0.001c0.108 0 0.195-0.079 0.195-0.177v0l-0.001-0.888c0-0.098-0.087-0.177-0.195-0.177v0l-0.976 0.001c-0.108 0-0.195 0.079-0.195 0.177v0l0.001 0.888z"></path>
<path fill="#b4ec36" d="M19.154 14.787c0 0.098 0.087 0.177 0.195 0.177v0l0.976-0.001c0.108 0 0.195-0.079 0.195-0.177v0l-0.001-0.888c0-0.098-0.087-0.177-0.195-0.177v0l-0.976 0.001c-0.108 0-0.195 0.079-0.195 0.177v0l0.001 0.888z"></path>
</svg>
