<!-- Generated by IcoMoon.io -->
<svg version="1.1" xmlns="http://www.w3.org/2000/svg" width="34" height="32" viewBox="0 0 34 32">
<title>HPC-Cache</title>
<path fill="#000" d="M24.382 16.569c-0.040-1.677-1.307-3.051-2.952-3.291l-0.019-0.002c-0.078-2.3-1.995-4.136-4.349-4.136-0.034 0-0.068 0-0.103 0.001l0.005-0c-0.017-0-0.037-0-0.057-0-1.919 0-3.556 1.19-4.186 2.86l-0.010 0.030c-2.002 0.269-3.533 1.92-3.57 3.929l-0 0.004c0.063 2.219 1.91 3.994 4.179 3.994 0.039 0 0.079-0.001 0.118-0.002l-0.006 0c0.129 0 0.255-0.005 0.379-0.016h6.95c0.066-0.002 0.128-0.012 0.188-0.031l-0.005 0.001c1.874-0.031 3.387-1.505 3.438-3.337l0-0.005z"></path>
<path fill="#50e6ff" d="M15.364 21.697c0 0 0 0.001 0 0.001 0 0.276 0.227 0.499 0.508 0.499 0 0 0 0 0 0h6.606c0 0 0 0 0 0 0.281 0 0.508-0.223 0.508-0.499 0-0 0-0.001 0-0.001v0-6.487c-0.001-0.275-0.228-0.497-0.508-0.497-0 0-0 0-0 0h-6.606c-0 0-0 0-0 0-0.28 0-0.507 0.222-0.508 0.497v6.487z"></path>
<path fill="#50e6ff" d="M9.141 22.36c0 0 0 0.001 0 0.001 0 0.276 0.227 0.499 0.508 0.499 0 0 0 0 0 0h7.342c0 0 0 0 0 0 0.281 0 0.508-0.223 0.508-0.499 0-0 0-0.001 0-0.001v0-7.21c0-0 0-0.001 0-0.001 0-0.276-0.227-0.499-0.508-0.499-0 0-0 0-0 0h-7.342c0 0-0 0-0 0-0.281 0-0.508 0.223-0.508 0.499 0 0 0 0.001 0 0.001v-0 7.21z"></path>
<path fill="#fff" d="M16.248 16.93c0 0.138 0.114 0.249 0.254 0.249l5.644 0.001c0.14 0 0.254-0.112 0.254-0.249v0l0.001-0.912c0-0.138-0.114-0.249-0.254-0.249l-5.647-0.001c-0.14 0-0.254 0.112-0.254 0.249v0l0.001 0.912z"></path>
<path fill="#fff" opacity="0.8" d="M16.248 19.209c0 0.138 0.114 0.249 0.254 0.249l5.644 0.001c0.14 0 0.254-0.112 0.254-0.249v0l0.001-0.912c0-0.138-0.114-0.249-0.254-0.249l-5.647-0.001c-0.14 0-0.254 0.112-0.254 0.249v0l0.001 0.912z"></path>
<path fill="#fff" opacity="0.6" d="M16.248 21.489c0 0.138 0.114 0.249 0.254 0.249l5.644 0.001c0.14 0 0.254-0.112 0.254-0.249v0l0.001-0.912c0-0.138-0.114-0.249-0.254-0.249l-5.647-0.001c-0.14 0-0.254 0.112-0.254 0.249v0l0.001 0.912z"></path>
</svg>
