<!-- Generated by IcoMoon.io -->
<svg version="1.1" xmlns="http://www.w3.org/2000/svg" width="29" height="32" viewBox="0 0 29 32">
<title>Hunting</title>
<path fill="#0072c6" d="M14.584 8.315c-0.039-0.001-0.084-0.001-0.13-0.001-3.463 0-6.27 2.807-6.27 6.27s2.807 6.27 6.27 6.27c0.046 0 0.091-0 0.137-0.001l-0.007 0c3.406-0.073 6.14-2.852 6.14-6.269s-2.733-6.196-6.133-6.268l-0.007-0zM14.584 18.714c-2.244-0.071-4.035-1.907-4.035-4.161s1.792-4.090 4.029-4.161l0.007-0c2.243 0.071 4.035 1.907 4.035 4.161s-1.792 4.090-4.029 4.161l-0.007 0z"></path>
<path fill="#ae0d1a" d="M23.011 14.302h-8.147v-8.144c0-0 0-0 0-0.001 0-0.155-0.126-0.281-0.281-0.281s-0.281 0.126-0.281 0.281c0 0 0 0 0 0.001v-0l-0 8.144h-8.147c-0 0-0 0-0.001 0-0.155 0-0.281 0.126-0.281 0.281s0.126 0.281 0.281 0.281c0 0 0 0 0.001 0l8.147 0v8.147c0 0 0 0 0 0.001 0 0.155 0.126 0.281 0.281 0.281s0.281-0.126 0.281-0.281c0-0 0-0 0-0.001v0l0-8.147h8.147c0 0 0 0 0.001 0 0.155 0 0.281-0.126 0.281-0.281s-0.126-0.281-0.281-0.281c-0 0-0 0-0.001 0h0z"></path>
</svg>
