<!-- Generated by IcoMoon.io -->
<svg version="1.1" xmlns="http://www.w3.org/2000/svg" width="26" height="32" viewBox="0 0 26 32">
<title>Identity-Governance</title>
<path fill="#e5e5e5" d="M18.925 19.026c-1.506 1.524-3.592 2.468-5.896 2.468-0.009 0-0.018 0-0.026-0h0.001c-0.006 0-0.013 0-0.021 0-2.305 0-4.39-0.943-5.897-2.468l-0-0c-1.58-1.59-2.451-3.707-2.451-5.958s0.872-4.368 2.451-5.958c1.58-1.593 3.684-2.468 5.918-2.468 2.237 0 4.338 0.875 5.921 2.468 1.514 1.516 2.451 3.615 2.451 5.935 0 0.008 0 0.016-0 0.024v-0.001c0 0.006 0 0.014 0 0.022 0 2.32-0.937 4.419-2.451 5.936l-0 0z"></path>
<path fill="#fff" opacity="0.5" d="M7.086 19.027c-1.58-1.59-2.451-3.707-2.451-5.958s0.872-4.368 2.451-5.958c1.58-1.593 3.684-2.468 5.918-2.468 2.237 0 4.338 0.875 5.921 2.468l-11.839 11.915z"></path>
<path fill="#2999c6" d="M5.76 15.987c-0.357-0.866-0.565-1.871-0.565-2.925 0-1.786 0.595-3.432 1.597-4.747l-0.014 0.019c-0.173-0.121-0.323-0.26-0.451-0.417l-0.003-0.004c-0.108-0.134-0.202-0.285-0.278-0.447l-0.006-0.014c-2.094 2.628-2.501 6.158-1.232 9.147 0.27-0.249 0.585-0.454 0.93-0.603l0.022-0.008zM9.771 4.7c0.264 0.271 0.482 0.588 0.643 0.938l0.009 0.021c0.768-0.283 1.655-0.448 2.58-0.451h0.001c1.67 0 3.256 0.531 4.579 1.499 0.144-0.293 0.34-0.538 0.577-0.735l0.004-0.003c0.053-0.043 0.107-0.080 0.164-0.12-2.501-1.87-5.747-2.248-8.556-1.149zM20.25 10.15c0.357 0.866 0.565 1.871 0.565 2.925 0 1.786-0.595 3.432-1.597 4.748l0.014-0.019c0.167 0.114 0.321 0.254 0.454 0.421 0.117 0.144 0.21 0.301 0.284 0.461 2.097-2.628 2.501-6.158 1.236-9.147-0.271 0.249-0.587 0.454-0.933 0.603l-0.022 0.008zM15.588 20.479c-0.768 0.283-1.655 0.448-2.58 0.451h-0.004c-0.002 0-0.005 0-0.007 0-1.718 0-3.305-0.563-4.589-1.515l0.021 0.015c-0.144 0.293-0.34 0.538-0.577 0.735l-0.004 0.003c-0.045 0.036-0.096 0.074-0.149 0.109l-0.008 0.005c2.501 1.87 5.744 2.251 8.553 1.155-0.265-0.271-0.485-0.588-0.646-0.938l-0.008-0.021z"></path>
<path fill="#2999c6" d="M8.962 5.482c0.397 0.402 0.643 0.956 0.643 1.568 0 0.614-0.247 1.169-0.646 1.571l0-0c-0.399 0.401-0.951 0.649-1.56 0.649s-1.16-0.248-1.56-0.649l0 0c-0.858-0.868-0.858-2.278 0.003-3.143s2.258-0.865 3.119 0v0.003z"></path>
<path fill="#fff" d="M8.166 7.82c0.195-0.197 0.316-0.468 0.316-0.769 0-0.601-0.484-1.088-1.081-1.088s-1.081 0.487-1.081 1.088c0 0.3 0.121 0.572 0.316 0.769v0c0.196 0.197 0.466 0.319 0.765 0.319s0.569-0.122 0.765-0.319l0-0z"></path>
<path fill="#2999c6" d="M17.423 5.479c0.399-0.4 0.95-0.647 1.558-0.647 0.61 0 1.162 0.249 1.561 0.651v0c0.398 0.402 0.644 0.957 0.644 1.57s-0.246 1.167-0.644 1.57l0-0c-0.399 0.401-0.951 0.649-1.56 0.649s-1.16-0.248-1.56-0.649l0 0c-0.398-0.402-0.644-0.957-0.644-1.57s0.246-1.168 0.644-1.57l-0 0v-0.003z"></path>
<path fill="#fff" d="M19.749 6.283c-0.196-0.199-0.467-0.321-0.767-0.321-0.597 0-1.081 0.487-1.081 1.088s0.484 1.088 1.081 1.088c0.298 0 0.568-0.122 0.764-0.318v0c0.196-0.197 0.317-0.469 0.317-0.77 0-0.299-0.12-0.57-0.314-0.766l0 0z"></path>
<path fill="#2999c6" d="M17.049 20.657c-0.399-0.402-0.646-0.958-0.646-1.571s0.247-1.169 0.646-1.571v0c0.399-0.4 0.95-0.647 1.558-0.647 0.61 0 1.162 0.249 1.561 0.651l-0-0c0.862 0.865 0.862 2.274 0 3.139s-2.258 0.865-3.119 0v0z"></path>
<path fill="#fff" d="M17.845 18.318c-0.195 0.197-0.316 0.468-0.316 0.769 0 0.601 0.484 1.088 1.081 1.088s1.081-0.487 1.081-1.088c0-0.3-0.121-0.572-0.316-0.769v0h-0.003c-0.195-0.196-0.465-0.318-0.763-0.318s-0.568 0.121-0.763 0.318l0-0z"></path>
<path fill="#2999c6" d="M8.587 20.657c-0.399 0.401-0.951 0.649-1.56 0.649s-1.16-0.248-1.56-0.649l0 0c-0.399-0.402-0.646-0.958-0.646-1.571s0.247-1.169 0.646-1.571l-0 0c0.862-0.865 2.261-0.865 3.119 0.003 0.862 0.865 0.858 2.274 0 3.139v0z"></path>
<path fill="#fff" d="M6.264 19.855c0.196 0.198 0.466 0.32 0.765 0.32 0.597 0 1.081-0.487 1.081-1.088s-0.484-1.088-1.081-1.088c-0.299 0-0.57 0.122-0.765 0.32l-0 0c-0.195 0.197-0.315 0.468-0.315 0.768s0.12 0.571 0.315 0.768l-0-0zM11.885 11.94l1.119 3.386 1.122-3.386h-2.241z"></path>
<path fill="#804998" d="M16.752 15.993c-0.214-1.91-1.095-3.513-2.625-4.054l-1.122 3.386-1.122-3.386c-1.493 0.508-2.441 1.95-2.628 4.061-0.037 0.414 0.23 0.785 0.601 0.828 0.020 0 0.043 0.003 0.067 0.003h6.165c0.367 0 0.668-0.334 0.668-0.748 0-0.030 0-0.060-0.003-0.090z"></path>
<path fill="#804998" d="M15.21 10.060c0 1.226-0.987 2.219-2.205 2.219s-2.205-0.994-2.205-2.219c0-1.226 0.987-2.219 2.205-2.219s2.205 0.994 2.205 2.219z"></path>
</svg>
