<!-- Generated by IcoMoon.io -->
<svg version="1.1" xmlns="http://www.w3.org/2000/svg" width="29" height="32" viewBox="0 0 29 32">
<title>Identity-And-Access</title>
<path fill="#7ac3e2" d="M11.706 13.997c0 0 0 0 0.001 0 1.923 0 3.483-1.571 3.483-3.508v-0.043c-0.059-1.906-1.607-3.429-3.508-3.429-1.925 0-3.489 1.562-3.509 3.497l-0 0.002v0.003c0.018 1.924 1.57 3.478 3.483 3.478 0 0 0.001 0 0.001 0h0.049zM16.468 18.498c-0.251-0.261-0.406-0.617-0.406-1.009s0.155-0.748 0.406-1.010l-0 0 1.217-1.21v-0.525h-3.484l-2.433 3.266-2.409-3.266h-3.484v8.546h11.809v-3.57l-1.217-1.223z"></path>
<path fill="#fbd118" d="M11.58 17.331c0.19-0.203 0.31-0.476 0.31-0.777 0-0.304-0.12-0.578-0.31-0.78v0l-1.926-1.938c-0.2-0.194-0.473-0.31-0.771-0.31-0.301 0-0.574 0.117-0.774 0.31v0l-1.923 1.938c-0.194 0.203-0.31 0.476-0.31 0.78 0 0.301 0.117 0.574 0.31 0.777v0l1.659 1.671v3.263l1.017 1.026 0.872-0.876 0.531-0.531-0.553-0.531 0.531-0.528-0.492-0.492 0.544-0.55-0.528-0.528v-0.151l1.813-1.773zM8.901 14.292c0 0 0 0 0.001 0 0.353 0 0.64 0.289 0.64 0.645s-0.287 0.645-0.64 0.645c-0.346 0-0.628-0.276-0.64-0.622l-0-0.001v-0.006c0-0.359 0.283-0.651 0.639-0.661v0z"></path>
<path fill="#f78c1e" opacity="0.4" d="M19.738 22.117l0.415 0.375v-3.112l-0.415-0.19v2.928z"></path>
<path fill="#fff" opacity="0.5" d="M18.419 16.189h3.619v0.531h-3.619v-0.531zM18.419 17.025h3.619v0.528h-3.619v-0.528z"></path>
<path fill="#5bb4da" d="M15.020 10.357c0.104-0.321 0.164-0.69 0.164-1.073 0-1.566-1.003-2.896-2.397-3.374l-0.025-0.007-0.025-0.006-1.253 6.912h0.267c0.001 0 0.001 0 0.002 0 1.526 0 2.818-1.010 3.254-2.403l0.007-0.024 0.006-0.025zM16.47 17.309c-0.251-0.261-0.406-0.617-0.406-1.009s0.155-0.748 0.406-1.010l-0 0h-0.003l1.164-1.149v-0.587h-3.484l-2.433 3.266-0.74-1.038-1.115 6.245 7.751 0.074v-3.634l-1.14-1.158z"></path>
</svg>
