<!-- Generated by IcoMoon.io -->
<svg version="1.1" xmlns="http://www.w3.org/2000/svg" width="31" height="32" viewBox="0 0 31 32">
<title>Import-Export-Job</title>
<path fill="#000" d="M19.874 12.497c-0.097-2.092-1.808-3.752-3.903-3.752-0.052 0-0.103 0.001-0.155 0.003l0.007-0c-0.022-0-0.047-0.001-0.073-0.001-1.712 0-3.174 1.079-3.748 2.598l-0.009 0.028c-1.8 0.226-3.187 1.726-3.247 3.564l-0 0.006c0.082 2.020 1.731 3.626 3.752 3.626 0.046 0 0.091-0.001 0.137-0.002l-0.007 0h2.485v2.242c0 0.061-0.049 0.111-0.11 0.111l-1.246-0.001c-0.059 0.002-0.107 0.051-0.107 0.111 0 0.030 0.012 0.057 0.031 0.077l-0-0 2.093 2.105c0.029 0.027 0.068 0.044 0.11 0.044s0.081-0.017 0.11-0.044l-0 0 2.093-2.106c0.019-0.020 0.031-0.047 0.031-0.077 0-0.060-0.048-0.109-0.107-0.111l-1.255 0.001c-0 0-0 0-0 0-0.056 0-0.102-0.046-0.102-0.102 0-0.003 0-0.006 0-0.009l-0 0-0.001-2.259h2.595c0.025 0.004 0.055 0.007 0.084 0.007s0.059-0.002 0.088-0.007l-0.003 0c1.683-0.008 3.051-1.351 3.111-3.029l0-0.006c-0.032-1.536-1.165-2.796-2.637-3.015l-0.017-0.002z"></path>
<path fill="#fff" d="M12.136 15.378l2.093-2.096c0.027-0.032 0.066-0.052 0.11-0.052s0.084 0.020 0.11 0.051l0 0 2.093 2.096c0.020 0.020 0.032 0.048 0.032 0.078 0 0.055-0.039 0.1-0.091 0.109l-0.001 0-1.264-0.001c-0.061 0-0.11 0.050-0.11 0.111v0l0 2.873h-1.533v-2.871c0-0.061-0.049-0.111-0.11-0.111v0l-1.22-0.002c-0.011 0.004-0.024 0.007-0.038 0.007-0.061 0-0.11-0.050-0.11-0.111 0-0.033 0.014-0.063 0.037-0.083l0-0z"></path>
</svg>
