<!-- Generated by IcoMoon.io -->
<svg version="1.1" xmlns="http://www.w3.org/2000/svg" width="31" height="32" viewBox="0 0 31 32">
<title>Incident</title>
<path fill="#fff" opacity="0.75" d="M16.812 12.44h-3.199c-0.34 0-0.545 0.281-0.545 0.559v1.749c0 0.35 0.274 0.562 0.545 0.562h3.199c0.34 0 0.545-0.281 0.545-0.562v-1.749c0-0.278-0.274-0.559-0.545-0.559z"></path>
<path fill="#0072c6" d="M20.419 10.063h-1.499v-2.519c0-0.42-0.271-0.701-0.68-0.701h-5.989c-0.409 0-0.68 0.281-0.68 0.701v2.519h-1.499v-2.169c0-1.26 0.885-2.311 2.179-2.45h5.989c1.225 0.139 2.179 1.19 2.179 2.45v2.169z"></path>
<path fill="#bcbcbc" opacity="0.61" d="M24.91 12.861h-19.465v0.909h19.465v-0.909z"></path>
<path fill="#0072c6" d="M5.445 22.166v-12.591c0-0.701 0.614-1.332 1.294-1.332h17.151c0.001 0 0.003 0 0.005 0 0.674 0 1.22 0.561 1.22 1.254 0 0.002 0 0.004 0 0.006v-0 12.664h-19.67z"></path>
<path fill="#1185db" d="M11.298 22.166h-5.853v-12.591c0-0.701 0.614-1.332 1.294-1.332h10.687l-6.127 13.924z"></path>
<path fill="#fff" d="M5.445 12.232h19.67v0.909h-19.67v-0.909z"></path>
<path fill="#fff" d="M17.083 12.44h-3.674c-0.34 0-0.545 0.281-0.545 0.559v1.749c0 0.35 0.274 0.562 0.545 0.562h3.674c0.34 0 0.545-0.281 0.545-0.562v-1.749c0-0.278-0.271-0.559-0.545-0.559z"></path>
</svg>
