<!-- Generated by IcoMoon.io -->
<svg version="1.1" xmlns="http://www.w3.org/2000/svg" width="27" height="32" viewBox="0 0 27 32">
<title>Integration-Service-Environment</title>
<path fill="#0072c6" d="M22.675 13.351c0 5.15-4.175 9.325-9.325 9.325s-9.325-4.175-9.325-9.325c0-5.15 4.175-9.325 9.325-9.325s9.325 4.175 9.325 9.325z"></path>
<path fill="#fff" opacity="0.8" d="M21.544 13.351c0 4.525-3.668 8.193-8.193 8.193s-8.193-3.668-8.193-8.193c0-4.525 3.668-8.193 8.193-8.193s8.193 3.668 8.193 8.193z"></path>
<path fill="#3999c6" d="M13.701 11.556v-1.951h-0.974v1.951c0 0.352-0.313 0.664-0.819 0.819l-1.326 0.273c-0.898 0.273-1.523 0.977-1.523 1.757v2.224h0.977v-2.224c0-0.352 0.309-0.664 0.819-0.819l1.326-0.313c0.898-0.234 1.52-0.938 1.52-1.717z"></path>
<path fill="#3999c6" d="M13 11.556v-1.951h0.977v1.951c0 0.352 0.309 0.664 0.819 0.819l1.326 0.273c0.898 0.273 1.52 0.977 1.52 1.757v2.224h-0.974v-2.224c0-0.352-0.313-0.664-0.819-0.819l-1.326-0.313c-0.898-0.234-1.523-0.938-1.523-1.717z"></path>
<path fill="#57a300" d="M11.244 17.642v-1.796c0-0.428-0.352-0.78-0.78-0.78h-1.796c-0.428 0-0.78 0.352-0.78 0.78v1.796c0 0.428 0.352 0.78 0.78 0.78h1.796c0.428 0 0.78-0.352 0.78-0.78zM15.458 17.721v-1.796c0-0.428 0.352-0.78 0.78-0.78h1.796c0.428 0 0.78 0.352 0.78 0.78v1.796c0 0.428-0.352 0.78-0.78 0.78h-1.796c-0.428 0-0.78-0.352-0.78-0.78z"></path>
<path fill="#804998" d="M14.127 7.893v1.553h-1.553v-1.553h1.553zM14.463 6.719h-2.224c-0.461 0-0.839 0.378-0.839 0.839v2.224c0 0.461 0.378 0.839 0.839 0.839h2.224c0.461 0 0.839-0.378 0.839-0.839v-2.224c0-0.461-0.378-0.839-0.839-0.839z"></path>
<path fill="#fff" d="M12.571 7.889h1.561v1.561h-1.561v-1.561z"></path>
</svg>
