<!-- Generated by IcoMoon.io -->
<svg version="1.1" xmlns="http://www.w3.org/2000/svg" width="32" height="32" viewBox="0 0 32 32">
<title>Internet-Analyzer-Profile</title>
<path fill="#000" d="M22.605 15.967c-0.048-1.518-1.187-2.755-2.655-2.957l-0.016-0.002c-0.091-2.071-1.791-3.715-3.876-3.715-0.043 0-0.086 0.001-0.128 0.002l0.006-0c-0.022-0-0.048-0.001-0.073-0.001-1.701 0-3.153 1.067-3.723 2.568l-0.009 0.027c-1.793 0.223-3.176 1.709-3.233 3.531l-0 0.006c0.079 1.998 1.718 3.587 3.727 3.587 0.046 0 0.093-0.001 0.139-0.003l-0.007 0c0.115 0 0.228-0.005 0.341-0.013h6.249c0.058-0.002 0.114-0.011 0.166-0.027l-0.004 0.001c1.675-0.009 3.036-1.338 3.097-3l0-0.006z"></path>
<path fill="#fff" d="M17.147 13.882c0 0.588-0.477 1.065-1.065 1.065s-1.065-0.477-1.065-1.065c0-0.588 0.477-1.065 1.065-1.065s1.065 0.477 1.065 1.065z"></path>
<path fill="#fff" d="M19.839 14.948c0 0.474-0.383 0.858-0.854 0.858s-0.854-0.384-0.854-0.858c0-0.474 0.383-0.858 0.854-0.858s0.854 0.384 0.854 0.858z"></path>
<path fill="#fff" d="M17.743 11.648c0 0.329-0.267 0.597-0.596 0.597s-0.596-0.267-0.596-0.597c0-0.329 0.267-0.597 0.596-0.597s0.596 0.267 0.596 0.597z"></path>
<path fill="#50e6ff" d="M22.824 22.708h-7.032c-0.226 0-0.357-0.357-0.231-0.541l2.425-3.531c0.032-0.045 0.051-0.101 0.051-0.162v-2.335c-0-0.077-0.063-0.139-0.14-0.139-0 0-0.001 0-0.001 0h0l-0.131 0c-0.153-0.001-0.277-0.124-0.277-0.277v-0.126c0-0.001 0-0.001 0-0.002 0-0.153 0.124-0.278 0.277-0.278h3.085c0.153 0.001 0.277 0.125 0.277 0.278 0 0.001 0 0.001 0 0.002v-0 0.123c0 0.001 0 0.001 0 0.002 0 0.153-0.124 0.278-0.277 0.278h-0.131c-0.077 0-0.139 0.062-0.139 0.139v0l0 2.34c-0 0.002-0 0.004-0 0.006 0 0.058 0.018 0.113 0.049 0.157l-0.001-0.001 2.425 3.526c0.126 0.18-0.008 0.541-0.231 0.541z"></path>
<path fill="#fff" d="M16.602 21.761l1.843-2.682c0.074-0.106 0.118-0.238 0.118-0.379 0-0.001 0-0.002 0-0.003v0-1.080c0-0.118 0.096-0.214 0.214-0.214v0l1.043 0.001c0.118 0 0.214 0.096 0.214 0.214v0l-0.001 1.154c0 0.096 0.031 0.185 0.083 0.258l-0.001-0.001 1.879 2.733c0.017 0.025 0.027 0.056 0.027 0.090 0 0.088-0.071 0.16-0.159 0.162l-5.127 0c-0.088-0.002-0.159-0.073-0.159-0.162 0-0.033 0.010-0.065 0.028-0.090l-0 0.001z"></path>
<path fill="#86d633" d="M18.385 20.878l0.372 0.865c0.008 0.020 0.027 0.033 0.049 0.033 0.024 0 0.044-0.015 0.051-0.037l0-0 0.392-1.159c0.007-0.022 0.027-0.038 0.051-0.038 0.021 0 0.039 0.012 0.048 0.029l0 0 0.317 0.606c0.010 0.016 0.027 0.027 0.047 0.027s0.037-0.011 0.047-0.027l0-0 0.427-0.719c0.009-0.016 0.027-0.027 0.046-0.027 0 0 0 0 0.001 0h-0l0.854 0.001-0.174-0.252c-0.010-0.014-0.026-0.023-0.044-0.023-0 0-0 0-0 0v0l-0.792 0c-0 0-0 0-0.001 0-0.019 0-0.037 0.010-0.046 0.026l-0 0-0.253 0.428c-0.009 0.017-0.027 0.028-0.047 0.028s-0.038-0.011-0.047-0.028l-0-0-0.389-0.739c-0.009-0.018-0.027-0.029-0.048-0.029-0.024 0-0.044 0.016-0.051 0.037l-0 0-0.366 1.090c-0.007 0.022-0.027 0.037-0.051 0.037-0.022 0-0.041-0.014-0.049-0.033l-0-0-0.313-0.728c-0.009-0.018-0.027-0.030-0.048-0.030s-0.039 0.012-0.048 0.030l-0 0-0.443 0.808c-0.009 0.017-0.027 0.027-0.047 0.027-0 0-0 0-0.001 0h0l-0.727 0.001c-0.018 0-0.035 0.009-0.044 0.023l-0 0-0.174 0.251h1.106c0 0 0 0 0.001 0 0.020 0 0.038-0.011 0.047-0.027l0-0 0.25-0.458c0.009-0.018 0.027-0.029 0.048-0.029s0.040 0.013 0.048 0.031l0 0z"></path>
</svg>
