<!-- Generated by IcoMoon.io -->
<svg version="1.1" xmlns="http://www.w3.org/2000/svg" width="34" height="32" viewBox="0 0 34 32">
<title>Intune</title>
<path fill="#000" d="M9.131 17.614c0 0 0 0 0 0 0 0.245 0.201 0.444 0.449 0.444 0 0 0 0 0 0h12.668c0 0 0 0 0 0 0.248 0 0.449-0.199 0.449-0.444 0-0 0-0 0-0.001v0-8.040c0-0 0-0 0-0.001 0-0.245-0.201-0.444-0.449-0.444-0 0-0 0-0 0h-12.668c-0 0-0 0-0 0-0.248 0-0.449 0.199-0.449 0.444 0 0 0 0 0 0.001v-0 8.040z"></path>
<path fill="#fff" d="M9.886 17.074c0 0.137 0.113 0.248 0.252 0.248l11.555-0.001c0.139 0 0.252-0.111 0.252-0.248v0l-0.001-6.948c0-0.137-0.113-0.248-0.252-0.248l-11.555 0.001c-0.139 0-0.252 0.111-0.252 0.248v0l0.001 6.948z"></path>
<path fill="#000" d="M18.635 20.765c-1.346-0.205-1.4-1.163-1.392-2.663h-2.695c0 1.545-0.054 2.504-1.392 2.663-0.373 0.057-0.656 0.367-0.665 0.745l-0 0.001h6.774c-0.009-0.367-0.274-0.671-0.625-0.745l-0.005-0.001z"></path>
<path fill="#32bedd" d="M19.422 13.257h-6.182c-0.2-0.943-1.034-1.641-2.034-1.641-1.146 0-2.075 0.918-2.075 2.050s0.929 2.050 2.075 2.050c1 0 1.834-0.698 2.031-1.627l0.002-0.013h0.638v8.5c0 0 0 0 0 0.001 0 0.162 0.133 0.293 0.296 0.293h5.24c0.164-0 0.296-0.131 0.296-0.293 0-0 0-0 0-0.001v0-9.025c0-0 0-0 0-0.001 0-0.159-0.128-0.288-0.288-0.293h-0z"></path>
<path fill="#fff" d="M19.122 21.681c0 0.059 0.048 0.107 0.108 0.107l4.518-0.002c0.060 0 0.108-0.048 0.108-0.107v0l0.003-7.508c0-0.059-0.048-0.107-0.108-0.107l-4.521 0.002c-0.060 0-0.108 0.048-0.108 0.107v0l0 7.508z"></path>
<path fill="#000" d="M17.226 13.702c0 0.716-0.587 1.296-1.312 1.296s-1.312-0.58-1.312-1.296c0-0.716 0.587-1.296 1.312-1.296s1.312 0.58 1.312 1.296z"></path>
<path fill="#0078d4" d="M22.051 17.614l-1.007-0.994c-0.010-0.009-0.022-0.014-0.036-0.014-0.030 0-0.054 0.024-0.054 0.053 0 0.002 0 0.003 0 0.005l-0-0 0.001 0.605c0 0.029-0.024 0.053-0.054 0.053v0l-2.337-0.002v0.738h2.337c0.030 0 0.054 0.024 0.054 0.053v0l-0 0.612c0.010 0.014 0.026 0.024 0.045 0.024s0.035-0.009 0.045-0.024l0-0 1.006-0.948c0.022-0.020 0.037-0.048 0.037-0.080s-0.014-0.060-0.036-0.080l-0-0z"></path>
</svg>
