<!-- Generated by IcoMoon.io -->
<svg version="1.1" xmlns="http://www.w3.org/2000/svg" width="34" height="32" viewBox="0 0 34 32">
<title>Intune-Device-Enrolment</title>
<path fill="#0078d4" d="M8.791 18.986c0 0.3 0.239 0.543 0.534 0.543 0 0 0 0 0 0h13.779c0 0 0 0 0 0 0.295 0 0.534-0.243 0.534-0.543v0-9.653c-0-0.3-0.239-0.543-0.534-0.543-0 0-0 0-0 0h-13.779c-0 0-0 0-0 0-0.295 0-0.534 0.243-0.534 0.543v0 9.653z"></path>
<path fill="#000" d="M9.654 18.407c0 0.15 0.12 0.271 0.267 0.271l12.585-0c0.147 0 0.267-0.122 0.267-0.271v0l0.001-8.594c0-0.15-0.12-0.271-0.267-0.271l-12.588 0c-0.147 0-0.267 0.121-0.267 0.271v0l0.001 8.594z"></path>
<path fill="#000" d="M17.958 22.939c0 0.15 0.12 0.271 0.267 0.271l6.32-0c0.147 0 0.267-0.122 0.267-0.271v0l-0.001-11.080c0-0.15-0.12-0.271-0.267-0.271l-6.32 0c-0.147 0-0.267 0.121-0.267 0.271v0l0.001 11.080z"></path>
<path fill="#f2f2f2" d="M20.602 12.093c0 0.055 0.044 0.1 0.098 0.1l1.38-0.001c0.054 0 0.098-0.045 0.098-0.1v0l-0.002-0.019c0-0.055-0.044-0.1-0.098-0.1l-1.377 0.001c-0.054 0-0.098 0.045-0.098 0.1v0l-0.001 0.019z"></path>
<path fill="#f2f2f2" d="M15.448 9.244c0 0.055 0.044 0.1 0.098 0.1l1.38-0.001c0.054 0 0.098-0.045 0.098-0.1v0l-0.002-0.019c0-0.055-0.044-0.1-0.098-0.1l-1.377 0.001c-0.054 0-0.098 0.045-0.098 0.1v0l-0.001 0.019z"></path>
<path fill="#f2f2f2" d="M21.002 22.776c0 0.1 0.080 0.181 0.178 0.181l0.41-0c0.098 0 0.178-0.081 0.178-0.181v0l0-0.299c0-0.1-0.080-0.181-0.178-0.181l-0.41 0c-0.098 0-0.178 0.081-0.178 0.181v0l-0 0.299z"></path>
<path fill="#000" d="M18.608 21.777c0 0.072 0.057 0.13 0.128 0.13l5.287 0c0.070 0 0.128-0.058 0.128-0.13v0l-0-9.049c0-0.072-0.057-0.13-0.128-0.13l-5.287-0c-0.070 0-0.128 0.058-0.128 0.13v0l0 9.049z"></path>
<path fill="#76bc2d" d="M11.797 19.39c0 2.093 1.67 3.79 3.729 3.79 0 0 0.001 0 0.001 0h0.034c0 0 0.001 0 0.001 0 2.059 0 3.729-1.697 3.729-3.79v-0.037c-0-2.093-1.67-3.79-3.729-3.79-0 0-0.001 0-0.001 0h-0.034c-0 0-0.001 0-0.001 0-2.059 0-3.729 1.697-3.729 3.789v0.037z"></path>
<path fill="#fff" d="M17.797 18.873h-1.78v-1.809c-0.027-0.205-0.195-0.363-0.401-0.37l-0.001-0h-0.141c-0.231 0-0.418 0.19-0.418 0.424v1.809h-1.78c-0.227 0.005-0.41 0.193-0.41 0.425 0 0.001 0 0.001 0 0.002v-0 0.054c0.001 0.231 0.183 0.419 0.409 0.424h1.781v1.811c0.005 0.231 0.191 0.415 0.418 0.415 0 0 0 0 0 0h0.141c0 0 0 0 0 0 0.228 0 0.413-0.185 0.418-0.415v-1.812h1.78c0.231-0 0.418-0.19 0.418-0.424v-0.144c-0.018-0.219-0.198-0.39-0.417-0.39-0.006 0-0.013 0-0.019 0l0.001-0z"></path>
</svg>
