<!-- Generated by IcoMoon.io -->
<svg version="1.1" xmlns="http://www.w3.org/2000/svg" width="34" height="32" viewBox="0 0 34 32">
<title>Intune-Device</title>
<path fill="#0078d4" d="M8.775 18.992c0 0.3 0.24 0.544 0.535 0.544 0 0 0 0 0 0h13.808c0 0 0 0 0 0 0.296 0 0.535-0.243 0.535-0.544v0-9.674c-0-0.3-0.24-0.544-0.535-0.544-0 0-0 0-0 0h-13.808c-0 0-0 0-0 0-0.296 0-0.535 0.243-0.535 0.544v0 9.674z"></path>
<path fill="#000" d="M9.641 18.411c0 0.15 0.12 0.272 0.268 0.272l12.612-0c0.148 0 0.268-0.122 0.268-0.272v0l0.001-8.612c0-0.15-0.12-0.272-0.268-0.272l-12.615 0c-0.148 0-0.268 0.122-0.268 0.272v0l0.001 8.612z"></path>
<path fill="#000" d="M8.775 22.953c0 0.15 0.12 0.272 0.268 0.272l6.334-0c0.148 0 0.268-0.122 0.268-0.272v0l-0.001-11.104c0-0.15-0.12-0.272-0.268-0.272l-6.334 0c-0.148 0-0.268 0.122-0.268 0.272v0l0.001 11.104z"></path>
<path fill="#f2f2f2" d="M20.611 12.085c0 0.055 0.044 0.1 0.098 0.1l1.383-0.001c0.054 0 0.098-0.045 0.098-0.1v0l-0.002-0.019c0-0.055-0.044-0.1-0.098-0.1l-1.38 0.001c-0.054 0-0.098 0.045-0.098 0.1v0l-0.001 0.019z"></path>
<path fill="#f2f2f2" d="M15.447 9.229c0 0.055 0.044 0.1 0.098 0.1l1.383-0.001c0.054 0 0.098-0.045 0.098-0.1v0l-0.002-0.019c0-0.055-0.044-0.1-0.098-0.1l-1.38 0.001c-0.054 0-0.098 0.045-0.098 0.1v0l-0.001 0.019z"></path>
<path fill="#f2f2f2" d="M21.013 22.79c0 0.1 0.080 0.181 0.178 0.181l0.411-0c0.099 0 0.178-0.081 0.178-0.181v0l0-0.3c0-0.1-0.080-0.181-0.178-0.181l-0.411 0c-0.099 0-0.178 0.081-0.178 0.181v0l-0 0.3z"></path>
<path fill="#000" d="M18.613 21.789c0 0.072 0.057 0.13 0.128 0.13l5.32-0c0.071 0 0.128-0.058 0.128-0.13v0l-0.001-9.104c0-0.072-0.057-0.13-0.128-0.13l-5.32 0c-0.071 0-0.128 0.058-0.128 0.13v0l0.001 9.104z"></path>
</svg>
