<!-- Generated by IcoMoon.io -->
<svg version="1.1" xmlns="http://www.w3.org/2000/svg" width="28" height="32" viewBox="0 0 28 32">
<title>Intune-Software-Update</title>
<path fill="#0078d4" d="M2.319 16.247c0 0 0 0 0 0 0 0.391 0.346 0.707 0.773 0.707 0 0 0 0 0 0h21.641c0 0 0 0 0 0 0.427 0 0.773-0.317 0.773-0.707 0-0 0-0 0-0v0-13.686c0-0 0-0 0-0 0-0.391-0.346-0.707-0.773-0.707-0 0-0 0-0 0h-21.641c-0 0-0 0-0 0-0.427 0-0.773 0.317-0.773 0.707 0 0 0 0 0 0v-0 13.686z"></path>
<path fill="#000" d="M3.672 15.375c0 0.215 0.19 0.389 0.425 0.389l19.645-0c0.235 0 0.425-0.174 0.425-0.389v0l0-12.070c0-0.215-0.19-0.389-0.425-0.389l-19.645 0c-0.235 0-0.425 0.174-0.425 0.389v0l-0 12.070z"></path>
<path fill="#f2f2f2" d="M12.715 2.491c0 0.078 0.069 0.141 0.155 0.141l2.152 0.002c0.085 0 0.155-0.063 0.155-0.141v0l0.001-0.026c0-0.078-0.069-0.141-0.155-0.141v0l-2.152 0.002c-0.085 0-0.155 0.063-0.155 0.141v0l-0.001 0.022z"></path>
<path fill="#76bc2d" d="M24.335 15.432c0 2.747-2.434 4.974-5.436 4.974s-5.436-2.227-5.436-4.974c0-2.747 2.434-4.974 5.436-4.974s5.436 2.227 5.436 4.974z"></path>
<path fill="#fff" d="M15.652 14.667c-0.077 0.253-0.121 0.543-0.121 0.842 0 0.118 0.007 0.235 0.020 0.35l-0.001-0.014c0.071 0.443 0.234 0.84 0.471 1.191l-0.008-0.014c0.172 0.272 0.378 0.505 0.615 0.706l0.002 0.002c0.23 0.193 0.489 0.361 0.769 0.498l0.020 0.009c0.263 0.117 0.572 0.218 0.893 0.289l0.032 0.006c0.147 0.020 0.318 0.031 0.491 0.031s0.343-0.011 0.51-0.033l-0.019 0.002-0.090-0.859c0-0.091-0.081-0.165-0.18-0.165v0l-0.503-0.003c-0.234-0.047-0.44-0.116-0.632-0.207l0.014 0.006c-0.208-0.085-0.387-0.179-0.553-0.288l0.009 0.006c-0.162-0.133-0.298-0.288-0.404-0.461l-0.005-0.009c-0.156-0.226-0.266-0.493-0.31-0.779l-0.001-0.010c-0.028-0.126-0.044-0.271-0.044-0.419s0.016-0.293 0.046-0.433l-0.003 0.014 0.323 0.495c0.035 0.049 0.095 0.082 0.163 0.082 0.035 0 0.067-0.008 0.096-0.023l-0.001 0 0.397-0.21c0.054-0.032 0.089-0.087 0.089-0.149 0-0.032-0.009-0.062-0.025-0.088l0 0.001-1.083-1.674c-0.038-0.050-0.1-0.083-0.171-0.083-0.037 0-0.071 0.009-0.101 0.024l0.001-0.001-1.815 0.992c-0.033 0.030-0.054 0.072-0.054 0.118s0.021 0.088 0.054 0.118l0 0 0.221 0.353c0.033 0.057 0.097 0.096 0.172 0.096 0.037 0 0.071-0.009 0.1-0.025l-0.001 0 0.617-0.283z"></path>
<path fill="#fff" d="M19.454 13.345c0.236 0.053 0.442 0.122 0.637 0.208l-0.019-0.008c0.206 0.103 0.383 0.221 0.541 0.357l-0.001-0.001c0.167 0.134 0.308 0.289 0.42 0.462l0.005 0.009c0.149 0.227 0.254 0.494 0.297 0.778l0.001 0.011c0.028 0.126 0.044 0.271 0.044 0.419s-0.016 0.293-0.046 0.433l0.003-0.014-0.323-0.495c-0.034-0.054-0.097-0.091-0.169-0.091-0.032 0-0.063 0.007-0.090 0.020l0.001-0-0.389 0.21c-0.057 0.031-0.095 0.088-0.095 0.152 0 0.035 0.011 0.068 0.031 0.096l-0-0.001 1.071 1.663c0.037 0.055 0.102 0.091 0.177 0.091 0.034 0 0.067-0.008 0.095-0.021l-0.001 0 1.815-0.991c0.063-0.030 0.105-0.089 0.105-0.157 0-0.033-0.010-0.065-0.028-0.091l0 0.001-0.233-0.354c-0.038-0.050-0.1-0.083-0.171-0.083-0.037 0-0.071 0.009-0.101 0.024l0.001-0.001-0.629 0.341c0.084-0.257 0.133-0.552 0.133-0.858 0-0.146-0.011-0.29-0.033-0.431l0.002 0.016c-0.075-0.442-0.233-0.838-0.459-1.194l0.009 0.016c-0.182-0.263-0.386-0.491-0.616-0.694l-0.001-0.001c-0.476-0.422-1.081-0.725-1.756-0.855l-0.023-0.004c-0.118-0.014-0.254-0.022-0.393-0.022s-0.275 0.008-0.409 0.024l0.016-0.002c-0.095 0.005-0.169 0.077-0.169 0.165 0 0.008 0.001 0.017 0.002 0.025l-0-0.001-0 0.683c0.012 0.084 0.087 0.148 0.18 0.153l0.001 0c0.065-0.004 0.142-0.007 0.218-0.007 0.123 0 0.245 0.006 0.365 0.018l-0.015-0.001z"></path>
</svg>
