<!-- Generated by IcoMoon.io -->
<svg version="1.1" xmlns="http://www.w3.org/2000/svg" width="27" height="32" viewBox="0 0 27 32">
<title>Intune-Managed-Desktop</title>
<path fill="#000" d="M2.23 14.22c0 0 0 0 0 0 0 0.358 0.285 0.648 0.637 0.649h17.87c0.352-0.001 0.637-0.291 0.637-0.649 0-0 0-0 0-0v0-11.674c0-0 0-0 0-0 0-0.358-0.285-0.648-0.637-0.649h-17.87c-0.352 0.001-0.637 0.291-0.637 0.649 0 0 0 0 0 0v0 11.674z"></path>
<path fill="#fff" d="M3.294 13.434c0 0.197 0.157 0.357 0.351 0.357l16.315-0.003c0.194 0 0.351-0.16 0.351-0.357v0l-0.001-10.098c0-0.197-0.157-0.357-0.351-0.357l-16.315-0.001c-0.194 0-0.351 0.16-0.351 0.357v0l0.001 10.102z"></path>
<path fill="#000" d="M15.642 18.798c-1.892-0.303-1.967-1.687-1.959-3.926h-3.764c0 2.238-0.063 3.623-1.955 3.926-0.526 0.084-0.926 0.53-0.948 1.076l-0 0.002h9.574c-0.022-0.548-0.422-0.994-0.942-1.077l-0.006-0.001z"></path>
<path fill="#86d633" d="M11.352 10.936l-0.715 0.715c-0.12 0.12-0.317 0.119-0.44-0.004v0l-2.878-2.875c-0.122-0.122-0.124-0.319-0.004-0.44v0l0.499-0.495c0.12-0.12 0.317-0.119 0.44 0.004v0l3.098 3.095z"></path>
<path fill="#5e9624" d="M10.172 11.741l-0.715-0.715 6.6-6.6c0.122-0.122 0.319-0.124 0.44-0.004v0l0.489 0.493c0.12 0.12 0.119 0.317-0.004 0.44v0l-6.377 6.374c-0.122 0.122-0.319 0.124-0.44 0.004v0l0.006 0.008z"></path>
</svg>
