<!-- Generated by IcoMoon.io -->
<svg version="1.1" xmlns="http://www.w3.org/2000/svg" width="24" height="32" viewBox="0 0 24 32">
<title>Intune-Security-Baseline</title>
<path fill="#86d633" d="M16.005 9.789c0 4.484-5.57 8.093-6.777 8.823-0.065 0.044-0.145 0.070-0.231 0.070s-0.166-0.026-0.233-0.071l0.001 0.001c-1.21-0.73-6.766-4.339-6.766-8.823v-5.401c0.007-0.231 0.194-0.417 0.426-0.423h0.001c4.325-0.116 3.33-1.965 6.576-1.965s2.24 1.849 6.551 1.965c0.235 0.006 0.425 0.191 0.437 0.422l0 0.001 0.014 5.401z"></path>
<path fill="#000" d="M15.425 9.836c0 4.117-5.108 7.422-6.209 8.093-0.060 0.039-0.134 0.063-0.213 0.063s-0.153-0.023-0.215-0.064l0.001 0.001c-1.115-0.67-6.209-3.976-6.209-8.093v-4.897c0-0.214 0.175-0.388 0.391-0.388 0 0 0 0 0.001 0h-0c3.969-0.162 3.104-1.859 6.029-1.859 2.928 0 2.064 1.697 6.022 1.803 0.218 0 0.395 0.173 0.402 0.387v4.954z"></path>
<path fill="#9cebff" d="M8.788 11.586h12.774c0.007-0 0.015-0.001 0.023-0.001 0.222 0 0.403 0.173 0.414 0.391l0 0.001v9.634c-0.013 0.217-0.193 0.389-0.414 0.389-0.008 0-0.016-0-0.025-0.001l0.001 0h-12.774c-0.004 0-0.008 0-0.012 0-0.223 0-0.406-0.17-0.425-0.387l-0-0.002v-9.613c0.006-0.229 0.195-0.413 0.426-0.413 0.004 0 0.008 0 0.012 0h-0.001z"></path>
<path fill="#0078d4" d="M8.767 11.588h12.82c0.007-0 0.015-0.001 0.023-0.001 0.207 0 0.377 0.16 0.39 0.363l0 0.001v1.46h-13.649v-1.411c0.011-0.205 0.182-0.368 0.39-0.368 0.009 0 0.018 0 0.027 0.001l-0.001-0v-0.046z"></path>
<path fill="#0078d4" d="M20.14 17.189h-8.424c-0.191 0-0.332 0.092-0.332 0.187v0.508c0 0.106 0.141 0.187 0.332 0.187h8.424c0.191 0 0.342-0.081 0.342-0.187v-0.473c0-0.131-0.187-0.222-0.342-0.222z"></path>
<path fill="#0078d4" d="M20.14 15.070h-8.424c-0.191 0-0.332 0.081-0.332 0.187v0.462c0 0.106 0.141 0.187 0.332 0.187h8.424c0.191 0 0.342-0.081 0.342-0.187v-0.462c0-0.106-0.187-0.187-0.342-0.187z"></path>
<path fill="#0078d4" d="M20.14 19.577h-8.424c-0.191 0-0.332 0.081-0.332 0.187v0.473c0 0.106 0.141 0.187 0.332 0.187h8.424c0.191 0 0.342-0.081 0.342-0.187v-0.473c0-0.106-0.187-0.187-0.342-0.187z"></path>
<path fill="#0078d4" d="M10.543 15.482c0 0.305-0.249 0.553-0.557 0.553s-0.557-0.248-0.557-0.553c0-0.305 0.249-0.553 0.557-0.553s0.557 0.248 0.557 0.553z"></path>
<path fill="#0078d4" d="M10.543 17.612c0 0.305-0.249 0.553-0.557 0.553s-0.557-0.248-0.557-0.553c0-0.305 0.249-0.553 0.557-0.553s0.557 0.248 0.557 0.553z"></path>
<path fill="#0078d4" d="M10.543 20c0 0.305-0.249 0.553-0.557 0.553s-0.557-0.248-0.557-0.553c0-0.305 0.249-0.553 0.557-0.553s0.557 0.248 0.557 0.553z"></path>
</svg>
