<!-- Generated by IcoMoon.io -->
<svg version="1.1" xmlns="http://www.w3.org/2000/svg" width="31" height="32" viewBox="0 0 31 32">
<title>Intune-Device-Compliance</title>
<path fill="#000" d="M9.12 22.467c0 0.228 0.183 0.413 0.409 0.413 0 0 0.001 0 0.001 0h7.337c0 0 0.001 0 0.001 0 0.226 0 0.409-0.185 0.409-0.413v0-12.926c-0-0.228-0.183-0.413-0.409-0.413-0 0-0.001 0-0.001 0h-7.337c-0 0-0.001 0-0.001 0-0.226 0-0.409 0.185-0.409 0.413v0 12.926z"></path>
<path fill="#f2f2f2" d="M12.738 22.37c0 0.121 0.097 0.219 0.217 0.219l0.482-0c0.12 0 0.217-0.098 0.217-0.219v0l-0.001-0.347c0-0.121-0.097-0.219-0.217-0.219l-0.482 0c-0.12 0-0.217 0.098-0.217 0.219v0l0.001 0.347z"></path>
<path fill="#f2f2f2" d="M12.256 9.711c0 0.067 0.054 0.121 0.12 0.121l1.637-0c0.066 0 0.12-0.054 0.12-0.121v0l-0.001-0.007c0-0.067-0.054-0.121-0.12-0.121l-1.634 0c-0.066 0-0.12 0.054-0.12 0.121v0l-0.001 0.007z"></path>
<path fill="#000" d="M9.882 21.181c0 0.085 0.068 0.154 0.152 0.154l6.32-0.001c0.084 0 0.152-0.069 0.152-0.154v0l0-10.741c0-0.085-0.068-0.154-0.152-0.154l-6.32 0.001c-0.084 0-0.152 0.069-0.152 0.154v0l-0.001 10.741z"></path>
<path fill="#76bc2d" d="M15.473 22.654c0 0.125 0.101 0.227 0.225 0.227l5.583-0.001c0.124 0 0.225-0.101 0.225-0.227v0l-0.001-5.632c0-0.125-0.101-0.227-0.225-0.227l-5.581-0.002c-0.124 0-0.225 0.101-0.225 0.227v0l-0.001 5.635z"></path>
<path fill="#fff" d="M18.179 21.132l-0.347 0.349c-0.028 0.028-0.066 0.045-0.108 0.045s-0.080-0.017-0.108-0.045l-1.384-1.398c-0.028-0.028-0.045-0.066-0.045-0.109s0.017-0.081 0.045-0.109v0l0.245-0.246c0.028-0.028 0.066-0.045 0.108-0.045s0.080 0.017 0.108 0.045l1.491 1.505-0.005 0.007z"></path>
<path fill="#fff" d="M17.65 21.47l-0.347-0.349 3.177-3.204c0.028-0.028 0.066-0.045 0.108-0.045s0.080 0.017 0.108 0.045v0l0.243 0.245c0.028 0.028 0.045 0.066 0.045 0.109s-0.017 0.081-0.045 0.109l-3.068 3.098c-0.028 0.028-0.066 0.045-0.108 0.045s-0.080-0.017-0.108-0.045v0l-0.005-0.007z"></path>
</svg>
