<!-- Generated by IcoMoon.io -->
<svg version="1.1" xmlns="http://www.w3.org/2000/svg" width="18" height="32" viewBox="0 0 18 32">
<title>Intune-Exchange-On-Premises-Access</title>
<path fill="#000" d="M16.5 2.672v18.658c0 0.003 0 0.007 0 0.011 0 0.364-0.376 0.659-0.84 0.659h-13.307c-0.004 0-0.009 0-0.014 0-0.464 0-0.84-0.295-0.84-0.659 0-0.004 0-0.008 0-0.012v0.001-18.658c-0-0.003-0-0.007-0-0.012 0-0.364 0.376-0.659 0.84-0.659 0.005 0 0.010 0 0.015 0h13.292c0.004-0 0.009-0 0.014-0 0.464 0 0.84 0.295 0.84 0.659 0 0.004-0 0.008-0 0.012v-0.001z"></path>
<path fill="#f2f2f2" d="M3.496 4.083h2.505c0.116 0 0.21 0.074 0.21 0.165v0l-0.002 2.471c0 0.091-0.094 0.165-0.21 0.165l-2.503 0.001c-0 0-0 0-0.001 0-0.119 0-0.216-0.072-0.224-0.164l-0-0.001-0.001-2.471c0.008-0.092 0.106-0.165 0.224-0.165 0 0 0 0 0.001 0h-0zM7.786 4.083h2.431c0.116 0 0.21 0.074 0.21 0.165v0l-0.002 2.471c0 0.091-0.094 0.165-0.21 0.165v0l-2.429 0.001c-0.116 0-0.21-0.074-0.21-0.165v0l-0.002-2.471c0-0.091 0.094-0.165 0.21-0.165v0zM12.075 4.083h2.431c0 0 0 0 0.001 0 0.119 0 0.216 0.072 0.224 0.164l0 0.001 0.001 2.471c-0.008 0.092-0.105 0.165-0.225 0.165-0 0-0 0-0.001 0l-2.431 0.001c-0.116 0-0.21-0.074-0.21-0.165v0l-0.002-2.471c0-0.091 0.094-0.165 0.21-0.165v0zM3.496 8.563h2.505c0.116 0 0.21 0.074 0.21 0.165v0l-0.002 2.474c0 0 0 0 0 0 0 0.093-0.092 0.17-0.209 0.176l-0.001 0-2.503-0c-0.124 0-0.225-0.079-0.225-0.176v0l-0.001-2.473c0.008-0.092 0.106-0.165 0.224-0.165 0 0 0 0 0.001 0h-0zM7.786 8.563h2.431c0.116 0 0.21 0.074 0.21 0.165v0l-0.002 2.474c0 0 0 0 0 0 0 0.093-0.092 0.17-0.209 0.176l-0.001 0-2.429-0c-0.118-0.006-0.21-0.083-0.21-0.176 0-0 0-0 0-0v0l-0.002-2.473c0-0.091 0.094-0.165 0.21-0.165v0zM12.075 8.563h2.431c0 0 0 0 0.001 0 0.119 0 0.216 0.072 0.224 0.164l0 0.001 0.001 2.474c0 0.097-0.101 0.176-0.225 0.176l-2.431-0c-0.118-0.006-0.21-0.083-0.21-0.176 0-0 0-0 0-0v0l-0.002-2.473c0-0.091 0.094-0.165 0.21-0.165v0zM3.496 13.057h2.505c0.116 0 0.21 0.074 0.21 0.165v0l-0.002 2.471c0 0.091-0.094 0.165-0.21 0.165l-2.503 0.001c-0 0-0 0-0.001 0-0.119 0-0.216-0.072-0.224-0.164l-0-0.001-0.001-2.516c0.032-0.069 0.115-0.118 0.212-0.118 0.004 0 0.009 0 0.013 0l-0.001-0zM7.786 13.057h2.431c0.024-0.008 0.051-0.012 0.080-0.012 0.1 0 0.184 0.055 0.205 0.129l0 0.001-0.003 2.472c0 0.091-0.094 0.165-0.21 0.165v0l-2.503 0.001c-0.116 0-0.21-0.074-0.21-0.165v0l-0.002-2.471c0.027-0.069 0.107-0.118 0.201-0.118 0.003 0 0.006 0 0.009 0h-0zM7.786 17.541h2.431c0.116 0 0.21 0.074 0.21 0.165v0l-0.002 3.705c0 0.091-0.094 0.165-0.21 0.165v0l-2.429 0.001c-0.116 0-0.21-0.074-0.21-0.165v0l-0.002-3.705c0-0.091 0.094-0.165 0.21-0.165v0zM12.075 13.057h2.431c0 0 0 0 0.001 0 0.119 0 0.216 0.072 0.224 0.164l0 0.001 0.001 2.471c-0.008 0.092-0.105 0.165-0.225 0.165-0 0-0 0-0.001 0l-2.431 0.001c-0.116 0-0.21-0.074-0.21-0.165v0l-0.002-2.516c0.027-0.069 0.107-0.118 0.201-0.118 0.003 0 0.006 0 0.009 0h-0z"></path>
</svg>
