<!-- Generated by IcoMoon.io -->
<svg version="1.1" xmlns="http://www.w3.org/2000/svg" width="30" height="32" viewBox="0 0 30 32">
<title>Intune-Exchange-Access</title>
<path fill="#0078d4" d="M20.632 15.561c0 3.558-4.466 6.42-5.442 7.003-0.052 0.033-0.115 0.052-0.183 0.052s-0.131-0.019-0.185-0.053l0.001 0.001c-0.976-0.574-5.442-3.439-5.442-7.003v-4.279c0-0 0-0.001 0-0.001 0-0.186 0.152-0.338 0.34-0.342h0c3.481-0.086 2.678-1.557 5.283-1.557 2.608 0 1.805 1.471 5.285 1.557 0.189 0.005 0.341 0.156 0.341 0.342 0 0 0 0.001 0 0.001v-0 4.279z"></path>
<path fill="#000" d="M20.171 15.594c0 3.268-4.099 5.89-4.996 6.42-0.047 0.029-0.105 0.046-0.167 0.046s-0.119-0.017-0.168-0.047l0.001 0.001c-0.899-0.53-4.998-3.152-4.998-6.42v-3.892c-0.003-0.016-0.005-0.035-0.005-0.054 0-0.175 0.144-0.317 0.322-0.319h0c3.194-0.056 2.463-1.394 4.846-1.394s1.653 1.338 4.846 1.394c0.173 0.004 0.313 0.141 0.317 0.31v3.955z"></path>
<path fill="#ffbd02" d="M17.271 14.955h-0.317v-1.107c0-0.006 0-0.014 0-0.021 0-0.536-0.211-1.024-0.557-1.388l0.001 0.001c-0.345-0.365-0.837-0.593-1.383-0.593s-1.038 0.228-1.382 0.592l-0.001 0.001c-0.344 0.362-0.556 0.849-0.556 1.384 0 0.008 0 0.017 0 0.025v-0.001 1.107h-0.318c-0.007-0.001-0.016-0.001-0.024-0.001-0.14 0-0.254 0.111-0.254 0.249 0 0.006 0 0.011 0.001 0.017l-0-0.001v2.864c0 0 0 0.001 0 0.001 0 0.138 0.114 0.249 0.254 0.249 0.003 0 0.005-0 0.008-0h4.529c0.002 0 0.005 0 0.007 0 0.14 0 0.254-0.111 0.254-0.249 0-0 0-0.001 0-0.001v0-2.864c0-0.004 0-0.010 0-0.015 0-0.138-0.114-0.249-0.254-0.249-0.003 0-0.005 0-0.008 0h0zM16.041 14.955h-2.066v-1.121c0-0 0-0.001 0-0.001 0-0.303 0.124-0.578 0.325-0.779l-0 0c0.174-0.192 0.426-0.312 0.707-0.312s0.533 0.12 0.707 0.311l0.001 0.001c0.046 0.047 0.088 0.098 0.126 0.152l0.003 0.004c0.123 0.171 0.197 0.384 0.198 0.614v1.13z"></path>
<path fill="#ffe452" d="M12.742 14.954h4.529c0.065 0 0.124 0.024 0.168 0.063l-0-0-4.863 3.238c-0.056-0.045-0.092-0.111-0.096-0.186l-0-0.001v-2.848c-0-0.005-0.001-0.011-0.001-0.017 0-0.138 0.114-0.249 0.254-0.249 0.003 0 0.005 0 0.008 0h-0z"></path>
<path fill="#ffd400" opacity="0.5" d="M17.271 14.954h-4.529c-0.064 0.001-0.122 0.025-0.166 0.063l0-0 4.863 3.238c0.058-0.043 0.096-0.111 0.096-0.187v-2.848c0-0.005 0.001-0.011 0.001-0.017 0-0.138-0.114-0.249-0.254-0.249-0.004 0-0.007 0-0.011 0l0-0z"></path>
</svg>
