<!-- Generated by IcoMoon.io -->
<svg version="1.1" xmlns="http://www.w3.org/2000/svg" width="34" height="32" viewBox="0 0 34 32">
<title>Intune-App-Protection</title>
<path fill="#000" d="M8.75 17.704c0 0 0 0 0 0.001 0 0.259 0.212 0.468 0.474 0.468 0 0 0 0 0 0h13.371c0 0 0 0 0 0 0.262 0 0.474-0.21 0.474-0.468 0-0 0-0 0-0.001v0-8.486c0-0 0-0 0-0.001 0-0.259-0.212-0.468-0.474-0.468-0 0-0 0-0 0h-13.371c-0 0-0 0-0 0-0.262 0-0.474 0.21-0.474 0.468 0 0 0 0 0 0.001v-0 8.486z"></path>
<path fill="#fff" d="M9.546 17.134c0 0.145 0.119 0.262 0.266 0.262l12.196-0.001c0.147 0 0.266-0.117 0.266-0.262v0l-0.001-7.334c0-0.145-0.119-0.262-0.266-0.262l-12.196 0.001c-0.147 0-0.266 0.117-0.266 0.262v0l0.001 7.334z"></path>
<path fill="#000" d="M18.782 21.029c-1.421-0.216-1.478-1.228-1.469-2.811h-2.845c0 1.631-0.057 2.643-1.469 2.811-0.393 0.060-0.692 0.388-0.702 0.786l-0 0.001h7.15c-0.010-0.388-0.289-0.708-0.66-0.786l-0.005-0.001z"></path>
<path fill="#32bedd" d="M19.611 13.104h-6.525c-0.211-0.995-1.091-1.732-2.146-1.732-1.21 0-2.191 0.969-2.191 2.164s0.981 2.164 2.191 2.164c1.055 0 1.936-0.737 2.144-1.718l0.002-0.014h0.674v8.972c0 0 0 0 0 0.001 0 0.171 0.14 0.309 0.313 0.309h5.53c0.173-0 0.313-0.139 0.313-0.309 0-0 0-0 0-0.001v0-9.526c0-0 0-0.001 0-0.001 0-0.168-0.135-0.304-0.304-0.309h-0z"></path>
<path fill="#fff" d="M19.295 21.996c0 0.062 0.051 0.112 0.114 0.112l4.769-0.002c0.063 0 0.114-0.050 0.114-0.112v0l0.003-7.924c0-0.062-0.051-0.112-0.114-0.112l-4.771 0.002c-0.063 0-0.114 0.050-0.114 0.112v0l0 7.924z"></path>
<path fill="#000" d="M17.294 13.574c0 0.755-0.62 1.368-1.384 1.368s-1.384-0.612-1.384-1.368c0-0.755 0.62-1.368 1.384-1.368s1.384 0.612 1.384 1.368z"></path>
<path fill="#0078d4" d="M22.387 17.704l-1.063-1.049c-0.010-0.009-0.023-0.014-0.038-0.014-0.031 0-0.057 0.025-0.057 0.056 0 0.002 0 0.003 0 0.005l-0-0 0.001 0.638c0 0 0 0 0 0 0 0.031-0.025 0.056-0.057 0.056-0 0-0 0-0 0v0l-2.467 0.001v0.776h2.467c0 0 0 0 0 0 0.031 0 0.057 0.025 0.057 0.056 0 0 0 0 0 0v0l-0 0.646c0.010 0.015 0.028 0.025 0.047 0.025s0.037-0.010 0.047-0.025l0-0 1.062-1c0.024-0.021 0.038-0.051 0.038-0.084s-0.015-0.064-0.038-0.084l-0-0v-0.002z"></path>
</svg>
