<!-- Generated by IcoMoon.io -->
<svg version="1.1" xmlns="http://www.w3.org/2000/svg" width="24" height="32" viewBox="0 0 24 32">
<title>Intune-Device-Configuration</title>
<path fill="#000" d="M2 21.401c0 0.331 0.295 0.6 0.659 0.6 0 0 0.001 0 0.001 0h11.814c0.362-0.001 0.656-0.269 0.656-0.6v-18.8c-0-0.331-0.294-0.599-0.656-0.6h-11.815c-0 0-0.001 0-0.001 0-0.363 0-0.658 0.268-0.659 0.6v18.8z"></path>
<path fill="#f2f2f2" d="M7.823 21.259c0 0.176 0.156 0.318 0.349 0.318l0.773-0c0.193 0 0.349-0.142 0.349-0.318v0l0.001-0.508c0-0.176-0.156-0.318-0.349-0.318l-0.773 0c-0.193 0-0.349 0.142-0.349 0.318v0l-0.001 0.508z"></path>
<path fill="#f2f2f2" d="M7.048 2.871c0 0.091 0.081 0.165 0.181 0.165l2.659 0.001c0.1 0 0.181-0.074 0.181-0.165v0l-0.001-0.036c0-0.091-0.081-0.165-0.181-0.165l-2.659-0.001c-0.1 0-0.181 0.074-0.181 0.165v0l0.001 0.036z"></path>
<path fill="#000" d="M3.227 19.538c0 0.124 0.11 0.224 0.245 0.224l10.176 0.002c0.136 0 0.245-0.1 0.245-0.224v0l-0.002-15.623c0-0.124-0.11-0.224-0.245-0.224l-10.172 0.001c-0.135 0-0.245 0.1-0.245 0.224v0l-0.002 15.62z"></path>
<path fill="#949494" d="M20.891 19.906l-0.635-1.178c-0.009-0.019-0.015-0.041-0.015-0.065s0.005-0.046 0.015-0.066l-0 0.001 0.222-0.696c0.017-0.054 0.059-0.097 0.115-0.117l0.001-0 1.288-0.422c0.066-0.032 0.111-0.093 0.116-0.164l0-0.001 0-1.095-0.078-0.060-1.291-0.399c-0.056-0.015-0.1-0.055-0.116-0.105l-0-0.001-0.282-0.684c-0.009-0.021-0.014-0.045-0.014-0.071s0.005-0.050 0.015-0.072l-0 0.001 0.543-1.012c0.023-0.027 0.037-0.062 0.037-0.1s-0.014-0.073-0.037-0.1l0 0-0.854-0.788c-0.031-0.019-0.069-0.031-0.11-0.031s-0.079 0.012-0.11 0.031l0.001-0-1.086 0.494c-0.022 0.010-0.049 0.016-0.077 0.016-0.045 0-0.086-0.015-0.117-0.039l0 0-0.734-0.199c-0.063-0.008-0.114-0.050-0.129-0.105l-0-0.001-0.492-1.178c-0.027-0.069-0.098-0.117-0.181-0.118h-0l-1.237-0.002-0.441 1.178c-0.021 0.049-0.063 0.086-0.115 0.105l-0.001 0-0.762 0.261c-0.023 0.008-0.050 0.013-0.077 0.013s-0.054-0.005-0.079-0.013l0.002 0-1.291-0.589c-0.031-0.019-0.069-0.031-0.11-0.031s-0.079 0.012-0.11 0.031l0.001-0-0.747 0.67c-0.018 0.029-0.029 0.063-0.029 0.1s0.011 0.071 0.030 0.101l-0.001-0.001 0.631 1.176c0.009 0.021 0.014 0.045 0.014 0.071s-0.005 0.050-0.015 0.072l0.001-0.001-0.36 0.815c-0.021 0.049-0.063 0.086-0.115 0.105l-0.001 0-1.394 0.388c-0.075 0.025-0.128 0.089-0.129 0.165v0l-0.001 0.954c-0.001 0.005-0.001 0.010-0.001 0.016 0 0.072 0.055 0.133 0.129 0.149l0.001 0 1.293 0.4c0.053 0.020 0.095 0.057 0.116 0.105l0.001 0.001 0.307 0.684c0.012 0.020 0.019 0.045 0.019 0.071s-0.007 0.050-0.019 0.071l0-0.001-0.646 1.175c-0.017 0.027-0.028 0.059-0.028 0.094s0.010 0.067 0.028 0.095l-0.001-0.001 0.737 0.697c0.032 0.022 0.072 0.035 0.116 0.035s0.084-0.013 0.117-0.036l-0.001 0 1.292-0.579c0.022-0.011 0.049-0.017 0.077-0.017s0.055 0.006 0.078 0.018l-0.001-0 0.748 0.282c0.051 0.023 0.091 0.060 0.116 0.105l0.001 0.001 0.491 1.27c0.027 0.069 0.098 0.117 0.181 0.118h0l1.047 0.002c0.086-0.002 0.158-0.056 0.18-0.128l0-0.001 0.437-1.179c0.026-0.046 0.066-0.083 0.115-0.105l0.001-0.001 0.946-0.247c0.023-0.009 0.050-0.014 0.077-0.014s0.055 0.005 0.079 0.014l-0.001-0 1.355 0.579c0.030 0.021 0.068 0.034 0.11 0.034s0.080-0.013 0.11-0.034l-0 0 0.737-0.67c0.038-0.030 0.061-0.074 0.061-0.124s-0.024-0.093-0.061-0.123l-0-0zM15.62 18.29c-0.662-0.257-1.118-0.846-1.118-1.531 0-0.917 0.815-1.66 1.821-1.66s1.821 0.743 1.821 1.66c0 0.235-0.053 0.458-0.15 0.66l0.005-0.011c-0.285 0.599-0.927 1.010-1.675 1.010-0.253 0-0.495-0.047-0.714-0.133l0.012 0.004z"></path>
<path fill="#fff" d="M17.023 15.095c0.839 0.353 1.205 1.385 0.818 2.305s-1.381 1.38-2.22 1.027c-0.839-0.353-1.205-1.385-0.818-2.305s1.381-1.38 2.22-1.027z"></path>
</svg>
