<!-- Generated by IcoMoon.io -->
<svg version="1.1" xmlns="http://www.w3.org/2000/svg" width="24" height="32" viewBox="0 0 24 32">
<title>Intune-Tenant-Status</title>
<path fill="#000" d="M18.249 20.574c0.007 0 0.016 0 0.025 0 0.868 0 1.574-0.658 1.587-1.474l0-0.001c0.003-0.026 0.005-0.057 0.005-0.088s-0.002-0.062-0.005-0.092l0 0.004c-0.624-4.717-3.475-8.551-8.911-8.551s-8.4 3.221-8.95 8.541c-0.005 0.045-0.008 0.097-0.008 0.15 0 0.778 0.624 1.419 1.426 1.501l0.007 0.001 14.824 0.011z"></path>
<path fill="#fff" opacity="0.8" d="M10.938 11.457c-0.001 0-0.003 0-0.005 0-0.999 0-1.927-0.282-2.702-0.766l0.018 0.011 2.663 6.629 2.66-6.579c-0.748 0.443-1.657 0.706-2.63 0.706-0.002 0-0.003 0-0.005 0h0z"></path>
<path fill="#000" d="M15.95 6.729c0 2.612-2.244 4.729-5.013 4.729s-5.013-2.117-5.013-4.729c0-2.612 2.244-4.729 5.013-4.729s5.012 2.117 5.012 4.729z"></path>
<path fill="#b31b1b" d="M19.886 14.169c-0.052-0.004-0.112-0.006-0.172-0.006-0.961 0-1.779 0.578-2.084 1.385l-0.005 0.015c-0.306-0.822-1.122-1.4-2.080-1.4-0.064 0-0.127 0.003-0.189 0.008l0.008-0.001c-2.050 0.212-2.113 2.064-2.113 2.798 0 0.519 0.123 2.17 4.35 5.034 4.286-2.9 4.399-4.516 4.399-5.034 0-0.734 0-2.586-2.113-2.798z"></path>
<path fill="#f2f2f2" d="M22.002 16.741h-2c-0.004-0-0.009-0.001-0.015-0.001-0.053 0-0.1 0.029-0.122 0.071l-0 0.001-0.628 0.977c-0.016 0.019-0.041 0.032-0.069 0.032s-0.053-0.012-0.069-0.031l-0-0-0.847-1.662c-0.025-0.056-0.083-0.094-0.15-0.094s-0.125 0.038-0.15 0.093l-0 0.001-0.85 2.36c0 0.039-0.034 0.071-0.075 0.071s-0.075-0.032-0.075-0.071v0l-0.739-1.605c-0.028-0.049-0.082-0.082-0.144-0.082s-0.116 0.033-0.143 0.081l-0 0.001-0.975 1.676c-0.023 0.043-0.069 0.072-0.123 0.072-0.005 0-0.010-0-0.015-0.001l0.001 0-0.9-0c0.152 0.227 0.304 0.423 0.469 0.608l-0.007-0.008h0.811c0.003 0 0.006 0 0.009 0 0.058 0 0.108-0.034 0.128-0.082l0-0.001 0.688-1.177 0.924 2.014c0.025 0.056 0.083 0.094 0.15 0.094s0.125-0.038 0.15-0.093l0-0.001 0.963-2.688 0.84 1.51c0.032 0.043 0.084 0.071 0.144 0.071s0.112-0.028 0.143-0.070l0-0.001 0.923-1.485c0.030-0.045 0.079-0.076 0.137-0.082l0.001-0 1.616-0.002v-0.494z"></path>
</svg>
