<!-- Generated by IcoMoon.io -->
<svg version="1.1" xmlns="http://www.w3.org/2000/svg" width="25" height="32" viewBox="0 0 25 32">
<title>Iot-Solution-Accelerator</title>
<path fill="#2074bb" d="M12.261 21.705c-0.062-0-0.12-0.016-0.17-0.045l0.002 0.001-7.218-4.088c-0.101-0.058-0.168-0.165-0.168-0.286v0l-0.001-8.178c0-0.122 0.067-0.228 0.167-0.285l0.002-0.001 7.218-4.092c0.048-0.028 0.106-0.044 0.168-0.044s0.12 0.016 0.17 0.045l-0.002-0.001 7.218 4.089c0.101 0.058 0.168 0.165 0.168 0.286v0l0.001 8.181c0 0.122-0.067 0.228-0.167 0.285l-0.002 0.001-7.218 4.088c-0.048 0.028-0.106 0.044-0.168 0.044v0zM5.379 17.095l6.882 3.9 6.882-3.9v-7.797l-6.882-3.897-6.882 3.897v7.797z"></path>
<path fill="#2074bb" d="M13.506 5.018c0 0.675-0.558 1.222-1.246 1.222s-1.246-0.547-1.246-1.222c0-0.675 0.558-1.222 1.246-1.222s1.246 0.547 1.246 1.222z"></path>
<path fill="#2074bb" d="M20.718 9.107c0 0.675-0.558 1.222-1.246 1.222s-1.246-0.547-1.246-1.222c0-0.675 0.558-1.222 1.246-1.222s1.246 0.547 1.246 1.222z"></path>
<path fill="#2074bb" d="M20.718 17.287c0 0.675-0.558 1.222-1.246 1.222s-1.246-0.547-1.246-1.222c0-0.675 0.558-1.222 1.246-1.222s1.246 0.547 1.246 1.222z"></path>
<path fill="#2074bb" d="M6.287 21.376c0 0.675-0.558 1.222-1.246 1.222s-1.246-0.547-1.246-1.222c0-0.675 0.558-1.222 1.246-1.222s1.246 0.547 1.246 1.222z"></path>
<path fill="#2074bb" d="M13.508 21.376c0 0.675-0.558 1.222-1.246 1.222s-1.246-0.547-1.246-1.222c0-0.675 0.558-1.222 1.246-1.222s1.246 0.547 1.246 1.222z"></path>
<path fill="#fff" d="M16.538 13.197c0 2.32-1.917 4.201-4.281 4.201s-4.281-1.881-4.281-4.201c0-2.32 1.917-4.201 4.281-4.201s4.281 1.881 4.281 4.201z"></path>
<path fill="#2074bb" d="M12.255 17.727c-2.549-0.001-4.615-2.029-4.615-4.531s2.067-4.531 4.618-4.531 4.618 2.029 4.618 4.531c0 0 0 0 0 0.001v-0c-0.003 2.502-2.070 4.529-4.62 4.53h-0zM12.255 9.326c-2.177 0.001-3.942 1.734-3.942 3.87s1.766 3.87 3.944 3.87c2.178 0 3.944-1.733 3.944-3.87v0c-0.003-2.137-1.768-3.869-3.947-3.87h-0z"></path>
<path fill="#2074bb" d="M8.581 11.374c-0 0-0 0-0 0-0.060 0-0.116-0.015-0.165-0.043l0.002 0.001-3.541-1.935c-0.104-0.058-0.172-0.165-0.172-0.288 0-0.183 0.151-0.331 0.337-0.331 0.060 0 0.117 0.015 0.165 0.043l-0.002-0.001 3.542 1.934c0.104 0.058 0.173 0.165 0.173 0.288 0 0.182-0.151 0.33-0.337 0.33-0 0-0 0-0 0h0l-0.001 0.001zM12.259 9.328c0 0 0 0 0 0-0.186 0-0.337-0.148-0.337-0.33v0l0.002-3.978c0-0.183 0.151-0.33 0.337-0.33s0.337 0.148 0.337 0.33v0l-0 3.977c0 0.182-0.151 0.33-0.337 0.33v0l-0.002 0.001zM16.006 11.318c-0 0-0 0-0.001 0-0.186 0-0.337-0.148-0.337-0.33 0-0.124 0.070-0.232 0.173-0.289l0.002-0.001 3.473-1.881c0.047-0.026 0.103-0.041 0.163-0.041 0.186 0 0.337 0.148 0.337 0.331 0 0.124-0.070 0.232-0.173 0.289l-0.002 0.001-3.473 1.882c-0.047 0.026-0.103 0.041-0.163 0.041v0l0-0.002zM19.479 17.616c-0 0-0.001 0-0.001 0-0.068 0-0.131-0.020-0.183-0.054l0.001 0.001-3.412-2.173c-0.091-0.060-0.15-0.161-0.15-0.275 0-0.182 0.151-0.33 0.337-0.33 0.067 0 0.129 0.019 0.181 0.052l-0.001-0.001 3.411 2.173c0.093 0.060 0.154 0.162 0.154 0.278 0 0.183-0.151 0.33-0.337 0.33-0 0-0.001 0-0.001 0h0zM12.259 21.705c0 0 0 0 0 0-0.186 0-0.337-0.148-0.337-0.33 0 0 0 0 0 0v0l0.002-3.862c0-0.183 0.151-0.33 0.337-0.33s0.337 0.148 0.337 0.33v0l-0 3.864c0 0 0 0 0 0 0 0.183-0.151 0.33-0.337 0.33v0zM5.042 17.616c-0 0-0 0-0 0-0.186 0-0.337-0.148-0.337-0.33 0-0.113 0.058-0.212 0.145-0.272l0.001-0.001 3.361-2.256c0.055-0.039 0.123-0.063 0.197-0.063 0.186 0 0.337 0.148 0.337 0.33 0 0.116-0.061 0.218-0.153 0.277l-0.001 0.001-3.362 2.257c-0.053 0.036-0.119 0.058-0.19 0.058 0 0 0 0 0 0v0l0.001-0.001zM12.255 13.527c-0.186 0-0.337-0.148-0.337-0.33s0.151-0.33 0.337-0.33v0l2.929 0.001c0.186 0 0.337 0.148 0.337 0.33s-0.151 0.33-0.337 0.33v0l-2.929-0.001z"></path>
<path fill="#2074bb" d="M12.752 13.197c0 0.271-0.224 0.491-0.5 0.491s-0.5-0.22-0.5-0.491c0-0.271 0.224-0.491 0.5-0.491s0.5 0.22 0.5 0.491z"></path>
<path fill="#c0dcef" d="M9.412 13.358c0.065 0.681 0.369 1.282 0.829 1.731l0 0 0.769-0.753c-0.273-0.254-0.465-0.59-0.536-0.968l-0.002-0.011h-1.061z"></path>
<path fill="#69abdb" d="M12.095 10.299c-0.73 0.042-1.381 0.347-1.861 0.819l-0 0 0.713 0.696c0.294-0.301 0.694-0.5 1.141-0.54l0.007-0.001v-0.975z"></path>
<path fill="#3b8fcd" d="M14.291 11.118c-0.48-0.472-1.13-0.778-1.853-0.819l-0.008-0v0.975c0.454 0.040 0.854 0.24 1.147 0.54l0.001 0.001 0.713-0.696z"></path>
<path fill="#9bc7e6" d="M10.013 11.367c-0.366 0.453-0.593 1.028-0.61 1.655l-0 0.004h1.041c0.004-0.353 0.112-0.681 0.296-0.955l-0.004 0.007-0.723-0.71z"></path>
<path fill="#2074bb" d="M15.053 12.493c-0.099-0.431-0.287-0.809-0.545-1.13l0.005 0.006-0.723 0.71c0.080 0.119 0.149 0.256 0.199 0.402l0.004 0.013h1.061z"></path>
</svg>
