<!-- Generated by IcoMoon.io -->
<svg version="1.1" xmlns="http://www.w3.org/2000/svg" width="32" height="32" viewBox="0 0 32 32">
<title>Iot-Hub</title>
<path fill="#fff" d="M19.744 15.522c0 0.936-0.756 1.695-1.688 1.695s-1.688-0.759-1.688-1.695c0-0.936 0.756-1.695 1.688-1.695s1.688 0.759 1.688 1.695z"></path>
<path fill="#fff" d="M22.211 20.564c0 0.736-0.595 1.333-1.328 1.333s-1.328-0.597-1.328-1.333c0-0.736 0.595-1.333 1.328-1.333s1.328 0.597 1.328 1.333z"></path>
<path fill="#fff" d="M16.771 19.652c0 0.632-0.51 1.144-1.139 1.144s-1.139-0.512-1.139-1.144c0-0.632 0.51-1.144 1.139-1.144s1.139 0.512 1.139 1.144z"></path>
<path fill="#fff" d="M16.223 10.937c0 0.784-0.633 1.419-1.414 1.419s-1.414-0.635-1.414-1.419c0-0.784 0.633-1.419 1.414-1.419s1.414 0.635 1.414 1.419z"></path>
<path fill="#fff" d="M12.162 16.168c0 0.632-0.51 1.144-1.139 1.144s-1.139-0.512-1.139-1.144c0-0.632 0.51-1.144 1.139-1.144s1.139 0.512 1.139 1.144z"></path>
<path fill="#949494" d="M17.328 15.178l-6.339 0.526 0.059 0.74 6.28-0.526-2.080 3.475 0.624 0.379 2.142-3.578 2.544 4.465 0.634-0.361-2.854-5.017-0.281 0.165 0.229-0.173-3.23-4.612-0.59 0.431 2.862 4.086z"></path>
<path fill="#949494" d="M23.308 9.321c0-0 0-0.001 0-0.001 0-0.347-0.28-0.628-0.625-0.628-0 0-0.001 0-0.001 0h-3.253c-0 0-0.001 0-0.001 0-0.17 0-0.308 0.138-0.308 0.309v1.214c0 0.171 0.138 0.309 0.308 0.309 0 0 0.001 0 0.001 0h2.013v1.977c0.004 0.175 0.143 0.315 0.317 0.32h1.199c0.174-0.005 0.313-0.145 0.317-0.319v-3.182h0.034z"></path>
<path fill="#949494" d="M12.572 21.483h-2.047v-1.977c-0.004-0.174-0.143-0.315-0.317-0.32h-1.199c-0.174 0.005-0.313 0.145-0.317 0.319v3.184c0.005 0.343 0.283 0.619 0.625 0.619 0 0 0.001 0 0.001 0h3.253c0 0 0.001 0 0.001 0 0.17 0 0.308-0.138 0.308-0.309v-1.204c0-0.001 0-0.001 0-0.002 0-0.171-0.138-0.31-0.308-0.31-0 0-0.001 0-0.001 0h0z"></path>
<path fill="#000" d="M18.055 13.844c0 0 0.001 0 0.001 0 0.946 0 1.713 0.77 1.713 1.72s-0.767 1.72-1.713 1.72c-0.946 0-1.713-0.77-1.713-1.72 0-0.015 0-0.030 0.001-0.044l-0 0.002c0.023-0.931 0.781-1.678 1.712-1.678h0zM13.43 10.938c0 0.002-0 0.005-0 0.007 0 0.789 0.637 1.428 1.422 1.428s1.422-0.639 1.422-1.428c0-0.789-0.637-1.428-1.422-1.428-0.012 0-0.025 0-0.037 0l0.002-0c-0.769 0.015-1.387 0.645-1.387 1.419 0 0 0 0.001 0 0.001v-0zM9.883 16.159c0 0.632 0.51 1.144 1.139 1.144s1.139-0.512 1.139-1.144-0.51-1.144-1.139-1.144v0c-0 0-0 0-0 0-0.629 0-1.139 0.512-1.139 1.144 0 0 0 0 0 0.001v-0zM14.493 19.644c-0 0.002-0 0.005-0 0.008 0 0.637 0.514 1.153 1.148 1.153s1.148-0.516 1.148-1.153c0-0.637-0.514-1.153-1.148-1.153-0 0-0.001 0-0.001 0h0c-0.002-0-0.005-0-0.008-0-0.629 0-1.139 0.512-1.139 1.144 0 0 0 0 0 0.001v-0zM19.564 20.565c-0 0.002-0 0.005-0 0.008 0 0.736 0.595 1.333 1.328 1.333s1.328-0.597 1.328-1.333c0-0.736-0.595-1.333-1.328-1.333-0 0-0 0-0 0v0c-0.005-0-0.011-0-0.017-0-0.724 0-1.311 0.589-1.311 1.316 0 0.003 0 0.006 0 0.010v-0z"></path>
</svg>
