<!-- Generated by IcoMoon.io -->
<svg version="1.1" xmlns="http://www.w3.org/2000/svg" width="25" height="32" viewBox="0 0 25 32">
<title>Iot-Digital-Twin</title>
<path fill="#0072c6" d="M14.494 9.222h-10.467v13.454h10.467v-13.454z"></path>
<path fill="#0072c6" d="M9.634 7.389v13.829h9.681l0.039-13.829h-9.72zM18.574 8.136v5.609h-8.197v-5.609h8.197zM10.377 20.471v-5.98h8.197v5.98h-8.197z"></path>
<path fill="#fff" d="M10.008 21.554c-0.391 0-0.711-0.319-0.711-0.711s0.319-0.711 0.711-0.711c0.391 0 0.711 0.319 0.711 0.711s-0.319 0.711-0.711 0.711z"></path>
<path fill="#57a300" d="M7.69 20.844c0 1.011-0.82 1.831-1.832 1.831s-1.832-0.82-1.832-1.831c0-1.011 0.82-1.831 1.832-1.831s1.832 0.82 1.832 1.831z"></path>
<path fill="#fff" d="M18.979 21.554c-0.391 0-0.711-0.319-0.711-0.711s0.319-0.711 0.711-0.711c0.391 0 0.711 0.319 0.711 0.711s-0.319 0.711-0.711 0.711z"></path>
<path fill="#57a300" d="M20.811 7.764c0 1.011-0.82 1.831-1.832 1.831s-1.832-0.82-1.832-1.831c0-1.011 0.82-1.831 1.832-1.831s1.832 0.82 1.832 1.831z"></path>
<path fill="#fff" d="M19.689 7.764c0 0.392-0.318 0.71-0.71 0.71s-0.71-0.318-0.71-0.71c0-0.392 0.318-0.71 0.71-0.71s0.71 0.318 0.71 0.71z"></path>
<path fill="#57a300" d="M20.811 14.117c0 1.011-0.82 1.831-1.832 1.831s-1.832-0.82-1.832-1.831c0-1.011 0.82-1.831 1.832-1.831s1.832 0.82 1.832 1.831z"></path>
<path fill="#fff" d="M19.689 14.117c0 0.392-0.318 0.71-0.71 0.71s-0.71-0.318-0.71-0.71c0-0.392 0.318-0.71 0.71-0.71s0.71 0.318 0.71 0.71z"></path>
<path fill="#fff" opacity="0.3" d="M5.111 5.11h8.32v11.212h-8.32v-11.212z"></path>
<path fill="#00188f" opacity="0.6" d="M11.449 8.139h3.043v-0.75h-3.043c-0.168-0.622-0.73-1.082-1.405-1.082-0.803 0-1.457 0.655-1.457 1.457 0 0.661 0.444 1.214 1.046 1.391v3.569c-0.602 0.181-1.046 0.734-1.046 1.391 0 0.661 0.444 1.214 1.046 1.391v1.974h0.743v-1.947c0.524-0.127 0.931-0.524 1.070-1.033l0.002-0.010h3.043v-0.747h-3.043c-0.141-0.518-0.548-0.916-1.062-1.041l-0.010-0.002v-3.523c0.523-0.127 0.93-0.523 1.070-1.029l0.002-0.010z"></path>
</svg>
