<!-- Generated by IcoMoon.io -->
<svg version="1.1" xmlns="http://www.w3.org/2000/svg" width="27" height="32" viewBox="0 0 27 32">
<title>Iot-Hub-Security</title>
<path fill="#7fba00" d="M17.769 9.241c-3.696-0.402-4.317-1.965-4.317-1.965s-0.831 2.055-6.15 2.055v8.432c0 1.020 0.577 1.976 1.376 2.81 1.816 1.892 4.774 3.165 4.774 3.165s6.153-2.644 6.153-5.975v-8.432h-0.058c-0.002 0-0.004 0-0.007 0-0.651 0-1.293-0.036-1.925-0.106l0.077 0.007 0.076 0.009z"></path>
<path fill="#96c414" d="M13.364 10.444c0 0-0.831 2.052-6.15 2.052v8.435c0 1.020 0.577 1.973 1.376 2.807l9.091-11.332c-3.696-0.399-4.317-1.962-4.317-1.962z"></path>
<path fill="#fff" d="M16.014 18.405c-0 0-0.001 0-0.001 0-0.449 0-0.812-0.357-0.812-0.797 0-0.225 0.095-0.428 0.248-0.573l0-0-0.869-1.486c-0.093 0.032-0.201 0.050-0.312 0.050-0.13 0-0.254-0.025-0.368-0.070l0.007 0.002 0.006 0.003-0.635 1.032c0.129 0.125 0.208 0.297 0.208 0.489 0 0.379-0.314 0.687-0.7 0.687s-0.7-0.308-0.7-0.687c0-0.379 0.314-0.687 0.7-0.687 0.001 0 0.002 0 0.003 0h-0c0.032 0.003 0.058 0.006 0.087 0.009h-0.003l0.667-1.084c-0.117-0.115-0.205-0.257-0.255-0.416l-0.002-0.007v-0.009l-2.638 0.216c-0.057 0.33-0.346 0.579-0.694 0.579-0.389 0-0.704-0.309-0.704-0.69s0.315-0.69 0.704-0.69c0.266 0 0.497 0.144 0.617 0.358l0.002 0.004v0.003l2.681-0.219c0.035-0.195 0.122-0.37 0.248-0.51v0.003l-0.924-1.285c-0.087 0.032-0.188 0.050-0.294 0.050-0.482 0-0.872-0.383-0.872-0.855s0.39-0.855 0.872-0.855c0.482 0 0.872 0.383 0.872 0.855 0 0.212-0.079 0.406-0.209 0.556l0.001-0.001 0.912 1.271c0.124-0.055 0.268-0.087 0.42-0.087 0.572 0 1.035 0.455 1.035 1.015 0 0.299-0.132 0.567-0.341 0.753l-0.001 0.001 0.871 1.498c0.055-0.013 0.118-0.021 0.184-0.021 0.449 0 0.813 0.357 0.813 0.797s-0.364 0.797-0.813 0.797c-0.005 0-0.010-0-0.015-0h0.001l0.003 0.003z"></path>
</svg>
