<!-- Generated by IcoMoon.io -->
<svg version="1.1" xmlns="http://www.w3.org/2000/svg" width="32" height="32" viewBox="0 0 32 32">
<title>Iot-Windows-10-Core</title>
<path fill="#000" d="M21.272 11.483l-1.175-1.157h-0.119l-1.582 0.864-1.133-0.511-0.713-2.059-1.642 0.016-0.078 0.233-0.56 1.795-1.133 0.49-1.922-0.861-1.141 1.164 0.119 0.231 0.851 1.665-0.451 1.146-1.974 0.752v1.681l0.231 0.078 1.769 0.552 0.485 1.146-0.851 1.958 1.183 1.164 0.213-0.122 1.642-0.861 0.526 0.654 1.362 1.821h1.644l0.075-0.233 0.589-1.050 0.934-0.475 1.857-0.114 1.157-1.198v-0.112l0.228-0.861 0.674-2.044-1.063-5.752zM15.86 19.735c-0.003 0-0.006 0-0.010 0-2.054 0-3.718-1.687-3.718-3.768s1.665-3.768 3.718-3.768c2.054 0 3.718 1.687 3.718 3.768 0 0.012-0 0.024-0 0.036v-0.002c-0.014 2.065-1.669 3.734-3.709 3.735h-0z"></path>
<path fill="#32bedd" d="M18.421 15.905c0 1.673-2.033 3.019-2.477 3.294-0.025 0.012-0.054 0.020-0.085 0.020s-0.060-0.007-0.086-0.020l0.001 0.001c-0.442-0.275-2.467-1.621-2.467-3.294v-2.007c0-0 0-0 0-0 0-0.087 0.068-0.159 0.153-0.164l0-0c1.582-0.002 1.216-0.733 2.399-0.733s0.851 0.69 2.399 0.731c0.087 0.004 0.157 0.075 0.162 0.163l0 0 0.002 2.009z"></path>
<path fill="#50e6ff" d="M18.209 15.924c0 1.535-1.865 2.767-2.272 3.019-0.022 0.012-0.049 0.020-0.077 0.020s-0.054-0.007-0.077-0.020l0.001 0c-0.41-0.252-2.264-1.483-2.264-3.019v-1.847c0-0 0-0 0-0 0-0.078 0.060-0.142 0.136-0.146l0-0c1.454 0.001 1.124-0.673 2.203-0.673 1.081 0 0.757 0.638 2.204 0.674 0.078 0.004 0.14 0.067 0.145 0.146l0 0 0.001 1.845z"></path>
<path fill="#f2f2f2" d="M16.889 15.621h-0.145v-0.482c0-0 0-0 0-0.001 0-0.256-0.097-0.489-0.255-0.664l0.001 0.001c-0.147-0.169-0.362-0.275-0.601-0.275-0.010 0-0.021 0-0.031 0.001l0.001-0c-0.002-0-0.005-0-0.007-0-0.246 0-0.467 0.106-0.622 0.274l-0 0.001c-0.158 0.174-0.254 0.407-0.254 0.663 0 0 0 0 0 0.001v-0 0.519h-0.145c-0 0-0 0-0 0-0.066 0-0.119 0.054-0.119 0.121v0 1.345c0.005 0.063 0.056 0.112 0.119 0.112 0 0 0 0 0.001 0l2.059-0.001c0.003 0 0.005 0 0.008 0 0.061 0 0.111-0.050 0.111-0.112 0-0 0-0 0-0v0l0-1.379c0-0.067-0.053-0.121-0.119-0.121v0l-0-0.001zM16.329 15.621h-0.936v-0.482c-0-0.002-0-0.005-0-0.008 0-0.138 0.054-0.264 0.143-0.355l-0 0c0.081-0.089 0.196-0.145 0.324-0.145h0c0.002-0 0.004-0 0.006-0 0.127 0 0.24 0.056 0.318 0.145l0 0 0.060 0.070c0.052 0.083 0.083 0.184 0.086 0.292v0.483z"></path>
<path fill="#86d633" d="M20.361 10.299l0.604-1.266c0.010-0.018 0.016-0.040 0.016-0.063 0-0.052-0.031-0.097-0.075-0.118l-0.001-0-0.068-0-4.689 0.36c-0.068 0.009-0.119 0.067-0.119 0.137 0 0.003 0 0.007 0 0.010l-0-0c-0.003 0.010-0.005 0.022-0.005 0.034s0.002 0.024 0.006 0.035l-0-0.001 2.655 3.882c0.024 0.023 0.057 0.038 0.094 0.038s0.069-0.014 0.094-0.038l-0 0 0.041-0.052 0.529-1.113c0.025-0.047 0.073-0.078 0.128-0.078 0.018 0 0.036 0.003 0.052 0.010l-0.001-0c1.137 0.945 1.883 2.337 1.973 3.908l0.001 0.015c0.001 0.037 0.001 0.080 0.001 0.124 0 3.019-2.384 5.473-5.348 5.535l-0.006 0c-0.032 0.001-0.071 0.001-0.109 0.001-0.924 0-1.797-0.224-2.569-0.62l0.032 0.015c-0.018-0.010-0.039-0.015-0.062-0.015-0.049 0-0.092 0.027-0.116 0.066l-0 0.001-0.698 1.276c-0.009 0.018-0.015 0.040-0.015 0.063 0 0.050 0.026 0.094 0.065 0.118l0.001 0c0.965 0.515 2.109 0.817 3.323 0.817 2.771 0 5.18-1.576 6.399-3.892l0.019-0.040c0.511-0.966 0.811-2.114 0.811-3.333 0-0.064-0.001-0.129-0.003-0.193l0 0.009c-0.125-2.248-1.241-4.208-2.908-5.453l-0.020-0.014c-0.028-0.027-0.046-0.065-0.046-0.107 0-0.021 0.004-0.040 0.012-0.058l-0 0.001 0-0.002z"></path>
</svg>
