<!-- Generated by IcoMoon.io -->
<svg version="1.1" xmlns="http://www.w3.org/2000/svg" width="32" height="32" viewBox="0 0 32 32">
<title>Iot-Edge</title>
<path fill="#000" d="M23.512 15.874c-0.072-1.666-1.313-3.018-2.911-3.245l-0.018-0.002c-0.087-2.306-1.959-4.142-4.255-4.142-0.045 0-0.091 0.001-0.136 0.002l0.007-0c-0.024-0-0.053-0.001-0.081-0.001-1.866 0-3.459 1.183-4.084 2.846l-0.010 0.030c-1.963 0.247-3.476 1.892-3.539 3.906l-0 0.006c0.085 2.214 1.883 3.976 4.088 3.976 0.051 0 0.102-0.001 0.153-0.003l-0.007 0h7.221c0.028 0.004 0.060 0.007 0.093 0.007s0.065-0.002 0.096-0.007l-0.004 0c1.849-0.015 3.346-1.511 3.388-3.37l0-0.004z"></path>
<path fill="#b3b3b3" d="M15.648 15.546h0.651v5.22h-0.651v-5.22z"></path>
<path fill="#f2f2f2" d="M17.711 13.969c0 0.969-0.777 1.754-1.737 1.754s-1.737-0.785-1.737-1.754c0-0.969 0.777-1.754 1.737-1.754s1.737 0.785 1.737 1.754z"></path>
<path fill="#000" d="M8.485 22.899c0 0.34 0.273 0.615 0.609 0.615 0 0 0 0 0 0h1.938c0 0 0 0 0 0 0.336 0 0.609-0.275 0.609-0.615v-1.956c-0-0.34-0.273-0.615-0.609-0.615-0 0-0 0-0 0h-1.938c-0 0-0 0-0 0-0.336 0-0.609 0.275-0.609 0.615v1.956z"></path>
</svg>
