<!-- Generated by IcoMoon.io -->
<svg version="1.1" xmlns="http://www.w3.org/2000/svg" width="20" height="32" viewBox="0 0 20 32">
<title>Iot-Central</title>
<path fill="#a3a3a3" d="M9.601 2.001l-8.001 4.988v3.334l3.108 2.053v-2l-1.63-1.020v-1.379l6.523-4.11 6.523 4.12v7.98l-6.523 4.11-8.001-4.988v1.866l8.001 5.045 7.997-4.988v-10.001l-7.997-5.009z"></path>
<path fill="#949494" d="M9.601 1.999l-8.001 4.992 1.478 0.988 6.523-4.11 6.523 4.11 1.475-0.988-7.997-4.992z"></path>
<path fill="#32bedd" d="M13.932 9.266v5.468l-4.332 2.745v-5.468l4.332-2.745z"></path>
<path fill="#9cebff" d="M13.93 9.267l-4.329 2.745-4.332-2.745 4.332-2.745 4.329 2.745z"></path>
<path fill="#50e6ff" d="M9.601 12.010v5.468l-4.332-2.745v-5.468l4.332 2.745z"></path>
<path fill="#9cebff" d="M5.269 14.734l4.332-2.723v5.468l-4.332-2.745z"></path>
<path fill="#50e6ff" d="M13.932 14.734l-4.332-2.723v5.468l4.332-2.745z"></path>
</svg>
