<!-- Generated by IcoMoon.io -->
<svg version="1.1" xmlns="http://www.w3.org/2000/svg" width="22" height="32" viewBox="0 0 22 32">
<title>Iot-Sphere</title>
<path fill="#000" d="M19.8 12.369c0 5.319-4.029 9.631-9 9.631s-9-4.312-9-9.631c0-5.319 4.029-9.631 9-9.631s9 4.312 9 9.631z"></path>
<path fill="#000" d="M10.599 18.875c-1.030-0.681-4.396-3.115-4.396-5.955v-3.634l0.36-0.025c0.006 0 0.013 0 0.020 0 0.926 0 1.783-0.315 2.484-0.849l-0.013 0.009c0.433-0.35 0.98-0.56 1.573-0.56 0.061 0 0.121 0.002 0.181 0.007l-0.008-0c0.050-0.004 0.108-0.006 0.167-0.006 0.594 0 1.143 0.209 1.586 0.561l-0.007-0.005c0.689 0.527 1.548 0.843 2.477 0.843 0.004 0 0.007 0 0.011 0h-0.001l0.363 0.025v3.634c0 2.84-3.365 5.274-4.399 5.955l-0.198 0.131-0.201-0.131z"></path>
<path fill="#50e6ff" d="M10.801 18.394c-1.997-1.326-4.11-3.447-4.11-5.475v-3.143c0.988-0.019 1.898-0.361 2.646-0.931l-0.014 0.010c0.357-0.295 0.812-0.473 1.305-0.473 0.061 0 0.121 0.003 0.181 0.008l-0.008-0.001c0.046-0.004 0.101-0.006 0.155-0.006 0.498 0 0.957 0.177 1.325 0.476l-0.005-0.004c0.735 0.56 1.646 0.902 2.631 0.921l0.004 0v3.143c0 2.028-2.113 4.149-4.11 5.475z"></path>
<path fill="#fff" d="M18.897 17.759c0 0.815-0.617 1.475-1.379 1.475s-1.379-0.66-1.379-1.475c0-0.815 0.617-1.475 1.379-1.475s1.379 0.66 1.379 1.475z"></path>
<path fill="#b3b3b3" d="M17.518 16.282c0 0 0 0 0.001 0 0.76 0 1.376 0.659 1.376 1.473s-0.616 1.473-1.376 1.473c-0.76 0-1.376-0.659-1.376-1.471v-0c0-0 0-0.001 0-0.002 0-0.813 0.616-1.473 1.376-1.473h0zM17.518 15.545c-1.142 0.001-2.067 0.992-2.067 2.214s0.926 2.214 2.069 2.214c1.142 0 2.068-0.99 2.069-2.212v-0c-0-1.222-0.925-2.213-2.067-2.215h-0.004z"></path>
<path fill="#fff" d="M5.46 17.759c0 0.815-0.617 1.475-1.379 1.475s-1.379-0.66-1.379-1.475c0-0.815 0.617-1.475 1.379-1.475s1.379 0.66 1.379 1.475z"></path>
<path fill="#b3b3b3" d="M4.082 16.285c0 0 0 0 0.001 0 0.76 0 1.376 0.659 1.376 1.473s-0.616 1.473-1.376 1.473c-0.76 0-1.376-0.659-1.376-1.473 0-0.001 0-0.001 0-0.002v0c0.001-0.812 0.617-1.471 1.376-1.471h0zM4.082 15.548c-0 0-0.001 0-0.002 0-1.143 0-2.069 0.991-2.069 2.214s0.926 2.214 2.069 2.214c1.143 0 2.069-0.991 2.069-2.214 0-0.001 0-0.001 0-0.002v0c-0.002-1.221-0.926-2.21-2.067-2.212h-0z"></path>
<path fill="#fff" d="M12.179 4.214c0 0.815-0.617 1.475-1.379 1.475s-1.379-0.66-1.379-1.475c0-0.815 0.617-1.475 1.379-1.475s1.379 0.66 1.379 1.475z"></path>
<path fill="#b3b3b3" d="M10.8 2.739c0 0 0 0 0.001 0 0.76 0 1.376 0.659 1.376 1.473s-0.616 1.473-1.376 1.473c-0.76 0-1.376-0.659-1.376-1.471v-0c0-0 0-0.001 0-0.002 0-0.813 0.616-1.473 1.376-1.473h0zM10.8 2.001c-0.001 0-0.001 0-0.002 0-1.143 0-2.069 0.991-2.069 2.214s0.926 2.214 2.069 2.214c1.143 0 2.069-0.991 2.069-2.214 0-0.001 0-0.001 0-0.002v0c-0.002-1.221-0.927-2.21-2.067-2.212h-0z"></path>
</svg>
