<!-- Generated by IcoMoon.io -->
<svg version="1.1" xmlns="http://www.w3.org/2000/svg" width="23" height="32" viewBox="0 0 23 32">
<title>Iot-Device-Provisioning-Service</title>
<path fill="#0072c6" d="M10.872 5.959c0 0.818-0.657 1.481-1.467 1.481s-1.467-0.663-1.467-1.481c0-0.818 0.657-1.481 1.467-1.481s1.467 0.663 1.467 1.481z"></path>
<path fill="#0072c6" d="M14.504 10.729c0 0.975-0.783 1.766-1.749 1.766s-1.749-0.791-1.749-1.766c0-0.975 0.783-1.766 1.749-1.766s1.749 0.791 1.749 1.766z"></path>
<path fill="#0072c6" d="M17.051 15.979c0 0.763-0.612 1.381-1.367 1.381s-1.367-0.618-1.367-1.381c0-0.763 0.612-1.381 1.367-1.381s1.367 0.618 1.367 1.381z"></path>
<path fill="#0072c6" d="M11.435 15.025c0 0.658-0.528 1.191-1.179 1.191s-1.179-0.533-1.179-1.191c0-0.658 0.528-1.191 1.179-1.191s1.179 0.533 1.179 1.191z"></path>
<path fill="#0072c6" d="M6.659 11.399c0 0.658-0.528 1.191-1.179 1.191s-1.179-0.533-1.179-1.191c0-0.658 0.528-1.191 1.179-1.191s1.179 0.533 1.179 1.191z"></path>
<path fill="#0072c6" d="M8.829 6.075l0.868-0.617 3.517 5.052-0.868 0.617-3.517-5.052z"></path>
<path fill="#0072c6" d="M12.189 10.803l0.921-0.533 3.108 5.482-0.921 0.533-3.108-5.482z"></path>
<path fill="#0072c6" d="M5.278 10.786l7.507-0.631 0.088 1.069-7.507 0.631-0.088-1.069z"></path>
<path fill="#0072c6" d="M9.638 14.817l2.692-4.512 0.91 0.554-2.692 4.512-0.91-0.554z"></path>
<path fill="#0072c6" d="M5.28 7.067c0 0.785-0.63 1.422-1.408 1.422s-1.408-0.637-1.408-1.422c0-0.785 0.631-1.422 1.408-1.422s1.408 0.637 1.408 1.422z"></path>
<path fill="#0072c6" d="M20.302 7.067c0 0.785-0.631 1.422-1.408 1.422s-1.408-0.637-1.408-1.422c0-0.785 0.631-1.422 1.408-1.422s1.408 0.637 1.408 1.422z"></path>
<path fill="#0072c6" d="M13.166 20.578c0 0.785-0.63 1.422-1.408 1.422s-1.408-0.637-1.408-1.422c0-0.785 0.63-1.422 1.408-1.422s1.408 0.637 1.408 1.422z"></path>
<path fill="#0072c6" d="M5.414 5.817c1.51-1.595 3.634-2.586 5.987-2.586 2.342 0 4.459 0.984 5.969 2.568 0.261-0.328 0.631-0.572 1.048-0.677-0.092-0.106-0.194-0.212-0.3-0.314-0.871-0.882-1.887-1.57-3.020-2.057-1.175-0.501-2.417-0.751-3.704-0.751-1.284 0-2.529 0.254-3.701 0.751-1.132 0.487-2.148 1.175-3.023 2.057-0.106 0.106-0.205 0.215-0.303 0.321 0.427 0.113 0.783 0.356 1.048 0.688zM20.364 8.406c-0.279 0.314-0.656 0.533-1.083 0.621 0.258 0.811 0.399 1.672 0.399 2.572 0 3.877-2.611 7.137-6.156 8.082 0.134 0.275 0.212 0.575 0.212 0.903 0 0.113-0.011 0.226-0.028 0.332 0.473-0.12 0.938-0.279 1.39-0.469 1.132-0.487 2.148-1.171 3.020-2.057 0.875-0.882 1.556-1.909 2.039-3.052 0.497-1.185 0.744-2.441 0.744-3.739 0-1.101-0.176-2.173-0.536-3.193zM9.922 19.826c-3.866-0.706-6.802-4.12-6.802-8.23 0-0.896 0.141-1.757 0.399-2.568-0.427-0.078-0.804-0.296-1.090-0.596-0.353 1.012-0.529 2.071-0.529 3.164 0 1.295 0.254 2.554 0.744 3.739 0.483 1.143 1.164 2.166 2.036 3.052 0.875 0.882 1.891 1.57 3.023 2.053 0.688 0.296 1.404 0.504 2.134 0.624-0.039-0.155-0.056-0.321-0.056-0.487-0.007-0.265 0.046-0.522 0.141-0.751z"></path>
</svg>
