<!-- Generated by IcoMoon.io -->
<svg version="1.1" xmlns="http://www.w3.org/2000/svg" width="35" height="32" viewBox="0 0 35 32">
<title>IP-Group</title>
<path fill="#83b9f9" d="M9.598 16.932h8.988v5.158c-0 0.172-0.135 0.31-0.302 0.311h-8.384c-0.167-0-0.302-0.139-0.302-0.311v-5.158z"></path>
<path fill="#1f56a3" d="M9.9 20.427h8.384c0.167 0 0.302 0.139 0.302 0.311v1.663h-8.988v-1.663c0-0.172 0.135-0.31 0.302-0.311v0z"></path>
<path fill="#f2f2f2" d="M10.807 10.832c0 0.086 0.068 0.156 0.152 0.156l6.268-0.001c0.084 0 0.152-0.070 0.152-0.156v0l-0.002-0.482c0-0.086-0.068-0.156-0.152-0.156l-6.265-0.002c-0.084 0-0.152 0.070-0.152 0.156v0l-0.001 0.485z"></path>
<path fill="#83b9f9" d="M13.101 14.243h8.997v5.158c-0 0.172-0.135 0.31-0.302 0.311h-8.393c-0.167-0-0.302-0.139-0.302-0.311v-5.158z"></path>
<path fill="#1f56a3" d="M13.404 12.278h8.384c0.167 0 0.302 0.139 0.302 0.31v1.654h-8.98v-1.654c0-0.168 0.13-0.306 0.293-0.311h0z"></path>
<path fill="#f2f2f2" d="M14.311 13.512c0 0.086 0.068 0.156 0.152 0.156l6.268-0.001c0.084 0 0.152-0.070 0.152-0.156v0l-0.002-0.482c0-0.086-0.068-0.156-0.152-0.156l-6.265-0.002c-0.084 0-0.152 0.070-0.152 0.156v0l-0.001 0.485z"></path>
<path fill="#000" d="M16.614 16.932h8.988v5.158c-0 0.172-0.135 0.31-0.302 0.311h-8.384c-0.167-0-0.302-0.139-0.302-0.311v-5.158z"></path>
<path fill="#0078d4" d="M16.916 14.958h8.384c0.167 0 0.302 0.139 0.302 0.31v1.663h-8.988v-1.663c0-0.171 0.135-0.31 0.302-0.311v0z"></path>
<path fill="#0078d4" d="M23.859 19.329c0 0.414-0.326 0.75-0.729 0.75s-0.729-0.336-0.729-0.75c0-0.414 0.326-0.75 0.729-0.75s0.729 0.336 0.729 0.75z"></path>
<path fill="#0078d4" d="M21.868 19.329c0 0.414-0.326 0.75-0.729 0.75s-0.729-0.336-0.729-0.75c0-0.414 0.326-0.75 0.729-0.75s0.729 0.336 0.729 0.75z"></path>
<path fill="#0078d4" d="M19.814 19.329c0 0.414-0.326 0.75-0.729 0.75s-0.729-0.336-0.729-0.75c0-0.414 0.326-0.75 0.729-0.75s0.729 0.336 0.729 0.75z"></path>
<path fill="#f2f2f2" d="M17.823 16.191c0 0.086 0.068 0.156 0.152 0.156l6.268-0.001c0.084 0 0.152-0.070 0.152-0.156v0l-0.002-0.482c0-0.086-0.068-0.156-0.152-0.156l-6.265-0.002c-0.084 0-0.152 0.070-0.152 0.156v0l-0.001 0.485z"></path>
</svg>
