<!-- Generated by IcoMoon.io -->
<svg version="1.1" xmlns="http://www.w3.org/2000/svg" width="22" height="32" viewBox="0 0 22 32">
<title>Java</title>
<path fill="#5382a1" d="M8.367 18.349c0 0-0.693 0.411 0.493 0.549 0.432 0.065 0.931 0.102 1.438 0.102 0.82 0 1.618-0.097 2.383-0.281l-0.070 0.014c0.283 0.176 0.611 0.342 0.954 0.48l0.044 0.016c-3.547 1.55-8.027-0.089-5.242-0.89v0.010zM7.933 16.329c0 0-0.775 0.591 0.411 0.713 0.516 0.066 1.114 0.103 1.72 0.103 1.106 0 2.183-0.125 3.219-0.362l-0.098 0.019c0.206 0.203 0.454 0.365 0.728 0.471l0.015 0.005c-4.286 1.265-9.062 0.089-5.994-0.949z"></path>
<path fill="#e76f00" d="M11.586 12.898c0.874 1.028-0.23 1.951-0.23 1.951s2.22-1.166 1.199-2.631c-0.949-1.363-1.682-2.040 2.273-4.375 0 0-6.204 1.58-3.242 5.045v0.010z"></path>
<path fill="#5382a1" d="M16.278 19.845c0 0 0.512 0.43-0.555 0.762-2.036 0.631-8.52 0.821-10.32 0.023-0.644-0.296 0.565-0.683 0.949-0.769 0.173-0.044 0.371-0.069 0.575-0.069 0.017 0 0.034 0 0.052 0.001l-0.003-0c-0.719-0.519-4.657 1.015-1.994 1.448 7.229 1.189 13.181-0.535 11.305-1.399l-0.010 0.003zM8.7 14.235c0 0-3.294 0.798-1.166 1.084 0.578 0.049 1.251 0.077 1.93 0.077 0.859 0 1.707-0.045 2.544-0.132l-0.105 0.009c1.36-0.115 2.729-0.365 2.729-0.365-0.321 0.143-0.592 0.293-0.85 0.464l0.022-0.014c-3.344 0.89-9.801 0.48-7.942-0.437 0.82-0.433 1.79-0.687 2.818-0.687 0.011 0 0.021 0 0.032 0h-0.011zM14.606 17.598c3.399-1.803 1.829-3.531 0.729-3.288-0.15 0.029-0.28 0.067-0.405 0.114l0.018-0.006c0.071-0.103 0.17-0.183 0.285-0.228l0.004-0.001c2.171-0.775 3.84 2.293-0.7 3.511 0.027-0.026 0.050-0.056 0.066-0.090l0.001-0.002 0.002-0.010z"></path>
<path fill="#e76f00" d="M12.556 4.069c0 0 1.885 1.935-1.78 4.871-2.94 2.375-0.67 3.718 0 5.262-1.718-1.58-2.979-2.969-2.132-4.26 1.238-1.902 4.677-2.821 3.918-5.869l-0.007-0.003z"></path>
<path fill="#5382a1" d="M4.877 22.477c3.265 0.213 8.274-0.118 8.392-1.692 0 0-0.227 0.591-2.693 1.071-1.366 0.251-2.938 0.395-4.542 0.395-1.31 0-2.599-0.096-3.859-0.281l0.144 0.017c0 0 0.42 0.335 2.559 0.489z"></path>
</svg>
