<!-- Generated by IcoMoon.io -->
<svg version="1.1" xmlns="http://www.w3.org/2000/svg" width="32" height="32" viewBox="0 0 32 32">
<title>Key-Vault</title>
<path fill="#000" d="M15.924 8.608c-0 0-0 0-0 0-4.041 0-7.316 3.31-7.316 7.393s3.276 7.393 7.316 7.393c4.041 0 7.316-3.31 7.316-7.393 0-0 0-0.001 0-0.001v0c-0.006-4.080-3.278-7.387-7.315-7.392h-0zM15.924 22.384c-0.001 0-0.001 0-0.002 0-3.489 0-6.318-2.858-6.318-6.384s2.829-6.384 6.318-6.384c3.489 0 6.318 2.858 6.318 6.384v0c0 0 0 0 0 0 0 3.525-2.828 6.383-6.316 6.384h-0z"></path>
<path fill="#fff" d="M22.241 16c0 3.526-2.829 6.384-6.318 6.384s-6.318-2.858-6.318-6.384c0-3.526 2.829-6.384 6.318-6.384s6.318 2.858 6.318 6.384z"></path>
<path fill="#000" d="M19.746 14.546c0.283-0.289 0.458-0.686 0.458-1.125s-0.175-0.836-0.458-1.125l0 0-2.714-2.749c-0.285-0.286-0.677-0.462-1.11-0.462s-0.825 0.177-1.11 0.463l0-0-2.711 2.749c-0.283 0.289-0.458 0.686-0.458 1.125s0.175 0.836 0.458 1.125l-0-0 2.256 2.324c0.080 0.080 0.129 0.191 0.129 0.314v4.243c0 0.149 0.059 0.284 0.155 0.382l-0-0 1.033 1.046c0.064 0.064 0.152 0.104 0.249 0.104s0.186-0.040 0.249-0.104v0l1.585-1.6c0.036-0.039 0.057-0.091 0.057-0.148s-0.022-0.109-0.058-0.148l0 0-0.423-0.428c-0.039-0.042-0.063-0.099-0.063-0.161s0.024-0.119 0.063-0.161l-0 0 0.423-0.425c0.036-0.039 0.057-0.091 0.057-0.148s-0.022-0.109-0.058-0.148l0 0-0.423-0.426c-0.039-0.042-0.063-0.099-0.063-0.161s0.024-0.119 0.063-0.161l-0 0 0.423-0.427c0.036-0.039 0.057-0.091 0.057-0.148s-0.022-0.109-0.058-0.148l0 0-0.585-0.6v-0.218l2.574-2.653zM15.924 10.215c0.493 0 0.892 0.403 0.892 0.901s-0.399 0.901-0.892 0.901v0c-0.493 0-0.892-0.403-0.892-0.901s0.399-0.901 0.892-0.901v0z"></path>
<path fill="#ff9300" opacity="0.75" d="M15.218 21.48c0.034 0.030 0.080 0.048 0.129 0.048 0.108 0 0.196-0.087 0.198-0.196v-0l-0.001-3.48c-0.001-0.073-0.038-0.137-0.094-0.173l-0.001-0c-0.029-0.020-0.065-0.031-0.104-0.031-0.105 0-0.189 0.086-0.189 0.191 0 0.005 0 0.010 0.001 0.015l-0-0.001 0 3.478c0.003 0.057 0.026 0.108 0.060 0.148l-0-0z"></path>
<path fill="#ff9300" opacity="0.75" d="M13.754 13.495c0 0.134 0.108 0.244 0.241 0.244l3.969-0.001c0.133 0 0.241-0.109 0.241-0.244v0l-0.001-0.043c0-0.134-0.108-0.244-0.241-0.244l-3.969-0.002c-0.133 0-0.241 0.109-0.241 0.244v0l0.001 0.045z"></path>
<path fill="#ff9300" opacity="0.75" d="M13.754 14.357c0 0.134 0.108 0.244 0.241 0.244l3.969-0.001c0.133 0 0.241-0.109 0.241-0.244v0l-0.001-0.043c0-0.134-0.108-0.244-0.241-0.244l-3.969-0.002c-0.133 0-0.241 0.109-0.241 0.244v0l0.001 0.045z"></path>
</svg>
