<!-- Generated by IcoMoon.io -->
<svg version="1.1" xmlns="http://www.w3.org/2000/svg" width="28" height="32" viewBox="0 0 28 32">
<title>Key-Vault-HSM</title>
<path fill="#3e3e3e" d="M23.029 14.479h-18.387c-0 0-0 0-0 0-0.495 0-0.897 0.394-0.897 0.879v0 5.671c0 0.488 0.402 0.879 0.897 0.879h18.387c0 0 0 0 0 0 0.495 0 0.897-0.394 0.897-0.879v0-5.671c0-0.484-0.402-0.879-0.897-0.879z"></path>
<path fill="#fff" opacity="0.2" d="M19.398 14.479h-14.756c-0 0-0 0-0 0-0.495 0-0.897 0.394-0.897 0.879v0 5.671c0 0.488 0.402 0.879 0.897 0.879h3.453l11.302-7.429z"></path>
<path fill="#b8d432" d="M21.103 15.974h1.21v1.185h-1.21v-1.185zM18.679 15.974h1.21v1.185h-1.21v-1.185zM16.258 15.974h1.21v1.185h-1.21v-1.185z"></path>
<path fill="#fcd116" d="M17.831 7.863c0-2.275-1.876-4.119-4.197-4.119-2.317 0-4.197 1.844-4.197 4.119 0 1.929 1.36 3.546 3.19 3.991v4.913h-2.018v1.979h2.018v1.581h2.018v-8.472c1.83-0.445 3.186-2.061 3.186-3.991zM13.634 10.016c-1.21 0-2.2-0.968-2.2-2.154 0-1.189 0.99-2.157 2.2-2.157 1.214 0 2.2 0.968 2.2 2.157 0 1.185-0.986 2.154-2.2 2.154z"></path>
</svg>
