<!-- Generated by IcoMoon.io -->
<svg version="1.1" xmlns="http://www.w3.org/2000/svg" width="33" height="32" viewBox="0 0 33 32">
<title>Lab-Service</title>
<path fill="#000" d="M23.814 16.069c-0.053-1.625-1.291-2.949-2.887-3.162l-0.017-0.002c-0.095-2.216-1.941-3.977-4.204-3.977-0.044 0-0.087 0.001-0.13 0.002l0.006-0c-0.023-0-0.049-0.001-0.076-0.001-1.849 0-3.431 1.132-4.070 2.731l-0.010 0.029c-1.946 0.236-3.445 1.831-3.498 3.781l-0 0.005c0.086 2.134 1.861 3.831 4.038 3.831 0.054 0 0.107-0.001 0.161-0.003l-0.008 0c0.055 0.004 0.118 0.006 0.182 0.006s0.128-0.002 0.191-0.007l-0.008 0h6.78c0.026 0.004 0.057 0.007 0.088 0.007s0.062-0.003 0.091-0.007l-0.003 0c1.831-0 3.321-1.438 3.374-3.23l0-0.005z"></path>
<path fill="#000" d="M17.788 23.073h-8.432c-0.27 0-0.428-0.423-0.278-0.649l2.904-4.172c0.038-0.049 0.061-0.11 0.061-0.177 0-0.004-0-0.008-0-0.012l0 0.001v-2.76c-0.005-0.089-0.076-0.159-0.166-0.164l-0-0-0.157-0.002c-0 0-0.001 0-0.001 0-0.184 0-0.332-0.147-0.332-0.328 0-0 0-0 0-0.001v0-0.144c0-0 0-0 0-0.001 0-0.181 0.149-0.328 0.332-0.328 0 0 0.001 0 0.001 0h3.7c0.183 0.001 0.331 0.147 0.331 0.328 0 0 0 0 0 0.001v-0 0.144c0 0 0 0 0 0.001 0 0.18-0.148 0.327-0.331 0.328h-0.158c-0.092 0-0.166 0.073-0.166 0.164v0l-0.002 2.769c0 0.001 0 0.002 0 0.003 0 0.070 0.024 0.135 0.064 0.187l-0.001-0.001 2.904 4.165c0.147 0.215-0.011 0.649-0.273 0.649z"></path>
<path fill="#fff" d="M14 21.952l2.206-3.175c0.099-0.123 0.162-0.278 0.173-0.447l0-0.002v-1.276c0-0.138 0.114-0.25 0.254-0.25v0l1.261 0.001c0.14 0 0.254 0.112 0.254 0.25v0l-0.002 1.362c0 0.113 0.037 0.218 0.098 0.304l-0.001-0.002 2.256 3.235c0.019 0.030 0.030 0.065 0.030 0.104 0 0.105-0.082 0.191-0.187 0.198l-0.001 0-6.121 0c-0.023 0.010-0.049 0.016-0.076 0.016-0.106 0-0.192-0.085-0.192-0.19 0-0.049 0.019-0.094 0.050-0.128l-0 0z"></path>
</svg>
