<!-- Generated by IcoMoon.io -->
<svg version="1.1" xmlns="http://www.w3.org/2000/svg" width="22" height="32" viewBox="0 0 22 32">
<title>License</title>
<path fill="#59b4d9" d="M14.766 8.4c0 1.949-1.572 3.521-3.521 3.521-1.945 0-3.521-1.572-3.521-3.521 0.035-1.949 1.607-3.521 3.521-3.521 0.002 0 0.003 0 0.005 0 1.942 0 3.516 1.574 3.516 3.516 0 0.002 0 0.004 0 0.005v-0zM13.809 13.015l-2.564 3.591-2.561-3.591h-3.805v9.041h12.658v-9.041h-3.728z"></path>
<path fill="#fff" opacity="0.2" d="M7.759 8.4c0 1.913 1.54 3.454 3.419 3.521l0.89-6.905c-0.274-0.102-0.549-0.137-0.823-0.137-1.914 0-3.486 1.572-3.486 3.521zM8.684 13.015h-3.805v9.041h5.033l0.788-6.177-2.016-2.864z"></path>
<path fill="#dd5900" d="M16.676 16.962c0 1.204-0.976 2.181-2.181 2.181s-2.181-0.976-2.181-2.181c0-1.204 0.976-2.181 2.181-2.181s2.181 0.976 2.181 2.181z"></path>
<path fill="#fcd116" opacity="0.7" d="M16.131 16.962c0 0.903-0.732 1.636-1.636 1.636s-1.636-0.732-1.636-1.636c0-0.903 0.732-1.636 1.636-1.636s1.636 0.732 1.636 1.636z"></path>
<path fill="#dd5900" d="M14.496 18.597c0 0-0 0-0 0-0.636 0-1.216-0.244-1.651-0.643l0.002 0.002-0.258 4.975 1.878-1.878 1.91 1.907 0.026-0.274-0.262-4.73c-0.432 0.397-1.010 0.64-1.645 0.641h-0z"></path>
</svg>
