<!-- Generated by IcoMoon.io -->
<svg version="1.1" xmlns="http://www.w3.org/2000/svg" width="32" height="32" viewBox="0 0 32 32">
<title>Load-Balancer</title>
<path fill="#000" d="M8.872 15.649l6.78-6.78c0.089-0.089 0.213-0.145 0.349-0.145s0.26 0.055 0.349 0.145v0l6.78 6.78c0.090 0.089 0.145 0.213 0.145 0.349s-0.055 0.26-0.145 0.349v0l-6.788 6.785c-0.088 0.088-0.209 0.142-0.343 0.142s-0.255-0.054-0.343-0.142v0l-6.788-6.785c-0.089-0.089-0.144-0.212-0.144-0.348 0-0.137 0.056-0.261 0.146-0.35l0-0z"></path>
<path fill="#b4ec36" d="M17.778 11.967l-1.714-1.714c-0.016-0.016-0.037-0.026-0.061-0.026s-0.046 0.010-0.061 0.026v0l-1.717 1.714c-0.016 0.016-0.025 0.037-0.025 0.061 0 0.048 0.039 0.087 0.087 0.087l1.009 0c0.048 0 0.087 0.039 0.087 0.087v0l-0 1.622c0 0.048 0.039 0.087 0.087 0.087v0h1.065c0.048 0 0.087-0.039 0.087-0.087v0l-0-1.624c0-0.048 0.039-0.087 0.087-0.087v0h1.009c0 0 0 0 0 0 0.048 0 0.087-0.039 0.087-0.087 0-0.024-0.009-0.045-0.024-0.061l0 0zM11.981 14.071l-1.717 1.714c-0.016 0.016-0.025 0.038-0.025 0.062s0.010 0.046 0.025 0.062v0l1.714 1.714c0.016 0.016 0.038 0.026 0.062 0.026 0.048 0 0.086-0.039 0.086-0.086 0-0 0-0.001 0-0.001v0l0-1.009c0-0.048 0.039-0.087 0.087-0.087v0h1.624c0.048 0 0.087-0.039 0.087-0.087v0l-0-1.065c0-0.048-0.039-0.087-0.087-0.087v0h-1.622c-0.048 0-0.087-0.039-0.087-0.087v0l0-1.006c-0-0.048-0.039-0.087-0.087-0.087-0.024 0-0.046 0.010-0.061 0.025v0zM20.111 17.623l1.709-1.714c0.016-0.016 0.025-0.038 0.025-0.062s-0.010-0.046-0.025-0.062v0l-1.709-1.714c-0.016-0.016-0.038-0.026-0.062-0.026-0.048 0-0.087 0.039-0.087 0.087 0 0 0 0 0 0v0l-0.002 1.006c0 0.048-0.039 0.087-0.087 0.087h-1.622c-0.048 0-0.087 0.039-0.087 0.087v0l0 1.065c0 0.048 0.039 0.087 0.087 0.087v0h1.622c0.048 0 0.087 0.039 0.087 0.087v0l-0 1.009c0 0 0 0 0 0 0 0.048 0.039 0.087 0.087 0.087 0.024 0 0.046-0.010 0.062-0.026v0z"></path>
<path fill="#fff" d="M18.259 15.992c0-0.003 0-0.006 0-0.009 0-1.244-1.008-2.252-2.252-2.252s-2.252 1.008-2.252 2.252c0 1.027 0.687 1.893 1.627 2.164l0.016 0.004v0.765c-0.458 0.234-0.767 0.702-0.767 1.243 0 0.768 0.623 1.39 1.391 1.39s1.391-0.623 1.391-1.39c0-0.533-0.3-0.995-0.739-1.229l-0.008-0.004v-0.79c0.928-0.288 1.591-1.138 1.594-2.143v-0z"></path>
<path fill="#5ea0ef" d="M17.315 15.991c0 0.722-0.586 1.308-1.308 1.308s-1.308-0.586-1.308-1.308c0-0.722 0.586-1.308 1.308-1.308s1.308 0.586 1.308 1.308z"></path>
</svg>
