<!-- Generated by IcoMoon.io -->
<svg version="1.1" xmlns="http://www.w3.org/2000/svg" width="27" height="32" viewBox="0 0 27 32">
<title>Local-Network-Gateway</title>
<path fill="#57a300" d="M13.332 22.676c-0.447 0-0.895-0.188-1.227-0.523l-7.559-7.572c-0.332-0.336-0.52-0.783-0.52-1.23s0.188-0.895 0.52-1.23l7.559-7.572c0.332-0.336 0.78-0.52 1.227-0.52s0.895 0.184 1.227 0.52l7.595 7.609c0.336 0.339 0.52 0.747 0.52 1.234 0 0.447-0.184 0.895-0.52 1.23l-7.595 7.533c-0.332 0.336-0.78 0.523-1.227 0.523z"></path>
<path fill="#fff" opacity="0.15" d="M14.559 8.353c-0.332-0.336-0.78-0.523-1.227-0.523s-0.895 0.188-1.227 0.523l-7.559 7.572c-0.332 0.336-0.52 0.783-0.52 1.23s0.188 0.895 0.52 1.23l4.283 4.29 8.076-11.974-2.345-2.349z"></path>
<path fill="#fff" d="M13.333 5.666l-2.457 2.464h1.75v3.579h1.451v-3.579h1.714l-2.457-2.464zM13.333 21.035l2.457-2.461h-1.75v-3.507h-1.454v3.507h-1.711l2.457 2.461zM14.488 13.35l2.454 2.464v-1.717h3.316v-1.493h-3.316v-1.714l-2.454 2.461zM12.215 13.35l-2.457-2.461v1.714h-3.349v1.493h3.349v1.717l2.457-2.464z"></path>
</svg>
