<!-- Generated by IcoMoon.io -->
<svg version="1.1" xmlns="http://www.w3.org/2000/svg" width="32" height="32" viewBox="0 0 32 32">
<title>Log-Analytics-Workspace</title>
<path fill="#000" d="M13.063 19.558h3.72v3.72h-3.72v-3.72zM9.238 23.278h3.204v-3.72h-3.72v3.204c0 0.285 0.231 0.516 0.516 0.516h0zM8.722 18.972h3.72v-3.756h-3.72v3.756z"></path>
<path fill="#000" d="M18.153 8.721c0.016-0 0.034-0 0.053-0 2.802 0 5.073 2.271 5.073 5.073 0 0.034-0 0.067-0.001 0.101l0-0.005c0 0.015 0 0.034 0 0.052 0 2.802-2.271 5.073-5.073 5.073-0.018 0-0.037-0-0.055-0l0.003 0h-5.125v-5.168c-0-0.015-0-0.034-0-0.052 0-2.802 2.271-5.073 5.073-5.073 0.018 0 0.037 0 0.055 0l-0.003-0z"></path>
<path fill="#fff" d="M14.785 13.114h1.171v3.515h-1.171v-3.515zM17.127 14.287h1.173v2.342h-1.173v-2.342zM19.471 11.943h1.171v4.686h-1.171v-4.686z"></path>
</svg>
