<!-- Generated by IcoMoon.io -->
<svg version="1.1" xmlns="http://www.w3.org/2000/svg" width="32" height="32" viewBox="0 0 32 32">
<title>Log-Analytics-Solution</title>
<path fill="#000" d="M13.065 19.524h3.719v3.321c-0 0.237-0.193 0.429-0.43 0.429-0 0-0 0-0.001 0h-3.287v-3.749zM9.241 23.233h3.203v-3.708h-3.719v3.192c0 0 0 0.001 0 0.001 0 0.284 0.231 0.515 0.516 0.515h0zM8.725 18.939h3.719v-3.742h-3.287c-0 0-0 0-0.001 0-0.238 0-0.43 0.192-0.43 0.429v3.313z"></path>
<path fill="#000" d="M18.152 8.724c0.016-0 0.034-0 0.053-0 2.8 0 5.071 2.264 5.071 5.056 0 0.033-0 0.067-0.001 0.1l0-0.005c0 0.015 0 0.033 0 0.052 0 2.792-2.27 5.056-5.071 5.056-0.018 0-0.037-0-0.055-0l0.003 0h-5.122v-5.148c-0-0.016-0-0.035-0-0.054 0-2.792 2.27-5.056 5.071-5.056 0.018 0 0.037 0 0.055 0l-0.003-0z"></path>
<path fill="#fff" d="M21.303 11.034c-0 0-0.001 0-0.001 0-0.475 0-0.861 0.384-0.861 0.858 0 0 0 0.001 0 0.001v-0c0.002 0.202 0.073 0.387 0.191 0.533l-0.001-0.002-1.437 2.566h-0.113c-0.169 0.003-0.326 0.054-0.457 0.141l0.003-0.002-1.111-1.134c0.043-0.098 0.069-0.213 0.069-0.333v-0c0-0.486-0.395-0.88-0.883-0.88s-0.883 0.394-0.883 0.88v0c0.003 0.151 0.044 0.293 0.115 0.415l-0.002-0.004-1.009 1.322c-0.036-0.004-0.078-0.007-0.121-0.007s-0.084 0.002-0.126 0.007l0.005-0c-0.475 0.001-0.86 0.385-0.86 0.858s0.385 0.858 0.861 0.858c0.475 0 0.86-0.384 0.861-0.857v-0c-0.004-0.149-0.045-0.287-0.115-0.407l0.002 0.004 1.060-1.332c0.032 0.004 0.070 0.007 0.108 0.007s0.075-0.002 0.112-0.007l-0.004 0c0.112-0.005 0.217-0.030 0.314-0.072l-0.006 0.002 1.214 1.273c-0.002 0.023-0.003 0.050-0.003 0.077s0.001 0.054 0.003 0.080l-0-0.003c0 0.474 0.385 0.858 0.861 0.858s0.861-0.384 0.861-0.858v0c-0.006-0.194-0.069-0.372-0.174-0.519l0.002 0.003 1.437-2.574h0.087c0.475-0.001 0.86-0.385 0.86-0.858 0-0 0-0.001 0-0.001v0c0-0.010 0.001-0.023 0.001-0.035 0-0.474-0.385-0.858-0.86-0.858h-0z"></path>
</svg>
