<!-- Generated by IcoMoon.io -->
<svg version="1.1" xmlns="http://www.w3.org/2000/svg" width="32" height="32" viewBox="0 0 32 32">
<title>Logic-App-Custom-Connecton</title>
<path fill="#949494" d="M19.113 20.13v-0.91h-6.323v-5.542h-0.91v6.453h7.233z"></path>
<path fill="#000" d="M11.941 16.661l-2.741 2.758c-0.084 0.086-0.136 0.204-0.136 0.334s0.052 0.248 0.137 0.334l-0-0 2.741 2.714c0.086 0.084 0.203 0.135 0.333 0.135s0.247-0.052 0.333-0.135l2.74-2.74c0.084-0.086 0.136-0.204 0.136-0.334s-0.052-0.248-0.137-0.334l0 0-2.741-2.731c-0.086-0.084-0.203-0.135-0.333-0.135s-0.247 0.052-0.333 0.135l0-0z"></path>
<path fill="#000" d="M14.636 13.208v-3.675c0-0.001 0-0.002 0-0.004 0-0.243-0.185-0.442-0.421-0.466l-0.002-0h-3.722c-0.258 0.001-0.467 0.21-0.467 0.468 0 0.001 0 0.001 0 0.002v-0 3.675c0 0 0 0.001 0 0.002 0 0.258 0.209 0.468 0.467 0.468h3.722c0.239-0.024 0.423-0.223 0.423-0.466 0-0.001 0-0.003-0-0.004v0z"></path>
<path fill="#000" d="M18.323 17.839v3.668c0 0 0 0.001 0 0.002 0 0.258 0.209 0.468 0.467 0.468h3.678c0.258-0.001 0.467-0.21 0.467-0.468 0-0.001 0-0.001 0-0.002v0-3.668c-0.001-0.258-0.209-0.467-0.467-0.467h-3.678c-0.258 0.001-0.467 0.209-0.467 0.467v0z"></path>
</svg>
