<!-- Generated by IcoMoon.io -->
<svg version="1.1" xmlns="http://www.w3.org/2000/svg" width="36" height="32" viewBox="0 0 36 32">
<title>Logic-App</title>
<path fill="#949494" d="M12.476 22.080c-0.056 0.005-0.122 0.007-0.188 0.007-0.471 0-0.911-0.133-1.28-0.361l0.009 0.006c-0.272-0.279-0.44-0.657-0.44-1.072 0-0.064 0.004-0.126 0.012-0.188l-0.001 0.007v-3.251c0-0.535-0.22-0.821-0.678-0.821v-0.812c0.457 0 0.678-0.283 0.678-0.846v-3.197c-0.006-0.052-0.010-0.113-0.010-0.175 0-0.425 0.166-0.812 0.44-1.105l-0.001 0.001c0.343-0.228 0.768-0.364 1.226-0.364 0.082 0 0.163 0.004 0.242 0.013l-0.010-0.001v0.821c-0.486 0-0.752 0.249-0.752 0.783v3.131c0 0.718-0.22 1.161-0.706 1.344 0.432 0.224 0.72 0.657 0.72 1.156 0 0.066-0.005 0.132-0.015 0.195l0.001-0.007v3.105c-0.001 0.014-0.001 0.031-0.001 0.048 0 0.213 0.060 0.412 0.164 0.583l-0.003-0.005c0.126 0.115 0.297 0.186 0.485 0.186 0.025 0 0.049-0.001 0.073-0.004l-0.003 0v0.821h0.037z"></path>
<path fill="#949494" d="M23.555 9.922c0.055-0.004 0.119-0.007 0.183-0.007 0.473 0 0.914 0.134 1.284 0.364l-0.009-0.005c0.272 0.279 0.44 0.657 0.44 1.072 0 0.063-0.004 0.126-0.012 0.188l0.001-0.007v3.251c0 0.535 0.22 0.818 0.678 0.818v0.812c-0.457 0-0.678 0.286-0.678 0.846v3.159c0.007 0.055 0.010 0.118 0.010 0.182 0 0.426-0.167 0.815-0.441 1.109l0.001-0.002c-0.349 0.242-0.786 0.386-1.257 0.386-0.071 0-0.141-0.003-0.21-0.010l0.009 0.001v-0.821c0.486 0 0.752-0.246 0.752-0.781v-3.134c0-0.718 0.22-1.158 0.706-1.344-0.432-0.224-0.72-0.657-0.72-1.156 0-0.066 0.005-0.132 0.015-0.195l-0.001 0.007v-3.105c0.001-0.014 0.001-0.031 0.001-0.048 0-0.213-0.060-0.412-0.164-0.583l0.003 0.005c-0.126-0.115-0.297-0.186-0.485-0.186-0.025 0-0.049 0.001-0.073 0.004l0.003-0-0.037-0.821z"></path>
<path fill="#005ba1" d="M18.407 15.402v-1.169h-0.858v1.169c0 0.092-0.077 0.166-0.172 0.166v0l-3.176 0c-0.19 0-0.343 0.149-0.343 0.332 0 0 0 0 0 0v0 1.521h0.858v-0.838c0-0 0-0 0-0 0-0.088 0.072-0.16 0.162-0.166l0-0 6.237-0c0.095 0 0.172 0.074 0.172 0.166v0l-0 0.855h0.849v-1.538c0-0 0-0 0-0 0-0.18-0.149-0.327-0.334-0.331h-3.223c-0.095 0-0.172-0.074-0.172-0.166v0z"></path>
<path fill="#0078d4" d="M19.55 10.668h-3.202c-0 0-0.001 0-0.001 0-0.198 0-0.358 0.153-0.362 0.343v3.094c0 0.188 0.158 0.34 0.353 0.34 0.004 0 0.007-0 0.011-0h3.202c0.006 0 0.012 0.001 0.019 0.001 0.195 0 0.353-0.153 0.353-0.341v0-3.094c-0.004-0.19-0.165-0.343-0.362-0.343-0.003 0-0.007 0-0.010 0h0zM19.247 13.59c-0.005 0.123-0.11 0.221-0.238 0.221-0 0-0 0-0 0l-2.129-0.001c-0 0-0 0-0 0-0.128 0-0.233-0.098-0.238-0.221v-0l0.001-2.055c0-0.127 0.107-0.23 0.238-0.23l2.089 0.002c0.132 0 0.238 0.103 0.238 0.23v0l0.039 2.054z"></path>
<path fill="#000" d="M12.848 19.888c0 0.137 0.115 0.249 0.257 0.249l2.287 0c0.142 0 0.257-0.111 0.257-0.249v0l-0-2.21c0-0.137-0.115-0.249-0.257-0.249l-2.287-0c-0.142 0-0.257 0.111-0.257 0.249v0l0 2.21z"></path>
<path fill="#000" d="M20.285 19.906c0 0.137 0.115 0.249 0.257 0.249l2.287 0c0.142 0 0.257-0.111 0.257-0.249v0l-0-2.21c0-0.137-0.115-0.249-0.257-0.249l-2.287-0c-0.142 0-0.257 0.111-0.257 0.249v0l0 2.21z"></path>
</svg>
