<!-- Generated by IcoMoon.io -->
<svg version="1.1" xmlns="http://www.w3.org/2000/svg" width="32" height="32" viewBox="0 0 32 32">
<title>Machine-Learning-Studio-Web-Service-Plan-Classic</title>
<path fill="#a0a1a2" d="M11.11 12.125l0.144-0.144 0.844 0.847-0.141 0.141-0.847-0.844zM20.89 16.591h1.35v0.241h-1.35v-0.241zM20.934 14.419l1.052-0.375 0.064 0.182-1.050 0.375-0.067-0.182zM18.136 11.378l0.331-1.132 0.192 0.056-0.331 1.132-0.192-0.056zM13.099 10.616l0.162-0.090 0.472 0.857-0.162 0.087-0.472-0.855zM15.611 9.939h0.244v1.35h-0.244v-1.35z"></path>
<path fill="#a0a1a2" d="M11.11 12.124l0.144-0.144 0.844 0.847-0.141 0.144-0.847-0.847zM20.89 16.589h1.35v0.244h-1.35v-0.244zM20.934 14.418l1.052-0.375 0.064 0.185-1.050 0.372-0.067-0.182zM18.136 11.38l0.331-1.134 0.192 0.059-0.331 1.132-0.192-0.056zM13.099 10.615l0.162-0.090 0.472 0.857-0.162 0.090-0.472-0.857zM17.408 14.544c-0.357 0.421-0.518 0.462-1.334 1.406 0.463 0.209 0.83 0.561 1.052 0.999l0.006 0.012c0.639-0.744 0.932-0.944 1.35-1.437l2.425-3.906-3.498 2.926zM15.467 17.3l0.613 1.019c0.311-0.168 0.518-0.491 0.518-0.863 0-0.001 0-0.001 0-0.002v0c-0.030-0.56-0.492-1.003-1.057-1.003-0.026 0-0.052 0.001-0.078 0.003l0.003-0v0.847z"></path>
<path fill="#a0a1a2" d="M21.085 10.81c-1.324-1.289-3.134-2.084-5.13-2.084-0.001 0-0.002 0-0.003 0h0c-0 0-0 0-0.001 0-3.985 0-7.216 3.225-7.226 7.208v1.027c0.107 0.737 0.664 1.319 1.38 1.461l0.011 0.002 0.387-0.685c-0.042 0.006-0.090 0.010-0.139 0.010-0.545 0-0.986-0.442-0.986-0.986 0-0.018 0-0.035 0.001-0.053l-0 0.002v-1.293c0 0 0.162-0.744 0.234-1.011 0.651-2.936 3.233-5.1 6.32-5.1 0.024 0 0.047 0 0.071 0l-0.004-0c0.014-0 0.031-0 0.048-0 3.631 0 6.579 2.928 6.611 6.551l0 0.003v0.857c0 1.042-0.688 1.050-1.365 1.050h-4.139c-0.090 0.654-0.346 0.654-0.346 0.654h4.904c0.062 0.010 0.134 0.016 0.208 0.016 0.75 0 1.358-0.608 1.358-1.358 0-0.043-0.002-0.085-0.006-0.126l0 0.005v-1.098c-0.011-1.989-0.849-3.78-2.186-5.050l-0.003-0.003z"></path>
<path fill="#59b4d9" d="M15.126 17.618v-2.184h0.082c0.339-0.015 0.485-0.241 0.485-0.726 0.004-0.026 0.007-0.056 0.007-0.086 0-0.312-0.253-0.566-0.566-0.566-0.043 0-0.085 0.005-0.125 0.014l0.004-0.001h-4.039c-0.005-0-0.011-0-0.018-0-0.312 0-0.566 0.253-0.566 0.566 0 0.011 0 0.023 0.001 0.034l-0-0.002v0.21c0.014 0.311 0.269 0.557 0.581 0.557 0.034 0 0.067-0.003 0.1-0.008l-0.003 0.001v2.192l-2.343 4.363 0.808 1.293h6.757l0.955-1.293-2.12-4.363zM12.37 20.202l-1.016 1.707h-1.391l2.425-4.291v-2.184h1.381v2.184l1.44 2.584h-2.838z"></path>
<path fill="#d5ecf6" d="M12.437 20.204l-1.019 1.704h-1.391l2.448-4.291v-2.184h1.358v2.184l1.44 2.587h-2.836z"></path>
</svg>
