<!-- Generated by IcoMoon.io -->
<svg version="1.1" xmlns="http://www.w3.org/2000/svg" width="32" height="32" viewBox="0 0 32 32">
<title>Machine-Learning-Studio-Web-Service-Classic</title>
<path fill="#59b4d9" d="M15.814 17.009v-2.425h0.090c0.38 0 0.534-0.264 0.534-0.806 0.004-0.027 0.006-0.057 0.006-0.088 0-0.348-0.282-0.63-0.63-0.63-0.045 0-0.089 0.005-0.132 0.014l0.004-0.001h-4.47c-0.005-0-0.011-0-0.017-0-0.34 0-0.618 0.27-0.63 0.607l-0 0.001v0.29c0.018 0.343 0.3 0.614 0.646 0.614 0.009 0 0.019-0 0.028-0.001l-0.001 0h0.080v2.425l-2.595 4.835 0.898 1.429h7.483l1.060-1.429-2.353-4.835zM12.767 19.871l-1.132 1.891h-1.545l2.677-4.753v-2.425h1.542v2.425l1.617 2.861h-3.159z"></path>
<path fill="#e5e5e5" d="M12.758 19.871l-1.121 1.891h-1.545l2.715-4.753v-2.415h1.504v2.415l1.594 2.861h-3.146z"></path>
<path fill="#a0a1a2" d="M18.23 8.726h-0.21c-2.107 0.116-3.89 1.394-4.728 3.199l-0.014 0.034-0.139 0.395h0.808l0.139-0.395h1.163l-0.056 0.395h0.808v-0.395h1.617v1.617h-0.485c0.003 0.053 0.006 0.115 0.006 0.177s-0.002 0.124-0.006 0.185l0-0.008c0 0.005 0 0.011 0 0.017 0 0.155-0.015 0.306-0.044 0.452l0.002-0.015h0.526v1.614h-0.808v0.808h0.808v1.617h-0.259l0.429 0.808h0.436c2.808-0.080 5.053-2.375 5.053-5.195 0-0.020-0-0.041-0-0.061l0 0.003c-0.002-2.828-2.235-5.134-5.035-5.253l-0.011-0zM14.512 11.151c0.491-0.698 1.146-1.25 1.911-1.604l0.029-0.012c-0.459 0.435-0.812 0.979-1.018 1.589l-0.008 0.028h-0.914zM17.617 11.151h-1.447c0.241-0.764 0.758-1.381 1.432-1.748l0.016-0.008v1.755zM22.652 13.576h-1.422c0.001-0.040 0.002-0.086 0.002-0.133 0-0.531-0.087-1.041-0.248-1.517l0.010 0.033h1.132c0.282 0.464 0.472 1.013 0.532 1.6l0.001 0.017h-0.008zM21.844 11.151h-1.050c-0.188-0.612-0.502-1.138-0.915-1.569l0.001 0.001c0.791 0.362 1.448 0.895 1.946 1.555l0.009 0.013h0.008zM18.425 9.396c0.766 0.311 1.343 0.949 1.564 1.737l0.004 0.019h-1.568v-1.755zM18.425 11.96h1.858c0.157 0.482 0.251 1.037 0.259 1.613l0 0.004h-2.117v-1.617zM18.425 14.385h2.117c-0.010 0.58-0.104 1.133-0.27 1.655l0.011-0.041h-1.858v-1.614zM18.425 18.424v-1.617h1.617c-0.311 0.733-0.884 1.305-1.597 1.609l-0.020 0.007zM19.654 18.424c0.498-0.443 0.902-0.981 1.183-1.587l0.012-0.030h0.937c-0.558 0.701-1.275 1.252-2.098 1.603l-0.035 0.013zM22.193 15.999h-1.198c0.157-0.478 0.259-1.029 0.284-1.601l0-0.013h1.381c-0.065 0.598-0.23 1.145-0.48 1.642l0.013-0.028z"></path>
</svg>
