<!-- Generated by IcoMoon.io -->
<svg version="1.1" xmlns="http://www.w3.org/2000/svg" width="32" height="32" viewBox="0 0 32 32">
<title>Machine-Learning-Studio</title>
<path fill="#f2f2f2" d="M21.093 18.267c-0.865 0.646-1.955 1.034-3.135 1.034-2.918 0-5.284-2.375-5.284-5.305 0-1.654 0.754-3.132 1.936-4.104l0.009-0.007 0.058-0.041c0.85-0.612 1.911-0.978 3.058-0.978 2.919 0 5.284 2.375 5.284 5.305 0 1.646-0.747 3.117-1.919 4.090l-0.009 0.007z"></path>
<path fill="#0078d4" d="M22.071 10.909c-0.974-1.295-2.505-2.124-4.229-2.124-1.193 0-2.294 0.397-3.178 1.066l0.013-0.010-0.058 0.043c-1.175 0.98-1.917 2.447-1.917 4.088 0 2.93 2.366 5.305 5.284 5.305 1.167 0 2.247-0.38 3.121-1.024l-0.015 0.010c1.235-0.985 2.021-2.493 2.021-4.184 0-1.194-0.391-2.297-1.052-3.185l0.010 0.014zM13.268 13.731c0.052-0.664 0.237-1.275 0.527-1.82l-0.012 0.025h1.275c-0.133 0.53-0.221 1.146-0.245 1.778l-0.001 0.017h-1.544zM15.801 11.936h1.755v1.795h-2.059c0.022-0.648 0.119-1.263 0.282-1.85l-0.013 0.055h0.036zM18.232 11.936h1.755c0.151 0.532 0.248 1.147 0.271 1.782l0 0.014h-2.026v-1.795zM17.555 14.411v1.803h-1.79c-0.149-0.534-0.246-1.152-0.268-1.789l-0-0.014h2.059zM18.232 14.411h2.026c-0.024 0.651-0.121 1.269-0.285 1.859l0.013-0.056h-1.79l0.035-1.803zM20.94 14.411h1.537c-0.054 0.666-0.235 1.279-0.52 1.829l0.013-0.027h-1.316c0.14-0.534 0.231-1.152 0.253-1.788l0-0.015h0.033zM20.94 13.731c-0.022-0.648-0.113-1.263-0.267-1.854l0.013 0.059h1.283c0.278 0.521 0.46 1.132 0.506 1.781l0.001 0.015h-1.537zM21.541 11.249h-1.090c-0.189-0.537-0.441-1.003-0.753-1.421l0.010 0.014c0.723 0.324 1.327 0.803 1.79 1.397l0.008 0.010h0.035zM19.751 11.249h-1.519v-1.694c0.709 0.331 1.245 0.935 1.48 1.674l0.005 0.020h0.033zM17.555 9.555v1.694h-1.552c0.239-0.778 0.79-1.397 1.501-1.722l0.017-0.007 0.033 0.036zM15.040 10.418c0.268-0.205 0.574-0.385 0.899-0.529l0.029-0.011c-0.286 0.394-0.523 0.848-0.689 1.336l-0.011 0.036h-1.055c0.24-0.317 0.512-0.591 0.816-0.824l0.010-0.008zM13.268 14.411h1.544c0.025 0.652 0.113 1.27 0.259 1.866l-0.013-0.063h-1.275c-0.284-0.522-0.469-1.136-0.514-1.789l-0.001-0.014zM14.221 16.952h1.047c0.187 0.54 0.439 1.009 0.753 1.428l-0.010-0.013c-0.725-0.337-1.327-0.831-1.781-1.443l-0.009-0.012v0.041zM16.004 16.952h1.519v1.696c-0.734-0.337-1.286-0.966-1.514-1.735l-0.005-0.020v0.058zM18.197 18.648v-1.696h1.521c-0.254 0.755-0.802 1.352-1.504 1.664l-0.018 0.007v0.025zM20.679 17.689c-0.283 0.227-0.605 0.423-0.951 0.575l-0.028 0.011c0.312-0.405 0.567-0.875 0.74-1.383l0.010-0.034h1.055c-0.244 0.313-0.516 0.586-0.816 0.824l-0.010 0.008z"></path>
<path fill="#000" d="M17.521 23.215h-8.408c-0.261 0-0.421-0.434-0.269-0.654l2.896-4.237c0.036-0.050 0.058-0.112 0.058-0.18 0-0.002-0-0.004-0-0.006v0-2.804c0 0 0 0 0 0 0-0.094-0.076-0.169-0.169-0.169v0l-0.151-0c-0.003 0-0.006 0-0.009 0-0.177 0-0.321-0.144-0.321-0.322 0-0.004 0-0.007 0-0.011v0.001-0.152c0.001-0.182 0.148-0.33 0.329-0.33 0 0 0 0 0 0h3.689c0.179 0.006 0.322 0.15 0.327 0.329v0.153c-0.009 0.175-0.152 0.313-0.327 0.314h-0.162c-0 0-0 0-0 0-0.089 0-0.16 0.072-0.16 0.161 0 0.003 0 0.006 0 0.009l-0-0 0.001 2.812c-0 0.002-0 0.005-0 0.008 0 0.068 0.022 0.13 0.059 0.181l-0.001-0.001 2.896 4.237c0.152 0.221-0.008 0.662-0.279 0.662z"></path>
<path fill="#fff" d="M10.254 22.096l2.084-3.050c0.086-0.118 0.137-0.266 0.137-0.426 0-0.003 0-0.005-0-0.008v0-1.227c0-0.136 0.11-0.246 0.245-0.246 0 0 0 0 0 0l1.18-0c0.135 0 0.245 0.11 0.245 0.246v0l0.001 1.314c-0 0.003-0 0.006-0 0.009 0 0.103 0.031 0.2 0.085 0.279l-0.001-0.002 2.135 3.111c0.019 0.029 0.030 0.064 0.030 0.102 0 0.102-0.081 0.184-0.182 0.186l-5.807 0.001c-0.004 0-0.008 0-0.013 0-0.098 0-0.177-0.080-0.177-0.178 0-0.042 0.014-0.081 0.039-0.111l-0 0z"></path>
</svg>
