<!-- Generated by IcoMoon.io -->
<svg version="1.1" xmlns="http://www.w3.org/2000/svg" width="32" height="32" viewBox="0 0 32 32">
<title>Machine-Learning-Studio-Workspace-Classic</title>
<path fill="#c9c9c9" d="M11.352 10.343h0.241v8.081h-0.241v-8.081zM20.648 10.343h0.244v8.081h-0.244v-8.081zM16 10.343h0.244v1.617h-0.244v-1.617zM18.328 10.343h0.244v1.617h-0.244v-1.617zM13.68 10.343h0.244v1.617h-0.244v-1.617z"></path>
<path fill="#a0a1a2" d="M8.725 8.726v10.506h2.595l0.413-0.808h-2.199v-8.081h12.932v8.081h-2.659l0.405 0.808h3.062v-10.506h-14.548z"></path>
<path fill="#59b4d9" d="M15.944 14.335c0.053 0.016 0.115 0.026 0.178 0.026 0.343 0 0.622-0.274 0.63-0.615v-0.373c-0.071-0.314-0.348-0.545-0.679-0.545-0.026 0-0.051 0.001-0.076 0.004l0.003-0h-4.673c-0.044-0.010-0.095-0.016-0.147-0.016-0.331 0-0.605 0.239-0.661 0.554l-0.001 0.004v0.413c0.024 0.324 0.293 0.578 0.621 0.578 0.067 0 0.132-0.011 0.192-0.030l-0.004 0.001v2.474l-2.602 5.009 0.985 1.455h7.678l1.011-1.455-2.456-5.009v-2.474z"></path>
<path fill="#d5ecf6" d="M18.424 19.888h-3.223l-1.165 1.914h-1.576l2.764-4.938v-2.523h1.601v2.523l1.599 3.023z"></path>
<path fill="#c9c9c9" d="M9.534 11.967h12.932v0.241h-12.932v-0.241zM12.249 14.513h-2.715v-0.244h2.482l0.234 0.244zM22.465 14.513h-3.023l0.259-0.244h2.764v0.244zM9.534 16.574l3.234-0.003v0.241l-3.234 0.003v-0.241zM19.011 16.807v-0.244l3.452 0.005v0.241l-3.452-0.003z"></path>
</svg>
