<!-- Generated by IcoMoon.io -->
<svg version="1.1" xmlns="http://www.w3.org/2000/svg" width="33" height="32" viewBox="0 0 33 32">
<title>Maintenance-Configuration</title>
<path fill="#7a7a7a" d="M16.035 19.894h-3.8c0.442 1.62-0.174 1.846-2.845 1.846v0.871h9.090v-0.871c-2.609 0-2.889-0.226-2.445-1.846z"></path>
<path fill="#a0a1a2" d="M22.437 9.39h-12.298c-0.419 0.028-0.749 0.375-0.749 0.8 0 0.004 0 0.007 0 0.011v-0.001 8.918c-0 0.003-0 0.006-0 0.009 0 0.417 0.333 0.757 0.748 0.766h12.299c0.001 0 0.003 0 0.004 0 0.447 0 0.815-0.337 0.864-0.772l0-0.004v-8.918c-0.033-0.454-0.409-0.81-0.868-0.81-0 0-0.001 0-0.001 0h0zM22.211 10.477v8.336h-11.761v-8.336h11.761z"></path>
<path fill="#59b4d9" d="M22.246 18.814h-11.795v-8.336l11.795-0.025v8.361z"></path>
<path fill="#fff" opacity="0.2" d="M10.45 18.814v-8.336h10.769l1.218-1.087h-12.298c-0.419 0.028-0.749 0.375-0.749 0.8 0 0.004 0 0.007 0 0.011v-0.001 8.918c-0 0.003-0 0.006-0 0.009 0 0.417 0.333 0.757 0.748 0.766h0.313l1.279-1.053h-1.279v-0.027z"></path>
<path fill="#59b4d9" d="M10.451 18.814v0z"></path>
<path fill="#fff" d="M16.078 14.198c0.090 0.019 0.194 0.030 0.3 0.030 0.435 0 0.827-0.186 1.101-0.483l0.001-0.001c0.204-0.24 0.328-0.553 0.328-0.896 0-0.172-0.031-0.337-0.088-0.488l0.003 0.010-0.722 0.869-0.81-0.12-0.287-0.759 0.722-0.871c-0.060-0.009-0.13-0.014-0.201-0.014-0.455 0-0.862 0.205-1.135 0.527l-0.002 0.002c-0.2 0.239-0.321 0.549-0.321 0.887 0 0.172 0.031 0.337 0.089 0.489l-0.003-0.010-2.357 2.838c-0.094 0.116-0.15 0.264-0.15 0.426 0 0.21 0.095 0.398 0.245 0.523l0.001 0.001c0.114 0.098 0.264 0.157 0.428 0.157 0.21 0 0.398-0.098 0.519-0.252l0.001-0.001 2.339-2.865z"></path>
<path fill="#a0a1a2" d="M11.808 21.74h9.098v0.836h-9.098v-0.836z"></path>
<path fill="#fff" opacity="0.75" d="M19.758 16.601l0.069-0.4-0.383-0.236v-0.304l0.304-0.376-0.103-0.157-0.113-0.199h-0.061l-0.452 0.113-0.263-0.14-0.059-0.547-0.4-0.096-0.263 0.356h-0.312l-0.41-0.26-0.356 0.26v0.061l0.113 0.452-0.182 0.253-0.54 0.017-0.096 0.403 0.096 0.034 0.4 0.243 0.034 0.28-0.331 0.417 0.218 0.356h0.061l0.486-0.103 0.218 0.199 0.061 0.533 0.4 0.096v-0.052l0.243-0.403 0.295-0.052 0.427 0.331 0.349-0.218v-0.061l-0.106-0.452 0.14-0.263 0.513-0.086zM17.976 16.601c-0.261-0.058-0.453-0.287-0.453-0.562 0-0.048 0.006-0.095 0.017-0.139l-0.001 0.004c0.063-0.259 0.293-0.449 0.567-0.449 0.046 0 0.091 0.005 0.134 0.015l-0.004-0.001c0.259 0.067 0.447 0.299 0.447 0.574 0 0.043-0.005 0.086-0.014 0.127l0.001-0.004c-0.072 0.246-0.296 0.423-0.56 0.423-0.048 0-0.094-0.006-0.138-0.017l0.004 0.001v0.027z"></path>
</svg>
