<!-- Generated by IcoMoon.io -->
<svg version="1.1" xmlns="http://www.w3.org/2000/svg" width="34" height="32" viewBox="0 0 34 32">
<title>Management-Certificate</title>
<path fill="#000" d="M9.135 19.253c0 0 0 0 0 0 0 0.276 0.227 0.5 0.508 0.5 0 0 0 0 0 0h14.215c0 0 0 0 0 0 0.28 0 0.508-0.224 0.508-0.5 0-0 0-0 0-0v0-9.618c0-0 0-0 0-0 0-0.276-0.227-0.5-0.508-0.5-0 0-0 0-0 0h-14.215c0 0-0 0-0 0-0.28 0-0.508 0.224-0.508 0.5 0 0 0 0 0 0v0 9.618z"></path>
<path fill="#fff" d="M10.023 18.566c0 0.138 0.114 0.25 0.254 0.25l12.946 0c0.14 0 0.254-0.112 0.254-0.25v0l0.001-8.246c0-0.138-0.114-0.25-0.254-0.25l-12.949-0c-0.14 0-0.254 0.112-0.254 0.25v0l0.001 8.246z"></path>
<path fill="#d15900" d="M21.782 16.279c0 0.133-0.11 0.241-0.245 0.241v0l-5.493 0c-0.004 0-0.009 0-0.014 0-0.136 0-0.245-0.108-0.245-0.241s0.11-0.241 0.245-0.241c0.005 0 0.010 0 0.015 0l-0.001-0 5.492-0.002c0 0 0.001 0 0.001 0 0.135 0 0.245 0.108 0.245 0.241 0 0 0 0 0 0v0zM21.782 14.786c0 0 0 0 0 0 0 0.133-0.11 0.241-0.245 0.241-0 0-0.001 0-0.001 0l-5.493 0.001c-0.004 0-0.009 0-0.014 0-0.136 0-0.245-0.108-0.245-0.241s0.11-0.241 0.245-0.241c0.005 0 0.010 0 0.015 0l-0.001-0 5.492-0.002c0.136 0 0.245 0.108 0.245 0.241v0zM21.782 12.607c0 0.133-0.11 0.241-0.245 0.241v0l-9.212 0c-0.004 0-0.009 0-0.014 0-0.136 0-0.245-0.108-0.245-0.241s0.11-0.241 0.245-0.241c0.005 0 0.010 0 0.015 0l-0.001-0 9.21-0.002c0 0 0.001 0 0.001 0 0.135 0 0.245 0.108 0.245 0.241 0 0 0 0 0 0v0z"></path>
<path fill="#b31b1b" d="M12.168 19.072c-0.377 0.334-0.878 0.538-1.428 0.538s-1.051-0.204-1.43-0.54l0.002 0.002-0.177 3.49c-0 0.004-0 0.009-0 0.014 0 0.153 0.126 0.277 0.282 0.277 0.079 0 0.151-0.032 0.202-0.084l0-0 1.099-1.096 1.107 1.107c0.052 0.054 0.124 0.087 0.205 0.087 0.156 0 0.282-0.124 0.282-0.277 0-0.005-0-0.010-0-0.014l0 0.001-0.142-3.503z"></path>
<path fill="#e62323" d="M14.628 17.284c0 1.39-1.142 2.517-2.55 2.517s-2.55-1.127-2.55-2.517c0-1.39 1.142-2.517 2.55-2.517s2.55 1.127 2.55 2.517z"></path>
<path fill="#ffb34d" d="M14.013 17.284c0 1.055-0.866 1.909-1.934 1.909s-1.934-0.855-1.934-1.909c0-1.055 0.866-1.909 1.934-1.909s1.934 0.855 1.934 1.909z"></path>
</svg>
