<!-- Generated by IcoMoon.io -->
<svg version="1.1" xmlns="http://www.w3.org/2000/svg" width="33" height="32" viewBox="0 0 33 32">
<title>Managed-Database</title>
<path fill="#000" d="M14.207 12.73c-2.883 0-5.244-0.885-5.244-1.909v10.154c0 1.045 2.3 1.901 5.139 1.909h0.079c2.878 0 5.247-0.882 5.247-1.909v-10.154c-0.011 1.050-2.342 1.909-5.22 1.909z"></path>
<path fill="#eaeaea" d="M19.418 21.16c0 1.053-2.334 1.909-5.247 1.909-2.909 0-5.244-0.882-5.244-1.909 0-1.024 2.395-1.891 5.281-1.891 2.883 0 5.244 0.885 5.244 1.917l-0.034-0.026z"></path>
<path fill="#50e6ff" d="M18.169 10.695c0 0.672-1.749 1.211-3.997 1.211-2.245 0-3.968-0.572-3.968-1.211 0-0.635 1.791-1.245 4.004-1.245 2.211 0 3.96 0.538 3.96 1.245z"></path>
<path fill="#198ab3" d="M14.207 10.943c-0.072-0.002-0.156-0.003-0.241-0.003-1.047 0-2.055 0.169-2.999 0.482l0.068-0.020c0.878 0.298 1.889 0.47 2.939 0.47 0.082 0 0.164-0.001 0.245-0.003l-0.012 0c0.069 0.002 0.15 0.003 0.232 0.003 1.049 0 2.059-0.172 3.002-0.49l-0.067 0.020c-0.875-0.293-1.883-0.462-2.93-0.462-0.083 0-0.166 0.001-0.249 0.003l0.012-0z"></path>
<path fill="#000" d="M18.326 19.304c-0.349-0.331-0.794-0.564-1.287-0.652l-0.015-0.002c-0.067-1.528-1.308-2.74-2.83-2.74-0.032 0-0.063 0.001-0.095 0.002l0.005-0c-0.017-0-0.038-0.001-0.059-0.001-1.246 0-2.311 0.787-2.734 1.897l-0.007 0.020c-1.312 0.152-2.327 1.245-2.376 2.587l-0 0.005c0.058 1.476 1.256 2.651 2.725 2.651 0.032 0 0.063-0.001 0.094-0.002l-0.005 0h4.939c1.222-0.009 2.216-0.989 2.263-2.214l0-0.004c-0.008-0.604-0.258-1.147-0.656-1.536l-0.001-0.001 0.037-0.011z"></path>
<path fill="#fff" d="M21.054 22.009h-0.822v-3.030c0 0.221-0.089 0.389-0.116 0.494l-0.874 2.537h-0.68l-0.874-2.518c-0.042-0.139-0.082-0.312-0.11-0.489l-0.003-0.023v3.030h-0.735v-3.737h1.224l0.751 2.216c0.055 0.151 0.101 0.33 0.129 0.514l0.002 0.016c0.045-0.202 0.097-0.389 0.142-0.538l0.759-2.208h1.208v3.737z"></path>
</svg>
