<!-- Generated by IcoMoon.io -->
<svg version="1.1" xmlns="http://www.w3.org/2000/svg" width="28" height="32" viewBox="0 0 28 32">
<title>Managed-Application-Center</title>
<path fill="#3999c6" d="M14.259 16.328c0.018 0 0.032-0.004 0.047-0.014l3.050-1.665c0.028-0.014 0.047-0.043 0.047-0.076v0l0.003-3.341c-0-0.033-0.019-0.062-0.047-0.076l-0-0c-0.014-0.007-0.030-0.011-0.047-0.011s-0.033 0.004-0.047 0.012l0.001-0-3.050 1.666c-0.027 0.015-0.045 0.044-0.045 0.076v0l-0.002 3.341c0 0.032 0.018 0.061 0.047 0.076 0.014 0.011 0.029 0.014 0.043 0.014zM14.259 20.729c0.018 0 0.032-0.004 0.047-0.014l3.050-1.665c0.028-0.014 0.047-0.043 0.047-0.076v0l0.003-3.341c-0-0.033-0.019-0.062-0.047-0.076l-0-0c-0.014-0.007-0.030-0.011-0.047-0.011s-0.033 0.004-0.047 0.012l0.001-0-3.050 1.666c-0.027 0.015-0.045 0.044-0.045 0.076v0l-0.002 3.341c0 0.032 0.018 0.061 0.047 0.076 0.014 0.011 0.029 0.014 0.043 0.014zM18.214 14.126c0.018 0 0.032-0.004 0.047-0.011l3.049-1.665c0.028-0.014 0.047-0.043 0.047-0.076 0-0 0-0 0-0v0l0-3.341c-0-0.033-0.019-0.062-0.047-0.076l-0-0c-0.014-0.007-0.030-0.011-0.047-0.011s-0.033 0.004-0.047 0.012l0.001-0-3.050 1.663c-0.027 0.015-0.045 0.044-0.045 0.076v0l0.002 3.345c0 0.032 0.018 0.058 0.043 0.076 0.013 0.007 0.029 0.012 0.046 0.012 0 0 0 0 0 0h-0zM18.214 18.527c0.018 0 0.032-0.004 0.047-0.011l3.049-1.665c0.028-0.014 0.047-0.043 0.047-0.076 0-0 0-0 0-0v0l0-3.341c-0-0.033-0.019-0.062-0.047-0.076l-0-0c-0.014-0.007-0.030-0.011-0.047-0.011s-0.033 0.004-0.047 0.012l0.001-0-3.050 1.663c-0.027 0.015-0.045 0.044-0.045 0.076v0l0.002 3.345c0 0.032 0.018 0.058 0.043 0.076 0.013 0.007 0.029 0.012 0.046 0.012 0 0 0 0 0 0h-0z"></path>
<path fill="#62117a" opacity="0.15" d="M14.259 20.729c0.018 0 0.032-0.004 0.047-0.014l3.050-1.665c0.028-0.014 0.047-0.043 0.047-0.076v0l0.003-3.341c-0-0.033-0.019-0.062-0.047-0.076l-0-0c-0.014-0.007-0.030-0.011-0.047-0.011s-0.033 0.004-0.047 0.012l0.001-0-3.050 1.666c-0.027 0.015-0.045 0.044-0.045 0.076v0l-0.002 3.341c0 0.032 0.018 0.061 0.047 0.076 0.014 0.011 0.029 0.014 0.043 0.014zM18.214 18.527c0.018 0 0.032-0.004 0.047-0.011l3.049-1.665c0.028-0.014 0.047-0.043 0.047-0.076 0-0 0-0 0-0v0l0-3.341c-0-0.033-0.019-0.062-0.047-0.076l-0-0c-0.014-0.007-0.030-0.011-0.047-0.011s-0.033 0.004-0.047 0.012l0.001-0-3.050 1.663c-0.027 0.015-0.045 0.044-0.045 0.076v0l0.002 3.345c0 0.032 0.018 0.058 0.043 0.076 0.013 0.007 0.029 0.012 0.046 0.012 0 0 0 0 0 0h-0zM14.259 16.328c0.018 0 0.032-0.004 0.047-0.014l3.050-1.665c0.028-0.014 0.047-0.043 0.047-0.076v0l0.003-3.341c-0-0.033-0.019-0.062-0.047-0.076l-0-0c-0.014-0.007-0.030-0.011-0.047-0.011s-0.033 0.004-0.047 0.012l0.001-0-3.050 1.666c-0.027 0.015-0.045 0.044-0.045 0.076v0l-0.002 3.341c0 0.032 0.018 0.061 0.047 0.076 0.014 0.011 0.029 0.014 0.043 0.014zM18.214 14.126c0.018 0 0.032-0.004 0.047-0.011l3.049-1.665c0.028-0.014 0.047-0.043 0.047-0.076 0-0 0-0 0-0v0l0-3.341c-0-0.033-0.019-0.062-0.047-0.076l-0-0c-0.014-0.007-0.030-0.011-0.047-0.011s-0.033 0.004-0.047 0.012l0.001-0-3.050 1.663c-0.027 0.015-0.045 0.044-0.045 0.076v0l0.002 3.345c0 0.032 0.018 0.058 0.043 0.076 0.013 0.007 0.029 0.012 0.046 0.012 0 0 0 0 0 0h-0z"></path>
<path fill="#59b4d9" d="M13.359 16.328c-0 0-0.001 0-0.001 0-0.017 0-0.033-0.004-0.047-0.012l0.001 0-3.049-1.668c-0.028-0.014-0.047-0.043-0.047-0.076v0l0-3.341c0-0.032 0.018-0.058 0.047-0.076 0.014-0.007 0.030-0.011 0.047-0.011s0.033 0.004 0.047 0.012l-0.001-0 3.050 1.665c0.029 0.014 0.043 0.043 0.043 0.076v3.341c-0 0.032-0.018 0.061-0.045 0.076l-0 0c-0.013 0.007-0.029 0.011-0.046 0.012h-0zM13.359 20.729c-0 0-0.001 0-0.001 0-0.017 0-0.033-0.004-0.047-0.012l0.001 0-3.049-1.668c-0.028-0.014-0.047-0.043-0.047-0.076v0l0-3.341c0-0.032 0.018-0.058 0.047-0.076 0.014-0.007 0.030-0.011 0.047-0.011s0.033 0.004 0.047 0.012l-0.001-0 3.050 1.665c0.029 0.014 0.043 0.043 0.043 0.076v3.341c-0 0.032-0.018 0.061-0.045 0.076l-0 0c-0.013 0.007-0.029 0.011-0.046 0.012h-0zM9.404 14.126c-0 0-0.001 0-0.001 0-0.017 0-0.033-0.004-0.047-0.012l0.001 0-3.049-1.665c-0.028-0.014-0.047-0.043-0.047-0.076 0-0 0-0 0-0v0l-0-3.341c0-0.032 0.018-0.061 0.047-0.079 0.013-0.007 0.030-0.011 0.047-0.011s0.033 0.004 0.047 0.012l-0.001-0 3.050 1.665c0.029 0.018 0.047 0.047 0.047 0.076v3.345c-0 0.032-0.018 0.061-0.045 0.076l-0 0c-0.013 0.007-0.029 0.012-0.046 0.012-0 0-0 0-0 0h0zM9.404 18.527c-0 0-0.001 0-0.001 0-0.017 0-0.033-0.004-0.047-0.012l0.001 0-3.049-1.665c-0.028-0.014-0.047-0.043-0.047-0.076 0-0 0-0 0-0v0l-0-3.341c0-0.032 0.018-0.061 0.047-0.079 0.013-0.007 0.030-0.011 0.047-0.011s0.033 0.004 0.047 0.012l-0.001-0 3.050 1.665c0.029 0.018 0.047 0.047 0.047 0.076v3.345c-0 0.032-0.018 0.061-0.045 0.076l-0 0c-0.013 0.007-0.029 0.012-0.046 0.012-0 0-0 0-0 0h0zM10.731 10.229c0.008-0.013 0.020-0.024 0.034-0.031l0-0 3.030-1.623c0.013-0.008 0.029-0.012 0.047-0.012s0.032 0.004 0.046 0.012l-0-0 3.001 1.608c0.027 0.014 0.045 0.042 0.045 0.074 0 0 0 0 0 0v-0c-0.002 0.032-0.020 0.059-0.046 0.074l-0 0-3.030 1.625c-0.013 0.007-0.029 0.011-0.045 0.011s-0.033-0.004-0.047-0.012l0.001 0-3.001-1.611c-0.027-0.014-0.045-0.041-0.045-0.072v-0c0.001-0.016 0.005-0.030 0.013-0.042l-0 0zM6.777 8.11c0.008-0.013 0.020-0.024 0.033-0.031l0-0 2.998-1.623c0.013-0.008 0.029-0.012 0.046-0.012s0.032 0.004 0.045 0.012l-0-0 2.969 1.608c0.027 0.014 0.045 0.042 0.045 0.074 0 0 0 0.001 0 0.001v-0c-0.001 0.032-0.020 0.059-0.046 0.074l-0 0-2.997 1.625c-0.013 0.007-0.028 0.011-0.044 0.011s-0.033-0.004-0.046-0.012l0 0-2.97-1.611c-0.027-0.014-0.044-0.041-0.045-0.072v-0c0-0.016 0.005-0.030 0.013-0.042l-0 0zM14.764 8.146c0.008-0.013 0.020-0.024 0.033-0.031l0-0 2.998-1.623c0.013-0.008 0.029-0.012 0.046-0.012s0.032 0.004 0.045 0.012l-0-0 2.966 1.608c0.027 0.014 0.045 0.042 0.045 0.074 0 0 0 0.001 0 0.001v-0c-0.001 0.032-0.020 0.059-0.046 0.074l-0 0-2.997 1.625c-0.013 0.007-0.028 0.011-0.044 0.011s-0.033-0.004-0.046-0.012l0 0-2.966-1.611c-0.027-0.014-0.044-0.041-0.045-0.072v-0c0.001-0.016 0.005-0.030 0.013-0.042l-0 0zM10.745 6.051c0.008-0.013 0.020-0.024 0.034-0.031l0-0 3.030-1.598c0.013-0.008 0.029-0.012 0.047-0.012s0.032 0.004 0.046 0.011l-0.001-0 3.001 1.587c0.027 0.014 0.045 0.041 0.045 0.073 0 0 0 0 0 0v0c-0.002 0.032-0.020 0.059-0.046 0.073l-0 0-3.030 1.595c-0.013 0.007-0.029 0.011-0.045 0.011s-0.033-0.004-0.047-0.012l0.001 0-3.001-1.582c-0.027-0.013-0.045-0.040-0.045-0.071v-0c0.001-0.015 0.005-0.030 0.013-0.042l-0 0z"></path>
<path fill="#fff" opacity="0.2" d="M10.73 10.231c0.008-0.013 0.020-0.024 0.034-0.031l0-0 3.030-1.623c0.013-0.008 0.029-0.012 0.047-0.012s0.032 0.004 0.046 0.012l-0-0 3.001 1.608c0.027 0.014 0.045 0.042 0.045 0.074 0 0 0 0 0 0v-0c-0.002 0.032-0.020 0.059-0.046 0.074l-0 0-3.030 1.625c-0.013 0.007-0.029 0.011-0.045 0.011s-0.033-0.004-0.047-0.012l0.001 0-3.001-1.611c-0.027-0.014-0.045-0.041-0.045-0.072v-0c0.001-0.016 0.005-0.030 0.013-0.042l-0 0zM6.78 8.111c0.008-0.013 0.020-0.024 0.033-0.031l0-0 2.994-1.627c0.013-0.008 0.029-0.012 0.046-0.012s0.032 0.004 0.045 0.012l-0-0 2.969 1.612c0.027 0.014 0.045 0.042 0.045 0.074 0 0 0 0.001 0 0.001v-0c-0.001 0.032-0.020 0.059-0.046 0.074l-0 0-2.997 1.621c-0.013 0.007-0.028 0.011-0.044 0.011s-0.033-0.004-0.046-0.012l0 0-2.97-1.611c-0.027-0.014-0.044-0.041-0.045-0.072v-0c0-0.016 0.005-0.030 0.013-0.042l-0 0zM14.764 8.144c0.008-0.013 0.020-0.024 0.033-0.031l0-0 2.998-1.623c0.013-0.008 0.029-0.012 0.046-0.012s0.032 0.004 0.045 0.012l-0-0 2.966 1.612c0.027 0.014 0.045 0.042 0.045 0.074 0 0 0 0.001 0 0.001v-0c-0.001 0.032-0.020 0.059-0.046 0.074l-0 0-2.997 1.621c-0.013 0.007-0.028 0.011-0.044 0.011s-0.033-0.004-0.046-0.012l0 0-2.966-1.611c-0.027-0.014-0.044-0.041-0.045-0.072v-0c0.001-0.016 0.005-0.030 0.013-0.042l-0 0zM10.745 6.053c0.008-0.013 0.020-0.024 0.034-0.031l0-0 3.030-1.598c0.013-0.008 0.029-0.012 0.047-0.012s0.032 0.004 0.046 0.011l-0.001-0 3.001 1.583c0.027 0.014 0.045 0.041 0.045 0.073 0 0 0 0 0 0v0c-0.002 0.032-0.020 0.059-0.046 0.073l-0 0-3.030 1.599c-0.013 0.007-0.029 0.011-0.045 0.011s-0.033-0.004-0.047-0.012l0.001 0-3.001-1.585c-0.027-0.013-0.045-0.040-0.045-0.071v-0c0.001-0.015 0.005-0.030 0.013-0.042l-0 0z"></path>
<path fill="#fff" opacity="0.4" d="M21.359 9.031c0-0.036-0.029-0.058-0.040-0.069l-0.047-0.040c-0.649 1.694-2.386 4.134-5.454 6.42-2.469 1.842-4.747 2.808-6.456 3.194l2.754 1.521c1.6-0.656 3.28-1.611 4.888-2.812 1.773-1.323 3.251-2.768 4.354-4.199v-4.016z"></path>
<path fill="#804998" d="M22.722 6.27c-0.977-1.327-3.259-1.449-5.984-0.559l1.366 0.725c1.828-0.44 3.165-0.267 3.619 0.35 0.894 1.218-0.869 5.274-5.677 8.857-4.805 3.579-9.174 4.095-10.071 2.876-0.324-0.443-0.296-1.262 0.097-2.293v-2.538c-1.611 2.339-2.145 4.549-1.175 5.865 1.64 2.231 6.96 1.063 11.881-2.606 4.924-3.666 7.584-8.446 5.944-10.677z"></path>
</svg>
