<!-- Generated by IcoMoon.io -->
<svg version="1.1" xmlns="http://www.w3.org/2000/svg" width="30" height="32" viewBox="0 0 30 32">
<title>Management-Group</title>
<path fill="#57a300" d="M19.333 11.414l-0.119 0.29-3.776-4.487-0.328 0.268-0.324-0.268-3.776 4.487-0.119-0.29-2.502 5.943 0.778 0.32 1.724-4.088 1.72 4.088 0.778-0.32-2.011-4.785 3.731-4.435 3.735 4.435-2.011 4.785 0.778 0.32 1.72-4.088 1.724 4.088 0.778-0.32-2.502-5.943z"></path>
<path fill="#3999c6" d="M22.712 17.516c0 0.693-0.567 1.254-1.267 1.254s-1.267-0.561-1.267-1.254c0-0.693 0.567-1.254 1.267-1.254s1.267 0.561 1.267 1.254z"></path>
<path fill="#3999c6" d="M18.49 17.516c0 0.693-0.567 1.254-1.267 1.254s-1.267-0.561-1.267-1.254c0-0.693 0.567-1.254 1.267-1.254s1.267 0.561 1.267 1.254z"></path>
<path fill="#804998" d="M17.223 7.484c0 1.154-0.945 2.090-2.111 2.090s-2.111-0.936-2.111-2.090c0-1.154 0.945-2.090 2.111-2.090s2.111 0.936 2.111 2.090z"></path>
<path fill="#0072c6" d="M12.579 12.5c0 0.923-0.756 1.672-1.689 1.672s-1.689-0.749-1.689-1.672c0-0.923 0.756-1.672 1.689-1.672s1.689 0.749 1.689 1.672z"></path>
<path fill="#0072c6" d="M21.023 12.5c0 0.923-0.756 1.672-1.689 1.672s-1.689-0.749-1.689-1.672c0-0.923 0.756-1.672 1.689-1.672s1.689 0.749 1.689 1.672z"></path>
<path fill="#3999c6" d="M14.268 17.516c0 0.693-0.567 1.254-1.267 1.254s-1.267-0.561-1.267-1.254c0-0.693 0.567-1.254 1.267-1.254s1.267 0.561 1.267 1.254z"></path>
<path fill="#3999c6" d="M10.046 17.516c0 0.693-0.567 1.254-1.267 1.254s-1.267-0.561-1.267-1.254c0-0.693 0.567-1.254 1.267-1.254s1.267 0.561 1.267 1.254z"></path>
<path fill="#7a7a7a" d="M8.568 21.445c-0.109-0.009-0.209-0.038-0.299-0.084l0.004 0.002-2.871-1.672c-0.494-0.297-0.825-0.819-0.845-1.419l-0-0.003v-10.534c0.009-0.606 0.343-1.133 0.837-1.418l0.008-0.004 2.871-1.672c0.090-0.054 0.2-0.087 0.316-0.087 0.34 0 0.616 0.273 0.616 0.61 0 0.221-0.119 0.415-0.297 0.522l-0.003 0.002-2.871 1.672c-0.115 0.091-0.194 0.223-0.212 0.373l-0 0.003v10.534c0.019 0.153 0.097 0.285 0.211 0.375l0.001 0.001 2.871 1.672c0.18 0.108 0.299 0.302 0.299 0.522 0 0.115-0.032 0.223-0.088 0.315l0.002-0.003c-0.126 0.171-0.324 0.284-0.549 0.294l-0.002 0zM21.656 4.559c0.109 0.009 0.209 0.038 0.299 0.084l-0.004-0.002 2.875 1.672c0.493 0.298 0.822 0.82 0.841 1.42l0 0.003v10.534c-0.009 0.605-0.341 1.132-0.834 1.418l-0.008 0.004-2.875 1.672c-0.090 0.054-0.2 0.087-0.317 0.087-0.34 0-0.616-0.273-0.616-0.61 0-0.221 0.119-0.415 0.297-0.522l0.003-0.002 2.871-1.672c0.115-0.091 0.194-0.223 0.212-0.373l0-0.003v-10.534c-0.019-0.153-0.097-0.285-0.211-0.375l-0.001-0.001-2.871-1.672c-0.18-0.108-0.298-0.301-0.298-0.522 0-0.117 0.033-0.226 0.091-0.319l-0.002 0.003c0.132-0.161 0.325-0.27 0.544-0.29l0.003-0z"></path>
</svg>
