<!-- Generated by IcoMoon.io -->
<svg version="1.1" xmlns="http://www.w3.org/2000/svg" width="26" height="32" viewBox="0 0 26 32">
<title>Managed-Application</title>
<path fill="#3999c6" d="M14.553 16.007c0.016 0 0.033-0.003 0.049-0.013l3.016-1.674c0.028-0.015 0.047-0.043 0.047-0.076v0l-0.001-3.361c-0-0.033-0.019-0.062-0.046-0.077l-0-0c-0.013-0.007-0.029-0.012-0.046-0.012s-0.033 0.004-0.047 0.012l0.001-0-3.016 1.676c-0.027 0.015-0.045 0.044-0.045 0.077v0l-0.001 3.361c0 0.033 0.016 0.059 0.046 0.076 0.013 0.010 0.030 0.013 0.043 0.013zM14.553 20.431c0.016 0 0.033-0.003 0.049-0.013l3.016-1.674c0.028-0.015 0.047-0.043 0.047-0.076v0l-0.001-3.358c-0-0.033-0.019-0.062-0.046-0.077l-0-0c-0.013-0.007-0.029-0.012-0.046-0.012s-0.033 0.004-0.047 0.012l0.001-0-3.016 1.672c-0.027 0.015-0.045 0.044-0.045 0.077v0l-0.001 3.361c0 0.033 0.016 0.063 0.046 0.076 0.013 0.010 0.030 0.013 0.043 0.013zM18.468 13.793c0.016 0 0.030-0.003 0.046-0.013l3.016-1.674c0.028-0.015 0.046-0.043 0.046-0.076 0-0 0-0 0-0v0l-0-3.358c-0-0.033-0.019-0.062-0.046-0.077l-0-0c-0.013-0.007-0.029-0.012-0.046-0.012s-0.033 0.004-0.047 0.012l0.001-0-3.016 1.672c-0.027 0.015-0.045 0.044-0.045 0.077v0l-0.001 3.361c0 0.033 0.016 0.063 0.046 0.076 0.013 0.007 0.029 0.012 0.045 0.012 0 0 0 0 0 0h-0zM18.468 18.217c0.016 0 0.030-0.003 0.046-0.010l3.016-1.674c0.028-0.014 0.046-0.043 0.046-0.076 0-0 0-0 0-0v0l-0-3.361c-0-0.033-0.019-0.062-0.046-0.077l-0-0c-0.013-0.007-0.029-0.012-0.046-0.012s-0.033 0.004-0.047 0.012l0.001-0-3.016 1.676c-0.027 0.015-0.045 0.044-0.045 0.077v0l-0.001 3.361c0 0.030 0.016 0.059 0.046 0.076 0.013 0.007 0.029 0.012 0.045 0.012 0 0 0 0 0 0h-0z"></path>
<path fill="#62117a" opacity="0.15" d="M14.553 20.431c0.016 0 0.033-0.003 0.049-0.013l3.016-1.674c0.028-0.015 0.047-0.043 0.047-0.076v0l-0.001-3.358c-0-0.033-0.019-0.062-0.046-0.077l-0-0c-0.013-0.007-0.029-0.012-0.046-0.012s-0.033 0.004-0.047 0.012l0.001-0-3.016 1.672c-0.027 0.015-0.045 0.044-0.045 0.077v0l-0.001 3.361c0 0.033 0.016 0.063 0.046 0.076 0.013 0.010 0.030 0.013 0.043 0.013zM18.468 18.217c0.016 0 0.030-0.003 0.046-0.010l3.016-1.674c0.028-0.014 0.046-0.043 0.046-0.076 0-0 0-0 0-0v0l-0-3.361c-0-0.033-0.019-0.062-0.046-0.077l-0-0c-0.013-0.007-0.029-0.012-0.046-0.012s-0.033 0.004-0.047 0.012l0.001-0-3.016 1.676c-0.027 0.015-0.045 0.044-0.045 0.077v0l-0.001 3.361c0 0.030 0.016 0.059 0.046 0.076 0.013 0.007 0.029 0.012 0.045 0.012 0 0 0 0 0 0h-0zM14.553 16.007c0.016 0 0.033-0.003 0.049-0.013l3.016-1.674c0.028-0.015 0.047-0.043 0.047-0.076v0l-0.001-3.361c-0-0.033-0.019-0.062-0.046-0.077l-0-0c-0.013-0.007-0.029-0.012-0.046-0.012s-0.033 0.004-0.047 0.012l0.001-0-3.016 1.676c-0.027 0.015-0.045 0.044-0.045 0.077v0l-0.001 3.361c0 0.033 0.016 0.059 0.046 0.076 0.013 0.010 0.030 0.013 0.043 0.013zM18.468 13.793c0.016 0 0.030-0.003 0.046-0.013l3.016-1.674c0.028-0.015 0.046-0.043 0.046-0.076 0-0 0-0 0-0v0l-0-3.358c-0-0.033-0.019-0.062-0.046-0.077l-0-0c-0.013-0.007-0.029-0.012-0.046-0.012s-0.033 0.004-0.047 0.012l0.001-0-3.016 1.672c-0.027 0.015-0.045 0.044-0.045 0.077v0l-0.001 3.361c0 0.033 0.016 0.063 0.046 0.076 0.013 0.007 0.029 0.012 0.045 0.012 0 0 0 0 0 0h-0z"></path>
<path fill="#59b4d9" d="M13.663 16.007c-0 0-0.001 0-0.001 0-0.017 0-0.033-0.004-0.046-0.012l0.001 0-3.019-1.676c-0.028-0.015-0.047-0.043-0.047-0.076v0l0.001-3.361c0-0.030 0.016-0.059 0.046-0.076 0.013-0.007 0.029-0.012 0.046-0.012s0.033 0.004 0.047 0.012l-0.001-0 3.020 1.674c0.026 0.016 0.043 0.046 0.043 0.076v3.362c-0 0.033-0.018 0.061-0.044 0.076l-0 0c-0.013 0.007-0.029 0.012-0.045 0.012h-0zM13.663 20.431c-0 0-0.001 0-0.001 0-0.017 0-0.033-0.004-0.046-0.012l0.001 0-3.019-1.676c-0.028-0.015-0.047-0.043-0.047-0.076v0l0.001-3.358c0-0.033 0.016-0.063 0.046-0.079 0.013-0.007 0.029-0.012 0.046-0.012s0.033 0.004 0.047 0.012l-0.001-0 3.020 1.674c0.026 0.016 0.043 0.046 0.043 0.079v3.359c-0 0.033-0.018 0.061-0.044 0.076l-0 0c-0.013 0.007-0.029 0.012-0.045 0.012h-0zM9.752 13.793c-0 0-0.001 0-0.001 0-0.017 0-0.033-0.004-0.046-0.012l0.001 0-3.019-1.676c-0.028-0.015-0.046-0.043-0.046-0.076 0-0 0-0 0-0v0l0-3.358c0-0.033 0.016-0.063 0.046-0.079 0.013-0.007 0.029-0.012 0.046-0.012s0.033 0.004 0.047 0.012l-0.001-0 3.016 1.674c0.030 0.016 0.046 0.046 0.046 0.079v3.359c-0 0.033-0.018 0.061-0.044 0.076l-0 0c-0.013 0.007-0.029 0.012-0.045 0.012-0 0-0 0-0 0h0zM9.752 18.217c-0 0-0.001 0-0.001 0-0.017 0-0.033-0.004-0.046-0.012l0.001 0-3.019-1.673c-0.028-0.014-0.046-0.043-0.046-0.076 0-0 0-0 0-0v0l0-3.361c0-0.033 0.016-0.059 0.046-0.076 0.013-0.007 0.029-0.012 0.046-0.012s0.033 0.004 0.047 0.012l-0.001-0 3.016 1.674c0.030 0.016 0.046 0.043 0.046 0.076v3.362c-0 0.033-0.018 0.061-0.044 0.076l-0 0c-0.013 0.007-0.029 0.012-0.045 0.012-0 0-0 0-0 0h0zM11.061 9.875c0.008-0.013 0.020-0.024 0.033-0.032l0-0 2.999-1.633c0.013-0.008 0.029-0.012 0.046-0.012s0.032 0.004 0.045 0.012l-0-0 2.968 1.619c0.027 0.015 0.044 0.042 0.044 0.074 0 0 0 0 0 0v-0c-0.002 0.032-0.020 0.060-0.046 0.074l-0 0-2.998 1.634c-0.013 0.007-0.028 0.011-0.044 0.011s-0.033-0.004-0.046-0.012l0.001 0-2.969-1.621c-0.027-0.014-0.044-0.041-0.045-0.073v-0c0.001-0.016 0.005-0.030 0.013-0.043l-0 0zM7.154 7.743c0.008-0.013 0.019-0.024 0.033-0.032l0-0 2.963-1.633c0.013-0.008 0.029-0.012 0.046-0.012s0.032 0.004 0.045 0.012l-0-0 2.936 1.619c0.026 0.015 0.044 0.042 0.044 0.074 0 0 0 0.001 0 0.001v-0c-0.001 0.032-0.019 0.060-0.045 0.074l-0 0-2.965 1.634c-0.013 0.007-0.028 0.011-0.044 0.011s-0.032-0.004-0.046-0.012l0 0-2.937-1.621c-0.026-0.014-0.044-0.041-0.044-0.073v-0c0-0.016 0.005-0.030 0.013-0.043l-0 0zM15.055 7.78c0.008-0.013 0.019-0.024 0.033-0.032l0-0 2.963-1.633c0.013-0.008 0.029-0.012 0.046-0.012s0.032 0.004 0.045 0.012l-0-0 2.936 1.619c0.026 0.015 0.044 0.042 0.044 0.074 0 0 0 0.001 0 0.001v-0c-0.001 0.032-0.019 0.060-0.045 0.074l-0 0-2.965 1.63c-0.013 0.007-0.028 0.011-0.044 0.011s-0.032-0.004-0.046-0.012l0 0-2.937-1.618c-0.026-0.014-0.044-0.041-0.044-0.073v-0c0.001-0.016 0.005-0.030 0.013-0.043l-0 0zM11.078 5.674c0.008-0.013 0.020-0.024 0.033-0.031l0-0 2.996-1.603c0.013-0.008 0.029-0.012 0.046-0.012s0.032 0.004 0.045 0.011l-0.001-0 2.972 1.593c0.027 0.014 0.044 0.041 0.044 0.073 0 0 0 0 0 0v0c-0.002 0.032-0.020 0.059-0.046 0.073l-0 0-3.001 1.603c-0.013 0.007-0.028 0.011-0.044 0.011s-0.033-0.004-0.046-0.012l0.001 0-2.969-1.591c-0.027-0.014-0.044-0.041-0.045-0.072v-0c0.001-0.015 0.005-0.030 0.013-0.042l-0 0z"></path>
<path fill="#fff" opacity="0.2" d="M11.061 9.875c0.008-0.013 0.020-0.024 0.033-0.032l0-0 2.999-1.633c0.013-0.008 0.029-0.012 0.046-0.012s0.032 0.004 0.045 0.012l-0-0 2.968 1.619c0.027 0.015 0.044 0.042 0.044 0.074 0 0 0 0 0 0v-0c-0.002 0.032-0.020 0.060-0.046 0.074l-0 0-2.998 1.634c-0.013 0.007-0.028 0.011-0.044 0.011s-0.033-0.004-0.046-0.012l0.001 0-2.969-1.621c-0.027-0.014-0.044-0.041-0.045-0.073v-0c0.001-0.016 0.005-0.030 0.013-0.043l-0 0zM7.154 7.743c0.008-0.013 0.019-0.024 0.033-0.032l0-0 2.963-1.633c0.013-0.008 0.029-0.012 0.046-0.012s0.032 0.004 0.045 0.012l-0-0 2.936 1.619c0.026 0.015 0.044 0.042 0.044 0.074 0 0 0 0.001 0 0.001v-0c-0.001 0.032-0.019 0.060-0.045 0.074l-0 0-2.965 1.634c-0.013 0.007-0.028 0.011-0.044 0.011s-0.032-0.004-0.046-0.012l0 0-2.937-1.621c-0.026-0.014-0.044-0.041-0.044-0.073v-0c0-0.016 0.005-0.030 0.013-0.043l-0 0zM15.055 7.78c0.008-0.013 0.019-0.024 0.033-0.032l0-0 2.963-1.633c0.013-0.008 0.029-0.012 0.046-0.012s0.032 0.004 0.045 0.012l-0-0 2.936 1.619c0.026 0.015 0.044 0.042 0.044 0.074 0 0 0 0.001 0 0.001v-0c-0.001 0.032-0.019 0.060-0.045 0.074l-0 0-2.965 1.63c-0.013 0.007-0.028 0.011-0.044 0.011s-0.032-0.004-0.046-0.012l0 0-2.937-1.618c-0.026-0.014-0.044-0.041-0.044-0.073v-0c0.001-0.016 0.005-0.030 0.013-0.043l-0 0zM11.078 5.674c0.008-0.013 0.020-0.024 0.033-0.031l0-0 2.996-1.603c0.013-0.008 0.029-0.012 0.046-0.012s0.032 0.004 0.045 0.011l-0.001-0 2.972 1.593c0.027 0.014 0.044 0.041 0.044 0.073 0 0 0 0 0 0v0c-0.002 0.032-0.020 0.059-0.046 0.073l-0 0-3.001 1.603c-0.013 0.007-0.028 0.011-0.044 0.011s-0.033-0.004-0.046-0.012l0.001 0-2.969-1.591c-0.027-0.014-0.044-0.041-0.045-0.072v-0c0.001-0.015 0.005-0.030 0.013-0.042l-0 0zM6.686 16.533l3.020 1.674c0.013 0.007 0.029 0.012 0.046 0.012s0.033-0.004 0.046-0.012l-0.001 0c0.027-0.015 0.045-0.044 0.045-0.076v0l-0.002-2.532c-0.121-0.019-0.26-0.030-0.401-0.030 0 0-0 0-0 0v0c-0.819 0-1.431 0.132-1.921 0.24-0.345 0.072-0.618 0.132-0.878 0.132v0.516c0 0.030 0.016 0.059 0.046 0.076zM13.663 20.431c0.013 0 0.030-0.003 0.046-0.013 0.027-0.015 0.045-0.044 0.045-0.076v0l-0.002-2.7c-0.283 0.007-0.582 0.010-0.842 0.010-0.349 0-0.493-0.010-0.556-0.016-0.086-0.063-0.257-0.299-0.372-0.461-0.296-0.414-0.73-1.023-1.431-1.359v2.852c0 0.033 0.016 0.063 0.046 0.076l3.020 1.678c0.013 0.007 0.030 0.010 0.046 0.010zM17.663 18.668v-0.359c-0.359 0.155-0.757 0.326-1.138 0.487-0.138-1.109-1.266-1.155-1.645-1.171-0.047-0.002-0.102-0.003-0.157-0.003-0.002 0-0.003 0-0.005 0h0c-0.072 0-0.158 0.003-0.253 0.003v2.717c0 0.033 0.016 0.059 0.043 0.076 0.013 0.008 0.029 0.012 0.046 0.012s0.032-0.004 0.046-0.012l-0.001 0 3.017-1.675c0.028-0.015 0.046-0.043 0.046-0.076 0-0 0-0 0-0v0zM18.798 17.803c-0.099 0.049-0.247 0.115-0.421 0.194v0.135c0 0.030 0.016 0.059 0.043 0.076 0.013 0.007 0.029 0.012 0.046 0.012s0.033-0.004 0.046-0.012l-0 0 1.234-0.684c-0.352 0.044-0.672 0.142-0.965 0.287l0.018-0.008z"></path>
<path fill="#804998" d="M11.052 22.489c-1 0-2.247-1.069-2.734-1.526-0.097-0.092-0.2-0.189-0.306-0.284l-0.013-0.012c-0.766-0.671-1.553-0.984-2.48-0.984-0.849 0-1.306-0.003-1.306-0.003v-3.178h2.428c0.319 0 0.635-0.066 0.997-0.145 0.464-0.102 1.043-0.227 1.803-0.227 1.112 0 1.655 0.76 2.089 1.372 0.247 0.345 0.461 0.645 0.714 0.684 0.112 0.020 0.322 0.026 0.661 0.026s0.743-0.007 1.086-0.016c0.203-0.006 0.459-0.011 0.717-0.013l0.017-0c0.053 0 0.099 0.003 0.132 0.003 0.773 0.033 1.086 0.243 1.122 0.75 0.007 0.132-0.007 0.263-0.046 0.388l-0.115 0.382 0.368-0.155c0.855-0.362 2.368-1.007 2.855-1.243 0.457-0.22 0.941-0.342 1.362-0.342 0.447 0 0.776 0.138 0.901 0.378 0.007 0.007 0.352 0.691-0.78 1.355 0.715-0.365 0.073 0.014-0.572 0.389l-1.395 0.752c-0.984 0.566-1.76 1.013-2.115 1.247-0.332 0.22-0.789 0.25-1.151 0.25-0.194 0-0.395-0.010-0.592-0.020-0.17-0.011-0.376-0.018-0.582-0.020l-0.006-0c-0.48 0-1.204 0.056-1.967 0.115-0.339 0.023-0.688 0.053-1.020 0.072-0.020 0.002-0.044 0.003-0.068 0.003h-0.001z"></path>
<path fill="#fff" opacity="0.2" d="M16.255 19.723c1.053-0.444 2.405-1.023 2.865-1.247 0.434-0.207 0.888-0.322 1.283-0.322 0.368 0 0.645 0.102 0.737 0.276 0.007 0.020 0.247 0.546-0.711 1.109 0.675-0.343 0.034 0.035-0.609 0.409l-1.354 0.729c-0.987 0.569-1.766 1.016-2.128 1.257-0.289 0.191-0.711 0.217-1.046 0.217-0.188 0-0.375-0.010-0.566-0.016-0.176-0.012-0.39-0.020-0.606-0.023l-0.009-0c-0.487 0-1.204 0.056-1.964 0.112-0.359 0.026-0.704 0.056-1.036 0.076l-0.059 0.003c-0.961 0-2.237-1.132-2.605-1.477-0.141-0.132-0.243-0.227-0.326-0.299-0.799-0.701-1.628-1.030-2.599-1.030-0.536 0-0.914 0-1.122-0.003v-2.803h2.24c0.339 0 0.661-0.069 1.036-0.151 0.461-0.099 1.026-0.224 1.763-0.224 1.016 0 1.507 0.688 1.938 1.296 0.27 0.378 0.503 0.707 0.836 0.76 0.128 0.020 0.342 0.030 0.691 0.030 0.322 0 0.704-0.007 1.033-0.016h0.118c0.181-0.006 0.415-0.011 0.649-0.013l0.019-0c0.053 0 0.092 0 0.125 0.003 0.839 0.036 0.924 0.28 0.944 0.572 0.007 0.112-0.007 0.22-0.036 0.322l-0.25 0.674c0 0 0.493-0.112 0.75-0.22z"></path>
<path fill="#68217a" d="M11.050 22.676c-0.977 0-2.151-0.911-2.859-1.576-0.122-0.115-0.23-0.217-0.316-0.293-0.73-0.638-1.477-0.938-2.355-0.938-0.849 0-1.309-0.003-1.309-0.003-0.102-0.001-0.185-0.084-0.185-0.187 0 0 0 0 0 0v0l0.001-3.178c0-0.103 0.084-0.187 0.187-0.187v0l2.428 0.003c0.299 0 0.602-0.069 0.957-0.145 0.474-0.102 1.063-0.23 1.842-0.23 1.207 0 1.803 0.839 2.24 1.451 0.214 0.299 0.414 0.582 0.589 0.609 0.257 0.043 1.115 0.023 1.743 0.007 0.378-0.007 0.707-0.013 0.849-0.010 0.615 0.026 1.25 0.158 1.299 0.924 0.013 0.174-0.010 0.326-0.049 0.457 0.819-0.349 2.359-1.003 2.849-1.24 1.063-0.513 2.191-0.48 2.51 0.115 0.102 0.194 0.273 0.947-0.852 1.609 0.723-0.368 0.080 0.009-0.564 0.384l-1.403 0.754c-0.984 0.566-1.76 1.013-2.109 1.243-0.49 0.326-1.188 0.293-1.865 0.26-0.194-0.010-0.385-0.016-0.569-0.016-0.474 0-1.191 0.053-1.954 0.112-0.339 0.023-0.688 0.053-1.023 0.072-0.024 0.002-0.052 0.003-0.081 0.003h-0.001zM4.401 19.495c0.207 0 0.586 0 1.118 0 0.961 0 1.813 0.339 2.602 1.033 0.089 0.076 0.197 0.181 0.322 0.299 0.641 0.599 1.839 1.539 2.665 1.474 0.332-0.023 0.681-0.049 1.020-0.076 0.766-0.056 1.493-0.112 1.98-0.112 0.191 0 0.388 0.010 0.589 0.016 0.615 0.030 1.25 0.063 1.638-0.197 0.362-0.237 1.141-0.688 2.128-1.257 0.605-0.345 1.28-0.734 1.964-1.135 0.566-0.332 0.878-0.796 0.711-1.109-0.197-0.378-1.079-0.408-2.016 0.046-0.681 0.329-3.283 1.421-3.395 1.467-0.032 0.027-0.074 0.044-0.12 0.044-0.103 0-0.187-0.084-0.187-0.187 0-0.077 0.047-0.143 0.113-0.172l0.001-0c0.011-0.010 0.284-0.25 0.255-0.681-0.023-0.342-0.184-0.543-0.941-0.576-0.132-0.007-0.454 0.003-0.826 0.010-0.714 0.016-1.52 0.036-1.813-0.010-0.329-0.056-0.563-0.382-0.832-0.763-0.411-0.576-0.924-1.293-1.938-1.293-0.74 0-1.283 0.118-1.763 0.22-0.375 0.082-0.697 0.151-1.036 0.151h-2.24v2.806z"></path>
<path fill="#68217a" d="M12.854 20.25c-0.737 0-1.263-0.089-1.559-0.349l-1.148-1.010 0.247-0.28 1.148 1.007c0.391 0.345 2.082 0.217 2.72 0.174 1.013-0.066 1.118-0.118 1.734-0.365 0.020-0.008 0.044-0.013 0.069-0.013 0.103 0 0.187 0.084 0.187 0.187 0 0.078-0.047 0.144-0.114 0.172l-0.001 0c-0.65 0.262-0.801 0.321-1.847 0.39-0.395 0.026-1.115 0.086-1.434 0.086z"></path>
</svg>
