<!-- Generated by IcoMoon.io -->
<svg version="1.1" xmlns="http://www.w3.org/2000/svg" width="27" height="32" viewBox="0 0 27 32">
<title>Managed-Disk-Standard-HDD</title>
<path fill="#7fba00" d="M24.529 16.813c0 2.23-4.992 4.036-11.147 4.036-6.16 0-11.151-1.805-11.151-4.036v-2.175h22.299v2.175z"></path>
<path fill="#b8d432" d="M24.529 14.637c0 2.23-4.992 4.036-11.147 4.036-6.16 0-11.151-1.805-11.151-4.036s4.992-4.040 11.151-4.040c6.156 0 11.147 1.809 11.147 4.040z"></path>
<path fill="#7fba00" d="M16.956 14.406c0 0.594-1.601 1.070-3.579 1.070-1.971 0-3.572-0.476-3.572-1.070 0-0.598 1.601-1.074 3.572-1.074 1.979 0 3.579 0.476 3.579 1.074z"></path>
<path fill="#fff" opacity="0.25" d="M21.441 11.873c-1.566-0.594-3.615-1.015-5.924-1.176l-1.447 2.679c0.712 0.039 1.349 0.146 1.841 0.291l5.53-1.794z"></path>
<path fill="#fff" opacity="0.25" d="M4.862 17.266c1.605 0.684 3.835 1.176 6.372 1.353l1.691-3.127c-0.704-0.028-1.345-0.114-1.857-0.248l-6.207 2.022z"></path>
<path fill="#7fba00" d="M24.529 8.11c0 2.23-4.992 4.036-11.147 4.036-6.16 0-11.151-1.805-11.151-4.036v-2.175h22.299v2.175z"></path>
<path fill="#b8d432" d="M24.529 5.934c0 2.23-4.992 4.036-11.147 4.036-6.16 0-11.151-1.805-11.151-4.036s4.992-4.040 11.151-4.040c6.156 0 11.147 1.809 11.147 4.040z"></path>
<path fill="#7fba00" d="M16.956 5.703c0 0.594-1.601 1.070-3.579 1.070-1.971 0-3.572-0.476-3.572-1.070 0-0.598 1.601-1.074 3.572-1.074 1.979 0 3.579 0.476 3.579 1.074z"></path>
<path fill="#fff" opacity="0.25" d="M21.441 3.148c-1.566-0.594-3.615-1.015-5.924-1.176l-1.447 2.679c0.712 0.039 1.349 0.146 1.841 0.291l5.53-1.794z"></path>
<path fill="#fff" opacity="0.25" d="M4.862 8.541c1.605 0.684 3.835 1.176 6.372 1.353l1.691-3.127c-0.704-0.028-1.345-0.114-1.857-0.248l-6.207 2.022z"></path>
</svg>
