<!-- Generated by IcoMoon.io -->
<svg version="1.1" xmlns="http://www.w3.org/2000/svg" width="31" height="32" viewBox="0 0 31 32">
<title>Managed-Disk-Snapshot</title>
<path fill="#76bc2d" d="M20.514 17.617c0 1.111-2.166 2.013-4.838 2.013s-4.838-0.901-4.838-2.013c0-1.111 2.166-2.013 4.838-2.013s4.838 0.901 4.838 2.013z"></path>
<path fill="#5e9624" d="M17.405 17.601c0 0.245-0.721 0.445-1.61 0.445s-1.61-0.199-1.61-0.445c0-0.245 0.721-0.445 1.61-0.445s1.61 0.199 1.61 0.445z"></path>
<path fill="#000" d="M20.514 13.148c0 1.111-2.166 2.013-4.838 2.013s-4.838-0.901-4.838-2.013c0-1.111 2.166-2.013 4.838-2.013s4.838 0.901 4.838 2.013z"></path>
<path fill="#005ba1" d="M17.405 13.123c0 0.245-0.721 0.445-1.61 0.445s-1.61-0.199-1.61-0.445c0-0.245 0.721-0.445 1.61-0.445s1.61 0.199 1.61 0.445z"></path>
<path fill="#949494" d="M11.594 8.725h-2.392c-0.005-0-0.010-0-0.015-0-0.255 0-0.462 0.21-0.462 0.469 0 0.003 0 0.006 0 0.009v-0 2.425c0 0.129 0.104 0.234 0.231 0.234v0l0.264-0.001c0.002 0 0.005 0 0.008 0 0.128 0 0.231-0.105 0.231-0.234 0-0 0-0 0-0v0l-0-2.188h2.135c0.002 0 0.005 0 0.008 0 0.128 0 0.231-0.105 0.231-0.234 0-0 0-0 0-0v0l-0-0.235c0-0.002 0-0.005 0-0.008 0-0.129-0.104-0.234-0.231-0.234-0.003 0-0.006 0-0.009 0h0zM22.044 8.725h-2.392c-0.132 0-0.239 0.109-0.239 0.242v0l0 0.261c0.016 0.119 0.116 0.21 0.237 0.21 0.001 0 0.002 0 0.002 0l2.145 0v2.181c-0 0.003-0 0.006-0 0.009 0 0.129 0.104 0.234 0.231 0.234 0.006 0 0.011-0 0.017-0.001l-0.001 0 0.264-0.001c0.002 0 0.005 0 0.008 0 0.128 0 0.231-0.105 0.231-0.234 0-0 0-0 0-0v0l-0-2.424c0-0 0-0.001 0-0.002 0-0.263-0.211-0.477-0.47-0.477-0.012 0-0.023 0-0.034 0.001l0.002-0zM11.594 22.539h-2.135v-2.181c0-0 0-0 0-0 0-0.129-0.104-0.234-0.231-0.234-0.003 0-0.006 0-0.008 0h0l-0.264-0.002c-0.128 0-0.231 0.105-0.231 0.234v0l0 2.427c-0 0.002-0 0.004-0 0.006 0 0.259 0.207 0.469 0.462 0.469h2.392c0.002 0 0.005 0 0.008 0 0.128 0 0.231-0.105 0.231-0.234 0-0 0-0 0-0v0l-0-0.258c-0.008-0.122-0.103-0.218-0.222-0.226l-0.001-0zM22.275 20.122h-0.231c-0.128 0-0.231 0.105-0.231 0.234v0l0 2.183h-2.161c-0.13 0.004-0.235 0.11-0.239 0.242v0l0 0.258c0.004 0.13 0.11 0.234 0.239 0.234 0 0 0 0 0 0v0l2.391 0.002c0.259-0 0.47-0.214 0.47-0.477 0-0 0-0 0-0v0-2.425c0-0.005 0.001-0.011 0.001-0.016 0-0.129-0.104-0.234-0.231-0.234-0.003 0-0.006 0-0.009 0h0z"></path>
<path fill="#5e9624" d="M15.667 19.589c2.671 0 4.84-0.896 4.84-2.012v1.188c-0.056 1.083-2.217 1.989-4.84 1.989s-4.837-0.906-4.837-2.014v-1.163c0.008 1.116 2.176 2.012 4.837 2.012z"></path>
<path fill="#0078d4" d="M15.667 15.094c2.671 0 4.84-0.903 4.84-2.012v1.206c-0.056 1.091-2.217 1.955-4.84 1.955s-4.83-0.906-4.83-2.022v-1.114c0 1.106 2.168 1.986 4.83 1.986z"></path>
</svg>
