<!-- Generated by IcoMoon.io -->
<svg version="1.1" xmlns="http://www.w3.org/2000/svg" width="27" height="32" viewBox="0 0 27 32">
<title>Managed-Disk-Ultra-SSD</title>
<path fill="#661db0" d="M24.529 16.813c0 2.23-4.992 4.036-11.147 4.036-6.16 0-11.151-1.805-11.151-4.036v-2.179h22.299v2.179z"></path>
<path fill="#945ccf" d="M24.529 14.637c0 2.23-4.992 4.036-11.147 4.036-6.16 0-11.151-1.805-11.151-4.036s4.992-4.040 11.151-4.040c6.156 0 11.147 1.809 11.147 4.040z"></path>
<path fill="#661db0" d="M16.956 14.406c0 0.59-1.601 1.070-3.579 1.070-1.971 0-3.572-0.48-3.572-1.070 0-0.598 1.601-1.078 3.572-1.078 1.979 0 3.579 0.48 3.579 1.078z"></path>
<path fill="#fff" opacity="0.25" d="M21.441 11.87c-1.566-0.59-3.615-1.011-5.924-1.176l-1.447 2.679c0.712 0.043 1.349 0.146 1.841 0.295l5.53-1.798z"></path>
<path fill="#fff" opacity="0.25" d="M4.862 17.262c1.605 0.688 3.835 1.176 6.372 1.357l1.691-3.131c-0.704-0.028-1.345-0.114-1.857-0.244l-6.207 2.018z"></path>
<path fill="#661db0" d="M24.529 8.11c0 2.23-4.992 4.036-11.147 4.036-6.16 0-11.151-1.809-11.151-4.036v-2.179h22.299v2.179z"></path>
<path fill="#945ccf" d="M24.529 5.934c0 2.23-4.992 4.036-11.147 4.036-6.16 0-11.151-1.809-11.151-4.036 0-2.23 4.992-4.040 11.151-4.040 6.156 0 11.147 1.809 11.147 4.040z"></path>
<path fill="#661db0" d="M16.956 5.703c0 0.59-1.601 1.070-3.579 1.070-1.971 0-3.572-0.48-3.572-1.070 0-0.598 1.601-1.078 3.572-1.078 1.979 0 3.579 0.48 3.579 1.078z"></path>
<path fill="#fff" opacity="0.25" d="M21.441 3.144c-1.566-0.59-3.615-1.011-5.924-1.176l-1.447 2.679c0.712 0.043 1.349 0.146 1.841 0.295l5.53-1.798z"></path>
<path fill="#fff" opacity="0.25" d="M4.862 8.537c1.605 0.688 3.835 1.176 6.372 1.357l1.691-3.131c-0.704-0.028-1.345-0.114-1.857-0.244l-6.207 2.018z"></path>
</svg>
