<!-- Generated by IcoMoon.io -->
<svg version="1.1" xmlns="http://www.w3.org/2000/svg" width="30" height="32" viewBox="0 0 30 32">
<title>Marketplace</title>
<path fill="#50e6ff" d="M20.054 12.323h-0.865v10.95l0.865-1.645v-9.305z"></path>
<path fill="#9cebff" d="M20.059 21.612l-0.005 0.013-0.865 1.645 1.902-1.494-1.032-0.164z"></path>
<path fill="#a3a3a3" d="M14.548 10.693c0.028-0.721 0.609-1.294 1.32-1.294 0.016 0 0.032 0 0.047 0.001l-0.002-0c0.013-0 0.029-0.001 0.044-0.001 0.711 0 1.291 0.574 1.318 1.292l0 0.003v1.624h0.654v-1.624c-0.057-1.091-0.939-1.953-2.018-1.953s-1.961 0.862-2.018 1.948l-0 0.005v1.624h0.654v-1.624z"></path>
<path fill="#767676" d="M12.544 10.693c0.028-0.721 0.607-1.294 1.318-1.294 0.015 0 0.029 0 0.044 0.001l-0.002-0c0.013-0 0.029-0.001 0.044-0.001 0.711 0 1.291 0.574 1.318 1.292l0 0.003v1.624h0.657v-1.624c-0.026-1.093-0.901-1.969-1.977-1.969-0.013 0-0.026 0-0.040 0l0.002-0c-0.013-0-0.028-0-0.043-0-1.076 0-1.951 0.876-1.977 1.966l-0 0.002v1.624h0.654v-1.624z"></path>
<path fill="#32bedd" d="M19.188 12.325v10.945l-10.463-0.842 0.318-10.103h10.144zM20.055 12.325v9.3l1.037 0.151-0.318-9.452h-0.719z"></path>
<path fill="#000" d="M17.746 18.779c-0.024-0.913-0.656-1.669-1.496-1.866l-0.013-0.003c-0.041-1.257-1.010-2.27-2.228-2.353l-0.007-0c-0.051-0.004-0.109-0.007-0.169-0.007-0.901 0-1.668 0.584-1.957 1.401l-0.005 0.015c-1.002 0.079-1.786 0.927-1.786 1.962 0 0.006 0 0.012 0 0.017v-0.001c0.031 1.213 0.962 2.194 2.136 2.276l0.007 0c0.064 0 0.128 0.005 0.19 0l3.493 0.239c0.006 0 0.012 0.001 0.019 0.001 0.026 0 0.051-0.003 0.076-0.009l-0.002 0c0.028 0.002 0.060 0.003 0.092 0.003 0.909 0 1.647-0.75 1.65-1.675v-0z"></path>
</svg>
