<!-- Generated by IcoMoon.io -->
<svg version="1.1" xmlns="http://www.w3.org/2000/svg" width="32" height="32" viewBox="0 0 32 32">
<title>Mesh-Application</title>
<path fill="#e27908" d="M16.001 16.602l-2.154 2.154c0-0.174-0.171-0.345-0.258-0.517-0.084-0.174-0.171-0.174-0.258-0.174l2.067-2.065-2.239-2.239c0.279-0.108 0.495-0.325 0.601-0.597l0.002-0.007 2.239 2.239 2.239-2.239c0.087 0.171 0.087 0.258 0.258 0.345 0.133 0.068 0.247 0.154 0.342 0.258l0.001 0.001-2.239 2.239 2.154 2.152c-0.295 0.098-0.506 0.367-0.517 0.687l-0 0.001-2.239-2.239z"></path>
<path fill="#e27908" d="M12.986 19.962l1.893 1.893v-0.084c0.017-0.374 0.18-0.707 0.432-0.946l0.001-0.001-1.55-1.55c-0.092 0.366-0.396 0.64-0.771 0.688l-0.005 0z"></path>
<path fill="#e27908" d="M10.144 17.034l1.809 1.893c0.020-0.364 0.264-0.667 0.595-0.774l0.006-0.002-1.463-1.548c-0.24 0.252-0.573 0.413-0.944 0.43l-0.003 0z"></path>
<path fill="#e27908" d="M11.953 13.072l-1.55 1.55c0.37 0.067 0.678 0.289 0.859 0.595l0.003 0.006 1.463-1.463-0.517-0.258c-0.087-0.171-0.171-0.258-0.258-0.43z"></path>
<path fill="#e27908" d="M14.881 10.143l-1.809 1.809c0.34 0.086 0.603 0.348 0.687 0.682l0.001 0.007 1.55-1.548c-0.264-0.227-0.43-0.562-0.43-0.935 0-0.005 0-0.010 0-0.015v0.001z"></path>
<path fill="#e27908" d="M19.014 11.952l-1.722-1.722c-0.032 0.362-0.228 0.673-0.512 0.86l-0.004 0.003 1.55 1.548c0.086-0.34 0.348-0.603 0.682-0.687l0.006-0.001z"></path>
<path fill="#e27908" d="M21.77 14.709l-1.637-1.637c-0.085 0.341-0.348 0.605-0.682 0.689l-0.006 0.001 1.55 1.548c0.129-0.323 0.42-0.557 0.771-0.601l0.005-0z"></path>
<path fill="#e27908" d="M20.994 16.69l-1.463 1.463c0.171 0.084 0.258 0.084 0.345 0.258 0.159 0.144 0.259 0.351 0.259 0.581 0 0.007-0 0.014-0 0.021l0-0.001 1.806-1.806c-0.376-0.071-0.701-0.255-0.946-0.516l-0.001-0.001z"></path>
<path fill="#e27908" d="M18.325 19.359l-1.463 1.463 0.087 0.087c0.212 0.201 0.344 0.485 0.344 0.8 0 0.021-0.001 0.042-0.002 0.062l0-0.003 1.809-1.806c-0.006 0-0.013 0-0.020 0-0.23 0-0.437-0.1-0.58-0.258l-0.001-0.001c-0.088-0.092-0.151-0.21-0.173-0.341l-0.001-0.004z"></path>
<path fill="#f78d1e" d="M14.192 12.9c0 0.713-0.578 1.292-1.292 1.292s-1.292-0.578-1.292-1.292c0-0.713 0.578-1.292 1.292-1.292s1.292 0.578 1.292 1.292z"></path>
<path fill="#f78d1e" d="M20.392 12.9c0 0.713-0.578 1.292-1.292 1.292s-1.292-0.578-1.292-1.292c0-0.713 0.578-1.292 1.292-1.292s1.292 0.578 1.292 1.292z"></path>
<path fill="#f78d1e" d="M14.192 19.1c0 0.713-0.578 1.292-1.292 1.292s-1.292-0.578-1.292-1.292c0-0.713 0.578-1.292 1.292-1.292s1.292 0.578 1.292 1.292z"></path>
<path fill="#f78d1e" d="M20.392 19.1c0 0.713-0.578 1.292-1.292 1.292s-1.292-0.578-1.292-1.292c0-0.713 0.578-1.292 1.292-1.292s1.292 0.578 1.292 1.292z"></path>
<path fill="#000" d="M10.145 14.365c0.903 0.001 1.635 0.733 1.635 1.636s-0.733 1.636-1.636 1.636-1.636-0.733-1.636-1.636c0-0 0-0.001 0-0.001v0c0.001-0.903 0.733-1.635 1.636-1.635 0 0 0.001 0 0.001 0h-0zM21.856 14.365c0 0 0.001 0 0.001 0 0.904 0 1.636 0.733 1.636 1.636s-0.733 1.636-1.636 1.636c-0.904 0-1.636-0.733-1.636-1.636 0-0 0-0.001 0-0.001v0c0.001-0.903 0.732-1.634 1.635-1.635h0z"></path>
<path fill="#000" d="M16.001 8.508c0.903 0.001 1.635 0.733 1.635 1.636s-0.733 1.636-1.636 1.636c-0.903 0-1.635-0.732-1.636-1.635v-0c0-0 0-0.001 0-0.001 0-0.904 0.733-1.636 1.636-1.636 0 0 0.001 0 0.001 0h-0zM16.001 20.22c0.903 0.001 1.635 0.733 1.635 1.636s-0.733 1.636-1.636 1.636-1.636-0.733-1.636-1.636c0-0 0-0.001 0-0.001v0c0.001-0.903 0.733-1.635 1.636-1.635 0 0 0.001 0 0.001 0h-0z"></path>
</svg>
