<!-- Generated by IcoMoon.io -->
<svg version="1.1" xmlns="http://www.w3.org/2000/svg" width="31" height="32" viewBox="0 0 31 32">
<title>Metric</title>
<path fill="#b796f9" d="M20.357 9.686l-3.426 6.077-3.626-3.68-3.744 4.822 0.885 0.685 2.959-3.811 3.77 3.826 4.16-7.37-0.978-0.549z"></path>
<path fill="#000" d="M14.757 12.913c0 0.003 0 0.006 0 0.009 0 0.775-0.631 1.403-1.409 1.403s-1.409-0.628-1.409-1.403c0-0.769 0.622-1.394 1.393-1.403h0.001c0.004-0 0.008-0 0.013-0 0.775 0 1.405 0.623 1.411 1.393v0.001zM17.16 15.025c-0.778 0.004-1.408 0.633-1.408 1.409 0 0.778 0.633 1.409 1.415 1.409s1.415-0.631 1.415-1.409c0-0.006-0-0.012-0-0.019v0.001c-0.008-0.77-0.637-1.391-1.411-1.391-0.004 0-0.007 0-0.011 0h0.001zM20.709 8.724c-0.777 0.005-1.405 0.634-1.405 1.409 0 0.778 0.633 1.409 1.415 1.409s1.415-0.631 1.415-1.409c0-0.005-0-0.011-0-0.016v0.001c-0.007-0.771-0.637-1.394-1.412-1.394-0.004 0-0.008 0-0.013 0h0.001zM10.133 15.63c-0.778 0.004-1.408 0.633-1.408 1.409 0 0.778 0.633 1.409 1.415 1.409s1.415-0.631 1.415-1.409c0-0.004-0-0.009-0-0.013v0.001c-0.006-0.772-0.636-1.396-1.413-1.396-0.003 0-0.006 0-0.009 0h0z"></path>
<path fill="#0078d4" d="M12.573 23.033c0 0.134 0.109 0.242 0.243 0.242l1.728-0.001c0.134 0 0.243-0.108 0.243-0.242v0l0.001-6.004c0-0.134-0.109-0.242-0.243-0.242l-1.728 0.001c-0.134 0-0.243 0.108-0.243 0.242v0l-0.001 6.004z"></path>
<path fill="#005ba1" d="M9.039 23.033c0 0.134 0.109 0.242 0.243 0.242l1.728-0.001c0.134 0 0.243-0.108 0.243-0.242v0l0.001-3.759c0-0.134-0.109-0.242-0.243-0.242l-1.728 0.001c-0.134 0-0.243 0.108-0.243 0.242v0l-0.001 3.759z"></path>
<path fill="#005ba1" d="M9.039 23.033c0 0.134 0.109 0.242 0.243 0.242l1.728-0.001c0.134 0 0.243-0.108 0.243-0.242v0l0.001-8.175c0-0.134-0.109-0.242-0.243-0.242l-1.728 0.001c-0.134 0-0.243 0.108-0.243 0.242v0l-0.001 8.175z"></path>
<path fill="#5ea0ef" d="M9.039 23.033c0 0.134 0.109 0.242 0.243 0.242l1.728-0.001c0.134 0 0.243-0.108 0.243-0.242v0l0.001-3.759c0-0.134-0.109-0.242-0.243-0.242l-1.728 0.001c-0.134 0-0.243 0.108-0.243 0.242v0l-0.001 3.759z"></path>
</svg>
