<!-- Generated by IcoMoon.io -->
<svg version="1.1" xmlns="http://www.w3.org/2000/svg" width="32" height="32" viewBox="0 0 32 32">
<title>Mobility-MDM-And-MAM</title>
<path fill="#57a300" d="M16.422 13.184c0 0.448-0.367 0.81-0.819 0.81s-0.819-0.363-0.819-0.81c0-0.448 0.367-0.81 0.819-0.81s0.819 0.363 0.819 0.81z"></path>
<path fill="#57a300" d="M16.484 18.816c0 0.448-0.367 0.81-0.819 0.81s-0.819-0.363-0.819-0.81c0-0.448 0.367-0.81 0.819-0.81s0.819 0.363 0.819 0.81z"></path>
<path fill="#59b4d9" d="M13.597 19.221h-0.39c-1.249 0-2.273-1.013-2.273-2.248v-1.965c0.020-1.176 1.024-2.189 2.253-2.25h0.613c0.205 0 0.37 0.163 0.37 0.364 0 0.204-0.164 0.364-0.37 0.364h-0.593c-0.818 0.041-1.515 0.709-1.515 1.501v1.964c0 0.831 0.675 1.499 1.515 1.499h0.39c0.204 0 0.368 0.163 0.368 0.366 0 0.243-0.164 0.404-0.368 0.404z"></path>
<path fill="#804998" d="M18.285 19.221h-0.799c-0 0-0.001 0-0.001 0-0.203 0-0.367-0.163-0.367-0.363 0-0 0-0.001 0-0.001v0c0-0.202 0.164-0.364 0.368-0.364h0.799c0.84 0 1.515-0.668 1.515-1.499v-1.965c0-0.831-0.675-1.499-1.515-1.499h-0.593c-0 0-0.001 0-0.001 0-0.203 0-0.367-0.163-0.367-0.363 0-0 0-0.001 0-0.001v0c0-0.202 0.163-0.364 0.368-0.364h0.593c1.249 0 2.273 1.013 2.273 2.25v1.964c0 1.217-1.024 2.208-2.273 2.208z"></path>
<path fill="#68217a" d="M15.563 15.432c-0.574 0-1.167-0.222-1.597-0.649-0.066-0.068-0.107-0.161-0.107-0.263s0.041-0.195 0.107-0.263l-0 0c0.069-0.066 0.163-0.106 0.266-0.106s0.197 0.040 0.266 0.106l-0-0c0.271 0.272 0.648 0.441 1.065 0.441s0.793-0.169 1.065-0.44l0-0c0.275-0.269 0.446-0.642 0.446-1.054s-0.171-0.786-0.446-1.054l-0-0c-0.272-0.271-0.648-0.441-1.064-0.445h-0.001c-0.409 0-0.779 0.163-1.065 0.445-0.069 0.066-0.163 0.106-0.266 0.106s-0.197-0.040-0.266-0.106l0 0c-0.066-0.068-0.107-0.161-0.107-0.263s0.041-0.195 0.107-0.263l-0 0c0.401-0.422 0.968-0.686 1.597-0.69h0.001c0.615 0 1.167 0.243 1.597 0.649 0.408 0.408 0.66 0.97 0.66 1.59s-0.252 1.182-0.66 1.59l0-0c-0.398 0.412-0.958 0.668-1.579 0.668-0.007 0-0.013-0-0.019-0h0.001z"></path>
<path fill="#0072c6" d="M15.644 21.064c-0.615 0-1.167-0.243-1.597-0.649-0.408-0.408-0.66-0.97-0.66-1.59s0.252-1.182 0.66-1.59l-0 0c0.406-0.401 0.967-0.649 1.586-0.649 0.004 0 0.008 0 0.012 0h-0.001c0.615 0 1.167 0.245 1.597 0.649 0.066 0.068 0.107 0.161 0.107 0.264s-0.041 0.195-0.108 0.264l0-0c-0.069 0.066-0.163 0.106-0.266 0.106s-0.197-0.040-0.266-0.106l0 0c-0.272-0.271-0.648-0.441-1.064-0.445h-0.001c-0.409 0-0.777 0.161-1.065 0.445-0.275 0.268-0.445 0.641-0.445 1.053s0.17 0.785 0.445 1.053l0 0c0.27 0.274 0.648 0.444 1.065 0.444s0.795-0.17 1.065-0.444l0-0c0.069-0.066 0.163-0.106 0.266-0.106s0.197 0.040 0.266 0.106l-0-0c0.066 0.068 0.107 0.161 0.107 0.264s-0.041 0.195-0.108 0.264l0-0c-0.409 0.425-0.983 0.668-1.597 0.668z"></path>
</svg>
