<!-- Generated by IcoMoon.io -->
<svg version="1.1" xmlns="http://www.w3.org/2000/svg" width="23" height="32" viewBox="0 0 23 32">
<title>Mobile-Application</title>
<path fill="#3e3e3e" d="M17.632 21.941c-0 0.595-0.49 1.077-1.095 1.077-0 0-0.001 0-0.001 0h-10.382c-0 0-0.001 0-0.001 0-0.605 0-1.095-0.482-1.095-1.077v-15.806c0-0.595 0.49-1.077 1.095-1.077 0 0 0.001 0 0.001 0h10.382c0 0 0.001 0 0.001 0 0.605 0 1.095 0.482 1.095 1.077v15.806z"></path>
<path fill="#59b4d9" d="M5.87 6.854h10.95v12.653h-10.95v-12.653z"></path>
<path fill="#fff" d="M12.4 21.264c0 0.573-0.472 1.038-1.055 1.038s-1.055-0.465-1.055-1.038v0c0-0.573 0.472-1.038 1.055-1.038s1.055 0.465 1.055 1.038v0z"></path>
<path fill="#b8d432" d="M12.037 21.262c0 0.376-0.31 0.681-0.692 0.681s-0.692-0.305-0.692-0.681v0c0-0.376 0.31-0.681 0.692-0.681s0.692 0.305 0.692 0.681v0z"></path>
<path fill="#fff" opacity="0.15" d="M5.869 19.508v-12.654h8.31l0.741-1.796h-8.766c-0 0-0.001 0-0.001 0-0.605 0-1.095 0.482-1.095 1.077v15.806c0 0.595 0.49 1.077 1.095 1.077 0 0 0.001 0 0.001 0h1.346l1.451-3.51h-3.083z"></path>
<path fill="#1e1e1e" d="M13.211 6.071c0 0.146-0.12 0.263-0.269 0.263h-3.194c-0.003 0-0.006 0-0.010 0-0.149 0-0.27-0.119-0.27-0.265s0.121-0.265 0.27-0.265c0.004 0 0.007 0 0.010 0l3.193 0.002c0.149 0 0.269 0.117 0.269 0.266z"></path>
<path fill="#fff" d="M13.211 6.069c0 0.149-0.12 0.266-0.269 0.266h-3.194c-0.003 0-0.006 0-0.010 0-0.149 0-0.27-0.119-0.27-0.265s0.121-0.265 0.27-0.265c0.004 0 0.007 0 0.010 0l3.193 0.002c0.149 0 0.269 0.117 0.269 0.263zM11.355 12.712c-0.018-0-0.035-0.005-0.049-0.014l0 0-3.214-1.824c-0.029-0.017-0.048-0.048-0.048-0.083s0.019-0.066 0.048-0.083l0-0 3.194-1.815c0.014-0.008 0.030-0.012 0.048-0.012s0.034 0.005 0.049 0.013l-0-0 3.215 1.825c0.029 0.017 0.048 0.047 0.048 0.082 0 0 0 0.001 0 0.001v-0c0 0 0 0.001 0 0.001 0 0.035-0.019 0.065-0.047 0.081l-0 0-3.19 1.815c-0.014 0.008-0.031 0.013-0.049 0.014h-0l-0.001-0.001z"></path>
<path fill="#fff" opacity="0.7" d="M10.892 17.149c-0 0-0 0-0.001 0-0.018 0-0.035-0.005-0.049-0.014l0 0-3.202-1.818c-0.030-0.016-0.050-0.047-0.050-0.082 0-0 0-0.001 0-0.001v0l-0.001-3.652c0-0.035 0.019-0.067 0.051-0.082 0.014-0.008 0.031-0.013 0.049-0.013s0.035 0.005 0.049 0.013l-0-0 3.203 1.819c0.028 0.018 0.047 0.049 0.047 0.084v0l0 3.652c-0 0.035-0.019 0.066-0.047 0.083l-0 0c-0.014 0.008-0.031 0.013-0.048 0.014h-0l-0.002-0.002z"></path>
<path fill="#fff" opacity="0.4" d="M11.801 17.149c-0.019-0-0.036-0.005-0.051-0.014l0.001 0c-0.028-0.017-0.047-0.048-0.047-0.083 0-0 0-0 0-0v0l-0.001-3.629c0-0.032 0.019-0.063 0.048-0.082l3.203-1.819c0.014-0.008 0.030-0.013 0.048-0.013s0.034 0.005 0.049 0.013l-0-0c0.030 0.016 0.049 0.047 0.049 0.083 0 0 0 0 0 0v0l0 3.627c0 0 0 0.001 0 0.001 0 0.035-0.020 0.066-0.049 0.082l-0 0-3.201 1.821c-0.013 0.009-0.029 0.014-0.047 0.014-0 0-0 0-0 0v0l-0-0.001z"></path>
</svg>
