<!-- Generated by IcoMoon.io -->
<svg version="1.1" xmlns="http://www.w3.org/2000/svg" width="32" height="32" viewBox="0 0 32 32">
<title>Monitor</title>
<path fill="#000" d="M23.275 16c0 4.018-3.257 7.275-7.275 7.275s-7.275-3.257-7.275-7.275c0-4.018 3.257-7.275 7.275-7.275s7.275 3.257 7.275 7.275z"></path>
<path fill="#fff" d="M22.333 16c0 3.496-2.835 6.33-6.333 6.33s-6.333-2.834-6.333-6.33c0-3.496 2.835-6.33 6.333-6.33s6.333 2.834 6.333 6.33z"></path>
<path fill="#9cebff" d="M10.625 16.379c0.094 1.349 0.671 2.547 1.558 3.434l0 0 1.712-1.717c-0.449-0.45-0.758-1.040-0.855-1.7l-0.002-0.017h-2.412z"></path>
<path fill="#32bedd" d="M19.536 11.939c-0.847-0.746-1.94-1.229-3.142-1.313l-0.017-0.001v2.394c0.559 0.067 1.059 0.283 1.469 0.608l-0.006-0.005 1.696-1.684zM12.465 11.939l1.712 1.717c0.404-0.319 0.904-0.535 1.449-0.599l0.014-0.001v-2.43c-1.225 0.082-2.324 0.565-3.181 1.319l0.006-0.005zM18.378 14.153c0.314 0.408 0.531 0.907 0.606 1.452l0.002 0.016h2.389c-0.084-1.218-0.566-2.309-1.316-3.157l0.005 0.005-1.686 1.684z"></path>
<path fill="#50e6ff" d="M13.62 14.153l-1.712-1.717c-0.741 0.853-1.216 1.958-1.283 3.171l-0.001 0.014h2.387c0.077-0.561 0.294-1.060 0.614-1.475l-0.005 0.007z"></path>
<path fill="#f04049" d="M20.399 14.281c-0.060-0.14-0.196-0.237-0.355-0.237-0.048 0-0.093 0.009-0.135 0.024l0.003-0.001-3.526 1.424 0.275 0.695 3.526-1.399c0.145-0.055 0.246-0.193 0.246-0.354 0-0.056-0.012-0.109-0.034-0.156l0.001 0.002z"></path>
<path fill="#000" d="M17.027 16c0 0.569-0.46 1.031-1.027 1.031s-1.027-0.461-1.027-1.031c0-0.569 0.46-1.031 1.027-1.031s1.027 0.461 1.027 1.031z"></path>
</svg>
