<!-- Generated by IcoMoon.io -->
<svg version="1.1" xmlns="http://www.w3.org/2000/svg" width="32" height="32" viewBox="0 0 32 32">
<title>NAT-Gateway</title>
<path fill="#000" d="M15.662 23.026c0 0 0 0 0 0 0.186 0.186 0.489 0.186 0.675 0 0-0 0-0 0-0l6.689-6.689c0-0 0-0 0-0 0.186-0.186 0.186-0.489 0-0.675-0-0-0-0-0-0l-6.689-6.689c-0-0-0-0-0-0-0.186-0.186-0.489-0.186-0.675 0-0 0-0 0-0 0l-6.689 6.689c-0 0-0 0-0 0-0.186 0.186-0.186 0.489 0 0.675 0 0 0 0 0 0l6.689 6.689z"></path>
<path fill="#9cebff" d="M20.114 16.863l-0.291-0.291v-1.115h-2.307v1.229h1.034l-2.598 2.601-2.601-2.601h1.052v-1.229h-2.536v1.229h0.096l-0.174 0.177 3.635 3.632 0.527-0.527 0.527 0.527 3.635-3.632z"></path>
<path fill="#fff" d="M12.842 15.17c0.501 0.499 0.505 1.308 0.008 1.806s-1.305 0.498-1.806-0.001c-0.501-0.499-0.505-1.308-0.008-1.806s1.305-0.498 1.806 0.001z"></path>
<path fill="#86d633" d="M12.454 15.56c0.286 0.285 0.289 0.746 0.006 1.029s-0.743 0.281-1.029-0.004c-0.286-0.285-0.289-0.746-0.006-1.029s0.743-0.281 1.029 0.004z"></path>
<path fill="#fff" d="M20.95 15.17c0.501 0.499 0.505 1.308 0.008 1.806s-1.305 0.498-1.806-0.001c-0.501-0.499-0.505-1.308-0.008-1.806s1.305-0.498 1.806 0.001z"></path>
<path fill="#86d633" d="M20.562 15.561c0.286 0.285 0.289 0.746 0.006 1.029s-0.743 0.281-1.029-0.004c-0.286-0.285-0.289-0.746-0.006-1.029s0.743-0.281 1.029 0.004z"></path>
<path fill="#fff" d="M17.647 12.613l-1.613-1.616c-0.022-0.022-0.052-0.036-0.086-0.036s-0.064 0.014-0.086 0.036v0l-1.618 1.616c-0.022 0.022-0.036 0.053-0.036 0.086 0 0.067 0.054 0.121 0.121 0.121 0 0 0.001 0 0.001 0l0.917 0c0.048 0 0.086 0.039 0.086 0.086v0l0.002 8.29h1.231v-8.29c0-0 0-0 0-0 0-0.046 0.036-0.083 0.081-0.086l0.912 0.001c0.001 0 0.002 0 0.003 0 0.067 0 0.121-0.054 0.121-0.121 0-0.034-0.014-0.064-0.036-0.086l-0-0z"></path>
<path fill="#fff" d="M16.847 19.249c0.501 0.499 0.505 1.308 0.008 1.806s-1.305 0.498-1.806-0.001c-0.501-0.499-0.505-1.308-0.008-1.806s1.305-0.498 1.806 0.001z"></path>
<path fill="#86d633" d="M16.46 19.639c0.286 0.285 0.289 0.746 0.006 1.029s-0.743 0.281-1.029-0.004c-0.286-0.285-0.289-0.746-0.006-1.029s0.743-0.281 1.029 0.004z"></path>
</svg>
