<!-- Generated by IcoMoon.io -->
<svg version="1.1" xmlns="http://www.w3.org/2000/svg" width="34" height="32" viewBox="0 0 34 32">
<title>Network-Interface</title>
<path fill="#ffca00" d="M22.94 10.43h1.14c0.168 0.001 0.304 0.14 0.304 0.311 0 0 0 0.001 0 0.001v-0 3.199c0 0 0 0.001 0 0.001 0 0.171-0.136 0.31-0.304 0.311h-1.14v-3.823zM22.94 16.001h1.14c0.167 0.001 0.303 0.139 0.304 0.309v5.361c-0.001 0.171-0.137 0.309-0.304 0.309h-1.14v-5.979z"></path>
<path fill="#000" d="M10.602 22.229c0.001 0.348 0.277 0.629 0.618 0.629h11.101c0.341-0 0.617-0.282 0.618-0.629v-12.456c0-0 0-0.001 0-0.001 0-0.348-0.277-0.631-0.618-0.631h-11.101c-0.342 0-0.618 0.283-0.618 0.631 0 0 0 0.001 0 0.001v-0 12.456z"></path>
<path fill="#b4ec36" d="M13.982 19.566h-0.637c-0.095-0.005-0.171-0.085-0.171-0.183 0-0.003 0-0.007 0-0.010l-0 0 0.001-7.634c-0-0.003-0-0.006-0-0.009 0-0.096 0.076-0.174 0.17-0.174 0 0 0 0 0 0v0l1.73 0c0 0 0 0 0 0 0.094 0 0.17 0.078 0.17 0.174 0 0.003-0 0.006-0 0.010l0-0c0 0.003 0 0.006 0 0.009 0 0.098-0.075 0.178-0.17 0.183l-0 0-1.559-0.001v7.251h0.465c0.095 0.005 0.171 0.085 0.171 0.183 0 0.003-0 0.007-0 0.010l0-0c0 0 0 0.001 0 0.001 0 0.1-0.074 0.182-0.17 0.191l-0.001 0z"></path>
<path fill="#b4ec36" d="M14.072 20.498h-1.433c-0.095-0.005-0.171-0.085-0.171-0.183 0-0.003 0-0.007 0-0.010l-0 0-0.117-9.446c-0-0.002-0-0.004-0-0.006 0-0.051 0.021-0.098 0.054-0.131l0-0c0.027-0.034 0.067-0.055 0.112-0.055 0.002 0 0.003 0 0.005 0l2.556 0.001v0.374h-2.377l0.108 9.071h1.264v0.384zM19.451 19.657h-1.425c-0.051-0.002-0.095-0.026-0.125-0.064l-0-0c-0.033-0.030-0.054-0.074-0.054-0.123 0-0.002 0-0.004 0-0.006v0l-0.001-4.47c-0-0.003-0-0.006-0-0.009 0-0.096 0.076-0.174 0.17-0.174 0 0 0 0 0 0v0l0.816 0v-2.059h0.341v2.232c0 0.003 0 0.007 0 0.010 0 0.095-0.071 0.173-0.161 0.182l-0.001 0-0.817 0.002v4.041h1.256v0.438z"></path>
<path fill="#365615" d="M15.032 12.47c0 0.131 0.104 0.238 0.233 0.238l5.039-0.001c0.129 0 0.233-0.106 0.233-0.238v0l0.001-2.367c0-0.131-0.104-0.238-0.233-0.238l-5.039-0.002c-0.129 0-0.233 0.106-0.233 0.238v0l-0.001 2.37z"></path>
<path fill="#365615" d="M15.878 17.681c-0.131 0-0.238 0.104-0.238 0.233l0.001 3.926c0 0.129 0.106 0.233 0.238 0.233v0l0.52 0.001c0.131 0 0.238-0.104 0.238-0.233l-0.001-3.926c0-0.129-0.106-0.233-0.238-0.233v0l-0.52-0.001z"></path>
<path fill="#365615" d="M14.211 17.699c-0.131 0-0.238 0.104-0.238 0.233l0.001 3.926c0 0.129 0.106 0.233 0.238 0.233v0l0.52 0.001c0.131 0 0.238-0.104 0.238-0.233l-0.001-3.926c0-0.129-0.106-0.233-0.238-0.233v0l-0.52-0.001z"></path>
<path fill="#f2f2f2" d="M19.572 17.699c-0.131 0-0.238 0.104-0.238 0.233l0.001 3.926c0 0.129 0.106 0.233 0.238 0.233v0l0.52 0.001c0.131 0 0.238-0.104 0.238-0.233l-0.001-3.926c0-0.129-0.106-0.233-0.238-0.233v0l-0.52-0.001z"></path>
<path fill="#f2f2f2" d="M16.897 15.14c0 0.566-0.417 1.024-0.932 1.024s-0.932-0.459-0.932-1.024c0-0.566 0.417-1.024 0.932-1.024s0.932 0.459 0.932 1.024z"></path>
<path fill="#3b3b3b" d="M10.585 22.858h-1.14c-0 0-0.001 0-0.001 0-0.156 0-0.284-0.119-0.303-0.273l-0-0.002v-5.358c0-0 0-0.001 0-0.001 0-0.171 0.136-0.31 0.304-0.311h1.14v5.944z"></path>
</svg>
