<!-- Generated by IcoMoon.io -->
<svg version="1.1" xmlns="http://www.w3.org/2000/svg" width="22" height="32" viewBox="0 0 22 32">
<title>Network-Security-Group-Classic</title>
<path fill="#0072c6" d="M15.951 6.268c-4.204-0.447-4.931-2.24-4.931-2.24s-0.954 2.316-6.993 2.316v9.569c0 1.158 0.648 2.24 1.566 3.174 2.066 2.132 5.428 3.589 5.428 3.589s6.993-2.99 6.993-6.763v-9.569c-0.763 0-1.451-0.036-2.063-0.076z"></path>
<path fill="#3999c6" opacity="0.4" d="M12.776 10.193l3.174-3.924c-4.204-0.447-4.931-2.243-4.931-2.243s-0.954 2.319-6.993 2.319v9.566c0 1.158 0.648 2.243 1.566 3.178l2.372-2.915 4.813-5.98z"></path>
<path fill="#fff" opacity="0.3" d="M5.479 13.146v2.28c0 0.934 0.536 1.793 1.26 2.54 1.645 1.72 4.319 2.842 4.319 2.842v-7.661h-5.579z"></path>
<path fill="#fff" opacity="0.7" d="M11.019 20.807c0 0 5.579-2.391 5.579-5.382v-2.28h-5.579v7.661zM11.019 5.932c0 0-0.763 1.868-5.579 1.868v5.345h5.579v-7.214z"></path>
<path fill="#fff" opacity="0.3" d="M14.918 7.728c-3.326-0.375-3.898-1.757-3.898-1.757v7.174h5.579v-5.345c-0.612 0-1.184-0.036-1.681-0.072z"></path>
</svg>
