<!-- Generated by IcoMoon.io -->
<svg version="1.1" xmlns="http://www.w3.org/2000/svg" width="32" height="32" viewBox="0 0 32 32">
<title>Network-Watcher</title>
<path fill="#198ab3" d="M8.975 23.075c0.21 0.208 0.548 0.207 0.758-0.003 0-0 0-0 0.001-0.001l2.796-2.796c0-0 0-0 0.001-0.001 0.21-0.21 0.211-0.549 0.003-0.758l-0.049-0.049c-0-0-0-0-0-0-0.209-0.209-0.549-0.209-0.76 0.002-0 0-0 0-0.001 0.001l-2.796 2.796c-0 0-0 0-0.001 0.001-0.21 0.21-0.211 0.55-0.002 0.76 0 0 0 0 0 0l0.049 0.049z"></path>
<path fill="#000" d="M22.868 12.040c-0.182-0.439-0.397-0.818-0.653-1.166l0.011 0.015c-0.983-1.293-2.526-2.12-4.263-2.12-1.209 0-2.323 0.4-3.217 1.075l0.013-0.010-0.052 0.044c-0.909 0.701-1.576 1.674-1.88 2.795l-0.008 0.037c0 0.188-0.085 0.374-0.111 0.562-0.037 0.235-0.058 0.505-0.058 0.781 0 1.521 0.642 2.893 1.67 3.862l0.002 0.002c0.058 0.060 0.119 0.116 0.185 0.167l0.004 0.003 0.188 0.152c0.234 0.184 0.496 0.354 0.775 0.498l0.027 0.013 0.085 0.052 0.147 0.059 0.119 0.059 0.129 0.052 0.137 0.049 0.119 0.044 0.17 0.052h0.095l0.248 0.067 0.273 0.059h0.067c0.032 0.002 0.069 0.004 0.107 0.004s0.075-0.001 0.112-0.004l-0.005 0h1.3c0.246-0.029 0.465-0.074 0.678-0.134l-0.031 0.007c0.725-0.196 1.357-0.518 1.902-0.945l-0.011 0.009c0.364-0.283 0.681-0.599 0.956-0.95l0.009-0.012c0.697-0.893 1.118-2.029 1.118-3.264 0-0.689-0.131-1.347-0.369-1.952l0.013 0.036zM21.627 11.248h-1.042c-0.187-0.54-0.441-1.009-0.76-1.426l0.009 0.012c0.735 0.321 1.346 0.802 1.811 1.403l0.008 0.011h-0.026zM18.287 9.546c0.732 0.326 1.287 0.935 1.532 1.683l0.006 0.020h-1.537v-1.702zM18.287 11.963h1.769c0.154 0.531 0.255 1.146 0.281 1.78l0 0.015h-2.051v-1.795zM18.287 14.439h2.051c-0.025 0.652-0.126 1.269-0.295 1.858l0.014-0.055h-1.744v-1.839l-0.026 0.036zM15.623 13.221c0.046-0.481 0.129-0.921 0.25-1.345l-0.013 0.052h1.769v1.795h-2.043c0.010-0.17 0.018-0.34 0.036-0.503zM17.63 9.512v1.702h-1.53c0.245-0.769 0.798-1.378 1.512-1.695l0.018-0.007zM15.125 10.415c0.273-0.203 0.582-0.386 0.91-0.534l0.031-0.013c-0.308 0.408-0.563 0.878-0.742 1.385l-0.011 0.036h-0.99c0.237-0.33 0.501-0.617 0.796-0.869l0.006-0.005zM13.853 11.929h1.323c-0.087 0.322-0.159 0.71-0.201 1.107l-0.003 0.034c0 0.211-0.044 0.433-0.044 0.655h-1.589c0.035-0.25 0.080-0.467 0.138-0.678l-0.009 0.038c0.091-0.437 0.223-0.824 0.398-1.186l-0.013 0.031zM13.34 14.403h1.563c0.023 0.652 0.122 1.27 0.287 1.861l-0.013-0.056h-1.323c-0.282-0.524-0.466-1.138-0.512-1.791l-0.001-0.015zM14.323 16.905h1.034c0.187 0.54 0.441 1.009 0.76 1.426l-0.009-0.012c-0.722-0.324-1.322-0.805-1.777-1.402l-0.008-0.011zM17.648 18.607c-0.731-0.324-1.285-0.934-1.524-1.683l-0.005-0.019h1.53v1.702zM17.648 16.19h-1.787c-0.152-0.535-0.251-1.152-0.273-1.79l-0-0.013h2.043v1.821l0.018-0.018zM18.955 18.248c-0.174 0.157-0.382 0.28-0.612 0.355l-0.012 0.003v-1.702h1.537c-0.217 0.535-0.533 0.989-0.929 1.36l-0.002 0.002 0.018-0.018zM20.818 17.696c-0.284 0.222-0.608 0.416-0.954 0.567l-0.029 0.011c0.309-0.404 0.564-0.872 0.74-1.376l0.011-0.035h1.068c-0.245 0.315-0.52 0.589-0.825 0.825l-0.010 0.008zM22.081 16.182h-1.282c0.135-0.533 0.224-1.152 0.247-1.787l0-0.016h1.548c-0.041 0.675-0.226 1.299-0.525 1.853l0.012-0.024v-0.026zM21.047 13.724c-0.024-0.649-0.113-1.265-0.261-1.857l0.013 0.062h1.29c0.276 0.521 0.46 1.131 0.512 1.779l0.001 0.017h-1.555z"></path>
<path fill="#50e6ff" d="M17.228 17.645c0 1.898-1.545 3.437-3.452 3.437s-3.452-1.539-3.452-3.437c0-1.898 1.545-3.437 3.452-3.437s3.452 1.539 3.452 3.437z"></path>
<path fill="#fff" d="M16.476 17.585c0 1.489-1.213 2.697-2.709 2.697s-2.709-1.207-2.709-2.697c0-1.489 1.213-2.697 2.709-2.697s2.709 1.207 2.709 2.697z"></path>
<path fill="#76bc2d" d="M12.376 17.645l0.684 1.581 0.691-2.032 0.573 1.158 0.709-1.192h1.101c-0.028-0.156-0.063-0.291-0.107-0.421l0.006 0.021h-1.189l-0.462 0.774-0.709-1.344-0.658 1.932-0.598-1.37-0.735 1.334h-0.392c0.034 0.154 0.078 0.288 0.134 0.416l-0.005-0.014h0.495l0.462-0.843z"></path>
</svg>
