<!-- Generated by IcoMoon.io -->
<svg version="1.1" xmlns="http://www.w3.org/2000/svg" width="26" height="32" viewBox="0 0 26 32">
<title>Networking</title>
<path fill="#59b4d9" d="M3.763 13.824v8.235c0.001 0.292 0.236 0.528 0.526 0.528 0.001 0 0.001 0 0.002 0h5.093l1.229-1.202c0.76-0.903 1.355-0.312 1.355-0.312v0.023c0.614 0.578-0.159 1.322-0.159 1.322l-0.179 0.169h4.682c0 0 0.001 0 0.002 0 0.29 0 0.526-0.236 0.526-0.528v-8.235h-13.076z"></path>
<path fill="#a0a1a2" d="M16.311 19.256h-12.020c-0.002-0-0.003-0-0.005-0-0.289 0-0.523 0.235-0.523 0.526 0 0.001 0 0.002 0 0.002v-0 2.802h13.076v-2.802c-0.001-0.292-0.236-0.528-0.526-0.528-0.001 0-0.001 0-0.002 0h0z"></path>
<path fill="#fff" opacity="0.2" d="M4.291 11.374c-0 0-0.001 0-0.002 0-0.291 0-0.526 0.237-0.526 0.529 0 0.001 0 0.002 0 0.002v-0 10.161c0.004 0.289 0.238 0.521 0.526 0.521 0.001 0 0.001 0 0.002 0h0.571l10.307-11.213h-10.878z"></path>
<path fill="#fff" d="M7.124 5.018h8.805v1.037h-8.805v-1.037z"></path>
<path fill="#59b4d9" d="M6.721 5.516c0 0.001 0 0.003 0 0.004 0 0.708-0.571 1.282-1.276 1.282s-1.276-0.574-1.276-1.282c0-0.707 0.57-1.281 1.273-1.282h0c0.001 0 0.002 0 0.003 0 0.703 0 1.273 0.572 1.276 1.278v0z"></path>
<path fill="#fff" d="M5.31 5.662l0.581 0.618h-0.315l-0.774-0.744 0.77-0.74h0.312l-0.574 0.611h1.408v0.256h-1.408zM8.318 12.193c0 0.004 0 0.009 0 0.014 0 0.141-0.062 0.268-0.159 0.355l-0.001 0c-0.105 0.089-0.241 0.143-0.391 0.143-0.010 0-0.019-0-0.029-0.001l0.001 0c-0.004 0-0.009 0-0.014 0-0.147 0-0.28-0.056-0.382-0.147l0.001 0c-0.099-0.086-0.161-0.211-0.163-0.352v-0c0.001-0.14 0.064-0.264 0.162-0.348l0.001-0.001c0.104-0.087 0.238-0.14 0.386-0.14 0.009 0 0.018 0 0.028 0.001l-0.001-0c0.006-0 0.013-0 0.020-0 0.146 0 0.28 0.054 0.382 0.144l-0.001-0.001c0.094 0.081 0.154 0.199 0.159 0.331l0 0.001zM10.649 12.193c0 0.003 0 0.007 0 0.011 0 0.143-0.063 0.271-0.162 0.357l-0.001 0.001c-0.105 0.089-0.241 0.143-0.391 0.143-0.010 0-0.019-0-0.029-0.001l0.001 0c-0.146-0.001-0.278-0.056-0.379-0.147l0.001 0c-0.1-0.085-0.164-0.211-0.166-0.352v-0c-0.001-0.009-0.001-0.020-0.001-0.030 0-0.143 0.065-0.27 0.166-0.354l0.001-0.001c0.104-0.087 0.238-0.14 0.386-0.14 0.009 0 0.018 0 0.028 0.001l-0.001-0c0.005-0 0.011-0 0.017-0 0.146 0 0.28 0.054 0.382 0.144l-0.001-0.001c0.092 0.085 0.15 0.207 0.15 0.342 0 0.009-0 0.019-0.001 0.028l0-0.001zM12.977 12.193c0 0.007 0.001 0.014 0.001 0.022 0 0.137-0.058 0.26-0.15 0.346l-0 0c-0.105 0.089-0.241 0.143-0.391 0.143-0.010 0-0.019-0-0.029-0.001l0.001 0c-0.004 0-0.009 0-0.014 0-0.147 0-0.28-0.056-0.382-0.147l0.001 0c-0.099-0.086-0.161-0.211-0.163-0.352v-0c0.001-0.14 0.064-0.264 0.162-0.348l0.001-0.001c0.104-0.087 0.238-0.14 0.386-0.14 0.009 0 0.018 0 0.028 0.001l-0.001-0c0.020-0.002 0.043-0.004 0.067-0.004 0.126 0 0.242 0.040 0.337 0.108l-0.002-0.001c0.093 0.085 0.15 0.207 0.15 0.342 0 0.011-0 0.021-0.001 0.031l0-0.001z"></path>
<path fill="#3999c6" d="M22.483 18.32c0.066-0.075 0.106-0.174 0.106-0.282s-0.040-0.207-0.106-0.283l0 0-0.75-0.754-3.364-3.287c-0.064-0.076-0.159-0.123-0.266-0.123s-0.201 0.048-0.265 0.123l-0 0.001c-0.079 0.069-0.129 0.17-0.129 0.282s0.050 0.214 0.129 0.282l0 0 3.523 3.476c0.073 0.072 0.118 0.172 0.118 0.282s-0.045 0.21-0.118 0.282l-0 0-3.583 3.599c-0.073 0.072-0.118 0.172-0.118 0.282s0.045 0.21 0.118 0.282l0 0c0.069 0.065 0.162 0.105 0.264 0.105s0.195-0.040 0.264-0.105l-0 0 4.177-4.164zM7.089 18.32c-0.066-0.075-0.106-0.174-0.106-0.282s0.040-0.207 0.106-0.283l-0 0 0.75-0.754 3.364-3.291c0.064-0.075 0.159-0.122 0.264-0.122s0.2 0.047 0.264 0.121l0 0c0.079 0.069 0.129 0.17 0.129 0.282s-0.050 0.214-0.129 0.282l-0.001 0-3.457 3.476c-0.073 0.072-0.118 0.172-0.118 0.282s0.045 0.21 0.118 0.282l0 0 3.506 3.603c0.073 0.072 0.118 0.172 0.118 0.282s-0.045 0.21-0.118 0.282l-0 0c-0.069 0.066-0.163 0.106-0.266 0.106s-0.197-0.040-0.266-0.106l0 0-3.41-3.334-0.75-0.83z"></path>
<path fill="#57a300" d="M12.665 18.036c-0.010 0.566-0.463 1.022-1.025 1.033l-0.001 0c-0.572-0.022-1.035-0.465-1.092-1.028l-0-0.005c0.010-0.573 0.474-1.034 1.046-1.034 0.016 0 0.033 0 0.049 0.001l-0.002-0c0.002-0 0.005-0 0.008-0 0.562 0 1.018 0.458 1.018 1.023 0 0.003-0 0.007-0 0.010v-0zM15.813 18.036c-0.010 0.566-0.463 1.022-1.025 1.033l-0.001 0c-0.572-0.022-1.035-0.465-1.092-1.028l-0-0.005c0.037-0.578 0.512-1.033 1.092-1.033v0c0.563 0.011 1.016 0.467 1.026 1.032v0.001z"></path>
<path fill="#57a300" d="M18.993 18.035c0 0.571-0.46 1.034-1.028 1.034s-1.028-0.463-1.028-1.034c0-0.571 0.46-1.034 1.028-1.034s1.028 0.463 1.028 1.034z"></path>
</svg>
