<!-- Generated by IcoMoon.io -->
<svg version="1.1" xmlns="http://www.w3.org/2000/svg" width="29" height="32" viewBox="0 0 29 32">
<title>Network-Security-Group</title>
<path fill="#0078d4" d="M20.364 15.516c0 3.914-4.624 7.065-5.628 7.704-0.054 0.034-0.12 0.055-0.19 0.055s-0.136-0.020-0.191-0.056l0.002 0.001c-1.006-0.639-5.63-3.79-5.63-7.704v-4.704c0-0 0-0 0-0 0-0.203 0.159-0.368 0.356-0.372h0c3.598-0.098 2.766-1.714 5.464-1.714 2.695 0 1.866 1.617 5.464 1.714 0.197 0.005 0.354 0.17 0.354 0.372 0 0 0 0 0 0v-0 4.704z"></path>
<path fill="#6bb9f2" d="M19.884 15.556c0 3.59-4.24 6.467-5.163 7.065-0.050 0.031-0.11 0.049-0.175 0.049s-0.125-0.018-0.176-0.050l0.002 0.001c-0.926-0.583-5.163-3.475-5.163-7.065v-4.317c0-0.184 0.144-0.334 0.323-0.339h0c3.298-0.090 2.538-1.568 5.015-1.568 2.474 0 1.714 1.478 5.012 1.568 0.18 0.004 0.326 0.154 0.326 0.339v4.317z"></path>
<path fill="#000" d="M14.546 16.002v-6.67c2.474 0 1.714 1.478 5.012 1.568 0.18 0.009 0.323 0.161 0.323 0.346v4.317c0.004 0.066 0.006 0.142 0.006 0.219s-0.002 0.154-0.006 0.23l0-0.011h-5.335zM14.546 16.002h-5.315c0.316 3.377 4.255 6.062 5.14 6.619 0.040 0.027 0.088 0.044 0.14 0.049l0.001 0h0.033v-6.667z"></path>
<path fill="#50e6ff" d="M9.531 10.9c3.298-0.090 2.538-1.568 5.015-1.568v6.67h-5.315c-0.004-0.066-0.006-0.142-0.006-0.219s0.002-0.154 0.006-0.23l-0 0.011v-4.317c0-0 0-0.001 0-0.001 0-0.178 0.13-0.324 0.299-0.345l0.002-0zM19.858 16.002h-5.312v6.667c0.053-0.005 0.101-0.022 0.142-0.049l-0.001 0.001c0.919-0.557 4.855-3.241 5.171-6.619z"></path>
</svg>
