<!-- Generated by IcoMoon.io -->
<svg version="1.1" xmlns="http://www.w3.org/2000/svg" width="34" height="32" viewBox="0 0 34 32">
<title>Node-JS</title>
<path fill="#000" d="M6.858 19.284c-0.089-0-0.173-0.024-0.245-0.064l0.002 0.001-0.78-0.444c-0.121-0.063-0.063-0.090-0.022-0.099 0.135-0.040 0.253-0.092 0.361-0.156l-0.007 0.004c0.008-0.004 0.018-0.007 0.029-0.007s0.020 0.003 0.029 0.007l-0-0 0.611 0.345c0.011 0.006 0.023 0.009 0.037 0.009s0.026-0.003 0.037-0.009l-0 0 2.34-1.305c0.022-0.012 0.037-0.035 0.037-0.061 0-0.001 0-0.001-0-0.002v0l-0.001-2.61c-0-0.027-0.015-0.050-0.036-0.063l-0-0-2.349-1.323c-0.009-0.004-0.020-0.006-0.031-0.006s-0.022 0.002-0.031 0.007l0-0-2.343 1.305c-0.022 0.012-0.037 0.035-0.037 0.061 0 0.001 0 0.001 0 0.002v-0l0.001 2.61c0.001 0.025 0.015 0.047 0.036 0.059l0 0 0.641 0.362c0.345 0.166 0.561-0.036 0.561-0.229v-2.561c0 0 0-0 0-0 0-0.037 0.031-0.067 0.069-0.067 0 0 0 0 0 0v0l0.298-0c0 0 0 0 0 0 0.038 0 0.069 0.030 0.069 0.067 0 0 0 0 0 0v0l-0.002 2.575c0.003 0.024 0.005 0.051 0.005 0.079 0 0.346-0.291 0.627-0.65 0.627-0.018 0-0.036-0.001-0.053-0.002l0.002 0c-0.001 0-0.003 0-0.005 0-0.204 0-0.393-0.059-0.551-0.159l0.004 0.002-0.61-0.341c-0.143-0.081-0.24-0.226-0.247-0.394l-0-0.001v-2.611c0.007-0.168 0.103-0.314 0.244-0.393l0.002-0.001 2.341-1.305c0.071-0.038 0.156-0.061 0.247-0.061s0.175 0.023 0.249 0.062l-0.003-0.001 2.341 1.305c0.143 0.081 0.24 0.226 0.247 0.394l0 0.001v2.611c-0.007 0.168-0.103 0.314-0.244 0.393l-0.002 0.001-2.341 1.305c-0.071 0.047-0.157 0.076-0.25 0.081l-0.001 0z"></path>
<path fill="#000" d="M17.221 17.581c-1.023 0-1.225-0.453-1.225-0.834-0-0.001-0-0.003-0-0.004 0-0.035 0.029-0.063 0.065-0.063 0.002 0 0.003 0 0.004 0l0.303-0c0.033 0.001 0.059 0.025 0.065 0.055l0 0c0.042 0.295 0.181 0.447 0.818 0.447 0.493 0 0.7-0.103 0.7-0.359 0-0.144-0.058-0.251-0.816-0.327-0.641-0.063-1.036-0.197-1.036-0.691 0-0.498 0.408-0.731 1.068-0.731 0.749 0 1.121 0.251 1.166 0.789 0 0.001 0 0.003 0 0.004 0 0.037-0.031 0.067-0.069 0.067-0 0-0 0-0 0v0l-0.303 0.001c-0.032-0.001-0.058-0.022-0.065-0.051l-0-0c-0.074-0.312-0.249-0.397-0.729-0.397-0.484 0-0.601 0.184-0.601 0.318s0.072 0.211 0.816 0.301c0.745 0.094 1.063 0.224 1.063 0.713s-0.484 0.763-1.225 0.763v0zM20.599 14.845c0 0.242-0.203 0.438-0.454 0.438s-0.454-0.196-0.454-0.438c0-0.242 0.203-0.438 0.454-0.438v0c0 0 0 0 0 0 0.25 0 0.454 0.196 0.454 0.438 0 0 0 0 0 0v0zM19.782 14.845c0 0.001-0 0.003-0 0.004 0 0.203 0.17 0.367 0.38 0.367s0.38-0.164 0.38-0.367c0-0.203-0.17-0.367-0.38-0.367-0.001 0-0.003 0-0.004 0h0c-0.002-0-0.005-0-0.008-0-0.208 0-0.378 0.162-0.38 0.363v0h0.012zM19.989 14.603h0.175c0.063 0 0.175 0 0.175 0.13 0 0.003 0 0.006 0 0.010 0 0.054-0.040 0.099-0.094 0.109l-0.001 0c0.072-0.002 0.076 0.048 0.085 0.11 0.001 0.047 0.009 0.091 0.023 0.133l-0.001-0.003h-0.13v-0.157c0-0.005 0-0.040-0.054-0.040h-0.090v0.193h-0.103l0.013-0.484zM20.083 14.814h0.076c0.003 0 0.005 0.001 0.008 0.001 0.038 0 0.069-0.030 0.069-0.067 0-0.002-0-0.003-0-0.005v0c0.003-0.068-0.046-0.068-0.073-0.068h-0.081v0.139z"></path>
<path fill="#333" d="M9.599 9.263c0-0.001 0-0.001 0-0.002 0-0.107-0.060-0.2-0.15-0.25l-0.001-0.001-2.486-1.376c-0.039-0.022-0.085-0.037-0.134-0.039l-0.001-0-0.022-0.001c-0.052 0.002-0.099 0.016-0.14 0.040l0.001-0.001-2.485 1.383c-0.091 0.051-0.151 0.145-0.151 0.252v0l-0.001 3.713c-0 0.001-0 0.002-0 0.003 0 0.052 0.029 0.098 0.073 0.123l0.001 0c0.021 0.012 0.046 0.020 0.074 0.020s0.053-0.007 0.074-0.020l-0.001 0 1.488-0.821c0.091-0.051 0.151-0.145 0.151-0.252v-0l-0.003-1.735c0-0.001 0-0.001 0-0.002 0-0.107 0.060-0.2 0.15-0.25l0.001-0.001 0.629-0.349c0.043-0.025 0.095-0.039 0.151-0.039 0 0 0 0 0.001 0h-0c0.001 0 0.001 0 0.002 0 0.055 0 0.107 0.015 0.151 0.040l-0.001-0.001 0.631 0.35c0.091 0.050 0.151 0.144 0.151 0.25 0 0.001 0 0.001 0 0.002v-0l0.001 1.735c0 0.107 0.060 0.201 0.15 0.252l0.001 0.001 1.468 0.829c0.022 0.013 0.048 0.020 0.076 0.020s0.054-0.008 0.076-0.021l-0.001 0c0.044-0.026 0.074-0.072 0.074-0.125 0-0 0-0.001 0-0.001v0l0.004-3.727zM21.194 4.046c-0.016-0.012-0.036-0.019-0.057-0.019s-0.042 0.007-0.057 0.019l0-0c-0.043 0.027-0.038 0.076-0.038 0.126v3.7c0 0.036-0.054 0.072-0.090 0.085-0.018 0.009-0.039 0.014-0.061 0.014s-0.043-0.005-0.062-0.014l0.001 0-0.626-0.363c-0.043-0.024-0.096-0.038-0.151-0.038s-0.108 0.014-0.153 0.039l0.002-0.001-2.452 1.386c-0.094 0.049-0.099 0.144-0.099 0.251v2.759c0 0.103 0 0.197 0.099 0.256l2.449 1.382c0.041 0.024 0.090 0.038 0.143 0.038s0.102-0.014 0.144-0.039l-0.001 0.001 2.405-1.381c0.094-0.054 0.063-0.148 0.063-0.256v-6.876c0-0.103 0-0.202-0.076-0.251l-1.381-0.816zM21.041 11.106c0 0.027-0.054 0.049-0.076 0.063l-0.87 0.471c-0.012 0.006-0.027 0.010-0.043 0.010s-0.030-0.004-0.043-0.010l0.001 0-0.914-0.471c-0.027-0.027-0.099-0.027-0.099-0.063v-0.951c0-0.027 0.072-0.054 0.094-0.063l0.884-0.48c0.013-0.006 0.029-0.010 0.045-0.010s0.032 0.004 0.046 0.010l-0.001-0 0.897 0.48c0.027 0 0.085 0.036 0.085 0.063l-0.005 0.951zM29.308 10.191c0.091-0.050 0.151-0.144 0.151-0.25 0-0.001 0-0.001 0-0.002v0l-0.003-0.672c0-0.001 0-0.001 0-0.002 0-0.107-0.060-0.2-0.15-0.25l-0.001-0.001-2.45-1.385c-0.043-0.025-0.095-0.040-0.151-0.040s-0.108 0.015-0.153 0.040l0.001-0.001-2.483 1.386c-0.091 0.050-0.151 0.144-0.151 0.25 0 0.001 0 0.001 0 0.002v-0l-0.001 2.757c0 0.001 0 0.001 0 0.002 0 0.107 0.060 0.2 0.15 0.25l0.001 0.001 2.45 1.358c0.042 0.024 0.093 0.037 0.147 0.037s0.105-0.014 0.149-0.038l-0.001 0.001 1.491-0.789c0.045-0.026 0.075-0.073 0.075-0.126s-0.030-0.1-0.075-0.126l-0.001-0-2.498-1.385c-0.044-0.026-0.074-0.072-0.074-0.125 0-0 0-0.001 0-0.001v0l-0.003-0.865c0-0 0-0.001 0-0.001 0-0.053 0.029-0.099 0.073-0.125l0.001-0 0.779-0.434c0.022-0.012 0.048-0.020 0.076-0.020s0.054 0.007 0.076 0.020l-0.001-0 0.782 0.435c0.044 0.026 0.074 0.072 0.074 0.125 0 0 0 0.001 0 0.001v-0l-0.002 0.681c0.001 0.080 0.068 0.145 0.151 0.145 0.027 0 0.052-0.007 0.074-0.019l-0.001 0 1.498-0.835z"></path>
<path fill="#699f63" d="M26.65 10.059c0.008-0.005 0.018-0.007 0.029-0.007s0.020 0.003 0.029 0.008l0.476 0.264c0.017 0.010 0.028 0.027 0.029 0.047v0l0.003 0.531c-0 0.020-0.012 0.038-0.028 0.047l-0 0-0.478 0.267c-0.008 0.005-0.018 0.007-0.029 0.007s-0.020-0.003-0.029-0.008l0 0-0.481-0.265c-0.017-0.010-0.028-0.027-0.029-0.047v-0l0.002-0.549c0-0.020 0.012-0.038 0.028-0.047l0-0 0.478-0.249z"></path>
<path fill="#000" d="M13.399 7.595c-0.043-0.024-0.094-0.039-0.149-0.039s-0.106 0.014-0.151 0.039l0.001-0.001-2.451 1.377c-0.090 0.050-0.15 0.142-0.151 0.248v0l-0.001 2.757c0.001 0.106 0.061 0.198 0.15 0.248l0.001 0.001 2.45 1.38c0.043 0.024 0.094 0.039 0.149 0.039s0.106-0.014 0.151-0.039l-0.001 0.001 2.451-1.377c0.090-0.050 0.15-0.142 0.151-0.248v-0l0.001-2.761c-0.001-0.106-0.061-0.198-0.15-0.248l-0.001-0.001-2.45-1.375z"></path>
<path fill="#000" d="M13.399 7.595c-0.043-0.024-0.094-0.039-0.149-0.039s-0.106 0.014-0.151 0.039l0.001-0.001-2.451 1.377c-0.090 0.050-0.15 0.142-0.151 0.248v0l-0.001 2.757c0.001 0.106 0.061 0.198 0.15 0.248l0.001 0.001 2.45 1.38c0.043 0.024 0.094 0.039 0.149 0.039s0.106-0.014 0.151-0.039l-0.001 0.001 2.451-1.377c0.090-0.050 0.15-0.142 0.151-0.248v-0l0.001-2.761c-0.001-0.106-0.061-0.198-0.15-0.248l-0.001-0.001-2.45-1.375z"></path>
</svg>
