<!-- Generated by IcoMoon.io -->
<svg version="1.1" xmlns="http://www.w3.org/2000/svg" width="34" height="32" viewBox="0 0 34 32">
<title>Notification-Hub</title>
<path fill="#000" d="M25.043 9.841v10.263c0 0 0 0 0 0.001 0 0.304-0.241 0.55-0.537 0.55-0.003 0-0.005-0-0.008-0h-4.189c-0.072 0-0.13 0.059-0.13 0.133v0l-0.001 1.657c-0.001 0.146-0.117 0.263-0.259 0.263-0.060 0-0.114-0.020-0.158-0.055l0.001 0-2.52-1.97h-7.402c-0.003 0-0.006 0-0.010 0-0.297 0-0.537-0.246-0.537-0.55 0-0 0-0 0-0.001v0-10.291c0-0 0-0 0-0.001 0-0.304 0.241-0.55 0.537-0.55 0.004 0 0.007 0 0.010 0h14.658c0.002-0 0.005-0 0.007-0 0.297 0 0.537 0.246 0.537 0.55 0 0 0 0 0 0.001v-0z"></path>
<path fill="#ffe452" d="M10.729 16.002l2.778 2.387c0.045 0.037 0.104 0.059 0.167 0.059 0.146 0 0.265-0.119 0.269-0.268v-0l0.001-1.042h11.080v-1.611h-14.128c-0.14 0.010-0.251 0.129-0.251 0.274 0 0.079 0.032 0.149 0.084 0.2l0 0z"></path>
<path fill="#fff" d="M23.876 22.169l-2.881-2.387c-0.045-0.037-0.104-0.059-0.167-0.059-0.146 0-0.265 0.119-0.269 0.268v0l-0.001 1.042h-11.266v1.648h14.417c0.010 0.001 0.022 0.002 0.034 0.002 0.148 0 0.269-0.123 0.269-0.275 0-0.102-0.054-0.191-0.135-0.238l-0.001-0.001z"></path>
</svg>
