<!-- Generated by IcoMoon.io -->
<svg version="1.1" xmlns="http://www.w3.org/2000/svg" width="33" height="32" viewBox="0 0 33 32">
<title>On-Premises-Data-Gateway</title>
<path fill="#000" d="M23.955 16.122c-0.053-1.665-1.31-3.022-2.933-3.246l-0.018-0.002c-0.106-2.268-1.984-4.067-4.286-4.067-0.046 0-0.092 0.001-0.138 0.002l0.007-0c-0.026-0.001-0.056-0.001-0.086-0.001-1.876 0-3.478 1.166-4.111 2.807l-0.010 0.030c-1.978 0.252-3.5 1.882-3.565 3.877l-0 0.006c0.087 2.186 1.894 3.926 4.11 3.926 0.054 0 0.109-0.001 0.163-0.003l-0.008 0c0.055 0.004 0.119 0.006 0.184 0.006s0.129-0.002 0.193-0.007l-0.009 0h6.907c0.028 0.004 0.061 0.007 0.093 0.007s0.065-0.002 0.097-0.007l-0.004 0c1.859-0.015 3.366-1.49 3.413-3.326l0-0.004z"></path>
<path fill="#50e6ff" d="M16.78 15.429c-0.038-2.156-1.809-3.889-3.987-3.889-2.202 0-3.987 1.772-3.987 3.957s1.785 3.957 3.987 3.957c0.003 0 0.005 0 0.008 0h3.979v-4.025z"></path>
<path fill="#0078d4" d="M12.746 21.29l-1.894 1.87c-0.015 0.020-0.040 0.033-0.067 0.033s-0.052-0.013-0.067-0.033l-0-0-1.885-1.87c-0.016-0.018-0.026-0.041-0.026-0.067 0-0.053 0.041-0.096 0.093-0.1l0-0 1.111-0.001c0.001 0 0.002 0 0.004 0 0.051 0 0.093-0.041 0.093-0.092 0-0.009-0.001-0.018-0.004-0.026l0 0.001 0.001-2.42c0.004-0.047 0.044-0.084 0.092-0.084 0.003 0 0.006 0 0.009 0l-0-0 1.168 0.001c0.051 0 0.093 0.041 0.093 0.092v0l0.001 2.413c0 0 0 0 0 0 0 0.051 0.041 0.092 0.093 0.092 0.003 0 0.006-0 0.009-0l-0 0 1.109-0.001c0.010-0.004 0.021-0.006 0.034-0.006 0.057 0 0.102 0.046 0.102 0.102 0 0.044-0.028 0.082-0.068 0.096l-0.001 0z"></path>
<path fill="#fff" d="M14.829 16.682l1.859-1.845c0.025-0.023 0.059-0.037 0.097-0.037s0.071 0.014 0.097 0.037l-0-0 1.86 1.845c0.018 0.017 0.029 0.041 0.029 0.067 0 0.051-0.041 0.092-0.093 0.092-0.001 0-0.003-0-0.004-0l-1.11-0.001c-0.056 0-0.101 0.045-0.101 0.1v0l-0.001 2.506h-1.362v-2.505c0-0.003 0-0.006 0-0.009 0-0.053-0.041-0.096-0.093-0.1l-0-0-1.112-0.001c-0.049-0.002-0.089-0.042-0.089-0.092 0-0.022 0.008-0.043 0.021-0.059l-0 0z"></path>
</svg>
