<!-- Generated by IcoMoon.io -->
<svg version="1.1" xmlns="http://www.w3.org/2000/svg" width="26" height="32" viewBox="0 0 26 32">
<title>Open-Dataset</title>
<path fill="#0072c6" d="M2.148 9.104v10.353c0 0.996 2.284 1.803 5.107 1.803h0.068c2.788-0.015 5.035-0.814 5.035-1.803v-10.353h-10.209z"></path>
<path fill="#fff" opacity="0.2" d="M2.148 9.104v10.327c0 1.011 2.39 1.83 5.25 1.83v-12.156h-5.25z"></path>
<path fill="#fff" d="M12.362 9.088c0 0.992-2.277 1.924-5.088 1.924-2.807 0-5.084-0.932-5.084-1.924s2.277-1.799 5.084-1.799c2.811 0 5.088 0.807 5.088 1.799z"></path>
<path fill="#b8d432" d="M11.328 9.065c0 0.614-1.815 1.106-4.053 1.106s-4.053-0.496-4.053-1.106c0-0.61 1.815-1.106 4.053-1.106s4.053 0.496 4.053 1.106z"></path>
<path fill="#7fba00" d="M4.030 9.728c0.739 0.269 1.917 0.443 3.247 0.443s2.504-0.174 3.243-0.443c-0.739-0.273-1.913-0.447-3.243-0.447s-2.508 0.174-3.247 0.447z"></path>
<path fill="#3999c6" d="M8.912 7.249c0 0.888-0.743 1.607-1.659 1.607s-1.659-0.72-1.659-1.607c0-0.888 0.743-1.607 1.659-1.607s1.659 0.72 1.659 1.607z"></path>
<path fill="#3999c6" d="M12.316 3.54c0 0.888-0.743 1.607-1.659 1.607s-1.659-0.72-1.659-1.607c0-0.888 0.743-1.607 1.659-1.607s1.659 0.72 1.659 1.607z"></path>
<path fill="#3999c6" d="M16.996 3.54c0 0.888-0.743 1.607-1.659 1.607s-1.659-0.72-1.659-1.607c0-0.888 0.743-1.607 1.659-1.607s1.659 0.72 1.659 1.607z"></path>
<path fill="#3999c6" d="M19.974 7.249c0 0.888-0.743 1.607-1.659 1.607s-1.659-0.72-1.659-1.607c0-0.888 0.743-1.607 1.659-1.607s1.659 0.72 1.659 1.607z"></path>
<path fill="#59b4d9" d="M23.268 19.697l-3.243-5.777v-2.341h0.057c0.39 0 0.705-0.322 0.705-0.724 0-0.398-0.314-0.72-0.705-0.72h-3.534c-0.39 0-0.705 0.322-0.705 0.72 0 0.402 0.314 0.724 0.705 0.724h0.057v2.341l-3.243 5.777c-0.356 0.633-0.064 1.152 0.648 1.152h8.614c0.708 0 1-0.519 0.644-1.152z"></path>
<path fill="#b8d432" d="M16.032 17.211l-1.337 2.383h7.243l-1.341-2.383h-4.565z"></path>
<path fill="#7fba00" d="M19.62 18.697c0 0.182-0.144 0.33-0.321 0.33s-0.321-0.148-0.321-0.33c0-0.182 0.144-0.33 0.321-0.33s0.321 0.148 0.321 0.33z"></path>
<path fill="#fff" opacity="0.25" d="M13.362 19.697l3.243-5.777v-2.341h-0.057c-0.39 0-0.705-0.322-0.705-0.724 0-0.398 0.314-0.72 0.705-0.72h1.523v3.765l-1.709 6.948h-2.352c-0.712 0-1.004-0.519-0.648-1.152z"></path>
</svg>
