<!-- Generated by IcoMoon.io -->
<svg version="1.1" xmlns="http://www.w3.org/2000/svg" width="23" height="32" viewBox="0 0 23 32">
<title>Openshift-Cluster</title>
<path fill="#c32034" d="M7.413 11.104l-3.052 1.122c0.039 0.501 0.116 0.988 0.25 1.464l2.893-1.055c-0.092-0.529-0.131-1.030-0.092-1.531zM20.9 7.7c-0.208-0.437-0.459-0.871-0.734-1.266l-3.052 1.122c0.353 0.367 0.656 0.776 0.903 1.21-0.011-0.011 2.882-1.065 2.882-1.065z"></path>
<path fill="#db212f" d="M14.191 6.826c0.628 0.289 1.178 0.713 1.651 1.189l3.048-1.122c-0.836-1.189-2.004-2.191-3.404-2.85-4.36-2.043-9.557-0.145-11.589 4.247-0.653 1.425-0.903 2.928-0.787 4.392l3.052-1.122c0.053-0.674 0.212-1.33 0.512-1.979 1.309-2.847 4.674-4.075 7.518-2.755z"></path>
<path fill="#ea2227" d="M4.793 13.6l-2.893 1.055c0.261 1.055 0.734 2.071 1.362 2.981l3.037-1.122c-0.773-0.804-1.295-1.82-1.506-2.914z"></path>
<path fill="#db212f" d="M17.444 12.44c-0.053 0.67-0.222 1.33-0.512 1.976-1.323 2.85-4.699 4.103-7.528 2.759-0.628-0.293-1.178-0.713-1.651-1.189l-3.037 1.122c0.84 1.185 1.99 2.191 3.404 2.847 4.36 2.046 9.56 0.148 11.589-4.244 0.656-1.425 0.903-2.928 0.787-4.392l-3.052 1.122z"></path>
<path fill="#ea2227" d="M18.193 8.686l-2.893 1.055c0.536 0.974 0.797 2.095 0.706 3.217l3.041-1.122c-0.081-1.079-0.381-2.148-0.854-3.15z"></path>
<path fill="#ad213a" d="M4.37 12.217l3.037-1.108-0.014 0.607-2.932 1.094-0.092-0.593zM17.112 7.536l3.090-1.055 0.328 0.473-2.999 1.055c-0.014 0.014-0.42-0.473-0.42-0.473z"></path>
<path fill="#ba2034" d="M4.7 17.103l3.037-1.097 0.917 0.857-3.196 1.189c0.014 0-0.758-0.949-0.758-0.949zM20.536 11.342l-3.090 1.108-0.222 1.228 3.302-1.161c-0.014-0.014 0.011-1.175 0.011-1.175z"></path>
</svg>
