<!-- Generated by IcoMoon.io -->
<svg version="1.1" xmlns="http://www.w3.org/2000/svg" width="27" height="32" viewBox="0 0 27 32">
<title>Operational-Excellence</title>
<path fill="#37c2b1" d="M17.151 19.893l-2.301 2.301c-0.053 0.049-0.126 0.080-0.206 0.080s-0.152-0.030-0.206-0.080l0 0c-0.041-0.038-0.070-0.088-0.081-0.144l-0-0.002-1.357-6.369c-0.003-0.014-0.004-0.031-0.004-0.047 0-0.112 0.070-0.208 0.17-0.25l0.002-0.001 1.477-0.579c0.034-0.014 0.074-0.023 0.116-0.023 0.115 0 0.215 0.064 0.263 0.156l0.001 0.002 2.184 4.644c0.018 0.034 0.028 0.075 0.028 0.118 0 0.076-0.033 0.145-0.086 0.194l-0 0z"></path>
<path fill="#42e8ca" d="M9.813 19.893l2.299 2.301c0.053 0.050 0.126 0.081 0.207 0.081s0.153-0.031 0.207-0.081l-0 0c0.041-0.038 0.069-0.088 0.079-0.144l0-0.002 1.359-6.369c0.003-0.014 0.004-0.030 0.004-0.046 0-0.113-0.071-0.21-0.172-0.251l-0.002-0.001-1.474-0.579c-0.034-0.014-0.074-0.023-0.116-0.023-0.115 0-0.215 0.064-0.263 0.156l-0.001 0.002-2.186 4.644c-0.017 0.034-0.027 0.074-0.027 0.116 0 0.077 0.033 0.146 0.087 0.195l0 0z"></path>
<path fill="#005ba1" d="M13.847 10.061l0.29-0.232c0.078-0.063 0.18-0.101 0.291-0.101 0.194 0 0.36 0.117 0.426 0.282l0.001 0.003 0.128 0.343c0.067 0.168 0.233 0.285 0.428 0.285 0.029 0 0.056-0.002 0.084-0.007l-0.003 0 0.371-0.062c0.023-0.004 0.050-0.006 0.077-0.006 0.224 0 0.41 0.155 0.448 0.36l0 0.003c0.004 0.023 0.007 0.049 0.007 0.075s-0.003 0.053-0.007 0.078l0-0.003-0.064 0.356c-0.005 0.024-0.007 0.051-0.007 0.079 0 0.187 0.122 0.346 0.294 0.409l0.003 0.001 0.354 0.124c0.175 0.063 0.298 0.223 0.298 0.41 0 0.054-0.010 0.106-0.029 0.154l0.001-0.003c-0.019 0.049-0.045 0.092-0.078 0.129l0-0.001-0.241 0.281c-0.065 0.075-0.104 0.172-0.104 0.279s0.039 0.203 0.105 0.279l-0.001-0.001 0.241 0.279c0.066 0.075 0.106 0.174 0.106 0.281 0 0.188-0.123 0.348-0.295 0.41l-0.003 0.001-0.354 0.124c-0.175 0.064-0.297 0.223-0.297 0.41 0 0.027 0.003 0.053 0.007 0.079l-0-0.003 0.064 0.358c0.004 0.022 0.006 0.047 0.006 0.073 0 0.215-0.162 0.394-0.375 0.431l-0.003 0c-0.023 0.004-0.050 0.006-0.077 0.006s-0.054-0.002-0.080-0.007l0.003 0-0.371-0.060c-0.024-0.004-0.052-0.007-0.081-0.007-0.195 0-0.361 0.117-0.426 0.283l-0.001 0.003-0.128 0.338c-0.065 0.169-0.232 0.288-0.428 0.288-0.057 0-0.111-0.010-0.161-0.028l0.003 0.001c-0.052-0.019-0.096-0.044-0.136-0.076l0.001 0.001-0.29-0.232c-0.078-0.063-0.18-0.101-0.291-0.101s-0.212 0.038-0.291 0.101l0.001-0.001-0.29 0.232c-0.078 0.062-0.179 0.1-0.289 0.1-0.141 0-0.267-0.062-0.351-0.159l-0.001-0.001c-0.032-0.037-0.058-0.080-0.076-0.127l-0.001-0.003-0.13-0.338c-0.066-0.168-0.232-0.285-0.427-0.285-0.028 0-0.056 0.002-0.082 0.007l0.003-0-0.369 0.062c-0.023 0.004-0.050 0.006-0.078 0.006-0.224 0-0.41-0.155-0.448-0.36l-0-0.003c-0.004-0.023-0.007-0.049-0.007-0.075s0.002-0.053 0.007-0.078l-0 0.003 0.064-0.356c0.005-0.023 0.007-0.050 0.007-0.077 0-0.187-0.122-0.347-0.294-0.41l-0.003-0.001-0.356-0.122c-0.176-0.063-0.299-0.223-0.299-0.411 0-0.107 0.040-0.206 0.107-0.282l-0.001 0.001 0.241-0.279c0.065-0.075 0.105-0.172 0.105-0.279s-0.040-0.204-0.105-0.279l0.001 0.001-0.241-0.279c-0.066-0.075-0.106-0.174-0.106-0.281 0-0.188 0.123-0.348 0.295-0.41l0.003-0.001 0.354-0.124c0.175-0.064 0.297-0.224 0.297-0.411 0-0.027-0.003-0.054-0.008-0.080l0 0.003-0.064-0.356c-0.004-0.022-0.007-0.048-0.007-0.075 0-0.215 0.162-0.395 0.375-0.431l0.003-0c0.023-0.004 0.050-0.006 0.077-0.006s0.054 0.002 0.080 0.007l-0.003-0 0.374 0.064c0.024 0.004 0.052 0.007 0.081 0.007 0.195 0 0.361-0.117 0.426-0.283l0.001-0.003 0.126-0.34c0.067-0.168 0.233-0.286 0.428-0.286 0.111 0 0.212 0.038 0.291 0.1l-0.001-0.001 0.292 0.232c0.078 0.063 0.18 0.101 0.291 0.101s0.212-0.038 0.291-0.101l-0.001 0.001z"></path>
<path fill="#ffca00" d="M16.206 13.292c0 1.407-1.187 2.547-2.651 2.547s-2.651-1.14-2.651-2.547c0-1.407 1.187-2.547 2.651-2.547s2.651 1.14 2.651 2.547z"></path>
</svg>
