<!-- Generated by IcoMoon.io -->
<svg version="1.1" xmlns="http://www.w3.org/2000/svg" width="31" height="32" viewBox="0 0 31 32">
<title>Organisational-Relationship</title>
<path fill="#59b4d9" d="M21.886 19.485c0 0.002 0 0.005 0 0.007 0 0.336-0.266 0.608-0.595 0.608-0.002 0-0.003 0-0.005-0h-4.091c-0.001 0-0.003 0-0.005 0-0.329 0-0.595-0.272-0.595-0.608 0-0.003 0-0.005 0-0.008v0-6.877c-0-0.002-0-0.005-0-0.007 0-0.336 0.266-0.608 0.595-0.608 0.002 0 0.003 0 0.005 0h4.065c0.002-0 0.005-0 0.007-0 0.329 0 0.595 0.272 0.595 0.608 0 0.003-0 0.005-0 0.008v-0 6.877h0.023z"></path>
<path fill="#fff" d="M17.558 13.223h1.443v1.719h-1.443v-1.719zM19.481 13.223h1.443v1.719h-1.443v-1.719zM17.558 15.922h1.443v1.721h-1.443v-1.721zM19.481 15.922h1.443v1.721h-1.443v-1.721z"></path>
<path fill="#0072c6" d="M13.932 19.485c0 0.002 0 0.005 0 0.007 0 0.336-0.266 0.608-0.595 0.608-0.002 0-0.003 0-0.005-0h-4.088c-0.002 0-0.005 0-0.007 0-0.329 0-0.595-0.272-0.595-0.608 0-0.003 0-0.005 0-0.008v0-6.877c-0-0.002-0-0.005-0-0.007 0-0.336 0.266-0.608 0.595-0.608 0.003 0 0.005 0 0.008 0h4.062c0.002-0 0.005-0 0.007-0 0.329 0 0.595 0.272 0.595 0.608 0 0.003-0 0.005-0 0.008v-0l0.023 6.877z"></path>
<path fill="#59b4d9" d="M9.603 13.223h1.443v1.719h-1.443v-1.719zM11.527 13.223h1.443v1.719h-1.443v-1.719zM9.603 15.922h1.443v1.721h-1.443v-1.721zM11.527 15.922h1.443v1.721h-1.443v-1.721z"></path>
<path fill="#ff8c00" d="M11.733 23.359c1.544-0.004 2.813-1.206 2.961-2.744l0.001-0.013h-0.888c-0.132 1.054-1.002 1.86-2.058 1.864h-0c-0.002 0-0.005 0-0.008 0-0.651 0-1.23-0.318-1.595-0.81l-0.004-0.005 0.979-1.062h-2.479v2.692l0.893-0.971c0.527 0.643 1.313 1.049 2.192 1.049 0.002 0 0.005 0 0.007 0h-0zM11.603 9.533c0.001 0 0.003 0 0.005 0 0.652 0 1.231 0.319 1.596 0.813l0.004 0.005-0.976 1.062h2.477v-2.695l-0.893 0.971c-0.528-0.641-1.314-1.046-2.192-1.046-0.002 0-0.005 0-0.007 0h0c-1.547 0.006-2.817 1.214-2.958 2.758l-0.001 0.012h0.885c0.124-1.061 0.999-1.877 2.061-1.879h0z"></path>
</svg>
