<!-- Generated by IcoMoon.io -->
<svg version="1.1" xmlns="http://www.w3.org/2000/svg" width="27" height="32" viewBox="0 0 27 32">
<title>Peering-Service</title>
<path fill="#59b4d9" d="M19.546 9.227c0.013-0.148 0.020-0.293 0.020-0.444 0-2.628-2.086-4.757-4.661-4.757-1.997 0-3.694 1.28-4.359 3.079-0.495-0.192-1.066-0.304-1.664-0.306h-0.001c-2.681 0-4.855 2.22-4.855 4.957s2.174 4.954 4.855 4.954h10.102c2.040 0 3.691-1.688 3.691-3.766 0-1.885-1.359-3.441-3.128-3.717z"></path>
<path fill="#59b4d9" d="M13.351 11.939c-2.803 0-5.072 2.316-5.072 5.168 0 2.855 2.27 5.171 5.072 5.171 2.799 0 5.072-2.316 5.072-5.171 0-2.852-2.273-5.168-5.072-5.168z"></path>
<path fill="#fff" opacity="0.8" d="M13.351 11.939c-2.803 0-5.072 2.316-5.072 5.168 0 2.855 2.27 5.171 5.072 5.171 2.799 0 5.072-2.316 5.072-5.171 0-2.852-2.273-5.168-5.072-5.168z"></path>
<path fill="#0072c6" d="M9.487 11.541c-3.016 0-5.461 2.493-5.461 5.569 0 3.072 2.444 5.566 5.461 5.566s5.464-2.493 5.464-5.566c0-3.076-2.447-5.569-5.464-5.569zM9.487 21.932c-2.609 0-4.734-2.165-4.734-4.822 0-2.661 2.125-4.826 4.734-4.826 2.612 0 4.737 2.165 4.737 4.826 0 2.658-2.125 4.822-4.737 4.822z"></path>
<path fill="#0072c6" d="M13.349 11.962c-1.391 0-2.523 2.303-2.523 5.148 0 2.842 1.132 5.145 2.523 5.145 1.395 0 2.526-2.303 2.526-5.145 0-2.845-1.132-5.148-2.526-5.148zM13.349 21.748c-0.872 0-1.842-1.908-1.842-4.638 0-2.734 0.97-4.641 1.842-4.641 0.875 0 1.845 1.908 1.845 4.641 0 2.73-0.97 4.638-1.845 4.638z"></path>
<path fill="#0072c6" d="M8.364 16.762h9.974v0.694h-9.974v-0.694zM17.423 13.831c-0.872 0.523-2.309 0.914-4.072 0.914s-3.201-0.391-4.072-0.914c-0.099 0.125-0.24 0.576-0.283 0.638 1 0.612 2.579 1.007 4.355 1.007s3.355-0.395 4.352-1.007c-0.039-0.063-0.181-0.513-0.28-0.638zM17.703 19.996c-0.997-0.612-2.576-1.007-4.352-1.007s-3.355 0.395-4.355 1.007c0.043 0.063 0.184 0.513 0.283 0.638 0.872-0.523 2.309-0.914 4.072-0.914s3.201 0.391 4.072 0.914c0.099-0.125 0.24-0.576 0.28-0.638z"></path>
<path fill="#3999c6" d="M8.564 14.93c-1.319-0.974-1.993-2.336-2.013-3.658-0.039-2.671 2.734-4.878 2.852-4.974l0.954 1.26c-0.635 0.5-2.27 2.141-2.247 3.694 0.013 0.803 0.461 1.72 1.368 2.391l-0.914 1.286z"></path>
<path fill="#fff" d="M8.792 14.608c-1.211-0.895-1.836-2.151-1.852-3.342-0.036-2.474 2.589-4.563 2.701-4.651l0.477 0.628c-0.026 0.020-2.428 1.941-2.398 4.013 0.013 0.924 0.53 1.97 1.53 2.707l-0.457 0.645z"></path>
<path fill="#3999c6" d="M11.361 6.77c0 0.856-0.681 1.551-1.522 1.551s-1.522-0.694-1.522-1.551c0-0.856 0.681-1.551 1.522-1.551s1.522 0.694 1.522 1.551z"></path>
<path fill="#fff" d="M10.971 6.77c0 0.637-0.507 1.153-1.131 1.153s-1.131-0.516-1.131-1.153c0-0.637 0.507-1.153 1.131-1.153s1.131 0.516 1.131 1.153z"></path>
<path fill="#3999c6" d="M15.984 17.849l-0.74-1.401c4.595-2.52 3.977-6.316 3.97-6.355l1.536-0.283c0.036 0.201 0.819 4.977-4.766 8.040z"></path>
<path fill="#fff" d="M15.797 17.498l-0.368-0.701c4.845-2.655 4.178-6.737 4.171-6.776l0.766-0.141c0.010 0.046 0.77 4.691-4.569 7.618z"></path>
<path fill="#804998" d="M10.152 14.285c0 0.637-0.507 1.153-1.131 1.153s-1.131-0.516-1.131-1.153c0-0.637 0.507-1.153 1.131-1.153s1.131 0.516 1.131 1.153z"></path>
<path fill="#3999c6" d="M19.985 11.104c-0.839 0-1.523-0.694-1.523-1.549s0.684-1.553 1.523-1.553c0.839 0 1.52 0.697 1.52 1.553s-0.681 1.549-1.52 1.549z"></path>
<path fill="#fff" d="M21.114 9.553c0 0.637-0.507 1.153-1.131 1.153s-1.131-0.516-1.131-1.153c0-0.637 0.507-1.153 1.131-1.153s1.131 0.516 1.131 1.153z"></path>
<path fill="#804998" d="M16.784 17.148c0 0.637-0.507 1.153-1.131 1.153s-1.131-0.516-1.131-1.153c0-0.637 0.507-1.153 1.131-1.153s1.131 0.516 1.131 1.153z"></path>
</svg>
