<!-- Generated by IcoMoon.io -->
<svg version="1.1" xmlns="http://www.w3.org/2000/svg" width="27" height="32" viewBox="0 0 27 32">
<title>Performance-Diagnostics</title>
<path fill="#7a7a7a" d="M9.368 14.668c0.5 1.822 0.24 2.23-2.681 2.23v0.809h9.878v-0.809c-2.921 0-3.559-0.408-3.063-2.23h-4.135z"></path>
<path fill="#a0a1a2" d="M4.944 4.025c-0.454 0-0.918 0.391-0.918 0.829v8.99c0 0.434 0.461 0.822 0.918 0.822h13.457c0.457 0 0.826-0.388 0.826-0.822v-8.99c0-0.434-0.368-0.829-0.826-0.829h-13.457z"></path>
<path fill="#fff" opacity="0.2" d="M18.32 4.029l-0.010-0.003h-13.457c-0.457 0-0.826 0.391-0.826 0.829v8.99c0 0.434 0.368 0.822 0.826 0.822h0.319l13.148-10.638z"></path>
<path fill="#59b4d9" d="M5.167 5.166h12.92v8.36h-12.92v-8.36z"></path>
<path fill="#a0a1a2" d="M6.687 16.947h9.878v0.76h-9.878v-0.76z"></path>
<path fill="#b8d432" d="M11.47 4.647c0.001-0.117 0.096-0.211 0.213-0.211 0.001 0 0.002 0 0.003 0h-0c0.001 0 0.002-0 0.003-0 0.117 0 0.211 0.094 0.213 0.21v0c-0.001 0.117-0.096 0.211-0.213 0.211-0.001 0-0.002 0-0.003-0h0c-0.001 0-0.002 0-0.003 0-0.117 0-0.211-0.094-0.213-0.21v-0z"></path>
<path fill="#fff" d="M11.619 9.005c-0.015-0-0.028-0.004-0.040-0.011l0 0-2.585-1.44c-0.023-0.013-0.039-0.038-0.039-0.066s0.016-0.053 0.039-0.066l0-0 2.602-1.447c0.011-0.006 0.025-0.010 0.039-0.010s0.028 0.004 0.039 0.010l-0-0 2.587 1.438c0.023 0.013 0.039 0.038 0.039 0.066v0c0 0.026-0.016 0.053-0.039 0.066l-2.602 1.451c-0.011 0.007-0.025 0.011-0.039 0.011h-0z"></path>
<path fill="#fff" opacity="0.7" d="M12.083 12.663c-0.042-0-0.075-0.034-0.075-0.076 0-0 0-0.001 0-0.001v0l-0-2.929c0-0.030 0.016-0.053 0.036-0.069l2.51-1.457c0.011-0.007 0.024-0.011 0.038-0.011s0.027 0.004 0.039 0.011l-0-0c0.023 0.013 0.039 0.038 0.039 0.066 0 0 0 0 0 0.001v-0 2.93c0 0.026-0.016 0.053-0.039 0.066l-2.507 1.461c-0.011 0.006-0.023 0.010-0.037 0.010-0 0-0.001 0-0.001 0h0z"></path>
<path fill="#fff" opacity="0.4" d="M11.169 12.663c-0 0-0.001 0-0.001 0-0.013 0-0.025-0.004-0.036-0.010l0 0-2.506-1.46c-0.023-0.013-0.039-0.037-0.039-0.066 0-0 0-0.001 0-0.001v0l-0.001-2.91c0 0 0-0 0-0 0-0.042 0.034-0.076 0.076-0.076 0.014 0 0.027 0.004 0.038 0.010l-0-0 2.508 1.458c0.022 0.014 0.037 0.039 0.037 0.066v0l0.003 2.914c0 0 0 0 0 0 0 0.028-0.015 0.052-0.037 0.066l-0 0c-0.011 0.006-0.025 0.010-0.040 0.010h-0z"></path>
<path fill="#000" d="M4.026 18.876l3.799 3.799c0.194 0.194 0.463 0.315 0.76 0.315 0.594 0 1.075-0.481 1.075-1.075 0-0.297-0.12-0.565-0.315-0.76l-3.799-3.799-1.52 1.52z"></path>
<path fill="#000" opacity="0.4" d="M19.373 17.854l-1.52 1.52 0.993 0.993c0.609-0.404 1.115-0.911 1.508-1.5l0.012-0.020-0.993-0.993z"></path>
<path fill="#fff" d="M19.227 15.047c0 2.309-1.871 4.18-4.18 4.18s-4.18-1.872-4.18-4.18c0-2.309 1.871-4.18 4.18-4.18s4.18 1.871 4.18 4.18z"></path>
<path fill="#000" opacity="0.2" d="M12.193 16.372c0-2.47 1.72-4.178 4.181-4.178 0.763 0 1.477 0.207 2.092 0.566-0.724-1.247-2.069-2.086-3.612-2.086-2.309 0-4.181 1.872-4.181 4.178 0 1.546 0.839 2.891 2.086 3.615-0.356-0.6-0.566-1.322-0.566-2.093 0-0.001 0-0.002 0-0.002v0z"></path>
<path fill="#000" d="M15.048 9.763c-2.918 0-5.283 2.365-5.283 5.283s2.365 5.283 5.283 5.283c2.918 0 5.28-2.365 5.28-5.283s-2.362-5.283-5.28-5.283zM15.048 18.961c-2.161 0-3.915-1.753-3.915-3.915s1.753-3.915 3.915-3.915c2.161 0 3.915 1.753 3.915 3.915s-1.753 3.915-3.915 3.915z"></path>
<path fill="#57a300" d="M12.387 13.907h1.141v3.040h-1.141v-3.040zM14.288 14.667h1.138v2.28h-1.138v-2.28zM16.186 12.766h1.141v4.181h-1.141v-4.181z"></path>
</svg>
