<!-- Generated by IcoMoon.io -->
<svg version="1.1" xmlns="http://www.w3.org/2000/svg" width="31" height="32" viewBox="0 0 31 32">
<title>Performance</title>
<path fill="#b796f9" d="M19.766 10.179l-3.090 5.601-3.268-3.391-3.374 4.446 0.797 0.632 2.667-3.514 3.398 3.528 3.748-6.796-0.878-0.506z"></path>
<path fill="#000" d="M14.718 13.166c0 0.717-0.568 1.299-1.27 1.299s-1.27-0.582-1.27-1.299c0-0.717 0.568-1.299 1.27-1.299s1.27 0.582 1.27 1.299z"></path>
<path fill="#0078d4" d="M12.749 22.485c0 0.123 0.098 0.223 0.219 0.223l1.558-0.001c0.121 0 0.219-0.1 0.219-0.223v0l-0.002-5.536c0-0.123-0.098-0.223-0.219-0.223l-1.555 0.001c-0.121 0-0.219 0.1-0.219 0.223v0l-0.001 5.536z"></path>
<path fill="#005ba1" d="M9.293 22.485c0 0.123 0.098 0.223 0.219 0.223l1.558-0.001c0.121 0 0.219-0.1 0.219-0.223v0l-0.002-3.466c0-0.123-0.098-0.223-0.219-0.223l-1.555 0.001c-0.121 0-0.219 0.1-0.219 0.223v0l-0.001 3.466z"></path>
<path fill="#005ba1" d="M9.293 22.485c0 0.123 0.098 0.223 0.219 0.223l1.558-0.001c0.121 0 0.219-0.1 0.219-0.223v0l-0.002-7.538c0-0.123-0.098-0.223-0.219-0.223l-1.555-0.001c-0.121 0-0.219 0.1-0.219 0.223v0l-0.001 7.54z"></path>
<path fill="#5ea0ef" d="M9.293 22.485c0 0.123 0.098 0.223 0.219 0.223l1.558-0.001c0.121 0 0.219-0.1 0.219-0.223v0l-0.002-3.466c0-0.123-0.098-0.223-0.219-0.223l-1.555 0.001c-0.121 0-0.219 0.1-0.219 0.223v0l-0.001 3.466z"></path>
</svg>
