<!-- Generated by IcoMoon.io -->
<svg version="1.1" xmlns="http://www.w3.org/2000/svg" width="30" height="32" viewBox="0 0 30 32">
<title>Playbooks</title>
<path fill="#59b4d9" d="M15.533 11.389v-2.175h-1.054v2.175c0 0.395-0.339 0.741-0.886 0.916l-1.437 0.305c-0.972 0.305-1.646 1.087-1.646 1.959v2.48h1.054v-2.48c0-0.391 0.339-0.741 0.89-0.916l1.434-0.346c0.972-0.261 1.646-1.046 1.646-1.918z"></path>
<path fill="#57a300" d="M12.832 18.18v-2c0-0.48-0.38-0.871-0.845-0.871h-1.94c-0.465 0-0.845 0.391-0.845 0.871v2c0 0.48 0.38 0.871 0.845 0.871h1.94c0.465 0 0.845-0.391 0.845-0.871z"></path>
<path fill="#59b4d9" d="M14.352 11.391v-2.175h1.054v2.175c0 0.391 0.339 0.741 0.89 0.916l1.772 0.391c0.972 0.305 1.646 1.087 1.646 1.959v2.48h-1.054v-2.48c0-0.391-0.339-0.741-0.89-0.916l-1.772-0.391c-0.972-0.305-1.646-1.087-1.646-1.959z"></path>
<path fill="#57a300" d="M17.392 18.267v-2c0-0.48 0.38-0.871 0.845-0.871h1.94c0.465 0 0.845 0.391 0.845 0.871v2c0 0.48-0.38 0.871-0.845 0.871h-1.94c-0.465 0-0.845-0.391-0.845-0.871z"></path>
<path fill="#59b4d9" d="M14.352 9.215h1.182v2.089h-1.182v-2.089z"></path>
<path fill="#0072c6" d="M15.746 7.212v1.612h-1.564v-1.612h1.564zM16.084 5.994h-2.238c-0.465 0-0.845 0.391-0.845 0.871v2.305c0 0.48 0.38 0.871 0.845 0.871h2.238c0.462 0 0.841-0.391 0.841-0.871v-2.305c0-0.48-0.38-0.871-0.841-0.871z"></path>
<path fill="#59b4d9" d="M7.894 21.445c-0.886 0-1.519-0.175-1.899-0.48-0.384-0.346-0.551-0.912-0.551-1.739v-4.528c0-0.737-0.294-1.132-0.886-1.132v-1.132c0.592 0 0.886-0.391 0.886-1.173v-4.442c0-0.827 0.168-1.434 0.551-1.784 0.38-0.346 1.013-0.477 1.899-0.477v1.132c-0.633 0-0.972 0.346-0.972 1.087v4.353c0 1.002-0.294 1.609-0.927 1.869 0.588 0.261 0.927 0.871 0.927 1.873v4.308c0 0.391 0.086 0.696 0.212 0.871 0.168 0.175 0.38 0.261 0.715 0.261l0.045 1.132c-0.045 0 0 0 0 0zM22.334 4.559c0.886 0 1.519 0.171 1.899 0.477 0.38 0.35 0.547 0.916 0.547 1.743v4.524c0 0.741 0.298 1.132 0.886 1.132v1.132c-0.588 0-0.886 0.395-0.886 1.177v4.397c0 0.827-0.168 1.434-0.547 1.784-0.38 0.346-1.013 0.521-1.899 0.521v-1.132c0.633 0 0.968-0.346 0.968-1.087v-4.353c0-1.002 0.298-1.612 0.931-1.873-0.592-0.261-0.931-0.868-0.931-1.869v-4.312c0-0.391-0.082-0.696-0.209-0.868-0.171-0.175-0.38-0.261-0.719-0.261l-0.041-1.132z"></path>
</svg>
