<!-- Generated by IcoMoon.io -->
<svg version="1.1" xmlns="http://www.w3.org/2000/svg" width="31" height="32" viewBox="0 0 31 32">
<title>Policy</title>
<path fill="#000" d="M17.428 15.881c0 1.234-1.006 2.234-2.247 2.234s-2.247-1-2.247-2.234c0-1.234 1.006-2.234 2.247-2.234s2.247 1 2.247 2.234z"></path>
<path fill="#32bedd" d="M22.571 12.39c0 0.605-0.491 1.095-1.098 1.095s-1.098-0.49-1.098-1.095c0-0.605 0.491-1.095 1.098-1.095s1.098 0.49 1.098 1.095z"></path>
<path fill="#32bedd" d="M22.571 15.967c0 0.605-0.491 1.095-1.098 1.095s-1.098-0.49-1.098-1.095c0-0.605 0.491-1.095 1.098-1.095s1.098 0.49 1.098 1.095z"></path>
<path fill="#32bedd" d="M22.571 19.536c0 0.605-0.491 1.095-1.098 1.095s-1.098-0.49-1.098-1.095c0-0.605 0.491-1.095 1.098-1.095s1.098 0.49 1.098 1.095z"></path>
<path fill="#50e6ff" d="M20.064 14.221c0 0.605-0.491 1.095-1.098 1.095s-1.098-0.49-1.098-1.095c0-0.605 0.491-1.095 1.098-1.095s1.098 0.49 1.098 1.095z"></path>
<path fill="#50e6ff" d="M20.064 17.798c0 0.605-0.491 1.095-1.098 1.095s-1.098-0.49-1.098-1.095c0-0.605 0.491-1.095 1.098-1.095s1.098 0.49 1.098 1.095z"></path>
<path fill="#949494" d="M9.959 13.082c0.020-0.029 0.046-0.052 0.077-0.068l0.001-0.001 5.032-2.901c0.069 0 4.321 2.379 4.321 2.379 0.030 0.017 0.066 0.028 0.104 0.028 0.115 0 0.207-0.092 0.207-0.205 0-0.001 0-0.001 0-0.002v0l-0-0.933c0-0.001 0-0.001 0-0.002 0-0.076-0.041-0.142-0.103-0.177l-0.001-0.001c0.001-0-4.459-2.5-4.521-2.464l-6.24 3.543-0.095 0.069 1.218 0.735z"></path>
<path fill="#949494" d="M19.373 19.553l-4.098 2.338c-0.014 0.002-0.031 0.004-0.048 0.004s-0.033-0.001-0.049-0.004l0.002 0v1.369c0.014 0.004 0.031 0.007 0.048 0.007s0.033-0.002 0.049-0.007l-0.001 0 4.321-2.448c0.061-0.035 0.101-0.098 0.104-0.171v-0l0.002-0.908c0-0.004 0-0.009 0-0.013 0-0.113-0.093-0.205-0.207-0.205-0.046 0-0.088 0.015-0.122 0.039l0.001-0z"></path>
<path fill="#b3b3b3" d="M15.18 21.916c-0.017 0.004-0.037 0.006-0.057 0.006s-0.040-0.002-0.058-0.006l0.002 0-5.030-2.936c-0.062-0.032-0.104-0.095-0.104-0.168 0-0.001 0-0.002 0-0.004v0l0.001-5.625c-0.004-0.015-0.006-0.033-0.006-0.051s0.002-0.036 0.006-0.053l-0 0.002-1.192-0.735c-0.004 0.017-0.007 0.036-0.007 0.056s0.002 0.039 0.007 0.057l-0-0.002v7.077c-0 0.002-0 0.005-0 0.007 0 0.072 0.038 0.136 0.094 0.172l0.001 0 6.24 3.545c0.016 0.004 0.033 0.007 0.052 0.007s0.036-0.002 0.053-0.007l-0.001 0-0.001-1.344z"></path>
</svg>
