<!-- Generated by IcoMoon.io -->
<svg version="1.1" xmlns="http://www.w3.org/2000/svg" width="29" height="32" viewBox="0 0 29 32">
<title>Powershell</title>
<path fill="#0078d7" d="M25.352 4.723l-2.469 15.033c-0.182 0.728-0.812 1.257-1.563 1.257-0.015 0-0.030-0-0.045-0.001l0.002 0h-16.607c-0.764 0-1.291-0.562-1.194-1.256l2.469-15.033c0.064-0.317 0.225-0.588 0.448-0.785l0.002-0.002c0.304-0.287 0.709-0.465 1.154-0.469h16.604c0.024-0.002 0.052-0.003 0.080-0.003 0.51 0 0.941 0.349 1.081 0.828l0.002 0.008c0.027 0.087 0.043 0.188 0.043 0.292 0 0.046-0.003 0.091-0.009 0.135l0.001-0.005z"></path>
<path fill="#000" opacity="0.25" d="M25.319 4.298l-2.45 15.134c-0.043 0.267-0.159 0.516-0.329 0.717-3.869-3.923-11.936-12.068-16.142-16.212 0.314-0.298 0.725-0.465 1.151-0.469h16.607c0.531-0.039 1.012 0.306 1.163 0.83z"></path>
<path fill="#fff" d="M9.235 18.818c-0.001 0-0.002 0-0.003 0-0.466 0-0.844-0.39-0.844-0.87 0-0.286 0.134-0.54 0.341-0.698l0.002-0.002 7.129-5.408-5.14-4.989c-0.163-0.158-0.264-0.382-0.264-0.63 0-0.23 0.087-0.44 0.229-0.595l-0 0c0.155-0.169 0.375-0.274 0.618-0.274 0.224 0 0.428 0.090 0.581 0.236l-0.001-0 5.904 5.702c0.163 0.158 0.265 0.383 0.265 0.632 0 0.285-0.134 0.539-0.34 0.696l-0.002 0.002-7.974 6.028c-0.138 0.106-0.312 0.17-0.5 0.171h-0zM18.563 18.961h-3.88c-0.48 0-0.868-0.401-0.868-0.895s0.389-0.895 0.868-0.895h3.88c0.48 0 0.868 0.401 0.868 0.895s-0.389 0.895-0.868 0.895v0z"></path>
</svg>
