<!-- Generated by IcoMoon.io -->
<svg version="1.1" xmlns="http://www.w3.org/2000/svg" width="30" height="32" viewBox="0 0 30 32">
<title>Power-BI</title>
<path fill="#f2c811" d="M23.151 18.41v-1.055h0.511c0.975 0 1.614-0.787 1.614-1.75v-9.242c0.002-0.031 0.004-0.067 0.004-0.103 0-0.842-0.689-1.525-1.54-1.525-0.027 0-0.055 0.001-0.082 0.002l0.004-0h-17.305c-0.022-0.001-0.048-0.002-0.074-0.002-0.85 0-1.54 0.683-1.54 1.525 0 0.036 0.001 0.072 0.004 0.108l-0-0.005v9.242c0 0.963 0.635 1.75 1.61 1.75h0.511v1.055h-0.511c-1.478 0-2.673-1.339-2.673-2.805v-9.242c0.001-1.468 1.193-2.66 2.671-2.677h17.307c1.48 0.017 2.672 1.209 2.673 2.677v9.242c0 1.462-1.195 2.805-2.673 2.805h-0.511z"></path>
<path fill="#f2c811" d="M4.923 20.675c-0.689-0.021-1.239-0.579-1.239-1.265 0-0.015 0-0.029 0.001-0.044l-0 0.002v-3.001c-0-0.011-0.001-0.024-0.001-0.038 0-0.686 0.55-1.244 1.237-1.265l0.002-0c0.689 0.021 1.239 0.579 1.239 1.265 0 0.012-0 0.024-0 0.035l0-0.002v3.005c0 0.012 0.001 0.027 0.001 0.042 0 0.684-0.548 1.242-1.233 1.265l-0.002 0h-0.004zM8.815 20.559c-0.685-0.004-1.239-0.555-1.239-1.234 0-0.002 0-0.003 0-0.005v0-7.336c-0-0.006-0-0.013-0-0.019 0-0.678 0.555-1.227 1.239-1.227s1.239 0.549 1.239 1.227c0 0.007-0 0.014-0 0.021v-0.001 7.336c0 0.004 0 0.008 0 0.012 0 0.677-0.552 1.226-1.234 1.231h-0l-0.004-0.004zM16.614 20.587c-0 0-0.001 0-0.001 0-0.69 0-1.249-0.554-1.249-1.238 0-0.005 0-0.009 0-0.014v0.001-10.469c-0-0.006-0-0.013-0-0.019 0-0.678 0.555-1.227 1.239-1.227s1.239 0.549 1.239 1.227c0 0.007-0 0.014-0 0.021v-0.001 10.469c0 0.006 0 0.013 0 0.020 0 0.674-0.547 1.222-1.226 1.23h-0.001zM12.715 20.619c-0.688-0.008-1.243-0.562-1.243-1.244 0-0.006 0-0.013 0-0.019v0.001-5.542c-0-0.006-0-0.013-0-0.019 0-0.678 0.555-1.227 1.239-1.227s1.239 0.549 1.239 1.227c0 0.007-0 0.014-0 0.021v-0.001 5.542c0 0.005 0 0.011 0 0.018 0 0.679-0.551 1.231-1.234 1.241h-0.001v0.004z"></path>
</svg>
