<!-- Generated by IcoMoon.io -->
<svg version="1.1" xmlns="http://www.w3.org/2000/svg" width="28" height="32" viewBox="0 0 28 32">
<title>Power-BI-Embedded</title>
<path fill="#f2c811" d="M4.879 4.879h18.080v18.080h-18.080v-18.080z"></path>
<path fill="#212121" d="M18.073 16.892h-0.217v-0.44h0.217c0.115 0 0.226-0.022 0.325-0.067 0.2-0.088 0.357-0.244 0.444-0.438l0.002-0.005c0.041-0.102 0.064-0.21 0.064-0.325v-4.471c0-0.118-0.022-0.226-0.064-0.329-0.087-0.203-0.245-0.361-0.441-0.448l-0.005-0.002c-0.093-0.040-0.2-0.064-0.314-0.064-0.004 0-0.008 0-0.012 0h-8.288c-0.118 0-0.226 0.022-0.329 0.064-0.104 0.045-0.193 0.107-0.268 0.182l-0 0c-0.075 0.075-0.137 0.164-0.18 0.262l-0.002 0.005c-0.042 0.096-0.067 0.207-0.067 0.325 0 0.001 0 0.003 0 0.004v-0 4.471c0 0.115 0.025 0.223 0.067 0.325 0.089 0.201 0.248 0.357 0.444 0.441l0.006 0.002c0.102 0.045 0.21 0.067 0.329 0.067h0.217v0.44h-0.217c-0 0-0 0-0 0-0.529 0-0.983-0.318-1.183-0.773l-0.003-0.008c-0.065-0.144-0.102-0.312-0.102-0.489 0-0.002 0-0.004 0-0.005v0-4.471c0-0.179 0.032-0.344 0.102-0.498 0.202-0.465 0.657-0.784 1.186-0.785h8.289c0.352 0.001 0.67 0.144 0.899 0.376l0 0c0.112 0.115 0.203 0.25 0.268 0.4l0.003 0.009c0.067 0.153 0.102 0.319 0.102 0.498v4.471c0 0.175-0.035 0.341-0.102 0.494-0.068 0.157-0.16 0.291-0.271 0.405l0-0c-0.229 0.232-0.548 0.376-0.899 0.376h-0zM11.117 17.983c-0.001 0-0.001 0-0.002 0-0.162 0-0.309-0.064-0.416-0.169l0 0c-0.053-0.053-0.096-0.115-0.126-0.184l-0.002-0.004c-0.030-0.068-0.048-0.147-0.048-0.231 0-0.002 0-0.004 0-0.006v0-1.371c0-0.083 0.016-0.159 0.048-0.23 0.063-0.141 0.174-0.251 0.312-0.311l0.004-0.002c0.070-0.032 0.15-0.048 0.23-0.048 0.086 0 0.163 0.016 0.236 0.048 0.141 0.062 0.252 0.172 0.314 0.309l0.002 0.004c0.032 0.070 0.048 0.147 0.048 0.23v1.371c0 0.080-0.016 0.156-0.048 0.23s-0.075 0.135-0.128 0.188l0-0c-0.109 0.108-0.259 0.175-0.424 0.175h-0zM12.992 17.983c-0.086 0-0.163-0.016-0.236-0.048s-0.135-0.075-0.188-0.128l0 0c-0.053-0.053-0.096-0.115-0.126-0.184l-0.002-0.004c-0.032-0.070-0.048-0.15-0.048-0.23v-3.518c0-0.080 0.016-0.156 0.048-0.23 0.062-0.142 0.174-0.253 0.312-0.314l0.004-0.002c0.073-0.032 0.15-0.048 0.236-0.048 0.080 0 0.159 0.016 0.23 0.048 0.073 0.032 0.137 0.073 0.188 0.128 0.054 0.054 0.096 0.115 0.128 0.188s0.048 0.15 0.048 0.23v3.518c0 0.080-0.016 0.156-0.048 0.23s-0.073 0.137-0.128 0.188c-0.107 0.106-0.255 0.173-0.417 0.175h-0zM16.72 17.967c-0.080 0-0.156-0.016-0.23-0.048s-0.135-0.075-0.188-0.128l0 0c-0.053-0.053-0.096-0.115-0.126-0.184l-0.002-0.004c-0.030-0.068-0.048-0.147-0.048-0.231 0-0.002 0-0.004 0-0.006v0-4.972c0-0.083 0.016-0.159 0.048-0.233 0.032-0.070 0.073-0.134 0.128-0.188 0.054-0.051 0.115-0.092 0.188-0.124s0.15-0.048 0.23-0.048c0.086 0 0.166 0.016 0.236 0.048 0.073 0.032 0.137 0.073 0.188 0.124 0.054 0.054 0.096 0.118 0.128 0.188 0.032 0.073 0.048 0.15 0.048 0.233v4.972c0 0.086-0.016 0.163-0.048 0.236-0.062 0.142-0.173 0.254-0.312 0.314l-0.004 0.002c-0.070 0.032-0.15 0.048-0.236 0.048zM14.858 17.983c-0.083 0-0.159-0.016-0.233-0.048s-0.135-0.075-0.188-0.128l0 0c-0.051-0.053-0.093-0.115-0.123-0.184l-0.002-0.004c-0.030-0.067-0.048-0.145-0.048-0.227 0-0.001 0-0.002 0-0.003v0-2.612c0-0.080 0.016-0.159 0.048-0.23 0.062-0.142 0.172-0.253 0.309-0.314l0.004-0.002c0.073-0.032 0.15-0.048 0.233-0.048 0.080 0 0.156 0.016 0.23 0.048 0.214 0.094 0.361 0.302 0.364 0.545v2.612c0 0.080-0.016 0.159-0.048 0.23-0.032 0.073-0.077 0.137-0.128 0.188-0.107 0.106-0.255 0.173-0.417 0.175h-0z"></path>
</svg>
