<!-- Generated by IcoMoon.io -->
<svg version="1.1" xmlns="http://www.w3.org/2000/svg" width="28" height="32" viewBox="0 0 28 32">
<title>Private-Link</title>
<path fill="#7a7a7a" d="M12.953 6.192h1.198v7.729h-1.198v-7.729z"></path>
<path fill="#1490df" d="M15.308 5.945c0 0.011 0 0.024 0 0.038 0 0.994-0.787 1.799-1.757 1.799s-1.757-0.806-1.757-1.799c0-0.013 0-0.027 0-0.040l-0 0.002c0.021-0.977 0.799-1.762 1.757-1.762s1.736 0.784 1.757 1.76l0 0.002z"></path>
<path fill="#000" d="M13.311 13.511h-1.914c-1.319 0.006-2.386 1.102-2.386 2.454 0 1.216 0.865 2.226 1.999 2.42l0.014 0.002c-0.018-0.116-0.028-0.25-0.028-0.387 0-0.186 0.019-0.367 0.055-0.542l-0.003 0.017c-0.684-0.159-1.186-0.776-1.186-1.513 0-0.856 0.678-1.55 1.514-1.55 0.008 0 0.015 0 0.023 0h1.913c0.822 0.021 1.48 0.709 1.48 1.553s-0.658 1.532-1.478 1.553l-0.002 0h-0.525c-0.069 0.144-0.11 0.312-0.112 0.491v0.001c0 0.146 0.028 0.286 0.077 0.414l-0.003-0.008h0.562c1.301-0.030 2.345-1.117 2.345-2.453s-1.044-2.423-2.342-2.453l-0.003-0z"></path>
<path fill="#000" d="M16.081 15.59c0.016 0.112 0.026 0.242 0.027 0.375v0.001c0 0.006 0 0.014 0 0.021 0 0.182-0.019 0.359-0.054 0.531l0.003-0.017c0.684 0.159 1.186 0.776 1.186 1.513 0 0.856-0.678 1.55-1.514 1.55-0.008 0-0.015-0-0.023-0h-1.917c-0.011 0-0.024 0-0.037 0-0.838 0-1.518-0.696-1.518-1.554s0.679-1.554 1.518-1.554c0.013 0 0.026 0 0.039 0l-0.002-0h0.529c0.069-0.144 0.11-0.312 0.112-0.491v-0.001c-0.001-0.148-0.030-0.289-0.081-0.418l0.003 0.008h-0.562c-1.301 0.030-2.345 1.117-2.345 2.453s1.044 2.423 2.342 2.453l0.003 0h1.918c1.311-0.017 2.367-1.109 2.367-2.453 0-1.21-0.855-2.215-1.979-2.417l-0.014-0.002z"></path>
<path fill="#50e6ff" d="M10.1 21.494l-0.437 0.454c-0.054 0.055-0.129 0.090-0.212 0.090s-0.157-0.034-0.212-0.090v0l-4.917-5.021c-0.108-0.112-0.175-0.265-0.175-0.435s0.067-0.324 0.175-0.435l-0 0 0.444-0.451 5.333 5.455c0.055 0.055 0.089 0.132 0.089 0.217s-0.034 0.162-0.089 0.217l-0 0z"></path>
<path fill="#1490df" d="M9.572 11.106l0.491 0.505c0.054 0.056 0.088 0.132 0.088 0.217s-0.033 0.161-0.088 0.217v0l-5.248 5.387-0.491-0.498c-0.108-0.112-0.175-0.265-0.175-0.435s0.067-0.324 0.175-0.435l-0 0 4.825-4.957c0.054-0.055 0.129-0.090 0.212-0.090s0.157 0.034 0.212 0.090v0z"></path>
<path fill="#50e6ff" d="M17.397 21.852c-0.055-0.055-0.089-0.132-0.089-0.217s0.034-0.162 0.089-0.217l0-0 5.34-5.452 0.444 0.454c0.108 0.112 0.175 0.265 0.175 0.435s-0.067 0.324-0.175 0.435l0-0-4.92 5.011c-0.054 0.056-0.129 0.091-0.212 0.091s-0.158-0.035-0.212-0.091l-0-0-0.441-0.451z"></path>
<path fill="#1490df" d="M18.351 11.466l4.828 4.957c0.108 0.111 0.175 0.264 0.175 0.434s-0.067 0.323-0.175 0.434v0l-0.491 0.501-5.252-5.387c-0.053-0.057-0.086-0.134-0.086-0.219s0.033-0.162 0.086-0.219l-0 0 0.491-0.501c0.054-0.055 0.129-0.090 0.212-0.090s0.157 0.034 0.212 0.090v0z"></path>
</svg>
