<!-- Generated by IcoMoon.io -->
<svg version="1.1" xmlns="http://www.w3.org/2000/svg" width="28" height="32" viewBox="0 0 28 32">
<title>Private-Endpoint</title>
<path fill="#7a7a7a" d="M13.491 6.26h1.207v10.638h-1.207v-10.638z"></path>
<path fill="#57a300" d="M16.267 16.738c0 1.163-0.992 2.145-2.173 2.145s-2.173-0.982-2.173-2.145c0-1.163 0.992-2.141 2.173-2.141s2.173 0.978 2.173 2.141z"></path>
<path fill="#3999c6" d="M15.865 6.023c0 0.947-0.81 1.747-1.771 1.747s-1.771-0.8-1.771-1.747c0-0.95 0.81-1.747 1.771-1.747s1.771 0.796 1.771 1.747zM18.331 22.098c-0.002 0-0.003 0-0.005 0-0.154 0-0.292-0.061-0.393-0.161v0c-0.107-0.106-0.173-0.252-0.173-0.414s0.066-0.308 0.173-0.414l-0 0 4.255-4.195c0.063-0.062 0.102-0.147 0.102-0.241s-0.039-0.179-0.102-0.241h-0l-4.178-4.048c-0.112-0.090-0.185-0.223-0.192-0.373l-0-0.001c-0.007-0.164 0.063-0.328 0.189-0.458 0.105-0.107 0.251-0.173 0.413-0.173 0.018 0 0.036 0.001 0.054 0.002l-0.002-0c0.15 0 0.293 0.063 0.405 0.171l3.989 3.828 0.891 0.877c0.178 0.22 0.241 0.59 0 0.831l-0.964 0.947-3.993 3.902c-0.105 0.099-0.248 0.161-0.405 0.161-0.001 0-0.002 0-0.003 0h-0.059zM9.801 22.098c-0.001 0-0.003 0-0.004 0-0.157 0-0.3-0.061-0.405-0.161l0 0-4.066-3.863-0.891-0.992c-0.241-0.234-0.182-0.594-0.007-0.814l0.898-0.887 3.993-3.828c0.104-0.107 0.25-0.174 0.412-0.174 0.019 0 0.037 0.001 0.055 0.003l-0.002-0c0.147 0 0.29 0.063 0.402 0.171 0.129 0.126 0.196 0.293 0.189 0.458-0.009 0.154-0.083 0.289-0.195 0.38l-0.001 0.001-4.097 4.041c-0.063 0.061-0.103 0.147-0.103 0.241s0.039 0.18 0.102 0.241l0 0 4.182 4.191c0.106 0.106 0.172 0.253 0.172 0.414 0 0.163-0.067 0.311-0.175 0.417v0c-0.105 0.105-0.245 0.161-0.395 0.161h-0.063z"></path>
</svg>
