<!-- Generated by IcoMoon.io -->
<svg version="1.1" xmlns="http://www.w3.org/2000/svg" width="27" height="32" viewBox="0 0 27 32">
<title>Private-DNS-Zone</title>
<path fill="#0072c6" d="M22.415 13.277c0 5.047-4.091 9.139-9.138 9.139s-9.138-4.091-9.138-9.139c0-5.047 4.091-9.139 9.138-9.139s9.138 4.091 9.138 9.139z"></path>
<path fill="#fff" opacity="0.2" d="M6.813 19.739c-3.567-3.567-3.567-9.356 0-12.923 3.571-3.571 9.356-3.571 12.926 0l-12.926 12.923z"></path>
<path fill="#fff" opacity="0.8" d="M21.684 13.277c0-1.883-0.639-3.702-1.816-5.18l-0.068-0.068c-0.034-0.034-0.034-0.068-0.068-0.101l-0.538-0.571c-1.579-1.613-3.665-2.489-5.92-2.489h-0.064c-2.221 0.034-4.274 0.876-5.853 2.455l-0.571 0.605c-0.034 0.034-0.034 0.068-0.068 0.101l-0.068 0.034c-1.108 1.427-1.778 3.242-1.782 5.213v0.001c0 1.883 0.639 3.699 1.816 5.177l0.068 0.068c0.034 0.034 0.034 0.068 0.068 0.101l0.538 0.571c1.579 1.582 3.631 2.455 5.853 2.455h0.064c0.002 0 0.005 0 0.008 0 2.31 0 4.401-0.938 5.912-2.455l0-0 0.538-0.605c0.034-0.034 0.034-0.068 0.068-0.101l0.068-0.068c1.177-1.41 1.816-3.259 1.816-5.143zM18.286 7.793c-0.034 0-0.064 0.034-0.098 0.034-0.068 0.034-0.135 0.068-0.169 0.068-0.135 0.068-0.304 0.101-0.47 0.169-0.034 0-0.068 0.034-0.101 0.034-0.203 0.068-0.372 0.101-0.571 0.169-0.034 0-0.101 0.034-0.135 0.034-0.304-0.808-0.673-1.515-1.109-2.052 0.974 0.301 1.883 0.839 2.654 1.545zM13.211 5.842h0.034c0.906 0 1.85 0.977 2.519 2.658-0.771 0.135-1.613 0.203-2.489 0.203-0.872 0-1.748-0.068-2.553-0.203 0.639-1.647 1.579-2.624 2.489-2.658zM10.82 6.281c-0.402 0.538-0.771 1.21-1.075 2.019h-0.068c-0.2-0.068-0.402-0.101-0.571-0.169-0.034 0-0.068-0.034-0.101-0.034-0.132-0.068-0.301-0.135-0.436-0.203-0.068-0.034-0.101-0.034-0.169-0.068-0.034-0.034-0.068-0.034-0.132-0.068 0.771-0.639 1.613-1.177 2.553-1.478zM8.268 18.758c0.030 0 0.064-0.034 0.098-0.034 0.068-0.034 0.101-0.034 0.169-0.068 0.135-0.068 0.304-0.101 0.47-0.169 0.034 0 0.068-0.034 0.101-0.034 0.203-0.068 0.372-0.101 0.571-0.166h0.068c0.304 0.771 0.673 1.478 1.075 2.015-0.94-0.335-1.816-0.872-2.553-1.545zM13.245 20.709h-0.034c-0.91-0.034-1.85-0.977-2.489-2.624 0.805-0.135 1.68-0.203 2.553-0.203 0.876 0 1.684 0.068 2.489 0.203-0.636 1.647-1.613 2.624-2.519 2.624zM15.632 20.303c0.436-0.538 0.805-1.244 1.109-2.049 0.034 0 0.101 0.034 0.135 0.034 0.2 0.064 0.402 0.098 0.571 0.166 0.034 0 0.068 0.034 0.101 0.034 0.166 0.068 0.301 0.101 0.47 0.169 0.068 0.034 0.101 0.034 0.169 0.068 0.034 0 0.064 0.034 0.132 0.068-0.805 0.673-1.714 1.21-2.688 1.511zM19.027 17.984c-0.101 0-0.166-0.034-0.267-0.068s-0.237-0.101-0.338-0.135c-0.034 0-0.068-0.034-0.101-0.034-0.402-0.166-0.839-0.267-1.278-0.402 0.101-0.402 0.203-0.808 0.27-1.21h-1.008c-0.068 0.369-0.135 0.707-0.237 1.008-0.876-0.166-1.816-0.233-2.793-0.233-1.008 0-1.948 0.101-2.857 0.267-0.101-0.335-0.169-0.673-0.237-1.041h-1.008c0.068 0.436 0.169 0.842 0.271 1.244-0.406 0.101-0.808 0.237-1.177 0.369-0.034 0.034-0.101 0.034-0.135 0.068-0.101 0.034-0.237 0.101-0.338 0.135-0.068 0-0.166 0.034-0.233 0.068-1.011-1.21-1.582-2.725-1.684-4.27h0.842v-0.977h-0.842c0.101-1.545 0.673-3.026 1.65-4.203l0.034-0.034c0.068 0.034 0.166 0.068 0.233 0.101 0.135 0.068 0.237 0.101 0.372 0.169 0.034 0 0.068 0.034 0.101 0.034 0.369 0.132 0.771 0.267 1.21 0.369-0.101 0.369-0.169 0.74-0.237 1.109h1.008c0.068-0.301 0.135-0.639 0.203-0.906 0.91 0.166 1.883 0.267 2.857 0.267 0.977 0 1.917-0.101 2.793-0.233 0.068 0.267 0.135 0.571 0.203 0.906h1.008c-0.068-0.369-0.135-0.74-0.237-1.109 0.44-0.101 0.842-0.237 1.244-0.402 0.034 0 0.101-0.034 0.135-0.034 0.135-0.034 0.237-0.101 0.372-0.135 0.064-0.034 0.166-0.068 0.233-0.101 0.977 1.21 1.582 2.691 1.68 4.237h-1.008v0.977h1.008c-0.166 1.511-0.737 3.026-1.714 4.203z"></path>
<path fill="#fff" d="M11.164 13.224c0 0.399-0.051 0.74-0.156 1.024-0.105 0.281-0.254 0.514-0.446 0.69-0.196 0.179-0.433 0.311-0.71 0.396-0.281 0.085-0.612 0.125-0.997 0.125h-1.038c-0.002 0-0.005 0-0.008 0-0.068 0-0.131-0.025-0.179-0.066l0 0c-0.050-0.043-0.074-0.114-0.074-0.212v-3.787c0-0.098 0.024-0.169 0.074-0.213 0.048-0.041 0.11-0.066 0.178-0.066 0.003 0 0.006 0 0.009 0h-0l1.115 0.001c0.389 0 0.717 0.044 0.984 0.135 0.271 0.091 0.497 0.223 0.683 0.402 0.185 0.18 0.329 0.401 0.419 0.647l0.004 0.012c0.095 0.26 0.142 0.565 0.142 0.91zM10.251 13.254c0-0.007 0-0.015 0-0.023 0-0.196-0.026-0.386-0.075-0.567l0.004 0.015c-0.047-0.177-0.128-0.331-0.235-0.462l0.002 0.002c-0.109-0.131-0.246-0.234-0.402-0.302l-0.007-0.003c-0.166-0.071-0.385-0.108-0.656-0.108h-0.446v2.955h0.46c0.24 0 0.446-0.030 0.612-0.095s0.304-0.156 0.412-0.284c0.112-0.125 0.196-0.284 0.25-0.47 0.054-0.189 0.081-0.409 0.081-0.659zM15.471 15.151c0 0.004 0 0.008 0 0.012 0 0.090-0.038 0.17-0.099 0.226l-0 0c-0.030 0.026-0.066 0.047-0.105 0.058l-0.002 0c-0.037 0.011-0.079 0.018-0.123 0.018-0.001 0-0.001 0-0.002 0h-0.375c-0.081 0-0.145-0.007-0.206-0.020-0.060-0.018-0.112-0.049-0.156-0.088l0 0c-0.053-0.048-0.099-0.102-0.137-0.163l-0.002-0.003c-0.048-0.074-0.098-0.164-0.144-0.256l-0.008-0.018-1.082-2.032c-0.061-0.122-0.125-0.25-0.189-0.392-0.045-0.089-0.104-0.223-0.159-0.359l-0.017-0.047h-0.007c0.017 0.282 0.027 0.613 0.027 0.945 0 0.010 0 0.020-0 0.030v-0.002 2.276c0 0 0 0.001 0 0.001 0 0.022-0.007 0.043-0.019 0.060l0-0c-0.016 0.021-0.038 0.036-0.063 0.045l-0.001 0c-0.029 0.012-0.070 0.019-0.124 0.026s-0.115 0.010-0.177 0.010c-0.007 0-0.013-0-0.020-0h0.001c-0.078 0-0.145-0.003-0.196-0.010s-0.091-0.017-0.118-0.027c-0.025-0.009-0.046-0.025-0.060-0.045l-0-0c-0.011-0.017-0.017-0.037-0.017-0.059 0-0 0-0.001 0-0.001v0l-0-3.904c0-0.105 0.030-0.186 0.091-0.237 0.058-0.049 0.134-0.079 0.217-0.079 0.003 0 0.007 0 0.010 0h-0l0.473-0.002c0.085 0 0.156 0.010 0.213 0.024 0.061 0.014 0.112 0.037 0.159 0.071 0.044 0.034 0.088 0.081 0.129 0.142 0.041 0.057 0.081 0.132 0.122 0.22l0.849 1.586c0.047 0.098 0.098 0.193 0.145 0.284s0.095 0.186 0.139 0.281l0.132 0.271c0.041 0.091 0.081 0.179 0.122 0.271h0.003c-0.011-0.258-0.017-0.561-0.017-0.865 0-0.039 0-0.079 0-0.118l-0 0.006v-2.039c0-0.020 0.003-0.041 0.017-0.061 0.018-0.021 0.040-0.037 0.066-0.046l0.001-0c0.031-0.011 0.075-0.021 0.125-0.028s0.118-0.007 0.196-0.007c0.078 0 0.142 0 0.193 0.007s0.091 0.017 0.118 0.030c0.027 0.014 0.047 0.027 0.061 0.044 0.010 0.020 0.017 0.041 0.017 0.061v3.905zM18.994 14.157c0 0.23-0.044 0.429-0.128 0.602-0.084 0.171-0.201 0.315-0.342 0.428l-0.003 0.002c-0.145 0.114-0.315 0.203-0.5 0.258l-0.011 0.003c-0.183 0.056-0.394 0.088-0.612 0.088-0.005 0-0.010-0-0.015-0h0.001c-0.149 0-0.287-0.014-0.416-0.037-0.133-0.024-0.247-0.055-0.358-0.093l0.017 0.005c-0.095-0.032-0.177-0.069-0.254-0.112l0.007 0.004c-0.054-0.030-0.101-0.063-0.142-0.102l0 0c-0.031-0.034-0.053-0.077-0.062-0.124l-0-0.002c-0.012-0.063-0.019-0.137-0.019-0.211 0-0.009 0-0.017 0-0.026l-0 0.001c0-0.071 0-0.129 0.007-0.176 0.003-0.047 0.010-0.085 0.020-0.115 0.007-0.025 0.021-0.046 0.040-0.062l0-0c0.016-0.012 0.036-0.019 0.058-0.019 0 0 0.001 0 0.001 0h-0c0.033-0 0.077 0.020 0.134 0.057 0.057 0.034 0.128 0.078 0.22 0.122 0.088 0.044 0.196 0.085 0.321 0.122 0.122 0.037 0.267 0.057 0.429 0.057 0.002 0 0.005 0 0.007 0 0.1 0 0.196-0.015 0.287-0.042l-0.007 0.002c0.085-0.027 0.159-0.061 0.216-0.108 0.061-0.047 0.105-0.105 0.139-0.176 0.030-0.068 0.047-0.145 0.047-0.23 0-0.101-0.027-0.183-0.081-0.254-0.058-0.075-0.128-0.138-0.206-0.187l-0.003-0.002c-0.083-0.054-0.18-0.106-0.28-0.15l-0.014-0.005c-0.112-0.047-0.223-0.098-0.341-0.152-0.134-0.062-0.245-0.123-0.351-0.19l0.013 0.008c-0.108-0.068-0.206-0.149-0.294-0.243-0.086-0.096-0.156-0.208-0.207-0.33l-0.003-0.008c-0.054-0.132-0.081-0.287-0.081-0.467 0-0.21 0.041-0.392 0.118-0.551 0.076-0.156 0.181-0.287 0.309-0.391l0.002-0.002c0.132-0.105 0.284-0.183 0.463-0.233s0.369-0.078 0.565-0.078c0 0 0 0 0 0 0.213 0 0.419 0.032 0.613 0.092l-0.015-0.004c0.088 0.027 0.169 0.057 0.237 0.091 0.071 0.034 0.118 0.061 0.139 0.085 0.018 0.016 0.033 0.035 0.045 0.056l0.001 0.001c0.009 0.014 0.016 0.034 0.019 0.061 0.007 0.027 0.010 0.057 0.014 0.098 0.002 0.038 0.003 0.082 0.003 0.127 0 0.065-0.002 0.129-0.007 0.193l0-0.009c-0.003 0.040-0.009 0.077-0.018 0.113l0.001-0.005c-0.006 0.025-0.017 0.047-0.034 0.064l0-0c-0.015 0.013-0.034 0.020-0.054 0.020-0.002 0-0.003-0-0.005-0h0c-0.022 0-0.063-0.013-0.117-0.043-0.054-0.034-0.118-0.068-0.196-0.105-0.075-0.036-0.166-0.070-0.26-0.098l-0.014-0.003c-0.096-0.028-0.207-0.044-0.322-0.044-0.006 0-0.012 0-0.017 0h0.001c-0.095 0-0.179 0.010-0.25 0.034-0.069 0.022-0.129 0.055-0.18 0.099l0.001-0.001c-0.047 0.040-0.084 0.089-0.107 0.146l-0.001 0.003c-0.023 0.055-0.037 0.119-0.037 0.186v0c0 0.095 0.027 0.179 0.081 0.25 0.051 0.071 0.122 0.132 0.21 0.189 0.088 0.054 0.189 0.105 0.301 0.152s0.227 0.098 0.345 0.152c0.115 0.054 0.23 0.115 0.341 0.186 0.112 0.068 0.21 0.149 0.298 0.243s0.159 0.206 0.213 0.335c0.054 0.132 0.081 0.284 0.081 0.456z"></path>
</svg>
