<!-- Generated by IcoMoon.io -->
<svg version="1.1" xmlns="http://www.w3.org/2000/svg" width="24" height="32" viewBox="0 0 24 32">
<title>Property</title>
<path fill="#e5e5e5" d="M4.026 4.026h3.775v18.649h-3.775v-18.649z"></path>
<path fill="#59b4d9" d="M4.781 4.772h2.242v17.157h-2.242v-17.157z"></path>
<path fill="#fff" opacity="0.6" d="M4.781 11.486h2.266v10.443h-2.265v-10.444z"></path>
<path fill="#7a7a7a" d="M4.026 21.183h3.774v1.492h-3.774v-1.492z"></path>
<path fill="#fff" opacity="0.7" d="M4.027 10.739h3.773v0.747h-3.773v-0.747z"></path>
<path fill="#e5e5e5" d="M10.065 4.026h3.775v18.649h-3.775v-18.649z"></path>
<path fill="#59b4d9" d="M10.819 4.772h2.242v17.157h-2.242v-17.157z"></path>
<path fill="#fff" opacity="0.6" d="M10.821 17.454h2.265v4.476h-2.265v-4.476z"></path>
<path fill="#7a7a7a" d="M10.065 16.708h3.774v1.492h-3.774v-1.492z"></path>
<path fill="#fff" opacity="0.7" d="M10.065 16.708h3.774v0.746h-3.774v-0.746z"></path>
<path fill="#e5e5e5" d="M16.103 4.026h3.775v18.649h-3.775v-18.649z"></path>
<path fill="#59b4d9" d="M16.858 4.772h2.242v17.157h-2.242v-17.157z"></path>
<path fill="#fff" opacity="0.6" d="M16.858 11.486h2.265v10.443h-2.265v-10.444z"></path>
<path fill="#7a7a7a" d="M16.103 10.74h3.774v1.492h-3.774v-1.492z"></path>
<path fill="#fff" opacity="0.7" d="M16.103 10.74h3.774v0.746h-3.774v-0.746z"></path>
<path fill="#1e1e1e" opacity="0.2" d="M4.027 12.232h3.773v0.747h-3.773v-0.747zM16.093 12.232h3.773v0.747h-3.773v-0.747zM10.066 18.199h3.776v0.747h-3.776v-0.747z"></path>
</svg>
