<!-- Generated by IcoMoon.io -->
<svg version="1.1" xmlns="http://www.w3.org/2000/svg" width="33" height="32" viewBox="0 0 33 32">
<title>Proximity-Placement-Group</title>
<path fill="#949494" d="M8.931 21.37c-0 0.001-0 0.003-0 0.005 0 0.051 0.030 0.096 0.074 0.117l0.001 0 1.010 0.579 1.71 0.977c0.021 0.012 0.046 0.019 0.073 0.019 0.052 0 0.099-0.027 0.125-0.067l0-0.001 0.571-0.994c0.014-0.020 0.022-0.045 0.022-0.072 0-0.050-0.029-0.094-0.071-0.115l-0.001-0-2.009-1.149c-0.040-0.027-0.066-0.071-0.066-0.122 0-0 0-0 0-0v0l0.001-9.095c0-0 0-0 0-0 0-0.051 0.026-0.095 0.066-0.122l0.001-0 2.008-1.149c0.043-0.022 0.071-0.066 0.071-0.116 0-0.027-0.008-0.052-0.022-0.072l0 0-0.57-0.994c-0.027-0.041-0.073-0.068-0.125-0.068-0.027 0-0.052 0.007-0.074 0.019l0.001-0-1.653 0.963-1.069 0.593c-0.044 0.022-0.075 0.066-0.075 0.117 0 0.002 0 0.003 0 0.005v-0l0.001 10.742z"></path>
<path fill="#a3a3a3" d="M12.495 9.995l-0.57-0.995c-0.027-0.041-0.073-0.067-0.125-0.067-0.008 0-0.017 0.001-0.025 0.002l0.001-0c-0.010-0.004-0.021-0.006-0.033-0.006s-0.023 0.002-0.034 0.006l0.001-0-1.655 0.963-1.074 0.609-0.050 0.050c-0.002 0.010-0.003 0.021-0.003 0.033s0.001 0.023 0.003 0.034l-0-0.001 1.439 0.815c0-0 0-0 0-0 0-0.051 0.026-0.095 0.066-0.122l0.001-0 2.008-1.133c0.043-0.022 0.071-0.066 0.071-0.116 0-0.027-0.008-0.052-0.022-0.072l0 0zM12.495 22.006l-0.57 0.995c-0.027 0.041-0.073 0.067-0.125 0.067-0.008 0-0.017-0.001-0.025-0.002l0.001 0c-0.010 0.004-0.021 0.006-0.033 0.006s-0.023-0.002-0.034-0.006l0.001 0-1.655-0.963-1.074-0.609-0.050-0.050c-0.002-0.010-0.003-0.021-0.003-0.033s0.001-0.023 0.003-0.034l-0 0.001 1.439-0.814c0 0 0 0 0 0 0 0.051 0.026 0.095 0.066 0.122l0.001 0 2.008 1.149c0.039 0.023 0.064 0.065 0.064 0.112 0 0.022-0.005 0.042-0.015 0.060l0-0.001z"></path>
<path fill="#949494" d="M23.816 10.63c0-0.001 0-0.003 0-0.005 0-0.051-0.030-0.096-0.074-0.117l-0.001-0-1.010-0.579-1.71-0.977c-0.021-0.012-0.046-0.019-0.073-0.019-0.052 0-0.099 0.027-0.125 0.067l-0 0.001-0.571 0.994c-0.014 0.020-0.022 0.045-0.022 0.072 0 0.050 0.029 0.094 0.071 0.115l0.001 0 2.009 1.149c0.040 0.027 0.066 0.071 0.066 0.122 0 0 0 0 0 0v0l-0 9.095c0 0 0 0 0 0 0 0.051-0.026 0.095-0.066 0.122l-0.001 0-2.008 1.149c-0.043 0.022-0.071 0.066-0.071 0.116 0 0.027 0.008 0.052 0.022 0.072l-0-0 0.57 0.994c0.027 0.041 0.073 0.068 0.125 0.068 0.027 0 0.052-0.007 0.074-0.019l-0.001 0 1.653-0.963 1.043-0.593c0.044-0.022 0.075-0.066 0.075-0.117 0-0.002-0-0.003-0-0.005v0l-0.001-10.742h0.026z"></path>
<path fill="#a3a3a3" d="M20.253 22.006l0.57 0.995c0.027 0.041 0.073 0.067 0.125 0.067 0.008 0 0.017-0.001 0.025-0.002l-0.001 0c0.010 0.004 0.021 0.006 0.033 0.006s0.023-0.002 0.034-0.006l-0.001 0 1.655-0.963 1.040-0.593 0.050-0.050c0.002-0.010 0.003-0.021 0.003-0.033s-0.001-0.023-0.003-0.034l0 0.001-1.439-0.814c0 0 0 0 0 0 0 0.051-0.026 0.095-0.066 0.122l-0.001 0-2.008 1.149c-0.022 0.023-0.035 0.054-0.035 0.088 0 0.025 0.007 0.047 0.019 0.067l-0-0.001zM20.253 9.995l0.57-0.995c0.027-0.041 0.073-0.067 0.125-0.067 0.008 0 0.017 0.001 0.025 0.002l-0.001-0c0.010-0.004 0.021-0.006 0.033-0.006s0.023 0.002 0.034 0.006l-0.001-0 1.655 0.963 1.040 0.593 0.050 0.050c0.002 0.010 0.003 0.021 0.003 0.033s-0.001 0.023-0.003 0.034l0-0.001-1.439 0.815c0-0 0-0 0-0 0-0.051-0.026-0.095-0.066-0.122l-0.001-0-1.974-1.117c-0.043-0.022-0.071-0.066-0.071-0.116 0-0.027 0.008-0.052 0.022-0.072l-0 0z"></path>
<path fill="#999" d="M15.978 19.187c-0.005 0.132-0.114 0.236-0.248 0.236-0.003 0-0.006-0-0.009-0h-4.003c-0.005 0-0.011 0.001-0.017 0.001-0.134 0-0.244-0.105-0.248-0.236v-0l-0.001-6.397c0.004-0.132 0.114-0.237 0.248-0.237 0.006 0 0.012 0 0.017 0.001l-0.001-0h4.003c0.002-0 0.005-0 0.008-0 0.134 0 0.243 0.105 0.248 0.236v0l0.001 6.397z"></path>
<path fill="#003067" d="M12.123 15.487c-0-0.008-0.001-0.017-0.001-0.026 0-0.271 0.216-0.492 0.488-0.505l0.001-0h2.248c0.277 0.013 0.497 0.238 0.497 0.513 0 0.006-0 0.012-0 0.018l0-0.001c0 0.008 0.001 0.017 0.001 0.025 0 0.275-0.22 0.5-0.496 0.513l-0.001 0h-2.248c-0.273-0.013-0.49-0.234-0.49-0.505 0-0.012 0-0.024 0.001-0.035l-0 0.002zM12.123 13.906c-0-0.008-0.001-0.017-0.001-0.026 0-0.273 0.215-0.495 0.488-0.512l0.002-0h2.248c0.278 0.017 0.497 0.244 0.497 0.521 0 0.006-0 0.012-0 0.019l0-0.001c0 0.005 0 0.011 0 0.018 0 0.275-0.22 0.5-0.495 0.513l-0.001 0h-2.248c-0.273-0.013-0.489-0.234-0.489-0.505 0-0.009 0-0.018 0.001-0.027l-0 0.001z"></path>
<path fill="#50e6ff" d="M13.115 13.906c0 0.198-0.163 0.359-0.364 0.359s-0.364-0.161-0.364-0.359c0-0.198 0.163-0.359 0.364-0.359s0.364 0.161 0.364 0.359z"></path>
<path fill="#50e6ff" d="M13.115 15.487c0 0.198-0.163 0.359-0.364 0.359s-0.364-0.161-0.364-0.359c0-0.198 0.163-0.359 0.364-0.359s0.364 0.161 0.364 0.359z"></path>
<path fill="#999" d="M21.403 19.187c-0.004 0.132-0.114 0.237-0.248 0.237-0.006 0-0.012-0-0.017-0.001l0.001 0h-3.995c-0.005 0-0.011 0.001-0.017 0.001-0.134 0-0.244-0.105-0.248-0.236v-0l-0.001-6.397c0.004-0.132 0.114-0.237 0.248-0.237 0.006 0 0.012 0 0.017 0.001l-0.001-0h3.995c0.005-0 0.011-0.001 0.017-0.001 0.134 0 0.244 0.105 0.248 0.236v0l0.001 6.397z"></path>
<path fill="#003067" d="M17.539 15.487c-0-0.005-0-0.011-0-0.018 0-0.275 0.22-0.5 0.495-0.513l0.001-0h2.25c0.277 0.013 0.497 0.238 0.497 0.513 0 0.006-0 0.012-0 0.018l0-0.001c0 0.008 0.001 0.017 0.001 0.025 0 0.275-0.22 0.5-0.496 0.513l-0.001 0h-2.258c-0.277-0.013-0.497-0.238-0.497-0.513 0-0.009 0-0.018 0.001-0.027l-0 0.001h0.008zM17.539 13.906c-0-0.005-0-0.012-0-0.018 0-0.277 0.219-0.503 0.495-0.521l0.002-0h2.25c0.278 0.017 0.497 0.244 0.497 0.521 0 0.006-0 0.012-0 0.019l0-0.001c0 0.005 0 0.011 0 0.018 0 0.275-0.22 0.5-0.495 0.513l-0.001 0h-2.258c-0.277-0.013-0.497-0.238-0.497-0.513 0-0.006 0-0.012 0-0.018l-0 0.001h0.008z"></path>
<path fill="#50e6ff" d="M18.54 13.906c0 0.198-0.163 0.359-0.364 0.359s-0.364-0.161-0.364-0.359c0-0.198 0.163-0.359 0.364-0.359s0.364 0.161 0.364 0.359z"></path>
<path fill="#50e6ff" d="M18.54 15.487c0 0.198-0.163 0.359-0.364 0.359s-0.364-0.161-0.364-0.359c0-0.198 0.163-0.359 0.364-0.359s0.364 0.161 0.364 0.359z"></path>
</svg>
