<!-- Generated by IcoMoon.io -->
<svg version="1.1" xmlns="http://www.w3.org/2000/svg" width="35" height="32" viewBox="0 0 35 32">
<title>Public-IP-Address</title>
<path fill="#000" d="M9.598 12.989h16.004v8.878c-0 0.295-0.24 0.533-0.536 0.534h-14.931c-0.296-0-0.536-0.239-0.536-0.534v-8.878z"></path>
<path fill="#767676" d="M10.135 9.597h14.931c0.296 0 0.536 0.239 0.536 0.534 0 0.001 0 0.002 0 0.003v-0 2.854h-16.004v-2.865c0.005-0.291 0.243-0.525 0.536-0.525v0z"></path>
<path fill="#f2f2f2" d="M22.496 17.11c0 0.714-0.582 1.293-1.299 1.293s-1.299-0.579-1.299-1.293c0-0.714 0.582-1.293 1.299-1.293s1.299 0.579 1.299 1.293z"></path>
<path fill="#f2f2f2" d="M18.956 17.11c0 0.714-0.582 1.293-1.299 1.293s-1.299-0.579-1.299-1.293c0-0.714 0.582-1.293 1.299-1.293s1.299 0.579 1.299 1.293z"></path>
<path fill="#f2f2f2" d="M15.303 17.11c0 0.714-0.582 1.293-1.299 1.293s-1.299-0.579-1.299-1.293c0-0.714 0.582-1.293 1.299-1.293s1.299 0.579 1.299 1.293z"></path>
<path fill="#f2f2f2" d="M11.754 11.716c0 0.145 0.118 0.262 0.264 0.262l11.175-0.003c0.146 0 0.264-0.117 0.264-0.262v0l-0.001-0.842c0-0.145-0.118-0.262-0.264-0.262l-11.175-0c-0.146 0-0.264 0.117-0.264 0.262v0l0.001 0.844z"></path>
</svg>
