<!-- Generated by IcoMoon.io -->
<svg version="1.1" xmlns="http://www.w3.org/2000/svg" width="25" height="32" viewBox="0 0 25 32">
<title>Python</title>
<path fill="#3772a4" d="M3.056 17.488c0-0.027 0.017-0.054 0.017-0.082 0.017-0.282 0.020-0.565 0.051-0.844 0.048-0.956 0.367-1.829 0.881-2.553l-0.010 0.015c0.409-0.55 1.025-0.926 1.73-1.013l0.012-0.001c0.092-0.013 0.198-0.020 0.306-0.020h6.507c0.126 0 0.126 0 0.126-0.129v-0.449c0-0.092-0.027-0.112-0.116-0.112h-4.434c-0.075 0-0.476-0.024-0.476-0.102v-2.212c0-0.33 0.531-0.613 0.745-0.851 0.295-0.312 0.661-0.552 1.073-0.695l0.019-0.006c0.457-0.17 0.988-0.296 1.539-0.355l0.029-0.003c0.452-0.055 0.976-0.086 1.507-0.086 0.244 0 0.487 0.007 0.728 0.020l-0.034-0.001c0.838 0.016 1.635 0.173 2.374 0.448l-0.050-0.016c0.526 0.185 0.966 0.503 1.296 0.913l0.004 0.006c0.239 0.307 0.384 0.699 0.384 1.125 0 0.035-0.001 0.070-0.003 0.105l0-0.005c-0.020 0.374 0 0.755 0 1.13v2.089c0 0.408 0 0.82-0.020 1.225-0.007 0.924-0.586 1.711-1.401 2.023l-0.015 0.005c-0.362 0.153-0.784 0.242-1.226 0.242-0.012 0-0.023-0-0.035-0h-4.592c-0.018-0-0.038-0.001-0.059-0.001-0.497 0-0.962 0.138-1.358 0.378l0.012-0.007c-0.526 0.337-0.908 0.858-1.058 1.47l-0.003 0.017c-0.082 0.282-0.129 0.606-0.129 0.941 0 0.005 0 0.011 0 0.016v-0.001 2.089c0 0.136 0 0.136-0.143 0.136-0.497 0-1 0.017-1.501 0-0.517-0.024-0.98-0.232-1.332-0.559l0.001 0.001c-0.415-0.382-0.732-0.864-0.912-1.409l-0.007-0.024c-0.171-0.449-0.293-0.971-0.345-1.514l-0.002-0.025c-0.031-0.337-0.041-0.674-0.065-1.011 0-0.037-0.017-0.075-0.017-0.109v-0.201z"></path>
<path fill="#000" d="M9.181 5.202c0-0.508 0.411-0.919 0.919-0.919s0.919 0.412 0.919 0.919v0c0 0.508-0.411 0.919-0.919 0.919s-0.919-0.412-0.919-0.919v0z"></path>
<path fill="#ffda4b" d="M17.26 12.861c-0.008 0.024-0.016 0.053-0.020 0.082l-0 0.003c-0.014 0.279-0.017 0.561-0.048 0.841-0.052 0.953-0.371 1.822-0.885 2.543l0.010-0.015c-0.409 0.551-1.024 0.928-1.73 1.016l-0.012 0.001c-0.086 0.011-0.184 0.017-0.285 0.017-0.008 0-0.015-0-0.022-0h-6.502c-0.129 0-0.129 0-0.129 0.129v0.453c0 0.092 0.027 0.112 0.116 0.112h4.434c0.078 0 0.102 0.020 0.102 0.102v2.212c-0.017 0.332-0.157 0.629-0.374 0.847l0-0c-0.292 0.315-0.656 0.559-1.067 0.705l-0.019 0.006c-0.456 0.169-0.986 0.295-1.536 0.355l-0.030 0.003c-0.453 0.055-0.977 0.087-1.508 0.087-0.245 0-0.489-0.007-0.731-0.020l0.034 0.001c-0.837-0.016-1.632-0.173-2.37-0.448l0.050 0.016c-0.526-0.185-0.966-0.503-1.296-0.913l-0.004-0.006c-0.239-0.307-0.384-0.699-0.384-1.125 0-0.035 0.001-0.070 0.003-0.105l-0 0.005c0.017-0.374 0-0.755 0-1.126v-2.093c0-0.408 0-0.82 0.017-1.225 0.007-0.924 0.586-1.711 1.401-2.023l0.015-0.005c0.362-0.153 0.784-0.242 1.226-0.242 0.013 0 0.026 0 0.038 0l-0.002-0h4.594c0.017 0 0.036 0.001 0.055 0.001 0.497 0 0.962-0.138 1.358-0.378l-0.012 0.007c0.526-0.337 0.908-0.858 1.058-1.47l0.003-0.017c0.082-0.282 0.129-0.606 0.129-0.941 0-0.005 0-0.011-0-0.016v0.001-2.089c0-0.136 0-0.136 0.14-0.136 0.5 0 1.004-0.017 1.501 0 0.518 0.024 0.983 0.233 1.335 0.563l-0.001-0.001c0.415 0.381 0.731 0.862 0.912 1.406l0.007 0.024c0.17 0.455 0.291 0.983 0.339 1.532l0.002 0.023c0.031 0.337 0.041 0.674 0.061 1.011 0.006 0.043 0.013 0.080 0.022 0.116l-0.001-0.007c0.003 0.061 0.007 0.123 0.007 0.184v0z"></path>
<path fill="#000" d="M16.38 19.885c0 0.508-0.411 0.919-0.919 0.919s-0.919-0.412-0.919-0.919v0c0-0.508 0.411-0.919 0.919-0.919s0.919 0.412 0.919 0.919v0z"></path>
</svg>
