<!-- Generated by IcoMoon.io -->
<svg version="1.1" xmlns="http://www.w3.org/2000/svg" width="24" height="32" viewBox="0 0 24 32">
<title>Quickstart-Center</title>
<path fill="#ff8c00" d="M6.346 13.685c0 0-2.261-1.704-3.909-1.203 0.455-1.64 2.73-3.492 4.78-3.859 2.409 0.275 2.829 0.698 2.829 0.698l-3.701 4.364z"></path>
<path fill="#dd5900" d="M10.466 17.805l4.364-3.701c0 0 0.42 0.42 0.698 2.829-0.367 2.050-2.223 4.322-3.859 4.78 0.497-1.651-1.203-3.909-1.203-3.909z"></path>
<path fill="#fcd116" d="M21.999 2.001c0 0-9.652 2.050-15.766 11.539l4.223 4.226c9.493-6.114 11.543-15.766 11.543-15.766z"></path>
<path fill="#ff8c00" opacity="0.2" d="M21.999 2.001c0 0-9.652 2.050-15.766 11.539l4.223 4.226c9.493-6.114 11.543-15.766 11.543-15.766z"></path>
<path fill="#dd5900" d="M21.998 2.001l-13.652 13.652 2.113 2.113c9.49-6.114 11.539-15.766 11.539-15.766z"></path>
<path fill="#ff8c00" d="M6.765 14.071c4.759-7.084 11.405-9.962 13.906-10.742-0.78 2.498-3.662 9.148-10.746 13.906l-3.161-3.164z"></path>
<path fill="#0072c6" d="M22 2c0 0-2.413 0.512-5.592 2.212l3.38 3.38c1.7-3.179 2.212-5.592 2.212-5.592z"></path>
<path fill="#ff8c00" d="M2 22c0 0 0.004-5.073 4.233-8.46l4.226 4.226c-3.387 4.23-8.46 4.233-8.46 4.233z"></path>
<path fill="#fcd116" d="M3.431 20.571c0.12-1.199 0.885-4.082 3.394-6.438l3.044 3.044c-2.364 2.519-5.242 3.274-6.438 3.394z"></path>
<path fill="#fff" opacity="0.6" d="M4.928 19.075c0.25-1.175 0.928-2.946 2.325-4.512l2.187 2.184c-1.764 1.584-3.651 2.145-4.512 2.328z"></path>
<path fill="#fff" d="M16.868 9.308c0 1.202-0.974 2.176-2.176 2.176s-2.176-0.974-2.176-2.176c0-1.202 0.974-2.176 2.176-2.176s2.176 0.974 2.176 2.176z"></path>
<path fill="#fcd116" d="M16.321 9.307c0 0.9-0.729 1.629-1.629 1.629s-1.629-0.729-1.629-1.629c0-0.9 0.729-1.629 1.629-1.629s1.629 0.729 1.629 1.629z"></path>
<path fill="#ff8c00" opacity="0.4" d="M16.168 8.617c0.381 0.818 0.028 1.785-0.787 2.166s-1.785 0.028-2.166-0.787l2.953-1.379z"></path>
<path fill="#dd5900" d="M7.581 17.272c-0.49 0.49-1.51 0.667-1.51 0.667s0.215-1.076 0.656-1.52l4.092-4.089 0.85 0.854-4.089 4.089z"></path>
</svg>
