<!-- Generated by IcoMoon.io -->
<svg version="1.1" xmlns="http://www.w3.org/2000/svg" width="32" height="32" viewBox="0 0 32 32">
<title>Recent</title>
<path fill="#000" d="M23.275 16c0 4.018-3.257 7.275-7.275 7.275s-7.275-3.257-7.275-7.275c0-4.018 3.257-7.275 7.275-7.275s7.275 3.257 7.275 7.275z"></path>
<path fill="#fff" d="M22.363 16c0 3.498-2.836 6.334-6.334 6.334s-6.334-2.836-6.334-6.334c0-3.498 2.836-6.334 6.334-6.334s6.334 2.836 6.334 6.334z"></path>
<path fill="#7a7a7a" d="M18.973 12.802l0.765-0.767 0.249 0.249-0.767 0.765-0.246-0.246zM20.32 15.817h1.086v0.352h-1.086v-0.352zM18.921 19.135l0.249-0.249 0.765 0.767-0.246 0.249-0.767-0.767zM15.852 20.267h0.352v1.086h-0.352v-1.086zM12.036 12.247l0.246-0.249 0.767 0.767-0.249 0.249-0.765-0.767zM12.087 19.687l0.767-0.767 0.246 0.246-0.767 0.767-0.246-0.246zM10.583 15.817h1.086v0.352h-1.086v-0.352zM18.644 17.942l-1.84-1.84c-0.078-0.076-0.183-0.123-0.3-0.126h-0c0.033-0.059 0.053-0.13 0.054-0.205v-4.686c-0.002-0.245-0.199-0.442-0.444-0.444h-0.085c-0.246 0-0.445 0.198-0.447 0.444v4.686c0 0.247 0.2 0.446 0.447 0.447h0.049c-0.056 0.073-0.089 0.165-0.089 0.265 0 0.119 0.048 0.228 0.125 0.307l-0-0 1.84 1.843c0.081 0.080 0.192 0.13 0.314 0.13s0.234-0.050 0.314-0.13l0.062-0.062c0.080-0.081 0.13-0.192 0.13-0.314s-0.050-0.234-0.13-0.314l0 0z"></path>
<path fill="#000" d="M17.064 15.988c0 0.569-0.461 1.030-1.030 1.030s-1.030-0.461-1.030-1.030c0-0.569 0.461-1.030 1.030-1.030s1.030 0.461 1.030 1.030z"></path>
</svg>
