<!-- Generated by IcoMoon.io -->
<svg version="1.1" xmlns="http://www.w3.org/2000/svg" width="34" height="32" viewBox="0 0 34 32">
<title>Recovery-Services-Vault</title>
<path fill="#000" d="M24.978 15.076c-0.028-1.306-1.025-2.376-2.313-2.549l-0.014-0.002c-0.080-1.763-1.559-3.163-3.371-3.163-0.034 0-0.068 0.001-0.101 0.001l0.005-0c-0.016-0-0.036-0-0.055-0-1.49 0-2.761 0.921-3.253 2.213l-0.008 0.024c-1.56 0.189-2.762 1.458-2.809 3.011l-0 0.005c0.047 1.719 1.481 3.095 3.243 3.095 0.040 0 0.080-0.001 0.12-0.002l-0.006 0h5.872c1.479-0.013 2.675-1.184 2.691-2.631v-0.001z"></path>
<path fill="#fff" d="M21.846 12.797l-1.586-1.512c-0.174-0.171-0.322-0.11-0.322 0.154v0.678c0 0 0 0 0 0 0 0.103-0.085 0.187-0.191 0.187-0.003 0-0.006-0-0.009-0l0 0c-1.023 0-3.876 0.265-3.981 4.087 0 0.108 0.089 0.195 0.2 0.195l1.015 0c0 0 0 0 0.001 0 0.11 0 0.2-0.087 0.2-0.195 0-0.006-0-0.012-0.001-0.018l0 0.001c-0.035-0.149-0.054-0.321-0.054-0.497 0-1.295 1.072-2.345 2.394-2.345 0.092 0 0.183 0.005 0.273 0.015l-0.011-0.001c0.11 0 0.2 0.088 0.2 0.195v0l0.002 0.628c0 0.314 0.105 0.366 0.319 0.154l1.553-1.402c0.053-0.036 0.087-0.095 0.087-0.161s-0.034-0.126-0.086-0.161l-0.001-0z"></path>
<path fill="#000" d="M21.611 19.969c-0.041-1.329-1.058-2.413-2.371-2.59l-0.014-0.002c-0.080-1.815-1.601-3.257-3.467-3.257-0.038 0-0.076 0.001-0.114 0.002l0.005-0c-0.018-0-0.040-0.001-0.062-0.001-1.522 0-2.821 0.937-3.328 2.254l-0.008 0.024c-1.602 0.193-2.838 1.494-2.889 3.088l-0 0.005c0.070 1.748 1.533 3.14 3.328 3.14 0.050 0 0.099-0.001 0.149-0.003l-0.007 0h5.88c0.022 0.004 0.048 0.007 0.074 0.007s0.052-0.002 0.077-0.007l-0.003 0c1.499-0.019 2.711-1.195 2.748-2.657l0-0.003z"></path>
</svg>
