<!-- Generated by IcoMoon.io -->
<svg version="1.1" xmlns="http://www.w3.org/2000/svg" width="30" height="32" viewBox="0 0 30 32">
<title>Regulatory-Compliance</title>
<path fill="#64707d" d="M14.771 14.305l1.331-1.925 7.268 5.075c0.298 0.21 0.49 0.554 0.49 0.943 0 0.244-0.076 0.471-0.206 0.657l0.002-0.004-0.029 0.038c-0.209 0.301-0.552 0.495-0.939 0.495-0.243 0-0.469-0.076-0.654-0.207l0.004 0.002-7.268-5.075z"></path>
<path fill="#5168b1" d="M9.44 12.502l3.15-4.555 4.201 2.933-3.151 4.555-4.201-2.933z"></path>
<path fill="#7bc2e7" d="M7.937 13.668l0.788-1.14 5.082 3.546-0.788 1.14c-0.17 0.245-0.448 0.403-0.764 0.403-0.198 0-0.381-0.062-0.532-0.168l0.003 0.002-3.556-2.483c-0.243-0.171-0.399-0.45-0.399-0.767 0-0.199 0.062-0.384 0.168-0.536l-0.002 0.003zM18.219 9.694l-0.788 1.14-5.078-3.55 0.785-1.136c0.17-0.245 0.448-0.403 0.764-0.403 0.198 0 0.381 0.062 0.532 0.168l-0.003-0.002 3.556 2.483c0.421 0.294 0.527 0.875 0.233 1.299v0z"></path>
<path fill="#909ca8" d="M7.252 20.768h7.485c0.832 0 1.506 0.677 1.507 1.513v0.67h-10.498v-0.67c0.001-0.836 0.675-1.513 1.507-1.513h0z"></path>
<path fill="#565656" d="M12.121 7.621l0.23-0.335 5.094 3.537-0.233 0.338-5.091-3.54zM8.737 12.518l0.233-0.338 5.085 3.553-0.233 0.335-5.085-3.55z"></path>
<path fill="#909ca8" d="M18.898 14.331l-2.796-1.95-1.331 1.925 2.767 1.931 1.36-1.906z"></path>
</svg>
