<!-- Generated by IcoMoon.io -->
<svg version="1.1" xmlns="http://www.w3.org/2000/svg" width="34" height="32" viewBox="0 0 34 32">
<title>Relay</title>
<path fill="#949494" d="M19.715 17.76l-2.67-4.326-0.242 0.153-0.231-0.153-2.68 4.326 0.546 0.336 2.366-3.831 2.374 3.839 0.538-0.344z"></path>
<path fill="#86d633" d="M18.139 13.614c0 0.77-0.618 1.394-1.38 1.394s-1.38-0.624-1.38-1.394c0-0.77 0.618-1.394 1.38-1.394s1.38 0.624 1.38 1.394z"></path>
<path fill="#000" d="M15.478 17.915c0 0.77-0.618 1.394-1.38 1.394s-1.38-0.624-1.38-1.394c0-0.77 0.618-1.394 1.38-1.394s1.38 0.624 1.38 1.394z"></path>
<path fill="#000" d="M20.809 17.915c0 0.77-0.618 1.394-1.38 1.394s-1.38-0.624-1.38-1.394c0-0.77 0.618-1.394 1.38-1.394s1.38 0.624 1.38 1.394z"></path>
<path fill="#999" d="M9.653 19.336h1.156v3.261c0 0.145-0.116 0.263-0.26 0.263v0l-1.146-0.002c-0.144 0-0.26-0.118-0.26-0.263v0l-0.001-2.716c-0-0.008-0.001-0.017-0.001-0.027 0-0.285 0.229-0.516 0.511-0.516 0 0 0.001 0 0.001 0h-0z"></path>
<path fill="#999" opacity="0.5" d="M9.653 19.336h1.156v3.261c0 0.145-0.116 0.263-0.26 0.263v0l-1.146-0.002c-0.144 0-0.26-0.118-0.26-0.263v0l-0.001-2.716c-0-0.008-0.001-0.017-0.001-0.027 0-0.285 0.229-0.516 0.511-0.516 0 0 0.001 0 0.001 0h-0z"></path>
<path fill="#999" d="M22.708 9.14h1.148c0 0 0 0 0 0 0.282 0 0.511 0.231 0.511 0.516 0 0 0 0 0 0v0 2.718c0 0.145-0.116 0.263-0.26 0.263v0l-1.146-0.002c-0.144 0-0.26-0.118-0.26-0.263v0l-0.001-3.232h0.008z"></path>
<path fill="#999" opacity="0.5" d="M22.708 9.14h1.148c0 0 0 0 0 0 0.282 0 0.511 0.231 0.511 0.516 0 0 0 0 0 0v0 2.718c0 0.145-0.116 0.263-0.26 0.263v0l-1.146-0.002c-0.144 0-0.26-0.118-0.26-0.263v0l-0.001-3.232h0.008z"></path>
<path fill="#949494" d="M24.376 9.657v1.14h-15.233v-1.14c0-0 0-0 0-0 0-0.285 0.229-0.516 0.511-0.516 0 0 0 0 0 0h14.212c0 0 0 0 0 0 0.282 0 0.511 0.231 0.511 0.516 0 0 0 0 0 0v0z"></path>
<path fill="#999" d="M9.403 19.336h1.156c0.144 0 0.26 0.118 0.26 0.263v0l-0.002 3.259h-1.164c-0 0-0 0-0 0-0.282 0-0.511-0.231-0.511-0.516 0-0 0-0 0-0v0-2.715c-0.001-0.008-0.001-0.018-0.001-0.027 0-0.145 0.116-0.263 0.26-0.263 0.001 0 0.001 0 0.001 0h-0z"></path>
<path fill="#999" opacity="0.5" d="M9.403 19.336h1.156c0.144 0 0.26 0.118 0.26 0.263v0l-0.002 3.259h-1.164c-0 0-0 0-0 0-0.282 0-0.511-0.231-0.511-0.516 0-0 0-0 0-0v0-2.715c-0.001-0.008-0.001-0.018-0.001-0.027 0-0.145 0.116-0.263 0.26-0.263 0.001 0 0.001 0 0.001 0h-0z"></path>
<path fill="#999" d="M22.959 19.327h1.167c0.144 0 0.26 0.118 0.26 0.263v0l-0.002 2.716c0 0 0 0 0 0 0 0.285-0.229 0.516-0.511 0.516-0 0-0 0-0 0h-1.164v-3.259c0.014-0.13 0.12-0.231 0.25-0.235h0z"></path>
<path fill="#999" opacity="0.5" d="M22.959 19.327h1.167c0.144 0 0.26 0.118 0.26 0.263v0l-0.002 2.716c0 0 0 0 0 0 0 0.285-0.229 0.516-0.511 0.516-0 0-0 0-0 0h-1.164v-3.259c0.014-0.13 0.12-0.231 0.25-0.235h0z"></path>
<path fill="#949494" d="M9.142 22.342v-1.14h15.233v1.14c0 0 0 0 0 0 0 0.285-0.229 0.516-0.511 0.516-0 0-0 0-0 0h-14.212c-0 0-0 0-0 0-0.282 0-0.511-0.231-0.511-0.516 0-0 0-0 0-0v0z"></path>
</svg>
