<!-- Generated by IcoMoon.io -->
<svg version="1.1" xmlns="http://www.w3.org/2000/svg" width="32" height="32" viewBox="0 0 32 32">
<title>Remote-Rendering-Account</title>
<path fill="#000" d="M20.153 21.613c-0.044-1.378-1.091-2.502-2.441-2.685l-0.015-0.002c-0.085-1.879-1.648-3.371-3.564-3.371-0.039 0-0.078 0.001-0.117 0.002l0.006-0c-0.020-0-0.044-0.001-0.068-0.001-1.563 0-2.897 0.967-3.421 2.329l-0.008 0.025c-1.647 0.203-2.916 1.553-2.969 3.206l-0 0.005c0.073 1.813 1.579 3.256 3.426 3.256 0.043 0 0.086-0.001 0.129-0.002l-0.006 0c0.104 0 0.209-0.004 0.313-0.013h5.744c0.054-0.001 0.106-0.009 0.155-0.023l-0.004 0.001c1.536-0.012 2.783-1.217 2.84-2.721l0-0.005z"></path>
<path fill="#000" d="M13.408 20.374l1.633-3.171c0.036-0.067 0.105-0.111 0.185-0.111s0.15 0.045 0.185 0.11l0.001 0.001 1.625 3.029c0.104 0.164 0.166 0.364 0.166 0.578 0 0.019-0 0.037-0.001 0.056l0-0.003c0 0.664-0.887 1.202-1.98 1.202-1.091 0-1.978-0.538-1.978-1.202 0.001-0.184 0.062-0.354 0.166-0.491l-0.002 0.002z"></path>
<path fill="#fff" d="M13.408 20.399c-0.133 0.267-0.167 0.313-0.167 0.484 0.001 0.037 0.004 0.072 0.009 0.107l-0.001-0.005v0.040h0.009c0.1 0.513 0.733 0.929 1.553 1.033v-0.102c-0.78-0.104-1.38-0.491-1.456-0.971 0.033-0.482 0.624-1 1.456-1.116v-0.062l-0.016 0.009-0.071-0.038c-0.475 0.072-0.888 0.294-1.197 0.615l-0.001 0.001 0.011-0.022 0.507-0.98-0.091-0.053-0.547 1.064v-0.004z"></path>
<path fill="#9cebff" opacity="0.8" d="M14.809 19.77v2.458l-2.149 1.233v-2.46l2.149-1.231z"></path>
<path fill="#9cebff" opacity="0.85" d="M14.81 19.765l-2.151 1.233-2.149-1.233 2.149-1.236 2.151 1.236z"></path>
<path fill="#9cebff" d="M12.659 21v2.458l-2.149-1.233v-2.458l2.149 1.233z"></path>
<path fill="#fff" d="M12.66 23.521l-2.2-1.262v-2.518l2.2-1.262 2.2 1.262v2.516l-2.2 1.264zM10.562 22.199l2.098 1.204 2.098-1.204v-2.398l-2.098-1.207-2.098 1.204v2.4z"></path>
<path fill="#fff" d="M17.199 20.857c0.001-0.016 0.001-0.035 0.001-0.053 0-0.214-0.062-0.413-0.169-0.582l0.003 0.005-1.627-3.029c-0.036-0.067-0.105-0.111-0.185-0.111s-0.15 0.045-0.185 0.11l-0.001 0.001-1.083 2.111 0.091 0.053 1.087-2.113c0.017-0.034 0.051-0.057 0.091-0.057 0.001 0 0.001 0 0.002 0h-0c0 0 0.001 0 0.001 0 0.039 0 0.073 0.022 0.091 0.054l0 0.001 1.626 3.029v0.009c0.062 0.093 0.106 0.203 0.126 0.322l0.001 0.005c-0.431-0.548-1.099-0.896-1.849-0.896-0.024 0-0.047 0-0.070 0.001l0.003-0c-0.153 0-0.302 0.014-0.446 0.040l0.015-0.002 0.071 0.038 0.016-0.009v0.060c0.104-0.015 0.224-0.024 0.346-0.024h0c1.047 0 1.891 0.618 1.929 1.144-0.089 0.56-0.891 0.996-1.867 0.996-0.145-0.001-0.287-0.011-0.425-0.031l0.016 0.002v0.104c0.123 0.017 0.264 0.026 0.409 0.027h0c1.016 0 1.851-0.462 1.964-1.060h0.011c0-0.013 0-0.024-0.004-0.036 0.005-0.032 0.008-0.069 0.009-0.106v-0z"></path>
</svg>
