<!-- Generated by IcoMoon.io -->
<svg version="1.1" xmlns="http://www.w3.org/2000/svg" width="29" height="32" viewBox="0 0 29 32">
<title>Reserved-IP-Address-Classic</title>
<path fill="#59b4d9" d="M4.412 20.966c0 0.451 0.368 0.818 0.818 0.818h18.802c0.447 0 0.815-0.368 0.815-0.818v-12.76h-20.434v12.76z"></path>
<path fill="#0072c6" d="M24.032 4.411h-18.802c-0.451 0-0.818 0.368-0.818 0.815v4.326h20.434v-4.326c0-0.447-0.368-0.815-0.815-0.815z"></path>
<path fill="#fff" d="M9.684 6.369h13.774v1.59h-13.774v-1.59z"></path>
<path fill="#59b4d9" d="M9.030 7.143c0 1.103-0.898 2.001-2.001 2.001-1.107 0-2.004-0.898-2.004-2.001 0-1.099 0.898-1.997 2.004-1.997 1.103 0 2.001 0.898 2.001 1.997z"></path>
<path fill="#fff" d="M6.822 7.348l0.901 0.98h-0.49l-1.186-1.143 1.186-1.182h0.49l-0.901 0.977h2.21v0.368h-2.21z"></path>
<path fill="#0072c6" d="M11.525 17.502c0 0.241-0.083 0.407-0.245 0.57-0.166 0.162-0.371 0.205-0.656 0.205-0.245 0-0.451-0.083-0.613-0.245-0.162-0.166-0.245-0.328-0.245-0.573s0.083-0.407 0.245-0.57c0.162-0.162 0.368-0.205 0.652-0.205 0.245 0 0.451 0.083 0.616 0.245 0.162 0.162 0.245 0.328 0.245 0.573zM15.162 17.502c0 0.241-0.083 0.407-0.245 0.57-0.166 0.162-0.368 0.205-0.656 0.205-0.245 0-0.447-0.083-0.613-0.245-0.162-0.166-0.245-0.328-0.245-0.573s0.083-0.407 0.245-0.57c0.166-0.162 0.368-0.205 0.656-0.205 0.245 0 0.447 0.083 0.613 0.245 0.162 0.162 0.245 0.328 0.245 0.573zM18.799 17.502c0 0.241-0.083 0.407-0.245 0.57-0.166 0.162-0.368 0.205-0.656 0.205-0.245 0-0.447-0.083-0.613-0.245-0.162-0.166-0.245-0.328-0.245-0.573s0.083-0.407 0.245-0.57c0.166-0.162 0.368-0.205 0.656-0.205 0.245 0 0.447 0.083 0.613 0.245 0.162 0.162 0.245 0.328 0.245 0.573z"></path>
</svg>
