<!-- Generated by IcoMoon.io -->
<svg version="1.1" xmlns="http://www.w3.org/2000/svg" width="32" height="32" viewBox="0 0 32 32">
<title>Reservation</title>
<path fill="#b0b0b0" d="M23.275 16c0 4.018-3.257 7.275-7.275 7.275s-7.275-3.257-7.275-7.275c0-4.018 3.257-7.275 7.275-7.275s7.275 3.257 7.275 7.275z"></path>
<path fill="#fff" d="M22.162 15.974c0 3.413-2.766 6.179-6.179 6.179s-6.179-2.766-6.179-6.179c0-3.413 2.766-6.179 6.179-6.179s6.179 2.766 6.179 6.179z"></path>
<path fill="#7a7a7a" d="M18.908 12.79l0.769-0.769 0.248 0.248-0.769 0.769-0.248-0.248z"></path>
<path fill="#7a7a7a" d="M20.262 15.82h1.087v0.351h-1.087v-0.351z"></path>
<path fill="#7a7a7a" d="M18.853 19.142l0.248-0.248 0.769 0.769-0.248 0.248-0.769-0.769z"></path>
<path fill="#7a7a7a" d="M15.786 20.288h0.351v1.087h-0.351v-1.087z"></path>
<path fill="#7a7a7a" d="M11.953 12.235l0.248-0.248 0.769 0.769-0.248 0.248-0.769-0.769z"></path>
<path fill="#7a7a7a" d="M12.001 19.698l0.769-0.769 0.248 0.248-0.769 0.769-0.248-0.248z"></path>
<path fill="#7a7a7a" d="M10.497 15.82h1.087v0.351h-1.087v-0.351z"></path>
<path fill="#000" d="M16.008 8.726c-0.288 0.001-0.521 0.234-0.521 0.522 0 0.003 0 0.006 0 0.010v-0c0 0.294 0.236 0.533 0.528 0.539h0.001c3.428 0.005 6.205 2.785 6.205 6.213 0 3.432-2.782 6.213-6.213 6.213s-6.213-2.782-6.213-6.213c0-1.622 0.622-3.099 1.64-4.206l-0.004 0.004 0.436 0.631 1.216-2.705-2.928 0.344 0.642 0.855c-1.268 1.307-2.050 3.091-2.050 5.059 0 4.013 3.253 7.266 7.266 7.266s7.266-3.253 7.266-7.266c0-4.013-3.253-7.266-7.266-7.266-0.001 0-0.002 0-0.004 0h0z"></path>
<path fill="#7a7a7a" d="M15.538 15.786c0.001 0.245 0.199 0.443 0.444 0.444h0.087c0.245-0.001 0.443-0.199 0.444-0.444v-4.681c0-0 0-0.001 0-0.002 0-0.245-0.199-0.444-0.444-0.445h-0.087c-0.245 0.001-0.444 0.2-0.444 0.445 0 0.001 0 0.001 0 0.002v-0 4.681z"></path>
<path fill="#7a7a7a" d="M16.754 16.12c-0.174-0.173-0.454-0.173-0.628-0l-0.062 0.062c-0.173 0.174-0.173 0.454-0 0.628l1.84 1.84c0.174 0.173 0.454 0.173 0.628 0l0.062-0.062c0.173-0.174 0.173-0.454 0-0.628l-1.84-1.84z"></path>
<path fill="#000" d="M17.010 16c0 0.567-0.46 1.027-1.027 1.027s-1.027-0.46-1.027-1.027c0-0.567 0.46-1.027 1.027-1.027s1.027 0.46 1.027 1.027z"></path>
</svg>
