<!-- Generated by IcoMoon.io -->
<svg version="1.1" xmlns="http://www.w3.org/2000/svg" width="33" height="32" viewBox="0 0 33 32">
<title>Resource-Group</title>
<path fill="#949494" d="M8.925 21.362c0 0 0 0.001 0 0.001 0 0.052 0.028 0.097 0.069 0.122l0.001 0 1.017 0.572 1.714 0.997c0.021 0.012 0.047 0.020 0.074 0.020 0.054 0 0.101-0.029 0.127-0.072l0-0.001 0.578-0.987c0.010-0.019 0.015-0.041 0.015-0.064 0-0.051-0.027-0.096-0.067-0.121l-2.014-1.149c-0.041-0.026-0.069-0.072-0.070-0.123v-0l-0.001-9.101c0-0 0-0.001 0-0.001 0-0.052 0.028-0.097 0.069-0.122l0.001-0 2.014-1.147c0.041-0.025 0.068-0.070 0.068-0.121 0-0.023-0.006-0.046-0.016-0.065l0 0.001-0.578-0.988c-0.024-0.051-0.075-0.086-0.135-0.086-0.024 0-0.047 0.006-0.067 0.016l0.001-0-1.681 0.979-1.050 0.591c-0.042 0.025-0.070 0.070-0.070 0.122 0 0 0 0.001 0 0.001v-0l-0.001 10.726z"></path>
<path fill="#a3a3a3" d="M10.361 11.387l0.053-0.053 2.013-1.147c0.044-0.019 0.075-0.063 0.075-0.114 0-0.027-0.008-0.052-0.023-0.072l0 0-0.578-0.988c-0.018-0.053-0.067-0.090-0.124-0.090-0.025 0-0.049 0.007-0.069 0.020l0.001-0-1.69 0.979-1.042 0.591c0 0-0.045 0-0.053 0.055l1.436 0.819zM12.427 21.811l-2.013-1.144c-0.027-0.020-0.048-0.047-0.061-0.078l-0-0.001-1.419 0.88h0.045l1.008 0.575 1.748 0.979c0.021 0.014 0.046 0.023 0.074 0.023 0.052 0 0.097-0.031 0.118-0.075l0-0.001 0.579-0.989c0.006-0.014 0.010-0.031 0.010-0.049 0-0.056-0.037-0.103-0.088-0.118l-0.001-0z"></path>
<path fill="#949494" d="M23.807 21.362c0 0 0 0.001 0 0.001 0 0.052-0.028 0.097-0.069 0.122l-0.001 0-1.017 0.572-1.714 0.997c-0.021 0.012-0.047 0.020-0.074 0.020-0.054 0-0.101-0.029-0.127-0.072l-0-0.001-0.578-0.987c-0.010-0.019-0.015-0.041-0.015-0.064 0-0.051 0.027-0.096 0.067-0.121l2.014-1.149c0.041-0.026 0.069-0.072 0.070-0.123v-0l0.001-9.101c0-0 0-0.001 0-0.001 0-0.052-0.028-0.097-0.069-0.122l-0.001-0-2.014-1.147c-0.041-0.025-0.068-0.070-0.068-0.121 0-0.023 0.006-0.046 0.016-0.065l-0 0.001 0.578-0.988c0.024-0.051 0.076-0.086 0.135-0.086 0.024 0 0.047 0.006 0.067 0.016l-0.001-0 1.681 0.96 1.050 0.593c0.042 0.025 0.070 0.070 0.070 0.122 0 0 0 0.001 0 0.001v-0l0.001 10.741z"></path>
<path fill="#a3a3a3" d="M22.371 11.387l-0.052-0.053-2.013-1.147c-0.044-0.019-0.075-0.063-0.075-0.114 0-0.027 0.008-0.052 0.023-0.072l-0 0 0.578-0.988c0.018-0.053 0.067-0.090 0.124-0.090 0.025 0 0.049 0.007 0.069 0.020l-0.001-0 1.689 0.963 1.042 0.591 0.052 0.053-0.788 0.449-0.648 0.389zM20.305 21.811l2.013-1.144c0.027-0.020 0.048-0.047 0.061-0.078l0-0.001 1.417 0.88-1.005 0.575-1.751 0.979c-0.021 0.014-0.046 0.023-0.074 0.023-0.052 0-0.097-0.031-0.118-0.075l-0-0.001-0.579-0.989c-0.012-0.019-0.019-0.041-0.019-0.065 0-0.042 0.021-0.080 0.053-0.102l0-0z"></path>
<path fill="#32bedd" d="M21.014 13.293v5.413l-4.657 2.727v-5.426l4.657-2.714z"></path>
<path fill="#9cebff" d="M21.014 13.291l-4.649 2.727-4.657-2.727 4.657-2.725 4.649 2.725z"></path>
<path fill="#50e6ff" d="M16.357 16.018v5.415l-4.649-2.727v-5.413l4.649 2.725z"></path>
<path fill="#9cebff" d="M11.709 18.706l4.649-2.698v5.426l-4.649-2.727z"></path>
<path fill="#50e6ff" d="M21.014 18.706l-4.657-2.698v5.426l4.657-2.727z"></path>
</svg>
