<!-- Generated by IcoMoon.io -->
<svg version="1.1" xmlns="http://www.w3.org/2000/svg" width="27" height="32" viewBox="0 0 27 32">
<title>Resource-Graph-Explorer</title>
<path fill="#a0a1a2" d="M6.071 7.992l1.184-0.987 8.408 10.533-1.184 0.987-8.408-10.533z"></path>
<path fill="#a0a1a2" d="M6.663 6.718h12.611v1.561h-12.611v-1.561z"></path>
<path fill="#804998" d="M9.3 7.499c0 1.487-1.181 2.692-2.637 2.692s-2.637-1.205-2.637-2.692c0-1.487 1.181-2.692 2.637-2.692s2.637 1.205 2.637 2.692z"></path>
<path fill="#fff" opacity="0.2" d="M9.3 7.499c0 1.487-1.181 2.692-2.637 2.692s-2.637-1.205-2.637-2.692c0-1.487 1.181-2.692 2.637-2.692s2.637 1.205 2.637 2.692z"></path>
<path fill="#804998" d="M22.675 7.499c0 1.918-1.523 3.472-3.401 3.472s-3.401-1.555-3.401-3.472c0-1.918 1.523-3.472 3.401-3.472s3.401 1.555 3.401 3.472z"></path>
<path fill="#fff" opacity="0.098" d="M22.675 7.499c0 1.918-1.523 3.472-3.401 3.472s-3.401-1.555-3.401-3.472c0-1.918 1.523-3.472 3.401-3.472s3.401 1.555 3.401 3.472z"></path>
<path fill="#804998" d="M13.122 18.033c0 2.564-2.036 4.643-4.548 4.643s-4.548-2.079-4.548-4.643c0-2.564 2.036-4.643 4.548-4.643s4.548 2.079 4.548 4.643z"></path>
</svg>
