<!-- Generated by IcoMoon.io -->
<svg version="1.1" xmlns="http://www.w3.org/2000/svg" width="32" height="32" viewBox="0 0 32 32">
<title>Resource-Graph-Query</title>
<path fill="#552f99" d="M8.725 18.259c0.001 0.275 0.222 0.498 0.494 0.498 0 0 0.001 0 0.001 0h8.949c0 0 0.001 0 0.001 0 0.273 0 0.494-0.223 0.494-0.498v-9.033c0-0 0-0.001 0-0.001 0-0.276-0.221-0.499-0.494-0.499-0 0-0.001 0-0.001 0h-8.949c-0 0-0.001 0-0.001 0-0.273 0-0.494 0.223-0.494 0.499 0 0 0 0.001 0 0.001v-0 9.033z"></path>
<path fill="#fff" d="M9.622 10.357h8.156c0.082 0 0.159 0 0.159 0.051v1.363c0 0-0.077 0.041-0.159 0.041h-8.156c-0.092-0.041-0.159-0.041-0.159-0.041v-1.363c0 0 0.067-0.051 0.159-0.051z"></path>
<path fill="#b796f9" d="M9.622 13.021h8.315v1.388h-8.474v-1.345c0 0 0.067-0.044 0.159-0.044zM9.622 15.688h8.315v1.345c0 0-0.077 0.041-0.159 0.041h-8.156c-0.092 0-0.159 0-0.159-0.041v-1.304c0 0 0.067-0.041 0.159-0.041z"></path>
<path fill="#b796f9" d="M20.592 21.92l-4.409-4.473c-0.063-0.063-0.102-0.15-0.102-0.246 0-0.192 0.154-0.347 0.344-0.347 0.003 0 0.007 0 0.010 0h5.607v0.703h-4.776l3.821 3.906-0.495 0.457z"></path>
<path fill="#9a5fe3" d="M17.525 17.235c0 0.537-0.431 0.973-0.964 0.973s-0.964-0.436-0.964-0.973c0-0.537 0.431-0.973 0.964-0.973s0.964 0.436 0.964 0.973z"></path>
<path fill="#9a5fe3" d="M23.275 17.1c0 0.687-0.552 1.243-1.232 1.243s-1.232-0.557-1.232-1.243c0-0.687 0.552-1.243 1.232-1.243s1.232 0.557 1.232 1.243z"></path>
<path fill="#9a5fe3" d="M22.319 21.701c0 0.869-0.702 1.573-1.567 1.573s-1.567-0.704-1.567-1.573c0-0.869 0.702-1.573 1.567-1.573s1.567 0.704 1.567 1.573z"></path>
</svg>
