<!-- Generated by IcoMoon.io -->
<svg version="1.1" xmlns="http://www.w3.org/2000/svg" width="28" height="32" viewBox="0 0 28 32">
<title>Resource-Explorer</title>
<path fill="#fee087" d="M23.313 8.103v-1.537h-10.364l-2.351-2.291h-6.322v16.882c0 0.506 0.419 0.915 0.94 0.915h17.923c0 0 0 0 0 0 0.519 0 0.939-0.41 0.939-0.915v-13.054h-0.765z"></path>
<path fill="#dd5900" d="M14.645 14.296c-0.023-0.001-0.044-0.007-0.062-0.017l0.001 0-4.032-2.267c-0.036-0.021-0.060-0.059-0.060-0.103s0.024-0.082 0.060-0.103l0.001-0 4.007-2.253c0.017-0.010 0.038-0.015 0.061-0.015s0.043 0.006 0.061 0.016l-0.001-0 4.032 2.267c0.036 0.021 0.060 0.059 0.060 0.102 0 0 0 0 0 0v-0c0 0 0 0.001 0 0.001 0 0.043-0.024 0.081-0.060 0.102l-0.001 0-4.007 2.254c-0.018 0.011-0.039 0.017-0.061 0.017h-0z"></path>
<path fill="#ff8c00" d="M14.063 19.809c-0.001 0-0.001 0-0.002 0-0.022 0-0.042-0.006-0.060-0.016l0.001 0-4.015-2.262c-0.037-0.020-0.062-0.058-0.062-0.102 0-0 0-0.001 0-0.001v0l-0.001-4.536c0-0.044 0.025-0.083 0.061-0.104l0.001-0c0.018-0.010 0.039-0.015 0.061-0.015s0.044 0.006 0.062 0.016l-0.001-0 4.018 2.259c0.036 0.022 0.059 0.060 0.059 0.103v0l-0 4.539c0 0.042-0.024 0.080-0.059 0.101-0.018 0.010-0.039 0.016-0.061 0.016h-0z"></path>
<path fill="#ff8c00" opacity="0.5" d="M15.201 19.809c-0 0-0 0-0.001 0-0.023 0-0.044-0.006-0.062-0.016l0.001 0c-0.036-0.021-0.060-0.059-0.060-0.103 0-0 0-0 0-0v0l0-4.509c0-0.042 0.024-0.080 0.059-0.101l4.017-2.264c0.017-0.010 0.038-0.015 0.060-0.015 0.067 0 0.122 0.053 0.123 0.118v0l-0.001 4.512c0 0 0 0 0 0 0 0.044-0.025 0.082-0.061 0.103l-0.001 0-4.015 2.258c-0.016 0.010-0.036 0.016-0.057 0.016-0.001 0-0.002 0-0.002-0h0z"></path>
<path fill="#1e1e1e" opacity="0.2" d="M6.155 8.105v13.050c0 0.506-0.421 0.916-0.94 0.916s-0.94-0.41-0.94-0.916v0-16.878h6.322l2.351 2.291h10.364v1.537h-17.158z"></path>
</svg>
