<!-- Generated by IcoMoon.io -->
<svg version="1.1" xmlns="http://www.w3.org/2000/svg" width="24" height="32" viewBox="0 0 24 32">
<title>REST</title>
<path fill="#004b1c" d="M17 7c2.761 2.761 2.761 7.239 0 10s-7.239 2.761-10 0c-2.761-2.761-2.761-7.239 0-10s7.239-2.761 10 0z"></path>
<path fill="#006020" d="M17 6.999c1.28 1.28 2.072 3.048 2.072 5.001s-0.792 3.721-2.072 5.001v0l-10.001-10.001c1.28-1.28 3.048-2.072 5.001-2.072s3.721 0.792 5.001 2.072v0z"></path>
<path fill="#fff" d="M8.868 13.823l-0.624-1.189c-0.059-0.113-0.119-0.209-0.185-0.3l0.005 0.007c-0.052-0.073-0.111-0.136-0.178-0.189l-0.002-0.001c-0.056-0.044-0.122-0.079-0.193-0.101l-0.004-0.001c-0.065-0.018-0.14-0.028-0.218-0.028-0.004 0-0.008 0-0.012 0h-0.476v1.803h-0.374v-4.152h1.196c0.004-0 0.009-0 0.013-0 0.158 0 0.31 0.025 0.452 0.070l-0.011-0.003c0.15 0.048 0.281 0.119 0.394 0.21l-0.002-0.002c0.113 0.092 0.205 0.206 0.269 0.336l0.003 0.006c0.065 0.133 0.103 0.289 0.103 0.453 0 0.008-0 0.016-0 0.024l0-0.001c0 0.006 0 0.014 0 0.021 0 0.138-0.023 0.27-0.066 0.393l0.003-0.008c-0.046 0.126-0.11 0.235-0.192 0.329l0.001-0.001c-0.084 0.097-0.183 0.178-0.294 0.241l-0.006 0.003c-0.114 0.065-0.246 0.116-0.386 0.146l-0.009 0.002v0.011c0.059 0.025 0.111 0.056 0.156 0.093l-0.001-0.001c0.050 0.040 0.094 0.082 0.133 0.129l0.001 0.001c0.043 0.053 0.085 0.111 0.123 0.173l0.004 0.007c0.042 0.067 0.088 0.145 0.134 0.229l0.695 1.291h-0.452zM6.981 10.024v1.644h0.684c0.003 0 0.006 0 0.009 0 0.134 0 0.264-0.023 0.383-0.066l-0.008 0.002c0.115-0.039 0.213-0.098 0.297-0.174l-0.001 0.001c0.080-0.075 0.145-0.165 0.189-0.267l0.002-0.005c0.042-0.102 0.067-0.22 0.067-0.343 0-0.005-0-0.009-0-0.014v0.001c0.001-0.014 0.001-0.030 0.001-0.046 0-0.207-0.087-0.394-0.227-0.525l-0-0c-0.166-0.132-0.378-0.211-0.609-0.211-0.027 0-0.053 0.001-0.079 0.003l0.003-0h-0.713zM9.877 13.823v-4.152h2.025v0.353h-1.64v1.52h1.51v0.346h-1.51v1.58h1.739v0.353h-2.124zM12.551 13.216c0.067 0.050 0.142 0.097 0.221 0.137l0.008 0.004c0.151 0.077 0.326 0.136 0.511 0.168l0.011 0.002c0.076 0.013 0.164 0.021 0.254 0.021h0c0.027 0.002 0.058 0.003 0.089 0.003 0.231 0 0.445-0.068 0.625-0.186l-0.004 0.003c0.139-0.115 0.227-0.289 0.227-0.482 0-0.015-0.001-0.030-0.002-0.046l0 0.002c0-0.006 0-0.013 0-0.021 0-0.097-0.020-0.189-0.055-0.273l0.002 0.005c-0.044-0.089-0.102-0.164-0.172-0.225l-0.001-0.001c-0.086-0.077-0.182-0.147-0.284-0.207l-0.008-0.005c-0.116-0.071-0.258-0.148-0.416-0.229s-0.31-0.173-0.455-0.275c-0.117-0.078-0.219-0.165-0.309-0.263l-0.001-0.001c-0.074-0.081-0.134-0.177-0.174-0.283l-0.002-0.006c-0.036-0.101-0.057-0.218-0.057-0.339 0-0.006 0-0.012 0-0.018v0.001c-0-0.008-0-0.016-0-0.025 0-0.158 0.039-0.308 0.109-0.438l-0.002 0.005c0.073-0.135 0.171-0.248 0.287-0.337l0.002-0.002c0.122-0.093 0.264-0.166 0.417-0.213l0.009-0.002c0.155-0.049 0.333-0.078 0.517-0.078 0.002 0 0.003 0 0.005 0h-0c0.018-0.001 0.040-0.001 0.062-0.001 0.273 0 0.534 0.051 0.775 0.143l-0.015-0.005v0.427c-0.245-0.144-0.539-0.229-0.853-0.229-0 0-0 0-0.001 0h0c-0.001 0-0.003 0-0.005 0-0.123 0-0.241 0.017-0.354 0.048l0.009-0.002c-0.11 0.030-0.207 0.076-0.292 0.136l0.003-0.002c-0.080 0.056-0.145 0.128-0.192 0.212l-0.002 0.003c-0.045 0.083-0.071 0.181-0.071 0.286 0 0.005 0 0.010 0 0.015v-0.001c-0 0.004-0 0.008-0 0.013 0 0.096 0.018 0.187 0.051 0.271l-0.002-0.005c0.036 0.088 0.088 0.163 0.152 0.226l0 0c0.082 0.078 0.173 0.147 0.272 0.204l0.007 0.004c0.113 0.071 0.254 0.145 0.423 0.229 0.181 0.096 0.329 0.186 0.473 0.283l-0.018-0.011c0.123 0.082 0.229 0.172 0.324 0.274l0.001 0.001c0.079 0.086 0.143 0.186 0.188 0.297l0.002 0.007c0.040 0.102 0.064 0.221 0.064 0.345 0 0.005-0 0.010-0 0.016v-0.001c0 0.007 0 0.016 0 0.024 0 0.164-0.037 0.319-0.102 0.459l0.003-0.007c-0.070 0.142-0.171 0.259-0.294 0.347l-0.003 0.002c-0.124 0.090-0.268 0.161-0.425 0.203l-0.009 0.002c-0.161 0.045-0.346 0.071-0.537 0.071-0.006 0-0.012-0-0.018-0h0.001c-0.082-0.002-0.16-0.008-0.236-0.019l0.011 0.001c-0.108-0.012-0.201-0.029-0.293-0.049l0.018 0.003c-0.107-0.023-0.196-0.047-0.283-0.076l0.018 0.005c-0.078-0.025-0.146-0.056-0.209-0.094l0.004 0.002v-0.452zM16.802 10.024v3.799h-0.385v-3.799h-1.199v-0.353h2.783v0.353h-1.199z"></path>
</svg>
