<!-- Generated by IcoMoon.io -->
<svg version="1.1" xmlns="http://www.w3.org/2000/svg" width="24" height="32" viewBox="0 0 24 32">
<title>Review-Access</title>
<path fill="#3999c6" d="M12.342 7.039c0 1.664-1.352 3.013-3.016 3.013-1.668 0-3.016-1.349-3.016-3.013s1.349-3.013 3.016-3.013c1.664 0 3.016 1.349 3.016 3.013zM11.493 10.852l-2.168 3.25-2.171-3.25h-3.128v8.010h10.595v-8.010h-3.128z"></path>
<path fill="#fff" d="M17.32 16.764c0 1.817-1.461 3.289-3.264 3.289s-3.264-1.473-3.264-3.289c0-1.817 1.461-3.289 3.264-3.289s3.264 1.473 3.264 3.289z"></path>
<path fill="#3999c6" opacity="0.4" d="M10.413 16.763c0 0.957 0.368 1.826 0.964 2.48h3.625v-5.832c-0.308-0.142-0.665-0.252-1.040-0.31l-0.023-0.003c-1.954 0.063-3.526 1.681-3.526 3.665z"></path>
<path fill="#7a7a7a" d="M19.231 22.676c0.171 0 0.332-0.066 0.454-0.188 0.125-0.122 0.191-0.286 0.194-0.457 0-0.002 0-0.005 0-0.007 0-0.178-0.072-0.34-0.188-0.457v0l-2.234-2.247-0.911 0.918 2.227 2.243c0.122 0.125 0.283 0.194 0.457 0.194z"></path>
<path fill="#000" opacity="0.4" d="M17.353 21.053c0.39-0.208 0.701-0.522 0.902-0.903l0.006-0.012 0.003-0.007-0.618-0.622-0.911 0.918 0.618 0.625z"></path>
<path fill="#7a7a7a" d="M14.055 12.227c-2.487 0-4.503 2.030-4.503 4.536s2.016 4.54 4.503 4.54c2.487 0 4.503-2.033 4.503-4.54s-2.016-4.536-4.503-4.536zM14.055 20.053c-1.799 0-3.263-1.474-3.263-3.29 0-1.813 1.464-3.29 3.263-3.29s3.263 1.477 3.263 3.29c0 1.816-1.464 3.29-3.263 3.29z"></path>
</svg>
