<!-- Generated by IcoMoon.io -->
<svg version="1.1" xmlns="http://www.w3.org/2000/svg" width="24" height="32" viewBox="0 0 24 32">
<title>Role</title>
<path fill="#000" d="M17.889 22c0.007 0 0.016 0 0.025 0 0.846 0 1.531-0.685 1.531-1.529 0-0.004-0-0.009-0-0.013v0.001c0.003-0.028 0.005-0.061 0.005-0.093s-0.002-0.065-0.005-0.098l0 0.004c-0.614-4.882-3.394-8.862-8.717-8.862s-8.149 3.366-8.728 8.872c-0.005 0.045-0.007 0.098-0.007 0.151 0 0.811 0.613 1.478 1.401 1.567l0.007 0.001h14.489z"></path>
<path fill="#fff" d="M10.824 11.801c-0.005 0-0.010 0-0.016 0-0.984 0-1.899-0.289-2.667-0.788l0.019 0.012 2.568 6.858 2.614-6.812c-0.717 0.447-1.585 0.717-2.515 0.73l-0.004 0z"></path>
<path fill="#000" d="M15.675 6.906c0 2.709-2.199 4.906-4.912 4.906s-4.912-2.196-4.912-4.906c0-2.709 2.199-4.906 4.912-4.906s4.912 2.196 4.912 4.906z"></path>
<path fill="#32bedd" d="M21.999 14.507v4.988l-4.286 2.505v-4.988l4.286-2.505z"></path>
<path fill="#9cebff" d="M22.001 14.508l-4.29 2.505-4.286-2.505 4.286-2.508 4.29 2.508z"></path>
<path fill="#50e6ff" d="M17.711 17.012v4.988l-4.286-2.505v-4.988l4.286 2.505z"></path>
<path fill="#9cebff" d="M13.425 19.496l4.286-2.484v4.988l-4.286-2.505z"></path>
<path fill="#50e6ff" d="M21.999 19.496l-4.286-2.484v4.988l4.286-2.505z"></path>
</svg>
