<!-- Generated by IcoMoon.io -->
<svg version="1.1" xmlns="http://www.w3.org/2000/svg" width="32" height="32" viewBox="0 0 32 32">
<title>Route-Filter</title>
<path fill="#0078d4" d="M20.127 19.443l-1.482 1.433c-0.013 0.018-0.034 0.030-0.058 0.030-0.039 0-0.070-0.030-0.070-0.068 0-0.006 0.001-0.011 0.002-0.017l-0 0 0.001-0.81c-0.004-0.038-0.037-0.068-0.076-0.068-0 0-0 0-0 0l-2.445-0.001 1.524 1.42c0.011 0.010 0.026 0.015 0.042 0.015s0.031-0.006 0.042-0.016l-0 0 0.425-0.42c0.010-0.011 0.025-0.019 0.042-0.019 0.031 0 0.056 0.024 0.056 0.054 0 0.002-0 0.004-0 0.005l0-0v1.482c0 0.045-0.038 0.081-0.084 0.081v0l-1.501 0.001c-0.002 0-0.003 0-0.005 0-0.031 0-0.056-0.024-0.056-0.054 0-0.016 0.007-0.031 0.019-0.041l0-0 0.433-0.414c0.010-0.011 0.016-0.025 0.016-0.041s-0.006-0.030-0.016-0.041l0 0-1.251-1.27v-2.589l1.278-1.231c0.009-0.010 0.015-0.023 0.015-0.037s-0.006-0.027-0.015-0.037l0 0-0.433-0.412c-0.012-0.010-0.019-0.025-0.019-0.041 0-0.030 0.025-0.054 0.056-0.054 0.002 0 0.004 0 0.005 0l-0-0 1.529-0.001c0.047 0.004 0.084 0.041 0.084 0.088 0 0 0 0 0 0v0l0.001 1.441c0 0.002 0 0.003 0 0.005 0 0.030-0.025 0.054-0.056 0.054-0.017 0-0.032-0.007-0.042-0.019l-0-0-0.427-0.414c-0.011-0.010-0.026-0.015-0.042-0.015s-0.031 0.006-0.042 0.016l0-0-1.556 1.427h2.396c0.042 0 0.077-0.033 0.077-0.074v0l-0.001-0.81c-0.001-0.005-0.002-0.011-0.002-0.016 0-0.037 0.031-0.068 0.070-0.068 0.024 0 0.045 0.012 0.058 0.030l0 0 1.51 1.405c0.017 0.012 0.028 0.032 0.028 0.054s-0.011 0.042-0.028 0.054l-0 0z"></path>
<path fill="#000" d="M7.556 22.722c0 0 0 0.001 0 0.001 0 0.216 0.181 0.392 0.404 0.392h7.32c0.223-0 0.404-0.176 0.404-0.392 0-0 0-0.001 0-0.001v0-6.776c-0.001-0.216-0.181-0.391-0.404-0.391h-7.32c-0.223 0-0.404 0.175-0.404 0.391v6.776z"></path>
<path fill="#fff" d="M12.388 20.071c0 0.108 0.091 0.196 0.203 0.196v0l1.502 0.002c0.112 0 0.203-0.088 0.203-0.196v0l-0-1.373c0-0.108-0.091-0.196-0.203-0.196v0l-1.502-0.002c-0.112 0-0.203 0.088-0.203 0.196v0l0 1.373z"></path>
<path fill="#fff" d="M9.141 21.991c0 0.108 0.091 0.196 0.203 0.196v0l1.502 0.002c0.112 0 0.203-0.088 0.203-0.196v0l-0-1.373c0-0.108-0.091-0.196-0.203-0.196v0l-1.502-0.002c-0.112 0-0.203 0.088-0.203 0.196v0l0 1.373z"></path>
</svg>
