<!-- Generated by IcoMoon.io -->
<svg version="1.1" xmlns="http://www.w3.org/2000/svg" width="33" height="32" viewBox="0 0 33 32">
<title>Route-Table</title>
<path fill="#000" d="M22.734 23.072c0.005 0 0.012 0 0.018 0 0.576 0 1.045-0.45 1.064-1.012l0-0.002v-0.173c-0.431-3.34-2.366-6.058-6.061-6.058s-5.701 2.303-6.079 6.058c-0.004 0.034-0.006 0.073-0.006 0.112 0 0.552 0.423 1.006 0.967 1.066l0.005 0 10.092 0.008z"></path>
<path fill="#fff" opacity="0.8" d="M17.754 16.616c-0.003 0-0.007 0-0.010 0-0.682 0-1.317-0.198-1.849-0.538l0.013 0.008 1.83 4.693 1.812-4.666c-0.507 0.316-1.124 0.504-1.786 0.504-0.004 0-0.007 0-0.011-0h0.001z"></path>
<path fill="#000" d="M21.159 13.265c0 1.85-1.524 3.35-3.404 3.35s-3.404-1.5-3.404-3.35c0-1.85 1.524-3.35 3.404-3.35s3.404 1.5 3.404 3.35z"></path>
<path fill="#0078d4" d="M13.734 20.312v-4.225c0-0.003 0-0.006 0-0.009 0-0.076-0.063-0.139-0.141-0.139-0 0-0 0-0 0v0l-1.117 0c-0.003-0-0.006-0-0.009-0-0.083 0-0.15 0.066-0.15 0.147 0 0 0 0 0 0v0l0.001 4.075c-0.005 0.079-0.069 0.143-0.149 0.147l-0 0-0.985 0.003c-0.050-0.009-0.088-0.051-0.088-0.102 0-0 0-0.001 0-0.002v0l-0.001-1.136c0-0.001 0-0.003 0-0.004 0-0.053-0.043-0.095-0.097-0.095-0.028 0-0.053 0.012-0.070 0.030l-0 0-1.952 1.905c-0.029 0.026-0.048 0.063-0.048 0.104s0.018 0.078 0.047 0.104l0 0 1.935 1.896c0.013 0.038 0.050 0.066 0.092 0.066 0.054 0 0.097-0.043 0.097-0.096 0-0.011-0.002-0.021-0.005-0.031l0 0.001-0.001-1.142c0-0 0-0 0-0 0-0.050 0.038-0.090 0.088-0.095l0-0 2.412-0.002c0.079-0.005 0.141-0.069 0.141-0.147 0-0 0-0 0-0v0l-0.002-1.253z"></path>
</svg>
