<!-- Generated by IcoMoon.io -->
<svg version="1.1" xmlns="http://www.w3.org/2000/svg" width="28" height="32" viewBox="0 0 28 32">
<title>Run-Command</title>
<path fill="#7a7a7a" d="M17.109 18.385h-5.386c0.632 2.243-0.238 2.553-4.041 2.553v1.16h12.91v-1.16c-3.762 0-4.118-0.311-3.483-2.553z"></path>
<path fill="#59b4d9" d="M22.852 5.474l0.038 11.985h-17.427v-11.985h17.388z"></path>
<path fill="#a0a1a2" d="M22.89 4.275h-17.546c-0.594 0-1.069 0.503-1.069 1.083v11.946c0 0.58 0.475 1.083 1.069 1.083h17.546c0.594 0 1.188-0.503 1.188-1.083v-11.946c0-0.58-0.594-1.083-1.188-1.083zM22.572 5.745v11.132h-16.791v-11.132l16.791-0.038v0.038z"></path>
<path fill="#fff" opacity="0.2" d="M5.781 16.916v-11.171l15.328-0.038 1.781-1.432h-17.546c-0.594 0-1.069 0.503-1.069 1.083v11.946c0 0.58 0.475 1.083 1.069 1.083h0.437l1.82-1.471h-1.82z"></path>
<path fill="#b8d432" d="M14.376 5.089c0 0.154-0.119 0.269-0.279 0.269-0.157 0-0.276-0.115-0.276-0.269 0-0.157 0.119-0.272 0.276-0.272 0.161 0 0.279 0.115 0.279 0.272z"></path>
<path fill="#fff" d="M17.741 12.821h-0.789v-0.775c0-0.639-0.534-1.16-1.188-1.16h-1.191v-1.16h0.793c0.218-0.001 0.395-0.174 0.395-0.387 0-0 0-0.001 0-0.001v0-2.319c-0.001-0.212-0.177-0.383-0.395-0.384h-2.375c-0.001 0-0.001 0-0.002 0-0.218 0-0.395 0.172-0.396 0.384v2.32c0 0 0 0.001 0 0.001 0 0.214 0.177 0.387 0.396 0.387 0.001 0 0.002 0 0.002 0h0.789v1.16h-1.188c-0.653 0-1.188 0.52-1.188 1.16v0.775h-0.793c-0.217 0.001-0.393 0.172-0.395 0.384v2.32c0 0 0 0.001 0 0.001 0 0.213 0.177 0.386 0.395 0.387h2.379c0.218-0.001 0.395-0.174 0.395-0.387 0-0 0-0.001 0-0.001v0-2.319c-0.001-0.212-0.177-0.383-0.395-0.384h-0.793v-0.775c0-0.213 0.178-0.384 0.395-0.384h3.168c0.22 0 0.398 0.171 0.398 0.384v0.775h-0.793c-0.217 0.001-0.393 0.172-0.395 0.384v2.32c0 0 0 0.001 0 0.001 0 0.213 0.177 0.386 0.395 0.387h2.375c0.001 0 0.001 0 0.002 0 0.219 0 0.396-0.173 0.396-0.387 0-0 0-0.001 0-0.001v0-2.319c-0.001-0.213-0.178-0.384-0.396-0.384-0.001 0-0.002 0-0.002 0h0z"></path>
</svg>
