<!-- Generated by IcoMoon.io -->
<svg version="1.1" xmlns="http://www.w3.org/2000/svg" width="38" height="32" viewBox="0 0 38 32">
<title>SAP-HANA-On-Azure</title>
<path fill="#0072c6" d="M5.682 18.837h13.3l13.017-13.156h-26.317v13.156z"></path>
<path fill="#fff" d="M20.872 8.419h-2.474v5.882l-2.163-5.882h-2.145l-1.848 4.921c-0.195-1.239-1.476-1.671-2.488-1.992-0.668-0.214-1.374-0.529-1.369-0.873 0.009-0.288 0.381-0.552 1.123-0.515 0.667 0.022 1.287 0.201 1.831 0.503l-0.021-0.011 0.859-1.499c-0.819-0.405-1.781-0.648-2.799-0.664l-0.005-0h-0.005c-0.049-0.002-0.106-0.004-0.163-0.004-0.893 0-1.706 0.344-2.314 0.906l0.002-0.002c-0.364 0.372-0.59 0.881-0.594 1.443v0.001c-0.003 0.037-0.004 0.081-0.004 0.125 0 0.666 0.336 1.253 0.847 1.602l0.007 0.004c0.515 0.344 1.086 0.603 1.685 0.766 0.682 0.214 1.244 0.399 1.239 0.794-0.004 0.15-0.065 0.286-0.163 0.385l0-0c-0.188 0.159-0.434 0.255-0.701 0.255-0.034 0-0.068-0.002-0.101-0.005l0.004 0c-0.039 0.002-0.085 0.003-0.131 0.003-0.715 0-1.379-0.22-1.928-0.595l0.012 0.008-0.766 1.518c0.806 0.465 1.773 0.74 2.803 0.743h0.126c0.017 0 0.037 0 0.058 0 0.785 0 1.507-0.268 2.080-0.716l-0.007 0.006c0.033-0.028 0.060-0.056 0.093-0.079l-0.251 0.664h2.247l0.381-1.151c0.385 0.133 0.829 0.209 1.29 0.209 0.010 0 0.020-0 0.030-0h-0.002c0.010 0 0.021 0 0.033 0 0.449 0 0.882-0.071 1.287-0.203l-0.029 0.008 0.367 1.137h3.663v-2.377h0.803c1.931 0 3.073-0.989 3.073-2.637 0-1.838-1.109-2.679-3.472-2.679zM15.153 13.451c-0.009 0-0.019 0-0.029 0-0.274 0-0.537-0.049-0.78-0.14l0.015 0.005 0.785-2.474h0.014l0.771 2.479c-0.229 0.082-0.494 0.13-0.769 0.13-0.002 0-0.004 0-0.006 0h0zM21.016 12.031h-0.543v-1.992h0.543c0.729 0 1.309 0.241 1.309 0.984 0 0.766-0.58 1.007-1.309 1.007v0z"></path>
<path fill="#0072c6" d="M22.77 17.127c0.432 0 0.789 0.353 0.789 0.789 0 0.432-0.357 0.789-0.789 0.789-0.436 0-0.789-0.357-0.789-0.789 0-0.436 0.353-0.789 0.789-0.789zM22.77 16.987c-0.007-0-0.015-0-0.024-0-0.512 0-0.927 0.415-0.927 0.926s0.415 0.926 0.927 0.926c0.008 0 0.017-0 0.025-0l-0.001 0c0.501-0.013 0.903-0.423 0.903-0.926s-0.401-0.913-0.902-0.926l-0.001-0z"></path>
<path fill="#0072c6" d="M22.939 17.971c0 0 0.001 0 0.002 0 0.139 0 0.251-0.112 0.252-0.25v-0l-0.003-0.019c0-0.19-0.111-0.274-0.339-0.274h-0.371v0.97h0.149v-0.418h0.167l0.255 0.418h0.167l-0.279-0.427zM22.628 17.855v-0.302h0.2c0.098 0 0.209 0.023 0.209 0.144 0 0.149-0.111 0.158-0.237 0.158h-0.172z"></path>
</svg>
