<!-- Generated by IcoMoon.io -->
<svg version="1.1" xmlns="http://www.w3.org/2000/svg" width="29" height="32" viewBox="0 0 29 32">
<title>Scheduler-Job-Collection</title>
<path fill="#fff" d="M15.652 6.959c-1.398 0.159-2.591 0.802-3.411 1.81-0.824 1.005-1.236 2.291-1.113 3.617 0.166 1.37 0.824 2.533 1.85 3.339 1.030 0.802 2.345 1.207 3.704 1.084 1.398-0.159 2.591-0.842 3.415-1.807 0.824-1.008 1.232-2.295 1.109-3.621-0.163-1.366-0.864-2.533-1.89-3.379-0.864-0.683-1.977-1.084-3.129-1.084-0.163 0-0.329 0-0.535 0.040z"></path>
<path fill="#3999c6" d="M21.987 11.262c-0.163-1.608-1.026-3.017-2.219-3.942-0.249-0.199-0.495-0.361-0.741-0.481l-0.455 0.882c0.206 0.123 0.372 0.242 0.578 0.365 0.986 0.802 1.688 1.93 1.85 3.256 0.123 1.326-0.289 2.573-1.070 3.538-0.78 0.968-1.973 1.612-3.332 1.771-0.903 0.079-1.767-0.079-2.551-0.401l-0.452 0.885c0.947 0.441 2.016 0.643 3.126 0.52 1.648-0.159 3.046-0.965 3.989-2.132 0.947-1.124 1.442-2.652 1.276-4.26z"></path>
<path fill="#a0a1a2" d="M12.979 15.645c-0.986-0.766-1.644-1.93-1.81-3.259-0.123-1.326 0.289-2.573 1.070-3.538s1.977-1.608 3.332-1.771c1.113-0.119 2.139 0.123 3.003 0.647l0.455-0.885c-1.070-0.603-2.305-0.885-3.581-0.766-1.644 0.163-3.043 0.965-3.989 2.132s-1.482 2.656-1.276 4.264c0.163 1.608 0.986 2.974 2.179 3.899 0.372 0.282 0.784 0.564 1.236 0.766l0.452-0.885c-0.412-0.163-0.741-0.361-1.070-0.603z"></path>
<path fill="#59b4d9" d="M12.979 15.645c-0.986-0.766-1.644-1.93-1.81-3.259-0.123-1.326 0.289-2.573 1.070-3.538s1.977-1.608 3.332-1.771c1.113-0.119 2.139 0.123 3.003 0.647l0.455-0.885c-1.070-0.603-2.305-0.885-3.581-0.766-1.644 0.163-3.043 0.965-3.989 2.132s-1.482 2.656-1.276 4.264c0.163 1.608 0.986 2.974 2.179 3.899 0.372 0.282 0.784 0.564 1.236 0.766l0.452-0.885c-0.412-0.163-0.741-0.361-1.070-0.603z"></path>
<path fill="#7a7a7a" d="M18.574 13.391l-2.305-0.802c-0.246-0.083-0.369-0.361-0.285-0.603s0.369-0.361 0.618-0.282l2.302 0.802c0.246 0.083 0.369 0.365 0.289 0.603-0.083 0.242-0.372 0.405-0.618 0.282z"></path>
<path fill="#7a7a7a" d="M16.025 12.509c-0.249 0-0.495-0.202-0.495-0.484v-3.939c0-0.242 0.206-0.484 0.495-0.484 0.246 0 0.491 0.202 0.491 0.484v3.939c0 0.282-0.206 0.484-0.491 0.484z"></path>
<path fill="#1e1e1e" d="M16.723 12.065c0 0.378-0.313 0.684-0.699 0.684s-0.699-0.306-0.699-0.684c0-0.378 0.313-0.684 0.699-0.684s0.699 0.306 0.699 0.684z"></path>
<path fill="#b8d432" d="M15.449 17.093l2.425 2.211-2.139 2.414 0.043-1.568h-0.578c-4.318 0-7.856-3.418-7.856-7.682s3.455-7.643 7.816-7.643c2.179 0 4.155 0.885 5.594 2.295-1.232-1.167-2.92-1.89-4.77-1.93-3.744 0-6.79 2.974-6.79 6.634 0 3.538 2.923 6.392 6.461 6.634l-0.206-1.366z"></path>
<path fill="#1e1e1e" opacity="0.2" d="M13.019 19.463c-4.318-0.159-7.65-3.7-7.487-7.881 0.126-2.613 1.565-4.867 3.664-6.154-2.8 1.167-4.773 3.903-4.773 7.079 0 4.224 3.498 7.682 7.856 7.682h0.578l-0.043 1.568 2.139-2.414c-0.614 0.119-1.276 0.159-1.933 0.119z"></path>
<path fill="#7a7a7a" d="M8.329 20.67c-0.079 0-0.202-0.040-0.285-0.079l-2.797-1.608c-0.495-0.282-0.824-0.846-0.824-1.366v-10.136c0-0.524 0.329-1.127 0.824-1.366l2.797-1.608c0.285-0.163 0.658-0.083 0.82 0.199 0.166 0.282 0.083 0.643-0.202 0.806l-2.8 1.608c-0.080 0.040-0.202 0.242-0.202 0.361v10.136c0 0.119 0.123 0.322 0.202 0.361l2.8 1.608c0.285 0.159 0.369 0.524 0.202 0.806-0.123 0.159-0.329 0.278-0.535 0.278zM21.002 4.423c0.083 0 0.206 0.040 0.285 0.083l2.8 1.608c0.491 0.282 0.82 0.842 0.82 1.366v10.136c0 0.52-0.329 1.124-0.82 1.366l-2.8 1.608c-0.285 0.163-0.658 0.079-0.82-0.199-0.166-0.282-0.083-0.647 0.206-0.806l2.797-1.608c0.083-0.040 0.206-0.242 0.206-0.361v-10.136c0-0.119-0.123-0.322-0.206-0.361l-2.797-1.608c-0.289-0.163-0.372-0.524-0.206-0.806 0.163-0.159 0.329-0.282 0.535-0.282z"></path>
</svg>
