<!-- Generated by IcoMoon.io -->
<svg version="1.1" xmlns="http://www.w3.org/2000/svg" width="32" height="32" viewBox="0 0 32 32">
<title>Search-Service</title>
<path fill="#000" d="M23.274 17.876c-0.030-1.64-1.241-2.988-2.817-3.231l-0.019-0.002c-0.067-2.247-1.904-4.043-4.161-4.043-0.029 0-0.059 0-0.088 0.001l0.004-0c-0.013-0-0.029-0-0.044-0-1.833 0-3.395 1.163-3.988 2.791l-0.009 0.030c-1.932 0.256-3.41 1.885-3.426 3.863v0.002c0.080 2.169 1.858 3.896 4.039 3.896 0.021 0 0.042-0 0.063-0l-0.003 0h6.991c0.027 0.004 0.058 0.006 0.090 0.006s0.063-0.002 0.093-0.007l-0.003 0c1.807-0.033 3.262-1.496 3.28-3.304v-0.002z"></path>
<path fill="#f2f2f2" d="M18.691 14.052c-0.442-0.724-1.228-1.2-2.125-1.2-1.16 0-2.134 0.796-2.406 1.871l-0.004 0.017c-0.042 0.173-0.066 0.371-0.066 0.575 0 0.463 0.123 0.898 0.339 1.272l-0.007-0.012-1.891 1.914c-0.116 0.116-0.188 0.276-0.188 0.453s0.072 0.337 0.188 0.453l0 0c0.114 0.114 0.272 0.185 0.446 0.185 0.003 0 0.006-0 0.009-0h-0c0.004 0 0.008 0 0.012 0 0.172 0 0.328-0.071 0.439-0.185l0-0 1.884-1.907c0.188 0.111 0.406 0.201 0.637 0.261l0.018 0.004c0.174 0.043 0.374 0.068 0.58 0.068 1.375 0 2.49-1.115 2.49-2.49 0-0.472-0.132-0.914-0.36-1.291l0.006 0.011zM18.255 15.748c-0.191 0.769-0.874 1.331-1.688 1.334h-0c-0.004 0-0.008 0-0.013 0-0.143 0-0.28-0.021-0.411-0.059l0.010 0.003c-0.216-0.050-0.405-0.14-0.569-0.262l0.004 0.003c-0.18-0.123-0.331-0.273-0.45-0.446l-0.004-0.006c-0.188-0.275-0.3-0.615-0.3-0.98 0-0.149 0.018-0.293 0.053-0.43l-0.003 0.012c0.182-0.773 0.865-1.34 1.681-1.342h0c0.149 0 0.295 0.018 0.434 0.051l-0.013-0.003c0.456 0.124 0.83 0.414 1.061 0.8l0.004 0.008c0.159 0.256 0.254 0.567 0.254 0.9 0 0.148-0.019 0.292-0.054 0.429l0.003-0.012z"></path>
<path fill="#83b9f9" d="M18.296 15.337c0 0.964-0.778 1.746-1.738 1.746s-1.738-0.782-1.738-1.746c0-0.964 0.778-1.746 1.738-1.746s1.738 0.782 1.738 1.746z"></path>
</svg>
