<!-- Generated by IcoMoon.io -->
<svg version="1.1" xmlns="http://www.w3.org/2000/svg" width="31" height="32" viewBox="0 0 31 32">
<title>Security-Baseline</title>
<path fill="#57a300" d="M16.64 13.063c-2.631-0.269-3.073-1.319-3.073-1.319s-0.591 1.381-4.377 1.381v5.668c0 0.687 0.411 1.329 0.98 1.888 1.29 1.273 3.397 2.129 3.397 2.129s4.38-1.775 4.38-4.017v-5.668c-0.488 0-0.92-0.024-1.307-0.062z"></path>
<path fill="#b8d432" opacity="0.4" d="M14.651 17.534l1.989-2.345c-2.631-0.267-3.073-1.317-3.073-1.317s-0.591 1.381-4.377 1.381v5.668c0 0.687 0.411 1.329 0.98 1.888l1.47-1.73 3.010-3.546z"></path>
<path fill="#fff" d="M14.443 15.999h6.129v5.958l-6.11 0.041-0.019-5.999z"></path>
<path fill="#3898c6" d="M17.070 16.852h2.626v0.851h-2.626v-0.851zM17.070 18.553h2.626v0.853h-2.626v-0.853zM17.070 20.256h2.626v0.851h-2.626v-0.851zM15.319 16.852h0.875v0.851h-0.875v-0.851zM15.319 18.553h0.875v0.853h-0.875v-0.853zM15.319 20.256h0.875v0.851h-0.875v-0.851z"></path>
<path fill="#3999c6" d="M21.145 14.297h-7.275c-0 0-0 0-0.001 0-0.167 0-0.302 0.131-0.302 0.293v7.926c0 0.163 0.135 0.293 0.303 0.293h7.272c0.001 0 0.001 0 0.002 0 0.167 0 0.302-0.131 0.303-0.293v-7.926c-0-0.162-0.135-0.293-0.302-0.293-0 0-0 0-0.001 0h0zM14.442 21.959v-5.961h6.131v5.961h-6.131z"></path>
</svg>
