<!-- Generated by IcoMoon.io -->
<svg version="1.1" xmlns="http://www.w3.org/2000/svg" width="32" height="32" viewBox="0 0 32 32">
<title>Security-Detonation-Chamber</title>
<path fill="#fff" d="M21.869 14.282c0 2.419-2.010 4.38-4.489 4.38s-4.489-1.961-4.489-4.38c0-2.419 2.010-4.38 4.489-4.38s4.489 1.961 4.489 4.38z"></path>
<path fill="#767676" d="M9.14 22.947c0.338 0.338 0.893 0.331 1.239-0.016 0-0 0.001-0.001 0.001-0.001l4.637-4.637c0.345-0.346 0.352-0.9 0.015-1.238l-0.086-0.086c-0.338-0.337-0.891-0.331-1.238 0.015l-4.637 4.637c-0 0-0.001 0.001-0.001 0.001-0.346 0.346-0.353 0.901-0.016 1.239l0.086 0.086z"></path>
<path fill="#000" d="M23.107 14.382c0 3.080-2.559 5.577-5.716 5.577s-5.716-2.497-5.716-5.577c0-3.080 2.559-5.577 5.716-5.577s5.716 2.497 5.716 5.577z"></path>
<path fill="#000" d="M21.869 14.282c0 2.419-2.010 4.38-4.489 4.38s-4.489-1.961-4.489-4.38c0-2.419 2.010-4.38 4.489-4.38s4.489 1.961 4.489 4.38z"></path>
<path fill="#f2f2f2" d="M20.771 13.402c0.047 0.13 0.075 0.279 0.075 0.435 0 0.737-0.613 1.335-1.368 1.335-0.572 0-1.062-0.342-1.267-0.829l-0.003-0.009 2.564-0.932zM16.557 14.334c-0.208 0.495-0.698 0.837-1.27 0.837-0.756 0-1.368-0.598-1.368-1.335 0-0.156 0.027-0.305 0.077-0.444l-0.003 0.009 2.564 0.932z"></path>
</svg>
