<!-- Generated by IcoMoon.io -->
<svg version="1.1" xmlns="http://www.w3.org/2000/svg" width="22" height="32" viewBox="0 0 22 32">
<title>Security-Center</title>
<path fill="#57a300" d="M15.928 6.248c-4.204-0.451-4.908-2.22-4.908-2.22s-0.947 2.326-6.993 2.326v9.553c0 1.155 0.658 2.237 1.566 3.184 2.063 2.141 5.428 3.586 5.428 3.586s6.993-2.993 6.993-6.77v-9.553c-0.776 0-1.47-0.036-2.086-0.105z"></path>
<path fill="#b8d432" opacity="0.4" d="M12.75 13.784l3.178-3.947c-4.204-0.454-4.908-2.224-4.908-2.224s-0.947 2.329-6.993 2.329v9.553c0 1.155 0.658 2.237 1.566 3.181l7.158-8.892z"></path>
<path fill="#fff" d="M13.793 13.148h-0.408v-1.322c0-0.004 0-0.009 0-0.013 0-0.633-0.241-1.21-0.637-1.65l0.002 0.003c-0.016-0.016-0.030-0.033-0.043-0.049-0.424-0.441-1.023-0.727-1.688-0.727-0.661 0-1.263 0.286-1.688 0.727-0.422 0.444-0.681 1.041-0.681 1.698 0 0.005 0 0.009 0 0.014v-0.001 1.322h-0.405c-0 0-0 0-0 0-0.169 0-0.305 0.134-0.305 0.298 0 0 0 0 0 0v-0l-0 3.504c0 0.164 0.138 0.299 0.306 0.299h5.546c0.169 0 0.306-0.134 0.306-0.299v0l0-3.504c0-0 0-0 0-0 0-0.165-0.137-0.299-0.306-0.299 0 0 0 0 0 0v0zM12.263 13.151h-1.915v-0.003h-0.572v-1.322c0-0.382 0.148-0.72 0.378-0.961s0.533-0.378 0.865-0.378c0.332 0 0.635 0.138 0.865 0.378 0.056 0.059 0.105 0.122 0.148 0.188v0.003c0.145 0.214 0.23 0.48 0.23 0.77v1.326z"></path>
</svg>
