<!-- Generated by IcoMoon.io -->
<svg version="1.1" xmlns="http://www.w3.org/2000/svg" width="25" height="32" viewBox="0 0 25 32">
<title>Secure-Score</title>
<path fill="#e5e5e4" d="M17.012 7.964c-3.963-0.452-4.605-2.089-4.605-2.089s-0.891 2.16-6.531 2.16v8.918c0 1.078 0.605 2.089 1.462 2.961 1.929 2.018 5.069 3.376 5.069 3.376s6.531-2.786 6.531-6.304v-8.952c-0.713 0-1.355-0.034-1.926-0.071z"></path>
<path fill="#d5d7d7" d="M17.010 7.964c-0.891-0.104-2.034-0.347-2.605-0.59-0.037 0-3.177 15.327-3.177 15.36 0.786 0.488 1.177 0.556 1.177 0.556s6.531-2.786 6.531-6.304v-8.952c-0.713 0-1.355-0.034-1.926-0.071z"></path>
<path fill="#0f85ce" d="M16.474 8.697c-3.496-0.347-4.067-1.813-4.067-1.813s-0.786 1.917-5.782 1.917v7.908c0 0.94 0.535 1.846 1.284 2.648 1.714 1.776 4.498 2.958 4.498 2.958s5.782-2.507 5.782-5.607v-7.908c-0.029 0-0.063 0-0.097 0-0.57 0-1.131-0.038-1.681-0.112l0.064 0.007z"></path>
<path fill="#0072c6" d="M16.476 8.697c-0.786-0.071-1.751-0.313-2.249-0.488-0.071-0.034-2.82 13.622-2.82 13.622 0.713 0.381 0.998 0.485 0.998 0.485s5.782-2.507 5.782-5.607v-7.908c-0.028 0-0.061 0-0.094 0-0.57 0-1.131-0.038-1.68-0.112l0.064 0.007z"></path>
<path fill="#fff" d="M12.692 11.833l0.501 1.008 0.212 0.418c0.037 0.104 0.144 0.141 0.252 0.175l1.604 0.246c0.252 0.034 0.359 0.347 0.178 0.522l-1.177 1.078c-0.067 0.070-0.108 0.165-0.108 0.269 0 0.004 0 0.008 0 0.012v-0.001l0.286 1.567c0.037 0.243-0.215 0.452-0.464 0.313l-1.429-0.731c-0.071-0.034-0.141-0.034-0.178-0.034-0.034 0-0.071 0-0.108 0.034l-1.425 0.731c-0.252 0.104-0.501-0.071-0.464-0.313l0.286-1.567c0-0.104 0-0.209-0.108-0.28l-1.143-1.115c-0.178-0.172-0.071-0.485 0.178-0.522l1.607-0.243c0.108 0 0.178-0.071 0.249-0.175l0.716-1.429c0.071-0.172 0.427-0.172 0.535 0.037z"></path>
<path fill="#edeced" d="M13.227 12.878l0.178 0.381c0.037 0.104 0.144 0.141 0.252 0.175l1.604 0.246c0.252 0.034 0.359 0.347 0.178 0.522l-1.177 1.078c-0.067 0.070-0.108 0.165-0.108 0.269 0 0.004 0 0.008 0 0.012v-0.001l0.286 1.567c0.037 0.243-0.215 0.452-0.464 0.313l-1.429-0.731c-0.034-0.034-0.071-0.034-0.104-0.034-0.037 0 0.783-3.797 0.783-3.797z"></path>
</svg>
