<!-- Generated by IcoMoon.io -->
<svg version="1.1" xmlns="http://www.w3.org/2000/svg" width="24" height="32" viewBox="0 0 24 32">
<title>Sendgrid-Account</title>
<path fill="#005ba1" d="M8.664 15.329h-6.664v-6.001c0.006-0.366 0.31-0.66 0.684-0.66 0 0 0 0 0 0h6.001l-0.021 6.66zM15.339 15.329h-6.675v6.671h6.001c0 0 0 0 0 0 0.378 0 0.684-0.3 0.684-0.67v-0l-0.011-6.001z"></path>
<path fill="#0078d4" d="M15.339 15.329h-6.675v-6.66h6.675v6.66zM8.664 15.329h-6.664v6.001c0 0.37 0.306 0.67 0.684 0.67 0 0 0 0 0 0h6.001l-0.021-6.671z"></path>
<path fill="#0078d4" d="M15.337 8.669h-6.675v-5.997c0-0.001 0-0.002 0-0.003 0-0.37 0.306-0.671 0.684-0.671 0 0 0 0 0 0h6.001l-0.011 6.671zM22.001 8.669h-6.664v6.66h6.11c0.001 0 0.001 0 0.002 0 0.301 0 0.545-0.236 0.552-0.529v-6.132z"></path>
<path fill="#000" d="M22.001 8.669h-6.664v-6.671h6.11c0 0 0.001 0 0.002 0 0.302 0 0.547 0.237 0.552 0.532v6.139zM15.337 8.669h-6.675v6.001c0.006 0.366 0.31 0.66 0.684 0.66 0 0 0 0 0 0h6.001l-0.011-6.66z"></path>
</svg>
