<!-- Generated by IcoMoon.io -->
<svg version="1.1" xmlns="http://www.w3.org/2000/svg" width="28" height="32" viewBox="0 0 28 32">
<title>Sentinel</title>
<path fill="#0072c6" d="M13.443 23.309c-1.62-1.030-6.9-4.739-6.9-9.067v-5.538l0.566-0.042c2.257-0.147 3.134-0.748 3.907-1.281 0.659-0.446 1.227-0.838 2.742-0.838s2.107 0.41 2.733 0.841c0.775 0.53 1.655 1.141 3.913 1.284l0.566 0.036v5.538c0 4.329-5.284 8.038-6.903 9.070l-0.314 0.204-0.308-0.207z"></path>
<path fill="#fff" opacity="0.15" d="M11.649 21.596l4.733-13.866-0.075-0.051c-0.611-0.419-1.138-0.784-2.547-0.784s-1.916 0.353-2.55 0.787c-0.811 0.557-1.727 1.188-4.080 1.332l-0.242 0.021v5.206c0 2.985 2.676 5.697 4.763 7.358v-0.003z"></path>
<path fill="#fff" d="M13.757 11.493h0.003c1.96 0 3.571 1.538 3.756 3.505l0.001 0.016 0.003 0.015h1.715c-0.162-2.988-2.553-5.349-5.481-5.349-2.931 0-5.322 2.362-5.481 5.334v0.015h1.715c0.18-1.991 1.793-3.535 3.757-3.535h0.012z"></path>
<path fill="#fff" d="M15.784 15.382c0 0.014 0.001 0.031 0.001 0.047 0 1.152-0.908 2.086-2.027 2.086s-2.027-0.934-2.027-2.086c0-0.017 0-0.033 0.001-0.050l-0 0.002c-0-0.014-0.001-0.031-0.001-0.047 0-1.152 0.908-2.086 2.027-2.086s2.027 0.934 2.027 2.086c0 0.017-0 0.033-0.001 0.050l0-0.002z"></path>
</svg>
