<!-- Generated by IcoMoon.io -->
<svg version="1.1" xmlns="http://www.w3.org/2000/svg" width="26" height="32" viewBox="0 0 26 32">
<title>Service-Catalog-Managed-Application-Definition</title>
<path fill="#646565" d="M4.026 22.287h2.164v0.388h-1.77c0 0-0.395 0-0.395-0.388z"></path>
<path fill="#646565" opacity="0.5" d="M5.602 21.511h-0.395c-0.652 0-1.18 0.521-1.181 1.164v0h0.395c0-0.428 0.352-0.776 0.786-0.776h0.395v-0.388z"></path>
<path fill="#0072c6" d="M8.751 4.027c-1.181 0-2.757 1.164-2.757 1.164h0.786v16.319h13.78v0.776l1.181-1.164v-17.096h-12.99z"></path>
<path fill="#fff" opacity="0.75" d="M7.964 4.415l-1.378 0.776h0.592v16.707h13.385l0.786-0.776v-16.707h-13.385z"></path>
<path fill="#fff" opacity="0.8" d="M8.161 4.416l-1.378 0.776h13.78l0.786-0.776h-13.188z"></path>
<path fill="#0072c6" d="M5.601 22.676v-1.164h0.786l0.395-0.391v-0.388l-0.395-0.388h-0.786v-1.164h0.786l0.395-0.388v-0.388l-0.395-0.388h-0.786v-1.168h0.786l0.395-0.388v-0.388l-0.395-0.388h-0.786v-1.164h0.786l0.395-0.388v-0.391l-0.395-0.388h-0.786v-1.164h0.786l0.395-0.388v-0.388l-0.395-0.388h-0.786v-1.168h0.786l0.395-0.388v-0.388l-0.395-0.388h-0.786v-1.164h0.786l0.395-0.388v-0.391l-0.395-0.388h-0.786v-1.164h14.961v17.484h-14.961z"></path>
<path fill="#fff" d="M14.521 15.316c0 0 0 0 0 0 0.010 0 0.019-0.002 0.027-0.007l-0 0 1.75-0.957c0.016-0.008 0.027-0.025 0.027-0.043 0-0 0-0 0-0v0l-0-1.92c-0-0.019-0.011-0.035-0.026-0.044l-0-0c-0.008-0.004-0.017-0.006-0.027-0.006s-0.019 0.002-0.027 0.007l0-0-1.749 0.955c-0.016 0.009-0.026 0.025-0.026 0.044v0l-0 1.92c0 0.020 0.010 0.036 0.026 0.046 0.007 0.004 0.016 0.007 0.026 0.007 0 0 0 0 0 0h-0zM14.521 17.842c0 0 0 0 0 0 0.010 0 0.019-0.002 0.027-0.007l-0 0 1.75-0.957c0.016-0.008 0.027-0.025 0.027-0.043 0-0 0-0 0-0v0l-0-1.92c-0-0.019-0.011-0.035-0.026-0.044l-0-0c-0.008-0.004-0.017-0.006-0.027-0.006s-0.019 0.002-0.027 0.007l0-0-1.749 0.958c-0.016 0.009-0.026 0.025-0.026 0.044v0l-0 1.92c0 0 0 0 0 0 0 0.027 0.022 0.049 0.050 0.049 0.001 0 0.002-0 0.002-0h-0zM16.791 14.049c0.010-0 0.019-0.002 0.027-0.007l-0 0 1.749-0.954c0.016-0.008 0.027-0.025 0.027-0.043 0-0 0-0 0-0v0l-0-1.92c-0-0.019-0.011-0.035-0.027-0.044l-0-0c-0.008-0.004-0.017-0.006-0.027-0.006s-0.019 0.002-0.027 0.007l0-0-1.748 0.955c-0.016 0.009-0.026 0.025-0.026 0.044v0l-0 1.92c0 0.020 0.010 0.036 0.026 0.043 0.008 0.004 0.017 0.006 0.026 0.006h0zM16.791 16.579c0.010-0 0.019-0.002 0.027-0.007l-0 0 1.749-0.957c0.016-0.008 0.027-0.025 0.027-0.043 0-0 0-0 0-0v0l-0-1.92c-0-0.019-0.011-0.035-0.027-0.044l-0-0c-0.008-0.004-0.017-0.006-0.027-0.006s-0.019 0.002-0.027 0.007l0-0-1.748 0.958c-0.016 0.009-0.026 0.025-0.026 0.044v0l-0 1.92c0 0.016 0.010 0.033 0.026 0.043 0.008 0.004 0.017 0.006 0.026 0.006h0zM14.004 15.316c-0 0-0 0-0 0-0.010 0-0.019-0.002-0.027-0.007l0 0-1.75-0.957c-0.016-0.008-0.027-0.025-0.027-0.043 0-0 0-0 0-0v0l0-1.92c0-0.019 0.011-0.035 0.027-0.044l0-0c0.008-0.004 0.017-0.006 0.027-0.006s0.019 0.002 0.027 0.007l-0-0 1.749 0.955c0.016 0.009 0.026 0.025 0.026 0.044v0l0 1.92c0 0 0 0 0 0 0 0.027-0.022 0.049-0.050 0.049-0.001 0-0.002-0-0.002-0h0zM14.004 17.842c-0 0-0 0-0 0-0.010 0-0.019-0.002-0.027-0.007l0 0-1.75-0.957c-0.016-0.008-0.027-0.025-0.027-0.043 0-0 0-0 0-0v0l0-1.92c0-0.019 0.011-0.035 0.027-0.044l0-0c0.008-0.004 0.017-0.006 0.027-0.006s0.019 0.002 0.027 0.007l-0-0 1.749 0.958c0.016 0.009 0.026 0.025 0.026 0.044v0l0 1.92c0 0 0 0 0 0 0 0.027-0.022 0.049-0.050 0.049-0.001 0-0.002-0-0.002-0h0zM11.735 14.049c-0 0-0 0-0 0-0.010 0-0.019-0.002-0.027-0.007l0 0-1.75-0.954c-0.016-0.008-0.027-0.025-0.027-0.043 0-0 0-0 0-0v0l0.001-1.92c0-0.019 0.011-0.035 0.027-0.044l0-0c0.008-0.004 0.017-0.006 0.027-0.006s0.019 0.002 0.027 0.007l-0-0 1.749 0.955c0.016 0.009 0.026 0.025 0.026 0.044v0l0 1.92c0 0 0 0 0 0 0 0.027-0.022 0.049-0.050 0.049-0.001 0-0.001 0-0.002-0h0zM11.735 16.579c-0 0-0 0-0 0-0.010 0-0.019-0.002-0.027-0.007l0 0-1.75-0.957c-0.016-0.008-0.027-0.025-0.027-0.043 0-0 0-0 0-0v0l0.001-1.92c0-0.019 0.011-0.035 0.027-0.044l0-0c0.008-0.004 0.017-0.006 0.027-0.006s0.019 0.002 0.027 0.007l-0-0 1.749 0.958c0.016 0.009 0.026 0.025 0.026 0.044v0l0 1.92c0 0 0 0 0 0 0 0.027-0.022 0.049-0.050 0.049-0.001 0-0.001 0-0.002-0h0zM12.494 11.812c0.005-0.008 0.011-0.014 0.019-0.018l0-0 1.74-0.932c0.008-0.004 0.017-0.007 0.027-0.007s0.019 0.002 0.026 0.007l-0-0 1.72 0.925c0.016 0.008 0.026 0.024 0.026 0.042 0 0 0 0 0 0v-0c-0.001 0.018-0.011 0.034-0.026 0.043l-0 0-1.739 0.934c-0.008 0.004-0.016 0.006-0.026 0.006s-0.019-0.002-0.027-0.007l0 0-1.721-0.927c-0.016-0.008-0.026-0.024-0.026-0.042 0-0.009 0.003-0.018 0.007-0.025l-0 0zM10.228 10.595c0.005-0.008 0.011-0.014 0.019-0.018l0-0 1.721-0.932c0.008-0.004 0.017-0.007 0.026-0.007s0.018 0.002 0.026 0.007l-0-0 1.701 0.925c0.016 0.007 0.026 0.023 0.026 0.043-0.001 0.018-0.011 0.034-0.027 0.043l-0 0-1.72 0.931c-0.007 0.004-0.016 0.006-0.025 0.006s-0.019-0.002-0.026-0.007l0 0-1.702-0.924c-0.015-0.008-0.025-0.024-0.026-0.042v-0c0.001-0.009 0.003-0.018 0.008-0.025l-0 0zM14.81 10.615c0.005-0.008 0.011-0.014 0.019-0.018l0-0 1.721-0.932c0.008-0.004 0.017-0.007 0.026-0.007s0.018 0.002 0.026 0.007l-0-0 1.701 0.925c0.016 0.010 0.026 0.023 0.026 0.043-0.001 0.018-0.011 0.034-0.026 0.043l-0 0-1.72 0.934c-0.007 0.004-0.016 0.006-0.025 0.006s-0.019-0.002-0.026-0.007l0 0-1.702-0.927c-0.015-0.008-0.025-0.024-0.026-0.042v-0c0-0.009 0.003-0.018 0.008-0.025l-0 0zM12.504 9.414c0.005-0.008 0.012-0.014 0.019-0.018l0-0 1.74-0.92c0.008-0.004 0.017-0.007 0.027-0.007s0.018 0.002 0.026 0.007l-0-0 1.72 0.912c0.016 0.008 0.026 0.024 0.026 0.042 0 0 0 0 0 0v0c-0.001 0.018-0.012 0.034-0.026 0.042l-0 0-1.739 0.916c-0.008 0.004-0.016 0.006-0.026 0.006s-0.019-0.002-0.027-0.007l0 0-1.721-0.911c-0.015-0.008-0.026-0.023-0.026-0.041v0c-0-0.008 0.003-0.015 0.006-0.021z"></path>
<path fill="#0072c6" d="M12.346 20.021c-0.707 0-1.339-0.576-1.799-0.997-0.132-0.122-0.257-0.234-0.339-0.293-0.303-0.211-0.898-0.441-1.484-0.441h-0.539c-0.325-0.002-0.588-0.261-0.589-0.582v-1.809c0-0.322 0.266-0.582 0.592-0.582h0.882l0.043 0.388v-0.388c0.253 0 0.648-0.072 0.997-0.135 0.28-0.053 0.543-0.102 0.763-0.122 0.095-0.007 0.194-0.013 0.293-0.013 0.276 0 1.217 0.046 1.625 0.622 0.049 0.066 0.27 0.329 0.372 0.408 0.086 0.069 0.296 0.141 0.635 0.141l0.063-0.003c0.026 0 0.089-0.007 0.171-0.013 0.234-0.020 0.589-0.049 0.859-0.049 0.063 0 0.122 0 0.171 0.007 0.516 0.036 0.796 0.382 0.842 0.707 0.020 0.125 0 0.296-0.066 0.454l0.191-0.092c0.605-0.296 1.438-0.697 1.918-0.859 0.161-0.057 0.346-0.090 0.539-0.092h0.001c0.391 0 0.714 0.161 0.865 0.428 0.079 0.141 0.178 0.444-0.066 0.829-0.125 0.201-0.329 0.398-0.553 0.533 0.33-0.173-0.091 0.085-0.513 0.341l-0.777 0.439c-0.181 0.112-0.368 0.23-0.553 0.349-0.635 0.405-1.039 0.655-1.342 0.694-0.115 0.015-0.248 0.023-0.384 0.023-0.011 0-0.022-0-0.033-0h0.002c-0.135 0-0.286-0.003-0.438-0.007-0.117-0.004-0.268-0.008-0.419-0.010l-0.012-0c-0.105 0-0.201 0.003-0.283 0.010-0.118 0.010-0.253 0.023-0.401 0.036-0.355 0.036-0.796 0.079-1.234 0.079z"></path>
<path fill="#fff" d="M18.033 16.777c-0.668 0.224-2.135 0.98-2.47 1.122-0.395 0.164-1.181 0.266-2.056 0.25-0.484-0.010-0.829-0.063-1.023-0.24 0 0-0.694-0.556-0.836-0.691-0.237-0.234 0.069-0.582 0.309-0.398 0.178 0.135 0.47 0.428 0.757 0.638 0.286 0.214 1.299 0.115 1.717 0.086 0.484-0.033 0.753-0.125 0.862-0.178 0.158-0.076 0.197-0.306 0.181-0.405-0.020-0.141-0.151-0.352-0.48-0.378-0.329-0.023-1.056 0.059-1.164 0.063-0.503 0.010-0.803-0.105-0.954-0.227-0.151-0.118-0.408-0.438-0.444-0.487-0.257-0.359-0.961-0.5-1.563-0.444-0.5 0.046-1.352 0.27-1.839 0.257h-0.882c-0.109 0-0.197 0.087-0.197 0.194v0l-0.001 1.809c0 0 0 0 0 0 0 0.107 0.088 0.194 0.196 0.194l0.541-0c0.638 0 1.313 0.237 1.707 0.513 0.398 0.276 1.164 1.217 1.915 1.217 0.592 0 1.188-0.086 1.605-0.115 0.414-0.030 1.214 0.033 1.539-0.013 0.322-0.043 1.089-0.595 1.74-0.987 0.398-0.237 0.839-0.503 1.289-0.78 0.181-0.109 0.336-0.263 0.428-0.408 0.319-0.51-0.234-0.809-0.878-0.592z"></path>
</svg>
