<!-- Generated by IcoMoon.io -->
<svg version="1.1" xmlns="http://www.w3.org/2000/svg" width="33" height="32" viewBox="0 0 33 32">
<title>Service-Health</title>
<path fill="#000" d="M16.33 23.076c7.124-5.155 7.368-8.166 7.395-9.106 0.042-1.32-0.131-4.759-3.615-5.032-0.083-0.007-0.179-0.010-0.276-0.010-1.612 0-2.985 1.039-3.496 2.491l-0.008 0.026c-0.524-1.48-1.901-2.519-3.517-2.519-0.107 0-0.214 0.005-0.319 0.014l0.014-0.001c-3.439 0.273-3.622 3.712-3.578 5.032 0 0.94 0.278 3.951 7.4 9.106z"></path>
<path fill="#fff" d="M23.724 13.451h-3.483c-0.047 0.002-0.087 0.026-0.113 0.061l-0 0-1.052 1.839c-0.025 0.039-0.068 0.065-0.118 0.065s-0.092-0.026-0.117-0.065l-0-0.001-1.508-2.895c-0.044-0.093-0.137-0.156-0.244-0.156s-0.2 0.063-0.243 0.155l-0.001 0.002-1.444 4.355c-0.023 0.048-0.071 0.081-0.126 0.081s-0.104-0.033-0.126-0.080l-0-0.001-1.236-2.893c-0.046-0.089-0.136-0.148-0.24-0.148s-0.194 0.060-0.239 0.147l-0.001 0.002-1.688 3.069c-0.023 0.040-0.065 0.068-0.113 0.070l-0 0-1.604 0c0.264 0.408 0.523 0.758 0.799 1.091l-0.014-0.018h1.462c0.003 0 0.006 0 0.009 0 0.047 0 0.087-0.029 0.104-0.070l0-0.001 1.052-1.961c0.024-0.044 0.070-0.073 0.122-0.073s0.098 0.029 0.122 0.072l0 0.001 1.447 3.394c0.040 0.103 0.138 0.175 0.252 0.175s0.212-0.072 0.251-0.173l0.001-0.002 1.525-4.573c0.019-0.050 0.067-0.085 0.122-0.085s0.103 0.035 0.122 0.084l0 0.001 1.271 2.436c0.045 0.084 0.131 0.14 0.231 0.14s0.186-0.056 0.23-0.139l0.001-0.001 1.62-2.754c0.023-0.040 0.065-0.068 0.113-0.070l0-0 2.814-0.001 0.042-1.081z"></path>
</svg>
