<!-- Generated by IcoMoon.io -->
<svg version="1.1" xmlns="http://www.w3.org/2000/svg" width="34" height="32" viewBox="0 0 34 32">
<title>Service-Bus</title>
<path fill="#50e6ff" d="M20.699 14.551h-0.008v-0.019h-0.019l-3.909-2.691-3.917 2.691h-0.019v5.272h7.864v-5.253h0.008z"></path>
<path fill="#32bedd" d="M12.827 14.551v5.253l3.936-2.627-3.936-2.627z"></path>
<path fill="#198ab3" d="M20.691 14.551l-3.928 2.627 3.928 2.627v-5.253z"></path>
<path fill="#000" d="M16.755 17.178l-3.928 2.619v0.008h7.864v-0.008l-3.936-2.619z"></path>
<path fill="#999" d="M9.653 19.36h1.156v3.237c0 0.145-0.116 0.263-0.26 0.263v0l-1.146-0.002c-0.144 0-0.26-0.118-0.26-0.263v0l-0.001-2.716c0-0.001 0-0.002 0-0.002 0-0.285 0.229-0.516 0.511-0.516v0z"></path>
<path fill="#999" opacity="0.5" d="M9.653 19.36h1.156v3.237c0 0.145-0.116 0.263-0.26 0.263v0l-1.146-0.002c-0.144 0-0.26-0.118-0.26-0.263v0l-0.001-2.716c0-0.001 0-0.002 0-0.002 0-0.285 0.229-0.516 0.511-0.516v0z"></path>
<path fill="#999" d="M22.717 9.14h1.156c0.282 0 0.511 0.231 0.511 0.516 0 0.001 0 0.002 0 0.003v-0 2.718c0 0.145-0.116 0.263-0.26 0.263v0l-1.157-0.002c-0.14-0.005-0.251-0.121-0.251-0.263 0-0 0-0 0-0v0l0.001-3.235z"></path>
<path fill="#999" opacity="0.5" d="M22.717 9.14h1.156c0.282 0 0.511 0.231 0.511 0.516 0 0.001 0 0.002 0 0.003v-0 2.718c0 0.145-0.116 0.263-0.26 0.263v0l-1.157-0.002c-0.14-0.005-0.251-0.121-0.251-0.263 0-0 0-0 0-0v0l0.001-3.235z"></path>
<path fill="#949494" d="M24.384 9.657v1.132h-15.241v-1.132c0-0.285 0.229-0.516 0.511-0.516h14.23c0.277 0.006 0.5 0.235 0.5 0.516v0z"></path>
<path fill="#999" d="M9.403 19.333h1.156c0.144 0 0.26 0.118 0.26 0.263v0l0.001 3.262h-1.167c-0.282-0-0.511-0.231-0.511-0.516v0-2.718c-0.001-0.008-0.001-0.018-0.001-0.027 0-0.145 0.116-0.263 0.26-0.263 0.001 0 0.001 0 0.001 0h-0z"></path>
<path fill="#999" opacity="0.5" d="M9.403 19.333h1.156c0.144 0 0.26 0.118 0.26 0.263v0l0.001 3.262h-1.167c-0.282-0-0.511-0.231-0.511-0.516v0-2.718c-0.001-0.008-0.001-0.018-0.001-0.027 0-0.145 0.116-0.263 0.26-0.263 0.001 0 0.001 0 0.001 0h-0z"></path>
<path fill="#999" d="M22.967 19.333h1.159c0.144 0 0.26 0.118 0.26 0.263v0l-0.002 2.719c-0 0.285-0.229 0.516-0.511 0.516h-1.156v-3.207c-0.001-0.008-0.001-0.018-0.001-0.027 0-0.142 0.112-0.258 0.252-0.263h0z"></path>
<path fill="#999" opacity="0.5" d="M22.967 19.333h1.159c0.144 0 0.26 0.118 0.26 0.263v0l-0.002 2.719c-0 0.285-0.229 0.516-0.511 0.516h-1.156v-3.207c-0.001-0.008-0.001-0.018-0.001-0.027 0-0.142 0.112-0.258 0.252-0.263h0z"></path>
<path fill="#949494" d="M9.142 22.342v-1.132h15.241v1.132c-0 0.285-0.229 0.516-0.511 0.516h-14.22c-0.282-0-0.511-0.231-0.511-0.516v0z"></path>
</svg>
