<!-- Generated by IcoMoon.io -->
<svg version="1.1" xmlns="http://www.w3.org/2000/svg" width="26" height="32" viewBox="0 0 26 32">
<title>Service-Endpoint</title>
<path fill="#3999c6" d="M21.598 9.325c0.175-0.175 0.142-0.455 0-0.632l-0.833-0.84-3.762-3.689c-0.175-0.175-0.418-0.175-0.593 0-0.171 0.178-0.208 0.458 0 0.632l3.936 3.9c0.080 0.081 0.129 0.192 0.129 0.315s-0.049 0.234-0.129 0.315v0l-4.005 4.038c-0.081 0.081-0.131 0.193-0.131 0.316s0.050 0.236 0.131 0.316l0 0c0.175 0.178 0.455 0.142 0.593 0l3.762-3.755 0.903-0.916zM4.4 9.325c-0.175-0.175-0.138-0.455 0-0.632l0.837-0.84 3.758-3.689c0.175-0.175 0.418-0.175 0.593 0s0.208 0.458 0 0.632l-3.864 3.9c-0.080 0.081-0.129 0.192-0.129 0.315s0.049 0.234 0.129 0.315v0l3.933 4.038c0.081 0.081 0.131 0.193 0.131 0.316s-0.050 0.236-0.131 0.316l-0 0c-0.175 0.178-0.451 0.142-0.593 0l-3.795-3.686-0.033-0.036-0.837-0.949z"></path>
<path fill="#57a300" d="M10.58 9.075c0 0.758-0.616 1.321-1.271 1.321-0.652 0-1.347-0.642-1.347-1.321 0-0.682 0.54-1.324 1.347-1.324 0.771 0 1.271 0.642 1.271 1.324z"></path>
<path fill="#57a300" d="M18.066 9.074c0 0.73-0.586 1.321-1.31 1.321s-1.31-0.591-1.31-1.321c0-0.73 0.586-1.321 1.31-1.321s1.31 0.591 1.31 1.321z"></path>
<path fill="#59b4d9" d="M19 17.377c-0.132 0-0.26 0.013-0.389 0.033v-0.003c0-2.869-2.286-5.195-5.106-5.195-2.253 0-4.164 1.486-4.842 3.544-0.339-0.125-0.731-0.197-1.14-0.198h-0c-1.93 0-3.492 1.591-3.492 3.551 0 1.963 1.561 3.554 3.492 3.554l0.003-0.003v0.003h11.305c0.030 0 0.056-0.003 0.086-0.007 0.026 0.003 0.056 0.007 0.082 0.007 1.447 0 2.621-1.183 2.621-2.643s-1.173-2.643-2.621-2.643v0z"></path>
<path fill="#fff" d="M12.265 9.829h1.497v8.682h-1.497v-8.682z"></path>
<path fill="#fff" opacity="0.2" d="M11.921 16.254c0.191-1.705 1.192-3.139 2.599-3.916l0.026-0.013c-0.336-0.069-0.682-0.112-1.041-0.112-2.253 0-4.164 1.482-4.842 3.544-0.339-0.125-0.731-0.197-1.14-0.198h-0c-1.93 0-3.492 1.591-3.492 3.551 0 1.963 1.561 3.554 3.492 3.554l0.003-0.003v0.003h1.469c-0.528-0.666-0.847-1.521-0.847-2.451 0-0.001 0-0.002 0-0.003v0c0-2.138 1.677-3.874 3.772-3.956z"></path>
<path fill="#57a300" d="M14.322 9.075c0 0.758-0.616 1.321-1.271 1.321-0.652 0-1.347-0.642-1.347-1.321 0-0.682 0.616-1.324 1.347-1.324 0.735 0 1.271 0.642 1.271 1.324z"></path>
<path fill="#fff" d="M13.762 16.78v-4.556c-0.086-0.003-0.168-0.013-0.257-0.013-0.428 0-0.843 0.056-1.239 0.155v4.447c-0.461 0.277-0.787 0.774-0.787 1.321 0 0.794 0.761 1.548 1.568 1.548 0.827 0 1.502-0.695 1.502-1.548 0-0 0-0.001 0-0.001 0-0.578-0.314-1.082-0.78-1.348l-0.008-0.004z"></path>
<path fill="#57a300" d="M14.099 18.132c0 0.632-0.511 1.097-1.054 1.097s-1.117-0.53-1.117-1.097c0-0.563 0.511-1.094 1.117-1.094s1.054 0.53 1.054 1.094z"></path>
<path fill="#57a300" d="M12.639 10.206h0.748v7.927h-0.748v-7.927z"></path>
</svg>
