<!-- Generated by IcoMoon.io -->
<svg version="1.1" xmlns="http://www.w3.org/2000/svg" width="31" height="32" viewBox="0 0 31 32">
<title>Service-Endpoint-Policy</title>
<path fill="#0078d4" d="M19.378 10.803c-0-0.003-0-0.007-0-0.011 0-1.083 0.869-1.961 1.942-1.965h0c0.763 0.116 1.342 0.773 1.342 1.565 0 0.012-0 0.024-0 0.036l0-0.002c0 0.005 0 0.010 0 0.015 0 0.376-0.13 0.722-0.348 0.994l0.002-0.003c-0.111 0.134-0.276 0.219-0.462 0.219-0.001 0-0.002 0-0.002 0h-2.533l0.059-0.849z"></path>
<path fill="#000" d="M19.555 8.785h-7.596c-1.060 0.009-1.916 0.878-1.916 1.948 0 0.001 0 0.001 0 0.002v-0 12.494h7.596c0 0 0.001 0 0.002 0 1.067 0 1.933-0.872 1.933-1.947v-8.429c-0.024-0.382-0.037-0.828-0.037-1.277s0.013-0.895 0.040-1.338l-0.003 0.061c0.302-1.692 2.118-1.393 2.118-1.393-0.479-0.087-1.030-0.137-1.593-0.137-0.191 0-0.381 0.006-0.569 0.017l0.026-0.001z"></path>
<path fill="#f2f2f2" d="M14.863 18.254v-3.998c0.136-0.079 0.227-0.225 0.227-0.392v-0c-0-0.254-0.204-0.459-0.456-0.459-0 0-0.001 0-0.001 0h0c-0.244 0.010-0.438 0.212-0.438 0.459 0 0.165 0.087 0.31 0.216 0.391l0.002 0.001v3.998c-0.136 0.083-0.226 0.231-0.227 0.4v0c-0.003 0.019-0.004 0.041-0.004 0.064 0 0.254 0.204 0.459 0.456 0.459s0.456-0.206 0.456-0.459c0-0.023-0.002-0.045-0.005-0.066l0 0.002c-0.001-0.169-0.091-0.317-0.225-0.399l-0.002-0.001z"></path>
<path fill="#5ea0ef" d="M17.774 23.229c-0.75-0.12-1.316-0.767-1.316-1.547 0-0.485 0.219-0.919 0.563-1.206l0.003-0.002c0.045-0.036 0.073-0.091 0.073-0.153 0-0.108-0.087-0.196-0.194-0.196-0.002 0-0.004 0-0.006 0l-6.845 0.001c-0.732 0.14-1.278 0.779-1.278 1.548s0.546 1.408 1.268 1.546l0.010 0.002c0.037 0.004 0.079 0.007 0.123 0.007s0.086-0.002 0.128-0.007l-0.005 0 7.477 0.008z"></path>
<path fill="#f2f2f2" d="M16.542 13.873c0 0.258-0.208 0.468-0.464 0.468s-0.464-0.209-0.464-0.468c0-0.258 0.208-0.468 0.464-0.468s0.464 0.209 0.464 0.468z"></path>
<path fill="#f2f2f2" d="M15.065 13.873c0 0.258-0.208 0.468-0.464 0.468s-0.464-0.209-0.464-0.468c0-0.258 0.208-0.468 0.464-0.468s0.464 0.209 0.464 0.468z"></path>
<path fill="#f2f2f2" d="M13.596 13.873c0 0.258-0.208 0.468-0.464 0.468s-0.464-0.209-0.464-0.468c0-0.258 0.208-0.468 0.464-0.468s0.464 0.209 0.464 0.468z"></path>
<path fill="#b3b3b3" d="M13.173 16.009l0.271-0.273c0.020-0.022 0.032-0.052 0.032-0.085s-0.012-0.063-0.032-0.085l0 0-2.102-2.11-0.268 0.273c-0.044 0.043-0.071 0.104-0.071 0.17s0.027 0.127 0.071 0.17l0 0 1.958 1.94c0.020 0.014 0.045 0.022 0.072 0.022s0.052-0.008 0.072-0.023l-0 0z"></path>
<path fill="#f2f2f2" d="M13.429 12.010l-0.255-0.255c-0.022-0.020-0.052-0.033-0.084-0.033s-0.062 0.012-0.085 0.033l0-0-1.931 1.932c-0.044 0.043-0.071 0.104-0.071 0.17s0.027 0.127 0.071 0.17l0 0 0.261 0.279 2.094-2.125c0.024-0.020 0.040-0.051 0.040-0.085s-0.015-0.065-0.039-0.085l-0-0z"></path>
<path fill="#b3b3b3" d="M15.976 16.009l-0.271-0.281c-0.024-0.020-0.040-0.051-0.040-0.085s0.015-0.065 0.039-0.085l0-0 2.136-2.102 0.263 0.273c0.044 0.043 0.071 0.104 0.071 0.17s-0.027 0.127-0.071 0.17l-0 0-1.958 1.94c-0.022 0.020-0.052 0.032-0.084 0.032s-0.062-0.012-0.085-0.033l0 0z"></path>
<path fill="#f2f2f2" d="M15.747 12.010l0.271-0.255c0.022-0.020 0.052-0.033 0.084-0.033s0.062 0.012 0.085 0.033l-0-0 1.918 1.94c0.044 0.043 0.071 0.104 0.071 0.17s-0.027 0.127-0.071 0.17l-0 0-0.263 0.271-2.094-2.125c-0.020-0.022-0.032-0.052-0.032-0.085s0.012-0.063 0.032-0.085l-0 0z"></path>
</svg>
