<!-- Generated by IcoMoon.io -->
<svg version="1.1" xmlns="http://www.w3.org/2000/svg" width="32" height="32" viewBox="0 0 32 32">
<title>Shared-Image-Gallery</title>
<path fill="#005ba1" d="M13.089 19.126c0 0.2 0.162 0.362 0.362 0.362h7.873c0.2-0 0.362-0.162 0.362-0.362v-10.039c-0-0.2-0.162-0.362-0.362-0.362h-7.873c-0.2 0-0.362 0.162-0.362 0.362v10.039z"></path>
<path fill="#0078d4" d="M11.787 20.29c0 0.2 0.162 0.362 0.362 0.362h7.873c0.2-0 0.362-0.162 0.362-0.362v-10.039c-0-0.2-0.162-0.362-0.362-0.362h-7.873c-0.2 0-0.362 0.162-0.362 0.362v10.039z"></path>
<path fill="#32bedd" d="M10.468 21.463c0 0.2 0.162 0.362 0.362 0.362h7.873c0.2-0 0.362-0.162 0.362-0.362v-10.039c-0-0.2-0.162-0.362-0.362-0.362h-7.873c-0.2 0-0.362 0.162-0.362 0.362v10.039z"></path>
<path fill="#50e6ff" d="M17.281 14.271v2.923l-2.51 1.465v-2.923l2.51-1.465z"></path>
<path fill="#c3f1ff" d="M17.281 14.272l-2.51 1.473-2.51-1.473 2.51-1.468 2.51 1.468z"></path>
<path fill="#9cebff" d="M14.771 15.745v2.915l-2.51-1.465v-2.923l2.51 1.473z"></path>
<path fill="#c3f1ff" d="M12.261 17.194l2.51-1.458v2.923l-2.51-1.465z"></path>
<path fill="#9cebff" d="M17.281 17.194l-2.51-1.458v2.923l2.51-1.465z"></path>
<path fill="#000" d="M8.725 22.791c0 0.266 0.216 0.482 0.482 0.482h13.583c0.266-0 0.482-0.216 0.482-0.482v-4.201c-0-0.266-0.216-0.482-0.482-0.482h-13.583c-0.266 0-0.482 0.216-0.482 0.482v4.201z"></path>
<path fill="#f2f2f2" d="M13.934 19.765c0.001 0.204 0.166 0.37 0.371 0.37 0 0 0.001 0 0.001 0h3.405c0.204-0.001 0.369-0.166 0.37-0.369v-0.010c-0.001-0.204-0.166-0.369-0.369-0.37h-3.406c-0 0-0.001 0-0.001 0-0.204 0-0.37 0.165-0.371 0.369v0.010z"></path>
</svg>
