<!-- Generated by IcoMoon.io -->
<svg version="1.1" xmlns="http://www.w3.org/2000/svg" width="32" height="32" viewBox="0 0 32 32">
<title>Shared-Dashboard</title>
<path fill="#000" d="M7.94 15.555h11.827c0.006-0 0.014-0.001 0.021-0.001 0.195 0 0.355 0.151 0.366 0.342l0 0.001v8.138c-0.012 0.19-0.171 0.34-0.365 0.34-0.006 0-0.012-0-0.018-0l0.001 0h-11.831c-0.006 0-0.012 0-0.019 0-0.195 0-0.354-0.15-0.365-0.339l-0-0.001v-8.138c0.011-0.191 0.17-0.343 0.366-0.343 0.007 0 0.013 0 0.020 0.001l-0.001-0z"></path>
<path fill="#fff" d="M12.766 16.593h5.662c0.001-0 0.002-0 0.004-0 0.058 0 0.105 0.045 0.107 0.102v0l0.001 3.1c-0.002 0.057-0.049 0.102-0.107 0.102-0.001 0-0.003-0-0.004-0l-5.663-0c-0.001 0-0.002 0-0.004 0-0.058 0-0.105-0.046-0.106-0.102v-0l0.001-3.1c0.002-0.057 0.049-0.102 0.106-0.102 0.001 0 0.002 0 0.004 0h-0z"></path>
<path fill="#fff" d="M9.118 23.139c0 0.057 0.047 0.103 0.104 0.103l2.176-0.001c0.058 0 0.104-0.046 0.104-0.103v0l-0.002-6.441c0-0.057-0.047-0.103-0.104-0.103l-2.174-0.001c-0.058 0-0.104 0.046-0.104 0.103v0l-0 6.444z"></path>
<path fill="#fff" d="M16.239 20.835h2.196c0.001 0 0.001-0 0.002-0 0.056 0 0.102 0.044 0.104 0.099v0l-0.001 2.207c-0.001 0.056-0.047 0.1-0.104 0.1-0.001 0-0.002 0-0.002-0l-2.194-0c-0 0-0.001 0-0.001 0-0.056 0-0.102-0.045-0.104-0.1v-0l-0.002-2.209c0.002-0.054 0.047-0.098 0.103-0.098 0.001 0 0.002 0 0.002 0h-0zM12.757 20.835h2.162c0.057 0 0.104 0.046 0.104 0.102v0l-0.001 2.202c0 0.057-0.046 0.102-0.104 0.102v0l-2.161-0c-0.056 0-0.101-0.045-0.101-0.1v0l0.001-2.209c0.001-0.054 0.046-0.098 0.101-0.098 0 0 0 0 0 0v0z"></path>
</svg>
