<!-- Generated by IcoMoon.io -->
<svg version="1.1" xmlns="http://www.w3.org/2000/svg" width="27" height="32" viewBox="0 0 27 32">
<title>Signalr</title>
<path d="M11.655 17.59l1.053-2.543h2.339c0.936-0.002 1.694-0.761 1.694-1.697v0c-0.002-0.935-0.759-1.692-1.694-1.694h-7.629l4.237-4.24v1.697h3.391c2.342 0 4.24 1.898 4.24 4.237 0 2.276-1.799 4.122-4.053 4.22l3.434 3.434c2.421-1.684 4.007-4.48 4.007-7.655 0-5.148-4.174-9.322-9.322-9.322-5.151 0-9.326 4.174-9.326 9.322 0 5.151 4.174 9.326 9.326 9.326 1.020 0 1.997-0.171 2.918-0.47l-4.615-4.615z"></path>
</svg>
