<!-- Generated by IcoMoon.io -->
<svg version="1.1" xmlns="http://www.w3.org/2000/svg" width="26" height="32" viewBox="0 0 26 32">
<title>Sign-In</title>
<path fill="#0072c6" d="M12.304 3.892c2.509 0 4.849 0.968 6.674 2.734 3.653 3.646 3.653 9.626 0 13.272-1.768 1.765-4.165 2.734-6.674 2.734-2.512 0-4.852-0.968-6.677-2.734-0.628-0.628-0.628-1.597 0-2.221 0.628-0.628 1.597-0.628 2.225 0 1.2 1.193 2.74 1.878 4.453 1.878 1.709 0 3.253-0.625 4.449-1.821 2.453-2.449 2.453-6.436 0-8.829-1.197-1.197-2.796-1.881-4.449-1.881-1.656 0-3.253 0.628-4.452 1.825-0.628 0.625-1.597 0.625-2.225 0-0.628-0.628-0.628-1.597 0-2.221 1.768-1.765 4.165-2.734 6.677-2.734z"></path>
<path fill="#57a300" d="M13.314 17.401l-3.13-3.315h2.492l4.215 4.271-4.152 4.274h-2.555l3.13-3.253h-8.842c-0 0-0 0-0.001 0-0.32 0-0.58-0.259-0.581-0.578v-0.817c0-0.321 0.261-0.582 0.582-0.582h8.842z"></path>
</svg>
