<!-- Generated by IcoMoon.io -->
<svg version="1.1" xmlns="http://www.w3.org/2000/svg" width="28" height="32" viewBox="0 0 28 32">
<title>Software-As-A-Service</title>
<path fill="#000" d="M25.506 12.794c-0.080-2.497-2.013-4.533-4.505-4.86l-0.027-0.003c-0.158-3.388-3.028-6.077-6.545-6.077-0.073 0-0.146 0.001-0.219 0.003l0.011-0c-0.040-0.001-0.086-0.001-0.133-0.001-2.869 0-5.32 1.739-6.294 4.19l-0.016 0.045c-3.033 0.373-5.367 2.817-5.46 5.807l-0 0.009c0.157 3.257 2.917 5.841 6.299 5.841 0.079 0 0.158-0.001 0.236-0.004l-0.011 0h11.15c0.041 0.004 0.089 0.006 0.137 0.006s0.096-0.002 0.143-0.006l-0.006 0c2.837-0.021 5.14-2.209 5.239-4.94l0-0.009z"></path>
<path fill="#000" d="M10.029 19.769c0 0.001 0 0.002 0 0.003 0 0.351-0.293 0.636-0.655 0.636-0.004 0-0.008-0-0.012-0h-6.372c-0.005 0-0.010 0-0.016 0-0.362 0-0.655-0.285-0.655-0.636 0-0.001 0-0.002 0-0.003v0-11.465c0-0.001 0-0.002 0-0.003 0-0.351 0.293-0.636 0.655-0.636 0.006 0 0.011 0 0.017 0h6.372c0.003-0 0.008-0 0.012-0 0.362 0 0.655 0.285 0.655 0.636 0 0.001 0 0.002 0 0.003v-0 11.465z"></path>
<path fill="#fff" d="M11.040 8.99h1.501v1.787h-1.501v-1.787zM13.253 8.99h1.472v1.787h-1.472v-1.787zM15.462 8.99h1.477v1.787h-1.477v-1.787zM11.040 11.853h1.501v1.787h-1.501v-1.787zM13.253 11.853h1.472v1.787h-1.472v-1.787zM15.462 11.853h1.477v1.787h-1.477v-1.787zM11.040 14.712h1.501v1.787h-1.501v-1.787zM13.253 14.712h1.472v1.787h-1.472v-1.787zM13.253 17.571h1.472v2.147h-1.472v-2.147zM15.462 14.712h1.477v1.787h-1.477v-1.787z"></path>
</svg>
