<!-- Generated by IcoMoon.io -->
<svg version="1.1" xmlns="http://www.w3.org/2000/svg" width="26" height="32" viewBox="0 0 26 32">
<title>Spatial-Anchors-Account</title>
<path fill="#3999c6" d="M4.47 15.973l7.694-5.507 7.697 5.507-7.697 5.882-7.694-5.882z"></path>
<path fill="#fff" d="M6.353 16.003l5.813-4.161 5.809 4.161-5.809 4.441-5.813-4.441z"></path>
<path fill="#59b4d9" opacity="0.4" d="M6.353 16.003l5.813-4.161 5.809 4.161-5.809 4.441-5.813-4.441z"></path>
<path fill="#fff" d="M21.047 15.972c0 1.427-1.148 2.584-2.564 2.584s-2.564-1.157-2.564-2.584c0-1.427 1.148-2.584 2.564-2.584s2.564 1.157 2.564 2.584z"></path>
<path fill="#3999c6" d="M18.484 14.51c0.796 0 1.447 0.658 1.447 1.461 0 0.806-0.651 1.461-1.447 1.461-0.799 0-1.451-0.655-1.451-1.461 0-0.803 0.651-1.461 1.451-1.461zM18.484 13.389c-0.002 0-0.005 0-0.008 0-1.416 0-2.564 1.157-2.564 2.584s1.148 2.584 2.564 2.584c0.003 0 0.006 0 0.009 0h-0c1.413-0.005 2.556-1.16 2.556-2.584s-1.143-2.579-2.556-2.584h-0z"></path>
<path fill="#804998" d="M21.742 7.564c0-1.931-1.461-3.536-3.26-3.536s-3.26 1.539-3.26 3.536c0 2 3.26 7.47 3.26 8.783 0-1.313 3.26-6.849 3.26-8.783z"></path>
<path fill="#fff" d="M19.932 7.359c0 0.807-0.649 1.46-1.449 1.46s-1.449-0.654-1.449-1.46c0-0.807 0.649-1.46 1.449-1.46s1.449 0.654 1.449 1.46z"></path>
<path fill="#804998" d="M13.986 11.479c0 1.013-0.815 1.835-1.821 1.835s-1.821-0.822-1.821-1.835c0-1.013 0.815-1.835 1.821-1.835s1.821 0.822 1.821 1.835z"></path>
<path fill="#804998" d="M7.668 15.972c0 1.013-0.815 1.835-1.821 1.835s-1.821-0.822-1.821-1.835c0-1.013 0.815-1.835 1.821-1.835s1.821 0.822 1.821 1.835z"></path>
<path fill="#804998" d="M7.668 20.84c0 1.013-0.815 1.835-1.821 1.835s-1.821-0.822-1.821-1.835c0-1.013 0.815-1.835 1.821-1.835s1.821 0.822 1.821 1.835z"></path>
</svg>
