<!-- Generated by IcoMoon.io -->
<svg version="1.1" xmlns="http://www.w3.org/2000/svg" width="32" height="32" viewBox="0 0 32 32">
<title>SQL-Instance-Pool</title>
<path fill="#777" d="M20.552 19.26c-0.010 0.268-0.223 0.483-0.487 0.493l-0.001 0h-7.429c-0.269-0-0.487-0.221-0.488-0.493v-10.041c-0-0.005-0-0.010-0-0.016 0-0.263 0.21-0.476 0.47-0.477h7.447c0.269 0 0.487 0.22 0.488 0.493v10.041z"></path>
<path fill="#999" d="M18.841 20.994c-0.010 0.268-0.223 0.483-0.487 0.493l-0.001 0h-7.429c-0.269-0-0.487-0.221-0.488-0.493v-10.041c-0-0.005-0-0.010-0-0.016 0-0.263 0.21-0.476 0.47-0.477h7.447c0.269 0 0.487 0.22 0.488 0.493v10.041z"></path>
<path fill="#000" d="M17.129 22.78c-0.010 0.268-0.223 0.483-0.487 0.493l-0.001 0h-7.429c-0.267-0.005-0.482-0.222-0.488-0.492v-10.042c-0-0.005-0-0.010-0-0.016 0-0.263 0.21-0.476 0.47-0.477h7.447c0.269 0 0.487 0.22 0.488 0.493v10.041z"></path>
<path fill="#003067" d="M9.957 14.534c-0-0.002-0-0.005-0-0.007 0-0.507 0.405-0.918 0.906-0.919h4.196c0.008-0 0.017-0 0.026-0 0.484 0 0.88 0.38 0.913 0.862l0 0.003c0.001 0.013 0.001 0.028 0.001 0.044 0 0.517-0.414 0.936-0.924 0.936-0 0-0 0-0.001 0h-4.211c-0.496-0.010-0.896-0.416-0.906-0.918v-0.001z"></path>
<path fill="#50e6ff" d="M11.532 14.534c0 0.345-0.276 0.624-0.616 0.624s-0.616-0.279-0.616-0.624c0-0.345 0.276-0.624 0.616-0.624s0.616 0.279 0.616 0.624z"></path>
<path fill="#000" d="M21.494 20.404c-0.044-1.433-1.107-2.602-2.477-2.79l-0.015-0.002c-0.097-1.938-1.671-3.472-3.598-3.472-0.043 0-0.086 0.001-0.129 0.002l0.006-0c-0.028-0.001-0.061-0.001-0.095-0.001-1.568 0-2.907 0.991-3.441 2.388l-0.009 0.026c-1.67 0.209-2.958 1.612-3.013 3.331l-0 0.005c0.074 1.885 1.6 3.384 3.472 3.384 0.043 0 0.087-0.001 0.13-0.002l-0.006 0h6.323c1.559-0.023 2.817-1.292 2.851-2.866l0-0.003z"></path>
<path fill="#f2f2f2" d="M19.944 20.724v-2.913h-0.796v3.572h2.097v-0.66h-1.301zM13.868 19.293c-0.166-0.078-0.31-0.168-0.441-0.271l0.005 0.004c-0.064-0.072-0.103-0.167-0.103-0.272 0-0.002 0-0.004 0-0.005v0c-0.001-0.008-0.001-0.017-0.001-0.026 0-0.099 0.051-0.186 0.128-0.235l0.001-0.001c0.088-0.065 0.198-0.104 0.317-0.104 0.015 0 0.030 0.001 0.044 0.002l-0.002-0c0.014-0.001 0.031-0.001 0.048-0.001 0.302 0 0.582 0.094 0.814 0.256l-0.005-0.003v-0.747c-0.233-0.084-0.502-0.132-0.782-0.132-0.026 0-0.052 0-0.079 0.001l0.004-0c-0.020-0.001-0.043-0.002-0.066-0.002-0.326 0-0.627 0.108-0.869 0.292l0.004-0.003c-0.215 0.173-0.352 0.438-0.352 0.736 0 0.013 0 0.026 0.001 0.039l-0-0.002c0.032 0.488 0.356 0.892 0.795 1.037l0.008 0.002c0.2 0.085 0.373 0.19 0.528 0.316l-0.004-0.003c0.078 0.067 0.128 0.166 0.128 0.277v0c0 0.006 0.001 0.012 0.001 0.019 0 0.1-0.051 0.188-0.128 0.239l-0.001 0.001c-0.101 0.066-0.225 0.106-0.358 0.106-0.009 0-0.019-0-0.028-0.001l0.001 0c-0.347-0.008-0.661-0.145-0.899-0.365l0.001 0.001v0.798c0.248 0.125 0.541 0.198 0.85 0.198 0.001 0 0.003 0 0.004 0h-0c0.037 0.003 0.080 0.005 0.123 0.005 0.319 0 0.617-0.091 0.869-0.25l-0.007 0.004c0.225-0.169 0.368-0.437 0.368-0.739 0-0.018-0.001-0.036-0.002-0.053l0 0.002c0-0.010 0.001-0.021 0.001-0.033 0-0.22-0.081-0.421-0.214-0.574l0.001 0.001c-0.19-0.219-0.425-0.393-0.691-0.508l-0.013-0.005zM18.284 20.663c0.178-0.296 0.283-0.654 0.283-1.037 0-0.019-0-0.037-0.001-0.056l0 0.003c0.001-0.022 0.001-0.048 0.001-0.074 0-0.328-0.079-0.638-0.219-0.91l0.005 0.011c-0.131-0.272-0.334-0.491-0.583-0.638l-0.007-0.004c-0.235-0.143-0.518-0.228-0.821-0.228-0.031 0-0.061 0.001-0.092 0.003l0.004-0c-0.317 0.011-0.61 0.103-0.863 0.256l0.008-0.005c-0.268 0.159-0.482 0.386-0.622 0.658l-0.004 0.009c-0.146 0.284-0.231 0.621-0.231 0.978 0 0.005 0 0.009 0 0.014v-0.001c-0 0.008-0 0.017-0 0.025 0 0.322 0.076 0.626 0.211 0.894l-0.005-0.011c0.136 0.267 0.334 0.484 0.576 0.638l0.007 0.004c0.244 0.15 0.538 0.242 0.852 0.251l0.003 0 0.729 0.867h1.052l-1.019-0.955c0.317-0.146 0.571-0.386 0.732-0.685l0.004-0.008zM17.489 20.447c-0.147 0.186-0.371 0.303-0.622 0.303-0.010 0-0.021-0-0.031-0.001l0.002 0c-0.005 0-0.010 0-0.016 0-0.254 0-0.48-0.122-0.624-0.311l-0.001-0.002c-0.152-0.211-0.243-0.475-0.243-0.761 0-0.037 0.002-0.073 0.004-0.108l-0 0.005c-0.003-0.033-0.005-0.072-0.005-0.111 0-0.286 0.096-0.549 0.256-0.759l-0.002 0.003c0.147-0.196 0.377-0.321 0.636-0.321 0.008 0 0.015 0 0.022 0l-0.001-0c0.007-0 0.016-0 0.024-0 0.251 0 0.473 0.126 0.608 0.319l0.002 0.002c0.154 0.21 0.246 0.474 0.246 0.759 0 0.038-0.002 0.076-0.005 0.113l0-0.005c0.003 0.032 0.005 0.070 0.005 0.108 0 0.289-0.095 0.556-0.256 0.77l0.002-0.003z"></path>
</svg>
