<!-- Generated by IcoMoon.io -->
<svg version="1.1" xmlns="http://www.w3.org/2000/svg" width="32" height="32" viewBox="0 0 32 32">
<title>SQL-Server</title>
<path fill="#000" d="M14.12 12.653c-2.977 0-5.394-0.855-5.394-1.963v10.424c0 1.075 2.374 1.948 5.317 1.963h0.077c2.977 0 5.394-0.852 5.394-1.963v-10.424c0 1.083-2.417 1.963-5.394 1.963z"></path>
<path fill="#e8e8e8" d="M19.514 10.689c0 1.086-2.417 1.963-5.394 1.963s-5.394-0.878-5.394-1.963c0-1.083 2.417-1.963 5.394-1.963s5.394 0.855 5.394 1.963z"></path>
<path fill="#50e6ff" d="M18.255 10.528c0 0.69-1.855 1.245-4.134 1.245-2.281 0-4.119-0.554-4.119-1.245 0-0.693 1.837-1.247 4.119-1.247 2.279 0 4.134 0.562 4.134 1.247z"></path>
<path fill="#198ab3" d="M14.119 10.818c-0.061-0.001-0.133-0.002-0.205-0.002-1.094 0-2.147 0.172-3.134 0.492l0.072-0.020c0.899 0.31 1.936 0.489 3.014 0.489 0.092 0 0.183-0.001 0.274-0.004l-0.013 0c0.078 0.002 0.171 0.004 0.263 0.004 1.078 0 2.115-0.179 3.082-0.509l-0.067 0.020c-0.916-0.299-1.969-0.472-3.063-0.472-0.078 0-0.156 0.001-0.233 0.003l0.012-0z"></path>
<path fill="#f2f2f2" d="M17.439 17.783v-2.885h-0.793v3.534h2.094v-0.649h-1.301zM11.354 16.359c-0.166-0.069-0.309-0.158-0.436-0.266l0.002 0.002c-0.046-0.061-0.073-0.139-0.073-0.223 0-0.018 0.001-0.036 0.004-0.054l-0 0.002c0.001-0.109 0.055-0.205 0.138-0.264l0.001-0.001c0.093-0.060 0.206-0.096 0.328-0.096 0.010 0 0.020 0 0.030 0.001l-0.001-0c0.014-0 0.030-0.001 0.046-0.001 0.3 0 0.579 0.093 0.808 0.253l-0.005-0.003v-0.734c-0.231-0.087-0.498-0.137-0.776-0.137-0.026 0-0.051 0-0.077 0.001l0.004-0c-0.038-0.003-0.081-0.005-0.125-0.005-0.338 0-0.65 0.114-0.9 0.306l0.004-0.003c-0.214 0.178-0.349 0.445-0.349 0.744 0 0.008 0 0.016 0 0.025l-0-0.001c0 0.436 0.272 0.778 0.852 1.034 0.198 0.088 0.368 0.191 0.524 0.312l-0.006-0.004c0.083 0.063 0.136 0.161 0.136 0.272v0c-0 0.109-0.053 0.205-0.135 0.264l-0.001 0.001c-0.098 0.065-0.219 0.104-0.348 0.104-0.012 0-0.024-0-0.036-0.001l0.002 0c-0.005 0-0.011 0-0.018 0-0.367 0-0.7-0.146-0.945-0.383l0 0v0.793c0.25 0.125 0.544 0.198 0.855 0.198 0.020 0 0.039-0 0.059-0.001l-0.003 0c0.023 0.001 0.049 0.002 0.075 0.002 0.345 0 0.666-0.103 0.934-0.28l-0.006 0.004c0.223-0.173 0.365-0.442 0.365-0.744 0-0.014-0-0.029-0.001-0.043l0 0.002c0-0.010 0.001-0.023 0.001-0.035 0-0.216-0.080-0.413-0.212-0.564l0.001 0.001c-0.198-0.203-0.436-0.365-0.702-0.472l-0.014-0.005zM15.779 17.699c0.176-0.297 0.28-0.654 0.28-1.036 0-0.016-0-0.033-0.001-0.049l0 0.002c0-0.014 0.001-0.031 0.001-0.048 0-0.325-0.078-0.632-0.216-0.902l0.005 0.011c-0.136-0.27-0.339-0.488-0.588-0.638l-0.007-0.004c-0.241-0.139-0.529-0.221-0.837-0.221-0.005 0-0.011 0-0.016 0h0.001c-0.011-0-0.023-0-0.036-0-0.327 0-0.634 0.085-0.9 0.234l0.009-0.005c-0.267 0.157-0.479 0.382-0.617 0.651l-0.004 0.009c-0.141 0.272-0.224 0.594-0.224 0.935 0 0.016 0 0.032 0.001 0.048l-0-0.002c-0 0.009-0 0.020-0 0.030 0 0.317 0.076 0.615 0.211 0.879l-0.005-0.011c0.132 0.266 0.329 0.483 0.571 0.635l0.007 0.004c0.243 0.151 0.536 0.243 0.85 0.249l0.002 0 0.724 0.852h1.011l-1.021-0.947c0.342-0.129 0.619-0.365 0.797-0.668l0.004-0.007zM14.988 17.478c-0.157 0.186-0.39 0.304-0.651 0.304s-0.493-0.117-0.65-0.302l-0.001-0.001c-0.152-0.209-0.243-0.471-0.243-0.754 0-0.035 0.001-0.070 0.004-0.105l-0 0.005c-0.002-0.030-0.004-0.064-0.004-0.099 0-0.285 0.094-0.548 0.253-0.759l-0.002 0.003c0.144-0.193 0.372-0.316 0.628-0.316 0.012 0 0.024 0 0.036 0.001l-0.002-0c0.007-0 0.016-0 0.024-0 0.252 0 0.476 0.124 0.613 0.314l0.002 0.002c0.146 0.216 0.234 0.483 0.234 0.77 0 0.030-0.001 0.059-0.003 0.088l0-0.004c0.005 0.041 0.007 0.088 0.007 0.136 0 0.281-0.092 0.54-0.248 0.748l0.002-0.003v-0.026z"></path>
<path fill="#949494" d="M11.882 23.24l0.205-0.675 0.398-0.231 0.69 0.308 0.441-0.452v-0.051l-0.313-0.606 0.187-0.429 0.688-0.246h0.077v-0.624h-0.085l-0.68-0.205-0.223-0.393 0.298-0.701-0.449-0.436h-0.051l-0.606 0.308-0.416-0.257-0.272-0.76h-0.629v0.095l-0.205 0.675-0.434 0.187-0.742-0.341-0.434 0.452 0.044 0.085 0.323 0.634-0.169 0.434-0.801 0.249v0.631h0.092l0.672 0.205 0.187 0.436-0.331 0.734 0.452 0.444 0.077-0.044 0.629-0.323 0.434 0.169 0.29 0.76h0.621l0.033-0.033zM10.861 21.226c-0.168-0.165-0.272-0.395-0.272-0.649 0-0.502 0.406-0.909 0.906-0.909 0.247 0 0.471 0.099 0.634 0.26l-0-0c0.168 0.165 0.272 0.395 0.272 0.649 0 0.502-0.406 0.909-0.906 0.909-0.247 0-0.471-0.099-0.634-0.26l0 0z"></path>
</svg>
