<!-- Generated by IcoMoon.io -->
<svg version="1.1" xmlns="http://www.w3.org/2000/svg" width="32" height="32" viewBox="0 0 32 32">
<title>SQL-Managed-Instance</title>
<path fill="#000" d="M17.129 22.78c-0.006 0.27-0.221 0.488-0.487 0.493h-7.429c-0.269-0-0.487-0.221-0.488-0.493v-13.508c-0-0.003-0-0.006-0-0.010 0-0.268 0.215-0.486 0.479-0.486 0.003 0 0.006 0 0.009 0h7.428c0.269 0 0.488 0.221 0.488 0.494 0 0 0 0.001 0 0.001v-0 13.508z"></path>
<path fill="#003067" d="M9.957 13.806c0.005-0.505 0.407-0.913 0.905-0.919h4.196c0.007-0 0.015-0 0.024-0 0.503 0 0.911 0.41 0.916 0.918v0c-0.001 0.512-0.41 0.927-0.916 0.927-0.008 0-0.017-0-0.025-0l0.001 0h-4.196c-0.501-0.006-0.905-0.418-0.906-0.926v-0zM9.957 11.066c0.001-0.508 0.405-0.921 0.905-0.926h4.196c0.007-0 0.015-0 0.024-0 0.505 0 0.915 0.415 0.916 0.927v0c-0.005 0.509-0.413 0.919-0.916 0.919-0.008 0-0.017-0-0.025-0l0.001 0h-4.196c-0.498-0.006-0.901-0.414-0.906-0.918v-0z"></path>
<path fill="#50e6ff" d="M11.532 11.066c0 0.345-0.276 0.624-0.616 0.624s-0.616-0.279-0.616-0.624c0-0.345 0.276-0.624 0.616-0.624s0.616 0.279 0.616 0.624z"></path>
<path fill="#50e6ff" d="M11.532 13.805c0 0.345-0.276 0.624-0.616 0.624s-0.616-0.279-0.616-0.624c0-0.345 0.276-0.624 0.616-0.624s0.616 0.279 0.616 0.624z"></path>
<path fill="#000" d="M21.494 20.404c-0.048-1.432-1.108-2.599-2.477-2.79l-0.015-0.002c-0.102-1.937-1.678-3.469-3.606-3.469-0.040 0-0.080 0.001-0.12 0.002l0.006-0c-0.027-0.001-0.058-0.001-0.090-0.001-1.568 0-2.908 0.989-3.446 2.385l-0.009 0.026c-1.671 0.21-2.96 1.614-3.012 3.333l-0 0.005c0.075 1.884 1.601 3.382 3.472 3.382 0.043 0 0.087-0.001 0.13-0.002l-0.006 0h6.323c1.557-0.028 2.813-1.293 2.851-2.865l0-0.004z"></path>
<path fill="#f2f2f2" d="M19.944 20.724v-2.913h-0.796v3.572h2.097v-0.66h-1.301zM13.867 19.292c-0.167-0.074-0.31-0.163-0.44-0.27l0.004 0.003c-0.064-0.068-0.103-0.16-0.103-0.262 0-0.005 0-0.011 0-0.016l-0 0.001c-0-0.005-0-0.011-0-0.017 0-0.102 0.051-0.191 0.128-0.244l0.001-0.001c0.090-0.065 0.203-0.104 0.324-0.104 0.012 0 0.024 0 0.037 0.001l-0.002-0c0.016-0.001 0.035-0.001 0.053-0.001 0.3 0 0.579 0.094 0.808 0.256l-0.005-0.003v-0.747c-0.236-0.084-0.508-0.132-0.791-0.132-0.023 0-0.046 0-0.069 0.001l0.003-0c-0.021-0.001-0.045-0.002-0.069-0.002-0.325 0-0.625 0.109-0.866 0.292l0.004-0.003c-0.215 0.176-0.352 0.444-0.352 0.744 0 0.010 0 0.020 0 0.030l-0-0.001c0.030 0.489 0.355 0.894 0.795 1.037l0.008 0.002c0.2 0.085 0.373 0.19 0.528 0.316l-0.004-0.003c0.078 0.067 0.128 0.166 0.128 0.277v0c0 0.004 0 0.009 0 0.015 0 0.101-0.051 0.191-0.128 0.244l-0.001 0.001c-0.099 0.067-0.221 0.106-0.351 0.106-0.012 0-0.024-0-0.035-0.001l0.002 0c-0.356-0.003-0.68-0.141-0.925-0.365l0.001 0.001v0.798c0.247 0.125 0.537 0.198 0.845 0.198 0.012 0 0.025-0 0.037-0l-0.002 0c0.038 0.003 0.083 0.005 0.128 0.005 0.317 0 0.614-0.092 0.865-0.25l-0.007 0.004c0.224-0.171 0.368-0.44 0.368-0.744 0-0.016-0-0.033-0.001-0.049l0 0.002c0-0.010 0.001-0.021 0.001-0.033 0-0.22-0.081-0.421-0.214-0.574l0.001 0.001c-0.192-0.216-0.426-0.39-0.69-0.508l-0.013-0.005zM18.284 20.663c0.178-0.299 0.283-0.66 0.283-1.046 0-0.015-0-0.031-0-0.046l0 0.002c0.001-0.021 0.001-0.047 0.001-0.072 0-0.329-0.079-0.639-0.219-0.912l0.005 0.011c-0.134-0.27-0.336-0.488-0.583-0.638l-0.007-0.004c-0.239-0.143-0.527-0.228-0.834-0.228-0.026 0-0.052 0.001-0.078 0.002l0.004-0c-0.316 0.015-0.609 0.106-0.864 0.256l0.009-0.005c-0.268 0.159-0.482 0.386-0.622 0.658l-0.004 0.009c-0.146 0.286-0.231 0.625-0.231 0.984 0 0.002 0 0.005 0 0.007v-0c-0 0.009-0 0.019-0 0.029 0 0.32 0.076 0.623 0.211 0.89l-0.005-0.011c0.136 0.267 0.334 0.484 0.576 0.638l0.007 0.004c0.244 0.152 0.538 0.245 0.853 0.251l0.002 0 0.729 0.867h1.026l-1.019-0.952c0.328-0.142 0.591-0.384 0.758-0.687l0.004-0.008zM17.488 20.447c-0.145 0.186-0.368 0.304-0.618 0.304-0.012 0-0.024-0-0.035-0.001l0.002 0c-0.006 0-0.013 0-0.020 0-0.253 0-0.478-0.122-0.62-0.311l-0.001-0.002c-0.152-0.211-0.243-0.475-0.243-0.761 0-0.037 0.002-0.073 0.004-0.108l-0 0.005c-0.003-0.031-0.004-0.067-0.004-0.104 0-0.288 0.095-0.554 0.255-0.767l-0.002 0.003c0.145-0.196 0.374-0.321 0.631-0.321 0.009 0 0.018 0 0.027 0l-0.001-0c0.009-0 0.019-0.001 0.029-0.001 0.25 0 0.471 0.126 0.604 0.319l0.002 0.002c0.153 0.215 0.244 0.484 0.244 0.775 0 0.033-0.001 0.065-0.003 0.097l0-0.004c0.003 0.032 0.005 0.070 0.005 0.108 0 0.289-0.095 0.556-0.256 0.77l0.002-0.003z"></path>
</svg>
