<!-- Generated by IcoMoon.io -->
<svg version="1.1" xmlns="http://www.w3.org/2000/svg" width="32" height="32" viewBox="0 0 32 32">
<title>SQL-Elastic-Pool</title>
<path fill="#000" d="M15.656 23.022c0 0 0 0 0 0 0.19 0.19 0.497 0.19 0.687 0 0-0 0-0 0-0l6.679-6.679c0-0 0-0 0-0 0.19-0.19 0.19-0.497 0-0.687-0-0-0-0-0-0v0l-6.677-6.677c-0-0-0-0-0-0-0.19-0.19-0.497-0.19-0.687 0-0 0-0 0-0 0l-6.679 6.679c-0 0-0 0-0 0-0.19 0.19-0.19 0.497 0 0.687 0 0 0 0 0 0v0l6.677 6.677z"></path>
<path fill="#50e6ff" d="M16.002 11.549c-0.756 0-1.362-0.192-1.362-0.439v2.318c0 0.231 0.598 0.429 1.338 0.429h0.023c0.748 0 1.362-0.19 1.362-0.429v-2.318c0.008 0.247-0.564 0.439-1.362 0.439z"></path>
<path fill="#eaeaea" d="M17.371 11.11c0 0.247-0.613 0.437-1.362 0.437s-1.362-0.19-1.362-0.437c0-0.247 0.605-0.431 1.354-0.431s1.362 0.192 1.362 0.431h0.008z"></path>
<path fill="#50e6ff" d="M17.053 11.078c0 0.151-0.47 0.278-1.045 0.278-0.572 0-1.042-0.135-1.042-0.278s0.463-0.278 1.034-0.278c0.574 0 1.045 0.127 1.045 0.278h0.008z"></path>
<path fill="#32bedd" d="M16.001 11.142c-0.034-0.001-0.074-0.002-0.114-0.002-0.242 0-0.477 0.030-0.701 0.087l0.020-0.004c0.232 0.069 0.499 0.109 0.775 0.109 0.007 0 0.014-0 0.021-0h-0.001c0.007 0 0.015 0 0.023 0 0.276 0 0.543-0.040 0.795-0.114l-0.020 0.005c-0.206-0.053-0.442-0.083-0.686-0.083-0.039 0-0.079 0.001-0.118 0.002l0.006-0z"></path>
<path fill="#50e6ff" d="M16.002 19.043c-0.756 0-1.362-0.192-1.362-0.439v2.318c0 0.231 0.598 0.429 1.338 0.429h0.023c0.748 0 1.362-0.19 1.362-0.429v-2.318c0.008 0.247-0.564 0.439-1.362 0.439z"></path>
<path fill="#eaeaea" d="M17.371 18.605c0 0.247-0.613 0.437-1.362 0.437s-1.362-0.19-1.362-0.437c0-0.247 0.605-0.431 1.362-0.431s1.362 0.192 1.362 0.431z"></path>
<path fill="#50e6ff" d="M17.053 18.572c0 0.151-0.47 0.278-1.045 0.278-0.572 0-1.042-0.127-1.042-0.278s0.463-0.278 1.042-0.278c0.582 0 1.045 0.127 1.045 0.278z"></path>
<path fill="#32bedd" d="M16.001 18.637c-0.010-0-0.021-0-0.033-0-0.271 0-0.534 0.038-0.782 0.109l0.020-0.005c0.232 0.069 0.499 0.109 0.775 0.109 0.007 0 0.014-0 0.021-0h-0.001c0.007 0 0.015 0 0.023 0 0.276 0 0.543-0.040 0.795-0.114l-0.020 0.005c-0.23-0.066-0.494-0.104-0.768-0.104-0.011 0-0.021 0-0.032 0h0.002z"></path>
<path fill="#50e6ff" d="M19.363 15.276c-0.795 0-1.362-0.192-1.362-0.431v2.31c0 0.239 0.598 0.429 1.346 0.437 0.748 0 1.362-0.198 1.362-0.437v-2.31c0.016 0.239-0.598 0.431-1.346 0.431z"></path>
<path fill="#eaeaea" d="M20.724 14.845c0 0.239-0.613 0.429-1.362 0.429s-1.362-0.19-1.362-0.429c0-0.239 0.605-0.439 1.362-0.439s1.362 0.2 1.362 0.439z"></path>
<path fill="#50e6ff" d="M20.406 14.805c0 0.159-0.47 0.278-1.045 0.278-0.572 0-1.042-0.12-1.042-0.278s0.463-0.27 1.042-0.27c0.582 0 1.045 0.12 1.045 0.27z"></path>
<path fill="#32bedd" d="M19.362 14.87c-0.003 0-0.007-0-0.012-0-0.279 0-0.549 0.041-0.804 0.117l0.020-0.005c0.226 0.065 0.485 0.102 0.753 0.102 0.015 0 0.029-0 0.044-0l-0.002 0c0.013 0 0.029 0 0.044 0 0.268 0 0.528-0.037 0.774-0.107l-0.020 0.005c-0.236-0.071-0.508-0.112-0.789-0.112-0.003 0-0.006 0-0.009 0h0z"></path>
<path fill="#50e6ff" d="M12.752 15.276c-0.756 0-1.362-0.192-1.362-0.431v2.31c0 0.239 0.598 0.429 1.338 0.437 0.748 0 1.362-0.198 1.362-0.437v-2.31c0.023 0.239-0.59 0.431-1.338 0.431z"></path>
<path fill="#eaeaea" d="M14.114 14.845c0 0.239-0.613 0.429-1.362 0.429s-1.362-0.19-1.362-0.429c0-0.239 0.629-0.439 1.362-0.439s1.362 0.2 1.362 0.439z"></path>
<path fill="#50e6ff" d="M13.796 14.805c0 0.159-0.47 0.278-1.045 0.278-0.572 0-1.042-0.12-1.042-0.278s0.463-0.27 1.042-0.27c0.582 0 1.045 0.12 1.045 0.27z"></path>
<path fill="#32bedd" d="M12.751 14.87c-0.003 0-0.007-0-0.011-0-0.279 0-0.549 0.041-0.804 0.117l0.020-0.005c0.226 0.065 0.485 0.102 0.753 0.102 0.015 0 0.029-0 0.044-0l-0.002 0c0.013 0 0.029 0 0.044 0 0.268 0 0.528-0.037 0.774-0.107l-0.020 0.005c-0.236-0.071-0.508-0.112-0.789-0.112-0.003 0-0.006 0-0.009 0h0z"></path>
</svg>
