<!-- Generated by IcoMoon.io -->
<svg version="1.1" xmlns="http://www.w3.org/2000/svg" width="32" height="32" viewBox="0 0 32 32">
<title>SQL-Data-Warehouse</title>
<path fill="#000" d="M14.561 8.725l-5.836 3.321v0.821h1.073v6.231h1.055v-6.231h7.414v6.752h1.057v-6.752h1.073v-0.821l-5.836-3.321z"></path>
<path fill="#50e6ff" d="M11.909 19.097h2.12v-2.071h-2.12v2.071zM15.084 19.097h2.12v-2.071h-2.094l-0.026 2.071zM11.909 16h2.12v-2.097h-2.12v2.097zM15.109 13.903v2.097h2.094v-2.097h-2.094z"></path>
<path fill="#000" d="M19.593 17.207c-2.015 0-3.611-0.513-3.611-1.139v6.069c0 0.624 1.604 1.129 3.593 1.137h0.054c2.015 0 3.644-0.513 3.644-1.137v-6.069c-0.033 0.626-1.666 1.139-3.68 1.139z"></path>
<path fill="#e8e8e8" d="M23.24 16.069c0 0.624-1.632 1.137-3.647 1.137s-3.611-0.513-3.611-1.137c0-0.626 1.632-1.139 3.647-1.139s3.644 0.506 3.644 1.139h-0.033z"></path>
<path fill="#50e6ff" d="M22.394 16c0 0.403-1.258 0.726-2.8 0.726-1.545 0-2.792-0.349-2.792-0.726s1.247-0.729 2.792-0.729c1.542 0 2.8 0.326 2.8 0.729z"></path>
<path fill="#32bedd" d="M19.593 16.147c-0.056-0.001-0.121-0.002-0.187-0.002-0.722 0-1.42 0.1-2.081 0.287l0.053-0.013c0.615 0.18 1.321 0.284 2.052 0.284 0.057 0 0.115-0.001 0.172-0.002l-0.008 0c0.049 0.001 0.107 0.002 0.166 0.002 0.731 0 1.437-0.104 2.104-0.297l-0.052 0.013c-0.608-0.174-1.306-0.274-2.028-0.274-0.067 0-0.133 0.001-0.199 0.003l0.010-0z"></path>
</svg>
