<!-- Generated by IcoMoon.io -->
<svg version="1.1" xmlns="http://www.w3.org/2000/svg" width="26" height="32" viewBox="0 0 26 32">
<title>SQL-Database-Edge</title>
<path fill="#fff" opacity="0.4" d="M15.283 6.976c1.686 0.443 2.115 0.726 3.635 1.927-0.011-0.018-0.025-0.035-0.039-0.057-0.071-0.11-0.145-0.213-0.223-0.315-0.028-0.035-0.057-0.078-0.089-0.113-0.067-0.082-0.142-0.156-0.216-0.23-0.113-0.116-0.231-0.224-0.355-0.324l-0.007-0.005-0.004-0.004c-0.382-0.3-0.832-0.539-1.321-0.69l-0.029-0.008-0.064-0.021c-0.103-0.028-0.209-0.053-0.315-0.078-0.058-0.012-0.145-0.025-0.233-0.037l-0.022-0.002c-0.067-0.011-0.131-0.021-0.198-0.028-0.125-0.011-0.269-0.018-0.416-0.018-0.021 0-0.042 0-0.062 0l0.003-0-0.046 0.004z"></path>
<path fill="#000" d="M17.326 5.303c-1.12 0-2.027-0.319-2.027-0.712v3.791c0 0.39 0.893 0.709 1.998 0.712h0.028c1.12 0 2.027-0.319 2.027-0.712v-3.791c-0.004 0.393-0.911 0.712-2.027 0.712z"></path>
<path fill="#e8e8e8" d="M19.349 4.592c0 0.393-0.907 0.712-2.027 0.712s-2.023-0.319-2.023-0.712c0-0.393 0.907-0.712 2.027-0.712s2.027 0.319 2.027 0.712h-0.004z"></path>
<path fill="#50e6ff" d="M18.875 4.534c0 0.252-0.694 0.454-1.552 0.454s-1.552-0.202-1.552-0.454c0-0.248 0.694-0.454 1.555-0.454 0.857 0 1.552 0.205 1.552 0.454h-0.004z"></path>
<path fill="#198ab3" d="M17.326 4.638c-0.024-0.001-0.053-0.001-0.082-0.001-0.41 0-0.805 0.064-1.174 0.182l0.027-0.007c0.34 0.113 0.731 0.178 1.139 0.178 0.032 0 0.064-0 0.095-0.001l-0.005 0c0.027 0.001 0.059 0.001 0.091 0.001 0.407 0 0.799-0.065 1.164-0.186l-0.026 0.007c-0.343-0.111-0.738-0.174-1.148-0.174-0.029 0-0.057 0-0.085 0.001l0.004-0z"></path>
<path fill="#000" d="M22.189 13.805c-0.058-1.772-1.427-3.218-3.194-3.452l-0.019-0.002c-0.025-2.399-2.165-4.337-4.804-4.337-0.027-0-0.058-0.001-0.089-0.001-2.045 0-3.791 1.245-4.477 2.998l-0.011 0.032c-2.2 0.326-3.883 2.051-3.883 4.131 0 2.31 2.076 4.184 4.641 4.184 0.138 0 0.273-0.007 0.407-0.018h7.515c0.071-0.001 0.139-0.011 0.204-0.030l-0.005 0.001c2.069-0.081 3.717-1.623 3.717-3.508v0z"></path>
<path fill="#0072c6" d="M21.833 6.86c-0.507-0.645-1.378-0.957-2.484-0.971v1.074c0.776 0.014 1.339 0.202 1.608 0.549 0.932 1.187-0.762 5.077-5.633 8.716-4.875 3.642-9.169 4.223-10.101 3.036-0.528-0.673-0.202-2.218 1.059-4.089-0.215-0.344-0.383-0.743-0.48-1.168l-0.005-0.026c-1.8 2.399-2.448 4.663-1.449 5.934 1.601 2.041 6.817 0.772 11.646-2.834 4.825-3.607 7.44-8.181 5.839-10.221z"></path>
<path fill="#000" d="M12.528 15.274c-1.92 0-3.476-0.546-3.476-1.222v6.501c0 0.67 1.531 1.215 3.426 1.222h0.050c1.917 0 3.472-0.546 3.472-1.222v-6.501c0 0.677-1.555 1.222-3.472 1.222v0z"></path>
<path fill="#e8e8e8" d="M16 14.052c0 0.677-1.555 1.222-3.472 1.222-1.92 0-3.476-0.546-3.476-1.222 0-0.673 1.555-1.222 3.476-1.222 1.917 0 3.472 0.549 3.472 1.222z"></path>
<path fill="#50e6ff" d="M15.192 13.954c0 0.429-1.194 0.776-2.664 0.776s-2.664-0.347-2.664-0.776c0-0.429 1.194-0.779 2.664-0.779s2.664 0.351 2.664 0.779z"></path>
<path fill="#198ab3" d="M12.529 14.131c-0.046-0.001-0.1-0.002-0.155-0.002-0.699 0-1.372 0.108-2.002 0.308l0.046-0.012c0.584 0.194 1.256 0.307 1.956 0.307 0.055 0 0.109-0.001 0.164-0.002l-0.008 0c0.045 0.001 0.099 0.002 0.152 0.002 0.7 0 1.372-0.112 2-0.319l-0.044 0.013c-0.585-0.188-1.258-0.296-1.957-0.296-0.053 0-0.106 0.001-0.159 0.002l0.008-0z"></path>
<path fill="#000" d="M14.64 18.564v-1.775h-0.507v2.172h1.336v-0.397h-0.829zM10.775 17.689c-0.107-0.043-0.199-0.098-0.282-0.164l0.002 0.001c-0.042-0.041-0.068-0.098-0.068-0.16 0-0.003 0-0.006 0-0.009v0c-0-0.001-0-0.003-0-0.004 0-0.064 0.033-0.121 0.083-0.155l0.001-0c0.059-0.038 0.132-0.061 0.21-0.061 0.006 0 0.013 0 0.019 0l-0.001-0c0.004-0 0.009-0 0.014-0 0.188 0 0.363 0.057 0.506 0.154l-0.003-0.002v-0.453c-0.149-0.054-0.322-0.086-0.502-0.086-0.014 0-0.028 0-0.042 0.001l0.002-0c-0.014-0.001-0.030-0.001-0.046-0.001-0.207 0-0.398 0.067-0.551 0.18l0.002-0.002c-0.137 0.106-0.224 0.268-0.224 0.45 0 0.007 0 0.015 0 0.022l-0-0.001c0.021 0.299 0.228 0.545 0.509 0.633l0.005 0.001c0.127 0.052 0.237 0.115 0.336 0.19l-0.003-0.003c0.050 0.041 0.082 0.103 0.082 0.171v0c0 0.001 0 0.003 0 0.004 0 0.065-0.034 0.122-0.085 0.156l-0.001 0c-0.061 0.039-0.136 0.062-0.217 0.062-0.008 0-0.017-0-0.025-0.001l0.001 0c-0.228-0.001-0.435-0.084-0.593-0.22l0.001 0.001v0.485c0.157 0.076 0.341 0.121 0.537 0.121 0.014 0 0.029-0 0.043-0.001l-0.002 0c0.017 0.001 0.038 0.002 0.058 0.002 0.216 0 0.417-0.064 0.583-0.174l-0.004 0.002c0.143-0.104 0.234-0.269 0.234-0.454 0-0.009-0-0.017-0.001-0.026l0 0.001c0-0.005 0-0.011 0-0.017 0-0.136-0.051-0.26-0.136-0.355l0.001 0.001c-0.125-0.121-0.273-0.219-0.437-0.287l-0.009-0.003zM13.585 18.525c0.114-0.191 0.181-0.42 0.181-0.665 0-0.21-0.050-0.409-0.138-0.587l0.004 0.008c-0.087-0.166-0.218-0.3-0.378-0.391l-0.005-0.002c-0.154-0.087-0.339-0.138-0.536-0.138-0.006 0-0.011 0-0.017 0h0.001c-0.006-0-0.013-0-0.021-0-0.207 0-0.401 0.053-0.57 0.145l0.006-0.003c-0.173 0.097-0.31 0.237-0.398 0.405l-0.003 0.006c-0.089 0.169-0.142 0.368-0.142 0.58 0 0.008 0 0.016 0 0.024l-0-0.001c-0 0.004-0 0.009-0 0.014 0 0.196 0.048 0.382 0.134 0.545l-0.003-0.007c0.085 0.163 0.211 0.295 0.364 0.387l0.004 0.002c0.154 0.092 0.339 0.148 0.537 0.152l0.001 0 0.464 0.507h0.655l-0.648-0.585c0.215-0.073 0.39-0.213 0.504-0.393l0.002-0.004zM13.082 18.394c-0.093 0.113-0.235 0.185-0.394 0.185-0.007 0-0.014-0-0.021-0l0.001 0c-0.004 0-0.010 0-0.015 0-0.161 0-0.305-0.075-0.395-0.19l-0.001-0.001c-0.097-0.143-0.154-0.319-0.154-0.508 0-0.191 0.059-0.368 0.16-0.516l-0.002 0.003c0.094-0.119 0.241-0.195 0.406-0.195 0.004 0 0.008 0 0.013 0h-0.001c0.006-0 0.013-0 0.020-0 0.159 0 0.299 0.075 0.387 0.19l0.001 0.001c0.092 0.133 0.147 0.296 0.147 0.472 0 0.018-0.001 0.037-0.002 0.055l0-0.002c0.001 0.015 0.002 0.034 0.002 0.052 0 0.171-0.056 0.329-0.152 0.457l0.002-0.002z"></path>
</svg>
