<!-- Generated by IcoMoon.io -->
<svg version="1.1" xmlns="http://www.w3.org/2000/svg" width="34" height="32" viewBox="0 0 34 32">
<title>SQL-Server-Registry</title>
<path fill="#000" d="M14.335 12.871c-2.911 0-5.23-0.843-5.23-1.884v10.025c0 1.030 2.319 1.873 5.157 1.884h0.073c2.881 0 5.219-0.889 5.219-1.884v-10.025c0 1.041-2.338 1.884-5.219 1.884z"></path>
<path fill="#e8e8e8" d="M19.554 10.989c0 1.038-2.338 1.884-5.219 1.884-2.884 0-5.23-0.846-5.23-1.884 0-1.041 2.319-1.884 5.23-1.884 2.908 0 5.219 0.886 5.219 1.884z"></path>
<path fill="#50e6ff" d="M18.341 10.838c0 0.657-1.784 1.2-4.006 1.2-2.224 0-4.008-0.543-4.008-1.2s1.784-1.2 4.008-1.2c2.222 0 4.006 0.532 4.006 1.2z"></path>
<path fill="#198ab3" d="M14.333 11.113c-0.075-0.002-0.164-0.003-0.252-0.003-1.044 0-2.050 0.163-2.993 0.466l0.069-0.019c0.881 0.302 1.895 0.476 2.951 0.476 0.079 0 0.158-0.001 0.236-0.003l-0.012 0c0.068 0.002 0.149 0.003 0.229 0.003 1.052 0 2.064-0.174 3.007-0.495l-0.065 0.019c-0.871-0.283-1.874-0.447-2.914-0.447-0.090 0-0.18 0.001-0.269 0.004l0.013-0z"></path>
<path fill="#000" d="M17.51 17.945v-2.735h-0.73v3.349h1.997v-0.614h-1.268zM11.694 16.596c-0.161-0.071-0.3-0.154-0.426-0.252l0.005 0.003c-0.060-0.068-0.097-0.159-0.097-0.258 0-0.003 0-0.007 0-0.010v0c0-0 0-0 0-0 0-0.101 0.048-0.191 0.124-0.248l0.001-0.001c0.087-0.057 0.194-0.091 0.309-0.091 0.014 0 0.028 0.001 0.041 0.001l-0.002-0c0.292 0.007 0.56 0.102 0.78 0.26l-0.004-0.003v-0.719c-0.242-0.103-0.523-0.164-0.818-0.168h-0.001c-0.023-0.001-0.050-0.002-0.077-0.002-0.309 0-0.594 0.105-0.821 0.28l0.003-0.002c-0.207 0.164-0.338 0.415-0.338 0.696 0 0.008 0 0.016 0 0.024l-0-0.001c0.029 0.465 0.342 0.849 0.768 0.984l0.008 0.002c0.191 0.080 0.356 0.175 0.506 0.288l-0.006-0.004c0.074 0.066 0.121 0.161 0.124 0.267v0.001c0 0.003 0 0.006 0 0.009 0 0.101-0.052 0.189-0.131 0.239l-0.001 0.001c-0.092 0.061-0.205 0.098-0.326 0.098-0.011 0-0.021-0-0.032-0.001l0.001 0c-0.344-0-0.658-0.132-0.893-0.347l0.001 0.001v0.746c0.237 0.124 0.518 0.196 0.815 0.196 0.027 0 0.054-0.001 0.080-0.002l-0.004 0c0.025 0.001 0.054 0.002 0.083 0.002 0.326 0 0.628-0.101 0.876-0.273l-0.005 0.003c0.213-0.164 0.349-0.419 0.349-0.705 0-0.011-0-0.021-0.001-0.032l0 0.002c0.001-0.011 0.001-0.024 0.001-0.038 0-0.204-0.075-0.39-0.199-0.534l0.001 0.001c-0.194-0.179-0.425-0.321-0.681-0.412l-0.014-0.004zM15.888 17.883c0.184-0.281 0.296-0.624 0.303-0.993l0-0.002c0-0.012 0-0.027 0-0.041 0-0.31-0.076-0.602-0.211-0.858l0.005 0.010c-0.129-0.252-0.321-0.457-0.556-0.599l-0.007-0.004c-0.236-0.162-0.525-0.266-0.836-0.284l-0.004-0c-0.014-0-0.030-0.001-0.046-0.001-0.311 0-0.603 0.082-0.854 0.227l0.008-0.004c-0.26 0.157-0.463 0.384-0.585 0.656l-0.004 0.009c-0.124 0.261-0.197 0.567-0.197 0.889s0.073 0.628 0.202 0.902l-0.005-0.013c0.132 0.251 0.323 0.455 0.556 0.599l0.007 0.004c0.225 0.151 0.495 0.253 0.787 0.286l0.008 0.001 0.697 0.773h0.981l-0.973-0.889c0.316-0.134 0.567-0.367 0.721-0.66l0.004-0.008zM15.129 17.68c-0.14 0.174-0.354 0.284-0.593 0.284-0.011 0-0.022-0-0.033-0.001l0.002 0c-0.007 0-0.015 0-0.024 0-0.241 0-0.456-0.115-0.591-0.293l-0.001-0.002c-0.126-0.191-0.202-0.426-0.202-0.678 0-0.036 0.002-0.072 0.005-0.108l-0 0.005c-0.001-0.018-0.002-0.040-0.002-0.062 0-0.274 0.091-0.527 0.244-0.73l-0.002 0.003c0.136-0.185 0.354-0.303 0.599-0.303 0.010 0 0.020 0 0.030 0.001l-0.001-0c0.007-0 0.016-0 0.024-0 0.242 0 0.457 0.119 0.588 0.301l0.001 0.002c0.142 0.203 0.226 0.454 0.226 0.725 0 0.025-0.001 0.051-0.002 0.076l0-0.003c0.001 0.021 0.002 0.045 0.002 0.070 0 0.269-0.088 0.517-0.237 0.717l0.002-0.003h-0.035z"></path>
<path fill="#fff" d="M21.759 9.194h-3.257c-0.143 0-0.259 0.115-0.259 0.258v0l-0.001 6.991c0 0.142 0.116 0.258 0.259 0.258l5.649 0.002c0.143 0 0.259-0.115 0.259-0.258v0l0.001-4.632c0-0.142-0.116-0.258-0.259-0.258l-1.876 0.001c-0.143 0-0.259-0.115-0.259-0.258v0l0.002-1.848c0-0.142-0.116-0.258-0.259-0.258v0z"></path>
<path fill="#50e6ff" d="M21.642 9.522v1.778c0 0 0 0.001 0 0.001 0 0.353 0.288 0.64 0.643 0.64 0 0 0 0 0.001 0h1.787v4.441h-5.508v-6.86h3.078zM21.742 9.14h-3.303c-0.003-0-0.006-0-0.009-0-0.143 0-0.259 0.115-0.259 0.258 0 0 0 0 0 0v0l0 7.107c0 0 0 0 0 0 0 0.142 0.116 0.258 0.259 0.258 0.003 0 0.006-0 0.009-0l5.729 0.002c0.143 0 0.259-0.115 0.259-0.258v0l0.001-4.71c-0.008-0.126-0.107-0.227-0.231-0.24l-0.001-0-1.911-0.001c-0.143 0-0.259-0.115-0.259-0.258v0l-0.001-1.902c0-0.142-0.116-0.258-0.259-0.258v0l-0.025 0.001z"></path>
<path fill="#32bedd" d="M24.357 11.558l-2.419-2.4v1.954c0 0.001 0 0.001 0 0.002 0 0.242 0.195 0.44 0.437 0.444h1.982z"></path>
<path fill="#32bedd" d="M19.501 13.468c0 0.133 0.108 0.24 0.241 0.24l3.159 0.001c0.133 0 0.241-0.107 0.241-0.24v0c0-0.133-0.108-0.24-0.241-0.24l-3.16-0.001c-0.133 0-0.241 0.107-0.241 0.24v0z"></path>
<path fill="#32bedd" d="M19.501 14.276c0 0.133 0.108 0.24 0.241 0.24l3.159 0.001c0.133 0 0.241-0.107 0.241-0.24v0c0-0.133-0.108-0.24-0.241-0.24l-3.16-0.001c-0.133 0-0.241 0.107-0.241 0.24v0z"></path>
<path fill="#32bedd" d="M19.501 15.083c0 0.123 0.1 0.222 0.223 0.222v0l1.509 0.002c0.123 0 0.223-0.099 0.223-0.222v0c0-0.123-0.1-0.222-0.223-0.222v0l-1.508-0.002c-0.123 0-0.223 0.099-0.223 0.222v0z"></path>
</svg>
