<!-- Generated by IcoMoon.io -->
<svg version="1.1" xmlns="http://www.w3.org/2000/svg" width="28" height="32" viewBox="0 0 28 32">
<title>SQL-Database</title>
<path fill="#000" d="M14.181 12.695c-3.013 0-5.456-0.855-5.456-1.984v10.578c0 1.086 2.399 1.968 5.379 1.984h0.077c3.013 0 5.456-0.855 5.456-1.984v-10.578c0 1.104-2.443 1.984-5.456 1.984z"></path>
<path fill="#e8e8e8" d="M19.637 10.712c0 1.104-2.443 1.984-5.456 1.984s-5.456-0.855-5.456-1.984c0-1.132 2.443-1.986 5.456-1.986s5.456 0.855 5.456 1.986z"></path>
<path fill="#50e6ff" d="M18.37 10.549c0 0.701-1.881 1.265-4.188 1.265s-4.188-0.565-4.188-1.265c0-0.703 1.881-1.258 4.188-1.258s4.188 0.565 4.188 1.258z"></path>
<path fill="#198ab3" d="M14.181 10.865c-0.075-0.002-0.163-0.003-0.251-0.003-1.094 0-2.146 0.18-3.129 0.511l0.069-0.020c0.888 0.297 1.91 0.468 2.971 0.468 0.119 0 0.238-0.002 0.356-0.006l-0.017 0.001c0.084 0.003 0.182 0.004 0.28 0.004 1.084 0 2.126-0.183 3.097-0.52l-0.067 0.020c-0.897-0.291-1.928-0.459-2.999-0.459-0.11 0-0.219 0.002-0.327 0.005l0.016-0z"></path>
<path fill="#000" d="M17.501 18.055v-2.91h-0.767v3.534h2.094v-0.624h-1.327zM11.424 16.625c-0.167-0.069-0.31-0.159-0.436-0.269l0.002 0.002c-0.064-0.067-0.103-0.159-0.103-0.259 0-0.005 0-0.009 0-0.013l-0 0.001c-0-0.004-0-0.009-0-0.015 0-0.1 0.051-0.189 0.128-0.241l0.001-0.001c0.092-0.065 0.206-0.103 0.329-0.103 0.010 0 0.019 0 0.029 0.001l-0.001-0c0.019-0.001 0.041-0.001 0.063-0.001 0.294 0 0.567 0.093 0.791 0.251l-0.004-0.003v-0.734c-0.229-0.089-0.493-0.14-0.77-0.14-0.028 0-0.056 0.001-0.084 0.002l0.004-0c-0.022-0.001-0.048-0.002-0.073-0.002-0.324 0-0.622 0.111-0.859 0.297l0.003-0.002c-0.218 0.171-0.357 0.435-0.357 0.731 0 0.010 0 0.020 0 0.030l-0-0.001c0 0.436 0.272 0.78 0.852 1.037 0.201 0.087 0.374 0.19 0.532 0.312l-0.006-0.004c0.078 0.066 0.128 0.165 0.128 0.275v0c-0 0.109-0.053 0.205-0.135 0.264l-0.001 0.001c-0.1 0.060-0.221 0.096-0.35 0.096-0.012 0-0.023-0-0.034-0.001l0.002 0c-0.358-0.003-0.683-0.139-0.93-0.36l0.001 0.001v0.796c0.246 0.13 0.537 0.206 0.846 0.206 0.023 0 0.045-0 0.068-0.001l-0.003 0c0.028 0.002 0.061 0.003 0.094 0.003 0.34 0 0.655-0.107 0.915-0.289l-0.005 0.003c0.178-0.169 0.289-0.408 0.289-0.672 0-0.038-0.002-0.075-0.007-0.112l0 0.004c0-0.005 0-0.010 0-0.015 0-0.223-0.081-0.427-0.214-0.584l0.001 0.001c-0.194-0.206-0.429-0.371-0.692-0.483l-0.014-0.005zM15.885 17.985c0.176-0.293 0.28-0.646 0.28-1.025 0-0.019-0-0.037-0.001-0.056l0 0.003c-0.020-0.338-0.122-0.649-0.285-0.917l0.005 0.009c-0.137-0.27-0.341-0.488-0.591-0.638l-0.007-0.004c-0.242-0.14-0.532-0.223-0.841-0.223-0.003 0-0.006 0-0.009 0h0c-0.010-0-0.023-0-0.035-0-0.325 0-0.63 0.087-0.893 0.239l0.009-0.005c-0.264 0.149-0.475 0.364-0.617 0.623l-0.004 0.008c-0.141 0.276-0.223 0.601-0.223 0.946 0 0.010 0 0.020 0 0.030l-0-0.002c0.002 0.313 0.078 0.608 0.21 0.868l-0.005-0.011c0.133 0.267 0.334 0.483 0.581 0.63l0.007 0.004c0.242 0.151 0.534 0.245 0.846 0.257l0.003 0 0.734 0.855h1.029l-1.047-0.942c0.36-0.11 0.656-0.34 0.848-0.643l0.004-0.006zM15.033 17.773c-0.148 0.182-0.371 0.298-0.622 0.298-0.009 0-0.018-0-0.026-0l0.001 0c-0.008 0-0.016 0-0.025 0-0.252 0-0.477-0.12-0.62-0.307l-0.001-0.002c-0.156-0.212-0.249-0.479-0.249-0.768 0-0.031 0.001-0.061 0.003-0.091l-0 0.004c-0.002-0.026-0.003-0.056-0.003-0.087 0-0.29 0.094-0.557 0.252-0.774l-0.003 0.004c0.157-0.193 0.395-0.316 0.66-0.316 0.002 0 0.003 0 0.005 0h-0c0.009-0 0.020-0.001 0.031-0.001 0.249 0 0.47 0.124 0.604 0.314l0.002 0.002c0.146 0.217 0.234 0.484 0.234 0.772 0 0.030-0.001 0.060-0.003 0.089l0-0.004c0.004 0.036 0.006 0.078 0.006 0.121 0 0.28-0.092 0.539-0.247 0.747l0.002-0.003z"></path>
</svg>
