<!-- Generated by IcoMoon.io -->
<svg version="1.1" xmlns="http://www.w3.org/2000/svg" width="29" height="32" viewBox="0 0 29 32">
<title>Storsimple-Data-Manager</title>
<path fill="#000" d="M14.28 12.882c-2.842 0-5.144-0.807-5.144-1.88v9.974c0 1.025 2.261 1.866 5.072 1.89h0.073c2.842 0 5.152-0.807 5.152-1.866v-9.974c0.007 1.032-2.302 1.866-5.152 1.856z"></path>
<path fill="#f2f2f2" d="M19.439 11.025c0 1.035-2.309 1.866-5.152 1.859-2.842-0.010-5.144-0.809-5.144-1.883s2.309-1.873 5.135-1.866c2.828 0.007 5.144 0.855 5.144 1.89h0.017z"></path>
<path fill="#50e6ff" d="M18.236 10.872c0 0.654-1.769 1.187-3.95 1.18-2.181-0.010-3.94-0.543-3.94-1.204s1.769-1.187 3.933-1.18c2.164 0.010 3.947 0.543 3.94 1.204h0.017z"></path>
<path fill="#198ab3" d="M14.279 11.154c-0.064-0.002-0.139-0.002-0.215-0.002-1.043 0-2.046 0.167-2.986 0.475l0.068-0.019c0.847 0.284 1.822 0.448 2.836 0.448 0.105 0 0.209-0.002 0.312-0.005l-0.015 0c0.073 0.002 0.158 0.003 0.244 0.003 1.033 0 2.027-0.17 2.955-0.483l-0.065 0.019c-0.865-0.279-1.861-0.439-2.893-0.439-0.084 0-0.168 0.001-0.252 0.003l0.012-0z"></path>
<path fill="#fff" d="M17.080 16.952l-0.662-0.208c-0.041 0-0.065 0-0.080-0.073l-0.138-0.339c-0.004-0.018-0.006-0.039-0.006-0.061s0.002-0.042 0.006-0.063l-0 0.002c0.097-0.211 0.194-0.422 0.308-0.623 0.017-0.016 0.028-0.039 0.028-0.065s-0.011-0.048-0.028-0.065l-0-0c-0.114-0.113-0.228-0.21-0.332-0.331-0.019-0.030-0.052-0.049-0.089-0.049s-0.070 0.019-0.089 0.049l-0 0-0.566 0.284c-0.039 0-0.063 0-0.104 0l-0.33-0.138c-0.006 0.001-0.013 0.002-0.020 0.002-0.052 0-0.095-0.035-0.109-0.082l-0-0.001c-0.082-0.217-0.162-0.435-0.227-0.653-0.007-0.040-0.040-0.070-0.080-0.073l-0-0h-0.542c-0.056 0-0.063 0-0.097 0.065-0.063 0.225-0.136 0.443-0.218 0.662 0 0 0 0.073-0.073 0.080l-0.339 0.138c-0.019 0.008-0.041 0.012-0.065 0.012s-0.045-0.004-0.066-0.013l0.001 0-0.644-0.315c-0.014-0.009-0.030-0.014-0.048-0.014s-0.035 0.005-0.049 0.015l0-0c-0.121 0.128-0.242 0.267-0.38 0.388-0.013 0.012-0.022 0.029-0.022 0.048s0.008 0.037 0.022 0.048l0 0c0.104 0.201 0.201 0.412 0.315 0.613 0.010 0.019 0.015 0.041 0.015 0.065s-0.006 0.046-0.016 0.065l0-0.001-0.145 0.314c-0.007 0.050-0.046 0.090-0.096 0.097l-0.001 0c-0.218 0.082-0.436 0.162-0.654 0.228-0.056 0-0.073 0.039-0.073 0.087v0.567c0 0.056 0 0.080 0.065 0.097 0.225 0.063 0.443 0.153 0.662 0.218 0.043 0.010 0.075 0.045 0.081 0.088l0 0.001c-0.001 0.105 0.096 0.216 0.137 0.33 0.008 0.018 0.012 0.039 0.012 0.061s-0.005 0.043-0.013 0.062l0-0.001c-0.114 0.218-0.211 0.436-0.315 0.654-0.009 0.012-0.015 0.028-0.015 0.044s0.006 0.032 0.015 0.045l-0-0 0.405 0.396c0 0 0 0.041 0.063 0l0.388-0.201 0.284-0.179c0 0 0.073 0 0.111 0l0.339 0.138c0.041 0 0.058 0.041 0.073 0.080 0.082 0.218 0.162 0.453 0.228 0.671 0.011 0.041 0.046 0.070 0.089 0.073h0.532c0.058 0 0.073 0 0.097-0.065 0.073-0.218 0.155-0.443 0.218-0.662 0.010-0.037 0.037-0.067 0.072-0.080l0.001-0 0.347-0.137c0.015-0.008 0.033-0.012 0.053-0.012s0.037 0.004 0.053 0.012l-0.001-0 0.646 0.315c0.013 0.010 0.030 0.016 0.048 0.016s0.035-0.006 0.049-0.016l-0 0c0.121-0.128 0.252-0.267 0.388-0.388 0.138-0.121 0.041-0.056 0-0.114-0.099-0.169-0.204-0.375-0.299-0.588l-0.017-0.042c-0.015-0.016-0.024-0.037-0.024-0.061s0.009-0.045 0.024-0.061l-0 0c0.048-0.111 0.097-0.218 0.138-0.33 0.009-0.041 0.040-0.072 0.080-0.081l0.001-0c0.217-0.082 0.445-0.171 0.663-0.234 0.056 0 0.063-0.041 0.063-0.097 0-0.194 0-0.356 0-0.526s0.010-0.065-0.048-0.090zM15.175 18.181l-0.065 0.056c-0.22 0.186-0.507 0.299-0.821 0.299-0.256 0-0.494-0.075-0.694-0.205l0.005 0.003-0.080-0.056c-0.26-0.192-0.444-0.474-0.508-0.799l-0.001-0.008c-0.014-0.071-0.023-0.152-0.023-0.235 0-0.357 0.151-0.678 0.393-0.903l0.001-0.001c0.041-0.041 0.041-0.058 0-0.097l-0.104-0.121h0.63c0 0 0.039 0 0.039 0v0.62l-0.177-0.17c0 0 0-0.039-0.080 0-0.189 0.167-0.308 0.41-0.308 0.68 0 0.226 0.083 0.432 0.22 0.591l-0.001-0.001c0.040 0.046 0.085 0.086 0.136 0.12l0.002 0.002 0.097 0.048c0.126 0.085 0.281 0.136 0.448 0.136 0.001 0 0.002 0 0.003 0h-0c0.012 0.001 0.026 0.001 0.040 0.001 0.314 0 0.585-0.179 0.719-0.44l0.002-0.005c0.068-0.122 0.108-0.267 0.108-0.422 0-0.246-0.101-0.468-0.263-0.627l-0-0c0 0-0.080-0.058-0.087-0.114-0.010-0.056 0 0 0-0.056 0.052-0.048 0.1-0.098 0.143-0.152l0.002-0.003c0.111-0.087 0.111-0.087 0.194 0 0.247 0.24 0.4 0.574 0.4 0.945 0 0.355-0.14 0.677-0.369 0.914l0-0z"></path>
</svg>
