<!-- Generated by IcoMoon.io -->
<svg version="1.1" xmlns="http://www.w3.org/2000/svg" width="35" height="32" viewBox="0 0 35 32">
<title>Storage-Account</title>
<path fill="#000" d="M9.598 12.989h16.004v8.878c-0 0.295-0.24 0.533-0.536 0.534h-14.931c-0.296-0-0.536-0.239-0.536-0.534v-8.878z"></path>
<path fill="#37c2b1" d="M10.135 9.597h14.931c0.296 0 0.536 0.239 0.536 0.534 0 0.001 0 0.002 0 0.003v-0 2.854h-16.004v-2.865c0.005-0.291 0.243-0.525 0.536-0.525v0z"></path>
<path fill="#fff" d="M11.774 14.020h11.645c0.136 0.005 0.245 0.116 0.245 0.253 0 0 0 0 0 0v0l0.001 1.311c0 0 0 0 0 0 0 0.136-0.108 0.248-0.244 0.253l-11.646-0.002c-0.136-0.005-0.245-0.116-0.245-0.253 0-0 0-0 0-0v0l-0.001-1.311c0-0 0-0 0-0 0-0.136 0.108-0.248 0.244-0.253h0z"></path>
<path fill="#37c2b1" d="M11.783 16.631h11.645c0.136 0.005 0.245 0.116 0.245 0.253 0 0 0 0 0 0v0l0.001 1.322c0 0 0 0 0 0 0 0.136-0.108 0.248-0.244 0.253l-11.646-0.002c-0.136-0.005-0.245-0.116-0.245-0.253 0-0 0-0 0-0v0l-0.001-1.272c-0.003-0.014-0.004-0.030-0.004-0.047 0-0.138 0.111-0.25 0.249-0.253h0z"></path>
<path fill="#258277" d="M11.783 19.272h11.645c0.136 0.005 0.245 0.116 0.245 0.253 0 0 0 0 0 0v0l0.001 1.322c0 0 0 0 0 0 0 0.136-0.108 0.248-0.244 0.253l-11.646-0.002c-0.136-0.005-0.245-0.116-0.245-0.253 0-0 0-0 0-0v0l-0.001-1.32c0-0 0-0 0-0 0-0.136 0.108-0.248 0.244-0.253h0z"></path>
</svg>
