<!-- Generated by IcoMoon.io -->
<svg version="1.1" xmlns="http://www.w3.org/2000/svg" width="29" height="32" viewBox="0 0 29 32">
<title>Storage-Account-Table</title>
<path fill="#a0a1a2" d="M4.412 21.009c0 0.407 0.285 0.775 0.775 0.775h18.884c0.407 0 0.775-0.288 0.775-0.775v-13.499h-20.434v13.499z"></path>
<path fill="#7a7a7a" d="M24.072 4.413h-18.884c-0.49 0-0.775 0.368-0.775 0.775v2.325h20.434v-2.325c0-0.407-0.285-0.775-0.775-0.775z"></path>
<path fill="#fff" d="M12.096 8.857h5.15v3.099h-5.15v-3.099z"></path>
<path fill="#fcd116" d="M12.096 13.057h5.151v3.1h-5.151v-3.1zM18.227 13.057h5.147v3.1h-5.147v-3.1z"></path>
<path fill="#fff" d="M18.228 8.858h5.147v3.096h-5.147v-3.096zM5.965 8.858h5.151v3.096h-5.151v-3.096zM5.965 13.057h5.151v3.1h-5.151v-3.1z"></path>
<path fill="#fcd116" d="M5.965 17.216h5.151v3.1h-5.151v-3.1zM12.097 17.216h5.147v3.1h-5.147v-3.1zM18.228 17.216h5.147v3.1h-5.147v-3.1z"></path>
<path fill="#fff" opacity="0.2" d="M5.187 4.413c-0.368 0-0.775 0.364-0.775 0.775v15.821c0 0.407 0.407 0.775 0.775 0.775h0.862l16.185-17.371h-17.046z"></path>
</svg>
