<!-- Generated by IcoMoon.io -->
<svg version="1.1" xmlns="http://www.w3.org/2000/svg" width="30" height="32" viewBox="0 0 30 32">
<title>Storage-Explorer</title>
<path fill="#000" d="M21.014 13.91h-4.218c-0.123 0-0.222 0.1-0.222 0.224v0l-0.001 2.585c0 0.124-0.099 0.224-0.222 0.224v0l-3.743-0.002c-0.122 0-0.22 0.1-0.22 0.223v0l0 2.639c-0.001 0.124-0.1 0.224-0.223 0.224 0 0 0 0 0 0l-3.744-0.002c0 0 0 0 0 0-0.122 0-0.221 0.1-0.221 0.223v0l0.001 3.103c0.001 0.246 0.197 0.445 0.44 0.446h8.41c0 0 0 0 0 0 0.016 0 0.032-0.002 0.046-0.005l-0.001 0 3.916-0c0.001 0 0.001 0 0.002 0 0.245 0 0.444-0.201 0.444-0.448v-8.985c-0-0.248-0.199-0.448-0.444-0.448-0.001 0-0.001 0-0.002 0h0z"></path>
<path fill="#005ba1" d="M17.273 22.887c0 0.124 0.099 0.224 0.222 0.224l3.041-0.002c0.123 0 0.222-0.1 0.222-0.224v0l0.001-1.899c0-0.124-0.099-0.224-0.222-0.224l-3.041 0.002c-0.123 0-0.222 0.1-0.222 0.224v0l-0.001 1.899z"></path>
<path fill="#5ea0ef" d="M17.273 19.803c0 0.124 0.099 0.224 0.222 0.224l3.041-0.002c0.123 0 0.222-0.1 0.222-0.224v0l0.001-1.899c0-0.124-0.099-0.224-0.222-0.224l-3.041 0.002c-0.123 0-0.222 0.1-0.222 0.224v0l-0.001 1.899z"></path>
<path fill="#fff" d="M17.273 16.719c0 0.124 0.099 0.224 0.222 0.224l3.041-0.002c0.123 0 0.222-0.1 0.222-0.224v0l0.001-1.899c0-0.124-0.099-0.224-0.222-0.224l-3.041 0.002c-0.123 0-0.222 0.1-0.222 0.224v0l-0.001 1.899z"></path>
<path fill="#005ba1" d="M13.088 22.891c0 0.124 0.099 0.224 0.222 0.224l3.041-0.002c0.123 0 0.222-0.1 0.222-0.224v0l0.001-1.899c0-0.124-0.099-0.224-0.222-0.224l-3.041 0.002c-0.123 0-0.222 0.1-0.222 0.224v0l-0.001 1.899z"></path>
<path fill="#fff" d="M13.088 19.808c0 0.124 0.099 0.224 0.222 0.224l3.041-0.002c0.123 0 0.222-0.1 0.222-0.224v0l0.001-1.899c0-0.124-0.099-0.224-0.222-0.224l-3.041 0.002c-0.123 0-0.222 0.1-0.222 0.224v0l-0.001 1.899z"></path>
<path fill="#005ba1" d="M8.902 22.891c0 0.124 0.099 0.224 0.222 0.224l3.041-0.002c0.123 0 0.222-0.1 0.222-0.224v0l0.001-1.899c0-0.124-0.099-0.224-0.222-0.224l-3.041 0.002c-0.123 0-0.222 0.1-0.222 0.224v0l-0.001 1.899z"></path>
<path fill="#5ea0ef" d="M12.343 13.667c0 0.147 0.118 0.267 0.264 0.267l3.613-0c0.146 0 0.264-0.12 0.264-0.267v0l0-2.256c0-0.147-0.118-0.267-0.264-0.267l-3.613 0c-0.146 0-0.264 0.12-0.264 0.267v0l-0 2.256z"></path>
<path fill="#0078d4" d="M8.201 23.531c0 0.147 0.118 0.267 0.264 0.267l3.613-0c0.146 0 0.264-0.119 0.264-0.267v0l0-2.256c0-0.147-0.118-0.267-0.264-0.267l-3.613 0c-0.146 0-0.264 0.119-0.264 0.267v0l-0 2.256z"></path>
<path fill="#83b9f9" d="M8.201 23.531c0 0.147 0.118 0.267 0.264 0.267l3.613-0c0.146 0 0.264-0.119 0.264-0.267v0l0-2.256c0-0.147-0.118-0.267-0.264-0.267l-3.613 0c-0.146 0-0.264 0.119-0.264 0.267v0l-0 2.256z"></path>
</svg>
