<!-- Generated by IcoMoon.io -->
<svg version="1.1" xmlns="http://www.w3.org/2000/svg" width="34" height="32" viewBox="0 0 34 32">
<title>Storsimple-Device-Manager</title>
<path fill="#000" d="M24.381 16.415c-0.058-1.654-1.321-3.002-2.952-3.227l-0.018-0.002c-0.106-2.256-1.997-4.045-4.314-4.045-0.047 0-0.093 0.001-0.139 0.002l0.007-0c-0.025-0-0.053-0.001-0.082-0.001-1.892 0-3.508 1.164-4.142 2.802l-0.010 0.030c-1.991 0.243-3.526 1.863-3.589 3.846l-0 0.006c0.087 2.18 1.91 3.914 4.146 3.914 0.052 0 0.103-0.001 0.155-0.003l-0.007 0h7.323c0.028 0.002 0.061 0.004 0.094 0.004s0.066-0.001 0.098-0.004l-0.004 0c1.873-0.019 3.39-1.49 3.436-3.319l0-0.004z"></path>
<path fill="#198ab3" d="M9.14 22.609c0 0.138 0.114 0.249 0.254 0.249l3.090 0.001c0.14 0 0.254-0.112 0.254-0.249v0l0.001-0.248c0-0.138-0.114-0.249-0.254-0.249l-3.093-0.001c-0.14 0-0.254 0.112-0.254 0.249v0l0.001 0.248z"></path>
<path fill="#32bedd" d="M16.956 21.023c0 0.138 0.114 0.249 0.254 0.249l3.090 0.001c0.14 0 0.254-0.112 0.254-0.249v0l0.001-0.248c0-0.138-0.114-0.249-0.254-0.249l-3.093-0.001c-0.14 0-0.254 0.112-0.254 0.249v0l0.001 0.248z"></path>
<path fill="#50e6ff" d="M16.956 19.446c0 0.138 0.114 0.249 0.254 0.249l3.090 0.001c0.14 0 0.254-0.112 0.254-0.249v0l0.001-0.248c0-0.138-0.114-0.249-0.254-0.249l-3.093-0.001c-0.14 0-0.254 0.112-0.254 0.249v0l0.001 0.248z"></path>
<path fill="#f2f2f2" d="M13.332 15.502c0 0.138 0.114 0.249 0.254 0.249l3.090 0.001c0.14 0 0.254-0.112 0.254-0.249v0l0.001-0.248c0-0.138-0.114-0.249-0.254-0.249l-3.093-0.001c-0.14 0-0.254 0.112-0.254 0.249v0l0.001 0.248z"></path>
<path fill="#f2f2f2" d="M13.332 16.955c0 0.138 0.114 0.249 0.254 0.249l3.090 0.001c0.14 0 0.254-0.112 0.254-0.249v0l0.001-0.248c0-0.138-0.114-0.249-0.254-0.249l-3.093-0.001c-0.14 0-0.254 0.112-0.254 0.249v0l0.001 0.248z"></path>
<path fill="#f2f2f2" d="M13.332 18.416c0 0.138 0.114 0.249 0.254 0.249l3.090 0.001c0.14 0 0.254-0.112 0.254-0.249v0l0.001-0.248c0-0.138-0.114-0.249-0.254-0.249l-3.093-0.001c-0.14 0-0.254 0.112-0.254 0.249v0l0.001 0.248z"></path>
</svg>
