<!-- Generated by IcoMoon.io -->
<svg version="1.1" xmlns="http://www.w3.org/2000/svg" width="29" height="32" viewBox="0 0 29 32">
<title>Storage-Account-Container</title>
<path fill="#a0a1a2" d="M4.412 21.009c0 0.407 0.328 0.775 0.735 0.775h18.924c0.407 0 0.775-0.328 0.775-0.775v-13.463h-20.434v13.463z"></path>
<path fill="#7a7a7a" d="M24.072 4.413h-18.924c-0.407 0-0.735 0.364-0.735 0.771v2.321h20.434v-2.321c0-0.407-0.324-0.771-0.775-0.771z"></path>
<path fill="#fff" opacity="0.8" d="M19.944 11.41v-0.977h-6.214l-1.471-1.467h-3.882v10.702c0 0.324 0.245 0.57 0.573 0.57h11.117c0.328 0 0.573-0.245 0.573-0.57v-8.258h-0.696z"></path>
<path fill="#ff8c00" d="M9.519 11.41v8.258c0 0.324-0.245 0.57-0.57 0.57-0.328 0-0.573-0.245-0.573-0.57v-10.702h3.925l1.471 1.467h6.171v0.977h-10.425z"></path>
<path fill="#fff" opacity="0.2" d="M5.23 4.412c-0.451 0-0.818 0.368-0.818 0.815v15.702c0 0.447 0.368 0.815 0.818 0.815h0.898l16.105-17.331h-17.003z"></path>
</svg>
