<!-- Generated by IcoMoon.io -->
<svg version="1.1" xmlns="http://www.w3.org/2000/svg" width="27" height="32" viewBox="0 0 27 32">
<title>Storage-Sync-Service</title>
<path fill="#000" d="M24.529 12.944c-0.082-2.514-1.931-4.563-4.32-4.906l-0.027-0.003c-0.156-3.426-2.922-6.143-6.312-6.143-0.068 0-0.136 0.001-0.204 0.003l0.010-0c-0.031-0.001-0.067-0.001-0.104-0.001-2.773 0-5.141 1.767-6.076 4.255l-0.015 0.045c-2.919 0.359-5.17 2.826-5.251 5.845l-0 0.008c0.128 3.31 2.795 5.943 6.066 5.943 0.076 0 0.151-0.001 0.227-0.004l-0.011 0h10.715c0.041 0.003 0.089 0.005 0.138 0.005s0.096-0.002 0.144-0.006l-0.006 0c2.739-0.029 4.957-2.261 5.027-5.036l0-0.007z"></path>
<path fill="#000" d="M9.082 7.837h-6.852v12.359c0.002 0.361 0.289 0.653 0.644 0.653 0 0 0.001 0 0.001 0h6.195c0.354-0.002 0.64-0.293 0.641-0.653v-11.706c-0.001-0.356-0.281-0.645-0.629-0.653h-0.001z"></path>
<path fill="#fff" d="M9.195 7.837c-0.004 0-0.009 0.001-0.013 0.001-0.062 0-0.111-0.051-0.111-0.114 0-0.005 0-0.009 0.001-0.014l-0 0.001 0.002-1.463c-0.009-0.069-0.066-0.121-0.135-0.121-0.008 0-0.016 0.001-0.023 0.002l0.001-0c-0.027 0.001-0.047 0.013-0.067 0.029l-2.478 2.525c-0.022 0.023-0.035 0.054-0.035 0.088s0.014 0.066 0.035 0.088l-0-0 2.478 2.522c0.023 0.020 0.054 0.032 0.087 0.032 0.020 0 0.039-0.004 0.056-0.012l-0.001 0c0.046-0.021 0.078-0.067 0.081-0.12v-0l0.001-1.516c0-0 0-0 0-0 0-0.070 0.055-0.126 0.124-0.126 0 0 0 0 0 0l1.237 0v-1.801h-1.239z"></path>
<path fill="#003067" d="M11.509 12.401c-0-0.004-0-0.009-0-0.014 0-0.226 0.090-0.431 0.236-0.58v0c0.146-0.148 0.347-0.24 0.57-0.24 0.004 0 0.009 0 0.013 0h3.716c0 0 0 0 0 0 0.452 0 0.818 0.373 0.818 0.833 0 0 0 0.001 0 0.001v-0c-0.008 0.454-0.371 0.818-0.818 0.818-0 0-0 0-0 0h-3.717c-0.005 0-0.011 0-0.016 0-0.219 0-0.417-0.089-0.562-0.232l0 0c-0.148-0.149-0.24-0.355-0.24-0.584 0-0.001 0-0.002 0-0.003v0zM11.509 9.93c0-0.001 0-0.001 0-0.002 0-0.46 0.366-0.832 0.817-0.832 0 0 0.001 0 0.001 0h3.717c0.45 0.007 0.812 0.376 0.818 0.833v0.001c-0.008 0.456-0.37 0.823-0.818 0.83h-3.718c-0 0-0 0-0 0-0.451 0-0.816-0.371-0.818-0.83v-0z"></path>
<path fill="#50e6ff" d="M12.35 10.484c0.006 0 0.012 0 0.019 0 0.301 0 0.545-0.248 0.545-0.555s-0.244-0.555-0.545-0.555c-0.007 0-0.013 0-0.020 0l0.001-0c-0.293 0.011-0.527 0.255-0.527 0.555s0.234 0.544 0.526 0.555l0.001 0zM12.35 12.954c0.005 0 0.010 0 0.016 0 0.301 0 0.545-0.248 0.545-0.555s-0.244-0.555-0.545-0.555c-0.006 0-0.011 0-0.017 0l0.001-0c-0.294 0.009-0.529 0.254-0.529 0.555s0.235 0.545 0.528 0.555l0.001 0z"></path>
<path fill="#0078d4" d="M14.471 17.154l-2.478 2.525c-0.023 0.020-0.054 0.032-0.087 0.032-0.020 0-0.039-0.004-0.056-0.012l0.001 0c-0.046-0.021-0.078-0.067-0.081-0.12v-0l-0.001-1.488c-0-0.070-0.055-0.126-0.124-0.126v0l-1.288 0v-1.805h1.326c0.004 0 0.008 0.001 0.013 0.001 0.031 0 0.059-0.013 0.079-0.033v0c0.020-0.020 0.033-0.049 0.033-0.080 0-0.005-0-0.009-0.001-0.014l0 0.001 0.002-1.463c0.009-0.069 0.066-0.121 0.135-0.121 0.034 0 0.064 0.012 0.088 0.033l-0-0 2.475 2.523c0.012 0.028 0.016 0.055 0.008 0.083s-0.023 0.052-0.044 0.069l-0 0 0.001-0.002z"></path>
</svg>
