<!-- Generated by IcoMoon.io -->
<svg version="1.1" xmlns="http://www.w3.org/2000/svg" width="28" height="32" viewBox="0 0 28 32">
<title>Stream-Analytics-Job</title>
<path fill="#000" d="M20.164 11.982v-2.16l-0.127-0.11-2.372-0.748-0.605-1.436 1.174-2.27 0.127-0.254-0.773-0.736-0.9-0.83-0.311 0.143-2.319 1.1-1.558-0.413-1.006-2.413h-2.307l-0.115 0.11-0.802 2.209-1.62 0.564-2.683-1.207-1.648 1.509 0.155 0.29 1.235 2.196c1.139-0.653 2.517-1.040 3.992-1.040 0.046 0 0.092 0 0.138 0.001l-0.007-0c1.725 0.009 3.32 0.524 4.626 1.394l-0.025-0.016c0.175 0.103 0.326 0.205 0.469 0.316l-0.007-0.005c0.531 0.432 0.942 0.981 1.189 1.605l0.009 0.027c0.173 0.396 0.274 0.856 0.274 1.337v0c-0 2.153-1.864 3.898-4.162 3.898-0.009 0-0.019-0-0.028-0h0.001c-0.902-0.001-1.738-0.267-2.422-0.72l0.013 0.008c-1.347 1.215-3.144 2-5.135 2.114l-0.023 0.001-0.241 0.47 1.648 1.554 0.335-0.082 2.319-1.207 1.595 0.614 1.018 2.61h2.319l0.090-0.303 0.826-2.307 1.571-0.614 2.72 1.207 1.636-1.522-0.155-0.29-1.198-2.16 0.491-1.509 2.577-0.928z"></path>
<path fill="#50e6ff" d="M7.466 13.142c-0.006 0-0.014 0-0.021 0-1.279 0-2.436-0.484-3.275-1.268l0 0c-0.171-0.099-0.283-0.274-0.283-0.473 0-0.307 0.265-0.555 0.593-0.555 0.23 0 0.429 0.123 0.527 0.302l0.002 0.003c0.611 0.545 1.44 0.881 2.353 0.881 0.037 0 0.074-0.001 0.11-0.002l-0.005 0c0.026 0.001 0.057 0.001 0.088 0.001 0.908 0 1.732-0.336 2.338-0.881l-0.001 0.001c0.822-0.747 1.945-1.208 3.183-1.208 0.036 0 0.071 0 0.106 0.001l-0.005-0c0.025-0 0.054-0.001 0.084-0.001 1.252 0 2.39 0.46 3.231 1.209l-0.002-0.002c0.107 0.101 0.174 0.239 0.174 0.393 0 0.307-0.265 0.555-0.593 0.555-0.164 0-0.312-0.062-0.419-0.163v0c-0.625-0.582-1.486-0.943-2.437-0.945h-0c-0.006-0-0.013-0-0.020-0-0.94 0-1.791 0.362-2.401 0.944l-0.001 0.001c-0.834 0.748-1.967 1.208-3.215 1.208-0.039 0-0.078-0-0.116-0.001l0.006 0z"></path>
<path fill="#50e6ff" d="M7.468 10.933c-0.634-0.001-1.208-0.242-1.624-0.63l0 0c-0.107-0.101-0.174-0.239-0.174-0.393 0-0.307 0.265-0.555 0.593-0.555 0.164 0 0.312 0.062 0.419 0.163v0c0.196 0.187 0.47 0.303 0.771 0.303 0.005 0 0.010-0 0.015-0h-0.001c0.298-0.026 0.564-0.136 0.775-0.304l-0.002 0.002c1.27-1.174 3.015-1.899 4.941-1.899s3.671 0.725 4.942 1.899l-0.001-0.001c0.092 0.097 0.148 0.226 0.148 0.367 0 0.307-0.265 0.555-0.593 0.555-0.149 0-0.286-0.052-0.39-0.137l0.001 0.001c-1.059-0.986-2.519-1.595-4.131-1.595s-3.072 0.609-4.131 1.595l0-0c-0.41 0.361-0.952 0.594-1.551 0.63l-0.007 0z"></path>
<path fill="#32bedd" d="M7.468 15.35c-0.014 0-0.030 0-0.046 0-1.93 0-3.677-0.735-4.94-1.922l-0-0c-0.099-0.101-0.16-0.236-0.16-0.384s0.061-0.284 0.161-0.385l-0 0c0.109-0.101 0.26-0.164 0.425-0.164s0.316 0.062 0.425 0.164l-0-0c1.043 0.983 2.488 1.591 4.085 1.591 0.018 0 0.035-0 0.053-0l-0.003 0c0.003 0 0.006 0 0.009 0 1.608 0 3.063-0.613 4.113-1.603l0-0c0.414-0.348 0.956-0.568 1.553-0.593l0.005-0c0.628 0.009 1.195 0.246 1.612 0.626l-0.001-0c0.107 0.1 0.174 0.239 0.174 0.393s-0.066 0.292-0.174 0.393v0c-0.109 0.101-0.26 0.164-0.425 0.164s-0.316-0.062-0.425-0.164l0 0c-0.194-0.184-0.463-0.298-0.761-0.299h-0c-0.3 0.021-0.568 0.135-0.774 0.312l0.001-0.001c-1.257 1.158-2.983 1.873-4.887 1.873-0.007 0-0.015 0-0.022-0h0.001z"></path>
</svg>
