<!-- Generated by IcoMoon.io -->
<svg version="1.1" xmlns="http://www.w3.org/2000/svg" width="26" height="32" viewBox="0 0 26 32">
<title>Subscription</title>
<path fill="#000" d="M16.986 14.469c0.29-0.303 0.469-0.721 0.469-1.183s-0.179-0.88-0.469-1.183l0 0-2.766-2.887c-0.289-0.302-0.69-0.489-1.132-0.489s-0.842 0.187-1.132 0.489l-2.761 2.887c-0.29 0.303-0.469 0.721-0.469 1.183s0.179 0.88 0.469 1.183l-0-0 2.299 2.399c0.081 0.085 0.131 0.202 0.131 0.331 0 0.001 0 0.002 0 0.003v-0 4.463c0 0.001 0 0.002 0 0.003 0 0.157 0.061 0.299 0.159 0.403l-0-0 1.050 1.093c0.066 0.068 0.156 0.111 0.257 0.111s0.191-0.042 0.257-0.111v0l1.016-1.060v-0.013l0.598-0.624c0.038-0.040 0.061-0.094 0.061-0.154s-0.023-0.115-0.061-0.154v0l-0.431-0.451c-0.040-0.044-0.065-0.103-0.065-0.169s0.025-0.125 0.065-0.169l-0 0 0.431-0.448c0.038-0.040 0.061-0.094 0.061-0.154s-0.023-0.115-0.061-0.154v0l-0.431-0.448c-0.040-0.044-0.065-0.103-0.065-0.169s0.025-0.125 0.065-0.169l-0 0 0.434-0.451c0.038-0.039 0.061-0.094 0.061-0.154s-0.023-0.114-0.061-0.154v0l-0.601-0.626v-0.231l2.623-2.743zM13.091 9.914c0 0 0 0 0.001 0 0.504 0 0.912 0.425 0.912 0.95s-0.408 0.95-0.912 0.95c-0.504 0-0.912-0.425-0.912-0.95 0-0 0-0 0-0v0c0-0 0-0 0-0.001 0-0.524 0.408-0.949 0.911-0.949 0 0 0 0 0 0v0z"></path>
<path fill="#ff9300" opacity="0.75" d="M12.372 21.76c0.035 0.035 0.083 0.056 0.135 0.056 0.108 0 0.196-0.091 0.196-0.204 0-0.003-0-0.006-0-0.008v0l-0.002-3.612c0-0 0-0.001 0-0.001 0-0.074-0.035-0.139-0.089-0.178l-0.001-0c-0.030-0.020-0.067-0.033-0.106-0.033-0.108 0-0.196 0.092-0.196 0.204 0 0.003 0 0.005 0 0.008v-0 3.613c0 0 0 0.001 0 0.001 0 0.060 0.024 0.115 0.062 0.154l0 0zM11.122 13.065h4.052c0.135 0 0.245 0.114 0.245 0.255v0l0.001 0.047c0 0.142-0.11 0.256-0.246 0.256v0l-4.053 0c-0.135 0-0.245-0.114-0.245-0.255v0l-0.001-0.050c0-0.142 0.11-0.256 0.246-0.256v0l0 0.002zM11.122 13.974h4.052c0.135 0 0.245 0.114 0.245 0.255v0l0.001 0.047c0 0.141-0.11 0.255-0.245 0.255v0l-4.053 0.001c-0.136 0-0.246-0.115-0.246-0.256v0l-0-0.047c0-0.142 0.11-0.256 0.246-0.256v0z"></path>
</svg>
