<!-- Generated by IcoMoon.io -->
<svg version="1.1" xmlns="http://www.w3.org/2000/svg" width="32" height="32" viewBox="0 0 32 32">
<title>Tag</title>
<path fill="#000" d="M23.135 10.861l-1.971-1.984c-0.087-0.093-0.21-0.151-0.347-0.151-0.003 0-0.005 0-0.008 0h0l-3.649 0.144c-0.006-0-0.013-0-0.020-0-0.125 0-0.238 0.054-0.316 0.141l-0 0-7.958 8.058c-0.086 0.089-0.139 0.211-0.139 0.346s0.053 0.257 0.14 0.347l-0-0 5.305 5.369c0.089 0.089 0.211 0.144 0.346 0.144s0.257-0.055 0.347-0.144l-0 0 7.981-8.063c0.080-0.080 0.132-0.188 0.141-0.309l0-0.002 0.287-3.511c0.001-0.013 0.002-0.029 0.002-0.044 0-0.133-0.054-0.254-0.141-0.341l-0-0zM20.761 12.177c-0.491-0-0.889-0.405-0.889-0.905s0.398-0.905 0.89-0.905 0.89 0.405 0.89 0.905c0 0.002 0 0.004-0 0.007v-0c0 0.001 0 0.001 0 0.002 0 0.495-0.395 0.896-0.881 0.896-0.003 0-0.006-0-0.009-0h0z"></path>
<path fill="#552f99" d="M20.761 9.673c-0.87 0.005-1.572 0.723-1.572 1.608 0 0.888 0.708 1.608 1.582 1.608s1.582-0.72 1.582-1.608c0-0.001 0-0.001 0-0.002v0c-0.006-0.888-0.715-1.607-1.59-1.607-0 0-0.001 0-0.001 0h0zM21.636 11.457c-0.085 0.417-0.443 0.726-0.872 0.726-0.491 0-0.89-0.405-0.89-0.905 0-0.437 0.304-0.801 0.709-0.886l0.006-0.001c0.053-0.011 0.113-0.018 0.175-0.018 0.491 0 0.89 0.405 0.89 0.905 0 0.063-0.006 0.125-0.018 0.184l0.001-0.006z"></path>
</svg>
