<!-- Generated by IcoMoon.io -->
<svg version="1.1" xmlns="http://www.w3.org/2000/svg" width="24" height="32" viewBox="0 0 24 32">
<title>Tags</title>
<path fill="#57a300" d="M15.52 9.324l-3.717 0.148-7.776 7.72 5.523 5.484 7.773-7.72 0.303-3.543-2.105-2.089zM15.822 12.195c-0.303 0.299-0.789 0.299-1.092 0-0.299-0.299-0.299-0.783 0-1.082 0.303-0.299 0.789-0.299 1.092 0 0.299 0.299 0.299 0.783 0 1.082z"></path>
<path fill="#1e1e1e" opacity="0.3" d="M16.274 5.369c-0.566-0.559-1.428-0.559-1.993 0-0.563 0.559-0.563 1.418 0 1.977 0.566 0.559 1.428 0.559 1.993 0 0.563-0.559 0.563-1.454 0-1.977zM15.82 6.899c-0.299 0.299-0.786 0.299-1.089 0-0.299-0.299-0.299-0.783 0-1.082 0.303-0.299 0.789-0.299 1.089 0 0.303 0.299 0.303 0.783 0 1.082z"></path>
<path fill="#3999c6" d="M16.647 6.675l-3.717 0.148-7.776 7.72 5.523 5.484 7.773-7.72 0.303-3.543-2.105-2.089zM16.949 9.547c-0.303 0.299-0.789 0.299-1.092 0-0.299-0.299-0.299-0.783 0-1.082 0.303-0.299 0.789-0.299 1.092 0 0.299 0.299 0.299 0.783 0 1.082z"></path>
<path fill="#fff" opacity="0.098" d="M5.153 14.544l5.523 5.484 1.237-1.23v-10.967l-6.76 6.714z"></path>
<path fill="#1e1e1e" opacity="0.3" d="M17.401 8.018c-0.566-0.559-1.428-0.559-1.993 0-0.563 0.559-0.563 1.418 0 1.977 0.566 0.559 1.428 0.559 1.993 0 0.563-0.559 0.563-1.418 0-1.977zM16.947 9.547c-0.299 0.299-0.786 0.299-1.089 0-0.299-0.299-0.299-0.783 0-1.082 0.303-0.299 0.789-0.299 1.089 0 0.303 0.299 0.303 0.783 0 1.082z"></path>
<path fill="#804998" d="M15.52 9.324l-3.717 0.148-7.776 7.72 5.523 5.484 7.773-7.72 0.303-3.543-2.105-2.089zM15.822 12.195c-0.303 0.299-0.789 0.299-1.092 0-0.299-0.299-0.299-0.783 0-1.082 0.303-0.299 0.789-0.299 1.092 0 0.299 0.299 0.299 0.783 0 1.082z"></path>
<path fill="#fff" opacity="0.098" d="M4.026 17.192l5.523 5.484 1.237-1.23v-10.967l-6.76 6.714z"></path>
<path fill="#1e1e1e" opacity="0.3" d="M18.527 10.666c-0.566-0.559-1.428-0.559-1.993 0-0.563 0.559-0.563 1.418 0 1.977 0.566 0.559 1.428 0.559 1.993 0 0.563-0.559 0.563-1.418 0-1.977zM18.073 12.195c-0.299 0.299-0.786 0.299-1.089 0-0.299-0.299-0.299-0.783 0-1.082 0.303-0.299 0.789-0.299 1.089 0 0.303 0.299 0.303 0.783 0 1.082z"></path>
</svg>
