<!-- Generated by IcoMoon.io -->
<svg version="1.1" xmlns="http://www.w3.org/2000/svg" width="25" height="32" viewBox="0 0 25 32">
<title>Template</title>
<path fill="#59b4d9" d="M20.046 6.564l-1.829-1.793-0.763-0.743h-13.428v18.648h16.783v-15.369l-0.763-0.743z"></path>
<path fill="#fff" opacity="0.8" d="M17.378 4.772h-12.589v17.158h15.26v-14.546h-2.671v-2.612z"></path>
<path fill="#59b4d9" d="M7.934 13.975c0 0.405-0.102 0.717-0.306 0.941s-0.474 0.336-0.813 0.336c-0.161 0-0.289-0.020-0.391-0.056v-0.53c0.092 0.063 0.211 0.092 0.355 0.092 0.385 0 0.579-0.289 0.579-0.872v-2.092h0.576v2.181zM8.601 15.060v-0.582c0.053 0.046 0.115 0.089 0.191 0.128 0.072 0.036 0.151 0.069 0.234 0.095s0.164 0.046 0.247 0.063c0.082 0.013 0.158 0.020 0.227 0.020 0.243 0 0.424-0.039 0.543-0.118s0.178-0.194 0.178-0.345c0-0.079-0.020-0.148-0.059-0.207-0.045-0.065-0.101-0.12-0.166-0.163l-0.002-0.001c-0.072-0.049-0.154-0.097-0.24-0.137l-0.010-0.004c-0.095-0.043-0.201-0.092-0.309-0.138-0.118-0.063-0.227-0.125-0.329-0.188-0.101-0.062-0.188-0.132-0.266-0.21l-0-0c-0.072-0.073-0.132-0.159-0.175-0.254l-0.002-0.006c-0.040-0.094-0.063-0.203-0.063-0.317 0-0.008 0-0.015 0-0.023l-0 0.001c0-0.161 0.036-0.299 0.109-0.418 0.076-0.115 0.171-0.214 0.293-0.289 0.118-0.075 0.255-0.134 0.402-0.169l0.009-0.002c0.141-0.036 0.303-0.056 0.47-0.056 0 0 0 0 0.001 0h-0c0.362 0 0.628 0.039 0.793 0.122v0.556c-0.197-0.138-0.451-0.207-0.76-0.207-0.086 0-0.171 0.007-0.257 0.023s-0.161 0.043-0.231 0.081l0.004-0.002c-0.066 0.035-0.121 0.081-0.164 0.137l-0.001 0.001c-0.039 0.055-0.063 0.123-0.063 0.196 0 0.004 0 0.008 0 0.012l-0-0.001c0 0.076 0.016 0.141 0.049 0.197 0.030 0.056 0.079 0.105 0.141 0.151s0.138 0.089 0.227 0.132c0.089 0.046 0.194 0.092 0.313 0.141 0.122 0.063 0.234 0.128 0.342 0.194 0.109 0.069 0.201 0.145 0.283 0.227s0.148 0.174 0.194 0.273c0.049 0.102 0.072 0.214 0.072 0.342 0 0.174-0.036 0.319-0.105 0.438-0.072 0.118-0.168 0.214-0.289 0.289-0.118 0.072-0.26 0.128-0.414 0.161-0.14 0.032-0.302 0.050-0.467 0.050-0.087 0-0.173-0.005-0.257-0.015l0.010 0.001c-0.104-0.011-0.192-0.025-0.279-0.043l0.019 0.003c-0.089-0.016-0.171-0.036-0.25-0.059-0.082-0.023-0.145-0.049-0.191-0.079zM12.898 15.251c-0.503 0-0.905-0.158-1.204-0.477-0.303-0.316-0.454-0.73-0.454-1.24 0-0.546 0.155-0.98 0.461-1.306 0.309-0.326 0.724-0.49 1.25-0.49 0.49 0 0.882 0.158 1.181 0.474s0.447 0.73 0.447 1.24c0 0.556-0.151 0.993-0.457 1.316s-0.714 0.484-1.224 0.484zM12.921 12.235c-0.316 0-0.576 0.115-0.776 0.349-0.197 0.23-0.299 0.536-0.299 0.914s0.099 0.684 0.293 0.914c0.194 0.23 0.447 0.345 0.76 0.345 0.332 0 0.595-0.109 0.789-0.329 0.191-0.22 0.286-0.526 0.286-0.921 0-0.408-0.092-0.72-0.28-0.944-0.188-0.22-0.444-0.329-0.773-0.329zM18.164 15.195h-0.632l-1.661-2.5c-0.037-0.057-0.072-0.122-0.099-0.19l-0.003-0.008h-0.016c0.013 0.072 0.020 0.23 0.020 0.467v2.23h-0.556v-3.401h0.671l1.605 2.441c0.066 0.102 0.112 0.171 0.132 0.207h0.010c-0.016-0.089-0.026-0.24-0.026-0.457v-2.191h0.556v3.401z"></path>
</svg>
