<!-- Generated by IcoMoon.io -->
<svg version="1.1" xmlns="http://www.w3.org/2000/svg" width="25" height="32" viewBox="0 0 25 32">
<title>Tenant-Status</title>
<path fill="#59b4d9" d="M12.628 10.662c0 1.77-1.413 3.205-3.156 3.205s-3.156-1.435-3.156-3.205v0c0-1.77 1.413-3.205 3.156-3.205s3.156 1.435 3.156 3.205v0zM11.701 14.666l-2.227 3.25-2.23-3.25h-3.217v8.010h10.892v-8.010h-3.217z"></path>
<path fill="#fff" d="M18.609 17.715l-1.664-1.684-2.921-1.145-0.928 1.451-1.227 1h-1.503l0.467 0.97h1.786c1.299 2.056 3.003 3.704 3.003 3.704s1.704-1.145 3.007-3.148h0.599c0.215-0.298 0.394-0.643 0.518-1.012l0.008-0.027-1.145-0.109z"></path>
<path fill="#fff" d="M20.81 18.101h-1.842l-0.467 0.97h1.829l0.48-0.97z"></path>
<path fill="#dd5900" d="M17.742 13.523c-0.908 0-1.688 0.579-2.072 1.418-0.385-0.839-1.164-1.418-2.072-1.418-1.289 0-2.332 1.151-2.332 2.572 0 0.319 0.046 0.638 0.128 0.957h-1.178l0.309 0.628h2.405l1.339-2.102 1.556 3.266 1.474-2.099 1.092 1.352h1.27c0.257-0.628 0.414-1.299 0.414-2.003 0-1.421-1.046-2.572-2.332-2.572z"></path>
<path fill="#ba141a" d="M12.651 18.725h-2.408l-0.763-0.947-1.612 2.293-1.533-3.214-0.924 1.451h-1.385c1.211 2.355 3.789 4.368 3.789 4.368s2.026-1.316 3.329-3.322h1.197l0.309-0.628z"></path>
</svg>
