<!-- Generated by IcoMoon.io -->
<svg version="1.1" xmlns="http://www.w3.org/2000/svg" width="32" height="32" viewBox="0 0 32 32">
<title>Time-Series-Insights-Event-Source</title>
<path fill="#000" d="M12.228 19.409c0 0.001 0 0.001 0 0.002 0 0.194 0.159 0.352 0.354 0.352h6.878c0.196-0.001 0.354-0.158 0.354-0.352 0-0.001 0-0.002 0-0.002v0-6.81c0-0.001 0-0.001 0-0.002 0-0.194-0.159-0.352-0.354-0.352h-6.878c-0.196 0.001-0.354 0.158-0.354 0.352 0 0.001 0 0.002 0 0.002v-0 6.81z"></path>
<path fill="#c3f1ff" d="M18.41 18.733l3.797-2.637c0.032-0.020 0.053-0.055 0.053-0.095s-0.021-0.074-0.052-0.094l-0-0-3.797-2.631c-0.019-0.015-0.043-0.024-0.070-0.024-0.062 0-0.113 0.050-0.113 0.112 0 0.002 0 0.005 0 0.007v-0l-0 1.514h-5.999v2.233h5.999v1.519c0.005 0.062 0.057 0.111 0.121 0.111 0.023 0 0.044-0.006 0.062-0.017l-0.001 0z"></path>
<path fill="#949494" d="M22.936 23.389h-13.873c-0.249 0-0.451-0.2-0.451-0.447 0-0.001 0-0.001 0-0.002v0-13.881c0-0 0-0.001 0-0.002 0-0.247 0.202-0.447 0.451-0.447h13.873c0.249 0 0.451 0.2 0.451 0.447 0 0.001 0 0.001 0 0.002v-0 4.363c0 0.002 0 0.004 0 0.007 0 0.123-0.101 0.223-0.225 0.223-0.049 0-0.094-0.015-0.131-0.041l0.001 0-0.867-0.601c-0.058-0.043-0.095-0.11-0.095-0.187 0-0.001 0-0.002 0-0.002v0l0.002-2.834h-12.087v12.025h12.035v-2.75c0.001-0.074 0.038-0.14 0.095-0.18l0.001-0 0.866-0.625c0.036-0.026 0.081-0.041 0.13-0.041 0.125 0 0.225 0.1 0.225 0.223 0 0.002-0 0.005-0 0.007v-0l-0.001 4.294c0 0.001 0 0.003 0 0.005 0 0.229-0.173 0.417-0.397 0.444l-0.002 0z"></path>
<path fill="#767676" d="M22.018 9.986v2.794c0 0.001 0 0.001 0 0.002 0 0.076 0.037 0.144 0.095 0.186l0.001 0 0.866 0.601c0.041 0.044 0.1 0.071 0.165 0.071 0.122 0 0.222-0.096 0.225-0.217v-0l0.001-3.437h-1.353z"></path>
<path fill="#767676" d="M22.018 22.013v-2.791c0-0.001 0-0.002 0-0.002 0-0.074 0.038-0.139 0.095-0.177l0.001-0 0.866-0.609c0.035-0.021 0.077-0.034 0.122-0.034 0.126 0 0.229 0.099 0.234 0.222v0l0.002 3.436-1.319-0.044z"></path>
</svg>
