<!-- Generated by IcoMoon.io -->
<svg version="1.1" xmlns="http://www.w3.org/2000/svg" width="32" height="32" viewBox="0 0 32 32">
<title>Time-Series-Insights-Environment</title>
<path fill="#000" d="M8.515 14.003c0.924-3.19 3.875-5.488 7.375-5.488s6.451 2.298 7.362 5.435l0.013 0.053h-1.46c-0.873-2.42-3.192-4.123-5.917-4.123s-5.044 1.703-5.904 4.081l-0.014 0.043h-1.455zM21.778 18.086c-0.898 2.376-3.194 4.040-5.888 4.040s-4.991-1.663-5.874-3.997l-0.014-0.042h-1.46c0.955 3.143 3.883 5.397 7.349 5.397s6.394-2.253 7.335-5.344l0.014-0.053h-1.46z"></path>
<path fill="#50e6ff" d="M16.547 19.477l-1.835-4.040-0.774 1.307h-4.727c-0.385 0-0.697-0.305-0.697-0.681s0.312-0.681 0.697-0.681v0h3.924l1.74-2.939 2.002 4.404 1.18-1.479 4.732 0.008c0.385 0 0.697 0.305 0.697 0.681s-0.312 0.681-0.697 0.681v0l-4.048-0.008-2.194 2.746z"></path>
</svg>
