<!-- Generated by IcoMoon.io -->
<svg version="1.1" xmlns="http://www.w3.org/2000/svg" width="28" height="32" viewBox="0 0 28 32">
<title>Time-Series-Insights-Reference-Data-Set</title>
<path fill="#000" d="M14.123 12.59c-3.109 0-5.63-0.882-5.63-2.047v10.916c0 1.12 2.476 2.031 5.551 2.047h0.079c3.109 0 5.63-0.882 5.63-2.047v-10.916c0 1.139-2.521 2.047-5.63 2.047z"></path>
<path fill="#e8e8e8" d="M19.753 10.543c0 1.139-2.521 2.047-5.63 2.047s-5.63-0.882-5.63-2.047c0-1.168 2.521-2.050 5.63-2.050s5.63 0.882 5.63 2.050z"></path>
<path fill="#50e6ff" d="M18.446 10.375c0 0.723-1.941 1.306-4.322 1.306s-4.322-0.583-4.322-1.306c0-0.726 1.941-1.298 4.322-1.298s4.322 0.583 4.322 1.298z"></path>
<path fill="#198ab3" d="M14.123 10.7c-0.077-0.002-0.168-0.003-0.259-0.003-1.129 0-2.214 0.185-3.229 0.527l0.072-0.021c0.916 0.306 1.971 0.483 3.066 0.483 0.123 0 0.246-0.002 0.368-0.007l-0.018 0.001c0.086 0.003 0.188 0.004 0.289 0.004 1.119 0 2.194-0.189 3.196-0.536l-0.069 0.021c-0.925-0.3-1.99-0.474-3.095-0.474-0.113 0-0.226 0.002-0.338 0.005l0.016-0z"></path>
<path fill="#000" d="M17.549 18.12v-3.003h-0.792v3.647h2.161v-0.644h-1.369zM11.278 16.645c-0.172-0.071-0.32-0.164-0.45-0.277l0.002 0.002c-0.072-0.071-0.117-0.169-0.117-0.278 0-0.001 0-0.002 0-0.003v0c0-0.001-0-0.002-0-0.004 0-0.109 0.057-0.206 0.142-0.26l0.001-0.001c0.095-0.067 0.213-0.107 0.34-0.107 0.010 0 0.020 0 0.030 0.001l-0.001-0c0.015-0.001 0.034-0.001 0.052-0.001 0.308 0 0.594 0.095 0.83 0.258l-0.005-0.003v-0.757c-0.24-0.091-0.517-0.144-0.807-0.144-0.024 0-0.049 0-0.073 0.001l0.004-0c-0.023-0.001-0.049-0.002-0.076-0.002-0.334 0-0.642 0.114-0.886 0.306l0.003-0.002c-0.225 0.176-0.369 0.449-0.369 0.755 0 0.010 0 0.020 0 0.031l-0-0.002c0 0.453 0.281 0.805 0.879 1.070 0.207 0.090 0.386 0.196 0.549 0.322l-0.006-0.004c0.081 0.068 0.132 0.17 0.132 0.283v0c-0 0.112-0.055 0.211-0.139 0.272l-0.001 0.001c-0.097 0.063-0.216 0.1-0.343 0.1-0.018 0-0.036-0.001-0.054-0.002l0.002 0c-0.369-0.003-0.705-0.143-0.96-0.372l0.001 0.001v0.821c0.254 0.134 0.554 0.213 0.873 0.213 0.023 0 0.047-0 0.070-0.001l-0.003 0c0.029 0.002 0.063 0.003 0.097 0.003 0.351 0 0.676-0.11 0.944-0.298l-0.005 0.004c0.184-0.174 0.298-0.421 0.298-0.694 0-0.039-0.002-0.078-0.007-0.116l0 0.005c0-0.005 0-0.010 0-0.016 0-0.23-0.083-0.44-0.221-0.602l0.001 0.001c-0.201-0.212-0.443-0.383-0.714-0.498l-0.014-0.005zM15.881 18.049c0.182-0.302 0.289-0.667 0.289-1.057 0-0.019-0-0.039-0.001-0.058l0 0.003c-0.021-0.349-0.125-0.669-0.294-0.947l0.005 0.009c-0.141-0.279-0.352-0.504-0.61-0.658l-0.007-0.004c-0.248-0.143-0.546-0.228-0.863-0.228-0.005 0-0.010 0-0.014 0h0.001c-0.012-0-0.026-0-0.040-0-0.334 0-0.646 0.089-0.917 0.244l0.009-0.005c-0.272 0.154-0.49 0.376-0.637 0.643l-0.004 0.008c-0.145 0.284-0.231 0.621-0.231 0.977 0 0.011 0 0.023 0 0.034l-0-0.002c0.003 0.322 0.081 0.625 0.217 0.893l-0.005-0.011c0.137 0.276 0.345 0.499 0.599 0.65l0.007 0.004c0.25 0.156 0.551 0.253 0.873 0.265l0.003 0 0.757 0.882h1.062l-1.081-0.969c0.372-0.114 0.677-0.353 0.875-0.666l0.004-0.006zM15.002 17.829c-0.153 0.188-0.383 0.308-0.642 0.308-0.009 0-0.018-0-0.027-0l0.001 0c-0.008 0-0.017 0-0.026 0-0.26 0-0.492-0.124-0.64-0.316l-0.001-0.002c-0.161-0.219-0.257-0.494-0.257-0.792 0-0.032 0.001-0.063 0.003-0.094l-0 0.004c-0.002-0.027-0.003-0.058-0.003-0.090 0-0.299 0.096-0.575 0.26-0.799l-0.003 0.004c0.162-0.199 0.407-0.326 0.681-0.326 0.002 0 0.003 0 0.005 0h-0c0.009-0 0.021-0.001 0.032-0.001 0.257 0 0.485 0.128 0.623 0.324l0.002 0.002c0.151 0.224 0.241 0.5 0.241 0.797 0 0.031-0.001 0.062-0.003 0.092l0-0.004c0.004 0.037 0.006 0.081 0.006 0.124 0 0.289-0.095 0.556-0.255 0.771l0.002-0.003z"></path>
</svg>
