<!-- Generated by IcoMoon.io -->
<svg version="1.1" xmlns="http://www.w3.org/2000/svg" width="32" height="32" viewBox="0 0 32 32">
<title>Traffic-Manager-Profile</title>
<path fill="#000" d="M18.816 8.725h-5.633c-0.134 0.001-0.255 0.057-0.341 0.146l-3.97 3.97c-0.089 0.086-0.145 0.207-0.146 0.341v5.633c0.001 0.134 0.057 0.255 0.146 0.341l3.97 3.973c0.087 0.089 0.208 0.143 0.341 0.144h5.633c0.134-0 0.254-0.055 0.341-0.144l3.973-3.973c0.089-0.087 0.143-0.208 0.144-0.341v-5.633c-0-0.134-0.055-0.254-0.144-0.341l-3.973-3.97c-0.087-0.089-0.207-0.145-0.341-0.146h-0z"></path>
<path fill="#f2f2f2" d="M13.432 14.837l-0.916 0.916c-0.018 0.021-0.028 0.048-0.028 0.077 0 0.064 0.050 0.116 0.113 0.12l3.253-0.002c0.066 0 0.12-0.054 0.12-0.12v0l0.001-3.209c0.001-0.006 0.002-0.014 0.002-0.021 0-0.079-0.064-0.143-0.143-0.143-0.071 0-0.13 0.052-0.141 0.121l-0 0.001-0.916 0.915c-0.023 0.020-0.053 0.033-0.086 0.033s-0.063-0.012-0.086-0.033l0 0-2.2-2.166-1.173 1.183 2.199 2.156c0.020 0.023 0.033 0.053 0.033 0.086s-0.012 0.063-0.033 0.086l0-0z"></path>
<path fill="#f2f2f2" d="M22.146 13.356l-3.5-3.5c-0.043-0.042-0.102-0.069-0.168-0.069-0.001 0-0.002 0-0.004 0l-4.948-0.001c-0.001-0-0.002-0-0.003-0-0.065 0-0.125 0.026-0.168 0.069l-3.499 3.501c-0.042 0.043-0.069 0.102-0.069 0.168 0 0.001 0 0.002 0 0.004v-0l-0.001 4.946c0.001 0.067 0.027 0.127 0.069 0.172l3.5 3.5c0.043 0.042 0.102 0.069 0.168 0.069 0.001 0 0.002 0 0.004-0l4.946-0.002c0.001 0 0.002 0 0.003 0 0.065 0 0.125-0.026 0.168-0.069l3.501-3.499c0.041-0.045 0.067-0.106 0.067-0.172v-4.948c0-0.001 0-0.002 0-0.003 0-0.065-0.026-0.125-0.069-0.168l0 0zM21.838 18.019l-2.697-2.695 0.649-0.66c0.029-0.025 0.046-0.062 0.046-0.103s-0.018-0.078-0.046-0.103l-0-0c-0.014-0.005-0.030-0.008-0.047-0.008s-0.033 0.003-0.048 0.009l0.001-0-2.318-0.059c-0 0-0 0-0 0-0.077 0-0.141 0.060-0.145 0.137l-0 0 0.061 2.319c0 0 0 0 0 0 0 0.076 0.061 0.137 0.137 0.137 0.003 0 0.006-0 0.009-0l-0 0c0.015 0.008 0.033 0.013 0.051 0.013s0.036-0.005 0.052-0.013l-0.001 0 0.727-0.719 2.867 2.823-2.174 2.174-2.962-2.951 0.685-0.608c0.029-0.025 0.046-0.062 0.046-0.103s-0.018-0.078-0.046-0.103l-0-0c-0.024-0.025-0.057-0.041-0.094-0.043h-0l-2.303-0.103c-0 0-0 0-0 0-0.077 0-0.141 0.060-0.145 0.137l-0 0 0.061 2.322c0 0 0 0 0 0 0 0.076 0.061 0.137 0.137 0.137 0.003 0 0.006-0 0.009-0l-0 0c0.040-0 0.076-0.016 0.103-0.043v0l0.694-0.713 2.636 2.638h-4.204l-3.423-3.423v-4.837l1.080-1.068 1.17-1.183 1.173-1.173h4.845l3.423 3.423-0.008 4.442z"></path>
</svg>
