<!-- Generated by IcoMoon.io -->
<svg version="1.1" xmlns="http://www.w3.org/2000/svg" width="34" height="32" viewBox="0 0 34 32">
<title>Universal-Print-Service</title>
<path fill="#000" d="M25.155 16.993c0-0.726-1.058-0.965-1.466-1.525-0.56-0.768-0.619-1.753-1.643-1.921-0.106-2.412-2.084-4.326-4.507-4.326-0.049 0-0.099 0.001-0.148 0.002l0.007-0c-0.025-0.001-0.054-0.001-0.084-0.001-1.976 0-3.664 1.241-4.328 2.988l-0.011 0.032c-2.084 0.261-3.69 1.994-3.756 4.115l-0 0.007c0.093 2.325 1.997 4.175 4.332 4.175 0.054 0 0.109-0.001 0.163-0.003l-0.008 0c0.132 0 0.264-0.006 0.394-0.017h7.267c0.068-0.001 0.134-0.011 0.196-0.029l-0.005 0.001c1.943-0.014 3.522-1.559 3.595-3.49l0-0.007z"></path>
<path fill="#005ba1" d="M16.011 16.829c0 0.147 0.119 0.266 0.266 0.266l7.6-0.002c0.147 0 0.266-0.119 0.266-0.266v0l0.001-2.733c0-0.147-0.119-0.266-0.266-0.266l-7.603-0.001c-0.147 0-0.266 0.119-0.266 0.266v0l0.001 2.735z"></path>
<path fill="#000" d="M16.814 16.442c0 0.147 0.119 0.266 0.266 0.266l5.997-0.002c0.147 0 0.266-0.119 0.266-0.266v0l-0.001-4.393c0-0.147-0.119-0.266-0.266-0.266l-5.997-0.001c-0.147 0-0.266 0.119-0.266 0.266v0l0.001 4.395z"></path>
<path fill="#5ea0ef" d="M15.518 15.273h9.121c0 0 0 0 0 0 0.293 0 0.531 0.238 0.532 0.532v5.416h-10.184v-5.416c0.001-0.294 0.238-0.532 0.532-0.532 0 0 0 0 0 0v0z"></path>
<path fill="#0078d4" d="M14.986 20.523h10.184v0.906h-10.184v-0.906z"></path>
<path fill="#83b9f9" d="M16.306 19.728c0 0.147 0.119 0.266 0.266 0.266l7.009-0.002c0.147 0 0.266-0.119 0.266-0.266v0l-0.001-0.524c0-0.147-0.119-0.266-0.266-0.266l-7.009-0.001c-0.147 0-0.266 0.119-0.266 0.266v0l0.001 0.527z"></path>
<path fill="#c3f1ff" d="M23.69 16.962c0 0.14-0.113 0.253-0.253 0.253s-0.253-0.113-0.253-0.253c0-0.14 0.113-0.253 0.253-0.253s0.253 0.113 0.253 0.253z"></path>
<path fill="#000" d="M9.22 19.118h6.53v3.396c0 0.147-0.119 0.266-0.266 0.266v0l-5.999-0.002c-0.147 0-0.266-0.119-0.266-0.266v0l0.001-3.394z"></path>
</svg>
