<!-- Generated by IcoMoon.io -->
<svg version="1.1" xmlns="http://www.w3.org/2000/svg" width="28" height="32" viewBox="0 0 28 32">
<title>Update-Management</title>
<path fill="#a0a1a2" d="M16.651 17.952h-4.95c0.65 2.407-0.238 2.903-4.125 2.903v1.244h13.204v-1.244c-3.888 0-4.775-0.496-4.129-2.903z"></path>
<path fill="#a0a1a2" d="M22.841 4.277h-17.451c-0.618 0-1.114 0.58-1.114 1.202v11.73c0 0.622 0.496 1.16 1.114 1.16h17.451c0.618 0 1.237-0.538 1.237-1.16v-11.73c0-0.622-0.618-1.202-1.237-1.202z"></path>
<path fill="#0072c6" d="M5.926 5.933h16.503v10.777h-16.503v-10.777z"></path>
<path fill="#fff" opacity="0.2" d="M19.54 4.277h-14.15c-0.618 0-1.114 0.58-1.114 1.202v11.73c0 0.622 0.496 1.16 1.114 1.16h1.774l12.376-14.091z"></path>
<path fill="#fafdff" opacity="0.2" d="M4.276 20.855h13.202v1.243h-13.202v-1.243z"></path>
<path fill="#fff" d="M14.076 15.331c1.768 0 3.315-1.404 3.465-3.179h-1.034c-0.147 1.181-1.177 2.145-2.431 2.145-0.737 0-1.474-0.37-1.844-0.964l1.107-1.181h-2.875v3.105l1.030-1.184c0.664 0.741 1.551 1.258 2.581 1.258zM14.282 8.76c0.737 0 1.474 0.37 1.844 0.961l-1.107 1.184h2.875v-3.109l-1.030 1.111c-0.59-0.741-1.547-1.184-2.581-1.184-1.841 0-3.315 1.408-3.462 3.182h1.030c0.147-1.258 1.181-2.145 2.431-2.145z"></path>
<path fill="#1e1e1e" opacity="0.15" d="M12.114 18.368h4.126v0.415h-4.126v-0.415z"></path>
</svg>
