<!-- Generated by IcoMoon.io -->
<svg version="1.1" xmlns="http://www.w3.org/2000/svg" width="29" height="32" viewBox="0 0 29 32">
<title>Usage-And-Quota</title>
<path fill="#e5e5e5" d="M4.412 17.646h20.434v4.138h-20.434v-4.138z"></path>
<path fill="#57a300" d="M5.229 18.499h18.802v2.458h-18.802v-2.458z"></path>
<path fill="#fff" opacity="0.6" d="M12.586 18.473h11.445v2.484h-11.445v-2.484z"></path>
<path fill="#7a7a7a" d="M4.412 17.647h1.635v4.135h-1.635v-4.135z"></path>
<path fill="#fff" opacity="0.7" d="M11.769 17.646h0.817v4.136h-0.817v-4.136z"></path>
<path fill="#e5e5e5" d="M4.412 11.029h20.434v4.138h-20.434v-4.138z"></path>
<path fill="#57a300" d="M5.229 11.882h18.802v2.458h-18.802v-2.458z"></path>
<path fill="#fff" opacity="0.6" d="M19.126 11.854h4.905v2.483h-4.905v-2.483z"></path>
<path fill="#7a7a7a" d="M18.308 11.030h1.635v4.135h-1.635v-4.135z"></path>
<path fill="#fff" opacity="0.7" d="M18.308 11.029h0.817v4.136h-0.817v-4.136z"></path>
<path fill="#e5e5e5" d="M4.412 4.412h20.434v4.138h-20.434v-4.138z"></path>
<path fill="#57a300" d="M5.229 5.265h18.802v2.458h-18.802v-2.458z"></path>
<path fill="#fff" opacity="0.6" d="M12.586 5.24h11.445v2.484h-11.445v-2.484z"></path>
<path fill="#7a7a7a" d="M11.769 4.413h1.635v4.135h-1.635v-4.135z"></path>
<path fill="#fff" opacity="0.7" d="M11.769 4.412h0.817v4.136h-0.817v-4.136z"></path>
<path fill="#1e1e1e" opacity="0.2" d="M13.404 17.645h0.818v4.138h-0.818v-4.138zM13.404 4.424h0.818v4.138h-0.818v-4.138zM19.942 11.027h0.818v4.134h-0.818v-4.134z"></path>
</svg>
