<!-- Generated by IcoMoon.io -->
<svg version="1.1" xmlns="http://www.w3.org/2000/svg" width="31" height="32" viewBox="0 0 31 32">
<title>User-Privacy</title>
<path fill="#000" d="M19.899 22.036c0.001 0 0.001 0 0.002 0 0.598 0 1.083-0.477 1.088-1.067v-0c0.002-0.019 0.003-0.042 0.003-0.064s-0.001-0.045-0.003-0.067l0 0.003c-0.423-3.416-2.376-6.133-6.049-6.133-3.67 0-5.795 2.333-6.21 6.144-0.003 0.030-0.005 0.064-0.005 0.099 0 0.558 0.426 1.018 0.975 1.078l0.005 0 10.193 0.008z"></path>
<path fill="#fff" opacity="0.8" d="M14.889 15.508c-0.685-0.004-1.321-0.207-1.853-0.554l0.013 0.008 1.814 4.75 1.832-4.714c-0.514 0.319-1.138 0.509-1.806 0.511h-0.001z"></path>
<path fill="#000" d="M18.319 12.117c0 1.873-1.535 3.392-3.43 3.392s-3.43-1.519-3.43-3.392c0-1.873 1.535-3.392 3.43-3.392s3.43 1.519 3.43 3.392z"></path>
<path fill="#005ba1" d="M22.551 19.404c0 1.948-2.384 3.521-2.902 3.847-0.029 0.016-0.063 0.025-0.099 0.025s-0.071-0.009-0.1-0.026l0.001 0.001c-0.553-0.352-2.945-1.925-2.945-3.847v-2.374c0-0 0-0 0-0 0-0.101 0.080-0.183 0.181-0.188l0-0c1.856-0.051 1.433-0.854 2.824-0.854s0.96 0.803 2.818 0.855c0.101 0.005 0.181 0.087 0.181 0.188 0 0 0 0 0 0v0l0.042 2.373z"></path>
<path fill="#000" d="M22.266 19.404c0 1.796-2.184 3.239-2.661 3.529-0.026 0.016-0.057 0.025-0.091 0.025s-0.065-0.009-0.091-0.026l0.001 0c-0.473-0.29-2.66-1.707-2.66-3.529v-2.161c-0-0.003-0-0.006-0-0.009 0-0.090 0.073-0.162 0.164-0.162 0 0 0 0 0 0v0c1.727 0.002 1.314-0.786 2.592-0.786s0.862 0.744 2.592 0.788c0 0 0 0 0 0 0.091 0 0.164 0.073 0.164 0.162 0 0.003-0 0.006-0 0.009l0-0-0.010 2.159z"></path>
</svg>
