<!-- Generated by IcoMoon.io -->
<svg version="1.1" xmlns="http://www.w3.org/2000/svg" width="32" height="32" viewBox="0 0 32 32">
<title>Virtual-WAN</title>
<path fill="#000" d="M23.213 15.918c-0.049-1.638-1.246-2.976-2.797-3.212l-0.018-0.002c-0.125-2.235-1.935-3.999-4.151-3.999-0.041 0-0.083 0.001-0.124 0.002l0.006-0c-0.007-0-0.015-0-0.023-0-1.806 0-3.35 1.139-3.977 2.75l-0.010 0.029c-1.876 0.29-3.312 1.872-3.414 3.813l-0 0.010c0.051 2.173 1.793 3.914 3.935 3.914 0.057 0 0.114-0.001 0.17-0.004l-0.008 0h7.168c1.791-0 3.243-1.478 3.243-3.301v0z"></path>
<path fill="#f2f2f2" d="M16.215 19.392c0 2.111-1.681 3.823-3.755 3.823s-3.755-1.712-3.755-3.823c0-2.111 1.681-3.823 3.755-3.823s3.755 1.711 3.755 3.823z"></path>
<path fill="#0078d4" d="M19.118 16.959c-0.725-0.959-1.852-1.571-3.12-1.571-0.883 0-1.698 0.297-2.354 0.798l0.010-0.007c-0.933 0.731-1.527 1.869-1.527 3.147 0 2.189 1.743 3.963 3.893 3.963 0.916 0 1.758-0.322 2.423-0.861l-0.008 0.006c0.895-0.732 1.464-1.846 1.464-3.095 0-0.897-0.293-1.725-0.788-2.389l0.007 0.010zM12.63 19.132c0.035-0.51 0.157-0.983 0.351-1.415l-0.010 0.026h0.939c-0.098 0.414-0.159 0.892-0.169 1.383l-0 0.007h-1.111zM14.422 17.742h1.282v1.39h-1.451c0.010-0.498 0.071-0.976 0.178-1.436l-0.009 0.046zM16.216 17.742h1.28c0.099 0.414 0.161 0.892 0.171 1.382l0 0.007h-1.451v-1.39zM15.788 19.567v1.39h-1.367l-0.256-1.303 1.623-0.087zM16.216 19.567h1.536c-0.022 0.506-0.084 0.983-0.182 1.447l0.010-0.057h-1.364v-1.39zM18.263 19.567h1.111c-0.036 0.51-0.159 0.983-0.353 1.415l0.010-0.026h-0.939c0.099-0.414 0.161-0.892 0.171-1.382l0-0.007zM18.263 19.132c-0.022-0.506-0.084-0.983-0.182-1.447l0.010 0.057h0.939c0.194 0.406 0.318 0.88 0.343 1.381l0 0.009h-1.111zM18.69 17.22h-0.768c-0.129-0.397-0.302-0.742-0.52-1.054l0.008 0.012c0.508 0.257 0.935 0.608 1.274 1.034l0.006 0.007zM17.411 17.22h-1.195v-1.216c0.569 0.19 1.008 0.637 1.191 1.202l0.004 0.013zM15.788 16.004v1.303h-1.195c0.156-0.618 0.604-1.103 1.182-1.299l0.013-0.004zM13.91 16.611c0.198-0.152 0.422-0.296 0.657-0.42l0.027-0.013c-0.245 0.315-0.424 0.696-0.509 1.111l-0.003 0.017h-0.768c0.156-0.275 0.355-0.506 0.591-0.692l0.005-0.004zM12.63 19.654h1.111c0.021 0.506 0.082 0.983 0.179 1.446l-0.010-0.057h-0.939c-0.173-0.406-0.294-0.878-0.339-1.371l-0.001-0.018zM13.313 21.479h0.768l0.512 1.042c-0.524-0.227-0.957-0.584-1.274-1.032l-0.006-0.009zM14.593 21.479h1.111v1.303c-0.532-0.257-0.934-0.721-1.107-1.288l-0.004-0.015zM16.216 22.781v-1.303h1.108c-0.116 0.612-0.539 1.101-1.096 1.299l-0.012 0.004zM18.092 22.085c-0.216 0.188-0.472 0.337-0.752 0.43l-0.016 0.005c0.228-0.294 0.404-0.642 0.507-1.021l0.005-0.021h0.768c-0.098 0.261-0.278 0.471-0.506 0.604l-0.006 0.003z"></path>
<path fill="#e6e6e6" d="M12.631 18.090c-0.972-0.489-1.674-1.404-1.875-2.499l-0.003-0.022c0.014-1.032 0.511-1.944 1.271-2.512l0.009-0.006 0.512-0.435 0.427 0.522-0.512 0.432c-0.618 0.39-1.024 1.076-1.024 1.86 0 0.018 0 0.037 0.001 0.055l-0-0.003c0.148 0.904 0.731 1.642 1.519 1.992l0.017 0.007-0.34 0.609z"></path>
<path fill="#f2f2f2" d="M13.74 12.876c0 0.528-0.42 0.956-0.939 0.956s-0.939-0.428-0.939-0.956c0-0.528 0.42-0.956 0.939-0.956s0.939 0.428 0.939 0.956z"></path>
<path fill="#e6e6e6" d="M19.116 18.090l-0.34-0.609c0.784-0.384 1.355-1.109 1.532-1.98l0.003-0.018c-0.021-0.793-0.418-1.487-1.016-1.907l-0.008-0.005-0.512-0.345 0.427-0.522 0.512 0.348c0.777 0.473 1.289 1.324 1.289 2.298 0 0.078-0.003 0.155-0.010 0.231l0.001-0.010c-0.204 1.117-0.907 2.032-1.858 2.512l-0.020 0.009z"></path>
<path fill="#f2f2f2" d="M19.97 12.876c0 0.528-0.42 0.956-0.939 0.956s-0.939-0.428-0.939-0.956c0-0.528 0.42-0.956 0.939-0.956s0.939 0.428 0.939 0.956z"></path>
<path fill="#ce74b6" d="M13.74 17.828c0 0.528-0.42 0.956-0.939 0.956s-0.939-0.428-0.939-0.956c0-0.528 0.42-0.956 0.939-0.956s0.939 0.428 0.939 0.956z"></path>
<path fill="#ce74b6" d="M19.97 17.828c0 0.528-0.42 0.956-0.939 0.956s-0.939-0.428-0.939-0.956c0-0.528 0.42-0.956 0.939-0.956s0.939 0.428 0.939 0.956z"></path>
</svg>
