<!-- Generated by IcoMoon.io -->
<svg version="1.1" xmlns="http://www.w3.org/2000/svg" width="36" height="32" viewBox="0 0 36 32">
<title>Virtual-Subnet</title>
<path fill="#000" d="M17.995 14.712c-1.147 0.003-1.717 1.427-0.906 2.258s2.195 0.24 2.192-0.938c0-0.73-0.576-1.32-1.286-1.32z"></path>
<path fill="#50e6ff" d="M16.698 21.296l-0.738 0.759c-0.060 0.061-0.143 0.099-0.235 0.099s-0.174-0.038-0.235-0.099l0 0-5.452-5.585c-0.12-0.124-0.194-0.295-0.194-0.484s0.074-0.36 0.194-0.484l0.738-0.761 5.918 6.072c0.060 0.062 0.097 0.147 0.097 0.242s-0.037 0.18-0.097 0.242v0h0.003z"></path>
<path fill="#1490df" d="M15.855 9.965l0.744 0.761c0.060 0.062 0.097 0.147 0.097 0.242s-0.037 0.18-0.097 0.242l-5.82 6.002-0.741-0.759c-0.12-0.124-0.194-0.295-0.194-0.484s0.074-0.36 0.194-0.484l5.351-5.516c0.060-0.061 0.143-0.099 0.235-0.099s0.174 0.038 0.235 0.099l-0-0-0.003-0.006z"></path>
<path fill="#50e6ff" d="M25.319 14.722l0.735 0.759c0.121 0.124 0.196 0.296 0.196 0.485s-0.075 0.361-0.196 0.485l-5.449 5.585c-0.060 0.062-0.144 0.101-0.236 0.101s-0.176-0.039-0.236-0.101v0l-0.735-0.759c-0.060-0.062-0.097-0.147-0.097-0.242s0.037-0.18 0.097-0.242v0l5.921-6.072z"></path>
<path fill="#1490df" d="M26.060 16.434l-0.735 0.759-5.82-6.002c-0.060-0.062-0.097-0.147-0.097-0.242s0.037-0.18 0.097-0.242v0l0.741-0.761c0.060-0.062 0.144-0.101 0.236-0.101s0.176 0.039 0.236 0.101v0l5.348 5.516c0.119 0.124 0.193 0.294 0.193 0.482 0 0.19-0.075 0.361-0.196 0.485l-0 0-0.003 0.006z"></path>
</svg>
