<!-- Generated by IcoMoon.io -->
<svg version="1.1" xmlns="http://www.w3.org/2000/svg" width="30" height="32" viewBox="0 0 30 32">
<title>Virtual-Network-Peering</title>
<path fill="#000" d="M6.53 17.001h2.081c0.753 0 1.179 0.343 1.511 1.022h-3.592c-0.567 0-0.947 0.671-0.947 1.238 0 0.571 0.429 1.145 0.947 1.145h3.592c-0.332 0.683-0.757 1.022-1.511 1.022h-2.081c-1.134 0-2.033-1.074-2.033-2.212 0-1.141 0.947-2.215 2.033-2.215zM14.709 18.023h-3.595c0.332-0.679 0.757-1.022 1.514-1.022h2.077c1.138 0 1.988 1.123 1.988 2.26 0 1.141-0.899 2.167-1.984 2.167h-2.081c-0.757 0-1.182-0.339-1.514-1.022h3.595c0.567 0 0.944-0.668 0.944-1.141 0-0.571-0.332-1.242-0.944-1.242z"></path>
<path fill="#000" d="M13.196 19.726h-5.106c-0.283 0-0.899-0.227-0.899-0.511s0.615-0.511 0.899-0.511h5.106c0.283 0 1.085 0.131 1.085 0.418 0 0.377-0.802 0.604-1.085 0.604z"></path>
<path fill="#3999c6" d="M25.432 10.92c0.209-0.209 0.168-0.548 0-0.757l-1.007-1.014-4.532-4.423c-0.209-0.213-0.503-0.213-0.712 0-0.209 0.209-0.25 0.545 0 0.757l4.74 4.681c0.209 0.209 0.209 0.548 0 0.757l-4.822 4.848c-0.213 0.209-0.213 0.548 0 0.757 0.209 0.213 0.545 0.172 0.712 0l4.532-4.509 1.089-1.097zM4.706 10.92c-0.209-0.209-0.168-0.548 0-0.757l1.007-1.014 4.532-4.423c0.209-0.213 0.504-0.213 0.712 0 0.213 0.209 0.254 0.545 0 0.757l-4.655 4.681c-0.213 0.209-0.213 0.548 0 0.757l4.74 4.848c0.209 0.209 0.209 0.548 0 0.757-0.209 0.213-0.545 0.172-0.712 0l-4.576-4.423-0.041-0.045-1.007-1.138z"></path>
<path fill="#57a300" d="M20.733 10.541c0 0.768-0.62 1.391-1.384 1.391s-1.384-0.623-1.384-1.391c0-0.768 0.62-1.391 1.384-1.391s1.384 0.623 1.384 1.391z"></path>
<path fill="#57a300" d="M16.412 10.541c0 0.768-0.62 1.391-1.384 1.391s-1.384-0.623-1.384-1.391c0-0.768 0.62-1.391 1.384-1.391s1.384 0.623 1.384 1.391z"></path>
<path fill="#57a300" d="M12.175 10.541c0 0.768-0.62 1.391-1.384 1.391s-1.384-0.623-1.384-1.391c0-0.768 0.62-1.391 1.384-1.391s1.384 0.623 1.384 1.391z"></path>
</svg>
