<!-- Generated by IcoMoon.io -->
<svg version="1.1" xmlns="http://www.w3.org/2000/svg" width="34" height="32" viewBox="0 0 34 32">
<title>Virtual-Machine</title>
<path fill="#000" d="M9.141 18.544c0 0.273 0.228 0.495 0.508 0.495 0 0 0 0 0 0h14.225c0 0 0 0 0 0 0.28 0 0.508-0.221 0.508-0.495v0-8.907c-0-0.273-0.228-0.495-0.508-0.495-0 0-0 0-0 0h-14.225c0 0-0 0-0 0-0.28 0-0.508 0.221-0.508 0.495v0 8.907z"></path>
<path fill="#50e6ff" d="M19.303 12.648v2.877l-2.541 1.452v-2.885l2.541-1.444z"></path>
<path fill="#c3f1ff" d="M19.303 12.646l-2.541 1.452-2.541-1.452 2.541-1.444 2.541 1.444z"></path>
<path fill="#9cebff" d="M16.762 14.1v2.877l-2.541-1.452v-2.877l2.541 1.452z"></path>
<path fill="#c3f1ff" d="M14.222 15.525l2.541-1.433v2.885l-2.541-1.452z"></path>
<path fill="#9cebff" d="M19.303 15.525l-2.541-1.433v2.885l2.541-1.452z"></path>
<path fill="#000" d="M16.008 22.035c-1.506-0.231-1.565-1.288-1.565-2.995h-2.99c0 1.707-0.051 2.764-1.559 2.995-0.425 0.048-0.753 0.396-0.753 0.82 0 0.001 0 0.002 0 0.003v-0h7.622c0-0.001 0-0.002 0-0.003 0-0.424-0.329-0.774-0.752-0.82l-0.004-0z"></path>
</svg>
