<!-- Generated by IcoMoon.io -->
<svg version="1.1" xmlns="http://www.w3.org/2000/svg" width="32" height="32" viewBox="0 0 32 32">
<title>Virtual-Network</title>
<path fill="#000" d="M17.282 19.328c0 0.001 0 0.002 0 0.003 0 0.449-0.363 0.812-0.811 0.812s-0.811-0.364-0.811-0.812c0-0.448 0.363-0.812 0.81-0.812h0c0 0 0.001 0 0.001 0 0.446 0 0.808 0.362 0.81 0.809v0zM13.876 18.522c-0.447 0-0.81 0.364-0.81 0.812s0.363 0.812 0.811 0.812 0.811-0.364 0.811-0.812c0-0 0-0.001 0-0.001v0c-0-0.448-0.363-0.811-0.81-0.811-0 0-0.001 0-0.001 0h0zM11.287 18.522c-0.447 0-0.81 0.364-0.81 0.812s0.363 0.812 0.811 0.812c0.447 0 0.809-0.362 0.811-0.809v-0c-0.001-0.448-0.363-0.811-0.811-0.811-0 0-0 0-0.001 0h0v-0.004z"></path>
<path fill="#50e6ff" d="M11.878 22.587l-0.464 0.467c-0.038 0.038-0.090 0.062-0.148 0.062s-0.11-0.024-0.148-0.062v0l-3.439-3.436c-0.075-0.076-0.122-0.181-0.122-0.297s0.047-0.221 0.122-0.297l0.464-0.469 3.736 3.733c0.038 0.038 0.062 0.091 0.062 0.149s-0.024 0.111-0.062 0.149v0-0z"></path>
<path fill="#1490df" d="M11.347 18.658l0.469 0.469c0.038 0.038 0.062 0.091 0.062 0.149s-0.024 0.111-0.062 0.149v0l-3.671 3.691-0.467-0.467c-0.076-0.076-0.123-0.181-0.123-0.298s0.047-0.222 0.123-0.298v0l3.376-3.391c0.038-0.038 0.091-0.062 0.149-0.062s0.111 0.024 0.149 0.062v0l-0.004-0.004z"></path>
<path fill="#50e6ff" d="M19.561 18.554l0.464 0.467c0.076 0.076 0.123 0.181 0.123 0.298s-0.047 0.222-0.123 0.298v0l-3.44 3.436c-0.038 0.038-0.090 0.062-0.148 0.062s-0.11-0.024-0.148-0.062v0l-0.463-0.467c-0.038-0.038-0.061-0.091-0.061-0.149s0.023-0.111 0.061-0.149v0l3.736-3.734z"></path>
<path fill="#1490df" d="M20.028 19.607l-0.464 0.467-3.671-3.691c-0.038-0.038-0.061-0.091-0.061-0.149s0.023-0.111 0.061-0.149v0l0.469-0.469c0.038-0.038 0.090-0.062 0.148-0.062s0.11 0.024 0.148 0.062v0l3.374 3.391c0.075 0.076 0.122 0.181 0.122 0.297 0 0.117-0.048 0.223-0.124 0.299l-0 0-0.002 0.004z"></path>
</svg>
