<!-- Generated by IcoMoon.io -->
<svg version="1.1" xmlns="http://www.w3.org/2000/svg" width="28" height="32" viewBox="0 0 28 32">
<title>Virtual-Network-Gateway</title>
<path fill="#000" d="M19.057 15.713h-0.803v-2.482c0-0.008 0-0.016 0-0.025 0-1.207-0.456-2.308-1.205-3.138l0.004 0.004c-0.711-0.827-1.758-1.347-2.926-1.347-0.006 0-0.012 0-0.019 0h0.001c-0.015-0-0.033-0-0.051-0-1.168 0-2.215 0.521-2.922 1.343l-0.004 0.005c-0.745 0.817-1.201 1.91-1.201 3.109 0 0.018 0 0.035 0 0.053l-0-0.003v2.482h-0.652c-0.305 0.005-0.55 0.252-0.554 0.556v6.449c0.005 0.304 0.251 0.549 0.554 0.554h9.778c0.306-0.004 0.555-0.248 0.565-0.553l0-0.001v-6.449c-0.009-0.307-0.257-0.553-0.564-0.557h-0zM16.345 15.713h-4.473v-2.523c0.008-0.672 0.273-1.281 0.702-1.733l-0.001 0.001c0.37-0.423 0.909-0.69 1.511-0.693h0.001c0.605 0.003 1.148 0.27 1.52 0.691l0.002 0.002c0.091 0.103 0.175 0.216 0.25 0.336l0.006 0.011c0.291 0.379 0.473 0.856 0.493 1.374l0 0.004-0.010 2.53z"></path>
<path fill="#50e6ff" d="M19.082 15.713h-9.793c-0.137 0.001-0.261 0.053-0.355 0.139l0-0 10.501 7.252c0.122-0.099 0.2-0.25 0.2-0.418v-6.449c-0.025-0.289-0.262-0.516-0.554-0.524l-0.001-0z"></path>
<path fill="#fff" opacity="0.2" d="M9.303 15.713h9.785c0.14 0.001 0.267 0.054 0.365 0.139l-0.001-0.001-10.511 7.252c-0.12-0.101-0.196-0.25-0.2-0.418v-6.45c0.029-0.29 0.268-0.516 0.561-0.524h0.001z"></path>
<path fill="#fff" d="M13.215 17.27l0.967-0.968c0.010-0.008 0.022-0.013 0.036-0.013s0.027 0.005 0.036 0.013l-0-0 0.957 0.968c0.013 0.009 0.022 0.024 0.022 0.040s-0.008 0.032-0.021 0.040l-0 0-0.562-0.001c-0.027 0-0.048 0.022-0.048 0.048v0l-0 1.242c0 0.027-0.022 0.048-0.048 0.048v0l-0.637 0c-0.003 0.001-0.006 0.001-0.009 0.001-0.022 0-0.040-0.018-0.040-0.040 0-0.003 0-0.006 0.001-0.009l-0 0-0-1.242c-0.004-0.027-0.027-0.048-0.056-0.048-0 0-0 0-0.001 0l-0.562-0c-0.025-0.002-0.045-0.023-0.045-0.048 0-0.012 0.005-0.024 0.012-0.032l-0 0zM15.203 21.686l-0.957 0.96c-0.009 0.010-0.022 0.016-0.036 0.016s-0.027-0.006-0.036-0.016l-0-0-0.959-0.96c-0.013-0.009-0.022-0.024-0.022-0.040s0.008-0.032 0.021-0.040l0-0 0.565 0.001c0 0 0 0 0.001 0 0.028 0 0.052-0.021 0.056-0.048l0-0 0-1.25c0-0.027 0.022-0.048 0.048-0.048v0l0.596-0c0.027 0 0.048 0.022 0.048 0.048v0l-0.002 1.25c0 0.027 0.022 0.048 0.048 0.048v0l0.565 0c0.009-0.007 0.020-0.011 0.032-0.011 0.028 0 0.052 0.023 0.052 0.052 0 0.016-0.007 0.031-0.019 0.040l-0 0zM11.421 20.436v-0.562c0-0.027-0.022-0.048-0.048-0.048v0l-1.214-0c-0.027 0-0.048-0.022-0.048-0.048v0l-0-0.573c-0.004-0.007-0.007-0.016-0.007-0.025 0-0.027 0.022-0.048 0.048-0.048 0.002 0 0.005 0 0.007 0l-0-0 1.214 0.001c0.027 0 0.048-0.022 0.048-0.048v0l0-0.565c0.003-0.029 0.027-0.051 0.056-0.051 0.012 0 0.023 0.004 0.033 0.010l-0-0 0.959 0.967c0.008 0.009 0.012 0.020 0.012 0.032s-0.005 0.024-0.012 0.032l0-0-0.957 0.967c-0.009 0.006-0.020 0.010-0.033 0.010-0.029 0-0.053-0.022-0.056-0.050l-0-0zM16.997 18.519v0.565c0 0.027 0.022 0.048 0.048 0.048v0l1.24 0c0 0 0.056 0 0.056 0.046v0.598c-0.004 0.027-0.027 0.048-0.056 0.048-0 0-0 0-0.001 0l-1.24 0c-0.027 0-0.048 0.022-0.048 0.048v0l-0 0.562c0 0.001 0 0.003 0 0.004 0 0.027-0.022 0.048-0.048 0.048-0.012 0-0.024-0.005-0.032-0.013l0 0-0.956-0.967v-0.064l0.957-0.968c0 0 0.080-0.008 0.080 0.041z"></path>
</svg>
