<!-- Generated by IcoMoon.io -->
<svg version="1.1" xmlns="http://www.w3.org/2000/svg" width="34" height="32" viewBox="0 0 34 32">
<title>Virtual-Machine-Classic</title>
<path fill="#000" d="M9.141 18.544c0 0.273 0.228 0.495 0.508 0.495 0 0 0 0 0 0h14.225c0 0 0 0 0 0 0.28 0 0.508-0.221 0.508-0.495v0-8.907c-0-0.273-0.228-0.495-0.508-0.495-0 0-0 0-0 0h-14.225c0 0-0 0-0 0-0.28 0-0.508 0.221-0.508 0.495v0 8.907z"></path>
<path fill="#fff" d="M9.988 17.942c0 0.15 0.125 0.272 0.279 0.272 0 0 0 0 0 0h12.988c0 0 0 0 0 0 0.154 0 0.279-0.122 0.279-0.271v-7.705c-0-0.15-0.125-0.272-0.279-0.272-0 0-0 0-0 0h-12.988c-0 0-0 0-0 0-0.154 0-0.279 0.121-0.279 0.271v7.705z"></path>
<path fill="#0078d4" d="M19.303 12.648v2.877l-2.541 1.452v-2.885l2.541-1.444z"></path>
<path fill="#83b9f9" d="M19.303 12.646l-2.541 1.452-2.541-1.452 2.541-1.444 2.541 1.444z"></path>
<path fill="#5ea0ef" d="M16.762 14.1v2.877l-2.541-1.452v-2.877l2.541 1.452z"></path>
<path fill="#83b9f9" opacity="0.2" d="M14.222 15.525l2.541-1.433v2.885l-2.541-1.452z"></path>
<path fill="#5ea0ef" opacity="0.2" d="M19.303 15.525l-2.541-1.433v2.885l2.541-1.452z"></path>
<path fill="#000" d="M15.999 22.035c-1.498-0.231-1.557-1.296-1.557-2.995h-2.99c0 1.699-0.059 2.764-1.559 2.995-0.425 0.048-0.753 0.396-0.753 0.82 0 0.001 0 0.002 0 0.003v-0h7.622c0-0.001 0-0.001 0-0.002 0-0.427-0.333-0.778-0.76-0.821l-0.004-0z"></path>
</svg>
