<!-- Generated by IcoMoon.io -->
<svg version="1.1" xmlns="http://www.w3.org/2000/svg" width="36" height="32" viewBox="0 0 36 32">
<title>Virtual-Network-Classic</title>
<path fill="#3999c6" d="M30.461 12.711c0.25-0.241 0.201-0.625 0-0.867l-1.206-1.153-5.428-5.043c-0.25-0.241-0.603-0.241-0.853 0s-0.299 0.625 0 0.867l5.678 5.329c0.25 0.241 0.25 0.625 0 0.867l-5.776 5.521c-0.255 0.241-0.255 0.625 0 0.867 0.25 0.237 0.652 0.192 0.853 0l5.428-5.142 1.304-1.246zM5.637 12.711c-0.25-0.241-0.201-0.625 0-0.867l1.206-1.153 5.428-5.043c0.25-0.241 0.603-0.241 0.853 0 0.255 0.241 0.304 0.625 0 0.867l-5.575 5.329c-0.255 0.241-0.255 0.625 0 0.867l5.678 5.521c0.25 0.241 0.25 0.625 0 0.867-0.25 0.237-0.652 0.192-0.853 0l-5.53-5.093-1.206-1.296z"></path>
<path fill="#0072c6" d="M14.633 12.274c0 0.916-0.804 1.586-1.657 1.586-0.858 0-1.76-0.768-1.76-1.586 0-0.813 0.701-1.581 1.76-1.581 1.005 0 1.657 0.768 1.657 1.581zM19.708 12.274c0 0.916-0.804 1.586-1.657 1.586s-1.76-0.768-1.76-1.586c0-0.813 0.804-1.581 1.76-1.581s1.657 0.768 1.657 1.581z"></path>
<path fill="#0072c6" d="M24.833 12.276c0 0.875-0.742 1.585-1.658 1.585s-1.658-0.71-1.658-1.585c0-0.875 0.742-1.585 1.658-1.585s1.658 0.71 1.658 1.585z"></path>
</svg>
