<!-- Generated by IcoMoon.io -->
<svg version="1.1" xmlns="http://www.w3.org/2000/svg" width="32" height="32" viewBox="0 0 32 32">
<title>Virtual-Machine-Image-Definition</title>
<path fill="#000" d="M8.725 22.791c0 0.266 0.211 0.482 0.472 0.482h10.44c0.001 0 0.001 0 0.002 0 0.261 0 0.473-0.216 0.473-0.482v0-13.583c-0-0.267-0.212-0.482-0.473-0.482-0.001 0-0.002 0-0.002 0h-10.44c-0.261 0-0.472 0.216-0.472 0.482v0 13.583z"></path>
<path fill="#773adc" d="M23.241 18.912l-2.423-2.474c-0.022-0.021-0.052-0.033-0.085-0.033-0.067 0-0.121 0.052-0.126 0.119l-0 0 0.001 1.448c-2.91 0-5.823 1.586-5.823 4.447 0.413-0.636 2.533-2.335 5.823-2.335v1.388c0.005 0.067 0.060 0.119 0.126 0.119 0.033 0 0.062-0.013 0.085-0.033l-0 0 2.422-2.473c0.020-0.023 0.032-0.053 0.032-0.086s-0.012-0.063-0.032-0.086l0 0z"></path>
<path fill="#50e6ff" d="M17.738 13.071v3.947l-3.316 1.981v-3.955l3.316-1.973z"></path>
<path fill="#c3f1ff" d="M17.739 13.070l-3.316 1.981-3.326-1.981 3.326-1.984 3.316 1.984z"></path>
<path fill="#9cebff" d="M14.423 15.052v3.947l-3.326-1.981v-3.947l3.326 1.981z"></path>
<path fill="#c3f1ff" d="M11.097 17.017l3.326-1.973v3.955l-3.326-1.981z"></path>
<path fill="#9cebff" d="M17.738 17.017l-3.316-1.973v3.955l3.316-1.981z"></path>
</svg>
