<!-- Generated by IcoMoon.io -->
<svg version="1.1" xmlns="http://www.w3.org/2000/svg" width="34" height="32" viewBox="0 0 34 32">
<title>Virtual-Machine-Non-Azure-Windows</title>
<path fill="#000" d="M9.141 18.544c0 0.273 0.228 0.495 0.508 0.495 0 0 0 0 0 0h14.225c0 0 0 0 0 0 0.28 0 0.508-0.221 0.508-0.495v0-8.907c-0-0.273-0.228-0.495-0.508-0.495-0 0-0 0-0 0h-14.225c0 0-0 0-0 0-0.28 0-0.508 0.221-0.508 0.495v0 8.907z"></path>
<path fill="#000" d="M16.008 22.035c-1.506-0.231-1.565-1.288-1.565-2.995h-2.99c0 1.707-0.051 2.764-1.559 2.995-0.425 0.048-0.753 0.396-0.753 0.82 0 0.001 0 0.002 0 0.003v-0h7.622c0-0.001 0-0.002 0-0.003 0-0.424-0.329-0.774-0.752-0.82l-0.004-0z"></path>
<path fill="#804998" opacity="0.2" d="M19.912 17.337l-6.735-0.527c-0.159-0.013-0.282-0.145-0.282-0.301v-5.036c0-0.153 0.124-0.285 0.282-0.298 0 0 6.737-0.527 6.737-0.527 0.194 0 0.331 0.134 0.331 0.298v6.092c0 0.081-0.032 0.156-0.091 0.212-0.056 0.056-0.134 0.086-0.215 0.086h-0.027z"></path>
<path fill="#fff" opacity="0.8" d="M16.57 13.757h3.366v-2.812l-3.366 0.266v2.546z"></path>
<path fill="#fff" opacity="0.8" d="M13.203 13.757h2.888v-2.508l-2.887 0.226v2.283z"></path>
<path fill="#fff" opacity="0.8" d="M16.57 14.227h3.366v2.81l-3.366-0.263v-2.546z"></path>
<path fill="#fff" opacity="0.8" d="M13.203 14.226h2.888v2.508l-2.887-0.226v-2.283z"></path>
</svg>
