<!-- Generated by IcoMoon.io -->
<svg version="1.1" xmlns="http://www.w3.org/2000/svg" width="33" height="32" viewBox="0 0 33 32">
<title>Virtual-Machine-Image-Version</title>
<path fill="#0078d4" d="M8.928 22.649c0 0.233 0.192 0.422 0.428 0.423h9.435c0.001 0 0.001 0 0.002 0 0.237 0 0.428-0.189 0.429-0.423v-11.867c-0-0.234-0.192-0.423-0.429-0.423-0.001 0-0.001 0-0.002 0h-9.435c-0.236 0-0.428 0.19-0.428 0.423v11.867z"></path>
<path fill="#000" d="M10.429 22.649c0 0.233 0.192 0.422 0.428 0.423h9.435c0.001 0 0.001 0 0.002 0 0.237 0 0.428-0.189 0.429-0.423v-11.867c-0-0.234-0.192-0.423-0.429-0.423-0.001 0-0.001 0-0.002 0h-9.435c-0.236 0-0.428 0.19-0.428 0.423v11.867z"></path>
<path fill="#773adc" d="M23.785 19.21l-2.463-2.421c-0.022-0.028-0.056-0.046-0.095-0.046-0.066 0-0.12 0.053-0.12 0.119 0 0.004 0 0.009 0.001 0.013l-0-0.001 0.002 1.412c-2.959 0-5.919 1.56-5.919 4.38 0.42-0.628 2.573-2.295 5.919-2.295v1.355c0.001 0.070 0.058 0.125 0.129 0.125 0.033 0 0.063-0.012 0.086-0.032l-0 0 2.461-2.43c0.019-0.024 0.031-0.055 0.031-0.089s-0.012-0.065-0.031-0.089l0 0z"></path>
<path fill="#50e6ff" d="M18.578 14.154v3.448l-3.002 1.736v-3.456l3.002-1.728z"></path>
<path fill="#c3f1ff" d="M18.577 14.155l-3.002 1.736-3.002-1.736 3.002-1.736 3.002 1.736z"></path>
<path fill="#9cebff" d="M15.575 15.889v3.448l-3.002-1.736v-3.448l3.002 1.736z"></path>
<path fill="#c3f1ff" d="M12.574 17.601l3.002-1.72v3.456l-3.002-1.736z"></path>
<path fill="#9cebff" d="M18.578 17.601l-3.002-1.72v3.456l3.002-1.736z"></path>
</svg>
