<!-- Generated by IcoMoon.io -->
<svg version="1.1" xmlns="http://www.w3.org/2000/svg" width="33" height="32" viewBox="0 0 33 32">
<title>Virtual-Cluster</title>
<path fill="#949494" d="M15.293 22.778c-0.022 0.167-0.165 0.295-0.339 0.295-0.010 0-0.020-0-0.030-0.001l0.001 0h-5.63c-0.009 0.001-0.019 0.001-0.029 0.001-0.174 0-0.317-0.128-0.339-0.294l-0-0.002v-8.185c0.022-0.167 0.165-0.295 0.339-0.295 0.010 0 0.020 0 0.030 0.001l-0.001-0h5.63c0.009-0.001 0.019-0.001 0.029-0.001 0.174 0 0.317 0.128 0.339 0.294l0 0.002v8.185z"></path>
<path fill="#003067" d="M9.865 12.72c0-0 0-0 0-0.001 0-0.376 0.309-0.681 0.691-0.682h3.188c0 0 0.001 0 0.001 0 0.382 0 0.692 0.305 0.692 0.682 0 0 0 0 0 0.001v-0c0 0.003 0 0.006 0 0.009 0 0.377-0.31 0.682-0.692 0.682-0.001 0-0.001 0-0.002 0h-3.188c-0.382-0.001-0.691-0.306-0.691-0.682 0-0 0-0 0-0.001v0-0.008zM9.865 10.698c-0-0.003-0-0.006-0-0.009 0-0.376 0.309-0.681 0.691-0.682h3.188c0 0 0.001 0 0.002 0 0.382 0 0.692 0.305 0.692 0.682 0 0.003-0 0.006-0 0.009v-0c0 0 0 0 0 0.001 0 0.377-0.31 0.682-0.692 0.682-0.001 0-0.001 0-0.002 0h-3.188c-0.382-0.001-0.691-0.306-0.691-0.682 0-0 0-0 0-0.001v0z"></path>
<path fill="#50e6ff" d="M11.047 10.699c0 0.253-0.208 0.458-0.464 0.458s-0.464-0.205-0.464-0.458c0-0.253 0.208-0.458 0.464-0.458s0.464 0.205 0.464 0.458z"></path>
<path fill="#50e6ff" d="M11.047 12.719c0 0.253-0.208 0.458-0.464 0.458s-0.464-0.205-0.464-0.458c0-0.253 0.208-0.458 0.464-0.458s0.464 0.205 0.464 0.458z"></path>
<path fill="#949494" d="M22.316 17.408c-0.018 0.171-0.163 0.303-0.34 0.303-0.010 0-0.019-0-0.029-0.001l0.001 0h-5.63c-0.008 0.001-0.018 0.001-0.028 0.001-0.177 0-0.322-0.132-0.34-0.302l-0-0.001v-8.177c0.018-0.171 0.163-0.303 0.34-0.303 0.010 0 0.019 0 0.029 0.001l-0.001-0h5.63c0.008-0.001 0.018-0.001 0.028-0.001 0.177 0 0.322 0.132 0.34 0.302l0 0.001v8.177z"></path>
<path fill="#003067" d="M16.888 12.683c0.001-0.375 0.31-0.679 0.691-0.68h3.172c0.381 0.001 0.689 0.305 0.691 0.68v0c0.001 0.014 0.002 0.029 0.002 0.045 0 0.377-0.31 0.682-0.692 0.682-0 0-0 0-0 0h-3.172c-0.382-0.001-0.691-0.306-0.691-0.682 0-0 0-0 0-0.001v0-0.045zM16.888 10.656c-0-0.006-0-0.012-0-0.019 0-0.376 0.309-0.682 0.691-0.682h3.172c0.38 0.005 0.686 0.308 0.691 0.682v0c0 0.006 0 0.012 0 0.019 0 0.376-0.309 0.682-0.691 0.682h-3.172c-0.382-0.001-0.691-0.306-0.691-0.682 0-0 0-0 0-0.001v0z"></path>
<path fill="#50e6ff" d="M18.070 10.656c0 0.253-0.208 0.458-0.464 0.458s-0.464-0.205-0.464-0.458c0-0.253 0.208-0.458 0.464-0.458s0.464 0.205 0.464 0.458z"></path>
<path fill="#50e6ff" d="M18.070 12.685c0 0.253-0.208 0.458-0.464 0.458s-0.464-0.205-0.464-0.458c0-0.253 0.208-0.458 0.464-0.458s0.464 0.205 0.464 0.458z"></path>
<path fill="#000" d="M16.372 22.77c-0.018 0.171-0.163 0.303-0.34 0.303-0.010 0-0.019-0-0.029-0.001l0.001 0h-5.64c-0.008 0.001-0.018 0.001-0.028 0.001-0.177 0-0.322-0.132-0.34-0.302l-0-0.001v-8.177c0.009-0.179 0.158-0.321 0.341-0.321 0.009 0 0.019 0 0.028 0.001l-0.001-0h5.63c0.011-0.001 0.024-0.002 0.037-0.002 0.183 0 0.333 0.143 0.341 0.322l0 0.001v8.177z"></path>
<path fill="#003067" d="M10.933 18.046c0-0 0-0 0-0.001 0-0.376 0.309-0.681 0.691-0.682h3.172c0.382 0.001 0.691 0.306 0.691 0.682 0 0 0 0 0 0.001v-0h0.008c-0.005 0.375-0.311 0.677-0.69 0.683h-3.18c-0.382-0.001-0.691-0.306-0.691-0.682 0-0 0-0 0-0.001v0zM10.933 16.001c0-0 0-0 0-0.001 0-0.376 0.309-0.681 0.691-0.682h3.172c0.002-0 0.004-0 0.007-0 0.382 0 0.692 0.305 0.692 0.682 0 0 0 0 0 0.001v-0c-0.006 0.373-0.312 0.675-0.69 0.68h-3.18c-0.381-0.001-0.689-0.305-0.691-0.68v-0z"></path>
<path fill="#50e6ff" d="M12.115 16.017c0 0.253-0.208 0.458-0.464 0.458s-0.464-0.205-0.464-0.458c0-0.253 0.208-0.458 0.464-0.458s0.464 0.205 0.464 0.458z"></path>
<path fill="#50e6ff" d="M12.115 18.046c0 0.253-0.208 0.458-0.464 0.458s-0.464-0.205-0.464-0.458c0-0.253 0.208-0.458 0.464-0.458s0.464 0.205 0.464 0.458z"></path>
<path fill="#000" d="M23.814 19.452c-0.039-1.179-0.938-2.139-2.096-2.294l-0.013-0.001c-0.072-1.608-1.411-2.885-3.053-2.885-0.032 0-0.065 0.001-0.097 0.002l0.005-0c-0.020-0-0.043-0.001-0.066-0.001-1.338 0-2.481 0.827-2.931 1.991l-0.007 0.021c-1.411 0.174-2.499 1.327-2.547 2.739l-0 0.005c0.067 1.555 1.361 2.79 2.949 2.79 0.035 0 0.070-0.001 0.105-0.002l-0.005 0h5.191c0.020 0.004 0.042 0.006 0.066 0.006s0.046-0.002 0.068-0.006l-0.002 0c1.328-0.009 2.405-1.059 2.434-2.363l0-0.003z"></path>
</svg>
