<!-- Generated by IcoMoon.io -->
<svg version="1.1" xmlns="http://www.w3.org/2000/svg" width="34" height="32" viewBox="0 0 34 32">
<title>Virtual-Machine-Image-Classic</title>
<path fill="#000" d="M9.141 18.544c0 0.273 0.228 0.495 0.508 0.495 0 0 0 0 0 0h14.225c0 0 0 0 0 0 0.28 0 0.508-0.221 0.508-0.495v0-8.907c-0-0.273-0.228-0.495-0.508-0.495-0 0-0 0-0 0h-14.225c0 0-0 0-0 0-0.28 0-0.508 0.221-0.508 0.495v0 8.907z"></path>
<path fill="#fff" d="M9.988 17.942c0 0.15 0.125 0.272 0.279 0.272 0 0 0 0 0 0h12.988c0 0 0 0 0 0 0.154 0 0.279-0.122 0.279-0.271v-7.705c-0-0.15-0.125-0.272-0.279-0.272-0 0-0 0-0 0h-12.988c-0 0-0 0-0 0-0.154 0-0.279 0.121-0.279 0.271v7.705z"></path>
<path fill="#0078d4" d="M19.303 12.648v2.877l-2.541 1.452v-2.885l2.541-1.444z"></path>
<path fill="#83b9f9" d="M19.303 12.646l-2.541 1.452-2.541-1.452 2.541-1.444 2.541 1.444z"></path>
<path fill="#5ea0ef" d="M16.762 14.1v2.877l-2.541-1.452v-2.877l2.541 1.452z"></path>
<path fill="#83b9f9" opacity="0.2" d="M14.222 15.525l2.541-1.433v2.885l-2.541-1.452z"></path>
<path fill="#5ea0ef" opacity="0.2" d="M19.303 15.525l-2.541-1.433v2.885l2.541-1.452z"></path>
<path fill="#000" d="M16.008 22.035c-1.506-0.231-1.565-1.288-1.565-2.995h-2.99c0 1.707-0.051 2.764-1.559 2.995-0.425 0.048-0.753 0.396-0.753 0.82 0 0.001 0 0.002 0 0.003v-0h7.622c0-0.001 0-0.002 0-0.003 0-0.424-0.329-0.774-0.752-0.82l-0.004-0z"></path>
<path fill="#5ea0ef" d="M13.603 10.544h-2.1c-0.003-0-0.006-0-0.009-0-0.276 0-0.5 0.218-0.5 0.487 0 0 0 0 0 0v0 2.046c0 0.137 0.114 0.247 0.254 0.247v0l0.168-0c0.14 0 0.254-0.111 0.254-0.247v0l0.001-1.89h1.93c0.14 0 0.254-0.111 0.254-0.247v0l0.001-0.156c-0.005-0.133-0.117-0.239-0.254-0.239-0 0-0 0-0 0v0zM13.603 16.978h-1.938v-1.882c0-0.137-0.114-0.247-0.254-0.247l-0.163 0c-0.14 0-0.254 0.111-0.254 0.247v0l0.001 2.046c0 0 0 0 0 0 0 0.269 0.224 0.487 0.5 0.487 0.003 0 0.006-0 0.009-0h2.099c0 0 0 0 0 0 0.137 0 0.249-0.106 0.254-0.239v-0l0.001-0.164c0-0.137-0.114-0.247-0.254-0.247v0zM21.986 10.561h-2.065c-0.003-0-0.006-0-0.009-0-0.136 0-0.246 0.107-0.246 0.239 0 0.003 0 0.006 0 0.009v-0l-0.001 0.156c0 0 0 0 0 0 0 0.132 0.11 0.239 0.246 0.239 0.003 0 0.006-0 0.009-0l1.931 0v1.898c0 0 0 0 0 0 0 0.132 0.11 0.239 0.246 0.239 0.003 0 0.006-0 0.009-0l0.168 0c0.136 0 0.246-0.107 0.246-0.239v0l0.002-2.046c0-0.003 0-0.006 0-0.009 0-0.269-0.224-0.487-0.5-0.487-0.012 0-0.025 0-0.037 0.001l0.002-0zM22.274 14.865h-0.161c-0.14 0-0.254 0.111-0.254 0.247v0l0.001 1.882h-1.938c-0.003-0-0.006-0-0.009-0-0.136 0-0.246 0.107-0.246 0.239 0 0.003 0 0.006 0 0.009v-0l-0.001 0.164c0 0.137 0.114 0.247 0.254 0.247v0l2.066-0c0 0 0 0 0.001 0 0.276 0 0.5-0.218 0.5-0.487 0-0.003-0-0.006-0-0.008v0-2.046c0-0.001 0-0.002 0-0.003 0-0.122-0.091-0.224-0.21-0.244l-0.002-0z"></path>
</svg>
