<!-- Generated by IcoMoon.io -->
<svg version="1.1" xmlns="http://www.w3.org/2000/svg" width="33" height="32" viewBox="0 0 33 32">
<title>Virtual-WAN-Gateway</title>
<path fill="#000" d="M23.884 16.055c-0.053-1.676-1.315-3.044-2.944-3.268l-0.018-0.002c-0.107-2.284-1.992-4.095-4.302-4.095-0.047 0-0.093 0.001-0.139 0.002l0.007-0c-0.025-0.001-0.054-0.001-0.083-0.001-1.887 0-3.497 1.178-4.129 2.836l-0.010 0.030c-1.986 0.246-3.517 1.887-3.579 3.897l-0 0.006c0.088 2.206 1.905 3.962 4.134 3.962 0.052 0 0.103-0.001 0.154-0.003l-0.007 0h7.302c0.028 0.004 0.061 0.007 0.094 0.007s0.066-0.002 0.097-0.007l-0.004 0c1.869-0.015 3.384-1.507 3.426-3.36l0-0.004z"></path>
<path fill="#fff" d="M11.47 23.126c-2.173-0-3.934-1.755-3.934-3.918s1.761-3.918 3.934-3.918 3.934 1.754 3.934 3.918c0 0.001 0 0.001 0 0.002v-0c-0.001 2.163-1.762 3.916-3.934 3.916-0 0-0.001 0-0.001 0h0z"></path>
<path fill="#000" d="M16.287 15.105c-2.27 0.008-4.107 1.842-4.107 4.103 0 1.382 0.686 2.605 1.738 3.348l0.013 0.009c0.66 0.467 1.482 0.747 2.37 0.747 2.276 0 4.12-1.837 4.12-4.103s-1.845-4.103-4.12-4.103c-0.005 0-0.009 0-0.014 0h0.001zM20.034 19.209c0.006 0.073 0.009 0.158 0.009 0.244s-0.003 0.171-0.010 0.255l0.001-0.011c-0.183-0.095-0.4-0.186-0.625-0.259l-0.032-0.009c-0.041-0.393-0.371-0.696-0.773-0.696-0.118 0-0.231 0.026-0.331 0.074l0.005-0.002c-0.514-0.755-1.233-1.337-2.079-1.67l-0.030-0.011c-0.034-0.157-0.109-0.294-0.212-0.402l0 0c0.44-0.454 0.984-0.806 1.593-1.018l0.029-0.009c1.446 0.545 2.455 1.912 2.455 3.514v0zM18.525 22.203c-0.541 0.406-1.211 0.668-1.94 0.72l-0.012 0.001c-0.551-0.372-0.996-0.86-1.306-1.432l-0.011-0.021c0.111-0.088 0.196-0.206 0.242-0.341l0.002-0.005c0.030-0.078 0.047-0.167 0.047-0.261 0-0.142-0.039-0.275-0.108-0.388l0.002 0.003c0.65-0.492 1.463-0.802 2.347-0.841l0.009-0c0.045 0.281 0.237 0.508 0.493 0.604l0.005 0.002c0.056 0.020 0.121 0.035 0.189 0.043l0.004 0c0.082 0.31 0.129 0.666 0.129 1.032 0 0.313-0.034 0.618-0.1 0.912l0.005-0.028zM15.088 17.997c0.077 0.028 0.166 0.044 0.258 0.044 0.332 0 0.616-0.208 0.727-0.5l0.002-0.005c0.788 0.307 1.437 0.827 1.892 1.49l0.009 0.014c-0.038 0.053-0.072 0.114-0.099 0.179l-0.002 0.006c-1.030 0.031-1.969 0.394-2.72 0.983l0.010-0.007-0.118-0.059c-0.069-0.031-0.15-0.049-0.235-0.051h-0.001c-0.024-0.167-0.038-0.359-0.038-0.554 0-0.567 0.117-1.107 0.327-1.598l-0.010 0.027v0.032zM14.445 21.597h0.070c0.059 0.018 0.128 0.028 0.198 0.028s0.139-0.010 0.203-0.029l-0.005 0.001c0.266 0.52 0.614 0.96 1.032 1.322l0.005 0.005c-0.7-0.062-1.332-0.308-1.861-0.688l0.011 0.008c0.106-0.263 0.222-0.487 0.356-0.699l-0.011 0.018v0.035zM16.287 15.467c0.232 0.003 0.457 0.024 0.676 0.063l-0.025-0.004c-0.524 0.25-0.969 0.581-1.34 0.981l-0.003 0.003c-0.059-0.016-0.128-0.026-0.198-0.026-0.268 0-0.505 0.136-0.645 0.342l-0.002 0.003h-0.22c-0.456 0.003-0.894 0.070-1.309 0.193l0.033-0.008c0.691-0.936 1.79-1.539 3.031-1.547h0.001zM12.539 19.209c0-0.613 0.15-1.192 0.415-1.701l-0.010 0.021c0.476-0.204 1.030-0.322 1.611-0.322 0.027 0 0.055 0 0.082 0.001l-0.004-0c-0 0.006-0 0.014-0 0.021 0 0.2 0.070 0.383 0.187 0.527l-0.001-0.002c-0.263 0.552-0.417 1.199-0.417 1.882 0 0.199 0.013 0.396 0.039 0.588l-0.002-0.023c-0.18 0.089-0.318 0.239-0.387 0.424l-0.002 0.005c-0.030 0.079-0.047 0.171-0.047 0.267 0 0.168 0.053 0.323 0.142 0.451l-0.002-0.003c-0.124 0.191-0.242 0.412-0.342 0.643l-0.012 0.030c-0.768-0.682-1.249-1.671-1.249-2.771 0-0.013 0-0.027 0-0.040l-0 0.002zM18.973 21.814c0-0.174 0-0.351 0-0.536 0.002-0.045 0.003-0.098 0.003-0.151 0-0.328-0.035-0.648-0.102-0.957l0.005 0.030c0.178-0.075 0.318-0.211 0.395-0.381l0.002-0.005c0.253 0.085 0.468 0.179 0.673 0.288l-0.024-0.012c-0.164 0.677-0.497 1.26-0.952 1.724l0.001-0.001z"></path>
</svg>
