<!-- Generated by IcoMoon.io -->
<svg version="1.1" xmlns="http://www.w3.org/2000/svg" width="27" height="32" viewBox="0 0 27 32">
<title>Virtual-Network-Firewall</title>
<path fill="#3999c6" d="M22.463 9.649c0.184-0.188 0.148-0.484 0-0.672l-0.889-0.893-4.003-3.914c-0.184-0.184-0.445-0.184-0.629 0-0.184 0.188-0.221 0.484 0 0.672l4.187 4.134c0.188 0.188 0.188 0.484 0 0.672l-4.259 4.286c-0.085 0.086-0.138 0.204-0.138 0.334s0.053 0.249 0.138 0.334v0c0.184 0.188 0.481 0.148 0.629 0l4.003-3.986 0.962-0.969zM4.157 9.649c-0.184-0.188-0.148-0.484 0-0.672l0.889-0.893 4.003-3.914c0.184-0.184 0.445-0.184 0.629 0 0.184 0.188 0.224 0.484 0 0.672l-4.111 4.134c-0.086 0.086-0.139 0.205-0.139 0.336s0.053 0.25 0.139 0.336l0 0 4.187 4.286c0.184 0.184 0.184 0.484 0 0.669-0.188 0.188-0.484 0.148-0.633 0l-4.039-3.91-0.036-0.040-0.889-1.005z"></path>
<path fill="#57a300" d="M10.809 9.25c0 0.705-0.593 1.229-1.222 1.229s-1.298-0.596-1.298-1.229c0-0.636 0.517-1.232 1.298-1.232 0.741 0 1.222 0.596 1.222 1.232zM14.552 9.25c0 0.705-0.593 1.229-1.222 1.229s-1.298-0.596-1.298-1.229c0-0.636 0.593-1.232 1.298-1.232s1.222 0.596 1.222 1.232z"></path>
<path fill="#57a300" d="M18.332 9.248c0 0.679-0.547 1.23-1.223 1.23s-1.223-0.55-1.223-1.23c0-0.679 0.548-1.23 1.223-1.23s1.223 0.55 1.223 1.23z"></path>
<path fill="#57a300" d="M10.92 12.813c-2.454-0.27-2.866-1.334-2.866-1.334s-0.55 1.397-4.082 1.397v5.729c0 0.692 0.382 1.341 0.913 1.907 1.206 1.285 3.169 2.151 3.169 2.151s4.085-1.795 4.085-4.059v-5.729c-0.455 0-0.86-0.023-1.219-0.063z"></path>
<path fill="#b8d432" opacity="0.4" d="M17.983 15.196l1.838-2.342c-2.431-0.27-2.836-1.321-2.836-1.321s-0.547 1.384-4.045 1.384v5.673c0 0.685 0.379 1.328 0.906 1.891l4.138-5.284z"></path>
<path fill="#fff" d="M18.691 16.706h-0.184v-0.751c-0.021-0.807-0.677-1.453-1.484-1.453s-1.463 0.646-1.484 1.451l-0 0.002v0.751h-0.188c-0.103 0.001-0.186 0.085-0.186 0.189 0 0.001 0 0.001 0 0.002v-0l0.001 2.228c0 0.105 0.082 0.191 0.184 0.191h3.34c0.103-0.001 0.186-0.085 0.186-0.189 0-0.001 0-0.001 0-0.002v0l0.002-2.228c0-0 0-0.001 0-0.001 0-0.104-0.083-0.188-0.186-0.189h-0zM17.021 15.21c0.412 0 0.744 0.333 0.744 0.745v0.751h-1.486v-0.751c0-0.412 0.333-0.745 0.741-0.745z"></path>
</svg>
