<!-- Generated by IcoMoon.io -->
<svg version="1.1" xmlns="http://www.w3.org/2000/svg" width="34" height="32" viewBox="0 0 34 32">
<title>Virtual-Machine-Non-Azure-Linux</title>
<path fill="#000" d="M9.141 18.544c0 0.273 0.228 0.495 0.508 0.495 0 0 0 0 0 0h14.225c0 0 0 0 0 0 0.28 0 0.508-0.221 0.508-0.495v0-8.907c-0-0.273-0.228-0.495-0.508-0.495-0 0-0 0-0 0h-14.225c0 0-0 0-0 0-0.28 0-0.508 0.221-0.508 0.495v0 8.907z"></path>
<path fill="#000" d="M16.008 22.035c-1.506-0.231-1.565-1.288-1.565-2.995h-2.99c0 1.707-0.051 2.764-1.559 2.995-0.425 0.048-0.753 0.396-0.753 0.82 0 0.001 0 0.002 0 0.003v-0h7.622c0-0.001 0-0.002 0-0.003 0-0.424-0.329-0.774-0.752-0.82l-0.004-0z"></path>
<path fill="#fff" opacity="0.32" d="M17.182 12.369l-0.132 0.078-0.113-0.199c-0.043-0.078-0.048-0.143-0.019-0.21 0.024-0.059 0.078-0.094 0.142-0.094h0.013c0.073 0.005 0.145 0.081 0.169 0.145 0.021 0.067 0.021 0.231-0.062 0.28v0z"></path>
<path fill="#fbfbf9" opacity="0.8" d="M15.912 16.227c0-0.008-0.645-1.019-0.608-1.194 0.304-1.409 0.667-1.616 0.799-1.914 0.134-0.298 0.056-0.573 0.215-0.575s0.624 0.030 0.737 0.067c0.113 0.035 0.274 0.148 0.363 0.39 0.121 0.223 0.239 0.446 0.277 0.699 0.003 0.024 0.013 0.046 0.030 0.065 0.301 0.323 0.363 0.715 0.341 1.132-0.005 0.105-0.019 0.258-0.035 0.312-0.013 0.056-0.419 1.336-1.062 1.323-0.64-0.016-0.981-0.25-1.057-0.304v0z"></path>
<path fill="#ff8c00" opacity="0.8" d="M19.358 15.926c-0.237-0.011-0.36-0.148-0.36-0.28-0.003-0.153 0.065-0.347-0.164-0.366s-0.694-0.043-0.82-0.065c-0.274-0.051-0.288 0.059-0.29 0.134-0.003 0.038 0.032 0.398-0.005 0.538 0.003 0.062 0 0.124-0.011 0.183-0.027 0.164-0.046 0.331-0.067 0.495-0.003 0.081-0.003 0.161-0.005 0.239 0.199 0.285 0.586 0.296 0.823 0.051 0.226-0.223 0.497-0.376 0.782-0.511 0.078-0.038 0.156-0.097 0.199-0.207s0.003-0.207-0.081-0.212z"></path>
<path fill="#1e1e1e" opacity="0.8" d="M16.238 15.79c-0.032 0.153-0.202 0.288-0.29 0.277-0.056-0.030-0.204-0.22-0.237-0.269-0.097-0.143-0.522-0.734-0.645-0.691-0.040 0.005-0.062 0.032-0.083 0.062-0.008 0.005-0.016 0.008-0.024 0.011-0.065-0.132-0.059-0.266 0.011-0.393 0.156-0.28 0.229-0.565 0.309-0.874 0.027-0.105 0.091-0.191 0.159-0.274 0.126-0.153 0.124-0.309 0.25-0.462 0.083-0.099 0.153-0.204 0.148-0.331-0.024-0.358-0.070-0.704-0.054-1.065 0.016-0.35 0.328-0.643 0.683-0.769 0.366-0.132 0.712-0.067 1.006 0.188 0.231 0.202 0.331 0.465 0.349 0.764 0.003 0.054 0.005 0.11 0.003 0.164-0.027 0.557 0.215 1.011 0.581 1.417 0.349 0.39 0.487 0.858 0.519 1.36 0.008 0.132-0.035 0.255-0.091 0.374-0.075 0.172-0.186 0.277-0.285 0.323-0.102 0.043-0.497 0.073-0.419-0.18 0.038-0.124 0.043-0.177-0.116-0.207 0.013-0.105 0.030-0.21 0.035-0.315 0.021-0.417-0.054-0.745-0.376-1.038-0.099-0.091-0.005-0.108-0.008-0.188-0.008-0.223-0.142-0.446-0.263-0.667-0.011-0.043-0.030-0.078-0.056-0.11 0.008-0.035-0.013-0.062-0.030-0.089 0.019-0.070 0.051-0.137 0.035-0.212 0-0.065-0.68-0.094-0.764-0.059-0.038-0.013-0.401-0.027-0.398-0.021-0.048 0.035-0.083 0.083-0.099 0.14-0.013 0.054 0.075 0.164 0.083 0.183-0.003 0.075-0.008 0.151-0.013 0.226-0.005 0.027-0.013 0.054-0.021 0.081-0.059 0.086-0.118 0.172-0.172 0.261-0.051 0.081-0.11 0.156-0.116 0.255-0.040 0.099 0.102 0.231-0.027 0.347s-0.258 0.675-0.261 0.807c-0.003 0.14 0.263 0.465 0.366 0.557 0.185 0.172 0.352 0.237 0.315 0.419v0z"></path>
<path fill="#1e1e1e" opacity="0.8" d="M16.111 16.321c0.274 0.078 1.046 0.099 1.422-0.266 0.062-0.056 0.126-0.113 0.188-0.169 0.003 0.062 0 0.121-0.011 0.183-0.027 0.164-0.046 0.331-0.067 0.495-0.003 0.081-0.003 0.161-0.005 0.239-0.347-0.091-0.866-0.124-1.019-0.116-0.156 0.008-0.368 0.046-0.489 0.075l-0.019-0.441z"></path>
<path fill="#dda516" opacity="0.8" d="M19.017 15.686c-0.005-0.008-0.011-0.016-0.016-0.024 0.005 0.008 0.011 0.016 0.016 0.024z"></path>
<path fill="#dda516" opacity="0.8" d="M18.916 15.338c-0.005-0.005-0.013-0.013-0.021-0.019 0.008 0.005 0.016 0.013 0.021 0.019z"></path>
<path fill="#8c5f07" opacity="0.8" d="M15.953 16.098c0.003 0.005 0.008 0.011 0.011 0.016-0.003-0.005-0.008-0.011-0.011-0.016z"></path>
<path fill="#e3a906" opacity="0.8" d="M18.895 15.318v0 0 0z"></path>
<path fill="#ff8c00" opacity="0.8" d="M15.842 15.937c-0.202-0.202-0.355-0.449-0.495-0.723-0.075-0.145-0.301-0.258-0.387-0.032-0.083 0.226-0.218 0.32-0.438 0.29-0.161-0.021-0.315 0.099-0.245 0.298 0.073 0.212 0.153 0.382-0.005 0.53-0.159 0.151-0.094 0.306 0.129 0.336 0.226 0.030 0.815 0.159 1.156 0.333 0.339 0.175 0.61-0.156 0.645-0.253 0.091-0.242-0.161-0.578-0.36-0.78v0z"></path>
<path fill="#1e1e1e" opacity="0.8" d="M16.601 13.56c-0.194 0-0.32-0.175-0.411-0.331 0 0-0.296-0.403-0.188-0.626 0.016-0.032 0.040-0.083 0.344-0.266l0.056-0.048 0.054-0.027 0.035-0.013c0.043-0.011 0.091-0.024 0.137-0.024h0.019l0.040 0.008 0.091 0.030 0.739 0.266 0.021 0.108c0.016 0.089-0.005 0.164-0.024 0.226l-0.030 0.105-0.062 0.024c-0.056 0.019-0.145 0.11-0.215 0.183s-0.134 0.143-0.202 0.183c-0.024 0.016-0.051 0.038-0.075 0.056-0.108 0.075-0.207 0.148-0.331 0.148v0z"></path>
<path fill="#ff8c00" opacity="0.8" d="M17.094 12.676c-0.132 0.11-0.282 0.204-0.468 0.21-0.005 0.005-0.005 0.005 0 0 0.003-0.040 0-0.081-0.038-0.11-0.030-0.024-0.032-0.062-0.024-0.094 0.035-0.129 0.013-0.263 0.019-0.393-0.035-0.011-0.116 0.016-0.126 0.019-0.016 0.008-0.032 0.016-0.048 0.024-0.019 0.016-0.038 0.030-0.054 0.046-0.024 0.013-0.277 0.164-0.301 0.215-0.067 0.137 0.151 0.476 0.183 0.514 0.255 0.436 0.398 0.247 0.637 0.083 0.129-0.081 0.296-0.328 0.441-0.379 0.016-0.070 0.048-0.14 0.035-0.215-0.094 0.005-0.175 0.013-0.255 0.081v0z"></path>
<path fill="#e3a906" opacity="0.8" d="M16.477 12.29c0 0 0 0 0.003 0 0 0 0 0-0.003-0.003v0.003z"></path>
<path fill="#fcd116" opacity="0.8" d="M17.244 12.499c0.054 0.027 0.105 0.056 0.105 0.129-0.102 0.005-0.191 0.011-0.28 0.086-0.142 0.121-0.339 0.298-0.54 0.304 0.008-0.065-0.089-0.159-0.062-0.269 0.032-0.143 0.038-0.317 0.043-0.46 0.094-0.035 0.18-0.003 0.269 0.024 0.035 0.021 0.073 0.043 0.108 0.065 0.065 0.021 0.126 0.046 0.191 0.070 0.051 0.032 0.11 0.038 0.167 0.051v0z"></path>
<path fill="#fff" opacity="0.9" d="M16.237 12.052h0.255v0.248h-0.255v-0.248z"></path>
<path fill="#fff" opacity="0.9" d="M17.002 12.052h0.255v0.248h-0.255v-0.248z"></path>
</svg>
