<!-- Generated by IcoMoon.io -->
<svg version="1.1" xmlns="http://www.w3.org/2000/svg" width="32" height="32" viewBox="0 0 32 32">
<title>Virtual-Machine-Availability-Set</title>
<path fill="#0078d4" d="M10.111 8.725h1.686v0.488h-1.686v-0.488zM22.53 9.213h0.275v0.264h0.47v-0.752h-0.744v0.488zM9.503 22.753h-0.239v-0.275h-0.539v0.796h0.778v-0.521zM22.804 22.504v0.249h-0.275v0.521h0.744v-0.77h-0.47zM9.264 9.462v-0.249h0.239v-0.488h-0.778v0.737h0.539z"></path>
<path fill="#0078d4" d="M11.182 16.121c0 0.137 0.111 0.248 0.248 0.248l7.027-0.002c0.137 0 0.248-0.111 0.248-0.248v0l-0.002-4.535c0-0.137-0.111-0.248-0.248-0.248l-7.025-0.001c-0.137 0-0.248 0.111-0.248 0.248v0l-0.001 4.538z"></path>
<path fill="#50e6ff" d="M16.197 13.124v1.463l-1.25 0.737v-1.47l1.25-0.729z"></path>
<path fill="#c3f1ff" d="M16.197 13.123l-1.25 0.737-1.258-0.737 1.258-0.734 1.25 0.734z"></path>
<path fill="#9cebff" d="M14.947 13.86v1.463l-1.258-0.737v-1.463l1.258 0.737z"></path>
<path fill="#000" d="M13.355 18.928c0 0.137 0.111 0.248 0.248 0.248l7.027-0.002c0.137 0 0.248-0.111 0.248-0.248v0l-0.002-4.535c0-0.137-0.111-0.248-0.248-0.248l-7.025-0.001c-0.137 0-0.248 0.111-0.248 0.248v0l-0.001 4.538z"></path>
<path fill="#50e6ff" d="M18.371 15.922v1.463l-1.25 0.737v-1.463l1.25-0.737z"></path>
<path fill="#c3f1ff" d="M18.37 15.922l-1.25 0.737-1.258-0.737 1.258-0.734 1.25 0.734z"></path>
<path fill="#9cebff" d="M17.121 16.659v1.463l-1.258-0.737v-1.463l1.258 0.737z"></path>
<path fill="#c3f1ff" d="M15.863 17.385l1.257-0.726v1.463l-1.258-0.737z"></path>
<path fill="#9cebff" d="M18.371 17.385l-1.25-0.726v1.463l1.25-0.737z"></path>
<path fill="#000" d="M18.628 20.69c-0.747-0.121-0.772-0.66-0.772-1.524h-1.478c0 0.857 0 1.404-0.772 1.524-0.205 0.034-0.361 0.207-0.367 0.418v0.001h3.765c-0.007-0.213-0.166-0.388-0.372-0.418l-0.002-0z"></path>
<path fill="#0078d4" d="M12.636 8.725h1.686v0.488h-1.686v-0.488zM15.151 8.725h1.686v0.488h-1.686v-0.488zM17.677 8.725h1.686v0.488h-1.686v-0.488zM20.202 8.725h1.686v0.488h-1.686v-0.488zM10.129 22.752h1.686v0.488h-1.686v-0.488zM12.644 22.752h1.686v0.488h-1.686v-0.488zM15.169 22.752h1.686v0.488h-1.686v-0.488zM17.695 22.752h1.686v0.488h-1.686v-0.488zM20.21 22.752h1.686v0.488h-1.686v-0.488zM22.786 10.051h0.488v1.686h-0.488v-1.686zM22.786 12.569h0.488v1.686h-0.488v-1.686zM22.786 15.092h0.488v1.686h-0.488v-1.686zM22.786 17.609h0.488v1.686h-0.488v-1.686zM22.786 20.134h0.488v1.686h-0.488v-1.686zM8.725 10.036h0.488v1.686h-0.488v-1.686zM8.725 12.559h0.488v1.686h-0.488v-1.686zM8.725 15.076h0.488v1.686h-0.488v-1.686zM8.725 17.601h0.488v1.686h-0.488v-1.686zM8.725 20.116h0.488v1.686h-0.488v-1.686z"></path>
</svg>
