<!-- Generated by IcoMoon.io -->
<svg version="1.1" xmlns="http://www.w3.org/2000/svg" width="28" height="32" viewBox="0 0 28 32">
<title>Virtual-Assistant</title>
<path fill="#7a7a7a" d="M16.664 17.858h-4.971c0.639 2.337-0.087 3.025-3.853 3.025v1.216h12.673v-1.216c-3.766 0-4.492-0.688-3.849-3.025z"></path>
<path fill="#a0a1a2" d="M22.086 4.274h-15.939c-0.597 0-1.079 0.538-1.079 1.135v11.513c0 0.594 0.482 1.125 1.079 1.125h15.939c0.597 0 1.202-0.531 1.202-1.125v-11.513c0-0.601-0.604-1.135-1.202-1.135z"></path>
<path fill="#fff" opacity="0.2" d="M22.040 4.278l-0.010-0.003h-15.886c-0.594 0-1.076 0.538-1.076 1.135v11.513c0 0.594 0.482 1.125 1.076 1.125h0.416l15.481-13.77z"></path>
<path fill="#59b4d9" d="M6.652 5.896h15.050v10.532h-15.050v-10.532z"></path>
<path fill="#a0a1a2" d="M4.276 20.883l12.673-0.007v1.223h-12.673v-1.216z"></path>
<path fill="#b8d432" d="M14.458 5.087c0 0.159-0.126 0.288-0.281 0.288s-0.281-0.129-0.281-0.288v0c0-0.159 0.126-0.288 0.281-0.288s0.281 0.129 0.281 0.288v0z"></path>
<path fill="#00188f" d="M11.006 15.212h3.766c0.374 0 0.727-0.182 0.95-0.486l0.265-0.363c0.21-0.286-0.021-0.692-0.37-0.643l-5.4 0.681 0.789 0.81z"></path>
<path fill="#fff" opacity="0.4" d="M14.394 11.769h2.141c0 0 0.001 0 0.001 0 0.557 0 1.008-0.461 1.008-1.030v-0l0.395-1.586c-0-0.568-0.45-1.029-1.006-1.030h-3.727c-0.559 0-1.010 0.241-1.010 1.034 0 2.005 1.009 2.613 2.197 2.613z"></path>
<path fill="#59b4d9" d="M7.662 11.769h-1.963c-0 0-0.001 0-0.001 0-0.557 0-1.008-0.461-1.008-1.030v-1.586c0-0.569 0.452-1.030 1.008-1.030 0 0 0.001 0 0.001 0h3.151c0.555 0 1.006 0.241 1.006 1.030 0 2.008-1.006 2.616-2.194 2.616z"></path>
<path fill="#fff" opacity="0.4" d="M7.662 11.769h-1.963c-0 0-0.001 0-0.001 0-0.557 0-1.008-0.461-1.008-1.030v-1.586c0-0.569 0.452-1.030 1.008-1.030 0 0 0.001 0 0.001 0h3.151c0.555 0 1.006 0.241 1.006 1.030 0 2.008-1.006 2.616-2.194 2.616z"></path>
<path fill="#fff" opacity="0.2" d="M5.879 11.972c0 0-1.010-0.461-1.010-1.030v-1.586c0.001-0.569 0.452-1.030 1.009-1.030 0 0 0 0 0.001 0h2.752l-2.753 3.647zM13.403 11.972c0 0-1.009-0.461-1.009-1.030v-1.586c0-0.569 0.452-1.030 1.008-1.030 0 0 0.001 0 0.001 0h2.756l-2.756 3.647z"></path>
<path fill="#68217a" d="M22.042 7.98c-1.53-0.224-3.112-0.465-3.112-0.465v1.216l3.186 0.405c0 0-0.66-0.084 0 0.004 0.922 0.122 1.17 0.402 1.17 1.212v0.405c0.398 0 0.793-0.597 0.793-1.216s-0.506-1.338-2.036-1.561zM12.014 8.325h-1.977v2.34c0.398-1.125 1.589-1.125 1.977 0v-2.34z"></path>
<path fill="#68217a" d="M16.536 12.377h-2.145c-1.771 0-2.787-1.174-2.787-3.221 0-1.027 0.597-1.642 1.6-1.642h3.727c0.884 0 1.603 0.849 1.603 1.642 0 1.6-0.395 3.221-1.998 3.221zM13.204 8.73c-0.339 0-0.412 0.077-0.412 0.426 0 1.778 0.856 2.005 1.603 2.005h2.141c0.81 0 0.81-2.005 0.81-2.005 0-0.234-0.185-0.426-0.416-0.426h-3.727zM7.66 12.377h-1.781c-0.885-0-1.602-0.733-1.603-1.638v-1.582c0-0 0-0.001 0-0.001 0-0.906 0.718-1.64 1.603-1.641h2.969c1.002 0 1.603 0.615 1.603 1.642 0 2.047-1.016 3.221-2.791 3.221zM5.879 8.73c-0.231 0-0.416 0.192-0.416 0.426v1.582c0 0.234 0.185 0.423 0.416 0.423h1.781c0.748 0 1.603-0.227 1.603-2.005 0-0.349-0.073-0.426-0.416-0.426h-2.969z"></path>
<path fill="#68217a" d="M18.14 9.136h0.395c0.793 0 0.793-0.81 0.793-1.216 0-0 0-0 0-0 0-0.224-0.177-0.405-0.396-0.405-0.001 0-0.002 0-0.002 0h-1.98l1.191 1.621zM4.887 9.136h-0.611v-1.216c0-0 0-0 0-0 0-0.223 0.177-0.404 0.395-0.405h1.404l-1.188 1.621z"></path>
<path fill="#ec008c" opacity="0.15" d="M22.041 7.979c-1.53-0.224-3.112-0.465-3.112-0.465h-1.981l0.003 0.003c-0.007 0-0.014-0.003-0.021-0.003h-3.727c-0.688 0-1.181 0.297-1.425 0.81h-1.502c-0.245-0.513-0.737-0.81-1.429-0.81h-4.178c-0.218 0.001-0.395 0.182-0.395 0.405 0 0 0 0 0 0v0 1.216c0 0.007 0 0.014 0 0.021v1.582c0.001 0.905 0.719 1.638 1.603 1.638h1.782c1.471 0 2.417-0.81 2.7-2.25 0.388-0.402 0.943-0.405 1.331-0.004 0.283 1.443 1.23 2.253 2.704 2.253h2.141c1.603 0 1.998-1.621 1.998-3.221 0-0.007-0.003-0.014-0.003-0.021h0.003c0.349 0 0.541-0.161 0.65-0.37l2.655 0.335 0.276 0.038c0.922 0.122 1.174 0.402 1.174 1.212v0.405c0.395 0 0.789-0.597 0.789-1.216s-0.506-1.338-2.036-1.561zM7.66 11.161h-1.781c-0 0-0.001 0-0.001 0-0.228 0-0.414-0.189-0.414-0.423v-1.582c0-0.234 0.185-0.426 0.416-0.426h2.969c0.342 0 0.416 0.077 0.416 0.426 0 1.778-0.856 2.005-1.603 2.005zM16.536 11.161h-2.141c-0.748 0-1.603-0.227-1.603-2.005 0-0.349 0.073-0.426 0.412-0.426h3.727c0.231 0 0.416 0.192 0.416 0.426 0 0 0 2.005-0.81 2.005zM22.031 9.125v0z"></path>
<path fill="#fff" opacity="0.8" d="M5.066 7.921v0.405h-0.395v-0.405h0.395zM18.536 7.921v0.405h-0.398v-0.405h0.398z"></path>
</svg>
