<!-- Generated by IcoMoon.io -->
<svg version="1.1" xmlns="http://www.w3.org/2000/svg" width="33" height="32" viewBox="0 0 33 32">
<title>Virtual-Machine-SQL</title>
<path d="M8.928 18.584c0 0.279 0.221 0.504 0.493 0.504 0 0 0 0 0.001 0h13.902c0.271-0.001 0.491-0.226 0.491-0.504v-9.152c-0-0.278-0.22-0.503-0.491-0.504h-13.902c-0 0-0 0-0.001 0-0.272 0-0.493 0.226-0.493 0.504v9.152z"></path>
<path d="M15.638 22.171c-1.471-0.236-1.534-1.326-1.523-3.075h-2.923c0 1.749-0.053 2.839-1.523 3.075-0.422 0.071-0.741 0.443-0.741 0.89 0 0.004 0 0.008 0 0.011v-0.001h7.447c0-0.003 0-0.007 0-0.011 0-0.446-0.317-0.817-0.733-0.889l-0.005-0.001z"></path>
<path d="M19.961 14.977v-3.138h-0.882v3.831h2.229v-0.693h-1.347zM13.498 13.426c-0.176-0.073-0.328-0.167-0.463-0.281l0.003 0.002c-0.070-0.073-0.114-0.174-0.114-0.284 0-0.008 0-0.016 0.001-0.024l-0 0.001c-0-0.002-0-0.005-0-0.008 0-0.112 0.056-0.212 0.141-0.27l0.001-0.001c0.094-0.064 0.209-0.102 0.333-0.102 0.016 0 0.032 0.001 0.048 0.002l-0.002-0c0.015-0.001 0.033-0.001 0.051-0.001 0.31 0 0.597 0.099 0.833 0.267l-0.005-0.003v-0.793c-0.252-0.098-0.542-0.155-0.846-0.155-0.012 0-0.023 0-0.035 0l0.002-0c-0.022-0.001-0.048-0.002-0.075-0.002-0.348 0-0.668 0.119-0.924 0.32l0.004-0.003c-0.227 0.187-0.371 0.471-0.371 0.789 0 0.014 0 0.029 0.001 0.043l-0-0.002c0.017 0.509 0.329 0.938 0.766 1.116l0.008 0.003c0.212 0.089 0.395 0.201 0.558 0.337l-0.004-0.003c0.087 0.068 0.142 0.174 0.142 0.294 0 0.001 0 0.002 0 0.003v-0c-0 0.118-0.055 0.222-0.141 0.288l-0.001 0.001c-0.104 0.073-0.232 0.117-0.37 0.118h-0c-0.38-0.004-0.725-0.154-0.986-0.398l0.001 0.001v0.901c0.261 0.137 0.569 0.217 0.895 0.217 0.026 0 0.052-0.001 0.078-0.002l-0.004 0c0.005 0 0.012 0 0.018 0 0.393 0 0.757-0.132 1.050-0.355l-0.005 0.003c0.238-0.186 0.389-0.477 0.389-0.804 0-0.015-0-0.029-0.001-0.044l0 0.002c0.001-0.013 0.001-0.029 0.001-0.044 0-0.234-0.087-0.447-0.23-0.608l0.001 0.001c-0.207-0.219-0.456-0.396-0.734-0.517l-0.015-0.006zM18.199 14.904c0.189-0.317 0.3-0.701 0.3-1.111 0-0.021-0-0.042-0.001-0.063l0 0.003c0-0.009 0-0.020 0-0.031 0-0.36-0.084-0.7-0.234-1l0.006 0.012c-0.144-0.292-0.361-0.528-0.625-0.689l-0.008-0.004c-0.253-0.151-0.557-0.241-0.882-0.244h-0.001c-0.007-0-0.016-0-0.025-0-0.35 0-0.678 0.094-0.962 0.257l0.010-0.005c-0.289 0.169-0.518 0.416-0.665 0.712l-0.004 0.010c-0.169 0.307-0.27 0.673-0.273 1.063v0.001c-0 0.006-0 0.013-0 0.020 0 0.347 0.079 0.675 0.218 0.967l-0.006-0.013c0.146 0.286 0.359 0.518 0.618 0.681l0.007 0.004c0.251 0.159 0.553 0.258 0.876 0.27l0.003 0 0.775 0.901h1.092l-1.066-1.045c0.36-0.126 0.653-0.371 0.842-0.689l0.004-0.007zM17.319 14.67c-0.153 0.199-0.388 0.326-0.653 0.326-0.012 0-0.025-0-0.037-0.001l0.002 0c-0.011 0.001-0.023 0.001-0.036 0.001-0.265 0-0.501-0.13-0.648-0.332l-0.002-0.002c-0.167-0.229-0.267-0.518-0.267-0.83 0-0.026 0.001-0.051 0.002-0.077l-0 0.004c-0.001-0.019-0.001-0.042-0.001-0.065 0-0.314 0.1-0.605 0.269-0.84l-0.003 0.004c0.163-0.204 0.409-0.334 0.684-0.334 0.007 0 0.014 0 0.021 0l-0.001-0c0.011-0.001 0.024-0.001 0.037-0.001 0.263 0 0.495 0.131 0.639 0.332l0.002 0.002c0.156 0.233 0.248 0.521 0.248 0.832 0 0.024-0.001 0.048-0.002 0.072l0-0.003c0.005 0.045 0.008 0.098 0.008 0.151 0 0.284-0.086 0.548-0.232 0.765l0.003-0.005h-0.034z"></path>
</svg>
