<!-- Generated by IcoMoon.io -->
<svg version="1.1" xmlns="http://www.w3.org/2000/svg" width="34" height="32" viewBox="0 0 34 32">
<title>Virtual-Machine-Image</title>
<path fill="#000" d="M9.141 18.544c0 0.273 0.228 0.495 0.508 0.495 0 0 0 0 0 0h14.225c0 0 0 0 0 0 0.28 0 0.508-0.221 0.508-0.495v0-8.907c-0-0.273-0.228-0.495-0.508-0.495-0 0-0 0-0 0h-14.225c0 0-0 0-0 0-0.28 0-0.508 0.221-0.508 0.495v0 8.907z"></path>
<path fill="#50e6ff" d="M19.303 12.648v2.877l-2.541 1.452v-2.885l2.541-1.444z"></path>
<path fill="#c3f1ff" d="M19.303 12.646l-2.533 1.452-2.549-1.452 2.549-1.444 2.533 1.444z"></path>
<path fill="#9cebff" d="M16.762 14.1v2.877l-2.541-1.452v-2.877l2.541 1.452z"></path>
<path fill="#c3f1ff" d="M14.222 15.525l2.541-1.433v2.885l-2.541-1.452z"></path>
<path fill="#9cebff" d="M19.303 15.525l-2.541-1.433v2.885l2.541-1.452z"></path>
<path fill="#000" d="M15.999 22.035c-1.506-0.231-1.565-1.288-1.557-2.995h-3.025c0 1.707 0 2.764-1.532 2.995-0.422 0.051-0.745 0.398-0.745 0.819 0 0.001 0 0.003 0 0.004v-0h7.622c-0.021-0.419-0.343-0.76-0.759-0.822l-0.005-0.001z"></path>
<path fill="#fff" d="M13.273 10.131h-2.328c-0 0-0 0-0 0-0.308 0-0.558 0.243-0.559 0.543v2.277c0 0.15 0.125 0.272 0.279 0.272 0 0 0 0 0 0h0.185c0 0 0 0 0 0 0.154 0 0.279-0.121 0.279-0.271v-2.102h2.143c0.151-0.004 0.271-0.124 0.272-0.271v-0.175c-0-0.147-0.121-0.267-0.271-0.272h-0zM13.273 17.275h-2.151v-2.086c0-0.001 0-0.001 0-0.002 0-0.15-0.125-0.272-0.279-0.272-0 0-0 0-0 0h-0.177c-0 0-0 0-0 0-0.154 0-0.279 0.122-0.279 0.272 0 0.001 0 0.001 0 0.002v-0 2.309c-0 0.002-0 0.004-0 0.007 0 0.301 0.25 0.544 0.559 0.544 0 0 0 0 0 0h2.328c0.153-0.007 0.274-0.13 0.274-0.28 0-0.014-0.001-0.028-0.003-0.041l0 0.002v-0.183c-0-0.147-0.121-0.267-0.271-0.272h-0zM22.613 10.155h-2.296c-0.153 0.001-0.277 0.122-0.277 0.271v0.175c-0.001 0.007-0.001 0.015-0.001 0.024 0 0.15 0.124 0.271 0.278 0.272h2.143v2.070c0 0.001 0 0.001 0 0.002 0 0.15 0.125 0.272 0.279 0.272 0 0 0 0 0 0h0.196c0 0 0 0 0 0 0.154 0 0.279-0.122 0.279-0.272 0-0.001 0-0.001 0-0.002v0-2.266c0-0.001 0-0.002 0-0.003 0-0.301-0.25-0.544-0.559-0.544-0.015 0-0.030 0.001-0.045 0.002l0.002-0zM22.901 14.933h-0.177c-0 0-0 0-0 0-0.154 0-0.279 0.121-0.279 0.271v2.094h-2.127c-0.153 0.001-0.277 0.122-0.277 0.271v0.183c0 0.149 0.124 0.27 0.277 0.272h2.331c0 0 0 0 0 0 0.31 0 0.562-0.242 0.567-0.543v-2.278c0-0 0-0.001 0-0.002 0-0.15-0.125-0.272-0.279-0.272-0.012 0-0.025 0.001-0.037 0.002l0.001-0z"></path>
</svg>
