<!-- Generated by IcoMoon.io -->
<svg version="1.1" xmlns="http://www.w3.org/2000/svg" width="34" height="32" viewBox="0 0 34 32">
<title>Virtual-Machine-Windows</title>
<path fill="#000" d="M9.141 18.544c0 0.273 0.228 0.495 0.508 0.495 0 0 0 0 0 0h14.225c0 0 0 0 0 0 0.28 0 0.508-0.221 0.508-0.495v0-8.907c-0-0.273-0.228-0.495-0.508-0.495-0 0-0 0-0 0h-14.225c0 0-0 0-0 0-0.28 0-0.508 0.221-0.508 0.495v0 8.907z"></path>
<path fill="#000" d="M16.008 22.035c-1.506-0.231-1.565-1.288-1.565-2.995h-2.99c0 1.707-0.051 2.764-1.559 2.995-0.425 0.048-0.753 0.396-0.753 0.82 0 0.001 0 0.002 0 0.003v-0h7.622c0-0.001 0-0.002 0-0.003 0-0.424-0.329-0.774-0.752-0.82l-0.004-0z"></path>
<path fill="#804998" opacity="0.2" d="M20.109 17.337l-6.861-0.538c-0.161-0.013-0.288-0.148-0.288-0.306v-5.13c0-0.156 0.126-0.29 0.288-0.304 0 0 6.864-0.538 6.864-0.538 0.199 0 0.336 0.137 0.336 0.304v6.208c0 0.081-0.032 0.159-0.091 0.215-0.059 0.059-0.137 0.089-0.22 0.089h-0.027z"></path>
<path fill="#fff" opacity="0.8" d="M16.704 13.689h3.431v-2.863l-3.431 0.269v2.594z"></path>
<path fill="#fff" opacity="0.8" d="M13.273 13.689h2.941v-2.557l-2.941 0.231v2.326z"></path>
<path fill="#fff" opacity="0.8" d="M16.704 14.168h3.431v2.863l-3.431-0.269v-2.594z"></path>
<path fill="#fff" opacity="0.8" d="M13.273 14.167h2.941v2.557l-2.941-0.229v-2.328z"></path>
</svg>
