<!-- Generated by IcoMoon.io -->
<svg version="1.1" xmlns="http://www.w3.org/2000/svg" width="32" height="32" viewBox="0 0 32 32">
<title>Virtual-Machine-Scale-Set</title>
<path fill="#005ba1" d="M8.639 14.19c0.001 0.162 0.132 0.293 0.293 0.293h8.167c0 0 0.001 0 0.002 0 0.162 0 0.294-0.131 0.294-0.293v-5.256c0-0 0-0.001 0-0.002 0-0.163-0.132-0.294-0.294-0.294-0.001 0-0.001 0-0.002 0h-8.166c-0.162 0.001-0.293 0.132-0.293 0.294 0 0.001 0 0.001 0 0.002v-0 5.256z"></path>
<path fill="#50e6ff" d="M13.021 13.262v-1.696l1.454-0.857v1.706l-1.454 0.847z"></path>
<path fill="#c3f1ff" d="M11.558 10.708l1.465-0.857 1.454 0.857-1.454 0.857-1.465-0.857z"></path>
<path fill="#9cebff" d="M11.558 12.416v-1.706l1.465 0.857v1.696l-1.465-0.847z"></path>
<path fill="#0078d4" d="M12.077 17.541c0.001 0.162 0.132 0.293 0.293 0.293h8.167c0 0 0.001 0 0.002 0 0.162 0 0.294-0.131 0.294-0.293v-5.256c0-0 0-0.001 0-0.002 0-0.163-0.132-0.294-0.294-0.294-0.001 0-0.001 0-0.002 0h-8.166c-0.162 0.001-0.293 0.132-0.293 0.294 0 0.001 0 0.001 0 0.002v-0 5.256z"></path>
<path fill="#50e6ff" d="M16.459 16.622v-1.703l1.454-0.849v1.696l-1.454 0.857z"></path>
<path fill="#c3f1ff" d="M14.995 14.070l1.465-0.857 1.454 0.857-1.454 0.847-1.465-0.847z"></path>
<path fill="#9cebff" d="M14.995 15.765v-1.696l1.465 0.849v1.703l-1.465-0.857z"></path>
<path fill="#000" d="M14.606 20.797c0.001 0.162 0.132 0.293 0.293 0.293h8.167c0 0 0.001 0 0.002 0 0.162 0 0.294-0.131 0.294-0.293v-5.256c0-0 0-0.001 0-0.002 0-0.163-0.132-0.294-0.294-0.294-0.001 0-0.001 0-0.002 0h-8.166c-0.162 0.001-0.293 0.132-0.293 0.294 0 0.001 0 0.001 0 0.002v-0 5.256z"></path>
<path fill="#50e6ff" d="M18.988 19.878v-1.703l1.454-0.849v1.696l-1.454 0.857z"></path>
<path fill="#c3f1ff" d="M17.524 17.324l1.465-0.857 1.454 0.857-1.454 0.857-1.465-0.857z"></path>
<path fill="#9cebff" d="M17.524 19.021v-1.696l1.465 0.857v1.696l-1.465-0.857z"></path>
<path fill="#c3f1ff" d="M17.524 19.021l1.465-0.846v1.703l-1.465-0.857z"></path>
<path fill="#9cebff" d="M20.442 19.021l-1.454-0.846v1.703l1.454-0.857z"></path>
<path fill="#000" d="M12.537 22.866c-0.867-0.138-0.867-0.761-0.867-1.732h-1.732c0 1.005 0 1.628-0.865 1.732-0.243 0.038-0.428 0.243-0.434 0.493v0.001h4.329c-0.006-0.249-0.189-0.454-0.428-0.493l-0.003-0z"></path>
</svg>
