<!-- Generated by IcoMoon.io -->
<svg version="1.1" xmlns="http://www.w3.org/2000/svg" width="34" height="32" viewBox="0 0 34 32">
<title>Virtual-Machine-Linux</title>
<path fill="#000" d="M9.141 18.544c0 0.273 0.228 0.495 0.508 0.495 0 0 0 0 0 0h14.225c0 0 0 0 0 0 0.28 0 0.508-0.221 0.508-0.495v0-8.907c-0-0.273-0.228-0.495-0.508-0.495-0 0-0 0-0 0h-14.225c0 0-0 0-0 0-0.28 0-0.508 0.221-0.508 0.495v0 8.907z"></path>
<path fill="#000" d="M16.008 22.035c-1.506-0.231-1.565-1.288-1.565-2.995h-2.99c0 1.707-0.051 2.764-1.559 2.995-0.425 0.048-0.753 0.396-0.753 0.82 0 0.001 0 0.002 0 0.003v-0h7.622c0-0.001 0-0.002 0-0.003 0-0.424-0.329-0.774-0.752-0.82l-0.004-0z"></path>
<path fill="#fff" opacity="0.32" d="M17.066 12.312l-0.137 0.081-0.118-0.21c-0.046-0.081-0.051-0.148-0.021-0.22 0.027-0.062 0.081-0.097 0.151-0.097h0.016c0.075 0.008 0.151 0.083 0.175 0.151 0.024 0.073 0.024 0.242-0.065 0.296z"></path>
<path fill="#fbfbf9" opacity="0.8" d="M15.739 16.35c0-0.008-0.678-1.065-0.637-1.25 0.317-1.476 0.696-1.691 0.836-2.003s0.059-0.6 0.226-0.602c0.164-0.003 0.651 0.032 0.772 0.070 0.118 0.038 0.285 0.156 0.379 0.409 0.126 0.234 0.25 0.468 0.29 0.734 0.003 0.024 0.013 0.048 0.030 0.065 0.317 0.339 0.379 0.75 0.358 1.186-0.005 0.11-0.021 0.272-0.035 0.328-0.016 0.056-0.441 1.398-1.113 1.382-0.669-0.016-1.027-0.258-1.105-0.317z"></path>
<path fill="#ff8c00" opacity="0.8" d="M19.344 16.037c-0.247-0.013-0.376-0.156-0.376-0.293-0.003-0.161 0.067-0.363-0.172-0.384-0.239-0.019-0.729-0.046-0.858-0.067-0.288-0.051-0.301 0.062-0.306 0.143-0.003 0.038 0.035 0.414-0.003 0.562 0.003 0.065-0.003 0.126-0.013 0.191-0.027 0.172-0.048 0.344-0.070 0.519-0.003 0.083-0.003 0.167-0.005 0.25 0.207 0.298 0.613 0.309 0.863 0.051 0.234-0.231 0.519-0.393 0.817-0.532 0.083-0.040 0.164-0.102 0.207-0.218 0.046-0.116 0.003-0.218-0.083-0.22z"></path>
<path fill="#1e1e1e" opacity="0.8" d="M16.080 15.893c-0.035 0.159-0.212 0.301-0.306 0.29-0.056-0.032-0.212-0.231-0.247-0.282-0.099-0.148-0.546-0.769-0.675-0.723-0.043 0.005-0.065 0.035-0.089 0.067-0.008 0.003-0.016 0.005-0.024 0.008-0.067-0.137-0.062-0.277 0.013-0.411 0.161-0.29 0.239-0.589 0.323-0.914 0.027-0.108 0.094-0.199 0.167-0.285 0.129-0.164 0.126-0.325 0.261-0.487 0.086-0.102 0.161-0.215 0.153-0.347-0.021-0.374-0.073-0.737-0.056-1.113 0.016-0.366 0.347-0.675 0.715-0.807 0.384-0.137 0.745-0.070 1.054 0.199 0.242 0.21 0.347 0.487 0.366 0.799 0.003 0.056 0.005 0.116 0.003 0.172-0.027 0.583 0.226 1.059 0.608 1.484 0.368 0.409 0.511 0.895 0.546 1.425 0.008 0.137-0.038 0.266-0.097 0.39-0.081 0.18-0.194 0.29-0.298 0.336-0.108 0.048-0.522 0.078-0.441-0.185 0.040-0.132 0.046-0.185-0.118-0.22 0.011-0.108 0.030-0.218 0.035-0.328 0.024-0.436-0.054-0.777-0.393-1.086-0.105-0.097-0.008-0.11-0.011-0.196-0.008-0.234-0.148-0.468-0.274-0.699-0.011-0.043-0.032-0.081-0.062-0.116 0.011-0.035-0.013-0.062-0.027-0.091 0.019-0.073 0.051-0.145 0.035-0.223 0-0.067-0.712-0.097-0.801-0.062-0.038-0.013-0.417-0.030-0.417-0.021-0.051 0.038-0.086 0.086-0.102 0.145-0.016 0.056 0.078 0.172 0.086 0.191-0.003 0.081-0.008 0.159-0.011 0.239-0.008 0.027-0.016 0.054-0.024 0.083-0.062 0.091-0.124 0.18-0.183 0.274-0.051 0.081-0.113 0.161-0.121 0.266-0.040 0.102 0.108 0.242-0.027 0.363s-0.269 0.704-0.272 0.844c-0.003 0.148 0.274 0.487 0.382 0.583 0.194 0.18 0.371 0.247 0.331 0.438z"></path>
<path fill="#1e1e1e" opacity="0.8" d="M15.945 16.451c0.288 0.078 1.097 0.102 1.489-0.28 0.065-0.059 0.132-0.118 0.196-0.177 0.003 0.065 0 0.129-0.011 0.191-0.027 0.172-0.048 0.347-0.073 0.519 0 0.083-0.003 0.167-0.003 0.25-0.363-0.097-0.906-0.132-1.070-0.121-0.161 0.008-0.382 0.046-0.511 0.081l-0.019-0.462z"></path>
<path fill="#dda516" opacity="0.8" d="M18.989 15.785c-0.008-0.008-0.013-0.016-0.019-0.024 0.005 0.008 0.011 0.016 0.019 0.024z"></path>
<path fill="#dda516" opacity="0.8" d="M18.884 15.421c-0.008-0.005-0.016-0.013-0.024-0.021 0.008 0.008 0.016 0.016 0.024 0.021z"></path>
<path fill="#8c5f07" opacity="0.8" d="M15.78 16.217c0.003 0.005 0.008 0.011 0.011 0.016-0.003-0.005-0.008-0.011-0.011-0.016z"></path>
<path fill="#e3a906" opacity="0.8" d="M18.86 15.399v0 0 0z"></path>
<path fill="#ff8c00" opacity="0.8" d="M15.662 16.048c-0.21-0.212-0.371-0.47-0.519-0.758-0.078-0.151-0.315-0.272-0.403-0.032-0.089 0.237-0.231 0.333-0.46 0.304-0.169-0.021-0.328 0.105-0.258 0.312 0.078 0.223 0.164 0.398-0.003 0.557-0.167 0.156-0.099 0.317 0.134 0.349 0.237 0.030 0.852 0.167 1.21 0.349 0.355 0.183 0.64-0.164 0.677-0.266 0.094-0.253-0.169-0.602-0.379-0.815z"></path>
<path fill="#1e1e1e" opacity="0.8" d="M16.457 13.559c-0.202 0-0.333-0.183-0.43-0.344 0 0-0.309-0.425-0.196-0.659 0.016-0.032 0.043-0.086 0.36-0.28l0.059-0.048 0.056-0.027 0.038-0.013c0.043-0.016 0.094-0.030 0.14-0.030h0.024l0.040 0.011 0.094 0.032 0.774 0.277 0.021 0.113c0.019 0.091-0.005 0.172-0.024 0.237l-0.030 0.11-0.067 0.024c-0.056 0.019-0.148 0.116-0.223 0.191-0.073 0.078-0.14 0.148-0.212 0.194-0.024 0.016-0.051 0.038-0.078 0.056-0.113 0.081-0.215 0.156-0.347 0.156z"></path>
<path fill="#ff8c00" opacity="0.8" d="M16.973 12.634c-0.137 0.116-0.293 0.215-0.489 0.22-0.005 0.005-0.005 0.005 0 0 0.003-0.043 0-0.086-0.038-0.116-0.032-0.027-0.035-0.065-0.027-0.099 0.038-0.137 0.013-0.274 0.019-0.411-0.035-0.013-0.118 0.019-0.129 0.021-0.019 0.008-0.035 0.016-0.051 0.024-0.021 0.016-0.040 0.032-0.059 0.046-0.024 0.016-0.288 0.172-0.315 0.229-0.070 0.143 0.159 0.495 0.191 0.538 0.269 0.454 0.417 0.258 0.667 0.086 0.134-0.083 0.309-0.344 0.462-0.398 0.019-0.073 0.051-0.145 0.035-0.223-0.094 0.005-0.18 0.011-0.266 0.083z"></path>
<path fill="#e3a906" opacity="0.8" d="M16.329 12.23c0 0 0 0 0.003 0 0 0 0 0-0.003-0.003v0.003z"></path>
<path fill="#fcd116" opacity="0.8" d="M17.131 12.449c0.056 0.027 0.11 0.059 0.11 0.134-0.108 0.005-0.199 0.013-0.293 0.091-0.151 0.126-0.352 0.312-0.567 0.317 0.008-0.067-0.091-0.164-0.065-0.282 0.035-0.151 0.040-0.331 0.048-0.481 0.097-0.038 0.186-0.003 0.277 0.024 0.040 0.024 0.078 0.046 0.116 0.067 0.067 0.027 0.132 0.051 0.199 0.075 0.054 0.035 0.116 0.040 0.175 0.054z"></path>
<path fill="#fff" opacity="0.9" d="M16.077 11.98h0.267v0.26h-0.267v-0.26z"></path>
<path fill="#fff" opacity="0.9" d="M16.878 11.98h0.267v0.26h-0.267v-0.26z"></path>
</svg>
