<!-- Generated by IcoMoon.io -->
<svg version="1.1" xmlns="http://www.w3.org/2000/svg" width="32" height="32" viewBox="0 0 32 32">
<title>WAF-Policy</title>
<path fill="#000" d="M19.944 21.454c-1.164 0.907-2.64 1.453-4.24 1.453-3.883 0-7.031-3.216-7.031-7.183 0-2.245 1.008-4.249 2.586-5.566l0.013-0.010 0.084-0.086c1.159-0.89 2.622-1.426 4.207-1.426 3.887 0 7.038 3.22 7.038 7.191 0 2.272-1.032 4.299-2.643 5.616l-0.014 0.011z"></path>
<path fill="#83b9f9" d="M10.198 17.235c-0.213 0.564-0.44 1.296-0.628 2.043l-0.032 0.151 0.496 0.759 0.496 0.506c0.196-1.11 0.511-2.101 0.939-3.026l-0.030 0.073c-0.477-0.027-0.906-0.214-1.243-0.509l0.003 0.002zM11.025 13.353c-0.259-0.706-0.462-1.532-0.573-2.388l-0.006-0.059c-0.339 0.347-0.639 0.735-0.893 1.154l-0.015 0.027c0.097 0.755 0.271 1.438 0.516 2.085l-0.020-0.061c0.253-0.338 0.589-0.599 0.977-0.754l0.015-0.005z"></path>
<path fill="#000" d="M13.998 21.118c0 1.258-0.998 2.279-2.23 2.279s-2.23-1.020-2.23-2.279c0-1.258 0.998-2.279 2.23-2.279s2.23 1.020 2.23 2.279z"></path>
<path fill="#83b9f9" d="M15.070 19.766c0.014-0.421 0.168-0.802 0.417-1.098l-0.002 0.002c-0.799-0.429-1.482-0.965-2.061-1.6l-0.004-0.005c-0.324 0.343-0.749 0.584-1.226 0.674l-0.014 0.002c0.388 0.412 0.793 0.798 1.216 1.162l0.024 0.020c0.475 0.398 1.019 0.738 1.606 0.995l0.044 0.017v-0.17zM20.276 19.936c-0.82-0.001-1.618-0.093-2.386-0.267l0.073 0.014v0.084c0 0.004 0 0.009 0 0.015 0 0.392-0.158 0.746-0.412 1l-0 0c0.608 0.125 1.306 0.197 2.021 0.197 0.276 0 0.551-0.011 0.822-0.032l-0.036 0.002c0.331-0.337 0.663-0.759 0.992-1.096-0.26 0.056-0.559 0.089-0.865 0.089-0.073 0-0.146-0.002-0.218-0.005l0.010 0z"></path>
<path fill="#83b9f9" d="M16.147 12.509c1.42-0.735 3.095-1.17 4.868-1.182l0.004-0c-0.353-0.456-0.761-0.847-1.219-1.169l-0.019-0.012c-1.423 0.108-2.743 0.439-3.966 0.96l0.084-0.032c-0.33 0.144-0.602 0.286-0.863 0.443l0.036-0.020c-0.594-0.718-1.14-1.519-1.612-2.369l-0.040-0.078c-0.278 0.021-0.531 0.112-0.747 0.257l0.006-0.004c0.544 0.994 1.118 1.85 1.758 2.648l-0.024-0.031c-0.694 0.407-1.292 0.883-1.815 1.433l-0.002 0.002c0.449 0.196 0.815 0.516 1.067 0.917l0.006 0.010c0.457-0.483 0.973-0.902 1.538-1.246l0.034-0.019c0.909 0.998 1.909 1.887 2.994 2.659l0.060 0.041c0.088-0.335 0.261-0.621 0.495-0.842l0.001-0.001c-0.974-0.749-1.836-1.524-2.638-2.36l-0.004-0.004z"></path>
<path fill="#f2f2f2" d="M21.432 16.054c0 0.886-0.703 1.603-1.569 1.603s-1.569-0.718-1.569-1.603c0-0.886 0.703-1.603 1.569-1.603s1.569 0.718 1.569 1.603z"></path>
<path fill="#83b9f9" d="M22.506 17.151c-0.084-0.084-0.165-0.084-0.248-0.17-0.084-0.084-0.165-0.084-0.248-0.167h-0.084l-0.248-0.17h-0.081l-0.248-0.17c-0.067 0.317-0.246 0.582-0.492 0.756l-0.004 0.003c0.084 0.086 0.165 0.086 0.331 0.17h0.081c0.084 0.084 0.165 0.084 0.248 0.17 0.248 0.167 0.496 0.253 0.744 0.42 0.084-0.253 0.165-0.59 0.248-0.843z"></path>
<path fill="#f2f2f2" d="M13.998 21.118c0 1.258-0.998 2.279-2.23 2.279s-2.23-1.020-2.23-2.279c0-1.258 0.998-2.279 2.23-2.279s2.23 1.020 2.23 2.279z"></path>
<path fill="#f2f2f2" d="M18.045 19.767c0 0.839-0.666 1.519-1.487 1.519s-1.487-0.68-1.487-1.519c0-0.839 0.666-1.519 1.487-1.519s1.487 0.68 1.487 1.519z"></path>
<path fill="#821010" d="M12.76 17.236h9.993c0.165 0 0.412 0.17 0.412 0.337v5.403c-0.016 0.226-0.191 0.405-0.411 0.42l-0.001 0h-9.993c-0.189-0.024-0.333-0.187-0.333-0.384 0-0.013 0.001-0.025 0.002-0.038l-0 0.002v-5.317c-0.001-0.012-0.002-0.025-0.002-0.039 0-0.197 0.145-0.36 0.332-0.384l0.002-0z"></path>
<path fill="#e62323" d="M12.841 17.911h2.974v1.35h-2.974v-1.35z"></path>
<path fill="#ff7381" d="M16.311 17.911h2.974v1.35h-2.974v-1.35z"></path>
<path fill="#e62323" d="M19.697 17.912h2.973v1.349h-2.973v-1.349zM12.841 19.683h1.24v1.349h-1.24v-1.349z"></path>
<path fill="#ff7381" d="M21.431 19.683h1.24v1.349h-1.24v-1.349zM14.576 19.683h2.973v1.349h-2.973v-1.349z"></path>
<path fill="#e62323" d="M17.963 19.684h2.973v1.349h-2.973v-1.349zM12.841 21.456h2.973v1.349h-2.973v-1.349z"></path>
<path fill="#ff7381" d="M16.311 21.455h2.974v1.35h-2.974v-1.35z"></path>
<path fill="#e62323" d="M19.697 21.455h2.974v1.35h-2.974v-1.35z"></path>
</svg>
