<!-- Generated by IcoMoon.io -->
<svg version="1.1" xmlns="http://www.w3.org/2000/svg" width="32" height="32" viewBox="0 0 32 32">
<title>Windows-Virtual-Desktop</title>
<path fill="#000" d="M23.331 16c0 4.049-3.282 7.331-7.331 7.331s-7.331-3.282-7.331-7.331c0-4.049 3.282-7.331 7.331-7.331s7.331 3.282 7.331 7.331z"></path>
<path fill="#005ba1" d="M22.314 16c0 3.487-2.827 6.314-6.314 6.314s-6.314-2.827-6.314-6.314c0-3.487 2.827-6.314 6.314-6.314s6.314 2.827 6.314 6.314z"></path>
<path fill="#f2f2f2" d="M16.086 16.809l-2.444-2.426c-0.079-0.078-0.187-0.125-0.306-0.125s-0.228 0.048-0.306 0.125l0-0-0.308 0.305c-0.075 0.073-0.122 0.176-0.122 0.289 0 0.001 0 0.002 0 0.003v-0c0 0 0 0 0 0.001 0 0.114 0.046 0.217 0.122 0.292l0 0 1.839 1.831-1.88 1.865c-0.075 0.074-0.122 0.177-0.122 0.291s0.047 0.217 0.122 0.291l0 0 0.31 0.308c0.079 0.078 0.187 0.125 0.306 0.125s0.228-0.048 0.306-0.125l-0 0 2.483-2.467c0.075-0.074 0.122-0.177 0.122-0.291 0-0 0-0.001 0-0.001v0c0-0 0-0.001 0-0.001 0-0.113-0.047-0.215-0.121-0.289l-0-0zM15.789 14.859c0 0 0 0.001 0 0.001 0 0.114 0.046 0.217 0.121 0.291l0 0 2.483 2.467c0.079 0.078 0.187 0.125 0.306 0.125s0.228-0.048 0.306-0.125l-0 0 0.31-0.308c0.075-0.073 0.122-0.176 0.122-0.289 0-0 0-0 0-0.001v0c0-0 0-0.001 0-0.001 0-0.114-0.046-0.217-0.122-0.291l-0-0-1.875-1.865 1.839-1.831c0.075-0.074 0.122-0.177 0.122-0.291 0-0 0-0.001 0-0.001v0c0-0 0-0 0-0.001 0-0.113-0.047-0.216-0.121-0.289l-0-0-0.31-0.308c-0.079-0.078-0.187-0.125-0.306-0.125s-0.228 0.048-0.306 0.125l0-0-2.444 2.426c-0.076 0.073-0.123 0.176-0.124 0.289v0z"></path>
</svg>
