<!-- Generated by IcoMoon.io -->
<svg version="1.1" xmlns="http://www.w3.org/2000/svg" width="24" height="32" viewBox="0 0 24 32">
<title>Work-Account</title>
<path fill="#58b4d9" d="M14.21 2.001l-2.766 1.972 0.25 1.295 4.202-0.861c0.61-0.145 1.221 0.286 1.365 0.896l3.231 15.871c0.071 0.286 0 0.646-0.145 0.826h-13.43l-2.836-14.005c-0.141-0.61 0.289-1.221 0.9-1.362l4.237-0.864-0.25-1.256-1.834-2.512h-5.133v19.999h19.999v-19.999h-7.789z"></path>
<path fill="#58b4d9" d="M10.725 5.124c0 0.198-0.161 0.359-0.359 0.359s-0.359-0.161-0.359-0.359c0-0.198 0.161-0.359 0.359-0.359s0.359 0.161 0.359 0.359z"></path>
<path fill="#58b4d9" d="M11.122 1.999h-1.94l0.97 1.115 0.97-1.115z"></path>
<path fill="#58b4d9" d="M16.435 6.812l-11.024 2.226 2.155 10.664 2.046-0.43-1.005-4.921 2.081-0.43 1.866 1.725 1.044-2.3 2.081-0.43 0.97 4.882 1.901-0.395-2.117-10.59zM12.054 12.989c-1.076 0.215-2.155-0.469-2.371-1.58-0.215-1.079 0.504-2.155 1.58-2.371s2.155 0.466 2.371 1.58c0.215 1.111-0.504 2.152-1.58 2.371z"></path>
<path fill="#58b4d9" d="M8.032 7.387c0.035 0.18 0.18 0.25 0.325 0.215l4.847-0.97c0.141-0.035 0.215-0.18 0.215-0.289v-0.035c-0.035-0.141-0.18-0.215-0.289-0.215l-1.147 0.25 0.071 0.36-2.515 0.504-0.071-0.36-1.15 0.25c-0.215 0-0.286 0.145-0.286 0.289z"></path>
</svg>
