<!-- Generated by IcoMoon.io -->
<svg version="1.1" xmlns="http://www.w3.org/2000/svg" width="26" height="32" viewBox="0 0 26 32">
<title>Workbook</title>
<path fill="#fcd116" d="M8.751 4.027c-1.181 0-2.757 1.164-2.757 1.164h0.786v16.319h13.78v0.776l1.181-1.164v-17.096h-12.99z"></path>
<path fill="#68217a" opacity="0.4" d="M8.751 4.027c-1.181 0-2.757 1.164-2.757 1.164h0.786v16.319h13.78v0.776l1.181-1.164v-17.096h-12.99z"></path>
<path fill="#fff" opacity="0.75" d="M9.144 4.415c-0.589 0-2.362 0.776-2.362 0.776h0.395v16.707h13.385l0.786-0.776v-16.707h-12.204z"></path>
<path fill="#fff" opacity="0.8" d="M9.143 4.416c-0.786 0-1.967 0.776-1.967 0.776h13.385l0.789-0.776h-12.207z"></path>
<path fill="#fcd116" d="M4.026 22.676v-1.164h0.786l0.395-0.391v-0.388l-0.395-0.388h-0.786v-1.164h0.786l0.395-0.388v-0.388l-0.395-0.388h-0.786v-1.168h0.786l0.395-0.388v-0.388l-0.395-0.388h-0.786v-1.164h0.786l0.395-0.388v-0.391l-0.395-0.388h-0.786v-1.164h0.786l0.395-0.388v-0.388l-0.395-0.388h-0.786v-1.168h0.786l0.395-0.388v-0.388l-0.395-0.388h-0.786v-1.164h0.786l0.395-0.388v-0.391l-0.395-0.388h-0.786v-1.164h14.961v17.484h-14.961z"></path>
<path fill="#68217a" opacity="0.4" d="M4.026 22.676v-1.164h0.786l0.395-0.391v-0.388l-0.395-0.388h-0.786v-1.164h0.786l0.395-0.388v-0.388l-0.395-0.388h-0.786v-1.168h0.786l0.395-0.388v-0.388l-0.395-0.388h-0.786v-1.164h0.786l0.395-0.388v-0.391l-0.395-0.388h-0.786v-1.164h0.786l0.395-0.388v-0.388l-0.395-0.388h-0.786v-1.168h0.786l0.395-0.388v-0.388l-0.395-0.388h-0.786v-1.164h0.786l0.395-0.388v-0.391l-0.395-0.388h-0.786v-1.164h14.961v17.484h-14.961z"></path>
<path fill="#fff" opacity="0.098" d="M4.026 22.676v-1.164h0.786l0.395-0.391v-0.388l-0.395-0.388h-0.786v-1.164h0.786l0.395-0.388v-0.388l-0.395-0.388h-0.786v-1.168h0.786l0.395-0.388v-0.388l-0.395-0.388h-0.786v-1.164h0.786l0.395-0.388v-0.391l-0.395-0.388h-0.786v-1.164h0.786l0.395-0.388v-0.388l-0.395-0.388h-0.786v-1.168h0.786l0.395-0.388v-0.388l-0.395-0.388h-0.786v-1.164h0.786l0.395-0.388v-0.391l-0.395-0.388h-0.786v-1.164h12.204l-9.447 17.484h-2.757z"></path>
<path fill="#fff" d="M10.719 10.243h6.299v2.331h-6.299v-2.331z"></path>
<path fill="#000" d="M4.026 8.301h1.967v0.388h-1.967v-0.388zM4.026 10.633h1.967v0.388h-1.967v-0.388zM4.026 12.962h1.967v0.388h-1.967v-0.388zM4.026 15.294h1.967v0.388h-1.967v-0.388zM4.026 17.626h1.967v0.388h-1.967v-0.388zM4.026 19.955h1.967v0.388h-1.967v-0.388zM4.026 22.287h1.967v0.388h-1.967v-0.388z"></path>
<path fill="#000" opacity="0.5" d="M4.618 7.524h0.984v0.388h-0.984v-0.388zM4.224 7.912h0.395v0.388h-0.395v-0.388zM4.026 8.301h0.395v0.388h-0.395v-0.388zM4.618 9.853h0.984v0.388h-0.984v-0.388zM4.224 10.241h0.395v0.391h-0.395v-0.391zM4.026 10.633h0.395v0.388h-0.395v-0.388zM4.618 12.185h0.984v0.388h-0.984v-0.388zM4.224 12.574h0.395v0.388h-0.395v-0.388zM4.026 12.962h0.395v0.388h-0.395v-0.388zM4.618 14.518h0.984v0.388h-0.984v-0.388zM4.224 14.906h0.395v0.388h-0.395v-0.388zM4.026 15.294h0.395v0.388h-0.395v-0.388zM4.618 16.847h0.984v0.388h-0.984v-0.388zM4.224 17.235h0.395v0.391h-0.395v-0.391zM4.026 17.626h0.395v0.388h-0.395v-0.388zM4.618 19.179h0.984v0.388h-0.984v-0.388zM4.224 19.567h0.395v0.388h-0.395v-0.388zM4.026 19.955h0.395v0.388h-0.395v-0.388zM4.618 21.511h0.984v0.388h-0.984v-0.388zM4.224 21.899h0.395v0.388h-0.395v-0.388zM4.026 22.287h0.395v0.388h-0.395v-0.388z"></path>
</svg>
