<svg id="b1f445bf-9168-4fac-a71a-7a6b4c5e28d5" data-name="a2c88306-fa03-4e5b-b192-401f0b77808b" xmlns="http://www.w3.org/2000/svg" xmlns:xlink="http://www.w3.org/1999/xlink" width="17.88" height="15.95" viewBox="0 0 17.88 15.95">
  <defs>
    <linearGradient id="fef41be9-446e-45bd-8a06-df8ebf1dec22" x1="-215.95" y1="375.6" x2="-215.95" y2="391.1" gradientTransform="matrix(1.16, 0, 0, -1.03, 258.75, 402.32)" gradientUnits="userSpaceOnUse">
      <stop offset="0" stop-color="#fea11b"/>
      <stop offset="0.28" stop-color="#fea51a"/>
      <stop offset="0.55" stop-color="#feb018"/>
      <stop offset="0.8" stop-color="#ffc314"/>
      <stop offset="1" stop-color="#ffd70f"/>
    </linearGradient>
  </defs>
  <path d="M5.48,12.08l-.58.59a.28.28,0,0,1-.38,0h0L.17,8.33a.55.55,0,0,1,0-.76L.75,7h0L5.48,11.7a.27.27,0,0,1,0,.38h0Z" fill="#50e6ff"/>
  <path d="M4.81,3.28l.58.59a.27.27,0,0,1,0,.38L.75,8.91h0L.16,8.32a.53.53,0,0,1,0-.75L4.43,3.28A.28.28,0,0,1,4.81,3.28Z" fill="#1490df"/>
  <path d="M17.13,7l.59.59a.53.53,0,0,1,0,.75l-4.35,4.34a.26.26,0,0,1-.38,0h0l-.59-.58a.28.28,0,0,1,0-.38h0L17.13,7Z" fill="#50e6ff"/>
  <path d="M17.72,8.32l-.59.59h0L12.49,4.24a.25.25,0,0,1,0-.37h0l.59-.59a.25.25,0,0,1,.37,0h0l4.28,4.28a.56.56,0,0,1,0,.76Z" fill="#1490df"/>
  <path d="M8.4,8.88H4.81a.2.2,0,0,1-.2-.18.19.19,0,0,1,0-.08L8.93.11A.21.21,0,0,1,9.12,0h4.24a.19.19,0,0,1,.2.18.17.17,0,0,1,0,.1l-5,6.66H13.4a.19.19,0,0,1,.2.18.21.21,0,0,1,0,.13L5.36,15.76c-.07.05-.62.5-.35-.18H5Z" fill="url(#fef41be9-446e-45bd-8a06-df8ebf1dec22)"/>
</svg>
