<svg id="a056e20f-1bf3-413f-85eb-bbdd3beb33c9" data-name="a243fe3e-95d4-4895-99f4-3935a33c8017" xmlns="http://www.w3.org/2000/svg" xmlns:xlink="http://www.w3.org/1999/xlink" width="147.7" height="24.88" viewBox="0 0 147.7 24.88">
  <defs>
    <radialGradient id="ba6289ff-ae20-4a2e-8e1b-cd41ab134a88" cx="-2684.02" cy="-642.11" r="2.3" gradientTransform="matrix(4.83, 0, 0, -4.86, 12977.85, -3111.23)" gradientUnits="userSpaceOnUse">
      <stop offset="0.25" stop-color="#fff"/> -->
      <stop offset="1"/> -->
    </radialGradient>
    <radialGradient id="faa438fb-301a-4101-af3b-89d2b5944c60" cx="-531.15" cy="-1898.6" r="2.3" gradientTransform="matrix(1, 0, 0, -1, 0, -1029.98)" xlink:href="#ba6289ff-ae20-4a2e-8e1b-cd41ab134a88"/> -->
    <radialGradient id="a0e0a1e2-f03c-4614-ac6e-5d0cdd51d4b7" cx="-531.14" cy="-1898.6" r="2.3" gradientTransform="matrix(1, 0, 0, -1, 0, -1029.98)" xlink:href="#ba6289ff-ae20-4a2e-8e1b-cd41ab134a88"/> -->
    <radialGradient id="a686141c-2e0d-4020-ae78-2d8ad4c516b3" cx="-2726.47" cy="-614.97" r="2.47" gradientTransform="matrix(4.97, 0, 0, -4.97, 13559.87, -3041.72)" gradientUnits="userSpaceOnUse">
      <stop offset="0" stop-color="#d1e7ee"/> -->
      <stop offset="0.1" stop-color="#cde4ec"/> -->
      <stop offset="0.2" stop-color="#c0dce8"/> -->
      <stop offset="0.3" stop-color="#add0e1"/> -->
      <stop offset="0.65" stop-color="#3982b1"/> -->
      <stop offset="0.72" stop-color="#3474aa"/> -->
      <stop offset="0.9" stop-color="#285699"/> -->
      <stop offset="1" stop-color="#244b93"/> -->
    </radialGradient>
    <radialGradient id="a52a53a2-a262-4e61-b0f6-b55cc91b5e82" cx="-2728.3" cy="-615.78" r="0" gradientTransform="matrix(4.97, 0, 0, -4.97, 13559.87, -3041.72)" gradientUnits="userSpaceOnUse">
      <stop offset="0" stop-color="#d8eeed"/> -->
      <stop offset="0.17" stop-color="#98d8d7"/> -->
      <stop offset="0.22" stop-color="#8ed3d3"/> -->
      <stop offset="0.31" stop-color="#74c6ca"/> -->
      <stop offset="0.42" stop-color="#49b1ba"/> -->
      <stop offset="0.45" stop-color="#3caab5"/> -->
      <stop offset="0.56" stop-color="#2e81a4"/> -->
      <stop offset="0.68" stop-color="#215b94"/> -->
      <stop offset="0.78" stop-color="#19448b"/> -->
      <stop offset="0.84" stop-color="#163b87"/> -->
      <stop offset="1" stop-color="#0b317d"/> -->
    </radialGradient>
    <radialGradient id="eb046a84-9e9c-4ec6-b453-29d253bfbd3d" cx="-2726.47" cy="-614.97" r="2.48" gradientTransform="matrix(4.97, 0, 0, -4.97, 13559.87, -3041.72)" gradientUnits="userSpaceOnUse">
      <stop offset="0" stop-color="#d8eeed"/> -->
      <stop offset="0.17" stop-color="#98d8d7"/> -->
      <stop offset="0.22" stop-color="#8ed3d3"/> -->
      <stop offset="0.31" stop-color="#74c6ca"/> -->
      <stop offset="0.42" stop-color="#49b1ba"/> -->
      <stop offset="0.45" stop-color="#3caab5"/> -->
      <stop offset="0.56" stop-color="#2e81a4"/> -->
      <stop offset="0.68" stop-color="#215b94"/> -->
      <stop offset="0.78" stop-color="#19448b"/> -->
      <stop offset="0.84" stop-color="#163b87"/> -->
      <stop offset="1" stop-color="#152469"/> -->
    </radialGradient>
    <radialGradient id="ba448d50-0b15-412d-86bf-59ea60839a0d" cx="-557.75" cy="-1878.65" r="2.48" gradientTransform="matrix(1, 0, 0, -1, 0, -1029.98)" xlink:href="#a52a53a2-a262-4e61-b0f6-b55cc91b5e82"/> -->
    <linearGradient id="f1296e63-8537-4f53-9f40-fea48afa45e0" x1="-2726.35" y1="-615.12" x2="-2726.73" y2="-616.48" gradientTransform="matrix(4.97, 0, 0, -4.97, 13559.87, -3041.72)" gradientUnits="userSpaceOnUse">
      <stop offset="0" stop-color="#98d8d7"/> -->
      <stop offset="1" stop-color="#152469"/> -->
    </linearGradient>
    <radialGradient id="a53d26fc-40ac-4446-ba6f-bf1aed199030" cx="11.23" cy="-1040.95" r="0.04" gradientTransform="matrix(1, 0, 0, -1, 0, -1029.98)" xlink:href="#eb046a84-9e9c-4ec6-b453-29d253bfbd3d"/> -->
    <linearGradient id="ba40b5f4-2dbb-488b-a068-344903b7013f" x1="-2728.85" y1="-614.94" x2="-2728.34" y2="-614.94" gradientTransform="matrix(4.97, 0, 0, -4.97, 13559.87, -3041.72)" gradientUnits="userSpaceOnUse">
      <stop offset="0" stop-color="#def3f1"/> -->
      <stop offset="1" stop-color="#5085bc"/> -->
    </linearGradient>
    <linearGradient id="f07802e4-2107-4e29-977f-b6b2b5947428" x1="-2727.1" y1="-615.05" x2="-2726.58" y2="-615.05" xlink:href="#ba40b5f4-2dbb-488b-a068-344903b7013f"/> -->
    <linearGradient id="b3a91283-d19c-4ceb-aacd-a0d13e559dfe" x1="-2728.39" y1="-614.09" x2="-2726.59" y2="-614.09" gradientTransform="matrix(4.97, 0, 0, -4.97, 13559.87, -3041.72)" gradientUnits="userSpaceOnUse">
      <stop offset="0" stop-color="#094992"/> -->
      <stop offset="0.67" stop-color="#8bcde2"/> -->
      <stop offset="1" stop-color="#e6f6f9"/> -->
    </linearGradient>
    <linearGradient id="e82ed8f5-d5b2-4b93-9cfe-5b072cd9c488" x1="-2728.35" y1="-614.11" x2="-2726.63" y2="-614.11" gradientTransform="matrix(4.97, 0, 0, -4.97, 13559.87, -3041.72)" gradientUnits="userSpaceOnUse">
      <stop offset="0.01" stop-color="#bbc7e1"/> -->
      <stop offset="0.22" stop-color="#7090c3"/> -->
      <stop offset="0.54" stop-color="#c8eaef"/> -->
      <stop offset="1" stop-color="#fff"/> -->
    </linearGradient>
    <linearGradient id="a533d2df-922d-4dde-abac-9aaa9a8450c6" x1="-2728.39" y1="-614.07" x2="-2726.59" y2="-614.07" gradientTransform="matrix(4.97, 0, 0, -4.97, 13559.87, -3041.72)" gradientUnits="userSpaceOnUse">
      <stop offset="0.01" stop-color="#7090c3"/> -->
      <stop offset="0.54" stop-color="#c1e7ed"/> -->
      <stop offset="1" stop-color="#fff"/> -->
    </linearGradient>
    <radialGradient id="bf2db960-eeaf-41a4-a325-c7e0b4f0359a" cx="-2727.88" cy="-614.9" r="0.01" gradientTransform="matrix(4.97, 0, 0, -4.97, 13559.87, -3041.72)" gradientUnits="userSpaceOnUse">
      <stop offset="0" stop-color="#7e9ec4"/> -->
      <stop offset="1" stop-color="#0a50a1"/> -->
    </radialGradient>
    <radialGradient id="b100686f-1872-4310-92b2-476381c1b069" cx="-2729.58" cy="-616.44" r="3.04" gradientTransform="matrix(4.97, 0, 0, -4.97, 13559.87, -3041.72)" gradientUnits="userSpaceOnUse">
      <stop offset="0" stop-color="#d8eeed"/> -->
      <stop offset="0.17" stop-color="#98d8d7"/> -->
      <stop offset="0.22" stop-color="#8ed3d3"/> -->
      <stop offset="0.31" stop-color="#74c6ca"/> -->
      <stop offset="0.42" stop-color="#49b1ba"/> -->
      <stop offset="0.45" stop-color="#3caab5"/> -->
      <stop offset="0.5" stop-color="#369fb5"/> -->
      <stop offset="0.63" stop-color="#2a88b4"/> -->
      <stop offset="0.71" stop-color="#257fb4"/> -->
      <stop offset="1" stop-color="#4161ab"/> -->
    </radialGradient>
    <radialGradient id="fa1e551d-6e88-48a3-a377-4fc2a2f78836" cx="-2726.47" cy="-615.03" r="2.3" gradientTransform="matrix(4.97, 0, 0, -4.97, 13559.87, -3041.72)" gradientUnits="userSpaceOnUse">
      <stop offset="0" stop-color="#fcf5b0"/> -->
      <stop offset="0.17" stop-color="#f7eda0"/> -->
      <stop offset="0.28" stop-color="#f3e591"/> -->
      <stop offset="0.65" stop-color="#fcd118"/> -->
      <stop offset="0.8" stop-color="#f7a50c"/> -->
      <stop offset="0.93" stop-color="#f38603"/> -->
      <stop offset="1" stop-color="#f27b00"/> -->
    </radialGradient>
    <linearGradient id="b67aa00a-526f-4802-addb-6c055a709434" x1="-2724.64" y1="-616.96" x2="-2724.65" y2="-617" gradientTransform="matrix(4.97, 0, 0, -4.97, 13559.87, -3041.72)" gradientUnits="userSpaceOnUse">
      <stop offset="0" stop-color="#de980d"/> -->
      <stop offset="1" stop-color="#a85d10"/> -->
    </linearGradient>
    <linearGradient id="e938a2c0-dcad-47da-a3ff-aaa524cd0bb5" x1="-2724.95" y1="-615.36" x2="-2724.49" y2="-615.36" gradientTransform="matrix(4.97, 0, 0, -4.97, 13559.87, -3041.72)" gradientUnits="userSpaceOnUse">
      <stop offset="0" stop-color="#deb150"/> -->
      <stop offset="1" stop-color="#fff8b3"/> -->
    </linearGradient>
    <linearGradient id="e420e7da-79c7-4c7a-bc32-86c8db30db80" x1="-2723.98" y1="-615.33" x2="-2723.98" y2="-615.36" gradientTransform="matrix(4.97, 0, 0, -4.97, 13559.87, -3041.72)" gradientUnits="userSpaceOnUse">
      <stop offset="0.01" stop-color="#c67c0c"/> -->
      <stop offset="1" stop-color="#de980d"/> -->
    </linearGradient>
    <linearGradient id="afb19b99-9ba2-47e8-bab8-cbec3c3d99e7" x1="-2723.85" y1="-614.82" x2="-2723.83" y2="-614.85" gradientTransform="matrix(4.97, 0, 0, -4.97, 13559.87, -3041.72)" gradientUnits="userSpaceOnUse">
      <stop offset="0.01" stop-color="#fed40f"/> -->
      <stop offset="1" stop-color="#a85d10"/> -->
    </linearGradient>
    <linearGradient id="b0283956-cc41-4146-aa54-ca77b2807bb2" x1="-2724.64" y1="-615.19" x2="-2724.65" y2="-615.2" xlink:href="#afb19b99-9ba2-47e8-bab8-cbec3c3d99e7"/> -->
    <linearGradient id="b164a1a8-6939-4994-8b47-861debc37093" x1="-2726.35" y1="-614.53" x2="-2724.56" y2="-614.53" gradientTransform="matrix(4.97, 0, 0, -4.97, 13559.87, -3041.72)" gradientUnits="userSpaceOnUse">
      <stop offset="0" stop-color="#fff8fb"/> -->
      <stop offset="1" stop-color="#fec236"/> -->
    </linearGradient>
    <linearGradient id="e3597385-5b9f-40d4-92d0-444529dc77cd" x1="-2724.54" y1="-615.24" x2="-2724.58" y2="-615.23" gradientTransform="matrix(4.97, 0, 0, -4.97, 13559.87, -3041.72)" gradientUnits="userSpaceOnUse">
      <stop offset="0" stop-color="#b37e00"/> -->
      <stop offset="1" stop-color="#ff9e00"/> -->
    </linearGradient>
    <linearGradient id="ad3327b1-462d-4382-83f1-38c7098384e8" x1="-2724.8" y1="-616.93" x2="-2724.82" y2="-616.98" gradientTransform="matrix(4.97, 0, 0, -4.97, 13559.87, -3041.72)" gradientUnits="userSpaceOnUse">
      <stop offset="0.01" stop-color="#ffd100"/> -->
      <stop offset="1" stop-color="#a8710a"/> -->
    </linearGradient>
    <linearGradient id="b0fbf2e2-f142-416f-af29-54f316511b35" x1="-2726.83" y1="-616.15" x2="-2724.99" y2="-616.15" gradientTransform="matrix(4.97, 0, 0, -4.97, 13559.87, -3041.72)" gradientUnits="userSpaceOnUse">
      <stop offset="0" stop-color="#de980d"/> -->
      <stop offset="0.4" stop-color="#fdda10"/> -->
      <stop offset="1" stop-color="#de980d"/> -->
    </linearGradient>
    <linearGradient id="b4345c5b-3a2c-407c-ac02-8aeea1b1cffb" x1="-2726.2" y1="-616.15" x2="-2726.23" y2="-616.12" gradientTransform="matrix(4.97, 0, 0, -4.97, 13559.87, -3041.72)" gradientUnits="userSpaceOnUse">
      <stop offset="0" stop-color="#de980d"/> -->
      <stop offset="0.1" stop-color="#de980d"/> -->
      <stop offset="0.7" stop-color="#fdda10"/> -->
      <stop offset="1" stop-color="#de980d"/> -->
    </linearGradient>
    <linearGradient id="b793a127-8aeb-45a8-9516-909a7621a21c" x1="-2726.12" y1="-616.25" x2="-2726.1" y2="-616.28" gradientTransform="matrix(4.97, 0, 0, -4.97, 13559.87, -3041.72)" gradientUnits="userSpaceOnUse">
      <stop offset="0" stop-color="#de980d"/> -->
      <stop offset="0.4" stop-color="#febf0f"/> -->
      <stop offset="0.8" stop-color="#fed40f"/> -->
      <stop offset="1" stop-color="#de980d"/> -->
    </linearGradient>
    <radialGradient id="ea1f6ca3-e410-4db2-aae3-091d6c1d2d73" cx="-2726.38" cy="-615.15" r="0.02" gradientTransform="matrix(4.97, 0, 0, -4.97, 13559.87, -3041.72)" gradientUnits="userSpaceOnUse">
      <stop offset="0" stop-color="#feeb71"/> -->
      <stop offset="1" stop-color="#de980d"/> -->
    </radialGradient>
    <linearGradient id="a6b8b41b-5748-4655-8d9f-dd708780f2d6" x1="-2726.37" y1="-615.12" x2="-2726.41" y2="-615.11" gradientTransform="matrix(4.97, 0, 0, -4.97, 13559.87, -3041.72)" gradientUnits="userSpaceOnUse">
      <stop offset="0.01" stop-color="#ffefbb"/> -->
      <stop offset="1" stop-color="#ffbf00"/> -->
    </linearGradient>
    <linearGradient id="e8e95afe-0ef2-4789-821a-e4747b1576bb" x1="-2726.44" y1="-614.58" x2="-2724.5" y2="-614.58" gradientTransform="matrix(4.97, 0, 0, -4.97, 13559.87, -3041.72)" gradientUnits="userSpaceOnUse">
      <stop offset="0.01" stop-color="#fca859"/> -->
      <stop offset="0.21" stop-color="#fdc30f"/> -->
      <stop offset="1" stop-color="#b51c00"/> -->
    </linearGradient>
    <linearGradient id="f55660eb-2c9c-4aa7-9237-38d4afb332ab" x1="-2726.42" y1="-614.57" x2="-2724.49" y2="-614.57" gradientTransform="matrix(4.97, 0, 0, -4.97, 13559.87, -3041.72)" gradientUnits="userSpaceOnUse">
      <stop offset="0.01" stop-color="#fff6d8"/> -->
      <stop offset="0.52" stop-color="#fdda10"/> -->
      <stop offset="1" stop-color="#f9bd0c"/> -->
    </linearGradient>
    <linearGradient id="bcc06786-1361-408e-b979-91d3c679b605" x1="-2724.49" y1="-616.11" x2="-2724.52" y2="-616.09" gradientTransform="matrix(4.97, 0, 0, -4.97, 13559.87, -3041.72)" gradientUnits="userSpaceOnUse">
      <stop offset="0" stop-color="#eab949"/> -->
      <stop offset="0.07" stop-color="#edc25a"/> -->
      <stop offset="0.28" stop-color="#f3d883"/> -->
      <stop offset="0.48" stop-color="#f8e9a4"/> -->
      <stop offset="0.67" stop-color="#fcf5bc"/> -->
      <stop offset="0.85" stop-color="#fefcca"/> -->
      <stop offset="1" stop-color="#ffffcf"/> -->
    </linearGradient>
    <radialGradient id="bfbbbddc-0ca8-4839-869b-60282295b8bf" cx="-2726.54" cy="-614.71" r="2.18" gradientTransform="matrix(4.97, 0, 0, -4.97, 13559.87, -3041.72)" gradientUnits="userSpaceOnUse">
      <stop offset="0" stop-color="#efd916"/> -->
      <stop offset="0.11" stop-color="#efd516"/> -->
      <stop offset="0.22" stop-color="#edc715"/> -->
      <stop offset="0.33" stop-color="#ebb213"/> -->
      <stop offset="0.45" stop-color="#e89312"/> -->
      <stop offset="0.57" stop-color="#e36d0f"/> -->
      <stop offset="0.65" stop-color="#e04d0d"/> -->
      <stop offset="0.79" stop-color="#ce2907"/> -->
      <stop offset="0.92" stop-color="#bf0b02"/> -->
      <stop offset="1" stop-color="#b90000"/> -->
    </radialGradient>
    <linearGradient id="b0d0c5c2-2f4e-496f-93e8-5e1e5090f877" x1="-2727.34" y1="-612.23" x2="-2727.34" y2="-612.23" gradientTransform="matrix(4.97, 0, 0, -4.97, 13559.87, -3041.72)" gradientUnits="userSpaceOnUse">
      <stop offset="0" stop-color="#fd7e36"/> -->
      <stop offset="1" stop-color="#bd6f4f"/> -->
    </linearGradient>
    <linearGradient id="e1be1bfe-d3fa-43e8-9367-3bebed70f0bd" x1="-2727.85" y1="-612.18" x2="-2726.05" y2="-612.18" gradientTransform="matrix(4.97, 0, 0, -4.97, 13559.87, -3041.72)" gradientUnits="userSpaceOnUse">
      <stop offset="0" stop-color="#fc2b21"/> -->
      <stop offset="0.24" stop-color="#ff590a"/> -->
      <stop offset="0.25" stop-color="#fb570b"/> -->
      <stop offset="0.33" stop-color="#e74c0e"/> -->
      <stop offset="0.42" stop-color="#d84511"/> -->
      <stop offset="0.52" stop-color="#d04013"/> -->
      <stop offset="0.7" stop-color="#cd3f13"/> -->
      <stop offset="0.8" stop-color="#d04213"/> -->
      <stop offset="0.87" stop-color="#d84b14"/> -->
      <stop offset="0.93" stop-color="#e65b16"/> -->
      <stop offset="0.99" stop-color="#f97219"/> -->
      <stop offset="1" stop-color="#fc7519"/> -->
    </linearGradient>
    <linearGradient id="f963c299-3b91-4dd7-8614-b5b4ec2d8619" x1="-2728.31" y1="-613.07" x2="-2727.81" y2="-613.07" xlink:href="#b0d0c5c2-2f4e-496f-93e8-5e1e5090f877"/> -->
    <linearGradient id="b9c10227-3664-4542-a491-9b3f71259390" x1="-2725.59" y1="-612.38" x2="-2725.59" y2="-612.38" gradientTransform="matrix(4.97, 0, 0, -4.97, 13559.87, -3041.72)" gradientUnits="userSpaceOnUse">
      <stop offset="0" stop-color="#fe560d"/> -->
      <stop offset="1" stop-color="#8c1501"/> -->
    </linearGradient>
    <linearGradient id="b91d14b0-0bef-4245-a6cb-b786622ff601" x1="-2726.42" y1="-613.15" x2="-2726.44" y2="-612.6" xlink:href="#b9c10227-3664-4542-a491-9b3f71259390"/> -->
    <linearGradient id="bb5a208b-6074-4b91-b3d9-9654cc94f292" x1="-2726.57" y1="-613.15" x2="-2726.04" y2="-613.15" gradientTransform="matrix(4.97, 0, 0, -4.97, 13559.87, -3041.72)" gradientUnits="userSpaceOnUse">
      <stop offset="0" stop-color="#fd7e36"/> -->
      <stop offset="1" stop-color="#fc895b"/> -->
    </linearGradient>
    <linearGradient id="a1cce544-acba-44d9-9137-b15bde55aa33" x1="-2728.31" y1="-613.79" x2="-2726.51" y2="-613.79" gradientTransform="matrix(4.97, 0, 0, -4.97, 13559.87, -3041.72)" gradientUnits="userSpaceOnUse">
      <stop offset="0" stop-color="#fd9b20"/> -->
      <stop offset="0.25" stop-color="#fd9b20"/> -->
      <stop offset="0.34" stop-color="#fdb830"/> -->
      <stop offset="0.43" stop-color="#fed23e"/> -->
      <stop offset="0.49" stop-color="#fedb43"/> -->
      <stop offset="0.75" stop-color="#fe8411"/> -->
      <stop offset="1" stop-color="#fe560d"/> -->
    </linearGradient>
    <radialGradient id="b7a3cc17-c220-402f-b41b-d9e3466db4a9" cx="-2726.48" cy="-614.95" r="2.49" gradientTransform="matrix(4.97, 0, 0, -4.97, 13559.87, -3041.72)" gradientUnits="userSpaceOnUse">
      <stop offset="0.01" stop-color="#d1e787"/> -->
      <stop offset="0.12" stop-color="#cee583"/> -->
      <stop offset="0.25" stop-color="#c4de76"/> -->
      <stop offset="0.38" stop-color="#b3d361"/> -->
      <stop offset="0.51" stop-color="#9cc443"/> -->
      <stop offset="0.64" stop-color="#7fb01d"/> -->
      <stop offset="0.65" stop-color="#7bae19"/> -->
      <stop offset="0.78" stop-color="#578d19"/> -->
      <stop offset="0.92" stop-color="#366e1a"/> -->
      <stop offset="1" stop-color="#29621a"/> -->
    </radialGradient>
    <linearGradient id="e64ac1b9-1eeb-4433-829b-2dd319f07164" x1="-2725.81" y1="-612.66" x2="-2724.01" y2="-612.66" gradientTransform="matrix(4.97, 0, 0, -4.97, 13559.87, -3041.72)" gradientUnits="userSpaceOnUse">
      <stop offset="0" stop-color="#d3ed89"/> -->
      <stop offset="1" stop-color="#5f821c"/> -->
    </linearGradient>
    <linearGradient id="be2b74e4-282d-4327-8be3-cb91ad32ea16" x1="-2725.82" y1="-613.23" x2="-2725.86" y2="-613.22" gradientTransform="matrix(4.97, 0, 0, -4.97, 13559.87, -3041.72)" gradientUnits="userSpaceOnUse">
      <stop offset="0.28" stop-color="#d3ed89"/> -->
      <stop offset="0.4" stop-color="#d3ed89"/> -->
      <stop offset="1" stop-color="#5f821c"/> -->
    </linearGradient>
    <linearGradient id="f6b5e6ee-f4d3-4bc0-9478-fab699aea8d1" x1="-2725.6" y1="-612.44" x2="-2725.64" y2="-612.43" gradientTransform="matrix(4.97, 0, 0, -4.97, 13559.87, -3041.72)" gradientUnits="userSpaceOnUse">
      <stop offset="0" stop-color="#7aa922"/> -->
      <stop offset="0.2" stop-color="#d3ed89"/> -->
      <stop offset="0.52" stop-color="#d3ed89"/> -->
      <stop offset="1" stop-color="#7aa922"/> -->
    </linearGradient>
    <linearGradient id="fcd5873e-a6e3-423d-bf7c-4ba00c6aa9ed" x1="-2724.45" y1="-613.43" x2="-2723.95" y2="-613.43" gradientTransform="matrix(4.97, 0, 0, -4.97, 13559.87, -3041.71)" gradientUnits="userSpaceOnUse">
      <stop offset="0.01" stop-color="#7aa922"/> -->
      <stop offset="0.17" stop-color="#1d4a20"/> -->
      <stop offset="0.38" stop-color="#26551b"/> -->
      <stop offset="1" stop-color="#7aa922"/> -->
    </linearGradient>
    <linearGradient id="ba79e07e-bf9e-4759-ba72-361d94bb779e" x1="-2724.44" y1="-614.23" x2="-2724.49" y2="-614.23" gradientTransform="matrix(4.97, 0, 0, -4.97, 13559.87, -3041.72)" gradientUnits="userSpaceOnUse">
      <stop offset="0" stop-color="#7aa922"/> -->
      <stop offset="1" stop-color="#d3ed89"/> -->
    </linearGradient>
    <linearGradient id="a2f803d5-c5f1-46ff-80de-35d7ff36cafc" x1="-2724.44" y1="-615" x2="-2724.46" y2="-615.03" gradientTransform="matrix(4.97, 0, 0, -4.97, 13559.87, -3041.72)" gradientUnits="userSpaceOnUse">
      <stop offset="0" stop-color="#5f821c"/> -->
      <stop offset="1" stop-color="#26551b"/> -->
    </linearGradient>
    <linearGradient id="ae979f49-9237-4d3b-8b5a-f9b31530aa36" x1="-2726.29" y1="-614.28" x2="-2724.45" y2="-614.28" gradientTransform="matrix(4.97, 0, 0, -4.97, 13559.87, -3041.72)" gradientUnits="userSpaceOnUse">
      <stop offset="0" stop-color="#7aa922"/> -->
      <stop offset="0.4" stop-color="#d3ed89"/> -->
      <stop offset="1" stop-color="#7aa922"/> -->
    </linearGradient>
    <linearGradient id="f3bfe9c9-5a0c-4af9-b8a2-c9335bb41371" x1="-2725.66" y1="-614.28" x2="-2725.69" y2="-614.25" gradientTransform="matrix(4.97, 0, 0, -4.97, 13559.87, -3041.72)" gradientUnits="userSpaceOnUse">
      <stop offset="0" stop-color="#1d3a19"/> -->
      <stop offset="0.1" stop-color="#26551b"/> -->
      <stop offset="0.65" stop-color="#7aa922"/> -->
      <stop offset="1" stop-color="#d3ed89"/> -->
    </linearGradient>
    <linearGradient id="a4cbc298-379d-43d4-a7a6-00f0dc66bbe2" x1="-2725.59" y1="-614.39" x2="-2725.57" y2="-614.42" gradientTransform="matrix(4.97, 0, 0, -4.97, 13559.87, -3041.72)" gradientUnits="userSpaceOnUse">
      <stop offset="0" stop-color="#5f821c"/> -->
      <stop offset="0.4" stop-color="#7aa922"/> -->
      <stop offset="0.8" stop-color="#5f821c"/> -->
      <stop offset="1" stop-color="#5f821c"/> -->
    </linearGradient>
    <linearGradient id="b12a9d65-7757-48fd-9af4-8103c59701c9" x1="-2723.87" y1="-613.45" x2="-2723.86" y2="-613.43" gradientTransform="matrix(4.97, 0, 0, -4.97, 13559.87, -3041.72)" gradientUnits="userSpaceOnUse">
      <stop offset="0" stop-color="#5b7f30"/> -->
      <stop offset="1" stop-color="#d3ed89"/> -->
    </linearGradient>
    <linearGradient id="a7884ef6-c852-4cc4-b6e3-c2c6d8e99dfc" x1="-2723.75" y1="-612.83" x2="-2725.59" y2="-612.3" gradientTransform="matrix(4.97, 0, 0, -4.97, 13559.87, -3041.72)" gradientUnits="userSpaceOnUse">
      <stop offset="0" stop-color="#1d3419"/> -->
      <stop offset="0.23" stop-color="#26551b"/> -->
      <stop offset="1" stop-color="#7aa922"/> -->
    </linearGradient>
    <linearGradient id="a88b2c84-2bcf-40c1-8514-3c527fd30295" x1="-2723.99" y1="-613.35" x2="-2724.03" y2="-613.34" gradientTransform="matrix(4.97, 0, 0, -4.97, 13559.87, -3041.72)" gradientUnits="userSpaceOnUse">
      <stop offset="0" stop-color="#5f821c"/> -->
      <stop offset="1" stop-color="#75c146"/> -->
    </linearGradient>
    <linearGradient id="ffc02358-6d24-48d9-88b2-9c76558b5db7" x1="-2724.02" y1="-612.63" x2="-2723.94" y2="-612.63" xlink:href="#e64ac1b9-1eeb-4433-829b-2dd319f07164"/> -->
    <linearGradient id="f8368ee2-b5ee-43f8-860d-f247efab883b" x1="-2723.76" y1="-612.82" x2="-2725.59" y2="-612.3" gradientTransform="matrix(4.97, 0, 0, -4.97, 13559.87, -3041.72)" gradientUnits="userSpaceOnUse">
      <stop offset="0" stop-color="#93bf81"/> -->
      <stop offset="0.23" stop-color="#26551b"/> -->
      <stop offset="1" stop-color="#bde256"/> -->
    </linearGradient>
  </defs>
  <g>
    <path d="M7.2,10.3c-.4,0-.8.1-1.2.1a7,7,0,0,0-1.4.3,16.59,16.59,0,0,0-1.6.6H3L.6,19.1v.1l.2.1H.9a20.16,20.16,0,0,1,2.3-.7,11.08,11.08,0,0,1,1.9-.2,5.9,5.9,0,0,1,1.4.2,5.64,5.64,0,0,1,1.2.4,10.93,10.93,0,0,1,1.5.8h.1l.1-.1h0a.1.1,0,0,0,.1-.1h0l2.3-7.5.1-.3h0v-.1h0a8.33,8.33,0,0,0-3.5-1.4Z" transform="translate(0 0.01)" opacity="0.2" fill="url(#ba6289ff-ae20-4a2e-8e1b-cd41ab134a88)" style="isolation: isolate"/> -->
    <path d="M12.9,12.6h-.2l-.1.1h0l-2.3,7.7c0,.1,0,.1.1.2a5.56,5.56,0,0,0,1.7.9c.3.1.7.3,1,.4a4.25,4.25,0,0,0,1.1.2,4.87,4.87,0,0,0,1.2.1,6.6,6.6,0,0,0,1.4-.1l1.5-.3a5.78,5.78,0,0,0,1.7-.6h0v-.1l2.2-7.5h0v-.1l-.2-.2h-.1a14.24,14.24,0,0,1-1.6.5c-.5.1-1,.2-1.4.3a9.64,9.64,0,0,1-2.4,0,10.55,10.55,0,0,1-1.9-.5l-1.5-.9-.2-.1Z" transform="translate(0 0.01)" opacity="0.2" fill="url(#faa438fb-301a-4101-af3b-89d2b5944c60)" style="isolation: isolate"/> -->
    <path d="M15.5,3.3h0a.1.1,0,0,0-.1.1h0L13,11.1v.1c0,.1,0,.1.1.1h0l.6.3a8.08,8.08,0,0,0,2.7,1.1,8.75,8.75,0,0,0,1.6.2,6.48,6.48,0,0,0,1.9-.2,12.9,12.9,0,0,0,2.8-.8h0a.1.1,0,0,0,.1-.1L25,4.1h0c0-.1-.1-.1-.1-.2l-.1-.1h-.1a10.93,10.93,0,0,1-1.7.5c-.5.1-1,.2-1.4.3a5.7,5.7,0,0,1-1.3.1,4.1,4.1,0,0,1-1.1-.1A6,6,0,0,1,17.3,4c-.6-.3-1.1-.6-1.6-.9-.1.1-.2.1-.2.2Z" transform="translate(0 0.01)" opacity="0.2" fill="url(#a0e0a1e2-f03c-4614-ac6e-5d0cdd51d4b7)" style="isolation: isolate"/> -->
    <path d="M8.1,1.1a25.82,25.82,0,0,0-2.6.8h0l-.1.4L3.2,9.7h0v.1h0l.1.1h.1a10.84,10.84,0,0,1,5-.9,6.07,6.07,0,0,1,1.8.5,11.94,11.94,0,0,1,1.6.8h.1l.1-.1h0a.1.1,0,0,0,.1-.1h0l1.4-4.8.8-2.6.1-.2h0V2.4a7.46,7.46,0,0,0-1.2-.7h0a7.87,7.87,0,0,0-3-.8A14.92,14.92,0,0,0,8.1,1.1Z" transform="translate(0 0.01)" opacity="0.2" fill="url(#a0e0a1e2-f03c-4614-ac6e-5d0cdd51d4b7)" style="isolation: isolate"/> -->
  </g>
  <g>
    <path d="M2.3,10.5c4.7-1.9,6.9-.9,8.9.5L8.9,19c-2-1.4-4.2-2.5-8.9-.5l2.3-8Z" transform="translate(0 0.01)" fill="url(#a686141c-2e0d-4020-ae78-2d8ad4c516b3)"/> -->
    <path d="M.2,18.7" transform="translate(0 0.01)" fill="url(#a52a53a2-a262-4e61-b0f6-b55cc91b5e82)"/> -->
    <path d="M8.8,19.1h0c-.1.1-.1.1-.2.1Z" transform="translate(0 0.01)" fill="#152469"/> -->
    <path d="M.2,18.6h0L0,18.5H0Z" transform="translate(0 0.01)" fill="url(#eb046a84-9e9c-4ec6-b453-29d253bfbd3d)"/> -->
    <path d="M8.9,19h0c.1,0,.1.1,0,0Z" transform="translate(0 0.01)" fill="#152469"/> -->
    <path d="M0,18.5v-.1H0v.1Z" transform="translate(0 0.01)" fill="#172e65"/> -->
    <path d="M.2,18.6c4.4-1.7,6.4-.8,8.4.5a7.06,7.06,0,0,0-4.2-1.4,16.67,16.67,0,0,0-4.2.9Z" transform="translate(0 0.01)" fill="url(#ba448d50-0b15-412d-86bf-59ea60839a0d)"/> -->
    <path d="M8.8,19.1c-2-1.4-4.1-2.4-8.7-.5a.1.1,0,0,1-.1-.1c4.7-2,6.8-.8,8.9.5Z" transform="translate(0 0.01)" fill="#094b8f"/> -->
    <path d="M8.8,19.1l-.2.1c-2-1.3-4.1-2.2-8.4-.5L0,18.6C4.7,16.7,6.8,17.7,8.8,19.1Z" transform="translate(0 0.01)" fill="#094b8f"/> -->
    <path d="M8.9,19l2.3-8h0L8.9,19Z" transform="translate(0 0.01)" fill="url(#f1296e63-8537-4f53-9f40-fea48afa45e0)"/> -->
    <path d="M11.2,10.9Z" transform="translate(0 0.01)" fill="url(#a53d26fc-40ac-4446-ba6f-bf1aed199030)"/> -->
    <polygon points="2.3 10.52 0 18.41 0 18.41 2.3 10.52" fill="#063367" opacity="0.66" style="isolation: isolate"/> -->
    <path d="M2.3,10.5l-.1.4L0,18.4v.1l.2.1H.3l2.3-8h0l-.3-.1Z" transform="translate(0 0.01)" opacity="0.42" fill="url(#ba40b5f4-2dbb-488b-a068-344903b7013f)" style="isolation: isolate"/> -->
    <path d="M11.3,11h0l-.2.2h0c-.3,1.1-2.1,7.1-2.3,8h.1l.1-.1H9V19H9l2.2-7.7.1-.3Z" transform="translate(0 0.01)" opacity="0.42" fill="url(#f07802e4-2107-4e29-977f-b6b2b5947428)" style="isolation: isolate"/> -->
    <path d="M11.2,11l-.2.2A7,7,0,0,0,6.4,9.8a13.18,13.18,0,0,0-3.9,1l-.2-.2v-.1c4.7-1.9,6.9-.9,8.9.5Z" transform="translate(0 0.01)" fill="url(#b3a91283-d19c-4ceb-aacd-a0d13e559dfe)"/> -->
    <path d="M2.5,10.7c4.7-1.9,6.8-.6,8.6.4h0C9.2,10,7.2,8.9,2.5,10.7Z" transform="translate(0 0.01)" opacity="0.33" fill="url(#e82ed8f5-d5b2-4b93-9cfe-5b072cd9c488)" style="isolation: isolate"/> -->
    <path d="M2.3,10.5c4.7-1.9,6.8-.9,8.9.5h0C9,9.6,7,8.6,2.3,10.5Z" transform="translate(0 0.01)" opacity="0.33" fill="url(#a533d2df-922d-4dde-abac-9aaa9a8450c6)" style="isolation: isolate"/> -->
    <path d="M2.3,10.5Z" transform="translate(0 0.01)" fill="url(#bf2db960-eeaf-41a4-a325-c7e0b4f0359a)"/> -->
    <path d="M8.8,19.1c-2-1.4-4.1-2.4-8.7-.5a.1.1,0,0,1-.1-.1c4.7-2,6.9-.8,8.9.5l-.1.1Z" transform="translate(0 0.01)" opacity="0.5" fill="url(#b100686f-1872-4310-92b2-476381c1b069)" style="isolation: isolate"/> -->
  </g>
  <g>
    <path d="M12.4,11.8c2,1.4,4.1,2.4,8.8.7L19,20.2c-4.7,1.9-6.9.8-8.9-.5Z" transform="translate(0 0.01)" fill="url(#fa1e551d-6e88-48a3-a377-4fc2a2f78836)"/> -->
    <path d="M19.5,20.5h0l-.1.1c0-.1,0-.1.1-.1-.1-.1,0-.1,0,0Z" transform="translate(0 0.01)" fill="url(#b67aa00a-526f-4802-addb-6c055a709434)"/> -->
    <path d="M19.5,20.5h0l2.2-7.8v.1Z" transform="translate(0 0.01)" fill="url(#e938a2c0-dcad-47da-a3ff-aaa524cd0bb5)"/> -->
    <path d="M21.7,12.8v-.1h0Z" transform="translate(0 0.01)" fill="url(#e420e7da-79c7-4c7a-bc32-86c8db30db80)"/> -->
    <path d="M21.5,12.6c0-.1-.1-.1-.2-.1v-.1h.1C21.4,12.5,21.5,12.5,21.5,12.6Z" transform="translate(0 0.01)" fill="url(#afb19b99-9ba2-47e8-bab8-cbec3c3d99e7)"/> -->
    <path d="M21.5,12.5l.2.1v.1l-.2-.1Z" transform="translate(0 0.01)" fill="url(#b0283956-cc41-4146-aa54-ca77b2807bb2)"/> -->
    <polygon points="21.5 12.62 21.6 12.71 19.4 20.41 19.4 20.41 19.2 20.21 21.5 12.62" fill="#b37e00" opacity="0.66" style="isolation: isolate"/> -->
    <path d="M21.3,12.5c-4.7,1.6-6.8.6-8.8-.7v-.1c1.9,1.4,4.2,2.3,8.8.8Z" transform="translate(0 0.01)" fill="url(#b164a1a8-6939-4994-8b47-861debc37093)"/> -->
    <polygon points="12.2 11.81 10 19.61 9.8 19.82 9.8 19.82 12.1 11.91 12.2 11.81" fill="#d9a200"/> -->
    <path d="M19,20.2l2.2-7.7h.2l-2.2,7.7Z" transform="translate(0 0.01)" opacity="0.66" fill="url(#e3597385-5b9f-40d4-92d0-444529dc77cd)" style="isolation: isolate"/> -->
    <path d="M19.4,20.5c-4.6,2-7.5.8-9.5-.6h0c2,1.4,5.1,2.5,9.4.6C19.3,20.6,19.4,20.6,19.4,20.5Z" transform="translate(0 0.01)" fill="#a85d10"/> -->
    <path d="M19.2,20.2l.2.2a.1.1,0,0,1-.1.1l-.2-.2C19.2,20.3,19.2,20.3,19.2,20.2Z" transform="translate(0 0.01)" opacity="0.66" fill="url(#ad3327b1-462d-4382-83f1-38c7098384e8)" style="isolation: isolate"/> -->
    <path d="M19,20.2c0,.1,0,.2.1.2-4.8,1.8-6.9.7-9.1-.6l.1-.1h0C12.3,21,14.7,22,19,20.2Z" transform="translate(0 0.01)" fill="url(#b0fbf2e2-f142-416f-af29-54f316511b35)"/> -->
    <path d="M9.9,19.9l.2-.1c1.9,1.1,4.4,2.4,9,.6l.2.1c-4.3,1.9-7.4.8-9.4-.6Z" transform="translate(0 0.01)" fill="#c67c0c"/> -->
    <path d="M9.9,19.9h0c-.1,0-.1-.1-.1-.2A.35.35,0,0,0,9.9,19.9Z" transform="translate(0 0.01)" fill="#de980d"/> -->
    <path d="M9.8,19.8l.2-.1c0,.1.1.1.1.2l-.2.1A.31.31,0,0,1,9.8,19.8Z" transform="translate(0 0.01)" fill="url(#b4345c5b-3a2c-407c-ac02-8aeea1b1cffb)"/> -->
    <path d="M10,19.6h.2c0,.1,0,.1-.1.1s-.1,0-.1-.1Z" transform="translate(0 0.01)" fill="url(#b793a127-8aeb-45a8-9516-909a7621a21c)"/> -->
    <path d="M12.3,11.7h0l-.2.2.2-.2Z" transform="translate(0 0.01)" fill="#de980d"/> -->
    <path d="M12.4,11.8h-.2v-.1a.1.1,0,0,1,.1-.1h0a.31.31,0,0,1,.1.2Z" transform="translate(0 0.01)" fill="url(#ea1f6ca3-e410-4db2-aae3-091d6c1d2d73)"/> -->
    <path d="M10.2,19.7c-.1,0-.1-.1-.2,0l2.3-7.8h.2Z" transform="translate(0 0.01)" fill="url(#a6b8b41b-5748-4655-8d9f-dd708780f2d6)"/> -->
    <path d="M12.1,11.9c.7.6,3.7,3.1,9.5.8l-.2-.1h-.1c-4.6,1.6-6.9.6-8.9-.7h0s-.1-.1-.1,0h0C12.2,11.8,12.2,11.8,12.1,11.9Z" transform="translate(0 0.01)" opacity="0.33" fill="url(#e8e95afe-0ef2-4789-821a-e4747b1576bb)" style="isolation: isolate"/> -->
    <path d="M21.6,12.6h0c-5.8,2.3-8.8-.2-9.5-.8v.1h0c.6.5,3.6,3.1,9.5.7Z" transform="translate(0 0.01)" opacity="0.33" fill="url(#f55660eb-2c9c-4aa7-9237-38d4afb332ab)" style="isolation: isolate"/> -->
    <path d="M19.1,20.4c-.1,0-.1-.1-.1-.2h.2C19.2,20.3,19.2,20.3,19.1,20.4Z" transform="translate(0 0.01)" fill="url(#bcc06786-1361-408e-b979-91d3c679b605)"/> -->
  </g>
  <g>
    <path d="M11.6,9.6A7,7,0,0,0,7.2,8,11.91,11.91,0,0,0,2.7,9.1L5,1.1c4.7-1.9,6.9-.8,8.9.5Z" transform="translate(0 0.01)" fill="url(#bfbbbddc-0ca8-4839-869b-60282295b8bf)"/> -->
    <path d="M11.6,9.6l2.3-7.9h0L11.6,9.6Z" transform="translate(0 0.01)" fill="#bc1b00"/> -->
    <path d="M2.9,9.3A17.23,17.23,0,0,1,5,8.6l.4-.1.4-.1c.2,0,.4-.1.7-.1H8.3a4.88,4.88,0,0,1,.7.3,6.77,6.77,0,0,1,2.4,1.2h-.1A6.52,6.52,0,0,0,8,8.4a11.49,11.49,0,0,0-5.1.9Z" transform="translate(0 0.01)" fill="#bc1b00"/> -->
    <path d="M11.5,9.7h0l-.2.1Z" transform="translate(0 0.01)" fill="#bc1b00"/> -->
    <path d="M2.9,9.3h0l-.2-.1h0Z" transform="translate(0 0.01)" fill="#b81a00"/> -->
    <path d="M11.6,9.6Z" transform="translate(0 0.01)" fill="#e82e00"/> -->
    <path d="M13.9,1.6h0v.1h0Z" transform="translate(0 0.01)" fill="#f83603"/> -->
    <path d="M2.7,9.2V9.1h0v.1Z" transform="translate(0 0.01)" fill="#e32e00"/> -->
    <path d="M5,1.1H5V1H5Z" transform="translate(0 0.01)" fill="url(#b0d0c5c2-2f4e-496f-93e8-5e1e5090f877)"/> -->
    <path d="M11.6,9.7C9.4,8.2,6.7,7.2,2.8,9.2l.2.1c4.3-1.8,6.6-.8,8.5.4Z" transform="translate(0 0.01)" fill="#e82e00"/> -->
    <path d="M11.5,9.7A7.17,7.17,0,0,0,7.3,8.2a11.38,11.38,0,0,0-4.5,1l-.1-.1A12,12,0,0,1,7.3,8a7.32,7.32,0,0,1,4.3,1.6Z" transform="translate(0 0.01)" fill="#e82e00"/> -->
    <path d="M5,1.1H5L2.7,9h0Z" transform="translate(0 0.01)" fill="#e32e00"/> -->
    <path d="M13.9,1.6C11.9.2,9.6-.8,5,1.1V1c4.7-1.9,6.9-.8,8.9.6Z" transform="translate(0 0.01)" opacity="0.66" fill="url(#e1be1bfe-d3fa-43e8-9367-3bebed70f0bd)" style="isolation: isolate"/> -->
    <path d="M13.6,1.9C12,.8,9.8-.5,5.2,1.4V1.3c4.6-1.9,6.8-.4,8.4.6Z" transform="translate(0 0.01)" fill="#fe8411" opacity="0.33" style="isolation: isolate"/> -->
    <path d="M5.1,1.2h0l-2.4,8,.2.1h0l2.3-8h0Z" transform="translate(0 0.01)" opacity="0.36" fill="url(#f963c299-3b91-4dd7-8614-b5b4ec2d8619)" style="isolation: isolate"/> -->
    <path d="M13.7,1.8" transform="translate(0 0.01)" opacity="0.5" fill="url(#b9c10227-3664-4542-a491-9b3f71259390)" style="isolation: isolate"/> -->
    <path d="M13.7,1.7A8.84,8.84,0,0,0,9.8.2a12.78,12.78,0,0,0-4.7,1l.1.2h0c4.6-2,7.5-.2,8.4.5h0l.1-.2Z" transform="translate(0 0.01)" opacity="0.5" fill="url(#b91d14b0-0bef-4245-a6cb-b786622ff601)" style="isolation: isolate"/> -->
    <path d="M5.1,1.2A12.78,12.78,0,0,1,9.8.2a7,7,0,0,1,3.9,1.5l.1.1.2-.2h0C12,.2,9.8-.8,5.3.9L5,1H5Z" transform="translate(0 0.01)" fill="#fff4c5" opacity="0.5" style="isolation: isolate"/> -->
    <path d="M13.9,1.6h0l-.1.1-.1.1h0c-.5,1.6-2,6.8-2.3,7.9h.1l.1-.1h0a.1.1,0,0,0,.1-.1h0L13.9,2h0l.1-.2h0V1.7a.1.1,0,0,0-.1-.1Z" transform="translate(0 0.01)" opacity="0.6" fill="url(#bb5a208b-6074-4b91-b3d9-9654cc94f292)" style="isolation: isolate"/> -->
    <path d="M11.6,9.7A7.17,7.17,0,0,0,7.4,8.2,10,10,0,0,0,2.9,9.3c-.2-.1-.2-.2-.2-.3h0A12,12,0,0,1,7.3,7.9a7.88,7.88,0,0,1,4.4,1.6C11.6,9.6,11.6,9.6,11.6,9.7Z" transform="translate(0 0.01)" opacity="0.5" fill="url(#a1cce544-acba-44d9-9137-b15bde55aa33)" style="isolation: isolate"/> -->
    <path d="M5,1.1H5l-.1.4L2.7,9v.1h0L5,1.1H5Z" transform="translate(0 0.01)" fill="none"/> -->
    <path d="M13.9,1.6h0v.1h0Z" transform="translate(0 0.01)" fill="#f83603"/> -->
    <path d="M5,1.1H5V1H5Z" transform="translate(0 0.01)" fill="url(#b0d0c5c2-2f4e-496f-93e8-5e1e5090f877)"/> -->
    <path d="M13.9,1.6C11.9.2,9.6-.8,5,1.1V1c4.7-1.9,6.9-.8,8.9.6Z" transform="translate(0 0.01)" opacity="0.66" fill="url(#e1be1bfe-d3fa-43e8-9367-3bebed70f0bd)" style="isolation: isolate"/> -->
  </g>
  <g>
    <path d="M24,3c-4.6,1.9-6.9.8-8.9-.5l-2.3,8c2,1.4,4.4,2.5,8.9.5Z" transform="translate(0 0.01)" fill="url(#b7a3cc17-c220-402f-b41b-d9e3466db4a9)"/> -->
    <path d="M24,3c-4.6,1.9-6.9.8-8.9-.5V2.4c2,1.4,4.3,2.5,8.9.6Z" transform="translate(0 0.01)" fill="url(#e64ac1b9-1eeb-4433-829b-2dd319f07164)"/> -->
    <polygon points="14.9 2.52 12.7 10.31 12.5 10.52 12.5 10.52 14.8 2.62 14.9 2.52" fill="#8cac42"/> -->
    <path d="M12.8,10.4c-.1,0-.1-.1-.2-.1l2.3-7.9h.2Z" transform="translate(0 0.01)" fill="url(#be2b74e4-282d-4327-8be3-cb91ad32ea16)"/> -->
    <path d="M15,2.4h0l-.2.2c0-.1.2-.2.2-.2Z" transform="translate(0 0.01)" fill="#5f821c"/> -->
    <path d="M15.1,2.5h-.2V2.4c.1,0,.2,0,.2.1Z" transform="translate(0 0.01)" fill="url(#f6b5e6ee-f4d3-4bc0-9478-fab699aea8d1)"/> -->
    <polygon points="24.2 3.02 24.4 3.21 22.1 11.12 21.9 10.91 24.2 3.02" opacity="0.81" fill="url(#fcd5873e-a6e3-423d-bf7c-4ba00c6aa9ed)" style="isolation: isolate"/> -->
    <path d="M22.1,11.2h0l2.3-8h0Z" transform="translate(0 0.01)" fill="#476e32"/> -->
    <path d="M22,11.2a10.64,10.64,0,0,1-3.5.9,8.06,8.06,0,0,1-4.6-.8c-.5-.2-.9-.5-1.3-.7h0a14.8,14.8,0,0,0,1.3.8,9.56,9.56,0,0,0,4.7.8,13.31,13.31,0,0,0,3.4-1Z" transform="translate(0 0.01)" fill="#1d3419"/> -->
    <path d="M21.8,11.1c0-.1-.1-.1-.1-.2h.2C21.9,11,21.9,11.1,21.8,11.1Z" transform="translate(0 0.01)" fill="url(#ba79e07e-bf9e-4759-ba72-361d94bb779e)"/> -->
    <path d="M21.9,10.9l.2.1a.1.1,0,0,1-.1.1l-.2-.1A.1.1,0,0,0,21.9,10.9Z" transform="translate(0 0.01)" fill="url(#a2f803d5-c5f1-46ff-80de-35d7ff36cafc)"/> -->
    <path d="M21.7,10.9c0,.1,0,.1.1.2-4.6,1.9-7,.8-9.1-.6l.1-.1A8.64,8.64,0,0,0,21.7,10.9Z" transform="translate(0 0.01)" fill="url(#ae979f49-9237-4d3b-8b5a-f9b31530aa36)"/> -->
    <path d="M12.6,10.6l.2-.1c2,1.3,4.4,2.4,9,.6l.2.1c-4.5,2-7.4.9-9.4-.6Z" transform="translate(0 0.01)" fill="#26551b"/> -->
    <path d="M22.1,11.2h0c0-.1.1-.1,0,0Z" transform="translate(0 0.01)" fill="#5f821c"/> -->
    <path d="M12.6,10.6h0c-.1,0-.1-.1-.1-.2C12.5,10.5,12.5,10.6,12.6,10.6Z" transform="translate(0 0.01)" fill="#26551b"/> -->
    <path d="M12.5,10.5l.2-.1c0,.1,0,.1.1.2l-.2.1A.31.31,0,0,1,12.5,10.5Z" transform="translate(0 0.01)" fill="url(#f3bfe9c9-5a0c-4af9-b8a2-c9335bb41371)"/> -->
    <path d="M12.7,10.3c.1,0,.1,0,.2.1s0,.1-.1.1S12.6,10.4,12.7,10.3Z" transform="translate(0 0.01)" fill="url(#a4cbc298-379d-43d4-a7a6-00f0dc66bbe2)"/> -->
    <path d="M24.4,3.1h0L24.2,3V2.9C24.3,2.9,24.3,3,24.4,3.1Z" transform="translate(0 0.01)" opacity="0.72" fill="url(#b12a9d65-7757-48fd-9af4-8103c59701c9)" style="isolation: isolate"/> -->
    <path d="M24.4,3.1,24.3,3h-.2c-4.6,1.9-6.9.8-8.9-.5H15l-.1.1c.7.6,4,3.2,9.5.5Z" transform="translate(0 0.01)" opacity="0.33" fill="url(#a7884ef6-c852-4cc4-b6e3-c2c6d8e99dfc)" style="isolation: isolate"/> -->
    <path d="M21.7,10.9,24,3h.2l-2.3,7.9Z" transform="translate(0 0.01)" opacity="0.72" fill="url(#a88b2c84-2bcf-40c1-8514-3c527fd30295)" style="isolation: isolate"/> -->
    <path d="M24,3h0c.1-.1.1-.1.2-.1s.2.2.2.3h0L24.2,3Z" transform="translate(0 0.01)" opacity="0.6" fill="url(#ffc02358-6d24-48d9-88b2-9c76558b5db7)" style="isolation: isolate"/> -->
    <path d="M14.8,2.5h0c.7.6,4,3.3,9.7.6V3c-5.5,2.7-8.8.1-9.7-.5Z" transform="translate(0 0.01)" opacity="0.3" fill="url(#f8368ee2-b5ee-43f8-860d-f247efab883b)" style="isolation: isolate"/> -->
    <path d="M24.4,3.1h0L24.2,3V2.9Z" transform="translate(0 0.01)" opacity="0.72" fill="url(#b12a9d65-7757-48fd-9af4-8103c59701c9)" style="isolation: isolate"/> -->
    <path d="M24,3h0c.1-.1.1-.1.2-.1s.2.2.2.3V3.1L24.2,3Z" transform="translate(0 0.01)" opacity="0.6" fill="url(#ffc02358-6d24-48d9-88b2-9c76558b5db7)" style="isolation: isolate"/> -->
  </g>
  <g>
    <text transform="translate(25 19.71)" font-size="12" font-family="SegoeUI-Bold, Segoe UI" font-weight="700" style="isolation: isolate">Windows Se</text>
    <text transform="translate(93.87 19.71)" font-size="12" font-family="SegoeUI-Bold, Segoe UI" font-weight="700" letter-spacing="0.04em" style="isolation: isolate">r</text>
    <text transform="translate(99.13 19.71)" font-size="12" font-family="SegoeUI-Bold, Segoe UI" font-weight="700" letter-spacing="-0.01em" style="isolation: isolate">v</text>
    <text transform="translate(105.51 19.71)" font-size="12" font-family="SegoeUI-Bold, Segoe UI" font-weight="700" style="isolation: isolate">er 2008</text>
  </g>
</svg>
