<svg xmlns="http://www.w3.org/2000/svg" xmlns:xlink="http://www.w3.org/1999/xlink" contentScriptType="application/ecmascript" contentStyleType="text/css" height="434px" preserveAspectRatio="none" style="width:396px;height:434px;" version="1.1" viewBox="0 0 396 434" width="396px" zoomAndPan="magnify"><defs/> --><g><!--MD5=[87141a2f9733db8d7026a939ebeab2d8]
entity AzureDefender--><rect fill="#FFFFFF" height="89.9609" style="stroke:#3C7FC0;stroke-width:1.0;" width="101" x="33.5" y="15"/> --><svg x="57" y="25"><defs><linearGradient id="a5d53553-f668-4fa0-ac9f-76a8e299111d" x1="9" y1="17.253" x2="9" y2="0.747" gradientUnits="userSpaceOnUse"><stop offset="0" stop-color="#50e6ff"
><stop offset="1" stop-color="#9cebff"
></linearGradient></defs><g transform="scale(3,3)"  id="f76fd8a1-aad0-4269-a185-99003396b0d2"><path d="M16.364,8.4c0,4.84-5.849,8.736-7.122,9.526a.459.459,0,0,1-.484,0c-1.273-.79-7.122-4.686-7.122-9.526V2.582a.463.463,0,0,1,.452-.462C6.638,2,5.59,0,9,0s2.362,2,6.912,2.12a.463.463,0,0,1,.452.462Z" fill="#50e6ff"
><path d="M15.754,8.454c0,4.438-5.365,8.011-6.532,8.736a.418.418,0,0,1-.444,0c-1.167-.725-6.532-4.3-6.532-8.736V3.114a.425.425,0,0,1,.415-.423C6.834,2.578,5.873.747,9,.747s2.166,1.831,6.339,1.944a.425.425,0,0,1,.415.423Z" fill="url(#a5d53553-f668-4fa0-ac9f-76a8e299111d)"
><g><circle id="bd9e26ef-9621-4ac2-9050-88bfa7e8e115" cx="9.854" cy="8.037" r="1.281" fill="#fff"
><circle id="f0b53d39-cbb6-45e7-9453-4ec356f6d390" cx="8.014" cy="11.159" r="0.865" fill="#fff"
><circle id="b1fa952f-d6ee-4a6e-9fb6-6eed89da1783" cx="7.39" cy="4.571" r="1.073" fill="#fff"
><polygon points="12.234 11.646 10.069 7.855 9.854 7.979 10.03 7.849 7.578 4.363 7.13 4.689 9.302 7.777 4.489 8.174 4.535 8.733 9.302 8.337 7.721 10.964 8.196 11.25 9.822 8.545 11.753 11.92 12.234 11.646" fill="#e6e6e6"
><path d="M9.854,6.769a1.3,1.3,0,1,1-1.3,1.3V8.037A1.3,1.3,0,0,1,9.854,6.769Zm-3.511-2.2A1.08,1.08,0,1,0,7.428,3.5H7.4A1.071,1.071,0,0,0,6.343,4.571ZM3.651,8.519a.865.865,0,1,0,.864-.865.865.865,0,0,0-.864.865Zm3.5,2.633a.872.872,0,1,0,.878-.865H8.02a.866.866,0,0,0-.871.859Zm3.85.7a1.008,1.008,0,1,0,1.014-1h-.006A.994.994,0,0,0,11,11.828Z" fill="#fff"
></g></g>​</svg><text fill="#000000" font-family="Segoe UI" font-size="12" lengthAdjust="spacing" textLength="81" x="43.5" y="91.9492">Azure Defender</text><!--MD5=[0fe869f7a331d4bf67e02534c80cc79c]
entity ConditionalAccess--><rect fill="#FFFFFF" height="105.9219" style="stroke:#3C7FC0;stroke-width:1.0;" width="85" x="169.5" y="7"/> --><svg x="185" y="17"><g transform="scale(3,3)" ><defs><linearGradient id="e2b13d81-97e0-465a-b9ed-b7f57e1b3f8c" x1="9" y1="16.79" x2="9" y2="1.21" gradientUnits="userSpaceOnUse"><stop offset="0" stop-color="#0078d4"
><stop offset="0.06" stop-color="#0a7cd7"
><stop offset="0.34" stop-color="#2e8ce1"
><stop offset="0.59" stop-color="#4897e9"
><stop offset="0.82" stop-color="#589eed"
><stop offset="1" stop-color="#5ea0ef"
></linearGradient></defs><title>Icon-identity-233</title><path d="M16.08,8.44c0,4.57-5.62,8.25-6.85,9a.43.43,0,0,1-.46,0c-1.23-.74-6.85-4.42-6.85-9V2.94a.44.44,0,0,1,.43-.44C6.73,2.39,5.72.5,9,.5s2.27,1.89,6.65,2a.44.44,0,0,1,.43.44Z" fill="#0078d4"
><path d="M15.5,8.48c0,4.2-5.16,7.57-6.29,8.25a.4.4,0,0,1-.42,0C7.66,16.05,2.5,12.68,2.5,8.48v-5A.41.41,0,0,1,2.9,3C6.92,2.93,6,1.21,9,1.21S11.08,2.93,15.1,3a.41.41,0,0,1,.4.4Z" fill="url(#e2b13d81-97e0-465a-b9ed-b7f57e1b3f8c)"
><path d="M11.85,7.66h-.4V6.24a2.62,2.62,0,0,0-.7-1.81,2.37,2.37,0,0,0-3.48,0,2.61,2.61,0,0,0-.7,1.81V7.66h-.4A.32.32,0,0,0,5.82,8v3.68a.32.32,0,0,0,.33.32h5.7a.32.32,0,0,0,.33-.32V8A.32.32,0,0,0,11.85,7.66Zm-1.55,0H7.7V6.22a1.43,1.43,0,0,1,.41-1,1.19,1.19,0,0,1,1.78,0,1.56,1.56,0,0,1,.16.2h0a1.4,1.4,0,0,1,.25.79Z" fill="#ffbd02"
><path d="M6.15,7.66h5.7a.32.32,0,0,1,.21.08L5.94,11.9a.33.33,0,0,1-.12-.24V8A.32.32,0,0,1,6.15,7.66Z" fill="#ffe452"
><path d="M11.85,7.66H6.15a.32.32,0,0,0-.21.08l6.12,4.16a.3.3,0,0,0,.12-.24V8A.32.32,0,0,0,11.85,7.66Z" fill="#ffd400" opacity="0.5"
></g></svg><text fill="#000000" font-family="Segoe UI" font-size="12" lengthAdjust="spacing" textLength="62" x="179.5" y="83.9492">Conditional</text><text fill="#000000" font-family="Segoe UI" font-size="12" lengthAdjust="spacing" textLength="36" x="194" y="99.9102">Access</text><!--MD5=[bef525ad440ac7851a1d77b6d00890da]
entity SecurityCenter--><rect fill="#FFFFFF" height="89.9609" style="stroke:#3C7FC0;stroke-width:1.0;" width="100" x="290" y="15"/> --><svg x="313" y="25"><defs><linearGradient id="f36136e6-f568-4134-ab6f-c0fefbc04f83" x1="9" y1="16.795" x2="9" y2="1.205" gradientUnits="userSpaceOnUse"><stop offset="0" stop-color="#5e9624"
><stop offset="0.321" stop-color="#639d26"
><stop offset="0.794" stop-color="#6fb12a"
><stop offset="0.999" stop-color="#76bc2d"
></linearGradient></defs><g transform="scale(3,3)" ><path d="M16.083,8.438c0,4.571-5.626,8.25-6.85,9a.449.449,0,0,1-.466,0c-1.224-.747-6.85-4.426-6.85-9v-5.5A.44.44,0,0,1,2.351,2.5C6.728,2.386,5.72.5,9,.5s2.272,1.886,6.649,2a.44.44,0,0,1,.434.435Z" fill="#76bc2d"
><path d="M15.5,8.485c0,4.191-5.16,7.566-6.282,8.25a.412.412,0,0,1-.428,0C7.664,16.051,2.5,12.676,2.5,8.485V3.441a.4.4,0,0,1,.4-.4C6.916,2.935,5.992,1.205,9,1.205s2.084,1.73,6.1,1.837a.4.4,0,0,1,.4.4Z" fill="url(#f36136e6-f568-4134-ab6f-c0fefbc04f83)"
><path d="M11.853,7.66h-.408l0-1.417a2.652,2.652,0,0,0-.7-1.809,2.358,2.358,0,0,0-3.483,0,2.606,2.606,0,0,0-.7,1.808V7.66H6.147a.328.328,0,0,0-.326.32v3.682a.329.329,0,0,0,.326.32h5.706a.329.329,0,0,0,.326-.32V7.98A.328.328,0,0,0,11.853,7.66Zm-1.549,0H7.7V6.219a1.434,1.434,0,0,1,.41-.99,1.2,1.2,0,0,1,1.788,0,1.394,1.394,0,0,1,.153.2h0a1.445,1.445,0,0,1,.258.791Z" fill="#fff"
><path d="M6.148,7.658h5.705a.328.328,0,0,1,.21.08L5.938,11.9a.313.313,0,0,1-.116-.241V7.979A.328.328,0,0,1,6.148,7.658Z" fill="#b3b3b3" opacity="0.15"
><path d="M11.853,7.658H6.147a.328.328,0,0,0-.209.08L12.062,11.9a.314.314,0,0,0,.117-.241V7.979A.329.329,0,0,0,11.853,7.658Z" fill="#a3a3a3" opacity="0.09"
></g></svg><text fill="#000000" font-family="Segoe UI" font-size="12" lengthAdjust="spacing" textLength="80" x="300" y="91.9492">Security Center</text><!--MD5=[a7aeb7ad0e60d54136ccdbb2743ee2ad]
entity ApplicationSecurityGroups--><rect fill="#FFFFFF" height="105.9219" style="stroke:#3C7FC0;stroke-width:1.0;" width="103" x="32.5" y="173"/> --><svg x="57" y="183"><g transform="scale(3,3)" ><defs><linearGradient id="a3df7d19-3d54-4d86-b7b8-c8d5b9b1be6b" x1="9" y1="16.21" x2="9" y2="0.62" gradientUnits="userSpaceOnUse"><stop offset="0" stop-color="#1b93eb"
><stop offset="0.21" stop-color="#2095eb"
><stop offset="0.44" stop-color="#2e9ced"
><stop offset="0.69" stop-color="#45a7ef"
><stop offset="0.95" stop-color="#64b6f1"
><stop offset="1" stop-color="#6bb9f2"
></linearGradient></defs><title>Icon-security-244</title><path d="M16,8.44c0,4.57-5.53,8.25-6.73,9a.43.43,0,0,1-.46,0C7.57,16.69,2,13,2,8.44V2.94a.44.44,0,0,1,.43-.44C6.77,2.39,5.78.5,9,.5s2.23,1.89,6.53,2a.44.44,0,0,1,.43.44Z" fill="#1b93eb"
><path d="M15.38,8.48c0,4.2-5.07,7.57-6.17,8.25a.4.4,0,0,1-.42,0c-1.1-.68-6.17-4.05-6.17-8.25v-5A.41.41,0,0,1,3,3c3.94-.11,3-1.83,6-1.83S11.05,2.93,15,3a.41.41,0,0,1,.39.4Z" fill="url(#a3df7d19-3d54-4d86-b7b8-c8d5b9b1be6b)"
><path d="M10.94,12.72c-1.07-.14-1-.83-1-1.94h-2c0,1.11,0,1.8-1,1.94a.56.56,0,0,0-.51.49h5.1A.56.56,0,0,0,10.94,12.72Z" fill="#1f56a3"
><rect x="4.3" y="4.31" width="9.18" height="6.5" rx="0.31" fill="#1490df"
><rect x="4.83" y="4.82" width="8.11" height="5.39" rx="0.16" fill="#fff"
><polygon points="10.53 6.57 10.54 8.46 8.88 9.42 8.89 7.52 10.53 6.57" fill="#0078d4"
><polygon points="10.53 6.56 8.89 7.52 7.24 6.56 8.88 5.61 10.53 6.56" fill="#83b9f9"
><polygon points="8.89 7.52 8.88 9.42 7.23 8.46 7.23 6.56 8.89 7.52" fill="#5ea0ef"
><polygon points="8.89 7.51 8.88 7.52 8.88 9.42 8.88 9.42 10.53 8.46 8.89 7.51" fill="#5ea0ef" opacity="0.2"
><polygon points="8.87 7.54 8.88 7.54 8.88 9.44 8.88 9.44 7.23 8.49 8.87 7.54" fill="#83b9f9" opacity="0.2"
></g></svg><text fill="#000000" font-family="Segoe UI" font-size="12" lengthAdjust="spacing" textLength="61" x="52" y="249.9492">Application</text><text fill="#000000" font-family="Segoe UI" font-size="12" lengthAdjust="spacing" textLength="83" x="42.5" y="265.9102">Security Groups</text><!--MD5=[d0f325fb19a86c843a890864cb33de93]
entity KeyVaults--><rect fill="#FFFFFF" height="89.9609" style="stroke:#3C7FC0;stroke-width:1.0;" width="74" x="171" y="181"/> --><svg x="181" y="191"><defs><radialGradient id="fb114c93-7c16-4540-899a-0796041629e6" cx="9" cy="9" r="8.5" gradientUnits="userSpaceOnUse"><stop offset="0.18" stop-color="#5ea0ef"
><stop offset="0.56" stop-color="#5c9fee"
><stop offset="0.69" stop-color="#559ced"
><stop offset="0.78" stop-color="#4a97e9"
><stop offset="0.86" stop-color="#3990e4"
><stop offset="0.93" stop-color="#2387de"
><stop offset="0.99" stop-color="#087bd6"
><stop offset="1" stop-color="#0078d4"
></radialGradient><radialGradient id="ec478bd3-5b38-4e7f-b661-11f355578bff" cx="38.95" cy="182.07" r="9.88" gradientTransform="translate(-28.71 -163.24) scale(0.94 0.94)" gradientUnits="userSpaceOnUse"><stop offset="0.27" stop-color="#ffd70f"
><stop offset="0.49" stop-color="#ffcb12"
><stop offset="0.88" stop-color="#feac19"
><stop offset="1" stop-color="#fea11b"
></radialGradient></defs><title>Icon-security-245</title><path id="aacf8311-a317-400f-b613-74bd00da5ce3" d="M9,.5A8.5,8.5,0,1,0,17.5,9,8.51,8.51,0,0,0,9,.5ZM9,16.34A7.34,7.34,0,1,1,16.34,9,7.34,7.34,0,0,1,9,16.34Z" fill="url(#fb114c93-7c16-4540-899a-0796041629e6)"
><circle cx="9" cy="9" r="7.34" fill="#fff"
><g transform="scale(3,3)" ><path id="bd983c41-db73-40ec-a4f4-da1213fc9924" d="M13.44,7.33a1.84,1.84,0,0,0,0-2.59h0L10.29,1.58a1.83,1.83,0,0,0-2.58,0h0L4.56,4.74a1.84,1.84,0,0,0,0,2.59L7.18,10a.51.51,0,0,1,.15.36v4.88a.63.63,0,0,0,.18.44l1.2,1.2a.41.41,0,0,0,.58,0l1.16-1.16h0l.68-.68a.25.25,0,0,0,0-.34l-.49-.49a.27.27,0,0,1,0-.37l.49-.49a.25.25,0,0,0,0-.34l-.49-.49a.27.27,0,0,1,0-.37l.49-.49a.25.25,0,0,0,0-.34l-.68-.69v-.25ZM9,2.35A1,1,0,0,1,9,4.42,1,1,0,1,1,9,2.35Z" fill="url(#ec478bd3-5b38-4e7f-b661-11f355578bff)"
><path id="ad2e7e44-9bfd-4775-8bf4-8ef26a544921" d="M8.18,15.3h0a.23.23,0,0,0,.38-.17v-4a.24.24,0,0,0-.11-.2h0a.22.22,0,0,0-.34.2v4A.28.28,0,0,0,8.18,15.3Z" fill="#ff9300" opacity="0.75"
><rect id="a996fbff-3936-4b24-b407-369336c143ba" x="6.48" y="5.79" width="5.17" height="0.61" rx="0.28" fill="#ff9300" opacity="0.75"
><rect id="bb12d31c-3352-4a18-87dd-a169a4a8721d" x="6.48" y="6.78" width="5.17" height="0.61" rx="0.28" fill="#ff9300" opacity="0.75"
></g></svg><text fill="#000000" font-family="Segoe UI" font-size="12" lengthAdjust="spacing" textLength="54" x="181" y="257.9492">Key Vaults</text><!--MD5=[ee600a89cd16e44b94860215c6e017d4]
entity AzureSentinel--><rect fill="#FFFFFF" height="89.9609" style="stroke:#3C7FC0;stroke-width:1.0;" width="95" x="280.5" y="181"/> --><svg x="301" y="191"><g transform="scale(3,3)" ><defs><linearGradient id="aff60ddf-eec1-40bf-8bf5-f3e3b50e8818" x1="9" y1="16.21" x2="9" y2="0.62" gradientUnits="userSpaceOnUse"><stop offset="0" stop-color="#1b93eb"
><stop offset="0.21" stop-color="#2095eb"
><stop offset="0.44" stop-color="#2e9ced"
><stop offset="0.69" stop-color="#45a7ef"
><stop offset="0.95" stop-color="#64b6f1"
><stop offset="1" stop-color="#6bb9f2"
></linearGradient></defs><title>Icon-security-248</title><path d="M16,8.44c0,4.57-5.53,8.25-6.73,9a.43.43,0,0,1-.46,0C7.57,16.69,2,13,2,8.44V2.94a.44.44,0,0,1,.43-.44C6.77,2.39,5.78.5,9,.5s2.23,1.89,6.53,2a.44.44,0,0,1,.43.44Z" fill="#1b93eb"
><path d="M15.38,8.48c0,4.2-5.07,7.57-6.17,8.25a.4.4,0,0,1-.42,0c-1.1-.68-6.17-4.05-6.17-8.25v-5A.41.41,0,0,1,3,3c3.94-.11,3-1.83,6-1.83S11.05,2.93,15,3a.41.41,0,0,1,.39.4Z" fill="url(#aff60ddf-eec1-40bf-8bf5-f3e3b50e8818)"
><path d="M9,6.53A2.88,2.88,0,0,1,11.84,9a.49.49,0,0,0,.49.4h1.4a.49.49,0,0,0,.5-.53,5.26,5.26,0,0,0-10.46,0,.49.49,0,0,0,.5.53h1.4A.49.49,0,0,0,6.16,9,2.88,2.88,0,0,1,9,6.53Z" fill="#c3f1ff"
><circle cx="9" cy="9.4" r="1.91" fill="#fff"
></g></svg><text fill="#000000" font-family="Segoe UI" font-size="12" lengthAdjust="spacing" textLength="75" x="290.5" y="257.9492">Azure Sentinel</text><!--MD5=[a6fb8444f2ac53e9bb5e7397d2fdb061]
entity ExtendedSecurityUpdates--><rect fill="#FFFFFF" height="89.9609" style="stroke:#3C7FC0;stroke-width:1.0;" width="154" x="7" y="339"/> --><svg x="57" y="349"><defs><linearGradient id="a0a9e6cf-445c-437a-a4cc-1cf69d025bb3" x1="7.981" y1="16.737" x2="7.981" y2="0.724" gradientUnits="userSpaceOnUse"><stop offset="0" stop-color="#0078d4"
><stop offset="1" stop-color="#5ea0ef"
></linearGradient></defs><g transform="scale(3,3)"  id="f3812ff1-dab6-4c66-bd45-5c638c6b6a32"><path d="M15.125,8.153c0,4.7-5.674,8.475-6.909,9.241a.443.443,0,0,1-.47,0C6.512,16.628.837,12.848.837,8.153V2.5a.449.449,0,0,1,.439-.447C5.69,1.937,4.674,0,7.981,0s2.292,1.937,6.706,2.057a.449.449,0,0,1,.438.447Z" fill="#0078d4"
><path d="M14.533,8.2c0,4.306-5.2,7.772-6.336,8.475a.408.408,0,0,1-.431,0C6.634,15.973,1.43,12.507,1.43,8.2V3.021a.411.411,0,0,1,.4-.41C5.88,2.5,4.948.724,7.981.724s2.1,1.777,6.15,1.887a.411.411,0,0,1,.4.41Z" fill="url(#a0a9e6cf-445c-437a-a4cc-1cf69d025bb3)"
><circle cx="11.946" cy="12.783" r="5.217" fill="#76bc2d"
><path d="M8.22,12.293a.184.184,0,0,1-.253-.065l-.221-.372a.185.185,0,0,1,.065-.253l1.751-1.039a.184.184,0,0,1,.253.065l1.039,1.751a.184.184,0,0,1-.065.253l-.372.221a.185.185,0,0,1-.253-.065l-.308-.52a2.356,2.356,0,0,0-.048.877,2.165,2.165,0,0,0,.289.831,2.127,2.127,0,0,0,.4.5,2.394,2.394,0,0,0,.521.362,2.3,2.3,0,0,0,.6.207,2.362,2.362,0,0,0,.476.043.182.182,0,0,1,.18.167l.084.9a3.291,3.291,0,0,1-.945-.051,3.468,3.468,0,0,1-.884-.306,3.351,3.351,0,0,1-.765-.534,3.331,3.331,0,0,1-1.03-2,3.351,3.351,0,0,1,.093-1.33Zm4.256-1.7a2.323,2.323,0,0,1,.6.21,2.378,2.378,0,0,1,.52.362,2.184,2.184,0,0,1,.692,1.326,2.356,2.356,0,0,1-.048.877l-.308-.52a.185.185,0,0,0-.253-.065l-.372.221a.184.184,0,0,0-.065.253l1.039,1.752a.185.185,0,0,0,.253.064l1.751-1.039a.184.184,0,0,0,.065-.253l-.221-.372a.185.185,0,0,0-.253-.064l-.606.359a3.346,3.346,0,0,0,.093-1.329,3.33,3.33,0,0,0-1.03-2,3.378,3.378,0,0,0-.765-.533,3.454,3.454,0,0,0-.884-.306,3.3,3.3,0,0,0-.755-.063.182.182,0,0,0-.172.2l.066.71a.182.182,0,0,0,.181.168A2.1,2.1,0,0,1,12.476,10.6Z" fill="#fff"
></g></svg><text fill="#000000" font-family="Segoe UI" font-size="12" lengthAdjust="spacing" textLength="134" x="17" y="415.9492">ExtendedSecurityUpdates</text><!--MD5=[ea663d5672468c12c37496b38aa0a96b]
link AzureDefender to ConditionalAccess--><!--MD5=[6558d888ad214f64cc17a06c09dda383]
link ConditionalAccess to SecurityCenter--><!--MD5=[a6c531eb1749a2f2239f8507abcabc8b]
link AzureDefender to ApplicationSecurityGroups--><!--MD5=[fb7844ee458be093e1dcec2880bc9ba3]
link ApplicationSecurityGroups to KeyVaults--><!--MD5=[7fb275cae939f86e44a507866815995e]
link KeyVaults to AzureSentinel--><!--MD5=[35983d1283d57a3dfc59bdac78a55d75]
link ApplicationSecurityGroups to ExtendedSecurityUpdates--><!--MD5=[737e809e1739050c4063cfba545ec04a]
@startuml
!pragma revision 1
!include ../../includes/AzureCommon.puml
sprite $AzureDefender Security/02247-icon-service-Azure-Defender.svg
rectangle "Azure Defender" <<$AzureDefender{scale=3}>> as AzureDefender
sprite $ConditionalAccess Security/10233-icon-service-Conditional-Access.svg
rectangle "Conditional Access" <<$ConditionalAccess{scale=3}>> as ConditionalAccess
sprite $SecurityCenter Security/10241-icon-service-Security-Center.svg
rectangle "Security Center" <<$SecurityCenter{scale=3}>> as SecurityCenter
sprite $ApplicationSecurityGroups Security/10244-icon-service-Application-Security-Groups.svg
rectangle "Application Security Groups" <<$ApplicationSecurityGroups{scale=3}>> as ApplicationSecurityGroups
sprite $KeyVaults Security/10245-icon-service-Key-Vaults.svg
rectangle "Key Vaults" <<$KeyVaults{scale=3}>> as KeyVaults
sprite $AzureSentinel Security/10248-icon-service-Azure-Sentinel.svg
rectangle "Azure Sentinel" <<$AzureSentinel{scale=3}>> as AzureSentinel
sprite $ExtendedSecurityUpdates Security/10572-icon-service-ExtendedSecurityUpdates.svg
rectangle "ExtendedSecurityUpdates" <<$ExtendedSecurityUpdates{scale=3}>> as ExtendedSecurityUpdates
@enduml

@startuml
!pragma revision 1


skinparam defaultTextAlignment center
skinparam defaultFontName Segoe UI
skinparam defaultBackgroundColor white
skinparam RectangleBackgroundColor white
skinparam RectangleBorderColor #3C7FC0
skinparam WrapWidth 100

skinparam rectangle {
    FontSize 12
    BorderThickness 1
    Shadowing false
}
sprite $AzureDefender Security/02247-icon-service-Azure-Defender.svg
rectangle "Azure Defender" <<$AzureDefender{scale=3}>> as AzureDefender
sprite $ConditionalAccess Security/10233-icon-service-Conditional-Access.svg
rectangle "Conditional Access" <<$ConditionalAccess{scale=3}>> as ConditionalAccess
sprite $SecurityCenter Security/10241-icon-service-Security-Center.svg
rectangle "Security Center" <<$SecurityCenter{scale=3}>> as SecurityCenter
sprite $ApplicationSecurityGroups Security/10244-icon-service-Application-Security-Groups.svg
rectangle "Application Security Groups" <<$ApplicationSecurityGroups{scale=3}>> as ApplicationSecurityGroups
sprite $KeyVaults Security/10245-icon-service-Key-Vaults.svg
rectangle "Key Vaults" <<$KeyVaults{scale=3}>> as KeyVaults
sprite $AzureSentinel Security/10248-icon-service-Azure-Sentinel.svg
rectangle "Azure Sentinel" <<$AzureSentinel{scale=3}>> as AzureSentinel
sprite $ExtendedSecurityUpdates Security/10572-icon-service-ExtendedSecurityUpdates.svg
rectangle "ExtendedSecurityUpdates" <<$ExtendedSecurityUpdates{scale=3}>> as ExtendedSecurityUpdates
@enduml

PlantUML version 1.2021.00(Sun Jan 10 02:25:05 PST 2021)
(GPL source distribution)
Java Runtime: Java(TM) SE Runtime Environment
JVM: Java HotSpot(TM) 64-Bit Server VM
Default Encoding: Cp1252
Language: en
Country: US
--></g></svg>