<svg id="a243fe3e-95d4-4895-99f4-3935a33c8017" data-name="b8014d7f-eb08-4a31-98eb-beaa23d3066c" xmlns="http://www.w3.org/2000/svg" xmlns:xlink="http://www.w3.org/1999/xlink" width="150.48" height="24.2" viewBox="0 0 150.48 24.2">
  <defs>
    <radialGradient id="af953ecc-739c-485f-892b-90c837cc0059" cx="-1282.07" cy="-425.24" r="2.3" gradientTransform="matrix(4.83, 0, 0, -4.86, 6206.41, -2057.23)" gradientUnits="userSpaceOnUse">
      <stop offset="0.25" stop-color="#fff"/>
      <stop offset="1"/>
    </radialGradient>
    <radialGradient id="f6e8b98b-8d42-4add-bc65-1a66a6a76b19" cx="-531.14" cy="-844.6" r="2.3" gradientTransform="matrix(1, 0, 0, -1, 0, 24.02)" xlink:href="#af953ecc-739c-485f-892b-90c837cc0059"/>
    <radialGradient id="eb61f3f9-2526-4670-aa2c-687462432ade" cx="-1314.2" cy="-402.9" r="2.47" gradientTransform="matrix(4.97, 0, 0, -4.97, 6540.91, -1987.72)" gradientUnits="userSpaceOnUse">
      <stop offset="0" stop-color="#d1e7ee"/>
      <stop offset="0.1" stop-color="#cde4ec"/>
      <stop offset="0.2" stop-color="#c0dce8"/>
      <stop offset="0.3" stop-color="#add0e1"/>
      <stop offset="0.65" stop-color="#3982b1"/>
      <stop offset="0.72" stop-color="#3474aa"/>
      <stop offset="0.9" stop-color="#285699"/>
      <stop offset="1" stop-color="#244b93"/>
    </radialGradient>
    <radialGradient id="ae0fa11f-721a-45e6-b277-0de1387a3558" cx="-1314.2" cy="-402.88" r="2.48" gradientTransform="matrix(4.97, 0, 0, -4.97, 6540.91, -1987.72)" gradientUnits="userSpaceOnUse">
      <stop offset="0" stop-color="#d8eeed"/>
      <stop offset="0.17" stop-color="#98d8d7"/>
      <stop offset="0.22" stop-color="#8ed3d3"/>
      <stop offset="0.31" stop-color="#74c6ca"/>
      <stop offset="0.42" stop-color="#49b1ba"/>
      <stop offset="0.45" stop-color="#3caab5"/>
      <stop offset="0.56" stop-color="#2e81a4"/>
      <stop offset="0.68" stop-color="#215b94"/>
      <stop offset="0.78" stop-color="#19448b"/>
      <stop offset="0.84" stop-color="#163b87"/>
      <stop offset="1" stop-color="#0b317d"/>
    </radialGradient>
    <radialGradient id="f90c7ec9-8b30-4743-9d7f-d2e3940470a8" cx="-1314.2" cy="-402.9" r="2.48" gradientTransform="matrix(4.97, 0, 0, -4.97, 6540.91, -1987.72)" gradientUnits="userSpaceOnUse">
      <stop offset="0" stop-color="#d8eeed"/>
      <stop offset="0.17" stop-color="#98d8d7"/>
      <stop offset="0.22" stop-color="#8ed3d3"/>
      <stop offset="0.31" stop-color="#74c6ca"/>
      <stop offset="0.42" stop-color="#49b1ba"/>
      <stop offset="0.45" stop-color="#3caab5"/>
      <stop offset="0.56" stop-color="#2e81a4"/>
      <stop offset="0.68" stop-color="#215b94"/>
      <stop offset="0.78" stop-color="#19448b"/>
      <stop offset="0.84" stop-color="#163b87"/>
      <stop offset="1" stop-color="#152469"/>
    </radialGradient>
    <radialGradient id="e9424412-79cf-4edb-b75a-341b8fde99d0" cx="-557.75" cy="-824.65" r="2.48" gradientTransform="matrix(1, 0, 0, -1, 0, 24.02)" xlink:href="#ae0fa11f-721a-45e6-b277-0de1387a3558"/>
    <linearGradient id="e6fbbc1b-f5ab-45b8-a65f-73ff269844bd" x1="-1314.07" y1="-403.05" x2="-1314.45" y2="-404.41" gradientTransform="matrix(4.97, 0, 0, -4.97, 6540.91, -1987.72)" gradientUnits="userSpaceOnUse">
      <stop offset="0" stop-color="#98d8d7"/>
      <stop offset="1" stop-color="#152469"/>
    </linearGradient>
    <radialGradient id="f085be18-99ff-4b40-8c4f-2538f5565c48" cx="11.23" cy="13.05" r="0.04" gradientTransform="matrix(1, 0, 0, -1, 0, 24.02)" xlink:href="#f90c7ec9-8b30-4743-9d7f-d2e3940470a8"/>
    <linearGradient id="a29ab2c3-8f6a-4be2-877b-51068be5284e" x1="-1316.58" y1="-402.88" x2="-1316.07" y2="-402.88" gradientTransform="matrix(4.97, 0, 0, -4.97, 6540.91, -1987.72)" gradientUnits="userSpaceOnUse">
      <stop offset="0" stop-color="#def3f1"/>
      <stop offset="1" stop-color="#5085bc"/>
    </linearGradient>
    <linearGradient id="a8b85b4e-3a5f-4f45-b560-f6d6b2c862f5" x1="-1314.83" y1="-402.98" x2="-1314.31" y2="-402.98" xlink:href="#a29ab2c3-8f6a-4be2-877b-51068be5284e"/>
    <linearGradient id="b83aced4-2a0a-45fa-8f29-e4f698e45529" x1="-1316.12" y1="-402.02" x2="-1314.32" y2="-402.02" gradientTransform="matrix(4.97, 0, 0, -4.97, 6540.91, -1987.72)" gradientUnits="userSpaceOnUse">
      <stop offset="0" stop-color="#094992"/>
      <stop offset="0.67" stop-color="#8bcde2"/>
      <stop offset="1" stop-color="#e6f6f9"/>
    </linearGradient>
    <linearGradient id="ef45f838-1c47-49cb-959c-e50cf6617194" x1="-1316.08" y1="-402.04" x2="-1314.36" y2="-402.04" gradientTransform="matrix(4.97, 0, 0, -4.97, 6540.91, -1987.72)" gradientUnits="userSpaceOnUse">
      <stop offset="0.01" stop-color="#bbc7e1"/>
      <stop offset="0.22" stop-color="#7090c3"/>
      <stop offset="0.54" stop-color="#c8eaef"/>
      <stop offset="1" stop-color="#fff"/>
    </linearGradient>
    <linearGradient id="a2eed12a-cdb5-4bdd-acd6-b6e74e2a9ae6" x1="-1316.12" y1="-402" x2="-1314.32" y2="-402" gradientTransform="matrix(4.97, 0, 0, -4.97, 6540.91, -1987.72)" gradientUnits="userSpaceOnUse">
      <stop offset="0.01" stop-color="#7090c3"/>
      <stop offset="0.54" stop-color="#c1e7ed"/>
      <stop offset="1" stop-color="#fff"/>
    </linearGradient>
    <radialGradient id="bc1f31c3-9f80-4a61-bfc2-d43f5376a4f5" cx="-1316.12" cy="-402.83" r="0.01" gradientTransform="matrix(4.97, 0, 0, -4.97, 6540.91, -1987.72)" gradientUnits="userSpaceOnUse">
      <stop offset="0" stop-color="#7e9ec4"/>
      <stop offset="1" stop-color="#0a50a1"/>
    </radialGradient>
    <radialGradient id="ba063551-aeb0-4b45-8d68-026eec770f73" cx="-1317.31" cy="-404.37" r="3.04" gradientTransform="matrix(4.97, 0, 0, -4.97, 6540.91, -1987.72)" gradientUnits="userSpaceOnUse">
      <stop offset="0" stop-color="#d8eeed"/>
      <stop offset="0.17" stop-color="#98d8d7"/>
      <stop offset="0.22" stop-color="#8ed3d3"/>
      <stop offset="0.31" stop-color="#74c6ca"/>
      <stop offset="0.42" stop-color="#49b1ba"/>
      <stop offset="0.45" stop-color="#3caab5"/>
      <stop offset="0.5" stop-color="#369fb5"/>
      <stop offset="0.63" stop-color="#2a88b4"/>
      <stop offset="0.71" stop-color="#257fb4"/>
      <stop offset="1" stop-color="#4161ab"/>
    </radialGradient>
    <radialGradient id="b8846d85-5cfd-4d34-ae08-b5704fba8b0c" cx="-1314.2" cy="-402.96" r="2.3" gradientTransform="matrix(4.97, 0, 0, -4.97, 6540.91, -1987.72)" gradientUnits="userSpaceOnUse">
      <stop offset="0" stop-color="#fcf5b0"/>
      <stop offset="0.17" stop-color="#f7eda0"/>
      <stop offset="0.28" stop-color="#f3e591"/>
      <stop offset="0.65" stop-color="#fcd118"/>
      <stop offset="0.8" stop-color="#f7a50c"/>
      <stop offset="0.93" stop-color="#f38603"/>
      <stop offset="1" stop-color="#f27b00"/>
    </radialGradient>
    <linearGradient id="f63290de-21c7-4c94-9fc1-acb4e6e48190" x1="-1312.38" y1="-404.89" x2="-1312.39" y2="-404.93" gradientTransform="matrix(4.97, 0, 0, -4.97, 6540.91, -1987.72)" gradientUnits="userSpaceOnUse">
      <stop offset="0" stop-color="#de980d"/>
      <stop offset="1" stop-color="#a85d10"/>
    </linearGradient>
    <linearGradient id="a0216a53-2ece-442c-90c7-02898094c070" x1="-1312.68" y1="-403.28" x2="-1312.22" y2="-403.28" gradientTransform="matrix(4.97, 0, 0, -4.97, 6540.91, -1987.72)" gradientUnits="userSpaceOnUse">
      <stop offset="0" stop-color="#deb150"/>
      <stop offset="1" stop-color="#fff8b3"/>
    </linearGradient>
    <linearGradient id="eb10b533-fe2e-460c-8012-420325841f98" x1="-1311.72" y1="-403.26" x2="-1311.72" y2="-403.29" gradientTransform="matrix(4.97, 0, 0, -4.97, 6540.91, -1987.72)" gradientUnits="userSpaceOnUse">
      <stop offset="0.01" stop-color="#c67c0c"/>
      <stop offset="1" stop-color="#de980d"/>
    </linearGradient>
    <linearGradient id="b257fae0-7087-4867-b40b-a081cf0fea06" x1="-1311.59" y1="-402.75" x2="-1311.57" y2="-402.78" gradientTransform="matrix(4.97, 0, 0, -4.97, 6540.91, -1987.72)" gradientUnits="userSpaceOnUse">
      <stop offset="0.01" stop-color="#fed40f"/>
      <stop offset="1" stop-color="#a85d10"/>
    </linearGradient>
    <linearGradient id="bff1457b-5f7e-43c9-82e6-91b5570a327e" x1="-1312.38" y1="-403.11" x2="-1312.39" y2="-403.12" xlink:href="#b257fae0-7087-4867-b40b-a081cf0fea06"/>
    <linearGradient id="bee6f4f0-4db6-4639-ad5b-f6ffe3b9c6e9" x1="-1314.08" y1="-402.47" x2="-1312.29" y2="-402.47" gradientTransform="matrix(4.97, 0, 0, -4.97, 6540.91, -1987.72)" gradientUnits="userSpaceOnUse">
      <stop offset="0" stop-color="#fff8fb"/>
      <stop offset="1" stop-color="#fec236"/>
    </linearGradient>
    <linearGradient id="b4b21264-11f8-4985-be25-1aa2b2fd2aa1" x1="-1312.28" y1="-403.17" x2="-1312.32" y2="-403.16" gradientTransform="matrix(4.97, 0, 0, -4.97, 6540.91, -1987.72)" gradientUnits="userSpaceOnUse">
      <stop offset="0" stop-color="#b37e00"/>
      <stop offset="1" stop-color="#ff9e00"/>
    </linearGradient>
    <linearGradient id="fc651de5-ef0c-4a77-80bd-2c7be6dbed19" x1="-1312.53" y1="-404.86" x2="-1312.55" y2="-404.91" gradientTransform="matrix(4.97, 0, 0, -4.97, 6540.91, -1987.72)" gradientUnits="userSpaceOnUse">
      <stop offset="0.01" stop-color="#ffd100"/>
      <stop offset="1" stop-color="#a8710a"/>
    </linearGradient>
    <linearGradient id="f4eaac1e-66b2-4df5-b406-d74aaf1cf836" x1="-1314.56" y1="-404.07" x2="-1312.73" y2="-404.07" gradientTransform="matrix(4.97, 0, 0, -4.97, 6540.91, -1987.72)" gradientUnits="userSpaceOnUse">
      <stop offset="0" stop-color="#de980d"/>
      <stop offset="0.4" stop-color="#fdda10"/>
      <stop offset="1" stop-color="#de980d"/>
    </linearGradient>
    <linearGradient id="a20bb7a9-aa90-4c53-ae5f-aa98eb07fa73" x1="-1313.93" y1="-404.07" x2="-1313.96" y2="-404.04" gradientTransform="matrix(4.97, 0, 0, -4.97, 6540.91, -1987.72)" gradientUnits="userSpaceOnUse">
      <stop offset="0" stop-color="#de980d"/>
      <stop offset="0.1" stop-color="#de980d"/>
      <stop offset="0.7" stop-color="#fdda10"/>
      <stop offset="1" stop-color="#de980d"/>
    </linearGradient>
    <linearGradient id="e245bb4f-ec54-4076-afaa-4e20b449ff12" x1="-1313.85" y1="-404.18" x2="-1313.83" y2="-404.21" gradientTransform="matrix(4.97, 0, 0, -4.97, 6540.91, -1987.72)" gradientUnits="userSpaceOnUse">
      <stop offset="0" stop-color="#de980d"/>
      <stop offset="0.4" stop-color="#febf0f"/>
      <stop offset="0.8" stop-color="#fed40f"/>
      <stop offset="1" stop-color="#de980d"/>
    </linearGradient>
    <radialGradient id="ed2a6d0e-17d3-4dab-bfa9-838ce200a8bb" cx="-1314.11" cy="-403.08" r="0.02" gradientTransform="matrix(4.97, 0, 0, -4.97, 6540.91, -1987.72)" gradientUnits="userSpaceOnUse">
      <stop offset="0" stop-color="#feeb71"/>
      <stop offset="1" stop-color="#de980d"/>
    </radialGradient>
    <linearGradient id="aea5637b-013e-456f-96cb-0944e847c261" x1="-1314.1" y1="-403.04" x2="-1314.14" y2="-403.03" gradientTransform="matrix(4.97, 0, 0, -4.97, 6540.91, -1987.72)" gradientUnits="userSpaceOnUse">
      <stop offset="0.01" stop-color="#ffefbb"/>
      <stop offset="1" stop-color="#ffbf00"/>
    </linearGradient>
    <linearGradient id="f6d29ff3-e4c6-4c89-a5eb-f6b0430e298d" x1="-1314.17" y1="-402.49" x2="-1312.23" y2="-402.49" gradientTransform="matrix(4.97, 0, 0, -4.97, 6540.91, -1987.72)" gradientUnits="userSpaceOnUse">
      <stop offset="0.01" stop-color="#fca859"/>
      <stop offset="0.21" stop-color="#fdc30f"/>
      <stop offset="1" stop-color="#b51c00"/>
    </linearGradient>
    <linearGradient id="f7369cd9-48a1-48c1-ad43-0d2d45ef0beb" x1="-1314.15" y1="-402.51" x2="-1312.22" y2="-402.51" gradientTransform="matrix(4.97, 0, 0, -4.97, 6540.91, -1987.72)" gradientUnits="userSpaceOnUse">
      <stop offset="0.01" stop-color="#fff6d8"/>
      <stop offset="0.52" stop-color="#fdda10"/>
      <stop offset="1" stop-color="#f9bd0c"/>
    </linearGradient>
    <linearGradient id="fa622604-9eff-4d59-87d9-140151911251" x1="-1312.22" y1="-404.03" x2="-1312.25" y2="-404.01" gradientTransform="matrix(4.97, 0, 0, -4.97, 6540.91, -1987.72)" gradientUnits="userSpaceOnUse">
      <stop offset="0" stop-color="#eab949"/>
      <stop offset="0.07" stop-color="#edc25a"/>
      <stop offset="0.28" stop-color="#f3d883"/>
      <stop offset="0.48" stop-color="#f8e9a4"/>
      <stop offset="0.67" stop-color="#fcf5bc"/>
      <stop offset="0.85" stop-color="#fefcca"/>
      <stop offset="1" stop-color="#ffffcf"/>
    </linearGradient>
    <radialGradient id="b4e3cef6-b4d6-44b2-b83b-1b7a174a95e1" cx="-1314.27" cy="-402.64" r="2.18" gradientTransform="matrix(4.97, 0, 0, -4.97, 6540.91, -1987.72)" gradientUnits="userSpaceOnUse">
      <stop offset="0" stop-color="#efd916"/>
      <stop offset="0.11" stop-color="#efd516"/>
      <stop offset="0.22" stop-color="#edc715"/>
      <stop offset="0.33" stop-color="#ebb213"/>
      <stop offset="0.45" stop-color="#e89312"/>
      <stop offset="0.57" stop-color="#e36d0f"/>
      <stop offset="0.65" stop-color="#e04d0d"/>
      <stop offset="0.79" stop-color="#ce2907"/>
      <stop offset="0.92" stop-color="#bf0b02"/>
      <stop offset="1" stop-color="#b90000"/>
    </radialGradient>
    <linearGradient id="abd942c0-652b-447e-8e26-5710f93daf11" x1="-1315.07" y1="-400.16" x2="-1315.07" y2="-400.16" gradientTransform="matrix(4.97, 0, 0, -4.97, 6540.91, -1987.72)" gradientUnits="userSpaceOnUse">
      <stop offset="0" stop-color="#fd7e36"/>
      <stop offset="1" stop-color="#bd6f4f"/>
    </linearGradient>
    <linearGradient id="bca5c763-cbe4-41ad-aa8c-98fc08e83915" x1="-1315.58" y1="-400.11" x2="-1313.78" y2="-400.11" gradientTransform="matrix(4.97, 0, 0, -4.97, 6540.91, -1987.72)" gradientUnits="userSpaceOnUse">
      <stop offset="0" stop-color="#fc2b21"/>
      <stop offset="0.24" stop-color="#ff590a"/>
      <stop offset="0.25" stop-color="#fb570b"/>
      <stop offset="0.33" stop-color="#e74c0e"/>
      <stop offset="0.42" stop-color="#d84511"/>
      <stop offset="0.52" stop-color="#d04013"/>
      <stop offset="0.7" stop-color="#cd3f13"/>
      <stop offset="0.8" stop-color="#d04213"/>
      <stop offset="0.87" stop-color="#d84b14"/>
      <stop offset="0.93" stop-color="#e65b16"/>
      <stop offset="0.99" stop-color="#f97219"/>
      <stop offset="1" stop-color="#fc7519"/>
    </linearGradient>
    <linearGradient id="f77ce65d-6352-4be1-85f9-14eaebfab3da" x1="-1316.04" y1="-400.99" x2="-1315.54" y2="-400.99" xlink:href="#abd942c0-652b-447e-8e26-5710f93daf11"/>
    <linearGradient id="a893229c-43e1-4506-9881-669ae56ba322" x1="-1313.33" y1="-400.31" x2="-1313.33" y2="-400.31" gradientTransform="matrix(4.97, 0, 0, -4.97, 6540.91, -1987.72)" gradientUnits="userSpaceOnUse">
      <stop offset="0" stop-color="#fe560d"/>
      <stop offset="1" stop-color="#8c1501"/>
    </linearGradient>
    <linearGradient id="a7293553-a6ee-480e-800b-50cbbac06739" x1="-1314.15" y1="-401.08" x2="-1314.17" y2="-400.53" xlink:href="#a893229c-43e1-4506-9881-669ae56ba322"/>
    <linearGradient id="beb0dcf1-ee9a-4c49-8c37-243663dda4da" x1="-1314.3" y1="-401.08" x2="-1313.77" y2="-401.08" gradientTransform="matrix(4.97, 0, 0, -4.97, 6540.91, -1987.72)" gradientUnits="userSpaceOnUse">
      <stop offset="0" stop-color="#fd7e36"/>
      <stop offset="1" stop-color="#fc895b"/>
    </linearGradient>
    <linearGradient id="b3b48b22-426a-4ed9-bd16-7626c44e9440" x1="-1316.04" y1="-401.71" x2="-1314.24" y2="-401.71" gradientTransform="matrix(4.97, 0, 0, -4.97, 6540.91, -1987.72)" gradientUnits="userSpaceOnUse">
      <stop offset="0" stop-color="#fd9b20"/>
      <stop offset="0.25" stop-color="#fd9b20"/>
      <stop offset="0.34" stop-color="#fdb830"/>
      <stop offset="0.43" stop-color="#fed23e"/>
      <stop offset="0.49" stop-color="#fedb43"/>
      <stop offset="0.75" stop-color="#fe8411"/>
      <stop offset="1" stop-color="#fe560d"/>
    </linearGradient>
    <radialGradient id="b10bdd03-d657-4f35-96db-f949918be8cf" cx="-1314.21" cy="-402.88" r="2.49" gradientTransform="matrix(4.97, 0, 0, -4.97, 6540.91, -1987.72)" gradientUnits="userSpaceOnUse">
      <stop offset="0.01" stop-color="#d1e787"/>
      <stop offset="0.12" stop-color="#cee583"/>
      <stop offset="0.25" stop-color="#c4de76"/>
      <stop offset="0.38" stop-color="#b3d361"/>
      <stop offset="0.51" stop-color="#9cc443"/>
      <stop offset="0.64" stop-color="#7fb01d"/>
      <stop offset="0.65" stop-color="#7bae19"/>
      <stop offset="0.78" stop-color="#578d19"/>
      <stop offset="0.92" stop-color="#366e1a"/>
      <stop offset="1" stop-color="#29621a"/>
    </radialGradient>
    <linearGradient id="a2c6d7f4-e9ab-438f-9eb2-f51c50b2e89b" x1="-1313.54" y1="-400.59" x2="-1311.74" y2="-400.59" gradientTransform="matrix(4.97, 0, 0, -4.97, 6540.91, -1987.72)" gradientUnits="userSpaceOnUse">
      <stop offset="0" stop-color="#d3ed89"/>
      <stop offset="1" stop-color="#5f821c"/>
    </linearGradient>
    <linearGradient id="bd686b1c-e7eb-4ae4-a130-8bb314e93f44" x1="-1313.56" y1="-401.17" x2="-1313.6" y2="-401.16" gradientTransform="matrix(4.97, 0, 0, -4.97, 6540.91, -1987.72)" gradientUnits="userSpaceOnUse">
      <stop offset="0.28" stop-color="#d3ed89"/>
      <stop offset="0.4" stop-color="#d3ed89"/>
      <stop offset="1" stop-color="#5f821c"/>
    </linearGradient>
    <linearGradient id="fe422937-3dd4-4908-8513-ee5c112fa6b3" x1="-1313.33" y1="-400.36" x2="-1313.37" y2="-400.35" gradientTransform="matrix(4.97, 0, 0, -4.97, 6540.91, -1987.72)" gradientUnits="userSpaceOnUse">
      <stop offset="0" stop-color="#7aa922"/>
      <stop offset="0.2" stop-color="#d3ed89"/>
      <stop offset="0.52" stop-color="#d3ed89"/>
      <stop offset="1" stop-color="#7aa922"/>
    </linearGradient>
    <linearGradient id="b42b4572-e29e-4cc0-8a83-a48e4bc7dc51" x1="-1312.18" y1="-401.37" x2="-1311.68" y2="-401.37" gradientTransform="matrix(4.97, 0, 0, -4.97, 6540.91, -1987.72)" gradientUnits="userSpaceOnUse">
      <stop offset="0.01" stop-color="#7aa922"/>
      <stop offset="0.17" stop-color="#1d4a20"/>
      <stop offset="0.38" stop-color="#26551b"/>
      <stop offset="1" stop-color="#7aa922"/>
    </linearGradient>
    <linearGradient id="a00668e8-c3a8-457a-8b74-f44fc5dd3070" x1="-1312.17" y1="-402.15" x2="-1312.22" y2="-402.15" gradientTransform="matrix(4.97, 0, 0, -4.97, 6540.91, -1987.72)" gradientUnits="userSpaceOnUse">
      <stop offset="0" stop-color="#7aa922"/>
      <stop offset="1" stop-color="#d3ed89"/>
    </linearGradient>
    <linearGradient id="bca70873-c494-4408-b6b2-2200c7fe5612" x1="-1312.17" y1="-402.93" x2="-1312.19" y2="-402.96" gradientTransform="matrix(4.97, 0, 0, -4.97, 6540.91, -1987.72)" gradientUnits="userSpaceOnUse">
      <stop offset="0" stop-color="#5f821c"/>
      <stop offset="1" stop-color="#26551b"/>
    </linearGradient>
    <linearGradient id="e05f4298-d4cd-4715-8515-2427c6f33301" x1="-1314.02" y1="-402.21" x2="-1312.19" y2="-402.21" gradientTransform="matrix(4.97, 0, 0, -4.97, 6540.91, -1987.72)" gradientUnits="userSpaceOnUse">
      <stop offset="0" stop-color="#7aa922"/>
      <stop offset="0.4" stop-color="#d3ed89"/>
      <stop offset="1" stop-color="#7aa922"/>
    </linearGradient>
    <linearGradient id="bcf9a264-2b48-4618-a7e6-b9aa172bc2ac" x1="-1313.39" y1="-402.2" x2="-1313.42" y2="-402.17" gradientTransform="matrix(4.97, 0, 0, -4.97, 6540.91, -1987.72)" gradientUnits="userSpaceOnUse">
      <stop offset="0" stop-color="#1d3a19"/>
      <stop offset="0.1" stop-color="#26551b"/>
      <stop offset="0.65" stop-color="#7aa922"/>
      <stop offset="1" stop-color="#d3ed89"/>
    </linearGradient>
    <linearGradient id="b75d38ef-0ccb-4597-8414-140634a778ce" x1="-1313.33" y1="-402.32" x2="-1313.31" y2="-402.35" gradientTransform="matrix(4.97, 0, 0, -4.97, 6540.91, -1987.72)" gradientUnits="userSpaceOnUse">
      <stop offset="0" stop-color="#5f821c"/>
      <stop offset="0.4" stop-color="#7aa922"/>
      <stop offset="0.8" stop-color="#5f821c"/>
      <stop offset="1" stop-color="#5f821c"/>
    </linearGradient>
    <linearGradient id="bfce89f1-5ef4-40d5-8323-034ced0e8926" x1="-1311.6" y1="-401.38" x2="-1311.59" y2="-401.36" gradientTransform="matrix(4.97, 0, 0, -4.97, 6540.91, -1987.72)" gradientUnits="userSpaceOnUse">
      <stop offset="0" stop-color="#5b7f30"/>
      <stop offset="1" stop-color="#d3ed89"/>
    </linearGradient>
    <linearGradient id="a5c78550-6fc2-4e82-9024-57d9497f7b04" x1="-1311.49" y1="-400.76" x2="-1313.33" y2="-400.23" gradientTransform="matrix(4.97, 0, 0, -4.97, 6540.91, -1987.72)" gradientUnits="userSpaceOnUse">
      <stop offset="0" stop-color="#1d3419"/>
      <stop offset="0.23" stop-color="#26551b"/>
      <stop offset="1" stop-color="#7aa922"/>
    </linearGradient>
    <linearGradient id="e66699fe-e2a7-4e4e-8b81-b287dcd53a1c" x1="-1311.73" y1="-401.28" x2="-1311.77" y2="-401.27" gradientTransform="matrix(4.97, 0, 0, -4.97, 6540.91, -1987.72)" gradientUnits="userSpaceOnUse">
      <stop offset="0" stop-color="#5f821c"/>
      <stop offset="1" stop-color="#75c146"/>
    </linearGradient>
    <linearGradient id="b4ccaf38-32b2-43f5-a80c-89b5fb873f94" x1="-1311.75" y1="-400.56" x2="-1311.67" y2="-400.56" xlink:href="#a2c6d7f4-e9ab-438f-9eb2-f51c50b2e89b"/>
    <linearGradient id="e722679e-f22e-48dd-b15c-5df4210b8750" x1="-1311.5" y1="-400.75" x2="-1313.33" y2="-400.23" gradientTransform="matrix(4.97, 0, 0, -4.97, 6540.91, -1987.72)" gradientUnits="userSpaceOnUse">
      <stop offset="0" stop-color="#93bf81"/>
      <stop offset="0.23" stop-color="#26551b"/>
      <stop offset="1" stop-color="#bde256"/>
    </linearGradient>
    <linearGradient id="fa939a77-be7b-43c8-afb4-6c8b5f3a2c89" x1="-1311.75" y1="-400.56" x2="-1311.67" y2="-400.56" xlink:href="#a2c6d7f4-e9ab-438f-9eb2-f51c50b2e89b"/>
  </defs>
  <g>
    <path d="M7.23,10.29c-.4,0-.81.06-1.22.12s-1,.2-1.45.33-1.07.35-1.64.58h0L.55,19.07a.2.2,0,0,0,0,.11l.16.11H.8a17.33,17.33,0,0,1,2.33-.7A9.47,9.47,0,0,1,5,18.37a7.44,7.44,0,0,1,1.42.16,6.42,6.42,0,0,1,1.24.4,10.58,10.58,0,0,1,1.52.82h0a.06.06,0,0,0,.08,0l.13-.07h0a.09.09,0,0,0,.06-.07h0l2.27-7.51.07-.26h0a.09.09,0,0,0,0-.07h0a8.19,8.19,0,0,0-3.49-1.43,7,7,0,0,0-1.12-.05Z" opacity="0.2" fill="url(#af953ecc-739c-485f-892b-90c837cc0059)" style="isolation: isolate"/>
    <path d="M12.88,12.57h-.16l-.11.11h0l-2.28,7.73a.24.24,0,0,0,.08.18,10.3,10.3,0,0,0,1.7.91,7.42,7.42,0,0,0,1,.35,8.91,8.91,0,0,0,1.12.23,8.48,8.48,0,0,0,1.23.09,8.81,8.81,0,0,0,1.36-.11,10.37,10.37,0,0,0,1.49-.32A11.78,11.78,0,0,0,20,21.17h0A.16.16,0,0,0,20,21.1l2.22-7.51h0a.09.09,0,0,0,0-.1L22,13.31h-.13c-.57.19-1.12.35-1.64.47s-1,.2-1.43.26a9.48,9.48,0,0,1-2.38,0,7.42,7.42,0,0,1-1.89-.54A10.82,10.82,0,0,1,13,12.59h-.09Z" opacity="0.2" fill="url(#f6e8b98b-8d42-4add-bc65-1a66a6a76b19)" style="isolation: isolate"/>
    <path d="M15.49,3.27h0a.57.57,0,0,0-.14.13h0L13,11.11v.05a.15.15,0,0,0,.08.12h0l.55.34a8.35,8.35,0,0,0,2.65,1.07,7.45,7.45,0,0,0,1.62.18,8.88,8.88,0,0,0,1.86-.17,11.54,11.54,0,0,0,2.83-.84h0a.19.19,0,0,0,.08-.07L25,4.06h0a.87.87,0,0,0-.11-.17l-.11-.07a.19.19,0,0,0-.15,0h0A14.73,14.73,0,0,1,23,4.34a11.54,11.54,0,0,1-1.44.32,7.81,7.81,0,0,1-1.28.11,6.07,6.07,0,0,1-1.12-.07,7.12,7.12,0,0,1-1.9-.55,13.32,13.32,0,0,1-1.6-.9.14.14,0,0,0-.17,0Z" opacity="0.2" fill="url(#f6e8b98b-8d42-4add-bc65-1a66a6a76b19)" style="isolation: isolate"/>
    <path d="M8.09,1.13a15.49,15.49,0,0,0-2.56.8h0l-.12.4L3.18,9.7h0v.09h0l.13.1h.14a10.48,10.48,0,0,1,5-.88,6.94,6.94,0,0,1,1.8.48,11.14,11.14,0,0,1,1.57.82h.08l.15-.07h0a.09.09,0,0,0,.06-.07h0l1.44-4.82.77-2.59.06-.17h0V2.46h0a.09.09,0,0,0,0-.07,11.46,11.46,0,0,0-1.18-.7h0a6.85,6.85,0,0,0-3-.77A9,9,0,0,0,8.09,1.13Z" opacity="0.2" fill="url(#f6e8b98b-8d42-4add-bc65-1a66a6a76b19)" style="isolation: isolate"/>
  </g>
  <g>
    <path d="M2.33,10.52C7,8.6,9.22,9.62,11.24,11L8.91,19c-2-1.36-4.22-2.48-8.88-.55l2.27-7.9Z" fill="url(#eb61f3f9-2526-4670-aa2c-687462432ade)"/>
    <path d="M.2,18.67Z" fill="url(#ae0fa11f-721a-45e6-b277-0de1387a3558)"/>
    <path d="M8.83,19.07H8.9l-.14.08a.07.07,0,0,1-.09,0Z" fill="#152469"/>
    <path d="M.25,18.65h0L0,18.55H0Z" fill="url(#f90c7ec9-8b30-4743-9d7f-d2e3940470a8)"/>
    <path d="M8.91,19A.17.17,0,0,1,9,19a.08.08,0,0,1-.07.08H8.87A.12.12,0,0,0,8.91,19Z" fill="#152469"/>
    <path d="M0,18.55a.2.2,0,0,1,0-.11H0a.13.13,0,0,0,.06.12H0Z" fill="#172e65"/>
    <path d="M.24,18.65c4.43-1.74,6.42-.79,8.44.51a7.41,7.41,0,0,0-4.17-1.41,11.77,11.77,0,0,0-4.21.94Z" fill="url(#e9424412-79cf-4edb-b75a-341b8fde99d0)"/>
    <path d="M8.83,19.08c-2-1.36-4.12-2.4-8.72-.53a.14.14,0,0,1-.1-.12c4.68-2,6.85-.83,8.87.53A.17.17,0,0,1,8.83,19.08Z" fill="#094b8f"/>
    <path d="M8.83,19.08l-.16.08c-2-1.3-4.07-2.2-8.42-.51l-.15-.1C4.71,16.68,6.81,17.72,8.83,19.08Z" fill="#094b8f"/>
    <path d="M8.91,19l2.33-8h0L9,19A.17.17,0,0,0,8.91,19Z" fill="url(#e6fbbc1b-f5ab-45b8-a65f-73ff269844bd)"/>
    <path d="M11.25,10.93h0a.07.07,0,0,1,0,.09h-.06Z" fill="url(#f085be18-99ff-4b40-8c4f-2538f5565c48)"/>
    <polygon points="2.31 10.53 0.04 18.43 0.01 18.44 2.29 10.52 2.31 10.53" fill="#063367" opacity="0.66" style="isolation: isolate"/>
    <path d="M2.28,10.52l-.11.38L0,18.44a.2.2,0,0,0,0,.11l.15.12H.22l2.29-8h0l-.25-.21ZM0,18.43Zm.06.12Z" opacity="0.42" fill="url(#a29ab2c3-8f6a-4be2-877b-51068be5284e)" style="isolation: isolate"/>
    <path d="M11.28,11h0l-.19.19h0c-.31,1.07-2.07,7.08-2.34,8h.06L9,19.12H9A.07.07,0,0,0,9,19.05H9l2.25-7.72.08-.27V11Z" opacity="0.42" fill="url(#a8b85b4e-3a5f-4f45-b560-f6d6b2c862f5)" style="isolation: isolate"/>
    <path d="M11.23,11l-.19.2a7.56,7.56,0,0,0-4.6-1.42,13.51,13.51,0,0,0-3.89,1l-.25-.21v-.06C7,8.59,9.21,9.62,11.23,11h0Z" fill="url(#b83aced4-2a0a-45fa-8f29-e4f698e45529)"/>
    <path d="M2.52,10.71c4.67-1.93,6.75-.65,8.56.44h0C9.18,10,7.2,8.85,2.55,10.74Z" opacity="0.33" fill="url(#ef45f838-1c47-49cb-959c-e50cf6617194)" style="isolation: isolate"/>
    <path d="M2.32,10.46c4.67-1.92,6.82-.93,8.93.48V11C9,9.55,7,8.6,2.36,10.5Z" opacity="0.33" fill="url(#a2eed12a-cdb5-4bdd-acd6-b6e74e2a9ae6)" style="isolation: isolate"/>
    <path d="M2.3,10.53h0a.06.06,0,0,1,0,.06Z" fill="url(#bc1f31c3-9f80-4a61-bfc2-d43f5376a4f5)"/>
    <path d="M8.83,19.08c-2-1.36-4.11-2.4-8.72-.53a.14.14,0,0,1-.1-.12c4.68-2,6.86-.83,8.88.53a.16.16,0,0,1-.09.12Z" opacity="0.5" fill="url(#ba063551-aeb0-4b45-8d68-026eec770f73)" style="isolation: isolate"/>
  </g>
  <g>
    <path d="M12.45,11.76c2,1.36,4.09,2.36,8.83.73L19.07,20.2c-4.66,1.92-6.9.83-8.91-.53Z" fill="url(#b8846d85-5cfd-4d34-ae08-b5704fba8b0c)"/>
    <path d="M19.46,20.47s0,.06-.08.08h-.07a.21.21,0,0,0,.11-.15s.06,0,0,.09Z" fill="url(#f63290de-21c7-4c94-9fc1-acb4e6e48190)"/>
    <path d="M19.46,20.47v-.08l2.21-7.7a.06.06,0,0,1,0,.06Z" fill="url(#a0216a53-2ece-442c-90c7-02898094c070)"/>
    <path d="M21.67,12.75v-.14h0A.12.12,0,0,1,21.67,12.75Z" fill="url(#eb10b533-fe2e-460c-8012-420325841f98)"/>
    <path d="M21.45,12.57a.19.19,0,0,0-.18-.06.09.09,0,0,1,0-.07h.13A.14.14,0,0,1,21.45,12.57Z" fill="url(#b257fae0-7087-4867-b40b-a081cf0fea06)"/>
    <path d="M21.45,12.46l.19.15a.17.17,0,0,1,0,.1l-.19-.15A.17.17,0,0,0,21.45,12.46Z" fill="url(#bff1457b-5f7e-43c9-82e6-91b5570a327e)"/>
    <polygon points="21.45 12.55 21.64 12.7 19.43 20.4 19.43 20.42 19.23 20.25 21.45 12.55" fill="#b37e00" opacity="0.66" style="isolation: isolate"/>
    <path d="M21.28,12.52c-4.68,1.6-6.82.65-8.84-.71a.14.14,0,0,0,0-.09c2,1.36,4.25,2.29,8.89.72A.1.1,0,0,0,21.28,12.52Z" fill="url(#bee6f4f0-4db6-4639-ad5b-f6ffe3b9c6e9)"/>
    <polygon points="12.23 11.8 9.98 19.64 9.81 19.78 9.81 19.76 12.09 11.9 12.23 11.8" fill="#d9a200"/>
    <path d="M19,20.21l2.23-7.7h0a.17.17,0,0,1,.17,0L19.2,20.2A.21.21,0,0,0,19,20.21Z" opacity="0.66" fill="url(#b4b21264-11f8-4985-be25-1aa2b2fd2aa1)" style="isolation: isolate"/>
    <path d="M19.39,20.55c-4.57,1.95-7.5.75-9.52-.61h0c2,1.36,5.13,2.49,9.42.6A.12.12,0,0,0,19.39,20.55Z" fill="#a85d10"/>
    <path d="M19.24,20.23l.18.17a.18.18,0,0,1-.12.13l-.19-.16A.2.2,0,0,0,19.24,20.23Z" opacity="0.66" fill="url(#fc651de5-ef0c-4a77-80bd-2c7be6dbed19)" style="isolation: isolate"/>
    <path d="M19,20.19a.25.25,0,0,0,.09.2c-4.84,1.75-6.91.7-9.06-.59a.17.17,0,0,0,.07-.13h0C12.27,21,14.67,22,19,20.19Z" fill="url(#f4eaac1e-66b2-4df5-b406-d74aaf1cf836)"/>
    <path d="M9.89,19.93l.19-.13c1.85,1.15,4.44,2.41,9,.57l.19.15c-4.28,1.9-7.4.77-9.42-.59Z" fill="#c67c0c"/>
    <path d="M9.91,19.94h0a.19.19,0,0,1-.08-.19A.27.27,0,0,0,9.91,19.94Z" fill="#de980d"/>
    <path d="M9.81,19.76l.17-.14a.2.2,0,0,0,.12.17l-.19.15A.2.2,0,0,1,9.81,19.76Z" fill="url(#a20bb7a9-aa90-4c53-ae5f-aa98eb07fa73)"/>
    <path d="M10,19.62a.21.21,0,0,1,.19,0,.17.17,0,0,1-.07.14.19.19,0,0,1-.12-.18Z" fill="url(#e245bb4f-ec54-4076-afaa-4e20b449ff12)"/>
    <path d="M12.26,11.73v.07l-.16.11c0-.05.14-.14.18-.17Z" fill="#de980d"/>
    <path d="M12.44,11.81a.26.26,0,0,0-.21,0v-.06a.1.1,0,0,1,.13-.06.1.1,0,0,1,.06.13Z" fill="url(#ed2a6d0e-17d3-4dab-bfa9-838ce200a8bb)"/>
    <path d="M10.18,19.68a.3.3,0,0,0-.21-.05l2.26-7.83a.2.2,0,0,1,.21,0Z" fill="url(#aea5637b-013e-456f-96cb-0944e847c261)"/>
    <path d="M12.12,11.85c.69.6,3.69,3.05,9.52.76l-.19-.15h-.13c-4.64,1.57-6.87.64-8.89-.72h0a.1.1,0,0,0-.16,0h0C12.16,11.8,12.16,11.8,12.12,11.85Z" opacity="0.33" fill="url(#f6d29ff3-e4c6-4c89-a5eb-f6b0430e298d)" style="isolation: isolate"/>
    <path d="M21.64,12.61h0c-5.83,2.29-8.83-.16-9.52-.76v.05h0c.61.52,3.62,3.15,9.6.77a.11.11,0,0,0,0-.08Z" opacity="0.33" fill="url(#f7369cd9-48a1-48c1-ad43-0d2d45ef0beb)" style="isolation: isolate"/>
    <path d="M19.12,20.37a.2.2,0,0,1-.07-.18.18.18,0,0,1,.19,0A.2.2,0,0,1,19.12,20.37Z" fill="url(#fa622604-9eff-4d59-87d9-140151911251)"/>
  </g>
  <g>
    <path d="M11.62,9.55A7.55,7.55,0,0,0,7.24,8,12.12,12.12,0,0,0,2.71,9.06L5,1.1c4.66-1.92,6.9-.83,8.92.53Z" fill="url(#b4e3cef6-b4d6-44b2-b83b-1b7a174a95e1)"/>
    <path d="M11.62,9.55l2.3-7.92h0l-2.25,8A.08.08,0,0,0,11.62,9.55Z" fill="#bc1b00"/>
    <path d="M2.93,9.29A14,14,0,0,1,5,8.61l.45-.1.44-.08c.23,0,.44-.06.66-.08H8.34A4.78,4.78,0,0,1,9,8.57a8.52,8.52,0,0,1,2.41,1.16h-.05A7.88,7.88,0,0,0,8,8.39a10.38,10.38,0,0,0-5,.9H2.93Z" fill="#bc1b00"/>
    <path d="M11.54,9.66h.07l-.15.06h-.08Z" fill="#bc1b00"/>
    <path d="M2.93,9.29H2.88l-.14-.12h0Z" fill="#b81a00"/>
    <path d="M11.62,9.55l.05,0a.16.16,0,0,1-.06.08h-.07a.15.15,0,0,0,.08-.11Z" fill="#e82e00"/>
    <path d="M13.93,1.58h0a.09.09,0,0,1,0,.1h0Z" fill="#f83603"/>
    <path d="M2.71,9.17a.29.29,0,0,1,0-.13h0a.17.17,0,0,0,.06.14H2.71Z" fill="#e32e00"/>
    <path d="M5,1.1H5V1H5Z" fill="url(#abd942c0-652b-447e-8e26-5710f93daf11)"/>
    <path d="M11.55,9.67C9.37,8.16,6.71,7.21,2.76,9.18l.17.11c4.31-1.76,6.56-.81,8.46.44Z" fill="#e82e00"/>
    <path d="M11.54,9.66A7.51,7.51,0,0,0,7.29,8.13a11.24,11.24,0,0,0-4.52,1,.13.13,0,0,1-.06-.12A11.83,11.83,0,0,1,7.27,7.93a7.55,7.55,0,0,1,4.35,1.62A.13.13,0,0,1,11.54,9.66Z" fill="#e82e00"/>
    <path d="M5,1.1H5L2.71,9h0Z" fill="#e32e00"/>
    <path d="M13.92,1.63C11.9.27,9.64-.79,5,1.1A.14.14,0,0,1,5,1c4.67-1.89,6.9-.8,8.92.57Z" opacity="0.66" fill="url(#bca5c763-cbe4-41ad-aa8c-98fc08e83915)" style="isolation: isolate"/>
    <path d="M13.65,1.9C12,.83,9.83-.51,5.19,1.38V1.32C9.84-.6,12,.86,13.64,1.84Z" fill="#fe8411" opacity="0.33" style="isolation: isolate"/>
    <path d="M5.08,1.16H5l-2.32,8,.17.11h.05l2.27-8h0Z" opacity="0.36" fill="url(#f77ce65d-6352-4be1-85f9-14eaebfab3da)" style="isolation: isolate"/>
    <path d="M13.66,1.84Z" opacity="0.5" fill="url(#a893229c-43e1-4506-9881-669ae56ba322)" style="isolation: isolate"/>
    <path d="M13.72,1.66A7.76,7.76,0,0,0,9.81.19a12.46,12.46,0,0,0-4.73,1l.13.17h0c4.61-2,7.46-.19,8.43.5h0l.14-.12-.09-.06Z" opacity="0.5" fill="url(#a7293553-a6ee-480e-800b-50cbbac06739)" style="isolation: isolate"/>
    <path d="M5.08,1.16a12.43,12.43,0,0,1,4.73-1,7.76,7.76,0,0,1,3.91,1.47l.09.06L14,1.61h0C12,.24,9.78-.83,5.32.93L5,1H5Z" fill="#fff4c5" opacity="0.5" style="isolation: isolate"/>
    <path d="M13.93,1.58v0l-.11.09-.14.12h0c-.48,1.65-2,6.8-2.3,7.87h.08l.15-.06h0s.05,0,.06-.08h0L13.87,2h0l.06-.19h0V1.7a.07.07,0,0,0,0-.1Z" opacity="0.6" fill="url(#beb0dcf1-ee9a-4c49-8c37-243663dda4da)" style="isolation: isolate"/>
    <path d="M11.55,9.66A7.6,7.6,0,0,0,7.3,8.12,11.68,11.68,0,0,0,2.77,9.17.11.11,0,0,1,2.71,9V9A11.86,11.86,0,0,1,7.27,7.93a7.66,7.66,0,0,1,4.36,1.61A.16.16,0,0,1,11.55,9.66Z" opacity="0.5" fill="url(#b3b48b22-426a-4ed9-bd16-7626c44e9440)" style="isolation: isolate"/>
    <path d="M5,1.06H5l-.12.4L2.68,9a.29.29,0,0,0,0,.13h0L5,1.16h.06Z" fill="none"/>
    <path d="M13.93,1.58h0a.09.09,0,0,1,0,.1h0Z" fill="#f83603"/>
    <path d="M5,1.1H5V1H5Z" fill="url(#abd942c0-652b-447e-8e26-5710f93daf11)"/>
    <path d="M13.92,1.63C11.9.27,9.64-.79,5,1.11V1c4.67-1.89,6.9-.8,8.92.57Z" opacity="0.66" fill="url(#bca5c763-cbe4-41ad-aa8c-98fc08e83915)" style="isolation: isolate"/>
  </g>
  <g>
    <path d="M24,3c-4.65,1.93-6.89.84-8.9-.51l-2.3,8c2,1.36,4.45,2.48,8.91.49Z" fill="url(#b10bdd03-d657-4f35-96db-f949918be8cf)"/>
    <path d="M24,3c-4.65,1.92-6.88.84-8.89-.52a.11.11,0,0,0,0-.08c2,1.35,4.29,2.45,8.94.52A.22.22,0,0,0,24,3Z" fill="url(#a2c6d7f4-e9ab-438f-9eb2-f51c50b2e89b)"/>
    <polygon points="14.95 2.45 12.68 10.34 12.49 10.48 12.49 10.46 14.78 2.57 14.95 2.45" fill="#8cac42"/>
    <path d="M12.84,10.43c-.07,0-.12-.12-.19-.09l2.28-7.89a.26.26,0,0,1,.21,0Z" fill="url(#bd686b1c-e7eb-4ae4-a130-8bb314e93f44)"/>
    <path d="M15,2.4v.06l-.17.12c0-.06.14-.15.18-.18Z" fill="#5f821c"/>
    <path d="M15.13,2.47a.23.23,0,0,0-.2,0V2.41a.19.19,0,0,1,.18,0A.07.07,0,0,1,15.13,2.47Z" fill="url(#fe422937-3dd4-4908-8513-ee5c112fa6b3)"/>
    <polygon points="24.2 3.03 24.39 3.18 22.07 11.1 21.89 10.95 24.2 3.03" opacity="0.81" fill="url(#b42b4572-e29e-4cc0-8a83-a48e4bc7dc51)" style="isolation: isolate"/>
    <path d="M22.11,11.16v-.08l2.31-7.91h0Z" fill="#476e32"/>
    <path d="M22,11.24a11,11,0,0,1-3.52.95,8.23,8.23,0,0,1-4.65-.81,9.48,9.48,0,0,1-1.32-.74h0a12,12,0,0,0,1.29.75,9.21,9.21,0,0,0,4.65.81,12.14,12.14,0,0,0,3.44-1H22Z" fill="#1d3419"/>
    <path d="M21.78,11.09a.32.32,0,0,1-.07-.2.23.23,0,0,1,.2,0A.22.22,0,0,1,21.78,11.09Z" fill="url(#a00668e8-c3a8-457a-8b74-f44fc5dd3070)"/>
    <path d="M21.91,10.94l.16.14a.19.19,0,0,1-.12.14l-.17-.15A.21.21,0,0,0,21.91,10.94Z" fill="url(#bca70873-c494-4408-b6b2-2200c7fe5612)"/>
    <path d="M21.74,10.89a.24.24,0,0,0,.07.2c-4.65,1.92-7,.79-9.06-.57a.13.13,0,0,0,.06-.11A8.53,8.53,0,0,0,21.74,10.89Z" fill="url(#e05f4298-d4cd-4715-8515-2427c6f33301)"/>
    <path d="M12.58,10.63l.17-.11c2,1.3,4.39,2.42,9,.55l.17.14c-4.46,2-7.32.88-9.38-.58Z" fill="#26551b"/>
    <path d="M22.11,11.16a.13.13,0,0,1-.07.08H22a.19.19,0,0,0,.11-.15s.06,0,0,.1Z" fill="#5f821c"/>
    <path d="M12.58,10.63h0a.18.18,0,0,1-.07-.19A.22.22,0,0,0,12.58,10.63Z" fill="#26551b"/>
    <path d="M12.49,10.46l.17-.13a.2.2,0,0,0,.1.18l-.17.13A.2.2,0,0,1,12.49,10.46Z" fill="url(#bcf9a264-2b48-4618-a7e6-b9aa172bc2ac)"/>
    <path d="M12.66,10.33a.22.22,0,0,1,.17.1c.07.1,0,.06-.07.09A.17.17,0,0,1,12.66,10.33Z" fill="url(#b75d38ef-0ccb-4597-8414-140634a778ce)"/>
    <path d="M24.4,3.09a.11.11,0,0,1,0,.08L24.2,3a.17.17,0,0,0,0-.1A.7.7,0,0,1,24.4,3.09Z" opacity="0.72" fill="url(#bfce89f1-5ef4-40d5-8323-034ced0e8926)" style="isolation: isolate"/>
    <path d="M24.39,3.09A.57.57,0,0,0,24.26,3a.18.18,0,0,0-.2,0h0c-4.64,1.92-6.92.82-8.93-.53h0a.19.19,0,0,0-.18,0l-.15.13c.78.65,4.07,3.23,9.59.56Zm-9.26-.62Z" opacity="0.33" fill="url(#a5c78550-6fc2-4e82-9024-57d9497f7b04)" style="isolation: isolate"/>
    <path d="M21.72,10.91,24,3a.19.19,0,0,1,.18,0l-2.28,7.93A.21.21,0,0,0,21.72,10.91Z" opacity="0.72" fill="url(#e66699fe-e2a7-4e4e-8b81-b287dcd53a1c)" style="isolation: isolate"/>
    <path d="M24,3V2.94a.18.18,0,0,1,.2,0c.08.07.2.15.16.26h0L24.2,3A.21.21,0,0,0,24,3Z" opacity="0.6" fill="url(#b4ccaf38-32b2-43f5-a80c-89b5fb873f94)" style="isolation: isolate"/>
    <path d="M14.8,2.53h0c.7.59,4,3.32,9.67.57a.11.11,0,0,0,0-.08c-5.52,2.67-8.81.09-9.59-.56Z" opacity="0.3" fill="url(#e722679e-f22e-48dd-b15c-5df4210b8750)" style="isolation: isolate"/>
    <path d="M24.4,3.1a.08.08,0,0,1,0,.07L24.2,3a.17.17,0,0,0,0-.1A.61.61,0,0,1,24.4,3.1Z" opacity="0.72" fill="url(#bfce89f1-5ef4-40d5-8323-034ced0e8926)" style="isolation: isolate"/>
    <path d="M24,3V2.94a.18.18,0,0,1,.2,0c.08.07.2.15.16.27a.06.06,0,0,0,0-.06L24.2,3A.21.21,0,0,0,24,3Z" opacity="0.6" fill="url(#fa939a77-be7b-43c8-afb4-6c8b5f3a2c89)" style="isolation: isolate"/>
  </g>
  <text transform="translate(27.78 19.03)" font-size="12" font-family="SegoeUI-Bold, Segoe UI" font-weight="700">Windows Se<tspan x="68.87" y="0" letter-spacing="0.04em">r</tspan><tspan x="74.13" y="0" letter-spacing="-0.01em">v</tspan><tspan x="80.51" y="0">er 2012</tspan></text>
</svg>
