<svg id="b8014d7f-eb08-4a31-98eb-beaa23d3066c" data-name="Layer 1" xmlns="http://www.w3.org/2000/svg" xmlns:xlink="http://www.w3.org/1999/xlink" width="25" height="22.16" viewBox="0 0 25 22.16">
  <defs>
    <radialGradient id="e11498d1-1849-48af-a56b-d5307722e2c2" cx="-531.15" cy="868.61" r="2.3" gradientTransform="translate(2579.46 -4212.02) scale(4.83 4.86)" gradientUnits="userSpaceOnUse">
      <stop offset="0.25" stop-color="#fff"/>
      <stop offset="1"/>
    </radialGradient>
    <radialGradient id="ef38357d-1292-49a1-abbd-1b6de14492ed" cx="-531.15" cy="868.61" r="2.3" xlink:href="#e11498d1-1849-48af-a56b-d5307722e2c2"/>
    <radialGradient id="bcdcd3d9-ccaa-40c0-85f6-1421d7334fb7" cx="-531.15" cy="868.61" r="2.3" xlink:href="#e11498d1-1849-48af-a56b-d5307722e2c2"/>
    <radialGradient id="b9592425-ee2b-49f7-b3e1-8f4e7a7967df" cx="-531.15" cy="868.61" r="2.3" xlink:href="#e11498d1-1849-48af-a56b-d5307722e2c2"/>
    <radialGradient id="b2854541-4a7f-4019-9441-eede9f44262c" cx="-557.76" cy="848.67" r="2.47" gradientTransform="translate(2781.38 -4203.23) scale(4.97)" gradientUnits="userSpaceOnUse">
      <stop offset="0" stop-color="#d1e7ee"/>
      <stop offset="0.1" stop-color="#cde4ec"/>
      <stop offset="0.2" stop-color="#c0dce8"/>
      <stop offset="0.3" stop-color="#add0e1"/>
      <stop offset="0.65" stop-color="#3982b1"/>
      <stop offset="0.72" stop-color="#3474aa"/>
      <stop offset="0.9" stop-color="#285699"/>
      <stop offset="1" stop-color="#244b93"/>
    </radialGradient>
    <radialGradient id="b4abfa7a-5f57-4cbe-bf6f-2d2b87430c56" cx="-557.76" cy="848.65" r="2.48" gradientTransform="translate(2781.38 -4203.23) scale(4.97)" gradientUnits="userSpaceOnUse">
      <stop offset="0" stop-color="#d8eeed"/>
      <stop offset="0.17" stop-color="#98d8d7"/>
      <stop offset="0.22" stop-color="#8ed3d3"/>
      <stop offset="0.31" stop-color="#74c6ca"/>
      <stop offset="0.42" stop-color="#49b1ba"/>
      <stop offset="0.45" stop-color="#3caab5"/>
      <stop offset="0.56" stop-color="#2e81a4"/>
      <stop offset="0.68" stop-color="#215b94"/>
      <stop offset="0.78" stop-color="#19448b"/>
      <stop offset="0.84" stop-color="#163b87"/>
      <stop offset="1" stop-color="#0b317d"/>
    </radialGradient>
    <radialGradient id="a06409c3-8ea6-41f8-84a1-7b1be809919a" cx="-557.76" cy="848.67" r="2.48" gradientTransform="translate(2781.38 -4203.23) scale(4.97)" gradientUnits="userSpaceOnUse">
      <stop offset="0" stop-color="#d8eeed"/>
      <stop offset="0.17" stop-color="#98d8d7"/>
      <stop offset="0.22" stop-color="#8ed3d3"/>
      <stop offset="0.31" stop-color="#74c6ca"/>
      <stop offset="0.42" stop-color="#49b1ba"/>
      <stop offset="0.45" stop-color="#3caab5"/>
      <stop offset="0.56" stop-color="#2e81a4"/>
      <stop offset="0.68" stop-color="#215b94"/>
      <stop offset="0.78" stop-color="#19448b"/>
      <stop offset="0.84" stop-color="#163b87"/>
      <stop offset="1" stop-color="#152469"/>
    </radialGradient>
    <radialGradient id="b5732110-ab04-4cbe-865d-2acf38a8b20a" cx="-557.76" cy="848.66" r="2.48" xlink:href="#b4abfa7a-5f57-4cbe-bf6f-2d2b87430c56"/>
    <linearGradient id="a5525789-6d84-4743-8058-4dabf75acfbd" x1="-557.9" y1="848.75" x2="-558.28" y2="850.11" gradientTransform="translate(2781.38 -4203.23) scale(4.97)" gradientUnits="userSpaceOnUse">
      <stop offset="0" stop-color="#98d8d7"/>
      <stop offset="1" stop-color="#152469"/>
    </linearGradient>
    <radialGradient id="a64e7eeb-e57e-4940-ad29-e56f2648ca37" cx="-557.76" cy="848.66" r="2.49" xlink:href="#a06409c3-8ea6-41f8-84a1-7b1be809919a"/>
    <linearGradient id="baa012ab-d5b9-4266-8aa7-dc0e8bdb9393" x1="-560.14" y1="849.43" x2="-559.63" y2="849.43" gradientTransform="translate(2781.38 -4203.23) scale(4.97)" gradientUnits="userSpaceOnUse">
      <stop offset="0" stop-color="#def3f1"/>
      <stop offset="1" stop-color="#5085bc"/>
    </linearGradient>
    <linearGradient id="e092dc18-b83c-4fd9-9d47-d71d03ea5888" x1="-558.39" y1="849.53" x2="-557.87" y2="849.53" xlink:href="#baa012ab-d5b9-4266-8aa7-dc0e8bdb9393"/>
    <linearGradient id="e8a5e105-f275-4fbf-941a-0762824066b0" x1="-559.68" y1="848.56" x2="-557.88" y2="848.56" gradientTransform="translate(2781.38 -4203.23) scale(4.97)" gradientUnits="userSpaceOnUse">
      <stop offset="0" stop-color="#094992"/>
      <stop offset="0.67" stop-color="#8bcde2"/>
      <stop offset="1" stop-color="#e6f6f9"/>
    </linearGradient>
    <linearGradient id="bb6d5b12-3646-4b88-be9c-dcc96a74dfe8" x1="-559.64" y1="848.59" x2="-557.92" y2="848.59" gradientTransform="translate(2781.38 -4203.23) scale(4.97)" gradientUnits="userSpaceOnUse">
      <stop offset="0.01" stop-color="#bbc7e1"/>
      <stop offset="0.22" stop-color="#7090c3"/>
      <stop offset="0.54" stop-color="#c8eaef"/>
      <stop offset="1" stop-color="#fff"/>
    </linearGradient>
    <linearGradient id="b2984066-dee3-4d18-a238-f9f43535e04f" x1="-559.68" y1="848.54" x2="-557.88" y2="848.54" gradientTransform="translate(2781.38 -4203.23) scale(4.97)" gradientUnits="userSpaceOnUse">
      <stop offset="0.01" stop-color="#7090c3"/>
      <stop offset="0.54" stop-color="#c1e7ed"/>
      <stop offset="1" stop-color="#fff"/>
    </linearGradient>
    <radialGradient id="aca6fdd9-b922-4ef7-87bc-59a3362e3f6d" cx="-559.68" cy="848.6" r="0.01" gradientTransform="translate(2781.38 -4203.23) scale(4.97)" gradientUnits="userSpaceOnUse">
      <stop offset="0" stop-color="#7e9ec4"/>
      <stop offset="1" stop-color="#0a50a1"/>
    </radialGradient>
    <radialGradient id="b25b4561-194e-4cbd-b083-9db6d5dea9ba" cx="-560.87" cy="850.14" r="3.04" gradientTransform="translate(2781.38 -4203.23) scale(4.97)" gradientUnits="userSpaceOnUse">
      <stop offset="0" stop-color="#d8eeed"/>
      <stop offset="0.17" stop-color="#98d8d7"/>
      <stop offset="0.22" stop-color="#8ed3d3"/>
      <stop offset="0.31" stop-color="#74c6ca"/>
      <stop offset="0.42" stop-color="#49b1ba"/>
      <stop offset="0.45" stop-color="#3caab5"/>
      <stop offset="0.5" stop-color="#369fb5"/>
      <stop offset="0.63" stop-color="#2a88b4"/>
      <stop offset="0.71" stop-color="#257fb4"/>
      <stop offset="1" stop-color="#4161ab"/>
    </radialGradient>
    <radialGradient id="be10decb-435e-4197-a827-7271d7ab7f3b" cx="-557.76" cy="848.73" r="2.3" gradientTransform="translate(2781.38 -4203.23) scale(4.97)" gradientUnits="userSpaceOnUse">
      <stop offset="0" stop-color="#fcf5b0"/>
      <stop offset="0.17" stop-color="#f7eda0"/>
      <stop offset="0.28" stop-color="#f3e591"/>
      <stop offset="0.65" stop-color="#fcd118"/>
      <stop offset="0.8" stop-color="#f7a50c"/>
      <stop offset="0.93" stop-color="#f38603"/>
      <stop offset="1" stop-color="#f27b00"/>
    </radialGradient>
    <linearGradient id="ff861677-8ce8-4d07-be32-4c604cafb976" x1="-556.24" y1="850.59" x2="-556.25" y2="850.63" gradientTransform="translate(2781.38 -4203.23) scale(4.97)" gradientUnits="userSpaceOnUse">
      <stop offset="0" stop-color="#de980d"/>
      <stop offset="1" stop-color="#a85d10"/>
    </linearGradient>
    <linearGradient id="a03136e7-ee98-442d-a79b-1526ecb2c7d7" x1="-556.24" y1="849.83" x2="-555.78" y2="849.83" gradientTransform="translate(2781.38 -4203.23) scale(4.97)" gradientUnits="userSpaceOnUse">
      <stop offset="0" stop-color="#deb150"/>
      <stop offset="1" stop-color="#fff8b3"/>
    </linearGradient>
    <linearGradient id="af2ecc5d-b12f-4dc4-ba29-c7bd3c52ae23" x1="-555.79" y1="849.03" x2="-555.79" y2="849.06" gradientTransform="translate(2781.38 -4203.23) scale(4.97)" gradientUnits="userSpaceOnUse">
      <stop offset="0.01" stop-color="#c67c0c"/>
      <stop offset="1" stop-color="#de980d"/>
    </linearGradient>
    <linearGradient id="bd159cfa-a843-426e-8162-d0421f0e00be" x1="-555.85" y1="848.99" x2="-555.83" y2="849.02" gradientTransform="translate(2781.38 -4203.23) scale(4.97)" gradientUnits="userSpaceOnUse">
      <stop offset="0.01" stop-color="#fed40f"/>
      <stop offset="1" stop-color="#a85d10"/>
    </linearGradient>
    <linearGradient id="b03eb70f-c59b-424b-9ac6-4bb55bc9793c" x1="-555.8" y1="849.02" x2="-555.81" y2="849.03" xlink:href="#bd159cfa-a843-426e-8162-d0421f0e00be"/>
    <linearGradient id="e9970b1f-c617-4d06-9997-b9f49244a6af" x1="-557.64" y1="849.02" x2="-555.85" y2="849.02" gradientTransform="translate(2781.38 -4203.23) scale(4.97)" gradientUnits="userSpaceOnUse">
      <stop offset="0" stop-color="#fff8fb"/>
      <stop offset="1" stop-color="#fec236"/>
    </linearGradient>
    <linearGradient id="bfa7982b-8b11-47f4-8d8a-e248e309990d" x1="-556.05" y1="849.79" x2="-556.09" y2="849.78" gradientTransform="translate(2781.38 -4203.23) scale(4.97)" gradientUnits="userSpaceOnUse">
      <stop offset="0" stop-color="#b37e00"/>
      <stop offset="1" stop-color="#ff9e00"/>
    </linearGradient>
    <linearGradient id="a1a98e18-3302-44ee-a515-c7320adcf5bd" x1="-556.26" y1="850.57" x2="-556.28" y2="850.62" gradientTransform="translate(2781.38 -4203.23) scale(4.97)" gradientUnits="userSpaceOnUse">
      <stop offset="0.01" stop-color="#ffd100"/>
      <stop offset="1" stop-color="#a8710a"/>
    </linearGradient>
    <linearGradient id="a9343f91-6b7f-4eec-98fa-238ecf0d40d4" x1="-558.12" y1="850.62" x2="-556.29" y2="850.62" gradientTransform="translate(2781.38 -4203.23) scale(4.97)" gradientUnits="userSpaceOnUse">
      <stop offset="0" stop-color="#de980d"/>
      <stop offset="0.4" stop-color="#fdda10"/>
      <stop offset="1" stop-color="#de980d"/>
    </linearGradient>
    <linearGradient id="b4040149-0a62-43cf-81ec-98189cd5892a" x1="-558.13" y1="850.49" x2="-558.16" y2="850.46" gradientTransform="translate(2781.38 -4203.23) scale(4.97)" gradientUnits="userSpaceOnUse">
      <stop offset="0" stop-color="#de980d"/>
      <stop offset="0.1" stop-color="#de980d"/>
      <stop offset="0.7" stop-color="#fdda10"/>
      <stop offset="1" stop-color="#de980d"/>
    </linearGradient>
    <linearGradient id="fd225675-4f18-4bde-b234-b67e0457e504" x1="-558.13" y1="850.44" x2="-558.11" y2="850.47" gradientTransform="translate(2781.38 -4203.23) scale(4.97)" gradientUnits="userSpaceOnUse">
      <stop offset="0" stop-color="#de980d"/>
      <stop offset="0.4" stop-color="#febf0f"/>
      <stop offset="0.8" stop-color="#fed40f"/>
      <stop offset="1" stop-color="#de980d"/>
    </linearGradient>
    <radialGradient id="baad718c-0111-4343-865a-b11bd96fd7d1" cx="-557.67" cy="848.85" r="0.02" gradientTransform="translate(2781.38 -4203.23) scale(4.97)" gradientUnits="userSpaceOnUse">
      <stop offset="0" stop-color="#feeb71"/>
      <stop offset="1" stop-color="#de980d"/>
    </radialGradient>
    <linearGradient id="b342b2c1-96f1-400c-a4b0-1584ade4a46e" x1="-557.87" y1="849.66" x2="-557.91" y2="849.65" gradientTransform="translate(2781.38 -4203.23) scale(4.97)" gradientUnits="userSpaceOnUse">
      <stop offset="0.01" stop-color="#ffefbb"/>
      <stop offset="1" stop-color="#ffbf00"/>
    </linearGradient>
    <linearGradient id="af9e83be-58c7-4ebd-ac6f-8e3711619b82" x1="-557.73" y1="849.03" x2="-555.79" y2="849.03" gradientTransform="translate(2781.38 -4203.23) scale(4.97)" gradientUnits="userSpaceOnUse">
      <stop offset="0.01" stop-color="#fca859"/>
      <stop offset="0.21" stop-color="#fdc30f"/>
      <stop offset="1" stop-color="#b51c00"/>
    </linearGradient>
    <linearGradient id="e4b7c74c-06b1-429b-baaf-37bc3e5b52a9" x1="-557.71" y1="849.06" x2="-555.78" y2="849.06" gradientTransform="translate(2781.38 -4203.23) scale(4.97)" gradientUnits="userSpaceOnUse">
      <stop offset="0.01" stop-color="#fff6d8"/>
      <stop offset="0.52" stop-color="#fdda10"/>
      <stop offset="1" stop-color="#f9bd0c"/>
    </linearGradient>
    <linearGradient id="f1f9c4e1-5632-4601-b68d-48dc2a102fa8" x1="-556.29" y1="850.57" x2="-556.32" y2="850.55" gradientTransform="translate(2781.38 -4203.23) scale(4.97)" gradientUnits="userSpaceOnUse">
      <stop offset="0" stop-color="#eab949"/>
      <stop offset="0.07" stop-color="#edc25a"/>
      <stop offset="0.28" stop-color="#f3d883"/>
      <stop offset="0.48" stop-color="#f8e9a4"/>
      <stop offset="0.67" stop-color="#fcf5bc"/>
      <stop offset="0.85" stop-color="#fefcca"/>
      <stop offset="1" stop-color="#ffffcf"/>
    </linearGradient>
    <radialGradient id="a5dafc23-2935-4afb-863a-06b2ffcd37ac" cx="-557.83" cy="848.41" r="2.18" gradientTransform="translate(2781.38 -4203.23) scale(4.97)" gradientUnits="userSpaceOnUse">
      <stop offset="0" stop-color="#efd916"/>
      <stop offset="0.11" stop-color="#efd516"/>
      <stop offset="0.22" stop-color="#edc715"/>
      <stop offset="0.33" stop-color="#ebb213"/>
      <stop offset="0.45" stop-color="#e89312"/>
      <stop offset="0.57" stop-color="#e36d0f"/>
      <stop offset="0.65" stop-color="#e04d0d"/>
      <stop offset="0.79" stop-color="#ce2907"/>
      <stop offset="0.92" stop-color="#bf0b02"/>
      <stop offset="1" stop-color="#b90000"/>
    </radialGradient>
    <linearGradient id="e3931ace-237e-4aa1-991c-69f3ffc5bc71" x1="-559.14" y1="846.71" x2="-559.13" y2="846.71" gradientTransform="translate(2781.38 -4203.23) scale(4.97)" gradientUnits="userSpaceOnUse">
      <stop offset="0" stop-color="#fd7e36"/>
      <stop offset="1" stop-color="#bd6f4f"/>
    </linearGradient>
    <linearGradient id="b83c1018-7efa-4934-a1f7-a542ebc30b5b" x1="-559.14" y1="846.66" x2="-557.34" y2="846.66" gradientTransform="translate(2781.38 -4203.23) scale(4.97)" gradientUnits="userSpaceOnUse">
      <stop offset="0" stop-color="#fc2b21"/>
      <stop offset="0.24" stop-color="#ff590a"/>
      <stop offset="0.25" stop-color="#fb570b"/>
      <stop offset="0.33" stop-color="#e74c0e"/>
      <stop offset="0.42" stop-color="#d84511"/>
      <stop offset="0.52" stop-color="#d04013"/>
      <stop offset="0.7" stop-color="#cd3f13"/>
      <stop offset="0.8" stop-color="#d04213"/>
      <stop offset="0.87" stop-color="#d84b14"/>
      <stop offset="0.93" stop-color="#e65b16"/>
      <stop offset="0.99" stop-color="#f97219"/>
      <stop offset="1" stop-color="#fc7519"/>
    </linearGradient>
    <linearGradient id="fc807a14-1778-417f-9207-96faa4be3102" x1="-559.6" y1="847.54" x2="-559.1" y2="847.54" xlink:href="#e3931ace-237e-4aa1-991c-69f3ffc5bc71"/>
    <linearGradient id="b6974431-3f1b-46c2-a234-1e708946f6f5" x1="-557.24" y1="846.9" x2="-559.03" y2="846.5" gradientTransform="translate(2781.38 -4203.23) scale(4.97)" gradientUnits="userSpaceOnUse">
      <stop offset="0" stop-color="#fe560d"/>
      <stop offset="1" stop-color="#8c1501"/>
    </linearGradient>
    <linearGradient id="b55172d7-6cf3-4cd3-817f-9ced5a0ebf8e" x1="-558.24" y1="846.87" x2="-558.26" y2="846.32" xlink:href="#b6974431-3f1b-46c2-a234-1e708946f6f5"/>
    <linearGradient id="baa785f2-c3c5-4a20-854f-b77876882f23" x1="-557.86" y1="847.63" x2="-557.33" y2="847.63" gradientTransform="translate(2781.38 -4203.23) scale(4.97)" gradientUnits="userSpaceOnUse">
      <stop offset="0" stop-color="#fd7e36"/>
      <stop offset="1" stop-color="#fc895b"/>
    </linearGradient>
    <linearGradient id="ace72d24-f224-4915-85a0-98c64bac3168" x1="-559.6" y1="848.26" x2="-557.8" y2="848.26" gradientTransform="translate(2781.38 -4203.23) scale(4.97)" gradientUnits="userSpaceOnUse">
      <stop offset="0" stop-color="#fd9b20"/>
      <stop offset="0.25" stop-color="#fd9b20"/>
      <stop offset="0.34" stop-color="#fdb830"/>
      <stop offset="0.43" stop-color="#fed23e"/>
      <stop offset="0.49" stop-color="#fedb43"/>
      <stop offset="0.75" stop-color="#fe8411"/>
      <stop offset="1" stop-color="#fe560d"/>
    </linearGradient>
    <linearGradient id="a29c4f60-ea69-4165-9082-532390c4bdf9" x1="-559.14" y1="846.71" x2="-559.13" y2="846.71" xlink:href="#e3931ace-237e-4aa1-991c-69f3ffc5bc71"/>
    <radialGradient id="b37a44f4-b74b-4952-adcf-058de3330cca" cx="-557.77" cy="848.65" r="2.49" gradientTransform="translate(2781.38 -4203.23) scale(4.97)" gradientUnits="userSpaceOnUse">
      <stop offset="0.01" stop-color="#d1e787"/>
      <stop offset="0.12" stop-color="#cee583"/>
      <stop offset="0.25" stop-color="#c4de76"/>
      <stop offset="0.38" stop-color="#b3d361"/>
      <stop offset="0.51" stop-color="#9cc443"/>
      <stop offset="0.64" stop-color="#7fb01d"/>
      <stop offset="0.65" stop-color="#7bae19"/>
      <stop offset="0.78" stop-color="#578d19"/>
      <stop offset="0.92" stop-color="#366e1a"/>
      <stop offset="1" stop-color="#29621a"/>
    </radialGradient>
    <linearGradient id="b2c5099a-85e3-4703-9de8-a04a6b759100" x1="-557.1" y1="847.14" x2="-555.3" y2="847.14" gradientTransform="translate(2781.38 -4203.23) scale(4.97)" gradientUnits="userSpaceOnUse">
      <stop offset="0" stop-color="#d3ed89"/>
      <stop offset="1" stop-color="#5f821c"/>
    </linearGradient>
    <linearGradient id="e4601ef2-4b17-4a7c-8471-21ce4410c4ba" x1="-557.33" y1="847.79" x2="-557.37" y2="847.78" gradientTransform="translate(2781.38 -4203.23) scale(4.97)" gradientUnits="userSpaceOnUse">
      <stop offset="0.28" stop-color="#d3ed89"/>
      <stop offset="0.4" stop-color="#d3ed89"/>
      <stop offset="1" stop-color="#5f821c"/>
    </linearGradient>
    <linearGradient id="a5bd9b2a-8482-4e98-8efe-943d40def0e7" x1="-557.1" y1="846.98" x2="-557.14" y2="846.97" gradientTransform="translate(2781.38 -4203.23) scale(4.97)" gradientUnits="userSpaceOnUse">
      <stop offset="0" stop-color="#7aa922"/>
      <stop offset="0.2" stop-color="#d3ed89"/>
      <stop offset="0.52" stop-color="#d3ed89"/>
      <stop offset="1" stop-color="#7aa922"/>
    </linearGradient>
    <linearGradient id="be5baab2-c2e8-4061-8d1e-a0cd70751301" x1="-555.74" y1="847.91" x2="-555.24" y2="847.91" gradientTransform="translate(2781.38 -4203.23) scale(4.97)" gradientUnits="userSpaceOnUse">
      <stop offset="0.01" stop-color="#7aa922"/>
      <stop offset="0.17" stop-color="#1d4a20"/>
      <stop offset="0.38" stop-color="#26551b"/>
      <stop offset="1" stop-color="#7aa922"/>
    </linearGradient>
    <linearGradient id="a979cfdc-4588-4fdc-967f-e5c45d4c35ce" x1="-555.73" y1="848.7" x2="-555.78" y2="848.7" gradientTransform="translate(2781.38 -4203.23) scale(4.97)" gradientUnits="userSpaceOnUse">
      <stop offset="0" stop-color="#7aa922"/>
      <stop offset="1" stop-color="#d3ed89"/>
    </linearGradient>
    <linearGradient id="bfc1c0d3-c3a7-4b88-8453-615d95471cc8" x1="-555.72" y1="848.71" x2="-555.74" y2="848.74" gradientTransform="translate(2781.38 -4203.23) scale(4.97)" gradientUnits="userSpaceOnUse">
      <stop offset="0" stop-color="#5f821c"/>
      <stop offset="1" stop-color="#26551b"/>
    </linearGradient>
    <linearGradient id="abeb5ac8-f67f-495e-a466-cdb98a52f247" x1="-557.58" y1="848.76" x2="-555.75" y2="848.76" gradientTransform="translate(2781.38 -4203.23) scale(4.97)" gradientUnits="userSpaceOnUse">
      <stop offset="0" stop-color="#7aa922"/>
      <stop offset="0.4" stop-color="#d3ed89"/>
      <stop offset="1" stop-color="#7aa922"/>
    </linearGradient>
    <linearGradient id="b61fad61-6790-4cc7-9755-636df397414b" x1="-557.59" y1="848.62" x2="-557.62" y2="848.59" gradientTransform="translate(2781.38 -4203.23) scale(4.97)" gradientUnits="userSpaceOnUse">
      <stop offset="0" stop-color="#1d3a19"/>
      <stop offset="0.1" stop-color="#26551b"/>
      <stop offset="0.65" stop-color="#7aa922"/>
      <stop offset="1" stop-color="#d3ed89"/>
    </linearGradient>
    <linearGradient id="e76d0ec5-7869-4a7d-abfa-2b8a603c23f4" x1="-557.59" y1="848.57" x2="-557.57" y2="848.6" gradientTransform="translate(2781.38 -4203.23) scale(4.97)" gradientUnits="userSpaceOnUse">
      <stop offset="0" stop-color="#5f821c"/>
      <stop offset="0.4" stop-color="#7aa922"/>
      <stop offset="0.8" stop-color="#5f821c"/>
      <stop offset="1" stop-color="#5f821c"/>
    </linearGradient>
    <linearGradient id="ec0c7e5e-8a9d-4f0f-8256-194235613ee0" x1="-555.26" y1="847.11" x2="-555.25" y2="847.09" gradientTransform="translate(2781.38 -4203.23) scale(4.97)" gradientUnits="userSpaceOnUse">
      <stop offset="0" stop-color="#5b7f30"/>
      <stop offset="1" stop-color="#d3ed89"/>
    </linearGradient>
    <linearGradient id="b3594fb7-66d7-43f0-9205-51da349202f6" x1="-555.29" y1="847.37" x2="-557.13" y2="846.84" gradientTransform="translate(2781.38 -4203.23) scale(4.97)" gradientUnits="userSpaceOnUse">
      <stop offset="0" stop-color="#1d3419"/>
      <stop offset="0.23" stop-color="#26551b"/>
      <stop offset="1" stop-color="#7aa922"/>
    </linearGradient>
    <linearGradient id="a0bae348-08c5-412d-bf02-b4b06710fbf5" x1="-555.5" y1="847.9" x2="-555.54" y2="847.89" gradientTransform="translate(2781.38 -4203.23) scale(4.97)" gradientUnits="userSpaceOnUse">
      <stop offset="0" stop-color="#5f821c"/>
      <stop offset="1" stop-color="#75c146"/>
    </linearGradient>
    <linearGradient id="b48aef51-c172-46df-afc0-e67077255fda" x1="-555.31" y1="847.11" x2="-555.23" y2="847.11" xlink:href="#b2c5099a-85e3-4703-9de8-a04a6b759100"/>
    <linearGradient id="beb833c6-a24e-4764-8617-8dc7186ab0fd" x1="-555.3" y1="847.39" x2="-557.13" y2="846.87" gradientTransform="translate(2781.38 -4203.23) scale(4.97)" gradientUnits="userSpaceOnUse">
      <stop offset="0" stop-color="#93bf81"/>
      <stop offset="0.23" stop-color="#26551b"/>
      <stop offset="1" stop-color="#bde256"/>
    </linearGradient>
    <linearGradient id="a1da57eb-c2dc-46c6-945d-278d3072807e" x1="-555.26" y1="847.11" x2="-555.25" y2="847.09" xlink:href="#ec0c7e5e-8a9d-4f0f-8256-194235613ee0"/>
    <linearGradient id="a6b5a1fa-a6a0-454d-acd7-80c55e2d1a69" x1="-555.31" y1="847.11" x2="-555.23" y2="847.11" xlink:href="#b2c5099a-85e3-4703-9de8-a04a6b759100"/>
  </defs>
  <g>
    <path d="M7.22,10.28A9.54,9.54,0,0,0,6,10.4a14.85,14.85,0,0,0-1.45.33c-.52.16-1.07.35-1.64.58h0l0,0L.54,19.06a.14.14,0,0,0,0,.11l.16.11h0s.08,0,.09,0h0a16.45,16.45,0,0,1,2.33-.7,8.88,8.88,0,0,1,1.9-.22,7.26,7.26,0,0,1,1.42.16,6.39,6.39,0,0,1,1.24.4,11,11,0,0,1,1.52.82h0a.07.07,0,0,0,.08,0l.13-.07h0a.11.11,0,0,0,.06-.07h0s2.27-7.51,2.27-7.51l.07-.26v0a.1.1,0,0,0,0-.07h0a8.19,8.19,0,0,0-3.49-1.43,6.9,6.9,0,0,0-1.12-.05Z" opacity="0.2" fill="url(#e11498d1-1849-48af-a56b-d5307722e2c2)" style="isolation: isolate"/>
    <path d="M12.87,12.56h0l-.09,0h0l-.07,0-.11.11h0L10.32,20.4c0,.11.07.17.08.18a10.1,10.1,0,0,0,1.7.91,7.94,7.94,0,0,0,1,.35,8.56,8.56,0,0,0,1.12.23,8.28,8.28,0,0,0,1.23.09,9.12,9.12,0,0,0,1.36-.11,10.47,10.47,0,0,0,1.49-.32,13.91,13.91,0,0,0,1.64-.57h0a.22.22,0,0,0,.07-.07l2.22-7.51h0s0,0,0,0a.15.15,0,0,0,0-.1L22,13.3h0s-.05,0-.13,0c-.57.19-1.12.35-1.64.47s-1,.2-1.43.26a9.46,9.46,0,0,1-2.38,0,7.42,7.42,0,0,1-1.89-.54A10.06,10.06,0,0,1,13,12.58h0a.16.16,0,0,0-.09,0Z" opacity="0.2" fill="url(#ef38357d-1292-49a1-abbd-1b6de14492ed)" style="isolation: isolate"/>
    <path d="M15.48,3.26l0,0a.35.35,0,0,0-.14.13h0v0L13,11.1a.07.07,0,0,0,0,.05.13.13,0,0,0,.08.12h0l.55.34a8.49,8.49,0,0,0,2.65,1.07,7.31,7.31,0,0,0,1.62.18,9.26,9.26,0,0,0,1.86-.17,11.83,11.83,0,0,0,2.83-.84h0a.25.25,0,0,0,.08-.07L25,4.05s0,0,0,0-.06-.12-.11-.17l-.11-.07a.2.2,0,0,0-.15,0h0A17,17,0,0,1,23,4.33a12.16,12.16,0,0,1-1.44.32,8.2,8.2,0,0,1-1.28.11,5.92,5.92,0,0,1-1.12-.07,7,7,0,0,1-1.9-.55,12.52,12.52,0,0,1-1.6-.9.14.14,0,0,0-.17,0Z" opacity="0.2" fill="url(#bcdcd3d9-ccaa-40c0-85f6-1421d7334fb7)" style="isolation: isolate"/>
    <path d="M8.08,1.12a14.56,14.56,0,0,0-2.56.8h0s0,0,0,0l-.12.4L3.17,9.69v0s0,.08,0,.09h0l.13.1h.07l.07,0a10.49,10.49,0,0,1,5-.88,7,7,0,0,1,1.8.48,11.46,11.46,0,0,1,1.57.82h0a.13.13,0,0,0,.08,0l.15-.07h0a.11.11,0,0,0,.06-.07h0l1.44-4.82.77-2.59.06-.17h0l0-.13h0a.1.1,0,0,0,0-.07,12,12,0,0,0-1.18-.7h0A6.87,6.87,0,0,0,10.15.91a8.51,8.51,0,0,0-2.07.21Z" opacity="0.2" fill="url(#b9592425-ee2b-49f7-b3e1-8f4e7a7967df)" style="isolation: isolate"/>
  </g>
  <g>
    <path d="M2.32,10.51C7,8.59,9.21,9.61,11.23,11L8.9,19c-2-1.36-4.22-2.48-8.88-.55l2.27-7.9Z" fill="url(#b2854541-4a7f-4019-9441-eede9f44262c)"/>
    <path d="M.19,18.66l0,0,.06,0A.15.15,0,0,1,.19,18.66Z" fill="url(#b4abfa7a-5f57-4cbe-bf6f-2d2b87430c56)"/>
    <path d="M8.82,19.06a.08.08,0,0,0,.07,0l-.14.08a.1.1,0,0,1-.09,0Z" fill="#152469"/>
    <path d="M.24,18.64l0,0L0,18.54h0Z" fill="url(#a06409c3-8ea6-41f8-84a1-7b1be809919a)"/>
    <path d="M8.9,19A.23.23,0,0,1,9,19a.11.11,0,0,1-.07.08s-.07,0-.07,0A.21.21,0,0,0,8.9,19Z" fill="#152469"/>
    <path d="M0,18.54a.12.12,0,0,1,0-.11H0a.12.12,0,0,0,.06.12.07.07,0,0,1,0,0Z" fill="#172e65"/>
    <path d="M.23,18.64c4.43-1.74,6.42-.79,8.44.51A7.39,7.39,0,0,0,4.5,17.74a11.55,11.55,0,0,0-4.21.94A.17.17,0,0,1,.23,18.64Z" fill="url(#b5732110-ab04-4cbe-865d-2acf38a8b20a)"/>
    <path d="M8.82,19.07c-2-1.36-4.12-2.4-8.72-.53A.13.13,0,0,1,0,18.42c4.68-2,6.85-.83,8.87.53A.24.24,0,0,1,8.82,19.07Z" fill="#094b8f"/>
    <path d="M8.82,19.07l-.16.08c-2-1.3-4.07-2.2-8.42-.51l-.15-.1c4.61-1.87,6.71-.83,8.73.53Z" fill="#094b8f"/>
    <path d="M8.9,19l2.33-8,0,0L9,19A.17.17,0,0,0,8.9,19Z" fill="url(#a5525789-6d84-4743-8058-4dabf75acfbd)"/>
    <path d="M11.24,10.92h0a.09.09,0,0,1,0,.09h0l-.06,0Z" fill="url(#a64e7eeb-e57e-4940-ad29-e56f2648ca37)"/>
    <polygon points="2.29 10.52 0.03 18.42 0 18.43 2.27 10.51 2.29 10.52" fill="#063367" opacity="0.66" style="isolation: isolate"/>
    <path d="M2.27,10.51l-.11.38L0,18.43a.11.11,0,0,0,0,.11l.15.12h0l.06,0,2.29-7.95h0l-.25-.21ZM0,18.42H0l0,0,0,0Zm.06.12,0,0,0,0Z" opacity="0.42" fill="url(#baa012ab-d5b9-4266-8aa7-dc0e8bdb9393)" style="isolation: isolate"/>
    <path d="M11.27,11l0,0-.19.19h0c-.31,1.07-2.07,7.08-2.34,8h.06l.14-.08h0s.06,0,.07-.07H9l2.25-7.72.08-.27V11Z" opacity="0.42" fill="url(#e092dc18-b83c-4fd9-9d47-d71d03ea5888)" style="isolation: isolate"/>
    <path d="M11.22,11l-.19.2a7.59,7.59,0,0,0-4.6-1.42,13.34,13.34,0,0,0-3.89,1l-.25-.21,0-.06c4.66-1.93,6.91-.9,8.93.47h0Z" fill="url(#e8a5e105-f275-4fbf-941a-0762824066b0)"/>
    <path d="M2.51,10.7c4.67-1.93,6.75-.65,8.56.44l0,0C9.17,10,7.19,8.84,2.54,10.73Z" opacity="0.33" fill="url(#bb6d5b12-3646-4b88-be9c-dcc96a74dfe8)" style="isolation: isolate"/>
    <path d="M2.31,10.45c4.67-1.92,6.82-.93,8.93.48V11C9,9.54,7,8.59,2.35,10.49Z" opacity="0.33" fill="url(#b2984066-dee3-4d18-a238-f9f43535e04f)" style="isolation: isolate"/>
    <path d="M2.29,10.52h0s0,0,0,0h0a.15.15,0,0,1,0,.06Z" fill="url(#aca6fdd9-b922-4ef7-87bc-59a3362e3f6d)"/>
    <path d="M8.82,19.07c-2-1.36-4.11-2.4-8.72-.53A.13.13,0,0,1,0,18.42c4.68-2,6.86-.83,8.88.53a.2.2,0,0,1-.09.12Z" opacity="0.5" fill="url(#b25b4561-194e-4cbd-b083-9db6d5dea9ba)" style="isolation: isolate"/>
  </g>
  <g>
    <path d="M12.44,11.75c2,1.36,4.09,2.36,8.83.73l-2.21,7.71c-4.66,1.92-6.9.83-8.91-.53Z" fill="url(#be10decb-435e-4197-a827-7271d7ab7f3b)"/>
    <path d="M19.45,20.46a.2.2,0,0,1-.08.08h0a.14.14,0,0,1-.07,0,.24.24,0,0,0,.11-.15s.06,0,0,.09Z" fill="url(#ff861677-8ce8-4d07-be32-4c604cafb976)"/>
    <path d="M19.45,20.46s0-.08,0-.08l2.21-7.7a.19.19,0,0,1,0,.06Z" fill="url(#a03136e7-ee98-442d-a79b-1526ecb2c7d7)"/>
    <path d="M21.66,12.74s0,0,0-.05,0-.09,0-.09h0A.15.15,0,0,1,21.66,12.74Z" fill="url(#af2ecc5d-b12f-4dc4-ba29-c7bd3c52ae23)"/>
    <path d="M21.44,12.56a.19.19,0,0,0-.18-.06.07.07,0,0,1,0-.07c.08,0,.11,0,.13,0v0A.17.17,0,0,1,21.44,12.56Z" fill="url(#bd159cfa-a843-426e-8162-d0421f0e00be)"/>
    <path d="M21.44,12.45l.19.15a.2.2,0,0,1,0,.1l-.19-.15A.2.2,0,0,0,21.44,12.45Z" fill="url(#b03eb70f-c59b-424b-9ac6-4bb55bc9793c)"/>
    <polygon points="21.43 12.54 21.62 12.69 19.41 20.39 19.41 20.41 19.21 20.24 21.43 12.54" fill="#b37e00" opacity="0.66" style="isolation: isolate"/>
    <path d="M21.27,12.51c-4.68,1.6-6.82.65-8.84-.71a.15.15,0,0,0,0-.09c2,1.36,4.25,2.29,8.89.72A.09.09,0,0,0,21.27,12.51Z" fill="url(#e9970b1f-c617-4d06-9997-b9f49244a6af)"/>
    <polygon points="12.22 11.79 9.97 19.63 9.8 19.77 9.8 19.75 12.07 11.89 12.22 11.79" fill="#d9a200"/>
    <path d="M19,20.2l2.23-7.7h0a.18.18,0,0,1,.17,0l-2.21,7.69A.2.2,0,0,0,19,20.2Z" opacity="0.66" fill="url(#bfa7982b-8b11-47f4-8d8a-e248e309990d)" style="isolation: isolate"/>
    <path d="M19.38,20.54c-4.57,1.95-7.5.75-9.52-.61l0,0c2,1.36,5.13,2.49,9.42.6A.13.13,0,0,0,19.38,20.54Z" fill="#a85d10"/>
    <path d="M19.23,20.22l.18.17a.2.2,0,0,1-.12.13l-.19-.16A.24.24,0,0,0,19.23,20.22Z" opacity="0.66" fill="url(#a1a98e18-3302-44ee-a515-c7320adcf5bd)" style="isolation: isolate"/>
    <path d="M19,20.18a.23.23,0,0,0,.09.2c-4.84,1.75-6.91.7-9.06-.59a.22.22,0,0,0,.07-.13s0,0,0,0C12.26,20.94,14.66,22,19,20.18Z" fill="url(#a9343f91-6b7f-4eec-98fa-238ecf0d40d4)"/>
    <path d="M9.88,19.92l.19-.13c1.85,1.15,4.44,2.41,9,.57l.19.15c-4.28,1.9-7.4.77-9.42-.59Z" fill="#c67c0c"/>
    <path d="M9.9,19.93h0a.17.17,0,0,1-.08-.19A.25.25,0,0,0,9.9,19.93Z" fill="#de980d"/>
    <path d="M9.8,19.75l.17-.14c0,.12.12.17.12.17l-.19.15a.18.18,0,0,1-.1-.18Z" fill="url(#b4040149-0a62-43cf-81ec-98189cd5892a)"/>
    <path d="M10,19.61a.23.23,0,0,1,.19,0,.22.22,0,0,1-.07.14.17.17,0,0,1-.12-.18Z" fill="url(#fd225675-4f18-4bde-b234-b67e0457e504)"/>
    <path d="M12.25,11.72l0,.07-.16.11c0-.05.14-.14.18-.17Z" fill="#de980d"/>
    <path d="M12.43,11.8a.22.22,0,0,0-.21,0,.2.2,0,0,1,0-.06.1.1,0,1,1,.19.07Z" fill="url(#baad718c-0111-4343-865a-b11bd96fd7d1)"/>
    <path d="M10.17,19.67a.29.29,0,0,0-.21-.05l2.26-7.83a.2.2,0,0,1,.21,0Z" fill="url(#b342b2c1-96f1-400c-a4b0-1584ade4a46e)"/>
    <path d="M12.11,11.84c.69.6,3.69,3.05,9.52.76l-.19-.15s-.05,0-.13,0c-4.64,1.57-6.87.64-8.89-.72h0a.12.12,0,0,0-.17,0c-.1.06-.1.06-.14.11Z" opacity="0.33" fill="url(#af9e83be-58c7-4ebd-ac6f-8e3711619b82)" style="isolation: isolate"/>
    <path d="M21.63,12.6h0c-5.83,2.29-8.83-.16-9.52-.76l0,.05h0c.61.52,3.62,3.15,9.6.77a.12.12,0,0,0,0-.08Z" opacity="0.33" fill="url(#e4b7c74c-06b1-429b-baaf-37bc3e5b52a9)" style="isolation: isolate"/>
    <path d="M19.11,20.36a.18.18,0,0,1-.07-.18.19.19,0,0,1,.19.05A.22.22,0,0,1,19.11,20.36Z" fill="url(#f1f9c4e1-5632-4601-b68d-48dc2a102fa8)"/>
  </g>
  <g>
    <path d="M11.61,9.54a7.6,7.6,0,0,0-4.38-1.6A11.85,11.85,0,0,0,2.7,9.05L5,1.09c4.66-1.92,6.9-.83,8.92.53Z" fill="url(#a5dafc23-2935-4afb-863a-06b2ffcd37ac)"/>
    <path d="M11.61,9.54l2.3-7.92,0,0L11.66,9.59A.11.11,0,0,0,11.61,9.54Z" fill="#bc1b00"/>
    <path d="M2.92,9.28A13.91,13.91,0,0,1,5,8.6l.45-.1.44-.08c.23,0,.44-.06.66-.08l.53,0h.49l.42,0,.34,0A5,5,0,0,1,9,8.56a8.67,8.67,0,0,1,2.41,1.16h-.05A7.86,7.86,0,0,0,8,8.38a10.22,10.22,0,0,0-5,.9l-.07,0s0,0,0,0Z" fill="#bc1b00"/>
    <path d="M11.53,9.65a.08.08,0,0,0,.07,0l-.15.06a.13.13,0,0,1-.08,0Z" fill="#bc1b00"/>
    <path d="M2.92,9.28v0s0,0-.05,0h0l-.14-.12h0Z" fill="#b81a00"/>
    <path d="M11.61,9.54s0,0,.05.05a.17.17,0,0,1-.06.08.08.08,0,0,1-.07,0,.21.21,0,0,0,.08-.11Z" fill="#e82e00"/>
    <path d="M13.92,1.57h0a.09.09,0,0,1,0,.1h0l0,0Z" fill="#f83603"/>
    <path d="M2.7,9.16a.18.18,0,0,1,0-.13h0a.17.17,0,0,0,.06.14s0,0-.06,0Z" fill="#e32e00"/>
    <path d="M5,1.09H5S5,1,5,1H5Z" fill="url(#e3931ace-237e-4aa1-991c-69f3ffc5bc71)"/>
    <path d="M11.54,9.66C9.36,8.15,6.7,7.2,2.75,9.17l.17.11c4.31-1.76,6.56-.81,8.46.44Z" fill="#e82e00"/>
    <path d="M11.53,9.65A7.53,7.53,0,0,0,7.28,8.12,11.28,11.28,0,0,0,2.76,9.17a.12.12,0,0,1-.06-.12A11.7,11.7,0,0,1,7.26,7.92a7.54,7.54,0,0,1,4.35,1.62.17.17,0,0,1-.08.11Z" fill="#e82e00"/>
    <path d="M5,1.09H5L2.7,9h0Z" fill="#e32e00"/>
    <path d="M13.91,1.62C11.89.26,9.63-.8,5,1.09A.12.12,0,0,1,5,1C9.67-.89,11.9.2,13.92,1.57Z" opacity="0.66" fill="url(#b83c1018-7efa-4934-a1f7-a542ebc30b5b)" style="isolation: isolate"/>
    <path d="M13.64,1.89C12,.82,9.82-.52,5.18,1.37a.14.14,0,0,1,0-.06c4.65-1.92,6.85-.46,8.45.52Z" fill="#fe8411" opacity="0.33" style="isolation: isolate"/>
    <path d="M5.07,1.15H5l-2.32,8,.17.11h0l.05,0,2.27-8v0Z" opacity="0.36" fill="url(#fc807a14-1778-417f-9207-96faa4be3102)" style="isolation: isolate"/>
    <path d="M13.65,1.83h0Z" opacity="0.5" fill="url(#b6974431-3f1b-46c2-a234-1e708946f6f5)" style="isolation: isolate"/>
    <path d="M13.71,1.65A7.77,7.77,0,0,0,9.8.18a12.39,12.39,0,0,0-4.73,1l.13.17v0h0c4.61-2,7.46-.19,8.43.5h0l.14-.12-.09-.06Z" opacity="0.5" fill="url(#b55172d7-6cf3-4cd3-817f-9ced5a0ebf8e)" style="isolation: isolate"/>
    <path d="M5.07,1.15A12.39,12.39,0,0,1,9.8.18a7.77,7.77,0,0,1,3.91,1.47l.09.06.14-.11s0,0,0,0C12,.23,9.77-.84,5.31.92L5,1H5Z" fill="#fff4c5" opacity="0.5" style="isolation: isolate"/>
    <path d="M13.92,1.57v.05l-.11.09-.14.12h0c-.48,1.65-2,6.8-2.3,7.87h0a.13.13,0,0,0,.08,0l.15-.06h0s.05,0,.06-.08h0L13.86,2h0l.06-.19h0l0-.12a.08.08,0,0,0,0-.1Z" opacity="0.6" fill="url(#baa785f2-c3c5-4a20-854f-b77876882f23)" style="isolation: isolate"/>
    <path d="M11.54,9.65A7.59,7.59,0,0,0,7.29,8.11,11.5,11.5,0,0,0,2.76,9.16.11.11,0,0,1,2.7,9,11.7,11.7,0,0,1,7.26,7.92a7.64,7.64,0,0,1,4.36,1.61.2.2,0,0,1-.08.12Z" opacity="0.5" fill="url(#ace72d24-f224-4915-85a0-98c64bac3168)" style="isolation: isolate"/>
    <path d="M5,1.05a.05.05,0,0,0,0,0l-.12.4L2.67,9a.18.18,0,0,0,0,.13h0L5,1.15h.06Z" fill="none"/>
    <path d="M13.92,1.57h0a.09.09,0,0,1,0,.1h0l0,0Z" fill="#f83603"/>
    <path d="M5,1.09H5S5,1,5,1H5Z" fill="url(#a29c4f60-ea69-4165-9082-532390c4bdf9)"/>
    <path d="M13.91,1.62C11.89.26,9.63-.8,5,1.1A.32.32,0,0,1,5,1C9.67-.89,11.9.2,13.92,1.57Z" opacity="0.66" fill="url(#b83c1018-7efa-4934-a1f7-a542ebc30b5b)" style="isolation: isolate"/>
  </g>
  <g>
    <path d="M24,3c-4.65,1.93-6.89.84-8.9-.51l-2.3,8c2,1.36,4.45,2.48,8.91.49Z" fill="url(#b37a44f4-b74b-4952-adcf-058de3330cca)"/>
    <path d="M24,3c-4.65,1.92-6.88.84-8.89-.52a.21.21,0,0,0,0-.08c2,1.35,4.29,2.45,8.94.52A.18.18,0,0,0,24,3Z" fill="url(#b2c5099a-85e3-4703-9de8-a04a6b759100)"/>
    <polygon points="14.93 2.44 12.66 10.33 12.48 10.47 12.48 10.45 14.76 2.56 14.93 2.44" fill="#8cac42"/>
    <path d="M12.83,10.42c-.07,0-.12-.12-.19-.09l2.28-7.89a.23.23,0,0,1,.21,0Z" fill="url(#e4601ef2-4b17-4a7c-8471-21ce4410c4ba)"/>
    <path d="M15,2.39l0,.06-.17.12c0-.06.14-.15.18-.18Z" fill="#5f821c"/>
    <path d="M15.12,2.46a.2.2,0,0,0-.2,0,.2.2,0,0,1,0-.06.17.17,0,0,1,.18,0A.11.11,0,0,1,15.12,2.46Z" fill="url(#a5bd9b2a-8482-4e98-8efe-943d40def0e7)"/>
    <polygon points="24.18 3.02 24.37 3.17 22.06 11.09 21.88 10.94 24.18 3.02" opacity="0.81" fill="url(#be5baab2-c2e8-4061-8d1e-a0cd70751301)" style="isolation: isolate"/>
    <path d="M22.1,11.15s0-.08,0-.08l2.31-7.91s0,0,0,0Z" fill="#476e32"/>
    <path d="M22,11.23a11,11,0,0,1-3.52.95,8.22,8.22,0,0,1-4.65-.81,9.12,9.12,0,0,1-1.32-.74h0a11.22,11.22,0,0,0,1.29.75,9.24,9.24,0,0,0,4.65.81,12.08,12.08,0,0,0,3.44-1l.08,0Z" fill="#1d3419"/>
    <path d="M21.77,11.08a.27.27,0,0,1-.07-.2.22.22,0,0,1,.2,0A.23.23,0,0,1,21.77,11.08Z" fill="url(#a979cfdc-4588-4fdc-967f-e5c45d4c35ce)"/>
    <path d="M21.9,10.93l.16.14a.21.21,0,0,1-.12.14l-.17-.15a.23.23,0,0,0,.13-.13Z" fill="url(#bfc1c0d3-c3a7-4b88-8453-615d95471cc8)"/>
    <path d="M21.73,10.88a.23.23,0,0,0,.07.2c-4.65,1.92-7,.79-9.06-.57a.16.16,0,0,0,.06-.11A8.55,8.55,0,0,0,21.73,10.88Z" fill="url(#abeb5ac8-f67f-495e-a466-cdb98a52f247)"/>
    <path d="M12.57,10.62l.17-.11c2,1.3,4.39,2.42,9,.55l.17.14c-4.46,2-7.32.88-9.38-.58Z" fill="#26551b"/>
    <path d="M22.1,11.15a.19.19,0,0,1-.07.08h0a.13.13,0,0,1-.07,0,.22.22,0,0,0,.11-.15s.06,0,0,.1Z" fill="#5f821c"/>
    <path d="M12.57,10.62l0,0a.16.16,0,0,1-.07-.19A.2.2,0,0,0,12.57,10.62Z" fill="#26551b"/>
    <path d="M12.48,10.45l.17-.13a.18.18,0,0,0,.1.18l-.17.13a.18.18,0,0,1-.1-.18Z" fill="url(#b61fad61-6790-4cc7-9755-636df397414b)"/>
    <path d="M12.65,10.32s.1,0,.17.1,0,.06-.07.09A.16.16,0,0,1,12.65,10.32Z" fill="url(#e76d0ec5-7869-4a7d-abfa-2b8a603c23f4)"/>
    <path d="M24.39,3.08a.29.29,0,0,1,0,.08L24.19,3a.22.22,0,0,0,0-.1A.83.83,0,0,1,24.39,3.08Z" opacity="0.72" fill="url(#ec0c7e5e-8a9d-4f0f-8256-194235613ee0)" style="isolation: isolate"/>
    <path d="M24.38,3.08A.8.8,0,0,0,24.25,3a.18.18,0,0,0-.2,0h0c-4.64,1.92-6.92.82-8.93-.53v0a.17.17,0,0,0-.18,0l-.15.13c.78.65,4.07,3.23,9.59.56Zm-9.26-.62h0v0Z" opacity="0.33" fill="url(#b3594fb7-66d7-43f0-9205-51da349202f6)" style="isolation: isolate"/>
    <path d="M21.71,10.9,24,3a.18.18,0,0,1,.18,0L21.9,10.93A.21.21,0,0,0,21.71,10.9Z" opacity="0.72" fill="url(#a0bae348-08c5-412d-bf02-b4b06710fbf5)" style="isolation: isolate"/>
    <path d="M24,3a.13.13,0,0,1,0-.07.18.18,0,0,1,.2,0c.08.07.2.15.16.26l0,0L24.19,3A.19.19,0,0,0,24,3Z" opacity="0.6" fill="url(#b48aef51-c172-46df-afc0-e67077255fda)" style="isolation: isolate"/>
    <path d="M14.79,2.52l0,0h0v0c.7.59,4,3.32,9.67.57a.12.12,0,0,0,0-.08c-5.52,2.67-8.81.09-9.59-.56Z" opacity="0.3" fill="url(#beb833c6-a24e-4764-8617-8dc7186ab0fd)" style="isolation: isolate"/>
    <path d="M24.39,3.09a.31.31,0,0,1,0,.07L24.19,3a.22.22,0,0,0,0-.1A.65.65,0,0,1,24.39,3.09Z" opacity="0.72" fill="url(#a1da57eb-c2dc-46c6-945d-278d3072807e)" style="isolation: isolate"/>
    <path d="M24,3a.13.13,0,0,1,0-.07.18.18,0,0,1,.2,0c.08.07.2.15.16.27a.19.19,0,0,0,0-.06L24.19,3A.19.19,0,0,0,24,3Z" opacity="0.6" fill="url(#a6b5a1fa-a6a0-454d-acd7-80c55e2d1a69)" style="isolation: isolate"/>
  </g>
</svg>
